<svg width="700" height="697" viewBox="0 0 700 697" fill="none" xmlns="http://www.w3.org/2000/svg">
<g clip-path="url(#clip0_3591_3502)">
<path opacity="0.997" d="M172.967 302.655C148.683 297.798 126.585 293.427 123.671 292.699L118.572 291.727L119.057 281.771C119.786 266.23 125.614 249.231 134.599 236.604C139.212 230.048 142.126 227.619 145.283 227.619C146.74 227.619 163.739 236.847 189.479 251.417C212.548 264.53 231.732 275.215 231.732 275.458C231.975 275.7 230.518 277.643 228.818 280.072C224.933 285.171 221.776 293.427 221.047 299.984C219.833 311.64 219.59 311.883 218.133 311.883C217.89 311.639 197.25 307.512 172.967 302.655Z" fill="#565581" stroke="#303030" stroke-width="7.938" stroke-miterlimit="15.1181" stroke-linecap="round"/>
<path opacity="0.997" d="M189.722 247.532C166.653 234.418 147.469 223.734 147.226 223.491C146.498 222.763 149.169 213.292 151.354 208.192C154.511 200.665 160.582 191.68 166.653 185.852C174.909 177.595 187.537 169.582 191.422 170.31C192.636 170.553 204.778 182.938 226.147 206.249C244.117 225.919 258.93 242.189 258.93 242.675C258.93 243.16 257.23 244.374 255.044 245.589C248.731 248.745 242.902 254.574 239.26 262.344C237.317 265.987 235.86 269.629 235.86 270.358C235.86 271.086 234.889 271.572 233.918 271.572C232.703 271.329 212.791 260.644 189.722 247.532Z" fill="#565581" stroke="#303030" stroke-width="7.938" stroke-miterlimit="15.1181" stroke-linecap="round"/>
<path opacity="0.997" d="M227.847 203.579C210.12 184.395 195.55 167.882 195.307 167.153C194.579 163.511 206.721 148.941 216.191 142.142C226.147 135.099 239.989 129.757 249.217 129.757H253.102L270.586 169.096C280.299 190.708 289.284 211.106 290.984 214.506L293.898 220.577L289.041 221.549C279.328 223.491 271.8 227.862 266.944 234.419C265.001 237.333 263.301 238.547 262.087 238.547C260.63 238.547 250.916 228.591 227.847 203.579Z" fill="#565581" stroke="#303030" stroke-width="7.938" stroke-miterlimit="15.1181" stroke-linecap="round"/>
<path opacity="0.997" d="M276.171 173.467C265.729 149.912 256.987 130 256.987 129.029C256.987 124.9 270.343 115.673 282.728 111.545C289.527 109.359 292.441 108.63 301.183 108.388C310.653 107.902 322.067 109.116 324.495 110.573C324.981 111.059 327.166 129.029 329.837 157.197C332.266 182.452 334.451 204.55 334.694 206.25L335.18 209.164L326.923 208.921C317.453 208.678 310.168 210.135 303.368 214.021C295.598 218.392 297.783 221.548 276.171 173.467Z" fill="#565581" stroke="#303030" stroke-width="7.938" stroke-miterlimit="15.1181" stroke-linecap="round"/>
<path opacity="0.997" d="M366.505 207.707C360.434 205.764 351.935 205.521 344.164 206.978C341.008 207.707 338.337 207.95 338.094 207.707C337.851 207.464 335.665 186.58 333.237 161.083C330.809 135.585 328.623 113.73 328.38 112.516C328.137 110.573 328.38 110.087 332.994 108.145C343.436 103.531 356.306 101.831 368.691 103.288C381.561 104.745 396.616 110.816 396.616 114.216C396.616 114.944 392.003 136.799 386.175 162.782L375.733 209.892H373.547C372.819 209.407 369.419 208.435 366.505 207.707Z" fill="#565581" stroke="#303030" stroke-width="7.938" stroke-miterlimit="15.1181" stroke-linecap="round"/>
<path opacity="0.997" d="M408.758 218.877C402.687 214.021 396.617 211.835 387.146 211.349C382.775 211.107 379.133 210.864 379.133 210.621C379.133 208.678 400.745 114.216 401.473 113.73C402.688 112.516 418.715 112.03 425.271 113.002C433.042 114.459 442.27 118.101 449.797 122.958C456.111 127.086 466.796 136.557 466.796 138.257C466.796 138.742 455.868 157.683 442.512 180.51C414.587 227.619 416.772 225.191 408.758 218.877Z" fill="#565581" stroke="#303030" stroke-width="7.938" stroke-miterlimit="15.1181" stroke-linecap="round"/>
<path opacity="0.997" d="M443.726 245.346C439.113 237.333 431.099 231.262 421.871 228.105C421.143 227.862 420.414 226.891 420.414 225.919C420.414 224.705 460.482 155.498 468.981 142.142C470.195 140.442 470.438 140.442 474.809 141.413C481.366 142.87 489.136 146.513 494.964 150.155C505.406 157.197 517.062 170.068 522.647 181.238L524.59 185.123L522.647 187.066C521.433 188.037 504.92 202.85 485.979 219.605C459.268 243.16 450.769 250.202 449.069 250.202C446.883 249.717 445.912 248.989 443.726 245.346Z" fill="#565581" stroke="#303030" stroke-width="7.938" stroke-miterlimit="15.1181" stroke-linecap="round"/>
<path opacity="0.997" d="M468.495 280.314C466.796 273.272 462.667 265.744 457.568 260.645C454.411 257.488 452.954 255.545 452.954 254.088C452.954 252.388 460.725 245.346 488.651 220.577C510.991 200.908 525.076 189.251 526.29 189.009C531.389 188.28 545.231 201.15 552.759 213.535C557.372 221.305 562.229 234.661 563.201 241.946L563.686 246.56L518.519 265.744C493.75 276.186 472.381 284.928 471.409 284.928C469.709 284.928 469.224 284.442 468.495 280.314Z" fill="#565581" stroke="#303030" stroke-width="7.938" stroke-miterlimit="15.1181" stroke-linecap="round"/>
<path opacity="0.997" d="M481.608 316.982C481.608 306.054 480.637 302.655 475.538 295.127C471.409 289.056 469.467 290.27 518.034 269.387C542.317 258.945 563.201 250.688 564.172 250.688C566.843 250.688 573.643 258.459 577.528 265.744C583.113 276.429 584.57 283.228 584.57 299.498C584.57 307.754 584.084 314.554 583.599 315.768L582.627 317.953L532.847 322.324C505.649 324.753 482.823 326.695 482.337 326.695C482.094 327.181 481.608 323.053 481.608 316.982Z" fill="#565581" stroke="#303030" stroke-width="7.938" stroke-miterlimit="15.1181" stroke-linecap="round"/>
<path opacity="0.997" d="M549.116 383.761C533.818 380.119 512.205 374.776 501.278 372.105C485.251 368.22 481.366 367.006 481.366 365.792C481.366 365.063 482.094 362.392 483.065 359.721C485.737 352.679 486.222 345.636 484.28 337.866C483.551 334.223 483.065 331.066 483.308 330.824C483.794 330.338 583.599 321.11 584.084 321.353C584.084 321.353 585.299 324.995 586.513 329.124C588.698 336.166 588.941 337.866 588.941 351.95C588.941 368.463 588.213 372.591 582.87 384.247C580.928 388.861 579.714 390.561 578.499 390.318C577.771 390.561 564.415 387.404 549.116 383.761Z" fill="#565581" stroke="#303030" stroke-width="7.938" stroke-miterlimit="15.1181" stroke-linecap="round"/>
<path opacity="0.997" d="M510.02 433.785C475.052 412.659 468.738 408.773 468.495 407.073C468.252 405.616 469.467 403.431 471.652 400.274C476.023 394.689 478.451 386.675 478.694 377.691C478.937 371.62 479.18 371.134 480.637 371.134C483.065 371.134 578.013 393.96 578.742 394.689C578.985 394.932 579.228 399.303 579.228 404.16C578.985 422.372 571.457 441.556 559.315 454.669C556.644 457.583 554.944 458.797 553.244 458.797C552.03 458.554 536.003 449.326 510.02 433.785Z" fill="#565581" stroke="#303030" stroke-width="7.938" stroke-miterlimit="15.1181" stroke-linecap="round"/>
<path opacity="0.997" d="M472.866 478.467C437.898 438.399 438.141 438.885 443.969 435.485C449.554 432.571 457.325 424.072 460.482 417.758C462.91 412.901 463.639 411.93 465.338 411.93C466.553 411.93 484.765 422.372 510.02 437.185C551.544 461.954 552.516 462.682 552.03 464.868C550.087 473.367 545.231 483.08 538.674 491.337C529.689 502.75 515.119 513.677 508.077 514.406L504.92 514.892L472.866 478.467Z" fill="#565581" stroke="#303030" stroke-width="7.938" stroke-miterlimit="15.1181" stroke-linecap="round"/>
<path opacity="0.997" d="M426 510.763C414.829 484.78 405.602 463.168 405.844 462.682C406.087 462.197 408.273 461.225 410.701 460.497C417.986 458.554 424.543 454.912 429.642 449.812C433.284 446.17 435.227 444.955 436.927 444.955C438.87 444.955 443.969 450.298 471.167 481.38C488.894 501.536 503.221 518.291 503.464 518.777C503.949 520.477 495.45 532.376 488.651 539.175C482.823 545.003 480.152 546.946 473.595 550.103C466.553 553.502 451.497 558.359 447.854 558.359C446.883 558.116 440.084 543.06 426 510.763Z" fill="#565581" stroke="#303030" stroke-width="7.938" stroke-miterlimit="15.1181" stroke-linecap="round"/>
<path opacity="0.997" d="M378.89 578.757C377.19 578.514 375.49 577.786 375.004 577.543C374.519 577.057 364.562 481.623 364.562 476.038V473.367L369.176 473.853C376.461 474.338 385.203 472.639 392.488 468.753C396.131 466.811 400.016 465.354 400.987 465.354C402.444 465.354 405.601 471.667 423.085 512.463L443.483 559.573L440.083 562.487C432.07 569.529 418.228 575.843 406.087 578.514C399.53 579.485 384.718 579.728 378.89 578.757Z" fill="#565581" stroke="#303030" stroke-width="7.938" stroke-miterlimit="15.1181" stroke-linecap="round"/>
<path opacity="0.997" d="M330.809 583.857C320.61 582.642 301.911 575.843 301.911 573.415C301.911 572.929 306.525 550.103 312.353 522.905C321.824 477.981 323.038 473.367 324.495 473.367C325.466 473.367 328.866 474.095 332.266 475.31C339.308 477.495 349.264 477.738 355.821 476.038C358.249 475.31 360.677 475.067 360.677 475.31C360.92 475.552 363.348 498.622 366.262 526.79C370.876 572.686 371.362 577.786 370.148 578.757C367.962 580.214 355.821 583.371 348.05 584.342C340.037 584.828 339.065 584.828 330.809 583.857Z" fill="#565581" stroke="#303030" stroke-width="7.938" stroke-miterlimit="15.1181" stroke-linecap="round"/>
<path opacity="0.997" d="M285.884 572.443C267.429 570.743 248.488 563.216 238.289 553.988C234.646 550.588 233.189 548.646 233.189 547.189C233.189 545.974 244.117 525.819 257.716 502.264C285.399 453.94 282.97 456.855 290.984 462.682C296.812 467.054 303.126 469.482 312.596 470.696C319.638 471.667 320.124 471.91 319.638 473.367C318.91 476.524 298.512 572.443 298.512 572.929C298.269 573.657 296.326 573.415 285.884 572.443Z" fill="#565581" stroke="#303030" stroke-width="7.938" stroke-miterlimit="15.1181" stroke-linecap="round"/>
<path opacity="0.997" d="M222.505 543.789C217.648 542.089 207.449 536.747 203.078 533.59C190.936 525.334 176.366 506.393 177.58 500.322C177.823 499.593 193.365 484.295 212.548 466.568C239.746 441.556 247.759 434.271 249.459 434.271C251.159 434.271 252.616 435.485 255.53 439.128C260.144 444.956 266.7 449.569 274.471 452.241C277.628 453.455 280.299 454.669 280.299 454.912C280.299 455.154 268.886 475.795 254.801 500.322C227.118 549.131 229.304 546.217 222.505 543.789Z" fill="#565581" stroke="#303030" stroke-width="7.938" stroke-miterlimit="15.1181" stroke-linecap="round"/>
<path opacity="0.997" d="M170.052 494.251C153.054 482.109 142.612 468.51 136.784 451.755C132.656 439.37 127.799 443.013 179.766 418.972C204.778 407.316 226.147 397.846 227.119 397.846C228.818 397.846 229.304 398.574 230.518 403.431C232.461 410.959 235.861 416.544 242.417 422.858C245.574 425.772 247.759 428.443 247.517 429.171C247.274 429.657 231.247 444.955 211.577 463.168C188.994 484.052 175.395 496.193 174.181 496.193C173.452 496.193 171.509 495.465 170.052 494.251Z" fill="#565581" stroke="#303030" stroke-width="7.938" stroke-miterlimit="15.1181" stroke-linecap="round"/>
<path opacity="0.997" d="M128.528 432.328C119.3 422.372 113.472 407.559 112.258 391.046C111.772 382.79 113.472 371.134 115.658 369.434C116.629 368.706 212.791 357.05 216.677 357.05C217.648 357.05 217.891 358.264 217.648 364.335C217.405 373.32 218.619 378.419 223.476 386.432C225.419 389.589 226.876 392.503 226.876 392.989C226.876 393.96 135.813 436.213 133.628 436.213C132.899 436.213 130.471 434.514 128.528 432.328Z" fill="#565581" stroke="#303030" stroke-width="7.938" stroke-miterlimit="15.1181" stroke-linecap="round"/>
<path opacity="0.997" d="M113.472 362.635C108.616 350.25 107.401 327.181 111.044 314.068C113.229 306.055 117.843 295.613 119.3 295.613C121 295.613 218.619 315.039 218.862 315.525C219.105 315.768 218.376 318.196 217.162 321.11C213.034 331.309 212.306 343.208 215.462 350.493C216.191 352.193 216.434 353.65 216.434 353.893C216.191 354.135 117.6 366.034 115.415 366.034C115.172 365.792 114.201 364.335 113.472 362.635Z" fill="#565581" stroke="#303030" stroke-width="7.938" stroke-miterlimit="15.1181" stroke-linecap="round"/>
<path opacity="0.997" d="M9.53935 376.234C9.29645 375.505 8.0824 368.948 6.86819 361.906C2.74007 338.351 2.98282 317.468 7.83949 299.012C10.025 290.999 15.6102 275.943 16.8243 275.215C17.5528 274.729 48.8784 280.8 49.6068 281.528C50.0924 281.771 49.1211 285.171 47.6642 288.813C38.1937 312.611 36.9795 339.08 44.2645 367.249C45.2358 370.891 45.7214 373.805 45.7214 373.805C45.2358 374.048 13.6673 377.69 11.9674 377.69C10.7532 377.69 9.78226 376.962 9.53935 376.234Z" fill="#565581" stroke="#303030" stroke-width="7.938" stroke-miterlimit="15.1181" stroke-linecap="round"/>
<path opacity="0.997" d="M33.0942 274.972C24.8378 273.272 18.0385 271.815 17.7956 271.815C17.3099 271.572 20.9524 248.746 23.3808 237.818C27.0233 220.577 33.3371 204.55 41.1076 193.137C45.7214 186.094 54.4635 177.11 56.4062 177.11C57.8632 177.11 81.4181 189.98 83.3607 191.68C83.8464 192.165 81.9038 194.837 78.9897 198.236C60.7772 218.877 51.3066 243.403 51.3066 269.872C51.3066 277.4 51.0637 278.129 49.8497 278.129C48.8784 278.129 41.3506 276.672 33.0942 274.972Z" fill="#565581" stroke="#303030" stroke-width="7.938" stroke-miterlimit="15.1181" stroke-linecap="round"/>
<path opacity="0.997" d="M70.7335 180.509C62.9628 176.138 58.8346 173.467 58.8346 172.496C58.8346 169.825 66.8481 151.855 71.9477 143.356C78.9899 131.457 85.7892 122.715 95.5025 113.487C104.73 104.502 119.057 94.5461 121.971 94.7889C124.4 95.0316 142.855 115.187 142.855 117.615C142.855 119.072 141.641 120.044 135.813 122.715C111.287 134.128 95.7454 152.583 88.2176 179.295C86.275 186.094 85.7892 187.308 84.0895 187.308C83.1182 187.066 77.0471 184.152 70.7335 180.509Z" fill="#565581" stroke="#303030" stroke-width="7.938" stroke-miterlimit="15.1181" stroke-linecap="round"/>
<path opacity="0.997" d="M136.299 103.774C129.256 96.0031 126.828 92.6035 126.828 91.1464C126.828 89.4465 129.256 86.5325 137.27 78.519C152.811 62.9775 162.768 55.6926 178.309 47.922C185.837 44.0368 203.078 37.9659 208.906 36.9944L211.577 36.5088L218.376 51.5645C222.019 59.8209 224.933 66.6201 224.69 66.863C224.447 67.1058 221.048 67.8345 216.919 68.5629C189.479 73.9052 167.867 87.5039 154.025 108.388C150.869 113.002 149.412 114.701 147.954 114.701C146.255 114.216 142.855 111.059 136.299 103.774Z" fill="#565581" stroke="#303030" stroke-width="7.938" stroke-miterlimit="15.1181" stroke-linecap="round"/>
<path opacity="0.997" d="M220.805 49.8648C217.648 42.8226 214.977 36.509 214.977 35.7804C214.977 32.8663 235.132 22.1817 250.188 17.325C267.186 11.7398 284.913 9.55426 302.883 11.2541C308.954 11.7398 314.296 12.4683 315.024 12.7111C315.753 12.9538 316.481 17.5678 317.453 27.0384C318.181 34.8091 318.667 41.1227 318.667 41.1227C318.424 41.3655 315.753 40.88 312.596 40.3943C303.611 39.1801 285.884 39.4229 277.385 40.88C262.087 43.5511 248.002 49.6219 236.103 58.6068C230.437 62.8159 225.338 59.9018 220.805 49.8648Z" fill="#565581" stroke="#303030" stroke-width="7.938" stroke-miterlimit="15.1181" stroke-linecap="round"/>
<path opacity="0.997" d="M404.387 41.1227C381.561 30.1952 356.306 28.7382 332.023 36.7517C327.894 38.2086 323.766 39.4229 323.038 39.4229C322.066 39.4229 321.581 36.9944 320.852 27.524C320.367 20.9675 319.638 14.8966 319.395 13.9253C319.152 12.4683 319.881 11.7398 324.252 10.2828C327.166 9.31135 333.237 7.36874 337.851 6.15454C345.621 3.96902 347.564 3.96902 363.834 3.96902C379.861 3.96902 382.289 4.21177 391.031 6.15454C398.559 7.8544 418.229 14.6537 419.443 15.6251C419.686 15.8679 418.229 22.1817 416.529 29.7095C412.644 45.7365 413.129 45.251 404.387 41.1227Z" fill="#565581" stroke="#303030" stroke-width="7.938" stroke-miterlimit="15.1181" stroke-linecap="round"/>
<path opacity="0.997" d="M493.993 72.6912C473.838 53.7501 452.468 45.251 426.485 45.4937C417.015 45.4937 416.286 45.4937 416.286 44.0368C416.286 43.0653 417.743 36.5089 419.2 29.4668L422.114 16.3537L427.214 16.8393C467.524 20.2391 489.865 28.2526 510.02 46.9509C512.934 49.622 515.363 52.5361 515.605 53.2645C515.848 54.4787 514.149 58.3639 509.535 66.1346C502.007 79.4904 501.521 79.7334 493.993 72.6912Z" fill="#565581" stroke="#303030" stroke-width="7.938" stroke-miterlimit="15.1181" stroke-linecap="round"/>
<path opacity="0.997" d="M567.815 127.814C551.788 104.017 535.76 90.9036 514.877 84.1044C505.163 80.9475 505.163 80.7046 513.177 67.1059C516.577 61.2778 519.733 56.4211 519.976 56.1784C521.19 55.45 541.103 62.492 549.116 66.3774C560.287 71.9626 568.3 77.5477 576.556 85.8041C584.813 94.0605 590.155 101.103 595.74 111.544L599.626 118.587L589.184 127.814C581.899 134.371 578.013 137.042 576.556 137.042C574.614 137.285 573.157 135.828 567.815 127.814Z" fill="#565581" stroke="#303030" stroke-width="7.938" stroke-miterlimit="15.1181" stroke-linecap="round"/>
<path opacity="0.997" d="M627.552 214.02C624.395 192.165 617.11 176.381 603.268 162.054C599.383 157.926 592.584 152.098 588.455 149.184C578.013 141.899 578.013 141.656 590.398 130.971C596.712 125.386 600.597 122.715 602.054 122.715C607.154 122.715 632.408 145.541 640.907 158.169C649.892 171.282 656.934 190.223 657.663 202.365C657.906 205.036 656.206 207.707 653.535 208.678L644.793 212.321C637.507 215.477 630.951 217.906 629.98 217.906C628.523 218.149 628.037 217.177 627.552 214.02Z" fill="#565581" stroke="#303030" stroke-width="7.938" stroke-miterlimit="15.1181" stroke-linecap="round"/>
<path opacity="0.997" d="M656.206 304.112C657.906 293.913 657.177 278.129 654.749 268.658C651.349 255.059 645.279 242.675 636.294 230.776C633.623 227.134 631.68 223.977 631.923 223.005C632.166 221.791 635.322 220.091 645.278 215.72C652.564 212.563 658.877 210.378 659.606 210.621C661.548 211.349 670.776 225.434 675.633 234.418C683.646 249.96 687.046 261.616 688.503 277.886C689.231 286.871 688.26 307.026 687.046 308.24C686.803 308.483 681.461 309.212 675.39 309.697C669.319 310.183 662.277 310.911 659.848 311.154L655.477 311.64L656.206 304.112Z" fill="#565581" stroke="#303030" stroke-width="7.938" stroke-miterlimit="15.1181" stroke-linecap="round"/>
<path opacity="0.997" d="M665.919 411.687C659.606 409.987 653.535 408.53 652.321 408.288C649.65 407.559 649.892 404.888 653.292 396.389C662.762 373.562 664.462 350.493 658.392 327.424C654.992 314.554 654.992 315.282 657.42 314.796C658.635 314.554 664.948 313.825 671.505 313.339C678.061 312.854 684.375 312.125 685.346 312.125C687.046 311.883 687.532 312.611 689.717 318.925C694.331 331.795 696.031 342.237 696.031 356.807C696.031 365.549 695.545 371.862 694.574 376.476C691.174 392.503 681.947 414.844 678.79 414.601C678.061 414.601 672.233 413.144 665.919 411.687Z" fill="#565581" stroke="#303030" stroke-width="7.938" stroke-miterlimit="15.1181" stroke-linecap="round"/>
<path opacity="0.997" d="M629.98 505.664C620.024 499.836 616.867 497.408 616.867 496.193C616.867 495.222 620.024 491.337 624.152 486.966C635.808 474.581 642.85 462.682 646.735 447.627C648.678 440.584 648.921 437.67 648.921 425.529C648.921 413.63 649.164 411.687 650.378 411.687C652.563 411.687 678.79 418.244 679.275 418.972C679.518 419.215 680.004 425.043 680.247 431.842C680.975 463.168 672.476 487.694 653.535 507.606C648.921 512.463 646.978 513.92 645.278 513.92C644.064 513.435 637.508 510.035 629.98 505.664Z" fill="#565581" stroke="#303030" stroke-width="7.938" stroke-miterlimit="15.1181" stroke-linecap="round"/>
<path opacity="0.997" d="M567.814 586.771C560.529 578.514 556.887 573.415 556.887 572.201C556.887 570.744 557.858 569.772 561.744 567.587C585.299 555.688 601.811 536.018 610.068 510.278C612.496 502.507 612.982 501.536 614.924 501.536C615.896 501.536 622.938 505.179 630.466 509.792C645.521 518.777 644.55 517.563 642.122 526.548C637.508 543.304 627.794 559.573 613.953 573.172C603.997 583.128 582.87 599.398 579.956 599.398C579.228 599.155 573.642 593.57 567.814 586.771Z" fill="#565581" stroke="#303030" stroke-width="7.938" stroke-miterlimit="15.1181" stroke-linecap="round"/>
<path opacity="0.997" d="M487.679 652.821C480.88 637.523 476.023 625.867 476.023 624.41C476.023 623.195 477.966 622.467 487.194 620.039C515.362 612.996 536.003 600.126 546.688 582.642C551.788 574.386 552.516 574.386 563.929 587.499C569.029 593.327 574.128 598.912 575.342 600.126L577.285 602.312L573.157 607.897C567.086 615.91 554.701 628.052 545.716 634.366C532.603 643.836 506.135 655.249 492.779 657.435L489.622 657.921L487.679 652.821Z" fill="#565581" stroke="#303030" stroke-width="7.938" stroke-miterlimit="15.1181" stroke-linecap="round"/>
<path opacity="0.997" d="M393.46 684.147C389.331 683.904 385.689 683.419 385.446 683.176C385.203 682.933 381.561 651.607 381.561 648.936C381.561 648.693 384.718 648.693 388.603 649.179C397.831 650.15 416.043 649.422 425.028 647.722C432.799 646.265 444.698 642.137 451.011 638.98C453.197 637.766 458.053 634.852 461.939 632.181C465.824 629.51 469.71 627.567 470.924 627.567C472.624 627.567 473.595 629.267 479.666 643.108C483.308 651.607 486.465 658.892 486.465 659.135C486.465 659.378 484.037 661.321 481.123 663.506C459.996 679.776 428.671 687.061 393.46 684.147Z" fill="#565581" stroke="#303030" stroke-width="7.938" stroke-miterlimit="15.1181" stroke-linecap="round"/>
<path opacity="0.997" d="M322.795 691.918C312.353 690.703 299.726 687.789 289.527 684.147C284.427 682.447 279.813 680.504 279.57 680.262C279.328 679.776 280.542 672.005 282.485 662.777C285.884 647.236 286.127 646.022 288.07 645.779C289.041 645.536 293.655 646.75 298.269 648.45C315.51 654.521 321.095 655.492 340.036 655.492C356.306 655.492 357.763 655.25 365.777 653.064C370.39 651.607 375.247 650.636 376.461 650.636H378.647L380.104 664.72C382.289 686.575 383.018 683.904 373.305 687.061C368.691 688.518 361.649 690.218 357.763 690.946C348.778 692.403 331.78 692.889 322.795 691.918Z" fill="#565581" stroke="#303030" stroke-width="7.938" stroke-miterlimit="15.1181" stroke-linecap="round"/>
<path opacity="0.997" d="M253.345 678.562C231.49 675.648 211.092 668.363 196.764 657.921C188.508 651.85 180.009 644.079 179.28 641.894C179.037 640.437 181.223 636.066 186.808 625.867C193.365 614.454 195.307 611.783 197.007 611.54C198.464 611.297 200.892 612.997 205.506 616.639C220.805 629.024 234.889 636.794 248.973 641.165C255.287 643.108 258.687 643.594 269.857 643.836C282.727 644.322 282.97 644.322 282.727 646.022C282.485 646.993 280.785 655.007 279.085 663.506L275.685 679.29L265.729 679.047C260.387 678.804 254.802 678.804 253.345 678.562Z" fill="#565581" stroke="#303030" stroke-width="7.938" stroke-miterlimit="15.1181" stroke-linecap="round"/>
<path opacity="0.997" d="M165.681 636.552C138.241 626.838 116.386 608.868 101.573 583.857C99.1448 579.971 97.4451 575.843 97.4451 574.872C97.4451 572.443 119.543 552.045 122.214 552.045C123.428 552.045 124.643 553.259 126.1 556.902C129.742 564.673 137.513 575.843 144.069 582.157C154.754 592.842 170.538 601.583 186.565 605.712C191.179 606.926 192.879 607.654 192.636 608.626C192.393 609.354 188.751 616.396 184.137 624.41C174.909 640.68 175.88 640.194 165.681 636.552Z" fill="#565581" stroke="#303030" stroke-width="7.938" stroke-miterlimit="15.1181" stroke-linecap="round"/>
<path opacity="0.997" d="M80.9325 559.088C57.1348 535.775 45.4787 518.534 39.6507 498.622C38.4365 494.737 37.4652 490.123 37.2223 488.423L36.9794 485.509L52.035 478.467C60.2914 474.581 67.8193 471.424 68.7906 471.424C70.4904 471.424 70.7332 471.91 71.219 475.795C72.9189 487.451 78.5041 502.021 85.789 513.435C90.6457 520.72 106.673 537.232 113.958 542.089C117.357 544.517 118.814 545.974 118.814 547.431C118.814 550.102 96.9593 570.258 94.0454 570.258C92.5885 570.015 89.1889 567.101 80.9325 559.088Z" fill="#565581" stroke="#303030" stroke-width="7.938" stroke-miterlimit="15.1181" stroke-linecap="round"/>
<path opacity="0.997" d="M29.6944 472.396C12.9389 443.013 5.89673 414.601 8.81064 389.832C9.29629 385.461 9.78194 381.576 10.0248 381.576C10.0248 381.576 17.067 380.604 25.5662 379.633C34.0653 378.662 42.0789 377.69 43.5359 377.448C45.1548 377.124 45.8024 378.014 45.4785 380.119C44.0216 387.647 43.5359 402.702 44.2643 411.201C46.2069 431.6 52.7634 447.869 65.3909 462.439L69.2762 467.053L64.6625 468.996C62.234 470.21 55.192 473.367 48.8782 476.281C42.5644 479.195 37.2221 481.623 36.2508 481.623C35.5223 481.623 33.3369 478.467 29.6944 472.396Z" fill="#565581" stroke="#303030" stroke-width="7.938" stroke-miterlimit="15.1181" stroke-linecap="round"/>
<path opacity="0.997" d="M65.6339 457.826C58.8346 449.327 52.2781 436.456 49.6069 425.529C47.6643 418.487 47.4214 414.844 47.1785 404.402C46.9356 391.532 47.9071 379.876 49.1211 377.933C49.6068 377.205 58.8345 375.748 80.6896 373.077C97.688 371.134 111.529 369.434 111.529 369.677C111.529 369.677 111.044 371.862 110.315 374.048C109.344 376.719 109.101 381.576 109.101 387.647C109.101 404.645 115.415 422.615 125.128 433.3L129.985 438.642L125.371 440.584C122.943 441.799 110.315 447.384 97.6879 453.455C85.0605 459.526 73.6473 464.382 72.6759 464.382C71.7046 464.382 69.5193 462.44 65.6339 457.826Z" fill="#D87AF2" stroke="#303030" stroke-width="7.938" stroke-miterlimit="15.1181" stroke-linecap="round"/>
<path opacity="0.997" d="M48.6355 371.377C48.1498 370.163 46.6929 364.092 45.4787 358.264C41.5933 338.594 41.8362 319.653 46.45 302.412C48.8784 293.427 53.4922 282.5 54.9491 282.5C55.9204 282.5 109.101 292.941 113.472 294.156C114.767 294.479 114.443 296.746 112.501 300.955C107.644 311.64 105.702 320.624 105.944 334.466C105.944 346.365 106.673 350.007 111.044 364.577C111.529 366.277 110.558 366.52 83.8464 369.677C68.5478 371.377 54.7064 373.077 53.0065 373.319C49.6068 373.562 49.3639 373.562 48.6355 371.377Z" fill="#D87AF2" stroke="#303030" stroke-width="7.938" stroke-miterlimit="15.1181" stroke-linecap="round"/>
<path opacity="0.997" d="M84.575 284.928C68.7907 281.771 55.4349 279.1 55.192 279.1C53.9778 279.1 54.4635 258.944 55.9206 251.417C58.1061 238.304 63.2057 225.919 71.4619 213.535C78.2612 202.85 85.3034 195.079 87.9747 195.079C89.4316 195.079 138.484 221.548 141.398 223.976C141.641 224.219 139.941 226.162 137.756 228.347C125.614 240.975 116.386 263.801 116.143 282.499C116.143 289.785 115.658 291.241 114.686 291.241C113.958 290.999 100.359 288.328 84.575 284.928Z" fill="#D87AF2" stroke="#303030" stroke-width="7.938" stroke-miterlimit="15.1181" stroke-linecap="round"/>
<path opacity="0.997" d="M115.172 205.521C101.573 197.751 89.9175 190.951 89.4316 190.709C88.4603 189.737 91.6171 177.596 95.0169 168.854C100.602 154.769 111.53 141.17 124.643 132.428C132.17 127.329 143.826 121.986 146.74 121.986C148.926 121.986 187.537 163.511 187.537 165.939C187.537 166.911 185.351 168.61 181.709 170.553C164.953 179.781 151.84 195.079 146.498 212.321C144.312 219.363 143.827 219.849 141.884 219.849C140.913 219.606 128.771 213.292 115.172 205.521Z" fill="#D87AF2" stroke="#303030" stroke-width="7.938" stroke-miterlimit="15.1181" stroke-linecap="round"/>
<path opacity="0.997" d="M170.781 141.17C160.096 129.757 152.083 120.044 151.84 119.073C151.354 116.158 159.611 104.503 167.867 96.2461C175.88 88.2327 184.865 82.1618 195.307 77.7907C202.349 74.8767 217.405 70.7486 223.233 70.2629L226.633 70.0202L238.532 96.489C245.088 111.059 250.673 123.686 250.916 124.415C251.402 125.629 250.43 125.872 246.545 126.357C227.604 128.786 205.021 143.113 195.793 158.654C194.822 160.354 193.607 161.083 191.907 161.083C189.722 161.325 186.322 158.169 170.781 141.17Z" fill="#D87AF2" stroke="#303030" stroke-width="7.938" stroke-miterlimit="15.1181" stroke-linecap="round"/>
<path opacity="0.997" d="M252.859 121.258C248.973 113.973 230.518 70.9913 230.518 69.2915C230.518 64.4348 248.973 52.0503 263.786 47.1936C274.714 43.5511 281.999 42.5797 295.355 42.5797C306.768 42.5797 317.453 43.5511 318.91 45.0081C319.395 45.4938 325.466 106.445 324.981 106.688C324.738 106.931 321.581 106.445 317.696 105.716C313.082 104.988 307.739 104.502 301.911 104.988C286.37 105.716 273.743 110.087 263.058 118.344C256.744 122.958 254.316 123.686 252.859 121.258Z" fill="#D87AF2" stroke="#303030" stroke-width="7.938" stroke-miterlimit="15.1181" stroke-linecap="round"/>
<path opacity="0.997" d="M388.603 104.745C375.976 99.16 353.392 97.946 340.036 102.317C330.323 105.231 328.623 105.474 328.137 103.045C326.923 97.7029 322.552 44.5223 323.038 43.7937C324.495 42.3368 339.065 37.7228 346.35 36.5086C360.191 33.8375 377.675 34.8088 390.788 39.1798C397.345 41.3653 411.672 48.4075 411.672 49.3788C411.672 50.3501 400.016 103.288 399.045 105.959C398.559 107.902 395.16 107.659 388.603 104.745Z" fill="#D87AF2" stroke="#303030" stroke-width="7.938" stroke-miterlimit="15.1181" stroke-linecap="round"/>
<path opacity="0.997" d="M462.425 129.029C454.168 120.53 439.598 113.002 425.999 110.088C421.871 109.116 417.257 108.873 411.187 109.359C403.173 109.845 402.445 109.602 402.445 108.388C402.445 106.445 415.072 49.8648 415.558 49.3791C416.529 48.4076 440.327 49.1364 446.64 50.3506C463.396 53.7503 477.966 62.0065 493.75 76.8194L500.307 83.1331L485.494 108.145C468.252 136.556 468.981 136.071 462.425 129.029Z" fill="#D87AF2" stroke="#303030" stroke-width="7.938" stroke-miterlimit="15.1181" stroke-linecap="round"/>
<path opacity="0.997" d="M524.347 178.081C522.647 174.196 517.791 167.153 513.177 162.054C503.949 151.612 493.265 144.327 481.123 139.956C475.78 138.256 474.081 137.042 473.838 135.828C473.595 134.614 500.307 87.7469 502.978 84.8328C503.949 83.8613 515.848 87.2612 523.133 90.6609C539.889 98.4317 554.216 112.273 568.543 134.371C572.671 140.685 573.4 142.142 572.185 143.113C571.457 143.841 561.743 152.341 550.33 162.297C528.475 181.481 526.29 182.695 524.347 178.081Z" fill="#D87AF2" stroke="#303030" stroke-width="7.938" stroke-miterlimit="15.1181" stroke-linecap="round"/>
<path opacity="0.997" d="M566.843 243.646C566.6 242.918 566.115 240.004 565.386 236.847C562.229 220.091 551.059 201.636 537.218 190.951C532.847 187.551 531.875 186.337 532.118 184.638C532.361 181.481 572.428 146.027 575.828 146.027C580.928 146.027 599.869 161.325 608.125 172.01C616.624 183.18 623.423 200.907 624.395 214.749L624.88 221.063L597.683 232.476C582.87 238.789 569.757 244.132 568.786 244.375C567.814 244.617 566.843 244.375 566.843 243.646Z" fill="#D87AF2" stroke="#303030" stroke-width="7.938" stroke-miterlimit="15.1181" stroke-linecap="round"/>
<path opacity="0.997" d="M587.241 314.554C591.127 293.427 586.27 270.358 574.614 255.302C568.786 247.774 568.057 248.503 598.411 235.633C612.982 229.319 625.366 224.22 625.852 224.22C627.066 224.22 637.265 237.818 641.636 245.103C651.835 262.587 655.963 284.199 652.806 305.083C652.078 310.668 651.592 311.64 650.135 311.882C648.192 312.368 590.155 317.468 587.97 317.468C586.998 317.711 586.756 316.982 587.241 314.554Z" fill="#D87AF2" stroke="#303030" stroke-width="7.938" stroke-miterlimit="15.1181" stroke-linecap="round"/>
<path opacity="0.997" d="M613.224 399.06L584.084 392.018L584.57 389.832C584.813 388.618 586.027 385.218 587.241 382.062C588.455 378.905 590.398 372.834 591.37 368.22C593.555 357.778 593.069 341.265 590.398 330.823C588.213 322.082 588.213 321.11 590.641 320.382C595.741 319.41 651.107 315.039 651.592 315.525C653.049 316.982 657.178 333.252 658.149 341.751C660.577 360.692 656.692 382.547 648.193 400.031C646.25 403.916 644.793 405.859 643.822 405.859C642.85 406.102 629.009 402.702 613.224 399.06Z" fill="#D87AF2" stroke="#303030" stroke-width="7.938" stroke-miterlimit="15.1181" stroke-linecap="round"/>
<path opacity="0.997" d="M584.084 478.224C555.43 461.225 556.644 462.44 564.172 453.94C574.857 442.284 582.627 420.915 582.627 403.917V394.932L585.056 395.417C586.27 395.66 600.354 399.06 616.138 402.945C631.923 406.83 645.036 409.987 645.278 410.23C645.521 410.473 645.764 417.515 645.521 425.772C645.521 439.613 645.278 441.556 643.093 448.598C638.722 462.926 631.923 474.339 620.752 485.752C615.167 491.58 613.224 493.037 611.282 493.037C609.339 492.794 601.325 488.423 584.084 478.224Z" fill="#D87AF2" stroke="#303030" stroke-width="7.938" stroke-miterlimit="15.1181" stroke-linecap="round"/>
<path opacity="0.997" d="M531.389 545.003C509.292 519.748 508.806 519.02 514.877 515.863C527.99 509.064 542.803 494.008 549.845 479.924C551.302 476.767 553.002 472.882 553.73 470.939C555.43 464.868 556.401 465.111 584.57 482.109L609.825 497.408L609.339 500.565C608.368 505.907 603.997 518.291 601.326 523.877C592.826 540.389 578.985 554.717 561.986 563.944C558.344 565.887 554.459 567.344 553.244 567.344C551.302 567.587 547.659 563.944 531.389 545.003Z" fill="#D87AF2" stroke="#303030" stroke-width="7.938" stroke-miterlimit="15.1181" stroke-linecap="round"/>
<path opacity="0.997" d="M473.109 619.067C471.167 615.668 449.312 564.43 449.312 562.73C449.312 561.03 449.797 560.544 452.468 560.059C459.025 558.845 469.71 554.959 476.266 551.56C484.523 547.431 494.479 538.204 500.307 529.462C503.221 525.334 504.921 523.634 506.135 523.634C507.349 523.634 513.42 529.947 527.99 546.46C538.917 559.088 548.145 570.015 548.388 570.986C549.116 573.415 542.317 583.856 536.003 590.899C523.862 603.769 507.592 612.268 483.794 617.853C474.324 620.038 473.838 620.039 473.109 619.067Z" fill="#D87AF2" stroke="#303030" stroke-width="7.938" stroke-miterlimit="15.1181" stroke-linecap="round"/>
<path opacity="0.997" d="M384.96 645.779L381.075 645.294L377.918 613.482C376.218 595.998 374.761 581.671 375.004 581.428C375.247 581.186 377.433 581.671 380.347 582.157C397.831 585.314 421.143 579.728 437.413 568.315C440.327 566.13 442.998 564.915 444.212 565.158C445.912 565.401 447.854 569.772 458.296 593.327C467.767 614.939 470.195 621.496 469.467 622.467C467.767 625.138 456.839 632.909 449.069 636.551C441.783 640.194 434.741 642.622 425.028 644.808C420.171 645.779 390.789 646.508 384.96 645.779Z" fill="#D87AF2" stroke="#303030" stroke-width="7.938" stroke-miterlimit="15.1181" stroke-linecap="round"/>
<path opacity="0.997" d="M327.166 652.336C318.181 651.122 304.097 647.479 295.355 644.079C290.984 642.38 287.584 640.923 287.341 640.923C287.098 640.68 290.013 626.838 293.655 610.083C297.297 593.327 300.212 579.243 300.212 579C300.212 578.029 303.368 578.757 310.411 581.428C321.824 586.042 330.323 587.257 343.436 586.771C352.178 586.528 356.306 585.799 362.134 584.1C366.263 582.885 370.148 581.914 370.633 581.914C371.362 581.914 372.576 589.685 374.519 611.297C376.219 627.567 377.433 641.894 377.433 643.108C377.433 645.294 377.19 645.779 372.819 647.236C359.949 652.093 340.036 654.278 327.166 652.336Z" fill="#D87AF2" stroke="#303030" stroke-width="7.938" stroke-miterlimit="15.1181" stroke-linecap="round"/>
<path opacity="0.997" d="M264.515 640.923C252.373 639.223 244.845 637.037 233.918 631.452C220.319 624.653 199.678 609.111 199.678 605.712C199.678 604.74 205.992 592.599 214.005 578.757C230.275 550.103 229.304 551.074 237.317 557.631C239.989 559.816 244.36 562.73 247.274 564.43C258.201 570.501 279.328 576.086 292.198 576.086H297.54L297.055 578.514C296.812 579.728 293.655 594.056 290.255 610.325C286.856 626.595 283.699 639.951 283.699 640.194C283.213 640.437 267.429 641.165 264.515 640.923Z" fill="#D87AF2" stroke="#303030" stroke-width="7.938" stroke-miterlimit="15.1181" stroke-linecap="round"/>
<path opacity="0.997" d="M187.051 602.555C169.567 597.941 156.211 590.17 144.798 578.271C136.056 569.044 126.585 553.502 126.585 548.403C126.585 546.703 131.685 541.604 148.926 525.576C172.967 503.236 174.181 502.507 176.124 507.607C177.823 512.221 183.894 520.963 189.722 526.791C196.764 533.833 208.663 541.603 219.105 545.732C223.476 547.432 227.119 549.131 226.876 549.374C226.633 549.617 219.591 562.244 211.092 577.057C201.378 594.056 195.065 604.255 194.336 604.255C193.851 604.255 190.451 603.526 187.051 602.555Z" fill="#D87AF2" stroke="#303030" stroke-width="7.938" stroke-miterlimit="15.1181" stroke-linecap="round"/>
<path opacity="0.997" d="M114.929 538.689C91.8601 520.963 78.747 500.807 74.8616 476.281C74.1331 472.396 73.8903 468.996 74.376 468.51C75.3473 467.296 128.528 443.013 129.985 443.013C130.713 443.013 131.442 443.498 131.685 443.984C137.756 466.325 149.654 484.052 166.41 495.222C169.081 496.922 171.024 498.865 171.024 499.836C171.024 502.264 126.828 543.06 123.914 543.303C121.728 543.303 119.3 542.089 114.929 538.689Z" fill="#D87AF2" stroke="#303030" stroke-width="7.938" stroke-miterlimit="15.1181" stroke-linecap="round"/>
<path opacity="0.997" d="M277.385 450.298C268.643 447.384 261.358 442.527 257.23 436.214C252.373 428.929 250.916 430.628 285.641 398.574C310.168 375.991 317.21 369.677 318.91 369.92C320.124 369.92 322.309 370.892 324.009 372.348L326.923 374.777L305.068 412.902C293.169 433.786 282.727 451.27 281.999 451.27C281.27 451.512 279.085 451.027 277.385 450.298Z" fill="#D87AF2" stroke="#303030" stroke-width="7.938" stroke-miterlimit="15.1181" stroke-linecap="round"/>
<path opacity="0.997" d="M242.903 418.729C236.346 412.173 233.432 406.102 232.461 398.331L231.975 394.446L270.586 376.719C291.712 367.006 309.682 358.992 310.411 358.992C311.868 358.992 315.753 364.578 315.267 366.278C315.024 366.763 300.94 380.362 283.942 396.146C262.572 416.058 252.131 425.043 250.916 425.043C249.702 425.043 246.788 422.858 242.903 418.729Z" fill="#D87AF2" stroke="#303030" stroke-width="7.938" stroke-miterlimit="15.1181" stroke-linecap="round"/>
<path opacity="0.997" d="M227.361 386.433C222.505 379.39 220.805 374.048 220.805 365.063C220.805 360.692 221.048 356.807 221.29 356.807C221.533 356.564 239.989 354.379 262.329 351.708C284.67 349.036 303.854 346.851 304.825 346.608C306.282 346.365 306.768 346.851 307.982 350.736C308.71 353.165 309.196 355.35 309.196 355.593C307.982 356.807 233.189 391.047 231.732 391.047C230.761 390.561 229.061 389.104 227.361 386.433Z" fill="#D87AF2" stroke="#303030" stroke-width="7.938" stroke-miterlimit="15.1181" stroke-linecap="round"/>
<path opacity="0.997" d="M218.862 349.765C216.677 344.665 216.677 331.795 219.348 324.51C222.747 314.796 217.891 314.796 262.815 323.781C284.427 328.152 303.125 331.795 304.097 332.038C305.797 332.523 306.039 333.009 306.039 337.866V343.451L301.426 343.937C298.997 344.18 282.485 346.122 264.758 348.308C247.031 350.493 229.79 352.436 226.39 352.679L220.076 353.164L218.862 349.765Z" fill="#D87AF2" stroke="#303030" stroke-width="7.938" stroke-miterlimit="15.1181" stroke-linecap="round"/>
<path opacity="0.997" d="M263.544 320.625C241.931 316.254 223.962 312.611 223.719 312.611C222.99 312.368 223.719 304.112 224.69 298.527C226.39 289.056 232.461 278.129 235.861 278.129C237.075 278.129 299.969 313.097 308.225 318.196L310.168 319.41L308.468 324.267C307.011 328.152 306.282 329.124 304.825 328.881C303.854 328.638 285.399 324.996 263.544 320.625Z" fill="#D87AF2" stroke="#303030" stroke-width="7.938" stroke-miterlimit="15.1181" stroke-linecap="round"/>
<path opacity="0.997" d="M273.743 295.127C242.66 277.643 238.289 274.972 238.289 273.272C238.289 269.629 244.117 258.459 248.731 254.088C253.102 249.717 258.93 246.56 261.844 246.56C263.301 246.56 287.584 272.543 314.296 302.169L318.667 307.269L315.51 311.154C313.567 313.582 311.625 315.039 310.653 315.039C309.925 315.039 293.169 306.054 273.743 295.127Z" fill="#D87AF2" stroke="#303030" stroke-width="7.938" stroke-miterlimit="15.1181" stroke-linecap="round"/>
<path opacity="0.997" d="M295.355 276.914C264.272 243.16 265.486 244.375 266.215 241.703C266.458 240.489 269.129 237.089 272.043 234.176C277.871 228.347 283.213 225.676 291.227 224.705L295.355 224.219L312.353 262.101C321.581 282.985 329.109 300.226 329.109 300.226C326.923 301.683 322.31 304.112 321.338 304.112C320.852 303.869 308.954 291.727 295.355 276.914Z" fill="#D87AF2" stroke="#303030" stroke-width="7.938" stroke-miterlimit="15.1181" stroke-linecap="round"/>
<path opacity="0.997" d="M315.753 261.13C306.768 240.975 299.24 223.491 299.24 222.52C299.24 220.334 304.583 216.449 310.168 214.263C314.782 212.321 323.524 211.349 330.08 211.835L335.422 212.32L335.908 215.963C336.394 218.634 341.979 276.671 343.436 293.184C343.679 295.612 343.436 295.855 338.822 296.827C336.151 297.312 333.723 298.041 333.237 298.041C332.508 297.798 324.738 281.285 315.753 261.13Z" fill="#D87AF2" stroke="#303030" stroke-width="7.938" stroke-miterlimit="15.1181" stroke-linecap="round"/>
<path opacity="0.997" d="M349.992 295.613C347.564 295.37 346.35 294.884 346.35 294.156C346.35 293.427 344.65 274.972 342.465 253.117C340.279 231.262 338.822 212.806 339.065 212.321C339.793 210.621 352.178 208.192 357.52 208.921C361.891 209.407 373.062 212.806 374.519 214.02C375.004 214.506 358.977 287.842 357.035 294.641C356.792 295.37 356.063 296.098 355.092 296.098C354.364 295.855 352.178 295.855 349.992 295.613Z" fill="#D87AF2" stroke="#303030" stroke-width="7.938" stroke-miterlimit="15.1181" stroke-linecap="round"/>
<path opacity="0.997" d="M364.32 298.527C362.134 297.555 360.191 296.341 360.191 295.856C360.191 293.913 377.918 215.478 378.647 214.749C379.861 213.535 391.76 214.506 397.102 216.206C402.93 218.148 410.701 223.491 412.643 226.891C413.858 229.076 413.129 230.533 392.974 264.53C377.432 290.999 371.605 299.984 370.39 300.226C369.176 300.226 366.505 299.498 364.32 298.527Z" fill="#D87AF2" stroke="#303030" stroke-width="7.938" stroke-miterlimit="15.1181" stroke-linecap="round"/>
<path opacity="0.997" d="M377.19 306.54C375.976 305.326 374.761 303.383 374.761 302.655C374.761 301.684 383.989 285.171 395.402 265.987C418.472 226.891 416.286 229.562 424.785 232.719C431.342 235.147 437.898 241.461 441.784 248.989L444.941 255.06L414.343 282.257C391.031 302.655 383.018 309.454 381.318 309.454C380.347 308.969 378.404 307.997 377.19 306.54Z" fill="#D87AF2" stroke="#303030" stroke-width="7.938" stroke-miterlimit="15.1181" stroke-linecap="round"/>
<path opacity="0.997" d="M385.932 317.71C385.446 316.254 384.961 314.554 385.203 313.582C385.689 310.911 445.426 258.459 448.097 258.459C451.254 258.459 459.268 266.23 461.939 271.572C464.125 275.943 467.281 287.356 466.553 287.842C465.339 289.056 390.303 320.139 388.846 320.139C387.632 320.139 386.66 319.41 385.932 317.71Z" fill="#D87AF2" stroke="#303030" stroke-width="7.938" stroke-miterlimit="15.1181" stroke-linecap="round"/>
<path opacity="0.997" d="M390.789 333.738C390.546 332.766 390.06 330.095 389.817 327.909L389.332 324.024L427.457 307.997C448.34 299.255 466.31 291.97 467.524 291.97C469.953 291.97 474.809 298.527 477.238 304.84C479.18 309.697 479.909 318.925 478.695 324.753L477.966 327.91L436.927 331.552C414.344 333.495 394.917 335.437 393.703 335.68C391.76 335.68 391.274 335.437 390.789 333.738Z" fill="#D87AF2" stroke="#303030" stroke-width="7.938" stroke-miterlimit="15.1181" stroke-linecap="round"/>
<path opacity="0.997" d="M431.828 355.593C409.244 350.25 390.546 345.636 390.303 345.394C390.06 345.394 390.303 343.694 390.546 341.751L391.032 338.351L432.313 334.709C455.14 332.766 474.566 330.824 476.023 330.581C478.209 330.095 478.452 330.581 480.152 335.437C483.066 343.936 482.337 354.864 478.209 362.635C477.238 364.577 476.266 365.306 474.809 365.306C473.838 365.549 454.411 361.178 431.828 355.593Z" fill="#D87AF2" stroke="#303030" stroke-width="7.938" stroke-miterlimit="15.1181" stroke-linecap="round"/>
<path opacity="0.997" d="M423.814 382.304C383.261 358.021 385.203 359.721 388.117 352.922C389.089 350.736 390.06 349.522 391.031 349.522C392.003 349.522 411.187 353.893 434.013 359.478C456.596 364.82 475.538 369.434 475.78 369.434C476.509 369.434 476.266 379.39 475.295 384.49C474.809 387.161 473.352 391.532 472.138 393.96C469.71 398.817 464.367 404.645 462.425 404.645C461.696 404.402 444.455 394.446 423.814 382.304Z" fill="#D87AF2" stroke="#303030" stroke-width="7.938" stroke-miterlimit="15.1181" stroke-linecap="round"/>
<path opacity="0.997" d="M407.058 403.431C385.689 378.905 379.132 370.891 379.132 369.191C379.132 366.763 382.289 363.121 384.718 363.121C385.446 363.121 402.93 373.32 423.571 385.461C465.824 410.716 462.182 407.559 457.568 417.03C453.682 424.801 442.026 435 436.927 435C435.47 435.242 426.485 425.529 407.058 403.431Z" fill="#D87AF2" stroke="#303030" stroke-width="7.938" stroke-miterlimit="15.1181" stroke-linecap="round"/>
<path opacity="0.997" d="M399.773 450.541C376.218 396.874 368.691 378.662 368.691 377.205C368.691 375.019 372.09 372.348 374.519 372.834C375.49 373.077 389.089 387.889 405.116 406.102L434.013 439.128L431.585 442.77C426.242 450.541 416.043 457.097 407.301 458.311L403.416 458.797L399.773 450.541Z" fill="#D87AF2" stroke="#303030" stroke-width="7.938" stroke-miterlimit="15.1181" stroke-linecap="round"/>
<path opacity="0.997" d="M364.077 469.725C363.591 468.996 354.849 385.218 354.849 381.333C354.849 380.119 355.82 379.391 359.706 378.662C362.377 378.176 364.562 377.69 364.805 377.934C364.805 378.176 372.819 396.389 382.532 418.487C392.246 440.585 400.016 459.04 400.259 459.526C400.745 460.497 392.003 466.082 386.66 468.025C381.561 469.967 365.048 471.425 364.077 469.725Z" fill="#D87AF2" stroke="#303030" stroke-width="7.938" stroke-miterlimit="15.1181" stroke-linecap="round"/>
<path opacity="0.997" d="M334.937 472.396C326.68 470.21 324.252 468.996 324.252 467.782C324.252 467.296 328.38 447.384 333.48 423.586L342.708 380.361H351.449L351.935 384.49C352.906 392.746 360.191 466.082 360.191 468.51C360.191 470.696 359.706 471.181 357.035 472.153C350.964 474.095 341.493 474.095 334.937 472.396Z" fill="#D87AF2" stroke="#303030" stroke-width="7.938" stroke-miterlimit="15.1181" stroke-linecap="round"/>
<path opacity="0.997" d="M306.282 466.568C298.026 464.625 286.37 456.854 286.127 453.698C286.127 452.241 326.923 379.391 329.109 377.448C329.594 376.962 331.78 377.205 334.451 377.933C338.094 378.905 339.065 379.633 338.822 380.847C338.579 382.304 323.281 455.64 321.338 463.897L320.367 468.025H315.51C313.082 467.782 308.711 467.296 306.282 466.568Z" fill="#D87AF2" stroke="#303030" stroke-width="7.938" stroke-miterlimit="15.1181" stroke-linecap="round"/>
<path opacity="0.997" d="M349.75 378.905C372.683 378.905 391.274 360.422 391.274 337.623C391.274 314.824 372.683 296.341 349.75 296.341C326.816 296.341 308.225 314.824 308.225 337.623C308.225 360.422 326.816 378.905 349.75 378.905Z" fill="#CBF697" stroke="#303030" stroke-width="5" stroke-miterlimit="15.1181" stroke-linecap="round"/>
</g>
<defs>
<clipPath id="clip0_3591_3502">
<rect width="700" height="696.418" fill="white"/>
</clipPath>
</defs>
</svg>
