<svg width="616" height="181" viewBox="0 0 616 181" fill="none" xmlns="http://www.w3.org/2000/svg">
<g filter="url(#filter0_f_3644_4067)">
<path fill-rule="evenodd" clip-rule="evenodd" d="M303.773 8C309.042 8.67592 320.209 18.0286 324.498 21.6436C324.238 18.6279 323.014 13.6176 326.727 12.7842C330.479 13.8535 335.955 21.8052 338.431 25.0332C355.244 13.0115 374.829 6.55524 392.306 22.4951C397.425 27.1641 400.512 32.6503 403.798 38.6436C409.232 39.4959 415.124 40.0295 420.624 40.625C421.095 38.7137 421.218 34.6117 421.629 32.0547C421.659 30.7173 422.042 28.6496 422.247 27.2617C423.799 25.4333 422.8 27.8246 426.167 27.4746C427.545 26.3749 427.719 24.5235 428.184 22.6885C428.275 21.8133 428.735 20.7136 429.038 19.8574C430.376 18.7263 429.797 18.896 431.347 18.7695C432.708 19.4982 432.71 19.5912 433.41 21.04C435.514 26.4994 435.724 30.6189 435.472 36.2725C438.973 34.0702 445.622 28.6105 449.253 31.9951C450.843 35.7852 448.761 43.0735 447.74 47.1641C451.152 45.799 457.171 41.2319 459.809 43.2432C460.68 45.0944 458.363 55.4453 458.191 57.5928C462.676 59.8807 469.352 64.1697 472.392 65.6338C476.89 67.8 485.938 73.4434 495.924 74.585C507.765 75.9386 511.075 72.2905 518.899 73.999C525.604 76.2203 528.765 78.1909 532.446 81.6631C536.965 81.6488 546.659 81.4486 550.575 81.4248C558.999 81.3724 600.108 78.0292 605.472 79.8604C608.427 83.4136 609.215 90.9571 605.521 94.4912C604.619 95.3521 601.827 95.6948 600.536 95.6758C582.583 95.4142 564.632 93.8973 546.679 93.3027C543.093 93.1838 539.721 93.0073 536.137 93.0977C533.876 96.9837 531.176 100.033 527.33 102.454C519.033 102.682 505.748 103.001 497.82 101.669C493.092 103.557 485.849 106.064 481.778 109.032C475.285 114.812 455.085 117.345 462.675 130.479C460.955 132.948 462.483 132.416 460.238 133.538C456.544 133.519 454.243 131.688 451.26 129.571C451.837 133.324 454.02 141.567 452.907 144.383C449.845 146.623 442.789 141.13 439.102 139.884C439.589 144.631 440.265 149.791 439.966 154.538C422.546 136.44 422.145 137.776 398.662 141.729C381.531 162.405 364.195 167.087 339.979 153.716C335.396 157.212 324.658 166.939 319.48 167.029H319.134L318.048 167.742L317.716 167.505C318.759 164.475 319.913 161.284 320.894 158.249C315.287 160.632 295.283 169.583 289.954 167.961C289.453 166.753 290.093 165.369 290.631 164.062C290.909 163.396 291.195 162.73 291.49 162.073C277.251 166.749 255.786 158.349 244.143 149.772C236.445 158.805 220.137 173.679 207.56 172.946L207.225 172.471C208.245 170.773 210.967 169.145 212.714 168.037C210.675 168.299 208.887 168.775 207.04 168.052L206.822 167.267C208.167 165.474 210.84 164.365 212.89 163.338C208.033 163.966 205.026 164.427 200.094 164.123C204.082 161.821 209.687 158.809 213.414 156.336C207.794 156.317 204.983 156.37 199.419 155.119C211.897 150.762 219.436 145.33 228.701 136.316L226.584 135.916C208.662 146.433 191.529 149.891 171.332 153.734C163.513 155.223 154.428 157.326 146.514 156.793C150.533 153.73 152.426 152.945 157.12 151.128C154.894 150.947 151.789 150.923 149.934 149.887L149.748 149.135C151.318 147.698 156.82 146.01 159.17 145.173C156.811 144.802 153.415 144.525 151.522 143.251L151.203 142.424C153.012 140.606 159.697 139.839 163.117 139.071C163.154 138.995 163.187 138.916 163.218 138.836C158.737 138.081 154.135 137.503 149.634 136.83C150.766 134.985 154.652 134.128 156.773 133.667C187.837 126.922 206.925 127.825 235.712 112.699C234.858 107.553 234.903 100.546 235.546 95.3379C227.217 95.6518 216.709 95.333 208.901 95.9229C211.617 96.8456 214.507 97.3548 215.794 100.123L216.295 101.331C214.091 103.424 208.929 103.077 205.746 103.072C208.313 104.513 212.919 106.635 213.963 109.294C213.903 109.445 213.833 109.584 213.757 109.714C213.882 109.81 214.004 109.906 214.122 110.002C213.951 109.984 213.778 109.965 213.604 109.946C212.35 111.649 209.528 111.192 207.298 111.059L206.812 111.035C208.541 112.738 209.675 113.466 210.367 115.711L210.049 117.39C205.809 118.826 208.232 117.67 206.42 119.93L206.416 119.928C203.893 118.92 202.971 118.34 200.652 116.866C192.507 111.915 184.164 107.296 175.646 103.02L176.172 103.339L167.241 103.067C137.205 128.32 94.4066 133.724 56.8262 138.081C52.06 138.633 31.6272 140.93 27.8408 139.907L30.5566 139.665L40.0801 138.535C34.3953 138.975 29.0708 139.212 27.3164 138.747L30.0332 138.509L30.4365 138.266C31.6677 137.542 31.9393 137.226 33.2754 137.31L33.5957 136.974C28.5304 135.619 21.8936 136.421 16.3906 135.674C14.645 132.549 11.7903 133.068 8.49902 133.25L8 132.96C9.66471 132.269 9.98384 132.273 11.8008 132.18C13.7792 132.021 15.0535 132.305 16.2568 131.23L16.2432 129.21C14.7359 129.149 14.0648 128.886 12.6289 128.466C14.5961 128.223 16.3395 128.441 17.2959 127.132L16.3828 127.041L16.4922 126.779C16.8253 126.726 17.1899 126.681 17.5801 126.639L17.7227 126.295L15.8574 126.112L15.9668 125.856C19.4339 125.315 26.306 125.401 30.0781 125.359C32.461 124.822 32.667 125.224 33.8037 123.659C33.487 121.243 31.4491 121.161 29.3623 121.078L29.3184 121.076C25.7083 121.258 17.0282 120.745 13.8887 118.951C16.0197 118.073 21.3846 117.816 23.7295 117.891C22.9057 117.111 19.3125 116.415 17.9707 116.088L18.1582 116.067C21.2895 115.74 23.2518 115.534 26.1592 115.579L27.4961 115.617C32.1335 115.734 38.988 115.015 43.9014 114.753L44.4141 114.523L45.1719 113.674L45.7822 113.781C46.1744 113.85 46.066 113.77 46.9395 113.305C45.3792 112.665 31.2524 112.754 28.2422 112.46C22.7726 111.923 16.4988 111.687 10.8818 110.795C12.5751 110.477 18.1312 109.717 19.2021 108.988L18.9121 108.246L20.9746 108.124L24.2627 107.219L26.584 107.134C27.3451 106.984 28.9898 106.807 29.3564 106.35L29.6514 106.256L27.1172 106.231L27.1348 105.519C28.0812 105.112 28.4442 104.719 29.2432 104.392C22.1609 101.939 18.3548 103.355 11.1631 98.7959C18.6207 96.6053 24.0144 96.1716 31.8047 95.2422L31.7393 95.0547C28.1863 94.9239 16.1437 94.7334 13.584 94.2617L11.6719 93.9424L11.8662 93.6904C14.544 93.2467 16.4244 93.2091 19.1592 93.125L22.5791 93.1387C22.1419 92.1304 22.3392 92.0002 21.2217 91.6406C17.7308 90.5104 14.4247 89.9679 10.9766 88.5947L16.9609 87.3555C15.448 85.8661 11.2542 85.3945 8.91895 84.9229C10.0992 84.4788 13.4643 83.1199 14.4922 83.082C16.8253 82.8613 19.159 82.6749 21.4961 82.5186L23.834 82.373C28.157 79.9541 35.2003 81.8356 37.7363 80.8184C36.495 77.6142 27.7253 79.8321 23.1875 77.7119C18.4839 77.1094 15.5868 76.6698 10.9453 75.4883C13.3423 74.9885 16.5137 74.2257 18.8916 73.9688C18.7442 73.2505 18.5494 73.0713 18.1455 72.46L18.9258 71.666L23.4346 71.7129L20.9863 70.7598L20.4756 70.6436C20.1619 69.6072 20.1621 68.7379 19.4023 68.4395C16.7391 67.3942 13.3564 68.0541 10.3506 67.7891C12.1441 67.3705 17.3631 66.2666 18.5918 65.4316L19.4434 65.2754C19.3329 65.2658 19.2239 65.2572 19.1172 65.2471L22.1289 64.6865C22.4414 63.5479 22.5687 62.9011 22.7305 61.7012C18.8068 61.4452 15.7341 61.1202 11.8438 60.585C14.2463 59.9964 20.5051 59.0079 22.0889 57.9131L23.126 56.9775L23.8477 56.6416C23.7819 56.6411 23.716 56.6401 23.6504 56.6396L24.5732 56.2021L25.0322 55.6963C24.0265 54.752 15.4794 53.5721 13.4756 53.2412C18.6739 52.6314 25.6934 53.2574 30.4258 52.1797C34.5916 51.2308 36.0153 52.4376 39.6719 51.8906L38.7822 51.2021C34.9015 51.6119 31.5329 50.608 27.6045 50.083L26.8066 49.4902C28.1522 48.1913 27.7264 48.8177 28.3018 46.8525L26.3574 46.5986C25.6719 46.5142 24.9893 46.4445 24.4375 46.4375L19.5859 45.6533C19.0873 45.7382 19.2812 45.6821 18.6445 45.333C19.7861 44.5137 22.6934 45.1177 24.7529 44.8271C24.3677 43.8286 24.2967 43.8235 24.3965 42.7188C25.7758 41.8503 27.8013 42.1 29.4658 42.1729C31.0067 41.3191 30.4937 41.7546 31.2832 39.833C29.8945 39.5985 23.9306 38.7638 23.1875 38.1641L25.7354 38.1191C24.7364 37.9006 23.9516 37.6797 23.7119 37.4824L26.9785 37.4229C27.1744 37.0564 27.3996 36.7077 27.6211 36.6514C31.1033 35.777 41.2006 35.1187 44.2305 35.5811C47.0519 35.9274 56.0055 35.6441 57.2051 36.1475C58.422 36.2072 59.6461 36.285 60.876 36.377C59.6105 36.1103 58.5152 35.8029 57.7305 35.4297L59.2617 35.5146C75.1216 36.4866 92.0865 40.2383 107.601 43.2002C129.613 47.4021 152.326 59.3744 168.268 75.1748C171.361 74.6517 172.019 74.6804 175.222 75.0371C183.26 71.2984 191.139 67.6261 198.934 63.4014C201.116 62.2179 205.692 59.8193 208.155 60.5908L208.408 61.4355C207.695 63.2893 206.216 64.2871 204.681 65.6406C206.866 65.2611 211.282 63.9241 212.725 65.9248C212.819 65.9092 212.908 65.8921 212.994 65.8799C212.927 65.9309 212.86 65.9799 212.794 66.0303C212.869 66.1489 212.938 66.2761 212.993 66.417C211.884 69.1197 208.348 70.6281 205.742 72.0693C208.818 72.1835 215.16 71.6696 216.314 74.709C214.872 77.1726 211.351 78.9134 208.85 80.3926C217.851 81.9431 226.188 81.5636 235.32 81.5684C234.516 72.8496 234.782 69.5004 236.639 61.0156C231.003 55.1948 226.061 53.0339 218.94 49.4941C223.981 45.8421 228.688 44.7772 234.642 43.6309C233.145 42.7433 231.634 41.877 230.113 41.0332C222.193 36.6658 209.851 33.8139 200.553 34.6006C200.044 34.6438 198.411 35.5241 197.32 35.8389L197.366 34.8623C203.605 27.3908 226.336 23.9637 235.644 22.8164C234.04 21.592 229.83 19.6392 229.37 18.7061C234.689 11.0718 271.262 18.2435 278.954 19.583C277.888 17.2162 274.89 11.9902 276.812 9.95898C282.802 8.31037 302.085 17.5583 308.504 20.0889C307.155 17.0503 302.23 10.7755 302.781 8.42676L303.773 8ZM470.826 91.9561C455.377 93.7016 432.136 89.4452 420.079 96.7607C416.348 97.8698 413.754 97.4455 413.754 103.547C413.754 106.92 411.813 111.325 413.754 113.015C416.205 115.15 424.924 111.462 424.953 111.449C425.032 111.397 435.53 104.511 440.422 104.109C462.072 102.334 477.624 97.0546 477.67 97.0391C477.67 97.0391 483.413 93.8416 484.108 93.5312L470.826 91.9561ZM423.839 65.9561C423.802 65.9407 415.898 62.6274 413.675 64.5469C411.913 66.0681 413.675 70.0347 413.675 73.0713C413.675 78.5626 416.029 78.1819 419.415 79.1797C430.357 85.7655 462.543 82.9571 470.609 82.957L479.14 82.832C474.54 80.798 462.984 74.6059 437.878 72.5635C433.421 72.2009 423.839 65.9561 423.839 65.9561Z" fill="#141414" fill-opacity="0.78"/>
</g>
<defs>
<filter id="filter0_f_3644_4067" x="0" y="0" width="616" height="180.972" filterUnits="userSpaceOnUse" color-interpolation-filters="sRGB">
<feFlood flood-opacity="0" result="BackgroundImageFix"/>
<feBlend mode="normal" in="SourceGraphic" in2="BackgroundImageFix" result="shape"/>
<feGaussianBlur stdDeviation="4" result="effect1_foregroundBlur_3644_4067"/>
</filter>
</defs>
</svg>
