<svg width="90" height="90" viewBox="0 0 90 90" fill="none" xmlns="http://www.w3.org/2000/svg">
<g clip-path="url(#clip0_394_563)">
<mask id="mask0_394_563" style="mask-type:luminance" maskUnits="userSpaceOnUse" x="0" y="0" width="90" height="90">
<path d="M0 0L0 90H90V0H0Z" fill="white"/>
</mask>
<g mask="url(#mask0_394_563)">
<path d="M12.1836 0.616013V8.50781L29.5149 8.50781V0.616013L12.1836 0.616013Z" fill="#A4A4A4" stroke="#484848" stroke-width="1.22548" stroke-linecap="round" stroke-linejoin="round"/>
<path d="M12.8008 1.19162V10.7656H16.7837V1.19162H12.8008Z" fill="#E3E3E3"/>
<path opacity="0.35" d="M24.918 1.22278V10.7969H28.9008V1.22278H24.918Z" fill="black"/>
<path d="M12.1836 0.616013V8.50781L29.5149 8.50781V0.616013L12.1836 0.616013Z" stroke="#484848" stroke-width="1.22548" stroke-linecap="round" stroke-linejoin="round"/>
<path d="M14.9375 81.4988V89.3906H32.2688V81.4988H14.9375Z" fill="#A4A4A4" stroke="#484848" stroke-width="1.22548" stroke-linecap="round" stroke-linejoin="round"/>
<path d="M15.4961 79.3322V88.9062H19.479V79.3322H15.4961Z" fill="#E3E3E3"/>
<path opacity="0.35" d="M27.7539 79.176V88.75H31.7368V79.176H27.7539Z" fill="black"/>
<path d="M14.9375 81.4988V89.3906H32.2688V81.4988H14.9375Z" stroke="#484848" stroke-width="1.22548" stroke-linecap="round" stroke-linejoin="round"/>
<path d="M0.832031 8.1709L0.832031 82.0938H69.1755V8.1709H0.832031Z" fill="#A4A4A4" stroke="#484848" stroke-width="1.64301" stroke-linecap="round" stroke-linejoin="round"/>
<path opacity="0.32846" d="M1.65625 18.8906L1.65625 8.98702L74.2526 8.98702V18.8906C50.0541 16.0294 25.8548 14.3267 1.65625 18.8906Z" fill="black"/>
<path d="M37.7866 80.8828L4.13127 80.2638L3.29688 47.9226L8.30352 77.4787L37.7866 80.8828Z" fill="#E5E5E5"/>
<path d="M21.9918 49.743C28.0796 49.743 33.0149 54.6783 33.0149 60.766C33.0149 66.8539 28.0798 71.7891 21.9918 71.7891C15.9039 71.7891 10.9688 66.8538 10.9688 60.766C10.9688 54.6782 15.9039 49.743 21.9918 49.743Z" fill="white" stroke="#484848" stroke-width="2.81249"/>
<path d="M21.9914 55.5773C22.6756 55.5718 23.3542 55.7018 23.988 55.9599C24.6217 56.2179 25.1982 56.5989 25.684 57.0808C26.1698 57.5627 26.5554 58.1361 26.8185 58.7678C27.0816 59.3994 27.2171 60.0769 27.2171 60.7612C27.2171 61.4455 27.0816 62.123 26.8185 62.7547C26.5554 63.3864 26.1698 63.9597 25.684 64.4416C25.1982 64.9235 24.6217 65.3045 23.988 65.5626C23.3542 65.8206 22.6756 65.9506 21.9914 65.9451C21.3071 65.9506 20.6285 65.8206 19.9947 65.5626C19.361 65.3045 18.7846 64.9235 18.2988 64.4416C17.813 63.9597 17.4274 63.3864 17.1642 62.7547C16.9011 62.123 16.7656 61.4455 16.7656 60.7612C16.7656 60.0769 16.9011 59.3994 17.1642 58.7678C17.4274 58.1361 17.813 57.5627 18.2988 57.0808C18.7846 56.5989 19.361 56.2179 19.9947 55.9599C20.6285 55.7018 21.3071 55.5718 21.9914 55.5773Z" fill="#292929"/>
<path d="M21.5191 18.7589C29.0674 18.7589 35.1867 24.878 35.1867 32.4263C35.1867 39.9747 29.0677 46.0938 21.5191 46.0938C13.9708 46.0938 7.85156 39.9745 7.85156 32.4263C7.85156 24.8779 13.9706 18.7589 21.5191 18.7589Z" fill="white" stroke="#484848" stroke-width="2.81245"/>
<path d="M21.5369 28.559C22.0466 28.5549 22.552 28.6517 23.0241 28.8439C23.4961 29.0361 23.9255 29.3199 24.2873 29.6788C24.6492 30.0378 24.9364 30.4648 25.1324 30.9353C25.3283 31.4058 25.4293 31.9104 25.4293 32.4201C25.4293 32.9297 25.3283 33.4344 25.1324 33.9048C24.9364 34.3753 24.6492 34.8023 24.2873 35.1613C23.9255 35.5202 23.4961 35.804 23.0241 35.9962C22.552 36.1884 22.0466 36.2852 21.5369 36.2811C21.0272 36.2852 20.5218 36.1884 20.0497 35.9962C19.5777 35.804 19.1483 35.5202 18.7865 35.1613C18.4246 34.8023 18.1374 34.3753 17.9414 33.9048C17.7454 33.4344 17.6445 32.9297 17.6445 32.4201C17.6445 31.9104 17.7454 31.4058 17.9414 30.9353C18.1374 30.4648 18.4246 30.0378 18.7865 29.6788C19.1483 29.3199 19.5777 29.0361 20.0497 28.8439C20.5218 28.6517 21.0272 28.5549 21.5369 28.559Z" fill="#292929"/>
<path d="M40.9102 85.3507V75.2387L64.2719 65.7717V25.3243L40.9102 14.5679V4.456H89.0711V85.3516L40.9102 85.3507Z" fill="#A4A4A4" stroke="#484848" stroke-width="1.86929" stroke-linecap="round" stroke-linejoin="round"/>
<path opacity="0.32846" d="M41.8659 5.38338L88.1486 5.38689V20.2422L54.8232 19.9893L41.8477 13.9998L41.8659 5.38338Z" fill="black"/>
<path d="M51.9844 84.1172L86.5166 84.0585L86.573 57.0165L81.1555 81.6113L51.9844 84.1172Z" fill="#E5E5E5"/>
</g>
</g>
<defs>
<clipPath id="clip0_394_563">
<rect width="90" height="90" fill="white" transform="matrix(0 -1 1 0 0 90)"/>
</clipPath>
</defs>
</svg>
