<svg width="90" height="90" viewBox="0 0 90 90" fill="none" xmlns="http://www.w3.org/2000/svg">
<g clip-path="url(#clip0_394_646)">
<mask id="mask0_394_646" style="mask-type:luminance" maskUnits="userSpaceOnUse" x="0" y="0" width="90" height="90">
<path d="M0 0L0 90H90V0H0Z" fill="white"/>
</mask>
<g mask="url(#mask0_394_646)">
<mask id="mask1_394_646" style="mask-type:luminance" maskUnits="userSpaceOnUse" x="0" y="0" width="90" height="90">
<path d="M90 45C90 20.1472 69.8528 0 45 0C20.1472 0 0 20.1472 0 45C0 69.8528 20.1472 90 45 90C69.8528 90 90 69.8528 90 45Z" fill="white"/>
</mask>
<g mask="url(#mask1_394_646)">
<path d="M0 90L0 0H90V90H0Z" fill="#75ACDD"/>
</g>
<mask id="mask2_394_646" style="mask-type:luminance" maskUnits="userSpaceOnUse" x="0" y="0" width="90" height="90">
<path d="M90 45C90 20.1472 69.8528 0 45 0C20.1472 0 0 20.1472 0 45C0 69.8528 20.1472 90 45 90C69.8528 90 90 69.8528 90 45Z" fill="white"/>
</mask>
<g mask="url(#mask2_394_646)">
<path d="M30 90L30 0H60.0006L60.0006 90H30Z" fill="white"/>
</g>
<mask id="mask3_394_646" style="mask-type:luminance" maskUnits="userSpaceOnUse" x="0" y="0" width="90" height="90">
<path d="M90 45C90 20.1472 69.8528 0 45 0C20.1472 0 0 20.1472 0 45C0 69.8528 20.1472 90 45 90C69.8528 90 90 69.8528 90 45Z" fill="white"/>
</mask>
<g mask="url(#mask3_394_646)">
<path d="M49.1076 44.5562C50.8047 44.6186 51.7382 43.5745 53.2533 43.7106C54.7685 43.8468 55.6254 43.0146 56.2152 42.8221C56.804 42.6288 57.1565 43.0302 57.2408 42.8573C57.3243 42.6841 56.8594 42.3044 56.0208 42.4283C55.1831 42.5523 54.9345 43.1877 53.0834 43.0382C51.2325 42.8887 50.801 43.7958 49.1125 43.5753M45.2369 45.5703L56.3953 40.449C56.3953 40.449 56.6089 40.3611 56.5501 40.2187C56.4913 40.0764 56.2784 40.1643 56.2784 40.1643L44.7656 44.4332" fill="#F5B41A"/>
</g>
<mask id="mask4_394_646" style="mask-type:luminance" maskUnits="userSpaceOnUse" x="0" y="0" width="90" height="90">
<path d="M90 45C90 20.1472 69.8528 0 45 0C20.1472 0 0 20.1472 0 45C0 69.8528 20.1472 90 45 90C69.8528 90 90 69.8528 90 45Z" fill="white"/>
</mask>
<g mask="url(#mask4_394_646)">
<path d="M57.3502 42.8121C57.3503 42.8425 57.3435 42.8725 57.3304 42.8999C57.2563 43.0517 57.0946 42.9968 56.9648 42.9526C56.7929 42.8942 56.5574 42.814 56.246 42.9163C56.0957 42.9654 55.9212 43.0616 55.7194 43.1731C55.1544 43.4848 54.3804 43.9119 53.2438 43.8093C52.5069 43.7433 51.9106 43.9651 51.2787 44.2004C50.6355 44.4395 49.9698 44.6872 49.1032 44.6555L49.1106 44.4554C49.9375 44.4858 50.5839 44.2454 51.209 44.0126C51.8624 43.7697 52.4796 43.54 53.2617 43.6103C54.3374 43.707 55.0801 43.297 55.6225 42.9977C55.8333 42.8814 56.0151 42.781 56.1835 42.726C56.5581 42.603 56.8416 42.6993 57.0292 42.7631C57.0673 42.7762 57.1165 42.7928 57.1467 42.7987C57.1413 42.7851 57.1294 42.7631 57.1021 42.7354C56.9859 42.6164 56.6305 42.4383 56.0353 42.5263C55.7656 42.5662 55.5628 42.6607 55.3284 42.7702C54.8579 42.9896 54.3251 43.2379 53.0752 43.1371C52.1752 43.0644 51.6173 43.2475 51.0777 43.4245C50.6091 43.5783 50.1616 43.7248 49.5312 43.708L45.2781 45.6602L45.1946 45.4783L49.1211 43.6763L49.0993 43.6735L49.1254 43.4752C49.2468 43.4912 49.3688 43.5017 49.4912 43.5066L56.3531 40.3573C56.375 40.3479 56.4741 40.2978 56.457 40.2562C56.4403 40.2155 56.3319 40.2494 56.3162 40.2559L44.7999 44.526L44.7305 44.3382L56.2434 40.0694C56.3869 40.0101 56.5753 40.0182 56.6421 40.1795C56.654 40.2068 56.6601 40.2361 56.6602 40.2658C56.6603 40.2955 56.6544 40.3249 56.6428 40.3522C56.5929 40.4719 56.4495 40.5341 56.4331 40.5406L50.0163 43.4857C50.3847 43.4413 50.6949 43.3396 51.0154 43.2343C51.5739 43.0513 52.1513 42.8618 53.0914 42.9377C54.2884 43.0343 54.7958 42.7975 55.2438 42.5887C55.4822 42.4776 55.7075 42.3728 56.0059 42.3284C56.6562 42.2323 57.1264 42.4257 57.2888 42.6461C57.3357 42.7103 57.3502 42.7667 57.3502 42.8121Z" fill="#85361B"/>
</g>
<mask id="mask5_394_646" style="mask-type:luminance" maskUnits="userSpaceOnUse" x="0" y="0" width="90" height="90">
<path d="M90 45C90 20.1472 69.8528 0 45 0C20.1472 0 0 20.1472 0 45C0 69.8528 20.1472 90 45 90C69.8528 90 90 69.8528 90 45Z" fill="white"/>
</mask>
<g mask="url(#mask5_394_646)">
<path d="M48.9648 46.1586C50.5081 46.8661 51.7703 46.2589 53.1177 46.9646C54.4658 47.6705 55.5759 47.2292 56.1948 47.2766C56.8134 47.3233 56.9849 47.8296 57.1289 47.7021C57.2723 47.5737 56.9876 47.0457 56.1657 46.8391C55.3449 46.6324 54.871 47.1248 53.2188 46.2783C51.5656 45.432 50.8203 46.1052 49.3455 45.2543M45 45.6156L57.2697 45.1532C57.2697 45.1532 57.4998 45.1542 57.5006 44.9994C57.5006 44.8455 57.2695 44.8455 57.2695 44.8455L45 44.3841" fill="#F5B41A"/>
</g>
<mask id="mask6_394_646" style="mask-type:luminance" maskUnits="userSpaceOnUse" x="0" y="0" width="90" height="90">
<path d="M90 45C90 20.1472 69.8528 0 45 0C20.1472 0 0 20.1472 0 45C0 69.8528 20.1472 90 45 90C69.8528 90 90 69.8528 90 45Z" fill="white"/>
</mask>
<g mask="url(#mask6_394_646)">
<path d="M57.601 45.0004C57.6001 45.176 57.4285 45.2549 57.2697 45.2543L50.2162 45.5202C50.5728 45.6197 50.8978 45.6444 51.2337 45.6699C51.8196 45.7144 52.4251 45.7605 53.2645 46.19C54.3325 46.7373 54.8924 46.7131 55.3861 46.6914C55.6491 46.68 55.8977 46.6693 56.1904 46.743C56.8276 46.9031 57.1883 47.2617 57.254 47.5271C57.2887 47.6687 57.2328 47.7447 57.1959 47.7774C57.0691 47.8894 56.941 47.7767 56.8381 47.6862C56.7016 47.5662 56.5146 47.402 56.1875 47.3772C56.0296 47.3652 55.8323 47.3873 55.6032 47.4129C54.9616 47.4851 54.0831 47.5837 53.0713 47.0541C52.4164 46.711 51.7801 46.6877 51.1069 46.6629C50.4208 46.6378 49.7115 46.6118 48.9231 46.2503L49.0066 46.0684C49.7584 46.4132 50.4478 46.4384 51.1142 46.463C51.8109 46.4886 52.4692 46.5128 53.164 46.8767C54.1216 47.378 54.9651 47.2834 55.5809 47.2142C55.8199 47.1873 56.0261 47.1641 56.2026 47.1778C56.5966 47.2075 56.8214 47.4051 56.9701 47.5359C57.0002 47.5623 57.0389 47.5964 57.0644 47.6134C57.0648 47.5974 57.062 47.5741 57.0476 47.5388C56.9857 47.3842 56.7257 47.0836 56.1412 46.9368C55.8767 46.8702 55.6533 46.88 55.3947 46.8911C54.8761 46.9136 54.2883 46.9392 53.1729 46.368C52.3693 45.9567 51.7842 45.9121 51.2182 45.8692C50.7267 45.8319 50.2577 45.7963 49.6827 45.54L45.0036 45.7164L44.9961 45.5164L49.3161 45.3534L49.295 45.3414L49.3952 45.1681C49.5018 45.2298 49.6111 45.2866 49.7229 45.3382L57.266 45.0539C57.2899 45.0537 57.4004 45.0432 57.4006 44.9995C57.4006 44.9571 57.2858 44.9463 57.2695 44.9463L44.9962 44.485L45.0037 44.2848L57.2732 44.7462C57.4294 44.7466 57.601 44.826 57.601 45.0004Z" fill="#85361B"/>
</g>
<mask id="mask7_394_646" style="mask-type:luminance" maskUnits="userSpaceOnUse" x="0" y="0" width="90" height="90">
<path d="M90 45C90 20.1472 69.8528 0 45 0C20.1472 0 0 20.1472 0 45C0 69.8528 20.1472 90 45 90C69.8528 90 90 69.8528 90 45Z" fill="white"/>
</mask>
<g mask="url(#mask7_394_646)">
<path d="M48.2196 47.5891C49.3764 48.8327 50.7738 48.7546 51.7497 49.9226C52.7241 51.0907 53.9187 51.1084 54.4724 51.3885C55.0253 51.6691 54.991 52.2025 55.1719 52.1394C55.3538 52.0761 55.2935 51.4783 54.6129 50.973C53.9335 50.4685 53.3077 50.742 52.1045 49.3276C50.9013 47.9134 49.9556 48.2494 48.9176 46.8994M44.7656 45.5692L56.2777 49.8382C56.2777 49.8382 56.4911 49.9268 56.55 49.7846C56.6085 49.6422 56.395 49.5541 56.395 49.5541L45.2367 44.4319" fill="#F5B41A"/>
</g>
<mask id="mask8_394_646" style="mask-type:luminance" maskUnits="userSpaceOnUse" x="0" y="0" width="90" height="90">
<path d="M90 45C90 20.1472 69.8528 0 45 0C20.1472 0 0 20.1472 0 45C0 69.8528 20.1472 90 45 90C69.8528 90 90 69.8528 90 45Z" fill="white"/>
</mask>
<g mask="url(#mask8_394_646)">
<path d="M56.6604 49.7358C56.6602 49.7659 56.6541 49.7957 56.6423 49.8235C56.6313 49.851 56.6149 49.876 56.594 49.8971C56.5732 49.9182 56.5483 49.9348 56.5208 49.946C56.4011 49.9956 56.2554 49.9378 56.2391 49.9312L49.6192 47.4764C49.9111 47.7055 50.2023 47.853 50.5032 48.0054C51.0273 48.2707 51.5695 48.5451 52.1806 49.2634C52.9585 50.1778 53.485 50.3694 53.9494 50.5386C54.1967 50.6286 54.4299 50.7134 54.6721 50.8932C55.2001 51.2851 55.3949 51.7548 55.3543 52.0255C55.3324 52.1698 55.2508 52.2183 55.2045 52.2344C55.0454 52.2899 54.9701 52.1366 54.9095 52.0136C54.8292 51.8503 54.7192 51.6269 54.4268 51.4784C54.2862 51.4073 54.0953 51.3524 53.8743 51.2885C53.2539 51.1095 52.4043 50.8644 51.6724 49.9873C51.1981 49.4193 50.6188 49.1542 50.0057 48.8738C49.3816 48.588 48.7364 48.2928 48.146 47.6578L48.2923 47.5215C48.8559 48.1271 49.4828 48.4141 50.089 48.6917C50.7234 48.982 51.3223 49.2561 51.826 49.859C52.5185 50.6892 53.3342 50.9243 53.9298 51.0961C54.1604 51.1627 54.3596 51.2201 54.5172 51.2998C54.8691 51.4786 55.0015 51.7474 55.0889 51.9252C55.1067 51.9611 55.1293 52.0071 55.1464 52.0326C55.1524 52.0195 55.1592 51.9956 55.1597 51.9572C55.1597 51.7918 55.0371 51.4134 54.553 51.0538C54.3341 50.8913 54.124 50.8149 53.8809 50.7263C53.3931 50.5487 52.8403 50.3476 52.0278 49.3928C51.443 48.7053 50.9194 48.4402 50.413 48.1837C49.9728 47.9608 49.5527 47.7483 49.119 47.2909L44.7305 45.6636L44.7999 45.4759L48.8515 46.9782C48.8469 46.9725 48.8424 46.9666 48.838 46.9607L48.9966 46.8388C49.0713 46.9361 49.1503 47.0299 49.2336 47.1199L56.3122 49.745C56.3343 49.7539 56.441 49.7866 56.4572 49.7471C56.4741 49.7081 56.3752 49.6552 56.3563 49.6471L45.1946 44.5236L45.2781 44.3417L56.4364 49.4639C56.5535 49.512 56.6604 49.613 56.6604 49.7358Z" fill="#85361B"/>
</g>
<mask id="mask9_394_646" style="mask-type:luminance" maskUnits="userSpaceOnUse" x="0" y="0" width="90" height="90">
<path d="M90 45C90 20.1472 69.8528 0 45 0C20.1472 0 0 20.1472 0 45C0 69.8528 20.1472 90 45 90C69.8528 90 90 69.8528 90 45Z" fill="white"/>
</mask>
<g mask="url(#mask9_394_646)">
<path d="M46.9852 48.6237C47.5767 50.2156 48.8986 50.6785 49.3522 52.1306C49.8066 53.5834 50.9034 54.0562 51.3069 54.5264C51.7111 54.9975 51.4747 55.4766 51.6663 55.4881C51.8589 55.4996 52.031 54.9237 51.5961 54.1968C51.162 53.47 50.479 53.4841 49.9086 51.7166C49.3381 49.9489 48.3354 49.8981 47.8932 48.2535M44.5664 45.4369L53.5683 53.7857C53.5683 53.7857 53.7317 53.9489 53.8407 53.84C53.9488 53.731 53.7864 53.5684 53.7864 53.5684L45.4368 44.5658" fill="#F5B41A"/>
</g>
<mask id="mask10_394_646" style="mask-type:luminance" maskUnits="userSpaceOnUse" x="0" y="0" width="90" height="90">
<path d="M90 45C90 20.1472 69.8528 0 45 0C20.1472 0 0 20.1472 0 45C0 69.8528 20.1472 90 45 90C69.8528 90 90 69.8528 90 45Z" fill="white"/>
</mask>
<g mask="url(#mask10_394_646)">
<path d="M53.976 53.7498C53.9761 53.7793 53.9704 53.8086 53.959 53.8358C53.9476 53.863 53.9308 53.8876 53.9097 53.9082C53.786 54.032 53.6082 53.9668 53.4954 53.854L48.3195 49.0536C48.5013 49.3764 48.7137 49.6236 48.9332 49.8792C49.3159 50.325 49.7118 50.7858 50.0014 51.6836C50.3702 52.8257 50.783 53.2043 51.1472 53.538C51.3412 53.7159 51.5246 53.8839 51.6796 54.1433C52.0173 54.7079 52.0183 55.2166 51.8765 55.4506C51.8214 55.5415 51.7415 55.5908 51.658 55.5856C51.49 55.5755 51.479 55.4053 51.4702 55.2687C51.4584 55.0871 51.4426 54.8388 51.2284 54.5893C51.1259 54.4697 50.9706 54.3459 50.7911 54.2025C50.2866 53.7999 49.5955 53.2486 49.2542 52.1581C49.0339 51.452 48.6002 50.9858 48.1415 50.4917C47.6745 49.9889 47.1911 49.4688 46.8891 48.6561L47.0768 48.5866C47.3648 49.3619 47.8342 49.8672 48.2882 50.3556C48.7629 50.8665 49.2112 51.3491 49.4455 52.0983C49.7682 53.1303 50.4316 53.6597 50.9161 54.0461C51.1034 54.1958 51.2657 54.3251 51.3806 54.4589C51.638 54.7591 51.657 55.0579 51.67 55.2557C51.6726 55.2958 51.6758 55.3472 51.6818 55.3772C51.6923 55.3673 51.7075 55.3479 51.7229 55.3124C51.7882 55.1597 51.8174 54.763 51.5077 54.2458C51.3677 54.0115 51.2029 53.8604 51.0119 53.6854C50.6294 53.3348 50.1958 52.9375 49.811 51.7449C49.5336 50.8854 49.1511 50.4402 48.7811 50.0095C48.46 49.6356 48.1533 49.2787 47.9278 48.6906L44.4961 45.5079L44.6321 45.3611L47.8004 48.2993C47.7985 48.292 47.7961 48.2845 47.7942 48.277L47.9876 48.2252C48.0192 48.3439 48.0564 48.461 48.099 48.5763L53.6341 53.7096C53.651 53.7263 53.7372 53.7972 53.7675 53.7668C53.7988 53.736 53.7269 53.6507 53.7129 53.6363L45.3608 44.6314L45.5077 44.4951L53.8572 53.4977C53.9253 53.5658 53.976 53.6593 53.976 53.7498Z" fill="#85361B"/>
</g>
<mask id="mask11_394_646" style="mask-type:luminance" maskUnits="userSpaceOnUse" x="0" y="0" width="90" height="90">
<path d="M90 45C90 20.1472 69.8528 0 45 0C20.1472 0 0 20.1472 0 45C0 69.8528 20.1472 90 45 90C69.8528 90 90 69.8528 90 45Z" fill="white"/>
</mask>
<g mask="url(#mask11_394_646)">
<path d="M45.134 45.2852L52.798 41.7773L44.8984 44.7163M49.3931 44.2242C51.0225 44.1425 51.7442 43.2188 53.2296 43.4007C52.0553 43.0017 51.1446 43.9623 49.4099 43.908" fill="#85361B"/>
</g>
<mask id="mask12_394_646" style="mask-type:luminance" maskUnits="userSpaceOnUse" x="0" y="0" width="90" height="90">
<path d="M90 45C90 20.1472 69.8528 0 45 0C20.1472 0 0 20.1472 0 45C0 69.8528 20.1472 90 45 90C69.8528 90 90 69.8528 90 45Z" fill="white"/>
</mask>
<g mask="url(#mask12_394_646)">
<path d="M45.0165 45.3138L53.4391 45.006L45.0156 44.6984M49.3565 45.965C50.8937 46.5127 51.9141 45.9351 53.2167 46.6719C52.2842 45.8544 51.0757 46.3931 49.4937 45.6787" fill="#85361B"/>
</g>
<mask id="mask13_394_646" style="mask-type:luminance" maskUnits="userSpaceOnUse" x="0" y="0" width="90" height="90">
<path d="M90 45C90 20.1472 69.8528 0 45 0C20.1472 0 0 20.1472 0 45C0 69.8528 20.1472 90 45 90C69.8528 90 90 69.8528 90 45Z" fill="white"/>
</mask>
<g mask="url(#mask13_394_646)">
<path d="M44.8945 45.2955L52.7941 48.2346L45.1301 44.7268M48.6564 47.5579C49.8666 48.6521 51.0303 48.5089 51.9522 49.6875C51.4029 48.5757 50.0801 48.6108 48.8919 47.3462" fill="#85361B"/>
</g>
<mask id="mask14_394_646" style="mask-type:luminance" maskUnits="userSpaceOnUse" x="0" y="0" width="90" height="90">
<path d="M90 45C90 20.1472 69.8528 0 45 0C20.1472 0 0 20.1472 0 45C0 69.8528 20.1472 90 45 90C69.8528 90 90 69.8528 90 45Z" fill="white"/>
</mask>
<g mask="url(#mask14_394_646)">
<path d="M44.7891 45.2334L50.9626 50.9718L45.2233 44.7983M47.3986 48.7632C48.0974 50.2369 49.2267 50.5507 49.6276 51.9922C49.5467 50.7547 48.3109 50.2809 47.6975 48.6576" fill="#85361B"/>
</g>
<mask id="mask15_394_646" style="mask-type:luminance" maskUnits="userSpaceOnUse" x="0" y="0" width="90" height="90">
<path d="M90 45C90 20.1472 69.8528 0 45 0C20.1472 0 0 20.1472 0 45C0 69.8528 20.1472 90 45 90C69.8528 90 90 69.8528 90 45Z" fill="white"/>
</mask>
<g mask="url(#mask15_394_646)">
<path d="M45.4438 49.1071C45.3814 50.8043 46.4255 51.7377 46.2894 53.2529C46.1532 54.768 46.9854 55.6249 47.1781 56.2147C47.3712 56.8036 46.9698 57.1559 47.1427 57.2403C47.3159 57.324 47.6956 56.859 47.5719 56.0206C47.4477 55.1828 46.8124 54.9341 46.9618 53.0831C47.1112 51.232 46.2042 50.8006 46.4247 49.1121M44.4297 45.2364L49.551 56.395C49.551 56.395 49.6389 56.6085 49.7813 56.5497C49.9236 56.4907 49.8357 56.278 49.8357 56.278L45.5668 44.7652" fill="#F5B41A"/>
</g>
<mask id="mask16_394_646" style="mask-type:luminance" maskUnits="userSpaceOnUse" x="0" y="0" width="90" height="90">
<path d="M90 45C90 20.1472 69.8528 0 45 0C20.1472 0 0 20.1472 0 45C0 69.8528 20.1472 90 45 90C69.8528 90 90 69.8528 90 45Z" fill="white"/>
</mask>
<g mask="url(#mask16_394_646)">
<path d="M49.9642 56.4046C49.9642 56.5036 49.9238 56.5966 49.8203 56.6393C49.7931 56.651 49.7637 56.6572 49.734 56.6573C49.7043 56.6574 49.6749 56.6515 49.6476 56.64C49.5279 56.5902 49.4657 56.4468 49.4592 56.4306L46.5142 50.0136C46.5585 50.3819 46.6602 50.6919 46.7653 51.0126C46.9488 51.571 47.1385 52.1491 47.0622 53.0885C46.9651 54.2858 47.2027 54.7931 47.4111 55.2413C47.5222 55.4795 47.6273 55.7048 47.6716 56.0034C47.7679 56.6534 47.5741 57.1239 47.3537 57.2861C47.236 57.3723 47.1443 57.3493 47.1001 57.3279C46.948 57.2539 47.0032 57.0921 47.0474 56.9623C47.106 56.7902 47.186 56.5547 47.0839 56.2435C47.0348 56.0932 46.9387 55.919 46.8272 55.7172C46.5152 55.1523 46.0879 54.3792 46.1907 53.2413C46.2555 52.5044 46.0346 51.9081 45.7997 51.2763C45.5605 50.6331 45.3109 49.9682 45.3445 49.101L45.5446 49.1082C45.5142 49.9358 45.7547 50.5815 45.9874 51.2064C46.2303 51.86 46.46 52.4762 46.3897 53.2593C46.2947 54.3345 46.7032 55.078 47.0026 55.6205C47.1189 55.8311 47.2192 56.013 47.2743 56.1811C47.3968 56.5562 47.3009 56.8392 47.2369 57.0266C47.2238 57.0651 47.2072 57.1142 47.2013 57.1443C47.2149 57.1391 47.2369 57.1271 47.2646 57.0998C47.3836 56.9835 47.5612 56.628 47.474 56.0328C47.434 55.7633 47.3395 55.5607 47.23 55.3261C47.0108 54.8556 46.7627 54.3223 46.8629 53.0728C46.9354 52.1723 46.7526 51.6148 46.5755 51.0751C46.4217 50.6064 46.2749 50.1603 46.292 49.5288L44.3398 45.2757L44.5217 45.1922L46.3237 49.1187L46.3265 49.0968L46.5248 49.1227C46.5088 49.2442 46.4983 49.3663 46.4935 49.4887L49.6427 56.3507C49.6521 56.3729 49.7041 56.4711 49.7438 56.4547C49.7845 56.4378 49.7506 56.3294 49.7441 56.3137L45.4739 44.7974L45.6617 44.728L49.9306 56.2407C49.9522 56.2927 49.9636 56.3483 49.9642 56.4046Z" fill="#85361B"/>
</g>
<mask id="mask17_394_646" style="mask-type:luminance" maskUnits="userSpaceOnUse" x="0" y="0" width="90" height="90">
<path d="M90 45C90 20.1472 69.8528 0 45 0C20.1472 0 0 20.1472 0 45C0 69.8528 20.1472 90 45 90C69.8528 90 90 69.8528 90 45Z" fill="white"/>
</mask>
<g mask="url(#mask17_394_646)">
<path d="M43.8414 48.964C43.1338 50.5074 43.7411 51.7697 43.0353 53.1171C42.3295 54.4653 42.7708 55.5752 42.7233 56.194C42.6766 56.8129 42.1704 56.9842 42.2979 57.1285C42.4262 57.2719 42.9544 56.9869 43.1609 56.1651C43.3675 55.3444 42.8752 54.8705 43.7217 53.2183C44.568 51.565 43.8948 50.8198 44.7456 49.3449M44.3844 44.9994L44.8468 57.2689C44.8468 57.2689 44.8458 57.4991 45.0007 57.5C45.1544 57.5 45.1544 57.2689 45.1544 57.2689L45.616 44.9994" fill="#F5B41A"/>
</g>
<mask id="mask18_394_646" style="mask-type:luminance" maskUnits="userSpaceOnUse" x="0" y="0" width="90" height="90">
<path d="M90 45C90 20.1472 69.8528 0 45 0C20.1472 0 0 20.1472 0 45C0 69.8528 20.1472 90 45 90C69.8528 90 90 69.8528 90 45Z" fill="white"/>
</mask>
<g mask="url(#mask18_394_646)">
<path d="M45.7149 45.0045L45.2533 57.2741C45.2544 57.277 45.2526 57.3466 45.2289 57.4174C45.1901 57.5345 45.1065 57.6016 44.9996 57.6016C44.8247 57.6003 44.7456 57.4303 44.7456 57.272V57.27L44.4798 50.2167C44.3802 50.5734 44.3556 50.8984 44.3301 51.2342C44.2856 51.8201 44.2395 52.4258 43.8099 53.2653C43.2627 54.3334 43.2866 54.8931 43.3084 55.3869C43.3199 55.6497 43.3307 55.8982 43.257 56.1908C43.097 56.8282 42.7384 57.1891 42.4728 57.2546C42.3314 57.2895 42.2552 57.2333 42.2226 57.1966C42.1106 57.0699 42.2232 56.9417 42.3137 56.8387C42.4337 56.7022 42.5981 56.5153 42.6227 56.1878C42.6346 56.0303 42.6127 55.8323 42.587 55.6036C42.5148 54.9621 42.4163 54.0837 42.9458 53.072C43.2889 52.4171 43.3123 51.7811 43.337 51.1078C43.3622 50.4215 43.3883 49.7122 43.7497 48.9238L43.9316 49.0071C43.5867 49.7592 43.5615 50.4486 43.5371 51.115C43.5115 51.8117 43.4873 52.4699 43.1233 53.1648C42.6221 54.1223 42.7166 54.9655 42.7859 55.5812C42.8128 55.8205 42.8355 56.0273 42.8222 56.203C42.7925 56.5972 42.5951 56.8221 42.4641 56.9708C42.4377 57.001 42.4036 57.0397 42.3866 57.0652C42.4012 57.0656 42.4258 57.0627 42.4614 57.0483C42.6159 56.9865 42.9165 56.7263 43.0634 56.1419C43.1298 55.8774 43.12 55.6541 43.109 55.3955C43.086 54.8768 43.0607 54.289 43.6322 53.1738C44.0435 52.3702 44.0879 51.785 44.1309 51.2189C44.1682 50.7275 44.2038 50.2584 44.4601 49.6833L44.2838 45.0044L44.4837 44.997L44.6466 49.3168L44.6585 49.296L44.8319 49.396C44.7701 49.5025 44.7134 49.6118 44.6619 49.7236L44.9462 57.2666C44.9464 57.2906 44.9569 57.4012 45.0007 57.4014C45.0399 57.4015 45.0534 57.2989 45.0536 57.2699L45.5152 44.9971L45.7149 45.0045Z" fill="#85361B"/>
</g>
<mask id="mask19_394_646" style="mask-type:luminance" maskUnits="userSpaceOnUse" x="0" y="0" width="90" height="90">
<path d="M90 45C90 20.1472 69.8528 0 45 0C20.1472 0 0 20.1472 0 45C0 69.8528 20.1472 90 45 90C69.8528 90 90 69.8528 90 45Z" fill="white"/>
</mask>
<g mask="url(#mask19_394_646)">
<path d="M42.4109 48.2181C41.1673 49.3749 41.2454 50.7723 40.0773 51.7482C38.9093 52.7226 38.8916 53.9171 38.6115 54.4709C38.3309 55.0236 37.7975 54.9893 37.8606 55.1702C37.9239 55.3522 38.5217 55.2918 39.027 54.6113C39.5315 53.9318 39.258 53.3061 40.6724 52.1028C42.0866 50.8997 41.7506 49.954 43.1006 48.916M44.4308 44.7641L40.1618 56.2762C40.1618 56.2762 40.0732 56.4895 40.2154 56.5484C40.3578 56.607 40.4459 56.3935 40.4459 56.3935L45.5681 45.2351" fill="#F5B41A"/>
</g>
<mask id="mask20_394_646" style="mask-type:luminance" maskUnits="userSpaceOnUse" x="0" y="0" width="90" height="90">
<path d="M90 45C90 20.1472 69.8528 0 45 0C20.1472 0 0 20.1472 0 45C0 69.8528 20.1472 90 45 90C69.8528 90 90 69.8528 90 45Z" fill="white"/>
</mask>
<g mask="url(#mask20_394_646)">
<path d="M45.6584 45.2782L40.5363 56.4367C40.477 56.5804 40.3382 56.7086 40.1767 56.6421C40.0776 56.6011 40.0254 56.5072 40.035 56.3843C40.0405 56.3096 40.0661 56.246 40.0689 56.239L42.5236 49.6193C42.2946 49.911 42.1471 50.2023 41.9947 50.5032C41.7294 51.0273 41.455 51.5694 40.7367 52.1803C39.8223 52.9584 39.6306 53.4848 39.4615 53.9493C39.3715 54.1965 39.2867 54.4301 39.1069 54.6722C38.7149 55.2001 38.2451 55.3959 37.9746 55.3544C37.8303 55.3324 37.7817 55.251 37.7657 55.2044C37.7099 55.0447 37.8634 54.9699 37.9867 54.9094C38.1498 54.8291 38.3734 54.7193 38.5218 54.4266C38.5929 54.286 38.6478 54.0952 38.7117 53.8743C38.8907 53.2537 39.1359 52.4041 40.0128 51.6724C40.5808 51.198 40.846 50.6188 41.1264 50.0057C41.4121 49.3816 41.7073 48.7363 42.3424 48.1459L42.4786 48.2924C41.873 48.8558 41.586 49.4826 41.3085 50.089C41.018 50.7232 40.7441 51.3222 40.1412 51.8259C39.311 52.5183 39.0758 53.3341 38.904 53.9296C38.8375 54.1602 38.7801 54.3594 38.7004 54.5169C38.5217 54.869 38.2528 55.0013 38.0751 55.0887C38.0391 55.1064 37.993 55.1291 37.9675 55.1461C37.9806 55.1521 38.0044 55.1589 38.0428 55.1595C38.2093 55.162 38.5868 55.037 38.9464 54.5527C39.1089 54.334 39.1853 54.1239 39.2738 53.8807C39.4515 53.3929 39.6526 52.84 40.6074 52.0276C41.2949 51.4427 41.5599 50.9191 41.8164 50.4126C42.0394 49.9726 42.2518 49.5526 42.7093 49.1188L44.3366 44.7304L44.5243 44.7998L43.022 48.8514C43.0276 48.8468 43.0336 48.8422 43.0394 48.8378L43.1614 48.9965C43.0641 49.0711 42.9703 49.1502 42.8802 49.2334L40.2552 56.3122C40.2464 56.3341 40.2138 56.4405 40.2532 56.4572C40.2931 56.4736 40.3467 56.3717 40.3528 56.3567L45.4765 45.1947L45.6584 45.2782Z" fill="#85361B"/>
</g>
<mask id="mask21_394_646" style="mask-type:luminance" maskUnits="userSpaceOnUse" x="0" y="0" width="90" height="90">
<path d="M90 45C90 20.1472 69.8528 0 45 0C20.1472 0 0 20.1472 0 45C0 69.8528 20.1472 90 45 90C69.8528 90 90 69.8528 90 45Z" fill="white"/>
</mask>
<g mask="url(#mask21_394_646)">
<path d="M41.376 46.9824C39.7842 47.5739 39.3212 48.8959 37.8693 49.3493C36.4162 49.8036 35.9437 50.9005 35.4734 51.304C35.0024 51.7083 34.5232 51.4718 34.5119 51.6635C34.5004 51.856 35.0761 52.0282 35.8029 51.5932C36.5299 51.1591 36.5156 50.4762 38.2833 49.9057C40.0508 49.3352 40.1016 48.3326 41.7463 47.8903M44.563 44.5636L36.2141 53.5654C36.2141 53.5654 36.0507 53.7288 36.1597 53.8379C36.2688 53.946 36.4313 53.7835 36.4313 53.7835L45.4342 45.4339" fill="#F5B41A"/>
</g>
<mask id="mask22_394_646" style="mask-type:luminance" maskUnits="userSpaceOnUse" x="0" y="0" width="90" height="90">
<path d="M90 45C90 20.1472 69.8528 0 45 0C20.1472 0 0 20.1472 0 45C0 69.8528 20.1472 90 45 90C69.8528 90 90 69.8528 90 45Z" fill="white"/>
</mask>
<g mask="url(#mask22_394_646)">
<path d="M45.5048 45.5086L36.5017 53.8581C36.3923 53.9677 36.2153 54.0328 36.0917 53.9103C35.9677 53.7861 36.0332 53.6085 36.1459 53.496L40.9466 48.3196C40.6237 48.5015 40.3763 48.7141 40.1206 48.9337C39.6749 49.3165 39.2142 49.7124 38.3165 50.0022C37.1744 50.3707 36.7959 50.7836 36.4622 51.1478C36.2843 51.3419 36.1162 51.5253 35.8568 51.6803C35.2924 52.018 34.7835 52.0192 34.5497 51.8772C34.4589 51.8221 34.4078 51.7464 34.4147 51.6587C34.4246 51.4908 34.5948 51.4799 34.7316 51.4711C34.913 51.4594 35.1614 51.4432 35.4109 51.2292C35.5305 51.1266 35.6543 50.9714 35.7978 50.7916C36.2003 50.2871 36.7515 49.5962 37.8422 49.2552C38.5482 49.0347 39.0144 48.6012 39.5082 48.1426C40.0111 47.6752 40.5311 47.192 41.3439 46.89L41.4134 47.0776C40.6382 47.3657 40.1328 47.8351 39.6443 48.2892C39.1336 48.7638 38.6512 49.2121 37.9019 49.4461C36.8698 49.7688 36.3405 50.4322 35.9542 50.9166C35.8044 51.1043 35.675 51.2664 35.5411 51.3813C35.2412 51.6388 34.9422 51.6581 34.7444 51.6708C34.7044 51.6734 34.6531 51.6766 34.623 51.6826C34.6329 51.6932 34.6525 51.7085 34.688 51.7238C34.8407 51.7894 35.2373 51.818 35.7542 51.5088C35.9886 51.3686 36.1396 51.2037 36.3148 51.0127C36.6652 50.6302 37.0626 50.1967 38.2552 49.8116C39.1144 49.5343 39.5597 49.1519 39.9904 48.7821C40.3642 48.4608 40.7213 48.154 41.3096 47.9286L44.4921 44.497L44.6389 44.6332L41.7007 47.8011L41.7227 47.7952L41.7744 47.9883C41.6559 48.0201 41.5389 48.0572 41.4238 48.0996L36.2901 53.6348C36.2733 53.6518 36.203 53.738 36.233 53.7684C36.2631 53.7984 36.3489 53.7279 36.3631 53.7138L45.3687 45.3617L45.5048 45.5086Z" fill="#85361B"/>
</g>
<mask id="mask23_394_646" style="mask-type:luminance" maskUnits="userSpaceOnUse" x="0" y="0" width="90" height="90">
<path d="M90 45C90 20.1472 69.8528 0 45 0C20.1472 0 0 20.1472 0 45C0 69.8528 20.1472 90 45 90C69.8528 90 90 69.8528 90 45Z" fill="white"/>
</mask>
<g mask="url(#mask23_394_646)">
<path d="M44.7148 45.135L48.2227 52.7989L45.2837 44.8993M45.7758 49.3939C45.8573 51.0235 46.7812 51.7452 46.5993 53.2305C46.9983 52.0561 46.0377 51.1456 46.092 49.4109" fill="#85361B"/>
</g>
<mask id="mask24_394_646" style="mask-type:luminance" maskUnits="userSpaceOnUse" x="0" y="0" width="90" height="90">
<path d="M90 45C90 20.1472 69.8528 0 45 0C20.1472 0 0 20.1472 0 45C0 69.8528 20.1472 90 45 90C69.8528 90 90 69.8528 90 45Z" fill="white"/>
</mask>
<g mask="url(#mask24_394_646)">
<path d="M44.6862 45.0148L44.994 53.4375L45.3016 45.0139M44.035 49.3547C43.4873 50.8919 44.0649 51.9126 43.3281 53.2152C44.1456 52.2826 43.607 51.0741 44.3213 49.4921" fill="#85361B"/>
</g>
<mask id="mask25_394_646" style="mask-type:luminance" maskUnits="userSpaceOnUse" x="0" y="0" width="90" height="90">
<path d="M90 45C90 20.1472 69.8528 0 45 0C20.1472 0 0 20.1472 0 45C0 69.8528 20.1472 90 45 90C69.8528 90 90 69.8528 90 45Z" fill="white"/>
</mask>
<g mask="url(#mask25_394_646)">
<path d="M44.7045 44.8934L41.7654 52.793L45.2732 45.1288M42.4421 48.6551C41.3479 49.8654 41.4911 51.0291 40.3125 51.9511C41.4243 51.4017 41.3892 50.0788 42.6538 48.8907" fill="#85361B"/>
</g>
<mask id="mask26_394_646" style="mask-type:luminance" maskUnits="userSpaceOnUse" x="0" y="0" width="90" height="90">
<path d="M90 45C90 20.1472 69.8528 0 45 0C20.1472 0 0 20.1472 0 45C0 69.8528 20.1472 90 45 90C69.8528 90 90 69.8528 90 45Z" fill="white"/>
</mask>
<g mask="url(#mask26_394_646)">
<path d="M44.7666 44.7875L39.0282 50.9609L45.2017 45.2216M41.2368 47.3969C39.7631 48.0958 39.4493 49.225 38.0078 49.6258C39.2453 49.5451 39.7191 48.3093 41.3424 47.6957" fill="#85361B"/>
</g>
<mask id="mask27_394_646" style="mask-type:luminance" maskUnits="userSpaceOnUse" x="0" y="0" width="90" height="90">
<path d="M90 45C90 20.1472 69.8528 0 45 0C20.1472 0 0 20.1472 0 45C0 69.8528 20.1472 90 45 90C69.8528 90 90 69.8528 90 45Z" fill="white"/>
</mask>
<g mask="url(#mask27_394_646)">
<path d="M40.893 45.4444C39.1958 45.3821 38.2624 46.4262 36.7472 46.2899C35.232 46.1537 34.3752 46.9861 33.7853 47.1787C33.1964 47.3719 32.8441 46.9705 32.7597 47.1434C32.676 47.3165 33.141 47.6962 33.9794 47.5724C34.8171 47.4485 35.0659 46.813 36.9168 46.9626C38.7678 47.112 39.1993 46.2048 40.8878 46.4254M44.7637 44.4302L33.605 49.5515C33.605 49.5515 33.3915 49.6395 33.4504 49.7819C33.5094 49.9245 33.722 49.8364 33.722 49.8364L45.2348 45.5674" fill="#F5B41A"/>
</g>
<mask id="mask28_394_646" style="mask-type:luminance" maskUnits="userSpaceOnUse" x="0" y="0" width="90" height="90">
<path d="M90 45C90 20.1472 69.8528 0 45 0C20.1472 0 0 20.1472 0 45C0 69.8528 20.1472 90 45 90C69.8528 90 90 69.8528 90 45Z" fill="white"/>
</mask>
<g mask="url(#mask28_394_646)">
<path d="M45.2719 45.6619L33.7592 49.9309C33.6157 49.9904 33.4273 49.9823 33.3604 49.8208C33.3487 49.7935 33.3426 49.7642 33.3424 49.7345C33.3423 49.7048 33.3482 49.6754 33.3597 49.6481C33.4094 49.5285 33.5529 49.4663 33.5692 49.4595L39.9857 46.5147C39.6177 46.559 39.3077 46.6608 38.9871 46.7659C38.4287 46.9492 37.8512 47.1386 36.9112 47.0628C35.7142 46.966 35.2066 47.2028 34.7587 47.4116C34.5202 47.5227 34.2949 47.6278 33.9964 47.6721C33.3461 47.7679 32.8758 47.5745 32.7138 47.354C32.6276 47.2365 32.6509 47.1447 32.672 47.1006C32.7461 46.9487 32.9077 47.0038 33.0376 47.0479C33.2096 47.1063 33.4451 47.1865 33.7564 47.0843C33.9067 47.0351 34.081 46.9389 34.2829 46.8275C34.8479 46.5156 35.6217 46.0886 36.7585 46.1908C37.4954 46.257 38.092 46.0352 38.7238 45.8C39.3671 45.5607 40.0325 45.3132 40.8989 45.3448L40.8917 45.5448C40.0648 45.5145 39.4185 45.755 38.7936 45.9874C38.14 46.2307 37.5226 46.4603 36.7405 46.3901C35.6648 46.2934 34.9219 46.7033 34.3796 47.0027C34.1689 47.119 33.9868 47.2195 33.8188 47.2745C33.4439 47.3974 33.1607 47.3011 32.9731 47.2374C32.9349 47.2243 32.8858 47.2077 32.8557 47.2017C32.8608 47.2153 32.873 47.2373 32.9002 47.2649C33.0164 47.384 33.3717 47.562 33.9672 47.4741C34.2368 47.4342 34.4395 47.3397 34.6741 47.2302C35.1445 47.0108 35.6777 46.7623 36.9272 46.8633C37.8273 46.9361 38.3852 46.7529 38.9248 46.5759C39.3936 46.4221 39.8409 46.2753 40.471 46.2922L44.7244 44.3401L44.8079 44.522L40.8812 46.3239L40.9033 46.3267L40.8774 46.5252C40.7559 46.5091 40.6337 46.4986 40.5112 46.4938L33.6494 49.6431C33.6274 49.6524 33.5301 49.7038 33.5455 49.7442C33.5624 49.7849 33.6706 49.7511 33.6864 49.7446L45.2027 45.4743L45.2719 45.6619Z" fill="#85361B"/>
</g>
<mask id="mask29_394_646" style="mask-type:luminance" maskUnits="userSpaceOnUse" x="0" y="0" width="90" height="90">
<path d="M90 45C90 20.1472 69.8528 0 45 0C20.1472 0 0 20.1472 0 45C0 69.8528 20.1472 90 45 90C69.8528 90 90 69.8528 90 45Z" fill="white"/>
</mask>
<g mask="url(#mask29_394_646)">
<path d="M41.036 43.8387C39.4926 43.1315 38.2305 43.7387 36.883 43.0331C35.5349 42.3271 34.4247 42.7684 33.8061 42.7209C33.1872 42.6742 33.0159 42.1677 32.8718 42.2953C32.7284 42.4238 33.0131 42.9519 33.8349 43.1585C34.6559 43.3651 35.1297 42.8728 36.7819 43.7191C38.4352 44.5655 39.1804 43.8923 40.6554 44.7431M45.0006 44.382L32.7314 44.8443C32.7314 44.8443 32.501 44.8434 32.5 44.9981C32.5 45.152 32.7312 45.1519 32.7312 45.1519L45.0007 45.6133" fill="#F5B41A"/>
</g>
<mask id="mask30_394_646" style="mask-type:luminance" maskUnits="userSpaceOnUse" x="0" y="0" width="90" height="90">
<path d="M90 45C90 20.1472 69.8528 0 45 0C20.1472 0 0 20.1472 0 45C0 69.8528 20.1472 90 45 90C69.8528 90 90 69.8528 90 45Z" fill="white"/>
</mask>
<g mask="url(#mask30_394_646)">
<path d="M45.0029 45.5148L44.9955 45.7148L32.726 45.2534C32.6773 45.2523 32.629 45.2441 32.5827 45.2291C32.4656 45.1903 32.3984 45.1067 32.3984 44.9996C32.3997 44.824 32.5712 44.7452 32.7303 44.7458L39.7837 44.48C39.427 44.3803 39.102 44.3556 38.766 44.3301C38.1802 44.2856 37.5746 44.2396 36.735 43.8099C35.6668 43.2629 35.107 43.2871 34.6132 43.3086C34.3503 43.32 34.1018 43.3307 33.8091 43.2574C33.1719 43.0973 32.8111 42.7385 32.7457 42.4731C32.7108 42.3306 32.7671 42.2552 32.8038 42.2227C32.9302 42.1104 33.0585 42.2233 33.1614 42.3138C33.2979 42.434 33.4848 42.5983 33.8122 42.623C33.9697 42.635 34.1674 42.6129 34.3962 42.5873C35.0377 42.5152 35.9163 42.4166 36.928 42.9465C37.583 43.2896 38.2192 43.3127 38.8926 43.3374C39.5786 43.3626 40.288 43.3885 41.0761 43.7496L40.9928 43.9315C40.2409 43.587 39.5516 43.5619 38.8853 43.5374C38.1885 43.5119 37.5303 43.4876 36.8353 43.1236C35.8777 42.6222 35.0344 42.7167 34.4186 42.7861C34.1796 42.8129 33.9733 42.8362 33.797 42.8224C33.4029 42.7929 33.178 42.5952 33.0292 42.4642C32.9991 42.4379 32.9604 42.4037 32.9349 42.3866C32.934 42.403 32.9374 42.4257 32.9517 42.4613C33.0132 42.6158 33.2732 42.9167 33.8579 43.0634C34.1223 43.1298 34.3457 43.1202 34.6044 43.1088C35.1231 43.0865 35.711 43.061 36.8263 43.6322C37.63 44.0435 38.2152 44.0877 38.7813 44.1308C39.2727 44.1683 39.7417 44.2039 40.3169 44.4601L44.9954 44.2838L45.0029 44.4838L40.6833 44.6467C40.6901 44.6504 40.697 44.6546 40.7039 44.6586L40.6039 44.8318C40.4974 44.7702 40.3881 44.7135 40.2764 44.6618L32.7334 44.9462C32.7093 44.9464 32.5986 44.957 32.5984 45.0006C32.5984 45.0429 32.7095 45.0534 32.7299 45.0535L45.0029 45.5148Z" fill="#85361B"/>
</g>
<mask id="mask31_394_646" style="mask-type:luminance" maskUnits="userSpaceOnUse" x="0" y="0" width="90" height="90">
<path d="M90 45C90 20.1472 69.8528 0 45 0C20.1472 0 0 20.1472 0 45C0 69.8528 20.1472 90 45 90C69.8528 90 90 69.8528 90 45Z" fill="white"/>
</mask>
<g mask="url(#mask31_394_646)">
<path d="M41.782 42.4132C40.6252 41.1696 39.2279 41.2478 38.2519 40.0797C37.2775 38.9116 36.083 38.8939 35.5294 38.6139C34.9766 38.3333 35.011 37.7998 34.8299 37.863C34.6479 37.9261 34.7084 38.524 35.3889 39.0293C36.0683 39.5337 36.694 39.2604 37.8973 40.6746C39.1004 42.0888 40.0461 41.753 41.0842 43.103M45.236 44.433L33.7239 40.1641C33.7239 40.1641 33.5106 40.0755 33.4516 40.2177C33.3929 40.3601 33.6064 40.4481 33.6064 40.4481L44.7649 45.5703" fill="#F5B41A"/>
</g>
<mask id="mask32_394_646" style="mask-type:luminance" maskUnits="userSpaceOnUse" x="0" y="0" width="90" height="90">
<path d="M90 45C90 20.1472 69.8528 0 45 0C20.1472 0 0 20.1472 0 45C0 69.8528 20.1472 90 45 90C69.8528 90 90 69.8528 90 45Z" fill="white"/>
</mask>
<g mask="url(#mask32_394_646)">
<path d="M45.2693 44.3381L45.1999 44.5259L41.1483 43.0237C41.1529 43.0293 41.1575 43.0354 41.1621 43.0412L41.0034 43.1633C40.9287 43.0659 40.8496 42.972 40.7663 42.8818L33.6875 40.257C33.6654 40.2479 33.559 40.2154 33.5425 40.2552C33.5397 40.2616 33.5334 40.2768 33.5709 40.3095C33.6031 40.3374 33.643 40.3546 33.643 40.3546L44.805 45.4783L44.7215 45.6602L33.563 40.538C33.5598 40.5366 33.4967 40.5099 33.44 40.4611C33.3468 40.3804 33.317 40.277 33.3575 40.1788C33.3986 40.0796 33.4925 40.028 33.6154 40.0368C33.6652 40.041 33.7141 40.0525 33.7606 40.0709L40.3803 42.5255C40.0886 42.2962 39.7973 42.1487 39.4964 41.9965C38.9723 41.7311 38.4302 41.4569 37.8194 40.7385C37.0413 39.8243 36.5148 39.6326 36.0503 39.4634C35.8032 39.3736 35.5696 39.2886 35.3275 39.1089C34.7997 38.7169 34.6031 38.2482 34.6454 37.9764C34.6616 37.8711 34.7162 37.7951 34.7954 37.7677C34.9543 37.7121 35.0297 37.8655 35.0902 37.9886C35.1705 38.1517 35.2805 38.3753 35.573 38.5238C35.7136 38.595 35.9045 38.6497 36.1254 38.7135C36.7459 38.8922 37.5955 39.1376 38.3272 40.0145C38.8016 40.5826 39.3808 40.8478 39.9939 41.1282C40.6181 41.4138 41.2633 41.7092 41.8537 42.3441L41.7072 42.4804C41.144 41.8746 40.517 41.5877 39.9106 41.3103C39.2765 41.0198 38.6774 40.7459 38.1737 40.1429C37.4813 39.3126 36.6656 39.0776 36.0701 38.9058C35.8395 38.8393 35.6403 38.7819 35.4827 38.7021C35.1305 38.5235 34.9983 38.2547 34.9109 38.0768C34.8932 38.0408 34.8704 37.9947 34.8535 37.9692C34.8475 37.9823 34.8407 38.0063 34.8401 38.045C34.8444 38.2091 34.963 38.5889 35.4469 38.948C35.6656 39.1107 35.8757 39.1871 36.1189 39.2756C36.6067 39.4533 37.1596 39.6543 37.972 40.6089C38.5568 41.2965 39.0805 41.5616 39.5869 41.8181C40.027 42.0408 40.4469 42.2534 40.8807 42.7109L45.2693 44.3381Z" fill="#85361B"/>
</g>
<mask id="mask33_394_646" style="mask-type:luminance" maskUnits="userSpaceOnUse" x="0" y="0" width="90" height="90">
<path d="M90 45C90 20.1472 69.8528 0 45 0C20.1472 0 0 20.1472 0 45C0 69.8528 20.1472 90 45 90C69.8528 90 90 69.8528 90 45Z" fill="white"/>
</mask>
<g mask="url(#mask33_394_646)">
<path d="M43.0175 41.3758C42.4261 39.7839 41.1042 39.3209 40.6507 37.8687C40.1963 36.416 39.0996 35.9431 38.6959 35.473C38.2917 35.0018 38.5281 34.5228 38.3363 34.5114C38.144 34.4999 37.9717 35.0758 38.4067 35.8026C38.8408 36.5294 39.5237 36.5154 40.0943 38.2829C40.6647 40.0504 41.6675 40.1014 42.1098 41.7459M45.4364 44.5627L36.4345 36.2138C36.4345 36.2138 36.2711 36.0505 36.1621 36.1595C36.0541 36.2684 36.2164 36.4311 36.2164 36.4311L44.5661 45.4336" fill="#F5B41A"/>
</g>
<mask id="mask34_394_646" style="mask-type:luminance" maskUnits="userSpaceOnUse" x="0" y="0" width="90" height="90">
<path d="M90 45C90 20.1472 69.8528 0 45 0C20.1472 0 0 20.1472 0 45C0 69.8528 20.1472 90 45 90C69.8528 90 90 69.8528 90 45Z" fill="white"/>
</mask>
<g mask="url(#mask34_394_646)">
<path d="M45.5032 44.4914L45.3669 44.6382L42.1991 41.7002L42.205 41.7222L42.0119 41.7739C41.9801 41.6554 41.943 41.5383 41.9005 41.4231L36.3651 36.2897C36.3482 36.273 36.262 36.202 36.2315 36.2326C36.2008 36.2638 36.2721 36.3486 36.2863 36.3631L44.6383 45.3679L44.4915 45.5039L36.1419 36.5015C36.0322 36.3919 35.9672 36.2145 36.0897 36.0914C36.2136 35.9675 36.3913 36.0328 36.5041 36.1456L41.6803 40.9462C41.4984 40.6234 41.2861 40.3761 41.0665 40.1205C40.6837 39.6747 40.2878 39.2139 39.998 38.316C39.6293 37.174 39.2165 36.7954 38.8522 36.4616C38.6581 36.2836 38.4747 36.1156 38.3197 35.856C37.9819 35.2917 37.9807 34.7828 38.1228 34.5491C38.1983 34.4245 38.292 34.411 38.3411 34.4137C38.5093 34.4238 38.5202 34.5942 38.529 34.7307C38.5407 34.9121 38.5569 35.1605 38.7708 35.4101C38.8734 35.5295 39.0286 35.6534 39.2082 35.7968C39.7129 36.1993 40.4039 36.7506 40.745 37.8411C40.9656 38.5473 41.3991 39.0136 41.8577 39.5076C42.325 40.0105 42.8082 40.5306 43.1101 41.3432L42.9225 41.413C42.6345 40.6376 42.1651 40.1324 41.7112 39.6438C41.2364 39.1329 40.7881 38.6504 40.5541 37.9011C40.2312 36.8689 39.5679 36.3397 39.0835 35.9533C38.8958 35.8036 38.7338 35.6744 38.6189 35.5405C38.3615 35.2402 38.3422 34.9414 38.3293 34.7439C38.3268 34.7036 38.3236 34.6523 38.3175 34.6222C38.3069 34.6321 38.2915 34.6516 38.2762 34.6873C38.2105 34.8407 38.1821 35.2367 38.4913 35.7535C38.6314 35.9878 38.7964 36.139 38.9873 36.3141C39.3699 36.6647 39.8035 37.0621 40.1886 38.2546C40.4658 39.1142 40.8483 39.5596 41.2183 39.9902C41.5394 40.3641 41.8461 40.7209 42.0715 41.3092L45.5032 44.4914Z" fill="#85361B"/>
</g>
<mask id="mask35_394_646" style="mask-type:luminance" maskUnits="userSpaceOnUse" x="0" y="0" width="90" height="90">
<path d="M90 45C90 20.1472 69.8528 0 45 0C20.1472 0 0 20.1472 0 45C0 69.8528 20.1472 90 45 90C69.8528 90 90 69.8528 90 45Z" fill="white"/>
</mask>
<g mask="url(#mask35_394_646)">
<path d="M44.865 44.7149L37.2011 48.2227L45.1007 45.2838M40.6061 45.7757C38.9765 45.8574 38.2548 46.7812 36.7695 46.5991C37.9439 46.9983 38.8544 46.0375 40.5891 46.0919" fill="#85361B"/>
</g>
<mask id="mask36_394_646" style="mask-type:luminance" maskUnits="userSpaceOnUse" x="0" y="0" width="90" height="90">
<path d="M90 45C90 20.1472 69.8528 0 45 0C20.1472 0 0 20.1472 0 45C0 69.8528 20.1472 90 45 90C69.8528 90 90 69.8528 90 45Z" fill="white"/>
</mask>
<g mask="url(#mask36_394_646)">
<path d="M44.9852 44.6855L36.5625 44.9932L44.9861 45.3008M40.6452 44.0342C39.1081 43.4867 38.0874 44.0641 36.7848 43.3274C37.7174 44.1448 38.9259 43.6062 40.5079 44.3206" fill="#85361B"/>
</g>
<mask id="mask37_394_646" style="mask-type:luminance" maskUnits="userSpaceOnUse" x="0" y="0" width="90" height="90">
<path d="M90 45C90 20.1472 69.8528 0 45 0C20.1472 0 0 20.1472 0 45C0 69.8528 20.1472 90 45 90C69.8528 90 90 69.8528 90 45Z" fill="white"/>
</mask>
<g mask="url(#mask37_394_646)">
<path d="M45.1066 44.7046L37.207 41.7656L44.8712 45.2734M41.3449 42.4423C40.1347 41.3481 38.9709 41.4914 38.0489 40.3127C38.5983 41.4246 39.9212 41.3894 41.1093 42.6542" fill="#85361B"/>
</g>
<mask id="mask38_394_646" style="mask-type:luminance" maskUnits="userSpaceOnUse" x="0" y="0" width="90" height="90">
<path d="M90 45C90 20.1472 69.8528 0 45 0C20.1472 0 0 20.1472 0 45C0 69.8528 20.1472 90 45 90C69.8528 90 90 69.8528 90 45Z" fill="white"/>
</mask>
<g mask="url(#mask38_394_646)">
<path d="M45.2127 44.7682L39.0391 39.0298L44.7784 45.2031M42.6031 41.2384C41.9042 39.7645 40.775 39.4508 40.3742 38.0093C40.4549 39.2468 41.6907 39.7206 42.3043 41.3439" fill="#85361B"/>
</g>
<mask id="mask39_394_646" style="mask-type:luminance" maskUnits="userSpaceOnUse" x="0" y="0" width="90" height="90">
<path d="M90 45C90 20.1472 69.8528 0 45 0C20.1472 0 0 20.1472 0 45C0 69.8528 20.1472 90 45 90C69.8528 90 90 69.8528 90 45Z" fill="white"/>
</mask>
<g mask="url(#mask39_394_646)">
<path d="M44.5556 40.8924C44.6179 39.1953 43.5738 38.2618 43.7101 36.7467C43.8463 35.2314 43.0139 34.3746 42.8215 33.7848C42.6281 33.196 43.0296 32.8435 42.8566 32.7592C42.6835 32.6757 42.3038 33.1406 42.4278 33.9792C42.5515 34.8169 43.1872 35.0655 43.0374 36.9166C42.8881 38.7674 43.7952 39.199 43.5746 40.8875M45.5698 44.7631L40.4485 33.6047C40.4485 33.6047 40.3604 33.3911 40.2181 33.4499C40.0755 33.5087 40.1636 33.7216 40.1636 33.7216L44.4326 45.2344" fill="#F5B41A"/>
</g>
<mask id="mask40_394_646" style="mask-type:luminance" maskUnits="userSpaceOnUse" x="0" y="0" width="90" height="90">
<path d="M90 45C90 20.1472 69.8528 0 45 0C20.1472 0 0 20.1472 0 45C0 69.8528 20.1472 90 45 90C69.8528 90 90 69.8528 90 45Z" fill="white"/>
</mask>
<g mask="url(#mask40_394_646)">
<path d="M45.659 44.7221L45.4771 44.8056L43.6751 40.8789L43.6723 40.9008L43.4739 40.8748C43.4908 40.7456 43.501 40.624 43.5053 40.509L40.356 33.6471C40.3466 33.6251 40.2945 33.5267 40.2548 33.5432C40.247 33.5463 40.2331 33.5518 40.2358 33.6017C40.2386 33.644 40.2545 33.684 40.2545 33.684L44.5247 45.2001L44.3371 45.2695L40.0681 33.7566C40.0666 33.7531 40.0411 33.6899 40.0359 33.6152C40.0284 33.4903 40.0793 33.3988 40.1782 33.358C40.2054 33.3463 40.2348 33.3402 40.2645 33.3401C40.2941 33.3401 40.3235 33.346 40.3509 33.3575C40.4705 33.4073 40.5327 33.5507 40.5394 33.5672L43.4844 39.9836C43.4399 39.6152 43.3382 39.3053 43.233 38.9846C43.0497 38.4263 42.8602 37.8493 42.9362 36.9088C43.0335 35.7128 42.7964 35.2045 42.5875 34.7564C42.4763 34.518 42.3713 34.2927 42.3271 33.9942C42.2313 33.3444 42.4245 32.8737 42.6447 32.7114C42.7622 32.6251 42.854 32.6481 42.8983 32.6694C43.0503 32.7435 42.9949 32.9052 42.9511 33.035C42.8927 33.2067 42.8127 33.4421 42.9148 33.7538C42.9638 33.9044 43.0601 34.0786 43.1717 34.2807C43.4833 34.8455 43.9106 35.6176 43.808 36.7561C43.7412 37.492 43.9636 38.0892 44.1986 38.7213C44.438 39.3645 44.6855 40.0316 44.654 40.8966L44.454 40.8892C44.4835 40.0646 44.2438 39.4162 44.0114 38.7912C43.768 38.1374 43.5374 37.5218 43.6087 36.7382C43.7049 35.6624 43.2956 34.9197 42.9963 34.3775C42.88 34.1667 42.7796 33.9847 42.7245 33.8163C42.6016 33.4417 42.6977 33.1582 42.7614 32.9707C42.7746 32.9325 42.791 32.8833 42.7971 32.8531C42.7835 32.8584 42.7615 32.8704 42.7339 32.8977C42.6149 33.014 42.4371 33.3693 42.5249 33.9645C42.5647 34.2344 42.6592 34.437 42.7686 34.6717C42.988 35.1419 43.2365 35.6751 43.1355 36.9246C43.0626 37.824 43.2459 38.3824 43.4228 38.9222C43.5767 39.3906 43.7245 39.838 43.7066 40.4684L45.659 44.7221Z" fill="#85361B"/>
</g>
<mask id="mask41_394_646" style="mask-type:luminance" maskUnits="userSpaceOnUse" x="0" y="0" width="90" height="90">
<path d="M90 45C90 20.1472 69.8528 0 45 0C20.1472 0 0 20.1472 0 45C0 69.8528 20.1472 90 45 90C69.8528 90 90 69.8528 90 45Z" fill="white"/>
</mask>
<g mask="url(#mask41_394_646)">
<path d="M46.1573 41.0352C46.8647 39.4917 46.2574 38.2297 46.9632 36.8823C47.669 35.5342 47.2277 34.4241 47.2752 33.8053C47.3219 33.1866 47.8282 33.0152 47.7006 32.8711C47.5723 32.7277 47.0442 33.0124 46.8376 33.8343C46.631 34.6551 47.1233 35.129 46.277 36.7812C45.4306 38.4344 46.104 39.1797 45.2532 40.6545M45.6141 45L45.1518 32.7305C45.1518 32.7305 45.1527 32.5002 44.9981 32.4994C44.8442 32.4994 44.8441 32.7305 44.8441 32.7305L44.3828 45" fill="#F5B41A"/>
</g>
<mask id="mask42_394_646" style="mask-type:luminance" maskUnits="userSpaceOnUse" x="0" y="0" width="90" height="90">
<path d="M90 45C90 20.1472 69.8528 0 45 0C20.1472 0 0 20.1472 0 45C0 69.8528 20.1472 90 45 90C69.8528 90 90 69.8528 90 45Z" fill="white"/>
</mask>
<g mask="url(#mask42_394_646)">
<path d="M47.8244 32.9174C47.8244 33.0053 47.7499 33.0901 47.6864 33.1622C47.5665 33.299 47.4021 33.4856 47.3775 33.8129C47.3649 33.9709 47.3877 34.1679 47.4131 34.3971C47.4856 35.0386 47.5841 35.9171 47.0543 36.9289C46.7112 37.5838 46.688 38.2201 46.663 38.8933C46.638 39.5791 46.6119 40.2887 46.2506 41.0771L46.0687 40.9936C46.4135 40.2417 46.4387 39.5523 46.4631 38.886C46.4888 38.1893 46.5128 37.5312 46.8771 36.8361C47.378 35.8786 47.2838 35.0355 47.2144 34.4196C47.1876 34.1806 47.1653 33.9744 47.178 33.7977C47.2075 33.4038 47.4053 33.179 47.5361 33.0301C47.5627 33 47.5966 32.9613 47.6136 32.9358C47.599 32.9354 47.5742 32.9384 47.5386 32.9527C47.384 33.0146 47.0836 33.2749 46.937 33.8588C46.8703 34.1229 46.8801 34.3469 46.8913 34.6053C46.9146 35.1233 46.9396 35.7117 46.3682 36.8271C45.9569 37.6307 45.9126 38.2158 45.8697 38.782C45.8323 39.2736 45.7966 39.7427 45.5403 40.3181L45.7166 44.9963L45.5165 45.0037L45.3536 40.6844C45.3499 40.6911 45.3459 40.6979 45.342 40.7049L45.1689 40.6047C45.2305 40.4984 45.2871 40.3893 45.3385 40.2777L45.0541 32.7343C45.0539 32.7104 45.0437 32.5997 44.9999 32.5995C44.9575 32.5995 44.9466 32.7105 44.9465 32.7311L44.4852 45.0039L44.2852 44.9964L44.7463 32.7269C44.7463 32.5712 44.826 32.3994 45.0005 32.3994C45.1752 32.4003 45.2541 32.5706 45.2541 32.729V32.7309L45.5199 39.785C45.6196 39.4281 45.6445 39.1027 45.67 38.7669C45.7143 38.1811 45.7603 37.5753 46.19 36.736C46.737 35.6679 46.7135 35.1073 46.6911 34.6144C46.6801 34.3511 46.6693 34.1026 46.7425 33.8101C46.9028 33.1727 47.2615 32.8119 47.527 32.7464C47.6683 32.7117 47.7442 32.768 47.777 32.8046C47.8108 32.8422 47.8244 32.8802 47.8244 32.9174Z" fill="#85361B"/>
</g>
<mask id="mask43_394_646" style="mask-type:luminance" maskUnits="userSpaceOnUse" x="0" y="0" width="90" height="90">
<path d="M90 45C90 20.1472 69.8528 0 45 0C20.1472 0 0 20.1472 0 45C0 69.8528 20.1472 90 45 90C69.8528 90 90 69.8528 90 45Z" fill="white"/>
</mask>
<g mask="url(#mask43_394_646)">
<path d="M47.5868 41.7804C48.8304 40.6236 48.7522 39.2262 49.9203 38.2503C51.0884 37.2759 51.1061 36.0813 51.3861 35.5276C51.6667 34.9747 52.2002 35.009 52.137 34.8281C52.0739 34.6462 51.476 34.7065 50.9707 35.3871C50.4663 36.0665 50.7396 36.6923 49.3254 37.8955C47.9112 39.0987 48.2472 40.0444 46.8972 41.0824M45.567 45.2344L49.8359 33.7223C49.8359 33.7223 49.9245 33.5089 49.7823 33.45C49.6399 33.3915 49.5519 33.605 49.5519 33.605L44.4297 44.7633" fill="#F5B41A"/>
</g>
<mask id="mask44_394_646" style="mask-type:luminance" maskUnits="userSpaceOnUse" x="0" y="0" width="90" height="90">
<path d="M90 45C90 20.1472 69.8528 0 45 0C20.1472 0 0 20.1472 0 45C0 69.8528 20.1472 90 45 90C69.8528 90 90 69.8528 90 45Z" fill="white"/>
</mask>
<g mask="url(#mask44_394_646)">
<path d="M52.2444 34.86C52.2444 34.9761 52.1169 35.0387 52.0116 35.0905C51.8485 35.1708 51.6249 35.2808 51.4764 35.5732C51.4052 35.7138 51.3504 35.9047 51.2866 36.1257C51.1079 36.7461 50.8626 37.5959 49.9857 38.3276C49.4176 38.8019 49.1524 39.3812 48.872 39.9943C48.5862 40.6184 48.291 41.2636 47.6561 41.854L47.5198 41.7077C48.1254 41.1441 48.4123 40.5172 48.6899 39.911C48.9802 39.2766 49.2543 38.6777 49.8573 38.174C50.6875 37.4815 50.9225 36.6658 51.0943 36.0702C51.1608 35.8396 51.2183 35.6404 51.2981 35.4828C51.4767 35.1309 51.7458 34.9985 51.9234 34.9111C51.9594 34.8933 52.0055 34.8707 52.031 34.8537C52.0178 34.8478 51.9939 34.8408 51.955 34.8403C51.7885 34.8382 51.4111 34.9636 51.0521 35.447C50.8895 35.6659 50.8131 35.876 50.7245 36.1191C50.5469 36.6069 50.3459 37.1597 49.3913 37.9722C48.7037 38.557 48.4387 39.0806 48.1822 39.587C47.9594 40.0272 47.7468 40.4472 47.2892 40.8808L45.662 45.2695L45.4743 45.2001L46.9768 41.1482C46.9708 41.153 46.9648 41.1576 46.9587 41.162L46.837 41.0034C46.9342 40.9287 47.0281 40.8496 47.1182 40.7664L49.743 33.6878C49.7521 33.6655 49.7848 33.5592 49.7449 33.5428C49.7055 33.5263 49.653 33.6251 49.6453 33.6437L44.5217 44.8054L44.3398 44.7219L49.462 33.5636C49.4634 33.5604 49.4901 33.4973 49.5389 33.4407C49.6195 33.3472 49.7224 33.3171 49.8213 33.358C49.9205 33.3991 49.9714 33.4929 49.9633 33.6158C49.9577 33.6905 49.9322 33.754 49.9294 33.7611L47.4746 40.3807C47.7039 40.089 47.8514 39.7976 48.0036 39.4969C48.269 38.9727 48.5434 38.4307 49.2615 37.8196C50.1758 37.0417 50.3674 36.5154 50.5367 36.051C50.6264 35.8035 50.7115 35.5702 50.8912 35.328C51.2834 34.7998 51.7531 34.6044 52.0237 34.6458C52.129 34.6621 52.2049 34.7169 52.2324 34.796C52.2407 34.8188 52.2444 34.8401 52.2444 34.86Z" fill="#85361B"/>
</g>
<mask id="mask45_394_646" style="mask-type:luminance" maskUnits="userSpaceOnUse" x="0" y="0" width="90" height="90">
<path d="M90 45C90 20.1472 69.8528 0 45 0C20.1472 0 0 20.1472 0 45C0 69.8528 20.1472 90 45 90C69.8528 90 90 69.8528 90 45Z" fill="white"/>
</mask>
<g mask="url(#mask45_394_646)">
<path d="M48.6243 43.0148C50.2162 42.4234 50.679 41.1014 52.1312 40.6479C53.5841 40.1935 54.0568 39.0967 54.5271 38.6932C54.9981 38.2889 55.4773 38.5252 55.4887 38.3338C55.5002 38.1412 54.9243 37.9689 54.1975 38.4038C53.4706 38.8381 53.4847 39.521 51.7172 40.0915C49.9495 40.662 49.8987 41.6647 48.2541 42.1069M45.4374 45.4336L53.7863 36.4318C53.7863 36.4318 53.9496 36.2684 53.8406 36.1594C53.7316 36.0513 53.569 36.2137 53.569 36.2137L44.5664 44.5633" fill="#F5B41A"/>
</g>
<mask id="mask46_394_646" style="mask-type:luminance" maskUnits="userSpaceOnUse" x="0" y="0" width="90" height="90">
<path d="M90 45C90 20.1472 69.8528 0 45 0C20.1472 0 0 20.1472 0 45C0 69.8528 20.1472 90 45 90C69.8528 90 90 69.8528 90 45Z" fill="white"/>
</mask>
<g mask="url(#mask46_394_646)">
<path d="M55.5867 38.3308C55.5867 38.3345 55.5867 38.3382 55.5865 38.3422C55.5764 38.5101 55.4063 38.521 55.2696 38.5298C55.0881 38.5416 54.8397 38.5577 54.5902 38.7717C54.4705 38.8741 54.3468 39.0295 54.2032 39.2091C53.8007 39.7135 53.2494 40.4046 52.1589 40.7459C51.4526 40.9662 50.9863 41.3999 50.4924 41.8585C49.9897 42.3256 49.4696 42.8089 48.657 43.111L48.5871 42.9232C49.3626 42.6352 49.8677 42.1659 50.3562 41.7119C50.867 41.2372 51.3494 40.7889 52.0989 40.5546C53.131 40.2319 53.6604 39.5685 54.0467 39.0842C54.1966 38.8966 54.3258 38.7344 54.4598 38.6195C54.76 38.3621 55.0588 38.3427 55.2566 38.3299C55.2965 38.3275 55.3478 38.3242 55.3777 38.3183C55.3679 38.3078 55.3486 38.2923 55.3133 38.2772C55.1606 38.2115 54.7639 38.1824 54.2467 38.4921C54.0123 38.6322 53.8613 38.7972 53.6861 38.9882C53.3355 39.3707 52.9383 39.8043 51.7456 40.1891C50.886 40.4665 50.4409 40.849 50.0102 41.2189C49.6364 41.5401 49.2792 41.8468 48.691 42.0723L45.5086 45.5039L45.3618 45.3678L48.2999 42.1997C48.2927 42.2016 48.2853 42.204 48.2777 42.2059L48.2259 42.0125C48.3446 41.9809 48.4618 41.9437 48.5771 41.9011L53.7105 36.366C53.7272 36.3491 53.7987 36.2624 53.7676 36.2326C53.7373 36.2024 53.6491 36.2757 53.6376 36.2869L44.6322 44.6392L44.4961 44.4924L53.4985 36.1429C53.6082 36.0333 53.7854 35.9683 53.9088 36.0908C53.9847 36.1667 53.9964 36.2732 53.9412 36.3838C53.9185 36.4283 53.8893 36.4692 53.8545 36.5051L49.0539 41.6813C49.3767 41.4994 49.624 41.287 49.8796 41.0674C50.3254 40.6847 50.7862 40.2887 51.6841 39.9991C52.8264 39.6303 53.2048 39.2175 53.5385 38.8534C53.7166 38.6591 53.8844 38.4756 54.1436 38.3206C54.7081 37.983 55.2172 37.9821 55.4508 38.1239C55.5379 38.1763 55.5867 38.2512 55.5867 38.3308Z" fill="#85361B"/>
</g>
<mask id="mask47_394_646" style="mask-type:luminance" maskUnits="userSpaceOnUse" x="0" y="0" width="90" height="90">
<path d="M90 45C90 20.1472 69.8528 0 45 0C20.1472 0 0 20.1472 0 45C0 69.8528 20.1472 90 45 90C69.8528 90 90 69.8528 90 45Z" fill="white"/>
</mask>
<g mask="url(#mask47_394_646)">
<path d="M45.2851 44.866L41.7773 37.202L44.7162 45.1016M44.2243 40.6069C44.1426 38.9775 43.2188 38.2558 43.4009 36.7704C43.0017 37.9447 43.9625 38.8552 43.9081 40.5901" fill="#85361B"/>
</g>
<mask id="mask48_394_646" style="mask-type:luminance" maskUnits="userSpaceOnUse" x="0" y="0" width="90" height="90">
<path d="M90 45C90 20.1472 69.8528 0 45 0C20.1472 0 0 20.1472 0 45C0 69.8528 20.1472 90 45 90C69.8528 90 90 69.8528 90 45Z" fill="white"/>
</mask>
<g mask="url(#mask48_394_646)">
<path d="M45.3145 44.9835L45.0068 36.5609L44.6992 44.9844M45.9658 40.6435C46.5133 39.1063 45.9359 38.0859 46.6726 36.7833C45.8552 37.7158 46.3938 38.9243 45.6794 40.5063" fill="#85361B"/>
</g>
<mask id="mask49_394_646" style="mask-type:luminance" maskUnits="userSpaceOnUse" x="0" y="0" width="90" height="90">
<path d="M90 45C90 20.1472 69.8528 0 45 0C20.1472 0 0 20.1472 0 45C0 69.8528 20.1472 90 45 90C69.8528 90 90 69.8528 90 45Z" fill="white"/>
</mask>
<g mask="url(#mask49_394_646)">
<path d="M45.2954 45.1055L48.2344 37.2059L44.7266 44.8699M47.5577 41.3436C48.6519 40.1334 48.5086 38.9697 49.6873 38.0478C48.5754 38.5971 48.6106 39.9199 47.3458 41.1081" fill="#85361B"/>
</g>
<mask id="mask50_394_646" style="mask-type:luminance" maskUnits="userSpaceOnUse" x="0" y="0" width="90" height="90">
<path d="M90 45C90 20.1472 69.8528 0 45 0C20.1472 0 0 20.1472 0 45C0 69.8528 20.1472 90 45 90C69.8528 90 90 69.8528 90 45Z" fill="white"/>
</mask>
<g mask="url(#mask50_394_646)">
<path d="M45.2318 45.2109L50.9702 39.0374L44.7969 44.7767M48.7616 42.6014C50.2355 41.9026 50.5492 40.7733 51.9907 40.3724C50.7532 40.4533 50.2794 41.6891 48.6561 42.3025" fill="#85361B"/>
</g>
<mask id="mask51_394_646" style="mask-type:luminance" maskUnits="userSpaceOnUse" x="0" y="0" width="90" height="90">
<path d="M90 45C90 20.1472 69.8528 0 45 0C20.1472 0 0 20.1472 0 45C0 69.8528 20.1472 90 45 90C69.8528 90 90 69.8528 90 45Z" fill="white"/>
</mask>
<g mask="url(#mask51_394_646)">
<path d="M50.0003 44.9999C50.0003 42.2384 47.7616 39.9997 45.0001 39.9997C42.2386 39.9997 40 42.2384 40 44.9999C40 47.7614 42.2386 50 45.0001 50C47.7616 50 50.0003 47.7614 50.0003 44.9999Z" fill="#F5B41A"/>
</g>
<mask id="mask52_394_646" style="mask-type:luminance" maskUnits="userSpaceOnUse" x="0" y="0" width="90" height="90">
<path d="M90 45C90 20.1472 69.8528 0 45 0C20.1472 0 0 20.1472 0 45C0 69.8528 20.1472 90 45 90C69.8528 90 90 69.8528 90 45Z" fill="white"/>
</mask>
<g mask="url(#mask52_394_646)">
<path d="M50.1335 45.0015C50.1335 47.8331 47.8299 50.1367 44.9985 50.1367C42.1669 50.1367 39.8633 47.8331 39.8633 45.0015C39.8633 42.1701 42.1669 39.8665 44.9985 39.8665C47.8299 39.8665 50.1335 42.1701 50.1335 45.0015ZM40.1333 45.0015C40.1333 47.6841 42.3158 49.8667 44.9985 49.8667C47.6811 49.8667 49.8637 47.6842 49.8637 45.0015C49.8637 42.3189 47.6811 40.1363 44.9985 40.1363C42.3159 40.1363 40.1333 42.3189 40.1333 45.0015Z" fill="#85361B"/>
</g>
<mask id="mask53_394_646" style="mask-type:luminance" maskUnits="userSpaceOnUse" x="0" y="0" width="90" height="90">
<path d="M90 45C90 20.1472 69.8528 0 45 0C20.1472 0 0 20.1472 0 45C0 69.8528 20.1472 90 45 90C69.8528 90 90 69.8528 90 45Z" fill="white"/>
</mask>
<g mask="url(#mask53_394_646)">
<path d="M44.0089 43.3012C44.0026 42.969 44.1556 42.6578 44.3068 42.6147C44.7305 42.9997 44.6936 43.6141 44.3858 43.999C44.1169 43.8303 44.0132 43.5596 44.0089 43.3012ZM43.9297 43.2958C43.9297 43.6368 44.0781 43.9638 44.3856 44.1562C44.732 43.7713 44.7691 42.9223 44.3462 42.3448C44.0773 42.5944 43.9297 42.9539 43.9297 43.2958Z" fill="#84371B"/>
</g>
<mask id="mask54_394_646" style="mask-type:luminance" maskUnits="userSpaceOnUse" x="0" y="0" width="90" height="90">
<path d="M90 45C90 20.1472 69.8528 0 45 0C20.1472 0 0 20.1472 0 45C0 69.8528 20.1472 90 45 90C69.8528 90 90 69.8528 90 45Z" fill="white"/>
</mask>
<g mask="url(#mask54_394_646)">
<path d="M43.6914 43.2308C43.6914 43.7301 43.8075 43.8461 43.9993 44.0772C44.1917 44.3075 44.153 44.4226 44.1917 44.4613C44.2304 44.5001 44.3456 44.4613 44.3068 44.3848C44.268 44.3075 44.1917 44.1537 43.9993 43.9234C43.8066 43.6923 43.8066 43.462 43.8066 43.2308C43.8066 42.5383 44.3841 42.1542 44.3454 42.0769C44.3066 42.0004 43.6914 42.4618 43.6914 43.2308Z" fill="#85361B"/>
</g>
<mask id="mask55_394_646" style="mask-type:luminance" maskUnits="userSpaceOnUse" x="0" y="0" width="90" height="90">
<path d="M90 45C90 20.1472 69.8528 0 45 0C20.1472 0 0 20.1472 0 45C0 69.8528 20.1472 90 45 90C69.8528 90 90 69.8528 90 45Z" fill="white"/>
</mask>
<g mask="url(#mask55_394_646)">
<path d="M43.9244 41.8482C43.1553 42.7323 43.0402 43.8477 43.6169 44.4638C43.8189 44.6141 44.0343 44.7106 44.2593 44.7503C44.6978 44.8276 45.1707 44.6906 45.656 44.3477C45.656 44.3864 45.6938 44.4638 45.7325 44.5016C45.1489 44.8073 44.5485 44.9156 43.9782 44.8152C43.8298 44.7888 43.683 44.7475 43.5406 44.6948C42.8478 43.8486 42.7704 42.6945 43.9244 41.8482Z" fill="#85361B"/>
</g>
<mask id="mask56_394_646" style="mask-type:luminance" maskUnits="userSpaceOnUse" x="0" y="0" width="90" height="90">
<path d="M90 45C90 20.1472 69.8528 0 45 0C20.1472 0 0 20.1472 0 45C0 69.8528 20.1472 90 45 90C69.8528 90 90 69.8528 90 45Z" fill="white"/>
</mask>
<g mask="url(#mask56_394_646)">
<path d="M44.3073 42.9605C44.3989 42.9606 44.4867 42.997 44.5515 43.0618C44.6163 43.1266 44.6527 43.2144 44.6527 43.306C44.6528 43.3515 44.6439 43.3965 44.6266 43.4385C44.6093 43.4805 44.5839 43.5186 44.5518 43.5508C44.5197 43.583 44.4816 43.6085 44.4396 43.6259C44.3977 43.6433 44.3527 43.6523 44.3073 43.6523C44.2618 43.6524 44.2167 43.6435 44.1746 43.6261C44.1326 43.6087 44.0944 43.5832 44.0622 43.5511C44.03 43.5189 44.0045 43.4807 43.9872 43.4386C43.9698 43.3966 43.9609 43.3515 43.9609 43.306C43.9609 43.2606 43.9699 43.2156 43.9873 43.1736C44.0048 43.1317 44.0303 43.0935 44.0624 43.0614C44.0946 43.0294 44.1328 43.0039 44.1748 42.9866C44.2168 42.9693 44.2618 42.9604 44.3073 42.9605Z" fill="#85361B"/>
</g>
<mask id="mask57_394_646" style="mask-type:luminance" maskUnits="userSpaceOnUse" x="0" y="0" width="90" height="90">
<path d="M90 45C90 20.1472 69.8528 0 45 0C20.1472 0 0 20.1472 0 45C0 69.8528 20.1472 90 45 90C69.8528 90 90 69.8528 90 45Z" fill="white"/>
</mask>
<g mask="url(#mask57_394_646)">
<path d="M44.5382 42.3088C45.0385 42.9628 44.9997 43.6166 44.7687 44.0017C44.5382 44.3859 44.4609 44.3859 44.4609 44.3093C44.4609 44.2328 44.5382 44.1555 44.6921 43.8478C44.8458 43.5402 44.8458 43.0779 44.5382 42.3088ZM45.6896 45.7664C45.7204 45.9308 45.8663 46.0476 46.0332 46.0476C46.2239 46.0476 46.376 45.8904 46.376 45.6998C46.376 45.5864 46.3224 45.4827 46.2302 45.4185C46.3303 45.2849 46.3409 45.1004 46.3427 45.0018V44.957C46.3409 44.8585 46.3303 44.674 46.2302 44.5404C46.2754 44.5088 46.3124 44.4667 46.3378 44.4178C46.3632 44.3688 46.3763 44.3143 46.376 44.2591C46.376 44.0684 46.2241 43.9102 46.0332 43.9102C45.8663 43.9102 45.7202 44.0271 45.6896 44.1915C45.7221 44.0992 45.8117 44.0403 45.9093 44.0403C45.9396 44.0402 45.9695 44.0462 45.9975 44.0577C46.0254 44.0693 46.0508 44.0863 46.0722 44.1076C46.0936 44.129 46.1106 44.1544 46.1222 44.1824C46.1337 44.2104 46.1397 44.2403 46.1396 44.2706C46.1393 44.3296 46.1165 44.3863 46.0758 44.4291C46.0351 44.4719 45.9797 44.4976 45.9207 44.5009C45.9954 44.5387 46.2187 44.6872 46.2302 44.979C46.2187 45.2716 45.9956 45.4201 45.9207 45.457C46.0428 45.4652 46.1396 45.5652 46.1396 45.6883C46.1397 45.7185 46.1337 45.7485 46.1222 45.7764C46.1106 45.8044 46.0936 45.8298 46.0722 45.8512C46.0508 45.8726 46.0254 45.8895 45.9975 45.9011C45.9695 45.9127 45.9396 45.9186 45.9093 45.9186C45.8117 45.9186 45.723 45.8587 45.6896 45.7664ZM46.7144 45.3904C46.7144 45.7752 47.0623 45.9272 47.2936 46.2734C47.2171 46.081 47.0651 45.93 46.9113 45.661C46.7575 45.391 46.9447 45.1617 46.9447 45.0078V45.0025C46.9447 44.8486 46.7575 44.6192 46.9113 44.3494C47.0651 44.0805 47.2171 43.9232 47.2936 43.7307C47.0625 44.077 46.7144 44.2351 46.7144 44.6201C46.7144 44.6967 46.7557 44.8486 46.8322 45.0025V45.0078C46.7557 45.1618 46.7144 45.3139 46.7144 45.3904Z" fill="#85361B"/>
</g>
<mask id="mask58_394_646" style="mask-type:luminance" maskUnits="userSpaceOnUse" x="0" y="0" width="90" height="90">
<path d="M90 45C90 20.1472 69.8528 0 45 0C20.1472 0 0 20.1472 0 45C0 69.8528 20.1472 90 45 90C69.8528 90 90 69.8528 90 45Z" fill="white"/>
</mask>
<g mask="url(#mask58_394_646)">
<path d="M47.1722 45.5196C47.1792 45.6715 47.2089 45.872 47.2961 46.1602C47.1423 45.4677 47.3744 45.3155 47.3744 45.0071V45.0018C47.3744 44.6941 47.1423 44.5412 47.2961 43.8487C47.065 44.6177 47.217 44.7706 47.217 45.0018V45.0071C47.217 45.1522 47.1608 45.2665 47.1722 45.5196Z" fill="#85361B"/>
</g>
<mask id="mask59_394_646" style="mask-type:luminance" maskUnits="userSpaceOnUse" x="0" y="0" width="90" height="90">
<path d="M90 45C90 20.1472 69.8528 0 45 0C20.1472 0 0 20.1472 0 45C0 69.8528 20.1472 90 45 90C69.8528 90 90 69.8528 90 45Z" fill="white"/>
</mask>
<g mask="url(#mask59_394_646)">
<path d="M47.2903 46.1258C47.2912 46.1706 47.2912 46.2189 47.2956 46.2716C47.373 45.4639 47.8362 45.8524 47.8362 45.006V45.0008C47.8362 44.1544 47.373 44.5376 47.2956 43.7299C47.2191 44.5755 47.7176 44.3082 47.7176 45.0008V45.006C47.7176 45.6555 47.2825 45.456 47.2903 46.1258ZM48.5393 44.3082C48.4484 44.3082 48.3584 44.326 48.2745 44.3608C48.1905 44.3955 48.1142 44.4465 48.05 44.5108C47.9857 44.575 47.9348 44.6513 47.9 44.7352C47.8653 44.8192 47.8474 44.9092 47.8474 45.0001C47.8474 45.3823 48.1569 45.6925 48.5393 45.6925C48.2192 45.6159 47.9926 45.3296 47.9926 45.0001C47.9926 44.6705 48.2194 44.3838 48.5393 44.3082ZM43.9242 48.1094C43.1551 47.2244 43.04 46.11 43.6166 45.4938C43.8187 45.3434 44.034 45.2469 44.259 45.2072C44.6975 45.1299 45.1705 45.2662 45.6558 45.6098C45.6558 45.5711 45.6936 45.4937 45.7323 45.4552C45.1487 45.1501 44.5483 45.0421 43.978 45.1422C43.8288 45.1692 43.6824 45.2095 43.5404 45.2626C42.8479 46.1089 42.7704 47.2631 43.9245 48.1084L43.9242 48.1094Z" fill="#85361B"/>
</g>
<mask id="mask60_394_646" style="mask-type:luminance" maskUnits="userSpaceOnUse" x="0" y="0" width="90" height="90">
<path d="M90 45C90 20.1472 69.8528 0 45 0C20.1472 0 0 20.1472 0 45C0 69.8528 20.1472 90 45 90C69.8528 90 90 69.8528 90 45Z" fill="white"/>
</mask>
<g mask="url(#mask60_394_646)">
<path d="M43.6914 46.7252C43.6914 46.2249 43.8075 46.1101 43.9993 45.8788C44.1917 45.6477 44.153 45.5324 44.1917 45.4946C44.2304 45.4559 44.3456 45.4946 44.3068 45.5712C44.268 45.6477 44.1917 45.8023 43.9993 46.0327C43.8066 46.2637 43.8066 46.4942 43.8066 46.7252C43.8066 47.4169 44.3841 47.8019 44.3454 47.8783C44.3066 47.9557 43.6914 47.4943 43.6914 46.7252Z" fill="#85361B"/>
</g>
<mask id="mask61_394_646" style="mask-type:luminance" maskUnits="userSpaceOnUse" x="0" y="0" width="90" height="90">
<path d="M90 45C90 20.1472 69.8528 0 45 0C20.1472 0 0 20.1472 0 45C0 69.8528 20.1472 90 45 90C69.8528 90 90 69.8528 90 45Z" fill="white"/>
</mask>
<g mask="url(#mask61_394_646)">
<path d="M44.0089 46.754C44.0026 46.4217 44.1556 46.1115 44.3068 46.0676C44.7305 46.4524 44.6936 47.0669 44.3858 47.452C44.1169 47.2832 44.0132 47.0125 44.0089 46.754ZM43.9297 46.7489C43.9297 47.0898 44.0781 47.4167 44.3856 47.6094C44.732 47.2244 44.7691 46.3753 44.3462 45.7979C44.0773 46.0483 43.9297 46.4069 43.9297 46.7489Z" fill="#84371B"/>
</g>
<mask id="mask62_394_646" style="mask-type:luminance" maskUnits="userSpaceOnUse" x="0" y="0" width="90" height="90">
<path d="M90 45C90 20.1472 69.8528 0 45 0C20.1472 0 0 20.1472 0 45C0 69.8528 20.1472 90 45 90C69.8528 90 90 69.8528 90 45Z" fill="white"/>
</mask>
<g mask="url(#mask62_394_646)">
<path d="M44.3073 46.3552C44.3989 46.3552 44.4867 46.3916 44.5515 46.4564C44.6163 46.5211 44.6527 46.609 44.6527 46.7006C44.6528 46.746 44.6439 46.791 44.6266 46.833C44.6093 46.875 44.5839 46.9132 44.5518 46.9453C44.5197 46.9775 44.4816 47.003 44.4396 47.0204C44.3977 47.0379 44.3527 47.0469 44.3073 47.0469C44.2618 47.0469 44.2167 47.038 44.1746 47.0207C44.1326 47.0033 44.0944 46.9778 44.0622 46.9456C44.03 46.9134 44.0045 46.8752 43.9872 46.8332C43.9698 46.7911 43.9609 46.7461 43.9609 46.7006C43.961 46.6551 43.97 46.6102 43.9874 46.5682C44.0048 46.5263 44.0303 46.4882 44.0625 46.4561C44.0947 46.424 44.1328 46.3986 44.1748 46.3813C44.2168 46.364 44.2618 46.3551 44.3073 46.3552Z" fill="#85361B"/>
</g>
<mask id="mask63_394_646" style="mask-type:luminance" maskUnits="userSpaceOnUse" x="0" y="0" width="90" height="90">
<path d="M90 45C90 20.1472 69.8528 0 45 0C20.1472 0 0 20.1472 0 45C0 69.8528 20.1472 90 45 90C69.8528 90 90 69.8528 90 45Z" fill="white"/>
</mask>
<g mask="url(#mask63_394_646)">
<path d="M44.5382 47.6484C45.0385 46.9943 44.9997 46.3406 44.7687 45.9555C44.5382 45.5713 44.4609 45.5713 44.4609 45.6479C44.4609 45.7244 44.5382 45.8016 44.6921 46.1094C44.8458 46.417 44.8458 46.8794 44.5382 47.6484Z" fill="#85361B"/>
</g>
</g>
</g>
<defs>
<clipPath id="clip0_394_646">
<rect width="90" height="90" fill="white" transform="matrix(0 -1 1 0 0 90)"/>
</clipPath>
</defs>
</svg>
