<svg width="90" height="90" viewBox="0 0 90 90" fill="none" xmlns="http://www.w3.org/2000/svg">
<g clip-path="url(#clip0_394_1277)">
<path d="M7.03186 47.2908C5.83443 39.7517 5.47014 30.6307 8.90628 23.5661C12.3424 16.5015 20.5682 8.8047 27.6487 4.9034C34.7292 1.0022 43.2676 -0.526799 51.3894 0.158501C59.5112 0.843801 70.4963 3.5326 76.3795 9.0155C82.2627 14.4984 84.5539 24.1989 86.6886 33.056C88.8232 41.913 91.3221 53.8807 89.1874 62.1579C87.0528 70.435 80.4928 78.0793 73.8807 82.7186C67.2686 87.358 56.4915 89.8358 49.515 89.9939C42.5385 90.1521 37.5927 87.1996 32.022 83.6673C26.4513 80.1351 20.2559 74.863 16.0909 68.8003C11.9259 62.7375 8.22929 54.8298 7.03186 47.2908Z" fill="#FF59A1"/>
<path d="M37.8434 56.7812C29.6607 56.7812 23.0273 49.6287 23.0273 40.8054C23.0273 36.5684 24.5883 32.5048 27.3669 29.5088C30.1454 26.5127 33.9139 24.8294 37.8434 24.8294C46.026 24.8294 52.6594 31.9822 52.6594 40.8054C52.6594 49.6287 46.026 56.7812 37.8434 56.7812Z" fill="#2FF3C1"/>
<path d="M37.8403 50.4688C32.5157 50.4688 28.1992 46.1436 28.1992 40.8083C28.1992 38.2462 29.215 35.7889 31.023 33.9772C32.8311 32.1655 35.2833 31.1478 37.8403 31.1478C43.1649 31.1478 47.4813 35.473 47.4813 40.8083C47.4813 46.1436 43.1649 50.4688 37.8403 50.4688Z" fill="black"/>
<path d="M34.5152 40.9609C33.0117 40.9609 31.793 39.6161 31.793 37.9571C31.793 37.1604 32.0798 36.3964 32.5903 35.8331C33.1008 35.2698 33.7932 34.9533 34.5152 34.9533C36.0186 34.9533 37.2373 36.2981 37.2373 37.9571C37.2373 39.6161 36.0186 40.9609 34.5152 40.9609Z" fill="white"/>
<path d="M65.4531 35.9244C66.1031 35.9858 68.5283 35.5278 69.3527 36.2929C70.1771 37.0581 70.6121 39.4663 70.3996 40.5152C70.1871 41.5642 68.8277 42.1993 68.0774 42.5865C67.3271 42.9738 66.2611 42.7967 65.8978 42.8387" fill="white"/>
<path d="M64.4531 28.9244C65.1031 28.9858 67.5283 28.5278 68.3527 29.2929C69.1771 30.0581 69.6121 32.4663 69.3996 33.5152C69.1871 34.5642 67.8277 35.1993 67.0774 35.5865C66.3271 35.9738 65.2611 35.7967 64.8978 35.8387" fill="white"/>
<path d="M64.4531 48.3676C65.1523 48.4193 67.6485 49.1684 68.6481 48.6781C69.6477 48.1878 70.504 46.3076 70.4508 45.4259C70.3975 44.5442 69.0605 43.8183 68.3285 43.3879C67.5965 42.9576 66.4372 42.9344 66.0589 42.8438" fill="white"/>
<path d="M59.6072 57.4141C60.5646 55.3579 64.5958 49.6641 65.3516 45.0774C66.1075 40.4907 64.6967 33.637 64.1424 29.8938C63.588 26.1507 63.0839 24.5164 62.0257 22.6185C60.9675 20.7206 58.4984 19.1918 57.793 18.5065" stroke="#C9467E" stroke-width="2" stroke-miterlimit="10" stroke-linecap="round" stroke-linejoin="round"/>
<path d="M30.1609 80.1085C28.8479 77.8714 23.3711 74.5353 20.0325 69.7471C16.6938 64.9589 11.8547 58.1299 10.1291 51.3793C8.40353 44.6287 9.15378 34.5813 9.67896 29.2437C10.2041 23.906 13.4302 21.7082 13.2802 19.3533C13.1301 16.9985 10.1666 15.4286 8.77865 15.1146C7.39069 14.8006 5.81515 16.0565 4.95236 17.4694C4.08957 18.8823 2.88917 21.6689 3.60191 23.592C4.31465 25.5152 9.04124 28.341 9.22881 29.0082C9.41637 29.6754 5.89018 27.556 4.72729 27.5953C3.56439 27.6345 3.03922 28.2232 2.25145 29.2437C1.46368 30.2641 -0.0368222 32.305 0.000690342 33.7179C0.0382031 35.1308 0.97602 36.74 2.47653 37.7211C3.97703 38.7023 8.6286 39.2518 9.00373 39.605C9.37886 39.9583 6.00272 38.9378 4.72729 39.8405C3.45186 40.7432 1.87632 43.3728 1.35115 45.0212C0.825969 46.6696 1.16358 48.5535 1.57622 49.7309C1.98886 50.9083 2.51404 51.4578 3.82698 52.0857C5.13993 52.7137 9.04124 52.9492 9.45388 53.4987C9.86652 54.0481 7.01556 54.2051 6.30282 55.3825C5.59008 56.56 5.10241 58.9541 5.17744 60.5632C5.25246 62.1724 5.51505 64.2525 6.75297 65.0374C7.99089 65.8224 11.217 65.6654 12.6049 65.2729C13.9929 64.8804 15.1558 62.0154 15.0808 62.6826C15.0058 63.3498 12.7925 67.6278 12.1548 69.2762C11.5171 70.9246 10.9919 71.3563 11.2545 72.573C11.5171 73.7896 12.4924 75.6735 13.7303 76.5762C14.9682 77.4789 17.0314 78.3031 18.682 77.9891C20.3326 77.6751 23.3336 74.5746 23.6337 74.6923C23.9338 74.8101 21.0828 77.3219 20.4826 78.6956C19.8824 80.0692 19.4698 81.8746 20.0325 82.9343C20.5951 83.994 22.5458 85.0144 23.8587 85.0537C25.1717 85.0929 26.8598 83.994 27.9101 83.1698C28.9605 82.3456 31.4738 82.3456 30.1609 80.1085Z" fill="#FF59A1"/>
</g>
<defs>
<clipPath id="clip0_394_1277">
<rect width="90" height="90" fill="white" transform="matrix(0 -1 1 0 0 90)"/>
</clipPath>
</defs>
</svg>
