<svg width="90" height="90" viewBox="0 0 90 90" fill="none" xmlns="http://www.w3.org/2000/svg">
<g clip-path="url(#clip0_394_2754)">
<mask id="mask0_394_2754" style="mask-type:luminance" maskUnits="userSpaceOnUse" x="0" y="0" width="90" height="90">
<path d="M0 0L0 90H90V0H0Z" fill="white"/>
</mask>
<g mask="url(#mask0_394_2754)">
<path d="M90 45C90 20.1472 69.8528 0 45 0C20.1472 0 0 20.1472 0 45C0 69.8528 20.1472 90 45 90C69.8528 90 90 69.8528 90 45Z" fill="#784421"/>
<path fill-rule="evenodd" clip-rule="evenodd" d="M4.54297 31.8144C4.54297 31.8144 9.96271 34.3118 10.6202 36.8615C10.8213 37.6414 9.73932 39.1113 9.73932 39.1113C9.73932 39.1113 16.8504 38.4764 19.0253 40.7451C19.6527 41.3995 20.0205 42.4512 20.2334 43.6163L15.4458 41.1038C15.4458 41.1038 16.1272 47.3177 14.2708 49.4081C13.1484 50.6719 9.36913 50.7065 9.36913 50.7065C9.36913 50.7065 16.413 54.8849 15.7719 58.0749C15.2292 60.7754 8.3627 61.7344 8.3627 61.7344C8.3627 61.7344 11.8225 64.4267 11.7054 66.3126C11.5701 68.4902 7.2213 71.081 7.2213 71.081C7.2213 71.081 14.75 71.6523 16.2726 74.4947C17.6336 77.0352 14.3308 82.9202 14.3308 82.9202C14.3308 82.9202 19.8965 80.7688 22.1846 82.0719C22.8844 82.4705 23.1866 84.2704 23.1866 84.2704C23.1866 84.2704 27.6811 78.7237 30.8238 78.7419C34.0249 78.7604 38.5377 84.4621 38.5377 84.4621C38.5377 84.4621 38.6084 79.1235 40.4861 77.7377C41.2383 77.1825 42.3663 76.9634 43.5897 76.9301C43.0601 77.8355 42.6202 78.4571 42.6202 78.4571C42.6202 78.4571 46.9538 77.7921 48.244 79.1727C49.7337 80.7667 48.629 85.7065 48.629 85.7065C48.629 85.7065 54.2156 80.6279 57.3273 81.4737C60.1085 82.2296 62.1171 88.6719 62.1171 88.6719C62.1171 88.6719 64.3761 83.1493 66.8948 82.3815C67.6651 82.1466 69.1809 83.1632 69.1809 83.1632C69.1809 83.1632 68.2369 76.0865 70.4088 73.8149C72.6209 71.5012 79.865 72.1386 79.865 72.1386C79.865 72.1386 76.0337 68.4198 76.3163 66.1033C76.7085 62.888 83.1107 59.1563 83.1107 59.1563C83.1107 59.1563 76.2943 57.9806 74.9435 55.2881C74.1033 53.6132 76.0524 49.7772 76.0524 49.7772C76.0524 49.7772 71.4684 51.8688 68.7479 51.3797C69.9927 48.5646 71.6518 45.6209 73.5685 44.2757C75.5936 42.8544 80.9199 43.2532 80.9199 43.2532C80.9199 43.2532 78.6597 40.7423 80.553 40.0615L87.6851 37.4972C87.6851 37.4972 82.6458 33.7984 82.3604 31.0173C82.1879 29.3359 84.717 26.5277 84.717 26.5277C84.717 26.5277 76.8762 28.8934 74.9589 26.2644C73.3359 24.0389 77.2715 18.3314 77.2715 18.3314C77.2715 18.3314 72.9483 19.0602 71.6378 17.699C70.1246 16.1272 71.1557 11.1717 71.1557 11.1717C71.1557 11.1717 65.6453 16.333 62.5214 15.5335C59.7293 14.8189 57.6253 8.40689 57.6253 8.40689C57.6253 8.40689 55.4482 13.9627 52.9412 14.7678C52.1744 15.0141 50.6441 14.0197 50.6441 14.0197C50.6441 14.0197 51.6924 21.0815 49.5545 23.385C49.4348 23.514 49.298 23.6331 49.1496 23.7453C46.1198 22.2855 42.6729 20.2421 41.2815 17.9909C39.9809 15.8864 40.6894 10.5927 40.6894 10.5927C40.6894 10.5927 38.0508 12.7022 37.4816 10.7723L35.3382 3.50249C35.3382 3.50249 31.3517 8.31789 28.5587 8.44049C26.8701 8.51469 24.214 5.8261 24.214 5.8261C24.214 5.8261 26.1185 13.7911 23.3821 15.5517C21.0657 17.0421 15.5967 12.7808 15.5967 12.7808C15.5967 12.7808 16.0731 17.1388 14.6376 18.3677C12.9803 19.7866 8.09277 18.468 8.09277 18.468C8.09277 18.468 12.9237 24.2706 11.9433 27.3425C11.0671 30.0882 4.54297 31.8144 4.54297 31.8144ZM41.3895 41.274C41.3895 40.6002 41.4799 39.9781 41.7013 39.4704C43.2493 40.0644 44.7276 40.8856 45.2957 41.9774C46.1607 43.6396 44.2689 47.5043 44.2689 47.5043C44.2689 47.5043 48.7888 45.3607 51.5195 45.7894C50.2473 48.5075 48.5865 51.293 46.7082 52.5701C45.5868 53.3326 43.4987 53.5275 41.8253 53.5534C41.5077 49.3915 44.9443 42.9877 44.9443 42.9877C44.9443 42.9877 43.6784 43.6278 41.8357 44.3996C41.5887 43.3962 41.3895 42.2811 41.3895 41.274ZM58.6857 47.5831C59.7633 47.7353 60.7863 48.4743 61.7138 49.4946C61.6994 49.4929 61.6847 49.4935 61.6703 49.4913C60.6018 49.336 59.5947 48.5997 58.6857 47.5831Z" fill="#00D400"/>
<path fill-rule="evenodd" clip-rule="evenodd" d="M22.1995 34.4395C18.0955 38.1637 15.3202 42.793 22.9384 49.4688C26.9856 45.1069 27.4045 39.741 22.1995 34.4395ZM22.2549 36.0113L22.3415 38.4475L23.5293 37.4529L22.4246 38.7064L22.4697 41.5769L24.7166 39.9429L22.5445 41.8391L22.5832 44.2215L24.7704 43.2851L22.582 44.6019L22.6621 48.3459L22.2772 44.1839L19.5511 41.2551L22.3161 43.812L22.1074 40.3882L19.966 38.4725L22.1485 40.0783C22.0886 38.5998 22.0882 38.6115 22.2549 36.0113Z" fill="#00F300" stroke="#007600" stroke-width="0.119882" stroke-linecap="round" stroke-linejoin="bevel"/>
<path fill-rule="evenodd" clip-rule="evenodd" d="M13.7122 38.434C11.9009 43.6715 11.6898 49.0647 21.5779 51.2617C23.0331 45.4921 20.8238 40.5844 13.7122 38.434ZM14.5156 39.786L15.7616 41.8813L16.3258 40.4384L15.9588 42.0685L17.3768 44.5646L18.563 42.0524L17.5683 44.7586L18.7464 46.8297L20.2153 44.9581L18.9281 47.1641L20.7964 50.4097L18.46 46.9438L14.6623 45.684L18.3155 46.5988L16.4883 43.696L13.6899 43.0441L16.3754 43.4043C15.6128 42.1362 15.6181 42.1468 14.5156 39.786Z" fill="#008800" stroke="#000F00" stroke-width="0.119882" stroke-linecap="round" stroke-linejoin="bevel"/>
<path fill-rule="evenodd" clip-rule="evenodd" d="M5.08594 59.566C9.66942 62.6812 14.8207 64.2924 19.5218 55.3201C14.3318 52.4098 9.01761 53.262 5.08594 59.566ZM6.60079 59.1433L8.94862 58.4872L7.70292 57.566L9.1808 58.3456L11.9604 57.6281L9.84477 55.8274L12.1977 57.4939L14.5045 56.897L13.0809 54.9906L14.8747 56.8089L18.4953 55.8522L14.5399 57.2033L12.3328 60.5406L14.1691 57.2528L10.8901 58.2592L9.53055 60.7905L10.5791 58.292C9.1559 58.6973 9.16748 58.6949 6.60079 59.1433Z" fill="#00D900" stroke="#001400" stroke-width="0.119882" stroke-linecap="round" stroke-linejoin="bevel"/>
<path fill-rule="evenodd" clip-rule="evenodd" d="M4.44141 53.3607C8.05168 57.5653 12.603 60.4665 19.4851 53.0342C15.2359 48.8689 9.88367 48.303 4.44141 53.3607ZM6.01409 53.3484L8.45178 53.3286L7.49005 52.114L8.71288 53.2526L11.5834 53.2863L10.0117 50.9954L11.8475 53.2188L14.2301 53.2453L13.3541 51.0333L14.6104 53.2571L18.3552 53.2796L14.1842 53.5503L11.1818 56.195L13.8134 53.5011L10.3853 53.6159L8.41166 55.704L10.0765 53.5662C8.59696 53.5856 8.60876 53.5863 6.01409 53.3484Z" fill="#00C400" stroke="#001100" stroke-width="0.119882" stroke-linecap="round" stroke-linejoin="bevel"/>
<path fill-rule="evenodd" clip-rule="evenodd" d="M17.2155 71.5273C22.1825 69.0693 26.1193 65.3771 20.6204 56.8703C15.5335 59.9572 13.6612 65.0031 17.2155 71.5273ZM17.5926 70.0005L18.1764 67.6336L16.7616 68.265L18.1674 67.3619L18.9101 64.5889L16.3016 65.545L18.91 64.3162L19.5251 62.0143L17.1651 62.3158L19.6305 61.6487L20.5788 58.0258L19.8092 62.1341L21.629 65.6975L19.6699 62.4813L18.9331 65.8312L20.468 68.2601L18.8086 66.1181C18.4613 67.5565 18.465 67.5453 17.5926 70.0005Z" fill="#009D00" stroke="#003300" stroke-width="0.119882" stroke-linecap="round" stroke-linejoin="bevel"/>
<path fill-rule="evenodd" clip-rule="evenodd" d="M24.577 70.7383C28.2287 66.5696 30.4569 61.6537 22.126 55.8919C18.6036 60.6876 18.8003 66.0661 24.577 70.7383ZM24.3424 69.1831L23.978 66.7727L22.9116 67.8966L23.8658 66.525L23.4932 63.6785L21.4476 65.5584L23.389 63.4266L23.0783 61.0642L21.0123 62.2443L23.0361 60.6861L22.5288 56.9757L23.3866 61.0665L26.4294 63.6647L23.3904 61.4406L23.9889 64.8179L26.3352 66.4765L23.9834 65.1306C24.2119 66.5927 24.2109 66.5809 24.3424 69.1831Z" fill="#000A00" stroke="#00BB00" stroke-width="0.119882" stroke-linecap="round" stroke-linejoin="bevel"/>
<path fill-rule="evenodd" clip-rule="evenodd" d="M37.3657 63.0553C37.3674 57.5134 35.8058 52.3468 25.7422 53.4993C26.2509 59.4278 29.9418 63.345 37.3657 63.0553ZM36.1649 62.0397L34.303 60.4661L34.2409 62.0142L34.0554 60.3536L31.9 58.4574L31.5992 61.2193L31.6557 58.3365L29.8658 56.7637L29.0887 59.0124L29.585 56.507L26.7592 54.0495L30.0993 56.5623L34.1001 56.5129L30.3486 56.8412L33.0235 58.9882L35.8814 58.6906L33.2254 59.227C34.3603 60.1766 34.3518 60.1684 36.1649 62.0397Z" fill="#008700" stroke="#00B100" stroke-width="0.119882" stroke-linecap="round" stroke-linejoin="bevel"/>
<path fill-rule="evenodd" clip-rule="evenodd" d="M41.3722 53.5316C38.3728 48.8715 34.2624 45.3735 26.4258 51.7915C30.0636 56.5003 35.2876 57.795 41.3722 53.5316ZM39.8127 53.328L37.3953 53.0133L38.1814 54.3483L37.1263 53.0527L34.2875 52.6256L35.5301 55.1104L34.0166 52.6563L31.6602 52.3032L32.2244 54.6145L31.285 52.2394L27.5787 51.7034L31.7474 52.0074L35.0843 49.7995L32.108 52.1069L35.5194 52.4635L37.7609 50.6658L35.8185 52.555C37.2868 52.7388 37.2752 52.7364 39.8127 53.328Z" fill="#00B800" stroke="#00DC00" stroke-width="0.119882" stroke-linecap="round" stroke-linejoin="bevel"/>
<path fill-rule="evenodd" clip-rule="evenodd" d="M37.9237 42.9084C32.5844 41.4237 27.1884 41.5456 25.6055 51.5505C31.4539 52.647 36.2159 50.1391 37.9237 42.9084ZM36.6237 43.7937L34.6093 45.1666L36.0843 45.6407L34.4346 45.375L32.0307 46.9442L34.6114 47.9732L31.8489 47.1473L29.8544 48.451L31.8131 49.8016L29.5319 48.6529L26.4077 50.7178L29.7228 48.1721L30.746 44.304L30.0583 48.0066L32.8428 46.0038L33.3209 43.1706L33.127 45.8732C34.3457 45.0338 34.3355 45.0398 36.6237 43.7937Z" fill="#00A900" stroke="#004400" stroke-width="0.119882" stroke-linecap="round" stroke-linejoin="bevel"/>
<path fill-rule="evenodd" clip-rule="evenodd" d="M31.5644 66.7109C33.2969 60.9988 33.2672 55.1739 22.3173 53.144C21.0011 59.4177 23.6617 64.6357 31.5644 66.7109ZM30.6179 65.28L29.15 63.0627L28.6013 64.6386L28.9247 62.8676L27.2488 60.2237L26.0697 62.9745L27.0293 60.021L25.637 57.8274L24.1169 59.8969L25.4216 57.473L23.2156 54.0362L25.9456 57.6945L30.1711 58.9229L26.1208 58.0617L28.2651 61.1301L31.3654 61.7371L28.403 61.4408C29.3007 62.7825 29.2945 62.7714 30.6179 65.28Z" fill="#004200" stroke="#00BE00" stroke-width="0.130477" stroke-linecap="round" stroke-linejoin="bevel"/>
<path fill-rule="evenodd" clip-rule="evenodd" d="M37.4205 48.2789C32.4493 44.9751 26.8625 43.3263 21.7656 53.2279C27.3946 56.2948 33.1577 55.2494 37.4205 48.2789ZM35.7777 48.7734L33.2316 49.5406L34.5827 50.5199L32.9799 49.7002L29.9655 50.5439L32.2602 52.4651L29.7081 50.6957L27.2065 51.3974L28.7506 53.449L26.8051 51.5016L22.8786 52.6246L27.1681 51.0636L29.5612 47.3707L27.5702 51.0015L31.1261 49.8315L32.6001 47.0374L31.4634 49.789C33.0067 49.3157 32.9942 49.3184 35.7777 48.7734Z" fill="#004600" stroke="#004200" stroke-width="0.130477" stroke-linecap="round" stroke-linejoin="bevel"/>
<path fill-rule="evenodd" clip-rule="evenodd" d="M9.89844 44.7952C11.2317 49.6553 13.804 54.0775 22.085 52.3674C20.2246 47.2038 16.1424 44.0252 9.89844 44.7952ZM11.1643 45.6024L13.1267 46.8529L12.8067 45.491L13.3644 46.9343L15.654 48.4474L15.2447 46.0045L15.891 48.5364L17.7919 49.7913L17.9113 47.7653L18.0926 49.9969L21.0876 51.9557L17.6419 49.9842L14.2512 50.3055L17.3627 49.7569L14.5707 48.06L12.212 48.5197L14.3415 47.8646C13.1477 47.1108 13.1569 47.1174 11.1643 45.6024Z" fill="#007200" stroke="#003300" stroke-width="0.104685" stroke-linecap="round" stroke-linejoin="bevel"/>
<path fill-rule="evenodd" clip-rule="evenodd" d="M20.1301 40.8636C17.831 44.7206 16.5782 49.1032 22.7893 53.3672C24.9579 48.9842 24.4796 44.3993 20.1301 40.8636ZM20.3931 42.1751L20.8013 44.2078L21.4786 43.1614L20.8956 44.4107L21.3372 46.8158L22.6539 45.0447L21.4263 47.023L21.7938 49.0189L23.169 47.8448L21.8473 49.339L22.4381 52.4723L21.5772 49.0415L19.2775 47.0618L21.5509 48.7219L20.9173 45.8807L19.1658 44.6492L20.9013 45.6128C20.6485 44.3805 20.6499 44.3905 20.3931 42.1751Z" fill="#00FB00" stroke="#00EC00" stroke-width="0.0932719" stroke-linecap="round" stroke-linejoin="bevel"/>
<path fill-rule="evenodd" clip-rule="evenodd" d="M12.8957 65.9961C18.7962 65.0947 24.0383 62.5548 21.1454 51.8007C14.9178 53.32 11.3583 57.9714 12.8957 65.9961ZM13.7782 64.5249L15.1452 62.244L13.4868 62.4289L15.224 61.9565L16.8861 59.304L13.8958 59.4271L16.9743 59.0185L18.3525 56.816L15.8298 56.3376L18.5794 56.4688L20.728 52.9959L18.6056 57.0371L19.3205 61.3791L18.3499 57.3536L16.5069 60.6119L17.2969 63.6707L16.286 60.8704C15.463 62.2591 15.4704 62.2487 13.7782 64.5249Z" fill="#007000" stroke="#005600" stroke-width="0.130477" stroke-linecap="round" stroke-linejoin="bevel"/>
<path fill-rule="evenodd" clip-rule="evenodd" d="M31.3621 39.4116C25.8256 39.6544 20.733 41.4424 22.3282 51.4453C28.2285 50.6756 31.979 46.8155 31.3621 39.4116ZM30.4005 40.6561L28.9106 42.5856L30.4599 42.5793L28.8092 42.8379L27.0098 45.0748L29.7823 45.2535L26.8999 45.3242L25.4075 47.1817L27.6883 47.8589L25.1634 47.4736L22.8329 50.405L25.196 46.9574L24.9702 42.9626L25.4637 46.696L27.4906 43.929L27.0672 41.0871L27.7203 43.7168C28.6189 42.5411 28.611 42.5499 30.4005 40.6561Z" fill="#009900" stroke="#002900" stroke-width="0.119882" stroke-linecap="round" stroke-linejoin="bevel"/>
<path fill-rule="evenodd" clip-rule="evenodd" d="M30.0109 62.0625C30.3673 57.5093 29.6354 53.152 22.7113 53.3744C22.6775 58.2819 24.9388 61.766 30.0109 62.0625ZM29.2586 61.1416L28.092 59.7147L27.9506 60.9821L27.9307 59.6044L26.5851 57.8913L26.2033 60.1389L26.4265 57.7744L25.309 56.3533L24.6358 58.1449L25.1343 56.1221L23.3683 53.8996L25.4808 56.2046L28.2074 56.4521L25.6326 56.4518L27.3158 58.4083L29.2803 58.3695L27.438 58.6191C28.1496 59.481 28.1444 59.4736 29.2586 61.1416Z" fill="#000C00" stroke="#007200" stroke-width="0.0900223" stroke-linecap="round" stroke-linejoin="bevel"/>
<path fill-rule="evenodd" clip-rule="evenodd" d="M32.8157 52.791C29.6604 49.9752 26.0392 48.0711 22.3203 53.2981C25.9176 56.0749 29.753 56.3623 32.8157 52.791ZM31.7152 52.8291L30.0096 52.8885L30.8642 53.7035L29.8379 52.9456L27.821 52.9764L29.2631 54.5181L27.6459 53.0278L25.9721 53.0544L26.9148 54.555L25.7038 53.0535L23.0757 53.1085L25.9589 52.8444L27.6702 50.974L26.2261 52.8711L28.6117 52.7279L29.6847 51.2586L28.8355 52.7561C29.8697 52.715 29.8613 52.7147 31.7152 52.8291Z" fill="#00E900" stroke="#00D900" stroke-width="0.0833587" stroke-linecap="round" stroke-linejoin="bevel"/>
<path fill-rule="evenodd" clip-rule="evenodd" d="M30.0794 58.3028C29.4038 54.7217 27.931 51.5184 22.6445 53.1344C23.6425 56.9212 26.1111 59.1328 30.0794 58.3028ZM29.3078 57.7506L28.1116 56.895L28.2671 57.9007L27.9644 56.8437L26.5706 55.805L26.7455 57.6157L26.424 55.7481L25.2668 54.8867L25.1222 56.4071L25.084 54.7452L23.2601 53.4018L25.3681 54.7364L27.5197 54.3581L25.5366 54.8951L27.2413 56.0508L28.7461 55.611L27.3793 56.1876C28.1072 56.7029 28.1017 56.6983 29.3078 57.7506Z" fill="#00A000" stroke="#008F00" stroke-width="0.0718333" stroke-linecap="round" stroke-linejoin="bevel"/>
<path fill-rule="evenodd" clip-rule="evenodd" d="M22.3889 61.7969C24.5778 59.4218 26.124 56.5975 22.4853 53.1641C20.3052 55.9041 19.926 59.0237 22.3889 61.7969ZM22.4101 60.8929L22.4424 59.4917L21.8115 60.131L22.4085 59.3468L22.4755 57.6927L21.2897 58.7593L22.4459 57.5456L22.5007 56.1728L21.3669 56.8335L22.5133 55.9531L22.5898 53.7968L22.6541 56.1776L23.9393 57.7178L22.6228 56.3944L22.6213 58.3588L23.6429 59.3465L22.5908 58.5399C22.5749 59.3899 22.5755 59.3831 22.4101 60.8929Z" fill="#00CE00" stroke="#00BB00" stroke-width="0.0645275" stroke-linecap="round" stroke-linejoin="bevel"/>
<path fill-rule="evenodd" clip-rule="evenodd" d="M12.6406 61.1877C17.1222 61.4652 21.592 60.5718 22.538 53.0975C17.6485 53.177 13.7918 55.7019 12.6406 61.1877ZM13.686 60.3533L15.3061 59.0595L14.0657 58.9366L15.4433 58.8827L17.3791 57.3887L15.2016 57.0293L17.5224 57.2146L19.1284 55.9739L17.4549 55.2891L19.3885 55.7797L21.9033 53.8196L19.2477 56.156L18.541 59.1071L18.9756 56.3258L16.7401 58.1902L16.4475 60.3113L16.5093 58.3271C15.5295 59.1162 15.5378 59.1104 13.686 60.3533Z" fill="#001C00" stroke="#00B300" stroke-width="0.0932719" stroke-linecap="round" stroke-linejoin="bevel"/>
<path fill-rule="evenodd" clip-rule="evenodd" d="M13.9414 53.5971C16.4671 55.6103 19.3949 56.9502 22.5589 53.075C19.6698 51.0967 16.531 50.9419 13.9414 53.5971ZM14.8446 53.5535L16.2445 53.4854L15.5616 52.9018L16.3866 53.4412L18.0412 53.3895L16.8924 52.2832L18.1859 53.3495L19.559 53.3059L18.8188 52.2223L19.779 53.3026L21.9353 53.2245L19.5652 53.4592L18.121 54.8514L19.3467 53.4435L17.3873 53.5826L16.4753 54.6724L17.2044 53.5652C16.3555 53.6102 16.3623 53.6103 14.8446 53.5535Z" fill="#003400" stroke="#00AE00" stroke-width="0.0645275" stroke-linecap="round" stroke-linejoin="bevel"/>
<path fill-rule="evenodd" clip-rule="evenodd" d="M22.7016 44.5894C20.4677 46.9222 18.8679 49.7164 22.4403 53.2188C24.6724 50.5208 25.1111 47.4091 22.7016 44.5894ZM22.6632 45.4928L22.6041 46.8932L23.2471 46.2659L22.6352 47.0386L22.5367 48.6911L23.7426 47.6474L22.5634 48.8387L22.4824 50.2103L23.6286 49.5714L22.4656 50.4296L22.3479 52.584L22.3291 50.2025L21.0736 48.6381L22.3645 49.9864L22.4036 48.0224L21.4011 47.0154L22.4375 47.8419C22.4697 46.9924 22.469 46.9992 22.6632 45.4928Z" fill="#006500" stroke="#006B00" stroke-width="0.0645275" stroke-linecap="round" stroke-linejoin="bevel"/>
<path fill-rule="evenodd" clip-rule="evenodd" d="M29.6402 47.5493C26.0183 47.1455 22.5241 47.6146 22.5195 53.1426C26.4325 53.2984 29.2705 51.5866 29.6402 47.5493ZM28.8861 48.1251L27.7174 49.0179L28.7245 49.1641L27.6253 49.1437L26.2236 50.1718L28.006 50.5354L26.1262 50.2952L24.9635 51.1491L26.3747 51.7331L24.7746 51.2824L22.9556 52.6324L24.8495 51.0082L25.1185 48.8402L25.0505 50.8936L26.6551 49.6026L26.6758 48.035L26.8265 49.5108C27.5325 48.9659 27.5265 48.9698 28.8861 48.1251Z" fill="#004E00" stroke="#006C00" stroke-width="0.0718333" stroke-linecap="round" stroke-linejoin="bevel"/>
<path fill-rule="evenodd" clip-rule="evenodd" d="M44.3628 53.7607C38.9074 54.736 34.0971 57.184 37.0056 66.8867C42.7516 65.3409 45.9567 61.0173 44.3628 53.7607ZM43.5748 55.1218L42.3542 57.2319L43.8889 57.0201L42.2871 57.4954L40.8005 59.9513L43.5721 59.7605L40.7246 60.2132L39.4919 62.2523L41.8424 62.6208L39.2887 62.574L37.3678 65.7887L39.2525 62.0579L38.4986 58.1285L39.4831 61.7634L41.1249 58.7519L40.3282 55.9913L41.3245 58.511C42.0591 57.2265 42.0524 57.2363 43.5748 55.1218Z" fill="#005500" stroke="#00FD00" stroke-width="0.119882" stroke-linecap="round" stroke-linejoin="bevel"/>
<path fill-rule="evenodd" clip-rule="evenodd" d="M35.0559 52.6371C30.7392 56.1125 27.6955 60.5698 34.9063 67.6836C39.2039 63.5683 39.9389 58.2366 35.0559 52.6371ZM35.0184 54.2093L34.9611 56.6464L36.2055 55.7236L35.0288 56.9098L34.9042 59.7779L37.2438 58.2795L34.9634 60.044L34.8615 62.4245L37.1002 61.619L34.8377 62.8043L34.6967 66.5466L34.5582 62.3691L32.0098 59.2844L34.619 62L34.6128 58.57L32.5882 56.5312L34.6722 58.2629C34.6996 56.7834 34.6985 56.7952 35.0184 54.2093Z" fill="#001300" stroke="#004300" stroke-width="0.119882" stroke-linecap="round" stroke-linejoin="bevel"/>
<path fill-rule="evenodd" clip-rule="evenodd" d="M16.5195 65.9617C18.7481 71.0358 22.2568 75.1371 31.0058 70.0324C28.1544 64.8098 23.1993 62.709 16.5195 65.9617ZM18.0275 66.4082L20.3653 67.0995L19.7991 65.6573L20.6372 67.1028L23.3734 67.9714L22.5374 65.322L23.6457 67.9837L25.9172 68.7033L25.7237 66.332L26.2776 68.8254L29.8534 69.938L25.7845 68.9817L22.1417 70.6368L25.444 68.8266L22.1313 67.9376L19.6348 69.3601L21.8503 67.8002C20.4293 67.3876 20.4403 67.3917 18.0275 66.4082Z" fill="#004C00" stroke="#003F00" stroke-width="0.119882" stroke-linecap="round" stroke-linejoin="bevel"/>
<path fill-rule="evenodd" clip-rule="evenodd" d="M19.2656 60.3552C20.091 65.8353 22.4061 70.7109 32.185 68.0696C30.7973 62.2834 26.5632 58.9608 19.2656 60.3552ZM20.6046 61.1802L22.6805 62.4582L22.5108 60.9183L22.942 62.5325L25.3562 64.0859L25.2415 61.3101L25.6159 64.1689L27.6204 65.4571L28.0533 63.1176L27.9364 65.669L31.0973 67.6774L27.4196 65.6911L23.4709 66.3369L27.1315 65.4524L24.1661 63.7287L21.3847 64.4495L23.9309 63.5226C22.667 62.7531 22.6765 62.76 20.6046 61.1802Z" fill="#002A00" stroke="#009500" stroke-width="0.119882" stroke-linecap="round" stroke-linejoin="bevel"/>
<path fill-rule="evenodd" clip-rule="evenodd" d="M20.4414 82.5366C25.9554 83.0925 31.2521 82.0554 31.1119 71.9271C25.1622 71.8403 20.8956 75.121 20.4414 82.5366ZM21.572 81.4434L23.3238 79.7482L21.7898 79.5316L23.4605 79.5131L25.5628 77.5582L22.8449 76.9827L25.7075 77.3271L27.4514 75.7035L25.2917 74.7054L27.735 75.4498L30.4628 72.8839L27.6285 75.956L27.2775 79.9417L27.326 76.1761L24.9223 78.6229L24.9327 81.4962L24.6645 78.7999C23.6062 79.8342 23.6152 79.8266 21.572 81.4434Z" fill="#00BB00" stroke="#00B200" stroke-width="0.119882" stroke-linecap="round" stroke-linejoin="bevel"/>
<path fill-rule="evenodd" clip-rule="evenodd" d="M27.0989 85.7812C32.4072 84.189 36.9064 81.2076 32.9085 71.9007C27.3767 74.0928 24.6864 78.7542 27.0989 85.7812ZM27.7262 84.339L28.6979 82.1033L27.1974 82.489L28.7344 81.8338L29.9307 79.2242L27.199 79.7303L29.9762 78.9554L30.9679 76.7888L28.5906 76.6912L31.133 76.446L32.6741 73.0329L31.2279 76.9545L32.4258 80.7721L31.0324 77.2735L29.7454 80.4528L30.8523 83.1044L29.5747 80.7149C28.9916 82.0749 28.9971 82.0644 27.7262 84.339Z" fill="#00DD00" stroke="#00BD00" stroke-width="0.119882" stroke-linecap="round" stroke-linejoin="bevel"/>
<path fill-rule="evenodd" clip-rule="evenodd" d="M42.0149 86.0664C44.9601 81.3719 46.3814 76.165 37.2428 71.7958C34.5247 77.089 35.571 82.3684 42.0149 86.0664ZM41.5369 84.5681L40.7952 82.2459L39.9204 83.5245L40.6453 82.019L39.8264 79.2675L38.1045 81.4478L39.6835 79.0353L39.0025 76.752L37.1496 78.2444L38.901 76.3853L37.8122 72.8021L39.3073 76.7054L42.7233 78.7887L39.3704 77.0741L40.4963 80.314L43.0757 81.5799L40.5405 80.6236C40.9976 82.031 40.9948 82.0195 41.5369 84.5681Z" fill="#004500" stroke="#002700" stroke-width="0.119882" stroke-linecap="round" stroke-linejoin="bevel"/>
<path fill-rule="evenodd" clip-rule="evenodd" d="M50.4657 80.1149C50.3998 74.5734 48.7753 69.4263 38.7266 70.7014C39.3075 76.6232 43.0458 80.4951 50.4657 80.1149ZM49.2525 79.1141L47.3716 77.5634L47.3284 79.112L47.1227 77.4539L44.9444 75.5841L44.6772 78.3494L44.6985 75.4662L42.8896 73.9153L42.14 76.1733L42.6057 73.662L39.7502 71.2391L43.1207 73.7111L47.1206 73.6129L43.3733 73.9869L46.0742 76.1011L48.9282 75.7687L46.279 76.3375C47.4254 77.2732 47.4168 77.265 49.2525 79.1141Z" fill="#008400" stroke="#007F00" stroke-width="0.119882" stroke-linecap="round" stroke-linejoin="bevel"/>
<path fill-rule="evenodd" clip-rule="evenodd" d="M53.1873 69.291C49.4523 65.1969 44.8157 62.4339 38.1602 70.0698C42.5328 74.1054 47.8996 74.5101 53.1873 69.291ZM51.6157 69.3506L49.1797 69.4437L50.1776 70.6289L48.9211 69.5275L46.0508 69.5801L47.6906 71.8227L45.7888 69.6556L43.4065 69.7007L44.3486 71.8854L43.026 69.7004L39.2822 69.7905L43.4432 69.3945L46.3648 66.6607L43.8153 69.4325L47.2384 69.2147L49.1484 67.0682L47.5485 69.255C49.0269 69.1912 49.0151 69.1908 51.6157 69.3506Z" fill="#00AB00" stroke="#00EC00" stroke-width="0.119882" stroke-linecap="round" stroke-linejoin="bevel"/>
<path fill-rule="evenodd" clip-rule="evenodd" d="M35.1577 86.0781C39.6597 82.1588 42.7286 77.2078 34.5296 69.6715C30.0819 74.2878 29.5644 80.1221 35.1577 86.0781ZM35.1158 84.3631L35.05 81.7047L33.7479 82.7483L34.9627 81.4196L34.9471 78.2894L32.487 79.9937L34.8688 78.001L34.8544 75.4029L32.4672 76.3489L34.8602 74.9882L34.8167 70.9046L35.1865 75.4542L38.1141 78.7395L35.1398 75.8584L35.3268 79.5972L37.6311 81.7583L35.2785 79.9337C35.3264 81.5474 35.3271 81.5346 35.1158 84.3631Z" fill="#00DB00" stroke="#008100" stroke-width="0.130477" stroke-linecap="round" stroke-linejoin="bevel"/>
<path fill-rule="evenodd" clip-rule="evenodd" d="M49.912 73.5639C47.4551 68.124 43.5975 63.7594 34.0195 69.4412C37.1596 75.0297 42.5977 77.2053 49.912 73.5639ZM48.2576 73.1102L45.6928 72.4077L46.3174 73.9551L45.3947 72.4093L42.3926 71.5228L43.3163 74.3695L42.0939 71.5148L39.6017 70.7805L39.8202 73.3389L39.2062 70.6555L35.283 69.5213L39.7464 70.4772L43.7356 68.6196L40.1201 70.6383L43.7543 71.5358L46.4874 69.9514L44.0627 71.6789C45.6217 72.0977 45.6097 72.0934 48.2576 73.1102Z" fill="#006A00" stroke="#00F400" stroke-width="0.130477" stroke-linecap="round" stroke-linejoin="bevel"/>
<path fill-rule="evenodd" clip-rule="evenodd" d="M28.4418 55.9939C26.9897 60.8198 26.8201 65.9329 34.7446 68.8828C35.9113 63.5197 34.141 58.6581 28.4418 55.9939ZM29.0855 57.3502L30.0839 59.4521L30.5362 58.1282L30.242 59.6473L31.3782 62.1455L32.3291 59.8583L31.5317 62.3468L32.4757 64.4198L33.653 62.7666L32.6212 64.7537L34.1183 68.0041L32.2461 64.5034L29.2027 62.9747L32.1303 64.1626L30.6662 61.2419L28.4235 60.3784L30.5758 60.9545C29.9647 59.6817 29.9689 59.6922 29.0855 57.3502Z" fill="#006F00" stroke="#00F400" stroke-width="0.104685" stroke-linecap="round" stroke-linejoin="bevel"/>
<path fill-rule="evenodd" clip-rule="evenodd" d="M39.1977 58.0992C35.2011 60.1459 31.8116 63.1936 34.809 70.1055C38.9746 67.544 41.0048 63.4053 39.1977 58.0992ZM38.7239 59.3501L37.99 61.2892L39.1197 60.7624L37.9622 61.5113L37.0588 63.7835L39.1151 62.9823L37.0242 64.0064L36.2753 65.8926L38.0642 65.6283L36.1507 66.1923L34.9868 69.1607L36.0799 65.7968L35.183 62.8978L36.2273 65.512L37.1997 62.7682L36.3699 60.7944L37.3285 62.5327C37.7689 61.3543 37.7648 61.3636 38.7239 59.3501Z" fill="#006000" stroke="#002200" stroke-width="0.0932719" stroke-linecap="round" stroke-linejoin="bevel"/>
<path fill-rule="evenodd" clip-rule="evenodd" d="M19.7188 75.5588C25.1968 77.9293 30.9874 78.5619 34.2488 67.9137C28.1654 65.893 22.6788 67.9432 19.7188 75.5588ZM21.2479 74.7811L23.6178 73.5748L22.1145 72.8504L23.8372 73.373L26.6544 72.0085L24.0555 70.5244L26.8808 71.8135L29.2184 70.6795L27.3352 68.9341L29.595 70.5059L33.2603 68.7047L29.3154 71.0012L27.6147 75.0598L28.9307 71.1336L25.6384 72.9153L24.6829 75.9264L25.314 73.0169C23.879 73.7563 23.8908 73.7514 21.2479 74.7811Z" fill="#004900" stroke="#006700" stroke-width="0.130477" stroke-linecap="round" stroke-linejoin="bevel"/>
<path fill-rule="evenodd" clip-rule="evenodd" d="M49.4914 62.8356C44.6716 60.1003 39.4071 58.9101 35.4453 68.2324C40.8532 70.7145 46.0813 69.4363 49.4914 62.8356ZM48.0157 63.3792L45.7284 64.2225L47.0444 65.0402L45.5084 64.3824L42.7957 65.3218L45.0498 66.9459L42.5701 65.4748L40.319 66.2558L41.8917 68.0411L39.9571 66.3735L36.4255 67.6192L40.259 65.9534L42.1896 62.4488L40.6246 65.8741L43.8117 64.6064L44.9625 61.9737L44.119 64.5486C45.5049 64.0298 45.4935 64.0331 48.0157 63.3792Z" fill="#007100" stroke="#003700" stroke-width="0.119882" stroke-linecap="round" stroke-linejoin="bevel"/>
<path fill-rule="evenodd" clip-rule="evenodd" d="M36.3081 81.3125C39.0286 77.6441 40.7231 73.5636 34.7385 70.074C32.1031 74.214 32.1682 78.3671 36.3081 81.3125ZM36.1599 80.1327L35.9294 78.3041L35.1363 79.3028L35.8513 78.125L35.6213 75.9587L34.1039 77.6602L35.549 75.7755L35.357 73.9778L33.835 75.1382L35.3318 73.6891L35.0161 70.868L35.5816 73.9431L37.7602 75.6011L35.5789 74.2331L35.9657 76.7849L37.6507 77.7955L35.9572 77.0284C36.1024 78.1366 36.1019 78.1276 36.1599 80.1327Z" fill="#00F300" stroke="#005900" stroke-width="0.0900223" stroke-linecap="round" stroke-linejoin="bevel"/>
<path fill-rule="evenodd" clip-rule="evenodd" d="M43.6147 74.9519C42.437 70.8901 40.3804 67.3533 34.4531 69.8065C36.0259 74.07 39.1228 76.3509 43.6147 74.9519ZM42.6621 74.3996L41.1855 73.544L41.4766 74.6884L41.0097 73.5011L39.2844 72.4559L39.6873 74.5281L39.1088 72.4064L37.6765 71.5398L37.6781 73.312L37.4497 71.3965L35.1938 70.0471L37.7769 71.3549L40.2203 70.6792L37.9891 71.5194L40.0864 72.6653L41.7759 71.9904L40.261 72.8081C41.1591 73.3226 41.1521 73.3179 42.6621 74.3996Z" fill="#002600" stroke="#006200" stroke-width="0.0833587" stroke-linecap="round" stroke-linejoin="bevel"/>
<path fill-rule="evenodd" clip-rule="evenodd" d="M38.363 78.1641C39.6929 74.7711 40.1466 71.2748 34.8092 69.8358C33.6432 73.5743 34.56 76.7594 38.363 78.1641ZM38.0026 77.2863L37.4436 75.926L37.0412 76.8607L37.3461 75.8044L36.7169 74.184L35.9033 75.811L36.623 74.0579L36.1001 72.7134L35.17 73.9247L36.0204 72.4963L35.1887 70.3894L36.2658 72.6398L38.2897 73.4622L36.3243 72.8638L37.1546 74.7484L38.6632 75.1752L37.1989 74.9377C37.5419 75.761 37.5396 75.7541 38.0026 77.2863Z" fill="#00D700" stroke="#002400" stroke-width="0.0718333" stroke-linecap="round" stroke-linejoin="bevel"/>
<path fill-rule="evenodd" clip-rule="evenodd" d="M30.0018 77.0391C33.118 76.1895 35.9282 74.6179 34.6691 69.7761C31.3665 70.9395 29.3881 73.3812 30.0018 77.0391ZM30.4999 76.2844L31.2716 75.1144L30.3974 75.321L31.3198 74.9736L32.2552 73.6078L30.684 73.8816L32.3083 73.4674L33.084 72.3334L31.7724 72.2909L33.2113 72.154L34.4215 70.3677L33.2114 72.419L33.4821 74.4066L33.0697 72.5861L32.0249 74.2495L32.3658 75.629L31.9029 74.3868C31.4379 75.0985 31.442 75.093 30.4999 76.2844Z" fill="#00A600" stroke="#00B400" stroke-width="0.0645275" stroke-linecap="round" stroke-linejoin="bevel"/>
<path fill-rule="evenodd" clip-rule="evenodd" d="M22.0625 71.3384C25.7122 73.9541 29.9738 75.5714 34.7456 69.7414C30.5608 67.2114 25.9519 67.302 22.0625 71.3384ZM23.3915 71.1868L25.4514 70.9512L24.4657 70.1882L25.6615 70.8742L28.0952 70.6367L26.4412 69.1756L28.3092 70.5654L30.3289 70.3672L29.2748 68.898L30.6524 70.3408L33.8243 70.016L30.3333 70.5849L28.1669 72.7098L30.0125 70.5843L27.1281 70.9764L25.7535 72.618L26.8598 70.9698C25.6106 71.1179 25.6207 71.1174 23.3915 71.1868Z" fill="#00CB00" stroke="#00AD00" stroke-width="0.0932719" stroke-linecap="round" stroke-linejoin="bevel"/>
<path fill-rule="evenodd" clip-rule="evenodd" d="M27.1953 65.6053C28.2659 68.6527 30.0346 71.3431 34.7738 69.7405C33.3769 66.5297 30.7998 64.7312 27.1953 65.6053ZM27.9837 66.0481L29.206 66.7341L28.9373 65.8769L29.3498 66.7721L30.7791 67.6072L30.3935 66.0596L30.923 67.6501L32.1096 68.3426L32.058 67.0313L32.2977 68.4567L34.1661 69.5359L32.0334 68.4758L30.0702 68.8882L31.8565 68.3464L30.1226 67.4235L28.771 67.8623L29.9768 67.3116C29.2337 66.8988 29.2394 66.9025 27.9837 66.0481Z" fill="#00F300" stroke="#004B00" stroke-width="0.0645275" stroke-linecap="round" stroke-linejoin="bevel"/>
<path fill-rule="evenodd" clip-rule="evenodd" d="M39.4046 62.6322C36.2728 63.4221 33.4331 64.9397 34.5995 69.8047C37.9236 68.7046 39.9484 66.3011 39.4046 62.6322ZM38.8922 63.3773L38.0983 64.5323L38.9763 64.3425L38.0474 64.6721L37.0861 66.0198L38.6623 65.7761L37.0303 66.1592L36.2331 67.2781L37.5437 67.3456L36.1024 67.4551L34.8583 69.218L36.1074 67.1901L35.8747 65.1977L36.2522 67.0258L37.3286 65.3826L37.0141 63.9968L37.4532 65.2476C37.9317 64.545 37.9275 64.5504 38.8922 63.3773Z" fill="#003B00" stroke="#00A700" stroke-width="0.0645275" stroke-linecap="round" stroke-linejoin="bevel"/>
<path fill-rule="evenodd" clip-rule="evenodd" d="M43.7073 68.8212C40.8531 66.5552 37.6434 65.0965 34.7031 69.7777C37.9356 71.9883 41.2495 72.0454 43.7073 68.8212ZM42.7624 68.9085L41.2981 69.0442L42.0737 69.7029L41.1532 69.1018L39.4195 69.2283L40.7365 70.4831L39.2714 69.2811L37.8327 69.387L38.7182 70.6313L37.6018 69.3995L35.3436 69.5771L37.811 69.207L39.1905 67.5131L38.0422 69.2167L40.0875 68.9753L40.9377 67.6581L40.2814 68.9885C41.1691 68.9018 41.1618 68.902 42.7624 68.9085Z" fill="#001900" stroke="#000700" stroke-width="0.0718333" stroke-linecap="round" stroke-linejoin="bevel"/>
<path fill-rule="evenodd" clip-rule="evenodd" d="M46.4895 23.5734C42.164 20.109 37.1547 18.0995 31.7656 26.6762C36.7118 29.9839 42.0764 29.5503 46.4895 23.5734ZM44.9463 23.8763L42.5543 24.3466L43.724 25.3624L42.3117 24.4695L39.4844 24.9672L41.4526 26.928L39.2374 25.0825L36.891 25.4969L38.1609 27.5089L36.515 25.5558L32.8306 26.2261L36.8797 25.1888L39.3413 22.0345L37.2532 25.1685L40.6009 24.4218L42.1544 22.0048L40.9135 24.4135C42.3641 24.1209 42.3523 24.1223 44.9463 23.8763Z" fill="#00DB00" stroke="#008800" stroke-width="0.119882" stroke-linecap="round" stroke-linejoin="bevel"/>
<path fill-rule="evenodd" clip-rule="evenodd" d="M41.21 15.824C35.7522 14.8625 30.3933 15.5056 29.7852 25.6166C35.7122 26.1425 40.2094 23.1859 41.21 15.824ZM40.0018 16.8308L38.1295 18.392L39.6434 18.7213L37.9758 18.6164L35.7349 20.4107L38.403 21.1853L35.5736 20.6304L33.7145 22.1208L35.7946 23.2757L33.413 22.3529L30.5031 24.7103L33.5566 21.856L34.2009 17.907L33.8745 21.6588L36.4523 19.3961L36.6542 16.5299L36.7225 19.2387C37.8543 18.2854 37.8447 18.2923 40.0018 16.8308Z" fill="#00B000" stroke="#00D800" stroke-width="0.119882" stroke-linecap="round" stroke-linejoin="bevel"/>
<path fill-rule="evenodd" clip-rule="evenodd" d="M18.9794 10.6462C16.627 15.664 15.8495 21.0051 25.4515 24.2305C27.5058 18.646 25.8252 13.5331 18.9794 10.6462ZM19.636 12.0752L20.6546 14.29L21.3675 12.9145L20.8311 14.4969L21.9785 17.1284L23.4225 14.755L22.1485 17.3415L23.1022 19.5251L24.7598 17.8184L23.2476 19.8767L24.764 23.3009L22.8053 19.6084L19.1613 17.9559L22.6979 19.2501L21.1863 16.1712L18.4721 15.2284L21.1048 15.8692C20.4799 14.5279 20.484 14.5389 19.636 12.0752Z" fill="#004300" stroke="#00D400" stroke-width="0.119882" stroke-linecap="round" stroke-linejoin="bevel"/>
<path fill-rule="evenodd" clip-rule="evenodd" d="M25.0079 9.02463C21.4261 13.2535 19.28 18.2058 27.7058 23.8281C31.1478 18.9744 30.8615 13.5999 25.0079 9.02463ZM25.2684 10.5756L25.6728 12.9796L26.7204 11.8381L25.7891 13.2254L26.2091 16.0653L28.2231 14.1516L26.3175 16.3154L26.6675 18.6723L28.7135 17.458L26.716 19.0497L27.285 22.7511L26.3591 18.6751L23.2735 16.128L26.3491 18.3012L25.6945 14.9343L23.3209 13.315L25.6948 14.6215C25.442 13.1635 25.4431 13.1753 25.2684 10.5756Z" fill="#005F00" stroke="#007700" stroke-width="0.119882" stroke-linecap="round" stroke-linejoin="bevel"/>
<path fill-rule="evenodd" clip-rule="evenodd" d="M9.08203 24.5102C12.2935 29.0268 16.5611 32.3313 24.0928 25.5581C20.2415 21.0224 14.9632 19.9703 9.08203 24.5102ZM10.6493 24.6416L13.0786 24.8443L12.2318 23.547L13.3456 24.7925L16.2011 25.0881L14.8451 22.6632L16.4703 25.0449L18.8405 25.2888L18.1701 23.006L19.2181 25.3352L22.9453 25.6994L18.767 25.5883L15.5357 27.9479L18.4022 25.5055L14.9779 25.3069L12.8219 27.2061L14.675 25.2293C13.1998 25.1135 13.2114 25.1153 10.6493 24.6416Z" fill="#008700" stroke="#00B800" stroke-width="0.119882" stroke-linecap="round" stroke-linejoin="bevel"/>
<path fill-rule="evenodd" clip-rule="evenodd" d="M11.0273 31.6555C15.7203 34.6032 20.9264 36.0273 25.3004 26.891C20.0087 24.1701 14.7287 25.2136 11.0273 31.6555ZM12.5259 31.1783L14.8485 30.4379L13.5703 29.5623L15.0754 30.288L17.8273 29.4706L15.648 27.7475L18.0596 29.3279L20.3433 28.6481L18.8519 26.7944L20.7101 28.5467L24.2938 27.4599L20.3897 28.9529L18.3046 32.3678L20.021 29.0158L16.7805 30.14L15.5132 32.7187L16.4708 30.184C15.0632 30.6404 15.0747 30.6376 12.5259 31.1783Z" fill="#00A900" stroke="#009E00" stroke-width="0.119882" stroke-linecap="round" stroke-linejoin="bevel"/>
<path fill-rule="evenodd" clip-rule="evenodd" d="M20.6301 43.0625C26.1027 42.189 30.9579 39.8312 28.2308 30.0759C22.457 31.5143 19.1718 35.7774 20.6301 43.0625ZM21.4433 41.7163L22.7031 39.6293L21.1647 39.8124L22.7751 39.3671L24.3072 36.9393L21.5325 37.0784L24.388 36.6789L25.6585 34.6632L23.3153 34.2509L25.8676 34.3453L27.8482 31.167L25.8942 34.8619L26.5747 38.8048L25.6581 35.1521L23.9605 38.1325L24.7057 40.9075L23.7565 38.3696C22.9981 39.6402 23.0049 39.6305 21.4433 41.7163Z" fill="#009800" stroke="#00E100" stroke-width="0.119882" stroke-linecap="round" stroke-linejoin="bevel"/>
<path fill-rule="evenodd" clip-rule="evenodd" d="M30.6713 45.5195C34.7993 41.8218 37.6044 37.2107 30.0295 30.4858C25.9542 34.8215 25.5006 40.1844 30.6713 45.5195ZM30.6261 43.9474L30.5551 41.5106L29.3609 42.4976L30.4737 41.2512L30.4472 38.3805L28.1898 39.9999L30.3741 38.1179L30.3508 35.7353L28.1575 36.6574L30.3545 35.3548L30.2986 31.6103L30.6566 35.7748L33.3636 38.7211L30.6152 36.1465L30.8018 39.5714L32.9308 41.5009L30.7587 39.8812C30.809 41.3601 30.8095 41.3483 30.6261 43.9474Z" fill="#00F300" stroke="#00AF00" stroke-width="0.119882" stroke-linecap="round" stroke-linejoin="bevel"/>
<path fill-rule="evenodd" clip-rule="evenodd" d="M40.6131 40.4375C41.2362 34.9308 40.2638 29.6217 30.1345 29.6385C29.9752 35.5866 33.2035 39.893 40.6131 40.4375ZM39.5337 39.2937L37.86 37.5213L37.6247 39.0526L37.6266 37.3817L35.6975 35.2558L35.0889 37.9665L35.4682 35.1083L33.866 33.3447L32.8416 35.4921L33.6157 33.0581L31.0833 30.2992L34.1206 33.1707L38.1017 33.5703L34.337 33.4758L36.7543 35.9092L39.6275 35.9339L36.9282 36.1692C37.9494 37.24 37.942 37.2309 39.5337 39.2937Z" fill="#005600" stroke="#00B200" stroke-width="0.119882" stroke-linecap="round" stroke-linejoin="bevel"/>
<path fill-rule="evenodd" clip-rule="evenodd" d="M16.1055 37.9139C22.0195 38.7227 27.7666 37.7735 28.0421 26.6405C21.6392 26.3315 16.9068 29.7826 16.1055 37.9139ZM17.3689 36.7533L19.3267 34.9537L17.684 34.6607L19.4838 34.7003L21.8298 32.628L18.9274 31.8981L21.9954 32.3792L23.9416 30.6581L21.6581 29.4838L24.2576 30.3894L27.3029 27.6684L24.1216 30.9418L23.5758 35.3083L23.7866 31.1728L21.0953 33.7747L20.9855 36.932L20.8102 33.9599C19.6271 35.0582 19.6372 35.0503 17.3689 36.7533Z" fill="#009600" stroke="#00BC00" stroke-width="0.130477" stroke-linecap="round" stroke-linejoin="bevel"/>
<path fill-rule="evenodd" clip-rule="evenodd" d="M35.2406 40.7852C37.718 35.3547 38.464 29.5776 27.8818 26.1081C25.7422 32.1508 27.6844 37.6765 35.2406 40.7852ZM34.493 39.2411L33.3333 36.8481L32.5797 38.3369L33.1359 36.6247L31.8269 33.7814L30.2921 36.3506L31.6363 33.5512L30.5485 31.1918L28.7664 33.0405L30.3822 30.8118L28.6533 27.112L30.872 31.1011L34.8964 32.8811L30.9968 31.4884L32.7136 34.8149L35.7054 35.8292L32.8088 35.1413C33.5199 36.5905 33.5153 36.5786 34.493 39.2411Z" fill="#008300" stroke="#007100" stroke-width="0.130477" stroke-linecap="round" stroke-linejoin="bevel"/>
<path fill-rule="evenodd" clip-rule="evenodd" d="M34.3301 13.0559C29.7415 15.1398 25.7809 18.3781 28.7771 26.2852C33.5822 23.6328 36.0764 19.0999 34.3301 13.0559ZM33.7329 14.4333L32.808 16.5686L34.1022 16.0375L32.7651 16.8161L31.6325 19.3159L33.9801 18.526L31.582 19.5639L30.643 21.6392L32.6625 21.4372L30.4875 21.9686L29.0262 25.2353L30.4289 21.5215L29.5762 18.2241L30.6093 21.2099L31.844 18.1851L31.0177 15.9285L32.0008 17.9279C32.5566 16.63 32.5515 16.6401 33.7329 14.4333Z" fill="#002800" stroke="#007B00" stroke-width="0.104685" stroke-linecap="round" stroke-linejoin="bevel"/>
<path fill-rule="evenodd" clip-rule="evenodd" d="M39.8253 22.5463C35.6537 20.8851 31.1282 20.34 27.8984 27.1465C32.5689 28.5958 37.0207 27.3996 39.8253 22.5463ZM38.5718 23.0131L36.629 23.7371L37.7692 24.2407L36.4435 23.8624L34.1383 24.6782L36.0952 25.6987L33.9479 24.7989L32.035 25.4769L33.4115 26.6495L31.7274 25.5803L28.7267 26.6584L31.9784 25.2666L33.5702 22.6831L32.2899 25.1901L34.9954 24.1159L35.9349 22.1918L35.2574 24.0578C36.4344 23.6136 36.4247 23.6165 38.5718 23.0131Z" fill="#00ED00" stroke="#00FA00" stroke-width="0.0932719" stroke-linecap="round" stroke-linejoin="bevel"/>
<path fill-rule="evenodd" clip-rule="evenodd" d="M13.8633 19.3687C15.6852 25.0529 19.021 29.8281 29.1834 25.2734C26.6998 19.3638 21.5446 16.5835 13.8633 19.3687ZM15.4554 20.0078L17.9236 20.9976L17.4792 19.3891L18.2199 21.03L21.1016 22.2523L20.5079 19.319L21.3975 22.2943L23.7899 23.3075L23.864 20.7409L24.1686 23.4767L27.9372 25.05L23.6116 23.5923L19.4369 24.9838L23.2587 23.3898L19.7502 22.0845L16.8546 23.3475L19.4602 21.9072C17.9589 21.3137 17.9703 21.3193 15.4554 20.0078Z" fill="#006000" stroke="#002600" stroke-width="0.130477" stroke-linecap="round" stroke-linejoin="bevel"/>
<path fill-rule="evenodd" clip-rule="evenodd" d="M43.0358 33.4048C41.9218 27.976 39.3522 23.2296 29.7266 26.3843C31.4183 32.089 35.8222 35.183 43.0358 33.4048ZM41.6551 32.6517L39.5145 31.4852L39.7654 33.014L39.2494 31.4248L36.7565 30.0013L37.0178 32.7672L36.4928 29.9321L34.4229 28.7518L34.1144 31.1109L34.0961 28.5568L30.8335 26.7184L34.6111 28.5075L38.5201 27.6537L34.9114 28.7305L37.9638 30.295L40.7032 29.4282L38.2096 30.4884C39.5124 31.19 39.5025 31.1837 41.6551 32.6517Z" fill="#00F300" stroke="#00D200" stroke-width="0.119882" stroke-linecap="round" stroke-linejoin="bevel"/>
<path fill-rule="evenodd" clip-rule="evenodd" d="M20.4491 35.6445C25.0014 35.2774 29.1885 33.8668 27.8755 27.0646C23.0242 27.8062 19.9409 30.5893 20.4491 35.6445ZM21.2396 34.7562L22.4644 33.379L21.1905 33.4394L22.5478 33.2023L24.0269 31.6031L21.7473 31.581L24.1173 31.428L25.3442 30.1001L23.4687 29.7183L25.5448 29.8911L27.4607 27.7963L25.5181 30.2463L25.7042 32.9777L25.298 30.4352L23.6318 32.4063L23.9803 34.3399L23.443 32.5601C22.7043 33.399 22.7107 33.3926 21.2396 34.7562Z" fill="#00EC00" stroke="#00A300" stroke-width="0.0900223" stroke-linecap="round" stroke-linejoin="bevel"/>
<path fill-rule="evenodd" clip-rule="evenodd" d="M30.051 36.9531C32.3333 33.3927 33.6417 29.5163 27.8931 26.6694C25.7192 30.6601 26.0409 34.4928 30.051 36.9531ZM29.8397 35.8724L29.5117 34.1976L28.8419 35.1702L29.4283 34.0371L29.0793 32.0503L27.7847 33.7177L29.001 31.8856L28.7104 30.2369L27.3774 31.4048L28.6689 29.9718L28.1996 27.3854L28.9157 30.1907L31.0328 31.5852L28.9315 30.4588L29.4496 32.7919L31.0699 33.6194L29.457 33.0173C29.6609 34.032 29.6599 34.0237 29.8397 35.8724Z" fill="#001000" stroke="#007400" stroke-width="0.0833587" stroke-linecap="round" stroke-linejoin="bevel"/>
<path fill-rule="evenodd" clip-rule="evenodd" d="M24.1734 35.1172C27.603 33.8846 30.5335 31.9245 28.103 26.9595C24.5213 28.5429 22.7273 31.3297 24.1734 35.1172ZM24.5969 34.2681L25.2529 32.9518L24.2844 33.2641L25.2803 32.7983L26.0858 31.258L24.3255 31.7166L26.1189 31.1043L26.7867 29.8256L25.2626 29.9228L26.8977 29.6227L27.9361 27.6096L26.9512 29.9019L27.6645 31.9668L26.8211 30.0933L25.9491 31.959L26.6209 33.3756L25.8357 32.1169C25.4418 32.9171 25.4455 32.9109 24.5969 34.2681Z" fill="#005000" stroke="#00FC00" stroke-width="0.0718333" stroke-linecap="round" stroke-linejoin="bevel"/>
<path fill-rule="evenodd" clip-rule="evenodd" d="M19.5156 28.0769C22.2066 29.8633 25.2395 30.9441 28.0553 26.809C25.0055 25.0888 21.8651 25.207 19.5156 28.0769ZM20.4116 27.955L21.8004 27.7657L21.0694 27.2437L21.9381 27.7094L23.5819 27.5143L22.3415 26.5118L23.7226 27.4619L25.0868 27.2993L24.2554 26.284L25.3057 27.277L27.447 27.012L25.1063 27.4515L23.7883 28.9637L24.8872 27.4549L22.9473 27.7635L22.1333 28.9282L22.7636 27.762C21.9217 27.8805 21.9286 27.88 20.4116 27.955Z" fill="#002200" stroke="#00B400" stroke-width="0.0645275" stroke-linecap="round" stroke-linejoin="bevel"/>
<path fill-rule="evenodd" clip-rule="evenodd" d="M18.5781 18.3573C19.0118 22.8265 20.5998 27.0991 28.1297 26.8531C27.2792 22.0375 24.177 18.6278 18.5781 18.3573ZM19.5672 19.2578L21.1005 20.6533L21.026 19.4091L21.2968 20.7608L23.0777 22.4364L23.0887 20.2295L23.2722 22.5505L24.751 23.9405L25.163 22.1798L24.9838 24.1666L27.3164 26.3404L24.59 24.087L21.5644 23.8551L24.3794 23.8452L22.1853 21.9321L20.0447 21.978L22.0137 21.7257C21.0798 20.8829 21.0869 20.8901 19.5672 19.2578Z" fill="#00DE00" stroke="#008900" stroke-width="0.0932719" stroke-linecap="round" stroke-linejoin="bevel"/>
<path fill-rule="evenodd" clip-rule="evenodd" d="M26.2734 18.448C24.6843 21.26 23.8235 24.3626 28.1497 26.875C29.647 23.7098 29.3043 20.5859 26.2734 18.448ZM26.4592 19.333L26.7474 20.7046L27.2158 19.9381L26.8135 20.8379L27.1258 22.4636L28.0369 21.1546L27.1882 22.6002L27.4481 23.9492L28.4012 23.0472L27.486 24.1659L27.9036 26.2828L27.2976 23.9796L25.6949 22.7733L27.2786 23.7613L26.8318 21.8484L25.6118 21.1199L26.8202 21.6651C26.6417 20.8339 26.6427 20.8407 26.4592 19.333Z" fill="#00F800" stroke="#009300" stroke-width="0.0645275" stroke-linecap="round" stroke-linejoin="bevel"/>
<path fill-rule="evenodd" clip-rule="evenodd" d="M36.5507 25.6784C33.8944 23.8409 30.8826 22.7023 27.9883 26.7829C31.0047 28.561 34.1468 28.5029 36.5507 25.6784ZM35.6525 25.7831L34.2604 25.9459L34.9813 26.4818L34.1216 25.9996L32.4743 26.1632L33.6954 27.1892L32.3327 26.2129L30.9656 26.3494L31.7775 27.3804L30.7463 26.3676L28.6003 26.5915L30.9491 26.1969L32.2957 24.7101L31.1681 26.1977L33.1136 25.9262L33.9497 24.7772L33.2973 25.9312C34.1412 25.8288 34.1344 25.8292 35.6525 25.7831Z" fill="#00DC00" stroke="#009600" stroke-width="0.0645275" stroke-linecap="round" stroke-linejoin="bevel"/>
<path fill-rule="evenodd" clip-rule="evenodd" d="M34.7256 32.9917C34.5525 29.3515 33.5375 25.9751 28.0781 26.8435C28.5421 30.7319 30.6806 33.2641 34.7256 32.9917ZM34.0379 32.3379L32.9717 31.3249L32.9865 32.3424L32.833 31.2537L31.5965 30.032L31.5189 31.8495L31.4592 29.9554L30.4324 28.9421L30.0787 30.4277L30.271 28.7765L28.6507 27.1936L30.5536 28.8072L32.7369 28.7305L30.6985 28.9876L32.2267 30.3683L33.7779 30.1412L32.3444 30.5229C32.994 31.1341 32.9891 31.1288 34.0379 32.3379Z" fill="#006B00" stroke="#00D600" stroke-width="0.0718333" stroke-linecap="round" stroke-linejoin="bevel"/>
<path fill-rule="evenodd" clip-rule="evenodd" d="M72.1393 18.9525C67.1798 16.4794 61.8591 15.5728 58.4023 25.094C63.9354 27.2828 69.0875 25.7264 72.1393 18.9525ZM70.6947 19.5744L68.4559 20.5391L69.8138 21.285L68.2448 20.7105L65.5863 21.7939L67.9242 23.2949L65.3692 21.9587L63.1632 22.8592L64.8293 24.5577L62.8081 22.9961L59.3483 24.4292L63.0871 22.5604L64.8272 18.9575L63.4479 22.4617L66.5625 21.0251L67.5707 18.3345L66.8663 20.9509C68.2224 20.3586 68.2112 20.3625 70.6947 19.5744Z" fill="#008400" stroke="#007000" stroke-width="0.119882" stroke-linecap="round" stroke-linejoin="bevel"/>
<path fill-rule="evenodd" clip-rule="evenodd" d="M65.3431 12.4847C59.8053 12.6972 54.7029 14.4572 56.2433 24.4688C62.1477 23.7314 65.9194 19.8919 65.3431 12.4847ZM64.3747 13.7239L62.8742 15.6452L64.4235 15.6474L62.7714 15.8969L60.9598 18.1239L63.7313 18.3178L60.8485 18.3728L59.346 20.2221L61.623 20.9118L59.1003 20.5126L56.7538 23.4313L59.1357 19.9966L58.9318 16.0006L59.4048 19.7367L61.4468 16.9809L61.039 14.1367L61.6777 16.7699C62.5827 15.5992 62.5748 15.6079 64.3747 13.7239Z" fill="#00F300" stroke="#003A00" stroke-width="0.119882" stroke-linecap="round" stroke-linejoin="bevel"/>
<path fill-rule="evenodd" clip-rule="evenodd" d="M42.5148 12.1197C41.2749 17.5211 41.6425 22.9059 51.7091 24.0312C52.538 18.1389 49.8158 13.4962 42.5148 12.1197ZM43.4584 13.3779L44.9216 15.3277L45.328 13.8327L45.1378 15.4927L46.8149 17.8226L47.7253 15.1978L47.0261 17.995L48.4192 19.928L49.6792 17.9098L48.6356 20.241L50.8408 23.2678L48.1466 20.0721L44.2359 19.2262L47.966 19.7446L45.8384 17.0542L42.9864 16.7057L45.695 16.7763C44.801 15.5971 44.8074 15.607 43.4584 13.3779Z" fill="#00AC00" stroke="#000900" stroke-width="0.119882" stroke-linecap="round" stroke-linejoin="bevel"/>
<path fill-rule="evenodd" clip-rule="evenodd" d="M48.0627 9.25996C45.4545 14.1498 44.4023 19.4436 53.8252 23.1602C56.1649 17.6892 54.7504 12.4963 48.0627 9.25996ZM48.6447 10.7211L49.5476 12.9854L50.3306 11.6486L49.7132 13.2012L50.7233 15.8884L52.2878 13.5926L50.8821 16.11L51.7218 18.3398L53.4653 16.721L51.8488 18.6985L53.1865 22.1964L51.421 18.4077L47.8671 16.5694L51.3322 18.0443L49.9815 14.8915L47.3196 13.8099L49.9157 14.5858C49.3608 13.214 49.3644 13.2252 48.6447 10.7211Z" fill="#001000" stroke="#004B00" stroke-width="0.119882" stroke-linecap="round" stroke-linejoin="bevel"/>
<path fill-rule="evenodd" clip-rule="evenodd" d="M35.7734 27.76C39.866 31.4967 44.735 33.8256 50.667 25.615C45.9448 21.9947 40.5634 22.0807 35.7734 27.76ZM37.333 27.5575L39.7504 27.2427L38.6487 26.1534L40.0004 27.1357L42.8539 26.8217L41.0165 24.7379L43.1079 26.7227L45.4762 26.4607L44.3389 24.3709L45.8551 26.4263L49.5751 25.9954L45.4675 26.7689L42.8073 29.7576L45.0935 26.765L41.7045 27.2938L39.9981 29.6055L41.392 27.282C39.9256 27.4803 39.9374 27.4796 37.333 27.5575Z" fill="#008100" stroke="#009500" stroke-width="0.119882" stroke-linecap="round" stroke-linejoin="bevel"/>
<path fill-rule="evenodd" clip-rule="evenodd" d="M39.1758 34.335C44.3853 36.2254 49.7747 36.5182 52.1212 26.6644C46.3743 25.1221 41.4337 27.2568 39.1758 34.335ZM40.5399 33.5522L42.6538 32.3381L41.2196 31.7521L42.8439 32.1437L45.3613 30.7637L42.8673 29.5395L45.5582 30.5751L47.6469 29.4285L45.7977 27.9315L47.9839 29.252L51.2574 27.433L47.7566 29.7166L46.4394 33.4948L47.4094 29.8559L44.4793 31.639L43.7851 34.4271L44.186 31.7473C42.9064 32.4907 42.9171 32.4855 40.5399 33.5522Z" fill="#007C00" stroke="#008A00" stroke-width="0.119882" stroke-linecap="round" stroke-linejoin="bevel"/>
<path fill-rule="evenodd" clip-rule="evenodd" d="M50.9795 43.4648C56.1443 41.4555 60.3922 38.1258 55.667 29.1662C50.327 31.7912 48.0159 36.6518 50.9795 43.4648ZM51.4901 41.9772L52.2809 39.6713L50.8158 40.1751L52.2959 39.3998L53.2809 36.7033L50.5981 37.425L53.3049 36.4317L54.1211 34.1932L51.7437 34.2849L54.2585 33.8383L55.5233 30.3135L54.3935 34.3377L55.8911 38.048L54.224 34.6712L53.1939 37.9428L54.5082 40.4979L53.0446 38.2176C52.5715 39.6197 52.5761 39.6088 51.4901 41.9772Z" fill="#00C900" stroke="#006D00" stroke-width="0.119882" stroke-linecap="round" stroke-linejoin="bevel"/>
<path fill-rule="evenodd" clip-rule="evenodd" d="M61.307 43.7383C64.5613 39.2524 66.3296 34.153 57.5056 29.179C54.4376 34.2774 55.1265 39.6152 61.307 43.7383ZM60.9309 42.2112L60.3471 39.8443L59.3882 41.0612L60.2127 39.6079L59.5807 36.8076L57.7161 38.8671L59.4538 36.5663L58.9279 34.2423L56.9789 35.6068L58.8513 33.8696L58.006 30.2214L59.2352 34.2163L62.5033 36.5247L59.2733 34.5885L60.1788 37.8968L62.6672 39.3333L60.202 38.2087C60.5635 39.6436 60.5614 39.6319 60.9309 42.2112Z" fill="#005200" stroke="#00D400" stroke-width="0.119882" stroke-linecap="round" stroke-linejoin="bevel"/>
<path fill-rule="evenodd" clip-rule="evenodd" d="M69.9482 36.673C69.3946 31.1588 67.3232 26.1748 57.4258 28.3298C58.5259 34.1774 62.5907 37.7051 69.9482 36.673ZM68.6516 35.7829L66.6414 34.4038L66.7348 35.9503L66.3838 34.3167L64.0493 32.6459L64.0268 35.424L63.7941 32.5501L61.8556 31.1646L61.3077 33.4798L61.5505 30.9373L58.4927 28.7752L62.0678 30.9408L66.0435 30.4908L62.3438 31.1933L65.2203 33.0615L68.034 32.479L65.4451 33.2789C66.6695 34.11 66.6602 34.1026 68.6516 35.7829Z" fill="#007C00" stroke="#001F00" stroke-width="0.119882" stroke-linecap="round" stroke-linejoin="bevel"/>
<path fill-rule="evenodd" clip-rule="evenodd" d="M45.4657 39.3828C51.4171 38.9248 56.8343 36.7836 54.753 25.8434C48.4293 26.8932 44.5322 31.2656 45.4657 39.3828ZM46.4556 37.9817L47.9893 35.8093L46.3217 35.8697L48.0894 35.5285L49.945 33.0076L46.9539 32.9068L50.0543 32.7294L51.5932 30.6361L49.1133 29.9705L51.8454 30.3068L54.2475 27.0042L51.8291 30.8755L52.2175 35.2588L51.5504 31.172L49.4692 34.2835L50.0283 37.3927L49.2296 34.5247C48.305 35.848 48.3132 35.8382 46.4556 37.9817Z" fill="#006C00" stroke="#00BB00" stroke-width="0.130477" stroke-linecap="round" stroke-linejoin="bevel"/>
<path fill-rule="evenodd" clip-rule="evenodd" d="M64.7706 38.1484C66.0457 32.3171 65.5551 26.5128 54.4789 25.3558C53.6633 31.7139 56.7285 36.705 64.7706 38.1484ZM63.7139 36.7969L62.0751 34.7027L61.6528 36.317L61.835 34.526L59.9552 32.0231L58.9975 34.8585L59.7203 31.8383L58.1588 29.7618L56.8073 31.9451L57.9161 29.4255L55.445 26.1741L58.4559 29.6049L62.7654 30.495L58.6596 29.9571L61.0401 32.8461L64.1786 33.2059L61.2021 33.145C62.2031 34.4115 62.1961 34.4008 63.7139 36.7969Z" fill="#007000" stroke="#004B00" stroke-width="0.130477" stroke-linecap="round" stroke-linejoin="bevel"/>
<path fill-rule="evenodd" clip-rule="evenodd" d="M58.0312 11.2402C53.9861 14.246 50.7985 18.2476 55.3966 25.3438C59.5334 21.7367 61.0143 16.7793 58.0312 11.2402ZM57.7384 12.7128L57.2851 14.9951L58.4381 14.2029L57.2954 15.2462L56.7162 17.9287L58.8441 16.661L56.7192 18.1819L56.2396 20.4086L58.1708 19.7848L56.157 20.7634L55.4184 24.265L56.0054 20.3388L54.4757 17.2958L56.1159 19.996L56.6841 16.7787L55.4 14.7475L56.7831 16.4942C57.0524 15.1082 57.0495 15.1192 57.7384 12.7128Z" fill="#008400" stroke="#005700" stroke-width="0.104685" stroke-linecap="round" stroke-linejoin="bevel"/>
<path fill-rule="evenodd" clip-rule="evenodd" d="M65.4055 19.349C60.9772 18.606 56.4387 19.0286 54.7188 26.3636C59.59 26.7942 63.6888 24.685 65.4055 19.349ZM64.2788 20.0699L62.5327 21.1878L63.7535 21.4393L62.3778 21.3494L60.2969 22.6335L62.425 23.2178L60.1361 22.7916L58.4095 23.8582L60.0026 24.7138L58.1307 24.0243L55.4252 25.7116L58.3099 23.6647L59.3203 20.8033L58.5982 23.5241L61.0159 21.9029L61.528 19.8239L61.2597 21.7908C62.3164 21.1081 62.3076 21.113 64.2788 20.0699Z" fill="#00C500" stroke="#003A00" stroke-width="0.0932719" stroke-linecap="round" stroke-linejoin="bevel"/>
<path fill-rule="evenodd" clip-rule="evenodd" d="M39.3594 21.7332C42.3403 26.9046 46.6091 30.8679 55.5808 24.2703C51.9054 19.0183 46.2795 17.389 39.3594 21.7332ZM41.0505 22.0217L43.672 22.4681L42.8981 20.9897L43.9685 22.4372L47.0433 23.0236L45.8437 20.2818L47.3414 23.0022L49.8938 23.4874L49.4244 20.963L50.2997 23.5728L54.3155 24.315L49.7796 23.8035L45.9929 26.045L49.3919 23.68L45.687 23.1448L43.1232 24.9907L45.366 23.0328C43.7733 22.7696 43.7857 22.7727 41.0505 22.0217Z" fill="#007400" stroke="#002F00" stroke-width="0.130477" stroke-linecap="round" stroke-linejoin="bevel"/>
<path fill-rule="evenodd" clip-rule="evenodd" d="M70.8351 29.2963C68.6001 24.2251 65.0863 20.1282 56.3438 25.244C59.2018 30.4629 64.1595 32.5574 70.8351 29.2963ZM69.3265 28.8517L66.988 28.1634L67.556 29.6048L66.7161 28.1604L63.9787 27.2953L64.8181 29.9436L63.7065 27.2833L61.4341 26.5666L61.6306 28.9377L61.0734 26.445L57.4963 25.3369L61.5664 26.2881L65.2071 24.6283L61.9071 26.4427L65.221 27.3275L67.7155 25.9019L65.502 27.4646C66.9236 27.8754 66.9125 27.8712 69.3265 28.8517Z" fill="#00C900" stroke="#00B300" stroke-width="0.119882" stroke-linecap="round" stroke-linejoin="bevel"/>
<path fill-rule="evenodd" clip-rule="evenodd" d="M49.2324 36.25C53.6046 34.9301 57.3995 32.6672 54.68 26.2956C50.0946 28.0447 47.6683 31.416 49.2324 36.25ZM49.8175 35.2148L50.7239 33.6101L49.4915 33.9381L50.7682 33.4198L51.8763 31.5443L49.6434 32.0039L51.9277 31.3541L52.8465 29.7971L50.9328 29.8198L52.9985 29.5504L54.4289 27.0983L53.0474 29.9033L53.8061 32.5338L52.8722 30.1344L51.6597 32.4128L52.4086 34.2293L51.5076 32.603C50.9626 33.5789 50.9676 33.5714 49.8175 35.2148Z" fill="#005500" stroke="#007400" stroke-width="0.0900223" stroke-linecap="round" stroke-linejoin="bevel"/>
<path fill-rule="evenodd" clip-rule="evenodd" d="M58.8904 35.5C60.3695 31.5381 60.83 27.4728 54.6099 25.9038C53.3275 30.2635 54.4513 33.9418 58.8904 35.5ZM58.4557 34.4883L57.7815 32.9206L57.3321 34.0126L57.666 32.7812L56.9055 30.913L55.9921 32.8161L56.7941 30.7684L56.162 29.2183L55.1056 30.6413L56.0655 28.9679L55.0607 26.5389L56.3529 29.1298L58.7167 30.0459L56.425 29.3885L57.4239 31.5596L59.1824 32.0264L57.4788 31.7784C57.8924 32.7272 57.8896 32.7193 58.4557 34.4883Z" fill="#00BD00" stroke="#009B00" stroke-width="0.0833587" stroke-linecap="round" stroke-linejoin="bevel"/>
<path fill-rule="evenodd" clip-rule="evenodd" d="M52.7625 34.9492C55.8545 33.0203 58.3052 30.4857 54.8812 26.1457C51.7146 28.4496 50.5492 31.5524 52.7625 34.9492ZM52.9971 34.0298L53.3604 32.6047L52.4798 33.1145L53.3548 32.4489L53.817 30.7732L52.1932 31.5931L53.8169 30.616L54.1996 29.2251L52.7304 29.6419L54.2652 29.0034L54.8553 26.8164L54.3766 29.265L55.5097 31.1327L54.2899 29.4795L53.8314 31.4873L54.7872 32.7301L53.7539 31.6656C53.5379 32.5309 53.54 32.5241 52.9971 34.0298Z" fill="#007100" stroke="#001600" stroke-width="0.0718333" stroke-linecap="round" stroke-linejoin="bevel"/>
<path fill-rule="evenodd" clip-rule="evenodd" d="M46.7227 29.0545C49.7301 30.2325 52.9229 30.6486 54.8021 26.0121C51.4579 24.9747 48.4132 25.7532 46.7227 29.0545ZM47.5727 28.7462L48.8902 28.2679L48.0655 27.912L49.0129 28.1838L50.5785 27.6461L49.1544 26.9281L50.7049 27.5651L52.0041 27.1181L50.977 26.3013L52.2133 27.0501L54.2504 26.339L52.0553 27.2628L51.0863 29.0192L51.8418 27.3123L50.0108 28.0236L49.461 29.3339L49.8309 28.0609C49.0331 28.3545 49.0397 28.3525 47.5727 28.7462Z" fill="#00B100" stroke="#00A900" stroke-width="0.0645275" stroke-linecap="round" stroke-linejoin="bevel"/>
<path fill-rule="evenodd" clip-rule="evenodd" d="M43.7539 19.7444C45.1214 24.0213 47.5757 27.8623 54.8839 26.0321C53.0358 21.5046 49.2836 18.8267 43.7539 19.7444ZM44.9108 20.4159L46.7042 21.4561L46.3687 20.2557L46.9188 21.5198L49.0133 22.7816L48.5581 20.6221L49.2275 22.852L50.9664 23.8985L50.9974 22.0905L51.2417 24.0703L53.9807 25.7027L50.84 24.0757L47.8336 24.4879L50.583 23.8838L48.0346 22.477L45.9519 22.9739L47.8233 22.3116C46.7324 21.6849 46.7409 21.6905 44.9108 20.4159Z" fill="#009A00" stroke="#005F00" stroke-width="0.0932719" stroke-linecap="round" stroke-linejoin="bevel"/>
<path fill-rule="evenodd" clip-rule="evenodd" d="M51.2936 18.2099C50.334 21.294 50.1476 24.5084 54.9067 26.0508C55.702 22.6408 54.7075 19.6597 51.2936 18.2099ZM51.662 19.0358L52.2333 20.3156L52.5293 19.4675L52.326 20.4319L52.9745 21.955L53.5887 20.4832L53.0643 22.0753L53.6032 23.3391L54.3444 22.2562L53.686 23.543L54.5411 25.5239L53.4626 23.4005L51.6412 22.5598L53.3979 23.1912L52.5573 21.4158L51.211 20.9613L52.5072 21.2391C52.1573 20.4643 52.1597 20.4707 51.662 19.0358Z" fill="#00C700" stroke="#00FE00" stroke-width="0.0645275" stroke-linecap="round" stroke-linejoin="bevel"/>
<path fill-rule="evenodd" clip-rule="evenodd" d="M62.8666 23.1044C59.8822 21.8691 56.698 21.3921 54.7305 25.9918C58.0543 27.0929 61.1133 26.3727 62.8666 23.1044ZM62.0108 23.3964L60.6844 23.8493L61.5022 24.221L60.5602 23.9311L58.9846 24.4389L60.3947 25.1839L58.8566 24.5174L57.5492 24.9394L58.5604 25.7758L57.3387 25.0034L55.2883 25.6755L57.5008 24.7938L58.5031 23.0562L57.7151 24.7484L59.5594 24.0723L60.1341 22.7726L59.7399 24.0384C60.5433 23.7601 60.5366 23.7619 62.0108 23.3964Z" fill="#006500" stroke="#00A400" stroke-width="0.0645275" stroke-linecap="round" stroke-linejoin="bevel"/>
<path fill-rule="evenodd" clip-rule="evenodd" d="M62.6238 30.6371C61.686 27.1155 59.9811 24.0296 54.8281 26.031C56.1025 29.7338 58.7275 31.7574 62.6238 30.6371ZM61.8136 30.1432L60.5576 29.3782L60.7868 30.3697L60.407 29.3379L58.9404 28.4048L59.2483 30.1977L58.79 28.3589L57.5724 27.5852L57.5403 29.112L57.3797 27.4575L55.4617 26.2523L57.6624 27.4278L59.7802 26.8919L57.8421 27.5736L59.6273 28.6004L61.0957 28.0509L59.7751 28.7268C60.539 29.187 60.5331 29.1828 61.8136 30.1432Z" fill="#004400" stroke="#004A00" stroke-width="0.0718333" stroke-linecap="round" stroke-linejoin="bevel"/>
<path fill-rule="evenodd" clip-rule="evenodd" d="M82.769 31.333C77.8768 30.9554 73.21 31.9833 73.5443 40.9453C78.8123 40.8987 82.5208 37.9064 82.769 31.333ZM81.7909 32.3242L80.2755 33.861L81.6378 34.0209L80.1593 34.072L78.3391 35.8459L80.7568 36.2989L78.2158 36.0534L76.7059 37.5267L78.6382 38.3654L76.4602 37.7572L74.099 40.0849L76.544 37.3069L76.7719 33.7718L76.8071 37.1058L78.8839 34.8902L78.8152 32.3472L79.1085 34.7282C80.0238 33.7908 80.0159 33.7977 81.7909 32.3242Z" fill="#00DB00" stroke="#001F00" stroke-width="0.10614" stroke-linecap="round" stroke-linejoin="bevel"/>
<path fill-rule="evenodd" clip-rule="evenodd" d="M75.0413 28.2949C70.5689 30.3131 66.969 33.4559 71.5661 41.1562C76.1645 38.5854 77.9804 34.1798 75.0413 28.2949ZM74.6594 29.634L74.0682 31.7099L75.3399 31.1959L74.0676 31.9506L73.3229 34.3807L75.6611 33.6171L73.3145 34.6219L72.6976 36.6395L74.7953 36.447L72.5927 36.9595L71.6395 40.1353L72.45 36.5243L70.9522 33.314L72.5842 36.2216L73.3418 33.2808L72.0603 31.0832L73.461 33.0308C73.8137 31.769 73.8101 31.7789 74.6594 29.634Z" fill="#003C00" stroke="#00C000" stroke-width="0.10614" stroke-linecap="round" stroke-linejoin="bevel"/>
<path fill-rule="evenodd" clip-rule="evenodd" d="M56.1914 35.5973C56.9726 40.4414 59.0672 44.7367 67.7004 42.3081C66.4185 37.1982 62.6393 34.2957 56.1914 35.5973ZM57.3844 36.3154L59.2341 37.4278L59.0697 36.066L59.4663 37.4912L61.618 38.8442L61.4909 36.3877L61.8486 38.9153L63.6352 40.0372L63.9969 37.962L63.9169 40.222L66.7338 41.9709L63.4595 40.2462L59.9696 40.8544L63.2023 40.0377L60.5611 38.5389L58.1052 39.2026L60.3509 38.3586C59.2248 37.689 59.2334 37.695 57.3844 36.3154Z" fill="#00EE00" stroke="#00BF00" stroke-width="0.10614" stroke-linecap="round" stroke-linejoin="bevel"/>
<path fill-rule="evenodd" clip-rule="evenodd" d="M59.7934 31.4046C59.2818 36.2845 60.1812 40.9778 69.1491 40.8894C69.2469 35.6221 66.3574 31.8329 59.7934 31.4046ZM60.7574 32.4094L62.2521 33.9665L62.4492 32.609L62.4597 34.0883L64.1831 35.9565L64.7022 33.5522L64.3871 36.0855L65.8185 37.6352L66.7098 35.7266L66.0421 37.8872L68.3042 40.3113L65.5943 37.7911L62.0667 37.4662L65.4005 37.5225L63.2426 35.3857L60.6987 35.3847L63.0869 35.1568C62.1749 34.2161 62.1816 34.2242 60.7574 32.4094Z" fill="#00D500" stroke="#00FB00" stroke-width="0.10614" stroke-linecap="round" stroke-linejoin="bevel"/>
<path fill-rule="evenodd" clip-rule="evenodd" d="M55.8672 50.673C60.4689 52.3758 65.2388 52.6653 67.3715 43.9543C62.2921 42.5565 57.9059 44.4189 55.8672 50.673ZM57.0793 49.9875L58.9576 48.9245L57.6911 48.3976L59.1271 48.7534L61.3635 47.5457L59.1623 46.4479L61.5389 47.3799L63.3946 46.3764L61.7658 45.0406L63.694 46.222L66.6024 44.6299L63.4902 46.6321L62.3028 49.9698L63.182 46.7535L60.5778 48.3157L59.9475 50.7804L60.3175 48.41C59.1805 49.061 59.1899 49.0565 57.0793 49.9875Z" fill="#00A300" stroke="#002C00" stroke-width="0.10614" stroke-linecap="round" stroke-linejoin="bevel"/>
<path fill-rule="evenodd" clip-rule="evenodd" d="M60.8509 54.9297C65.7542 54.746 70.2731 53.1917 68.9172 44.3265C63.689 44.9747 60.3466 48.3711 60.8509 54.9297ZM61.7094 53.8333L63.0393 52.1334L61.6676 52.1302L63.1306 51.9106L64.7363 49.9403L62.2827 49.7664L64.835 49.7201L66.1668 48.0839L64.1513 47.4715L66.3846 47.8269L68.4644 45.2447L66.3528 48.2838L66.5301 51.8219L66.1143 48.5136L64.3042 50.952L64.663 53.4705L64.0996 51.1386C63.2974 52.1745 63.3044 52.1667 61.7094 53.8333Z" fill="#005C00" stroke="#007700" stroke-width="0.10614" stroke-linecap="round" stroke-linejoin="bevel"/>
<path fill-rule="evenodd" clip-rule="evenodd" d="M73.571 58.4922C77.1392 55.1242 79.5154 50.9781 72.6557 45.2011C69.1489 49.1326 68.8713 53.8897 73.571 58.4922ZM73.4947 57.1018L73.3756 54.9468L72.3414 55.8479L73.2975 54.719L73.2078 52.1789L71.2472 53.6643L73.137 51.9481L73.0613 49.8399L71.1414 50.7067L73.0558 49.503L72.9198 46.1901L73.3329 49.8677L75.7969 52.4129L73.3049 50.1977L73.5491 53.2247L75.478 54.8833L73.5181 53.4999C73.5968 54.8077 73.597 54.7972 73.4947 57.1018Z" fill="#00E900" stroke="#009800" stroke-width="0.10614" stroke-linecap="round" stroke-linejoin="bevel"/>
<path fill-rule="evenodd" clip-rule="evenodd" d="M82.1353 55.2812C83.3114 50.5177 83.0642 45.7453 74.169 44.6028C73.3496 49.8069 75.692 53.9567 82.1353 55.2812ZM81.3182 54.1538L80.0512 52.4063L79.6697 53.7239L79.8623 52.2571L78.4114 50.1702L77.5674 52.4806L78.227 50.0145L77.0218 48.2831L75.8771 50.0514L76.8348 48.0028L74.9266 45.2914L77.2652 48.1595L80.7149 48.9651L77.4203 48.452L79.2647 50.8647L81.7844 51.2146L79.3876 51.1129C80.1619 52.1697 80.1564 52.1608 81.3182 54.1538Z" fill="#002500" stroke="#00B900" stroke-width="0.10614" stroke-linecap="round" stroke-linejoin="bevel"/>
<path fill-rule="evenodd" clip-rule="evenodd" d="M86.8754 46.6038C84.5852 42.2644 81.2264 38.8653 73.8242 43.9287C76.6738 48.3597 81.183 49.9003 86.8754 46.6038ZM85.5153 46.3053L83.407 45.8432L83.9985 47.0809L83.1667 45.8575L80.6952 45.2642L81.6017 47.5508L80.4539 45.2706L78.4023 44.7793L78.7237 46.8611L78.0763 44.6944L74.8479 43.9389L78.5018 44.5251L81.6137 42.8322L78.8123 44.6404L81.7943 45.2152L83.9086 43.8005L82.0511 45.3187C83.3322 45.5929 83.3222 45.5899 85.5153 46.3053Z" fill="#00AC00" stroke="#007500" stroke-width="0.10614" stroke-linecap="round" stroke-linejoin="bevel"/>
<path fill-rule="evenodd" clip-rule="evenodd" d="M67.6901 56.9766C72.42 54.6192 76.1513 51.0589 70.8012 42.7768C65.9628 45.7435 64.2216 50.6282 67.6901 56.9766ZM68.0357 55.4975L68.5706 53.2046L67.2226 53.8094L68.5592 52.941L69.2421 50.255L66.7547 51.1683L69.2392 49.9904L69.8047 47.7607L67.5486 48.0404L69.902 47.4066L70.773 43.8973L70.0779 47.8785L71.856 51.3452L69.948 48.2145L69.2766 51.4602L70.7706 53.8248L69.1604 51.7378C68.8425 53.1313 68.8459 53.1205 68.0357 55.4975Z" fill="#002400" stroke="#00EE00" stroke-width="0.115521" stroke-linecap="round" stroke-linejoin="bevel"/>
<path fill-rule="evenodd" clip-rule="evenodd" d="M83.1166 49.5377C82.2211 44.3294 79.886 39.7309 70.4141 42.4696C71.862 47.9574 76.0384 51.0314 83.1166 49.5377ZM81.7997 48.7809L79.758 47.6085L79.949 49.0735L79.5022 47.5434L77.1266 46.116L77.285 48.761L76.8724 46.0427L74.9 44.859L74.5181 47.1001L74.5889 44.664L71.479 42.8193L75.0915 44.6314L78.9233 43.9267L75.3759 44.8525L78.2907 46.43L80.9853 45.6802L78.5231 46.6213C79.7661 47.3269 79.7567 47.3206 81.7997 48.7809Z" fill="#00D800" stroke="#00CE00" stroke-width="0.115521" stroke-linecap="round" stroke-linejoin="bevel"/>
<path fill-rule="evenodd" clip-rule="evenodd" d="M68.6273 29.7089C66.3095 33.5216 65.0268 37.8657 71.1618 42.1562C73.3545 37.8197 72.9188 33.2598 68.6273 29.7089ZM68.8773 31.0142L69.2654 33.0377L69.9475 32.0037L69.3574 33.2402L69.7754 35.6339L71.0991 33.8853L69.8622 35.8405L70.2101 37.8269L71.5868 36.6721L70.2605 38.1455L70.8205 41.264L69.9948 37.8475L67.7266 35.8605L69.9713 37.5296L69.3662 34.701L67.6364 33.4622L69.3527 34.4347C69.1122 33.208 69.1134 33.2178 68.8773 31.0142Z" fill="#00B500" stroke="#00E700" stroke-width="0.0926856" stroke-linecap="round" stroke-linejoin="bevel"/>
<path fill-rule="evenodd" clip-rule="evenodd" d="M77.3767 33.9058C73.4964 34.7707 69.9138 36.6286 70.9451 43.2188C75.0846 41.95 77.7451 38.855 77.3767 33.9058ZM76.6924 34.8723L75.6322 36.3708L76.7174 36.1707L75.5589 36.555L74.2793 38.3013L76.2197 38.0721L74.2001 38.4846L73.1388 39.9345L74.7306 40.1059L72.9653 40.1636L71.3076 42.4486L72.9925 39.8088L72.8688 37.125L73.1823 39.5975L74.6259 37.4626L74.3538 35.5864L74.7886 37.2893C75.4282 36.3774 75.4226 36.3844 76.6924 34.8723Z" fill="#003E00" stroke="#000B00" stroke-width="0.0825809" stroke-linecap="round" stroke-linejoin="bevel"/>
<path fill-rule="evenodd" clip-rule="evenodd" d="M56.8008 44.5308C60.9681 47.7808 65.7898 49.6109 70.9533 41.2111C66.1894 38.1262 61.0315 38.6628 56.8008 44.5308ZM58.2842 44.2045L60.5835 43.6978L59.4563 42.7427L60.8164 43.5737L63.5342 43.031L61.6371 41.1811L63.7716 42.9142L66.0271 42.4624L64.8014 40.5477L66.3885 42.3974L69.9302 41.6691L66.0387 42.7597L63.6784 45.8595L65.6795 42.7875L62.4618 43.5821L60.9732 45.9501L62.1612 43.597C60.7669 43.9114 60.7781 43.9099 58.2842 44.2045Z" fill="#00F900" stroke="#001400" stroke-width="0.115521" stroke-linecap="round" stroke-linejoin="bevel"/>
<path fill-rule="evenodd" clip-rule="evenodd" d="M85.1441 40.25C81.622 36.8338 77.3752 34.6428 71.9062 41.7506C75.9886 45.0806 80.7534 45.1481 85.1441 40.25ZM83.7585 40.3876L81.6108 40.6016L82.5566 41.595L81.3867 40.6896L78.853 40.8913L80.4234 42.7845L78.6256 40.9722L76.5227 41.1408L77.4734 43.0206L76.1864 41.1611L72.8828 41.4431L76.5386 40.8683L78.9726 38.2944L76.8695 40.8817L79.8827 40.5042L81.4546 38.504L80.159 40.523C81.462 40.3867 81.4516 40.387 83.7585 40.3876Z" fill="#008C00" stroke="#007D00" stroke-width="0.10614" stroke-linecap="round" stroke-linejoin="bevel"/>
<path fill-rule="evenodd" clip-rule="evenodd" d="M69.7386 53.1562C72.886 50.6177 75.2458 47.4976 70.8933 43.1759C67.7139 46.1376 66.8459 49.7113 69.7386 53.1562ZM69.874 52.1123L70.0832 50.4939L69.1814 51.1734L70.0562 50.3231L70.3408 48.4155L68.662 49.536L70.3197 48.2422L70.555 46.659L68.9926 47.3149L70.5976 46.406L70.9546 43.9181L70.7552 46.6792L72.2534 48.5848L70.6884 46.9272L70.4523 49.2001L71.6715 50.4409L70.3908 49.4068C70.2687 50.3888 70.2703 50.3811 69.874 52.1123Z" fill="#005600" stroke="#006C00" stroke-width="0.0797037" stroke-linecap="round" stroke-linejoin="bevel"/>
<path fill-rule="evenodd" clip-rule="evenodd" d="M77.4138 49.3253C77.3081 45.5825 76.3323 42.0941 70.707 42.878C71.1066 46.8816 73.2532 49.5251 77.4138 49.3253ZM76.7204 48.6401L75.6452 47.5784L75.6402 48.624L75.5041 47.5026L74.2581 46.2231L74.1424 48.0885L74.1186 46.1416L73.0839 45.0804L72.6911 46.5995L72.9214 44.9071L71.2883 43.2489L73.2111 44.9442L75.4553 44.9087L73.3563 45.1325L74.8988 46.581L76.4968 46.3784L75.0167 46.7422C75.6718 47.3829 75.6669 47.3773 76.7204 48.6401Z" fill="#003B00" stroke="#005100" stroke-width="0.073804" stroke-linecap="round" stroke-linejoin="bevel"/>
<path fill-rule="evenodd" clip-rule="evenodd" d="M72.2013 50.9141C74.0957 48.3021 75.2622 45.4068 71.0082 42.9864C69.1774 45.9309 69.2546 48.8643 72.2013 50.9141ZM72.0877 50.0817L71.9112 48.7916L71.3584 49.5031L71.8547 48.6657L71.6759 47.1371L70.6167 48.3504L71.6235 47.0081L71.4744 45.7396L70.4079 46.5708L71.4544 45.5359L71.2103 43.5452L71.6328 45.7134L73.1843 46.8684L71.6331 45.9183L71.9255 47.7181L73.1234 48.4194L71.9213 47.8902C72.0321 48.672 72.0317 48.6656 72.0877 50.0817Z" fill="#007A00" stroke="#00E400" stroke-width="0.0635996" stroke-linecap="round" stroke-linejoin="bevel"/>
<path fill-rule="evenodd" clip-rule="evenodd" d="M65.2812 48.0859C68.1407 48.051 70.8987 47.3293 70.8966 42.8999C67.8076 43.1623 65.5691 44.8147 65.2812 48.0859ZM65.8761 47.55L66.7977 46.719L66.0026 46.7015L66.8703 46.6091L67.9757 45.6466L66.5683 45.5318L68.0524 45.5381L68.9694 44.7389L67.8549 44.4107L69.1184 44.6134L70.5529 43.3518L69.0596 44.8405L68.8493 46.6041L68.901 44.9522L67.6356 46.1454L67.6208 47.4034L67.5005 46.2359C66.9437 46.7424 66.9485 46.7386 65.8761 47.55Z" fill="#001000" stroke="#00EF00" stroke-width="0.0571312" stroke-linecap="round" stroke-linejoin="bevel"/>
<path fill-rule="evenodd" clip-rule="evenodd" d="M59.7461 41.4415C62.292 44.4949 65.5844 46.8289 70.9705 42.894C67.9469 39.7951 63.9771 38.8475 59.7461 41.4415ZM60.9187 41.6072L62.7364 41.8635L62.0615 40.9904L62.9336 41.8443L65.0721 42.1821L63.9797 40.562L65.2713 42.1685L67.0463 42.448L66.4697 40.9544L67.3294 42.4973L70.1199 42.9245L67.0016 42.6355L64.6724 43.9746L66.7269 42.5636L64.1677 42.2581L62.6246 43.3591L63.9393 42.1927C62.8358 42.0418 62.8445 42.0435 60.9187 41.6072Z" fill="#00EF00" stroke="#007100" stroke-width="0.0825809" stroke-linecap="round" stroke-linejoin="bevel"/>
<path fill-rule="evenodd" clip-rule="evenodd" d="M65.4219 37.6666C65.6615 40.5163 66.5789 43.2153 70.9968 42.8961C70.5138 39.8338 68.7053 37.7193 65.4219 37.6666ZM65.9991 38.2215L66.8939 39.0812L66.8544 38.2868L67.0087 39.1457L68.0479 40.1794L68.0616 38.7673L68.1616 40.2481L69.0244 41.1055L69.272 39.9703L69.1603 41.2452L70.5214 42.5856L68.9295 41.2027L67.1554 41.1194L68.8068 41.0525L67.5261 39.8759L66.2702 39.9513L67.4261 39.7476C66.881 39.2285 66.8851 39.233 65.9991 38.2215Z" fill="#00A900" stroke="#00D500" stroke-width="0.0571312" stroke-linecap="round" stroke-linejoin="bevel"/>
<path fill-rule="evenodd" clip-rule="evenodd" d="M76.5454 37.8284C73.6858 37.8087 70.9146 38.4777 70.832 42.9062C73.9255 42.703 76.1952 41.0936 76.5454 37.8284ZM75.9405 38.353L75.0032 39.1662L75.7979 39.1988L74.9285 39.2747L73.8049 40.2159L75.2099 40.3575L73.7261 40.3228L72.7941 41.1045L73.9021 41.4538L72.6427 41.2271L71.1844 42.461L72.7059 41.0011L72.9496 39.2418L72.8666 40.8924L74.1545 39.7238L74.1932 38.4661L74.2913 39.6357C74.8577 39.14 74.8529 39.1438 75.9405 38.353Z" fill="#006400" stroke="#004C00" stroke-width="0.0571312" stroke-linecap="round" stroke-linejoin="bevel"/>
<path fill-rule="evenodd" clip-rule="evenodd" d="M78.8588 44.0969C76.9169 41.5201 74.4907 39.5561 70.9297 42.9138C73.2082 45.5272 76.0354 46.3133 78.8588 44.0969ZM78.0297 43.9615L76.7446 43.7521L77.2627 44.4892L76.6076 43.7692L75.0937 43.4921L75.9433 44.8604L74.9551 43.5044L73.6986 43.2751L74.1806 44.5384L73.4979 43.2345L71.5232 42.8844L73.72 43.116L75.279 41.9712L73.916 43.1758L75.7224 43.4238L76.7441 42.4841L75.8857 43.4782C76.6657 43.6014 76.6595 43.6 78.0297 43.9615Z" fill="#008B00" stroke="#00AC00" stroke-width="0.0635996" stroke-linecap="round" stroke-linejoin="bevel"/>
<path fill-rule="evenodd" clip-rule="evenodd" d="M56.3968 49.6542C53.4391 54.3409 52.0038 59.5439 61.1306 63.9375C63.8629 58.6517 62.8307 53.3695 56.3968 49.6542ZM56.8708 51.1538L57.6062 53.478L58.4845 52.2018L57.7556 53.7053L58.5671 56.4589L60.2949 54.2833L58.7093 56.6915L59.3842 58.9767L61.2411 57.4892L59.4848 59.3436L60.5639 62.9297L59.0793 59.0224L55.6689 56.93L59.0172 58.6536L57.9 55.4106L55.324 54.1379L57.8566 55.1009C57.4032 53.6923 57.406 53.7038 56.8708 51.1538Z" fill="#00CC00" stroke="#00DB00" stroke-width="0.119882" stroke-linecap="round" stroke-linejoin="bevel"/>
<path fill-rule="evenodd" clip-rule="evenodd" d="M49.2873 55.7667C48.9437 61.298 50.1835 66.551 60.299 66.0217C60.1571 60.0732 56.715 55.9357 49.2873 55.7667ZM50.4232 56.8545L52.1845 58.5399L52.342 56.9987L52.4247 58.6675L54.4589 60.6931L54.9296 57.9551L54.6953 60.8288L56.3847 62.5091L57.2991 60.3126L56.6492 62.7827L59.3179 65.4099L56.1392 62.6957L52.143 62.4981L55.9077 62.4019L53.3703 60.094L50.4996 60.2147L53.1835 59.8431C52.1094 58.8253 52.1173 58.8341 50.4232 56.8545Z" fill="#002C00" stroke="#005400" stroke-width="0.119882" stroke-linecap="round" stroke-linejoin="bevel"/>
<path fill-rule="evenodd" clip-rule="evenodd" d="M46.6328 78.442C51.8828 80.2171 57.2773 80.391 59.406 70.4878C53.6265 69.0726 48.7341 71.3158 46.6328 78.442ZM47.9793 77.6293L50.0659 76.3689L48.6192 75.8147L50.2518 76.1703L52.738 74.7352L50.2177 73.5663L52.9307 74.5423L54.9936 73.3499L53.1119 71.894L55.3267 73.166L58.5593 71.2753L55.1097 73.6356L53.8762 77.4418L54.7657 73.7825L51.8756 75.6297L51.243 78.4325L51.5847 75.7445C50.3219 76.5159 50.3324 76.5105 47.9793 77.6293Z" fill="#001900" stroke="#006200" stroke-width="0.119882" stroke-linecap="round" stroke-linejoin="bevel"/>
<path fill-rule="evenodd" clip-rule="evenodd" d="M44.3438 72.6308C48.9475 75.716 54.1091 77.2934 58.7514 68.2905C53.5425 65.4142 48.2341 66.3012 44.3438 72.6308ZM45.8557 72.1982L48.1992 71.5267L46.9475 70.6138L48.4304 71.3836L51.2053 70.648L49.0779 68.8612L51.4417 70.5122L53.7445 69.9002L52.3085 68.0032L54.1141 69.8097L57.7284 68.8293L53.7819 70.2063L51.5967 73.558L53.4115 70.2582L50.1391 71.2861L48.7962 73.8262L49.8284 71.3209C48.4079 71.7355 48.4194 71.7331 45.8557 72.1982Z" fill="#005D00" stroke="#00C200" stroke-width="0.119882" stroke-linecap="round" stroke-linejoin="bevel"/>
<path fill-rule="evenodd" clip-rule="evenodd" d="M61.5188 86.7148C65.6468 83.0173 68.4521 78.4062 60.8773 71.6812C56.8019 76.0168 56.3482 81.3797 61.5188 86.7148ZM61.4736 85.1428L61.4027 82.706L60.2085 83.693L61.3213 82.4466L61.2949 79.576L59.0374 81.1952L61.2218 79.3133L61.1984 76.9307L59.0052 77.8528L61.2022 76.5502L61.1463 72.8057L61.5043 76.9702L64.2113 79.9166L61.4629 77.342L61.6494 80.7668L63.7784 82.6964L61.6063 81.0766C61.6566 82.5555 61.6571 82.5437 61.4736 85.1428Z" fill="#008900" stroke="#000100" stroke-width="0.119882" stroke-linecap="round" stroke-linejoin="bevel"/>
<path fill-rule="evenodd" clip-rule="evenodd" d="M68.401 83.9883C70.8039 78.9944 71.6354 73.6615 62.0664 70.3392C59.9559 75.9026 61.5847 81.0323 68.401 83.9883ZM67.7588 82.5526L66.7626 80.3277L66.0359 81.6959L66.5883 80.119L65.4675 77.476L63.9996 79.8348L65.2997 77.2612L64.3681 75.0681L62.6933 76.758L64.2263 74.715L62.7446 71.2757L64.6658 74.9878L68.2929 76.677L64.7696 75.3472L66.25 78.4412L68.9546 79.4114L66.3285 78.744C66.9398 80.0916 66.9357 80.0805 67.7588 82.5526Z" fill="#00D800" stroke="#000E00" stroke-width="0.119882" stroke-linecap="round" stroke-linejoin="bevel"/>
<path fill-rule="evenodd" clip-rule="evenodd" d="M78.667 73.1594C77.1855 67.8192 74.2983 63.259 64.9102 67.0625C66.9868 72.6386 71.5914 75.4253 78.667 73.1594ZM77.2382 72.5022L75.0231 71.4844L75.3775 72.9925L74.7544 71.4422L72.1702 70.1919L72.6195 72.9335L71.9024 70.1408L69.757 69.1044L69.6099 71.479L69.4177 68.9321L66.0373 67.3204L69.928 68.8478L73.7698 67.7296L70.2429 69.0499L73.3948 70.4027L76.0687 69.3511L73.6532 70.5788C75.0009 71.19 74.9905 71.1843 77.2382 72.5022Z" fill="#008F00" stroke="#000400" stroke-width="0.119882" stroke-linecap="round" stroke-linejoin="bevel"/>
<path fill-rule="evenodd" clip-rule="evenodd" d="M79.9763 62.9099C75.8392 59.2225 70.9427 56.952 65.1094 65.2331C69.8746 68.7966 75.2545 68.6461 79.9763 62.9099ZM78.4192 63.1311L76.0058 63.4748L77.1204 64.5508L75.7571 63.5848L72.9075 63.9329L74.7697 65.9946L72.6547 64.035L70.2897 64.3253L71.452 66.4013L69.9112 64.3643L66.1966 64.8396L70.2947 64.017L72.919 60.9967L70.6688 64.0164L74.0511 63.4471L75.7298 61.1152L74.3638 63.4552C75.8277 63.2394 75.8159 63.2402 78.4192 63.1311Z" fill="#005D00" stroke="#007900" stroke-width="0.119882" stroke-linecap="round" stroke-linejoin="bevel"/>
<path fill-rule="evenodd" clip-rule="evenodd" d="M73.8164 53.6033C68.2745 53.6016 63.1079 55.163 64.2601 65.2266C70.1886 64.718 74.1059 61.0273 73.8164 53.6033ZM72.8008 54.8042L71.2272 56.6661L72.7751 56.7281L71.1147 56.9136L69.2184 59.0689L71.9802 59.3698L69.0975 59.3133L67.5246 61.1031L69.7733 61.8803L67.2679 61.3839L64.8103 64.2096L67.3232 60.8696L67.274 56.8687L67.6022 60.6203L69.7492 57.9454L69.4516 55.0876L69.9881 57.7436C70.9377 56.6087 70.9294 56.6171 72.8008 54.8042Z" fill="#004B00" stroke="#002300" stroke-width="0.119882" stroke-linecap="round" stroke-linejoin="bevel"/>
<path fill-rule="evenodd" clip-rule="evenodd" d="M74.0521 78.2399C74.1928 72.2726 72.6054 66.668 61.5117 67.6424C61.9224 74.0395 65.8822 78.3552 74.0521 78.2399ZM72.7572 77.1145L70.7495 75.3709L70.6424 77.0361L70.4801 75.2432L68.1579 73.1442L67.7579 76.1102L67.8921 73.0076L65.9636 71.2666L65.0527 73.6674L65.6612 70.9827L62.6159 68.2617L66.2253 71.056L70.6255 71.1088L66.4924 71.3629L69.3797 73.7455L72.5293 73.5008L69.5957 74.0081C70.8197 75.0606 70.8107 75.0515 72.7572 77.1145Z" fill="#008F00" stroke="#006C00" stroke-width="0.130477" stroke-linecap="round" stroke-linejoin="bevel"/>
<path fill-rule="evenodd" clip-rule="evenodd" d="M74.7635 58.9059C69.0894 57.0529 63.2652 56.9593 61.0039 67.8637C67.2483 69.3125 72.5214 66.763 74.7635 58.9059ZM73.3129 59.822L71.065 61.2426L72.6289 61.8246L70.8651 61.4637L68.1864 63.0833L70.9116 64.3203L67.9791 63.2985L65.7565 64.644L67.7933 66.2075L65.3976 64.8518L61.9149 66.9846L65.6301 64.3326L66.9477 60.1341L66.001 64.1652L69.1141 62.0863L69.7866 58.9996L69.4277 61.9551C70.7881 61.086 70.7768 61.092 73.3129 59.822Z" fill="#007100" stroke="#00C400" stroke-width="0.130477" stroke-linecap="round" stroke-linejoin="bevel"/>
<path fill-rule="evenodd" clip-rule="evenodd" d="M47.3125 62.9128C49.8977 67.2388 53.5595 70.8114 61.0809 66.9476C57.9066 62.4701 53.1226 60.4999 47.3125 62.9128ZM48.7482 63.3517L50.9736 64.0315L50.3008 62.8049L51.2244 64.0463L53.8355 64.8915L52.7874 62.6472L54.0876 64.9139L56.255 65.6143L55.8279 63.6302L56.5998 65.732L60.0097 66.8178L56.162 65.8403L52.9811 67.0573L55.8322 65.696L52.688 64.8082L50.5383 65.8822L52.4149 64.6812C51.0628 64.2743 51.0735 64.2783 48.7482 63.3517Z" fill="#009C00" stroke="#004600" stroke-width="0.104685" stroke-linecap="round" stroke-linejoin="bevel"/>
<path fill-rule="evenodd" clip-rule="evenodd" d="M56.1202 56.3906C54.9371 60.7221 54.9028 65.2802 62.0284 67.7266C62.9451 62.9231 61.2573 58.6334 56.1202 56.3906ZM56.7246 57.5839L57.6618 59.4332L58.0344 58.2437L57.8071 59.6035L58.8762 61.8027L59.6708 59.7438L59.0174 61.9784L59.9056 63.8032L60.9165 62.3039L60.0429 64.0973L61.4505 66.9583L59.703 63.883L56.9574 62.5909L59.5921 63.5821L58.2213 61.0141L56.2041 60.2962L58.1342 60.7602C57.5609 59.6405 57.5649 59.6497 56.7246 57.5839Z" fill="#005200" stroke="#00CC00" stroke-width="0.0932719" stroke-linecap="round" stroke-linejoin="bevel"/>
<path fill-rule="evenodd" clip-rule="evenodd" d="M55.8777 82.5469C61.3218 80.0993 65.693 76.2492 60.0277 66.6615C54.4338 69.7919 52.2489 75.2262 55.8777 82.5469ZM56.3343 80.8932L57.0411 78.3297L55.4926 78.9515L57.0401 78.0315L57.9317 75.031L55.0834 75.9498L57.9403 74.7323L58.6789 72.2413L56.1201 72.4554L58.8045 71.8461L59.9455 67.9248L58.9819 72.3866L60.8326 76.379L58.8202 72.76L57.9164 76.3927L59.4961 79.1285L57.7727 76.7008C57.3513 78.2591 57.3556 78.2471 56.3343 80.8932Z" fill="#004D00" stroke="#005800" stroke-width="0.130477" stroke-linecap="round" stroke-linejoin="bevel"/>
<path fill-rule="evenodd" clip-rule="evenodd" d="M66.5531 51.9838C61.2834 53.6994 56.855 56.7849 61.0689 65.9961C66.548 63.6756 69.1288 58.9527 66.5531 51.9838ZM65.9596 53.4403L65.0404 55.6981L66.5315 55.2775L65.0101 55.9684L63.875 58.6052L66.5942 58.0354L63.8358 58.8749L62.895 61.0641L65.2738 61.1062L62.7379 61.4106L61.2768 64.8588L62.6311 60.9045L61.3446 57.1158L62.8191 60.581L64.0316 57.3725L62.8631 54.7475L64.1961 57.1066C64.7473 55.7333 64.7421 55.7439 65.9596 53.4403Z" fill="#00C500" stroke="#004100" stroke-width="0.119882" stroke-linecap="round" stroke-linejoin="bevel"/>
<path fill-rule="evenodd" clip-rule="evenodd" d="M71.3115 74.1795C70.4364 69.6971 68.5652 65.6945 61.9531 67.7617C63.2339 72.4993 66.3451 75.2512 71.3115 74.1795ZM70.3402 73.4936L68.8343 72.4309L69.0372 73.69L68.6494 72.3678L66.8944 71.0773L67.128 73.345L66.7103 71.0071L65.2532 69.9369L65.0841 71.8433L65.023 69.7609L62.7267 68.092L65.379 69.7476L68.0724 69.2564L65.5914 69.9451L67.7368 71.3799L69.6192 70.8168L67.9109 71.5503C68.8273 72.1903 68.8202 72.1846 70.3402 73.4936Z" fill="#006E00" stroke="#00D500" stroke-width="0.0900223" stroke-linecap="round" stroke-linejoin="bevel"/>
<path fill-rule="evenodd" clip-rule="evenodd" d="M71.5394 64.4897C67.7456 62.6209 63.747 61.7553 61.5625 67.7868C65.7717 69.4997 69.5441 68.7503 71.5394 64.4897ZM70.4893 64.8208L68.8618 65.3345L69.9033 65.891L68.7116 65.4354L66.7765 66.0049L68.5785 67.1044L66.6215 66.1012L65.0158 66.5748L66.3258 67.7684L64.7571 66.6457L62.2396 67.402L64.947 66.3759L66.0953 64.1158L65.2116 66.3302L67.4719 65.5538L68.1125 63.851L67.695 65.5211C68.6805 65.2048 68.6724 65.2067 70.4893 64.8208Z" fill="#00BE00" stroke="#004000" stroke-width="0.0833587" stroke-linecap="round" stroke-linejoin="bevel"/>
<path fill-rule="evenodd" clip-rule="evenodd" d="M70.3749 70.5373C68.7657 67.2675 66.4894 64.5752 61.8281 67.547C63.8031 70.9286 66.7735 72.399 70.3749 70.5373ZM69.4837 70.2117L68.1022 69.7074L68.5211 70.6348L67.9466 69.6974L66.3257 69.0696L66.9787 70.7675L66.1692 69.054L64.8237 68.5337L65.0912 70.0373L64.6097 68.4462L62.4928 67.6399L64.8811 68.3617L66.853 67.4214L65.0859 68.4695L67.0376 69.1269L68.3699 68.3005L67.2072 69.2218C68.0465 69.5235 68.0399 69.5206 69.4837 70.2117Z" fill="#00B100" stroke="#005500" stroke-width="0.0718333" stroke-linecap="round" stroke-linejoin="bevel"/>
<path fill-rule="evenodd" clip-rule="evenodd" d="M63.9004 75.9531C65.3739 73.0789 66.1079 69.9439 61.6831 67.6094C60.3158 70.8329 60.7852 73.9402 63.9004 75.9531ZM63.6789 75.0764L63.3351 73.7177L62.8983 74.5026L63.2637 73.5872L62.8856 71.9755L62.0284 73.3205L62.8177 71.8416L62.5032 70.5042L61.5875 71.4442L62.4564 70.2892L61.9531 68.1911L62.6522 70.4678L64.3027 71.608L62.6801 70.6851L63.2043 72.5782L64.4529 73.2565L63.2234 72.7609C63.4355 73.5842 63.4342 73.5774 63.6789 75.0764Z" fill="#003800" stroke="#007700" stroke-width="0.0645275" stroke-linecap="round" stroke-linejoin="bevel"/>
<path fill-rule="evenodd" clip-rule="evenodd" d="M54.3412 77.9766C58.7336 77.0446 62.8013 74.9877 61.7128 67.5329C57.0228 68.9178 53.9824 72.3828 54.3412 77.9766ZM55.1252 76.8929L56.34 75.2127L55.112 75.4262L56.4248 75.0056L57.8903 73.0481L55.696 73.2845L57.9818 72.842L59.1972 71.2167L57.4014 71.0048L59.3958 70.96L61.2944 68.3985L59.3609 71.3603L59.4697 74.3929L59.1442 71.5967L57.4891 73.9914L57.7747 76.1134L57.3033 74.1851C56.5705 75.2076 56.5769 75.1997 55.1252 76.8929Z" fill="#00F500" stroke="#00C500" stroke-width="0.0932719" stroke-linecap="round" stroke-linejoin="bevel"/>
<path fill-rule="evenodd" clip-rule="evenodd" d="M53.5664 70.3147C56.5388 71.5785 59.7183 72.0862 61.7299 67.5056C58.4168 66.3725 55.3511 67.0633 53.5664 70.3147ZM54.425 70.0309L55.7557 69.5907L54.9415 69.2112L55.8807 69.5101L57.4611 69.0175L56.0582 68.259L57.5898 68.9402L58.9013 68.5308L57.8981 67.6848L59.1124 68.4688L61.1691 67.8165L58.9483 68.6768L57.9292 70.4047L58.7335 68.7202L56.8828 69.3786L56.2956 70.6726L56.7019 69.4108C55.896 69.6813 55.9026 69.6795 54.425 70.0309Z" fill="#000500" stroke="#009A00" stroke-width="0.0645275" stroke-linecap="round" stroke-linejoin="bevel"/>
<path fill-rule="evenodd" clip-rule="evenodd" d="M59.5994 59.2951C58.0712 62.1407 57.2775 65.2611 61.6568 67.6797C63.0856 64.483 62.6756 61.3672 59.5994 59.2951ZM59.8041 60.1759L60.1219 61.541L60.5736 60.7645L60.1908 61.6728L60.5381 63.2914L61.4207 61.963L60.6034 63.4266L60.8923 64.7697L61.8258 63.8474L60.9349 64.9856L61.398 67.0929L60.7426 64.8033L59.1142 63.6318L60.7188 64.5855L60.2309 62.6827L58.9955 61.9806L60.2153 62.4997C60.019 61.6725 60.0201 61.6793 59.8041 60.1759Z" fill="#009B00" stroke="#003D00" stroke-width="0.0645275" stroke-linecap="round" stroke-linejoin="bevel"/>
<path fill-rule="evenodd" clip-rule="evenodd" d="M67.0727 60.2911C63.4749 60.8712 60.2336 62.2583 61.7084 67.5859C65.5204 66.689 67.7969 64.2801 67.0727 60.2911ZM66.5001 61.0477L65.6131 62.2207L66.6225 62.092L65.5579 62.3665L64.4825 63.7322L66.2972 63.6056L64.4217 63.8772L63.5299 65.0112L65.0458 65.1961L63.3835 65.1901L61.9921 66.9776L63.3823 64.9059L63.0613 62.745L63.5454 64.7417L64.746 63.0683L64.3464 61.5523L64.8865 62.934C65.421 62.22 65.4162 62.2255 66.5001 61.0477Z" fill="#002000" stroke="#00F400" stroke-width="0.0718333" stroke-linecap="round" stroke-linejoin="bevel"/>
<path fill-rule="evenodd" clip-rule="evenodd" d="M62.6647 65.7483C62.6647 65.7483 57.3676 61.5673 54.6457 62.5149C51.6005 63.5751 49.8602 70.9219 49.8602 70.9219C49.8602 70.9219 47.9805 66.222 45.8507 65.7483C44.0062 65.3382 40.8066 68.3351 40.8066 68.3351C40.8066 68.3351 40.9317 61.4032 38.3491 60.4455C35.2984 59.3141 30.0715 65.619 30.0715 65.619C30.0715 65.619 30.6272 61.8807 29.5541 60.5748C27.7793 58.4148 21.5352 58.1174 21.5352 58.1174L26.062 52.0385C27.2637 50.4248 23.9926 49.5811 23.9926 49.5811C23.9926 49.5811 28.6519 46.9699 29.5541 44.6662C31.4345 39.8649 28.0021 29.275 28.0021 29.275C28.0021 29.275 36.2908 35.5706 40.1598 33.6725C42.559 32.4955 42.6173 26.0415 42.6173 26.0415C42.6173 26.0415 43.5606 31.1062 45.5921 31.4737C48.4496 31.9907 52.1883 25.7829 52.1883 25.7829C52.1883 25.7829 52.7475 30.0491 54.3871 30.9564C57.0228 32.4149 63.3114 29.5337 63.3114 29.5337C63.3114 29.5337 60.137 36.2301 61.63 39.1047C62.7056 41.1757 67.9676 42.0795 67.9676 42.0795C67.9676 42.0795 61.6308 45.6462 61.1126 48.805C60.604 51.9064 65.3808 57.212 65.3808 57.212C65.3808 57.212 63.5557 57.2297 63.0527 57.8587C61.4084 59.9152 62.6647 65.7483 62.6647 65.7483Z" fill="#5FD35F"/>
<path fill-rule="evenodd" clip-rule="evenodd" d="M61.6201 30.9831C54.7845 30.4555 48.2636 31.8917 48.7307 44.4141C56.0916 44.3489 61.2734 40.1678 61.6201 30.9831ZM60.2535 32.368L58.136 34.5154L60.0396 34.7388L57.9737 34.8101L55.4304 37.2888L58.8086 37.9218L55.2581 37.5788L53.1483 39.6374L55.8483 40.8092L52.805 39.9594L49.5057 43.2118L52.9221 39.3303L53.2406 34.3906L53.2897 39.0492L56.1917 35.9534L56.0956 32.4001L56.5054 35.727C57.7843 34.4172 57.7733 34.4268 60.2535 32.368Z" fill="#00D800" stroke="#00DC00" stroke-width="0.148307" stroke-linecap="round" stroke-linejoin="bevel"/>
<path fill-rule="evenodd" clip-rule="evenodd" d="M50.8253 26.7401C44.5761 29.5601 39.5461 33.9514 45.9696 44.7109C52.3948 41.1188 54.932 34.9629 50.8253 26.7401ZM50.2917 28.6112L49.4656 31.5116L51.2426 30.7934L49.4648 31.8481L48.4243 35.2437L51.6914 34.1766L48.4125 35.5807L47.5505 38.3996L50.4816 38.1308L47.404 38.847L46.072 43.2842L47.2046 38.2389L45.1117 33.7532L47.3921 37.8158L48.4507 33.7067L46.66 30.6361L48.6172 33.3575C49.11 31.5944 49.105 31.6082 50.2917 28.6112Z" fill="#003300" stroke="#005F00" stroke-width="0.148307" stroke-linecap="round" stroke-linejoin="bevel"/>
<path fill-rule="evenodd" clip-rule="evenodd" d="M24.4883 36.9346C25.5799 43.7031 28.5065 49.7047 40.5694 46.3114C38.7783 39.1715 33.4978 35.1158 24.4883 36.9346ZM26.1553 37.9379L28.7397 39.4923L28.51 37.5894L29.0642 39.5808L32.0707 41.4713L31.8931 38.039L32.393 41.5707L34.8893 43.1384L35.3946 40.2387L35.2829 43.3965L39.2189 45.8402L34.6439 43.4304L29.7675 44.2802L34.2844 43.1389L30.5939 41.0448L27.1624 41.9722L30.3002 40.7929C28.7268 39.8572 28.7387 39.8656 26.1553 37.9379Z" fill="#009D00" stroke="#000A00" stroke-width="0.148307" stroke-linecap="round" stroke-linejoin="bevel"/>
<path fill-rule="evenodd" clip-rule="evenodd" d="M29.5182 31.0813C28.8034 37.8999 30.0602 44.4577 42.5907 44.3342C42.7274 36.9743 38.69 31.6798 29.5182 31.0813ZM30.8652 32.4854L32.9537 34.661L33.2292 32.7642L33.2438 34.8313L35.6518 37.4417L36.3772 34.0821L35.937 37.6218L37.9369 39.7872L39.1824 37.1204L38.2495 40.1393L41.4102 43.5265L37.6237 40.005L32.6947 39.5511L37.3529 39.6298L34.3378 36.644L30.7832 36.6426L34.1201 36.3242C32.8459 35.0098 32.8552 35.0211 30.8652 32.4854Z" fill="#002000" stroke="#00FB00" stroke-width="0.148307" stroke-linecap="round" stroke-linejoin="bevel"/>
<path fill-rule="evenodd" clip-rule="evenodd" d="M24.0312 58.0057C30.4612 60.3851 37.126 60.7895 40.1059 48.6179C33.0086 46.6648 26.88 49.267 24.0312 58.0057ZM25.7248 57.048L28.3496 55.5625L26.5798 54.8264L28.5863 55.3235L31.7113 53.6361L28.6355 52.1022L31.9562 53.4044L34.5491 52.0022L32.2733 50.1358L34.9675 51.7865L39.0313 49.5619L34.6826 52.3595L33.0237 57.0231L34.252 52.5291L30.6133 54.712L29.7326 58.1557L30.2495 54.8438C28.6608 55.7533 28.674 55.747 25.7248 57.048Z" fill="#008700" stroke="#00D100" stroke-width="0.148307" stroke-linecap="round" stroke-linejoin="bevel"/>
<path fill-rule="evenodd" clip-rule="evenodd" d="M30.9959 63.9531C37.847 63.6964 44.1612 61.5247 42.2666 49.1376C34.9614 50.0433 30.2911 54.7889 30.9959 63.9531ZM32.1953 62.4212L34.0536 60.0459L32.137 60.0415L34.1812 59.7346L36.4247 56.9816L32.9964 56.7386L36.5627 56.6738L38.4236 54.3877L35.6073 53.532L38.7278 54.0285L41.634 50.4205L38.6834 54.667L38.9313 59.6106L38.3503 54.9881L35.821 58.3952L36.3224 61.9143L35.5351 58.656C34.4142 60.1033 34.4241 60.0925 32.1953 62.4212Z" fill="#00FD00" stroke="#005700" stroke-width="0.148307" stroke-linecap="round" stroke-linejoin="bevel"/>
<path fill-rule="evenodd" clip-rule="evenodd" d="M48.7702 68.9297C53.7559 64.2236 57.0762 58.4305 47.4913 50.3584C42.5913 55.8518 42.2034 62.4988 48.7702 68.9297ZM48.6635 66.987L48.4972 63.9757L47.0522 65.2349L48.3881 63.6575L48.2627 60.1083L45.5232 62.1838L48.1638 59.7858L48.058 56.84L45.3754 58.0512L48.0504 56.3694L47.8603 51.7404L48.4375 56.879L51.8804 60.4353L48.3984 57.3401L48.7396 61.5696L51.4349 63.8871L48.6963 61.9541C48.8063 63.7814 48.8065 63.7668 48.6635 66.987Z" fill="#008F00" stroke="#00D300" stroke-width="0.148307" stroke-linecap="round" stroke-linejoin="bevel"/>
<path fill-rule="evenodd" clip-rule="evenodd" d="M60.7375 64.4375C62.3809 57.7814 62.0355 51.1132 49.6065 49.5168C48.4616 56.7884 51.7346 62.5866 60.7375 64.4375ZM59.5959 62.862L57.8256 60.4205L57.2925 62.2615L57.5615 60.212L55.5343 57.296L54.355 60.5243L55.2766 57.0784L53.5926 54.6591L51.9931 57.1299L53.3313 54.2676L50.6651 50.4788L53.9327 54.4864L58.7529 55.6121L54.1495 54.8952L56.7266 58.2663L60.2473 58.7553L56.8983 58.613C57.9802 60.0897 57.9725 60.0773 59.5959 62.862Z" fill="#00A000" stroke="#000400" stroke-width="0.148307" stroke-linecap="round" stroke-linejoin="bevel"/>
<path fill-rule="evenodd" clip-rule="evenodd" d="M67.3611 52.3221C64.161 46.2588 59.4678 41.5092 49.125 48.5841C53.1066 54.7755 59.4073 56.9282 67.3611 52.3221ZM65.4607 51.9049L62.5148 51.2593L63.3413 52.9886L62.179 51.2793L58.7257 50.4502L59.9923 53.6453L58.3885 50.4592L55.5219 49.7727L55.9709 52.6816L55.0663 49.6541L50.5553 48.5984L55.6609 49.4175L60.009 47.052L56.0947 49.5786L60.2613 50.3818L63.2156 48.4051L60.6202 50.5264C62.4103 50.9095 62.3962 50.9053 65.4607 51.9049Z" fill="#002600" stroke="#00C000" stroke-width="0.148307" stroke-linecap="round" stroke-linejoin="bevel"/>
<path fill-rule="evenodd" clip-rule="evenodd" d="M40.5495 66.8125C47.1585 63.5186 52.3721 58.544 44.8966 46.9715C38.136 51.1168 35.703 57.9421 40.5495 66.8125ZM41.0324 64.7458L41.7798 61.5421L39.8963 62.3871L41.7638 61.1736L42.7181 57.4206L39.2425 58.6967L42.714 57.0509L43.5042 53.9354L40.3517 54.3262L43.64 53.4406L44.8571 48.5372L43.8859 54.1001L46.3704 58.9439L43.7044 54.5695L42.7663 59.1046L44.8538 62.4086L42.6038 59.4925C42.1597 61.4396 42.1645 61.4246 41.0324 64.7458Z" fill="#00F000" stroke="#007D00" stroke-width="0.161415" stroke-linecap="round" stroke-linejoin="bevel"/>
<path fill-rule="evenodd" clip-rule="evenodd" d="M62.1084 56.4195C60.857 49.142 57.5943 42.7167 44.3594 46.5434C46.3825 54.2113 52.2181 58.5065 62.1084 56.4195ZM60.2682 55.362L57.4154 53.7237L57.6823 55.7708L57.058 53.6329L53.7387 51.6384L53.96 55.3342L53.3835 51.5359L50.6274 49.8821L50.0939 53.0135L50.1927 49.6095L45.8474 47.032L50.895 49.5639L56.2491 48.5794L51.2924 49.8729L55.3652 52.0772L59.1303 51.0294L55.6899 52.3444C57.4267 53.3304 57.4136 53.3215 60.2682 55.362Z" fill="#00F700" stroke="#008400" stroke-width="0.161415" stroke-linecap="round" stroke-linejoin="bevel"/>
<path fill-rule="evenodd" clip-rule="evenodd" d="M41.8628 28.709C38.6242 34.0365 36.8319 40.1064 45.4042 46.1016C48.4681 40.0422 47.8593 33.6706 41.8628 28.709ZM42.2122 30.5331L42.7544 33.3603L43.7075 31.9157L42.883 33.6433L43.4671 36.9878L45.3166 34.5446L43.5883 37.2765L44.0744 40.0522L45.998 38.4386L44.1449 40.4973L44.9273 44.8548L43.7735 40.081L40.6044 37.3045L43.7408 39.6369L42.8953 35.6845L40.4783 33.9535L42.8764 35.3123C42.5403 33.5982 42.5421 33.6121 42.2122 30.5331Z" fill="#003E00" stroke="#00C900" stroke-width="0.129507" stroke-linecap="round" stroke-linejoin="bevel"/>
<path fill-rule="evenodd" clip-rule="evenodd" d="M54.089 34.5732C48.6672 35.7817 43.6613 38.3777 45.1023 47.5859C50.8864 45.8133 54.6037 41.4885 54.089 34.5732ZM53.1329 35.9238L51.6515 38.0176L53.1679 37.7379L51.5491 38.2748L49.7611 40.7149L52.4725 40.3947L49.6505 40.971L48.1675 42.997L50.3917 43.2365L47.9251 43.317L45.6088 46.5099L47.9632 42.8214L47.7902 39.0714L48.2283 42.5262L50.2454 39.543L49.8652 36.9215L50.4728 39.301C51.3664 38.0269 51.3586 38.0366 53.1329 35.9238Z" fill="#00FA00" stroke="#006500" stroke-width="0.115388" stroke-linecap="round" stroke-linejoin="bevel"/>
<path fill-rule="evenodd" clip-rule="evenodd" d="M25.3359 49.4162C31.1588 53.9574 37.8961 56.5145 45.1108 44.7777C38.4544 40.4672 31.2474 41.2169 25.3359 49.4162ZM27.4087 48.9602L30.6214 48.2522L29.0464 46.9177L30.9469 48.0789L34.7444 47.3206L32.0936 44.7357L35.0761 47.1573L38.2277 46.5261L36.515 43.8507L38.7326 46.4352L43.6813 45.4176L38.2438 46.9415L34.9459 51.2727L37.742 46.9803L33.246 48.0906L31.166 51.3993L32.8259 48.1114C30.8777 48.5508 30.8934 48.5486 27.4087 48.9602Z" fill="#009700" stroke="#00C100" stroke-width="0.161415" stroke-linecap="round" stroke-linejoin="bevel"/>
<path fill-rule="evenodd" clip-rule="evenodd" d="M64.9382 43.4433C60.0168 38.67 54.0829 35.6085 46.4414 45.5401C52.1456 50.193 58.8032 50.2873 64.9382 43.4433ZM63.0021 43.6355L60.0011 43.9346L61.3228 45.3226L59.688 44.0576L56.1478 44.3394L58.3421 46.9847L55.83 44.4524L52.8917 44.688L54.2201 47.3146L52.4218 44.7164L47.8057 45.1105L52.9139 44.3072L56.3149 40.7108L53.3762 44.326L57.5866 43.7985L59.783 41.0036L57.9726 43.8248C59.7933 43.6343 59.7787 43.6347 63.0021 43.6355Z" fill="#005A00" stroke="#00FF00" stroke-width="0.148307" stroke-linecap="round" stroke-linejoin="bevel"/>
<path fill-rule="evenodd" clip-rule="evenodd" d="M43.4113 61.4688C47.809 57.9216 51.1063 53.562 45.0246 47.5234C40.5822 51.6617 39.3694 56.6551 43.4113 61.4688ZM43.6004 60.0098L43.8928 57.7486L42.6327 58.698L43.855 57.5098L44.2527 54.8445L41.907 56.4101L44.2232 54.6025L44.552 52.3903L42.3688 53.3067L44.6115 52.0368L45.1103 48.5605L44.8317 52.4184L46.9251 55.081L44.7383 52.7649L44.4085 55.9408L46.112 57.6747L44.3226 56.2296C44.152 57.6018 44.1542 57.5908 43.6004 60.0098Z" fill="#004C00" stroke="#00E400" stroke-width="0.111368" stroke-linecap="round" stroke-linejoin="bevel"/>
<path fill-rule="evenodd" clip-rule="evenodd" d="M54.1369 56.118C53.9891 50.8883 52.6257 46.014 44.7656 47.1092C45.3239 52.7034 48.3234 56.3971 54.1369 56.118ZM53.1679 55.1606L51.6656 53.6771L51.6586 55.138L51.4685 53.5711L49.7274 51.7833L49.5658 54.3899L49.5326 51.6695L48.0868 50.1866L47.5379 52.3092L47.8597 49.9445L45.5778 47.6276L48.2645 49.9964L51.4003 49.9467L48.4674 50.2594L50.6227 52.2834L52.8555 52.0003L50.7874 52.5086C51.7028 53.4038 51.696 53.396 53.1679 55.1606Z" fill="#000E00" stroke="#00BE00" stroke-width="0.103124" stroke-linecap="round" stroke-linejoin="bevel"/>
<path fill-rule="evenodd" clip-rule="evenodd" d="M46.8541 58.3359C49.5011 54.6863 51.131 50.6408 45.187 47.2588C42.629 51.373 42.7368 55.4719 46.8541 58.3359ZM46.6954 57.1729L46.4488 55.3703L45.6764 56.3644L46.3698 55.1943L46.12 53.0584L44.6401 54.7538L46.0468 52.8783L45.8385 51.1058L44.3482 52.2671L45.8105 50.8211L45.4694 48.0397L46.0598 51.0692L48.2277 52.683L46.0602 51.3555L46.4687 53.8703L48.1425 54.8503L46.4629 54.1107C46.6178 55.2032 46.6172 55.1943 46.6954 57.1729Z" fill="#00C400" stroke="#009100" stroke-width="0.088866" stroke-linecap="round" stroke-linejoin="bevel"/>
<path fill-rule="evenodd" clip-rule="evenodd" d="M37.1836 54.3906C41.1791 54.3418 45.0325 53.3334 45.0297 47.1443C40.7135 47.5109 37.5856 49.8198 37.1836 54.3906ZM38.0146 53.6417L39.3023 52.4806L38.1913 52.4563L39.4038 52.3271L40.9483 50.9822L38.9818 50.8218L41.0556 50.8306L42.3368 49.7139L40.7795 49.2553L42.545 49.5385L44.5494 47.7757L42.4628 49.8559L42.1692 52.3201L42.2412 50.0119L40.4732 51.6791L40.4526 53.4369L40.2843 51.8056C39.5063 52.5133 39.513 52.508 38.0146 53.6417Z" fill="#006300" stroke="#00F900" stroke-width="0.0798279" stroke-linecap="round" stroke-linejoin="bevel"/>
<path fill-rule="evenodd" clip-rule="evenodd" d="M29.4492 45.1028C33.0066 49.3691 37.6069 52.6303 45.1328 47.1323C40.908 42.8022 35.361 41.4782 29.4492 45.1028ZM31.0877 45.3343L33.6275 45.6923L32.6844 44.4723L33.9031 45.6655L36.8911 46.1375L35.3647 43.8738L37.1694 46.1185L39.6496 46.509L38.8439 44.4221L40.0451 46.578L43.9442 47.1748L39.5871 46.771L36.3326 48.6422L39.2033 46.6706L35.6275 46.2437L33.4712 47.7822L35.3083 46.1523C33.7663 45.9414 33.7786 45.9439 31.0877 45.3343Z" fill="#00F600" stroke="#00CE00" stroke-width="0.115388" stroke-linecap="round" stroke-linejoin="bevel"/>
<path fill-rule="evenodd" clip-rule="evenodd" d="M37.3789 39.8288C37.7137 43.8106 38.9955 47.5819 45.1685 47.1359C44.4937 42.857 41.9668 39.9025 37.3789 39.8288ZM38.1854 40.6041L39.4358 41.8053L39.3805 40.6955L39.5962 41.8956L41.0481 43.3398L41.0674 41.3669L41.2071 43.4359L42.4127 44.6339L42.7585 43.0478L42.6025 44.829L44.5043 46.702L42.2801 44.7698L39.8011 44.6534L42.1085 44.5599L40.319 42.9158L38.5642 43.0212L40.1793 42.7365C39.4177 42.0112 39.4235 42.0175 38.1854 40.6041Z" fill="#00BE00" stroke="#009000" stroke-width="0.0798279" stroke-linecap="round" stroke-linejoin="bevel"/>
<path fill-rule="evenodd" clip-rule="evenodd" d="M52.9206 40.0533C48.925 40.0258 45.0529 40.9604 44.9375 47.1484C49.2599 46.8643 52.4314 44.6156 52.9206 40.0533ZM52.0755 40.7862L50.7658 41.9225L51.8761 41.9681L50.6614 42.0741L49.0915 43.3891L51.0546 43.5872L48.9814 43.5387L47.679 44.6308L49.2273 45.119L47.4675 44.8021L45.4298 46.5263L47.5557 44.4864L47.8964 42.0282L47.7803 44.3346L49.5799 42.7015L49.634 40.9444L49.7711 42.5786C50.5624 41.8859 50.5557 41.8911 52.0755 40.7862Z" fill="#00BC00" stroke="#00FD00" stroke-width="0.0798279" stroke-linecap="round" stroke-linejoin="bevel"/>
<path fill-rule="evenodd" clip-rule="evenodd" d="M56.1534 48.8095C53.44 45.209 50.0499 42.4648 45.0742 47.1564C48.2579 50.8081 52.2083 51.9065 56.1534 48.8095ZM54.9949 48.6204L53.1992 48.3277L53.9232 49.3576L53.0078 48.3516L50.8925 47.9644L52.0796 49.8763L50.6988 47.9816L48.9431 47.6612L49.6166 49.4264L48.6628 47.6045L45.9035 47.1153L48.973 47.4389L51.1514 45.8393L49.2469 47.5224L51.771 47.869L53.1985 46.5559L51.9991 47.945C53.089 48.1172 53.0803 48.1151 54.9949 48.6204Z" fill="#00D500" stroke="#003900" stroke-width="0.088866" stroke-linecap="round" stroke-linejoin="bevel"/>
</g>
</g>
<defs>
<clipPath id="clip0_394_2754">
<rect width="90" height="90" fill="white" transform="matrix(0 -1 1 0 0 90)"/>
</clipPath>
</defs>
</svg>
