<svg width="90" height="90" viewBox="0 0 90 90" fill="none" xmlns="http://www.w3.org/2000/svg">
<g clip-path="url(#clip0_394_4261)">
<path d="M73.6956 0.996338L89 16.3006L52.6522 52.6484H16.3043L8.65217 44.9963L1 0.996338L73.6956 0.996338Z" fill="#DEAA87"/>
<path d="M1 1L52.6522 52.6522L16.3043 89L1 73.6957L1 1Z" fill="#E9C6AF"/>
<path d="M16.3047 16.3044H89.0003V89H16.3047L16.3047 52.6522V16.3044Z" fill="#D38D5F"/>
<path d="M50.3551 71.7775C50.3551 73.7298 49.4943 75.808 48.1139 77.1884C46.7334 78.5689 44.6552 79.4297 42.703 79.4297C40.7507 79.4297 38.6725 78.5689 37.292 77.1884C35.9116 75.808 35.0508 73.7298 35.0508 71.7775C35.0508 69.8253 35.9116 67.7471 37.292 66.3666C38.6725 64.9862 40.7507 64.1253 42.703 64.1253C44.6552 64.1253 46.7334 64.9862 48.1139 66.3666C49.4943 67.7471 50.3551 69.8253 50.3551 71.7775Z" fill="white"/>
<path d="M44.9977 71.7825C44.9977 72.3681 44.7393 72.9916 44.3252 73.4057C43.911 73.8199 43.2877 74.0781 42.702 74.0781C42.1163 74.0781 41.4929 73.8199 41.0787 73.4057C40.6646 72.9916 40.4062 72.3681 40.4062 71.7825C40.4062 71.1968 40.6646 70.5733 41.0787 70.1592C41.4929 69.7451 42.1163 69.4868 42.702 69.4868C43.2877 69.4868 43.911 69.7451 44.3252 70.1592C44.7393 70.5733 44.9977 71.1968 44.9977 71.7825Z" fill="black"/>
<path d="M29.0444 82.4922H24.4531V61.0661H29.0444V82.4922Z" fill="#180E07"/>
<path d="M50.3551 33.5197C50.3551 31.5675 49.4943 29.4892 48.1139 28.1088C46.7334 26.7284 44.6552 25.8675 42.703 25.8675C40.7507 25.8675 38.6725 26.7284 37.292 28.1088C35.9116 29.4892 35.0508 31.5675 35.0508 33.5197C35.0508 35.4719 35.9116 37.5502 37.292 38.9306C38.6725 40.311 40.7507 41.1719 42.703 41.1719C44.6552 41.1719 46.7334 40.311 48.1139 38.9306C49.4943 37.5502 50.3551 35.4719 50.3551 33.5197Z" fill="white"/>
<path d="M44.9977 33.5247C44.9977 32.939 44.7393 32.3155 44.3252 31.9014C43.911 31.4873 43.2877 31.229 42.702 31.229C42.1163 31.229 41.4929 31.4873 41.0787 31.9014C40.6646 32.3155 40.4062 32.939 40.4062 33.5247C40.4062 34.1103 40.6646 34.7338 41.0787 35.1479C41.4929 35.5621 42.1163 35.8203 42.702 35.8203C43.2877 35.8203 43.911 35.5621 44.3252 35.1479C44.7393 34.7338 44.9977 34.1103 44.9977 33.5247Z" fill="black"/>
<path d="M29.0444 22.8083H24.4531V44.2344H29.0444V22.8083Z" fill="#180E07"/>
<path d="M74.3661 66.7604C72.7496 68.3833 70.8532 69.7253 68.7773 70.6919C68.0511 71.03 67.2991 71.3236 66.5139 71.4822C65.7287 71.6408 64.9065 71.6608 64.1319 71.4566C62.957 71.1469 61.9367 70.3101 61.3809 69.2296C60.8452 68.1882 60.7389 66.9602 60.9355 65.8057C61.1227 64.7062 61.5682 63.6709 61.9515 62.6235C62.5338 61.0326 62.9823 59.3921 63.2796 57.7243C63.5818 56.0294 63.7232 54.3068 63.7232 52.6456C63.7232 50.9845 63.5818 49.2619 63.2796 47.567C62.9823 45.8992 62.5338 44.2587 61.9515 42.6678C61.5682 41.6204 61.1227 40.585 60.9355 39.4856C60.7389 38.3311 60.8452 37.103 61.3809 36.0616C61.9367 34.9812 62.957 34.1443 64.1319 33.8347C64.9065 33.6305 65.7287 33.6504 66.5139 33.809C67.2991 33.9677 68.0511 34.2613 68.7773 34.5994C70.8532 35.566 72.7496 36.908 74.3661 38.5308C78.2195 42.3993 80.2889 47.1008 80.2889 52.6456C80.2889 58.1904 78.2195 62.8919 74.3661 66.7604Z" fill="#180E07"/>
<path d="M80.2904 52.6499C80.2904 51.8897 80.2501 51.146 80.173 50.4175H76.6738C76.1639 50.4175 75.7731 50.7292 75.5339 51.0223C75.1862 51.4485 74.9908 52.0478 74.9908 52.6584C74.9908 53.2691 75.1862 53.8684 75.5339 54.2945C75.7731 54.5877 76.1639 54.8994 76.6738 54.8994H80.1711C80.2494 54.1655 80.2904 53.416 80.2904 52.6499ZM79.1479 45.9186C78.5756 44.3337 77.792 42.84 76.8085 41.4365H75.4761C74.9662 41.4365 74.5754 41.7482 74.3362 42.0414C73.9884 42.4675 73.793 43.067 73.793 43.6776C73.793 44.2882 73.9884 44.8875 74.3362 45.3137C74.5754 45.6069 74.9662 45.9186 75.4761 45.9186H79.1479ZM79.1479 59.3814H75.4761C74.9662 59.3814 74.5754 59.6931 74.3362 59.9863C73.9884 60.4125 73.793 61.0118 73.793 61.6224C73.793 62.233 73.9884 62.8323 74.3362 63.2585C74.5754 63.5517 74.9662 63.8633 75.4761 63.8633H76.8085C77.792 62.4598 78.5756 60.9662 79.1479 59.3814Z" fill="white"/>
<path d="M68.6336 48.1579C68.6336 47.5473 68.4382 46.9479 68.0905 46.5217C67.8513 46.2285 67.4605 45.9169 66.9506 45.9169H62.9318C63.0634 46.4643 63.1805 47.0153 63.2793 47.5697C63.4468 48.5094 63.5632 49.4573 63.6352 50.3988H66.9506C67.4605 50.3988 67.8513 50.0872 68.0905 49.794C68.4382 49.3678 68.6336 48.7686 68.6336 48.1579ZM68.6336 57.1388C68.6336 56.5282 68.4382 55.9288 68.0905 55.5026C67.8513 55.2094 67.4605 54.8977 66.9506 54.8977H63.6352C63.5632 55.8393 63.4468 56.7872 63.2793 57.7269C63.1805 58.2813 63.0634 58.8323 62.9318 59.3798H66.9506C67.4605 59.3798 67.8513 59.0682 68.0905 58.775C68.4382 58.3488 68.6336 57.7495 68.6336 57.1388ZM66.2547 39.1939C66.2547 38.5832 66.0592 37.984 65.7114 37.5578C65.4722 37.2646 65.0814 36.9529 64.5715 36.9529H61.0366C60.8105 37.7703 60.7921 38.6485 60.9351 39.4882C61.0487 40.155 61.2577 40.7983 61.4897 41.4349H64.5715C65.0814 41.4349 65.4722 41.1232 65.7114 40.83C66.0592 40.4038 66.2547 39.8045 66.2547 39.1939ZM66.2547 66.1028C66.2547 65.4921 66.0592 64.8927 65.7114 64.4665C65.4722 64.1733 65.0814 63.8617 64.5715 63.8617H61.4897C61.2577 64.4983 61.0487 65.1415 60.9351 65.8083C60.7921 66.648 60.8104 67.5264 61.0366 68.3438H64.5715C65.0814 68.3438 65.4722 68.0321 65.7114 67.7389C66.0592 67.3127 66.2547 66.7134 66.2547 66.1028Z" fill="white"/>
<path d="M1 37.3478L16.3043 52.6522M1 73.6957L4.82609 59.3478L12.4783 67L16.3043 89M1 73.6957L1 1M1 73.6957L16.3043 89M16.3043 89L16.3043 16.3043M16.3043 89H89V16.3043M1 1L4.82609 23L12.4783 30.6522L16.3043 16.3043M1 1L16.3043 16.3043M1 1H73.6957L89 16.3043M16.3043 16.3043H89M29.0458 22.8087H24.4545V44.2348H29.0458V22.8087ZM29.0458 82.4956H24.4545V61.0696H29.0458V82.4956ZM50.3565 71.7826C50.3565 73.7348 49.4957 75.8131 48.1152 77.1935C46.7348 78.574 44.6566 79.4348 42.7043 79.4348C40.7521 79.4348 38.6739 78.574 37.2934 77.1935C35.913 75.8131 35.0522 73.7348 35.0522 71.7826C35.0522 69.8304 35.913 67.7521 37.2934 66.3717C38.6739 64.9913 40.7521 64.1304 42.7043 64.1304C44.6566 64.1304 46.7348 64.9913 48.1152 66.3717C49.4957 67.7521 50.3565 69.8304 50.3565 71.7826ZM50.3565 33.5217C50.3565 31.5695 49.4957 29.4913 48.1152 28.1108C46.7348 26.7304 44.6566 25.8696 42.7043 25.8696C40.7521 25.8696 38.6739 26.7304 37.2934 28.1108C35.913 29.4913 35.0522 31.5695 35.0522 33.5217C35.0522 35.474 35.913 37.5522 37.2934 38.9326C38.6739 40.3131 40.7521 41.1739 42.7043 41.1739C44.6566 41.1739 46.7348 40.3131 48.1152 38.9326C49.4957 37.5522 50.3565 35.474 50.3565 33.5217ZM74.2749 66.767C72.6583 68.3899 70.7619 69.7318 68.686 70.6984C67.9599 71.0365 67.2078 71.3301 66.4226 71.4888C65.6375 71.6474 64.8152 71.6673 64.0406 71.4632C62.8657 71.1535 61.8455 70.3166 61.2897 69.2362C60.754 68.1948 60.6477 66.9667 60.8442 65.8122C61.0315 64.7128 61.4769 63.6774 61.8603 62.63C62.4425 61.0391 62.8911 59.3986 63.1884 57.7308C63.4905 56.0359 63.6319 54.3133 63.6319 52.6522C63.6319 50.991 63.4905 49.2684 63.1884 47.5735C62.8911 45.9057 62.4425 44.2652 61.8603 42.6743C61.4769 41.6269 61.0315 40.5916 60.8442 39.4921C60.6477 38.3376 60.754 37.1096 61.2897 36.0682C61.8455 34.9877 62.8657 34.1509 64.0406 33.8412C64.8152 33.637 65.6375 33.657 66.4226 33.8156C67.2078 33.9742 67.9599 34.2678 68.686 34.606C70.7619 35.5725 72.6583 36.9145 74.2749 38.5374C78.1282 42.4059 80.1976 47.1074 80.1976 52.6522C80.1976 58.197 78.1282 62.8985 74.2749 66.767Z" stroke="black" stroke-width="1.5405" stroke-linecap="round" stroke-linejoin="round"/>
</g>
<defs>
<clipPath id="clip0_394_4261">
<rect width="90" height="90" fill="white" transform="matrix(0 -1 1 0 0 90)"/>
</clipPath>
</defs>
</svg>
