<svg width="90" height="90" viewBox="0 0 90 90" fill="none" xmlns="http://www.w3.org/2000/svg">
<g clip-path="url(#clip0_394_4428)">
<mask id="mask0_394_4428" style="mask-type:luminance" maskUnits="userSpaceOnUse" x="0" y="0" width="90" height="90">
<path d="M0 0L0 90H90V0H0Z" fill="white"/>
</mask>
<g mask="url(#mask0_394_4428)">
<path d="M90 45C90 20.1472 69.8528 0 45 0C20.1472 0 0 20.1472 0 45C0 69.8528 20.1472 90 45 90C69.8528 90 90 69.8528 90 45Z" fill="#009543"/>
<path d="M13.1797 13.1783L76.8217 76.8203C85.2611 68.3809 90.0024 56.9345 90.0024 44.9993C90.0024 33.0641 85.2611 21.6178 76.8217 13.1783C68.3822 4.73891 56.9359 -0.002388 45.0007 -0.002388C33.0655 -0.002388 21.6191 4.73891 13.1797 13.1783Z" fill="#DC241F"/>
<path d="M13.1789 13.1791C9.57259 16.8028 6.61107 21.0152 4.42188 25.6351L64.3649 85.5781C73.6868 81.1881 81.1878 73.6871 85.5779 64.3651L25.6349 4.4221C21.015 6.6113 16.8025 9.57281 13.1789 13.1791Z" fill="#FBDE4A"/>
</g>
</g>
<defs>
<clipPath id="clip0_394_4428">
<rect width="90" height="90" fill="white" transform="matrix(0 -1 1 0 0 90)"/>
</clipPath>
</defs>
</svg>
