<svg width="90" height="90" viewBox="0 0 90 90" fill="none" xmlns="http://www.w3.org/2000/svg">
<g clip-path="url(#clip0_394_4436)">
<mask id="mask0_394_4436" style="mask-type:luminance" maskUnits="userSpaceOnUse" x="0" y="0" width="90" height="90">
<path d="M0 90L0 0H90V90H0Z" fill="white"/>
</mask>
<g mask="url(#mask0_394_4436)">
<mask id="mask1_394_4436" style="mask-type:luminance" maskUnits="userSpaceOnUse" x="0" y="0" width="88" height="90">
<path d="M0 90L0 0.000198364H87.5551V90H0Z" fill="white"/>
</mask>
<g mask="url(#mask1_394_4436)">
<path d="M41.7596 0.142303C47.2501 0.144003 52.154 2.0084 56.8236 3.2039C62.0773 4.549 67.3104 5.4905 71.3415 8.2182C75.6135 11.1093 78.2104 15.5834 80.8843 19.8699C83.4291 23.9491 86.4024 28.1934 87.2956 33.3932C88.0804 37.9613 86.8915 43.0169 86.2571 48.3485C86.5496 52.7849 87.159 57.2234 85.6995 61.1323C84.2243 65.0844 80.8231 68.1077 77.8669 71.3989C75.084 74.4977 72.5638 78.2208 68.7364 80.6284C65.1741 82.8691 60.6281 83.6672 56.3785 85.2239C52.3744 86.6907 48.4495 89.0506 44.0158 89.839C39.1958 90.5292 34.748 88.8563 30.5432 87.5539C26.1985 86.2079 21.5955 85.037 18.0308 82.1756C14.5488 79.3805 12.4236 75.1645 9.80391 71.5104C7.15113 67.8105 3.8265 64.4136 2.17811 60.4312C0.348873 56.0114 0.435275 51.3513 0 47.3662C0.192174 42.6648 -0.351702 37.8874 0.873378 33.4748C2.1483 28.8804 5.15213 24.991 7.40315 21.0357C9.8026 16.8191 11.6895 12.2998 15.0255 9.2003C18.5949 5.8836 23.3266 4.372 27.7577 2.812C32.1509 1.2656 36.7328 -0.521097 41.7596 0.142303Z" fill="#BF7721"/>
</g>
<mask id="mask2_394_4436" style="mask-type:luminance" maskUnits="userSpaceOnUse" x="1" y="0" width="89" height="86">
<path d="M1.08984 85.875L1.08984 0.132896H90.0019V85.875H1.08984Z" fill="white"/>
</mask>
<g mask="url(#mask2_394_4436)">
<path d="M46.844 0.168098C51.6257 -0.157302 56.0607 1.8443 60.3766 3.579C64.5575 5.2592 69.1535 6.7797 72.6923 9.9954C75.971 12.9748 77.9467 17.3098 80.5074 21.2838C82.9136 25.018 86.1151 28.582 87.7498 32.9279C89.3237 37.1126 89.2645 41.7466 90.0019 46.2634C89.4645 50.6198 89.5213 54.9497 87.8372 58.73C86.0676 62.703 82.6516 65.6833 79.9035 68.8859C77.0605 72.1992 74.6269 75.9734 71.0583 78.3124C67.3654 80.7329 62.8246 81.4839 58.7111 82.6956C54.4482 83.951 50.2963 85.7247 45.9773 85.498C41.2065 86.4464 36.5684 85.3705 32.1606 84.834C27.3989 84.2546 22.5519 84.0256 18.5844 81.945C14.453 79.7784 11.6685 75.9362 8.82467 72.4084C6.03195 68.9442 2.83529 65.4172 1.69988 60.9002C0.667625 56.7935 1.67093 52.1542 2.33385 47.3804C1.60499 42.1488 0.508967 37.259 1.46069 32.9422C2.54213 28.0373 5.77057 24.2104 8.68059 20.4324C11.5691 16.6826 14.4073 12.5808 18.7415 9.8849C22.7223 7.409 27.7935 6.4747 32.7071 4.8425C37.215 3.345 41.7723 0.990398 46.844 0.168098Z" fill="#C07924"/>
</g>
<mask id="mask3_394_4436" style="mask-type:luminance" maskUnits="userSpaceOnUse" x="3" y="1" width="86" height="81">
<path d="M3.14453 82L3.14453 1.2371H88.2227V82H3.14453Z" fill="white"/>
</mask>
<g mask="url(#mask3_394_4436)">
<path d="M42.3167 1.2453C47.6773 1.4354 52.526 3.3088 57.1513 4.4923C62.3093 5.8124 67.4732 6.6692 71.5116 9.284C75.741 12.0225 78.4138 16.3193 81.1723 20.548C83.7072 24.4338 86.7184 28.5178 87.8098 33.7199C88.7311 38.1109 87.8566 43.0911 87.6231 48.4563C87.6895 52.5659 88.0751 56.7392 86.4781 60.3532C84.8839 63.9614 81.4984 66.5871 78.4784 69.4556C75.655 72.1373 72.9768 75.4243 69.1033 77.2519C65.5734 78.9171 61.2509 79.0407 56.9994 79.8373C53.1483 80.5588 49.1533 82.1001 44.8221 81.9899C40.5512 82.1401 36.4292 80.5835 32.3648 79.7466C28.1472 78.8782 23.6998 78.6195 20.0674 76.7259C16.2818 74.7525 13.6882 71.2965 10.948 68.2524C8.22161 65.2236 5.03888 62.2536 3.76026 58.2081C2.61005 54.5685 3.36112 50.3647 3.69954 45.9353C3.61641 41.3709 2.83879 36.8699 3.7879 32.8048C4.82364 28.3694 7.59939 24.7025 9.69785 21.0379C11.9528 17.0998 13.801 12.9102 17.0753 10.0829C20.4668 7.1546 24.981 5.9107 29.231 4.4241C33.3468 2.9842 37.6166 1.0984 42.3167 1.2453Z" fill="#C27C26"/>
</g>
<mask id="mask4_394_4436" style="mask-type:luminance" maskUnits="userSpaceOnUse" x="1" y="3" width="85" height="87">
<path d="M1.21094 89.2656L1.21094 3.0834H85.3576V89.2656H1.21094Z" fill="white"/>
</mask>
<g mask="url(#mask4_394_4436)">
<path d="M45.903 3.1887C49.9271 3.8033 53.682 6.1705 57.6384 7.9084C61.4386 9.5776 65.7435 10.6974 69.0983 13.2046C72.4761 15.7288 74.6666 19.4672 77.211 22.6429C79.8579 25.9465 83.0243 28.9919 84.3464 32.7815C85.6967 36.6519 85.0401 40.9178 84.5532 45.0593C85.1719 49.1417 85.938 53.5587 84.6816 57.7482C83.4972 61.6972 80.4797 65.0928 78.0656 68.7089C75.6921 72.2649 73.766 76.3216 70.6094 79.1578C67.2817 82.1478 62.9422 83.6516 59.2039 85.3908C54.9852 87.3537 50.8268 89.5018 46.725 89.2446C41.9542 88.1495 37.8034 85.6535 33.6537 84.0326C29.104 82.2555 24.3704 81.2028 20.6588 78.7606C16.6645 76.1324 14.0093 72.2365 11.1008 68.7961C8.16358 65.3216 4.75429 62.0125 3.04693 57.6653C1.46775 53.6442 1.63642 49.0066 1.21094 44.2021C1.31105 40.2763 1.29233 35.7052 3.30113 31.3542C5.05768 27.5497 8.50832 24.3597 11.4125 20.8336C14.2067 17.4414 16.6092 13.459 20.202 10.8361C23.862 8.1641 28.4354 7.0658 32.6526 5.718C36.9363 4.3488 41.3289 2.6402 45.903 3.1887Z" fill="#C37E29"/>
</g>
<mask id="mask5_394_4436" style="mask-type:luminance" maskUnits="userSpaceOnUse" x="3" y="4" width="84" height="78">
<path d="M3.07031 81.7656L3.07031 4.07991H86.9297V81.7656H3.07031Z" fill="white"/>
</mask>
<g mask="url(#mask5_394_4436)">
<path d="M45.6684 4.3876C49.9365 3.4236 54.2468 4.9126 58.5565 6.268C62.5656 7.5285 67.035 8.6445 70.6053 11.3998C73.9737 13.9992 76.1733 17.9525 78.7552 21.4553C81.3242 24.9403 84.4753 28.2391 85.8863 32.2091C87.3449 36.3133 86.9081 40.6912 86.7176 44.87C85.962 48.6457 85.7816 52.7045 83.9567 56.2466C82.1736 59.707 78.914 62.3411 76.2412 65.3078C73.6054 68.2334 71.3627 71.7256 67.9865 73.9122C64.6701 76.0603 60.5074 76.7435 56.5953 77.9329C52.8511 79.0714 49.1421 80.8522 44.958 80.8945C40.4617 82.2462 36.2029 81.6478 32.3658 81.5472C27.8058 81.4278 23.4278 81.4727 19.856 79.671C16.0893 77.771 13.6527 74.1734 11.0558 70.8599C8.57779 67.6983 5.5892 64.5347 4.24093 60.5037C2.97559 56.7204 3.40434 52.4511 3.18822 48.2498C3.21107 43.4693 2.64761 38.8727 3.79978 34.78C5.07993 30.2333 8.09812 26.6113 10.5648 23.0082C13.1819 19.1853 15.54 15.1265 19.2401 12.4808C22.9395 9.8356 27.6539 8.84 32.1753 7.4907C36.4789 6.2063 40.8506 4.3931 45.6684 4.3876Z" fill="#C4802C"/>
</g>
<mask id="mask6_394_4436" style="mask-type:luminance" maskUnits="userSpaceOnUse" x="2" y="1" width="85" height="80">
<path d="M2.75 80.5703L2.75 1.7568H86.6501V80.5703H2.75Z" fill="white"/>
</mask>
<g mask="url(#mask6_394_4436)">
<path d="M45.3414 1.7568C49.853 2.1043 54.0021 4.3589 58.0612 6.1526C62.1027 7.9385 66.5077 9.3968 69.8998 12.2618C73.263 15.1024 75.3771 19.1448 77.9056 22.7001C80.4735 26.3108 83.6086 29.6789 85.1125 33.6688C86.6886 37.8497 86.4725 42.3097 86.6501 46.5013C86.0825 50.433 86.0128 54.545 84.2413 58.1357C82.4836 61.6984 79.1925 64.3782 76.3676 67.3044C73.6094 70.1619 71.0933 73.5387 67.4283 75.5071C63.9568 77.3717 59.6961 77.7093 55.5062 78.5329C51.6879 79.2832 47.7341 80.6894 43.3931 80.3869C39.4077 81.0268 35.4961 79.8393 31.6483 79.167C27.7417 78.4847 23.5842 78.2235 20.134 76.3208C16.7332 74.4454 14.3727 71.1319 11.7208 68.1992C9.18445 65.3944 6.06462 62.7348 4.48522 59.077C3.02662 55.6993 3.17505 51.7455 2.75 47.7317C2.93956 42.8582 2.54107 38.3325 3.79074 34.4038C5.23346 29.8691 8.37201 26.4327 10.9763 22.9874C13.7281 19.3473 16.2235 15.4608 19.9629 12.8286C23.6277 10.2486 28.2776 9.0929 32.5889 7.2774C36.7521 5.5243 40.8498 2.982 45.3414 1.7568Z" fill="#C6822E"/>
</g>
<mask id="mask7_394_4436" style="mask-type:luminance" maskUnits="userSpaceOnUse" x="2" y="9" width="83" height="75">
<path d="M2.98047 83.8828L2.98047 9.1145H84.1061V83.8828H2.98047Z" fill="white"/>
</mask>
<g mask="url(#mask7_394_4436)">
<path d="M44.8135 9.3913C49.2899 9.4512 53.2563 11.0426 57.0756 11.9578C61.37 12.9868 65.686 13.5418 69.0594 15.6685C72.5762 17.8852 74.7669 21.4921 77.1766 24.9216C79.3963 28.0812 82.1664 31.2943 83.3577 35.4992C84.3813 39.1112 83.8661 43.2754 84.0727 47.6695C84.0966 51.7919 84.3719 55.9414 82.8132 59.6129C81.2503 63.2937 78.0017 66.101 75.1626 69.114C72.4206 72.0238 69.8842 75.4358 66.2403 77.5256C62.7362 79.5357 58.4302 80.0936 54.3493 81.1692C50.4177 82.2055 46.3635 83.8708 42.1268 83.8828C38.2733 82.966 34.6098 80.5205 30.7213 78.7146C27.0247 76.9978 22.8077 75.8502 19.472 73.39C16.1515 70.9411 13.9129 67.3386 11.3287 64.2103C8.72379 61.0572 5.58872 58.1232 4.11706 54.3384C2.69153 50.6728 3.01342 46.5765 3.00798 42.3725C3.75208 38.5829 3.87787 34.5479 5.56239 31.0115C7.25473 27.4586 10.3759 24.7185 12.9346 21.7699C15.5406 18.7669 17.8258 15.3245 21.2438 13.3141C24.6228 11.3266 28.7754 10.9511 32.8628 10.2923C36.5922 9.6912 40.5617 8.602 44.8135 9.3913Z" fill="#C78531"/>
</g>
<mask id="mask8_394_4436" style="mask-type:luminance" maskUnits="userSpaceOnUse" x="6" y="7" width="77" height="74">
<path d="M6.46875 80.0078L6.46875 7.6873H82.4744V80.0078H6.46875Z" fill="white"/>
</mask>
<g mask="url(#mask8_394_4436)">
<path d="M43.1496 8.19141C47.4486 7.13551 51.5121 7.99801 55.2561 8.43881C59.4856 8.93671 63.6904 9.27412 67.0516 11.2665C70.541 13.3348 72.7552 16.8811 75.1227 20.0755C77.481 23.2577 80.2502 26.4116 81.3071 30.2223C82.3574 34.0085 81.5974 38.1341 81.1782 42.0605C81.6977 46.4232 82.8294 50.4708 82.3652 54.0767C81.8044 58.4346 79.5031 61.9093 77.7158 65.15C75.6746 68.8508 73.7374 72.5316 70.4187 74.7574C67.1095 76.9766 62.8249 77.4615 58.5859 78.1955C54.7429 78.8608 50.7284 80.0049 46.3878 79.4343C41.9957 80.6027 37.7818 79.7174 33.7851 79.1384C29.4891 78.5162 25.0979 77.9892 21.563 75.7523C18.0336 73.5187 15.7432 69.8089 13.2867 66.383C10.9025 63.0581 8.07623 59.7219 6.99348 55.6607C5.95709 51.7728 6.70555 47.5059 7.11949 43.2848C6.84462 39.1808 6.0448 35.3103 6.88858 31.948C7.86142 28.0723 10.536 25.1461 12.7646 22.2449C15.0768 19.2349 17.2468 15.9441 20.6406 13.9698C23.846 12.1052 27.9049 11.7074 31.8361 10.7548C35.4528 9.87861 39.1072 8.30491 43.1496 8.19141Z" fill="#C98733"/>
</g>
<mask id="mask9_394_4436" style="mask-type:luminance" maskUnits="userSpaceOnUse" x="5" y="4" width="79" height="76">
<path d="M5.40625 79.0312L5.40625 4.64224H83.6218V79.0312H5.40625Z" fill="white"/>
</mask>
<g mask="url(#mask9_394_4436)">
<path d="M42.836 4.65618C47.4533 4.46378 51.6788 6.29308 55.7203 7.86868C59.7853 9.45308 64.11 10.9315 67.4499 13.8957C70.6417 16.728 72.6183 20.7805 75.0206 24.5057C77.3365 28.0972 80.258 31.5577 81.7264 35.6518C83.1824 39.7115 83.1084 44.0961 83.6218 48.3357C82.8283 51.3404 82.4325 55.145 80.388 58.7012C78.641 61.74 75.5512 64.1803 72.9544 66.9682C70.4546 69.6513 68.2802 72.9023 65.0461 74.8057C61.8755 76.6713 57.9844 77.0386 54.1577 77.6429C50.6735 78.1935 47.0573 79.1882 43.068 78.2918C39.258 79.7283 35.495 78.7792 31.7739 77.906C28.1711 77.0603 24.2188 76.2399 21.0285 73.8436C18.0658 71.6182 16.1425 68.1069 13.8049 65.0464C11.4905 62.0166 8.58114 59.2246 7.13233 55.8484C5.56926 52.2059 5.65762 48.2845 5.40625 44.8064C5.56055 41.0215 5.44281 37.0654 7.02199 33.4601C8.53283 30.0115 11.5684 27.241 14.0667 24.1609C16.4896 21.1741 18.5085 17.6579 21.5737 15.2029C24.66 12.7309 28.6155 11.4695 32.066 9.72208C35.6996 7.88198 39.1263 5.48088 42.836 4.65618Z" fill="#CA8936"/>
</g>
<mask id="mask10_394_4436" style="mask-type:luminance" maskUnits="userSpaceOnUse" x="5" y="9" width="75" height="71">
<path d="M5.16016 79.0312L5.16016 9.96765H79.8483V79.0312H5.16016Z" fill="white"/>
</mask>
<g mask="url(#mask10_394_4436)">
<path d="M42.8066 9.96748C46.7219 10.061 50.3841 11.7509 53.9803 12.8769C57.6904 14.0385 61.6471 14.7567 64.7819 16.8057C68.0245 18.9249 70.1636 22.2315 72.5305 25.0664C74.9919 28.0145 77.8508 30.7823 79.0731 34.242C80.3138 37.754 79.7758 41.6101 79.4304 45.3718C79.4622 49.0513 80.0111 52.8723 79.008 56.3455C77.974 59.9261 75.442 62.8864 73.473 65.8986C71.3979 69.0732 69.6418 72.5378 66.7189 74.6766C63.677 76.9024 59.8035 77.5128 56.0601 78.1579C52.562 78.7609 48.8889 79.6207 44.9645 78.4486C40.8964 79.4378 37.1006 78.6268 33.4861 78.2534C29.4722 77.8386 25.4492 77.653 22.1278 75.8942C18.7103 74.0844 16.3737 70.8485 13.84 67.9959C11.3245 65.1634 8.36247 62.4592 6.86817 58.9775C5.38106 55.5122 5.4877 51.6399 5.16016 47.9044C5.85573 43.7589 5.72079 39.8459 6.87187 36.5101C8.25235 32.5096 10.9275 29.5205 12.9226 26.565C15.232 23.1439 17.1542 19.6662 20.2231 17.4567C23.3834 15.1814 27.4221 14.4222 31.3143 13.2139C34.9195 12.0946 38.6352 10.354 42.8066 9.96748Z" fill="#CB8B39"/>
</g>
<mask id="mask11_394_4436" style="mask-type:luminance" maskUnits="userSpaceOnUse" x="8" y="9" width="71" height="72">
<path d="M8.09766 80.3047L8.09766 9.3994H78.6986V80.3047H8.09766Z" fill="white"/>
</mask>
<g mask="url(#mask11_394_4436)">
<path d="M43.4605 9.6596C47.8078 9.4116 51.6239 10.8517 55.253 11.8645C59.2754 12.987 63.3254 13.9322 66.3819 16.3695C69.4449 18.8123 71.1923 22.5021 73.197 26.0179C75.0634 29.2916 77.4431 32.6201 78.3175 36.6168C79.1147 40.2603 78.427 44.2644 78.343 48.3501C78.3476 51.5203 78.6536 54.962 77.3232 58.1004C76.0815 61.029 73.4022 63.3463 71.2023 65.9583C69.1095 68.4434 67.356 71.4677 64.57 73.42C61.8642 75.3162 58.3687 76.0022 55.1668 77.173C52.0509 78.3125 48.938 80.0574 45.4974 80.3047C41.2335 80.2266 37.3336 78.7341 33.6349 77.8745C29.4871 76.9106 25.3311 76.4042 22.062 74.4766C18.5308 72.3948 16.2809 69.0199 13.9898 65.8392C11.7804 62.7721 9.23663 59.5988 8.38436 55.5341C7.64787 52.0208 8.51429 48.0483 8.93106 43.8062C8.68949 40.4689 8.29948 36.6774 9.63534 33.1054C10.8495 29.8589 13.5698 27.1162 15.7701 24.1472C17.9319 21.2306 19.7248 17.8536 22.5499 15.6345C25.5194 13.3018 29.2812 12.3648 32.6596 11.2848C36.2321 10.1428 39.8125 8.8324 43.4605 9.6596Z" fill="#CD8E3B"/>
</g>
<mask id="mask12_394_4436" style="mask-type:luminance" maskUnits="userSpaceOnUse" x="8" y="8" width="71" height="73">
<path d="M8.85938 80.8984L8.85938 8.8985H78.9033V80.8984H8.85938Z" fill="white"/>
</mask>
<g mask="url(#mask12_394_4436)">
<path d="M42.2674 9.0122C46.6597 9.0135 50.5828 10.5051 54.3184 11.4615C58.5214 12.5375 62.7081 13.2908 65.933 15.4732C69.3506 17.7859 71.4279 21.365 73.5673 24.7943C75.6031 28.0577 77.9819 31.4533 78.6961 35.6129C79.324 39.2674 78.3729 43.3121 77.8652 47.5772C78.0992 51.1262 78.5867 54.6769 77.4193 57.8044C76.2392 60.9659 73.5179 63.3845 71.1535 66.0175C68.9268 68.4965 66.9106 71.4752 63.8485 73.4012C60.999 75.1936 57.362 75.8322 53.9625 77.0776C50.7591 78.251 47.6193 80.1387 44.072 80.7697C40.2161 81.3216 36.658 79.9834 33.2944 78.9416C29.8183 77.8648 26.1361 76.9279 23.2842 74.6388C20.4986 72.4029 18.7984 69.0301 16.7028 66.1068C14.5806 63.1467 11.9207 60.4292 10.602 57.2433C9.1386 53.7075 9.20781 49.9795 8.85938 46.7913C9.01324 43.0303 8.57841 39.2083 9.55821 35.6784C10.5783 32.0027 12.9812 28.8912 14.7819 25.7271C16.7017 22.3538 18.211 18.7383 20.8799 16.2587C23.7358 13.6055 27.5207 12.3961 31.0658 11.1482C34.5802 9.911 38.2461 8.4816 42.2674 9.0122Z" fill="#CE903E"/>
</g>
<mask id="mask13_394_4436" style="mask-type:luminance" maskUnits="userSpaceOnUse" x="9" y="8" width="73" height="70">
<path d="M9.42578 77.8906L9.42578 8.60102H81.2772V77.8906H9.42578Z" fill="white"/>
</mask>
<g mask="url(#mask13_394_4436)">
<path d="M46.4004 8.62929C50.2646 8.36639 53.8486 9.98388 57.3365 11.3856C60.7151 12.7434 64.4291 13.9722 67.2886 16.5707C69.9383 18.9783 71.5351 22.4817 73.6044 25.6931C75.5488 28.7107 78.1361 31.591 79.4571 35.103C80.729 38.4847 80.6811 42.2295 81.277 45.8798C80.8428 49.4002 80.8887 52.8993 79.5279 55.9542C78.0978 59.1648 75.3373 61.5732 73.1165 64.1614C70.8189 66.8389 68.8523 69.8889 65.9684 71.7792C62.9842 73.7353 59.3148 74.3419 55.9904 75.3212C52.5456 76.3359 49.1903 77.7691 45.7001 77.586C41.8448 78.3525 38.0967 77.4828 34.5346 77.0495C30.6866 76.5811 26.7695 76.3961 23.5633 74.7147C20.2247 72.9639 17.9746 69.8588 15.6763 67.0079C13.4194 64.2084 10.8361 61.3583 9.91874 57.7081C9.08454 54.3893 9.89524 50.6401 10.4308 46.7823C9.84213 42.5547 8.95635 38.6032 9.72548 35.1146C10.5993 31.1509 13.2083 28.0584 15.5599 25.0053C17.8943 21.9748 20.1877 18.6603 23.6904 16.4817C26.9073 14.4807 31.0054 13.7257 34.9762 12.4067C38.619 11.1966 42.3021 9.29369 46.4004 8.62929Z" fill="#CF903E"/>
</g>
<mask id="mask14_394_4436" style="mask-type:luminance" maskUnits="userSpaceOnUse" x="10" y="9" width="71" height="67">
<path d="M10.7891 75.0234L10.7891 9.07724H80.2589V75.0234H10.7891Z" fill="white"/>
</mask>
<g mask="url(#mask14_394_4436)">
<path d="M42.7747 9.08356C47.1519 9.23886 51.1111 10.7685 54.8878 11.735C59.0997 12.8128 63.3162 13.5124 66.6138 15.6477C70.0671 17.8838 72.2496 21.3922 74.5021 24.8451C76.5716 28.018 79.0305 31.3523 79.9217 35.5999C80.6741 39.1853 79.96 43.2524 79.7694 47.6334C79.8236 50.989 80.1385 54.3968 78.8344 57.3479C77.5327 60.2939 74.7683 62.438 72.3022 64.7802C69.9968 66.97 67.81 69.6539 64.6471 71.1462C61.7649 72.5061 58.2352 72.6069 54.7637 73.2573C51.6191 73.8466 48.3571 75.105 44.8205 75.0152C41.3331 75.1379 37.9673 73.8666 34.6486 73.1832C31.2047 72.4741 27.5732 72.263 24.6072 70.7166C21.5161 69.1052 19.3983 66.2834 17.161 63.7979C14.9348 61.3246 12.3358 58.8995 11.2917 55.5961C10.3526 52.6242 10.9659 49.1918 11.2423 45.5747C11.1742 41.8481 10.5394 38.1728 11.3144 34.8534C12.1601 31.2317 14.4266 28.2375 16.1401 25.2452C17.9813 22.0293 19.4904 18.6085 22.1643 16.3C24.9335 13.9088 28.6194 12.8932 32.0896 11.6792C35.4504 10.5035 38.9369 8.96356 42.7747 9.08356Z" fill="#CF903F"/>
</g>
<mask id="mask15_394_4436" style="mask-type:luminance" maskUnits="userSpaceOnUse" x="8" y="10" width="71" height="72">
<path d="M8.87891 81.3047L8.87891 10.1795H78.3244V81.3047H8.87891Z" fill="white"/>
</mask>
<g mask="url(#mask15_394_4436)">
<path d="M45.7628 10.2661C49.0837 10.7733 52.1826 12.727 55.4479 14.1611C58.5842 15.5389 62.1369 16.4631 64.9057 18.5321C67.6932 20.6154 69.5011 23.7007 71.6009 26.3216C73.7855 29.048 76.3987 31.5613 77.4897 34.6888C78.6043 37.883 78.0621 41.4036 77.6606 44.8215C78.1711 48.1908 78.8034 51.8362 77.7663 55.2937C76.7889 58.5527 74.2985 61.3549 72.3065 64.3395C70.3475 67.2741 68.7579 70.6221 66.1528 72.9626C63.4064 75.4302 59.8252 76.6714 56.74 78.1068C53.2582 79.7267 49.8265 81.4995 46.4412 81.2873C42.5037 80.3833 39.0776 78.3234 35.6526 76.9854C31.898 75.5188 27.9916 74.65 24.9286 72.6345C21.632 70.4656 19.4408 67.2501 17.0405 64.4108C14.6165 61.5435 11.8031 58.8126 10.3941 55.2253C9.09088 51.9067 9.22996 48.0792 8.87891 44.1141C8.96139 40.8742 8.94594 37.1017 10.6039 33.5107C12.0534 30.3709 14.9014 27.7383 17.2982 24.8284C19.6043 22.0287 21.587 18.7421 24.5521 16.5774C27.5724 14.3722 31.3469 13.4659 34.8274 12.3536C38.3627 11.2235 41.9879 9.8134 45.7628 10.2661Z" fill="#D0913F"/>
</g>
<mask id="mask16_394_4436" style="mask-type:luminance" maskUnits="userSpaceOnUse" x="10" y="10" width="71" height="66">
<path d="M10.0859 75.4062L10.0859 10.5867H80.0568V75.4062H10.0859Z" fill="white"/>
</mask>
<g mask="url(#mask16_394_4436)">
<path d="M45.6291 10.8434C49.1903 10.039 52.7867 11.2814 56.3827 12.4123C59.7276 13.4642 63.4568 14.3952 66.4358 16.694C69.2464 18.8629 71.0817 22.1615 73.2361 25.0842C75.3794 27.9921 78.0087 30.7447 79.1861 34.0571C80.4031 37.4818 80.0388 41.1346 79.8797 44.6211C79.2494 47.7715 79.0988 51.1582 77.576 54.1135C76.0885 57.001 73.3684 59.1988 71.1383 61.6742C68.9391 64.1151 67.0678 67.0291 64.251 68.8535C61.4837 70.6459 58.0104 71.2161 54.7463 72.2085C51.6221 73.1581 48.5275 74.6441 45.0362 74.6792C41.2846 75.8072 37.7312 75.3079 34.5295 75.2242C30.7248 75.1244 27.0718 75.1619 24.0914 73.6586C20.9488 72.0733 18.9156 69.0713 16.7488 66.3067C14.6812 63.6689 12.1876 61.0291 11.0626 57.6657C10.0068 54.5088 10.3646 50.9467 10.1844 47.4412C10.2034 43.4525 9.73324 39.617 10.6946 36.2023C11.7627 32.4087 14.281 29.3863 16.3394 26.3798C18.5232 23.1901 20.4906 19.8035 23.5778 17.5961C26.6646 15.389 30.5981 14.5585 34.3709 13.4325C37.9615 12.3609 41.6091 10.848 45.6291 10.8434Z" fill="#D1913F"/>
</g>
<mask id="mask17_394_4436" style="mask-type:luminance" maskUnits="userSpaceOnUse" x="9" y="8" width="72" height="67">
<path d="M9.47266 74.6953L9.47266 8.18941H80.2707V74.6953H9.47266Z" fill="white"/>
</mask>
<g mask="url(#mask17_394_4436)">
<path d="M45.4128 8.18951C49.22 8.48271 52.7209 10.3856 56.1463 11.8989C59.5569 13.4057 63.2737 14.6364 66.1363 17.0541C68.974 19.451 70.758 22.8621 72.8917 25.8623C75.0585 28.9093 77.7041 31.7516 78.9734 35.1183C80.3032 38.6461 80.1208 42.4096 80.2707 45.9469C79.7917 49.2644 79.7329 52.7343 78.238 55.7643C76.7548 58.7705 73.9775 61.0318 71.594 63.5011C69.2666 65.9121 67.1433 68.7619 64.0507 70.4228C61.1213 71.9963 57.5259 72.2811 53.9904 72.9761C50.7682 73.6092 47.4319 74.7958 43.7688 74.5405C40.4057 75.0806 37.105 74.0783 33.858 73.5113C30.5615 72.9354 27.0534 72.7151 24.1418 71.1096C21.2721 69.5268 19.2803 66.7308 17.0425 64.2563C14.9023 61.8893 12.2697 59.645 10.9367 56.5584C9.70596 53.7081 9.83132 50.3719 9.47266 46.9849C9.63262 42.8724 9.29615 39.0534 10.3508 35.7384C11.5683 31.9117 14.2167 29.012 16.4142 26.1049C18.7362 23.0333 20.842 19.7536 23.9976 17.5323C27.09 15.3553 31.0137 14.3802 34.6518 12.848C38.1649 11.3689 41.6227 9.22361 45.4128 8.18951Z" fill="#D2913F"/>
</g>
<mask id="mask18_394_4436" style="mask-type:luminance" maskUnits="userSpaceOnUse" x="9" y="14" width="70" height="64">
<path d="M9.30859 77.8359L9.30859 14.0077L78.5638 14.0077V77.8359H9.30859Z" fill="white"/>
</mask>
<g mask="url(#mask18_394_4436)">
<path d="M45.0207 14.244C48.842 14.2952 52.2282 15.6538 55.4886 16.4351C59.1547 17.3134 62.8391 17.7872 65.7189 19.6027C68.7212 21.4953 70.5913 24.5744 72.6482 27.5021C74.5432 30.1993 76.9081 32.9422 77.9251 36.5319C78.7989 39.6153 78.359 43.1703 78.5353 46.9214C78.556 50.4407 78.7908 53.983 77.4602 57.1172C76.1261 60.2594 73.3527 62.6561 70.9291 65.2281C68.5882 67.7123 66.4229 70.6251 63.3125 72.409C60.3208 74.1248 56.6449 74.6011 53.1612 75.5194C49.8048 76.4041 46.3439 77.8256 42.7272 77.8359C39.4376 77.0532 36.3102 74.9655 32.9908 73.424C29.8351 71.9586 26.2349 70.9789 23.3873 68.8787C20.5528 66.7879 18.6415 63.7126 16.4353 61.0421C14.2117 58.3504 11.5355 55.8457 10.279 52.6147C9.06201 49.4854 9.33667 45.9883 9.3321 42.3995C9.96738 39.1643 10.0749 35.7197 11.5128 32.7008C12.9577 29.6679 15.622 27.3284 17.8065 24.8114C20.0311 22.2478 21.9818 19.3091 24.8997 17.5929C27.7843 15.8963 31.3294 15.5755 34.8187 15.0133C38.0025 14.5002 41.3909 13.5703 45.0207 14.244Z" fill="#D29140"/>
</g>
<mask id="mask19_394_4436" style="mask-type:luminance" maskUnits="userSpaceOnUse" x="11" y="12" width="67" height="63">
<path d="M11.9453 74.8359L11.9453 12.3562L77.6089 12.3562V74.8359H11.9453Z" fill="white"/>
</mask>
<g mask="url(#mask19_394_4436)">
<path d="M43.6349 12.7916C47.3489 11.8794 50.8596 12.6245 54.0941 13.0053C57.7481 13.4355 61.3806 13.727 64.2846 15.4482C67.2993 17.2352 69.2121 20.2991 71.2575 23.0586C73.295 25.8078 75.6873 28.5326 76.6005 31.8247C77.5078 35.0959 76.8514 38.6599 76.4892 42.0521C76.9378 45.8211 77.9154 49.3181 77.5145 52.4331C77.0299 56.1983 75.042 59.2001 73.4978 61.9999C71.7343 65.197 70.0607 68.3771 67.1937 70.3C64.3346 72.2174 60.6328 72.6362 56.9709 73.2702C53.6508 73.845 50.1826 74.8334 46.4327 74.3404C42.6382 75.3499 38.9975 74.585 35.5447 74.0849C31.8333 73.5474 28.0395 73.0919 24.9856 71.1595C21.9365 69.2299 19.9577 66.0248 17.8353 63.0651C15.7756 60.1927 13.3339 57.3105 12.3988 53.8019C11.5032 50.4429 12.15 46.7566 12.5074 43.1099C12.2701 39.5641 11.5789 36.2205 12.308 33.3157C13.1483 29.9675 15.4589 27.4392 17.3844 24.9329C19.3821 22.3323 21.2568 19.4894 24.1888 17.7837C26.958 16.1729 30.4646 15.8292 33.8608 15.0062C36.9855 14.2492 40.1425 12.8897 43.6349 12.7916Z" fill="#D39140"/>
</g>
<mask id="mask20_394_4436" style="mask-type:luminance" maskUnits="userSpaceOnUse" x="10" y="9" width="70" height="66">
<path d="M10.6562 74.3125L10.6563 9.2504H79.0652V74.3125H10.6562Z" fill="white"/>
</mask>
<g mask="url(#mask20_394_4436)">
<path d="M43.3928 9.2627C47.4313 9.0943 51.127 10.6944 54.6616 12.0723C58.217 13.4585 61.9996 14.7513 64.9207 17.3437C67.7124 19.821 69.441 23.3654 71.542 26.6238C73.5676 29.7649 76.123 32.7913 77.4072 36.3721C78.6806 39.9228 78.616 43.7577 79.065 47.4656C78.3709 50.0936 78.0247 53.421 76.2366 56.5314C74.7088 59.1893 72.0064 61.3235 69.7351 63.7619C67.5487 66.1089 65.6468 68.952 62.8181 70.6166C60.0452 72.2484 56.6419 72.5696 53.2949 73.0983C50.2475 73.5797 47.0848 74.4496 43.5957 73.666C40.2634 74.9219 36.9725 74.0922 33.7178 73.3284C30.5666 72.5888 27.1103 71.8713 24.3197 69.7754C21.7286 67.8291 20.0464 64.7578 18.0017 62.0812C15.9777 59.4314 13.4329 56.9894 12.1658 54.0365C10.7988 50.8507 10.8761 47.4208 10.6563 44.3788C10.7911 41.0684 10.688 37.6084 12.0694 34.4553C13.3906 31.4388 16.0456 29.016 18.2307 26.3221C20.3498 23.7095 22.1155 20.6345 24.7964 18.4872C27.4957 16.3252 30.9556 15.2217 33.9734 13.6936C37.1513 12.0841 40.1483 9.984 43.3928 9.2627Z" fill="#D49140"/>
</g>
<mask id="mask21_394_4436" style="mask-type:luminance" maskUnits="userSpaceOnUse" x="10" y="13" width="67" height="62">
<path d="M10.0547 74.6562L10.0547 13.482L76.2112 13.482V74.6562H10.0547Z" fill="white"/>
</mask>
<g mask="url(#mask21_394_4436)">
<path d="M43.4009 13.4817C46.8689 13.5644 50.1128 15.0613 53.2984 16.0587C56.5845 17.0877 60.0893 17.7238 62.8659 19.5387C65.7381 21.416 67.633 24.3447 69.7293 26.8557C71.9096 29.467 74.4418 31.9187 75.5246 34.9834C76.6236 38.0942 76.147 41.5098 75.8412 44.8418C75.8693 48.1008 76.3555 51.4853 75.4669 54.5618C74.5511 57.7334 72.3083 60.3555 70.5642 63.0237C68.726 65.8357 67.1706 68.9046 64.5815 70.7991C61.8872 72.7706 58.4561 73.3111 55.1404 73.8828C52.0419 74.4167 48.7885 75.1785 45.3124 74.14C41.7089 75.0162 38.3467 74.298 35.145 73.9672C31.5897 73.5999 28.0261 73.4353 25.0841 71.8774C22.057 70.2744 19.9874 67.4081 17.7432 64.8814C15.5148 62.3725 12.8914 59.9771 11.5677 56.8932C10.2503 53.8236 10.345 50.3937 10.0547 47.0851C10.6708 43.4129 10.5513 39.947 11.571 36.9922C12.7939 33.4484 15.1635 30.8006 16.9309 28.1827C18.9765 25.1525 20.6789 22.0722 23.3974 20.1152C26.1966 18.0997 29.7739 17.4275 33.2215 16.357C36.4149 15.3656 39.706 13.8239 43.4009 13.4817Z" fill="#D59240"/>
</g>
<mask id="mask22_394_4436" style="mask-type:luminance" maskUnits="userSpaceOnUse" x="12" y="12" width="64" height="65">
<path d="M12.2812 76.1562L12.2813 12.5246L75.6399 12.5246V76.1562H12.2812Z" fill="white"/>
</mask>
<g mask="url(#mask22_394_4436)">
<path d="M44.0165 12.7583C47.9179 12.5358 51.3424 13.828 54.5991 14.7369C58.2091 15.7442 61.8436 16.5926 64.5865 18.7799C67.3355 20.972 68.9036 24.2834 70.7026 27.4384C72.3775 30.3762 74.5132 33.3633 75.298 36.9502C76.0133 40.2199 75.3959 43.8132 75.3206 47.4796C75.3247 50.3248 75.5994 53.4137 74.4054 56.2299C73.2914 58.8582 70.8867 60.9376 68.9125 63.2817C67.0345 65.5119 65.4608 68.2259 62.9606 69.9781C60.5324 71.6798 57.3953 72.2954 54.5219 73.3461C51.7257 74.3688 48.9321 75.9345 45.8445 76.1562C42.0177 76.0865 38.5181 74.7471 35.1989 73.9755C31.4767 73.1105 27.7468 72.6558 24.8131 70.9264C21.6441 69.058 19.625 66.0293 17.569 63.1749C15.5863 60.4225 13.3033 57.5747 12.5385 53.9269C11.8776 50.774 12.6552 47.209 13.0291 43.4021C12.8123 40.4071 12.4624 37.0045 13.6611 33.799C14.7508 30.8854 17.1919 28.4241 19.1667 25.7597C21.1065 23.1424 22.7157 20.1119 25.251 18.1202C27.9157 16.027 31.2917 15.1858 34.3236 14.2168C37.5296 13.1918 40.7428 12.0162 44.0165 12.7583Z" fill="#D59241"/>
</g>
<mask id="mask23_394_4436" style="mask-type:luminance" maskUnits="userSpaceOnUse" x="12" y="11" width="65" height="67">
<path d="M12.582 77.0859L12.582 11.5951H76.2936V77.0859H12.582Z" fill="white"/>
</mask>
<g mask="url(#mask23_394_4436)">
<path d="M42.9696 11.6986C46.9648 11.6999 50.5334 13.0564 53.9312 13.9265C57.7544 14.9052 61.5622 15.5903 64.4955 17.5753C67.6044 19.6792 69.494 22.9346 71.4399 26.0539C73.2915 29.0224 75.4551 32.1109 76.1051 35.8944C76.6762 39.2187 75.8109 42.8976 75.3491 46.7771C75.5619 50.0053 76.0055 53.2351 74.9436 56.0796C73.8702 58.9556 71.395 61.1555 69.2441 63.5504C67.219 65.8053 65.385 68.5145 62.5999 70.2665C60.0078 71.897 56.6997 72.4777 53.6075 73.6105C50.6938 74.6778 47.8378 76.3951 44.6113 76.9689C41.1038 77.4709 37.8674 76.2537 34.8078 75.3059C31.646 74.3266 28.2968 73.4746 25.7027 71.3923C23.169 69.3585 21.6225 66.2906 19.7162 63.6317C17.786 60.9391 15.3665 58.4673 14.1671 55.5692C12.8358 52.3532 12.8989 48.9622 12.582 46.0623C12.722 42.6412 12.3263 39.1648 13.2175 35.954C14.1455 32.6106 16.3313 29.7806 17.969 26.9023C19.7151 23.834 21.0882 20.5453 23.5157 18.2899C26.1134 15.8766 29.5562 14.7764 32.7807 13.6413C35.9774 12.5161 39.3118 11.216 42.9696 11.6986Z" fill="#D69241"/>
</g>
</g>
<path d="M20.6439 16.2114C23.3822 18.072 23.791 22.0733 21.5569 25.1488C19.3227 28.224 15.2916 29.2089 12.5533 27.3485C9.81472 25.4879 9.40622 21.4863 11.6403 18.4111C13.8745 15.3356 17.9056 14.3508 20.6439 16.2114Z" fill="#51310E"/>
<path d="M18.7464 17.5097C20.9371 18.9981 21.264 22.1993 19.4768 24.6595C17.6893 27.12 14.4646 27.9078 12.2738 26.4193C10.0831 24.9308 9.75621 21.7297 11.5434 19.2694C13.3309 16.809 16.5556 16.0212 18.7464 17.5097Z" fill="#56320F"/>
<path d="M18.0987 18.4031C19.8514 19.5939 20.113 22.1548 18.6831 24.1229C17.2532 26.0913 14.6731 26.7215 12.9207 25.5308C11.1681 24.3399 10.9065 21.7791 12.3363 19.8107C13.7662 17.8426 16.3461 17.2122 18.0987 18.4031Z" fill="#6D3C17"/>
<path d="M32.3777 59.8551C34.1207 57.0922 38.2234 56.4395 41.5408 58.3973C44.8585 60.3549 46.135 64.1816 44.3919 66.9443C42.6486 69.7072 38.5462 70.3599 35.2285 68.4022C31.9111 66.4446 30.6346 62.618 32.3777 59.8551Z" fill="#51310E"/>
<path d="M33.8428 61.6028C35.2372 59.3926 38.5194 58.8704 41.1735 60.4366C43.8275 62.0027 44.8485 65.0641 43.4541 67.2743C42.0597 69.4845 38.7775 70.0067 36.1234 68.4405C33.4693 66.8744 32.4484 63.813 33.8428 61.6028Z" fill="#56320F"/>
<path d="M34.8039 62.1666C35.9195 60.3984 38.5451 59.9806 40.6684 61.2336C42.7916 62.4865 43.6086 64.9356 42.493 66.7038C41.3774 68.472 38.7518 68.8896 36.6286 67.6369C34.5053 66.3839 33.6883 63.9348 34.8039 62.1666Z" fill="#6D3C17"/>
<path d="M48.8984 7.33402C48.9028 4.09752 52.0568 1.47762 55.9431 1.48242C59.8297 1.48722 62.9768 4.11482 62.9724 7.35152C62.968 10.588 59.814 13.2077 55.9277 13.2031C52.0411 13.1983 48.8941 10.5705 48.8984 7.33402Z" fill="#51310E"/>
<path d="M51.0859 8.09376C51.0894 5.50446 53.6127 3.40856 56.7219 3.41236C59.8308 3.41636 62.3487 5.51835 62.3452 8.10765C62.3417 10.6969 59.8184 12.7928 56.7093 12.7891C53.6001 12.7851 51.0825 10.683 51.0859 8.09376Z" fill="#56320F"/>
<path d="M52.2148 8.09536C52.2177 6.02386 54.2363 4.34726 56.7234 4.35036C59.2108 4.35336 61.225 6.03506 61.2222 8.10656C61.2194 10.1779 59.2008 11.8547 56.7136 11.8516C54.2263 11.8484 52.212 10.1667 52.2148 8.09536Z" fill="#6D3C17"/>
<path d="M62.5123 76.6157C64.8067 78.1744 65.149 81.5269 63.2771 84.1035C61.4054 86.6799 58.0281 87.505 55.7338 85.9462C53.4397 84.3875 53.0973 81.035 54.969 78.4586C56.8409 75.8819 60.218 75.0569 62.5123 76.6157Z" fill="#51310E"/>
<path d="M60.9224 77.7018C62.7579 78.9489 63.0317 81.6308 61.5341 83.692C60.0368 85.7534 57.335 86.4134 55.4999 85.1663C53.6641 83.9193 53.3904 81.2374 54.8877 79.1762C56.3853 77.1148 59.087 76.4548 60.9224 77.7018Z" fill="#56320F"/>
<path d="M60.3778 78.4537C61.8462 79.4513 62.0653 81.5969 60.8672 83.2458C59.6694 84.8948 57.5078 85.4229 56.0396 84.4253C54.5712 83.4276 54.3521 81.282 55.5502 79.6332C56.748 77.9841 58.9094 77.456 60.3778 78.4537Z" fill="#6D3C17"/>
<path d="M53.7652 27.2591C56.2671 25.775 59.74 26.8497 61.522 29.6595C63.304 32.4694 62.7205 35.9502 60.2186 37.4343C57.7168 38.9185 54.244 37.8436 52.462 35.0338C50.6797 32.224 51.2632 28.7431 53.7652 27.2591Z" fill="#51310E"/>
<path d="M54.1847 29.1854C56.1861 27.9981 58.9645 28.8579 60.3902 31.1058C61.8157 33.3536 61.3489 36.1384 59.3475 37.3257C57.3459 38.5128 54.5678 37.653 53.142 35.4054C51.7165 33.1575 52.1833 30.3727 54.1847 29.1854Z" fill="#56320F"/>
<path d="M54.7017 29.9985C56.3029 29.0486 58.5256 29.7363 59.666 31.5346C60.8067 33.3329 60.4332 35.5607 58.8318 36.5104C57.2307 37.4603 55.0082 36.7727 53.8675 34.9741C52.7271 33.1758 53.1006 30.9484 54.7017 29.9985Z" fill="#6D3C17"/>
<path d="M83.1245 54.6333C85.8628 56.4939 86.2715 60.4952 84.0375 63.5707C81.8032 66.6459 77.7721 67.6307 75.0338 65.7703C72.2953 63.9097 71.8866 59.9082 74.1208 56.8329C76.3551 53.7575 80.3862 52.7727 83.1245 54.6333Z" fill="#51310E"/>
<path d="M81.2268 55.9315C83.4176 57.42 83.7445 60.6211 81.9572 63.0814C80.1698 65.5418 76.945 66.3296 74.7543 64.8412C72.5636 63.3527 72.2367 60.1516 74.0239 57.6913C75.8114 55.2309 79.0361 54.4431 81.2268 55.9315Z" fill="#56320F"/>
<path d="M80.5792 56.8249C82.3318 58.0158 82.5934 60.5767 81.1636 62.5448C79.7337 64.5132 77.1536 65.1433 75.4012 63.9527C73.6485 62.7618 73.3869 60.201 74.8168 58.2326C76.2467 56.2644 78.8266 55.6341 80.5792 56.8249Z" fill="#6D3C17"/>
<path d="M10.1688 58.0689C13.5157 58.0689 16.2287 61.1157 16.2287 64.8744C16.2287 68.6328 13.5157 71.6797 10.1688 71.6797C6.82244 71.6797 4.10938 68.6328 4.10938 64.8744C4.10938 61.1157 6.82244 58.0689 10.1688 58.0689Z" fill="#51310E"/>
<path d="M9.38672 60.1816C12.0641 60.1816 14.2344 62.6191 14.2344 65.626C14.2344 68.6328 12.0641 71.0703 9.38672 71.0703C6.70934 71.0703 4.53906 68.6328 4.53906 65.626C4.53906 62.6191 6.70934 60.1816 9.38672 60.1816Z" fill="#56320F"/>
<path d="M9.38589 61.2734C11.5277 61.2734 13.264 63.2235 13.264 65.629C13.264 68.0343 11.5277 69.9844 9.38589 69.9844C7.24412 69.9844 5.50781 68.0343 5.50781 65.629C5.50781 63.2235 7.24412 61.2734 9.38589 61.2734Z" fill="#6D3C17"/>
<path d="M14.3215 34.4995C16.2365 33.5334 18.7295 34.4938 19.8897 36.6446C21.0497 38.7955 20.4377 41.3222 18.5227 42.2883C16.6075 43.2542 14.1145 42.2938 12.9545 40.1429C11.7943 37.9923 12.4063 35.4655 14.3215 34.4995Z" fill="#51310E"/>
<path d="M14.5243 35.937C16.0565 35.1642 18.0507 35.9326 18.9789 37.6533C19.9069 39.3739 19.4175 41.3953 17.8853 42.1682C16.3531 42.9408 14.3589 42.1726 13.4307 40.4519C12.5027 38.7313 12.9921 36.7099 14.5243 35.937Z" fill="#56320F"/>
<path d="M14.8641 36.5559C16.0898 35.9377 17.6853 36.5523 18.4277 37.9288C19.1702 39.3053 18.7785 40.9224 17.5528 41.5408C16.3272 42.1589 14.7317 41.5443 13.9892 40.1678C13.2466 38.7913 13.6383 37.174 14.8641 36.5559Z" fill="#6D3C17"/>
<path d="M72.1225 33.9684C74.0871 34.8366 74.8345 37.3293 73.792 39.5357C72.7493 41.7421 70.3118 42.8267 68.3472 41.9585C66.3825 41.0903 65.6352 38.5978 66.6777 36.3914C67.7204 34.185 70.1579 33.1002 72.1225 33.9684Z" fill="#51310E"/>
<path d="M71.08 35.009C72.6515 35.7036 73.2496 37.6976 72.4156 39.4627C71.5814 41.2279 69.6314 42.0957 68.0596 41.4012C66.488 40.7066 65.8902 38.7126 66.7242 36.9473C67.5582 35.1823 69.5084 34.3145 71.08 35.009Z" fill="#56320F"/>
<path d="M70.7741 35.6479C72.0314 36.2035 72.5098 37.7987 71.8425 39.2108C71.1752 40.6229 69.6152 41.3172 68.3579 40.7616C67.1006 40.2059 66.6223 38.6107 67.2895 37.1987C67.9568 35.7864 69.5168 35.0922 70.7741 35.6479Z" fill="#6D3C17"/>
</g>
<defs>
<clipPath id="clip0_394_4436">
<rect width="90" height="90" fill="white" transform="matrix(0 -1 1 0 0 90)"/>
</clipPath>
</defs>
</svg>
