<svg width="90" height="90" viewBox="0 0 90 90" fill="none" xmlns="http://www.w3.org/2000/svg">
<g clip-path="url(#clip0_394_4585)">
<mask id="mask0_394_4585" style="mask-type:luminance" maskUnits="userSpaceOnUse" x="0" y="0" width="90" height="90">
<path d="M0 0L0 90H90V0H0Z" fill="white"/>
</mask>
<g mask="url(#mask0_394_4585)">
<path d="M80.1945 73.3662C81.1916 73.7301 82.5577 73.5604 83.5007 73.0848C83.8967 72.1113 82.1505 71.8403 81.5966 71.3619C80.8653 71.5451 80.4418 72.5443 80.1133 73.1946L80.1945 73.3662Z" fill="white"/>
<path d="M85.7969 61.4525C86.4917 62.2981 87.7463 62.868 88.8669 63.0312C89.4729 62.4948 88.5167 61.5348 88.5717 60.8485C88.0631 59.556 88.0878 57.8458 87.2728 56.792C86.4207 57.4505 86.5396 58.8614 86.1076 59.7916C85.9945 60.3398 85.8054 60.8926 85.7969 61.4525Z" fill="white"/>
<path d="M81.5586 71.1074C82.4654 71.8636 83.6823 72.6079 84.8943 72.7891C86.4928 69.8596 87.676 66.6592 89.1082 63.6259C88.4956 62.7205 86.8371 62.534 85.8462 61.8959C84.8159 62.6164 84.626 64.3483 83.9251 65.4603C83.1627 67.3363 82.0668 69.1763 81.5586 71.1074Z" fill="white"/>
<path d="M55.5241 80.0788C55.1055 81.8918 57.1967 81.1001 58.3358 81.1084C61.8781 80.7389 65.4743 79.9476 68.579 78.3147C69.1671 77.7697 68.7858 76.3388 67.7567 76.8873C63.6979 77.7299 59.5302 78.2682 55.4724 78.9463C55.3896 79.3114 55.5231 79.7062 55.5241 80.0788Z" fill="white"/>
<path d="M39.2789 14.7071C39.999 15.4744 41.3686 14.6914 42.3194 14.865C48.636 14.7707 55.0351 14.6204 61.2864 15.487C64.5777 16.1289 68.2836 16.3996 70.6135 18.8873C76.6483 23.924 80.5467 31.0026 81.6734 38.4815C82.7056 46.0378 82.4183 53.922 80.0155 61.2303C78.2787 66.1517 75.1566 71.0063 70.2594 73.6403C66.2566 75.3441 61.696 75.4241 57.3895 76.0329C54.4427 76.4799 51.3803 76.2486 48.4808 76.8667C47.8306 77.6324 49.4936 77.6398 49.964 77.6972C51.9207 77.6482 53.6755 78.4766 55.5727 78.6719C60.8843 78.205 66.2106 77.309 71.3139 75.8439C76.8104 73.1326 80.2707 67.8361 82.3097 62.5211C85.3767 53.6607 85.6707 43.9759 83.3864 34.9203C81.6179 28.0247 77.7867 21.5847 72.2378 16.685C66.8464 14.3324 60.8922 12.9607 54.938 12.5451C53.2707 12.5302 51.8534 13.5086 50.149 13.2801C47.5348 13.2647 44.7833 13.6246 42.2374 13.2247C41.9119 12.6758 40.6819 11.9693 40.5252 12.9982C40.8761 14.0854 39.339 13.8372 39.2773 14.7048L39.2789 14.7071Z" fill="white"/>
<path d="M6.65848 27.1304C7.26622 27.7502 8.31201 26.8194 9.07883 26.849C12.9801 25.8113 17.0987 25.6584 21.1081 25.9772C22.4773 24.8439 22.813 22.9349 23.9084 21.5694C24.7002 19.9773 26.3233 18.7871 26.8348 17.102C26.2924 16.2337 26.605 14.9864 26.9972 14.0955C28.3012 12.5048 30.8187 12.7418 32.724 12.4207C34.9711 12.167 37.3077 12.2417 39.5061 11.8647C39.3957 11.1472 40.0669 9.4475 38.7976 9.3594C36.6685 9.2267 34.9174 10.5817 32.8059 10.4674C28.3537 10.9444 23.8818 11.8125 19.6851 13.2723C13.7555 16.1573 8.93891 21.1018 6.6449 26.9452C6.64844 27.007 6.63548 27.0703 6.65972 27.1304H6.65848Z" fill="white"/>
<path d="M17.8534 47.034C18.0745 55.2773 19.5454 63.896 24.4511 70.9051C25.8324 72.8951 27.5599 74.8682 30.1807 75.4154C33.3468 76.5621 36.8091 76.4079 40.0447 77.159C40.6813 77.3066 40.0327 78.1727 40.8638 78.2573C41.8127 78.6517 42.0561 77.2582 43.0114 77.5365C44.851 77.3302 46.8678 77.8144 48.613 77.2277C48.9318 76.3271 47.2716 76.437 46.6954 76.3765C41.0109 75.8549 35.214 75.0224 29.8682 73.1917C26.7146 71.1432 25.0697 67.6148 23.8557 64.2995C20.7514 54.7238 20.6144 44.3982 22.289 34.5594C23.3383 29.1497 25.1786 23.7859 28.3183 19.1086C30.0783 17.3053 32.9285 16.9473 35.2922 16.1159C36.6305 15.6109 38.4219 15.6398 39.5061 14.7088C39.263 13.7729 37.7329 14.2987 36.9748 14.2558C34.0009 14.6885 30.8048 15.0135 28.2224 16.5291C23.6686 20.4037 21.2641 26.0112 19.6396 31.4387C18.3179 36.5345 17.7828 41.7932 17.8534 47.034Z" fill="white"/>
<path d="M7.88087 66.27C10.6332 71.2524 15.2144 75.471 20.6502 77.9172C25.0937 79.5123 29.8345 80.5187 34.5876 80.7117C36.1297 81.2804 37.8867 81.3548 39.4973 81.1373C40.027 79.5625 39.2364 78.5536 37.4283 78.898C34.1087 78.5372 30.5886 78.7541 27.468 77.5543C26.0783 76.7688 26.0322 75.0776 26.4053 73.7586C25.5665 72.0023 24.0211 70.5601 23.0881 68.8458C22.3933 68.1734 22.3272 66.4817 20.958 66.8604C16.6647 67.4622 12.3827 66.6311 8.2056 65.81C7.96433 65.8397 7.83295 66.0569 7.88087 66.27Z" fill="white"/>
<path d="M2.79263 47.0391C2.92259 52.2388 3.62765 57.5735 5.91436 62.3388C7.40922 63.4971 9.55375 63.7406 11.4269 63.9723C14.4632 64.1035 17.5738 64.0134 20.5633 63.7252C19.4991 60.2229 18.534 56.5465 18.1354 52.8802C17.8708 47.1959 17.6729 41.421 18.6298 35.7959C18.9991 33.6847 19.5952 31.5696 20.0837 29.5153C19.2975 28.5974 17.6706 29.1009 16.5562 28.8928C12.8816 28.8269 8.88496 28.5238 5.61161 30.338C4.3633 31.8448 4.38824 33.9908 3.84789 35.7941C3.09937 39.4951 2.72681 43.2642 2.79258 47.0373L2.79263 47.0391Z" fill="white"/>
<path d="M16.5276 76.9846C16.5276 76.9846 16.069 80.0344 16.6003 83.0022C16.8113 84.178 18.0755 88.0963 19.1143 88.7666C27.4283 89.0796 35.1376 88.0963 35.1376 88.0963L36.0015 81.3121" fill="white"/>
<path d="M16.5276 76.9846C16.5276 76.9846 16.069 80.0344 16.6003 83.0022C16.8113 84.178 18.0755 88.0963 19.1143 88.7666C27.4283 89.0796 35.1376 88.0963 35.1376 88.0963L36.0015 81.3121" stroke="#010101" stroke-width="1.1307" stroke-miterlimit="14.3" stroke-linecap="round" stroke-linejoin="round"/>
<path d="M19.1218 85.0682L19.1258 87.4221C19.1288 88.5488 20.1262 89.4766 21.3369 89.4766H33.775C34.9864 89.4766 35.9809 88.5488 35.9782 87.4221L35.9696 82.7115C35.9667 81.5848 34.9708 80.6595 33.7585 80.6595H21.3204C20.1104 80.6595 19.1159 81.5848 19.1172 82.7115L19.1218 85.0682Z" fill="white"/>
<path d="M19.1218 85.0682L19.1258 87.4221C19.1288 88.5488 20.1262 89.4766 21.3369 89.4766H33.775C34.9864 89.4766 35.9809 88.5488 35.9782 87.4221L35.9696 82.7115C35.9667 81.5848 34.9708 80.6595 33.7585 80.6595H21.3204C20.1104 80.6595 19.1159 81.5848 19.1172 82.7115L19.1248 85.0682H19.1218Z" stroke="#010101" stroke-width="1.1307" stroke-miterlimit="14.3" stroke-linecap="round" stroke-linejoin="round"/>
<path d="M24.3765 88.2324C26.058 87.9144 27.1325 86.3342 26.7761 84.7081C26.4184 83.0817 24.764 82.0227 23.0838 82.3409C21.4023 82.6617 20.3291 84.2401 20.6855 85.8652C21.0432 87.4901 22.6963 88.5516 24.3765 88.2324Z" fill="#AAABAA"/>
<path d="M24.3765 88.2324C26.058 87.9144 27.1325 86.3342 26.7761 84.7081C26.4184 83.0817 24.764 82.0227 23.0838 82.3409C21.4023 82.6617 20.3291 84.2401 20.6855 85.8652C21.0432 87.4901 22.6963 88.5516 24.3765 88.2324Z" stroke="#010101" stroke-width="1.1307" stroke-miterlimit="14.3" stroke-linecap="round" stroke-linejoin="round"/>
<path d="M32.1313 88.4909C33.8128 88.1702 34.886 86.5927 34.5296 84.9666C34.1718 83.3402 32.5188 82.2787 30.8386 82.5982C29.1571 82.9177 28.0839 84.4961 28.439 86.1225C28.7967 87.7486 30.4511 88.8076 32.1313 88.4909Z" fill="#AAABAA"/>
<path d="M32.1313 88.4909C33.8128 88.1702 34.886 86.5927 34.5296 84.9666C34.1718 83.3402 32.5188 82.2787 30.8386 82.5982C29.1571 82.9177 28.0839 84.4961 28.439 86.1225C28.7967 87.7486 30.4511 88.8076 32.1313 88.4909Z" stroke="#010101" stroke-width="1.1307" stroke-miterlimit="14.3" stroke-linecap="round" stroke-linejoin="round"/>
<path d="M23.9735 85.9531C25.3687 85.9531 26.5014 85.2945 26.5014 84.4833C26.5014 83.6721 25.3674 83.0131 23.9735 83.0131C22.5797 83.0131 21.4453 83.673 21.4453 84.4833C21.4447 85.2948 22.5783 85.9531 23.9735 85.9531Z" fill="#010101"/>
<path d="M23.9735 85.9531C25.3687 85.9531 26.5014 85.2945 26.5014 84.4833C26.5014 83.6721 25.3674 83.0131 23.9735 83.0131C22.5797 83.0131 21.4453 83.673 21.4453 84.4833C21.4447 85.2948 22.5783 85.9531 23.9735 85.9531Z" stroke="#010101" stroke-width="1.1307" stroke-miterlimit="14.3" stroke-linecap="round" stroke-linejoin="round"/>
<path d="M31.3485 86.1406C32.7434 86.1406 33.8767 85.482 33.8767 84.672C33.8767 83.862 32.7421 83.2021 31.3485 83.2021C29.952 83.2021 28.8203 83.862 28.8203 84.672C28.82 85.4826 29.9523 86.1406 31.3485 86.1406Z" fill="#010101"/>
<path d="M31.3485 86.1406C32.7434 86.1406 33.8767 85.482 33.8767 84.672C33.8767 83.862 32.7421 83.2021 31.3485 83.2021C29.952 83.2021 28.8203 83.862 28.8203 84.672C28.82 85.4826 29.9523 86.1406 31.3485 86.1406Z" stroke="#010101" stroke-width="1.1307" stroke-miterlimit="14.3" stroke-linecap="round" stroke-linejoin="round"/>
<path d="M16.5366 14.0625C16.5366 14.0625 16.0763 11.0127 16.6076 8.0434C16.8196 6.8691 18.0825 2.9496 19.1216 2.279C27.4366 1.9678 35.1449 2.9509 35.1449 2.9509L36.0081 9.7335" fill="white"/>
<path d="M16.5366 14.0625C16.5366 14.0625 16.0763 11.0127 16.6076 8.0434C16.8196 6.8691 18.0825 2.9496 19.1216 2.279C27.4366 1.9678 35.1449 2.9509 35.1449 2.9509L36.0081 9.7335" stroke="#010101" stroke-width="1.1307" stroke-miterlimit="14.3" stroke-linecap="round" stroke-linejoin="round"/>
<path d="M19.1436 5.99014L19.1489 3.63344C19.1505 2.50914 20.1497 1.58114 21.3594 1.58114L33.7975 1.58114C35.0088 1.58114 36.0033 2.50914 36.0007 3.63344L35.9917 8.34373C35.9904 9.47043 34.9926 10.3984 33.7806 10.3984L21.3425 10.3984C20.1325 10.3984 19.138 9.47043 19.1406 8.34373L19.1436 5.99014Z" fill="white"/>
<path d="M70.4731 10.2891L70.2714 10.286L70.073 10.2706L69.8813 10.2491L69.6994 10.2214L69.5308 10.1814L69.3787 10.1353L69.2465 10.0861L69.1341 10.0277L69.0415 9.96616L68.9787 9.90157L68.939 9.83396L68.9258 9.76626L68.939 9.69556L68.9787 9.62786L69.0415 9.56336L69.1341 9.50186L69.2465 9.44336L69.3787 9.39106L69.5308 9.34806L69.6994 9.31116L69.8813 9.28046L70.073 9.25586L70.2714 9.24356L70.4731 9.23736L70.6747 9.24356L70.8731 9.25586L71.0649 9.28046L71.2467 9.31116L71.4153 9.34806L71.5674 9.39106L71.6996 9.44336L71.812 9.50186L71.9046 9.56336L71.9674 9.62786L72.0071 9.69556L72.0203 9.76626L72.0071 9.83396L71.9674 9.90157L71.9046 9.96616L71.812 10.0277L71.6996 10.0861L71.5674 10.1353L71.4153 10.1814L71.2467 10.2214L71.0649 10.2491L70.8731 10.2706L70.6747 10.286L70.4731 10.2891Z" fill="#010101"/>
<path d="M67.369 78.5587L67.4583 78.4991L67.5707 78.4413L67.7063 78.3908L67.855 78.3456L68.0236 78.3072L68.2055 78.2755L68.3972 78.254L68.5956 78.2396L68.7973 78.2371L68.999 78.2396L69.2006 78.254L69.3924 78.2755L69.5709 78.3072L69.7395 78.3456L69.8949 78.3908L70.0272 78.4413L70.1396 78.4991L70.2288 78.5587L70.295 78.6252L70.3313 78.6922L70.3479 78.7608L70.3313 78.8312L70.295 78.8982L70.2288 78.9631L70.1396 79.0255L70.0272 79.0824L69.8949 79.1341L69.7395 79.1793L69.5709 79.2177L69.3924 79.2479L69.2006 79.2706L68.999 79.2826L68.7973 79.2891L68.5956 79.2826L68.3972 79.2706L68.2055 79.2479L68.0236 79.2177L67.855 79.1793L67.7063 79.1341L67.5707 79.0824L67.4583 79.0255L67.369 78.9631L67.3029 78.8982L67.2632 78.8312L67.25 78.7608L67.2632 78.6922L67.3029 78.6252L67.369 78.5587Z" fill="#010101"/>
<path d="M60.9726 81.5413L59.1641 81.7599L59.5642 81.6879L59.0451 81.7719L56.9226 81.9641L57.2532 81.9186L56.8036 81.9727L54.3438 82.1264L54.5653 82.1065L54.2281 82.1317L51.4211 82.2338L51.484 82.2313L51.312 82.2362L48.1381 82.2734H48.0158H48.0356L44.4749 82.2313L44.1774 82.2193L44.379 82.2301L40.4183 82.0988L39.9686 82.0591L40.329 82.0939L35.9484 81.8598L35.8657 81.8531L31.0516 81.5022L30.4192 81.4014L30.2611 81.3522L30.8086 81.4782L26.7212 80.9293L26.02 80.7427L25.9116 80.6812L26.3804 80.8666L22.6196 79.9413L22.0642 79.6843L22.3872 79.87L18.9498 78.5942L18.8013 78.5305L15.6774 76.9349L15.5874 76.882L12.7732 74.9921L12.7147 74.9484L10.2014 72.7947L10.164 72.759L7.94792 70.3715L7.92346 70.3414L5.99696 67.747L5.97845 67.7218L4.33562 64.9475L4.32273 64.9266L2.95497 62.0022L2.94605 61.9844L1.84708 58.9383L1.84213 58.9229L1.00633 55.7864L1.00269 55.771L0.424118 52.5699L0.421142 52.5545L0.0921804 49.3165L0.0905274 49.3073L0.00390625 46.06V46.0477L0.154997 42.8251V42.8128L0.679353 38.2894L0.682328 38.2741L1.47448 34.1166L1.4768 34.0982L2.5384 30.2943L2.54402 30.2759L3.87805 26.8165L3.88797 26.795L5.50137 23.6738L5.51691 23.6461L7.40803 20.854L7.43514 20.8233L9.60959 18.3479L9.6496 18.311L12.112 16.1523L12.1732 16.1062L14.9265 14.2488L15.0178 14.1935L18.0674 12.6314L18.2 12.5729L21.5458 11.2968L21.7299 11.2353L25.3756 10.2359L25.0381 10.3651L25.6077 10.1836L29.5582 9.4518L29.1423 9.5625L29.8191 9.4149L34.0771 8.9413L33.6936 9.0028L33.8787 8.969L34.3383 8.9198L38.9107 8.6984L38.7652 8.7076L38.9735 8.6953L39.1454 8.6923L44.0319 8.7107L44.2732 8.7199L44.4782 8.7353L44.1939 8.7138L49.0903 8.9106L49.5796 8.9598L49.1961 8.9167L53.5602 9.1966L53.6561 9.2027L57.4449 9.5348L57.5342 9.544L60.718 9.8915L60.7974 9.9007L63.3332 10.2298L63.4059 10.239L65.2607 10.5188L65.3235 10.528L66.4641 10.7187L66.517 10.7279L66.9038 10.8017L67.5552 11.0324L67.2741 10.894L68.2627 11.2384L68.9437 9.6886L72.0052 9.8423L70.8613 12.4438L70.8745 12.4007L70.8448 12.4715L70.7886 12.5422L70.7026 12.6068L70.5935 12.6683L70.4613 12.7236L70.3059 12.7728L70.1339 12.8159L69.9455 12.8466L69.7471 12.8712L69.5388 12.8866L69.3306 12.8928L69.119 12.8866L68.914 12.8712L68.7123 12.8466L68.5272 12.8159L68.3552 12.7728L68.1998 12.7236L68.0643 12.6683L67.9552 12.6068L68.223 12.7328L65.221 11.6873L65.0656 11.6566L63.9812 11.4752L62.1926 11.2046L59.7295 10.8878L56.6316 10.5465L52.9354 10.2236L48.677 9.95L43.9129 9.7593L39.2281 9.7408L34.9102 9.953L30.9144 10.3927L27.2105 11.0816L23.7718 12.0256L20.584 13.2402L17.6475 14.747L14.9699 16.552L12.556 18.6707L10.412 21.1062L8.54071 23.8675L6.94186 26.9641L5.61576 30.402L4.55912 34.1904L3.77027 38.3356L3.24823 42.8435L3.09714 46.057L3.18541 49.2857L3.51305 52.5114L4.08898 55.6972L4.92114 58.8183L6.01548 61.8435L7.37497 64.7476L9.00523 67.4979L10.9129 70.0668L13.1002 72.422L15.5643 74.5336L18.3061 76.3737L21.313 77.91L24.565 79.116L28.0391 79.9724L31.8256 80.4788L36.474 80.8186L40.7654 81.048L44.6303 81.1766L48.0852 81.2175L51.15 81.1815L53.8445 81.0846L56.1853 80.9376L58.1888 80.7562L59.8816 80.5545L61.2768 80.3408L62.4009 80.1317L63.2671 79.9346L63.8952 79.7688L64.3085 79.6415L64.5201 79.5646L64.5829 79.5407L64.6292 79.5237L67.6642 78.4038L69.9389 79.1221L66.9237 80.2322L66.8542 80.2584L66.7914 80.2839L66.5104 80.3847L66.4311 80.41L65.9351 80.5637L65.8459 80.5902L65.1218 80.7824L65.0226 80.8057L64.0539 81.0219L63.9481 81.0447L62.7149 81.2765L62.6025 81.2947L61.0916 81.5265L60.9726 81.5413Z" fill="#010101"/>
<path d="M66.7689 14.5458C66.7689 14.5458 61.4308 12.6728 48.9722 11.9772C37.736 11.349 28.5601 16.1722 28.5601 16.1722C28.5601 16.1722 17.8164 23.559 17.8164 46.0028C17.8164 68.4459 28.5614 75.2328 28.5614 75.2328C28.5614 75.2328 37.5931 78.4203 46.7522 78.9419C55.9112 79.4625 65.1929 77.3207 65.1929 77.3207" stroke="#010101" stroke-width="0.847697" stroke-miterlimit="11.5" stroke-linecap="round" stroke-linejoin="round"/>
<path d="M69.0977 79.0391C69.0977 79.0391 71.1587 78.7712 73.4757 77.5956C77.1848 75.715 79.7954 73.8724 79.7954 73.8724L84.9903 73.3078L89.4407 63.1922C89.4407 63.1922 87.5893 57.9579 87.5893 55.2592C87.5893 52.5618 88.4869 45.6593 87.5324 39.5898C86.5786 33.5221 82.7031 25.6144 80.4268 21.7559C76.8476 15.6827 70.0512 12.2789 70.0512 12.2789" stroke="#010101" stroke-width="1.1307" stroke-miterlimit="11.5" stroke-linecap="round" stroke-linejoin="round"/>
<path d="M66.6147 14.5721L71.7581 16.4107C71.7581 16.4107 86.48 26.341 84.8104 50.4452C83.2896 72.3677 70.1741 76.3837 70.1741 76.3837L63.7812 77.5938" stroke="#010101" stroke-width="0.847697" stroke-miterlimit="11.5" stroke-linecap="round" stroke-linejoin="round"/>
<path d="M30.2556 18.6372L30.1693 18.7449L29.9221 19.0708L29.5359 19.6243L29.0328 20.4023L28.436 21.414L27.7724 22.6563L27.0659 24.1354L26.3409 25.8451L25.6234 27.7947L24.9335 29.9841L24.301 32.4103L23.7465 35.0856L23.2971 37.9976L22.9769 41.1588L22.8092 44.5659L22.8181 48.2221L23.0016 51.823L23.3257 55.0671L23.7674 57.973L24.3073 60.5591L24.9216 62.8365L25.591 64.8257L26.2949 66.5422L27.0104 68.0041L27.7166 69.227L28.3906 70.2283L29.0128 71.0238L29.562 71.6317L30.0182 72.0699L30.3552 72.3525L30.5562 72.5013L30.6222 72.5431L30.8006 72.72L30.7621 72.6646L30.7698 72.6744L30.8822 72.7307L31.3083 72.8918L31.9447 73.0994L33.7733 73.6062L36.1703 74.1649L39.0037 74.7187L42.1446 75.2135L45.464 75.5908L48.8296 75.7999L51.6927 75.7851L54.8105 75.5991L57.9844 75.2928L61.0127 74.9204L63.7039 74.5373L65.8595 74.195L66.6762 74.0588L67.2879 73.9521L67.668 73.8851L67.7144 73.8752L67.7574 73.862L68.1242 73.7289L68.7393 73.4635L69.5559 73.0358L70.541 72.4192L71.6552 71.5837L72.8554 70.505L74.1018 69.1501L75.3548 67.4973L76.5681 65.5152L77.7055 63.1775L78.7204 60.4604L79.5767 57.3334L80.2248 53.7695L80.6315 49.7442L80.7505 45.2332L80.5621 41.4909L80.0893 38.0591L79.3719 34.9257L78.4494 32.0843L77.3649 29.5228L76.1615 27.2319L74.8787 25.2055L73.5596 23.4312L72.2437 21.8998L70.9741 20.6083L69.7938 19.5382L68.7393 18.6895L67.8532 18.0468L67.1788 17.6009L66.7556 17.3488L66.7424 17.3396L64.0709 16.703L61.512 16.2141L59.1184 15.8697L56.7942 15.6422L54.4402 15.4976L51.9639 15.4085L49.2859 15.3439L46.3797 15.2793L43.0206 15.4146L39.9328 15.8051L37.1456 16.3709L34.7289 17.029L32.7442 17.687L31.2565 18.2621L30.3281 18.668L30.1693 18.7449L30.1653 18.751L28.3623 18.3328L28.4529 18.219L28.4167 18.2744L28.4631 18.2067L28.7008 18.0376L29.0364 17.8746L29.0685 17.8592L30.0375 17.438L30.0828 17.4195L31.6208 16.823L31.679 16.8045L33.7304 16.1219L33.8032 16.1003L36.306 15.4208L36.101 15.4946L36.4017 15.3992L39.2947 14.8119L39.1492 14.8457L39.417 14.7904L42.6404 14.3814L42.6074 14.3845L42.7925 14.3691L46.2905 14.2276H46.3036L46.4062 14.2246L49.3718 14.2953L52.063 14.3568H52.0862L54.5956 14.449H54.6418L57.0486 14.5997L57.1148 14.6028L59.5117 14.8396L59.5878 14.8488L62.0609 15.2055L62.1369 15.2178L64.7686 15.7221L64.8347 15.7344L67.7144 16.4201L68.0119 16.5308L68.0979 16.5831L68.0185 16.537L68.1772 16.6231L68.207 16.6385L68.6598 16.9091L68.6864 16.9275L69.3938 17.3918L69.4203 17.4134L70.3328 18.0745L70.3626 18.096L71.4437 18.9693L71.4701 18.9909L72.6801 20.0825L72.7034 20.1071L73.9961 21.4232L74.0192 21.4478L75.3548 23.0038L75.3747 23.0284L76.7136 24.8273L76.7302 24.8549L78.0296 26.906L78.046 26.9367L79.2627 29.2522L79.276 29.2768L80.3703 31.866L80.3802 31.8906L81.3093 34.7596L81.3191 34.7873L82.0431 37.9423L82.0465 37.97L82.5259 41.4263L82.5291 41.4509L82.7144 45.2147L82.7176 45.2362L82.5952 49.7688V49.7904L82.1854 53.8371L82.182 53.8586L81.5274 57.4472L81.5208 57.4718L80.6613 60.624L80.6512 60.6517L79.6264 63.3983L79.6131 63.4275L78.4627 65.7962L78.446 65.8263L77.2096 67.8405L77.1897 67.8743L75.9103 69.5631L75.8806 69.5994L74.601 70.9878L74.5646 71.0238L73.3248 72.1409L73.2786 72.1769L72.1148 73.049L72.0619 73.0846L71.0205 73.7381L70.9609 73.7722L70.0783 74.2323L70.0121 74.2642L69.3311 74.56L69.2615 74.589L68.8218 74.7461L68.7557 74.7692L68.6004 74.8144L68.7294 74.7692L68.435 74.8556L68.2995 74.8792L68.2963 74.8808L67.906 74.9506L67.8962 74.9515L67.278 75.0597L67.2679 75.0622L66.4414 75.2003L66.425 75.2027L64.2494 75.5474L64.2198 75.5511L61.5054 75.9389L61.4691 75.9438L58.401 76.3211L58.3546 76.326L55.1245 76.6369L55.0616 76.6418L51.8647 76.8328L51.9044 76.8291L51.7654 76.835L48.7867 76.8516L48.7172 76.8509L48.6642 76.8482L45.1929 76.6335L45.0937 76.6249H45.1003L41.6982 76.2393L41.6255 76.2286L38.4185 75.7236L38.3591 75.7132L35.4695 75.1471L35.4132 75.1351L32.96 74.5625L32.9006 74.5481L31.0125 74.0244L30.9545 74.0072L30.2583 73.7818L30.2001 73.7599L29.6912 73.5668L29.5891 73.5222L29.2819 73.3685L29.1038 73.2482L29.0443 73.1834L29.0559 73.1993L28.968 73.0933L29.1075 73.2147L29.0235 73.1581L28.9874 73.1329L28.7497 72.9601L28.715 72.9324L28.3444 72.6216L28.3146 72.5948L27.8316 72.1302L27.8071 72.1025L27.2334 71.4696L27.2117 71.4444L26.57 70.6228L26.5518 70.5976L25.8595 69.5714L25.8449 69.5499L25.1275 68.3045L25.1156 68.2815L24.3899 66.7981L24.3797 66.779L23.6674 65.0407L23.6616 65.0225L22.986 63.0133L22.9808 62.9964L22.3609 60.6997L22.357 60.684L21.8148 58.0837L21.8108 58.0684L21.3673 55.1471L21.3651 55.1317L21.0398 51.8722V51.8599L20.8537 48.2467V48.2313L20.8438 44.5597V44.5474L21.0126 41.1219L21.014 41.1096L21.3367 37.933L21.3379 37.9208L21.7903 34.9872L21.7926 34.9749L22.3493 32.2873L22.3533 32.275L22.9897 29.8303L22.9934 29.815L23.6874 27.6132L23.6923 27.5979L24.417 25.636L24.422 25.6206L25.153 23.8925L25.1595 23.8802L25.8721 22.3918L25.8803 22.3765L26.5505 21.1188L26.5581 21.1034L27.1628 20.0794L27.1704 20.0671L27.6832 19.2738L27.6905 19.2584L28.0884 18.6957L28.0977 18.6803L28.3517 18.3451L28.3623 18.3328L28.4529 18.219L30.2556 18.6372Z" fill="#010101"/>
<path d="M5.08594 30.4531C5.08594 30.4531 8.7756 28.7382 12.1598 28.7382C15.5416 28.7382 20.0559 29.0242 20.0559 29.0242L21.4815 26.1641C21.4815 26.1641 18.9232 25.5924 14.9274 25.8762C10.9302 26.1641 6.31847 27.5927 6.31847 27.5927" stroke="#010101" stroke-width="0.847697" stroke-miterlimit="11.5" stroke-linecap="round" stroke-linejoin="round"/>
<path d="M5.39453 62.3911C5.39453 62.3911 9.08419 64.1076 12.4654 64.1076C15.8489 64.1076 20.5727 63.8204 20.5727 63.8204L21.7854 66.6805C21.7854 66.6805 19.2301 67.2533 15.233 66.9664C11.2358 66.6805 6.62409 65.2518 6.62409 65.2518" stroke="#010101" stroke-width="0.847697" stroke-miterlimit="11.5" stroke-linecap="round" stroke-linejoin="round"/>
<path d="M39.6758 79.662L39.8599 84.1116C39.8599 84.1116 42.8563 85.4197 47.5676 85.1719C52.2805 84.9265 55.4299 83.8078 55.4299 83.8078L55.2646 79.0738C55.2646 79.0738 52.457 79.635 47.4472 79.7238C42.4387 79.8112 39.6758 79.662 39.6758 79.662Z" fill="white"/>
<path d="M39.6732 79.662L39.8573 84.1116C39.8573 84.1116 42.8537 85.4197 47.565 85.1719C52.2779 84.9265 55.4273 83.8078 55.4273 83.8078L55.262 79.0738C55.262 79.0738 52.4544 79.635 47.4446 79.7238C42.4358 79.8112 39.6719 79.662 39.6719 79.662H39.6732Z" stroke="#010101" stroke-width="1.1307" stroke-miterlimit="11.5" stroke-linecap="round" stroke-linejoin="round"/>
<path d="M47.3372 77.8926C51.5483 77.8194 54.9814 78.4015 54.9969 79.1899C55.0125 79.9802 51.6052 80.6798 47.3941 80.7514C43.1831 80.8255 39.7503 80.245 39.7344 79.455C39.7189 78.666 43.1259 77.9667 47.3372 77.8926Z" fill="white"/>
<path d="M47.3373 77.8926C51.5483 77.8194 54.9814 78.4015 54.9969 79.1899C55.0125 79.9802 51.6052 80.6798 47.3941 80.7514C43.1831 80.8255 39.7503 80.245 39.7344 79.455C39.7179 78.666 43.1265 77.9667 47.3386 77.8926H47.3373Z" stroke="#010101" stroke-width="1.1307" stroke-miterlimit="11.5" stroke-linecap="round" stroke-linejoin="round"/>
<path d="M42.1094 77.69L42.3362 78.9052C42.3362 78.9052 44.8525 79.2976 47.3936 79.3336C49.9344 79.3665 52.4966 79.0451 52.4966 79.0451L52.2692 77.8296L42.1094 77.69Z" fill="#010101"/>
<path d="M42.1061 77.69L42.3329 78.9052C42.3329 78.9052 44.8492 79.2976 47.3903 79.3336C49.9311 79.3665 52.4934 79.0451 52.4934 79.0451L52.2653 77.8296L42.1061 77.69Z" stroke="#010101" stroke-width="1.1307" stroke-miterlimit="11.5" stroke-linecap="round" stroke-linejoin="round"/>
<path d="M39.6719 11.3193L39.8547 6.86975C39.8547 6.86975 42.8527 5.56036 47.564 5.80666C52.2766 6.05456 55.4263 7.17226 55.4263 7.17226L55.261 11.9063C55.261 11.9063 52.4534 11.343 47.4433 11.2569C42.4335 11.1708 39.6719 11.3193 39.6719 11.3193Z" fill="white"/>
<path d="M39.6719 11.3193L39.8547 6.86975C39.8547 6.86975 42.8527 5.56036 47.564 5.80666C52.2766 6.05456 55.4263 7.17226 55.4263 7.17226L55.261 11.9063C55.261 11.9063 52.4534 11.343 47.4433 11.2569C42.4378 11.1739 39.6739 11.3215 39.6739 11.3215L39.6719 11.3193Z" stroke="#010101" stroke-width="1.1307" stroke-miterlimit="11.5" stroke-linecap="round" stroke-linejoin="round"/>
<path d="M47.3708 13.0488C51.5821 13.1201 55.0136 12.5395 55.0305 11.7511C55.046 10.9611 51.6403 10.2612 47.4293 10.1871C43.2156 10.1155 39.7855 10.6961 39.7696 11.486C39.7524 12.2738 43.1584 12.9743 47.3708 13.0488Z" fill="white"/>
<path d="M47.3708 13.0488C51.5821 13.1201 55.0136 12.5395 55.0304 11.7511C55.046 10.9611 51.6403 10.2612 47.4293 10.1871C43.2156 10.1155 39.7855 10.6961 39.7696 11.486C39.7531 12.2732 43.1588 12.975 47.3708 13.0488Z" stroke="#010101" stroke-width="1.1307" stroke-miterlimit="11.5" stroke-linecap="round" stroke-linejoin="round"/>
<path d="M42.1055 13.2656L42.3329 12.0768C42.3329 12.0768 44.8512 11.6897 47.3907 11.6528C49.9315 11.6156 52.4937 11.9283 52.4937 11.9283L52.2656 13.1174L42.1055 13.2656Z" fill="#010101"/>
<path d="M42.1055 13.2656L42.3329 12.0768C42.3329 12.0768 44.8512 11.6897 47.3907 11.6528C49.9315 11.6156 52.4937 11.9283 52.4937 11.9283L52.2656 13.1174L42.1055 13.2656Z" stroke="#010101" stroke-width="1.1307" stroke-miterlimit="11.5" stroke-linecap="round" stroke-linejoin="round"/>
<path d="M39.6333 78.9375C39.6333 78.9375 30.3004 78.658 27.8895 77.8163C25.481 76.9759 26.3849 73.8957 26.3849 73.8957C26.3849 73.8957 30.2994 76.1371 36.3202 76.6952C40.2162 77.0602 41.1396 76.4166 39.6333 78.9375Z" fill="white"/>
<path d="M39.9375 12.0141C39.9375 12.0141 30.6036 12.2952 28.195 13.1353C25.7865 13.9744 26.6891 17.0547 26.6891 17.0547C26.6891 17.0547 30.6022 14.8158 36.6257 14.2552C40.5204 13.8933 41.4424 14.5344 39.9375 12.0141Z" fill="white"/>
<path d="M39.9375 12.0141C39.9375 12.0141 30.6036 12.2952 28.195 13.1353C25.7865 13.9744 26.6891 17.0547 26.6891 17.0547C26.6891 17.0547 30.6022 14.8158 36.6257 14.2552C40.5237 13.8923 41.4461 14.5319 39.9385 12.0135L39.9375 12.0141Z" stroke="#010101" stroke-width="0.847697" stroke-miterlimit="11.5" stroke-linecap="round" stroke-linejoin="round"/>
<path d="M68.8398 78.9688V76.6173" stroke="#010101" stroke-width="0.847697" stroke-miterlimit="14.3"/>
<path d="M79.3711 74.0703L81.2688 71.328L85.6924 61.5316L87.3786 54.4784" stroke="#010101" stroke-width="0.847697" stroke-miterlimit="14.3" stroke-linecap="round" stroke-linejoin="round"/>
<path d="M89.0597 63.2969L85.9023 61.9242" stroke="#010101" stroke-width="0.847697" stroke-miterlimit="14.3" stroke-linecap="round" stroke-linejoin="round"/>
<path d="M84.6378 72.8984L81.4805 71.3299" stroke="#010101" stroke-width="0.847697" stroke-miterlimit="14.3" stroke-linecap="round" stroke-linejoin="round"/>
<path d="M66.7344 14.5156L68.4205 12.1632" stroke="#010101" stroke-width="0.847697" stroke-miterlimit="14.3"/>
<path d="M37.7649 63.5447C40.3853 64.4392 41.8906 66.7322 41.1279 68.6621C40.3645 70.5905 37.6221 71.4272 35.0016 70.5311C32.3838 69.6351 30.8762 67.3432 31.6399 65.4134C32.4013 63.4844 35.1471 62.6474 37.7649 63.5447Z" fill="white"/>
<path d="M37.7671 63.5447C40.3876 64.4392 41.8929 66.7322 41.1302 68.6621C40.3668 70.5905 37.6243 71.4272 35.0039 70.5311C32.3877 69.6351 30.8801 67.3432 31.6438 65.4134C32.4052 63.4844 35.1486 62.6474 37.7671 63.5447Z" stroke="#010101" stroke-width="0.566013" stroke-miterlimit="14.3"/>
<path d="M29.1504 60.5127C30.3816 60.9328 31.0895 62.009 30.7321 62.9149C30.3727 63.8205 29.0849 64.2123 27.8534 63.7926C26.6222 63.3725 25.914 62.2962 26.2731 61.3903C26.6308 60.4851 27.9208 60.0924 29.1504 60.5127Z" fill="white"/>
<path d="M29.1504 60.5127C30.3816 60.9328 31.0895 62.009 30.7321 62.9149C30.3727 63.8205 29.0849 64.2123 27.8534 63.7926C26.6222 63.3725 25.914 62.2962 26.2731 61.3903C26.6308 60.4851 27.9208 60.0924 29.1504 60.5127Z" stroke="#010101" stroke-width="0.566013" stroke-miterlimit="14.3"/>
<path d="M64.6209 8.41124L64.1719 13.0142C64.1719 13.0142 65.369 13.7512 67.4093 13.9274C69.4498 14.1036 70.8794 13.8146 70.8794 13.8146L71.3551 9.09264C71.3551 9.09264 70.1101 9.16364 67.9521 8.90284C65.7962 8.63964 64.6209 8.41124 64.6209 8.41124Z" fill="white"/>
<path d="M64.6209 8.41124L64.1719 13.0142C64.1719 13.0142 65.369 13.7512 67.4093 13.9274C69.4498 14.1036 70.8794 13.8146 70.8794 13.8146L71.3551 9.09264C71.3551 9.09264 70.1101 9.16364 67.9521 8.90284C65.7965 8.64154 64.6195 8.41394 64.6195 8.41394L64.6209 8.41124Z" stroke="#010101" stroke-width="1.1307" stroke-miterlimit="14.3" stroke-linecap="round" stroke-linejoin="round"/>
<path d="M68.0059 8.09562C69.8183 8.31702 71.2519 8.76842 71.2062 9.10702C71.1583 9.44372 69.6487 9.53932 67.8349 9.31852C66.0219 9.09992 64.587 8.64572 64.6339 8.30992C64.6815 7.97042 66.1915 7.87702 68.0059 8.09562Z" fill="white"/>
<path d="M68.0059 8.09562C69.8183 8.31702 71.2519 8.76842 71.2062 9.10702C71.1583 9.44372 69.6487 9.53932 67.8349 9.31852C66.0219 9.09992 64.587 8.64572 64.6339 8.30992C64.6802 7.96862 66.1908 7.87722 68.0059 8.09562Z" stroke="#010101" stroke-width="1.1307" stroke-miterlimit="14.3" stroke-linecap="round" stroke-linejoin="round"/>
<path d="M59.1992 15.6718C59.1992 15.6718 63.2416 21.3102 64.9232 27.5731C66.608 33.836 66.608 35.7152 66.608 35.7152C66.608 35.7152 64.2494 36.9676 64.2494 41.0386C64.2494 45.1097 66.608 45.1094 68.626 45.1094C70.6471 45.1094 70.983 42.9172 70.983 40.4116C70.983 37.9061 69.6381 35.7158 69.6381 35.7158C69.6381 35.7158 69.3005 31.018 68.2918 27.2594C67.2811 23.5014 64.2504 16.2991 64.2504 16.2991" fill="#010101"/>
<path d="M19.1436 5.99014L19.1489 3.63344C19.1505 2.50914 20.1497 1.58114 21.3594 1.58114L33.7975 1.58114C35.0088 1.58114 36.0033 2.50914 36.0007 3.63344L35.9917 8.34373C35.9904 9.47043 34.9926 10.3984 33.7806 10.3984L21.3425 10.3984C20.1325 10.3984 19.138 9.47043 19.1406 8.34373L19.1466 5.98824L19.1436 5.99014Z" fill="white" stroke="#010101" stroke-width="1.1307" stroke-miterlimit="14.3" stroke-linecap="round" stroke-linejoin="round"/>
<path d="M24.4508 2.83298C26.131 3.15248 27.2055 4.73118 26.8477 6.35608C26.4933 7.98248 24.8386 9.04398 23.1571 8.72448C21.4769 8.40498 20.4024 6.82658 20.7601 5.20018C21.1152 3.57378 22.7693 2.51408 24.4508 2.83298Z" fill="#AAABAA"/>
<path d="M32.2044 2.57531C33.886 2.89351 34.9605 4.47351 34.6044 6.09831C34.2467 7.72471 32.5936 8.78531 30.9137 8.46701C29.2319 8.14751 28.1574 6.56881 28.5135 4.94271C28.8709 3.31631 30.5239 2.25451 32.2044 2.57531Z" fill="#AAABAA"/>
<path d="M23.9735 5.10708C25.3687 5.10708 26.5014 5.76698 26.5014 6.57698C26.5014 7.38938 25.3674 8.04688 23.9735 8.04688C22.5797 8.04688 21.4453 7.38818 21.4453 6.57698C21.445 5.76668 22.579 5.10708 23.9735 5.10708Z" fill="#010101"/>
<path d="M23.9735 5.10708C25.3687 5.10708 26.5014 5.76698 26.5014 6.57698C26.5014 7.38938 25.3674 8.04688 23.9735 8.04688C22.5797 8.04688 21.4453 7.38818 21.4453 6.57698C21.445 5.76518 22.579 5.10708 23.9735 5.10708Z" stroke="#010101" stroke-width="1.1307" stroke-miterlimit="14.3" stroke-linecap="round" stroke-linejoin="round"/>
<path d="M31.3446 4.91306C32.7395 4.91306 33.8728 5.57136 33.8728 6.38136C33.8728 7.19406 32.7382 7.85156 31.3446 7.85156C29.9481 7.85156 28.8164 7.19256 28.8164 6.38136C28.8157 5.57106 29.9484 4.91306 31.3446 4.91306Z" fill="#010101"/>
<path d="M31.3446 4.91306C32.7395 4.91306 33.8728 5.57136 33.8728 6.38136C33.8728 7.19406 32.7382 7.85156 31.3446 7.85156C29.9481 7.85156 28.8164 7.19256 28.8164 6.38136C28.8157 5.56956 29.9484 4.91146 31.3446 4.91146V4.91306Z" stroke="#010101" stroke-width="1.1307" stroke-miterlimit="14.3" stroke-linecap="round" stroke-linejoin="round"/>
<path d="M24.4508 2.83298C26.131 3.15248 27.2055 4.73118 26.8477 6.35608C26.4933 7.98248 24.8386 9.04398 23.1571 8.72448C21.4769 8.40498 20.4024 6.82658 20.7601 5.20018C21.1152 3.57348 22.7693 2.51318 24.4508 2.83298Z" stroke="#010101" stroke-width="1.1307" stroke-miterlimit="14.3" stroke-linecap="round" stroke-linejoin="round"/>
<path d="M32.2044 2.57531C33.886 2.89351 34.9605 4.47351 34.6044 6.09831C34.2467 7.72471 32.5936 8.78531 30.9137 8.46701C29.2319 8.14751 28.1574 6.56881 28.5135 4.94271C28.8709 3.31601 30.5239 2.25241 32.2044 2.57531Z" stroke="#010101" stroke-width="1.1307" stroke-miterlimit="14.3" stroke-linecap="round" stroke-linejoin="round"/>
<path d="M22.6312 48.5678C22.5301 55.1192 23.6549 61.7655 26.4614 67.7926C27.834 70.3343 29.6783 73.338 33.0069 73.7856C41.3338 75.9702 50.101 76.7546 58.6911 75.5578C62.2051 75.0153 65.9104 74.8636 69.2425 73.6132C75.2517 70.4147 78.2752 64.0414 79.7805 57.9961C82.2122 47.034 81.7554 34.8344 75.2277 25.126C73.0256 22.0539 70.394 19.0825 66.9769 17.1502C66.1347 16.7922 65.1773 16.4629 64.2611 16.505C63.9323 17.42 64.8687 18.4444 65.0498 19.3752C67.1309 24.2998 68.6485 29.4169 69.217 34.6775C69.6217 36.9038 70.8098 38.9836 70.5045 41.3044C70.5555 42.6988 70.2567 44.8605 68.2684 44.6953C66.8046 44.8848 65.2631 44.2066 64.9178 42.8215C64.1307 40.4489 64.9664 37.7865 66.748 35.985C67.2225 34.2132 66.3079 32.3588 66.0689 30.5938C65.0561 25.5032 62.8043 20.7532 60.1358 16.2443C59.246 15.1851 57.4701 15.5224 56.1955 15.2686C48.3046 14.935 40.0418 14.4211 32.5968 17.3573C30.5385 17.8273 28.9633 19.2243 28.1901 21.0495C24.9874 26.9602 23.2566 33.554 22.7123 40.1258C22.5954 42.9351 22.6286 45.7488 22.6331 48.5624L22.6312 48.5678ZM26.3653 61.9662C26.3774 60.4529 28.5967 60.0116 29.6937 60.9425C30.8676 61.5146 30.9859 63.3054 29.6051 63.7017C28.3289 64.1673 26.4543 63.3072 26.3653 61.9651V61.9662ZM31.5978 66.5639C31.6068 64.077 34.8681 62.659 37.1548 63.5163C39.585 64.0615 41.9832 66.4896 40.8742 68.8633C39.3786 71.3902 35.3179 71.1281 33.2582 69.3988C32.3533 68.6933 31.6337 67.6698 31.5978 66.5639Z" fill="#234358" fill-opacity="0.62117"/>
<path d="M6.30078 63.3669C6.65893 64.6556 7.57148 65.8432 9.12 65.8999C13.119 66.6879 17.3462 67.4572 21.4074 66.6479C21.7205 65.856 20.9514 64.7122 20.518 64.0126C16.6134 63.7664 12.5612 64.2966 8.69941 63.6071C8.08089 63.6276 6.49367 62.4897 6.30078 63.3669Z" fill="#FF6B5E"/>
<path d="M5.55469 29.775C6.28155 30.2972 7.35516 29.3994 8.18191 29.3357C11.5299 28.4218 15.1482 29.044 18.6022 28.8552C20.0612 29.2958 20.6381 28.2284 20.9638 27.1255C21.6141 26.113 20.0196 25.9042 19.2664 25.9037C14.9377 25.6746 10.5001 26.2554 6.45526 27.6813C5.92798 28.2342 5.60019 29.0473 5.55469 29.775Z" fill="#FF6B5E"/>
<path d="M68.1794 14.8668C69.8396 15.9167 72.0535 16.2001 73.3278 17.7947C80.7915 24.595 84.4226 34.3846 84.8583 43.97C85.2269 52.8832 83.9137 62.3153 78.4153 69.7982C76.1064 72.8414 72.9296 75.5766 69.0796 76.7451C68.3153 77.4644 68.9281 79.0947 70.1719 78.6052C73.4573 77.7617 76.3924 75.9527 79.0721 74.0407C81.6844 71.4609 82.6307 67.8594 84.1863 64.6989C86.4951 59.5442 87.8436 53.9606 87.666 48.3353C87.8039 43.6203 87.6583 38.8452 85.987 34.3464C84.2074 29.1786 81.8777 24.0834 78.7085 19.544C76.6856 17.2509 74.4055 15.0127 71.6259 13.5301C70.891 13.5652 70.3203 14.1912 69.5078 14.1188C69.0836 14.2176 67.9646 14.2123 68.1794 14.8668Z" fill="#E2E0F7"/>
<path d="M55.4258 12.2264C56.6204 12.8696 58.3046 12.6856 59.665 13.0353C61.1245 13.1738 62.5832 13.6077 64.016 13.6953C64.0691 12.8777 64.5669 11.058 63.1377 10.9772C60.7868 10.7112 58.3825 10.1515 55.994 10.3046C55.3303 10.6547 55.4938 11.6346 55.4258 12.2264Z" fill="white"/>
<path d="M39.6333 78.9375C39.6333 78.9375 30.3004 78.658 27.8895 77.8163C25.481 76.9759 26.3849 73.8957 26.3849 73.8957C26.3849 73.8957 30.2994 76.1371 36.3202 76.6952C40.2149 77.0602 41.1376 76.4166 39.6333 78.9375Z" stroke="#010101" stroke-width="0.847697" stroke-miterlimit="11.5" stroke-linecap="round" stroke-linejoin="round"/>
</g>
</g>
<defs>
<clipPath id="clip0_394_4585">
<rect width="90" height="90" fill="white" transform="matrix(0 -1 1 0 0 90)"/>
</clipPath>
</defs>
</svg>
