<svg width="90" height="90" viewBox="0 0 90 90" fill="none" xmlns="http://www.w3.org/2000/svg">
<g clip-path="url(#clip0_394_5158)">
<mask id="mask0_394_5158" style="mask-type:luminance" maskUnits="userSpaceOnUse" x="0" y="0" width="90" height="90">
<path d="M0 0L0 90H90V0H0Z" fill="white"/>
</mask>
<g mask="url(#mask0_394_5158)">
<path d="M89.2413 47.5987C89.2413 51.5586 88.5722 55.4313 87.2532 59.1051C85.1816 64.8723 81.9924 68.9334 80.2743 70.8453C76.8381 74.6552 73.322 76.8532 70.9919 78.3046C64.3703 82.4459 58.2352 84.2951 55.1715 85.0312C51.9139 85.8127 45.1326 87.442 36.6028 86.0918C31.3382 85.258 27.5295 83.6287 25.0055 82.5471C21.3032 80.9631 17.1067 79.1664 13.009 75.4332C8.14357 70.9988 6.19357 66.369 4.47165 62.28C2.90557 58.5574 1.89066 54.7859 1.3623 50.7387C1.17224 49.2873 1.07341 48.0069 1.00119 47.0719C0.871952 45.31 0.761719 43.7156 0.761719 42.0304C0.761719 38.716 1.21026 35.8062 2.17575 32.8686C2.89417 30.688 3.9775 27.3979 6.88538 24.244C7.63801 23.4311 8.17017 22.9915 8.73655 22.5309C9.32573 22.0494 9.99093 21.5052 11.0781 20.3922C12.7544 18.6792 13.6096 17.4929 14.5105 16.2369C15.0541 15.4833 15.6128 14.7053 16.3617 13.8052C16.7494 13.3411 17.9315 11.9211 19.6611 10.3477L19.8739 10.1383H19.8967C21.2994 8.8858 22.7324 7.8321 24.1654 7.0088C28.4227 4.5735 32.452 4.42 40.4838 4.113C46.33 3.8862 50.5379 3.7257 55.9545 5.1876C56.6577 5.376 57.3495 5.5853 58.0147 5.8086C61.2305 6.8797 63.9065 8.2857 66.7346 9.7755C69.5399 11.2513 72.4135 12.762 75.6369 15.4589C79.2936 18.5187 81.4641 21.4598 82.2319 22.5832C82.7109 23.281 84.1705 25.4162 85.5731 29.1459C86.0559 30.4333 86.5006 31.8149 86.8883 33.2523C87.8804 36.9157 89.2413 41.9258 89.2413 47.5987Z" fill="#C4FFC3"/>
<path d="M1.52046 42.0315C1.52046 39.2753 1.82456 36.3516 2.90028 33.072C3.66051 30.7624 4.70583 27.6851 7.46167 24.6986C8.94032 23.0972 9.47628 23.0763 11.6429 20.8608C14.3912 18.0523 15.0184 16.5695 16.9646 14.2319C17.3371 13.7853 18.504 12.3863 20.1955 10.8442C20.1955 10.8442 20.1955 10.8442 20.1993 10.8407C20.2032 10.8407 20.2032 10.8372 20.207 10.8372C21.4195 9.7312 22.9096 8.5555 24.5669 7.603C28.6569 5.2654 32.6139 5.1154 40.5317 4.8119C46.3361 4.5886 50.4452 4.4316 55.7364 5.8585C56.4396 6.0469 57.1086 6.2493 57.751 6.4656C60.9173 7.5193 63.4945 8.8764 66.3796 10.3941C69.2837 11.9223 72.0205 13.3806 75.1223 15.9764C78.9728 19.2001 81.1205 22.2739 81.5842 22.9542C82.3825 24.1195 83.6255 26.1116 84.8494 29.3738C85.2904 30.5495 85.7313 31.8928 86.1456 33.4209C87.1605 37.1575 88.4757 42.0106 88.4757 47.6033C88.4757 51.1062 87.9588 54.8986 86.5257 58.8899C84.2831 65.1351 80.7442 69.2241 79.6837 70.4033C76.3957 74.0492 73.1153 76.1356 70.5609 77.73C63.2665 82.29 56.5916 83.9717 54.9761 84.359C51.4715 85.1998 44.9297 86.7035 36.7306 85.4056C31.6788 84.6067 27.9993 83.0611 25.3271 81.9167C21.7084 80.3677 17.5499 78.5883 13.5435 74.9389C8.79208 70.6092 6.86109 66.0213 5.18098 62.03C3.31841 57.6025 2.51256 53.6915 2.11724 50.6596C1.93099 49.2466 1.83596 48.022 1.75994 47.0276C1.6383 45.3983 1.52046 43.7481 1.52046 42.0315ZM0 42.0315C0 43.7411 0.110234 45.3495 0.243274 47.1219C0.315496 48.0639 0.414326 49.3513 0.608185 50.8236C1.14415 54.923 2.17426 58.7539 3.76315 62.5289C5.51168 66.6807 7.49208 71.3872 12.4716 75.9263C16.6681 79.7466 20.9254 81.5678 24.6809 83.1762C27.2429 84.2717 31.1087 85.929 36.4721 86.7768C45.1615 88.1514 52.0492 86.4977 55.3601 85.7057C58.4732 84.9591 64.6957 83.082 71.4161 78.8814C73.7767 77.4056 77.3497 75.1796 80.8544 71.2895C82.6068 69.3392 85.8605 65.1979 87.9702 59.3226C89.3158 55.579 89.9962 51.633 89.9962 47.5963C89.9962 41.8396 88.624 36.7772 87.6205 33.0825C87.2252 31.6206 86.7766 30.2216 86.2863 28.9132C85.3246 26.3524 84.207 24.1579 82.869 22.2041C82.0898 21.0597 79.8699 18.0558 76.1448 14.9367C72.8606 12.1874 69.9489 10.6558 67.1322 9.173L67.1132 9.1625C64.251 7.6588 61.5483 6.2353 58.2679 5.1433C57.5913 4.9165 56.8805 4.7002 56.1621 4.5083C50.6276 3.0151 46.3665 3.1791 40.4671 3.4058C32.287 3.7198 28.1894 3.8768 23.761 6.4063C22.3584 7.2122 20.9558 8.2275 19.5874 9.4312H19.576L19.5722 9.4347H19.5684L19.1236 9.8464C17.3599 11.4547 16.1549 12.8992 15.7596 13.3736C14.9956 14.2912 14.4254 15.0832 13.878 15.8438C12.9924 17.0789 12.1523 18.2442 10.514 19.9188C9.45348 21.0039 8.83389 21.5098 8.22951 22.0017C7.64413 22.4832 7.08916 22.9367 6.30232 23.7845C3.2918 27.0467 2.18186 30.4239 1.44444 32.6568C0.45994 35.6713 0 38.6473 0 42.0315Z" fill="#3C2415"/>
<path d="M84.8494 29.3749C85.2903 30.5506 85.7312 31.8939 86.1456 33.422C87.7953 39.5032 90.247 48.5325 86.5257 58.891C84.283 65.1362 80.7441 69.2252 79.6836 70.4044C76.3956 74.0503 73.1152 76.1367 70.5608 77.7311C63.2664 82.2911 56.5916 83.9728 54.9761 84.3601C51.4714 85.2009 44.9296 86.7046 36.7305 85.4067C31.6788 84.6078 27.9993 83.0622 25.3271 81.9178C21.7084 80.3688 17.5499 78.5894 13.5435 74.94C8.79202 70.6103 6.86103 66.0224 5.18092 62.031C3.31835 57.6036 2.51251 53.6926 2.11719 50.6607C2.18941 50.9538 5.68647 64.878 17.3446 70.0555C29.1282 75.2889 53.8357 84.709 68.2801 71.8C82.7245 58.891 86.9742 51.8434 84.8494 29.3749Z" fill="#81A57F"/>
<path d="M13.4218 57.8227C13.1177 58.6007 12.9239 59.4136 12.8479 60.237C12.7946 60.8371 12.8023 61.4546 13.0189 62.0233C13.5625 63.4538 15.273 64.2423 16.9075 64.4446C19.0514 64.7098 21.5221 64.0294 22.5028 62.264C22.9209 61.5069 23.0274 60.6347 23.054 59.7869C23.0844 58.7856 23.0122 57.7599 22.594 56.8353C21.7844 55.0385 19.6063 53.8523 17.5043 54.0581C15.4022 54.264 13.5397 55.841 13.1596 57.7529" fill="white"/>
<path d="M13.1721 57.4112C12.3168 59.6441 12.0089 62.5992 14.4455 64.089C16.3118 65.2299 19.0335 65.3311 20.9873 64.3158C21.9908 63.7959 22.7244 62.99 23.0513 61.9712C23.4428 60.7397 23.4542 59.2987 23.2186 58.0427C22.8004 55.8063 21.0443 53.863 18.5013 53.563C15.8329 53.249 13.3964 55.0667 12.8832 57.4357C12.8338 57.6555 12.9212 57.9834 13.0923 58.1509C13.2481 58.3009 13.3964 58.28 13.442 58.0637C13.8297 56.2704 15.5516 54.819 17.5206 54.5748C19.4288 54.334 21.5841 55.3249 22.3747 56.9681C22.8688 57.9974 22.8574 59.2743 22.713 60.3698C22.5838 61.3467 22.1884 62.2259 21.3636 62.8749C19.9153 64.0157 17.6993 64.2321 15.9127 63.7611C14.9092 63.4959 13.7917 62.9656 13.3241 62.055C13.0505 61.5212 13.0923 60.8757 13.1607 60.3035C13.2481 59.5918 13.423 58.901 13.6814 58.2276C13.7689 58.0044 13.7005 57.7148 13.5674 57.5159C13.4876 57.4008 13.2595 57.181 13.1721 57.4112Z" fill="#3C2415"/>
<path d="M19.4342 62.0289C19.4342 61.3545 18.8386 60.8078 18.1038 60.8078C17.3691 60.8078 16.7734 61.3545 16.7734 62.0289C16.7734 62.7033 17.3691 63.25 18.1038 63.25C18.8386 63.25 19.4342 62.7033 19.4342 62.0289Z" fill="#3C2415"/>
<path d="M12.6282 66.8843C12.0884 66.1516 11.3054 65.6666 10.6554 65.0351C10.0206 64.4176 9.58348 63.65 9.3136 62.8406C9.05132 62.0451 8.92208 61.2218 8.87647 60.3914C8.81945 59.411 8.88027 58.4132 9.37062 57.5235C9.54167 57.213 9.05892 56.2919 8.81945 56.7246C8.29869 57.67 8.17706 58.7272 8.20747 59.7739C8.23787 60.7682 8.35951 61.759 8.6446 62.722C8.91448 63.6361 9.32881 64.5327 9.94459 65.2933C10.6174 66.1272 11.6399 66.6645 12.2709 67.5192C12.3887 67.6797 12.5788 67.7949 12.727 67.603C12.8639 67.4181 12.7498 67.0482 12.6282 66.8843Z" fill="#3C2415"/>
<path d="M24.817 65.5341C25.2997 62.8441 24.7713 60.0635 23.3763 57.6631C23.2851 57.5061 23.1102 57.384 22.9848 57.5654C22.8556 57.7503 23 58.1132 23.0988 58.2807C24.2772 60.3112 24.6687 62.6418 24.2582 64.9096C24.2164 65.1398 24.2962 65.4504 24.4672 65.6248C24.6155 65.7713 24.7789 65.7504 24.817 65.5341Z" fill="#3C2415"/>
<path d="M7.41245 36.433C7.41245 36.433 9.17999 38.6973 10.3165 39.1125C11.4531 39.5277 15.8852 39.3812 15.8852 39.3812L17.2841 36.2551L21.7162 30.7845C21.7162 30.7845 28.4709 21.9401 19.2036 19.9165C15.4899 19.7107 13.4183 20.7923 13.4183 20.7923L10.5332 25.0313L7.07415 26.4827L5.94141 31.1927L6.36714 34.085L7.41245 36.433Z" fill="#81A57F"/>
<path d="M50.851 82.1405C49.6726 82.6359 48.7375 82.7755 48.3726 84.1083C48.0723 85.1968 48.3726 86.4354 47.8595 87.4367C47.506 88.1275 46.818 88.5776 46.1071 88.8811C44.2294 89.68 42.0968 89.6277 40.0556 89.4323C37.6875 89.209 35.3422 88.8078 32.993 88.4101C32.4191 88.3124 31.8414 88.2112 31.313 87.967C30.644 87.6565 30.0814 87.1157 29.7355 86.4598C29.3249 85.6713 29.2451 84.7677 29.0779 83.8954C28.9296 83.1209 28.5913 81.5788 27.0938 80.7415C28.5496 79.6878 31.1876 78.0097 34.0765 77.3049C37.6382 76.4362 47.3919 80.5845 50.851 82.1405Z" fill="#81A57F"/>
<path d="M38.3625 85.2989C35.1058 84.9656 32.4031 85.2108 32.3259 85.8466C32.2486 86.4823 34.8261 87.2679 38.0829 87.6012C41.3396 87.9344 44.0423 87.6892 44.1195 87.0535C44.1967 86.4177 41.6192 85.6322 38.3625 85.2989Z" fill="#3C2415"/>
<path d="M26.4222 80.8865C27.4295 81.2703 28.1175 81.9646 28.4634 82.9101C28.7751 83.7544 28.8207 84.6546 29.0336 85.5198C29.2845 86.5525 29.8394 87.5224 30.8011 88.1365C31.8084 88.7784 33.116 88.8691 34.2906 89.068C36.959 89.5146 39.7034 90.017 42.4251 89.9996C44.5119 89.9856 47.5186 89.5216 48.2979 87.4247C48.7312 86.2629 48.2637 84.8674 48.9327 83.7788C49.4306 82.9694 50.6432 82.7461 51.4832 82.3554C51.8672 82.1739 51.5136 81.3401 51.0575 81.5529C50.2745 81.9192 49.3242 82.1181 48.697 82.7182C47.9862 83.3985 47.8911 84.3894 47.8531 85.286C47.8303 85.8303 47.8341 86.4025 47.6441 86.9223C47.454 87.4422 47.0511 87.8364 46.5607 88.14C45.5344 88.7715 44.2344 89.0227 43.0181 89.0924C40.3915 89.2425 37.6926 88.7505 35.1193 88.3319C34.5187 88.2342 33.9143 88.133 33.3137 88.0283C32.6561 87.9167 31.9681 87.8329 31.3637 87.5503C30.2348 87.0235 29.8014 85.9838 29.5962 84.8988C29.4251 83.9951 29.3149 83.0985 28.9196 82.2507C28.452 81.2494 27.631 80.4679 26.5324 80.0492C26.0269 79.8503 26.0231 80.733 26.4222 80.8865Z" fill="#3C2415"/>
<path d="M14.4099 30.5312C13.1707 30.3777 11.8061 30.158 11.0345 29.2579C10.5973 28.7485 10.4225 28.0856 10.3541 27.4402C10.0766 24.8723 11.35 22.2102 13.6003 20.6646C14.0906 20.3262 14.6266 20.0402 15.1967 19.8413C17.1467 19.1645 19.5111 19.6319 20.9821 20.9926C22.4531 22.3533 22.9511 24.5234 22.1985 26.3097C21.5865 27.7611 20.2637 28.881 18.7926 29.6555" fill="white"/>
<path d="M14.3451 30.028C13.391 29.9094 12.3229 29.7803 11.5398 29.222C10.696 28.6185 10.6124 27.5474 10.6504 26.6368C10.734 24.7632 11.6653 22.9315 13.1515 21.6476C14.6948 20.3149 16.736 19.6903 18.8039 20.273C20.7158 20.8138 22.1185 22.3454 22.2135 24.2015C22.3275 26.4274 20.5334 28.137 18.572 29.1872C18.2413 29.3651 18.5948 30.3455 19.0129 30.1222C21.077 29.0162 22.7609 27.2578 22.8711 24.976C22.9737 22.8269 21.7878 20.6149 19.6629 19.6241C17.4278 18.5809 14.9229 18.9856 13.0375 20.444C11.2091 21.857 10.1144 24.0026 9.99658 26.1832C9.93196 27.4008 10.103 28.8138 11.0191 29.7628C11.8858 30.663 13.2428 30.8828 14.4743 31.0363C14.9305 31.0991 14.7442 30.0803 14.3451 30.028Z" fill="#3C2415"/>
<path d="M7.85719 36.486C5.83498 33.4367 5.80457 29.4872 7.65193 26.3646C7.84959 26.0332 7.34023 25.1191 7.07035 25.5727C4.94931 29.1593 5.14697 33.6634 7.44667 37.1349C7.5645 37.3093 7.79257 37.3931 7.94082 37.2082C8.10046 37.0093 7.97503 36.6674 7.85719 36.486Z" fill="#3C2415"/>
<path d="M17.9147 22.2554C17.9147 21.581 17.3191 21.0343 16.5843 21.0343C15.8495 21.0343 15.2539 21.581 15.2539 22.2554C15.2539 22.9298 15.8495 23.4766 16.5843 23.4766C17.3191 23.4766 17.9147 22.9298 17.9147 22.2554Z" fill="#3C2415"/>
<path d="M67.2411 66.5888C68.7274 66.4422 69.9894 65.5316 71.4072 63.8639C72.8288 62.1893 75.7975 58.1212 74.623 57.0152C73.9084 56.3418 72.0078 57.1059 71.8595 57.1652C71.5479 57.2943 70.7838 57.6502 68.7274 60.4588C68.6324 60.5878 67.8265 61.6938 66.8724 63.2952C65.5534 65.5107 65.5382 66.0061 65.7587 66.2852C66.0856 66.7039 66.9256 66.6202 67.2411 66.5888Z" fill="#81A57F"/>
<path d="M59.3814 71.7406C60.039 71.9255 60.7498 71.7476 61.6773 71.2766C62.6086 70.8021 64.6612 69.5705 64.3799 68.9111C64.2089 68.5064 63.2548 68.5169 63.1826 68.5204C63.0267 68.5239 62.6314 68.5483 61.2136 69.3961C61.149 69.4345 60.5902 69.7694 59.8718 70.2892C58.8797 71.008 58.777 71.2173 58.815 71.3708C58.8683 71.5976 59.2408 71.7022 59.3814 71.7406Z" fill="#81A57F"/>
<path d="M23.4686 37.8894C22.8946 37.5579 22.5449 36.9893 22.256 36.4275C21.4996 34.9727 20.9902 33.4096 20.7432 31.8117C18.2648 34.3412 16.2122 37.3416 15.5508 40.6875" fill="#C4FFC3"/>
<path d="M23.4578 37.4292C22.5911 36.8884 22.2072 35.8487 21.8537 34.9835C21.4469 33.9857 21.1695 32.9529 21.0022 31.8993C20.987 31.8051 20.7627 31.1213 20.5423 31.3446C18.0335 33.9229 15.9885 36.9373 15.2891 40.3739C15.2435 40.5902 15.3347 40.9216 15.4981 41.0891C15.6464 41.2391 15.7756 41.2217 15.8174 41.0088C16.494 37.6874 18.5277 34.7707 20.9452 32.2866C20.7931 32.1017 20.6373 31.9167 20.4852 31.7318C20.6905 33.0227 21.044 34.2892 21.5572 35.5068C21.9791 36.5116 22.4695 37.7223 23.4844 38.3538C23.8493 38.584 23.7162 37.5897 23.4578 37.4292Z" fill="#3C2415"/>
<path d="M24.5615 41.0057C23.6835 39.959 22.8472 38.8844 22.0566 37.7819C21.2013 36.5922 20.3764 35.3152 20.2206 33.8953C20.0648 32.4753 20.7642 30.8808 22.2086 30.347C22.8282 30.1203 23.5238 30.1063 24.1776 30.2389C24.7896 30.3645 25.3826 30.6262 25.8083 31.0483C26.234 31.4705 26.4773 32.0671 26.3709 32.6358C26.2949 33.0475 26.0516 33.4138 25.8767 33.8011C25.1621 35.385 25.6715 37.1783 26.0098 38.8635C26.1048 39.3449 26.1884 39.8543 26.0136 40.3183C25.8425 40.7824 25.3332 41.1766 24.8086 41.0894" fill="#81A57F"/>
<path d="M24.6913 40.8171C23.5015 39.3936 22.2889 37.9213 21.35 36.3443C20.5176 34.9487 19.9968 33.2706 20.9053 31.7913C21.7948 30.3364 23.9614 30.0015 25.4059 31.0098C25.7632 31.261 26.0521 31.6133 26.1471 32.0215C26.2573 32.4891 26.0331 32.9077 25.8278 33.3194C25.4705 34.0346 25.2994 34.7743 25.2994 35.5628C25.2994 36.4839 25.4895 37.391 25.6796 38.2911C25.7822 38.7726 25.9418 39.2889 25.8924 39.7844C25.8392 40.3251 25.4287 40.8589 24.7787 40.7961C24.4784 40.7682 24.5696 41.3404 24.8319 41.3683C25.786 41.459 26.2991 40.6078 26.3257 39.8402C26.36 38.8493 25.9722 37.841 25.8278 36.8642C25.6491 35.664 25.7518 34.6138 26.2991 33.5043C26.6793 32.7333 26.7173 31.9483 26.2193 31.2086C25.2348 29.7363 22.6728 29.4014 21.274 30.5422C19.9056 31.6587 19.7535 33.5357 20.2819 35.0499C20.6544 36.128 21.3044 37.0944 21.981 38.0329C22.7565 39.111 23.5775 40.1612 24.4366 41.1869C24.6836 41.4904 24.8661 41.0299 24.6913 40.8171Z" fill="#3C2415"/>
<path d="M22.6602 36.7006C23.0479 37.5414 23.6713 38.2916 24.4543 38.8568C24.5341 38.9126 24.6292 38.9719 24.728 38.9475C24.8724 38.9126 24.8952 38.7347 24.88 38.5986C24.8192 38.009 24.614 37.4298 24.2909 36.9169C24.2642 36.8751 24.2376 36.8332 24.192 36.8053C24.1464 36.7774 24.0894 36.7704 24.0362 36.7669C23.6637 36.732 23.2911 36.6936 22.9186 36.6588" fill="#3C2415"/>
<path d="M22.4856 36.8234C22.8809 37.6747 23.5043 38.4457 24.2874 39.0318C24.485 39.1819 24.7853 39.3598 24.9868 39.1086C25.1312 38.9272 25.1008 38.6725 25.0704 38.4631C24.9944 37.9573 24.8347 37.4618 24.5838 37.0048C24.5154 36.8827 24.447 36.7466 24.352 36.6419C24.2341 36.5129 24.0821 36.4884 23.9072 36.471C23.5651 36.4361 23.2268 36.4047 22.8847 36.3698C22.5806 36.3384 22.6681 36.9141 22.9341 36.942C23.1774 36.9664 23.4207 36.9908 23.664 37.0118C23.778 37.0222 23.892 37.0327 24.0061 37.0466C24.0251 37.0501 24.0745 37.0571 24.0973 37.0571C24.1277 37.0536 24.1619 37.0885 24.1087 37.0397C24.1391 37.0676 24.1543 37.1094 24.1771 37.1443C24.3824 37.4897 24.5268 37.8596 24.6066 38.2468C24.6219 38.3271 24.6371 38.4073 24.6485 38.4911C24.6561 38.5364 24.6599 38.5818 24.6599 38.6271C24.6599 38.6027 24.6599 38.6481 24.6523 38.6585C24.6675 38.6411 24.6523 38.6655 24.6409 38.6655C24.6105 38.669 24.58 38.6481 24.5534 38.6341C24.4698 38.5818 24.39 38.5155 24.314 38.4527C24.0137 38.2119 23.74 37.9433 23.5005 37.6502C23.2306 37.3188 23.0064 36.9594 22.8277 36.5757C22.7821 36.4745 22.6415 36.3593 22.5198 36.4396C22.4058 36.5268 22.4362 36.7117 22.4856 36.8234Z" fill="#3C2415"/>
<path d="M23.4297 32.0644C23.6578 32.1969 23.9086 32.2981 24.1671 32.3679C24.4218 32.4342 24.7031 32.4691 24.9387 32.3574C25.1744 32.2458 25.3189 31.9527 25.1706 31.7503C25.087 31.6352 24.9349 31.5829 24.7943 31.534C24.5206 31.4398 24.2279 31.3491 23.9428 31.4015C23.6578 31.4538 23.3955 31.7085 23.4639 31.9702" fill="#3C2415"/>
<path d="M23.4772 32.3406C23.9599 32.6162 25.0052 33.0174 25.3169 32.3336C25.3929 32.1661 25.3777 31.9638 25.3207 31.7928C25.2561 31.5939 25.1421 31.4299 24.9406 31.3288C24.7847 31.252 24.6023 31.1997 24.4312 31.1543C24.2488 31.109 24.0473 31.0776 23.8573 31.1159C23.6938 31.1473 23.5342 31.2415 23.4353 31.3671C23.2871 31.5555 23.2985 31.7788 23.3517 31.9952C23.3669 32.0614 23.4391 32.2708 23.5456 32.2498C23.652 32.2289 23.5874 31.9882 23.576 31.9393C23.5798 31.9533 23.5798 32.03 23.5912 32.037C23.5912 32.037 23.5988 32.0056 23.5912 32.0196C23.595 32.0126 23.6026 31.9777 23.614 31.9603C23.6368 31.9149 23.6748 31.873 23.7128 31.8382C23.7964 31.7579 23.9067 31.7056 24.0245 31.6846C24.3248 31.6288 24.6327 31.737 24.9064 31.8347C24.9634 31.8556 25.0242 31.8765 25.0774 31.9079C25.1002 31.9219 25.1154 31.9358 25.1345 31.9533C25.123 31.9428 25.2257 31.9568 25.1497 31.9707C25.1383 31.9742 25.1078 31.8765 25.104 31.8696C25.0964 31.8486 25.0964 31.8242 25.0926 31.7998C25.0888 31.7788 25.104 31.7823 25.0926 31.7893C25.0888 31.7928 25.0888 31.8068 25.0926 31.7893C25.0888 31.8033 25.085 31.8172 25.0812 31.8277C25.066 31.873 25.0432 31.9114 25.009 31.9498C24.8494 32.1417 24.5605 32.1696 24.3172 32.1277C23.9865 32.0754 23.6634 31.9428 23.3783 31.7823C23.2757 31.723 23.2909 31.9847 23.2985 32.0126C23.3213 32.1277 23.3631 32.2743 23.4772 32.3406Z" fill="#3C2415"/>
<path d="M22.7738 26.1544C23.9483 24.4029 24.3741 22.2921 24.051 20.2616C24.0244 20.0872 23.9217 19.7243 23.6899 19.6859C23.4542 19.6475 23.4542 19.9895 23.4732 20.1186C23.7621 21.9398 23.3021 23.7854 22.2568 25.3484C22.0782 25.6136 22.5115 26.5486 22.7738 26.1544Z" fill="#3C2415"/>
<path d="M75.3013 20.9062C72.8914 18.6665 72.4809 15.2718 71.4165 12.2783C70.3902 9.39985 68.6303 6.52156 69.1929 3.53506C66.9236 6.98206 65.3081 10.7885 64.4414 14.738" fill="#C4FFC3"/>
<path d="M75.3951 20.5006C73.2436 18.4631 72.7761 15.5394 71.936 12.9227C71.4571 11.4364 70.7957 10.0164 70.2369 8.55812C69.6553 7.04742 69.2144 5.45642 69.4957 3.84462C69.5299 3.63872 69.222 2.68622 68.9255 3.13282C66.6448 6.61822 65.0255 10.4456 64.1437 14.4299C64.0942 14.6602 64.1703 14.9742 64.3527 15.1451C64.5124 15.2952 64.6986 15.2672 64.748 15.0474C65.6185 11.1224 67.215 7.36842 69.4653 3.93882C69.2752 3.70152 69.0852 3.46432 68.8951 3.22702C68.42 5.92402 69.5679 8.46742 70.5904 10.941C71.5407 13.2402 72.0044 15.6755 72.9737 17.9642C73.4945 19.1958 74.2053 20.3611 75.2126 21.3135C75.3761 21.4705 75.5471 21.4217 75.6079 21.2158C75.6688 20.9995 75.5661 20.6646 75.3951 20.5006Z" fill="#3C2415"/>
<path d="M25.6158 31.7734C27.4328 30.336 29.5652 29.2893 31.6293 28.1729C32.0588 27.9391 32.4921 27.6984 32.8228 27.353C33.1497 27.0076 33.3588 26.5366 33.2562 26.09C33.1003 25.4132 32.264 25.0119 31.5114 25.0712C30.7588 25.1306 30.0974 25.5388 29.5272 25.9923C28.8392 26.5366 28.231 27.1611 27.6228 27.7821C26.3723 29.0626 25.1217 30.3465 23.8711 31.6269" fill="#F9ED32"/>
<path d="M25.8022 32.118C27.0756 31.1202 28.4934 30.3003 29.934 29.5257C30.6676 29.1315 31.4165 28.7547 32.1349 28.343C32.7355 27.9976 33.2942 27.558 33.5033 26.916C33.8872 25.7472 32.8381 24.6413 31.5419 24.6901C30.0024 24.7459 28.7899 26.0682 27.8358 27.0312C26.4218 28.4581 25.0305 29.906 23.6279 31.3435C23.377 31.6016 23.7914 32.2575 24.1107 31.9261C25.1522 30.8585 26.1937 29.7909 27.2352 28.7198C28.1855 27.7464 29.113 26.6509 30.3065 25.9182C30.8349 25.5937 31.4849 25.353 32.1235 25.5065C32.8913 25.6914 33.1764 26.2811 32.7127 26.9021C32.344 27.3975 31.7016 27.6906 31.1542 27.9836C30.5498 28.3081 29.9454 28.6256 29.3448 28.9536C27.9764 29.6967 26.6384 30.4817 25.4297 31.4307C25.1408 31.654 25.4753 32.3727 25.8022 32.118Z" fill="#3C2415"/>
<path d="M55.7364 5.85844C56.4397 6.04684 57.1087 6.24915 57.7511 6.46545L47.9783 12.2188C47.9783 12.2188 45.0932 9.69624 43.1926 8.64954C41.292 7.60284 33.6897 8.30065 29.231 7.88195C24.9015 7.48075 20.4655 10.6486 20.207 10.837C21.4196 9.73114 22.9097 8.55534 24.567 7.60284C28.657 5.26534 32.614 5.11524 40.5318 4.81174C46.3362 4.58844 50.4452 4.43144 55.7364 5.85844Z" fill="#81A57F"/>
<path d="M42.3438 17.4531C45.8103 14.648 49.0414 11.5953 51.9911 8.32962C52.6829 7.56212 53.3633 6.78402 54.1273 6.07582C55.6896 4.62792 57.5711 3.51152 59.4413 2.41592C58.8027 6.30612 58.7875 10.2834 59.3956 14.1805" fill="#C4FFC3"/>
<path d="M42.5537 17.9216C44.899 16.0201 47.1417 14.007 49.2589 11.8927C50.308 10.8461 51.3229 9.77148 52.3112 8.67598C53.2767 7.60488 54.2422 6.54768 55.4016 5.64058C56.7244 4.60438 58.1916 3.73917 59.6551 2.88437C59.4878 2.62267 59.3206 2.36097 59.1571 2.10287C58.5147 6.08017 58.4995 10.1239 59.1115 14.1047C59.1381 14.2722 59.2445 14.6525 59.4726 14.6804C59.7083 14.7118 59.7083 14.3838 59.6893 14.2477C59.1001 10.4239 59.1153 6.54417 59.7311 2.72387C59.7615 2.52847 59.6057 1.72257 59.2331 1.94237C57.9598 2.68547 56.6902 3.43908 55.508 4.30088C54.2954 5.18708 53.2615 6.21627 52.2732 7.30827C50.3004 9.49927 48.2402 11.6136 46.0431 13.6197C44.7773 14.7746 43.4735 15.8945 42.1355 16.9796C41.8619 17.2029 42.2534 18.1658 42.5537 17.9216Z" fill="#3C2415"/>
<path d="M70.286 49.5384C68.7199 44.9819 67.3591 40.3661 66.2073 35.7084C65.7208 33.7406 65.2722 31.7554 65.1886 29.7388C65.0442 26.1697 66.0629 22.6599 67.0132 19.1989C68.2904 14.5586 69.4687 9.87653 69.9325 5.11063C70.0123 4.29423 70.0617 3.43252 69.6854 2.68592C69.3395 1.99852 68.6591 1.49262 67.9254 1.14382C64.9681 -0.251778 61.167 0.812321 58.8103 2.96852C56.4535 5.12112 55.2828 8.12863 54.5036 11.0976C52.5346 18.6057 52.6334 26.4628 53.6635 34.1314C54.4123 39.7206 55.7655 45.4878 59.5857 49.8943C60.7032 51.1817 62.0641 52.3574 63.7442 52.9366C64.7515 53.2855 65.85 53.4041 66.9257 53.3308C67.9178 53.2646 68.9366 53.0168 69.6854 52.4167C70.438 51.8167 70.8523 50.8084 70.4988 49.9536" fill="#81A57F"/>
<path d="M70.6213 49.4588C69.1313 45.1186 67.8237 40.7261 66.71 36.2952C66.1702 34.1565 65.6418 32.0003 65.5544 29.7988C65.4632 27.5415 65.8699 25.2842 66.4021 23.0897C67.455 18.7704 68.7816 14.5209 69.5988 10.1493C69.8041 9.0398 69.9866 7.92691 70.1272 6.81041C70.2602 5.77071 70.4617 4.6717 70.3134 3.625C70.0512 1.762 68.4167 0.600207 66.5161 0.181507C62.7149 -0.659293 58.986 1.52121 56.9638 4.34381C55.8386 5.91031 55.1012 7.6896 54.5463 9.4864C53.9229 11.5065 53.4895 13.5824 53.174 15.6618C52.5126 20.0264 52.4518 24.4538 52.7635 28.8464C53.0524 32.897 53.5465 37.0034 54.6489 40.9389C55.6638 44.5639 57.3097 48.1435 60.0541 50.9625C61.4378 52.3825 63.1901 53.5199 65.2807 53.7955C67.1015 54.0363 69.5114 53.7921 70.5491 52.1941C71.0015 51.4998 71.1193 50.6485 70.8342 49.881C70.7696 49.7065 70.6137 49.3925 70.3553 49.4588C70.1158 49.5181 70.1082 49.8775 70.169 50.045C70.4693 50.8509 69.9295 51.6638 69.2263 52.1313C68.4357 52.6547 67.4056 52.8291 66.4515 52.85C64.3266 52.8989 62.4641 52.093 60.9626 50.7532C58.1764 48.2656 56.5229 44.7976 55.5041 41.4099C54.4056 37.7675 53.9153 33.9681 53.5884 30.2105C53.2234 26.0413 53.193 21.8441 53.6796 17.6819C53.9191 15.6234 54.2916 13.5824 54.8085 11.5693C55.2647 9.8039 55.8348 8.0455 56.7395 6.4266C58.3968 3.4611 61.4948 0.900206 65.3377 1.03981C66.9798 1.09911 69.3251 1.7899 69.595 3.5204C69.7509 4.5217 69.5152 5.6207 69.3822 6.615C69.2415 7.6757 69.0705 8.7328 68.8728 9.7865C68.1012 13.9103 66.8696 17.9331 65.8433 22.0046C65.3263 24.0491 64.9044 26.1285 64.8284 28.2288C64.7562 30.2838 65.0679 32.3108 65.524 34.3205C66.4591 38.4583 67.645 42.5578 68.9488 46.6119C69.2719 47.6202 69.6102 48.6285 69.9523 49.6298C70.0132 49.8042 70.1766 50.1147 70.4313 50.0519C70.6784 49.9822 70.6784 49.6263 70.6213 49.4588Z" fill="#3C2415"/>
<path d="M65.5167 49.2031C63.6351 45.4421 61.1834 41.852 60.2673 37.7979C59.9708 36.4791 59.8416 35.1289 59.7503 33.7856C59.0547 23.8004 60.2711 13.4732 65.2278 4.55912" fill="#81A57F"/>
<path d="M65.8344 48.9797C64.4774 46.2758 62.8429 43.6836 61.676 40.8994C61.083 39.4864 60.6459 38.0176 60.4178 36.5174C60.1897 34.9927 60.1023 33.4471 60.0339 31.9085C59.7716 25.9913 60.2163 20.0009 61.7938 14.2442C62.6757 11.0344 63.9034 7.90129 65.5379 4.94619C65.6634 4.71599 65.6444 4.42989 65.4695 4.22399C65.3479 4.07749 65.0362 3.93439 64.9108 4.16819C61.923 9.56899 60.2505 15.4897 59.5625 21.4976C59.2166 24.5364 59.114 27.6032 59.2014 30.656C59.2888 33.789 59.4447 36.9779 60.509 39.9749C61.6798 43.2789 63.6222 46.2793 65.1996 49.4228C65.2947 49.6077 65.5379 49.8031 65.7584 49.6636C65.9827 49.524 65.9295 49.1716 65.8344 48.9797Z" fill="#3C2415"/>
<path d="M59.9805 33.7192C61.9685 33.789 63.9527 33.8553 65.9407 33.9251C66.3816 33.939 66.8758 33.939 67.1989 33.6599C67.4649 33.4296 67.5372 33.0738 67.5904 32.7423C67.8185 31.3049 67.9021 29.7628 67.1495 28.4858C66.6173 27.5822 65.7126 26.9054 64.7585 26.3681C63.4357 25.6249 61.9647 25.1016 60.4404 24.8295C61.7328 24.6969 63.0252 24.5608 64.3176 24.4282C64.5076 24.4073 64.7205 24.3759 64.8269 24.2294C64.8954 24.1317 64.8992 24.0061 64.8954 23.891C64.8269 21.522 63.3179 18.9716 60.7901 18.4971" fill="white"/>
<path d="M60.032 34.2272C61.7387 34.2865 63.4454 34.3458 65.1521 34.4016C65.7831 34.4225 66.5814 34.5586 67.1667 34.2795C67.7483 34.0039 67.8661 33.3968 67.9498 32.856C68.155 31.5547 68.212 30.187 67.7255 28.9275C67.2542 27.7029 66.2735 26.7818 65.1103 26.0771C63.6811 25.2118 62.0542 24.6257 60.3779 24.3187C60.4463 24.6571 60.5147 24.9955 60.5793 25.3339C61.3776 25.2502 62.1796 25.17 62.9779 25.0862C63.3466 25.0478 63.7153 25.0095 64.084 24.9711C64.3425 24.9432 64.6428 24.9502 64.8746 24.8211C65.346 24.5629 65.2547 23.9558 65.2091 23.5302C65.1597 23.0243 65.0533 22.5184 64.8936 22.0334C64.2817 20.1773 62.8828 18.4259 60.7238 17.9863C60.2448 17.8886 60.4007 18.9178 60.834 19.0051C62.5331 19.3505 63.7191 20.6588 64.2208 22.1381C64.3425 22.4975 64.4337 22.8638 64.4793 23.2406C64.4945 23.3522 64.5895 23.736 64.5249 23.8232C64.4451 23.9314 64.0878 23.9314 63.9738 23.9419C62.7422 24.0709 61.5106 24.1965 60.2828 24.3221C59.8267 24.3675 60.1422 25.2746 60.4843 25.3374C62.1264 25.641 63.7039 26.2131 65.0951 27.0714C66.4369 27.9018 67.277 28.9868 67.3682 30.4975C67.41 31.2162 67.3568 31.9908 67.1933 32.692C67.0071 33.5015 66.224 33.4247 65.498 33.4003C63.6355 33.3375 61.7729 33.2712 59.9103 33.2084C59.4048 33.1944 59.5986 34.2132 60.032 34.2272Z" fill="#3C2415"/>
<path d="M60.1445 35.0073C61.1518 35.1433 62.1553 35.2829 63.1627 35.419C63.6454 35.4853 64.2004 35.6004 64.4094 36.0016C64.5159 36.2075 64.5045 36.4412 64.4893 36.668C64.4132 37.6658 64.2346 38.6602 63.9571 39.6301C63.9001 39.8289 63.8355 40.0348 63.6948 40.1918C63.5618 40.3383 63.3755 40.436 63.1893 40.5197C62.6001 40.7884 61.9691 40.9873 61.3229 41.1094" fill="white"/>
<path d="M60.1924 35.5167C61.1541 35.6493 62.1158 35.7784 63.0813 35.911C63.3702 35.9493 63.8263 35.9668 64.0506 36.1691C64.2369 36.3366 64.0772 36.8948 64.0468 37.1216C63.9974 37.5438 63.929 37.9624 63.8415 38.3776C63.7579 38.7719 63.6819 39.2045 63.5222 39.5813C63.3664 39.9476 62.8989 40.0872 62.5301 40.2267C62.0892 40.3907 61.6369 40.5163 61.1731 40.607C60.6942 40.7012 60.9793 41.713 61.4696 41.6188C62.036 41.5072 62.5872 41.3467 63.1117 41.1269C63.6021 40.921 64.0088 40.7047 64.2103 40.2233C64.4155 39.7383 64.5067 39.194 64.6132 38.6846C64.7158 38.1718 64.7956 37.6589 64.8451 37.1391C64.8907 36.6506 64.9287 36.1587 64.6702 35.7121C64.4383 35.3178 64.0354 35.105 63.5755 34.9899C63.0433 34.8573 62.4769 34.8189 61.9334 34.7457C61.3214 34.6619 60.7094 34.5782 60.0974 34.4945C59.569 34.4212 59.7249 35.4504 60.1924 35.5167Z" fill="#3C2415"/>
</g>
</g>
<defs>
<clipPath id="clip0_394_5158">
<rect width="90" height="90" fill="white" transform="matrix(0 -1 1 0 0 90)"/>
</clipPath>
</defs>
</svg>
