<svg width="90" height="90" viewBox="0 0 90 90" fill="none" xmlns="http://www.w3.org/2000/svg">
<g clip-path="url(#clip0_394_5296)">
<mask id="mask0_394_5296" style="mask-type:luminance" maskUnits="userSpaceOnUse" x="0" y="0" width="90" height="90">
<path d="M0 0L0 90H90V0H0Z" fill="white"/>
</mask>
<g mask="url(#mask0_394_5296)">
<path d="M10.1444 33.8612L20.9578 37.0547L23.9438 30.159L13.2663 25.7979L9.05859 31.578L10.1444 33.8612Z" fill="#F1C485"/>
<path d="M2.76172 33.2251C3.07063 32.9078 2.91721 32.0728 3.55101 32.1197C3.60233 32.8422 3.31662 33.1861 2.76172 33.2266V33.2251Z" fill="#F1C485"/>
<path d="M3.74609 31.6808C3.76518 31.1126 4.51605 31.3645 4.53513 30.7963C5.05523 30.9501 4.95208 31.8024 5.52143 31.9019C4.98947 32.462 4.7556 32.0761 4.14061 32.3438C4.14912 31.9651 3.99389 31.7715 3.74609 31.6819V31.6808Z" fill="#F1C485"/>
<path d="M4.53516 59.3203V58.657C5.10012 58.6134 5.6117 58.6296 5.52145 59.3203C5.19269 59.3174 4.86392 59.3174 4.53516 59.3174V59.3203Z" fill="#F1C485"/>
<path d="M4.73438 60.6406V59.9774C5.29934 59.9337 5.81092 59.9499 5.72067 60.6406H4.73438Z" fill="#F1C485"/>
<path d="M4.92969 29.4688C4.99699 28.5681 5.80382 27.6269 6.50802 28.1416C6.11917 28.737 5.61043 29.2 4.92969 29.4688Z" fill="#F1C485"/>
<path d="M6.31383 31.4595C6.08382 30.4063 7.13458 30.0575 7.49738 30.354C7.38315 31.4841 6.98863 31.2933 6.31383 31.4609V31.4595Z" fill="#F1C485"/>
<path d="M6.51172 59.7626C6.57206 59.0933 7.12206 58.9727 6.90624 57.9935C7.13934 58.2481 7.60374 58.2438 8.09005 58.2146C7.91497 59.5134 8.01192 60.5172 7.89279 61.5312C7.45702 61.5038 7.80899 60.5932 7.69553 60.2048C7.53695 60.3219 7.37528 60.4353 7.10375 60.4258C7.49544 60.1579 7.05425 59.6635 6.9065 60.2048C6.69196 60.147 6.77241 59.7625 6.51172 59.7596V59.7626Z" fill="#F1C485"/>
<path d="M8.28516 29.2446C8.74079 28.9443 9.1647 28.6085 9.86349 28.5807C9.42617 29.3454 10.3671 30.1364 10.258 31.2344C9.65514 31.1994 9.63967 30.7309 8.87719 31.013C8.81453 30.276 8.67374 29.6229 8.28516 29.2472V29.2446Z" fill="#F1C485"/>
<path d="M9.27289 61.7507C8.52562 61.3123 10.2883 61.8888 9.86467 61.0874C10.0333 61.2204 10.3729 62.4108 10.4564 61.3085C11.1725 62.2007 9.7672 61.9183 9.27289 61.7507Z" fill="#F1C485"/>
<path d="M9.27024 63.0759H10.6511C11.1281 63.6068 10.1722 63.6614 10.4538 64.6236C9.51907 64.7134 9.17097 64.1455 9.27024 63.0759Z" fill="#F1C485"/>
<path d="M9.66406 57.7705C13.8537 56.57 19.1928 56.6578 22.0927 54.0117C20.0745 57.7543 14.349 58.2861 9.66406 57.7717V57.7705Z" fill="#F1C485"/>
<path d="M11.0482 28.3623C10.9556 27.5952 12.1188 28.2357 12.232 27.6987C12.7776 28.607 12.6732 29.3758 12.8238 30.3524C12.403 30.2492 12.4481 30.6685 12.4293 31.0156C11.7975 29.8394 11.598 30.1021 11.0482 28.3623Z" fill="#F1C485"/>
<path d="M12.0322 64.1805C11.9033 63.2993 12.7824 63.5473 13.4131 63.5172C13.4174 64.038 13.0732 64.168 13.2158 64.8438C13.024 64.8377 13.0626 64.573 13.0185 64.4016C12.7891 64.3654 12.6676 64.4504 12.624 64.6227C12.4237 64.479 12.4201 64.1143 12.0322 64.1805Z" fill="#F1C485"/>
<path d="M12.0352 59.3178C12.2368 58.8253 12.9423 59.6068 13.6135 59.3178C13.8654 60.2149 13.0269 62.3339 14.2053 62.1923C13.9 62.4969 13.0212 62.6376 12.8245 62.4134C12.6514 61.3831 13.336 62.718 13.4162 61.9712C12.6001 61.2059 12.3392 60.8669 12.0352 59.3178Z" fill="#F1C485"/>
<path d="M14.2015 44.7258C14.6754 44.6553 15.2561 46.2599 14.3988 46.2734C14.3358 45.7532 14.0873 45.4411 14.2015 44.7244V44.7258Z" fill="black"/>
<path d="M14.4023 63.5227H15.7831C15.7811 64.1099 15.8577 64.7854 15.5859 65.0703C15.3192 64.788 15.1916 64.3978 14.9941 65.0703C14.6437 64.7261 14.2339 64.4484 14.4023 63.5227Z" fill="#F1C485"/>
<path d="M14.399 59.5365C14.2786 58.6642 15.4823 59.2763 15.9774 59.0942V61.9688C15.7943 61.6404 15.2275 60.6217 14.9911 61.0841C14.5759 60.8095 14.8634 59.7489 14.399 59.535V59.5365Z" fill="#F1C485"/>
<path d="M15.7812 27.701C16.0549 27.197 17.1544 27.6186 17.7542 27.4796C17.9404 29.1359 17.3522 30.4847 17.5569 31.2384C17.0203 32.1066 17.2747 30.2489 16.9651 30.1333C16.5228 31.3379 16.5887 29.2189 16.1761 29.9119C15.5993 29.6749 16.3576 27.9409 15.7812 27.701Z" fill="#F1C485"/>
<path d="M16.7695 58.8724C17.4276 58.6366 17.4428 58.9426 18.1501 58.6513C18.0173 59.7582 18.3327 60.3628 18.3473 61.3047C17.6272 61.04 17.4614 60.9943 16.9665 60.8625C17.1027 59.9724 16.7778 59.5995 16.7695 58.8712V58.8724Z" fill="#F1C485"/>
<path d="M16.9648 62.1953C17.1652 61.3479 17.8771 61.9144 18.1487 61.532C18.8402 62.1098 17.2217 61.9499 16.9648 62.1953Z" fill="#F1C485"/>
<path d="M18.3475 52.2422C18.0094 52.061 18.2204 50.6431 18.742 50.6946C18.8583 51.4864 18.5128 51.761 18.3475 52.2407V52.2422Z" fill="#EE3224"/>
<path d="M18.543 27.4755C18.9555 27.9575 19.1061 27.3648 19.7265 27.4755C19.9875 28.1911 19.9032 29.7023 19.9238 31.2343C19.7319 31.2282 19.7706 30.9635 19.7265 30.7924C19.5347 30.7985 19.5734 31.0629 19.5293 31.2343C19.2139 31.2462 19.0252 29.6754 18.9375 30.7924C18.7678 29.6277 18.6861 29.0073 18.543 27.4755Z" fill="#F1C485"/>
<path d="M18.7422 24.163C20.1906 23.6488 22.4893 24.0878 24.266 23.9416C23.4437 26.2623 20.5018 24.1526 18.7422 24.1641V24.163Z" fill="#F1C485"/>
<path d="M21.1062 62.4175C21.0925 63.0657 20.3548 62.9018 20.5144 63.7443C19.9567 63.5617 20.0033 64.0559 19.5281 63.9654C18.6996 62.6429 19.8693 62.3967 21.1062 62.4175Z" fill="#F1C485"/>
<path d="M19.5298 47.156C20.0032 47.5386 20.2632 48.9923 20.1216 49.3672C19.5368 48.9684 19.1959 47.9565 19.5298 47.156Z" fill="black"/>
<path d="M19.5313 59.0937C19.5305 57.9137 20.3664 57.6712 21.3066 57.546C20.6001 58.8781 21.1349 59.0919 21.1093 61.0838C20.5518 60.0835 21.0534 61.5644 20.123 61.3049C20.1284 61.0898 20.3646 61.1332 20.5175 61.0838C20.4062 60.5454 20.3487 59.9462 19.7283 59.9783C19.712 59.6315 19.8234 59.137 19.5313 59.0937Z" fill="#F1C485"/>
<path d="M20.9105 28.142C21.3752 28.1472 21.4912 27.7614 22.0941 27.9206C22.0258 29.8948 23.0781 31.7578 22.4886 33.8906C21.9835 33.6458 22.1013 32.7034 22.0941 31.9005C21.83 31.8314 21.6341 31.5211 21.1075 31.2367C21.2496 29.9737 20.8971 29.2628 20.9105 28.1443V28.142Z" fill="#F1C485"/>
<path d="M22.8841 62.4141C22.3567 62.1571 22.8665 61.2407 23.4758 61.5297C23.6489 62.2395 22.9642 61.9878 22.8841 62.4141Z" fill="#F1C485"/>
<path d="M23.4769 27.9232C24.8296 28.2455 24.3806 33.0366 23.4769 32.7875C23.3521 31.2875 23.1888 29.8336 23.4769 27.9232Z" fill="#F1C485"/>
<path d="M23.8711 40.5201C25.2295 40.0782 24.6586 38.3551 25.2517 37.4245C25.4257 40.5652 27.1327 46.7531 24.6599 49.5859C24.3461 46.9502 26.3715 42.2252 23.8711 40.5201Z" fill="black"/>
<path d="M23.8714 17.9678C24.0457 17.1308 25.6408 17.8871 26.0415 17.3039C26.4128 18.2634 24.4541 17.7539 23.8714 17.9678Z" fill="#EE3224"/>
<path d="M25.25 23.0539C25.5226 22.0609 26.5615 23.7059 27.4201 23.4961C26.7342 24.1782 25.7665 23.2967 25.2513 23.0539H25.25Z" fill="black"/>
<path d="M26.8296 21.5041C27.1983 21.6806 27.5521 21.8731 28.0134 21.946C27.8303 22.4199 26.5795 22.2497 26.8296 21.5041Z" fill="black"/>
<path d="M27.2237 78.5547C27.9204 77.8614 28.7889 77.3608 29.7883 77.0071C29.2597 77.8897 28.3427 78.3333 27.2237 78.5547Z" fill="black"/>
<path d="M29.3958 66.8344C29.3607 66.0578 30.0621 66.107 30.1848 65.5076C30.5974 65.8445 29.976 66.8815 29.3958 66.8344Z" fill="black"/>
<path d="M30.1846 14.8747C30.1818 14.3796 32.6801 14.6646 33.1438 15.0964C32.1381 15.4258 31.5941 14.6571 30.1836 14.8738L30.1846 14.8747Z" fill="#EE3224"/>
<path d="M36.1008 45.3866C34.2685 50.4821 32.1703 55.2799 30.3798 60.4219C29.6867 58.4269 30.7508 56.592 30.9716 54.8943C31.5453 53.2028 32.5813 51.5621 33.3389 49.8087C34.0145 48.2422 34.2569 45.7857 36.1006 45.3897L36.1008 45.3866Z" fill="black"/>
<path d="M31.9597 75.6797C31.7905 74.8436 32.8428 74.8971 33.1432 75.2375C32.9009 75.5545 32.4651 75.6563 31.9597 75.6797Z" fill="black"/>
<path d="M37.6807 70.5938C38.1121 69.5295 39.3315 69.3483 39.8508 68.3827C40.0287 69.2538 38.6889 70.3185 37.6807 70.5938Z" fill="black"/>
<path d="M38.2695 78.5555C38.5323 78.1127 39.1452 78.0627 39.6506 77.8922C39.9461 78.3714 40.6377 78.4071 40.6369 79.2188C39.6906 79.1751 39.4556 78.3318 38.2695 78.5555Z" fill="#EE3224"/>
<path d="M38.8643 7.57728C39.7191 7.94578 39.8426 9.13418 40.6399 9.56738C40.0546 10.4778 39.2243 8.33908 38.8633 7.57608L38.8643 7.57728Z" fill="black"/>
<path d="M39.2588 70.375C39.7831 69.4886 40.7706 69.1213 41.429 68.3852C41.6765 69.2606 40.2051 70.1062 39.2588 70.375Z" fill="black"/>
<path d="M46.1624 38.0894C41.0486 38.292 40.5133 31.4488 40.0469 25.7071C40.2697 24.4497 40.2738 26.4065 40.8362 26.1487C41.6613 31.1919 42.0378 36.7408 46.1635 38.0876L46.1624 38.0894Z" fill="#EE3224"/>
<path d="M40.2422 35.439C41.5346 35.9063 41.2999 38.0857 43.0041 38.0921C41.6864 38.5371 40.5851 36.8291 40.2422 35.439Z" fill="#EE3224"/>
<path d="M41.4281 63.2954C42.1117 62.1452 42.6284 60.8082 42.8089 59.0941C43.6745 59.5242 43.9394 60.6279 45.3735 60.4207C44.5304 61.9111 42.8362 62.4446 41.4258 63.2969L41.4281 63.2954Z" fill="white"/>
<path d="M42.0195 28.1425C42.74 27.3127 44.4975 29.0124 45.1759 29.6898C44.4019 30.0941 43.299 30.7412 42.6113 30.5748C42.2606 29.936 42.65 28.4679 42.0208 28.1442L42.0195 28.1425Z" fill="white"/>
<path d="M42.2148 64.4058C43.0351 63.4827 44.1859 62.9297 45.3712 62.4156C45.3016 62.706 45.0239 62.7635 44.9767 63.0788C46.0404 62.576 46.6082 61.5171 47.3441 60.6467C47.5751 60.6825 47.5107 61.0497 47.5414 61.3098C49.7411 59.6235 49.622 56.2702 49.1194 52.9076C51.09 54.3003 50.6588 60.7532 48.5277 61.5309C47.9397 63.7505 45.7774 64.0788 43.9902 64.4054V63.7421C43.4487 64.0167 42.9897 64.3887 42.2161 64.4062L42.2148 64.4058Z" fill="#EE3224"/>
<path d="M43.7969 25.9326C47.4584 24.5916 51.0217 29.9568 50.7015 33.8927C49.7693 34.9112 50.1558 37.4085 48.9259 38.0938C50.3054 32.1286 48.1341 26.9008 43.7969 25.9326Z" fill="#EE3224"/>
<path d="M43.9922 84.7466C44.5079 85.0533 44.5512 85.8891 44.7815 86.5156C44.3019 86.1685 44.0412 85.5749 43.9922 84.7466Z" fill="black"/>
<path d="M43.9922 27.4799C45.8552 26.9421 46.8075 29.3342 47.5431 30.7969C46.4756 29.5599 45.4672 28.2573 43.9922 27.4799Z" fill="#EE3224"/>
<path d="M44.1914 78.7797C44.3196 78.5549 44.645 78.5511 44.5859 78.1164C45.0202 78.4404 45.5096 78.7022 45.375 79.6641C44.9598 79.3915 44.604 79.0522 44.1914 78.7797Z" fill="#EE3224"/>
<path d="M44.5848 43.1785C44.403 42.3644 45.6255 42.7762 45.7683 42.9569C45.7426 43.4482 44.9303 43.0513 44.5848 43.1785Z" fill="black"/>
<path d="M44.5867 16.2017C46.3249 15.4968 48.0211 14.7442 50.3077 14.654C48.6317 15.4344 46.8551 16.0933 44.5859 16.2031L44.5867 16.2017Z" fill="#EE3224"/>
<path d="M45.375 36.1011C45.8409 35.2962 46.9492 35.2121 47.1508 34.1107C47.6238 35.4196 46.9098 36.5791 47.3481 37.6484C46.6519 37.1774 45.9608 36.6976 45.3755 36.1022L45.375 36.1011Z" fill="white"/>
<path d="M46.9528 41.6258C46.6367 40.7559 47.8048 41.5487 47.7424 40.9626C48.3251 41.2833 47.5077 41.8556 46.9533 41.6273L46.9528 41.6258Z" fill="black"/>
<path d="M48.1341 51.5745C49.0049 53.2713 49.2937 55.8105 48.9237 57.7656C48.6658 55.9709 47.5126 52.8895 48.1341 51.5745Z" fill="#EE3224"/>
<path d="M47.9375 36.9844C47.8821 35.8208 48.1464 35.6734 47.9375 34.7732C48.7601 34.8801 48.6621 36.7821 47.9375 36.9844Z" fill="#EE3224"/>
<path d="M48.332 5.80764C49.0246 5.76834 48.9808 6.55444 49.5156 6.69254C49.1773 7.04944 49.0257 7.61674 49.1211 8.46094C48.4326 8.05634 48.6647 6.61684 48.332 5.80764Z" fill="black"/>
<path d="M50.1071 68.6008C49.9483 69.2334 49.447 69.4826 49.3176 70.1484C48.5672 69.9034 49.5579 68.7546 50.1071 68.6008Z" fill="black"/>
<path d="M49.5167 77.8902C50.1291 78.2355 50.7727 78.5462 51.2922 78.9956C50.7275 79.4696 49.66 78.6208 49.5156 77.8902H49.5167Z" fill="black"/>
<path d="M51.6875 38.3125V37.6492C53.7114 36.9692 53.7331 34.0453 55.2384 32.7847C56.8964 35.3539 53.5056 37.481 51.6878 38.3105L51.6875 38.3125Z" fill="#EE3224"/>
<path d="M51.8841 67.7188C51.8498 66.7219 52.5344 66.5315 53.0679 66.1711C53.1643 66.8691 52.7123 66.952 52.8706 67.7188H51.8829H51.8841Z" fill="black"/>
<path d="M52.2787 49.1512C53.4391 50.1873 53.9249 51.6821 55.4349 51.5835C57.0988 51.4748 56.9995 49.5922 58.3945 48.2669C59.6714 47.053 61.07 47.2097 61.9455 46.4978C62.7709 43.126 59.6369 42.5165 58.1975 40.97C57.9882 38.9143 55.1507 36.8918 53.6598 38.9799C53.4179 37.3499 54.782 36.7546 56.6195 36.9901C57.9196 37.8172 58.4567 39.5007 59.1836 40.97C60.6691 41.8116 62.1133 42.698 62.932 44.2872C62.7368 45.4037 62.3047 46.9079 60.7619 48.0461C60.3901 48.3206 59.7808 48.3593 59.3814 48.7093C57.5403 50.3205 57.6217 53.5037 54.2521 52.6893C53.329 52.4638 51.1398 50.7356 52.2769 49.1489L52.2787 49.1512Z" fill="#EE3224"/>
<path d="M52.4739 58.8727C52.5438 58.5825 52.8215 58.525 52.8685 58.2094C53.7119 58.3695 54.7114 58.3544 55.0383 59.0938C54.2828 58.9087 53.4525 58.8076 52.4727 58.8741L52.4739 58.8727Z" fill="#EE3224"/>
<path d="M53.2656 75.0182C53.8115 74.2454 55.8295 75.491 56.8165 75.6815C55.78 76.1736 54.5987 74.9269 53.2656 75.0182Z" fill="#EE3224"/>
<path d="M56.2223 23.7243C56.4229 23.8679 56.4263 24.2326 56.8141 24.1664C56.7981 25.0332 56.4663 25.5454 56.2223 26.1562C55.4616 25.8934 56.1321 24.3876 56.2223 23.7229V23.7243Z" fill="black"/>
<path d="M56.0281 67.0601V66.3968C56.6516 66.7303 57.1225 67.2341 57.804 67.5023C57.3192 68.1011 56.8378 66.8277 56.0281 67.0601Z" fill="black"/>
<path d="M56.4219 28.3659C56.6929 27.9784 57.2344 27.3122 57.6059 27.7024C57.6382 28.402 57.0817 28.4416 57.2114 29.25C56.7035 29.2298 56.9299 28.3862 56.4219 28.3659Z" fill="black"/>
<path d="M57.4088 25.0512C57.7752 25.4422 57.3231 25.6962 57.2115 26.1562C56.603 26.1159 56.7938 24.9655 57.4075 25.0522L57.4088 25.0512Z" fill="black"/>
<path d="M57.2112 11.3337C58.0049 9.86059 59.6392 10.5248 60.9594 10.2279C63.8185 9.58459 66.7895 7.14859 69.6396 9.12249C68.0383 14.105 60.0476 10.1401 57.2112 11.3337Z" fill="#B4985A"/>
<path d="M57.4102 20.3992C57.4135 20.0616 58.8725 19.9148 58.594 20.6208C58.1066 20.6468 57.6423 20.6535 57.4102 20.3992Z" fill="black"/>
<path d="M60.3671 56.4411C60.1872 55.84 60.0005 57.0301 59.3811 56.6622C59.3821 55.8527 60.5384 56.3377 60.3671 55.3357C60.5982 55.3715 60.5337 55.7388 60.5647 55.999C61.3986 55.9018 61.2116 54.6603 61.9455 54.4513C61.7467 56.2923 60.6196 57.0931 59.1836 57.5469C59.1888 56.7492 60.1145 56.9775 60.3646 56.4458L60.3671 56.4411Z" fill="#EE3224"/>
<path d="M60.1696 28.361C60.2764 29.1439 59.4711 28.9046 59.5776 29.6875C58.6932 29.3436 59.6807 28.4968 60.1707 28.361H60.1696Z" fill="#EE3224"/>
<path d="M65.4955 52.6849C66.317 53.4748 67.9689 53.4363 69.2437 53.1271C68.6197 53.6068 68.5552 54.714 67.8631 55.1172C65.7797 54.9854 64.5659 53.6961 64.9037 52.0216" fill="#EE3224"/>
<path d="M64.9049 52.0237C63.9942 52.0159 64.2226 53.9098 64.7074 54.2347C64.2201 56.5632 62.5927 57.6131 61.5513 59.3203C61.2978 57.0493 65.0514 54.8196 63.5239 52.4659C63.759 51.9191 64.1992 51.6015 64.7074 51.3602C63.801 48.0288 63.5989 44.5812 63.7211 40.5256C62.4373 38.2797 61.0822 36.113 60.3672 33.2287C61.9698 34.0865 63.2797 35.2714 64.1156 36.9882C63.9117 37.7664 63.5073 38.5658 63.5239 38.978C64.4006 39.5751 64.9421 39.0881 65.4962 39.4201C66.8533 42.9541 66.7334 49.1155 65.4962 52.6867" fill="#EE3224"/>
<path d="M62.1417 33.4519C62.8794 33.0007 63.6083 34.4556 64.3118 34.7784C63.6774 35.7986 63.0844 33.4981 62.1406 33.4519H62.1417Z" fill="#EE3224"/>
<path d="M63.3252 57.9922C64.2177 57.2971 64.3366 55.735 65.4954 55.3388C65.1705 56.6711 64.3195 57.4139 63.3242 57.9919L63.3252 57.9922Z" fill="#EE3224"/>
<path d="M64.3125 37.8729C65.9589 36.0247 69.0454 35.0397 69.442 38.7578C68.2456 36.9457 65.5063 38.7111 64.3125 37.8729Z" fill="white"/>
<path d="M66.6797 57.7734C72.7432 54.6883 73.1681 41.6023 68.8498 35.8835C68.6538 35.6242 67.8073 35.0185 68.2578 34.5569C74.9285 38.7851 75.0522 55.6289 66.6797 57.7734Z" fill="#EE3224"/>
<path d="M68.0594 50.9156C68.8706 50.8122 67.9044 51.4714 68.4539 51.8C69.0718 51.6471 68.7108 51.2101 68.6512 50.6946C69.2087 50.5119 69.162 51.0061 69.6375 50.9156C69.9846 50.8622 70.0872 50.5353 70.0318 50.031C69.9879 49.7151 69.0498 50.2362 68.4539 50.031C68.449 49.5102 68.7933 49.3801 68.6512 48.7044C69.2582 48.7412 69.8092 48.253 70.4268 48.7044C70.6256 49.3695 69.9874 49.0963 69.6375 49.1466C71.0632 49.8845 69.4926 51.4778 69.6375 52.2422C68.808 51.9942 68.809 52.0986 68.0594 52.2422C67.6907 51.8491 68.2193 51.6786 68.0594 50.9156Z" fill="white"/>
<path d="M68.8484 43.1797C68.8482 42.8115 68.8484 42.4424 68.8484 42.0739C69.3641 42.1364 69.6968 41.9936 69.6375 41.4107C70.2262 41.5615 70.2986 42.291 70.2298 43.1797H68.8484Z" fill="white"/>
<path d="M69.0461 47.5989C69.4163 47.1773 68.9287 47.1989 69.0461 46.4935C69.6765 46.4634 70.5555 46.7114 70.4266 45.8302C70.9155 46.1802 70.5071 47.3773 70.4266 47.8203C70.1739 47.514 69.5731 47.6007 69.0471 47.5978L69.0461 47.5989Z" fill="white"/>
<path d="M69.044 45.3911V44.2856C69.7546 44.3455 70.4083 44.3408 70.2278 43.401C70.5089 43.8226 70.6863 44.3608 70.8196 44.9483C70.3812 45.2691 69.8681 45.5061 69.043 45.3934L69.044 45.3911Z" fill="white"/>
<path d="M71.6094 36.1058C72.1558 36.1838 72.7702 36.7679 72.3984 37.2109C72.0735 36.9133 71.7203 36.6474 71.6094 36.1069V36.1058Z" fill="black"/>
<path d="M76.543 42.076C77.0437 41.6734 78.359 42.2433 78.5158 42.9609C77.8299 42.6951 77.0948 42.4864 76.543 42.076Z" fill="black"/>
<path d="M79.1065 47.3828C79.7457 46.5516 81.7872 47.2915 82.4602 46.4982C82.7129 47.449 80.3303 47.3478 79.1055 47.3825L79.1065 47.3828Z" fill="#EE3224"/>
<path d="M79.5003 40.9641C79.7599 40.5459 81.0786 40.8016 81.0781 41.4062C80.4515 41.3716 80.212 40.9034 79.5003 40.9641Z" fill="#EE3224"/>
<path d="M79.5013 38.9721C79.6748 38.1224 80.2934 39.012 80.8821 38.9721C80.7274 39.8015 79.928 39.1166 79.5 38.9721H79.5013Z" fill="#EE3224"/>
<path d="M81.6719 49.1471C81.9344 48.7281 83.2466 48.8145 84.2362 48.7049C83.901 49.4303 82.5757 49.0546 81.6732 49.1471H81.6719Z" fill="#EE3224"/>
<path d="M12.2316 44.9419C13.4097 42.6506 14.8543 40.6588 15.9798 38.3086C16.4718 39.0912 15.5499 40.1779 15.1908 40.7409C16.5409 41.5264 16.316 38.8068 17.3609 38.5303C17.0001 40.3788 15.4161 41.6432 15.7825 43.6156C16.9282 42.0249 17.9967 40.3484 18.3472 37.8664C19.3025 39.3837 17.5904 40.9365 17.1636 42.2891C18.5478 41.6293 18.7203 39.6112 19.531 38.3092C19.7249 38.6858 19.2102 40.1525 18.9392 40.7415C19.0839 40.9481 19.2979 41.0764 19.531 41.1836C20.0036 41.2712 19.4214 40.1765 20.1228 40.5201C19.8404 41.8105 20.9476 40.2805 20.7145 41.6258C21.9527 40.3684 21.263 38.6193 22.0953 37.2031C22.387 36.7069 22.9419 36.702 23.2789 36.3185C25.5398 33.7501 25.3616 29.4274 24.4625 24.8209C25.1447 25.0004 25.2953 24.4076 25.646 24.8209C25.2329 23.2938 23.6353 23.0941 21.8978 23.0519C21.5203 22.095 23.7851 22.9797 23.0814 22.3886C23.5463 21.8823 24.1004 23.1525 25.0542 22.8305C25.0501 22.1722 24.1236 22.5473 23.8704 22.1673C25.2319 21.8239 27.0353 22.8927 28.2106 23.4941C27.4399 22.0346 24.4725 21.4494 22.6869 21.504C20.8486 21.5603 24.4942 21.0404 25.0542 20.6193C26.5599 21.143 28.1351 21.5887 29.986 21.7248C29.099 21.0205 26.4394 21.1343 26.2378 20.398C29.8485 21.1419 33.211 22.1635 35.3125 24.5987C35.8065 23.8169 36.9184 24.2926 37.8771 24.5987C38.3116 25.7689 38.9926 26.6917 39.2579 27.4734C38.2043 30.5441 40.2419 32.8585 40.2442 35.2119C37.8869 32.8423 39.4552 26.0726 36.496 24.3779C36.544 25.5062 38.1182 26.8315 37.6796 29.2422C37.7869 29.978 37.3359 27.985 37.2851 27.4734C36.5713 28.2711 37.831 29.934 36.6933 30.1265C36.9808 31.2785 37.2621 32.4374 37.8771 33.2221C35.6075 31.4834 36.6348 26.542 34.1287 24.3779C32.4304 22.9115 30.6128 22.8187 28.2104 21.9456C29.0041 22.6771 29.9375 23.2525 30.9723 23.7143C31.2456 26.8723 34.5255 26.6593 34.7205 29.9057C34.4678 30.2852 33.7811 30.1794 33.7342 30.7904C33.9626 32.6715 34.058 34.7015 35.5095 35.2125C36.1307 38.4225 39.9608 38.0361 40.047 41.8458C39.7115 41.7645 39.6749 42.0183 39.6525 42.2879C39.358 41.4125 38.6489 41.2088 38.0741 41.1822C35.919 44.1489 42.232 45.7554 41.625 41.1822C46.0282 42.818 48.8834 38.3485 52.2778 40.077C51.6585 40.6354 49.9749 40.0019 49.3187 40.5189C51.4903 41.3799 53.3492 39.6993 55.8285 39.1924C56.4798 39.7152 56.9881 40.3987 57.4066 41.1822C57.0693 41.8267 56.6887 40.6816 56.026 40.9608C56.5265 42.0481 51.0215 41.4909 52.0806 41.403C51.7742 41.4284 50.8075 42.2796 50.3047 41.8452C53.3675 42.833 61.7218 41.24 59.9712 46.2676C59.0514 46.1207 58.7038 46.6158 57.9986 46.7097C58.0594 47.0097 58.4924 46.893 58.7879 46.9308C58.3289 47.3005 57.725 47.5083 57.0126 47.5941C56.9496 48.1805 58.1172 47.3872 57.8016 48.2577C56.8027 47.7305 56.6791 49.892 55.829 50.2475C55.0949 49.9645 54.1658 49.901 53.4616 49.5842C53.5176 48.6889 53.7999 48.0476 53.8559 47.1519C52.9016 47.9013 51.7286 47.0933 50.6997 47.5941C50.7606 47.8944 51.1935 47.7776 51.489 47.8155C51.2794 48.3172 50.2488 47.8996 49.7134 48.0366C50.2031 48.425 50.036 48.4409 49.5157 48.6998C49.577 49.0001 50.0097 48.8834 50.3052 48.9209C48.3788 50.3111 46.5068 49.0822 43.9924 48.9209C44.4604 48.0236 42.6438 48.0603 42.0198 48.2577C41.5536 48.4536 42.4721 49.492 41.428 49.3631C41.543 47.2441 40.0998 46.8716 39.0607 46.0465C38.5615 46.8875 37.809 47.4444 37.4823 48.4788C37.5481 48.9946 37.6845 49.4313 38.0741 49.5842C38.9243 49.8738 38.3186 48.5314 39.0604 48.6998C39.9848 49.9628 38.2239 53.5057 36.8903 52.2376C33.3695 53.9054 33.8113 58.9642 33.5366 63.5144C32.31 64.1294 31.4429 65.1475 30.3802 65.9466C30.4499 66.2371 30.7276 66.2943 30.7748 66.6099C32.7734 66.833 33.9459 65.0415 35.115 65.0623C31.4421 67.6668 28.9904 72.5221 22.8836 71.6956C23.9228 70.9442 25.2231 70.4852 26.4345 69.9268C25.901 69.5601 24.6393 70.2659 23.8699 70.369C24.3137 69.761 25.2657 69.7222 25.8428 69.2636C25.4606 68.9217 24.185 69.4598 23.4754 69.4847C26.8641 68.4922 29.3442 66.4807 30.7748 63.2936C28.8073 65.6579 26.4714 67.6096 23.4754 68.8211C23.4996 68.0379 24.5947 68.4544 24.8562 67.9367C24.8242 67.6778 24.4965 67.75 24.2644 67.7157C24.3206 66.5255 25.785 66.9142 25.6452 65.5045C24.9111 65.7695 23.7719 66.6171 22.0943 66.8313C22.5466 66.1591 23.0538 65.5481 23.4751 64.8412C22.0061 65.6897 20.9337 66.0891 18.7404 66.3888C20.9592 64.9695 23.5811 64.0019 25.0532 61.7456C24.9715 57.4047 23.9248 54.0132 21.6995 51.5746C22.0368 50.3651 21.5072 48.6672 21.305 47.3736C20.2785 48.6553 21.5616 52.5254 20.1215 53.3436C19.9845 52.0847 20.4556 51.5073 20.3187 50.2481C19.2221 50.3457 20.1558 51.7995 19.5297 52.6803C18.8706 52.259 19.6633 49.2689 19.3324 48.4793C18.5052 48.5842 19.3765 50.5926 18.3459 50.4694C18.9601 49.1883 17.891 48.0872 17.9514 46.7106C16.6051 47.2791 18.5235 50.2761 17.5568 51.5749C16.9241 49.8891 17.3725 48.2825 16.7678 46.4892C16.0105 46.7993 16.3413 47.3305 15.584 46.7106C15.6536 47.8551 17.3328 50.3677 16.5705 51.796C16.0902 49.9021 15.7397 47.8626 14.5977 46.7106C14.133 48.7816 15.8351 50.3336 15.7812 52.6803C14.7114 51.7419 15.1002 49.1689 13.8086 48.4793C13.951 49.3518 14.1222 50.1914 14.4004 50.9116C14.2251 51.1636 13.8496 50.7749 14.0059 51.796C13.5315 51.5171 13.6083 50.62 13.2169 50.2484C13.4105 49.5703 13.7432 50.5024 14.0059 50.4694C13.5464 48.9946 12.7847 47.8583 12.0333 46.7106C12.038 48.7227 13.4451 50.5871 13.4141 52.9014C12.2711 49.8394 11.2672 49.3042 10.455 46.0471C11.2497 45.7479 10.668 44.4942 10.6522 44.0567C9.6167 44.7673 10.1376 45.969 10.2577 46.9311C9.94314 47.3407 9.52129 46.0002 9.27143 45.6043C8.5729 45.6783 8.7864 46.2127 8.08787 45.8257C8.06286 46.2222 8.32948 46.2918 8.28513 46.7103C7.83801 46.4745 7.56829 46.0395 7.49609 45.3835C8.02444 45.9791 8.24619 45.102 8.67965 44.9413C8.96561 42.7558 10.9194 42.4397 11.6388 40.7403C11.6968 42.5027 9.32222 43.4489 8.87691 45.3835C10.6368 43.6711 12.2494 41.7932 13.2171 39.1927C13.7153 40.566 12.1205 41.4978 11.8363 42.7301C12.9995 41.8963 13.8012 40.6574 14.4009 39.1927C14.6165 41.1493 11.7288 42.6636 12.2362 44.9497L12.2316 44.9419ZM30.1848 65.5053C30.062 66.1047 29.3607 66.0556 29.3957 66.8322C29.9759 66.8793 30.5973 65.8423 30.1848 65.5053ZM14.4015 46.2684C15.2588 46.2543 14.6781 44.6497 14.2042 44.7211C14.09 45.4378 14.3385 45.75 14.4015 46.2673V46.2684ZM20.1225 49.3637C20.2641 48.9889 20.0041 47.5351 19.5307 47.1525C19.1968 47.9531 19.5377 48.9649 20.1225 49.3637ZM24.66 49.5862C27.1328 46.7534 25.4258 40.5657 25.2517 37.4248C24.6584 38.3554 25.2291 40.0785 23.8709 40.5204C26.3711 42.2255 24.3456 46.9505 24.66 49.5862ZM27.4206 23.4947C26.5619 23.7045 25.523 22.0595 25.2505 23.0525C25.7669 23.2953 26.7347 24.1767 27.4206 23.4947ZM27.2246 63.9586C26.5539 64.2389 26.3149 65.0025 26.041 65.7276C27.1421 65.9287 26.6032 64.2941 27.2246 63.9586ZM26.8301 35.4344C26.9773 38.5881 28.1665 41.6588 27.8166 45.1633C27.6062 47.2696 25.916 49.2964 26.4358 51.7966C29.2516 48.0019 29.2568 39.9126 26.8303 35.4359L26.8301 35.4344ZM28.6067 67.4969C27.952 67.8015 26.5885 68.4688 26.8311 69.0445C27.3958 68.4994 28.354 68.3931 28.6067 67.4969ZM28.0136 21.9493C27.5523 21.8765 27.1986 21.6835 26.8298 21.5069C26.5797 22.2496 27.8305 22.4203 28.0136 21.9493ZM28.4082 32.5617C28.92 38.419 31.8866 41.5631 30.5783 46.2707C29.8681 48.8253 27.9458 51.2428 28.0136 54.8939C28.0131 55.1158 28.1735 55.1571 28.2109 55.336H28.8027C29.2519 50.1226 33.5191 47.0201 32.3536 41.8484C31.6148 38.5693 27.9206 35.7731 29.3945 31.4562C28.7447 31.462 28.9123 32.3868 28.4094 32.5602L28.4082 32.5617ZM34.3259 41.4053C34.6555 42.6469 34.0428 44.1211 35.5095 44.7225C36.4197 40.7192 33.8432 37.839 32.3531 34.772C31.5622 33.1446 31.5243 31.2747 30.3802 29.908C29.0497 34.0639 33.2481 37.3477 34.3259 41.4053ZM33.3409 49.8067C32.5833 51.5602 31.5473 53.2008 30.9736 54.8924C30.7528 56.59 29.6887 58.4249 30.3818 60.42C32.1723 55.2779 34.2705 50.4798 36.1028 45.3846C34.2591 45.7777 34.0168 48.2343 33.3412 49.8036L33.3409 49.8067ZM45.7696 42.9515C45.6262 42.7709 44.4042 42.3587 44.586 43.1732C44.9315 43.046 45.7438 43.4428 45.7696 42.9515ZM47.7421 40.9631C47.8051 41.5495 46.6367 40.7565 46.9526 41.627C47.507 41.8524 48.3249 41.281 47.7421 40.9631Z" fill="#EE3224"/>
<path d="M12.4279 33.2265C15.714 33.3762 18.3642 34.238 20.7135 35.4374C19.0988 33.4872 15.7348 32.8251 13.2169 32.5632C13.311 30.9774 14.4613 31.5523 14.2032 29.9096C14.8617 30.498 14.8396 31.8497 16.3733 31.4572C16.3485 30.9691 15.5363 31.3633 15.1897 31.2358C15.4566 29.696 14.5405 28.5093 14.9925 27.477H14.0059C13.2208 27.7631 13.7906 29.3815 14.0059 29.9093C13.5194 31.2641 12.744 30.8442 12.8224 32.1199C12.251 32.6586 10.5017 31.8774 10.2577 32.7832C10.5373 33.4279 12.2169 32.5034 12.2306 33.4467C11.9083 34.7863 10.1061 34.0253 9.07419 34.11C6.6096 34.3123 4.12517 35.6096 2.16959 36.1004C-0.531697 29.7523 8.43548 23.1393 15.7818 24.1606C18.5694 20.2093 20.614 15.4251 25.6455 13.9899C24.235 12.1801 22.1993 11.0715 22.4891 7.3563C24.0659 5.9728 25.8905 7.2005 27.4211 6.693C30.2663 5.7497 31.3851 2.6848 33.1424 0.280502C34.3564 -0.675798 36.2795 1.1019 38.2717 1.3857C40.3616 1.6843 42.6725 0.410302 44.3872 0.501602C46.203 0.598202 47.6924 1.923 49.1217 2.049C50.5698 5.6587 53.9444 7.1098 56.2238 9.7877C60.1061 10.1845 63.4755 7.0242 67.8634 7.5768C68.7592 7.6898 70.5629 8.1314 70.8228 9.1245C71.7621 12.7151 66.1167 12.7128 63.7207 12.6619C68.4304 14.265 70.3236 18.3426 72.5984 23.054C73.1657 24.2294 73.8964 25.4392 75.3603 25.708C78.2802 27.8816 78.954 32.9733 82.2648 36.3212C84.6637 38.7468 87.5903 40.3655 89.1692 42.7337C92.7312 48.0745 83.8277 52.3671 81.4753 54.6734C81.0529 55.0876 81.1293 56.0349 80.2915 56C78.2699 60.8833 75.6999 65.152 71.8088 67.94C70.3347 72.1841 67.6001 75.0152 64.3127 77.2267C63.0258 77.1848 62.0642 77.5076 61.5508 78.3321C63.7191 77.8671 67.3193 78.1139 68.6527 79.8798C68.8146 81.7563 68.3144 82.8912 67.6664 83.8597C63.1885 84.3001 60.0952 81.4979 55.83 80.9852C55.188 81.371 55.1336 82.4158 55.0405 83.4175C53.0906 85.507 49.7681 86.0576 47.5441 87.8396C46.4114 91.4097 42.921 89.5725 39.4557 89.1664C36.9772 88.876 35.0271 89.7178 32.9454 89.8297C30.9241 88.4375 31.0362 85.516 29.1972 83.8597C27.4448 82.2817 24.3593 83.4123 22.8844 80.9852C22.9589 78.0469 24.2871 76.5137 26.0408 75.4574C21.3641 73.9921 17.6894 71.4038 16.1771 66.3918C8.56827 66.1106 1.73279 63.3543 0 55.7803C3.31782 54.8795 6.72358 57.7086 9.66648 56.8861C10.7866 56.5731 11.0102 55.6263 12.2311 55.117C10.6603 51.3498 8.04173 48.7569 5.72078 45.8304C7.51519 41.2381 12.3992 39.0705 12.4284 33.2239L12.4279 33.2265ZM3.55041 32.1225C2.9166 32.0757 3.07028 32.9112 2.76111 33.2279C3.31628 33.1846 3.60198 32.8407 3.55041 32.121V32.1225ZM4.14219 32.3421C4.75743 32.0736 4.99105 32.4598 5.523 31.8997C4.95366 31.8008 5.05654 30.9485 4.53671 30.7945C4.51762 31.3627 3.76675 31.1107 3.74767 31.6791C3.99573 31.7687 4.15095 31.9624 4.14219 32.341V32.3421ZM5.52326 59.3181C5.61351 58.6273 5.10192 58.6111 4.53696 58.6548V59.3181C4.86573 59.3152 5.19449 59.3152 5.52326 59.3152V59.3181ZM5.72052 60.6446C5.81077 59.9539 5.29918 59.9377 4.73422 59.9813V60.6446H5.72052ZM6.50981 28.1429C5.80587 27.6281 4.99878 28.5691 4.93148 29.4694C5.61222 29.2006 6.12097 28.7382 6.50981 28.1429ZM7.49611 30.3538C7.13331 30.0581 6.08255 30.4069 6.31255 31.4592C6.9871 31.2887 7.38162 31.4794 7.49611 30.3523V30.3538ZM6.90407 60.2024C7.05183 59.6611 7.49302 60.1553 7.10133 60.4235C7.37286 60.433 7.53453 60.3195 7.69311 60.2024C7.80657 60.5911 7.4546 61.5015 7.89037 61.529C8.0095 60.5148 7.91255 59.5111 8.08763 58.2123C7.60132 58.2415 7.13692 58.2458 6.90382 57.9912C7.11964 58.9701 6.56964 59.0909 6.5093 59.7602C6.77051 59.7631 6.69005 60.1475 6.90407 60.2024ZM14.4007 39.1974C13.8009 40.6624 12.9993 41.9013 11.8361 42.7354C12.1202 41.5022 13.7151 40.5713 13.2169 39.1974C12.2492 41.7979 10.6368 43.6758 8.87667 45.3885C9.32198 43.4539 11.6966 42.5074 11.6386 40.7453C10.9189 42.4447 8.96537 42.7614 8.67941 44.9463C8.24595 45.1073 8.02394 45.9841 7.49585 45.3885C7.56805 46.0445 7.83777 46.4792 8.28489 46.7153C8.32924 46.2971 8.06262 46.2275 8.08763 45.8307C8.78616 46.2179 8.57266 45.6833 9.27119 45.6093C9.52105 46.0052 9.9429 47.3456 10.2575 46.9361C10.1376 45.9737 9.61671 44.772 10.652 44.062C10.6677 44.4992 11.2492 45.7529 10.4547 46.0518C11.267 49.3089 12.2708 49.8441 13.4139 52.9061C13.4446 50.5918 12.0375 48.7274 12.0331 46.7153C12.7847 47.863 13.5462 48.9993 14.0057 50.4742C13.7429 50.5071 13.4103 49.5751 13.2166 50.2531C13.6083 50.625 13.5312 51.5221 14.0057 51.8007C13.8497 50.7796 14.2251 51.1683 14.4002 50.9163C14.122 50.1961 13.9507 49.3566 13.8084 48.484C15.1 49.1736 14.7112 51.7469 15.781 52.6851C15.8349 50.338 14.1325 48.7861 14.5974 46.7153C15.7395 47.8673 16.0899 49.9068 16.5703 51.8007C17.3325 50.3724 15.6534 47.8598 15.5837 46.7153C16.3411 47.3355 16.0102 46.8043 16.7676 46.4939C17.3722 48.2872 16.9238 49.8935 17.5566 51.5796C18.5233 50.2808 16.6048 47.2838 17.9511 46.7153C17.8908 48.0919 18.9598 49.193 18.3456 50.4742C19.3763 50.5973 18.505 48.5892 19.3322 48.484C19.663 49.2736 18.8704 52.2637 19.5294 52.6851C20.1555 51.8042 19.2218 50.3507 20.3185 50.2528C20.4554 51.5117 19.9843 52.0891 20.1212 53.3483C21.5613 52.5301 20.2783 48.6601 21.3048 47.3783C21.5072 48.6722 22.0366 50.3698 21.6993 51.5793C23.9246 54.018 24.9712 57.4095 25.053 61.7503C23.5809 64.0072 20.959 64.9748 18.7401 66.3941C20.9332 66.0944 22.0059 65.695 23.4749 64.8465C23.0533 65.5534 22.5461 66.1643 22.0941 66.8366C23.7717 66.6224 24.9109 65.7748 25.645 65.5097C25.7848 66.9192 24.3201 66.5308 24.2642 67.7209C24.4963 67.7556 24.8242 67.6831 24.856 67.942C24.5945 68.4596 23.4994 68.0432 23.4751 68.8264C26.4712 67.6149 28.8068 65.6632 30.7745 63.2988C29.3439 66.486 26.8639 68.4975 23.4751 69.49C24.1848 69.4651 25.4601 68.927 25.8425 69.2689C25.2654 69.7275 24.3134 69.7662 23.8697 70.3743C24.6391 70.2711 25.9008 69.5654 26.4343 69.9321C25.2229 70.4908 23.9225 70.9494 22.8834 71.7009C28.9902 72.5274 31.4418 67.6721 35.1147 65.0676C33.9456 65.047 32.7734 66.8386 30.7745 66.6152C30.7271 66.2996 30.4496 66.2421 30.38 65.9519C31.4426 65.1531 32.3098 64.1349 33.5364 63.5196C33.811 58.9695 33.3693 53.911 36.8901 52.2429C38.2237 53.511 39.9846 49.9678 39.0602 48.7051C38.3183 48.5366 38.924 49.8791 38.0739 49.5895C37.6843 49.4366 37.5479 48.9996 37.4821 48.484C37.8088 47.4497 38.5612 46.8928 39.0604 46.0518C40.0996 46.8769 41.5428 47.2497 41.4278 49.3684C42.4721 49.4976 41.5534 48.4589 42.0196 48.263C42.6436 48.0656 44.4604 48.0286 43.9922 48.9262C46.5063 49.0875 48.3788 50.3164 50.305 48.9262C50.0095 48.8887 49.5771 49.0051 49.5154 48.7051C50.0358 48.4462 50.2029 48.43 49.7132 48.0419C50.2485 47.9049 51.2786 48.3228 51.4888 47.8208C51.1933 47.7829 50.7606 47.8997 50.6995 47.5994C51.7283 47.0985 52.9013 47.9063 53.8557 47.1572C53.7997 48.0528 53.5173 48.6942 53.4614 49.5895C54.1651 49.9062 55.0946 49.9701 55.829 50.2528C56.6797 49.8973 56.8024 47.7358 57.8014 48.263C58.1175 47.3925 56.9494 48.1858 57.0123 47.5994C57.7248 47.5136 58.3284 47.3058 58.7876 46.9361C58.4921 46.8983 58.0597 47.015 57.9984 46.715C58.7036 46.6211 59.0512 46.126 59.9709 46.2729C61.7215 41.2456 53.3673 42.838 50.3045 41.8502C50.8073 42.2848 51.774 41.4337 52.0803 41.4083C51.0213 41.4959 56.5263 42.0528 56.0258 40.9664C56.6884 40.6863 57.0696 41.832 57.4063 41.1878C56.9878 40.4037 56.4796 39.7205 55.8282 39.1974C53.349 39.7043 51.4901 41.3849 49.3184 40.5239C49.9747 40.0069 51.6577 40.6401 52.2776 40.0823C48.8832 38.3543 46.0279 42.823 41.6248 41.1878C42.2318 45.7607 35.9187 44.1541 38.0739 41.1878C38.6486 41.2141 39.3577 41.4175 39.6522 42.2929C39.6744 42.023 39.7113 41.7693 40.0467 41.851C39.9609 38.0408 36.1304 38.4275 35.5093 35.2178C34.0578 34.7071 33.9621 32.6768 33.7339 30.7954C33.7811 30.1853 34.4675 30.2908 34.7202 29.9107C34.5253 26.6652 31.2454 26.8773 30.972 23.7196C29.9373 23.2578 29.0038 22.6824 28.2101 21.9506C30.6126 22.8237 32.4302 22.9165 34.1284 24.3829C36.6343 26.5467 35.607 31.489 37.8769 33.2276C37.2619 32.4424 36.9806 31.2835 36.6931 30.1321C37.8307 29.939 36.5714 28.2761 37.2848 27.4784C37.3359 27.9903 37.7866 29.983 37.6794 29.2474C38.118 26.8368 36.5438 25.5115 36.4958 24.3829C39.4552 26.0779 37.8867 32.8476 40.244 35.2172C40.2417 32.8632 38.2038 30.5497 39.2577 27.4784C38.9924 26.6972 38.3114 25.7739 37.8769 24.6043C36.9179 24.2979 35.8063 23.8219 35.3122 24.6043C33.211 22.1685 29.8483 21.1469 26.2375 20.403C26.4392 21.1396 29.0987 21.0261 29.9857 21.7301C28.1348 21.5934 26.5596 21.148 25.054 20.6246C24.4939 21.0457 20.8481 21.5653 22.6866 21.509C24.4725 21.4547 27.4399 22.0402 28.2104 23.4994C27.0351 22.898 25.2317 21.8295 23.8702 22.1728C24.1229 22.552 25.0499 22.1775 25.054 22.8361C24.1002 23.1572 23.5461 21.8876 23.0811 22.3939C23.7848 22.9849 21.5201 22.1006 21.8976 23.0572C23.635 23.0997 25.2329 23.2991 25.6458 24.8262C25.2951 24.4132 25.1445 25.0057 24.4622 24.8262C25.3614 29.433 25.5393 33.7557 23.2787 36.3235C22.9416 36.7067 22.3867 36.7122 22.0951 37.2084C21.2627 38.6237 21.9525 40.3736 20.7143 41.6308C20.9474 40.2858 19.8399 41.8158 20.1225 40.5251C19.4211 40.1817 20.0034 41.2765 19.5307 41.1889C19.2976 41.0817 19.0834 40.9531 18.939 40.7467C19.2102 40.1578 19.7249 38.6908 19.5307 38.3145C18.7198 39.617 18.5475 41.6343 17.1634 42.2944C17.5904 40.9424 19.3023 39.3896 18.3469 37.8723C17.9967 40.3543 16.9279 42.0308 15.7823 43.6209C15.4159 41.6487 16.9996 40.3843 17.3606 38.5356C16.3161 38.8121 16.5406 41.5317 15.1905 40.7465C15.5497 40.1835 16.4715 39.0968 15.9795 38.3142C14.854 40.6644 13.4095 42.6565 12.2314 44.9475C11.7198 42.6614 14.6075 41.147 14.3971 39.1991L14.4007 39.1974ZM8.87693 31.0156C9.63966 30.7327 9.65513 31.202 10.2577 31.237C10.3666 30.139 9.42564 29.3483 9.86322 28.5833C9.16469 28.611 8.74052 28.9469 8.28489 29.2472C8.67374 29.62 8.81452 30.2731 8.87693 31.013V31.0156ZM8.67967 27.6978C10.0192 27.3975 10.0192 26.8701 8.67967 27.4764C8.45378 26.7811 8.98935 26.9391 9.07419 26.5918C8.62449 26.5296 8.33259 26.6455 8.28489 27.0336C8.56234 27.0943 8.51 27.5215 8.67967 27.6978ZM9.66596 60.8671C9.63115 60.3102 10.4321 60.7353 10.8498 61.0882C10.8939 61.2599 10.8552 61.5243 11.047 61.5304C11.1112 60.7177 10.8789 59.573 11.2443 59.0981C10.4764 59.1386 9.36917 58.412 8.87693 58.877C9.2387 59.429 9.37974 60.2296 9.66596 60.8683V60.8671ZM10.4553 61.3082C10.3715 62.4104 10.0319 61.22 9.86348 61.0871C10.2871 61.8885 8.52444 61.3119 9.2717 61.7503C9.76575 61.9185 11.1711 62.2 10.4553 61.3082ZM10.4553 64.6248C10.1737 63.6624 11.1295 63.6081 10.6525 63.0772H9.2717C9.17217 64.1468 9.52027 64.7147 10.4553 64.6248ZM22.0946 54.0119C19.1947 56.658 13.8556 56.5702 9.66596 57.7707C14.3509 58.2851 20.0764 57.7534 22.0946 54.0107V54.0119ZM13.0199 26.1516C12.5003 25.1797 11.8567 26.499 11.2443 25.9305C11.6878 26.9608 9.92872 26.6435 10.4553 27.036C11.2812 26.7123 12.3881 26.7007 13.0199 26.1545V26.1516ZM12.4279 31.0156C12.4467 30.6685 12.4015 30.2491 12.8224 30.3523C12.672 29.3758 12.7762 28.607 12.2306 27.6987C12.1174 28.2353 10.9542 27.5952 11.0468 28.3622C11.5968 30.102 11.7964 29.8393 12.4279 31.0156ZM12.6251 64.6242C12.6687 64.452 12.7904 64.367 13.0196 64.4031C13.0637 64.5748 13.025 64.8392 13.2169 64.8453C13.0743 64.1696 13.4185 64.0396 13.4141 63.5188C12.7832 63.5488 11.9044 63.3009 12.0333 64.182C12.4211 64.1159 12.4248 64.4806 12.6251 64.6242ZM13.4144 61.9711C13.3342 62.7176 12.6496 61.3827 12.8226 62.4133C13.0196 62.6373 13.8981 62.4968 14.2034 62.1922C13.025 62.3338 13.8636 60.2148 13.6117 59.3178C12.9405 59.6068 12.235 58.8253 12.0333 59.3178C12.3373 60.8668 12.5983 61.2056 13.4144 61.9711ZM20.319 26.3741C19.8644 24.7785 17.0638 27.0417 16.9653 25.047C15.0327 26.2932 14.4636 25.0511 13.2171 26.3741C15.4984 25.7007 17.9148 26.0822 20.319 26.3741ZM14.9927 65.0664C15.1903 64.3939 15.3179 64.784 15.5845 65.0664C15.8563 64.7814 15.7797 64.106 15.7818 63.5188H14.401C14.2323 64.4442 14.6421 64.7219 14.9927 65.0664ZM14.9927 61.0859C15.2292 60.6232 15.796 61.6423 15.979 61.9706V59.0961C15.484 59.2782 14.2803 58.6663 14.4007 59.5383C14.8651 59.755 14.5776 60.8157 14.9927 61.0874V61.0859ZM16.1763 29.9107C16.5889 29.2177 16.5231 31.3367 16.9653 30.1315C17.275 30.2477 17.0205 32.1054 17.5571 31.2373C17.3526 30.4838 17.9405 29.135 17.7544 27.4784C17.1546 27.6169 16.0551 27.1955 15.7815 27.6998C16.3581 27.9368 15.5997 29.6708 16.1763 29.9107ZM17.7544 65.2881C17.0293 64.6026 18.4336 64.4424 18.1489 63.5191C17.7688 63.1578 16.5033 63.1451 16.5706 63.9612C17.1989 64.4838 17.0801 65.6204 17.7544 65.2881ZM16.9653 60.8668C17.4604 60.9986 17.626 61.0443 18.3461 61.309C18.3317 60.3672 18.0161 59.7625 18.1489 58.6557C17.4413 58.9467 17.4261 58.6409 16.7683 58.8767C16.7763 59.605 17.1012 59.9779 16.9653 60.868V60.8668ZM18.1491 61.529C17.8776 61.9113 17.1657 61.3449 16.9653 62.1922C17.2222 61.9469 18.8407 62.1067 18.1491 61.529ZM18.7409 50.6938C18.2193 50.6424 18.0084 52.0602 18.3464 52.2414C18.5114 51.7646 18.857 51.49 18.7409 50.6952V50.6938ZM18.9382 30.7957C19.0259 29.6792 19.2149 31.2497 19.53 31.2373C19.5741 31.0656 19.5354 30.8014 19.7272 30.7957C19.7713 30.9673 19.7326 31.2318 19.9245 31.2373C19.9038 29.7058 19.9882 28.1943 19.7272 27.4784C19.1066 27.368 18.956 27.9605 18.5437 27.4784C18.6868 29.0102 18.7685 29.631 18.9382 30.7957ZM24.2647 23.9404C22.4881 24.0866 20.1893 23.6471 18.7409 24.1618C20.5005 24.1473 23.4424 26.2571 24.2647 23.9392V23.9404ZM19.53 63.9621C20.0052 64.0526 19.9588 63.5584 20.5163 63.741C20.3566 62.8986 21.0944 63.0624 21.108 62.4142C19.8711 62.3937 18.7015 62.6399 19.53 63.9621ZM19.7272 59.9834C20.3474 59.9516 20.4049 60.5504 20.5165 61.0888C20.3633 61.1382 20.1274 61.0949 20.122 61.3099C21.0523 61.5691 20.5511 60.0885 21.1083 61.0888C21.1341 59.097 20.599 58.8831 21.3055 57.5511C20.3654 57.6765 19.5292 57.9187 19.5302 59.0987C19.8221 59.1363 19.7107 59.6305 19.7272 59.9802V59.9834ZM21.108 31.2387C21.6346 31.5222 21.8305 31.8332 22.0946 31.902C22.1018 32.7045 21.984 33.6473 22.4891 33.8924C23.0786 31.7592 22.0263 29.8966 22.0946 27.9223C21.4917 27.7625 21.3757 28.1484 20.911 28.1434C20.8976 29.2619 21.2501 29.9729 21.108 31.2387ZM23.4754 58.8765C23.3846 58.3146 23.0907 57.9808 22.6861 57.771C23.0729 57.8779 23.3215 56.7575 22.8834 56.6656C22.3372 56.8716 21.304 58.1062 22.2916 58.6557C22.3922 57.2618 22.7689 59.636 22.8834 58.8767C22.9143 58.6166 22.8496 58.2493 23.0806 58.2135C23.0505 58.5054 23.3908 59.4273 23.4754 58.8724V58.8765ZM23.4754 61.5298C22.8661 61.2408 22.3563 62.1573 22.8836 62.4142C22.9638 61.9882 23.6484 62.2399 23.4754 61.5298ZM23.4754 32.7849C24.3792 33.034 24.8281 28.2429 23.4754 27.9206C23.1874 29.8309 23.3506 31.285 23.4754 32.7849ZM26.0403 17.3086C25.6396 17.8918 24.0445 17.1352 23.8702 17.9724C24.4527 17.7557 26.4116 18.2652 26.0403 17.3086ZM66.6783 25.9296C65.1721 27.1157 62.7725 27.301 61.7463 29.0252C62.96 28.3931 64.4767 26.9293 66.2838 27.6984C64.3101 27.6319 64.6737 29.6107 62.7328 29.0252C62.9074 30.1139 61.0408 30.0653 61.5493 30.7942C62.4415 29.9549 65.7683 29.185 66.481 30.7942C65.3758 30.7751 63.7271 30.2017 62.7328 30.7942C63.9244 31.5228 65.9723 31.2904 66.8753 32.3416C66.8732 32.634 66.5298 32.5436 66.481 32.7834C71.9014 34.6181 74.6478 40.3005 74.5694 47.5979C74.1159 48.2687 73.8858 49.1901 73.3856 49.8091C72.6288 57.1424 67.2043 59.2435 61.1542 60.6434C61.5011 60.7706 62.3133 60.3764 62.3381 60.8645C62.3347 61.2298 61.7906 60.9882 61.746 61.3067C62.1779 61.7804 62.8079 60.9498 63.1268 61.7489C62.8169 61.77 62.443 61.7191 62.5348 62.1911C64.7212 62.3362 66.3719 62.3272 67.8611 61.3067C67.014 64.1471 63.9399 62.7885 61.5488 62.6333C63.2568 64.6494 67.5882 62.9896 69.0451 63.2965C67.4304 65.0418 64.4122 63.398 62.3373 63.9598C62.8816 64.1607 63.7227 64.0286 64.1131 64.402C64.051 65.1384 63.1779 63.7364 63.3236 64.8442C65.2412 65.7187 67.7105 65.5907 69.4394 64.6231C69.3605 63.7977 69.5969 63.3257 70.2289 63.2965C70.1988 63.9997 69.7816 64.2693 69.8344 65.0655C66.8036 68.6703 59.4029 67.0071 59.1814 61.7489C58.5429 62.022 59.0308 61.0333 58.3924 61.3067C58.9465 68.8446 69.2785 70.2324 71.6103 63.739C72.1582 63.0269 73.4385 63.135 73.5826 61.97C72.4272 62.0061 71.4715 63.4309 70.6229 63.0754C71.143 61.5943 73.0318 61.6477 73.9771 60.6432C73.9776 60.8651 73.8173 60.9064 73.7796 61.0853C74.3154 60.9489 74.7032 60.6466 74.9632 60.201C74.7793 59.9651 74.2357 60.1322 74.3714 59.5377C75.1645 59.3883 76.3491 58.5204 76.1467 57.9901C75.3657 59.2516 73.4756 59.2707 72.7931 60.6434C72.1218 60.3544 71.4166 61.1362 71.2152 60.6434C73.777 59.3866 76.8076 57.4785 78.1196 55.5581C76.2911 56.7687 73.8376 59.075 71.807 58.6536C73.8281 57.16 75.96 55.791 77.9226 54.2312C75.8608 54.2786 75.1648 55.8572 73.5826 56.4424C74.4673 54.4859 76.5869 53.9136 78.7119 53.3469C78.6007 52.1383 80.9284 52.0888 81.4737 50.9146C81.2419 50.8799 80.9137 50.9525 80.882 50.6935C81.3085 50.3609 82.1094 50.4473 82.2628 49.8089C80.3743 49.9785 78.7227 51.5883 76.9363 51.1354C77.5433 50.6155 77.0152 51.0042 76.9363 50.251C77.8772 50.1262 78.8343 50.0201 79.5009 49.5878C78.7196 49.0638 78.067 50.238 77.7251 49.3667C78.6255 49.4915 78.954 48.9751 79.8952 49.1456C79.9137 49.493 79.8686 49.912 80.2894 49.8089C80.3116 49.3912 80.9418 49.6554 80.8817 49.1456C80.432 48.8418 80.1399 49.7155 80.0922 49.1456C81.2244 48.1832 82.7705 48.7814 83.8403 48.0398C80.2572 47.5627 78.1301 48.3049 75.5547 46.7133C76.0402 45.7922 77.9156 47.1511 78.7108 46.4919C78.3083 46.6815 77.6237 46.144 78.1191 46.0497C78.6742 46.1755 79.6824 46.9358 80.2889 46.2711C79.7861 46.2454 79.274 46.2292 79.3026 45.6076C79.979 45.9558 83.6756 45.9558 83.051 45.6076H81.8672C80.6692 45.3067 78.2464 45.5119 77.527 44.0599C79.6711 45.048 83.4489 45.3818 85.8129 45.3868C83.2058 44.407 79.0231 45.0235 77.133 42.7334C77.7934 42.7955 78.5533 43.6091 78.9083 42.7334C80.2216 43.5397 82.5549 44.8246 84.0379 44.0599C80.6788 43.4767 77.9953 42.1357 75.9497 40.08C78.0502 40.8326 81.0248 42.9256 82.854 42.512C81.3629 41.825 79.2549 41.8291 78.5141 40.3011C78.7467 40.3329 78.9612 40.6947 79.1059 40.3011C78.9604 39.9485 78.1402 40.352 78.3166 39.6378C79.6028 39.8271 81.0426 40.7837 82.2623 40.7433C80.9681 39.3188 78.2838 39.4534 76.9358 38.0899C78.0371 37.9616 78.3189 38.7503 79.3034 38.7532C79.0375 36.7663 76.263 37.5911 75.5549 36.0995C77.1524 36.2275 78.9357 37.3188 80.0927 37.205C78.2635 35.6755 75.681 36.2197 73.9771 34.7727C74.2724 34.7351 74.7048 34.8513 74.7662 34.5516C74.1037 34.5577 73.7226 34.2467 73.3856 33.8883C74.8819 33.9695 77.5848 35.0883 79.1069 35.2149C77.0593 33.0881 72.4875 33.7889 71.6105 30.3506C73.4761 31.0613 75.9348 32.2832 77.5286 32.5612C76.6624 32.3534 76.3195 31.5581 75.7532 31.0139C74.2819 30.378 71.9978 30.6538 71.0185 29.4665C71.1381 29.5934 71.9545 29.9841 72.0048 29.4665C71.5249 29.194 70.7245 29.2798 70.624 28.5816C70.8764 28.5937 70.8976 28.8645 71.2163 28.8032C71.4058 28.001 70.3298 28.6171 70.4267 27.9183C73.0643 27.336 74.926 30.6757 76.7393 31.0139C75.5196 27.9593 71.683 27.8368 69.6372 25.7077C70.9233 26.2068 73.6102 27.4123 73.9774 27.4761C72.4426 26.0412 71.3122 24.7748 70.4265 23.0537C67.8801 21.7067 64.6773 21.0954 61.7463 20.1798C64.479 19.9553 68.0083 20.3639 69.6377 21.7272C68.4531 19.1617 63.289 18.6415 60.3655 19.9582C60.3624 19.5932 59.8186 19.8342 59.7737 19.5166C60.0148 19.4911 60.2409 19.4501 60.1685 19.0741C58.914 19.5799 58.0649 19.0966 57.2088 19.0741C57.97 18.8935 58.9893 18.6718 59.9707 18.6322C62.6516 18.5221 65.8508 18.927 67.4673 18.8533C65.5886 17.2762 62.2906 18.0877 60.1677 17.7478C60.5666 16.721 62.8308 17.7851 63.5214 17.0846C60.3974 15.4471 56.9597 17.6536 54.0519 16.8632C54.5119 16.1996 56.5353 17.2883 56.4192 15.9785C55.9195 15.4644 54.4562 16.3629 53.2631 15.7572C56.3115 14.3613 60.3879 16.5797 62.9296 15.9785C61.1197 15.3537 58.8451 15.2497 57.6033 13.9884C57.0443 14.0254 56.7813 14.3936 56.2225 14.4306C50.8277 13.6659 46.3273 18.7915 40.243 16.1993C43.0103 16.1884 45.2796 15.5416 46.5558 14.4306C44.4478 15.906 41.148 14.3483 39.0589 14.652C39.9588 15.117 41.5206 14.8407 42.018 15.7572C39.1891 15.8323 37.2191 14.9448 35.5077 13.7671C36.2748 13.8728 37.8305 14.2494 38.2696 13.9887C38.0184 13.6806 37.3031 13.8922 37.2833 13.3249C42.8385 14.7592 48.0263 13.1234 52.6706 11.3351C53.0372 10.3918 53.4341 9.81 53.2623 8.9028C52.9887 7.4569 51.4638 7.7444 50.3032 6.9124C48.7829 5.8228 48.4951 3.8798 47.5413 3.3749C46.2443 3.1897 45.6236 3.3252 44.9767 2.7117C44.8266 2.1496 46.3247 2.3409 45.5682 1.827C44.8882 1.9496 44.8967 2.8432 44.1876 2.9322C41.2207 3.22 37.7918 3.3033 34.7184 2.2689C33.9572 2.5212 33.5957 3.2218 32.7456 3.3744C31.7667 7.0679 28.1931 7.8534 25.2489 9.3444C28.2261 8.6973 31.9908 9.4415 35.5074 9.7863C33.9936 8.491 31.6747 9.3444 30.3782 8.0173C32.8673 7.8739 35.0456 9.1727 36.2965 9.123C34.8324 8.4057 33.3474 7.7109 31.9563 6.9121C33.1847 6.2633 34.4389 7.3254 35.5072 7.5754C35.4966 7.1953 35.6591 7.0086 35.9017 6.9121C36.9556 8.3857 38.4372 10.5545 40.0444 10.6709C38.5733 9.8134 37.7433 8.2384 36.6907 6.9121C38.1979 7.9499 39.2536 9.4938 40.6364 10.6709C40.6259 10.2912 40.7883 10.1042 41.031 10.0077C41.1179 10.6469 41.4469 11.0151 42.0173 11.1128C41.1112 8.812 39.3503 7.469 38.8609 4.7006C40.68 5.6835 40.6656 8.7216 42.609 9.5649C41.9848 8.5548 41.5454 7.5303 41.82 6.248C41.8974 7.1693 42.754 7.4609 42.2145 8.4589C43.8019 8.9646 44.3653 10.618 45.3709 11.7758C45.3464 11.2226 44.9945 11.0833 45.5684 10.8912V11.3333C45.9529 10.6094 44.5081 9.6487 43.9898 8.4589C43.248 6.7549 42.8713 4.5269 42.2145 3.5946C43.6461 4.0561 43.594 7.352 44.9764 7.132C44.3926 6.3815 43.8135 4.4613 43.7929 3.8154C45.5795 5.498 46.1865 8.5028 48.1328 10.0065C47.9892 9.0375 48.525 10.1842 48.5273 9.5643C47.9683 9.1519 47.0957 7.9349 47.541 7.132C48.2919 8.0595 48.6805 9.3924 49.3169 10.4493C49.7274 10.0987 49.197 8.6938 50.1062 8.9016C49.9208 9.5155 49.5103 10.3484 50.1062 10.6701C50.2609 9.7895 50.9158 9.1285 50.8952 8.6803C51.2008 9.0013 51.3093 9.5424 51.2897 10.2276C51.1361 10.2764 51.06 10.4131 51.0922 10.6698C43.4955 15.641 35.0706 8.5727 26.4327 10.8912C26.064 10.7151 25.7102 10.5221 25.2489 10.4493C26.1014 12.8269 27.3902 13.8049 29.9837 13.7659C32.1509 13.733 34.4714 13.3778 35.902 15.0927C35.3566 15.5132 34.1467 15.189 33.9291 15.9774C34.3543 16.0135 35.7148 16.8704 35.3099 16.4193C35.1841 15.9707 34.3878 16.2739 34.3236 15.756C35.451 15.7456 36.3793 15.958 36.8883 16.6407C35.9804 16.7436 36.0732 16.5967 35.7047 17.3039C34.7022 17.0274 33.8809 16.5479 32.9428 16.1988C33.2154 17.021 33.8383 17.2337 33.7321 17.7464C32.4642 17.2299 31.3289 16.7106 30.1812 16.6407C30.431 17.8869 33.9193 17.4366 32.9431 18.6311C33.7968 18.9267 34.7506 19.1108 35.3104 19.7362C32.4606 19.2975 30.3955 16.7199 27.222 17.9678C29.0961 17.9978 30.6159 19.3781 31.7595 19.5154C29.559 19.5267 26.2445 17.9892 24.0656 19.5154C28.0247 18.5452 30.9161 21.657 33.7324 21.9471C33.557 21.8821 32.8686 21.3489 33.3378 21.2839C34.7651 21.9541 34.911 21.8205 35.7052 22.8315C35.9179 22.2665 34.8561 22.0575 35.508 21.726C36.9932 22.4933 37.8751 23.9372 39.0589 25.0427C38.7513 22.1448 36.2743 21.6778 34.5214 20.3995C36.2312 19.9908 37.1822 20.5056 38.6641 20.842C39.0754 19.7255 40.4155 17.9481 41.8205 19.7362C42.0193 21.7281 41.361 22.7589 41.2287 24.3794C42.6026 23.6658 42.7751 20.8206 42.8071 19.2938C44.513 19.2701 42.6941 21.8382 43.7936 22.3893C44.266 21.5827 43.821 20.4622 44.1881 19.957C44.888 20.7842 44.1652 22.5685 45.1747 22.611C45.1528 21.8676 44.7802 21.4408 45.372 21.0633C45.4996 21.8411 47.6027 21.4067 47.1475 23.0532C48.6018 23.7817 49.2491 25.4149 50.1072 26.8123C50.5435 26.4935 49.8586 26.273 50.3045 26.1487C50.7472 26.39 50.6515 27.2342 51.0938 27.4758C51.1134 23.1046 47.1243 22.0491 46.5565 19.0738C48.7772 20.1954 49.9414 22.5023 51.0938 24.8227C51.5677 23.0078 49.4768 21.0576 49.5157 19.7371C50.5422 20.355 50.7665 21.8731 51.2913 23.0537C51.9318 22.6913 52.5424 22.9344 52.4751 23.9387C52.0726 23.8734 52.0883 23.3404 51.6858 23.2754C52.6904 25.8872 50.4496 28.7813 51.8831 30.5717C51.9274 30.4 51.8885 30.1356 52.0806 30.1298C52.0816 30.5243 51.5491 31.4162 52.0806 31.6771C52.0019 31.528 52.1894 30.9046 52.2781 31.0139C53.8505 32.9583 50.5035 35.8154 50.7 37.6471C52.3964 37.1235 55.2334 33.4693 53.2641 30.3506C52.8825 30.6827 53.6094 31.2818 52.8701 31.456C52.3735 29.0714 53.2221 26.5152 52.6724 24.1595C54.5276 25.4704 53.0401 30.5283 55.04 31.6771C55.0423 30.3815 55.4299 31.0569 55.8293 31.456C55.8958 30.4988 55.6042 29.1394 56.2238 28.8024C56.4463 29.2165 56.4569 29.8679 57.2101 29.687C58.0363 26.7799 59.5893 24.6884 62.3396 23.9378C62.1911 25.323 60.2461 25.862 60.5638 27.0334C61.0209 26.514 61.2105 25.6944 62.1421 25.7068C61.7734 26.6253 59.8949 27.0143 60.5638 28.3605C61.6333 26.61 63.6005 24.6901 66.0875 25.2649C65.6928 25.9276 64.1828 25.3409 64.1149 26.3701C64.6796 26.9365 65.7472 24.9944 66.6677 25.9366L66.6783 25.9296ZM80.8835 38.9754C80.2953 39.0153 79.676 38.1257 79.503 38.9754C79.9284 39.1199 80.7288 39.8049 80.8835 38.9754ZM29.7869 75.24C27.4567 76.2862 25.2987 77.2041 24.8552 79.8832C26.4124 80.8647 28.2867 81.4913 30.1817 82.0944C31.358 84.0189 32.8745 85.5622 33.7326 87.8433C34.9038 87.6558 37.8111 86.2136 38.6644 87.8433C40.5062 86.7905 43.304 88.1534 44.9772 88.0644C47.3641 84.6226 53.1025 84.9368 54.6437 80.5468C54.1542 79.9165 53.5308 79.4361 52.8683 78.9992C53.212 78.7994 53.6277 78.5047 53.2626 78.1148C48.7218 73.4467 36.4556 72.2462 29.7849 75.24H29.7869ZM37.0868 64.1844C33.3448 67.0658 30.2449 70.6671 25.842 72.8078C26.4833 72.6419 27.0629 72.4075 27.6176 72.1445C27.6325 72.5297 27.5735 72.832 27.4203 73.0291C28.8416 71.674 31.6528 71.8763 32.5496 69.9336C31.8485 69.9584 31.8325 70.7515 30.9715 70.5968C32.4495 69.2307 34.3159 67.1238 35.9033 66.6169C34.8489 67.7201 33.3626 68.3391 32.7468 69.9336C33.3273 70.4734 33.4933 69.1327 34.3252 69.2703C34.2672 69.7212 33.7914 69.7038 33.7334 70.1547C34.5425 70.0232 35.2413 68.6111 35.9035 69.0492C34.5763 70.952 31.7709 71.1983 30.1825 72.808C33.8451 71.1639 38.6259 69.5949 39.849 65.9537C39.0197 66.6487 38.1381 68.4539 37.0871 68.1649C37.4274 67.5808 38.6773 66.8617 38.2706 66.1747C37.0231 67.2085 36.1382 68.6492 34.3252 69.0492C35.6513 67.5126 38.2582 66.236 38.4679 64.1846C38.0342 64.8101 37.078 66.0091 36.2978 65.5112C36.3597 64.9754 37.5123 64.5332 37.0868 64.1844ZM33.1416 15.0994C32.678 14.6685 30.1796 14.3829 30.1825 14.8777C31.5955 14.661 32.1396 15.4297 33.1427 15.1003L33.1416 15.0994ZM36.4963 71.0396C36.551 71.6344 35.0299 71.5835 35.707 72.1451C36.5786 71.4277 37.964 70.7544 39.0607 71.4818C40.3371 70.3269 42.2555 69.3345 43.7954 68.3862C44.4411 67.9886 45.5708 67.3123 45.3735 66.3961C44.701 67.414 42.8076 68.2333 41.8226 68.1651C42.1026 67.4472 43.2795 67.7342 43.2034 66.6175C42.386 66.8129 41.5892 68.1906 40.836 67.723C41.2764 67.1111 42.0742 66.8996 42.4144 66.1753C39.1922 67.2074 37.7498 70.2339 34.7205 71.4821C35.5405 71.5928 35.5894 70.8356 36.4945 71.0396H36.4963ZM36.6923 63.522C37.0412 62.361 37.7459 60.4325 37.2841 59.0996C37.3251 59.7351 37.234 60.2229 36.8895 60.4261C36.8823 59.6235 37.0002 58.6805 36.495 58.4363C36.2163 60.4536 36.4674 63.4867 35.1142 64.8485C36.4037 65.1465 36.2588 62.0347 36.8895 60.8686C37.1964 61.9654 36.2887 63.7572 36.6936 63.5237L36.6923 63.522ZM38.2704 54.6763C37.2766 55.4049 36.8594 56.78 36.495 58.214C37.1809 57.1418 37.56 55.7228 38.2691 54.6766L38.2704 54.6763ZM41.0346 52.4654C39.2917 54.8769 37.7327 59.2059 39.4562 61.9732C39.564 60.9677 39.3546 60.3177 38.8645 59.9831C39.6571 55.8592 42.3419 52.6784 44.3882 50.6964C43.7668 50.8088 42.0662 52.5041 42.4156 51.5808C41.4812 51.6663 41.6343 52.4796 41.4291 52.9073C41.4085 52.6385 41.3724 52.3842 41.0371 52.4651L41.0346 52.4654ZM40.836 26.1542C40.2736 26.4117 40.2698 24.4551 40.0467 25.7123C40.5132 31.4546 41.049 38.2977 46.1623 38.0945C42.0366 36.7478 41.6601 31.1988 40.835 26.1556L40.836 26.1542ZM43.0046 38.0931C41.3004 38.087 41.5351 35.9076 40.2427 35.4394C40.5856 36.8295 41.687 38.5382 43.0046 38.0931ZM47.3469 66.1753C46.0532 68.8536 41.3871 68.9287 40.8368 71.7029C40.9162 71.3474 41.9943 71.7113 42.2176 71.924C41.8994 72.4517 40.4794 71.7448 40.442 72.5872C42.6529 72.7794 45.3395 72.828 47.1494 73.0294C45.7185 71.8855 43.6265 72.4 42.6119 71.7026C43.7116 70.9373 46.5813 72.2974 47.5439 71.4815C46.9622 71.2104 45.9591 71.5381 45.3738 70.8182C47.0292 70.6148 49.0294 71.261 50.7003 71.7026C50.7962 72.6211 49.5629 72.0494 49.5165 72.8083C52.6754 73.395 55.2434 74.6444 58.1966 75.4617C57.79 75.5955 56.8264 75.1051 57.0131 75.9039C61.0354 76.1296 63.3432 75.1438 65.2988 73.4716C63.4827 74.1282 60.9802 76.2443 58.5909 74.7984C59.7427 74.5814 61.3316 74.7822 62.3391 73.9138C58.8544 74.6161 54.7347 74.2707 52.2778 72.1448C53.8492 72.376 55.5379 73.6473 57.0123 73.2502C56.8135 73.2476 56.764 72.8627 57.0123 72.808C58.4682 73.1918 60.0241 72.3566 60.7608 71.2604C61.3925 71.5058 63.1036 71.8956 62.9309 70.5971C60.9856 70.196 58.8671 68.8148 58.1959 67.7227C60.5589 67.8339 62.7243 71.2431 64.7062 69.0492C61.3035 68.3831 57.6987 66.1852 57.2098 61.5316C55.9623 61.4553 54.9399 61.1275 54.4479 60.205C55.3177 60.7752 56.6962 60.7168 57.4071 59.5417C56.6106 59.2386 56.7088 59.9383 56.4208 60.205C55.5753 59.9331 54.3523 60.0296 53.2646 59.5417C52.5107 59.955 52.3784 62.2275 51.6863 61.974C51.7951 61.4197 52.6079 60.5177 52.2784 60.205C51.6492 60.7527 51.6987 62.061 50.8975 62.4159C50.8429 61.316 52.159 60.5958 51.6871 59.7625C51.1074 61.694 49.477 63.622 49.7145 65.7326C50.0304 64.9751 50.2405 62.9399 50.8981 63.3003C50.001 65.3904 49.3349 67.7389 48.3337 69.7125C47.8185 69.6264 47.2515 69.5989 46.9529 69.2703C47.8569 69.0989 48.8767 67.8964 48.5312 67.0591C47.9056 67.9241 46.6852 69.9151 45.5718 68.8281C46.2371 68.1701 47.6501 67.1834 47.3458 66.1721L47.3469 66.1753ZM40.6375 64.4063C40.7563 62.0154 42.3151 60.1203 41.821 57.773C42.5399 55.0408 44.9442 54.198 45.9637 51.803C41.2837 52.1989 40.358 58.6785 40.6364 64.4057L40.6375 64.4063ZM45.3743 60.4276C43.9401 60.6345 43.6755 59.5311 42.8096 59.101C42.6292 60.8151 42.1122 62.1521 41.4288 63.3023C42.8393 62.4486 44.5334 61.9151 45.3766 60.4276H45.3743ZM42.6126 30.576C43.3003 30.7425 44.4032 30.0957 45.1773 29.6911C44.4989 29.0128 42.7413 27.3137 42.0209 28.1437C42.6475 28.4674 42.2581 29.9356 42.6114 30.5743L42.6126 30.576ZM43.9922 63.7425V64.4057C45.7794 64.0792 47.9417 63.7508 48.5297 61.5313C50.6608 60.7536 51.092 54.3006 49.1214 52.9079C49.624 56.2702 49.7431 59.6238 47.5434 61.3102C47.5127 61.0501 47.5771 60.6825 47.3461 60.6469C46.6102 61.5174 46.0424 62.5763 44.9787 63.0792C45.0259 62.7636 45.3036 62.7061 45.3732 62.4159C44.1879 62.9301 43.0371 63.4826 42.2168 64.406C42.9878 64.3884 43.4468 64.0164 43.9909 63.7428L43.9922 63.7425ZM48.9249 38.0925C50.1549 37.4073 49.7684 34.91 50.7005 33.8915C51.0205 29.9555 47.4572 24.5904 43.7959 25.9314C48.1331 26.8996 50.3044 32.1274 48.9249 38.0925ZM47.5428 30.798C46.8069 29.3356 45.8547 26.9435 43.9919 27.4807C45.4668 28.2582 46.4753 29.5611 47.5428 30.798ZM50.3045 14.6569C48.0181 14.7471 46.3219 15.4997 44.5834 16.2046C46.8551 16.0947 48.6318 15.4358 50.3052 14.6584L50.3045 14.6569ZM47.7414 55.7826C47.4946 54.8275 47.5354 53.1093 46.9518 52.466C46.7979 53.7674 45.4142 53.6905 44.9792 54.6769C46.3536 54.3937 47.0627 56.0208 47.7409 55.7838L47.7414 55.7826ZM47.3469 37.6503C46.9088 36.581 47.6225 35.4215 47.1496 34.1126C46.9482 35.214 45.8397 35.2981 45.3738 36.103C45.9591 36.6983 46.6501 37.1781 47.3464 37.6492L47.3469 37.6503ZM51.0935 73.9149C49.8607 73.8187 49.1057 72.0199 47.7398 72.8095C49.0936 72.7719 49.9677 74.4366 51.0945 73.9149H51.0935ZM48.7264 64.6283C48.2677 64.8624 47.6591 66.0713 47.9368 66.3973C48.1122 65.7097 48.5975 65.3673 48.7264 64.6283ZM48.9249 57.7753C49.2955 55.8202 49.0059 53.281 48.1354 51.5842C47.514 52.8963 48.6671 55.9776 48.9249 57.7753ZM47.9374 34.779C48.1462 35.6793 47.8819 35.8267 47.9374 36.9902C48.6619 36.7879 48.7599 34.886 47.9374 34.779ZM57.8003 56.2263C57.3888 55.0428 57.5187 55.1171 57.4058 54.0154C56.8929 52.9983 56.485 54.2703 56.2222 54.2364C56.0593 54.2153 56.0949 53.5162 56.2222 53.5732C55.7865 53.3787 55.0353 53.718 54.4467 53.5732C52.9212 53.1978 52.1479 51.5782 51.4873 50.4776C50.823 50.6175 49.6552 50.1927 49.3171 50.6987C50.7513 52.2605 52.0659 53.9564 51.6848 57.5531C52.4302 57.6516 51.9692 56.3979 52.4741 56.2265C52.4444 56.7757 52.5762 57.1441 52.8686 57.332C52.8869 56.9846 52.842 56.5656 53.2626 56.6687C53.2966 56.9996 53.1927 57.4846 53.4604 57.5531C53.8763 56.9673 55.7375 57.41 56.4195 57.332C56.6758 56.7838 55.9793 56.2592 56.4195 56.2265C57.3643 56.0138 56.3169 57.2202 56.814 57.1112C57.1905 56.2124 57.077 56.4118 57.8016 56.2211L57.8003 56.2263ZM55.2372 32.7878C53.7316 34.0484 53.71 36.9723 51.6863 37.6523V38.3156C53.5042 37.4891 56.895 35.362 55.237 32.7898L55.2372 32.7878ZM54.2522 52.6888C57.6214 53.5032 57.5404 50.3201 59.3815 48.7089C59.7814 48.3589 60.3902 48.3202 60.762 48.0456C62.3048 46.9075 62.737 45.4032 62.9322 44.2868C62.1135 42.6981 60.6692 41.8117 59.1837 40.9699C58.4568 39.5 57.9197 37.8174 56.6196 36.9899C54.7821 36.7547 53.4181 37.3498 53.6599 38.9798C55.1503 36.8911 57.9883 38.9136 58.1977 40.9701C59.637 42.5166 62.771 43.1259 61.9456 46.4977C61.0702 47.2095 59.6721 47.0529 58.3947 48.2667C57.0002 49.5921 57.0992 51.4747 55.435 51.5834C53.925 51.6819 53.4392 50.1872 52.2789 49.1511C51.1391 50.7377 53.329 52.4663 54.2522 52.6888ZM55.0387 59.099C54.7117 58.3597 53.712 58.3747 52.8688 58.2146C52.8211 58.5302 52.5437 58.5877 52.4743 58.8779C53.4542 58.8114 54.2845 58.9126 55.0374 59.0975L55.0387 59.099ZM56.8153 75.684C55.8285 75.4935 53.8105 74.2476 53.2644 75.0207C54.5975 74.9291 55.7787 76.1758 56.8153 75.684ZM55.0387 77.6741C58.3449 78.1706 61.7504 77.794 63.9164 75.905C63.9932 75.6649 64.1531 75.3741 63.9164 75.684C61.2527 77.335 57.5221 76.9478 54.2502 77.0105C54.7453 76.9732 54.8685 77.3501 55.0387 77.6741ZM55.8303 79.6639C55.977 80.1624 56.9368 79.7503 57.4084 79.885C58.5097 80.2896 69.0206 85.0218 67.0751 79.885C63.116 78.9093 58.6902 78.3165 55.041 79.6639H55.4353C55.6544 79.6864 55.7426 79.3425 55.8303 79.6639ZM69.6385 9.1288C66.7884 7.1549 63.8174 9.5918 60.9583 10.2342C59.6381 10.531 58.0038 9.8669 57.2101 11.34C60.0465 10.1464 68.0372 14.1113 69.6385 9.1288ZM67.6659 17.7528C65.8029 15.3005 61.5031 12.4428 57.9994 13.9939C62.2153 13.9853 65.2322 16.5025 67.6664 17.7539L67.6659 17.7528ZM60.17 51.5811C60.1027 52.0747 58.6693 52.9657 59.1835 52.6865C59.6992 52.6605 60.6893 52.0333 60.171 51.5796L60.17 51.5811ZM60.5645 37.8734C60.1043 37.2053 59.6767 35.3386 58.9865 35.6625C59.7291 36.0151 59.8941 38.174 60.5645 37.8734ZM59.1824 57.5519C60.6187 57.0982 61.7455 56.2974 61.9443 54.4564C61.2102 54.6656 61.3974 55.9072 60.5638 56.004C60.5331 55.7439 60.5978 55.3766 60.3665 55.3407C60.5372 56.343 59.3812 55.8578 59.3802 56.6673C59.9998 57.0352 60.1863 55.8451 60.3665 56.4462C60.1138 56.978 59.1881 56.7496 59.1804 57.5531L59.1824 57.5519ZM61.3536 50.0349C61.5601 51.8065 60.007 52.3567 59.1835 53.5726C60.4469 53.142 61.9425 51.8039 61.3546 50.0352L61.3536 50.0349ZM59.5769 29.6917C59.4705 28.9087 60.2757 29.148 60.169 28.3651C59.6791 28.5009 58.6925 29.3477 59.5769 29.6917ZM70.2289 67.9446C68.3541 69.014 67.1862 72.0511 64.7049 71.7035C65.3031 71.1893 67.0336 70.7833 66.6775 69.9347C65.1657 71.778 62.0098 71.7789 60.3647 73.4725C65.0087 73.1491 68.3453 71.363 70.2277 67.9446H70.2289ZM65.4947 52.6885C66.7319 49.1173 66.8521 42.9556 65.4947 39.4219C64.9403 39.0896 64.3991 39.5766 63.5221 38.9798C63.5059 38.5676 63.9099 37.7688 64.1139 36.9899C63.2785 35.2738 61.9683 34.0883 60.366 33.2308C61.0805 36.1151 62.4358 38.2815 63.7196 40.5271C63.5972 44.5827 63.8001 48.0306 64.7057 51.362C64.1975 51.603 63.7578 51.9209 63.5221 52.4677C65.0497 54.8214 61.2958 57.0508 61.5498 59.3221C62.5913 57.6149 64.2194 56.565 64.7057 54.2364C64.2207 53.9116 63.9922 52.0174 64.9035 52.0255M64.313 34.7776C63.6093 34.4548 62.8806 33.0008 62.1429 33.4511C63.0892 33.4973 63.6813 35.7978 64.313 34.7776ZM65.4965 55.3405C64.3377 55.7367 64.2189 57.2988 63.3264 57.9938C64.3243 57.4158 65.1752 56.6731 65.4976 55.3407L65.4965 55.3405ZM69.4443 38.7572C69.0485 35.0397 65.9612 36.0247 64.3148 37.8726C65.5061 38.7107 68.2453 36.9452 69.4443 38.7572ZM68.2582 34.5551C67.8077 35.0166 68.6542 35.6221 68.8502 35.8816C73.1685 41.6005 72.7435 54.6864 66.6801 57.7716C75.0526 55.63 74.9289 38.7862 68.2582 34.5551ZM67.8636 40.9681C68.475 40.8427 69.3636 41.0285 69.442 40.3049C68.8347 39.4604 67.4023 40.8441 66.6798 39.6416C67.7357 43.1865 67.0867 48.9982 66.8771 52.2449C68.1792 49.3057 68.5016 44.8868 67.8621 40.9678L67.8636 40.9681ZM68.0622 52.2452C68.8118 52.1015 68.8107 51.9972 69.6403 52.2452C69.4953 51.4808 71.0659 49.8875 69.6403 49.1496C69.9896 49.0993 70.6284 49.3725 70.4296 48.7075C69.812 48.256 69.2612 48.7442 68.654 48.7075C68.7966 49.3831 68.4523 49.5132 68.4567 50.034C69.0529 50.2392 69.9907 49.7181 70.0345 50.034C70.09 50.538 69.9868 50.8652 69.6403 50.9186C69.1648 51.0091 69.2114 50.5149 68.654 50.6976C68.7135 51.2134 69.075 51.6501 68.4567 51.803C67.9072 51.4744 68.8731 50.8152 68.0622 50.9186C68.2221 51.6816 67.6935 51.8521 68.0622 52.2452ZM70.2307 43.179C70.3001 42.2903 70.2274 41.5609 69.6387 41.41C69.6978 41.9929 69.3651 42.1357 68.8494 42.0733C68.8494 42.4418 68.8492 42.8108 68.8494 43.179C69.3136 43.1761 69.7725 43.1761 70.2315 43.1761L70.2307 43.179ZM70.4293 47.8234C70.5097 47.3803 70.9179 46.1833 70.4293 45.8333C70.558 46.7145 69.6795 46.4665 69.0485 46.4965C68.9317 47.202 69.419 47.1803 69.0485 47.602C69.5719 47.6049 70.1727 47.5182 70.428 47.8245L70.4293 47.8234ZM70.8238 44.9478C70.6905 44.3602 70.5131 43.8218 70.232 43.4001C70.4125 44.34 69.7589 44.3449 69.0482 44.2851V45.3905C69.8734 45.5061 70.3865 45.2691 70.8248 44.9512L70.8238 44.9478ZM82.4634 46.4968C81.7904 47.2899 79.7492 46.5503 79.1097 47.3815C80.3345 47.3468 82.7171 47.448 82.4644 46.4971L82.4634 46.4968ZM81.0813 41.4103C81.0818 40.8054 79.7631 40.5494 79.5035 40.9681C80.2152 40.9074 80.4547 41.3756 81.0813 41.4103ZM83.8429 40.3063C82.8564 39.7881 81.8525 38.1197 80.6868 38.5379C82.0018 38.6881 82.9817 40.3814 83.8429 40.3063ZM82.6594 40.3063C82.1774 39.8887 81.7035 39.4615 81.081 39.2011C81.2615 39.8167 82.3909 40.519 82.6591 40.3051L82.6594 40.3063ZM84.2374 48.7077C83.2483 48.8173 81.9353 48.7309 81.6733 49.1499C82.5758 49.0574 83.9022 49.4331 84.2374 48.7077ZM85.225 42.9565C84.3914 42.6334 83.3507 41.3788 82.4631 41.8513C83.2831 42.0883 85.1706 43.3166 85.2248 42.9553L85.225 42.9565ZM85.421 46.2743C84.7065 46.3992 83.7857 45.618 83.2509 46.2743C84.1379 45.9593 84.9414 46.8725 85.421 46.2743Z" fill="black"/>
<path d="M8.28516 27.039C8.33286 26.65 8.62449 26.535 9.07445 26.5968C8.98962 26.9436 8.45405 26.7855 8.67993 27.4817C10.0195 26.8745 10.0195 27.4026 8.67993 27.7031C8.51001 27.5239 8.56235 27.0968 8.28516 27.039Z" fill="#F1C485"/>
<path d="M10.4548 27.0362C9.92831 26.6437 11.6874 26.961 11.2439 25.9307C11.8563 26.4992 12.4999 25.1796 13.0195 26.1518C12.3877 26.7009 11.2807 26.7125 10.4548 27.0391V27.0362Z" fill="#F1C485"/>
<path d="M13.2188 26.375C14.4651 25.0519 15.0343 26.2944 16.9669 25.0479C17.0654 27.042 19.8663 24.7791 20.3206 26.375C17.9164 26.0831 15.4999 25.7016 13.2188 26.375Z" fill="#F1C485"/>
<path d="M23.0828 58.2097C22.8517 58.2455 22.9165 58.6129 22.8855 58.873C22.771 59.6322 22.3943 57.258 22.2937 58.6519C21.3061 58.1025 22.3394 56.8678 22.8855 56.6618C23.3236 56.7537 23.0748 57.8742 22.6883 57.7672C23.0928 57.9773 23.3868 58.3108 23.4775 58.8727C23.3927 59.4276 23.0523 58.5056 23.0828 58.208V58.2097Z" fill="#F1C485"/>
<path d="M64.116 26.3719C64.184 25.3425 65.6933 25.9292 66.0883 25.2662C63.601 24.6916 61.6346 26.6112 60.5645 28.362C59.8957 27.0164 61.7739 26.6265 62.1429 25.7086C61.2112 25.6962 61.0215 26.5158 60.5645 27.0352C60.2471 25.8633 62.1921 25.3243 62.3401 23.9396C59.5898 24.6899 58.037 26.7817 57.2109 29.6886C56.4577 29.8695 56.4471 29.2181 56.2246 28.8042C55.6052 29.1412 55.8963 30.4998 55.8303 31.4576C55.4306 31.0587 55.0431 30.3825 55.0408 31.6787C53.0408 30.5299 54.5287 25.4719 52.6734 24.161C53.2229 26.5164 52.3743 29.073 52.8709 31.4576C53.6102 31.283 52.8833 30.6839 53.2652 30.3521C55.2341 33.4708 52.3972 37.1253 50.7008 37.6487C50.5043 35.817 53.8513 32.9593 52.2789 31.0154C52.1904 30.9061 52.0032 31.5295 52.0816 31.6787C51.5499 31.4174 52.0821 30.5261 52.0816 30.131C51.8898 30.1371 51.9282 30.4021 51.8838 30.5735C50.4502 28.7831 52.6912 25.889 51.6866 23.2766C52.0891 23.342 52.0734 23.8749 52.4759 23.9399C52.5434 22.9359 51.9331 22.6934 51.2921 23.0553C50.7673 21.8747 50.5435 20.3565 49.5165 19.7383C49.478 21.0585 51.5682 23.0087 51.0948 24.8243C49.9419 22.5044 48.7785 20.1973 46.5571 19.0751C47.1251 22.051 51.1139 23.1064 51.0948 27.4771C50.6521 27.236 50.7477 26.3916 50.3052 26.1502C49.8594 26.2742 50.5448 26.4953 50.108 26.8138C49.2504 25.4167 48.6026 23.7839 47.1486 23.0547C47.604 21.4085 45.5004 21.8432 45.3727 21.0649C44.781 21.4429 45.1536 21.8695 45.1755 22.6122C44.166 22.57 44.889 20.7863 44.1889 19.9586C43.822 20.4637 44.2668 21.5842 43.7944 22.3908C42.6952 21.84 44.5141 19.2716 42.8078 19.2953C42.7759 20.8215 42.6034 23.6674 41.2295 24.3812C41.3621 22.7608 42.0201 21.729 41.8213 19.738C40.4162 17.9497 39.0762 19.7271 38.6649 20.8432C37.1827 20.5068 36.2315 19.9924 34.5222 20.4013C36.2748 21.6799 38.752 22.1461 39.0597 25.0445C37.8758 23.9393 36.994 22.4955 35.5087 21.7276C34.8569 22.0588 35.9187 22.268 35.706 22.8327C34.9118 21.8224 34.7659 21.9556 33.3386 21.2854C32.8696 21.3507 33.5581 21.8836 33.7331 21.9489C30.9171 21.6585 28.0258 18.5465 24.0664 19.5167C26.2453 17.9904 29.5598 19.5285 31.7603 19.5167C30.6167 19.3791 29.0969 17.9994 27.2228 17.9693C30.3962 16.7223 32.4614 19.2996 35.3112 19.738C34.7514 19.1126 33.7976 18.9285 32.9438 18.6326C33.9201 17.4384 30.4318 17.8887 30.182 16.6425C31.3299 16.7124 32.465 17.2312 33.7329 17.7477C33.8394 17.2352 33.2161 17.022 32.9436 16.2003C33.8817 16.5494 34.7029 17.0286 35.7055 17.3058C36.074 16.5983 35.9811 16.7457 36.889 16.6425C36.38 15.9601 35.4517 15.7471 34.3244 15.7576C34.3886 16.2755 35.1849 15.9723 35.3107 16.4211C35.7153 16.8722 34.3551 16.0153 33.9299 15.9792C34.1475 15.1905 35.3574 15.5154 35.9027 15.0943C34.4722 13.3796 32.1517 13.7345 29.9844 13.7674C27.3909 13.807 26.1022 12.8285 25.2497 10.4505C25.711 10.5233 26.0648 10.7164 26.4335 10.8927C35.0714 8.57456 43.4963 15.6431 51.0933 10.6713C51.061 10.4141 51.1366 10.278 51.2905 10.2291C51.3098 9.54386 51.201 9.00287 50.896 8.68147C50.9166 9.13027 50.2617 9.79126 50.107 10.6719C49.5108 10.3499 49.9213 9.51696 50.107 8.90316C49.1983 8.69506 49.7284 10.1008 49.3174 10.4505C48.6813 9.39446 48.2927 8.06096 47.5418 7.13356C47.0962 7.93616 47.9691 9.15366 48.5281 9.56586C48.5255 10.1861 47.9897 9.03986 48.1336 10.0077C46.1873 8.50426 45.5806 5.49916 43.7936 3.81656C43.8143 4.46226 44.3937 6.38326 44.9772 7.13356C43.5948 7.35376 43.6469 4.05706 42.2153 3.59606C42.8721 4.52876 43.2488 6.75607 43.9906 8.46037C44.5087 9.65027 45.9537 10.6109 45.569 11.3349V10.8927C44.9952 11.0849 45.3475 11.2239 45.3717 11.7771C44.3661 10.6199 43.8027 8.96617 42.2153 8.46037C42.7547 7.46217 41.8984 7.17026 41.8208 6.24976C41.5462 7.53176 41.9855 8.55576 42.6098 9.56636C40.6664 8.72306 40.6808 5.68476 38.8616 4.70216C39.351 7.46996 41.1122 8.81326 42.018 11.1147C41.4477 11.017 41.1186 10.6485 41.0317 10.0092C40.7891 10.1057 40.6266 10.2921 40.6372 10.6725C39.2543 9.49526 38.1987 7.95146 36.6915 6.91326C37.7441 8.23986 38.5744 9.81526 40.0452 10.6725C38.438 10.556 36.9563 8.38726 35.9025 6.91326C35.6598 7.01016 35.4974 7.19656 35.508 7.57686C34.4397 7.32686 33.1855 6.26476 31.957 6.91326C33.3482 7.71296 34.8329 8.40716 36.2973 9.12426C35.0464 9.17446 32.868 7.87566 30.379 8.01906C31.6752 9.34616 33.9944 8.49246 35.5082 9.78806C31.9916 9.44326 28.2272 8.69826 25.2497 9.34556C28.1936 7.85486 31.7675 7.06906 32.7463 3.37586C33.5965 3.22356 33.958 2.52276 34.7192 2.27046C37.7926 3.30476 41.2215 3.22156 44.1884 2.93366C44.898 2.84436 44.8895 1.95076 45.5692 1.82826C46.3255 2.34176 44.8276 2.15047 44.9774 2.71317C45.6247 3.32677 46.2453 3.19146 47.5421 3.37646C48.4959 3.88136 48.7839 5.82496 50.304 6.91416C51.4646 7.74596 52.9895 7.45836 53.2634 8.90426C53.4351 9.81116 53.0383 10.3936 52.6716 11.3366C48.0266 13.125 42.8393 14.7605 37.2838 13.3267C37.3039 13.894 38.019 13.6819 38.2701 13.99C37.831 14.251 36.2753 13.8752 35.5082 13.7686C37.2196 14.9463 39.1894 15.8339 42.0186 15.7587C41.5211 14.8423 39.9593 15.1186 39.0594 14.6533C41.1485 14.3498 44.4481 15.9081 46.556 14.4322C45.2799 15.5434 43.0105 16.1899 40.2432 16.2009C46.3276 18.793 50.8279 13.6669 56.2228 14.4322C56.7815 14.3952 57.0448 14.0273 57.6033 13.99C58.8454 15.2506 61.1205 15.355 62.9301 15.9804C60.3879 16.5815 56.3115 14.3631 53.2631 15.7587C54.4562 16.3642 55.9203 15.4654 56.4198 15.9804C56.5355 17.2893 54.5127 16.2012 54.0521 16.8647C56.9595 17.6546 60.3972 15.4489 63.5219 17.0864C62.8311 17.7864 60.5671 16.7225 60.168 17.7497C62.2904 18.089 65.5883 17.2777 67.4673 18.8548C65.8506 18.9288 62.6516 18.5239 59.971 18.6338C58.9898 18.6742 57.97 18.8947 57.2091 19.0759C58.0646 19.0979 58.9137 19.5811 60.1685 19.0759C60.2409 19.4519 60.0145 19.493 59.7742 19.5178C59.8186 19.8366 60.3629 19.5953 60.366 19.9597C63.289 18.6433 68.4536 19.1632 69.6377 21.7287C68.0091 20.3649 64.4795 19.9565 61.7465 20.1811C64.6776 21.0972 67.8804 21.7085 70.4267 23.0553C71.3127 24.7763 72.4426 26.0427 73.9776 27.4779C73.6099 27.4138 70.9236 26.2078 69.6374 25.7089C71.683 27.8386 75.5196 27.9606 76.7395 31.0154C74.926 30.6773 73.0641 27.3372 70.4267 27.9198C70.3293 28.6187 71.4058 28.0019 71.216 28.8045C70.8976 28.8666 70.8767 28.5952 70.6242 28.5831C70.7251 29.2811 71.5252 29.1949 72.0048 29.4678C71.9543 29.9854 71.1384 29.5949 71.0185 29.4678C71.9976 30.6553 74.2819 30.3799 75.7532 31.0154C76.319 31.5602 76.6619 32.3555 77.5286 32.563C75.9343 32.2841 73.4761 31.0628 71.6108 30.3521C72.4875 33.7907 77.0595 33.0899 79.1069 35.2164C77.5853 35.0901 74.882 33.9714 73.3856 33.8899C73.7234 34.2485 74.1037 34.5589 74.7664 34.5531C74.7056 34.8531 74.2726 34.7366 73.9771 34.7742C75.6808 36.2216 78.2635 35.6774 80.0929 37.2065C78.9365 37.3207 77.1531 36.2291 75.5555 36.1013C76.2635 37.5926 79.0381 36.7678 79.3034 38.7547C78.3197 38.7521 78.0373 37.9631 76.936 38.0912C78.2844 39.455 80.9689 39.3206 82.2625 40.7448C81.0431 40.785 79.6035 39.8287 78.3166 39.6397C78.1399 40.3532 78.9602 39.9501 79.1061 40.3029C78.9612 40.6963 78.7472 40.3344 78.5144 40.3029C79.2552 41.8309 81.3631 41.8266 82.8543 42.5135C81.0246 42.9271 78.0497 40.8344 75.9497 40.0815C77.9961 42.1367 80.6788 43.4783 84.0381 44.0615C82.5552 44.8262 80.2219 43.541 78.9084 42.7349C78.5538 43.6103 77.7936 42.7971 77.133 42.7349C79.0236 45.0247 83.2058 44.4086 85.8135 45.388C83.4489 45.3831 79.6719 45.0493 77.5273 44.0615C78.2467 45.5131 80.6695 45.308 81.8675 45.6088H83.0513C83.6761 45.9571 79.9795 45.9571 79.3031 45.6088C79.2745 46.2305 79.7861 46.2466 80.2892 46.2724C79.6827 46.9374 78.6745 46.1767 78.1193 46.051C77.624 46.1452 78.3086 46.6831 78.7114 46.4932C77.9156 47.1521 76.0402 45.7935 75.5547 46.7146C78.1304 48.3061 80.2572 47.5637 83.8404 48.0411C82.7708 48.7824 81.2242 48.1844 80.0924 49.1468C80.1401 49.7168 80.4318 48.8431 80.8817 49.1468C80.9421 49.6566 80.3116 49.3925 80.2897 49.8101C79.8689 49.9133 79.914 49.4942 79.8957 49.1468C78.9543 48.976 78.6255 49.4925 77.7256 49.3679C78.0675 50.2393 78.7194 49.065 79.5012 49.589C78.8346 50.0214 77.8772 50.1277 76.9365 50.2523C77.0157 51.0054 77.5438 50.6167 76.9365 51.1367C78.7235 51.5892 80.3745 49.9798 82.2631 49.8101C82.1091 50.4482 81.3087 50.3621 80.8825 50.6948C80.914 50.9537 81.2422 50.8812 81.4743 50.9158C80.9284 52.0901 78.601 52.1395 78.7124 53.3481C76.5877 53.9146 74.4676 54.4871 73.5829 56.4437C75.1651 55.8587 75.861 54.2799 77.9228 54.2325C75.9608 55.7923 73.8284 57.161 71.807 58.6549C73.8376 59.0763 76.2919 56.7703 78.1198 55.5593C76.8079 57.4801 73.7768 59.3881 71.2152 60.6447C71.4166 61.1375 72.1226 60.3557 72.7936 60.6447C73.4759 59.2719 75.3659 59.2528 76.1472 57.9913C76.3497 58.5217 75.1648 59.3895 74.3719 59.539C74.236 60.1334 74.7793 59.9664 74.9637 60.2022C74.7035 60.6479 74.3157 60.9502 73.7796 61.0866C73.8173 60.9074 73.9777 60.8661 73.9771 60.6444C73.0324 61.649 71.1433 61.5955 70.6235 63.0767C71.4721 63.4319 72.4269 62.0074 73.5829 61.9712C73.4382 63.1359 72.1587 63.0279 71.6103 63.7403C69.2785 70.2337 58.9473 68.8459 58.3926 61.308C59.0313 61.0349 58.5432 62.0236 59.1819 61.7501C59.4032 67.0083 66.8044 68.6716 69.8347 65.0668C69.7818 64.2706 70.199 64.0009 70.2292 63.2978C69.5977 63.327 69.3613 63.7989 69.4399 64.6243C67.7105 65.5919 65.2413 65.72 63.3238 64.8454C63.1784 63.7377 64.0505 65.1396 64.1131 64.4032C63.723 64.0298 62.8824 64.1619 62.3375 63.9611C64.4128 63.3992 67.431 65.0431 69.0451 63.2978C67.5885 62.9909 63.2571 64.6503 61.549 62.6345C63.9404 62.7897 67.0145 64.148 67.8616 61.308C66.3722 62.3285 64.7212 62.3374 62.5353 62.1923C62.4433 61.7207 62.8172 61.7712 63.1271 61.7501C62.8081 60.9508 62.1777 61.7817 61.7463 61.308C61.7912 60.9895 62.335 61.2308 62.3381 60.8658C62.3136 60.3777 61.5016 60.7719 61.1545 60.6447C67.2046 59.2447 72.6291 57.1437 73.3856 49.8104C73.8856 49.1913 74.1159 48.27 74.5697 47.5992C74.6481 40.3018 71.9014 34.6187 66.4813 32.7847C66.5298 32.5448 66.8735 32.6347 66.8758 32.3431C65.9723 31.2911 63.9246 31.5235 62.7331 30.7955C63.7276 30.2027 65.3761 30.7764 66.4813 30.7955C65.7688 29.1863 62.4417 29.9562 61.5495 30.7955C61.0408 30.0669 62.9077 30.1148 62.7331 29.0264C64.6735 29.6117 64.3101 27.6334 66.284 27.6999C64.477 26.9306 62.96 28.3941 61.7463 29.0264C62.7723 27.3022 65.1722 27.1176 66.6783 25.9309C65.7913 24.9627 64.7237 26.9048 64.1487 26.35L64.116 26.3719ZM78.5172 42.9523C78.3604 42.2355 77.0451 41.6656 76.5443 42.0676C77.0962 42.4809 77.8313 42.6893 78.5172 42.9523ZM72.4009 37.2039C72.7729 36.7609 72.1587 36.1762 71.6116 36.0987C71.7224 36.6392 72.0757 36.9051 72.4006 37.2027L72.4009 37.2039ZM40.6383 9.56616C39.8412 9.13286 39.7177 7.94476 38.8627 7.57596C39.2262 8.33896 40.0565 10.4777 40.6393 9.56726L40.6383 9.56616ZM49.1217 8.45916C49.0263 7.61506 49.1779 7.04767 49.5162 6.69077C48.9814 6.55267 49.0253 5.76686 48.3327 5.80586C48.6653 6.61506 48.4332 8.05456 49.1217 8.45916ZM56.223 26.1494C56.467 25.5387 56.7988 25.0263 56.8148 24.1596C56.427 24.2257 56.4236 23.861 56.223 23.7177C56.1328 24.3853 55.4623 25.891 56.223 26.1511V26.1494ZM57.2106 29.2446C57.0809 28.4354 57.6371 28.3958 57.6049 27.697C57.2341 27.3069 56.6918 27.9724 56.4213 28.3603C56.9293 28.3805 56.7026 29.2244 57.2106 29.2446ZM57.2106 26.1494C57.3223 25.6893 57.7743 25.4347 57.4079 25.0442C56.7942 24.9575 56.6034 26.1078 57.2093 26.1482L57.2106 26.1494ZM58.5927 20.6207C58.8712 19.9149 57.4123 20.0614 57.4089 20.399C57.641 20.6562 58.1053 20.6496 58.5927 20.6207ZM70.2297 25.4876C70.5159 25.3667 71.2493 25.7462 71.216 25.2662C70.9631 25.1555 70.0363 24.7067 70.0319 25.0448C70.1892 25.0939 70.264 25.2298 70.2305 25.4899L70.2297 25.4876Z" fill="#EE3224"/>
<path d="M36.2994 65.5055C37.0794 66.0035 38.0357 64.8041 38.4696 64.179C38.26 66.2303 35.6531 67.5069 34.3269 69.0435C36.1402 68.6435 37.0249 67.2028 38.2724 66.1691C38.679 66.8557 37.4288 67.5748 37.0887 68.1592C38.1397 68.4482 39.0214 66.643 39.8507 65.948C38.6277 69.5895 33.8468 71.1582 30.1842 72.8023C31.7726 71.1923 34.5781 70.9463 35.9053 69.0435C35.2433 68.6054 34.5445 70.0175 33.7351 70.149C33.7931 69.6981 34.2689 69.7155 34.3269 69.2646C33.4951 69.1273 33.329 70.4677 32.7486 69.9279C33.3646 68.3334 34.8505 67.7144 35.9049 66.6112C34.3175 67.1182 32.4513 69.225 30.9733 70.5912C31.8342 70.7458 31.8502 69.953 32.5513 69.9279C31.6545 71.8706 28.8434 71.668 27.4221 73.0234C27.5752 72.8266 27.6343 72.524 27.6193 72.1388C27.065 72.4018 26.485 72.6365 25.8438 72.8021C30.2466 70.6614 33.3466 67.0601 37.0886 64.1787C37.5166 64.5278 36.364 64.97 36.3021 65.5055H36.2994Z" fill="#EE3224"/>
<path d="M26.0391 65.7329C26.3129 65.0081 26.5519 64.2442 27.2226 63.9639C26.6012 64.2994 27.1401 65.9341 26.0391 65.7329Z" fill="black"/>
<path d="M26.8294 69.0469C26.5867 68.4712 27.9503 67.8039 28.605 67.4992C28.3523 68.3952 27.393 68.5015 26.8283 69.0469H26.8294Z" fill="black"/>
<path d="M53.2665 78.1086C53.6322 78.4985 53.2162 78.7933 52.8725 78.993C53.5344 79.43 54.1579 79.9106 54.6479 80.5406C53.1064 84.9306 47.3689 84.6165 44.9814 88.0583C43.3081 88.1473 40.5104 86.7843 38.6686 87.8372C37.8151 86.2075 34.908 87.6496 33.7368 87.8372C32.8784 85.5561 31.3622 84.0128 30.1859 82.0883C28.2909 81.4854 26.4166 80.8588 24.8594 79.8771C25.3029 77.1977 27.4609 76.2798 29.7911 75.2339C36.4618 72.2404 48.728 73.4409 53.2688 78.1086H53.2665ZM51.6884 78.993C51.9285 79.756 52.8699 79.7326 52.6745 80.9831C49.5843 79.3147 45.3728 77.1142 41.2324 75.8974C42.3953 76.1419 43.6875 76.2414 44.5861 76.7818C44.5309 76.2778 44.6335 75.9506 44.9806 75.8974C46.6291 76.1893 48.4699 77.4379 49.9123 77.224C45.9388 75.1527 38.5319 74.2883 33.5385 75.455C35.2267 75.1067 36.4064 75.4966 37.484 76.3396C32.8403 76.0732 30.3808 78.2546 27.6202 80.0984C30.6781 79.9875 32.5986 77.4246 35.7086 78.1086C34.3603 79.3245 32.3367 79.7831 31.7632 81.8675C32.7843 81.6808 33.5586 80.0534 34.3278 80.3198C33.9547 81.2285 32.808 81.2698 32.5522 82.3099C34.2603 82.0903 36.1772 78.3095 37.8787 78.7722C37.0588 80.5802 35.2986 81.3345 35.1169 83.8579C36.4376 82.1689 38.126 80.8921 39.8513 79.6569C39.6984 82.0651 38.1196 82.8749 37.8787 85.1844C37.5856 84.8361 36.9974 84.9382 37.0894 85.6266C38.3692 85.8873 38.4981 85.0584 39.4568 84.5208C39.2815 84.9879 38.856 85.1746 38.865 85.8477C40.308 84.7292 40.6383 81.4634 40.8379 79.6566C41.5186 80.2204 41.3876 81.6935 42.2187 82.0888C42.4753 81.5397 41.6398 81.1712 42.2187 80.9834C42.6313 81.2579 42.96 81.6264 43.205 82.0888C42.4479 82.781 43.2821 84.1576 43.994 84.5211C43.9084 83.6885 43.1735 83.585 43.5995 82.7524C44.6562 83.1194 44.8532 85.6173 45.7696 85.4058C44.9246 83.4787 44.0392 81.5964 43.0077 79.8779C43.3187 79.8979 43.1622 80.4421 43.5995 80.3201C43.7181 79.5239 42.9972 79.6684 43.0077 78.9936C45.709 79.9459 46.4434 83.1027 48.334 84.9636C48.0785 82.5524 45.83 81.3449 45.7696 79.4361H46.9532C47.4583 80.5681 49.073 81.6259 49.7151 81.8683C49.1457 80.9551 47.3377 80.2629 47.3477 79.4361C49.3598 79.9814 50.8115 81.1553 52.8715 81.6469C53.069 81.3525 53.1966 80.9796 53.4633 80.7626C53.0997 80.0505 52.0219 78.9861 51.6815 78.993H51.6884ZM29.7888 77.0029C28.7896 77.3569 27.9209 77.8575 27.2242 78.5505C28.3458 78.3294 29.2638 77.8858 29.7898 77.0029H29.7888ZM33.1435 75.2342C32.8428 74.894 31.7908 74.8403 31.9599 75.6764C32.4653 75.6529 32.9011 75.5512 33.1435 75.2342ZM44.7831 86.5107C44.5528 85.8841 44.5095 85.0483 43.9938 84.7416C44.0428 85.5699 44.3035 86.1636 44.7831 86.5107ZM51.2939 78.993C50.7743 78.5436 50.1307 78.2329 49.5183 77.8875C49.6627 78.6182 50.7303 79.467 51.295 78.993H51.2939Z" fill="#EE3224"/>
<path d="M53.4602 80.7665C53.1936 80.9835 53.0662 81.3564 52.8684 81.6508C50.8084 81.159 49.3567 79.9853 47.3447 79.4399C47.3346 80.2665 49.1427 80.9587 49.712 81.8722C49.07 81.63 47.4553 80.572 46.9501 79.4399H45.7666C45.8269 81.3491 48.0754 82.5566 48.331 84.9675C46.4404 83.1069 45.706 79.95 43.0047 78.9975C42.9941 79.6723 43.7151 79.5278 43.5965 80.324C43.1592 80.4457 43.3157 79.9018 43.0047 79.8818C44.0361 81.6003 44.9216 83.4823 45.7666 85.4097C44.8504 85.6212 44.6532 83.1233 43.5965 82.7563C43.1705 83.5889 43.9054 83.6924 43.991 84.525C43.2791 84.1617 42.4449 82.7849 43.202 82.0927C42.957 81.6303 42.6282 81.2618 42.2157 80.9873C41.6368 81.1751 42.4722 81.5436 42.2157 82.0927C41.3843 81.6977 41.5153 80.2243 40.8349 79.6605C40.6353 81.467 40.305 84.7331 38.862 85.8516C38.8532 85.1785 39.2784 84.9918 39.4538 84.5247C38.4951 85.0623 38.3661 85.8912 37.0864 85.6305C36.9941 84.9421 37.5825 84.84 37.8757 85.1883C38.1168 82.8788 39.6956 82.069 39.8483 79.6607C38.123 80.896 36.4343 82.1728 35.1138 83.8618C35.2956 81.3387 37.0557 80.5844 37.8757 78.7761C36.1739 78.3134 34.2572 82.0942 32.5492 82.3138C32.805 81.2737 33.9514 81.2324 34.3248 80.3237C33.5559 80.0573 32.7815 81.685 31.7601 81.8714C32.3336 79.7873 34.3575 79.3284 35.7056 78.1125C32.5956 77.4284 30.6754 79.9914 27.6172 80.1023C30.3778 78.2585 32.8375 76.0771 37.4809 76.3435C36.4031 75.5005 35.2237 75.1106 33.5355 75.4589C38.5294 74.2919 45.936 75.1563 49.9093 77.2279C48.4666 77.4417 46.6258 76.1932 44.9776 75.9013C44.6305 75.9545 44.5279 76.2817 44.583 76.7857C43.6844 76.2453 42.392 76.1458 41.2294 75.9013C45.3695 77.1181 49.581 79.3186 52.6714 80.987C52.8669 79.7365 51.9249 79.7599 51.6854 78.9969C52.0335 78.9908 53.1113 80.0552 53.4672 80.7665H53.4602ZM40.6371 79.2188C40.6378 78.407 39.9463 78.3715 39.6508 77.8923C39.1454 78.0628 38.5325 78.1128 38.2697 78.5556C39.4558 78.3319 39.6908 79.1752 40.6371 79.2188ZM45.3739 79.661C45.5087 78.6989 45.0191 78.4371 44.5848 78.1134C44.6439 78.5481 44.3185 78.5518 44.1903 78.7767C44.6029 79.0492 44.9587 79.3885 45.3739 79.661Z" fill="black"/>
<path d="M30.3785 29.9121C31.5226 31.2788 31.5602 33.1487 32.3513 34.776C33.8412 37.8424 36.4179 40.7232 35.5077 44.7266C34.041 44.126 34.6537 42.6509 34.3242 41.4093C33.2463 37.3517 29.0479 34.0681 30.3785 29.9121Z" fill="black"/>
<path d="M36.8925 60.8672C36.2618 62.0334 36.4067 65.1454 35.1172 64.8472C36.4704 63.4853 36.2193 60.4522 36.498 58.435C37.0031 58.6795 36.8853 59.6222 36.8925 60.4248C37.237 60.2213 37.328 59.7335 37.287 59.0982C37.7489 60.4311 37.0436 62.3597 36.6953 63.5206C36.2904 63.7527 37.1981 61.9608 36.8938 60.8669L36.8925 60.8672Z" fill="#EE3224"/>
<path d="M36.4961 58.2109C36.8607 56.7769 37.2777 55.4018 38.2714 54.6732C37.5623 55.7194 37.1833 57.1384 36.4974 58.2106L36.4961 58.2109Z" fill="#EE3224"/>
<path d="M41.425 52.9029C41.6303 52.4752 41.4771 51.6619 42.4116 51.5763C42.0624 52.4997 43.763 50.8044 44.3842 50.692C42.3378 52.6737 39.653 55.8548 38.8604 59.9785C39.3508 60.3132 39.56 60.9633 39.4522 61.9688C37.7284 59.2015 39.2874 54.8724 41.0305 52.4609C41.3657 52.38 41.4018 52.6343 41.4224 52.9031L41.425 52.9029Z" fill="#EE3224"/>
<path d="M45.5714 68.8298C46.6843 69.917 47.905 67.9257 48.5306 67.0607C48.8764 67.8977 47.8563 69.1006 46.9523 69.2719C47.2508 69.6005 47.8181 69.628 48.3328 69.7141C49.3341 67.7405 50.0006 65.392 50.8977 63.3019C50.2399 62.9412 50.03 64.9764 49.7139 65.7342C49.4764 63.6239 51.1068 61.6956 51.6862 59.7642C52.1586 60.5971 50.8428 61.3176 50.8969 62.4176C51.6981 62.0627 51.6486 60.754 52.2777 60.2067C52.607 60.5194 51.7945 61.4214 51.686 61.9757C52.3783 62.2291 52.5103 59.9567 53.2638 59.5434C54.3517 60.0312 55.5749 59.9347 56.4204 60.2067C56.7082 59.9396 56.61 59.2399 57.4065 59.5434C56.6956 60.7185 55.3168 60.7772 54.4471 60.2067C54.9391 61.1292 55.962 61.4572 57.2092 61.5332C57.6981 66.1868 61.3029 68.3847 64.7053 69.0509C62.7232 71.2447 60.5585 67.8353 58.1955 67.7243C58.867 68.8165 60.985 70.1976 62.93 70.5988C63.1033 71.8973 61.3919 71.5077 60.7599 71.262C60.0234 72.3582 58.4673 73.1935 57.012 72.8097C56.7636 72.8643 56.8132 73.2493 57.012 73.2519C55.5368 73.649 53.8481 72.3776 52.2772 72.1464C54.7335 74.2721 58.8538 74.6177 62.3385 73.9154C61.3313 74.7839 59.7419 74.583 58.5905 74.8001C60.9793 76.246 63.4823 74.1302 65.2979 73.4732C63.3423 75.1454 61.0348 76.1312 57.0122 75.9055C56.8253 75.1064 57.7894 75.5972 58.1958 75.4633C55.2428 74.646 52.6748 73.3969 49.5158 72.81C49.5623 72.0513 50.7956 72.6227 50.6997 71.7042C49.029 71.2626 47.0286 70.6164 45.3731 70.8199C45.9587 71.5398 46.9615 71.2123 47.5433 71.4831C46.5809 72.2987 43.711 70.9389 42.6113 71.7042C43.6259 72.4016 45.7176 71.8872 47.149 73.0311C45.3389 72.8296 42.6525 72.7808 40.4414 72.5889C40.4788 71.7464 41.8985 72.4533 42.217 71.9256C41.9934 71.7129 40.9156 71.3487 40.8362 71.7045C41.3864 68.93 46.0529 68.8552 47.3463 66.177C47.6531 67.1853 46.2401 68.172 45.5722 68.8274L45.5714 68.8298ZM49.3207 70.1563C49.4496 69.4904 49.9506 69.2413 50.1099 68.6087C49.5607 68.7621 48.5703 69.9109 49.3207 70.1563ZM52.4768 69.2719C52.3535 68.4133 52.0387 69.5971 51.293 69.0509C51.3549 70.226 51.9534 69.3595 52.4768 69.2719ZM52.8713 67.724C52.713 66.957 53.1653 66.874 53.0686 66.1764C52.5358 66.5371 51.8505 66.7275 51.8848 67.724H52.8724H52.8713ZM57.211 63.7441C56.9129 62.8253 56.5042 62.0303 55.8302 61.5329C56.0571 62.5297 56.6038 63.1687 57.2097 63.7441H57.211ZM57.8015 67.5029C57.12 67.2347 56.6492 66.731 56.0257 66.3975V67.0607C56.8379 66.8284 57.3193 68.1018 57.8015 67.5029Z" fill="#EE3224"/>
<path d="M45.965 51.8029C44.9451 54.1979 42.5409 55.0407 41.8222 57.773C42.3163 60.1206 40.7576 62.0154 40.6387 64.4062C40.3602 58.6776 41.2859 52.1981 45.966 51.8022L45.965 51.8029Z" fill="#EE3224"/>
<path d="M47.7432 72.8089C49.1091 72.0196 49.8641 73.8184 51.0969 73.9143C49.9675 74.436 49.0943 72.7713 47.7432 72.8089Z" fill="#EE3224"/>
<path d="M47.9371 66.3906C47.6594 66.0646 48.2677 64.8557 48.7267 64.6216C48.5978 65.3606 48.1125 65.7031 47.9371 66.3906Z" fill="#EE3224"/>
<path d="M56.8172 57.1073C56.3195 57.2162 57.3675 56.0099 56.4227 56.2226C55.9825 56.2553 56.6787 56.7798 56.4227 57.3281C55.7406 57.4061 53.88 56.9634 53.4635 57.5492C53.1959 57.4807 53.2998 56.9954 53.2658 56.6648C52.8452 56.5616 52.8901 56.9807 52.8718 57.3281C52.5788 57.1402 52.4473 56.7717 52.4772 56.2226C51.9724 56.394 52.4334 57.6477 51.6879 57.5492C52.0693 53.9525 50.7548 52.2569 49.3203 50.6948C49.6584 50.1887 50.8262 50.6136 51.4904 50.4737C52.151 51.5742 52.9244 53.1938 54.4498 53.5693C55.0385 53.7141 55.7894 53.3748 56.2254 53.5693C56.098 53.5123 56.0625 54.2114 56.2254 54.2325C56.4882 54.2666 56.8961 52.9947 57.409 54.0114C57.5219 55.1131 57.3927 55.0389 57.8035 56.2223C57.0763 56.416 57.1898 56.2166 56.8159 57.1096L56.8172 57.1073Z" fill="#EE3224"/>
<path d="M51.293 69.0455C52.0387 69.592 52.3535 68.408 52.4768 69.2666C51.9533 69.3542 51.3549 70.2206 51.293 69.0455Z" fill="black"/>
<path d="M54.2505 77.0048C57.5224 76.9421 61.2533 77.3294 63.9167 75.6783C64.1534 75.3685 63.9936 75.6592 63.9167 75.8994C61.7515 77.788 58.346 78.1646 55.039 77.6684C54.8663 77.3444 54.743 76.9675 54.2505 77.0048Z" fill="#EE3224"/>
<path d="M55.4333 79.6611H55.0391C58.6882 78.3135 63.1141 78.9065 67.0732 79.8822C69.0187 85.019 58.5075 80.2868 57.4064 79.8822C56.9348 79.7475 55.9751 80.1596 55.8284 79.6611C55.7433 79.3397 55.6551 79.6836 55.4333 79.6611Z" fill="#B4985A"/>
<path d="M55.8294 61.531C56.5034 62.0284 56.9121 62.8234 57.2102 63.7422C56.6017 63.1668 56.055 62.5278 55.8281 61.531H55.8294Z" fill="black"/>
<path d="M58.0005 13.9912C61.5043 12.4401 65.8048 15.2978 67.667 17.75C65.2328 16.4986 62.2159 13.9813 58 13.99L58.0005 13.9912Z" fill="#EE3224"/>
<path d="M59.1814 52.6814C58.6673 52.9606 60.1007 52.0695 60.168 51.5759C60.6863 52.0268 59.6961 52.6539 59.1804 52.6799L59.1814 52.6814Z" fill="#EE3224"/>
<path d="M58.9883 35.6589C59.6786 35.3347 60.1061 37.2014 60.5664 37.8698C59.8959 38.1704 59.7309 36.0115 58.9883 35.6589Z" fill="#EE3224"/>
<path d="M59.1807 53.5703C60.0043 52.3545 61.5574 51.8042 61.3508 50.0326C61.9387 51.8013 60.4432 53.1394 59.1797 53.57L59.1807 53.5703Z" fill="#EE3224"/>
<path d="M60.3672 73.4688C62.0128 71.7751 65.1682 71.7743 66.68 69.931C67.0361 70.7798 65.3056 71.1855 64.7074 71.6996C67.1887 72.0476 68.3566 69.0102 70.2314 67.9409C68.3491 71.3593 65.0125 73.1454 60.3685 73.4688H60.3672Z" fill="#EE3224"/>
<path d="M70.0324 25.044C70.0365 24.7053 70.9627 25.1547 71.2159 25.2653C71.2492 25.7445 70.5164 25.3656 70.2299 25.4864C70.2608 25.2263 70.186 25.0905 70.0312 25.0443L70.0324 25.044Z" fill="black"/>
<path d="M80.6836 38.5338C81.8494 38.1156 82.8532 39.7841 83.8397 40.3023C82.9785 40.3774 81.9987 38.6841 80.6836 38.5338Z" fill="#EE3224"/>
<path d="M81.0781 39.1988C81.7006 39.4595 82.1745 39.8869 82.6565 40.3045C82.3883 40.5184 81.2589 39.8161 81.0784 39.1976L81.0781 39.1988Z" fill="#EE3224"/>
<path d="M82.4609 41.8523C83.3485 41.3797 84.3892 42.6343 85.2228 42.9574C85.1687 43.3187 83.2812 42.0904 82.4612 41.8534L82.4609 41.8523Z" fill="#EE3224"/>
<path d="M83.251 46.2683C83.7858 45.612 84.7069 46.3932 85.4211 46.2683C84.939 46.8665 84.1354 45.9533 83.251 46.2683Z" fill="#EE3224"/>
<path d="M8.875 58.8779C9.36699 58.4132 10.4745 59.1395 11.2424 59.0991C10.877 59.5739 11.1093 60.7186 11.0451 61.5312C10.8533 61.5252 10.8922 61.2604 10.8478 61.0891C10.4301 60.7362 9.62923 60.3111 9.66404 60.868C9.37782 60.2322 9.23677 59.4317 8.875 58.8797V58.8779Z" fill="#F1C485"/>
<path d="M16.569 63.9649C16.5015 63.1487 17.767 63.1617 18.1473 63.5227C18.432 64.4461 17.0275 64.6062 17.7528 65.2917C17.0783 65.6241 17.1971 64.4874 16.569 63.9649Z" fill="#F1C485"/>
<path d="M26.4347 51.7969C25.9149 49.2967 27.6054 47.2699 27.8156 45.1636C28.1655 41.6594 26.9765 38.5887 26.829 35.4344C29.2554 39.9083 29.2503 47.9976 26.4345 51.7951L26.4347 51.7969Z" fill="black"/>
<path d="M29.3943 31.4561C27.9204 35.7733 31.6147 38.5692 32.3534 41.8483C33.5187 47.0203 29.2517 50.1228 28.8025 55.3359H28.2107C28.1731 55.1568 28.0127 55.1154 28.0135 54.8938C27.9454 51.2427 29.868 48.8249 30.5781 46.2707C31.8865 41.5639 28.9198 38.4189 28.408 32.5616C28.9057 32.3882 28.7381 31.4634 29.3904 31.4547L29.3943 31.4561Z" fill="black"/>
<path d="M34.7195 71.4776C37.7488 70.2297 39.1912 67.2029 42.4133 66.1709C42.0732 66.8951 41.2757 67.107 40.835 67.7185C41.5879 68.1861 42.3848 66.8084 43.2024 66.6131C43.2783 67.7298 42.1014 67.4428 41.8216 68.1607C42.8066 68.2289 44.7001 67.4096 45.3726 66.3917C45.5696 67.3076 44.44 67.9838 43.7944 68.3818C42.2545 69.33 40.3361 70.3225 39.0597 71.4774C37.9631 70.7496 36.5776 71.4233 35.7061 72.1406C35.0289 71.5791 36.5499 71.6297 36.4953 71.0352C35.5902 70.8311 35.542 71.5883 34.7195 71.4776ZM39.8483 68.3821C39.3292 69.3479 38.1098 69.5289 37.6782 70.593C38.6889 70.3179 40.0288 69.2532 39.8483 68.3821ZM41.4263 68.3821C40.768 69.1182 39.7803 69.4855 39.2561 70.3719C40.205 70.1031 41.6774 69.2575 41.4273 68.3821H41.4263Z" fill="#EE3224"/>
<path d="M44.9805 54.6753C45.4155 53.6889 46.7991 53.7658 46.9531 52.4644C47.5366 53.1077 47.4956 54.8258 47.7426 55.781C47.0645 56.018 46.3554 54.3909 44.981 54.6741L44.9805 54.6753Z" fill="white"/>
<path d="M66.8772 52.2422C67.0866 48.9955 67.7359 43.1835 66.6797 39.6389C67.4025 40.8414 68.8341 39.4577 69.4416 40.3021C69.3634 41.0258 68.4751 40.84 67.8632 40.9654C68.5027 44.8815 68.1804 49.3004 66.8782 52.2396L66.8772 52.2422Z" fill="white"/>
<path d="M64.9429 52.0529C64.6046 53.7274 65.8186 55.0167 67.9021 55.1484C68.5949 54.7453 68.6594 53.6381 69.2826 53.1583C68.0081 53.4676 66.5958 53.6887 65.7062 52.9289L64.9429 52.0529Z" fill="white"/>
</g>
</g>
<defs>
<clipPath id="clip0_394_5296">
<rect width="90" height="90" fill="white" transform="matrix(0 -1 1 0 0 90)"/>
</clipPath>
</defs>
</svg>
