<svg width="90" height="90" viewBox="0 0 90 90" fill="none" xmlns="http://www.w3.org/2000/svg">
<g clip-path="url(#clip0_394_5436)">
<mask id="mask0_394_5436" style="mask-type:luminance" maskUnits="userSpaceOnUse" x="0" y="0" width="90" height="90">
<path d="M0 0L0 90H90V0H0Z" fill="white"/>
</mask>
<g mask="url(#mask0_394_5436)">
<path d="M45.0022 0.521996C69.5646 0.517196 89.478 20.431 89.478 45.0008C89.478 69.571 69.5601 89.4857 44.9977 89.4766C20.4354 89.4833 0.522478 69.5667 0.523438 44.9959C0.524877 20.4262 20.4399 0.512396 45.0022 0.521996Z" fill="#B69837" stroke="black" stroke-width="1.04546" stroke-linecap="round" stroke-linejoin="round"/>
<path d="M29.5703 2.7162C30.2597 2.6871 30.9636 2.6677 31.6627 2.6677C56.4945 2.6677 76.6464 22.8253 76.6464 47.6643C76.6464 67.0819 64.3203 83.6494 47.0861 89.9531C70.9519 88.8639 89.992 69.137 89.992 44.9934C89.9969 20.1545 69.845 -0.00319672 45.0083 -0.00319672C39.5904 -0.00319672 34.3862 0.953502 29.5703 2.7162Z" fill="black" fill-opacity="0.3137"/>
<path d="M37.4844 25.0028C39.5416 24.532 41.7209 24.0264 43.9839 24.0264C56.146 24.0264 66.0208 38.8735 66.0208 46.0668C66.0208 51.642 59.6224 62.5182 50.7797 66.5469C61.6169 64.4973 69.9993 51.1535 69.9993 44.7697C69.9993 37.5764 60.128 22.7328 47.9624 22.7328C44.1722 22.7328 40.6016 23.6499 37.4844 25.0028Z" fill="black" fill-opacity="0.3137"/>
<path d="M36.133 8.3679C32.2302 8.3679 28.8887 13.0961 25.3942 13.7412C21.5433 14.449 16.4236 11.4852 13.3349 13.3576C10.2375 15.2335 10.7058 20.8822 8.65452 24.3272C6.95816 27.1795 1.50716 29.0519 0.701702 33.2257C0.072673 36.4824 4.2175 40.6074 4.2175 44.7951C4.2175 48.9619 0.0855743 53.0882 0.733083 56.3432C1.55528 60.4775 7.01779 62.3068 8.74064 65.1545C10.7986 68.5566 10.3282 74.2109 13.4176 76.1025C16.494 77.9861 21.6211 75.0638 25.4479 75.8012C28.932 76.4728 32.2434 81.2198 36.133 81.2187C39.7454 81.2198 42.1967 76.2779 45.0524 75.2409C48.2777 74.0693 53.3895 76.0181 55.6908 73.744C57.9747 71.489 56.1685 66.2047 57.5876 63.0976C57.762 62.7179 57.9119 61.8406 58.0374 60.6034C62.8353 55.5116 65.8549 49.3869 65.8549 45.3913C65.8549 41.2455 62.8632 34.7041 58.0862 29.4738C57.9468 27.978 57.7829 26.918 57.5876 26.4926C56.1685 23.3858 57.9747 18.0997 55.6908 15.8437C53.3895 13.5703 48.2777 15.5195 45.0524 14.3479C42.1967 13.3123 39.7454 8.3679 36.133 8.3679Z" fill="#B69837" stroke="black" stroke-width="1.27208" stroke-linecap="round" stroke-linejoin="round"/>
<path d="M32.3438 9.59554C37.2295 10.1046 37.3863 13.1347 41.0998 15.4569C43.2338 16.7924 50.6712 15.2826 52.4007 17.1027C54.0082 18.7903 53.3945 22.6608 53.7048 25.6106C53.799 26.4893 53.9699 27.2878 54.3081 27.9189C54.9218 29.0661 59.9044 37.1173 60.7622 38.8816C62.1256 41.692 62.5371 44.7186 62.5371 46.8072C62.5371 49.0005 60.818 52.4273 58.9734 55.3702C56.0584 60.0304 55.7097 60.6117 54.1651 64.8792C52.9238 68.3134 54.887 71.1047 52.875 74.5859C59.8104 73.8506 55.7516 68.6084 57.4567 62.9541C57.5892 62.5193 58.4155 61.695 58.5411 60.5796C63.0461 55.4347 65.8531 49.2491 65.8531 45.3881C65.8531 41.5212 63.2483 35.6388 59.0257 30.6491C58.1505 28.822 58.1995 27.2704 57.8054 26.6044C56.0376 23.5952 58.9839 17.5142 56.2467 15.5301C54.0849 13.9611 47.9621 14.5678 45.1656 13.7902C42.7771 13.1242 39.5552 8.05434 36.689 8.05434C34.5167 8.05434 34.4041 9.20854 32.3438 9.59554Z" fill="black" fill-opacity="0.3137"/>
<path d="M38.1778 24.272C41.8669 24.2685 44.8621 27.2637 44.8621 30.9563C44.8621 34.6489 41.8669 37.6441 38.1743 37.6406C34.4821 37.6441 31.4879 34.6489 31.4883 30.9563C31.489 27.2637 34.4828 24.2685 38.1778 24.272Z" fill="white" stroke="black" stroke-width="1.27208" stroke-linecap="round" stroke-linejoin="round"/>
<path d="M39.3566 30.2157C40.5874 30.2157 41.5847 31.2129 41.5847 32.4438C41.5847 33.6746 40.5874 34.6719 39.3566 34.6719C38.1257 34.6719 37.125 33.6746 37.125 32.4438C37.125 31.2129 38.1257 30.2157 39.3566 30.2157Z" fill="black"/>
<path d="M2.47656 51.9922L19.0282 47.5791C18.9952 46.9891 18.9846 46.3951 18.9846 45.7921C18.9846 44.5575 19.0563 43.3503 19.1917 42.1745L2.91242 39.1453C3.8441 41.0534 4.81929 43.0656 4.81929 45.0948C4.81929 47.4593 3.50926 49.8056 2.47656 51.9922Z" fill="#9B5F54"/>
<path d="M4.38672 29.0029L20.5025 35.5625C21.1028 33.7895 21.8631 32.1684 22.7581 30.7354L11.1752 18.0411C10.5573 20.277 10.202 22.8449 9.07218 24.7424C8.16079 26.2748 6.16296 27.5273 4.38672 29.0029Z" fill="#9B5F54"/>
<path d="M4.57031 60.4288C6.34655 61.9044 8.34439 63.1569 9.25577 64.6893C10.3856 66.5868 10.7409 69.1547 11.3588 71.3906L22.5494 59.1322V59.1213C21.6426 57.6047 20.8777 55.8946 20.2938 54.0217L4.57031 60.4288Z" fill="#9B5F54"/>
<path d="M17.3945 13.4703L25.8502 27.5703C27.5109 26.0083 29.408 24.9629 31.44 24.5956L30.2087 11.7923C28.6128 12.9478 27.0498 14.0918 25.4579 14.3856C23.0001 14.8374 20.0281 13.7979 17.3945 13.4703Z" fill="#9B5F54"/>
<path d="M17.3477 75.8454C19.9812 75.5178 22.9532 74.4783 25.411 74.9301C27.0029 75.2239 28.5659 76.3679 30.1618 77.5234L31.3278 65.4938C29.1804 65.1341 27.1768 64.0292 25.4437 62.3447L17.3477 75.8454Z" fill="#9B5F54"/>
<path d="M38.1715 51.6293C41.864 51.6283 44.8592 54.6221 44.8592 58.315C44.8592 62.0079 41.864 65.001 38.1715 65C34.4782 65.0007 31.484 62.0072 31.4844 58.3143C31.4847 54.6214 34.4789 51.6279 38.1715 51.6293Z" fill="white" stroke="black" stroke-width="1.27208" stroke-linecap="round" stroke-linejoin="round"/>
<path d="M39.3566 54.4103C40.584 54.4096 41.5847 55.4075 41.5847 56.6387C41.5847 57.8699 40.584 58.8679 39.3531 58.8672C38.1222 58.8675 37.125 57.8696 37.125 56.6387C37.125 55.4075 38.1222 54.4099 39.3566 54.4103Z" fill="black"/>
<path d="M58.9811 39.8085C60.1527 40.485 60.7036 41.7263 60.2085 42.5806C59.7169 43.4349 58.3675 43.5778 57.1959 42.9014C56.0243 42.2249 55.4734 40.9836 55.965 40.1293C56.4601 39.275 57.8096 39.1321 58.9811 39.8085Z" fill="black"/>
<path d="M58.9811 49.4641C60.1527 48.788 60.7036 47.5464 60.2085 46.691C59.7169 45.8368 58.3675 45.6938 57.1959 46.3702C56.0243 47.0467 55.4734 48.288 55.965 49.1423C56.4601 49.9966 57.8096 50.1409 58.9811 49.4641Z" fill="black"/>
<path d="M53.8519 42.2127C52.234 40.6889 44.27 43.6039 45.0092 44.8104C45.7519 46.0168 51.9446 48.2648 53.5834 47.225C55.1246 46.247 55.5535 43.8166 53.8519 42.2127Z" fill="white" stroke="black" stroke-width="1.27208" stroke-linejoin="round"/>
<path d="M53.8523 42.2124C52.2344 40.6886 44.267 43.6036 45.0097 44.8101C45.0794 44.9251 45.2014 45.0472 45.3653 45.1797C45.4037 43.9 53.0329 41.9718 54.4451 43.5757C54.6369 43.7954 54.7973 44.029 54.9228 44.2626C54.8356 43.5444 54.4974 42.8191 53.8523 42.2124Z" fill="black" fill-opacity="0.3137"/>
<path d="M23.9541 38.1172C20.6347 39.6166 9.85402 30.8506 11.6445 29.3757C13.4343 27.9043 24.2268 27.7229 26.2122 30.2091C28.0798 32.5487 27.4466 36.5412 23.9541 38.1172Z" fill="white" stroke="black" stroke-width="1.27208" stroke-linejoin="round"/>
<path d="M23.9541 51.1578C20.6347 49.6598 9.85402 58.4247 11.6445 59.8983C13.4343 61.3722 24.2268 61.5503 26.2122 59.0646C28.0798 56.7263 27.4466 52.7338 23.9541 51.1578Z" fill="white" stroke="black" stroke-width="1.27208" stroke-linejoin="round"/>
<path d="M23.9588 51.1555C20.6393 49.6579 9.84993 58.4263 11.6405 59.9002C11.812 60.0422 12.0686 60.1648 12.3908 60.2812C11.7702 58.2768 22.5623 51.2225 25.6029 52.9548C26.0188 53.1919 26.3899 53.4691 26.711 53.7648C26.189 52.6947 25.2824 51.7535 23.9588 51.1555Z" fill="black" fill-opacity="0.3137"/>
<path d="M27.3316 31.649C25.868 28.3144 11.983 27.6063 12.3266 29.8998C12.359 30.1201 12.4675 30.383 12.6289 30.6852C13.5097 28.7805 26.2494 30.7639 27.3487 34.0862C27.499 34.5408 27.589 34.9951 27.6297 35.4297C27.9582 34.2853 27.9147 32.9793 27.3316 31.649Z" fill="black" fill-opacity="0.3137"/>
</g>
</g>
<defs>
<clipPath id="clip0_394_5436">
<rect width="90" height="90" fill="white" transform="matrix(0 -1 1 0 0 90)"/>
</clipPath>
</defs>
</svg>
