<svg width="90" height="90" viewBox="0 0 90 90" fill="none" xmlns="http://www.w3.org/2000/svg">
<g clip-path="url(#clip0_394_5758)">
<path d="M90 45C90 20.1472 69.8528 0 45 0C20.1472 0 0 20.1472 0 45C0 69.8528 20.1472 90 45 90C69.8528 90 90 69.8528 90 45Z" fill="#CFB66C"/>
<mask id="mask0_394_5758" style="mask-type:luminance" maskUnits="userSpaceOnUse" x="0" y="0" width="90" height="89">
<path d="M44.5 0C19.9233 0 0 19.9233 0 44.5C0 69.0767 19.9233 89 44.5 89H45.5C70.0767 89 90 69.0767 90 44.5C90 19.9233 70.0767 0 45.5 0H44.5Z" fill="white"/>
</mask>
<g mask="url(#mask0_394_5758)">
<path d="M74.2317 77.721C73.9408 77.3795 73.6794 77.0137 73.4347 76.6388C72.976 75.9367 72.5198 75.2333 72.0867 74.5157C71.6652 73.82 71.2885 73.0998 70.9656 72.3502C70.7503 71.8496 70.4902 71.3695 70.2596 70.8753C69.7201 69.72 69.1384 68.5853 68.7194 67.3748C68.4708 66.656 68.244 65.9307 68.0262 65.2029C67.7699 64.3441 67.5329 63.479 67.4047 62.5894C67.3804 62.4187 67.3804 62.2441 67.3689 62.0721C67.356 61.9411 67.2958 61.8962 67.1549 61.8808C66.6962 61.8282 66.2426 61.9245 65.7851 61.8924C65.4802 61.8706 65.1714 61.8474 64.8638 61.886C64.6921 61.9078 64.5243 61.8474 64.3564 61.8243C62.6048 61.583 61.0467 60.8706 59.6334 59.8231C59.4694 59.7012 59.3297 59.5549 59.1913 59.406C58.8825 59.1287 58.5571 58.8694 58.2931 58.5446C58.2021 58.4882 58.1573 58.5511 58.1189 58.6165C58.0343 58.7616 57.9215 58.8899 57.8498 59.044C57.4244 59.8373 56.9516 60.5997 56.3852 61.3032C56.0213 61.7563 55.5434 62.0734 55.0936 62.4225C54.3671 62.986 53.5496 63.3891 52.6924 63.7126C51.5289 64.1516 50.3937 64.6638 49.1866 64.9924C47.5465 65.4391 45.9244 65.9512 44.2766 66.3684C43.6551 66.525 43.0298 66.6727 42.4058 66.819C41.8215 66.9422 41.2398 67.0821 40.6401 67.1194C40.4748 67.1296 40.3351 67.2516 40.1622 67.2375C40.0943 67.2323 40.0225 67.2259 39.9918 67.1527C39.9623 67.086 39.9918 67.0372 40.0558 67.0077C40.0738 66.991 40.093 66.9743 40.1109 66.9576C40.1506 66.8755 40.2262 66.828 40.3134 66.7766C39.9802 66.7907 39.6663 66.8139 39.3639 66.6932C38.8142 66.5751 38.3311 66.3081 37.8545 66.0244C37.6623 65.9102 37.4829 65.7767 37.292 65.6599C37.1523 65.5751 37.0293 65.5585 36.9076 65.7215C36.5924 66.1412 36.1657 66.4531 35.8056 66.8318C35.6096 67.0385 35.3046 67.0423 35.0496 67.1399C34.8228 67.3658 34.5666 67.4724 34.2373 67.3941C34.0592 67.3517 33.8657 67.3774 33.685 67.3209C33.6414 67.3042 33.5979 67.2875 33.5543 67.2708C33.2724 67.1553 32.9803 67.068 32.7035 66.9384C32.4524 66.8203 32.2102 66.7818 31.9603 66.9474C31.8681 67.009 31.7553 67.0346 31.6554 67.0847C31.4824 67.2631 31.2863 67.2837 31.0685 67.1733C31.0083 67.1425 30.9378 67.1309 30.8853 67.0911C30.5496 66.8434 30.1908 66.8973 29.8346 67.0167C29.6372 67.0821 29.4566 67.0616 29.2746 66.9794C28.8057 66.7664 28.3738 66.4827 28.0394 66.0989C27.7511 65.7677 27.6102 65.3312 27.5294 64.8999C27.4513 64.484 27.3629 64.0707 27.2693 63.6587C27.1579 63.375 27.122 63.0772 27.104 62.7768C27.0951 62.6253 27.0618 62.4803 27.0105 62.3378C26.9221 62.1363 27.0143 61.936 27.0284 61.7383C27.0541 61.3763 26.9093 61.0221 26.9977 60.6601C27.0105 60.61 27.0028 60.5497 27.0284 60.5073C27.5371 59.6178 27.828 58.6178 28.4033 57.7616C28.4571 57.6807 28.4969 57.5781 28.5725 57.5254C29.0017 57.2173 29.2951 56.7527 29.7449 56.4793C30.2241 56.1892 30.6149 55.7938 31.0583 55.4626C31.3671 55.2316 31.7169 55.0814 32.05 54.8991C32.1615 54.8375 32.2909 54.8285 32.4216 54.8298C32.888 54.8336 33.3544 54.8285 33.8208 54.8272C34.0976 54.7579 34.3846 54.7425 34.6652 54.7309C35.434 54.6976 36.1772 54.5307 36.9217 54.3625C37.1856 54.3022 37.4521 54.2123 37.6456 54.5127C37.6841 54.573 37.775 54.591 37.8276 54.541C38.0441 54.3292 38.2889 54.4344 38.5272 54.4665C38.6579 54.4691 38.7873 54.5076 38.8872 54.5743C39.0551 54.6873 39.1922 54.6244 39.346 54.5615C39.6086 54.455 39.8124 54.238 40.1032 54.1828C40.2198 54.161 40.3249 54.1135 40.4441 54.179C40.5504 54.2367 40.5684 54.1225 40.6055 54.0711C40.7964 53.8118 40.963 53.5333 41.2244 53.3343C41.4115 53.1058 41.6562 52.939 41.8702 52.74C42.106 52.5192 42.1303 52.2895 42.0419 52.007C42.0111 51.9108 41.9061 51.7657 42.1265 51.7388C42.3699 51.9403 42.589 52.1534 42.689 52.4743C42.7799 52.7657 43.0272 52.9878 43.0977 53.2933C43.1426 53.4897 43.2566 53.6244 43.4309 53.7143C43.4796 53.7554 43.5295 53.7964 43.5782 53.8375C43.7128 54.0878 43.796 54.3625 43.9293 54.6141C44.0421 54.7271 44.1125 54.8644 44.1651 55.0133C44.4495 55.5217 44.5495 56.1019 44.7827 56.6307C44.8839 56.8605 45.021 57.0607 45.1773 57.2571C45.4554 57.6076 45.595 58.0004 45.4759 58.4535C45.3401 58.8142 45.0005 58.7462 44.725 58.7962C44.6046 58.8181 44.4726 58.7744 44.3457 58.7616C43.8319 58.6512 43.3271 58.5177 42.8543 58.2815C42.794 58.2507 42.7287 58.2301 42.6621 58.2173C41.373 57.9554 40.0827 57.7128 38.7578 57.7475C38.5618 57.7526 38.3696 57.7899 38.1748 57.7963C37.4701 57.8207 36.8127 57.5896 36.1465 57.4112C36.0311 57.3804 35.9158 57.3483 35.7966 57.3303C35.1303 57.2443 34.4641 57.2648 33.7939 57.2957C33.4287 57.3123 33.0584 57.2161 32.6958 57.3162C32.2896 57.4291 31.8706 57.4433 31.458 57.5139C31.2697 57.546 31.1057 57.6076 30.9647 57.7501C30.515 58.2058 30.0742 58.6679 29.6616 59.1582C29.6283 59.198 29.5937 59.2391 29.5732 59.2853C29.3477 59.8193 29.0709 60.3225 28.716 60.782C28.6365 60.8847 28.6545 61.0144 28.6404 61.1273C28.5827 61.5766 28.566 62.0272 28.6301 62.479C28.6365 62.5214 28.6532 62.565 28.675 62.6022C28.9223 63.022 29.2388 63.3801 29.6334 63.6664C29.677 63.6985 29.7103 63.7845 29.7884 63.6574C29.8564 63.547 29.9883 63.6381 30.0729 63.719C30.1536 63.796 30.2049 63.9513 30.3023 63.9449C30.3843 63.9398 30.456 63.8024 30.538 63.7305C30.8327 63.4687 30.9634 63.4713 31.2389 63.7498C31.3504 63.8615 31.4644 63.9732 31.5644 64.0938C31.6874 64.2427 31.7989 64.3762 32.0308 64.3197C32.173 64.2851 32.2384 64.4674 32.3844 64.5277C32.3447 64.434 32.3152 64.3634 32.2845 64.2928C32.2512 64.1631 32.1922 64.0438 32.1307 63.9269C32.0769 63.8255 32.0551 63.7216 32.0679 63.6086C31.6554 62.6946 31.4939 61.7383 31.5631 60.7384C31.6387 59.6486 31.9757 58.6448 32.5459 57.7167C32.6112 57.6114 32.6932 57.5293 32.8419 57.537C32.8534 57.7103 32.7855 57.8553 32.7061 57.9991C32.4613 58.4381 32.2717 58.8989 32.1384 59.3854C32.1 59.5266 32.1269 59.5382 32.2563 59.5523C33.0533 59.6383 33.4813 60.0029 33.5927 60.7332C33.6581 61.1543 33.4339 61.4983 33.1699 61.8012C32.9239 62.0824 32.5959 62.2325 32.232 62.2929C32.0846 62.3173 32.0231 62.3481 32.0974 62.5008C32.1269 62.5599 32.1333 62.6305 32.15 62.6959C32.1858 62.8371 32.2576 62.8782 32.3947 62.7999C32.6663 62.6459 32.9623 62.624 33.2673 62.6613C33.4351 62.6818 33.5441 62.7627 33.5966 62.9231C33.6696 63.1426 33.7465 63.3609 33.8195 63.5791C33.8362 63.6291 33.8439 63.6895 33.9041 63.701C33.9784 63.7151 33.9759 63.642 34.0002 63.5996C34.0643 63.4867 34.1706 63.4931 34.277 63.5046C34.6806 63.5483 34.6908 63.4802 34.9446 63.1696C35.1829 62.8782 35.1534 62.5727 35.1624 62.2608C35.1803 61.6652 35.1726 61.0696 35.1765 60.4739C35.1765 60.3944 35.1496 60.293 35.27 60.2801C35.3956 60.266 35.3584 60.3854 35.3712 60.4431C35.6749 61.8038 36.3271 62.9976 37.1203 64.1246C37.1715 64.1965 37.2343 64.2671 37.3073 64.3172C37.8814 64.71 38.4426 65.1233 39.0436 65.4763C39.1896 65.5623 39.255 65.5687 39.3114 65.3685C39.4011 65.0501 39.6548 64.805 39.7778 64.5007C40.1045 63.6959 40.7388 63.176 41.4025 62.6792C41.6895 62.4649 42.0227 62.3635 42.3571 62.2505C43.7973 61.7614 45.2914 61.4495 46.7149 60.9065C47.075 60.7692 47.4069 60.5754 47.7118 60.352C48.232 59.9708 48.8035 59.7538 49.4301 59.6306C50.2156 59.4766 50.9703 59.2237 51.6801 58.8399C52.053 58.6383 52.4758 58.5434 52.8423 58.32C53.2408 58.0761 53.5304 57.7154 53.8584 57.3971C54.1685 57.0967 54.5234 56.9093 54.9258 56.7629C55.282 56.6333 55.5972 56.4176 55.6548 55.9709C55.7087 55.5538 55.9713 55.2675 56.3224 55.0608C56.539 54.9337 56.6146 54.7707 56.6146 54.5089C56.6146 54.2098 56.5748 53.8863 56.7658 53.6129C56.8696 53.3728 56.9913 53.1431 57.0938 52.9005C57.2616 52.5013 57.3424 52.0892 57.3923 51.6656C57.4154 51.3973 57.359 51.1239 57.4487 50.8608C57.5435 50.6297 57.5243 50.3986 57.4423 50.1689C57.4385 50.115 57.4346 50.0623 57.4308 50.0084C57.3949 49.9519 57.3372 49.9096 57.3206 49.8364C57.2578 49.8454 57.2745 49.9327 57.2232 49.9391C56.9926 49.9673 56.9554 50.165 56.8529 50.3216C56.6876 50.5758 56.416 50.7054 56.1328 50.7914C56.0034 50.83 55.8688 50.8454 55.765 50.9455C55.7215 50.9866 55.6651 51.0186 55.6023 50.9737C55.5472 50.9339 55.5382 50.8736 55.5447 50.812C55.5511 50.7439 55.5587 50.6644 55.6049 50.6207C55.8227 50.4115 55.7087 50.2292 55.5741 50.0444C55.5613 50.0148 55.5472 49.9866 55.5344 49.9571C55.4921 49.5309 55.5767 49.4449 56.0815 49.4038C56.2071 49.0444 56.0559 48.7659 55.8201 48.5117C55.6613 48.341 55.5024 48.1702 55.3409 48.0008C55.2692 47.9264 55.2192 47.8506 55.2704 47.7415C55.3191 47.6375 55.414 47.6427 55.5011 47.6401C55.6664 47.635 55.7945 47.7351 55.9342 47.8057C56.0521 47.8647 56.1546 47.9636 56.3006 47.9597C56.5044 47.9559 56.6953 47.9661 56.8465 48.1459C56.9234 48.237 57.0195 48.2049 57.0553 48.0701C57.0835 47.961 57.1181 47.8558 57.1079 47.7389C57.0707 47.3141 57.0528 46.8917 57.113 46.463C57.186 45.9534 57.0323 45.4464 57.0131 44.9355C57.0131 44.9201 57.0041 44.9059 57.0054 44.8905C57.0746 44.1383 56.5672 43.802 56.0059 43.5042C55.8599 43.4272 55.724 43.3386 55.5959 43.2321C55.4396 43.1024 55.4447 42.9715 55.5908 42.865C55.7535 42.7456 55.8317 42.5838 55.8983 42.408C55.9009 42.4016 55.8983 42.3887 55.9021 42.3862C56.2263 42.1936 56.0418 41.8984 56.0316 41.6532C55.9893 40.5968 55.5562 39.7072 54.8297 38.9498C54.5696 38.679 54.3056 38.4094 54.0621 38.1232C53.9238 37.9614 53.9379 37.7291 53.8699 37.534C53.524 36.5469 52.9961 35.6868 52.258 34.9269C51.5417 34.1888 50.6051 33.9424 49.7184 33.5675C49.2635 33.4469 48.8074 33.3339 48.3448 33.2466C48.2525 33.203 48.0796 33.2299 48.1026 33.0836C48.1219 32.9694 48.2743 33.0092 48.3743 33.0053C48.4319 33.0027 48.4922 32.9925 48.5485 33.0207C48.7805 33.1067 49.029 33.0836 49.2686 33.1311C49.6313 33.203 49.99 33.2903 50.345 33.393C50.9792 33.5906 51.6391 33.7241 52.2029 34.108C52.2683 34.1118 52.2836 34.1811 52.3311 34.2094C52.5912 34.3929 52.8846 34.5213 53.1485 34.6997C53.6393 35.0232 54.1941 35.2234 54.7067 35.5058C55.1359 35.742 55.5703 35.9731 56.0162 36.1836C56.6722 36.493 57.2194 36.9846 57.7819 37.439C58.2175 37.792 58.6673 38.1245 59.0876 38.5006C59.4796 38.8523 59.8615 39.2104 60.219 39.5955C61.5131 40.9921 62.7893 42.4054 64.0105 43.8662C64.432 44.3719 64.851 44.8867 65.1803 45.463C65.3725 45.7994 65.6941 46.0394 65.8774 46.3719C66.035 46.6581 66.2566 46.6812 66.5244 46.6671C66.9973 46.6414 67.4714 46.6787 67.9429 46.6158C68.2427 46.576 68.3914 46.7005 68.4964 47.065C68.6041 47.4399 68.8052 47.771 68.95 48.1279C69.0525 48.3808 69.1102 48.6567 69.1653 48.925C69.2524 49.3512 69.3677 49.7684 69.501 50.1779C69.6458 50.6207 69.9815 50.9403 70.3492 51.2176C70.5081 51.2921 70.685 51.2651 70.849 51.3113C70.9707 51.346 71.1155 51.3627 71.1129 51.5308C71.1091 51.7003 70.9822 51.7465 70.8362 51.758C70.7913 51.7619 70.749 51.776 70.7106 51.8004C69.9687 52.3087 69.4292 53.0019 69.0141 53.7823C68.6502 54.4665 68.2056 55.0968 67.7994 55.7514C66.9165 57.1763 65.6685 58.1749 64.2129 58.949C63.6542 59.2468 63.0674 59.4535 62.4395 59.5395C62.0654 59.5908 61.6964 59.5549 61.2735 59.4419C61.7374 59.7641 62.1807 60.0029 62.6369 60.2172C63.3608 60.5587 64.1066 60.8449 64.8933 60.9977C65.2213 61.0619 65.5647 61.0593 65.9017 61.0734C67.2856 61.1312 68.6694 61.1402 70.0533 61.1171C70.8695 61.1029 71.6665 61.248 72.466 61.3725C73.4052 61.5175 74.3355 61.7396 75.2939 61.7409C76.7713 61.7435 78.1731 61.4161 79.4813 60.7217C80.3334 60.2686 81.1599 59.7667 82.0248 59.3418C82.7052 59.008 83.4433 58.8309 84.2108 58.8245C84.617 58.8219 85.0219 58.7757 85.4345 58.8155C85.4306 58.7218 85.3678 58.6781 85.3166 58.6294C84.5273 57.899 83.6214 57.365 82.5745 57.1172C81.921 56.9632 81.2509 56.8746 80.5833 56.7886C79.8107 56.6885 79.0329 56.6243 78.2564 56.5447C78.1757 56.5152 78.0924 56.5293 78.0104 56.5293C77.3044 56.5306 76.5906 56.5691 75.8949 56.469C75.1709 56.365 74.479 56.5678 73.7704 56.5653C73.2899 56.564 72.8107 56.6192 72.334 56.668C72.0124 56.7013 71.6959 56.718 71.3718 56.6898C71.1334 56.6692 70.8977 56.6294 70.6606 56.6012C70.0469 56.519 69.5189 56.288 69.132 55.7758C68.8783 55.4395 68.786 55.0942 68.9577 54.6976C69.0794 54.3484 69.3626 54.1777 69.6829 54.057C69.9315 53.9633 70.1891 53.9415 70.4492 54.0082C70.6119 54.0429 70.7746 54.0788 70.9374 54.1135C71.095 54.2008 71.168 54.1559 71.2257 53.9787C71.4448 53.3035 71.8958 52.8915 72.6147 52.8016C73.0823 52.6848 73.559 52.6476 74.0382 52.6206C74.315 52.6052 74.5815 52.5115 74.8608 52.5192C75.7885 52.4384 76.7175 52.3755 77.6503 52.4011C77.2262 52.2368 76.7841 52.1637 76.3421 52.0854C76.1793 52.0558 76.0179 52.0212 75.8552 51.9904C75.695 51.9596 75.5348 51.8967 75.3887 52.043C75.3413 52.0918 75.2593 52.0751 75.1927 52.0699C74.3944 52.0032 73.5987 51.9185 72.8312 51.6695C71.4717 51.0764 70.3979 50.1689 69.7163 48.83C69.633 48.6657 69.5664 48.4912 69.4933 48.3217C69.0487 47.4861 68.7219 46.6029 68.4657 45.6915C68.4336 45.318 68.3593 44.9483 68.3606 44.5709C68.3465 44.0112 68.2338 43.4452 68.5157 42.9112C68.6028 42.7469 68.7014 42.6057 68.8629 42.5081C69.8508 41.9176 70.8631 41.3734 71.8984 40.8715C71.9381 40.8522 71.9791 40.8329 72.0304 40.8137C71.769 40.7534 71.5076 40.7726 71.2564 40.7174C69.5638 40.6917 68.0223 40.1295 66.5309 39.385C64.8523 38.5468 63.4108 37.3915 62.0949 36.0668C61.6336 35.6021 61.1467 35.1631 60.6828 34.6997C59.1619 33.1799 57.5205 31.8102 55.724 30.6267C55.56 30.5189 55.3935 30.4894 55.2346 30.5433C54.576 30.7679 53.8981 30.8976 53.2165 31.0195C52.709 31.1107 52.226 31.2929 51.7391 31.4585C51.3585 31.5882 51.1368 31.4367 51.1074 31.0362C51.0638 30.4496 51.0292 29.8604 51.1253 29.2789C51.1971 28.8425 51.4328 28.5164 51.8352 28.2712C52.3964 27.9311 52.9397 27.9221 53.5265 28.1506C54.5247 28.5395 55.4729 29.017 56.2545 29.7654C57.623 31.076 59.1696 32.1581 60.6828 33.2826C61.4901 33.882 62.191 34.597 62.9367 35.2619C64.9497 37.0539 67.1728 38.4903 69.7047 39.4364C70.6683 39.7971 71.6498 39.9331 72.6749 39.9293C73.2284 39.9267 73.7166 39.8112 74.1804 39.5326C74.6994 39.3645 75.1825 39.1154 75.6668 38.8703C75.7398 38.833 75.8078 38.7868 75.8603 38.7214C76.0679 38.5365 76.3357 38.4736 76.5855 38.394C77.3351 38.154 77.9399 37.7509 78.3384 37.0513C78.6639 36.4801 79.1892 36.0963 79.6774 35.6753C80.3373 35.1079 81.1215 34.71 81.7634 34.1182C82.0325 33.8705 82.226 33.5637 82.4182 33.2633C82.9051 32.4995 83.5189 31.8359 84.066 31.1209C84.2108 30.9309 84.3402 30.7281 84.4773 30.5317C84.5286 30.4881 84.5644 30.429 84.6157 30.3867C84.6938 30.3212 84.74 30.3495 84.7656 30.4329C84.7912 30.2095 84.7694 29.9746 84.8028 29.7436C84.8181 29.6396 84.7874 29.5921 84.6695 29.6062C84.321 29.6473 83.9737 29.6332 83.6265 29.5895C83.0973 29.5523 82.6117 29.3533 82.1209 29.1788C79.5518 28.2687 76.9392 27.4933 74.3675 26.5935C72.8555 26.0647 71.3692 25.4665 69.8534 24.9492C68.1953 24.3844 66.5116 23.903 64.8062 23.5051C64.2975 23.387 63.7926 23.2599 63.2724 23.2034C62.9841 23.1341 62.9418 22.9608 63.1302 22.6219C63.5441 22.1508 63.7516 21.5822 63.8503 20.9801C64.2872 18.2794 64.9958 15.6492 65.8876 13.0665C66.7051 10.6995 67.7225 8.412 68.6656 6.095C69.4613 4.1401 70.1224 2.1466 70.6247 0.0979004C70.6286 0.0838004 70.6235 0.0684022 70.6222 0.0529022C70.603 0.0350022 70.6042 0.0183038 70.626 0.0042038C77.0058 0.0042038 83.3869 0.00539755 89.7667 0.000297546C89.9473 0.000297546 90.0024 0.0246963 90.0024 0.226196C89.996 29.8116 89.996 59.3983 89.996 88.9836C89.9845 88.999 89.9755 89.0042 89.9678 88.9965C89.9601 88.99 89.9576 88.9836 89.9576 88.9785C87.5307 87.9015 85.1756 86.6769 82.7834 85.5281C81.9428 85.125 81.1304 84.6719 80.2988 84.2534C80.2271 84.2175 80.1694 84.1546 80.1041 84.1032C79.8324 83.9055 79.5147 83.7836 79.2469 83.5769C79.1585 83.5089 79.0752 83.4332 78.9778 83.3767C78.8663 83.2663 78.7087 83.2098 78.6254 83.0673C78.5639 82.9428 78.4435 82.8684 78.3653 82.758C78.3064 82.6758 78.2167 82.5847 78.3653 82.4987C78.3743 82.4935 78.3717 82.491 78.3461 82.4666C77.8387 81.9737 77.3851 81.4332 76.9597 80.8672C76.8021 80.5925 76.5573 80.3884 76.36 80.1458C76.0192 79.4667 75.4272 78.9802 74.9954 78.3705C74.9774 78.3461 74.9595 78.3114 74.9339 78.3076C74.5789 78.2524 74.4444 77.9417 74.2317 77.721Z" fill="#010101"/>
<path d="M22.2855 30.1268C21.6563 30.2128 21.031 30.354 20.3968 30.3784C19.4294 30.4156 18.4594 30.3925 17.4907 30.4195C16.7616 30.44 16.0428 30.553 15.3534 30.8072C15.3163 30.8521 15.2625 30.8482 15.2112 30.8585C14.8832 30.9201 14.5449 30.9304 14.2246 31.0331C13.4737 31.3039 12.874 31.7789 12.3769 32.3937C12.0284 32.6453 11.6542 32.8392 11.2198 32.8944C11.1699 32.9008 11.116 32.9033 11.0738 32.9406C10.4254 33.2448 9.77576 33.549 9.12612 33.8532C8.45214 34.169 7.86656 34.6042 7.3694 35.1587C7.17977 35.5014 7.24255 35.6093 7.62311 35.6298C8.02289 35.6516 8.4137 35.7363 8.80963 35.789C8.83654 35.7903 8.86473 35.7928 8.89292 35.7954C9.162 35.8352 9.44902 35.762 9.70913 35.9289C9.14662 36.0739 8.59821 36.2562 8.04339 36.4205C7.39247 36.6259 6.80818 36.9635 6.23798 37.3268C6.05475 37.4449 5.90611 37.6143 5.69341 37.6862C5.16166 37.9981 4.73369 38.4294 4.3416 38.8941C4.06227 39.224 3.87391 39.6078 3.79831 40.0391C3.7714 40.2535 3.78422 40.2663 3.97385 40.1842C4.02126 40.1636 4.0738 40.1585 4.11736 40.1328C4.92076 39.7734 6.1201 39.473 6.52628 39.5321C5.80617 40.3279 4.9733 40.9954 4.20962 41.7361C3.60098 42.3253 2.94622 42.8657 2.39781 43.5178C1.74432 44.2931 1.23691 45.1544 0.855074 46.0915C0.764099 46.4355 0.632121 46.7654 0.510394 47.0991C0.456577 47.4829 0.264376 47.8385 0.284878 48.2364C0.290003 48.3468 0.186215 48.5278 0.327162 48.5432C0.477079 48.5612 0.409168 48.3533 0.436076 48.2518C0.756411 47.035 1.44833 46.0851 2.47212 45.3701C2.67458 45.2276 2.87831 45.0838 3.15252 44.9965C2.89368 45.4663 2.65664 45.9002 2.41703 46.3341C2.06338 46.9746 1.77379 47.6408 1.63157 48.3635C1.37914 49.1363 1.37273 49.9552 1.19847 50.7421C1.01012 51.5906 0.998584 52.4737 0.683374 53.2966C0.635965 53.4224 0.603931 53.5533 0.571898 53.6842C0.388666 54.2875 0.141368 54.8742 0.100365 55.5147C0.12471 55.611 0.0696128 55.6931 0.0503927 55.7817C0.0311726 55.8074 0.0209219 55.8343 0.0465487 55.8613C0.0734568 55.8882 0.100365 55.8728 0.12471 55.8561C0.163151 55.8279 0.151618 55.7701 0.192621 55.7432C0.318193 55.5622 0.279752 55.3209 0.409168 55.1399C0.864043 54.4531 1.52778 53.9576 2.05313 53.3338C2.08132 53.3004 2.1236 53.2401 2.15435 53.2542C2.3773 53.3492 2.467 53.1374 2.61563 53.0642C3.01029 52.7035 3.3319 52.2696 3.75218 51.9359C3.82266 51.8987 3.88672 51.8512 3.97001 51.7973C3.94566 52.1066 3.81369 52.3595 3.71502 52.6226C3.44594 53.2272 3.08717 53.7843 2.80783 54.3825C2.31452 55.4402 2.11463 56.5634 2.09797 57.7315C2.08772 58.4183 2.14538 59.0819 2.42087 59.716C2.47084 59.8303 2.49263 59.942 2.49006 60.0639C2.47725 60.9227 2.4465 61.7814 2.46444 62.6389C2.48109 63.4887 2.68867 64.2807 3.23068 64.9738C3.52538 65.3499 3.95976 65.5463 4.26984 65.8955C4.33904 65.9738 4.38773 66.0303 4.39541 66.1355C4.42489 66.5463 4.54533 66.9301 4.75291 67.287C5.23469 68.1188 5.50634 68.4114 6.4494 69.2933C6.56472 69.4011 6.68517 69.4473 6.80049 69.5269C7.09776 69.7297 7.44885 69.8042 7.78712 69.8632C8.27403 69.948 8.77375 69.9351 9.26835 69.8979C9.4157 69.8876 9.54384 69.8363 9.66556 69.7554C10.1768 69.4217 10.656 69.0468 11.0814 68.6078C11.2224 68.4615 11.2711 68.5514 11.3006 68.672C11.3492 68.8697 11.3326 69.0725 11.3211 69.2766C11.2736 70.0994 11.1993 70.9274 11.5555 71.7117C11.6247 71.7489 11.5786 71.9081 11.6939 71.8734C11.7849 71.8465 11.7913 71.7309 11.7964 71.6398C11.7977 71.6154 11.7964 71.591 11.7939 71.5666C11.8861 71.9491 11.9989 72.3304 11.9771 72.7245C11.9566 73.1108 11.9053 73.4959 11.8426 73.8785C11.7413 74.424 11.4979 74.9105 11.2275 75.3867C11.2006 75.4342 11.1071 75.4984 11.1891 75.5536C11.2506 75.5947 11.3108 75.5292 11.3454 75.465C11.8003 75.2802 12.0591 74.8592 12.4307 74.5768C12.3128 74.7205 12.2616 74.9015 12.2154 75.0825C12.168 75.2686 12.2154 75.3084 12.4204 75.2763C12.4755 75.2699 12.5204 75.2622 12.5768 75.2301C12.9419 75.0248 13.2136 74.7026 13.5493 74.4625C13.6569 74.3354 13.762 74.4664 13.8684 74.4664L13.8645 74.46C14.0106 74.1365 14.2617 73.9131 14.559 73.7321C14.6026 73.7065 14.6346 73.6602 14.6718 73.6243C15.1728 73.1275 15.6174 72.582 16.0325 72.012C16.1261 71.885 16.2119 71.7515 16.3311 71.6462C16.5348 71.4395 16.6642 71.1841 16.7924 70.9287C16.8411 70.826 16.8898 70.722 16.9372 70.6193C17.0743 70.4537 17.2344 70.4332 17.4394 70.4896C18.0763 70.6642 18.7169 70.8195 19.3486 71.0121C19.7715 71.1417 20.193 71.2701 20.6325 71.342C21.1771 71.4318 21.7114 71.5782 22.265 71.6128C22.3944 71.659 22.5289 71.6616 22.6622 71.6783C23.5681 71.7964 24.4727 71.9029 25.3812 71.704C25.5683 71.6526 25.7643 71.6539 25.9527 71.6051C26.5229 71.4562 27.102 71.3523 27.6312 71.0557C27.9336 70.8876 28.2911 70.8106 28.6294 70.7079C28.9177 70.6013 29.2034 70.4896 29.4879 70.3728C30.3861 70.0031 31.2228 69.473 32.2056 69.3177C32.3606 69.2638 32.5285 69.2625 32.6835 69.2086C33.164 69.043 33.6715 68.9685 34.143 68.7709C35.2321 68.5411 36.279 68.1342 37.3886 67.9904C37.5616 67.957 37.7346 67.9198 37.9076 67.8851C37.9652 67.8736 38.0049 67.8505 38.0037 67.7876C38.0024 67.7208 37.9563 67.699 37.8986 67.7029C37.773 67.7106 37.6475 67.681 37.5244 67.7221C36.83 67.8261 36.1329 67.9224 35.4397 68.0392C34.7849 68.1483 34.1404 68.3126 33.501 68.4897C32.8386 68.6746 32.1889 68.9198 31.5111 69.0263C30.554 69.1752 29.5891 69.2702 28.6281 69.3832C28.5102 69.3973 28.3872 69.3844 28.268 69.3742C27.7196 69.3254 27.2289 69.1226 26.7779 68.8119C26.4857 68.7015 26.1756 68.6104 25.9386 68.4063C25.64 68.1496 25.2941 68.0494 24.925 67.9827C24.8763 67.9776 24.8264 67.9788 24.779 67.966C24.2831 67.8903 23.7872 67.8133 23.2875 67.7696C23.1363 67.7876 22.9953 67.7157 22.8429 67.7221C21.5666 67.7722 20.3096 67.5886 19.0578 67.3691C18.8707 67.3139 18.6836 67.2626 18.4991 67.2022C18.0519 67.0572 17.6368 66.8338 17.2767 66.5463C16.3324 65.7902 15.3291 65.1125 14.4642 64.2512C13.8081 63.5978 13.2238 62.8841 12.5947 62.2076C12.4563 62.0946 12.3846 61.9444 12.3487 61.7712C12.3064 61.5671 12.2782 61.3617 12.2475 61.1563C12.2385 61.0972 12.2334 61.0369 12.2193 60.9779C11.8938 59.5492 11.7183 58.1025 11.7016 56.6366C11.6978 56.2823 11.685 55.9665 11.4556 55.6289C11.034 55.0102 10.8008 54.2773 10.5663 53.5687C10.3588 52.9436 10.1358 52.321 9.95643 51.6856C9.86417 51.3583 9.66172 51.0759 9.5874 50.7472C9.50412 50.3801 9.50796 50.0014 9.49258 49.6253C9.46567 49.0092 9.42083 48.3918 9.41827 47.7743C9.4157 47.0067 9.28116 46.2429 9.35932 45.4728C9.37726 45.2905 9.41186 45.1454 9.57843 45.0389C9.663 44.985 9.73988 44.8938 9.78217 44.8014C10.0769 44.1519 10.5407 43.6115 10.9213 43.0184C11.5235 42.0814 12.1257 41.1456 12.3295 40.0211C12.35 39.9095 12.423 39.9005 12.5037 39.8851C13.0175 39.7811 13.5314 39.6797 14.0439 39.5757C14.1157 39.5616 14.1695 39.5513 14.2066 39.55H14.213L15.784 39.3049C15.8186 39.242 15.8852 39.2189 15.9928 39.224C16.3221 39.2394 16.6501 39.2047 16.9769 39.1752C17.1601 39.1598 17.36 39.2009 17.5612 39.0623C17.5548 39.0597 17.5484 39.0571 17.542 39.0546C18.2159 39.0995 18.8899 39.0186 19.5639 39.0096C19.6754 38.9929 19.7894 38.9891 19.8958 38.9596C20.2494 38.8607 20.6479 38.9262 20.9593 38.672C21.1156 38.5437 21.2642 38.4063 21.4129 38.269C22.5763 37.1856 23.481 35.866 24.6149 34.7556C24.7905 34.5836 24.9443 34.3872 25.1083 34.2011C25.1762 34.0997 25.2479 34.0034 25.3799 33.9816C25.5862 33.9469 25.7912 33.8994 26.0026 33.8866C26.3832 33.8635 26.7586 33.7839 27.1392 33.7493C27.6018 33.7056 28.0425 33.5554 28.5141 33.5323C29.616 33.4797 30.718 33.4052 31.8225 33.4129C32.5733 33.4181 33.3255 33.4194 34.0776 33.4091C34.644 33.4014 35.2155 33.3115 35.7677 33.5195C35.9907 33.5837 36.2136 33.6491 36.4366 33.7108C36.4853 33.7236 36.5493 33.7326 36.5686 33.6671C36.5839 33.6119 36.5237 33.5978 36.4866 33.5785C36.4532 33.5618 36.4161 33.5516 36.3815 33.5387C35.3679 33.1742 34.3531 32.8135 33.3229 32.4939C32.6912 32.2987 32.098 31.9701 31.4522 31.8174C30.9384 31.6954 30.5924 31.4631 30.4322 30.9381C30.3272 30.5954 30.0683 30.3951 29.6775 30.4426C29.3802 30.4002 29.0817 30.449 28.7844 30.4131C28.1848 30.3425 27.6018 30.182 27.0059 30.087C26.6292 30.0254 26.2666 29.8906 25.8835 29.8624C24.6713 29.7713 23.4784 29.9638 22.2855 30.1268ZM11.7682 71.4588C11.7529 71.4075 11.7349 71.3561 11.7247 71.306C11.7554 71.3471 11.758 71.4062 11.7682 71.4588ZM17.2075 39.0212C17.1716 39.0199 17.1371 39.016 17.1025 39.0058C17.1371 39.0109 17.1729 39.016 17.2075 39.0212Z" fill="#010101"/>
<path d="M50.3411 58.7734C50.2988 58.7696 50.2565 58.7657 50.2155 58.7619C50.1361 58.7272 50.0528 58.7413 49.9733 58.7478C49.6581 58.7709 49.4441 58.613 49.3826 58.3036C49.3621 58.2009 49.3403 58.0982 49.3237 57.9956C49.2904 57.7799 49.2173 57.5925 48.9995 57.4988C48.3909 57.2061 47.9552 56.7389 47.6298 56.1535C47.4478 55.8262 47.2479 55.5104 47.0557 55.1895C46.8264 54.635 46.5086 54.1228 46.2997 53.5606C46.2254 53.3616 46.2741 53.1421 46.2703 52.9316C46.2677 52.8007 46.2549 52.6864 46.1536 52.5837C45.9922 52.4194 46.0383 52.2025 46.0575 52.0022C46.0716 51.852 46.0934 51.7031 46.0883 51.5517C46.0857 51.4747 46.0781 51.4002 46.0281 51.3386C45.6731 50.9073 45.7129 50.4028 45.75 49.8945C45.809 49.0832 46.219 48.3901 46.5111 47.661C46.8443 46.8279 47.1672 45.9935 47.3671 45.1155C47.4978 44.543 47.6682 43.9808 47.8143 43.4121C47.8412 43.3056 47.863 43.2054 47.7694 43.1207C47.7451 43.1066 47.7207 43.0912 47.6977 43.0771C47.6157 43.0809 47.5401 43.0386 47.4568 43.0398C47.4017 43.0411 47.3568 42.9962 47.3568 42.9372C47.3555 42.8653 47.4055 42.8216 47.4721 42.8255C47.7707 42.8409 48.0693 42.8691 48.3652 42.9115C48.5036 42.9307 48.5613 43.0617 48.5651 43.2042C48.5754 43.5726 48.56 43.941 48.5779 44.3094C48.5805 44.3607 48.5523 44.3671 48.6266 44.3492C48.683 44.335 48.6907 44.457 48.6792 44.5199C48.6356 44.7638 48.6997 45.0282 48.5049 45.2451C48.437 45.3196 48.428 45.4569 48.4639 45.5712C48.4959 45.6752 48.4883 45.7766 48.4626 45.8805C48.273 46.5198 48.1026 47.1655 47.8873 47.797C47.772 48.1359 47.7515 48.4581 47.8847 48.7803C48.0385 49.1513 48.0654 49.5325 48.0449 49.9253C47.9975 50.8033 48.2281 51.6582 48.255 52.5298C48.2781 53.2936 48.5254 53.9996 48.8227 54.6915C48.8419 54.8006 48.9303 54.8019 49.011 54.8096C49.2301 54.8301 49.4223 54.7569 49.6017 54.6401C49.6581 54.6029 49.7004 54.5464 49.7568 54.5117C50.0912 54.2948 50.1386 53.9842 50.0784 53.6209C50.0438 53.4091 50.0412 53.1922 50.0848 52.9778C50.4718 52.7467 50.409 52.3668 50.4039 52.0074C50.4013 51.82 50.3974 51.6338 50.3936 51.4464C50.3987 51.1371 50.3244 50.8303 50.3923 50.5145C50.4269 50.3527 50.3334 50.1795 50.2424 50.0331C50.195 49.9574 50.1578 49.8932 50.2206 49.8111C50.5461 49.4901 50.4846 49.0588 50.5179 48.6673C50.5397 48.4093 50.6447 48.2861 50.8626 48.2116C51.0727 48.141 51.3341 48.2142 51.4725 48.3901C51.821 48.8368 52.0734 49.3335 52.1183 49.9035C52.1695 50.5479 52.3848 51.1499 52.5398 51.7673C52.6001 52.0074 52.7039 52.2397 52.741 52.4823C52.8115 52.9444 53.1062 53.2281 53.4624 53.4643C53.8007 53.6876 54.1415 53.9123 54.499 54.0984C55.3114 54.522 55.6881 55.6311 54.6951 56.4436C54.2927 56.7735 53.8058 56.9994 53.3509 57.2626C53.2266 57.3345 53.0754 57.3422 52.9319 57.3242C52.6885 57.2947 52.4553 57.3075 52.2451 57.4513C51.9504 57.4616 51.6519 57.441 51.3597 57.4808C51.1381 57.5103 50.9087 57.4526 50.6934 57.5411C50.3872 57.6669 50.3411 57.7722 50.4577 58.0751C50.5038 58.1945 50.555 58.3113 50.5743 58.4384C50.5999 58.6284 50.541 58.7105 50.3411 58.7734Z" fill="#020202"/>
<path d="M13.2482 62.0382C13.375 62.1807 13.4878 62.3257 13.6198 62.4502C14.4578 63.2435 15.4534 63.6658 16.6002 63.7955C17.8213 63.9328 19.0424 64.0291 20.2687 63.9213C21.2578 63.8353 22.2355 63.6646 23.2055 63.4605C23.5924 63.3796 23.9679 63.4142 24.3382 63.5388C24.7431 63.6748 25.1352 63.8468 25.5337 63.9996C25.7951 64.0997 26.0014 64.255 26.1193 64.4951C26.4742 65.2101 27.0931 65.6658 27.6902 66.1458C27.7017 66.1548 27.7158 66.1625 27.7248 66.1741C27.7696 66.2267 27.8849 66.2395 27.8529 66.3332C27.826 66.4128 27.735 66.409 27.6581 66.4116C27.4172 66.4218 27.1776 66.4424 26.9367 66.4475C26.1167 66.4667 25.2966 66.513 24.4779 66.4899C22.9864 66.4475 21.5013 66.599 20.0124 66.6015C19.1219 66.6028 18.2403 66.5669 17.3767 66.3243C17.2485 66.2883 17.1447 66.2383 17.0525 66.1407C16.1991 65.2357 15.2727 64.4104 14.3489 63.5798C13.9094 63.1858 13.5032 62.7288 13.2264 62.1858C13.2085 62.1537 13.1854 62.1229 13.2482 62.0382Z" fill="#030303"/>
<path d="M36.2144 32.0706C35.9313 32.1797 35.6468 32.2888 35.3636 32.3979C34.8998 32.5199 34.6307 32.2144 34.4231 31.9012C34.2207 31.5957 34.1194 31.2273 34.3193 30.8563C34.6538 30.3698 35.1509 30.1978 35.7045 30.1452C35.8762 30.1285 36.0504 30.122 36.2221 30.1323C36.9 30.1734 37.5099 29.8705 38.1595 29.7665C38.4286 29.7241 38.699 29.7138 38.9591 29.8076C39.5075 30.0039 39.7022 30.5456 39.4101 31.0501C39.3652 31.1284 39.3204 31.2067 39.2858 31.2902C39.1961 31.5071 39.2089 31.6996 39.3896 31.8819C39.5728 32.0655 39.765 32.2221 40.0123 32.3132C40.3122 32.4236 40.4364 32.9063 40.2391 33.1591C40.1379 33.2888 39.815 33.2323 39.7112 33.0654C39.6715 33.0013 39.642 32.9319 39.642 32.8536C39.601 32.6572 39.4895 32.5225 39.3166 32.4185C39.0731 32.2734 38.854 32.0822 38.5593 32.0398C38.4939 32.0218 38.4235 32.0129 38.3812 31.9487C38.1134 31.8293 37.8289 31.855 37.547 31.855C37.0922 31.8537 36.6411 31.8922 36.2144 32.0706Z" fill="#040404"/>
<path d="M40.78 30.8068C40.5186 30.6386 40.3905 30.3652 40.2906 30.0982C40.0638 29.4962 39.6191 29.0777 39.1707 28.6605C38.9746 28.4782 38.767 28.3024 38.5223 28.1817C37.9944 27.9789 37.446 28.0084 36.8989 28.0521C36.221 28.1073 35.5458 28.192 34.8731 28.296C34.7923 28.3088 34.7078 28.3139 34.6411 28.3704C34.2593 28.5155 33.88 28.6567 33.511 28.8389C33.0805 29.0507 33.06 29.3575 33.0753 29.7888C33.101 30.5218 33.5123 31.025 34.0043 31.4922C34.0466 31.5474 34.0466 31.6026 33.9876 31.6399C33.8864 31.7053 33.8134 31.6219 33.7339 31.5795C32.6704 30.9788 31.9362 30.0956 31.5083 28.9545C31.3417 28.5116 31.5646 27.9712 32.0144 27.7864C32.6269 27.5361 33.2522 27.4154 33.9223 27.5874C34.3823 27.7055 34.8602 27.7119 35.3241 27.5579C35.8277 27.391 36.3351 27.486 36.8438 27.5271C37.3217 27.5656 37.7996 27.5938 38.2737 27.6708C38.4057 27.6927 38.5492 27.7068 38.6645 27.7671C39.2322 28.0636 39.787 28.3781 40.1227 28.9635C40.2649 29.2112 40.4494 29.4269 40.6878 29.5899C40.8518 29.7478 40.9504 29.9531 41.0876 30.1303C41.2503 30.3408 41.1926 30.559 41.0786 30.7631C41.0081 30.8889 40.8851 30.8299 40.78 30.8068Z" fill="#080808"/>
<path d="M26.0549 46.8262C26.1587 46.9686 26.1881 47.1355 26.1561 47.2972C26.0702 47.7286 26.2112 48.0739 26.5187 48.3665C26.8698 48.7016 26.9313 49.1033 26.7481 49.5334C26.5853 49.9172 26.725 50.2265 26.9275 50.5333C27.0056 50.6514 27.0915 50.7644 27.1773 50.8773C27.2414 50.9608 27.2837 51.066 27.2209 51.1456C27.1466 51.238 27.0428 51.1687 26.9556 51.1276C26.6097 50.9646 26.306 50.7361 26.092 50.4229C25.9395 50.1996 25.7781 50.0186 25.5116 49.9518C25.3296 49.8337 25.2271 49.6527 25.1169 49.4717C24.6633 48.7234 24.4711 47.9108 24.5006 47.0405C24.5019 46.9956 24.4942 46.9507 24.516 46.9083C24.5993 46.6413 24.5711 46.409 24.343 46.2126C24.1828 46.0739 24.1418 45.8647 24.0995 45.6683C23.9791 45.1228 23.9061 44.5708 24.1521 44.0407C24.2764 43.7711 24.4634 43.531 24.5634 43.2461C24.6518 43.0985 24.712 42.9393 24.7569 42.7737C24.7799 42.6903 24.8222 42.6376 24.9106 42.644C25.0208 42.6518 24.9773 42.7403 24.9849 42.7994C25.0195 43.1062 24.9414 43.4091 24.9516 43.7159C24.9542 43.7903 24.9363 43.8648 24.9683 43.9367C25.0272 44.5849 25.1438 45.2267 25.1887 45.8775C25.1989 46.0277 25.2861 46.1587 25.4257 46.2382C25.6538 46.4141 25.8844 46.5887 26.0549 46.8262Z" fill="#040404"/>
<path d="M29.6986 44.5125C30.4494 44.8142 31.0798 45.2147 30.9261 46.1427C30.7967 46.9181 30.616 47.2313 29.5627 47.5291C29.7562 47.832 29.9318 48.1311 30.279 48.2685C30.4738 48.3455 30.6711 48.4186 30.8723 48.4764C31.1221 48.5483 31.249 48.7177 31.272 48.9629C31.3041 49.3121 31.4027 49.6522 31.3951 50.0052C31.3938 50.0848 31.4335 50.1811 31.3233 50.2157C31.2208 50.2478 31.1606 50.1618 31.1375 50.0899C31.0824 49.9179 30.9491 49.8627 30.8018 49.7947C30.352 49.5906 29.983 49.2761 29.7408 48.8474C28.8106 47.1941 28.7965 45.5035 29.5768 43.7911C29.6524 43.6242 29.7665 43.4907 29.9061 43.3701C30.2598 43.0659 30.5827 42.7283 30.8851 42.3714C30.9248 42.3252 30.9517 42.2302 31.0337 42.2623C31.108 42.2918 31.0786 42.383 31.0824 42.4446C31.0952 42.6769 31.035 42.8861 30.8902 43.0761C30.5186 43.569 30.124 44.0401 29.6986 44.5125Z" fill="#070707"/>
<path d="M42.0469 50.2208C41.9431 50.3555 41.8636 50.5032 41.8137 50.6662C41.8008 50.8485 41.7368 51.0269 41.7688 51.213C41.7739 51.2259 41.7765 51.24 41.7765 51.2528C41.7983 51.3452 41.8226 51.4377 41.7752 51.5301C41.7586 51.7521 41.5279 51.7637 41.4164 51.8946C41.1781 51.9639 40.9411 52.05 40.6848 51.9845C40.4695 51.9935 40.3542 51.8497 40.2594 51.6905C39.9967 51.2464 40.0659 50.7945 40.2453 50.3453C40.2645 50.2991 40.2978 50.258 40.3247 50.2143C40.5656 49.9153 40.8911 49.8138 41.2588 49.81C41.4613 49.8074 41.6637 49.8074 41.8662 49.8113C41.9597 49.8126 42.0738 49.7805 42.1225 49.8986C42.1724 50.0179 42.1583 50.1322 42.0469 50.2208Z" fill="#070707"/>
<path d="M43.7486 33.2522C43.9062 33.1752 44.0689 33.1072 44.2201 33.0199C44.4328 32.8979 44.534 32.7092 44.534 32.4602C44.5353 31.9673 44.4674 31.4898 44.3072 31.02C44.1842 30.6606 43.9766 30.3961 43.664 30.1856C43.4334 30.0303 43.1745 30.0521 42.9298 30.0085C42.3429 29.9045 41.8227 29.6953 41.4281 29.2293C41.182 28.9392 40.8617 28.7428 40.5234 28.5323C40.6721 28.4463 40.781 28.513 40.8822 28.5567C41.291 28.7325 41.6792 28.943 41.9598 29.305C42.0854 29.4655 42.252 29.5155 42.4429 29.5451C43.0285 29.6362 43.6192 29.7209 44.0958 30.1266C44.5917 30.5489 44.8031 31.1227 44.9223 31.735C44.9979 32.1201 45.0081 32.5128 44.9338 32.9031C44.921 32.9685 44.9325 33.0468 44.8454 33.0661C44.4841 33.1508 44.1214 33.233 43.7588 33.3164C43.7563 33.2946 43.7524 33.2728 43.7486 33.2522Z" fill="#101010"/>
<path d="M40.418 47.0991C40.992 46.4329 41.6929 45.9104 42.3746 45.3688C42.9012 44.9503 43.3984 44.5203 43.7392 43.9221C43.9519 43.5486 44.0621 43.1506 44.1684 42.7437C44.2005 42.6205 44.2082 42.4767 44.3799 42.3933C44.4926 43.8335 43.9532 44.9336 42.7718 45.7038C42.1619 46.1017 41.5404 46.4804 40.9536 46.9117C40.8306 47.0041 40.7268 47.1235 40.5871 47.1915C40.4731 47.2506 40.4436 47.2288 40.418 47.0991Z" fill="#0E0E0E"/>
<path d="M30.4436 41.9413C30.2219 42.234 29.8952 42.4086 29.6351 42.6576C28.241 43.9887 27.8271 45.5856 28.3371 47.4353C28.5049 48.0438 28.7945 48.5919 29.1661 49.1002C29.2212 49.1759 29.3019 49.2388 29.3147 49.3672C29.1776 49.3466 29.0943 49.2632 29.0239 49.1721C28.0436 47.8923 27.6439 46.4585 27.9552 44.8667C28.1423 43.9143 28.6625 43.1351 29.4083 42.5138C29.6684 42.2969 29.9413 42.0979 30.2091 41.8913C30.2937 41.881 30.3975 41.7847 30.4436 41.9413Z" fill="#0F0F0F"/>
<path d="M32.2997 49.0386C32.8597 48.2287 33.0224 47.325 32.9596 46.3879C32.8981 45.4675 32.7905 44.5408 32.0742 43.8322C32.2895 43.7873 32.6137 43.9426 32.7303 44.1531C33.4824 45.5035 33.5939 46.9001 33.0237 48.3442C32.9302 48.5804 32.7815 48.7755 32.5944 48.9437C32.5124 49.0194 32.424 49.0669 32.2997 49.0386Z" fill="#0F0F0F"/>
<path d="M25.1094 34.1992C25.1324 34.0349 25.2362 33.9656 25.39 33.9271C25.923 33.7936 26.4727 33.7846 27.0147 33.7114C27.3248 33.6691 27.6234 33.5831 27.9258 33.5176C28.2077 33.456 28.4921 33.4701 28.7727 33.4483C29.2122 33.4123 29.6556 33.3995 30.0963 33.3777C31.6211 33.302 33.1472 33.3815 34.6707 33.3315C35.0667 33.3186 35.4229 33.334 35.7676 33.5189C35.0333 33.4586 34.2953 33.4213 33.5611 33.4688C32.9537 33.5086 32.3451 33.4791 31.7403 33.5163C30.8805 33.5702 30.0195 33.5946 29.1597 33.655C27.9834 33.7384 26.8084 33.8411 25.6398 33.9964C25.4464 34.0208 25.2516 34.0413 25.1094 34.1992Z" fill="#484848"/>
<path d="M26.3826 40.6284C26.1007 41.0443 26.1571 41.5282 26.0969 41.9916C26.0508 42.3433 25.9418 42.6925 25.7907 43.0198C25.7317 43.1481 25.5677 43.1648 25.5088 43.0378C25.3307 42.6501 25.1692 42.2547 25.1346 41.8221C25.1154 41.5821 25.2538 41.4024 25.3998 41.2471C25.633 40.998 25.8381 40.7323 26.0123 40.4409C26.0802 40.3434 26.161 40.2728 26.2891 40.3267C26.4364 40.3883 26.4006 40.5115 26.3826 40.6284Z" fill="#0D0D0D"/>
<path d="M47.7685 43.12C47.8864 43.1585 47.9325 43.2214 47.8928 43.3575C47.5712 44.4588 47.3726 45.5974 46.9677 46.6744C46.6589 47.4934 46.2924 48.2892 45.9874 49.1095C45.7619 49.7141 45.7132 50.3456 45.8824 50.9823C45.899 51.0452 45.9259 51.0927 45.9682 51.135C46.1963 51.3648 46.1707 51.6408 46.1322 51.9309C46.1002 52.1671 46.0233 52.4277 46.2745 52.6125C46.3526 52.6703 46.3424 52.7627 46.3308 52.8423C46.2514 53.4122 46.4692 53.9039 46.746 54.3724C46.8985 54.6304 46.9895 54.9025 47.0561 55.1875C46.951 55.1439 46.9023 55.054 46.8549 54.9577C46.7332 54.7087 46.6115 54.4584 46.4808 54.2145C46.2847 53.8461 46.113 53.479 46.2078 53.0374C46.2411 52.8808 46.2168 52.7126 46.0464 52.6074C45.9759 52.5637 45.9631 52.47 45.9644 52.3827C45.9708 52.1273 45.9516 51.8706 46.0003 51.6164C46.0156 51.5343 46.0208 51.456 45.9605 51.3828C45.5941 50.9297 45.5889 50.4188 45.662 49.8655C45.7722 49.0363 46.1489 48.3085 46.4628 47.5575C47.0087 46.2495 47.3572 44.8837 47.7262 43.5218C47.7621 43.3947 47.7557 43.2548 47.7685 43.12Z" fill="#484848"/>
<path d="M32.0692 63.6049C32.123 63.8385 32.3216 64.0259 32.2857 64.2891C31.6732 63.5009 31.2055 62.637 31.0095 61.6512C30.7532 60.3586 30.9224 59.1173 31.5477 57.9492C31.5541 57.9376 31.5694 57.9312 31.5874 57.9184C31.6848 58.0891 31.6463 58.2598 31.5951 58.4292C31.3157 59.3483 31.1671 60.2867 31.2529 61.2481C31.3273 62.0825 31.5348 62.8822 31.9987 63.5959C32.0089 63.6126 32.0269 63.6241 32.041 63.637C32.0499 63.6254 32.0602 63.6152 32.0692 63.6049Z" fill="#111111"/>
<path d="M35.7969 57.3266C36.1992 57.2803 36.5554 57.4742 36.9321 57.5563C37.4677 57.6731 37.9931 57.7579 38.5518 57.6937C39.2142 57.6179 39.8843 57.6937 40.5468 57.7784C41.2349 57.867 41.9242 57.9645 42.5957 58.1391C42.9916 58.2418 43.3696 58.4138 43.754 58.5601C43.9488 58.6346 44.1704 58.6256 44.3447 58.7578C43.786 58.7116 43.2581 58.555 42.7289 58.3663C42.2625 58.2007 41.7589 58.1237 41.2656 58.048C40.8454 57.9838 40.4264 57.9132 40.0074 57.8464C39.6127 57.7835 39.218 57.772 38.826 57.8516C37.8688 58.048 36.9731 57.8336 36.1006 57.4601C35.998 57.4164 35.8981 57.3715 35.7969 57.3266Z" fill="#333333"/>
<path d="M59.1914 59.4042C59.4464 59.5351 59.6322 59.7559 59.8667 59.9164C60.9789 60.6763 62.1475 61.3104 63.4813 61.5851C63.9067 61.6737 64.3334 61.7892 64.7639 61.8187C65.3905 61.8624 66.0222 61.8393 66.6526 61.8444C66.8256 61.8457 66.9986 61.8444 67.1716 61.8393C67.3394 61.8328 67.4138 61.8996 67.3689 62.0703C67.3394 61.9548 67.2741 61.9201 67.1472 61.9124C66.5924 61.8778 66.0414 61.9574 65.4853 61.9407C64.8152 61.9201 64.1617 61.8277 63.5031 61.7224C62.9714 61.6377 62.4499 61.5119 61.9501 61.3309C61.289 61.0909 60.6957 60.7109 60.1255 60.2963C59.7719 60.0422 59.4144 59.7957 59.1914 59.4042Z" fill="#535353"/>
<path d="M55.5772 50.0403C55.704 50.0994 55.7117 50.2804 55.8731 50.3163C55.9231 50.3279 55.8744 50.4087 55.827 50.4344C55.7514 50.4755 55.6912 50.532 55.6656 50.6141C55.6335 50.7168 55.5285 50.8426 55.6246 50.926C55.7296 51.0185 55.7668 50.8464 55.8411 50.8028C55.8962 50.7694 55.9526 50.7681 56.0102 50.7579C56.3447 50.7014 56.6214 50.5435 56.8303 50.2727C56.8444 50.2547 56.87 50.2341 56.8687 50.2187C56.8341 49.9774 56.9802 49.9248 57.1763 49.9158C57.2096 49.9145 57.2416 49.8863 57.2467 49.8414C57.2519 49.8016 57.1289 49.7271 57.2736 49.7233C57.3428 49.7207 57.3813 49.7643 57.3954 49.8324C57.4069 49.8914 57.4236 49.9479 57.4364 50.0069C57.3236 49.9749 57.2147 49.9415 57.1865 50.1148C57.1775 50.1674 57.1391 50.2098 57.0891 50.2329C56.8585 50.3394 56.7611 50.5307 56.7099 50.772C56.6368 51.1057 56.3908 51.1828 56.123 50.9787C55.9846 50.8734 55.959 50.9812 55.9462 51.0891C55.9116 51.3958 55.7591 51.5987 55.4529 51.6808C55.3247 51.7155 55.1825 51.7501 55.0992 51.641C55.0082 51.5229 55.0595 51.3715 55.1376 51.2521C55.2722 51.0454 55.3914 50.8298 55.5003 50.609C55.5861 50.4254 55.6194 50.2393 55.5772 50.0403Z" fill="#1B1B1B"/>
<path d="M16.9375 70.6185C16.9875 70.4042 17.1079 70.331 17.3296 70.39C18.2381 70.6301 19.1401 70.8958 20.0473 71.1435C20.67 71.313 21.3094 71.4349 21.9527 71.5196C22.0603 71.5338 22.1756 71.5363 22.2653 71.6133C21.5785 71.7019 20.9302 71.4657 20.2703 71.3579C19.2747 71.1949 18.2867 70.9805 17.3373 70.6211C17.213 70.5723 17.0708 70.5813 16.9375 70.6185Z" fill="#303030"/>
<path d="M71.2569 40.7168C71.5606 40.704 71.8655 40.6937 72.1987 40.7836C72.0539 40.858 71.936 40.9209 71.8169 40.9787C70.8136 41.4601 69.841 41.9992 68.8826 42.5627C68.7429 42.6449 68.6596 42.7732 68.5802 42.9157C68.3162 43.3829 68.3636 43.8887 68.3649 44.3906C68.3649 44.4509 68.3624 44.51 68.3611 44.5703C68.2791 44.071 68.2265 43.5588 68.3534 43.0736C68.4405 42.7398 68.6481 42.4164 69.0043 42.2559C69.6437 41.9671 70.2024 41.5345 70.8289 41.2239C71.1198 41.0801 71.4222 40.9607 71.7643 40.8118C71.5606 40.7964 71.4043 40.7746 71.2569 40.7168Z" fill="#4C4C4C"/>
<path d="M72.832 51.6658C73.1601 51.73 73.4881 51.8006 73.8174 51.8584C74.1557 51.9174 74.4939 51.9739 74.8373 51.9791C74.9565 51.9803 75.0757 51.9765 75.1935 52.015C75.2576 52.0355 75.3588 52.0407 75.3832 51.9855C75.4677 51.7839 75.6177 51.8699 75.7394 51.8982C76.307 52.0265 76.8887 52.0843 77.4461 52.2563C77.5922 52.3012 77.7344 52.359 77.8741 52.4322C77.6678 52.5053 77.4564 52.4989 77.2591 52.4694C76.7171 52.386 76.184 52.4964 75.6471 52.5079C75.3857 52.5143 75.1243 52.531 74.863 52.5195C75.4152 52.4014 75.9752 52.4052 76.5351 52.3937C76.6619 52.3911 76.7888 52.3937 76.9169 52.3731C76.6171 52.2589 76.2993 52.2486 75.9892 52.2075C75.1974 52.1036 74.4004 52.0381 73.6111 51.9149C73.3471 51.8738 73.0691 51.816 72.832 51.6658Z" fill="#323232"/>
<path d="M70.6602 56.6011C70.9613 56.5806 71.256 56.6448 71.5532 56.6692C71.8915 56.6961 72.2221 56.6101 72.5565 56.5793C72.8013 56.5575 73.0486 56.5344 73.2933 56.5177C73.9724 56.4689 74.6554 56.4638 75.3242 56.3226C75.5369 56.2777 75.7073 56.406 75.9085 56.4201C76.6043 56.4664 77.3001 56.4972 77.9984 56.4984C78.0855 56.4984 78.1803 56.4728 78.2572 56.5421C77.4615 56.5447 76.6658 56.5498 75.8701 56.5472C74.7809 56.5447 73.6969 56.6255 72.6129 56.7231C71.9838 56.7796 71.3572 56.777 70.737 56.6409C70.7088 56.6345 70.6845 56.614 70.6602 56.6011Z" fill="#3B3B3B"/>
<path d="M1.63076 48.3609C1.65639 48.5226 1.59873 48.6715 1.55773 48.8217C1.45906 49.1811 1.44753 49.5495 1.40525 49.9167C1.3258 50.6034 1.13232 51.2773 1.06057 51.9641C0.996501 52.5789 0.782517 53.136 0.582628 53.7047C0.567252 53.715 0.551877 53.7124 0.539062 53.6983C0.576221 53.4146 0.640288 53.1348 0.736389 52.8678C0.931152 52.3286 0.896557 51.7574 0.996502 51.2054C1.16692 50.2684 1.3194 49.3288 1.59104 48.4148C1.59873 48.3943 1.61795 48.3789 1.63076 48.3609Z" fill="#484848"/>
<path d="M76.4002 80.121C76.6193 80.343 76.8359 80.5664 76.9973 80.836C77.0512 81.1068 77.2254 81.3173 77.3779 81.5291C77.7687 82.0683 78.2223 82.5573 78.6644 83.0541C78.74 83.1889 78.9258 83.2158 78.9757 83.375C78.6336 83.2287 78.403 82.945 78.1582 82.6857C77.5086 81.9938 77.0204 81.1723 76.4156 80.4496C76.0786 80.0478 75.7737 79.6152 75.4123 79.2301C75.2329 79.0389 75.0715 78.8309 74.9023 78.6307C75.0266 78.5819 75.0792 78.6884 75.1368 78.7526C75.5251 79.1801 75.9518 79.5716 76.29 80.044C76.3195 80.0812 76.3592 80.103 76.4002 80.121Z" fill="#737373"/>
<path d="M24.9284 68.0352C24.8848 68.0352 24.84 68.0352 24.7964 68.0352C24.7618 67.9581 24.726 67.8786 24.6235 67.885C24.1814 67.9132 23.7483 67.7977 23.3075 67.8054C22.5925 67.7271 21.8724 67.7925 21.1549 67.7348C20.5206 67.6834 19.9056 67.5371 19.2803 67.4524C19.2047 67.4421 19.1163 67.4383 19.0586 67.3677C19.4878 67.3561 19.9094 67.4139 20.3284 67.4986C21.0447 67.6449 21.775 67.6411 22.5003 67.6873C23.3447 67.7412 24.1929 67.7078 25.036 67.8054C24.9745 67.8709 24.9515 67.953 24.9284 68.0352Z" fill="#525252"/>
<path d="M48.4592 45.8789C48.4656 45.6838 48.3016 45.5118 48.4002 45.2974C48.4374 45.2153 48.4118 45.1331 48.5348 45.0792C48.6334 45.0356 48.6245 44.8725 48.6334 44.7557C48.6424 44.6312 48.636 44.5067 48.6091 44.3783C48.5976 44.4233 48.5873 44.4682 48.5655 44.5542C48.4694 44.0895 48.4989 43.6633 48.5015 43.2385C48.5027 43.0215 48.4041 42.933 48.208 42.9381C47.9966 42.9445 47.7903 42.9124 47.5866 42.8623C47.511 42.8431 47.4136 42.8238 47.3944 42.9137C47.3713 43.0241 47.4815 43.0023 47.5507 43.0164C47.6007 43.0267 47.6468 43.0536 47.6955 43.0729C47.5571 43.105 47.429 43.0626 47.3047 43.0125C47.2406 42.9869 47.2214 42.9304 47.2342 42.8636C47.2483 42.7905 47.3073 42.7969 47.3585 42.7995C47.6968 42.8123 48.0338 42.8226 48.3708 42.8444C48.5309 42.8546 48.6552 42.965 48.6616 43.1114C48.7026 44.0433 48.8128 44.9791 48.4592 45.8789Z" fill="#3B3B3B"/>
<path d="M38.528 54.4652C38.3934 54.4678 38.2576 54.469 38.1231 54.4716C38.0859 54.4729 38.0321 54.4613 38.0129 54.4806C37.7886 54.7232 37.6387 54.5743 37.4734 54.3984C37.4055 54.3265 37.2927 54.3497 37.1941 54.3715C36.6598 54.4857 36.1267 54.6115 35.5886 54.7001C35.0043 54.7964 34.4136 54.8349 33.8203 54.8272C34.0855 54.6552 34.3956 54.7001 34.6852 54.6616C35.4527 54.5615 36.2203 54.4626 36.9737 54.2765C37.1146 54.2418 37.2556 54.2508 37.3978 54.2624C37.5016 54.2714 37.5708 54.3214 37.6144 54.4215C37.6566 54.5204 37.7438 54.5653 37.8296 54.4857C38.0603 54.2701 38.2922 54.3651 38.528 54.4652Z" fill="#5D5D5D"/>
<path d="M13.8672 74.457C13.9377 74.1733 14.0799 73.968 14.3477 73.8088C14.75 73.57 15.0089 73.167 15.3241 72.8281C15.6816 72.4443 15.9199 71.9681 16.3069 71.6112C16.3684 71.7717 16.2274 71.8551 16.1698 71.9706C15.8597 72.4122 15.5445 72.8461 15.1537 73.2247C14.8103 73.5572 14.5514 73.9731 14.1606 74.2619C14.0671 74.3325 13.9928 74.4352 13.8672 74.457Z" fill="#484848"/>
<path d="M0.410156 55.1406C0.412719 55.011 0.493443 54.9186 0.569042 54.8274C0.827873 54.5168 1.09824 54.2164 1.39807 53.9417C1.64665 53.7145 1.86704 53.4565 2.10281 53.2152C2.14381 53.1741 2.18737 53.0701 2.25528 53.21C2.29116 53.2845 2.35651 53.228 2.39111 53.1792C2.44749 53.0984 2.52052 53.0573 2.6179 53.0637C2.44364 53.2909 2.24119 53.4911 2.02208 53.6734C1.54158 54.0701 1.09439 54.5027 0.652329 54.9404C0.578012 55.0148 0.490881 55.0752 0.410156 55.1406Z" fill="#3E3E3E"/>
<path d="M76.3998 80.1231C76.3191 80.1694 76.2768 80.1154 76.2345 80.0602C75.8783 79.5802 75.4465 79.1681 75.0428 78.7317C75.0044 78.6906 74.9724 78.6316 74.9019 78.6328C74.7161 78.4018 74.529 78.1707 74.3458 77.9371C74.2958 77.8729 74.242 77.8087 74.2305 77.7227C74.5854 78.1219 75.0774 78.3517 75.4119 78.7997C75.7425 79.24 76.1307 79.6366 76.3998 80.1231Z" fill="#373737"/>
<path d="M11.5547 71.7108C11.6367 71.7173 11.6188 71.8199 11.6751 71.8482C11.8481 71.5863 11.6444 71.3399 11.6534 71.0844C11.7969 71.2898 11.8353 71.5286 11.9006 71.7583C12.1044 72.472 12.0634 73.178 11.8391 73.8789C11.8789 73.1382 11.7084 72.4258 11.5547 71.7108Z" fill="#606060"/>
<path d="M28.6298 70.6615C29.4486 70.3445 30.2353 69.9581 31.0387 69.6089C31.4065 69.4485 31.7934 69.3394 32.1958 69.2996C32.2137 69.3137 32.215 69.3278 32.197 69.3432C32.1458 69.374 32.0958 69.4292 32.0433 69.4318C31.3578 69.4677 30.8299 69.9042 30.2276 70.1494C29.6113 70.3997 29.0001 70.6577 28.3633 70.8477C28.3851 70.6885 28.5516 70.7398 28.6298 70.6615Z" fill="#A4A4A4"/>
<path d="M43.7169 51.9408C43.8988 51.9126 44.082 51.8844 44.264 51.8561C44.5228 51.7791 44.7919 51.7868 45.0559 51.7573C45.1302 51.7496 45.216 51.756 45.2288 51.8574C45.2417 51.9588 45.1738 52.0089 45.0892 52.0333C44.7368 52.1372 44.3755 52.2053 44.0116 52.2489C43.886 52.2643 43.7592 52.2848 43.631 52.2746C43.558 52.2682 43.4721 52.2913 43.4529 52.1847C43.435 52.0885 43.4837 52.0256 43.5708 51.9935C43.6169 51.9755 43.6695 51.9665 43.7169 51.9408Z" fill="#2A2A2A"/>
<path d="M45.4771 58.4492C45.4681 58.1643 45.4515 57.8806 45.3362 57.6123C45.2644 57.4454 45.1721 57.2991 45.0427 57.1656C44.7493 56.8652 44.6519 56.4621 44.5353 56.0758C44.4661 55.846 44.42 55.6149 44.2752 55.4134C44.1945 55.3004 44.1509 55.1567 44.1676 55.0078C44.329 55.1387 44.4392 55.3081 44.4764 55.5097C44.5994 56.1592 44.8646 56.7407 45.2542 57.2721C45.39 57.457 45.5104 57.6495 45.5719 57.8818C45.6296 58.0962 45.5809 58.2721 45.4771 58.4492Z" fill="#818181"/>
<path d="M34.6406 28.3711C34.7816 28.1593 35.0173 28.2299 35.2083 28.1965C35.6619 28.1182 36.1206 28.0592 36.5793 28.0271C37.1328 27.9886 37.6928 27.8705 38.2438 28.0502C38.3411 28.0823 38.4449 28.1028 38.5205 28.1824C37.2956 27.968 36.0911 28.1734 34.8854 28.3583C34.8059 28.3724 34.7226 28.3685 34.6406 28.3711Z" fill="#7C7C7C"/>
<path d="M24.5184 46.9083C24.5492 47.4154 24.6184 47.9186 24.7029 48.4192C24.7222 48.5347 24.7721 48.6323 24.8221 48.7311C25.0361 49.147 25.2001 49.5924 25.5127 49.9531C25.3167 49.9095 25.2309 49.7426 25.1271 49.5988C24.5671 48.8222 24.3608 47.9558 24.4761 47.0097C24.48 46.9751 24.5043 46.9417 24.5184 46.9083Z" fill="#5B5B5B"/>
<path d="M28.6297 70.6606C28.5656 70.7594 28.4298 70.753 28.3619 70.8454C27.8045 71.106 27.2125 71.2703 26.6423 71.4949C26.2259 71.6592 25.821 71.7594 25.3789 71.7029C25.7197 71.5604 26.0875 71.5219 26.4424 71.4295C26.7371 71.3524 27.078 71.3345 27.3099 71.1676C27.6776 70.9019 28.1133 70.8685 28.499 70.685C28.5361 70.6644 28.5848 70.667 28.6297 70.6606Z" fill="#515151"/>
<path d="M33.7344 31.5805C33.8279 31.5626 33.9894 31.7551 34.0047 31.4932C34.0842 31.4971 34.0983 31.4522 34.1034 31.3829C34.1175 31.1839 34.1918 31.0067 34.3225 30.8553C34.261 31.0915 34.27 31.3264 34.334 31.5626C34.4596 32.0324 34.8696 32.3648 35.3668 32.3982C35.1374 32.4714 34.9247 32.4714 34.7197 32.3109C34.3968 32.0581 34.0637 31.8231 33.7344 31.5805Z" fill="#525252"/>
<path d="M40.0557 67.0082C40.0006 67.1057 39.9878 67.1853 40.139 67.1815C40.1979 67.1802 40.2594 67.175 40.3158 67.1596C41.0013 66.9786 41.7099 66.9376 42.4056 66.8208C42.0187 66.9799 41.6048 67.0249 41.1986 67.1096C40.7399 67.2046 40.2902 67.3419 39.8186 67.3663C39.7763 67.3689 39.7251 67.4125 39.6969 67.3637C39.6687 67.3162 39.6879 67.2533 39.7302 67.2225C39.8366 67.1455 39.9096 67.0197 40.0557 67.0082Z" fill="#272727"/>
<path d="M43.7192 51.9408C43.714 51.9472 43.7102 51.9536 43.7051 51.9587C43.632 52.0409 43.3988 52.0191 43.4949 52.2013C43.5577 52.322 43.7243 52.2565 43.8434 52.2321C44.2535 52.1513 44.6609 52.0614 45.0697 51.9805C45.1453 51.9651 45.2081 51.9497 45.1965 51.8612C45.1837 51.77 45.1017 51.8021 45.0505 51.8047C44.7891 51.8175 44.5264 51.8381 44.265 51.8547C44.5841 51.6994 44.9262 51.7084 45.267 51.72C45.3144 51.7213 45.3567 51.7418 45.3541 51.7996C45.349 51.9099 45.3195 52.0037 45.2029 52.0511C44.8954 52.1769 44.5764 52.2591 44.2471 52.2912C44.0164 52.313 43.7819 52.3027 43.55 52.2989C43.468 52.2976 43.3578 52.3297 43.345 52.1885C43.3335 52.0588 43.4027 51.9908 43.518 51.9639C43.5846 51.951 43.6525 51.9485 43.7192 51.9408Z" fill="#9F9F9F"/>
<path d="M50.3442 58.7725C50.5249 58.6723 50.5761 58.5311 50.4877 58.3399C50.4544 58.2654 50.4403 58.182 50.4032 58.1101C50.1905 57.6968 50.398 57.6146 50.7107 57.458C50.8837 57.3707 51.0451 57.485 51.2245 57.4631C51.5589 57.4208 51.9062 57.354 52.247 57.4529C52.0804 57.5068 51.9062 57.5004 51.7383 57.4837C51.3449 57.4452 50.9849 57.5607 50.6248 57.6929C50.4608 57.7532 50.4378 57.847 50.53 57.983C50.6351 58.1371 50.6786 58.3078 50.6786 58.4926C50.6761 58.7339 50.6043 58.7968 50.3442 58.7725Z" fill="#424242"/>
<path d="M24.9295 68.0333C24.8668 67.9113 24.8514 67.8112 25.0359 67.8048C25.1435 67.7971 25.2486 67.8176 25.337 67.8741C25.8201 68.1835 26.2993 68.4967 26.7798 68.8086C26.4556 68.7983 26.1648 68.6648 25.9303 68.4659C25.633 68.2143 25.2909 68.1116 24.9295 68.0333Z" fill="#505050"/>
<path d="M11.3438 75.466C11.7589 75.1835 12.0908 74.8074 12.4957 74.4519C12.397 74.6765 12.3368 74.878 12.2638 75.0732C12.1958 75.2554 12.2727 75.2824 12.4201 75.2773C12.2663 75.3645 12.1138 75.4505 11.9511 75.543C11.8934 75.3966 11.9755 75.2811 12.0357 75.1219C11.7692 75.2323 11.6294 75.5057 11.3438 75.466Z" fill="#828282"/>
<path d="M8.8925 35.7928C9.22308 35.78 9.55495 35.7364 9.88297 35.8891C9.28587 36.1253 8.68108 36.3255 8.04297 36.418C8.41712 36.1997 8.83612 36.0906 9.23205 35.9251C9.28587 35.9032 9.34097 35.8853 9.42297 35.8557C9.23461 35.78 9.05266 35.8711 8.8925 35.7928Z" fill="#5B5B5B"/>
<path d="M50.0786 52.9779C50.0978 53.3424 50.0568 53.7121 50.1888 54.0651C50.2041 54.1062 50.1965 54.1421 50.1683 54.1678C49.912 54.4156 49.7083 54.7275 49.3367 54.8353C49.165 54.8841 49.0035 54.8802 48.8293 54.8404C48.6332 54.7955 48.7844 54.7442 48.8139 54.6915C49.0753 54.7955 49.3136 54.7211 49.5327 54.5773C49.7083 54.4618 49.8441 54.3 49.9812 54.1421C50.044 54.069 50.0235 53.9881 50.0286 53.9085C50.0465 53.5992 50.0094 53.286 50.0786 52.9779Z" fill="#444444"/>
<path d="M68.4648 45.6901C68.7173 46.3461 68.9671 47.002 69.2208 47.6567C69.3067 47.8787 69.4015 48.0982 69.4925 48.3203C69.2324 47.8903 68.9364 47.4808 68.807 46.9802C68.716 46.6285 68.5878 46.2857 68.4841 45.9353C68.4623 45.8583 68.4713 45.7723 68.4648 45.6901Z" fill="#515151"/>
<path d="M72.6148 52.8031C72.1215 52.9507 71.6794 53.1702 71.4231 53.6503C71.3603 53.7684 71.3052 53.8942 71.2617 54.0212C71.1643 54.3024 71.1681 54.3037 70.9375 54.115C71.0669 54.1188 71.1541 54.0995 71.1822 53.9327C71.213 53.7517 71.3091 53.5848 71.4001 53.4218C71.6679 52.9404 72.0779 52.7479 72.6148 52.8031Z" fill="#6E6E6E"/>
<path d="M43.4327 53.71C43.2367 53.7215 43.1265 53.6304 43.0906 53.4365C43.0432 53.1824 42.9253 52.959 42.7715 52.7537C42.7318 52.701 42.6754 52.6458 42.6665 52.5855C42.6114 52.2261 42.3282 52.022 42.1232 51.7652C42.1116 51.7396 42.1168 51.719 42.1386 51.7023C42.4627 51.8346 42.6331 52.0964 42.7344 52.4148C42.7523 52.4712 42.751 52.5457 42.7869 52.5829C43.1034 52.9026 43.0931 53.407 43.4327 53.71Z" fill="#A0A0A0"/>
<path d="M70.4485 54.0047C70.2115 54.0201 69.9744 54.0201 69.7438 54.0959C69.4093 54.205 69.1685 54.4283 68.957 54.6953C68.9609 54.291 69.3273 53.9097 69.7579 53.8828C69.9936 53.8686 70.2307 53.8969 70.4485 54.0047Z" fill="#878787"/>
<path d="M42.1363 51.7044C42.1311 51.7249 42.126 51.7467 42.1209 51.7673C41.9697 51.8058 42.0401 51.9175 42.0696 51.9829C42.2272 52.3385 42.0901 52.6029 41.8351 52.8442C41.6442 53.0252 41.4597 53.2114 41.2227 53.332C41.2713 53.1344 41.3867 52.988 41.5545 52.8763C41.6352 52.8237 41.7083 52.7582 41.7903 52.7069C42.1465 52.4848 42.0863 52.2114 41.9556 51.9367C41.8915 51.8019 41.8633 51.6517 41.7724 51.5298C41.7724 51.4374 41.7736 51.345 41.7736 51.2525C41.7839 51.2628 41.8018 51.2744 41.8018 51.2846C41.7954 51.5208 41.953 51.6222 42.1363 51.7044Z" fill="#6C6C6C"/>
<path d="M49 57.4968C49.378 57.5006 49.337 57.8151 49.4036 58.0462C49.4433 58.1874 49.4164 58.3478 49.5048 58.4736C49.6176 58.6341 49.7726 58.7303 49.9802 58.7188C50.0609 58.7136 50.1468 58.7008 50.216 58.7611C50.1263 58.7663 50.0353 58.7624 49.9482 58.7791C49.5894 58.8484 49.3114 58.6533 49.2588 58.2913C49.2191 58.0115 49.2217 57.7163 49 57.4968Z" fill="#4E4E4E"/>
<path d="M29.6781 30.4407C28.8273 30.5228 28.0008 30.388 27.1872 30.1506C27.1283 30.1339 27.0463 30.1647 27.0078 30.0851C27.5165 30.1044 28.0175 30.1827 28.5095 30.3059C28.803 30.3791 29.0926 30.4201 29.3924 30.4086C29.4872 30.406 29.5871 30.3983 29.6781 30.4407Z" fill="#5F5F5F"/>
<path d="M42.0476 50.2227C42.1514 49.8812 42.1386 49.8761 41.7926 49.8517C41.2609 49.8132 40.7573 49.8671 40.3242 50.2162C40.437 49.9608 40.6292 49.8388 40.9111 49.8055C41.2622 49.7644 41.612 49.7618 41.9631 49.7682C42.0694 49.7695 42.2334 49.6989 42.259 49.8761C42.2821 50.0288 42.2232 50.1713 42.0476 50.2227Z" fill="#696969"/>
<path d="M75.8582 38.7207C75.8647 38.7823 75.8634 38.8375 75.7955 38.8709C75.315 39.1058 74.8511 39.3767 74.3347 39.5281C74.2873 39.5423 74.2322 39.5307 74.1797 39.5307C74.3514 39.3651 74.5807 39.3022 74.7883 39.2136C75.1509 39.0622 75.4738 38.8247 75.8582 38.7207Z" fill="#373737"/>
<path d="M36.2148 32.0703C36.4301 31.8688 36.7107 31.8341 36.9772 31.8162C37.4001 31.7879 37.8268 31.7802 38.2496 31.8495C38.315 31.8598 38.3636 31.8778 38.3816 31.9458C37.7012 31.811 37.0362 31.9484 36.3699 32.0626C36.3199 32.0716 36.2661 32.0677 36.2148 32.0703Z" fill="#4E4E4E"/>
<path d="M31.6562 67.0834C31.9945 66.8138 32.3469 66.6393 32.771 66.9037C33.017 67.0577 33.3258 67.0757 33.5552 67.2695C33.2015 67.2105 32.8711 67.0693 32.5302 66.9679C32.3342 66.9101 32.1611 66.8973 31.9753 66.9923C31.8779 67.0423 31.773 67.0911 31.6562 67.0834Z" fill="#545454"/>
<path d="M83.625 29.5908C84.0107 29.5703 84.4002 29.6345 84.7833 29.5446C84.8461 29.5305 84.8948 29.5664 84.8769 29.6319C84.8 29.9143 84.9038 30.2147 84.7833 30.4932C84.6449 30.2339 84.5822 30.5536 84.4732 30.5343C84.5975 30.3212 84.6706 30.0889 84.7244 29.8488C84.7744 29.6229 84.7641 29.5985 84.5309 29.6422C84.2234 29.6974 83.9248 29.655 83.625 29.5908Z" fill="#3C3C3C"/>
<path d="M12.3773 32.3946C12.0378 32.8028 11.5791 32.9273 11.0742 32.9414C11.4753 32.6808 11.9071 32.4921 12.3773 32.3946Z" fill="#363636"/>
<path d="M70.7129 51.7971C70.7629 51.7008 70.8641 51.7124 70.9474 51.6867C71.0256 51.6623 71.0883 51.6302 71.0819 51.5352C71.0768 51.4479 71.0243 51.4017 70.941 51.3863C70.8167 51.3632 70.6924 51.3427 70.5681 51.317C70.4887 51.3003 70.4041 51.2926 70.3516 51.2156C70.6488 51.2028 70.9384 51.2233 71.2088 51.3709C71.2972 51.4197 71.3433 51.4633 71.3433 51.5725C71.3433 51.6983 71.2562 51.7252 71.1767 51.7406C71.023 51.7701 70.8705 51.8138 70.7129 51.7971Z" fill="#7A7A7A"/>
<path d="M52.2056 34.1083C52.1595 34.1237 52.1146 34.1198 52.0762 34.0916C51.6034 33.7501 51.0216 33.6936 50.5001 33.4793C50.4463 33.4574 50.3835 33.4485 50.3477 33.3933C50.627 33.3791 50.8974 33.392 51.1357 33.5755C51.2087 33.632 51.3151 33.6795 51.4035 33.6769C51.7597 33.6641 51.9493 33.9439 52.2056 34.1083Z" fill="#696969"/>
<path d="M32.1966 69.3438C32.1966 69.3295 32.1966 69.3155 32.1953 69.3001C32.8398 69.1088 33.4792 68.897 34.1417 68.77C34.052 68.9227 33.8995 68.9675 33.7419 68.9855C33.5164 69.0112 33.2998 69.0588 33.0935 69.1576C32.8116 69.2937 32.4926 69.2653 32.1966 69.3438Z" fill="#ADADAD"/>
<path d="M7.37128 35.1565C7.31874 35.5775 7.32131 35.5557 7.76593 35.607C8.11574 35.6468 8.47195 35.6686 8.81022 35.7854C8.62315 35.8073 8.43863 35.7777 8.2554 35.7469C7.89535 35.6853 7.53657 35.6224 7.16883 35.6391C7.11629 35.6417 7.05863 35.6417 7.03172 35.5852C7.00097 35.5223 7.033 35.4684 7.07657 35.4247C7.16883 35.3297 7.24571 35.2168 7.37128 35.1565Z" fill="#787878"/>
<path d="M33.6836 67.3203C33.9283 67.319 34.1743 67.2985 34.4178 67.3524C34.5652 67.3845 34.6933 67.3524 34.8099 67.2523C34.8765 67.1958 34.9547 67.1457 35.0482 67.1406C34.9906 67.4384 34.7445 67.5295 34.4678 67.5231C34.2038 67.5167 33.9258 67.4641 33.6836 67.3203Z" fill="#5A5A5A"/>
<path d="M40.781 30.808C40.8566 30.7592 40.9796 30.8696 41.0283 30.7386C41.0937 30.5615 41.2282 30.3985 41.0591 30.1905C40.9117 30.0095 40.7695 29.8157 40.6875 29.5898C41.0386 29.7772 41.3192 30.3176 41.2782 30.704C41.2654 30.8234 41.1962 30.8593 41.1001 30.8632C40.9912 30.8683 40.8759 30.8952 40.781 30.808Z" fill="#848484"/>
<path d="M57.3918 51.6621C57.3841 52.3758 57.2022 53.033 56.7665 53.6094C56.7435 53.4656 56.8075 53.3398 56.8703 53.2243C57.1304 52.7532 57.2855 52.2513 57.3585 51.7199C57.3611 51.6993 57.3803 51.6813 57.3918 51.6621Z" fill="#343434"/>
<path d="M37.3867 67.9879C37.5328 67.8749 37.7122 67.8788 37.8813 67.848C37.9172 67.8416 37.9608 67.8454 37.9659 67.7966C37.9723 67.7299 37.9198 67.7337 37.8762 67.7325C37.7583 67.7273 37.6404 67.7248 37.5225 67.7196C37.775 67.6375 38.044 67.7055 38.2965 67.6298C38.4041 67.5977 38.5143 67.5733 38.6232 67.5515C38.6681 67.5425 38.7321 67.4976 38.7526 67.5771C38.7667 67.6349 38.727 67.676 38.6681 67.6901C38.2439 67.7979 37.839 67.9982 37.3867 67.9879Z" fill="#6C6C6C"/>
<path d="M0.539316 53.6979C0.553411 53.6979 0.568787 53.6992 0.582882 53.7043C0.421433 54.3064 0.261266 54.9097 0.0998169 55.5117C0.0139672 54.9469 0.257422 54.4527 0.434246 53.9431C0.462436 53.8584 0.50472 53.7788 0.539316 53.6979Z" fill="#8B8B8B"/>
<path d="M48.5531 33.0229C48.4134 33.0665 48.2532 32.9844 48.12 33.0909C48.1687 33.2064 48.3083 33.1179 48.3686 33.2026C48.2955 33.2809 48.2161 33.2449 48.1379 33.2167C47.8189 33.0935 47.4614 33.1602 47.0859 33.0139C47.6138 32.9125 48.0841 32.9677 48.5531 33.0229Z" fill="#3C3C3C"/>
<path d="M50.2142 49.81C50.2898 50.0128 50.4013 50.2002 50.4551 50.412C50.4743 50.4851 50.5473 50.5493 50.4205 50.6045C50.3667 50.6276 50.3974 50.7149 50.3961 50.7727C50.391 50.9973 50.3897 51.2207 50.3872 51.4453C50.3321 51.2951 50.3526 51.1347 50.3398 50.9806C50.3129 50.6674 50.2642 50.3632 50.1322 50.0757C50.0848 49.9704 50.0937 49.869 50.2142 49.81Z" fill="#3C3C3C"/>
<path d="M24.97 43.9336C24.9085 43.6756 24.9329 43.4137 24.938 43.1519C24.9406 42.994 24.9534 42.8374 24.9111 42.6615C24.7227 42.822 24.7522 43.0992 24.5664 43.243C24.5651 43.0427 24.7099 42.8874 24.7356 42.6923C24.7484 42.5973 24.865 42.6153 24.947 42.6217C25.0315 42.6281 25.0623 42.6808 25.0623 42.7578C25.0623 42.8926 25.0879 43.0338 25.0546 43.1596C24.9867 43.4163 24.9841 43.6743 24.97 43.9336Z" fill="#9A9A9A"/>
<path d="M48.1367 33.2147C48.2136 33.2096 48.2905 33.2057 48.3674 33.2006C48.8338 33.2699 49.2925 33.361 49.7217 33.5664C49.2002 33.533 48.7018 33.3841 48.1931 33.2789C48.1726 33.275 48.1559 33.2365 48.1367 33.2147Z" fill="#BABABA"/>
<path d="M38.5625 32.0364C38.7598 32.0069 38.9277 32.0608 39.0814 32.1905C39.1839 32.2765 39.2993 32.3509 39.4184 32.4113C39.6081 32.505 39.6747 32.65 39.6452 32.8516C39.421 32.5088 39.0776 32.3188 38.7329 32.1314C38.6753 32.0993 38.6035 32.0955 38.5625 32.0364Z" fill="#696969"/>
<path d="M27.0117 62.338C27.1078 62.4304 27.1424 62.5421 27.1539 62.6782C27.1809 63.0068 27.2308 63.3328 27.2705 63.6602C27.1117 63.4907 27.0924 63.2686 27.063 63.0581C27.0284 62.8194 27.0271 62.5768 27.0117 62.338Z" fill="#6A6A6A"/>
<path d="M39.3633 66.6926C39.7272 66.7401 40.0911 66.7581 40.5114 66.6721C40.3679 66.8171 40.2423 66.8916 40.1103 66.957C39.9899 66.8466 39.8271 66.8633 39.6862 66.8184C39.576 66.7837 39.4504 66.7876 39.3633 66.6926Z" fill="#3F3F3F"/>
<path d="M12.5943 62.207C12.4379 62.1916 12.3662 62.0902 12.3265 61.949C12.2521 61.6884 12.2124 61.4266 12.247 61.1557C12.3623 61.5062 12.4789 61.8566 12.5943 62.207Z" fill="#3F3F3F"/>
<path d="M3.75222 51.9343C3.80732 51.8175 3.91111 51.7431 4.02259 51.6635C4.00721 52.0101 3.94186 52.34 3.71506 52.6211C3.69072 52.4337 3.77913 52.2758 3.84832 52.1141C3.89317 52.0062 3.92008 51.9215 3.75222 51.9343Z" fill="#A5A5A5"/>
<path d="M16.168 71.9727C16.1859 71.8417 16.3038 71.7493 16.3051 71.6132C16.4678 71.3847 16.6305 71.1563 16.792 70.9278C16.6972 71.3424 16.4678 71.6787 16.168 71.9727Z" fill="#888888"/>
<path d="M78.9766 83.375C79.3597 83.6061 79.7633 83.8038 80.1029 84.1016C79.6839 83.9257 79.2764 83.7332 78.9766 83.375Z" fill="#737373"/>
<path d="M53.1495 34.6992C52.842 34.5952 52.5435 34.4759 52.332 34.2089C52.6895 34.2294 52.9227 34.4592 53.1495 34.6992Z" fill="#666666"/>
<path d="M15.3528 30.8054C15.3477 30.8555 15.3233 30.885 15.2708 30.894C14.9223 30.9492 14.5763 31.0147 14.2227 31.0312C14.575 30.8324 14.9697 30.8491 15.3528 30.8054Z" fill="#676767"/>
<path d="M43.9292 54.6094C43.7242 54.3899 43.614 54.128 43.5781 53.8328C43.8421 54.0253 43.9305 54.2975 43.9292 54.6094Z" fill="#8D8D8D"/>
<path d="M0.856399 46.09C0.849992 46.4635 0.709045 46.7896 0.511719 47.0977C0.554003 46.737 0.669323 46.4006 0.856399 46.09Z" fill="#555555"/>
<path d="M3.79949 40.0363C3.80461 40.0877 3.81102 40.1377 3.81614 40.1929C3.92249 40.1698 4.00963 40.0966 4.11854 40.13C3.94684 40.2918 3.77642 40.4548 3.55859 40.6602C3.565 40.3842 3.77642 40.243 3.79949 40.0363Z" fill="#494949"/>
<path d="M40.4195 47.0985C40.4413 47.2295 40.5066 47.1833 40.5771 47.1409C40.7027 47.0626 40.8103 46.956 40.9564 46.9124C40.8398 47.0395 40.7308 47.1755 40.6027 47.2898C40.531 47.354 40.4028 47.3925 40.3349 47.3206C40.2644 47.2436 40.3503 47.1589 40.4195 47.0985Z" fill="#5F5F5F"/>
<path d="M56.0841 49.3986C56.0674 49.4127 56.0495 49.4384 56.0328 49.4384C55.6779 49.4268 55.5523 49.6361 55.5357 49.9531C55.4511 49.8196 55.4024 49.6759 55.5152 49.5424C55.6664 49.3614 55.865 49.3254 56.0841 49.3986Z" fill="#515151"/>
<path d="M63.1259 22.6232C63.1541 22.6951 63.1067 22.7554 63.0888 22.817C63.0337 23.0032 63.0657 23.1418 63.2682 23.2047C63.1593 23.2432 63.067 23.1598 62.9632 23.161C62.9286 23.1623 62.903 23.1302 62.912 23.102C62.9658 22.9351 62.8979 22.7131 63.1259 22.6232Z" fill="#ABABAB"/>
<path d="M26.0549 46.8242C25.8332 46.6407 25.6013 46.4687 25.4258 46.235C25.7282 46.3339 25.9383 46.529 26.0549 46.8242Z" fill="#4F4F4F"/>
<path d="M26.3839 40.6289C26.3621 40.5416 26.4287 40.4312 26.3006 40.3735C26.1814 40.3195 26.102 40.3889 26.0123 40.4415C26.0123 40.4338 26.011 40.4261 26.0123 40.4184C26.0469 40.2464 26.1891 40.1745 26.3262 40.1848C26.4889 40.1963 26.3852 40.3683 26.421 40.462C26.4415 40.5147 26.4364 40.5827 26.3839 40.6289Z" fill="#AEAEAE"/>
<path d="M57.8516 59.0469C57.8862 58.8402 58.0245 58.6875 58.1219 58.5129C58.2091 58.3563 58.2577 58.4294 58.2949 58.5463C58.1091 58.6798 58.031 58.9082 57.8516 59.0469Z" fill="#4A4A4A"/>
<path d="M30.4454 41.9414C30.3903 41.8182 30.2891 41.9093 30.2109 41.8888C30.366 41.7412 30.5479 41.6552 30.785 41.6231C30.7081 41.7912 30.5402 41.8284 30.4454 41.9414Z" fill="#919191"/>
<path d="M57.4453 50.1675C57.6375 50.4743 57.6388 50.6206 57.4517 50.8594C57.4492 50.6283 57.4479 50.3973 57.4453 50.1675Z" fill="#939393"/>
<path d="M13.5508 74.4602C13.661 74.1226 13.7648 74.396 13.8698 74.464C13.6738 74.7053 13.6738 74.7053 13.5508 74.4602Z" fill="#A0A0A0"/>
<path d="M40.6836 51.9839C40.927 51.9544 41.1705 51.9236 41.4152 51.8941C41.1833 52.0237 40.9514 52.1482 40.6836 51.9839Z" fill="#6C6C6C"/>
<path d="M6.23598 37.3274C6.09375 37.5071 5.96177 37.7009 5.69141 37.6868C5.84517 37.5237 6.0079 37.3761 6.23598 37.3274Z" fill="#5E5E5E"/>
<path d="M0.0515383 55.7799C0.137388 55.9108 0.128419 55.6888 0.192486 55.7414C0.191204 55.7709 0.188642 55.8004 0.18736 55.83C0.183516 55.907 0.164296 55.9789 0.105355 56.0302C0.0822904 56.0508 0.0464129 56.0328 0.0297555 56.0045C-0.0163727 55.9262 -0.00868469 55.8492 0.0515383 55.7799Z" fill="#8B8B8B"/>
<path d="M41.7668 51.2148C41.6809 51.0236 41.7501 50.8464 41.8116 50.668C41.8039 50.8503 41.8142 51.0351 41.7668 51.2148Z" fill="#6C6C6C"/>
<path d="M56.1295 37.7336C57.0418 38.4409 57.7991 39.3124 58.6281 40.1083C59.7185 41.1545 60.4989 42.3893 61.0524 43.7859C61.5829 45.1248 61.9352 46.5137 62.2261 47.9205C62.4068 48.796 62.6105 49.6676 62.7963 50.543C62.9987 51.4942 63.0193 52.448 62.8809 53.4145C62.7886 54.0641 62.6067 54.6674 62.1928 55.1731C61.4957 56.0229 60.636 56.6698 59.6199 57.0986C59.3713 57.2038 59.1253 57.3104 58.9023 57.4619C58.8716 57.4824 58.8395 57.5183 58.8049 57.4888C58.7678 57.4567 58.7767 57.4131 58.7972 57.3656C59.1048 56.6763 59.4764 56.0152 59.7006 55.2887C59.8953 54.7521 59.9389 54.1937 59.9479 53.6276C59.9633 52.7188 59.8992 51.819 59.7506 50.9217C59.7185 50.7304 59.6929 50.5392 59.6519 50.3492C59.4674 49.5341 59.4546 48.6997 59.37 47.8743C59.329 47.4687 59.3123 47.0579 59.174 46.6626C59.1035 46.4623 59.0984 46.2326 59.1009 46.0156C59.1124 45.1132 58.7639 44.2943 58.5384 43.4458C58.4961 43.2879 58.4397 43.1338 58.3898 42.9772C58.3206 42.8604 58.2834 42.7295 58.2527 42.5999C58.1514 42.1711 57.9887 41.7706 57.7414 41.4061C57.4916 41.0389 57.489 40.5935 57.3557 40.1905C57.2827 39.9671 57.2033 39.754 57.0661 39.5615C56.7061 39.0519 56.3858 38.5192 56.1192 37.9544C56.0693 37.8414 56.0667 37.8427 56.1295 37.7336Z" fill="#CFB66C"/>
<path d="M56.1309 37.7355C56.2103 38.0256 56.3603 38.2849 56.4897 38.5519C56.5794 38.7393 56.6908 38.9229 56.8215 39.0833C57.2764 39.6379 57.4814 40.2938 57.6134 40.9793C57.6416 41.1269 57.7121 41.245 57.7902 41.3618C58.1234 41.8521 58.2874 42.4054 58.3912 42.9805C58.29 42.9317 58.2746 42.8328 58.2438 42.7404C58.0939 42.2976 57.912 41.8701 57.6454 41.485C57.5519 41.349 57.516 41.1924 57.4981 41.0409C57.3917 40.1911 56.9625 39.489 56.4948 38.8048C56.227 38.4133 56.0245 37.9922 55.8516 37.5199C55.9989 37.5622 56.072 37.6392 56.1309 37.7355Z" fill="#373737"/>
<path d="M59.6523 50.3509C59.8074 50.5794 59.7754 50.8528 59.8253 51.1057C60.0098 52.0389 60.0073 52.9862 59.9996 53.9323C59.9957 54.4021 59.9688 54.8744 59.6998 55.2891C59.751 54.8513 59.8164 54.4136 59.8497 53.9746C59.8932 53.3995 59.9278 52.8245 59.8561 52.2481C59.7766 51.6166 59.719 50.9837 59.6523 50.3509Z" fill="#454545"/>
<path d="M78.6622 83.0547C78.0933 82.5194 77.5654 81.9508 77.1541 81.2807C77.1067 81.2037 77.067 81.1151 77.0004 81.0599C76.9017 80.9778 76.9235 80.9136 76.9939 80.8378C77.4027 81.3705 77.8358 81.8814 78.3048 82.3615C78.3534 82.4116 78.4739 82.4501 78.3406 82.5592C78.2804 82.608 78.3714 82.6876 78.4162 82.744C78.4982 82.8493 78.6353 82.9083 78.6622 83.0547Z" fill="#3F3F3F"/>
<path d="M8.15147 67.4538C7.41727 67.4897 6.68562 67.5321 6.00779 67.1624C5.91169 67.1097 5.84891 67.0366 5.87197 66.9287C5.89888 66.8055 6.01036 66.8338 6.09492 66.8402C6.39476 66.8658 6.68306 66.9339 6.96111 67.0558C7.34551 67.224 7.75041 67.328 8.15147 67.4538Z" fill="#DFDFDF"/>
<path d="M3.11283 61.4277C3.27556 62.1812 3.40113 62.945 3.75734 63.6484C3.61896 63.5997 3.50107 63.5175 3.44469 63.3943C3.15896 62.773 3.04492 62.1171 3.11283 61.4277Z" fill="#DADADA"/>
<path d="M23.3086 67.8028C23.4419 67.727 23.5943 67.7501 23.725 67.7732C24.0326 67.8284 24.3388 67.8079 24.645 67.8079C24.8244 67.8079 24.8898 67.8592 24.7975 68.0312C24.4105 67.9722 24.0249 67.9055 23.6366 67.8605C23.5239 67.849 23.4201 67.8053 23.3086 67.8028Z" fill="#505050"/>
<path d="M36.9321 62.1896C35.2788 49.0382 32.1616 38.6004 29.9697 38.8759C27.7778 39.1515 27.3413 50.0361 28.9946 63.1874C30.648 76.3388 33.7652 86.7766 35.957 86.5011C38.1489 86.2255 38.5855 75.3409 36.9321 62.1896Z" fill="url(#paint0_radial_394_5758)"/>
<path d="M33.9321 42.1896C32.2788 29.0382 29.1616 18.6004 26.9697 18.8759C24.7778 19.1515 24.3413 30.0361 25.9946 43.1874C27.648 56.3388 30.7652 66.7766 32.957 66.5011C35.1489 66.2255 35.5855 55.3409 33.9321 42.1896Z" fill="url(#paint1_radial_394_5758)"/>
</g>
</g>
<defs>
<radialGradient id="paint0_radial_394_5758" cx="0" cy="0" r="1" gradientUnits="userSpaceOnUse" gradientTransform="translate(32.9634 62.6885) rotate(-97.1655) scale(24 4)">
<stop offset="0.137301" stop-color="#D9D9D9"/>
<stop offset="0.35" stop-color="#FF0E11"/>
<stop offset="1" stop-color="#FF0E11" stop-opacity="0"/>
</radialGradient>
<radialGradient id="paint1_radial_394_5758" cx="0" cy="0" r="1" gradientUnits="userSpaceOnUse" gradientTransform="translate(29.9634 42.6885) rotate(-97.1655) scale(24 4)">
<stop offset="0.137301" stop-color="#D9D9D9"/>
<stop offset="0.35" stop-color="#FF0E11"/>
<stop offset="1" stop-color="#FF0E11" stop-opacity="0"/>
</radialGradient>
<clipPath id="clip0_394_5758">
<rect width="90" height="90" fill="white" transform="matrix(0 -1 1 0 0 90)"/>
</clipPath>
</defs>
</svg>
