<svg width="90" height="90" viewBox="0 0 90 90" fill="none" xmlns="http://www.w3.org/2000/svg">
<g clip-path="url(#clip0_394_6080)">
<mask id="mask0_394_6080" style="mask-type:luminance" maskUnits="userSpaceOnUse" x="0" y="0" width="90" height="90">
<path d="M0 0L0 90H90V0H0Z" fill="white"/>
</mask>
<g mask="url(#mask0_394_6080)">
<path d="M90 45C90 69.8528 69.8528 90 45 90C20.1472 90 0 69.8528 0 45C0 20.1472 20.1472 0 45 0C69.8528 0 90 20.1472 90 45Z" fill="#212121"/>
<path d="M69.9375 45.4267C69.9801 55.5842 72.5606 65.4606 77.3051 73.625C83.9666 65.5714 87.6171 55.4502 87.6299 44.9987C87.6164 34.714 84.0803 24.7442 77.6105 16.7494C72.6805 24.9969 69.9877 35.0611 69.9375 45.4267Z" fill="white"/>
<path d="M50.8336 66.7266C72.407 62.6574 84.7315 50.4921 81.3492 28.2695C69.0198 35.0415 62.9662 28.3992 54.96 24.0546L35.7383 36.5883C43.2273 43.4353 51.1046 48.4677 50.8336 66.7266Z" fill="#212121"/>
<path d="M50.6005 65.4141C70.4465 60.9268 82.7147 51.1145 79.7401 30.5912C68.1688 36.9468 61.9872 29.4432 54.4732 25.3658L49.3086 35.6634C56.3372 42.0893 50.8549 48.2778 50.6005 65.4141Z" fill="#FFB928"/>
<path d="M51.7595 62.6328C70.7964 57.0667 79.8153 51.3479 78.58 33.1436C67.0087 39.4993 60.5953 31.3 53.0813 27.2226L51.0586 37.3172C58.0872 43.7432 52.0139 45.4966 51.7595 62.6328Z" fill="#212121"/>
<path d="M52.0066 61.3203C70.5857 55.3618 77.9718 51.7808 77.7613 34.4548C66.19 40.8105 60.1865 32.3652 52.6725 28.2878L50.3672 36.6256C57.3958 43.0516 52.261 44.1841 52.0066 61.3203Z" fill="url(#paint0_linear_394_6080)"/>
<path d="M63.7751 56.6444C63.7708 56.8026 63.7753 56.951 63.7847 57.0938C71.5378 53.7225 75.7724 49.8014 77.2041 42.1133C75.5768 41.7813 73.4413 42.2448 70.7922 44.0873C66.9264 46.776 63.8655 53.3277 63.7751 56.6444Z" fill="url(#paint1_linear_394_6080)"/>
<path d="M56.3145 37.9142C54.1225 35.6291 54.4388 33.4789 56.5938 31.2109C58.7487 28.9428 67.0857 28.7926 68.604 30.0936C70.1223 31.3946 70.2292 36.3822 68.604 37.9142C66.9788 39.4463 58.5064 40.1994 56.3145 37.9142Z" fill="white" stroke="#212121" stroke-width="12" stroke-linecap="round" stroke-linejoin="round"/>
<path d="M56.3145 37.9142C54.1225 35.6291 54.4388 33.4789 56.5938 31.2109C58.7487 28.9428 67.0857 28.7926 68.604 30.0936C70.1223 31.3946 70.2292 36.3822 68.604 37.9142C66.9788 39.4463 58.5064 40.1994 56.3145 37.9142Z" fill="white"/>
<path d="M56.297 43.489C54.4393 45.4257 54.7073 47.2481 56.5337 49.1704C58.3602 51.0927 63.2848 51.4062 65.3164 50.0242C67.3481 48.6422 68.8352 44.6013 67.4578 43.3028C66.0804 42.0043 58.1548 41.5522 56.297 43.489Z" fill="white" stroke="#212121" stroke-width="12" stroke-linecap="round" stroke-linejoin="round"/>
<path d="M56.297 43.489C54.4393 45.4257 54.7073 47.2481 56.5337 49.1704C58.3602 51.0927 63.2848 51.4062 65.3164 50.0242C67.3481 48.6422 68.8352 44.6013 67.4578 43.3028C66.0804 42.0043 58.1548 41.5522 56.297 43.489Z" fill="white"/>
<path d="M50.8313 67.3984C62.5927 48.1328 62.9601 28.6693 59.6986 9.78354C37.0345 42.2801 47.7917 50.1237 50.8313 67.3984Z" fill="#212121"/>
<path d="M50.5997 65.4141C61.1201 47.269 61.1219 28.7613 59.1 10.1838C37.374 41.3353 47.6859 48.8543 50.5997 65.4141Z" fill="#FFB928"/>
<path d="M13.3086 29.3426C13.3087 33.8247 15.3652 38.1232 19.0258 41.2924C22.6864 44.4617 27.6512 46.2422 32.828 46.2422C36.2609 46.2349 39.631 45.4439 42.5981 43.9489V14.7301C39.6303 13.2371 36.2603 12.4481 32.828 12.4426C30.2646 12.4426 27.7264 12.8798 25.3582 13.7291C22.99 14.5784 20.8382 15.8232 19.0257 17.3925C17.2131 18.9618 15.7753 20.8249 14.7944 22.8753C13.8135 24.9257 13.3086 27.1233 13.3086 29.3426Z" fill="#212121"/>
<path d="M13.6367 30.9828C13.6367 33.2022 14.1416 35.3998 15.1225 37.4502C16.1035 39.5006 17.5412 41.3636 19.3538 42.9329C21.1663 44.5022 23.3181 45.7471 25.6863 46.5964C28.0545 47.4457 30.5928 47.8828 33.1561 47.8828C36.4611 47.876 39.7099 47.1427 42.5981 45.7517V16.1966C39.708 14.8117 36.4593 14.0844 33.1561 14.0829C30.5928 14.0829 28.0545 14.52 25.6863 15.3693C23.3181 16.2186 21.1663 17.4635 19.3538 19.0328C17.5412 20.6021 16.1035 22.4651 15.1225 24.5155C14.1416 26.5659 13.6367 28.7635 13.6367 30.9828Z" fill="white"/>
<path d="M13.3086 57.616C13.3087 62.0981 15.3652 66.3966 19.0258 69.5659C22.6864 72.7351 27.6512 74.5156 32.828 74.5156C36.2609 74.5084 39.631 73.7174 42.5981 72.2224V43.0035C39.6303 41.5106 36.2603 40.7216 32.828 40.7161C30.2646 40.7161 27.7264 41.1532 25.3582 42.0025C22.99 42.8518 20.8382 44.0967 19.0257 45.666C17.2131 47.2353 15.7753 49.0983 14.7944 51.1487C13.8135 53.1991 13.3086 55.3967 13.3086 57.616Z" fill="#212121"/>
<path d="M13.6367 59.2563C13.6367 61.4756 14.1416 63.6732 15.1225 65.7236C16.1035 67.774 17.5412 69.6371 19.3538 71.2064C21.1663 72.7757 23.3181 74.0205 25.6863 74.8698C28.0545 75.7191 30.5928 76.1563 33.1561 76.1562C36.4611 76.1494 39.7099 75.4161 42.5981 74.0251V44.4701C39.708 43.0852 36.4593 42.3578 33.1561 42.3563C30.5928 42.3563 28.0545 42.7934 25.6863 43.6427C23.3181 44.4921 21.1663 45.7369 19.3538 47.3062C17.5412 48.8755 16.1035 50.7386 15.1225 52.7889C14.1416 54.8393 13.6367 57.037 13.6367 59.2563Z" fill="white"/>
<path d="M37.6349 29.9599C37.6349 26.3737 34.7278 23.4666 31.1417 23.4666C27.5556 23.4666 24.6484 26.3737 24.6484 29.9599C24.6484 33.546 27.5556 36.4531 31.1417 36.4531C34.7278 36.4531 37.6349 33.546 37.6349 29.9599Z" fill="#212121"/>
<path d="M37.6349 58.2333C37.6349 54.6472 34.7278 51.7401 31.1417 51.7401C27.5556 51.7401 24.6484 54.6472 24.6484 58.2333C24.6484 61.8194 27.5556 64.7266 31.1417 64.7266C34.7278 64.7266 37.6349 61.8194 37.6349 58.2333Z" fill="#212121"/>
</g>
</g>
<defs>
<linearGradient id="paint0_linear_394_6080" x1="74.9583" y1="38.1992" x2="48.0657" y2="65.3471" gradientUnits="userSpaceOnUse">
<stop stop-color="#6F0102"/>
<stop offset="1" stop-color="#6F0102" stop-opacity="0"/>
</linearGradient>
<linearGradient id="paint1_linear_394_6080" x1="78.9134" y1="46.0981" x2="66.123" y2="57.7845" gradientUnits="userSpaceOnUse">
<stop stop-color="#E33A4B"/>
<stop offset="1" stop-color="#D22436" stop-opacity="0.54902"/>
</linearGradient>
<clipPath id="clip0_394_6080">
<rect width="90" height="90" fill="white" transform="matrix(0 -1 1 0 0 90)"/>
</clipPath>
</defs>
</svg>
