<svg width="90" height="90" viewBox="0 0 90 90" fill="none" xmlns="http://www.w3.org/2000/svg">
<g clip-path="url(#clip0_394_6384)">
<mask id="mask0_394_6384" style="mask-type:luminance" maskUnits="userSpaceOnUse" x="0" y="0" width="90" height="90">
<path d="M0 0L0 90H90V0H0Z" fill="white"/>
</mask>
<g mask="url(#mask0_394_6384)">
<path d="M90 45C90 20.1472 69.8528 0 45 0C20.1472 0 0 20.1472 0 45C0 69.8528 20.1472 90 45 90C69.8528 90 90 69.8528 90 45Z" fill="#936DFE"/>
<path fill-rule="evenodd" clip-rule="evenodd" d="M0.748076 52.6324C0.159349 48.4273 -0.413762 40.1058 0.413831 35.1052C0.664514 33.5894 1.72591 31.6004 2.41888 29.814C3.9981 25.7442 5.73516 22.761 8.10061 19.2312C11.8166 13.6869 14.3846 11.1067 21.1353 6.9952C27.7911 2.9413 36.0936 -0.4432 47.2047 0.0503998C49.6183 0.1577 51.9086 0.641703 53.8892 1.0425C58.4926 1.9737 61.5443 2.7221 65.2531 4.6801C73.1787 8.8647 79.848 15.3076 84.3037 22.8692C90.153 32.7955 92.0804 46.9036 87.3119 60.2387C83.9733 69.575 79.5285 76.5633 71.6033 81.7346C68.4318 83.8041 64.7682 85.8653 61.5764 87.0258C60.3462 87.473 58.7403 87.5996 57.2316 88.0176C55.2215 88.575 53.8449 89.4348 51.8837 89.6712C38.741 91.2484 26.0439 86.9331 18.4576 81.3968C15.1147 78.9573 13.3768 77.0978 10.7703 74.1212C6.03606 68.7156 2.09856 62.3061 0.743433 52.6253L0.748076 52.6324ZM22.807 80.4117C23.9608 78.2465 24.6634 75.6345 25.4805 73.1361C18.1765 70.6628 13.8617 65.2317 9.10377 60.2387C8.67499 61.0271 8.46355 62.0309 7.43255 62.2226C8.31585 60.9832 8.93496 58.7041 7.76679 57.2621C8.21878 57.3661 8.40531 57.7328 9.10377 57.5929C9.43253 56.2645 9.51313 54.6911 9.43801 52.9631C7.94488 52.0152 5.08946 52.4153 4.42477 50.6485C5.99048 51.4139 8.01156 51.7292 9.77226 52.3017C10.6745 49.5899 9.2844 46.7311 9.10419 44.0344C7.6904 44.0795 6.60664 46.1778 5.76174 45.6876C5.89933 44.0598 7.75455 44.1321 8.4357 43.0422C7.63385 39.5362 6.79782 36.0644 4.09094 34.4437C-1.27385 54.4539 9.45152 73.7191 22.807 80.4117ZM8.43528 24.5224C7.51357 26.1418 3.55244 32.3162 4.75901 33.7823C6.73705 36.1859 8.74209 38.3803 9.10377 42.05C14.1592 39.4464 20.4765 38.0909 26.4832 36.4281C25.2197 31.0638 23.2104 26.4378 19.7987 23.1995C14.9969 24.8431 12.7556 30.7803 8.76952 32.1287C11.43 28.0368 15.481 25.3212 18.796 21.877C17.2446 20.2154 15.9267 18.3221 13.4485 17.5776C11.5363 19.2312 10.0419 21.7033 8.43528 24.5261V24.5224ZM10.4407 60.2395C13.9043 64.5281 20.252 70.9372 25.8152 72.1448C27.0019 67.2445 28.6254 61.0517 28.4887 55.9401C22.996 55.8031 15.8241 54.9254 10.775 53.2947C9.86131 55.7451 9.4473 59.0093 10.4407 60.2395ZM10.775 52.3025C16.2609 54.061 23.8941 54.9563 28.8229 54.6172C29.0171 48.252 28.4718 42.6188 27.1521 37.751C23.965 38.136 20.7513 38.8213 17.7937 39.7354C14.9733 40.6069 11.6148 41.323 9.77226 43.3733C10.4196 46.0417 10.9746 48.799 10.775 52.3038V52.3025ZM83.6378 28.4936C80.0278 26.8842 77.8619 23.8463 73.9455 22.541C75.4399 27.235 77.0175 31.8472 77.2876 37.7531C80.9014 38.3665 83.8644 39.6234 86.646 41.0603C86.8106 37.0181 84.9199 32.2034 83.6412 28.4953L83.6378 28.4936ZM79.9577 66.1922C82.6047 65.747 82.3747 63.4779 83.2997 61.2317C83.6821 60.3026 84.3367 59.7367 84.6367 58.9166C86.4345 54.0008 87.0148 48.447 86.9764 42.0509C84.4945 40.4043 80.1991 38.8672 77.2838 38.7436C78.4933 44.0736 77.7024 50.091 76.9495 55.279C79.0027 55.8403 81.282 53.977 81.9628 55.279C80.6262 56.7134 77.7374 55.5947 76.281 56.2712C74.747 61.1469 73.5948 66.4005 71.602 70.8223C74.9955 70.763 76.254 68.5912 79.6235 68.5077C80.0835 68.0792 79.9569 67.0691 79.9569 66.1905L79.9577 66.1922ZM73.2728 20.8844C73.7953 21.4577 74.8499 21.7392 75.6121 22.2073C78.1582 23.7703 79.8953 25.8883 82.2966 27.1678C82.557 27.0947 82.6853 26.8909 82.6308 26.5063C76.7115 15.521 65.7759 5.3503 49.8774 3.6875C34.4409 2.0735 22.3621 8.1151 14.4496 16.585C16.0111 18.457 18.3867 19.5239 20.1313 21.2151C23.8937 19.7415 26.8149 15.7239 31.1605 15.9239C28.1519 18.4587 23.4615 19.3293 21.1336 22.538C23.8747 26.4399 26.1768 30.7761 27.4838 36.097C29.7366 35.9007 31.074 34.7995 33.8341 35.1048C32.0371 32.2335 28.6672 28.5366 29.1551 24.1912C29.3855 22.138 30.9656 20.1014 32.1628 18.5693C33.2732 17.1491 34.714 15.5924 36.5076 15.9239C36.5068 19.0738 32.7035 20.3729 32.4971 24.1912C32.3865 26.2353 34.1341 29.4261 34.8368 30.8053C36.0628 33.2127 36.6832 33.6516 38.5131 34.7741C39.5095 34.863 40.5481 33.8483 40.8524 35.1048C39.4457 35.1457 39.3115 36.4465 38.1788 36.7584C35.0191 35.2025 30.9031 35.9512 27.8181 37.0891C29.8206 41.6111 29.5053 48.4269 29.4889 54.9471C31.0723 54.7032 31.7868 55.3191 33.1652 55.2778C34.7072 53.1661 35.1694 49.9853 37.5099 48.6637C40.5295 48.3442 41.5365 46.0338 42.8574 44.034C45.0984 43.6907 46.1011 44.5726 45.8656 46.6793C44.3826 46.8652 42.6198 46.775 42.5236 48.3326C45.5643 49.6229 43.1997 56.262 45.5314 58.2535C44.1775 61.5031 45.2714 65.1595 42.8574 67.1827C40.1041 65.1816 37.7357 61.3591 38.1784 57.2617C38.2805 56.4992 37.2128 56.8943 37.1757 56.2696C39.9395 56.0278 39.861 52.974 41.1862 51.3091C38.5772 51.8432 36.0155 54.7258 36.5072 56.2696C35.9818 56.3009 35.3483 56.2253 35.5044 56.931C34.3439 61.8313 36.7334 68.045 39.515 71.1514C39.3972 72.1373 39.3217 73.165 38.5126 73.466C33.3272 70.7568 30.5203 63.7272 32.4967 55.9388C31.6965 55.7388 30.9719 55.4632 29.8231 55.6081C28.9398 61.3482 28.1342 67.1651 26.8154 72.4743C31.5041 74.1292 37.6884 76.0313 43.8606 75.1197C44.5594 75.3101 44.8143 75.9394 45.866 75.7811C48.0057 72.6071 49.1089 68.407 48.8738 62.8836C45.4402 63.3442 46.8388 68.5866 45.1975 70.8207C43.5799 69.9187 44.2839 67.4441 44.5291 66.1909C45.1106 63.2144 47.8133 60.8855 47.8711 58.5846C47.9639 54.932 43.3786 52.3196 45.866 48.333C46.4294 49.2082 46.6392 50.4338 47.2026 51.3091C48.7544 51.1909 49.4064 50.1824 49.8765 48.9944C48.629 49.1264 47.9154 48.7301 47.8711 47.6715C51.747 45.0612 50.0863 38.9996 48.8738 34.7741C47.0498 34.3535 45.2267 36.4974 44.1948 34.7741C45.1017 33.4837 45.5491 32.2677 44.1948 31.1361C44.5645 29.7384 45.6381 29.0369 45.866 27.4985C44.318 25.282 45.0131 20.846 42.8578 19.2308C41.1469 23.0558 44.7882 28.8865 42.1898 31.4668C39.6146 29.1889 39.639 24.4313 40.1843 21.5458C39.4251 23.3298 38.3312 24.783 37.5108 26.5063C38.5186 27.3469 38.3869 28.6982 39.1816 29.8136C40.1645 31.192 42.5801 31.8447 42.1898 33.4511C39.8522 32.3241 36.4532 28.821 36.508 26.1756C36.5342 24.9128 37.9995 22.6541 38.8473 21.2151C39.8492 19.5151 41.574 18.1956 41.5213 16.2542C41.0697 15.9298 40.8532 15.3723 40.5185 14.9318C39.0157 14.4666 37.5475 15.9327 37.1765 14.601C37.4192 13.8485 39.4896 14.9055 39.1816 13.6089C37.7163 11.3084 34.1557 9.3249 33.8341 6.9948C38.1168 8.2124 40.2843 17.8431 44.5291 12.286C45.0321 12.7804 44.6291 14.1713 45.866 13.9396C48.9713 13.3007 52.9696 14.0223 55.8925 14.601C56.0419 12.5891 55.27 11.6178 55.8925 9.9709C55.5241 9.0601 53.879 8.2362 54.5555 7.3255C55.9111 7.4174 56.0022 8.7603 56.8953 9.3094C58.079 9.4886 57.7169 8.1385 58.9007 8.3177C60.2343 10.4148 63.7933 10.3104 64.9167 12.6167C61.7789 12.1887 59.0674 11.5351 58.2322 14.601C63.0226 16.0342 67.1556 18.1179 71.6012 19.8922C71.2973 17.1028 69.2737 14.2624 69.2615 12.286C72.0215 14.6161 71.0846 18.5079 73.2623 20.8965L73.2728 20.8844ZM23.4738 81.4047C28.6647 83.4337 33.3918 85.9217 40.1847 86.3652C42.5274 83.7227 44.5569 80.7704 45.5322 76.7745C39.634 76.3407 31.3762 75.6396 26.1473 73.4677C25.4231 76.2772 23.9574 78.3543 23.475 81.4047H23.4738ZM39.8505 56.6019C37.3542 58.7216 40.6418 64.2124 42.5244 65.2004C42.4354 62.2272 40.5071 60.7607 40.519 58.5863C40.5308 56.3907 42.9865 55.2924 42.5244 52.3029C41.0397 53.1097 39.2892 54.8043 39.8488 56.6019H39.8505ZM60.2385 84.0501C66.2676 81.8879 69.6662 78.9464 73.6079 75.4521C75.6927 73.6034 78.097 71.7548 78.6212 69.1687C75.7843 69.8894 73.6201 71.2754 70.9339 72.1452C70.3925 73.3729 70.2127 74.9589 68.9285 75.4521C68.9665 74.277 70.1646 74.2498 69.9312 72.8063C66.1026 73.9989 61.8595 75.6383 56.8965 76.1135C53.5304 76.4355 49.9301 75.8868 46.5354 76.7745C45.8019 80.899 43.4698 83.4421 41.5221 86.3652V87.0266C47.8985 88.0234 54.997 85.9305 60.2385 84.0501ZM42.8595 15.9256C43.2942 14.2298 41.2237 14.3864 41.523 15.9256H42.8595ZM47.5356 28.1608C46.6029 29.1116 46.0732 30.4617 46.1986 32.4598H48.2041C48.6168 31.0233 46.4459 30.0829 48.5383 29.8144C49.4545 31.1123 49.5144 33.2578 50.878 34.1134C51.3414 33.9105 50.9282 32.8402 51.5465 32.7905C51.4853 33.5121 51.8195 33.8428 52.5488 33.7827C55.6216 33.4374 59.0375 34.351 60.9045 34.1134C60.5791 29.8269 60.5116 26.2395 59.9018 22.8696C59.7271 21.9037 59.4962 20.3846 58.5652 19.8931C58.2474 23.2688 57.9529 29.4031 55.557 30.8062C55.078 31.0868 52.8835 32.37 52.2146 30.4759C57.3342 29.0043 57.849 20.5382 56.2255 15.2633C51.6094 15.5569 47.8424 14.1221 44.5278 14.9326C43.3292 21.5388 48.0939 22.2236 47.5495 28.1616L47.5356 28.1608ZM52.2158 75.4521C53.9271 74.1684 55.2802 72.5311 56.8953 71.153C57.9604 66.5818 58.4795 62.484 56.8953 58.2556C55.7469 56.9665 54.404 55.8703 53.8871 53.9566C56.5661 54.8335 57.2063 57.7269 58.9007 59.5785C59.3979 61.8422 59.2814 64.7131 59.5688 67.1848C61.9798 65.795 61.0476 59.4248 61.5743 57.2638C61.0687 56.4416 58.6956 57.4668 58.2322 56.6024C59.3692 55.7981 60.7703 57.1928 61.9085 56.2716C62.0389 48.7572 61.2556 42.1465 60.9058 35.1064C58.4559 34.7289 54.2791 34.4504 52.2158 34.7757C52.0251 36.6678 53.7537 38.202 53.8871 40.3976C53.9491 41.4199 53.3388 42.5561 53.2186 43.7049C52.8024 47.6815 53.1321 52.4207 52.5501 56.2716C52.0458 59.6123 51.0388 62.7726 50.2108 65.2008C49.9694 66.2114 50.5526 66.406 50.545 67.1848C48.7991 69.2054 48.4754 72.633 47.5368 75.4525C49.0983 75.4508 50.6598 75.4508 52.2171 75.4508L52.2158 75.4521ZM49.5444 52.6332C49.4976 55.3016 49.2811 59.9401 49.5444 63.2156C50.9274 62.9939 50.932 61.1494 51.2156 59.9088C52.1327 55.8912 52.4315 50.4923 52.2179 46.6806C51.6946 49.0312 51.0996 51.3108 49.5423 52.6345L49.5444 52.6332ZM70.2659 71.8141C72.3368 67.1392 73.8008 61.8631 75.2791 56.6015C73.2407 55.5718 71.51 57.425 68.9289 56.9323C67.9857 58.6443 67.9498 61.2542 66.2554 62.2235C64.9175 60.2775 67.889 58.5099 66.5892 56.6015C69.6139 52.6946 68.3241 42.5524 67.9262 36.4285C67.889 35.8038 66.8213 36.1988 66.9234 35.4363C68.3714 34.6296 66.5892 32.6477 66.2554 31.4676C65.9701 30.46 66.1731 29.2114 65.9211 28.1608C65.1522 24.9567 62.9627 22.2265 63.2472 19.8931C66.5259 24.1453 68.1418 30.042 69.9316 35.7671C71.9506 36.1446 74.8592 37.2027 76.2819 37.09C76.0261 31.2806 74.0852 27.1377 72.9398 22.2081C69.3535 19.473 64.7268 17.7676 59.9047 16.2551C59.3633 20.0722 62.2318 23.5594 63.2472 27.4993C63.9283 30.1426 63.3455 33.2954 65.2526 35.4363C64.0136 35.5754 64.5808 37.0152 64.5841 37.4207C64.609 40.6908 65.697 44.3304 65.5869 48.0031C65.5059 50.7053 65.1248 53.1485 64.9184 55.9401C64.8163 56.7026 65.884 56.3076 65.9211 56.9323C64.6128 56.4099 65.229 57.7908 64.5841 57.9244C64.2415 61.4438 62.8771 63.9518 62.2444 67.1839C63.1256 67.4144 62.9509 68.6893 63.9157 68.8371C65.1404 68.1753 65.3497 66.5087 67.2577 66.5225C66.858 70.5438 61.308 73.233 57.8997 71.1522C57.5756 73.147 56.1787 74.0795 55.2257 75.4512C60.9062 74.913 65.6498 73.4347 70.2583 71.8183L70.2659 71.8141ZM75.9464 55.6098C76.8596 50.4555 77.6336 42.5248 76.2806 38.0821C74.0561 37.8583 72.6237 36.8507 70.2646 36.7597C71.4256 42.4125 71.1348 50.4046 69.2619 56.2712C71.6843 56.2424 73.3302 55.4482 75.9468 55.6119L75.9464 55.6098Z" fill="black"/>
<path fill-rule="evenodd" clip-rule="evenodd" d="M50.5447 29.8139C51.704 29.6585 50.7363 31.6082 51.5474 31.7978C50.927 32.7123 50.7835 30.378 50.543 29.8143L50.5447 29.8139Z" fill="black"/>
</g>
</g>
<defs>
<clipPath id="clip0_394_6384">
<rect width="90" height="90" fill="white" transform="matrix(0 -1 1 0 0 90)"/>
</clipPath>
</defs>
</svg>
