<svg width="90" height="90" viewBox="0 0 90 90" fill="none" xmlns="http://www.w3.org/2000/svg">
<g clip-path="url(#clip0_394_6509)">
<mask id="mask0_394_6509" style="mask-type:luminance" maskUnits="userSpaceOnUse" x="0" y="0" width="90" height="90">
<path d="M0 0L0 90H90V0H0Z" fill="white"/>
</mask>
<g mask="url(#mask0_394_6509)">
<mask id="mask1_394_6509" style="mask-type:luminance" maskUnits="userSpaceOnUse" x="0" y="0" width="90" height="90">
<path d="M90 45C90 20.1472 69.8528 0 45 0C20.1472 0 0 20.1472 0 45C0 69.8528 20.1472 90 45 90C69.8528 90 90 69.8528 90 45Z" fill="white"/>
</mask>
<g mask="url(#mask1_394_6509)">
<path d="M0 112.637L0 -22.633H90.18L90.18 112.637H0Z" fill="#F89939"/>
</g>
<mask id="mask2_394_6509" style="mask-type:luminance" maskUnits="userSpaceOnUse" x="0" y="0" width="90" height="90">
<path d="M90 45C90 20.1472 69.8528 0 45 0C20.1472 0 0 20.1472 0 45C0 69.8528 20.1472 90 45 90C69.8528 90 90 69.8528 90 45Z" fill="white"/>
</mask>
<g mask="url(#mask2_394_6509)">
<path d="M30.0586 112.637L30.0586 -22.633H60.1186L60.1186 112.637H30.0586Z" fill="white"/>
</g>
<mask id="mask3_394_6509" style="mask-type:luminance" maskUnits="userSpaceOnUse" x="0" y="0" width="90" height="90">
<path d="M90 45C90 20.1472 69.8528 0 45 0C20.1472 0 0 20.1472 0 45C0 69.8528 20.1472 90 45 90C69.8528 90 90 69.8528 90 45Z" fill="white"/>
</mask>
<g mask="url(#mask3_394_6509)">
<path d="M60.1211 112.637L60.1211 -22.633H90.1811V112.637H60.1211Z" fill="#1E8943"/>
</g>
<mask id="mask4_394_6509" style="mask-type:luminance" maskUnits="userSpaceOnUse" x="0" y="0" width="90" height="90">
<path d="M90 45C90 20.1472 69.8528 0 45 0C20.1472 0 0 20.1472 0 45C0 69.8528 20.1472 90 45 90C69.8528 90 90 69.8528 90 45Z" fill="white"/>
</mask>
<g mask="url(#mask4_394_6509)">
<path d="M57.1144 44.9994C57.1144 38.3588 51.7311 32.9754 45.0904 32.9754C38.4497 32.9754 33.0664 38.3588 33.0664 44.9994C33.0664 51.6401 38.4497 57.0234 45.0904 57.0234C51.7311 57.0234 57.1144 51.6401 57.1144 44.9994Z" fill="#2A2C7A"/>
</g>
<mask id="mask5_394_6509" style="mask-type:luminance" maskUnits="userSpaceOnUse" x="0" y="0" width="90" height="90">
<path d="M90 45C90 20.1472 69.8528 0 45 0C20.1472 0 0 20.1472 0 45C0 69.8528 20.1472 90 45 90C69.8528 90 90 69.8528 90 45Z" fill="white"/>
</mask>
<g mask="url(#mask5_394_6509)">
<path d="M38.2799 36.9827C38.0635 37.1668 37.8528 37.3578 37.6519 37.5585L42.3705 41.7669L43.6832 43.4375C43.7659 43.3628 43.8539 43.294 43.9479 43.2331L42.6748 41.5335L39.8314 35.8878C39.5853 36.0298 39.3451 36.1817 39.1114 36.3433C39.278 36.573 39.2334 36.8946 39.0069 37.0687C38.7808 37.2419 38.4592 37.2021 38.2799 36.9827ZM35.182 46.3024C35.219 46.5855 35.0234 46.8444 34.7432 46.8896C34.8442 47.449 34.9908 47.9993 35.1815 48.5349C35.4474 48.4321 35.7477 48.5583 35.857 48.823C35.9666 49.0874 35.8439 49.3892 35.5832 49.5046C35.7055 49.761 35.8383 50.0123 35.9811 50.2578L41.2664 46.7898L43.2189 45.9548C43.1677 45.8554 43.1246 45.7521 43.0898 45.6459L41.1195 46.4355L34.9289 47.7213L40.9331 45.7388L43.0338 45.4377C43.0112 45.3283 42.9974 45.2172 42.9925 45.1056L40.8827 45.3587L34.5703 44.998C34.5703 45.285 34.5851 45.5683 34.6076 45.8493C34.7434 45.8354 34.8794 45.8749 34.9866 45.9595C35.0938 46.044 35.1639 46.167 35.182 46.3024ZM37.1619 38.9137C37.0784 39.0222 36.9559 39.0938 36.8205 39.1133C36.685 39.1328 36.5472 39.0987 36.4366 39.0183C36.275 39.2519 36.1231 39.4921 35.9811 39.7382L41.6269 42.5816L43.3264 43.8548C43.3875 43.7612 43.4559 43.6727 43.5309 43.59L41.8603 42.2773L37.6519 37.5585C37.4511 37.7593 37.2601 37.9701 37.0761 38.1867C37.2954 38.3659 37.3354 38.6875 37.1619 38.9137ZM48.3223 42.2773L46.6517 43.5899C46.7268 43.6726 46.7951 43.7611 46.8561 43.8547L48.5558 42.5815L54.2015 39.7381C54.0594 39.492 53.9075 39.2519 53.746 39.0182C53.6353 39.0986 53.4975 39.1327 53.362 39.1132C53.2266 39.0937 53.1041 39.0221 53.0206 38.9136C52.8472 38.6874 52.8872 38.3658 53.1064 38.1866C52.9222 37.9702 52.7314 37.7594 52.5306 37.5585L48.3223 42.2773ZM45.4519 40.7895L45.1989 42.8991C45.3105 42.904 45.4215 42.9178 45.531 42.9404L45.8321 40.8398L47.8145 34.8356L46.5288 41.0262L45.7391 42.9964C45.8455 43.0311 45.9488 43.0742 46.0482 43.1255L46.883 41.173L50.3511 35.8876C50.1055 35.7449 49.8542 35.6122 49.598 35.4897C49.4825 35.7504 49.1805 35.8732 48.9164 35.7638C48.6518 35.6542 48.5253 35.3538 48.6281 35.088C48.0926 34.8975 47.5423 34.751 46.9829 34.6499C46.9378 34.93 46.6789 35.1256 46.3959 35.0886C46.2605 35.0705 46.1375 35.0005 46.0529 34.8933C45.9684 34.7861 45.9289 34.6501 45.9428 34.5143C45.6617 34.4916 45.3784 34.4769 45.0915 34.4769L45.4519 40.7895ZM43.7869 35.0887C43.5038 35.1257 43.245 34.9301 43.1999 34.65C42.6404 34.7511 42.0901 34.8976 41.5545 35.0881C41.6573 35.3539 41.531 35.6543 41.2663 35.7639C41.002 35.8733 40.7001 35.7506 40.5847 35.4898C40.3284 35.6122 40.077 35.7451 39.8314 35.8878L43.2996 41.173L44.1345 43.1255C44.2339 43.0743 44.3372 43.0311 44.4435 42.9964L43.6538 41.0262L42.3681 34.8356L44.3505 40.8398L44.6517 42.9404C44.7594 42.9175 44.8706 42.9047 44.9838 42.8991L44.7307 40.7895L45.0915 34.4769C44.8046 34.4769 44.5211 34.4917 44.24 34.5144C44.254 34.6502 44.2145 34.7862 44.1299 34.8934C44.0453 35.0006 43.9223 35.0706 43.7869 35.0887Z" fill="white"/>
<path d="M47.5078 41.5341L46.2347 43.2337C46.3282 43.2947 46.4167 43.3631 46.4995 43.4381L47.812 41.7675L52.5307 37.5591C52.3299 37.3583 52.1191 37.1675 51.9027 36.9833C51.7234 37.2026 51.4018 37.2425 51.1757 37.0692C50.9491 36.8951 50.9045 36.5735 51.0711 36.3438C50.8374 36.1823 50.5972 36.0303 50.3512 35.8883L47.5078 41.5341ZM42.9924 44.8911C42.9982 44.7779 43.0109 44.6667 43.0337 44.559L40.933 44.2578L34.9288 42.2754L41.1194 43.5611L43.0897 44.3506C43.1244 44.2435 43.1681 44.1407 43.2188 44.0417L41.2663 43.2069L35.981 39.7388C35.8382 39.9844 35.7055 40.2356 35.5832 40.492C35.8439 40.6074 35.9666 40.9094 35.857 41.1735C35.7477 41.4381 35.4474 41.5646 35.1815 41.4618C34.9908 41.9973 34.8442 42.5476 34.7432 43.107C35.0234 43.152 35.2189 43.411 35.182 43.6941C35.1639 43.8294 35.0938 43.9525 34.9866 44.037C34.8794 44.1216 34.7434 44.1611 34.6076 44.1471C34.5851 44.4282 34.5703 44.7115 34.5703 44.9984L40.8826 44.6378L42.9924 44.8911ZM41.8603 47.7193L43.531 46.4067C43.4559 46.324 43.3875 46.2355 43.3264 46.142L41.6269 47.415L35.981 50.2585C36.123 50.5046 36.275 50.7448 36.4366 50.9785C36.5472 50.898 36.685 50.8638 36.8204 50.8833C36.9559 50.9028 37.0784 50.9745 37.1619 51.083C37.3354 51.3092 37.2954 51.6307 37.076 51.81C37.2601 52.0265 37.4509 52.2372 37.6518 52.438L41.8603 47.7193ZM42.6748 48.463L43.9479 46.7634C43.8544 46.7024 43.7658 46.634 43.6832 46.5589L42.3705 48.2295L37.6518 52.438C37.8526 52.6389 38.0635 52.8297 38.2799 53.0138C38.4592 52.7943 38.7808 52.7545 39.007 52.9279C39.1155 53.0113 39.1871 53.1338 39.2066 53.2693C39.2261 53.4048 39.192 53.5425 39.1114 53.6532C39.3452 53.8147 39.5854 53.9667 39.8314 54.1088L42.6748 48.463ZM47.1902 45.106C47.1852 45.2176 47.1714 45.3287 47.1489 45.4381L49.2495 45.7392L55.2537 47.7217L49.0631 46.4359L47.0928 45.6463C47.0581 45.7525 47.015 45.8559 46.9638 45.9552L48.9162 46.7902L54.2017 50.2582C54.3443 50.0126 54.4771 49.7613 54.5995 49.505C54.3388 49.3896 54.2161 49.0878 54.3255 48.8234C54.435 48.5588 54.7354 48.4325 55.0012 48.5353C55.1903 48.0053 55.3367 47.4553 55.4393 46.89C55.1593 46.8448 54.9637 46.586 55.0007 46.3029C55.0187 46.1675 55.0888 46.0445 55.196 45.9599C55.3032 45.8754 55.4391 45.8359 55.575 45.8498C55.5976 45.5688 55.6123 45.2855 55.6123 44.9985L49.2998 45.3591L47.1902 45.106ZM54.2017 50.2582L48.5559 47.4149L46.8562 46.1419C46.7952 46.2354 46.7269 46.3239 46.6518 46.4066L48.3223 47.7193L52.5307 52.4379C52.731 52.2364 52.9231 52.0269 53.1065 51.8099C52.8872 51.6306 52.8473 51.3091 53.0207 51.0829C53.1947 50.8564 53.5163 50.8117 53.7461 50.9784C53.9076 50.7447 54.0597 50.5043 54.2017 50.2582ZM55.0007 43.6942C54.9637 43.411 55.1593 43.1523 55.4393 43.1071C55.3382 42.5477 55.1917 41.9975 55.0012 41.4619C54.7354 41.5647 54.435 41.4382 54.3255 41.1736C54.2161 40.9094 54.3387 40.6075 54.5995 40.492C54.4771 40.2357 54.3444 39.9845 54.2017 39.7389L48.9163 43.2069L46.9639 44.0417C47.0151 44.1411 47.0582 44.2445 47.0929 44.3508L49.0632 43.5611L55.2538 42.2754L49.2496 44.2578L47.149 44.559C47.1715 44.6684 47.1853 44.7795 47.1903 44.8911L49.2999 44.638L55.6123 44.9985C55.6123 44.7116 55.5976 44.4283 55.575 44.1472C55.4391 44.1611 55.3032 44.1216 55.196 44.0371C55.0888 43.9525 55.0187 43.8295 55.0007 43.6942ZM49.5979 54.5067C49.8542 54.3843 50.1054 54.2516 50.351 54.1089L46.8829 48.8235L46.0481 46.8711C45.9487 46.9222 45.8455 46.9654 45.7392 47.0001L46.5287 48.9704L47.8144 55.1611L45.832 49.1568L45.5309 47.0561C45.4214 47.0787 45.3104 47.0925 45.1988 47.0974L45.4519 49.2072L45.0913 55.5195C45.3782 55.5195 45.6616 55.5048 45.9426 55.4823C45.9139 55.2008 46.1134 54.9453 46.3957 54.9079C46.6788 54.8708 46.9378 55.0665 46.9828 55.3466C47.5422 55.2456 48.0924 55.099 48.628 54.9083C48.5252 54.6425 48.6516 54.3422 48.9162 54.2328C49.1806 54.1233 49.4824 54.246 49.5979 54.5067Z" fill="white"/>
<path d="M46.4999 46.5588C46.4172 46.6339 46.3286 46.7022 46.2351 46.7633L47.5082 48.4628L50.3517 54.1086C50.5977 53.9666 50.8379 53.8146 51.0716 53.6531C50.9911 53.5424 50.957 53.4047 50.9765 53.2692C50.9961 53.1337 51.0677 53.0113 51.1762 52.9278C51.4023 52.7543 51.7239 52.7942 51.9032 53.0137C52.1196 52.8295 52.3303 52.6386 52.5312 52.4378L47.8125 48.2294L46.4999 46.5588ZM44.9843 47.0973C44.8711 47.0916 44.7599 47.0789 44.6522 47.056L44.351 49.1567L42.3686 55.161L43.6543 48.9703L44.444 47C44.3369 46.9654 44.2339 46.9217 44.135 46.871L43.3001 48.8234L39.832 54.1088C40.0776 54.2515 40.3289 54.3843 40.5852 54.5067C40.7006 54.2459 41.0025 54.1232 41.2668 54.2328C41.5315 54.3422 41.6578 54.6425 41.555 54.9083C42.085 55.0976 42.635 55.244 43.2003 55.3466C43.2454 55.0665 43.5042 54.8709 43.7874 54.9079C44.0698 54.9453 44.2692 55.2008 44.2405 55.4823C44.5216 55.5048 44.8049 55.5195 45.0918 55.5195L44.7313 49.2072L44.9843 47.0973Z" fill="white"/>
</g>
</g>
</g>
<defs>
<clipPath id="clip0_394_6509">
<rect width="90" height="90" fill="white" transform="matrix(0 -1 1 0 0 90)"/>
</clipPath>
</defs>
</svg>
