<svg width="90" height="90" viewBox="0 0 90 90" fill="none" xmlns="http://www.w3.org/2000/svg">
<g clip-path="url(#clip0_394_6640)">
<mask id="mask0_394_6640" style="mask-type:luminance" maskUnits="userSpaceOnUse" x="0" y="0" width="90" height="90">
<path d="M0 0L0 90H90V0H0Z" fill="white"/>
</mask>
<g mask="url(#mask0_394_6640)">
<path fill-rule="evenodd" clip-rule="evenodd" d="M48.8628 82.125C71.088 82.125 89.1133 65.2258 89.1133 44.3832C89.1133 23.5406 71.088 6.64137 48.8628 6.64137C26.6324 6.64137 8.60547 23.5397 8.60547 44.3832C8.6053 65.2268 26.6324 82.125 48.8628 82.125Z" fill="#BF5F00"/>
<path d="M48.8628 82.124C71.088 82.124 89.1133 65.2248 89.1133 44.3822C89.1133 23.5397 71.088 6.6404 48.8628 6.6404C26.6324 6.6404 8.60547 23.5387 8.60547 44.3822C8.6053 65.2258 26.6324 82.124 48.8628 82.124Z" stroke="black" stroke-width="0.00606742" stroke-miterlimit="10"/>
<path fill-rule="evenodd" clip-rule="evenodd" d="M40.6547 51.9922C41.7722 51.9922 42.6823 50.84 42.6823 49.4086C42.6823 47.9849 41.7722 46.8249 40.6547 46.8249C39.539 46.8249 38.6289 47.9849 38.6289 49.4086C38.6289 50.84 39.539 51.9922 40.6547 51.9922Z" fill="black" stroke="black" stroke-width="0.00606742" stroke-miterlimit="10"/>
<path fill-rule="evenodd" clip-rule="evenodd" d="M40.2864 50.6953C40.6252 50.6953 40.8982 50.3811 40.8982 49.9893C40.8982 49.5975 40.6252 49.2832 40.2864 49.2832C39.9527 49.2832 39.6797 49.5975 39.6797 49.9893C39.6797 50.3811 39.9527 50.6953 40.2864 50.6953Z" fill="white" stroke="black" stroke-width="0.00606742" stroke-miterlimit="10"/>
<path fill-rule="evenodd" clip-rule="evenodd" d="M35.7952 54.0939C35.48 53.7021 34.9997 52.8855 34.757 52.2085C34.5025 51.5588 34.2901 50.7422 34.2834 50.1913C34.2598 49.6598 34.4351 49.1361 34.6238 49.0236C34.8059 48.948 35.212 49.206 35.3755 49.6385C35.5104 50.0788 35.3401 50.9924 35.5222 51.6014C35.7092 52.2299 36.134 52.8642 36.4205 53.2909C36.6682 53.7448 37.0575 53.9465 37.0929 54.1637C37.1047 54.379 36.8384 54.5691 36.6193 54.54C36.3766 54.5555 36.1104 54.4779 35.7952 54.0939Z" fill="black" stroke="black" stroke-width="0.00606742" stroke-miterlimit="10"/>
<path fill-rule="evenodd" clip-rule="evenodd" d="M41.4904 35.7429C42.5876 35.7429 43.4741 36.9028 43.4741 38.3265C43.4741 39.758 42.5876 40.9102 41.4904 40.9102C40.3982 40.9102 39.5117 39.758 39.5117 38.3265C39.5117 36.9028 40.3982 35.7429 41.4904 35.7429Z" fill="black" stroke="black" stroke-width="0.00606742" stroke-miterlimit="10"/>
<path fill-rule="evenodd" clip-rule="evenodd" d="M41.1252 37.8027C41.4589 37.8027 41.7319 38.1169 41.7319 38.501C41.7319 38.8928 41.4589 39.207 41.1252 39.207C40.7848 39.207 40.5117 38.8928 40.5117 38.501C40.5117 38.1169 40.7848 37.8027 41.1252 37.8027Z" fill="white" stroke="black" stroke-width="0.00606742" stroke-miterlimit="10"/>
<path fill-rule="evenodd" clip-rule="evenodd" d="M37.5157 32.6696C37.1028 33.2553 36.4471 34.4288 36.0646 35.3502C35.6584 36.2928 35.3129 37.4043 35.1915 38.1433C35.0634 38.8842 35.1426 39.6174 35.3314 39.7222C35.5134 39.8405 35.9803 39.4215 36.2415 38.8144C36.4657 38.2131 36.4657 36.9911 36.7572 36.1183C37.0471 35.2803 37.6488 34.3377 38.0179 33.7247C38.3516 33.1234 38.832 32.7666 38.8977 32.4678C38.9584 32.173 38.6988 31.979 38.4679 31.9926C38.2303 32.0334 37.9219 32.1245 37.5157 32.6696Z" fill="black" stroke="black" stroke-width="0.00606742" stroke-miterlimit="10"/>
<path fill-rule="evenodd" clip-rule="evenodd" d="M40.0457 81.2434C39.803 82.3397 39.8452 83.443 40.1721 84.5812C40.489 85.7403 40.9188 87.1857 42.0058 88.0865C43.0845 89.0222 44.9182 89.937 46.6828 89.9928C48.4609 90.0557 51.0025 89.2038 52.4839 88.3798C53.9148 87.5698 54.8081 86.6341 55.3238 85.0839C55.8261 83.5338 55.8631 81.5786 55.4806 79.1416L40.0457 81.2434Z" fill="black" stroke="black" stroke-width="0.00606742" stroke-miterlimit="10"/>
<path fill-rule="evenodd" clip-rule="evenodd" d="M56.6281 81.9206C57.0949 80.1679 56.9551 78.932 56.2084 78.1569C55.4315 77.4028 54.4438 77.1444 52.1197 77.3539C49.7534 77.5913 44.4747 78.8061 42.2786 79.4906C40.1062 80.2029 39.0629 80.8313 39.1236 81.4807C39.7472 81.5436 40.2022 81.6902 40.5124 81.9765C40.7972 82.2698 40.7921 82.6189 40.9371 83.1566C41.082 83.7292 41.1073 84.595 41.4039 85.2723C41.7022 85.9706 41.8708 86.641 42.6848 87.2275C43.4854 87.828 44.8506 88.5892 46.1972 88.7567C47.532 88.9383 49.4736 88.6101 50.6146 88.2819C51.7438 87.9607 52.3017 87.3462 52.9202 86.8435C53.4966 86.3547 53.891 85.8868 54.1758 85.3282C54.4438 84.7766 54.486 84.1202 54.6073 83.6035C54.7219 83.1217 54.5348 82.6817 54.8854 82.3885C55.2258 82.1231 55.7904 81.9416 56.6281 81.9206Z" fill="#BF5F00"/>
<path fill-rule="evenodd" clip-rule="evenodd" d="M40.3112 8.72752C40.0685 7.63742 40.1107 6.53372 40.4393 5.38932C40.7545 4.24302 41.1859 2.80572 42.2713 1.88442C43.3517 0.976622 45.1837 0.0339249 46.95 -0.0300751C48.7146 -0.0494751 51.2814 0.759422 52.7562 1.59152C54.1871 2.42172 55.0854 3.35082 55.5893 4.88702C56.0932 6.44262 56.1286 8.39773 55.7477 10.8281L40.3112 8.72752Z" fill="black" stroke="black" stroke-width="0.00606742" stroke-miterlimit="10"/>
<path fill-rule="evenodd" clip-rule="evenodd" d="M56.8929 8.03984C57.3715 9.79914 57.2266 11.0347 56.4799 11.8028C55.6979 12.5786 54.7322 12.8288 52.3912 12.6135C50.0249 12.3963 44.7462 11.1821 42.5502 10.476C40.371 9.77784 39.3395 9.14354 39.3884 8.48604C40.0137 8.42974 40.4687 8.28424 40.7771 7.99134C41.0569 7.71794 41.0687 7.36294 41.2086 6.81014C41.3417 6.25154 41.3788 5.40004 41.6704 4.68814C41.9485 4.01124 42.1491 3.33234 42.9496 2.73294C43.7502 2.14524 45.1153 1.40624 46.4637 1.21034C47.7985 1.04934 49.7333 1.37134 50.8861 1.68554C52.0204 2.02114 52.5614 2.63404 53.185 3.12284C53.7564 3.63294 54.1693 4.09464 54.4474 4.63964C54.7204 5.20414 54.7457 5.86744 54.8721 6.36404C54.9816 6.86634 54.8114 7.30664 55.1569 7.57824C55.4974 7.86534 56.067 8.01854 56.8929 8.03984Z" fill="#BF5F00"/>
<path fill-rule="evenodd" clip-rule="evenodd" d="M75.6943 46.0773C75.5308 47.8094 75.5797 48.4941 75.0572 50.4629C74.5246 52.4452 73.6314 55.6301 72.5578 57.8219C71.4842 60.0079 70.301 61.74 68.6628 63.478C67.0128 65.2178 64.7612 67.0333 62.7707 68.1564C60.787 69.2737 58.0752 69.4618 56.8432 70.1543C55.6179 70.8523 56.1218 71.3481 57.8628 70.9361C59.5988 70.5247 63.7904 68.4997 63.7904 68.4997C66.1078 67.3321 68.0797 65.7687 69.8039 63.7224C71.5145 61.676 72.9892 58.5978 73.9954 56.3148C74.973 54.059 75.3437 51.9079 75.7381 50.267C76.1325 48.6687 76.21 47.887 76.3263 46.6573C76.4224 45.4353 76.4224 44.192 76.3263 42.9564C76.21 41.748 76.1325 40.9586 75.7381 39.3467C75.3437 37.7329 74.973 35.576 73.9954 33.3066C72.9892 31.0372 71.5145 27.9648 69.8039 25.8971C68.0797 23.8721 65.7808 22.3437 63.7904 21.1217C61.7763 19.9133 59.8465 19.1103 57.8628 18.6836C56.6005 18.4605 55.928 18.412 55.746 18.5381C55.5808 18.67 55.9398 18.9784 56.8432 19.4594C58.8454 19.6902 60.787 20.34 62.7707 21.4573C64.7612 22.5881 67.0128 24.4036 68.6628 26.1415C70.301 27.8814 71.4842 29.6058 72.5578 31.7918C73.6314 33.9836 74.5246 37.1743 75.0572 39.1566C75.5797 41.1273 75.5308 41.812 75.6943 43.5422C75.8527 45.2743 75.8527 44.3452 75.6943 46.0773Z" fill="black" stroke="black" stroke-width="0.00606742" stroke-miterlimit="10"/>
<path fill-rule="evenodd" clip-rule="evenodd" d="M37.8531 20.7217C38.03 20.485 38.6722 20.2891 39.1525 19.8643C39.6244 19.4512 40.28 18.7529 40.6997 18.1458C41.0941 17.5387 41.3604 16.4913 41.5963 16.2178C41.8272 15.9734 42.1306 16.274 42.107 16.6309C42.0463 17.0072 41.748 17.7617 41.3536 18.3553C40.966 18.9624 40.3593 19.6471 39.8132 20.163C39.2604 20.7023 38.3806 21.3443 38.0654 21.4413C37.7267 21.5402 37.6778 20.9952 37.8531 20.7217Z" fill="black" stroke="black" stroke-width="0.00606742" stroke-miterlimit="10"/>
<path fill-rule="evenodd" clip-rule="evenodd" d="M42.3198 14.2199C42.3552 14.4565 42.3804 15.2731 42.2945 15.4632C42.1984 15.6514 41.8462 15.5253 41.804 15.3022C41.7366 15.085 41.9136 14.4003 42.0046 14.1908C42.0889 14.0162 42.2641 14.0162 42.3198 14.2199Z" fill="black" stroke="black" stroke-width="0.00606742" stroke-miterlimit="10"/>
<path fill-rule="evenodd" clip-rule="evenodd" d="M37.4233 21.7396C37.4284 21.9627 37.2531 22.7948 37.1503 22.9403C37.0155 23.0877 36.7121 22.8995 36.707 22.6474C36.707 22.4243 36.9851 21.7959 37.12 21.6271C37.2346 21.4875 37.398 21.5166 37.4233 21.7396Z" fill="black" stroke="black" stroke-width="0.00606742" stroke-miterlimit="10"/>
<path fill-rule="evenodd" clip-rule="evenodd" d="M30.5115 70.7403C31.7132 70.2858 32.866 70.377 34.0374 71.0896C35.1953 71.8089 36.8638 73.2892 37.4773 74.9649C38.0773 76.6687 38.1211 79.4967 37.629 81.1307C37.125 82.7576 35.8694 83.805 34.4925 84.65C33.0851 85.5158 30.766 86.4306 29.293 86.235C27.8183 86.0395 26.6351 85.1388 25.6947 83.5048C23.9891 84.1961 22.666 84.2659 21.6346 83.6863C20.6099 83.1138 19.9307 81.9197 19.5717 80.0763C17.3217 79.9366 15.5436 79.4269 14.2148 78.575C12.8678 77.7229 12.0304 76.529 11.6119 74.9649C10.4833 75.2651 9.51863 75.2025 8.62672 74.6995C7.72874 74.2249 7.01885 73.4077 6.33323 72.0602C5.62335 70.7265 5.04088 68.9455 4.49481 66.6897C3.52402 66.4317 2.84447 65.9565 2.43206 65.1884C2.02554 64.4494 2.06194 63.4776 2.04964 62.1936C2.01324 60.894 2.05571 59.3927 2.20133 57.5287C1.26694 57.1738 0.629865 56.3417 0.290089 55.0634C-0.055922 53.7871 -0.0618209 51.6496 0.132168 49.869C0.326325 48.102 0.744977 46.3292 1.43666 44.4923C1.01801 42.0212 0.872393 40.0796 0.975539 38.5085C1.07262 36.9645 1.43059 35.8958 2.04947 35.246C2.38942 32.4044 2.8261 30.0651 3.42677 28.1177C4.02138 26.1839 4.74357 24.6884 5.56857 23.7108C6.36357 22.7623 7.25548 22.322 8.2443 22.3919C8.59621 19.8994 9.20919 17.8667 10.0827 16.1345C10.9566 14.4102 12.3519 13.0001 13.4501 12.1757C14.53 11.3863 15.519 11.1768 16.5081 11.4697C17.4059 9.3205 18.6919 7.8115 20.416 6.8901C22.1453 5.9824 24.2132 5.6895 26.7615 6.0096C27.3565 5.2764 28.2851 4.8652 29.5964 4.774C30.9059 4.6964 32.775 4.4733 34.5717 5.48C36.3615 6.5197 39.2857 8.8589 40.2312 10.8567C41.1245 12.8662 40.4924 15.9192 40.002 17.3701C39.4795 18.8229 37.9694 18.7473 37.2464 19.4863C36.525 20.2408 36.5065 21.616 35.7177 21.8604C34.8986 22.1184 33.825 21.8255 32.4295 20.9818C31.6458 22.322 30.7795 23.2434 29.8256 23.802C28.8615 24.3684 27.8233 24.543 26.6891 24.3257C25.4941 25.7009 24.4863 26.6378 23.5526 27.2371C22.6121 27.8307 21.8604 28.0266 21.1795 27.852C20.6773 30.0865 20.1363 31.6712 19.4941 32.6914C18.8385 33.7253 18.1458 34.1093 17.352 33.927C16.7326 36.0567 16.1501 37.7248 15.5131 39.038C14.8701 40.3511 14.2632 41.2589 13.6018 41.7613C13.8627 42.5371 14.0083 43.1656 14.063 43.7029C14.1115 44.2343 14.069 44.6533 13.9113 44.9326C15.1977 45.5611 16.1321 46.657 16.7387 48.1932C17.3335 49.7565 17.588 51.7195 17.5037 54.1848C18.2554 54.9238 18.7964 55.7695 19.1908 56.8227C19.5548 57.8856 19.3593 59.61 19.8026 60.4343C20.2526 61.2781 21.1492 60.9289 21.8655 61.7533C22.5582 62.5835 23.2795 63.7783 24.0076 65.363C25.8953 66.1175 27.3447 66.9419 28.4486 67.8361C29.5357 68.7438 30.2149 69.6923 30.5115 70.7403Z" fill="black" stroke="black" stroke-width="0.00606742" stroke-miterlimit="10"/>
<path fill-rule="evenodd" clip-rule="evenodd" d="M36.5277 72.8319C38.117 72.6154 39.4215 72.7622 40.5086 73.272C41.5754 73.8025 42.462 74.6194 42.9541 75.9112C43.4513 77.2242 43.7294 79.5562 43.4142 81.0226C43.062 82.5099 42.1282 83.7948 40.8912 84.7165C39.6339 85.6731 37.4563 86.7206 35.9934 86.5669C34.5136 86.4063 33.2327 85.4776 32.0867 83.7529C30.612 84.6257 29.4541 84.8003 28.4951 84.2766C27.5361 83.7459 26.8687 82.5868 26.4254 80.6665C24.2361 80.5618 22.488 80.073 21.0682 79.1722C19.6604 78.2854 18.6413 76.9936 18.0101 75.2968C17.1182 75.7439 16.2991 75.7439 15.4861 75.2968C14.6609 74.8848 13.9025 74.005 13.1863 72.6575C12.4643 71.3036 11.809 69.5017 11.1962 67.1973C10.2982 66.9937 9.66117 66.534 9.28499 65.7872C8.90881 65.054 8.91487 64.09 8.90257 62.7905C8.86617 61.4928 8.90864 59.9915 9.05426 58.1275C8.11987 57.7706 7.48279 56.9405 7.14302 55.6622C6.79701 54.384 6.78504 52.2465 6.99133 50.4659C7.18549 48.7008 7.61021 46.926 8.28976 45.0892C7.87111 43.3086 7.72549 41.7724 7.82864 40.4243C7.92572 39.0917 8.28369 37.9745 8.90257 37.0726C9.19397 34.0157 9.61853 31.5911 10.201 29.5874C10.7774 27.5974 11.548 26.1601 12.3489 25.2717C13.1498 24.4144 13.9931 24.1758 14.9457 24.4842C15.3765 21.6562 16.0316 19.3713 16.9358 17.5286C17.8277 15.7208 19.2779 14.2467 20.3032 13.562C21.3104 12.8851 22.1961 12.8637 22.985 13.4728C24.6288 10.8387 26.2738 9.1086 28.0333 8.193C29.7811 7.2989 31.5271 7.2775 33.3912 8.1019C34.4766 7.1805 35.6597 6.6917 36.9878 6.6083C38.3108 6.5308 39.762 6.6568 41.2721 7.6616C42.7704 8.7303 45.2159 11.0346 45.9372 12.7745C46.6181 14.5338 45.9507 16.7333 45.4822 17.9689C45.0035 19.2122 43.8086 19.3228 43.1833 20.0773C42.5698 20.8454 42.4855 22.306 41.7339 22.4592C40.9384 22.6202 39.8884 22.1586 38.5181 21.0491C37.1041 22.8297 35.9698 24.0226 34.999 24.6588C34.0333 25.293 33.2934 25.3435 32.7777 24.8333C31.6485 26.0417 30.6355 26.9146 29.6412 27.479C28.64 28.0512 27.7535 28.2685 26.8855 28.1851C26.6867 30.1752 26.2855 31.6338 25.6603 32.6754C25.0232 33.715 24.2041 34.2523 23.1366 34.3435C22.6208 36.6827 22.0323 38.4982 21.2981 39.8948C20.5641 41.2971 19.7388 42.17 18.7741 42.6239C19.2473 43.3377 19.5446 44.0068 19.6903 44.74C19.8238 45.481 19.7995 46.1792 19.6175 46.9396C20.8249 47.2752 21.7168 48.1965 22.2932 49.7618C22.8635 51.3387 23.1184 53.484 23.0577 56.2771C23.9007 56.9463 24.5327 57.7978 24.9743 58.8316C25.399 59.9004 25.1445 61.6887 25.6603 62.5267C26.176 63.3568 27.3103 63.0775 28.0333 63.8456C28.7311 64.6622 29.3429 65.7736 29.8721 67.2808C31.4243 67.7211 32.7288 68.3708 33.8513 69.3058C34.9569 70.2542 35.8485 71.387 36.5277 72.8319Z" fill="#212121"/>
<path fill-rule="evenodd" clip-rule="evenodd" d="M31.9667 73.4727C31.8217 73.3749 31.5234 73.3051 31.0515 73.2911C30.5712 73.2841 29.9408 73.3049 29.1335 73.3819C29.0307 72.6557 28.751 71.9225 28.2959 71.1823C27.8291 70.4567 27.2762 69.5334 26.3796 68.9825C25.4695 68.4511 24.3032 68.1369 22.8605 68.0127C22.5437 67.0138 22.1796 66.2864 21.792 65.722C21.3791 65.1905 20.6931 65.0644 20.4875 64.7502C20.2819 64.4302 20.2987 63.8851 20.5667 63.8716C20.8279 63.9065 21.5375 64.2479 22.0161 64.8414C22.4661 65.4349 22.9077 66.2864 23.3206 67.3979C24.0908 67.3494 24.8324 67.4735 25.542 67.747C26.2397 68.0535 27.0285 68.5907 27.5324 69.066C28.0229 69.5412 28.1813 70.0164 28.5201 70.5672C28.8605 71.1474 29.1706 71.727 29.5161 72.4113C30.2442 72.2507 30.8746 72.2227 31.4324 72.3275C31.992 72.439 32.7015 72.844 32.8111 73.0327C32.8886 73.2283 32.6156 73.3749 31.9667 73.4727Z" fill="black" stroke="black" stroke-width="0.00606742" stroke-miterlimit="10"/>
<path fill-rule="evenodd" clip-rule="evenodd" d="M14.5954 54.4501C14.7046 53.038 14.6378 51.88 14.4437 50.8384C14.2374 49.8337 13.8493 49.0093 13.3698 48.3673C12.854 47.7466 12.2475 47.3063 11.4585 47.0483C11.756 46.1464 11.865 45.3434 11.7619 44.583C11.6466 43.8149 10.9367 43.0042 10.8457 42.558C10.7426 42.1662 11.0338 42.0207 11.228 42.1177C11.4221 42.2438 11.7619 42.6473 11.9925 43.1729C12.205 43.7238 12.3809 44.7149 12.4536 45.2871C12.5021 45.8671 12.4596 46.3074 12.3019 46.608C12.8299 46.7399 13.2909 47.1046 13.752 47.7524C14.1949 48.4022 14.7046 49.7154 14.9775 50.4835C15.2385 51.2729 15.3112 51.7054 15.3599 52.4251C15.3779 53.1582 15.3354 54.4695 15.2082 54.7992C15.0806 55.1464 14.8684 55.0223 14.5954 54.4501Z" fill="black" stroke="black" stroke-width="0.00606742" stroke-miterlimit="10"/>
<path fill-rule="evenodd" clip-rule="evenodd" d="M11.2283 38.9474C12.1143 37.803 12.8362 36.6082 13.3701 35.3377C13.9162 34.075 14.244 32.7618 14.4441 31.373C15.0751 31.4972 15.6879 31.1344 16.3555 30.2267C17.0172 29.3267 17.8902 26.7159 18.3452 26.0021C18.7767 25.3329 19.0127 25.6394 18.9587 26.0933C18.8795 26.5685 18.3452 27.8875 17.9627 28.7332C17.5632 29.6196 17.1385 30.6107 16.6651 31.1985C16.1856 31.7765 15.6822 32.0907 15.13 32.1683C14.8327 33.4038 14.4505 34.5987 13.9833 35.778C13.4918 36.9728 12.7759 38.5575 12.3024 39.2131C11.8051 39.8765 11.3438 39.8008 11.1557 39.7368C10.9735 39.6883 10.9979 39.4439 11.2283 38.9474Z" fill="black" stroke="black" stroke-width="0.00606742" stroke-miterlimit="10"/>
<path fill-rule="evenodd" clip-rule="evenodd" d="M15.0884 40.9865C15.7741 40.0981 16.3262 39.1768 16.7448 38.1934C17.1632 37.2158 17.4244 36.2033 17.5761 35.1268C18.0547 35.2451 18.5469 34.9251 19.0508 34.2404C19.5547 33.5557 20.239 31.5249 20.5913 30.9721C20.9368 30.4561 21.0952 30.6869 21.0648 31.0419C20.9856 31.4124 20.603 32.4171 20.2946 33.0882C19.9845 33.7593 19.6575 34.5546 19.2868 34.9949C18.9177 35.4352 18.5233 35.6932 18.1036 35.7417C17.8795 36.7057 17.5761 37.627 17.2188 38.5348C16.8298 39.4639 16.2959 40.6723 15.9197 41.1882C15.5253 41.7042 15.1734 41.6421 15.0278 41.5936C14.888 41.5645 14.9002 41.3628 15.0884 40.9865Z" fill="black" stroke="black" stroke-width="0.00606742" stroke-miterlimit="10"/>
<path fill-rule="evenodd" clip-rule="evenodd" d="M24.0078 23.4464C24.4999 22.9382 24.8758 22.5328 25.1606 22.1274C25.4455 21.7434 25.6157 21.4292 25.6949 21.1576C26.0707 21.4156 26.5797 21.4156 27.2235 21.1576C27.8674 20.9055 28.6865 20.4787 29.5174 19.6621C30.3297 18.8591 31.1438 17.7981 32.0471 16.4016C33.0112 16.6731 33.837 16.7236 34.5719 16.5761C35.2999 16.4365 35.937 16.0951 36.4089 15.521C36.864 14.943 37.1067 13.3777 37.3258 13.1468C37.5314 12.9587 37.7505 13.7268 37.6292 14.2932C37.4589 14.8789 37.0224 16.0524 36.4831 16.5761C35.9185 17.1076 35.1297 17.3578 34.4202 17.4626C33.6971 17.5751 33.0112 17.5324 32.2713 17.2802C31.6106 18.2947 30.9921 19.0958 30.4393 19.7455C29.8629 20.3953 29.5713 20.857 28.9106 21.1557C28.2247 21.4699 27.1022 21.1499 26.4584 21.5126C25.8162 21.9044 25.4825 23.041 25.0814 23.363C24.6567 23.6927 24.323 23.7199 24.0078 23.4464Z" fill="black" stroke="black" stroke-width="0.00606742" stroke-miterlimit="10"/>
<path fill-rule="evenodd" clip-rule="evenodd" d="M20.3379 57.3547C20.2654 57.7872 20.3497 58.7997 20.5688 59.2051C20.7862 59.6105 21.2059 59.4631 21.6357 59.82C22.0435 60.2099 22.8559 61.4047 23.0918 61.4881C23.3295 61.587 23.2806 60.7413 23.0143 60.3495C22.7227 59.9732 21.752 59.8336 21.4115 59.2051C21.066 58.5903 21.1081 56.9842 20.9514 56.6487C20.7508 56.3635 20.4053 56.9222 20.3379 57.3547Z" fill="black" stroke="black" stroke-width="0.00606742" stroke-miterlimit="10"/>
<path fill-rule="evenodd" clip-rule="evenodd" d="M23.8561 28.8223C24.2876 28.7603 25.2331 28.3413 25.6156 28.0271C25.973 27.7342 26.1314 27.0417 25.9982 26.9719C25.828 26.9312 25.1842 27.4258 24.6988 27.678C24.1965 27.9437 23.2308 28.2792 23.0909 28.4674C22.9527 28.6633 23.4246 28.9077 23.8561 28.8223Z" fill="black" stroke="black" stroke-width="0.00606742" stroke-miterlimit="10"/>
<path fill-rule="evenodd" clip-rule="evenodd" d="M30.4797 24.9281C30.8808 24.7535 31.7353 24.1037 32.0387 23.7061C32.3303 23.3143 32.3488 22.6238 32.2089 22.5733C32.0387 22.5733 31.4994 23.2367 31.0814 23.5936C30.6382 23.9777 29.7584 24.5499 29.6606 24.7729C29.5646 25.0037 30.055 25.1085 30.4797 24.9281Z" fill="black" stroke="black" stroke-width="0.00606742" stroke-miterlimit="10"/>
<path fill-rule="evenodd" clip-rule="evenodd" d="M39.166 78.1341C38.9722 77.4638 38.989 75.8509 38.7042 74.8803C38.4126 73.9307 37.425 72.9112 37.3997 72.4992C37.3643 72.1361 38.0739 72.0593 38.4733 72.59C38.8626 73.1486 39.4508 74.615 39.7003 75.6694C39.9177 76.7379 39.9362 78.4136 39.852 78.8397C39.7542 79.2446 39.3531 78.8114 39.166 78.1341Z" fill="black" stroke="black" stroke-width="0.00606742" stroke-miterlimit="10"/>
<path fill-rule="evenodd" clip-rule="evenodd" d="M43.84 83.6055C44.1501 84.0314 45.4478 84.9182 46.3107 85.2115C47.1652 85.5187 48.2523 85.7422 48.9366 85.3931C49.5989 85.0649 50.2478 84.0105 50.2782 83.1725C50.2714 82.3346 49.0343 81.2104 49.0461 80.3934C49.0714 79.6044 50.4298 78.7664 50.3877 78.4173C50.3203 78.0961 49.1321 78.131 48.6703 78.4173C48.1916 78.7525 47.5293 79.4577 47.5967 80.2677C47.6692 81.1056 49.004 82.5441 49.0461 83.2354C49.0411 83.9337 48.4765 84.4294 47.7063 84.3456C46.9107 84.2618 45.0787 82.8723 44.4298 82.7396C43.7675 82.6349 43.5248 83.1935 43.84 83.6055Z" fill="black" stroke="black" stroke-width="0.00606742" stroke-miterlimit="10"/>
<path fill-rule="evenodd" clip-rule="evenodd" d="M43.84 6.20889C44.1501 5.80349 45.4478 4.90939 46.3107 4.60289C47.1652 4.29639 48.2523 4.10629 48.9366 4.41469C49.5989 4.78519 50.2478 5.79769 50.2782 6.64149C50.2714 7.50069 49.0343 8.62568 49.0461 9.42098C49.0714 10.2318 50.4298 11.0697 50.3877 11.3975C50.3203 11.7389 49.1321 11.704 48.6703 11.3975C48.1916 11.0755 47.5293 10.3773 47.5967 9.54708C47.6692 8.73048 49.004 7.29129 49.0461 6.57939C49.0411 5.90249 48.4765 5.40589 47.7063 5.46799C46.9107 5.56689 45.0787 6.96349 44.4298 7.07399C43.7675 7.20009 43.5248 6.63569 43.84 6.20889Z" fill="black" stroke="black" stroke-width="0.00606742" stroke-miterlimit="10"/>
</g>
</g>
<defs>
<clipPath id="clip0_394_6640">
<rect width="90" height="90" fill="white" transform="matrix(0 -1 1 0 0 90)"/>
</clipPath>
</defs>
</svg>
