<svg width="90" height="90" viewBox="0 0 90 90" fill="none" xmlns="http://www.w3.org/2000/svg">
<g clip-path="url(#clip0_394_7285)">
<path d="M90 45.0019C89.7424 50.2641 90.788 70.7437 80.8347 80.1232C70.8812 89.5024 61.9786 87.3624 61.9786 87.3624C45.4811 94.7645 31.8615 84.2365 31.8615 84.2365C14.0559 83.0841 14.576 72.3911 14.576 72.3911C1.22452 66.6305 4.89036 54.9501 4.89036 54.9501C4.89036 54.9501 -6.11295 47.5568 4.89036 35.0501C4.89036 35.0501 1.22452 23.3694 14.576 17.6107C14.576 17.6107 14.0559 6.9161 31.8615 5.7636C31.8615 5.7636 45.4811 -4.7646 61.9786 2.6376C61.9786 2.6376 70.8812 0.497799 80.8347 9.877C90.788 19.2544 89.7424 39.7361 90 45.0019Z" fill="#F8E7B9"/>
<path d="M62.1973 86.4584C62.1964 86.4582 62.1956 86.4579 62.1947 86.4577M62.1973 86.4584L62.1963 86.4581C62.1968 86.4582 62.1973 86.4584 61.9805 87.3604L62.1947 86.4577M62.1973 86.4584L62.2052 86.4601C62.2162 86.4625 62.2355 86.4666 62.263 86.4721C62.3179 86.4829 62.4051 86.499 62.5227 86.517C62.758 86.5529 63.1146 86.5966 63.5776 86.6219C64.5036 86.6724 65.8536 86.6495 67.5084 86.3455C70.8083 85.7393 75.358 84.009 80.2004 79.446C84.9396 74.98 87.1294 67.7828 88.1371 60.8826C88.8983 55.67 88.9683 50.7962 89.015 47.5479C89.0297 46.5235 89.0421 45.6607 89.0731 45M62.1973 86.4584L89.0731 45M62.1947 86.4577C61.9959 86.4106 61.7871 86.4303 61.6007 86.514M62.1947 86.4577L61.6007 86.514M89.0731 45C89.0421 44.3389 89.0297 43.4758 89.015 42.4511C88.9683 39.2015 88.8984 34.3266 88.1371 29.1134C87.1294 22.2124 84.9396 15.0153 80.2004 10.5504M89.0731 45L80.2004 10.5504M61.6007 86.514C53.6092 90.0996 46.3223 89.3455 41.0119 87.6877M61.6007 86.514L41.0119 87.6877M32.4308 83.5005C32.4306 83.5004 32.431 83.5007 32.4308 83.5005ZM32.4308 83.5005C32.2847 83.3878 32.1075 83.3207 31.9233 83.3087C23.2129 82.745 19.179 79.8682 17.288 77.326C16.331 76.0395 15.8864 74.7921 15.68 73.8745C15.5768 73.4154 15.5336 73.0401 15.5159 72.7863C15.507 72.6596 15.5046 72.5636 15.5042 72.5032C15.504 72.473 15.5043 72.4518 15.5045 72.4401L15.5048 72.4301M32.4308 83.5005L15.5048 72.4301M32.4308 83.5005L32.4353 83.504L32.4594 83.5222M15.5048 72.4301C15.5048 72.4294 15.5048 72.4296 15.5048 72.4301ZM15.5048 72.4301C15.5217 72.0455 15.2992 71.69 14.9455 71.5373C8.55491 68.7801 6.32969 64.6725 5.63682 61.3207C5.28522 59.6197 5.32297 58.0819 5.44988 56.9683C5.51319 56.4128 5.59822 55.9669 5.66608 55.6644C5.69998 55.5132 5.72951 55.3982 5.74974 55.3237C5.75985 55.2864 5.76763 55.2593 5.77246 55.2428L5.7774 55.2262M15.5048 72.4301L5.7774 55.2262M5.7774 55.2262C5.7775 55.2259 5.77763 55.2254 5.77772 55.2251M5.77772 55.2251C5.77779 55.2249 5.77765 55.2253 5.77772 55.2251ZM5.77772 55.2251C5.89978 54.8334 5.75034 54.407 5.40967 54.1781L5.39385 54.1671C5.37864 54.1564 5.35385 54.1388 5.32046 54.1143C5.25366 54.0652 5.15267 53.9888 5.02534 53.8855C4.77035 53.6787 4.4118 53.366 4.01169 52.9525C3.20827 52.122 2.25693 50.9051 1.62648 49.3413C1.00032 47.7881 0.684017 45.8786 1.15812 43.6248C1.63381 41.3636 2.91789 38.6969 5.58881 35.661C5.80304 35.4175 5.87456 35.0798 5.77744 34.7704M5.77772 55.2251L5.77744 34.7704M5.77744 34.7704C5.77731 34.7699 5.77744 34.7704 4.89224 35.0482L5.77744 34.7704ZM5.77744 34.7704L5.77246 34.7536C5.76763 34.7371 5.75985 34.71 5.74974 34.6727C5.72951 34.5981 5.69999 34.4831 5.66608 34.332C5.59822 34.0294 5.51319 33.5835 5.44988 33.028C5.32296 31.9145 5.28522 30.3767 5.63682 28.6758C6.32968 25.3242 8.55486 21.217 14.9454 18.4607C15.2992 18.3081 15.5217 17.9528 15.5048 17.5681M5.77744 34.7704L32.4308 6.49577M15.5048 17.5681C15.5048 17.568 15.5048 17.5682 15.5048 17.5681ZM15.5048 17.5681C15.5048 17.5676 15.5047 17.5668 15.5047 17.5663C15.5047 17.5659 15.5047 17.5655 15.5047 17.5651C15.5046 17.5647 15.5046 17.5642 15.5046 17.5638L15.5045 17.5579C15.5044 17.5512 15.5042 17.5414 15.5042 17.5286C15.5041 17.519 15.5041 17.5077 15.5042 17.4948C15.5046 17.4344 15.507 17.3384 15.5159 17.2116C15.5336 16.9578 15.5768 16.5824 15.68 16.1233C15.8864 15.2055 16.3311 13.9578 17.288 12.6711C19.1791 10.1285 23.213 7.25126 31.9233 6.68756C32.1078 6.67556 32.2845 6.60877 32.4308 6.49577M32.4308 6.49577L32.4353 6.49226L32.4594 6.47406C32.482 6.45716 32.5173 6.43096 32.5652 6.39616C32.6611 6.32666 32.8069 6.22316 33.0003 6.09246C33.387 5.83116 33.963 5.46176 34.7073 5.03906C36.1971 4.19316 38.3541 3.13826 41.0119 2.30846C46.3223 0.650564 53.6092 -0.103538 61.6007 3.48216C61.7876 3.56596 61.997 3.58566 62.1963 3.53796L32.4308 6.49577ZM41.0119 87.6877C38.3541 86.858 36.1971 85.803 34.7073 84.9571M41.0119 87.6877L34.7073 84.9571M80.2004 10.5504C75.358 5.98746 70.8083 4.25687 67.5083 3.65067C65.8536 3.34667 64.5036 3.32366 63.5776 3.37426C63.1146 3.39956 62.7579 3.44316 62.5227 3.47916C62.405 3.49716 62.3178 3.51316 62.263 3.52406C62.2355 3.52946 62.2162 3.53356 62.2051 3.53596L62.1973 3.53777L80.2004 10.5504ZM34.7073 84.9571C33.963 84.5345 33.387 84.1651 33.0003 83.9038M34.7073 84.9571L33.0003 83.9038M33.0003 83.9038C32.8069 83.7731 32.6611 83.6696 32.5652 83.6001M33.0003 83.9038L32.5652 83.6001M32.5652 83.6001C32.5173 83.5653 32.4819 83.5391 32.4594 83.5222M32.5652 83.6001L32.4594 83.5222" stroke="#3C2C1E" stroke-width="1.85555" stroke-linecap="round" stroke-linejoin="round"/>
<path d="M27.5144 73.6289C27.5144 73.6289 32.5647 56.9149 45 45.9371M17.1715 64.3991C17.1715 64.3991 26.6545 40.3239 42.4143 32.591M12 50.179C12 50.179 21.1136 27.8491 38.2267 18.9937M12.1243 37.4558C12.1243 37.4558 14.3406 62.4025 30.4695 75M17.1715 24.4812C17.1715 24.4812 20.8654 49.1793 40.8124 71.6321M26.1611 16C26.1611 16 25.9157 31.5912 44.0158 56.0408" stroke="#D3BB87" stroke-width="1.85555" stroke-linecap="round" stroke-linejoin="round"/>
<path d="M63.6109 52.6375C68.7027 52.6375 72.8233 56.7616 72.8233 61.8499C72.8233 66.938 68.7027 71.0625 63.6109 71.0625C58.5263 71.0625 54.3984 66.938 54.3984 61.8499C54.3984 56.7616 58.5263 52.6375 63.6109 52.6375Z" fill="#EC9A9A"/>
<path d="M58.0642 63.4077C58.7528 63.0996 59.7056 63.7339 60.1951 64.821C60.6805 65.9119 60.5174 67.0427 59.8325 67.3526C59.1439 67.6587 58.1908 67.0262 57.7018 65.9373C57.2158 64.8483 57.379 63.7157 58.0642 63.4077Z" fill="#FFFFFE"/>
<path d="M63.6109 19.8797C68.7027 19.8797 72.8233 24.004 72.8233 29.0923C72.8233 34.1806 68.7027 38.3047 63.6109 38.3047C58.5263 38.3047 54.3984 34.1806 54.3984 29.0923C54.3984 24.004 58.5263 19.8797 63.6109 19.8797Z" fill="#EC9A9A"/>
<path d="M58.0642 30.651C58.7528 30.3428 59.7056 30.9754 60.1951 32.0644C60.6805 33.1516 60.5174 34.2859 59.8325 34.5941C59.1439 34.9021 58.1908 34.2679 57.7018 33.1803C57.2158 32.0896 57.379 30.957 58.0642 30.651Z" fill="#FFFFFE"/>
<path d="M56.2196 51.2701C58.7313 51.2701 60.7679 52.5693 60.7679 54.1712C60.7679 55.7731 58.7313 57.0703 56.2196 57.0703C53.7048 57.0703 51.668 55.7731 51.668 54.1712C51.668 52.5693 53.7048 51.2701 56.2196 51.2701Z" fill="#3C2C1E"/>
<path d="M56.2196 35.1196C58.7313 35.1196 60.7679 36.4188 60.7679 38.0207C60.7679 39.6243 58.7313 40.9219 56.2196 40.9219C53.7048 40.9219 51.668 39.6243 51.668 38.0207C51.668 36.4188 53.7048 35.1196 56.2196 35.1196Z" fill="#3C2C1E"/>
<path d="M64.9747 56.7344L64.75 36.3761C64.75 36.3761 75.6658 37.7406 75.3253 47.0672C74.9846 56.3939 64.9747 56.7344 64.9747 56.7344Z" fill="#E05659"/>
<path d="M64.9747 56.7344L64.75 36.3761C64.75 36.3761 75.6658 37.7406 75.3253 47.0672C74.9846 56.3939 64.9747 56.7344 64.9747 56.7344Z" stroke="#3C2C1E" stroke-width="1.85555" stroke-linecap="round" stroke-linejoin="round"/>
</g>
<defs>
<clipPath id="clip0_394_7285">
<rect width="90" height="90" fill="white" transform="matrix(0 -1 1 0 0 90)"/>
</clipPath>
</defs>
</svg>
