<svg width="90" height="90" viewBox="0 0 90 90" fill="none" xmlns="http://www.w3.org/2000/svg">
<g clip-path="url(#clip0_394_7299)">
<mask id="mask0_394_7299" style="mask-type:luminance" maskUnits="userSpaceOnUse" x="0" y="0" width="90" height="90">
<path d="M0 0L0 90H90V0H0Z" fill="white"/>
</mask>
<g mask="url(#mask0_394_7299)">
<path d="M0.0456856 77.2346C0.0961316 77.3058 0.158265 77.3679 0.229452 77.4184C0.358321 77.5283 0.519732 77.5929 0.688868 77.6021L31.838 80.7262H31.9298C36.9576 83.6158 42.9078 85.3203 49.6631 85.3203C53.8821 85.3203 57.9837 84.6611 61.7917 83.4827C63.5083 85.0392 65.7657 85.3203 68.499 85.3203C75.4565 85.3203 80.9613 81.0411 84.5787 74.2943C88.1961 67.5476 90 58.3387 90 48.1995C90 38.0603 88.1962 28.8514 84.5787 22.1046C80.9612 15.3579 75.4568 11.0787 68.499 11.0787C66.0623 11.0787 63.8778 11.394 62.1592 13.1001C58.246 11.841 54.0335 11.0787 49.6631 11.0787C42.9075 11.0787 36.9576 12.7832 31.9298 15.6728H31.838L0.688868 18.7969C0.658317 18.795 0.627716 18.795 0.597165 18.7969C0.416084 18.831 0.253156 18.9287 0.137748 19.0724C0.077161 19.1854 0.0455785 19.3117 0.0459548 19.4399C0.0264646 19.554 0.0329015 19.6711 0.0647084 19.7824C0.0965152 19.8937 0.15288 19.9965 0.229721 20.0831L16.0336 36.8978C15.0671 40.4738 14.5635 44.2567 14.5635 48.1996C14.5635 52.1931 15.1354 55.9916 16.1255 59.5931L0.218685 76.3527C0.108748 76.4815 0.044184 76.643 0.0349181 76.8121C-0.0116394 76.9617 -0.0116394 77.1219 0.0349181 77.2715L0.0456856 77.2346Z" fill="black"/>
<path d="M40.9062 15.315V48.1719H65.7811V15.315H40.9062Z" fill="url(#paint0_linear_394_7299)"/>
<path fill-rule="evenodd" clip-rule="evenodd" d="M52.6079 25.7296C54.9053 25.7296 57.1087 26.4061 58.7333 27.6101C60.3578 28.8142 61.2705 30.4472 61.2705 32.15C61.2705 33.8527 60.3578 35.4858 58.7333 36.6898C57.1087 37.8939 54.9053 38.5703 52.6079 38.5703C50.3104 38.5703 48.1071 37.8939 46.4825 36.6898C44.858 35.4858 43.9453 33.8527 43.9453 32.15C43.9453 30.4472 44.858 28.8142 46.4825 27.6101C48.1071 26.4061 50.3104 25.7296 52.6079 25.7296Z" fill="black"/>
<path d="M0.808594 76.8921L38.2977 80.625L19.0783 57.5295L0.808594 76.8921Z" fill="#606060"/>
<path d="M15.3281 48.2001C15.3281 68.2814 28.5552 84.5859 49.6934 84.5859C53.9921 84.5859 58.1487 83.8979 62.0059 82.6564C63.5464 84.2941 65.6584 84.5859 68.5296 84.5859C81.8122 84.5859 89.2961 68.2866 89.2961 48.2001C89.2961 28.1136 81.8134 11.8142 68.5296 11.8142C65.9922 11.8142 63.9398 12.1219 62.3734 13.9275C58.4076 12.6061 54.1343 11.8142 49.6934 11.8142C28.5552 11.8142 15.3281 28.12 15.3281 48.2001ZM48.3153 27.1587C48.3171 26.5062 48.4179 25.8311 48.4991 25.1373C49.2706 18.5325 51.284 16.7759 53.7365 16.7759C56.9835 16.7759 59.018 19.3147 59.0526 19.9721C59.5285 28.9976 59.674 39.1219 58.1469 40.6664C56.7151 42.1137 48.2888 36.9468 48.3153 27.1587Z" fill="#606060"/>
<path opacity="0.82" d="M58.9727 48.3779C58.9727 64.2528 60.2985 77.7534 62.2805 82.9264C63.0963 83.6779 64.0811 84.0757 65.2208 84.3047C67.5347 80.6118 69.3556 65.9318 69.3556 48.3782C69.3556 30.2556 67.464 15.2439 65.0371 12.1755C64.0441 12.4818 63.1351 13.0422 62.3724 13.9213C62.3459 13.9125 62.308 13.9302 62.2807 13.9213C60.9474 17.4687 59.8929 24.7638 59.3404 34.044C59.3072 34.6023 59.2781 35.2177 59.2487 35.7898C59.0461 39.7314 58.9727 43.9376 58.9727 48.3779Z" fill="url(#paint1_linear_394_7299)"/>
<path d="M78.4615 58.8281C78.9842 54.2351 76.3427 52.3219 73.9844 48.2845C76.4991 44.0151 79.0449 42.1804 78.329 37.5882" stroke="black" stroke-width="1.4702" stroke-linecap="round"/>
<path d="M64.4495 54.2891C64.4495 54.2891 63.7852 51.8 63.7852 48.2049C63.7852 44.6097 64.4495 42.1207 64.4495 42.1207C66.5595 44.1488 70.7797 46.715 70.7797 48.2049C70.7797 49.6949 66.5708 52.2705 64.4495 54.2891Z" fill="black"/>
<path d="M69.8945 48.2031H74.0603" stroke="black" stroke-width="1.4702"/>
<path d="M5.73438 76.021L35.3473 78.1797L29.2544 68.4726L5.73438 76.021Z" fill="#CECECE"/>
<path opacity="0.9469" d="M15.3521 49.8485C15.4124 51.7086 15.6247 53.6052 15.869 55.0859H47.4884V49.8485H15.3521ZM15.3639 46.5406H47.5807V41.3032H15.8684C15.6558 42.4429 15.4545 44.43 15.3639 46.5406Z" fill="url(#paint2_linear_394_7299)"/>
<path d="M54.4586 40.75C54.4586 40.75 50.7491 36.4675 48.8896 32.5821C47.0301 28.6966 46.8477 18.8453 46.8477 18.8453" stroke="black" stroke-width="2.0582" stroke-linecap="round"/>
<path d="M0.808594 19.5202L38.2977 15.7873L19.0783 38.8828L0.808594 19.5202Z" fill="#606060"/>
<path d="M5.73438 20.3878L35.3473 18.2304L29.2544 27.9375L5.73438 20.3878Z" fill="#CECECE"/>
<path d="M60.8125 1.3367L67.8876 22.5625L68.7146 22.287L61.7313 1.3373L60.8125 1.3367Z" fill="white"/>
<path d="M69.6328 1.3367L71.4705 22.5625L72.2975 22.4708L70.4598 1.3378H69.6328V1.3367Z" fill="white"/>
<path d="M74.3164 22.838L75.1434 22.9297L77.7161 1.33739H76.8892L74.3164 22.838Z" fill="white"/>
<path d="M83.2344 48.1183L88.6033 58.3594C88.6033 58.3594 89.5854 51.532 89.5854 48.1183C89.5854 44.7046 88.6033 37.8773 88.6033 37.8773L83.2344 48.1183Z" fill="url(#paint3_linear_394_7299)"/>
<path opacity="0.9469" d="M51.8301 20.0246C52.1657 20.1174 52.386 20.573 52.4426 21.2911C52.4993 22.0092 52.3876 22.931 52.1322 23.8536C51.8768 24.7763 51.4986 25.6243 51.0808 26.211C50.663 26.7978 50.2397 27.0753 49.9042 26.9824C49.5687 26.8895 49.3484 26.4339 49.2917 25.7158C49.2351 24.9977 49.3467 24.076 49.6021 23.1533C49.8575 22.2306 50.2357 21.3827 50.6536 20.7959C51.0714 20.2091 51.4946 19.9317 51.8301 20.0246Z" fill="white" stroke="white" stroke-width="0.882089" stroke-linecap="round"/>
<path d="M15.3281 48.2001C15.3281 68.2814 28.5552 84.5859 49.6934 84.5859C53.9921 84.5859 58.1487 83.8979 62.0059 82.6564C63.5464 84.2941 65.6584 84.5859 68.5296 84.5859C81.8122 84.5859 89.2961 68.2866 89.2961 48.2001C89.2961 28.1136 81.8134 11.8142 68.5296 11.8142C65.9922 11.8142 63.9398 12.1219 62.3734 13.9275C58.4076 12.6061 54.1343 11.8142 49.6934 11.8142C28.5552 11.8142 15.3281 28.12 15.3281 48.2001ZM48.3153 27.1587C48.3171 26.5062 48.4179 25.8311 48.4991 25.1373C49.2706 18.5325 51.284 16.7759 53.7365 16.7759C56.9835 16.7759 59.018 19.3147 59.0526 19.9721C59.5285 28.9976 59.674 39.1219 58.1469 40.6664C56.7151 42.1137 48.2888 36.9468 48.3153 27.1587Z" fill="url(#paint4_linear_394_7299)"/>
<g opacity="0.38053" filter="url(#filter0_f_394_7299)">
<path d="M19.4641 77.5971C19.4326 78.618 19.6478 79.5267 19.6478 79.5267L36.3706 82.3751L40.6893 83.2939L43.6295 84.1209L56.9524 84.9478V84.8561L68.8973 70.4306L68.4378 69.7874L68.5296 69.6956L63.3841 50.8597L51.7148 48.9302L46.1101 50.7678L45.1912 50.8596L43.0779 73.9224L41.3321 80.2622L34.5328 78.884C34.5328 78.884 30.7637 76.4274 29.3873 75.3004C28.0109 74.1734 24.1337 72.6793 20.9341 74.7491C19.8088 75.4416 19.4955 76.5763 19.4641 77.5971ZM65.7732 87.5205L69.9999 88.5312L77.718 85.591L82.9552 78.7916L80.1069 76.3108L81.577 70.1545V70.0627L80.9338 66.5712L80.2906 66.8467L80.3824 64.8252C80.2004 63.2738 78.2335 63.8083 78.0853 64.8252L77.9015 67.2142H77.1665L74.7775 71.9921H74.6858V72.0839L72.4806 77.4131L66.2325 80.2615L65.7732 87.5205Z" fill="black"/>
</g>
<path d="M28.3222 76.0164C29.6988 77.1433 33.4109 79.5756 33.4109 79.5756L40.5932 81.1173L39.4682 82.9141L35.183 82.0606L18.5572 80.2393C18.5572 80.2393 17.5575 76.8482 19.8081 75.4631C23.0075 73.3933 26.9457 74.8894 28.3222 76.0164Z" fill="#0C1127"/>
<path d="M53.8242 87.4688C53.8242 87.4688 57.9238 89.3651 60.3602 89.2009C63.022 89.0215 65.688 86.4721 65.688 86.4721" stroke="#17204D" stroke-width="1.17612"/>
<path d="M54.3008 85.7814C54.3008 85.7814 58.4004 87.6776 60.8368 87.5134C63.4986 87.334 66.1645 84.7846 66.1645 84.7846" stroke="#17204D" stroke-width="1.17612"/>
<path d="M64.6523 88.2379L65.1721 80.961L71.3383 78.1152L75.2651 78.9399L78.9968 77.0438L81.8376 79.5607L76.6071 86.2887L68.8582 89.25L64.6523 88.2379Z" fill="#0C1127"/>
<path d="M39.4221 87.7148L37.1602 83.2747L55.8763 85.556L54.2828 89.1981L47.5228 90L39.4221 87.7148Z" fill="#0C1127"/>
<path d="M45.0872 76.7135L54.2174 81.1839L55.8688 85.6484L42.4688 84.8836L45.0872 76.7135Z" fill="#202E6A"/>
<path d="M67.304 70.3919L67.8386 71.1719L55.8126 85.6094L54.1758 81.1661L67.304 70.3919Z" fill="#1A2555"/>
<path d="M27.7991 76.9801C30.23 78.0008 33.3011 79.8961 33.3011 79.8961L40.2077 81.3919L39.5421 84.0156L35.2569 83.1621L18.5511 80.2957C18.5511 80.2957 18.2291 78.4091 20.4796 77.0241C22.7301 75.639 25.3682 75.9595 27.7991 76.9801Z" fill="#202E6A"/>
<path d="M41.9836 74.6387L44.0679 51.5987L44.9775 51.4687L45.5013 76.7088L42.4925 84.9297L39.4844 83.982L41.9836 74.6387Z" fill="#08060C"/>
<path d="M44.8242 51.4768L50.5691 49.6471L62.2462 51.569L67.4032 70.4426L54.1877 81.2188L45.2984 76.9155L44.8242 51.4768Z" fill="url(#paint5_linear_394_7299)"/>
<path d="M77.002 65.5912C77.1502 64.5743 79.0964 64.0515 79.2785 65.603L79.1511 69.259L76.5938 70.8906L77.002 65.5898V65.5912Z" fill="black"/>
<path d="M71.3789 78.1496L75.238 78.9766L79.0052 77.047L80.4754 70.8907L79.8323 67.3073L78.1783 67.9504H76.065L73.5841 72.8204L71.3789 78.1496Z" fill="#202E6A"/>
<path d="M75.2383 78.9766L79.0055 77.047L80.4757 70.8907L79.8325 67.3073L78.1786 67.9504L77.7686 71.963L75.2383 78.9766Z" fill="#192351"/>
</g>
</g>
<defs>
<filter id="filter0_f_394_7299" x="14.3061" y="43.7749" width="73.8057" height="49.9112" filterUnits="userSpaceOnUse" color-interpolation-filters="sRGB">
<feFlood flood-opacity="0" result="BackgroundImageFix"/>
<feBlend mode="normal" in="SourceGraphic" in2="BackgroundImageFix" result="shape"/>
<feGaussianBlur stdDeviation="2.5774" result="effect1_foregroundBlur_394_7299"/>
</filter>
<linearGradient id="paint0_linear_394_7299" x1="65.7592" y1="20.7219" x2="46.0889" y2="26.6612" gradientUnits="userSpaceOnUse">
<stop stop-color="#BCFF04"/>
<stop offset="1" stop-color="#BC6B04"/>
</linearGradient>
<linearGradient id="paint1_linear_394_7299" x1="56.7919" y1="39.1151" x2="64.1132" y2="39.1151" gradientUnits="userSpaceOnUse">
<stop stop-color="#414141"/>
<stop offset="1" stop-color="#414141" stop-opacity="0"/>
</linearGradient>
<linearGradient id="paint2_linear_394_7299" x1="20.5988" y1="48.2139" x2="40.4455" y2="48.2139" gradientUnits="userSpaceOnUse">
<stop stop-color="#B5B5B5"/>
<stop offset="1" stop-color="white"/>
</linearGradient>
<linearGradient id="paint3_linear_394_7299" x1="89.5462" y1="48.1271" x2="83.2246" y2="48.1271" gradientUnits="userSpaceOnUse">
<stop stop-color="#B5B5B5"/>
<stop offset="1" stop-color="white"/>
</linearGradient>
<linearGradient id="paint4_linear_394_7299" x1="63.9963" y1="93.1672" x2="53.1467" y2="69.8215" gradientUnits="userSpaceOnUse">
<stop/>
<stop offset="1" stop-opacity="0"/>
</linearGradient>
<linearGradient id="paint5_linear_394_7299" x1="62.8501" y1="58.3909" x2="44.7675" y2="58.3909" gradientUnits="userSpaceOnUse">
<stop stop-color="#1A274F"/>
<stop offset="1" stop-color="#070A15"/>
</linearGradient>
<clipPath id="clip0_394_7299">
<rect width="90" height="90" fill="white" transform="matrix(0 -1 1 0 0 90)"/>
</clipPath>
</defs>
</svg>
