<svg width="90" height="90" viewBox="0 0 90 90" fill="none" xmlns="http://www.w3.org/2000/svg">
<g clip-path="url(#clip0_391_1645)">
<path d="M45 90C69.8528 90 90 69.8528 90 45C90 20.1472 69.8528 0 45 0C20.1472 0 0 20.1472 0 45C0 69.8528 20.1472 90 45 90Z" fill="#F0F0F0"/>
<path d="M1.55078 56.7392C4.15445 66.4 9.89283 74.7731 17.6093 80.7021V56.7392H1.55078ZM41.0875 89.8288C42.3888 89.9419 43.6944 89.999 45.0006 90C65.7918 90 83.2866 75.8987 88.4504 56.7392H41.0875V89.8288ZM88.4504 33.2608C83.2866 14.1013 65.7918 0 45.0006 0C43.6819 0 42.3774 0.0601172 41.0875 0.171211V33.2608H88.4504ZM17.6093 9.29795C9.89283 15.2271 4.15445 23.6 1.55078 33.2608H17.6093V9.29795Z" fill="#D80027"/>
<path d="M89.6191 39.1312H35.2174V1.07031C31.117 1.97876 27.165 3.46064 23.4782 5.47223V39.131H0.380918C0.13043 41.0525 0 43.0114 0 45.0007C0 46.99 0.13043 48.9489 0.380918 50.8702H23.4782V84.529C27.165 86.5406 31.117 88.0224 35.2174 88.9309V50.8704H89.6191C89.8692 48.9489 90 46.99 90 45.0007C90 43.0114 89.8692 41.0525 89.6191 39.1312Z" fill="#0052B4"/>
</g>
<defs>
<clipPath id="clip0_391_1645">
<rect width="90" height="90" fill="white"/>
</clipPath>
</defs>
</svg>
