<svg width="90" height="90" viewBox="0 0 90 90" fill="none" xmlns="http://www.w3.org/2000/svg">
<g clip-path="url(#clip0_394_8584)">
<mask id="mask0_394_8584" style="mask-type:luminance" maskUnits="userSpaceOnUse" x="0" y="0" width="90" height="90">
<path d="M0 0L0 90H90V0H0Z" fill="white"/>
</mask>
<g mask="url(#mask0_394_8584)">
<mask id="mask1_394_8584" style="mask-type:luminance" maskUnits="userSpaceOnUse" x="0" y="0" width="90" height="90">
<path d="M90 45C90 20.1472 69.8528 0 45 0C20.1472 0 0 20.1472 0 45C0 69.8528 20.1472 90 45 90C69.8528 90 90 69.8528 90 45Z" fill="white"/>
</mask>
<g mask="url(#mask1_394_8584)">
<path d="M0 114.121L0 -65.879H90L90 114.121H0Z" fill="#0038A8"/>
</g>
<mask id="mask2_394_8584" style="mask-type:luminance" maskUnits="userSpaceOnUse" x="0" y="0" width="90" height="90">
<path d="M90 45C90 20.1472 69.8528 0 45 0C20.1472 0 0 20.1472 0 45C0 69.8528 20.1472 90 45 90C69.8528 90 90 69.8528 90 45Z" fill="white"/>
</mask>
<g mask="url(#mask2_394_8584)">
<path d="M45 114.121L45 -65.879H90L90 114.121H45Z" fill="#CE1126"/>
</g>
<mask id="mask3_394_8584" style="mask-type:luminance" maskUnits="userSpaceOnUse" x="0" y="0" width="90" height="90">
<path d="M90 45C90 20.1472 69.8528 0 45 0C20.1472 0 0 20.1472 0 45C0 69.8528 20.1472 90 45 90C69.8528 90 90 69.8528 90 45Z" fill="white"/>
</mask>
<g mask="url(#mask3_394_8584)">
<path d="M45 36.1759L90 102.551H0" fill="white"/>
</g>
<mask id="mask4_394_8584" style="mask-type:luminance" maskUnits="userSpaceOnUse" x="0" y="0" width="90" height="90">
<path d="M90 45C90 20.1472 69.8528 0 45 0C20.1472 0 0 20.1472 0 45C0 69.8528 20.1472 90 45 90C69.8528 90 90 69.8528 90 45Z" fill="white"/>
</mask>
<g mask="url(#mask4_394_8584)">
<path d="M46.0203 55.4831L44.999 54.4618L43.9776 55.4831L44.4847 63.217C44.3136 63.2282 44.1428 63.245 43.9728 63.2673L43.0434 56.2091L42.2107 57.0425L43.4651 63.3492C42.4519 63.5495 41.4885 63.9486 40.6306 64.5235L37.0576 59.1765H35.8793L40.2129 64.8244C40.077 64.929 39.9445 65.038 39.8156 65.1512L34.7052 59.3241H33.2617V60.7676L39.0889 65.878C38.9756 66.0069 38.8666 66.1394 38.762 66.2753L33.114 61.9416V63.1199L38.461 66.6928C37.8861 67.5509 37.487 68.5143 37.2867 69.5275L30.9801 68.2731L30.1466 69.1058L37.2048 70.0352C37.1825 70.2052 37.1658 70.376 37.1546 70.5471L29.4206 70.04L28.3993 71.0614L29.4206 72.0827L37.1546 71.5757C37.1658 71.7468 37.1825 71.9176 37.2048 72.0876L30.1466 73.0171L30.9801 73.8498L37.2867 72.5954C37.487 73.6086 37.8862 74.5721 38.461 75.4301L33.114 79.003V80.1813L38.762 75.8475C38.8666 75.9834 38.9756 76.116 39.0889 76.2449L33.2617 81.3553V82.7989H34.7052L39.8156 76.9717C39.9445 77.085 40.077 77.194 40.2129 77.2986L35.8793 82.9466H37.0576L40.6306 77.5996C41.4885 78.1744 42.4519 78.5736 43.4651 78.7739L42.2107 85.0805L43.0434 85.914L43.9728 78.8558C44.1428 78.8781 44.3136 78.8949 44.4847 78.9061L43.9776 86.6401L44.999 87.6612L46.0203 86.6399L45.5132 78.9059C45.6856 78.8948 45.856 78.8777 46.0252 78.8556L46.9545 85.9138L47.7873 85.0803L46.5328 78.7737C47.5461 78.5735 48.5096 78.1743 49.3677 77.5993L52.9405 82.9465H54.1189L49.7851 77.2985C49.9211 77.1939 50.0536 77.0849 50.1825 76.9717L55.2929 82.7988H56.7365V81.3552L50.9095 76.2447C51.0226 76.1159 51.1316 75.9834 51.2361 75.8474L56.8841 80.1812V79.0029L51.5371 75.43C52.1119 74.572 52.5111 73.6086 52.7116 72.5955L59.0179 73.8498L59.8515 73.0171L52.7932 72.0876C52.8154 71.9186 52.8325 71.748 52.8435 71.5757L60.5776 72.0827L61.5989 71.0614L60.5776 70.04L52.8435 70.5471C52.8325 70.3759 52.8157 70.2052 52.7932 70.0352L59.8515 69.1058L59.0179 68.2731L52.7116 69.5274C52.5112 68.5143 52.112 67.5509 51.5371 66.6929L56.8841 63.12V61.9417L51.236 66.2755C51.1314 66.1396 51.0225 66.0071 50.9094 65.8783L56.7364 60.7677V59.3242H55.2928L50.1824 65.1513C50.0535 65.0381 49.921 64.9291 49.785 64.8244L54.1188 59.1766H52.9404L49.3676 64.5237C48.5095 63.9487 47.546 63.5495 46.5327 63.3493L47.7872 57.0426L46.9544 56.2092L46.0251 63.2674C45.8559 63.2454 45.6856 63.2282 45.5131 63.2171L46.0203 55.4831ZM43.9384 46.0954L40.7101 46.1616L43.2832 48.1126L42.3486 51.2035L44.999 49.3588L47.6494 51.2035L46.7147 48.1126L49.2877 46.1616L46.0594 46.0954L44.999 43.0452L43.9384 46.0954ZM75.8408 102.554L76.1425 106.121L72.9023 107.644L76.3885 108.459L76.8349 112.012L78.6884 108.949L82.205 109.621L79.8633 106.912L81.5907 103.776L78.29 105.165L75.8408 102.554ZM11.708 105.165L8.40722 103.776L10.1347 106.912L7.79297 109.621L11.3095 108.949L13.1631 112.012L13.6092 108.459L17.0957 107.644L13.8554 106.121L14.1571 102.554L11.708 105.165Z" fill="#FCD116"/>
</g>
</g>
</g>
<defs>
<clipPath id="clip0_394_8584">
<rect width="90" height="90" fill="white" transform="matrix(0 -1 1 0 0 90)"/>
</clipPath>
</defs>
</svg>
