<svg width="92" height="90" viewBox="0 0 92 90" fill="none" xmlns="http://www.w3.org/2000/svg">
<g clip-path="url(#clip0_394_11076)">
<mask id="mask0_394_11076" style="mask-type:luminance" maskUnits="userSpaceOnUse" x="0" y="0" width="92" height="90">
<path d="M0 0L0 90H92V0H0Z" fill="white"/>
</mask>
<g mask="url(#mask0_394_11076)">
<path d="M46.0496 0.507301C70.6004 0.499201 90.5055 20.3962 90.5055 44.9469C90.5055 69.4985 70.6004 89.3987 46.0496 89.3906C21.5005 89.3983 1.59375 69.4985 1.59375 44.9469C1.59497 20.3962 21.5005 0.499201 46.0496 0.507301Z" fill="#74849D" stroke="#010101" stroke-width="1.62292" stroke-linecap="round" stroke-linejoin="round"/>
<path d="M44.1445 0.679703C69.2274 5.1173 81.3741 27.8352 81.3741 49.5458C81.3741 61.8488 73.0692 75.4083 66.1028 84.4609C84.0024 75.002 90.503 60.574 90.503 44.953C90.503 21.7127 72.6712 -0.0323973 44.1445 0.679703Z" fill="#010101" fill-opacity="0.35"/>
<path d="M39.6292 16.3501C59.1169 16.3468 74.9158 29.0294 74.9158 44.6739C74.9158 60.322 59.1169 73.0049 39.6292 73C20.1435 73.0049 4.34375 60.322 4.34375 44.6739C4.34375 29.0294 20.1435 16.3468 39.6292 16.3501Z" fill="#010101" fill-opacity="0.35"/>
<path d="M25.8027 15.9622C20.9774 10.3175 9.15153 12.4361 2.99515 12.4111C0.530286 16.8506 4.71153 24.3699 10.9884 28.2652C9.00766 32.4249 7.90492 37.7163 7.90492 44.4177C7.90492 50.7856 8.94183 55.8905 10.8076 59.9656C4.8349 64.3077 2.12611 68.8672 3.00478 75.1832C8.42569 74.2844 21.0773 77.7318 25.4736 72.5883C30.6517 74.3107 36.6648 74.929 43.0793 74.9273C62.5044 74.9326 83.9008 68.9271 83.4016 50.3125L83.0674 37.8508C82.4596 15.1882 52.7918 13.9088 43.0793 13.9106C36.7765 13.907 30.8618 14.4534 25.745 16.0539C25.8214 15.9763 25.8434 15.9411 25.8027 15.9622Z" fill="#74849D" stroke="#010101" stroke-width="1.51385" stroke-linecap="round" stroke-linejoin="round"/>
<path d="M13.276 62.2078C14.3577 63.8137 15.5891 65.3079 16.9516 66.6709C18.3142 68.0338 19.808 69.2655 21.4145 70.3464C18.0251 73.2698 11.8242 71.2877 5.68574 72.2266C5.57565 70.0903 9.71322 64.5666 13.276 62.2078Z" fill="#CCCCCC" stroke="#010101" stroke-width="1.62292" stroke-linecap="round" stroke-linejoin="round"/>
<path d="M13.2671 26.0703C14.3488 24.4644 15.5802 22.9702 16.9428 21.6073C18.3054 20.2443 19.7992 19.0126 21.4057 17.9318C18.0163 15.0084 10.3288 16.5444 5.08227 15.1596C4.60291 18.4037 9.70165 23.7197 13.2671 26.0703Z" fill="#CCCCCC" stroke="#010101" stroke-width="1.62292" stroke-linecap="round" stroke-linejoin="round"/>
<path d="M48.7291 17.692C53.4796 17.7452 57.2816 21.1451 57.2206 25.2855C57.1595 29.426 53.2585 32.7362 48.5079 32.683C43.7574 32.6298 39.9553 29.2333 40.0164 25.0928C40.0771 20.9523 43.9785 17.6388 48.7291 17.692Z" fill="white" stroke="#010101" stroke-width="1.33244" stroke-linecap="round" stroke-linejoin="round"/>
<path d="M50.5726 23.6278C52.1561 23.6455 53.4238 24.7777 53.4034 26.1567C53.383 27.5391 52.0824 28.6425 50.4989 28.6248C48.9154 28.607 47.6478 27.4749 47.6682 26.0925C47.6885 24.7134 48.9891 23.61 50.5726 23.6278Z" fill="#010101"/>
<path d="M48.2041 56.5113C52.9667 56.5611 56.7783 59.9568 56.7171 64.0911C56.6559 68.2254 52.745 71.5339 47.9825 71.4798C43.2199 71.4276 39.4083 68.0329 39.4695 63.8986C39.5307 59.7643 43.4417 56.4548 48.2041 56.5113Z" fill="white" stroke="#010101" stroke-width="1.33017" stroke-linecap="round" stroke-linejoin="round"/>
<path d="M50.1659 60.3926C51.7534 60.4097 53.0243 61.5413 53.0039 62.9195C52.9835 64.2978 51.6796 65.4007 50.0921 65.3826C48.5046 65.3653 47.2337 64.2336 47.2541 62.8554C47.2745 61.4772 48.5784 60.3742 50.1659 60.3926Z" fill="#010101"/>
<path d="M54.3378 45.1515C64.3571 42.4033 50.1263 49.8425 39.0898 44.4783C39.4743 50.5374 54.3133 55.0407 57.0138 55.9722C70.5236 59.3373 78.3997 51.0719 72.9272 41.803C68.9363 35.8144 51.1858 26.9259 54.3378 45.1515Z" fill="white" stroke="#010101" stroke-width="1.31735" stroke-linejoin="round"/>
<path d="M57.7021 34.2464C75.5194 37.7889 80.0427 60.8913 42.3711 48.6311C76.5814 74.7982 88.7017 34.8675 57.7021 34.2464Z" fill="#010101" fill-opacity="0.3"/>
</g>
</g>
<defs>
<clipPath id="clip0_394_11076">
<rect width="90" height="92" fill="white" transform="matrix(0 -1 1 0 0 90)"/>
</clipPath>
</defs>
</svg>
