<svg width="90" height="90" viewBox="0 0 90 90" fill="none" xmlns="http://www.w3.org/2000/svg">
<g clip-path="url(#clip0_394_11095)">
<mask id="mask0_394_11095" style="mask-type:luminance" maskUnits="userSpaceOnUse" x="0" y="0" width="90" height="90">
<path d="M45 0C20.1472 0 0 20.1472 0 45C0 69.8528 20.1472 90 45 90C69.8528 90 90 69.8528 90 45C90 20.1472 69.8528 0 45 0Z" fill="white"/>
</mask>
<g mask="url(#mask0_394_11095)">
<path d="M0.00880346 44.1406C0.00880346 25.9287 0.0099039 7.71682 0 -10.495C0 -10.837 0.0770303 -10.914 0.421466 -10.914C29.9923 -10.905 59.5631 -10.905 89.134 -10.905C88.5661 -10.655 87.9488 -10.542 87.3832 -10.278C85.8965 -9.58497 84.6288 -8.59277 83.4227 -7.50877C80.3041 -4.70387 78.0306 -1.28158 76.0993 2.38662C73.7532 6.84482 72.0321 11.5488 70.5994 16.3622C70.08 18.1083 69.5716 19.8577 69.1842 21.6399L69.171 21.6508C69.0004 21.7972 68.8211 21.7011 68.6494 21.6628C66.3165 21.1296 63.9428 20.7592 61.676 19.9615C61.1973 19.7768 60.7219 19.5801 60.2377 19.4097C59.1615 19.0283 58.0621 18.7541 56.9111 18.7267C56.8385 18.6426 56.7713 18.553 56.6536 18.5268C55.7864 17.9225 54.8621 17.4395 53.8123 17.2308C53.6351 17.1423 53.4623 17.0473 53.2819 16.9675C52.5083 16.6255 51.7082 16.4168 50.8499 16.514C50.2205 16.4539 49.6394 16.2092 49.0375 16.0453C46.5802 15.3765 44.1681 15.3121 41.7801 16.3753C40.4838 16.9522 39.1611 17.4723 37.8945 18.1137C37.4719 18.3279 37.0428 18.4175 36.5751 18.423C35.2777 18.4383 34.0254 18.1749 32.7764 17.869C32.0512 17.692 31.3205 17.5139 30.5601 17.6089C30.4226 17.3685 30.2091 17.3172 29.9461 17.3336C29.5488 17.3587 29.1626 17.4264 28.8027 17.5958C28.4066 17.7827 27.9279 17.9236 28.2019 18.5366C28.2107 18.5563 28.1843 18.5923 28.1744 18.6208C27.8476 18.8076 27.6121 19.1015 27.2445 19.2578C25.2087 20.1232 23.1828 21.0105 21.1657 21.9185C18.342 23.1915 15.6052 24.6338 12.8905 26.1188C12.2819 26.3647 11.6844 26.64 11.0649 26.8498C7.78776 27.96 5.3415 30.0951 3.47737 32.9296C1.5142 35.9159 0.590932 39.2552 0.189274 42.7638C0.137554 43.2228 0.176069 43.6959 0.00880346 44.1406Z" fill="#FEFEFE"/>
<path d="M89.134 100.913C59.5631 100.913 29.9923 100.912 0.421466 100.922C0.0770303 100.922 0 100.844 0 100.503C0.0099039 83.3841 0.00880346 66.266 0.00880346 49.1478C0.129851 49.2123 0.0979385 49.3303 0.104541 49.4298C0.223388 51.142 0.434671 52.8433 0.744993 54.5315C1.47128 58.4729 2.69496 62.2318 4.8419 65.6617C9.28875 72.7631 17.3373 76.1308 25.3705 74.3344C28.247 73.6908 30.953 72.6681 33.4796 71.1722C33.8999 70.923 34.3214 70.7985 34.821 70.8258C35.4912 70.8619 36.1646 70.8149 36.837 70.8039C37.2012 71.3951 37.7779 71.7 38.3996 71.9382C39.4098 72.325 40.4739 72.4332 41.5402 72.5413C44.6214 72.8538 47.1183 71.6879 49.2466 69.5714C50.468 69.6413 51.6664 69.8653 52.867 70.085C53.0045 70.1101 53.1256 70.1636 53.24 70.2456C53.7715 70.628 54.3779 70.8334 55.0183 70.9241C56.2772 71.1023 57.5372 71.1186 58.8049 70.9744C59.7601 70.8662 60.6625 70.4772 61.6352 70.4772C61.7156 70.6346 61.8718 70.71 62.0039 70.8094C63.7327 72.1086 65.4526 73.4188 67.1968 74.6983C68.448 75.6162 69.4197 76.9361 71.0307 77.3393C71.0825 77.4814 71.1287 77.6267 71.1881 77.7655C72.9565 81.9505 74.7568 86.1235 76.4834 90.326C77.4121 92.5879 78.758 94.5493 80.4515 96.2899C82.757 98.6578 85.4838 100.274 88.8038 100.797C88.9172 100.816 89.0558 100.787 89.134 100.913Z" fill="#FEFEFE"/>
<path d="M61.6336 70.4765C60.6608 70.4755 59.7595 70.8655 58.8033 70.9737C57.5356 71.1169 56.2756 71.1016 55.0167 70.9235C54.3762 70.8328 53.7699 70.6273 53.2384 70.2449C53.1239 70.1629 53.0029 70.1094 52.8653 70.0843C51.6659 69.8646 50.4664 69.6406 49.2449 69.5707C48.9027 69.468 48.5505 69.4767 48.1984 69.4691C47.5414 69.4538 46.8845 69.5117 46.2286 69.4188C43.8418 69.0823 41.532 68.3065 39.1066 68.195C39.0472 68.1906 38.9867 68.1863 38.9272 68.1819C38.6026 67.8945 38.2912 67.5962 38.0546 67.228C37.9688 67.0947 37.8367 67.0269 37.6827 66.9974C37.6265 66.7057 37.3965 66.5363 37.2018 66.3494C35.3244 64.5432 33.3469 62.8474 31.3662 61.1559C31.123 60.9482 30.8886 60.7275 30.5717 60.6281C30.5067 60.5046 30.4418 60.38 30.378 60.2566C30.3813 59.153 30.3472 58.0482 30.3989 56.9468C30.4352 56.1568 30.1832 55.594 29.4492 55.2662C29.6088 55.0051 29.8828 55.0116 30.137 54.9854C30.8622 54.9089 31.4773 55.2444 32.0914 55.5405C33.0256 55.9907 33.8741 56.5851 34.7467 57.1391C36.1971 58.0603 37.6739 58.9421 39.111 59.8818C39.856 60.3691 40.59 60.7439 41.5276 60.639C42.9988 60.474 44.4833 60.5429 45.9623 60.4686C47.5304 60.3899 49.1029 60.3036 50.6766 60.3484C51.0551 61.1001 51.2829 61.9022 51.503 62.7097C51.6207 63.1435 51.7099 63.5795 52.029 63.9521C52.9435 65.0207 54.5952 65.1748 55.798 64.8142C55.8706 64.7923 55.9399 64.7519 55.8981 64.6164C55.4238 64.6558 54.9407 64.7333 54.4588 64.7268C53.2472 64.7104 52.0576 64.1575 51.7682 62.725C51.6339 62.0595 51.4392 61.3995 51.1553 60.7712C50.5346 59.3944 49.6642 58.1586 48.9247 56.8485C48.2083 55.5788 47.3907 54.3659 46.7183 53.0699C46.7282 52.2067 46.6501 51.3478 46.562 50.4912C46.4179 49.0969 46.9802 47.4098 48.4812 46.8088C49.1646 46.5345 49.8578 46.446 50.5753 46.4165C50.7239 47.5442 50.9737 48.6543 51.1927 49.7689C51.7198 52.4547 52.5968 55.0455 53.3935 57.656C53.8436 59.1322 54.9143 60.0402 56.4869 60.2915C56.6002 60.3101 56.7741 60.379 56.7994 60.2205C56.828 60.0435 56.6299 60.0949 56.5254 60.073C55.4601 59.8468 54.5952 59.3398 54.0439 58.3717C53.519 57.4505 53.2703 56.4354 52.9633 55.4334C52.0191 52.3531 51.2367 49.2378 50.7558 46.0515C50.758 45.6287 50.7272 45.2036 50.769 44.784C50.9066 43.3865 51.5184 42.391 53.1558 42.4883C53.3374 42.4992 53.5201 42.4872 53.7028 42.4861C54.0604 44.3371 54.5468 46.1575 55.2225 47.9179C55.6186 48.9516 55.8464 49.994 55.9245 51.0932C56.0159 52.3772 56.8181 53.3234 57.8679 53.4076C58.8737 53.4873 59.885 53.4655 60.8787 53.2371C60.9766 53.2142 61.1307 53.2251 61.1131 53.083C61.0944 52.9366 60.9425 52.9781 60.8479 52.9967C60.1403 53.1344 59.4217 53.1912 58.7075 53.2021C57.4838 53.2207 56.8247 53.1125 56.3163 51.7084C56.171 51.3063 56.1094 50.8878 56.0764 50.4606C56.0379 49.9503 56.0522 49.44 55.8585 48.9395C55.0376 46.8263 54.3564 44.6715 53.9779 42.4314C53.9515 42.2785 53.9228 42.1331 53.7996 42.025C53.7853 41.7376 53.7743 41.4502 53.7545 41.1639C53.6929 40.2865 53.9173 39.3435 55.1663 39.2364C58.198 38.9763 61.2033 39.0288 64.1272 39.9827C65.2518 40.3499 66.2928 40.8908 67.128 41.7529C67.3569 41.9889 67.6155 42.2195 67.6507 42.5822C66.7022 42.6096 65.7624 42.744 64.8281 42.8915C64.4639 42.9494 64.323 42.8379 64.2691 42.4992C64.1844 41.9594 64.0809 41.4218 63.9753 40.8864C63.9434 40.7236 63.9577 40.5302 63.7321 40.4351C63.797 41.0962 63.917 41.7441 64.027 42.3943C64.0578 42.579 64.2163 42.7986 64.0325 42.9505C63.8311 43.1177 63.5549 43.0914 63.3348 42.9778C62.6977 42.6489 62.033 42.4664 61.3111 42.4708C61.0856 42.4719 60.9194 42.3954 60.9271 42.0873C60.9535 41.0033 60.082 39.9849 58.9606 39.7478C58.943 39.7445 58.9177 39.7817 58.8913 39.8024C58.9705 40.0308 59.1983 40.0363 59.359 40.1335C59.9664 40.4985 60.5684 40.8678 60.7136 41.6414C60.7939 42.0676 60.6894 42.2107 60.2569 42.214C59.8212 42.2184 59.403 42.2938 59.0101 42.473C58.8308 42.5549 58.6206 42.6281 58.5436 42.8805C58.7482 42.9319 58.8627 42.8106 58.9837 42.7374C59.3359 42.5254 59.7276 42.4664 60.1227 42.4238C60.2899 42.4052 60.488 42.4096 60.5794 42.5659C60.6652 42.7134 60.4737 42.792 60.4099 42.9046C60.2371 43.204 60.0038 43.4826 59.9939 43.8935C60.2657 43.7995 60.2426 43.5821 60.3208 43.4313C60.5012 43.0871 60.6916 42.7385 61.1274 42.697C61.8614 42.6281 62.5535 42.768 63.1863 43.1723C63.4449 43.3373 63.5164 43.6443 63.7915 43.8771C63.5637 43.1898 64.0325 43.2029 64.4221 43.1504C64.9668 43.0772 65.5115 42.9964 66.0595 42.9505C67.3833 42.839 68.7083 42.7472 70.0321 42.6456C71.5133 42.532 72.9933 42.5604 74.4756 42.6314C75.7598 42.6926 77.0253 42.9144 78.3018 43.0412C78.4031 43.0718 78.5032 43.1122 78.6067 43.1319C80.3035 43.4608 81.974 43.8869 83.5916 44.501C84.2464 44.7501 84.8769 45.1293 85.5537 45.244C87.0095 45.491 88.4896 45.6046 89.9587 45.7729C89.9587 52.8514 89.9587 59.9299 89.9587 67.0072C89.5802 67.0029 89.2588 66.7985 88.9045 66.71C85.5185 65.8676 82.1038 65.3715 78.6055 65.8249C76.1439 66.144 73.8407 66.91 71.8038 68.3436C70.48 69.2757 69.045 69.8887 67.4362 70.1105C65.5104 70.3804 63.5758 70.4798 61.6336 70.4765Z" fill="#6E6E6E"/>
<path d="M30.5762 60.6314C30.8932 60.7298 31.1287 60.9516 31.3708 61.1592C33.3526 62.8507 35.3301 64.5466 37.2063 66.3528C37.4011 66.5396 37.6311 66.709 37.6872 67.0008C37.1458 68.2126 36.7882 69.4637 36.8399 70.8055C36.1675 70.8164 35.4941 70.8623 34.8239 70.8274C34.3232 70.8012 33.9017 70.9257 33.4825 71.1738C30.9548 72.6697 28.2488 73.6935 25.3734 74.336C17.3402 76.1324 9.29167 72.7647 4.84482 65.6633C2.69677 62.2333 1.47309 58.4745 0.747908 54.5331C0.437586 52.8449 0.226303 51.1436 0.107456 49.4313C0.100854 49.3308 0.132766 49.2128 0.0117188 49.1494C0.0117188 47.4787 0.0117188 45.808 0.0117188 44.1372C0.180085 43.6925 0.140469 43.2194 0.19329 42.7604C0.594948 39.2529 1.51711 35.9136 3.48138 32.9262C5.34552 30.0917 7.79178 27.9566 11.0689 26.8464C11.6895 26.6366 12.287 26.3602 12.8945 26.1154C12.8549 26.2826 12.7525 26.4126 12.648 26.5459C12.1858 27.1415 11.6202 27.6277 11.0193 28.0735C10.6936 28.3139 10.6353 28.5609 10.8037 28.9302C11.6202 30.7168 12.2694 32.5656 12.8307 34.445C14.0356 38.4825 14.7179 42.6042 14.7883 46.8198C14.8378 49.8225 14.5495 52.7903 13.8288 55.7121C13.7396 56.0738 13.7836 56.3885 14.007 56.701C14.4329 57.2954 14.8775 57.8746 15.365 58.4198C16.0593 59.1956 16.8483 59.8021 17.94 59.9463C18.5122 60.0217 19.0657 60.2293 19.6335 60.3495C19.967 60.4206 20.1694 60.5943 20.3004 60.9013C20.5865 61.5733 20.8539 62.2508 21.0564 62.9523C21.6605 65.0459 21.8201 67.1603 21.3062 69.2954C21.1664 69.8745 21.0256 70.446 21.1158 71.0459C21.1466 71.2492 21.0773 71.5311 21.3282 71.5966C21.6077 71.6698 21.6869 71.377 21.8113 71.1956C21.8542 71.1333 21.8861 71.0634 21.9191 70.9946C22.8039 69.1927 23.2496 67.2805 23.3123 65.2852C23.353 63.9806 23.3332 62.6737 23.3134 61.3679C23.3068 60.945 23.4652 60.8096 23.8768 60.8161C25.2061 60.8358 26.5377 60.7571 27.8659 60.8587C27.9517 60.8653 28.0783 60.9188 28.0794 60.7822C28.0805 60.4643 28.3193 60.5517 28.4744 60.555C29.1721 60.5681 29.8742 60.603 30.5762 60.6314Z" fill="#191919"/>
<path d="M78.3051 43.0461C77.0286 42.9194 75.7631 42.6987 74.4789 42.6364C72.9978 42.5654 71.5166 42.5369 70.0354 42.6506C68.7116 42.7522 67.3855 42.844 66.0628 42.9554C65.5148 43.0013 64.9701 43.0822 64.4254 43.1554C64.0347 43.2079 63.5659 43.1947 63.7948 43.882C63.5197 43.6493 63.4482 43.3434 63.1896 43.1773C62.5569 42.773 61.8647 42.632 61.1307 42.7019C60.696 42.7435 60.5045 43.092 60.3241 43.4362C60.2459 43.587 60.268 43.8034 59.9972 43.8984C60.0071 43.4876 60.2404 43.21 60.4132 42.9096C60.4781 42.7981 60.6696 42.7183 60.5827 42.5708C60.4913 42.4146 60.2922 42.4102 60.126 42.4288C59.7309 42.4714 59.3381 42.5293 58.987 42.7424C58.866 42.8156 58.7516 42.9369 58.5469 42.8855C58.6239 42.6331 58.8341 42.5599 59.0135 42.4779C59.4074 42.2987 59.8245 42.2233 60.2602 42.219C60.6927 42.2146 60.7962 42.0725 60.7169 41.6464C60.5717 40.8728 59.9697 40.5034 59.3623 40.1385C59.2005 40.0412 58.9738 40.0358 58.8946 39.8074C58.921 39.7855 58.9463 39.7484 58.9639 39.7528C60.0853 39.9899 60.9568 41.0083 60.9304 42.0922C60.9227 42.4004 61.0889 42.4768 61.3145 42.4757C62.0363 42.4714 62.701 42.6539 63.3382 42.9828C63.5582 43.0964 63.8345 43.1215 64.0358 42.9554C64.2196 42.8036 64.0611 42.585 64.0303 42.3993C63.9203 41.7491 63.8003 41.1 63.7354 40.4401C63.961 40.5351 63.9467 40.7285 63.9786 40.8913C64.0843 41.4279 64.1877 41.9644 64.2724 42.5042C64.3263 42.8429 64.4672 42.9544 64.8314 42.8964C65.7657 42.7478 66.7044 42.6145 67.6541 42.5872C68.2142 42.4921 68.7787 42.4834 69.3443 42.5009C69.7944 42.5151 70.0288 42.3097 70.1806 41.8901C71.0797 39.3944 72.0074 36.9096 72.9108 34.416C73.1826 33.6664 73.5744 32.9518 73.5381 32.1083C73.4478 29.96 73.1474 27.8489 72.3683 25.834C71.8445 24.4791 71.0621 23.2815 69.7614 22.5319C69.3795 22.3123 69.1231 22.1079 69.1738 21.6501L69.187 21.6392C69.3718 21.5976 69.5171 21.4917 69.6535 21.3638C70.4943 20.5727 71.3339 19.7805 72.1823 18.997C73.4544 17.8213 74.7353 16.6543 76.0096 15.4807C76.9714 14.5946 77.9222 13.6986 78.8873 12.8168C80.6392 11.217 82.4021 9.62943 84.1517 8.02753C85.5757 6.72283 86.9666 5.38214 88.4137 4.10364C88.9243 3.65344 89.3447 3.09294 89.962 2.76514C89.962 10.0555 89.962 17.3471 89.962 24.6375C87.8349 24.5796 85.7265 24.8408 83.6114 24.9795C81.799 25.0997 79.9943 25.2909 78.1863 25.4581C77.6955 25.504 77.657 25.574 77.8727 26.0176C78.0917 26.4678 78.3426 26.9059 78.5263 27.3703C79.2944 29.3011 79.5387 31.327 79.5893 33.3856C79.6323 35.146 79.5849 36.9052 79.3902 38.6546C79.2218 40.1581 78.9258 41.6442 78.3051 43.0461Z" fill="#3C3C3C"/>
<path d="M89.1357 100.916C89.0564 100.79 88.9189 100.819 88.8044 100.801C85.4833 100.278 82.7576 98.6618 80.4522 96.294C78.7575 94.5533 77.4128 92.5919 76.484 90.3301C74.7585 86.1275 72.9571 81.9545 71.1887 77.7695C71.1293 77.6297 71.0842 77.4854 71.0312 77.3434C71.2943 77.1576 71.5882 77.2177 71.8732 77.2505C73.3126 77.4177 74.7497 77.598 76.1891 77.7597C79.0216 78.0788 81.8562 78.3836 84.6898 78.7027C86.4472 78.9005 88.2036 79.1125 89.961 79.3179C89.961 86.3363 89.9555 93.3546 89.9742 100.373C89.9753 100.842 89.8785 101.017 89.4086 100.919C89.3227 100.901 89.2281 100.916 89.1357 100.916Z" fill="#242424"/>
<path d="M89.9587 2.76653C89.3413 3.09543 88.921 3.65493 88.4104 4.10513C86.9633 5.38243 85.5723 6.72432 84.1484 8.02892C82.3987 9.63082 80.6358 11.2185 78.8839 12.8182C77.9188 13.7 76.967 14.596 76.0063 15.4822C74.732 16.6558 73.4511 17.8228 72.179 18.9985C71.3305 19.782 70.4909 20.5752 69.6502 21.3653C69.5148 21.4931 69.3696 21.5991 69.1836 21.6406C69.5698 19.8595 70.0782 18.109 70.5976 16.3629C72.0293 11.5496 73.7515 6.84552 76.0976 2.38742C78.0278 -1.28078 80.3024 -4.70308 83.421 -7.50808C84.6271 -8.59308 85.8959 -9.58418 87.3815 -10.277C87.9482 -10.541 88.5644 -10.653 89.1322 -10.904C89.4073 -10.904 89.7903 -11.011 89.9278 -10.875C90.0654 -10.738 89.9576 -10.358 89.9576 -10.085C89.9587 -5.80018 89.9587 -1.51677 89.9587 2.76653Z" fill="#242424"/>
<path d="M89.9619 79.3203C88.2045 79.1149 86.4493 78.9029 84.6908 78.7051C81.8583 78.3861 79.0236 78.0801 76.1899 77.7621C74.7506 77.6004 73.3123 77.4201 71.874 77.2529C71.589 77.2202 71.2952 77.1601 71.0322 77.3458C69.4212 76.9437 68.4495 75.6226 67.1983 74.7048C65.4552 73.4252 63.7341 72.1151 62.0054 70.8159C61.8733 70.7164 61.7171 70.641 61.6367 70.4837C63.579 70.487 65.5135 70.3864 67.4393 70.1209C69.0481 69.8991 70.4831 69.285 71.8069 68.354C73.8438 66.9204 76.147 66.1544 78.6087 65.8354C82.1059 65.3819 85.5216 65.878 88.9076 66.7205C89.262 66.809 89.5833 67.0133 89.9619 67.0177C89.9619 71.1185 89.9619 75.2194 89.9619 79.3203Z" fill="#3C3C3C"/>
<path d="M78.3035 43.0485C78.9231 41.6466 79.2202 40.1605 79.3886 38.6548C79.5833 36.9065 79.6318 35.1472 79.5877 33.3857C79.5371 31.3271 79.2928 29.3012 78.5247 27.3704C78.3399 26.906 78.0901 26.469 77.8711 26.0177C77.6554 25.5741 77.6939 25.5041 78.1847 25.4582C79.9927 25.291 81.7974 25.0987 83.6098 24.9796C85.726 24.8398 87.8344 24.5798 89.9604 24.6377C89.9604 31.6856 89.9604 38.7334 89.9604 45.7812C88.4902 45.613 87.0113 45.4993 85.5554 45.2524C84.8786 45.1377 84.2481 44.7585 83.5933 44.5094C81.9757 43.8942 80.3052 43.4692 78.6084 43.1403C78.5049 43.1195 78.4048 43.0791 78.3035 43.0485Z" fill="#535353"/>
<path d="M69.1704 21.6441C69.1198 22.1019 69.3762 22.3063 69.758 22.5259C71.0588 23.2755 71.8412 24.4731 72.365 25.828C73.1441 27.8429 73.4445 29.954 73.5347 32.1023C73.5699 32.9458 73.1793 33.6604 72.9075 34.41C72.0029 36.9036 71.0764 39.3894 70.1773 41.8841C70.0254 42.3037 69.7911 42.5091 69.341 42.4949C68.7765 42.4774 68.2108 42.4861 67.6507 42.5812C67.6166 42.2184 67.3569 41.9879 67.128 41.7518C66.2928 40.8908 65.2518 40.3488 64.1271 39.9817C61.2033 39.0278 58.198 38.9753 55.1663 39.2354C53.9173 39.3425 53.6928 40.2855 53.7544 41.1629C53.7743 41.4492 53.7853 41.7365 53.7996 42.0239C53.673 42.1583 53.6147 42.3069 53.7038 42.4861C53.5212 42.4872 53.3385 42.4992 53.1569 42.4883C51.5206 42.3911 50.9076 43.3865 50.7701 44.7841C50.7294 45.2026 50.7591 45.6287 50.758 46.0516C50.4884 46.0702 50.5555 46.2537 50.5775 46.4155C49.86 46.445 49.1678 46.5335 48.4834 46.8077C46.9824 47.4087 46.4201 49.0958 46.5642 50.4901C46.6523 51.3468 46.7304 52.2057 46.7205 53.0689C46.6313 53.0973 46.5422 53.1268 46.4531 53.1552C45.3978 53.1585 45.0302 53.5169 45.0797 54.5571C45.1183 55.3526 45.389 56.1 45.6443 56.8463C45.7631 57.1938 45.9194 57.5205 46.1802 57.7893C47.3972 59.0437 48.9434 59.6983 50.5874 60.1725C50.6171 60.2304 50.6479 60.2872 50.6776 60.3451C49.104 60.3014 47.5315 60.3867 45.9634 60.4653C44.4855 60.5396 42.9999 60.4708 41.5286 60.6358C40.5911 60.7418 39.8571 60.367 39.1121 59.8786C37.6749 58.9377 36.1981 58.057 34.7478 57.1359C33.8751 56.5819 33.0256 55.9875 32.0924 55.5373C31.4773 55.2412 30.8632 54.9046 30.1381 54.9822C29.8839 55.0095 29.6099 55.0019 29.4503 55.263C29.3281 55.263 29.2401 55.3144 29.1961 55.4313C28.7768 55.6247 28.691 56.0115 28.6525 56.406C28.6118 56.8256 28.6459 57.2517 28.6261 57.6691C28.5732 58.8186 29.228 59.4764 30.1205 60.0064C30.1821 60.1146 30.2415 60.2238 30.378 60.2544C30.4429 60.3779 30.5078 60.5025 30.5716 60.626C29.8696 60.5986 29.1675 60.5637 28.4654 60.5484C28.3102 60.5451 28.0725 60.4588 28.0703 60.7757C28.0692 60.9122 27.9427 60.8587 27.8569 60.8521C26.5275 60.7494 25.1971 60.8281 23.8678 60.8095C23.4562 60.8041 23.2978 60.9385 23.3044 61.3613C23.3242 62.6671 23.344 63.974 23.3033 65.2786C23.2416 67.2739 22.796 69.1861 21.9101 70.988C21.8771 71.0557 21.8452 71.1267 21.8023 71.189C21.6779 71.3704 21.5987 71.6633 21.3192 71.59C21.0683 71.5245 21.1365 71.2426 21.1068 71.0393C21.0166 70.4383 21.1574 69.8669 21.2972 69.2888C21.8111 67.1537 21.6515 65.0404 21.0474 62.9457C20.8449 62.2442 20.5775 61.5668 20.2914 60.8948C20.1604 60.5888 19.9591 60.414 19.6245 60.3429C19.0567 60.2227 18.5032 60.0151 17.931 59.9397C16.8393 59.7955 16.0503 59.1891 15.3559 58.4132C14.8685 57.868 14.4239 57.2889 13.998 56.6944C13.7746 56.3819 13.7306 56.0672 13.8197 55.7056C14.5405 52.7848 14.8299 49.817 14.7793 46.8132C14.7089 42.5976 14.0266 38.476 12.8216 34.4384C12.2604 32.5601 11.6112 30.7102 10.7947 28.9236C10.6263 28.5554 10.6857 28.3084 11.0103 28.0669C11.6112 27.6222 12.1768 27.1349 12.639 26.5394C12.7424 26.405 12.8459 26.276 12.8855 26.1088C15.6002 24.6239 18.337 23.1815 21.1607 21.9085C23.1767 20.9994 25.2037 20.1121 27.2395 19.2478C27.6071 19.0916 27.8426 18.7965 28.1694 18.6108C28.3598 18.6534 28.417 18.8184 28.4984 18.9626C29.7089 21.1119 30.7345 23.3662 32.2465 25.3439C32.6118 25.8215 33.0201 26.1088 33.6176 26.0837C34.2251 26.0575 34.8303 25.9646 35.4399 26.0105C35.528 26.0345 35.6138 26.0728 35.7029 26.0804C37.5792 26.2574 39.2904 25.7854 40.908 24.8435C42.3364 24.0131 43.5017 22.8788 44.6869 21.7665C46.0107 20.5241 47.5194 19.9755 49.3362 20.358C50.1329 20.5263 50.7976 20.9524 51.4788 21.3556C51.6592 21.7676 51.8947 22.1598 51.9662 22.6133C51.9828 22.7335 52.0114 22.8537 52.0125 22.9739C52.0213 23.8972 52.0994 24.8402 51.2818 25.5341C51.1134 25.6761 51.0529 25.8892 50.9913 26.0946C50.6039 27.4037 50.9032 28.5532 51.8232 29.5486C52.0312 29.7737 52.1544 30.0272 52.1665 30.3223C52.2028 31.2259 51.7869 31.9755 51.2466 32.641C50.6248 33.4048 49.8809 33.5075 48.9907 33.0944C48.1995 32.7273 47.5535 32.182 46.9516 31.5701C46.8569 31.474 46.7854 31.3133 46.6016 31.3811C46.5972 31.4226 46.5895 31.4423 46.5961 31.451C47.3444 32.5219 48.4845 33.0901 49.5673 33.7315C49.5915 33.7457 49.6377 33.7566 49.6531 33.7446C49.9756 33.478 50.4157 33.573 50.7668 33.3731C51.887 32.7306 52.6144 30.9396 52.2281 29.7125C52.1797 29.5585 52.2028 29.4131 52.2204 29.2634C52.3492 28.1456 52.4086 27.0256 52.2348 25.9078C52.1962 25.6586 51.9717 25.3997 52.0169 25.1844C52.1577 24.5157 52.1896 23.8349 52.3228 23.1684C52.4537 23.4754 52.6034 23.7781 52.6463 24.1136C52.7597 25.0107 53.081 25.8477 53.4067 26.6825C53.6411 27.2802 53.8238 27.8943 53.87 28.5302C53.9272 29.3345 54.1704 30.0753 54.517 30.7899C54.6491 31.0609 54.692 31.3188 54.6436 31.6215C54.5666 32.1023 54.5897 32.5863 54.7173 33.0649C55.1058 34.5182 55.5702 35.9267 56.3383 37.2499C56.7014 37.8772 57.0403 38.3131 57.7787 38.3612C57.8844 38.3678 57.9867 38.4126 58.0913 38.4311C58.2233 38.4552 58.3752 38.5208 58.4797 38.3984C58.6008 38.2574 58.5138 38.1012 58.4368 37.9755C57.9801 37.2303 57.8161 36.3955 57.694 35.5541C57.584 34.7936 57.3474 34.0221 57.5355 33.2562C57.7171 32.5197 57.6456 31.8455 57.3154 31.1822C57.0723 30.6927 56.828 30.2021 56.5749 29.718C56.1226 28.8537 55.8728 27.9424 55.9069 26.9633C55.9278 26.3623 55.7297 25.8291 55.3974 25.3407C55.1135 24.9222 54.9275 24.4621 54.7426 23.9934C53.8832 21.8091 54.0263 19.4915 53.8051 17.2231C54.856 17.4318 55.7792 17.9147 56.6464 18.519C56.5396 18.5212 56.4318 18.5332 56.3262 18.5234C55.3974 18.4294 55.0078 19.0194 54.9198 19.7308C54.8329 20.429 54.7999 21.1644 55.1102 21.7916C55.4524 22.4833 55.5405 23.1301 55.4733 23.8961C55.3963 24.7626 55.8145 25.5745 56.2018 26.3536C56.4725 26.8967 56.7861 27.4223 56.9523 28.0101C57.6984 30.6501 58.4368 33.2933 59.1785 35.9343C59.2137 36.0611 59.1829 36.2469 59.3358 36.2895C59.5306 36.3441 59.546 36.1081 59.6616 36.0239C60.9612 35.3727 61.8019 34.2844 62.4424 33.0431C63.8586 30.2949 64.3736 27.3479 64.2394 24.2851C64.1943 23.2427 63.907 22.268 63.2215 21.4212C62.7648 20.8573 62.175 20.4552 61.6699 19.9548C63.9379 20.7525 66.3104 21.1229 68.6433 21.6561C68.8205 21.6943 68.9998 21.7905 69.1704 21.6441ZM41.4934 43.1396C41.4945 42.178 41.4956 41.2153 41.4956 40.2538C41.4956 40.044 41.5132 39.8298 41.3757 39.6462C41.4186 38.9393 41.3405 38.2268 40.9938 37.6215C40.7308 37.1614 40.6285 36.7112 40.6032 36.2108C40.59 35.9518 40.5625 35.6874 40.2554 35.5814C39.8703 35.5202 39.6458 35.7475 39.4873 36.0392C39.2562 36.4665 39.023 36.897 38.8502 37.3483C38.2747 38.8475 37.9445 40.3761 38.4397 41.9715C38.9954 43.7613 39.9429 45.3501 41.018 46.8711C41.0764 46.9542 41.1314 47.0918 41.2535 47.0481C41.4296 46.9859 41.292 46.8405 41.2975 46.7323C41.3625 45.5337 41.4274 44.3372 41.4934 43.1396ZM35.4829 31.5592C35.0746 31.533 34.575 31.5953 34.0754 31.6739C33.6561 31.7406 33.3854 31.9602 33.2545 32.3656C33.0894 32.8748 32.9838 33.3949 32.9574 33.9271C32.8594 35.9715 32.8022 38.0181 32.6614 40.0593C32.5964 40.9979 32.6096 41.9376 32.5293 42.8762C32.4644 43.6324 32.3499 44.4224 32.7945 45.1403C33.0179 45.502 33.1786 45.9008 33.3986 46.2647C33.7607 46.8624 34.0061 47.5595 34.5145 48.0337C35.6204 49.0663 36.8705 49.9186 38.2648 50.5349C38.5002 50.6387 38.8227 50.8157 39.0208 50.5306C39.2243 50.2355 39.0086 49.958 38.8073 49.7187C38.7875 49.6957 38.7644 49.675 38.7445 49.6531C37.7432 48.5637 36.832 47.4054 36.0364 46.1598C35.583 45.4517 35.1879 44.7021 35.0933 43.8575C34.8655 41.8141 34.8149 39.7511 35.1703 37.7329C35.4906 35.9179 36.0309 34.1336 36.8034 32.4388C37.04 31.9198 36.8386 31.5723 36.2697 31.5603C36.0397 31.5548 35.8108 31.5592 35.4829 31.5592ZM38.7478 34.1085C38.5069 34.2789 38.5046 34.2778 38.3715 34.5772C37.8796 35.6754 37.4559 36.8009 37.2248 37.9831C37.0059 39.1032 36.8672 40.2363 37.0939 41.3749C37.6012 43.9198 38.8172 46.162 40.1443 48.355C40.196 48.4402 40.2521 48.5462 40.4007 48.508C40.4491 48.3124 40.3413 48.1485 40.2466 48.0086C39.5886 47.0339 39.0736 45.9828 38.5762 44.9261C37.8818 43.451 37.3008 41.9409 37.2667 40.2723C37.2237 38.229 37.8323 36.3528 38.6554 34.5226C38.7126 34.3915 38.8557 34.2778 38.7478 34.1085ZM43.527 41.2055C43.582 40.7881 43.4654 40.1696 43.4159 39.5512C43.2981 38.0738 43.0054 36.6326 42.3011 35.3082C42.0238 34.787 41.73 34.2658 41.2711 33.8691C41.2018 33.8091 41.1072 33.6714 41.0048 33.7916C40.9201 33.8921 41.0246 33.9915 41.1083 34.056C41.478 34.3456 41.7234 34.7357 41.9336 35.1367C42.8216 36.8249 43.1826 38.6409 43.2409 40.5313C43.2915 42.1747 43.1595 43.805 42.9317 45.4309C42.9141 45.5544 42.8194 45.7435 43.0087 45.7708C43.1617 45.7937 43.1342 45.597 43.1507 45.4856C43.3455 44.1361 43.4995 42.7812 43.527 41.2055ZM66.7131 26.9491C66.8518 26.7645 66.7374 26.6552 66.6735 26.5437C65.901 25.2085 65.2122 23.8557 65.7415 22.2418C65.7646 22.1719 65.78 22.079 65.6754 22.0582C65.5874 22.0407 65.539 22.115 65.5104 22.1861C65.4763 22.2702 65.4543 22.3587 65.4278 22.4461C65.0724 23.6088 65.4653 24.661 65.9296 25.6958C66.1288 26.1405 66.3412 26.5885 66.7131 26.9491ZM50.7228 34.8089C50.6897 34.8362 50.6567 34.8646 50.6237 34.8919C50.9263 35.2241 51.229 35.5574 51.5316 35.8895C51.5624 35.8611 51.5921 35.8338 51.6229 35.8054C51.3687 35.4339 51.1145 35.0613 50.7228 34.8089ZM52.3294 36.6402C52.2502 36.4719 52.1764 36.3004 51.9156 36.272C51.9971 36.5047 52.1104 36.6304 52.3294 36.6402ZM50.0614 34.2778C50.1175 34.2002 50.1472 34.1653 50.1439 34.162C50.1175 34.1347 50.0856 34.1139 50.0548 34.0921C50.0405 34.1128 50.0108 34.1347 50.0141 34.1522C50.0196 34.1915 50.0416 34.2286 50.0614 34.2778Z" fill="#535353"/>
<path d="M30.5586 17.6076C31.319 17.5126 32.0508 17.6907 32.7749 17.8677C34.025 18.1726 35.2773 18.4359 36.5736 18.4217C37.0412 18.4162 37.4693 18.3266 37.893 18.1125C39.1596 17.4711 40.4823 16.952 41.7786 16.374C44.1665 15.3108 46.5787 15.3753 49.036 16.044C49.6379 16.2079 50.2189 16.4527 50.8484 16.5128C50.8649 17.0263 50.877 17.5388 50.9023 18.0524C50.954 19.0871 51.2082 20.0815 51.414 21.0868C50.8979 20.7284 50.3708 20.3875 49.7468 20.2487C49.398 20.1711 49.2968 19.9777 49.288 19.6368C49.2682 18.8905 48.8775 18.3354 48.149 18.1616C46.987 17.8841 45.5641 18.0917 44.7069 19.1975C44.259 19.7744 44.0224 20.4454 43.7759 21.1163C43.4458 22.0145 43.1398 22.9225 42.3398 23.5552C40.3227 25.1494 38.1021 26.1372 35.4555 25.9034C34.3078 24.1135 33.1666 22.3193 32.0079 20.535C31.4103 19.6127 30.8986 18.6533 30.5586 17.6076ZM38.0118 24.3157C38.014 23.9354 38.2011 23.5421 37.9282 23.1815C37.9205 22.7269 37.948 22.2691 37.8104 21.8243C37.7774 21.337 37.7147 20.8573 37.4506 20.4279C37.3945 20.2727 37.3428 20.1154 37.2811 19.9613C36.8058 18.7681 36.1147 18.5113 34.968 19.0992C34.7898 19.1265 34.7149 19.2543 34.6753 19.4084C34.5025 20.0706 34.431 20.7415 34.4717 21.4255C34.518 22.1806 34.8052 22.8624 35.0946 23.5464C33.7025 22.4581 33.587 20.971 33.8049 19.3702C33.5573 20.0039 33.4967 20.6311 33.6123 21.2791C33.8126 22.4057 34.2715 23.3563 35.3532 23.9037C35.5204 23.9474 35.625 24.0829 35.7614 24.1725C36.2797 24.5135 36.808 24.8424 37.3318 25.1756C37.7147 25.3374 37.8985 25.1647 37.9601 24.8019C37.9854 24.6424 37.9942 24.4785 38.0118 24.3157ZM38.7975 18.8347C38.704 18.956 38.7403 19.0085 38.7777 19.0555C39.1552 19.5264 39.2861 20.0651 39.3015 20.6628C39.3301 21.7468 38.9879 22.7531 38.7194 23.7781C38.6644 23.989 38.5422 24.1977 38.6578 24.4239C38.7909 24.1409 38.8768 23.8524 38.9615 23.5639C39.2674 22.5291 39.5777 21.4944 39.4743 20.3951C39.4193 19.8094 39.2729 19.262 38.7975 18.8347ZM38.299 18.5277C38.3629 18.5353 38.4069 18.5189 38.3893 18.4665C38.3783 18.4337 38.331 18.4042 38.2935 18.39C38.2495 18.3747 38.2 18.3977 38.2176 18.4501C38.2286 18.4851 38.2759 18.508 38.299 18.5277Z" fill="#535353"/>
<path d="M61.6778 19.9621C62.1829 20.4625 62.7739 20.8647 63.2294 21.4285C63.915 22.2764 64.2022 23.2511 64.2473 24.2924C64.3816 27.3553 63.8666 30.3023 62.4503 33.0504C61.8099 34.2917 60.9692 35.3812 59.6695 36.0312C60.0437 34.6983 60.2759 33.3454 60.3573 31.961C60.4343 30.6355 60.4101 29.3363 59.9568 28.0579C59.4979 26.7652 59.2085 25.4245 59.3999 24.0433C59.598 22.613 59.1953 21.4831 58.0343 20.5543C57.4808 20.1118 57.0835 19.4584 56.9141 18.7252C58.0651 18.7514 59.1644 19.0267 60.2407 19.4081C60.7227 19.5807 61.198 19.7763 61.6778 19.9621Z" fill="#6E6E6E"/>
<path d="M51.4172 21.0865C51.2114 20.0812 50.9572 19.0869 50.9055 18.0521C50.8802 17.5385 50.867 17.025 50.8516 16.5125C51.7088 16.4152 52.5088 16.625 53.2835 16.966C53.464 17.0457 53.6379 17.1408 53.8139 17.2293C54.0351 19.4977 53.8921 21.8153 54.7515 23.9996C54.9364 24.4684 55.1212 24.9284 55.4063 25.3469C55.7386 25.8364 55.9367 26.3686 55.9158 26.9696C55.8816 27.9486 56.1314 28.8599 56.5837 29.7242C56.8368 30.2094 57.0811 30.6989 57.3243 31.1885C57.6544 31.8528 57.726 32.5259 57.5444 33.2624C57.3562 34.0273 57.5917 34.7987 57.7029 35.5603C57.825 36.4006 57.989 37.2365 58.4456 37.9817C58.5227 38.1063 58.6096 38.2637 58.4886 38.4046C58.3829 38.527 58.2322 38.4614 58.1001 38.4374C57.9945 38.4188 57.8921 38.374 57.7876 38.3675C57.0481 38.3205 56.7103 37.8834 56.3471 37.2562C55.5801 35.9329 55.1157 34.5245 54.7262 33.0712C54.5985 32.5926 54.5754 32.1085 54.6525 31.6277C54.7009 31.325 54.658 31.0661 54.5259 30.7962C54.1782 30.0816 53.9361 29.3396 53.8789 28.5365C53.8337 27.8995 53.65 27.2864 53.4156 26.6887C53.0887 25.855 52.7685 25.018 52.6552 24.1198C52.6123 23.7844 52.4626 23.4828 52.3316 23.1746C52.2524 22.9648 52.1754 22.7529 51.974 22.6206C51.9025 22.1672 51.667 21.7749 51.4865 21.363C51.4975 21.2624 51.4766 21.1695 51.4172 21.0865Z" fill="#191919"/>
<path d="M56.9134 18.725C57.0829 19.4582 57.4801 20.1116 58.0337 20.5541C59.1957 21.4829 59.5974 22.6128 59.3993 24.0431C59.2078 25.4243 59.4972 26.7639 59.9561 28.0577C60.4095 29.335 60.4337 30.6342 60.3567 31.9608C60.2763 33.3441 60.043 34.698 59.6689 36.031C59.5533 36.1152 59.5379 36.3512 59.3432 36.2966C59.1913 36.254 59.2221 36.0693 59.1858 35.9414C58.4441 33.3004 57.7057 30.6572 56.9596 28.0172C56.7935 27.4294 56.4798 26.9038 56.2091 26.3607C55.8218 25.5816 55.4036 24.7697 55.4807 23.9032C55.5489 23.1373 55.4608 22.4893 55.1175 21.7987C54.8072 21.1726 54.8402 20.4361 54.9271 19.7379C55.0152 19.0254 55.4047 18.4354 56.3335 18.5305C56.4391 18.5414 56.547 18.5283 56.6537 18.5261C56.7737 18.5512 56.8408 18.6408 56.9134 18.725Z" fill="#3C3C3C"/>
<path d="M30.559 17.6084C30.8991 18.6541 31.4108 19.6146 32.0094 20.5357C33.1671 22.319 34.3082 24.1143 35.4571 25.9042C35.4527 25.9424 35.4483 25.9806 35.445 26.0189C34.8342 25.973 34.2301 26.067 33.6226 26.0921C33.0251 26.1183 32.6168 25.8299 32.2515 25.3523C30.7384 23.3746 29.7139 21.1203 28.5034 18.971C28.422 18.8268 28.3648 18.6618 28.1744 18.6192C28.1843 18.5908 28.2107 18.5547 28.2019 18.535C27.9279 17.922 28.4066 17.78 28.8027 17.5942C29.1637 17.4248 29.5488 17.3571 29.9461 17.332C30.2069 17.3156 30.4215 17.368 30.559 17.6084Z" fill="#191919"/>
<path d="M36.8368 70.8051C36.7862 69.4633 37.1427 68.2122 37.6841 67.0004C37.8382 67.0299 37.9703 67.0976 38.0561 67.2309C38.2927 67.5981 38.6041 67.8975 38.9287 68.1848C38.855 68.2996 38.7736 68.4099 38.7086 68.5301C38.1639 69.5376 38.1782 70.5451 39.6143 70.9679C40.1854 71.1362 40.7632 71.0772 41.3354 71.1428C41.4498 71.1559 41.6347 71.2247 41.6479 71.0761C41.6644 70.8816 41.4542 70.9373 41.3354 70.9362C40.6762 70.9286 40.0303 70.8499 39.4074 70.6215C38.7174 70.368 38.4599 69.8949 38.6811 69.1923C38.789 68.8503 38.9639 68.529 39.1092 68.198C41.5346 68.3094 43.8444 69.0852 46.2312 69.4218C46.8871 69.5146 47.544 69.4567 48.201 69.472C48.5531 69.4797 48.9053 69.4709 49.2475 69.5737C47.1192 71.6891 44.6224 72.8561 41.5412 72.5436C40.4748 72.4354 39.4107 72.3272 38.4005 71.9404C37.7777 71.7011 37.201 71.3963 36.8368 70.8051Z" fill="#535353"/>
<path d="M50.5784 46.4215C50.5564 46.2598 50.4892 46.0762 50.7588 46.0577C51.2397 49.244 52.0221 52.3592 52.9663 55.4395C53.2733 56.4405 53.522 57.4567 54.0469 58.3778C54.5983 59.3459 55.4632 59.8518 56.5284 60.0791C56.633 60.101 56.8299 60.0496 56.8024 60.2266C56.7771 60.3851 56.6032 60.3151 56.4899 60.2977C54.9174 60.0463 53.8467 59.1372 53.3966 57.6621C52.5999 55.0516 51.7217 52.4609 51.1957 49.775C50.9767 48.6594 50.7269 47.5503 50.5784 46.4215Z" fill="#3C3C3C"/>
<path d="M46.457 53.1596C46.5462 53.1312 46.6353 53.1017 46.7244 53.0733C47.3957 54.3693 48.2133 55.5821 48.9297 56.8519C49.6681 58.162 50.5385 59.3978 51.1603 60.7746C51.4431 61.4029 51.6379 62.0629 51.7732 62.7284C52.0626 64.1598 53.2533 64.7138 54.4638 64.7302C54.9458 64.7367 55.4278 64.6592 55.9031 64.6198C55.945 64.7553 55.8756 64.7968 55.803 64.8176C54.6002 65.1771 52.9485 65.0241 52.034 63.9555C51.716 63.5829 51.6269 63.1469 51.508 62.7131C51.2879 61.9056 51.0601 61.1035 50.6816 60.3518C50.6519 60.2938 50.6211 60.2359 50.5914 60.1791C49.2136 57.8375 47.8348 55.4991 46.457 53.1596Z" fill="#3C3C3C"/>
<path d="M53.7072 42.491C53.6181 42.3118 53.6753 42.1632 53.803 42.0288C53.9262 42.1369 53.9548 42.2823 53.9812 42.4352C54.3598 44.6753 55.041 46.8301 55.8619 48.9433C56.0566 49.4438 56.0423 49.9541 56.0798 50.4644C56.1117 50.8916 56.1733 51.3101 56.3197 51.7122C56.8281 53.1163 57.4872 53.2256 58.7109 53.2059C59.4251 53.195 60.1448 53.1382 60.8512 53.0005C60.947 52.9819 61.0977 52.9404 61.1164 53.0868C61.1351 53.2289 60.98 53.219 60.882 53.2409C59.8884 53.4682 58.8771 53.4911 57.8713 53.4114C56.8215 53.3283 56.0192 52.382 55.9279 51.097C55.8498 49.9978 55.622 48.9554 55.2258 47.9217C54.5513 46.1624 54.0649 44.342 53.7072 42.491Z" fill="#3C3C3C"/>
<path d="M39.111 68.1993C38.9657 68.5304 38.7907 68.8517 38.6829 69.1937C38.4617 69.8963 38.7192 70.3705 39.4092 70.6229C40.032 70.8513 40.6769 70.93 41.3371 70.9376C41.456 70.9387 41.6662 70.883 41.6496 71.0775C41.6364 71.2272 41.4516 71.1573 41.3371 71.1441C40.7649 71.0786 40.1872 71.1376 39.616 70.9693C38.18 70.5453 38.1657 69.539 38.7104 68.5315C38.7753 68.4124 38.8567 68.301 38.9305 68.1862C38.991 68.1906 39.0504 68.195 39.111 68.1993Z" fill="#3C3C3C"/>
<path d="M29.1992 55.4347C29.2432 55.3177 29.3313 55.2664 29.4534 55.2664C30.1863 55.5953 30.4394 56.158 30.4031 56.948C30.3514 58.0495 30.3855 59.1542 30.3822 60.2578C30.2457 60.2272 30.1852 60.1169 30.1236 60.0098C30.227 59.0143 30.1676 58.0145 30.2127 57.0191C30.249 56.2269 29.9299 55.7155 29.1992 55.4347Z" fill="#3C3C3C"/>
<path d="M35.4848 31.5615C35.8127 31.5615 36.0416 31.5571 36.2716 31.5626C36.8405 31.5746 37.0419 31.9221 36.8053 32.4411C36.0328 34.1359 35.4925 35.9203 35.1723 37.7352C34.8168 39.7523 34.8674 41.8164 35.0952 43.8598C35.1899 44.7055 35.5849 45.454 36.0383 46.1621C36.8339 47.4067 37.7451 48.566 38.7465 49.6554C38.7674 49.6784 38.7905 49.698 38.8092 49.721C39.0117 49.9603 39.2273 50.2378 39.0227 50.5329C38.8257 50.8181 38.5022 50.641 38.2667 50.5372C36.8713 49.921 35.6223 49.0686 34.5164 48.0361C34.008 47.5618 33.7637 46.8636 33.4006 46.267C33.1805 45.9031 33.0198 45.5043 32.7964 45.1426C32.3518 44.4247 32.4674 43.6347 32.5312 42.8785C32.6115 41.9399 32.5983 41.0002 32.6633 40.0616C32.8041 38.0204 32.8602 35.9727 32.9593 33.9294C32.9846 33.3972 33.0913 32.8771 33.2564 32.3679C33.3873 31.9625 33.6581 31.7429 34.0773 31.6762C34.5769 31.5976 35.0765 31.5353 35.4848 31.5615Z" fill="#191919"/>
<path d="M46.4558 53.1624C47.8336 55.5019 49.2124 57.8413 50.5901 60.1797C48.945 59.7055 47.4 59.052 46.1829 57.7965C45.9221 57.5277 45.7658 57.201 45.647 56.8535C45.3917 56.1072 45.121 55.3587 45.0825 54.5643C45.033 53.5241 45.4005 53.1657 46.4558 53.1624Z" fill="#6E6E6E"/>
<path d="M41.2987 46.7387C41.2932 46.8468 41.4308 46.9922 41.2547 47.0545C41.1336 47.0971 41.0786 46.9605 41.0192 46.8774C39.9441 45.3564 38.9966 43.7676 38.4409 41.9778C37.9457 40.3836 38.2758 38.8538 38.8514 37.3546C39.0241 36.9033 39.2574 36.4728 39.4885 36.0456C39.6459 35.7538 39.8715 35.5265 40.2566 35.5877C40.1058 35.732 39.9122 35.8522 39.8098 36.0259C39.0615 37.2869 38.5168 38.6178 38.4772 40.1082C38.5245 40.1836 38.5729 40.259 38.6203 40.3344C38.4596 40.7551 38.5311 40.9976 38.8392 41.0534C39.0362 41.0894 39.1991 41.0293 39.2992 40.8458C39.4368 40.5923 39.2981 40.4185 39.1221 40.2568C39.242 40.236 39.3631 40.2164 39.483 40.1945C40.2544 40.0492 40.8695 40.3519 41.1281 41.0064C41.4121 41.7243 41.1876 42.4018 40.535 42.8312C40.2225 43.0366 39.8847 43.076 39.5259 43.0333C39.2959 43.006 39.1364 43.0366 39.2904 43.3207C39.5809 44.2582 40.1323 45.0614 40.6473 45.8809C40.8365 46.1836 40.9675 46.5387 41.2987 46.7387Z" fill="#191919"/>
<path d="M51.973 22.6225C52.1743 22.7547 52.2514 22.9667 52.3306 23.1765C52.1975 23.843 52.1644 24.5249 52.0247 25.1925C51.9796 25.4088 52.2041 25.6678 52.2426 25.9159C52.4164 27.0337 52.3559 28.1537 52.2283 29.2715C52.2107 29.4212 52.1876 29.5665 52.236 29.7206C52.6211 30.9477 51.8937 32.7386 50.7746 33.3811C50.4247 33.5822 49.9834 33.486 49.661 33.7527C49.6456 33.7647 49.5993 33.7538 49.5751 33.7395C48.4923 33.0981 47.3522 32.5299 46.604 31.4591C46.5974 31.4493 46.6062 31.4296 46.6095 31.3892C46.7932 31.3225 46.8648 31.482 46.9594 31.5782C47.5613 32.1901 48.2073 32.7354 48.9985 33.1025C49.8887 33.5155 50.6337 33.4128 51.2544 32.649C51.7947 31.9836 52.2107 31.234 52.1743 30.3303C52.1622 30.0353 52.0379 29.7807 51.831 29.5567C50.911 28.5613 50.6117 27.4118 50.9991 26.1027C51.0596 25.8973 51.1212 25.6853 51.2896 25.5422C52.1072 24.8483 52.0291 23.9053 52.0203 22.982C52.0181 22.8629 51.9895 22.7427 51.973 22.6225Z" fill="#3C3C3C"/>
<path d="M38.4766 40.1094C38.5162 38.6178 39.0609 37.2869 39.8092 36.0271C39.9115 35.8544 40.1052 35.7342 40.256 35.5889C40.563 35.6938 40.5905 35.9593 40.6037 36.2183C40.629 36.7187 40.7302 37.1689 40.9944 37.629C41.341 38.2332 41.4191 38.9457 41.3762 39.6537C40.3176 39.0615 39.4559 39.197 38.4766 40.1094Z" fill="#FEFEFE"/>
<path d="M35.4453 26.0177C35.4497 25.9795 35.4541 25.9412 35.4574 25.903C38.104 26.1368 40.3257 25.149 42.3417 23.5548C43.1428 22.921 43.4488 22.0141 43.7778 21.1159C44.0243 20.4449 44.2609 19.774 44.7088 19.1971C45.566 18.0924 46.9889 17.8848 48.1509 18.1612C48.8794 18.335 49.2701 18.89 49.2899 19.6364C49.2987 19.9773 49.3999 20.1707 49.7487 20.2483C50.3727 20.387 50.9009 20.728 51.4159 21.0864C51.4753 21.1705 51.4951 21.2634 51.483 21.3639C50.8019 20.9607 50.1372 20.5346 49.3405 20.3663C47.5237 19.9827 46.0139 20.5313 44.6911 21.7748C43.506 22.8871 42.3406 24.0213 40.9123 24.8518C39.2946 25.7926 37.5835 26.2646 35.7072 26.0887C35.6192 26.0789 35.5333 26.0417 35.4453 26.0177ZM43.6325 22.1801C43.879 22.1922 43.9528 22.0589 44.0419 21.9649C45.3162 20.6242 46.8436 19.891 48.7352 20.0232C48.9058 20.0352 48.9828 19.9653 49.0181 19.8025C49.1215 19.3304 48.8222 18.7054 48.382 18.4945C47.3542 18.0028 45.8125 18.3524 45.051 19.1949C44.2818 20.0461 44.1156 21.153 43.6325 22.1801Z" fill="#3C3C3C"/>
<path d="M29.198 55.4405C29.9287 55.7213 30.2478 56.2327 30.2115 57.0249C30.1664 58.0204 30.2258 59.0202 30.1224 60.0156C29.2299 59.4857 28.5752 58.8279 28.628 57.6784C28.6478 57.2609 28.6137 56.8348 28.6544 56.4152C28.6929 56.0207 28.7787 55.6339 29.198 55.4405Z" fill="#6E6E6E"/>
<path d="M38.4766 40.1033C39.4559 39.1909 40.3176 39.0544 41.3762 39.6466C41.5127 39.8302 41.4962 40.0443 41.4962 40.2541C41.4962 41.2157 41.495 42.1784 41.4939 43.1399C40.7809 43.4699 40.059 43.6819 39.2909 43.3148C39.1368 43.0318 39.2975 43.0001 39.5264 43.0274C39.8851 43.07 40.224 43.0307 40.5355 42.8252C41.188 42.3969 41.4125 41.7194 41.1286 41.0004C40.87 40.3459 40.2549 40.0421 39.4835 40.1886C39.3635 40.2115 39.2425 40.2301 39.1225 40.2509C38.9464 40.2203 38.7836 40.2694 38.6218 40.3284C38.5723 40.2552 38.5239 40.1798 38.4766 40.1033Z" fill="#3C3C3C"/>
<path d="M39.2891 43.3164C40.0583 43.6836 40.7802 43.4716 41.4921 43.1416C41.4272 44.3392 41.3623 45.5368 41.2974 46.7344C40.9661 46.5344 40.8352 46.1782 40.6459 45.8766C40.1309 45.0571 39.5796 44.255 39.2891 43.3164Z" fill="#FEFEFE"/>
<path d="M38.7505 34.1102C38.8583 34.2796 38.7164 34.3921 38.6581 34.5221C37.836 36.3535 37.2264 38.2296 37.2693 40.2719C37.3045 41.9415 37.8856 43.4505 38.5788 44.9257C39.0762 45.9823 39.5912 47.0346 40.2493 48.0082C40.3428 48.1469 40.4518 48.3119 40.4033 48.5075C40.2537 48.5458 40.1987 48.4409 40.1469 48.3545C38.8198 46.1615 37.6049 43.9193 37.0965 41.3744C36.8699 40.2369 37.0085 39.1038 37.2275 37.9827C37.4586 36.8004 37.8823 35.676 38.3741 34.5768C38.5073 34.2796 38.5084 34.2806 38.7505 34.1102Z" fill="#3C3C3C"/>
<path d="M43.5302 41.2054C43.5026 42.78 43.3486 44.1349 43.1538 45.4866C43.1373 45.598 43.1648 45.7936 43.0119 45.7717C42.8226 45.7433 42.9172 45.5543 42.9348 45.4319C43.1626 43.8071 43.2947 42.1768 43.244 40.5323C43.1857 38.6419 42.8248 36.8259 41.9367 35.1376C41.7254 34.7366 41.4811 34.3465 41.1114 34.057C41.0278 33.9914 40.9232 33.892 41.008 33.7925C41.1092 33.6723 41.2038 33.81 41.2743 33.8701C41.7331 34.2668 42.0281 34.788 42.3043 35.3092C43.0086 36.6335 43.3024 38.0748 43.419 39.5521C43.4685 40.1706 43.5852 40.788 43.5302 41.2054Z" fill="#3C3C3C"/>
<path d="M66.7154 26.9531C66.3423 26.5925 66.131 26.1445 65.9319 25.6998C65.4675 24.665 65.0757 23.6128 65.4301 22.4501C65.4565 22.3627 65.4796 22.2742 65.5126 22.1901C65.5412 22.119 65.5885 22.0447 65.6777 22.0622C65.7822 22.083 65.7668 22.1759 65.7437 22.2458C65.2144 23.8597 65.9033 25.2125 66.6758 26.5477C66.7396 26.6592 66.8551 26.7685 66.7154 26.9531Z" fill="#3C3C3C"/>
<path d="M50.724 34.8089C51.1158 35.0613 51.37 35.4339 51.6242 35.8065C51.5934 35.8349 51.5637 35.8622 51.5329 35.8906C51.2302 35.5584 50.9276 35.2252 50.625 34.893C50.658 34.8646 50.691 34.8362 50.724 34.8089Z" fill="#3C3C3C"/>
<path d="M52.3317 36.6406C52.1116 36.6308 51.9994 36.5051 51.918 36.2724C52.1788 36.3008 52.2525 36.4724 52.3317 36.6406Z" fill="#3C3C3C"/>
<path d="M50.0631 34.2812C50.0433 34.2321 50.0212 34.195 50.0157 34.1557C50.0135 34.1382 50.0422 34.1153 50.0565 34.0956C50.0873 34.1185 50.1192 34.1393 50.1456 34.1655C50.1489 34.1688 50.1181 34.2049 50.0631 34.2812Z" fill="#3C3C3C"/>
<path d="M35.0954 23.5416C34.806 22.8586 34.5188 22.1757 34.4726 21.4207C34.4308 20.7366 34.5023 20.0657 34.6762 19.4035C34.7169 19.2495 34.7906 19.1216 34.9689 19.0943C34.7752 19.8887 34.6619 20.6918 34.7147 21.5124C34.7774 21.7474 34.7752 22.0424 35.1537 21.991C35.3892 22.1538 35.6401 22.2063 35.8492 21.979C36.0308 21.7801 35.9626 21.5616 35.7953 21.3715C36.0913 21.1879 36.4049 21.2688 36.7197 21.2983C37.1532 21.3376 37.425 21.6927 37.8113 21.8206C37.9499 22.2642 37.9224 22.7221 37.9301 23.1766C37.644 23.5208 37.4008 23.9076 36.921 24.0388C36.7395 24.0879 36.4115 24.0125 36.4005 24.1885C36.3851 24.4223 36.7395 24.4092 36.9067 24.5425C36.9177 24.5512 36.9353 24.5512 36.9497 24.5556C36.9298 24.8506 37.3106 24.9009 37.3326 25.1719C36.8088 24.8386 36.2817 24.5097 35.7623 24.1688C35.6258 24.0792 35.5213 23.9437 35.354 23.9C35.332 23.7339 35.2836 23.5886 35.0954 23.5416Z" fill="#191919"/>
<path d="M34.7161 21.5156C34.6633 20.695 34.7766 19.8919 34.9703 19.0975C36.1169 18.5096 36.808 18.7664 37.2834 19.9596C37.345 20.1137 37.3967 20.27 37.4529 20.4262C36.3766 20.2645 35.4688 20.5202 34.8371 21.4654C34.8184 21.4949 34.7579 21.4992 34.7161 21.5156Z" fill="#FEFEFE"/>
<path d="M34.7148 21.5166C34.7567 21.5002 34.8161 21.4969 34.8359 21.4663C35.4675 20.5211 36.3743 20.2655 37.4516 20.4272C37.7146 20.8566 37.7773 21.3363 37.8115 21.8236C37.4252 21.6958 37.1534 21.3407 36.7198 21.3013C36.4051 21.2729 36.0915 21.1921 35.7955 21.3745C35.1979 21.2358 34.9867 21.4401 35.155 21.9941C34.7754 22.0454 34.7787 21.7515 34.7148 21.5166Z" fill="#3C3C3C"/>
<path d="M36.948 24.5607C36.9337 24.5564 36.9161 24.5564 36.9051 24.5476C36.7379 24.4132 36.3835 24.4274 36.3989 24.1936C36.4099 24.0177 36.7368 24.0931 36.9194 24.0439C37.3992 23.9139 37.6424 23.5271 37.9285 23.1818C38.2014 23.5424 38.0144 23.9357 38.0122 24.316C37.6688 24.446 37.3332 24.6121 36.948 24.5607Z" fill="#3C3C3C"/>
<path d="M38.7972 18.8327C39.2726 19.26 39.4189 19.8074 39.4739 20.3931C39.5774 21.4924 39.2671 22.5271 38.9611 23.5619C38.8764 23.8504 38.7906 24.1389 38.6574 24.4219C38.5419 24.1957 38.664 23.987 38.719 23.7761C38.9875 22.7522 39.3287 21.7448 39.3012 20.6608C39.2858 20.062 39.1537 19.5244 38.7774 19.0535C38.74 19.0065 38.7036 18.954 38.7972 18.8327Z" fill="#3C3C3C"/>
<path d="M35.0941 23.5479C35.2822 23.5949 35.3307 23.7413 35.3516 23.9062C34.2698 23.3589 33.811 22.4083 33.6107 21.2817C33.4962 20.6337 33.5557 20.0065 33.8033 19.3728C33.5876 20.9725 33.7031 22.4585 35.0941 23.5479Z" fill="#3C3C3C"/>
<path d="M36.95 24.5566C37.3362 24.6079 37.6708 24.4419 38.0141 24.3118C37.9965 24.4746 37.9877 24.6385 37.9613 24.7992C37.8996 25.163 37.7159 25.3357 37.3329 25.1729C37.3109 24.903 36.9302 24.8527 36.95 24.5566Z" fill="#FEFEFE"/>
<path d="M38.2996 18.5295C38.2776 18.5098 38.2292 18.4869 38.2182 18.453C38.2016 18.3994 38.2501 18.3765 38.2941 18.3929C38.3315 18.406 38.3788 18.4355 38.3898 18.4694C38.4074 18.5207 38.3623 18.5371 38.2996 18.5295Z" fill="#3C3C3C"/>
<path d="M38.6223 40.3335C38.7841 40.2745 38.9469 40.2243 39.123 40.256C39.2991 40.4177 39.4377 40.5914 39.3002 40.8449C39.2 41.0285 39.0372 41.0886 38.8402 41.0525C38.5332 40.9968 38.4616 40.7531 38.6223 40.3335Z" fill="#FEFEFE"/>
<path d="M43.6328 22.1789C44.117 21.1518 44.2821 20.0449 45.0502 19.1948C45.8117 18.3523 47.3534 18.0027 48.3812 18.4944C48.8214 18.7053 49.1207 19.3303 49.0172 19.8023C48.982 19.964 48.905 20.0351 48.7344 20.023C46.8439 19.8908 45.3154 20.624 44.0411 21.9648C43.953 22.0576 43.8782 22.1909 43.6328 22.1789Z" fill="#535353"/>
<path d="M35.153 21.9921C34.9858 21.4371 35.197 21.2327 35.7935 21.3726C35.9607 21.5627 36.0301 21.7813 35.8474 21.9801C35.6394 22.2074 35.3885 22.155 35.153 21.9921Z" fill="#FEFEFE"/>
</g>
</g>
<defs>
<clipPath id="clip0_394_11095">
<rect width="90" height="90" fill="white" transform="matrix(0 -1 1 0 0 90)"/>
</clipPath>
</defs>
</svg>
