<svg width="90" height="90" viewBox="0 0 90 90" fill="none" xmlns="http://www.w3.org/2000/svg">
<g clip-path="url(#clip0_394_11159)">
<mask id="mask0_394_11159" style="mask-type:luminance" maskUnits="userSpaceOnUse" x="0" y="0" width="90" height="90">
<path d="M0 0L0 90H90V0H0Z" fill="white"/>
</mask>
<g mask="url(#mask0_394_11159)">
<path fill-rule="evenodd" clip-rule="evenodd" d="M16.0759 13.9922C15.1688 13.9922 14.8268 13.657 15.0585 12.9609L21.1654 8.84418C21.9934 8.22818 23.3837 7.42318 25.3477 6.43778C27.5322 5.44078 28.6258 5.13999 28.6258 5.52099C28.6258 5.90199 27.1139 7.11958 24.1015 9.17938C20.9336 11.3279 19.0883 12.5827 18.5599 12.9609C17.7319 13.5768 16.9039 13.912 16.0759 13.9922Z" fill="url(#paint0_radial_394_11159)"/>
<path fill-rule="evenodd" clip-rule="evenodd" d="M16.077 13.9925C16.905 13.9237 17.733 13.5771 18.561 12.9611C19.0895 12.583 20.9348 11.3282 24.1027 9.17958C27.1151 7.11978 28.627 5.90228 28.627 5.52128C28.627 5.14028 27.5333 5.44108 25.3489 6.43798C23.3849 7.42348 21.9945 8.22847 21.1665 8.84437L15.0597 12.9611C14.828 13.6573 15.1699 13.9925 16.077 13.9925ZM35.1859 1.84858C35.7794 1.77128 36.2343 1.80568 36.5311 1.96318C36.9182 2.11788 37.1386 2.38718 37.2149 2.76818C37.2941 3.45008 36.9182 4.48997 36.0902 5.86787C34.5784 8.38607 32.3911 10.824 29.5341 13.196C26.7392 15.4907 24.4757 17.2039 22.7434 18.3555C20.1831 19.8767 17.1368 21.3664 13.593 22.8217C12.9855 23.0452 12.457 23.2027 12.0021 23.2801C11.4058 23.4262 10.9112 23.4692 10.5354 23.3918C9.33153 23.2457 8.95569 22.2516 9.40783 20.4153C10.0832 17.7396 11.629 15.1785 14.0452 12.7377C15.7012 11.0475 18.9453 8.87878 23.7607 6.20308C28.8926 3.45008 32.6906 1.99468 35.1859 1.84858Z" fill="url(#paint1_radial_394_11159)"/>
<path fill-rule="evenodd" clip-rule="evenodd" d="M10.3121 60.8671C8.4244 61.0132 7.40706 61.8182 7.25446 63.2735C7.17533 63.116 7.11034 62.9269 7.03404 62.692C6.95492 62.3883 6.87861 62.1219 6.80231 61.8956C7.11034 61.506 7.5964 61.2023 8.26897 60.9788C8.65612 60.9015 9.03197 60.8671 9.40499 60.8671H10.3121ZM15.622 58.2258H15.1671C13.5902 58.2258 12.1207 57.925 10.7643 57.309C9.78084 56.8507 8.91045 56.2348 8.15876 55.4727C8.01463 55.3266 7.89312 55.1719 7.82813 55.0144C7.51727 54.7909 7.25446 54.5216 7.03404 54.2208C5.0022 51.5451 4.12899 48.222 4.42854 44.2485C4.50484 42.8734 4.66026 41.5757 4.88069 40.3553C5.11241 39.1234 5.37805 37.9832 5.67477 36.9089C6.65819 33.3938 8.26897 30.2712 10.5325 27.5182C11.4368 26.3665 12.4542 25.3037 13.5902 24.3067C13.7343 24.1521 13.8869 24.0403 14.0423 23.9601L14.6047 23.39C17.9167 20.7143 20.7426 19.4166 23.0825 19.4968H23.3029C20.8189 19.7317 17.8828 21.3302 14.4945 24.3067C8.98675 29.1196 5.94041 35.7659 5.33283 44.2485C5.11241 48.222 6.01671 51.5451 8.04855 54.2208C10.0126 56.739 12.5305 58.0682 15.622 58.2258ZM38.2294 39.8969C28.9547 40.1977 24.3315 45.2798 24.3315 55.1261C24.3315 59.9389 26.7053 64.1788 31.45 67.8514C35.4459 70.9053 39.8515 72.5067 44.6753 72.6614C43.771 72.6614 42.8639 72.6299 41.9596 72.5497C41.8042 72.5497 41.6177 72.5067 41.3973 72.438C37.4777 71.9796 33.8577 70.4469 30.5457 67.8514C26.3181 64.5598 23.9896 60.8213 23.5346 56.6158C23.4583 56.1574 23.4244 55.6647 23.4244 55.1261V55.0144C23.4244 54.3984 23.4583 53.794 23.5346 53.178C23.69 50.5825 24.21 48.3681 25.1143 46.5317C25.5665 45.6265 26.0977 44.8186 26.7053 44.1253C27.1574 43.6011 27.7198 43.0969 28.3924 42.6385C30.0484 41.3407 32.2356 40.5014 34.9485 40.1203C35.7002 39.9628 36.4943 39.8854 37.3223 39.8854C37.6218 39.8969 37.9299 39.8969 38.2294 39.8969ZM28.8445 34.5025C28.172 33.9754 27.6435 33.3165 27.2677 32.5545C26.8155 31.7953 26.4707 30.9101 26.2503 29.9246C26.3944 29.0079 26.5499 28.0109 26.7053 26.9366C26.7053 26.8707 26.7364 26.7934 26.8155 26.7132C26.8155 27.395 26.8466 28.1226 26.9257 28.8847C27.4542 32.6347 29.7516 35.4651 33.8238 37.3673C34.7281 37.7483 35.59 37.9832 36.418 38.0606H36.0874C35.0276 38.1379 33.934 37.903 32.8093 37.3673C31.142 36.6053 29.8279 35.6542 28.8445 34.5025ZM26.4707 19.8434C26.7703 18.4655 27.2987 17.2021 28.0504 16.059C28.8897 14.5264 29.9834 13.1943 31.3285 12.0426C32.3882 11.2032 33.4819 10.4756 34.6066 9.8711C35.7454 9.2552 36.9804 8.7653 38.3396 8.3843C39.7752 8.0692 41.2871 7.9259 42.8639 7.9259C38.902 8.0921 35.4035 9.47 32.3571 12.0426C29.4097 14.4949 27.6435 17.7063 27.0359 21.6769C26.8918 21.0638 26.6601 20.5711 26.3605 20.1901C26.3605 20.1098 26.3944 19.9867 26.4707 19.8434ZM10.5325 23.39C9.56041 23.5476 8.87654 23.39 8.50069 22.9317C8.12485 22.4733 8.08246 21.6339 8.39048 20.4135C9.06305 17.7378 10.6088 15.1767 13.0278 12.7359C14.7601 10.9798 17.993 8.7968 22.7405 6.2013C27.9402 3.4483 31.7496 1.993 34.1544 1.8469H35.1831C32.6878 1.993 28.8897 3.4483 23.7579 6.2013C18.9425 8.877 15.6983 11.0457 14.0423 12.7359C11.6262 15.1767 10.0804 17.7378 9.40499 20.4135C8.95284 22.2498 9.32869 23.2439 10.5325 23.39ZM7.25446 64.302C7.33076 65.5997 7.86203 67.247 8.84263 69.2265C10.6541 72.8963 13.4348 75.7611 17.1989 77.8209C19.0103 78.8952 20.6663 79.4653 22.1782 79.5455C20.898 79.6114 19.4625 79.3106 17.8828 78.6259C17.278 78.391 16.7128 78.1217 16.1844 77.8209C12.4966 75.7611 9.70454 72.8963 7.82813 69.2265C6.8447 67.2355 6.31625 65.5997 6.23713 64.302C6.0167 64.1473 5.67477 63.7319 5.22262 63.0386C3.86335 60.9788 2.58321 58.2258 1.3822 54.7909C0.178349 51.2758 -0.242716 46.8469 0.133132 41.4954C0.508979 36.5279 1.34828 32.7894 2.61712 30.2712C3.83227 27.8992 4.69135 26.3665 5.22262 25.6847C5.97432 24.6104 6.53667 24.3067 6.92383 24.7651C6.68927 25 6.42646 25.3037 6.12692 25.6847C5.59847 26.4439 4.77047 27.9794 3.64293 30.2712C2.36279 32.7894 1.52349 36.5279 1.15047 41.4954C0.774618 46.8469 1.15047 51.2758 2.28649 54.7909C3.49033 58.2258 4.77047 60.9788 6.12692 63.0386C6.65819 63.7978 7.03404 64.2246 7.25446 64.302ZM46.2522 31.8726C46.1759 31.4916 46.1759 31.0676 46.2522 30.6093C46.4868 28.6956 47.456 26.6788 49.1912 24.5302C50.0955 23.39 51.2654 22.2498 52.701 21.0953C53.9811 20.0325 55.3375 19.2619 56.7618 18.8006C57.6689 18.5772 58.6495 18.4998 59.7093 18.5772C57.5248 18.6574 55.5269 19.4968 53.7155 21.0953C49.6433 24.4643 47.5013 27.6299 47.2695 30.6093C46.97 33.8207 48.7051 37.6366 52.4692 42.0684C54.5887 44.5951 57.214 45.8929 60.3818 45.9616C59.7771 46.039 59.1808 46.039 58.5732 45.9616C57.214 45.8155 55.979 45.4345 54.843 44.8186C53.9359 44.0594 52.9977 43.3318 52.0171 42.6385C51.7938 42.4924 51.6073 42.3033 51.4519 42.0684C48.2077 38.2525 46.4868 34.8492 46.2522 31.8726ZM40.7134 3.6832C38.9783 3.0673 38.5261 2.4628 39.3541 1.8469C39.5859 1.6922 39.8515 1.5002 40.1482 1.2768C41.8833 0.360002 44.2543 -0.0668028 47.2695 0.0133972C44.2543 0.0906972 41.9596 0.706701 40.3799 1.8469C39.4756 2.4628 39.9956 3.1131 41.9596 3.7949C43.3161 4.1759 46.5178 4.9809 51.5621 6.2013C57.8215 7.8113 61.8513 8.7309 63.6627 8.9544C64.1912 9.0317 64.7224 9.0661 65.2396 9.0661C64.4907 9.1435 63.6288 9.1119 62.6454 8.9544C60.9894 8.7195 56.9625 7.8113 50.5476 6.2013C47.2356 5.3619 44.7092 4.7116 42.9741 4.2533C42.0698 4.0986 41.3973 3.9525 40.9451 3.7949C40.866 3.7949 40.7897 3.7605 40.7134 3.6832ZM52.8112 15.4775C52.2799 15.0306 51.873 14.4147 51.5621 13.6555C50.7341 11.2806 51.4208 10.0946 53.6053 10.0946H54.2778C52.4014 10.2521 51.8278 11.4381 52.5908 13.6555C53.2633 15.5577 54.7752 16.5518 57.1038 16.632C55.7473 16.7093 54.6198 16.5203 53.7155 16.059C53.3396 15.9043 53.0429 15.7124 52.8112 15.4775ZM23.7579 80.6857C23.8568 80.72 23.9444 80.7315 24.0433 80.743C23.6137 80.7974 23.2605 80.8547 22.9723 80.9206C21.1637 81.2242 21.6158 82.5535 24.3315 84.9255C27.344 87.6012 30.8424 89.2027 34.8383 89.7384C35.59 89.8959 36.2739 89.9618 36.8701 89.9618C36.1976 90.042 35.2142 89.9618 33.934 89.7384C29.9382 89.2027 26.4397 87.6012 23.4244 84.9255C21.24 83.0921 20.4459 81.8717 21.0535 81.2558C21.2739 81.1097 21.5706 80.9865 21.9578 80.9206C22.3986 80.8432 23.0062 80.763 23.7579 80.6857ZM59.0254 71.633L55.8688 71.8679C55.4167 72.014 51.9493 72.5153 45.4581 73.3547C39.9617 74.0394 36.6836 75.0019 35.6239 76.2195C34.1233 77.9784 34.3862 80.1929 36.418 82.8686C38.6024 85.6876 41.7731 87.1429 45.9103 87.2202H45.4581C43.6495 87.2202 42.0359 86.9538 40.6004 86.4152C39.6961 86.1918 38.8681 85.7993 38.1192 85.2751C37.5879 84.8138 37.0256 84.3125 36.418 83.7854C36.1213 83.5504 35.8217 83.2496 35.5137 82.8686C34.9174 82.0951 34.4653 81.3675 34.1544 80.6857C33.4056 78.9296 33.5582 77.4399 34.6066 76.2195C34.9174 75.8299 35.4035 75.4947 36.0874 75.191C37.7434 74.4175 40.5241 73.8159 44.4436 73.3547C50.9998 72.5153 54.5096 72.014 54.9645 71.8679L58.5732 71.633H59.0254ZM62.1932 59.3688C62.2695 58.9878 62.3826 58.6068 62.5352 58.2258C62.7556 57.6901 63.8153 55.5186 65.6917 51.6912C67.879 47.6404 70.9366 43.7128 74.8562 39.8969C78.0128 36.7628 80.508 35.1958 82.3166 35.1958H82.879C81.0704 35.4995 78.7305 37.0636 75.8707 39.8969C71.8748 43.7128 68.8285 47.6519 66.7091 51.6912C64.9089 55.1375 63.8153 57.309 63.431 58.2258C62.5352 60.7439 62.4589 62.9584 63.2077 64.8721C64.0357 67.0121 65.7256 68.1179 68.2972 68.1981C65.2085 68.3528 63.2077 67.2355 62.3034 64.8721C61.7072 63.2735 61.6648 61.4372 62.1932 59.3688ZM83.2238 65.3333C82.6162 65.488 81.8193 65.7917 80.85 66.25L75.7605 69.2265L71.4651 70.4899C70.1849 70.636 68.8596 71.9338 67.5031 74.386C66.1467 77.205 65.1746 79.1186 64.567 80.1156C63.5836 81.7141 63.5836 82.7884 64.567 83.327C64.7874 83.3929 65.0531 83.4731 65.3611 83.5504C64.6009 83.6278 64.0357 83.5505 63.6627 83.327C62.8347 82.9345 62.6793 82.141 63.2077 80.9206C63.2869 80.6857 63.3971 80.4164 63.5525 80.1156C64.1488 79.1186 65.1294 77.205 66.4886 74.386C67.8451 71.9338 69.1591 70.636 70.4393 70.4899L74.7347 69.2265L79.9316 66.25C81.0704 65.7115 81.9295 65.4106 82.5371 65.3333H83.2238ZM82.0849 32.4427C81.6328 32.5229 81.1467 32.4771 80.6183 32.331C78.9623 31.95 77.1961 30.721 75.3083 28.6612C73.1211 26.2892 71.2023 23.3127 69.5463 19.7202C68.7183 17.818 68.3311 15.9359 68.4074 14.1139C68.4866 13.1943 68.6731 12.2775 68.9726 11.3608C69.2044 10.7449 69.4248 10.2063 69.6565 9.7479C70.0323 9.0661 70.4506 8.6077 70.8914 8.3843C71.2023 8.2267 71.499 8.2267 71.7985 8.3843C71.0469 8.6851 70.4054 9.682 69.8769 11.3608C68.9726 14.0336 69.2044 16.8211 70.5608 19.7202C72.2168 23.3127 74.1384 26.2892 76.3229 28.6612C78.431 30.9559 80.3526 32.2193 82.0849 32.4427Z" fill="#CDFBA2"/>
<path fill-rule="evenodd" clip-rule="evenodd" d="M34.608 9.87019C35.4473 8.79589 36.199 7.72159 36.8715 6.65869C37.2474 5.97689 37.5554 5.39539 37.7758 4.94559C39.3555 5.01439 39.542 6.16599 38.341 8.38329C36.9817 8.76439 35.7468 9.25419 34.608 9.87019ZM28.0518 16.0581C27.3001 17.2011 26.783 18.4645 26.4721 19.8425H25.9098C25.8335 19.7623 25.7572 19.7193 25.6781 19.7193C24.9292 19.4958 24.1323 19.4156 23.3043 19.4958H23.0839C23.536 19.1807 23.9458 18.9143 24.3329 18.688C25.3813 18.0061 26.6276 17.1209 28.0518 16.0581ZM20.5999 56.8497C21.6483 56.5461 22.5865 55.9301 23.4258 55.0134V55.1366C23.4258 55.6637 23.4597 56.165 23.536 56.6263C22.5554 57.2279 21.4279 57.543 20.1477 57.543H19.5741C19.9612 57.3854 20.2918 57.1505 20.5999 56.8497ZM14.0437 23.9592C13.9674 23.8818 13.9674 23.7701 14.0437 23.624C14.1879 23.5466 14.3744 23.4664 14.6061 23.3891L14.0437 23.9592ZM28.3938 42.6375C27.7212 43.0959 27.1588 43.6001 26.7067 44.1244C26.783 42.904 26.783 41.6521 26.7067 40.3543C26.6276 38.5867 26.8169 35.9998 27.2691 32.5535C27.6449 33.327 28.1733 33.9744 28.8459 34.513C28.3938 37.5669 28.2073 39.8157 28.2836 41.271C28.2836 41.7179 28.3175 42.1792 28.3938 42.6375ZM50.7807 12.5C50.8457 12.7349 50.9249 12.9269 51.0012 13.0701C51.685 15.1414 51.0803 18.9573 49.1926 24.5293C47.4574 26.6778 46.4882 28.6947 46.2536 30.6083C46.1773 31.0667 46.1773 31.4907 46.2536 31.8717C43.3175 37.7474 39.9292 39.8157 36.0888 38.0596H36.4194C37.4028 38.137 38.3834 37.9364 39.3555 37.4781C42.0712 36.5728 44.4874 33.4273 46.5984 28.0902C49.3141 21.441 50.7044 16.5508 50.7807 13.4196V12.5ZM55.8702 70.1423L59.137 69.9074C61.4769 70.1423 62.9774 71.1736 63.6641 73.0071C63.7404 73.2306 63.8167 73.4225 63.8958 73.5801C63.8167 73.4998 63.7404 73.4225 63.6641 73.3537C62.9887 71.4401 61.4429 70.4116 59.0268 70.254L55.5283 70.489C55.4492 70.489 55.2966 70.5233 55.0761 70.6007C55.3079 70.446 55.5283 70.2999 55.7487 70.1423H55.8702ZM61.2903 16.0581H61.4005C62.1607 17.2785 61.6662 18.1179 59.9311 18.5762H59.7106C58.6509 18.4989 57.6788 18.5762 56.7632 18.8112C54.8105 18.7338 53.5304 17.8171 52.9228 16.0581C52.855 15.8232 52.8126 15.6341 52.8126 15.488C53.0443 15.7115 53.341 15.9034 53.7169 16.0581C54.7766 16.9777 56.3111 17.3243 58.3542 17.0894C59.7898 16.9319 60.7591 16.5852 61.2903 16.0581ZM68.1884 15.3648C68.1884 16.8975 68.5643 18.4645 69.316 20.0659C69.9998 21.5986 70.7487 23.0081 71.5767 24.3058C70.8928 23.624 70.144 22.9307 69.316 22.2489C69.2368 22.014 69.1605 21.822 69.0842 21.6759C68.1121 19.5273 67.8013 17.4361 68.1884 15.3648ZM67.3943 9.06519C67.4706 9.36599 67.5045 9.63529 67.5045 9.87019C67.7363 11.4716 66.1905 12.0417 62.8672 11.5833C61.6662 11.4372 58.0547 10.5864 52.0185 9.06519C47.4264 7.92499 44.5213 7.15149 43.3175 6.77049C41.5852 6.16599 41.133 5.55009 41.961 4.93699C42.1165 4.79089 42.2577 4.66769 42.4132 4.59899C43.617 4.97999 46.6295 5.78499 51.4533 7.00539C57.416 8.52659 61.2112 9.41179 62.8672 9.63529C65.1308 9.93889 66.6426 9.74699 67.3943 9.06519ZM10.5339 60.6312C9.70594 59.2561 8.91185 57.543 8.16016 55.4718C8.91185 56.2338 9.78224 56.8497 10.7657 57.3081C10.9861 58.1475 11.2517 59.0642 11.5484 60.0611C11.0963 60.2158 10.7657 60.4078 10.5339 60.6312ZM27.2691 77.1381C27.3454 77.0579 27.4217 76.9462 27.4895 76.7915C29.3772 75.256 29.8293 73.199 28.8459 70.6007C28.0179 68.4636 26.3619 66.2835 23.8808 64.0661C21.0859 61.7055 18.1074 60.3304 14.948 59.9494H15.7336C19.2773 60.0927 22.5554 61.4706 25.5678 64.0661C27.9868 66.1374 29.6089 68.1971 30.4369 70.254C31.3299 72.7063 30.8778 74.6859 29.0776 76.2185C28.5492 76.6798 27.9416 76.9806 27.2691 77.1381ZM25.7996 78.6249C25.955 78.5476 26.1104 78.5018 26.2517 78.5018C27.1588 78.3585 28.7357 78.4359 30.9993 78.7367C32.124 79.4213 33.1837 80.0688 34.1558 80.6847C34.4667 81.3665 34.9188 82.0942 35.5151 82.8677C35.8231 83.2487 36.1227 83.5495 36.4194 83.7844C34.608 82.4867 32.3133 80.9855 29.5326 79.3096C27.7212 79.0833 26.3195 79.006 25.3474 79.0833C25.3474 79.006 25.4124 78.9286 25.5678 78.8484C25.5678 78.771 25.647 78.6937 25.7996 78.6249ZM41.961 72.5487C40.6018 72.8524 39.477 73.1647 38.5727 73.4655C39.2453 73.0873 40.1948 72.7407 41.3987 72.437C41.6191 72.5144 41.8056 72.5487 41.961 72.5487ZM40.6018 86.4143C40.5255 86.7151 40.1835 86.907 39.5872 86.9844C39.4318 86.7609 39.2114 86.4601 38.9147 86.0676C38.683 85.8442 38.4173 85.5749 38.1206 85.2741C38.8695 85.7984 39.6975 86.1908 40.6018 86.4143ZM63.0989 80.1146V80.0029L63.2091 79.8797C63.1441 79.9571 63.0989 80.0344 63.0989 80.1146ZM81.524 64.0661C80.9164 64.1463 80.0884 64.4471 79.04 64.9857L74.1709 67.9622L70.2203 69.2256C69.0164 69.3832 67.7702 70.6007 66.49 72.8954C65.8146 74.2733 65.241 75.4135 64.8001 76.3302V75.7602C65.241 74.8434 65.7723 73.7348 66.3798 72.437C67.5808 70.2225 68.7508 69.0365 69.8783 68.879L73.7188 67.7359L78.3561 64.8711C80.0234 64.0346 81.0718 63.7653 81.524 64.0661ZM80.6197 32.3301C81.1481 32.4762 81.6342 32.522 82.0863 32.4418H83.2252C82.5385 32.9804 81.6003 33.3155 80.3992 33.4731C78.5878 33.708 76.5899 32.5993 74.4026 30.1471C74.3263 29.7689 74.2161 29.3421 74.0607 28.8837C73.8403 28.2019 73.5746 27.5086 73.2779 26.8239C73.7979 27.5172 74.3263 28.1675 74.8576 28.772C76.9657 31.144 78.8845 32.3301 80.6197 32.3301Z" fill="#3C6958"/>
<path fill-rule="evenodd" clip-rule="evenodd" d="M25.9113 19.8447H26.4736C26.3973 19.988 26.3634 20.1026 26.3634 20.1799C26.2108 20.0338 26.0667 19.9221 25.9113 19.8447ZM23.5375 53.1794C23.4612 53.7953 23.4273 54.4112 23.4273 55.0157C22.588 55.9324 21.6498 56.5483 20.6014 56.852C21.7289 56.09 22.6671 54.904 23.4273 53.3025L23.5375 53.1794ZM25.1172 46.5445C25.2726 44.777 25.3037 42.8747 25.2274 40.815C25.0833 38.589 25.4139 34.9622 26.2532 29.9259C26.4736 30.9229 26.8184 31.7966 27.2705 32.5558C26.8184 35.9907 26.6291 38.589 26.7082 40.3451C26.7845 41.6429 26.7845 42.9063 26.7082 44.1266C26.1006 44.8199 25.5693 45.6278 25.1172 46.5445ZM38.2323 39.8982H37.3252C36.4972 39.8982 35.7031 39.9641 34.9514 40.1217C36.1552 39.818 37.4806 39.6289 38.9162 39.5516C44.0367 39.394 48.4084 40.4339 52.02 42.6398C53.0006 43.3331 53.9388 44.0608 54.8459 44.8199C55.4733 45.4473 56.0695 46.0976 56.6545 46.768C52.328 42.0354 46.4896 39.7407 39.1366 39.8982H38.2323ZM23.0854 19.4981C20.7455 19.4179 17.9196 20.7156 14.6076 23.3914C14.3759 23.4687 14.1893 23.5489 14.0452 23.6263C13.0618 23.7724 12.3892 23.6606 12.0021 23.2796C12.4571 23.2023 12.9855 23.0447 13.5931 22.8213C17.1368 21.366 20.1831 19.8763 22.7434 18.3436C24.4757 17.2034 26.7393 15.4788 29.5341 13.1956C32.3911 10.8236 34.5784 8.3856 36.0903 5.856C36.9182 4.4781 37.2941 3.4496 37.215 2.7678C37.9667 2.9912 38.1532 3.7189 37.7773 4.9393C37.5569 5.3977 37.2489 5.9677 36.873 6.661C36.2005 7.7239 35.4488 8.7981 34.6095 9.8724C33.4848 10.4769 32.3911 11.2046 31.3314 12.0439C29.9863 13.187 28.8926 14.5277 28.0533 16.0518C26.6291 17.1232 25.3828 18.0084 24.3344 18.6902C23.9473 18.9252 23.5375 19.183 23.0854 19.4981ZM4.88361 40.3566C4.66319 41.577 4.50777 42.8747 4.43147 44.2498C4.13192 48.2233 5.00513 51.5464 7.03697 54.2221C7.25739 54.5229 7.5202 54.7922 7.83105 55.0157C8.2069 56.6944 8.72404 58.6425 9.40791 60.8684C9.03489 60.8684 8.65904 60.9028 8.27189 60.9802C7.22348 59.1438 6.20897 56.8176 5.22555 53.9872C4.69428 52.5319 4.36365 50.8532 4.21105 48.9509C4.05562 46.0403 4.28734 43.1755 4.88361 40.3566ZM10.5354 27.5195C8.27189 30.2611 6.66112 33.3952 5.6777 36.9103C6.20897 34.8505 6.84763 32.3323 7.59933 29.3558C7.83105 28.3589 8.01756 27.5195 8.16168 26.8262C8.39341 26.3679 8.57992 26.0327 8.72405 25.7978C9.48704 24.6547 10.0494 24.4198 10.4252 25.1159C10.6569 25.5743 10.6909 26.3679 10.5354 27.5195ZM38.5742 73.4677C39.4785 73.1669 40.6032 72.8547 41.9625 72.551C42.8668 72.6312 43.7739 72.6627 44.6782 72.6627C46.1138 72.743 47.5381 72.6627 48.9708 72.4393C51.3022 72.0583 53.3425 71.4423 55.0776 70.603C55.298 70.5256 55.4506 70.4912 55.5298 70.4912L59.0283 70.2563C61.4444 70.4139 62.9789 71.4423 63.6656 73.356C62.7585 72.3619 61.402 71.7918 59.5906 71.6343H58.5761L54.9674 71.8692C54.5124 72.0153 51.0026 72.5166 44.4465 73.356C40.5269 73.8173 37.7462 74.4189 36.0903 75.1923C36.1552 75.0348 36.2768 74.8801 36.4209 74.734C36.7967 74.2756 37.5145 73.8488 38.5742 73.4677ZM50.7822 13.4219C50.7059 16.5531 49.3156 21.4433 46.5999 28.0925C44.4889 33.441 42.0727 36.5751 39.357 37.4918C41.9173 36.3402 44.2572 33.2061 46.3681 28.0925C49.081 21.6009 50.5505 16.7107 50.7822 13.4219ZM67.6162 8.844L67.3958 9.0674C66.6441 9.7607 65.1323 9.9527 62.8687 9.6375C61.2127 9.4141 57.4062 8.5403 51.4548 7.0077C46.6309 5.7873 43.6185 4.9823 42.4147 4.6012C41.5104 4.289 40.948 3.9882 40.7163 3.6845C40.7926 3.7619 40.8689 3.7962 40.948 3.7962C41.4002 3.9538 42.0727 4.1114 42.977 4.2546C44.7121 4.713 47.2385 5.3633 50.5505 6.2027C56.954 7.8127 60.9923 8.7323 62.6483 8.9557C63.6317 9.1133 64.4936 9.1448 65.2425 9.0674C66.2259 9.1448 67.02 9.0674 67.6162 8.844ZM68.1899 15.3671C68.1136 14.2269 68.2577 13.0724 68.6308 11.9322C68.9416 10.9353 69.2835 10.2076 69.6594 9.7493C69.4277 10.2076 69.2072 10.7462 68.9755 11.3621C68.676 12.2789 68.4895 13.1956 68.4103 14.1152C68.334 15.9372 68.7099 17.8193 69.5379 19.7216C71.1939 23.314 73.124 26.2905 75.3112 28.6626C77.1877 30.7223 78.9652 31.9513 80.6211 32.3323C78.886 32.3323 76.9672 31.1463 74.8591 28.7743C74.3278 28.1583 73.7994 27.5109 73.2681 26.8262C72.6718 26.0671 72.1095 25.2277 71.5782 24.3081C70.7502 23.0103 70.0013 21.5894 69.3175 20.0682C68.5658 18.4668 68.1899 16.8998 68.1899 15.3671ZM61.2918 16.0604C60.7606 16.5875 59.7913 16.9341 58.3557 17.0917C56.3239 17.3151 54.7781 16.98 53.7184 16.0604C54.6227 16.5216 55.7502 16.7107 57.1066 16.6333C57.6379 16.7107 58.2455 16.7107 58.9181 16.6333C59.9015 16.5531 60.6843 16.364 61.2918 16.0604ZM11.5499 60.0634C12.0812 59.9059 12.7651 59.8285 13.5931 59.8285C14.0452 59.8285 14.4974 59.8715 14.9495 59.9517C18.1089 60.3327 21.0874 61.7078 23.8823 64.0684C26.3634 66.2857 28.0194 68.4658 28.8474 70.603C29.8308 73.2013 29.3787 75.2582 27.491 76.7938C28.2398 75.496 28.2851 73.8831 27.6125 71.9809C26.7082 69.7664 24.8968 67.5033 22.1811 65.2229C18.7928 62.4698 15.1699 61.0145 11.3295 60.8684H10.315C10.3913 60.7911 10.4676 60.7109 10.5354 60.6335C10.7672 60.4101 11.0978 60.2181 11.5499 60.0634ZM39.5887 86.9866C39.8092 87.6026 39.357 87.9062 38.2323 87.9062C36.2005 85.9238 32.8772 83.6291 28.2851 81.0336C26.7082 80.8761 25.4139 80.7644 24.4446 80.687C24.3005 80.7099 24.1677 80.7214 24.0462 80.7443C23.9473 80.7443 23.8597 80.7214 23.7607 80.687C23.4612 80.1484 23.5375 79.7359 23.9925 79.4236C24.2892 79.3549 24.6311 79.2317 25.007 79.0856H25.3489C26.321 79.0082 27.7227 79.0856 29.5341 79.3119C32.3148 80.9878 34.6095 82.4775 36.4209 83.7867C37.0285 84.3138 37.5908 84.8152 38.1221 85.2764L38.9162 86.0699C39.2129 86.4624 39.4333 86.7632 39.5887 86.9866ZM63.2106 80.9219C63.0693 80.687 63.0241 80.4177 63.1004 80.1169C63.1004 80.0367 63.1456 79.9593 63.2106 79.882C64.1941 78.6616 64.7253 77.4756 64.7903 76.3325C65.2425 75.4158 65.8048 74.2756 66.4915 72.8977C67.7717 70.603 69.0179 69.3854 70.2217 69.2279L74.1724 67.9645L79.0415 64.988C80.0899 64.4494 80.9179 64.1486 81.5254 64.0684C82.3534 64.0684 82.6954 64.4952 82.5399 65.3346C81.9324 65.412 81.0733 65.7128 79.9458 66.2514L74.7489 69.2279L70.4422 70.4912C69.162 70.6373 67.848 71.9351 66.4915 74.3873C65.1323 77.2063 64.1517 79.12 63.5554 80.1169C63.4 80.4177 63.2898 80.687 63.2106 80.9219ZM62.1961 59.3702C62.2724 58.7657 62.4618 58.0695 62.7585 57.3104C62.9902 56.471 63.9623 54.3654 65.6946 51.0107C67.4297 47.6417 69.7696 44.3616 72.7057 41.1501C72.8612 41.004 73.0138 40.8493 73.1579 40.6918C73.5337 40.3108 73.9209 39.9297 74.2939 39.5516C77.9167 36.0365 80.5872 34.5812 82.3195 35.1971C80.5109 35.1971 78.0269 36.7642 74.8591 39.8982C70.9395 43.7141 67.8819 47.6532 65.6946 51.6925C63.8182 55.5199 62.7585 57.6914 62.5381 58.2271C62.3855 58.6081 62.2724 58.9891 62.1961 59.3702Z" fill="url(#paint2_radial_394_11159)"/>
<path fill-rule="evenodd" clip-rule="evenodd" d="M26.3609 20.1794C26.6604 20.5719 26.8921 21.0646 27.0363 21.6662C27.1889 22.8981 27.1126 24.5768 26.8158 26.714C26.7367 26.7942 26.7056 26.8715 26.7056 26.9374C26.5502 28.0117 26.3948 29.0086 26.2507 29.9254C25.4114 34.9617 25.0807 38.5885 25.2248 40.8144C25.3011 42.8742 25.2701 44.7764 25.1146 46.544C24.2103 48.3688 23.6904 50.5833 23.5349 53.1788L23.4247 53.302C22.6646 54.9034 21.7264 56.0894 20.5988 56.8515C20.2908 57.1523 19.9602 57.3872 19.573 57.5447C18.6009 58.0031 17.4649 58.2266 16.1847 58.2266H15.6224C12.5308 58.069 10.0129 56.7397 8.04889 54.2216C6.01705 51.5459 5.11275 48.2227 5.33318 44.2493C5.94075 35.7667 8.9871 29.1204 14.4948 24.3075C17.8831 21.331 20.8192 19.721 23.3032 19.4976C24.1425 19.4174 24.9281 19.4976 25.677 19.721C25.7561 19.721 25.8324 19.764 25.9087 19.8442C26.0641 19.9216 26.2083 20.0333 26.3609 20.1794ZM10.0807 42.9859C10.4651 45.5041 11.4824 46.7331 13.1384 46.6557C15.6987 46.4981 16.9788 42.9515 16.9788 35.9901C16.9788 35.8469 17.1992 34.0106 17.6514 30.4955C17.9622 28.4386 17.7305 27.3958 16.9788 27.3958C15.9954 27.3958 14.9046 28.1234 13.7007 29.5787C12.2652 31.3349 11.2167 33.5866 10.5329 36.3396C9.9366 38.7117 9.78118 40.9261 10.0807 42.9859Z" fill="url(#paint3_radial_394_11159)"/>
<path fill-rule="evenodd" clip-rule="evenodd" d="M7.59846 24.5329C7.75106 24.6131 7.86409 24.7678 7.94039 24.9941C8.16082 25.3723 8.23711 25.9882 8.16081 26.8276C8.01669 27.5209 7.83018 28.3603 7.59846 29.3572C6.84676 32.3337 6.2081 34.8519 5.67683 36.9116C5.38011 37.9859 5.11447 39.1261 4.88274 40.358C4.28647 43.1769 4.05475 46.0417 4.21018 48.9523C4.21018 50.6311 4.35147 52.2755 4.66232 53.8769C4.95905 55.5556 5.67683 58.2285 6.80437 61.8983C6.88067 62.1246 6.95697 62.391 7.0361 62.6947C7.1124 62.9296 7.17739 63.1187 7.25652 63.2762C7.17739 63.577 7.17739 63.9237 7.25652 64.3047C7.0361 64.2273 6.66025 63.8005 6.12898 63.0413C4.77253 60.9815 3.49239 58.2285 2.28855 54.7936C1.15253 51.2785 0.776679 46.8496 1.15253 41.4982C1.53685 36.5306 2.36485 32.7921 3.64499 30.2739C4.77253 27.9821 5.60053 26.4466 6.12898 25.6874C6.42852 25.3064 6.69133 25.0027 6.92588 24.7678C7.14631 24.5329 7.37803 24.467 7.59846 24.5329Z" fill="url(#paint4_radial_394_11159)"/>
<path fill-rule="evenodd" clip-rule="evenodd" d="M15.6209 58.2247H16.1833C17.4634 58.2247 18.5994 58.0012 19.5715 57.5428H20.1452C21.4253 57.5428 22.5529 57.2277 23.5335 56.6261C23.9885 60.8202 26.317 64.5587 30.5446 67.8503C33.8566 70.4458 37.4766 71.9785 41.3961 72.4368C40.1923 72.7405 39.2428 73.0871 38.5702 73.4653C37.5105 73.8463 36.7927 74.2732 36.4169 74.7315C36.2727 74.8776 36.1512 75.0323 36.0862 75.1899C35.4024 75.4936 34.9163 75.8287 34.6055 76.2184C33.557 77.4388 33.4044 78.9284 34.1533 80.6846C33.1812 80.0686 32.1215 79.4212 30.9968 78.7365C28.7332 78.4357 27.1563 78.3583 26.2492 78.5016C26.1079 78.5016 25.9525 78.5474 25.7971 78.6248C25.9525 78.5474 26.0627 78.4701 26.1277 78.3899C26.5827 78.0088 26.967 77.5963 27.2665 77.138C27.9391 76.9804 28.5467 76.6796 29.0751 76.2184C30.8752 74.6857 31.3274 72.7061 30.4344 70.2539C29.5951 68.197 27.9843 66.1372 25.5653 64.066C22.5529 61.4705 19.2748 60.0925 15.7311 59.9493H14.9455C14.4934 59.869 14.0412 59.8261 13.5891 59.8261C12.7611 59.8261 12.0772 59.9034 11.5459 60.061C11.2492 59.064 10.9836 58.1473 10.7631 57.3079C12.1196 57.9239 13.5891 58.2247 15.1659 58.2247H15.6209ZM8.15767 55.4716C8.90936 57.5428 9.70345 59.256 10.5314 60.6311L10.311 60.866H9.4039C8.72003 58.6515 8.20289 56.7035 7.82704 55.0132C7.89203 55.1708 8.01354 55.3255 8.15767 55.4716ZM56.6505 46.7655C56.0655 46.0952 55.4692 45.4449 54.8419 44.8175C55.9779 45.4334 57.2128 45.8144 58.5721 45.9605C59.1797 46.0379 59.776 46.0379 60.3807 45.9605C57.2128 45.8918 54.5876 44.5826 52.4681 42.0673C48.704 37.6355 46.9689 33.8196 47.2684 30.6082C47.5001 27.6288 49.6422 24.4632 53.7143 21.0942C55.5258 19.4957 57.5237 18.6563 59.7081 18.5761H59.9286C61.6637 18.1177 62.1469 17.2783 61.398 16.0579C62.6782 15.4449 62.7234 14.4479 61.5195 13.07C59.776 11.0904 57.4785 10.0934 54.6186 10.0934H53.6041C51.4197 10.0934 50.733 11.2795 51.561 13.6544C51.8718 14.4135 52.2788 15.0295 52.8101 15.4764C52.8101 15.6339 52.8524 15.823 52.9203 16.0579C53.5278 17.8169 54.808 18.7336 56.7607 18.7995C55.3364 19.2608 53.98 20.0314 52.6998 21.0942C51.2643 22.2487 50.0943 23.3889 49.19 24.5291C51.0778 18.9571 51.6825 15.1412 50.9986 13.07C50.9223 12.9267 50.8545 12.7348 50.7782 12.4999C50.7782 11.7407 50.6567 11.0904 50.4363 10.5547C49.8287 8.7957 47.6104 7.9248 43.7699 7.9248H43.3149H42.8628C41.2859 7.9248 39.7741 8.068 38.3385 8.3832C39.5395 6.1658 39.353 5.0142 37.7733 4.9368C38.1492 3.7164 37.9626 2.9888 37.211 2.7653C37.1347 2.3843 36.9142 2.115 36.5271 1.9603C37.7422 1.7254 38.9461 1.4991 40.1471 1.2757C39.8504 1.4991 39.5847 1.691 39.353 1.8457C38.525 2.4502 38.9772 3.0661 40.7123 3.6821C40.944 3.9857 41.5064 4.2865 42.4107 4.5902C42.2552 4.6676 42.1139 4.7793 41.9585 4.9368C41.1305 5.5499 41.5827 6.1544 43.3149 6.7703C44.5188 7.1513 47.4238 7.9134 52.016 9.065C58.0521 10.5862 61.6637 11.4256 62.8647 11.5831C66.188 12.0415 67.7338 11.4714 67.502 9.87C67.502 9.6351 67.4681 9.3658 67.3918 9.065L67.6235 8.8301C68.5165 8.5264 68.9376 7.9563 68.8585 7.1169C69.5452 7.5667 70.2177 7.9907 70.8903 8.3717C70.4495 8.6066 70.0312 9.065 69.6554 9.7468C69.2795 10.2052 68.9376 10.9328 68.638 11.9298C68.265 13.07 68.1096 14.2245 68.1859 15.3646C67.8101 17.4244 68.1096 19.5272 69.093 21.6643C69.158 21.8219 69.2343 22.0138 69.3134 22.2373C70.1414 22.9305 70.8903 23.6124 71.5742 24.3056C72.1055 25.2138 72.6678 26.0646 73.2754 26.8238C73.5721 27.5085 73.8377 28.2017 74.0582 28.8836C74.2136 29.3419 74.3238 29.7688 74.4001 30.1469C76.5874 32.5877 78.5853 33.6964 80.3967 33.4729C81.5977 33.3154 82.5359 32.9802 83.2226 32.4416C85.4071 32.2067 86.6872 31.333 87.0631 29.8003C87.1394 29.5768 87.1733 29.3419 87.1733 29.1185C89.061 34.0745 89.9992 39.426 89.9992 45.1555C89.9992 53.0996 88.1878 60.2844 84.5791 66.7073C84.7995 65.633 84.3474 65.1746 83.2226 65.3322H82.5359C82.6914 64.4928 82.3494 64.066 81.5214 64.066C81.0693 63.7651 80.0209 64.0344 78.3536 64.871L73.7162 67.7357L69.8758 68.8788C68.7483 69.0363 67.5783 70.2224 66.3773 72.4368C65.7697 73.7346 65.2385 74.8433 64.7863 75.76C64.7213 75.4477 64.6422 75.1899 64.5659 74.955C64.4105 74.4966 64.19 74.0383 63.882 73.5799C63.8142 73.4223 63.7379 73.2304 63.6616 73.0069C62.9749 71.1735 61.4743 70.1422 59.1345 69.9072L55.8564 70.1422C58.5721 68.4634 60.3807 66.0598 61.2878 62.9258C62.7121 57.9554 61.5082 52.9878 57.6678 48.0318C57.5124 47.7969 57.3683 47.6049 57.2128 47.4473L56.6505 46.7655ZM14.0412 23.6238C13.9649 23.7699 13.9649 23.8816 14.0412 23.959C13.8858 24.0392 13.7332 24.1509 13.5891 24.3056C12.453 25.3026 11.4357 26.3654 10.5314 27.5171C10.6868 26.3654 10.6529 25.5719 10.4212 25.1135C10.0454 24.4174 9.48303 24.6523 8.72003 25.7953C8.57591 26.0302 8.38939 26.3654 8.15767 26.8238C8.23397 25.9844 8.15767 25.3685 7.93725 24.9903C7.86095 24.764 7.74791 24.6093 7.59531 24.5291C7.89203 24.0048 8.20288 23.4663 8.4996 22.9305C8.87545 23.3889 9.55933 23.5465 10.5314 23.3889C10.9073 23.4663 11.4018 23.4347 11.9981 23.2772C12.3852 23.6582 13.0578 23.7699 14.0412 23.6238ZM8.26788 60.9777C7.59531 61.2012 7.10925 61.5048 6.80122 61.8944C5.67368 58.2247 4.9559 55.5518 4.65918 53.8731C4.35963 52.2716 4.20703 50.6273 4.20703 48.9485C4.34833 50.8507 4.69026 52.5295 5.22153 53.9848C6.20496 56.8152 7.21946 59.1414 8.26788 60.9777ZM36.0862 38.0595C39.9267 39.8156 43.3149 37.7587 46.2511 31.8715C46.4856 34.848 48.2066 38.2514 51.4508 42.0673C51.6062 42.3022 51.7927 42.4913 52.016 42.6374C48.4044 40.4315 44.0327 39.3916 38.9122 39.5491C37.4766 39.6265 36.1512 39.8156 34.9474 40.1192C32.2345 40.5003 30.0472 41.3396 28.3912 42.6374C28.3149 42.1876 28.281 41.7292 28.281 41.2594C28.2047 39.8156 28.3912 37.5667 28.8434 34.5014C29.8268 35.653 31.1409 36.6041 32.8082 37.3662C33.9329 37.9019 35.0265 38.1368 36.0862 38.0595ZM21.0523 81.2546C19.9135 80.4153 18.8651 79.5444 17.8816 78.6248C19.4613 79.3095 20.8969 79.6217 22.177 79.5444C22.7846 79.6103 23.3809 79.5759 23.9885 79.4212C23.5335 79.7334 23.4572 80.146 23.7567 80.6846C23.005 80.7619 22.3975 80.8421 21.9566 80.9195C21.5695 80.9854 21.2727 81.1085 21.0523 81.2546ZM25.3449 79.0831H25.003C25.1584 79.0058 25.3449 78.9284 25.5653 78.8482C25.4099 78.9284 25.3449 79.0058 25.3449 79.0831ZM65.36 83.5493C66.4084 83.7069 67.9881 83.28 70.1075 82.286C70.2516 82.2172 70.4042 82.1399 70.5597 82.0596C63.4723 86.9527 55.4156 89.3906 46.3641 89.3906C43.7247 89.3906 41.2068 89.1672 38.7906 88.7088C38.7228 88.5512 38.525 88.3278 38.2283 88.0155V87.9038C39.353 87.9038 39.8052 87.6001 39.5847 86.9842C40.1923 86.9069 40.5229 86.7149 40.5992 86.4141C42.0348 86.9527 43.6597 87.2191 45.457 87.2191H46.3641C51.0325 87.2191 55.4805 85.7638 59.7081 82.8675C61.1324 81.8706 62.2684 80.9195 63.0964 80.0027V80.1145C63.0201 80.4153 63.054 80.6846 63.2066 80.9195C62.6782 82.1399 62.8336 82.9334 63.6616 83.3259C64.0346 83.5493 64.5998 83.6267 65.36 83.5493ZM68.2961 68.197C68.7483 68.2743 69.2343 68.2743 69.7656 68.197C73.606 67.8159 77.6019 65.5213 81.7419 61.3129C85.8931 57.116 88.1115 52.2258 88.4082 46.6538C88.6399 41.841 87.5802 38.2829 85.2516 35.9882C84.6441 35.3064 83.8613 35.0371 82.8779 35.1947H82.3155C80.5832 34.5787 77.9014 36.0341 74.2786 39.5491L73.1539 40.6893C73.0097 40.8469 72.8572 41.0016 72.7017 41.1477C69.7656 44.3591 67.4257 47.6393 65.6906 51.0083C63.9696 54.3629 62.9862 56.4685 62.7545 57.3079C62.4578 58.0671 62.2684 58.7632 62.1921 59.3677C61.6637 61.4361 61.7061 63.2724 62.3023 64.871C63.2066 67.2344 65.2074 68.3517 68.2961 68.197ZM61.1776 25.337C56.8822 25.4143 54.5423 27.4741 54.1665 31.5249C54.0139 32.9 54.7741 34.5014 56.4301 36.3377C58.3828 38.3946 60.57 39.0106 62.9749 38.1712C65.5493 37.2545 67.3155 35.653 68.2961 33.3583C69.1241 31.3788 69.158 29.6112 68.4063 28.09C67.502 26.2537 65.0943 25.337 61.1776 25.337Z" fill="#538E76"/>
<path fill-rule="evenodd" clip-rule="evenodd" d="M10.082 42.983C9.78247 40.9232 9.9379 38.7088 10.5341 36.3367C11.218 33.5923 12.2664 31.332 13.702 29.5758C14.9059 28.1205 15.9967 27.4043 16.9801 27.4043C17.7318 27.4043 17.9635 28.4357 17.6527 30.4926C17.2005 34.0077 16.9801 35.844 16.9801 35.9987C16.9801 42.9487 15.6999 46.4953 13.1397 46.6528C11.4837 46.7302 10.4663 45.5012 10.082 42.983Z" fill="url(#paint5_radial_394_11159)"/>
<path fill-rule="evenodd" clip-rule="evenodd" d="M27.0368 21.6668C27.6444 17.7076 29.4106 14.4962 32.358 12.044C35.4044 9.4714 38.9029 8.09341 42.8648 7.92731H43.317H43.772C47.6124 7.92731 49.8307 8.7982 50.4383 10.5571C50.67 11.0929 50.7802 11.7432 50.7802 12.5023V13.4219C50.5485 16.7107 49.079 21.5894 46.3662 28.0925C44.2552 33.2061 41.9266 36.3402 39.355 37.4804C38.3829 37.9387 37.4023 38.1393 36.4189 38.0619C35.5909 37.9846 34.729 37.7497 33.8247 37.3686C29.7526 35.4664 27.4551 32.636 26.9266 28.886C26.8475 28.124 26.8164 27.3963 26.8164 26.7145C27.1131 24.5774 27.1894 22.8986 27.0368 21.6668ZM38.6825 24.3081C39.8863 23.314 40.7906 21.79 41.3982 19.7216C42.0708 17.5845 42.3788 15.8713 42.3025 14.5736C42.2262 13.1956 41.661 12.5023 40.6013 12.5023C39.4002 12.5023 38.041 12.9607 36.5291 13.8803C34.9494 14.8744 33.8586 16.0289 33.2623 17.3266L33.0306 18.2319C32.4993 19.9221 32.3128 21.4118 32.4683 22.7096C32.6887 24.3081 33.4489 25.2277 34.729 25.4511C36.1533 25.6861 37.4786 25.305 38.6825 24.3081Z" fill="url(#paint6_radial_394_11159)"/>
<path fill-rule="evenodd" clip-rule="evenodd" d="M38.6812 24.3054C37.4774 25.3023 36.152 25.6833 34.7278 25.4484C33.4476 25.225 32.6875 24.3054 32.467 22.7068C32.3116 21.4091 32.4981 19.9194 33.0294 18.2292L33.2611 17.3239C33.8574 16.0262 34.9482 14.8717 36.5279 13.8776C38.0397 12.9694 39.399 12.4996 40.6 12.4996C41.6598 12.4996 42.2249 13.1929 42.3012 14.5709C42.3662 15.8686 42.0695 17.5817 41.397 19.7189C40.7894 21.7872 39.8851 23.3113 38.6812 24.3054Z" fill="url(#paint7_radial_394_11159)"/>
<path fill-rule="evenodd" clip-rule="evenodd" d="M56.6521 46.7702L57.2145 47.452C57.3699 47.6096 57.5253 47.8015 57.6695 48.0364C61.5212 52.9925 62.725 57.96 61.2895 62.9304C60.3823 66.0645 58.5738 68.4681 55.8693 70.1468H55.7478C55.5274 70.2929 55.2957 70.4505 55.0753 70.6052C53.3401 71.4446 51.2998 72.0605 48.9684 72.4415C47.5357 72.665 46.1001 72.7452 44.6759 72.665C39.852 72.5189 35.4464 70.9088 31.4505 67.855C26.7058 64.1823 24.332 59.9539 24.332 55.1411C24.332 45.2834 28.9553 40.2012 38.2299 39.9004H39.1342C46.4873 39.7429 52.3256 42.0376 56.6521 46.7702ZM40.7139 50.6663C35.746 50.1277 32.92 50.9327 32.2362 53.0698C31.4082 55.5221 31.9366 57.8827 33.8243 60.1774C35.7007 62.4721 38.4164 63.9245 41.9602 64.529C45.6593 65.1449 48.5502 64.4516 50.6696 62.4721C52.8541 60.4782 52.9982 58.1949 51.1105 55.588C49.1578 52.9151 45.6904 51.2794 40.7139 50.6663Z" fill="url(#paint8_radial_394_11159)"/>
<path fill-rule="evenodd" clip-rule="evenodd" d="M68.8586 7.11659C68.9377 7.95589 68.5167 8.52599 67.6124 8.84119C67.0161 9.06459 66.222 9.14199 65.2386 9.06459C64.7214 9.06459 64.1902 9.03019 63.6617 8.95289C61.8503 8.71799 57.8205 7.80979 51.5611 6.19979C46.5168 4.97939 43.3151 4.17439 41.9586 3.79339C39.9946 3.11159 39.4746 2.46129 40.3676 1.84539C41.9586 0.705185 44.2533 0.0891895 47.2685 0.0118895C49.9051 -0.0683105 53.1069 0.324187 56.871 1.15209C64.6423 2.91969 68.6269 4.85619 68.8586 7.00479V7.11659ZM53.9349 3.56999C57.9307 4.55539 60.4599 5.05959 61.5197 5.05959C62.1159 5.05959 62.8337 5.28309 63.6617 5.74149C63.9697 5.81879 63.8143 5.59539 63.2067 5.05959C62.5342 4.36349 60.9884 3.71608 58.5722 3.10008C56.1645 2.65318 54.7742 2.33809 54.387 2.19489C53.6382 1.95989 51.2644 1.69069 47.2685 1.38699C47.5003 1.84539 49.7186 2.57299 53.9349 3.56999Z" fill="url(#paint9_radial_394_11159)"/>
<path fill-rule="evenodd" clip-rule="evenodd" d="M61.2874 16.0565C60.6798 16.3602 59.8971 16.5493 58.9136 16.6295C58.2411 16.7068 57.6335 16.7068 57.1022 16.6295C54.7737 16.5493 53.2618 15.5552 52.5892 13.653C51.8262 11.4356 52.3999 10.2496 54.2763 10.0921H54.6182C57.4781 10.0921 59.7755 11.089 61.5191 13.0686C62.723 14.4465 62.6778 15.4435 61.3976 16.0565H61.2874ZM59.3658 13.8764C59.4421 13.2605 58.9475 12.6904 57.8991 12.1633C56.8394 11.7049 55.9323 11.5817 55.1834 11.8167C54.2763 12.1175 54.7284 12.6904 56.5399 13.5384C58.2722 14.3778 59.2104 14.4924 59.3658 13.8764Z" fill="url(#paint10_radial_394_11159)"/>
<path fill-rule="evenodd" clip-rule="evenodd" d="M53.9358 3.57141C49.7195 2.57451 47.5012 1.8468 47.2695 1.3884C51.2653 1.6921 53.6391 1.9614 54.388 2.1963C54.7751 2.3396 56.1655 2.65471 58.5732 3.11311C60.9893 3.71751 62.5351 4.365 63.2077 5.0611C63.8152 5.5968 63.9707 5.8203 63.6626 5.7429C62.8347 5.2846 62.1169 5.0611 61.5206 5.0611C60.4609 5.0611 57.9317 4.55691 53.9358 3.57141Z" fill="url(#paint11_radial_394_11159)"/>
<path fill-rule="evenodd" clip-rule="evenodd" d="M22.1784 79.5463C20.6665 79.4661 19.0105 78.896 17.1991 77.8217C13.435 75.762 10.6543 72.8972 8.84282 69.2274C7.86223 67.2364 7.33095 65.6006 7.25465 64.3028C7.17553 63.9218 7.17553 63.5752 7.25465 63.2744C7.40725 61.8191 8.42459 61.0141 10.3123 60.8679H11.3268C15.1673 61.0141 18.7901 62.4694 22.1784 65.2224C24.8941 67.5028 26.7055 69.766 27.6098 71.9804C28.2824 73.8827 28.2372 75.4955 27.4883 76.7933C27.4205 76.948 27.3442 77.0597 27.2679 77.1399C26.9683 77.5983 26.584 78.0108 26.129 78.3918C26.064 78.472 25.9538 78.5494 25.7984 78.6267C25.6458 78.7069 25.5667 78.7728 25.5667 78.8502C25.3462 78.9304 25.1597 79.0077 25.0043 79.0851C24.6285 79.2312 24.2865 79.3544 23.9898 79.4231C23.3822 79.5778 22.786 79.6122 22.1784 79.5463ZM14.3732 69.2274C11.7366 68.007 10.951 68.4997 11.9994 70.7171C12.607 71.7914 13.921 72.8972 15.9642 74.0402C17.9932 75.1145 19.197 75.338 19.5729 74.7335C19.96 74.1176 19.3525 73.0891 17.7728 71.6338C16.34 70.3361 15.2125 69.5282 14.3732 69.2274Z" fill="url(#paint12_radial_394_11159)"/>
<path fill-rule="evenodd" clip-rule="evenodd" d="M26.7042 86.0675C25.7971 85.5404 25.5654 85.1164 26.0175 84.8127C26.4697 84.5778 27.0773 84.6237 27.829 84.9245L30.0925 86.0675C31.0731 86.6032 31.5931 87.096 31.6694 87.5543C31.8248 88.3278 30.1688 87.8236 26.7042 86.0675Z" fill="url(#paint13_radial_394_11159)"/>
<path fill-rule="evenodd" clip-rule="evenodd" d="M26.7086 86.0658C30.1732 87.8219 31.8292 88.3261 31.6737 87.5526C31.5974 87.0942 31.0662 86.6015 30.0969 86.0658L27.8333 84.9227C27.0816 84.6219 26.474 84.5761 26.0219 84.811C25.5697 85.1147 25.8015 85.5387 26.7086 86.0658ZM38.7951 88.7071C39.3235 89.6238 38.6849 90.0392 36.8734 89.959C36.2772 89.959 35.5933 89.8931 34.8416 89.7356C30.8457 89.1998 27.3473 87.5984 24.3348 84.9227C21.6191 82.5507 21.167 81.2214 22.9756 80.9178C23.2638 80.8519 23.617 80.7946 24.0466 80.7402C24.1681 80.7172 24.3009 80.7058 24.445 80.6828C25.4256 80.7602 26.7086 80.8719 28.2855 81.0295C32.8776 83.625 36.2009 85.9197 38.2327 87.9021V88.0138C38.5294 88.3261 38.7272 88.5495 38.7951 88.7071Z" fill="url(#paint14_radial_394_11159)"/>
<path fill-rule="evenodd" clip-rule="evenodd" d="M14.3737 69.2265C15.213 69.5273 16.3406 70.3352 17.7733 71.6329C19.353 73.0882 19.9606 74.1167 19.5734 74.7326C19.1976 75.3371 17.9937 75.1136 15.9647 74.0393C13.9216 72.8963 12.6075 71.7905 11.9999 70.7162C10.9515 68.4988 11.7371 68.0061 14.3737 69.2265Z" fill="url(#paint15_radial_394_11159)"/>
<path fill-rule="evenodd" clip-rule="evenodd" d="M63.6619 73.3532C63.7382 73.422 63.8145 73.4993 63.8936 73.5795C64.1903 74.0379 64.4107 74.4963 64.5661 74.9546C64.6424 75.1895 64.7216 75.4474 64.7979 75.7596V76.3297C64.7216 77.4728 64.1903 78.6588 63.2069 79.8792L63.0967 80.0024C62.2687 80.9191 61.1327 81.8702 59.7084 82.8671C55.4808 85.7634 51.0328 87.2188 46.3644 87.2188H45.9094C41.7723 87.1414 38.6016 85.6861 36.4171 82.8671C34.3853 80.1914 34.1225 77.977 35.6343 76.218C36.6828 75.0005 39.9608 74.0379 45.4573 73.3532C51.9484 72.5138 55.4158 72.0125 55.868 71.8664L59.0245 71.6315H59.5869C61.3983 71.789 62.7547 72.3591 63.6619 73.3532ZM53.7146 82.2856C56.0545 80.7615 56.9164 79.4982 56.3088 78.5012C55.7125 77.6618 54.5426 77.4728 52.8103 77.9311C49.7951 78.8479 47.3902 79.6557 45.5788 80.3375C42.2555 81.5694 41.0206 82.4403 41.8486 82.9789C43.205 83.8956 44.7847 84.3884 46.5961 84.4657C49.001 84.6233 51.3747 83.8956 53.7146 82.2856Z" fill="url(#paint16_radial_394_11159)"/>
<path fill-rule="evenodd" clip-rule="evenodd" d="M53.7128 82.2832C51.3729 83.8932 48.9991 84.6209 46.5943 84.4633C44.7828 84.386 43.2032 83.8932 41.8467 82.9765C41.0187 82.4379 42.2536 81.5556 45.5769 80.3352C47.3883 79.6534 49.7932 78.8455 52.8085 77.9288C54.5408 77.4704 55.7107 77.6595 56.307 78.4989C56.9145 79.4958 56.0526 80.7592 53.7128 82.2832Z" fill="url(#paint17_radial_394_11159)"/>
<path fill-rule="evenodd" clip-rule="evenodd" d="M40.7162 50.6619C45.6926 51.2749 49.1601 52.9107 51.1128 55.5836C53.0005 58.1905 52.8564 60.4738 50.6719 62.4676C48.5525 64.4472 45.6616 65.1405 41.9624 64.5246C38.4187 63.9201 35.703 62.4676 33.8266 60.173C31.9389 57.8783 31.4104 55.5177 32.2384 53.0654C32.9223 50.9283 35.7482 50.1233 40.7162 50.6619Z" fill="url(#paint18_radial_394_11159)"/>
<path fill-rule="evenodd" clip-rule="evenodd" d="M82.8797 35.1975C83.8631 35.0399 84.6459 35.3092 85.2535 36.0025C87.582 38.2857 88.6417 41.8438 88.41 46.6566C88.1133 52.2286 85.8949 57.1188 81.7437 61.3272C77.6037 65.5241 73.6078 67.8188 69.7674 68.1998C69.2361 68.2771 68.7501 68.2771 68.2979 68.1998C65.7376 68.1196 64.0364 67.0138 63.2084 64.8738C62.4596 62.9716 62.5359 60.7456 63.443 58.2275C63.816 57.3108 64.9096 55.1393 66.721 51.7044C68.8292 47.6536 71.8755 43.7145 75.8714 39.8986C78.7312 37.0653 81.0711 35.5012 82.8797 35.1975ZM73.8395 56.5058C72.1836 59.2588 71.7653 60.9806 72.5933 61.6624C73.2659 62.1236 74.3256 62.009 75.7612 61.3157C78.0897 60.2529 80.3194 57.9267 82.4275 54.3343C83.0238 53.4147 83.4759 51.7703 83.7868 49.4097C84.1626 47.0377 84.1626 45.4706 83.7868 44.7086C83.3346 44.0153 82.0093 45.0466 79.822 47.7997C77.8693 50.2491 75.8714 53.1482 73.8395 56.5058Z" fill="url(#paint19_radial_394_11159)"/>
<path fill-rule="evenodd" clip-rule="evenodd" d="M73.8389 56.504C75.8707 53.1465 77.8686 50.2473 79.8214 47.7979C82.0086 45.0449 83.334 44.0135 83.7861 44.7068C84.162 45.4689 84.162 47.0359 83.7861 49.4079C83.4753 51.7685 83.0231 53.4129 82.4269 54.3325C80.3074 57.9249 78.0891 60.2511 75.7605 61.314C74.3249 62.0072 73.2652 62.1218 72.5926 61.6606C71.7646 60.9788 72.1829 59.257 73.8389 56.504Z" fill="url(#paint20_radial_394_11159)"/>
<path fill-rule="evenodd" clip-rule="evenodd" d="M83.2225 65.3369C84.3472 65.1793 84.7994 65.6377 84.5789 66.712C84.5026 66.9354 84.4235 67.2047 84.3472 67.5055C83.2875 70.3388 81.3659 73.2036 78.5852 76.0999C75.9457 78.7756 73.2639 80.7666 70.5595 82.0643C70.4041 82.1446 70.2515 82.2219 70.1074 82.2907C67.9879 83.2847 66.4082 83.7116 65.3598 83.554C65.0518 83.4767 64.7862 83.3965 64.5657 83.3306C63.5823 82.792 63.5823 81.7177 64.5657 80.1192C65.162 79.1222 66.1454 77.2085 67.5019 74.3896C68.8583 71.9373 70.1837 70.6396 71.4525 70.4935L75.7592 69.2301L80.8374 66.2536C81.818 65.7953 82.6149 65.4916 83.2225 65.3369ZM71.574 79.0878C71.7973 79.9272 72.2494 80.1507 72.9333 79.7725C74.7447 78.4748 76.3979 76.9507 77.9013 75.1946C79.3368 73.5044 79.9755 72.3298 79.8201 71.6365C79.7551 71.098 78.8819 71.5563 77.2259 73.0116C74.7447 75.229 73.3092 76.4494 72.9333 76.6843C71.8736 77.3661 71.4214 78.1711 71.574 79.0878Z" fill="url(#paint21_radial_394_11159)"/>
<path fill-rule="evenodd" clip-rule="evenodd" d="M71.5758 79.0828C71.4232 78.1661 71.8752 77.3611 72.935 76.6792C73.3108 76.4443 74.7465 75.2239 77.2276 73.0066C78.8836 71.5513 79.7568 71.0929 79.8218 71.6315C79.9773 72.3248 79.3386 73.4993 77.903 75.1896C76.3996 76.9457 74.7464 78.4697 72.935 79.7675C72.2511 80.1456 71.799 79.9222 71.5758 79.0828Z" fill="url(#paint22_radial_394_11159)"/>
<path fill-rule="evenodd" clip-rule="evenodd" d="M59.3668 13.8757C59.2114 14.4916 58.2732 14.377 56.5409 13.5377C54.7295 12.6897 54.2774 12.1167 55.1845 11.8159C55.9334 11.581 56.8405 11.7042 57.9002 12.1626C58.9486 12.6897 59.4431 13.2598 59.3668 13.8757Z" fill="url(#paint23_radial_394_11159)"/>
<path fill-rule="evenodd" clip-rule="evenodd" d="M77.6859 17.5521C76.6262 15.0225 76.2927 13.5787 76.6686 13.1977C80.5118 17.7097 82.8065 20.8294 83.5695 22.5884C84.0103 23.8174 83.9425 24.4219 83.3377 24.4219C82.7302 24.4219 81.8683 23.8976 80.7435 22.8233C79.6838 21.9037 78.6665 20.1476 77.6859 17.5521Z" fill="url(#paint24_radial_394_11159)"/>
<path fill-rule="evenodd" clip-rule="evenodd" d="M87.174 29.1222C87.174 29.3571 87.1401 29.5805 87.0638 29.804C86.6879 31.3366 85.4078 32.2219 83.2233 32.4453H82.0845C80.3522 32.2104 78.4306 30.9585 76.3224 28.6638C74.138 26.3032 72.2164 23.3153 70.5604 19.7228C69.2039 16.8237 68.9722 14.0362 69.8765 11.3634C70.4049 9.68461 71.0464 8.68771 71.7981 8.38691C72.1062 8.30671 72.4029 8.30671 72.7024 8.38691C74.6664 8.99131 76.8085 10.6013 79.1484 13.1968C81.4882 15.7952 83.5201 18.8491 85.2523 22.3641C86.6879 25.2604 87.3294 27.5208 87.174 29.1222ZM77.6817 17.5513C78.6623 20.1468 79.6796 21.9029 80.7393 22.8225C81.8641 23.8853 82.726 24.4211 83.3335 24.4211C83.9298 24.4211 84.0061 23.8166 83.5653 22.5876C82.8023 20.8286 80.5076 17.6974 76.6644 13.1882C76.2772 13.5779 76.622 15.0332 77.6817 17.5513Z" fill="url(#paint25_radial_394_11159)"/>
<path fill-rule="evenodd" clip-rule="evenodd" d="M61.1787 25.3393C65.0954 25.3393 67.5031 26.2561 68.4074 28.0924C69.1591 29.6136 69.1252 31.3812 68.2972 33.3607C67.3166 35.6554 65.5504 37.2568 62.976 38.1736C60.5711 39.013 58.3839 38.4085 56.4311 36.3401C54.7751 34.5038 54.015 32.9024 54.1676 31.5273C54.5434 27.4765 56.8833 25.4167 61.1787 25.3393Z" fill="url(#paint26_radial_394_11159)"/>
<mask id="mask1_394_11159" style="mask-type:luminance" maskUnits="userSpaceOnUse" x="0" y="0" width="90" height="90">
<path d="M13.0278 12.7394C14.7601 10.9833 17.993 8.8004 22.7405 6.2049C27.9402 3.4518 31.7496 1.9965 34.1544 1.8504C34.5416 1.6957 34.8383 1.6957 35.0615 1.8504H35.183C35.7765 1.7731 36.2739 1.8504 36.6497 2.0853L40.038 1.5038C41.694 0.521099 44.0677 0.0168991 47.1593 0.0168991C51.531 -0.129201 56.1994 0.6329 61.1787 2.3116C66.1467 3.9102 68.707 5.4887 68.8596 7.0099V7.2333L70.8914 8.4996C71.191 8.342 71.499 8.3076 71.7985 8.3878L71.9087 8.4996C72.2818 8.342 72.5474 8.3076 72.7028 8.3878C74.6555 8.9923 76.8089 10.5909 79.1488 13.1978C81.4886 15.7962 83.5205 18.85 85.2527 22.3651C86.7561 25.419 87.3948 27.7795 87.1744 29.4698C89.0621 34.5834 90.0003 39.8202 90.0003 45.1716C90.0003 52.7347 88.2228 59.7964 84.6904 66.3653L84.3485 67.5055C83.2887 70.3388 81.3671 73.2035 78.5864 76.0998C75.7944 78.9331 72.9685 80.99 70.1086 82.2906L69.4248 82.6373C62.1932 87.1464 54.5095 89.3953 46.3652 89.3953C44.178 89.3953 41.5838 89.126 38.5713 88.6017C39.0235 89.5844 38.1503 90.0112 35.9658 89.8537C34.3861 90.0112 32.4673 89.6646 30.2038 88.8252C27.5644 87.9085 25.3008 86.6079 23.4244 84.9291C21.1636 83.0154 20.4119 81.7635 21.1636 81.1476L17.993 78.6294C16.0402 77.8703 14.1073 76.6384 12.2309 74.9596C10.3432 73.2035 8.87654 71.2899 7.82812 69.2301C6.92383 67.2391 6.39255 65.5259 6.23713 64.0706C5.9404 64.2282 5.29892 63.4232 4.31833 61.6642C3.25861 59.6846 2.28649 57.3899 1.38219 54.7944C0.178351 51.2794 -0.242716 46.8504 0.133132 41.499C0.50898 36.5315 1.34828 32.7929 2.61712 30.2748C3.83226 27.9027 4.61505 26.4159 5.0022 25.8C5.8302 24.6569 6.42646 24.3447 6.80231 24.8833C7.18664 24.5022 7.48618 24.4679 7.70661 24.7687L8.72112 22.9352C7.97225 22.0958 8.12485 20.5288 9.17326 18.2341C10.1567 16.1743 11.4368 14.3409 13.0278 12.7394Z" fill="white"/>
</mask>
<g mask="url(#mask1_394_11159)">
<mask id="mask2_394_11159" style="mask-type:luminance" maskUnits="userSpaceOnUse" x="-21" y="-23" width="133" height="134">
<mask id="mask3_394_11159" style="mask-type:luminance" maskUnits="userSpaceOnUse" x="-21" y="-23" width="133" height="134">
<path d="M4.48875 110.992L111.136 84.3652L85.9404 -22.664L-20.707 3.96298L4.48875 110.992Z" fill="white"/>
</mask>
<g mask="url(#mask3_394_11159)">
<path d="M4.48875 110.992L111.136 84.3652L85.9404 -22.664L-20.707 3.96298L4.48875 110.992Z" fill="url(#paint27_radial_394_11159)"/>
</g>
</mask>
<g mask="url(#mask2_394_11159)">
<path fill-rule="evenodd" clip-rule="evenodd" d="M29.7116 -49.0969C31.385 -48.0749 33.6649 -45.9569 36.543 -42.7299C39.6261 -39.1779 41.4523 -36.4679 42.0101 -34.6079C42.2009 -34.3339 42.2558 -34.1009 42.178 -33.8969L42.2005 -33.8009C42.3699 -33.3499 42.4024 -32.9449 42.2911 -32.6049L43.3663 -30.0579C44.4297 -28.9469 45.2575 -27.1809 45.8299 -24.7549C46.7518 -21.3529 47.0291 -17.5429 46.6578 -13.3129C46.3463 -9.10814 45.6045 -6.79613 44.461 -6.38443L44.2889 -6.34153L43.6897 -4.50414C43.8665 -4.29934 43.9501 -4.06423 43.9437 -3.81373L43.8781 -3.70584C44.0685 -3.44334 44.1442 -3.24154 44.1111 -3.10414C44.0071 -1.45584 43.1744 0.540663 41.5996 2.87706C40.0314 5.21186 38.0554 7.39227 35.6686 9.42617C33.5947 11.192 31.8947 12.1461 30.552 12.2975C26.9627 14.7601 23.1027 16.5013 18.9808 17.5282C13.1554 18.9795 7.38706 18.9397 1.6734 17.4283L0.731867 17.3788C-1.64664 17.0909 -4.20899 16.1327 -6.95465 14.5064C-9.65385 12.8591 -11.7613 11.0363 -13.2925 9.04167L-13.6861 8.57147C-18.4981 3.76207 -21.6528 -1.83593 -23.1605 -8.22693C-23.5655 -9.94333 -23.8383 -12.0309 -23.9922 -14.4949C-24.6654 -13.9519 -25.1558 -14.5549 -25.4388 -16.2999C-25.8527 -17.5089 -25.9409 -19.0809 -25.7134 -21.0189C-25.4959 -23.2659 -24.9132 -25.2919 -23.9675 -27.0859C-22.9121 -29.2269 -22.0869 -30.0579 -21.4734 -29.5859L-20.1208 -32.5569C-19.8975 -34.2349 -19.3065 -35.9879 -18.3609 -37.7829C-17.3577 -39.6009 -16.1552 -41.1189 -14.7628 -42.3369C-13.3966 -43.4289 -12.1754 -44.1749 -11.0832 -44.5759C-11.2595 -44.7789 -10.7583 -45.4359 -9.58499 -46.5439C-8.25643 -47.7549 -6.66892 -48.9579 -4.83716 -50.1659C-2.35254 -51.7849 0.980901 -52.9649 5.17239 -53.6969C9.0682 -54.3559 12.1032 -54.4139 14.2777 -53.9019C16.3297 -53.4039 17.6199 -53.0749 18.166 -52.8889C19.1997 -52.4589 19.5506 -52.0509 19.2053 -51.6519C19.57 -51.4239 19.6519 -51.1949 19.461 -50.9649L21.061 -50.5199C21.5689 -51.2689 22.8042 -51.4499 24.7658 -51.0679C26.5344 -50.6909 28.1836 -50.0389 29.7116 -49.0969Z" fill="url(#paint28_radial_394_11159)"/>
</g>
</g>
</g>
</g>
<defs>
<radialGradient id="paint0_radial_394_11159" cx="0" cy="0" r="1" gradientUnits="userSpaceOnUse" gradientTransform="translate(21.841 8.49499) rotate(-90) scale(7.9068 7.79955)">
<stop stop-color="#76B164"/>
<stop offset="1" stop-color="#598D47"/>
</radialGradient>
<radialGradient id="paint1_radial_394_11159" cx="0" cy="0" r="1" gradientUnits="userSpaceOnUse" gradientTransform="translate(23.2244 12.6205) rotate(-90) scale(12.562 12.3916)">
<stop stop-color="#A9F297"/>
<stop offset="1" stop-color="#8ECD80"/>
</radialGradient>
<radialGradient id="paint2_radial_394_11159" cx="0" cy="0" r="1" gradientUnits="userSpaceOnUse" gradientTransform="translate(27.1549 47.8012) rotate(-20.0666) scale(56.4415 58.2626)">
<stop stop-color="#43613D"/>
<stop offset="1" stop-color="#BCFBB0"/>
</radialGradient>
<radialGradient id="paint3_radial_394_11159" cx="0" cy="0" r="1" gradientUnits="userSpaceOnUse" gradientTransform="translate(16.3001 38.9755) rotate(-90) scale(15.7563 15.5426)">
<stop stop-color="#A9F297"/>
<stop offset="1" stop-color="#8ECD80"/>
</radialGradient>
<radialGradient id="paint4_radial_394_11159" cx="0" cy="0" r="1" gradientUnits="userSpaceOnUse" gradientTransform="translate(4.54646 44.3633) rotate(-90) scale(14.2093 14.0166)">
<stop stop-color="#A9F297"/>
<stop offset="1" stop-color="#8ECD80"/>
</radialGradient>
<radialGradient id="paint5_radial_394_11159" cx="0" cy="0" r="1" gradientUnits="userSpaceOnUse" gradientTransform="translate(13.9283 34.389) rotate(-90) scale(8.33652 8.22344)">
<stop stop-color="#76B164"/>
<stop offset="1" stop-color="#598D47"/>
</radialGradient>
<radialGradient id="paint6_radial_394_11159" cx="0" cy="0" r="1" gradientUnits="userSpaceOnUse" gradientTransform="translate(38.6825 22.9333) rotate(-90) scale(13.7053 13.5194)">
<stop stop-color="#A9F297"/>
<stop offset="1" stop-color="#8ECD80"/>
</radialGradient>
<radialGradient id="paint7_radial_394_11159" cx="0" cy="0" r="1" gradientUnits="userSpaceOnUse" gradientTransform="translate(37.3248 17.201) rotate(-90) scale(7.16196 7.06481)">
<stop stop-color="#76B164"/>
<stop offset="1" stop-color="#598D47"/>
</radialGradient>
<radialGradient id="paint8_radial_394_11159" cx="0" cy="0" r="1" gradientUnits="userSpaceOnUse" gradientTransform="translate(43.0973 56.293) rotate(-90) scale(17.7048 17.4647)">
<stop stop-color="#A9F297"/>
<stop offset="1" stop-color="#8ECD80"/>
</radialGradient>
<radialGradient id="paint9_radial_394_11159" cx="0" cy="0" r="1" gradientUnits="userSpaceOnUse" gradientTransform="translate(54.4085 4.59589) rotate(-90) scale(10.8454 10.6983)">
<stop stop-color="#A9F297"/>
<stop offset="1" stop-color="#8ECD80"/>
</radialGradient>
<radialGradient id="paint10_radial_394_11159" cx="0" cy="0" r="1" gradientUnits="userSpaceOnUse" gradientTransform="translate(57.3243 13.4184) rotate(-90) scale(4.21375 4.15659)">
<stop stop-color="#A9F297"/>
<stop offset="1" stop-color="#8ECD80"/>
</radialGradient>
<radialGradient id="paint11_radial_394_11159" cx="0" cy="0" r="1" gradientUnits="userSpaceOnUse" gradientTransform="translate(55.6348 2.9931) rotate(-90) scale(8.99542 8.8734)">
<stop stop-color="#76B164"/>
<stop offset="1" stop-color="#598D47"/>
</radialGradient>
<radialGradient id="paint12_radial_394_11159" cx="0" cy="0" r="1" gradientUnits="userSpaceOnUse" gradientTransform="translate(17.6424 70.1447) rotate(-90) scale(9.95569 9.82065)">
<stop stop-color="#A9F297"/>
<stop offset="1" stop-color="#8ECD80"/>
</radialGradient>
<radialGradient id="paint13_radial_394_11159" cx="0" cy="0" r="1" gradientUnits="userSpaceOnUse" gradientTransform="translate(28.7372 85.842) rotate(-90) scale(3.31879 3.27378)">
<stop stop-color="#76B164"/>
<stop offset="1" stop-color="#598D47"/>
</radialGradient>
<radialGradient id="paint14_radial_394_11159" cx="0" cy="0" r="1" gradientUnits="userSpaceOnUse" gradientTransform="translate(30.3201 85.3814) rotate(-90) scale(6.84683 6.75396)">
<stop stop-color="#A9F297"/>
<stop offset="1" stop-color="#8ECD80"/>
</radialGradient>
<radialGradient id="paint15_radial_394_11159" cx="0" cy="0" r="1" gradientUnits="userSpaceOnUse" gradientTransform="translate(15.6213 70.9462) rotate(-90) scale(4.89969 4.83323)">
<stop stop-color="#76B164"/>
<stop offset="1" stop-color="#598D47"/>
</radialGradient>
<radialGradient id="paint16_radial_394_11159" cx="0" cy="0" r="1" gradientUnits="userSpaceOnUse" gradientTransform="translate(49.7312 79.3096) rotate(-90) scale(12.0504 11.887)">
<stop stop-color="#A9F297"/>
<stop offset="1" stop-color="#8ECD80"/>
</radialGradient>
<radialGradient id="paint17_radial_394_11159" cx="0" cy="0" r="1" gradientUnits="userSpaceOnUse" gradientTransform="translate(49.0783 80.2238) rotate(-90) scale(8.27922 8.16692)">
<stop stop-color="#76B164"/>
<stop offset="1" stop-color="#598D47"/>
</radialGradient>
<radialGradient id="paint18_radial_394_11159" cx="0" cy="0" r="1" gradientUnits="userSpaceOnUse" gradientTransform="translate(42.0755 55.7042) rotate(-90) scale(12.0607 11.8971)">
<stop stop-color="#76B164"/>
<stop offset="1" stop-color="#598D47"/>
</radialGradient>
<radialGradient id="paint19_radial_394_11159" cx="0" cy="0" r="1" gradientUnits="userSpaceOnUse" gradientTransform="translate(75.5351 51.7053) rotate(-90) scale(14.8446 14.6433)">
<stop stop-color="#A9F297"/>
<stop offset="1" stop-color="#8ECD80"/>
</radialGradient>
<radialGradient id="paint20_radial_394_11159" cx="0" cy="0" r="1" gradientUnits="userSpaceOnUse" gradientTransform="translate(78.1235 50.7776) rotate(-90) scale(9.05913 8.93625)">
<stop stop-color="#76B164"/>
<stop offset="1" stop-color="#598D47"/>
</radialGradient>
<radialGradient id="paint21_radial_394_11159" cx="0" cy="0" r="1" gradientUnits="userSpaceOnUse" gradientTransform="translate(74.2841 74.5016) rotate(-90) scale(9.86196 9.72818)">
<stop stop-color="#A9F297"/>
<stop offset="1" stop-color="#8ECD80"/>
</radialGradient>
<radialGradient id="paint22_radial_394_11159" cx="0" cy="0" r="1" gradientUnits="userSpaceOnUse" gradientTransform="translate(75.7582 74.4966) rotate(-90) scale(5.41444 5.34099)">
<stop stop-color="#76B164"/>
<stop offset="1" stop-color="#598D47"/>
</radialGradient>
<radialGradient id="paint23_radial_394_11159" cx="0" cy="0" r="1" gradientUnits="userSpaceOnUse" gradientTransform="translate(57.1061 12.6155) rotate(-90) scale(2.52101 2.48681)">
<stop stop-color="#76B164"/>
<stop offset="1" stop-color="#598D47"/>
</radialGradient>
<radialGradient id="paint24_radial_394_11159" cx="0" cy="0" r="1" gradientUnits="userSpaceOnUse" gradientTransform="translate(80.1699 17.2058) rotate(-90) scale(5.75821 5.6801)">
<stop stop-color="#76B164"/>
<stop offset="1" stop-color="#598D47"/>
</radialGradient>
<radialGradient id="paint25_radial_394_11159" cx="0" cy="0" r="1" gradientUnits="userSpaceOnUse" gradientTransform="translate(78.3599 20.4135) rotate(-90) scale(10.657 10.5124)">
<stop stop-color="#A9F297"/>
<stop offset="1" stop-color="#8ECD80"/>
</radialGradient>
<radialGradient id="paint26_radial_394_11159" cx="0" cy="0" r="1" gradientUnits="userSpaceOnUse" gradientTransform="translate(61.515 30.1525) rotate(-90) scale(9.25325 9.12773)">
<stop stop-color="#76B164"/>
<stop offset="1" stop-color="#598D47"/>
</radialGradient>
<radialGradient id="paint27_radial_394_11159" cx="0" cy="0" r="1" gradientUnits="userSpaceOnUse" gradientTransform="translate(25.1212 50.0806) rotate(-14.0186) scale(57.2261 57.2384)">
<stop stop-color="white" stop-opacity="0.1294"/>
<stop offset="1" stop-color="white" stop-opacity="0.5686"/>
</radialGradient>
<radialGradient id="paint28_radial_394_11159" cx="0" cy="0" r="1" gradientUnits="userSpaceOnUse" gradientTransform="translate(24.9342 49.695) rotate(-13.9895) scale(57.183 57.2891)">
<stop stop-color="#CBFB9E"/>
<stop offset="1" stop-color="#405132"/>
</radialGradient>
<clipPath id="clip0_394_11159">
<rect width="90" height="90" fill="white" transform="matrix(0 -1 1 0 0 90)"/>
</clipPath>
</defs>
</svg>
