<svg width="90" height="90" viewBox="0 0 90 90" fill="none" xmlns="http://www.w3.org/2000/svg">
<g clip-path="url(#clip0_394_11387)">
<mask id="mask0_394_11387" style="mask-type:luminance" maskUnits="userSpaceOnUse" x="0" y="0" width="90" height="90">
<path d="M45 0C20.1472 0 0 20.1472 0 45C0 69.8528 20.1472 90 45 90C69.8528 90 90 69.8528 90 45C90 20.1472 69.8528 0 45 0Z" fill="white"/>
</mask>
<g mask="url(#mask0_394_11387)">
<path d="M90 45C90 20.1472 69.8528 0 45 0C20.1472 0 0 20.1472 0 45C0 69.8528 20.1472 90 45 90C69.8528 90 90 69.8528 90 45Z" fill="#4F8205"/>
<mask id="mask1_394_11387" style="mask-type:luminance" maskUnits="userSpaceOnUse" x="9" y="15" width="78" height="60">
<path d="M9 15L9 75H87V15L9 15Z" fill="white"/>
</mask>
<g mask="url(#mask1_394_11387)">
<path d="M86.9984 52.5613C86.9984 54.1913 86.9984 55.8204 86.9984 57.4504C86.7973 57.744 86.6261 58.0541 86.4576 58.3669C85.5546 59.8972 84.0912 60.8897 82.8083 62.0568C82.1818 62.6267 81.4706 62.5764 80.7491 62.3989C78.945 61.9553 77.2684 62.1959 75.6607 63.1271C74.5716 63.7582 73.4396 64.3244 72.0897 64.1222C71.6084 64.05 71.0201 63.803 71.2882 63.3804C72.0227 62.2224 71.5014 60.9272 71.9035 59.7619C72.9881 57.4001 72.7972 54.8343 73.0756 52.3482C73.1268 51.8954 72.7414 51.3512 72.5282 50.8627C72.3774 49.8977 71.9128 49.0214 71.4921 48.1753C70.9317 47.0511 70.0994 46.1556 68.5289 46.313C67.4714 46.4191 66.3404 45.9462 65.7129 45.1906C64.4739 43.6987 62.8606 43.0072 61.7016 42.6294C62.8503 42.9917 64.4552 43.6695 65.6831 45.1513C66.359 45.9663 67.5254 46.4191 68.6397 46.3249C70.4113 46.1758 71.1095 47.353 71.6755 48.5677C72.099 49.4778 72.5403 50.4163 72.7395 51.4252C73.2348 53.3068 72.9192 55.192 72.6697 57.0516C72.5449 57.9764 72.3029 58.9249 71.8989 59.803C71.6904 60.4351 71.7378 61.0873 71.7406 61.734C71.7425 62.2288 71.7416 62.7273 71.3217 63.0795C69.1648 64.8915 67.4146 67.0639 64.7317 68.404C60.564 70.4858 56.3255 70.0468 52.0116 69.766C51.2976 69.7193 50.5827 69.7266 49.8696 69.6617C49.1397 69.5958 48.7078 69.3196 48.9954 68.5101C49.4516 66.431 49.0718 64.3518 48.9852 62.2755C50.793 61.6233 52.4538 61.2665 53.8837 63.1774C54.6033 64.1387 56.0593 64.3354 56.737 64.8842C55.2913 64.2311 53.6826 63.1609 52.3067 61.7788C51.9418 61.412 51.5685 61.3626 51.1347 61.6324C49.9329 62.3825 48.8502 62.0642 48.0831 61.0516C47.1662 59.8414 45.8536 59.4856 44.352 58.9853C46.5192 59.6603 48.4248 60.3418 48.8595 62.7182C49.4292 64.5 49.1239 66.323 49.1397 68.1296C48.8847 68.6409 48.8037 69.4925 48.0273 69.3196C45.6423 68.7909 43.3699 69.862 41.023 69.6708C40.3863 69.6187 39.608 69.8163 39.3623 68.9729C39.1267 68.1643 39.9404 68.0436 40.3714 67.6887C42.3868 66.0276 42.5991 62.0943 40.7745 60.1195C39.73 57.6791 40.5632 55.7893 43.004 55.1124C44.1072 54.806 45.1517 54.2992 46.3246 54.216C46.6923 54.1904 47.1466 54.1044 47.3254 53.7285C47.991 52.3281 49.4786 52.2457 50.6599 51.6905C51.9111 51.1014 52.4436 52.1707 53.0468 52.8705C53.7264 53.6599 53.2721 54.2407 52.5004 54.6825C52.3272 54.7813 52.1419 54.9039 52.1122 55.1371C53.8027 53.4842 53.8241 53.4028 51.9269 51.7417C51.3991 51.2798 51.0611 50.9231 51.8934 50.6002C54.5986 49.5519 56.9557 47.7939 59.7541 46.9276C60.5156 46.6917 61.13 46.5599 61.6588 47.2697C62.9369 48.6272 61.7034 49.5217 60.8861 50.2041C59.6442 51.2414 58.9023 52.4671 58.4946 53.9535C57.4082 55.9018 56.9883 58.0075 57.0116 60.2165C57.0181 60.8622 57.3514 61.3333 57.7908 61.7559C58.4471 62.6642 59.351 63.3329 60.0259 63.9091C59.917 62.6615 60.469 61.2574 60.294 59.8323C60.254 59.0319 60.3173 58.2462 60.6208 57.4943C61.2696 55.9558 61.9567 54.4236 61.9064 52.7077C61.8933 52.2412 61.9911 51.7591 61.6494 51.3237C61.0592 50.57 60.9745 49.8977 61.8328 49.1604C62.7079 48.4085 61.8896 47.728 61.4847 47.0703C60.1544 46.1666 58.9945 47.0996 57.9677 47.5981C56.0034 48.5522 54.0932 49.6224 52.0768 50.4758C51.3926 50.7657 51.157 51.4874 50.5045 51.8048C49.1388 52.4689 48.7692 52.2878 48.6864 50.7996C48.6743 50.5828 48.6836 50.366 48.6836 50.1474C48.6799 47.8817 48.7971 45.6169 48.4341 43.3585C48.2144 41.9919 47.4548 41.4138 46.1319 41.5748C45.3062 41.6754 44.5047 41.3946 43.678 41.5748C43.1837 41.6827 42.8663 41.3406 42.6987 40.8933C42.061 38.9523 41.3349 37.0626 41.2399 34.9542C41.1757 33.5464 41.6663 33.1705 42.9081 33.1641C44.4395 33.1568 45.9718 33.2135 47.5013 33.1147C48.1092 33.0992 48.4602 33.6352 48.9908 33.7888C50.0437 34.2663 51.1589 34.5727 52.2797 34.8737C54.0271 35.5423 55.6897 34.7099 55.9373 32.6793C56.1151 31.2213 57.4119 30.623 57.8438 29.4111C58.0533 28.822 58.7226 29.1394 59.0671 29.5263C59.9635 30.5362 61.0825 30.7474 62.3644 30.5673C63.4722 30.4118 64.4115 30.9569 65.3312 31.4198C67.207 32.3637 69.1489 33.0104 71.2612 33.2107C74.6907 33.5345 76.7853 35.6274 78.3837 38.4337C80.6579 42.4264 83.3315 46.1876 85.481 50.2572C85.9027 51.0575 86.7806 51.6054 86.9984 52.5613Z" fill="#4F8205"/>
<path d="M79.6476 39.571C80.3672 40.911 80.8773 42.3718 81.9935 43.4822C83.1385 44.6384 84.5833 45.5522 85.1167 47.2042C85.1949 47.3304 85.2685 47.4594 85.3522 47.5819C86.1324 48.3503 86.3893 49.3638 86.7011 50.3517C86.8073 50.5419 86.8352 50.7706 86.999 50.9325C86.999 51.4758 86.999 52.0192 86.999 52.5625C85.3569 51.2865 84.3869 49.5568 83.4159 47.7704C81.2078 43.71 78.6906 39.8252 76.0132 36.0439C75.1242 34.7889 73.78 34.2721 72.3519 34.0526C69.4931 33.6135 66.7692 32.8076 64.1747 31.5527C63.7381 31.3414 63.1675 31.0084 62.7914 31.1301C61.1641 31.6533 59.8338 31.4649 58.8089 30.016C58.6851 29.8413 58.3192 29.748 58.2522 29.9858C57.9785 30.9636 56.7655 31.3359 56.8158 32.5991C56.9294 35.4548 56.2982 35.9762 53.3332 35.9478C52.837 35.9432 52.3418 35.9057 51.8456 35.8829C51.7302 35.7713 51.6613 35.6377 51.638 35.4804C51.8233 34.4139 52.6881 34.5492 53.4421 34.5044C54.0482 34.4687 54.7994 34.5447 54.9158 33.7855C55.0498 32.9046 54.2185 32.7793 53.5967 32.6348C52.4163 32.3604 51.2163 32.1555 50.0843 31.7118C49.5919 31.5188 48.9756 31.4676 48.7866 30.8282C48.7205 29.9657 49.2744 29.6976 50.0061 29.6428C50.992 29.5687 51.9797 29.5138 52.9394 29.8504C53.4589 30.0324 53.9914 30.1678 54.549 30.1468C55.1141 30.1257 55.694 30.0498 55.9203 29.4534C56.1502 28.8488 55.7424 28.4198 55.3217 28.0603C54.3209 27.2051 53.0353 26.7733 52.016 25.9455C51.5365 25.5568 50.7862 25.2961 51.1176 24.4308C51.2135 24.2835 51.3476 24.1875 51.5179 24.1417C54.2967 25.3546 56.7581 27.0395 58.969 29.072C59.9586 29.9821 60.7834 31.0349 62.4386 30.4322C63.2345 30.1422 64.0072 30.8035 64.8022 30.9846C66.3549 31.0011 67.9133 31.0048 68.9587 32.4308C70.694 33.1699 72.5958 33.1964 74.3944 33.662C75.9928 33.0766 76.7003 34.1577 77.4161 35.2206C77.917 36.7903 79.3441 37.9025 79.6476 39.571Z" fill="#0F0F0F"/>
<path d="M49.2144 30.7185C51.1331 31.1429 53.0508 31.571 54.9713 31.9908C56.0046 32.2167 56.5343 32.8433 56.2643 33.8559C56.0046 34.8319 55.474 35.731 54.2265 35.5344C53.4064 35.4054 52.6244 35.1648 51.8368 35.5993C50.6341 35.6039 49.5645 35.1648 48.5209 34.6407C48.2258 34.4193 47.9316 34.1971 47.6365 33.9757C45.7728 32.7994 43.7211 33.4415 41.7466 33.4232C40.9926 33.4159 40.9767 34.4239 40.3633 34.7047C40.0495 34.8172 39.6483 34.7587 39.4081 34.9407C36.5567 37.1022 33.6625 36.2561 30.7515 35.1127C29.64 34.6764 28.5713 34.176 27.551 33.544C26.3436 32.7967 24.9779 33.007 23.6923 33.3016C22.8461 33.4955 22.3201 34.208 22.188 35.0496C21.9338 36.6649 21.5363 38.2346 20.7972 39.6981C20.3829 40.5177 20.8018 41.4242 20.4201 42.2263C19.7508 43.0807 19.2621 44.053 18.6384 44.9421C18.1254 45.6729 17.8461 46.4907 18.2651 47.3834C18.5983 48.2204 19.1317 48.9915 19.1438 49.9355C19.102 50.852 19.8216 51.6011 19.7378 52.5268C19.4464 53.4159 19.492 54.3361 19.506 55.249C19.5479 58.1449 20.1641 59.024 22.8712 60.0933C23.508 60.5671 24.2015 60.9531 24.8904 61.3446C25.7692 63.2362 27.8861 64.4399 27.9383 66.8291C27.9559 67.6258 28.7882 68.0283 29.5618 68.2488C31.1946 68.7143 32.8517 68.9357 34.5524 68.7034C35.6509 68.7107 36.7476 68.6814 37.8442 68.7226C38.8719 69.1488 40.0467 71.1621 39.7814 72.0896C39.6129 72.6787 39.1614 72.8461 38.5554 72.9284C37.8954 73.018 37.2354 73.2046 36.6209 73.5193C32.2624 75.7539 28.3925 74.7267 24.707 71.9021C23.4568 70.9444 22.4672 69.437 20.5719 69.5229C19.708 69.7287 18.8459 69.7123 17.9886 69.4827C15.3652 69.0574 13.2567 67.0487 13.2865 65.007C13.1329 64.0045 13.199 63.0166 13.5835 62.0553C13.455 62.316 13.7007 62.7422 13.145 62.7614C11.3772 57.5943 8.79759 52.6155 9.37569 46.9087C9.59352 44.7573 10.1577 42.7075 11.3483 40.8845C12.3146 39.4054 13.0407 37.8403 13.549 36.1646C13.6477 34.1111 13.6533 32.0548 13.7128 30.0022C13.8488 29.554 14.0433 29.1296 14.0322 28.6329C13.9977 27.1685 14.5525 25.9739 15.8223 25.1461C17.8089 23.8106 20.1744 23.8783 22.4021 23.4328C23.0174 23.0523 23.5592 22.5831 24.0768 22.0846C24.1969 21.9748 24.2918 21.8458 24.3579 21.6976C24.6447 20.8561 25.3568 20.5845 26.1425 20.4884C27.2149 20.3567 27.8312 19.7502 28.4586 18.9105C30.1762 16.6119 32.3154 15.2755 35.4908 15.2856C37.3312 15.2911 38.5321 16.2305 40.0281 16.7271C40.8725 17.3766 41.7168 18.0269 42.5612 18.6764C43.2584 19.5051 44.3029 19.9039 45.0756 20.6393C45.3232 20.847 45.5922 21.007 45.8994 21.1314C46.9067 21.5403 46.9449 22.1468 46.1368 22.7861C45.6956 23.1346 45.4107 23.5545 45.2003 24.0475C44.4872 24.6613 44.5533 25.3958 44.8624 26.1696C45.0653 26.9984 45.0197 27.9176 45.7691 28.5415C46.5958 29.2568 47.8088 28.9677 48.6699 29.6062C49.059 29.8778 48.9268 30.3956 49.2144 30.7185Z" fill="#7E7E7E"/>
<path d="M20.404 69.2433C22.5768 68.8866 23.7255 70.5778 25.0018 71.7029C27.4548 73.8653 30.3043 74.4845 33.4052 74.383C34.6341 74.3428 35.5268 73.289 36.6644 72.8856C36.8199 72.8308 36.9818 72.7933 37.1382 72.742C39.527 71.9691 39.689 71.2309 37.9239 69.1564C37.7945 69.0247 37.7005 68.8719 37.64 68.699C37.8485 66.2385 37.4799 63.7121 38.4378 61.3375C38.8083 60.4201 39.0625 59.305 40.4709 59.4111C40.6338 59.4971 40.7847 59.6014 40.9224 59.7221C41.7472 59.8017 41.9446 60.4411 42.1512 61.0622C42.747 62.8477 42.6381 64.6835 42.532 66.5156C42.4938 67.1761 42.1112 67.584 41.4856 67.8301C40.9438 68.0432 40.3648 68.238 40.0241 68.8628C40.9466 69.4784 41.8571 68.9808 42.7219 68.8664C44.2458 68.6643 45.7455 68.3551 47.2871 68.7649C47.8969 68.9268 48.4936 68.8179 48.9023 68.2517C49.2095 68.1456 49.3389 68.2142 49.1993 68.5454C49.3957 69.1363 49.9049 69.161 50.4094 69.1829C53.0523 69.2936 55.7017 69.5717 58.3362 69.471C61.9771 69.332 65.2818 68.2335 67.7544 65.3521C68.2347 64.7923 68.9506 64.4173 69.5874 63.9993C70.8087 63.1971 71.6363 62.2193 71.4436 60.6487C71.4082 60.3615 71.6438 60.0432 71.7545 59.7386C71.8188 59.6115 71.8821 59.5694 71.9454 59.6124C72.0087 59.6544 72.0403 59.6965 72.0403 59.7404C72.0254 60.71 72.1902 61.7244 71.9519 62.6373C71.6465 63.8072 72.3475 63.7615 72.9647 63.5758C74.1116 63.2319 75.2157 62.7361 76.316 62.2568C77.4508 61.7619 78.6694 61.386 79.8414 61.7171C82.3317 62.4214 83.5186 60.7246 84.8619 59.3069C85.3786 58.7626 85.6737 58.0116 86.4826 57.7656C85.9129 60.1081 83.5484 61.0549 82.3251 62.8934C82.2451 63.0132 81.9146 62.9721 81.7005 63.005C79.5193 63.5721 77.3186 63.9545 75.0491 63.6846C72.517 64.2755 70.0966 64.8262 67.9843 66.7013C66.0294 68.4365 63.2161 69.0283 60.8032 70.1717C59.5623 71.0224 58.1715 70.7297 56.8133 70.6766C55.159 70.2092 53.4657 70.598 51.79 70.4836C50.2195 70.3766 48.8604 71.0352 47.6958 72.1813C47.0982 72.7695 46.2315 73.7967 45.3089 72.4027C45.1004 71.9691 44.7997 71.5474 45.2931 71.0882C45.523 70.8733 45.8489 70.5495 45.5193 70.2714C44.9747 69.8104 44.2607 70.029 43.6156 70.0263C43.0542 70.0235 42.9714 70.329 43.2144 70.7699C43.3466 70.93 43.4946 71.0709 43.6686 71.1843C44.2104 71.5108 45.011 71.456 45.2568 72.2179C45.3815 72.7027 45.0269 72.86 44.6899 73.0302C44.1192 73.3055 44.1248 73.9266 43.8539 74.383C43.6938 74.5467 43.5104 74.6684 43.2786 74.7086C42.9611 74.7361 42.5702 74.8221 42.3477 74.6373C40.7726 73.3338 39.0476 73.7994 37.3281 74.169C36.3749 74.1552 35.6087 75.0526 34.5884 74.7297C32.4576 75.2867 30.3686 74.8742 28.2805 74.4653C26.132 73.5195 24.3176 72.0962 22.5526 70.6007C22.0964 70.2138 21.604 69.8882 20.9923 69.7857C20.8481 69.5506 20.1582 69.8891 20.404 69.2433Z" fill="#0D0D0D"/>
<path d="M40.9232 59.7266C40.7808 59.7238 40.6393 59.7211 40.4968 59.7183C39.6488 57.8752 39.1274 55.9305 38.6787 53.9658C38.649 53.8368 38.851 53.7032 38.9757 53.5944C39.3183 53.3767 39.6534 53.4416 39.9839 53.62C41.3579 54.4377 42.7506 54.896 44.2103 53.7993C45.8329 53.7005 46.8513 52.8343 47.3922 51.3662C47.5523 50.6271 48.1937 50.3957 48.7718 50.0975C48.9412 50.1066 49.0883 50.1697 49.2112 50.2841C49.3136 50.7213 48.9654 51.3534 49.6199 51.5464C50.0574 51.6753 50.4409 51.314 50.79 51.057C53.3603 49.1626 56.3793 48.1098 59.2279 46.746C60.0564 46.349 61.0329 46.1377 61.8131 47.0021C61.921 47.3552 61.7777 47.4595 61.437 47.3689C60.8598 47.0533 60.2817 47.1128 59.684 47.3287C56.9927 48.3028 54.577 49.8075 51.9714 51.0131C53.9905 53.4983 54.0036 55.3195 52.1017 56.8096C51.7219 57.1078 51.3486 57.5404 50.8021 57.159C50.2855 56.7977 50.2017 56.2562 50.3935 55.7019C50.6495 54.9619 51.1037 54.3627 51.8494 54.0161C52.2404 53.834 53.0419 53.9603 52.7161 53.1828C52.4461 52.5388 52.0039 51.8802 51.1186 52.0495C50.1374 52.237 49.0641 52.5059 48.4655 53.2706C47.3438 54.7012 45.7724 55.2152 44.1591 55.4156C42.1045 55.6708 41.033 56.5214 41.1103 58.6134C41.1233 58.9811 40.9893 59.3552 40.9232 59.7266Z" fill="#121212"/>
<path d="M61.4359 47.3671C61.5616 47.2445 61.6863 47.1229 61.812 47.0003C63.4532 47.2884 63.1451 48.1537 62.4069 49.0712C61.8278 49.7911 61.8567 50.4341 62.1397 51.315C62.8369 53.4855 62.419 55.5747 61.1492 57.4874C60.8922 57.5258 60.653 57.4901 60.4463 57.3236C59.7798 56.0412 61.0524 54.9847 60.8196 53.6493C60.2965 55.9168 58.8861 57.8798 59.3339 60.129C59.4949 59.582 59.0416 58.4405 60.4929 58.6381C60.7833 59.0652 60.4808 59.5958 60.7442 60.0284C60.7368 61.0026 60.8168 61.9877 60.6902 62.9463C60.6018 63.615 60.7219 64.087 61.1911 64.5507C61.5402 64.8956 61.7515 65.33 61.5979 66.1094C60.1168 64.7867 58.7707 63.5857 57.4255 62.3838C56.7059 61.2102 57.014 59.9397 57.1025 58.7039C57.2263 56.9697 57.6266 55.2985 58.5296 53.8578C58.3434 54.0289 58.0771 54.135 57.7634 53.9219C58.0352 52.0851 59.1244 50.7707 60.5478 49.6529C61.2851 49.0748 62.0708 48.4766 61.4359 47.3671Z" fill="#181818"/>
<path d="M48.5321 62.3347C47.267 59.8311 44.5636 59.532 42.375 58.3914C44.4444 58.7408 46.4925 59.0966 48.1532 60.5126C49.8475 61.9578 49.841 61.9505 50.9981 60.1805C51.3137 59.6976 51.579 59.0116 52.3498 59.2439C53.0015 59.4405 52.7147 60.0324 52.7306 60.4998C52.779 61.9157 53.7369 62.7179 54.8521 63.3811C56.3863 64.2931 57.9139 65.2087 59.3643 66.4078C58.6242 66.8707 58.2463 66.4618 57.9028 66.1801C56.3314 64.8949 54.369 64.1897 52.8581 62.7984C51.9188 61.9331 50.6192 62.513 49.5031 62.2972C49.1707 62.085 48.87 62.696 48.5321 62.3347Z" fill="#101010"/>
<path d="M40.1526 34.1828C40.0772 33.5946 39.9162 33.0019 39.9488 32.4192C39.9842 31.7872 40.6423 31.4634 40.9616 31.9409C41.9409 33.4053 43.3895 32.8693 44.676 32.9827C45.7577 33.0778 46.926 32.8281 47.6345 33.9697C46.2511 33.6468 44.8464 33.6953 43.4388 33.6824C41.9093 33.6678 41.7194 34.5185 41.9503 35.682C42.2938 37.4144 43.0171 39.0618 43.1549 40.8418C43.0106 41.3815 42.7071 41.7044 42.088 41.5965C41.2223 41.3952 40.9197 40.7147 40.6665 39.9884C40.1908 38.6218 39.6993 37.258 39.7542 35.7817C39.825 35.2338 39.9246 34.6932 40.1526 34.1828Z" fill="#0B0B0B"/>
<path d="M42.1561 41.1722C42.4894 41.0625 42.8236 40.9527 43.1569 40.8429C44.0338 41.1503 44.893 40.7569 45.7672 40.7789C47.7668 40.8301 49.0282 41.8573 49.1334 43.813C49.2488 45.9644 49.5793 48.1203 49.2116 50.279C49.1092 50.2808 49.0058 50.2827 48.9034 50.2836C48.2983 50 47.9604 49.5253 47.8589 48.8823C47.858 48.4112 47.8459 47.9383 47.7249 47.4782C47.3767 46.5699 47.8524 45.6451 47.6672 44.7341C47.158 42.655 45.9217 41.9031 44.1539 42.6001C43.1206 43.0071 42.6812 43.6255 43.2155 44.7368C44.126 46.6339 43.721 48.638 43.5255 50.5955C43.4585 51.2623 43.0358 51.9209 42.1906 52.0508C41.9532 52.0618 41.7186 52.0545 41.4952 51.963C41.0297 51.6474 41.1135 51.2733 41.3351 50.8461C41.5827 50.3677 41.6683 49.8317 41.8061 49.3149C42.05 48.402 42.2744 47.5102 41.417 46.7391C40.5568 45.9653 40.0699 47.0538 39.3773 47.0849C39.2703 47.0894 39.1641 47.0721 39.0571 47.0355C38.8262 46.9147 38.6335 46.751 38.4669 46.5534C38.3933 46.4693 38.3003 46.3796 38.2975 46.2818C38.2546 44.6527 40.5754 41.5848 42.1561 41.1722Z" fill="#151515"/>
<path d="M72.3973 51.2645C72.0399 50.4147 71.715 49.5494 71.3165 48.7179C70.7552 47.5471 70.0542 46.6406 68.48 46.647C67.3247 46.6516 66.1955 46.0946 65.3652 45.3088C63.5648 43.6047 61.5549 42.5684 58.9939 42.7751C58.7417 42.7952 58.4363 42.7998 58.3125 42.4769C60.7124 41.5192 63.8198 42.4046 65.9144 44.7518C66.4674 45.371 67.0762 45.8769 67.8423 45.8567C71.1657 45.7698 72.0631 48.0438 72.7632 50.5574C72.9382 50.9416 73.0406 51.2883 72.3973 51.2645Z" fill="#181818"/>
<path d="M57.7643 53.92C58.3033 53.1964 58.8414 52.472 59.3804 51.7485C59.5135 51.7832 59.6476 51.8171 59.7807 51.8518C58.0762 55.1942 57.8062 58.799 57.4264 62.3828C56.3595 61.7389 56.0598 60.7107 56.1817 59.603C56.3996 57.6337 56.9591 55.7393 57.7643 53.92Z" fill="#CB1615"/>
<path d="M67.1794 48.4874C67.4671 49.4698 67.1161 50.1385 66.7586 50.7632C65.891 52.2816 65.1305 53.8769 64.8214 55.5627C64.3708 58.0214 64.9238 60.4755 65.4004 62.9022C65.4758 63.2855 65.9599 63.7895 65.2962 63.9715C64.7869 64.1115 64.8112 63.5069 64.7171 63.1721C63.5339 58.9352 63.9231 54.8336 65.9115 50.9031C66.2857 50.1641 66.3732 49.2576 67.1794 48.4874Z" fill="#161616"/>
<path d="M72.3962 51.2693C72.5173 51.0342 72.6392 50.7991 72.7602 50.5631C73.356 53.6859 73.4473 56.7703 72.0397 59.7422C71.9438 59.7422 71.8489 59.7422 71.7539 59.7413C72.1747 57.7079 72.7435 55.7029 72.7844 53.6009C72.8003 52.7813 72.7398 52.012 72.3962 51.2693Z" fill="#1D1D1D"/>
<path d="M48.5312 62.3324C48.8496 62.1906 49.1718 62.1302 49.5023 62.2967C49.1513 63.5883 49.6373 64.8725 49.534 66.1641C49.4697 66.9663 49.6688 67.8005 49.1987 68.5469C49.1 68.449 49.0004 68.3511 48.9018 68.2533C48.8115 66.2775 48.9261 64.2898 48.5312 62.3324Z" fill="#0D0D0D"/>
<path d="M48.5195 34.6352C49.6245 34.9544 50.7305 35.2745 51.8355 35.5938C51.8401 35.6898 51.8429 35.7859 51.8448 35.8828C50.6811 35.6084 49.4123 35.6057 48.5195 34.6352Z" fill="#181818"/>
<path d="M60.7462 60.0234C60.6522 59.5999 60.5582 59.1773 60.4632 58.7538C59.7436 58.0184 59.806 57.4623 60.8486 57.1311C60.9492 57.2482 61.0497 57.3653 61.1502 57.4824C61.0153 58.3294 60.8803 59.1764 60.7462 60.0234Z" fill="#141414"/>
<path d="M40.0279 16.7266C38.3495 16.8254 37.156 15.4597 35.3482 15.4972C32.3692 15.5576 30.2961 16.8062 28.8112 19.081C27.6941 20.7925 26.1823 21.7337 24.2851 22.2578C24.2097 21.3019 24.6854 20.8391 25.6135 20.5921C26.2307 20.4284 26.8461 20.1266 27.3302 19.6591C27.8775 19.2027 28.2834 18.6402 28.6111 18.0182C30.526 15.94 32.8831 15.0207 35.7596 15.0033C37.5209 14.9932 38.7879 15.7177 40.0279 16.7266Z" fill="#171717"/>
<path d="M45.7877 20.7269C46.0298 20.8486 46.2728 20.9693 46.5148 21.091C47.1525 20.7864 47.7166 21.0416 48.2826 21.3078C48.7053 21.6599 49.1381 22.0084 49.1167 22.6304C49.3588 22.7301 49.6008 22.8298 49.8428 22.9295C50.4014 23.3348 50.959 23.74 51.5176 24.1452C51.5045 24.2961 51.4915 24.447 51.4785 24.5989C50.7747 25.1697 50.1389 24.6666 49.5868 24.3766C48.1057 23.5991 46.6461 23.5918 45.1221 24.1836C44.1959 24.544 43.6187 24.405 43.9064 23.2332C44.0106 23.2085 44.1242 23.2012 44.2173 23.1555C46.0894 22.2463 46.0894 22.2454 44.8503 20.6739C44.6902 20.512 44.7032 20.3638 44.8885 20.2312C45.1901 20.3976 45.4889 20.5623 45.7877 20.7269Z" fill="#1A1A1A"/>
<path d="M44.8935 20.2292C44.8805 20.3764 44.8675 20.5237 44.8554 20.6719C43.9431 20.1688 42.7161 20.0124 42.5625 18.6687C43.6247 18.7775 44.2158 19.5651 44.8935 20.2292Z" fill="#171717"/>
<path d="M13.6499 36.2635C13.6899 37.8066 12.9471 39.143 12.1614 40.3321C9.22246 44.7794 9.0009 49.4426 10.6188 54.3399C11.5377 57.1206 12.4369 59.9077 13.3446 62.6921C13.5308 63.4357 13.7402 64.1757 13.6825 64.9541C13.3287 65.5432 13.4442 66.135 13.878 66.575C15.0342 67.7486 16.1839 68.9669 17.9657 69.2221C18.0932 69.5707 17.9349 69.6704 17.6063 69.621C17.085 69.4737 16.5646 69.3264 16.0433 69.1792C13.6927 68.012 12.7693 66.1259 12.6482 63.5537C12.5356 61.1691 11.4176 58.9583 10.5946 56.7282C9.01393 52.4446 8.41814 48.151 9.68792 43.6818C10.2176 41.8176 11.4241 40.3065 12.1856 38.5722C12.5123 37.8286 12.8112 37.073 13.123 36.323C13.2096 36.3084 13.2952 36.2937 13.3818 36.2773C13.4367 36.1849 13.4945 36.1529 13.5559 36.1794C13.6192 36.2059 13.6499 36.2343 13.6499 36.2635Z" fill="#0A0A0A"/>
<path d="M17.6055 69.6163C17.7256 69.4837 17.8456 69.3501 17.9657 69.2175C18.7766 69.3977 19.5874 69.5505 20.4038 69.2404C20.6002 69.4206 20.7976 69.6008 20.994 69.781C19.8611 69.7929 18.7179 70.0106 17.6055 69.6163Z" fill="#393939"/>
<path d="M23.335 22.3761C23.6599 22.3267 23.9839 22.2773 24.3088 22.228C23.9625 22.9186 23.2065 23.118 22.6545 23.5625C22.4432 23.5497 22.3315 23.4381 22.3203 23.2305C22.5428 23.0128 22.7644 22.796 22.9869 22.5783C23.1014 22.5124 23.2187 22.4447 23.335 22.3761Z" fill="#282828"/>
<path d="M22.32 23.2338C22.4317 23.3444 22.5425 23.4551 22.6542 23.5658C22.3842 23.7405 22.078 24.1036 21.849 24.0616C19.7367 23.6747 17.9465 24.776 16.0149 25.2031C15.879 25.0806 15.8706 24.9507 15.9897 24.8125C17.8749 23.414 20.1789 23.6381 22.32 23.2338Z" fill="#0C0C0C"/>
<path d="M15.9877 24.8155C15.9961 24.9454 16.0045 25.0752 16.0128 25.206C14.5606 26.4135 14.2944 28.1075 14.0542 29.8125C13.6046 29.443 14.0132 28.9051 13.7852 28.4917C13.8643 26.8864 14.2162 25.4402 15.9877 24.8155Z" fill="#1B1B1B"/>
<path d="M13.7855 28.4866C13.8749 28.9265 13.9652 29.3674 14.0545 29.8074C14.0536 31.4594 14.0536 33.1113 14.0508 34.7623C14.0499 35.2947 14.0806 35.838 13.6487 36.2606C13.5593 36.2652 13.4699 36.2698 13.3806 36.2734C13.3982 36.1792 13.4169 36.0859 13.4392 35.9926C13.361 35.7146 13.2139 35.4539 13.2148 35.1548C13.7976 33.2723 13.2093 31.3039 13.6542 29.4113C13.6989 29.1031 13.7417 28.7948 13.7855 28.4866Z" fill="#0A0A0A"/>
<path d="M43.9095 23.2373C44.158 23.8529 44.6067 23.6508 45.0033 23.4623C47.4479 22.3016 49.4838 23.3407 51.4825 24.6021C53.1749 25.7088 54.8701 26.812 56.5588 27.9252C57.2719 28.3944 57.607 29.0484 57.3547 29.8817C57.1127 30.6803 56.3531 30.8742 55.6661 30.9967C54.683 31.1724 53.7055 31.015 52.7374 30.7205C51.5793 30.3693 50.3896 30.1058 49.2166 30.7187C48.8713 30.6336 48.5259 30.5485 48.1805 30.4635C47.7663 29.9247 47.1761 29.8918 46.5635 29.9137C45.8076 29.9403 45.1606 29.7335 44.7371 29.0649C44.0826 28.2124 44.1543 27.1541 43.8899 26.1918C43.5175 25.2048 43.3276 24.2188 43.9095 23.2373Z" fill="#4F8205"/>
<path d="M42.1546 41.1725C40.9882 42.8547 39.7798 44.5112 38.8768 46.3552C39.6253 48.8313 39.5257 51.3523 39.2911 53.8805C39.4354 54.2757 39.4791 54.9278 39.7389 55.0257C41.6445 55.7419 40.842 57.0628 40.6074 58.2848C40.518 58.7513 40.5301 59.237 40.4957 59.7136C38.3732 61.8522 38.5305 64.5505 38.6199 67.2178C38.6432 67.9121 38.9392 68.6383 37.9301 68.8908C36.7823 69.1725 35.6149 68.953 34.4596 69.0225C32.4283 68.8313 30.3477 69.0472 28.3881 68.2286C27.8761 68.0145 27.5503 67.8608 27.5652 67.2416C27.6239 64.7508 26.328 63.0907 24.1394 62.0067C23.6358 61.6701 23.1322 61.3326 22.6285 60.996C20.5861 60.1462 19.3861 58.293 19.3079 56.1234C19.2642 54.915 19.6878 53.65 18.9737 52.4984C18.539 51.7181 18.1964 50.916 18.3389 49.9948C17.8864 49.2155 17.8753 48.1755 16.9266 47.6898C16.4528 46.3882 17.3921 45.478 17.8911 44.4636C18.2867 43.6587 18.8127 42.9169 19.2809 42.1467C20.816 39.7977 21.6781 37.2091 22.0476 34.4604C22.0988 34.0808 21.975 33.6226 22.42 33.4918C23.9011 33.0573 25.3366 32.2917 26.9769 32.9283C28.3165 33.4479 29.5844 34.09 30.8057 34.8318C32.9022 36.106 35.2276 36.0365 37.5456 35.8736C38.0427 35.8389 38.5622 35.5965 38.9615 35.1584C39.75 34.293 40.2444 34.7165 40.5618 35.6111C40.7266 37.5659 41.1408 39.452 42.1546 41.1725Z" fill="#4F8205"/>
<path d="M40.5612 35.612C40.1935 35.204 39.85 35.0888 39.2785 35.3879C36.0229 37.091 32.9071 36.4443 29.9291 34.6698C27.9993 33.52 26.0835 32.5605 23.7404 33.445C23.0357 33.7112 22.5683 33.9371 22.4473 34.8418C22.1727 36.8825 21.333 38.7823 20.5194 40.673C20.2559 41.2868 19.8752 41.8027 19.2812 42.1484C20.1414 39.4327 21.6235 36.8944 21.6896 33.9509C21.7017 33.4249 22.1829 33.2218 22.5721 33.0846C24.2924 32.48 26.0333 31.9568 27.8179 32.8962C28.7879 33.4066 29.7886 33.8667 30.7223 34.4338C32.7647 35.6732 35.0018 35.6705 37.2761 35.5662C38.4518 35.5123 38.8995 34.0478 40.1535 34.1859C40.2904 34.6607 40.4253 35.1363 40.5612 35.612Z" fill="#111111"/>
<path d="M24.1406 62.0087C26.5275 62.2548 27.3867 64.0375 27.6781 65.9255C27.9863 67.9159 29.2337 68.3028 30.8395 68.5113C31.9743 68.6586 33.1622 68.3119 34.2532 68.8671C34.4915 68.9751 34.4859 69.0684 34.2355 69.1452C31.9948 69.5669 29.8779 68.9879 27.7712 68.3586C27.3886 68.2442 26.9911 68.0174 27.1056 67.5637C27.6958 65.2376 26.1291 63.9653 24.6731 62.6261C24.4739 62.4441 24.3175 62.2163 24.1406 62.0087Z" fill="#121212"/>
<path d="M18.9755 52.5024C19.7174 52.9351 19.7472 53.6668 19.6532 54.351C19.2631 57.1793 20.2946 59.3645 22.6312 61C20.9118 60.8866 18.9801 58.6355 18.9718 56.721C18.9643 55.3151 18.9727 53.9092 18.9755 52.5024Z" fill="#161616"/>
<path d="M13.2227 44.4382C13.6993 43.0021 14.1452 41.5578 14.1601 40.0293C14.5362 41.6026 14.3295 43.0963 13.5513 44.5114C13.5401 44.5315 13.3846 44.4757 13.2227 44.4382Z" fill="#9B9B9B"/>
<path d="M33.6268 25.3488C33.6268 25.2826 31.8338 25.229 29.622 25.229C27.4102 25.229 25.6172 25.2826 25.6172 25.3488C25.6172 25.415 27.4102 25.4688 29.622 25.4688C31.8338 25.4688 33.6268 25.415 33.6268 25.3488Z" fill="#A3A3A3"/>
<path d="M13.6817 64.9531C13.2004 64.2525 13.4088 63.4521 13.3438 62.6911C13.3438 61.8541 13.3438 61.0172 13.3438 60.1802C13.7655 61.7032 13.5299 63.271 14.0606 64.7565C14.0689 64.7757 13.8139 64.8854 13.6817 64.9531Z" fill="#AAAAAA"/>
<path d="M16.3281 60.9542C16.8178 61.8772 17.3084 62.8001 18.0159 64.1328C16.6335 63.1833 16.492 62.0711 16.3281 60.9542Z" fill="#AAAAAA"/>
<path d="M44.873 29.0953C45.8011 29.9569 47.4023 29.2444 48.1796 30.4609C47.1612 29.8115 45.6903 30.6393 44.8301 29.4712C44.7212 29.3313 44.7352 29.2069 44.873 29.0953Z" fill="#242424"/>
<path d="M25.5977 30.023C26.2428 29.7358 26.7027 29.6022 27.1067 30.0193C27.1681 30.0825 27.0974 30.4099 27.0136 30.4447C26.5258 30.6487 26.1059 30.4858 25.5977 30.023Z" fill="#B0B0B0"/>
<path d="M44.8738 29.0937C44.8599 29.219 44.845 29.3433 44.831 29.4688C44.0341 28.5082 43.7176 27.4151 43.8889 26.1867C44.2175 27.1563 44.5452 28.125 44.8738 29.0937Z" fill="#3E3E3E"/>
<path d="M36.0625 21.6898C36.8538 21.6898 37.6451 21.6898 38.4363 21.6898C37.632 21.9852 36.8305 21.9715 36.0625 21.6898Z" fill="#C1C1C1"/>
<path d="M16.6992 57.2734C16.1416 56.8298 15.9759 56.2517 16.1742 55.2465C16.406 56.141 16.5531 56.7072 16.6992 57.2734Z" fill="#A5A5A5"/>
<path d="M16.9258 47.688C18.2365 47.9588 18.1481 49.0583 18.338 49.9922C17.8669 49.2248 17.3959 48.4564 16.9258 47.688Z" fill="#1A1A1A"/>
<path d="M34.2344 69.1416C34.2418 69.0492 34.2483 68.956 34.2521 68.8636C35.4781 68.8719 36.7041 68.88 37.9301 68.8892C37.9245 68.9779 37.9218 69.0676 37.9227 69.1562C36.6939 69.1518 35.4641 69.1462 34.2344 69.1416Z" fill="#373737"/>
<path d="M20.013 66.0312C19.1724 65.8896 18.8708 65.5721 18.8047 64.9739C19.3251 65.1394 19.596 65.5163 20.013 66.0312Z" fill="#B5B5B5"/>
<path d="M19.7773 34.5692C20.0966 35.3037 20.0045 35.8635 19.7773 36.4297C19.7773 35.8735 19.7773 35.3174 19.7773 34.5692Z" fill="#AAAAAA"/>
<path d="M42.5221 71.5095C42.0287 69.6984 42.2093 69.4276 43.9966 69.3224C44.7609 69.2776 45.5271 69.2017 46.2904 69.2154C46.8183 69.2245 47.5258 69.1495 47.738 69.7276C47.9624 70.3368 47.3414 70.6625 46.903 70.9716C46.3267 71.3778 45.7272 71.7528 45.137 72.1406L45.1705 72.1187C44.3876 72.0126 43.5535 72.3318 42.82 71.8379C42.8581 71.6083 42.7501 71.5058 42.5221 71.5095Z" fill="#989898"/>
<path d="M39.1706 63.7757C39.5207 62.9396 39.8679 62.1027 40.2226 61.2685C40.3501 60.9685 40.4981 60.6401 40.89 60.6629C41.255 60.6849 41.456 60.9511 41.538 61.295C41.9141 62.8729 42.1989 64.459 41.9997 66.0917C41.861 67.2305 40.8714 67.6668 40.042 67.7565C38.9547 67.8745 39.4043 66.8253 39.1055 66.0871C40.1127 66.4457 40.9654 66.6799 41.4309 65.7707C41.766 65.1157 41.6627 64.4206 41.0474 63.8562C40.4227 63.2836 39.8967 63.4336 39.1706 63.7757Z" fill="#F0F0F0"/>
<path d="M41.7998 70.9288C41.6787 71.3752 41.7448 72.1188 41.1044 72.0228C40.273 71.8984 40.1995 71.0322 40.0748 70.3599C39.9686 69.7854 40.4015 69.5842 40.8912 69.6217C41.7067 69.6848 41.7588 70.3141 41.7998 70.9288Z" fill="#D5D5D5"/>
<path d="M42.2723 51.6051C43.2032 49.1463 43.5169 46.715 41.8785 44.399C41.5713 43.9645 41.4019 43.6243 41.7603 43.1056C42.3952 42.1882 44.8202 41.0997 46.0044 41.4226C47.4929 41.8287 48.5076 42.7306 48.5281 44.3926C49.0792 45.3329 48.1771 46.4361 48.8716 47.3608C48.8586 47.7971 48.8455 48.2344 48.8316 48.6707C48.4415 49.7025 48.6258 50.8477 48.1743 51.8667C47.5003 53.5031 46.2799 54.4818 44.514 54.8047C44.325 54.6794 44.0662 54.7297 43.893 54.6117C43.2563 54.179 42.4231 54.7562 41.8366 54.2385C41.0761 53.5689 42.2788 52.8399 41.8189 52.1402C41.8962 51.9023 42.0694 51.7423 42.2723 51.6051Z" fill="#4F8205"/>
<path d="M42.2716 51.6035C42.2428 51.8157 42.2139 52.027 42.185 52.2392C42.0258 53.5344 41.0018 53.8747 39.9536 54.1875C39.733 54.086 39.5124 53.9844 39.2908 53.8829C38.735 53.3176 38.0499 52.9398 38.7276 51.8632C39.2135 51.0903 38.763 49.9918 38.655 49.0359C38.5544 48.1431 38.4483 47.2211 38.8765 46.3576C39.0069 46.4967 39.1372 46.6357 39.2675 46.7738C42.2074 46.6586 42.9921 47.9629 41.5734 50.643C41.3817 51.0052 40.9385 51.3172 41.6404 51.5907C41.8518 51.5952 42.0612 51.5998 42.2716 51.6035Z" fill="#0F0F0F"/>
<path d="M39.9531 54.1836C40.2845 53.0786 41.5227 52.9752 42.1845 52.2352C42.489 52.1557 42.8827 51.9544 43.0708 52.2782C43.4357 52.9066 42.5122 53.0832 42.4815 53.718C43.1769 53.9823 43.9375 54.2412 44.5137 54.8001C43.5362 54.9126 42.556 55.0123 41.5804 55.1413C40.7658 55.2492 40.2045 54.9812 39.9531 54.1836Z" fill="#4F8205"/>
<path d="M48.1758 51.8672C48.1897 50.7613 48.1693 49.6481 48.833 48.6712C48.8563 49.21 48.8796 49.7487 48.9028 50.2875C48.6608 50.8144 48.4178 51.3403 48.1758 51.8672Z" fill="#151515"/>
<path d="M60.8494 57.1306C60.5683 57.6364 60.4715 58.1843 60.464 58.7533C59.9632 59.8463 60.1848 60.9879 60.2257 62.1185C60.2397 62.5136 60.2201 62.9243 59.71 62.9874C59.2864 63.0396 59.2082 62.6517 59.0593 62.37C58.1917 60.7318 58.2959 58.9838 58.6804 57.2934C59.0509 55.6652 59.6727 54.0892 60.2406 52.5104C60.3858 52.1052 60.4193 51.3862 61.0924 51.5198C61.6249 51.625 61.6994 52.2296 61.7692 52.7181C61.9963 54.295 61.3037 55.689 60.8494 57.1306Z" fill="#CB1615"/>
<path d="M41.6411 51.5916C41.2678 51.8615 41.3478 52.6234 40.7008 52.5429C40.2819 52.4908 39.5474 53.3021 39.4692 52.2694C39.4264 51.7032 38.9684 50.7236 40.1898 50.6833C41.5145 50.6394 41.9464 49.9067 41.736 48.7725C41.5498 47.7672 41.0257 47.0803 39.782 47.491C38.9125 47.7782 39.364 47.0675 39.2672 46.7739C39.4171 46.558 39.5782 46.3485 39.7159 46.1244C40.0678 45.5555 40.2931 44.6417 41.035 44.7176C41.8431 44.8009 42.0888 45.7393 42.275 46.4363C42.7498 48.2191 42.3625 49.9333 41.6411 51.5916Z" fill="#F0F0F0"/>
<path d="M48.8711 47.3594C47.9281 46.463 48.7212 45.3717 48.5276 44.3912C48.967 45.3443 48.8525 46.3596 48.8711 47.3594Z" fill="#151515"/>
<path d="M47.1529 24.4782C49.1618 24.5871 50.3692 25.5612 50.9184 27.4163C50.9957 27.6788 51.1307 27.9404 50.8821 28.1645C50.6364 28.3858 50.3506 28.2971 50.1272 28.1352C49.2502 27.4967 48.3081 27.5617 47.2879 27.7117C45.682 27.9486 45.7286 26.6324 45.6038 25.6765C45.4428 24.4544 46.4026 24.4782 47.1529 24.4782Z" fill="#070707"/>
<path d="M31.969 39.2157C32.6495 39.2312 33.303 39.3245 33.6642 39.9932C33.9258 40.4789 33.8783 41.0314 33.452 41.3286C30.8491 43.1407 31.3472 45.9735 30.9441 48.5072C30.851 49.0908 30.9078 49.7037 30.7691 50.2726C30.5065 51.3465 29.6231 51.6136 28.7108 51.3346C27.6309 51.0044 28.1783 50.1848 28.4743 49.6067C29.381 47.8368 28.7545 46.0879 28.4082 44.3691C28.02 42.4418 28.5805 40.992 30.1407 39.8285C30.6946 39.4142 31.2792 39.1901 31.969 39.2157Z" fill="#7F7F7F"/>
<path d="M32.0772 67.9453C30.8912 67.8474 29.6075 67.4459 29.2668 66.3629C28.873 65.1088 29.1727 63.6627 29.9491 62.4891C30.288 61.9769 30.7749 62.3501 31.016 62.7178C31.878 64.0295 32.8331 65.3073 33.4894 66.716C34.1476 68.1255 32.7773 67.7249 32.0772 67.9453Z" fill="#7E7E7E"/>
<path d="M21.985 48.3281C21.9087 46.8308 22.1991 45.3745 22.5063 43.9211C22.7484 45.4367 22.4775 46.8939 21.9794 48.3245L21.985 48.3281Z" fill="#0B0B0B"/>
<path d="M26.474 42.1693C26.2906 42.8736 26.1072 43.5778 25.9238 44.2812C25.6595 43.4819 25.8317 42.7748 26.474 42.1693Z" fill="#0B0B0B"/>
<path d="M25.4375 46.0009C25.7531 46.9147 25.6041 47.6446 25.4375 48.3828C25.4375 47.6593 25.4375 46.9358 25.4375 46.0009Z" fill="#0B0B0B"/>
<path d="M21.9814 48.3236C21.9814 49.6298 21.9814 50.936 21.9814 52.2422L21.9889 52.2358C21.4945 50.9332 21.4927 49.6307 21.987 48.3282L21.9814 48.3236Z" fill="#0B0B0B"/>
<path d="M21.9805 52.2449C22.661 52.9986 22.2402 53.9452 22.4487 54.7812C21.8799 54.0056 22.0205 53.1064 21.9879 52.2384L21.9805 52.2449Z" fill="#0B0B0B"/>
<path d="M25.36 39.8935C25.548 40.6883 25.0844 41.0131 24.9876 41.625C24.5612 40.8987 25.0034 40.5429 25.36 39.8935Z" fill="#0B0B0B"/>
<path d="M23.418 46.6225C23.7317 47.3964 23.6702 47.9415 23.418 48.4922C23.418 47.9489 23.418 47.4055 23.418 46.6225Z" fill="#0B0B0B"/>
<path d="M26.3828 54.6928C26.6602 55.2306 26.7189 55.7877 26.3828 56.6484C26.3828 55.7904 26.3828 55.2416 26.3828 54.6928Z" fill="#0B0B0B"/>
</g>
</g>
</g>
<defs>
<clipPath id="clip0_394_11387">
<rect width="90" height="90" fill="white" transform="matrix(0 -1 1 0 0 90)"/>
</clipPath>
</defs>
</svg>
