<svg width="90" height="90" viewBox="0 0 90 90" fill="none" xmlns="http://www.w3.org/2000/svg">
<g clip-path="url(#clip0_394_11517)">
<mask id="mask0_394_11517" style="mask-type:luminance" maskUnits="userSpaceOnUse" x="0" y="0" width="90" height="90">
<path d="M0 0L0 90H90V0H0Z" fill="white"/>
</mask>
<g mask="url(#mask0_394_11517)">
<path d="M45 0C20.1472 0 0 20.1472 0 45C0 69.8528 20.1472 90 45 90C69.8528 90 90 69.8528 90 45C90 20.1472 69.8528 0 45 0Z" fill="#F00500"/>
<path d="M59.9759 21.7121C67.8201 22.3727 74.4257 31.6206 74.0954 45.4923C73.7651 58.5384 68.3155 67.7037 60.4713 68.3643C59.4805 68.4468 58.4896 68.3643 57.4162 68.2817C54.3611 67.8688 51.4712 66.7954 48.8289 65.2266L49.2418 64.2358C48.251 61.6761 47.5078 59.0338 47.0124 56.309C46.517 52.7585 46.4344 49.1254 46.6821 45.5749C46.4344 42.0244 46.517 38.3913 47.0124 34.8408C47.5078 32.116 48.251 29.4737 49.2418 26.9141L48.8289 25.9232L48.4987 25.2627C51.1409 23.6938 54.0309 22.6204 57.086 22.0424C57.9942 21.8773 58.9851 21.7947 59.8933 21.8773" fill="#F4A427"/>
<path d="M59.9747 21.7121C67.7363 22.3727 74.0942 31.538 74.0116 45.4923C73.6813 58.5384 68.2317 67.7037 60.3875 68.3643C59.3967 68.4468 58.4058 68.3643 57.3324 68.2817C57.0021 66.878 57.0021 65.4743 57.2499 64.0706C57.6627 61.4284 59.3141 59.9421 60.1398 58.043C60.6352 56.9696 59.8095 55.8962 58.9013 54.9053C56.3416 52.2631 54.8553 48.7126 54.7728 45.0795C54.6902 41.3638 56.1764 38.3087 59.149 35.0885C59.8095 34.4279 60.2224 33.5197 60.1398 32.6114C59.8921 31.7857 59.4793 30.96 58.9013 30.2994C57.2499 27.8223 56.5893 24.8498 57.0021 21.9599C58.0756 21.7122 58.9838 21.6296 59.9747 21.7121Z" fill="white"/>
<path d="M40.6528 60.1059C41.5611 61.0142 42.2216 62.1702 42.4693 63.4087L42.5519 63.9041C42.7171 64.3996 42.7996 64.895 42.7996 65.473C42.7996 65.5555 42.7996 65.7207 42.7996 65.8032C42.7171 66.051 42.6345 66.3812 42.5519 66.6289C42.1391 67.5372 41.6436 68.3629 40.9831 69.106C39.7445 70.5923 38.3408 71.996 36.6894 73.0694C30.0838 77.6108 21.1663 76.2071 16.2121 69.9318C15.9643 69.5189 15.9643 69.0235 16.3772 68.6932C16.6249 68.5281 16.8726 68.4455 17.1203 68.5281C19.7626 69.1061 23.8911 69.6015 27.4416 67.1244C30.4141 64.9775 33.3041 60.5188 33.3041 57.7939C36.6069 57.216 38.8363 58.1242 40.6528 60.1059Z" fill="#F79422"/>
<path d="M40.6528 60.1059C41.5611 61.0142 42.2216 62.1702 42.4693 63.4087L42.5519 63.9041C42.7171 64.3996 42.7996 64.895 42.7996 65.473C42.7996 65.5555 42.7996 65.7207 42.7996 65.8032C42.7171 66.051 42.6345 66.3812 42.5519 66.6289C42.1391 67.5372 41.6436 68.3629 40.9831 69.106C39.7445 70.5923 38.3408 71.996 36.6894 73.0694C30.0838 77.6108 21.1663 76.2071 16.2121 69.9318C15.9643 69.5189 15.9643 69.0235 16.3772 68.6932C16.6249 68.5281 16.8726 68.4455 17.1203 68.5281C19.7626 69.106 23.8911 69.6015 27.4416 67.1244C30.4141 64.9775 33.3041 60.5188 33.3041 57.7939C36.6069 57.216 38.8363 58.1242 40.6528 60.1059Z" stroke="#221F1F" stroke-width="0.825701" stroke-linejoin="round"/>
<path d="M29.2578 48.216L39.8268 49.2894V49.372C40.0745 51.0234 40.4048 53.2528 40.9002 56.3079C41.3131 59.1153 43.2948 62.9135 44.6159 65.1429L42.8819 65.3906C42.7993 64.8952 42.7168 64.3172 42.6342 63.8218L42.5516 63.3263C42.3039 62.0878 41.6434 60.9318 40.7351 60.0235C38.836 58.1244 36.6892 57.1336 33.3038 57.7941L33.3864 57.4639C32.3129 56.473 31.4872 55.317 30.8267 53.9959C29.8358 52.262 29.3404 50.2803 29.2578 48.216Z" fill="#5A595C"/>
<path d="M29.2578 48.216L39.8268 49.2894V49.372C40.0745 51.0234 40.4048 53.2528 40.9002 56.3079C41.3131 59.1153 43.2948 62.9135 44.6159 65.1429L42.8819 65.3906C42.7993 64.8952 42.7168 64.3172 42.6342 63.8218L42.5516 63.3263C42.3039 62.0878 41.6434 60.9318 40.7351 60.0235C38.836 58.1244 36.6892 57.1336 33.3038 57.7941L33.3864 57.4639C32.3129 56.473 31.4872 55.317 30.8267 53.9959C29.8358 52.262 29.3404 50.2803 29.2578 48.216Z" stroke="#221F1F" stroke-width="0.825701" stroke-linejoin="round"/>
<path d="M48.2475 24.1046L48.5778 24.7651L48.908 25.4257L49.3209 26.4165C48.33 28.9762 47.5869 31.6185 47.0915 34.3433C46.4309 37.8938 46.1006 41.4443 46.1006 45.0774C46.1006 48.7105 46.3484 52.261 47.0915 55.8115C47.5869 58.5363 48.33 61.1786 49.3209 63.7382C49.1557 64.0685 48.9906 64.3988 48.908 64.7291L48.2475 66.1328C47.0915 66.0502 46.4309 66.1328 45.2749 66.1328C45.1098 65.8851 44.8621 65.4722 44.6144 65.0594L44.5318 64.9768C43.2107 62.83 41.3116 59.0317 40.8162 56.2243C40.3207 53.1693 39.9905 51.0224 39.7427 49.2885C39.6602 48.215 39.6602 47.0591 39.6602 45.9031C39.6602 44.1691 39.6602 42.6003 39.7427 41.0314C39.9905 39.38 40.3207 37.1507 40.8162 34.013C41.229 31.123 43.2107 27.3248 44.5318 25.0954V25.0128C44.7795 24.6 44.9447 24.2697 45.1924 24.022C46.4309 24.1046 47.0915 24.1871 48.2475 24.1046Z" fill="#929497"/>
<path d="M48.2475 24.1046L48.5778 24.7651L48.908 25.4257L49.3209 26.4165C48.33 28.9762 47.5869 31.6185 47.0915 34.3433C46.5135 37.8938 46.1832 41.4443 46.1832 45.0774C46.1832 48.7105 46.4309 52.261 47.0915 55.8115C47.5869 58.5363 48.33 61.1786 49.3209 63.7382C49.1557 64.0685 48.9906 64.3988 48.908 64.7291L48.2475 66.1328C47.0915 66.0502 46.4309 66.1328 45.2749 66.1328C45.1098 65.8851 44.8621 65.4722 44.6144 65.0594L44.5318 64.9768C43.2107 62.83 41.3116 59.0317 40.8162 56.2243C40.3207 53.1693 39.9905 51.0224 39.7427 49.2885C39.6602 48.215 39.6602 47.0591 39.6602 45.9031C39.6602 44.1691 39.6602 42.6003 39.7427 41.0314C39.9905 39.38 40.3207 37.1507 40.8162 34.013C41.229 31.123 43.2107 27.3248 44.5318 25.0954V25.0128C44.7795 24.6 44.9447 24.2697 45.1924 24.022C46.4309 24.1046 47.0915 24.1871 48.2475 24.1046Z" stroke="#221F1F" stroke-width="0.825701" stroke-linecap="round" stroke-linejoin="round"/>
<path d="M39.8261 41.114C39.7436 42.6003 39.661 44.2517 39.7436 45.9857C39.7436 47.1417 39.8261 48.2976 39.8261 49.3711V49.2885L29.2572 48.2151L27.1103 47.9674C26.6149 47.1417 26.3672 46.1508 26.3672 45.2426V45.0774C26.3672 44.0866 26.6149 43.1783 27.1103 42.3526L29.2572 42.1049H29.3397L39.8261 41.114Z" fill="#929497"/>
<path d="M39.8261 41.114C39.7436 42.6003 39.661 44.2517 39.7436 45.9857C39.7436 47.1417 39.8261 48.2976 39.8261 49.3711V49.2885L29.2572 48.2151L27.1103 47.9674C26.6149 47.1417 26.3672 46.1508 26.3672 45.2426V45.0774C26.3672 44.0866 26.6149 43.1783 27.1103 42.3526L29.2572 42.1049H29.3397L39.8261 41.114Z" stroke="#221F1F" stroke-width="0.825701" stroke-linecap="round" stroke-linejoin="round"/>
<path d="M48.9937 24.7668C48.9937 24.5388 48.8088 24.354 48.5808 24.354C48.3528 24.354 48.168 24.5388 48.168 24.7668C48.168 24.9948 48.3528 25.1797 48.5808 25.1797C48.8088 25.1797 48.9937 24.9948 48.9937 24.7668Z" fill="#221F1F"/>
<path d="M60.056 21.7127C67.9001 22.3732 74.1755 32.3642 74.1755 45.4929C73.8452 58.539 68.3956 67.7042 60.5514 68.2822C59.5606 68.3648 58.5697 68.2822 57.4963 68.1997C54.4412 67.7868 51.5513 66.7134 48.909 65.1446L49.3219 64.1537C48.331 61.5941 47.5879 58.9518 47.0925 56.227C46.4319 52.6765 46.1842 49.126 46.1016 45.4929C46.1016 41.8598 46.4319 38.3093 47.0925 34.7588C47.5879 32.034 48.331 29.3917 49.3219 26.832L48.909 25.7586L48.5787 25.0981C51.221 23.5292 54.1109 22.4558 57.166 21.8778C58.1569 21.6301 59.1477 21.6301 60.056 21.7127Z" stroke="#221F1F" stroke-width="0.825701" stroke-linecap="round" stroke-linejoin="round"/>
<path d="M36.6905 17.6651C38.2594 18.8211 39.7456 20.1422 40.9842 21.711C41.6447 22.4541 42.1402 23.2798 42.553 24.1881L42.7182 24.601L42.8007 24.8487C42.9659 25.4267 42.8007 25.7569 42.6356 26.8304L42.553 27.3258C42.3053 28.5643 41.6447 29.7203 40.7365 30.6286C38.8374 32.5277 36.6905 33.5185 33.3052 32.858C33.3877 30.2157 30.4978 25.6744 27.4427 23.5275C23.8922 21.133 19.7637 21.6284 17.1214 22.2064C16.626 22.289 16.2132 22.0413 16.048 21.5459C15.9654 21.2982 16.048 20.9679 16.2132 20.8027C21.1674 14.5274 30.1675 13.1237 36.6905 17.6651Z" fill="#F79422"/>
<path d="M36.6905 17.6651C38.2594 18.8211 39.7456 20.1422 40.9842 21.711C41.6447 22.4541 42.1402 23.2798 42.553 24.1881L42.7182 24.601L42.8007 24.8487C42.9659 25.4267 42.8007 25.7569 42.6356 26.8304L42.553 27.3258C42.3053 28.5643 41.6447 29.7203 40.7365 30.6286C38.8374 32.5277 36.6905 33.5185 33.3052 32.858C33.3877 30.2157 30.4978 25.6744 27.4427 23.5275C23.8922 21.133 19.7637 21.6284 17.1214 22.2064C16.626 22.289 16.2132 22.0413 16.048 21.5459C15.9654 21.2982 16.048 20.9679 16.2132 20.8027C21.1674 14.5274 30.1675 13.1237 36.6905 17.6651Z" stroke="#221F1F" stroke-width="0.825701" stroke-linejoin="round"/>
<path d="M42.7993 24.8478L44.6159 25.178C43.2948 27.4074 41.3131 31.2057 40.9002 34.0956C40.4048 37.2333 40.0745 39.3801 39.8268 41.1141L29.2578 42.1875C29.3404 40.2884 29.9184 38.3893 30.8267 36.6553C31.4872 35.3342 32.3955 34.1782 33.3864 33.1873L33.3038 32.8571C36.6066 33.5176 38.836 32.5268 40.7351 30.6277C41.6434 29.7194 42.3039 28.5634 42.5516 27.3249C42.5516 27.2423 42.7168 26.912 42.7168 26.8294C42.9645 26.1689 42.9645 25.5083 42.7993 24.8478Z" fill="#5A595C"/>
<path d="M42.7993 24.8478L44.6159 25.178C43.2948 27.4074 41.3131 31.2057 40.9002 34.0956C40.4048 37.2333 40.0745 39.3801 39.8268 41.1141L29.2578 42.1875C29.3404 40.2884 29.9184 38.3893 30.8267 36.6553C31.4872 35.3342 32.3955 34.1782 33.3864 33.1873L33.3038 32.8571C36.6066 33.5176 38.836 32.5268 40.7351 30.6277C41.6434 29.7194 42.3039 28.5634 42.5516 27.3249L42.6342 26.8294C42.7993 25.756 42.9645 25.4258 42.7993 24.8478Z" stroke="#221F1F" stroke-width="0.825701" stroke-linejoin="round"/>
<path d="M29.2578 42.1892V42.5195" stroke="#221F1F" stroke-width="0.825701" stroke-linejoin="round"/>
<path d="M42.3867 24.7669C43.0473 24.1889 44.0381 24.354 44.6161 25.0146C44.6987 25.0971 44.6987 25.0971 44.7813 25.1797" fill="#F79422"/>
<path d="M42.3867 24.7669C43.0473 24.1889 44.0381 24.354 44.6161 25.0146C44.6987 25.0971 44.6987 25.0971 44.7813 25.1797" stroke="#221F1F" stroke-width="0.825701" stroke-miterlimit="10"/>
<path d="M42.3867 65.4748C43.0473 66.0528 44.0381 65.8876 44.6161 65.2271C44.6987 65.1445 44.6987 65.1445 44.7813 65.0619" fill="#F79422"/>
<path d="M42.3867 65.4748C43.0473 66.0528 44.0381 65.8876 44.6161 65.2271C44.6987 65.1445 44.6987 65.1445 44.7813 65.0619" stroke="#221F1F" stroke-width="0.825701" stroke-miterlimit="10"/>
<path d="M63.1959 48.2148C63.361 47.6368 63.2785 46.9762 62.9482 46.3982C62.6179 45.49 61.7096 44.912 60.7188 44.9946C61.7096 45.0771 62.6179 44.4991 62.9482 43.5909C63.1959 43.0129 63.2784 42.4349 63.1959 41.8569" stroke="#171717" stroke-width="0.825701" stroke-linecap="round" stroke-linejoin="round"/>
<path d="M57.9109 41.7772C58.9017 41.7772 60.2228 43.2634 60.2228 45.08C60.2228 46.8965 58.9017 48.3828 57.9109 48.3828C56.92 48.3828 56.5898 46.8965 56.5898 45.08C56.5898 43.2634 57.0026 41.7772 57.9109 41.7772Z" fill="#171717"/>
<path d="M57.5779 43.7551C57.8256 43.7551 58.1559 44.4157 58.1559 45.1588C58.1559 45.9019 57.8256 46.5625 57.6604 46.5625C57.4953 46.5625 57.4953 45.9019 57.4953 45.1588C57.4953 44.4157 57.3301 43.7551 57.5779 43.7551Z" fill="white"/>
<path d="M60.7188 50.2789C61.8748 50.3614 62.8656 49.6183 63.1133 48.4623V48.2146" stroke="#171717" stroke-width="0.825701" stroke-linecap="round" stroke-linejoin="round"/>
<path d="M59.5625 44.9961C59.9754 44.9961 60.3057 44.9961 60.7185 44.9961" stroke="#171717" stroke-width="0.825701" stroke-linecap="round" stroke-linejoin="round"/>
<path d="M63.1953 41.7773V41.5296C62.9476 40.3736 61.9568 39.5479 60.8008 39.713" stroke="#171717" stroke-width="0.825701" stroke-linecap="round" stroke-linejoin="round"/>
<path d="M16.2109 20.8008C21.1651 14.5254 30.0827 13.2043 36.6057 17.7457" stroke="#221F1F" stroke-width="0.825701" stroke-linejoin="round"/>
<path d="M40.6528 60.1059C41.5611 61.0142 42.2216 62.1702 42.4693 63.4087L42.5519 63.9041C42.7171 64.3996 42.7996 64.895 42.7996 65.473C42.7996 65.5555 42.7996 65.7207 42.7996 65.8032C42.7171 66.051 42.6345 66.3812 42.5519 66.6289C42.1391 67.5372 41.6436 68.3629 40.9831 69.106C39.7445 70.5923 38.3408 71.996 36.6894 73.0694C30.0838 77.6108 21.1663 76.2071 16.2121 69.9318C15.9643 69.5189 15.9643 69.0235 16.3772 68.6932C16.6249 68.5281 16.8726 68.4455 17.1203 68.5281C19.7626 69.106 23.8911 69.6015 27.4416 67.1244C30.4141 64.9775 33.3041 60.5188 33.3041 57.7939C36.6069 57.216 38.8363 58.1242 40.6528 60.1059Z" stroke="#221F1F" stroke-width="0.825701" stroke-linejoin="round"/>
<path d="M52.5445 51.1054C54.361 51.1054 55.7647 52.1788 55.7647 53.4999C55.7647 54.8211 54.2785 55.8945 52.5445 55.8945C50.9756 55.8945 49.6545 55.0688 49.3242 53.9954L51.3059 51.3531C51.7188 51.188 52.1316 51.1054 52.5445 51.1054Z" fill="#221F1F"/>
<path d="M52.1286 52.0127C52.7892 52.0127 53.2846 52.4255 53.2846 52.8384C53.2846 53.2512 52.7892 53.6641 52.1286 53.6641C51.4681 53.6641 50.9727 53.2512 50.9727 52.8384C50.9727 52.4255 51.4681 52.0127 52.1286 52.0127Z" fill="white"/>
<path d="M55.0204 53.9966C55.7635 54.9049 56.5892 55.7306 57.4975 56.4737C57.9104 56.804 58.4058 57.1343 58.9838 57.382C59.4792 57.6297 60.0572 57.7949 60.6352 57.8774C60.8829 57.96 61.2132 57.96 61.4609 57.96H61.8737H62.2866C62.8646 57.96 63.4426 57.96 64.1031 57.96C64.6811 57.8774 65.3417 57.7949 65.9197 57.7123C66.2499 57.6297 66.4976 57.6297 66.8279 57.5472C67.0756 57.4646 67.4059 57.382 67.6536 57.2169C67.4059 57.382 67.0756 57.4646 66.8279 57.6297C66.5802 57.7123 66.2499 57.8774 66.0022 57.96C65.4242 58.1251 64.8462 58.2903 64.1857 58.4554C63.6077 58.538 62.9471 58.6206 62.3691 58.7031H61.9563H61.4609C61.1306 58.7031 60.8003 58.7031 60.5526 58.7031C59.892 58.6206 59.2315 58.538 58.6535 58.2903C58.0755 58.0426 57.4975 57.7949 56.9195 57.4646C55.8461 56.7215 54.8553 55.9783 54.0296 55.0701C53.7818 54.7398 53.7818 54.3269 54.0296 53.9966C54.1947 53.7489 54.6901 53.6664 55.0204 53.9966Z" fill="#221F1F"/>
<path d="M54.7714 54.5722C54.7714 54.6547 54.7714 54.6547 54.7714 54.7373V54.8199V54.985L54.6889 55.3979C54.6063 55.6456 54.6063 55.8933 54.6063 56.141C54.6063 56.6364 54.6063 57.2144 54.7714 57.7098C54.854 57.9575 54.9366 58.2053 55.0191 58.453C55.3494 59.1961 55.9274 59.8567 56.588 60.2695C56.01 60.0218 55.5146 59.7741 55.1017 59.3612C54.854 59.1961 54.6889 58.9484 54.5237 58.7007C54.3586 58.453 54.1934 58.2053 54.0283 57.9575C53.698 57.4621 53.5329 56.8841 53.3677 56.2236C53.2852 55.8933 53.2852 55.6456 53.2852 55.3153C53.2852 55.1502 53.2852 54.985 53.2852 54.8199V54.4896C53.2852 54.0768 53.6154 53.7465 54.0283 53.6639C54.4411 53.5813 54.7714 54.0768 54.7714 54.5722Z" fill="#221F1F"/>
<path d="M52.5445 34.1802C54.361 34.1802 55.7647 35.2536 55.7647 36.4921C55.7647 37.7307 54.2785 38.8867 52.5445 38.8867C52.1316 38.8867 51.7188 38.8041 51.3059 38.7215L49.3242 36.0793C49.6545 35.0059 50.9756 34.1802 52.5445 34.1802Z" fill="#221F1F"/>
<path d="M52.1286 38.0586C52.7892 38.0586 53.2846 37.6458 53.2846 37.2329C53.2846 36.8201 52.7892 36.4072 52.1286 36.4072C51.4681 36.4072 50.9727 36.8201 50.9727 37.2329C50.9727 37.6458 51.4681 38.0586 52.1286 38.0586Z" fill="white"/>
<path d="M53.865 35.0037C54.7733 34.0954 55.6815 33.3523 56.7549 32.6917C57.2504 32.3615 57.8283 32.0312 58.4063 31.7835C58.9843 31.5358 59.6449 31.3706 60.2229 31.288C60.8834 31.2055 61.4614 31.2055 62.122 31.288C62.7 31.3706 63.3605 31.4532 63.9385 31.5358C64.5165 31.6183 65.0945 31.7835 65.6725 31.9486C65.9202 32.0312 66.2505 32.1137 66.4982 32.2789C66.7459 32.3615 67.0762 32.5266 67.3239 32.6917C67.0762 32.6092 66.7459 32.444 66.4982 32.3615C66.2505 32.2789 65.9202 32.1963 65.6725 32.1137C65.0945 32.0312 64.5165 31.866 63.9385 31.866C63.3605 31.7835 62.7826 31.7835 62.122 31.7835C61.544 31.7835 60.966 31.866 60.388 31.9486C59.81 32.1137 59.3146 32.2789 58.8192 32.5266C58.3238 32.7743 57.8283 33.1046 57.4155 33.5174C56.5072 34.2606 55.6815 35.0863 54.9384 35.9945C54.6081 36.3248 54.1953 36.3248 53.865 35.9945C53.6173 35.7468 53.5347 35.334 53.7824 35.0037H53.865Z" fill="#221F1F"/>
<path d="M53.2862 35.4981V35.0852C53.2862 34.9201 53.2862 34.755 53.2862 34.5898C53.2862 34.2595 53.2862 33.9293 53.3688 33.599C53.4513 32.9384 53.6165 32.3604 53.8642 31.7824C54.1119 31.2044 54.5248 30.709 54.9376 30.2136C55.3505 29.8008 55.9284 29.4705 56.4239 29.2228C55.9284 29.553 55.5156 29.9659 55.1853 30.4613C54.855 30.9567 54.6073 31.4522 54.5248 32.0301C54.4422 32.6081 54.4422 33.1861 54.4422 33.7641C54.4422 34.0118 54.5248 34.3421 54.5248 34.5898L54.6073 35.0027V35.1678V35.2504V35.3329V35.4155C54.6899 35.8284 54.3596 36.2412 53.9468 36.2412C53.5339 36.3238 53.1211 35.9935 53.1211 35.5807C53.1211 35.4981 53.1211 35.4981 53.1211 35.4155" fill="#221F1F"/>
<path d="M43.9426 21.0249C44.1645 21.0663 44.8301 21.7143 45.3155 22.3623C46.7161 24.265 48.0196 27.6705 48.6437 31.1312C49.0042 33.1028 49.0597 35.0744 48.7685 35.6673C48.5743 36.0533 48.4218 36.1084 47.9225 35.9706C46.8825 35.681 45.7454 34.7435 44.6776 33.282C44.1367 32.5375 42.2924 29.518 41.5158 28.1117C40.24 25.7954 39.4773 23.9203 39.297 22.6518C39.2415 22.252 39.2276 21.7694 39.297 21.6178C39.394 21.3696 40.129 21.0938 41.0165 20.9835C41.488 20.9284 43.5682 20.956 43.9426 21.0249Z" fill="black"/>
<path d="M48.5332 53.5097C48.6996 53.5924 48.8799 54.006 48.9492 54.4748C49.0186 54.9436 48.9769 56.3775 48.8799 57.191C48.4916 60.1139 47.5902 63.2161 46.4808 65.4773C45.8568 66.7457 45.2327 67.6557 44.5532 68.3313L44.1511 68.7173L43.6241 68.7587C42.7088 68.8276 41.2666 68.8138 40.7535 68.7035C40.3236 68.6346 39.9076 68.4829 39.5332 68.2761C39.3945 68.1658 39.3945 68.1658 39.3945 67.6695C39.3945 67.0628 39.4916 66.5527 39.7551 65.7254C40.282 64.0296 41.5578 61.5065 43.4161 58.4318C44.9415 55.8949 45.6904 54.9436 46.7166 54.2129C47.3545 53.7165 48.2558 53.3856 48.5332 53.5097Z" fill="black"/>
<path d="M67.8328 33.9875C67.8744 33.9875 68.54 34.1529 69.3304 34.3597C70.1208 34.5665 70.7586 34.732 70.7863 34.732C70.8002 34.8836 70.8141 35.0215 70.8002 35.1732V35.6144L72.2423 36.221C73.0327 36.5519 73.7676 36.8553 73.8785 36.8966L74.0726 36.9793L73.6012 37.2689L73.1297 37.5584H69.2888L69.3165 37.6687C69.372 37.9031 69.5938 39.5714 69.6632 40.3021C69.9682 43.3216 69.8989 46.3549 69.469 49.3605C69.3997 49.8431 69.3443 50.2567 69.3581 50.2705C69.372 50.2843 70.2594 50.2705 71.3548 50.2429L73.3238 50.2016L73.6844 50.436C73.8785 50.5601 74.0449 50.6841 74.0587 50.6841C74.1003 50.7255 73.8785 50.8634 73.2406 51.1805C72.5751 51.5252 71.8679 51.7734 71.133 51.9526L70.7309 52.0491L70.7586 52.4765L70.8002 52.9039L70.2872 53.0142C70.0098 53.0694 69.58 53.1383 69.3443 53.1659L68.9005 53.2073L68.5816 53.5657C68.4014 53.7726 68.2211 53.9794 68.1934 54.0207C68.1379 54.0897 68.0408 54.1172 67.9576 54.1172H67.7912L67.8051 52.3938L67.819 50.6704L67.9992 50.6152L68.1795 50.5601L68.2072 49.9672C68.2211 49.6363 68.2488 48.5884 68.2766 47.6509L68.3182 45.9274L67.6249 45.4862L66.9315 45.0313V44.4522L65.4895 44.466L64.0474 44.4798L63.7146 45.2381C62.633 47.6785 61.3989 49.1124 59.9014 49.6501C59.5963 49.7604 59.4854 49.7604 58.0988 49.788C56.7261 49.8017 56.6013 49.8017 56.2962 49.7052C55.6029 49.5122 55.0621 48.9745 54.8819 48.2851C54.8125 48.0507 54.8125 47.4303 54.8125 44.1764L54.8264 40.3435L55.0344 39.9161C55.284 39.406 55.4642 39.1716 55.8525 38.882C56.2962 38.5511 56.6429 38.4546 57.4887 38.4546C58.695 38.4546 59.735 38.5373 60.151 38.6614C60.7195 38.8407 61.2603 39.1164 61.7456 39.4611C62.633 40.1505 63.5205 41.4051 63.9226 42.5495L64.0474 42.8804L65.5033 42.8666L66.9593 42.8528L66.987 42.5495L67.0147 42.2462L67.6387 41.8325L68.2627 41.4327V39.5852C68.2627 38.5649 68.2766 37.6687 68.2904 37.586C68.3182 37.4481 68.3043 37.4205 68.0686 37.2827L67.819 37.1172V35.5316C67.7635 34.3459 67.7912 33.9875 67.8328 33.9875Z" fill="black"/>
<path d="M71.8154 41.2656C71.9679 41.5275 72.0373 41.7068 72.0095 41.7481C71.9957 41.7895 71.8293 41.9825 71.6767 42.1893L71.3716 42.5616L71.7876 42.9477C72.7029 43.7887 72.7445 43.8163 72.7584 44.0644C72.8 44.4505 72.7306 44.5332 72.0234 45.002C71.6628 45.2502 71.3578 45.4432 71.3578 45.4432C71.3578 45.4432 71.33 45.6224 71.3162 45.8292L71.2746 46.2153L71.649 46.3945L72.0234 46.5738L71.9263 46.8909C71.8431 47.1391 71.746 47.3872 71.6351 47.6216L71.4271 48.0352H70.6367L70.6505 44.3678L70.6644 40.7003L71.0388 40.6865C71.4826 40.6727 71.4687 40.6589 71.8154 41.2656Z" fill="black"/>
<path d="M54.8958 6.79915C54.8403 6.81295 54.7432 6.81295 54.5907 6.82675C54.2302 10.1358 54.0083 19.5801 61.2881 28.349C61.2881 28.349 48.2539 31.1754 48.2539 44.4115C48.2539 57.6475 61.2881 62.5558 61.2881 62.5558C53.2596 69.9735 53.8419 79.9006 54.3689 83.4854C54.4521 83.4854 54.5491 83.4992 54.6323 83.4992C56.6429 83.6095 57.5997 83.5543 58.8615 83.2234C62.8133 82.1893 67.1673 79.0044 71.4381 74.0133C78.4266 65.8373 83.4739 54.7521 84.0563 46.3555C84.6525 37.6004 79.5082 24.6815 71.9927 16.0781C70.7864 14.7269 69.5107 13.4586 68.1518 12.2728C67.1535 11.418 65.4341 10.1494 65.4341 10.2459C65.4341 10.2735 65.4063 10.2459 65.3786 10.1908C65.3509 10.1494 65.3093 10.1081 65.2815 10.1357C65.2677 10.1495 65.2261 10.122 65.2122 10.0806C65.1983 10.0392 65.1706 10.0117 65.1429 10.0255C65.1151 10.0392 65.0874 10.0254 65.0735 9.97025C65.0597 9.92885 65.0181 9.91515 64.9903 9.92885C64.9626 9.94265 64.9349 9.92884 64.9349 9.90134C64.9349 9.87374 64.8933 9.84615 64.8655 9.84615C64.8378 9.84615 64.7962 9.81855 64.7962 9.79105C64.7962 9.76345 64.7685 9.73585 64.7407 9.73585C64.6298 9.69455 64.5189 9.62555 64.4218 9.55665C64.1029 9.34985 62.6192 8.52255 62.3696 8.41225C60.5809 7.62635 58.9863 7.13005 57.3917 6.89565C56.629 6.81295 55.2286 6.74395 54.8958 6.79915ZM71.8125 41.2679C71.965 41.5299 72.0343 41.7091 72.0066 41.7505C71.9927 41.7918 71.8264 41.9849 71.6738 42.1917L71.3688 42.5639L71.7848 42.95C72.6999 43.791 72.7415 43.8186 72.7554 44.0668C72.797 44.4528 72.7277 44.5355 72.0205 45.0043C71.66 45.2525 71.3549 45.4455 71.3549 45.4455C71.3549 45.4455 71.3272 45.6248 71.3133 45.8316L71.2717 46.2176L71.6461 46.3969L72.0205 46.5761L71.9234 46.8932C71.8402 47.1414 71.7431 47.3896 71.6322 47.6239L71.4242 48.0376H70.6339L70.6477 44.3701L70.6616 40.7026L71.036 40.6888C71.4797 40.675 71.4658 40.6612 71.8125 41.2679ZM69.3166 34.3741C70.1069 34.5809 70.7448 34.7464 70.7725 34.7464C70.7864 34.8981 70.8003 35.0359 70.7864 35.1876V35.6288L72.2423 36.2217C73.0327 36.5526 73.7676 36.8559 73.8785 36.8973L74.0727 36.98L73.6012 37.2695L73.1298 37.559H69.2888L69.3166 37.6694C69.372 37.9037 69.5939 39.572 69.6632 40.3028C69.9683 43.3222 69.899 46.3555 69.4691 49.3612C69.3998 49.8437 69.3443 50.2574 69.3582 50.2712C69.372 50.2849 70.2595 50.2712 71.3549 50.2436L73.3239 50.2022L73.6844 50.4366C73.8785 50.5607 74.0449 50.6848 74.0588 50.6848C74.1004 50.7261 73.8785 50.864 73.2407 51.1811C72.5751 51.5258 71.8679 51.774 71.133 51.9532L70.7309 52.0498L70.7587 52.4772L70.8002 52.9046L70.2872 53.0149C70.0099 53.07 69.58 53.139 69.3443 53.1665L68.9006 53.2079L68.5817 53.5664C68.4014 53.7732 68.2211 53.98 68.1934 54.0214C68.1379 54.0903 68.0409 54.1179 67.9577 54.1179H67.7913L67.8052 52.3944L67.819 50.671L67.9993 50.6158L68.1796 50.5607L68.2073 49.9678C68.2212 49.6369 68.2489 48.5891 68.2766 47.6515L68.3182 45.9281L67.6249 45.4869L66.9316 45.0319V44.4528L65.4895 44.4666L64.0474 44.4804L63.7146 45.2387C62.6331 47.6791 61.399 49.113 59.9015 49.6507C59.5964 49.761 59.4855 49.761 58.0989 49.7886C56.7261 49.8024 56.6013 49.8024 56.2963 49.7059C55.6029 49.5128 55.0622 48.9751 54.8819 48.2858C54.8126 48.0514 54.8126 47.4309 54.8126 44.1771L54.8264 40.3441L55.0344 39.9167C55.284 39.4066 55.4643 39.1722 55.8525 38.8827C56.2963 38.5518 56.6429 38.4552 57.4887 38.4552C58.6951 38.4552 59.7351 38.538 60.151 38.662C60.7196 38.8413 61.2603 39.117 61.7457 39.4617C62.6331 40.1511 63.5205 41.4058 63.9226 42.5501L64.0474 42.881L65.5034 42.8672L66.9593 42.8535L66.9871 42.5501L67.0148 42.2468L67.6388 41.8332L68.2627 41.4334V39.5858C68.2627 38.5655 68.2766 37.6694 68.2905 37.5866C68.3182 37.4488 68.3043 37.4212 68.0686 37.2833L67.819 37.1179V35.5323C67.819 34.3052 67.8329 33.9467 67.8745 33.9467C67.8606 33.9881 68.5401 34.1673 69.3166 34.3741Z" fill="white"/>
<path d="M53.483 6.90816C52.8591 6.93576 51.9855 6.99096 51.5556 7.03226C45.2604 7.62516 40.1161 9.22447 34.6667 12.2578C34.4587 12.3819 34.2507 12.4922 34.0843 12.5611C34.0427 12.5887 34.0011 12.6025 33.9734 12.6163C32.6838 12.1889 27.2899 10.4379 21.1194 9.04527C12.7443 7.15637 2.95478 5.95687 0.0151492 9.62437C0.0151492 9.62437 -0.4563 15.9666 7.91886 24.4598C10.2345 26.7623 12.7443 28.8718 15.4204 30.7469L15.2263 31.3397C14.1032 34.759 13.4098 38.3024 13.1741 41.8734C13.0909 42.9488 13.0909 46.961 13.1741 48.2708C13.4376 52.2279 14.0338 55.2611 15.2402 58.708C15.2956 58.8459 15.3372 58.97 15.3788 59.094C12.7165 61.0381 10.2206 63.2027 7.93273 65.588C-0.484033 74.4258 0.00128224 81.0024 0.00128224 81.0024C3.03797 84.8905 13.2712 83.5669 21.9237 81.5539C27.6504 80.2303 32.6838 78.6034 34.5003 77.9967C34.5973 78.0381 34.7083 78.0933 34.8053 78.1484C41.3501 81.3609 47.6592 83.0981 54.3705 83.5117C53.8436 79.9132 53.2473 70 61.2897 62.5685C61.2897 62.5685 48.2555 57.6601 48.2555 44.4241C48.2555 31.1881 61.2897 28.3616 61.2897 28.3616C54.0099 19.5928 54.2457 10.1483 54.5923 6.83926C54.315 6.85306 53.899 6.88066 53.483 6.90816ZM29.2727 75.3909C29.2727 75.3909 16.3079 80.5474 8.90336 79.2238C7.6554 79.0032 6.55997 78.5896 5.728 77.9416C5.728 77.9416 6.31038 72.0957 16.8487 62.665C16.8487 62.665 17.7222 64.4574 19.5803 66.8564C19.5803 66.8564 19.5941 66.8702 19.5941 66.884C21.6047 69.4898 24.794 72.8264 29.2727 75.3909ZM48.5328 53.5101C48.6992 53.5928 48.8795 54.0064 48.9488 54.4752C49.0181 54.944 48.9765 56.3779 48.8795 57.1914C48.4912 60.1143 47.5899 63.2165 46.4806 65.4777C45.8566 66.7461 45.2327 67.6561 44.5532 68.3317L44.1511 68.7177L43.6242 68.7591C42.709 68.828 41.267 68.8142 40.7539 68.7039C40.3241 68.635 39.9081 68.4833 39.5337 68.2765C39.395 68.1662 39.395 68.1662 39.395 67.6699C39.395 67.0632 39.4921 66.5531 39.7555 65.7258C40.2825 64.03 41.5581 61.5069 43.4162 58.4322C44.9415 55.8953 45.6903 54.944 46.7164 54.2133C47.3542 53.7169 48.2555 53.386 48.5328 53.5101ZM43.9431 21.0267C44.165 21.068 44.8305 21.716 45.3159 22.3641C46.7163 24.2667 48.0198 27.6723 48.6437 31.1329C49.0043 33.1045 49.0597 35.0762 48.7685 35.669C48.5744 36.0551 48.4219 36.1102 47.9227 35.9723C46.8827 35.6828 45.7457 34.7453 44.678 33.2838C44.1372 32.5393 42.293 29.5198 41.5165 28.1135C40.2409 25.7971 39.4782 23.9221 39.298 22.6536C39.2425 22.2538 39.2286 21.7712 39.298 21.6195C39.395 21.3714 40.1299 21.0956 41.0174 20.9853C41.4888 20.9302 43.5687 20.9577 43.9431 21.0267ZM19.5803 23.3154L19.5664 23.343C17.7084 25.6593 16.8348 27.3965 16.8348 27.3965C6.29652 18.283 5.71414 12.6439 5.71414 12.6439C6.55998 12.0234 7.64153 11.6236 8.88949 11.403C16.294 10.1207 29.2727 15.098 29.2727 15.098C25.5427 17.18 22.2426 19.9788 19.5803 23.3154Z" fill="#FFA409"/>
<path d="M8.8905 11.3872C8.75182 12.4626 8.72409 17.5502 19.5823 23.3134L19.5684 23.341C17.7102 25.6573 16.8365 27.3945 16.8365 27.3945C6.29727 18.281 5.71484 12.6419 5.71484 12.6419C6.56076 12.0076 7.64242 11.6078 8.8905 11.3872Z" fill="#FF9300"/>
<path d="M29.2741 15.0852C25.5302 17.1809 22.2439 19.966 19.5816 23.3164C8.72443 17.5532 8.75217 12.4794 8.89083 11.3902C16.3092 10.1079 29.2741 15.0852 29.2741 15.0852Z" fill="#FF8300"/>
<path d="M8.93223 11.1838C8.91836 11.2527 8.90449 11.3217 8.89062 11.3906L8.93223 11.1838Z" fill="#FF8300"/>
<path d="M16.8365 62.6657C16.8365 62.6657 17.7102 64.458 19.5684 66.8571C19.5684 66.8571 19.5823 66.8709 19.5823 66.8846C8.71022 72.8546 8.75182 78.1077 8.8905 79.2383C7.64242 79.0177 6.54689 78.604 5.71484 77.956C5.71484 77.9422 6.29727 72.0963 16.8365 62.6657Z" fill="#FF9300"/>
<path d="M19.5816 66.8705C21.6061 69.4901 24.7815 72.8267 29.2741 75.3911C29.2741 75.3911 16.3092 80.5477 8.89083 79.2241C8.75217 78.1073 8.72443 72.8405 19.5816 66.8705Z" fill="#FF8300"/>
<path d="M8.89062 79.2247C8.90449 79.2936 8.91836 79.3763 8.93223 79.4453L8.89062 79.2247Z" fill="#FF8300"/>
<path d="M36.4718 29.0371C36.4718 29.0371 36.7492 33.4491 33.2823 32.8976C29.8154 32.3461 29.3994 28.8992 29.5381 27.9341C29.6768 26.969 31.0635 23.1085 33.9757 23.7978C36.8879 24.4872 36.3332 25.4523 36.4718 26.0039C36.6105 26.5554 36.4718 29.0371 36.4718 29.0371Z" fill="white"/>
<path d="M36.4718 61.5762C36.4718 61.5762 36.7492 65.9882 33.2823 65.4367C29.8154 64.8852 29.3994 61.4384 29.5381 60.4732C29.6768 59.5081 31.0635 55.6476 33.9757 56.337C36.8879 57.0263 36.3332 57.9915 36.4718 58.543C36.6105 59.0945 36.4718 61.5762 36.4718 61.5762Z" fill="white"/>
</g>
</g>
<defs>
<clipPath id="clip0_394_11517">
<rect width="90" height="90" fill="white" transform="matrix(0 -1 1 0 0 90)"/>
</clipPath>
</defs>
</svg>
