<svg width="90" height="90" viewBox="0 0 90 90" fill="none" xmlns="http://www.w3.org/2000/svg">
<g clip-path="url(#clip0_394_11746)">
<mask id="mask0_394_11746" style="mask-type:luminance" maskUnits="userSpaceOnUse" x="0" y="0" width="90" height="90">
<path d="M0 0L0 90H90V0H0Z" fill="white"/>
</mask>
<g mask="url(#mask0_394_11746)">
<path d="M90 45C90 20.1472 69.8528 0 45 0C20.1472 0 0 20.1472 0 45C0 69.8528 20.1472 90 45 90C69.8528 90 90 69.8528 90 45Z" fill="#F0F0F0"/>
<path d="M89.9997 45C89.9997 20.1473 69.8524 0 44.9997 0C39.4953 0 34.2224 0.990004 29.3477 2.799L29.3477 87.201C34.2224 89.0098 39.4953 90 44.9997 90C69.8524 90 89.9997 69.8527 89.9997 45Z" fill="#0052B4"/>
<path d="M90.0003 44.9982C90.0003 25.6498 77.7884 9.1553 60.6523 2.7971L60.6523 87.1992C77.7884 80.841 90.0003 64.3466 90.0003 44.9982Z" fill="#D80027"/>
<path d="M25.4336 78.3633H47.8819C60.6514 78.3633 64.5641 61.6815 64.5641 61.6815C64.5641 61.6815 60.6514 44.9998 47.8819 44.9998H25.4336L25.4336 78.3633Z" fill="#F0F0F0"/>
<path d="M25.4336 74.4492H47.8819C49.381 74.4492 50.7967 74.1163 52.124 73.4568V49.9044C50.7969 49.2448 49.381 48.9119 47.8819 48.9119H25.4336V74.4492Z" fill="#D80027"/>
<path d="M41.0867 53.8557V59.7251H37.1736V55.812H33.2605V59.7251H29.3477V63.6381H33.2605V67.551H37.1736V63.6381H41.0867V69.5078H44.9997V63.6381H48.9128V59.7251H44.9997V53.8557H41.0867Z" fill="#F0F0F0"/>
<path d="M57.5881 68.1198C59.1728 65.5982 60.0928 63.0075 60.502 61.6813C60.093 60.355 59.1728 57.7643 57.5881 55.2428C55.9899 52.6999 54.1621 50.9173 52.1257 49.9052C51.3073 51.0596 50.8684 52.4401 50.8701 53.8551C50.8701 54.3909 50.9335 54.9114 51.0501 55.4119C48.6405 56.4723 46.957 58.8797 46.957 61.6811C46.957 64.4825 48.6405 66.89 51.0501 67.9503C50.9308 68.4607 50.8704 68.983 50.8701 69.5071C50.8701 70.9785 51.3359 72.3406 52.1257 73.457C54.162 72.4454 55.9897 70.6628 57.5881 68.1198Z" fill="#0052B4"/>
</g>
</g>
<defs>
<clipPath id="clip0_394_11746">
<rect width="90" height="90" fill="white" transform="matrix(0 -1 1 0 0 90)"/>
</clipPath>
</defs>
</svg>
