<svg width="90" height="90" viewBox="0 0 90 90" fill="none" xmlns="http://www.w3.org/2000/svg">
<g clip-path="url(#clip0_394_11760)">
<mask id="mask0_394_11760" style="mask-type:luminance" maskUnits="userSpaceOnUse" x="0" y="0" width="90" height="90">
<path d="M0 0L0 90H90V0H0Z" fill="white"/>
</mask>
<g mask="url(#mask0_394_11760)">
<path d="M45 0C56.6625 0 67.275 4.425 75.2625 11.6812C75.5062 11.9062 75.75 12.15 75.9937 12.3938C76.1437 12.525 76.275 12.6562 76.4062 12.7875C76.5562 12.9187 76.725 13.0875 76.875 13.2375C84.975 21.375 90 32.5875 90 45C90 57.3938 84.975 68.6063 76.875 76.7625C76.725 76.9125 76.575 77.0625 76.425 77.1938C76.2562 77.3625 76.0875 77.5312 75.9188 77.6812C73.1813 80.2875 70.1063 82.5375 66.7688 84.375C60.3188 87.9562 52.8938 90 45 90C37.1062 90 29.6813 87.9562 23.2313 84.375C21.525 83.4563 19.8937 82.4062 18.3562 81.2625C18.1687 81.1312 18 81 17.8125 80.85C17.7 80.775 17.5875 80.6812 17.475 80.5875C16.8375 80.1 16.2187 79.5938 15.6187 79.0688C15.4125 78.9 15.2062 78.7313 15 78.525C14.7375 78.3 14.475 78.0562 14.2125 77.7937C14.0062 77.6062 13.8 77.4188 13.5938 77.2313L13.0687 76.7062C11.7562 75.375 10.5188 73.9687 9.375 72.4687C3.4875 64.8562 0 55.3313 0 45C0 34.65 3.4875 25.125 9.375 17.5312C11.5125 14.7375 13.9875 12.2063 16.725 9.9938C16.9313 9.825 17.1563 9.6375 17.3813 9.4687C17.5313 9.3562 17.6813 9.2437 17.8313 9.1312C18.1125 8.9062 18.4125 8.6812 18.7125 8.4937C19.0125 8.25 19.3312 8.025 19.65 7.8187C20.9437 6.9187 22.2938 6.1125 23.6813 5.3437C23.9438 5.2125 24.1875 5.0812 24.45 4.95C24.825 4.7437 25.2187 4.5563 25.6125 4.3688C31.4812 1.575 38.0625 0 45 0Z" fill="#FF64AB"/>
<path d="M13.7617 0.690605L17.2117 1.77811L24.4492 4.94691L26.193 5.71561L36.168 11.8656L42.243 13.7781L48.8242 12.4094L52.2367 11.6031L56.1367 12.5781L62.2117 12.8406L64.4617 12.0719L70.743 12.0344L74.8305 12.9156C74.8305 12.9156 75.3555 12.6906 75.993 12.3906C76.143 12.5219 76.2742 12.6531 76.4055 12.7844C76.5555 12.9156 76.7242 13.0844 76.8742 13.2344C84.9742 21.3719 89.9992 32.5844 89.9992 44.9969C89.9992 56.9781 85.3117 67.8344 77.6617 75.9156C77.418 76.1969 77.1555 76.4781 76.8742 76.7594C76.7242 76.9094 76.5742 77.0594 76.4242 77.1906L73.893 77.6594L69.8992 78.9906L68.043 79.1969L66.2617 78.5406L60.2992 78.7844L52.9867 79.3281L49.0305 78.3531L45.2992 78.5031L41.8305 77.3406L38.5492 75.9719L36.018 75.0156L32.5305 74.5844L29.0805 75.4656L23.3242 78.7094L17.8117 80.8469L14.3242 82.2156L11.343 83.8281L10.5742 83.2844L11.0805 80.9781L13.593 77.2281L14.3242 76.1406L17.5117 70.2344L21.1492 62.2656L20.3805 58.5906L20.643 55.1781L19.8742 49.3844L20.8117 44.2281L20.1555 37.3656L22.0117 34.2344L21.8992 31.4219L23.043 26.5094L22.518 23.1344L19.8742 16.2156L17.3805 9.46561L16.818 7.92811L14.5305 4.59061L12.9555 1.4594L13.7617 0.690605Z" fill="white"/>
<path d="M13.7812 0C13.9312 0 14.0812 0.0187973 14.2312 0.0562973C15.9562 0.524997 17.625 1.1438 19.2562 1.8C19.5562 1.9125 19.8562 2.0438 20.1375 2.1938C20.4375 2.325 20.7562 2.4188 21.0937 2.475C21.3187 2.4938 21.5437 2.55 21.75 2.6438C22.65 3.0188 23.5687 3.4125 24.45 3.825C24.8437 4.0125 25.2375 4.2 25.6125 4.3688C26.4562 4.7625 27.3 5.1375 28.1625 5.475C28.4625 5.5875 28.7625 5.7563 29.025 5.9438C29.8875 6.5438 30.7312 7.1625 31.575 7.7813C32.4937 8.4563 33.4312 9.1313 34.4437 9.6938C34.8375 9.9 35.2125 10.1438 35.5875 10.3875C36.675 11.1188 37.8937 11.5875 39.1875 11.8688C40.1062 12.0563 41.0062 12.2625 41.8875 12.6C42.6375 12.8813 43.425 12.8813 44.1937 12.7688C44.7187 12.6938 45.2437 12.5438 45.75 12.3938C46.575 12.1313 47.3812 11.9625 48.2437 11.925C48.825 11.8875 49.3875 11.7188 49.9312 11.5688C50.475 11.4188 51 11.2125 51.525 11.025C52.2 10.7625 52.8562 10.7438 53.5125 11.025C54.1125 11.25 54.7125 11.475 55.2937 11.7375C56.1187 12.1313 56.9625 12.1875 57.8437 12.0563C58.5562 11.9438 59.25 11.9438 59.9625 11.9813C60.825 12.0188 61.7062 12 62.5687 12.0188C62.7375 12.0188 62.85 11.9625 62.9812 11.85C63.4125 11.5125 63.9187 11.325 64.5 11.325C65.6437 11.325 66.7875 11.3438 67.9312 11.325C68.4562 11.3063 68.9812 11.2125 69.5062 11.175C69.9 11.1375 70.2937 11.1188 70.6875 11.1563C71.7937 11.25 72.9 11.4563 73.95 11.8125C74.325 11.9625 74.6812 11.9438 75.0187 11.7938C75.0937 11.7563 75.1875 11.7188 75.2625 11.6813C75.6562 12.0375 76.0312 12.4125 76.4062 12.7875C76.35 12.8438 76.2937 12.9188 76.2375 13.0125C75.9375 13.5188 75.6375 14.025 75.3187 14.5313C75.15 14.7938 74.9437 15.0375 74.625 15.15C74.25 15.3 73.9875 15.1875 73.8375 14.8125C73.7062 14.4375 73.575 14.0625 73.4437 13.7063C73.3875 13.5563 73.3312 13.4063 73.2375 13.2563C73.05 12.9375 72.7687 12.75 72.3375 12.7688C71.2312 12.7875 70.125 12.7688 69.0187 12.7875C68.55 12.7875 68.1 12.8063 67.6312 12.9375C66.7687 13.1813 65.9062 13.2188 65.0812 12.825C64.8 12.6938 64.575 12.7688 64.3687 12.9938C64.275 13.1063 64.2 13.2375 64.1062 13.3688C63.9375 13.6125 63.7875 13.8938 63.5812 14.1188C63.075 14.7 62.475 14.8313 61.7437 14.55C61.3875 14.4 61.0687 14.1938 60.75 14.025C60.5812 13.9313 60.4312 13.8188 60.2625 13.725C59.775 13.4813 59.3437 13.5188 58.9125 13.8375C58.8375 13.9125 58.7625 13.9688 58.6687 14.0438C58.425 14.25 58.125 14.3813 57.7875 14.4C57.5062 14.4 57.225 14.4 56.9437 14.3438C56.1375 14.1938 55.4062 13.9125 54.7125 13.5C54.225 13.2188 53.7375 12.9375 53.2312 12.6563C53.0437 12.5625 52.8375 12.4688 52.65 12.4125C52.3125 12.3188 52.0875 12.4313 51.9562 12.7313C51.9 12.8625 51.8625 13.0125 51.825 13.1625C51.75 13.4063 51.5625 13.5375 51.3 13.5563C50.9625 13.575 50.625 13.575 50.2875 13.5375C49.575 13.4813 48.8812 13.5188 48.1687 13.6125C47.0437 13.7813 45.975 14.1375 44.9062 14.55C44.5125 14.7 44.1 14.85 43.6875 14.9438C42.9187 15.15 42.15 15.1125 41.4562 14.7C40.5562 14.175 39.5625 13.8375 38.5125 13.6875C37.7625 13.5938 37.05 13.3875 36.3562 13.1438C36.1875 13.0875 36.0187 13.0313 35.8312 12.9938C35.3812 12.8813 34.9875 12.9563 34.65 13.2938C34.4812 13.4625 34.3125 13.65 34.1437 13.8188C33.7312 14.2688 33.3 14.7 32.8687 15.1313C32.3812 15.6 31.875 16.05 31.5 16.6125C31.4812 16.6688 31.425 16.725 31.35 16.7438C31.05 16.8563 30.9375 17.1 30.8625 17.3625C30.8437 17.4938 30.75 17.6063 30.675 17.7C30.4875 17.8875 30.3 18.0375 30.1125 18.1875C29.9625 18.3188 29.8125 18.4313 29.625 18.525C29.4187 18.6563 29.175 18.7313 28.875 18.675C28.9125 18.5438 28.9125 18.4313 28.9687 18.3375C29.1375 18.0938 29.2875 17.8125 29.5125 17.5875C29.8312 17.2313 30.1875 16.9125 30.5437 16.575C31.875 15.3188 33.075 13.95 34.1812 12.525C34.5375 12.0563 34.4812 11.8313 33.975 11.475L33.8812 11.4188C32.8875 10.7813 31.8937 10.125 30.9 9.4688C30.825 9.4313 30.75 9.375 30.6562 9.3375C30.45 9.5063 30.3937 9.75 30.3187 9.975C30.1125 10.6875 29.925 11.4 29.7 12.1125C29.475 12.7875 29.175 13.425 28.7062 14.0063C28.6125 14.1 28.5375 14.1938 28.4437 14.3063C28.2937 14.1938 28.275 14.1 28.3312 13.9688C28.5937 13.2375 28.8562 12.525 29.1 11.7938C29.3437 11.0438 29.5875 10.3125 29.8125 9.5625C29.8875 9.3563 29.9062 9.1125 29.9437 8.9063C29.025 8.3438 28.125 7.8 27.2437 7.275C27 7.125 26.775 6.9938 26.5312 6.8625C26.1375 6.6563 25.8937 6.7875 25.8187 7.2C25.7625 7.5563 25.6875 7.9313 25.5937 8.2875C25.4437 8.925 25.275 9.5438 25.3125 10.2188C25.3125 10.275 25.3125 10.35 25.275 10.3688C25.1062 10.5188 25.1062 10.725 25.05 10.9313C24.9937 11.0813 24.9375 11.2313 24.7125 11.3438C24.7125 11.1938 24.675 11.0813 24.6937 10.9875C24.7312 10.5188 24.75 10.0313 24.8437 9.5813C25.05 8.6625 25.2937 7.7625 25.5 6.8625C25.5187 6.7688 25.5375 6.6938 25.5375 6.6188C25.5562 6.3563 25.4625 6.225 25.2187 6.1688C24.975 6.1125 24.825 6.1875 24.6937 6.4125C24.6562 6.5063 24.6375 6.6 24.5812 6.6938C24.4125 7.0875 24.2437 7.4625 24.0562 7.8375C24.0187 7.9125 23.9625 7.9688 23.85 8.1C23.7937 7.65 23.7375 7.2563 23.9062 6.8813C23.9812 6.7125 24.0187 6.525 24.075 6.3375C24.1875 5.85 24.1125 5.6063 23.6812 5.3438C23.6625 5.325 23.625 5.3063 23.5875 5.2875C23.1937 5.0625 22.7625 4.875 22.35 4.6875C22.1062 4.5563 21.8437 4.4813 21.5812 4.3875C21.375 4.3125 21.1687 4.2563 20.9812 4.1813C19.575 3.5438 18.15 2.925 16.65 2.5125C16.575 2.4938 16.5 2.475 16.4625 2.4375C16.1062 2.1938 15.7312 2.0438 15.3187 1.9313C15.0562 1.875 14.7937 1.725 14.5312 1.6125C14.25 1.5 13.9687 1.4438 13.65 1.5188C13.65 1.5938 13.6687 1.65 13.6687 1.6875C13.9125 2.6438 14.4 3.4688 15.0187 4.2375C15.2625 4.5563 15.5062 4.8563 15.7312 5.175C16.6125 6.4125 17.3062 7.7438 17.8312 9.1313C18.0375 9.675 18.225 10.2375 18.3937 10.8188C18.7687 12.0938 19.2562 13.3125 19.875 14.4938C20.1187 14.925 20.3437 15.3563 20.5687 15.7875C21.0187 16.65 21.375 17.55 21.3937 18.525C21.3937 18.5813 21.3937 18.6375 21.4125 18.6938C21.4875 18.9563 21.5437 19.2188 21.6187 19.5C21.6375 19.6125 21.675 19.7438 21.7125 19.8563C22.0312 20.5688 22.5937 21.1875 22.8937 21.9188C22.9125 21.9563 22.9312 21.975 22.95 22.0125C23.85 23.3063 24.0375 24.7313 23.775 26.25C23.5875 27.2063 23.2875 28.1438 22.9875 29.0813C22.9312 29.25 22.9125 29.4 22.9687 29.5688C23.0625 29.8875 23.0437 30.225 22.9125 30.525C22.8375 30.7313 22.725 30.9188 22.6125 31.1063C22.2187 31.7625 22.1625 32.4375 22.425 33.15C22.5187 33.3563 22.6125 33.5625 22.725 33.7688C22.9875 34.3125 22.9312 34.8188 22.4812 35.2688C22.1625 35.5688 21.9375 35.9438 21.7125 36.3C21.5062 36.6375 21.2625 36.975 21.0187 37.2938C20.925 37.4063 20.9062 37.5 20.925 37.6313C20.9812 38.0813 21.0187 38.5313 21.075 39C21.2625 40.2938 21.4687 41.5688 21.375 42.8813C21.375 42.975 21.3937 43.0688 21.4125 43.1438C21.6375 44.0813 21.6375 45.0188 21.45 45.9563C21.3 46.6875 21.0937 47.4188 20.8875 48.15C20.6812 48.975 20.7 49.7813 21.0562 50.5875C21.1875 50.8875 21.2812 51.2063 21.3562 51.525C21.525 52.2938 21.45 53.0813 21.3937 53.8688C21.3 55.1813 21.2062 56.4938 21.1312 57.8063C21.075 58.8563 21.1687 59.8875 21.4312 60.9C21.675 61.8 21.675 62.7 21.5062 63.6188C21.3562 64.5 21.0187 65.325 20.5875 66.1125C20.2125 66.7875 19.9125 67.4813 19.8187 68.25C19.8 68.3438 19.7437 68.4563 19.6687 68.55C18.45 70.275 17.4 72.075 16.3875 73.9313C15.6937 75.225 14.9812 76.5188 14.2125 77.7937C13.3125 79.3312 12.375 80.8312 11.3438 82.3125C11.2313 82.4813 11.1375 82.6687 11.0625 82.8562C11.0062 83.025 10.9687 83.2125 11.0625 83.4375C11.175 83.3625 11.2875 83.3062 11.3625 83.2312C11.5687 83.0625 11.775 82.9313 12.0562 82.8375C12.3187 82.7625 12.6 82.65 12.675 82.3313C12.8625 81.5063 13.275 80.775 13.7812 80.0813C14.175 79.5563 14.5875 79.05 15 78.525C15.0187 78.4875 15.0562 78.4313 15.0937 78.3938C15.6 77.775 16.05 77.1375 16.4437 76.4438C16.8187 75.7875 17.2125 75.15 17.625 74.5313C18.825 72.7688 20.2687 71.175 21.6937 69.5813C21.7875 69.4688 21.9375 69.3938 22.0687 69.3563C22.8 69.1313 23.5125 68.925 24.2437 68.7188C24.4312 68.6813 24.6375 68.6625 24.8437 68.6813C25.0875 68.7 25.275 68.8313 25.35 69.0563C25.425 69.2625 25.3312 69.4688 25.1625 69.6C24.9937 69.7313 24.7875 69.825 24.5812 69.9C24.225 70.0313 23.8687 70.125 23.5125 70.2375C22.6312 70.5375 21.8812 71.0063 21.4125 71.775C21.0187 72.4313 20.5125 72.975 19.9312 73.4812C18.9937 74.3062 18.2062 75.2438 17.5312 76.275C16.9312 77.2125 16.2937 78.1313 15.6562 79.0313C15.6562 79.05 15.6375 79.05 15.6187 79.0688C15.1875 79.6875 14.7187 80.3063 14.2687 80.925C14.175 81.0188 14.1 81.15 14.0812 81.2812C14.0437 81.5437 14.2125 81.6563 14.475 81.5813C14.6062 81.5438 14.7187 81.4687 14.85 81.45C15.6187 81.3375 16.3312 81.0375 17.0625 80.775C17.2125 80.7187 17.3437 80.6625 17.475 80.5875C17.6812 80.4937 17.8687 80.4 18.0375 80.2688C18.225 80.1188 18.4687 80.025 18.6937 79.9125C18.825 79.8563 18.9375 79.8 18.9562 79.6312C18.9562 79.4625 18.8812 79.35 18.7125 79.2938C18.3937 79.1625 18.075 79.05 17.7375 78.9375C17.6625 78.9188 17.5875 78.9188 17.5125 78.8625C17.325 78.7688 17.2875 78.525 17.4187 78.3C17.5312 78.1125 17.6625 78.0563 17.8875 78.1688C18.15 78.3 18.3937 78.4688 18.6562 78.6188C18.9562 78.825 19.275 79.0313 19.5937 79.2375C19.65 79.275 19.7437 79.2938 19.8375 79.2938C19.9875 79.3125 20.1562 79.1813 20.1937 79.0688C20.2312 78.9188 20.1187 78.8625 20.0062 78.8063C19.95 78.7688 19.875 78.75 19.8187 78.6937C19.7437 78.6187 19.6687 78.525 19.5937 78.4313C19.6125 78.4125 19.6312 78.3938 19.6312 78.3563C19.7437 78.3563 19.8562 78.3375 19.9687 78.3563C20.1187 78.3938 20.2687 78.4688 20.4187 78.5438C20.925 78.8063 21.4312 78.7875 21.975 78.5438C21.8437 78.4688 21.75 78.3938 21.6562 78.3375C21.15 78.0563 20.6625 77.7938 20.175 77.5125C19.9687 77.4 19.9312 77.25 20.025 77.1188C20.1187 76.9875 20.325 76.95 20.475 77.025C20.55 77.0625 20.6062 77.1188 20.6812 77.1563C21.0937 77.4 21.4875 77.6625 21.9187 77.8688C22.4437 78.1313 23.025 78.1875 23.625 78.0188C24.0937 77.8688 24.525 77.6438 24.9187 77.3625C25.2562 77.1375 25.2562 76.95 24.9187 76.725C23.8312 76.0313 22.9687 75.1125 22.0125 74.2875C21.9375 74.2313 21.8812 74.1563 21.825 74.1C22.0125 73.8 22.0312 73.7812 22.2937 73.95C22.5937 74.1375 22.9125 74.3438 23.1562 74.5875C23.4375 74.8875 23.775 75.1313 24.1125 75.3563C24.7312 75.8063 25.35 76.2375 26.0062 76.7063C26.4 76.425 26.775 76.1625 27.15 75.8813C27.5062 75.6188 27.8812 75.375 28.3125 75.225C28.4625 75.1875 28.6125 75.1688 28.7625 75.1125C28.9687 75.0375 29.025 74.925 28.95 74.7375C28.7062 74.1938 28.4625 73.65 28.1812 73.1063C27.9562 72.675 27.5812 72.3375 27.0937 72.1313C26.8687 72.0375 26.7937 71.8688 26.8687 71.6438C26.9437 71.4375 27.0375 71.3813 27.2437 71.4938C27.6187 71.6813 27.9562 71.925 28.1812 72.2625C28.4812 72.675 28.725 73.1063 28.9875 73.5375C29.1 73.725 29.1937 73.9125 29.3062 74.1C29.6437 74.5688 30.0187 74.6625 30.5812 74.4563C30.7875 74.3813 31.0125 74.3062 31.2375 74.2687C31.6312 74.2125 32.0437 74.1563 32.4375 74.1188C34.2937 73.9313 36 74.2688 37.5375 75.3188C37.6312 75.375 37.7625 75.4313 37.8937 75.4313C38.9812 75.4688 39.9937 75.75 40.9687 76.2C41.6437 76.5188 42.3187 76.8938 43.0125 77.2125C43.4812 77.4188 43.9875 77.625 44.4937 77.775C45.6187 78.075 46.725 78 47.8687 77.8125C48.1875 77.775 48.5437 77.7563 48.8625 77.8125C49.3312 77.9063 49.8 78.075 50.2687 78.2063C50.55 78.3 50.8125 78.4125 51.075 78.4688C51.7687 78.6563 52.4625 78.7688 53.175 78.7875C54.15 78.7875 55.125 78.7875 56.1 78.7688C56.9625 78.7688 57.8062 78.675 58.6687 78.525C60.6937 78.2063 62.7375 77.9625 64.7625 77.7188C65.6625 77.625 66.525 77.7563 67.2937 78.225C67.7437 78.5062 68.2312 78.675 68.7187 78.8438C68.8687 78.9 68.9812 78.8813 69.0937 78.825C69.9937 78.45 70.8937 78.1125 71.7375 77.6813C72.7312 77.1938 73.7812 76.8938 74.8875 76.7438C75.5812 76.65 76.2375 76.5 76.875 76.2375V76.7625C76.5562 77.0813 76.2375 77.3813 75.9187 77.6813C75.4875 77.775 75.0562 77.9063 74.6437 78.0563C74.5312 78.1125 74.4 78.15 74.2875 78.225C73.8562 78.525 73.35 78.6188 72.825 78.6C72.4125 78.5813 72.075 78.6938 71.7 78.8625C70.7812 79.3313 69.7687 79.6125 68.7375 79.7813C68.0812 79.8938 67.5 79.6875 66.9937 79.3125C66.7312 79.125 66.45 79.05 66.1312 79.0313C65.0812 78.9563 64.05 78.9938 63.0187 79.0875C61.8937 79.2 60.7687 79.3688 59.625 79.4625C58.6687 79.5563 57.6937 79.6125 56.7187 79.65C55.425 79.6875 54.15 79.7438 52.8562 79.65C52.5187 79.6313 52.1812 79.6125 51.8625 79.575C51.5812 79.5375 51.3187 79.4813 51.075 79.3313C50.8875 79.2375 50.6812 79.1625 50.475 79.125C49.8 79.0125 49.125 78.9188 48.45 78.8438C48 78.8063 47.5687 78.8438 47.1187 78.9563C46.6125 79.0875 46.0687 79.0688 45.5437 78.9938C44.7 78.8813 43.8562 78.7313 43.0687 78.4313C42.8625 78.3563 42.6375 78.2813 42.45 78.1688C41.1937 77.4563 39.825 76.9313 38.4562 76.4625C37.1437 75.9938 35.7937 75.6188 34.4625 75.1875C33.2812 74.7938 32.1 74.9063 30.9375 75.3C29.8687 75.6563 28.875 76.1438 27.9 76.6875C27.4687 76.9313 27.0187 77.1563 26.625 77.4375C24.9562 78.5625 23.1 79.3688 21.225 80.1187C20.2687 80.5125 19.3125 80.8875 18.3562 81.2625C17.8875 81.45 17.4187 81.6375 16.95 81.825C16.5375 81.9937 16.125 82.1437 15.6937 82.2562C15 82.4437 14.3812 82.725 13.7625 83.0625C13.275 83.325 12.7875 83.5875 12.2812 83.8313C11.925 84 11.55 84.1125 11.175 84.2438C11.0812 84.2813 10.9875 84.3375 10.8937 84.375H10.5188C10.4438 84.3375 10.3687 84.2813 10.2937 84.2438C9.76875 84.0938 9.525 83.7562 9.43125 83.2875C9.4125 83.1937 9.39375 83.1188 9.375 83.025V82.7625C9.39375 82.7062 9.4125 82.65 9.43125 82.5938C9.4875 82.1062 9.69375 81.6563 9.99375 81.225C10.1062 81.0563 10.2188 80.8875 10.3688 80.7375C11.2875 79.8188 11.9437 78.7313 12.5625 77.625C12.7312 77.325 12.9187 77.0063 13.0687 76.7063C14.3812 74.4 15.675 72.0938 16.9687 69.7875C17.4375 68.925 17.925 68.0625 18.375 67.2C19.125 65.85 19.5562 64.3875 19.8937 62.9063C19.95 62.7375 19.9875 62.55 20.0437 62.3813C20.3062 61.35 20.2875 61.35 20.0812 60.225C19.8187 58.8375 19.575 57.4125 19.7062 55.9875C19.7812 55.1063 19.8562 54.2438 19.9312 53.3625C20.0437 52.2 19.95 51.0563 19.5187 49.95C19.4062 49.6688 19.3125 49.4063 19.2187 49.125C19.0312 48.6 19.0312 48.075 19.3312 47.5875C19.6687 47.025 19.8 46.3875 19.8937 45.7688C20.0812 44.4 20.175 43.0313 20.2312 41.6625C20.25 41.1188 20.1562 40.5938 19.9687 40.0875C19.575 39.0188 19.5 37.9313 19.6875 36.825C19.7812 36.2625 20.0437 35.7938 20.3812 35.325C20.5312 35.1188 20.6812 34.9125 20.8312 34.725C21.0187 34.4813 21.0937 34.2375 21.075 33.9563C21.0375 33.3938 21 32.8313 20.9812 32.2875C20.925 31.4438 21.075 30.6375 21.4125 29.85C21.9375 28.6125 22.2187 27.3375 22.2562 26.0063C22.2937 25.0875 22.1062 24.1688 21.825 23.2875C21.2625 21.5813 20.6625 19.8938 20.1 18.1875C19.7812 17.25 19.3875 16.35 18.975 15.45C18.3375 14.0438 17.7562 12.6188 17.175 11.1938C17.025 10.8 16.875 10.4063 16.725 9.9938C16.4437 9.2813 16.2 8.5875 15.9187 7.875C15.675 7.2375 15.375 6.6563 14.9812 6.0938C14.3437 5.175 13.7062 4.2375 13.0875 3.3C12.8437 2.9063 12.6562 2.4938 12.45 2.0625C12.3 1.725 12.225 1.35 12.3187 0.974998C12.3937 0.618798 12.6 0.356299 12.9375 0.206299C13.2187 0.0749988 13.4812 0 13.7812 0Z" fill="black"/>
<path d="M63.6758 43.875C63.5445 44.025 63.507 44.1751 63.657 44.3251C63.7695 44.4564 63.9008 44.5688 64.0508 44.6625C64.6695 45.0188 65.1195 45.525 65.4383 46.125C66.3945 47.9813 66.582 49.8938 66.0383 51.8625C65.682 53.1938 65.0258 54.4126 64.2758 55.5751C64.2195 55.6689 64.1258 55.7625 64.107 55.8563C64.0508 56.1188 63.882 56.3064 63.7133 56.4939C63.657 56.5501 63.6008 56.6251 63.6195 56.7001C63.6383 57.0564 63.4883 57.3563 63.3195 57.6563C62.7758 58.5375 62.4195 59.4938 62.1758 60.4688C61.8195 62.025 61.7445 63.5813 61.6133 65.1563C61.5945 65.2875 61.632 65.4188 61.6695 65.55C61.932 66.4313 62.1945 67.2938 62.457 68.175C62.5508 68.4563 62.5508 68.7188 62.4758 69C62.382 69.375 62.1758 69.6939 61.8945 69.9564C61.6508 70.1626 61.3695 70.35 61.1258 70.5563C60.8633 70.8 60.6383 71.0438 60.3945 71.2875C60.3383 71.3438 60.3383 71.4188 60.3008 71.5312C60.4133 71.4939 60.507 71.4938 60.582 71.475C61.2383 71.2875 61.8195 70.9689 62.2883 70.5189C62.7008 70.1439 63.0195 69.6938 63.2633 69.225C63.357 69.075 63.4695 68.9813 63.6383 68.9438C63.9008 68.8688 64.1633 68.775 64.4258 68.6813C65.2508 68.4 66.0008 67.9689 66.6383 67.3876C66.8633 67.1814 67.0883 67.0875 67.407 67.1813C67.6695 67.2375 67.932 67.2375 68.1945 67.2563C69.3195 67.2938 70.332 67.0125 71.307 66.525C72.4133 65.9813 73.407 65.3063 74.4008 64.6125C74.8695 64.275 75.2258 63.8438 75.5258 63.375C75.9945 62.625 76.2383 61.8 76.3133 60.9188C76.3883 60.2813 76.407 59.625 76.4258 58.9688C76.5008 57.3188 76.5945 55.65 76.4633 54C76.4445 53.7563 76.4445 53.5314 76.2758 53.3251C76.2195 53.2876 76.2008 53.2126 76.2008 53.1376C76.2008 52.5189 75.9383 51.9375 75.732 51.3563C75.5445 50.85 75.3195 50.3625 75.0383 49.9125C74.5695 49.1625 73.8758 48.675 72.9945 48.3938C72.1695 48.15 71.3445 47.8688 70.5008 47.6063C70.257 47.5125 70.0695 47.5688 69.8258 47.8125C69.9008 47.85 69.957 47.8875 70.0133 47.9063C70.5945 48.1688 71.1758 48.4313 71.7758 48.675C73.5383 49.3875 74.607 50.6439 75.0195 52.3876C75.2258 53.2689 75.3195 54.1689 75.4508 55.0689C75.507 55.5001 75.5633 55.9314 75.582 56.3814C75.657 57.8064 75.6195 59.2314 75.3758 60.6376C75.2633 61.2564 75.1508 61.875 74.9445 62.475C74.5695 63.6188 73.707 64.425 72.6383 65.0625C71.907 65.475 71.1195 65.7938 70.332 66.1125C70.0695 66.225 69.7883 66.3375 69.5258 66.4688C69.207 66.6188 68.8695 66.7313 68.4945 66.7125C68.082 66.7125 67.932 66.4688 68.082 66.1125C68.1945 65.85 68.3258 65.5876 68.4008 65.3251C68.6258 64.5189 68.532 63.7125 68.4195 62.9063C68.3633 62.325 68.2695 61.7438 68.2508 61.1625C68.2133 59.2313 68.4758 57.3188 68.8695 55.4063C69.0008 54.7125 69.1695 54 69.2258 53.2875C69.4508 50.7 68.7008 48.3564 67.032 46.2751C66.9758 46.2189 66.957 46.1439 66.9008 46.0876C66.8258 45.9751 66.7695 45.8625 66.6758 45.7875C65.9445 45.1875 65.2133 44.5875 64.482 43.9875C64.3695 43.8938 64.257 43.8189 64.1258 43.7626C63.957 43.6876 63.807 43.725 63.6758 43.875ZM68.1758 54.3938C68.157 54.675 68.1758 54.9563 68.1195 55.2375C67.8383 56.4187 67.6133 57.6188 67.5195 58.8188C67.3883 60.4875 67.4633 62.1188 67.8195 63.75C67.9695 64.3875 67.8758 65.0063 67.5758 65.5875C67.557 65.6438 67.5195 65.7 67.482 65.7563C67.2195 66.075 66.9195 66.0938 66.6758 65.7938C66.357 65.3813 66.0383 64.9688 65.7383 64.5563C65.457 64.1063 65.3445 63.6188 65.307 63.1125C65.1195 60.6563 65.832 58.3876 67.0133 56.2126C67.3133 55.6501 67.6508 55.1063 67.9695 54.5625C68.007 54.4875 68.0633 54.4313 68.1008 54.375C68.1195 54.375 68.1383 54.375 68.1758 54.3938Z" fill="black"/>
<path d="M42.414 37.762C42.189 38.4745 41.964 39.1683 41.7578 39.8808C41.4953 40.7995 41.289 41.7183 41.3452 42.6745C41.364 43.162 41.4203 43.6495 41.4765 44.1558C41.6078 45.1683 41.7578 46.162 42.0578 47.1558C42.564 48.9183 43.5203 50.3995 45.0578 51.562C45.1515 51.637 45.264 51.712 45.3765 51.7683C45.6578 51.8995 45.864 51.862 46.0515 51.637C46.1452 51.5058 46.2203 51.3558 46.2765 51.2058C46.8015 49.7808 47.139 48.2995 47.1202 46.762C47.1202 44.7558 46.6328 42.8433 45.5453 41.0995C44.814 39.9558 44.0265 38.8495 43.2577 37.7245C43.239 37.687 43.2015 37.6495 43.1828 37.612C43.0515 37.4995 42.939 37.3308 42.7328 37.3683C42.5265 37.4245 42.4703 37.5933 42.414 37.762ZM43.1077 40.8183C43.164 40.8745 43.1828 40.9683 43.2015 41.062C43.2578 41.3995 43.2765 41.7183 43.314 42.1308C43.2953 42.337 43.2577 42.5995 43.2202 42.862C43.2015 42.9933 43.2015 43.1245 43.1828 43.2558C43.1828 43.4245 43.1828 43.5745 43.164 43.7245C43.1453 43.9495 43.089 44.1558 42.8078 44.212C42.6203 44.2495 42.4515 44.2308 42.3015 44.1558C42.264 44.1183 42.2077 44.0808 42.1702 44.0433C42.1327 44.0058 42.0953 43.9683 42.0765 43.9308C42.0203 43.837 41.9827 43.7433 41.964 43.6308C41.814 42.9745 41.7577 42.2995 42.0015 41.6433C42.0952 41.362 42.264 41.0995 42.4327 40.8558C42.5265 40.7058 42.6765 40.6308 42.864 40.6683C42.9765 40.7058 43.0515 40.7433 43.1077 40.8183Z" fill="black"/>
<path d="M41.8864 65.0225C41.7926 65.1725 41.6989 65.3412 41.6239 65.51C41.0801 66.8787 40.4989 68.2475 40.1239 69.6912C39.9739 70.2725 39.8239 70.8537 39.8989 71.4162V71.885C39.9176 72.035 39.9176 72.2037 39.9739 72.3537C40.0114 72.485 40.1051 72.5787 40.2739 72.5975C40.5739 72.6162 40.8739 72.5787 41.0801 72.3162C41.3989 71.885 41.8301 71.6037 42.3176 71.36C42.6551 71.21 43.0114 71.06 43.3489 70.8912C44.4926 70.3475 45.3364 69.56 45.8426 68.4537C46.0489 67.985 46.1801 67.4975 46.2739 66.9912C46.4426 65.8662 45.7676 64.685 44.6239 64.235C43.5364 63.785 42.5051 64.085 41.8864 65.0225ZM43.3489 65.1162C43.5176 65.2475 43.4801 65.4162 43.4614 65.585C43.3301 66.2412 42.9739 66.785 42.4301 67.235C42.3926 67.2537 42.3739 67.2912 42.3551 67.31C42.2614 67.385 42.1489 67.4787 42.0176 67.4225C41.9801 67.4225 41.9801 67.4225 41.9426 67.4037C41.8864 67.385 41.8301 67.3475 41.7926 67.31C41.7364 67.235 41.6989 67.1787 41.6801 67.1037C41.6614 67.0475 41.6426 67.01 41.6426 66.9725C41.6239 66.935 41.6239 66.8787 41.6239 66.8412C41.6426 66.7287 41.6614 66.5975 41.7176 66.4475C41.7926 66.2225 41.9051 66.035 42.0364 65.8475C42.1489 65.6975 42.2614 65.5475 42.4114 65.4162C42.4489 65.3787 42.4676 65.36 42.5051 65.3225C42.5426 65.285 42.5989 65.2475 42.6551 65.21C42.7114 65.1725 42.7676 65.135 42.8051 65.1162C42.8426 65.0975 42.8989 65.0787 42.9551 65.06C43.0864 65.0412 43.2364 65.0412 43.3489 65.1162Z" fill="black"/>
<path d="M29.0807 23.946C28.6495 23.9835 28.3307 23.871 28.0682 23.6647C27.8057 23.4585 27.5807 23.2335 27.3745 22.9897C26.3245 21.771 25.4057 20.4585 24.6745 19.0522C23.362 16.5772 21.862 14.1772 20.4745 11.721C19.0682 9.22718 17.7182 6.71468 16.537 4.12718C16.4432 3.92098 16.3682 3.71468 16.312 3.48968C16.2557 3.28348 16.2745 3.02098 16.4995 2.90848C16.7057 2.81468 16.9495 2.90848 17.1182 3.05848C17.2495 3.17098 17.362 3.33968 17.4557 3.48968C17.6245 3.82718 17.737 4.18348 18.0182 4.46468C18.0932 4.55848 18.1307 4.68968 18.1682 4.80218C18.2807 5.08348 18.3745 5.38348 18.4682 5.66468C18.637 6.15218 18.8807 6.62098 19.162 7.07098C20.5682 9.22718 21.7682 11.4772 22.9495 13.7647C23.9057 15.6022 24.8432 17.4397 25.8182 19.2772C26.662 20.8522 27.6932 22.3335 28.8745 23.7022C28.9495 23.7585 28.987 23.8335 29.0807 23.946Z" fill="black"/>
<path d="M38.2139 15.3023C37.8764 15.6398 37.5389 15.846 37.1827 16.0335C36.5639 16.3523 35.9452 16.671 35.3077 16.9523C34.9889 17.0835 34.6514 17.1585 34.3139 17.2148C33.5452 17.3273 32.9264 17.7585 32.3077 18.1523C32.0077 18.3398 31.7639 18.621 31.4827 18.846C31.2577 19.0335 31.0514 19.0335 30.8827 18.8273C30.8077 18.7335 30.7702 18.5835 30.8077 18.4898C30.9014 18.2648 31.0702 18.0398 31.3514 17.9835C31.8577 17.9085 32.2327 17.6648 32.6077 17.3648C32.7389 17.271 32.8514 17.1773 33.0577 17.1773C33.1702 17.1773 33.3014 17.1023 33.4139 17.0273C34.1077 16.671 34.8014 16.3148 35.4952 15.9773C36.2827 15.6023 37.1077 15.3398 37.9889 15.2835C38.0452 15.3023 38.1014 15.3023 38.2139 15.3023Z" fill="black"/>
<path d="M29.082 15.2992C29.1758 14.9804 29.2133 14.6429 29.3445 14.3617C29.6258 13.7429 29.9258 13.1429 30.2445 12.5242C30.3383 12.3554 30.432 12.2054 30.432 11.9804C30.432 11.8867 30.507 11.7554 30.582 11.6992C30.7695 11.5867 30.9945 11.7179 30.9758 11.9242C30.957 12.0742 30.882 12.2242 30.8258 12.3742C30.7508 12.5804 30.6383 12.7679 30.582 12.9742C30.3758 13.7242 30.057 14.4367 29.6445 15.1117C29.532 15.2992 29.4008 15.3929 29.082 15.2992Z" fill="black"/>
<path d="M29.3047 24.0003C30.0359 23.8128 30.5609 23.9441 30.8609 24.3566C30.2797 24.7878 29.6234 24.6378 29.3047 24.0003Z" fill="black"/>
<path d="M27.487 74.7734C26.8682 74.6797 26.3432 74.0797 26.5307 73.1984C26.8682 73.7422 27.5432 74.0422 27.487 74.7734Z" fill="black"/>
<path d="M68.1743 54.3935C68.1556 54.6748 68.1743 54.9748 68.1181 55.256C67.8368 56.4373 67.6306 57.6373 67.5368 58.8373C67.4056 60.4873 67.4806 62.1373 67.8368 63.7685C67.9868 64.406 67.8931 65.0248 67.5931 65.606C67.5556 65.6623 67.5368 65.7185 67.4806 65.7748C67.2368 66.0935 66.9368 66.1123 66.6743 65.7935C66.3556 65.3998 66.0368 64.9873 65.7368 64.556C65.4368 64.1248 65.3243 63.6373 65.2868 63.1123C65.1181 60.656 65.8118 58.3873 66.9931 56.2123C67.2931 55.6498 67.6306 55.106 67.9681 54.5623C68.0056 54.506 68.0618 54.431 68.0993 54.3748C68.1181 54.3748 68.1368 54.3748 68.1743 54.3935Z" fill="white"/>
<path d="M43.311 42.1321C43.2923 42.3196 43.2548 42.5821 43.2173 42.8633C43.1985 42.9946 43.1985 43.1258 43.1798 43.2571C43.161 43.4071 43.161 43.5758 43.161 43.7258C43.1423 43.9508 43.086 44.1571 42.8048 44.2133C42.5048 44.2883 42.2048 44.1571 42.0735 43.9133C42.0173 43.8196 41.9798 43.7258 41.961 43.6321C41.811 42.9758 41.7548 42.3008 41.9985 41.6446C42.0923 41.3633 42.2798 41.1008 42.4298 40.8383C42.5235 40.7071 42.6735 40.6133 42.861 40.6696C43.0673 40.7258 43.1798 40.8571 43.2173 41.0633C43.2548 41.4008 43.2735 41.7196 43.311 42.1321Z" fill="white"/>
<path d="M41.625 66.8446C41.6437 66.7508 41.6625 66.6008 41.7187 66.4696C41.8875 66.0383 42.15 65.6446 42.525 65.3258C42.6187 65.2508 42.7125 65.1946 42.825 65.1383C42.9937 65.0446 43.2 65.0071 43.3687 65.1383C43.5375 65.2508 43.5 65.4196 43.4812 65.5883C43.35 66.2446 42.9937 66.8071 42.45 67.2383C42.3187 67.3508 42.1875 67.5196 41.9625 67.4258C41.7187 67.3133 41.6437 67.1071 41.625 66.8446Z" fill="white"/>
<path d="M54.3206 56.797C54.4706 57.1345 54.6206 57.472 54.7331 57.8283C54.9956 58.5783 55.2769 59.3095 55.6706 60.0033C56.2144 60.9595 56.9081 61.7845 57.8269 62.4408C57.9769 62.5533 58.0894 62.6845 58.2019 62.797C58.1269 63.0033 57.9769 63.0595 57.8269 63.1158C56.7581 63.4345 55.8956 64.0345 55.1456 64.8033C54.9956 64.9533 54.8081 65.1033 54.6206 65.2158C54.1519 65.497 53.6456 65.4783 53.1394 65.2908C52.8394 65.1783 52.6706 64.972 52.6519 64.672C52.6331 64.3533 52.6519 64.0158 52.6331 63.697C52.5769 62.6283 52.8206 61.6158 53.1394 60.6033C53.3456 59.947 53.5706 59.2908 53.6081 58.6158C53.6081 58.5595 53.6269 58.5033 53.6269 58.447C53.5331 57.922 53.8331 57.5095 54.0019 57.0408C54.0394 56.947 54.1331 56.8908 54.1894 56.8158C54.2456 56.7783 54.2831 56.797 54.3206 56.797Z" fill="white"/>
<path d="M53.5508 66L55.4258 65.2875L56.157 64.6125L57.4508 63.8062L59.1008 63.2437L58.5383 62.4375L56.3258 60.3L54.9195 56.1188L54.2445 56.3437L53.7195 57.1312L53.1195 59.5875L52.4445 62.1L52.2383 64.8187L53.5508 66Z" fill="#FF64AB"/>
<path d="M54.0742 56.0234C54.0555 56.1172 54.0367 56.2297 53.9617 56.2859C53.6992 56.5859 53.568 56.9234 53.4555 57.2797C53.2867 57.7484 53.118 58.2172 52.9492 58.6859C52.818 59.0047 52.6867 59.3047 52.5555 59.6234C52.293 60.2797 52.1055 60.9547 52.0492 61.6484C52.0305 61.9297 52.068 62.2109 52.0305 62.4922C51.9742 63.0547 51.8992 63.6172 51.8242 64.2359C51.8242 64.4047 51.843 64.5922 51.843 64.7984C51.9367 65.9609 52.9867 66.5234 53.8867 66.5234C54.693 66.5047 55.3305 66.1672 55.9117 65.6797C56.5492 65.1547 57.2055 64.6484 57.8617 64.1234C58.0867 63.9547 58.3492 63.8609 58.6305 63.8047C58.8742 63.7859 59.0992 63.7109 59.3242 63.6172C59.6242 63.4859 59.793 63.2422 59.8305 62.9234C59.868 62.5297 59.6805 62.2484 59.3242 62.0609C59.0805 61.9109 58.7992 61.7797 58.5555 61.6297C57.2617 60.8797 56.3992 59.8484 56.0617 58.4234C55.893 57.6734 55.593 56.9609 55.3117 56.2297C55.1617 55.7984 54.8242 55.6297 54.393 55.7234C54.2242 55.7609 54.1117 55.8547 54.0742 56.0234ZM57.8242 62.4359C57.9742 62.5484 58.0867 62.6797 58.1992 62.7922C58.1617 62.8859 58.1055 62.9609 58.0305 62.9984C57.9742 63.0547 57.8992 63.0734 57.8242 63.0922C57.543 63.1859 57.2992 63.2797 57.0555 63.3922C56.8117 63.5047 56.5867 63.6359 56.3617 63.7672C56.1367 63.9172 55.9305 64.0672 55.7242 64.2359C55.518 64.4047 55.3305 64.5922 55.143 64.7797V64.7984C54.993 64.9672 54.8242 65.0797 54.6367 65.1922C54.1492 65.4734 53.6617 65.4547 53.1555 65.2672C52.8555 65.1547 52.6867 64.9484 52.668 64.6484C52.6492 64.3297 52.668 63.9922 52.6492 63.6734C52.5742 62.6047 52.8367 61.5922 53.1555 60.5797C53.3617 59.9234 53.5867 59.2672 53.6242 58.5734C53.6242 58.5172 53.643 58.4609 53.643 58.4047C53.5305 57.8797 53.8305 57.4672 54.018 57.0172C54.0367 56.9609 54.0555 56.9234 54.1117 56.9047C54.1305 56.8672 54.168 56.8297 54.2055 56.7922V56.7734C54.243 56.7922 54.2805 56.7922 54.318 56.7922C54.4492 57.1297 54.618 57.4672 54.7305 57.8047C54.993 58.5547 55.2742 59.3047 55.668 59.9984C56.2117 60.9547 56.9055 61.7797 57.8242 62.4359Z" fill="black"/>
<path d="M77.6633 75.9219C77.4195 76.2031 77.157 76.4844 76.8758 76.7656L76.4258 76.7469L76.8758 76.2406L77.6633 75.9219Z" fill="black"/>
</g>
</g>
<defs>
<clipPath id="clip0_394_11760">
<rect width="90" height="90" fill="white" transform="matrix(0 -1 1 0 0 90)"/>
</clipPath>
</defs>
</svg>
