<svg width="90" height="90" viewBox="0 0 90 90" fill="none" xmlns="http://www.w3.org/2000/svg">
<g clip-path="url(#clip0_394_11785)">
<mask id="mask0_394_11785" style="mask-type:luminance" maskUnits="userSpaceOnUse" x="0" y="0" width="90" height="90">
<path d="M0 0L0 90H90V0H0Z" fill="white"/>
</mask>
<g mask="url(#mask0_394_11785)">
<path d="M88.0766 56.3872C87.9746 56.6591 87.8726 56.9295 87.7705 57.2014C87.8502 58.2734 87.6462 59.252 86.8172 60.022C86.6051 60.5121 86.3915 61.0022 86.1795 61.4923C86.1364 62.0805 85.7379 62.5153 85.5115 63.0243L85.5163 63.007C85.4111 63.2204 85.5211 63.5319 85.2197 63.6583C85.156 63.8006 85.0922 63.9445 85.03 64.0868C84.9949 64.3129 84.928 64.501 84.7829 64.7097C84.4035 65.2599 84.04 65.8449 83.9986 66.5437C83.9699 67.037 83.6462 67.3263 83.3019 67.6093C83.1966 67.818 83.0898 68.0251 82.9846 68.2338C82.9177 68.7429 82.7056 69.1508 82.1923 69.3485C82.0328 69.5745 81.8718 69.8006 81.7124 70.0267C81.3696 70.6544 81.0588 71.301 80.6172 71.8718C80.2298 72.3872 79.8423 72.901 79.4549 73.4164C79.1186 74.3904 78.3613 75.067 77.7236 75.8291C77.2613 76.5295 76.6459 77.1271 76.2936 77.9018C76.123 78.3888 75.7611 78.7129 75.3466 78.9911C75.0245 79.369 74.7041 79.7469 74.3821 80.1247C74.0728 80.5453 73.6806 80.8805 73.2741 81.203C73.0046 81.4607 72.7336 81.7168 72.4642 81.9745C71.9843 82.5737 71.2414 82.8615 70.7249 83.4164C69.9182 84.2323 68.9074 84.7856 68.0019 85.4749C67.4774 85.7832 66.929 86.052 66.4411 86.422C63.1458 88.1959 59.6034 89.1603 55.8936 89.5682C54.7202 89.8322 53.5213 89.799 52.332 89.8828C52.1359 89.8876 51.9398 89.8923 51.7438 89.8971C50.6453 90.0789 49.5389 89.9635 48.4389 89.9682C47.4154 89.9714 46.3887 90.0694 45.3684 89.9018C42.91 89.7042 40.5426 89.0117 38.1321 88.5595C37.5566 88.452 37.0129 88.1737 36.4533 87.973C35.7742 87.6773 34.9834 87.6821 34.3681 87.2125C34.0444 87.1066 33.7224 87.0022 33.3988 86.8963C32.9301 86.6623 32.4055 86.5469 31.9719 86.2417C31.7599 86.1437 31.5478 86.0473 31.3342 85.9492C30.9293 85.7927 30.5546 85.5825 30.2294 85.2915L30.2422 85.301C29.74 85.1524 29.3526 84.8204 28.9508 84.5121L28.9604 84.5184C28.3801 84.188 27.8301 83.8101 27.1079 83.8006C26.7045 83.7959 26.3968 83.4955 26.078 83.2662C25.8564 83.2188 25.6332 83.1698 25.4116 83.1224C24.9174 83.1366 24.5969 82.7398 24.1665 82.6022L24.1808 82.6006C23.398 82.0694 22.4941 81.7453 21.7926 81.0639C20.8377 80.1374 20.1027 79.1319 19.972 77.769C19.9449 77.4813 19.8317 77.1904 19.6181 76.988C17.9457 75.4085 16.5954 73.5445 15.0378 71.8655C14.66 71.4591 14.3156 71.0322 14.0319 70.55C13.4802 69.6125 12.7549 68.8425 11.6357 68.6212C9.6413 68.2275 7.98647 67.1303 6.26947 66.1564C5.71945 65.8449 5.17422 65.5239 4.71508 65.0813C4.22724 64.705 3.74896 64.3208 3.462 63.7564C2.71589 62.9658 2.50545 61.9034 2.02399 60.9785C1.55209 59.4465 1.356 57.9145 2.05109 56.3903C2.19138 56.082 2.32211 55.7548 2.68719 55.6236C2.83705 55.4765 2.98532 55.3311 3.13518 55.184C3.50664 54.901 3.86375 54.6038 4.07578 54.1738C3.84143 52.8378 3.40779 51.5603 2.87691 50.316C2.75256 50.0236 2.68241 49.7311 2.62821 49.4275C2.22327 48.4662 2.25994 47.4164 2.00805 46.4251L2.00964 46.4283C1.50745 44.7856 1.58876 43.0923 1.48991 41.407C1.42455 40.2797 1.56166 39.1271 1.23005 38.0172C1.16788 37.5998 0.850622 37.3105 0.686415 36.9453C0.260751 36.5421 0.330898 35.9492 0.112486 35.467C0.109297 35.3817 0.107703 35.2963 0.104515 35.2093C-0.137811 33.7247 0.0248024 32.335 0.605108 30.8963C1.46122 28.7714 2.84662 26.9817 3.96578 25.0275C4.21767 24.588 4.27347 24.0789 4.56522 23.6662L4.56203 23.6726C5.16944 22.2338 5.52336 20.6813 6.49266 19.4022C6.896 18.9991 7.04267 18.4473 7.32486 17.973C9.07374 15.0496 11.3089 12.5295 13.8597 10.2844C14.5691 9.6599 15.363 9.1066 16.1905 8.6449C17.7847 7.7564 18.966 6.2481 20.7436 5.6552C25.9648 3.9145 30.9771 1.5366 36.4757 0.637001C42.8813 -0.411199 49.1882 -0.223099 55.4568 1.6473C60.5886 3.1793 65.5467 5.0844 70.1557 7.7896C71.7866 8.7477 73.4032 9.8022 74.7264 11.1888C75.5379 12.0378 76.555 12.6386 77.3713 13.4575C82.3549 18.4647 86.3915 24.0915 88.5055 30.8868C89.6868 34.686 89.9786 38.6259 89.9961 42.5927C90.012 46.452 89.6517 50.2623 88.7207 54.0141L88.6968 54.0678L88.7 54.1263C88.6043 54.9121 88.7 55.7485 88.0766 56.3872Z" fill="#040404"/>
<path d="M22.9474 12.1735C21.4297 11.7561 20.2101 11.0399 19.4512 9.696C18.7546 8.4612 19.1483 7.217 20.4381 6.6035C21.8586 5.9284 23.3444 5.5158 24.9291 5.3672C26.9888 5.1743 29.0359 4.8375 31.0924 4.6051C33.0135 4.3869 34.9091 4.6146 36.7871 5.0304C37.1474 5.1094 37.5045 5.2011 37.9525 5.062C37.5587 4.4517 36.8253 4.4043 36.2466 3.9727C39.5467 3.6849 42.6667 4.1861 45.7818 4.7948C43.2087 3.1347 40.3231 2.9229 37.3642 2.8233C37.8552 2.7616 38.3447 2.6921 38.8357 2.6383C39.3363 2.583 39.8401 2.5387 40.3422 2.4944C48.1525 1.8146 55.4573 3.7181 62.5549 6.7347C67.4572 8.8185 71.9833 11.4905 75.7855 15.2249C80.487 19.8415 84.2064 25.1284 86.2789 31.4193C87.6053 35.4478 87.8062 39.6375 87.7631 43.8399C87.7312 46.9498 87.4235 50.0249 86.8863 53.1031C86.4622 55.5316 85.6954 57.8272 84.9939 60.164C84.1043 63.1316 82.6551 65.8257 81.2602 68.5766C78.9294 73.1727 75.497 76.8786 72.0901 80.6415C69.002 84.0549 65.1392 86.1719 60.7215 87.2549C54.217 88.8502 47.6439 89.0889 41.0597 87.6897C38.9282 87.2359 36.8508 86.5814 34.8644 85.6739C34.7018 85.5996 34.5057 85.5727 34.383 85.2929C36.5543 85.8415 38.697 86.134 41.0389 85.8794C39.1816 85.4573 37.3961 85.4494 35.5244 84.9023C36.6356 84.7079 37.6049 84.7 38.6715 84.1434C37.9445 84.0644 37.4216 83.9822 36.8971 83.9553C33.1936 83.7672 29.5508 83.2249 26.0419 82.0075C24.4444 81.4525 22.8279 80.877 21.6784 79.5221C21.2798 79.0525 20.9259 78.5529 20.8606 77.9284C20.7282 76.6699 21.6912 75.7276 23.1515 75.6676C24.116 75.628 25.0375 75.93 25.994 76.0438C24.9657 74.9261 22.7466 74.6857 21.527 75.5553C21.3117 75.7087 21.1411 75.9347 20.8558 75.6517C19.1691 73.9822 17.5732 72.2336 16.0268 70.2794C16.7346 70.2778 17.2097 70.7569 17.8426 70.5877C16.6932 69.9316 15.6187 69.1616 14.3544 68.6905C12.368 67.949 10.3481 67.3008 8.36645 66.5403C6.0532 65.6517 4.76026 63.862 3.65704 61.8494C3.02413 60.6936 2.78977 59.4241 2.80253 58.1118C2.81209 57.2012 3.115 56.4106 3.81966 55.7956C4.95476 54.8043 6.09305 53.8193 7.55817 53.3102C7.82281 53.2185 8.1034 53.1158 8.26442 52.7806C7.44657 52.5498 6.73235 52.8612 6.02609 53.1015C5.59565 53.2486 5.40753 53.1537 5.25926 52.7395C3.7798 48.6351 2.99862 44.4091 2.98905 40.047C2.98905 39.9774 3.02732 39.9079 3.0863 39.7055C4.38561 40.9387 5.99421 41.0051 7.64904 41.1347C7.37802 40.7569 7.00656 40.6557 6.66379 40.5513C5.45057 40.1798 4.26605 39.6217 3.49284 38.6842C2.52035 37.5063 1.52554 36.243 1.26249 34.6557C1.01378 33.1553 1.28002 31.6944 2.02454 30.3774C2.69731 29.1853 3.46414 28.0391 4.27242 26.9308C5.34216 25.4636 6.90771 24.5355 8.29949 23.4098C10.8598 21.3403 13.9352 20.1624 16.7028 18.4581C17.2671 18.1118 17.7884 17.7466 18.3114 17.1363C13.9049 18.2652 10.3274 20.7158 6.46132 22.9814C7.55019 20.6146 8.70443 18.4723 10.2333 16.5434C12.2995 13.9363 14.7195 11.7039 17.4903 9.843C18.0021 9.5 18.2731 9.4257 18.5919 10.1023C19.2504 11.5 20.4827 12.1909 21.9813 12.428C22.297 12.4818 22.6668 12.5561 22.9474 12.1735Z" fill="#F5E600"/>
<path d="M54.9059 69.3812C53.5349 68.9844 52.4859 68.0943 51.4735 67.1567C50.9952 66.7141 50.6923 66.5923 50.5377 67.4129C50.4468 67.8951 50.2045 68.3552 50.0004 68.8105C49.4026 70.1417 48.8015 70.5401 47.3524 70.4484C46.729 70.4089 46.4484 70.5876 46.4644 71.2073C46.4692 71.3639 46.4644 71.5283 46.4277 71.6801C45.7773 74.371 47.0638 76.3805 48.8079 78.1907C50.4261 79.8698 52.2037 81.3623 54.5137 82.3488C51.1036 82.5702 47.0415 79.0619 44.8478 74.1528C42.7801 76.4579 42.9905 81.1678 45.2799 83.7812C44.5226 83.7607 43.2663 82.5401 42.7928 81.3544C42.3385 80.2176 42.2986 79.0129 42.2875 77.6611C41.7072 78.1465 41.2608 78.5401 40.7936 78.9085C37.763 81.2927 34.4119 82.1386 30.6479 80.9591C28.8767 80.4042 27.1023 79.8619 25.339 79.2832C24.8448 79.122 24.3458 79.1741 23.8436 79.0777C24.6726 78.5939 25.5654 78.5164 26.4741 78.752C28.2453 79.2121 29.9512 79.8919 31.7383 80.3062C34.8088 81.016 37.5956 80.4042 40.0412 78.469C41.9543 76.956 43.3205 75.0303 44.3982 72.82C45.6561 70.2382 46.0052 67.5077 46.3113 64.7394C46.5202 62.8548 46.7258 60.9702 46.9347 59.0856C47.2982 55.8176 46.9777 52.5607 46.7816 49.3022C46.4644 44.0421 46.0164 38.7947 45.028 33.6089C44.4222 30.4295 43.92 27.2231 43.0495 24.1006C42.4166 21.8287 41.798 19.5583 40.4541 17.5267C38.6239 14.7599 36.4429 12.3773 33.6706 10.5322C32.7682 9.9314 31.9328 9.2405 30.93 8.7852C28.6582 7.7544 26.3705 7.7923 24.027 8.518C23.2761 8.7504 22.4805 8.8959 21.6707 8.8105C21.245 8.7662 20.8432 8.6824 20.5547 8.3062C20.7747 8.0911 20.9772 8.2445 21.1669 8.2556C22.2127 8.3188 23.2298 8.2619 24.1768 7.7291C24.8336 7.3591 25.5829 7.2516 26.3163 7.1457C28.7539 6.7931 31.0353 7.1631 33.2098 8.401C35.0575 9.4524 36.639 10.7504 37.932 12.42C38.7562 13.4856 39.8706 14.2982 40.6565 15.4018C40.8797 15.7148 41.0057 15.5805 41.1779 15.3417C41.7151 14.5939 42.0531 13.7212 42.7163 13.0508C43.185 12.5765 43.6649 12.1702 44.4333 12.0421C43.971 12.9417 43.3875 13.6532 43.0065 14.499C42.305 16.0595 42.085 17.5757 42.8231 19.1915C43.2663 20.1607 43.5629 21.1947 43.9487 22.2603C45.4887 19.786 47.3285 18.3394 49.3181 18.1575C48.3934 18.6982 47.9088 19.4097 47.2376 19.9599C46.2109 20.8026 45.4696 21.903 45.2081 23.2548C45.1348 23.6311 45.2432 23.8492 45.621 23.9647C47.8418 24.6445 48.6788 26.4374 49.3165 28.4247C49.5987 29.3038 49.9972 30.1386 49.7294 31.0967C49.6593 31.3449 49.8011 31.454 50.0419 31.3275C50.391 31.1457 50.7306 30.9465 51.0733 30.7552C51.3029 30.7141 51.5787 30.5575 51.6218 30.9749C50.0467 32.0848 48.9291 33.6231 47.7302 35.084C47.2567 35.6611 47.1037 36.3899 47.118 37.0919C47.1419 38.3552 47.2153 39.6532 47.7318 40.8137C48.6708 42.9243 50.2826 44.3251 52.6118 44.8168C52.9609 44.8911 53.3292 44.9022 53.7182 45.1267C53.0901 45.5172 52.438 45.484 51.8258 45.5583C51.3874 45.6121 51.3252 45.7148 51.4257 46.1417C52.0937 48.9512 53.9844 50.4484 56.709 51.0714C59.2566 51.6548 61.8536 51.8113 64.4539 51.9346C64.7328 51.9473 65.0134 51.9631 65.2845 52.0469C60.921 52.5196 56.5512 53.035 52.6851 50.167C51.7222 52.5607 50.5504 52.9686 54.1439 55.6832C53.4982 55.8761 53.0088 55.4793 52.4301 55.3038C52.3551 55.9362 52.2116 56.5133 51.9358 57.0556C51.7254 57.4682 51.9996 57.7401 52.2595 58.02C53.7357 59.6168 55.652 60.4152 57.6943 60.9892C57.9222 61.0524 58.1454 61.1283 58.3702 61.2026C58.3862 61.2073 58.3925 61.2437 58.442 61.3449C57.2048 61.6121 56.0745 61.2943 54.9665 60.8864C53.7852 60.4516 52.8876 59.5299 51.7557 58.9939C51.3013 58.7789 51 58.7884 50.6381 59.1299C49.9542 59.7765 49.1268 60.1148 48.1718 59.9994C47.7717 59.9504 47.7286 60.1022 47.7478 60.4263C47.7764 60.8975 48.0475 61.2706 48.2436 61.6643C49.8298 64.8484 51.998 67.5109 55.212 69.2184C55.228 69.4951 55.0574 69.4208 54.9059 69.3812Z" fill="#060606"/>
<path d="M27.8305 42.3926C27.3634 42.4969 26.9903 42.4084 26.6683 42.2408C24.9768 41.3602 23.2311 40.5871 21.5858 39.6147C19.3459 38.2898 18.1247 36.2724 17.2112 33.9056C16.0554 30.9127 16.2929 27.9736 17.0932 25.0092C17.5874 23.1736 18.8979 21.9341 20.5113 21.0329C22.3112 20.0274 24.0043 18.8195 25.9556 18.0954C26.96 17.7222 27.9803 17.3871 29.1282 16.9886C28.457 18.372 27.9468 19.6637 27.239 20.8384C25.3705 23.9341 24.9305 27.3064 25.1298 30.8084C25.2526 32.9633 25.2494 35.1262 25.5459 37.2716C25.7946 39.0629 26.0832 40.8289 27.6535 42.0463C27.7252 42.1017 27.746 42.2218 27.8305 42.3926Z" fill="#060606"/>
<path d="M30.3963 74.3438C29.2452 73.9437 28.2839 73.5659 27.2954 73.275C24.8865 72.5667 22.9782 71.0521 21.1082 69.5026C20.2058 68.7548 19.7547 67.6307 19.1377 66.6521C17.8814 64.66 17.5594 62.4781 17.9882 60.2094C18.3294 58.407 19.2477 56.965 20.9918 56.1097C23.1408 55.0567 25.3903 54.2821 27.6797 53.6086C27.9252 53.5358 28.1787 53.4946 28.4911 53.4978C27.5314 54.5286 27.2875 55.8772 26.704 57.063C26.5892 57.2954 26.4856 57.5563 26.4712 57.8093C26.2815 61.248 25.9834 64.6899 26.8475 68.097C27.1583 69.3255 27.702 70.4196 28.4816 71.3951C29.1926 72.2837 29.6868 73.2954 30.3963 74.3438Z" fill="#050505"/>
<path d="M32.2928 37.1009C32.9688 34.6788 32.8715 32.1777 33.0804 29.7065C33.2382 27.833 32.7185 26.1176 32.1589 24.388C32.0394 24.018 31.9246 23.6464 31.762 23.1278C32.3933 23.4092 32.422 24.0068 32.9385 24.3689C33.0772 22.225 31.9453 20.4512 31.5388 18.4718C34.8867 20.9334 36.0616 33.2511 34.0991 37.1531C34.0593 36.4669 34.4371 35.8504 34.2745 35.0204C33.5937 37.3097 33.3498 39.6686 31.1609 41.1562C31.145 40.6725 31.3825 40.4132 31.534 40.1238C31.5754 39.8282 31.6137 39.5469 31.7859 39.2733C32.2036 38.6156 32.2338 37.8519 32.2928 37.1009Z" fill="#040404"/>
<path d="M32.2622 72.034C32.9796 71.0316 32.8967 69.8158 33.0354 68.6996C33.3351 66.3059 33.6269 63.8806 32.6528 61.5312C32.5412 61.264 32.6384 60.9114 32.6384 60.5747C32.9716 60.5842 32.8887 61.0268 33.1311 61.0427C33.0561 58.6268 31.4635 56.8419 30.3555 54.8434C32.106 55.4616 33.1103 56.7644 33.7624 58.3154C35.1255 61.5581 35.6882 64.9272 35.0936 68.4355C34.9007 69.577 34.7763 70.7296 34.3602 71.8268C33.7927 73.3241 33.4754 73.6434 31.8541 74.2031C31.7568 73.6593 32.039 73.245 32.2813 72.8197C32.5029 72.551 32.302 72.2948 32.2622 72.034Z" fill="#050505"/>
<path d="M30.2249 22.6674C27.9212 26.7701 27.3026 31.1954 27.521 35.8516C25.7195 34.0381 27.5736 25.1195 30.2249 22.6674Z" fill="#121212"/>
<path d="M29.2355 58.2122C27.7512 62.1727 28.9485 65.8786 30.3068 69.5703C28.271 65.9561 26.9987 62.2628 29.2355 58.2122Z" fill="#1E1E1E"/>
<path d="M14.23 28.4447C14.1646 30.7799 13.8155 33.104 15.1961 35.2969C13.46 34.4684 12.9419 30.3989 14.23 28.4447Z" fill="#191919"/>
<path d="M16.3571 65.7578C14.6577 64.3855 14.1635 60.9009 15.4994 59.3736C15.238 61.5744 15.1168 63.7531 16.3571 65.7578Z" fill="#1D1D1D"/>
<path d="M27.2275 13.1909C26.7699 13.281 26.4112 13.1798 26.0493 13.1292C25.308 13.0233 24.5794 12.998 23.8939 13.3853C23.6675 13.5134 23.3423 13.6636 23.1781 13.4059C22.99 13.1087 23.3471 12.9537 23.5432 12.8146C24.5922 12.062 26.1864 12.2091 27.2275 13.1909Z" fill="#1A1A1A"/>
<path d="M54.9062 69.3802C55.0068 69.3264 55.1088 69.2727 55.2093 69.2205C55.8549 69.4387 56.5005 69.6568 57.1462 69.875C56.3379 69.9667 55.595 69.7865 54.9062 69.3802Z" fill="#636363"/>
<path d="M51.6226 30.9688C51.4393 30.8959 51.2576 30.8217 51.0742 30.749C51.3963 30.6083 51.7199 30.4659 52.0977 30.2999C52.0866 30.6936 51.8761 30.847 51.6226 30.9688Z" fill="#3F3F3F"/>
<path d="M47.8594 43.7843C48.7075 44.3282 49.6688 44.5416 50.0068 45.6373C50.3161 46.6396 50.7418 47.612 51.1818 48.5685C51.7095 49.7116 51.4321 50.7139 50.788 51.6926C50.5871 51.9977 50.2858 52.0562 49.9574 52.0547C48.1001 52.0483 48.1129 52.0468 48.0666 50.2159C48.0124 48.1132 47.9327 46.0136 47.8594 43.7843Z" fill="#FCFCFC"/>
<path d="M48.7607 30.1931C49.0557 31.8263 47.9795 32.8018 46.9768 33.8057C46.6754 34.1061 46.5431 33.937 46.4825 33.5844C46.0218 30.8666 45.4718 28.1678 44.7767 25.499C44.6571 25.0405 44.9042 24.9947 45.2343 25.0373C45.754 25.1053 46.2115 25.3599 46.5256 25.7488C47.1697 26.5441 47.7739 27.3741 48.3494 28.22C48.7496 28.8065 48.7974 29.499 48.7607 30.1931Z" fill="#FBFBFB"/>
<path d="M47.9264 56.0823C47.9679 55.2175 48.0268 54.3511 48.0412 53.4847C48.0476 53.0878 48.1719 53.0246 48.5593 53.0689C50.4501 53.2855 51.2839 54.1297 51.3939 56.0033C51.4656 57.2317 49.9957 58.9503 48.6598 59.2017C47.9519 59.3345 47.7478 59.1558 47.7957 58.4412C47.8483 57.6554 47.9009 56.8697 47.9519 56.0839C47.9439 56.0839 47.9344 56.0839 47.9264 56.0823Z" fill="#FBFBFB"/>
<path d="M47.3391 62.9001C48.0581 63.8535 49.0226 64.2994 49.4643 65.2179C49.9633 66.2551 49.3176 68.4954 48.3929 69.1847C47.9545 69.5104 47.4778 69.444 47.0251 69.3191C46.6074 69.2037 46.6711 68.7831 46.6408 68.4511C46.5579 67.5468 46.9326 66.7009 46.9772 65.8061C47.0219 64.916 47.1924 64.0322 47.3391 62.9001Z" fill="#FBFBFB"/>
<path d="M25.1443 40.2734C22.6509 39.4339 20.816 38.0078 19.3604 36.0537C18.0212 34.2545 17.5462 32.2292 17.6609 30.0315C17.6753 29.7707 17.645 29.5066 17.6227 29.2442C17.5701 28.6355 17.4808 28.1185 18.4692 28.294C19.2647 28.4347 20.3536 27.3232 20.6757 26.2813C20.9706 25.3296 20.7251 24.5675 19.9295 23.9825C19.81 23.8956 19.6777 23.826 19.5246 23.7343C21.1747 21.8308 23.3891 20.8758 25.5572 19.8497C25.6768 19.7928 25.8043 19.6964 25.9159 19.8102C26.1089 20.0078 25.943 20.2118 25.8649 20.3889C25.3038 21.6363 24.8701 22.9217 24.5879 24.2592C24.0029 27.026 23.8179 29.826 23.9375 32.6418C24.0443 35.162 24.3647 37.6616 25.1443 40.2734Z" fill="#FDFDFD"/>
<path d="M17.8536 27.0315C17.911 26.8766 17.7022 26.4829 18.0976 26.5588C18.5726 26.6505 18.9377 27.0189 19.0509 27.479C19.1115 27.7209 18.7432 27.8062 18.52 27.8047C18.0465 27.8031 17.8058 27.5454 17.8536 27.0315Z" fill="#DFDFDF"/>
<path d="M19.9567 25.9062C19.7909 25.4778 19.665 25.149 19.4609 24.621C20.0668 25.002 20.1512 25.3467 19.9567 25.9062Z" fill="#9E9E9E"/>
<path d="M28.271 72.6016C27.1566 72.3929 26.2766 71.7937 25.3854 71.2545C24.2104 70.5431 23.0993 69.732 22.0215 68.8751C21.4094 68.3897 21.1336 67.6972 20.7621 67.0759C19.8119 65.4885 19.1631 63.7778 19.0547 61.9107C19.018 61.2719 19.077 60.7913 19.9937 60.7454C21.0841 60.6901 22.6066 58.6506 22.0805 57.5723C21.9897 57.3858 21.8892 57.2118 22.1698 57.0458C22.4839 56.8609 25.438 55.6292 25.996 55.5439C24.6393 58.4166 24.4655 61.3889 24.7732 64.4276C25.0825 67.5122 26.4025 70.1573 28.271 72.6016Z" fill="#FDFDFD"/>
<path d="M19.4606 59.1677C19.6934 59.525 19.9421 59.8428 20.3167 60.1147C19.8671 60.2776 19.451 60.3977 19.1673 60.0436C18.8962 59.7084 19.1625 59.4285 19.4606 59.1677Z" fill="#E8E8E8"/>
<path d="M21.4976 57.5614C21.7255 57.9077 21.7558 58.2302 21.5757 58.5859C21.2967 58.1116 21.2967 58.1116 21.4976 57.5614Z" fill="#AEAEAE"/>
</g>
</g>
<defs>
<clipPath id="clip0_394_11785">
<rect width="90" height="90" fill="white" transform="matrix(0 -1 1 0 0 90)"/>
</clipPath>
</defs>
</svg>
