<svg width="90" height="90" viewBox="0 0 90 90" fill="none" xmlns="http://www.w3.org/2000/svg">
<g clip-path="url(#clip0_394_15269)">
<mask id="mask0_394_15269" style="mask-type:luminance" maskUnits="userSpaceOnUse" x="0" y="0" width="90" height="90">
<path d="M0 0L0 90H90V0H0Z" fill="white"/>
</mask>
<g mask="url(#mask0_394_15269)">
<path d="M89.1515 47.4997C89.1515 51.7383 88.4831 55.8835 87.1654 59.8196C85.092 66.0038 81.9097 70.347 80.1933 72.386C76.7755 76.4528 73.392 78.7158 70.9198 80.3702C64.0502 84.971 57.5793 86.9391 55.1148 87.5702C51.8603 88.4067 45.0857 90.147 36.5641 88.7055C31.3122 87.8167 27.4996 86.069 24.9819 84.9113C21.2831 83.2159 17.0907 81.2926 12.9971 77.2968C8.1325 72.5503 6.18819 67.5909 4.46794 63.2179C1.64262 56.0217 1.2249 50.1138 1.00085 46.9432C0.867939 45.0536 0.757813 43.347 0.757813 41.5395C0.757813 37.9918 1.20591 34.8773 2.17047 31.7329C2.88439 29.4026 3.96288 25.881 6.87553 22.5013C7.62743 21.6312 8.16288 21.1607 8.7287 20.664C9.31731 20.1486 9.98186 19.5661 11.0679 18.3785C12.7426 16.5449 13.5933 15.2752 14.4971 13.9308C15.0401 13.1241 15.5983 12.2914 16.3464 11.3279C18.7426 8.247 21.511 5.6627 24.1426 4.0532C28.3958 1.4466 32.4287 1.2822 40.4603 0.953598C46.2857 0.714598 50.4895 0.542798 55.8971 2.1038C60.1198 3.325 63.1654 5.0391 66.6895 7.0258C69.4654 8.5905 72.3363 10.2075 75.5603 13.098C79.1907 16.3507 81.3743 19.5138 82.149 20.7237C82.8705 21.8515 85.0616 25.2872 86.8008 32.1436C87.792 36.0573 89.1515 41.4237 89.1515 47.4997Z" fill="#F1C4A5"/>
<path d="M1.51899 41.537C1.51899 38.5868 1.82278 35.4573 2.89747 31.947C3.65696 29.4748 4.70127 26.181 7.45443 22.9843C8.93165 21.2702 9.46709 21.2478 11.6316 18.8764C14.3772 15.8702 15.0038 14.2831 16.9481 11.781C17.5899 10.9557 20.5747 7.1167 24.543 4.6856C28.6291 2.1835 32.5823 2.0229 40.4924 1.698C46.2911 1.459 50.3962 1.291 55.6823 2.8183C59.8215 4.0134 62.8443 5.7163 66.3152 7.6731C69.2165 9.3088 71.9506 10.8698 75.0494 13.6482C78.8962 17.0988 81.0418 20.3889 81.5051 21.1171C82.5911 22.8163 84.5013 26.1511 86.062 32.3204C87.0759 36.32 88.3899 41.5146 88.3899 47.4972C88.3899 51.2466 87.8734 55.3096 86.4418 59.5818C84.2013 66.2665 80.6658 70.6432 79.6063 71.9055C76.3215 75.808 73.0443 78.0412 70.4924 79.7478C63.2051 84.6287 56.5367 86.4287 54.9228 86.8432C51.4215 87.7432 44.8861 89.3528 36.6949 87.9636C31.6481 87.1084 27.9722 85.454 25.3025 84.2291C21.6873 82.571 17.5329 80.6665 13.5304 76.7602C8.78354 72.1258 6.85443 67.215 5.17595 62.9428C2.44557 55.993 1.99367 50.2383 1.75823 46.8847C1.63671 45.1407 1.51899 43.3744 1.51899 41.537ZM0 41.537C0 43.3706 0.110127 45.0885 0.243038 46.9856C0.470886 50.1972 0.892405 56.176 3.75949 63.4768C5.50633 67.9208 7.48101 72.9586 12.4595 77.8171C16.6519 81.9063 20.9089 83.8594 24.6608 85.581C27.2203 86.7536 31.0861 88.5275 36.4405 89.4349C45.1215 90.9063 52.0025 89.1362 55.3101 88.2885C58.4165 87.4893 64.6329 85.4802 71.3506 80.9839C73.7165 79.4005 77.2937 77.0067 80.7797 72.8578C82.5266 70.7777 85.7734 66.3524 87.8886 60.0486C89.2329 56.0378 89.9127 51.8142 89.9127 47.4972C89.9127 41.3316 88.5418 35.9129 87.5392 31.9582C85.7734 24.986 83.5329 21.4756 82.7962 20.3217C82.0063 19.0856 79.7734 15.859 76.0785 12.5428C72.7937 9.5963 69.8848 7.9607 67.0747 6.3773C63.5089 4.3681 60.4253 2.6316 56.1152 1.3843C50.5899 -0.2103 46.3291 -0.0384993 40.4354 0.204201C32.2709 0.540301 28.1696 0.708402 23.7456 3.4158C20.9962 5.1001 18.2316 7.6768 15.7481 10.8735C14.9848 11.8557 14.4152 12.7034 13.8684 13.5212C12.9835 14.8432 12.1443 16.0868 10.5076 17.8793C9.4481 19.037 8.79873 19.6046 8.22911 20.1088C7.64051 20.6241 7.08608 21.1096 6.3038 22.0208C3.29241 25.52 2.18354 29.1275 1.45063 31.5175C0.459494 34.7291 0 37.9146 0 41.537Z" fill="#3C2415"/>
<path d="M21.4922 17.4141C21.7124 17.2236 21.9327 17.0331 22.1567 16.8464C21.8947 17.0145 21.6745 17.2087 21.4922 17.4141Z" fill="#3C2415"/>
<path d="M22.167 16.8427C22.1632 16.8464 22.1632 16.8464 22.1594 16.8464C21.9354 17.0331 21.7151 17.2236 21.4949 17.414C20.2265 18.848 20.6518 20.9879 20.6518 20.9879C20.7202 21.2045 20.7468 21.309 20.7848 21.4136C21.5746 23.6244 21.4189 25.1144 18.8784 26.4812C16.6911 27.6576 16.6455 30.5144 16.748 32.8709C16.9417 37.4717 18.7455 41.5236 21.7189 45.0377C22.4215 45.8667 22.5354 46.4941 22.2164 47.5136C21.0506 51.2256 22.1746 54.7211 23.7658 58.0223C24.9354 60.446 26.405 62.7725 29.1354 63.9227C29.3974 64.0348 29.5569 64.4381 29.7088 64.7294C30.8329 66.8841 32.7392 68.1389 34.9227 69.0464C35.3139 69.2107 35.8265 69.1061 36.2822 69.1248C36.3316 68.9493 36.3734 68.7738 36.4227 68.5983C36.005 68.363 35.5835 68.1314 35.1696 67.885C34.3075 67.3696 33.3885 66.9252 32.6025 66.309C30.5025 64.6696 30.2366 63.1871 31.448 60.558C32.0784 59.18 33.7835 58.5153 35.9025 58.7655C36.624 58.8476 37.9607 58.9559 37.9911 58.8178C38.2835 57.5966 37.2734 58.041 36.6658 58.0111C36.381 57.9962 36.0923 58.0709 35.948 58.0821C35.0025 54.8107 34.0949 51.6215 33.1607 48.4397C32.2265 45.258 30.6392 44.1825 27.2177 44.1713C26.5683 44.1675 25.7746 43.8837 25.3037 43.4505C22.7632 41.1427 20.9366 37.2738 20.9101 33.4236C21.1759 33.8418 21.548 34.2302 21.6847 34.6858C22.543 37.5277 23.7392 40.1941 25.862 42.3563C26.3291 42.8344 27.0126 43.1182 27.867 43.2265C22.7708 38.2821 22.0797 32.109 21.8974 25.7754C22.1101 25.7306 22.3151 25.6821 22.5278 25.6335C22.6645 26.7613 22.7063 27.9153 22.9797 29.0132C23.1734 29.7713 23.6898 30.4472 24.0658 31.1642C24.1037 30.4397 24.1835 29.7153 24.1645 28.9908C24.1417 28.1916 24.0278 27.3962 23.9139 26.231C24.4379 26.6866 24.7721 26.8435 24.8936 27.1012C26.8721 31.3248 28.6493 35.597 28.167 40.4182C28.1253 40.814 28.5126 41.2547 28.7025 41.6767C28.9303 41.2622 29.3746 40.8364 29.348 40.4443C29.1885 38.0617 29.1468 35.6344 28.6151 33.3265C28.1253 31.1792 27.1493 29.1215 26.2227 27.0974C25.8885 26.3617 25.1974 25.5887 24.4683 25.2563C22.1063 24.1846 21.1949 20.7302 22.9037 18.7883C23.8341 17.7352 24.8366 17.541 26.0177 18.4485C26.3784 18.7248 26.8835 18.8107 27.324 18.99C27.1379 18.5082 27.0278 17.9779 26.743 17.5597C26.5227 17.246 26.0898 17.0742 25.3379 16.5551C25.3417 16.5551 24.2253 15.5169 22.167 16.8427ZM25.6531 45.1348C25.8658 45.146 26.0784 45.1572 26.2949 45.1646C26.4316 45.9787 26.5683 46.7966 26.724 47.719C26.2227 47.9169 25.7632 48.0999 24.9582 48.4211L25.6531 45.1348ZM30.0088 60.3937L29.5569 62.5335C25.2278 61.0099 21.5329 51.6066 23.6632 47.4651C24.1569 49.9671 24.5974 52.3983 25.1253 54.8144C25.7063 57.4846 27.567 59.1315 30.0088 60.3937ZM30.2139 59.0157C27.7227 58.0746 26.4961 56.3007 25.9075 52.4729C26.4544 52.402 27.005 52.331 27.3999 52.2788C28.3797 54.624 29.3139 56.8572 30.2139 59.0157ZM31.2885 47.1812C32.4885 50.5124 33.5177 53.9107 34.6151 57.3053C33.4303 57.7124 32.648 57.9812 31.6531 58.3211C28.7746 54.9414 28.6949 50.6692 28.0835 46.5576C28.3607 47.2373 28.5847 47.9505 28.9417 48.5891C29.0974 48.8655 29.5265 48.9924 29.8341 49.1904C29.8911 48.8281 30.0696 48.436 29.986 48.1111C29.7847 47.3306 29.462 46.5763 29.1885 45.8144C29.3139 45.7024 29.4354 45.5941 29.5607 45.4858C30.1531 46.046 31.0417 46.5016 31.2885 47.1812ZM19.1518 32.3032C19.3797 36.4746 20.8531 40.1306 23.6139 43.3012C24.3734 44.175 24.3392 44.2049 23.348 45.131C19.4556 40.5601 17.1734 35.5783 18.2442 29.5285C18.3961 29.4987 18.5518 29.4688 18.7037 29.4389C18.8594 30.3949 19.0987 31.3435 19.1518 32.3032ZM12.6696 43.9285C12.586 41.9007 12.4835 39.8692 12.343 37.8451C12.1797 35.4812 12.5974 33.375 13.3797 31.4256L12.081 32.5348L11.0139 35.6231L10.6797 40.7729C11.0366 42.1696 11.3974 43.5626 11.7544 44.9592C11.9746 44.9443 12.1911 44.9256 12.4075 44.907C12.5025 44.5783 12.681 44.2497 12.6696 43.9285Z" fill="#3C2415"/>
<path d="M34.6136 57.3124C33.4288 57.7194 32.6465 57.9846 31.6515 58.3281C28.7731 54.9485 28.6933 50.6763 28.0781 46.5646C28.3553 47.248 28.5794 47.9576 28.9364 48.5962C29.092 48.8725 29.525 49.0032 29.8288 49.2012C29.8857 48.8389 30.0642 48.4505 29.9807 48.1256C29.7794 47.3414 29.4566 46.5908 29.1832 45.8252C29.3085 45.7169 29.43 45.6086 29.5553 45.4966C30.1477 46.053 31.0401 46.5049 31.287 47.1846C32.487 50.5194 33.5161 53.914 34.6136 57.3124Z" fill="#67629E"/>
<path d="M23.6633 47.4628C24.157 49.9611 24.5975 52.396 25.1216 54.8122C25.7026 57.486 27.5671 59.1292 30.0089 60.3914C29.8608 61.086 29.7089 61.803 29.557 62.5312C25.2317 61.0077 21.533 51.6117 23.6633 47.4628Z" fill="#67629E"/>
<path d="M18.7094 29.437C18.8651 30.393 19.1043 31.3415 19.1575 32.3013C19.3853 36.4689 20.855 40.1287 23.6195 43.2992C24.379 44.1731 24.3448 44.2029 23.3537 45.1328C19.4651 40.5619 17.179 35.5801 18.2537 29.5266C18.4018 29.4967 18.5537 29.4668 18.7094 29.437Z" fill="#CE947B"/>
<path d="M30.2125 59.0156C27.7175 58.0745 26.4947 56.3007 25.9023 52.4729C26.453 52.4019 26.9998 52.331 27.3947 52.2787C28.3783 54.6202 29.3125 56.8571 30.2125 59.0156Z" fill="white"/>
<path d="M26.2899 45.1654C26.4267 45.9796 26.5634 46.7974 26.7229 47.7198C26.2216 47.9177 25.7621 48.1007 24.957 48.4219C25.2267 47.1559 25.4393 46.1439 25.652 45.1356C25.8646 45.1468 26.0773 45.1542 26.2899 45.1654Z" fill="white"/>
<path d="M25.1585 20.4782C25.018 19.9069 24.9041 19.4401 24.7636 18.8874C23.5674 19.8546 22.9825 21.9011 23.6433 22.8496C23.9395 23.2753 24.5965 23.4658 25.0901 23.7608C25.2003 23.6114 25.3104 23.4583 25.4205 23.3052C25.1737 22.8907 24.9306 22.4799 24.68 22.0579C28.6028 20.6201 31.3863 21.1728 33.6382 24.1417C39.7028 32.1596 42.6496 41.2417 42.4332 51.2052C42.3724 53.9537 41.5977 56.7396 40.7889 59.4023C40.1851 61.3928 38.2484 62.3973 36.156 62.3301C36.5623 61.8782 36.9003 61.5011 37.599 60.7243C36.6231 60.7691 35.6623 60.7728 35.6547 60.8176C35.5825 62.2741 35.5218 63.7417 35.6623 65.1907C35.7155 65.7172 36.2889 66.199 36.6231 66.7031C36.7977 66.5948 36.9762 66.4903 37.1509 66.382C36.9648 65.5604 36.7825 64.7388 36.5889 63.8687C39.8509 63.1479 41.8674 61.2098 42.6307 58.1737C43.1091 56.2616 43.2534 54.2637 43.599 52.3106C43.7243 51.6048 43.9939 50.9214 44.3243 49.8235C44.8484 50.7907 45.0838 51.2276 45.5319 52.0567C45.9724 50.9774 46.242 50.3164 46.4851 49.7226C47.1914 49.6778 47.7876 49.6405 48.8623 49.5733C46.2231 47.4334 46.5231 45.2189 47.9737 42.4928C46.899 42.9446 46.3674 43.1687 45.5547 43.5085C45.6686 42.321 45.7598 41.3089 45.8661 40.1961C44.7231 40.5658 43.8003 40.8571 42.8243 41.1708C42.38 39.7218 41.9433 38.4484 41.6167 37.145C41.5294 36.794 41.7686 36.3608 41.856 35.965C42.2623 36.1181 42.7028 36.2077 43.0598 36.4318C43.4699 36.6894 43.8041 37.0629 44.1686 37.384C44.3091 37.2832 44.4496 37.1861 44.5939 37.0853C44.2142 35.8006 43.5155 34.5085 43.5496 33.2351C43.5876 31.9728 44.3623 30.7367 44.8446 29.4185C43.8762 29.5753 43.1015 29.7023 42.3231 29.8293C42.1939 29.0002 42.061 28.1786 41.9319 27.3533C41.7952 27.2413 41.6623 27.133 41.5218 27.0247C41.3623 27.2562 41.18 27.4766 41.0433 27.7193C40.0256 29.467 38.7382 29.4745 37.6256 27.7865C36.5889 26.2181 35.5598 24.6309 34.3939 23.1521C32.4382 20.6649 29.8332 19.6791 26.6547 20.2691C26.1458 20.3662 25.6256 20.4147 25.1585 20.4782ZM46.3332 48.4865C45.2737 48.8077 44.6167 49.0131 43.7357 49.282C43.561 46.9069 43.3901 44.6849 43.2724 42.4629C43.2686 42.3583 43.7509 42.2313 44.1458 42.0446C44.8712 44.1658 45.5585 46.2048 46.3332 48.4865ZM42.5965 31.7264C41.8104 32.6338 43.1509 34.5347 40.8762 34.9156C40.2914 33.4629 39.7142 32.0176 39.1332 30.5762C40.4471 29.9338 40.4471 29.9338 42.5965 31.7264Z" fill="#3C2415"/>
<path d="M70.4716 43.8054C69.3703 46.3149 68.307 48.8431 67.1374 51.319C66.9551 51.7074 66.2792 51.8717 65.8311 52.1406C65.8691 51.6327 65.7475 51.039 65.9716 50.6282C70.8741 41.6991 70.0425 32.6207 66.2374 23.7215C63.8678 18.1759 58.4906 15.5244 53.3488 12.873C52.3501 12.3576 51.2602 12.0215 50.2577 11.5099C49.9842 11.368 49.8855 10.8975 49.707 10.5763C50.064 10.4643 50.5007 10.1618 50.7665 10.2664C59.6526 13.8626 68.0678 19.0087 69.7615 29.3867C70.5285 34.1294 71.2007 38.8796 70.4716 43.8054Z" fill="#3C2415"/>
<path d="M65.4012 41.1797C66.1265 36.661 66.0506 32.3141 64.1139 28.027C62.2227 23.8444 59.7923 20.1697 55.6797 17.3577C57.6848 17.1635 60.9924 20.1249 62.8341 23.3104C66.7683 30.1257 68.0291 38.0054 65.4012 41.1797Z" fill="#3C2415"/>
<path d="M51.0525 37.936C49.4918 38.6194 48.9221 37.6858 48.4627 36.8157C46.9778 34.0148 48.2576 29.6941 50.9728 28.1518C53.0804 26.953 55.207 27.2256 56.4791 29.2348C53.6386 28.3348 51.1437 28.2937 49.8259 31.0534C48.6715 33.4659 48.5196 35.8821 51.0525 37.936Z" fill="#3C2415"/>
<path d="M61.6016 13.112C66.7054 13.4892 73.7041 22.6199 73.2598 28.4531C71.4332 21.8133 68.1978 16.2266 61.6016 13.112Z" fill="#3C2415"/>
<path d="M22.5891 64.5312C21.7271 64.296 21.0701 64.3147 20.8005 64.0084C19.7334 62.791 18.6018 61.5699 17.8461 60.1658C17.1359 58.8475 16.8435 57.3051 16.4296 55.8449C16.3613 55.5985 16.6119 55.2624 16.7144 54.9711C16.9878 55.1317 17.379 55.2289 17.5081 55.4641C17.7549 55.9197 17.8726 56.45 18.0056 56.9579C18.6929 59.5384 19.5587 62.0069 22.0499 63.5231C22.2094 63.6164 22.2587 63.8964 22.5891 64.5312Z" fill="#3C2415"/>
<path d="M46.3343 48.4859C45.2748 48.8108 44.6217 49.0125 43.7407 49.2812C43.5698 46.9062 43.3951 44.6842 43.2774 42.4622C43.2736 42.3576 43.7521 42.2306 44.1508 42.0439C44.8723 44.1688 45.5596 46.2042 46.3343 48.4859Z" fill="white"/>
<path d="M42.5961 31.7249C41.81 32.6286 43.1505 34.5331 40.8758 34.9141C40.291 33.4614 39.7138 32.0161 39.1328 30.5746C40.4505 29.9323 40.4505 29.9323 42.5961 31.7249Z" fill="white"/>
<path d="M84.7652 27.9897C85.2057 29.2482 85.6462 30.6859 86.0601 32.3216C87.7082 38.8307 90.1576 48.4955 86.4399 59.583C84.1994 66.2677 80.6639 70.6444 79.6044 71.9067C76.3196 75.8092 73.0424 78.0424 70.4905 79.749C63.2032 84.6299 56.5348 86.4299 54.9209 86.8444C51.4196 87.7444 44.8842 89.354 36.693 87.9648C31.6462 87.1096 27.9702 85.4552 25.3006 84.2303C21.6854 82.5722 17.531 80.6677 13.5285 76.7615C8.78164 72.127 6.85252 67.2162 5.17404 62.944C3.31328 58.205 2.50822 54.0187 2.11328 50.7735C2.18543 51.0872 5.6791 65.9913 17.3259 71.5332C29.0981 77.1349 53.7816 87.2179 68.212 73.4005C82.6424 59.583 86.888 52.0395 84.7652 27.9897Z" fill="#CE947B"/>
<path d="M67.177 67.079C68.6618 66.9221 69.9226 65.9474 71.3352 64.1624C72.7555 62.3698 75.7213 58.0155 74.5479 56.8317C73.834 56.1109 71.9352 56.9287 71.7871 56.9922C71.4757 57.1304 70.7124 57.5113 68.658 60.5175C68.5631 60.6557 67.758 61.8395 66.8048 63.5536C65.4871 65.925 65.4719 66.4553 65.6922 66.7541C66.0226 67.2022 66.8618 67.1126 67.177 67.079Z" fill="#CE947B"/>
<path d="M59.3223 72.5871C59.9792 72.7851 60.6894 72.5946 61.6159 72.0904C62.5463 71.5826 64.597 70.2643 64.3159 69.5585C64.1451 69.1253 63.1919 69.1365 63.1197 69.1402C62.964 69.144 62.5691 69.1701 61.1527 70.0776C61.0881 70.1187 60.5299 70.4772 59.8121 71.0336C58.821 71.8029 58.7185 72.027 58.7564 72.1913C58.8096 72.434 59.1818 72.5461 59.3223 72.5871Z" fill="#CE947B"/>
<path d="M27.3988 52.2824L26.7229 47.7226L24.957 48.4247L25.9064 52.4766L27.3988 52.2824Z" fill="white"/>
<path d="M26.3452 51.5986C26.2326 51.0844 25.8105 50.7377 25.4025 50.8241C24.9945 50.9106 24.755 51.3974 24.8677 51.9116C24.9803 52.4257 25.4024 52.7725 25.8104 52.686C26.2184 52.5996 26.4578 52.1127 26.3452 51.5986Z" fill="#3C2415"/>
<path d="M28.6562 41.3114C28.7208 41.1919 28.8006 41.0762 28.8879 40.9716C28.9866 40.8558 29.1007 40.755 29.2146 40.6504C29.5146 40.3741 29.8069 40.0903 30.0917 39.8027C30.3271 39.56 30.5588 39.3135 30.7866 39.067C31.5955 38.2081 31.774 36.9048 31.736 35.7807C31.698 34.6193 31.455 33.4728 31.455 32.3114C31.455 32.1023 31.4626 31.8857 31.5347 31.6878C31.6297 31.4189 31.8309 31.1948 32.0664 31.0343C32.917 30.4666 34.1475 30.7579 34.8918 31.4637C35.6361 32.1695 35.9892 33.1853 36.2094 34.1824C36.4297 35.1795 36.5437 36.2065 36.931 37.1513C37.4361 38.3836 38.3664 39.3994 38.9398 40.6019C39.217 41.1807 39.4069 41.8156 39.3575 42.4504C39.3081 43.0853 38.993 43.7239 38.4385 44.045C37.1474 44.7957 35.298 43.6118 34.0487 44.4297" fill="#F1C4A5"/>
<path d="M28.9146 41.7419C29.188 41.2714 29.6741 40.9315 30.0576 40.5506C30.4715 40.1398 30.9272 39.7178 31.2652 39.2398C31.7931 38.4929 31.9791 37.578 32.0323 36.6817C32.0931 35.5913 31.8994 34.5083 31.8045 33.429C31.7551 32.8651 31.626 32.1631 32.0627 31.7187C32.4348 31.3415 33.0234 31.2257 33.5361 31.3004C35.8905 31.644 35.9285 34.4934 36.369 36.2523C36.65 37.3689 37.1817 38.3324 37.8121 39.2884C38.3703 40.1361 39.1981 41.1817 39.0652 42.2535C38.9095 43.5307 37.7475 43.8481 36.6272 43.7324C35.6741 43.6315 34.7095 43.4075 33.8437 43.9303C33.5551 44.1058 33.8969 45.1589 34.2652 44.9386C35.169 44.3934 36.3234 44.8228 37.3032 44.8527C38.3323 44.8826 39.1791 44.4158 39.5209 43.4261C40.364 40.9614 37.9905 39.0158 37.1513 36.9431C36.3159 34.8855 36.6538 31.9801 34.4779 30.6357C33.7032 30.1577 32.6551 29.9896 31.8652 30.5311C30.8361 31.2369 31.1665 32.7531 31.2804 33.7913C31.4247 35.117 31.6602 36.5548 31.0753 37.817C30.4943 39.0718 29.0817 39.7066 28.4019 40.8718C28.231 41.1668 28.6677 42.1676 28.9146 41.7419Z" fill="#3C2415"/>
<path d="M35.9595 40.8848C36.0316 41.4636 36.4266 41.9454 36.8025 42.3935C36.9013 42.5093 37.0038 42.6288 37.1405 42.696C37.2772 42.7632 37.4595 42.7632 37.5658 42.6549C37.676 42.5429 37.6646 42.3636 37.638 42.2068C37.5279 41.5271 37.3076 40.8661 36.981 40.2537C36.8747 40.0557 36.7532 39.8578 36.5671 39.7346C36.381 39.6114 36.1114 39.5815 35.9367 39.7271C35.7544 39.8765 35.7468 40.1454 35.7506 40.3769C35.7544 40.6196 35.762 40.8736 35.8608 41.0977" fill="#3C2415"/>
<path d="M35.893 40.8609C35.9765 41.4696 36.3373 41.9663 36.7246 42.4294C36.8803 42.6161 37.0588 42.8589 37.3284 42.8813C37.6019 42.9037 37.7196 42.6796 37.7158 42.4406C37.712 42.1269 37.6208 41.802 37.5373 41.5033C37.4462 41.1746 37.3284 40.8572 37.1879 40.5472C36.9981 40.129 36.6639 39.356 36.0601 39.5053C35.7677 39.58 35.6917 39.8825 35.6841 40.1402C35.6689 40.4763 35.6879 40.8311 35.817 41.1485C35.8322 41.1821 35.8626 41.2605 35.912 41.2306C35.9537 41.2045 35.9158 41.0775 35.9044 41.0477C35.8094 40.8199 35.8094 40.5435 35.8208 40.3008C35.8284 40.0991 35.8892 39.875 36.1018 39.8004C36.6069 39.6211 36.9069 40.2298 37.0778 40.5846C37.2981 41.0514 37.4613 41.5443 37.5525 42.0522C37.5905 42.2613 37.6436 42.5638 37.3474 42.6012C37.0968 42.6311 36.9259 42.4182 36.7854 42.2501C36.455 41.858 36.0981 41.4323 36.0259 40.9095C36.0221 40.8721 35.9917 40.7489 35.9424 40.7452C35.8778 40.7414 35.8892 40.8273 35.893 40.8609Z" fill="#3C2415"/>
<path d="M32.7891 32.7677C33.0169 33.5893 33.3321 34.3884 33.7308 35.1503C33.8182 35.3183 33.9169 35.4938 34.084 35.5872C34.3194 35.7216 34.6194 35.6581 34.8701 35.5611C34.946 35.5312 35.022 35.5013 35.0751 35.4415C35.1891 35.3183 35.1663 35.1241 35.1321 34.9561C34.9802 34.1606 34.7865 33.298 34.1524 32.7901C33.9587 32.6332 33.7194 32.5175 33.4688 32.51C33.2182 32.5025 32.9562 32.6183 32.8346 32.8386" fill="#3C2415"/>
<path d="M32.7114 32.7904C32.9051 33.4776 33.1519 34.1498 33.4595 34.7958C33.5886 35.0647 33.7101 35.3747 33.9228 35.5913C34.1354 35.8041 34.4278 35.8228 34.7088 35.7519C34.9937 35.6772 35.2329 35.5614 35.2443 35.2402C35.2519 34.9602 35.1607 34.6539 35.0924 34.385C34.9633 33.8398 34.7658 33.2834 34.3709 32.8651C34.1506 32.6336 33.8582 32.4319 33.5316 32.3946C33.2278 32.361 32.924 32.4842 32.7683 32.7456C32.719 32.8315 32.8367 33.0556 32.9051 32.9436C33.2126 32.4357 33.881 32.6709 34.2304 32.9958C34.5797 33.3245 34.7658 33.7763 34.8873 34.2245C34.9519 34.4523 34.9975 34.6875 35.043 34.9191C35.0658 35.0348 35.1038 35.1768 35.0506 35.2888C34.9861 35.4195 34.8 35.4643 34.6671 35.5016C34.3937 35.5763 34.1088 35.5651 33.9304 35.3261C33.7671 35.1095 33.6607 34.8407 33.5468 34.5942C33.2696 34.0004 33.0456 33.388 32.8709 32.7568C32.8215 32.5963 32.6658 32.6373 32.7114 32.7904Z" fill="#3C2415"/>
</g>
</g>
<defs>
<clipPath id="clip0_394_15269">
<rect width="90" height="90" fill="white" transform="matrix(0 -1 1 0 0 90)"/>
</clipPath>
</defs>
</svg>
