<svg width="90" height="90" viewBox="0 0 90 90" fill="none" xmlns="http://www.w3.org/2000/svg">
<g clip-path="url(#clip0_394_15591)">
<path d="M90 45C90 20.1472 69.8528 0 45 0C20.1472 0 0 20.1472 0 45C0 69.8528 20.1472 90 45 90C69.8528 90 90 69.8528 90 45Z" fill="white"/>
<mask id="mask0_394_15591" style="mask-type:luminance" maskUnits="userSpaceOnUse" x="13" y="13" width="64" height="70">
<path d="M13.125 13.125L13.125 82.5H76.875V13.125H13.125Z" fill="white"/>
</mask>
<g mask="url(#mask0_394_15591)">
<path d="M76.8237 31.1883C76.7985 32.0152 76.7511 33.0301 76.7183 33.4436C76.6565 34.2224 76.5734 34.5547 75.1193 39.8365C74.476 42.1733 73.8844 44.6419 73.6982 45.7665C73.6272 46.1955 73.5041 46.6616 73.3713 47.0041C73.027 47.8924 71.7939 50.3531 70.6186 52.4977C68.9149 55.6062 67.8728 57.5948 67.0521 59.3035C65.8518 61.8021 64.515 64.0473 62.7375 66.5498C61.6276 68.1123 60.9378 68.9315 59.5965 70.2797C57.1918 72.6968 55.3242 74.0181 52.731 75.1365C50.6216 76.0464 49.0911 77.0042 47.689 78.2917C46.9696 78.9523 45.9282 79.7777 45.1538 80.3011C44.293 80.8827 42.9488 81.567 42.1342 81.8381C40.3324 82.4378 37.7221 82.6686 36.1237 82.3695C34.4452 82.0555 32.9312 81.1415 30.4265 78.9302C30.0818 78.6259 29.787 78.3635 29.7713 78.3472C29.668 78.2393 28.8341 77.5173 28.2423 77.0233C26.6515 75.6956 25.3503 74.907 23.2195 73.9791C20.2808 72.6994 18.1664 71.3999 16.2795 69.7144C15.2911 68.8314 14.838 68.2845 13.7388 66.6476L13.125 65.7335L13.1595 56.5278C13.1785 51.4647 13.2054 47.0098 13.2192 46.6281C13.2331 46.2464 13.2721 45.1925 13.3059 44.286C13.6544 34.9437 14.632 29.1684 16.5473 25.1387C17.6343 22.8516 19.4868 20.4123 21.0183 19.2516C21.8767 18.6011 22.8745 18.2058 23.6582 18.2058C25.0253 18.2058 26.5024 17.8012 27.452 17.1668C28.0455 16.7704 28.3421 16.4831 28.8568 15.8064C29.767 14.6096 30.7828 13.9392 32.2781 13.5483C33.5157 13.2247 35.29 13.0821 37.4056 13.136C39.9852 13.2018 40.1895 13.2622 44.3846 15.1991L46.5495 16.1987L52.503 16.1624C55.7775 16.1424 58.8027 16.1138 59.2257 16.0987C59.6487 16.0837 60.482 16.0568 61.0772 16.0389C63.2798 15.9728 64.2729 15.9229 67.5288 15.7149L69.3656 15.5975L70.4058 16.1892C72.7168 17.5039 73.683 18.3417 74.7277 19.9367C75.4163 20.988 76.1786 22.6497 76.4803 23.7571C76.8544 25.1301 76.9471 27.1319 76.8237 31.1883ZM75.0964 26.5621C74.8908 24.4012 74.7092 23.6335 74.0934 22.3213C73.2805 20.589 72.1878 19.2907 70.7467 18.3448C70.2837 18.0409 69.2459 17.5283 68.7553 17.3611C68.207 17.1743 67.3359 17.1239 66.2619 17.2169C62.9775 17.5012 61.069 17.5608 52.9309 17.6336L45.8095 17.6973L43.5464 16.6531C39.6697 14.8645 39.2649 14.7316 37.3402 14.6158C35.7487 14.52 34.0319 14.663 33.0763 14.9708C32.5392 15.1438 31.8513 15.5025 31.409 15.8403C31.1971 16.0022 30.5946 16.5696 30.0702 17.1011C28.2488 18.9472 27.0508 19.519 24.73 19.6497C23.4346 19.7227 22.7762 19.9556 21.9383 20.637C20.5955 21.729 18.596 24.6153 17.7328 26.7074C16.9944 28.4973 16.7907 30.0131 16.8745 33.0965C16.9405 35.524 16.9281 38.1314 16.8452 39.284C16.7494 40.615 16.6946 41.1298 16.4115 43.3609C16.085 45.9343 15.9471 47.3224 15.8687 48.8257C15.745 51.1985 15.9743 53.2276 16.5828 55.145C17.5461 58.1802 20.0757 62.7215 22.3409 65.4819C23.173 66.4959 23.6837 67.2551 23.5946 67.3456C23.3876 67.5557 21.4614 65.1927 19.5283 62.3573C17.9805 60.0869 17.1936 58.5577 16.5274 56.526C15.2857 52.7388 15.0397 48.8415 15.7859 44.7778C16.1556 42.7643 16.415 39.4408 16.4764 35.9302C16.5101 34.0034 16.4648 33.0115 16.3372 32.882C16.2606 32.8043 16.0793 33.1629 15.9635 33.6206C15.6058 35.0355 15.2191 38.9939 15.046 43.014C15.0289 43.4116 15.0027 43.9711 14.9878 44.2573C14.9574 44.8408 14.9118 46.2922 14.8469 48.739C14.8228 49.6455 14.8082 53.6936 14.8142 57.7349L14.8253 65.0828L15.4969 66.091C16.2701 67.2515 16.5024 67.5459 17.1888 68.2347C18.8368 69.8882 21.1137 71.2943 24.3881 72.6808C25.8406 73.2958 27.417 74.064 27.9488 74.4159C28.1524 74.5507 28.5189 74.8299 28.7631 75.0363C29.0073 75.2428 29.2155 75.402 29.2258 75.3901C29.2463 75.3664 29.3143 72.4121 29.3154 71.4989C29.3158 71.1835 29.3315 70.9411 29.3503 70.9602C29.3691 70.9793 29.4464 71.5887 29.522 72.3143C29.7398 74.4056 30.0116 75.8151 30.3278 76.4935C30.8708 77.6585 34.6096 80.345 36.2856 80.7745C38.1372 81.2488 40.5246 80.8939 42.6951 79.8215C44.4542 78.9525 45.5808 77.8913 46.2084 76.5127C46.4467 75.9891 46.8931 75.3397 47.0146 75.3397C47.124 75.3397 47.1031 75.5933 46.9471 76.1617C46.8885 76.3754 46.858 76.5678 46.8793 76.5895C46.9286 76.6395 47.2239 76.4406 47.9184 75.8896C48.8379 75.16 50.5006 74.2344 52.0654 73.5809C54.9724 72.3668 58.2863 69.6744 60.4571 66.763C62.0108 64.6792 64.5099 60.5843 65.2106 58.9745C65.6811 57.8934 67.3167 54.771 68.9063 51.9196C69.712 50.4743 70.9237 48.044 71.3569 47.0043C71.5811 46.4662 71.7009 46.0672 71.8257 45.443C72.1951 43.5953 72.6589 41.8187 74.1496 36.5418C75.0602 33.3183 75.1043 33.1338 75.1788 32.2312C75.2523 31.3408 75.1982 27.6319 75.0964 26.5621ZM69.5339 29.3952C69.4674 33.8799 69.3166 37.0889 69.0814 39.0235C68.3877 44.7282 66.5782 51.7033 64.543 56.516C63.7921 58.292 62.0578 61.5499 60.4335 64.2359C59.4078 65.932 58.5087 67.243 58.371 67.243C58.1391 67.243 58.7684 65.9986 60.3452 63.3396C62.0939 60.3906 62.5431 59.5857 63.3289 57.9927C64.9844 54.6368 65.9966 51.5621 67.2893 45.9625C68.5491 40.5051 68.8057 38.4718 69.0518 31.9975C69.0989 30.7571 69.1501 29.456 69.1655 29.1062C69.208 28.1422 69.2796 26.1181 69.277 25.9545C69.2756 25.8657 68.9379 25.3085 68.4007 24.5089C66.004 20.9415 65.8535 20.7957 64.3782 20.611C64.0149 20.5656 63.7057 20.5162 63.6911 20.5014C63.6425 20.4521 65.3617 20.39 65.6149 20.4319C65.9394 20.4857 66.3432 20.7091 66.5929 20.973C66.8479 21.2425 67.5031 22.1726 68.6696 23.921L69.5953 25.3086L69.5861 25.9063C69.581 26.235 69.5575 27.805 69.5339 29.3952ZM67.0514 35.178C67.0253 36.9057 66.8524 40.6295 66.6888 42.9847C66.4729 46.0925 66.156 47.4199 64.8524 50.6758C63.832 53.2242 62.1901 56.6562 60.3682 60.0486C59.6088 61.4626 58.6616 63.0569 58.4171 63.3329C58.2099 63.5666 58.2057 63.5683 58.2034 63.4194C58.1993 63.149 58.9832 61.5233 60.2774 59.1185C61.5166 56.816 62.8712 54.0359 63.8442 51.7983C63.9744 51.4989 64.5109 50.2001 65.0364 48.912L65.9919 46.5699L66.0295 45.876C66.0502 45.4944 66.0922 44.7267 66.1227 44.1701C66.2379 42.0701 66.4607 37.8469 66.5223 36.5948C66.5576 35.8791 66.5876 34.3569 66.589 33.2118C66.5918 30.9239 66.5173 29.9251 66.2652 28.8681C65.9011 27.342 65.4174 26.5208 64.0382 25.0871C63.2487 24.2665 62.9298 23.8658 62.9298 23.6946C62.9298 23.607 62.9561 23.5993 63.1062 23.643C63.877 23.8674 65.3774 25.6132 66.1629 27.1996C66.5862 28.0544 66.8077 28.9964 66.9425 30.5151C67.0259 31.4547 67.0755 33.5801 67.0514 35.178ZM64.4721 41.3655L64.4395 41.7703L64.3956 41.3363C64.3391 40.7764 64.3384 35.2917 64.3948 34.6694L64.4378 34.1949L64.4747 34.5708C64.5198 35.0303 64.5176 40.8017 64.4721 41.3655ZM62.5541 41.1053C62.5426 41.2803 62.5065 41.9645 62.4738 42.626C62.2629 46.8993 61.5959 50.4627 60.4691 53.3347C59.3205 56.2626 56.8651 59.8756 54.1594 62.6191C52.0981 64.7092 50.4151 65.9825 46.9777 68.0528C45.1552 69.1505 44.1118 69.8328 43.6775 70.2108C43.3192 70.5227 43.1074 70.5805 42.7053 70.4759C42.3081 70.3726 41.7244 70.4753 41.1834 70.7439C40.5549 71.0559 40.4275 71.3179 40.4252 72.3029C40.4227 73.4229 40.1583 74.1344 39.731 74.1711C39.5543 74.1862 39.5051 74.1615 39.3855 73.9976C39.3089 73.8925 39.1493 73.5463 39.031 73.2282C38.744 72.457 38.3731 71.7314 38.085 71.3777C37.6481 70.8415 37.2142 70.6043 36.226 70.3613C35.0794 70.0794 34.4601 69.5396 34.8405 69.1536C34.9391 69.0535 35.2529 68.939 35.6985 68.8405C36.8654 68.5827 38.7945 65.1381 41.2266 58.9696C42.5625 55.5815 44.2921 50.6288 44.9259 48.3768C45.6926 45.6524 46.2098 42.9739 46.5032 40.2087C46.6288 39.0241 46.6474 35.2867 46.5326 34.3103C46.165 31.1855 45.4718 29.0878 44.1248 27.024C42.8262 25.0344 41.6666 24.3086 39.372 24.0486C39.0586 24.0131 38.5378 23.9292 38.2145 23.8621C37.4262 23.6984 37.1191 23.4848 37.2002 23.1567C37.2685 22.8807 37.7074 22.6885 38.5838 22.5507C39.1554 22.4609 39.6075 22.2752 39.8838 22.0166C40.1761 21.7431 40.4761 21.6103 41.2322 21.4195C44.2363 20.6614 50.8069 20.5465 54.5937 21.1859C58.6356 21.8683 60.4792 23.5031 61.4709 27.2842C61.9269 29.0227 62.2852 31.7053 62.4749 34.8018C62.5359 35.7972 62.5949 40.4835 62.5541 41.1053ZM60.6937 38.4507C60.5292 38.4173 60.2407 38.3653 60.0527 38.3352C59.8647 38.305 59.1785 38.1874 58.5277 38.0737C56.8781 37.7856 56.4733 37.8015 56.2896 38.1619C56.1939 38.3498 56.1163 38.8585 56.0348 39.8332C55.9513 40.8312 55.7737 41.957 55.5985 42.5991C55.4708 43.0671 55.4621 43.1497 55.5328 43.2214C55.6715 43.3623 56.3564 43.4671 57.6029 43.5384C59.2762 43.634 60.585 43.5458 60.7459 43.3266C60.8871 43.1342 60.972 41.9163 60.9843 39.9095L60.9928 38.5113L60.6937 38.4507ZM60.8483 34.6111C60.7187 34.1806 60.5133 33.9995 59.6699 33.5718C59.0854 33.2755 56.9138 32.3734 56.785 32.3734C56.711 32.3734 56.634 33.5464 56.6369 34.6287C56.6404 35.9665 56.6647 36.001 57.8148 36.301C58.3077 36.4295 60.7671 36.884 60.9698 36.884C60.9897 36.884 60.9932 36.4481 60.9776 35.9154C60.9574 35.2217 60.9206 34.8515 60.8483 34.6111ZM60.3915 30.8927C60.319 30.6031 60.2418 30.2057 60.2199 30.0096C60.1981 29.8134 60.1515 29.6348 60.1165 29.6127C60.0814 29.5905 59.8476 29.5699 59.597 29.5668C58.9459 29.5588 58.6 29.4363 56.3881 28.4307C56.2526 28.3691 56.1215 28.3268 56.0968 28.3366C56.072 28.3464 56.1381 28.6522 56.2437 29.0161C56.3492 29.38 56.4646 29.8471 56.5001 30.0542C56.5757 30.4951 56.6402 30.5668 57.2042 30.8384C57.6005 31.0292 60.2103 31.853 60.4185 31.853C60.6183 31.853 60.6167 31.7919 60.3915 30.8927ZM60.4817 45.4452C60.3926 45.2762 60.0181 45.161 59.3586 45.0996C58.6315 45.0319 55.076 44.8938 55.0387 44.9318C55.0245 44.9462 54.8734 45.4507 54.7029 46.053C54.1282 48.0833 53.7623 49.1128 52.7938 51.425C52.6344 51.8054 52.504 52.1243 52.504 52.1243C52.504 52.1243 52.9224 52.1487 53.4337 52.1691C54.677 52.2189 55.1639 52.3462 56.3034 52.9193C58.1366 53.8414 58.4485 53.7019 59.1862 51.6297C60.0713 49.1433 60.7424 45.9395 60.4817 45.4452ZM59.6015 27.2957C59.5256 27.0992 59.4349 26.7513 59.4 26.5226C59.3615 26.2712 59.267 25.9746 59.1609 25.7725C58.9831 25.4339 58.409 24.7397 58.3069 24.7397C58.2722 24.7397 58.266 24.8921 58.2904 25.1434C58.3218 25.4666 58.3112 25.5755 58.2374 25.6899C58.0465 25.9857 57.5726 25.9865 56.4322 25.6931C55.5744 25.4724 55.2951 25.5078 55.4917 25.8125C55.7535 26.218 56.9264 26.9101 58.2582 27.445C59.8222 28.0732 59.8984 28.0647 59.6015 27.2957ZM57.7261 24.0193C57.1233 23.6607 54.8945 22.8029 54.2798 22.6929C53.3894 22.5336 56.1466 23.8881 57.4131 24.2323C58.0589 24.4078 58.2083 24.3061 57.7261 24.0193ZM56.581 54.7963C54.2172 53.7724 52.953 53.5077 52.2717 53.8939C51.9299 54.0877 51.8407 54.2371 51.5646 55.0791C51.206 56.1724 50.763 57.1522 49.6432 59.3288L48.8812 60.81L49.7668 60.842C50.9676 60.8853 51.4814 61.0265 52.2632 61.5279C52.769 61.8523 53.1241 61.5089 55.4111 58.4837C55.9882 57.7203 56.7486 56.7185 57.1007 56.2573C57.4529 55.7961 57.7421 55.3922 57.7432 55.3596C57.7444 55.3271 57.2214 55.0736 56.581 54.7963ZM51.1212 62.786C51.0501 62.678 50.9027 62.5441 50.7936 62.4884C50.3901 62.2827 48.8431 62.4047 48.2433 62.6896C47.6842 62.9552 47.2181 63.5994 46.3655 65.2853C45.8448 66.3147 45.6443 66.7779 45.6963 66.8306C45.8449 66.9815 49.8893 64.2891 50.98 63.3133C51.1288 63.1802 51.2506 63.0513 51.2506 63.0269C51.2506 63.0025 51.1924 62.8941 51.1212 62.786ZM50.6666 43.503C50.3454 43.5238 49.7365 43.5653 49.3135 43.5952C48.8905 43.6251 48.4103 43.6546 48.2465 43.6607C48.0826 43.6668 47.9257 43.6866 47.8977 43.7048C47.8696 43.723 47.8188 43.868 47.7848 44.0271C47.7507 44.1861 47.593 44.8757 47.4344 45.5594C46.3549 50.2127 46.2981 50.5536 46.5776 50.7054C46.7162 50.7807 48.2727 51.1498 48.8072 51.2342C49.4955 51.3428 49.8251 51.2194 50.0518 50.7683C50.2033 50.4669 50.5837 49.1872 50.7579 48.3929C50.993 47.3207 51.1441 46.1268 51.1898 44.9811C51.2132 44.3927 51.2364 43.8108 51.2414 43.6882L51.2505 43.4651L50.6666 43.503ZM51.1509 36.9434C51.0067 36.9437 49.5292 37.2124 49.0372 37.3277C48.7219 37.4015 48.6062 37.4555 48.5686 37.5459C48.5074 37.6934 48.3397 38.8376 48.1484 40.4128C48.0692 41.0648 47.9891 41.6959 47.9703 41.8151L47.9362 42.0319H49.5934H51.2506V39.4875C51.2506 37.1028 51.2443 36.9432 51.1509 36.9434ZM51.0552 32.0857C50.9411 31.2922 50.7554 30.5264 50.6235 30.3064C50.4526 30.021 50.3122 30.026 48.9968 30.3639C47.9305 30.6378 47.8048 30.6826 47.8137 30.7853C47.8281 30.9521 48.5855 35.697 48.6008 35.7158C48.6302 35.7521 50.5856 35.5453 50.7264 35.4909C50.9148 35.4182 51.0764 35.2753 51.1439 35.1216C51.2191 34.9503 51.1559 32.7865 51.0552 32.0857ZM50.51 27.6619C50.4834 27.5665 50.4445 27.3519 50.4235 27.1849C50.3815 26.8511 50.2742 26.7357 49.8515 26.5697C48.8796 26.1881 47.5027 26.1119 46.5941 26.3893C46.0732 26.5484 46.0765 26.7175 46.6199 27.7198C47.2742 28.9265 47.4059 29.0012 48.4704 28.7692C48.8558 28.6852 49.4353 28.5905 49.7583 28.5588C50.5581 28.4802 50.7234 28.3747 50.6129 28.0138C50.5828 27.9157 50.5365 27.7573 50.51 27.6619ZM49.222 24.0358C49.1717 23.9369 49.0143 23.73 48.8724 23.576C48.6358 23.3193 48.5924 23.296 48.3515 23.2964C47.9933 23.2969 47.3265 23.4666 46.408 23.7911C45.2157 24.2123 44.4744 24.5909 44.5975 24.7159C44.7462 24.8667 46.18 24.8895 47.6202 24.764C49.2988 24.6177 49.4771 24.5366 49.222 24.0358ZM48.9398 52.9688C48.8595 52.9047 48.648 52.8226 48.4698 52.7862C48.2915 52.7498 47.6842 52.6211 47.1201 52.5001C45.9198 52.2427 45.8561 52.2512 45.5673 52.708C45.3838 52.9983 45.0466 53.8161 44.7953 54.5804C44.3148 56.042 43.6777 57.9066 43.2737 59.0331C42.7591 60.4685 42.6528 60.9939 42.8549 61.1036C43.0508 61.2101 43.4981 61.2254 43.8324 61.1371C44.4742 60.9677 45.5355 60.2884 46.3193 59.5455C46.8917 59.0029 47.0724 58.7274 47.1744 58.2421C47.3288 57.5071 47.5486 56.9346 48.3584 55.1587C49.1474 53.4284 49.2118 53.186 48.9398 52.9688ZM45.2886 62.6978C45.04 62.5924 44.0615 62.5826 42.8473 62.6734C42.4086 62.7062 42.0063 62.7333 41.9533 62.7336C41.851 62.7341 41.7947 62.8263 40.4521 65.1917C38.4595 68.7025 38.2224 69.5433 39.233 69.5149C39.6427 69.5034 40.7467 69.1434 41.4515 68.7914C42.2594 68.3881 42.9279 67.6355 43.8018 66.1459C44.5235 64.9156 45.4926 63.0359 45.4954 62.8613C45.496 62.8199 45.4029 62.7463 45.2886 62.6978ZM43.8013 22.649C43.4524 22.7399 42.8062 23.0703 42.7727 23.1748C42.7521 23.2389 42.794 23.248 42.9742 23.2187C43.6477 23.1094 44.283 22.7932 44.1336 22.6415C44.0888 22.5961 43.9962 22.5982 43.8013 22.649ZM45.4378 74.7515C45.3787 74.9203 45.1592 75.3927 44.95 75.8014C43.6422 78.3557 42.6016 78.8115 37.8623 78.906C35.8785 78.9456 34.7867 78.8837 34.1098 78.6933C33.3119 78.4689 32.0061 77.6951 31.3569 77.0619C30.7652 76.4848 30.4007 75.7478 30.2198 74.7628C30.1489 74.3766 30.1131 70.9079 30.1706 69.9921L30.1996 69.5294L30.2745 70.3679C30.3158 70.8291 30.3606 71.3105 30.3741 71.4377C30.3877 71.565 30.4513 72.2155 30.5154 72.8834C30.811 75.9624 30.9697 76.307 32.564 77.3344C33.3642 77.8501 34.0902 78.2071 34.6434 78.3572C35.0495 78.4673 35.2925 78.4836 36.8738 78.5071C40.1699 78.5562 41.7711 78.3111 42.8407 77.5939C43.4572 77.1805 43.7531 76.8263 44.3848 75.7458C45.0795 74.5576 45.3532 74.1845 45.5297 74.1845C45.5838 74.1845 45.5384 74.4642 45.4378 74.7515ZM45.4911 38.7164C45.4153 39.177 45.2248 39.6349 45.0276 39.8306C44.8181 40.0385 44.3277 40.2399 44.0311 40.2399C43.9168 40.2399 43.7167 40.1875 43.5862 40.1234C43.1661 39.917 43.1045 39.5437 43.4182 39.1041C43.854 38.4933 43.8784 38.1992 43.5464 37.5596C43.1896 36.8725 41.9942 35.8324 40.9021 35.2586C40.373 34.9807 39.9776 34.9568 39.4948 35.1735C38.9432 35.4211 38.6615 35.7515 38.5774 36.2497C38.4643 36.9194 37.3307 37.6882 36.0624 37.9554C35.8146 38.0076 35.1456 38.0715 34.5757 38.0973C33.1136 38.1636 33.057 38.196 32.3797 39.3526C32.0109 39.9825 31.6529 40.3819 31.3993 40.4465C31.1527 40.5094 30.9782 40.4278 30.8624 40.1955C30.7289 39.928 30.6965 39.7633 30.655 39.1411C30.5933 38.2176 30.3493 37.6492 29.6775 36.8645C28.4718 35.4561 28.0066 34.4611 27.7407 32.7223C27.5925 31.7524 27.5923 29.354 27.7405 28.7126C27.9237 27.9194 28.1557 27.499 28.7813 26.8258C29.2164 26.3577 29.5707 26.121 29.8482 26.113C30.6848 26.0889 31.091 27.2141 31.4513 30.5537C31.8524 34.2718 32.5055 36.2859 33.39 36.5325C33.6712 36.611 34.1898 36.6126 34.8997 36.5373C36.1361 36.4062 36.4288 36.2242 37.2377 35.0835C38.1869 33.7451 38.9647 32.8257 39.988 31.8325C41.0534 30.7985 41.3526 30.4044 41.4531 29.9025C41.5484 29.4265 41.8064 28.91 42.1916 28.4239C42.485 28.0537 42.8884 27.6913 43.007 27.6913C43.1322 27.6913 43.0085 28.0795 42.7301 28.5609C42.3142 29.2797 41.6614 30.6341 41.5126 31.0868C41.3044 31.7203 41.356 31.8811 41.8811 32.2349C42.2829 32.5056 42.3243 32.6513 42.0851 32.9534C41.8053 33.3068 41.8418 33.4519 42.3522 34.0151C42.6429 34.3358 43.1286 34.7942 43.704 35.2911C44.3078 35.8125 45.0657 36.6076 45.2298 36.8917C45.5171 37.3895 45.6067 38.0145 45.4911 38.7164ZM29.5079 29.6373C29.4876 29.394 29.4514 29.1949 29.4274 29.1949C29.3575 29.1949 29.3016 29.6448 29.3017 30.2069C29.3017 30.8098 29.363 31.3345 29.4333 31.3345C29.5157 31.3345 29.5618 30.2853 29.5079 29.6373ZM43.705 49.2996C43.5179 49.6318 43.1966 50.0518 43.0244 50.1892C42.7518 50.4069 42.1598 50.644 41.6788 50.7281C40.8231 50.8777 39.6881 50.7431 39.0592 50.4174C38.3196 50.0344 37.9351 49.2971 37.8765 48.1494C37.8008 46.6648 38.2808 45.8917 38.9894 46.3575C39.1841 46.4856 39.3123 46.7944 39.4259 47.4093C39.7056 48.9237 39.9374 49.2599 40.7017 49.2599C41.1794 49.2599 41.6087 49.0843 41.9854 48.7348C42.3458 48.4005 42.6063 48.2763 42.9437 48.2781C43.2043 48.2794 43.5846 48.4277 43.745 48.5905C43.8818 48.7294 43.8657 49.0143 43.705 49.2996ZM43.2809 75.2008C43.1619 75.3963 42.794 75.7137 42.4668 75.9031C41.7311 76.329 39.9771 76.6702 38.5264 76.6698C36.7163 76.6693 35.1763 76.1903 33.93 75.2405C33.5073 74.9183 32.8515 74.238 32.5603 73.8194C31.6902 72.5693 31.3902 69.8542 31.9173 67.9989C32.0062 67.6857 32.2385 67.1664 32.5639 66.5532C33.4567 64.8704 34.1052 63.2583 34.386 62.0237C34.6266 60.9654 34.4891 60.0422 33.8996 58.7597C33.5098 57.9116 33.0848 57.3041 32.4018 56.6184C31.7108 55.9247 31.603 55.7278 31.7047 55.3447C31.7951 55.0037 31.9445 54.8973 32.3267 54.9019C33.3293 54.9137 34.9845 56.5835 35.6395 58.2439C36.3464 60.0358 36.2997 62.085 35.4978 64.458C35.0477 65.79 34.126 67.7655 33.7538 68.1956C33.5312 68.4529 33.4415 68.6894 33.3612 69.2298C33.2461 70.0055 33.3783 71.2205 33.6736 72.102C33.9334 72.8772 34.2163 73.2606 34.92 73.7909C35.5079 74.2341 36.0406 74.5466 36.5858 74.7682C37.9193 75.3102 38.4591 75.3521 39.8266 75.0199C41.5473 74.602 41.9873 74.5185 42.514 74.51C42.9635 74.5028 43.059 74.5185 43.1977 74.623C43.396 74.7723 43.4239 74.9657 43.2809 75.2008ZM43.1411 19.999C42.9635 19.999 42.5221 19.3553 41.7931 18.0329C40.8565 16.3339 40.6749 16.1946 38.8865 15.8041C37.6913 15.5431 36.9549 15.4646 36.1234 15.5095C34.3709 15.6041 33.4096 16.0683 32.6695 17.1774C32.4377 17.5247 32.0456 17.9808 31.5609 18.4667C30.8262 19.2031 30.6286 19.4765 30.5369 19.8835C30.5118 19.9948 30.4894 21.1398 30.4872 22.4278C30.4834 24.6497 30.4773 24.7818 30.3692 25.0012C30.0435 25.6625 29.6327 24.9781 29.8486 24.1338C29.9844 23.6024 30.0558 22.6356 30.0558 21.3253C30.0559 19.4277 30.132 19.2011 31.1383 18.1028C31.8346 17.343 32.3473 16.7187 32.5341 16.4036C32.7707 16.0045 34.7105 15.1603 35.7057 15.0233C36.6091 14.899 39.0954 15.2871 40.5956 15.7867C41.0384 15.9342 41.1782 16.0105 41.3647 16.2064C41.8931 16.7616 43.0501 19.0314 43.1897 19.787C43.2211 19.9568 43.2116 19.999 43.1411 19.999ZM43.0615 46.8596C42.977 47.2119 42.5354 47.4195 41.8808 47.4147C41.3368 47.4106 41.2509 47.3876 41.0388 47.1887C40.7494 46.9175 40.6808 46.5742 40.6843 45.4138C40.6877 44.2282 40.7964 43.5943 41.1173 42.8876C41.4806 42.0875 42.0179 41.9001 42.2631 42.488C42.2988 42.5738 42.3429 43.2696 42.3659 44.1127C42.3898 44.9851 42.4345 45.6809 42.4755 45.8164C42.5138 45.943 42.6411 46.1371 42.7601 46.2501C42.9467 46.4274 43.1167 46.6682 43.0959 46.7256C43.0923 46.7357 43.0768 46.796 43.0615 46.8596ZM40.6024 19.2715C40.4924 19.3405 40.1069 19.085 39.545 18.5711C38.5702 17.6794 38.4053 17.5976 37.6048 17.6087C37.0096 17.617 35.8548 17.7589 35.0486 17.923C34.0835 18.1193 33.7714 18.3559 33.2689 19.2717C32.9306 19.8884 32.5124 20.3825 32.3743 20.3287C32.3213 20.3081 32.278 20.2424 32.278 20.1828C32.278 20.0112 32.4887 19.4327 32.7359 18.9252C33.1279 18.1205 33.5525 17.7867 34.4576 17.5713C35.5469 17.3121 38.02 17.1369 38.6308 17.2756C39.0079 17.3613 39.5038 17.681 39.9516 18.127C40.4603 18.6338 40.7649 19.1696 40.6024 19.2715ZM39.8548 56.9433C39.7891 57.2558 39.7527 57.2966 39.6578 57.1648C39.53 56.9875 39.4511 56.2222 39.3999 54.6657C39.3334 52.6409 39.1824 51.9195 38.7602 51.6083C38.6081 51.4962 38.5995 51.4961 38.298 51.6001C37.9318 51.7264 37.8038 51.6933 37.805 51.4725C37.8061 51.2793 37.8494 51.2059 38.0141 51.1179C38.3405 50.9435 39.0382 51.1479 39.3634 51.5133C39.5971 51.7759 39.6483 51.9436 39.7692 52.844C39.8743 53.6263 39.9355 56.5594 39.8548 56.9433ZM37.6332 28.2966C37.4793 29.1466 37.3522 29.4714 37.0206 29.8624C36.6663 30.2801 36.0083 30.5405 35.6284 30.4132C35.025 30.2111 35.0284 29.8293 35.6446 28.5984C36.088 27.7125 36.059 27.5422 35.2977 26.5619C33.9459 24.8211 33.7922 24.4844 33.7218 23.1096C33.6416 21.5453 34.0595 20.0212 34.7587 19.3283C35.2291 18.8622 35.8389 18.7802 36.2111 19.133C36.5212 19.427 36.4335 19.9474 35.9615 20.6142C35.18 21.7183 35.1059 23.2565 35.7858 24.2586C36.0358 24.6269 36.3833 24.8913 36.9084 25.1124C37.3785 25.3103 37.6019 25.5121 37.6843 25.8133C37.7833 26.1756 37.7533 27.6327 37.6332 28.2966ZM33.5684 48.4791C33.133 49.2398 32.3116 50.7443 32.1161 51.1392C30.8821 53.6309 30.6012 56.3981 31.2762 59.411C31.6306 60.9931 31.5923 62.0277 31.158 62.6056C30.7442 63.1563 29.8479 63.0633 28.8083 62.3617C27.0248 61.1583 25.9292 58.6279 25.6641 55.1003C25.484 52.7031 25.8969 50.7228 26.9525 48.921C27.6099 47.7988 28.9454 46.1855 29.5594 45.7718C30.1843 45.3508 30.8497 45.2895 31.4705 45.5956C32.0001 45.8568 33.2151 47.1821 33.562 47.877C33.7316 48.2167 33.7314 48.1944 33.5684 48.4791ZM31.1213 47.5387C30.9799 47.3951 30.8666 47.3322 30.7495 47.3322C30.4138 47.3322 29.5843 48.1068 29.0405 48.9282C28.1491 50.2743 27.1509 52.522 27.3532 52.7274C27.4207 52.7959 28.9521 53.1343 29.1946 53.1343C29.4757 53.1343 29.6017 52.9763 29.6563 52.5552C29.7374 51.9293 29.9452 51.391 30.7071 49.8331C31.282 48.6576 31.3712 48.4047 31.3445 48.0255C31.3283 47.7953 31.2885 47.7084 31.1213 47.5387ZM29.6531 60.0486C29.4637 59.433 29.137 59.0445 28.9448 59.2064C28.8319 59.3015 28.8329 59.7999 28.9466 60.1388C29.0944 60.5788 29.5974 61.0789 29.7783 60.9654C29.8539 60.9179 29.8008 60.5287 29.6531 60.0486ZM31.8412 64.7769C31.8203 64.7981 31.7302 64.8154 31.6409 64.8154C31.395 64.8154 31.2363 64.5276 31.2762 64.1539C31.2929 63.9968 31.3426 63.8317 31.3865 63.7871C31.4551 63.7175 31.4871 63.7334 31.6119 63.8995C31.8433 64.2075 31.9605 64.6557 31.8412 64.7769ZM30.7061 66.0829C30.613 66.4343 30.4729 66.6897 30.2638 66.8891C29.9788 67.1609 29.8092 66.9367 29.6354 66.0587C29.5091 65.4202 29.2495 63.7063 29.2753 63.6803C29.2868 63.6685 29.4811 64.0818 29.7069 64.5986C30.111 65.5233 30.2985 65.8608 30.3686 65.7895C30.3882 65.7697 30.4739 65.4659 30.559 65.1144C30.6441 64.763 30.7324 64.4565 30.7552 64.4334C30.8331 64.3543 30.7912 65.7615 30.7061 66.0829ZM27.7422 37.3026C25.2565 37.3576 23.9203 37.0713 23.5843 36.4119C23.4897 36.2262 23.5326 36.0756 23.6802 36.0756C23.7389 36.0756 24.0117 36.1936 24.2865 36.338C24.9377 36.68 25.772 36.8896 27.2634 37.0861C27.9052 37.1706 28.4406 37.2502 28.4533 37.263C28.4659 37.2759 28.1459 37.2937 27.7422 37.3026ZM26.0192 63.3683C25.6591 63.3683 24.3684 62.2074 23.171 60.8066C22.1237 59.5815 21.6477 58.7279 21.1385 57.1624C20.7174 55.8679 20.5107 54.7475 20.4004 53.1618C20.3827 52.9073 20.3536 52.5105 20.3358 52.2799C20.2793 51.5478 20.3015 48.5587 20.3679 47.9471C20.4695 47.0131 20.6435 46.5752 20.7504 46.9846C20.8055 47.1955 20.808 48.4291 20.7567 50.068C20.6828 52.4271 20.9234 54.5778 21.481 56.5443C22.0362 58.5023 22.7987 59.6917 24.8548 61.8069C25.6422 62.6171 26.1243 63.1919 26.1243 63.3206C26.1243 63.3468 26.0771 63.3683 26.0192 63.3683ZM25.3329 46.677C24.0979 46.7502 23.3517 47.0221 22.1466 47.8382C21.5052 48.2725 21.2857 48.3779 21.1715 48.3063C21.0666 48.2405 21.3125 47.8496 21.67 47.5136C22.0789 47.1294 22.7706 46.7746 23.4433 46.6042C23.9907 46.4655 24.6233 46.4529 25.5262 46.5626L26.0959 46.6318L25.3329 46.677ZM25.8252 26.1249C25.6921 26.1866 25.3258 26.3154 25.0112 26.4111C24.0372 26.7075 23.514 27.1498 22.727 28.3425C22.1767 29.1763 21.8248 29.8988 21.7069 30.4366C21.625 30.8101 21.6134 31.0452 21.643 31.7337C21.7127 33.3602 22.0125 35.7061 22.3069 36.9295C22.4972 37.7204 22.5154 37.9359 22.4 38.0331C22.0729 38.3086 21.7315 37.1688 21.4577 34.8875C21.1278 32.1387 21.0694 30.8625 21.2422 30.1746C21.3577 29.7149 21.8777 28.654 22.3277 27.9603C22.9515 26.9983 23.7577 26.275 24.5148 25.9982C25.0255 25.8114 26.0674 25.7825 26.0674 25.9551C26.0674 25.9867 25.9584 26.0631 25.8252 26.1249ZM25.4033 65.366C25.0579 65.2788 23.5702 64.0308 22.867 63.2383C20.7954 60.9038 19.1575 57.7983 18.523 55.0021C18.1346 53.2901 17.9723 51.7594 17.9478 49.5759C17.9218 47.2534 18.0117 46.232 18.4137 44.2846C18.8587 42.1286 18.9746 40.7884 18.9736 37.808C18.9728 35.2867 18.9306 34.5225 18.6495 31.9385C18.3573 29.2527 18.4014 27.7261 18.7914 27.0249C18.9529 26.7346 19.2455 26.5317 19.5027 26.5317C19.6957 26.5317 19.6998 26.5364 19.6639 26.7196C19.6436 26.823 19.5129 27.0817 19.3736 27.2946C19.2342 27.5075 19.0652 27.8458 18.9979 28.0464C18.885 28.383 18.8782 28.489 18.9087 29.4231C18.9269 29.9797 18.9811 30.7474 19.0291 31.129C19.2071 32.5421 19.3489 34.4738 19.4001 36.1846C19.4291 37.1524 19.4423 37.9615 19.4295 37.9826C19.4166 38.0037 19.4018 38.461 19.3964 38.9988C19.3783 40.8279 19.1705 42.7979 18.7962 44.6895C18.1952 47.7275 18.1707 50.6143 18.7218 53.4793C19.5002 57.5258 21.2231 60.9073 23.7413 63.3308C24.5312 64.0911 25.349 64.9897 25.479 65.2403L25.5654 65.407L25.4033 65.366Z" fill="black"/>
</g>
</g>
<defs>
<clipPath id="clip0_394_15591">
<rect width="90" height="90" fill="white" transform="matrix(0 -1 1 0 0 90)"/>
</clipPath>
</defs>
</svg>
