<svg width="90" height="90" viewBox="0 0 90 90" fill="none" xmlns="http://www.w3.org/2000/svg">
<g clip-path="url(#clip0_394_16109)">
<mask id="mask0_394_16109" style="mask-type:luminance" maskUnits="userSpaceOnUse" x="0" y="0" width="90" height="90">
<path d="M0 0L0 90H90V0H0Z" fill="white"/>
</mask>
<g mask="url(#mask0_394_16109)">
<path d="M90 45C90 20.1472 69.8528 0 45 0C20.1472 0 0 20.1472 0 45C0 69.8528 20.1472 90 45 90C69.8528 90 90 69.8528 90 45Z" fill="#F5B41A"/>
<mask id="mask1_394_16109" style="mask-type:luminance" maskUnits="userSpaceOnUse" x="6" y="0" width="77" height="90">
<path d="M6 0L6 90H83V0H6Z" fill="white"/>
</mask>
<g mask="url(#mask1_394_16109)">
<path d="M12.4258 41.0758C12.4258 41.0758 12.6295 58.2032 17.7878 67.9786C22.9461 77.7539 35.4291 80.118 44.5076 78.3687C53.5861 76.6195 56.0698 73.2238 68.1402 66.8441C80.2105 60.4644 82.9986 44.4361 82.9986 41.0758C82.9986 37.7156 80.2105 21.6872 68.1402 15.3075C56.0698 8.92783 53.5861 5.53222 44.5076 3.78292C35.4291 2.03362 22.9461 4.39773 17.7878 14.1731C12.6295 23.9484 12.4258 41.0758 12.4258 41.0758Z" fill="#E1BE92"/>
<path d="M58.3906 49.5391C61.2208 45.9891 61.7951 42.5163 61.7951 41.0757C61.7951 39.6351 61.6396 35.905 58.3906 32.6123C59.2881 36.1207 59.6498 38.2402 59.6498 41.0757C59.6498 43.9111 59.4398 46.3908 58.3906 49.5391Z" fill="#59341D"/>
<path d="M58.3906 49.5391C60.5958 47.0695 61.0213 42.5163 61.0213 41.0757C61.0213 39.6351 60.3895 33.95 58.3906 32.6123C59.0009 36.1207 59.2469 38.2402 59.2469 41.0757C59.2469 43.9111 59.1041 46.3908 58.3906 49.5391Z" fill="black"/>
<path d="M66.8789 41.0768C66.8789 44.0591 67.9896 47.0105 69.7495 49C68.9049 46.5717 68.3052 43.8171 68.3052 41.0768C68.3052 38.3366 68.9049 35.582 69.7495 33.1537C67.9896 35.1432 66.8789 38.0946 66.8789 41.0768Z" fill="black"/>
<path d="M71.8906 45.3203C71.8906 45.3203 74.4192 42.5873 74.4192 41.0758C74.4192 39.5642 71.8906 36.8312 71.8906 36.8312C72.6327 39.6609 72.6022 42.4906 71.8906 45.3203Z" fill="#59341D"/>
<path d="M71.8906 45.3203C71.8906 45.3203 73.697 42.5873 73.697 41.0758C73.697 39.5642 71.8906 36.8312 71.8906 36.8312C72.4208 39.6609 72.399 42.4906 71.8906 45.3203Z" fill="black"/>
<path d="M12.4258 41.0758C12.4258 41.0758 12.6295 58.2032 17.7878 67.9786C22.9461 77.7539 35.4291 80.118 44.5076 78.3687C53.5861 76.6195 56.0698 73.2238 68.1402 66.8441C80.2105 60.4644 82.9986 44.4361 82.9986 41.0758C82.9986 37.7156 80.2105 21.6872 68.1402 15.3075C56.0698 8.92783 53.5861 5.53222 44.5076 3.78292C35.4291 2.03362 22.9461 4.39773 17.7878 14.1731C12.6295 23.9484 12.4258 41.0758 12.4258 41.0758ZM17.793 32.0645C17.793 32.0645 18.8298 28.5685 22.5437 20.9541C23.3611 19.2783 27.1548 14.7717 29.5461 12.7273C31.7125 10.8752 35.9552 8.81463 39.6691 8.60883C43.3831 8.40303 48.1184 11.2842 51.007 12.9306C53.8956 14.5769 57.1995 18.0806 58.6438 22.4024C60.0881 26.7241 62.9793 29.6104 64.8363 30.4336C66.6933 31.2568 67.9287 29.5975 70.1983 26.9222C72.468 24.2468 76.7958 26.7189 78.0337 28.7769C79.2717 30.8349 80.7238 38.8558 80.7238 42.3543C80.7238 45.8529 78.4438 52.6493 76.1742 54.7073C73.9045 56.7652 70.1906 56.562 68.9526 55.1214C67.7146 53.6809 67.3174 51.6203 64.2225 53.2667C61.1275 54.9131 56.988 65.0022 53.4804 68.5008C49.9728 71.9993 43.9944 71.3819 39.8677 71.3819C35.7411 71.3819 28.0511 65.7851 23.5908 57.0096C23.5908 57.0096 19.6473 43.5917 19.6473 42.7685C19.6473 41.9453 17.793 32.0645 17.793 32.0645Z" fill="#D4A06A"/>
<path d="M27.582 65.0807C28.7413 71.0123 34.5871 74.5293 38.895 78.8906C40.8416 78.886 42.7421 78.709 44.5098 78.3684C53.5883 76.6191 56.072 73.2235 68.1424 66.8438C72.5636 64.507 75.7321 60.8771 77.9818 57.0479C74.5775 59.8758 71.0828 59.2028 69.7853 58.4025C68.0304 57.32 66.4814 54.0947 66.4814 54.0947C66.4814 54.0947 62.8243 58.3985 60.5056 63.5665C57.9934 69.1657 54.5117 70.561 51.623 71.7958C48.7344 73.0306 42.3637 73.5901 37.8118 72.8222C33.8919 72.1609 30.2447 68.937 27.582 65.0807Z" fill="#59341D"/>
<path d="M24.5234 15.6931C26.8175 7.29191 31.3898 5.45811 38.8959 3.15471C40.8425 3.15931 42.743 3.33631 44.5107 3.67691C53.5892 5.42621 56.0729 8.82181 68.1433 15.2015C72.5645 17.5384 75.733 21.1683 77.9826 24.9975C72.9574 20.3334 68.7106 22.6113 65.8607 28.2578C65.8607 28.2578 63.341 27.7628 61.0223 22.5948C58.5101 16.9955 55.1516 14.315 52.6556 12.4104C45.6309 7.05031 39.8991 6.81941 35.4399 7.67971C31.5367 8.43271 28.2177 10.1904 24.5234 15.6931Z" fill="#59341D"/>
<path d="M34.3087 40.2755C31.6005 40.5544 28.707 39.8733 25.8263 39.4643C31.0372 42.4924 34.9863 46.5345 37.5185 50.8984C35.2814 48.7045 33.0443 47.2722 30.8072 46.8239L22.1992 38.0927L26.0617 34.6827C27.9372 36.9455 29.0533 38.8637 34.3087 40.2755Z" fill="#59341D"/>
<path d="M6 40.5523C6.77812 39.6417 7.55083 38.1952 8.32895 39.0937C6.77728 42.5307 5.71414 47.0293 6.14443 50.8704C6.87071 47.8566 7.18029 44.002 8.92473 43.0192C7.06895 48.1124 6.84358 53.9344 7.6068 58.3074C8.19658 54.9322 7.65492 52.9934 9.93575 48.5475C8.68673 54.1147 8.05023 61.0929 9.2136 65.2761C9.82886 61.874 10.3776 57.9094 11.2537 56.8488C11.2537 56.8488 9.79325 62.0873 11.3982 67.6171C12.866 72.6745 11.5576 74.5273 12.3911 77.9172L9.95381 87.425C11.808 84.903 14.4155 82.7556 14.8826 79.5559C16.3825 82.1267 14.5849 85.0158 13.1494 87.533C14.8946 86.1173 16.6398 84.9649 18.385 82.7791C18.4279 82.7957 18.4683 82.8168 18.5114 82.8331C18.5902 84.7529 17.8305 85.9664 15.045 88.8475C18.151 87.7156 20.4528 86.1879 21.8875 84.4178C21.0698 86.3234 20.138 87.6952 17.7712 89.4238C23.5484 87.6745 25.3899 84.7599 25.3899 84.7599C25.5554 85.9702 25.5201 87.4308 24.5956 90C26.1823 88.0206 27.3881 86.8926 28.1522 84.5618C28.6191 83.1375 29.6695 82.2938 30.9686 81.7527C30.7573 82.929 30.0168 84.4897 29.2354 86.0924C31.8953 84.2519 33.2579 82.58 34.2905 80.9424C35.9434 80.7259 37.5989 80.6593 38.8221 80.4202C42.2074 79.7174 45.6919 78.1355 45.7367 78.1152H45.7547C50.5827 77.0285 53.5543 75.3729 57.5981 72.9292C60.3168 71.2865 63.5208 69.285 68.1416 66.8427C71.7954 64.9115 74.5844 62.09 76.7172 59.0096C70.3361 62.1248 66.602 58.5487 66.6973 54.0936C62.158 59.3414 62.6927 66.4862 56.208 70.5162C52.7053 72.693 47.7482 73.9837 43.9493 74.1717C40.4491 74.3448 36.6763 73.9709 33.5503 72.0108C30.4243 70.0507 28.1048 66.7893 27.0148 63.6915C25.4941 59.3698 24.773 50.6978 27.755 48.9796C31.496 47.0788 33.9423 50.3274 37.2152 55.3902C33.3967 44.5918 29.7646 42.8541 24.6678 39.0936C27.6353 39.9966 31.3863 41.5149 32.5573 40.9844C28.2986 38.9621 26.4452 35.579 25.2689 33.1333C23.508 29.472 22.7334 25.6943 22.7334 22.7801C22.7334 19.8659 23.9905 15.7114 26.5069 12.4432C29.2035 8.9408 31.3433 7.9614 33.9066 7.1481C37.8528 5.8961 43.3043 6.4585 46.0551 7.8122C49.2063 9.363 52.9988 11.3672 54.8836 13.0047C62.2054 19.3658 60.9851 24.2234 65.8591 28.2559C66.7962 21.2478 70.6385 20.3987 75.7242 21.7707C73.7373 19.2329 71.2462 16.9471 68.1416 15.3061C62.0408 12.0816 58.3807 9.6337 55.0886 7.7611C51.8736 5.9338 48.9926 4.6454 44.509 3.7815C41.8433 3.2679 38.8785 3.1062 35.8973 3.3854C31.3414 3.5129 28.299 3.6735 24.0178 3.7635C23.4669 3.7751 22.8523 3.7388 22.2124 3.6735C20.2937 2.9941 18.2489 2.0436 17.8975 1.8187C17.8825 2.1571 18.2272 2.5957 18.7461 3.0792C18.3406 2.9905 17.9318 2.91 17.5184 2.8091C16.0764 2.4572 13.7843 2.0673 11.705 0C12.3595 1.515 13.8363 3.0866 14.6659 3.9076C13.2609 3.3652 9.4391 1.7975 7.94979 1.5666C9.3364 3.3609 12.6258 5.5486 13.0049 6.1585C11.7861 5.709 9.02739 4.5863 7.42623 5.2941C10.4766 5.997 12.3063 7.8772 13.1855 8.6255C11.7644 8.4188 9.14611 7.411 6.75823 8.1753C8.84857 8.5495 11.2771 9.6757 12.3189 10.4802C11.5507 11.0033 9.90634 10.7164 7.76925 10.9124C8.80084 11.3386 9.85982 11.7569 10.0982 12.2989C10.8204 13.2765 10.6255 16.204 9.37605 17.1969C9.04458 17.1279 8.6711 16.8076 8.20255 15.9184C8.45748 17.7518 8.6284 19.6092 10.351 21.1765C9.17542 21.8612 8.28653 21.1603 7.48039 18.9976C7.1709 21.9817 8.56149 22.9179 8.61779 24.6339C8.80071 30.2094 6.41089 34.7121 6 40.5523ZM17.8975 1.8187C17.8981 1.8012 17.8947 1.7818 17.8976 1.7648C17.8239 1.7452 17.8293 1.7751 17.8975 1.8187Z" fill="black"/>
<path d="M44.5888 68.7969C44.9862 68.2754 45.3734 67.7205 46.2477 67.1633C48.2464 65.1689 48.5997 63.0047 49.2579 60.872L49.4642 55.5213L46.9956 51.6222C44.6641 49.2841 45.6309 52.0392 45.398 53.887C44.7231 59.2437 43.9667 62.2028 44.3638 63.128C45.0863 64.8113 45.0483 66.6974 44.5888 68.7969Z" fill="white"/>
<path d="M44.5882 68.7969C43.7315 64.7036 42.84 60.6175 43.1627 56.2785C43.8472 52.9099 44.0031 49.692 42.7578 46.2604C48.8961 46.9807 50.6042 50.7052 51.2174 53.6691C51.8879 56.9104 51.269 61.335 50.031 63.393C48.793 65.4509 45.7405 67.5275 45.7405 67.5275C47.6395 65.7729 48.5629 63.3955 49.2572 60.872L49.4636 55.5213L46.9949 51.6222C44.6635 49.2841 45.6302 52.0392 45.3974 53.887C44.7224 59.2437 44.0772 61.6123 44.7279 63.7101C45.2721 65.4644 45.0477 66.6974 44.5882 68.7969Z" fill="#59341D"/>
<path d="M44.2408 64.2638C43.1246 60.8337 43.9681 58.966 44.2485 56.5631C44.4532 54.8096 45.0061 51.822 44.7051 50.5408C44.4042 49.2597 45.6432 49.7956 47.0454 51.5721C48.4672 53.3733 49.0786 55.9348 49.0184 58.9347C48.9845 60.6268 48.6289 62.6722 47.2118 65.2486C46.8761 65.8589 45.9833 66.8893 44.9965 67.7299C44.8703 67.8374 44.6236 68.155 44.5015 68.233C44.2968 66.8328 44.7058 65.6928 44.2408 64.2638ZM49.9839 61.8068C50.5436 59.5737 50.9019 54.486 49.844 52.2234C48.3825 49.0977 46.5118 46.8857 43.4774 46.4083C42.4146 46.241 41.9482 45.8387 41.2128 43.71C40.8444 45.041 41.1809 47.659 42.3335 49.6948C43.3079 51.4158 43.126 56.4143 42.6224 59.21C41.5931 64.9242 41.6546 67.6834 42.6701 69.9612C42.7521 68.096 42.7368 66.8517 43.4426 66.1409C43.4488 67.975 43.9239 69.0941 45.1968 70.1953C44.9108 69.6729 44.7321 69.2254 44.6273 68.7503C47.4365 66.6786 49.4294 64.0192 49.9839 61.8068Z" fill="black"/>
<path d="M44.5888 13.353C44.9862 13.8744 45.3734 14.4294 46.2477 14.9865C48.2464 16.981 48.5997 19.1451 49.2579 21.2779L49.4642 26.6286L46.9956 30.5276C44.6641 32.8657 45.6309 30.1106 45.398 28.2628C44.7231 22.9061 43.9667 19.947 44.3638 19.0219C45.0863 17.3385 45.0483 15.4524 44.5888 13.353Z" fill="white"/>
<path d="M44.5882 13.3503C43.7315 17.4436 42.84 21.5296 43.1627 25.8686C43.8472 29.2373 44.0031 32.4552 42.7578 35.8867C48.8961 35.1664 50.6042 31.4419 51.2174 28.4781C51.8879 25.2368 51.269 20.8121 50.031 18.7542C48.793 16.6962 45.7405 14.6197 45.7405 14.6197C47.6395 16.3742 48.5629 18.7516 49.2572 21.2752L49.4636 26.6259L46.9949 30.5249C44.6635 32.863 45.6302 30.1079 45.3974 28.2601C44.7224 22.9034 44.0772 20.5348 44.7279 18.4371C45.2721 16.6827 45.0477 15.4497 44.5882 13.3503Z" fill="#59341D"/>
<path d="M44.2408 17.8838C43.1246 21.3139 43.9681 23.1815 44.2485 25.5844C44.4532 27.3379 45.0061 30.3256 44.7051 31.6067C44.4042 32.8878 45.6432 32.3519 47.0454 30.5754C48.4672 28.7742 49.0786 26.2128 49.0184 23.2129C48.9845 21.5207 48.6289 19.4753 47.2118 16.899C46.8761 16.2886 45.9833 15.2582 44.9965 14.4177C44.8703 14.3102 44.6236 13.9925 44.5015 13.9145C44.2968 15.3147 44.7058 16.4547 44.2408 17.8838ZM49.9839 20.3408C50.5436 22.5738 50.9019 27.6615 49.844 29.9241C48.3825 33.0498 46.5118 35.2618 43.4774 35.7393C42.4146 35.9065 41.9482 36.3089 41.2128 38.4375C40.8444 37.1065 41.1809 34.4885 42.3335 32.4528C43.3079 30.7317 43.126 25.7333 42.6224 22.9376C41.5931 17.2233 41.6546 14.4641 42.6701 12.1863C42.7521 14.0516 42.7368 15.2959 43.4426 16.0067C43.4488 14.1726 43.9239 13.0534 45.1968 11.9522C44.9108 12.4746 44.7321 12.9222 44.6273 13.3972C47.4365 15.4689 49.4294 18.1284 49.9839 20.3408Z" fill="black"/>
</g>
</g>
</g>
<defs>
<clipPath id="clip0_394_16109">
<rect width="90" height="90" fill="white" transform="matrix(0 -1 1 0 0 90)"/>
</clipPath>
</defs>
</svg>
