<svg width="90" height="90" viewBox="0 0 90 90" fill="none" xmlns="http://www.w3.org/2000/svg">
<g clip-path="url(#clip0_394_19827)">
<mask id="mask0_394_19827" style="mask-type:luminance" maskUnits="userSpaceOnUse" x="0" y="0" width="90" height="90">
<path d="M0 0L0 90H90V0H0Z" fill="white"/>
</mask>
<g mask="url(#mask0_394_19827)">
<path d="M44.9991 0.525482C69.5627 0.517382 89.4786 20.4335 89.4786 45.0031C89.4786 69.5702 69.5628 89.4847 44.9991 89.4766C20.4395 89.4847 0.523438 69.5698 0.523438 45.0031C0.521409 20.4335 20.4395 0.517382 44.9991 0.525482Z" fill="white" stroke="#010101" stroke-width="1.04485" stroke-linecap="round" stroke-linejoin="round"/>
<path d="M29.5703 2.72192C30.2603 2.68912 30.9626 2.66852 31.6608 2.66852C56.4927 2.66852 76.6465 22.8269 76.6465 47.6685C76.6465 67.0826 64.325 83.6505 47.0873 89.9531C70.9539 88.8649 89.9947 69.1374 89.9947 44.9983C89.9947 20.1567 69.8409 -0.00167847 45.0091 -0.00167847C39.5876 -0.00167847 34.3839 0.959624 29.5703 2.72192Z" fill="#010101" fill-opacity="0.3137"/>
<path d="M48.3735 89.3672C49.4619 89.3676 50.542 89.3261 51.614 89.2497C28.6222 87.5962 10.4809 68.4184 10.4809 44.9974C10.4817 21.5813 28.6222 2.4006 51.614 0.7491C50.542 0.6711 49.4619 0.629997 48.3735 0.629997C23.8702 0.625897 4.00391 20.4926 4.00391 44.9974C4.0035 69.507 23.8702 89.3729 48.3735 89.3647V89.3672Z" fill="#010101"/>
<path d="M21.801 45.4078C21.801 23.598 38.1434 5.60458 59.25 3.00818C58.9338 2.89728 58.6216 2.79048 58.3054 2.68368H58.2889C34.6975 2.67958 15.5664 21.8069 15.5664 45.4078C15.5647 69.0096 34.6975 88.1401 58.2889 88.1319C58.2972 88.1332 58.3013 88.1327 58.3054 88.1327C58.6216 88.028 58.9338 87.9195 59.25 87.8082C38.1434 85.2111 21.801 67.2197 21.801 45.4078Z" fill="#010101"/>
<path d="M31.9961 45.4077C31.9961 64.8336 44.9582 81.2278 62.697 86.418C63.5677 86.024 64.4179 85.6013 65.2599 85.1551C49.4309 78.8997 38.2307 63.464 38.2307 45.4077C38.2307 27.3527 49.4309 11.9186 65.2599 5.66202C64.4179 5.21832 63.5677 4.79522 62.697 4.40082C44.9541 9.58932 31.9961 25.9847 31.9961 45.4077Z" fill="#010101"/>
<path d="M48.4258 45.408C48.4258 61.2159 57.0057 75.0162 69.7625 82.4062C70.7523 81.721 71.7093 80.9988 72.6375 80.2388C61.7617 72.4951 54.6605 59.7826 54.6605 45.408C54.6605 31.0379 61.7576 18.3234 72.6375 10.5797C71.7093 9.81956 70.7523 9.09657 69.7625 8.41467C57.0057 15.801 48.4258 29.6042 48.4258 45.408Z" fill="#010101"/>
<path d="M10.9665 46.9212C10.9958 46.6452 11.0364 46.3691 11.0714 46.0893C12.0201 38.5603 14.7688 33.1943 18.6861 29.6813L13.3048 25.1246C13.3042 25.1548 13.3004 25.1851 13.3001 25.2191C7.25291 28.3313 2.89065 34.499 1.64156 44.4065C1.60596 44.6863 1.5656 44.9624 1.53636 45.2384C1.1165 49.2317 1.34375 52.8083 2.10814 55.9821L11.5374 57.6641C10.7733 54.4911 10.546 50.9145 10.9665 46.9212Z" fill="white" stroke="#010101" stroke-width="1.27133" stroke-linecap="round" stroke-linejoin="round"/>
<path d="M1.74007 46.5695C1.49502 50.0296 1.74738 53.1653 2.42595 55.9821L11.8552 57.6641C11.4744 56.0827 11.2271 54.4014 11.1267 52.6181L2.42595 51.0658C2.08492 49.6477 1.85735 48.1464 1.74007 46.5695Z" fill="white" stroke="#010101" stroke-width="1.27133" stroke-linecap="round" stroke-linejoin="round"/>
<path d="M2.42448 46.1485C2.25889 45.4641 2.12413 44.7531 2.01003 44.0309C1.99287 44.1557 1.97411 44.2804 1.95822 44.4052C1.92263 44.6851 1.88226 44.9649 1.85302 45.2409C1.80566 45.6872 1.76943 46.1296 1.73828 46.5683C1.85556 48.1451 2.08281 49.6502 2.42417 51.0645L11.1249 52.6172C11.0464 51.2233 11.06 49.7712 11.1675 48.251C11.1538 48.0695 11.135 47.888 11.1249 47.7027L2.42448 46.1485Z" fill="black" stroke="#010101" stroke-width="1.27133" stroke-linecap="round" stroke-linejoin="round"/>
<path d="M2.49133 41.2442C2.30254 42.1366 2.14203 43.0631 2.01172 44.0274C2.1255 44.7534 2.26058 45.4606 2.42618 46.1488L11.1269 47.6992C11.0484 46.3076 11.062 44.8517 11.1695 43.3354C11.1558 43.1501 11.137 42.9723 11.1269 42.7833L2.49133 41.2442Z" fill="white" stroke="#010101" stroke-width="1.27133" stroke-linecap="round" stroke-linejoin="round"/>
<path d="M3.85443 36.5682C3.30489 38.0052 2.84816 39.5594 2.49219 41.2422L11.1277 42.7812C11.0492 41.3896 11.0629 39.9338 11.1703 38.4174C11.1567 38.2321 11.1379 38.0543 11.1277 37.8653L3.85443 36.5682Z" fill="black" stroke="#010101" stroke-width="1.27133" stroke-linecap="round" stroke-linejoin="round"/>
<path d="M6.12057 32.0589C5.24939 33.4051 4.48881 34.9064 3.85156 36.574L11.1248 37.8711C11.0463 36.4757 11.06 35.0236 11.1674 33.5034C11.1537 33.3219 11.135 33.1404 11.1248 32.9551L6.12057 32.0589Z" fill="white" stroke="#010101" stroke-width="1.27133" stroke-linecap="round" stroke-linejoin="round"/>
<path d="M6.12109 32.0568L11.1257 32.9492C11.0472 31.5576 11.0608 30.1017 11.1683 28.5854C11.1241 27.9954 11.0923 27.3942 11.0815 26.7778C9.18564 28.1581 7.5132 29.9089 6.12109 32.0568Z" fill="black" stroke="#010101" stroke-width="1.27133" stroke-linecap="round" stroke-linejoin="round"/>
<path d="M40.0222 12.5816C54.382 12.5816 66.0337 33.4253 66.0337 43.5295C66.0337 53.2552 54.382 74.4766 40.0222 74.4766C25.6647 74.4766 14.0117 65.1647 14.0117 43.5295C14.0117 21.8917 25.6651 12.5816 40.0222 12.5816Z" fill="#010101" fill-opacity="0.3137"/>
<path d="M27.3047 14.8841L28.1489 15.5951C29.1265 15.5005 30.1204 15.4627 31.1286 15.4627C45.4877 15.4627 57.1426 36.3102 57.1426 46.4144C57.1426 54.2429 49.5909 69.5168 39.1532 75.1758C51.946 72.2962 61.8402 53.5562 61.8402 44.5917C61.8402 34.4913 50.1852 13.6438 35.8255 13.6438C32.8411 13.6438 29.9752 14.0522 27.3047 14.8841Z" fill="#010101" fill-opacity="0.3137"/>
<path d="M1.33646 1.12141C-0.735188 3.01971 1.50205 25.6559 11.9861 28.8739C12.0351 28.9042 12.1826 28.9571 12.4041 29.0139C12.4721 29.0328 12.5462 29.0517 12.6282 29.0706C12.255 29.7966 11.9095 30.5492 11.5882 31.313C10.4078 35.087 9.75682 39.5076 9.75682 44.6164C9.75682 44.9529 9.7511 45.2895 9.75682 45.6185C9.83978 50.4891 10.5298 54.7092 11.7144 58.3255C12.091 59.1979 12.4997 60.0469 12.9431 60.8678C12.8535 60.8848 12.7705 60.9022 12.6908 60.9192C12.3148 61.0009 12.0529 61.083 11.9864 61.1223C3.79522 63.6359 0.645482 77.9988 0.643892 85.0703C0.643575 87.0506 0.883221 88.4593 1.33646 88.8745C2.98697 90.3878 16.2556 87.267 20.848 78.8251C21.7115 77.2376 22.2696 75.4618 22.3841 73.4928C22.4305 72.6915 22.4336 71.9386 22.4219 71.2314C25.9339 73.4391 29.9336 74.6908 34.1808 74.6908C38.4747 74.6908 42.9816 73.4103 47.1611 71.1554C55.8094 64.4077 61.7719 51.5706 61.7719 44.6126C61.7719 37.5941 56.1431 25.3874 47.8921 18.592C43.5124 16.0811 38.729 14.6479 34.1808 14.6479C29.9377 14.6479 25.9444 15.9034 22.4346 18.1042C22.4308 17.5975 22.4165 17.0567 22.3844 16.5046C22.2611 14.387 21.6267 12.4962 20.65 10.821C15.8859 2.64541 2.96377 -0.368486 1.33646 1.12141Z" fill="white" stroke="#010101" stroke-width="1.27133" stroke-linecap="round" stroke-linejoin="round"/>
<path d="M9.07031 44.7615C9.07031 58.3254 16.8185 69.8442 27.5997 74.0311C29.4088 74.5227 31.2913 74.7852 33.2269 74.7852C33.6338 74.7852 34.0438 74.77 34.457 74.747C22.5989 71.3092 13.8378 59.1876 13.8378 44.7615C13.8378 30.3388 22.5929 18.2228 34.4442 14.7779C34.0374 14.7552 33.6306 14.74 33.2269 14.74C31.2649 14.74 29.3583 15.0123 27.5269 15.519C16.7835 19.7316 9.07031 31.2274 9.07031 44.7615Z" fill="black"/>
<path d="M18.6055 44.7599C18.6055 58.6301 26.7043 70.3687 37.8675 74.3086C38.8369 74.115 39.8095 73.8647 40.7757 73.5599C30.5853 69.0277 23.373 57.8458 23.373 44.7599C23.373 31.6759 30.5821 20.4977 40.7662 15.9637C39.8 15.6574 38.8274 15.4078 37.858 15.2149C26.7001 19.159 18.6055 30.8931 18.6055 44.7599Z" fill="black"/>
<path d="M28.1406 44.7596C28.1406 56.9553 34.4032 67.4997 43.5028 72.5469C44.4086 72.1627 45.3018 71.7354 46.179 71.2619C38.2236 65.8362 32.9094 55.9978 32.9094 44.7596C32.9094 33.5247 38.2236 23.689 46.1726 18.2625C45.2954 17.786 44.4023 17.3587 43.4996 16.973C34.4032 22.0213 28.1406 32.5642 28.1406 44.7596Z" fill="black"/>
<path d="M37.6758 44.6959C37.6758 54.7301 41.8935 63.6454 48.4345 69.3203C49.2323 68.5614 50.0014 67.7555 50.7388 66.9115C45.6217 61.2737 42.4433 53.4066 42.4433 44.6959C42.4433 35.9341 45.663 28.0232 50.8373 22.3774C50.1031 21.5379 49.3371 20.7324 48.5394 19.9799C41.938 25.6484 37.6758 34.6106 37.6758 44.6959Z" fill="black"/>
<path d="M45.8203 45.0049C45.8203 52.515 50.0221 58.6055 55.1964 58.6055C56.1563 58.6055 57.0844 58.3926 57.9584 58.0027C60.4184 53.196 61.8423 48.4007 61.8423 45.0049C61.8423 41.5259 60.4661 36.7763 58.0665 32.0419C57.1638 31.6183 56.1976 31.3914 55.1964 31.3914C50.0221 31.3914 45.8203 37.4948 45.8203 45.0049Z" fill="#FAD5E5" stroke="#010101" stroke-width="1.27133" stroke-linecap="round" stroke-linejoin="round"/>
<path d="M53.8337 51.104C55.0955 50.2381 55.6898 48.6461 55.159 47.5532C54.6251 46.4566 53.1726 46.2713 51.9076 47.141C50.6458 48.007 50.0546 49.599 50.5854 50.6919C51.1162 51.7885 52.5719 51.9738 53.8337 51.104Z" fill="#010101"/>
<path d="M53.8337 38.7271C55.0955 39.593 55.6898 41.1851 55.159 42.2779C54.6251 43.3745 53.1726 43.5598 51.9076 42.6901C50.6458 41.8241 50.0546 40.2321 50.5854 39.1393C51.1162 38.0426 52.5719 37.8573 53.8337 38.7271Z" fill="#010101"/>
<path d="M32.0187 26.4561C35.998 26.4561 39.224 30.2943 39.224 35.025C39.224 39.7594 35.998 43.5977 32.0187 43.5977C28.0385 43.5977 24.8125 39.7594 24.8125 35.025C24.8125 30.2943 28.0385 26.4561 32.0187 26.4561Z" fill="white" stroke="#010101" stroke-width="1.27133" stroke-linecap="round" stroke-linejoin="round"/>
<path d="M33.2895 34.0791C34.6149 34.0791 35.6892 35.3573 35.6892 36.9342C35.6892 38.5111 34.6149 39.793 33.2895 39.793C31.961 39.793 30.8867 38.5111 30.8867 36.9342C30.8867 35.3573 31.961 34.0791 33.2895 34.0791Z" fill="#010101"/>
<path d="M32.0187 46.3975C35.998 46.3975 39.224 50.2357 39.224 54.969C39.224 59.7035 35.998 63.5406 32.0187 63.5391C28.0385 63.5406 24.8125 59.7031 24.8125 54.969C24.8125 50.2357 28.0385 46.3975 32.0187 46.3975Z" fill="white" stroke="#010101" stroke-width="1.27133" stroke-linecap="round" stroke-linejoin="round"/>
<path d="M33.2895 49.9712C34.6149 49.9712 35.6892 51.2494 35.6892 52.8266C35.6892 54.405 34.6149 55.6839 33.2895 55.6836C31.961 55.6839 30.8867 54.405 30.8867 52.8266C30.8867 51.2494 31.961 49.9712 33.2895 49.9712Z" fill="#010101"/>
<path d="M18.9369 65.1009C7.4205 66.0508 4.79805 80.1592 6.16633 80.8376C7.5346 81.516 22.9276 78.2598 18.9369 65.1009Z" fill="#010101" stroke="#010101" stroke-width="1.27133" stroke-linejoin="round"/>
<path d="M18.9369 24.8945C7.4205 23.9453 4.79805 9.83653 6.16633 9.15583C7.5346 8.47903 22.9276 11.7348 18.9369 24.8945Z" fill="#010101" stroke="#010101" stroke-width="1.27133" stroke-linejoin="round"/>
</g>
</g>
<defs>
<clipPath id="clip0_394_19827">
<rect width="90" height="90" fill="white" transform="matrix(0 -1 1 0 0 90)"/>
</clipPath>
</defs>
</svg>
