<svg width="90" height="90" viewBox="0 0 90 90" fill="none" xmlns="http://www.w3.org/2000/svg">
<g clip-path="url(#clip0_394_506)">
<mask id="mask0_394_506" style="mask-type:luminance" maskUnits="userSpaceOnUse" x="0" y="0" width="90" height="90">
<path d="M0 0L0 90H90V0H0Z" fill="white"/>
</mask>
<g mask="url(#mask0_394_506)">
<path d="M35.7086 0.727798C34.4617 1.3403 33.1355 1.7552 31.8094 2.1504C25.3963 4.1065 19.7157 7.3271 14.7674 11.8321C-7.61884 32.0846 -4.01647 68.2426 21.9325 83.6938C25.3568 85.7289 29.0185 87.191 32.7792 88.4556C32.7792 88.4556 32.799 88.4556 32.8188 88.4753C32.8386 88.4753 32.8584 88.4951 32.8782 88.4951C32.9178 88.5149 32.9574 88.5149 33.0167 88.5346C34.1648 88.8903 39.1527 90.3129 46.6543 89.9375C47.6836 89.8782 48.7524 89.7992 49.8608 89.6608C52.6715 88.7915 55.4227 87.7048 58.0156 86.3217C65.933 82.1131 72.1876 76.146 76.7203 68.4007C79.8674 63.0066 81.827 57.2371 82.6385 51.0725C82.7968 49.9265 82.876 48.7805 82.9552 47.6345C82.975 47.4369 83.0145 47.1998 82.9552 47.0022L82.975 45.2437C83.0937 41.7267 82.6781 38.269 81.8863 34.8705C80.3227 28.2514 77.5912 22.2053 73.3752 16.7915C70.2479 12.7607 66.5861 9.3425 62.39 6.517C58.3323 3.7706 53.9382 1.6564 49.1879 0.372101C49.0097 0.332601 48.8316 0.273403 48.6534 0.233803H48.6336C47.6044 0.135003 46.6345 0.0954998 45.7042 0.0559998C39.6871 -0.1613 35.7086 0.727798 35.7086 0.727798Z" fill="#F4A5AA"/>
<path fill-rule="evenodd" clip-rule="evenodd" d="M45.7227 0.0363007C46.6529 0.0560007 47.6426 0.115304 48.6521 0.214104H48.6719C52.3534 0.530304 56.5694 1.2811 61.0426 2.8025C70.3455 6.9123 78.0253 12.9188 83.4288 21.6719C95.2256 40.7783 90.8117 66.089 73.2749 80.0978C69.3954 83.1999 65.1201 85.5313 60.528 87.3491C56.6881 88.5939 53.1055 89.3052 49.8792 89.6609C48.7708 89.7992 47.702 89.8782 46.6727 89.9375C52.7493 88.5544 58.2914 86.0253 63.398 82.3898C68.2672 78.9123 72.2852 74.6247 75.4522 69.606C79.4108 63.3228 81.786 56.4666 82.3204 49.0176C82.3798 48.2668 82.6767 47.516 82.261 46.8047C81.9245 46.6466 81.5881 46.7454 81.2318 46.7256C81.113 46.7256 80.9745 46.7256 80.9151 46.6466V46.6269C80.8953 46.5873 80.8953 46.5281 80.9151 46.4293C82.4986 46.2514 82.5183 46.2514 82.4986 44.5917C82.3798 35.9375 80.0442 27.9155 75.3928 20.5851C69.8704 11.8519 62.2104 5.7267 52.6107 2.0121C50.3543 1.1625 48.0583 0.490701 45.7227 0.0363007Z" fill="#EB6B8E"/>
<path d="M24.7004 33.592C24.6014 33.3154 24.5025 33.0388 24.3837 32.7621C24.2649 32.446 24.0274 32.2682 23.6909 32.367C23.394 32.446 23.2753 32.7029 23.3742 32.9992C23.493 33.3549 23.394 33.5722 22.9982 33.6315C22.7013 33.671 22.6221 33.8489 22.6617 34.1255C22.7607 34.8368 22.3648 35.311 21.8897 35.7457C20.5438 36.9707 18.901 37.6425 17.179 38.1365C17.0008 38.176 16.7831 38.2352 16.6445 37.9784C18.9208 36.8126 18.8416 34.4219 19.2968 32.4262C20.7219 26.1628 20.8209 19.761 20.6824 13.379C20.6626 12.648 20.4844 11.8576 21.7314 12.233C22.1075 12.3516 22.5429 12.1145 22.7804 11.7984C23.3149 11.1068 24.0472 10.8104 24.7994 10.4548C25.5317 10.1189 25.7692 10.1979 25.7692 11.0475C25.7692 13.794 25.6307 16.5009 25.215 19.2078C24.9379 21.0256 24.6608 22.8434 24.3441 24.6611C23.9087 27.1507 24.3639 29.581 24.7598 32.0113C24.8192 32.3274 24.8785 32.6633 24.9379 32.9795C24.9181 33.1968 25.2546 33.5525 24.7004 33.592Z" fill="#020202"/>
<path d="M22.9619 52.2057C22.3285 52.3638 22.2097 52.6404 22.4077 53.332C23.1598 55.782 23.1202 58.3309 23.0213 60.86C22.9223 63.231 22.9421 65.602 23.14 67.9533C23.2984 69.9884 23.8328 71.905 25.06 73.5647C25.4756 74.1179 25.5746 74.5526 24.6245 74.4736C24.0307 74.4143 23.5755 74.8885 22.9223 74.77C21.0419 74.3945 19.6564 72.9324 19.2012 70.6404C18.9043 69.1388 18.9834 67.6174 19.0626 66.1157C19.221 62.8556 19.4387 59.6152 19.5575 56.355C19.6168 54.5175 19.7158 52.6404 18.2511 51.1585C17.9344 50.8424 17.974 50.3287 18.2115 49.9533C18.4688 49.5383 18.7063 50.0125 18.9439 50.0718C19.0824 50.1113 19.221 50.1509 19.2803 49.9928C19.3991 49.7162 19.2606 49.4791 19.0428 49.321C18.5876 48.9851 17.9542 48.8666 17.5781 48.175C19.8148 48.5307 21.5368 49.3408 22.2889 51.534C22.3681 51.7513 22.4275 51.8896 22.665 51.9094C22.9223 51.8698 23.0213 51.9489 22.9619 52.2057Z" fill="#010101"/>
<path d="M45.6227 53.3516C43.2475 53.1342 41.4859 51.8894 40.1201 50.0519C39.7045 49.4789 40.2389 49.4987 40.5952 49.4987C41.8619 49.4789 43.0891 49.3603 44.2569 48.8269C46.4738 47.8192 46.8498 46.3373 45.306 44.48C44.6726 43.7292 43.9798 43.0376 43.3068 42.2868C42.6141 41.5162 42.6735 41.2594 43.6433 40.9827C44.059 40.8642 44.2569 40.6073 44.2767 40.2122C44.2965 40.0146 44.2371 39.7972 44.0392 39.7182C43.8611 39.6392 43.7423 39.7972 43.6235 39.896C43.386 40.0738 43.1683 40.5481 42.8318 40.1331C42.4953 39.7182 42.8714 39.4811 43.2079 39.2045C44.0392 38.5524 44.9893 38.2165 45.9987 37.9992C46.8498 37.8214 47.6416 37.9399 48.2552 38.6512C48.5521 39.0069 48.75 39.323 48.2947 39.7182C47.8197 40.1331 47.9583 40.6666 48.0968 41.1803C48.275 41.7928 48.3937 42.4053 47.7405 42.8598C47.3447 43.1364 47.5228 43.4328 47.7801 43.6699C48.3739 44.2824 49.0073 44.8752 49.6011 45.4679C49.9772 45.8433 50.373 46.278 50.1949 46.851C49.997 47.4043 49.4032 47.4833 48.8885 47.5821C48.6708 47.6216 48.4333 47.5821 48.1958 47.5821C46.9884 47.6414 46.4936 48.6293 47.1269 49.637C47.3645 49.9926 47.6218 50.3483 47.8197 50.7237C48.5125 52.1068 48.2354 52.7588 46.7113 53.154C46.3352 53.2923 45.9591 53.312 45.6227 53.3516Z" fill="#030303"/>
<path d="M37.7656 50.973C37.3302 51.7041 37.6666 52.2771 38.2604 52.8896C37.5479 53.0674 36.9541 52.7711 36.3603 52.8303C35.4696 52.9094 34.5789 52.9291 33.708 53.0082C32.2433 53.1267 30.8776 52.9687 29.8087 51.8227C29.6702 51.6844 29.5514 51.4868 29.3139 51.6251C29.0764 51.7831 29.0962 52.04 29.2149 52.2376C29.492 52.692 29.7691 53.1267 30.0858 53.5416C30.4025 53.9368 30.64 54.3715 30.7588 54.8457C30.8578 55.2409 30.739 55.6163 30.3431 55.7348C29.8483 55.8534 29.9869 55.3594 29.9473 55.1421C29.6702 53.7985 28.4628 52.9884 28.0075 51.7436C27.869 51.3682 26.2063 51.9807 25.9094 52.5537C25.474 53.4231 25.2761 54.3517 25.1771 55.3002C25.1573 55.5373 25.3354 55.9127 24.9396 55.9522C24.6625 55.9719 24.5041 55.6756 24.3656 55.4582C24.1478 55.0828 24.227 54.6876 24.326 54.3122C24.4645 53.7392 24.6823 53.186 24.6427 52.5735C24.6031 52.1388 24.9396 52.04 25.2167 51.8819C26.147 51.3485 26.8793 50.4 28.2253 50.7952C28.7003 50.9335 28.7597 50.2222 28.8388 49.827C29.0962 48.3847 29.0962 48.4242 30.5609 48.5427C33.134 48.7601 35.6873 48.6218 38.2604 48.4044C38.4782 48.3847 38.8542 48.1476 38.9532 48.5032C39.0324 48.8194 38.7157 49.017 38.4386 49.1355C37.4687 49.5702 36.4395 49.4516 35.43 49.4319C34.8758 49.2936 34.3216 49.3528 33.7278 49.4121C33.807 49.9258 34.2226 49.6492 34.4008 49.827C34.7966 50.0444 35.3113 49.9654 35.6477 50.321C36.1822 50.8545 36.677 50.8347 37.1718 50.2617C37.1916 50.5779 38.1021 50.3013 37.7656 50.973Z" fill="#040404"/>
<path d="M65.9493 36.3178C67.4536 37.1082 68.2255 38.2344 68.7995 39.499C70.1455 42.5418 70.284 45.7426 69.9673 48.983C69.908 49.5363 69.6902 49.8327 69.0766 49.6548C68.3443 49.4572 67.8693 49.8129 67.5526 50.4254C67.2953 50.9194 66.9786 51.3936 66.5629 51.769C66.4441 51.8678 66.266 51.9863 66.1472 51.9666C65.9097 51.9271 65.9097 51.6702 65.9493 51.4726C66.1077 50.5242 66.2264 49.5758 66.4441 48.6471C67.0973 45.6043 67.4536 42.5418 66.9192 39.4397C66.7015 38.4518 66.2858 37.5231 65.9493 36.3178Z" fill="#030303"/>
<path d="M30.9956 16.2634C31.3716 17.8836 31.2727 19.3655 31.1143 20.8276C30.758 24.3447 29.8277 27.7431 28.9568 31.1416C28.7787 31.8134 28.6402 32.4852 28.4818 33.1569C28.4224 33.3743 28.4224 33.6904 28.1651 33.7102C27.8286 33.7299 27.8484 33.3545 27.7297 33.1372C27.1161 31.9714 27.2546 30.7662 27.4328 29.5214C27.9672 25.8463 28.4026 22.1515 29.6496 18.6147C29.9267 17.8441 30.2236 17.034 30.9956 16.2634Z" fill="#050505"/>
<path d="M26.959 70.7344C26.5236 68.4621 26.583 66.427 26.6027 64.3919C26.6621 61.0132 26.7413 57.6345 26.1871 54.2755C26.0683 53.584 26.5236 53.5247 26.9788 53.4062C27.5726 53.2283 27.5528 53.7421 27.5924 54.0384C28.0279 57.2591 28.4237 60.4797 28.8394 63.7003C28.9977 65.0044 29.1561 66.3085 29.3342 67.6125C29.3936 68.0472 29.3342 68.3634 28.879 68.5609C28.0081 68.9561 27.4736 69.6477 26.959 70.7344Z" fill="#030303"/>
<path d="M57.1839 35.4041C57.4214 35.1472 57.7183 34.9299 57.7975 34.5742C58.1735 34.0408 57.9954 33.448 58.0746 32.875C58.0944 32.6181 57.7975 32.1637 58.4111 32.1637C59.8758 33.1121 60.1331 34.594 60.0539 36.1352C59.9549 38.111 59.6382 40.0671 59.0246 41.9442C58.2923 44.1769 58.3715 46.3898 58.708 48.6621C59.0642 51.0726 59.5591 53.4436 60.0539 55.8146C60.3112 56.9804 59.9351 57.3558 58.7673 57.0594C58.2923 56.9409 57.8568 56.7038 57.4016 56.4864C56.9463 56.2691 56.6692 56.0517 57.0255 55.4392C57.3224 54.9453 57.0651 54.3525 56.8078 53.8388C56.6099 53.4634 56.3921 53.088 56.1744 52.7323C56.115 52.5347 56.115 52.3371 56.2536 52.1593C56.7682 51.7641 57.0057 52.2976 57.3224 52.515C57.4808 52.6335 57.6193 52.8113 57.837 52.7323C58.1142 52.6335 58.0746 52.3569 58.035 52.1396C57.6391 49.9661 57.7381 47.7729 57.5204 45.5797C57.362 43.92 57.6985 42.2603 57.7579 40.5808C57.7975 39.4151 57.9558 38.2296 58.2329 37.0836C58.3319 36.6291 58.3319 36.1944 57.6391 36.2537C57.3422 36.0561 56.788 35.9969 57.1839 35.4041Z" fill="#090909"/>
<path d="M56.3699 52.359C56.3105 52.4775 56.2511 52.6158 56.1719 52.7344C54.5885 50.9759 54.0541 48.9407 54.4103 46.629C54.8656 43.6652 55.4 40.7212 54.8854 37.7179C54.826 37.3425 55.0239 37.1054 55.3208 36.8881C55.7365 36.5719 56.1719 36.2755 56.5876 35.9792C57.3199 35.7025 57.3397 36.1965 57.3002 36.651C57.2804 36.8881 57.0626 37.1054 56.9637 37.3425C56.0334 39.1405 55.8355 41.0373 56.0928 42.9934C56.3501 44.8902 56.2709 46.8068 56.2709 48.7036C56.2709 49.652 56.2313 50.6202 56.5282 51.5489C56.6272 51.8452 56.5876 52.1219 56.3699 52.359Z" fill="#0D0D0D"/>
<path d="M20.367 37.7618C21.4556 37.2086 22.5047 36.5763 23.3558 35.6872C23.6131 35.4105 23.9496 35.213 24.3256 35.4105C24.6621 35.5884 24.6027 35.9243 24.5038 36.2009C24.3058 36.7739 24.9392 36.9517 25.0778 37.4061C24.1673 37.6433 23.7318 36.6553 22.8609 36.6356C22.9599 37.4062 23.5933 37.7025 24.0683 38.0779C24.5236 38.4534 25.058 38.73 25.533 39.0856C25.731 39.2437 25.9883 39.461 25.731 39.7377C25.5132 39.9748 25.2361 39.8562 25.0184 39.6981C24.8798 39.5993 24.7413 39.5006 24.6621 39.3622C23.9298 38.1767 22.9005 38.2755 21.7921 38.6905C20.6243 39.1449 19.4763 39.6389 18.3085 40.0736C17.8136 40.2514 17.2792 40.5082 16.5469 40.034C18.447 39.0461 20.5847 39.0461 22.3859 37.8211C21.6733 37.5445 21.2379 37.9594 20.7628 37.9396C20.5451 38.0582 20.3472 38.1175 20.367 37.7618Z" fill="#141414"/>
<path d="M25.6116 32.5C25.0969 30.9984 25.0573 29.4967 25.3344 27.9753C25.7105 25.8019 26.6408 23.7865 27.1752 21.6526C27.3336 21.0203 27.4919 20.388 27.769 19.7558C27.9472 20.5461 27.967 21.376 27.769 22.1663C27.3929 23.5296 27.0169 24.893 26.5616 26.2168C25.8887 28.1334 25.5126 30.0697 25.8491 32.1048C25.8491 32.2234 25.8689 32.3617 25.6116 32.5Z" fill="#131313"/>
<path d="M24.8808 58.8208C25.6528 59.5914 25.6923 60.2829 25.7121 60.9547C25.7319 62.2588 25.6725 63.5826 25.6132 64.8866C25.5538 66.4278 25.5142 67.9492 25.8507 69.6484C25.2371 69.3323 25.2173 68.8779 25.1183 68.5024C24.6829 66.7637 24.8808 64.9854 24.8808 63.2072C24.861 61.8438 24.8808 60.4607 24.8808 58.8208Z" fill="#101010"/>
<path d="M22.9604 52.2031C22.8813 52.1043 22.7823 52.0253 22.7031 51.9265C23.772 50.9979 24.7814 49.9704 26.1472 49.4369C25.395 50.741 24.3658 51.6696 22.9604 52.2031Z" fill="#1F1F1F"/>
<path d="M31.4525 59.5538C31.5317 59.9095 31.5317 60.1268 31.2744 60.1466C30.9973 60.1663 30.7399 60.028 30.6806 59.7514C30.4826 58.9018 30.7597 57.9731 30.2055 57.2026C30.1461 57.1235 30.2847 56.9655 30.4232 56.9457C30.6608 56.9259 30.7795 57.084 30.8587 57.2618C31.2744 58.0127 31.3931 58.8623 31.4525 59.5538Z" fill="#323232"/>
<path d="M20.0695 48.1484C18.8226 48.0496 18.1496 46.9037 16.8828 46.7653C17.9516 46.0936 19.5351 46.8246 20.0695 48.1484Z" fill="#272727"/>
<path d="M20.3681 37.7579C20.5067 37.8172 20.6452 37.8962 20.764 37.9555C19.9921 38.4297 19.141 38.6668 18.2305 38.7656C18.8836 38.2717 19.616 37.995 20.3681 37.7579Z" fill="#414141"/>
<path d="M24.7031 33.5884C24.7823 33.3711 24.8615 33.1735 24.9209 32.9561C25.1782 33.5884 25.3167 34.2405 25.3563 35.0703C24.7625 34.6356 24.7427 34.1021 24.7031 33.5884Z" fill="#3F3F3F"/>
<path d="M56.3705 37.1454C56.2517 36.7107 56.8851 36.4143 56.5882 35.9599C56.707 35.703 56.9049 35.5054 57.1622 35.4066C57.3206 35.6042 57.5581 35.5252 57.7758 35.5845C57.954 36.3945 57.2216 37.2046 56.3705 37.1454Z" fill="#323232"/>
<path d="M34.4009 49.7556C34.0248 49.7753 33.6289 49.8149 33.332 49.3209C34.0644 49.0443 34.7374 49.1628 35.4103 49.3604C35.0738 49.3802 34.7176 49.3802 34.3811 49.4394C34.0842 49.5185 34.3415 49.6568 34.4009 49.7556Z" fill="#8D8D8D"/>
<path d="M58.3907 32.1676C57.9552 32.9184 58.4501 33.8866 57.7969 34.5781C57.975 33.8866 58.0938 33.195 57.9552 32.4837C57.8958 32.1281 57.9354 31.8317 58.3907 32.1676Z" fill="#323232"/>
<path d="M37.7657 50.9766C37.5677 50.6999 37.2115 50.5814 37.1719 50.1862C37.6073 50.2653 38.1417 50.2653 37.7657 50.9766Z" fill="#2B2B2B"/>
<path d="M56.3731 37.149C56.8482 36.6155 57.3232 36.1018 57.7982 35.5683C58.2535 35.3312 58.7285 35.1337 59.2827 35.1732C58.0951 39.1051 57.9764 43.0568 58.1149 47.0283C58.1743 49.1424 58.3722 51.2368 58.7879 53.3115C58.8275 53.5288 59.0056 53.7857 58.7681 53.9635C58.5108 54.1413 58.2733 53.924 58.0358 53.8252C57.3232 53.5091 56.9867 52.7978 56.3929 52.3631C55.3637 51.3554 55.7002 50.0908 55.7793 48.8856C55.9179 47.0085 55.8189 45.1512 55.5814 43.2939C55.2845 41.1798 55.4626 39.1249 56.3731 37.149Z" fill="#F7F7F7"/>
</g>
</g>
<defs>
<clipPath id="clip0_394_506">
<rect width="90" height="90" fill="white" transform="matrix(0 -1 1 0 0 90)"/>
</clipPath>
</defs>
</svg>
