<svg width="90" height="90" viewBox="0 0 90 90" fill="none" xmlns="http://www.w3.org/2000/svg">
<g clip-path="url(#clip0_394_542)">
<mask id="mask0_394_542" style="mask-type:luminance" maskUnits="userSpaceOnUse" x="0" y="0" width="90" height="90">
<path d="M0 0L0 90H90V0H0Z" fill="white"/>
</mask>
<g mask="url(#mask0_394_542)">
<path d="M90 45C90 20.1472 69.8528 0 45 0C20.1472 0 0 20.1472 0 45C0 69.8528 20.1472 90 45 90C69.8528 90 90 69.8528 90 45Z" fill="#F0F0F0"/>
<path d="M90 45C90 69.9 69.9 90 45 90C20.1 90 0 69.9 0 45L90 45Z" fill="#009245"/>
<path d="M34.1992 31.2008L40.7992 36.0008L38.3992 43.8008L44.9992 39.0008L51.5992 43.8008L49.1992 36.0008L55.7992 31.2008H47.3992L44.9992 23.7008L42.5992 31.2008H34.1992Z" fill="#DF2428"/>
<path d="M62.9984 38.3984C62.9984 48.2984 54.8984 56.3984 44.9984 56.3984C35.0984 56.3984 26.9984 48.2984 26.9984 38.3984C26.9984 32.9984 29.3984 27.8984 33.5984 24.2984C22.7984 30.5984 19.1984 44.3984 25.4984 55.1984C31.7984 65.9984 45.5984 69.5984 56.3984 63.2984C67.1984 56.9984 70.7984 43.1984 64.4984 32.3984C62.3984 29.0984 59.6984 26.0984 56.3984 24.2984C60.5984 27.8984 62.9984 32.9984 62.9984 38.3984Z" fill="#DF2428"/>
</g>
</g>
<defs>
<clipPath id="clip0_394_542">
<rect width="90" height="90" fill="white" transform="matrix(0 -1 1 0 0 90)"/>
</clipPath>
</defs>
</svg>
