<svg width="92" height="93" viewBox="0 0 92 93" fill="none" xmlns="http://www.w3.org/2000/svg">
<g clip-path="url(#clip0_394_985)">
<path d="M0.5 46.0816C0.500002 70.7038 19.8473 90.6641 43.7134 90.6641C67.5794 90.6641 86.9267 70.7038 86.9267 46.0816C86.9267 21.4594 67.5794 1.49911 43.7133 1.49911C19.8473 1.49911 0.499998 21.4594 0.5 46.0816Z" fill="url(#paint0_linear_394_985)"/>
<path d="M78.4023 44.8563C78.4023 43.3829 77.2365 42.0822 75.4738 41.2996C73.7502 25.3162 60.6207 12.8837 44.6684 12.8837C27.5442 12.8837 13.6406 27.1895 13.6406 44.8563C13.6406 62.5231 27.5442 76.8672 44.6684 76.8672C60.6332 76.8672 73.7667 64.4145 75.4738 48.4131C77.2365 47.6305 78.4023 46.3297 78.4023 44.8563Z" fill="url(#paint1_radial_394_985)" stroke="#2E1E0F" stroke-width="2.55345"/>
<path d="M73.4402 52.204C68.3356 61.0411 58.99 66.9727 48.3033 66.9727C33.2519 66.9727 20.8648 55.2287 19.2554 40.1428C17.9902 39.5811 17.0497 38.7358 16.6735 37.7516C16.0206 40.2535 15.668 42.8869 15.668 45.6019C15.668 62.2579 28.776 75.7812 44.9205 75.7812C58.8711 75.7812 70.5282 65.6914 73.4402 52.204Z" fill="#D6825B" fill-opacity="0.89412"/>
<path opacity="0.100629" d="M76.8636 44.1199C76.8636 43.336 74.1763 42.7006 70.8615 42.7006C67.5466 42.7006 64.8594 43.336 64.8594 44.1199C64.8594 44.9037 67.5466 45.5391 70.8615 45.5391C74.1763 45.5391 76.8636 44.9037 76.8636 44.1199Z" fill="white"/>
<path d="M63.744 19.986C62.273 19.4712 59.5181 17.4517 56.3801 16.259C52.9993 14.9741 49.2198 14.5305 47.4532 14.5305C30.7236 14.5305 17.1406 28.5439 17.1406 45.8034C17.1406 63.063 30.7236 77.0391 47.4532 77.0391C49.1356 77.0391 55.3825 76.0789 59.3314 74.084C63.3771 72.0403 65.1242 68.9544 66.6707 68.4131C65.6489 68.0555 62.3652 67.2412 62.1402 66.1889L63.464 62.0673L59.3299 59.5635L62.5806 57.4705L59.4045 55.3898L58.8549 50.9472L49.5929 50.6319L54.439 48.202L50.8113 46.5955L55.6118 44.8977L52.4333 42.1274L45.2469 40.0594L54.1957 39.3822L57.7855 37.1585L58.4192 34.0319L61.3181 33.1826L58.6198 29.0102L64.5569 27.5862L59.2556 23.2232L62.6173 23.445C64.1818 22.5508 62.0261 20.5873 63.744 19.986Z" fill="#31180C" fill-opacity="0.89412"/>
<path d="M61.9178 19.0774C60.4121 18.5504 57.5921 16.4833 54.3801 15.2625C50.9195 13.9472 47.0508 13.4931 45.2425 13.4931C28.1183 13.4931 14.2148 27.8372 14.2148 45.504C14.2148 63.1708 28.1183 77.4766 45.2425 77.4766C46.9647 77.4766 53.3589 76.4937 57.401 74.4518C61.5422 72.3598 63.3305 69.2011 64.9135 68.6471C63.8676 68.281 60.5064 67.4475 60.2761 66.3704L61.6311 62.1515L57.3995 59.5886L60.7269 57.4463L57.4758 55.3165L56.9133 50.7691L47.4328 50.4464L52.3931 47.9591L48.6799 46.3147L53.5937 44.5768L50.3402 41.7412L42.9842 39.6244L52.1441 38.9312L55.8186 36.6551L56.4673 33.4546L59.4346 32.5853L56.6727 28.3146L62.7498 26.8569L57.3234 22.391L60.7645 22.618C62.3658 21.7027 60.1593 19.6929 61.9178 19.0774Z" fill="url(#paint2_radial_394_985)"/>
<path opacity="0.308176" d="M75.7239 44.1229C75.7239 43.4875 73.5454 42.9723 70.8581 42.9723C68.1707 42.9723 65.9922 43.4875 65.9922 44.1229C65.9922 44.7583 68.1707 45.2734 70.8581 45.2734C73.5454 45.2734 75.7239 44.7583 75.7239 44.1229Z" fill="white"/>
<path d="M65.8928 48.2782C64.6535 50.2301 64.1669 52.3174 65.6172 55.6016C66.2883 53.8157 65.9787 48.3299 65.8928 48.2782Z" fill="white"/>
<path d="M65.6748 32.4447C64.5077 33.7165 63.8239 36.0385 65.5335 39.3438C66.1592 36.765 65.9038 34.0732 65.6748 32.4447Z" fill="white"/>
<path d="M63.8569 46.6877C63.2497 46.0985 62.6379 47.1675 62.6379 47.1675L62.6759 47.7617L62.1783 48.4493L62.509 49.0591L62.115 50.0624L62.3833 50.3494L62.1129 51.3311L62.3358 51.5592L62.0664 53.2083L62.3675 53.356L62.246 54.7123C62.246 54.7123 62.4678 54.273 62.4932 54.6691C62.5186 55.0652 62.5186 55.0652 62.5186 55.0652L62.4383 56.4143L62.657 56.5763L62.6961 57.8378L62.9845 57.7875L63.0563 58.9097L63.387 59.5195L63.3848 58.1848L63.4619 57.4371C63.4619 57.4371 63.2073 55.4122 63.1608 54.6861C63.1144 53.9599 63.426 50.3676 63.426 50.3676L63.7112 48.3152C63.7112 48.3152 64.1825 47.0036 63.8569 46.6877Z" fill="#3C2A1E"/>
<path d="M63.528 41.9217C63.0701 41.9348 62.149 41.2276 62.149 41.2276L62.4948 40.7668L61.7958 39.6202L62.3362 39.5927L61.6573 38.1089L61.9375 37.9264L61.5547 35.8569C61.5547 35.8569 61.9756 35.917 61.8677 35.5352C61.7598 35.1535 61.7598 35.1535 61.7598 35.1535L61.6097 34.1114L61.9311 33.9218L61.6393 31.9699C61.6393 31.9699 61.9819 32.1104 61.965 31.8463C61.948 31.5822 61.9026 31.5234 61.9026 31.5234L62.2388 30.263L62.9103 29.6786C62.9103 29.6786 63.0806 30.3832 62.978 30.7349C62.8754 31.0866 62.4852 32.1561 62.4948 32.9556C62.5043 33.7551 63.1007 37.8571 63.1304 38.3192C63.16 38.7814 63.0838 40.1967 63.3197 40.6229C63.5555 41.0491 63.8199 41.27 63.528 41.9217Z" fill="#3C2A1E"/>
<path d="M64.7266 51.7047C64.8191 52.3143 65.1802 52.7303 65.5798 52.6603C65.7518 52.6302 65.9037 52.5138 66.0239 52.3411C66.0416 51.6855 66.0387 51.03 66.0253 50.4379C65.8646 50.2086 65.649 50.0793 65.4177 50.1199C65.1881 50.1601 64.9916 50.3575 64.8632 50.6342C64.7865 50.977 64.7406 51.3319 64.7266 51.7047Z" fill="#3C2A1E"/>
<path d="M65.6745 32.4807C65.7807 32.3675 65.7588 31.4645 65.5952 31.7179C65.1184 32.4571 62.8195 34.9643 65.4967 39.2109C63.8966 35.8388 64.4949 33.7131 65.6745 32.4807Z" fill="#3C2A1E"/>
<path d="M64.5589 35.2395C64.6037 35.9411 64.9957 36.4438 65.4322 36.3673C65.6277 36.3331 65.7957 36.1874 65.9216 35.9742C65.9288 35.3116 65.8978 34.6855 65.8524 34.1054C65.6947 33.9005 65.4883 33.7885 65.2701 33.8268C64.8336 33.9032 64.5141 34.5378 64.5589 35.2395Z" fill="#3C2A1E"/>
<path d="M65.4674 51.6765C65.4572 51.5162 65.3681 51.4005 65.2684 51.4179C65.1687 51.4354 65.0962 51.5795 65.1064 51.7398C65.1166 51.9 65.2057 52.0158 65.3054 51.9983C65.4051 51.9809 65.4777 51.8368 65.4674 51.6765Z" fill="white"/>
<path d="M65.3229 35.3873C65.3127 35.2271 65.2236 35.1113 65.1239 35.1288C65.0242 35.1462 64.9516 35.2903 64.9619 35.4506C64.9721 35.6109 65.0612 35.7266 65.1609 35.7092C65.2606 35.6917 65.3331 35.5476 65.3229 35.3873Z" fill="white"/>
<path d="M65.4659 56.2812C64.0449 52.9397 63.9685 50.3073 65.8972 48.2566C65.133 49.6584 63.8502 51.5992 65.6259 55.6078C65.7685 55.9295 65.6218 56.6476 65.4659 56.2812Z" fill="#3C2A1E"/>
<path d="M65.4347 55.2427C65.6888 55.1877 65.9087 54.2661 65.9087 54.2661C65.9087 54.2661 65.6969 55.8627 65.5609 55.8554C65.4249 55.8481 65.4029 55.2496 65.4347 55.2427Z" fill="#3C2A1E"/>
<path d="M65.4412 32.6974C65.5596 32.6744 65.8298 33.8125 65.8298 33.8125C65.8298 33.8125 65.6907 32.062 65.5542 32.0584C65.4177 32.0549 65.4093 32.7035 65.4412 32.6974Z" fill="#3C2A1E"/>
<path opacity="0.238994" d="M54.3941 68.6474C53.5652 68.2814 50.9072 67.4493 50.7247 66.3722L51.7912 62.1483L48.4381 59.5934L51.0772 57.4488L48.5013 55.3135L48.0585 50.7725L40.5388 50.4461L44.4704 47.9565L41.533 46.3154L45.4284 44.5811L42.8435 41.7465L37.0139 39.6298L44.2715 38.9305L47.1908 36.6553L47.706 33.4571L50.0559 32.5899L47.8687 28.3193L52.6769 26.8554L48.3838 22.389L51.1043 22.6221C52.3734 21.7068 50.6325 19.6943 52.0262 19.0788C50.8328 18.5518 48.5977 16.486 46.052 15.2651C43.3093 13.9498 40.2366 13.4935 38.8035 13.4935C38.7308 13.4935 38.6591 13.4935 38.5866 13.4935C29.743 15.3041 22.2558 20.9928 17.8533 28.7669C15.5497 33.6393 14.2109 39.3685 14.2109 45.5042C14.2109 49.1628 14.6876 52.6744 15.5576 55.9475C19.7165 67.5419 30.2022 75.9816 42.6808 76.7969C44.5805 76.2975 46.7616 75.525 48.4381 74.4565C51.7202 72.3645 53.1396 69.2014 54.3941 68.6474Z" fill="#D6825B" fill-opacity="0.89412"/>
<path opacity="0.238994" d="M37.8763 68.6525C37.3883 68.2864 35.8146 67.4544 35.7071 66.3773L36.3398 62.1533L34.3695 59.5985L35.924 57.4538L34.4056 55.3186L34.1436 50.7776L29.7149 50.4512L32.0286 47.9616L30.3024 46.3205L32.589 44.5862L31.0706 41.7515L27.6452 39.6349L31.9111 38.9356L33.6284 36.6604L33.9357 33.4621L35.3185 32.595L34.026 28.3244L36.864 26.8604L34.3333 22.3941L35.9331 22.6272C36.6802 21.7119 35.6549 19.6994 36.4753 19.0839C35.7729 18.5569 34.4582 16.491 32.9596 15.2702C32.9529 15.2648 32.948 15.2568 32.9416 15.2517C24.2619 18.9079 17.5424 26.498 14.8836 35.8773C14.4493 38.919 14.2148 42.1521 14.2148 45.5095C14.2148 48.0037 14.3498 50.425 14.5944 52.7545C17.116 62.9962 24.4333 71.2692 33.9268 74.8906C34.0778 74.7505 34.2294 74.6136 34.3696 74.4617C36.3018 72.3697 37.1377 69.2065 37.8763 68.6525Z" fill="#D6825B" fill-opacity="0.89412"/>
<path opacity="0.216981" d="M74.6461 43.7505C74.6461 43.4186 73.5081 43.1495 72.1043 43.1495C70.7005 43.1495 69.5625 43.4186 69.5625 43.7505C69.5625 44.0825 70.7005 44.3516 72.1043 44.3516C73.5081 44.3516 74.6461 44.0825 74.6461 43.7505Z" fill="white"/>
<path d="M63.3945 20.5139C68.9425 26.1426 73.3042 32.689 74.2042 41.9141C66.3384 38.9823 65.7915 41.0844 63.3945 41.9141C76.2771 36.3917 63.4041 27.6485 63.3945 20.5139Z" fill="#EDC9B8" fill-opacity="0.89412"/>
<path d="M88.5084 46.2035C88.5084 21.5813 69.1876 1.64826 45.3216 1.64826C21.4555 1.64826 2.09766 21.5813 2.09766 46.2035C2.09766 70.8258 21.4555 90.7969 45.3216 90.7969C69.1876 90.7969 88.5084 70.8257 88.5084 46.2035ZM87.6928 46.2417C87.6928 62.4601 77.7454 76.8825 62.2256 86.3605H58.7781C46.2483 86.3605 36.1282 78.7757 36.1282 69.3415L36.1282 23.1036C36.1282 13.6694 46.2483 6.04636 58.7781 6.04636H62.2256C77.7454 15.5244 87.6928 30.0233 87.6928 46.2417Z" fill="url(#paint3_radial_394_985)" stroke="black" stroke-width="1.44609"/>
<path d="M56.7154 87.9601C36.564 85.2089 20.997 67.4 20.997 45.8604C20.997 24.795 35.8822 7.33978 55.3867 4.01238C53.6127 3.77178 51.8021 3.63938 49.964 3.63938C27.239 3.63938 8.80469 22.6206 8.80469 46.0655C8.80469 69.5105 27.239 88.5196 49.964 88.5195C52.2628 88.5195 54.5198 88.3341 56.7154 87.9601Z" fill="black"/>
<path d="M55.3482 87.9601C35.1968 85.2089 19.6298 67.4 19.6298 45.8604C19.6298 24.795 34.5151 7.33978 54.0196 4.01238C52.2456 3.77178 50.4348 3.63938 48.5967 3.63938C25.8717 3.63938 7.4375 22.6206 7.4375 46.0655C7.4375 69.5105 25.8718 88.5196 48.5967 88.5195C50.8955 88.5195 53.1526 88.3341 55.3482 87.9601Z" fill="white"/>
<path d="M86.7812 46.2809C86.7812 29.8202 77.7169 15.5554 64.4488 8.52034C63.9868 8.62464 63.5287 8.74894 63.0804 8.87544C77.0956 17.9049 86.0066 31.3409 86.0066 46.3164C86.0066 61.141 77.2738 74.3815 63.5022 83.4023C64.0003 83.5335 64.5112 83.6446 65.0254 83.7486C77.9765 76.5981 86.7812 62.5001 86.7812 46.2809ZM52.4091 88.1701C32.2578 85.4189 16.6946 67.6163 16.6946 46.0767C16.6946 25.0114 31.5793 7.55054 51.0838 4.22314C49.3098 3.98244 47.5002 3.85024 45.6621 3.85024C22.9371 3.85024 4.5 22.836 4.5 46.2809C4.50001 69.7259 22.9371 88.7383 45.6621 88.7383C47.9608 88.7383 50.2135 88.5441 52.4091 88.1701Z" fill="black"/>
<path d="M88.2265 46.2809C88.2265 29.8202 79.1622 15.5554 65.8941 8.52034C65.4321 8.62464 64.9741 8.74894 64.5258 8.87544C78.541 17.9049 87.4519 31.3409 87.4519 46.3164C87.4519 61.141 78.7191 74.3815 64.9475 83.4023C65.4456 83.5335 65.9565 83.6446 66.4707 83.7486C79.4218 76.5981 88.2265 62.5001 88.2265 46.2809ZM53.8545 88.1701C33.7031 85.4189 18.1399 67.6163 18.1399 46.0767C18.1399 25.0114 33.0246 7.55054 52.5291 4.22314C50.7551 3.98244 48.9455 3.85024 47.1074 3.85024C24.3825 3.85024 5.94531 22.836 5.94531 46.2809C5.94532 69.7259 24.3825 88.7383 47.1074 88.7383C49.4061 88.7383 51.6589 88.5441 53.8545 88.1701Z" fill="url(#paint4_linear_394_985)"/>
<path d="M36.0716 24.2712V36.0156L4.39844 32.9561L10.3297 20.3374L36.0716 24.2712Z" fill="url(#paint5_linear_394_985)" stroke="black" stroke-width="0.578435"/>
<path d="M36.0704 27.4708L35.8638 31.9688L5.63672 28.9092L7.64289 24.6026L36.0704 27.4708Z" fill="url(#paint6_linear_394_985)" stroke="#571600" stroke-width="0.578435"/>
<path d="M35.2435 67.2538V55.5093L3.57031 58.5689L9.50152 71.1875L35.2435 67.2538Z" fill="url(#paint7_linear_394_985)" stroke="black" stroke-width="0.578435"/>
<path d="M35.8634 63.9443L35.6568 59.4463L5.42969 62.5059L7.43585 66.8125L35.8634 63.9443Z" fill="url(#paint8_linear_394_985)" stroke="#471200" stroke-width="0.578435"/>
<path opacity="0.814465" d="M88.5084 46.9066C88.5084 22.2844 69.1876 2.35147 45.3216 2.35147C21.4555 2.35147 2.09766 22.2844 2.09766 46.9066C2.09766 71.5289 21.4555 91.5 45.3216 91.5C69.1876 91.5 88.5084 71.5289 88.5084 46.9066ZM87.6928 46.9448C87.6928 63.1633 77.7454 77.5857 62.2256 87.0636H58.7781C46.2483 87.0636 36.1282 79.4788 36.1282 70.0447L36.1282 23.8067C36.1282 14.3726 46.2483 6.74947 58.7781 6.74947H62.2256C77.7454 16.2275 87.6928 30.7264 87.6928 46.9448Z" fill="url(#paint9_radial_394_985)"/>
<path opacity="0.893082" d="M87.6686 46.5381C87.6686 30.3197 77.7444 15.8378 62.2246 6.35987H58.7496C46.2199 6.35987 36.1328 13.955 36.1328 23.3891L36.1328 69.6427C36.1328 79.0768 46.2199 86.6719 58.7496 86.6719H62.2246C77.7444 77.1939 87.6686 62.7565 87.6686 46.5381Z" fill="url(#paint10_radial_394_985)" stroke="black" stroke-width="3.55882"/>
<path opacity="0.893082" d="M90.0256 46.5386C90.0256 29.5476 79.6242 14.5047 63.7068 4.78392L63.2911 4.53223H62.803H59.3324C52.719 4.53223 46.7062 6.51512 42.2686 9.85642C37.8309 13.1977 34.9297 18.0033 34.9297 23.3954L34.9297 69.6445C34.9297 75.0366 37.8309 79.8423 42.2686 83.1836C46.7062 86.5249 52.719 88.5078 59.3324 88.5078H62.803H63.2911L63.7068 88.2561C79.6221 78.5365 90.0256 63.5297 90.0256 46.5386ZM86.4647 46.5386C86.4647 61.8486 77.1798 75.6075 62.2879 84.8433H59.3324C53.416 84.8433 48.1038 83.0332 44.3654 80.2184C40.627 77.4036 38.4907 73.6866 38.4907 69.6445L38.4907 23.3954C38.4907 19.3534 40.627 15.6363 44.3654 12.8216C48.1038 10.0068 53.416 8.19662 59.3324 8.19662H62.2879C77.1778 17.432 86.4647 31.2288 86.4647 46.5386Z" fill="url(#paint11_linear_394_985)" stroke="black" stroke-width="1.15687"/>
<path opacity="0.320755" d="M90.4983 46.3902C90.4983 29.3992 80.0969 14.3562 64.1795 4.63552L63.7637 4.38372H63.2757H59.8051C53.1917 4.38372 47.1789 6.36672 42.7412 9.70802C38.3036 13.0493 35.4023 17.8549 35.4023 23.247L35.4023 69.4961C35.4023 74.8882 38.3036 79.6938 42.7412 83.0351C47.1789 86.3764 53.1917 88.3594 59.8051 88.3594H63.2757H63.7637L64.1795 88.1076C80.0948 78.3881 90.4983 63.3813 90.4983 46.3902ZM86.9373 46.3902C86.9373 61.7002 77.6525 75.4591 62.7605 84.6949H59.8051C53.8887 84.6949 48.5764 82.8848 44.8381 80.07C41.0997 77.2552 38.9633 73.5381 38.9633 69.4961L38.9633 23.247C38.9633 19.2049 41.0997 15.4879 44.838 12.6731C48.5764 9.85833 53.8887 8.04823 59.8051 8.04823H62.7605C77.6505 17.2835 86.9373 31.0803 86.9373 46.3902Z" fill="url(#paint12_radial_394_985)" stroke="url(#paint13_linear_394_985)" stroke-width="1.15687"/>
</g>
<defs>
<linearGradient id="paint0_linear_394_985" x1="43.7134" y1="1.49911" x2="43.7134" y2="90.664" gradientUnits="userSpaceOnUse">
<stop stop-color="#929292"/>
<stop offset="0.5" stop-color="#4F4F4F"/>
<stop offset="1" stop-color="#929292"/>
</linearGradient>
<radialGradient id="paint1_radial_394_985" cx="0" cy="0" r="1" gradientUnits="userSpaceOnUse" gradientTransform="translate(46.0215 44.8755) rotate(90) scale(33.3089 33.6576)">
<stop stop-color="#EBC3B2"/>
<stop offset="1" stop-color="#E5B099"/>
</radialGradient>
<radialGradient id="paint2_radial_394_985" cx="0" cy="0" r="1" gradientUnits="userSpaceOnUse" gradientTransform="translate(38.9575 34.2485) rotate(88.445) scale(33.3084 31.3138)">
<stop stop-color="#B26624"/>
<stop offset="0.478055" stop-color="#934900"/>
<stop offset="0.739028" stop-color="#934900"/>
<stop offset="1" stop-color="#753A00"/>
</radialGradient>
<radialGradient id="paint3_radial_394_985" cx="0" cy="0" r="1" gradientUnits="userSpaceOnUse" gradientTransform="translate(27.5093 45.3485) rotate(90) scale(46.41 44.9848)">
<stop stop-color="#ABABAB"/>
<stop offset="1" stop-color="#7C7C7C"/>
</radialGradient>
<linearGradient id="paint4_linear_394_985" x1="47.6702" y1="2.94595" x2="47.0483" y2="88.738" gradientUnits="userSpaceOnUse">
<stop stop-color="#0A0A0A"/>
<stop offset="0.183223" stop-color="#DFDFDF"/>
<stop offset="0.316737" stop-color="#666969"/>
<stop offset="0.477244" stop-color="#BBBDBE"/>
<stop offset="0.60297" stop-color="#464849"/>
<stop offset="0.824564" stop-color="#5C6164"/>
<stop offset="1" stop-color="#2D3337"/>
</linearGradient>
<linearGradient id="paint5_linear_394_985" x1="20.235" y1="19.7255" x2="20.235" y2="36.6275" gradientUnits="userSpaceOnUse">
<stop stop-color="#1E1E1E"/>
<stop offset="1" stop-color="#646464"/>
</linearGradient>
<linearGradient id="paint6_linear_394_985" x1="6.5993" y1="27.4007" x2="36.5669" y2="29.8655" gradientUnits="userSpaceOnUse">
<stop stop-color="#ED3D00"/>
<stop offset="1" stop-color="#FF1616"/>
</linearGradient>
<linearGradient id="paint7_linear_394_985" x1="19.4069" y1="71.7994" x2="19.4069" y2="54.8974" gradientUnits="userSpaceOnUse">
<stop stop-color="#282828"/>
<stop offset="1" stop-color="#5D5D5D"/>
</linearGradient>
<linearGradient id="paint8_linear_394_985" x1="6.39226" y1="64.0144" x2="36.3599" y2="61.5495" gradientUnits="userSpaceOnUse">
<stop stop-color="#ED3D00"/>
<stop offset="1" stop-color="#FF1616"/>
</linearGradient>
<radialGradient id="paint9_radial_394_985" cx="0" cy="0" r="1" gradientUnits="userSpaceOnUse" gradientTransform="translate(30.4015 35.8215) rotate(90) scale(46.41 44.9848)">
<stop stop-color="white"/>
<stop offset="1" stop-color="#7C7C7C" stop-opacity="0"/>
</radialGradient>
<radialGradient id="paint10_radial_394_985" cx="0" cy="0" r="1" gradientUnits="userSpaceOnUse" gradientTransform="translate(61.9628 32.764) rotate(70.331) scale(38.1919 27.6475)">
<stop stop-color="white"/>
<stop offset="0.5" stop-color="#93C4E4" stop-opacity="0.679739"/>
<stop offset="1" stop-color="#2889C9" stop-opacity="0"/>
</radialGradient>
<linearGradient id="paint11_linear_394_985" x1="62.4776" y1="3.93542" x2="62.4777" y2="89.1046" gradientUnits="userSpaceOnUse">
<stop stop-color="#3E3E3E"/>
<stop offset="0.25" stop-color="#939393"/>
<stop offset="0.375" stop-color="#3E3E3E"/>
<stop offset="0.5" stop-color="white"/>
<stop offset="0.75" stop-color="#575757"/>
<stop offset="0.875" stop-color="#6C6C6C"/>
<stop offset="1" stop-color="#2D2D2D"/>
</linearGradient>
<radialGradient id="paint12_radial_394_985" cx="0" cy="0" r="1" gradientUnits="userSpaceOnUse" gradientTransform="translate(78.4345 22.5601) rotate(90) scale(42.5846 28.1264)">
<stop stop-color="white"/>
<stop offset="1" stop-color="white" stop-opacity="0.313726"/>
</radialGradient>
<linearGradient id="paint13_linear_394_985" x1="62.9503" y1="3.78702" x2="62.9503" y2="88.9561" gradientUnits="userSpaceOnUse">
<stop stop-color="white"/>
<stop offset="1" stop-color="white" stop-opacity="0.313726"/>
</linearGradient>
<clipPath id="clip0_394_985">
<rect width="92" height="91" fill="white" transform="matrix(0 -1 1 0 0.5 92.5)"/>
</clipPath>
</defs>
</svg>
