<svg width="91" height="92" viewBox="0 0 91 92" fill="none" xmlns="http://www.w3.org/2000/svg">
<path d="M4.38276e-05 45.5825C4.27513e-05 70.2047 19.3473 90.1649 43.2134 90.1649C67.0794 90.1649 86.4267 70.2047 86.4267 45.5825C86.4267 20.9602 67.0794 0.999984 43.2134 0.999983C19.3473 0.999982 4.49039e-05 20.9602 4.38276e-05 45.5825Z" fill="url(#paint0_linear_2250_10640)"/>
<circle cx="50" cy="46" r="36" transform="rotate(-90 50 46)" fill="#EAC0AE" stroke="#2E1E0F" stroke-width="3"/>
<path d="M84 53.7213C77.9033 63.9458 66.7414 70.8087 53.9779 70.8087C36.0013 70.8087 21.2068 57.2208 19.2845 39.7666C18.9248 36.5 18.9493 32.1388 18.5 31C16 36 15 42.9415 15 46.0828C15 65.3537 30.6555 81 49.9376 81.0001C66.5995 81.0001 80.522 69.3261 84 53.7213Z" fill="#D6825B" fill-opacity="0.89412"/>
<path d="M88.0096 45.7027C88.0096 21.0805 68.6888 1.14757 44.8228 1.14757C20.9567 1.14756 1.59884 21.0805 1.59884 45.7027C1.59884 70.325 20.9567 90.2961 44.8228 90.2961C68.6888 90.2961 88.0096 70.325 88.0096 45.7027ZM87.194 45.7409C87.194 61.9594 77.2466 76.3818 61.7268 85.8597L58.2792 85.8597C45.7495 85.8597 35.6293 78.2749 35.6293 68.8408L35.6293 22.6028C35.6293 13.1687 45.7495 5.54565 58.2792 5.54565L61.7268 5.54565C77.2466 15.0236 87.194 29.5225 87.194 45.7409Z" fill="url(#paint1_radial_2250_10640)" stroke="black" stroke-width="1.44609"/>
<path d="M56.2151 87.4605C36.0638 84.7093 20.4968 66.9004 20.4968 45.3607C20.4968 24.2954 35.382 6.84019 54.8865 3.51276C53.1125 3.27212 51.3018 3.13979 49.4637 3.13979C26.7387 3.13978 8.30444 22.1209 8.30444 45.5659C8.30444 69.0108 26.7387 88.0199 49.4637 88.0199C51.7625 88.0199 54.0196 87.8345 56.2151 87.4605Z" fill="black"/>
<path d="M54.8484 87.4605C34.697 84.7093 19.13 66.9004 19.13 45.3607C19.13 24.2954 34.0152 6.84019 53.5198 3.51276C51.7457 3.27212 49.9351 3.13979 48.097 3.13979C25.372 3.13978 6.93768 22.1209 6.93768 45.5659C6.93768 69.0108 25.372 88.0199 48.0969 88.0199C50.3957 88.0199 52.6528 87.8345 54.8484 87.4605Z" fill="white"/>
<path d="M86.2814 45.7796C86.2814 29.3189 77.2171 15.0541 63.9491 8.01897C63.4871 8.12332 63.029 8.24759 62.5807 8.37413C76.5959 17.4036 85.5069 30.8396 85.5069 45.8151C85.5069 60.6397 76.774 73.8802 63.0024 82.9009C63.5006 83.0321 64.0114 83.1432 64.5257 83.2472C77.4767 76.0967 86.2814 61.9988 86.2814 45.7796ZM51.9094 87.6687C31.7581 84.9176 16.1949 67.115 16.1949 45.5754C16.1949 24.51 31.0795 7.04917 50.5841 3.72175C48.8101 3.48107 47.0005 3.34886 45.1624 3.34886C22.4374 3.34886 4.00027 22.3346 4.00027 45.7796C4.00027 69.2246 22.4374 88.237 45.1624 88.2369C47.4611 88.2369 49.7138 88.0428 51.9094 87.6687Z" fill="black"/>
<path d="M87.7275 45.7796C87.7275 29.3189 78.6633 15.0541 65.3952 8.01897C64.9332 8.12332 64.4751 8.24759 64.0268 8.37413C78.042 17.4036 86.953 30.8396 86.953 45.8151C86.953 60.6397 78.2201 73.8802 64.4485 82.9009C64.9467 83.0321 65.4575 83.1432 65.9718 83.2472C78.9229 76.0967 87.7275 61.9988 87.7275 45.7796ZM53.3555 87.6687C33.2042 84.9176 17.641 67.115 17.641 45.5754C17.641 24.51 32.5257 7.04917 52.0302 3.72175C50.2562 3.48107 48.4466 3.34886 46.6085 3.34886C23.8835 3.34886 5.4464 22.3346 5.44639 45.7796C5.44639 69.2246 23.8835 88.237 46.6085 88.2369C48.9072 88.2369 51.1599 88.0428 53.3555 87.6687Z" fill="url(#paint2_linear_2250_10640)"/>
<path d="M35.5694 23.7723L35.5694 35.5167L3.89618 32.4571L9.82742 19.8385L35.5694 23.7723Z" fill="url(#paint3_linear_2250_10640)" stroke="black" stroke-width="0.578435"/>
<path d="M35.5694 26.9692L35.3628 31.4672L5.13566 28.4077L7.14184 24.1011L35.5694 26.9692Z" fill="url(#paint4_linear_2250_10640)" stroke="#571600" stroke-width="0.578435"/>
<path d="M34.7431 66.7492L34.7431 55.0048L3.06989 58.0644L9.00109 70.683L34.7431 66.7492Z" fill="url(#paint5_linear_2250_10640)" stroke="black" stroke-width="0.578435"/>
<path d="M35.3628 63.4457L35.1562 58.9477L4.92908 62.0073L6.93524 66.3139L35.3628 63.4457Z" fill="url(#paint6_linear_2250_10640)" stroke="#471200" stroke-width="0.578435"/>
<path opacity="0.814465" d="M88.0096 46.4066C88.0096 21.7844 68.6888 1.85141 44.8228 1.85141C20.9567 1.85141 1.59883 21.7843 1.59883 46.4066C1.59883 71.0288 20.9567 91 44.8228 91C68.6888 91 88.0096 71.0288 88.0096 46.4066ZM87.194 46.4448C87.194 62.6632 77.2466 77.0856 61.7268 86.5636L58.2792 86.5636C45.7495 86.5636 35.6293 78.9788 35.6293 69.5446L35.6293 23.3067C35.6293 13.8725 45.7495 6.24949 58.2792 6.24949L61.7268 6.24949C77.2466 15.7275 87.194 30.2264 87.194 46.4448Z" fill="url(#paint7_radial_2250_10640)"/>
<path opacity="0.893082" d="M89.5293 46.0395C89.5293 29.0486 79.1279 14.0056 63.2105 4.28482L62.7947 4.03306L62.3067 4.03306L58.8361 4.03306C52.2227 4.03306 46.2099 6.016 41.7722 9.3573C37.3346 12.6986 34.4333 17.5043 34.4333 22.8963L34.4333 69.1454C34.4333 74.5375 37.3346 79.3432 41.7722 82.6845C46.2099 86.0258 52.2227 88.0087 58.8361 88.0087L62.3067 88.0087L62.7947 88.0087L63.2105 87.7569C79.1258 78.0375 89.5293 63.0306 89.5293 46.0395ZM85.9683 46.0395C85.9683 61.3495 76.6835 75.1084 61.7915 84.3442L58.8361 84.3442C52.9197 84.3442 47.6074 82.5341 43.869 79.7193C40.1307 76.9045 37.9943 73.1875 37.9943 69.1454L37.9943 22.8963C37.9943 18.8543 40.1307 15.1373 43.869 12.3225C47.6074 9.50767 52.9197 7.69756 58.8361 7.69756L61.7915 7.69756C76.6815 16.9329 85.9683 30.7297 85.9683 46.0395Z" fill="url(#paint8_linear_2250_10640)" stroke="black" stroke-width="1.15687"/>
<path opacity="0.320755" d="M90.0001 45.8923C90.0001 28.9014 79.5986 13.8584 63.6812 4.13764L63.2655 3.88588L62.7774 3.88588L59.3068 3.88588C52.6935 3.88588 46.6806 5.86881 42.243 9.21012C37.8053 12.5514 34.9041 17.3571 34.9041 22.7492L34.9041 68.9982C34.9041 74.3903 37.8053 79.196 42.243 82.5373C46.6806 85.8786 52.6935 87.8615 59.3068 87.8615L62.7774 87.8615L63.2655 87.8615L63.6812 87.6098C79.5965 77.8903 90.0001 62.8834 90.0001 45.8923ZM86.4391 45.8923C86.4391 61.2023 77.1542 74.9612 62.2623 84.197L59.3068 84.197C53.3904 84.197 48.0782 82.3869 44.3398 79.5721C40.6014 76.7573 38.4651 73.0403 38.4651 68.9982L38.4651 22.7492C38.4651 18.7071 40.6014 14.9901 44.3398 12.1753C48.0782 9.36049 53.3904 7.55037 59.3068 7.55037L62.2623 7.55037C77.1522 16.7857 86.4391 30.5825 86.4391 45.8923Z" fill="url(#paint9_radial_2250_10640)" stroke="url(#paint10_linear_2250_10640)" stroke-width="1.15687"/>
<path d="M71.1522 42.6521C70.8222 40.4746 70.4651 38.3424 69.7105 36.3017C69.1624 34.8195 68.3174 33.5752 66.9993 32.6937C66.8939 32.6232 66.7931 32.5453 66.6931 32.467C66.4865 32.3052 66.3394 32.1089 66.519 31.8505C66.6997 31.5906 66.9502 31.6076 67.1874 31.7696C67.9355 32.2802 68.6328 32.849 69.1945 33.5765C70.3433 35.0645 70.8688 36.8196 71.2804 38.6185C71.9194 41.4109 72.2663 44.25 72.5597 47.0974C72.8827 50.2311 73.1184 53.3688 73.0524 56.5229C73.0307 57.5638 72.9053 58.5953 72.7528 59.6236C72.7341 59.7494 72.6931 59.8732 72.7598 60.0253C73.0469 60.055 73.2725 59.8672 73.5225 59.7658C73.7039 59.6922 73.8662 59.5679 74.0691 59.5518C74.2714 59.5357 74.4277 59.617 74.5202 59.7998C74.5981 59.9537 74.5676 60.0984 74.4647 60.2382C73.8759 61.0378 72.0751 61.5111 71.1748 61.111C70.8812 60.9805 70.6965 60.7904 70.7764 60.4562C70.8623 60.0967 71.1459 60.0505 71.444 60.1272C71.72 60.1981 71.7964 60.1126 71.8475 59.8304C72.3133 57.2561 72.2148 54.6661 72.0951 52.0736C72.0235 50.5223 71.8931 48.9759 71.7369 47.4318C71.5766 45.847 71.4167 44.2617 71.1522 42.6521Z" fill="black"/>
<path d="M73.2518 28.878C74.0003 28.9555 74.7114 29.0245 75.4222 29.0968C75.6314 29.1182 75.8413 29.1401 76.048 29.178C76.2832 29.2212 76.4331 29.3632 76.412 29.6199C76.3909 29.8762 76.2159 30.004 75.9816 29.9973C75.5482 29.9849 75.1158 29.9376 74.6824 29.9134C70.068 29.6549 65.932 28.0762 62.2376 25.2699C61.7322 24.886 61.2043 24.5328 60.6907 24.1598C60.4491 23.9843 60.2283 23.7679 60.4556 23.4536C60.6798 23.1437 60.9487 23.2827 61.192 23.4612C62.5915 24.4881 64.009 25.4864 65.5042 26.3676C67.8949 27.7766 70.4692 28.5932 73.2518 28.878Z" fill="black"/>
<path d="M52.3929 36.605L57.6167 39.7046L57.9599 25.9502L55.8246 21.6883L52.3929 25.9502L52.3929 36.605Z" fill="white"/>
<path d="M43.9141 31.4889C43.7157 29.796 43.5072 28.1589 43.4449 26.4988C43.3396 23.6964 44.4142 21.4573 46.3659 19.5718C47.3618 18.6096 48.4444 17.7539 49.5147 16.8828C49.7323 16.7057 49.9666 16.5026 50.2513 16.759C50.5326 17.0123 50.3639 17.2605 50.228 17.5164C49.4008 19.0738 48.622 20.6551 47.8599 22.2475C46.4693 25.153 46.2444 28.1447 46.902 31.2692C47.5742 34.4633 47.7774 37.7131 47.881 40.9702C47.9128 41.9672 47.9659 42.9635 47.9901 43.9606C48.0064 44.6308 47.6201 45.1389 46.9873 45.3364C46.4191 45.5138 45.7985 45.267 45.4529 44.7226C45.2799 44.45 45.1685 44.1575 45.1413 43.8278C44.8325 40.0802 44.5026 36.3347 44.0388 32.6027C43.9948 32.2487 43.9572 31.8938 43.9141 31.4889Z" fill="black"/>
<path d="M57.4981 39.6024C57.4749 38.0821 57.698 36.6195 57.5746 35.0504C56.0412 36.0797 54.5342 36.1203 52.9911 34.9723C52.9911 35.4895 52.9839 35.9149 52.9937 36.34C53.0001 36.6164 53.232 36.7001 53.4274 36.8035C54.4155 37.3265 55.3581 37.9248 56.2661 38.5791C56.4365 38.7019 56.6626 38.8082 56.614 39.2038C55.3832 39.0067 54.4065 38.2174 53.1614 37.7472C53.4126 38.4951 53.6167 39.1107 53.8266 39.7243C53.9269 40.0175 54.0567 40.346 53.6813 40.5032C53.2639 40.6779 53.1469 40.3253 53.0276 40.0162C52.3795 38.3366 51.9832 36.6322 52.0443 34.7908C52.1292 32.2305 52.0548 29.6645 52.0321 27.1011C52.0235 26.1321 52.3105 25.3029 52.9505 24.5741C54.037 23.3368 55.0946 22.0734 56.1645 20.821C56.2131 20.7641 56.2606 20.706 56.3122 20.6519C56.4991 20.4558 56.7038 20.2437 56.9727 20.4895C57.2389 20.7327 57.13 20.998 56.9323 21.236C56.5614 21.6821 56.1924 22.13 55.8156 22.571C55.1105 23.3964 54.43 24.2463 53.6843 25.0321C52.9242 25.833 52.8204 26.7722 52.921 27.8949C54.5506 26.6857 56.1424 26.6598 57.7576 27.9413C57.917 26.6253 57.5633 25.5039 56.9663 24.4408C56.7274 24.0154 56.466 23.6031 56.2163 23.184C56.0664 22.9325 56.0167 22.679 56.2955 22.4902C56.5936 22.2883 56.7747 22.4908 56.9328 22.7226C58.0096 24.3013 58.7421 25.9727 58.6916 27.9694C58.5928 31.8677 58.495 35.7658 58.3436 39.6625C58.3307 39.9922 58.4021 40.431 57.9152 40.4272C57.4286 40.4234 57.5111 39.9873 57.4981 39.6024ZM54.1721 28.0287C53.8336 28.4225 53.8059 28.9231 54.1055 29.1465C54.2943 29.2873 54.408 29.1808 54.5109 29.032C54.7363 28.7058 54.6196 28.2525 54.1721 28.0287Z" fill="black"/>
<path d="M49.925 39.2812C49.9249 35.5344 49.9238 31.8437 49.9274 28.153C49.9276 27.9298 49.9384 27.6991 49.9945 27.4855C50.0445 27.2953 50.2007 27.1647 50.4147 27.1876C50.6263 27.2102 50.7428 27.356 50.7659 27.5637C50.7847 27.7313 50.7827 27.9019 50.7827 28.0711C50.7835 32.1008 50.7834 36.1304 50.783 40.16C50.783 40.2917 50.7822 40.4236 50.7758 40.5552C50.7634 40.8105 50.6612 40.9961 50.3831 41.0064C50.1002 41.0169 49.9761 40.8119 49.9563 40.5782C49.9214 40.1668 49.933 39.7513 49.925 39.2812Z" fill="black"/>
<path d="M52.308 41.846C53.3438 42.2471 54.2935 42.7996 55.4096 42.7433C55.7397 42.7267 56.0678 42.6685 56.397 42.6303C56.564 42.6108 56.7488 42.5798 56.8377 42.7679C56.9375 42.9791 56.7954 43.13 56.6501 43.2483C55.907 43.8534 55.0375 44.0864 54.1128 43.9838C53.4517 43.9104 52.8396 43.6095 52.253 43.2834C51.984 43.1338 51.7949 42.9047 51.6614 42.6312C51.5561 42.4153 51.4143 42.1833 51.609 41.9516C51.7871 41.7397 52.0212 41.7255 52.308 41.846Z" fill="black"/>
<path d="M46.6998 17.8748C46.004 18.6439 45.3361 19.3847 44.6409 20.1557C44.3978 19.8324 44.5696 19.6197 44.6912 19.4365C44.9392 19.0628 45.2063 18.7 45.4904 18.3538C46.2722 17.4009 47.0856 16.4766 47.7133 15.4C47.8805 15.1132 48.1203 14.6212 48.5626 14.9378C49.0311 15.2731 48.5959 15.612 48.3908 15.8799C47.8687 16.5622 47.3555 17.2554 46.6998 17.8748Z" fill="black"/>
<path d="M52.3929 58.1836L57.6167 55.0841L57.9599 68.8385L55.8246 73.1004L52.3929 68.8385L52.3929 58.1836Z" fill="white"/>
<path d="M44.1303 59.9267C44.3374 57.7209 44.5437 55.5669 44.7453 53.4126C44.8102 52.7195 44.8721 52.0259 44.9173 51.3314C44.9435 50.9282 45.0209 50.5488 45.2447 50.2087C45.6111 49.6519 46.2143 49.4089 46.7826 49.5905C47.4067 49.79 47.787 50.3084 47.7769 50.9773C47.7062 55.6523 47.4096 60.3061 46.5097 64.9037C45.978 67.6196 46.5185 70.1708 47.6366 72.6472C48.372 74.276 49.2011 75.8538 50.0271 77.4343C50.1647 77.6976 50.3089 77.9464 50.0185 78.1868C49.7491 78.4098 49.5396 78.2284 49.3308 78.0582C47.7258 76.7506 46.0786 75.4948 44.8133 73.8081C43.7713 72.419 43.3007 70.8487 43.2448 69.1296C43.1697 66.8198 43.6095 64.556 43.8551 62.275C43.9376 61.5085 44.0364 60.7439 44.1303 59.9267Z" fill="black"/>
<path d="M50.4776 54.0487C50.6397 54.3243 50.622 54.5921 50.6222 54.8539C50.6249 58.845 50.625 62.836 50.6249 66.827C50.6249 66.9398 50.6217 67.0532 50.6098 67.1652C50.5806 67.4414 50.5138 67.7161 50.1792 67.723C49.8004 67.7308 49.7643 67.4159 49.7263 67.1313C49.7115 67.0201 49.7183 66.9057 49.7183 66.7928C49.7177 62.8206 49.7173 58.8484 49.7182 54.8762C49.7182 54.7071 49.7092 54.5335 49.7419 54.3697C49.8245 53.9552 50.0336 53.7639 50.4776 54.0487Z" fill="black"/>
<path d="M55.079 52.1933C54.4015 52.1586 53.8309 52.3808 53.261 52.6013C52.9332 52.7281 52.6099 52.8671 52.2838 52.9983C51.9716 53.1239 51.6095 53.3035 51.3867 52.931C51.1884 52.5995 51.4023 52.2343 51.6443 52.0239C52.6582 51.1423 53.8081 50.7016 55.1656 51.0462C55.6585 51.1713 56.114 51.3551 56.4867 51.7152C56.613 51.8373 56.7129 51.979 56.617 52.1618C56.535 52.3181 56.3812 52.3226 56.2278 52.3067C55.8616 52.2687 55.4954 52.2311 55.079 52.1933Z" fill="black"/>
<path d="M46.2737 76.8224C47.0583 77.5758 47.6833 78.4161 48.3303 79.2376C48.5181 79.4761 48.6681 79.7269 48.3941 79.9775C48.0978 80.2485 47.8454 80.0231 47.7034 79.7869C46.783 78.2562 45.5296 76.9863 44.5114 75.5341C44.3821 75.3497 44.1931 75.1411 44.4298 74.802C45.1162 75.4038 45.6208 76.1593 46.2737 76.8224Z" fill="black"/>
<path d="M53.5417 55.4429C53.3565 56.0139 53.1862 56.5433 52.9829 57.1753C54.2079 56.7099 55.1815 55.9056 56.4096 55.7211C56.4713 56.1147 56.2477 56.2241 56.0742 56.3482C55.3005 56.9015 54.5009 57.4141 53.671 57.8766C52.6735 58.4324 52.5921 58.6174 52.8551 59.8675C54.3339 58.8868 55.8287 58.7956 57.3402 59.891C57.3402 58.8388 57.3463 57.8868 57.3381 56.9349C57.3327 56.3134 57.2984 55.6922 57.2933 55.0707C57.291 54.7973 57.347 54.5024 57.6803 54.4827C58.0483 54.4609 58.1212 54.743 58.1326 55.0568C58.1905 56.6566 58.2719 58.2558 58.3107 59.856C58.374 62.4744 58.496 65.0915 58.4576 67.7123C58.4317 69.4849 57.5788 70.9117 56.6566 72.3138C56.5238 72.5157 56.3136 72.6197 56.0798 72.4533C55.8586 72.2958 55.8469 72.064 55.965 71.8489C56.2359 71.3557 56.5311 70.8763 56.8131 70.3893C57.3421 69.4755 57.6082 68.4887 57.6011 67.4275C57.6006 67.3524 57.5959 67.2764 57.583 67.2026C57.5773 67.1701 57.5462 67.1422 57.4922 67.0598C55.9304 68.2183 54.3339 68.2776 52.7031 67.0144C52.6157 68.1175 52.7077 69.0404 53.423 69.8399C54.5079 71.0526 55.5499 72.3048 56.6085 73.5417C56.6935 73.6409 56.7668 73.7506 56.8434 73.857C56.9856 74.0543 56.9765 74.2506 56.802 74.4145C56.603 74.6014 56.3893 74.5675 56.2085 74.3836C56.0518 74.2241 55.9165 74.0429 55.7707 73.8722C54.7372 72.6629 53.716 71.4425 52.6648 70.2493C52.1156 69.626 51.834 68.9101 51.8259 68.0931C51.7923 64.7004 51.7908 61.3063 51.9473 57.9175C52.0005 56.7666 52.563 55.717 52.9555 54.6421C53.0357 54.4227 53.2367 54.3305 53.4595 54.4181C53.6729 54.502 53.7696 54.6865 53.7155 54.9196C53.6773 55.0837 53.6105 55.241 53.5417 55.4429ZM54.4171 62.0245C54.5255 61.7719 54.5355 61.504 54.4504 61.2537C54.3571 60.9796 54.1963 60.7305 53.8486 60.7893C53.5204 60.8448 53.4092 61.1236 53.3584 61.4021C53.2902 61.775 53.3756 62.1253 53.7211 62.3324C54.0076 62.504 54.2077 62.3235 54.4171 62.0245Z" fill="black"/>
<defs>
<linearGradient id="paint0_linear_2250_10640" x1="43.2134" y1="0.999965" x2="43.2134" y2="90.1649" gradientUnits="userSpaceOnUse">
<stop stop-color="#929292"/>
<stop offset="0.5" stop-color="#4F4F4F"/>
<stop offset="1" stop-color="#929292"/>
</linearGradient>
<radialGradient id="paint1_radial_2250_10640" cx="0" cy="0" r="1" gradientUnits="userSpaceOnUse" gradientTransform="translate(27.0105 44.8477) rotate(90) scale(46.41 44.9848)">
<stop stop-color="#ABABAB"/>
<stop offset="1" stop-color="#7C7C7C"/>
</radialGradient>
<linearGradient id="paint2_linear_2250_10640" x1="47.1713" y1="2.44462" x2="46.5494" y2="88.2367" gradientUnits="userSpaceOnUse">
<stop stop-color="#0A0A0A"/>
<stop offset="0.183223" stop-color="#DFDFDF"/>
<stop offset="0.316737" stop-color="#666969"/>
<stop offset="0.477244" stop-color="#BBBDBE"/>
<stop offset="0.60297" stop-color="#464849"/>
<stop offset="0.824564" stop-color="#5C6164"/>
<stop offset="1" stop-color="#2D3337"/>
</linearGradient>
<linearGradient id="paint3_linear_2250_10640" x1="19.7328" y1="19.2266" x2="19.7328" y2="36.1286" gradientUnits="userSpaceOnUse">
<stop stop-color="#1E1E1E"/>
<stop offset="1" stop-color="#646464"/>
</linearGradient>
<linearGradient id="paint4_linear_2250_10640" x1="6.09824" y1="26.8992" x2="36.0659" y2="29.364" gradientUnits="userSpaceOnUse">
<stop stop-color="#ED3D00"/>
<stop offset="1" stop-color="#FF1616"/>
</linearGradient>
<linearGradient id="paint5_linear_2250_10640" x1="18.9065" y1="71.2949" x2="18.9065" y2="54.3929" gradientUnits="userSpaceOnUse">
<stop stop-color="#282828"/>
<stop offset="1" stop-color="#5D5D5D"/>
</linearGradient>
<linearGradient id="paint6_linear_2250_10640" x1="5.89165" y1="63.5158" x2="35.8593" y2="61.0509" gradientUnits="userSpaceOnUse">
<stop stop-color="#ED3D00"/>
<stop offset="1" stop-color="#FF1616"/>
</linearGradient>
<radialGradient id="paint7_radial_2250_10640" cx="0" cy="0" r="1" gradientUnits="userSpaceOnUse" gradientTransform="translate(29.9026 35.3214) rotate(90) scale(46.41 44.9848)">
<stop stop-color="white"/>
<stop offset="1" stop-color="#7C7C7C" stop-opacity="0"/>
</radialGradient>
<linearGradient id="paint8_linear_2250_10640" x1="61.9813" y1="3.43631" x2="61.9813" y2="88.6055" gradientUnits="userSpaceOnUse">
<stop stop-color="#3E3E3E"/>
<stop offset="0.25" stop-color="#939393"/>
<stop offset="0.375" stop-color="#3E3E3E"/>
<stop offset="0.5" stop-color="white"/>
<stop offset="0.75" stop-color="#575757"/>
<stop offset="0.875" stop-color="#6C6C6C"/>
<stop offset="1" stop-color="#2D2D2D"/>
</linearGradient>
<radialGradient id="paint9_radial_2250_10640" cx="0" cy="0" r="1" gradientUnits="userSpaceOnUse" gradientTransform="translate(77.9362 22.0623) rotate(90) scale(42.5846 28.1264)">
<stop stop-color="white"/>
<stop offset="1" stop-color="white" stop-opacity="0.313726"/>
</radialGradient>
<linearGradient id="paint10_linear_2250_10640" x1="62.4521" y1="3.28912" x2="62.4521" y2="88.4583" gradientUnits="userSpaceOnUse">
<stop stop-color="white"/>
<stop offset="1" stop-color="white" stop-opacity="0.313726"/>
</linearGradient>
</defs>
</svg>
