<svg width="90" height="90" viewBox="0 0 90 90" fill="none" xmlns="http://www.w3.org/2000/svg">
<g clip-path="url(#clip0_394_1024)">
<path opacity="0.997" d="M90.3438 45.3281C90.3438 20.4753 70.1966 0.328125 45.3438 0.328125C20.4909 0.328125 0.34375 20.4753 0.34375 45.3281C0.34375 70.1809 20.4909 90.3281 45.3438 90.3281C70.1966 90.3281 90.3438 70.1809 90.3438 45.3281Z" fill="#0CA561"/>
<path d="M45 0C20.1472 0 0 20.1472 0 45C0 69.8528 20.1472 90 45 90C69.8528 90 90 69.8528 90 45C90 20.1472 69.8528 0 45 0Z" fill="url(#paint0_linear_394_1024)"/>
</g>
<defs>
<linearGradient id="paint0_linear_394_1024" x1="13.1802" y1="13.1802" x2="76.8198" y2="76.8198" gradientUnits="userSpaceOnUse">
<stop stop-color="#201045"/>
<stop offset="0.888554" stop-color="#2269C6" stop-opacity="0"/>
</linearGradient>
<clipPath id="clip0_394_1024">
<rect width="90" height="90" fill="white" transform="matrix(0 -1 1 0 0 90)"/>
</clipPath>
</defs>
</svg>
