<svg width="90" height="90" viewBox="0 0 90 90" fill="none" xmlns="http://www.w3.org/2000/svg">
<g clip-path="url(#clip0_394_1082)">
<mask id="mask0_394_1082" style="mask-type:luminance" maskUnits="userSpaceOnUse" x="0" y="0" width="90" height="90">
<path d="M0 0L0 90H90V0H0Z" fill="white"/>
</mask>
<g mask="url(#mask0_394_1082)">
<path d="M90 45C90 20.1472 69.8528 0 45 0C20.1472 0 0 20.1472 0 45C0 69.8528 20.1472 90 45 90C69.8528 90 90 69.8528 90 45Z" fill="#012169"/>
<path d="M0.39 50.64L17.253 67.5L10.68 74.07C12.2839 75.9594 14.0397 77.7142 15.93 79.317L22.5 72.747L39.36 89.61C41.2301 89.857 43.1137 89.9873 45 90V84.753L27.747 67.5L45 50.247V45H39.753L22.5 62.253L5.247 45H0C0.01275 46.8863 0.143002 48.7699 0.39 50.64Z" fill="white"/>
<path d="M3.76953 62.9988C5.17797 66.1942 6.95395 69.2145 9.06153 71.9988H15.0015L15.0015 78.4728C19.3707 82.3952 24.467 85.4223 30.0015 87.3828V71.9988H45.0015V62.9988H30.0015L30.0015 44.9988H15.0015V62.9988H3.76953Z" fill="white"/>
<path d="M0 45C0 46.245 0.087 47.466 0.186 48.687L20.751 69.249L13.179 76.821C13.779 77.403 14.397 77.934 15.012 78.486L24.249 69.249L45 90V86.502L24.249 65.751L45 45H41.499L20.751 65.751L0 45Z" fill="#C8102E"/>
<path d="M4.63672 64.7985C5.53556 66.668 6.56407 68.4724 7.71472 70.1985H17.9987V80.9385C20.783 83.046 23.8034 84.822 26.9987 86.2305V70.1985H44.9987V64.7985H26.9987L26.9987 44.9985H17.9987V64.7985H4.63672Z" fill="#C8102E"/>
<path d="M65.55 66.1469L68.43 63.4109L64.497 63.9569L64.152 59.9999L62.124 63.4169L58.818 61.2179L60.222 64.9319L56.442 66.1469L60.222 67.3649L58.818 71.0789L62.124 68.8799L64.152 72.2969L64.497 68.3399L68.43 68.8829L65.55 66.1469ZM44.973 36.4679L46.803 34.7309L44.304 35.0759L44.085 32.5619L42.798 34.7309L40.695 33.3359L41.589 35.6939L39.189 36.4679L41.589 37.2389L40.695 39.5999L42.798 38.2019L44.085 40.3709L44.304 37.8599L46.803 38.2049L44.973 36.4679ZM29.787 22.4489L31.614 20.7089L29.115 21.0569L28.896 18.5429L27.609 20.7119L25.509 19.3169L26.403 21.6749L24 22.4489L26.403 23.2199L25.509 25.5779L27.609 24.1829L28.896 26.3519L29.115 23.8379L31.614 24.1859L29.787 22.4489ZM41.235 9.98688L43.065 8.24688L40.566 8.59488L40.347 6.08088L39.06 8.24988L36.957 6.85487L37.851 9.21288L35.448 9.98688L37.851 10.7579L36.957 13.1159L39.06 11.7209L40.347 13.8899L40.566 11.3759L43.065 11.7239L41.235 9.98688ZM67.17 22.4489L69 20.7089L66.501 21.0569L66.282 18.5429L64.995 20.7119L62.895 19.3169L63.786 21.6749L61.386 22.4489L63.786 23.2199L62.895 25.5779L64.995 24.1829L66.282 26.3519L66.501 23.8379L69 24.1859L67.17 22.4489ZM50.073 16.8389L50.925 15.4679L49.356 15.8519L48.312 14.6189L48.195 16.2299L46.698 16.8389L48.195 17.4509L48.312 19.0619L49.356 17.8259L50.925 18.2129L50.073 16.8389Z" fill="white"/>
</g>
</g>
<defs>
<clipPath id="clip0_394_1082">
<rect width="90" height="90" fill="white" transform="matrix(0 -1 1 0 0 90)"/>
</clipPath>
</defs>
</svg>
