<svg width="90" height="90" viewBox="0 0 90 90" fill="none" xmlns="http://www.w3.org/2000/svg">
<g clip-path="url(#clip0_2250_11318)">
<circle cx="45" cy="45" r="45" transform="rotate(-90 45 45)" fill="#0052B4"/>
<path d="M13.4866 19.2281L9.37272 19.1009C5.56138 26.7179 3.27966 35.1775 3.27966 44.4712C3.27966 53.7649 5.56138 63.2819 9.37272 70.899L13.4866 70.7717L30.3973 44.9999L13.4866 19.2281ZM11.482 44.9999C11.482 39.6986 13.1812 35.251 13.1812 35.251L19.7323 44.9999L13.1812 54.7488C13.1812 54.7488 11.482 50.3013 11.482 44.9999ZM66.393 39.1387L46.5446 39.1387L29.4812 37.8155L34.2058 44.9999L29.4812 52.0091L46.5446 50.5106L66.393 50.5106V39.1387ZM27.6547 55.2069L14.8579 74.4021L9.87883 74.5294V85.8277L34.0531 84.151L43.8529 70.4381V53.6801L27.6547 55.2069ZM28.7207 76.992L37.2538 58.8627L40.0501 58.5602L31.9213 76.534L28.7207 76.992ZM20.0377 77.7554L28.7207 59.7788L31.7432 59.3236L23.3882 77.4501L20.0377 77.7554ZM73.6651 78.058L80.5187 64.6702H53.9072L48.9875 72.5756H45.9395L40.6071 80.3453L73.6651 78.058ZM69.2628 53.3295L49.437 53.3295L53.8535 62.0124H82.6534L85.0878 58.0993L72.0874 52.7668V37.2274L85.0878 31.8949L82.6534 27.8065L53.8563 27.8065L49.4399 36.4895L69.2656 36.4895L69.2628 53.3295ZM75.1382 50.1797L86.2555 54.1409V35.8589L75.1382 39.8173V50.1797ZM43.8501 36.317L43.8501 19.559L34.0503 5.84604L9.876 4.16939L9.876 15.4677L14.8579 15.5978L27.6547 34.7958L43.8501 36.317ZM31.9213 13.4659L40.4035 31.6207L37.2538 31.1372L28.7207 13.0079L31.9213 13.4659ZM23.3882 12.5498L31.9213 30.6791L28.7207 30.2211L20.0377 12.2445L23.3882 12.5498ZM40.6042 9.65738L45.9367 17.4243H48.9847L53.9043 25.2138L80.5159 25.2138L73.6623 11.9419L40.6042 9.65738Z" fill="white"/>
</g>
<defs>
<clipPath id="clip0_2250_11318">
<rect width="90" height="90" fill="white" transform="matrix(0 -1 1 0 0 90)"/>
</clipPath>
</defs>
</svg>
