<svg width="94" height="91" viewBox="0 0 94 91" fill="none" xmlns="http://www.w3.org/2000/svg">
<g clip-path="url(#clip0_394_1040)">
<path d="M59.7098 70.6341L74.8123 71.6562C74.8123 71.6562 92.5392 65.0785 92.5392 46.2342C92.5392 27.3899 78.6746 16.9011 78.6746 16.9011L35.7439 18.1011C35.7439 18.1011 22.4735 30.9011 22.0278 44.2788C21.6317 57.6565 35.5458 69.7896 35.5458 69.7896L59.7098 70.6341Z" fill="#F9CFAE"/>
<path d="M58.8693 52.8955C58.4168 44.6103 59.5028 36.2439 61.7653 28.243C62.3535 26.1717 63.0322 24.0598 63.8015 22.0291L38.6431 22.7197C38.6431 22.7197 26.5164 34.4164 26.1091 46.6411C25.7472 58.8659 38.4621 69.9534 38.4621 69.9534L60.4983 70.6845L64.6612 70.9688C60.1363 66.1762 59.2313 58.947 58.8693 52.8955Z" fill="#CDA792"/>
<path d="M86.9237 54.4739L82.9418 56.1797C82.9418 56.1797 81.3581 50.3719 80.4531 46.4324C79.5481 42.4929 77.8287 33.9234 82.8513 34.0452C87.8739 34.167 87.2404 36.9694 87.2404 36.9694C87.2404 36.9694 84.7517 43.4676 85.883 47.529C87.0142 51.5903 86.064 54.1896 86.9237 54.4739Z" fill="white" stroke="#474449" stroke-width="0.406137" stroke-miterlimit="10"/>
<path d="M83.307 50.0892C83.0355 49.5612 82.8545 49.0332 82.7188 48.5052C82.6735 48.5459 82.6283 48.6271 82.5378 48.6677C82.1758 49.0332 81.6328 49.1957 81.0898 49.2363C81.9496 52.6478 82.8998 56.1406 82.8998 56.1406L86.8817 54.4348C86.2935 54.2318 86.565 52.8915 86.384 50.739C85.3885 51.3076 83.8048 51.1451 83.307 50.0892Z" fill="#F5EDF5"/>
<path d="M69.5489 65.7626C69.5489 65.7626 60.1372 68.6867 59.5037 61.4169C58.8702 54.147 69.5489 53.1723 69.5489 53.1723C69.5489 53.1723 72.2639 56.2183 72.2639 60.1579C72.2639 64.0974 69.5489 65.7626 69.5489 65.7626Z" fill="white"/>
<path d="M70.4081 36.6039C70.4081 36.6039 68.8244 37.538 67.6932 37.7004C66.5619 37.8629 58.7791 37.7004 58.9601 31.121C59.0959 24.5416 64.7067 24.2167 64.7067 24.2167L70.4534 26.4504C70.4534 26.4504 72.3538 28.5624 71.9466 31.7302C71.5393 34.8981 70.4081 36.6039 70.4081 36.6039Z" fill="white"/>
<path d="M65.4782 63.6939C64.2564 60.4448 66.0211 55.9366 68.3741 53.1343C65.7044 53.6217 58.8718 55.4087 59.3696 61.257C59.7768 66.1713 64.2564 66.415 67.0619 66.0495C66.3831 65.359 65.8402 64.5468 65.4782 63.6939Z" fill="#F5EDF5"/>
<path d="M68.282 37.2972C67.2413 36.5662 66.3816 35.5915 65.7481 34.5355C64.3906 32.2205 64.1644 29.5806 64.6169 27.022C64.7526 26.1285 65.0241 25.235 65.3408 24.3415L64.4359 24.0166C64.4359 24.0166 58.8703 24.3415 58.6893 30.9209C58.5535 37.5003 66.2911 37.6221 67.4223 37.5003C67.739 37.4597 68.0105 37.3785 68.282 37.2972Z" fill="#F5EDF5"/>
<path d="M70.7282 58.6214C70.7282 56.5353 68.2567 54.8443 65.2079 54.8443C62.159 54.8443 59.6875 56.5353 59.6875 58.6214C59.6875 60.7074 62.159 62.3984 65.2079 62.3984C68.2567 62.3984 70.7282 60.7074 70.7282 58.6214Z" fill="#C11F3F"/>
<path d="M69.6844 58.6211C69.6844 56.9837 68.4487 55.6563 66.9242 55.6563C65.3998 55.6563 64.1641 56.9837 64.1641 58.6211C64.1641 60.2586 65.3998 61.5859 66.9242 61.5859C68.4487 61.5859 69.6844 60.2586 69.6844 58.6211Z" fill="#ED218A"/>
<path d="M67.8555 58.3251C67.7734 57.6111 66.3164 57.1612 64.6012 57.3201C62.886 57.4791 61.5621 58.1867 61.6443 58.9007C61.7264 59.6146 63.1834 60.0646 64.8986 59.9056C66.6138 59.7467 67.9376 59.039 67.8555 58.3251Z" fill="black"/>
<path d="M69.9587 31.8527C69.9587 29.6097 67.4871 27.7913 64.4383 27.7913C61.3895 27.7913 58.918 29.6097 58.918 31.8527C58.918 34.0957 61.3895 35.9141 64.4383 35.9141C67.4871 35.9141 69.9587 34.0957 69.9587 31.8527Z" fill="#C11F3F"/>
<path d="M64.7534 60.5287C64.7534 59.4744 63.8012 58.6198 62.6267 58.6198C61.4522 58.6198 60.5 59.4744 60.5 60.5287C60.5 61.5829 61.4522 62.4375 62.6267 62.4375C63.8012 62.4375 64.7534 61.5829 64.7534 60.5287Z" fill="white"/>
<path d="M68.7783 55.8017C67.7612 55.2746 66.6631 55.2724 66.3258 55.7969C65.9884 56.3213 66.5395 57.1738 67.5566 57.7009C68.5738 58.228 69.6718 58.2302 70.0092 57.7057C70.3466 57.1813 69.7955 56.3288 68.7783 55.8017Z" fill="white"/>
<path d="M69.2782 31.4883C69.2782 29.8509 68.0424 28.5235 66.518 28.5235C64.9936 28.5235 63.7578 29.8509 63.7578 31.4883C63.7578 33.1257 64.9936 34.4531 66.518 34.4531C68.0424 34.4531 69.2782 33.1257 69.2782 31.4883Z" fill="#ED218A"/>
<path d="M64.4927 29.9704C62.6697 29.911 61.164 30.5533 61.1295 31.4051C61.0951 32.2568 62.545 32.9954 64.368 33.0548C66.191 33.1142 67.6968 32.4719 67.7312 31.6201C67.7657 30.7684 66.3158 30.0297 64.4927 29.9704Z" fill="black"/>
<path d="M68.321 29.1795C67.4905 28.4341 66.4305 28.1769 65.9534 28.6052C65.4763 29.0334 65.7628 29.9848 66.5933 30.7303C67.4238 31.4757 68.4838 31.7329 68.9609 31.3046C69.438 30.8764 69.1515 29.925 68.321 29.1795Z" fill="white"/>
<path d="M62.7306 33.1414C61.9001 32.396 60.6968 32.2674 60.043 32.8542C59.3891 33.4411 59.5324 34.5211 60.3629 35.2665C61.1934 36.012 62.3967 36.1406 63.0505 35.5537C63.7043 34.9669 63.5611 33.8869 62.7306 33.1414Z" fill="white"/>
<path d="M66.9255 66.5774C66.9255 66.5774 60.0929 65.6839 59.6404 61.8256C59.1879 57.9673 65.387 54.109 65.387 54.109C65.387 54.109 61.1789 53.9466 59.4594 56.7083C57.74 59.47 58.283 63.1659 59.9572 64.9529C61.6314 66.6993 64.1653 67.3085 64.1653 67.3085L63.7128 69.6641L67.4232 66.7399L69.0069 65.8464L66.9255 66.5774Z" fill="black"/>
<path d="M66.9267 25.1138L64.1665 24.2203C64.1665 24.2203 57.9222 29.0533 58.9177 31.8963C59.8679 34.6986 62.6281 37.176 62.6281 37.176C62.6281 37.176 58.5104 38.3944 58.4652 32.8304C58.4199 27.2663 63.0806 23.7329 63.0806 23.7329L63.2163 21.621L66.9267 25.1138Z" fill="black"/>
<path d="M70.2305 65.1562L71.0902 63.5317L71.4069 57.927L70.7735 55.8152L72.4477 57.7646C72.4477 57.7646 72.8549 61.0138 72.4477 62.1103C72.0404 63.2069 70.2305 65.1562 70.2305 65.1562Z" fill="black"/>
<path d="M70.2305 36.8125L71.0902 35.188L71.4069 29.5833L70.7735 27.4713L72.4477 29.4208C72.4477 29.4208 72.8549 32.6699 72.4477 33.7665C72.0404 34.863 70.2305 36.8125 70.2305 36.8125Z" fill="black"/>
<path d="M41.4955 57.3186C41.4955 57.3186 48.9615 58.4964 50.9977 58.6182C53.0339 58.7401 54.7534 57.9684 54.7534 57.9684C54.7534 57.9684 48.1923 57.3592 45.9299 55.6534C43.6674 53.9477 42.0837 53.176 42.0837 53.176C42.0837 53.176 51.586 55.5316 54.7534 53.4603C57.9208 51.389 60.5 47.8556 62.5814 47.1652C64.7081 46.4747 68.69 45.6625 68.69 45.6625C68.69 45.6625 63.7127 40.667 57.0611 39.3673C50.4095 38.0677 43.2602 37.7022 43.2602 37.7022L55.8394 35.9152L42.6267 34.778L53.4864 31.8944L42.3552 30.5948C42.3552 30.5948 45.8846 28.6453 47.3326 28.2798C48.7805 27.9549 56.1561 27.833 56.1561 27.833L44.3009 26.1273C44.3009 26.1273 48.5091 22.3908 55.0701 22.7563C61.586 23.0812 72.8529 23.7717 72.8529 23.7717L61.8575 17.7608C61.8575 17.7608 66.0656 16.8267 74.1652 18.695C82.2195 20.6038 84.3462 21.944 84.5724 21.6598C84.7986 21.3755 72.8529 11.4251 69.6855 10.694C66.5181 9.963 77.1516 11.222 77.1516 11.222C77.1516 11.222 73.6222 7.9729 68.69 7.5668C63.8032 7.1607 54.2104 6.7545 54.2104 6.7545C54.2104 6.7545 46.6538 3.5866 43.6222 5.2518C40.5905 6.9576 32.7404 9.3999 32.7404 9.3999C32.7404 9.3999 30.7404 9.3999 31.7404 6.7545C33.164 5.13 34.2404 3.8999 34.2404 3.8999C34.2404 3.8999 21.1787 11.4657 17.9208 15.4052C14.6629 19.3448 8.87104 31.1634 8.87104 31.1634L7.83032 24.3809C7.83032 24.3809 4.79864 32.1787 5.47738 34.4531C6.15611 36.7681 8.32805 40.8294 8.32805 40.8294L2.08371 36.8899L6.83484 45.4188L0.5 49.7238L5.92986 48.9928L2.67195 60.4865L6.6086 56.1408C6.6086 56.1408 4.93439 58.7807 7.42308 63.5731C9.91176 68.3655 21.1335 76.0009 21.586 79.778C22.0385 83.555 21.4955 85.5857 21.4955 85.5857L23.0792 79.6968C23.0792 79.6968 25.6584 81.4025 27.9208 83.6769C30.1833 85.9513 45.0249 90.5 45.0249 90.5L34.6176 83.1083C34.6176 83.1083 42.4005 87.2915 49.0068 86.8854C55.6131 86.4792 72.2195 83.0271 72.2195 83.0271L64.6629 82.5397L75.6584 79.3718L61.8575 77.4224C61.8575 77.4224 70.4548 77.7473 73.2602 75.9197C76.0656 74.0921 81.767 70.5587 81.767 70.5587L50.1833 65.7662L43.7127 62.3141L49.8213 63.3294L41.4955 57.3186Z" fill="#EF4B8E"/>
<path d="M49.6391 66.3359C49.6391 66.3359 47.6934 64.3865 49.6391 62.3964C51.5848 60.4063 57.5576 57.8883 58.9151 55.6545C60.2726 53.4208 59.5033 52.0399 59.5033 52.0399C59.5033 52.0399 59.2771 54.3143 58.4626 54.8423C57.6481 55.3702 47.5576 61.0155 47.3766 62.437C47.2409 63.8179 49.6391 66.3359 49.6391 66.3359Z" fill="black"/>
<path d="M58.9144 39.651L59.7289 38.7169C59.7289 38.7169 55.5207 34.9804 54.0275 32.178C52.5343 29.3757 48.5977 24.6645 48.5977 24.6645L50.7696 22.7557C50.7696 22.7557 49.0501 23.6492 50.0004 24.8676C50.9506 26.086 58.9144 35.6302 59.6836 37.7421C60.4981 39.854 58.9144 39.651 58.9144 39.651Z" fill="black"/>
<path d="M82.3102 35.9166L81.8125 39.6531L82.3102 42.5368L81.8125 46.6386L82.627 50.7812L82.2197 46.5168L82.9437 42.7397L82.4007 40.8309L82.1745 39.6531L82.3102 35.9166Z" fill="#F5EDF5"/>
<path d="M82.8535 34.0061L84.03 35.9149C84.03 35.9149 82.6273 37.4583 82.401 38.3924C82.1748 39.3265 83.306 42.6568 83.306 42.6568L83.1702 44.6875" fill="white"/>
<path d="M82.8535 34.0061L84.03 35.9149C84.03 35.9149 82.6273 37.4583 82.401 38.3924C82.1748 39.3265 83.306 42.6568 83.306 42.6568L83.1702 44.6875" stroke="black" stroke-width="0.406137" stroke-miterlimit="10"/>
<path d="M61.9462 77.4592C60.5887 77.2562 36.3805 72.9511 29.367 64.9502C22.3534 56.9493 26.1543 48.461 26.1543 48.461C26.1543 48.461 18.281 58.4926 21.9009 62.3916C25.5208 66.2905 64.7516 82.6172 64.7516 82.6172L75.7471 79.4493L61.9462 77.4592Z" fill="#C11F3F"/>
<path d="M53.5763 53.9902C50.4542 54.3151 38.418 53.1373 38.418 53.1373C38.418 53.1373 48.599 52.8936 52.4451 50.7817C56.2913 48.6698 58.418 45.3801 61.5401 44.6896C64.6623 43.9992 68.7347 45.6644 68.7347 45.6644C68.7347 45.6644 63.1691 46.1111 60.4994 48.4667C57.875 50.8629 54.7528 53.4216 54.7528 53.4216L53.5763 53.9902Z" fill="#C11F3F"/>
<path d="M54.2551 35.7932L38.418 39.3672L47.3772 35.184L54.2551 35.7932Z" fill="#C11F3F"/>
<path d="M26.1113 45.0938L19.867 39.3671L16.9258 43.3474L26.1113 45.0938Z" fill="#C11F3F"/>
<path d="M47.3762 63.0078L43.7563 62.3986L39.9102 59.6369L47.3762 63.0078Z" fill="#C11F3F"/>
<path d="M43.6663 58.8583L41.4943 57.315L47.3767 58.0866L51.8563 58.6146L43.6663 56.0965L35.793 55.3249L45.8835 60.5234L43.6663 58.8583Z" fill="#C11F3F"/>
<path d="M36.2002 66.3359L27.9649 57.6446L32.0825 60.5282L26.8789 51.3495L41.992 47.6942L31.7205 47.1663L44.2997 45.5417L41.1775 46.6383L50.1368 47.613L31.1775 52.446L38.1459 59.1879L32.0373 56.345L41.6753 66.3359L36.2454 64.0616L36.2002 66.3359Z" fill="#F3B1D0"/>
<path d="M31.4035 40.8672L38.5076 35.9123L28.5529 34.4502C28.5529 34.4502 36.3809 23.4845 41.3583 22.0224C46.3357 20.5603 55.7022 18.6515 55.7022 18.6515L38.4171 19.5856C38.4171 19.5856 51.1773 14.0215 55.7022 14.3058C60.2271 14.5901 68.7339 14.8338 68.7339 14.8338C68.7339 14.8338 53.5755 7.23899 46.3357 8.86359C39.0959 10.4881 32.8968 13.3311 32.8968 13.3311L52.6705 12.1127L28.5529 21.5757L40.7701 21.0477L24.4805 36.7652H34.752L31.4035 40.8672Z" fill="#F3B1D0"/>
<path d="M22.2188 77.0183C22.5355 77.4244 33.5309 86.5625 33.5309 86.5625L26.8794 78.6428C26.8794 78.6428 36.0196 84.4506 43.6666 84.2069C51.3137 83.9632 59.6847 83.3946 59.6847 83.3946L26.1102 71.0074C26.1102 71.0074 47.1055 83.1103 46.3363 82.623C45.5671 82.1356 24.4359 75.9217 24.4359 75.9217L25.2052 78.2367L22.2188 77.0183Z" fill="#F3B1D0"/>
</g>
<defs>
<clipPath id="clip0_394_1040">
<rect width="90" height="93" fill="white" transform="matrix(0 -1 1 0 0.5 90.5)"/>
</clipPath>
</defs>
</svg>
