<svg width="90" height="90" viewBox="0 0 90 90" fill="none" xmlns="http://www.w3.org/2000/svg">
<g clip-path="url(#clip0_394_1098)">
<mask id="mask0_394_1098" style="mask-type:luminance" maskUnits="userSpaceOnUse" x="0" y="0" width="90" height="90">
<path d="M0 0L0 90H90V0H0Z" fill="white"/>
</mask>
<g mask="url(#mask0_394_1098)">
<path d="M44.9716 0.486C69.5436 0.486 89.4627 20.3744 89.4627 44.907C89.4627 69.4398 69.5436 89.3281 44.9716 89.3281C20.3998 89.3281 0.480469 69.4398 0.480469 44.907C0.480341 20.3744 20.3996 0.486 44.9716 0.486Z" fill="white" stroke="black" stroke-width="0.626179"/>
<path d="M19.5788 32.3984C15.3266 26.8039 13.4768 23.2569 12.8281 20.813C16.9977 15.8871 22.1428 10.8008 27.2881 7.50504C31.8637 8.19634 36.2796 9.21433 40.53 10.5592C39.2987 15.7323 38.0655 20.9056 36.8304 26.0769C31.08 28.1827 25.3294 30.2905 19.5788 32.3984Z" fill="white" stroke="black" stroke-width="0.626179"/>
<path d="M5.52344 59.3006C9.69493 54.3766 9.48252 55.6477 14.6277 52.3519C16.9324 54.1859 24.7566 63.52 28.6835 65.679C28.0989 70.5254 28.8151 74.3955 27.58 79.5667C19.8818 79.7178 14.4547 75.1396 13.573 75.2886C10.4901 71.3752 6.17195 61.7464 5.52344 59.3006Z" fill="white" stroke="black" stroke-width="0.626179"/>
<path d="M51.6145 39.8914C56.57 38.1708 64.8247 37.5419 70.2932 37.0187C72.5981 38.8526 76.5457 49.7167 77.8784 54.4856C74.3423 60.5333 68.2949 65.1136 63.8169 68.3281C56.4422 65.7066 51.2952 62.0877 48.1406 59.7928C49.2986 53.1579 50.4567 46.5266 51.6145 39.8914Z" fill="white" stroke="black" stroke-width="0.626179"/>
<path d="M60.3627 82.4345C63.9081 83.1485 66.3726 82.1172 69.0742 81.4241C69.1888 81.6223 69.0872 81.7829 69.4444 81.9434C60.4455 88.6125 47.3144 90.0008 43.0039 89.3831C43.049 88.8977 43.0942 88.5861 43.1806 88.1026C49.6869 87.4132 56.5202 84.8918 60.3627 82.4345Z" fill="white" stroke="black" stroke-width="0.626179"/>
<path d="M60.8652 3.27972C70.4694 6.80982 80.0345 15.904 82.1418 20.9487C82.0628 21.6493 82.1398 22.2802 82.0382 22.8828C77.9948 20.3085 74.4849 20.8788 72.8362 20.6446C70.9828 15.3863 61.649 10.5853 58.6562 7.80322C58.9742 6.24502 59.3669 5.54622 60.8652 3.27972Z" fill="white" stroke="black" stroke-width="0.626179"/>
<path d="M89.4719 48.2208C89.3948 48.9233 88.6449 54.0192 88.5452 54.6235C87.5846 59.1811 84.5767 66.3449 83.0352 67.9844C84.7684 63.952 85.9415 59.9063 86.5675 58.1668C86.6841 57.1279 86.8364 56.5954 86.0187 54.4384C88.5771 54.4743 89.0133 45.3234 89.4251 43.9183C89.6412 44.9627 89.4099 45.4103 89.4719 48.2208Z" fill="white" stroke="black" stroke-width="0.626179"/>
<path d="M28.6523 65.7894C34.0795 66.1256 41.5915 63.6948 48.0602 59.8379L28.6523 65.7894Z" fill="white"/>
<path d="M28.6523 65.7894C34.0795 66.1256 41.5915 63.6948 48.0602 59.8379" stroke="black" stroke-width="0.626179"/>
<path d="M19.3966 32.4042C17.7706 34.6028 15.4564 44.1899 14.5898 52.5703L19.3966 32.4042Z" fill="white"/>
<path d="M19.3966 32.4042C17.7706 34.6028 15.4564 44.1899 14.5898 52.5703" stroke="black" stroke-width="0.626179"/>
<path d="M51.6835 39.9609C45.5721 33.7149 42.2616 30.4946 36.6953 26.0674L51.6835 39.9609Z" fill="white"/>
<path d="M51.6835 39.9609C45.5721 33.7149 42.2616 30.4946 36.6953 26.0674" stroke="black" stroke-width="0.626179"/>
<path d="M70.2695 37.0234C73.0611 30.6356 73.595 26.3426 72.9426 20.699L70.2695 37.0234Z" fill="white"/>
<path d="M70.2695 37.0234C73.0611 30.6356 73.595 26.3426 72.9426 20.699" stroke="black" stroke-width="0.626179"/>
<path d="M77.6289 54.6233C81.7741 55.3203 83.5637 54.8179 85.9022 54.5403L77.6289 54.6233Z" fill="white"/>
<path d="M77.6289 54.6233C81.7741 55.3203 83.5637 54.8179 85.9022 54.5403" stroke="black" stroke-width="0.626179"/>
<path d="M63.8036 68.2C63.9087 79.0035 62.1718 80.1311 60.4141 82.4844L63.8036 68.2Z" fill="white"/>
<path d="M63.8036 68.2C63.9087 79.0035 62.1718 80.1311 60.4141 82.4844" stroke="black" stroke-width="0.626179"/>
<path d="M27.5898 79.5222C33.4814 85.2941 38.7413 86.62 43.4655 88.0781L27.5898 79.5222Z" fill="white"/>
<path d="M27.5898 79.5222C33.4814 85.2941 38.7413 86.62 43.4655 88.0781" stroke="black" stroke-width="0.626179"/>
<path d="M12.9258 75.875C13.2247 75.416 13.1777 75.4708 13.4239 75.3084L12.9258 75.875Z" fill="white"/>
<path d="M12.9258 75.875C13.2247 75.416 13.1777 75.4708 13.4239 75.3084" stroke="black" stroke-width="0.626179"/>
<path d="M2.95312 30.7031C6.3576 25.6073 10.8787 22.1565 12.815 20.8496L2.95312 30.7031Z" fill="white"/>
<path d="M2.95312 30.7031C6.3576 25.6073 10.8787 22.1565 12.815 20.8496" stroke="black" stroke-width="0.626179"/>
<path d="M58.4796 7.86724C54.5413 7.88624 42.3184 8.60964 40.5625 10.9609L58.4796 7.86724Z" fill="white"/>
<path d="M58.4796 7.86724C54.5413 7.88624 42.3184 8.60964 40.5625 10.9609" stroke="black" stroke-width="0.626179"/>
<path d="M31.0001 2.42152C28.9624 3.73602 28.0205 5.00531 27.3945 7.50781L31.0001 2.42152Z" fill="white"/>
<path d="M31.0001 2.42152C28.9624 3.73602 28.0205 5.00531 27.3945 7.50781" stroke="black" stroke-width="0.626179"/>
<path d="M0.734375 43.2677C1.89418 52.923 3.97333 56.9269 5.46982 59.1953L0.734375 43.2677Z" fill="white"/>
<path d="M0.734375 43.2677C1.89418 52.923 3.97333 56.9269 5.46982 59.1953" stroke="black" stroke-width="0.626179"/>
<path d="M44.9716 0.486C69.5436 0.486 89.4627 20.3744 89.4627 44.907C89.4627 69.4398 69.5436 89.3281 44.9716 89.3281C20.3998 89.3281 0.480469 69.4398 0.480469 44.907C0.480341 20.3744 20.3996 0.486 44.9716 0.486Z" stroke="black" stroke-width="0.626179"/>
<path d="M19.5788 32.3984C15.3266 26.8039 13.4768 23.2569 12.8281 20.813C16.9977 15.8871 22.1429 10.8008 27.2881 7.50504C31.8637 8.19634 36.2796 9.21433 40.53 10.5592C39.2987 15.7323 38.0655 20.9056 36.8304 26.0769C31.08 28.1827 25.3294 30.2905 19.5788 32.3984Z" fill="black" stroke="black" stroke-width="0.626179"/>
<path d="M5.52344 59.3006C9.69493 54.3766 9.48252 55.6477 14.6278 52.3519C16.9326 54.1859 24.7566 63.52 28.6837 65.679C28.0992 70.5254 28.8153 74.3955 27.5803 79.5667C19.8821 79.7178 14.455 75.1396 13.5733 75.2886C10.4901 71.3752 6.17195 61.7464 5.52344 59.3006Z" fill="black" stroke="black" stroke-width="0.626179"/>
<path d="M51.6145 39.8914C56.57 38.1708 64.8247 37.5419 70.2932 37.0187C72.5981 38.8526 76.5458 49.7167 77.8784 54.4856C74.3423 60.5333 68.2949 65.1136 63.8169 68.3281C56.4422 65.7066 51.2952 62.0877 48.1406 59.7928C49.2986 53.1579 50.4567 46.5266 51.6145 39.8914Z" fill="black" stroke="black" stroke-width="0.626179"/>
<path d="M60.3627 82.4345C63.9081 83.1485 66.3726 82.1172 69.0742 81.4241C69.1888 81.6223 69.0872 81.7829 69.4444 81.9434C60.4455 88.6125 47.3144 90.0008 43.0039 89.3831C43.049 88.8977 43.0942 88.5861 43.1807 88.1026C49.6869 87.4132 56.5202 84.8918 60.3627 82.4345Z" fill="black" stroke="black" stroke-width="0.626179"/>
<path d="M60.8652 3.27972C70.4694 6.80982 80.0345 15.904 82.1418 20.9487C82.0628 21.6493 82.1398 22.2802 82.0382 22.8828C77.9948 20.3085 74.4849 20.8788 72.8362 20.6446C70.9828 15.3863 61.649 10.5853 58.6562 7.80322C58.9742 6.24502 59.3669 5.54622 60.8652 3.27972Z" fill="black" stroke="black" stroke-width="0.626179"/>
<path d="M89.4719 48.2208C89.3948 48.9233 88.6448 54.0192 88.5452 54.6235C87.5846 59.1811 84.5767 66.3449 83.0352 67.9844C84.7684 63.952 85.9415 59.9063 86.5675 58.1668C86.6841 57.1279 86.8364 56.5954 86.0187 54.4384C88.5771 54.4743 89.0133 45.3234 89.4251 43.9183C89.6412 44.9627 89.4099 45.4103 89.4719 48.2208Z" fill="black" stroke="black" stroke-width="0.626179"/>
<path d="M28.6523 65.7894C34.0795 66.1256 41.5915 63.6948 48.0602 59.8379" stroke="black" stroke-width="0.626179"/>
<path d="M19.3967 32.4042C17.7706 34.6028 15.4564 44.1899 14.5898 52.5703" stroke="black" stroke-width="0.626179"/>
<path d="M51.6835 39.9609C45.5721 33.7149 42.2616 30.4946 36.6953 26.0674" stroke="black" stroke-width="0.626179"/>
<path d="M70.2695 37.0234C73.0611 30.6356 73.595 26.3426 72.9426 20.699" stroke="black" stroke-width="0.626179"/>
<path d="M77.6289 54.6233C81.7741 55.3203 83.5638 54.8179 85.9022 54.5403" stroke="black" stroke-width="0.626179"/>
<path d="M63.8036 68.2C63.9087 79.0035 62.1718 80.1311 60.4141 82.4844" stroke="black" stroke-width="0.626179"/>
<path d="M27.5898 79.5222C33.4814 85.2941 38.7413 86.62 43.4655 88.0781" stroke="black" stroke-width="0.626179"/>
<path d="M12.9258 75.875C13.2247 75.416 13.1777 75.4708 13.4239 75.3084" stroke="black" stroke-width="0.626179"/>
<path d="M2.95312 30.7031C6.3576 25.6073 10.8787 22.1565 12.815 20.8496" stroke="black" stroke-width="0.626179"/>
<path d="M58.4796 7.86724C54.5413 7.88624 42.3184 8.60964 40.5625 10.9609" stroke="black" stroke-width="0.626179"/>
<path d="M31.0001 2.42152C28.9624 3.73602 28.0205 5.00531 27.3945 7.50781" stroke="black" stroke-width="0.626179"/>
<path d="M0.734375 43.2677C1.89418 52.923 3.97333 56.9269 5.46982 59.1953" stroke="black" stroke-width="0.626179"/>
<path d="M59.9792 61.7414C59.7536 59.4844 55.8847 58.812 54.582 58.3209C50.7753 56.8779 49.901 55.7107 50.6717 52.7963C50.5701 50.0086 51.5779 44.433 52.3298 40.225C54.078 39.9643 60.4058 40.4968 62.1202 40.0265C63.5451 39.6356 61.8344 38.2644 66.3123 38.3173C65.1279 38.7761 55.6138 39.528 52.3072 40.308C51.1792 42.446 51.4275 44.5991 50.5268 48.2426C49.6395 51.8368 49.1941 55.9335 48.4102 59.5485C49.2206 60.6534 51.0402 61.1237 51.8166 62.17L56.3208 64.1797C56.3208 64.1797 60.1709 63.6604 59.9792 61.7414Z" fill="url(#paint0_radial_394_1098)" stroke="black" stroke-width="0.626179"/>
<path d="M36.5352 25.9375C37.5183 22.9137 37.8286 20.2431 38.6631 16.8736C39.0372 15.2623 39.9039 12.2951 40.2572 10.7881C39.5034 11.6437 38.8003 13.4286 38.7007 13.9441C38.5747 14.5919 37.6009 18.2221 37.2795 18.9002C36.9204 20.8759 36.708 22.1902 36.537 23.518C36.5595 23.6126 36.5407 25.388 36.5352 25.9375Z" fill="url(#paint1_radial_394_1098)" stroke="black" stroke-width="0.626179"/>
<path d="M19.4531 32.2109C22.9703 31.3083 25.7601 29.8387 29.5311 28.5185C31.319 27.8575 34.7159 26.8527 36.3928 26.2389C35.1238 25.9253 32.9808 26.3125 32.4187 26.5467C31.7137 26.8413 27.61 28.1747 26.7603 28.2579C24.6247 29.1871 23.2185 29.8386 21.8181 30.5488C21.7429 30.6394 19.9908 31.8407 19.4531 32.2109Z" fill="url(#paint2_radial_394_1098)" stroke="black" stroke-width="0.626179"/>
<path d="M26.4403 64.3508C23.8555 62.5735 19.5223 57.4305 17.1574 55.0678C16.3941 54.2349 16.0841 53.4717 14.7305 52.688C15.2381 53.5455 18.2496 57.0566 18.7215 57.3097C19.3137 57.6271 21.8778 60.8473 22.4097 61.3194C24.2313 62.2714 23.1411 62.7039 24.4006 63.2932C24.504 63.3063 27.8313 65.5104 28.3822 65.7031L26.4403 64.3508Z" fill="url(#paint3_radial_394_1098)" stroke="black" stroke-width="0.626179"/>
<path d="M27.4077 79.5C27.8494 77.4601 28.0638 76.4762 28.0863 73.3484C28.1916 71.8846 28.3626 67.1042 28.5751 65.733C28.0356 66.5168 27.669 68.1412 27.6521 68.6077C27.6314 69.195 27.28 72.4964 27.0957 73.1141C27.0505 74.9086 27.0487 76.1002 27.0788 77.3072C27.1126 77.3902 27.3383 79.0032 27.4077 79.5Z" fill="url(#paint4_radial_394_1098)" stroke="black" stroke-width="0.626179"/>
<path d="M62.7252 4.50006C70.9439 7.63526 79.129 15.7154 80.9319 20.1954C80.8643 20.8188 80.93 21.3796 80.8454 21.9141C77.3826 19.6251 74.3786 20.133 72.9688 19.9272C71.3821 15.2545 63.3964 10.9916 60.8359 8.51727C61.1084 7.13307 61.4431 6.51356 62.7252 4.50006Z" fill="url(#paint5_radial_394_1098)" stroke="black" stroke-width="0.626179"/>
<path d="M60.3627 82.4345C63.9081 83.1485 66.3726 82.1172 69.0742 81.4241C69.1888 81.6223 69.0872 81.7829 69.4444 81.9434C60.4455 88.6125 47.3144 90.0008 43.0039 89.3831C43.049 88.8977 43.0942 88.5861 43.1807 88.1026C49.6869 87.4132 56.5202 84.8918 60.3627 82.4345Z" fill="url(#paint6_radial_394_1098)" stroke="black" stroke-width="0.626179"/>
<path d="M21.6048 84.8829C22.8828 85.8172 24.1573 85.8348 25.4295 85.3089L25.4082 82.7825C26.9257 81.6205 45.4527 83.086 45.1568 65.7424C45.3828 50.5033 34.7028 49.2012 31.3203 48.6743C29.0665 47.8643 28.9326 46.422 28.9357 45.0948H23.4427C23.0132 47.4773 22.8464 49.1209 22.0288 50.6279C18.1598 55.423 16.4733 68.4351 21.0786 80.4524L21.6048 84.8829Z" fill="#333333" stroke="black" stroke-width="0.766607"/>
<path d="M21.6048 5.18055C22.8828 4.24575 24.1573 4.22855 25.4295 4.75445L25.4082 7.28075C26.9257 8.44295 45.4527 6.97745 45.1568 24.3211C45.3828 39.5596 34.7028 40.8623 31.3203 41.3894C29.0665 42.1988 28.9326 43.6417 28.9357 44.9688H23.4427C23.0132 42.5856 22.8464 40.9423 22.0288 39.436C18.1598 34.6409 16.4733 21.6284 21.0786 9.61145L21.6048 5.18055Z" fill="#333333" stroke="black" stroke-width="0.766607"/>
<path d="M31.568 51.9611C37.8058 53.1798 42.572 57.1834 42.572 64.7417C42.572 72.2998 37.7552 76.3275 31.5909 77.969C27.9271 78.9448 21.0595 82.1736 20.9733 64.8481C20.9002 50.164 27.1496 51.0989 31.568 51.9611Z" fill="white" stroke="black" stroke-width="0.766607" stroke-linecap="round"/>
<path d="M31.568 37.2792C37.8058 36.0598 42.572 32.0563 42.572 24.4984C42.572 16.9405 37.7552 12.9126 31.5909 11.2706C27.9271 10.2946 21.0595 7.06651 20.9733 24.3921C20.9002 39.0763 27.1496 38.1406 31.568 37.2792Z" fill="white" stroke="black" stroke-width="0.766607" stroke-linecap="round"/>
<path d="M29.2305 81.0232C31.6792 80.9926 35.5401 80.2417 37.6649 78.8627C40.058 77.6574 43.1991 74.045 43.1452 72.52C41.6741 74.641 40.0005 76.7522 37.354 78.3574C35.0996 79.686 32.1455 80.1444 29.2305 81.0232Z" fill="#EEEEEC"/>
<path d="M43.2854 24.3666C43.5126 19.1773 42.5005 16.8289 40.8473 14.7332C39.2705 12.2872 35.204 11.0645 33.832 11.141C36.0305 12.2225 38.2043 12.8465 40.1708 15.4841C41.8144 17.7411 42.8573 19.0353 43.2846 24.3672L43.2854 24.3666Z" fill="#EEEEEC"/>
<path d="M23.2525 50.6406C23.8795 49.2509 24.6581 48.3849 24.6818 45.5703C24.4401 42.1617 23.5211 41.8954 22.7578 40.5652C23.334 42.1761 23.9945 43.4925 23.912 45.5703C24.067 46.8306 23.6178 48.9191 23.2525 50.6406Z" fill="#EEEEEC"/>
<path d="M51.1447 27.749C59.2176 27.749 65.762 35.5147 65.762 45.0935C65.762 54.6724 59.2178 62.4375 51.1447 62.4375C43.0715 62.4375 36.5273 54.6724 36.5273 45.0935C36.5275 35.5147 43.0717 27.749 51.1447 27.749Z" fill="url(#paint7_radial_394_1098)" stroke="black" stroke-width="1.37532" stroke-linecap="round"/>
<path d="M31.3885 60.5702C33.8038 60.5702 35.7614 62.6601 35.7614 65.2383C35.7614 67.8163 33.8038 69.9062 31.3885 69.9062C28.9734 69.9062 27.0156 67.8163 27.0156 65.2383C27.0156 62.6601 28.9732 60.5702 31.3885 60.5702Z" fill="black" stroke="black" stroke-width="0.871745" stroke-linecap="round"/>
<path d="M29.8567 65.7115C30.4832 65.7115 30.9908 66.2536 30.9908 66.9222C30.9908 67.5909 30.483 68.1328 29.8567 68.1328C29.2305 68.1328 28.7227 67.5909 28.7227 66.9222C28.7227 66.2536 29.2303 65.7115 29.8567 65.7115Z" fill="white"/>
<path d="M31.1229 19.2653C33.5382 19.2653 35.496 21.3553 35.496 23.9337C35.496 26.5115 33.5382 28.6016 31.1229 28.6016C28.7078 28.6016 26.75 26.5117 26.75 23.9337C26.7502 21.3553 28.708 19.2653 31.1229 19.2653Z" fill="black" stroke="black" stroke-width="0.871745" stroke-linecap="round"/>
<path d="M29.5911 24.4068C30.2175 24.4068 30.7252 24.9489 30.7252 25.6175C30.7252 26.2862 30.2173 26.8281 29.5911 26.8281C28.9649 26.8281 28.457 26.2862 28.457 25.6175C28.457 24.9489 28.9647 24.4068 29.5911 24.4068Z" fill="white"/>
</g>
</g>
<defs>
<radialGradient id="paint0_radial_394_1098" cx="0" cy="0" r="1" gradientUnits="userSpaceOnUse" gradientTransform="translate(44.6565 44.4055) rotate(-90) scale(19.6535 13.5974)">
<stop stop-color="white"/>
<stop offset="1"/>
</radialGradient>
<radialGradient id="paint1_radial_394_1098" cx="0" cy="0" r="1" gradientUnits="userSpaceOnUse" gradientTransform="translate(36.3552 19.669) rotate(-90) scale(10.8654 2.67026)">
<stop stop-color="white"/>
<stop offset="1"/>
</radialGradient>
<radialGradient id="paint2_radial_394_1098" cx="0" cy="0" r="1" gradientUnits="userSpaceOnUse" gradientTransform="translate(18.602 29.6816) rotate(-90) scale(4.36959 12.1515)">
<stop stop-color="white"/>
<stop offset="1"/>
</radialGradient>
<radialGradient id="paint3_radial_394_1098" cx="0" cy="0" r="1" gradientUnits="userSpaceOnUse" gradientTransform="translate(14.048 60.3198) rotate(-90) scale(9.33472 9.79347)">
<stop stop-color="white"/>
<stop offset="1"/>
</radialGradient>
<radialGradient id="paint4_radial_394_1098" cx="0" cy="0" r="1" gradientUnits="userSpaceOnUse" gradientTransform="translate(27.0267 73.8029) rotate(-90) scale(9.87332 1.08865)">
<stop stop-color="white"/>
<stop offset="1"/>
</radialGradient>
<radialGradient id="paint5_radial_394_1098" cx="0" cy="0" r="1" gradientUnits="userSpaceOnUse" gradientTransform="translate(79.8571 4.18786) rotate(-90) scale(9.96813 11.5148)">
<stop stop-color="white"/>
<stop offset="1"/>
</radialGradient>
<radialGradient id="paint6_radial_394_1098" cx="0" cy="0" r="1" gradientUnits="userSpaceOnUse" gradientTransform="translate(68.3478 91.073) rotate(-90) scale(5.77497 18.8801)">
<stop stop-color="white"/>
<stop offset="1"/>
</radialGradient>
<radialGradient id="paint7_radial_394_1098" cx="0" cy="0" r="1" gradientUnits="userSpaceOnUse" gradientTransform="translate(45.8607 49.5059) rotate(-90.2472) scale(28.1633 22.8296)">
<stop stop-color="#E42F29"/>
<stop offset="1" stop-color="#801418"/>
</radialGradient>
<clipPath id="clip0_394_1098">
<rect width="90" height="90" fill="white" transform="matrix(0 -1 1 0 0 90)"/>
</clipPath>
</defs>
</svg>
