<svg width="90" height="90" viewBox="0 0 90 90" fill="none" xmlns="http://www.w3.org/2000/svg">
<g clip-path="url(#clip0_394_1182)">
<path d="M80.1278 73.1236C95.6604 53.7225 92.5243 25.4032 73.1233 9.87065C53.7222 -5.66193 25.4029 -2.5259 9.87032 16.8752C-5.66226 36.2762 -2.52623 64.5955 16.8748 80.1281C36.2759 95.6607 64.5952 92.5247 80.1278 73.1236Z" fill="#373240"/>
<path d="M73.8697 45.0027C73.8697 29.0569 60.9431 16.1303 44.9974 16.1303C29.0516 16.1303 16.125 29.0569 16.125 45.0027C16.125 60.9484 29.0516 73.875 44.9974 73.875C60.9431 73.875 73.8697 60.9484 73.8697 45.0027Z" stroke="#DEDEDE" stroke-width="5.47499"/>
<g opacity="0.926282" filter="url(#filter0_f_394_1182)">
<path d="M73.8697 45.0027C73.8697 29.0569 60.9431 16.1303 44.9974 16.1303C29.0516 16.1303 16.125 29.0569 16.125 45.0027C16.125 60.9484 29.0516 73.875 44.9974 73.875C60.9431 73.875 73.8697 60.9484 73.8697 45.0027Z" stroke="#69D5E6" stroke-width="6.0737"/>
</g>
</g>
<defs>
<filter id="filter0_f_394_1182" x="6.17073" y="6.17464" width="77.6546" height="77.6546" filterUnits="userSpaceOnUse" color-interpolation-filters="sRGB">
<feFlood flood-opacity="0" result="BackgroundImageFix"/>
<feBlend mode="normal" in="SourceGraphic" in2="BackgroundImageFix" result="shape"/>
<feGaussianBlur stdDeviation="3.45956" result="effect1_foregroundBlur_394_1182"/>
</filter>
<clipPath id="clip0_394_1182">
<rect width="90" height="90" fill="white" transform="matrix(0 -1 1 0 0 90)"/>
</clipPath>
</defs>
</svg>
