<svg width="90" height="90" viewBox="0 0 90 90" fill="none" xmlns="http://www.w3.org/2000/svg">
<g clip-path="url(#clip0_1491_43404)">
<path d="M89.1532 47.4983C89.1532 51.7369 88.4848 55.8821 87.1671 59.8182C85.0937 66.0025 81.9114 70.3456 80.195 72.3846C76.7772 76.4514 73.3937 78.7145 70.9215 80.3689C64.0519 84.9697 57.581 86.9377 55.1165 87.5689C51.8621 88.4054 45.0874 90.1456 36.5658 88.7041C31.314 87.8153 27.5013 86.0676 24.9836 84.9099C21.2848 83.2145 17.0924 81.2913 12.9988 77.2954C8.1342 72.5489 6.1899 67.5896 4.46965 63.2166C1.64433 56.0203 1.22661 50.1124 1.00256 46.9419C0.869648 45.0523 0.759521 43.3456 0.759521 41.5382C0.759521 37.9904 1.20762 34.8759 2.17218 31.7315C2.8861 29.4012 3.96458 25.8796 6.87724 22.5C7.62914 21.6299 8.16458 21.1593 8.73041 20.6626C9.31901 20.1473 9.98357 19.5647 11.0696 18.3772C12.7443 16.5435 13.595 15.2738 14.4988 13.9294C15.0418 13.1228 15.6 12.29 16.3481 11.3265C18.7443 8.24562 21.5127 5.66139 24.1443 4.05185C28.3975 1.44521 32.4304 1.28089 40.4621 0.952263C46.2874 0.713257 50.4912 0.541473 55.8988 2.10247C60.1215 3.32363 63.1671 5.03773 66.6912 7.02446C69.4671 8.58919 72.338 10.2062 75.562 13.0967C79.1924 16.3494 81.376 19.5124 82.1507 20.7224C82.8722 21.8502 85.0633 25.2859 86.8026 32.1423C87.7937 36.056 89.1532 41.4224 89.1532 47.4983Z" fill="#5D3D24"/>
<path d="M1.51899 41.5382C1.51899 38.588 1.82278 35.4586 2.89747 31.9482C3.65696 29.476 4.70127 26.1822 7.45443 22.9855C8.93165 21.2714 9.46709 21.249 11.6316 18.8777C14.3772 15.8714 15.0038 14.2843 16.9481 11.7822C17.5899 10.9569 20.5747 7.1179 24.543 4.68678C28.6291 2.18471 32.5823 2.02412 40.4924 1.69923C46.2911 1.46023 50.3962 1.29218 55.6823 2.81956C59.8215 4.01458 62.8443 5.71748 66.3152 7.67433C69.2165 9.31002 71.9506 10.871 75.0494 13.6494C78.8962 17.1001 81.0418 20.3901 81.5051 21.1183C82.5911 22.8175 84.5013 26.1523 86.062 32.3216C87.076 36.3212 88.3899 41.5158 88.3899 47.4984C88.3899 51.2478 87.8734 55.3108 86.4418 59.583C84.2013 66.2677 80.6658 70.6445 79.6063 71.9067C76.3215 75.8092 73.0443 78.0424 70.4924 79.749C63.2051 84.6299 56.5367 86.4299 54.9228 86.8445C51.4215 87.7445 44.8861 89.354 36.6949 87.9648C31.6481 87.1096 27.9722 85.4552 25.3025 84.2303C21.6873 82.5723 17.5329 80.6677 13.5304 76.7615C8.78354 72.127 6.85443 67.2162 5.17595 62.944C2.44557 55.9942 1.99367 50.2395 1.75823 46.886C1.63671 45.142 1.51899 43.3756 1.51899 41.5382ZM0 41.5382C0 43.3718 0.110127 45.0897 0.243038 46.9868C0.470886 50.1984 0.892405 56.1772 3.75949 63.4781C5.50633 67.9221 7.48101 72.9598 12.4595 77.8183C16.6519 81.9075 20.9089 83.8606 24.6608 85.5822C27.2203 86.7548 31.0861 88.5287 36.4405 89.4362C45.1215 90.9075 52.0025 89.1374 55.3101 88.2897C58.4165 87.4905 64.6329 85.4814 71.3506 80.9851C73.7165 79.4017 77.2937 77.0079 80.7797 72.859C82.5266 70.7789 85.7734 66.3536 87.8886 60.0499C89.2329 56.0391 89.9127 51.8154 89.9127 47.4984C89.9127 41.3328 88.5418 35.9142 87.5392 31.9594C85.7734 24.9872 83.5329 21.4768 82.7962 20.3229C82.0063 19.0868 79.7734 15.8602 76.0785 12.544C72.7937 9.59756 69.8848 7.96188 67.0747 6.37848C63.5089 4.36935 60.4253 2.63284 56.1152 1.38554C50.5899 -0.209068 46.3291 -0.0372849 40.4354 0.205452C32.2709 0.54155 28.1696 0.709602 23.7456 3.41707C20.9962 5.1013 18.2316 7.67806 15.7481 10.8747C14.9848 11.8569 14.4152 12.7046 13.8684 13.5225C12.9835 14.8445 12.1443 16.088 10.5076 17.8806C9.4481 19.0382 8.79873 19.6059 8.22911 20.11C7.64051 20.6254 7.08608 21.1108 6.3038 22.022C3.29241 25.5212 2.18354 29.1287 1.45063 31.5187C0.459494 34.7303 0 37.9158 0 41.5382Z" fill="#231F20"/>
<path d="M3.20424 12.4207C0.484136 6.24839 3.56968 0.901976 8.64567 1.60602C13.7204 2.31012 15.5074 3.00081 16.6854 1.82284C16.6854 1.82284 16.4418 3.69027 15.3455 4.66473C15.3455 4.66473 19.9074 5.60633 21.2705 6.90856C20.9124 7.25332 20.5969 7.59562 20.3228 7.9245C19.6638 7.31302 17.7501 5.89508 13.4769 5.02168C13.4769 5.02168 14.2029 4.20919 14.6889 3.32478C14.6889 3.32478 12.3002 3.60984 9.78223 2.63532C7.26436 1.6608 2.5562 3.89367 3.00084 8.44097C3.44665 12.9895 5.58819 12.9286 5.46634 16.9485C5.43588 17.9644 5.31286 18.727 5.14596 19.2995C4.85363 19.5443 4.56857 19.8087 4.32006 20.0815C4.29815 19.883 4.27009 19.6942 4.23722 19.5139C4.66722 18.526 4.96687 16.4198 3.20424 12.4207Z" fill="#8A5D3B"/>
<path d="M18.7172 10.4693C22.2669 7.88078 28.4794 4.47971 37.8701 6.84657C38.9262 7.11212 39.9105 7.25219 40.8265 7.2912C38.4146 8.20849 36.8346 9.21224 36.8346 9.21224C53.5488 5.81117 58.6528 12.2454 58.6528 12.2454C57.6173 12.9105 52.8093 12.6145 52.8093 12.6145C54.4416 13.3905 55.9363 13.9752 57.2994 14.4052C68.2797 19.3046 72.2728 25.2114 72.2728 25.2114C72.2728 25.2114 68.5368 26.7548 66.6693 29.4346C64.8019 32.1145 60.4166 33.6567 60.4166 33.6567C62.2841 33.8199 67.4002 32.7638 70.1618 29.9219C70.5394 29.5333 70.9597 29.1934 71.4042 28.8987C72.9488 29.3591 75.4095 29.8354 75.1147 30.4493C74.6274 31.464 73.4093 33.0075 73.4093 33.0075C74.0245 32.748 74.6664 32.3094 75.2682 31.8185C78.0248 32.7979 80.6377 34.8748 80.6377 34.8748C79.4196 34.7128 78.6887 36.2562 78.6887 36.2562C80.5159 39.4149 87.5336 44.9111 87.5336 44.9111C87.5336 44.9111 80.5159 50.4086 78.6887 53.5672C78.6887 53.5672 79.4196 55.1094 80.6377 54.9474C80.6377 54.9474 78.0236 57.0243 75.2669 58.0049C74.6652 57.5128 74.0232 57.0743 73.4093 56.8148C73.4093 56.8148 74.6275 58.3582 75.1147 59.3729C75.4095 59.9869 72.9501 60.4644 71.4054 60.9236C70.9608 60.63 70.5393 60.2901 70.1617 59.9016C67.4002 57.0584 62.284 56.0035 60.4166 56.1655C60.4166 56.1655 64.8019 57.7089 66.6693 60.3888C68.5367 63.0687 72.2727 64.6109 72.2727 64.6109C72.2727 64.6109 68.2809 70.5164 57.3054 75.4146C55.9399 75.8446 54.444 76.4305 52.8093 77.2077C52.8093 77.2077 57.6173 76.9116 58.6527 77.578C58.6527 77.578 53.5487 84.0122 36.8346 80.6099C36.8346 80.6099 38.4145 81.6137 40.8265 82.5309C39.9104 82.5698 38.9262 82.71 37.87 82.9767C28.4794 85.3435 22.2669 81.9425 18.7172 79.354C18.7342 79.399 19.174 80.5234 20.3227 81.8974C19.6637 82.5089 17.75 83.9268 13.4768 84.8003C13.4768 84.8003 14.2028 85.614 14.6888 86.4971C14.6888 86.4971 12.3001 86.2133 9.78213 87.1878C7.2642 88.1623 2.5561 85.9294 3.00074 81.3809C3.44655 76.8324 5.58809 76.8945 5.46624 72.8746C5.43578 71.8599 5.31276 71.0961 5.14709 70.5236C6.08868 71.3081 7.10345 71.8928 7.21429 71.9549C6.13502 71.2569 4.9656 69.4272 4.37843 68.4247C4.35283 66.8265 3.9813 64.8044 2.9605 62.2962C-0.328501 54.2163 4.6257 44.6612 4.6257 44.6612C4.6257 44.6612 -0.328501 35.6055 2.9605 27.5256C3.9813 25.0174 4.35283 22.9953 4.37843 21.3971C4.9656 20.3958 6.13496 18.5649 7.21429 17.8681C7.10345 17.9302 6.08874 18.5149 5.14586 19.2994C5.31276 18.7269 5.43578 17.9643 5.46624 16.9484C5.58804 12.9285 3.44655 12.9894 3.00074 8.44084C2.5561 3.89355 7.26426 1.66068 9.78213 2.6352C12.3 3.60972 14.6888 3.32465 14.6888 3.32465C14.2028 4.20901 13.4768 5.02155 13.4768 5.02155C17.75 5.89496 19.6637 7.31289 20.3227 7.92438C19.1741 9.29865 18.7343 10.4242 18.7172 10.4693Z" fill="#8A5D3B"/>
<path d="M21.2705 6.90865C23.5266 4.73793 27.5306 2.45023 34.2462 2.85222C46.5969 3.59165 47.1146 5.0193 51.0346 1.60605C51.0346 1.60605 49.7568 4.18123 46.8381 5.86834C44.5979 6.05352 42.51 6.65042 40.8266 7.29114C39.9105 7.25218 38.9263 7.11205 37.8701 6.8465C28.4795 4.47965 22.267 7.88071 18.7173 10.4692C18.7343 10.4242 19.1741 9.29859 20.3228 7.92453C20.5213 8.10848 20.6054 8.21932 20.6054 8.21932L21.4763 7.14245C21.4203 7.06336 21.3509 6.98539 21.2705 6.90865Z" fill="#8A5D3B"/>
<path d="M46.8381 5.86838C49.2756 5.66861 51.8934 5.95854 54.3625 7.21566C62.3487 11.283 66.4161 14.9801 69.4492 13.578C69.3908 13.6389 67.3467 15.7353 62.4206 15.4222C59.9612 14.4416 58.2241 13.9227 58.2241 13.9227L52.8094 12.6144C52.8094 12.6144 57.6174 12.9105 58.6528 12.2453C58.6528 12.2453 53.5488 5.81109 36.8347 9.21215C36.8347 9.21215 38.4146 8.2084 40.8266 7.29112C43.3189 7.39715 45.3057 6.7552 46.8381 5.86838Z" fill="#8A5D3B"/>
<path d="M21.2706 6.90864C21.3509 6.98538 21.4204 7.06335 21.4764 7.1425L20.6055 8.21936C20.6055 8.21936 20.5214 8.10853 20.3229 7.92458C20.5969 7.59564 20.9124 7.2534 21.2706 6.90864Z" fill="#8A5D3B"/>
<path d="M40.8265 7.29116C42.51 6.65045 44.5979 6.05355 46.838 5.86837C45.3056 6.7552 43.3189 7.39714 40.8265 7.29116Z" fill="#8A5D3B"/>
<path d="M52.8094 12.6144L58.2241 13.9227C58.2241 13.9227 59.9612 14.4416 62.4206 15.4222C60.971 15.3297 59.2717 15.0288 57.2996 14.4051C55.9157 13.7875 54.4211 13.1857 52.8094 12.6144Z" fill="#8A5D3B"/>
<path d="M57.2995 14.4052C55.9364 13.9752 54.4417 13.3904 52.8094 12.6145C54.4211 13.1858 55.9157 13.7875 57.2995 14.4052Z" fill="#8A5D3B"/>
<path d="M57.2994 14.4051C59.2716 15.0288 60.9709 15.3297 62.4205 15.4223C67.5001 17.4481 75.6593 21.4448 77.9579 26.9166C77.9579 26.9166 75.485 26.9959 73.0548 28.0227C71.8014 27.918 70.811 27.8912 70.811 27.8912C70.811 27.8912 70.1922 28.4698 70.811 28.7037C70.9828 28.7682 71.185 28.834 71.4043 28.8986C70.9597 29.1933 70.5394 29.5332 70.1618 29.9218C67.4003 32.7637 62.2841 33.8199 60.4167 33.6566C60.4167 33.6566 64.802 32.1144 66.6694 29.4345C68.5368 26.7546 72.2728 25.2113 72.2728 25.2113C72.2728 25.2113 68.2797 19.3045 57.2994 14.4051Z" fill="#8A5D3B"/>
<path d="M5.14598 19.2996C6.08881 18.5151 7.10351 17.9304 7.21441 17.8683C6.13514 18.565 4.96572 20.3959 4.37855 21.3972C4.38341 21.1645 4.38101 20.9392 4.37 20.7236C4.63069 20.4849 4.9267 20.0585 5.14598 19.2996Z" fill="#8A5D3B"/>
<path d="M3.22617 21.3912C3.47344 19.8003 3.482 17.9852 2.7998 16.4017C2.83876 16.437 3.85593 17.3689 4.23719 19.5141C4.00332 20.0513 3.73168 20.2571 3.73168 20.2571L3.76823 20.8162C3.64884 21.0233 3.5636 21.2316 3.52218 21.4363L3.22617 21.3912Z" fill="#8A5D3B"/>
<path d="M4.2372 19.5139C4.27006 19.6942 4.29812 19.883 4.32003 20.0816C4.10076 20.3216 3.91072 20.5677 3.76824 20.8162L3.73169 20.2571C3.73169 20.2571 4.00328 20.0511 4.2372 19.5139Z" fill="#8A5D3B"/>
<path d="M4.32007 20.0816C4.56858 19.8088 4.85364 19.5444 5.14596 19.2996C4.92669 20.0585 4.63067 20.4849 4.36998 20.7236C4.36026 20.5007 4.34321 20.2863 4.32007 20.0816Z" fill="#8A5D3B"/>
<path d="M4.32003 20.0816C4.34317 20.2862 4.36022 20.5006 4.37 20.7236C4.04962 21.0183 3.78283 21.0293 3.78283 21.0293L3.76819 20.8161C3.91072 20.5677 4.10076 20.3216 4.32003 20.0816Z" fill="#8A5D3B"/>
<path d="M3.76818 20.8161L3.78283 21.0293C3.78283 21.0293 4.04961 21.0184 4.37 20.7236C4.38095 20.9392 4.38341 21.1645 4.37855 21.3972C4.1386 21.8065 3.99606 22.0782 3.99606 22.0782C3.99606 22.0782 3.26519 23.222 3.50883 21.5166C3.51247 21.4898 3.51738 21.463 3.52225 21.4362C3.56355 21.2316 3.64879 21.0232 3.76818 20.8161Z" fill="#8A5D3B"/>
<path d="M3.22617 21.3911L3.52218 21.4362C3.51732 21.463 3.51246 21.4898 3.50877 21.5166C3.26513 23.222 3.996 22.0781 3.996 22.0781C3.996 22.0781 4.13853 21.8065 4.37849 21.3972C4.35289 22.9954 3.98136 25.0175 2.96056 27.5257C-0.328441 35.6056 4.62576 44.6613 4.62576 44.6613C4.62576 44.6613 3.96677 44.6101 3.91194 44.6722C3.1445 43.8573 -2.27742 36.8444 2.02628 25.495C2.02628 25.495 2.87291 23.6752 3.22617 21.3911Z" fill="#8A5D3B"/>
<path d="M70.811 27.8911C70.811 27.8911 71.8014 27.9179 73.0549 28.0227C72.4921 28.2602 71.9317 28.5489 71.4043 28.8986C71.185 28.834 70.9828 28.7682 70.811 28.7037C70.1922 28.4697 70.811 27.8911 70.811 27.8911Z" fill="#8A5D3B"/>
<path d="M73.0549 28.0227C74.8699 28.1725 77.2379 28.4843 77.9579 29.1092C77.9579 29.1092 77.3744 29.8292 76.5302 30.6697C76.2512 30.5259 76.0893 30.4492 76.0893 30.4492L74.7907 31.6588C74.9503 31.7076 75.1099 31.7612 75.2682 31.8184C74.6665 32.3093 74.0245 32.7479 73.4093 33.0073C73.4093 33.0073 74.6275 31.464 75.1147 30.4492C75.4095 29.8353 72.9489 29.359 71.4043 28.8985C71.9318 28.5489 72.4921 28.2602 73.0549 28.0227Z" fill="#8A5D3B"/>
<path d="M74.7908 31.6588L76.0893 30.4492C76.0893 30.4492 76.2513 30.5259 76.5303 30.6697C76.1526 31.0461 75.7214 31.4468 75.2683 31.8184C75.1099 31.7611 74.9504 31.7075 74.7908 31.6588Z" fill="#8A5D3B"/>
<path d="M75.2682 31.8185C75.7213 31.4469 76.1526 31.0462 76.5302 30.6698C77.9858 31.4189 82.6294 33.9868 84.1277 36.9858C84.0754 36.9663 82.7963 36.4669 81.3686 36.2184C81.0763 35.7823 80.9216 35.5253 80.9216 35.5253L78.6887 36.2561C78.6887 36.2561 79.4196 34.7128 80.6377 34.8748C80.6377 34.8748 78.0248 32.7978 75.2682 31.8185Z" fill="#8A5D3B"/>
<path d="M78.6888 36.2561L80.9217 35.5252C80.9217 35.5252 81.0764 35.7822 81.3688 36.2184C80.4393 36.0576 79.4477 36.0027 78.6888 36.2561Z" fill="#8A5D3B"/>
<path d="M78.6888 36.256C79.4477 36.0027 80.4393 36.0575 81.3688 36.2182C82.4992 37.909 85.6822 42.3016 89.8141 44.9109H87.5337C87.5337 44.9109 80.516 39.4147 78.6888 36.256Z" fill="#8A5D3B"/>
<path d="M3.91199 44.6723C3.96682 44.6101 4.62582 44.6613 4.62582 44.6613C4.62582 44.6613 3.96313 44.7271 3.91199 44.6723Z" fill="#8A5D3B"/>
<path d="M3.91198 44.6722C3.96313 44.727 4.62581 44.6612 4.62581 44.6612C4.62581 44.6612 -0.328393 54.2163 2.9606 62.2963C3.9814 64.8044 4.35293 66.8265 4.37853 68.4247C4.13858 68.0154 3.99605 67.7438 3.99605 67.7438C3.99605 67.7438 3.26517 66.6012 3.50882 68.3066C3.51245 68.3334 3.51737 68.3602 3.52223 68.387L3.22621 68.432C2.87296 66.1468 2.02633 64.3269 2.02633 64.3269C-2.26525 53.0092 3.11655 45.576 3.91198 44.6722Z" fill="#8A5D3B"/>
<path d="M87.5337 44.911H89.8141C85.6822 47.5215 82.4992 51.9141 81.3688 53.6049C80.4393 53.7657 79.4477 53.8193 78.6888 53.5671C80.516 50.4085 87.5337 44.911 87.5337 44.911Z" fill="#8A5D3B"/>
<path d="M78.6888 53.5671L80.9217 54.298C80.9217 54.298 81.0764 54.041 81.3688 53.6048C82.7964 53.3563 84.0754 52.8569 84.1279 52.8374C82.6296 55.8352 77.986 58.4031 76.5303 59.1522C76.1515 58.7758 75.7202 58.3751 75.2671 58.0047C78.0237 57.0241 80.6379 54.9472 80.6379 54.9472C79.4197 55.1093 78.6888 53.5671 78.6888 53.5671Z" fill="#8A5D3B"/>
<path d="M80.9216 54.298L78.6887 53.5671C79.4476 53.8192 80.4392 53.7656 81.3686 53.6049C81.0763 54.041 80.9216 54.298 80.9216 54.298Z" fill="#8A5D3B"/>
<path d="M60.4167 56.1655C62.2841 56.0035 67.4003 57.0584 70.1618 59.9015C70.5394 60.2901 70.9609 60.63 71.4055 60.9235C71.185 60.9893 70.984 61.0539 70.8111 61.1197C70.1923 61.3535 70.8111 61.931 70.8111 61.931C70.8111 61.931 71.8014 61.9042 73.0549 61.7994C75.4851 62.8263 77.9579 62.9055 77.9579 62.9055C75.6593 68.3786 67.4965 72.3765 62.4169 74.4011C60.9685 74.4936 59.2729 74.7933 57.3055 75.4146C68.281 70.5164 72.2728 64.6109 72.2728 64.6109C72.2728 64.6109 68.5368 63.0687 66.6694 60.3888C64.802 57.7088 60.4167 56.1655 60.4167 56.1655Z" fill="#8A5D3B"/>
<path d="M75.1148 59.3727C74.6275 58.358 73.4094 56.8146 73.4094 56.8146C74.0233 57.074 74.6653 57.5126 75.267 58.0047C75.1087 58.0619 74.9503 58.1143 74.7908 58.163L76.0893 59.3726C76.0893 59.3726 76.2513 59.2959 76.5303 59.1521C77.3744 59.9939 77.9579 60.7126 77.9579 60.7126C77.238 61.3375 74.8699 61.6493 73.0549 61.7992C72.4921 61.5629 71.9318 61.2742 71.4055 60.9233C72.9502 60.4642 75.4096 59.9866 75.1148 59.3727Z" fill="#8A5D3B"/>
<path d="M74.7908 58.1631C74.9504 58.1144 75.1087 58.062 75.267 58.0048C75.7202 58.3751 76.1514 58.7758 76.5303 59.1523C76.2513 59.2961 76.0893 59.3728 76.0893 59.3728L74.7908 58.1631Z" fill="#8A5D3B"/>
<path d="M70.811 61.1196C70.984 61.0538 71.185 60.9893 71.4055 60.9235C71.9317 61.2743 72.4921 61.563 73.0549 61.7993C71.8014 61.9041 70.811 61.9309 70.811 61.9309C70.811 61.9309 70.1922 61.3535 70.811 61.1196Z" fill="#8A5D3B"/>
<path d="M3.50871 68.3066C3.26507 66.6012 3.99594 67.7438 3.99594 67.7438C3.99594 67.7438 4.13847 68.0154 4.37843 68.4247C4.38329 68.6586 4.38089 68.884 4.36988 69.0996C4.04949 68.8036 3.78271 68.7939 3.78271 68.7939L3.76806 69.007C3.64867 68.8 3.56343 68.5916 3.52201 68.387C3.51726 68.3602 3.51234 68.3334 3.50871 68.3066Z" fill="#8A5D3B"/>
<path d="M3.22617 68.4321L3.52218 68.3871C3.5636 68.5917 3.6489 68.8 3.76823 69.0071L3.73168 69.565C3.73168 69.565 4.00455 69.7721 4.23719 70.3093C3.85593 72.4544 2.83876 73.3863 2.7998 73.4216C3.482 71.838 3.47344 70.023 3.22617 68.4321Z" fill="#8A5D3B"/>
<path d="M4.37 69.0996C4.38095 68.8841 4.38341 68.6587 4.37855 68.4248C4.96572 69.4273 6.13509 71.2569 7.21441 71.955C7.10357 71.8929 6.08886 71.3081 5.14721 70.5237C4.9267 69.7648 4.63069 69.3384 4.37 69.0996Z" fill="#8A5D3B"/>
<path d="M3.76819 69.0071L3.78283 68.7939C3.78283 68.7939 4.04962 68.8036 4.37 69.0996C4.36028 69.3238 4.34323 69.5369 4.31886 69.7416C4.10076 69.5016 3.91072 69.2556 3.76819 69.0071Z" fill="#8A5D3B"/>
<path d="M3.73169 69.565L3.76824 69.0071C3.91078 69.2556 4.10082 69.5017 4.31886 69.7417C4.29695 69.9402 4.27012 70.129 4.23725 70.3093C4.00457 69.772 3.73169 69.565 3.73169 69.565Z" fill="#8A5D3B"/>
<path d="M4.37005 69.0997C4.63074 69.3384 4.92676 69.7647 5.1472 70.5237C4.85488 70.2789 4.56858 70.0157 4.31885 69.7417C4.34327 69.537 4.36032 69.3238 4.37005 69.0997Z" fill="#8A5D3B"/>
<path d="M4.23723 70.3092C4.27009 70.129 4.29692 69.9402 4.31883 69.7416C4.56857 70.0157 4.8548 70.2788 5.14719 70.5236C5.31286 71.0961 5.43588 71.8599 5.46634 72.8746C5.58814 76.8945 3.44665 76.8323 3.00084 81.3809C2.55614 85.9295 7.2643 88.1623 9.78218 87.1879C12.3001 86.2134 14.6889 86.4972 14.6889 86.4972C14.2028 85.614 13.4768 84.8003 13.4768 84.8003C17.75 83.9269 19.6638 82.509 20.3228 81.8975C20.5969 82.2264 20.9111 82.5687 21.2704 82.9147C19.9074 84.2156 15.3454 85.1572 15.3454 85.1572C16.4417 86.1317 16.6854 87.9991 16.6854 87.9991C15.5074 86.8224 13.7204 87.5119 8.64562 88.2159C3.56968 88.92 0.484137 83.5736 3.20424 77.4013C4.96564 73.4046 4.66722 71.2972 4.23723 70.3092Z" fill="#8A5D3B"/>
<path d="M62.4169 74.401C67.3455 74.0867 69.3908 76.1844 69.4492 76.2453C66.4161 74.842 62.3487 78.539 54.3625 82.6064C51.8934 83.8635 49.2768 84.1534 46.8393 83.9537C45.3057 83.0668 43.3189 82.4261 40.8266 82.5309C38.4147 81.6136 36.8347 80.6099 36.8347 80.6099C53.5488 84.0122 58.6528 77.5779 58.6528 77.5779C57.6174 76.9116 52.8094 77.2076 52.8094 77.2076L58.2241 75.8994C58.2241 75.8994 59.9599 75.3816 62.4169 74.401Z" fill="#8A5D3B"/>
<path d="M57.3055 75.4144C59.2729 74.7932 60.9685 74.4935 62.4169 74.4009C59.9598 75.3816 58.224 75.8993 58.224 75.8993L52.8093 77.2075C54.4234 76.635 55.9205 76.0333 57.3055 75.4144Z" fill="#8A5D3B"/>
<path d="M52.8094 77.2076C54.4442 76.4305 55.9401 75.8445 57.3056 75.4145C55.9205 76.0334 54.4235 76.6351 52.8094 77.2076Z" fill="#8A5D3B"/>
<path d="M20.6054 81.6027L21.4763 82.6807C21.4202 82.7599 21.3508 82.8378 21.2704 82.9146C20.9111 82.5686 20.5968 82.2263 20.3228 81.8974C20.5213 81.7135 20.6054 81.6027 20.6054 81.6027Z" fill="#8A5D3B"/>
<path d="M21.4763 82.6807L20.6054 81.6026C20.6054 81.6026 20.5213 81.7135 20.3228 81.8974C19.1741 80.5234 18.7343 79.399 18.7173 79.3539C22.267 81.9425 28.4795 85.3435 37.8701 82.9767C38.9263 82.7099 39.9105 82.5698 40.8266 82.5309C42.51 83.1716 44.5991 83.7685 46.8393 83.9537C49.7579 85.6408 51.0346 88.2159 51.0346 88.2159C47.1146 84.8027 46.5969 86.2303 34.2462 86.9698C27.5306 87.3718 23.5265 85.0853 21.2705 82.9146C21.3509 82.8378 21.4203 82.7599 21.4763 82.6807Z" fill="#8A5D3B"/>
<path d="M40.8265 82.5308C43.3189 82.4261 45.3056 83.0668 46.8393 83.9536C44.5991 83.7684 42.51 83.1715 40.8265 82.5308Z" fill="#8A5D3B"/>
<path d="M18.2686 65.5232C18.2686 65.5232 21.9027 65.0968 23.1208 62.691C24.339 60.2852 26.4707 54.2858 24.8262 50.9055C23.1817 47.5252 22.9381 47.4643 22.9381 47.4643L19.4055 55.5953L18.0959 61.0466L18.2686 65.5232Z" fill="white"/>
<path d="M18.2686 24.2012C18.2686 24.2012 21.9027 24.6276 23.1208 27.0334C24.339 29.4392 26.4707 35.4386 24.8262 38.8189C23.1817 42.1992 22.9381 42.2601 22.9381 42.2601L19.4055 34.1291L18.0959 28.6779L18.2686 24.2012Z" fill="white"/>
<path d="M25.8617 38.6877L24.7043 44.177L24.3999 44.1855L24.5512 44.9031L24.3999 45.6208L24.7043 45.6293L25.8617 51.1186C25.8617 51.1186 32.7035 58.6882 38.3273 58.436C43.9511 58.1838 46.9964 55.8693 50.7117 52.5803C53.3128 50.2778 50.0331 46.7889 47.8318 44.9032C50.033 43.0175 53.3128 39.5286 50.7117 37.226C46.9963 33.937 43.951 31.6225 38.3273 31.3703C32.7035 31.1181 25.8617 38.6877 25.8617 38.6877Z" fill="#C3996B"/>
<path d="M38.3295 44.741H38.3273C38.3273 44.741 38.3273 44.7703 38.3281 44.8244C38.3273 44.8785 38.3273 44.9077 38.3273 44.9077H38.3295C38.3605 46.4585 38.8386 58.3108 46.2081 55.347C54.0889 52.1776 62.6837 50.7213 66.8668 52.5202C70.9867 54.2919 76.6158 51.3968 76.7852 44.9737H76.7892C76.7892 44.9235 76.7879 44.8742 76.7872 44.8244C76.7879 44.7747 76.7892 44.7253 76.7892 44.6752H76.7852C76.6157 38.252 70.9866 35.357 66.8668 37.1287C62.6837 38.9276 54.089 37.4713 46.2081 34.3019C38.8386 31.3379 38.3605 43.1903 38.3295 44.741Z" fill="#231F20"/>
<path d="M31.038 45.4654C31.2288 45.0737 31.2051 44.4936 31.0217 44.1044C30.9777 44.0109 30.9087 44.1007 30.9168 44.1686C30.9428 44.3882 30.9849 44.611 30.9872 44.8321C30.9892 45.0327 30.9521 45.2287 30.9441 45.4282C30.9416 45.4898 31.0059 45.5313 31.038 45.4654Z" fill="white"/>
<path d="M41.0348 50.3561C41.3504 49.7848 41.8839 49.7397 42.5356 49.7665C43.1885 49.7945 43.8074 50.0467 44.425 50.2562C45.6796 50.6826 46.9892 50.9433 48.3096 51.0322C48.5033 51.0456 48.7445 51.0907 48.7932 51.2795C48.809 51.3367 48.8005 51.3989 48.7835 51.4561C48.7019 51.7363 48.4315 51.9153 48.1744 52.0542C46.4142 53.0044 44.2934 53.2651 42.3554 52.7705C41.8766 52.6475 41.3833 52.4635 41.0678 52.0823C40.6706 51.6047 40.6572 50.8495 41.0348 50.3561Z" fill="white"/>
<path d="M41.0348 50.356C40.6572 50.8493 40.6706 51.6046 41.0677 52.0822C41.3832 52.4634 41.8766 52.6474 42.3553 52.7704C44.2934 53.2649 46.4141 53.0042 48.1743 52.0541C48.4313 51.9153 48.7018 51.7362 48.7834 51.456C48.8005 51.3987 48.809 51.3366 48.7932 51.2793C48.7444 51.0905 48.5032 51.0455 48.3096 51.0321C46.9891 50.9431 45.6796 50.6824 44.4249 50.2561C43.8073 50.0465 43.1885 49.7944 42.5355 49.7664C41.8839 49.7397 41.3503 49.7847 41.0348 50.356Z" stroke="white" stroke-width="0.121816" stroke-miterlimit="10"/>
<path d="M40.8989 49.3432C41.3524 49.5162 42.1586 49.4846 42.372 48.9504C42.4436 48.7711 42.4246 48.5428 42.2787 48.4053C42.0882 48.226 41.7826 48.3617 41.5727 48.4285C41.3489 48.4996 40.9191 48.5771 40.7861 48.7949C40.688 48.9558 40.75 49.178 40.9157 49.2667C41.1241 49.3783 41.4672 49.3422 41.6912 49.3078C41.9339 49.2705 42.1336 49.1715 42.2886 48.9795C42.3515 48.9017 42.3317 48.6941 42.2003 48.6994C41.8042 48.7155 41.4114 48.7674 41.0271 48.8648C40.8749 48.9034 40.9049 49.201 41.0629 49.2083C41.4391 49.2256 41.8563 49.1233 42.1204 48.8405C42.2193 48.7346 42.1145 48.4592 41.9584 48.5673C41.8475 48.6439 41.7171 48.729 41.5745 48.7144C41.4543 48.7021 41.4653 48.9205 41.5502 48.9599C41.7879 49.0705 42.0683 49.0521 42.2914 48.9159C42.3824 48.8603 42.3918 48.6837 42.3223 48.61C42.2376 48.5199 42.1561 48.4673 42.0364 48.5277C41.9612 48.5657 41.9314 48.691 41.9916 48.7568C42.0309 48.7997 42.0703 48.8396 42.1064 48.8854C42.1166 48.7835 42.127 48.6814 42.1373 48.5795C41.9487 48.6925 41.793 48.7315 41.5745 48.7144C41.5899 48.7921 41.6053 48.8696 41.6206 48.9473C41.739 48.8649 41.8908 48.8791 42.0258 48.8914C42.014 48.7775 42.0021 48.6636 41.9903 48.5496C41.6768 48.7182 41.4317 48.8587 41.0628 48.8586C41.0747 48.973 41.0866 49.0876 41.0986 49.202C41.4617 49.0923 41.821 49.0317 42.2003 49.0275C42.1709 48.9342 42.1415 48.8409 42.112 48.7475C41.9288 48.962 41.6401 48.9833 41.376 48.9737C41.3235 48.9718 41.2706 48.9685 41.2182 48.9635C41.1925 48.9611 41.1668 48.9587 41.1411 48.9563C41.0737 48.9133 41.0414 48.9194 41.0443 48.9746C40.9806 49.0152 41.1616 48.9541 41.1766 48.9476C41.2533 48.9139 41.3302 48.8808 41.408 48.8496C41.5324 48.7998 41.6584 48.7546 41.7852 48.7114C41.9541 48.6539 41.9585 48.5986 42.0277 48.7942C42.0886 48.9668 42.0908 48.9468 41.9589 49.0218C41.6509 49.1967 41.2775 49.2323 40.9363 49.1523C40.8362 49.1289 40.8149 49.3112 40.8989 49.3432Z" fill="white"/>
<path d="M41.1689 47.178C41.4113 46.9222 41.8169 46.8382 42.1409 46.9758C42.1909 46.9965 42.2383 47.0233 42.2761 47.0611C42.3529 47.1378 42.3772 47.256 42.3638 47.3644C42.331 47.6203 42.1044 47.82 41.8571 47.8943C41.6086 47.9686 41.343 47.9394 41.0884 47.8955C40.9143 47.7176 40.9971 47.3583 41.1689 47.178Z" fill="white"/>
<path d="M41.0885 47.8954C41.3431 47.9393 41.6086 47.9685 41.8571 47.8941C42.1044 47.8199 42.331 47.62 42.3639 47.3643C42.3773 47.2558 42.3529 47.1377 42.2762 47.0609C42.2384 47.0231 42.1909 46.9964 42.141 46.9756C41.8169 46.838 41.4113 46.922 41.1689 47.1779C40.9971 47.3582 40.9142 47.7175 41.0885 47.8954Z" stroke="white" stroke-width="0.121816" stroke-miterlimit="10"/>
<path d="M41.5754 45.1997C41.8276 45.1656 42.0931 45.319 42.1882 45.5541C42.2844 45.7905 42.2028 46.0865 41.9981 46.2375C41.7313 46.4373 41.5839 46.4397 41.2697 46.3313C41.0674 46.1608 41.1247 45.8404 41.2002 45.587C41.2307 45.4859 41.2623 45.3811 41.3367 45.308C41.4001 45.2447 41.4866 45.2106 41.5754 45.1997Z" fill="white"/>
<path d="M41.2698 46.3313C41.584 46.4397 41.7314 46.4373 41.9982 46.2375C42.2029 46.0865 42.2845 45.7905 42.1883 45.5541C42.0932 45.319 41.8277 45.1656 41.5755 45.1997C41.4866 45.2106 41.4002 45.2447 41.3368 45.3081C41.2625 45.3812 41.2308 45.4859 41.2003 45.5871C41.1248 45.8404 41.0676 46.1608 41.2698 46.3313Z" stroke="white" stroke-width="0.121816" stroke-miterlimit="10"/>
<path d="M41.0348 39.6284C41.3504 40.1997 41.8839 40.2448 42.5356 40.2179C43.1885 40.1899 43.8074 39.9377 44.425 39.7282C45.6796 39.3019 46.9892 39.0412 48.3096 38.9523C48.5033 38.9388 48.7445 38.8938 48.7932 38.705C48.809 38.6477 48.8005 38.5856 48.7835 38.5284C48.7019 38.2482 48.4315 38.0691 48.1744 37.9302C46.4142 36.9801 44.2934 36.7194 42.3554 37.2139C41.8766 37.337 41.3833 37.5209 41.0678 37.9022C40.6706 38.3798 40.6572 39.135 41.0348 39.6284Z" fill="white"/>
<path d="M41.0351 39.6283C40.6575 39.135 40.6709 38.3797 41.0679 37.9022C41.3835 37.521 41.8768 37.337 42.3555 37.214C44.2936 36.7194 46.4144 36.9801 48.1746 37.9303C48.4316 38.0691 48.7021 38.2482 48.7837 38.5284C48.8007 38.5856 48.8093 38.6478 48.7934 38.705C48.7447 38.8938 48.5035 38.9389 48.3098 38.9523C46.9893 39.0412 45.6799 39.3019 44.4251 39.7283C43.8076 39.9378 43.1887 40.19 42.5358 40.218C41.8841 40.2447 41.3505 40.1996 41.0351 39.6283Z" stroke="white" stroke-width="0.121816" stroke-miterlimit="10"/>
<path d="M40.9364 40.832C41.2607 40.7559 41.5993 40.7867 41.9014 40.9311C41.9379 40.9486 42.0639 40.998 42.0799 41.0427C42.0451 41.141 42.0104 41.2392 41.9757 41.3375C41.9286 41.3198 41.881 41.3035 41.8331 41.2884C41.6903 41.2399 41.5482 41.1907 41.4082 41.1347C41.3574 41.1143 41.0778 40.955 41.0391 40.9757C40.9328 41.0322 41.1762 41.0248 41.1798 41.0244C41.2318 41.0186 41.2842 41.0154 41.3364 41.0128C41.6118 40.9988 41.9198 41.0116 42.1121 41.2369C42.1416 41.1436 42.171 41.0502 42.2004 40.9568C41.8212 40.9527 41.4617 40.892 41.0987 40.7823C41.0868 40.8968 41.0749 41.0113 41.0629 41.1258C41.432 41.1256 41.6767 41.2661 41.9904 41.4347C42.0022 41.3208 42.0141 41.2068 42.0259 41.0929C41.8909 41.1052 41.7391 41.1195 41.6207 41.0371C41.6054 41.1147 41.5899 41.1924 41.5746 41.27C41.7945 41.2529 41.9453 41.2898 42.1374 41.4049C42.1271 41.3029 42.1167 41.2009 42.1065 41.099C42.0704 41.1447 42.031 41.1846 41.9917 41.2276C41.9315 41.2934 41.9613 41.4186 42.0365 41.4566C42.1561 41.517 42.2377 41.4645 42.3224 41.3744C42.3919 41.3006 42.3825 41.1241 42.2915 41.0685C42.0682 40.9322 41.7882 40.9138 41.5503 41.0244C41.4655 41.0639 41.4544 41.2823 41.5746 41.27C41.7172 41.2554 41.8477 41.3404 41.9584 41.4171C42.1138 41.5246 42.2199 41.2503 42.1205 41.1438C41.8564 40.8611 41.4392 40.7587 41.063 40.7761C40.9055 40.7833 40.8747 41.0808 41.0272 41.1195C41.4116 41.217 41.8042 41.2689 42.2004 41.2849C42.3317 41.2902 42.3519 41.0831 42.2887 41.0048C42.1337 40.8128 41.934 40.7141 41.6913 40.6766C41.4732 40.6428 41.1201 40.6062 40.9158 40.7176C40.7585 40.8035 40.6909 41.0105 40.7752 41.1709C40.8968 41.4028 41.3496 41.485 41.5728 41.5559C41.7792 41.6215 42.0738 41.7528 42.267 41.591C42.4245 41.4593 42.4442 41.2144 42.3721 41.034C42.1588 40.4999 41.3517 40.4684 40.899 40.6411C40.8151 40.673 40.836 40.8555 40.9364 40.832Z" fill="white"/>
<path d="M41.1689 42.8065C41.4113 43.0623 41.8169 43.1463 42.1409 43.0087C42.1909 42.9879 42.2383 42.9612 42.2761 42.9234C42.3529 42.8466 42.3772 42.7285 42.3638 42.62C42.331 42.3642 42.1044 42.1645 41.8571 42.0902C41.6086 42.0159 41.343 42.0451 41.0884 42.0889C40.9143 42.2669 40.9971 42.6262 41.1689 42.8065Z" fill="white"/>
<path d="M41.0885 42.0889C41.3431 42.045 41.6086 42.0158 41.8571 42.0901C42.1044 42.1644 42.331 42.3642 42.3639 42.62C42.3773 42.7285 42.3529 42.8466 42.2762 42.9234C42.2384 42.9611 42.1909 42.9879 42.141 43.0087C41.8169 43.1463 41.4113 43.0623 41.1689 42.8064C40.9971 42.6261 40.9142 42.2668 41.0885 42.0889Z" stroke="white" stroke-width="0.121816" stroke-miterlimit="10"/>
<path d="M41.5754 44.7847C41.8276 44.8188 42.0931 44.6653 42.1882 44.4302C42.2844 44.1939 42.2028 43.8979 41.9981 43.7469C41.7313 43.5471 41.5839 43.5446 41.2697 43.6531C41.0674 43.8236 41.1247 44.144 41.2002 44.3973C41.2307 44.4985 41.2623 44.6032 41.3367 44.6763C41.4001 44.7396 41.4866 44.7737 41.5754 44.7847Z" fill="white"/>
<path d="M41.2698 43.6531C41.584 43.5446 41.7314 43.5471 41.9982 43.7469C42.2029 43.8979 42.2845 44.1939 42.1883 44.4302C42.0932 44.6653 41.8277 44.8188 41.5755 44.7847C41.4866 44.7737 41.4002 44.7396 41.3368 44.6763C41.2625 44.6032 41.2308 44.4984 41.2003 44.3973C41.1248 44.144 41.0676 43.8236 41.2698 43.6531Z" stroke="white" stroke-width="0.121816" stroke-miterlimit="10"/>
<path d="M67.2188 38.2441C68.6574 38.2174 70.1009 38.4719 71.4433 38.9908C71.8453 39.1456 72.2984 39.4086 72.3179 39.8386C72.324 39.9995 72.2643 40.1566 72.1863 40.2979C71.9159 40.79 71.6443 41.1116 71.0875 41.1835C70.7184 41.2152 70.3567 41.0507 70.0643 40.8241C69.7719 40.5976 69.532 40.3101 69.2725 40.047C68.6598 39.4269 67.9191 38.9348 67.1103 38.6084C67.025 38.5743 66.9263 38.5255 66.9166 38.4342C66.9045 38.3001 67.0848 38.2465 67.2188 38.2441Z" fill="white"/>
<path d="M71.0876 41.1835C70.7184 41.2152 70.3567 41.0507 70.0643 40.8241C69.7719 40.5976 69.532 40.3101 69.2725 40.047C68.6598 39.4269 67.9191 38.9348 67.1103 38.6084C67.025 38.5743 66.9263 38.5255 66.9166 38.4342C66.9044 38.3002 67.0847 38.2466 67.2187 38.2441C68.6573 38.2174 70.1009 38.4719 71.4432 38.9908C71.8452 39.1456 72.2983 39.4086 72.3179 39.8386C72.3239 39.9995 72.2643 40.1566 72.1863 40.2979C71.9159 40.79 71.6442 41.1116 71.0876 41.1835Z" stroke="white" stroke-width="0.121816" stroke-miterlimit="10"/>
<path d="M71.6333 41.3369C71.894 41.2431 72.1827 41.3686 72.4117 41.5233C72.4835 41.5708 72.5554 41.6256 72.5931 41.7024C72.6297 41.7791 72.6297 41.8668 72.6187 41.9509C72.5773 42.2688 72.3763 42.5782 72.0742 42.6866C71.7721 42.795 71.3835 42.6501 71.2776 42.3479C71.2459 42.2578 71.2386 42.1616 71.2264 42.0666C71.2142 41.9655 71.1947 41.8631 71.2081 41.7621C71.2411 41.5246 71.3945 41.315 71.6333 41.3369Z" fill="white"/>
<path d="M71.6333 41.3369C71.3945 41.315 71.241 41.5245 71.2081 41.7621C71.1947 41.8632 71.2142 41.9655 71.2264 42.0666C71.2386 42.1616 71.2459 42.2579 71.2776 42.348C71.3835 42.6501 71.7721 42.795 72.0742 42.6866C72.3763 42.5782 72.5773 42.2688 72.6187 41.9509C72.6297 41.8668 72.6297 41.7791 72.5931 41.7024C72.5554 41.6256 72.4835 41.5708 72.4117 41.5233C72.1827 41.3686 71.894 41.2432 71.6333 41.3369Z" stroke="white" stroke-width="0.121816" stroke-miterlimit="10"/>
<path d="M72.2485 42.9632L72.2497 42.9669C72.3715 43.0095 72.4665 43.124 72.4836 43.2519C72.5006 43.3799 72.4409 43.5162 72.3337 43.5894C72.1851 43.6905 71.9878 43.6649 71.81 43.6344C71.7588 43.6259 71.704 43.6149 71.6687 43.5772C71.6382 43.5443 71.6285 43.498 71.6199 43.4541C71.5919 43.3116 71.5712 43.1435 71.6723 43.0376C71.8124 42.8938 72.0475 42.9864 72.2485 42.9632Z" fill="white"/>
<path d="M72.302 42.9546C72.285 42.9582 72.2667 42.9619 72.2484 42.9632C72.0474 42.9863 71.8124 42.8937 71.6723 43.0374C71.5712 43.1434 71.5919 43.3115 71.6199 43.454C71.6285 43.4979 71.6382 43.5442 71.6687 43.5771C71.704 43.6148 71.7588 43.6258 71.81 43.6343C71.9878 43.6647 72.1851 43.6903 72.3337 43.5892C72.4409 43.5161 72.5006 43.3797 72.4836 43.2518C72.4665 43.1239 72.3715 43.0094 72.2497 42.9667" stroke="white" stroke-width="0.121816" stroke-miterlimit="10"/>
<path d="M71.9147 44.0753C72.0377 44.0327 72.168 44.0157 72.2898 44.0547C72.4591 44.107 72.5882 44.3056 72.514 44.4652C72.453 44.5955 72.2923 44.6454 72.1485 44.6479C71.995 44.6515 71.8257 44.6052 71.7453 44.4749C71.6844 44.3762 71.7246 44.1947 71.8147 44.1143L71.8159 44.1131C71.8476 44.0984 71.8793 44.0863 71.9122 44.0753C71.9135 44.0753 71.9135 44.0742 71.9147 44.0753Z" fill="white"/>
<path d="M71.8148 44.1143C71.8026 44.1192 71.7904 44.124 71.7782 44.1301" stroke="white" stroke-width="0.121816" stroke-miterlimit="10"/>
<path d="M71.9123 44.0754C71.8794 44.0863 71.8477 44.0985 71.816 44.1132" stroke="white" stroke-width="0.121816" stroke-miterlimit="10"/>
<path d="M71.9147 44.0753C71.9134 44.0741 71.9134 44.0753 71.9122 44.0753C71.8769 44.0741 71.844 44.0887 71.816 44.1131L71.8147 44.1143C71.7246 44.1947 71.6844 44.3762 71.7453 44.4749C71.8257 44.6052 71.995 44.6515 72.1485 44.6479C72.2923 44.6454 72.453 44.5955 72.514 44.4652C72.5882 44.3056 72.4591 44.107 72.2898 44.0547C72.168 44.0157 72.0377 44.0327 71.9147 44.0753Z" stroke="white" stroke-width="0.121816" stroke-miterlimit="10"/>
<path d="M67.2188 51.4982C68.6574 51.525 70.1009 51.2704 71.4433 50.7515C71.8453 50.5968 72.2984 50.3337 72.3179 49.9037C72.324 49.7429 72.2643 49.5858 72.1863 49.4445C71.9159 48.9523 71.6443 48.6308 71.0875 48.5589C70.7184 48.5272 70.3567 48.6916 70.0643 48.9182C69.772 49.1448 69.532 49.4323 69.2725 49.6954C68.6598 50.3154 67.9191 50.8076 67.1103 51.134C67.025 51.1681 66.9263 51.2168 66.9166 51.3082C66.9045 51.4421 67.0848 51.4957 67.2188 51.4982Z" fill="white"/>
<path d="M71.0876 48.5588C70.7184 48.5271 70.3567 48.6916 70.0643 48.9182C69.772 49.1448 69.532 49.4322 69.2725 49.6953C68.6598 50.3154 67.9191 50.8075 67.1103 51.1339C67.025 51.168 66.9263 51.2168 66.9166 51.3082C66.9044 51.4421 67.0847 51.4957 67.2187 51.4982C68.6573 51.525 70.1009 51.2704 71.4432 50.7515C71.8452 50.5968 72.2983 50.3337 72.3179 49.9037C72.3239 49.7429 72.2643 49.5858 72.1863 49.4445C71.9159 48.9523 71.6442 48.6307 71.0876 48.5588Z" stroke="white" stroke-width="0.121816" stroke-miterlimit="10"/>
<path d="M71.6333 48.4054C71.894 48.4991 72.1827 48.3737 72.4117 48.219C72.4835 48.1715 72.5554 48.1167 72.5931 48.0399C72.6297 47.9632 72.6297 47.8755 72.6187 47.7914C72.5773 47.4735 72.3763 47.1641 72.0742 47.0557C71.7721 46.9473 71.3835 47.0922 71.2776 47.3943C71.2459 47.4845 71.2386 47.5807 71.2264 47.6757C71.2142 47.7768 71.1947 47.8792 71.2081 47.9802C71.2411 48.2178 71.3945 48.4273 71.6333 48.4054Z" fill="white"/>
<path d="M71.6333 48.4054C71.3945 48.4273 71.241 48.2178 71.2081 47.9802C71.1947 47.8791 71.2142 47.7768 71.2264 47.6757C71.2386 47.5807 71.2459 47.4844 71.2776 47.3943C71.3835 47.0922 71.7721 46.9473 72.0742 47.0557C72.3763 47.1641 72.5773 47.4735 72.6187 47.7914C72.6297 47.8755 72.6297 47.9632 72.5931 48.0399C72.5554 48.1167 72.4835 48.1715 72.4117 48.219C72.1827 48.3737 71.894 48.4991 71.6333 48.4054Z" stroke="white" stroke-width="0.121816" stroke-miterlimit="10"/>
<path d="M72.2485 46.7791L72.2497 46.7755C72.3715 46.7329 72.4665 46.6184 72.4836 46.4905C72.5006 46.3625 72.4409 46.2261 72.3337 46.153C72.1851 46.0519 71.9878 46.0775 71.81 46.108C71.7588 46.1165 71.704 46.1275 71.6687 46.1652C71.6382 46.1981 71.6285 46.2444 71.6199 46.2882C71.5919 46.4308 71.5712 46.5988 71.6723 46.7048C71.8124 46.8486 72.0475 46.756 72.2485 46.7791Z" fill="white"/>
<path d="M72.302 46.7877C72.285 46.7841 72.2667 46.7804 72.2484 46.7792C72.0474 46.756 71.8124 46.8486 71.6723 46.7049C71.5712 46.5989 71.5919 46.4308 71.6199 46.2883C71.6285 46.2444 71.6382 46.1981 71.6687 46.1653C71.704 46.1275 71.7588 46.1165 71.81 46.108C71.9878 46.0776 72.1851 46.052 72.3337 46.1531C72.4409 46.2262 72.5006 46.3626 72.4836 46.4905C72.4665 46.6185 72.3715 46.7329 72.2497 46.7756" stroke="white" stroke-width="0.121816" stroke-miterlimit="10"/>
<path d="M71.9149 45.6669C72.0379 45.7096 72.1683 45.7266 72.2901 45.6876C72.4594 45.6352 72.5885 45.4366 72.5142 45.2771C72.4533 45.1468 72.2925 45.0969 72.1488 45.0944C71.9953 45.0908 71.826 45.137 71.7455 45.2674C71.6846 45.366 71.7249 45.5476 71.815 45.628L71.8162 45.6292C71.8479 45.6438 71.8795 45.656 71.9124 45.667C71.9137 45.6669 71.9137 45.6681 71.9149 45.6669Z" fill="white"/>
<path d="M71.8148 45.6279C71.8026 45.6231 71.7904 45.6182 71.7782 45.6121" stroke="white" stroke-width="0.121816" stroke-miterlimit="10"/>
<path d="M71.9123 45.667C71.8794 45.656 71.8477 45.6439 71.816 45.6292" stroke="white" stroke-width="0.121816" stroke-miterlimit="10"/>
<path d="M71.9147 45.6669C71.9134 45.6682 71.9134 45.6669 71.9122 45.6669C71.8769 45.6682 71.844 45.6535 71.816 45.6291L71.8147 45.6279C71.7246 45.5475 71.6844 45.366 71.7453 45.2673C71.8257 45.137 71.995 45.0907 72.1485 45.0944C72.2923 45.0968 72.453 45.1467 72.514 45.2771C72.5882 45.4366 72.4591 45.6352 72.2898 45.6876C72.168 45.7266 72.0377 45.7096 71.9147 45.6669Z" stroke="white" stroke-width="0.121816" stroke-miterlimit="10"/>
<path d="M64.134 40.0676C64.1453 40.0905 64.1567 40.1134 64.1681 40.1364C64.2426 40.0385 64.3172 39.9406 64.3917 39.8427C60.0352 41.1841 55.1821 40.604 51.2117 38.3849C50.0874 37.7565 49.0426 36.9991 48.0992 36.1222C47.8124 35.8556 47.3807 36.2853 47.6686 36.5529C51.1215 39.7628 55.9115 41.4203 60.6095 41.1397C61.9466 41.0598 63.2733 40.8242 64.5535 40.43C64.6765 40.3921 64.784 40.2716 64.7771 40.1363C64.7667 39.9316 64.7076 39.7848 64.5646 39.6369C64.2918 39.3546 63.8614 39.7855 64.134 40.0676Z" fill="black"/>
<path d="M58.4595 41.5156C58.4595 43.2007 59.099 44.8606 61.1089 44.9113C61.4641 44.9202 61.987 44.926 62.6065 44.9294C61.987 44.9349 61.464 44.942 61.1089 44.9509C59.099 45.0015 58.4595 46.6614 58.4595 48.3465C58.4595 50.0317 64.0325 49.92 67.0778 49.92C70.1232 49.92 70.4877 44.9113 70.4877 44.9113C70.4877 44.9113 70.1232 39.9423 67.0778 39.9423C64.0325 39.9423 58.4595 39.8305 58.4595 41.5156Z" fill="#E61E25"/>
<path d="M19.3488 31.9298C19.7323 33.5831 20.2704 35.1408 21.0189 36.4396C21.1048 36.5886 21.1867 36.7333 21.2667 36.8758C21.5195 36.9389 21.7838 36.9729 22.0561 36.9729C23.8502 36.9729 25.3045 35.5185 25.3045 33.7245C25.3045 31.9305 23.8501 30.4762 22.0561 30.4762C20.9258 30.4762 19.9306 31.0538 19.3488 31.9298Z" fill="#FAAF40"/>
<path d="M19.3755 31.9356C19.4302 32.1468 19.4867 32.3573 19.5462 32.5664C19.6074 32.7794 19.6714 32.9916 19.7384 33.2027C19.7726 33.308 19.8049 33.4139 19.8411 33.5185C19.8766 33.6233 19.9113 33.7284 19.9492 33.8323C19.986 33.9366 20.0233 34.0407 20.0629 34.144C20.1011 34.2477 20.1412 34.3507 20.1824 34.4532C20.2223 34.5562 20.2654 34.6579 20.308 34.7597C20.3497 34.8619 20.3961 34.9622 20.4401 35.0633C20.4847 35.1642 20.5328 35.2634 20.5789 35.3635L20.7252 35.6598C20.7768 35.7571 20.8256 35.8558 20.8794 35.9518C20.9326 36.048 20.9848 36.1448 21.0413 36.239L21.3788 36.812L21.2978 36.7506C21.5749 36.8143 21.8593 36.8417 22.1426 36.827C22.4261 36.8162 22.7043 36.7622 22.9726 36.6763C23.2391 36.5861 23.4951 36.4652 23.7274 36.3079C23.7868 36.2706 23.8417 36.2267 23.8985 36.1858C23.9525 36.1413 24.0085 36.0991 24.0597 36.0513C24.1652 35.9594 24.2624 35.8583 24.3537 35.7526C24.5363 35.5411 24.6875 35.304 24.8062 35.0526C24.9209 34.7993 25.0046 34.5324 25.0463 34.2587C25.0918 33.9861 25.0935 33.7058 25.0627 33.4322C25.0292 33.1604 24.9608 32.8913 24.8566 32.6388C24.7536 32.3854 24.6168 32.1467 24.4525 31.9288C24.3695 31.8205 24.2814 31.716 24.1858 31.6186C24.137 31.5709 24.0888 31.5224 24.0372 31.4778L23.9606 31.4097L23.8809 31.3453C23.7733 31.2612 23.6613 31.1821 23.5426 31.1138C23.485 31.0768 23.4235 31.0464 23.3636 31.013C23.3016 30.984 23.241 30.9512 23.1771 30.9261C23.0516 30.8702 22.9206 30.8275 22.7883 30.7896C22.7216 30.7724 22.655 30.7545 22.5871 30.7422C22.5198 30.7263 22.4514 30.7169 22.3831 30.7054C22.2462 30.688 22.1065 30.6737 21.9687 30.6759L21.8577 30.6758L21.7563 30.6818L21.6547 30.6883L21.5507 30.7002C21.2727 30.7325 20.999 30.806 20.7358 30.911C20.4734 31.0181 20.2242 31.1622 19.9938 31.3353C19.7671 31.5075 19.5586 31.7088 19.3755 31.9356ZM19.3284 31.9163C19.473 31.6544 19.6575 31.4109 19.8757 31.1983C20.0929 30.9846 20.3433 30.8016 20.6159 30.6557C20.889 30.5105 21.1858 30.4072 21.4916 30.3431L21.6067 30.3199C21.6459 30.3135 21.6862 30.3093 21.726 30.304L21.8455 30.2897L21.9562 30.2825C22.1142 30.27 22.2706 30.2752 22.4282 30.285C22.7426 30.3087 23.0543 30.3803 23.3511 30.4924C23.6491 30.6021 23.9303 30.7585 24.1846 30.9499C24.4409 31.1395 24.6651 31.3706 24.8583 31.624C25.0466 31.8812 25.2037 32.1622 25.3126 32.4617C25.3424 32.5355 25.3638 32.6124 25.3889 32.6878C25.4084 32.7649 25.4317 32.841 25.4463 32.9191C25.4818 33.0743 25.5012 33.2312 25.5153 33.39C25.537 33.7056 25.5219 34.0221 25.4604 34.332C25.4019 34.6418 25.2966 34.9414 25.1571 35.2222C25.0156 35.5023 24.8384 35.7636 24.6279 35.9948C24.5227 36.1102 24.4111 36.2199 24.2908 36.3192C24.2322 36.3708 24.1688 36.4164 24.1072 36.4641C24.0429 36.5081 23.9805 36.5549 23.9135 36.5947C23.6505 36.7617 23.3639 36.8901 23.0665 36.9788C22.7685 37.0639 22.4585 37.1128 22.15 37.1143C21.8418 37.1201 21.5324 37.0799 21.2353 37.0011L21.1799 36.9864L21.1543 36.9396L20.9946 36.6473L20.8359 36.3533C20.782 36.2549 20.7325 36.1543 20.6821 36.0542C20.6311 35.9545 20.5853 35.8522 20.5367 35.7513L20.3997 35.445C20.3568 35.3417 20.3119 35.2393 20.2707 35.1355C20.2301 35.0314 20.1871 34.9283 20.1489 34.8234C20.1098 34.7189 20.0701 34.6145 20.0339 34.509C19.9962 34.4039 19.9598 34.2985 19.9253 34.1926C19.8894 34.087 19.8558 33.9807 19.8228 33.8743C19.7887 33.7682 19.7579 33.6612 19.7262 33.5544C19.6938 33.4479 19.6654 33.3402 19.6351 33.2331C19.6045 33.126 19.5785 33.0178 19.55 32.9102L19.4703 32.5862C19.4189 32.3695 19.3708 32.1525 19.325 31.9354L19.323 31.926L19.3284 31.9163Z" fill="#231F20"/>
<path d="M19.3488 57.896C19.7323 56.2427 20.2704 54.685 21.0189 53.3862C21.1048 53.2372 21.1867 53.0925 21.2667 52.95C21.5195 52.8869 21.7838 52.8529 22.0561 52.8529C23.8502 52.8529 25.3045 54.3073 25.3045 56.1012C25.3045 57.8952 23.8501 59.3496 22.0561 59.3496C20.9258 59.3497 19.9306 58.772 19.3488 57.896Z" fill="#FAAF40"/>
<path d="M19.3234 57.9014L19.3757 57.5599L19.4348 57.2301C19.4563 57.1206 19.478 57.011 19.5013 56.9018C19.5258 56.7929 19.5469 56.6829 19.5742 56.5746C19.6009 56.4661 19.6259 56.3569 19.6548 56.2488C19.6833 56.1406 19.7099 56.0317 19.7417 55.9243C19.7724 55.8165 19.8036 55.7089 19.8371 55.6018C19.8693 55.4944 19.9035 55.3875 19.9389 55.2808C19.9725 55.1736 20.0114 55.0682 20.0494 54.9623C20.0864 54.8561 20.1283 54.7516 20.1679 54.6462C20.2079 54.541 20.2518 54.4371 20.2937 54.3324C20.3374 54.2283 20.3836 54.1253 20.4301 54.0224C20.4788 53.9204 20.5247 53.8171 20.5759 53.7161C20.6266 53.6149 20.6761 53.5131 20.7303 53.4134C20.7839 53.3122 20.8349 53.2155 20.8894 53.1183L21.0502 52.8267L21.1 52.7363L21.2064 52.7081C21.514 52.6263 21.8357 52.5917 22.153 52.6015C22.4709 52.6102 22.79 52.6673 23.0923 52.7646C23.3947 52.8642 23.6826 53.0057 23.9444 53.1837C24.0111 53.2264 24.073 53.276 24.1367 53.3226C24.1976 53.373 24.2602 53.4213 24.3179 53.4753C24.4365 53.5794 24.5461 53.6934 24.6487 53.8128C24.854 54.0518 25.0241 54.3194 25.1575 54.6034C25.2887 54.8882 25.3847 55.1895 25.4338 55.4984C25.4863 55.8072 25.4912 56.1208 25.4596 56.4304C25.4407 56.5859 25.4168 56.7393 25.377 56.89C25.3602 56.9659 25.3349 57.0397 25.3136 57.1143C25.2868 57.1873 25.2638 57.2616 25.2325 57.3327C25.1168 57.6209 24.9586 57.8905 24.7707 58.1356C24.6749 58.2568 24.5728 58.3729 24.4628 58.4808C24.3513 58.5872 24.2363 58.6901 24.1117 58.7805C23.9879 58.8717 23.8594 58.9566 23.7241 59.0293C23.6576 59.0678 23.5875 59.0993 23.5189 59.1335C23.4482 59.1633 23.3791 59.1964 23.3066 59.2217C23.0206 59.3316 22.7195 59.3984 22.4162 59.4264C22.2642 59.4375 22.1123 59.4446 21.96 59.4343L21.8491 59.4287L21.7346 59.4161C21.6965 59.4115 21.6581 59.4079 21.6204 59.4024L21.5084 59.3823C21.2104 59.3274 20.9205 59.2314 20.6497 59.0987C20.1082 58.8313 19.6489 58.4121 19.3287 57.9093L19.3234 57.9014ZM19.3758 57.8914C19.7125 58.3688 20.1767 58.749 20.7026 58.986C20.9679 59.1036 21.2486 59.1844 21.5342 59.2259L21.6414 59.241C21.677 59.2447 21.7124 59.2466 21.7479 59.2496L21.8544 59.2574L21.9654 59.2588C22.1088 59.2632 22.2531 59.2507 22.3955 59.2349C22.6802 59.1975 22.9595 59.1241 23.2221 59.0113C23.2886 58.9854 23.3518 58.9518 23.4165 58.9218C23.4789 58.8874 23.5429 58.856 23.6032 58.8178C23.7264 58.7463 23.8427 58.6637 23.9543 58.5758C24.0666 58.4886 24.1694 58.3901 24.2687 58.289C24.3666 58.1863 24.4566 58.0768 24.5407 57.963C24.7052 57.733 24.841 57.4828 24.9372 57.2182C25.0359 56.9549 25.0949 56.6769 25.1189 56.3988C25.1399 56.1192 25.1278 55.8359 25.0734 55.5623C25.0223 55.2877 24.9293 55.0224 24.8064 54.7731C24.6794 54.5257 24.5212 54.2949 24.3334 54.0912C24.2396 53.9895 24.1403 53.8927 24.0331 53.8056C23.9809 53.7603 23.9242 53.7207 23.8695 53.6788C23.812 53.6407 23.7567 53.5996 23.697 53.5651C23.4635 53.4189 23.2088 53.311 22.9473 53.2317C22.6832 53.1581 22.4142 53.1122 22.1401 53.1087C21.8658 53.0979 21.5937 53.1309 21.3271 53.1917L21.4834 53.0731L21.1473 53.6456C21.091 53.7385 21.0391 53.8342 20.9859 53.9292C20.9323 54.0239 20.8837 54.1216 20.8322 54.2177L20.6852 54.5104C20.6381 54.609 20.5889 54.7067 20.5433 54.8063C20.4982 54.9061 20.4506 55.0048 20.4079 55.1058L20.2776 55.4082C20.2342 55.5092 20.1919 55.6106 20.1513 55.7129C20.1095 55.8147 20.0698 55.9174 20.0307 56.0204C19.9904 56.123 19.9516 56.2262 19.9128 56.3295C19.8731 56.4326 19.8374 56.537 19.7996 56.641L19.6891 56.9539L19.5821 57.2686L19.3758 57.8914Z" fill="#231F20"/>
<path d="M23.3061 33.7245C23.3061 33.1836 22.8676 32.7451 22.3267 32.7451C21.7858 32.7451 21.3473 33.1836 21.3473 33.7245C21.3473 34.2654 21.7858 34.7039 22.3267 34.7039C22.8676 34.7039 23.3061 34.2654 23.3061 33.7245Z" fill="#231F20"/>
<path d="M23.3061 56.1012C23.3061 55.5603 22.8676 55.1218 22.3267 55.1218C21.7858 55.1218 21.3473 55.5603 21.3473 56.1012C21.3473 56.6421 21.7858 57.0806 22.3267 57.0806C22.8676 57.0806 23.3061 56.6421 23.3061 56.1012Z" fill="#231F20"/>
<path d="M18.7156 79.3524C18.7156 79.3524 21.8957 87.7095 34.2465 86.97C46.5972 86.2304 47.1149 84.803 51.0346 88.2161C51.0346 88.2161 47.2628 80.6097 37.8703 82.9762C28.4778 85.3428 22.2655 81.9409 18.7156 79.3524Z" fill="#231F20"/>
<path d="M36.835 80.6098C36.835 80.6098 46.3754 86.6742 54.3627 82.6066C62.35 78.539 66.4176 74.8411 69.4499 76.2463C69.4499 76.2463 64.9385 71.4391 52.8096 77.2077C52.8096 77.2077 57.6168 76.9119 58.6522 77.5775C58.6522 77.5775 53.5491 84.0118 36.835 80.6098Z" fill="#231F20"/>
<path d="M58.2236 75.8993C58.2236 75.8993 74.5466 71.0268 77.9574 62.9058C77.9574 62.9058 72.9225 62.7434 70.1613 59.901C67.4002 57.0587 62.284 56.003 60.4162 56.1654C60.4162 56.1654 64.8015 57.7084 66.6693 60.3883C68.5371 63.0682 72.2728 64.6112 72.2728 64.6112C72.2728 64.6112 67.2107 72.1005 52.8096 77.2076L58.2236 75.8993Z" fill="#231F20"/>
<path d="M70.811 61.9313C70.811 61.9313 76.7393 61.7688 77.9575 60.7131C77.9575 60.7131 75.5212 57.7083 73.4097 56.815C73.4097 56.815 74.6279 58.358 75.1151 59.3732C75.4517 60.0743 72.1929 60.5967 70.811 61.1192C70.1922 61.3532 70.811 61.9313 70.811 61.9313Z" fill="#231F20"/>
<path d="M76.0896 59.3733C76.0896 59.3733 82.3427 56.4092 84.1293 52.8359C84.1293 52.8359 80.6373 54.2165 78.6883 53.5668C78.6883 53.5668 79.4192 55.1098 80.6373 54.9473C80.6373 54.9473 77.7138 57.2703 74.7903 58.1636L76.0896 59.3733Z" fill="#231F20"/>
<path d="M80.9216 54.2976C80.9216 54.2976 84.6166 48.1935 89.814 44.9112H87.5331C87.5331 44.9112 80.5156 50.408 78.6884 53.5667L80.9216 54.2976Z" fill="#231F20"/>
<path d="M44.4993 57.0588C44.4993 57.0588 34.8354 62.0871 24.6842 49.4218L22.9788 47.8009C22.6319 48.3969 32.4079 64.3547 44.4993 57.0588Z" fill="#231F20"/>
<path d="M22.9787 47.8009C22.9787 47.8009 26.9162 53.2013 24.6632 58.7641C22.4102 64.327 21.3139 64.936 18.2686 65.3827" stroke="#231F20" stroke-width="0.852698" stroke-miterlimit="10"/>
<path d="M32.257 59.3733C32.257 59.3733 35.1601 62.581 38.977 63.2307C38.977 63.2307 37.5149 61.6118 38.2461 59.8199C38.2461 59.8199 43.3623 63.8398 49.453 61.302C49.453 61.302 44.1254 65.1636 39.8703 61.9314C39.8703 61.9314 41.2508 64.5301 42.8751 65.3828C42.8751 65.3828 36.2836 64.0737 32.257 59.3733Z" fill="#231F20"/>
<path d="M53.1424 61.1193C53.1424 61.1193 60.2538 63.4743 62.6089 66.073C62.6089 66.073 52.8838 75.8055 42.2453 71.0548C42.2453 71.0548 43.9307 72.9189 44.4991 74.3685C44.4991 74.3685 33.4547 73.7067 28.0948 63.7992C28.0948 63.7992 36.189 72.0067 40.8549 71.9609C40.8549 71.9609 39.1393 69.6463 38.5708 68.2657C40.0672 69.025 54.6757 72.9828 59.2483 66.1542C59.2484 66.1542 57.8063 63.5555 53.1424 61.1193Z" fill="#231F20"/>
<path d="M3.73216 69.5649C3.73216 69.5649 5.92478 71.2298 3.20429 77.4016C0.483796 83.5735 3.56973 88.92 8.64533 88.2161C13.7209 87.5122 15.5076 86.8219 16.6851 87.9994C16.6851 87.9994 16.4414 86.1316 15.3451 85.1571C15.3451 85.1571 20.4613 84.1014 21.4764 82.6802L20.6052 81.6025C20.6052 81.6025 19.0401 83.6632 13.4773 84.8001C13.4773 84.8001 14.2026 85.6136 14.6891 86.4975C14.6891 86.4975 12.2998 86.2128 9.78223 87.1873C7.26469 88.1618 2.55591 85.9292 3.00123 81.3809C3.44654 76.8326 5.58785 76.8941 5.466 72.8742C5.34415 68.8544 3.78285 68.7934 3.78285 68.7934L3.73216 69.5649Z" fill="#231F20"/>
<path d="M3.99594 67.7438C3.99594 67.7438 5.70134 70.9865 7.22401 71.9608C7.22401 71.9608 3.7523 70.0116 3.50871 68.3062C3.26507 66.6008 3.99594 67.7438 3.99594 67.7438Z" fill="#231F20"/>
<path d="M9.53854 74.5188C9.53854 74.5188 11.8936 76.3866 13.7208 76.4678C13.7208 76.4678 12.4215 77.2393 11.6297 76.9145C11.6297 76.9145 11.853 78.2544 11.0816 78.9041C11.0816 78.9041 12.8682 78.3762 12.3403 79.8786C12.3403 79.8786 14.3949 80.1222 15.6618 78.9447C15.6618 78.9447 16.4413 81.7464 7.22412 82.924C7.22412 82.924 10.8786 81.381 11.0003 80.7719C11.1221 80.1628 9.6889 81.0155 8.84227 80.244C7.99563 79.4725 10.0258 78.8229 9.98525 77.4829C9.94467 76.1429 9.53854 74.5188 9.53854 74.5188Z" fill="#231F20"/>
<path d="M2.02672 25.4956C-2.27687 36.8449 3.14422 43.8576 3.91232 44.6727C3.11677 45.5765 -2.26474 53.0097 2.02672 64.3271C2.02672 64.3271 4.46299 69.565 2.79823 73.4225C2.79823 73.4225 6.24966 70.3771 2.96066 62.2968C-0.328335 54.2165 4.62548 44.661 4.62548 44.661C4.62548 44.661 -0.328279 35.6062 2.96066 27.5258C6.24966 19.4455 2.79823 16.4002 2.79823 16.4002C4.46305 20.2575 2.02672 25.4956 2.02672 25.4956Z" fill="#231F20"/>
<path d="M18.7156 10.47C18.7156 10.47 21.8957 2.11285 34.2465 2.85245C46.5972 3.59199 47.1149 5.01942 51.0346 1.60628C51.0346 1.60628 47.2628 9.21268 37.8703 6.8461C28.4779 4.47948 22.2655 7.8815 18.7156 10.47Z" fill="#231F20"/>
<path d="M36.835 9.21271C36.835 9.21271 46.3754 3.14827 54.3627 7.21588C62.35 11.2835 66.4176 14.9813 69.4499 13.5762C69.4499 13.5762 64.9385 18.3834 52.8096 12.6147C52.8096 12.6147 57.6168 12.9106 58.6522 12.2449C58.6522 12.2449 53.5491 5.8107 36.835 9.21271Z" fill="#231F20"/>
<path d="M58.2236 13.9232C58.2236 13.9232 74.5466 18.7958 77.9574 26.9167C77.9574 26.9167 72.9225 27.0791 70.1613 29.9215C67.4002 32.7638 62.284 33.8196 60.4162 33.6571C60.4162 33.6571 64.8015 32.1142 66.6693 29.4343C68.5371 26.7543 72.2728 25.2114 72.2728 25.2114C72.2728 25.2114 67.2107 17.722 52.8096 12.6149L58.2236 13.9232Z" fill="#231F20"/>
<path d="M70.811 27.8912C70.811 27.8912 76.7393 28.0536 77.9575 29.1094C77.9575 29.1094 75.5212 32.1141 73.4097 33.0074C73.4097 33.0074 74.6279 31.4645 75.1151 30.4494C75.4517 29.7482 72.1929 29.2258 70.811 28.7034C70.1922 28.4693 70.811 27.8912 70.811 27.8912Z" fill="#231F20"/>
<path d="M76.0896 30.4492C76.0896 30.4492 82.3427 33.4134 84.1293 36.9866C84.1293 36.9866 80.6373 35.606 78.6883 36.2557C78.6883 36.2557 79.4192 34.7127 80.6373 34.8752C80.6373 34.8752 77.7138 32.5522 74.7903 31.6589L76.0896 30.4492Z" fill="#231F20"/>
<path d="M80.9216 35.5248C80.9216 35.5248 84.6166 41.629 89.814 44.9113H87.5331C87.5331 44.9113 80.5156 39.4145 78.6884 36.2558L80.9216 35.5248Z" fill="#231F20"/>
<path d="M44.4993 32.7638C44.4993 32.7638 34.8354 27.7355 24.6842 40.4008L22.9788 42.0216C22.6319 41.4257 32.4079 25.4677 44.4993 32.7638Z" fill="#231F20"/>
<path d="M31.2621 39.9508C31.2621 39.9508 32.5615 41.4259 32.8457 44.9112C32.5615 48.3965 31.2621 49.8717 31.2621 49.8717C39.0988 56.4903 40.3169 44.9112 40.3169 44.9112C40.3169 44.9112 39.0988 33.3322 31.2621 39.9508Z" fill="#231F20"/>
<path d="M25.7399 38.3571C24.1525 39.7857 22.4813 41.629 22.4813 44.9112C22.4813 48.1935 24.1524 50.0368 25.7399 51.4655C27.3273 52.8942 29.6683 50.9478 30.0947 50.0037C30.5211 49.0597 30.9474 49.3338 30.9474 49.3338C32.2873 47.2629 32.2569 44.9113 32.2569 44.9113C32.2569 44.9113 32.2873 42.5597 30.9474 40.4888C30.9474 40.4888 30.521 40.7629 30.0947 39.8188C29.6684 38.8748 27.3273 36.9283 25.7399 38.3571Z" fill="#231F20"/>
<path d="M25.0394 48.413C25.7709 49.8366 26.5311 50.1261 26.5311 50.1261C26.5311 50.1261 24.1777 47.6799 25.8007 46.471C27.583 45.1436 29.0161 47.6093 28.9679 49.2727C28.9679 49.2727 29.6846 46.1013 27.3691 45.5573C25.1964 45.047 24.3185 47.0101 25.0394 48.413Z" fill="white"/>
<path d="M25.8007 43.3514C24.1776 42.1425 26.5311 39.6963 26.5311 39.6963C26.5311 39.6963 25.7709 39.9858 25.0394 41.4094C24.3185 42.8124 25.1964 44.7754 27.3691 44.265C29.6847 43.721 28.9679 40.5496 28.9679 40.5496C29.0161 42.2131 27.583 44.6789 25.8007 43.3514Z" fill="white"/>
<path d="M29.3782 50.0898C29.3952 50.074 29.4044 50.0646 29.4044 50.0646C29.3997 50.0709 29.3907 50.0796 29.3782 50.0898Z" fill="white"/>
<path d="M29.3783 39.7327C29.3908 39.743 29.3998 39.7516 29.4045 39.7579C29.4045 39.7579 29.3952 39.7485 29.3783 39.7327Z" fill="white"/>
<path d="M25.8921 39.3012C23.5776 40.093 23.1208 44.9113 23.1208 44.9113C23.1208 44.9113 23.5777 49.7297 25.8921 50.5215C28.0113 51.2465 29.1937 50.2614 29.3782 50.09C28.9662 50.4293 24.4444 52.7281 23.7299 44.9113C24.4445 37.094 28.9668 39.3937 29.3783 39.7328C29.1941 39.5615 28.0117 38.576 25.8921 39.3012Z" fill="white"/>
<path d="M7.83311 44.9112C4.90955 53.9255 5.51863 58.1957 5.51863 58.1957C5.64043 50.0341 12.2184 44.9112 12.2184 44.9112C12.2184 44.9112 5.64048 39.7884 5.51863 31.6268C5.51863 31.6268 4.90961 35.897 7.83311 44.9112Z" fill="#231F20"/>
<path d="M17.8828 26.2062C17.4536 32.4479 20.6422 37.8057 22.1463 41.3807C22.9678 43.3331 22.4697 44.1233 21.9053 44.4434C19.4639 42.3484 10.3309 33.3006 15.6617 19.0801C15.6617 19.0801 8.19854 30.3479 19.1009 43.8693C19.1009 43.8693 13.3229 43.5647 8.84216 34.4895C8.84216 34.4895 12.4221 43.2736 18.7155 44.9113C12.4221 46.5491 8.84216 55.3331 8.84216 55.3331C13.323 46.258 19.1009 45.9534 19.1009 45.9534C8.19854 59.4748 15.6617 70.7426 15.6617 70.7426C10.3308 56.5221 19.4639 47.4743 21.9053 45.3792C22.4697 45.6994 22.9677 46.4896 22.1463 48.442C20.6422 52.0169 17.4536 57.3747 17.8828 63.6165C18.3217 70 18.6187 71.984 18.7155 71.9607C18.7155 71.9607 17.4351 59.6554 21.0499 53.383C24.6647 47.1106 22.9697 46.6234 22.9697 46.6234V44.9113V43.1992C22.9697 43.1992 24.6646 42.712 21.0499 36.4396C17.4351 30.1672 18.7155 17.8618 18.7155 17.8618C18.6187 17.8387 18.3217 19.8226 17.8828 26.2062Z" fill="#231F20"/>
<path d="M22.9787 42.0216C22.9787 42.0216 26.9162 36.6212 24.6632 31.0584C22.4102 25.4955 21.3139 24.8864 18.2686 24.4398" stroke="#231F20" stroke-width="0.852698" stroke-miterlimit="10"/>
<path d="M32.257 30.4492C32.257 30.4492 35.1601 27.2414 38.977 26.5918C38.977 26.5918 37.5149 28.2107 38.2461 30.0026C38.2461 30.0026 43.3623 25.9827 49.453 28.5205C49.453 28.5205 44.1254 24.6589 39.8703 27.8911C39.8703 27.8911 41.2508 25.2924 42.8751 24.4397C42.8751 24.4397 36.2836 25.7488 32.257 30.4492Z" fill="#231F20"/>
<path d="M53.1424 28.7032C53.1424 28.7032 60.2538 26.3482 62.6089 23.7495C62.6089 23.7495 52.8838 14.017 42.2453 18.7677C42.2453 18.7677 43.9307 16.9037 44.4991 15.454C44.4991 15.454 33.4547 16.1158 28.0948 26.0233C28.0948 26.0233 36.189 17.8158 40.8549 17.8616C40.8549 17.8616 39.1393 20.1762 38.5708 21.5568C40.0672 20.7975 54.6757 16.8397 59.2483 23.6683C59.2484 23.6682 57.8063 26.2669 53.1424 28.7032Z" fill="#231F20"/>
<path d="M3.73216 20.2574C3.73216 20.2574 5.92478 18.5926 3.20429 12.4208C0.483796 6.24889 3.56973 0.902414 8.64533 1.60629C13.7209 2.31017 15.5076 3.00047 16.6851 1.82295C16.6851 1.82295 16.4414 3.69077 15.3451 4.66529C15.3451 4.66529 20.4613 5.72102 21.4764 7.14219L20.6052 8.21989C20.6052 8.21989 19.0401 6.15917 13.4773 5.02228C13.4773 5.02228 14.2026 4.20869 14.6891 3.32488C14.6891 3.32488 12.2998 3.60961 9.78223 2.63509C7.26474 1.66057 2.55591 3.89327 3.00123 8.44157C3.44654 12.9899 5.58785 12.9284 5.466 16.9483C5.34415 20.9681 3.78285 21.0291 3.78285 21.0291L3.73216 20.2574Z" fill="#231F20"/>
<path d="M3.99594 22.0787C3.99594 22.0787 5.70134 18.836 7.22401 17.8617C7.22401 17.8617 3.7523 19.8109 3.50871 21.5163C3.26507 23.2217 3.99594 22.0787 3.99594 22.0787Z" fill="#231F20"/>
<path d="M9.53854 15.3037C9.53854 15.3037 11.8936 13.4359 13.7208 13.3547C13.7208 13.3547 12.4215 12.5832 11.6297 12.908C11.6297 12.908 11.853 11.5681 11.0816 10.9184C11.0816 10.9184 12.8682 11.4463 12.3403 9.94388C12.3403 9.94388 14.3949 9.70023 15.6618 10.8778C15.6618 10.8778 16.4413 8.07605 7.22412 6.89847C7.22412 6.89847 10.8786 8.44144 11.0003 9.05052C11.1221 9.6596 9.6889 8.80687 8.84227 9.57839C7.99563 10.3499 10.0258 10.9996 9.98525 12.3395C9.94462 13.6795 9.53854 15.3037 9.53854 15.3037Z" fill="#231F20"/>
</g>
<defs>
<clipPath id="clip0_1491_43404">
<rect width="90" height="90" fill="white" transform="matrix(0 -1 1 0 0 90)"/>
</clipPath>
</defs>
</svg>
