<svg width="90" height="90" viewBox="0 0 90 90" fill="none" xmlns="http://www.w3.org/2000/svg">
<g clip-path="url(#clip0_394_1259)">
<mask id="mask0_394_1259" style="mask-type:luminance" maskUnits="userSpaceOnUse" x="0" y="0" width="90" height="90">
<path d="M0 0L0 90H90V0H0Z" fill="white"/>
</mask>
<g mask="url(#mask0_394_1259)">
<path d="M88.7104 48.0577C88.0011 48.7309 87.0693 49.6099 86.6398 50.0109C85.5293 51.0477 84.1244 52.4933 84.2297 52.4909C84.2787 52.4898 84.9216 52.2871 85.6583 52.0406C86.3951 51.794 86.9978 51.6174 86.9978 51.6481C86.9978 51.6788 86.7579 52.0549 86.4646 52.4838C85.0623 54.5346 83.0007 56.3839 80.9437 57.4363C80.5977 57.6133 80.3273 57.7693 80.3428 57.7829C80.3583 57.7966 80.9208 57.7208 81.5929 57.6144C82.265 57.5081 82.8783 57.4345 82.9559 57.4509C83.0446 57.4696 82.6442 57.9902 81.8749 58.856C79.0071 62.0838 77.375 63.3635 74.8455 64.3678C74.3689 64.557 74.0713 64.7141 74.184 64.7169C74.8173 64.7328 79.6254 63.9305 81.7809 63.4494C82.4012 63.3109 82.918 63.2076 82.9292 63.2199C82.9404 63.2322 82.1473 63.6046 81.1668 64.0474C80.1862 64.4903 79.3839 64.8601 79.3839 64.8692C79.3839 64.8783 79.7955 64.866 80.2985 64.842C81.3888 64.7898 81.4048 64.7267 79.9901 66.0564C77.5737 68.3276 75.0994 70.1397 72.1738 71.7806C71.3361 72.2505 70.7066 72.635 70.7751 72.635C70.8435 72.635 71.4232 72.516 72.0633 72.3705C74.1196 71.903 77.6305 71.1976 77.6725 71.2435C77.7546 71.3333 75.7374 73.5053 74.825 74.3095C72.7669 76.1235 70.3042 77.6132 67.8221 78.5454L66.5531 79.022L67.3991 78.9744C67.8644 78.9482 68.4249 78.8576 68.6446 78.7731C68.8643 78.6886 69.0441 78.6382 69.0441 78.6611C69.0441 78.747 66.8963 80.2396 66.0831 80.7188C64.919 81.4047 63.5274 82.1024 62.4642 82.5332C60.003 83.5303 56.0635 84.7357 53.1583 85.3806C52.357 85.5584 51.689 85.7173 51.674 85.7336C51.6438 85.7663 53.35 86.0501 54.2392 86.1603C54.5493 86.1987 55.5434 86.2581 56.4482 86.2922L58.0933 86.3542L55.1323 86.8527C53.5038 87.1269 52.1579 87.3652 52.1414 87.3822C52.1006 87.4244 52.9057 87.6091 53.5129 87.697C53.7855 87.7364 54.0269 87.8011 54.0493 87.8408C54.0717 87.8804 53.6725 87.9928 53.1622 88.0905C48.8778 88.9103 44.223 88.8179 40.0134 87.8297C39.5304 87.7163 39.1216 87.6385 39.1049 87.6568C39.0882 87.6752 39.7468 88.0342 40.5685 88.4546C41.3902 88.875 42.0499 89.2327 42.0345 89.2495C42.0192 89.2663 41.0578 88.9358 39.8981 88.515L37.7896 87.75L38.4928 88.4394C38.8796 88.8186 39.3872 89.3249 39.6208 89.5645L40.0455 90L39.2465 89.6847C36.9417 88.7752 34.2052 87.4143 32.2907 86.2253C31.7478 85.8882 31.2913 85.6233 31.2761 85.6366C31.2609 85.65 31.6945 86.3588 32.2396 87.2118C32.7847 88.0647 33.2306 88.7847 33.2306 88.8116C33.2306 89.0039 30.8582 87.6002 29.4037 86.5473C28.336 85.7745 26.551 84.2309 26.0457 83.6436C25.6845 83.2238 25.6111 83.2387 25.7275 83.708C25.8717 84.2898 26.353 85.2265 26.7836 85.7633L27.1677 86.2424L26.6037 85.8958C24.8637 84.8266 23.6462 83.8285 22.1485 82.2436C21.5075 81.5653 20.9675 81.0591 20.9483 81.1185C20.8005 81.5781 20.113 82.6256 19.6449 83.1046C19.1512 83.6097 17.7209 84.5745 17.7209 84.4023C17.7209 84.3683 17.8608 84.0999 18.0317 83.8058C18.5011 82.9987 18.523 82.9219 18.1495 83.3936C17.4263 84.307 16.1736 85.1629 14.9615 85.5717C14.1032 85.8612 14.0398 85.847 14.5086 85.4701C14.8682 85.1809 15.4649 84.378 15.4649 84.1832C15.4649 84.1399 15.3274 84.2456 15.1594 84.418C14.097 85.5085 12.2562 86.3658 10.577 86.5523L9.966 86.6202L10.53 86.3133C10.8402 86.1445 11.2632 85.8139 11.47 85.5787L11.846 85.151L11.1824 85.5128C10.364 85.959 9.71962 86.1681 8.74402 86.3037C8.01847 86.4046 6.5656 86.3396 6.67996 86.2113C6.71068 86.1769 7.01847 86.0494 7.36392 85.9281L7.99203 85.7076L7.32044 85.6969C6.05033 85.6768 4.76441 85.0302 3.91236 83.9832C3.48992 83.4642 3.46577 83.4875 3.67495 84.2123C3.77497 84.5589 3.04669 83.5896 2.70217 82.9176C2.51553 82.5535 2.24284 81.883 2.09621 81.4275C1.84208 80.6381 1.83228 80.6234 1.88689 81.1132C1.9184 81.3958 2.03959 81.9408 2.1562 82.3243C2.39776 83.1188 2.35966 83.1075 1.88442 82.2436C1.41986 81.3991 1.15926 80.4066 1.14327 79.4211C1.12645 78.3844 0.973177 78.6179 0.911993 79.7734C0.863117 80.6965 0.826703 80.6548 0.510857 79.3148C0.152935 77.7962 0.177045 75.5909 0.569969 73.908C1.25046 70.9935 3.20192 68.3671 6.00923 66.5875L6.7634 66.1094L6.27323 66.0783C5.64781 66.0387 5.64171 65.8436 6.23299 64.7895C6.41214 64.4701 6.44231 64.3149 6.39048 63.9796C6.3182 63.5119 6.16595 63.6272 6.15634 64.1568L6.15075 64.4651L5.97766 64.1055C5.88247 63.9076 5.74899 63.4683 5.68105 63.1292C5.59757 62.7125 5.54777 62.5959 5.52744 62.7695C5.5109 62.9108 5.47079 63.1883 5.4383 63.3861C5.38185 63.7299 5.37612 63.7344 5.30853 63.4889C5.26963 63.3476 5.23156 62.9082 5.22392 62.5126L5.21003 61.7932L4.92365 62.4001C4.71591 62.8404 4.61525 62.9681 4.55712 62.8653C4.38284 62.557 4.25631 61.2376 4.30163 60.2011C4.3484 59.1313 4.34752 59.1256 4.20569 59.5792C4.0681 60.0193 4.05901 60.0273 3.97183 59.7847C3.92194 59.6459 3.88042 59.1393 3.87956 58.6589C3.87811 57.8411 3.95596 57.4557 4.32579 56.4494C4.37904 56.3046 4.29643 56.35 4.04592 56.6036L3.6905 56.9632L3.7472 56.0384C3.85873 54.2193 4.3009 52.3647 5.00923 50.745C5.20677 50.2934 5.34715 49.9238 5.32119 49.9238C5.29523 49.9238 5.10884 50.0972 4.90698 50.3092C4.63855 50.591 4.55474 50.6393 4.59498 50.489C4.79697 49.7343 5.70231 45.9955 5.88305 45.1696L6.10261 44.1664L5.68434 43.2244C5.45429 42.7063 4.97779 41.7473 4.62546 41.0933L3.98484 39.9041L4.51416 40.4694L5.04348 41.0346L4.83293 40.4694C4.50464 39.5881 4.21559 38.2566 4.10143 37.0998C3.96914 35.7592 3.96185 32.5564 4.09109 32.5564C4.14279 32.5564 4.18767 32.6373 4.19083 32.7362C4.19399 32.8352 4.27795 33.1704 4.37741 33.4813C4.51119 33.8995 4.54598 33.9541 4.51113 33.6913C4.39825 32.8403 4.29811 29.8736 4.36007 29.2165L4.42791 28.4972L4.50276 28.9339C4.58225 29.3978 4.74908 29.5323 4.74908 29.1325C4.74908 28.7855 5.06349 27.5431 5.28698 27.0071L5.47978 26.5446L5.55659 27.0071C5.63112 27.4558 5.63528 27.4604 5.69711 27.1612C5.73215 26.9916 5.76607 26.6217 5.77249 26.3391C5.78412 25.8273 6.02337 23.9218 6.11619 23.6017C6.15165 23.4795 6.01656 23.3427 5.62152 23.101C3.31372 21.6889 1.43546 19.1893 0.580502 16.3924C-0.0104977 14.4589 -0.164871 12.0038 0.184984 10.1021C0.420181 8.8236 0.482874 8.7636 0.545674 9.7567C0.575561 10.2293 0.665855 10.824 0.746328 11.0784L0.892644 11.5408L0.846878 10.9574C0.753844 9.7715 1.10342 8.1512 1.68398 7.0773L1.88212 6.7108L1.90565 7.1219C1.91859 7.348 1.95582 7.7411 1.98839 7.9954L2.0476 8.4578L2.17226 7.8059C2.33812 6.9384 2.6101 6.35 3.11796 5.7599L3.5377 5.2721L3.47845 5.7689L3.4192 6.2657L4.04649 5.7401C4.39149 5.451 4.84219 5.1205 5.04803 5.0057C5.56824 4.7156 6.75314 4.3989 7.32557 4.397C7.87373 4.3952 7.75671 4.2059 7.19304 4.1826C6.91967 4.1713 6.95145 4.1522 7.38104 4.0696C8.05515 3.94 10.6983 4.0438 11.6545 4.2375C12.0662 4.3209 12.417 4.3738 12.434 4.3552C12.4926 4.2911 11.7819 3.8809 11.2504 3.6721L10.718 3.463L11.3503 3.5224C12.458 3.6264 13.69 4.1318 14.6426 4.8731C15.1689 5.2826 15.2996 5.3183 15.0012 4.9712C14.3819 4.2504 15.2927 4.6083 16.3563 5.5036C16.809 5.8848 16.8869 5.9241 16.7558 5.7053C16.6662 5.5558 16.5929 5.4033 16.5929 5.3663C16.5929 5.2816 17.1369 5.7244 17.8384 6.3801C18.3675 6.8747 18.5063 6.8646 18.2379 6.3512C18.0133 5.9217 18.0745 5.9067 18.6374 6.2532C19.3781 6.7092 20.1528 7.3738 20.6537 7.9829L21.073 8.4927L21.8644 7.8527C22.2997 7.5007 23.0532 6.7992 23.539 6.2938C24.1813 5.6255 24.4023 5.445 24.3494 5.6318C24.2294 6.0555 23.95 6.6106 23.6708 6.9797C23.4152 7.3176 23.4144 7.3224 23.6428 7.1475C25.3097 5.8714 28.8093 3.4251 29.7699 2.8645C30.6466 2.3529 32.7779 1.3156 32.9526 1.3156C33.2104 1.3156 32.1725 3.0995 31.41 3.9669L31.0217 4.4087L32.2907 3.7474C32.9886 3.3838 34.596 2.6828 35.8626 2.1898C37.1292 1.6968 38.4159 1.1829 38.7219 1.0478C39.0279 0.912698 39.2937 0.819097 39.3127 0.839897C39.3952 0.930097 38.9204 2.0824 38.6282 2.501C38.452 2.7534 38.3299 2.9599 38.3569 2.9599C38.3838 2.9599 38.6479 2.8267 38.9437 2.6639C40.36 1.8846 42.2081 1.1366 43.9207 0.649597C44.8516 0.384897 47.1352 -0.0624987 47.199 0.00730133C47.2971 0.114501 46.6124 0.953902 46.1963 1.2367C45.9412 1.41 45.7324 1.5614 45.7324 1.5731C45.7324 1.5848 46.0391 1.5361 46.4139 1.465C49.0611 0.962596 51.7396 1.0019 54.4963 1.5836C55.6127 1.8192 57.3093 2.33 57.6328 2.528C57.7297 2.5872 57.4087 2.7202 56.6179 2.9482C55.0578 3.3981 51.6291 4.8163 51.7588 4.9581C51.7794 4.9807 52.4729 5.0973 53.2998 5.2174C58.1947 5.928 63.0234 7.4413 67.7281 9.7392C69.6114 10.659 73.5573 12.9764 72.898 12.7754C72.3958 12.6223 70.5095 12.6107 69.9841 12.7575L69.4671 12.902L69.8901 13.0901C70.9077 13.5426 73.3048 14.9247 74.167 15.5562C75.8491 16.788 78.235 18.9849 77.739 18.8451C77.1542 18.6804 75.7978 18.4788 74.8632 18.4178C73.894 18.3545 71.5842 18.5112 71.3622 18.6553C71.3188 18.6834 71.6572 18.915 72.1142 19.1698C74.0739 20.2626 76.3709 21.8514 78.2617 23.422C79.6241 24.5537 81.5089 26.319 81.396 26.3574C81.3492 26.3734 80.0953 25.9534 78.6096 25.4241C77.124 24.8948 75.9269 24.4945 75.9495 24.5345C75.9721 24.5744 76.4349 24.9026 76.9779 25.2637C77.521 25.6249 77.9566 25.9298 77.946 25.9414C77.9354 25.953 77.5884 25.9199 77.1749 25.8678C76.2105 25.7464 74.6127 25.9229 73.7484 26.2462C73.6732 26.2743 74.1174 26.4823 74.7354 26.7085C76.7918 27.4611 78.8559 28.6971 80.5119 30.1674C81.2699 30.8404 82.5795 32.2481 82.4476 32.2481C82.4034 32.2481 81.9486 32.1753 81.4369 32.0864C80.9252 31.9974 80.4662 31.9396 80.4169 31.9579C80.3677 31.9762 80.6544 32.2556 81.0541 32.5788C81.8048 33.1857 83.5454 35.0228 83.3697 35.0228C83.3151 35.0228 82.8134 34.8825 82.2547 34.711C81.6961 34.5395 81.2233 34.4163 81.2041 34.4373C81.1849 34.4583 81.9707 35.1638 82.9503 36.0051C83.93 36.8464 84.7208 37.5464 84.7077 37.5607C84.6946 37.5751 84.3268 37.5239 83.8904 37.447C83.454 37.3702 83.0865 37.3172 83.0738 37.3292C83.0612 37.3413 83.3737 37.5748 83.7685 37.8482C84.1632 38.1216 84.7623 38.6266 85.0997 38.9706C85.725 39.6078 86.7418 40.8863 86.6785 40.9555C86.6593 40.9765 86.2548 40.8714 85.7798 40.722C85.3047 40.5726 84.899 40.4688 84.8783 40.4915C84.8575 40.5141 85.6179 41.2468 86.5679 42.1196C87.518 42.9924 88.2816 43.7221 88.2649 43.7412C88.2482 43.7603 88.0477 43.6563 87.8194 43.51C87.5911 43.3637 87.3755 43.244 87.3403 43.244C87.3051 43.244 87.5785 43.5558 87.948 43.9367C88.66 44.671 89.2161 45.4192 89.703 46.2977L90 46.8337L88.7104 48.0577Z" fill="black"/>
<path d="M1.56303 14.2294C1.54727 15.5729 1.88386 16.9176 2.56048 18.1879C2.90948 18.8431 3.54158 19.6862 3.94255 20.031C4.18681 20.2411 4.18012 20.2182 3.86306 19.7641C3.02989 18.5708 2.64181 17.2645 2.64181 15.6528C2.64181 14.4061 2.79338 13.6025 3.27171 12.313C3.54057 11.5882 4.2737 10.1129 4.33287 10.1776C4.34773 10.1938 4.25239 10.6 4.12119 11.0802C3.81887 12.1866 3.78277 13.8471 4.03839 14.8803C4.6141 17.2072 6.07181 18.844 8.05811 19.3936C8.92638 19.6338 10.0146 19.7643 10.0146 19.6282C10.0146 19.573 9.86659 19.3858 9.68564 19.2121C9.3018 18.8437 9.27788 18.7659 9.56815 18.8302C9.68447 18.8559 10.0334 18.9039 10.3436 18.9367L10.9076 18.9963L10.0616 18.5395C9.58266 18.2809 8.97405 17.8464 8.65882 17.5375C8.3526 17.2376 7.89788 16.65 7.64833 16.2321C7.24782 15.5613 7.1948 15.5069 7.19578 15.7681C7.19822 16.4122 7.64599 17.7322 8.01974 18.1969C8.28162 18.5225 8.08632 18.4799 7.56535 18.0975C6.42148 17.258 5.54604 15.9649 5.07494 14.4197C4.85867 13.7103 4.8295 13.4695 4.86179 12.6622C4.89376 11.8631 4.94364 11.6281 5.20419 11.0495C5.60955 10.1492 6.43644 9.2599 7.31585 8.7782L7.99367 8.4069L7.14768 8.4631L6.30169 8.5193L6.75829 8.3151C7.41241 8.0228 8.43087 7.7874 9.34857 7.7166C10.668 7.6148 9.91671 7.4448 8.13467 7.4418C6.69945 7.4395 6.52757 7.4598 5.8317 7.7144C3.6191 8.5239 2.18152 10.3228 1.69668 12.889C1.61266 13.3337 1.56828 13.7816 1.56303 14.2294ZM2.55919 75.8834C2.55764 76.5164 2.62723 77.1625 2.76794 77.7187C2.99394 78.612 3.60114 80.0341 3.95852 80.507C4.17369 80.7918 4.17131 80.7734 3.9095 80.1289C3.61489 79.4035 3.30181 78.1547 3.20103 77.3026C3.12229 76.6369 3.29011 75.6183 3.59428 74.9153C4.09651 73.7546 5.29154 72.4087 6.48969 71.6545L6.95968 71.3587L6.38321 72.0505C5.73324 72.8307 5.11706 74.0767 4.87372 75.1028C4.53471 76.5324 4.69773 78.2879 5.28827 79.5687C5.53142 80.096 6.43505 81.4142 6.50273 81.3402C6.52316 81.3178 6.39694 81.0398 6.2222 80.7226C5.65802 79.6983 5.45551 78.8228 5.45718 77.415C5.45892 75.9334 5.60503 75.417 6.36356 74.2114C6.82814 73.473 8.63791 71.3005 8.78843 71.3005C8.82476 71.3005 8.7316 71.5716 8.58134 71.903C8.43109 72.2344 8.28752 72.7084 8.26226 72.9563L8.21636 73.4072L8.52223 72.8078C9.20526 71.4702 10.4622 70.5062 11.66 70.4011C12.0018 70.3711 12.2474 70.313 12.2056 70.2722C12.1638 70.2314 11.8093 69.9648 11.418 69.6797C11.0267 69.3945 10.4658 68.9207 10.1716 68.6267C9.56031 68.0159 9.57288 68.0167 8.18387 68.4955C5.55807 69.4005 3.51607 71.5271 2.77675 74.1265C2.63343 74.6304 2.56075 75.2503 2.55919 75.8834ZM6.43333 53.6332C6.45622 53.6656 6.55526 53.4501 6.72799 52.9837C6.84809 52.6594 6.95866 52.4077 6.97382 52.4243C6.98898 52.4409 6.93447 53.0067 6.85265 53.6818C6.74385 54.5795 6.71675 55.3925 6.75186 56.7077C6.8093 58.8597 6.94279 59.4903 7.0445 58.09C7.12279 57.0122 7.3871 54.9425 7.68689 53.0596L7.89967 51.7236L7.95713 53.4192C8.03608 55.7474 8.03448 55.721 8.09024 55.66C8.11753 55.6302 8.17927 55.2284 8.22738 54.7672C8.36105 53.4859 8.58012 52.644 9.07263 51.5181C9.6991 50.086 9.87695 49.8781 9.54391 50.9675C9.24785 51.9359 8.94599 53.5271 9.00507 53.808C9.02727 53.9136 9.08787 53.8091 9.15598 53.5477C9.21858 53.3075 9.28144 53.1109 9.2957 53.1109C9.30996 53.1109 9.30604 53.6312 9.28688 54.267C9.26773 54.9029 9.28717 55.7006 9.33003 56.0398L9.40805 56.6563L9.57604 55.1721C9.85203 52.7338 10.5751 50.0548 11.431 48.299C11.6932 47.7612 11.7114 47.7437 11.6653 48.0754C11.627 48.3509 11.6996 48.2426 11.9758 47.613C12.3872 46.6747 13.0826 45.6233 13.5489 45.2345L13.8667 44.9696L13.2717 44.2671C11.806 42.5362 10.7495 40.3363 10.3135 38.1071C9.89553 35.9701 9.82855 33.6178 10.1277 31.5815L10.2485 30.7594L10.308 32.5064C10.4057 35.3718 10.817 37.5199 11.6066 39.2889C12.1731 40.5582 12.8237 41.5071 13.5493 42.1226C14.3583 42.8089 14.4289 42.8309 14.0022 42.2643C13.5107 41.6115 13.1041 40.9514 12.8346 40.368L12.6209 39.9055L13.4153 40.7373C14.2005 41.5596 15.2352 42.3922 16.0032 42.8197C16.2209 42.9409 16.4228 43.0399 16.4521 43.0399C16.4813 43.0399 16.2775 42.7463 15.9992 42.3876C14.5935 40.5761 13.7097 38.5654 13.3281 36.3103C13.1526 35.2736 13.1258 31.6262 13.2862 30.6053L13.3751 30.04L13.3878 30.708C13.4788 35.4977 14.7889 39.813 16.9015 42.282C17.4707 42.9472 18.4541 43.7949 19.0385 44.1241L19.3675 44.3096L18.5529 44.4401C17.0646 44.6784 15.6681 45.3151 14.5332 46.2728C11.3531 48.9565 10.1552 53.7638 11.2902 59.2877C11.4783 60.2029 11.6316 60.5536 11.5533 59.8895C11.4043 58.6249 11.8619 55.777 12.5144 53.9076C12.8883 52.8364 13.5997 51.1384 13.651 51.1945C13.6707 51.2161 13.6025 51.5752 13.4996 51.9926C13.0612 53.7692 12.9804 54.5883 12.9787 57.2729C12.9775 59.334 13.0104 60.025 13.1454 60.767C13.5133 62.7886 14.0464 64.4979 14.8765 66.3163C15.3522 67.3585 16.4946 69.4011 16.4987 69.2168C16.4997 69.173 16.3524 68.8157 16.1714 68.4226C15.188 66.2877 14.6174 63.9157 14.3309 60.77C14.1433 58.7113 14.3523 56.6551 14.9494 54.6839C15.198 53.863 16.1998 51.5148 16.269 51.5905C16.2902 51.6136 16.1627 51.9998 15.9857 52.4488C14.8067 55.4405 14.6592 59.4566 15.6208 62.3839C15.9397 63.355 16.3299 64.2033 16.8387 65.0318C17.5501 66.1901 17.6584 66.2835 17.3036 65.4326C17.1245 65.003 16.8619 64.24 16.7201 63.7369C16.4779 62.8775 16.4625 62.7076 16.4651 60.9211C16.4668 59.7939 16.5103 58.8944 16.572 58.7117C16.6626 58.443 16.6692 58.4772 16.6241 58.9764C16.5534 59.7597 16.7415 61.1941 17.0317 62.0843C17.2828 62.8547 17.5138 63.2768 17.3794 62.7195C17.3385 62.55 17.3065 61.9257 17.3083 61.3322C17.314 59.5097 17.7301 57.9979 18.6651 56.4045C18.9349 55.9446 19.1701 55.5843 19.1878 55.6036C19.2054 55.6229 19.119 55.9139 18.9955 56.2503C18.2475 58.2888 18.3266 61.3099 19.1733 63.0381C19.309 63.3151 19.3982 63.4492 19.3717 63.3361C19.0981 62.1684 19.0604 60.7492 19.2733 59.6366C19.4198 58.8711 20.0053 57.4755 20.3941 56.9646C20.5863 56.7122 20.5625 56.8052 20.2627 57.4789C19.6382 58.882 19.4663 59.7247 19.4663 61.3836C19.4663 62.5646 19.5038 62.9656 19.6761 63.6229C20.0769 65.1521 20.903 66.6235 21.8445 67.4853C22.0992 67.7184 22.3324 67.9092 22.363 67.9092C22.3935 67.9092 22.2247 67.5815 21.9877 67.181C20.5809 64.8035 19.9066 61.9027 20.2961 59.9031C20.5713 58.49 21.1003 57.488 22.3459 56.0203C23.4792 54.6849 24.584 53.1344 24.8446 52.5134C24.9706 52.213 25.0909 51.9863 25.1121 52.0094C25.1332 52.0326 25.0508 52.4286 24.9286 52.8895C24.8065 53.3505 24.7185 53.7275 24.7331 53.7275C24.7477 53.7275 24.974 53.3396 25.236 52.8655C25.9101 51.6454 25.8591 50.9545 25.0544 50.4063C24.7653 50.2093 24.5944 50.1824 23.6444 50.1845C22.6937 50.1867 22.4923 50.2195 21.9732 50.4565C21.1139 50.8487 20.4153 51.3348 19.7336 52.0152C18.8726 52.8745 18.9912 52.5487 19.908 51.5359C21.0489 50.2755 22.1968 49.6985 24.1431 49.4071C24.5665 49.3438 24.9271 49.2764 24.9443 49.2576C25.003 49.1934 24.7572 48.777 24.4181 48.3666C24.2318 48.1412 23.8651 47.8337 23.6033 47.6834C23.1993 47.4514 23.0138 47.411 22.3755 47.4159C20.7887 47.428 19.2729 48.155 17.4881 49.76L17.0186 50.1821L17.3192 49.7624C17.7618 49.1441 18.8213 48.0805 19.4442 47.6292C20.5435 46.8329 22.1962 46.1359 23.6364 45.8613C24.0724 45.7782 24.4448 45.693 24.464 45.6721C24.5107 45.621 23.7842 45.1609 23.3154 44.9447C22.8537 44.7317 21.697 44.4794 21.1687 44.4764C20.8101 44.4744 20.8539 44.4448 21.6941 44.1225C22.1984 43.9292 22.6582 43.7392 22.7158 43.7002C22.7735 43.6613 22.4232 43.4838 21.9376 43.306C19.3434 42.3563 17.6932 40.4689 16.5622 37.1586C16.1195 35.8628 15.738 33.6664 15.7575 32.5247C15.7662 32.0188 15.7758 32.0406 15.951 32.966C16.4651 35.6809 17.6692 37.8754 19.4606 39.3622C20.764 40.444 21.8948 40.7857 23.0046 40.433C23.6152 40.239 24.3957 39.535 24.683 38.9192C24.9974 38.2456 24.9674 38.2099 24.0871 38.2099C22.6761 38.2099 21.5091 37.7029 20.5786 36.6857C19.9048 35.949 19.7176 35.5604 20.3233 36.1556C21.2272 37.044 22.24 37.4871 23.372 37.4893C24.1188 37.4908 24.5351 37.2403 24.8117 36.6229C24.9704 36.2686 24.9791 36.1533 24.8848 35.6614C24.8244 35.3467 24.6635 34.9455 24.5165 34.7434C24.1179 34.1953 23.8214 33.6879 23.9015 33.6908C24.0059 33.6946 25.1721 34.9274 25.3572 35.2297L25.5145 35.4866L25.5183 35.2297C25.5245 34.8146 25.277 33.925 25.0248 33.4556C24.8962 33.2162 24.4664 32.6065 24.0698 32.101C23.2123 31.0077 22.9772 30.5858 22.6923 29.629C22.2454 28.1281 22.4803 26.6244 23.5216 24.3197C23.8545 23.5828 24.1436 22.9984 24.1642 23.0209C24.1847 23.0433 24.1452 23.2675 24.0764 23.5192C23.9128 24.1185 23.7939 25.3642 23.9004 25.3642C23.946 25.3642 24.0562 25.1445 24.1453 24.8761C24.3589 24.2322 25.077 22.7697 25.2018 22.7242C25.2559 22.7045 25.399 22.9551 25.5198 23.2812C25.8294 24.1172 25.9004 24.1562 25.9004 23.4903C25.9004 22.7162 25.9547 22.5874 26.8062 21.3463C29.1463 17.9358 32.3793 15.539 36.0923 14.4618L37.1332 14.1597L35.7232 14.2063C32.6801 14.3066 29.8738 15.2959 27.2634 17.1885C26.7464 17.5633 26.4327 17.7642 26.5665 17.6349C30.1515 14.1693 33.2147 12.4966 36.9794 11.9487C38.3401 11.7506 42.1979 11.7541 43.8541 11.9549C45.4967 12.1541 46.9467 12.4518 46.4861 12.4954C45.6044 12.5788 43.7601 13.0812 43.7601 13.238C43.7601 13.2782 44.1359 13.3422 44.5953 13.3801C47.4169 13.613 51.5292 14.7559 54.429 16.1133C56.8099 17.2278 60.298 19.3535 62.5068 21.0358C63.8527 22.0609 63.846 22.0567 63.6605 21.767C63.2132 21.0688 62.0514 19.6942 61.3011 18.9755C59.7367 17.4767 57.8919 16.2632 56.0253 15.5051C55.1549 15.1516 55.1747 15.1399 56.3051 15.3405C56.7682 15.4227 57.1614 15.4746 57.1788 15.4555C57.1962 15.4365 56.8725 15.2042 56.4595 14.9395C55.0087 14.0096 52.8768 13.2127 51.4529 13.068C51.0961 13.0318 50.7853 12.9692 50.7625 12.9288C50.7044 12.8261 51.9627 12.4454 52.643 12.3597C53.124 12.2992 53.1733 12.2747 52.9782 12.1943C52.4782 11.9883 50.513 11.451 49.447 11.2289L48.319 10.9939L49.9561 10.9854C50.8566 10.9808 51.5704 10.9519 51.5424 10.9212C51.4249 10.7928 49.165 10.0147 47.9901 9.6981C45.5871 9.0504 44.1303 8.8733 41.3162 8.8868C39.7349 8.8943 38.4905 8.9514 37.9087 9.0429C37.4046 9.1222 36.9922 9.1763 36.9922 9.1632C36.9922 9.0837 38.1753 8.1655 38.6862 7.8485L39.2952 7.4705L38.6842 7.5376C36.0165 7.8301 32.4748 8.802 29.8964 9.9489C29.3876 10.1753 28.9465 10.3596 28.9162 10.3586C28.886 10.3576 29.2209 10.0988 29.6603 9.7836C31.2793 8.6221 33.0648 7.794 34.9243 7.3421C36.8262 6.8798 40.9792 6.3452 42.5668 6.3582L43.2431 6.3636L42.7234 6.5454C42.1293 6.7533 41.21 7.2695 40.8067 7.6217L40.5322 7.8613L42.4517 7.9262C46.188 8.0522 48.9869 8.512 53.301 9.7087C56.4612 10.5853 60.8614 12.1589 64.1813 13.5995C64.502 13.7387 64.3377 13.5677 63.7113 13.1102C62.2719 12.0589 61.2448 11.4394 59.6499 10.6605C58.8854 10.2871 58.8656 10.2689 59.1329 10.1878C59.2858 10.1414 59.8233 10.1035 60.3274 10.1035C60.8314 10.1035 61.2439 10.0962 61.2439 10.0874C61.2439 10.04 59.827 9.3515 58.8469 8.9227C54.9705 7.2267 50.796 6.2328 46.8856 6.0746C46.0455 6.0406 45.3581 5.9784 45.3581 5.9365C45.3581 5.7718 46.9705 4.9996 47.7582 4.787L48.5915 4.562L48.0154 4.404C47.6985 4.3171 47.408 4.2112 47.3699 4.1688C47.3318 4.1264 48.0373 4.0902 48.9378 4.0885C50.801 4.0849 50.8581 3.9905 49.1603 3.72C47.6347 3.4769 44.8548 3.4789 43.3841 3.7242C42.1049 3.9376 40.5371 4.3654 39.4597 4.7954C39.0332 4.9656 38.6842 5.0864 38.6842 5.0636C38.6842 5.0407 38.9057 4.8589 39.1764 4.6595L39.6686 4.2972H39.306C38.6778 4.2972 36.9869 4.6039 35.8664 4.9211C34.4609 5.3189 33.1453 5.852 31.9444 6.5101C31.4119 6.8019 30.9763 7.0283 30.9763 7.0133C30.9763 6.9983 31.0609 6.7704 31.1643 6.5067C31.2677 6.243 31.3523 5.9872 31.3523 5.9383C31.3523 5.689 28.9398 6.9362 27.6601 7.8471L26.6994 8.5309L27.1694 7.991L27.6394 7.4509L27.2634 7.6885C26.1394 8.399 23.7719 10.3303 22.2416 11.7849C18.6296 15.2184 16.7303 17.7722 15.0089 21.5105C14.6965 22.1887 14.4391 22.7083 14.4368 22.665C14.4237 22.4232 15.3771 19.7772 15.8907 18.63C16.9312 16.3057 18.293 14.2249 20.0514 12.2728C20.9916 11.229 21.031 11.1693 20.6365 11.3865C18.6165 12.4983 16.3583 14.7303 14.9872 16.9699C14.6822 17.4682 14.4326 17.8485 14.4326 17.8151C14.4326 17.7289 15.0283 16.4466 15.5194 15.4758C15.7488 15.0225 15.9365 14.6308 15.9365 14.6055C15.9365 14.475 14.3923 15.9831 13.6609 16.828C12.015 18.7294 10.7417 20.8451 9.76037 23.3089C9.56644 23.7958 9.54217 23.8243 9.58522 23.5144C9.63253 23.174 9.62755 23.1657 9.49067 23.3603C9.21655 23.7499 8.43242 25.4184 7.99349 26.546C6.96062 29.1994 6.57098 31.5064 6.65915 34.4483C6.73764 37.0677 7.07323 38.9977 7.67367 40.2845C7.7742 40.4999 7.83785 40.6763 7.81503 40.6763C7.79222 40.6763 7.60091 40.4104 7.39002 40.0854C7.17914 39.7604 7.00668 39.5327 7.00668 39.5794C7.00668 39.9335 8.78294 43.5262 9.37225 44.364C9.46707 44.4988 9.54465 44.6657 9.54465 44.7347C9.54465 44.8038 9.32781 45.2715 9.0629 45.7742C8.11511 47.5727 7.37429 49.6806 6.59507 52.7954C6.46372 53.3205 6.41044 53.6007 6.43333 53.6332ZM7.26206 61.398C7.26496 61.4703 7.2803 61.59 7.30814 61.7575C7.52594 63.0676 7.9779 64.3159 8.64248 65.4428C8.99071 66.0333 9.09009 66.0752 8.82791 65.5209C8.62723 65.0966 8.22741 63.8068 8.2327 63.6007C8.23499 63.5116 8.32264 63.6166 8.42749 63.8339C8.72656 64.4537 8.72307 64.2178 8.42144 63.4323C8.27091 63.0402 8.05459 62.3133 7.94079 61.8167C7.827 61.3202 7.72261 60.9271 7.70874 60.9432C7.69486 60.9593 7.71731 61.3425 7.75867 61.7946C7.80004 62.2468 7.82254 62.6299 7.80879 62.6459C7.79504 62.6618 7.68702 62.3844 7.56866 62.0293C7.35646 61.3927 7.25336 61.1813 7.26206 61.398ZM12.1704 6.3231C12.1714 6.3437 12.2361 6.3839 12.3751 6.4443C12.4986 6.4979 12.9332 6.7026 13.3411 6.8989L14.0828 7.2558L13.8111 7.4119L13.5396 7.5681L13.8216 7.6387C15.1545 7.9732 16.6035 8.6747 17.4776 9.4088C18.4003 10.1837 18.3264 10.1613 18.2509 9.6451C18.2143 9.395 18.0756 8.9718 17.9426 8.7047C17.6992 8.2158 17.0642 7.4426 16.759 7.2638C16.5266 7.1276 16.5523 7.2242 16.8947 7.7728L17.1949 8.2537L16.6832 7.7842C16.0602 7.2126 15.461 6.7641 14.9162 6.4617C14.4688 6.2135 14.4743 6.2678 14.9641 6.935C15.137 7.1706 15.2786 7.3873 15.2786 7.4165C15.2786 7.4458 14.9296 7.2913 14.5031 7.0733C14.0766 6.8554 13.3906 6.5832 12.9789 6.4684C12.4745 6.3277 12.1681 6.2777 12.1704 6.3231ZM13.2576 81.7717L13.7667 81.7771L14.2758 81.7826L13.9077 82.138C13.6053 82.43 13.5732 82.494 13.7276 82.4967C13.9532 82.5006 14.853 82.056 14.9435 81.896C14.9787 81.8336 15.0495 81.7826 15.1007 81.7826C15.1518 81.7826 15.036 82.0911 14.8431 82.4682C14.6502 82.8453 14.553 83.1136 14.627 83.0645C14.701 83.0154 15.2269 82.5596 15.7956 82.0517C16.3642 81.5438 16.8877 81.0799 16.959 81.0208C17.0302 80.9618 16.9325 81.252 16.742 81.6657L16.3955 82.4178L16.6902 82.2287C17.1523 81.9321 17.957 80.953 18.2439 80.3382C18.5006 79.7882 18.7377 79.0807 18.7501 78.8282C18.7535 78.7577 18.3864 79.0055 17.934 79.3788C16.9708 80.1737 15.19 81.1557 14.0566 81.517L13.2576 81.7717ZM16.9408 71.3518L17.1607 71.7629C17.6839 72.741 18.9664 74.7375 19.8342 75.9249C20.7865 77.2279 23.2093 80.0136 24.0669 80.7914C24.6182 81.2915 24.6064 81.2656 23.5058 79.5731C23.1383 79.0079 22.8035 78.485 22.7619 78.411C22.7204 78.337 23.1169 78.6699 23.6431 79.151C24.6372 80.0598 26.0097 81.1003 26.9814 81.682C27.6809 82.1007 27.6473 82.0627 25.4774 79.9783C23.4475 78.0284 20.9995 75.5727 19.1362 73.6171C18.3845 72.8282 17.583 71.9958 17.3552 71.7673L16.9408 71.3518ZM21.2355 60.0862C21.2389 60.3149 21.2558 60.5484 21.2862 60.786C21.4073 61.7327 21.6874 62.8167 21.9649 63.4132C22.2259 63.9741 22.2496 63.8853 22.0198 63.2077C21.8577 62.7295 21.8185 62.3814 21.8153 61.3836C21.8118 60.2908 21.8427 60.046 22.0865 59.2327C22.2529 58.6776 22.5391 58.0248 22.8107 57.5808C23.274 56.8236 24.5118 55.4488 25.0342 55.1114C25.4855 54.82 25.3253 54.8131 24.6841 55.0962C22.4217 56.0953 21.2028 57.8747 21.2355 60.0862ZM23.4564 64.5609C23.4564 64.6098 23.5457 64.9786 23.6549 65.3804C24.1961 67.3722 25.3023 69.0838 26.8848 70.378C27.0964 70.551 26.9352 70.3178 26.0954 69.2347C25.3677 68.2962 24.5522 66.9052 23.9642 65.5996C23.6849 64.9793 23.4564 64.5119 23.4564 64.5609ZM25.7218 40.9727C25.722 41.3239 25.7668 41.667 25.8561 42.0947C26.0512 43.0284 26.3353 43.5419 26.8765 43.9391C27.2587 44.2196 27.2961 44.2733 27.1095 44.2747C26.7041 44.2778 26.149 44.7074 25.9162 45.1984C25.7189 45.6144 25.7018 45.7576 25.7438 46.6367C25.8066 47.9502 26.0386 49.0998 26.4264 50.0185C26.7733 50.8404 26.8808 50.9297 26.7434 50.2821C26.3871 48.6016 26.9745 46.4996 28.1428 45.2752L28.5597 44.8383L28.2573 45.3296C27.6032 46.3931 27.2214 47.7104 27.218 48.9142C27.2157 49.7428 27.4464 50.9507 27.729 51.5883C27.976 52.1458 28.5264 52.9445 28.3888 52.5457C27.8866 51.0904 27.9594 50.2058 28.7238 48.4676C29.1002 47.6119 29.1178 47.6405 28.859 48.6878C28.677 49.4243 28.6822 50.9164 28.8696 51.7087C29.0294 52.3844 29.4959 53.5506 29.8415 54.1386L30.053 54.4983L29.9928 53.9449C29.8941 53.0387 29.9272 51.3901 30.0813 49.5493C30.1782 48.3917 30.234 46.3721 30.2497 43.451C30.2725 39.1871 30.2783 39.0678 30.4891 38.4271C30.9166 37.1273 31.7981 35.9641 32.7109 35.4949C33.3552 35.1637 34.2861 35.0242 35.8525 35.0242C37.8115 35.0242 39.7283 35.5488 40.8799 36.4003C41.3919 36.7788 41.5749 37.0218 42.4994 38.5517C43.4305 40.0925 44.2987 41.254 44.7001 41.4958C44.8219 41.5692 44.8423 41.4038 44.8495 40.2807C44.8586 38.8778 44.9969 38.0546 45.4194 36.889C45.7199 36.06 46.3403 34.9957 46.8028 34.5158C46.9905 34.321 47.1441 34.1263 47.1441 34.083C47.1441 33.9936 46.7432 33.8671 45.5118 33.5682C44.9582 33.4338 44.1019 33.3355 43.1021 33.2916L41.5512 33.2236L42.4034 33.0963C43.5819 32.9202 45.8266 32.9366 47.0383 33.1302L48.0479 33.2916L49.2174 32.9699C49.8606 32.793 50.4505 32.6213 50.528 32.5885C50.7127 32.5104 49.8763 32.3136 48.1311 32.0245C46.8958 31.8199 46.3601 31.791 43.8071 31.7907L40.8932 31.7903L38.2142 32.2292C32.8838 33.1025 31.5236 33.451 30.226 34.2767C29.3666 34.8235 28.1582 36.1501 27.7908 36.9502C26.8561 38.9858 27.0831 41.3482 28.4092 43.3845C28.7602 43.9235 28.7061 43.9213 28.0787 43.3705C27.5503 42.9065 27.0813 42.1147 26.8819 41.3503C26.6021 40.2777 26.8432 38.1732 27.3755 37.0424C27.5753 36.6179 27.3887 36.7439 26.9399 37.3364C26.4216 38.0206 26.0238 38.9242 25.8543 39.8028C25.7656 40.2625 25.7215 40.6216 25.7218 40.9727ZM26.1134 23.9138C26.1199 24.0412 26.1377 24.1522 26.1683 24.2338C26.2555 24.4668 26.2655 24.4477 26.2769 24.0282C26.2938 23.4089 26.4484 22.9916 26.4578 23.5401C26.4641 23.9086 26.6524 24.1125 26.6524 23.7509C26.6524 23.5086 26.7749 23.6618 27.1209 24.3367L27.4104 24.9018L27.3546 24.4907C27.3017 24.1018 27.3066 24.0906 27.4482 24.2834C27.6433 24.5488 27.8744 25.4067 27.8744 25.8658C27.8744 26.306 28.049 26.1782 28.1444 25.6683L28.2065 25.3369L28.8254 25.9928C29.1658 26.3536 29.5772 26.9031 29.7395 27.214C30.0765 27.8595 30.1201 27.7709 29.8526 26.984L29.6688 26.4432L29.9502 26.8029C30.5853 27.6144 30.9284 28.9421 30.7931 30.0649C30.7295 30.5928 30.7319 30.6 30.9104 30.4246C31.4331 29.9111 32.1754 28.5428 32.5409 27.4195L32.7583 26.7515L32.7588 27.4195C32.7598 28.5147 32.3985 29.8681 31.8436 30.8477C31.4708 31.5059 31.7732 31.1716 32.4608 30.1655C34.0554 27.8323 35.0729 25.4227 35.3036 23.4335C35.4525 22.1488 35.1768 20.1465 34.6815 18.9157C34.5621 18.6189 34.497 18.3761 34.5369 18.3761C34.6416 18.3761 34.9701 18.7887 35.1506 19.1469L35.3061 19.4552L35.2455 18.9927C35.2123 18.7384 35.1271 18.3684 35.0563 18.1706C34.9325 17.825 34.9462 17.8331 35.4036 18.3761C36.4131 19.5747 37.0389 21.1552 37.1659 22.8262L37.2377 23.7713L37.3537 23.3342C37.5111 22.7406 38.0836 21.2912 38.2696 21.0153C38.4105 20.8065 38.4173 20.8826 38.3692 22.1271C38.3193 23.4148 38.1572 24.3582 37.7976 25.4541C37.7165 25.7014 37.6502 25.9285 37.6502 25.9585C37.6502 25.9885 37.859 25.6936 38.1143 25.3032C38.3697 24.9128 38.7314 24.4085 38.9181 24.1824C39.2151 23.8226 39.25 23.8034 39.1986 24.0282C39.0623 24.625 38.3778 26.0189 37.6089 27.2654C36.5257 29.0213 36.359 29.4004 37.0442 28.5499C37.7636 27.6569 40.0081 25.236 40.062 25.295C40.0856 25.3207 39.4076 26.4975 38.5553 27.9101C36.9203 30.6198 36.6197 30.9954 35.4655 31.7716C35.1419 31.9892 34.9619 32.1409 35.0653 32.1086C35.4954 31.9742 38.176 31.5228 39.5302 31.3567C41.6371 31.0983 47.0841 31.0964 48.742 31.3533C53.0843 32.0262 55.9292 32.6858 62.4188 34.524C65.5518 35.4114 66.7266 35.8388 67.803 36.4826C70.2336 37.9363 72.509 40.6694 73.4543 43.2711C73.7659 44.1285 74.0277 45.2459 74.0277 45.7182C74.0277 45.8843 74.0753 46.0201 74.1338 46.0201C74.3285 46.0201 74.1771 43.4122 73.9338 42.5774C73.6722 41.6795 73.3855 41.055 72.9463 40.426C72.7584 40.1569 72.6283 39.911 72.6572 39.8794C72.686 39.8479 72.9215 39.9661 73.1806 40.1422C73.4396 40.3182 73.6517 40.4277 73.6517 40.3854C73.6517 40.3432 73.3804 39.9407 73.0489 39.4907C72.5262 38.7809 72.0832 38.3283 71.3577 37.7635C71.1943 37.6364 71.2046 37.6284 71.4752 37.6718C71.6383 37.698 71.7717 37.6951 71.7717 37.6654C71.7717 37.5857 70.4578 36.7728 69.3362 36.1584C68.798 35.8636 67.5501 35.2623 66.5632 34.8223C64.802 34.0369 61.9161 32.7067 56.3089 30.0958C52.1228 28.1467 50.6886 27.6776 48.554 27.56C46.9227 27.4701 44.3586 27.8059 42.2317 28.388C41.7789 28.5119 41.4412 28.5776 41.4812 28.5339C41.6458 28.354 44.0432 27.3852 45.1528 27.0502C47.1091 26.4597 48.8124 26.1831 50.9866 26.1028L52.9022 26.0322L52.1431 25.4349C50.5306 24.1665 48.6466 23.2902 46.6741 22.8912L45.6871 22.6915L46.7767 22.7429C49.3813 22.8654 52.1555 23.7555 55.1339 25.424L56.3089 26.0822L55.7919 25.5637C55.1189 24.8887 53.4245 23.6472 52.3582 23.0478C51.621 22.6333 51.5702 22.5443 52.1877 22.7489C52.283 22.7805 52.1163 22.6635 51.8172 22.489C50.6186 21.7895 48.0438 20.7389 45.8751 20.0645C45.1597 19.8421 44.9018 19.7306 45.1701 19.7599C46.5643 19.9117 46.6324 19.9142 46.3921 19.8044C46.2628 19.7453 45.7552 19.5977 45.2641 19.4764C44.4995 19.2876 44.0713 19.2556 42.2855 19.2529C41.1384 19.2511 40.276 19.2187 40.3692 19.181C40.8181 18.9992 43.0034 18.6726 44.1361 18.618C46.2194 18.5176 48.5972 18.8736 50.5251 19.5742C53.4648 20.6426 57.3167 23.3249 60.1577 26.2823L60.9046 27.0598L60.329 26.3405C59.6562 25.4997 57.7795 23.6145 56.6409 22.6359C53.1482 19.6339 48.8785 17.2535 45.6987 16.5358C44.9705 16.3714 44.8754 16.3277 45.0684 16.2458C45.2592 16.1648 45.1386 16.1139 44.3164 15.9288C42.0728 15.4238 41.295 15.3443 38.6842 15.3522C35.9 15.3606 35.2844 15.4522 34.2525 16.0119L33.6577 16.3345L33.8888 16.0655L34.1199 15.7966L33.7465 15.9858C32.0419 16.8497 30.5341 17.9314 29.0605 19.3474C28.3069 20.0716 26.5441 22.2256 26.3238 22.6915C26.1761 23.0037 26.0938 23.5318 26.1134 23.9138ZM26.153 59.4266C26.1523 59.4842 26.3258 59.4804 26.6168 59.3754C27.0722 59.2111 27.6752 58.6033 27.8869 58.0951C28.0889 57.61 28.1057 56.883 27.9247 56.4508C27.8 56.1532 27.7952 56.1674 27.7859 56.8619C27.7704 58.006 27.2964 58.828 26.4174 59.2349C26.2357 59.319 26.1535 59.3872 26.153 59.4266ZM26.8172 28.6892C26.8137 28.7347 26.8938 28.8576 27.059 29.0575C27.9182 30.0972 28.051 31.1195 27.4521 32.0843C27.2742 32.3709 27.2574 32.438 27.3818 32.3647C28.1512 31.9113 28.4632 30.671 28.0335 29.7737C27.9004 29.4957 27.6422 29.1917 27.3649 28.9867C27.0063 28.7216 26.8224 28.6227 26.8172 28.6892ZM27.6976 77.4481C27.7489 77.6716 28.684 78.9279 29.302 79.5898C30.7608 81.1521 32.7298 82.3489 34.6658 82.8499C35.018 82.9411 34.992 82.886 34.5248 82.5513C33.9674 82.152 33.0805 81.3046 32.8504 80.9514L32.6576 80.6555L33.2677 80.9548C34.1474 81.3863 35.7725 81.943 36.8551 82.1836C37.839 82.4023 39.4389 82.603 39.4321 82.5069C39.43 82.4759 39.1575 82.2193 38.8265 81.9367C38.1996 81.4014 38.0688 81.2043 38.4215 81.3267C38.5355 81.3663 39.5189 81.3984 40.6069 81.398C43.2403 81.397 44.8782 81.1898 47.2972 80.5518C48.296 80.2883 50.5623 79.5142 50.8737 79.3302C50.9347 79.2942 50.4059 79.2643 49.6987 79.2636C48.4034 79.2623 47.3925 79.0589 46.6948 78.6592C46.4652 78.5277 46.4858 78.5147 47.1946 78.3423C50.0976 77.6362 52.9426 76.1772 55.2995 74.1857C56.1163 73.4956 57.2959 72.3561 57.2959 72.2573C57.2959 72.2305 57.1584 72.3008 56.9904 72.4136C53.2927 74.8957 48.9379 76.842 44.8411 77.8435C44.2207 77.9952 43.6796 78.15 43.6388 78.1876C43.453 78.3581 45.2241 79.3059 45.7596 79.3226C45.9684 79.3291 45.9685 79.3294 45.7699 79.4171C45.3449 79.6048 43.0573 79.843 41.1282 79.9005C36.7063 80.0321 32.7381 79.3618 28.8825 77.8323C28.252 77.5822 27.7196 77.3957 27.6994 77.4178C27.6946 77.4231 27.6941 77.4332 27.6976 77.4481ZM28.8568 72.7765C28.8772 72.8215 29.2599 73.0282 29.9333 73.3391C31.6869 74.1488 33.3651 74.6596 35.2173 74.9474C36.5215 75.1501 39.2297 75.1476 40.5743 74.9426C43.5308 74.4918 46.5463 73.2532 49.118 71.4335C50.1008 70.7381 51.0865 69.9395 51.0896 69.836C51.0909 69.7937 50.9028 69.759 50.6716 69.759C50.3147 69.759 50.1195 69.8539 49.3791 70.3872C48.0736 71.3276 45.7084 72.5575 44.0733 73.1462C41.3927 74.1114 39.2704 74.4434 36.3454 74.3555C33.8718 74.2812 31.4714 73.803 29.5008 72.9921C29.0444 72.8043 28.8409 72.7415 28.8568 72.7765ZM28.9157 60.4862C28.9157 60.5119 28.932 60.5042 28.9656 60.4587C29.4365 59.8221 29.8441 58.4251 29.85 57.4271C29.8549 56.6042 30.0076 56.7898 30.0973 57.7276C30.1558 58.34 30.2448 58.504 30.3523 58.1978C30.382 58.1131 30.4558 58.0437 30.5162 58.0437C30.5962 58.0437 30.6085 58.2605 30.5614 58.8401C30.4189 60.5932 30.0037 61.7626 29.219 62.6206C28.9281 62.9385 28.8514 63.0649 29.0027 62.9766C29.4573 62.7115 30.3763 61.5915 30.6708 60.9436C31.0545 60.0995 31.1959 59.3153 31.1434 58.3233L31.1006 57.5168L31.3828 58.0116C31.8109 58.762 32.1645 59.6454 32.4239 60.6128C32.6177 61.3354 32.659 61.4206 32.6632 61.106C32.6659 60.8968 32.6204 60.4806 32.562 60.1811C32.5036 59.8816 32.3578 59.3937 32.2381 59.097C32.0098 58.5308 31.1006 57.0353 30.5781 56.3663L30.2713 55.9733L30.2899 56.8801C30.306 57.6683 30.297 57.7269 30.221 57.3289C30.1164 56.7812 29.7172 55.859 29.5008 55.665C29.362 55.5406 29.353 55.553 29.4156 55.7828C29.4541 55.9241 29.5093 56.4849 29.5381 57.0291C29.5975 58.1519 29.4365 59.1578 29.0473 60.099C28.961 60.3076 28.9157 60.4433 28.9157 60.4862ZM30.5572 42.5351C30.5573 43.0478 30.5591 43.6238 30.5618 44.2731C30.5828 49.3782 30.6047 49.6467 31.0802 50.6658C31.3649 51.2759 32.1689 52.1662 32.7013 52.4612C33.322 52.8051 34.1012 52.9379 34.4868 52.7653L34.7833 52.6326L34.2872 52.568C33.5811 52.476 32.7328 52.0287 32.3072 51.5239C31.7105 50.8162 31.5859 50.3112 31.5958 48.6406C31.6004 47.8493 31.6138 45.3752 31.6257 43.1427C31.6516 38.2626 31.6519 38.2603 32.4974 37.3697C32.8146 37.0356 33.3351 36.6275 33.6826 36.4404C34.2323 36.1446 34.4098 36.1026 35.2534 36.0685C36.4496 36.0201 37.0212 36.1726 38.4791 36.9295C39.969 37.703 40.21 37.9058 40.8071 38.8867C41.4091 39.8759 41.681 40.5749 41.9708 41.8792C42.2136 42.9718 42.5182 43.5487 43.0127 43.8526C43.593 44.2091 43.7888 44.1279 43.2411 43.7579C42.6172 43.3363 42.4737 43.0085 42.161 41.2877C41.7348 38.9419 41.4313 38.3503 40.1265 37.3246C38.8545 36.3246 37.153 35.6796 35.5018 35.5715C33.2947 35.427 31.9043 36.0946 31.0349 37.7166C30.6343 38.4638 30.5561 38.9464 30.5572 42.5351ZM33.0278 39.296C33.0243 39.874 33.1703 40.5873 33.4752 41.6247C33.7122 42.4313 33.966 43.4306 34.0392 43.8454C34.2107 44.8177 34.2073 46.1253 34.0313 46.8422C33.9549 47.1531 33.8928 47.4306 33.8932 47.4588C33.896 47.6711 34.4784 46.4216 34.6349 45.8678C34.971 44.6783 35.0353 43.5777 34.8758 41.7569C34.7682 40.5291 34.7591 40.0385 34.8378 39.7149C34.9568 39.2251 35.3877 38.3127 35.4998 38.3127C35.6129 38.3127 36.0522 37.5709 36.0522 37.38C36.0522 37.2888 35.9696 37.1324 35.8686 37.0325C35.7189 36.8843 35.556 36.8582 34.9826 36.8898C34.3651 36.9239 34.2365 36.967 33.9206 37.2463C33.7229 37.421 33.445 37.8072 33.3028 38.1043C33.1236 38.4789 33.0304 38.8464 33.0278 39.296ZM34.9298 46.4681C34.9328 46.5326 34.9857 46.4966 35.0473 46.388C35.3006 45.9415 35.8276 45.3754 36.2323 45.1153C36.5912 44.8846 36.7732 44.8388 37.3212 44.8411C38.0308 44.844 38.425 45.0061 38.904 45.4922C39.4522 46.0487 39.652 46.8574 39.5216 47.9929C39.3859 49.1737 38.9097 49.9231 37.9906 50.4023C37.4206 50.6995 37.5918 50.9359 38.2056 50.6992C38.997 50.3939 39.5397 49.7408 39.7841 48.7998C39.96 48.1222 39.8814 46.8983 39.6233 46.2979C39 44.8482 37.3178 44.2755 36.0262 45.0733C35.5665 45.3572 34.9164 46.1844 34.9298 46.4681ZM35.4976 41.2909C35.4952 41.3312 35.5517 41.4568 35.6685 41.6664C36.0226 42.3011 36.7649 42.7325 37.4997 42.7306C38.2996 42.7285 39.2575 41.9831 39.602 41.0948C39.9305 40.2476 39.9369 38.9829 39.6161 38.2954C39.3208 37.6626 38.6674 37.2293 37.7207 37.0385C37.4487 36.9837 37.3682 37.0007 37.3682 37.113C37.3682 37.2093 37.5212 37.2807 37.8208 37.3242C38.3649 37.4031 38.9383 37.7881 39.2482 38.2826C39.5652 38.7883 39.6202 39.7569 39.3672 40.3794C38.6767 42.0784 36.7612 42.7119 35.7959 41.5604C35.6011 41.328 35.5007 41.239 35.4976 41.2909ZM41.0602 49.5232L41.2745 49.303C41.6034 48.9651 41.8618 48.1997 42.023 47.0847C42.1732 46.0459 42.4834 45.1715 42.8198 44.8387C43.0597 44.6013 43.0597 44.5439 42.8198 44.6843C42.5339 44.8516 41.9959 45.4705 41.8282 45.825C41.6385 46.226 41.4148 47.3713 41.4087 47.9726C41.4061 48.227 41.3266 48.68 41.2321 48.9792L41.0602 49.5232ZM43.6601 82.753C43.6488 82.779 43.7402 82.7971 43.9031 82.8287C44.5593 82.956 46.7814 82.9144 47.8019 82.7558C49.7358 82.4553 51.2995 81.9507 53.0438 81.0638C53.9835 80.586 54.1572 80.4061 53.3381 80.7591C52.1376 81.2764 49.4048 81.8944 48.3901 81.8781L47.9431 81.8709L48.413 81.6926C48.6715 81.5945 49.6153 81.246 50.5104 80.9183C52.0708 80.3469 52.4956 80.143 51.6999 80.3472C48.9731 81.0473 47.8903 81.3603 46.5801 81.8267C45.727 82.1304 44.6916 82.4636 44.2791 82.5673C43.8589 82.6731 43.6746 82.7196 43.6601 82.753Z" fill="#803300"/>
<path d="M45.5749 46.741C45.581 47.9244 45.6298 48.3212 45.7899 49.2297C45.9169 49.9504 46.1064 50.7597 46.211 51.0281C46.4562 51.6569 47.1704 52.8613 47.2138 52.7189C47.2321 52.6587 47.1338 52.0903 46.995 51.4558C46.8076 50.5989 46.7553 50.1469 46.7925 49.6991C46.8217 49.3461 46.7864 48.8096 46.7071 48.4049C46.5417 47.5613 46.6043 43.3907 46.8116 41.445C46.8838 40.7667 46.9681 39.8233 46.9988 39.3485C47.058 38.4341 47.3437 36.6857 47.5042 36.2553C47.7206 35.6751 47.582 35.8432 47.2077 36.615C46.9885 37.0671 46.7376 37.5534 46.6502 37.6956C46.3832 38.1297 46.2083 38.8005 46.1049 39.7856C46.0507 40.3026 45.9154 41.1418 45.8042 41.6505C45.6282 42.4557 45.5993 42.921 45.5806 45.2473C45.5756 45.8647 45.5729 46.3465 45.5749 46.741ZM63.3568 36.7177L64.2297 36.849C65.9968 37.1149 67.747 37.924 68.5267 38.8353C69.0619 39.4608 69.44 40.3236 69.7634 41.6585C69.9815 42.5589 70.0112 42.8823 70.0178 44.4252C70.0261 46.3391 69.8883 47.3863 69.4524 48.7221C68.9942 50.126 68.5906 50.8418 67.7228 51.79C66.8943 52.6951 66.9273 52.7713 67.8693 52.1286C69.1099 51.2821 70.1024 49.3328 70.4915 46.9784C70.6811 45.8312 70.6816 43.0355 70.4924 42.0314C70.1366 40.1436 69.426 38.7954 68.3409 37.9489C67.1811 37.0441 65.8644 36.6327 64.2968 36.6858L63.3568 36.7177ZM67.0503 38.534C67.0501 38.6157 67.1573 38.9686 67.3121 39.3882C67.5228 39.9595 67.6337 40.4302 67.6337 40.7533C67.6337 41.0245 67.7139 41.4993 67.812 41.8082C68.1731 42.9456 68.0616 48.561 67.6493 50.0002C67.5481 50.3535 67.4757 50.6425 67.4883 50.6425C67.501 50.6425 67.7767 50.2013 68.1011 49.6622C68.6413 48.7645 68.6987 48.6152 68.7824 47.8895C68.8327 47.4536 68.9311 46.8427 69.0011 46.5319C69.133 45.9458 69.1199 44.427 68.9671 42.5754C68.8881 41.618 68.536 40.3901 68.1714 39.8007C67.9405 39.4273 67.15 38.5161 67.0571 38.5161C67.0525 38.5161 67.0503 38.5223 67.0503 38.534Z" fill="#FF8080"/>
<path d="M47.1449 40.7015C47.1499 40.9242 47.2133 41.1611 47.3299 41.3701C47.4885 41.6545 47.5703 41.7041 47.8807 41.7041C48.6248 41.7041 50.151 41.2215 50.151 40.9861C50.151 40.9443 49.9078 40.7908 49.6105 40.6451C48.6191 40.1592 47.3188 39.9867 47.1999 40.3252C47.1598 40.4395 47.1418 40.5679 47.1449 40.7015ZM47.3663 49.1837C47.3672 49.2319 47.3716 49.2775 47.38 49.3194C47.4397 49.6164 47.4416 49.6171 48.1647 49.6171C48.8623 49.6171 49.7755 49.4257 50.1647 49.198C50.4166 49.0506 50.2821 48.8869 49.6338 48.5513C48.9149 48.1791 47.9566 47.9945 47.7441 48.1872C47.5281 48.383 47.3599 48.8466 47.3663 49.1837ZM47.519 37.7671C47.519 38.2041 47.5736 38.3675 47.8621 38.7939C48.0509 39.0729 48.3312 39.3988 48.4849 39.5181L48.7643 39.7353L49.622 39.2429C50.0939 38.9722 50.7338 38.6765 51.044 38.586C51.5334 38.4431 54.9088 37.799 55.168 37.799C55.3852 37.799 54.6678 37.1477 54.1468 36.8721C52.5692 36.0374 49.0569 35.6542 48.1792 36.221C47.7955 36.4688 47.519 37.1163 47.519 37.7671ZM47.6486 51.8592C47.6572 52.5173 47.8432 52.7097 48.5119 53.0673C49.0203 53.3393 49.0562 53.3435 50.3661 53.2885C51.2743 53.2504 51.9377 53.1643 52.4385 53.0196C53.1815 52.8048 54.5583 52.1151 54.8843 51.7944C55.0537 51.6277 55.0464 51.6183 54.6972 51.5509C54.4974 51.5124 53.8461 51.4081 53.2498 51.3193C51.9826 51.1307 50.7052 50.7905 49.5925 50.3454C48.6935 49.9858 48.1914 49.9447 47.915 50.208C47.7621 50.3536 47.715 50.5653 47.6674 51.3215C47.6542 51.5308 47.6467 51.7074 47.6486 51.8592ZM47.9787 47.6645L48.5714 47.6623C48.9647 47.6608 49.3062 47.5893 49.587 47.4495C49.9927 47.2476 50.0023 47.2327 49.822 47.0875C49.7186 47.0042 49.4127 46.8657 49.1423 46.7798C48.872 46.6938 48.5124 46.6381 48.3433 46.6559C48.0481 46.687 48.0349 46.7076 48.0074 47.1764L47.9787 47.6645ZM48.036 43.0914L48.553 43.0882C49.1597 43.0845 49.984 42.8523 49.9371 42.6984C49.9191 42.6395 49.7377 42.4962 49.5341 42.3799C49.2813 42.2356 48.9851 42.1682 48.6 42.1675L48.036 42.1665V42.629V43.0914ZM48.1254 45.7742C48.1315 46.2295 48.4426 46.4183 48.9556 46.2332C49.2468 46.1282 49.681 45.7794 49.681 45.6507C49.681 45.6215 49.5012 45.5116 49.2815 45.4065C49.0618 45.3014 48.737 45.2 48.5598 45.1811C48.2793 45.1512 48.2291 45.1819 48.1713 45.4177C48.1389 45.5499 48.124 45.6691 48.1254 45.7742ZM48.1284 44.0753C48.1291 44.2054 48.1463 44.3391 48.177 44.4274C48.3068 44.8006 48.9815 44.7956 49.3916 44.4184C49.5507 44.272 49.681 44.1151 49.681 44.0697C49.681 44.0244 49.5224 43.9184 49.3285 43.8343C49.1346 43.7501 48.8019 43.6496 48.5894 43.6109C48.2146 43.5427 48.2011 43.5502 48.1452 43.8556C48.1334 43.9205 48.1279 43.9973 48.1284 44.0753ZM60.2619 52.6081C60.2905 52.6587 60.8718 52.6994 61.5538 52.6986C63.6573 52.6963 65.1913 52.2379 66.0859 51.344C66.6761 50.7543 66.6778 50.7259 66.1687 49.8533C65.9972 49.5593 65.7301 49.2471 65.5754 49.1596C65.2558 48.979 64.5151 48.9486 64.2475 49.1052C64.149 49.1628 63.8177 49.5675 63.5113 50.0044C62.659 51.2197 62.3432 51.4996 61.2199 52.0349C60.6644 52.2995 60.2333 52.5575 60.2619 52.6081ZM60.5081 37.8546C60.514 37.9244 60.766 38.0602 61.4659 38.414C62.4105 38.8916 62.6542 39.0661 63.0822 39.5715C63.3594 39.8989 63.723 40.3854 63.89 40.6528C64.258 41.2418 64.3954 41.3625 64.7913 41.4446C65.2952 41.549 65.7415 41.4003 66.085 41.0136C66.3876 40.6731 66.7884 39.9224 66.7885 39.696C66.7886 39.6371 66.6089 39.399 66.3892 39.1671C65.7274 38.4684 64.9536 38.1215 63.4518 37.85C62.6025 37.6964 61.1567 37.6637 60.6336 37.7862C60.5535 37.8049 60.5054 37.8229 60.5081 37.8546ZM64.4858 48.7903L65.3372 48.7927C66.2128 48.7951 66.3852 48.7315 66.5873 48.3325C66.7549 48.0015 66.6741 47.8217 66.342 47.7865C66.0374 47.7543 65.2345 48.1524 64.7208 48.5902L64.4858 48.7903ZM64.4858 41.6059L64.7208 41.8063C64.85 41.9164 65.1942 42.1465 65.4858 42.3177C66.3706 42.8372 66.831 42.6828 66.4926 41.9799C66.3255 41.6329 66.2371 41.6044 65.3317 41.6052L64.4858 41.6059ZM65.1694 47.1154L65.644 47.3385C66.1173 47.5611 66.5131 47.6232 66.6319 47.4933C66.7358 47.3798 66.7024 46.892 66.5818 46.7601C66.4117 46.5741 66.0367 46.6192 65.5796 46.8807L65.1694 47.1154ZM65.2855 43.2456C65.2855 43.3522 66.0978 43.6567 66.3822 43.6567C66.7123 43.6567 66.7868 43.5453 66.7599 43.0914C66.743 42.8055 66.7179 42.7851 66.4127 42.811C66.0857 42.8388 65.2855 43.1474 65.2855 43.2456ZM65.4727 46.2178C65.4727 46.3387 65.9997 46.5341 66.3261 46.5341C66.7757 46.5341 67.1009 45.9283 66.734 45.7744C66.6522 45.7401 66.5024 45.712 66.4012 45.712C66.1738 45.712 65.4727 46.0939 65.4727 46.2178ZM65.5667 45.206C65.5667 45.3006 66.2733 45.6092 66.4898 45.6092C66.5818 45.6092 66.7078 45.5538 66.7698 45.486C66.929 45.3119 66.9108 44.7924 66.743 44.722C66.5947 44.6598 65.5667 45.0828 65.5667 45.206ZM65.5856 44.2933C65.5863 44.3163 65.5926 44.3386 65.6047 44.3601C65.7002 44.5291 66.4923 44.6216 66.7489 44.4938C67.02 44.3588 67.0311 44.2667 66.8115 43.9702C66.663 43.7697 66.6047 43.7574 66.2345 43.8483C65.8467 43.9436 65.5808 44.1323 65.5856 44.2933Z" fill="#FFDD55"/>
<path d="M64.6675 43.3176C64.388 42.1382 63.7781 41.088 63.0542 40.5395C62.5021 40.1212 61.2058 39.5543 60.5013 39.4231C59.8871 39.3087 58.9676 39.3675 58.7163 39.5372C58.6089 39.6098 58.6076 39.7147 58.7086 40.1752C58.9931 41.4716 59.6855 42.886 60.4181 43.6673C60.846 44.1236 61.7932 44.6748 62.1835 44.6945C62.5217 44.7117 61.7613 44.8749 61.3085 44.8824C60.7417 44.8918 60.9943 45.0703 61.691 45.1527L62.3245 45.2276L61.7605 45.4039C60.4741 45.8059 59.9672 46.2154 59.4095 47.3033C59.0589 47.9874 58.6716 49.2071 58.5735 49.9369C58.4992 50.4888 58.529 50.5142 59.3558 50.6046C60.4513 50.7244 61.8763 50.1856 63.0975 49.1898C63.7956 48.6206 64.1292 48.1721 64.3862 47.4575C64.8031 46.298 64.9303 44.4263 64.6675 43.3176Z" fill="#FF0000"/>
<path d="M25.0547 29.8098C25.0547 30.2405 25.1988 30.4674 25.5162 30.5368C25.9086 30.6226 26.0454 30.9393 25.9077 31.442C25.679 32.2762 26.3612 32.737 26.971 32.1604C27.2549 31.892 27.397 31.4229 27.401 30.7417C27.4041 30.2039 27.367 30.0588 27.1583 29.7875C26.8527 29.3905 26.3699 29.1628 25.7764 29.136C25.2585 29.1126 25.0547 29.3029 25.0547 29.8098ZM25.28 58.2159C25.2803 58.2983 25.3419 58.4048 25.4678 58.5232C25.8376 58.8709 26.445 58.8543 26.8458 58.4856C27.4039 57.9722 27.5357 57.2905 27.2225 56.5363C26.9697 55.9275 26.4543 55.6819 26.1821 56.0405C26.0881 56.1643 26.0881 56.2873 26.1818 56.6531C26.2462 56.9048 26.2716 57.2292 26.2383 57.3743C26.155 57.7373 25.8523 58.0439 25.5772 58.0439C25.3806 58.0439 25.2796 58.1099 25.28 58.2159Z" fill="#FFFF00"/>
</g>
</g>
<defs>
<clipPath id="clip0_394_1259">
<rect width="90" height="90" fill="white" transform="matrix(0 -1 1 0 0 90)"/>
</clipPath>
</defs>
</svg>
