<svg width="90" height="90" viewBox="0 0 90 90" fill="none" xmlns="http://www.w3.org/2000/svg">
<g clip-path="url(#clip0_394_1325)">
<mask id="mask0_394_1325" style="mask-type:luminance" maskUnits="userSpaceOnUse" x="0" y="0" width="90" height="90">
<path d="M0 0L0 90H90V0H0Z" fill="white"/>
</mask>
<g mask="url(#mask0_394_1325)">
<path d="M45.1262 0.843315C69.5206 0.835215 89.3025 20.6129 89.3025 45.0116C89.3025 69.4073 69.5207 89.1838 45.1262 89.1758C20.7264 89.1838 0.945313 69.4073 0.945313 45.0116C0.9437 20.6129 20.7264 0.835215 45.1262 0.843315Z" fill="#F3C31C" stroke="black" stroke-width="1.64286" stroke-linecap="round" stroke-linejoin="round"/>
<path d="M29.6914 2.74185C30.3814 2.70905 37.6428 2.86095 38.341 2.86095C63.177 2.86095 76.7675 22.8423 76.7675 47.6783C76.7675 67.0878 64.4461 83.6515 47.2084 89.9531C71.0791 88.8647 90.1158 69.1422 90.1158 45.0086C90.1158 20.1727 69.962 0.0188522 45.1302 0.0188522C39.7087 0.0188522 34.505 0.979952 29.6914 2.74185Z" fill="black"/>
<path d="M28.734 4.38102C43.491 1.96602 68.6638 23.5696 68.5611 46.4505C68.4789 64.4366 49.0152 89.2101 31.1491 86.9672C12.7412 84.6549 61.6241 75.9855 61.0614 45.7601C60.5029 15.6999 6.90042 7.83102 28.734 4.38102Z" fill="black"/>
<path d="M32.0758 72.3817C47.302 72.1629 58.3123 60.4026 58.3932 45.0739C58.4741 29.5497 46.9953 16.4325 32.0758 17.2011C-4.14065 19.0654 2.15601 72.8085 32.0758 72.3803V72.3817Z" fill="#FFCD01" stroke="black" stroke-width="1.34847" stroke-linecap="round" stroke-linejoin="round"/>
<path d="M28.0366 46.0115C32.2569 46.0115 35.68 49.4333 35.68 53.6529C35.68 57.8733 32.2569 61.294 28.0366 61.293C23.8162 61.294 20.3945 57.8733 20.3945 53.6529C20.3945 49.4333 23.8162 46.0115 28.0366 46.0115Z" fill="white" stroke="black" stroke-width="1.34847" stroke-linecap="round" stroke-linejoin="round"/>
<path d="M28.0366 28.238C32.2569 28.238 35.68 31.6564 35.68 35.8771C35.68 40.0978 32.2569 43.5195 28.0366 43.5195C23.8162 43.5195 20.3945 40.0978 20.3945 35.8771C20.3945 31.6564 23.8162 28.238 28.0366 28.238Z" fill="white" stroke="black" stroke-width="1.34847" stroke-linecap="round" stroke-linejoin="round"/>
<path d="M29.3835 35.0306C30.7903 35.0306 31.9308 36.1701 31.9308 37.5759C31.9308 38.9816 30.7903 40.1245 29.3835 40.1211C27.9767 40.1245 26.8359 38.9816 26.8359 37.5759C26.8359 36.1701 27.9767 35.0306 29.3835 35.0306Z" fill="black"/>
<path d="M29.3835 49.1969C30.7903 49.1969 31.9308 50.3364 31.9308 51.7421C31.9308 53.1493 30.7903 54.2894 29.3835 54.2891C27.9767 54.2894 26.8359 53.1493 26.8359 51.7421C26.8359 50.3364 27.9767 49.1969 29.3835 49.1969Z" fill="black"/>
<path d="M50.6251 45.2159C50.6251 50.7311 47.1292 55.207 42.8242 55.207C50.3689 48.7354 49.425 40.085 42.8242 35.2137C47.2405 35.4496 50.6251 39.6973 50.6251 45.2159Z" fill="black" stroke="black" stroke-width="1.08413" stroke-linecap="round" stroke-linejoin="round"/>
<path d="M23.0391 18.3104L23.9348 18.9408C24.9714 18.8566 26.0256 18.8262 27.0953 18.8262C42.3252 18.8262 54.2423 31.0366 54.4041 45C54.5254 55.5224 46.6774 67.0133 35.6065 72.0586C49.1754 69.4911 58.2775 57.4561 58.5371 44.9359C58.827 30.8242 47.3078 17.2047 32.0782 17.2047C28.912 17.2047 25.8719 17.5654 23.0391 18.3104Z" fill="black" fill-opacity="0.31373"/>
<path fill-rule="evenodd" clip-rule="evenodd" d="M12.431 58.8845C12.9158 60.1204 9.79815 61.983 6.27832 62.5588C-1.38333 63.8118 13.0918 72.6065 12.1937 73.4412C11.0222 74.5301 -9.92249 67.3131 6.68555 60.2303C8.17055 59.5968 12.1374 56.0952 12.431 58.8845Z" fill="#333333" stroke="black" stroke-width="1.34847"/>
<path fill-rule="evenodd" clip-rule="evenodd" d="M12.1227 32.9365C12.6071 31.6992 9.48984 29.8383 5.96967 29.2619C-1.69197 28.0078 12.7831 19.2124 11.8854 18.3798C10.7139 17.2909 -10.2312 24.5085 6.37691 31.5914C7.86191 32.2218 11.8291 35.7244 12.1227 32.9365Z" fill="#333333" stroke="black" stroke-width="1.34847"/>
</g>
</g>
<defs>
<clipPath id="clip0_394_1325">
<rect width="90" height="90" fill="white" transform="matrix(0 -1 1 0 0 90)"/>
</clipPath>
</defs>
</svg>
