<svg width="90" height="90" viewBox="0 0 90 90" fill="none" xmlns="http://www.w3.org/2000/svg">
<g clip-path="url(#clip0_394_1287)">
<mask id="mask0_394_1287" style="mask-type:luminance" maskUnits="userSpaceOnUse" x="0" y="0" width="90" height="90">
<path d="M0 0L0 90H90V0H0Z" fill="white"/>
</mask>
<g mask="url(#mask0_394_1287)">
<path fill-rule="evenodd" clip-rule="evenodd" d="M0 45C0 20.1454 20.1454 0 45 0C69.8546 0 90 20.1454 90 45C90 69.8546 69.8546 90 45 90C20.1454 90 0 69.8546 0 45Z" fill="#F0B90B"/>
<path d="M44.9982 65.2681L56.8973 65.2357L62.8468 55.1251H69.8131L60.4129 71.1527H41.5187L44.9982 65.2681ZM33.0992 65.2681H40.0331L36.5499 71.1562H29.616L26.1328 65.2681L29.616 59.351L33.0992 65.2681ZM29.616 50.9027L26.1328 45.0145L29.616 39.0974L33.0992 45.0145L29.616 50.9027Z" fill="white"/>
<path d="M54.4309 61.0117H47.4646L50.9477 55.1235H57.8816L54.4309 61.0117ZM65.342 50.9011L68.8252 45.0129L65.342 39.0958H72.2759L75.759 45.0129L72.2759 50.9011H65.342ZM29.616 30.6511L26.1328 24.7629L29.616 18.8458H36.5499L40.0331 24.7629H33.0992L29.616 30.6511ZM56.8973 24.7629L44.9982 24.7305L41.5151 18.8422H60.4093L69.8095 34.8699H62.8432L56.8973 24.7629Z" fill="white"/>
<path d="M54.4312 28.9868L57.8819 34.875H50.948L47.4648 28.9868H54.4312Z" fill="white"/>
<path d="M35.5664 28.9853L42.5328 28.9528L48.4823 39.0922H60.4102L63.8609 44.9805L60.4102 50.8687H48.4823L42.5328 61.0081H35.5664L32.0832 55.0946L38.0616 45.0165L32.0832 34.8771L35.5664 28.96V28.9853ZM23.671 61.0117L14.2383 45.0129L23.671 28.9853L27.1542 34.8735L21.1758 45.0129L27.1542 55.1235L23.671 61.0117Z" fill="white"/>
</g>
</g>
<defs>
<clipPath id="clip0_394_1287">
<rect width="90" height="90" fill="white" transform="matrix(0 -1 1 0 0 90)"/>
</clipPath>
</defs>
</svg>
