<svg width="90" height="90" viewBox="0 0 90 90" fill="none" xmlns="http://www.w3.org/2000/svg">
<g clip-path="url(#clip0_394_1270)">
<mask id="mask0_394_1270" style="mask-type:luminance" maskUnits="userSpaceOnUse" x="0" y="0" width="90" height="90">
<path d="M0 0L0 90H90V0H0Z" fill="white"/>
</mask>
<g mask="url(#mask0_394_1270)">
<path d="M55.8857 1.3465C79.9931 7.3572 94.6644 31.7768 88.6528 55.8898C82.6427 79.9926 58.2243 94.6656 34.1189 88.6522C10.0089 82.6441 -4.66352 58.2244 1.34655 34.119C7.35663 10.0078 31.7772 -4.6649 55.8857 1.3465Z" fill="#F7931A"/>
<path d="M38.587 25.1548C32.5985 24.259 29.3795 28.8187 27.232 35.0539L19.1201 33.0312L17.8896 37.9697L25.788 39.9388C25.4642 41.2371 25.1592 42.5704 24.8567 43.8956L16.9062 41.9122L15.6758 46.8477L23.7851 48.8715C23.5405 49.9459 23.2988 51.0012 23.0441 52.0249L23.0186 52.0192L21.3181 58.8296L26.5922 60.1433C26.5922 60.1433 27.432 56.4793 27.4837 56.5565C27.9827 54.5567 29.3064 54.195 30.3556 54.2551L39.5971 56.5592C39.632 56.4215 39.6826 56.2428 39.7618 56.0457C39.7209 56.2105 39.6763 56.3858 39.6327 56.5678L52.5786 59.7973C53.1862 60.0417 54.0979 60.662 53.7517 62.0602C53.8234 62.0107 52.856 65.6497 52.856 65.6497L58.5084 68.1016L60.1104 61.6748C60.4102 60.4792 60.7238 59.3076 61.0188 58.1538L69.2238 60.1974L70.4542 55.2646L62.3363 53.2408C62.7021 51.8932 63.0395 50.5854 63.3576 49.3051L71.4372 51.3221L72.6677 46.3833L64.478 44.3399C66.0716 35.9186 65.4291 29.5865 57.8129 26.9212C51.681 24.7735 48.1441 27.0281 45.8377 31.4585C45.0935 28.2316 42.9714 25.8011 38.5877 25.153L38.587 25.1548ZM54.4076 36.4382C60.5395 37.9644 57.2248 48.2899 56.3936 51.6376L45.5233 48.9256C46.359 45.5782 48.0126 34.8433 54.4076 36.4382ZM38.4982 34.9109C44.0758 36.3031 41.2421 44.8971 40.5473 47.6849L30.6886 45.2262C31.3835 42.4384 32.6803 33.4611 38.4982 34.9109Z" fill="white"/>
</g>
</g>
<defs>
<clipPath id="clip0_394_1270">
<rect width="90" height="90" fill="white" transform="matrix(0 -1 1 0 0 90)"/>
</clipPath>
</defs>
</svg>
