<svg width="90" height="90" viewBox="0 0 90 90" fill="none" xmlns="http://www.w3.org/2000/svg">
<g clip-path="url(#clip0_1486_13519)">
<path d="M0.602509 45.001C0.602537 20.4772 20.4822 0.600435 45 0.604492L46.1455 0.619141C70.1335 1.21978 89.3974 20.859 89.3974 45.001C89.3974 69.5247 69.5178 89.4015 45 89.3975L43.8545 89.3828C19.8664 88.7822 0.602509 69.143 0.602509 45.001Z" fill="#784421" stroke="black" stroke-width="1.20559" stroke-linecap="round" stroke-linejoin="round"/>
<path d="M29.566 2.72154C30.2566 2.68999 30.9596 2.6702 31.658 2.6702C56.4904 2.6702 76.6416 22.8269 76.6416 47.6651C76.6416 67.0803 64.3211 83.6474 47.0842 89.9528C70.9506 88.8627 89.9896 69.1359 89.9896 44.9949C89.9896 20.1563 69.838 0 45.0061 0C39.584 0 34.381 0.960526 29.566 2.72154Z" fill="black" fill-opacity="0.31373"/>
<path d="M34.9347 60.6326L34.677 44.4727C34.677 44.4727 28.2347 45.1033 28.17 52.7497C28.1056 60.396 34.9347 60.6326 34.9347 60.6326Z" fill="#784421"/>
<path d="M46.8225 17.7948C61.3826 17.7948 73.1998 35.5609 73.1998 44.1721C73.1998 52.4613 61.3829 70.5494 46.8225 70.5494C32.2624 70.5494 20.4452 62.6125 20.4452 44.1721C20.4452 25.7285 32.2621 17.7948 46.8225 17.7948Z" fill="black" fill-opacity="0.31373"/>
<path d="M16.2274 46.086C16.4242 55.8825 19.9836 62.6466 25.4945 66.7737C24.6604 74.5981 33.1097 81.1005 33.1097 81.1005C33.1097 81.1005 36.1545 74.9581 33.6032 70.6755C36.4113 71.4556 39.4394 71.8339 42.5983 71.8339C57.1595 71.8339 68.9795 53.5845 68.9795 45.2223C68.9795 36.5353 57.1598 18.6107 42.5983 18.6107C39.4393 18.6107 36.4111 18.9892 33.6032 19.7691C36.1545 15.4865 33.1097 9.35418 33.1097 9.35418C33.1097 9.35418 24.6629 15.8478 25.4945 23.6709C19.823 27.918 16.2274 34.9562 16.2274 45.2221C16.2274 45.5128 16.2217 45.8006 16.2274 46.086Z" fill="#784421" stroke="black" stroke-width="1.20559" stroke-linecap="round" stroke-linejoin="round"/>
<path fill-rule="evenodd" clip-rule="evenodd" d="M15.6515 43.041C1.30462 37.6626 16.67 24.8233 13.9708 21.142C11.1733 17.3266 3.43907 20.4785 1.62892 19.1514C-0.181222 17.8243 12.5089 11.6497 17.262 14.1748C21.9161 16.6472 21.5195 27.1185 21.4724 33.9789C21.4474 37.852 18.1433 43.8621 15.6515 43.041Z" fill="#502D16" stroke="black" stroke-width="1.20559"/>
<path d="M34.1614 18.8801L35.0126 19.5002C35.9981 19.4179 37.0001 19.3865 38.0167 19.3865C52.4924 19.3865 64.243 37.6165 64.243 46.4516C64.243 53.2989 56.6306 66.6558 46.1079 71.6046C59.0044 69.0861 68.9795 52.6983 68.9795 44.86C68.9795 36.0249 57.2292 17.7949 42.7532 17.7949C39.7437 17.7949 36.8538 18.1507 34.1614 18.8801Z" fill="black" fill-opacity="0.31373"/>
<path d="M59.9789 39.3529C61.3213 40.0761 61.9516 41.4033 61.3866 42.3169C60.8216 43.2306 59.2753 43.3846 57.9332 42.6609C56.5908 41.9377 55.9605 40.6105 56.5256 39.6968C57.0906 38.7832 58.6369 38.6292 59.9789 39.3529Z" fill="black"/>
<path d="M59.9789 50.0465C61.3213 49.3233 61.9516 47.9961 61.3866 47.0824C60.8216 46.1688 59.2753 46.0148 57.9332 46.7385C56.5908 47.4617 55.9605 48.7889 56.5256 49.7026C57.0906 50.6162 58.6369 50.7702 59.9789 50.0465Z" fill="black"/>
<path fill-rule="evenodd" clip-rule="evenodd" d="M15.6515 47.4108C1.30462 52.5971 16.67 64.9778 13.9708 68.5277C11.1733 72.2068 3.43907 69.1675 1.62892 70.4472C-0.181222 71.7269 12.5089 77.681 17.262 75.2461C21.9161 72.862 21.5195 62.7646 21.4724 56.1492C21.4474 52.4144 18.1433 46.619 15.6515 47.4108Z" fill="#502D16" stroke="black" stroke-width="1.20559"/>
<path d="M32.8856 60.091C35.0053 63.5883 39.5593 64.7044 43.0559 62.5837C46.5525 60.4629 47.667 55.9087 45.5454 52.4126C43.4257 48.9153 38.8717 47.7992 35.3751 49.92C31.8785 52.0408 30.7637 56.5951 32.8856 60.091Z" fill="white" stroke="white" stroke-width="1.20559" stroke-linecap="round" stroke-linejoin="round"/>
<path d="M36.4488 57.651C37.3673 59.166 39.2972 59.6756 40.7592 58.7889C42.2212 57.9021 42.6613 55.9551 41.742 54.4405C40.8235 52.9255 38.8936 52.4159 37.4317 53.3026C35.9697 54.1894 35.5296 56.1364 36.4488 57.651Z" fill="#070707" stroke="white" stroke-width="1.20559"/>
<path d="M32.9186 61.947L42.971 48.7667C42.971 48.7667 37.2339 45.0642 32.3231 51.179C27.4121 57.2939 32.9186 61.947 32.9186 61.947Z" fill="#784421"/>
<path d="M32.4931 30.9613C34.5949 27.4532 39.1431 26.3137 42.6506 28.4166C46.158 30.5195 47.2958 35.0679 45.1921 38.5748C43.0903 42.0829 38.5421 43.2223 35.0346 41.1195C31.5272 39.0166 30.3891 34.468 32.4931 30.9613Z" fill="white" stroke="white" stroke-width="1.20559" stroke-linecap="round" stroke-linejoin="round"/>
<path d="M36.0706 33.3841C36.9814 31.8644 38.9086 31.3449 40.3751 32.2242C41.8417 33.1034 42.2917 35.0482 41.3803 36.5675C40.4695 38.0872 38.5422 38.6066 37.0757 37.7274C35.6092 36.8482 35.1591 34.9034 36.0706 33.3841Z" fill="#070707" stroke="white" stroke-width="1.20559"/>
<path d="M32.5167 29.1053L42.6366 42.234C42.6366 42.234 36.9185 45.9659 31.9764 39.8763C27.0341 33.7865 32.5167 29.1053 32.5167 29.1053Z" fill="#784421"/>
</g>
<defs>
<clipPath id="clip0_1486_13519">
<rect width="90" height="90" fill="white" transform="matrix(0 -1 1 0 0 90)"/>
</clipPath>
</defs>
</svg>
