<svg width="90" height="90" viewBox="0 0 90 90" fill="none" xmlns="http://www.w3.org/2000/svg">
<g clip-path="url(#clip0_394_1346)">
<mask id="mask0_394_1346" style="mask-type:luminance" maskUnits="userSpaceOnUse" x="0" y="0" width="90" height="90">
<path d="M0 0L0 90H90V0H0Z" fill="white"/>
</mask>
<g mask="url(#mask0_394_1346)">
<path d="M44.999 0.606026C69.5163 0.598726 89.396 20.4772 89.396 45.0022C89.396 69.526 69.5167 89.4025 44.9989 89.3984C20.4816 89.4057 0.601563 69.5273 0.601563 45.0022C0.601563 20.4785 20.4812 0.602026 44.999 0.606026Z" fill="#784421" stroke="black" stroke-width="1.20559" stroke-linecap="round" stroke-linejoin="round"/>
<path d="M29.5664 2.7219C30.257 2.6904 30.96 2.6706 31.6584 2.6706C56.4908 2.6706 76.642 22.8273 76.642 47.6654C76.642 67.0806 64.3215 83.6478 47.0846 89.9531C70.951 88.8631 89.99 69.1363 89.99 44.9952C89.99 20.1567 69.8384 0.000396729 45.0064 0.000396729C39.5844 0.000396729 34.3814 0.960901 29.5664 2.7219Z" fill="black" fill-opacity="0.31373"/>
<path d="M43 18C56.7998 18 68 34.8384 68 43C68 50.8564 56.8001 68 43 68C29.2002 68 18 60.4775 18 43C18 25.5194 29.1999 18 43 18Z" fill="black" fill-opacity="0.31373"/>
<path d="M14.0024 44.8139C14.189 54.0988 17.5625 60.5097 22.7856 64.4213C21.9951 71.8372 30.0032 78 30.0032 78C30.0032 78 32.8891 72.1783 30.471 68.1194C33.1324 68.8588 36.0024 69.2173 38.9963 69.2173C52.7972 69.2173 64 51.9208 64 43.9952C64 35.7618 52.7975 18.7732 38.9963 18.7732C36.0023 18.7732 33.1322 19.1319 30.471 19.8711C32.8891 15.8121 30.0032 10 30.0032 10C30.0032 10 21.9974 16.1545 22.7856 23.5691C17.4103 27.5945 14.0024 34.2652 14.0024 43.9951C14.0024 44.2706 13.997 44.5433 14.0024 44.8139Z" fill="#784421" stroke="black" stroke-width="1.20559" stroke-linecap="round" stroke-linejoin="round"/>
<path fill-rule="evenodd" clip-rule="evenodd" d="M13.4566 41.9279C-0.141154 36.8303 14.4219 24.6615 11.8637 21.1724C9.21226 17.5562 1.88184 20.5435 0.166214 19.2857C-1.54941 18.0279 10.4781 12.1757 14.983 14.569C19.394 16.9123 19.0182 26.8369 18.9736 33.339C18.9499 37.0099 15.8182 42.7061 13.4566 41.9279Z" fill="#502D16" stroke="black" stroke-width="1.20559"/>
<path d="M31 19.0286L31.8067 19.6162C32.7408 19.5382 33.6905 19.5085 34.654 19.5085C48.3738 19.5085 59.5109 36.7866 59.5109 45.1604C59.5109 51.6501 52.2959 64.3096 42.3227 69C54.5458 66.613 64 51.0809 64 43.6519C64 35.2781 52.8632 18 39.1431 18C36.2908 18 33.5518 18.3372 31 19.0286Z" fill="black" fill-opacity="0.31373"/>
<path d="M55.4694 38.4324C56.7417 39.1178 57.3391 40.3757 56.8036 41.2417C56.2681 42.1076 54.8025 42.2536 53.5306 41.5676C52.2583 40.8822 51.6609 39.6243 52.1964 38.7583C52.7319 37.8924 54.1975 37.7464 55.4694 38.4324Z" fill="black"/>
<path d="M55.4694 48.5676C56.7417 47.8822 57.3391 46.6243 56.8036 45.7583C56.2681 44.8924 54.8025 44.7464 53.5306 45.4324C52.2583 46.1178 51.6609 47.3757 52.1964 48.2417C52.7319 49.1076 54.1975 49.2536 55.4694 48.5676Z" fill="black"/>
<path fill-rule="evenodd" clip-rule="evenodd" d="M13.4566 46.0696C-0.141154 50.985 14.4219 62.7193 11.8637 66.0838C9.21226 69.5708 1.88184 66.6902 0.166214 67.9031C-1.54941 69.116 10.4781 74.7592 14.983 72.4514C19.394 70.1918 19.0182 60.6216 18.9736 54.3517C18.9499 50.8119 15.8182 45.3191 13.4566 46.0696Z" fill="#502D16" stroke="black" stroke-width="1.20559"/>
<path d="M34.937 60.6289L34.6793 44.469C34.6793 44.469 28.237 45.0996 28.1723 52.746C28.1079 60.3923 34.937 60.6289 34.937 60.6289Z" fill="#784421"/>
<path d="M29.7928 58.0842C31.8018 61.3988 36.118 62.4567 39.432 60.4466C42.7461 58.4366 43.8023 54.1202 41.7915 50.8067C39.7825 47.492 35.4663 46.4342 32.1523 48.4442C28.8383 50.4543 27.7817 54.7708 29.7928 58.0842Z" fill="white" stroke="white" stroke-width="1.20559" stroke-linecap="round" stroke-linejoin="round"/>
<path d="M33.1699 55.7663C34.0405 57.2023 35.8696 57.6852 37.2552 56.8448C38.6409 56.0044 39.058 54.159 38.1868 52.7235C37.3162 51.2876 35.4871 50.8046 34.1014 51.645C32.7158 52.4855 32.2987 54.3308 33.1699 55.7663Z" fill="#070707" stroke="white" stroke-width="1.20559"/>
<path d="M29.8244 59.8438L39.352 47.3517C39.352 47.3517 33.9144 43.8426 29.26 49.6381C24.6055 55.4337 29.8244 59.8438 29.8244 59.8438Z" fill="#784421"/>
<path d="M29.4227 30.474C31.4147 27.1491 35.7255 26.0692 39.0498 28.0622C42.3741 30.0553 43.4524 34.3662 41.4586 37.69C39.4666 41.015 35.1558 42.0949 31.8315 40.1018C28.5072 38.1088 27.4286 33.7977 29.4227 30.474Z" fill="white" stroke="white" stroke-width="1.20559" stroke-linecap="round" stroke-linejoin="round"/>
<path d="M32.8101 32.7748C33.6733 31.3345 35.4999 30.8421 36.8899 31.6755C38.2798 32.5088 38.7064 34.352 37.8425 35.792C36.9793 37.2324 35.1527 37.7247 33.7627 36.8914C32.3728 36.058 31.9462 34.2148 32.8101 32.7748Z" fill="#070707" stroke="white" stroke-width="1.20559"/>
<path d="M29.4418 28.7185L39.0331 41.1617C39.0331 41.1617 33.6137 44.6987 28.9296 38.9271C24.2454 33.1553 29.4418 28.7185 29.4418 28.7185Z" fill="#784421"/>
</g>
</g>
<defs>
<clipPath id="clip0_394_1346">
<rect width="90" height="90" fill="white" transform="matrix(0 -1 1 0 0 90)"/>
</clipPath>
</defs>
</svg>
