<svg width="90" height="90" viewBox="0 0 90 90" fill="none" xmlns="http://www.w3.org/2000/svg">
<g clip-path="url(#clip0_394_1395)">
<path opacity="0.997" d="M90 45C90 20.1472 69.8528 0 45 0C20.1472 0 0 20.1472 0 45C0 69.8528 20.1472 90 45 90C69.8528 90 90 69.8528 90 45Z" fill="#F5F5F5"/>
<mask id="mask0_394_1395" style="mask-type:luminance" maskUnits="userSpaceOnUse" x="0" y="0" width="90" height="90">
<path d="M90 45C90 20.1472 69.8528 0 45 0C20.1472 0 0 20.1472 0 45C0 69.8528 20.1472 90 45 90C69.8528 90 90 69.8528 90 45Z" fill="white"/>
</mask>
<g mask="url(#mask0_394_1395)">
<path opacity="0.997" d="M-17.0307 57.0115L-8.46383 66.526C-7.8668 67.189 -6.8453 67.2426 -6.18223 66.6456L77.2759 -8.5005C77.939 -9.09752 77.9925 -10.119 77.3955 -10.7821L68.8286 -20.2966C68.2316 -20.9597 67.2101 -21.0132 66.547 -20.4162L-16.9112 54.7299C-17.5742 55.3269 -17.6277 56.3484 -17.0307 57.0115Z" fill="#970001" stroke="#970001" stroke-width="3.334" stroke-miterlimit="29" stroke-linecap="round" stroke-linejoin="round"/>
</g>
<mask id="mask1_394_1395" style="mask-type:luminance" maskUnits="userSpaceOnUse" x="0" y="0" width="90" height="90">
<path d="M90 45C90 20.1472 69.8528 0 45 0C20.1472 0 0 20.1472 0 45C0 69.8528 20.1472 90 45 90C69.8528 90 90 69.8528 90 45Z" fill="white"/>
</mask>
<g mask="url(#mask1_394_1395)">
<path opacity="0.997" d="M5.24272 83.4177L13.8096 92.9322C14.4066 93.5953 15.4281 93.6488 16.0912 93.0518L99.5493 17.9058C100.212 17.3087 100.266 16.2872 99.6689 15.6241L91.102 6.10965C90.505 5.44658 89.4835 5.39306 88.8204 5.99008L5.36229 81.1361C4.69922 81.7332 4.64569 82.7547 5.24272 83.4177Z" fill="#970001" stroke="#970001" stroke-width="3.334" stroke-miterlimit="29" stroke-linecap="round" stroke-linejoin="round"/>
</g>
<mask id="mask2_394_1395" style="mask-type:luminance" maskUnits="userSpaceOnUse" x="0" y="0" width="90" height="90">
<path d="M90 45C90 20.1472 69.8528 0 45 0C20.1472 0 0 20.1472 0 45C0 69.8528 20.1472 90 45 90C69.8528 90 90 69.8528 90 45Z" fill="white"/>
</mask>
<g mask="url(#mask2_394_1395)">
<path opacity="0.997" d="M31.7974 105.994L44.6924 120.315C45.2894 120.978 46.311 121.032 46.974 120.435L131.086 44.6994C131.75 44.1024 131.803 43.0809 131.206 42.4178L118.311 28.0965C117.714 27.4334 116.692 27.3799 116.029 27.9769L31.917 103.712C31.2539 104.309 31.2004 105.331 31.7974 105.994Z" fill="#970001" stroke="#970001" stroke-width="3.334" stroke-miterlimit="29" stroke-linecap="round" stroke-linejoin="round"/>
</g>
<mask id="mask3_394_1395" style="mask-type:luminance" maskUnits="userSpaceOnUse" x="8" y="15" width="82" height="74">
<path d="M19.0712 88.5254L89.4331 27.3607C90.1065 26.7753 90.1778 25.7549 89.5924 25.0815L82.0011 16.3487C81.4158 15.6753 80.3954 15.604 79.722 16.1893L9.36005 77.354C8.68666 77.9394 8.61532 78.9598 9.20068 79.6332L16.792 88.366C17.3774 89.0394 18.3978 89.1107 19.0712 88.5254Z" fill="white"/>
</mask>
<g mask="url(#mask3_394_1395)">
<path opacity="0.997" d="M52.8443 112.207L123.882 50.4544C124.556 49.8691 124.627 48.8486 124.042 48.1753L112.905 35.364C112.32 34.6906 111.299 34.6192 110.626 35.2046L39.5878 96.957C38.9144 97.5423 38.8431 98.5627 39.4284 99.2361L50.5651 112.047C51.1505 112.721 52.1709 112.792 52.8443 112.207Z" fill="#970001" stroke="#970001" stroke-width="3.334" stroke-miterlimit="29" stroke-linecap="round" stroke-linejoin="round"/>
</g>
<mask id="mask4_394_1395" style="mask-type:luminance" maskUnits="userSpaceOnUse" x="8" y="15" width="82" height="74">
<path d="M19.0712 88.5254L89.4331 27.3607C90.1065 26.7753 90.1778 25.7549 89.5924 25.0815L82.0011 16.3487C81.4158 15.6753 80.3954 15.604 79.722 16.1893L9.36005 77.354C8.68666 77.9394 8.61532 78.9598 9.20068 79.6332L16.792 88.366C17.3774 89.0394 18.3978 89.1107 19.0712 88.5254Z" fill="white"/>
</mask>
<g mask="url(#mask4_394_1395)">
<path opacity="0.997" d="M-0.573381 60.1113L69.7885 -1.05337C70.4619 -1.63874 70.5333 -2.65917 69.9479 -3.33255L62.3566 -12.0654C61.7712 -12.7387 60.7508 -12.8101 60.0774 -12.2247L-10.2845 48.94C-10.9579 49.5253 -11.0292 50.5457 -10.4439 51.2191L-2.85256 59.9519C-2.2672 60.6253 -1.24677 60.6967 -0.573381 60.1113Z" fill="#970001" stroke="#970001" stroke-width="3.334" stroke-miterlimit="29" stroke-linecap="round" stroke-linejoin="round"/>
</g>
</g>
<defs>
<clipPath id="clip0_394_1395">
<rect width="90" height="90" fill="white" transform="matrix(0 -1 1 0 0 90)"/>
</clipPath>
</defs>
</svg>
