<svg width="90" height="90" viewBox="0 0 90 90" fill="none" xmlns="http://www.w3.org/2000/svg">
<rect y="90" width="90" height="90" rx="45" transform="rotate(-90 0 90)" fill="#868F77"/>
<g clip-path="url(#clip0_1625_1017)">
<path d="M87.2624 53.4186L85.181 55.8673L85.0586 56.1121L85.9156 56.4794L89.9559 57.5813L91.67 57.7038L101.465 54.6429L111.504 52.0718L111.994 50.8475L113.096 46.195L113.586 39.5836L113.341 36.2779V34.6863L112.851 33.5844L112.973 33.2171L115.055 22.8103L114.81 16.0764L113.83 12.7707L111.749 12.8932L102.444 12.6483L95.0981 12.1586H91.1803H88.7316L89.8335 13.6278L90.5681 15.2194L91.4251 15.5867L91.67 16.3213V18.0354L90.5681 20.8513L89.2213 22.443L87.3848 23.4224L87.997 25.9935L89.0989 30.0338L90.5681 36.1555L90.9354 41.2977L90.3232 45.7053L89.0989 49.7456L87.2624 53.4186Z" fill="#85BAA4"/>
<path d="M63.1431 52.4391L60.8169 57.7038L61.1842 58.0711L62.1637 58.4384L63.6329 59.4178L70.4891 61.9889L75.9986 63.0908L80.2838 62.7235L84.4465 61.2543L86.7728 59.6627L87.7522 58.5608L89.099 58.8057L90.4458 57.8262L85.1811 55.9897L86.5279 54.3981L88.3644 51.7045L89.8336 47.4194L90.8131 42.3996V37.2574L90.0785 33.8293L88.4868 27.83L87.3849 23.5449L89.4663 22.1981L91.1804 19.8719L91.6701 16.9335L91.3028 15.4643L90.5682 15.3418L89.5887 13.138L86.6503 10.5669L82.8549 8.85287L79.4268 8.2407L75.5089 8.36314L70.3667 9.46503L64.7348 11.6688L61.6739 13.7502L59.8375 16.6886V17.3008L57.3888 17.1783L57.0215 17.4232L58.7356 21.0962L60.4496 25.3814L62.2861 30.0338L63.6329 35.9106L64.4899 41.5426V45.4604L64.1226 49.5007L63.1431 52.4391Z" fill="#A3A8A7"/>
<path d="M20.1692 61.6216L21.7608 70.5593L52.7364 76.5585L54.2056 74.1098L55.4299 70.9266L56.287 66.7638L56.6543 62.4787L56.4094 59.4178L60.5721 58.0711L61.4292 56.357L63.3881 51.827L64.2451 48.2764L64.6124 42.8893L63.633 36.4004L61.5516 27.7076L60.4497 25.2589L57.144 17.6681H53.471L47.2269 17.1783L40.4931 16.9335L34.0041 16.811L28.0049 17.3008L22.373 18.5251L19.3121 19.9943L17.4756 21.2186L13.3129 19.5046L6.82393 16.811L3.88553 16.0764L1.55929 17.0559L0.702261 18.77L0.579828 19.627L1.31443 22.3205L3.39579 24.4019L6.94636 25.8711L11.4764 26.4833L13.9251 26.116L13.068 27.9525L12.7007 29.4217L7.92583 29.1768L4.37526 28.8095L1.92659 29.0544L0.457394 30.0338L0.334961 31.6255L1.19199 32.7274L3.51823 34.4414L6.94636 35.0536L10.8642 34.319L13.1905 33.0947H13.4353L15.2718 40.3182L17.8429 51.0924L20.1692 61.6216Z" fill="#A38442"/>
<path d="M22.2505 45.8277L22.9851 48.3988L24.5767 48.0315L25.8011 47.052L26.5357 45.5828L26.6581 44.236L25.5562 42.6444L23.8421 42.2771L22.9851 42.522L22.3729 43.9912L22.2505 45.8277Z" fill="white"/>
<path d="M23.9646 46.4398L22.4954 45.9501L22.2505 44.9706L22.7402 42.7668L23.4748 42.2771L25.1889 42.522L26.6581 43.9912L26.5357 45.5828L23.9646 46.4398Z" fill="black"/>
<path d="M22.1279 34.6863L22.7401 37.2574H23.3523L25.6785 37.0126L26.7804 35.0536L26.658 31.8704L26.0458 30.0339L24.699 30.1563L23.1074 30.7685L22.1279 32.2377V34.6863Z" fill="white"/>
<path fill-rule="evenodd" clip-rule="evenodd" d="M12.9401 32.8547C13.05 32.7642 13.2125 32.7806 13.3026 32.8901C13.3927 33.0002 13.3766 33.1628 13.2666 33.2527C12.2554 34.0815 10.0313 35.0439 7.59781 35.2173C5.14919 35.3919 2.4955 34.7719 0.644935 32.4586C0.61817 32.4257 0.552683 32.3852 0.480171 32.3187C0.323886 32.1757 0.137102 31.9556 0.0488354 31.5898C-0.0398108 31.2228 -0.029181 30.6913 0.262763 29.9131C0.346221 29.6904 0.43512 29.5961 0.598492 29.5012C0.762181 29.4056 1.04305 29.3126 1.61106 28.9425C1.9497 28.7216 2.64931 28.6128 3.48187 28.5957C5.29662 28.5584 7.77169 28.895 8.12653 28.9431C9.33594 29.1082 12.5299 29.2462 12.9133 29.2633C13.0553 29.2696 13.1656 29.3898 13.1594 29.5315C13.1532 29.6739 13.0329 29.784 12.8909 29.7777C12.5037 29.7612 9.27829 29.6201 8.05699 29.4537C7.70822 29.4063 5.27599 29.0734 3.49256 29.1108C2.78295 29.1253 2.18109 29.1854 1.89244 29.374C1.4001 29.6948 1.11556 29.8163 0.935803 29.9049C0.8333 29.9555 0.786351 29.984 0.745034 30.0941C0.505164 30.7337 0.476691 31.1672 0.549519 31.469C0.616715 31.7474 0.773318 31.8948 0.881642 31.9859C0.957254 32.0498 1.01648 32.0986 1.04717 32.1371C2.77928 34.3024 5.26928 34.8674 7.56117 34.7035C9.86825 34.539 11.9815 33.6405 12.9401 32.8547Z" fill="black"/>
<path fill-rule="evenodd" clip-rule="evenodd" d="M13.2927 30.968C13.3272 31.1053 13.2433 31.2458 13.1054 31.28C12.9675 31.3148 12.8276 31.2306 12.7931 31.0927C11.9499 27.7202 13.8335 26.1314 14.1285 25.9732C14.2536 25.9055 14.4099 25.9523 14.4773 26.0776C14.5447 26.2029 14.4978 26.3592 14.3726 26.4262C14.1125 26.5667 12.5489 27.9923 13.2927 30.968Z" fill="black"/>
<path fill-rule="evenodd" clip-rule="evenodd" d="M14.1913 25.8246C14.2616 25.7835 14.3502 25.7765 14.4296 25.8132C14.5587 25.8727 14.615 26.0258 14.5554 26.1549L14.5148 26.2176L14.4683 26.2599L14.3351 26.3194C13.9992 26.4194 12.3681 26.6915 11.2168 26.663C8.71112 26.6023 6.47965 25.9189 6.08128 25.7968C6.02269 25.7791 6.02832 25.7816 5.34497 25.5842C4.46148 25.3279 2.6263 24.4579 1.37867 22.8109C1.07597 22.411 0.614007 21.4663 0.395397 20.4938C0.244553 19.8225 0.212727 19.1398 0.403876 18.6045C0.457089 18.4558 0.786555 17.6718 1.11412 17.1561C1.28458 16.8879 1.46909 16.6924 1.61202 16.6297C2.79479 16.1102 3.55515 15.9008 4.19687 15.8799C5.15034 15.8483 5.84584 16.2381 7.30404 16.7025C8.77275 17.1694 15.4792 20.1882 17.7361 21.1177C17.8676 21.1721 17.9303 21.3227 17.8762 21.4543C17.8221 21.5853 17.6715 21.6486 17.5401 21.5942C15.2915 20.6685 8.61109 17.6585 7.14789 17.1928C5.76833 16.7544 5.11592 16.3646 4.21389 16.3943C3.61855 16.4146 2.91634 16.6196 1.81912 17.1011C1.78887 17.1144 1.76033 17.1486 1.72572 17.1878C1.66833 17.2536 1.60886 17.3377 1.54894 17.432C1.24459 17.9116 0.938348 18.6393 0.888931 18.7778C0.726761 19.2321 0.769913 19.8111 0.897916 20.3806C1.09761 21.2689 1.51274 22.1351 1.78925 22.5002C2.95329 24.0365 4.66389 24.8508 5.48816 25.0894C6.17872 25.2893 6.17297 25.2862 6.23225 25.3045C6.61987 25.4228 8.79116 26.0891 11.2293 26.1486C12.3216 26.1752 13.8696 25.9208 14.1883 25.8259C14.1892 25.8253 14.1902 25.8253 14.1913 25.8246Z" fill="black"/>
<path fill-rule="evenodd" clip-rule="evenodd" d="M14.6729 23.3538C14.8141 23.369 14.9161 23.4968 14.9004 23.6379C14.8847 23.779 14.7573 23.8809 14.616 23.8657C12.1315 23.5892 10.8976 23.0235 9.94056 22.773C8.72273 22.4541 6.16262 20.6609 5.7509 20.4293C5.62701 20.3591 5.58304 20.2022 5.6527 20.0782C5.72237 19.9548 5.87954 19.9105 6.00343 19.9801C6.40395 20.2053 8.88636 21.9643 10.0711 22.275C11.0132 22.5218 12.2271 23.0818 14.6729 23.3538Z" fill="black"/>
<path fill-rule="evenodd" clip-rule="evenodd" d="M17.6496 20.9138C17.796 20.7278 18.2359 20.2577 19.2498 19.7654C19.3933 19.6958 19.485 19.6167 19.6009 19.5231C19.9185 19.2662 20.3821 18.8998 22.1005 18.2987C22.3038 18.2272 31.3827 15.7134 40.9855 16.7137C41.7667 16.7953 41.7707 16.4859 50.789 17.237C53.4297 17.4572 56.4726 17.3958 56.7966 17.4768C56.9345 17.511 57.0187 17.6514 56.9839 17.7894C56.9497 17.9273 56.8099 18.0108 56.6719 17.9767C56.3524 17.8969 53.3507 17.9678 50.7462 17.7501C41.7182 16.9984 41.7142 17.3072 40.9321 17.2262C31.4433 16.2379 22.4716 18.7144 22.2706 18.7847C20.6607 19.3484 20.2222 19.6831 19.9247 19.9236C19.777 20.0432 19.6577 20.14 19.4748 20.2286C18.3393 20.7803 18.0708 21.2036 18.0194 21.2814L17.9665 21.3447L17.9233 21.3757L17.8646 21.401L17.7726 21.4099L17.6642 21.3757L17.606 21.3302L17.5611 21.265L17.5401 21.203L17.5381 21.0998C17.5464 21.0214 17.5891 20.9549 17.6496 20.9138Z" fill="black"/>
<path fill-rule="evenodd" clip-rule="evenodd" d="M57.1609 17.4785C57.1382 17.4906 57.1185 17.5013 57.1021 17.5114C57.0913 17.5178 57.0787 17.5273 57.073 17.5317C57.0692 17.5437 57.0559 17.5886 57.0464 17.6241C57.0344 17.669 57.0198 17.7228 56.9983 17.7879C56.9534 17.9227 56.8072 17.9955 56.6725 17.9506C56.5377 17.9056 56.4649 17.7595 56.5099 17.6247C56.582 17.4077 56.5959 17.3083 56.6592 17.2235C56.7104 17.1558 56.7876 17.0894 56.9509 17.0071C56.9971 16.9844 57.1394 16.9553 57.3457 16.9489C57.9544 16.9287 59.2971 16.992 59.6716 17.0337C59.8134 17.0495 59.9152 17.1767 59.8994 17.3185C59.8836 17.4596 59.7564 17.5614 59.6153 17.5456C59.2964 17.5102 58.2594 17.4596 57.6096 17.4602C57.4109 17.4602 57.2014 17.4754 57.1609 17.4785Z" fill="black"/>
<path d="M24.087 35.4208L22.2505 34.8086L22.0056 33.7067L22.3729 31.6253L24.6991 31.258L26.6581 32.1151L26.7805 34.3189L24.087 35.4208Z" fill="black"/>
<path fill-rule="evenodd" clip-rule="evenodd" d="M67.9415 22.8369C67.7991 22.8318 67.6877 22.7129 67.6928 22.5705C67.6972 22.4288 67.8162 22.3168 67.9585 22.3218C73.4475 22.506 77.0155 20.8457 77.7609 20.3135C77.876 20.2307 78.0374 20.2579 78.1203 20.373C78.2025 20.4888 78.1759 20.6502 78.0602 20.7324C77.2901 21.2823 73.6108 23.0267 67.9415 22.8369Z" fill="black"/>
<path fill-rule="evenodd" clip-rule="evenodd" d="M78.002 20.6937C77.9337 20.6893 77.8666 20.657 77.8192 20.5994C77.7293 20.4893 77.7458 20.3273 77.8559 20.2375L77.9419 20.1818L78.0413 20.154L78.1577 20.1641L78.2146 20.1869L78.2741 20.2255C78.4051 20.3286 78.6873 20.9025 80.7443 22.0161C81.1062 22.2122 83.0899 22.671 84.3496 22.8646C84.7698 22.9291 85.2133 22.9418 85.262 22.9431C85.3759 22.8886 85.5151 22.9247 85.5873 23.0323C85.6664 23.1506 85.6341 23.3107 85.5158 23.3898L85.4247 23.4334C85.3943 23.4429 85.3557 23.4518 85.3101 23.4575C85.1981 23.4708 85.0153 23.4651 84.7843 23.441C83.5802 23.3164 80.9322 22.7039 80.4988 22.4691C78.7588 21.5264 78.1602 20.8905 78.002 20.6937Z" fill="black"/>
<path fill-rule="evenodd" clip-rule="evenodd" d="M77.797 17.2926C77.89 17.3762 77.9102 17.5173 77.84 17.6248C77.7615 17.7438 77.6021 17.7767 77.4831 17.6989C77.4477 17.6755 77.3566 17.5723 77.256 17.4021C76.977 16.9282 76.4303 15.8355 76.3683 15.7114C76.1968 15.3679 76.0456 15.2793 75.9386 15.1629C75.8323 15.0477 75.7482 14.918 75.7033 14.6472C75.6798 14.5073 75.7748 14.3745 75.9152 14.3511C76.0551 14.3276 76.1879 14.4226 76.2113 14.563C76.248 14.7832 76.3341 14.83 76.441 14.9351C76.5524 15.0452 76.6846 15.192 76.8289 15.4811C76.8896 15.6026 77.4262 16.6757 77.7002 17.1408C77.7381 17.2053 77.785 17.2749 77.797 17.2926Z" fill="black"/>
<path fill-rule="evenodd" clip-rule="evenodd" d="M79.103 17.7634C78.9847 17.8425 78.8246 17.8102 78.7455 17.6919C78.6664 17.5735 78.6987 17.4135 78.817 17.335C78.9056 17.2755 78.96 17.1661 79.0334 17.0262C79.1852 16.7358 79.37 16.3321 79.7477 15.8462C79.8351 15.7342 79.997 15.7139 80.109 15.8013C80.221 15.8886 80.2413 16.0499 80.154 16.1625C79.8015 16.6162 79.6313 16.9946 79.489 17.2654C79.3662 17.4995 79.251 17.6647 79.103 17.7634Z" fill="black"/>
<path fill-rule="evenodd" clip-rule="evenodd" d="M90.5768 14.7897C90.6047 14.8359 90.6774 14.9599 90.7919 15.1896C90.8558 15.3167 90.804 15.4718 90.6768 15.535C90.5496 15.5989 90.3952 15.5471 90.3313 15.4199C90.1674 15.0915 90.1212 15.0352 90.1061 15.0061L90.0744 14.9099C90.0251 14.6125 89.7985 13.3337 87.8953 11.8342C83.6414 8.48256 79.6691 8.47876 78.9016 8.47876C71.5555 8.47876 66.374 11.3084 66.1564 11.3805C64.2493 12.0164 62.1645 13.7393 61.8785 14.0063C61.2267 14.6144 60.5548 15.7888 60.2321 16.6031C60.1119 16.9074 60.0315 17.1504 60.0499 17.277C60.0701 17.4174 59.972 17.5484 59.8316 17.5686C59.6911 17.5889 59.5601 17.4908 59.5399 17.3504C59.5152 17.1763 59.5873 16.8321 59.7537 16.4133C60.0999 15.5388 60.8275 14.2822 61.5267 13.6299C61.826 13.3508 64.0032 11.5551 65.9938 10.892C66.214 10.8186 71.4631 7.96372 78.9016 7.96372C79.6963 7.96372 83.8103 7.95992 88.2142 11.4298C90.2358 13.0224 90.5116 14.405 90.5768 14.7897Z" fill="black"/>
<path fill-rule="evenodd" clip-rule="evenodd" d="M85.1726 23.4358C85.0581 23.5193 84.8968 23.4947 84.8126 23.3801C84.7285 23.2656 84.7531 23.1043 84.8683 23.0201C85.1619 22.805 85.4675 22.7158 85.8338 22.5911C86.6007 22.3304 87.6416 21.8584 89.4765 19.2383C89.946 18.5663 90.4844 17.099 90.6034 16.1157C90.6268 15.9208 90.6344 15.7462 90.6173 15.6038C90.6066 15.5146 90.5958 15.4406 90.5547 15.3995C90.4541 15.2988 90.4541 15.1356 90.5547 15.035C90.6547 14.9344 90.8185 14.9344 90.9185 15.035C91.0084 15.1242 91.0767 15.2577 91.1115 15.4317C91.1507 15.626 91.1507 15.8835 91.1147 16.1777C90.9868 17.2344 90.4035 18.8112 89.8979 19.5331C87.9459 22.3228 86.8165 22.8012 86.0003 23.079C85.6877 23.1853 85.4232 23.2517 85.1726 23.4358Z" fill="black"/>
<path fill-rule="evenodd" clip-rule="evenodd" d="M84.9734 23.5592C84.8538 23.482 84.8196 23.3225 84.8975 23.2029C84.9747 23.084 85.1341 23.0498 85.2537 23.127C85.4726 23.2694 86.0073 23.3358 86.6704 23.2428C88.344 23.0087 90.7617 21.6919 91.4444 17.5944C91.495 17.2925 91.4874 16.6123 91.3317 16.0682C91.2837 15.9012 91.2223 15.7474 91.1407 15.6259C91.0793 15.5354 91.0091 15.4627 90.9173 15.4323C90.7825 15.3874 90.7098 15.2412 90.7547 15.1064C90.7996 14.9717 90.9458 14.8989 91.0806 14.9438C91.3571 15.0356 91.5735 15.2817 91.7177 15.6177C91.9993 16.27 92.0202 17.2723 91.9525 17.6791C91.2134 22.1127 88.5528 23.4997 86.7419 23.7528C85.9124 23.8692 85.2474 23.7376 84.9734 23.5592Z" fill="black"/>
<path fill-rule="evenodd" clip-rule="evenodd" d="M65.9161 58.1669C65.9389 58.1694 66.0098 58.1769 66.0901 58.184C67.3347 58.2935 73.6614 58.7349 74.2657 58.777C79.6496 59.1526 81.4763 58.6544 84.3743 55.7564C84.4749 55.6558 84.6381 55.6558 84.7387 55.7564C84.8393 55.8568 84.8393 56.0201 84.7387 56.1206C81.7237 59.1357 79.8312 59.6817 74.2296 59.2909C73.6254 59.2487 67.2904 58.8067 66.0452 58.6971C65.8902 58.6835 65.7984 58.6696 65.7839 58.6652L65.7326 58.6438L65.6782 58.6039L65.6371 58.5533L65.6105 58.4961L65.5991 58.4374L65.6023 58.3733L65.6453 58.2693C65.708 58.1803 65.8161 58.143 65.9161 58.1669ZM66.1009 58.3389C66.1249 58.4131 66.1148 58.497 66.0667 58.5654C66.118 58.4927 66.1262 58.4167 66.1009 58.3389Z" fill="black"/>
<path fill-rule="evenodd" clip-rule="evenodd" d="M76.9751 60.846C76.9625 60.9876 76.8366 61.092 76.6955 61.0792C76.5537 61.0663 76.4493 60.9409 76.462 60.7994C76.5518 59.8133 76.9327 59.5557 77.4326 58.9785C77.5256 58.8711 77.6882 58.8594 77.7958 58.9526C77.9034 59.0456 77.9147 59.2084 77.8217 59.3158C77.3978 59.8051 77.0511 60.0103 76.9751 60.846Z" fill="black"/>
<path fill-rule="evenodd" clip-rule="evenodd" d="M87.4981 58.5676C87.5987 58.467 87.762 58.467 87.8626 58.5676C87.9632 58.6681 87.9632 58.8313 87.8626 58.9318C87.7202 59.074 85.2892 62.6531 77.9324 63.2661C75.3882 63.4782 70.9964 62.4047 67.5904 61.2556C65.3005 60.483 63.4554 59.6711 62.8936 59.2031C62.5323 58.9017 62.1337 58.703 62.0628 58.6676C61.9362 58.6041 61.8844 58.4493 61.9476 58.3221C62.0115 58.195 62.1666 58.1434 62.2931 58.2069C62.3728 58.2465 62.8183 58.4698 63.2232 58.8074C63.7642 59.2582 65.5492 60.0233 67.7549 60.7676C71.0938 61.8939 75.3958 62.9607 77.89 62.7529C85.0064 62.1599 87.3608 58.7051 87.4981 58.5676Z" fill="black"/>
<path fill-rule="evenodd" clip-rule="evenodd" d="M62.0881 58.1625C62.2286 58.1839 62.3254 58.3153 62.3045 58.4558C62.283 58.5964 62.1514 58.693 62.0109 58.6717C61.4332 58.5838 61.0523 58.3739 60.8144 58.2348C60.7404 58.1917 60.6872 58.155 60.6486 58.142C60.5139 58.0971 60.4405 57.9511 60.4854 57.8163C60.5303 57.6814 60.6765 57.6084 60.8112 57.6534C60.872 57.6736 60.9593 57.7229 61.0738 57.7901C61.2763 57.9081 61.5984 58.088 62.0881 58.1625Z" fill="black"/>
<path fill-rule="evenodd" clip-rule="evenodd" d="M56.8339 59.4874C56.8307 59.4917 56.8269 59.4958 56.8225 59.4998C56.7219 59.6003 56.5586 59.6003 56.458 59.4998L56.415 59.4435L56.391 59.3905L56.3777 59.3125L56.3865 59.2375L56.4125 59.1725L56.4574 59.1122L56.5156 59.0647L56.5852 59.0271C56.8054 58.927 57.6242 58.759 58.5163 58.5205C59.3541 58.2965 60.2627 58.0105 60.7423 57.6377C60.8543 57.5504 61.0163 57.5706 61.1036 57.6829C61.1909 57.7951 61.1707 57.957 61.0587 58.0442C60.6392 58.3703 59.9242 58.6466 59.1851 58.8672C58.243 59.1483 57.0541 59.4349 56.8339 59.4874ZM56.8883 59.247C56.8788 59.2085 56.8579 59.1711 56.8225 59.1356C56.8548 59.1677 56.8763 59.2062 56.8883 59.247Z" fill="black"/>
<path fill-rule="evenodd" clip-rule="evenodd" d="M60.5851 57.5781C60.6016 57.5469 60.7528 57.2604 60.9205 56.9149C61.7297 55.2437 63.6514 51.0315 63.8152 49.3895C64.317 44.3738 64.6112 44.3808 63.9848 39.3727C63.8292 38.1262 62.0278 28.5966 60.7389 26.3871C59.9043 24.9565 58.6034 21.5511 57.6916 19.4289C57.3215 18.5671 57.0298 17.9236 56.8577 17.7515C56.7571 17.6509 56.7571 17.4876 56.8577 17.387C56.9583 17.2864 57.1215 17.2864 57.2221 17.387C57.412 17.5769 57.7568 18.2754 58.1649 19.2251C59.0691 21.3303 60.3561 24.7084 61.1837 26.1276C62.4928 28.3713 64.3379 38.0427 64.4961 39.3088C65.1294 44.3745 64.8352 44.3675 64.3278 49.4408C64.1601 51.1193 62.2113 55.4311 61.3836 57.1395C61.2166 57.4849 61.0945 57.725 61.042 57.8178L60.9743 57.9134C60.8737 58.014 60.711 58.014 60.6104 57.9134C60.5187 57.8221 60.5105 57.6789 60.5851 57.5781Z" fill="black"/>
<path fill-rule="evenodd" clip-rule="evenodd" d="M59.6526 17.4338C59.645 17.4275 59.6374 17.4205 59.6298 17.4129L59.5804 17.344L59.5564 17.2725L59.5532 17.1991L59.5545 17.194C59.5558 17.1181 59.5899 17.0441 59.6538 16.9941C59.7563 16.9143 59.9025 16.9232 59.9942 17.0156L60.0309 17.0662L60.0328 17.0649C60.484 17.8166 60.5928 18.1494 60.6567 18.357C60.6871 18.4544 60.6978 18.5145 60.7599 18.5955C62.1348 20.383 67.21 33.8615 67.2966 34.207C68.9171 40.6894 68.1217 43.4614 67.6731 46.3441C67.2005 49.3806 65.6281 53.7062 64.1463 56.246C63.7565 56.9138 63.3718 57.4599 63.0149 57.8328C62.7523 58.1077 62.4986 58.2919 62.2689 58.3781C62.1361 58.428 61.9874 58.3605 61.9374 58.2274C61.8874 58.0943 61.9551 57.9457 62.088 57.8958C62.2607 57.831 62.4448 57.6836 62.6429 57.4768C62.9776 57.127 63.3357 56.6128 63.7014 55.9864C65.1561 53.493 66.7006 49.2465 67.1638 46.265C67.6048 43.431 68.39 40.7052 66.7968 34.3323C66.7114 33.9906 61.7096 20.6747 60.3517 18.9094C60.2676 18.7999 60.2296 18.7138 60.1936 18.6025C60.136 18.4247 60.0797 18.1602 59.6526 17.4338ZM59.5564 17.1845L59.5659 17.1383C59.5615 17.1541 59.5583 17.1693 59.5564 17.1845ZM59.5558 17.2244C59.5589 17.2674 59.5747 17.3066 59.5975 17.3408C59.5956 17.337 59.5931 17.3332 59.5912 17.33C59.5716 17.2965 59.5596 17.2604 59.5558 17.2244ZM60.0183 17.0763C60.0107 17.0668 60.0025 17.0573 59.9942 17.0491C60.0031 17.058 60.0107 17.0668 60.0183 17.0763Z" fill="black"/>
<path fill-rule="evenodd" clip-rule="evenodd" d="M62.1956 55.5496C62.0564 55.5218 61.966 55.386 61.9938 55.2466C62.0216 55.1072 62.1577 55.0167 62.2969 55.0446C62.3886 55.063 63.0296 55.1917 63.5054 55.2171C63.6585 55.2253 63.7895 55.2347 63.8553 55.202C63.9825 55.1384 64.1375 55.19 64.2008 55.3171C64.2641 55.4443 64.2128 55.5991 64.0856 55.6627C63.9711 55.7198 63.7452 55.7457 63.4782 55.7315C62.9733 55.7045 62.2937 55.5692 62.1956 55.5496Z" fill="black"/>
<path fill-rule="evenodd" clip-rule="evenodd" d="M62.8803 53.2817C62.7575 53.2094 62.717 53.0513 62.7891 52.929C62.8619 52.8066 63.0201 52.766 63.1422 52.8383C63.2352 52.8934 63.4193 52.9158 63.6326 52.9349C64.2273 52.988 65.024 52.9496 65.141 52.944C65.2834 52.9373 65.4042 53.047 65.4106 53.189C65.4175 53.331 65.3081 53.4517 65.1657 53.4585C65.0429 53.4643 64.209 53.5036 63.5864 53.4479C63.277 53.4202 63.0157 53.3618 62.8803 53.2817Z" fill="black"/>
<path fill-rule="evenodd" clip-rule="evenodd" d="M63.985 51.1257C63.8433 51.1338 63.7212 51.0252 63.7136 50.8833C63.7053 50.7414 63.8136 50.6196 63.9559 50.6114C65.6301 50.5158 65.6219 50.5651 65.9509 50.4552C66.0863 50.4103 66.2319 50.4833 66.2768 50.6182C66.3217 50.753 66.2489 50.899 66.1142 50.9439C65.7624 51.0611 65.7725 51.0236 63.985 51.1257Z" fill="black"/>
<path fill-rule="evenodd" clip-rule="evenodd" d="M64.4848 47.6962C64.3437 47.7151 64.2147 47.6158 64.1957 47.4747C64.1767 47.3342 64.276 47.2045 64.4171 47.1855C66.9158 46.854 66.962 46.8799 67.1771 46.9337C67.3144 46.9679 67.3986 47.1084 67.3644 47.2463C67.3296 47.3842 67.1898 47.4677 67.0519 47.4336C66.8519 47.3836 66.8114 47.3874 64.4848 47.6962Z" fill="black"/>
<path fill-rule="evenodd" clip-rule="evenodd" d="M64.9265 44.8807C64.7854 44.8984 64.6569 44.7985 64.6392 44.6574C64.6215 44.5163 64.7221 44.3872 64.8632 44.3701C66.1964 44.2037 66.173 44.086 67.5062 44.1885C67.6479 44.1993 67.7542 44.3233 67.7428 44.465C67.732 44.6067 67.608 44.713 67.4663 44.7023C66.1856 44.6036 66.2084 44.7213 64.9265 44.8807Z" fill="black"/>
<path fill-rule="evenodd" clip-rule="evenodd" d="M67.3532 39.8547C67.4291 39.7895 67.5399 39.7724 67.6354 39.8199C67.7626 39.8838 67.8138 40.0382 67.7506 40.1654L67.6981 40.2388L67.6367 40.2869C67.5842 40.3204 67.4595 40.3678 67.2836 40.4166C66.7895 40.5532 65.815 40.7494 65.2348 40.8943C65.0741 40.9348 64.8938 40.9936 64.8653 41.0031C64.7647 41.0759 64.623 41.067 64.5325 40.9765C64.4319 40.8759 64.4319 40.7127 64.5325 40.6121C64.5692 40.5747 64.7109 40.502 64.933 40.4412C65.5493 40.2723 66.9628 40.0028 67.3374 39.861C67.3418 39.8591 67.3482 39.8566 67.3532 39.8547Z" fill="black"/>
<path fill-rule="evenodd" clip-rule="evenodd" d="M64.4929 38.7416C64.365 38.8043 64.2107 38.7518 64.148 38.624C64.0854 38.4968 64.1379 38.3418 64.2651 38.2791C65.4306 37.7059 66.617 37.7938 67.6477 37.7647C67.79 37.7603 67.9084 37.8723 67.9122 38.0146C67.9166 38.1564 67.8046 38.2753 67.6622 38.2791C66.6973 38.307 65.5837 38.2045 64.4929 38.7416Z" fill="black"/>
<path fill-rule="evenodd" clip-rule="evenodd" d="M63.4176 34.9941C63.279 35.0251 63.1417 34.9378 63.1107 34.7986C63.0797 34.66 63.1677 34.5221 63.3062 34.4917C65.107 34.0912 65.0659 33.9128 66.9021 33.8432C67.0438 33.8381 67.164 33.9488 67.1691 34.0906C67.1741 34.2329 67.0634 34.3525 66.9217 34.3576C65.1323 34.4253 65.1728 34.6043 63.4176 34.9941Z" fill="black"/>
<path fill-rule="evenodd" clip-rule="evenodd" d="M62.9682 32.4973C62.8271 32.5156 62.698 32.4157 62.6797 32.2752C62.6613 32.1341 62.7613 32.005 62.9018 31.9867C64.4228 31.7899 64.3817 31.5064 65.8933 31.681C66.0344 31.6975 66.1357 31.8253 66.1192 31.9664C66.1034 32.1075 65.9749 32.2087 65.8338 32.1929C64.3855 32.0259 64.426 32.3087 62.9682 32.4973Z" fill="black"/>
<path fill-rule="evenodd" clip-rule="evenodd" d="M62.5368 29.5943C62.5172 29.6197 62.4925 29.6418 62.4634 29.6589C62.34 29.7304 62.1825 29.688 62.1116 29.5652L62.0787 29.4798L62.0762 29.3779L62.0977 29.3058L62.1464 29.2305C62.1875 29.1843 62.2945 29.1179 62.4653 29.0761C63.0297 28.9388 64.6065 28.849 64.7678 28.8401C64.9096 28.8319 65.0311 28.9407 65.0393 29.0831C65.0469 29.2248 64.938 29.3463 64.7963 29.3545C64.6729 29.3609 63.6991 29.4153 63.0234 29.5026C62.8336 29.5273 62.626 29.5741 62.5368 29.5943ZM62.5792 29.3564C62.5735 29.34 62.5665 29.3235 62.5571 29.3071C62.5659 29.3229 62.5735 29.3394 62.5792 29.3564Z" fill="black"/>
<path fill-rule="evenodd" clip-rule="evenodd" d="M61.5844 27.4816C61.4522 27.5335 61.3022 27.4683 61.2503 27.3361C61.1985 27.2038 61.263 27.0539 61.3952 27.002C62.7069 26.4857 62.6493 26.1845 64.0388 26.3743C64.1799 26.3933 64.2786 26.523 64.2596 26.6641C64.24 26.8052 64.1103 26.9039 63.9692 26.8843C62.712 26.7128 62.7708 27.014 61.5844 27.4816Z" fill="black"/>
<path fill-rule="evenodd" clip-rule="evenodd" d="M60.6181 25.493C60.4802 25.5278 60.3404 25.4437 60.3062 25.3057C60.2714 25.1678 60.3555 25.0279 60.4935 24.9931C61.759 24.6768 61.7058 24.5199 63.0023 24.4117C63.144 24.4003 63.2687 24.5053 63.2807 24.647C63.2921 24.7888 63.187 24.9134 63.0453 24.9254C61.7906 25.0298 61.8431 25.1868 60.6181 25.493Z" fill="black"/>
<path fill-rule="evenodd" clip-rule="evenodd" d="M59.9273 23.5131C59.8001 23.5763 59.6457 23.5245 59.5818 23.3973C59.5185 23.2707 59.5698 23.1157 59.6969 23.0518C60.7758 22.5127 60.7372 22.4343 61.9299 22.2179C62.0697 22.1925 62.2038 22.2849 62.2291 22.4248C62.2545 22.5646 62.1614 22.6987 62.0216 22.7247C60.9023 22.9278 60.9403 23.0063 59.9273 23.5131Z" fill="black"/>
<path fill-rule="evenodd" clip-rule="evenodd" d="M58.8686 20.8811C58.7389 20.9386 58.5864 20.8804 58.5288 20.7501C58.4712 20.6204 58.5294 20.4679 58.6591 20.4103C59.7367 19.932 60.9022 20.1781 60.987 20.1863C61.1287 20.2009 61.2318 20.3268 61.2179 20.4685C61.2034 20.6096 61.0775 20.7134 60.9357 20.6995C60.8604 20.6919 59.8246 20.4565 58.8686 20.8811Z" fill="black"/>
<path fill-rule="evenodd" clip-rule="evenodd" d="M70.1896 21.2226C70.1687 21.2087 70.0624 21.1378 69.9555 21.0708C69.3209 20.6753 67.7567 19.7547 67.3847 19.6484C67.248 19.6092 67.1689 19.4668 67.2075 19.3301C67.2468 19.1935 67.3891 19.1144 67.5264 19.153C67.9162 19.2643 69.5626 20.2191 70.2282 20.6336C70.368 20.7209 70.4668 20.7861 70.5053 20.8158L70.58 20.8917C70.6591 21.01 70.6268 21.1701 70.5085 21.2492C70.4073 21.3169 70.275 21.303 70.1896 21.2226Z" fill="black"/>
<path fill-rule="evenodd" clip-rule="evenodd" d="M84.8709 55.9281C84.8285 56.0639 84.6843 56.1398 84.5482 56.0976C84.4128 56.0554 84.3369 55.9109 84.3786 55.7752C86.2281 49.8297 86.8261 49.9501 87.5347 40.7355C88.1067 33.3065 86.5287 25.9219 85.8099 23.7649C85.7643 23.6301 85.8377 23.4839 85.9725 23.439C86.1073 23.3941 86.2534 23.4669 86.2984 23.6016C87.026 25.7846 88.6268 33.2572 88.0485 40.7753C87.3342 50.0589 86.7337 49.9379 84.8709 55.9281Z" fill="black"/>
<path fill-rule="evenodd" clip-rule="evenodd" d="M84.5753 56.3205C84.4361 56.2901 84.3482 56.1528 84.3786 56.014C84.4089 55.8751 84.5462 55.7869 84.6848 55.8173C84.7272 55.8265 84.7778 55.8041 84.8398 55.7757C84.9493 55.7258 85.0739 55.6423 85.2119 55.5293C85.6738 55.1516 86.2616 54.462 86.8798 53.5055C89.3322 49.71 92.2036 41.7648 89.4525 32.1365C89.2816 31.5385 87.858 26.5558 87.4707 24.6196C87.3638 24.0837 87.1259 23.6091 87.0841 23.5256C87.0209 23.3984 87.0721 23.244 87.1993 23.1801C87.3265 23.1168 87.4815 23.1681 87.5448 23.2953C87.5916 23.3883 87.8561 23.9191 87.9763 24.519C88.361 26.4444 89.7777 31.4006 89.9473 31.9954C92.7528 41.8142 89.8131 49.9145 87.3126 53.785C86.5431 54.976 85.8079 55.7716 85.2897 56.1118C84.9974 56.3037 84.7481 56.3582 84.5753 56.3205Z" fill="black"/>
<path fill-rule="evenodd" clip-rule="evenodd" d="M86.4401 51.4355C86.4812 51.4359 86.5824 51.4355 86.6609 51.4253C86.9943 51.3817 87.4233 51.2587 87.4822 51.2417C87.5334 51.2271 88.077 51.0757 88.1193 51.0545C88.2465 50.991 88.4015 51.0426 88.4648 51.1697C88.5287 51.2969 88.4768 51.4517 88.3497 51.5152C88.3016 51.5394 87.6821 51.7203 87.6239 51.737C87.5391 51.7612 86.7849 51.9706 86.4299 51.9531C86.3414 51.9487 86.268 51.931 86.2148 51.9068L86.1155 51.8401L86.0547 51.7625C85.9858 51.6384 86.0301 51.4814 86.1541 51.4121C86.2477 51.3595 86.361 51.3723 86.4401 51.4355Z" fill="black"/>
<path fill-rule="evenodd" clip-rule="evenodd" d="M87.1221 49.6644C86.9822 49.6899 86.8481 49.597 86.8228 49.4574C86.7975 49.3175 86.8898 49.1834 87.0297 49.1574C87.1961 49.1277 88.5843 48.8803 89.0734 48.6354C89.2006 48.5722 89.3556 48.6234 89.4189 48.7506C89.4828 48.8778 89.4309 49.0328 89.3037 49.0961C88.7811 49.358 87.2999 49.6322 87.1221 49.6644Z" fill="black"/>
<path fill-rule="evenodd" clip-rule="evenodd" d="M87.4254 46.7344C87.2849 46.7578 87.152 46.6629 87.1286 46.5225C87.1059 46.3826 87.2001 46.2498 87.3406 46.2263C88.3871 46.0517 89.8437 45.6423 90.1101 45.5278C90.2404 45.4721 90.3923 45.5329 90.448 45.6632C90.5043 45.7935 90.4435 45.9454 90.3126 46.0011C90.0348 46.1207 88.5169 46.5522 87.4254 46.7344Z" fill="black"/>
<path fill-rule="evenodd" clip-rule="evenodd" d="M87.7897 43.5583C87.8055 43.5545 87.8434 43.545 87.8782 43.5349C88.0535 43.4874 88.4268 43.3874 89.3848 43.228C89.7897 43.1603 89.9979 43.1192 90.0536 43.1078C90.1548 43.0293 90.3004 43.0369 90.3934 43.1293C90.494 43.2299 90.494 43.3931 90.3934 43.4937L90.313 43.557L90.196 43.6038C90.1118 43.6272 89.9277 43.6595 89.4696 43.7354C88.387 43.9164 88.0744 44.017 87.9396 44.0524C87.8257 44.0816 87.7757 44.0809 87.6979 44.0651C87.5587 44.0366 87.4695 43.9 87.498 43.7608C87.5258 43.626 87.6549 43.5374 87.7897 43.5583Z" fill="black"/>
<path fill-rule="evenodd" clip-rule="evenodd" d="M88.0689 41.4783C87.9272 41.4916 87.8013 41.3879 87.788 41.2461C87.7747 41.1044 87.8785 40.9791 88.0196 40.9652C89.2629 40.8469 89.199 40.6849 90.3772 40.3382C90.5138 40.2983 90.6568 40.3761 90.6967 40.5122C90.7372 40.6488 90.6587 40.7918 90.5227 40.8323C89.2971 41.193 89.3623 41.3543 88.0689 41.4783Z" fill="black"/>
<path fill-rule="evenodd" clip-rule="evenodd" d="M88.1599 38.3674C88.1681 38.3655 88.1839 38.3617 88.1966 38.3585C88.575 38.2624 90.2232 37.7492 90.2802 37.7245C90.4105 37.6689 90.5624 37.7296 90.6181 37.8599C90.6744 37.9909 90.6136 38.1421 90.4827 38.1984C90.4308 38.2206 89.078 38.6445 88.5028 38.8084C88.3788 38.8438 88.2877 38.8679 88.2485 38.8748L88.1517 38.8793C88.0106 38.8616 87.9106 38.7325 87.9283 38.5914C87.9435 38.4693 88.0422 38.3781 88.1599 38.3674Z" fill="black"/>
<path fill-rule="evenodd" clip-rule="evenodd" d="M88.1142 36.0286C87.9744 36.0027 87.882 35.8679 87.9079 35.7281C87.9339 35.5882 88.0686 35.4959 88.2085 35.5224C88.2351 35.5269 88.2496 35.5237 88.3167 35.5117C88.5021 35.4788 88.9045 35.3908 89.9219 35.1871C90.0611 35.1593 90.1972 35.2497 90.225 35.3889C90.2528 35.5288 90.1624 35.6642 90.0232 35.692C88.9988 35.897 88.5932 35.9856 88.4065 36.0185C88.2256 36.0508 88.1857 36.0419 88.1142 36.0286Z" fill="black"/>
<path fill-rule="evenodd" clip-rule="evenodd" d="M88.3201 34.0468C88.186 34.0942 88.0385 34.0234 87.9917 33.8892C87.9449 33.7551 88.0158 33.6076 88.1499 33.5608C88.9706 33.2736 88.9548 33.3153 89.8197 33.1426C89.9595 33.1147 90.0949 33.2052 90.1234 33.3444C90.1506 33.4836 90.0608 33.6197 89.9209 33.6475C89.0914 33.8133 89.1066 33.7715 88.3201 34.0468Z" fill="black"/>
<path fill-rule="evenodd" clip-rule="evenodd" d="M87.9503 31.1585C87.9661 31.1585 88.0022 31.1579 88.0382 31.1554C88.1901 31.1433 88.4679 31.106 89.0158 31.0275C89.1569 31.0073 89.2873 31.1054 89.3075 31.2458C89.3271 31.3869 89.2297 31.5173 89.0886 31.5375C88.4021 31.6356 88.1211 31.6704 87.987 31.6742C87.8256 31.678 87.7826 31.6514 87.7181 31.6185C87.5915 31.5533 87.5415 31.3983 87.6061 31.2718C87.67 31.1459 87.8244 31.0952 87.9503 31.1585Z" fill="black"/>
<path fill-rule="evenodd" clip-rule="evenodd" d="M87.6267 29.1514C87.4862 29.1729 87.3546 29.0767 87.3331 28.9363C87.3116 28.7958 87.4078 28.6642 87.5482 28.6427C87.6033 28.6338 87.993 28.5744 88.2328 28.5402C88.3733 28.5199 88.5036 28.618 88.5239 28.7585C88.5441 28.8989 88.4461 29.0299 88.3056 29.0495C88.0677 29.0837 87.6811 29.1432 87.6267 29.1514Z" fill="black"/>
<path fill-rule="evenodd" clip-rule="evenodd" d="M87.2393 27.0576C87.0976 27.0507 86.9875 26.9298 86.9945 26.7881C87.0014 26.6457 87.1223 26.5363 87.2646 26.5432C87.6291 26.5609 87.5962 26.5261 87.9379 26.4939C88.079 26.4806 88.2049 26.5843 88.2188 26.7261C88.2321 26.8672 88.1283 26.9931 87.9866 27.0064C87.6082 27.0424 87.6436 27.0772 87.2393 27.0576Z" fill="black"/>
<path fill-rule="evenodd" clip-rule="evenodd" d="M86.8512 24.9274C86.7095 24.9204 86.5994 24.8002 86.6057 24.6579C86.6121 24.5161 86.7329 24.406 86.8746 24.4124L86.9177 24.4143C87.0594 24.4212 87.1695 24.5414 87.1632 24.6838C87.1562 24.8255 87.036 24.9356 86.8936 24.9293L86.8512 24.9274Z" fill="black"/>
<path fill-rule="evenodd" clip-rule="evenodd" d="M86.8114 24.8579C86.6716 24.8813 86.5387 24.7864 86.5153 24.6459C86.4919 24.5061 86.5868 24.3732 86.7272 24.3498C86.7911 24.3391 86.7817 24.3549 87.539 24.3125C87.6808 24.3049 87.8023 24.4137 87.8105 24.5555C87.8181 24.6972 87.7092 24.8187 87.5675 24.8269C86.8633 24.8661 86.8715 24.8478 86.8114 24.8579Z" fill="black"/>
<path fill-rule="evenodd" clip-rule="evenodd" d="M87.1078 53.367C87.2027 53.325 87.3172 53.3427 87.395 53.4202C87.495 53.5208 87.495 53.684 87.395 53.7844L87.3488 53.8214L87.2856 53.8519C87.2501 53.8645 87.1717 53.8807 87.0635 53.8936C86.6547 53.9424 85.6961 53.9906 85.5898 53.9959C85.4481 54.003 85.3266 53.8935 85.3197 53.7515C85.3127 53.6095 85.4222 53.4885 85.5639 53.4814C85.6797 53.4757 86.8363 53.4195 87.1078 53.3671V53.367Z" fill="black"/>
<path fill-rule="evenodd" clip-rule="evenodd" d="M24.0125 86.9951C24.0742 87.1232 24.0203 87.2772 23.8922 87.3389C23.7641 87.4005 23.6101 87.3466 23.5485 87.2185C23.3261 86.7564 23.107 85.6888 22.9159 84.3954C22.4811 81.4512 22.1627 77.3149 22.1176 76.7276C20.841 60.1323 13.481 35.5602 13.2935 33.1236C13.2826 32.9819 13.3888 32.8578 13.5305 32.8471C13.6722 32.8357 13.7961 32.942 13.8071 33.0837C13.9946 35.521 21.3545 60.0929 22.6311 76.6881C22.6761 77.2726 22.9926 81.3896 23.4255 84.3202C23.6064 85.5445 23.802 86.5578 24.0125 86.9951Z" fill="black"/>
<path fill-rule="evenodd" clip-rule="evenodd" d="M23.707 87.4101C23.5658 87.4265 23.4379 87.3252 23.4214 87.1841C23.405 87.0428 23.5063 86.9149 23.6474 86.8984C24.3348 86.8185 24.9759 87.0515 25.8658 87.4062C27.8104 88.1811 31.0382 89.5098 39.1237 88.836C50.0224 87.9278 52.5091 76.7731 52.9973 75.6745C53.055 75.5447 53.2073 75.4861 53.3372 75.5438C53.4671 75.6015 53.5257 75.7539 53.468 75.8838C52.9665 77.0121 50.3615 88.4164 39.1665 89.3493C30.9379 90.035 27.6541 88.6733 25.6751 87.8846C24.8834 87.5691 24.3185 87.3389 23.707 87.4101Z" fill="black"/>
<path fill-rule="evenodd" clip-rule="evenodd" d="M53.6372 75.5585C53.697 75.6875 53.641 75.8407 53.512 75.9006C53.3831 75.9604 53.2299 75.9043 53.17 75.7754C53.0637 75.5463 53.0859 75.3891 53.2258 75.1696C53.5543 74.6541 54.8844 73.5409 56.0234 66.7062C56.7333 62.4477 56.4479 62.4379 55.9708 59.0962C55.9506 58.9556 56.0487 58.825 56.1891 58.8048C56.3296 58.7848 56.4606 58.8827 56.4808 59.0234C56.968 62.4343 57.2559 62.4442 56.5314 66.791C55.5089 72.9246 54.3226 74.5608 53.8186 75.2291C53.7584 75.309 53.7083 75.3738 53.6704 75.4308C53.638 75.4795 53.6143 75.5093 53.6372 75.5585Z" fill="black"/>
<path fill-rule="evenodd" clip-rule="evenodd" d="M21.7441 70.209C21.6031 70.2269 21.4741 70.1269 21.4562 69.9859C21.4383 69.8449 21.5382 69.7159 21.6792 69.698C24.8424 69.2964 25.3833 67.926 33.7694 67.6265C34.4464 67.6023 38.3383 67.2236 42.3939 67.9732C45.1304 68.4791 47.9374 69.5002 49.9059 71.4687C50.9607 72.5235 51.0146 72.4252 51.7999 73.6816C52.2036 74.3275 52.4742 74.1338 53.1159 76.0588C53.1608 76.1937 53.0879 76.3396 52.953 76.3846C52.8181 76.4296 52.6722 76.3566 52.6272 76.2217C52.0143 74.3827 51.7488 74.5717 51.3631 73.9547C50.6093 72.7485 50.5543 72.8456 49.5417 71.833C47.6457 69.937 44.936 68.9669 42.3003 68.4797C38.2974 67.7398 34.4559 68.1174 33.7878 68.1412C25.4334 68.4396 24.8953 69.8089 21.7441 70.209Z" fill="black"/>
<path fill-rule="evenodd" clip-rule="evenodd" d="M54.1398 45.7905C54.136 45.9322 54.0176 46.0448 53.8756 46.0404C53.7335 46.0366 53.6213 45.9183 53.6252 45.7759C53.7354 41.7853 53.9222 37.5054 49.503 30.1404C49.4299 30.0183 49.4695 29.8601 49.5913 29.7867C49.7132 29.7139 49.8715 29.7532 49.9447 29.8753C54.4429 37.3719 54.2525 41.7277 54.1398 45.7905Z" fill="black"/>
<path fill-rule="evenodd" clip-rule="evenodd" d="M47.9148 31.2155C47.7737 31.2325 47.6452 31.1319 47.6279 30.9908C47.6107 30.8497 47.7112 30.7213 47.8523 30.7042C48.3696 30.6409 48.7888 30.2271 49.1246 29.7557C49.6741 28.9844 49.9903 28.0315 50.0468 27.862C50.0918 27.7272 50.2377 27.6544 50.3726 27.6993C50.5074 27.7443 50.5804 27.8904 50.5354 28.0252C50.4748 28.2068 50.1335 29.2274 49.5442 30.0544C49.1208 30.6492 48.567 31.1357 47.9148 31.2155Z" fill="black"/>
<path fill-rule="evenodd" clip-rule="evenodd" d="M58.4129 42.9323C58.4699 43.0209 58.468 43.1392 58.3996 43.2278C58.3129 43.3404 58.151 43.3613 58.039 43.2746L57.9542 43.1892L57.9181 43.1297L57.8941 43.0626L57.8827 42.9608C57.8833 42.926 57.889 42.8874 57.8998 42.8431C57.9738 42.5539 58.4313 41.7839 57.5758 38.4835C57.5631 38.4348 57.4005 37.3718 56.9753 36.5214C56.9121 36.3942 56.9633 36.2392 57.0905 36.1759C57.2177 36.112 57.3727 36.1639 57.436 36.2911C57.8833 37.1858 58.0611 38.3032 58.0744 38.3544C58.7546 40.979 58.6344 42.0958 58.5047 42.6197C58.473 42.7475 58.4344 42.8684 58.4129 42.9323Z" fill="black"/>
<path fill-rule="evenodd" clip-rule="evenodd" d="M23.2936 48.5758C23.2974 48.6517 23.2675 48.727 23.2086 48.7801C23.1239 48.8561 22.9991 48.8674 22.9019 48.808C21.6947 48.0696 21.5805 48.365 20.3737 47.5602C20.2554 47.4818 20.2234 47.3217 20.3023 47.2033C20.3811 47.085 20.5411 47.0528 20.6594 47.1318C21.5909 47.7526 21.8674 47.7127 22.5075 48.0082C21.6675 45.812 21.9566 44.0327 22.3164 43.0798C22.4446 42.74 22.5852 42.5002 22.6911 42.3711C22.7694 42.2762 22.845 42.2256 22.8978 42.2047C23.6311 41.9118 24.5393 41.9852 25.3045 42.3604C26.0751 42.7375 26.697 43.4164 26.8612 44.3092C26.9988 45.0577 26.8167 45.9664 26.0928 46.98C25.8035 47.3849 25.5707 47.6842 25.2599 47.9177C24.8519 48.2246 24.306 48.4226 23.2936 48.5758ZM23.093 48.0848C24.0587 47.9493 24.5733 47.7893 24.9503 47.5058C25.2223 47.3014 25.4205 47.035 25.6737 46.6801C26.293 45.8132 26.4723 45.0426 26.3546 44.4022C26.2209 43.6752 25.7053 43.1304 25.0779 42.8229C24.4536 42.5167 23.7148 42.4426 23.1129 42.6736C23.0852 42.7128 22.9099 42.9659 22.7982 43.262C22.4508 44.182 22.1903 45.9316 23.093 48.0848Z" fill="black"/>
<path fill-rule="evenodd" clip-rule="evenodd" d="M22.2502 45.993C22.1262 45.9234 22.0818 45.7665 22.1512 45.6425C22.2206 45.5184 22.3777 45.4741 22.5017 45.5431C23.5816 46.148 24.0343 46.1214 24.6349 45.9095C25.0831 45.7506 25.6039 45.5089 26.452 45.3394C26.5914 45.3115 26.7272 45.402 26.7551 45.5412C26.783 45.6804 26.6924 45.8164 26.553 45.8443C25.7376 46.0075 25.2376 46.2423 24.8067 46.3948C24.0885 46.6485 23.5415 46.7156 22.2502 45.993Z" fill="black"/>
<path fill-rule="evenodd" clip-rule="evenodd" d="M23.1124 38.3932C23.1174 38.5356 23.0062 38.6552 22.8642 38.6602C22.7222 38.6653 22.6027 38.5539 22.5976 38.4116C22.5572 37.2891 22.0268 35.7807 21.8315 34.3513C21.6745 33.2016 21.7343 32.1026 22.3488 31.2585C22.9577 30.422 24.1224 29.8159 26.2304 29.6988C26.3723 29.6912 26.4939 29.8 26.5017 29.9418C26.5096 30.0835 26.4008 30.2056 26.2589 30.2132C24.3718 30.3183 23.3103 30.8131 22.7652 31.5616C22.2258 32.3025 22.204 33.2725 22.3419 34.2811C22.5396 35.7288 23.0714 37.2568 23.1124 38.3932Z" fill="black"/>
<path fill-rule="evenodd" clip-rule="evenodd" d="M22.9736 37.3857C22.8319 37.3743 22.7257 37.2503 22.7366 37.1092C22.7475 36.9675 22.8714 36.8612 23.0131 36.872C23.6807 36.9232 24.2532 36.9454 24.7339 36.8871C25.1707 36.834 25.5268 36.7169 25.7998 36.4778C26.0742 36.2386 26.2604 35.8798 26.3764 35.3667C26.5032 34.8048 26.5429 34.0702 26.503 33.1141C26.4965 32.9572 26.462 32.1201 26.2723 31.3127C26.1543 30.8103 25.9824 30.3162 25.701 30.0346C25.6005 29.9346 25.6005 29.7714 25.701 29.6708C25.8015 29.5702 25.9647 29.5702 26.0652 29.6708C26.4031 30.0087 26.632 30.5921 26.7738 31.195C26.9736 32.0454 27.0108 32.9275 27.0177 33.0933C27.1046 35.1794 26.7944 36.293 26.1387 36.8663C25.4797 37.442 24.438 37.4984 22.9736 37.3857Z" fill="black"/>
<path fill-rule="evenodd" clip-rule="evenodd" d="M22.4245 35.1451C22.2946 35.0876 22.236 34.9351 22.2937 34.8054C22.3514 34.675 22.5037 34.6168 22.6336 34.6744C24.5766 35.5381 26.0762 34.4105 26.4584 34.258C26.5904 34.2049 26.7404 34.2694 26.7932 34.401C26.846 34.5333 26.7817 34.6832 26.6497 34.7358C26.228 34.9047 24.5682 36.098 22.4245 35.1451Z" fill="black"/>
<path fill-rule="evenodd" clip-rule="evenodd" d="M22.7069 31.7697C22.7409 31.8653 22.7168 31.976 22.637 32.0475C22.5316 32.1431 22.3686 32.1348 22.2733 32.0292C22.2527 32.0064 22.2353 31.9836 22.2208 31.9608L22.1794 31.8798L22.1554 31.7868L22.1553 31.6875C22.1715 31.5597 22.2607 31.4186 22.4531 31.3129C22.8081 31.1186 23.6402 30.9953 24.5318 31.0826C25.4184 31.1693 26.3583 31.4603 26.9424 32.0443C27.0429 32.1449 27.0429 32.3082 26.9424 32.4088C26.8419 32.5094 26.6787 32.5094 26.5782 32.4088C26.2282 32.0589 25.7245 31.8412 25.1951 31.7134C24.3748 31.516 23.4888 31.5363 22.9645 31.6698C22.8722 31.6932 22.7689 31.74 22.7069 31.7697Z" fill="black"/>
<path fill-rule="evenodd" clip-rule="evenodd" d="M20.7871 36.3652C20.8112 36.3773 21.1079 36.5196 21.134 36.531C21.8655 36.8442 22.3223 37.0625 22.4959 37.1473C22.5828 37.1435 22.6695 37.184 22.7211 37.2618L22.7566 37.327L22.7764 37.4099L22.7702 37.4915L22.7429 37.5611L22.6873 37.6288L22.6214 37.6706L22.5549 37.6902L22.4907 37.6921L22.4225 37.6788C22.4036 37.6725 22.3753 37.6617 22.3359 37.644C22.1894 37.5769 21.8032 37.3782 20.9312 37.0043C20.9061 36.9935 20.7296 36.9176 20.6073 36.8543C20.5257 36.8126 20.4631 36.7689 20.4377 36.743C20.3372 36.643 20.3372 36.4798 20.4377 36.3792C20.5334 36.2836 20.686 36.2785 20.7871 36.3652Z" fill="black"/>
<path fill-rule="evenodd" clip-rule="evenodd" d="M20.8164 49.7277C20.901 49.7071 20.9939 49.7298 21.0598 49.7957C21.1604 49.8962 21.1604 50.0594 21.0598 50.1599C21.0457 50.1741 21.0312 50.1872 21.0166 50.1993C21.0497 50.2904 21.0297 50.3965 20.9566 50.4696C20.8562 50.57 20.693 50.57 20.5924 50.4696C20.2039 50.0809 19.8935 49.8287 19.6425 49.6166C19.0003 49.0737 18.7061 48.7757 18.5071 47.3824C18.279 45.786 18.6804 44.7129 19.2607 43.9903C20.1322 42.9058 21.428 42.6141 21.6992 42.5533C21.8187 42.5274 21.9404 42.5882 21.9902 42.7001C22.0401 42.8121 22.0043 42.9431 21.9047 43.0146C21.7139 43.1507 20.6562 43.9137 20.6192 45.6487C20.574 47.7766 20.6376 48.9066 20.7457 49.4734C20.764 49.5692 20.7933 49.6624 20.8164 49.7277ZM20.2149 49.4255C20.1183 48.8035 20.0613 47.6589 20.1043 45.6379C20.1257 44.6281 20.4491 43.9049 20.7935 43.4151C20.4169 43.605 20.0023 43.8897 19.6622 44.313C19.1503 44.9502 18.8158 45.9012 19.017 47.3096C19.1869 48.4992 19.4266 48.7598 19.975 49.223C20.0497 49.2863 20.1295 49.3527 20.2149 49.4255Z" fill="black"/>
<path d="M19.1896 48.6436L20.414 49.7455L20.2915 47.5417L20.5364 44.8482L20.9037 43.1341L19.3121 44.236L18.6999 45.9501L19.1896 48.6436Z" fill="black"/>
<path d="M18.2102 37.8695L19.8018 38.7265H20.0467L19.4345 36.7676L18.9448 34.4413L19.1896 31.2581L20.0467 28.5645L18.3326 30.7683L17.598 33.217L17.2307 36.1554L18.2102 37.8695Z" fill="black"/>
<path fill-rule="evenodd" clip-rule="evenodd" d="M19.9201 38.9606C19.1534 38.8549 18.5597 38.5664 18.113 38.1507C17.3913 37.4787 17.0507 36.4651 17.0136 35.3084C16.9246 32.5231 18.6039 28.9071 20.5248 27.5771C20.6291 27.5043 20.7705 27.5195 20.858 27.6112C20.9455 27.703 20.9529 27.8447 20.8755 27.9459C19.9752 29.1159 18.0366 33.1932 20.0556 38.0438C20.0947 38.0722 20.1263 38.1121 20.1446 38.1608L20.2728 38.4993C20.3635 38.5455 20.4216 38.6442 20.4118 38.7518C20.405 38.8271 20.3662 38.8923 20.31 38.934C20.2838 38.9695 20.2483 38.9979 20.2053 39.0169C20.1053 39.0593 19.9926 39.0346 19.9201 38.9606ZM19.6404 38.3842C18.0163 34.6118 18.6987 31.271 19.5563 29.2627C18.3427 30.8742 17.4651 33.309 17.5285 35.292C17.5607 36.2987 17.8358 37.1889 18.4639 37.7736C18.7699 38.0583 19.1591 38.2677 19.6404 38.3842Z" fill="black"/>
<path fill-rule="evenodd" clip-rule="evenodd" d="M83.718 56.9039C83.6572 56.7753 83.7129 56.6217 83.8413 56.5612C83.9698 56.5007 84.1236 56.5561 84.1843 56.6847C84.2083 56.7362 84.2722 56.7846 84.3539 56.8433C84.5323 56.9723 84.7936 57.1092 85.098 57.248C86.3381 57.8146 88.2667 58.3927 88.5274 58.4707C88.6698 58.5135 89.2892 58.6689 90.232 57.7265C90.3326 57.6259 90.4952 57.6259 90.5958 57.7265C90.6964 57.8269 90.6964 57.9901 90.5958 58.0907C89.3885 59.2979 88.5616 59.0188 88.3793 58.964C88.1142 58.8845 86.1483 58.2941 84.8835 57.7166C84.5437 57.5612 84.2526 57.4055 84.0527 57.2611C83.8812 57.1375 83.7692 57.0124 83.718 56.9039Z" fill="black"/>
<path fill-rule="evenodd" clip-rule="evenodd" d="M84.8861 56.1993C84.7867 56.098 84.788 55.9348 84.8899 55.8351C84.9911 55.7355 85.1543 55.737 85.2537 55.8383C85.2784 55.8632 85.3315 55.8871 85.4011 55.9202C85.5549 55.9931 85.7732 56.077 86.025 56.1653C87.0393 56.5209 88.5838 56.942 88.7907 56.9983C90.053 57.3427 90.0296 57.4322 91.34 57.406C91.4823 57.4032 91.6 57.5162 91.6026 57.6583C91.6057 57.8005 91.4925 57.9181 91.3507 57.921C89.9657 57.9486 89.9891 57.8592 88.6553 57.4953C88.4458 57.4382 86.8817 57.0115 85.8548 56.6514C85.3644 56.4795 84.9911 56.3059 84.8861 56.1993Z" fill="black"/>
<path fill-rule="evenodd" clip-rule="evenodd" d="M88.835 12.44C88.6939 12.4559 88.5668 12.354 88.5509 12.2129C88.5351 12.0712 88.637 11.944 88.7787 11.9282C93.0408 11.4549 100.663 12.8387 113.289 12.5761C113.431 12.5729 113.549 12.6855 113.552 12.8279C113.555 12.9703 113.442 13.088 113.3 13.0911C100.698 13.3531 93.0895 11.9674 88.835 12.44Z" fill="black"/>
<path d="M29.9636 88.9241L24.0868 87.2101L23.4747 86.2306L22.7401 81.0884L21.6382 70.0694L29.8412 68.1105L37.3096 67.7432L42.8191 68.2329L48.2062 70.3143L51.0222 72.8854L52.9811 76.1911L52.0016 79.1295L49.7978 83.0473L46.3697 86.5979L42.4518 88.4344L36.4526 89.2914L29.9636 88.9241Z" fill="black"/>
</g>
<defs>
<clipPath id="clip0_1625_1017">
<path d="M0 90L0 8H54.1839C73.9646 8 90 24.0354 90 43.8161V43.8161C90 69.3228 69.3228 90 43.8161 90H0Z" fill="white"/>
</clipPath>
</defs>
</svg>
