<svg width="90" height="90" viewBox="0 0 90 90" fill="none" xmlns="http://www.w3.org/2000/svg">
  <g clip-path="url(#clip0_265_1241)">
    <rect y="90" width="90" height="90" rx="45" transform="rotate(-90 0 90)" fill="#868F77" />
    <path
      d="M91.4812 53.0425L89.5676 55.2939L89.455 55.519L90.243 55.8567L93.9577 56.8699L95.5337 56.9824L104.539 54.1682L113.77 51.8043L114.22 50.6786L115.233 46.401L115.683 40.3223L115.458 37.283V35.8196L115.008 34.8065L115.121 34.4688L117.034 24.9005L116.809 18.7092L115.909 15.6699L113.995 15.7825L105.44 15.5573L98.6856 15.1071H95.0834H92.8321L93.8452 16.4579L94.5206 17.9213L95.3086 18.259L95.5337 18.9344V20.5103L94.5206 23.0994L93.2823 24.5628L91.5938 25.4633L92.1567 27.8273L93.1698 31.542L94.5206 37.1704L94.8583 41.8983L94.2954 45.9507L93.1698 49.6655L91.4812 53.0425Z"
      fill="#85BAA4" />
    <path
      d="M69.3054 52.1419L67.1666 56.9823L67.5043 57.32L68.4049 57.6577L69.7557 58.5583L76.0595 60.9222L81.1251 61.9353L85.065 61.5976L88.8923 60.2468L91.0311 58.7834L91.9316 57.7703L93.1699 57.9954L94.4081 57.0949L89.5677 55.4063L90.8059 53.943L92.4945 51.4665L93.8453 47.5266L94.7458 42.9113V38.1834L94.0704 35.0315L92.607 29.5157L91.5939 25.5758L93.5076 24.3375L95.0835 22.1987L95.5338 19.4971L95.1961 18.1463L94.5207 18.0337L93.6201 16.0075L90.9185 13.6435L87.4289 12.0676L84.277 11.5048L80.6748 11.6173L75.9469 12.6304L70.7688 14.6567L67.9546 16.5703L66.2661 19.272V19.8348L64.0147 19.7222L63.677 19.9474L65.253 23.3244L66.8289 27.2643L68.5174 31.5419L69.7557 36.9452L70.5437 42.1233V45.7255L70.206 49.4402L69.3054 52.1419Z"
      fill="#A3A8A7" />
    <path
      d="M29.7939 60.5846L31.2573 68.802L59.737 74.3179L61.0879 72.0665L62.2135 69.1397L63.0015 65.3124L63.3392 61.3725L63.1141 58.5583L66.9414 57.3201L67.7294 55.7441L69.5305 51.5791L70.3185 48.3146L70.6562 43.3616L69.7556 37.3955L67.842 29.4032L66.8288 27.1518L63.7895 20.1726H60.4125L54.6715 19.7223L48.4802 19.4972L42.5141 19.3846L36.9983 19.8349L31.8201 20.9605L29.0059 22.3114L27.3174 23.437L23.4901 21.8611L17.524 19.3846L14.8223 18.7092L12.6835 19.6097L11.8956 21.1857L11.783 21.9737L12.4584 24.4502L14.3721 26.3638L17.6365 27.7146L21.8016 28.2775L24.0529 27.9398L23.265 29.6283L22.9272 30.9791L18.5371 30.754L15.2726 30.4163L13.0212 30.6414L11.6704 31.542L11.5579 33.0053L12.3458 34.0185L14.4846 35.5944L17.6365 36.1573L21.2387 35.4818L23.3775 34.3562H23.6027L25.2912 40.9977L27.6551 50.9037L29.7939 60.5846Z"
      fill="#A38442" />
    <path
      d="M31.7076 46.0631L32.383 48.427L33.8464 48.0893L34.9721 47.1888L35.6475 45.8379L35.76 44.5997L34.7469 43.1363L33.171 42.7986L32.383 43.0237L31.8201 44.3745L31.7076 46.0631Z"
      fill="white" />
    <path
      d="M33.2835 46.626L31.9327 46.1757L31.7076 45.2752L32.1579 43.2489L32.8333 42.7987L34.4092 43.0238L35.76 44.3746L35.6475 45.838L33.2835 46.626Z"
      fill="black" />
    <path
      d="M31.595 35.8194L32.1579 38.1833H32.7207L34.8595 37.9582L35.8726 36.1571L35.7601 33.2303L35.1972 31.5418L33.959 31.6544L32.4956 32.2172L31.595 33.5681V35.8194Z"
      fill="white" />
    <path fill-rule="evenodd" clip-rule="evenodd"
      d="M23.1475 34.1353C23.2485 34.0521 23.3979 34.0672 23.4807 34.1679C23.5635 34.2691 23.5488 34.4186 23.4477 34.5012C22.518 35.2633 20.473 36.1481 18.2356 36.3076C15.9843 36.4681 13.5444 35.898 11.843 33.7711C11.8184 33.7409 11.7582 33.7036 11.6915 33.6425C11.5478 33.5111 11.3761 33.3086 11.2949 32.9724C11.2134 32.6349 11.2232 32.1463 11.4916 31.4307C11.5683 31.2259 11.6501 31.1393 11.8003 31.052C11.9508 30.9641 12.209 30.8786 12.7312 30.5383C13.0426 30.3353 13.6858 30.2352 14.4513 30.2195C16.1198 30.1852 18.3955 30.4947 18.7217 30.5389C19.8337 30.6907 22.7703 30.8176 23.1228 30.8333C23.2533 30.8391 23.3547 30.9496 23.349 31.0799C23.3434 31.2108 23.2328 31.312 23.1022 31.3062C22.7462 31.2911 19.7807 31.1614 18.6578 31.0084C18.3371 30.9647 16.1009 30.6587 14.4611 30.6931C13.8087 30.7064 13.2553 30.7617 12.99 30.9351C12.5373 31.23 12.2757 31.3417 12.1104 31.4232C12.0162 31.4697 11.973 31.4959 11.935 31.5971C11.7145 32.1853 11.6883 32.5838 11.7552 32.8612C11.817 33.1172 11.961 33.2528 12.0606 33.3365C12.1301 33.3953 12.1846 33.4401 12.2128 33.4756C13.8053 35.4663 16.0947 35.9858 18.2019 35.8352C20.3231 35.6839 22.2661 34.8578 23.1475 34.1353Z"
      fill="black" />
    <path fill-rule="evenodd" clip-rule="evenodd"
      d="M23.4718 32.4008C23.5035 32.527 23.4263 32.6562 23.2995 32.6876C23.1727 32.7196 23.0441 32.6422 23.0124 32.5154C22.2371 29.4147 23.969 27.9539 24.2401 27.8084C24.3552 27.7462 24.4989 27.7892 24.5609 27.9044C24.6228 28.0196 24.5797 28.1633 24.4646 28.225C24.2255 28.3541 22.7879 29.6648 23.4718 32.4008Z"
      fill="black" />
    <path fill-rule="evenodd" clip-rule="evenodd"
      d="M24.2978 27.6716C24.3625 27.6338 24.4439 27.6274 24.5169 27.6611C24.6356 27.7158 24.6874 27.8566 24.6326 27.9753L24.5952 28.0329L24.5525 28.0719L24.43 28.1265C24.1212 28.2185 22.6215 28.4686 21.563 28.4424C19.2592 28.3866 17.2076 27.7583 16.8413 27.646C16.7874 27.6297 16.7926 27.632 16.1643 27.4505C15.352 27.2149 13.6647 26.415 12.5176 24.9007C12.2393 24.5331 11.8145 23.6645 11.6135 22.7703C11.4749 22.1531 11.4456 21.5254 11.6213 21.0332C11.6703 20.8965 11.9732 20.1757 12.2744 19.7016C12.4311 19.4549 12.6007 19.2752 12.7321 19.2176C13.8196 18.74 14.5187 18.5474 15.1087 18.5282C15.9854 18.4991 16.6248 18.8575 17.9655 19.2845C19.3159 19.7138 25.4819 22.4894 27.557 23.3439C27.6779 23.394 27.7356 23.5324 27.6858 23.6534C27.6361 23.7739 27.4976 23.832 27.3768 23.782C25.3094 22.9309 19.1672 20.1635 17.8219 19.7353C16.5536 19.3322 15.9537 18.9738 15.1244 19.0012C14.577 19.0198 13.9314 19.2083 12.9225 19.651C12.8947 19.6632 12.8685 19.6946 12.8367 19.7307C12.7839 19.7912 12.7292 19.8686 12.6741 19.9552C12.3943 20.3962 12.1127 21.0652 12.0673 21.1926C11.9182 21.6103 11.9579 22.1426 12.0756 22.6662C12.2592 23.483 12.6409 24.2794 12.8951 24.6151C13.9653 26.0276 15.5381 26.7763 16.296 26.9956C16.9309 27.1794 16.9256 27.1765 16.9801 27.1934C17.3365 27.3022 19.3328 27.9148 21.5745 27.9695C22.5788 27.9939 24.0021 27.76 24.295 27.6728C24.2959 27.6722 24.2968 27.6722 24.2978 27.6716Z"
      fill="black" />
    <path fill-rule="evenodd" clip-rule="evenodd"
      d="M24.7405 25.4001C24.8704 25.414 24.9641 25.5315 24.9497 25.6613C24.9353 25.791 24.8181 25.8847 24.6882 25.8707C22.4039 25.6165 21.2694 25.0964 20.3895 24.866C19.2698 24.5728 16.916 22.9241 16.5374 22.7112C16.4235 22.6466 16.3831 22.5023 16.4472 22.3883C16.5112 22.2749 16.6557 22.2342 16.7696 22.2981C17.1379 22.5053 19.4203 24.1225 20.5095 24.4082C21.3757 24.635 22.4918 25.1499 24.7405 25.4001Z"
      fill="black" />
    <path fill-rule="evenodd" clip-rule="evenodd"
      d="M27.4773 23.1567C27.6119 22.9857 28.0164 22.5534 28.9486 22.1008C29.0806 22.0368 29.1648 21.9641 29.2714 21.878C29.5634 21.6418 29.9897 21.305 31.5696 20.7523C31.7566 20.6866 40.1039 18.3753 48.933 19.295C49.6512 19.3701 49.6549 19.0856 57.9465 19.7761C60.3745 19.9786 63.1722 19.9222 63.4701 19.9966C63.5969 20.028 63.6742 20.1572 63.6422 20.284C63.6108 20.4108 63.4823 20.4876 63.3554 20.4562C63.0617 20.3829 60.3018 20.4481 57.9072 20.2479C49.6066 19.5568 49.6029 19.8407 48.8839 19.7662C40.1596 18.8575 31.9108 21.1345 31.726 21.1991C30.2458 21.7174 29.8427 22.0252 29.5691 22.2463C29.4333 22.3562 29.3237 22.4452 29.1554 22.5267C28.1114 23.0339 27.8646 23.4231 27.8174 23.4947L27.7687 23.5529L27.729 23.5814L27.675 23.6046L27.5904 23.6128L27.4908 23.5814L27.4373 23.5395L27.3959 23.4796L27.3767 23.4226L27.3748 23.3277C27.3825 23.2556 27.4217 23.1945 27.4773 23.1567Z"
      fill="black" />
    <path fill-rule="evenodd" clip-rule="evenodd"
      d="M63.8051 19.9981C63.7842 20.0092 63.7661 20.0191 63.751 20.0284C63.7411 20.0342 63.7295 20.0429 63.7242 20.047C63.7208 20.0581 63.7085 20.0994 63.6998 20.1319C63.6888 20.1732 63.6754 20.2227 63.6556 20.2826C63.6143 20.4065 63.4799 20.4734 63.356 20.4321C63.2321 20.3908 63.1652 20.2564 63.2065 20.1325C63.2728 19.933 63.2856 19.8417 63.3438 19.7637C63.3909 19.7014 63.4619 19.6404 63.612 19.5647C63.6544 19.5438 63.7853 19.517 63.975 19.5112C64.5346 19.4926 65.7691 19.5508 66.1135 19.5892C66.2438 19.6037 66.3375 19.7206 66.3229 19.851C66.3084 19.9807 66.1915 20.0743 66.0617 20.0598C65.7685 20.0272 64.815 19.9807 64.2176 19.9813C64.0349 19.9813 63.8423 19.9952 63.8051 19.9981Z"
      fill="black" />
    <path
      d="M33.3961 36.4946L31.7076 35.9318L31.4825 34.9187L31.8202 33.005L33.959 32.6673L35.7601 33.4553L35.8726 35.4815L33.3961 36.4946Z"
      fill="black" />
    <path fill-rule="evenodd" clip-rule="evenodd"
      d="M73.717 24.9248C73.5861 24.9201 73.4837 24.8108 73.4884 24.6799C73.4924 24.5496 73.6018 24.4466 73.7327 24.4512C78.7794 24.6205 82.0599 23.094 82.7452 22.6048C82.8511 22.5285 82.9994 22.5536 83.0757 22.6594C83.1513 22.7659 83.1268 22.9142 83.0204 22.9899C82.3124 23.4954 78.9295 25.0993 73.717 24.9248Z"
      fill="black" />
    <path fill-rule="evenodd" clip-rule="evenodd"
      d="M82.967 22.9544C82.9041 22.9503 82.8425 22.9207 82.7988 22.8677C82.7162 22.7665 82.7313 22.6176 82.8326 22.535L82.9117 22.4838L83.003 22.4582L83.1101 22.4675L83.1624 22.4884L83.2171 22.5239C83.3375 22.6187 83.597 23.1464 85.4883 24.1703C85.821 24.3506 87.6448 24.7724 88.8031 24.9504C89.1894 25.0098 89.5972 25.0214 89.642 25.0225C89.7467 24.9725 89.8747 25.0057 89.941 25.1046C90.0137 25.2134 89.9841 25.3605 89.8753 25.4333L89.7915 25.4734C89.7636 25.4821 89.7281 25.4903 89.6862 25.4955C89.5832 25.5077 89.4151 25.5025 89.2028 25.4804C88.0957 25.3658 85.661 24.8026 85.2625 24.5868C83.6627 23.72 83.1124 23.1353 82.967 22.9544Z"
      fill="black" />
    <path fill-rule="evenodd" clip-rule="evenodd"
      d="M82.7784 19.8272C82.8639 19.904 82.8825 20.0338 82.8179 20.1327C82.7458 20.242 82.5992 20.2723 82.4898 20.2007C82.4573 20.1792 82.3735 20.0844 82.281 19.9279C82.0244 19.4922 81.5218 18.4875 81.4648 18.3734C81.3071 18.0576 81.1681 17.9761 81.0698 17.8691C80.972 17.7632 80.8947 17.6439 80.8534 17.3949C80.8318 17.2664 80.9191 17.1442 81.0483 17.1227C81.1768 17.1012 81.299 17.1884 81.3205 17.3176C81.3543 17.52 81.4334 17.5631 81.5317 17.6596C81.6341 17.7609 81.7557 17.8958 81.8883 18.1617C81.9441 18.2734 82.4375 19.26 82.6894 19.6876C82.7243 19.747 82.7673 19.811 82.7784 19.8272Z"
      fill="black" />
    <path fill-rule="evenodd" clip-rule="evenodd"
      d="M83.9793 20.2602C83.8705 20.3329 83.7233 20.3033 83.6506 20.1945C83.5778 20.0857 83.6075 19.9385 83.7163 19.8664C83.7977 19.8117 83.8478 19.711 83.9153 19.5825C84.0549 19.3154 84.2248 18.9443 84.5721 18.4975C84.6523 18.3945 84.8013 18.3759 84.9042 18.4562C85.0072 18.5365 85.0258 18.6848 84.9455 18.7884C84.6215 19.2055 84.465 19.5534 84.3341 19.8024C84.2213 20.0176 84.1154 20.1694 83.9793 20.2602Z"
      fill="black" />
    <path fill-rule="evenodd" clip-rule="evenodd"
      d="M94.5287 17.526C94.5543 17.5685 94.6212 17.6825 94.7265 17.8937C94.7852 18.0106 94.7375 18.1531 94.6206 18.2113C94.5037 18.2701 94.3617 18.2224 94.303 18.1054C94.1523 17.8035 94.1098 17.7517 94.0959 17.725L94.0668 17.6365C94.0214 17.3631 93.8131 16.1874 92.0632 14.8086C88.1521 11.7271 84.4999 11.7236 83.7942 11.7236C77.04 11.7236 72.2761 14.3252 72.0759 14.3915C70.3225 14.9762 68.4057 16.5603 68.1427 16.8058C67.5435 17.3649 66.9257 18.4446 66.629 19.1933C66.5185 19.4731 66.4446 19.6965 66.4615 19.8129C66.4801 19.942 66.3899 20.0624 66.2607 20.0811C66.1316 20.0997 66.0112 20.0095 65.9926 19.8804C65.9699 19.7204 66.0362 19.4039 66.1892 19.0188C66.5074 18.2148 67.1764 17.0594 67.8193 16.4597C68.0944 16.2031 70.0962 14.5521 71.9264 13.9424C72.1289 13.8749 76.9551 11.2501 83.7942 11.2501C84.5249 11.2501 88.3074 11.2466 92.3564 14.4369C94.2151 15.9012 94.4688 17.1723 94.5287 17.526Z"
      fill="black" />
    <path fill-rule="evenodd" clip-rule="evenodd"
      d="M89.5599 25.4755C89.4546 25.5523 89.3063 25.5296 89.2289 25.4243C89.1515 25.319 89.1742 25.1707 89.2801 25.0933C89.55 24.8955 89.831 24.8135 90.1678 24.6989C90.8729 24.4592 91.8299 24.0252 93.517 21.6162C93.9486 20.9984 94.4437 19.6493 94.5531 18.7452C94.5746 18.566 94.5816 18.4055 94.5659 18.2746C94.556 18.1926 94.5461 18.1245 94.5083 18.0867C94.4158 17.9942 94.4158 17.8441 94.5083 17.7516C94.6002 17.6591 94.7509 17.6591 94.8428 17.7516C94.9254 17.8336 94.9882 17.9564 95.0202 18.1163C95.0563 18.2949 95.0563 18.5317 95.0231 18.8022C94.9056 19.7738 94.3692 21.2235 93.9044 21.8873C92.1097 24.4522 91.0713 24.892 90.3208 25.1474C90.0334 25.2451 89.7903 25.3062 89.5599 25.4755Z"
      fill="black" />
    <path fill-rule="evenodd" clip-rule="evenodd"
      d="M89.3767 25.5889C89.2667 25.5179 89.2353 25.3713 89.3069 25.2613C89.3779 25.152 89.5245 25.1205 89.6344 25.1915C89.8357 25.3224 90.3273 25.3835 90.937 25.298C92.4757 25.0827 94.6986 23.8721 95.3263 20.1047C95.3728 19.8272 95.3658 19.2018 95.2227 18.7015C95.1785 18.5479 95.1221 18.4065 95.047 18.2948C94.9906 18.2117 94.926 18.1448 94.8417 18.1168C94.7178 18.0755 94.6509 17.9411 94.6922 17.8172C94.7335 17.6933 94.8679 17.6264 94.9918 17.6677C95.246 17.7521 95.445 17.9784 95.5776 18.2873C95.8365 18.8871 95.8557 19.8086 95.7934 20.1826C95.1139 24.259 92.6677 25.5342 91.0027 25.7669C90.24 25.8739 89.6286 25.7529 89.3767 25.5889Z"
      fill="black" />
    <path fill-rule="evenodd" clip-rule="evenodd"
      d="M71.8548 57.4082C71.8758 57.4105 71.9409 57.4174 72.0148 57.424C73.1591 57.5246 78.976 57.9304 79.5316 57.9692C84.4817 58.3145 86.1613 57.8564 88.8257 55.1919C88.9182 55.0994 89.0683 55.0994 89.1608 55.1919C89.2533 55.2843 89.2533 55.4344 89.1608 55.5267C86.3887 58.2989 84.6487 58.8009 79.4985 58.4416C78.9429 58.4028 73.1184 57.9965 71.9735 57.8957C71.831 57.8831 71.7466 57.8704 71.7332 57.8663L71.6861 57.8467L71.6361 57.81L71.5983 57.7635L71.5738 57.7109L71.5634 57.6569L71.5663 57.598L71.6058 57.5023C71.6634 57.4205 71.7629 57.3863 71.8548 57.4082ZM72.0247 57.5664C72.0468 57.6345 72.0375 57.7117 71.9933 57.7746C72.0404 57.7078 72.048 57.6379 72.0247 57.5664Z"
      fill="black" />
    <path fill-rule="evenodd" clip-rule="evenodd"
      d="M82.0227 59.8713C82.0111 60.0015 81.8953 60.0975 81.7656 60.0857C81.6352 60.0738 81.5392 59.9586 81.5509 59.8284C81.6335 58.9218 81.9837 58.6849 82.4433 58.1543C82.5288 58.0555 82.6783 58.0448 82.7772 58.1304C82.8761 58.216 82.8866 58.3657 82.8011 58.4644C82.4113 58.9142 82.0925 59.1029 82.0227 59.8713Z"
      fill="black" />
    <path fill-rule="evenodd" clip-rule="evenodd"
      d="M91.6979 57.7766C91.7904 57.6841 91.9405 57.6841 92.033 57.7766C92.1255 57.869 92.1255 58.0191 92.033 58.1114C91.9021 58.2422 89.6671 61.5329 82.903 62.0966C80.5638 62.2915 76.5258 61.3046 73.3943 60.248C71.2889 59.5377 69.5925 58.7912 69.0759 58.3609C68.7437 58.0838 68.3772 57.9011 68.3121 57.8686C68.1957 57.8101 68.148 57.6678 68.2062 57.5509C68.265 57.434 68.4075 57.3866 68.5238 57.445C68.5971 57.4814 69.0067 57.6867 69.379 57.9971C69.8764 58.4116 71.5175 59.115 73.5455 59.7993C76.6154 60.8349 80.5708 61.8157 82.864 61.6246C89.407 61.0794 91.5717 57.9031 91.6979 57.7766Z"
      fill="black" />
    <path fill-rule="evenodd" clip-rule="evenodd"
      d="M68.3352 57.4041C68.4644 57.4238 68.5534 57.5446 68.5342 57.6738C68.5144 57.803 68.3934 57.8919 68.2642 57.8723C67.7331 57.7915 67.3829 57.5985 67.1641 57.4706C67.0961 57.431 67.0472 57.3973 67.0117 57.3853C66.8878 57.344 66.8203 57.2098 66.8616 57.0858C66.9029 56.9618 67.0373 56.8947 67.1612 56.9361C67.2171 56.9547 67.2974 56.9999 67.4027 57.0617C67.5888 57.1702 67.8849 57.3356 68.3352 57.4041Z"
      fill="black" />
    <path fill-rule="evenodd" clip-rule="evenodd"
      d="M63.5044 58.6222C63.5015 58.6261 63.498 58.6299 63.4939 58.6336C63.4014 58.726 63.2513 58.726 63.1588 58.6336L63.1193 58.5818L63.0972 58.5331L63.085 58.4614L63.0931 58.3924L63.117 58.3327L63.1583 58.2772L63.2118 58.2335L63.2758 58.199C63.4782 58.1069 64.231 57.9525 65.0513 57.7332C65.8215 57.5272 66.6569 57.2643 67.0979 56.9215C67.2009 56.8412 67.3498 56.8598 67.4301 56.963C67.5103 57.0662 67.4917 57.215 67.3888 57.2953C67.0031 57.595 66.3457 57.8491 65.6662 58.0519C64.8 58.3104 63.7069 58.5738 63.5044 58.6222ZM63.5544 58.4011C63.5457 58.3658 63.5265 58.3313 63.4939 58.2987C63.5236 58.3282 63.5434 58.3636 63.5544 58.4011Z"
      fill="black" />
    <path fill-rule="evenodd" clip-rule="evenodd"
      d="M66.9536 56.8667C66.9687 56.838 67.1077 56.5747 67.2619 56.257C68.006 54.7205 69.7727 50.8477 69.9234 49.338C70.3847 44.7264 70.6553 44.7328 70.0793 40.1283C69.9362 38.9822 68.28 30.2204 67.0949 28.1889C66.3276 26.8736 65.1315 23.7426 64.2932 21.7914C63.9529 20.9991 63.6847 20.4074 63.5265 20.2492C63.434 20.1567 63.434 20.0066 63.5265 19.9141C63.619 19.8216 63.7691 19.8216 63.8616 19.9141C64.0361 20.0886 64.3531 20.7309 64.7284 21.6041C65.5597 23.5396 66.743 26.6456 67.5039 27.9504C68.7076 30.0133 70.4039 38.9054 70.5494 40.0695C71.1317 44.727 70.8612 44.7206 70.3946 49.3851C70.2405 50.9284 68.4487 54.8928 67.6877 56.4635C67.5342 56.781 67.4219 57.0018 67.3736 57.0871L67.3114 57.1751C67.2189 57.2675 67.0693 57.2675 66.9768 57.1751C66.8925 57.091 66.8849 56.9594 66.9536 56.8667Z"
      fill="black" />
    <path fill-rule="evenodd" clip-rule="evenodd"
      d="M66.0962 19.9571C66.0892 19.9513 66.0822 19.9449 66.0752 19.9379L66.0298 19.8745L66.0077 19.8088L66.0048 19.7413L66.006 19.7367C66.0071 19.6668 66.0386 19.5988 66.0973 19.5528C66.1916 19.4795 66.326 19.4877 66.4103 19.5726L66.444 19.6191L66.4458 19.618C66.8606 20.3091 66.9606 20.6151 67.0194 20.8059C67.0473 20.8955 67.0572 20.9508 67.1142 21.0252C68.3784 22.6687 73.0446 35.0612 73.1243 35.3788C74.6142 41.3389 73.8829 43.8875 73.4705 46.538C73.0359 49.3298 71.5902 53.3069 70.2278 55.642C69.8694 56.256 69.5157 56.7581 69.1876 57.1009C68.9462 57.3537 68.7129 57.5231 68.5017 57.6023C68.3795 57.6482 68.2428 57.5861 68.1969 57.4638C68.1509 57.3414 68.2132 57.2048 68.3353 57.1589C68.4941 57.0993 68.6634 56.9637 68.8455 56.7736C69.1533 56.452 69.4825 55.9793 69.8188 55.4034C71.1562 53.1108 72.5763 49.2065 73.0021 46.4653C73.4076 43.8596 74.1296 41.3534 72.6647 35.494C72.5862 35.1799 67.9874 22.9369 66.739 21.3138C66.6616 21.2131 66.6267 21.134 66.5936 21.0316C66.5406 20.8682 66.4888 20.625 66.0962 19.9571ZM66.0077 19.7279L66.0165 19.6855C66.0124 19.7 66.0095 19.714 66.0077 19.7279ZM66.0072 19.7646C66.0101 19.8041 66.0246 19.8402 66.0455 19.8716C66.0438 19.8681 66.0415 19.8646 66.0397 19.8617C66.0217 19.8309 66.0106 19.7977 66.0072 19.7646ZM66.4324 19.6284C66.4254 19.6197 66.4179 19.611 66.4103 19.6034C66.4185 19.6116 66.4254 19.6197 66.4324 19.6284Z"
      fill="black" />
    <path fill-rule="evenodd" clip-rule="evenodd"
      d="M68.4342 55.0016C68.3062 54.976 68.223 54.8512 68.2486 54.723C68.2742 54.5949 68.3993 54.5116 68.5272 54.5373C68.6116 54.5542 69.2009 54.6726 69.6384 54.6959C69.7792 54.7034 69.8996 54.7121 69.9601 54.682C70.077 54.6236 70.2196 54.671 70.2777 54.7879C70.3359 54.9048 70.2888 55.0471 70.1719 55.1056C70.0666 55.1581 69.8589 55.1819 69.6134 55.1688C69.1491 55.144 68.5243 55.0196 68.4342 55.0016Z"
      fill="black" />
    <path fill-rule="evenodd" clip-rule="evenodd"
      d="M69.0636 52.9166C68.9508 52.8501 68.9135 52.7048 68.9799 52.5922C69.0468 52.4797 69.1922 52.4424 69.3045 52.5089C69.39 52.5595 69.5593 52.5801 69.7553 52.5977C70.3022 52.6465 71.0346 52.6112 71.1422 52.6061C71.2731 52.5999 71.3842 52.7008 71.3901 52.8313C71.3965 52.9618 71.2958 53.0729 71.1649 53.0791C71.0521 53.0845 70.2853 53.1205 69.7129 53.0693C69.4284 53.0439 69.1881 52.9902 69.0636 52.9166Z"
      fill="black" />
    <path fill-rule="evenodd" clip-rule="evenodd"
      d="M70.0794 50.9342C69.9491 50.9416 69.8369 50.8417 69.8299 50.7113C69.8223 50.5808 69.9218 50.4688 70.0527 50.4613C71.592 50.3734 71.5844 50.4187 71.8869 50.3177C72.0114 50.2764 72.1452 50.3435 72.1866 50.4675C72.2279 50.5915 72.161 50.7257 72.037 50.767C71.7136 50.8748 71.7229 50.8403 70.0794 50.9342Z"
      fill="black" />
    <path fill-rule="evenodd" clip-rule="evenodd"
      d="M70.5389 47.7811C70.4091 47.7985 70.2905 47.7072 70.273 47.5775C70.2556 47.4483 70.3469 47.329 70.4766 47.3116C72.774 47.0068 72.8164 47.0306 73.0142 47.0801C73.1405 47.1115 73.2178 47.2406 73.1864 47.3674C73.1544 47.4943 73.0259 47.5711 72.899 47.5396C72.7152 47.4937 72.678 47.4972 70.5389 47.7811Z"
      fill="black" />
    <path fill-rule="evenodd" clip-rule="evenodd"
      d="M70.9451 45.1925C70.8153 45.2088 70.6972 45.1168 70.6809 44.9871C70.6646 44.8574 70.7571 44.7387 70.8869 44.723C72.1126 44.57 72.0911 44.4618 73.3169 44.556C73.4472 44.5659 73.5449 44.6799 73.5344 44.8103C73.5245 44.9406 73.4105 45.0383 73.2802 45.0284C72.1027 44.9377 72.1237 45.0459 70.9451 45.1925Z"
      fill="black" />
    <path fill-rule="evenodd" clip-rule="evenodd"
      d="M73.1761 40.5715C73.2459 40.5116 73.3477 40.4959 73.4355 40.5395C73.5525 40.5983 73.5996 40.7402 73.5414 40.8571L73.4931 40.9246L73.4367 40.9688C73.3884 40.9997 73.2738 41.0433 73.1121 41.0881C72.6577 41.2138 71.7618 41.3941 71.2284 41.5273C71.0806 41.5646 70.9148 41.6187 70.8886 41.6274C70.7961 41.6943 70.6658 41.6861 70.5826 41.603C70.4901 41.5105 70.4901 41.3604 70.5826 41.2679C70.6164 41.2335 70.7467 41.1666 70.9509 41.1108C71.5175 40.9555 72.8171 40.7076 73.1615 40.5773C73.1656 40.5756 73.1714 40.5732 73.1761 40.5715Z"
      fill="black" />
    <path fill-rule="evenodd" clip-rule="evenodd"
      d="M70.5464 39.5482C70.4289 39.6058 70.287 39.5575 70.2294 39.44C70.1718 39.3231 70.2201 39.1806 70.337 39.123C71.4086 38.5959 72.4994 38.6768 73.4471 38.65C73.578 38.6459 73.6867 38.7489 73.6902 38.8798C73.6943 39.0101 73.5913 39.1195 73.4604 39.123C72.5733 39.1486 71.5494 39.0543 70.5464 39.5482Z"
      fill="black" />
    <path fill-rule="evenodd" clip-rule="evenodd"
      d="M69.5576 36.1027C69.4302 36.1312 69.3039 36.0509 69.2754 35.9229C69.2469 35.7955 69.3278 35.6687 69.4552 35.6407C71.1109 35.2725 71.073 35.1084 72.7613 35.0444C72.8916 35.0398 73.0021 35.1416 73.0068 35.2719C73.0114 35.4028 72.9096 35.5128 72.7793 35.5174C71.1341 35.5797 71.1714 35.7443 69.5576 36.1027Z"
      fill="black" />
    <path fill-rule="evenodd" clip-rule="evenodd"
      d="M69.1445 33.8068C69.0147 33.8237 68.8961 33.7318 68.8792 33.6026C68.8623 33.4729 68.9542 33.3542 69.0834 33.3374C70.4819 33.1564 70.4441 32.8958 71.8339 33.0564C71.9636 33.0715 72.0567 33.189 72.0416 33.3187C72.0271 33.4485 71.909 33.5416 71.7792 33.527C70.4476 33.3734 70.4848 33.6335 69.1445 33.8068Z"
      fill="black" />
    <path fill-rule="evenodd" clip-rule="evenodd"
      d="M68.7478 31.1377C68.7298 31.161 68.7071 31.1813 68.6803 31.197C68.5669 31.2628 68.422 31.2238 68.3569 31.1109L68.3266 31.0324L68.3243 30.9387L68.3441 30.8724L68.3889 30.8032C68.4267 30.7607 68.525 30.6996 68.6821 30.6612C69.201 30.535 70.6507 30.4524 70.7991 30.4442C70.9294 30.4367 71.0411 30.5367 71.0486 30.6676C71.0556 30.7979 70.9555 30.9096 70.8252 30.9172C70.7118 30.923 69.8165 30.973 69.1952 31.0533C69.0206 31.076 68.8298 31.1191 68.7478 31.1377ZM68.7868 30.9189C68.7815 30.9038 68.7751 30.8887 68.7664 30.8736C68.7746 30.8881 68.7815 30.9032 68.7868 30.9189Z"
      fill="black" />
    <path fill-rule="evenodd" clip-rule="evenodd"
      d="M67.8722 29.1953C67.7506 29.243 67.6127 29.1831 67.565 29.0615C67.5173 28.9399 67.5766 28.802 67.6982 28.7543C68.9042 28.2796 68.8513 28.0027 70.1288 28.1772C70.2585 28.1947 70.3493 28.3139 70.3318 28.4436C70.3138 28.5734 70.1945 28.6641 70.0648 28.6461C68.9088 28.4884 68.9629 28.7654 67.8722 29.1953Z"
      fill="black" />
    <path fill-rule="evenodd" clip-rule="evenodd"
      d="M66.9838 27.367C66.857 27.399 66.7284 27.3217 66.697 27.1949C66.665 27.068 66.7424 26.9395 66.8692 26.9075C68.0327 26.6166 67.9838 26.4723 69.1758 26.3728C69.3061 26.3624 69.4207 26.4589 69.4318 26.5892C69.4423 26.7196 69.3457 26.8342 69.2154 26.8452C68.0618 26.9412 68.1101 27.0855 66.9838 27.367Z"
      fill="black" />
    <path fill-rule="evenodd" clip-rule="evenodd"
      d="M66.3485 25.5465C66.2316 25.6047 66.0897 25.557 66.0309 25.44C65.9727 25.3237 66.0198 25.1812 66.1368 25.1224C67.1287 24.6267 67.0932 24.5546 68.1898 24.3556C68.3183 24.3324 68.4417 24.4173 68.4649 24.5459C68.4882 24.6744 68.4027 24.7978 68.2741 24.8216C67.245 25.0084 67.2799 25.0805 66.3485 25.5465Z"
      fill="black" />
    <path fill-rule="evenodd" clip-rule="evenodd"
      d="M65.3753 23.1266C65.256 23.1795 65.1158 23.126 65.0629 23.0061C65.01 22.8869 65.0635 22.7467 65.1827 22.6937C66.1735 22.2539 67.2451 22.4802 67.323 22.4878C67.4533 22.5012 67.5481 22.617 67.5353 22.7473C67.522 22.877 67.4062 22.9724 67.2759 22.9596C67.2067 22.9526 66.2543 22.7362 65.3753 23.1266Z"
      fill="black" />
    <path fill-rule="evenodd" clip-rule="evenodd"
      d="M75.784 23.4407C75.7648 23.4279 75.6671 23.3627 75.5687 23.301C74.9852 22.9374 73.5471 22.091 73.2051 21.9933C73.0794 21.9572 73.0067 21.8263 73.0422 21.7006C73.0783 21.575 73.2092 21.5023 73.3354 21.5378C73.6938 21.6401 75.2075 22.518 75.8195 22.8991C75.948 22.9793 76.0388 23.0393 76.0743 23.0666L76.1429 23.1364C76.2156 23.2452 76.186 23.3924 76.0772 23.4651C75.9841 23.5273 75.8625 23.5145 75.784 23.4407Z"
      fill="black" />
    <path fill-rule="evenodd" clip-rule="evenodd"
      d="M89.2825 55.3498C89.2435 55.4746 89.1109 55.5444 88.9858 55.5056C88.8613 55.4668 88.7915 55.334 88.8299 55.2092C90.5303 49.7427 91.0801 49.8535 91.7317 41.3813C92.2576 34.551 90.8067 27.7613 90.1458 25.7781C90.1039 25.6542 90.1714 25.5198 90.2953 25.4785C90.4192 25.4372 90.5536 25.5041 90.5949 25.628C91.2639 27.6351 92.7358 34.5056 92.204 41.418C91.5472 49.9535 90.9952 49.8423 89.2825 55.3498Z"
      fill="black" />
    <path fill-rule="evenodd" clip-rule="evenodd"
      d="M89.0108 55.7104C88.8828 55.6825 88.8019 55.5562 88.8299 55.4285C88.8578 55.3008 88.984 55.2198 89.1114 55.2477C89.1504 55.2562 89.1969 55.2356 89.254 55.2094C89.3546 55.1636 89.4692 55.0869 89.596 54.983C90.0207 54.6357 90.5612 54.0016 91.1295 53.1222C93.3844 49.6325 96.0244 42.3275 93.4949 33.475C93.3379 32.9252 92.0289 28.3439 91.6729 26.5638C91.5746 26.071 91.3558 25.6347 91.3174 25.5579C91.2593 25.441 91.3064 25.2991 91.4233 25.2403C91.5402 25.1821 91.6828 25.2292 91.7409 25.3462C91.784 25.4317 92.0272 25.9198 92.1377 26.4713C92.4914 28.2416 93.7939 32.7984 93.9499 33.3453C96.5293 42.3729 93.8265 49.8206 91.5274 53.3792C90.82 54.4742 90.144 55.2057 89.6676 55.5185C89.3988 55.695 89.1696 55.7451 89.0108 55.7104Z"
      fill="black" />
    <path fill-rule="evenodd" clip-rule="evenodd"
      d="M91.3389 52.995C91.4262 52.9564 91.5315 52.9726 91.603 53.0439C91.6949 53.1363 91.6949 53.2864 91.603 53.3788L91.5605 53.4128L91.5024 53.4408C91.4698 53.4524 91.3977 53.4673 91.2982 53.4792C90.9224 53.524 90.041 53.5683 89.9433 53.5732C89.813 53.5797 89.7013 53.479 89.6949 53.3485C89.6885 53.218 89.7891 53.1067 89.9194 53.1002C90.0259 53.0949 91.0893 53.0432 91.3389 52.995V52.995Z"
      fill="black" />
    <path fill-rule="evenodd" clip-rule="evenodd"
      d="M33.3277 83.9134C33.3844 84.0312 33.3348 84.1728 33.217 84.2295C33.0993 84.2861 32.9577 84.2366 32.901 84.1188C32.6965 83.694 32.4951 82.7124 32.3194 81.5232C31.9196 78.8162 31.6269 75.0132 31.5854 74.4732C30.4117 59.2151 23.6447 36.6229 23.4723 34.3826C23.4623 34.2523 23.56 34.1383 23.6902 34.1284C23.8206 34.1179 23.9345 34.2157 23.9445 34.346C24.1169 36.5869 30.8838 59.1788 32.0576 74.4369C32.0989 74.9743 32.3899 78.7596 32.7879 81.454C32.9542 82.5797 33.1341 83.5113 33.3277 83.9134Z"
      fill="black" />
    <path fill-rule="evenodd" clip-rule="evenodd"
      d="M33.0468 84.295C32.917 84.3102 32.7994 84.217 32.7843 84.0872C32.7691 83.9574 32.8623 83.8397 32.9921 83.8246C33.624 83.7511 34.2135 83.9653 35.0317 84.2914C36.8196 85.004 39.7873 86.2256 47.2213 85.6061C57.2418 84.771 59.5282 74.5151 59.9771 73.5051C60.0301 73.3857 60.1701 73.3318 60.2896 73.3849C60.409 73.438 60.4629 73.578 60.4098 73.6975C59.9487 74.7349 57.5536 85.2202 47.2607 86.078C39.6951 86.7084 36.6759 85.4565 34.8563 84.7313C34.1285 84.4412 33.609 84.2296 33.0468 84.295Z"
      fill="black" />
    <path fill-rule="evenodd" clip-rule="evenodd"
      d="M60.5653 73.3983C60.6203 73.5169 60.5688 73.6578 60.4502 73.7128C60.3317 73.7679 60.1908 73.7163 60.1358 73.5977C60.038 73.3871 60.0585 73.2426 60.1871 73.0407C60.4891 72.5668 61.712 71.5432 62.7592 65.2593C63.4119 61.3439 63.1495 61.3349 62.7109 58.2625C62.6923 58.1331 62.7825 58.0131 62.9116 57.9946C63.0408 57.9761 63.1612 58.0661 63.1798 58.1955C63.6278 61.3316 63.8924 61.3407 63.2263 65.3372C62.2862 70.9767 61.1954 72.481 60.7321 73.0954C60.6768 73.1689 60.6307 73.2285 60.5958 73.2809C60.566 73.3257 60.5443 73.3531 60.5653 73.3983Z"
      fill="black" />
    <path fill-rule="evenodd" clip-rule="evenodd"
      d="M31.2419 68.48C31.1123 68.4964 30.9937 68.4045 30.9773 68.2748C30.9608 68.1452 31.0526 68.0266 31.1823 68.0101C34.0906 67.6409 34.5879 66.3809 42.2983 66.1055C42.9207 66.0833 46.4991 65.7351 50.2279 66.4243C52.7439 66.8894 55.3247 67.8283 57.1346 69.6382C58.1044 70.608 58.154 70.5176 58.876 71.6728C59.2472 72.2666 59.496 72.0885 60.086 73.8584C60.1273 73.9824 60.0602 74.1166 59.9362 74.158C59.8122 74.1993 59.678 74.1322 59.6367 74.0082C59.0731 72.3174 58.829 72.4911 58.4744 71.9238C57.7813 70.8148 57.7308 70.9041 56.7998 69.9731C55.0566 68.2299 52.5652 67.338 50.1418 66.89C46.4615 66.2097 42.9295 66.5569 42.3153 66.5788C34.634 66.8531 34.1393 68.1121 31.2419 68.48Z"
      fill="black" />
    <path fill-rule="evenodd" clip-rule="evenodd"
      d="M61.0274 46.0289C61.0239 46.1592 60.915 46.2627 60.7844 46.2587C60.6538 46.2552 60.5506 46.1464 60.5542 46.0155C60.6556 42.3464 60.8272 38.4114 56.7642 31.6398C56.6969 31.5275 56.7333 31.3821 56.8454 31.3146C56.9574 31.2477 57.103 31.2838 57.1702 31.3961C61.306 38.2887 61.1309 42.2935 61.0274 46.0289Z"
      fill="black" />
    <path fill-rule="evenodd" clip-rule="evenodd"
      d="M55.304 32.6284C55.1743 32.6441 55.0562 32.5516 55.0403 32.4219C55.0245 32.2921 55.1169 32.174 55.2466 32.1583C55.7223 32.1002 56.1076 31.7197 56.4164 31.2863C56.9216 30.5771 57.2123 29.701 57.2643 29.5451C57.3056 29.4212 57.4398 29.3543 57.5638 29.3956C57.6878 29.4369 57.7549 29.5713 57.7135 29.6952C57.6578 29.8622 57.344 30.8005 56.8022 31.5609C56.4129 32.1077 55.9037 32.5551 55.304 32.6284Z"
      fill="black" />
    <path fill-rule="evenodd" clip-rule="evenodd"
      d="M64.9563 43.401C65.0087 43.4824 65.0069 43.5912 64.9441 43.6727C64.8644 43.7762 64.7155 43.7954 64.6125 43.7157L64.5346 43.6372L64.5014 43.5825L64.4793 43.5208L64.4688 43.4272C64.4694 43.3952 64.4746 43.3597 64.4845 43.319C64.5526 43.0531 64.9732 42.3451 64.1867 39.3107C64.175 39.2659 64.0255 38.2886 63.6346 37.5067C63.5764 37.3897 63.6235 37.2472 63.7405 37.189C63.8574 37.1303 63.9999 37.178 64.0581 37.2949C64.4694 38.1175 64.6329 39.1449 64.6451 39.192C65.2705 41.6051 65.1599 42.6319 65.0407 43.1136C65.0116 43.2311 64.9761 43.3422 64.9563 43.401Z"
      fill="black" />
    <path fill-rule="evenodd" clip-rule="evenodd"
      d="M32.6667 48.5898C32.6702 48.6596 32.6428 48.7288 32.5886 48.7777C32.5107 48.8475 32.396 48.858 32.3066 48.8033C31.1967 48.1244 31.0917 48.396 29.9821 47.6561C29.8734 47.5839 29.844 47.4367 29.9165 47.3279C29.9889 47.2192 30.1361 47.1895 30.2448 47.2622C31.1013 47.8329 31.3555 47.7963 31.944 48.0679C31.1717 46.0487 31.4375 44.4128 31.7683 43.5367C31.8862 43.2243 32.0154 43.0038 32.1128 42.8851C32.1848 42.7978 32.2543 42.7513 32.3029 42.7321C32.9771 42.4627 33.8121 42.5302 34.5157 42.8752C35.2241 43.2219 35.7959 43.8462 35.9469 44.667C36.0734 45.3552 35.9059 46.1906 35.2404 47.1226C34.9744 47.4949 34.7604 47.7701 34.4746 47.9847C34.0995 48.2669 33.5976 48.449 32.6667 48.5898ZM32.4823 48.1383C33.3703 48.0138 33.8433 47.8666 34.19 47.606C34.44 47.4181 34.6223 47.1732 34.8551 46.8468C35.4245 46.0498 35.5894 45.3413 35.4812 44.7525C35.3582 44.0841 34.8842 43.5832 34.3073 43.3005C33.7333 43.0189 33.054 42.9508 32.5007 43.1632C32.4752 43.1992 32.314 43.432 32.2113 43.7042C31.8919 44.5501 31.6524 46.1586 32.4823 48.1383Z"
      fill="black" />
    <path fill-rule="evenodd" clip-rule="evenodd"
      d="M31.7073 46.2152C31.5933 46.1512 31.5525 46.007 31.6163 45.8929C31.6802 45.7789 31.8246 45.7382 31.9386 45.8016C32.9315 46.3578 33.3477 46.3333 33.8999 46.1384C34.3119 45.9924 34.7908 45.7702 35.5706 45.6143C35.6988 45.5887 35.8236 45.6719 35.8492 45.7999C35.8749 45.9278 35.7916 46.0529 35.6635 46.0785C34.9138 46.2286 34.454 46.4444 34.0578 46.5846C33.3976 46.8179 32.8946 46.8796 31.7073 46.2152Z"
      fill="black" />
    <path fill-rule="evenodd" clip-rule="evenodd"
      d="M32.5 39.2277C32.5046 39.3586 32.4024 39.4686 32.2718 39.4732C32.1413 39.4779 32.0314 39.3755 32.0267 39.2446C31.9896 38.2126 31.5019 36.8257 31.3223 35.5115C31.1779 34.4545 31.2329 33.444 31.7979 32.6679C32.3577 31.8988 33.4286 31.3415 35.3667 31.2339C35.4972 31.2269 35.609 31.327 35.6163 31.4573C35.6235 31.5876 35.5235 31.6999 35.393 31.7068C33.658 31.8034 32.682 32.2583 32.1808 32.9466C31.6848 33.6278 31.6648 34.5196 31.7916 35.4469C31.9734 36.778 32.4623 38.1829 32.5 39.2277Z"
      fill="black" />
    <path fill-rule="evenodd" clip-rule="evenodd"
      d="M32.3725 38.3014C32.2422 38.2909 32.1445 38.1769 32.1546 38.0471C32.1646 37.9168 32.2785 37.8191 32.4088 37.829C33.0226 37.8761 33.549 37.8965 33.9909 37.8429C34.3926 37.7941 34.7199 37.6864 34.971 37.4665C35.2233 37.2466 35.3945 36.9168 35.5011 36.445C35.6177 35.9284 35.6542 35.253 35.6175 34.374C35.6115 34.2297 35.5798 33.46 35.4054 32.7177C35.2969 32.2558 35.1388 31.8014 34.8802 31.5426C34.7877 31.4506 34.7877 31.3006 34.8802 31.2081C34.9725 31.1156 35.1226 31.1156 35.215 31.2081C35.5257 31.5187 35.7361 32.0551 35.8665 32.6095C36.0502 33.3914 36.0844 34.2023 36.0907 34.3547C36.1707 36.2728 35.8854 37.2967 35.2825 37.8237C34.6767 38.3531 33.7189 38.4049 32.3725 38.3014Z"
      fill="black" />
    <path fill-rule="evenodd" clip-rule="evenodd"
      d="M31.8676 36.2413C31.7481 36.1884 31.6943 36.0482 31.7474 35.9289C31.8004 35.8091 31.9405 35.7556 32.0599 35.8085C33.8464 36.6026 35.2251 35.5659 35.5765 35.4257C35.6978 35.3769 35.8358 35.4362 35.8843 35.5572C35.9328 35.6788 35.8737 35.8167 35.7523 35.8649C35.3647 36.0203 33.8386 37.1175 31.8676 36.2413Z"
      fill="black" />
    <path fill-rule="evenodd" clip-rule="evenodd"
      d="M32.1273 33.138C32.1586 33.2258 32.1364 33.3276 32.0631 33.3934C31.9661 33.4812 31.8163 33.4736 31.7287 33.3765C31.7097 33.3556 31.6938 33.3346 31.6804 33.3137L31.6423 33.2392L31.6203 33.1537L31.6202 33.0623C31.6351 32.9448 31.7171 32.8151 31.894 32.7179C32.2204 32.5394 32.9854 32.4259 33.8052 32.5062C34.6203 32.5859 35.4846 32.8535 36.0216 33.3905C36.114 33.483 36.114 33.633 36.0216 33.7255C35.9292 33.818 35.7791 33.818 35.6867 33.7255C35.3649 33.4038 34.9018 33.2037 34.415 33.0862C33.6609 32.9047 32.8462 32.9233 32.3642 33.0461C32.2793 33.0676 32.1844 33.1106 32.1273 33.138Z"
      fill="black" />
    <path fill-rule="evenodd" clip-rule="evenodd"
      d="M30.3621 37.3631C30.3842 37.3741 30.657 37.505 30.681 37.5155C31.3536 37.8035 31.7735 38.0042 31.9332 38.0821C32.0131 38.0786 32.0928 38.1159 32.1402 38.1874L32.1729 38.2473L32.1911 38.3235L32.1854 38.3986L32.1603 38.4626L32.1092 38.5248L32.0486 38.5632L31.9874 38.5813L31.9284 38.583L31.8657 38.5708C31.8483 38.565 31.8223 38.5551 31.7861 38.5388C31.6514 38.4771 31.2962 38.2945 30.4945 37.9506C30.4715 37.9408 30.3092 37.8709 30.1967 37.8128C30.1217 37.7744 30.0642 37.7342 30.0408 37.7104C29.9484 37.6185 29.9484 37.4684 30.0408 37.3759C30.1288 37.288 30.2691 37.2834 30.3621 37.3631Z"
      fill="black" />
    <path fill-rule="evenodd" clip-rule="evenodd"
      d="M30.3891 49.6488C30.4668 49.6298 30.5523 49.6507 30.6129 49.7113C30.7053 49.8037 30.7053 49.9538 30.6129 50.0462C30.5999 50.0592 30.5866 50.0713 30.5731 50.0824C30.6035 50.1662 30.5851 50.2637 30.518 50.3309C30.4256 50.4232 30.2756 50.4232 30.1832 50.3309C29.8259 49.9735 29.5405 49.7416 29.3098 49.5466C28.7193 49.0475 28.4488 48.7735 28.2659 47.4924C28.0561 46.0247 28.4252 45.038 28.9587 44.3737C29.76 43.3765 30.9514 43.1083 31.2007 43.0525C31.3106 43.0286 31.4225 43.0845 31.4683 43.1875C31.5141 43.2904 31.4813 43.4109 31.3897 43.4766C31.2143 43.6017 30.2417 44.3033 30.2078 45.8984C30.1662 47.8549 30.2247 48.8939 30.3241 49.415C30.3409 49.5031 30.3678 49.5887 30.3891 49.6488ZM29.836 49.3709C29.7472 48.799 29.6948 47.7467 29.7343 45.8885C29.7541 44.9601 30.0514 44.2951 30.368 43.8448C30.0217 44.0194 29.6406 44.2812 29.3279 44.6704C28.8572 45.2562 28.5497 46.1306 28.7346 47.4255C28.8909 48.5192 29.1112 48.7589 29.6155 49.1847C29.6842 49.2429 29.7575 49.304 29.836 49.3709Z"
      fill="black" />
    <path
      d="M28.8934 48.6522L30.0191 49.6653L29.9066 47.6391L30.1317 45.1626L30.4694 43.5866L29.006 44.5997L28.4432 46.1757L28.8934 48.6522Z"
      fill="black" />
    <path
      d="M27.9929 38.7462L29.4563 39.5341H29.6814L29.1186 37.7331L28.6683 35.5943L28.8934 32.6675L29.6814 30.191L28.1055 32.2172L27.4301 34.4686L27.0923 37.1702L27.9929 38.7462Z"
      fill="black" />
    <path fill-rule="evenodd" clip-rule="evenodd"
      d="M29.565 39.7493C28.86 39.6521 28.3142 39.3868 27.9035 39.0046C27.2399 38.3868 26.9267 37.4548 26.8927 36.3914C26.8108 33.8305 28.3548 30.5058 30.1209 29.283C30.2168 29.2161 30.3469 29.23 30.4273 29.3144C30.5077 29.3987 30.5145 29.529 30.4434 29.6221C29.6156 30.6978 27.8332 34.4466 29.6896 38.9063C29.7255 38.9325 29.7545 38.9691 29.7714 39.0139L29.8892 39.3252C29.9726 39.3676 30.0261 39.4584 30.0171 39.5573C30.0108 39.6265 29.9751 39.6864 29.9235 39.7248C29.8994 39.7574 29.8667 39.7836 29.8272 39.801C29.7353 39.84 29.6316 39.8173 29.565 39.7493ZM29.3078 39.2193C27.8146 35.7509 28.442 32.6792 29.2305 30.8328C28.1147 32.3145 27.3078 34.5531 27.3661 36.3763C27.3957 37.3018 27.6486 38.1204 28.2261 38.6579C28.5074 38.9197 28.8653 39.1122 29.3078 39.2193Z"
      fill="black" />
    <path fill-rule="evenodd" clip-rule="evenodd"
      d="M88.2224 56.2468C88.1665 56.1285 88.2177 55.9873 88.3358 55.9317C88.4539 55.8761 88.5953 55.927 88.6511 56.0453C88.6733 56.0926 88.732 56.1371 88.8071 56.191C88.9711 56.3097 89.2114 56.4356 89.4912 56.5632C90.6314 57.0841 92.4046 57.6156 92.6443 57.6873C92.7752 57.7266 93.3447 57.8695 94.2115 57.003C94.304 56.9106 94.4535 56.9106 94.546 57.003C94.6385 57.0954 94.6385 57.2455 94.546 57.3379C93.4361 58.4478 92.6757 58.1913 92.5082 58.1409C92.2644 58.0678 90.4569 57.5249 89.294 56.994C88.9816 56.8511 88.714 56.708 88.5301 56.5752C88.3725 56.4616 88.2695 56.3465 88.2224 56.2468Z"
      fill="black" />
    <path fill-rule="evenodd" clip-rule="evenodd"
      d="M89.2964 55.599C89.2051 55.5058 89.2062 55.3558 89.2999 55.2642C89.393 55.1726 89.5431 55.174 89.6344 55.2672C89.6571 55.29 89.706 55.312 89.7699 55.3424C89.9113 55.4095 90.112 55.4865 90.3436 55.5678C91.2761 55.8948 92.6962 56.2818 92.8864 56.3337C94.047 56.6503 94.0255 56.7326 95.2303 56.7085C95.3612 56.7059 95.4694 56.8098 95.4717 56.9405C95.4746 57.0712 95.3705 57.1794 95.2402 57.182C93.9667 57.2074 93.9882 57.1252 92.7619 56.7906C92.5693 56.7381 91.1312 56.3458 90.1871 56.0147C89.7362 55.8566 89.393 55.697 89.2964 55.599Z"
      fill="black" />
    <path
      d="M38.7994 85.6872L33.3961 84.1112L32.8332 83.2107L32.1578 78.4828L31.1447 68.3517L38.6868 66.5506L45.5534 66.2129L50.619 66.6632L55.572 68.5768L58.1611 70.9408L59.9622 73.9801L59.0616 76.6817L57.0354 80.2839L53.8835 83.5484L50.2813 85.2369L44.7655 86.0249L38.7994 85.6872Z"
      fill="black" />
  </g>
  <defs>
    <clipPath id="clip0_265_1241">
      <rect y="90" width="90" height="90" rx="45" transform="rotate(-90 0 90)" fill="white" />
    </clipPath>
  </defs>
</svg>