<svg width="90" height="90" viewBox="0 0 90 90" fill="none" xmlns="http://www.w3.org/2000/svg">
<g clip-path="url(#clip0_394_4378)">
<mask id="mask0_394_4378" style="mask-type:luminance" maskUnits="userSpaceOnUse" x="0" y="0" width="90" height="90">
<path d="M0 0L0 90H90V0H0Z" fill="white"/>
</mask>
<g mask="url(#mask0_394_4378)">
<path d="M90 45C90 20.1472 69.8528 0 45 0C20.1472 0 0 20.1472 0 45C0 69.8528 20.1472 90 45 90C69.8528 90 90 69.8528 90 45Z" fill="#D80027"/>
<path d="M27.3887 65.375L39.3418 61.4902V48.9219L46.7422 59.082L58.6953 55.1973L51.3125 65.375L58.6953 75.5527L46.7422 71.6504L39.3418 81.8281V69.2598L27.3887 65.375ZM69.6992 36.6523L66.043 39.623L67.7481 44.0176L63.793 41.4688L60.1191 44.4395L61.332 39.8867L57.377 37.3203L62.0879 37.0742L63.3008 32.5039L64.9883 36.916L69.6992 36.6523ZM58.9766 30.7461L54.4766 29.3398L51.752 33.1895L51.6816 28.4785L47.1816 27.0898L51.6465 25.5606L51.5938 20.8496L54.4063 24.6289L58.8711 23.1172L56.1465 26.9668L58.9766 30.7461ZM33.0312 22.7832L37.2676 24.8574L40.5547 21.4824L39.8867 26.1406L44.1055 28.2148L39.4648 29.0234L38.7969 33.6992L36.5996 29.5156L31.9414 30.3242L35.2285 26.9492L33.0312 22.7832ZM20.1992 36.5293L24.8926 36.8809L26.668 32.5039L27.793 37.0918L32.5039 37.4258L28.4961 39.9043L29.6211 44.4922L26.0176 41.4512L22.0273 43.9473L23.8027 39.5703L20.1992 36.5293Z" fill="#FFDA44"/>
</g>
</g>
<defs>
<clipPath id="clip0_394_4378">
<rect width="90" height="90" fill="white" transform="matrix(0 -1 1 0 0 90)"/>
</clipPath>
</defs>
</svg>
