<svg width="90" height="90" viewBox="0 0 90 90" fill="none" xmlns="http://www.w3.org/2000/svg">
<mask id="mask0_394_7540" style="mask-type:luminance" maskUnits="userSpaceOnUse" x="0" y="0" width="90" height="90">
<path d="M0 0L0 90H90V0H0Z" fill="white"/>
</mask>
<g mask="url(#mask0_394_7540)">
<path d="M90 45C90 20.1472 69.8528 0 45 0C20.1472 0 0 20.1472 0 45C0 69.8528 20.1472 90 45 90C69.8528 90 90 69.8528 90 45Z" fill="#F0F0F0"/>
<path d="M56.7392 88.4492C66.4 85.8455 74.7731 80.1072 80.7021 72.3907H56.7392V88.4492ZM89.8288 48.9125C89.9419 47.6112 89.999 46.3056 90 44.9994C90 24.2082 75.8987 6.7134 56.7392 1.5496L56.7392 48.9125L89.8288 48.9125ZM33.2608 1.5496C14.1013 6.7134 0 24.2082 0 44.9994C0 46.3181 0.0601172 47.6226 0.171211 48.9125H33.2608L33.2608 1.5496ZM9.29795 72.3907C15.2271 80.1072 23.6 85.8455 33.2608 88.4492V72.3907H9.29795Z" fill="#D80027"/>
<path d="M39.1312 0.380898L39.1312 54.7826H1.07031C1.97876 58.883 3.46064 62.835 5.47223 66.5218H39.131V89.6191C41.0525 89.8696 43.0114 90 45.0007 90C46.99 90 48.9489 89.8696 50.8702 89.6191V66.5218H84.529C86.5406 62.835 88.0224 58.883 88.9309 54.7826L50.8704 54.7826L50.8704 0.380898C48.9489 0.130798 46.99 0 45.0007 0C43.0114 0 41.0525 0.130798 39.1312 0.380898Z" fill="#0052B4"/>
</g>
</svg>
