<svg width="90" height="90" viewBox="0 0 90 90" fill="none" xmlns="http://www.w3.org/2000/svg">
<mask id="mask0_394_7499" style="mask-type:luminance" maskUnits="userSpaceOnUse" x="0" y="0" width="90" height="90">
<path d="M0 0L0 90H90V0H0Z" fill="white"/>
</mask>
<g mask="url(#mask0_394_7499)">
<path d="M44.9744 0.144997C50.8682 0.144997 56.7043 1.3058 62.1495 3.5613C67.5947 5.8167 72.5423 9.1226 76.7098 13.2902C80.8774 17.4577 84.1833 22.4053 86.4387 27.8505C88.6942 33.2957 89.8551 39.1318 89.8551 45.0256C89.8551 50.9194 88.6942 56.7555 86.4387 62.2007C84.1833 67.6459 80.8774 72.5935 76.7098 76.761C72.5423 80.9286 67.5947 84.2345 62.1495 86.4899C56.7043 88.7454 50.8682 89.9063 44.9744 89.9062C33.0713 89.9062 21.6557 85.1778 13.239 76.761C4.82223 68.3443 0.0937505 56.9287 0.09375 45.0256C0.0937505 33.1225 4.82223 21.7069 13.239 13.2902C21.6557 4.8734 33.0713 0.144997 44.9744 0.144997Z" fill="black"/>
<path d="M45.8198 22.7836C73.5918 22.9429 85.365 33.8381 84.9258 45.4248C84.446 58.084 72.1581 68.7031 45.8198 68.7031C23.7822 68.7031 6.19798 66.2274 5.91728 45.7434C5.63655 25.2572 23.7826 22.6572 45.8198 22.7836Z" fill="#9B916B"/>
<g filter="url(#filter0_f_394_7499)">
<path d="M45.9047 26.3698C71.0445 26.5077 81.7018 35.9403 81.3043 45.9716C80.8699 56.9314 69.7467 66.125 45.9047 66.125C25.9559 66.125 10.0383 63.9816 9.78416 46.2474C9.53004 28.5113 25.9562 26.2604 45.9047 26.3698Z" fill="#E8DEC0"/>
</g>
<path d="M34.1009 53.5354C34.7171 53.5354 35.3081 54.0714 35.7439 55.0256C36.1796 55.9797 36.4244 57.2738 36.4244 58.6232C36.4244 59.9725 36.1796 61.2666 35.7439 62.2208C35.3081 63.1749 34.7171 63.7109 34.1009 63.7109C33.4846 63.7109 32.8936 63.1749 32.4579 62.2208C32.0221 61.2666 31.7773 59.9725 31.7773 58.6232C31.7773 57.2738 32.0221 55.9797 32.4579 55.0256C32.8936 54.0714 33.4846 53.5354 34.1009 53.5354Z" fill="url(#paint0_radial_394_7499)"/>
<path d="M48.2114 55.9904C52.2382 55.9904 59.1713 55.771 59.0972 57.1408C58.9829 59.2556 47.1666 62.2136 45.5247 61.5011C44.2109 60.931 44.4466 60.0231 44.3894 59.3659C44.2705 57.9993 44.1846 55.9904 48.2114 55.9904Z" fill="#958085"/>
<path d="M39.0915 62.7027C38.3845 62.6747 39.2243 60.1692 39.2344 58.9012C39.2448 57.5862 38.5399 55.2084 39.1486 54.9569C40.0512 54.584 40.6527 57.4963 40.6349 58.9012C40.6176 60.2687 40.0665 62.7412 39.0915 62.7027Z" fill="#8C837C"/>
<path d="M27.9203 55.1213C26.8772 53.9998 18.9713 53.1585 18.6356 54.8323C18.2196 56.9073 24.9651 59.8339 26.2705 59.74C27.4326 59.6563 28.0512 59.2734 28.489 57.7872C28.7469 56.9118 28.8946 56.1687 27.9203 55.1213Z" fill="#958085"/>
<path d="M65.9577 55.2464C65.9226 48.8271 65.9005 36.1535 65.9005 36.1535C65.7884 33.768 70.1902 35.907 70.2165 45.1283C70.2468 55.7735 66.166 56.9452 65.9577 55.2464Z" fill="url(#paint1_radial_394_7499)"/>
<path d="M73.5104 49.0138C72.9909 46.1425 73.3367 41.3614 73.4859 41.4594C73.4377 40.5156 75.3289 41.3619 75.3402 45.0104C75.3533 49.2223 73.5999 49.686 73.5104 49.0138Z" fill="#958D83"/>
<path d="M34.1009 38.6914C34.7171 38.6914 35.3081 38.1554 35.7439 37.2013C36.1796 36.2471 36.4244 34.953 36.4244 33.6037C36.4244 32.9356 36.3643 32.274 36.2476 31.6567C36.1308 31.0394 35.9596 30.4785 35.7439 30.0061C35.5281 29.5337 35.272 29.1589 34.9901 28.9032C34.7082 28.6475 34.406 28.5159 34.1009 28.5159C33.7958 28.5159 33.4936 28.6475 33.2117 28.9032C32.9298 29.1589 32.6737 29.5337 32.4579 30.0061C32.2421 30.4785 32.071 31.0394 31.9542 31.6567C31.8374 32.274 31.7773 32.9356 31.7773 33.6037C31.7773 34.953 32.0221 36.2471 32.4579 37.2013C32.8936 38.1554 33.4846 38.6914 34.1009 38.6914Z" fill="url(#paint2_radial_394_7499)"/>
<path d="M48.2114 36.2371C52.2382 36.2371 59.1713 36.4565 59.0972 35.0868C58.9829 32.9719 47.1666 30.0139 45.5247 30.7264C44.2109 31.2965 44.4466 32.2044 44.3894 32.8616C44.2705 34.2282 44.1846 36.2371 48.2114 36.2371Z" fill="#958085"/>
<path d="M39.0915 29.5262C38.3845 29.5542 39.2243 32.0597 39.2344 33.3277C39.2448 34.6427 38.5399 37.0205 39.1486 37.272C40.0512 37.6449 40.6527 34.7326 40.6349 33.3277C40.6176 31.9602 40.0665 29.4877 39.0915 29.5262Z" fill="#8C837C"/>
<path d="M27.9203 37.1102C26.8772 38.2318 18.9713 39.073 18.6356 37.3992C18.2196 35.3242 24.9651 32.3976 26.2705 32.4915C27.4326 32.5752 28.0512 32.9581 28.489 34.4443C28.7469 35.3197 28.8946 36.0628 27.9203 37.1102Z" fill="#958085"/>
<g filter="url(#filter1_f_394_7499)">
<path d="M7.51172 46.5172C7.51167 46.6519 7.51257 46.7876 7.51443 46.9241C7.75177 64.2436 22.487 66.4759 41.0495 66.5156C20.5368 64.8149 6.02986 60.7889 9.20036 38.0741C8.1062 40.3774 7.51276 43.16 7.51172 46.5172Z" fill="white" fill-opacity="0.535714"/>
</g>
<g filter="url(#filter2_f_394_7499)">
<path d="M54.0312 24.32C73.7369 25.0936 94.3151 40.6838 78.4018 58.5781C82.8105 54.8638 85.0263 50.1396 85.2153 45.0581C85.5896 34.9937 76.1495 25.497 54.0312 24.32Z" fill="black"/>
</g>
</g>
<defs>
<filter id="filter0_f_394_7499" x="5.24615" y="21.8321" width="80.6054" height="48.828" filterUnits="userSpaceOnUse" color-interpolation-filters="sRGB">
<feFlood flood-opacity="0" result="BackgroundImageFix"/>
<feBlend mode="normal" in="SourceGraphic" in2="BackgroundImageFix" result="shape"/>
<feGaussianBlur stdDeviation="2.26755" result="effect1_foregroundBlur_394_7499"/>
</filter>
<filter id="filter1_f_394_7499" x="6.30312" y="36.8656" width="35.9563" height="30.8586" filterUnits="userSpaceOnUse" color-interpolation-filters="sRGB">
<feFlood flood-opacity="0" result="BackgroundImageFix"/>
<feBlend mode="normal" in="SourceGraphic" in2="BackgroundImageFix" result="shape"/>
<feGaussianBlur stdDeviation="0.604299" result="effect1_foregroundBlur_394_7499"/>
</filter>
<filter id="filter2_f_394_7499" x="52.1331" y="22.4222" width="34.9916" height="38.0541" filterUnits="userSpaceOnUse" color-interpolation-filters="sRGB">
<feFlood flood-opacity="0" result="BackgroundImageFix"/>
<feBlend mode="normal" in="SourceGraphic" in2="BackgroundImageFix" result="shape"/>
<feGaussianBlur stdDeviation="0.949066" result="effect1_foregroundBlur_394_7499"/>
</filter>
<radialGradient id="paint0_radial_394_7499" cx="0" cy="0" r="1" gradientUnits="userSpaceOnUse" gradientTransform="translate(36.1986 58.7144) rotate(-90.7521) scale(6.45529 4.23977)">
<stop stop-color="#2F2F2F"/>
<stop offset="1"/>
</radialGradient>
<radialGradient id="paint1_radial_394_7499" cx="0" cy="0" r="1" gradientUnits="userSpaceOnUse" gradientTransform="translate(70.076 45.7512) rotate(-89.2932) scale(10.3152 3.71912)">
<stop stop-color="#2F2F2F"/>
<stop offset="1"/>
</radialGradient>
<radialGradient id="paint2_radial_394_7499" cx="0" cy="0" r="1" gradientUnits="userSpaceOnUse" gradientTransform="translate(36.1584 33.6037) rotate(90) scale(5.08776 3.73812)">
<stop stop-color="#2F2F2F"/>
<stop offset="1"/>
</radialGradient>
</defs>
</svg>
