<svg width="90" height="90" viewBox="0 0 90 90" fill="none" xmlns="http://www.w3.org/2000/svg">
<mask id="mask0_394_7530" style="mask-type:luminance" maskUnits="userSpaceOnUse" x="0" y="0" width="90" height="90">
<path d="M0 0L0 90H90V0H0Z" fill="white"/>
</mask>
<g mask="url(#mask0_394_7530)">
<mask id="mask1_394_7530" style="mask-type:luminance" maskUnits="userSpaceOnUse" x="0" y="0" width="90" height="90">
<path d="M90 45C90 20.1472 69.8528 0 45 0C20.1472 0 0 20.1472 0 45C0 69.8528 20.1472 90 45 90C69.8528 90 90 69.8528 90 45Z" fill="white"/>
</mask>
<g mask="url(#mask1_394_7530)">
<path d="M0 117.449L0 -62.911H90.18L90.18 117.449H0Z" fill="#024FA2"/>
<path d="M15.0312 117.449L15.0313 -62.911H75.151L75.151 117.449H15.0312Z" fill="white"/>
<path d="M17.5352 117.449L17.5352 -62.911H72.6449L72.6449 117.449H17.5352Z" fill="#ED1C27"/>
<path d="M25.0508 57.331C25.0508 68.3987 34.0232 77.3711 45.0909 77.3711C56.1587 77.3711 65.1309 68.3987 65.1309 57.331C65.1309 46.2632 56.1587 37.2909 45.0909 37.2909C34.0232 37.2909 25.0508 46.2632 25.0508 57.331ZM60.797 45.9198L52.5063 57.331L60.797 68.7421L47.3821 64.3836L39.092 75.7947V61.6899L25.6773 57.331L39.092 52.9725V38.8678L47.3823 50.2788L60.797 45.9198Z" fill="white"/>
</g>
</g>
</svg>
