<svg width="90" height="90" viewBox="0 0 90 90" fill="none" xmlns="http://www.w3.org/2000/svg">
<mask id="mask0_394_7474" style="mask-type:luminance" maskUnits="userSpaceOnUse" x="0" y="0" width="90" height="90">
<path d="M45 0C20.1472 0 0 20.1472 0 45C0 69.8528 20.1472 90 45 90C69.8528 90 90 69.8528 90 45C90 20.1472 69.8528 0 45 0Z" fill="white"/>
</mask>
<g mask="url(#mask0_394_7474)">
<path d="M0 0L0 90H90V0H0Z" fill="#FF0000"/>
<path d="M73.5977 44.3743C73.5977 59.455 80.9258 71.6836 90.0008 71.8516V16.8856C80.9255 17.0529 73.5977 29.293 73.5977 44.3728V44.3743Z" fill="white"/>
<path d="M12.8755 46.9367C12.969 52.694 14.6931 58.3007 17.7757 62.7458C22.1836 69.1028 28.9576 73.3094 37.672 75.0836C38.0728 75.1652 38.624 75.2692 38.8912 75.3255C39.1584 75.3817 39.839 75.497 40.4071 75.5673C40.976 75.6377 41.9153 75.7579 42.4835 75.8416C43.818 76.0384 48.6887 76.0398 49.8995 75.8416C53.6042 75.2355 56.3093 74.5781 60.8423 73.1831C62.2197 72.7591 62.5502 72.6606 63.3911 72.4363C63.6253 72.3737 64.4458 72.1466 65.215 71.9413C70.1635 70.6208 73.5745 70.5056 76.8052 71.5244C79.1705 72.2704 80.9833 73.4495 83.2978 75.7763C84.9614 77.4434 87.4714 79.3265 90.0001 80.5547V69.3272C89.3223 69.034 88.6135 68.7991 88.0883 68.5362C84.7259 66.8508 82.3619 65.1423 80.0459 62.7243C76.9973 59.5419 75.1682 55.9581 74.399 51.6831C74.1874 50.5088 74.1501 46.8345 74.3442 45.6735C75.4009 39.3447 78.7767 33.9354 84.3636 29.6112C86.0117 28.3357 87.951 27.1875 90 26.151V2.5191C88.2731 3.3157 86.1102 4.6706 83.7816 6.306C82.5026 7.2039 80.5731 8.3957 79.8048 9.0446C77.3614 11.1062 76.1808 12.8423 74.5278 14.0909C72.1294 16.6862 71.6316 16.3775 68.2581 16.3178C62.8833 15.2378 52.854 14.9291 44.7765 15.2378C42.4182 15.1238 41.1921 15.2525 39.9459 15.3728C35.5428 15.7996 32.8998 16.6349 29.454 18.361C26.7251 19.7286 24.3717 21.4498 22.1154 23.7118C19.5911 26.2417 17.8383 28.6942 16.2156 31.984C14.2384 35.9926 13.2343 39.8077 12.9306 44.4646C12.8771 45.2908 12.8622 46.114 12.8755 46.9367Z" fill="black"/>
<path d="M26.8059 35.5972C26.8424 35.1732 26.9247 34.7514 27.0372 34.3119C28.177 29.8542 33.0945 26.0454 39.0783 24.9843C40.8375 24.6728 43.515 24.6461 45.0984 24.9295C49.1169 25.6487 52.0614 27.7293 53.1843 30.631C53.6441 31.8192 53.7686 33.5728 53.481 34.8391C52.7948 37.8598 50.127 40.8586 46.4934 42.6832C44.7272 43.5705 41.8401 44.4473 40.7151 44.441C39.9037 44.5732 39.813 44.5879 38.6388 44.6611C38.2219 44.7729 36.0063 44.6041 34.4967 44.2547C31.2069 43.4911 28.6938 41.7002 27.5316 39.2999C26.9424 38.0834 26.6983 36.8683 26.8059 35.5972Z" fill="black"/>
<path d="M26.806 54.627C26.6984 53.3558 26.9424 52.1408 27.5316 50.9244C28.6918 48.5268 31.2069 46.7409 34.4856 45.9807C37.0583 45.4646 40.7034 45.6432 41.3193 45.8485C43.4167 46.1242 46.4253 47.3181 48.3837 48.6505C51.0549 50.4673 52.9689 53.0182 53.4813 55.4503C53.939 57.6201 53.4911 59.6563 52.1742 61.405C50.1907 64.0375 46.6461 65.491 42.2313 65.4922C35.0622 65.4929 28.4142 61.3072 27.0375 55.9228C26.925 55.4833 26.8425 55.0503 26.806 54.627Z" fill="white"/>
<path d="M16.8984 44.3656C16.8984 44.3656 54.9564 45.9083 70.9524 44.9366C71.8475 39.5738 73.0625 37.1192 77.4234 31.7756C79.7051 28.9785 85.6029 23.7896 90.003 21.7883V6.71539C87.834 8.11939 83.643 10.9004 82.851 11.5694C81.8392 12.4236 80.4815 13.5796 79.8297 14.1294C77.7597 15.876 74.8143 18.4875 73.4136 19.5456C72.3069 20.6657 71.5279 20.5532 70.0407 20.5124C66.0609 20.4119 50.4918 20.0231 43.992 19.7102C41.9938 19.6138 41.1809 19.6082 40.1247 19.7102C36.3939 20.0716 33.8163 20.7852 30.8961 22.2484C28.5836 23.4065 26.5902 24.8577 24.6777 26.7745C22.5388 28.9184 21.0537 30.9961 19.6791 33.784C18.0043 37.18 16.8997 44.3638 16.8997 44.3638L16.8984 44.3656Z" fill="#333333"/>
<path d="M53.4701 33.6479C52.954 36.0941 51.031 38.6612 48.3443 40.4885C46.3749 41.8287 43.352 43.0268 41.2427 43.3038C40.6233 43.5106 36.9551 43.6934 34.3676 43.1752C31.07 42.4102 28.5353 40.6067 27.368 38.1958C26.5791 36.5645 26.4181 34.9444 26.8709 33.1756C29.5857 20.6692 56.09 20.2406 53.4701 33.6479Z" fill="white"/>
<path d="M52.8129 47.1877L53.2573 47.6054C54.1376 48.4365 54.7381 50.226 55.0545 52.9787C55.4025 56.0015 55.2141 59.8454 54.6291 61.6877C54.3401 62.5983 54.3893 62.845 54.9138 63.063C56.5704 63.75 59.7057 62.3135 63.9228 58.9365C66.5975 56.7948 69.813 53.6109 71.3133 51.6183C71.8976 50.8428 72.3589 49.8971 72.5825 49.0153C72.7646 48.2982 72.7287 44.0497 72.5333 43.0465C72.4679 42.7119 72.3498 42.0889 72.2668 41.6635C71.8203 39.3509 70.7002 37.402 67.8631 33.9874C65.3002 30.9034 61.0807 27.1213 59.0746 26.1109C57.6079 25.3719 55.3972 25.0667 54.7201 25.5104C54.3319 25.7649 54.3256 25.8718 54.6364 26.8477C54.9373 27.7941 55.2439 31.0192 55.2439 33.2047C55.2439 34.1097 55.1595 35.5701 55.0541 36.4537C54.7482 39.0265 54.2209 40.5064 53.2991 41.3743L52.8125 41.83L52.8129 47.1877ZM53.7854 46.0817C53.7854 45.4116 54.6579 45.0362 55.6205 45.2956C57.2714 45.74 58.0702 46.8165 57.2356 47.4725C56.3215 48.1918 53.7854 47.1702 53.7854 46.0817ZM53.7854 43.5364C53.7854 42.789 55.2071 41.8911 56.3883 41.8911C57.4065 41.8911 57.8754 42.6645 57.3003 43.3958C56.8264 43.9983 55.4236 44.5285 54.6706 44.3872C54.1587 44.2915 53.7854 43.9315 53.7854 43.5364Z" fill="#EECC00"/>
<path d="M42.8758 51.2809C45.9049 51.2809 48.3601 53.5365 48.3601 56.3182C48.3601 59.1004 45.9048 61.3555 42.8758 61.3555C39.8461 61.3555 37.3906 59.1005 37.3906 56.3182C37.3906 53.5366 39.8459 51.2809 42.8758 51.2809Z" fill="black"/>
<path d="M40.7275 52.4601C42.055 52.4601 43.1308 53.4487 43.1308 54.6672C43.1308 55.8864 42.055 56.875 40.7275 56.875C39.4 56.875 38.3242 55.8864 38.3242 54.6672C38.3242 53.4487 39.4 52.4601 40.7275 52.4601Z" fill="white"/>
<path d="M42.9101 28.7223C45.9398 28.7223 48.3953 30.9772 48.3953 33.7596C48.3953 36.5411 45.94 38.7969 42.9101 38.7969C39.881 38.7969 37.4258 36.5412 37.4258 33.7596C37.4258 30.9773 39.8811 28.7223 42.9101 28.7223Z" fill="black"/>
<path d="M40.7275 29.8163C42.055 29.8163 43.1308 30.8042 43.1308 32.0234C43.1308 33.2419 42.055 34.2305 40.7275 34.2305C39.4 34.2305 38.3242 33.2419 38.3242 32.0234C38.3242 30.8041 39.4 29.8163 40.7275 29.8163Z" fill="white"/>
<path d="M12.875 46.9367C12.9685 52.694 14.6926 58.3007 17.7752 62.7458C22.1831 69.1028 28.9571 73.3094 37.6715 75.0836C38.0723 75.1652 38.6236 75.2692 38.8908 75.3255C39.1579 75.3817 39.8386 75.497 40.4067 75.5673C40.9755 75.6377 41.9149 75.7579 42.483 75.8416C43.8175 76.0384 48.6882 76.0398 49.899 75.8416C53.6037 75.2355 56.3088 74.5781 60.8418 73.1831C62.2192 72.7591 62.5497 72.6606 63.3907 72.4363C63.6248 72.3738 64.4453 72.1466 65.2146 71.9413C70.1631 70.6208 73.5741 70.5056 76.8048 71.5244C79.1701 72.2704 80.9829 73.4495 83.2974 75.7763C84.961 77.4434 87.471 79.3265 89.9997 80.5547V2.5187C88.2728 3.3153 86.1093 4.6738 83.7813 6.3092C82.5023 7.2071 80.5728 8.3954 79.8045 9.0443C77.3611 11.1059 76.1841 12.8385 74.5311 14.0871C72.132 16.6823 71.6314 16.3771 68.2578 16.3174C62.883 15.2374 52.8573 14.9322 44.7798 15.2409C42.4215 15.127 41.1924 15.2521 39.9459 15.3724C35.5428 15.7992 32.8998 16.6345 29.454 18.3606C26.7251 19.7282 24.3717 21.4494 22.1154 23.7114C19.5911 26.2413 17.8383 28.6938 16.2156 31.9836C14.2384 35.9922 13.2343 39.8073 12.9306 44.4642C12.8771 45.2904 12.8617 46.1141 12.875 46.9367ZM31.7165 66.6242L31.7165 23.0852H50.1293V66.6242H31.7165Z" fill="#191919"/>
<path d="M51.7029 17.3463C54.2061 20.4738 65.184 10.2207 66.9228 7.51798C62.5023 11.9646 59.1336 9.92759 55.7283 12.1656C52.323 14.4036 49.1997 14.2187 51.7029 17.3463Z" fill="#191919"/>
<path d="M50.0079 16.8705C53.3556 19.0698 60.6231 5.9241 61.4406 2.8158C58.6119 8.4114 54.7785 7.5168 52.2333 10.6986C49.6873 13.8801 46.6596 14.6706 50.0079 16.8705Z" fill="#191919"/>
<path d="M16.3705 48.3669C16.4499 53.2692 17.9173 58.0434 20.542 61.8282C24.2953 67.2402 30.0631 70.8225 37.483 72.333C37.8247 72.4027 38.2937 72.4905 38.5215 72.5391C38.7486 72.5869 39.328 72.6846 39.8117 72.7451C40.2962 72.8048 41.0963 72.9075 41.5801 72.9785C46.2229 73.8764 52.4884 73.1473 53.5192 72.9785C56.6734 72.4624 58.9768 71.902 62.8363 70.7152C64.0091 70.3538 64.2903 70.2701 65.0061 70.0788C65.2058 70.0254 65.9047 69.8327 66.5593 69.6577C70.7731 68.5334 74.3803 68.4349 77.1316 69.3026C79.1454 69.9375 80.6887 70.9416 82.6597 72.9224C84.0765 74.342 86.2132 75.9458 88.3663 76.9922V44.7332L51.6073 44.7332V68.6459H30.304V44.7332H16.3891C16.3687 45.2423 16.3621 47.8593 16.3705 48.3669Z" fill="#333333"/>
</g>
</svg>
