<svg width="90" height="90" viewBox="0 0 90 90" fill="none" xmlns="http://www.w3.org/2000/svg">
<path opacity="0.997" d="M44.9999 1.75917e-05C50.9094 1.75917e-05 56.7611 1.16398 62.2207 3.42545C67.6804 5.68691 72.6411 9.00157 76.8197 13.1802C80.9984 17.3588 84.3131 22.3196 86.5746 27.7793C88.836 33.2389 89.9999 39.0905 89.9999 45C89.9999 56.9348 85.2589 68.3807 76.8197 76.8198C68.3806 85.259 56.9347 90 44.9999 90C33.0652 90 21.6193 85.2589 13.1802 76.8198C4.74106 68.3807 8.01914e-06 56.9348 0 45C-6.01436e-06 33.0653 4.74103 21.6194 13.1802 13.1802C21.6193 4.7411 33.0652 2.76156e-05 44.9999 1.75917e-05Z" fill="#363636"/>
<path d="M64.9727 85.2344C72.4732 81.519 78.7888 75.7853 83.2096 68.6776C87.6305 61.57 89.9814 53.3703 89.998 45C89.9679 43.4255 89.8551 41.8537 89.6601 40.291L65.7324 72.1074L64.9727 85.2344Z" fill="#262626"/>
<path d="M0.378906 39.7109L17.584 43.2344L36.1992 22.3867L40.7148 0.306655C30.5079 1.2958 20.945 5.74145 13.6095 12.9074C6.27412 20.0734 1.60626 29.5299 0.378906 39.7109Z" fill="#424242"/>
<mask id="mask0_394_4387" style="mask-type:luminance" maskUnits="userSpaceOnUse" x="0" y="0" width="90" height="90">
<path d="M45 -2.5034e-06C50.9095 -4.98507e-06 56.7611 1.16396 62.2207 3.42543C67.6804 5.68689 72.6412 9.00156 76.8198 13.1802C80.9984 17.3588 84.3131 22.3196 86.5746 27.7793C88.836 33.2389 90 39.0905 90 45C90 56.9348 85.2589 68.3807 76.8198 76.8198C68.3806 85.259 56.9347 90 45 90C33.0652 90 21.6193 85.2589 13.1802 76.8198C4.74106 68.3807 8.01914e-06 56.9348 0 45C-6.01435e-06 33.0653 4.74104 21.6194 13.1802 13.1802C21.6193 4.74108 33.0652 4.51335e-06 45 -2.5034e-06Z" fill="white"/>
</mask>
<g mask="url(#mask0_394_4387)">
<path d="M86.4402 82.1795L34.6256 105.855L3.9163 85.6833L-8.53125 37.8862L0.372318 3.40292L42.5159 -8.48787L81.6916 5.78108L94.1566 34.319L86.4402 82.1795Z" stroke="#333333" stroke-width="7.29895" stroke-linecap="round" stroke-linejoin="round"/>
</g>
<mask id="mask1_394_4387" style="mask-type:luminance" maskUnits="userSpaceOnUse" x="0" y="0" width="90" height="90">
<path d="M45 -2.5034e-06C50.9095 -4.98507e-06 56.7611 1.16396 62.2207 3.42543C67.6804 5.68689 72.6412 9.00156 76.8198 13.1802C80.9984 17.3588 84.3131 22.3196 86.5746 27.7793C88.836 33.2389 90 39.0905 90 45C90 56.9348 85.2589 68.3807 76.8198 76.8198C68.3806 85.259 56.9347 90 45 90C33.0652 90 21.6193 85.2589 13.1802 76.8198C4.74106 68.3807 8.01914e-06 56.9348 0 45C-6.01435e-06 33.0653 4.74104 21.6194 13.1802 13.1802C21.6193 4.74108 33.0652 4.51335e-06 45 -2.5034e-06Z" fill="white"/>
</mask>
<g mask="url(#mask1_394_4387)">
<path d="M86.4402 82.1795L34.6256 105.855L3.9163 85.6833L-8.53125 37.8862L0.372318 3.40292L42.5159 -8.48787L81.6916 5.78108L94.1566 34.319L86.4402 82.1795Z" stroke="#333333" stroke-width="7.29895" stroke-linecap="round" stroke-linejoin="round"/>
</g>
<path d="M0 45.002C0.0188273 55.5411 3.73617 65.7393 10.5039 73.8184L1.14452 37.875L4.19336 26.0762C1.43725 32.0052 0.00626689 38.4636 0 45.002ZM20.1015 7.57422L42.1523 1.34962L74.7129 13.2129L84.4648 35.5508L78.0312 75.4473C85.6989 67.1597 89.9711 56.2925 90 45.002C90 33.0672 85.2589 21.6213 76.8198 13.1822C68.3807 4.74302 56.9347 0.00196292 45 0.00196292C36.1359 0.0187 27.4741 2.65297 20.1015 7.57422ZM47.1035 89.8516C58.6599 89.2991 69.5595 84.3169 77.5391 75.9394L47.1035 89.8516Z" fill="#2B2B2B"/>
</svg>
