<svg width="90" height="90" viewBox="0 0 90 90" fill="none" xmlns="http://www.w3.org/2000/svg">
<g clip-path="url(#clip0_394_4420)">
<path d="M76.8198 13.1812C59.2462 -4.39238 30.7538 -4.39238 13.1802 13.1812C-4.3934 30.7548 -4.3934 59.2472 13.1802 76.8208C30.7538 94.3944 59.2462 94.3944 76.8198 76.8208C94.3934 59.2472 94.3934 30.7548 76.8198 13.1812Z" fill="url(#paint0_linear_394_4420)"/>
<path d="M26 64.9095H26.0212C26.2056 66.7132 27.8119 68.0225 29.6175 67.8429L51.8743 65.2156C53.5571 65.0446 54.8356 63.6307 54.8356 61.939V58.34V33.966C56.2142 34.7965 57.9213 35.2948 59.7748 35.2948C64.3102 35.2948 68 32.3537 68 28.7183C68 25.083 64.301 22.1396 59.7656 22.1396C55.2302 22.1396 51.5404 25.083 51.5404 28.7183V58.7157L29.2928 61.2572V40.5494C30.6689 41.3769 32.3739 41.8735 34.2251 41.8735C38.7605 41.8735 42.4503 38.9301 42.4503 35.2948C42.4503 31.6594 38.7605 28.7183 34.2251 28.7183C29.6898 28.7183 26 31.6594 26 35.2948L26 64.9095Z" fill="url(#paint1_linear_394_4420)"/>
</g>
<defs>
<linearGradient id="paint0_linear_394_4420" x1="76.8198" y1="76.8208" x2="13.1802" y2="13.1812" gradientUnits="userSpaceOnUse">
<stop stop-color="#F1C40F"/>
<stop offset="1" stop-color="#614F05"/>
</linearGradient>
<linearGradient id="paint1_linear_394_4420" x1="76.8954" y1="46.2114" x2="17.0294" y2="46.2114" gradientUnits="userSpaceOnUse">
<stop stop-color="#FFD101"/>
<stop offset="1" stop-color="#C0B040"/>
</linearGradient>
<clipPath id="clip0_394_4420">
<rect width="90" height="90" fill="white" transform="matrix(0 -1 1 0 0 90)"/>
</clipPath>
</defs>
</svg>
