<svg width="90" height="90" viewBox="0 0 90 90" fill="none" xmlns="http://www.w3.org/2000/svg">
<g clip-path="url(#clip0_394_4669)">
<mask id="mask0_394_4669" style="mask-type:luminance" maskUnits="userSpaceOnUse" x="0" y="0" width="90" height="90">
<path d="M0 0L0 90H90V0H0Z" fill="white"/>
</mask>
<g mask="url(#mask0_394_4669)">
<path d="M45.1299 1.74198C69.3296 1.73228 88.9542 21.352 88.9542 45.5566C88.9542 69.7563 69.3296 89.376 45.1299 89.3711C20.9253 89.376 1.30078 69.7563 1.30078 45.5566C1.30078 21.352 20.9253 1.73228 45.1299 1.74198Z" fill="white" stroke="black" stroke-width="1.60004" stroke-linecap="round" stroke-linejoin="round"/>
<path fill-rule="evenodd" clip-rule="evenodd" d="M21.168 9.62981C23.788 11.7898 27.972 12.1258 29.584 11.4538C30.776 10.9578 31.36 7.6658 31.656 4.5138C27.908 5.7498 24.384 7.47781 21.168 9.62981ZM32.924 86.9978C36.812 88.1418 40.916 88.7618 45.176 88.7578C47.4 88.7578 49.588 88.5898 51.72 88.2658C53.62 84.9938 59.876 80.7458 60.348 77.1258C60.94 72.5898 51.672 73.5738 51.08 76.3338C50.488 79.0978 46.148 80.2778 41.416 80.4778C38.24 80.6098 35.148 82.3498 32.924 86.9978ZM44.016 2.38181C44.56 3.54981 45.372 4.6338 46.544 5.5378C52.656 10.2698 48.516 14.2138 50.684 18.9498C52.856 23.6818 58.376 20.5258 63.7 18.7498C67.556 17.4658 75.228 19.7938 77.604 16.9898C69.684 8.0138 58.088 2.3538 45.176 2.3578C44.788 2.3578 44.404 2.3618 44.016 2.3698C44.02 2.3738 44.016 2.38181 44.016 2.38181ZM47.728 61.1498C53.84 59.1778 51.672 63.5178 55.812 64.3058C59.956 65.0938 61.136 51.0938 69.616 48.7258C78.096 46.3618 73.56 35.7098 68.828 35.9098C64.096 36.1058 61.928 43.0058 59.164 41.2338C56.404 39.4578 50.684 35.9098 50.684 35.9098L47.728 61.1498Z" fill="#4D4D4D"/>
<path d="M30.0898 4.392C30.7658 4.364 31.4498 4.344 32.1298 4.344C56.3138 4.344 75.9418 23.968 75.9418 48.156C75.9418 67.06 63.9418 83.192 47.1538 89.332C70.3978 88.268 88.9418 69.06 88.9418 45.556C88.9418 21.368 69.3138 1.744 45.1298 1.744C39.8498 1.744 34.7818 2.68 30.0898 4.392Z" fill="black" fill-opacity="0.31373"/>
<path d="M39.0095 11.7038C57.0775 11.7038 71.7455 33.7518 71.7455 44.4398C71.7455 54.7278 57.0775 77.1758 39.0095 77.1758C20.9415 77.1758 6.27344 67.3238 6.27344 44.4398C6.27344 21.5518 20.9415 11.7038 39.0095 11.7038Z" fill="black" fill-opacity="0.31373"/>
<path d="M1.00711 46.6185C1.25111 58.6721 5.66831 66.9933 12.5071 72.0705C11.4719 81.6961 21.9571 89.6953 21.9571 89.6953C21.9571 89.6953 25.7375 82.1389 22.5695 76.8705C26.0535 77.8301 29.8135 78.2953 33.7335 78.2953C51.8015 78.2953 66.4695 55.8453 66.4695 45.5585C66.4695 34.8705 51.8015 12.8185 33.7335 12.8185C29.8135 12.8185 26.0535 13.2865 22.5695 14.2465C25.7375 8.97854 21.9571 1.43453 21.9571 1.43453C21.9571 1.43453 11.4751 9.42253 12.5071 19.0465C5.46911 24.2705 1.00711 32.9305 1.00711 45.5585C1.00711 45.9145 0.999907 46.2705 1.00711 46.6185Z" fill="white" stroke="black" stroke-width="1.6" stroke-linecap="round" stroke-linejoin="round"/>
<path fill-rule="evenodd" clip-rule="evenodd" d="M1.79297 39.8705C8.96097 29.5825 8.64897 41.0905 11.105 43.3705C13.905 45.9705 17.905 46.9705 20.505 43.9705C23.105 40.9705 27.505 25.5705 20.305 23.3705C16.593 22.2385 11.985 23.5985 7.91697 24.3105C4.77297 28.3185 2.62097 33.4705 1.79297 39.8705Z" fill="#4D4D4D"/>
<path d="M28.9353 47.0067C33.9421 47.0047 38.0023 51.0639 38.0023 56.0717C38.0023 61.0785 33.9421 65.1377 28.9353 65.1367C23.9275 65.1377 19.8672 61.0785 19.8672 56.0717C19.8672 51.0639 23.9275 47.0047 28.9353 47.0067Z" fill="white" stroke="black" stroke-width="1.60002" stroke-linecap="round" stroke-linejoin="round"/>
<path d="M28.9353 25.9169C33.9421 25.9149 38.0023 29.9741 38.0023 34.9819C38.0023 39.9887 33.9421 44.0479 28.9353 44.0469C23.9275 44.0479 19.8672 39.9887 19.8672 34.9819C19.8672 29.9741 23.9275 25.9149 28.9353 25.9169Z" fill="white" stroke="black" stroke-width="1.60002" stroke-linecap="round" stroke-linejoin="round"/>
<path d="M30.5343 33.9723C32.2033 33.9716 33.5566 35.3247 33.5566 36.994C33.5566 38.6629 32.2033 40.0159 30.5343 40.0156C28.8651 40.0159 27.5117 38.6629 27.5117 36.994C27.5117 35.3247 28.8651 33.9716 30.5343 33.9723Z" fill="black"/>
<path d="M30.5343 50.7848C32.2033 50.7841 33.5566 52.1372 33.5566 53.8065C33.5566 55.4754 32.2033 56.8284 30.5343 56.8281C28.8651 56.8284 27.5117 55.4754 27.5117 53.8065C27.5117 52.1372 28.8651 50.7841 30.5343 50.7848Z" fill="black"/>
<path d="M46.3047 45.5581C46.3047 53.5025 51.5927 59.9453 58.1047 59.9453C59.3127 59.9453 60.4847 59.7193 61.5807 59.3077C64.6767 54.2229 66.4687 49.1501 66.4687 45.5581C66.4687 41.8781 64.7367 36.8541 61.7167 31.8461C60.5807 31.3981 59.3647 31.1581 58.1047 31.1581C51.5927 31.1581 46.3047 37.6141 46.3047 45.5581Z" fill="#FFD5E5" stroke="black" stroke-width="1.6" stroke-linecap="round" stroke-linejoin="round"/>
<path d="M23.0039 14.1366L24.0679 14.8846C25.2999 14.7846 26.5479 14.7486 27.8199 14.7486C45.8879 14.7486 60.5559 36.7966 60.5559 47.4846C60.5559 55.7674 51.0519 71.9238 37.9159 77.9102C54.0159 74.8638 66.4679 55.0414 66.4679 45.5606C66.4679 34.8726 51.7999 12.8206 33.7319 12.8206C29.9719 12.8206 26.3679 13.2526 23.0039 14.1366Z" fill="black" fill-opacity="0.31373"/>
<path d="M56.3895 38.9184C57.9775 39.8344 58.7255 41.5184 58.0535 42.6784C57.3855 43.8344 55.5535 44.0304 53.9655 43.1144C52.3775 42.1984 51.6295 40.5144 52.3015 39.3544C52.9695 38.1984 54.7975 38.0024 56.3895 38.9184Z" fill="black"/>
<path d="M56.3895 52.0128C57.9775 51.0968 58.7255 49.4128 58.0535 48.2528C57.3855 47.0968 55.5535 46.9008 53.9655 47.8168C52.3775 48.7328 51.6295 50.4168 52.3015 51.5768C52.9695 52.7328 54.7975 52.9288 56.3895 52.0128Z" fill="black"/>
<path fill-rule="evenodd" clip-rule="evenodd" d="M13.1076 69.1707C12.5756 72.1067 4.50756 75.3707 2.90756 74.1707C1.30756 72.9707 4.69156 63.6227 8.30756 63.3707C11.4956 63.1507 13.7676 65.5267 13.1076 69.1707Z" fill="#333333" stroke="black" stroke-width="1.6"/>
<path fill-rule="evenodd" clip-rule="evenodd" d="M13.1076 22.4164C12.5756 19.4804 4.50756 16.2164 2.90756 17.4164C1.30756 18.6164 4.69156 27.9644 8.30756 28.2164C11.4956 28.4364 13.7676 26.0604 13.1076 22.4164Z" fill="#333333" stroke="black" stroke-width="1.6"/>
</g>
</g>
<defs>
<clipPath id="clip0_394_4669">
<rect width="90" height="90" fill="white" transform="matrix(0 -1 1 0 0 90)"/>
</clipPath>
</defs>
</svg>
