<svg width="90" height="90" viewBox="0 0 90 90" fill="none" xmlns="http://www.w3.org/2000/svg">
<circle cx="45" cy="45" r="45" transform="rotate(-90 45 45)" fill="#2E1065"/>
<path fill-rule="evenodd" clip-rule="evenodd" d="M6.44413 35.2132C7.16111 35.7306 7.84751 36.3684 8.51288 37.1409C9.32546 38.0987 9.68491 38.8423 9.57975 39.3597C9.47459 39.9325 9.19927 40.2526 8.74422 40.3175C8.13048 40.2526 7.64484 40.2237 7.2873 40.2237C7.89913 40.4764 8.27961 41.0226 8.43639 41.8601C8.17637 41.9251 7.38481 41.8601 6.06173 41.6628C6.7271 43.138 7.18214 44.3605 7.43643 45.3183C7.89913 47.181 7.54159 48.2134 6.36765 48.4011C7.69838 49.4263 8.43639 50.1314 8.58744 50.5165C8.69068 50.8462 8.66201 51.4189 8.51288 52.2564C8.35609 53.1492 8.27961 53.7316 8.27961 53.9867C8.69069 54.2394 9.40003 54.3718 10.4248 54.3718C10.2222 55.0769 10.0883 56.0443 10.0424 57.2572C9.99082 58.7324 10.117 59.7023 10.4248 60.1427C10.6256 60.5277 11.0806 60.689 11.7976 60.6312C12.1571 60.6312 12.6637 60.5951 13.3291 60.5277C12.8205 62.0053 12.8205 62.9728 13.3291 63.4252C13.7842 63.8102 14.6063 63.7068 15.7783 63.1316V66.9773C15.981 68.1998 16.6674 68.3321 17.8394 67.3623C17.9446 69.675 18.6023 71.1887 19.8279 71.8938L19.065 74.1969L17.9962 73.0514L18.0727 73.5303L13.3291 67.4658C10.0138 62.7105 8.04826 58.6121 7.43643 55.1419C6.42118 49.5587 5.32372 45.8646 4.14977 44.0693L5.75582 44.2667L5.60669 43.203C5.34475 42.4329 4.8897 41.7278 4.22434 41.0876C3.26071 40.1202 2.3659 39.5186 1.55141 39.2562C3.38881 38.2311 4.92029 37.7136 6.1363 37.7136H7.89913C7.54159 37.3382 6.75004 37.0735 5.52447 36.9532L3.00833 36.6596C4.27787 36.0218 5.42696 35.5333 6.44413 35.2132Z" fill="#8B5CF6"/>
<path fill-rule="evenodd" clip-rule="evenodd" d="M35.8103 58.706L36.7281 58.9972C38.3647 58.6121 39.4851 57.6423 40.0969 56.1021C40.7623 54.6918 40.7317 53.2816 40.0224 51.8714L60.8226 53.1204C58.8361 54.0806 57.274 54.6245 56.1555 54.7568L54.1671 60.2462C51.6739 61.0836 48.7677 62.5492 45.4523 64.6742C43.3607 64.0268 41.6724 63.998 40.4028 64.5707L40.4774 66.5922C39.3054 66.9773 38.185 67.7859 37.1162 68.9988L37.1927 69.675L37.5731 81.7077C39.1046 82.4802 40.7623 82.5163 42.5462 81.8016C44.4294 81.6813 45.959 81.2938 47.133 80.6561C49.7313 80.6561 51.368 80.5526 52.0238 80.3649L48.8136 82.6776H52.106C51.2857 83.2503 50.0372 83.7004 48.3566 84.0204C46.5192 84.3405 45.2726 84.6967 44.6073 85.0841C44.6073 85.4692 44.787 85.9481 45.1464 86.5208L45.7583 86.9059C44.3759 86.2681 42.9802 85.178 41.5462 83.6354L40.3283 83.3442L40.4028 84.9806L39.336 82.9591C37.8485 82.4514 36.4757 81.869 35.2042 81.2288C34.2865 80.7114 32.2177 80.1676 29.0056 79.5924C25.8987 79.075 23.9122 78.5311 23.0384 77.9583C21.3578 76.8008 19.6772 75.1643 17.9965 73.0514L19.0653 74.1969L19.8282 71.8938C18.6026 71.1887 17.9449 69.675 17.8398 67.3623C16.6677 68.3322 15.9813 68.1998 15.7787 66.9773V63.1316C14.6066 63.7068 13.7845 63.8103 13.3294 63.4252C12.8209 62.9728 12.8209 62.0053 13.3294 60.5277C12.6641 60.5951 12.1574 60.6312 11.7979 60.6312C11.081 60.689 10.6259 60.5277 10.4252 60.1427C10.1173 59.7023 9.99114 58.7324 10.0428 57.2572C10.0887 56.0443 10.2225 55.0769 10.4252 54.3718C9.40035 54.3718 8.69101 54.2394 8.27994 53.9867C8.27994 53.7316 8.35642 53.1493 8.5132 52.2564C8.66233 51.4189 8.691 50.8462 8.58775 50.5165C8.43671 50.1314 7.6987 49.4263 6.36797 48.4011C7.54192 48.2134 7.89945 47.181 7.43676 45.3183C7.18246 44.3605 6.72742 43.138 6.06205 41.6628C7.39278 41.8601 8.17669 41.9251 8.43672 41.8601C8.27994 41.0227 7.89944 40.4764 7.28762 40.2237C7.64516 40.2237 8.1308 40.2526 8.74454 40.3175C9.19958 40.2526 9.47491 39.9325 9.58007 39.3597C9.68523 38.8423 9.32578 38.0987 8.5132 37.1409C7.84784 36.3684 7.16144 35.7307 6.44445 35.2133C7.16144 35.0255 7.79621 34.8932 8.35641 34.8282C9.0734 34.7055 9.58006 33.9354 9.88598 32.5251C10.3487 30.2125 10.9854 28.2198 11.7979 26.5545C13.5837 23.0193 15.3905 20.4924 17.2279 18.9498C16.0559 18.6875 15.2108 18.5648 14.7041 18.5648H14.0158L15.5473 17.5973C16.7213 16.9572 17.6084 16.6371 18.2221 16.6371H19.5204C18.1992 18.8175 17.1534 20.8125 16.3924 22.6078C15.5703 23.4332 14.8839 24.3357 14.3236 25.3055C11.7234 29.9862 10.1919 34.0004 9.73685 37.3382C10.4997 37.3382 10.9318 37.2997 11.037 37.2348C10.2225 38.5872 9.52845 40.77 8.96825 43.7854C9.27416 43.6554 9.79038 43.6554 10.4997 43.7854C9.22253 46.0884 8.76558 48.3362 9.12503 50.5165C9.52845 50.3962 10.1919 50.3962 11.1115 50.5165C10.4997 52.2564 10.2454 53.4116 10.3487 53.9867C10.7521 53.9193 11.4404 53.8929 12.4117 53.8929C11.492 55.4908 10.9318 56.6171 10.7311 57.2572C11.7463 57.1249 13.2989 56.9107 15.3905 56.5906C15.3905 57.2283 15.1898 58.1597 14.7787 59.3726C14.3753 60.5951 14.2185 61.5625 14.3236 62.2677C14.7328 61.938 15.293 61.4302 16.0043 60.7251C16.7213 60.1427 17.356 59.8226 17.9162 59.7576C17.5128 61.0451 17.205 62.0053 16.9966 62.6527C16.5932 63.8656 16.3389 64.9004 16.2356 65.7283C17.4593 64.0629 18.5051 63.0666 19.3712 62.7466C19.5739 63.3867 19.6255 64.5418 19.5204 66.2168C19.3196 68.5848 19.2145 69.8362 19.2145 69.9662L32.6804 67.7474C34.1068 67.1746 35.1526 64.1568 35.8103 58.706ZM20.3655 15.5758L19.6026 16.6371L17.9965 14.5218L19.8282 14.3244L20.3655 15.5758ZM34.8983 11.1478C34.7415 11.2802 34.6153 11.374 34.5102 11.439C34.2559 11.6267 33.8983 11.8914 33.4433 12.2091C33.6957 12.0117 33.8983 11.8529 34.0551 11.7302C34.3094 11.5328 34.5924 11.3451 34.8983 11.1478ZM51.2246 8.45968H51.5687L51.9492 8.55353C51.6892 8.49577 51.4502 8.4693 51.2246 8.45968ZM56.7674 9.41748C57.3792 9.60519 57.9394 9.86991 58.4556 10.1876C57.6851 9.73756 56.819 9.41748 55.8477 9.22014L53.712 8.74124L54.4749 8.83509L56.7674 9.41748ZM79.0991 63.0378L81.4738 58.7998C81.2195 59.3172 80.9346 59.8611 80.6287 60.4339C80.0168 61.5914 79.3591 62.7105 78.6421 63.8103C78.7913 63.5455 78.9481 63.2928 79.0991 63.0378ZM53.4061 84.0204C53.5036 83.8881 53.6604 83.7677 53.8612 83.6354C53.712 83.7677 53.6069 83.8616 53.5553 83.9266L53.4807 84.0204H53.4061ZM37.424 43.1091L37.8791 43.4942L37.8045 43.6819L37.424 43.1091ZM38.7968 9.60519C39.7604 8.90007 40.8885 8.3923 42.158 8.07463C43.6895 7.68717 44.764 7.84841 45.3701 8.55353C44.5556 8.74123 43.8157 9.12628 43.1599 9.70866C46.416 9.70866 48.7161 9.80253 50.0372 9.99024C52.54 10.3777 54.6527 11.2416 56.3869 12.5941C54.1977 12.4642 52.54 12.4353 51.4119 12.5003C53.301 13.0754 55.2129 14.3244 57.1478 16.2521C58.9852 17.9824 60.4938 19.91 61.6658 22.023C59.7768 21.3179 58.6793 20.9328 58.3734 20.8678C57.1995 20.4924 56.058 20.3889 54.93 20.5863C56.2071 21.6764 57.3562 23.2455 58.3734 25.3055C57.7597 25.3609 56.9241 25.3055 55.8477 25.1082C54.6317 24.9205 53.7866 24.817 53.3239 24.817C54.0409 25.202 54.9816 26.0371 56.1555 27.327C54.3239 27.1946 52.6662 27.5147 51.1882 28.2848C51.389 25.0143 51.0601 22.0615 50.194 19.4287C49.1195 16.0932 47.4083 14.3629 45.0719 14.2306C45.5785 16.0259 45.8845 17.3711 45.982 18.2736L43.3836 15.0007C42.42 13.9779 41.3225 13.4316 40.0969 13.3666C39.6342 13.2992 38.9478 13.3281 38.0282 13.4605L37.3418 11.0539C38.2079 10.1515 38.6936 9.67257 38.7968 9.60519Z" fill="#6D28D9"/>
<path fill-rule="evenodd" clip-rule="evenodd" d="M51.2244 8.45943C51.45 8.46906 51.689 8.49553 51.949 8.55328L53.7118 8.741L55.8475 9.21989C56.8188 9.41724 57.6849 9.7373 58.4554 10.1873C60.6962 11.3449 62.7038 12.7262 64.4896 14.3242C66.8337 16.5045 68.1644 18.6199 68.4703 20.6799C64.6464 18.9496 62.2258 17.9533 61.2029 17.7006C64.3615 20.3309 66.0211 21.6762 66.1778 21.7412C67.9617 23.6038 68.9789 25.5868 69.2313 27.7118C67.2983 25.8395 65.7152 24.8817 64.4896 24.8167C65.8719 25.8395 66.7075 27.1655 67.0134 28.7635C66.4532 28.5108 65.1014 28.3784 62.9657 28.3784C64.7955 29.6009 66.0211 30.6261 66.6329 31.4612C65.2066 30.8788 63.4743 30.6261 61.4343 30.6911C59.4936 30.6911 57.7595 30.9823 56.2356 31.5551C54.0923 32.845 52.5398 33.7739 51.5685 34.3491C50.343 35.1192 49.0658 36.3417 47.7446 38.0046C45.9588 40.3173 44.8403 41.6987 44.3757 42.1511L67.4015 52.6412L68.0898 53.5052L73.8257 57.5482C74.0265 57.6156 74.2291 57.6805 74.4375 57.7359C74.1316 57.6805 73.8467 57.6156 73.5944 57.5482L70.4568 57.4543C69.8966 57.4543 69.3364 57.4832 68.7762 57.5482C66.0727 57.8033 64.1607 58.0006 63.0403 58.1209C61.7631 58.1883 59.9028 58.5445 57.4536 59.1846C56.0272 59.5697 54.9298 59.9186 54.1669 60.2459L56.1553 54.7566C57.2738 54.6242 58.8359 54.0803 60.8224 53.1201L40.0222 51.8711C39.5595 50.9013 38.722 50.1312 37.4984 49.5584L36.8846 49.3707C36.3244 49.2384 35.5558 49.1734 34.5922 49.1734C33.4718 49.1734 32.7032 49.1445 32.2921 49.0795C31.5311 49.0122 30.5599 48.7883 29.3878 48.4009C27.7588 47.8281 26.8181 47.4984 26.5562 47.4431C27.2216 48.5982 27.5791 49.5296 27.6327 50.2347C26.6078 50.4224 25.4358 49.9724 24.1146 48.8822C22.3289 47.3396 21.283 46.5118 20.9771 46.3818C21.3365 47.0845 21.9484 47.9894 22.8145 49.0795C23.7322 50.2347 24.3689 51.1275 24.7265 51.7773C22.7323 51.8326 20.3117 51.7099 17.4591 51.3922C20.7763 53.3752 23.8087 54.8216 26.5562 55.7144C25.2867 56.2318 24.4205 56.807 23.9579 57.4543C26.6078 57.4543 28.5944 57.3893 29.9251 57.257C29.2597 57.7744 28.4242 58.7996 27.3994 60.3398C27.8105 60.2098 28.6766 59.6347 29.9997 58.6119C31.0226 57.8971 31.9116 57.6156 32.6802 57.7359L35.8101 58.7057C35.1524 64.1566 34.1066 67.1744 32.6802 67.7471L19.2143 69.966C19.2143 69.836 19.3194 68.5846 19.5202 66.2166C19.6253 64.5416 19.5737 63.3865 19.3711 62.7463C18.5049 63.0664 17.4591 64.0627 16.2354 65.728C16.3387 64.9002 16.593 63.8654 16.9964 62.6525C17.2048 62.0051 17.5126 61.0449 17.916 59.7574C17.3558 59.8224 16.7211 60.1424 16.0041 60.7248C15.2928 61.4299 14.7326 61.9377 14.3235 62.2674C14.226 61.5623 14.3751 60.5949 14.7785 59.3723C15.1896 58.1594 15.3903 57.2281 15.3903 56.5904C13.2987 56.9104 11.7461 57.1246 10.7309 57.257C10.9316 56.6168 11.4918 55.4906 12.4115 53.8926C11.4402 53.8926 10.7519 53.9191 10.3485 53.9865C10.2452 53.4113 10.4995 52.2562 11.1114 50.5162C10.1917 50.3959 9.52825 50.3959 9.12483 50.5162C8.76538 48.3359 9.22234 46.0882 10.4995 43.7851C9.7902 43.6552 9.27396 43.6552 8.96805 43.7851C9.52825 40.7697 10.2223 38.587 11.0368 37.2345C10.9316 37.2995 10.4995 37.338 9.73666 37.338C10.1917 34.0001 11.7232 29.986 14.3235 25.3053C14.8837 24.3354 15.5701 23.433 16.3922 22.6075C14.4497 26.7805 13.2031 30.8235 12.6429 34.7341L14.398 32.5249C15.1666 31.6224 15.876 31.0762 16.5413 30.8788C15.8243 31.9136 15.0844 33.7089 14.3235 36.2743C14.7785 36.077 15.3464 35.5692 16.0041 34.7341C16.6675 33.9616 17.2583 33.4827 17.765 33.2854L26.4071 26.6481L26.6384 26.2631C26.1222 28.4434 26.0782 30.6526 26.4816 32.9003C26.8927 35.3454 27.7359 36.7267 29.0054 37.0468L37.4238 43.1089L37.8043 43.6817L37.8789 43.4939L38.1102 43.5878C38.6188 43.2701 39.7392 42.7239 41.4714 41.9538C42.8003 41.3786 43.8461 40.6663 44.6071 39.8384C45.9818 38.3632 47.0792 36.3682 47.8937 33.8678C48.4616 32.1399 48.865 30.6911 49.1193 29.536C50.1422 24.3354 49.9414 20.0686 48.5075 16.7307C48.5591 19.2311 48.4845 21.0938 48.2819 22.3163C47.8708 21.8639 47.2819 21.1588 46.519 20.201C45.802 19.3635 45.1157 18.8172 44.4579 18.5645L43.1597 18.1795C41.9341 17.342 40.5518 17.2481 39.028 17.8883L36.8101 17.9821C34.2557 18.0471 31.9116 19.1373 29.776 21.2526L27.6327 23.6592L27.3994 24.1477C27.6537 22.9252 27.885 21.0264 28.0877 18.461L28.4682 15.4817L29.9251 14.418C30.5885 14.033 31.1717 13.6865 31.6879 13.3664L33.4431 12.2088C33.8982 11.8912 34.2557 11.6264 34.51 11.4387C34.6151 11.3738 34.7413 11.2799 34.8981 11.1475L34.9727 11.0537C35.7355 10.4135 36.3474 9.7373 36.8101 9.03219C37.6762 7.62196 38.1542 6.65452 38.2593 6.14674L38.3339 9.03219L39.7908 7.19839C41.0164 5.85555 42.2859 4.83035 43.6148 4.12524L43.8461 4.02176L43.458 5.85555L44.2266 5.94941L43.9952 6.24059L45.0717 6.05289H45.2954C46.5726 6.10824 47.67 6.39942 48.5878 6.91683C47.8708 7.62195 47.2819 8.07439 46.8269 8.26209L51.2244 8.45943ZM19.828 14.3242H19.9083L23.195 12.6901C23.6519 12.4351 24.0611 12.1727 24.4206 11.9176L23.0382 13.169C21.5144 14.4565 20.6196 15.2555 20.3653 15.5756L19.828 14.3242ZM81.4736 58.7996L79.0989 63.0375V62.8402C79.1505 61.4973 79.0989 60.631 78.9479 60.2459C78.7471 59.6635 78.1353 59.1172 77.1105 58.6119L75.8122 58.1209C77.8504 58.4506 79.8159 58.5084 81.6973 58.3183L81.4736 58.7996ZM53.861 83.6351C53.6602 83.7675 53.5034 83.8878 53.4059 84.0202C53.4059 84.0876 53.3753 84.1141 53.3237 84.1141L51.6431 84.6964C50.6795 85.0839 49.4252 85.2042 47.8937 85.0839L45.9818 84.7903L48.9702 88.4482L45.7581 86.9056L45.1462 86.5206C44.7868 85.9478 44.6071 85.4689 44.6071 85.0839C45.2724 84.6964 46.519 84.3403 48.3564 84.0202C50.037 83.7001 51.2856 83.2501 52.1058 82.6773H48.8134L52.0236 80.3647C51.3601 80.5524 49.7311 80.6558 47.1328 80.6558C45.9588 81.2936 44.4293 81.681 42.546 81.8014C43.5631 81.2936 44.3012 80.7762 44.7639 80.2708L44.9149 80.1673L47.4387 78.2493C48.0505 77.6669 48.6107 77.3468 49.1193 77.2795C50.2397 77.0917 52.7406 77.3733 56.618 78.1458C55.3925 78.8509 54.5493 79.4333 54.0923 79.8833C54.1459 79.8833 55.467 79.7799 58.0673 79.5921C57.6103 80.3647 56.8723 81.1636 55.8475 81.9987C55.6984 82.1214 55.5416 82.2538 55.3925 82.3837C55.2873 82.4511 55.2127 82.48 55.1611 82.48L53.861 83.6351ZM38.7966 9.60494C38.6934 9.67233 38.2077 10.1512 37.3416 11.0537L38.028 13.4602C38.9477 13.3279 39.634 13.299 40.0967 13.3664C41.3223 13.4314 42.4198 13.9776 43.3834 15.0004L45.9818 18.2733C45.8843 17.3709 45.5783 16.0256 45.0717 14.2303C47.4081 14.3627 49.1193 16.093 50.1938 19.4285C51.0599 22.0612 51.3888 25.0141 51.188 28.2846C52.666 27.5145 54.3237 27.1944 56.1553 27.3268C54.9814 26.0368 54.0407 25.2018 53.3237 24.8167C53.7864 24.8167 54.6315 24.9202 55.8475 25.1079C56.9239 25.3053 57.7595 25.3606 58.3732 25.3053C57.356 23.2453 56.207 21.6762 54.9298 20.586C56.0578 20.3887 57.1993 20.4922 58.3732 20.8676C58.6791 20.9326 59.7766 21.3176 61.6656 22.0227C60.4936 19.9098 58.985 17.9821 57.1476 16.2518C55.2127 14.3242 53.3008 13.0752 51.4117 12.5C52.5398 12.435 54.1975 12.4639 56.3867 12.5939C54.6525 11.2414 52.5398 10.3774 50.037 9.98999C48.7159 9.80228 46.4158 9.70843 43.1597 9.70843C43.8155 9.12604 44.5554 8.741 45.3699 8.55328C44.7638 7.84817 43.6893 7.68694 42.1578 8.07439C40.8883 8.39205 39.7602 8.89983 38.7966 9.60494ZM42.8519 66.2166C42.2401 66.1492 41.4485 66.2719 40.4772 66.592L40.4027 64.5705C41.6722 63.9977 43.3605 64.0266 45.4522 64.674L42.8519 66.2166Z" fill="#4C1D95"/>
<path fill-rule="evenodd" clip-rule="evenodd" d="M37.879 43.4939L37.4239 43.1088L29.0056 37.0467C27.736 36.7267 26.8928 35.3453 26.4818 32.9003C26.0783 30.6525 26.1223 28.4433 26.6385 26.263L26.4072 26.648L17.7651 33.2853C17.2584 33.4826 16.6676 33.9615 16.0042 34.734C15.3465 35.5691 14.7786 36.0769 14.3236 36.2742C15.0845 33.7089 15.8245 31.9136 16.5415 30.8788C15.8761 31.0761 15.1668 31.6224 14.3981 32.5248L12.643 34.734C13.2032 30.8234 14.4498 26.7804 16.3923 22.6075C17.1533 20.8122 18.1991 18.8171 19.5203 16.6368H19.6025L20.3654 15.5755C20.6197 15.2555 21.5145 14.4565 23.0383 13.169L24.4207 11.9176L24.4952 11.8237C24.9503 11.4387 25.2868 11.1186 25.4875 10.8659C25.2868 12.3965 25.413 13.4313 25.8699 13.9391C26.6385 14.7092 27.2963 15.294 27.8641 15.679L28.3192 15.5755L28.4683 15.4817L28.0878 18.461C27.8851 21.0264 27.6538 22.9251 27.3995 24.1476L27.6328 23.6591L29.7761 21.2526C31.9117 19.1372 34.2558 18.0471 36.8102 17.9821L39.0281 17.8882C38.0052 18.3382 37.1391 19.0434 36.4221 20.0036C35.6611 20.971 35.1525 22.0227 34.8982 23.1802L41.1656 40.3172C43.9724 38.7097 45.9819 36.0769 47.2075 32.4214C48.282 29.2808 48.716 25.6806 48.5076 21.6376C48.5592 23.0575 47.9244 25.3317 46.5956 28.4722C46.5956 23.6038 45.632 20.2948 43.6894 18.5645L43.1598 18.1794L44.4581 18.5645C45.1158 18.8171 45.8022 19.3634 46.5191 20.2009C47.282 21.1587 47.8709 21.8638 48.282 22.3163C48.4846 21.0937 48.5592 19.2311 48.5076 16.7307C49.9339 20.0685 50.1423 24.3354 49.1194 29.5359C48.8651 30.691 48.4617 32.1398 47.8939 33.8677C47.0794 36.3681 45.9819 38.3631 44.6072 39.8383C43.8462 40.6734 42.8004 41.3785 41.4716 41.9537C39.7393 42.7238 38.6189 43.2701 38.1103 43.5877L37.879 43.4939ZM43.8462 4.0217L46.9015 2.48872L44.2267 5.94935L43.4581 5.85549L43.8462 4.0217ZM51.2245 8.45937L46.827 8.26203C47.282 8.07432 47.8709 7.62189 48.5879 6.91677C47.6702 6.39936 46.5727 6.10818 45.2955 6.05283H45.0718C45.7811 5.92046 46.4446 5.85549 47.0583 5.85549L49.7312 6.24053L52.1805 7.10448L48.8957 8.16817L51.5686 8.45937H51.2245ZM79.099 63.0374C78.948 63.2925 78.7912 63.5452 78.6421 63.8099L77.2674 65.8314L75.7378 67.7471L76.4242 67.4655C76.0666 68.303 75.4319 69.3282 74.5122 70.5411C72.5697 73.0511 70.0975 75.3541 67.0957 77.4767C64.7516 79.1421 62.1514 80.4296 59.2911 81.3224C57.4537 82.2898 55.6698 83.1177 53.9357 83.8228L53.5552 83.9263C53.6068 83.8613 53.712 83.7674 53.8611 83.6351L55.1612 82.4799C55.2129 82.4799 55.2874 82.4511 55.3926 82.3837C55.5417 82.2537 55.6985 82.131 55.8476 81.9986C56.8724 81.1636 57.6105 80.3646 58.0674 79.5921C55.4671 79.7798 54.146 79.8833 54.0924 79.8833C54.5494 79.4332 55.3926 78.8509 56.6181 78.1457C52.7407 77.3732 50.2398 77.0917 49.1194 77.2794C48.6108 77.3468 48.0506 77.6668 47.4388 78.2492L44.915 80.1672L44.764 80.2707C45.3701 79.6859 45.8557 79.0747 46.2132 78.4369C47.7447 75.6718 48.1042 72.9476 47.282 70.2571C46.4675 67.7471 44.9896 66.4042 42.852 66.2165L45.4523 64.6739C48.7676 62.5489 51.6738 61.0737 54.167 60.2458C54.9299 59.9186 56.0274 59.5696 57.4537 59.1846C59.9029 58.5444 61.7632 58.1882 63.0404 58.1209C64.1608 58.0005 66.0728 57.8032 68.7763 57.5481C69.3365 57.4831 69.8967 57.4543 70.4569 57.4543L73.5945 57.5481C73.8469 57.6155 74.1317 57.6805 74.4377 57.7358C74.2292 57.6805 74.0266 57.6155 73.8258 57.5481L68.0899 53.5051L67.4016 52.6412L44.3758 42.151C44.8404 41.6986 45.9589 40.3172 47.7447 38.0045C49.0659 36.3416 50.3431 35.1191 51.5686 34.349C52.5399 33.7738 54.0924 32.8449 56.2358 31.555C57.7596 30.9822 59.4937 30.691 61.4344 30.691C63.4745 30.6261 65.2067 30.8788 66.633 31.4611C66.0212 30.6261 64.7956 29.6009 62.9659 28.3784C65.1015 28.3784 66.4533 28.5107 67.0135 28.7634C66.7076 27.1655 65.8721 25.8394 64.4897 24.8167C65.7153 24.8816 67.2984 25.8394 69.2314 27.7117C68.979 25.5868 67.9618 23.6038 66.178 21.7411C66.0212 21.6761 64.3616 20.3309 61.203 17.7005C62.2259 17.9532 64.6465 18.9495 68.4704 20.6798C68.1645 18.6198 66.8338 16.5044 64.4897 14.3241C62.7039 12.7262 60.6964 11.3448 58.4555 10.1873C57.9393 9.8696 57.3791 9.60488 56.7673 9.41718C60.1878 10.3774 63.1896 11.7587 65.7956 13.554C68.9561 15.7344 71.5544 18.0856 73.5945 20.586L75.6632 23.7626L73.7513 22.8986L78.4107 29.7332C79.382 31.0761 80.5253 32.8449 81.8542 35.0252L83.5348 37.8168L82.8465 37.6195C83.4602 39.7998 84.378 41.5686 85.6035 42.9115L88.1273 45.318L87.896 45.6092L88.1273 45.9004C87.7162 46.2205 86.9037 47.058 85.6781 48.4008C85.0663 49.1733 84.5577 50.0084 84.1466 50.9012L83.5348 53.5051L83.8407 53.4113L83.1543 54.6627C82.7949 55.6205 82.4144 56.5903 82.0033 57.5481L81.6974 58.3182C79.816 58.5083 77.8505 58.4506 75.8124 58.1209L77.1106 58.6118C78.1354 59.1172 78.7396 59.6635 78.948 60.2458C79.099 60.6309 79.1506 61.4973 79.099 62.8401V63.0374ZM40.0223 51.8711C40.7316 53.2813 40.7622 54.6915 40.0969 56.1018C39.485 57.642 38.3646 58.6118 36.728 58.9969L35.8102 58.7057L32.6804 57.7358C31.9117 57.6155 31.0227 57.8971 29.9998 58.6118C28.6767 59.6346 27.8106 60.2097 27.3995 60.3397C28.4243 58.7995 29.2598 57.7743 29.9252 57.2569C28.5945 57.3893 26.608 57.4543 23.958 57.4543C24.4207 56.8069 25.2868 56.2317 26.5563 55.7143C23.8088 54.8215 20.7765 53.3752 17.4592 51.3922C20.3119 51.7098 22.7324 51.8326 24.7266 51.7772C24.369 51.1274 23.7324 50.2346 22.8146 49.0795C21.9485 47.9893 21.3367 47.0844 20.9772 46.3817C21.2831 46.5117 22.329 47.3395 24.1148 48.8821C25.4359 49.9723 26.608 50.4223 27.6328 50.2346C27.5792 49.5295 27.2217 48.5982 26.5563 47.443C26.8183 47.4984 27.759 47.8281 29.3879 48.4008C30.56 48.7883 31.5313 49.0121 32.2922 49.0795C32.7033 49.1445 33.4719 49.1733 34.5923 49.1733C35.5559 49.1733 36.3246 49.2383 36.8848 49.3707L37.4985 49.5584C38.7222 50.1311 39.5596 50.9012 40.0223 51.8711Z" fill="#2E1065"/>
<path fill-rule="evenodd" clip-rule="evenodd" d="M39.0281 17.8884C40.552 17.2483 41.9343 17.3421 43.1599 18.1796L43.6895 18.5647C45.632 20.295 46.5957 23.604 46.5957 28.4724C47.9245 25.3319 48.5593 23.0577 48.5076 21.6378C48.716 25.6808 48.282 29.281 47.2075 32.4216C45.9819 36.0771 43.9725 38.7099 41.1657 40.3174L34.8983 23.1804C35.1526 22.0229 35.6612 20.9712 36.4221 20.0038C37.1391 19.0436 38.0052 18.3385 39.0281 17.8884ZM40.4774 66.5921C41.4487 66.2721 42.2402 66.1493 42.852 66.2167C44.9896 66.4044 46.4676 67.7473 47.2821 70.2573C48.1042 72.9478 47.7448 75.672 46.2133 78.4371C45.8557 79.0749 45.3701 79.6861 44.764 80.2709C44.3013 80.7763 43.5633 81.2937 42.5461 81.8015C40.7623 82.5162 39.1046 82.4801 37.5731 81.7076L37.1926 69.6749L37.1162 68.9987C38.1849 67.7858 39.3054 66.9772 40.4774 66.5921Z" fill="#090509"/>
<path fill-rule="evenodd" clip-rule="evenodd" d="M47.2817 70.2573C48.1039 72.9478 47.7444 75.672 46.213 78.4371C45.8554 79.0749 45.3698 79.6861 44.7637 80.2709C44.301 80.7763 43.563 81.2937 42.5458 81.8015C40.762 82.5162 39.1043 82.4801 37.5728 81.7076C33.9056 80.1482 33.7775 76.1341 37.1923 69.6749L37.1158 68.9987C38.1846 67.7858 39.305 66.9772 40.4771 66.5921C41.4483 66.2721 42.2399 66.1493 42.8517 66.2071C44.9893 66.4044 46.4672 67.7473 47.2817 70.2573Z" fill="#090509"/>
<path fill-rule="evenodd" clip-rule="evenodd" d="M26.9445 71.9871C27.6538 70.3796 28.8278 68.772 30.4625 67.174C32.2483 65.5015 33.6746 64.7025 34.7415 64.7675C36.0722 64.8349 37.3188 65.2199 38.4908 65.925C39.8655 66.8179 40.6877 67.973 40.9401 69.3833C41.3435 71.631 41.3225 73.7174 40.8598 75.6451C40.246 78.3982 38.8713 80.0443 36.728 80.552C33.7262 81.2572 31.0743 80.9371 28.7742 79.5918C26.1224 77.9843 25.5182 75.4574 26.9445 71.9871Z" fill="url(#paint0_radial_1486_13808)"/>
<path fill-rule="evenodd" clip-rule="evenodd" d="M34.2043 78.7282C33.8009 78.7835 33.4204 78.6897 33.061 78.437C32.7035 78.1819 32.5237 77.8907 32.5237 77.5706C32.4186 76.8005 32.9042 76.3505 33.9807 76.2182C35.0475 76.2182 35.6383 76.6032 35.7358 77.3733C35.7875 77.703 35.6613 78.0231 35.3554 78.3431C35.0475 78.5958 34.667 78.7282 34.2043 78.7282Z" fill="#090509"/>
<path fill-rule="evenodd" clip-rule="evenodd" d="M25.1817 86.9994L25.3385 87.9692L24.6445 87.1029C24.241 86.5879 23.5757 85.4953 22.6579 83.8228L22.0461 83.1561C21.5375 82.3187 20.9773 80.9758 20.3655 79.1131C19.3426 75.963 19.117 73.4626 19.6772 71.6023C19.9315 70.4472 20.5146 69.1958 21.4324 67.8505L22.6579 66.2068C23.1206 65.6341 23.6292 65.0589 24.1894 64.4765C22.6579 66.7242 21.7402 69.0369 21.4324 71.405C20.9257 75.7753 21.18 79.1781 22.2029 81.6135V78.0519L23.3443 82.0925L23.5011 78.9158C23.9045 82.1863 24.4208 84.5664 25.0326 86.0416L25.1817 86.9994Z" fill="#8B5CF6"/>
<path fill-rule="evenodd" clip-rule="evenodd" d="M25.2563 86.0418L25.0326 85.948L25.1817 86.9996L25.0326 86.0418C24.4207 84.5666 23.9045 82.1865 23.5011 78.916L23.3443 82.0927L22.2029 78.0521V81.6138C21.18 79.1711 20.9257 75.7755 21.4323 71.4052C21.7402 69.0372 22.6579 66.7245 24.1894 64.4768C23.6292 65.0591 23.1206 65.6343 22.6579 66.2071C23.9351 64.5417 25.6673 62.8138 27.8565 61.0186C32.3439 57.2956 34.7951 55.9119 35.2042 56.8721C34.9958 56.617 34.3094 56.7782 33.1355 57.351V57.4545C31.9634 58.2246 30.9176 59.1848 29.9999 60.3399C28.9311 61.5528 28.3938 62.5876 28.3938 63.4251C29.2083 63.0954 29.9253 63.0954 30.5371 63.4251C28.8049 65.088 26.4589 67.7473 23.5011 71.4052C23.9045 71.1501 24.5469 70.7386 25.413 70.1538C26.1759 69.7134 26.8623 69.5161 27.4761 69.581C25.3385 72.1488 24.0326 74.6492 23.5757 77.0919C24.8012 75.9367 25.7954 75.2966 26.5564 75.1642C25.6444 76.9619 25.0326 78.7283 24.7267 80.4586C24.3156 82.7713 24.4953 84.6316 25.2563 86.0418ZM26.7132 86.0418L27.1682 86.9996L26.9445 86.6146C26.8394 86.4269 26.7648 86.2295 26.7132 86.0418Z" fill="#6D28D9"/>
<path fill-rule="evenodd" clip-rule="evenodd" d="M27.1684 86.9996L25.2565 86.0418C24.4955 84.6316 24.3158 82.7713 24.7268 80.4586C25.0328 78.7283 25.6446 76.9619 26.5566 75.1642C25.7956 75.2966 24.8014 75.9367 23.5758 77.0919C24.0328 74.6492 25.3387 72.1488 27.4762 69.581C26.8625 69.5161 26.1761 69.7134 25.4132 70.1538C24.5471 70.7386 23.9047 71.1501 23.5013 71.4052C26.4591 67.7473 28.8051 65.088 30.5373 63.4251C29.9255 63.0954 29.2085 63.0954 28.394 63.4251C28.394 62.5876 28.9313 61.5528 30 60.3399C30.9178 59.1848 31.9636 58.2246 33.1357 57.4545L32.7552 58.7059C32.3441 59.411 32.0382 59.9188 31.8374 60.2461C31.478 60.8862 31.3289 61.4975 31.3805 62.0702H32.7552C33.3154 62.0702 33.7704 62.1641 34.1299 62.3614C33.6213 63.4516 32.2925 65.1169 30.1568 67.3622C31.1721 67.0421 31.7629 66.8833 31.912 66.8833C32.4187 66.8833 32.7552 67.3357 32.9043 68.2382C33.0611 69.0636 32.9349 69.995 32.5238 71.0202C32.3747 71.4052 31.9407 72.2138 31.2237 73.4267C29.4915 75.9367 28.2888 77.8909 27.633 79.3011C26.4075 81.7461 26.048 84.1527 26.5566 86.5207L26.9447 86.6146L27.1684 86.9996Z" fill="#4C1D95"/>
<path fill-rule="evenodd" clip-rule="evenodd" d="M26.7132 86.0417C26.7649 86.2295 26.8394 86.4268 26.9446 86.6145L26.5565 86.5206C26.0479 84.1526 26.4073 81.7461 27.6329 79.301C28.2887 77.8908 29.4913 75.9367 31.2236 73.4266C31.9406 72.2137 32.3746 71.4051 32.5237 71.0201C32.9348 69.9949 33.061 69.0636 32.9042 68.2381C32.7551 67.3357 32.4186 66.8832 31.9119 66.8832C31.7627 66.8832 31.172 67.0421 30.1567 67.3621C32.2924 65.1168 33.6212 63.4515 34.1298 62.3613C33.7703 62.164 33.3153 62.0701 32.7551 62.0701H31.3804C31.3287 61.4974 31.4779 60.8861 31.8373 60.246C32.0381 59.9187 32.344 59.4109 32.7551 58.7058L33.1355 57.4544V57.3509C34.3095 56.7781 34.9959 56.6169 35.2043 56.872V57.0693C36.1679 60.7923 36.6536 62.7103 36.6536 62.8402C36.9078 66.3658 35.7129 70.2211 33.061 74.3941C29.7972 79.2745 27.782 82.3188 27.0192 83.5413C26.8184 83.9264 26.6827 84.3114 26.6387 84.6965C26.5871 84.7542 26.5565 84.8192 26.5565 84.8866V85.3655C26.5565 85.6182 26.6081 85.8444 26.7132 86.0417Z" fill="#2E1065"/>
<path fill-rule="evenodd" clip-rule="evenodd" d="M39.0281 17.8881C38.0052 18.3382 37.139 19.0433 36.422 20.0035C35.6611 20.9709 35.1525 22.0226 34.8982 23.1801L41.1656 40.3172C43.9724 38.7096 45.9819 36.0768 47.2074 32.4213C48.282 29.2807 48.716 25.6902 48.5076 21.6375C48.5592 23.0574 47.9244 25.3316 46.5956 28.4721C46.5956 23.6037 45.632 20.2947 43.6894 18.5644L43.1522 18.1793L44.458 18.5644C45.1157 18.8171 45.8021 19.3633 46.5191 20.2008C47.282 21.1586 47.8709 21.8638 48.282 22.3162C48.4846 21.0937 48.5592 19.231 48.5076 16.7306C49.9339 20.0685 50.1423 24.3353 49.1194 29.5358C48.8651 30.691 48.4617 32.1397 47.8938 33.8676C47.0793 36.368 45.9819 38.363 44.6072 39.8382C43.8462 40.6661 42.8004 41.3784 41.4715 41.9536C39.7393 42.7237 38.6189 43.27 38.1103 43.5876L37.879 43.4938L37.4163 43.1087L29.0055 37.0467C27.7283 36.7266 26.8928 35.3452 26.4817 32.9098C26.0707 30.6621 26.1223 28.4432 26.6385 26.2629L27.0936 25.1078L29.7684 21.2525C31.9117 19.1371 34.2558 18.047 36.8102 17.982L39.0281 17.8881Z" fill="#2E1065"/>
<path fill-rule="evenodd" clip-rule="evenodd" d="M39.0281 17.8884C40.552 17.2482 41.9343 17.3421 43.1522 18.1796L43.6895 18.5646C45.632 20.2949 46.5957 23.6039 46.5957 28.4724C47.9245 25.3318 48.5593 23.0576 48.5076 21.6378C48.716 25.6904 48.282 29.281 47.2075 32.4215C45.9819 36.077 43.9725 38.7098 41.1657 40.3174L34.8983 23.1804C35.1526 22.0228 35.6612 20.9712 36.4221 20.0037C37.1391 19.0435 38.0052 18.3384 39.0281 17.8884Z" fill="#090509"/>
<path fill-rule="evenodd" clip-rule="evenodd" d="M29.3117 32.8065C27.633 28.8309 28.2142 25.813 31.0745 23.7627C33.4644 22.0227 36.2731 21.4789 39.4852 22.1262C41.7777 22.634 43.3092 24.4967 44.0701 27.7118C44.638 29.9571 44.7355 32.4575 44.376 35.213C44.1236 36.953 43.2786 38.3632 41.8522 39.4534C40.6343 40.3462 39.3055 40.8901 37.8792 41.0874C36.7071 41.2198 35.1527 40.3173 33.2121 38.3897C31.3804 36.5294 30.0745 34.6667 29.3117 32.8065Z" fill="url(#paint1_radial_1486_13808)"/>
<path fill-rule="evenodd" clip-rule="evenodd" d="M36.3477 27.3265C35.1757 27.3265 34.5409 26.7803 34.4357 25.6901C34.3841 25.1727 34.5103 24.7491 34.8162 24.4291C35.1241 24.044 35.5332 23.8563 36.0418 23.8563C36.5504 23.7913 36.9901 23.9237 37.3419 24.2413C37.6995 24.4964 37.9021 24.8815 37.9538 25.3989C38.0054 25.8489 37.8486 26.2628 37.4987 26.6479C37.1928 27.0329 36.8104 27.2592 36.3477 27.3265Z" fill="#090509"/>
<path fill-rule="evenodd" clip-rule="evenodd" d="M18.1473 27.9936L18.9083 30.2125C20.7457 34.1881 21.9923 36.727 22.6576 37.8172C24.1356 39.9325 25.212 41.5401 25.8697 42.6303C26.2273 43.138 26.5867 43.9081 26.9443 44.943C27.3993 46.0331 27.7282 46.861 27.9385 47.4434L27.5561 46.9645C27.1985 46.6348 26.8391 46.2497 26.4816 45.8069C26.4299 45.8069 26.384 45.7708 26.3324 45.7034C25.3611 44.6229 24.495 43.5616 23.7322 42.5364L22.5831 40.9938C22.172 40.4764 21.8202 39.9614 21.5143 39.4536C21.2084 38.9362 20.9254 38.4573 20.6711 38.0049L18.8337 34.3493C18.3787 33.2568 18.0938 32.234 17.9963 31.2641V30.8791C17.8395 29.7889 17.8701 28.8022 18.0727 27.8998L18.1473 27.9936Z" fill="#8B5CF6"/>
<path fill-rule="evenodd" clip-rule="evenodd" d="M21.8968 19.2314C22.1492 19.4288 22.4781 19.4288 22.8891 19.2314C23.4493 18.9114 23.9044 18.7525 24.2638 18.7525C25.0325 18.7525 25.7724 19.0076 26.4817 19.5226C27.1987 20.1074 27.7283 20.8775 28.0878 21.8353C28.1929 22.0904 28.648 24.3092 29.4682 28.4726C30.0284 31.3027 30.8429 33.3506 31.9117 34.6405C31.1488 31.0404 30.4624 28.4437 29.8506 26.8361C32.2482 29.3461 34.055 34.0004 35.2806 40.7965C35.4813 41.954 35.4813 43.7493 35.2806 46.192C35.0263 49.0798 34.5636 51.0989 33.8982 52.2565C33.1889 52.0014 32.1947 51.3251 30.9175 50.235C31.0743 49.2098 30.971 47.8284 30.6116 46.0885C30.2005 44.2932 29.7225 43.1381 29.1623 42.6303C30.1259 43.4678 31.1488 43.8432 32.2176 43.7854C31.2999 42.1779 29.6403 39.3213 27.2503 35.2133C25.8699 32.2605 25.1606 29.5363 25.107 27.0335C25.0038 28.5111 24.8757 29.6662 24.7265 30.5037C23.7553 29.0189 23.2696 26.6123 23.2696 23.2841C22.7629 26.6123 22.5316 29.1223 22.5832 30.7853C20.9466 28.4172 20.3348 25.2021 20.7458 21.1591L21.8968 19.2314Z" fill="#4C1D95"/>
<path fill-rule="evenodd" clip-rule="evenodd" d="M33.8984 52.2565C34.2559 52.3215 34.4872 52.3215 34.5924 52.2565C33.929 53.1494 31.7092 51.5514 27.9388 47.4434C27.7285 46.8611 27.3996 46.0332 26.9445 44.943C26.587 43.9082 26.2276 43.1381 25.87 42.6304C25.2123 41.5402 24.1359 39.9326 22.6579 37.8173C21.9926 36.7271 20.746 34.1882 18.9086 30.2126L18.1476 27.9937C18.4 26.3308 19.0137 24.5331 19.985 22.6079C21.6044 19.2219 22.7765 17.5301 23.5011 17.5036C23.1799 17.5204 22.6503 18.1052 21.897 19.2315L20.746 21.1591C20.3349 25.2021 20.9467 28.4173 22.5834 30.7853C22.5317 29.1224 22.7631 26.6124 23.2698 23.2841C23.2698 26.6124 23.7554 29.0189 24.7267 30.5038C24.8758 29.6663 25.0039 28.5111 25.1071 27.0335C25.1607 29.5363 25.87 32.2605 27.2505 35.2134C29.6404 39.3214 31.3 42.1779 32.2177 43.7855C31.149 43.8433 30.1261 43.4582 29.1624 42.6304C29.7226 43.1381 30.2083 44.2933 30.6117 46.0886C30.9711 47.8285 31.0744 49.2099 30.9176 50.235C32.1948 51.3252 33.189 52.0014 33.8984 52.2565Z" fill="#6D28D9"/>
<path fill-rule="evenodd" clip-rule="evenodd" d="M34.5928 52.2562C34.4877 52.3212 34.2563 52.3212 33.8988 52.2562C34.5641 51.0986 35.0268 49.0796 35.2811 46.1917C35.4819 43.7491 35.4819 41.9538 35.2811 40.7962C34.0556 34.0001 32.2488 29.3459 29.8512 26.8358C30.463 28.4434 31.1494 31.0401 31.9123 34.6403C30.8435 33.3504 30.029 31.3024 29.4688 28.4723C28.6485 24.309 28.1935 22.0901 28.0883 21.835C27.7289 20.8772 27.1993 20.1071 26.4823 19.5223C25.7729 19.0073 25.033 18.7523 24.2644 18.7523C23.9049 18.7523 23.4499 18.9111 22.8897 19.2312C22.4786 19.4285 22.1498 19.4285 21.8974 19.2312C22.6507 18.1049 23.1803 17.5201 23.5015 17.5033L26.4823 13.9392L27.4 13.1691L26.7136 15.4818L29.4688 14.7093C29.1628 14.9643 28.9028 15.3494 28.7002 15.8668C28.2891 16.7693 28.3197 17.7271 28.7747 18.7523L34.742 30.9823C37.2887 36.5005 38.1548 41.3786 37.3422 45.6093C37.2887 45.6767 36.3996 47.8282 34.6674 52.0589C34.6674 52.1238 34.6387 52.1912 34.5928 52.2562Z" fill="#2E1065"/>
<path fill-rule="evenodd" clip-rule="evenodd" d="M49.7312 36.6595H50.0372L50.2685 38.0048L52.0237 37.5259C53.8611 37.4585 56.2816 38.2021 59.2911 39.7447C64.2354 42.1777 66.7898 43.4291 66.9389 43.4941C68.522 44.4543 69.9713 46.033 71.3001 48.2134L77.036 58.0273C75.9615 58.7324 74.5638 59.411 72.8316 60.0488C69.3595 61.3363 66.0212 61.9114 62.8091 61.7887C61.1801 61.7237 59.9335 61.9475 59.0597 62.4553C60.1878 62.8403 61.0233 63.1315 61.5835 63.3217H61.3598C60.6428 63.1315 59.9258 62.8789 59.2165 62.5492L52.5629 59.0909C52.4577 59.0236 52.3602 58.9586 52.255 58.8936C52.0543 58.7709 51.8459 58.612 51.6432 58.4147C48.7389 56.4871 47.2075 54.8217 47.0583 53.4115C46.7524 49.8113 46.6473 47.217 46.7524 45.6095C46.804 44.9044 46.848 44.2281 46.9015 43.588L46.9761 43.0152C47.0277 42.6302 47.1023 42.2451 47.2075 41.8601L47.9761 39.3597L48.3565 38.5872C48.716 37.882 49.1481 37.2347 49.6567 36.6595H49.7312Z" fill="url(#paint2_radial_1486_13808)"/>
<path fill-rule="evenodd" clip-rule="evenodd" d="M79.5617 58.0272C79.7108 58.5446 79.837 59.062 79.9421 59.5698C79.6878 59.7575 79.2022 59.9837 78.4852 60.246C78.2309 60.3038 78.0072 60.3688 77.7988 60.4337C76.5293 60.8212 75.6555 61.1124 75.1986 61.3001C72.1891 62.3903 70.4339 63.0015 69.9196 63.1315C66.8127 63.904 64.1378 63.9978 61.8913 63.4251C61.7938 63.4251 61.6886 63.3866 61.5835 63.3216C61.0233 63.1315 60.1877 62.8403 59.0597 62.4552C59.9258 61.9475 61.18 61.7236 62.809 61.7886C66.0211 61.9114 69.3594 61.3362 72.8315 60.0487C74.5638 59.411 75.9614 58.7323 77.036 58.0272L71.3001 48.2133C69.9712 46.033 68.522 44.4543 66.9389 43.4941C66.7897 43.4291 64.2354 42.1777 59.291 39.7446C56.2816 38.2021 53.861 37.4584 52.0236 37.5258L50.2685 38.0047L50.0371 36.6595L49.9625 36.4621L50.5763 35.8894L51.9491 35.0254L59.3656 37.5258C63.6006 39.066 67.1702 41.1164 70.0764 43.6818C71.3536 44.8393 72.9807 46.6996 74.9672 49.2674C75.992 50.5549 77.0073 52.2178 78.0302 54.2778C78.1793 54.5979 78.3361 54.9155 78.4852 55.2356L78.5674 55.4329C78.9709 56.5905 79.3074 57.4544 79.5617 58.0272Z" fill="#3F3F46"/>
<path fill-rule="evenodd" clip-rule="evenodd" d="M47.0586 53.4112C46.6991 49.8784 46.5959 47.0579 46.7527 44.9426C46.8043 44.4902 46.8483 44.0401 46.9018 43.5877C46.8483 44.2278 46.8043 44.9041 46.7527 45.6092C46.6475 47.2168 46.7527 49.811 47.0586 53.4112ZM49.7315 36.6593C49.9858 36.4066 50.2688 36.1443 50.5766 35.8892C51.6435 34.9314 52.6893 34.5463 53.7122 34.734C55.1385 34.864 57.5075 35.5691 60.8228 36.8494C65.3121 38.6447 68.8282 40.7961 71.3749 43.2965C73.8261 45.7416 75.9388 49.0121 77.7246 53.12C77.9789 53.9575 78.2312 54.6626 78.4855 55.2354C78.3364 54.9153 78.1796 54.5977 78.0305 54.2776C77.0076 52.2176 75.9923 50.5547 74.9675 49.2672C72.981 46.6994 71.3539 44.8391 70.0767 43.6816C67.1705 41.1162 63.6009 39.0658 59.3659 37.5256L51.9494 35.0252L50.5766 35.8892L49.9628 36.4619L50.0374 36.6593H49.7315ZM79.9424 59.5696C79.8373 59.0522 79.7111 58.5444 79.562 58.027C79.7627 58.6118 79.9119 58.9583 80.017 59.0907C80.1738 59.2206 80.1432 59.3819 79.9424 59.5696Z" fill="#52525B"/>
<path fill-rule="evenodd" clip-rule="evenodd" d="M77.9558 68.7169C76.4243 69.102 74.4378 69.2897 71.9886 69.2897C58.8801 67.6917 49.5823 65.5379 44.0701 62.8401C39.3877 60.4071 36.8333 59.0522 36.4222 58.7995C35.4509 57.8778 34.6594 56.9754 34.0552 56.1018C33.6001 55.0381 33.4204 54.1356 33.5179 53.4113C33.6747 51.6064 34.7416 49.426 36.7281 46.8607C38.5139 44.548 40.3513 42.7888 42.2403 41.5687C43.2556 40.9285 44.9668 39.5736 47.3644 37.5257C49.2458 35.9831 50.5229 35.148 51.1883 35.0253C51.8537 34.8929 52.0774 35.3718 51.8747 36.462C51.5172 37.9396 51.2858 39.0297 51.1883 39.7349C50.8824 42.4326 52.4349 46.6729 55.8478 52.4438C57.6852 55.594 61.9202 59.2496 68.5451 63.4249L77.9558 68.7169ZM45.6015 53.7987L45.982 53.6952C46.244 53.5725 46.416 53.2139 46.5193 52.6412C46.6761 51.7387 45.6321 50.9012 43.3837 50.1312L41.1658 50.5162L44.376 51.3922C45.6016 51.8976 46.0126 52.6989 45.6015 53.7987ZM38.8714 54.7565C39.5368 55.3293 40.3513 55.8178 41.3226 56.2053C42.5462 56.6457 43.3837 56.4868 43.8464 55.7143C43.9955 55.4617 44.1523 54.7565 44.3014 53.6014C44.4066 52.9613 43.5404 52.415 41.703 51.9649H41.6285L40.7088 51.6737H40.4029L40.097 51.5799H39.7911L39.5597 51.486H38.5655L38.2596 51.5799H38.1105L37.8046 51.6737L37.4986 51.8711C37.3935 51.8711 37.3419 51.9649 37.3419 52.1527L37.2673 52.2561L37.3419 52.6412V52.735L37.4986 53.1201L37.6478 53.3078L37.9537 53.7987L38.1105 53.9864L38.4909 54.3715L38.7223 54.6627H38.7969L38.8714 54.7565ZM45.3702 52.5377C44.9151 51.5125 43.3837 50.9686 40.7834 50.9012C43.1294 51.486 44.376 52.1912 44.5328 53.0262L44.6838 54.2776L45.2956 53.9864C45.6532 53.7313 45.6761 53.2524 45.3702 52.5377ZM48.5077 49.8496C47.6397 47.4719 47.3128 45.5154 47.5135 43.9752C47.7143 42.2449 47.5441 41.3424 46.9839 41.2751C46.3702 41.2197 45.7813 41.8863 45.2211 43.2966C44.8616 44.0113 44.9438 45.0654 45.4524 46.4756C45.9075 47.8858 46.6761 49.1998 47.7449 50.4223L49.8882 52.9227L48.5077 49.8496ZM40.4029 56.5807C40.2461 56.5807 40.0454 56.5229 39.7911 56.393C39.2825 56.2053 38.7969 55.8756 38.3342 55.4328C37.2138 54.4653 36.5503 53.5051 36.3476 52.5377C36.2425 53.5725 36.579 54.4653 37.3419 55.2354C38.0053 55.9406 38.7223 56.393 39.4852 56.5807C39.8427 56.6457 40.1486 56.6457 40.4029 56.5807Z" fill="#52525B"/>
<path fill-rule="evenodd" clip-rule="evenodd" d="M41.7031 51.9651C42.009 52.9229 42.0607 53.4788 41.8523 53.6015C41.5463 54.3042 41.2691 54.7566 41.0167 54.9444C40.5521 55.3294 39.8428 55.2741 38.8715 54.7566L38.7969 54.6628H38.7224L38.491 54.3716L38.1106 53.9866L37.9538 53.7988L37.6479 53.3079L37.4987 53.1202L37.3419 52.7351V52.6413L37.2674 52.2562L37.3419 52.1528C37.3419 51.9651 37.3936 51.8712 37.4987 51.8712L37.8046 51.6739L38.1106 51.58H38.2597L38.5656 51.4862H39.5598L39.7912 51.58H40.0971L40.403 51.6739H40.7089L41.6286 51.9651H41.7031Z" fill="#151015"/>
<path fill-rule="evenodd" clip-rule="evenodd" d="M38.8713 54.7564C39.8426 55.2738 40.552 55.3291 41.0166 54.9441C41.2689 54.7564 41.5462 54.3039 41.8521 53.6012C42.0605 53.4785 42.0089 52.9226 41.703 51.9648C43.5404 52.4148 44.4065 52.9611 44.3013 53.6012C44.1522 54.7564 43.9954 55.4615 43.8463 55.7142C43.3836 56.4867 42.5461 56.6455 41.3225 56.2051C40.3512 55.8177 39.5367 55.3291 38.8713 54.7564ZM45.6015 53.7986C46.0125 52.6988 45.6015 51.8974 44.3759 51.392L41.1657 50.516L43.3836 50.131C45.632 50.9011 46.676 51.7386 46.5192 52.641C46.4159 53.2138 46.2439 53.5723 45.9819 53.6951L45.6015 53.7986Z" fill="#27272A"/>
<path fill-rule="evenodd" clip-rule="evenodd" d="M36.4222 58.7996L36.0417 58.6119C37.9843 60.5949 40.7088 62.4286 44.2268 64.0916L45.6761 64.674C48.588 65.7641 51.9282 66.6955 55.6986 67.4655C61.6143 68.8108 65.9984 69.487 68.851 69.487H74.2064L71.9886 69.2897C74.4378 69.2897 76.4243 69.102 77.9558 68.7169C75.759 69.6098 73.3174 70.221 70.6139 70.5411C69.6426 70.6711 67.5815 71.0561 64.4153 71.6963C61.9202 72.2137 60.0828 72.4399 58.9107 72.3725C57.9911 72.3725 56.7961 72.6276 55.3181 73.145C54.041 73.5854 52.8689 73.7178 51.8001 73.53C47.2592 72.6276 43.2556 70.1272 39.7911 66.0192C37.6994 63.5838 36.0647 61.0738 34.8984 58.5084L34.3611 56.9658C34.2559 56.7781 34.1814 56.5519 34.1298 56.2992C34.0781 56.2318 34.0323 56.1379 33.9806 56.008C34.0036 56.0441 34.0246 56.073 34.0552 56.1018C34.6594 56.9754 35.4509 57.8779 36.4222 58.7996ZM45.3702 52.5377C45.6761 53.2525 45.6532 53.7314 45.2956 53.9865L44.6838 54.2777L44.5328 53.0263C44.376 52.1912 43.1294 51.4861 40.7834 50.9013C43.3837 50.9687 44.9151 51.5125 45.3702 52.5377ZM48.5077 49.8496L49.8882 52.9228L47.7449 50.4224C46.6761 49.1999 45.9075 47.8859 45.4524 46.4756C44.9438 45.0654 44.8616 44.0113 45.2211 43.2966C45.7813 41.8864 46.3702 41.2197 46.9839 41.2751C47.5441 41.3425 47.7143 42.2449 47.5135 43.9752C47.3128 45.5154 47.6397 47.472 48.5077 49.8496ZM40.4029 56.5807C40.1486 56.6457 39.8427 56.6457 39.4852 56.5807C38.7223 56.393 38.0053 55.9406 37.3419 55.2355C36.579 54.4654 36.2425 53.5725 36.3476 52.5377C36.5503 53.5052 37.2138 54.4654 38.3342 55.4328C38.7969 55.8756 39.2825 56.2053 39.7911 56.393C40.0454 56.523 40.2461 56.5807 40.4029 56.5807Z" fill="#71717A"/>
<path fill-rule="evenodd" clip-rule="evenodd" d="M71.9885 69.2898L74.2064 69.4872H68.851C65.9984 69.4872 61.6142 68.8109 55.6986 67.4657C51.9282 66.6956 48.588 65.7643 45.6761 64.6741L44.2268 64.0917C40.7088 62.4288 37.9843 60.595 36.0417 58.612L36.4222 58.7997C36.8333 59.0524 39.3876 60.4073 44.07 62.8403C49.5822 65.538 58.8801 67.6919 71.9885 69.2898Z" fill="#A1A1AA"/>
<defs>
<radialGradient id="paint0_radial_1486_13808" cx="0" cy="0" r="1" gradientUnits="userSpaceOnUse" gradientTransform="translate(32.1559 75.5116) rotate(-47.4088) scale(12.4874 12.4639)">
<stop stop-color="#FAEED0"/>
<stop offset="1" stop-color="#6A310E"/>
</radialGradient>
<radialGradient id="paint1_radial_1486_13808" cx="0" cy="0" r="1" gradientUnits="userSpaceOnUse" gradientTransform="translate(33.5764 28.0729) rotate(48.2279) scale(14.0053 14.1011)">
<stop stop-color="#FAEED0"/>
<stop offset="1" stop-color="#6A310E"/>
</radialGradient>
<radialGradient id="paint2_radial_1486_13808" cx="0" cy="0" r="1" gradientUnits="userSpaceOnUse" gradientTransform="translate(84.0763 49.4619) rotate(-89.5494) scale(35.0674 30.2297)">
<stop stop-color="#4C1D95"/>
<stop offset="1" stop-color="#160706"/>
</radialGradient>
</defs>
</svg>
