<svg width="90" height="90" viewBox="0 0 90 90" fill="none" xmlns="http://www.w3.org/2000/svg">
<g clip-path="url(#clip0_394_5011)">
<path d="M57.1524 16.9497C56.8229 17.4639 57.0805 17.8302 57.4715 18.1432C57.8369 18.4357 58.2227 18.7046 58.2289 19.2403C57.6029 20.5159 57.5116 20.5601 56.3139 19.8417C55.2948 19.23 54.2162 18.9848 53.0689 19.2916C52.174 19.5307 51.55 19.2711 51.1016 18.4942C51.5367 17.3653 52.6194 16.6121 53.854 16.7291C54.52 16.7917 55.1337 16.7393 55.7495 16.5269C56.0625 16.53 56.3786 16.5084 56.6864 16.6018C56.8414 16.7188 56.9974 16.8337 57.1524 16.9497Z" fill="#CE947B"/>
<path d="M77.5257 33.958C75.2649 32.941 73.0041 31.924 70.7422 30.9069C72.2508 30.8105 73.5808 31.3647 74.9385 31.8408C75.8724 32.1682 76.7571 32.7563 77.8274 32.5418C78.0994 32.9205 78.3714 33.2991 78.6433 33.6789C78.5202 34.7677 77.8962 33.8554 77.5257 33.958Z" fill="#CE947B"/>
<path d="M57.1552 70.2217C56.9972 70.703 56.5231 71.0653 56.6206 71.642C54.8297 72.892 52.884 73.7684 50.7093 74.0938C50.0279 73.6903 49.171 74.0558 48.5039 73.5919C48.7738 72.9628 49.3536 73.2029 49.8144 73.1413C51.2194 72.9525 52.5987 72.7073 53.6865 71.681C54.7107 71.6708 55.036 70.8014 55.5409 70.1518C56.0941 69.8039 56.6452 69.5947 57.1552 70.2217Z" fill="#CE947B"/>
<path d="M56.6848 16.6026C56.5525 16.8171 56.419 17.0316 56.2867 17.2461C55.4184 17.1599 54.6323 16.7853 53.8021 16.5534C53.0519 15.9643 52.2904 15.4389 51.2888 15.3054C50.9122 15.2552 50.3344 15.1361 50.438 14.469C50.5376 14.3674 50.6381 14.2658 50.7377 14.1632C52.938 14.4444 54.8612 15.4019 56.6848 16.6026Z" fill="#CE947B"/>
<path d="M47.4985 21.4334C47.8495 23.0118 48.0454 24.6045 47.911 26.2229C47.8822 26.5719 48.0322 26.969 47.4995 27.3867C47.0747 25.5313 47.7006 23.6296 46.8438 21.9599C47.0623 21.7844 47.2799 21.6089 47.4985 21.4334Z" fill="#3B3B3B"/>
<path d="M77.5234 33.9577C77.896 33.8643 78.2685 33.7709 78.6421 33.6775C78.9581 34.0121 78.874 34.4328 78.8884 34.832C78.3434 34.6812 77.8672 34.4215 77.5234 33.9577Z" fill="#CE947B"/>
<path d="M50.4384 14.4722C51.6566 14.858 52.8768 15.2367 54.0908 15.6359C54.4264 15.7468 54.841 15.9181 54.1001 16.0823C53.8302 16.578 53.3735 16.5206 52.9065 16.5298C51.0069 16.5688 50.932 16.6632 51.2122 18.4078C51.7161 18.8512 52.2692 19.0729 52.9691 18.9733C54.2663 18.7886 55.5502 18.8491 56.6339 19.6968C57.4272 20.3177 57.7289 19.4946 58.2287 19.2432C58.1291 19.8713 59.101 20.5404 58.435 21.0084C57.811 21.4466 57.1244 20.7816 56.5785 20.3844C55.5768 19.6558 54.4818 19.4567 53.2852 19.5788C51.791 19.7307 48.3007 17.5222 47.8163 16.1275C47.5382 15.3239 47.9672 14.8396 48.6527 14.6435C49.2171 14.4814 49.8411 14.5214 50.4384 14.4722Z" fill="#3D3D3D"/>
<path d="M48.5132 34.2385C48.43 34.2354 48.3469 34.2344 48.2638 34.2323C47.4284 34.0661 46.7162 34.4468 45.9845 34.7465C45.2343 34.9199 44.8905 34.6049 44.911 33.8547C45.2107 32.7894 45.7854 31.796 45.7464 30.6425C45.9157 29.7271 46.9225 29.5547 47.3669 28.8209C47.6573 28.3416 47.9251 28.9502 47.9364 29.3053C47.9652 30.231 48.0329 31.1607 47.8235 32.0782C47.6819 32.0597 47.5588 32.0054 47.4674 31.8914C47.5557 32.0074 47.6788 32.0597 47.8184 32.0823C48.5501 32.6396 48.4865 33.4534 48.5132 34.2385Z" fill="#CE947B"/>
<path d="M50.478 37.3039C50.28 37.3963 50.0819 37.4897 49.8828 37.582C50.438 35.3941 49.5318 33.0645 50.6207 30.9165C50.5837 33.0491 51.0107 35.1806 50.478 37.3039Z" fill="#99654E"/>
<path d="M51.6957 28.2543C51.0461 29.0004 50.927 29.9989 50.0517 29.9127C49.5406 29.8625 49.7376 29.1523 49.8638 28.7089C50.1625 27.6601 50.848 28.1055 51.6957 28.2543Z" fill="#99654E"/>
<path d="M67.8018 33.9148C68.2749 34.0934 68.787 34.2083 69.0836 34.7009C69.0333 35.3546 67.8552 34.7656 68.0276 35.6502C67.4478 36.1161 67.1245 35.6779 66.7858 35.2992C66.7325 35.172 66.714 35.0375 66.7263 34.901C66.8977 34.4208 67.4899 34.4146 67.732 34.0123L67.8018 33.9148Z" fill="#CE947B"/>
<path d="M66.9737 35.0417C67.3246 35.2439 67.6766 35.446 68.0276 35.6492C68.2205 35.8278 68.4135 36.0074 68.6064 36.186C68.2955 36.4826 68.0512 36.8099 68.0923 37.2728C68.0184 37.3046 67.9445 37.3354 67.8696 37.3672C66.4616 36.3881 66.3446 36.0854 66.9737 35.0417Z" fill="#A15A5A"/>
<path d="M45.178 33.6914C45.0887 33.5067 44.9994 33.3209 44.9102 33.1362C45.1883 32.3049 45.4664 31.4737 45.7455 30.6424C46.1242 31.7641 45.4756 32.6949 45.178 33.6914Z" fill="#99654E"/>
<path d="M54.097 72.1682C54.5947 72.2565 54.5219 72.4351 54.1278 72.55C52.2898 73.0878 50.4866 73.8318 48.5039 73.5896C47.3853 72.8928 47.5598 72.0892 48.3808 71.3226C50.0423 69.7709 51.6607 68.1299 54.2858 68.5969C55.2074 68.7611 55.974 68.2397 56.7201 67.74C57.2445 67.388 57.8716 66.8143 58.4699 67.2823C59.0189 67.7112 58.242 68.2675 58.2431 68.8001C56.6524 69.5369 55.0545 70.2461 53.2288 70.0049C52.7454 69.9413 52.2477 69.7504 51.8228 70.1722C51.5355 70.4872 50.8551 70.5817 51.0346 71.1461C51.1896 71.6336 51.8105 71.5063 52.222 71.6613C52.8316 71.8901 53.6321 71.4088 54.097 72.1682Z" fill="#343434"/>
<path d="M51.5872 69.6618C51.8612 69.397 52.1855 69.2 52.5693 69.2708C54.1261 69.5571 55.5988 69.3252 56.8775 68.4046C57.6175 67.873 57.6944 69.0296 58.2435 68.7987C58.2035 69.5181 57.6924 69.8783 57.1567 70.219C56.6343 70.2447 56.1643 70.4048 55.7682 70.7568C54.6475 71.7512 52.7571 71.7718 51.8161 70.7978C51.5 70.4694 51.3717 70.099 51.5872 69.6618Z" fill="#99654E"/>
<path d="M51.2103 18.4062C50.5237 17.9579 49.3086 17.534 49.4626 16.8506C49.6411 16.0521 50.9157 16.0973 51.7583 15.9444C52.5341 15.8027 53.3285 15.8602 54.0992 16.0809C54.8288 16.4698 55.5575 16.8588 56.2861 17.2477C56.1948 17.3432 56.0645 17.5381 56.0183 17.5197C54.2244 16.8003 52.7199 17.6151 51.2103 18.4062Z" fill="#F1C4A5"/>
<path d="M51.5878 69.6639C52.7505 70.9108 54.1247 71.3491 55.7687 70.759C56.2901 71.153 55.8057 71.2865 55.5686 71.4219C55.0924 71.6949 54.5896 71.9227 54.099 72.1701C52.7495 72.5785 51.4441 72.2973 50.1418 71.9238C49.1617 71.6436 49.1802 71.2208 49.9406 70.6666C50.463 70.2869 50.9412 69.8364 51.5878 69.6639Z" fill="#CE947B"/>
<path d="M66.3912 35.0666C66.185 34.7936 65.9797 34.5206 65.7734 34.2476C66.3851 33.8259 67.0942 34.2148 67.7326 34.0096C67.947 34.6848 67.3806 34.6633 67.0121 34.8182C66.7104 34.6643 66.7453 35.3519 66.3912 35.0666Z" fill="#CE947B"/>
<path d="M46.3096 36.4555C46.014 35.7433 46.1094 34.9798 46.0273 34.2398C46.68 33.0935 47.5021 33.0914 48.2646 34.2326C48.0645 35.1419 48.828 36.6238 46.9099 36.513C46.6965 36.6341 46.4943 36.6341 46.3096 36.4555Z" fill="#1B1B1B"/>
<path d="M50.9628 15.3964C50.191 15.6735 49.5979 15.8931 49.0006 16.0973C48.7666 16.1774 48.5377 16.1497 48.4402 15.8808C48.3479 15.6273 48.4782 15.422 48.6947 15.3184C49.3823 14.9879 50.0812 14.9469 50.9628 15.3964Z" fill="#CE947B"/>
<path d="M47.816 32.081C46.02 32.4064 47.2074 31.4047 47.1807 30.8157C47.7883 31.1451 47.4301 31.7803 47.8221 32.078L47.816 32.081Z" fill="#161616"/>
<path d="M67.9617 37.3566C67.8734 37.5444 67.7841 37.7323 67.6959 37.9201C67.4321 38.0596 67.1869 38.0042 66.9518 37.8482C66.5947 37.5496 66.2868 37.2007 65.9656 36.8661C65.863 36.5254 65.904 36.2021 66.0785 35.8942C66.1822 35.6182 66.2848 35.3431 66.3884 35.0671C66.6029 35.0045 66.7179 34.6915 67.0083 34.8197C66.9765 34.8906 66.9642 34.9644 66.9703 35.0424C66.917 35.9784 67.5378 36.6249 67.9617 37.3566Z" fill="#222222"/>
<path d="M50.4999 72.8603C49.7805 72.9547 49.0344 73.2933 48.4813 72.5801C48.4361 72.5226 48.5233 72.2537 48.5829 72.2404C49.3454 72.0772 49.8811 72.5801 50.4999 72.8603Z" fill="#CE947B"/>
<path d="M90 45C90 20.1472 69.8528 0 45 0C20.1472 0 0 20.1472 0 45C0 69.8528 20.1472 90 45 90C69.8528 90 90 69.8528 90 45Z" fill="#F0B90B"/>
<path d="M83.8201 44.1402C83.7893 46.1035 83.5071 48.0328 82.9406 49.9098C82.5619 51.166 82.019 52.3297 80.8675 53.1241C80.5083 53.3724 80.2733 53.824 80.0311 54.2139C78.656 56.4286 77.1658 58.5519 75.376 60.4608C73.5144 62.4466 71.3439 63.8587 68.6469 64.4293C67.4216 64.6889 66.226 65.0861 65.0027 65.3611C64.4044 65.4966 64.1252 65.7419 64.1652 66.3894C64.2638 67.9853 63.3391 68.9048 61.9598 69.3964C61.1491 69.6858 60.4902 70.1455 59.8262 70.6638C57.3499 72.5983 54.6416 74.0966 51.5813 74.9073C50.6772 75.1465 49.7618 75.2747 48.8248 75.2511C46.3638 75.1875 45.3047 74.0166 45.7368 71.6018C45.9297 70.5201 45.5213 70.5642 44.7352 70.6802C40.0072 71.377 35.3141 72.2894 30.5729 72.9226C29.3629 73.0837 28.5696 72.2945 27.4274 72.4382C26.3262 72.5767 25.1522 72.1098 24.0079 71.9209C23.3562 71.8132 22.7528 71.2128 22.0344 71.7454C21.8435 71.8871 21.6834 71.726 21.5962 71.5607C20.9558 70.3477 19.6781 70.0049 18.617 69.3686C15.3904 67.4331 13.1214 64.6551 11.0617 61.5301C8.99175 58.3877 8.69311 54.8174 7.76127 51.3876C6.32862 46.1137 7.22146 40.8839 7.97575 35.6295C8.45604 32.288 9.69576 29.1836 11.3224 26.3737C13.301 22.9563 16.195 20.2244 19.7859 18.2971C22.9293 16.6099 26.3313 15.7191 29.7672 15.752C32.3975 15.7776 35.0894 16.3975 37.7515 16.7587C40.0524 17.0717 42.3645 17.3098 44.6664 17.6136C45.4946 17.7224 45.9503 17.7511 45.7358 16.5997C45.2904 14.2044 46.3782 13.0129 48.8607 13.0016C51.8995 12.9872 54.5349 14.2454 57.1067 15.6924C59.0401 16.7803 60.6 18.4346 62.7305 19.2453C63.6901 19.6107 64.2319 20.5425 64.1519 21.6098C64.0821 22.5427 64.5049 22.8711 65.3218 22.9419C65.4132 22.9501 65.5004 22.9963 65.5917 23.0076C71.8858 23.8194 76.0924 27.5447 79.243 32.7621C79.91 33.8674 80.5535 34.9768 81.6167 35.8111C82.3977 36.4228 82.6799 37.4326 82.956 38.3706C83.5122 40.2497 83.7852 42.178 83.8201 44.1402Z" fill="#181818"/>
<path d="M47.4985 21.4328C48.9948 21.4575 50.4911 21.7233 52.0305 21.3076C51.1674 21.0429 50.2961 20.8007 49.4422 20.5072C47.7243 19.916 46.1521 16.8855 46.659 15.186C46.8746 14.4646 47.4277 14.1957 48.1091 14.0613C48.9969 13.8868 49.8661 14.0017 50.7364 14.1649C50.8441 14.3835 50.7456 14.5446 50.5906 14.6904C50.3043 14.872 49.9605 14.8289 49.6537 14.9305C48.6325 15.2692 48.2662 16.3139 49.1097 16.9584C50.486 18.0113 51.6651 19.522 53.8387 19.0889C54.8896 18.8795 56.0175 19.3547 56.9688 20.0002C57.1474 20.1223 57.407 20.2845 57.5907 20.0351C57.76 19.8042 57.5425 19.6102 57.4019 19.4286C57.1597 18.9893 56.8313 18.5881 56.6578 18.1283C56.4772 17.648 56.2494 17.0312 57.1494 16.9512C58.9136 17.8584 60.2138 19.5035 62.1883 20.0926C62.6276 20.2239 62.9036 20.6878 63.0268 21.1527C63.2249 21.9049 63.1592 22.4324 62.1278 22.3216C60.4765 22.143 58.8171 22.0455 56.9739 21.8998C57.5168 22.4858 58.0566 22.4273 58.5338 22.533C61.3427 23.1529 64.1362 23.8599 66.9676 24.3556C72.0137 25.2382 75.2484 28.4309 77.8254 32.541C77.4221 33.2368 77.4169 33.2502 76.717 32.9782C75.3039 32.4281 73.8979 31.8606 72.7454 31.4594C74.2253 32.0833 76.0972 32.5338 77.7381 33.5457C78.1404 33.9583 78.5889 34.3288 78.8886 34.8327C80.4526 35.9195 81.8339 37.1376 82.0228 39.2096C82.2403 40.1579 82.266 41.1256 82.3081 42.0903C82.4138 44.541 80.939 46.2908 78.4791 46.5812C77.4221 46.7064 76.3527 46.6387 75.2885 46.6028C74.2499 46.5679 73.8014 45.9932 73.7706 45.0131C73.7522 44.4117 73.7737 43.8062 73.6988 43.21C73.4894 41.5341 73.3509 41.4407 71.7787 41.803C70.9207 41.529 70.9628 40.7429 70.7658 40.0707C70.3491 38.6472 69.5086 37.5153 68.2792 36.6809C68.039 36.4408 67.7558 36.2366 67.6326 35.8989C67.2909 35.4115 67.7896 34.8029 67.3966 34.3247C66.7562 33.5704 65.8603 33.8875 65.0824 33.8126C64.5077 33.7571 63.9258 33.8105 63.9299 33.0654C63.934 32.3984 64.5148 32.2947 65.0557 32.2003C66.866 31.8832 68.4741 32.7504 69.9581 32.971C69.1751 32.6909 68.1201 32.5164 67.0918 32.2557C65.9916 31.9766 64.873 32.0772 63.8047 32.5872C62.3577 33.2779 60.7003 33.3559 59.2851 34.2118C58.1326 34.9086 57.2592 35.7809 56.5224 37.0873C57.562 37.0976 58.5113 36.9498 59.2378 37.6528C59.829 38.0469 59.8526 38.6103 59.7243 39.2281C59.48 40.4052 59.5457 41.5782 59.7951 42.7482C59.8095 42.9113 59.8218 43.0725 59.8341 43.2356C59.9685 43.7908 59.6915 44.2147 59.3959 44.6334C59.167 44.9433 58.8571 45.086 58.4753 45.0829C56.3099 45.1219 54.1456 45.2255 51.9822 45.2922C50.1688 45.3477 48.3667 45.3364 46.5616 45.2317C45.4019 44.4907 45.6174 42.7153 46.9926 41.9528C47.636 41.5967 48.3565 41.3761 48.8604 40.7993C49.2226 40.5232 49.6547 40.359 50.1288 40.0378C48.7875 39.0229 50.0498 38.1115 50.1945 37.1325C50.5198 35.7306 50.5752 34.3195 50.3412 33.2204C50.4131 34.5607 50.8061 36.2571 49.785 37.7985C48.6869 37.8457 48.0794 37.3993 48.0311 36.2263C48.0096 35.6896 47.7787 35.1631 47.7335 34.6141C47.8156 33.8485 48.0353 33.0747 47.595 32.3378C47.5734 32.2054 47.558 32.072 47.5509 31.9376C47.5416 31.6656 47.5601 31.3896 47.5232 31.1197C47.478 30.7872 47.6206 30.2884 47.0901 30.2679C46.6026 30.2484 46.5903 30.702 46.541 31.0642C46.3635 31.9448 45.5671 32.4959 45.3331 33.3456C45.0909 33.7459 45.1156 34.2816 44.6989 34.5925C43.843 34.6736 43.7783 34.1194 43.7999 33.4934C43.7599 36.6799 44.5532 39.6283 46.3635 42.2833C46.3214 42.6897 46.0197 43.0037 45.9725 43.407C45.5907 43.8893 45.7878 44.5338 45.4388 45.0685C44.8169 46.025 44.2915 47.004 43.0415 47.2821C42.6525 47.3684 42.3005 47.6331 42.0912 48.02C41.2794 49.8775 41.2291 51.8941 40.8669 53.842C40.6124 55.2089 40.2696 56.5503 39.9319 57.8957C39.8119 58.3729 39.6025 58.7588 39.0853 58.8922C35.1855 59.4412 31.2991 59.4833 27.5071 58.2898C25.2781 57.5878 23.7931 56.0864 23.2994 53.7044C22.774 51.1665 22.8489 48.6573 23.7028 46.2189C23.8967 45.6658 23.9983 45.0819 24.2456 44.5482C24.2723 43.5178 23.5652 42.7574 23.1937 41.8902C21.4799 37.896 21.134 33.751 21.6379 29.5064C21.8914 27.3769 23.1116 25.8519 25.0215 24.8759C28.0182 23.3448 31.2457 23.0574 34.5072 23.3386C36.3021 23.4936 37.6845 22.9804 38.8759 21.7438C39.3357 21.2676 39.8622 21.1198 40.5046 21.1568C42.2164 21.2553 43.9302 21.3271 45.6441 21.3918C46.1367 21.4103 46.5554 21.5324 46.8427 21.9593C47.7202 22.6818 47.7479 23.666 47.6771 24.4952C47.6771 23.9472 47.7633 23.2093 47.36 22.5289C47.1383 22.1533 47.1127 21.7551 47.4985 21.4328Z" fill="#F1C4A5"/>
<path d="M46.3118 44.8212C50.3932 44.7668 54.4685 44.3738 58.555 44.5677C58.8218 45.7007 59.6274 46.7506 59.0887 48.0108C59.0004 48.1135 58.8937 48.1945 58.7664 48.2428C58.5714 48.3156 58.2348 48.3208 58.3292 48.6071C58.4083 48.8462 58.7284 48.6368 58.9378 48.6953C59.0876 48.7138 59.218 48.7682 59.3411 48.8524C60.2504 49.8088 59.2467 50.2963 58.8352 50.9285C58.165 51.5945 57.4395 51.0937 56.7652 51.0301C59.5217 53.6214 63.0172 54.2104 66.6152 54.4424C67.7256 54.5142 67.6589 53.7045 67.4793 52.9286C68.4984 51.3072 70.0019 50.0305 70.7982 48.2428C71.0025 47.783 71.2816 47.3633 71.257 46.8337C71.2313 45.398 71.4602 43.9643 71.257 42.5296C71.1964 42.0996 71.2169 41.6881 71.6829 41.4602C72.4259 41.2386 71.9333 40.4658 72.3181 40.0132C73.8688 40.8301 74.0833 42.2843 74.1715 43.7755C74.3008 45.9398 74.2824 45.9419 76.3985 45.9481C76.8152 45.9491 77.2318 45.9552 77.6485 45.9419C80.1546 45.8639 81.3307 44.8346 81.8418 42.388C82.0634 41.3279 81.9074 40.2626 82.0213 39.2066C83.337 43.0807 82.947 46.8922 81.5893 50.6647C81.5113 50.8802 81.4179 51.1419 81.2465 51.2641C78.4479 53.2745 77.6362 56.774 75.286 59.1477C73.3474 61.1048 71.3278 62.7335 68.5836 63.4252C65.1117 64.2995 61.6266 65.098 58.1106 65.7691C57.7083 65.8461 57.2742 65.8153 56.8442 66.2186C58.5437 66.3674 60.12 66.0288 61.7056 65.9682C62.1418 65.9518 62.6805 65.6357 62.97 66.1766C63.2676 66.7328 63.009 67.2634 62.6426 67.7159C62.4989 67.8935 62.3265 68.108 62.1253 68.1695C59.9753 68.8315 58.5601 70.65 56.6205 71.6373C56.0663 71.7101 56.1587 71.3396 56.247 71.042C56.3496 70.6972 56.522 70.375 56.6205 70.0271C56.8997 69.4811 57.4066 69.0901 57.6406 68.5195C57.5975 67.9622 57.2804 67.8391 56.9089 68.1737C55.9565 69.0326 54.8369 68.9957 53.6711 68.9567C51.6576 68.8879 50.3511 70.2682 48.9688 71.4217C48.4074 71.8907 48.6024 72.5086 49.0324 73.0289C49.4337 73.6333 50.6313 72.9858 50.7083 74.09C49.4018 74.1362 47.8758 74.7294 46.9429 73.4691C45.9608 72.1422 47.0876 70.7136 47.337 69.3662C47.4879 68.5493 48.4813 68.0905 49.3126 67.7703C49.9581 67.522 50.6282 67.3383 51.2871 67.1258C51.3959 66.6517 51.0315 66.7431 50.7934 66.7389C49.9653 66.7236 49.133 66.6846 48.3099 66.7451C47.2272 66.8252 47.0076 66.3346 47.298 65.411C47.7537 64.0779 47.2282 62.6144 47.8543 61.308C48.5747 60.8647 49.2027 60.3064 50.2177 60.6153C50.853 60.8082 51.3312 60.4059 50.9125 59.6475C50.6816 59.2288 50.6549 58.8676 50.934 58.4868C52.7187 56.0515 52.5217 53.4931 51.5919 50.7879C51.2306 49.737 50.5307 48.8657 50.2762 47.7892C50.308 47.5726 50.3604 47.3551 50.3224 47.1334C50.1797 46.845 49.8965 46.806 49.6276 46.7393C49.4254 46.6993 49.2253 46.6644 49.0201 46.6326C48.2801 46.4571 47.5997 46.1133 46.8311 46.0066C46.1774 45.9193 45.8808 45.4832 46.3118 44.8212Z" fill="#CE947B"/>
<path d="M41.2851 47.3715C41.4482 46.5115 42.1307 46.5525 42.7813 46.4632C43.4207 46.375 44.5065 46.6336 43.9041 45.2974C43.7686 44.9967 44.018 44.853 44.2571 44.8561C45.2413 44.8654 45.4178 44.1059 45.6764 43.4163C45.9843 44.2588 45.9576 45.1896 46.3619 46.0055C45.4917 47.2565 44.8472 48.5927 44.8338 50.1619C42.8203 54.7041 43.8148 59.4833 47.4487 62.6955C47.617 63.4867 47.5247 64.2852 47.5257 65.0805C47.4857 65.5957 47.2291 65.9898 46.833 66.3038C46.4297 66.7697 45.894 66.8457 45.3182 66.8539C44.4367 66.8672 43.5397 66.819 42.6767 66.9606C40.7935 67.2695 39.1166 67.1043 37.7352 65.5793C37.1072 64.8855 36.1907 64.8363 35.2712 64.8866C32.8102 65.021 30.3472 65.0764 27.9345 64.4288C26.0144 63.9137 24.2934 63.0557 22.9715 61.5102C22.5159 60.9775 22.1485 60.5188 23.2178 60.2951C23.6171 60.212 24.1579 60.1196 24.2246 59.6773C24.3046 59.1447 23.6561 59.1724 23.3441 58.9415C22.1403 58.0517 21.2936 55.6379 21.7657 54.1776C21.8971 53.7722 22.0212 53.3863 21.9884 52.9635C21.7534 49.8919 22.4482 47.0718 24.2482 44.5472C24.2256 46.7311 23.6212 48.8544 23.6725 51.0598C23.7741 55.4389 25.6634 57.5868 30.0168 58.221C33.0288 58.6592 36.0471 58.4119 39.0622 58.5135C39.7323 58.6151 39.835 59.2493 40.1521 59.6804C40.4497 60.0857 40.6785 60.5588 41.1906 60.7128C41.3887 60.6799 41.4585 60.5547 41.4482 60.4111C41.1958 56.7258 41.8905 53.1236 42.4519 49.5153C42.6233 48.4111 42.3503 47.7194 41.2851 47.3715Z" fill="#CE947B"/>
<path d="M46.832 66.3048C46.948 65.9446 47.064 65.5834 47.1799 65.2232C47.3 64.2113 47.3801 63.2025 47.0475 62.209C46.9737 61.9884 46.989 61.7503 46.9993 61.5194C47.0147 61.151 47.0034 60.7682 47.3441 60.5126C47.5802 60.3361 47.7947 60.4552 47.9589 60.6173C48.2842 60.9385 48.1159 61.2967 47.9937 61.6497C47.5289 62.99 48.1025 64.4114 47.6746 65.7558C47.2897 66.6969 47.9763 66.6291 48.5295 66.6363C49.7527 66.6527 50.9771 66.6414 52.2517 66.6414C52.0382 67.1874 51.6329 67.0879 51.2901 67.1289C50.4167 66.7071 49.4859 66.9319 48.5797 66.9052C47.9209 66.8847 47.2887 66.8703 46.832 66.3048Z" fill="#333333"/>
<path d="M41.2864 47.3741C41.5183 47.2232 41.7308 47.019 41.9842 46.9297C43.1049 46.5346 43.5288 46.8835 43.3635 48.0719C43.031 50.4528 42.6739 52.8307 42.3311 55.2116C41.9832 57.6366 41.9411 60.0575 42.5148 62.5195C40.7261 61.6565 39.3057 60.5902 39.0625 58.5171C40.1288 54.8678 40.5403 51.0871 41.2864 47.3741Z" fill="#1B1B1B"/>
<path d="M42.2779 25.6935C42.5981 25.7295 42.6289 25.9552 42.5663 26.1933C41.3584 30.8187 42.7951 35.2962 43.298 39.8282C43.3596 40.3813 43.9302 41.2115 42.9132 41.4271C41.9628 41.6282 41.342 41.1582 41.1521 40.1299C40.5271 36.7597 39.8406 33.4007 39.2289 30.0284C38.9662 28.5866 41.1347 25.5827 42.2779 25.6935Z" fill="#1B1B1B"/>
<path d="M58.7914 37.8817C57.4347 37.3521 56.4023 38.1844 55.0117 38.9336C55.6942 36.4141 56.9216 34.6798 58.9772 33.6135C63.1756 31.4378 67.4232 31.0971 71.6822 33.5078C69.289 33.4565 66.9799 32.0731 64.5015 32.9834C65.5052 33.6925 66.8619 33.049 67.7999 33.9132C67.7835 33.9758 67.767 34.0394 67.7506 34.102C67.3011 34.9025 66.4196 34.3976 65.8192 34.7444C64.7437 34.9938 63.6343 35.081 62.5834 35.4577C61.3427 35.9031 60.222 36.487 59.5909 37.7288C59.3456 37.8899 59.0623 37.8509 58.7914 37.8817Z" fill="#CE947B"/>
<path d="M71.6829 41.4638C72.2115 43.3336 72.2535 45.2024 71.6768 47.0702C71.2652 47.1708 71.2221 47.6069 70.9656 47.8522C70.2359 48.5501 69.7043 48.4649 69.0496 47.5248C69.2907 45.3143 69.4088 43.1027 69.0208 40.8973C69.0208 40.7659 69.0208 40.6315 69.0219 40.4991C69.1276 39.7971 69.3461 39.0562 68.4472 38.6631C67.9894 38.2824 67.8047 37.758 67.6672 37.2058C67.6025 36.5193 67.9884 36.2484 68.6031 36.1868C70.4853 37.447 71.3617 39.2933 71.6829 41.4638Z" fill="#CB8A83"/>
<path d="M50.4771 37.3038C50.4515 37.4855 50.4361 37.6692 50.3991 37.8488C50.0461 39.5482 50.0451 39.5482 51.722 39.0741C51.7558 40.5673 50.2626 40.5355 49.5792 41.2764C49.3205 41.533 49.0476 41.7742 48.7356 41.963C47.502 42.7132 46.4819 42.1734 46.4327 40.7438C46.4203 40.3805 46.4244 40.0172 46.446 39.656C46.4624 39.2794 46.6677 38.9817 46.8596 38.68C47.1151 38.3496 47.1664 38.0242 46.8319 37.7061C46.369 37.2648 46.3311 36.7568 46.601 36.2026C47.4127 35.7326 47.4497 34.6817 48.1547 34.1317C48.2912 34.107 48.4102 34.1429 48.5118 34.2374C48.5796 35.5109 48.1886 36.9734 49.8809 37.5819C50.0594 37.4444 50.1497 37.1201 50.4771 37.3038Z" fill="#CE947B"/>
<path d="M46.051 42.375C44.2725 40.8736 43.7245 38.7739 43.3602 36.629C43.0903 35.0424 42.9015 33.4076 44.2582 32.057C44.4829 32.8319 44.1453 33.735 44.5948 34.4934C45.1869 34.6863 45.2116 35.2261 45.3152 35.7033C45.4897 36.5038 45.7072 37.3535 46.1721 37.9642C46.6883 38.6405 46.6935 39.247 46.5703 39.9654C46.3014 40.7484 47.143 41.7705 46.051 42.375Z" fill="#CE947B"/>
<path d="M59.099 49.0195C59.02 49.0195 58.9399 49.0185 58.8609 49.0185C58.4945 48.685 58.4925 48.3299 58.8024 47.9584C58.8465 47.2143 58.9933 46.4826 57.8387 46.381C57.2528 46.3297 57.1193 45.8546 57.6468 45.3999C57.9588 45.1311 58.2544 44.8447 58.5571 44.5666C58.748 44.4712 58.9399 44.3768 59.1308 44.2813C59.7691 44.0453 59.9097 43.683 59.413 43.1606C59.4377 43.0365 59.4613 42.9123 59.4859 42.7881C59.4058 41.3349 59.2468 39.8797 59.6008 38.4378C60.3325 38.1813 60.466 38.7211 60.5758 39.2126C60.7061 39.7935 60.819 40.3785 60.9596 40.9573C61.0889 41.4868 61.3906 41.886 61.9468 41.9835C62.6231 42.1026 63.2358 42.2986 63.2953 43.097C63.359 43.9427 62.6416 44.0997 62.0587 44.347C61.8873 44.4199 61.7385 44.5225 61.5989 44.6374C60.782 44.9935 60.6825 45.9223 60.1396 46.4991C59.685 46.8901 59.5546 47.4022 59.5495 47.9779C59.5464 48.3791 59.5926 48.8225 59.099 49.0195Z" fill="#CE947B"/>
<path d="M46.0503 42.373C46.4875 41.4607 46.2268 40.4878 46.2915 39.5436C46.4731 39.3733 46.6589 39.362 46.8467 39.5334C46.858 42.4141 46.8898 42.4346 49.5786 41.2759C49.4503 42.2971 48.5554 42.371 47.8637 42.4951C46.233 42.7856 45.9733 43.0965 46.313 44.8217C46.4095 45.2568 46.6424 45.6601 47.1012 45.6293C47.9253 45.5729 48.5708 46.0296 49.2994 46.2369C49.5416 46.361 49.7735 46.4934 49.713 46.829C48.7083 47.0681 48.1264 47.844 47.5065 48.5757C47.0745 49.0077 46.6168 49.2284 46.0677 48.7666C45.5977 47.9302 45.373 47.0866 45.9887 46.2174C45.884 45.2835 45.7794 44.3506 45.6757 43.4167C45.8009 43.0688 45.9251 42.7209 46.0503 42.373Z" fill="#1B1B1B"/>
<path d="M46.8464 39.5327C46.6617 39.5358 46.4758 39.5399 46.2911 39.543C46.3065 39.4527 46.3691 39.3182 46.3321 39.2782C45.2895 38.1739 44.6471 36.419 44.5938 34.4907C44.6306 34.0227 44.5917 33.5373 44.9098 33.135C45.1459 33.249 45.1705 33.4655 45.1777 33.6902C45.2167 34.2506 45.4876 34.4517 46.0264 34.2383C46.8228 34.7165 46.7776 35.4636 46.6637 36.2323C46.48 36.8183 46.7591 37.2739 47.0455 37.7532C47.261 38.1144 47.7053 38.4326 47.4343 38.9611C47.2373 39.1509 47.0424 39.3418 46.8464 39.5327Z" fill="#CE947B"/>
<path d="M59.7301 38.4111C59.5423 39.8642 59.9764 41.3533 59.4828 42.7891C58.7583 41.7033 59.0723 40.5108 59.1667 39.3562C59.2129 38.7908 59.3114 38.2735 58.7891 37.8805C58.981 37.7974 59.1729 37.7132 59.3648 37.6301C59.802 37.743 59.9477 37.9913 59.7301 38.4111Z" fill="#222222"/>
<path d="M59.4111 43.1603C59.9345 43.2332 60.5267 43.3759 60.3655 44.0316C60.1859 44.7644 59.5928 44.4206 59.1289 44.281C59.2233 43.9075 59.3167 43.5339 59.4111 43.1603Z" fill="#CE947B"/>
<path d="M50.7506 47.6405C52.9283 50.3355 53.3665 53.3773 52.6533 56.6972C52.4645 57.5747 53.0084 58.7179 51.507 58.9221C51.2288 58.9601 51.4054 59.2875 51.4587 59.5112C51.7327 60.6668 51.1385 61.4272 50.0168 61.2168C49.3857 61.0978 48.8284 61.2794 48.2373 61.2969C47.445 59.0668 47.5538 56.7588 47.6441 54.4528C47.5425 53.6215 47.5271 52.7687 47.0428 52.0318C47.0202 51.9036 47.012 51.7743 47.0171 51.645C47.1864 51.2262 47.1792 50.7962 47.0869 50.3611C47.2213 49.7156 48.1809 49.5801 48.0639 48.7796C48.4138 48.2039 48.9588 47.7965 49.3724 47.2752C49.5694 47.189 49.7634 47.0915 49.9748 47.0412C50.3935 47.0319 50.6726 47.2064 50.7506 47.6405Z" fill="#CE947B"/>
<path d="M54.1755 49.788C56.2906 52.1299 58.3483 54.363 60.3464 56.6485C61.0165 57.4151 60.7117 58.1899 59.8722 58.5922C58.4037 59.2972 56.8602 59.7827 55.1843 59.6031C54.3838 59.5179 53.8502 59.1341 53.8471 58.2997C53.8348 55.6623 53.8584 53.0258 53.8841 50.3883C53.8851 50.2334 54.0288 50.0794 54.1755 49.788Z" fill="#F1C4A5"/>
<path d="M67.8372 52.9299C68.0691 53.5221 68.6315 53.2337 69.1549 53.402C68.0896 54.9435 66.4959 55.0245 64.9801 54.9742C61.7361 54.8675 58.8277 53.7581 56.3544 51.6102C55.5858 50.9421 55.32 50.1252 55.6853 48.8372C56.2764 50.2791 57.3273 50.5891 58.5075 50.6558C58.8934 50.703 59.2167 50.2791 59.6272 50.5049C60.4297 51.136 61.3205 51.6307 62.2061 52.1284C63.3884 52.7924 64.5593 52.9566 65.6338 51.8934C66.3799 51.6553 66.6396 52.4599 67.204 52.6149C67.438 52.6734 67.6884 52.7031 67.8372 52.9299Z" fill="#99654E"/>
<path d="M48.2006 54.2915C48.1092 56.0371 47.7408 57.7992 48.61 59.4751C48.9651 60.1596 48.0025 60.6142 48.2375 61.2977C47.6792 62.7375 48.3658 64.3344 47.6741 65.7578C47.6741 64.1569 47.6741 62.5569 47.6741 60.6204C47.1189 62.3219 47.7305 63.85 47.1805 65.2262C47.1579 64.3796 47.1353 63.5329 47.1127 62.6862C46.9034 62.4574 46.7515 62.1988 46.7043 61.8868C46.4847 60.9888 46.0957 60.1637 45.677 59.3417C44.7575 57.5365 44.1992 55.6338 44.3111 53.5792C45.0541 52.9286 45.4122 53.2437 45.6021 54.077C45.8166 55.017 45.6729 56.1203 46.7207 56.695C46.7669 56.6898 46.8305 56.6785 46.8777 56.6765C46.8623 56.6878 46.8418 56.6283 46.8315 56.6324C46.6242 56.7247 46.4806 56.6129 46.3287 56.4989C45.5898 55.2305 45.5415 53.804 45.4061 52.4124C45.3517 51.8521 45.3507 51.1686 46.0896 50.8976C46.4785 50.8874 46.5996 51.1583 46.6827 51.4652C46.9136 52.553 46.9383 53.7547 48.2006 54.2915Z" fill="#99654E"/>
<path d="M67.8359 52.9326C67.6265 53.1143 67.4172 53.2949 67.2078 53.4766C66.4628 53.3216 66.5469 52.6699 66.8497 52.398C67.7466 51.5934 67.4675 50.6472 67.3915 49.701C67.4623 49.3459 67.4962 48.9795 67.725 48.6768C68.076 48.2693 68.0144 47.7367 68.155 47.2657C68.3069 46.7556 68.3511 46.1388 69.1197 46.1624C69.5641 46.5729 69.0807 47.1815 69.4297 47.6125C70.0752 47.9717 70.4405 47.4853 70.852 47.1394C71.1117 46.9208 71.3498 46.4631 71.6782 47.0707C71.6382 49.1704 70.3143 50.5374 68.9381 51.8736C68.5717 52.2286 68.2033 52.5796 67.8359 52.9326Z" fill="#A15A5A"/>
<path d="M64.707 57.1481C65.9016 56.5169 66.9473 55.9525 68.0044 55.4106C68.5791 55.1161 69.2626 54.9827 69.6105 55.6138C69.9768 56.2789 69.1877 56.44 68.8141 56.6647C67.5867 57.3985 66.3326 58.1877 64.707 57.1481Z" fill="#F1C4A5"/>
<path d="M58.8014 47.9622C58.8209 48.3152 58.8404 48.6683 58.8599 49.0223C58.7531 49.6719 58.4884 50.3411 57.7289 49.9583C56.8566 49.519 57.0301 48.5636 57.3554 47.8822C57.7597 47.0345 58.3293 47.5958 58.8014 47.9622Z" fill="#F1C4A5"/>
<path d="M73.3991 47.1758C72.8008 45.5769 72.6541 43.9328 73.0317 42.2446C73.8651 43.8127 73.5941 45.4948 73.3991 47.1758Z" fill="#99654E"/>
<path d="M59.3955 50.6936C59.0948 50.8239 58.7962 50.8711 58.5078 50.6587C58.9799 50.2122 59.4725 49.774 59.1 49.0218C59.1656 47.9052 58.8403 46.7527 59.4109 45.6844C60.3027 45.3724 60.275 46.0415 60.3469 46.5762C60.4926 47.6641 60.3653 48.7632 60.4751 49.8541C60.3243 50.4 60.0708 50.8198 59.3955 50.6936Z" fill="#222222"/>
<path d="M68.4102 58.8633C69.2681 57.2551 70.8639 57.3547 71.9661 56.6065C71.4479 57.6297 70.0645 58.5 68.4102 58.8633Z" fill="#99654E"/>
<path d="M50.7529 47.6406C50.4779 47.5401 50.2018 47.4385 49.9268 47.3379C49.3808 47.4005 49.4968 47.0823 49.6004 46.7714C49.5009 46.5938 49.4014 46.4153 49.3008 46.2377C49.5194 46.2254 49.739 46.2121 49.9576 46.1998C50.4091 46.3742 51.1244 46.2234 51.029 47.0711C50.9366 47.2599 50.8443 47.4497 50.7529 47.6406Z" fill="white"/>
<path d="M51.0284 47.0703C50.6713 46.7799 50.3142 46.4895 49.957 46.2001C50.4804 45.9732 50.9833 46.1569 51.3476 46.4659C51.8741 46.9112 51.3958 46.9995 51.0284 47.0703Z" fill="#99654E"/>
<path d="M47.1162 61.8575C47.1152 62.1325 47.1152 62.4086 47.1142 62.6836C45.3726 62.3347 44.4244 61.2438 44.0262 59.5381C43.2627 56.2736 43.198 53.046 44.3341 49.8493C44.41 49.8421 44.487 49.8349 44.5629 49.8267C45.4701 50.6877 44.8554 51.7211 44.6399 52.5288C44.33 53.6915 44.3094 54.7876 44.528 55.9093C44.9498 58.0778 45.0247 60.4125 47.1162 61.8575Z" fill="white"/>
<path d="M45.988 46.2157C46.2774 47.006 46.2856 47.8311 46.2856 48.6562C46.2774 48.7177 46.2702 48.7804 46.262 48.8419C45.832 49.587 44.9679 49.4998 44.3306 49.8477C44.0545 48.1615 44.6087 46.9475 45.988 46.2157Z" fill="#99654E"/>
<path d="M59.7334 38.4106C59.6123 38.1499 59.4902 37.8893 59.3691 37.6296C59.0673 37.216 58.4701 36.8702 59.3219 36.3488C61.3118 35.1286 63.352 34.1167 65.7749 34.2481C66.2932 34.2512 66.4995 34.5888 66.6083 35.0291C66.6483 35.3749 66.479 35.7095 66.5375 36.0553C66.3681 36.5818 65.9863 37.0098 65.8622 37.5547C64.6963 39.679 64.7015 42.0004 64.7179 44.3259C64.722 44.4891 64.6902 44.642 64.6286 44.7918C63.1395 46.3456 62.4653 46.3456 61.3785 44.7908C61.3744 44.7097 61.3692 44.6287 61.3641 44.5476C61.4842 43.9862 61.8854 43.705 62.3811 43.5059C62.5946 43.4197 62.8409 43.2884 62.73 43.0144C62.6808 42.8933 62.4252 42.7578 62.2929 42.7835C60.5708 43.1149 60.2404 42.1143 60.1747 40.7125C60.1388 39.9387 59.8873 39.1772 59.7334 38.4106Z" fill="#F1C4A5"/>
<path d="M69.4315 47.6094C69.1349 47.1742 69.2026 46.6642 69.1339 46.1819C68.5284 45.8216 68.5325 45.2079 68.5017 44.6199C68.4576 43.7589 68.4678 42.8948 68.3438 42.0368C68.3653 41.3061 68.6248 40.7653 69.4346 40.6616C69.9467 42.9769 69.92 45.2931 69.4315 47.6094Z" fill="#222222"/>
<path d="M69.4331 40.6632C69.1252 41.0962 69.2104 41.6123 69.1293 42.0938C68.1082 41.5888 67.6536 40.3573 67.9707 38.9575C68.1831 38.6589 68.4828 38.5706 68.8307 38.6035C69.4372 39.0468 69.7902 39.5834 69.469 40.3644C69.4567 40.464 69.4444 40.5636 69.4331 40.6632Z" fill="#222222"/>
<path d="M69.4695 40.3644C69.255 39.8133 69.0395 39.2612 68.825 38.7101C68.746 38.6229 68.7532 38.5398 68.8353 38.4597C69.5926 38.6834 70.272 39.8226 69.9631 40.3952C69.9303 40.4558 69.6398 40.3778 69.4695 40.3644Z" fill="#E2B8B7"/>
<path d="M68.8366 38.4584C68.8376 38.5416 68.8346 38.6257 68.8264 38.7088C68.6386 38.8053 68.4518 38.9018 68.265 38.9993C67.5589 39.0198 67.366 38.6011 67.3978 37.9884C67.4686 37.6713 67.7026 37.5009 67.9664 37.3562C68.0084 37.3285 68.0515 37.3008 68.0936 37.2731C68.3409 37.6682 68.5883 38.0633 68.8366 38.4584Z" fill="#222222"/>
<path d="M46.3086 36.4546C46.5087 36.4741 46.7088 36.4925 46.909 36.512C46.8874 37.3505 47.4795 37.7672 48.0481 38.2197C48.2934 38.4147 48.5243 38.7267 48.2821 39.0397C48.0122 39.3876 47.7156 39.0387 47.4334 38.9627C46.8166 38.2351 46.4461 37.3967 46.3086 36.4546Z" fill="#1B1B1B"/>
<path d="M59.9746 49.8761C59.8863 48.465 59.8679 47.0437 59.4102 45.6829C60.0115 45.1256 61.1096 44.9368 60.9321 43.6899C61.0758 43.9762 61.2184 44.2615 61.3621 44.5478L61.3652 44.5489C62.298 46.0359 62.1256 47.5229 61.3375 48.9925C61.0552 49.52 60.7402 50.064 59.9746 49.8761Z" fill="#99654E"/>
<path d="M46.8456 56.834C46.704 57.6345 46.3428 57.3666 46.1262 56.9253C45.8286 56.3199 45.6541 55.6548 45.4191 55.0186C45.2221 54.4829 45.2693 53.8158 44.6279 53.5141C44.0727 51.5416 44.9327 50.0741 46.3099 48.7892L46.2884 48.6599C46.8097 48.6866 46.9226 48.2432 47.1391 47.9189C47.9796 47.8902 48.6765 46.5438 49.6391 47.648C49.2635 48.1119 48.8889 48.5747 48.5133 49.0386C47.6112 49.5014 47.1792 50.4989 46.2986 50.9864C45.7404 52.9178 45.7794 54.7959 46.7953 56.5877C46.9144 56.6483 46.9308 56.7304 46.8456 56.834Z" fill="#CE947B"/>
<path d="M49.6377 47.647C48.8044 47.7373 47.9711 47.8277 47.1367 47.918C47.2014 47.8533 47.3194 47.7907 47.3214 47.725C47.3584 46.2134 47.4569 46.162 49.1913 46.7367C49.3165 46.7788 49.4622 46.7614 49.5977 46.7716C49.7065 46.9605 49.8152 47.1493 49.924 47.3392C49.8296 47.4408 49.7331 47.5444 49.6377 47.647Z" fill="#99654E"/>
<path d="M50.7198 51.8275C50.7567 53.4931 50.7926 55.1577 50.8296 56.8233C50.8327 56.9618 50.8829 57.2061 50.8419 57.2225C48.9731 57.9542 50.6038 59.1324 50.496 60.2305C49.5478 59.3633 49.2953 58.4345 49.516 57.3087C49.8721 55.4933 50.2405 53.6768 50.1892 51.81C50.1389 51.691 50.1194 51.5504 50.2651 51.5124C50.5145 51.4498 50.6346 51.6253 50.7198 51.8275Z" fill="#99654E"/>
<path d="M48.2003 54.29C46.6609 54.8975 46.235 54.641 46.2504 53.0893C46.2545 52.6778 46.3202 52.2662 46.3571 51.8547C46.6958 51.4719 47.0632 51.5027 47.447 51.7788C49.0285 52.217 47.9673 53.4475 48.2003 54.29Z" fill="#1D1D1D"/>
<path d="M47.4463 51.7795C47.083 51.8052 46.7197 51.8298 46.3564 51.8555C46.3369 51.565 46.3164 51.2756 46.2969 50.9852C46.7987 50.0667 47.2338 49.0723 48.5115 49.0374C48.4582 49.7311 47.9656 50.0965 47.4565 50.4505C47.6505 50.859 47.3385 51.212 47.3313 51.5979C47.3683 51.6595 47.4073 51.72 47.4463 51.7795Z" fill="#1D1D1D"/>
<path d="M47.333 51.5977C46.4801 51.1174 47.2909 50.8187 47.4582 50.4503C47.9662 50.8926 48.0195 51.2857 47.333 51.5977Z" fill="white"/>
<path d="M50.7177 51.8281C50.5412 51.823 50.3646 51.8168 50.1881 51.8117C50.0116 51.5028 49.8064 51.196 50.0886 50.8101C50.6643 50.9271 50.613 51.4279 50.7177 51.8281Z" fill="#99654E"/>
<path d="M59.9744 49.876C61.2962 48.3243 61.4963 46.4801 61.3649 44.5487C62.2875 45.1522 63.2091 45.8357 64.1307 44.5477C64.7588 44.7714 64.69 45.302 64.7064 45.812C64.7464 47.101 64.8049 48.39 65.3879 49.5805C65.4125 50.3501 66.0888 50.929 66.018 51.7274C65.9851 51.8618 65.9215 51.9788 65.8261 52.0784C65.7583 52.9804 65.1908 53.3643 64.3688 53.4576C62.9618 53.6177 60.0975 52.0158 59.3945 50.6909C59.5885 50.4199 59.7814 50.148 59.9744 49.876Z" fill="#CE947B"/>
<path d="M65.8264 52.0797C65.8049 51.9965 65.7905 51.9124 65.7854 51.8272C65.6243 51.2125 66.2102 51.1047 66.4894 50.7876C66.8948 50.2601 67.2498 49.6433 68.0883 49.8845C68.1006 50.9549 68.3479 52.0848 67.2416 52.8504C67.0518 52.9817 67.0538 53.2568 67.2078 53.4754C67.3176 53.6026 67.5238 53.773 67.3124 53.8992C67.0148 54.0768 66.7008 54.0029 66.5356 53.6529C66.2923 53.1326 66.0635 52.6041 65.8264 52.0797Z" fill="#252525"/>
<path d="M46.3112 48.7861C46.4652 49.4162 46.0731 49.8596 45.7057 50.2372C44.8006 51.167 44.5461 52.2744 44.6292 53.51C44.6323 55.6097 45.4307 57.4734 46.4395 59.2426C46.9157 60.079 47.2277 60.8969 47.1179 61.8555C45.4615 61.7354 44.6199 60.781 44.3531 58.8773C43.9857 56.2614 43.9385 53.6557 44.4055 51.05C44.4783 50.6416 44.5912 50.2352 44.3357 49.8473C44.5399 48.6496 45.521 48.8959 46.3112 48.7861Z" fill="#CE947B"/>
<path d="M46.8433 56.8337C46.8268 56.7516 46.8104 56.6685 46.793 56.5864C46.8987 56.3934 47.0054 56.1995 47.1111 56.0065L47.1142 56.0096C47.5339 56.4571 47.8418 56.9322 47.5011 57.5859C46.9951 57.5736 47.1224 57.0225 46.8433 56.8337Z" fill="#363636"/>
<path d="M47.1156 56.0037C47.0735 55.6394 46.6271 55.2002 47.2901 54.9692C47.3937 54.9333 47.6246 54.9908 47.6595 55.0678C47.9038 55.6086 47.4594 55.7841 47.1187 56.0078L47.1156 56.0037Z" fill="white"/>
<path d="M67.231 37.5652C67.387 37.6833 67.5419 37.8013 67.6979 37.9203C67.8867 38.2795 68.0745 38.6397 68.2634 38.9989C68.5528 40.0303 68.8412 41.0617 69.1306 42.0931C69.1316 43.4559 69.1326 44.8198 69.1336 46.1827C68.8586 47.1217 68.5846 48.0618 68.3096 49.0018C67.1571 49.2481 66.8492 48.3389 66.7096 47.6C66.1544 44.6443 66.1544 41.6446 66.2642 38.6479C66.2858 38.0743 66.4643 37.5273 67.231 37.5652Z" fill="#FAFAFA"/>
<path d="M67.2298 37.5664C66.8727 37.9051 66.7054 38.3371 66.689 38.8143C66.5966 41.4149 66.493 44.0216 67.043 46.5882C67.236 47.4882 67.4956 48.4037 68.3084 49.002C68.2355 49.2965 68.1616 49.591 68.0888 49.8856C67.6947 50.3187 67.3006 50.7528 66.9065 51.1858C66.4375 51.5656 66.0937 51.4096 65.8249 50.9324C65.5098 49.2319 65.7089 47.5149 65.6832 45.8072C65.6473 43.3986 65.6586 40.989 65.6843 38.5804C65.6915 37.9153 65.5457 37.1457 66.415 36.8214C66.7731 36.9743 67.0523 37.2154 67.2298 37.5664Z" fill="#C4C4C4"/>
<path d="M64.1988 44.3044C63.6343 41.7778 64.3055 39.4821 65.5103 37.2859C66.0337 37.8883 65.7946 38.6159 65.7997 39.284C65.812 40.8121 65.8798 42.3422 65.7577 43.8683C65.3872 44.5477 64.8453 44.6113 64.1988 44.3044Z" fill="#CB8A83"/>
<path d="M64.2009 44.3037C64.6411 44.1939 65.0814 44.0851 65.5206 43.9753C65.6551 44.083 65.7402 44.2205 65.7782 44.3878C65.8152 45.7517 65.9096 47.1166 65.6776 48.4733C65.5853 49.0131 65.5032 49.5581 64.9664 49.8711C64.2778 48.1614 63.7031 46.4331 64.1321 44.5489C64.1557 44.4679 64.1793 44.3858 64.2009 44.3037Z" fill="#A15A5A"/>
<path d="M65.5465 44.3092C65.5373 44.1984 65.5281 44.0875 65.5178 43.9757C65.5147 41.7456 65.5116 39.5156 65.5086 37.2855C65.5958 36.7806 65.6368 36.2562 66.0781 35.8949C66.0966 36.2377 66.1572 36.5651 66.4137 36.8206C65.994 37.5421 66.032 38.3446 66.034 39.1297C66.0412 43.0777 66.0668 47.0247 66.0863 50.9727C65.1853 50.6258 65.4244 49.8756 65.4819 49.2096C65.6245 47.5768 65.8411 45.9471 65.5465 44.3092Z" fill="#222222"/>
<path d="M65.5488 44.3098C66.0568 45.7414 65.6791 47.2243 65.7971 48.6785C65.8597 49.4482 65.676 50.2487 66.0896 50.9733C66.3103 51.2442 66.5997 51.2503 66.9075 51.1857C66.534 51.4002 66.1594 51.6136 65.7858 51.8281C65.5118 51.1765 65.2389 50.5238 64.9648 49.8721C65.4297 48.0464 65.6442 46.195 65.5488 44.3098Z" fill="#563739"/>
</g>
<defs>
<clipPath id="clip0_394_5011">
<rect width="90" height="90" fill="white" transform="matrix(0 -1 1 0 0 90)"/>
</clipPath>
</defs>
</svg>
