<svg width="90" height="90" viewBox="0 0 90 90" fill="none" xmlns="http://www.w3.org/2000/svg">
<g clip-path="url(#clip0_394_5149)">
<mask id="mask0_394_5149" style="mask-type:luminance" maskUnits="userSpaceOnUse" x="0" y="0" width="90" height="90">
<path d="M0 0L0 90H90V0H0Z" fill="white"/>
</mask>
<g mask="url(#mask0_394_5149)">
<path d="M90 45C90 20.1472 69.8528 0 45 0C20.1472 0 0 20.1472 0 45C0 69.8528 20.1472 90 45 90C69.8528 90 90 69.8528 90 45Z" fill="#F0F0F0"/>
<path d="M39.1305 54.7805L39.1305 0.378998C17.0511 3.2553 1.62676e-06 22.1348 1.62676e-06 44.9981C-0.00088148 48.2882 0.357791 51.5685 1.06963 54.7807L39.1305 54.7805ZM39.1303 66.5199H5.47154C12.2135 78.8761 24.5798 87.7217 39.1305 89.6172L39.1303 66.5199ZM50.8695 66.5201V89.6172C65.4202 87.7217 77.7865 78.8761 84.5283 66.5199L50.8695 66.5201ZM50.8697 54.7807L88.9304 54.7807C89.6422 51.5685 90.0009 48.2882 90 44.9981C90 22.1348 72.9489 3.2553 50.8695 0.378998L50.8697 54.7807Z" fill="#D80027"/>
</g>
</g>
<defs>
<clipPath id="clip0_394_5149">
<rect width="90" height="90" fill="white" transform="matrix(0 -1 1 0 0 90)"/>
</clipPath>
</defs>
</svg>
