<svg width="90" height="90" viewBox="0 0 90 90" fill="none" xmlns="http://www.w3.org/2000/svg">
<g clip-path="url(#clip0_394_5282)">
<path d="M90 45C90 20.1472 69.8528 0 45 0C20.1472 0 0 20.1472 0 45C0 69.8528 20.1472 90 45 90C69.8528 90 90 69.8528 90 45Z" fill="url(#paint0_linear_394_5282)"/>
<path d="M54.5204 67.1798C54.9889 67.1389 55.4281 66.9342 55.7606 66.6017L63.0458 59.3225C63.4201 58.9475 63.6304 58.4393 63.6304 57.9094C63.6304 57.3796 63.4201 56.8714 63.0458 56.4964L51.8837 45.3404L56.1923 41.0338C56.5629 40.9696 57.0474 40.8762 57.5751 40.7508C58.6999 40.4832 59.9858 40.2077 61.1923 39.2449C62.696 38.045 63.3654 36.4608 63.9091 35.1551C64.4528 33.8494 64.9014 32.7724 65.4442 32.1513C65.4068 32.194 66.2631 31.7221 67.3056 31.2431C67.8268 31.0035 68.4106 30.7383 69.0028 30.1513C69.5951 29.5644 70.0871 28.3829 69.8954 27.3526C69.6429 25.9961 68.7573 24.875 67.7548 24.2237C66.7522 23.5725 65.6562 23.2679 64.5595 23.0793C62.3661 22.7021 60.065 22.8181 58.454 22.8567C55.1677 22.9353 51.6834 23.9679 49.0497 26.2452C47.8938 27.2447 47.3964 28.4428 46.9384 29.4795C46.6822 30.0594 46.4873 30.5728 46.3583 30.9307L41.9149 35.372L30.7645 24.2237C30.3895 23.8488 29.8808 23.6382 29.3505 23.6382C28.8201 23.6382 28.3115 23.8488 27.9364 24.2237L20.6513 31.501C20.4644 31.6868 20.3162 31.9078 20.215 32.1511C20.1139 32.3945 20.0618 32.6554 20.0618 32.9189C20.0618 33.1825 20.1139 33.4434 20.215 33.6867C20.3162 33.93 20.4644 34.151 20.6513 34.3369L31.8036 45.4812L22.2099 55.0708C21.8349 55.4459 21.6243 55.9545 21.6243 56.4849C21.6243 57.0152 21.8349 57.5238 22.2099 57.8989L29.3544 65.0374C29.7295 65.4123 30.2381 65.6229 30.7685 65.6229C31.2988 65.6229 31.8074 65.4123 32.1825 65.0374L41.7763 55.4458L52.9325 66.6019C53.139 66.8083 53.3881 66.9669 53.6624 67.0668C53.9367 67.1667 54.2296 67.2051 54.5204 67.1798ZM54.3427 62.3635L44.6044 52.6196L49.0555 48.1684L49.9598 49.0727L47.2626 51.7719C47.0761 51.9577 46.9281 52.1785 46.8272 52.4217C46.7262 52.6649 46.6743 52.9256 46.6743 53.1888C46.6743 53.4521 46.7262 53.7128 46.8272 53.956C46.9281 54.1991 47.0761 54.42 47.2626 54.6058C47.6377 54.9806 48.1463 55.1912 48.6766 55.1912C49.2069 55.1912 49.7156 54.9806 50.0907 54.6058L52.7919 51.9047L54.6766 53.7894L53.5536 54.9085C53.3671 55.0944 53.2192 55.3152 53.1182 55.5584C53.0173 55.8015 52.9653 56.0622 52.9653 56.3255C52.9653 56.5888 53.0173 56.8494 53.1182 57.0926C53.2192 57.3357 53.3671 57.5566 53.5536 57.7425C53.7395 57.929 53.9603 58.0769 54.2035 58.1778C54.4466 58.2788 54.7073 58.3307 54.9706 58.3307C55.2339 58.3307 55.4946 58.2788 55.7377 58.1778C55.9809 58.0769 56.2017 57.929 56.3876 57.7425L57.5067 56.6194L58.7938 57.9066L54.3427 62.3635ZM30.7645 60.7991L26.454 56.4808L36.0028 46.938C36.0186 46.9253 36.0343 46.9123 36.0497 46.8991C36.0636 46.883 36.0773 46.8668 36.0907 46.8503L48.0965 34.8525L52.409 39.163L30.7645 60.7991ZM34.6337 42.651L24.8954 32.9188L29.3466 28.4677L30.6395 29.7587L29.5165 30.8817C29.1423 31.2568 28.9321 31.7649 28.9321 32.2948C28.9321 32.8246 29.1423 33.3327 29.5165 33.7078C29.7028 33.8936 29.924 34.0408 30.1673 34.141C30.4106 34.2412 30.6713 34.2925 30.9345 34.2918C31.4632 34.2911 31.9702 34.0812 32.3446 33.7078L33.4677 32.5848L35.3563 34.4734L32.6552 37.1706C32.2809 37.5457 32.0708 38.0538 32.0708 38.5837C32.0708 39.1135 32.2809 39.6217 32.6552 39.9968C33.0302 40.371 33.5384 40.5812 34.0682 40.5812C34.5981 40.5812 35.1063 40.371 35.4813 39.9968L38.1864 37.3015L39.0868 38.1999L34.6337 42.651ZM55.9227 37.0163L50.4208 31.5145C50.4761 31.3795 50.5363 31.2397 50.6005 31.0946C50.9678 30.2632 51.6025 29.3247 51.663 29.2724C53.3885 27.7803 56.074 26.9175 58.5497 26.8584C60.2235 26.8183 62.3288 26.7537 63.8798 27.0205C64.6552 27.1539 65.268 27.3746 65.577 27.5752C65.6027 27.5903 65.5846 27.6054 65.6065 27.6183C64.8516 27.9603 63.5723 28.2125 62.4327 29.5166C61.2367 30.8852 60.7208 32.4044 60.2178 33.6122C59.7148 34.8202 59.2601 35.6659 58.6983 36.1142C58.6193 36.1773 57.5529 36.6444 56.6456 36.8602C56.3866 36.9218 56.1435 36.9732 55.9227 37.0163Z" fill="url(#paint1_linear_394_5282)"/>
</g>
<defs>
<linearGradient id="paint0_linear_394_5282" x1="76.8198" y1="76.8198" x2="13.1789" y2="13.1815" gradientUnits="userSpaceOnUse">
<stop stop-color="#67CF00"/>
<stop offset="0.5" stop-color="#00C249"/>
<stop offset="1" stop-color="#00B274"/>
</linearGradient>
<linearGradient id="paint1_linear_394_5282" x1="69.9375" y1="22.8093" x2="20.0628" y2="67.1885" gradientUnits="userSpaceOnUse">
<stop stop-color="#3E7A00"/>
<stop offset="0.5" stop-color="#008532"/>
<stop offset="1" stop-color="#008556"/>
</linearGradient>
<clipPath id="clip0_394_5282">
<rect width="90" height="90" fill="white" transform="matrix(0 -1 1 0 0 90)"/>
</clipPath>
</defs>
</svg>
