<svg width="91" height="92" viewBox="0 0 91 92" fill="none" xmlns="http://www.w3.org/2000/svg">
<g clip-path="url(#clip0_394_5465)">
<path fill-rule="evenodd" clip-rule="evenodd" d="M63.6608 54.3476C62.8727 54.3516 62.0915 54.2003 61.362 53.9023C60.6324 53.6044 59.9686 53.1656 59.4086 52.6111C58.8486 52.0565 58.4034 51.3971 58.0983 50.6705C57.7932 49.9439 57.6342 49.1643 57.6305 48.3762C57.5847 38.9145 58.5437 32.6146 60.5477 27.8286C62.5517 23.0426 66.058 20.0151 68.7778 18.4911C71.4977 16.967 72.8439 16.4246 73.2523 16.0098C73.6608 15.595 74.385 14.8218 74.5638 10.5304C74.6308 8.94183 75.3256 7.44479 76.4956 6.36813C77.6657 5.29147 79.2152 4.72325 80.8038 4.78827C81.5913 4.82096 82.3646 5.00848 83.0796 5.34012C83.7946 5.67176 84.4373 6.14102 84.9708 6.72109C85.5044 7.30116 85.9185 7.98067 86.1894 8.72081C86.4603 9.46094 86.5827 10.2472 86.5497 11.0347C86.3017 16.9854 84.6707 21.5174 81.7978 24.433C78.9249 27.3486 76.0687 28.1571 74.6412 28.9568C73.213 29.7552 72.6346 30.032 71.6142 32.4689C70.5939 34.9057 69.5841 39.7552 69.6256 48.3207C69.6327 49.9105 69.0085 51.4382 67.8901 52.5682C66.7716 53.6982 65.2506 54.3383 63.6608 54.3476Z" fill="#5C563E" stroke="#2E2B1F" stroke-width="6.99999" stroke-linecap="round" stroke-linejoin="round"/>
<path fill-rule="evenodd" clip-rule="evenodd" d="M10.442 4.5177C9.65394 4.51371 8.8728 4.66501 8.14321 4.96296C7.41361 5.26092 6.74987 5.69969 6.18988 6.25422C5.62989 6.80874 5.18463 7.46814 4.87953 8.19477C4.57443 8.92141 4.41547 9.70102 4.41172 10.4891C4.36591 19.9508 5.32494 26.2507 7.32897 31.0367C9.33295 35.8227 12.8392 38.8502 15.5591 40.3742C18.2789 41.8982 19.6251 42.4407 20.0336 42.8555C20.4421 43.2702 21.1662 44.0435 21.3451 48.3349C21.4121 49.9235 22.1069 51.4205 23.2769 52.4971C24.4469 53.5738 25.9964 54.142 27.5851 54.077C28.3726 54.0443 29.1459 53.8568 29.8609 53.5252C30.5759 53.1935 31.2185 52.7243 31.7521 52.1442C32.2857 51.5641 32.6997 50.8846 32.9706 50.1445C33.2416 49.4043 33.364 48.6181 33.3309 47.8306C33.0829 41.8798 31.4519 37.3479 28.579 34.4323C25.7062 31.5167 22.8499 30.7082 21.4224 29.9085C19.9942 29.1101 19.4158 28.8333 18.3955 26.3964C17.3751 23.9596 16.3654 19.11 16.4069 10.5446C16.414 8.95474 15.7897 7.42706 14.6713 6.29708C13.5529 5.16711 12.0319 4.52695 10.442 4.5177Z" fill="#5C563E" stroke="#2E2B1F" stroke-width="6.99999" stroke-linecap="round" stroke-linejoin="round"/>
<path fill-rule="evenodd" clip-rule="evenodd" d="M27.1115 6.28213C27.6382 5.69589 28.2752 5.21914 28.9861 4.87913C29.6971 4.53912 30.4681 4.3425 31.2551 4.30051C32.042 4.25852 32.8296 4.37197 33.5727 4.63439C34.3158 4.89681 34.9999 5.30306 35.586 5.82992C42.6231 12.1549 46.6436 17.099 48.8407 21.7994C51.0379 26.4999 50.9234 31.1309 50.2239 34.1692C49.5246 37.2075 49.0215 38.5688 49.0541 39.1501C49.0867 39.7313 49.1727 40.7873 52.2302 43.8038C53.3615 44.921 54.0031 46.4416 54.014 48.0316C54.0249 49.6215 53.4043 51.1508 52.2885 52.2835C51.735 52.8447 51.0765 53.2913 50.3504 53.5979C49.6243 53.9044 48.8449 54.0649 48.0568 54.0702C47.2686 54.0754 46.4872 53.9254 45.757 53.6286C45.0269 53.3318 44.3624 52.894 43.8015 52.3403C39.5617 48.1574 37.302 43.9038 37.0737 39.817C36.8455 35.7302 38.1664 33.0718 38.5336 31.4773C38.9022 29.8831 39.086 29.2689 37.9672 26.8755C36.8485 24.4823 33.9361 20.4753 27.5656 14.7495C26.3835 13.6863 25.6718 12.1974 25.5867 10.6098C25.5016 9.02216 26.0498 7.46563 27.1115 6.28213Z" fill="#5C563E" stroke="#2E2B1F" stroke-width="6.99999" stroke-linecap="round" stroke-linejoin="round"/>
<path fill-rule="evenodd" clip-rule="evenodd" d="M58.3844 4.41625C57.6216 4.21814 56.8273 4.17223 56.0467 4.28116C55.2662 4.39009 54.5148 4.65172 53.8354 5.0511C53.156 5.45048 52.562 5.9798 52.0872 6.60881C51.6124 7.23782 51.2662 7.9542 51.0683 8.71704C48.6917 17.8755 48.0683 24.2174 48.8308 29.3497C49.5933 34.482 52.2452 38.2804 54.5054 40.4277C56.7657 42.5752 57.9367 43.4327 58.2303 43.9353C58.524 44.438 59.0352 45.3659 58.1508 49.569C57.8241 51.125 58.1285 52.7472 58.997 54.079C59.8656 55.4108 61.2272 56.3434 62.7829 56.672C63.5541 56.8344 64.3498 56.8433 65.1245 56.6981C65.8992 56.5529 66.6376 56.2566 67.2977 55.8259C67.9578 55.3953 68.5266 54.8388 68.9716 54.1883C69.4166 53.5377 69.729 52.8059 69.8911 52.0346C71.1175 46.2063 70.6539 41.4121 68.5883 37.8783C66.5227 34.3446 63.9539 32.8571 62.7676 31.7302C61.5802 30.6043 61.0879 30.1936 60.6997 27.5804C60.3115 24.9672 60.5282 20.0184 62.6796 11.7275C63.0784 10.1884 62.85 8.55399 62.0446 7.1832C61.2392 5.81242 59.9229 4.8171 58.3844 4.41625Z" fill="#5C563E" stroke="#2E2B1F" stroke-width="6.99999" stroke-linecap="round" stroke-linejoin="round"/>
<path fill-rule="evenodd" clip-rule="evenodd" d="M63.6881 37.8497C62.9 37.8457 62.1189 37.997 61.3893 38.295C60.6597 38.593 59.996 39.0317 59.436 39.5862C58.876 40.1408 58.4307 40.8002 58.1256 41.5268C57.8205 42.2534 57.6616 43.0331 57.6578 43.8211C57.612 53.2829 58.571 59.5827 60.5751 64.3687C62.579 69.1547 66.0853 72.1822 68.8052 73.7062C71.525 75.2303 72.8712 75.7727 73.2797 76.1875C73.6882 76.6023 74.4123 77.3755 74.5912 81.6669C74.6582 83.2555 75.353 84.7525 76.523 85.8292C77.693 86.9058 79.2425 87.4741 80.8312 87.409C81.6187 87.3763 82.392 87.1888 83.107 86.8572C83.822 86.5255 84.4646 86.0563 84.9982 85.4762C85.5318 84.8961 85.9458 84.2166 86.2167 83.4765C86.4876 82.7364 86.6101 81.9501 86.577 81.1626C86.329 75.2119 84.698 70.6799 81.8251 67.7643C78.9523 64.8487 76.096 64.0402 74.6685 63.2405C73.2403 62.4421 72.6619 62.1654 71.6416 59.7284C70.6212 57.2916 69.6115 52.4421 69.653 43.8766C69.66 42.2868 69.0358 40.7591 67.9174 39.6291C66.799 38.4991 65.278 37.859 63.6881 37.8497Z" fill="#5C563E" stroke="#2E2B1F" stroke-width="6.99999" stroke-linecap="round" stroke-linejoin="round"/>
<path fill-rule="evenodd" clip-rule="evenodd" d="M9.80139 87.6796C9.01331 87.6836 8.23217 87.5323 7.50258 87.2343C6.77299 86.9364 6.10925 86.4976 5.54926 85.9431C4.98927 85.3886 4.54401 84.7292 4.23891 84.0025C3.93381 83.2759 3.77484 82.4963 3.7711 81.7082C3.72529 72.2465 4.68431 65.9466 6.68835 61.1606C8.69233 56.3746 12.1986 53.3471 14.9184 51.8231C17.6383 50.2991 18.9845 49.7566 19.393 49.3419C19.8015 48.9271 20.5256 48.1538 20.7045 43.8624C20.7715 42.2739 21.4663 40.7768 22.6363 39.7002C23.8063 38.6235 25.3558 38.0553 26.9445 38.1203C27.732 38.153 28.5053 38.3405 29.2203 38.6722C29.9352 39.0038 30.5779 39.4731 31.1115 40.0531C31.6451 40.6332 32.0591 41.3127 32.33 42.0528C32.6009 42.793 32.7234 43.5792 32.6903 44.3667C32.4423 50.3175 30.8113 54.8494 27.9384 57.7651C25.0655 60.6807 22.2093 61.4891 20.7818 62.2888C19.3536 63.0872 18.7752 63.364 17.7549 65.8009C16.7345 68.2377 15.7247 73.0873 15.7662 81.6527C15.7733 83.2426 15.1491 84.7703 14.0307 85.9002C12.9123 87.0302 11.3912 87.6704 9.80139 87.6796Z" fill="#5C563E" stroke="#2E2B1F" stroke-width="6.99999" stroke-linecap="round" stroke-linejoin="round"/>
<path d="M84.3716 61.0348C87.4713 58.1787 87.5889 53.4339 84.6342 50.4377C81.6796 47.4415 76.771 47.3278 73.6713 50.1839C70.5717 53.0399 70.4541 57.7847 73.4087 60.7809C76.3634 63.7771 81.272 63.8908 84.3716 61.0348Z" fill="#463527"/>
<path d="M32.1583 59.7663C33.7555 54.5304 30.6601 49.0342 25.2435 47.4903C19.827 45.9463 14.1417 48.9398 12.5445 54.1756C10.9473 59.4114 14.0427 64.9077 19.4592 66.4516C24.8758 67.9955 30.5611 65.0021 32.1583 59.7663Z" fill="#463527"/>
<path d="M50.9788 20.9196C54.976 17.0636 54.9825 10.8065 50.9933 6.9427C47.0042 3.07893 40.531 3.07266 36.5338 6.92869C32.5367 10.7847 32.5302 17.0419 36.5194 20.9056C40.5085 24.7694 46.9817 24.7757 50.9788 20.9196Z" fill="#463527"/>
<path d="M70.1657 37.956C72.7518 35.4612 72.756 31.4147 70.1751 28.9149C67.5942 26.4151 63.408 26.4111 60.8219 28.9059C58.2358 31.4007 58.2316 35.4471 60.8125 37.9469C63.3935 40.4467 67.5796 40.4508 70.1657 37.956Z" fill="#463527"/>
<path d="M61.3851 78.3337C65.3822 74.4777 65.3887 68.2205 61.3996 64.3568C57.4104 60.493 50.9373 60.4867 46.9401 64.3428C42.9429 68.1988 42.9365 74.4559 46.9256 78.3197C50.9148 82.1835 57.3879 82.1897 61.3851 78.3337Z" fill="#463527"/>
<path d="M47.0084 40.6959C49.6066 38.1895 49.6108 34.1241 47.0178 31.6127C44.4249 29.1012 40.2192 29.0972 37.6211 31.6036C35.0229 34.11 35.0187 38.1753 37.6117 40.6868C40.2046 43.1982 44.4103 43.2023 47.0084 40.6959Z" fill="#463527"/>
<path d="M70.8748 29.7223C73.473 27.2159 73.4772 23.1506 70.8842 20.6391C68.2913 18.1277 64.0825 18.1206 61.4843 20.627C58.8862 23.1334 58.8851 27.2018 61.478 29.7132C64.071 32.2247 68.2767 32.2288 70.8748 29.7223Z" fill="#463527"/>
<path d="M42.8639 32.2154C45.4621 29.709 45.4663 25.6437 42.8733 23.1322C40.2804 20.6208 36.0747 20.6167 33.4765 23.1231C30.8784 25.6295 30.8742 29.6949 33.4671 32.2063C36.0601 34.7178 40.2657 34.7218 42.8639 32.2154Z" fill="#463527"/>
<path d="M61.0614 63.526C63.003 61.7369 63.0767 58.7654 61.2259 56.8885C59.3751 55.0117 56.3009 54.9405 54.3593 56.7295C52.4177 58.5185 52.344 61.4901 54.1948 63.367C56.0456 65.2438 59.1198 65.315 61.0614 63.526Z" fill="#463527"/>
<path d="M82.7684 69.7799C84.71 67.9908 84.7837 65.0193 82.9329 63.1424C81.0821 61.2656 78.0079 61.1944 76.0663 62.9834C74.1247 64.7725 74.051 67.744 75.9018 69.6209C77.7526 71.4977 80.8268 71.5689 82.7684 69.7799Z" fill="#463527"/>
<path d="M59.7762 84.7877C61.7179 82.9987 61.7915 80.0271 59.9407 78.1502C58.0899 76.2734 55.0158 76.2022 53.0741 77.9912C51.1325 79.7803 51.0589 82.7519 52.9096 84.6287C54.7604 86.5055 57.8346 86.5767 59.7762 84.7877Z" fill="#463527"/>
<path d="M28.659 50.6783C30.6007 48.8893 30.6743 45.9177 28.8235 44.0409C26.9727 42.164 23.8986 42.0928 21.9569 43.8819C20.0153 45.6709 19.9417 48.6425 21.7925 50.5193C23.6432 52.3961 26.7174 52.4673 28.659 50.6783Z" fill="#463527"/>
<path d="M24.3505 44.2721C26.2921 42.483 26.3657 39.5114 24.5149 37.6346C22.6642 35.7578 19.59 35.6866 17.6483 37.4756C15.7067 39.2646 15.6331 42.2362 17.4839 44.1131C19.3346 45.9899 22.4088 46.0611 24.3505 44.2721Z" fill="#463527"/>
<path d="M20.2489 72.8697C22.1905 71.0807 22.2642 68.1091 20.4134 66.2323C18.5626 64.3554 15.4884 64.2843 13.5468 66.0733C11.6052 67.8623 11.5315 70.8339 13.3823 72.7107C15.2331 74.5876 18.3073 74.6587 20.2489 72.8697Z" fill="#463527"/>
<path d="M12.6083 57.4244C14.5499 55.6354 14.6235 52.6638 12.7727 50.787C10.922 48.9101 7.84779 48.8389 5.90616 50.628C3.96453 52.417 3.89089 55.3886 5.74168 57.2654C7.59246 59.1422 10.6666 59.2134 12.6083 57.4244Z" fill="#463527"/>
<path d="M33.409 28.7096C35.3507 26.9205 35.4243 23.9489 33.5735 22.0721C31.7227 20.1953 28.6486 20.1241 26.7069 21.9131C24.7653 23.7021 24.6917 26.6737 26.5425 28.5506C28.3932 30.4274 31.4674 30.4986 33.409 28.7096Z" fill="#463527"/>
<path d="M19.6858 37.6865C22.2769 37.0154 23.8144 34.4412 23.1201 31.9366C22.4259 29.4321 19.7628 27.9459 17.1718 28.6169C14.5808 29.288 13.0432 31.8622 13.7375 34.3668C14.4318 36.8713 17.0948 38.3576 19.6858 37.6865Z" fill="#463527"/>
<path d="M33.0382 7.81565C31.2399 11.2185 27.1965 15.6615 22.1681 19.6965C17.2561 23.6381 12.034 27.1903 9.26562 29.3086" stroke="#2D1F1F" stroke-width="3.52593" stroke-linejoin="round"/>
<path d="M60.9212 86.2731C75.7288 86.3452 87.1859 74.0758 84.5303 64.6707C70.9921 56.3659 55.3752 50.1963 46.7695 47.3328" fill="#654646"/>
<path d="M60.9212 86.2731C75.7288 86.3452 87.1859 74.0758 84.5303 64.6707C70.9921 56.3659 55.3752 50.1963 46.7695 47.3328" stroke="#2D1F1F" stroke-width="3.52593" stroke-linejoin="round"/>
<path d="M28.8867 84.4732C38.191 88.4607 52.2576 91.2151 61.2348 87.138C57.5709 71.7521 50.9181 55.276 46.8702 47.2038" fill="#654646"/>
<path d="M28.8867 84.4732C38.191 88.4607 52.2576 91.2151 61.2348 87.138C57.5709 71.7521 50.9181 55.276 46.8702 47.2038" stroke="#2D1F1F" stroke-width="3.52593" stroke-linejoin="round"/>
<path d="M65.1057 10.722C55.2793 0.859765 39.5937 0.473904 33.8031 7.60693C33.454 8.03693 33.1409 8.49424 32.8672 8.97843C36.5313 24.3643 43.1841 39.7013 47.2321 47.7734" fill="#654646"/>
<path d="M65.1057 10.722C55.2793 0.859765 39.5937 0.473904 33.8031 7.60693C33.454 8.03693 33.1409 8.49424 32.8672 8.97843C36.5313 24.3643 43.1841 39.7013 47.2321 47.7734" stroke="#2D1F1F" stroke-width="3.52593" stroke-linejoin="round"/>
<path d="M46.8867 47.4375C61.6758 43.5029 77.4121 37.8042 86.5084 33.0465C84.4963 25.3162 71.9558 18.789 65.107 10.7191" fill="#654646"/>
<path d="M46.8867 47.4375C61.6758 43.5029 77.4121 37.8042 86.5084 33.0465C84.4963 25.3162 71.9558 18.789 65.107 10.7191" stroke="#2D1F1F" stroke-width="3.52593" stroke-linejoin="round"/>
<path d="M84.9219 65.3242C88.2273 54.6718 89.9725 37.6478 86.3475 33.0676" stroke="#2D1F1F" stroke-width="3.52593" stroke-linejoin="round"/>
<path d="M9.6685 29.2713C-0.853582 39.6256 0.111869 56.8524 8.68166 61.6367C24.1635 57.9956 39.5963 51.3839 47.7187 47.3612" fill="#654646"/>
<path d="M9.6685 29.2713C-0.853582 39.6256 0.111869 56.8524 8.68166 61.6367C24.1635 57.9956 39.5963 51.3839 47.7187 47.3612" stroke="#2D1F1F" stroke-width="3.52593" stroke-linejoin="round"/>
<path d="M8.03157 61.0559C7.95892 75.7715 20.3048 87.4846 29.7687 84.8454C38.1253 71.3912 44.3335 55.8713 47.2147 47.3189" stroke="#2D1F1F" stroke-width="3.52593" stroke-linejoin="round"/>
<path d="M47.9102 47.2899C60.9952 54.8485 75.3438 62.141 85.0336 65.1484C88.2961 54.5686 90.0187 37.6604 86.4407 33.1115" fill="#654646"/>
<path d="M47.9102 47.2899C60.9952 54.8485 75.3438 62.141 85.0336 65.1484C88.2961 54.5686 90.0187 37.6604 86.4407 33.1115" stroke="#2D1F1F" stroke-width="3.49103" stroke-linejoin="round"/>
<path d="M47.9688 47.3247C51.8766 61.922 57.2115 77.0214 61.9368 85.9997C76.552 86.0712 87.8606 73.8856 85.2395 64.5443C71.877 56.2962 56.4628 50.1685 47.9688 47.3247Z" fill="#654646" stroke="#2D1F1F" stroke-width="3.49103" stroke-linejoin="round"/>
<path d="M62.0919 88.2422C58.4755 72.9611 51.7199 55.6543 47.7247 47.6372C40.1659 60.7224 33.7377 76.2828 30.7305 85.9728" fill="#8A4C70"/>
<path d="M62.0919 88.2422C58.4755 72.9611 51.7199 55.6543 47.7247 47.6372C40.1659 60.7224 33.7377 76.2828 30.7305 85.9728" stroke="#2F1D2F" stroke-width="3.49103" stroke-linejoin="round"/>
<path d="M9.13703 60.9118C9.06533 75.5272 21.251 87.1606 30.5921 84.5394C38.8402 71.1767 44.9679 55.7625 47.8117 47.2683" fill="#654646"/>
<path d="M9.13703 60.9118C9.06533 75.5272 21.251 87.1606 30.5921 84.5394C38.8402 71.1767 44.9679 55.7625 47.8117 47.2683" stroke="#2D1F1F" stroke-width="3.49103" stroke-linejoin="round"/>
<path d="M47.8289 47.5598C34.7437 40.0012 19.9623 32.6004 10.2724 29.593C-0.113239 39.8769 0.839682 56.9864 9.29825 61.7383C24.5794 58.1218 39.8117 51.5551 47.8289 47.5598Z" fill="#654646" stroke="#2D1F1F" stroke-width="3.49103" stroke-linejoin="round"/>
<path d="M10.168 30.3232C23.5304 38.5714 38.9446 44.699 47.4387 47.543C43.5308 32.9455 38.6288 17.6297 33.9035 8.65143" fill="#654646"/>
<path d="M10.168 30.3232C23.5304 38.5714 38.9446 44.699 47.4387 47.543C43.5308 32.9455 38.6288 17.6297 33.9035 8.65143" stroke="#2D1F1F" stroke-width="3.49103" stroke-linejoin="round"/>
<path d="M47.5769 47.2344C55.1354 34.1491 62.2114 20.1252 65.2186 10.4352C54.935 0.0494115 38.1503 0.244854 33.3984 8.70347C37.0149 23.9846 43.5815 39.2172 47.5769 47.2344Z" fill="#654646" stroke="#2D1F1F" stroke-width="3.49103" stroke-linejoin="round"/>
<path d="M64.7079 10.1156C56.4597 23.4782 50.3321 38.8925 47.4883 47.3867C62.0854 43.4789 77.6175 37.819 86.5958 33.0937" fill="#654646"/>
<path d="M64.7079 10.1156C56.4597 23.4782 50.3321 38.8925 47.4883 47.3867C62.0854 43.4789 77.6175 37.819 86.5958 33.0937" stroke="#2D1F1F" stroke-width="3.49103" stroke-linejoin="round"/>
<path d="M85.5567 62.2932C88.6671 59.3347 88.7851 54.4197 85.8203 51.316C82.8554 48.2123 77.9299 48.0945 74.8196 51.053C71.7092 54.0115 71.5913 58.9265 74.5561 62.0302C77.5209 65.1339 82.4464 65.2517 85.5567 62.2932Z" fill="#463527"/>
<path d="M33.1655 60.9783C34.7683 55.5546 31.6622 49.8612 26.227 48.2619C20.7917 46.6626 15.0869 49.7634 13.4841 55.1871C11.8814 60.6107 14.9875 66.3041 20.4227 67.9034C25.858 69.5027 31.5628 66.4019 33.1655 60.9783Z" fill="#463527"/>
<path d="M52.0535 20.7375C56.0645 16.7431 56.071 10.2615 52.0681 6.25916C48.0652 2.25678 41.5697 2.25029 37.5588 6.24465C33.5479 10.239 33.5413 16.7206 37.5442 20.723C41.5472 24.7254 48.0426 24.7319 52.0535 20.7375Z" fill="#463527"/>
<path d="M71.3039 38.3882C73.8989 35.8039 73.9031 31.6123 71.3133 29.0228C68.7235 26.4333 64.5229 26.4291 61.9279 29.0134C59.3329 31.5977 59.3287 35.7893 61.9185 38.3788C64.5083 40.9683 68.7089 40.9725 71.3039 38.3882Z" fill="#463527"/>
<path d="M62.491 80.2141C66.502 76.2197 66.5085 69.7381 62.5056 65.7357C58.5027 61.7333 52.0072 61.7269 47.9963 65.7212C43.9854 69.7156 43.9788 76.1972 47.9817 80.1995C51.9847 84.2019 58.4801 84.2084 62.491 80.2141Z" fill="#463527"/>
<path d="M48.0648 41.2226C50.6719 38.6262 50.6761 34.4151 48.0743 31.8135C45.4724 29.212 41.2522 29.2078 38.6451 31.8041C36.038 34.4004 36.0338 38.6116 38.6356 41.2131C41.2375 43.8147 45.4577 43.8189 48.0648 41.2226Z" fill="#463527"/>
<path d="M72.0171 29.8546C74.6242 27.2583 74.6285 23.0471 72.0266 20.4456C69.4247 17.844 65.2014 17.8367 62.5943 20.433C59.9872 23.0293 59.9861 27.2436 62.588 29.8452C65.1899 32.4467 69.41 32.4509 72.0171 29.8546Z" fill="#463527"/>
<path d="M43.9007 32.4413C46.5078 29.845 46.5121 25.6338 43.9102 23.0323C41.3083 20.4307 37.0881 20.4265 34.481 23.0228C31.8739 25.6192 31.8697 29.8303 34.4716 32.4319C37.0735 35.0334 41.2936 35.0377 43.9007 32.4413Z" fill="#463527"/>
<path d="M62.163 64.8762C64.1113 63.023 64.1852 59.9448 62.3281 58.0007C60.4709 56.0565 57.3861 55.9828 55.4378 57.836C53.4895 59.6892 53.4156 62.7674 55.2728 64.7115C57.1299 66.6557 60.2147 66.7294 62.163 64.8762Z" fill="#463527"/>
<path d="M83.9482 71.3489C85.8965 69.4957 85.9704 66.4175 84.1132 64.4733C82.2561 62.5292 79.1713 62.4554 77.223 64.3086C75.2746 66.1618 75.2008 69.24 77.0579 71.1842C78.9151 73.1283 81.9998 73.2021 83.9482 71.3489Z" fill="#463527"/>
<path d="M60.8779 86.8997C62.8262 85.0465 62.9001 81.9683 61.0429 80.0241C59.1857 78.08 56.101 78.0062 54.1527 79.8594C52.2043 81.7126 52.1304 84.7908 53.9876 86.735C55.8448 88.6791 58.9295 88.7529 60.8779 86.8997Z" fill="#463527"/>
<path d="M29.6513 51.5637C31.5996 49.7105 31.6735 46.6323 29.8163 44.6882C27.9592 42.744 24.8744 42.6703 22.9261 44.5235C20.9778 46.3767 20.9039 49.4549 22.761 51.399C24.6182 53.3432 27.703 53.4169 29.6513 51.5637Z" fill="#463527"/>
<path d="M25.3271 44.927C27.2754 43.0738 27.3493 39.9956 25.4921 38.0515C23.635 36.1073 20.5502 36.0336 18.6019 37.8868C16.6535 39.74 16.5797 42.8181 18.4368 44.7623C20.294 46.7065 23.3788 46.7802 25.3271 44.927Z" fill="#463527"/>
<path d="M21.2138 74.552C23.1621 72.6988 23.236 69.6206 21.3788 67.6765C19.5217 65.7323 16.4369 65.6586 14.4886 67.5118C12.5403 69.365 12.4664 72.4431 14.3235 74.3873C16.1807 76.3315 19.2655 76.4052 21.2138 74.552Z" fill="#463527"/>
<path d="M13.5458 58.552C15.4941 56.6988 15.568 53.6206 13.7109 51.6765C11.8537 49.7323 8.76894 49.6586 6.82062 51.5118C4.8723 53.365 4.79841 56.4431 6.65557 58.3873C8.51273 60.3315 11.5975 60.4052 13.5458 58.552Z" fill="#463527"/>
<path d="M34.4169 28.8098C36.3652 26.9566 36.4391 23.8784 34.582 21.9343C32.7248 19.9901 29.64 19.9164 27.6917 21.7696C25.7434 23.6228 25.6695 26.701 27.5267 28.6451C29.3838 30.5893 32.4686 30.663 34.4169 28.8098Z" fill="#463527"/>
<path d="M20.6482 38.1089C23.2481 37.4137 24.7909 34.7471 24.0943 32.1527C23.3976 29.5584 20.7254 28.0188 18.1254 28.714C15.5255 29.4091 13.9827 32.0757 14.6793 34.6701C15.376 37.2645 18.0482 38.804 20.6482 38.1089Z" fill="#463527"/>
<path d="M33.8195 8.03228C32.0445 11.412 28.0537 15.8247 23.0905 19.8323C18.2422 23.747 13.0879 27.275 10.3555 29.3789" stroke="#2D1F1F" stroke-width="3.49103" stroke-linejoin="round"/>
<path d="M61.343 85.9567C75.9585 86.0283 87.2669 73.8424 84.6457 64.5013C71.2832 56.2531 55.869 50.1255 47.375 47.2815" stroke="#2D1F1F" stroke-width="3.49103" stroke-linejoin="round"/>
<path d="M29.7227 84.1691C38.9062 88.1294 52.7902 90.8651 61.651 86.8157C58.0346 71.5346 51.4681 55.1706 47.4727 47.1534" fill="#654646"/>
<path d="M29.7227 84.1691C38.9062 88.1294 52.7902 90.8651 61.651 86.8157C58.0346 71.5346 51.4681 55.1706 47.4727 47.1534" stroke="#2D1F1F" stroke-width="3.49103" stroke-linejoin="round"/>
<path d="M65.4725 10.9156C55.7736 1.12055 40.2916 0.73732 34.5761 7.82179C34.2315 8.24886 33.9225 8.70305 33.6523 9.18394C37.2689 24.4651 43.8354 39.6976 47.8308 47.7148" stroke="#2D1F1F" stroke-width="3.49103" stroke-linejoin="round"/>
<path d="M47.4883 47.3867C62.0854 43.4789 77.6175 37.819 86.5958 33.0937C84.6098 25.416 72.232 18.9332 65.4721 10.9183" stroke="#2D1F1F" stroke-width="3.49103" stroke-linejoin="round"/>
<path d="M85.0312 65.1484C88.2938 54.5686 90.0163 37.6604 86.4384 33.1115" stroke="#2D1F1F" stroke-width="3.49103" stroke-linejoin="round"/>
<path d="M10.7567 29.3432C0.371154 39.627 1.32408 56.7366 9.78265 61.4883C25.0636 57.8719 40.2961 51.3053 48.3131 47.31" stroke="#2D1F1F" stroke-width="3.49103" stroke-linejoin="round"/>
<path d="M9.13703 60.9118C9.06533 75.5272 21.251 87.1606 30.5921 84.5394C38.8402 71.1767 44.9679 55.7625 47.8117 47.2683" stroke="#2D1F1F" stroke-width="3.49103" stroke-linejoin="round"/>
<path d="M47.0302 82.8645C48.9785 81.0113 49.0524 77.9331 47.1952 75.989C45.3381 74.0448 42.2533 73.9711 40.305 75.8243C38.3567 77.6775 38.2828 80.7556 40.1399 82.6998C41.9971 84.644 45.0819 84.7177 47.0302 82.8645Z" fill="#463527"/>
<path d="M53.3234 80.4545C55.2718 78.6013 55.3457 75.5229 53.4885 73.5787C51.6313 71.6346 48.5464 71.5608 46.5981 73.414C44.6497 75.2672 44.5758 78.3456 46.433 80.2897C48.2902 82.2339 51.3751 82.3077 53.3234 80.4545Z" fill="#463527"/>
<path d="M50.6711 76.2045C52.6194 74.3513 52.6933 71.2729 50.8362 69.3287C48.979 67.3846 45.894 67.3108 43.9457 69.164C41.9974 71.0172 41.9235 74.0956 43.7807 76.0397C45.6378 77.9839 48.7228 78.0577 50.6711 76.2045Z" fill="#463527"/>
</g>
<defs>
<clipPath id="clip0_394_5465">
<rect width="90.4335" height="89.9233" fill="white" transform="matrix(0 -1 1 0 0.253906 91.1797)"/>
</clipPath>
</defs>
</svg>
