<svg width="90" height="90" viewBox="0 0 90 90" fill="none" xmlns="http://www.w3.org/2000/svg">
<g clip-path="url(#clip0_394_5678)">
<mask id="mask0_394_5678" style="mask-type:luminance" maskUnits="userSpaceOnUse" x="0" y="0" width="90" height="90">
<path d="M0 0L0 90H90V0H0Z" fill="white"/>
</mask>
<g mask="url(#mask0_394_5678)">
<path d="M90 45C90 20.1472 69.8528 0 45 0C20.1472 0 0 20.1472 0 45C0 69.8528 20.1472 90 45 90C69.8528 90 90 69.8528 90 45Z" fill="black"/>
<path d="M2.40095 77.1352C2.40095 72.4017 4.50472 68.7201 7.66039 65.0385C8.71227 63.9866 9.76416 62.9347 10.816 61.8828C12.3939 60.305 12.3939 58.7272 12.3939 56.6234C11.8679 52.9418 10.816 49.7861 10.816 46.1045C10.816 45.0526 10.816 44.0007 11.342 42.9488C12.3939 40.3191 11.8679 38.2154 10.816 35.5856C8.71227 31.904 6.6085 27.6965 5.03067 24.0149C3.45283 20.3333 1.875 16.6517 1.875 12.4441C1.875 8.23654 3.97878 5.60684 7.13444 3.50304C8.71227 2.45124 10.2901 2.97714 11.8679 3.50304C16.6014 4.55494 19.7571 7.18473 21.8609 11.3922C22.9128 13.496 23.9646 15.0738 25.0165 17.1776C26.0684 20.3333 28.6981 21.9111 31.8538 22.437C41.3208 24.0149 50.2618 25.5927 59.2029 28.2224C66.0402 30.3262 72.3515 32.9559 77.6109 37.1635C82.3444 41.371 85.5001 46.1045 85.5001 52.4158C85.5001 55.5715 83.3963 57.6753 81.8185 59.7791C78.1369 63.9866 73.4034 65.5644 68.6699 66.6163C66.0402 67.1423 63.4104 67.6682 60.7807 67.6682C50.7878 66.6163 42.3727 68.1942 33.9576 70.2979C31.8538 70.8239 29.2241 71.8758 27.1203 72.4017C24.4906 72.4017 22.3868 74.5055 20.809 76.0833C19.2312 78.1871 17.6533 80.2909 15.5495 81.8687C12.3939 84.4985 8.71227 85.0244 5.03067 82.9206C2.92689 81.8687 2.40095 80.2909 2.40095 77.1352Z" fill="#FEFEFE"/>
<path d="M74.4552 58.7305C69.1958 58.7305 65.5142 56.6267 63.9363 52.4191C62.3585 48.2116 64.4623 43.4781 68.1439 41.3743C71.8255 39.2705 76.0331 40.8484 79.1887 44.53C80.7666 46.6338 81.8184 48.7375 81.8184 51.3672C82.3444 55.0489 80.2406 58.7305 74.4552 58.7305Z" fill="black"/>
<path d="M38.6919 42.9492C35.5363 42.4232 32.3806 41.3713 30.2768 38.2157C28.699 36.1119 29.225 34.0081 31.3287 32.4303C35.0103 29.8006 39.2179 28.7487 43.4254 30.8524C45.5292 31.9043 46.5811 33.4822 46.0552 35.5859C46.0552 36.6378 45.5292 37.6897 45.5292 39.2676C44.4773 41.3713 42.3736 42.9492 38.6919 42.9492Z" fill="black"/>
<path d="M42.8984 59.7812C42.8984 63.4628 39.7427 65.0406 36.587 64.5147C35.5352 64.5147 35.0092 63.9887 33.9573 63.9887C30.8017 62.9368 30.2757 59.2552 32.3795 56.6255C34.4833 53.9958 39.2168 53.9958 41.3205 56.6255C42.8984 57.6774 43.4243 58.7293 42.8984 59.7812Z" fill="black"/>
<path d="M19.7579 29.2766C19.7579 29.8025 19.7579 29.8025 19.232 29.8025C18.1801 29.8025 18.1801 30.8544 18.1801 31.3804C18.1801 31.9063 17.6541 31.9062 17.1282 31.9062C16.6022 31.9062 16.6022 31.3804 16.6022 30.8544C16.6022 30.3285 16.6022 29.2766 15.5504 29.2766C14.4985 29.2766 13.9725 29.8024 13.9725 30.3284C13.9725 30.8543 13.4466 31.3804 12.9206 30.8544C12.3947 30.8544 12.3947 30.3285 12.3947 29.8025C12.3947 28.7506 12.3947 27.6987 11.3428 26.6469C10.8169 26.1209 11.3428 25.595 11.8687 25.069C12.3947 24.5431 12.3947 25.069 12.9206 25.069C13.9725 25.069 13.9725 26.6469 15.0244 27.1728C16.0763 27.6987 17.1282 27.6987 18.706 27.6987C19.232 28.2247 19.7579 28.2247 19.7579 29.2766Z" fill="#040404"/>
</g>
</g>
<defs>
<clipPath id="clip0_394_5678">
<rect width="90" height="90" fill="white" transform="matrix(0 -1 1 0 0 90)"/>
</clipPath>
</defs>
</svg>
