<svg width="90" height="90" viewBox="0 0 90 90" fill="none" xmlns="http://www.w3.org/2000/svg">
<g clip-path="url(#clip0_394_5691)">
<mask id="mask0_394_5691" style="mask-type:luminance" maskUnits="userSpaceOnUse" x="0" y="0" width="90" height="90">
<path d="M0 0L0 90H90V0H0Z" fill="white"/>
</mask>
<g mask="url(#mask0_394_5691)">
<path d="M45.0015 0.641891C69.4972 0.633791 89.3581 20.4967 89.3581 45.0008C89.3581 69.5027 69.4972 89.3636 45.0015 89.3555C20.5058 89.3644 0.644531 69.5028 0.644531 45.0008C0.645341 20.4966 20.5058 0.633791 45.0015 0.641891Z" fill="#3F7F00" stroke="black" stroke-width="1.28644" stroke-linecap="round" stroke-linejoin="round"/>
<path fill-rule="evenodd" clip-rule="evenodd" d="M57.5427 55.5C63.0881 53.1031 64.7582 51.9866 67.9314 52.0577C69.3757 52.0887 65.5685 49.2155 63.6664 49.0175C66.4159 49.1629 67.1644 48.6464 70.0097 48.3402C72.852 48.0371 77.785 47.0289 76.6778 46.7381C74.3829 46.1289 69.6201 45.8443 68.1479 44.1773C70.9933 43.4227 75.7654 39.5629 73.9438 40.2C69.5242 41.7464 67.4025 42.3155 64.65 40.9608C67.5943 38.5361 68.8097 37.1505 67.1644 37.6175C64.3871 38.4031 60.5737 37.2835 58.9654 35.2485C56.9211 32.6629 57.4345 55.5 57.5427 55.5Z" fill="#6C5D53" stroke="black" stroke-width="1.23711" stroke-linejoin="round"/>
<path d="M53.1563 40.2705C54.3842 40.9787 54.9625 42.2808 54.4429 43.1777C53.9265 44.0715 52.5099 44.223 51.2821 43.5148C50.0543 42.8066 49.4759 41.5045 49.9955 40.6076C50.512 39.7107 51.9285 39.5622 53.1563 40.2705Z" fill="black"/>
<path d="M53.1563 50.3966C54.3842 49.6884 54.9625 48.3863 54.4429 47.4894C53.9265 46.5956 52.5099 46.4441 51.2821 47.1523C50.0543 47.8606 49.4759 49.1626 49.9955 50.0595C50.512 50.9564 51.9285 51.1049 53.1563 50.3966Z" fill="black"/>
<path d="M64.9975 31.1688C63.7697 35.9998 70.3944 31.5771 72.7913 32.3193C70.8212 35.2482 77.3471 34.1317 79.1595 35.4554C78.9739 37.9668 82.4378 38.3596 83.4523 40.1101C81.8471 42.2255 85.0264 43.7843 85.0264 45.8039C85.0264 47.8235 81.9708 49.0204 83.4523 51.5008C82.4378 53.2513 79.1007 53.6428 79.1595 56.153C77.3471 57.4776 70.447 57.2732 72.7913 59.2906C70.3944 60.0316 63.2717 56.6119 64.9975 60.4414C62.2326 60.4414 57.1048 56.3846 57.2038 59.2906C54.81 58.5496 53.0254 54.8333 50.8389 56.153C47.211 53.5037 44.9688 49.8431 44.9688 45.8039C44.9688 41.7647 47.211 38.1059 50.8389 35.4554C52.1502 37.4132 54.81 33.0585 57.2038 32.3193C56.9811 35.5884 62.2326 31.1688 64.9975 31.1688Z" fill="#F4C244" stroke="black" stroke-width="1.36447" stroke-linecap="round" stroke-linejoin="round"/>
<path fill-rule="evenodd" clip-rule="evenodd" d="M37.9789 71.4926C41.9314 61.5245 59.4799 74.4276 74.7923 63.6555C77.6222 61.6668 75.2685 75.6462 59.585 80.5884C44.3314 85.3977 35.0253 80.8235 37.9789 71.4926Z" fill="#3F7F00" stroke="black" stroke-width="1.54639"/>
<path fill-rule="evenodd" clip-rule="evenodd" d="M36.0836 69.584C34.9424 72.8964 37.9609 76.317 39.5908 76.9727C38.7372 73.6294 38.496 72.0922 39.2506 71.2263C40.0857 71.6005 40.9176 75.5345 46.395 76.7531C44.2609 73.6788 41.7991 71.2355 42.8104 70.2551C44.0568 70.9665 46.398 71.7892 48.7176 71.2355C46.3857 69.4696 43.9238 67.6634 43.8589 66.0026" fill="#3F7F00"/>
<path d="M36.0836 69.584C34.9424 72.8964 37.9609 76.317 39.5908 76.9727C38.7372 73.6294 38.496 72.0922 39.2506 71.2263C40.0857 71.6005 40.9176 75.5345 46.395 76.7531C44.2609 73.6788 41.7991 71.2355 42.8104 70.2551C44.0568 70.9665 46.398 71.7892 48.7176 71.2355C46.3857 69.4696 43.9238 67.6634 43.8589 66.0026" stroke="black" stroke-width="1.54639" stroke-linecap="round" stroke-linejoin="round"/>
<path fill-rule="evenodd" clip-rule="evenodd" d="M37.2492 18.201C41.2605 28.1691 59.0811 15.266 74.6317 26.0382C77.5049 28.0268 75.1172 14.0474 59.1894 9.1052C43.7007 4.2959 34.2492 8.8701 37.2492 18.201Z" fill="#3F7F00" stroke="black" stroke-width="1.54639"/>
<path fill-rule="evenodd" clip-rule="evenodd" d="M36.0836 20.1919C34.9424 16.8796 37.9609 13.459 39.5908 12.8033C38.7372 16.1466 38.496 17.6837 39.2506 18.5497C40.0857 18.1755 40.9176 14.2414 46.395 13.0229C44.2609 16.0971 41.7991 18.5404 42.8104 19.5208C44.0568 18.8095 46.398 17.9868 48.7176 18.5404C46.3857 20.3064 43.9238 22.1126 43.8589 23.7734" fill="#3F7F00"/>
<path d="M36.0836 20.1919C34.9424 16.8796 37.9609 13.459 39.5908 12.8033C38.7372 16.1466 38.496 17.6837 39.2506 18.5497C40.0857 18.1755 40.9176 14.2414 46.395 13.0229C44.2609 16.0971 41.7991 18.5404 42.8104 19.5208C44.0568 18.8095 46.398 17.9868 48.7176 18.5404C46.3857 20.3064 43.9238 22.1126 43.8589 23.7734" stroke="black" stroke-width="1.54639" stroke-linecap="round" stroke-linejoin="round"/>
<path d="M11.5689 46.2263C11.7575 55.5442 15.1729 61.9778 20.4606 65.9038C19.6602 73.3463 27.7673 79.5312 27.7673 79.5312C27.7673 79.5312 30.69 73.689 28.2408 69.6152C30.9343 70.3574 33.8416 70.7169 36.8725 70.7169C43.856 70.7169 50.1869 66.3774 54.7673 61.0436C57.0591 58.3767 65.7158 56.0023 66.9993 53.1792C68.2797 50.3552 71.1529 48.0109 71.1529 46.0223C71.1529 43.9563 67.9704 40.8017 66.69 38.1171C65.4065 35.4357 57.0591 32.2964 54.7673 29.649C50.1838 24.3541 43.856 20.0924 36.8725 20.0924C33.8416 20.0924 30.9343 20.451 28.2408 21.1933C30.69 17.1201 27.7673 11.2872 27.7673 11.2872C27.7673 11.2872 19.6627 17.4635 20.4606 24.9048C15.0189 28.9439 11.5689 35.6397 11.5689 45.4036C11.5689 45.682 11.5633 45.9541 11.5689 46.2263Z" fill="#3F7F00" stroke="black" stroke-width="1.23711" stroke-linecap="round" stroke-linejoin="round"/>
<path d="M33.1676 46.5241C37.0389 46.5234 40.1782 49.6619 40.1782 53.5339C40.1782 57.4052 37.0389 60.5437 33.1676 60.543C29.2956 60.5437 26.1562 57.4052 26.1562 53.5339C26.1562 49.6619 29.2956 46.5234 33.1676 46.5241Z" fill="white" stroke="black" stroke-width="1.23713" stroke-linecap="round" stroke-linejoin="round"/>
<path d="M33.1676 30.2155C37.0389 30.2148 40.1782 33.3533 40.1782 37.2253C40.1782 41.0966 37.0389 44.2352 33.1676 44.2344C29.2956 44.2352 26.1562 41.0966 26.1562 37.2253C26.1562 33.3533 29.2956 30.2148 33.1676 30.2155Z" fill="white" stroke="black" stroke-width="1.23713" stroke-linecap="round" stroke-linejoin="round"/>
<path d="M34.4035 36.4484C35.6939 36.4479 36.7404 37.4941 36.7404 38.7848C36.7404 40.0752 35.6939 41.1214 34.4035 41.1211C33.1128 41.1214 32.0664 40.0752 32.0664 38.7848C32.0664 37.4941 33.1128 36.4479 34.4035 36.4484Z" fill="black"/>
<path d="M34.4035 49.4445C35.6939 49.444 36.7404 50.4902 36.7404 51.7809C36.7404 53.0713 35.6939 54.1174 34.4035 54.1172C33.1128 54.1174 32.0664 53.0713 32.0664 51.7809C32.0664 50.4902 33.1128 49.444 34.4035 49.4445Z" fill="black"/>
<path fill-rule="evenodd" clip-rule="evenodd" d="M15.0389 38.757C11.8255 39.3724 3.77496 34.8662 0.774963 25.5508C-1.28792 19.1456 1.15538 8.23737 13.5265 7.20437C6.40074 11.3735 4.6997 18.7652 6.39764 22.2662C9.8028 29.2992 17.0585 26.126 18.9698 29.4941C20.7512 32.6271 18.3698 38.1168 15.0389 38.757Z" fill="#6C5D53" stroke="black" stroke-width="1.23711" stroke-linejoin="round"/>
<path d="M28.582 21.1072L29.4035 21.6887C30.3545 21.6114 31.3207 21.5804 32.3042 21.5804C39.2877 21.5804 45.6155 25.8423 50.199 31.1371C52.4877 33.7877 60.5289 36.3825 61.8094 39.1444C63.0929 41.9031 65.3475 43.9011 65.3475 45.967C65.3475 47.566 63.3403 49.8578 62.4959 52.0011C61.6485 54.1456 54.2258 57.0704 52.6733 59.3214C49.565 63.8235 45.1918 68.1036 40.1135 70.418C46.3362 69.2402 51.6217 64.7424 55.3547 59.6226C57.2197 57.0627 65.499 56.5898 66.5104 53.515C67.5186 50.4392 70.5372 48.166 70.5372 46.332C70.5372 44.266 68.3413 39.1196 67.1475 36.9299C65.9506 34.7402 56.4805 32.1052 54.3063 29.4949C49.9547 24.2773 43.8588 20.0928 36.8753 20.0928C33.9712 20.0928 31.1815 20.4237 28.582 21.1072Z" fill="black" fill-opacity="0.31373"/>
<path d="M61.1993 40.8877C62.4271 41.5959 63.0055 42.898 62.4859 43.7949C61.9694 44.6887 60.5529 44.8402 59.3251 44.132C58.0972 43.4237 57.5189 42.1217 58.0385 41.2248C58.555 40.331 59.9715 40.1794 61.1993 40.8877Z" fill="black"/>
<path d="M60.8907 50.7062C62.1186 49.998 62.6969 48.6959 62.1773 47.799C61.6608 46.9052 60.2443 46.7536 59.0165 47.4619C57.7887 48.1701 57.2103 49.4722 57.7299 50.3691C58.2464 51.2629 59.6629 51.4145 60.8907 50.7062Z" fill="black"/>
<path fill-rule="evenodd" clip-rule="evenodd" d="M15.0389 51.1779C11.8255 50.5593 3.77496 55.0686 0.774963 64.381C-1.28792 70.7892 1.15538 81.6944 13.5265 82.7305C6.40074 78.5614 4.6997 71.1696 6.39764 67.6655C9.8028 60.6356 17.0585 63.8057 18.9698 60.4408C20.7512 57.3078 18.3698 51.815 15.0389 51.1779Z" fill="#6C5D53" stroke="black" stroke-width="1.23711" stroke-linejoin="round"/>
</g>
</g>
<defs>
<clipPath id="clip0_394_5691">
<rect width="90" height="90" fill="white" transform="matrix(0 -1 1 0 0 90)"/>
</clipPath>
</defs>
</svg>
