<svg width="90" height="90" viewBox="0 0 90 90" fill="none" xmlns="http://www.w3.org/2000/svg">
<g clip-path="url(#clip0_394_5719)">
<path d="M90.0039 45.0078C90.0039 69.8606 69.8567 90.0078 45.0039 90.0078C20.1511 90.0078 0.00390625 69.8606 0.00390625 45.0078C0.00390625 20.155 20.1511 0.0078125 45.0039 0.0078125C69.8567 0.0078125 90.0039 20.155 90.0039 45.0078Z" fill="url(#paint0_linear_394_5719)"/>
<path d="M60.0363 86.9201L53.2238 76.2016L44.63 70.2011L34.2239 79.4829L29.9114 87.1093L29.2227 87.1471C39.5634 91.0215 50.9678 90.9585 61.265 86.9699" fill="url(#paint1_linear_394_5719)"/>
<path d="M26.5781 60.6405L36.3771 77.6133L43.6714 70.3181L48.6753 71.6598L54.5665 77.5505L64.5078 60.3323L55.2237 46.8253L45.7768 37.5813L35.4156 46.3178L26.5781 60.6405Z" fill="url(#paint2_linear_394_5719)"/>
</g>
<defs>
<linearGradient id="paint0_linear_394_5719" x1="45.0039" y1="0.0076273" x2="45.0039" y2="90.0076" gradientUnits="userSpaceOnUse">
<stop stop-color="#3986AC"/>
<stop offset="1" stop-color="#193B4D"/>
</linearGradient>
<linearGradient id="paint1_linear_394_5719" x1="45.2438" y1="90.0077" x2="45.2438" y2="70.2007" gradientUnits="userSpaceOnUse">
<stop stop-color="#666666"/>
<stop offset="1" stop-color="#CCCCCC"/>
</linearGradient>
<linearGradient id="paint2_linear_394_5719" x1="45.5429" y1="77.613" x2="45.5429" y2="37.5818" gradientUnits="userSpaceOnUse">
<stop stop-color="#666666"/>
<stop offset="1" stop-color="#CCCCCC"/>
</linearGradient>
<clipPath id="clip0_394_5719">
<rect width="90.0006" height="90.0061" fill="white" transform="matrix(0 -1 1 0 -0.00390625 90.0039)"/>
</clipPath>
</defs>
</svg>
