<svg width="90" height="90" viewBox="0 0 90 90" fill="none" xmlns="http://www.w3.org/2000/svg">
<g clip-path="url(#clip0_394_5730)">
<mask id="mask0_394_5730" style="mask-type:luminance" maskUnits="userSpaceOnUse" x="0" y="0" width="90" height="90">
<path d="M0 0L0 90H90V0H0Z" fill="white"/>
</mask>
<g mask="url(#mask0_394_5730)">
<path d="M45.4049 0.642822C69.6706 0.635622 89.3563 20.4911 89.3563 45.0011C89.3563 69.5099 69.6709 89.3675 45.4049 89.3594C21.1393 89.3671 1.45313 69.5111 1.45313 45.0011C1.45313 20.4923 21.1389 0.634822 45.4049 0.642822Z" fill="#939DAC" stroke="#010101" stroke-width="1.2835" stroke-linecap="round" stroke-linejoin="round"/>
<path d="M0.00105804 43.5627C0.00105804 48.4032 0.961908 53.0162 2.69733 57.2221C2.61985 57.2015 2.54611 57.1787 2.4684 57.1579C7.72461 76.1114 24.9531 90.0066 45.4053 90C51.5617 90.002 57.4309 88.7459 62.7656 86.4696C61.3718 83.1351 57.0686 77.2408 53.2023 72.3489C62.9199 66.0199 72.2296 47.513 72.2296 44.9052C72.2296 42.2973 61.7962 24.2456 52.8958 17.7934C54.8633 15.2006 59.4694 9.5764 60.7946 7.3507C73.0184 17.314 80.8386 32.5587 80.8386 49.6517C80.8386 62.1103 76.6829 73.5817 69.6974 82.7477C81.9191 74.7229 89.9957 60.8199 89.9957 45.0046C89.9957 26.3621 78.7687 10.3677 62.766 3.5375C62.6853 3.5031 62.6053 3.4688 62.5244 3.4348C62.512 3.4296 62.4986 3.4272 62.4862 3.422C62.2453 3.3212 62.0044 3.2235 61.7613 3.1268C61.6853 3.0965 61.6086 3.0667 61.5324 3.0369C61.2706 2.9344 61.008 2.8264 60.7439 2.7288C60.6846 2.7069 60.6252 2.6862 60.5658 2.6646C60.2835 2.5617 59.9986 2.4666 59.7137 2.3693C59.6719 2.3551 59.6283 2.3449 59.5865 2.3308C59.0911 2.1635 58.5888 2.0059 58.0857 1.8559C57.5912 1.7081 57.0993 1.5629 56.5977 1.4322C56.5809 1.4278 56.5637 1.4238 56.5468 1.4194C56.2245 1.3359 55.9054 1.2519 55.5802 1.1755C55.546 1.1674 55.5128 1.1578 55.4785 1.1498C55.174 1.079 54.8696 1.0217 54.5628 0.957298C54.508 0.945798 54.4523 0.9301 54.3974 0.9188C54.1061 0.8587 53.8133 0.8061 53.5199 0.7519C53.4481 0.7386 53.3756 0.726302 53.3037 0.713402C53.0303 0.664202 52.7521 0.616297 52.477 0.572197C52.1298 0.516497 51.7839 0.465598 51.4341 0.418098C51.3196 0.402498 51.2055 0.381498 51.0907 0.366798C50.9975 0.354898 50.9044 0.3396 50.8109 0.3283C50.5323 0.2944 50.2516 0.267103 49.9715 0.238403C49.7566 0.216503 49.5387 0.193102 49.3229 0.174202C48.0332 0.061602 46.7241 0.00690133 45.4056 0.00730133C28.6989 0.00320133 14.1374 9.267 6.49914 22.988C2.40569 28.7968 0 35.8956 0 43.5654L0.00105804 43.5627Z" fill="#010101" fill-opacity="0.3137"/>
<path d="M4.11681 85.6681C-2.27759 78.6239 1.79861 64.7361 4.44557 56.4409C21.8571 60.9501 32.7292 57.3457 42.5867 61.2245C52.3541 70.1352 63.1068 83.9276 56.7435 83.1505C26.0742 79.4068 14.0361 96.5977 4.11681 85.6681Z" fill="#939DAC" stroke="#010101" stroke-width="1.2835" stroke-linecap="round" stroke-linejoin="round"/>
<path d="M4.1168 4.3343C-2.2776 11.3785 1.79864 25.2663 4.44553 33.5625C21.8571 29.0523 32.7295 32.6562 42.5866 28.7779C52.3534 19.8669 63.1082 6.0748 56.7431 6.8516C26.0745 10.5952 14.0361 -6.5954 4.1168 4.3343Z" fill="#939DAC" stroke="#010101" stroke-width="1.2835" stroke-linecap="round" stroke-linejoin="round"/>
<path d="M1.41406 44.9989C1.41406 70.7825 13.8494 77.1826 31.9838 72.7687C53.4747 67.5362 62.5535 50.4814 62.5535 44.9992C62.5535 39.5171 53.123 22.3763 31.9838 17.2294C13.884 12.8225 1.41406 19.2152 1.41406 44.9989Z" fill="#939DAC" stroke="#010101" stroke-width="1.2835" stroke-linecap="round" stroke-linejoin="round"/>
<path d="M20.5167 28.9404C24.9375 28.9394 28.5217 32.1957 28.5217 36.2124C28.5217 40.2297 24.9375 43.4857 20.5167 43.4844C16.0959 43.4857 12.5117 40.2294 12.5117 36.2124C12.5114 32.1954 16.0959 28.9394 20.5167 28.9404Z" fill="white" stroke="#010101" stroke-width="1.2835" stroke-linecap="round" stroke-linejoin="round"/>
<path d="M21.9303 35.4097C23.4039 35.4091 24.5989 36.4946 24.5989 37.8336C24.5989 39.1726 23.4039 40.2581 21.9303 40.2578C20.4567 40.2581 19.2617 39.1726 19.2617 37.8336C19.2617 36.4946 20.4567 35.4091 21.9303 35.4097Z" fill="#010101"/>
<path d="M20.5167 45.8624C24.9375 45.8611 28.5217 49.1177 28.5217 53.1343C28.5217 57.151 24.9375 60.4072 20.5167 60.4062C16.0959 60.4072 12.5117 57.151 12.5117 53.1343C12.5117 49.1177 16.0959 45.8611 20.5167 45.8624Z" fill="white" stroke="#010101" stroke-width="1.2835" stroke-linecap="round" stroke-linejoin="round"/>
<path d="M21.9303 48.8941C23.4039 48.8934 24.5989 49.979 24.5989 51.318C24.5989 52.657 23.4039 53.7425 21.9303 53.7422C20.4567 53.7425 19.2617 52.657 19.2617 51.318C19.2617 49.979 20.4567 48.8934 21.9303 48.8941Z" fill="#010101"/>
<g opacity="0.32474">
<path d="M36.7734 53.6641C83.16 41.4788 81.7687 57.0628 82.03 43.2972C82.2914 29.5317 84.5396 41.87 38.5991 36.0689" fill="black"/>
<path d="M36.7734 53.6641C83.16 41.4788 81.7687 57.0628 82.03 43.2972C82.2914 29.5317 84.5396 41.87 38.5991 36.0689" stroke="#010101" stroke-width="1.28421" stroke-linecap="round" stroke-linejoin="round"/>
</g>
<path d="M33.5977 54.9766C81.7534 43.2521 80.3056 58.2469 80.5775 45.0015C80.8489 31.7565 82.0871 46.061 33.5977 35.0265" fill="#939DAC"/>
<path d="M33.5977 54.9766C81.7534 43.2521 80.3056 58.2469 80.5775 45.0015C80.8489 31.7565 82.0871 46.061 33.5977 35.0265" stroke="#010101" stroke-width="1.2835" stroke-linecap="round" stroke-linejoin="round"/>
<path d="M75.4844 48.2266V41.7751" stroke="#687588" stroke-width="1.2835" stroke-linecap="round" stroke-linejoin="round"/>
<path d="M69.8359 47.5859V42.4179" stroke="#687588" stroke-width="1.2835" stroke-linecap="round" stroke-linejoin="round"/>
<path d="M64.1836 47.5859V42.4179" stroke="#687588" stroke-width="1.2835" stroke-linecap="round" stroke-linejoin="round"/>
<path d="M58.5352 48.2266V41.7751" stroke="#687588" stroke-width="1.2835" stroke-linecap="round" stroke-linejoin="round"/>
<path d="M52.8828 48.8672V41.1322" stroke="#687588" stroke-width="1.2835" stroke-linecap="round" stroke-linejoin="round"/>
<path d="M47.2344 49.5078V40.4893" stroke="#687588" stroke-width="1.2835" stroke-linecap="round" stroke-linejoin="round"/>
<path d="M41.5859 50.7891V39.2036" stroke="#687588" stroke-width="1.2835" stroke-linecap="round" stroke-linejoin="round"/>
</g>
</g>
<defs>
<clipPath id="clip0_394_5730">
<rect width="90" height="90" fill="white" transform="matrix(0 -1 1 0 0 90)"/>
</clipPath>
</defs>
</svg>
