<svg width="90" height="90" viewBox="0 0 90 90" fill="none" xmlns="http://www.w3.org/2000/svg">
<g clip-path="url(#clip0_394_5873)">
<mask id="mask0_394_5873" style="mask-type:luminance" maskUnits="userSpaceOnUse" x="0" y="0" width="90" height="90">
<path d="M0 0L0 90H90V0H0Z" fill="white"/>
</mask>
<g mask="url(#mask0_394_5873)">
<path d="M90 45C90 20.1472 69.8528 0 45 0C20.1472 0 0 20.1472 0 45C0 69.8528 20.1472 90 45 90C69.8528 90 90 69.8528 90 45Z" fill="#F0F0F0"/>
<path d="M17.6037 80.6971C22.2026 84.2319 27.5033 86.8972 33.2617 88.4492V65.039L17.6037 80.6971ZM33.2617 1.5496C27.5035 3.1016 22.2028 5.7672 17.6038 9.3018L33.2617 24.9595V1.5496ZM56.7399 88.4492C62.4982 86.8971 67.7989 84.2317 72.3977 80.6971L56.7399 65.0396V88.4492ZM9.30309 17.6025C5.7683 22.2015 3.10293 27.502 1.55078 33.2604H24.9608L9.30309 17.6025ZM80.698 72.3963C84.2328 67.7974 86.8982 62.4967 88.4504 56.7385H65.0405L80.698 72.3963ZM1.55078 56.7386C3.10293 62.4969 5.7683 67.7976 9.30291 72.3963L24.9606 56.7386H1.55078ZM88.4504 33.2602C86.8982 27.502 84.2328 22.2013 80.6982 17.6025L65.0405 33.2602H88.4504ZM56.7399 24.9595L72.3978 9.3018C67.799 5.7672 62.4982 3.1016 56.7399 1.5496V24.9595Z" fill="#0052B4"/>
<path d="M39.1305 0.380898L39.1305 39.1303H0.380918C0.127337 41.0766 9.77707e-05 43.0373 0 45C0 46.9897 0.130781 48.9482 0.380918 50.8695H39.1303V89.6191C41.0766 89.8727 43.0373 89.9999 45 90C46.9897 90 48.9482 89.8692 50.8695 89.6191V50.8697L89.6191 50.8697C90.127 46.9731 90.127 43.0271 89.6191 39.1305L50.8697 39.1305L50.8697 0.380898C48.9234 0.127298 46.9627 0.0001 45 0C43.0107 0 41.0518 0.130798 39.1305 0.380898Z" fill="#D80027"/>
<path d="M56.7393 33.2607L76.8198 13.1802C75.8956 12.2571 74.9317 11.3745 73.9308 10.535L56.7391 27.7268L56.7393 33.2607ZM56.7393 56.7391L76.8196 76.8199C77.7428 75.8956 78.6253 74.9317 79.4648 73.9309L62.2727 56.7391H56.7393ZM33.261 56.7391L13.18 76.8197C14.1042 77.7428 15.0681 78.6254 16.0689 79.4648L33.2609 62.2729L33.261 56.7391ZM33.261 33.2607L13.1801 13.18C12.257 14.1042 11.3745 15.0681 10.5352 16.069L27.7271 33.2607H33.261Z" fill="#D80027"/>
</g>
</g>
<defs>
<clipPath id="clip0_394_5873">
<rect width="90" height="90" fill="white" transform="matrix(0 -1 1 0 0 90)"/>
</clipPath>
</defs>
</svg>
