<svg width="90" height="90" viewBox="0 0 90 90" fill="none" xmlns="http://www.w3.org/2000/svg">
<g clip-path="url(#clip0_394_5900)">
<path d="M44.9844 -7.62939e-06C20.1316 -7.62939e-06 -0.0156326 20.1472 -0.0156326 45C-0.0156326 69.8528 20.1316 90 44.9844 90C69.8372 90 89.9844 69.8528 89.9844 45C89.9844 20.1472 69.8372 -7.62939e-06 44.9844 -7.62939e-06Z" fill="black"/>
<path d="M85.1641 53.6353C85.5921 53.6353 85.9567 53.7518 86.2578 53.9847C86.5589 54.2196 86.7891 54.5595 86.9482 55.0046C87.1072 55.4516 87.1868 55.9914 87.1868 56.6239C87.1868 57.2527 87.1072 57.7897 86.9482 58.2347C86.7872 58.6817 86.5561 59.0226 86.255 59.2575C85.9519 59.4942 85.5883 59.6126 85.1641 59.6126C84.7398 59.6126 84.3771 59.4942 84.076 59.2575C83.773 59.0226 83.5419 58.6817 83.3828 58.2347C83.2218 57.7897 83.1413 57.2527 83.1413 56.6239C83.1413 55.9914 83.2209 55.4516 83.38 55.0046C83.5391 54.5595 83.7692 54.2196 84.0703 53.9847C84.3714 53.7518 84.736 53.6353 85.1641 53.6353ZM85.1641 54.2603C84.7398 54.2603 84.4103 54.4648 84.1754 54.8739C83.9406 55.283 83.8232 55.8664 83.8232 56.6239C83.8232 57.1277 83.8771 57.5567 83.9851 57.9109C84.0911 58.265 84.2446 58.5349 84.4453 58.7205C84.6442 58.9061 84.8838 58.9989 85.1641 58.9989C85.5845 58.9989 85.9131 58.7915 86.1499 58.3768C86.3866 57.9639 86.505 57.3796 86.505 56.6239C86.505 56.1201 86.4519 55.6921 86.3459 55.3398C86.2398 54.9876 86.0874 54.7196 85.8885 54.5359C85.6877 54.3522 85.4463 54.2603 85.1641 54.2603Z" fill="#0CDD02" fill-opacity="0.703883"/>
<path d="M86.9595 43.7148V49.533H84.9936C84.5391 49.533 84.166 49.4554 83.8743 49.3001C83.5826 49.1467 83.3667 48.9355 83.2266 48.6665C83.0864 48.3976 83.0163 48.0917 83.0163 47.7489C83.0163 47.4061 83.0864 47.1022 83.2266 46.837C83.3667 46.5719 83.5817 46.3635 83.8714 46.212C84.1612 46.0624 84.5315 45.9876 84.9822 45.9876H86.5732V46.6239H85.005C84.6944 46.6239 84.4444 46.6694 84.255 46.7603C84.0637 46.8512 83.9254 46.98 83.8402 47.1467C83.7531 47.3152 83.7095 47.516 83.7095 47.7489C83.7095 47.9819 83.7531 48.1855 83.8402 48.3597C83.9273 48.534 84.0665 48.6684 84.2578 48.7631C84.4491 48.8597 84.7019 48.908 85.0163 48.908H86.255V43.7148H86.9595ZM84.2209 46.3285L82.7891 43.7148H83.6072L85.0163 46.3285H84.2209Z" fill="#0CDD02" fill-opacity="0.703883"/>
<path d="M86.9595 33.7148V39.533H83.4482V38.908H86.255V36.9421H83.63V36.3171H86.255V34.3398H83.4027V33.7148H86.9595Z" fill="#0CDD02" fill-opacity="0.703883"/>
<path d="M78.4766 57.5259C78.9046 57.5259 79.2692 57.6424 79.5703 57.8754C79.8714 58.1102 80.1016 58.4502 80.2607 58.8952C80.4197 59.3422 80.4993 59.882 80.4993 60.5146C80.4993 61.1433 80.4197 61.6803 80.2607 62.1254C80.0997 62.5723 79.8686 62.9132 79.5675 63.1481C79.2644 63.3848 78.9008 63.5032 78.4766 63.5032C78.0523 63.5032 77.6896 63.3848 77.3885 63.1481C77.0855 62.9132 76.8544 62.5723 76.6953 62.1254C76.5343 61.6803 76.4538 61.1433 76.4538 60.5146C76.4538 59.882 76.5334 59.3422 76.6925 58.8952C76.8516 58.4502 77.0817 58.1102 77.3828 57.8754C77.6839 57.6424 78.0485 57.5259 78.4766 57.5259ZM78.4766 58.1509C78.0523 58.1509 77.7228 58.3555 77.4879 58.7646C77.2531 59.1737 77.1357 59.757 77.1357 60.5146C77.1357 61.0183 77.1896 61.4473 77.2976 61.8015C77.4036 62.1557 77.5571 62.4255 77.7578 62.6112C77.9567 62.7968 78.1963 62.8896 78.4766 62.8896C78.897 62.8896 79.2256 62.6822 79.4624 62.2674C79.6991 61.8545 79.8175 61.2702 79.8175 60.5146C79.8175 60.0108 79.7644 59.5827 79.6584 59.2305C79.5523 58.8782 79.3999 58.6102 79.201 58.4265C79.0002 58.2428 78.7588 58.1509 78.4766 58.1509Z" fill="#0CDD02" fill-opacity="0.703883"/>
<path d="M80.272 47.6055V53.4237H78.3061C77.8516 53.4237 77.4785 53.346 77.1868 53.1907C76.8951 53.0373 76.6792 52.8261 76.5391 52.5572C76.3989 52.2882 76.3288 51.9824 76.3288 51.6396C76.3288 51.2968 76.3989 50.9928 76.5391 50.7276C76.6792 50.4625 76.8942 50.2541 77.1839 50.1026C77.4737 49.953 77.844 49.8782 78.2947 49.8782H79.8857V50.5146H78.3175C78.0069 50.5146 77.7569 50.56 77.5675 50.6509C77.3762 50.7418 77.2379 50.8706 77.1527 51.0373C77.0656 51.2058 77.022 51.4066 77.022 51.6396C77.022 51.8725 77.0656 52.0761 77.1527 52.2504C77.2398 52.4246 77.379 52.5591 77.5703 52.6538C77.7616 52.7504 78.0144 52.7987 78.3288 52.7987H79.5675V47.6055H80.272ZM77.5334 50.2191L76.1016 47.6055H76.9197L78.3288 50.2191H77.5334Z" fill="#0CDD02" fill-opacity="0.703883"/>
<path d="M80.272 37.6055V43.4237H76.7607V42.7987H79.5675V40.8327H76.9425V40.2077H79.5675V38.2305H76.7152V37.6055H80.272Z" fill="#0CDD02" fill-opacity="0.703883"/>
<path d="M80.272 27.6055V33.4237H78.3061C77.8516 33.4237 77.4785 33.346 77.1868 33.1907C76.8951 33.0373 76.6792 32.8261 76.5391 32.5572C76.3989 32.2882 76.3288 31.9824 76.3288 31.6396C76.3288 31.2968 76.3989 30.9928 76.5391 30.7276C76.6792 30.4625 76.8942 30.2541 77.1839 30.1026C77.4737 29.953 77.844 29.8782 78.2947 29.8782H79.8857V30.5146H78.3175C78.0069 30.5146 77.7569 30.56 77.5675 30.6509C77.3762 30.7418 77.2379 30.8706 77.1527 31.0373C77.0656 31.2058 77.022 31.4066 77.022 31.6396C77.022 31.8725 77.0656 32.0761 77.1527 32.2504C77.2398 32.4246 77.379 32.5591 77.5703 32.6538C77.7616 32.7504 78.0144 32.7987 78.3288 32.7987H79.5675V27.6055H80.272ZM77.5334 30.2191L76.1016 27.6055H76.9197L78.3288 30.2191H77.5334Z" fill="#0CDD02" fill-opacity="0.703883"/>
<path d="M80.272 17.6055V23.4237H78.3061C77.8516 23.4237 77.4785 23.346 77.1868 23.1907C76.8951 23.0373 76.6792 22.8261 76.5391 22.5572C76.3989 22.2882 76.3288 21.9824 76.3288 21.6396C76.3288 21.2968 76.3989 20.9928 76.5391 20.7276C76.6792 20.4625 76.8942 20.2541 77.1839 20.1026C77.4737 19.953 77.844 19.8782 78.2947 19.8782H79.8857V20.5146H78.3175C78.0069 20.5146 77.7569 20.56 77.5675 20.6509C77.3762 20.7418 77.2379 20.8706 77.1527 21.0373C77.0656 21.2058 77.022 21.4066 77.022 21.6396C77.022 21.8725 77.0656 22.0761 77.1527 22.2504C77.2398 22.4246 77.379 22.5591 77.5703 22.6538C77.7616 22.7504 78.0144 22.7987 78.3288 22.7987H79.5675V17.6055H80.272ZM77.5334 20.2191L76.1016 17.6055H76.9197L78.3288 20.2191H77.5334Z" fill="#0CDD02" fill-opacity="0.703883"/>
<path d="M72.8281 66.7212C73.2562 66.7212 73.6207 66.8377 73.9219 67.0707C74.223 67.3055 74.4531 67.6455 74.6122 68.0906C74.7713 68.5375 74.8509 69.0773 74.8509 69.7099C74.8509 70.3387 74.7713 70.8756 74.6122 71.3207C74.4512 71.7676 74.2202 72.1085 73.919 72.3434C73.616 72.5801 73.2524 72.6985 72.8281 72.6985C72.4039 72.6985 72.0412 72.5801 71.7401 72.3434C71.437 72.1085 71.206 71.7676 71.0469 71.3207C70.8859 70.8756 70.8054 70.3387 70.8054 69.7099C70.8054 69.0773 70.8849 68.5375 71.044 68.0906C71.2031 67.6455 71.4332 67.3055 71.7344 67.0707C72.0355 66.8377 72.4001 66.7212 72.8281 66.7212ZM72.8281 67.3462C72.4039 67.3462 72.0743 67.5508 71.8395 67.9599C71.6046 68.369 71.4872 68.9523 71.4872 69.7099C71.4872 70.2137 71.5412 70.6426 71.6491 70.9968C71.7552 71.351 71.9086 71.6209 72.1094 71.8065C72.3082 71.9921 72.5478 72.0849 72.8281 72.0849C73.2486 72.0849 73.5772 71.8775 73.8139 71.4627C74.0507 71.0498 74.169 70.4656 74.169 69.7099C74.169 69.2061 74.116 68.7781 74.0099 68.4258C73.9039 68.0735 73.7514 67.8055 73.5526 67.6218C73.3518 67.4381 73.1103 67.3462 72.8281 67.3462Z" fill="#0CDD02" fill-opacity="0.703883"/>
<path d="M74.6236 56.8008V62.619H72.6577C72.2031 62.619 71.83 62.5413 71.5384 62.386C71.2467 62.2326 71.0308 62.0214 70.8906 61.7525C70.7505 61.4835 70.6804 61.1777 70.6804 60.8349C70.6804 60.4921 70.7505 60.1881 70.8906 59.9229C71.0308 59.6578 71.2457 59.4495 71.5355 59.2979C71.8253 59.1483 72.1955 59.0735 72.6463 59.0735H74.2372V59.7099H72.669C72.3584 59.7099 72.1084 59.7553 71.919 59.8462C71.7277 59.9371 71.5895 60.0659 71.5043 60.2326C71.4171 60.4012 71.3736 60.6019 71.3736 60.8349C71.3736 61.0678 71.4171 61.2714 71.5043 61.4457C71.5914 61.6199 71.7306 61.7544 71.9219 61.8491C72.1132 61.9457 72.366 61.994 72.6804 61.994H73.919V56.8008H74.6236ZM71.8849 59.4144L70.4531 56.8008H71.2713L72.6804 59.4144H71.8849Z" fill="#0CDD02" fill-opacity="0.703883"/>
<path d="M74.6236 46.8008V52.619H71.1122V51.994H73.919V50.0281H71.294V49.4031H73.919V47.4258H71.0668V46.8008H74.6236Z" fill="#0CDD02" fill-opacity="0.703883"/>
<path d="M74.6236 36.8008V42.619H72.6577C72.2031 42.619 71.83 42.5413 71.5384 42.386C71.2467 42.2326 71.0308 42.0214 70.8906 41.7525C70.7505 41.4835 70.6804 41.1777 70.6804 40.8349C70.6804 40.4921 70.7505 40.1881 70.8906 39.9229C71.0308 39.6578 71.2457 39.4495 71.5355 39.2979C71.8253 39.1483 72.1955 39.0735 72.6463 39.0735H74.2372V39.7099H72.669C72.3584 39.7099 72.1084 39.7553 71.919 39.8462C71.7277 39.9371 71.5895 40.0659 71.5043 40.2326C71.4171 40.4012 71.3736 40.6019 71.3736 40.8349C71.3736 41.0678 71.4171 41.2714 71.5043 41.4457C71.5914 41.6199 71.7306 41.7544 71.9219 41.8491C72.1132 41.9457 72.366 41.994 72.6804 41.994H73.919V36.8008H74.6236ZM71.8849 39.4144L70.4531 36.8008H71.2713L72.6804 39.4144H71.8849Z" fill="#0CDD02" fill-opacity="0.703883"/>
<path d="M74.6236 26.8008V32.619H72.6577C72.2031 32.619 71.83 32.5413 71.5384 32.386C71.2467 32.2326 71.0308 32.0214 70.8906 31.7525C70.7505 31.4835 70.6804 31.1777 70.6804 30.8349C70.6804 30.4921 70.7505 30.1881 70.8906 29.9229C71.0308 29.6578 71.2457 29.4495 71.5355 29.2979C71.8253 29.1483 72.1955 29.0735 72.6463 29.0735H74.2372V29.7099H72.669C72.3584 29.7099 72.1084 29.7553 71.919 29.8462C71.7277 29.9371 71.5895 30.0659 71.5043 30.2326C71.4171 30.4012 71.3736 30.6019 71.3736 30.8349C71.3736 31.0678 71.4171 31.2714 71.5043 31.4457C71.5914 31.6199 71.7306 31.7544 71.9219 31.8491C72.1132 31.9457 72.366 31.994 72.6804 31.994H73.919V26.8008H74.6236ZM71.8849 29.4144L70.4531 26.8008H71.2713L72.6804 29.4144H71.8849Z" fill="#0CDD02" fill-opacity="0.703883"/>
<path d="M72.8281 16.7212C73.2562 16.7212 73.6207 16.8377 73.9219 17.0707C74.223 17.3055 74.4531 17.6455 74.6122 18.0906C74.7713 18.5375 74.8509 19.0773 74.8509 19.7099C74.8509 20.3387 74.7713 20.8756 74.6122 21.3207C74.4512 21.7676 74.2202 22.1085 73.919 22.3434C73.616 22.5801 73.2524 22.6985 72.8281 22.6985C72.4039 22.6985 72.0412 22.5801 71.7401 22.3434C71.437 22.1085 71.206 21.7676 71.0469 21.3207C70.8859 20.8756 70.8054 20.3387 70.8054 19.7099C70.8054 19.0773 70.8849 18.5375 71.044 18.0906C71.2031 17.6455 71.4332 17.3055 71.7344 17.0707C72.0355 16.8377 72.4001 16.7212 72.8281 16.7212ZM72.8281 17.3462C72.4039 17.3462 72.0743 17.5508 71.8395 17.9599C71.6046 18.369 71.4872 18.9523 71.4872 19.7099C71.4872 20.2137 71.5412 20.6426 71.6491 20.9968C71.7552 21.351 71.9086 21.6209 72.1094 21.8065C72.3082 21.9921 72.5478 22.0849 72.8281 22.0849C73.2486 22.0849 73.5772 21.8775 73.8139 21.4627C74.0507 21.0498 74.169 20.4656 74.169 19.7099C74.169 19.2061 74.116 18.7781 74.0099 18.4258C73.9039 18.0735 73.7514 17.8055 73.5526 17.6218C73.3518 17.4381 73.1103 17.3462 72.8281 17.3462Z" fill="#0CDD02" fill-opacity="0.703883"/>
<path d="M68.8228 76.9492V82.7674H66.8569C66.4023 82.7674 66.0292 82.6897 65.7376 82.5344C65.4459 82.381 65.23 82.1699 65.0898 81.9009C64.9497 81.632 64.8796 81.3261 64.8796 80.9833C64.8796 80.6405 64.9497 80.3365 65.0898 80.0714C65.23 79.8062 65.445 79.5979 65.7347 79.4464C66.0245 79.2968 66.3948 79.2219 66.8455 79.2219H68.4364V79.8583H66.8683C66.5576 79.8583 66.3076 79.9038 66.1183 79.9947C65.927 80.0856 65.7887 80.2144 65.7035 80.381C65.6164 80.5496 65.5728 80.7504 65.5728 80.9833C65.5728 81.2163 65.6164 81.4199 65.7035 81.5941C65.7906 81.7683 65.9298 81.9028 66.1211 81.9975C66.3124 82.0941 66.5652 82.1424 66.8796 82.1424H68.1183V76.9492H68.8228ZM66.0842 79.5629L64.6523 76.9492H65.4705L66.8796 79.5629H66.0842Z" fill="#0CDD02" fill-opacity="0.703883"/>
<path d="M68.8228 66.9492V72.7674H65.3114V72.1424H68.1183V70.1765H65.4933V69.5515H68.1183V67.5742H65.266V66.9492H68.8228Z" fill="#0CDD02" fill-opacity="0.703883"/>
<path d="M68.8228 56.9492V62.7674H66.8569C66.4023 62.7674 66.0292 62.6897 65.7376 62.5344C65.4459 62.381 65.23 62.1699 65.0898 61.9009C64.9497 61.632 64.8796 61.3261 64.8796 60.9833C64.8796 60.6405 64.9497 60.3365 65.0898 60.0714C65.23 59.8062 65.445 59.5979 65.7347 59.4464C66.0245 59.2968 66.3948 59.2219 66.8455 59.2219H68.4364V59.8583H66.8683C66.5576 59.8583 66.3076 59.9038 66.1183 59.9947C65.927 60.0856 65.7887 60.2144 65.7035 60.381C65.6164 60.5496 65.5728 60.7504 65.5728 60.9833C65.5728 61.2163 65.6164 61.4199 65.7035 61.5941C65.7906 61.7683 65.9298 61.9028 66.1211 61.9975C66.3124 62.0941 66.5652 62.1424 66.8796 62.1424H68.1183V56.9492H68.8228ZM66.0842 59.5629L64.6523 56.9492H65.4705L66.8796 59.5629H66.0842Z" fill="#0CDD02" fill-opacity="0.703883"/>
<path d="M68.8228 46.9492V52.7674H66.8569C66.4023 52.7674 66.0292 52.6897 65.7376 52.5344C65.4459 52.381 65.23 52.1699 65.0898 51.9009C64.9497 51.632 64.8796 51.3261 64.8796 50.9833C64.8796 50.6405 64.9497 50.3365 65.0898 50.0714C65.23 49.8062 65.445 49.5979 65.7347 49.4464C66.0245 49.2968 66.3948 49.2219 66.8455 49.2219H68.4364V49.8583H66.8683C66.5576 49.8583 66.3076 49.9038 66.1183 49.9947C65.927 50.0856 65.7887 50.2144 65.7035 50.381C65.6164 50.5496 65.5728 50.7504 65.5728 50.9833C65.5728 51.2163 65.6164 51.4199 65.7035 51.5941C65.7906 51.7683 65.9298 51.9028 66.1211 51.9975C66.3124 52.0941 66.5652 52.1424 66.8796 52.1424H68.1183V46.9492H68.8228ZM66.0842 49.5629L64.6523 46.9492H65.4705L66.8796 49.5629H66.0842Z" fill="#0CDD02" fill-opacity="0.703883"/>
<path d="M67.0273 36.8697C67.4554 36.8697 67.82 36.9862 68.1211 37.2191C68.4222 37.454 68.6523 37.7939 68.8114 38.239C68.9705 38.686 69.0501 39.2257 69.0501 39.8583C69.0501 40.4871 68.9705 41.024 68.8114 41.4691C68.6504 41.9161 68.4194 42.257 68.1183 42.4918C67.8152 42.7286 67.4516 42.8469 67.0273 42.8469C66.6031 42.8469 66.2404 42.7286 65.9393 42.4918C65.6362 42.257 65.4052 41.9161 65.2461 41.4691C65.0851 41.024 65.0046 40.4871 65.0046 39.8583C65.0046 39.2257 65.0842 38.686 65.2433 38.239C65.4023 37.7939 65.6325 37.454 65.9336 37.2191C66.2347 36.9862 66.5993 36.8697 67.0273 36.8697ZM67.0273 37.4947C66.6031 37.4947 66.2736 37.6992 66.0387 38.1083C65.8039 38.5174 65.6864 39.1007 65.6864 39.8583C65.6864 40.3621 65.7404 40.7911 65.8484 41.1452C65.9544 41.4994 66.1078 41.7693 66.3086 41.9549C66.5075 42.1405 66.747 42.2333 67.0273 42.2333C67.4478 42.2333 67.7764 42.0259 68.0131 41.6112C68.2499 41.1983 68.3683 40.614 68.3683 39.8583C68.3683 39.3545 68.3152 38.9265 68.2092 38.5742C68.1031 38.2219 67.9506 37.954 67.7518 37.7702C67.551 37.5865 67.3095 37.4947 67.0273 37.4947Z" fill="#0CDD02" fill-opacity="0.703883"/>
<path d="M68.8228 26.9492V32.7674H65.3114V32.1424H68.1183V30.1765H65.4933V29.5515H68.1183V27.5742H65.266V26.9492H68.8228Z" fill="#0CDD02" fill-opacity="0.703883"/>
<path d="M68.8228 16.9492V22.7674H66.8569C66.4023 22.7674 66.0292 22.6897 65.7376 22.5344C65.4459 22.381 65.23 22.1699 65.0898 21.9009C64.9497 21.632 64.8796 21.3261 64.8796 20.9833C64.8796 20.6405 64.9497 20.3365 65.0898 20.0714C65.23 19.8062 65.445 19.5979 65.7347 19.4464C66.0245 19.2968 66.3948 19.2219 66.8455 19.2219H68.4364V19.8583H66.8683C66.5576 19.8583 66.3076 19.9038 66.1183 19.9947C65.927 20.0856 65.7887 20.2144 65.7035 20.381C65.6164 20.5496 65.5728 20.7504 65.5728 20.9833C65.5728 21.2163 65.6164 21.4199 65.7035 21.5941C65.7906 21.7683 65.9298 21.9028 66.1211 21.9975C66.3124 22.0941 66.5652 22.1424 66.8796 22.1424H68.1183V16.9492H68.8228ZM66.0842 19.5629L64.6523 16.9492H65.4705L66.8796 19.5629H66.0842Z" fill="#0CDD02" fill-opacity="0.703883"/>
<path d="M63.5884 77.4336V83.2518H60.0771V82.6268H62.8839V80.6609H60.2589V80.0359H62.8839V78.0586H60.0316V77.4336H63.5884Z" fill="#0CDD02" fill-opacity="0.703883"/>
<path d="M63.5884 67.4336V73.2518H61.6225C61.168 73.2518 60.7949 73.1741 60.5032 73.0188C60.2115 72.8654 59.9956 72.6542 59.8555 72.3853C59.7153 72.1164 59.6452 71.8105 59.6452 71.4677C59.6452 71.1249 59.7153 70.8209 59.8555 70.5558C59.9956 70.2906 60.2106 70.0823 60.5004 69.9308C60.7901 69.7811 61.1604 69.7063 61.6112 69.7063H63.2021V70.3427H61.6339C61.3233 70.3427 61.0733 70.3881 60.8839 70.479C60.6926 70.57 60.5543 70.6987 60.4691 70.8654C60.382 71.034 60.3384 71.2347 60.3384 71.4677C60.3384 71.7006 60.382 71.9042 60.4691 72.0785C60.5562 72.2527 60.6954 72.3872 60.8867 72.4819C61.078 72.5785 61.3308 72.6268 61.6452 72.6268H62.8839V67.4336H63.5884ZM60.8498 70.0472L59.418 67.4336H60.2362L61.6452 70.0472H60.8498Z" fill="#0CDD02" fill-opacity="0.703883"/>
<path d="M63.5884 57.4336V63.2518H61.6225C61.168 63.2518 60.7949 63.1741 60.5032 63.0188C60.2115 62.8654 59.9956 62.6542 59.8555 62.3853C59.7153 62.1164 59.6452 61.8105 59.6452 61.4677C59.6452 61.1249 59.7153 60.8209 59.8555 60.5558C59.9956 60.2906 60.2106 60.0823 60.5004 59.9308C60.7901 59.7811 61.1604 59.7063 61.6112 59.7063H63.2021V60.3427H61.6339C61.3233 60.3427 61.0733 60.3881 60.8839 60.479C60.6926 60.57 60.5543 60.6987 60.4691 60.8654C60.382 61.034 60.3384 61.2347 60.3384 61.4677C60.3384 61.7006 60.382 61.9042 60.4691 62.0785C60.5562 62.2527 60.6954 62.3872 60.8867 62.4819C61.078 62.5785 61.3308 62.6268 61.6452 62.6268H62.8839V57.4336H63.5884ZM60.8498 60.0472L59.418 57.4336H60.2362L61.6452 60.0472H60.8498Z" fill="#0CDD02" fill-opacity="0.703883"/>
<path d="M61.793 47.354C62.221 47.354 62.5856 47.4705 62.8867 47.7035C63.1879 47.9383 63.418 48.2783 63.5771 48.7234C63.7362 49.1703 63.8157 49.7101 63.8157 50.3427C63.8157 50.9715 63.7362 51.5084 63.5771 51.9535C63.4161 52.4004 63.185 52.7414 62.8839 52.9762C62.5808 53.213 62.2172 53.3313 61.793 53.3313C61.3687 53.3313 61.006 53.213 60.7049 52.9762C60.4019 52.7414 60.1708 52.4004 60.0117 51.9535C59.8507 51.5084 59.7702 50.9715 59.7702 50.3427C59.7702 49.7101 59.8498 49.1703 60.0089 48.7234C60.168 48.2783 60.3981 47.9383 60.6992 47.7035C61.0004 47.4705 61.3649 47.354 61.793 47.354ZM61.793 47.979C61.3687 47.979 61.0392 48.1836 60.8043 48.5927C60.5695 49.0018 60.4521 49.5851 60.4521 50.3427C60.4521 50.8465 60.506 51.2754 60.614 51.6296C60.7201 51.9838 60.8735 52.2537 61.0742 52.4393C61.2731 52.6249 61.5127 52.7177 61.793 52.7177C62.2134 52.7177 62.542 52.5103 62.7788 52.0955C63.0155 51.6826 63.1339 51.0984 63.1339 50.3427C63.1339 49.8389 63.0808 49.4109 62.9748 49.0586C62.8687 48.7063 62.7163 48.4383 62.5174 48.2546C62.3166 48.0709 62.0752 47.979 61.793 47.979Z" fill="#0CDD02" fill-opacity="0.703883"/>
<path d="M63.5884 37.4336V43.2518H61.6225C61.168 43.2518 60.7949 43.1741 60.5032 43.0188C60.2115 42.8654 59.9956 42.6542 59.8555 42.3853C59.7153 42.1164 59.6452 41.8105 59.6452 41.4677C59.6452 41.1249 59.7153 40.8209 59.8555 40.5558C59.9956 40.2906 60.2106 40.0823 60.5004 39.9308C60.7901 39.7811 61.1604 39.7063 61.6112 39.7063H63.2021V40.3427H61.6339C61.3233 40.3427 61.0733 40.3881 60.8839 40.479C60.6926 40.57 60.5543 40.6987 60.4691 40.8654C60.382 41.034 60.3384 41.2347 60.3384 41.4677C60.3384 41.7006 60.382 41.9042 60.4691 42.0785C60.5562 42.2527 60.6954 42.3872 60.8867 42.4819C61.078 42.5785 61.3308 42.6268 61.6452 42.6268H62.8839V37.4336H63.5884ZM60.8498 40.0472L59.418 37.4336H60.2362L61.6452 40.0472H60.8498Z" fill="#0CDD02" fill-opacity="0.703883"/>
<path d="M63.5884 27.4336V33.2518H61.6225C61.168 33.2518 60.7949 33.1741 60.5032 33.0188C60.2115 32.8654 59.9956 32.6542 59.8555 32.3853C59.7153 32.1164 59.6452 31.8105 59.6452 31.4677C59.6452 31.1249 59.7153 30.8209 59.8555 30.5558C59.9956 30.2906 60.2106 30.0823 60.5004 29.9308C60.7901 29.7811 61.1604 29.7063 61.6112 29.7063H63.2021V30.3427H61.6339C61.3233 30.3427 61.0733 30.3881 60.8839 30.479C60.6926 30.57 60.5543 30.6987 60.4691 30.8654C60.382 31.034 60.3384 31.2347 60.3384 31.4677C60.3384 31.7006 60.382 31.9042 60.4691 32.0785C60.5562 32.2527 60.6954 32.3872 60.8867 32.4819C61.078 32.5785 61.3308 32.6268 61.6452 32.6268H62.8839V27.4336H63.5884ZM60.8498 30.0472L59.418 27.4336H60.2362L61.6452 30.0472H60.8498Z" fill="#0CDD02" fill-opacity="0.703883"/>
<path d="M63.5884 17.4336V23.2518H60.0771V22.6268H62.8839V20.6609H60.2589V20.0359H62.8839V18.0586H60.0316V17.4336H63.5884Z" fill="#0CDD02" fill-opacity="0.703883"/>
<path d="M63.5884 7.43359V13.2518H61.6225C61.168 13.2518 60.7949 13.1741 60.5032 13.0188C60.2115 12.8654 59.9956 12.6542 59.8555 12.3853C59.7153 12.1164 59.6452 11.8105 59.6452 11.4677C59.6452 11.1249 59.7153 10.8209 59.8555 10.5558C59.9956 10.2906 60.2106 10.0823 60.5004 9.93075C60.7901 9.78113 61.1604 9.70632 61.6112 9.70632H63.2021V10.3427H61.6339C61.3233 10.3427 61.0733 10.3881 60.8839 10.479C60.6926 10.57 60.5543 10.6987 60.4691 10.8654C60.382 11.034 60.3384 11.2347 60.3384 11.4677C60.3384 11.7006 60.382 11.9042 60.4691 12.0785C60.5562 12.2527 60.6954 12.3872 60.8867 12.4819C61.078 12.5785 61.3308 12.6268 61.6452 12.6268H62.8839V7.43359H63.5884ZM60.8498 10.0472L59.418 7.43359H60.2362L61.6452 10.0472H60.8498Z" fill="#0CDD02" fill-opacity="0.703883"/>
<path d="M58.3501 77.9297V83.7479H56.3842C55.9297 83.7479 55.5566 83.6702 55.2649 83.5149C54.9732 83.3615 54.7573 83.1503 54.6172 82.8814C54.477 82.6125 54.407 82.3066 54.407 81.9638C54.407 81.621 54.477 81.317 54.6172 81.0518C54.7573 80.7867 54.9723 80.5784 55.2621 80.4268C55.5518 80.2772 55.9221 80.2024 56.3729 80.2024H57.9638V80.8388H56.3956C56.085 80.8388 55.835 80.8842 55.6456 80.9751C55.4543 81.0661 55.3161 81.1948 55.2308 81.3615C55.1437 81.5301 55.1001 81.7308 55.1001 81.9638C55.1001 82.1967 55.1437 82.4003 55.2308 82.5746C55.3179 82.7488 55.4571 82.8833 55.6484 82.978C55.8397 83.0746 56.0926 83.1229 56.407 83.1229H57.6456V77.9297H58.3501ZM55.6115 80.5433L54.1797 77.9297H54.9979L56.407 80.5433H55.6115Z" fill="#0CDD02" fill-opacity="0.703883"/>
<path d="M58.3501 67.9297V73.7479H56.3842C55.9297 73.7479 55.5566 73.6702 55.2649 73.5149C54.9732 73.3615 54.7573 73.1503 54.6172 72.8814C54.477 72.6125 54.407 72.3066 54.407 71.9638C54.407 71.621 54.477 71.317 54.6172 71.0518C54.7573 70.7867 54.9723 70.5784 55.2621 70.4268C55.5518 70.2772 55.9221 70.2024 56.3729 70.2024H57.9638V70.8388H56.3956C56.085 70.8388 55.835 70.8842 55.6456 70.9751C55.4543 71.0661 55.3161 71.1948 55.2308 71.3615C55.1437 71.5301 55.1001 71.7308 55.1001 71.9638C55.1001 72.1967 55.1437 72.4003 55.2308 72.5746C55.3179 72.7488 55.4571 72.8833 55.6484 72.978C55.8397 73.0746 56.0926 73.1229 56.407 73.1229H57.6456V67.9297H58.3501ZM55.6115 70.5433L54.1797 67.9297H54.9979L56.407 70.5433H55.6115Z" fill="#0CDD02" fill-opacity="0.703883"/>
<path d="M56.5547 57.8501C56.9827 57.8501 57.3473 57.9666 57.6484 58.1996C57.9496 58.4344 58.1797 58.7744 58.3388 59.2195C58.4979 59.6664 58.5774 60.2062 58.5774 60.8388C58.5774 61.4676 58.4979 62.0045 58.3388 62.4496C58.1778 62.8965 57.9467 63.2375 57.6456 63.4723C57.3426 63.709 56.9789 63.8274 56.5547 63.8274C56.1304 63.8274 55.7678 63.709 55.4666 63.4723C55.1636 63.2375 54.9325 62.8965 54.7734 62.4496C54.6125 62.0045 54.532 61.4676 54.532 60.8388C54.532 60.2062 54.6115 59.6664 54.7706 59.2195C54.9297 58.7744 55.1598 58.4344 55.4609 58.1996C55.7621 57.9666 56.1267 57.8501 56.5547 57.8501ZM56.5547 58.4751C56.1304 58.4751 55.8009 58.6797 55.5661 59.0888C55.3312 59.4979 55.2138 60.0812 55.2138 60.8388C55.2138 61.3426 55.2678 61.7715 55.3757 62.1257C55.4818 62.4799 55.6352 62.7498 55.8359 62.9354C56.0348 63.121 56.2744 63.2138 56.5547 63.2138C56.9751 63.2138 57.3037 63.0064 57.5405 62.5916C57.7772 62.1787 57.8956 61.5945 57.8956 60.8388C57.8956 60.335 57.8426 59.907 57.7365 59.5547C57.6304 59.2024 57.478 58.9344 57.2791 58.7507C57.0784 58.567 56.8369 58.4751 56.5547 58.4751Z" fill="#0CDD02" fill-opacity="0.703883"/>
<path d="M58.3501 47.9297V53.7479H56.3842C55.9297 53.7479 55.5566 53.6702 55.2649 53.5149C54.9732 53.3615 54.7573 53.1503 54.6172 52.8814C54.477 52.6125 54.407 52.3066 54.407 51.9638C54.407 51.621 54.477 51.317 54.6172 51.0518C54.7573 50.7867 54.9723 50.5784 55.2621 50.4268C55.5518 50.2772 55.9221 50.2024 56.3729 50.2024H57.9638V50.8388H56.3956C56.085 50.8388 55.835 50.8842 55.6456 50.9751C55.4543 51.0661 55.3161 51.1948 55.2308 51.3615C55.1437 51.5301 55.1001 51.7308 55.1001 51.9638C55.1001 52.1967 55.1437 52.4003 55.2308 52.5746C55.3179 52.7488 55.4571 52.8833 55.6484 52.978C55.8397 53.0746 56.0926 53.1229 56.407 53.1229H57.6456V47.9297H58.3501ZM55.6115 50.5433L54.1797 47.9297H54.9979L56.407 50.5433H55.6115Z" fill="#0CDD02" fill-opacity="0.703883"/>
<path d="M58.3501 37.9297V43.7479H54.8388V43.1229H57.6456V41.157H55.0206V40.532H57.6456V38.5547H54.7933V37.9297H58.3501Z" fill="#0CDD02" fill-opacity="0.703883"/>
<path d="M58.3501 27.9297V33.7479H56.3842C55.9297 33.7479 55.5566 33.6702 55.2649 33.5149C54.9732 33.3615 54.7573 33.1503 54.6172 32.8814C54.477 32.6125 54.407 32.3066 54.407 31.9638C54.407 31.621 54.477 31.317 54.6172 31.0518C54.7573 30.7867 54.9723 30.5784 55.2621 30.4268C55.5518 30.2772 55.9221 30.2024 56.3729 30.2024H57.9638V30.8388H56.3956C56.085 30.8388 55.835 30.8842 55.6456 30.9751C55.4543 31.0661 55.3161 31.1948 55.2308 31.3615C55.1437 31.5301 55.1001 31.7308 55.1001 31.9638C55.1001 32.1967 55.1437 32.4003 55.2308 32.5746C55.3179 32.7488 55.4571 32.8833 55.6484 32.978C55.8397 33.0746 56.0926 33.1229 56.407 33.1229H57.6456V27.9297H58.3501ZM55.6115 30.5433L54.1797 27.9297H54.9979L56.407 30.5433H55.6115Z" fill="#0CDD02" fill-opacity="0.703883"/>
<path d="M58.3501 17.9297V23.7479H56.3842C55.9297 23.7479 55.5566 23.6702 55.2649 23.5149C54.9732 23.3615 54.7573 23.1503 54.6172 22.8814C54.477 22.6125 54.407 22.3066 54.407 21.9638C54.407 21.621 54.477 21.317 54.6172 21.0518C54.7573 20.7867 54.9723 20.5784 55.2621 20.4268C55.5518 20.2772 55.9221 20.2024 56.3729 20.2024H57.9638V20.8388H56.3956C56.085 20.8388 55.835 20.8842 55.6456 20.9751C55.4543 21.0661 55.3161 21.1948 55.2308 21.3615C55.1437 21.5301 55.1001 21.7308 55.1001 21.9638C55.1001 22.1967 55.1437 22.4003 55.2308 22.5746C55.3179 22.7488 55.4571 22.8833 55.6484 22.978C55.8397 23.0746 56.0926 23.1229 56.407 23.1229H57.6456V17.9297H58.3501ZM55.6115 20.5433L54.1797 17.9297H54.9979L56.407 20.5433H55.6115Z" fill="#0CDD02" fill-opacity="0.703883"/>
<path d="M56.5547 7.85014C56.9827 7.85014 57.3473 7.96662 57.6484 8.19957C57.9496 8.43442 58.1797 8.77438 58.3388 9.21946C58.4979 9.66643 58.5774 10.2062 58.5774 10.8388C58.5774 11.4676 58.4979 12.0045 58.3388 12.4496C58.1778 12.8965 57.9467 13.2375 57.6456 13.4723C57.3426 13.709 56.9789 13.8274 56.5547 13.8274C56.1304 13.8274 55.7678 13.709 55.4666 13.4723C55.1636 13.2375 54.9325 12.8965 54.7734 12.4496C54.6125 12.0045 54.532 11.4676 54.532 10.8388C54.532 10.2062 54.6115 9.66643 54.7706 9.21946C54.9297 8.77438 55.1598 8.43442 55.4609 8.19957C55.7621 7.96662 56.1267 7.85014 56.5547 7.85014ZM56.5547 8.47514C56.1304 8.47514 55.8009 8.67969 55.5661 9.08878C55.3312 9.49787 55.2138 10.0812 55.2138 10.8388C55.2138 11.3426 55.2678 11.7715 55.3757 12.1257C55.4818 12.4799 55.6352 12.7498 55.8359 12.9354C56.0348 13.121 56.2744 13.2138 56.5547 13.2138C56.9751 13.2138 57.3037 13.0064 57.5405 12.5916C57.7772 12.1787 57.8956 11.5945 57.8956 10.8388C57.8956 10.335 57.8426 9.90696 57.7365 9.55469C57.6304 9.20241 57.478 8.93442 57.2791 8.75071C57.0784 8.567 56.8369 8.47514 56.5547 8.47514Z" fill="#0CDD02" fill-opacity="0.703883"/>
<path d="M45.4414 77.8501C45.8694 77.8501 46.234 77.9666 46.5352 78.1996C46.8363 78.4344 47.0664 78.7744 47.2255 79.2195C47.3846 79.6664 47.4641 80.2062 47.4641 80.8388C47.4641 81.4676 47.3846 82.0045 47.2255 82.4496C47.0645 82.8965 46.8335 83.2375 46.5323 83.4723C46.2293 83.709 45.8656 83.8274 45.4414 83.8274C45.0172 83.8274 44.6545 83.709 44.3533 83.4723C44.0503 83.2375 43.8192 82.8965 43.6602 82.4496C43.4992 82.0045 43.4187 81.4676 43.4187 80.8388C43.4187 80.2062 43.4982 79.6664 43.6573 79.2195C43.8164 78.7744 44.0465 78.4344 44.3477 78.1996C44.6488 77.9666 45.0134 77.8501 45.4414 77.8501ZM45.4414 78.4751C45.0172 78.4751 44.6876 78.6797 44.4528 79.0888C44.2179 79.4979 44.1005 80.0812 44.1005 80.8388C44.1005 81.3426 44.1545 81.7715 44.2624 82.1257C44.3685 82.4799 44.5219 82.7498 44.7227 82.9354C44.9215 83.121 45.1611 83.2138 45.4414 83.2138C45.8619 83.2138 46.1905 83.0064 46.4272 82.5916C46.6639 82.1787 46.7823 81.5945 46.7823 80.8388C46.7823 80.335 46.7293 79.907 46.6232 79.5547C46.5172 79.2024 46.3647 78.9344 46.1658 78.7507C45.9651 78.567 45.7236 78.4751 45.4414 78.4751Z" fill="#0CDD02" fill-opacity="0.703883"/>
<path d="M47.2369 67.9297V73.7479H45.271C44.8164 73.7479 44.4433 73.6702 44.1516 73.5149C43.86 73.3615 43.6441 73.1503 43.5039 72.8814C43.3638 72.6125 43.2937 72.3066 43.2937 71.9638C43.2937 71.621 43.3638 71.317 43.5039 71.0518C43.6441 70.7867 43.859 70.5784 44.1488 70.4268C44.4386 70.2772 44.8088 70.2024 45.2596 70.2024H46.8505V70.8388H45.2823C44.9717 70.8388 44.7217 70.8842 44.5323 70.9751C44.341 71.0661 44.2028 71.1948 44.1175 71.3615C44.0304 71.5301 43.9869 71.7308 43.9869 71.9638C43.9869 72.1967 44.0304 72.4003 44.1175 72.5746C44.2047 72.7488 44.3439 72.8833 44.5352 72.978C44.7264 73.0746 44.9793 73.1229 45.2937 73.1229H46.5323V67.9297H47.2369ZM44.4982 70.5433L43.0664 67.9297H43.8846L45.2937 70.5433H44.4982Z" fill="#0CDD02" fill-opacity="0.703883"/>
<path d="M47.2369 57.9297V63.7479H43.7255V63.1229H46.5323V61.157H43.9073V60.532H46.5323V58.5547H43.68V57.9297H47.2369Z" fill="#0CDD02" fill-opacity="0.703883"/>
<path d="M47.2369 47.9297V53.7479H45.271C44.8164 53.7479 44.4433 53.6702 44.1516 53.5149C43.86 53.3615 43.6441 53.1503 43.5039 52.8814C43.3638 52.6125 43.2937 52.3066 43.2937 51.9638C43.2937 51.621 43.3638 51.317 43.5039 51.0518C43.6441 50.7867 43.859 50.5784 44.1488 50.4268C44.4386 50.2772 44.8088 50.2024 45.2596 50.2024H46.8505V50.8388H45.2823C44.9717 50.8388 44.7217 50.8842 44.5323 50.9751C44.341 51.0661 44.2028 51.1948 44.1175 51.3615C44.0304 51.5301 43.9869 51.7308 43.9869 51.9638C43.9869 52.1967 44.0304 52.4003 44.1175 52.5746C44.2047 52.7488 44.3439 52.8833 44.5352 52.978C44.7264 53.0746 44.9793 53.1229 45.2937 53.1229H46.5323V47.9297H47.2369ZM44.4982 50.5433L43.0664 47.9297H43.8846L45.2937 50.5433H44.4982Z" fill="#0CDD02" fill-opacity="0.703883"/>
<path d="M47.2369 37.9297V43.7479H45.271C44.8164 43.7479 44.4433 43.6702 44.1516 43.5149C43.86 43.3615 43.6441 43.1503 43.5039 42.8814C43.3638 42.6125 43.2937 42.3066 43.2937 41.9638C43.2937 41.621 43.3638 41.317 43.5039 41.0518C43.6441 40.7867 43.859 40.5784 44.1488 40.4268C44.4386 40.2772 44.8088 40.2024 45.2596 40.2024H46.8505V40.8388H45.2823C44.9717 40.8388 44.7217 40.8842 44.5323 40.9751C44.341 41.0661 44.2028 41.1948 44.1175 41.3615C44.0304 41.5301 43.9869 41.7308 43.9869 41.9638C43.9869 42.1967 44.0304 42.4003 44.1175 42.5746C44.2047 42.7488 44.3439 42.8833 44.5352 42.978C44.7264 43.0746 44.9793 43.1229 45.2937 43.1229H46.5323V37.9297H47.2369ZM44.4982 40.5433L43.0664 37.9297H43.8846L45.2937 40.5433H44.4982Z" fill="#0CDD02" fill-opacity="0.703883"/>
<path d="M45.4414 27.8501C45.8694 27.8501 46.234 27.9666 46.5352 28.1996C46.8363 28.4344 47.0664 28.7744 47.2255 29.2195C47.3846 29.6664 47.4641 30.2062 47.4641 30.8388C47.4641 31.4676 47.3846 32.0045 47.2255 32.4496C47.0645 32.8965 46.8335 33.2375 46.5323 33.4723C46.2293 33.709 45.8656 33.8274 45.4414 33.8274C45.0172 33.8274 44.6545 33.709 44.3533 33.4723C44.0503 33.2375 43.8192 32.8965 43.6602 32.4496C43.4992 32.0045 43.4187 31.4676 43.4187 30.8388C43.4187 30.2062 43.4982 29.6664 43.6573 29.2195C43.8164 28.7744 44.0465 28.4344 44.3477 28.1996C44.6488 27.9666 45.0134 27.8501 45.4414 27.8501ZM45.4414 28.4751C45.0172 28.4751 44.6876 28.6797 44.4528 29.0888C44.2179 29.4979 44.1005 30.0812 44.1005 30.8388C44.1005 31.3426 44.1545 31.7715 44.2624 32.1257C44.3685 32.4799 44.5219 32.7498 44.7227 32.9354C44.9215 33.121 45.1611 33.2138 45.4414 33.2138C45.8619 33.2138 46.1905 33.0064 46.4272 32.5916C46.6639 32.1787 46.7823 31.5945 46.7823 30.8388C46.7823 30.335 46.7293 29.907 46.6232 29.5547C46.5172 29.2024 46.3647 28.9344 46.1658 28.7507C45.9651 28.567 45.7236 28.4751 45.4414 28.4751Z" fill="#0CDD02" fill-opacity="0.703883"/>
<path d="M47.2369 17.9297V23.7479H43.7255V23.1229H46.5323V21.157H43.9073V20.532H46.5323V18.5547H43.68V17.9297H47.2369Z" fill="#0CDD02" fill-opacity="0.703883"/>
<path d="M47.2369 7.92969V13.7479H45.271C44.8164 13.7479 44.4433 13.6702 44.1516 13.5149C43.86 13.3615 43.6441 13.1503 43.5039 12.8814C43.3638 12.6125 43.2937 12.3066 43.2937 11.9638C43.2937 11.621 43.3638 11.317 43.5039 11.0518C43.6441 10.7867 43.859 10.5784 44.1488 10.4268C44.4386 10.2772 44.8088 10.2024 45.2596 10.2024H46.8505V10.8388H45.2823C44.9717 10.8388 44.7217 10.8842 44.5323 10.9751C44.341 11.0661 44.2028 11.1948 44.1175 11.3615C44.0304 11.5301 43.9869 11.7308 43.9869 11.9638C43.9869 12.1967 44.0304 12.4003 44.1175 12.5746C44.2047 12.7488 44.3439 12.8833 44.5352 12.978C44.7264 13.0746 44.9793 13.1229 45.2937 13.1229H46.5323V7.92969H47.2369ZM44.4982 10.5433L43.0664 7.92969H43.8846L45.2937 10.5433H44.4982Z" fill="#0CDD02" fill-opacity="0.703883"/>
<path d="M53.1158 77.4453V83.2635H49.6044V82.6385H52.4112V80.6726H49.7862V80.0476H52.4112V78.0703H49.5589V77.4453H53.1158Z" fill="#0CDD02" fill-opacity="0.703883"/>
<path d="M53.1158 67.4453V73.2635H51.1499C50.6953 73.2635 50.3222 73.1858 50.0305 73.0305C49.7389 72.8771 49.523 72.666 49.3828 72.397C49.2427 72.1281 49.1726 71.8222 49.1726 71.4794C49.1726 71.1366 49.2427 70.8326 49.3828 70.5675C49.523 70.3023 49.7379 70.094 50.0277 69.9425C50.3175 69.7929 50.6877 69.718 51.1385 69.718H52.7294V70.3544H51.1612C50.8506 70.3544 50.6006 70.3999 50.4112 70.4908C50.2199 70.5817 50.0817 70.7105 49.9964 70.8771C49.9093 71.0457 49.8658 71.2464 49.8658 71.4794C49.8658 71.7124 49.9093 71.916 49.9964 72.0902C50.0836 72.2644 50.2228 72.3989 50.4141 72.4936C50.6054 72.5902 50.8582 72.6385 51.1726 72.6385H52.4112V67.4453H53.1158ZM50.3771 70.0589L48.9453 67.4453H49.7635L51.1726 70.0589H50.3771Z" fill="#0CDD02" fill-opacity="0.703883"/>
<path d="M53.1158 57.4453V63.2635H51.1499C50.6953 63.2635 50.3222 63.1858 50.0305 63.0305C49.7389 62.8771 49.523 62.666 49.3828 62.397C49.2427 62.1281 49.1726 61.8222 49.1726 61.4794C49.1726 61.1366 49.2427 60.8326 49.3828 60.5675C49.523 60.3023 49.7379 60.094 50.0277 59.9425C50.3175 59.7929 50.6877 59.718 51.1385 59.718H52.7294V60.3544H51.1612C50.8506 60.3544 50.6006 60.3999 50.4112 60.4908C50.2199 60.5817 50.0817 60.7105 49.9964 60.8771C49.9093 61.0457 49.8658 61.2464 49.8658 61.4794C49.8658 61.7124 49.9093 61.916 49.9964 62.0902C50.0836 62.2644 50.2228 62.3989 50.4141 62.4936C50.6054 62.5902 50.8582 62.6385 51.1726 62.6385H52.4112V57.4453H53.1158ZM50.3771 60.0589L48.9453 57.4453H49.7635L51.1726 60.0589H50.3771Z" fill="#0CDD02" fill-opacity="0.703883"/>
<path d="M51.3203 47.3658C51.7483 47.3658 52.1129 47.4822 52.4141 47.7152C52.7152 47.95 52.9453 48.29 53.1044 48.7351C53.2635 49.1821 53.343 49.7218 53.343 50.3544C53.343 50.9832 53.2635 51.5201 53.1044 51.9652C52.9434 52.4122 52.7124 52.7531 52.4112 52.9879C52.1082 53.2247 51.7446 53.343 51.3203 53.343C50.8961 53.343 50.5334 53.2247 50.2322 52.9879C49.9292 52.7531 49.6982 52.4122 49.5391 51.9652C49.3781 51.5201 49.2976 50.9832 49.2976 50.3544C49.2976 49.7218 49.3771 49.1821 49.5362 48.7351C49.6953 48.29 49.9254 47.95 50.2266 47.7152C50.5277 47.4822 50.8923 47.3658 51.3203 47.3658ZM51.3203 47.9908C50.8961 47.9908 50.5665 48.1953 50.3317 48.6044C50.0968 49.0135 49.9794 49.5968 49.9794 50.3544C49.9794 50.8582 50.0334 51.2872 50.1413 51.6413C50.2474 51.9955 50.4008 52.2654 50.6016 52.451C50.8004 52.6366 51.04 52.7294 51.3203 52.7294C51.7408 52.7294 52.0694 52.522 52.3061 52.1072C52.5429 51.6944 52.6612 51.1101 52.6612 50.3544C52.6612 49.8506 52.6082 49.4226 52.5021 49.0703C52.3961 48.718 52.2436 48.45 52.0447 48.2663C51.844 48.0826 51.6025 47.9908 51.3203 47.9908Z" fill="#0CDD02" fill-opacity="0.703883"/>
<path d="M53.1158 37.4453V43.2635H51.1499C50.6953 43.2635 50.3222 43.1858 50.0305 43.0305C49.7389 42.8771 49.523 42.666 49.3828 42.397C49.2427 42.1281 49.1726 41.8222 49.1726 41.4794C49.1726 41.1366 49.2427 40.8326 49.3828 40.5675C49.523 40.3023 49.7379 40.094 50.0277 39.9425C50.3175 39.7929 50.6877 39.718 51.1385 39.718H52.7294V40.3544H51.1612C50.8506 40.3544 50.6006 40.3999 50.4112 40.4908C50.2199 40.5817 50.0817 40.7105 49.9964 40.8771C49.9093 41.0457 49.8658 41.2464 49.8658 41.4794C49.8658 41.7124 49.9093 41.916 49.9964 42.0902C50.0836 42.2644 50.2228 42.3989 50.4141 42.4936C50.6054 42.5902 50.8582 42.6385 51.1726 42.6385H52.4112V37.4453H53.1158ZM50.3771 40.0589L48.9453 37.4453H49.7635L51.1726 40.0589H50.3771Z" fill="#0CDD02" fill-opacity="0.703883"/>
<path d="M53.1158 27.4453V33.2635H49.6044V32.6385H52.4112V30.6726H49.7862V30.0476H52.4112V28.0703H49.5589V27.4453H53.1158Z" fill="#0CDD02" fill-opacity="0.703883"/>
<path d="M53.1158 17.4453V23.2635H51.1499C50.6953 23.2635 50.3222 23.1858 50.0305 23.0305C49.7389 22.8771 49.523 22.666 49.3828 22.397C49.2427 22.1281 49.1726 21.8222 49.1726 21.4794C49.1726 21.1366 49.2427 20.8326 49.3828 20.5675C49.523 20.3023 49.7379 20.094 50.0277 19.9425C50.3175 19.7929 50.6877 19.718 51.1385 19.718H52.7294V20.3544H51.1612C50.8506 20.3544 50.6006 20.3999 50.4112 20.4908C50.2199 20.5817 50.0817 20.7105 49.9964 20.8771C49.9093 21.0457 49.8658 21.2464 49.8658 21.4794C49.8658 21.7124 49.9093 21.916 49.9964 22.0902C50.0836 22.2644 50.2228 22.3989 50.4141 22.4936C50.6054 22.5902 50.8582 22.6385 51.1726 22.6385H52.4112V17.4453H53.1158ZM50.3771 20.0589L48.9453 17.4453H49.7635L51.1726 20.0589H50.3771Z" fill="#0CDD02" fill-opacity="0.703883"/>
<path d="M53.1158 7.44531V13.2635H51.1499C50.6953 13.2635 50.3222 13.1858 50.0305 13.0305C49.7389 12.8771 49.523 12.666 49.3828 12.397C49.2427 12.1281 49.1726 11.8222 49.1726 11.4794C49.1726 11.1366 49.2427 10.8326 49.3828 10.5675C49.523 10.3023 49.7379 10.094 50.0277 9.94247C50.3175 9.79285 50.6877 9.71804 51.1385 9.71804H52.7294V10.3544H51.1612C50.8506 10.3544 50.6006 10.3999 50.4112 10.4908C50.2199 10.5817 50.0817 10.7105 49.9964 10.8771C49.9093 11.0457 49.8658 11.2464 49.8658 11.4794C49.8658 11.7124 49.9093 11.916 49.9964 12.0902C50.0836 12.2644 50.2228 12.3989 50.4141 12.4936C50.6054 12.5902 50.8582 12.6385 51.1726 12.6385H52.4112V7.44531H53.1158ZM50.3771 10.0589L48.9453 7.44531H49.7635L51.1726 10.0589H50.3771Z" fill="#0CDD02" fill-opacity="0.703883"/>
<path d="M40.125 77.354C40.553 77.354 40.9176 77.4705 41.2188 77.7035C41.5199 77.9383 41.75 78.2783 41.9091 78.7234C42.0682 79.1703 42.1477 79.7101 42.1477 80.3427C42.1477 80.9715 42.0682 81.5084 41.9091 81.9535C41.7481 82.4004 41.517 82.7414 41.2159 82.9762C40.9129 83.213 40.5492 83.3313 40.125 83.3313C39.7008 83.3313 39.3381 83.213 39.0369 82.9762C38.7339 82.7414 38.5028 82.4004 38.3438 81.9535C38.1828 81.5084 38.1023 80.9715 38.1023 80.3427C38.1023 79.7101 38.1818 79.1703 38.3409 78.7234C38.5 78.2783 38.7301 77.9383 39.0312 77.7035C39.3324 77.4705 39.697 77.354 40.125 77.354ZM40.125 77.979C39.7008 77.979 39.3712 78.1836 39.1364 78.5927C38.9015 79.0018 38.7841 79.5851 38.7841 80.3427C38.7841 80.8465 38.8381 81.2754 38.946 81.6296C39.0521 81.9838 39.2055 82.2537 39.4062 82.4393C39.6051 82.6249 39.8447 82.7177 40.125 82.7177C40.5455 82.7177 40.8741 82.5103 41.1108 82.0955C41.3475 81.6826 41.4659 81.0984 41.4659 80.3427C41.4659 79.8389 41.4129 79.4109 41.3068 79.0586C41.2008 78.7063 41.0483 78.4383 40.8494 78.2546C40.6487 78.0709 40.4072 77.979 40.125 77.979Z" fill="#0CDD02" fill-opacity="0.703883"/>
<path d="M41.9205 67.4336V73.2518H39.9545C39.5 73.2518 39.1269 73.1741 38.8352 73.0188C38.5436 72.8654 38.3277 72.6542 38.1875 72.3853C38.0473 72.1164 37.9773 71.8105 37.9773 71.4677C37.9773 71.1249 38.0473 70.8209 38.1875 70.5558C38.3277 70.2906 38.5426 70.0823 38.8324 69.9308C39.1222 69.7811 39.4924 69.7063 39.9432 69.7063H41.5341V70.3427H39.9659C39.6553 70.3427 39.4053 70.3881 39.2159 70.479C39.0246 70.57 38.8864 70.6987 38.8011 70.8654C38.714 71.034 38.6705 71.2347 38.6705 71.4677C38.6705 71.7006 38.714 71.9042 38.8011 72.0785C38.8883 72.2527 39.0275 72.3872 39.2188 72.4819C39.41 72.5785 39.6629 72.6268 39.9773 72.6268H41.2159V67.4336H41.9205ZM39.1818 70.0472L37.75 67.4336H38.5682L39.9773 70.0472H39.1818Z" fill="#0CDD02" fill-opacity="0.703883"/>
<path d="M41.9205 57.4336V63.2518H38.4091V62.6268H41.2159V60.6609H38.5909V60.0359H41.2159V58.0586H38.3636V57.4336H41.9205Z" fill="#0CDD02" fill-opacity="0.703883"/>
<path d="M41.9205 47.4336V53.2518H39.9545C39.5 53.2518 39.1269 53.1741 38.8352 53.0188C38.5436 52.8654 38.3277 52.6542 38.1875 52.3853C38.0473 52.1164 37.9773 51.8105 37.9773 51.4677C37.9773 51.1249 38.0473 50.8209 38.1875 50.5558C38.3277 50.2906 38.5426 50.0823 38.8324 49.9308C39.1222 49.7811 39.4924 49.7063 39.9432 49.7063H41.5341V50.3427H39.9659C39.6553 50.3427 39.4053 50.3881 39.2159 50.479C39.0246 50.57 38.8864 50.6987 38.8011 50.8654C38.714 51.034 38.6705 51.2347 38.6705 51.4677C38.6705 51.7006 38.714 51.9042 38.8011 52.0785C38.8883 52.2527 39.0275 52.3872 39.2188 52.4819C39.41 52.5785 39.6629 52.6268 39.9773 52.6268H41.2159V47.4336H41.9205ZM39.1818 50.0472L37.75 47.4336H38.5682L39.9773 50.0472H39.1818Z" fill="#0CDD02" fill-opacity="0.703883"/>
<path d="M41.9205 37.4336V43.2518H39.9545C39.5 43.2518 39.1269 43.1741 38.8352 43.0188C38.5436 42.8654 38.3277 42.6542 38.1875 42.3853C38.0473 42.1164 37.9773 41.8105 37.9773 41.4677C37.9773 41.1249 38.0473 40.8209 38.1875 40.5558C38.3277 40.2906 38.5426 40.0823 38.8324 39.9308C39.1222 39.7811 39.4924 39.7063 39.9432 39.7063H41.5341V40.3427H39.9659C39.6553 40.3427 39.4053 40.3881 39.2159 40.479C39.0246 40.57 38.8864 40.6987 38.8011 40.8654C38.714 41.034 38.6705 41.2347 38.6705 41.4677C38.6705 41.7006 38.714 41.9042 38.8011 42.0785C38.8883 42.2527 39.0275 42.3872 39.2188 42.4819C39.41 42.5785 39.6629 42.6268 39.9773 42.6268H41.2159V37.4336H41.9205ZM39.1818 40.0472L37.75 37.4336H38.5682L39.9773 40.0472H39.1818Z" fill="#0CDD02" fill-opacity="0.703883"/>
<path d="M40.125 27.354C40.553 27.354 40.9176 27.4705 41.2188 27.7035C41.5199 27.9383 41.75 28.2783 41.9091 28.7234C42.0682 29.1703 42.1477 29.7101 42.1477 30.3427C42.1477 30.9715 42.0682 31.5084 41.9091 31.9535C41.7481 32.4004 41.517 32.7414 41.2159 32.9762C40.9129 33.213 40.5492 33.3313 40.125 33.3313C39.7008 33.3313 39.3381 33.213 39.0369 32.9762C38.7339 32.7414 38.5028 32.4004 38.3438 31.9535C38.1828 31.5084 38.1023 30.9715 38.1023 30.3427C38.1023 29.7101 38.1818 29.1703 38.3409 28.7234C38.5 28.2783 38.7301 27.9383 39.0312 27.7035C39.3324 27.4705 39.697 27.354 40.125 27.354ZM40.125 27.979C39.7008 27.979 39.3712 28.1836 39.1364 28.5927C38.9015 29.0018 38.7841 29.5851 38.7841 30.3427C38.7841 30.8465 38.8381 31.2754 38.946 31.6296C39.0521 31.9838 39.2055 32.2537 39.4062 32.4393C39.6051 32.6249 39.8447 32.7177 40.125 32.7177C40.5455 32.7177 40.8741 32.5103 41.1108 32.0955C41.3475 31.6826 41.4659 31.0984 41.4659 30.3427C41.4659 29.8389 41.4129 29.4109 41.3068 29.0586C41.2008 28.7063 41.0483 28.4383 40.8494 28.2546C40.6487 28.0709 40.4072 27.979 40.125 27.979Z" fill="#0CDD02" fill-opacity="0.703883"/>
<path d="M41.9205 17.4336V23.2518H39.9545C39.5 23.2518 39.1269 23.1741 38.8352 23.0188C38.5436 22.8654 38.3277 22.6542 38.1875 22.3853C38.0473 22.1164 37.9773 21.8105 37.9773 21.4677C37.9773 21.1249 38.0473 20.8209 38.1875 20.5558C38.3277 20.2906 38.5426 20.0823 38.8324 19.9308C39.1222 19.7811 39.4924 19.7063 39.9432 19.7063H41.5341V20.3427H39.9659C39.6553 20.3427 39.4053 20.3881 39.2159 20.479C39.0246 20.57 38.8864 20.6987 38.8011 20.8654C38.714 21.034 38.6705 21.2347 38.6705 21.4677C38.6705 21.7006 38.714 21.9042 38.8011 22.0785C38.8883 22.2527 39.0275 22.3872 39.2188 22.4819C39.41 22.5785 39.6629 22.6268 39.9773 22.6268H41.2159V17.4336H41.9205ZM39.1818 20.0472L37.75 17.4336H38.5682L39.9773 20.0472H39.1818Z" fill="#0CDD02" fill-opacity="0.703883"/>
<path d="M41.9205 7.43359V13.2518H38.4091V12.6268H41.2159V10.6609H38.5909V10.0359H41.2159V8.05859H38.3636V7.43359H41.9205Z" fill="#0CDD02" fill-opacity="0.703883"/>
<path d="M36.4439 77.5273V83.3455H34.478C34.0234 83.3455 33.6503 83.2679 33.3587 83.1126C33.067 82.9592 32.8511 82.748 32.7109 82.479C32.5708 82.2101 32.5007 81.9042 32.5007 81.5614C32.5007 81.2186 32.5708 80.9147 32.7109 80.6495C32.8511 80.3844 33.0661 80.176 33.3558 80.0245C33.6456 79.8749 34.0159 79.8001 34.4666 79.8001H36.0575V80.4364H34.4893C34.1787 80.4364 33.9287 80.4819 33.7393 80.5728C33.5481 80.6637 33.4098 80.7925 33.3246 80.9592C33.2375 81.1277 33.1939 81.3285 33.1939 81.5614C33.1939 81.7944 33.2375 81.998 33.3246 82.1722C33.4117 82.3465 33.5509 82.4809 33.7422 82.5756C33.9335 82.6722 34.1863 82.7205 34.5007 82.7205H35.7393V77.5273H36.4439ZM33.7053 80.141L32.2734 77.5273H33.0916L34.5007 80.141H33.7053Z" fill="#0CDD02" fill-opacity="0.703883"/>
<path d="M34.6484 67.4478C35.0765 67.4478 35.4411 67.5643 35.7422 67.7972C36.0433 68.0321 36.2734 68.372 36.4325 68.8171C36.5916 69.2641 36.6712 69.8039 36.6712 70.4364C36.6712 71.0652 36.5916 71.6022 36.4325 72.0472C36.2715 72.4942 36.0405 72.8351 35.7393 73.07C35.4363 73.3067 35.0727 73.4251 34.6484 73.4251C34.2242 73.4251 33.8615 73.3067 33.5604 73.07C33.2573 72.8351 33.0263 72.4942 32.8672 72.0472C32.7062 71.6022 32.6257 71.0652 32.6257 70.4364C32.6257 69.8039 32.7053 69.2641 32.8643 68.8171C33.0234 68.372 33.2536 68.0321 33.5547 67.7972C33.8558 67.5643 34.2204 67.4478 34.6484 67.4478ZM34.6484 68.0728C34.2242 68.0728 33.8946 68.2773 33.6598 68.6864C33.425 69.0955 33.3075 69.6789 33.3075 70.4364C33.3075 70.9402 33.3615 71.3692 33.4695 71.7234C33.5755 72.0775 33.7289 72.3474 33.9297 72.533C34.1286 72.7186 34.3681 72.8114 34.6484 72.8114C35.0689 72.8114 35.3975 72.604 35.6342 72.1893C35.871 71.7764 35.9893 71.1921 35.9893 70.4364C35.9893 69.9326 35.9363 69.5046 35.8303 69.1523C35.7242 68.8001 35.5717 68.5321 35.3729 68.3484C35.1721 68.1647 34.9306 68.0728 34.6484 68.0728Z" fill="#0CDD02" fill-opacity="0.703883"/>
<path d="M36.4439 57.5273V63.3455H34.478C34.0234 63.3455 33.6503 63.2679 33.3587 63.1126C33.067 62.9592 32.8511 62.748 32.7109 62.479C32.5708 62.2101 32.5007 61.9042 32.5007 61.5614C32.5007 61.2186 32.5708 60.9147 32.7109 60.6495C32.8511 60.3844 33.0661 60.176 33.3558 60.0245C33.6456 59.8749 34.0159 59.8001 34.4666 59.8001H36.0575V60.4364H34.4893C34.1787 60.4364 33.9287 60.4819 33.7393 60.5728C33.5481 60.6637 33.4098 60.7925 33.3246 60.9592C33.2375 61.1277 33.1939 61.3285 33.1939 61.5614C33.1939 61.7944 33.2375 61.998 33.3246 62.1722C33.4117 62.3465 33.5509 62.4809 33.7422 62.5756C33.9335 62.6722 34.1863 62.7205 34.5007 62.7205H35.7393V57.5273H36.4439ZM33.7053 60.141L32.2734 57.5273H33.0916L34.5007 60.141H33.7053Z" fill="#0CDD02" fill-opacity="0.703883"/>
<path d="M36.4439 47.5273V53.3455H32.9325V52.7205H35.7393V50.7546H33.1143V50.1296H35.7393V48.1523H32.8871V47.5273H36.4439Z" fill="#0CDD02" fill-opacity="0.703883"/>
<path d="M36.4439 37.5273V43.3455H34.478C34.0234 43.3455 33.6503 43.2679 33.3587 43.1126C33.067 42.9592 32.8511 42.748 32.7109 42.479C32.5708 42.2101 32.5007 41.9042 32.5007 41.5614C32.5007 41.2186 32.5708 40.9147 32.7109 40.6495C32.8511 40.3844 33.0661 40.176 33.3558 40.0245C33.6456 39.8749 34.0159 39.8001 34.4666 39.8001H36.0575V40.4364H34.4893C34.1787 40.4364 33.9287 40.4819 33.7393 40.5728C33.5481 40.6637 33.4098 40.7925 33.3246 40.9592C33.2375 41.1277 33.1939 41.3285 33.1939 41.5614C33.1939 41.7944 33.2375 41.998 33.3246 42.1722C33.4117 42.3465 33.5509 42.4809 33.7422 42.5756C33.9335 42.6722 34.1863 42.7205 34.5007 42.7205H35.7393V37.5273H36.4439ZM33.7053 40.141L32.2734 37.5273H33.0916L34.5007 40.141H33.7053Z" fill="#0CDD02" fill-opacity="0.703883"/>
<path d="M36.4439 27.5273V33.3455H34.478C34.0234 33.3455 33.6503 33.2679 33.3587 33.1126C33.067 32.9592 32.8511 32.748 32.7109 32.479C32.5708 32.2101 32.5007 31.9042 32.5007 31.5614C32.5007 31.2186 32.5708 30.9147 32.7109 30.6495C32.8511 30.3844 33.0661 30.176 33.3558 30.0245C33.6456 29.8749 34.0159 29.8001 34.4666 29.8001H36.0575V30.4364H34.4893C34.1787 30.4364 33.9287 30.4819 33.7393 30.5728C33.5481 30.6637 33.4098 30.7925 33.3246 30.9592C33.2375 31.1277 33.1939 31.3285 33.1939 31.5614C33.1939 31.7944 33.2375 31.998 33.3246 32.1722C33.4117 32.3465 33.5509 32.4809 33.7422 32.5756C33.9335 32.6722 34.1863 32.7205 34.5007 32.7205H35.7393V27.5273H36.4439ZM33.7053 30.141L32.2734 27.5273H33.0916L34.5007 30.141H33.7053Z" fill="#0CDD02" fill-opacity="0.703883"/>
<path d="M34.6484 17.4478C35.0765 17.4478 35.4411 17.5643 35.7422 17.7972C36.0433 18.0321 36.2734 18.372 36.4325 18.8171C36.5916 19.2641 36.6712 19.8039 36.6712 20.4364C36.6712 21.0652 36.5916 21.6022 36.4325 22.0472C36.2715 22.4942 36.0405 22.8351 35.7393 23.07C35.4363 23.3067 35.0727 23.4251 34.6484 23.4251C34.2242 23.4251 33.8615 23.3067 33.5604 23.07C33.2573 22.8351 33.0263 22.4942 32.8672 22.0472C32.7062 21.6022 32.6257 21.0652 32.6257 20.4364C32.6257 19.8039 32.7053 19.2641 32.8643 18.8171C33.0234 18.372 33.2536 18.0321 33.5547 17.7972C33.8558 17.5643 34.2204 17.4478 34.6484 17.4478ZM34.6484 18.0728C34.2242 18.0728 33.8946 18.2773 33.6598 18.6864C33.425 19.0955 33.3075 19.6789 33.3075 20.4364C33.3075 20.9402 33.3615 21.3692 33.4695 21.7234C33.5755 22.0775 33.7289 22.3474 33.9297 22.533C34.1286 22.7186 34.3681 22.8114 34.6484 22.8114C35.0689 22.8114 35.3975 22.604 35.6342 22.1893C35.871 21.7764 35.9893 21.1921 35.9893 20.4364C35.9893 19.9326 35.9363 19.5046 35.8303 19.1523C35.7242 18.8001 35.5717 18.5321 35.3729 18.3484C35.1721 18.1647 34.9306 18.0728 34.6484 18.0728Z" fill="#0CDD02" fill-opacity="0.703883"/>
<path d="M36.4439 7.52734V13.3455H34.478C34.0234 13.3455 33.6503 13.2679 33.3587 13.1126C33.067 12.9592 32.8511 12.748 32.7109 12.479C32.5708 12.2101 32.5007 11.9042 32.5007 11.5614C32.5007 11.2186 32.5708 10.9147 32.7109 10.6495C32.8511 10.3844 33.0661 10.176 33.3558 10.0245C33.6456 9.87488 34.0159 9.80007 34.4666 9.80007H36.0575V10.4364H34.4893C34.1787 10.4364 33.9287 10.4819 33.7393 10.5728C33.5481 10.6637 33.4098 10.7925 33.3246 10.9592C33.2375 11.1277 33.1939 11.3285 33.1939 11.5614C33.1939 11.7944 33.2375 11.998 33.3246 12.1722C33.4117 12.3465 33.5509 12.4809 33.7422 12.5756C33.9335 12.6722 34.1863 12.7205 34.5007 12.7205H35.7393V7.52734H36.4439ZM33.7053 10.141L32.2734 7.52734H33.0916L34.5007 10.141H33.7053Z" fill="#0CDD02" fill-opacity="0.703883"/>
<path d="M25.7681 77.4883V83.3065H23.8022C23.3477 83.3065 22.9746 83.2288 22.6829 83.0735C22.3912 82.9201 22.1753 82.7089 22.0352 82.44C21.895 82.171 21.8249 81.8652 21.8249 81.5224C21.8249 81.1796 21.895 80.8756 22.0352 80.6104C22.1753 80.3453 22.3903 80.137 22.68 79.9854C22.9698 79.8358 23.3401 79.761 23.7908 79.761H25.3817V80.3974H23.8136C23.503 80.3974 23.253 80.4428 23.0636 80.5337C22.8723 80.6246 22.734 80.7534 22.6488 80.9201C22.5617 81.0887 22.5181 81.2894 22.5181 81.5224C22.5181 81.7553 22.5617 81.9589 22.6488 82.1332C22.7359 82.3074 22.8751 82.4419 23.0664 82.5366C23.2577 82.6332 23.5105 82.6815 23.8249 82.6815H25.0636V77.4883H25.7681ZM23.0295 80.1019L21.5977 77.4883H22.4158L23.8249 80.1019H23.0295Z" fill="#0CDD02" fill-opacity="0.703883"/>
<path d="M25.7681 67.4883V73.3065H22.2567V72.6815H25.0636V70.7156H22.4386V70.0906H25.0636V68.1133H22.2113V67.4883H25.7681Z" fill="#0CDD02" fill-opacity="0.703883"/>
<path d="M25.7681 57.4883V63.3065H23.8022C23.3477 63.3065 22.9746 63.2288 22.6829 63.0735C22.3912 62.9201 22.1753 62.7089 22.0352 62.44C21.895 62.171 21.8249 61.8652 21.8249 61.5224C21.8249 61.1796 21.895 60.8756 22.0352 60.6104C22.1753 60.3453 22.3903 60.137 22.68 59.9854C22.9698 59.8358 23.3401 59.761 23.7908 59.761H25.3817V60.3974H23.8136C23.503 60.3974 23.253 60.4428 23.0636 60.5337C22.8723 60.6246 22.734 60.7534 22.6488 60.9201C22.5617 61.0887 22.5181 61.2894 22.5181 61.5224C22.5181 61.7553 22.5617 61.9589 22.6488 62.1332C22.7359 62.3074 22.8751 62.4419 23.0664 62.5366C23.2577 62.6332 23.5105 62.6815 23.8249 62.6815H25.0636V57.4883H25.7681ZM23.0295 60.1019L21.5977 57.4883H22.4158L23.8249 60.1019H23.0295Z" fill="#0CDD02" fill-opacity="0.703883"/>
<path d="M25.7681 47.4883V53.3065H23.8022C23.3477 53.3065 22.9746 53.2288 22.6829 53.0735C22.3912 52.9201 22.1753 52.7089 22.0352 52.44C21.895 52.171 21.8249 51.8652 21.8249 51.5224C21.8249 51.1796 21.895 50.8756 22.0352 50.6104C22.1753 50.3453 22.3903 50.137 22.68 49.9854C22.9698 49.8358 23.3401 49.761 23.7908 49.761H25.3817V50.3974H23.8136C23.503 50.3974 23.253 50.4428 23.0636 50.5337C22.8723 50.6246 22.734 50.7534 22.6488 50.9201C22.5617 51.0887 22.5181 51.2894 22.5181 51.5224C22.5181 51.7553 22.5617 51.9589 22.6488 52.1332C22.7359 52.3074 22.8751 52.4419 23.0664 52.5366C23.2577 52.6332 23.5105 52.6815 23.8249 52.6815H25.0636V47.4883H25.7681ZM23.0295 50.1019L21.5977 47.4883H22.4158L23.8249 50.1019H23.0295Z" fill="#0CDD02" fill-opacity="0.703883"/>
<path d="M23.9727 37.4087C24.4007 37.4087 24.7653 37.5252 25.0664 37.7582C25.3675 37.993 25.5977 38.333 25.7567 38.7781C25.9158 39.225 25.9954 39.7648 25.9954 40.3974C25.9954 41.0262 25.9158 41.5631 25.7567 42.0082C25.5958 42.4551 25.3647 42.796 25.0636 43.0309C24.7605 43.2676 24.3969 43.386 23.9727 43.386C23.5484 43.386 23.1857 43.2676 22.8846 43.0309C22.5816 42.796 22.3505 42.4551 22.1914 42.0082C22.0304 41.5631 21.9499 41.0262 21.9499 40.3974C21.9499 39.7648 22.0295 39.225 22.1886 38.7781C22.3477 38.333 22.5778 37.993 22.8789 37.7582C23.18 37.5252 23.5446 37.4087 23.9727 37.4087ZM23.9727 38.0337C23.5484 38.0337 23.2189 38.2383 22.984 38.6474C22.7492 39.0565 22.6317 39.6398 22.6317 40.3974C22.6317 40.9012 22.6857 41.3301 22.7937 41.6843C22.8997 42.0385 23.0531 42.3084 23.2539 42.494C23.4528 42.6796 23.6924 42.7724 23.9727 42.7724C24.3931 42.7724 24.7217 42.565 24.9585 42.1502C25.1952 41.7373 25.3136 41.1531 25.3136 40.3974C25.3136 39.8936 25.2605 39.4656 25.1545 39.1133C25.0484 38.761 24.896 38.493 24.6971 38.3093C24.4963 38.1256 24.2549 38.0337 23.9727 38.0337Z" fill="#0CDD02" fill-opacity="0.703883"/>
<path d="M25.7681 27.4883V33.3065H23.8022C23.3477 33.3065 22.9746 33.2288 22.6829 33.0735C22.3912 32.9201 22.1753 32.7089 22.0352 32.44C21.895 32.171 21.8249 31.8652 21.8249 31.5224C21.8249 31.1796 21.895 30.8756 22.0352 30.6104C22.1753 30.3453 22.3903 30.137 22.68 29.9854C22.9698 29.8358 23.3401 29.761 23.7908 29.761H25.3817V30.3974H23.8136C23.503 30.3974 23.253 30.4428 23.0636 30.5337C22.8723 30.6246 22.734 30.7534 22.6488 30.9201C22.5617 31.0887 22.5181 31.2894 22.5181 31.5224C22.5181 31.7553 22.5617 31.9589 22.6488 32.1332C22.7359 32.3074 22.8751 32.4419 23.0664 32.5366C23.2577 32.6332 23.5105 32.6815 23.8249 32.6815H25.0636V27.4883H25.7681ZM23.0295 30.1019L21.5977 27.4883H22.4158L23.8249 30.1019H23.0295Z" fill="#0CDD02" fill-opacity="0.703883"/>
<path d="M25.7681 17.4883V23.3065H23.8022C23.3477 23.3065 22.9746 23.2288 22.6829 23.0735C22.3912 22.9201 22.1753 22.7089 22.0352 22.44C21.895 22.171 21.8249 21.8652 21.8249 21.5224C21.8249 21.1796 21.895 20.8756 22.0352 20.6104C22.1753 20.3453 22.3903 20.137 22.68 19.9854C22.9698 19.8358 23.3401 19.761 23.7908 19.761H25.3817V20.3974H23.8136C23.503 20.3974 23.253 20.4428 23.0636 20.5337C22.8723 20.6246 22.734 20.7534 22.6488 20.9201C22.5617 21.0887 22.5181 21.2894 22.5181 21.5224C22.5181 21.7553 22.5617 21.9589 22.6488 22.1332C22.7359 22.3074 22.8751 22.4419 23.0664 22.5366C23.2577 22.6332 23.5105 22.6815 23.8249 22.6815H25.0636V17.4883H25.7681ZM23.0295 20.1019L21.5977 17.4883H22.4158L23.8249 20.1019H23.0295Z" fill="#0CDD02" fill-opacity="0.703883"/>
<path d="M25.7681 7.48828V13.3065H22.2567V12.6815H25.0636V10.7156H22.4386V10.0906H25.0636V8.11328H22.2113V7.48828H25.7681Z" fill="#0CDD02" fill-opacity="0.703883"/>
<path d="M15.0962 67.6758L15.0962 73.494H13.1303C12.6758 73.494 12.3027 73.4163 12.011 73.261C11.7193 73.1076 11.5034 72.8964 11.3633 72.6275C11.2231 72.3585 11.1531 72.0527 11.1531 71.7099C11.1531 71.3671 11.2231 71.0631 11.3633 70.7979C11.5034 70.5328 11.7184 70.3245 12.0082 70.1729C12.2979 70.0233 12.6682 69.9485 13.119 69.9485H14.7099V70.5849H13.1417C12.8311 70.5849 12.5811 70.6303 12.3917 70.7212C12.2004 70.8121 12.0621 70.9409 11.9769 71.1076C11.8898 71.2762 11.8462 71.4769 11.8462 71.7099C11.8462 71.9428 11.8898 72.1464 11.9769 72.3207C12.064 72.4949 12.2032 72.6294 12.3945 72.7241C12.5858 72.8207 12.8387 72.869 13.1531 72.869H14.3917V67.6758H15.0962ZM12.3576 70.2894L10.9258 67.6758H11.744L13.1531 70.2894H12.3576Z" fill="#0CDD02" fill-opacity="0.703883"/>
<path d="M13.3008 57.5962C13.7288 57.5962 14.0934 57.7127 14.3945 57.9457C14.6957 58.1805 14.9258 58.5205 15.0849 58.9656C15.244 59.4125 15.3235 59.9523 15.3235 60.5849C15.3235 61.2137 15.244 61.7506 15.0849 62.1957C14.9239 62.6426 14.6928 62.9835 14.3917 63.2184C14.0887 63.4551 13.725 63.5735 13.3008 63.5735C12.8765 63.5735 12.5138 63.4551 12.2127 63.2184C11.9097 62.9835 11.6786 62.6426 11.5195 62.1957C11.3585 61.7506 11.2781 61.2137 11.2781 60.5849C11.2781 59.9523 11.3576 59.4125 11.5167 58.9656C11.6758 58.5205 11.9059 58.1805 12.207 57.9457C12.5082 57.7127 12.8728 57.5962 13.3008 57.5962ZM13.3008 58.2212C12.8765 58.2212 12.547 58.4258 12.3121 58.8349C12.0773 59.244 11.9599 59.8273 11.9599 60.5849C11.9599 61.0887 12.0138 61.5176 12.1218 61.8718C12.2279 62.226 12.3813 62.4959 12.582 62.6815C12.7809 62.8671 13.0205 62.9599 13.3008 62.9599C13.7212 62.9599 14.0498 62.7525 14.2866 62.3377C14.5233 61.9248 14.6417 61.3406 14.6417 60.5849C14.6417 60.0811 14.5887 59.6531 14.4826 59.3008C14.3765 58.9485 14.2241 58.6805 14.0252 58.4968C13.8245 58.3131 13.583 58.2212 13.3008 58.2212Z" fill="#0CDD02" fill-opacity="0.703883"/>
<path d="M15.0962 47.6758L15.0962 53.494H13.1303C12.6758 53.494 12.3027 53.4163 12.011 53.261C11.7193 53.1076 11.5034 52.8964 11.3633 52.6275C11.2231 52.3585 11.1531 52.0527 11.1531 51.7099C11.1531 51.3671 11.2231 51.0631 11.3633 50.7979C11.5034 50.5328 11.7184 50.3245 12.0082 50.1729C12.2979 50.0233 12.6682 49.9485 13.119 49.9485H14.7099V50.5849H13.1417C12.8311 50.5849 12.5811 50.6303 12.3917 50.7212C12.2004 50.8121 12.0621 50.9409 11.9769 51.1076C11.8898 51.2762 11.8462 51.4769 11.8462 51.7099C11.8462 51.9428 11.8898 52.1464 11.9769 52.3207C12.064 52.4949 12.2032 52.6294 12.3945 52.7241C12.5858 52.8207 12.8387 52.869 13.1531 52.869H14.3917V47.6758H15.0962ZM12.3576 50.2894L10.9258 47.6758H11.744L13.1531 50.2894H12.3576Z" fill="#0CDD02" fill-opacity="0.703883"/>
<path d="M15.0962 37.6758L15.0962 43.494H11.5849V42.869H14.3917V40.9031H11.7667V40.2781H14.3917V38.3008H11.5394V37.6758H15.0962Z" fill="#0CDD02" fill-opacity="0.703883"/>
<path d="M15.0962 27.6758L15.0962 33.494H13.1303C12.6758 33.494 12.3027 33.4163 12.011 33.261C11.7193 33.1076 11.5034 32.8964 11.3633 32.6275C11.2231 32.3585 11.1531 32.0527 11.1531 31.7099C11.1531 31.3671 11.2231 31.0631 11.3633 30.7979C11.5034 30.5328 11.7184 30.3245 12.0082 30.1729C12.2979 30.0233 12.6682 29.9485 13.119 29.9485H14.7099V30.5849H13.1417C12.8311 30.5849 12.5811 30.6303 12.3917 30.7212C12.2004 30.8121 12.0621 30.9409 11.9769 31.1076C11.8898 31.2762 11.8462 31.4769 11.8462 31.7099C11.8462 31.9428 11.8898 32.1464 11.9769 32.3207C12.064 32.4949 12.2032 32.6294 12.3945 32.7241C12.5858 32.8207 12.8387 32.869 13.1531 32.869H14.3917V27.6758H15.0962ZM12.3576 30.2894L10.9258 27.6758H11.744L13.1531 30.2894H12.3576Z" fill="#0CDD02" fill-opacity="0.703883"/>
<path d="M15.0962 17.6758L15.0962 23.494H13.1303C12.6758 23.494 12.3027 23.4163 12.011 23.261C11.7193 23.1076 11.5034 22.8964 11.3633 22.6275C11.2231 22.3585 11.1531 22.0527 11.1531 21.7099C11.1531 21.3671 11.2231 21.0631 11.3633 20.7979C11.5034 20.5328 11.7184 20.3245 12.0082 20.1729C12.2979 20.0233 12.6682 19.9485 13.119 19.9485H14.7099V20.5849H13.1417C12.8311 20.5849 12.5811 20.6303 12.3917 20.7212C12.2004 20.8121 12.0621 20.9409 11.9769 21.1076C11.8898 21.2762 11.8462 21.4769 11.8462 21.7099C11.8462 21.9428 11.8898 22.1464 11.9769 22.3207C12.064 22.4949 12.2032 22.6294 12.3945 22.7241C12.5858 22.8207 12.8387 22.869 13.1531 22.869H14.3917V17.6758H15.0962ZM12.3576 20.2894L10.9258 17.6758H11.744L13.1531 20.2894H12.3576Z" fill="#0CDD02" fill-opacity="0.703883"/>
<path d="M31.4478 77.2852V83.1033H29.4819C29.0273 83.1033 28.6542 83.0257 28.3626 82.8704C28.0709 82.717 27.855 82.5058 27.7148 82.2369C27.5747 81.9679 27.5046 81.6621 27.5046 81.3192C27.5046 80.9764 27.5747 80.6725 27.7148 80.4073C27.855 80.1422 28.07 79.9338 28.3597 79.7823C28.6495 79.6327 29.0198 79.5579 29.4705 79.5579H31.0614V80.1942H29.4933C29.1826 80.1942 28.9326 80.2397 28.7433 80.3306C28.552 80.4215 28.4137 80.5503 28.3285 80.717C28.2414 80.8855 28.1978 81.0863 28.1978 81.3192C28.1978 81.5522 28.2414 81.7558 28.3285 81.93C28.4156 82.1043 28.5548 82.2388 28.7461 82.3335C28.9374 82.43 29.1902 82.4783 29.5046 82.4783H30.7433V77.2852H31.4478ZM28.7092 79.8988L27.2773 77.2852H28.0955L29.5046 79.8988H28.7092Z" fill="#0CDD02" fill-opacity="0.703883"/>
<path d="M31.4478 67.2852V73.1033H27.9364V72.4783H30.7433V70.5124H28.1183V69.8874H30.7433V67.9102H27.891V67.2852H31.4478Z" fill="#0CDD02" fill-opacity="0.703883"/>
<path d="M31.4478 57.2852V63.1033H29.4819C29.0273 63.1033 28.6542 63.0257 28.3626 62.8704C28.0709 62.717 27.855 62.5058 27.7148 62.2369C27.5747 61.9679 27.5046 61.6621 27.5046 61.3192C27.5046 60.9764 27.5747 60.6725 27.7148 60.4073C27.855 60.1422 28.07 59.9338 28.3597 59.7823C28.6495 59.6327 29.0198 59.5579 29.4705 59.5579H31.0614V60.1942H29.4933C29.1826 60.1942 28.9326 60.2397 28.7433 60.3306C28.552 60.4215 28.4137 60.5503 28.3285 60.717C28.2414 60.8855 28.1978 61.0863 28.1978 61.3192C28.1978 61.5522 28.2414 61.7558 28.3285 61.93C28.4156 62.1043 28.5548 62.2388 28.7461 62.3335C28.9374 62.43 29.1902 62.4783 29.5046 62.4783H30.7433V57.2852H31.4478ZM28.7092 59.8988L27.2773 57.2852H28.0955L29.5046 59.8988H28.7092Z" fill="#0CDD02" fill-opacity="0.703883"/>
<path d="M31.4478 47.2852V53.1033H29.4819C29.0273 53.1033 28.6542 53.0257 28.3626 52.8704C28.0709 52.717 27.855 52.5058 27.7148 52.2369C27.5747 51.9679 27.5046 51.6621 27.5046 51.3192C27.5046 50.9764 27.5747 50.6725 27.7148 50.4073C27.855 50.1422 28.07 49.9338 28.3597 49.7823C28.6495 49.6327 29.0198 49.5579 29.4705 49.5579H31.0614V50.1942H29.4933C29.1826 50.1942 28.9326 50.2397 28.7433 50.3306C28.552 50.4215 28.4137 50.5503 28.3285 50.717C28.2414 50.8855 28.1978 51.0863 28.1978 51.3192C28.1978 51.5522 28.2414 51.7558 28.3285 51.93C28.4156 52.1043 28.5548 52.2388 28.7461 52.3335C28.9374 52.43 29.1902 52.4783 29.5046 52.4783H30.7433V47.2852H31.4478ZM28.7092 49.8988L27.2773 47.2852H28.0955L29.5046 49.8988H28.7092Z" fill="#0CDD02" fill-opacity="0.703883"/>
<path d="M29.6523 37.2056C30.0804 37.2056 30.445 37.3221 30.7461 37.555C31.0472 37.7899 31.2773 38.1299 31.4364 38.5749C31.5955 39.0219 31.6751 39.5617 31.6751 40.1942C31.6751 40.823 31.5955 41.36 31.4364 41.805C31.2754 42.252 31.0444 42.5929 30.7433 42.8278C30.4402 43.0645 30.0766 43.1829 29.6523 43.1829C29.2281 43.1829 28.8654 43.0645 28.5643 42.8278C28.2612 42.5929 28.0302 42.252 27.8711 41.805C27.7101 41.36 27.6296 40.823 27.6296 40.1942C27.6296 39.5617 27.7092 39.0219 27.8683 38.5749C28.0273 38.1299 28.2575 37.7899 28.5586 37.555C28.8597 37.3221 29.2243 37.2056 29.6523 37.2056ZM29.6523 37.8306C29.2281 37.8306 28.8986 38.0352 28.6637 38.4442C28.4289 38.8533 28.3114 39.4367 28.3114 40.1942C28.3114 40.698 28.3654 41.127 28.4734 41.4812C28.5794 41.8353 28.7328 42.1052 28.9336 42.2908C29.1325 42.4764 29.372 42.5692 29.6523 42.5692C30.0728 42.5692 30.4014 42.3619 30.6381 41.9471C30.8749 41.5342 30.9933 40.9499 30.9933 40.1942C30.9933 39.6905 30.9402 39.2624 30.8342 38.9102C30.7281 38.5579 30.5756 38.2899 30.3768 38.1062C30.176 37.9225 29.9345 37.8306 29.6523 37.8306Z" fill="#0CDD02" fill-opacity="0.703883"/>
<path d="M31.4478 27.2852V33.1033H29.4819C29.0273 33.1033 28.6542 33.0257 28.3626 32.8704C28.0709 32.717 27.855 32.5058 27.7148 32.2369C27.5747 31.9679 27.5046 31.6621 27.5046 31.3192C27.5046 30.9764 27.5747 30.6725 27.7148 30.4073C27.855 30.1422 28.07 29.9338 28.3597 29.7823C28.6495 29.6327 29.0198 29.5579 29.4705 29.5579H31.0614V30.1942H29.4933C29.1826 30.1942 28.9326 30.2397 28.7433 30.3306C28.552 30.4215 28.4137 30.5503 28.3285 30.717C28.2414 30.8855 28.1978 31.0863 28.1978 31.3192C28.1978 31.5522 28.2414 31.7558 28.3285 31.93C28.4156 32.1043 28.5548 32.2388 28.7461 32.3335C28.9374 32.43 29.1902 32.4783 29.5046 32.4783H30.7433V27.2852H31.4478ZM28.7092 29.8988L27.2773 27.2852H28.0955L29.5046 29.8988H28.7092Z" fill="#0CDD02" fill-opacity="0.703883"/>
<path d="M31.4478 17.2852V23.1033H29.4819C29.0273 23.1033 28.6542 23.0257 28.3626 22.8704C28.0709 22.717 27.855 22.5058 27.7148 22.2369C27.5747 21.9679 27.5046 21.6621 27.5046 21.3192C27.5046 20.9764 27.5747 20.6725 27.7148 20.4073C27.855 20.1422 28.07 19.9338 28.3597 19.7823C28.6495 19.6327 29.0198 19.5579 29.4705 19.5579H31.0614V20.1942H29.4933C29.1826 20.1942 28.9326 20.2397 28.7433 20.3306C28.552 20.4215 28.4137 20.5503 28.3285 20.717C28.2414 20.8855 28.1978 21.0863 28.1978 21.3192C28.1978 21.5522 28.2414 21.7558 28.3285 21.93C28.4156 22.1043 28.5548 22.2388 28.7461 22.3335C28.9374 22.43 29.1902 22.4783 29.5046 22.4783H30.7433V17.2852H31.4478ZM28.7092 19.8988L27.2773 17.2852H28.0955L29.5046 19.8988H28.7092Z" fill="#0CDD02" fill-opacity="0.703883"/>
<path d="M31.4478 7.28516V13.1033H27.9364V12.4783H30.7433V10.5124H28.1183V9.88743H30.7433V7.91016L27.891 7.91016V7.28516H31.4478Z" fill="#0CDD02" fill-opacity="0.703883"/>
<path d="M20.0103 67.5V73.3182H16.4989V72.6932H19.3058V70.7273H16.6808V70.1023H19.3058V68.125H16.4535V67.5H20.0103Z" fill="#0CDD02" fill-opacity="0.703883"/>
<path d="M20.0103 57.5V63.3182H18.0444C17.5898 63.3182 17.2167 63.2405 16.9251 63.0852C16.6334 62.9318 16.4175 62.7206 16.2773 62.4517C16.1372 62.1828 16.0671 61.8769 16.0671 61.5341C16.0671 61.1913 16.1372 60.8873 16.2773 60.6222C16.4175 60.357 16.6325 60.1487 16.9222 59.9972C17.212 59.8475 17.5823 59.7727 18.033 59.7727H19.6239V60.4091H18.0558C17.7451 60.4091 17.4951 60.4545 17.3058 60.5455C17.1145 60.6364 16.9762 60.7652 16.891 60.9318C16.8039 61.1004 16.7603 61.3011 16.7603 61.5341C16.7603 61.767 16.8039 61.9706 16.891 62.1449C16.9781 62.3191 17.1173 62.4536 17.3086 62.5483C17.4999 62.6449 17.7527 62.6932 18.0671 62.6932H19.3058V57.5H20.0103ZM17.2717 60.1136L15.8398 57.5H16.658L18.0671 60.1136H17.2717Z" fill="#0CDD02" fill-opacity="0.703883"/>
<path d="M20.0103 47.5V53.3182H18.0444C17.5898 53.3182 17.2167 53.2405 16.9251 53.0852C16.6334 52.9318 16.4175 52.7206 16.2773 52.4517C16.1372 52.1828 16.0671 51.8769 16.0671 51.5341C16.0671 51.1913 16.1372 50.8873 16.2773 50.6222C16.4175 50.357 16.6325 50.1487 16.9222 49.9972C17.212 49.8475 17.5823 49.7727 18.033 49.7727H19.6239V50.4091H18.0558C17.7451 50.4091 17.4951 50.4545 17.3058 50.5455C17.1145 50.6364 16.9762 50.7652 16.891 50.9318C16.8039 51.1004 16.7603 51.3011 16.7603 51.5341C16.7603 51.767 16.8039 51.9706 16.891 52.1449C16.9781 52.3191 17.1173 52.4536 17.3086 52.5483C17.4999 52.6449 17.7527 52.6932 18.0671 52.6932H19.3058V47.5H20.0103ZM17.2717 50.1136L15.8398 47.5H16.658L18.0671 50.1136H17.2717Z" fill="#0CDD02" fill-opacity="0.703883"/>
<path d="M18.2148 37.4205C18.6429 37.4205 19.0075 37.5369 19.3086 37.7699C19.6097 38.0047 19.8398 38.3447 19.9989 38.7898C20.158 39.2367 20.2376 39.7765 20.2376 40.4091C20.2376 41.0379 20.158 41.5748 19.9989 42.0199C19.8379 42.4669 19.6069 42.8078 19.3058 43.0426C19.0027 43.2794 18.6391 43.3977 18.2148 43.3977C17.7906 43.3977 17.4279 43.2794 17.1268 43.0426C16.8237 42.8078 16.5927 42.4669 16.4336 42.0199C16.2726 41.5748 16.1921 41.0379 16.1921 40.4091C16.1921 39.7765 16.2717 39.2367 16.4308 38.7898C16.5898 38.3447 16.82 38.0047 17.1211 37.7699C17.4222 37.5369 17.7868 37.4205 18.2148 37.4205ZM18.2148 38.0455C17.7906 38.0455 17.4611 38.25 17.2262 38.6591C16.9914 39.0682 16.8739 39.6515 16.8739 40.4091C16.8739 40.9129 16.9279 41.3419 17.0359 41.696C17.1419 42.0502 17.2953 42.3201 17.4961 42.5057C17.695 42.6913 17.9345 42.7841 18.2148 42.7841C18.6353 42.7841 18.9639 42.5767 19.2006 42.1619C19.4374 41.7491 19.5558 41.1648 19.5558 40.4091C19.5558 39.9053 19.5027 39.4773 19.3967 39.125C19.2906 38.7727 19.1381 38.5047 18.9393 38.321C18.7385 38.1373 18.497 38.0455 18.2148 38.0455Z" fill="#0CDD02" fill-opacity="0.703883"/>
<path d="M20.0103 27.5V33.3182H18.0444C17.5898 33.3182 17.2167 33.2405 16.9251 33.0852C16.6334 32.9318 16.4175 32.7206 16.2773 32.4517C16.1372 32.1828 16.0671 31.8769 16.0671 31.5341C16.0671 31.1913 16.1372 30.8873 16.2773 30.6222C16.4175 30.357 16.6325 30.1487 16.9222 29.9972C17.212 29.8475 17.5823 29.7727 18.033 29.7727H19.6239V30.4091H18.0558C17.7451 30.4091 17.4951 30.4545 17.3058 30.5455C17.1145 30.6364 16.9762 30.7652 16.891 30.9318C16.8039 31.1004 16.7603 31.3011 16.7603 31.5341C16.7603 31.767 16.8039 31.9706 16.891 32.1449C16.9781 32.3191 17.1173 32.4536 17.3086 32.5483C17.4999 32.6449 17.7527 32.6932 18.0671 32.6932H19.3058V27.5H20.0103ZM17.2717 30.1136L15.8398 27.5H16.658L18.0671 30.1136H17.2717Z" fill="#0CDD02" fill-opacity="0.703883"/>
<path d="M20.0103 17.5V23.3182H16.4989V22.6932H19.3058V20.7273H16.6808V20.1023H19.3058V18.125H16.4535V17.5H20.0103Z" fill="#0CDD02" fill-opacity="0.703883"/>
<path d="M9.72514 57.8711L9.72514 63.6893H6.21378V63.0643H9.0206V61.0984H6.3956V60.4734H9.0206V58.4961H6.16832V57.8711H9.72514Z" fill="#0CDD02" fill-opacity="0.703883"/>
<path d="M9.72514 47.8711L9.72514 53.6893H7.75923C7.30469 53.6893 6.93158 53.6116 6.63991 53.4563C6.34825 53.3029 6.13234 53.0917 5.99219 52.8228C5.85204 52.5539 5.78196 52.248 5.78196 51.9052C5.78196 51.5624 5.85204 51.2584 5.99219 50.9933C6.13234 50.7281 6.3473 50.5198 6.63707 50.3683C6.92685 50.2186 7.29711 50.1438 7.74787 50.1438H9.33878V50.7802H7.7706C7.45999 50.7802 7.20999 50.8256 7.0206 50.9165C6.82931 51.0075 6.69105 51.1362 6.60582 51.3029C6.5187 51.4715 6.47514 51.6722 6.47514 51.9052C6.47514 52.1381 6.5187 52.3417 6.60582 52.516C6.69294 52.6902 6.83215 52.8247 7.02344 52.9194C7.21473 53.016 7.46757 53.0643 7.78196 53.0643H9.0206V47.8711H9.72514ZM6.98651 50.4847L5.55469 47.8711H6.37287L7.78196 50.4847H6.98651Z" fill="#0CDD02" fill-opacity="0.703883"/>
<path d="M9.72514 37.8711L9.72514 43.6893H7.75923C7.30469 43.6893 6.93158 43.6116 6.63991 43.4563C6.34825 43.3029 6.13234 43.0917 5.99219 42.8228C5.85204 42.5539 5.78196 42.248 5.78196 41.9052C5.78196 41.5624 5.85204 41.2584 5.99219 40.9933C6.13234 40.7281 6.3473 40.5198 6.63707 40.3683C6.92685 40.2186 7.29711 40.1438 7.74787 40.1438H9.33878V40.7802H7.7706C7.45999 40.7802 7.20999 40.8256 7.0206 40.9165C6.82931 41.0075 6.69105 41.1362 6.60582 41.3029C6.5187 41.4715 6.47514 41.6722 6.47514 41.9052C6.47514 42.1381 6.5187 42.3417 6.60582 42.516C6.69294 42.6902 6.83215 42.8247 7.02344 42.9194C7.21473 43.016 7.46757 43.0643 7.78196 43.0643H9.0206V37.8711H9.72514ZM6.98651 40.4847L5.55469 37.8711H6.37287L7.78196 40.4847H6.98651Z" fill="#0CDD02" fill-opacity="0.703883"/>
<path d="M7.92969 27.7915C8.35772 27.7915 8.7223 27.908 9.02344 28.141C9.32457 28.3758 9.55469 28.7158 9.71378 29.1609C9.87287 29.6078 9.95241 30.1476 9.95241 30.7802C9.95241 31.409 9.87287 31.9459 9.71378 32.391C9.55279 32.8379 9.32173 33.1789 9.0206 33.4137C8.71757 33.6505 8.35393 33.7688 7.92969 33.7688C7.50545 33.7688 7.14276 33.6505 6.84162 33.4137C6.53859 33.1789 6.30753 32.8379 6.14844 32.391C5.98745 31.9459 5.90696 31.409 5.90696 30.7802C5.90696 30.1476 5.98651 29.6078 6.1456 29.1609C6.30469 28.7158 6.5348 28.3758 6.83594 28.141C7.13707 27.908 7.50166 27.7915 7.92969 27.7915ZM7.92969 28.4165C7.50545 28.4165 7.1759 28.6211 6.94105 29.0302C6.7062 29.4393 6.58878 30.0226 6.58878 30.7802C6.58878 31.284 6.64276 31.7129 6.75071 32.0671C6.85677 32.4213 7.01018 32.6912 7.21094 32.8768C7.4098 33.0624 7.64938 33.1552 7.92969 33.1552C8.35014 33.1552 8.67874 32.9478 8.91548 32.533C9.15223 32.1201 9.2706 31.5359 9.2706 30.7802C9.2706 30.2764 9.21757 29.8484 9.11151 29.4961C9.00545 29.1438 8.85298 28.8758 8.65412 28.6921C8.45336 28.5084 8.21188 28.4165 7.92969 28.4165Z" fill="#0CDD02" fill-opacity="0.703883"/>
<path d="M4.46342 47.8867L4.46342 53.7049H2.49751C2.04297 53.7049 1.66986 53.6272 1.3782 53.4719C1.08653 53.3185 0.87062 53.1074 0.730469 52.8384C0.590317 52.5695 0.520241 52.2636 0.520241 51.9208C0.520241 51.578 0.590317 51.274 0.730469 51.0089C0.87062 50.7437 1.08558 50.5354 1.37536 50.3839C1.66513 50.2343 2.03539 50.1594 2.48615 50.1594H4.07706V50.7958H2.50888C2.19827 50.7958 1.94827 50.8413 1.75888 50.9322C1.56759 51.0231 1.42933 51.1519 1.34411 51.3185C1.25698 51.4871 1.21342 51.6879 1.21342 51.9208C1.21342 52.1538 1.25698 52.3574 1.34411 52.5316C1.43123 52.7058 1.57043 52.8403 1.76172 52.935C1.95301 53.0316 2.20585 53.0799 2.52024 53.0799H3.75888L3.75888 47.8867H4.46342ZM1.72479 50.5004L0.292969 47.8867H1.11115L2.52024 50.5004H1.72479Z" fill="#0CDD02" fill-opacity="0.703883"/>
<path d="M2.66797 37.8072C3.096 37.8072 3.46058 37.9237 3.76172 38.1566C4.06286 38.3915 4.29297 38.7314 4.45206 39.1765C4.61115 39.6235 4.6907 40.1632 4.6907 40.7958C4.6907 41.4246 4.61115 41.9615 4.45206 42.4066C4.29107 42.8536 4.06001 43.1945 3.75888 43.4293C3.45585 43.6661 3.09221 43.7844 2.66797 43.7844C2.24373 43.7844 1.88104 43.6661 1.5799 43.4293C1.27687 43.1945 1.04581 42.8536 0.886719 42.4066C0.725734 41.9615 0.645241 41.4246 0.645241 40.7958C0.645241 40.1632 0.724787 39.6235 0.883878 39.1765C1.04297 38.7314 1.27308 38.3915 1.57422 38.1566C1.87536 37.9237 2.23994 37.8072 2.66797 37.8072ZM2.66797 38.4322C2.24373 38.4322 1.91418 38.6367 1.67933 39.0458C1.44448 39.4549 1.32706 40.0382 1.32706 40.7958C1.32706 41.2996 1.38104 41.7286 1.48899 42.0827C1.59505 42.4369 1.74846 42.7068 1.94922 42.8924C2.14808 43.078 2.38767 43.1708 2.66797 43.1708C3.08842 43.1708 3.41702 42.9634 3.65376 42.5487C3.89051 42.1358 4.00888 41.5515 4.00888 40.7958C4.00888 40.292 3.95585 39.864 3.84979 39.5117C3.74373 39.1594 3.59126 38.8915 3.3924 38.7077C3.19164 38.524 2.95017 38.4322 2.66797 38.4322Z" fill="#0CDD02" fill-opacity="0.703883"/>
<path d="M53.9831 84.6055H59.2188L59.2188 6.55427H53.9831L53.9831 84.6055Z" fill="url(#paint0_linear_394_5900)"/>
<path d="M48.2644 80.0117H53.5L53.5 1.96052H48.2644L48.2644 80.0117Z" fill="url(#paint1_linear_394_5900)"/>
<path d="M42.8659 78.3203H48.1016L48.1016 0.269112H42.8659L42.8659 78.3203Z" fill="url(#paint2_linear_394_5900)"/>
<path d="M37.3894 80.0938H42.625L42.625 2.04255H37.3894L37.3894 80.0938Z" fill="url(#paint3_linear_394_5900)"/>
<path d="M37.4895 10.0078H32.2539L32.2539 88.059H37.4895L37.4895 10.0078Z" fill="url(#paint4_linear_394_5900)"/>
<path d="M69.4622 10.8789H64.2266L64.2266 82.889H69.4622L69.4622 10.8789Z" fill="url(#paint5_linear_394_5900)"/>
<path d="M64.3138 13.4688H59.0781L59.0781 85.4788H64.3138L64.3138 13.4688Z" fill="url(#paint6_linear_394_5900)"/>
<path d="M31.9427 11.4375H26.707L26.707 83.4476H31.9427L31.9427 11.4375Z" fill="url(#paint7_linear_394_5900)"/>
<path d="M43.0481 57.5312H37.8125L37.8125 89.2672H43.0481V57.5312Z" fill="url(#paint8_linear_394_5900)"/>
<path d="M48.2591 57.1602H43.0234L43.0234 88.8961H48.2591V57.1602Z" fill="url(#paint9_linear_394_5900)"/>
<path d="M53.5286 57.2734H48.293L48.293 89.0094H53.5286V57.2734Z" fill="url(#paint10_linear_394_5900)"/>
<path d="M59.3372 54.8828H54.1016L54.1016 86.6188H59.3372V54.8828Z" fill="url(#paint11_linear_394_5900)"/>
<path d="M75.5989 42.9219H70.3633V74.6579H75.5989V42.9219Z" fill="url(#paint12_linear_394_5900)"/>
<path d="M81.2942 37.707H76.0586V69.443H81.2942V37.707Z" fill="url(#paint13_linear_394_5900)"/>
<path d="M87.3918 33.0352H82.6797V59.8729H87.3918V33.0352Z" fill="url(#paint14_linear_394_5900)"/>
<path d="M15.8581 77.3008H21.0938L21.0938 10.9291H15.8581L15.8581 77.3008Z" fill="url(#paint15_linear_394_5900)"/>
<path d="M10.5066 73.7148H15.7422L15.7422 15.4844H10.5066L10.5066 73.7148Z" fill="url(#paint16_linear_394_5900)"/>
<path d="M26.6823 36.2383H31.918L31.918 4.20767H26.6823L26.6823 36.2383Z" fill="url(#paint17_linear_394_5900)"/>
<path d="M10.0636 38.2695H5.35156L5.35156 65.1073H10.0636L10.0636 38.2695Z" fill="url(#paint18_linear_394_5900)"/>
<path d="M26.3332 56.4766H21.6211L21.6211 83.3143H26.3332L26.3332 56.4766Z" fill="url(#paint19_linear_394_5900)"/>
<path d="M32.2567 28.4609H36.9688V1.62319H32.2567V28.4609Z" fill="url(#paint20_linear_394_5900)"/>
<path d="M59.5028 33.9609H64.2148V7.12319H59.5028V33.9609Z" fill="url(#paint21_linear_394_5900)"/>
<path d="M71.6434 42.7969H76.3555V15.9591H71.6434V42.7969Z" fill="url(#paint22_linear_394_5900)"/>
<path d="M75.8661 44.4141H80.5781V17.5763H75.8661V44.4141Z" fill="url(#paint23_linear_394_5900)"/>
<path d="M21.2997 33.6133H26.0117L26.0117 6.77554H21.2997L21.2997 33.6133Z" fill="url(#paint24_linear_394_5900)"/>
</g>
<defs>
<linearGradient id="paint0_linear_394_5900" x1="56.6009" y1="7.15837" x2="56.9876" y2="83.7585" gradientUnits="userSpaceOnUse">
<stop/>
<stop offset="1" stop-opacity="0"/>
</linearGradient>
<linearGradient id="paint1_linear_394_5900" x1="51.1238" y1="20.8491" x2="50.8919" y2="79.1654" gradientUnits="userSpaceOnUse">
<stop stop-opacity="0.926199"/>
<stop offset="1" stop-opacity="0"/>
</linearGradient>
<linearGradient id="paint2_linear_394_5900" x1="44.9199" y1="15.0497" x2="46.749" y2="77.4419" gradientUnits="userSpaceOnUse">
<stop stop-opacity="0.95203"/>
<stop offset="1" stop-opacity="0"/>
</linearGradient>
<linearGradient id="paint3_linear_394_5900" x1="39.1235" y1="19.6122" x2="41.7691" y2="79.1764" gradientUnits="userSpaceOnUse">
<stop stop-opacity="0.904059"/>
<stop offset="1" stop-opacity="0"/>
</linearGradient>
<linearGradient id="paint4_linear_394_5900" x1="35.1191" y1="71.3512" x2="34.0994" y2="10.864" gradientUnits="userSpaceOnUse">
<stop stop-opacity="0.870849"/>
<stop offset="1" stop-opacity="0"/>
</linearGradient>
<linearGradient id="paint5_linear_394_5900" x1="66.75" y1="72.6536" x2="66.6266" y2="11.6593" gradientUnits="userSpaceOnUse">
<stop/>
<stop offset="1" stop-opacity="0"/>
</linearGradient>
<linearGradient id="paint6_linear_394_5900" x1="61.1321" y1="71.9951" x2="62.0315" y2="14.2566" gradientUnits="userSpaceOnUse">
<stop/>
<stop offset="1" stop-opacity="0"/>
</linearGradient>
<linearGradient id="paint7_linear_394_5900" x1="29.4054" y1="76.4883" x2="28.9008" y2="12.2199" gradientUnits="userSpaceOnUse">
<stop stop-opacity="0.894834"/>
<stop offset="1" stop-opacity="0"/>
</linearGradient>
<linearGradient id="paint8_linear_394_5900" x1="40.5109" y1="86.2002" x2="40.4129" y2="57.8747" gradientUnits="userSpaceOnUse">
<stop/>
<stop offset="1" stop-opacity="0"/>
</linearGradient>
<linearGradient id="paint9_linear_394_5900" x1="45.7218" y1="85.8291" x2="45.6238" y2="57.5036" gradientUnits="userSpaceOnUse">
<stop/>
<stop offset="1" stop-opacity="0"/>
</linearGradient>
<linearGradient id="paint10_linear_394_5900" x1="50.9913" y1="85.9423" x2="50.8933" y2="57.6169" gradientUnits="userSpaceOnUse">
<stop/>
<stop offset="1" stop-opacity="0"/>
</linearGradient>
<linearGradient id="paint11_linear_394_5900" x1="56.7999" y1="83.5517" x2="56.7019" y2="55.2262" gradientUnits="userSpaceOnUse">
<stop/>
<stop offset="1" stop-opacity="0"/>
</linearGradient>
<linearGradient id="paint12_linear_394_5900" x1="73.0616" y1="71.5908" x2="72.9636" y2="43.2653" gradientUnits="userSpaceOnUse">
<stop stop-opacity="0.874539"/>
<stop offset="1" stop-opacity="0"/>
</linearGradient>
<linearGradient id="paint13_linear_394_5900" x1="78.757" y1="66.3759" x2="78.6589" y2="38.0505" gradientUnits="userSpaceOnUse">
<stop stop-opacity="0.874539"/>
<stop offset="1" stop-opacity="0"/>
</linearGradient>
<linearGradient id="paint14_linear_394_5900" x1="85.1082" y1="57.2792" x2="85.0303" y2="33.3256" gradientUnits="userSpaceOnUse">
<stop stop-opacity="0.874539"/>
<stop offset="1" stop-opacity="0"/>
</linearGradient>
<linearGradient id="paint15_linear_394_5900" x1="17.6728" y1="35.8699" x2="19.4376" y2="76.5464" gradientUnits="userSpaceOnUse">
<stop/>
<stop offset="1" stop-opacity="0"/>
</linearGradient>
<linearGradient id="paint16_linear_394_5900" x1="13.7711" y1="29.2305" x2="13.0648" y2="73.0805" gradientUnits="userSpaceOnUse">
<stop stop-opacity="0.881919"/>
<stop offset="1" stop-opacity="0"/>
</linearGradient>
<linearGradient id="paint17_linear_394_5900" x1="28.497" y1="16.244" x2="28.9086" y2="35.9026" gradientUnits="userSpaceOnUse">
<stop/>
<stop offset="1" stop-opacity="0"/>
</linearGradient>
<linearGradient id="paint18_linear_394_5900" x1="7.78009" y1="62.5136" x2="7.70221" y2="38.5599" gradientUnits="userSpaceOnUse">
<stop stop-opacity="0.726937"/>
<stop offset="1" stop-opacity="0"/>
</linearGradient>
<linearGradient id="paint19_linear_394_5900" x1="24.0496" y1="80.7206" x2="23.9717" y2="56.767" gradientUnits="userSpaceOnUse">
<stop stop-opacity="0.726937"/>
<stop offset="1" stop-opacity="0"/>
</linearGradient>
<linearGradient id="paint20_linear_394_5900" x1="34.5402" y1="4.21687" x2="34.6181" y2="28.1705" gradientUnits="userSpaceOnUse">
<stop stop-opacity="0.726937"/>
<stop offset="1" stop-opacity="0"/>
</linearGradient>
<linearGradient id="paint21_linear_394_5900" x1="61.7863" y1="9.71686" x2="61.8642" y2="33.6705" gradientUnits="userSpaceOnUse">
<stop stop-opacity="0.48524"/>
<stop offset="1" stop-opacity="0"/>
</linearGradient>
<linearGradient id="paint22_linear_394_5900" x1="73.9269" y1="18.5528" x2="74.0048" y2="42.5065" gradientUnits="userSpaceOnUse">
<stop stop-opacity="0.48524"/>
<stop offset="1" stop-opacity="0"/>
</linearGradient>
<linearGradient id="paint23_linear_394_5900" x1="78.1496" y1="20.17" x2="78.2275" y2="44.1237" gradientUnits="userSpaceOnUse">
<stop stop-opacity="0.48524"/>
<stop offset="1" stop-opacity="0"/>
</linearGradient>
<linearGradient id="paint24_linear_394_5900" x1="23.5832" y1="9.36921" x2="23.6611" y2="33.3229" gradientUnits="userSpaceOnUse">
<stop stop-opacity="0.48524"/>
<stop offset="1" stop-opacity="0"/>
</linearGradient>
<clipPath id="clip0_394_5900">
<rect width="90" height="90" fill="white" transform="matrix(0 -1 1 0 0 90)"/>
</clipPath>
</defs>
</svg>
