<svg width="91" height="91" viewBox="0 0 91 91" fill="none" xmlns="http://www.w3.org/2000/svg">
<path d="M37.4519 84.9662H55.3328C67.8692 84.9662 78.0323 75.3843 78.0323 63.5648V28.4957C78.0323 16.6762 67.8692 7.09424 55.3328 7.09424H37.4519L37.4519 84.9662Z" fill="#262626"/>
<path d="M41.1947 13.2081C41.1947 7.22185 45.9977 2.3595 51.9339 2.3595C57.87 2.35971 62.6732 7.22193 62.6732 13.2081C62.6732 13.4932 62.6524 13.7698 62.6332 14.0255L62.5902 14.5988L62.0287 14.4767C59.7211 13.9767 57.3297 13.7082 54.8754 13.7081H41.1947V13.2081Z" fill="#F9BFAB" stroke="black"/>
<path d="M43.9851 6.68901C45.8067 5.1888 48.0853 4.37082 50.4351 4.37356C55.7486 4.37356 60.1151 8.46385 60.6238 13.699C61.1276 13.7836 61.6294 13.8795 62.129 13.9867C62.1485 13.7277 62.1732 13.4711 62.1732 13.2068C62.1732 7.49162 57.5887 2.85846 51.9336 2.85846C50.41 2.85779 48.9054 3.20142 47.5302 3.8642C46.1549 4.52698 44.9437 5.49212 43.9851 6.68901Z" fill="#CB8565" fill-opacity="0.3"/>
<path d="M46.689 13.2077H54.8743C55.6475 13.2077 56.4124 13.2425 57.1736 13.2933C57.1744 13.2645 57.1781 13.2365 57.1781 13.2077C57.1781 11.802 56.6256 10.4539 55.642 9.45988C54.6585 8.46589 53.3245 7.90747 51.9336 7.90747C50.5426 7.90747 49.2086 8.46589 48.2251 9.45988C47.2416 10.4539 46.689 11.802 46.689 13.2077Z" fill="#CB8565"/>
<path d="M41.1947 78.3519H54.8744L55.7767 78.3402C57.8787 78.2834 59.9716 78.0302 62.0287 77.5834L62.5902 77.4613L62.6332 78.0336C62.6524 78.2894 62.6742 78.5667 62.6742 78.8519C62.6742 84.8383 57.8702 89.7006 51.9339 89.7006C45.9979 89.7004 41.1947 84.8381 41.1947 78.8519V78.3519Z" fill="#F9BFAB" stroke="black"/>
<path d="M54.875 78.8523H46.689C46.689 80.258 47.2416 81.6061 48.2251 82.6001C49.2086 83.5941 50.5426 84.1525 51.9336 84.1525C53.3245 84.1525 54.6585 83.5941 55.642 82.6001C56.6256 81.6061 57.1781 80.258 57.1781 78.8523C57.1781 78.8235 57.1744 78.7955 57.1736 78.7667C56.4086 78.8208 55.6419 78.8493 54.875 78.8523Z" fill="#CB8565"/>
<path d="M37.4519 80.8602H54.875C73.909 80.8602 89.3393 65.2661 89.3393 46.03C89.3393 26.7939 73.909 11.1998 54.875 11.1998H37.4519L37.4519 80.8602Z" fill="#FFD2C0"/>
<path d="M37.4519 14.9855H51.1289C70.1629 14.9855 85.5932 30.5796 85.5932 49.8157C85.5932 58.4703 82.4629 66.3805 77.2933 72.472C84.6634 66.0837 89.3393 56.6114 89.3393 46.0298C89.3393 26.7937 73.909 11.1996 54.875 11.1996H37.4519L37.4519 14.9855Z" fill="#FCC4AE"/>
<path d="M90.8377 46.0299C90.8377 66.0701 74.7047 82.3745 54.875 82.3745H37.4511V79.3457H54.8743C73.0519 79.3457 87.84 64.4006 87.84 46.0299C87.84 27.6593 73.0519 12.7141 54.8743 12.7141H37.4511V9.68536H54.8743C74.7047 9.68536 90.8377 25.9897 90.8377 46.0299Z" fill="#58595B"/>
<path d="M68.9775 35.2705C70.2715 35.3622 74.7485 38.5579 74.7485 46.0758C74.7485 53.5936 70.2715 56.7882 68.9775 56.881C67.8161 56.9633 67.3275 56.1512 67.5273 55.1545C67.727 54.1589 69.9868 51.7067 69.9868 46.0768C69.9868 40.4469 67.727 37.9947 67.5262 36.9991C67.3264 36.0035 67.814 35.1893 68.9765 35.2726L68.9775 35.2705Z" fill="#473535"/>
<path d="M48.5466 32.5467C48.5466 28.7187 51.595 25.5994 55.3747 25.5994C59.1544 25.5995 62.2029 28.7187 62.2029 32.5467C62.2028 36.3746 59.1543 39.4938 55.3747 39.494C51.595 39.494 48.5466 36.3747 48.5466 32.5467Z" fill="white" stroke="#CB8565"/>
<path d="M59.4841 32.5467C59.4841 30.2342 57.6442 28.3595 55.3745 28.3595C53.1049 28.3595 51.265 30.2342 51.265 32.5467C51.265 34.8591 53.1049 36.7338 55.3745 36.7338C57.6442 36.7338 59.4841 34.8591 59.4841 32.5467Z" fill="#473535"/>
<path d="M55.505 30.5196C55.505 29.3266 54.5558 28.3596 53.385 28.3596C52.2141 28.3596 51.265 29.3266 51.265 30.5196C51.265 31.7125 52.2141 32.6796 53.385 32.6796C54.5558 32.6796 55.505 31.7125 55.505 30.5196Z" fill="white"/>
<path d="M48.5466 59.4995C48.5466 55.6714 51.595 52.5522 55.3747 52.5522C59.1544 52.5523 62.2029 55.6715 62.2029 59.4995C62.2028 63.3274 59.1543 66.4466 55.3747 66.4467C51.595 66.4467 48.5466 63.3275 48.5466 59.4995Z" fill="white" stroke="#CB8565"/>
<path d="M59.4841 59.4994C59.4841 57.1869 57.6442 55.3123 55.3745 55.3123C53.1049 55.3123 51.265 57.1869 51.265 59.4994C51.265 61.8119 53.1049 63.6865 55.3745 63.6865C57.6442 63.6865 59.4841 61.8119 59.4841 59.4994Z" fill="#473535"/>
<path d="M55.505 57.4723C55.505 56.2793 54.5558 55.3123 53.385 55.3123C52.2141 55.3123 51.265 56.2793 51.265 57.4723C51.265 58.6652 52.2141 59.6323 53.385 59.6323C54.5558 59.6323 55.505 58.6652 55.505 57.4723Z" fill="white"/>
<path d="M51.7778 43.6652C52.2407 61.7742 49.335 74.993 47.8243 79.3388H45.2208L45.2208 12.7194H47.8243C48.9493 15.4893 51.315 25.5562 51.7778 43.6652Z" fill="#CB8565" fill-opacity="0.35"/>
<path d="M69.7482 72.292L60.4857 73.8693C60.0391 73.9456 59.8702 73.2561 60.3134 73.1803L69.5759 71.603C70.0225 71.5267 70.1912 72.2165 69.7482 72.292Z" fill="black" fill-opacity="0.15"/>
<path d="M62.6469 75.5121L63.4675 66.1521C63.5068 65.7008 64.2167 65.7121 64.1776 66.16L63.357 75.52C63.3177 75.9713 62.6076 75.9598 62.6469 75.5121Z" fill="black" fill-opacity="0.15"/>
<path d="M65.8135 75.9731L66.6342 66.6132C66.6735 66.1619 67.3833 66.1731 67.3443 66.6211L66.5237 75.9811C66.4844 76.4324 65.7743 76.4208 65.8135 75.9731Z" fill="black" fill-opacity="0.15"/>
<path d="M68.817 68.0194L61.4167 69.3036C60.9702 69.3799 60.8013 68.6903 61.2445 68.6146L68.6448 67.3304C69.0913 67.2541 69.2601 67.944 68.817 68.0194Z" fill="black" fill-opacity="0.15"/>
<path d="M62.6839 18.5307L53.4213 20.1081C52.9748 20.1844 52.8058 19.4948 53.2491 19.4191L62.5116 17.8418C62.9582 17.7655 63.1269 18.4553 62.6839 18.5307Z" fill="black" fill-opacity="0.15"/>
<path d="M55.5825 21.7508L56.4032 12.3909C56.4425 11.9396 57.1523 11.9508 57.1133 12.3988L56.2927 21.7588C56.2534 22.2101 55.5433 22.1985 55.5825 21.7508Z" fill="black" fill-opacity="0.15"/>
<path d="M58.7492 22.2119L59.5698 12.8519C59.6091 12.4006 60.319 12.4119 60.28 12.8598L59.4594 22.2198C59.42 22.6711 58.71 22.6596 58.7492 22.2119Z" fill="black" fill-opacity="0.15"/>
<path d="M61.7527 14.2582L54.3524 15.5424C53.9058 15.6186 53.7369 14.9291 54.1801 14.8534L61.5805 13.5692C62.027 13.4929 62.1957 14.1827 61.7527 14.2582Z" fill="black" fill-opacity="0.15"/>
<path d="M30.0282 18.13L27.5344 21.3093C27.3499 21.5448 26.9261 21.316 27.1132 21.0779L29.607 17.8983C29.7918 17.6628 30.2155 17.8914 30.0282 18.13Z" fill="#FFE08F"/>
<path d="M35.05 0.748413C37.1337 0.748413 41.4255 5.49661 42.8253 13.24C43.9484 19.9602 44.6496 26.7439 44.9249 33.5515C45.1271 37.431 45.2208 41.5276 45.2208 45.7484C45.2208 49.9693 45.1271 54.0657 44.9249 57.9453C44.6621 64.2755 44.039 70.5857 43.0586 76.8453C41.6438 85.4103 37.2582 90.7484 35.05 90.7484L22.9366 79.0793L12.5622 66.0748L3.10795 51.2416C2.38502 50.5207 1.81223 49.6642 1.4226 48.7214C1.03296 47.7786 0.834184 46.7682 0.837723 45.7484C0.847412 45.9214 0.925805 46.0835 1.05511 46.1982C0.976717 45.9873 0.919464 45.769 0.884583 45.5466V45.5315C0.867398 45.4549 0.857023 45.3769 0.853578 45.2984V45.236C0.888811 44.6633 0.987815 44.0962 1.14883 43.5448C1.16468 43.4829 1.19551 43.4205 1.21066 43.3738C1.21066 43.3587 1.22652 43.3587 1.22652 43.3428V43.3277C1.59435 42.1663 2.2401 41.1117 3.10795 40.2551L12.5622 24.5775L22.9366 11.7192L35.05 0.748413Z" fill="#E6B625"/>
<path d="M1.05532 46.1982C1.77985 46.7681 2.6449 47.1327 3.55949 47.2536L42.5303 57.9453C42.2675 64.2755 41.6444 70.5857 40.664 76.8453L3.55967 49.0689C2.41964 48.4269 1.53532 47.4135 1.05532 46.1982ZM40.4308 13.2398C41.5538 19.9601 42.255 26.7439 42.5303 33.5515L3.55949 44.2434C1.98846 44.6002 1.10218 45.0502 0.884795 45.5315C0.86761 45.4549 0.857235 45.3769 0.85379 45.2984V45.236C0.889023 44.6633 0.988027 44.0962 1.14904 43.5448C1.1649 43.4829 1.19572 43.4205 1.21087 43.3738C1.21087 43.3587 1.22673 43.3587 1.22673 43.3428V43.3277C1.75179 42.3035 2.56175 41.4522 3.55949 40.8757L40.4308 13.2398Z" fill="#FBCC3F"/>
<path d="M39.3928 84.2622L2.29849 47.9669L41.4472 76.3868L39.3928 84.2622Z" fill="#FFE69D"/>
<path d="M35.0502 0.748413H39.7158C42.2192 0.748413 44.9876 7.63816 46.8532 18.3142C47.1023 19.7569 47.3514 21.2779 47.5531 22.8605C48.5626 30.4479 49.0614 38.0944 49.0463 45.7484C49.0607 53.3972 48.5619 61.0383 47.5531 68.6205C47.3514 70.2033 47.1023 71.7241 46.8532 73.1826C44.9876 83.8587 42.2192 90.7484 39.7158 90.7484H35.0502C37.2584 90.7484 39.2493 85.4105 40.664 76.8452C41.6445 70.5855 42.2676 64.2754 42.5303 57.9452C42.7326 54.0657 42.8256 49.9693 42.8256 45.7484C42.8256 41.5276 42.7326 37.4311 42.5303 33.5515C42.2551 26.744 41.5539 19.9602 40.4308 13.24C39.0312 5.49661 37.1339 0.748413 35.0502 0.748413Z" fill="#D4A722"/>
<path d="M14.4902 61.3454L17.9862 64.3945C18.2063 64.5864 18.551 64.2922 18.3311 64.1005C17.166 63.084 16.0005 62.0675 14.8351 61.0514C14.615 60.8592 14.27 61.1535 14.4902 61.3454ZM21.5095 65.5795L25.8352 68.9963C26.0655 69.1782 26.4114 68.8849 26.1801 68.7023C24.7381 67.5634 23.2961 66.4247 21.8544 65.2855C21.6244 65.1036 21.2784 65.3969 21.5095 65.5795ZM12.7782 54.8898L17.8878 58.1393C18.1403 58.2998 18.383 57.9386 18.1339 57.7803L13.0243 54.5308C12.7721 54.3703 12.5294 54.7314 12.7782 54.8898ZM21.7469 40.3749L26.0726 38.9494C26.3629 38.8538 26.2368 38.4515 25.943 38.5484L21.6172 39.9739C21.327 40.0697 21.453 40.472 21.7469 40.3749ZM16.5829 36.1369L24.4445 30.1776C24.6802 29.9989 24.334 29.706 24.0996 29.8836L16.2379 35.8429C16.0026 36.0216 16.3488 36.3145 16.5829 36.1369ZM12.098 35.1735L15.6286 31.9025C15.8414 31.7054 15.4972 31.4107 15.2837 31.6085L11.7531 34.8795C11.5406 35.0764 11.8848 35.371 12.098 35.1735ZM27.5024 23.4631L29.9962 20.5854C30.1835 20.3694 29.7598 20.1625 29.575 20.3757L27.0812 23.2536C26.8941 23.4692 27.3179 23.6763 27.5024 23.4631ZM24.4827 19.6674L27.5024 15.3776C27.6648 15.1469 27.2429 14.9383 27.0812 15.1679L24.0615 19.4577C23.8993 19.6882 24.3213 19.8973 24.4827 19.6674ZM7.88999 42.3899L10.8169 41.2086C11.1011 41.094 10.8535 40.7356 10.5709 40.8496L7.64394 42.031C7.3595 42.1453 7.60733 42.5039 7.88999 42.3899ZM7.64368 48.4736L12.7782 51.8145C13.0283 51.9772 13.2708 51.6158 13.0243 51.4555L7.88973 48.1146C7.63987 47.9519 7.39738 48.3133 7.64368 48.4736ZM28.1498 75.3046L31.9821 78.3803C32.2109 78.5638 32.5566 78.2705 32.3271 78.0863L28.4947 75.0106C28.266 74.8271 27.9203 75.1206 28.1498 75.3046ZM20.1689 69.1343C20.9411 69.8462 21.7133 70.5581 22.4853 71.2704C22.6993 71.4678 23.0432 71.1729 22.8302 70.9764L20.5138 68.8403C20.2998 68.6429 19.9556 68.9378 20.1689 69.1343ZM21.3763 54.6558L25.6588 56.5915C25.9366 56.7172 26.1829 56.3582 25.9048 56.2326C24.4773 55.5872 23.0498 54.9418 21.6223 54.2968C21.3448 54.1714 21.0982 54.5301 21.3763 54.6558ZM28.7835 62.9024L32.0312 64.427C32.307 64.5563 32.553 64.1971 32.2773 64.068C31.1947 63.5595 30.1121 63.0515 29.0295 62.5435C28.754 62.4139 28.5079 62.7731 28.7835 62.9024ZM22.7224 49.2399L27.3567 48.6543C27.6671 48.6151 27.5347 48.2145 27.2271 48.2535L22.5928 48.8391C22.2827 48.8783 22.4149 49.2786 22.7224 49.2399ZM26.1804 31.7398L30.4108 27.4914C30.6131 27.2882 30.2697 26.9925 30.0658 27.1974L25.8354 31.4458C25.6331 31.6493 25.9765 31.9448 26.1804 31.7398ZM19.4107 26.2206L21.8925 23.2271C22.0745 23.0077 21.6513 22.8004 21.4713 23.0174L18.9895 26.0108C18.8075 26.2303 19.2307 26.4376 19.4107 26.2206ZM30.7412 15.2015L34.3743 10.6034C34.5504 10.3802 34.1277 10.1725 33.9531 10.3937C32.7422 11.9265 31.531 13.459 30.3203 14.9918C30.1436 15.2147 30.5663 15.4227 30.7412 15.2015Z" fill="#AD913F"/>
<path d="M36.3635 71.429L32.081 69.4933C31.8029 69.3676 32.0495 69.0088 32.3271 69.1343C33.7546 69.7792 35.1821 70.4246 36.6096 71.07C36.8877 71.1957 36.6414 71.5546 36.3635 71.429Z" fill="#AD913F"/>
<path d="M37.0269 64.068L31.1829 61.3257C30.9049 61.2 31.1514 60.8413 31.429 60.9667C32.8565 61.6117 35.8454 63.0636 37.2729 63.709C37.551 63.8347 37.3047 64.1936 37.0269 64.068Z" fill="#AD913F"/>
<path d="M35.3755 50.8699L30.7412 51.4555C30.4337 51.4943 30.3015 51.0939 30.6116 51.0547L35.2459 50.4691C35.5534 50.4301 35.6859 50.8307 35.3755 50.8699Z" fill="#AD913F"/>
<path d="M38.3052 40.3749L31.429 42.031C31.1351 42.128 31.0091 41.7257 31.2993 41.6299L38.1756 39.9739C38.4694 39.8771 38.5955 40.2794 38.3052 40.3749Z" fill="#AD913F"/>
<path d="M25.6588 56.5915L21.3763 54.6558C21.0982 54.5301 21.3448 54.1714 21.6223 54.2968C23.0498 54.9418 24.4773 55.5872 25.9048 56.2326C26.1829 56.3582 25.9366 56.7172 25.6588 56.5915Z" fill="#AD913F"/>
<path d="M41.3094 58.5273L37.0269 56.5915C36.7488 56.4659 36.9954 56.1071 37.2729 56.2326C38.7004 56.8775 40.1279 57.5229 41.5554 58.1683C41.8335 58.2939 41.5872 58.6529 41.3094 58.5273Z" fill="#AD913F"/>
<path d="M26.0726 38.9494L21.7469 40.3749C21.453 40.472 21.327 40.0697 21.6172 39.9739L25.943 38.5484C26.2368 38.4515 26.3629 38.8538 26.0726 38.9494Z" fill="#AD913F"/>
<path d="M39.5716 28.7521L35.2459 30.1776C34.952 30.2747 34.826 29.8723 35.1162 29.7766L39.442 28.3511C39.7358 28.2542 39.8619 28.6565 39.5716 28.7521Z" fill="#AD913F"/>
<path d="M39.9928 19.6674L37.499 22.5451C37.3144 22.7583 36.8907 22.5512 37.0778 22.3356L39.5716 19.4577C39.7564 19.2445 40.1801 19.4514 39.9928 19.6674Z" fill="#AD913F"/>
<path d="M1.52414 46.0248C1.46061 45.8539 1.41448 45.6764 1.38449 45.4974V45.476L1.37277 45.4222L1.35324 45.2767V45.2552C1.38677 44.7241 1.47999 44.1974 1.62961 43.6849L1.63351 43.6693C1.6338 43.6684 1.63676 43.6602 1.64621 43.6361C1.64859 43.63 1.65108 43.624 1.65402 43.6166C1.65679 43.6096 1.65951 43.6007 1.66281 43.5922C1.66372 43.5898 1.66376 43.587 1.66476 43.5844C1.68021 43.5551 1.6953 43.5231 1.70578 43.4867C1.7097 43.4731 1.71185 43.4591 1.71457 43.4457L1.84445 43.0785V43.0775C2.20087 42.1519 2.75086 41.3104 3.45969 40.6107L3.50363 40.5668L3.53586 40.5131L12.9695 24.8695L23.3015 12.0629L35.2419 1.24841H39.7155C40.1056 1.24841 40.6193 1.52386 41.2321 2.30115C41.8312 3.06099 42.4493 4.20697 43.0603 5.71521C44.2038 8.53815 45.2873 12.5405 46.1843 17.4135L46.3611 18.3998C46.6097 19.8396 46.8571 21.3529 47.0573 22.9242L47.0583 22.9271C48.0648 30.4921 48.5617 38.1161 48.5466 45.7474V45.7494C48.561 53.3756 48.0641 60.9942 47.0583 68.5541L47.0573 68.557L46.8991 69.725C46.7332 70.882 46.5467 72.0064 46.3601 73.099V73.1C45.4305 78.4188 44.2798 82.771 43.0603 85.7816C42.4493 87.2899 41.8312 88.4358 41.2321 89.1957C40.6193 89.973 40.1056 90.2484 39.7155 90.2484H35.2507L23.3044 78.7406L12.9714 65.7875L3.53 50.973L3.49973 50.9261L3.46164 50.8871C2.78545 50.2128 2.24889 49.4114 1.88449 48.5297C1.57075 47.7703 1.38954 46.9641 1.34738 46.1459L1.52414 46.0248ZM1.57785 43.7054C1.58016 43.7031 1.58329 43.7003 1.58664 43.6967C1.58078 43.7031 1.57551 43.7087 1.57297 43.7113L1.57785 43.7054Z" stroke="black"/>
<path d="M24.758 11.4845C24.662 11.4915 24.5701 11.5321 24.5023 11.6019C24.4346 11.6717 24.3967 11.7642 24.3969 11.8602C24.3971 11.9562 24.4354 12.0486 24.5034 12.118C24.5714 12.1876 24.6635 12.2278 24.7595 12.2345C25.0159 12.259 25.3827 12.7433 25.6124 13.2126C25.8579 13.699 26.0446 14.2094 26.2247 14.7611C27.5216 19.1169 28.0509 23.768 28.6238 28.3655C29.2956 34.1243 29.615 39.9211 29.6681 45.7364C29.6382 56.1567 29.3469 66.8478 26.3925 76.784C26.1923 77.3334 25.9834 77.8408 25.7144 78.3214C25.4635 78.784 25.0596 79.2662 24.796 79.2625C24.6977 79.265 24.6035 79.305 24.5342 79.3753C24.4648 79.4455 24.426 79.54 24.4262 79.6383C24.4264 79.7365 24.4657 79.8308 24.5353 79.9008C24.605 79.9707 24.6993 80.0103 24.7976 80.0125C25.7456 79.9278 26.0781 79.2387 26.4286 78.748C26.7603 78.2136 27.0054 77.6837 27.2421 77.1131C30.7439 66.9856 31.324 56.2945 31.5293 45.7353C31.5685 39.8529 31.2927 33.9842 30.6101 28.1319C30.0239 23.4517 29.2332 18.7627 27.3431 14.3263C27.0848 13.7587 26.8167 13.2335 26.4593 12.7048C26.0862 12.2219 25.7142 11.5356 24.758 11.4845Z" fill="#D4A722"/>
<path d="M13.5222 25.3074C13.4286 25.319 13.3389 25.3603 13.2729 25.4296C13.2068 25.4989 13.1698 25.5895 13.17 25.6831C13.1702 25.7768 13.2076 25.8672 13.2739 25.9362C13.3402 26.0052 13.4301 26.0462 13.5238 26.0574C13.5324 26.0667 13.7471 26.3099 13.8534 26.5834C13.9748 26.8599 14.069 27.1584 14.1593 27.4803C14.8036 30.0287 15.0632 32.7596 15.4001 35.4519C15.7999 38.8585 16 42.2926 16.0512 45.7391C16.0795 51.8215 15.9358 58.0574 14.3767 63.878C14.2754 64.1947 14.162 64.5065 14.03 64.7871C13.9122 65.0581 13.6853 65.3673 13.6172 65.3876C13.5258 65.4216 13.4494 65.4887 13.4057 65.5766C13.3619 65.6645 13.3543 65.7657 13.3846 65.8583C13.4149 65.9509 13.4808 66.0279 13.5681 66.073C13.6554 66.118 13.7566 66.1269 13.8505 66.1004C14.4222 65.8629 14.5609 65.4865 14.7663 65.1744C14.9496 64.8534 15.098 64.5219 15.2332 64.1887C17.3238 58.2091 17.7638 51.9535 17.9097 45.738C17.9526 42.2241 17.797 38.7178 17.3863 35.2169C17.036 32.442 16.5151 29.6734 15.2773 27.0443C15.1087 26.7066 14.9329 26.393 14.6997 26.0745C14.5786 25.9105 14.4466 25.7531 14.2811 25.6111C14.1026 25.4628 13.8745 25.2943 13.5222 25.3074Z" fill="#D4A722"/>
</svg>
