<svg width="90" height="90" viewBox="0 0 90 90" fill="none" xmlns="http://www.w3.org/2000/svg">
<g clip-path="url(#clip0_394_6106)">
<mask id="mask0_394_6106" style="mask-type:luminance" maskUnits="userSpaceOnUse" x="0" y="0" width="90" height="90">
<path d="M0 0L0 90H90V0H0Z" fill="white"/>
</mask>
<g mask="url(#mask0_394_6106)">
<path d="M23.1895 79.6456C22.5875 78.9366 22.0472 78.2906 21.4994 77.6542C20.7235 76.7509 19.9463 75.849 19.1567 74.9594C19.0037 74.7869 18.8113 74.635 18.6102 74.5419C17.3247 73.9479 16.0232 73.3936 14.7427 72.786C12.6208 71.7787 10.515 70.7289 8.39309 69.7202C7.15944 69.1331 5.87397 68.743 4.52435 68.676C3.38322 68.6198 2.28774 68.8525 1.22556 69.3124C1.00967 69.4054 0.761707 69.4533 0.528547 69.4506C0.14488 69.4465 -0.0191957 69.2467 0.00177639 68.8183C0.0141129 68.5583 0.074562 68.2914 0.157217 68.045C0.585295 66.7667 1.04421 65.5007 1.45872 64.217C1.86213 62.9647 2.21742 61.6932 2.60849 60.4368C3.25122 58.3701 4.10491 56.4075 5.0758 54.5106C6.14907 52.4125 7.24949 50.3322 8.35361 48.2546C8.70521 47.5922 8.91616 46.8914 8.92356 46.1291C8.94083 44.2157 8.94207 42.3024 8.94824 40.389C8.94824 40.3411 8.92973 40.2932 8.91246 40.2125C8.80513 40.1933 8.69164 40.1632 8.57814 40.1523C7.95021 40.0975 7.32105 40.0633 6.69558 39.9867C6.44762 39.9565 6.19719 39.8649 5.96896 39.7499C5.71359 39.6226 5.65561 39.4433 5.70496 39.1354C5.76294 38.7754 5.93812 38.4962 6.18855 38.2622C7.05704 37.4451 7.92307 36.6226 8.78909 35.8014C8.98278 35.618 9.174 35.4305 9.36521 35.2443C9.77972 34.8392 10.0832 34.3534 10.2473 33.7648C10.7062 32.1129 11.1676 30.461 11.6253 28.8077C11.7906 28.2082 11.8054 27.6074 11.6944 26.986C11.1232 23.8026 10.9418 20.589 11.154 17.3508C11.3465 14.4042 11.8152 11.5095 12.5813 8.6792C12.9391 7.3571 13.4856 6.1444 14.3887 5.1618C15.2695 4.201 16.3255 3.6344 17.553 3.5618C19.6761 3.4346 21.7425 3.7466 23.7015 4.7252C24.681 5.2151 25.5631 5.8652 26.3588 6.6645C26.3921 6.6974 26.4242 6.733 26.4575 6.7672C27.004 7.3228 27.1964 7.342 27.8466 6.9122C28.2981 6.6139 28.7472 6.3128 29.2024 6.024C32.4062 3.993 35.7617 2.3588 39.3467 1.3515C43.6435 0.144401 48.0082 -0.212899 52.4247 0.118401C55.6248 0.359201 58.757 1.0052 61.8177 2.0741C66.4908 3.7055 70.7222 6.2594 74.5589 9.629C78.794 13.3476 82.3149 17.7491 84.9487 22.9992C86.9793 27.0449 88.3548 31.3533 89.1629 35.8917C89.7834 39.3817 90.0672 42.9032 89.9894 46.4603C89.8858 51.2779 89.0839 55.9477 87.5468 60.4518C85.3608 66.8598 82.1113 72.515 77.685 77.3134C74.1814 81.1114 70.1424 84.0266 65.6741 86.2314C62.6998 87.7 59.6193 88.7648 56.4081 89.3656C53.4844 89.9117 50.5409 90.0992 47.5789 89.9514C40.5791 89.601 34.1321 87.262 28.1513 83.2765C27.2495 82.6757 26.3082 82.3445 25.2793 82.2268C24.2813 82.1132 23.2845 81.9736 22.2865 81.8504C22.0065 81.8162 21.7647 81.7054 21.5673 81.4823C21.3526 81.24 21.3366 81.058 21.5044 80.7706C21.7092 80.4202 22.02 80.2218 22.3507 80.0534C22.6048 79.9234 22.8639 79.8043 23.1895 79.6456ZM26.5093 44.9835C26.5093 44.8056 26.5142 44.625 26.5081 44.4443C26.4402 42.5186 26.8078 40.7079 27.68 39.0355C28.5448 37.378 29.7797 36.1381 31.286 35.232C31.6191 35.0322 31.8066 34.7913 31.9041 34.3917C32.0817 33.6649 32.3803 32.9888 32.7676 32.3702C34.158 30.1544 36.0603 29.2018 38.4782 29.6001C38.9014 29.6699 39.3097 29.8588 39.7538 30.0025C39.7686 29.8725 39.7945 29.7465 39.7958 29.6193C39.8143 27.7223 39.834 25.8254 39.8426 23.9285C39.8439 23.7163 39.8019 23.5001 39.7563 23.2921C39.3652 21.4704 39.2517 19.6419 39.6613 17.8066C39.887 16.7965 40.2263 15.8385 40.8592 15.0447C41.4834 14.2618 42.2643 13.9689 43.171 14.2878C43.5794 14.4315 43.9643 14.671 44.343 14.9023C44.5429 15.0241 44.7316 15.1186 44.9635 15.1487C46.6166 15.3649 48.0353 16.1273 49.1987 17.4521C50.378 18.7947 51.022 20.4439 51.3724 22.2478C51.8782 24.8496 51.8301 27.4705 51.534 30.0942C51.5007 30.3884 51.4513 30.6786 51.4081 30.9797C51.5019 31.0303 51.5673 31.0659 51.6327 31.1001C52.2396 31.4231 52.8737 31.6982 53.4486 32.0828C54.1135 32.5276 54.7267 33.0682 55.3595 33.5732C55.5051 33.6896 55.6211 33.8347 55.8357 33.7676C56.6191 33.5226 57.3889 33.2366 58.0477 32.6918C58.2956 32.4865 58.5411 32.2347 58.6941 31.9432C59.2295 30.9236 59.2295 29.7972 59.1863 28.6448C59.0445 28.6284 58.9421 28.6161 58.8397 28.6051C57.6998 28.4792 56.9139 27.7648 57.0348 26.3304C57.057 26.0649 56.9658 25.8993 56.8054 25.7255C56.3119 25.1904 55.9838 24.5416 55.8061 23.8026C55.7481 23.5631 55.7173 23.3153 55.6679 23.0402C55.1659 23.0224 54.6724 23.006 54.1802 22.9882C53.6855 22.9704 53.6534 22.9814 53.5115 22.4462C53.3055 21.6661 53.0995 20.8778 52.986 20.0785C52.6739 17.8996 52.643 15.7057 52.817 13.5091C52.8799 12.7125 52.9724 11.9173 53.2352 11.166C53.5103 10.3776 53.8816 9.7029 55.0289 9.8042C56.4785 9.9315 57.9317 10.0232 59.3788 10.1751C61.4538 10.3927 63.5251 10.6541 65.5976 10.8909C66.1885 10.9579 66.5081 11.2152 66.6438 11.8612C66.7449 12.3444 66.8227 12.8439 66.8375 13.3394C66.8806 14.8695 66.8942 16.3996 66.9053 17.9298C66.909 18.4444 66.8843 18.9617 66.856 19.4763C66.7869 20.7122 66.2354 21.3924 65.1436 21.6114C65.0881 21.6223 65.0339 21.6442 64.9771 21.6606C64.9438 22.0781 64.9315 22.4764 64.8772 22.8678C64.7242 23.96 64.3233 24.8701 63.3351 25.3217C63.3117 25.3327 63.2956 25.3683 63.2611 25.4121C63.4449 26.429 63.4868 27.4678 63.3795 28.5175C63.2734 29.559 62.9576 30.5349 62.5912 31.5107C63.9766 31.69 65.2966 31.8597 66.6524 32.0335C67.3322 28.9254 68.91 26.8847 72.0287 26.7876C72.0151 26.648 72.004 26.5521 71.9978 26.4563C71.9337 25.5791 71.8325 24.7018 71.8165 23.8245C71.8017 22.9896 71.9386 22.1657 72.2668 21.3992C72.8157 20.1182 73.9926 19.5297 75.2288 19.9006C75.8727 20.0936 76.4094 20.4864 76.8461 21.0256C78.4733 23.0361 79.0913 25.4121 78.8656 28.0795C78.8434 28.3423 78.7891 28.601 78.7385 28.9349C81.1429 28.8035 83.514 28.6516 85.89 28.4833C85.89 28.4012 85.9023 28.3478 85.8875 28.3054C85.8209 28.1028 85.7518 27.9003 85.6753 27.7004C84.6601 25.0193 83.3474 22.5215 81.8288 20.1565C78.1476 14.4192 73.4943 9.8945 67.9477 6.488C64.3825 4.2982 60.6531 2.5997 56.6203 1.8059C54.7822 1.4446 52.9329 1.2557 51.0677 1.4623C50.5952 1.5144 50.1054 1.5951 49.6712 1.7908C47.8528 2.612 46.059 3.5044 44.2418 4.331C42.4111 5.1631 40.573 5.9788 38.6571 6.555C38.6226 6.566 38.5966 6.6098 38.5461 6.6577C38.667 6.7398 38.7644 6.8123 38.868 6.8739C39.554 7.2859 40.2374 7.702 40.9283 8.1043C42.136 8.8092 43.3487 9.5003 44.5552 10.2079C44.8192 10.3626 45.0807 10.5337 45.3127 10.7403C45.61 11.0058 45.5841 11.1838 45.2485 11.363C45.0881 11.4493 44.9167 11.5232 44.7427 11.5683C43.5892 11.8626 42.4333 12.1459 41.2786 12.4361C40.8259 12.5497 40.3608 12.629 39.9278 12.8056C37.9823 13.6008 36.1108 14.5793 34.3307 15.7605C33.8569 16.0753 33.4178 16.4571 32.9798 16.8321C32.8231 16.9662 32.7133 17.1702 32.5925 17.3289C32.643 17.4097 32.6554 17.4453 32.6776 17.4617C32.7763 17.5356 32.8787 17.6054 32.9798 17.6766C34.0963 18.4635 35.1572 19.3326 36.0997 20.3673C36.7745 21.1091 37.3815 21.9084 37.7701 22.8842C38.1402 23.8135 38.1883 24.7497 37.7923 25.6858C37.421 26.5617 36.7881 26.9094 35.948 26.6425C35.5347 26.5111 35.1128 26.3373 34.7563 26.0772C34.158 25.6406 33.588 25.1466 33.0452 24.6265C32.5678 24.1694 32.0496 23.8997 31.418 23.9066C30.8925 23.9121 30.3682 23.9052 29.8426 23.9093C29.7279 23.9107 29.6132 23.9326 29.491 23.9449C29.459 24.0818 29.4306 24.1926 29.4084 24.3049C29.0531 26.1128 28.588 27.8825 27.9243 29.5837C27.4518 30.7949 26.8893 31.9459 26.1108 32.9574C25.3534 33.9428 24.4158 34.5559 23.2599 34.8091C21.3144 35.2361 19.3812 35.2142 17.4604 34.6928C16.3193 34.3821 15.214 33.966 14.3627 32.9834C14.1185 32.7014 13.8076 32.7206 13.5263 32.9834C11.6906 34.6983 9.85497 36.4132 8.02176 38.1308C7.95144 38.1965 7.89963 38.2868 7.80711 38.4073C8.93096 38.6919 10.0079 38.8822 11.0985 38.9643C11.7141 39.0108 12.3173 38.9602 12.9243 38.7836C13.7891 38.5318 14.6786 38.551 15.5606 38.7084C15.7851 38.748 16.0417 38.7699 16.2009 39.0875C15.9085 39.4967 15.6174 39.9155 15.3164 40.3247C12.9095 43.6012 10.573 46.938 8.36595 50.3869C5.32499 55.1361 3.1698 60.3314 1.82635 65.951C1.68201 66.5546 1.57469 67.1705 1.44022 67.8329C1.60059 67.8219 1.68571 67.8219 1.77084 67.8096C2.48389 67.7083 3.19324 67.5687 3.90876 67.5099C5.78391 67.3552 7.58628 67.6769 9.28256 68.6144C10.2621 69.1564 11.2441 69.6942 12.2199 70.2417C14.2542 71.3831 16.2922 72.5163 18.4572 73.3321C20.0721 73.9411 21.7141 74.3667 23.4412 74.2162C24.1444 74.1546 24.8476 74.0875 25.5508 74.067C26.7795 74.0314 28.0094 74.026 29.2381 74.0164C29.401 74.015 29.5651 74.0602 29.7267 74.0916C29.9228 74.13 30.019 74.286 29.9907 74.4872C29.9623 74.6966 29.9265 74.9361 29.8143 75.0907C29.6107 75.37 29.3652 75.6204 29.1049 75.8367C28.7348 76.146 28.3129 76.3814 27.9527 76.7044C26.5414 77.9704 25.1461 79.2569 23.7472 80.5393C23.6867 80.5954 23.6423 80.6734 23.5535 80.7897C23.72 80.8075 23.8212 80.8185 23.9211 80.8308C25.7111 81.0306 27.5024 81.2195 29.2912 81.433C30.3386 81.5575 31.3366 81.9326 32.3544 82.2077C34.9894 82.918 37.6529 82.803 40.3114 82.3692C41.9004 82.1105 43.4597 81.6917 45.0104 81.2318C45.3719 81.1251 45.7395 81.0361 46.1096 80.9718C46.5599 80.8938 46.7832 81.1346 46.6919 81.626C46.645 81.8751 46.529 82.131 46.3847 82.3322C46.096 82.7346 45.7703 83.1055 45.4545 83.4832C44.6107 84.4878 43.894 85.5909 43.3659 86.8377C43.3203 86.9472 43.2993 87.069 43.2574 87.2155C43.4597 87.2155 43.6077 87.2251 43.7558 87.2141C45.7185 87.0759 47.6714 86.8213 49.591 86.3505C51.7277 85.8263 53.8458 85.2118 55.9813 84.6767C56.9448 84.4358 57.9255 84.2825 58.9026 84.1142C59.1444 84.0731 59.4627 83.9964 59.6206 84.2537C59.7958 84.5384 59.5762 84.8341 59.4417 85.0749C59.0593 85.7702 58.6435 86.4422 58.2426 87.1251C58.176 87.2387 58.1143 87.3551 58.0501 87.47C58.0748 87.4988 58.0995 87.5275 58.1242 87.5563C64.5392 85.7196 70.2732 82.4157 75.2892 77.5981C79.5688 73.4881 82.8565 68.5542 85.1856 62.81C84.7008 62.7019 78.984 62.7169 78.5991 62.8292C78.5991 62.9948 78.5991 63.1741 78.5991 63.3547C78.5991 64.0869 78.6115 64.8192 78.5954 65.5514C78.5633 66.9104 77.854 67.7453 76.6376 67.8712C76.2342 67.9123 75.8308 67.9424 75.4262 67.9684C74.8303 68.0053 74.2332 68.0327 73.6127 68.0656C73.4967 68.7252 73.382 69.3589 73.2759 69.994C73.1106 70.9739 72.907 71.9511 72.8022 72.9393C72.7035 73.8727 72.3099 74.5241 71.5747 74.9429C70.9455 75.3015 70.2596 75.4192 69.5688 75.4261C68.0847 75.4425 66.5981 75.4575 65.1153 75.3973C62.1631 75.2783 59.211 75.1195 56.2613 74.9484C55.7284 74.9169 55.1844 74.8143 54.6749 74.6377C53.2216 74.1341 52.1483 73.1432 51.6388 71.4981C51.6154 71.4228 51.5759 71.3544 51.5488 71.2914C51.1071 71.2613 50.6865 71.2558 50.2719 71.1984C47.59 70.8261 45.2966 69.5464 43.3376 67.503C41.1737 65.2448 38.9778 63.0262 36.6623 60.961C35.7864 60.1809 34.8587 59.4746 33.947 58.7438C33.8125 58.6357 33.6435 58.5809 33.4486 58.4796C33.419 58.7931 33.4116 59.0257 33.3746 59.2515C33.2574 59.9701 33.1562 60.6941 32.9959 61.4003C32.8639 61.9847 32.611 62.5226 32.2347 62.9688C31.6684 63.638 30.9603 63.9227 30.1535 63.727C29.3627 63.5354 28.9149 62.9031 28.6781 62.0709C28.6472 61.9642 28.6164 61.8588 28.5794 61.7356C28.4104 61.7534 28.2623 61.7616 28.1155 61.7863C27.1927 61.9423 26.265 61.9916 25.3336 61.9382C24.3405 61.8821 23.366 61.7069 22.437 61.2881C20.8727 60.5819 19.9475 59.3077 19.7032 57.4545C19.5503 56.2953 19.6823 55.1607 20.1091 54.0836C20.8801 52.1401 22.0718 50.5977 23.7064 49.4836C23.9396 49.3248 23.9951 49.1921 23.9026 48.9156C23.868 48.8102 23.8101 48.6966 23.7323 48.631C23.5017 48.4352 23.3869 48.1629 23.3326 47.87C23.2574 47.4649 23.1821 47.0502 23.1846 46.641C23.192 45.4325 23.8125 44.7509 24.9068 44.7741C25.436 44.7851 25.9529 44.9069 26.5093 44.9835ZM43.3006 39.1778C43.2599 39.1805 43.2389 39.1751 43.2327 39.1833C43.1328 39.3064 43.0329 39.4283 42.9354 39.5542C41.9522 40.8256 40.7666 41.7481 39.2739 42.1204C37.6122 42.5337 36.0529 42.1559 34.5823 41.2828C33.1328 40.4219 32.1964 39.0888 31.7795 37.3192C31.7055 37.0058 31.6635 36.6828 31.6018 36.3324C31.4945 36.3954 31.4131 36.4323 31.3403 36.4857C30.4249 37.1686 29.6082 37.972 28.9581 38.967C27.6813 40.9201 27.2187 43.0989 27.511 45.4831C27.5357 45.687 27.6036 45.843 27.7454 45.9963C28.1723 46.4603 28.6114 46.9215 28.9754 47.4443C30.2275 49.2427 31.2317 51.2122 32.0891 53.2706C32.3766 53.9618 32.6184 54.6844 32.8096 55.4153C32.9428 55.9271 33.134 56.3747 33.4585 56.7593C33.873 57.2506 34.3664 57.6215 34.8846 57.965C35.1473 58.1388 35.4064 58.184 35.7 58.1279C37.1693 57.8501 38.6546 57.8076 40.1387 57.7953C42.1039 57.7789 44.0654 57.9048 46.0208 58.1361C47.5332 58.3154 49.0173 58.6192 50.4348 59.2502C51.8165 59.8633 53.0748 60.6996 54.0593 61.9546C54.5268 62.5513 54.9056 63.237 55.3694 63.9514C55.531 63.9651 55.7839 64.0089 56.0368 64.0062C57.6406 63.9829 59.2468 64.0007 60.8481 63.9076C62.6936 63.7995 64.512 63.4546 66.2823 62.8401C68.1365 62.1968 69.8402 61.2539 71.265 59.7538C71.8399 59.1475 72.2692 58.4386 72.5641 57.6215C73.0255 56.3432 73.1192 55.0019 73.0995 53.6511C73.0736 51.8527 72.8281 50.0735 72.6393 48.2888C72.5357 47.2993 72.4296 46.2988 72.4481 45.3065C72.4876 43.1414 73.567 41.7974 75.4977 41.4648C76.1441 41.3539 76.8103 41.3868 77.4691 41.3662C77.8133 41.3553 78.1599 41.3991 78.5029 41.369C79.8315 41.2526 80.7383 40.3493 80.927 38.9397C80.9751 38.5811 80.9838 38.2033 80.9369 37.8461C80.7703 36.6034 80.4188 35.4209 79.8747 34.315C79.3467 33.2434 78.5103 32.8205 77.4358 32.9218C76.8115 32.9806 76.5315 33.3009 76.5796 33.9961C76.6129 34.4711 76.7227 34.9446 76.8387 35.4072C77.0336 36.1901 77.115 36.9716 76.9571 37.7736C76.8745 38.1951 76.8732 38.191 76.4933 38.2225C75.3423 38.3197 74.1888 38.3977 73.0415 38.5332C72.479 38.5989 71.9176 38.7385 71.3724 38.9095C70.7272 39.1121 70.346 39.6267 70.2004 40.3548C70.0474 41.1226 69.9512 41.9014 70.0166 42.6829C70.0931 43.6094 70.1881 44.5374 70.346 45.4502C70.7062 47.5237 71.1133 49.5876 71.4908 51.657C71.5685 52.0799 71.6314 52.511 71.6462 52.9394C71.6672 53.5266 71.4242 53.7606 70.9036 53.7319C70.8148 53.7264 70.7272 53.7182 70.6877 53.7141C70.3287 54.2779 70.0301 54.8418 69.6465 55.3249C69.0432 56.0859 68.4005 56.8113 67.7442 57.5161C66.6857 58.6535 65.4101 59.3651 63.9902 59.7744C62.3568 60.2465 60.6963 60.263 59.0297 60.1234C58.5387 60.0823 58.0501 59.9824 57.5653 59.8784C57.284 59.8182 57.025 59.6717 56.8486 59.3994C56.7326 59.2228 56.7203 59.0285 56.8017 58.8327C56.8819 58.6411 57.0447 58.6712 57.194 58.6712C57.2544 58.6712 57.3136 58.6822 57.3741 58.6836C58.6781 58.7014 59.9833 58.7534 61.2872 58.7246C62.4901 58.6986 63.6879 58.5221 64.8118 58.0157C66.9361 57.059 68.472 55.3455 69.6613 53.2172C69.9413 52.7177 70.0746 52.1483 70.1362 51.5639C70.1979 50.9877 70.0869 50.4526 69.8056 49.8928C69.6909 50.0612 69.6107 50.1775 69.5342 50.2938C69.3035 50.6428 69.0876 51.0042 68.8421 51.3395C65.7913 55.5138 61.8819 57.4066 57.0348 56.7798C56.2428 56.6771 55.4693 56.4582 54.7587 56.0407C54.5515 55.9189 54.343 55.7561 54.1999 55.5562C54.1061 55.4235 54.0778 55.1758 54.1135 55.0047C54.1604 54.7843 54.3775 54.7351 54.5601 54.7665C54.9142 54.8268 55.2658 54.9089 55.6137 55.0047C55.853 55.0704 56.0849 55.1717 56.344 55.2647C56.1997 54.8747 56.0603 54.5448 55.9591 54.2013C55.9023 54.0069 55.9431 53.803 56.1232 53.6744C56.3131 53.5389 56.5019 53.5635 56.6647 53.7154C56.8362 53.8756 56.9917 54.0576 57.1483 54.2369C57.7146 54.8883 58.4128 55.2524 59.2147 55.3345C60.9825 55.5165 62.6541 55.1621 64.1728 54.1055C66.4254 52.537 68.0501 50.3144 69.4207 47.8358C69.4824 47.7249 69.4923 47.5525 69.4725 47.4183C69.3393 46.5164 69.153 45.6227 69.0556 44.7167C68.91 43.3617 68.815 41.9958 68.9988 40.6354C69.1654 39.4023 69.5922 38.332 70.6606 37.7216C70.6828 37.7093 70.6926 37.6682 70.7161 37.6258C70.7025 37.5724 70.6951 37.5067 70.6692 37.4478C69.9315 35.7302 68.8199 34.4396 67.2224 33.6882C65.6692 32.9574 64.0457 32.8889 62.4037 33.0586C60.4928 33.2557 58.667 33.8483 56.8893 34.6285C56.4883 34.805 56.0973 35.0103 55.6902 35.2074C55.6902 35.696 55.6963 36.1449 55.6877 36.5924C55.6828 36.8402 55.6803 37.0947 55.626 37.3329C55.5347 37.7435 55.288 37.9091 54.8291 37.905C54.8291 37.8105 54.8217 37.7147 54.8303 37.6203C54.9142 36.654 54.7624 35.7275 54.4047 34.8488C54.0383 33.9496 53.5041 33.2023 52.7133 32.7096C52.2717 32.4345 51.8029 32.3825 51.3206 32.5235C51.2206 32.5522 51.0689 32.6795 51.0726 32.7548C51.0788 32.8985 51.154 33.0627 51.2465 33.1709C51.3206 33.2585 51.4637 33.2721 51.5747 33.3228C52.3161 33.6595 52.8737 34.2233 53.1883 35.0404C53.6892 36.3434 53.7583 37.6832 53.3635 39.0382C53.0575 40.0879 52.5234 40.9885 51.8264 41.7631C51.4254 42.208 50.9899 42.6144 50.5495 43.0565C50.6174 43.1838 50.6963 43.322 50.7666 43.4657C50.837 43.6122 50.9134 43.7586 50.9591 43.9146C51.0751 44.3061 50.8999 44.536 50.5335 44.4785C50.2658 44.4361 50.0721 44.2554 49.9006 44.0378C49.1283 43.0592 48.4153 42.0314 47.8318 40.9009C47.4284 40.1194 47.0867 39.3092 46.9337 38.4114C46.872 38.0528 46.93 37.7927 47.1681 37.5176C48.6275 35.826 49.628 33.8415 50.177 31.5778C50.7383 29.2593 50.8925 26.8929 50.8234 24.5047C50.7925 23.4495 50.6149 22.4202 50.2843 21.4321C49.6095 19.4134 48.4042 17.938 46.6068 17.0867C46.4217 16.9991 46.2231 16.9484 45.9788 16.8622C46.0084 17.0511 46.022 17.1619 46.0417 17.2714C46.1589 17.8901 46.2909 18.5046 46.3946 19.1259C46.6635 20.756 46.7437 22.397 46.5303 24.0421C46.4007 25.0412 46.1306 25.991 45.5631 26.8026C45.0092 27.595 44.2887 27.9249 43.3845 27.7429C42.6874 27.6033 42.0879 27.2392 41.5167 26.7999C41.3711 26.6876 41.2293 26.5699 41.0282 26.4084C40.9147 27.038 40.8851 27.6142 40.8949 28.1877C40.9196 29.6631 41.191 31.0919 41.6154 32.4879C42.3753 34.9816 43.4992 37.2672 44.8476 39.4255C44.982 39.6404 45.1042 39.8799 45.1696 40.129C45.2645 40.4889 45.1042 40.7353 44.7773 40.8434C44.533 40.9242 44.3183 40.8338 44.158 40.6546C43.9704 40.4452 43.8064 40.2015 43.662 39.9511C43.5177 39.7034 43.4153 39.4296 43.3006 39.1778ZM36.4131 24.5047C36.4069 24.4499 36.4106 24.4143 36.3995 24.3856C36.2897 24.1119 36.1787 23.8395 36.064 23.5685C35.1794 21.4909 33.7583 20.0347 31.8732 19.115C30.9998 18.6893 30.0783 18.4827 29.1395 18.3349C28.25 18.1953 27.8305 17.6943 27.7911 16.7158C27.7479 15.6332 27.6319 14.5615 27.4284 13.5022C27.1853 12.2335 26.9374 10.9648 26.4205 9.7864C25.9122 8.6285 25.1584 7.7375 24.116 7.149C22.8651 6.4428 21.5488 5.9515 20.1782 5.6298C19.4294 5.4547 18.6781 5.2973 17.9058 5.3465C16.8782 5.4109 16.0257 5.842 15.3953 6.7768C14.8599 7.5692 14.4454 8.4314 14.1419 9.358C13.493 11.3398 13.1365 13.3927 12.9428 15.484C12.7516 17.5561 12.7294 19.6351 12.7689 21.7154C12.8071 23.7697 13.0218 25.7967 13.6374 27.7497C14.0161 28.95 14.512 30.0832 15.214 31.0946C15.8653 32.0322 16.7092 32.6125 17.775 32.7808C18.2944 32.8629 18.8101 32.9779 19.3294 33.0545C20.3102 33.1996 21.2897 33.3871 22.284 33.3023C23.7397 33.1777 24.8846 32.4537 25.6544 31.0604C25.8419 30.7224 25.9961 30.357 26.1318 29.9902C26.6758 28.5271 27.0904 27.0175 27.4296 25.4805C27.5653 24.8674 27.685 24.2487 27.8416 23.6424C28.0267 22.9266 28.477 22.4928 29.1197 22.3053C29.7624 22.1178 30.4163 22.0398 31.08 22.0712C32.1829 22.1232 33.2031 22.4777 34.1296 23.1456C34.7328 23.5808 35.3238 24.0366 35.9196 24.4828C36.0701 24.5964 36.2182 24.7319 36.4131 24.5047ZM42.6961 10.7403C42.6171 10.7006 42.5369 10.6609 42.458 10.6199C41.0454 9.8904 39.6218 9.1856 38.2265 8.4177C37.6677 8.1112 37.1459 7.7006 36.6512 7.2749C36.1947 6.8808 36.2145 6.3552 36.6475 5.9159C36.7881 5.7735 36.9645 5.6613 37.1409 5.5778C37.4296 5.441 37.7269 5.3205 38.0279 5.222C39.7526 4.6581 41.4834 4.1161 43.2043 3.5386C44.5527 3.0856 45.8838 2.5723 47.1409 1.8524C47.305 1.758 47.4604 1.6444 47.6344 1.5294C47.5653 1.4624 47.5456 1.4281 47.5234 1.4254C47.4345 1.4158 47.3445 1.4117 47.2544 1.4144C44.945 1.4966 42.6455 1.7087 40.3706 2.1713C38.8643 2.4779 37.3753 2.872 35.9986 3.6481C33.3265 5.1536 30.6618 6.6755 27.9946 8.1933C27.9181 8.2371 27.8528 8.3055 27.7602 8.3794C28.4104 10.9442 29.1407 13.479 29.2381 16.1724C29.723 16.3298 30.1893 16.4557 30.6371 16.6378C30.9282 16.7555 31.1367 16.6761 31.3835 16.5023C32.6467 15.6086 33.8952 14.6834 35.2004 13.869C37.5456 12.4073 39.95 11.0866 42.6961 10.7403ZM77.2865 42.4872C76.2095 42.5624 75.2374 42.7143 74.3788 43.3302C73.8841 43.6861 73.5892 44.1897 73.5979 44.8672C73.6139 46.3467 73.6028 47.8289 73.6608 49.3071C73.7385 51.3176 73.8829 53.324 73.9692 55.3345C73.9951 55.9285 73.9643 56.5348 73.8841 57.1233C73.7052 58.4208 73.2475 59.5869 72.3544 60.4861C71.8004 61.0445 71.2157 61.5659 70.6445 62.1038C70.4644 62.2721 70.2843 62.4405 70.0894 62.6225C70.605 63.8515 71.1849 64.9656 72.0953 65.8292C72.4086 66.1262 72.7689 66.337 73.1772 66.404C73.5473 66.4656 73.9248 66.5423 74.2937 66.5149C75.2793 66.4396 76.2626 66.3288 77.2433 66.196C77.7331 66.1303 77.7652 66.0441 77.7516 65.4638C77.7232 64.1663 77.6874 62.8688 77.6628 61.5728C77.5962 58.1799 77.5308 54.7871 77.4691 51.3929C77.4234 48.8814 77.3864 46.3686 77.342 43.8572C77.3321 43.4274 77.3075 42.999 77.2865 42.4872ZM55.7629 10.9087C55.7913 11.0893 55.8024 11.2015 55.8259 11.311C55.9764 12.0049 56.1491 12.6947 56.2786 13.3941C56.5364 14.7819 56.703 16.1834 56.6684 17.604C56.6351 18.948 56.4526 20.2537 55.8234 21.4389C55.8074 21.469 55.8246 21.5224 55.8271 21.5731C55.8875 21.5731 55.932 21.5785 55.9751 21.5717C57.9403 21.3158 59.9056 21.0612 61.8708 20.8025C62.9872 20.6561 64.1024 20.4946 65.2201 20.3577C65.4681 20.3276 65.6013 20.2113 65.663 19.9553C65.7284 19.683 65.8185 19.4161 65.8715 19.141C66.2317 17.2797 66.191 15.406 65.9973 13.5296C65.9455 13.0259 65.9134 12.5059 65.6803 12.02C62.384 11.6505 59.0926 11.2809 55.7629 10.9087ZM61.8004 69.233C59.9253 69.233 58.0514 69.233 56.1762 69.233C55.8616 69.233 55.5458 69.2179 55.2325 69.2426C55.0955 69.2535 54.9179 69.3014 54.8389 69.4082C54.3479 70.0692 53.7027 70.4826 53.0341 70.8644C52.6961 71.0574 52.6615 71.1258 52.7504 71.5309C52.8984 72.207 53.2414 72.7381 53.778 73.1062C54.38 73.5182 55.0425 73.7002 55.7444 73.7235C56.5685 73.7509 57.3926 73.7714 58.2179 73.796C60.8863 73.8754 63.5535 73.9493 66.2219 74.0396C67.0299 74.067 67.8379 74.1423 68.646 74.197C69.232 74.2367 69.8167 74.2477 70.3793 74.0177C71.1096 73.7194 71.592 73.1829 71.7092 72.2987C71.8819 70.9999 72.0595 69.7024 72.231 68.4022C72.2705 68.1066 72.3173 67.8096 72.321 67.5126C72.326 67.1185 72.1311 66.9049 71.7745 66.8666C71.6561 66.8543 71.5352 66.868 71.4155 66.8653C71.2416 66.8612 71.1602 66.9638 71.0862 67.1362C70.4915 68.5309 69.4294 69.1824 68.0995 69.2179C66.001 69.2754 63.9001 69.233 61.8004 69.233ZM69.1987 33.6184C69.5466 33.2092 69.8377 32.8287 70.1634 32.4879C70.8789 31.7365 71.7104 31.2137 72.7096 31.1425C73.1982 31.1083 73.6953 31.1822 74.1863 31.2342C74.6786 31.2876 75.1646 31.4053 75.6568 31.4423C76.8597 31.5326 77.421 31.018 77.7269 29.9833C77.8059 29.7164 77.8651 29.4386 77.9021 29.1608C78.0699 27.9194 78.0612 26.674 77.8898 25.434C77.7553 24.4581 77.5086 23.5193 77.0694 22.6529C76.7338 21.9891 76.3045 21.4184 75.6753 21.0735C74.3948 20.37 73.1772 20.9941 72.8848 22.5393C72.6825 23.6123 72.7281 24.6853 73.0612 25.7337C73.1649 26.0622 73.2623 26.3989 73.3117 26.7397C73.4079 27.3939 73.1797 27.6744 72.5875 27.6744C71.9078 27.6744 71.2441 27.7743 70.5976 28.0139C68.7657 28.6927 67.5591 30.4007 67.4469 32.5317C68.0131 32.8848 68.5966 33.2461 69.1987 33.6184ZM78.8927 57.2273C79.0112 57.2397 79.0987 57.2574 79.1863 57.2574C81.6277 57.2574 84.0704 57.2588 86.5118 57.2533C86.983 57.252 87.1187 57.1315 87.2285 56.6197C87.6196 54.7761 88.0045 52.9326 88.3894 51.0876C88.4116 50.9809 88.4128 50.8687 88.4239 50.7592C87.6924 50.6456 79.2048 50.6894 78.894 50.8071C78.8927 52.9422 78.8927 55.0786 78.8927 57.2273ZM69.0457 63.0974C67.7491 63.987 67.3161 64.1937 66.1281 64.5194C64.3603 65.0039 62.5591 65.2407 60.7481 65.3598C59.1617 65.4638 57.5715 65.4884 55.9838 65.5514C55.8678 65.5555 55.7518 65.5801 55.5939 65.5993C55.5322 66.3876 55.473 67.1554 55.4101 67.9615C55.6235 67.9793 55.7703 67.9985 55.9171 68.0012C57.9416 68.045 59.966 68.0861 61.9904 68.1299C62.7096 68.1463 63.4301 68.1874 64.1493 68.1833C65.3472 68.1778 66.5475 68.1791 67.7442 68.1121C68.4906 68.0697 69.1715 67.7467 69.7501 67.1992C70.0758 66.8913 70.3164 66.5176 70.4607 66.066C70.5582 65.7621 70.5359 65.4953 70.3632 65.2202C69.9672 64.5933 69.5947 63.9501 69.2098 63.3137C69.1604 63.237 69.0987 63.1686 69.0457 63.0974ZM32.2791 59.0093C32.2717 56.7771 31.666 54.4162 30.5952 52.3358C29.7217 50.6401 28.6682 49.0853 27.5616 47.573C27.289 47.2007 26.9732 46.8572 26.6327 46.5629C26.3539 46.3234 26.0245 46.1318 25.6914 46.0004C25.1498 45.7883 24.6724 45.9977 24.4059 46.489C24.1012 47.0502 24.1395 47.5648 24.5589 48.0329C24.8229 48.3271 25.114 48.5926 25.4076 48.8499C26.4859 49.7929 27.4395 50.8673 28.2352 52.1114C28.8508 53.0749 29.2727 54.1315 29.5194 55.2757C29.9191 57.1274 29.9487 58.9956 29.7205 60.8761C29.6477 61.4797 29.7254 62.0408 30.1214 62.5007C30.4792 62.9154 30.8863 62.9359 31.2761 62.5582C31.5895 62.2543 31.7733 61.8561 31.9189 61.4318C32.1927 60.627 32.2939 59.7922 32.2791 59.0093ZM27.2038 60.6051C25.7864 57.6297 24.2863 54.7446 23.2833 51.5461C22.6245 52.0416 22.1089 52.6109 21.6734 53.272C20.9406 54.3833 20.5939 55.6165 20.663 57.007C20.721 58.1895 21.1886 59.0914 22.0163 59.8017C22.8787 60.5422 23.8742 60.8556 24.9413 60.9144C25.6914 60.9555 26.4279 60.8337 27.2038 60.6051ZM78.6781 49.3071C79.5564 49.4097 88.1439 49.3686 88.4881 49.2633C88.4881 48.2628 88.4881 47.2568 88.4881 46.2577C88.0008 46.1537 79.0445 46.4411 78.6781 46.5712C78.6781 47.4704 78.6781 48.375 78.6781 49.3071ZM31.1737 83.5297C31.1688 83.5585 31.1651 83.5872 31.1602 83.616C31.2761 83.6871 31.3896 83.7638 31.5068 83.8309C33.34 84.8614 35.2312 85.7387 37.1952 86.4176C38.5695 86.8925 39.9623 87.2757 41.3884 87.5138C41.6771 87.5617 41.851 87.4906 42.0077 87.1936C42.7158 85.8441 43.4486 84.5097 44.1715 83.1698C44.2357 83.0494 44.285 82.9193 44.3689 82.7318C44.248 82.7606 44.1913 82.7647 44.1407 82.7866C43.0341 83.2943 41.8634 83.4942 40.6852 83.6228C38.1587 83.8993 35.6285 83.8391 33.0982 83.6748C32.4555 83.6324 31.8152 83.5776 31.1737 83.5297ZM33.1019 34.6339C32.8725 34.7284 32.759 34.9036 32.7072 35.113C32.6443 35.3675 32.5838 35.6303 32.5752 35.8903C32.5493 36.7389 32.7491 37.5395 33.0847 38.2923C33.7657 39.8183 34.818 40.8229 36.3798 41.0501C37.3371 41.1897 38.2956 41.1637 39.2344 40.89C40.5322 40.5136 41.592 39.7567 42.2754 38.4428C42.3852 38.2321 42.4642 37.9857 42.4975 37.7462C42.5591 37.3014 42.4148 36.9415 42.0583 36.7184C41.7573 36.9278 41.4859 37.1358 41.1984 37.3096C40.3312 37.8324 39.3899 38.076 38.419 38.2389C37.2569 38.4346 36.2219 38.1404 35.2818 37.378C34.4972 36.7416 33.873 35.9423 33.3462 35.0432C33.2697 34.909 33.1871 34.7763 33.1019 34.6339ZM78.7003 44.9918C78.9458 44.9918 79.1086 44.9918 79.2727 44.9918C80.2473 44.9918 81.2206 44.9945 82.194 44.9918C84.0519 44.9863 85.9097 44.9808 87.7676 44.9712C88.2315 44.9685 88.4795 44.7851 88.5572 44.343C88.6694 43.7039 88.5991 43.062 88.5929 42.3694C88.1945 42.3694 87.8515 42.364 87.5098 42.3708C85.0227 42.4201 82.5357 42.468 80.0499 42.5241C79.7365 42.5309 79.4195 42.5556 79.1098 42.609C78.662 42.6856 78.4683 42.9265 78.4992 43.426C78.5325 43.9338 78.6263 44.4388 78.7003 44.9918ZM86.2712 29.6535C85.9973 29.6535 85.7592 29.6371 85.5236 29.6562C84.9561 29.7014 84.3887 29.7671 83.8212 29.8191C82.268 29.9614 80.7148 30.0983 79.1617 30.2461C79.0346 30.2584 78.8594 30.294 78.7977 30.3898C78.5683 30.7484 78.345 31.1193 78.2734 31.5778C79.1629 32.1047 80.1227 32.4578 80.7827 33.3953C82.9058 33.1736 85.0462 32.9519 87.2544 32.7206C86.909 31.6407 86.5895 30.6444 86.2712 29.6535ZM78.6707 61.4947C81.0146 61.4947 83.3129 61.4947 85.6346 61.4947C85.9529 60.5559 86.3082 59.6526 86.5772 58.7C85.9431 58.5905 79.0543 58.8204 78.6707 58.9587C78.6707 59.7771 78.6707 60.6024 78.6707 61.4947ZM75.4693 32.815C74.6983 32.6782 73.9593 32.607 73.208 32.685C72.3766 32.7712 71.6401 33.1065 70.9801 33.6636C70.4755 34.0892 70.42 34.3848 70.7716 34.9761C71.1096 35.5441 71.4785 36.0915 71.8387 36.6431C72.0953 37.0359 72.4234 37.2193 72.8824 37.1686C73.7324 37.0742 74.586 37.0263 75.4385 36.9551C75.5384 36.9469 75.6371 36.9072 75.7827 36.8703C75.679 35.5194 75.5754 34.1837 75.4693 32.815ZM81.3761 40.942C81.4945 40.9652 81.5661 40.9912 81.6388 40.9912C83.8125 40.9666 85.985 40.9392 88.1575 40.9077C88.2697 40.9064 88.3808 40.8585 88.4856 40.8352C88.4856 39.9524 88.4856 39.1121 88.4856 38.243C88.1735 38.243 87.8922 38.2307 87.6122 38.2458C85.9208 38.3361 84.2307 38.4333 82.5394 38.5291C82.4049 38.5373 82.2643 38.5263 82.1385 38.5688C82.0509 38.5975 81.9386 38.6851 81.9152 38.7727C81.7264 39.483 81.5562 40.2015 81.3761 40.942ZM87.9576 36.8867C87.8342 36.2202 87.7442 35.6166 87.6073 35.0254C87.4728 34.4437 87.157 34.2206 86.6055 34.2836C85.0413 34.4601 83.4782 34.6463 81.9139 34.8324C81.7893 34.8474 81.6684 34.8981 81.5167 34.9405C81.6795 35.5824 81.8128 36.1791 81.9867 36.7608C82.1237 37.2179 82.3457 37.3739 82.7146 37.3452C83.8952 37.2508 85.0746 37.1563 86.2539 37.055C86.7906 37.0099 87.3247 36.9497 87.9576 36.8867ZM54.7119 21.5772C55.1005 21.0626 55.2929 20.5042 55.4188 19.9239C55.9023 17.693 55.8345 15.4717 55.2793 13.2682C55.1251 12.6564 54.8932 12.0788 54.5626 11.5574C54.4738 11.4164 54.3615 11.2933 54.2529 11.1523C54.2011 11.233 54.174 11.2563 54.1703 11.2837C53.8606 13.5063 53.6534 15.7386 53.7373 17.99C53.7718 18.9042 53.8582 19.8157 54.1629 20.6807C54.2776 21.0051 54.417 21.3117 54.7119 21.5772ZM46.8041 88.2762C46.946 88.4692 47.1064 88.4856 47.2544 88.4965C47.7923 88.5362 48.3314 88.6005 48.8693 88.5882C51.1503 88.5362 53.4104 88.2146 55.6667 87.8601C55.8419 87.8327 56.0319 87.7068 56.1626 87.5686C56.7252 86.9705 57.2705 86.3519 57.8194 85.7373C57.8885 85.6607 57.9403 85.5635 58.0686 85.376C54.2604 86.356 50.5582 87.3099 46.8041 88.2762ZM10.288 39.9333C10.1597 41.6906 9.99314 43.3932 10.0511 45.2381C10.2905 45.0328 10.457 44.9261 10.5841 44.7769C11.2749 43.9721 11.9781 43.1797 12.6332 42.3393C13.0415 41.8152 13.3857 41.2253 13.7323 40.645C13.8853 40.3904 14.0383 40.1085 13.9692 39.7088C12.7652 39.7827 11.5623 39.8553 10.288 39.9333ZM59.7439 32.2416C60.3928 32.3319 60.8826 32.1649 61.2996 31.7489C61.6425 31.4067 61.8782 30.9838 62.0176 30.5048C62.326 29.4413 62.5172 28.3519 62.5012 27.2296C62.4975 26.9586 62.4382 26.6876 62.3975 26.3646C61.6573 26.5439 61.0627 26.8505 60.5804 27.4048C60.3225 27.7018 60.1745 28.059 60.1264 28.4655C60.0351 29.2552 59.945 30.0449 59.8624 30.836C59.8155 31.2945 59.7847 31.7543 59.7439 32.2416ZM24.9376 77.9745C25.8826 77.0848 26.7067 76.3088 27.5308 75.5342C27.516 75.5013 27.4999 75.4699 27.4851 75.437C26.0245 75.5232 24.5589 75.5342 22.9909 75.6779C23.5942 76.3403 24.1172 76.9069 24.6304 77.4859C24.7439 77.6145 24.8204 77.7842 24.9376 77.9745ZM62.1027 24.1119C62.0003 23.6808 61.9238 23.2058 61.7684 22.7651C61.6882 22.5379 61.497 22.3203 61.3057 22.1903C60.9369 21.9412 60.6457 22.1041 60.5322 22.5722C60.5014 22.6981 60.4767 22.8349 60.4866 22.9636C60.5322 23.574 60.5878 24.183 60.6482 24.7921C60.6593 24.9043 60.6988 25.0165 60.7407 25.1233C60.8468 25.3957 60.9961 25.6119 61.302 25.6051C61.5981 25.5982 61.7832 25.408 61.872 25.1274C61.967 24.8181 62.0176 24.491 62.1027 24.1119ZM49.9561 37.7421C49.9537 37.2754 49.8155 36.9702 49.5145 36.7909C49.2036 36.6061 48.9051 36.7293 48.7015 36.9907C48.4104 37.363 48.1673 37.7832 47.9132 38.1896C47.8774 38.2471 47.8688 38.3607 47.8947 38.4251C48.0403 38.7864 48.176 39.1586 48.3647 39.4926C48.5078 39.7458 48.6953 39.7732 48.9063 39.6034C49.4997 39.1217 49.8525 38.4688 49.9561 37.7421ZM51.381 35.2361C51.3884 35.0158 51.3477 34.7256 51.1367 34.5012C50.8567 34.2014 50.5495 34.2124 50.3016 34.5354C50.1659 34.7119 50.0302 34.8885 49.9093 35.076C49.6835 35.4264 49.5848 35.8192 49.6502 36.2489C49.7008 36.5829 49.871 36.8333 50.156 36.951C50.4397 37.0674 50.6828 36.9387 50.8851 36.7129C51.228 36.3283 51.3822 35.8575 51.381 35.2361ZM58.5794 23.8477C58.5942 24.4636 58.6867 24.9673 58.8569 25.2478C59.0087 25.4983 59.2591 25.6406 59.4639 25.5804C59.7094 25.5079 59.776 25.2766 59.7995 25.0439C59.8747 24.2884 59.7785 23.5521 59.5478 22.8377C59.4688 22.5941 59.3085 22.4545 59.079 22.438C58.8989 22.4243 58.7323 22.6146 58.683 22.9088C58.6324 23.2182 58.6139 23.5343 58.5794 23.8477ZM62.8922 24.3692C63.4757 24.0489 63.8199 23.5302 63.984 22.8459C64.0704 22.4832 64.0469 22.1424 63.7965 21.8796C63.5362 21.6059 63.2068 21.584 62.8725 21.6867C62.4962 21.803 62.3655 22.0753 62.5345 22.4668C62.7874 23.0471 62.9712 23.6643 62.8922 24.3692ZM13.3351 31.1152C13.2019 30.8524 13.0785 30.6074 12.9514 30.3638C12.8293 30.1284 12.701 29.8971 12.5616 29.637C11.9312 30.7621 11.4723 32.4633 11.6142 32.9861C12.1644 32.3866 12.7294 31.7721 13.3351 31.1152ZM58.076 24.2446C57.9761 23.8573 57.8626 23.4481 57.7652 23.0334C57.6825 22.6817 57.4605 22.5722 57.1668 22.5475C56.682 22.5078 56.5105 22.7063 56.6401 23.2182C56.756 23.6821 56.9016 24.1365 57.0509 24.5895C57.1064 24.7579 57.194 24.9207 57.2927 25.0644C57.5061 25.3751 57.7146 25.3614 57.8713 25.007C57.9687 24.7893 58.0008 24.5375 58.076 24.2446ZM60.2695 26.6247C60.1905 26.6247 60.1436 26.6124 60.1042 26.6261C59.6132 26.7971 59.1987 26.6548 58.8261 26.2784C58.7188 26.1703 58.5831 26.08 58.4461 26.0307C58.2327 25.9541 58.0625 26.0649 57.9786 26.2907C57.78 26.8245 58.1427 27.5458 58.6546 27.6197C59.153 27.6909 59.6033 27.5485 59.9907 27.1913C60.1375 27.0544 60.2905 26.908 60.2695 26.6247Z" fill="black"/>
<path d="M26.5084 44.982C25.9521 44.9053 25.4352 44.7835 24.9158 44.7726C23.8215 44.7507 23.201 45.4309 23.1936 46.6394C23.1911 47.05 23.2664 47.4647 23.3416 47.8684C23.3959 48.1599 23.5094 48.4337 23.7413 48.6294C23.8191 48.6951 23.8758 48.8087 23.9116 48.914C24.0041 49.1905 23.9486 49.3233 23.7154 49.482C22.0809 50.5961 20.8891 52.1385 20.1181 54.082C19.69 55.1591 19.558 56.2924 19.7122 57.453C19.9565 59.3061 20.8817 60.5803 22.446 61.2865C23.375 61.7053 24.3483 61.8805 25.3426 61.9366C26.274 61.9886 27.2017 61.9407 28.1245 61.7847C28.2713 61.76 28.4194 61.7518 28.5884 61.734C28.6242 61.8586 28.6562 61.964 28.6871 62.0694C28.9239 62.9015 29.3717 63.5338 30.1625 63.7254C30.9693 63.9211 31.6774 63.6364 32.2437 62.9672C32.62 62.5224 32.8729 61.9831 33.0049 61.3987C33.1652 60.6911 33.2664 59.9685 33.3836 59.25C33.4206 59.0228 33.4292 58.7901 33.4576 58.4781C33.6525 58.5793 33.8215 58.6341 33.956 58.7422C34.8664 59.4731 35.7954 60.1793 36.6713 60.9594C38.9881 63.0247 41.1828 65.2432 43.3466 67.5015C45.3056 69.5448 47.599 70.8245 50.281 71.1968C50.6955 71.2543 51.1161 71.2584 51.5578 71.2898C51.5862 71.3528 51.6244 71.4212 51.6478 71.4965C52.1561 73.1416 53.2294 74.1325 54.6839 74.6362C55.1934 74.8127 55.7374 74.9154 56.2703 74.9468C59.2212 75.1179 62.1721 75.2767 65.1243 75.3957C66.6071 75.456 68.0937 75.4409 69.5778 75.4245C70.2686 75.4176 70.9545 75.2999 71.5837 74.9414C72.319 74.5212 72.7113 73.8697 72.8112 72.9377C72.916 71.9495 73.1196 70.9737 73.2849 69.9924C73.3922 69.3573 73.507 68.7237 73.6217 68.064C74.2422 68.0311 74.8393 68.0038 75.4352 67.9668C75.8398 67.9422 76.2432 67.9121 76.6466 67.8696C77.8618 67.7437 78.5723 66.9088 78.6044 65.5498C78.6217 64.8176 78.6081 64.0854 78.6081 63.3531C78.6081 63.1738 78.6081 62.9932 78.6081 62.8276C78.993 62.7154 84.7098 62.7003 85.1946 62.8084C82.8655 68.5526 79.5778 73.4879 75.2982 77.5965C70.2822 82.4141 64.5482 85.718 58.1332 87.5547C58.1085 87.5259 58.0838 87.4972 58.0591 87.4685C58.1233 87.3535 58.185 87.2372 58.2516 87.1236C58.6525 86.4406 59.067 85.7686 59.4507 85.0733C59.5839 84.8311 59.8035 84.5368 59.6296 84.2522C59.4717 83.9949 59.1534 84.0715 58.9116 84.1126C57.9345 84.2795 56.9538 84.4328 55.9903 84.6751C53.8561 85.2088 51.7367 85.8247 49.6 86.3489C47.6804 86.8197 45.7275 87.0743 43.7648 87.2125C43.6168 87.2235 43.4675 87.2139 43.2664 87.2139C43.3071 87.0674 43.3281 86.9443 43.375 86.8361C43.903 85.5893 44.6185 84.4876 45.4635 83.4816C45.7806 83.1039 46.105 82.733 46.3937 82.3306C46.538 82.1294 46.654 81.8749 46.7009 81.6244C46.7922 81.1317 46.5701 80.8922 46.1186 80.9702C45.7485 81.0345 45.3809 81.1235 45.0194 81.2302C43.4687 81.6901 41.9094 82.1089 40.3204 82.3676C37.6619 82.8014 34.9972 82.9164 32.3634 82.2061C31.3444 81.931 30.3463 81.556 29.3002 81.4314C27.5114 81.2179 25.7201 81.029 23.9301 80.8292C23.8302 80.8183 23.729 80.8073 23.5625 80.7882C23.6513 80.6718 23.6957 80.5924 23.7562 80.5377C25.1551 79.2567 26.5504 77.9688 27.9617 76.7028C28.3207 76.3798 28.7426 76.1444 29.1139 75.8351C29.373 75.6188 29.6197 75.3684 29.8233 75.0892C29.9355 74.9345 29.9713 74.6936 29.9997 74.4856C30.0268 74.2844 29.9318 74.1298 29.7357 74.0901C29.5741 74.0586 29.41 74.0134 29.2471 74.0148C28.0184 74.0244 26.7885 74.0298 25.5598 74.0654C24.8553 74.086 24.1522 74.1544 23.4502 74.2146C21.7243 74.3638 20.0823 73.9395 18.4662 73.3305C16.3012 72.5148 14.2632 71.3815 12.2289 70.2401C11.2518 69.6913 10.2711 69.1534 9.29156 68.6128C7.59528 67.6753 5.79292 67.3523 3.91776 67.5083C3.20224 67.5672 2.49166 67.7068 1.77984 67.808C1.69472 67.8204 1.60959 67.8204 1.44922 67.8313C1.58369 67.1689 1.69101 66.5544 1.83535 65.9494C3.17757 60.3285 5.334 55.1331 8.37495 50.3853C10.5832 46.9364 12.9185 43.601 15.3254 40.3231C15.6264 39.9139 15.9175 39.4951 16.2099 39.0859C16.0507 38.7684 15.7941 38.7478 15.5696 38.7068C14.6888 38.5507 13.7981 38.5302 12.9333 38.782C12.3263 38.9586 11.7231 39.0092 11.1075 38.9627C10.0157 38.8806 8.93873 38.6904 7.81611 38.4057C7.9074 38.2866 7.96045 38.1963 8.03076 38.1292C9.86397 36.4116 11.6997 34.6953 13.5353 32.9818C13.8166 32.719 14.1275 32.6985 14.3717 32.9818C15.223 33.9645 16.3296 34.3805 17.4695 34.6912C19.3903 35.214 21.3234 35.2359 23.2689 34.8075C24.4236 34.553 25.3624 33.9412 26.1198 32.9558C26.897 31.9444 27.4608 30.7933 27.9333 29.5821C28.597 27.8809 29.0609 26.1112 29.4174 24.3033C29.4396 24.191 29.468 24.0802 29.5 23.9433C29.6209 23.9296 29.7357 23.9077 29.8516 23.9077C30.3772 23.9036 30.9015 23.9105 31.427 23.905C32.0599 23.8995 32.5768 24.1678 33.0542 24.6249C33.597 25.145 34.167 25.6391 34.7653 26.0757C35.1206 26.3357 35.5437 26.5095 35.957 26.6409C36.7971 26.9078 37.43 26.5601 37.8013 25.6842C38.1973 24.7494 38.1492 23.8119 37.7791 22.8826C37.3905 21.9068 36.7835 21.1061 36.1087 20.3657C35.1662 19.331 34.1053 18.4619 32.9888 17.675C32.8877 17.6038 32.7853 17.534 32.6866 17.4601C32.6631 17.4423 32.652 17.4067 32.6015 17.3273C32.7224 17.1686 32.8309 16.9647 32.9888 16.8305C33.428 16.4555 33.8659 16.0737 34.3397 15.7589C36.1198 14.5778 37.9901 13.5978 39.9368 12.804C40.3698 12.6274 40.8349 12.5481 41.2876 12.4345C42.4423 12.143 43.5982 11.861 44.7517 11.5668C44.9257 11.523 45.0959 11.4477 45.2575 11.3615C45.5918 11.1822 45.619 11.0029 45.3217 10.7387C45.0897 10.5321 44.8282 10.361 44.5642 10.2063C43.3577 9.5001 42.145 8.8076 40.9373 8.1027C40.2476 7.7004 39.563 7.2843 38.8771 6.8723C38.7734 6.8108 38.676 6.7368 38.5551 6.6561C38.6056 6.6082 38.6316 6.563 38.6661 6.5535C40.5807 5.9773 42.4189 5.1616 44.2509 4.3294C46.068 3.5028 47.8605 2.6118 49.6802 1.7892C50.1144 1.5935 50.6054 1.5128 51.0767 1.4608C52.9419 1.2541 54.7912 1.443 56.6293 1.8043C60.6622 2.5981 64.3927 4.2966 67.9567 6.4864C73.5033 9.8929 78.1566 14.4176 81.8378 20.1549C83.3552 22.5199 84.6678 25.0163 85.6844 27.6989C85.7596 27.8987 85.8299 28.0999 85.8966 28.3038C85.9101 28.3462 85.899 28.3996 85.899 28.4817C83.5218 28.6501 81.1507 28.802 78.7475 28.9334C78.7981 28.598 78.8524 28.3394 78.8746 28.078C79.1016 25.4105 78.4823 23.0345 76.8551 21.024C76.4184 20.4848 75.8817 20.092 75.2378 19.899C74.0017 19.5281 72.8247 20.1166 72.2758 21.3977C71.9476 22.1641 71.8094 22.9866 71.8255 23.8229C71.8415 24.7015 71.9427 25.5775 72.0068 26.4548C72.0142 26.5506 72.0253 26.6477 72.0377 26.786C68.919 26.8845 67.3412 28.9238 66.6614 32.0319C65.3056 31.8568 63.9856 31.687 62.6002 31.5091C62.9666 30.5333 63.2824 29.5575 63.3885 28.5159C63.4959 27.4662 63.4539 26.4274 63.2701 25.4105C63.3059 25.3667 63.3207 25.3311 63.3441 25.3202C64.3323 24.8685 64.7332 23.9584 64.8862 22.8662C64.9417 22.4748 64.9528 22.0765 64.9861 21.6591C65.0429 21.6426 65.0971 21.6207 65.1527 21.6098C66.2444 21.3908 66.7959 20.7106 66.865 19.4747C66.8933 18.9601 66.9192 18.4441 66.9143 17.9282C66.902 16.398 66.8884 14.8665 66.8465 13.3378C66.8329 12.8423 66.7552 12.3428 66.6528 11.8596C66.5171 11.2137 66.1988 10.9563 65.6066 10.8893C63.5329 10.6525 61.4628 10.3911 59.3878 10.1735C57.9395 10.0216 56.4875 9.9312 55.0379 9.8026C53.8906 9.7013 53.5193 10.3774 53.2442 11.1644C52.9814 11.9158 52.8889 12.7109 52.826 13.5075C52.6533 15.7041 52.6841 17.8994 52.995 20.0769C53.1097 20.8776 53.3157 21.6659 53.5205 22.4447C53.6624 22.9798 53.6945 22.9689 54.1892 22.9866C54.6814 23.0044 55.1749 23.0209 55.677 23.0387C55.7263 23.3151 55.7571 23.5628 55.8151 23.801C55.994 24.5387 56.3209 25.1888 56.8144 25.7239C56.9748 25.8977 57.066 26.0633 57.0438 26.3288C56.9229 27.7645 57.7088 28.4776 58.8487 28.6035C58.9511 28.6145 59.0535 28.6268 59.1953 28.6432C59.2373 29.7956 59.2373 30.922 58.7031 31.9416C58.5501 32.2331 58.3046 32.4863 58.0567 32.6903C57.3979 33.235 56.6281 33.521 55.8447 33.766C55.6301 33.8331 55.5129 33.6866 55.3685 33.5717C54.7369 33.0666 54.1225 32.5274 53.4576 32.0812C52.884 31.6966 52.2499 31.4229 51.6417 31.0985C51.5763 31.0643 51.5109 31.0287 51.4171 30.9781C51.4603 30.6784 51.5097 30.3868 51.543 30.0926C51.8391 27.4689 51.8884 24.848 51.3814 22.2462C51.031 20.4437 50.387 18.7931 49.2077 17.4505C48.0443 16.1257 46.6256 15.3633 44.9725 15.1471C44.7406 15.117 44.5519 15.0226 44.352 14.9007C43.9733 14.6694 43.5884 14.4299 43.18 14.2862C42.2721 13.9673 41.4924 14.2602 40.8682 15.0431C40.2353 15.8355 39.8961 16.7949 39.6703 17.805C39.2595 19.6403 39.3742 21.4688 39.7653 23.2905C39.8097 23.4985 39.8529 23.7148 39.8516 23.9269C39.8418 25.8238 39.8233 27.7207 39.8048 29.6177C39.8035 29.7436 39.7776 29.8709 39.7628 30.0009C39.3187 29.8572 38.9104 29.6683 38.4872 29.5985C36.0693 29.2002 34.167 30.1528 32.7766 32.3686C32.3893 32.9859 32.0907 33.662 31.9131 34.3901C31.8156 34.7884 31.6281 35.0293 31.295 35.2304C29.7887 36.1365 28.5551 37.3765 27.689 39.0339C26.8168 40.7063 26.4492 42.517 26.5171 44.4427C26.5146 44.6234 26.5084 44.804 26.5084 44.982ZM19.2496 39.6388C19.3088 39.9139 19.4322 40.0946 19.6308 40.1438C19.8418 40.1972 20.0429 40.0987 20.1243 39.8263C20.3167 39.1872 20.7732 38.9353 21.3024 38.8012C21.5923 38.7273 21.897 38.6862 22.1931 38.6999C23.2281 38.7465 24.1361 38.3687 24.9812 37.746C26.0939 36.9248 26.9982 35.8669 27.7988 34.6912C27.8445 34.6255 27.8914 34.5571 27.9222 34.4832C28.0221 34.245 27.9641 33.9987 27.7828 33.8659C27.6175 33.7441 27.4041 33.7619 27.2474 33.9289C27.1623 34.0206 27.0969 34.1355 27.0229 34.2396C26.2481 35.3304 25.3994 36.3336 24.3273 37.0767C23.7167 37.4996 23.0628 37.7542 22.3313 37.735C22.0475 37.7268 21.7601 37.7474 21.4788 37.7898C20.7621 37.8979 20.0984 38.1525 19.6419 38.819C19.4741 39.0612 19.3779 39.3637 19.2496 39.6388ZM40.3574 74.2379C40.1329 74.2557 40.0194 74.4199 39.9306 74.6252C39.674 75.2206 39.2348 75.5709 38.6735 75.7434C38.4144 75.8228 38.1504 75.9117 37.884 75.9309C37.0315 75.9925 36.1791 76.0335 35.3254 76.0609C34.4199 76.091 33.5255 76.1882 32.6878 76.5906C32.3338 76.7603 32.0068 77.0053 31.6787 77.2352C31.5553 77.3214 31.4517 77.4542 31.3592 77.5828C31.1828 77.8292 31.1877 78.0742 31.353 78.2562C31.5319 78.4519 31.7848 78.4587 31.9908 78.2192C32.4571 77.68 33.0419 77.3898 33.6809 77.2448C34.1781 77.1325 34.6876 77.0737 35.1946 77.0395C35.9878 76.9861 36.7823 76.9888 37.5755 76.9396C38.2689 76.8971 38.9424 76.7425 39.5654 76.3784C40.1169 76.0554 40.519 75.5737 40.7497 74.9331C40.8904 74.5513 40.6893 74.2201 40.3574 74.2379ZM12.7557 59.0296C12.7544 59.0187 12.7532 59.0077 12.7507 58.9954C12.0525 59.0912 11.3505 59.1665 10.656 59.2883C9.94293 59.4128 9.24961 59.6263 8.60688 60.0082C8.13192 60.2901 7.74702 60.6651 7.541 61.2413C7.39913 61.6396 7.13636 61.9352 6.82055 62.1761C6.3678 62.5196 5.85953 62.7154 5.32906 62.8413C5.13908 62.8864 4.94293 62.907 4.75541 62.9617C4.54322 63.0247 4.43343 63.2163 4.44947 63.4476C4.46427 63.6802 4.59997 63.8486 4.81956 63.8732C4.93676 63.8869 5.06012 63.8746 5.17732 63.8527C5.83116 63.7295 6.46156 63.5242 7.04261 63.1561C7.63106 62.7824 8.10108 62.2842 8.35892 61.5739C8.47241 61.2632 8.6735 61.0401 8.93257 60.8992C9.22618 60.7377 9.52842 60.5666 9.84547 60.4886C10.561 60.3134 11.2851 60.1724 12.0105 60.0602C12.4695 59.989 12.9382 60.0055 13.4009 59.9617C13.6624 59.937 13.824 59.7167 13.808 59.4635C13.7932 59.2281 13.634 59.0543 13.3861 59.0351C13.1751 59.0159 12.9654 59.0296 12.7557 59.0296ZM21.8699 64.8107C22.6829 64.7656 23.4625 64.6314 24.1781 64.1976C24.3853 64.0717 24.5802 63.9074 24.7517 63.7254C24.9096 63.5571 24.9022 63.3326 24.7776 63.1314C24.6641 62.948 24.4495 62.8933 24.2545 62.9932C24.1879 63.0274 24.1361 63.0972 24.0695 63.1314C23.7339 63.3066 23.4083 63.5269 23.0554 63.6378C22.1684 63.917 21.2765 63.7719 20.3833 63.6104C19.8245 63.5105 19.2546 63.4626 18.6883 63.4489C18.2479 63.438 17.8297 63.5926 17.4769 63.9061C17.1043 64.2359 16.8983 64.6643 16.9007 65.1994C16.902 65.5019 17.0574 65.6962 17.2869 65.7236C17.5114 65.751 17.7137 65.5936 17.7421 65.2884C17.7964 64.7108 18.1282 64.5096 18.5797 64.4193C19.0781 64.3194 19.5642 64.422 20.0527 64.5055C20.6572 64.6109 21.2629 64.7108 21.8699 64.8107ZM28.9622 68.8099C28.9646 68.4951 28.84 68.3021 28.6266 68.2515C28.4169 68.2008 28.1985 68.3144 28.143 68.5786C28.0209 69.1561 27.6434 69.4217 27.198 69.6174C26.522 69.913 25.8114 70.0252 25.0897 70.0649C24.9553 70.0718 24.8171 70.0718 24.69 70.1087C24.4852 70.1676 24.3532 70.3811 24.3767 70.5918C24.4014 70.8108 24.5136 70.9614 24.7098 71.0106C24.8097 71.0366 24.9183 71.0353 25.0219 71.0312C25.7584 71.0024 26.4838 70.897 27.1882 70.6493C27.6483 70.4878 28.0813 70.2647 28.4403 69.8938C28.7352 69.5886 28.9202 69.2191 28.9622 68.8099ZM17.314 43.1685C17.1413 43.2958 16.9859 43.3889 16.8526 43.512C15.9422 44.3497 15.0367 45.1941 14.13 46.0385C14.0387 46.1234 13.9424 46.2096 13.8733 46.315C13.7512 46.5011 13.7734 46.7584 13.9042 46.9131C14.0448 47.0814 14.2385 47.1129 14.4347 46.9884C14.5247 46.9309 14.6049 46.8529 14.6851 46.779C15.5931 45.9373 16.501 45.0956 17.4065 44.2525C17.4978 44.1676 17.6224 44.0855 17.6557 43.9746C17.7038 43.8159 17.7285 43.6092 17.6742 43.4655C17.6274 43.341 17.4546 43.2766 17.314 43.1685ZM41.6256 69.5982C41.6589 69.2519 41.5491 69.0439 41.3641 68.9645C41.1581 68.8756 40.9262 68.9467 40.841 69.1986C40.6621 69.731 40.2748 70.0033 39.8566 70.2319C39.5099 70.4221 39.1435 70.5727 38.7796 70.7219C38.3799 70.8861 38.2442 71.064 38.3182 71.3761C38.3922 71.6895 38.6414 71.788 39.0596 71.6306C39.4273 71.4924 39.7912 71.3377 40.1428 71.1557C40.5783 70.9313 40.994 70.6548 41.2925 70.2237C41.4431 70.0074 41.5467 69.7474 41.6256 69.5982Z" fill="#E3E722"/>
<path d="M43.3023 39.1792C43.417 39.431 43.5194 39.7061 43.6613 39.9524C43.8044 40.2029 43.9685 40.4451 44.1572 40.6559C44.3176 40.8352 44.5322 40.9255 44.7765 40.8448C45.1034 40.7367 45.2638 40.4903 45.1688 40.1304C45.1034 39.8813 44.9813 39.6418 44.8468 39.4269C43.4984 37.2699 42.3746 34.9829 41.6146 32.4893C41.189 31.0946 40.9189 29.6658 40.8942 28.189C40.8843 27.6156 40.9127 27.0394 41.0274 26.4098C41.2285 26.5713 41.3704 26.689 41.5159 26.8012C42.0871 27.2406 42.6867 27.6046 43.3837 27.7442C44.2867 27.9249 45.0084 27.595 45.5623 26.804C46.1298 25.9924 46.4 25.0425 46.5295 24.0434C46.7429 22.3983 46.6628 20.7574 46.3938 19.1273C46.2914 18.5059 46.1594 17.8914 46.041 17.2728C46.02 17.1633 46.0064 17.0525 45.9781 16.8636C46.2223 16.9498 46.4222 17.0005 46.606 17.088C48.4022 17.9407 49.6087 19.4147 50.2835 21.4335C50.6141 22.423 50.793 23.4522 50.8226 24.506C50.8917 26.8943 50.7375 29.2607 50.1762 31.5791C49.6272 33.8429 48.6267 35.8274 47.1673 37.519C46.9305 37.7941 46.8725 38.0541 46.9329 38.4127C47.0859 39.3106 47.4276 40.1208 47.831 40.9023C48.4145 42.0328 49.1276 43.0606 49.8999 44.0392C50.0713 44.2568 50.2663 44.4388 50.5327 44.4799C50.8979 44.5374 51.0743 44.3074 50.9583 43.916C50.9115 43.76 50.8362 43.6135 50.7659 43.4671C50.6968 43.3234 50.6178 43.1852 50.5488 43.0579C50.9879 42.6158 51.4247 42.2093 51.8256 41.7645C52.5226 40.9885 53.0568 40.0893 53.3627 39.0396C53.7575 37.6846 53.6884 36.3447 53.1875 35.0418C52.873 34.2247 52.3166 33.6608 51.5739 33.3241C51.4629 33.2735 51.321 33.2585 51.2458 33.1722C51.1533 33.0641 51.078 32.8999 51.0718 32.7562C51.0694 32.6809 51.2211 32.555 51.3198 32.5249C51.8022 32.3839 52.2709 32.4359 52.7126 32.711C53.5034 33.2023 54.0375 33.951 54.4039 34.8502C54.7617 35.7288 54.9134 36.6554 54.8295 37.6217C54.8209 37.7161 54.8283 37.8119 54.8283 37.9063C55.2872 37.9104 55.534 37.7448 55.6252 37.3342C55.6783 37.0961 55.682 36.8415 55.6869 36.5938C55.6956 36.1463 55.6894 35.6974 55.6894 35.2088C56.0965 35.0117 56.4863 34.805 56.8885 34.6298C58.6674 33.8497 60.4932 33.2571 62.4029 33.06C64.0449 32.8903 65.6684 32.9587 67.2216 33.6896C68.8192 34.441 69.9307 35.7316 70.6684 37.4492C70.6931 37.5067 70.7017 37.5738 70.7153 37.6271C70.6919 37.6682 70.682 37.7093 70.6598 37.7229C69.5914 38.3333 69.1646 39.4036 68.9981 40.6368C68.8142 41.9972 68.9092 43.3631 69.0548 44.718C69.1523 45.6241 69.3373 46.5178 69.4718 47.4197C69.4915 47.5538 69.4816 47.7263 69.42 47.8371C68.0494 50.3157 66.4246 52.5398 64.172 54.1069C62.6546 55.1634 60.9818 55.5179 59.2139 55.3359C58.4121 55.2538 57.7138 54.8897 57.1476 54.2382C56.9909 54.059 56.8355 53.8769 56.664 53.7168C56.5011 53.5649 56.3124 53.5402 56.1224 53.6757C55.9423 53.803 55.9016 54.0069 55.9583 54.2027C56.0595 54.5462 56.1989 54.876 56.3432 55.2661C56.0842 55.1717 55.8522 55.0704 55.6129 55.006C55.265 54.9116 54.9134 54.8295 54.5594 54.7679C54.3768 54.7364 54.1597 54.7857 54.1128 55.006C54.077 55.1785 54.1054 55.4262 54.1991 55.5576C54.3422 55.7588 54.5507 55.9203 54.758 56.0421C55.4686 56.4595 56.2421 56.6785 57.0341 56.7812C61.8799 57.408 65.7906 55.5152 68.8414 51.3408C69.0869 51.0055 69.3028 50.6442 69.5335 50.2952C69.6112 50.1775 69.6901 50.0625 69.8049 49.8942C70.0861 50.454 70.1972 50.9891 70.1355 51.5653C70.0738 52.1497 69.9393 52.7177 69.6605 53.2186C68.4713 55.3455 66.9366 57.0604 64.811 58.017C63.6872 58.5221 62.4893 58.6986 61.2865 58.726C59.9825 58.7547 58.6785 58.7027 57.3733 58.6849C57.3129 58.6836 57.2537 58.6726 57.1932 58.6726C57.0452 58.6712 56.8811 58.6411 56.8009 58.8341C56.7195 59.0298 56.7318 59.2242 56.8478 59.4007C57.0254 59.6717 57.2845 59.8182 57.5646 59.8797C58.0494 59.9838 58.5379 60.0837 59.0289 60.1247C60.6956 60.2643 62.3561 60.2479 63.9894 59.7757C65.4081 59.3665 66.685 58.6535 67.7434 57.5175C68.3997 56.8126 69.0425 56.0873 69.6457 55.3263C70.0282 54.8432 70.3267 54.2793 70.6869 53.7154C70.7276 53.7182 70.8152 53.7277 70.9028 53.7332C71.4234 53.762 71.6664 53.5279 71.6455 52.9408C71.6307 52.511 71.5678 52.0799 71.49 51.6584C71.1125 49.589 70.7042 47.5251 70.3452 45.4516C70.1873 44.5387 70.0923 43.6108 70.0158 42.6842C69.9517 41.9027 70.0467 41.1226 70.1996 40.3562C70.3452 39.6294 70.7264 39.1135 71.3716 38.9109C71.9169 38.7398 72.4782 38.6016 73.0407 38.5345C74.188 38.399 75.3415 38.321 76.4925 38.2239C76.8725 38.1924 76.8737 38.1951 76.9564 37.7749C77.1143 36.9743 77.0328 36.1914 76.8379 35.4086C76.7232 34.946 76.6122 34.4738 76.5789 33.9975C76.5307 33.3022 76.8108 32.9834 77.435 32.9231C78.5083 32.8205 79.3447 33.2448 79.8739 34.3164C80.4192 35.4223 80.7696 36.6034 80.9361 37.8475C80.9842 38.2047 80.9744 38.5824 80.9262 38.941C80.7375 40.3507 79.832 41.254 78.5021 41.3703C78.1604 41.4005 77.8125 41.3567 77.4683 41.3676C76.8108 41.3881 76.1434 41.3553 75.4969 41.4662C73.5663 41.7987 72.4868 43.1427 72.4473 45.3079C72.4288 46.3002 72.5349 47.3006 72.6386 48.2902C72.8261 50.0749 73.0728 51.8527 73.0987 53.6525C73.1185 55.0033 73.0247 56.3459 72.5633 57.6229C72.2685 58.4399 71.8392 59.1489 71.2643 59.7552C69.8394 61.2552 68.1357 62.1982 66.2815 62.8415C64.5125 63.456 62.6928 63.8009 60.8473 63.909C59.246 64.0034 57.6398 63.9857 56.0361 64.0075C55.7832 64.0117 55.5303 63.9665 55.3686 63.9528C54.9036 63.237 54.5261 62.5527 54.0585 61.956C53.0741 60.7009 51.8157 59.8647 50.434 59.2515C49.0166 58.622 47.5325 58.3168 46.02 58.1375C44.0647 57.9062 42.1032 57.7803 40.138 57.7967C38.6539 57.809 37.1685 57.8514 35.6993 58.1293C35.4057 58.1854 35.1466 58.1402 34.8838 57.9664C34.3657 57.6229 33.8722 57.252 33.4577 56.7606C33.1333 56.376 32.9421 55.9299 32.8088 55.4166C32.6176 54.6858 32.377 53.9631 32.0884 53.272C31.231 51.2136 30.2268 49.2441 28.9746 47.4457C28.6107 46.9229 28.1715 46.463 27.7447 45.9977C27.604 45.8444 27.5362 45.6898 27.5103 45.4845C27.2179 43.1003 27.6805 40.9228 28.9574 38.9684C29.6075 37.9734 30.4242 37.17 31.3395 36.4871C31.4111 36.4337 31.4937 36.3954 31.6011 36.3338C31.6628 36.6841 31.7047 37.0071 31.7787 37.3206C32.1957 39.0902 33.1308 40.4246 34.5816 41.2841C36.0521 42.1573 37.6114 42.5351 39.2732 42.1217C40.7659 41.7495 41.9502 40.827 42.9347 39.5555C43.0321 39.4296 43.132 39.3064 43.232 39.1846C43.2406 39.1751 43.2616 39.1819 43.3023 39.1792ZM42.6867 55.83C43.0457 55.7916 43.5428 55.7738 44.0277 55.6794C45.3575 55.418 46.5579 54.8391 47.4856 53.7141C48.586 52.381 48.908 50.8249 48.4553 49.0853C48.1468 47.9001 47.5275 46.9243 46.6936 46.1305C44.7148 44.2486 42.4091 43.5328 39.8382 43.8927C38.628 44.0624 37.5164 44.5511 36.5739 45.4379C35.5352 46.4165 34.9628 47.6496 34.9763 49.1825C34.9899 50.6387 35.5315 51.8637 36.4012 52.9066C38.0555 54.887 40.1565 55.7396 42.6867 55.83Z" fill="#FCA603"/>
<path d="M36.414 24.508C36.2191 24.7352 36.071 24.5997 35.9205 24.4874C35.3247 24.0413 34.7338 23.5855 34.1305 23.1503C33.2053 22.4824 32.185 22.1279 31.0809 22.0759C30.4172 22.0444 29.7634 22.1224 29.1206 22.3099C28.4767 22.4974 28.0276 22.9327 27.8426 23.6471C27.6859 24.2534 27.5662 24.872 27.4305 25.4852C27.0913 27.0221 26.6768 28.5317 26.1327 29.9948C25.9958 30.363 25.8416 30.727 25.6553 31.0651C24.8855 32.4584 23.7407 33.1837 22.285 33.3069C21.2906 33.3918 20.3111 33.2043 19.3303 33.0592C18.811 32.9825 18.2953 32.8676 17.7759 32.7855C16.7101 32.6171 15.865 32.0354 15.2149 31.0993C14.5117 30.0879 14.0158 28.9547 13.6383 27.7544C13.0227 25.8013 12.808 23.7744 12.7698 21.7201C12.7315 19.6397 12.7525 17.5608 12.9437 15.4887C13.1374 13.3974 13.4939 11.3431 14.1428 9.36269C14.4463 8.43469 14.8621 7.57389 15.3962 6.78139C16.0266 5.84659 16.8803 5.41549 17.9067 5.35119C18.679 5.30189 19.4303 5.45929 20.1791 5.63449C21.5497 5.95479 22.866 6.44609 24.1169 7.15369C25.1594 7.74219 25.9131 8.63319 26.4214 9.79099C26.9383 10.9694 27.185 12.2368 27.4293 13.5069C27.6328 14.5662 27.7488 15.6378 27.792 16.7204C27.8315 17.699 28.2509 18.1999 29.1404 18.3395C30.0792 18.4873 31.0019 18.694 31.8741 19.1197C33.7592 20.038 35.1803 21.4956 36.0649 23.5732C36.1796 23.8442 36.2906 24.1179 36.4004 24.3903C36.4115 24.4176 36.4091 24.4532 36.414 24.508ZM16.8396 21.9691C16.5855 22.028 16.3671 22.0759 16.15 22.1293C15.8872 22.1936 15.622 22.2538 15.3629 22.3318C15.2099 22.377 15.0927 22.4824 15.0915 22.6808C15.0903 22.8779 15.1976 22.9943 15.353 23.038C15.511 23.0818 15.6775 23.1215 15.8379 23.112C16.5411 23.0736 17.2442 23.0285 17.945 22.9628C18.2114 22.9381 18.4767 22.8656 18.737 22.7917C18.9331 22.737 19.0343 22.5686 19.0293 22.3455C19.0256 22.1402 18.9146 22.0006 18.7419 21.9445C18.5556 21.8829 18.3632 21.8501 18.1732 21.8008C17.9018 21.7296 17.6341 21.6489 17.4293 21.2739C17.7821 21.215 18.0733 21.1726 18.3619 21.1151C18.563 21.0741 18.8011 21.07 18.8603 20.7798C18.8961 20.6019 18.6938 20.4075 18.4014 20.3076C18.0461 20.1858 17.718 20.335 17.3984 20.4609C16.7755 20.7073 16.6249 21.0672 16.8125 21.7693C16.826 21.8145 16.8273 21.8638 16.8396 21.9691ZM16.3844 25.1266C16.3696 25.0007 16.3535 24.9213 16.3523 24.8419C16.3449 24.56 16.3585 24.2767 16.3313 23.9961C16.3091 23.758 16.1673 23.6047 15.944 23.5841C15.7392 23.565 15.5985 23.6854 15.5295 23.8921C15.4887 24.0139 15.453 24.1494 15.4591 24.278C15.49 25.0568 15.5307 25.8342 15.5763 26.6129C15.5813 26.7087 15.6208 26.8086 15.6664 26.8921C15.8144 27.1645 16.1019 27.1741 16.245 26.9017C16.3104 26.7785 16.3301 26.6211 16.3548 26.4761C16.3856 26.3009 16.4004 26.123 16.4251 25.9177C16.6114 25.9177 16.7594 25.9163 16.9062 25.9177C17.4453 25.9218 17.9844 25.9368 18.5223 25.9245C18.7111 25.9204 18.9072 25.8698 19.0861 25.7986C19.2576 25.7315 19.3464 25.5426 19.302 25.3551C19.2687 25.2128 19.1687 25.0472 19.0552 24.9788C18.9195 24.8967 18.7382 24.8775 18.5791 24.883C18.2361 24.8939 17.8919 24.9309 17.5502 24.9706C17.1678 25.0144 16.7878 25.0718 16.3844 25.1266ZM24.5166 15.7145C24.4216 15.3039 24.3785 15.0083 24.2847 14.7332C24.1305 14.2788 23.7518 14.0803 23.3854 14.2624C22.9511 14.4786 22.7476 14.9043 22.6859 15.4024C22.6304 15.85 22.7994 16.2168 23.1362 16.4686C23.4952 16.7355 23.9035 16.8422 24.3303 16.7984C25.0903 16.7191 25.5998 15.8431 25.358 15.0493C25.2938 14.8386 25.1865 14.6374 24.9607 14.6346C24.7041 14.6319 24.6733 14.8755 24.6326 15.0877C24.5993 15.2574 24.5697 15.4284 24.5166 15.7145ZM23.4508 23.1188C23.3249 23.1352 23.2509 23.1558 23.1794 23.1516C22.7426 23.1297 22.5958 22.9696 22.5588 22.492C22.5502 22.377 22.5514 22.2552 22.5169 22.1498C22.4515 21.95 22.2775 21.8816 22.1159 21.9979C22.0197 22.0677 21.9321 22.1717 21.8729 22.2812C21.5978 22.7917 21.7458 23.4445 22.2603 23.7867C22.5082 23.9509 22.813 24.0262 23.1016 24.0933C23.3212 24.1439 23.542 24.1357 23.7172 24.3341C23.8233 24.4546 23.9862 24.4546 24.0762 24.3164C24.2465 24.0549 24.4846 24.0289 24.7399 23.9742C24.9854 23.9222 25.2173 23.7853 25.4505 23.6745C25.5739 23.6156 25.7318 23.5267 25.6602 23.3556C25.6146 23.2475 25.4628 23.164 25.3444 23.1325C25.2025 23.0942 25.0471 23.1229 24.8978 23.1229C24.7066 23.1229 24.5154 23.1229 24.3168 23.1229C24.2748 22.9012 24.2526 22.7219 24.207 22.5494C24.1354 22.2812 23.9911 22.1649 23.79 22.184C23.5914 22.2032 23.473 22.3551 23.4532 22.6343C23.4421 22.7794 23.4508 22.9272 23.4508 23.1188ZM17.3158 11.5634C17.1135 11.2705 17.1135 11.2705 17.2097 10.8736C17.2788 10.5876 17.169 10.4302 16.9037 10.4357C16.6434 10.4411 16.4189 10.6601 16.3622 11.005C16.2783 11.5128 16.3906 11.9644 16.7421 12.3175C17.1875 12.7623 17.6785 12.6802 17.9795 12.1081C18.1041 11.8714 18.1991 11.6154 18.3471 11.2787C18.3471 11.5716 18.3397 11.7646 18.3496 11.9549C18.3607 12.1725 18.4557 12.3367 18.6543 12.3969C18.8542 12.4571 19.0084 12.3641 19.1169 12.182C19.2785 11.9111 19.3661 11.6113 19.3106 11.2842C19.2341 10.8312 19.1145 10.396 18.6543 10.2495C18.3027 10.1387 17.9746 10.3631 17.6834 10.8805C17.5601 11.1022 17.4429 11.328 17.3158 11.5634ZM18.3471 17.157C18.3471 17.4239 18.3459 17.5868 18.3471 17.7497C18.3496 17.9837 18.4162 18.1767 18.637 18.256C18.8394 18.3286 19.017 18.2341 19.1576 17.9823C19.4031 17.5416 19.36 17.0913 19.1786 16.6465C18.9269 16.0293 18.3632 15.9088 17.9363 16.3892C17.8019 16.5411 17.7032 16.7327 17.5971 16.9134C17.5008 17.079 17.417 17.2542 17.3207 17.4376C17.0555 17.2323 17.1307 17.001 17.2011 16.756C17.2911 16.4453 17.1641 16.2838 16.8729 16.3112C16.6422 16.3331 16.451 16.5261 16.3733 16.8162C16.2363 17.3254 16.4424 17.9686 16.8433 18.2766C17.2516 18.59 17.6995 18.4956 17.9585 18.0206C18.0893 17.7784 18.1868 17.5156 18.3471 17.157ZM23.901 18.371C24.2921 18.2957 24.619 18.2506 24.9373 18.1643C25.1692 18.1014 25.2852 17.9043 25.2605 17.6935C25.2334 17.4677 25.1051 17.3445 24.9065 17.3035C24.3513 17.1871 23.827 17.261 23.3693 17.6497C22.9968 17.9659 22.9289 18.3956 23.1658 18.8432C23.2472 18.9965 23.3496 19.1374 23.4532 19.303C23.3743 19.3551 23.2916 19.3824 23.2534 19.4427C23.1892 19.5426 23.1016 19.6767 23.1189 19.7752C23.1374 19.8738 23.2669 20.0106 23.357 20.0202C23.9084 20.075 24.4624 20.1092 25.0163 20.1256C25.2173 20.1311 25.3444 19.9737 25.3864 19.7561C25.432 19.5179 25.358 19.3263 25.1594 19.2141C25.0533 19.1552 24.9348 19.1238 24.8238 19.0745C24.4883 18.9267 24.17 18.7556 23.901 18.371ZM17.8253 13.032C17.8253 13.0374 17.8241 13.0429 17.8241 13.0484C17.6304 13.0484 17.4367 13.0429 17.243 13.0498C17.0703 13.0552 16.9112 13.1018 16.884 13.3344C16.8581 13.5726 17.0049 13.6479 17.1752 13.6958C17.19 13.6999 17.2048 13.7026 17.2196 13.7053C17.6464 13.7765 18.0733 13.8504 18.5001 13.9175C18.5877 13.9312 18.679 13.9325 18.7678 13.9229C18.9689 13.901 19.1083 13.7806 19.1256 13.552C19.1416 13.3399 19.0047 13.2236 18.8431 13.1565C18.7604 13.1223 18.6703 13.1059 18.5815 13.0963C18.3299 13.0717 18.077 13.0539 17.8253 13.032ZM17.8574 18.9404C17.8574 18.9349 17.8574 18.9294 17.8574 18.9253C17.6489 18.9253 17.4404 18.9212 17.2319 18.9267C17.0555 18.9308 16.9 18.9801 16.8828 19.2182C16.8667 19.4577 17.0148 19.5302 17.19 19.5604C17.66 19.6425 18.1312 19.7218 18.6025 19.7971C18.674 19.8081 18.769 19.8204 18.8196 19.7807C18.9331 19.6904 19.091 19.5781 19.1083 19.455C19.1243 19.3359 19.0108 19.1511 18.9072 19.069C18.7949 18.9814 18.6284 18.9609 18.4828 18.9472C18.2756 18.9253 18.0659 18.9404 17.8574 18.9404ZM24.07 20.6279C24.07 20.6224 24.07 20.6169 24.07 20.6115C23.8764 20.6115 23.6827 20.6115 23.489 20.6115C23.3089 20.6115 23.151 20.6689 23.1312 20.8948C23.1115 21.1233 23.2558 21.2123 23.4347 21.2424C23.9208 21.3245 24.4056 21.4053 24.8917 21.4846C24.9348 21.4915 24.9817 21.4915 25.0249 21.4819C25.1976 21.445 25.337 21.356 25.3679 21.1466C25.3987 20.9331 25.2975 20.7935 25.1285 20.7251C25.0052 20.6744 24.8707 20.6388 24.7399 20.6306C24.5166 20.6169 24.2933 20.6279 24.07 20.6279ZM24.9274 12.9211C24.7041 12.917 24.5475 13.0744 24.5487 13.3002C24.5499 13.5315 24.7325 13.7286 24.9496 13.7327C25.1569 13.7368 25.3296 13.563 25.3308 13.3468C25.3333 13.1127 25.1557 12.9252 24.9274 12.9211ZM15.7355 13.459C15.7305 13.6437 15.865 13.8093 16.0316 13.8258C16.2215 13.8449 16.3856 13.678 16.3807 13.474C16.3757 13.2934 16.2326 13.1401 16.0599 13.1332C15.8848 13.125 15.7404 13.2701 15.7355 13.459ZM15.7367 19.3167C15.7268 19.5015 15.8551 19.6712 16.0229 19.6945C16.2043 19.7191 16.3807 19.5508 16.3807 19.351C16.3807 19.1648 16.2462 19.017 16.0686 19.0033C15.8872 18.9896 15.7478 19.1224 15.7367 19.3167ZM22.322 20.6854C22.1468 20.6731 22.0024 20.8154 21.995 21.0056C21.9889 21.1904 22.1221 21.3601 22.2862 21.3779C22.4503 21.3943 22.618 21.252 22.6402 21.0782C22.6649 20.8866 22.5119 20.6991 22.322 20.6854Z" fill="white"/>
<path d="M42.6976 10.742C39.9502 11.0883 37.5471 12.4104 35.2019 13.8707C33.8967 14.6837 32.6482 15.6103 31.385 16.504C31.1382 16.6778 30.931 16.7572 30.6386 16.6395C30.1908 16.4588 29.7245 16.3329 29.2396 16.1741C29.1422 13.4807 28.4106 10.946 27.7617 8.38109C27.8542 8.30589 27.9196 8.23738 27.9961 8.19498C30.6633 6.67718 33.328 5.15529 36.0001 3.64979C37.3768 2.87379 38.8646 2.47958 40.3721 2.17298C42.647 1.71038 44.9465 1.49688 47.2559 1.41618C47.346 1.41338 47.436 1.41748 47.5249 1.42708C47.5471 1.42988 47.5668 1.46408 47.6359 1.53108C47.4619 1.64608 47.3065 1.75969 47.1424 1.85409C45.8853 2.57539 44.5555 3.08858 43.2058 3.54028C41.4849 4.11788 39.7541 4.65978 38.0294 5.22368C37.7284 5.32218 37.4311 5.44128 37.1424 5.57948C36.966 5.66298 36.7896 5.77529 36.649 5.91759C36.2159 6.35559 36.1962 6.88109 36.6527 7.27669C37.1474 7.70369 37.6692 8.11289 38.228 8.41949C39.6233 9.18589 41.0469 9.89068 42.4595 10.6216C42.5384 10.6613 42.6186 10.701 42.6976 10.742Z" fill="#FFAA4C"/>
<path d="M77.2868 42.4831C77.3065 42.995 77.3312 43.4234 77.3386 43.8518C77.383 46.3632 77.4212 48.876 77.4657 51.3874C77.5273 54.7803 77.5927 58.1731 77.6593 61.5673C77.6852 62.8648 77.7198 64.1623 77.7482 65.4584C77.7605 66.0387 77.7297 66.1249 77.2399 66.1906C76.2591 66.3233 75.2759 66.4342 74.2902 66.5095C73.9214 66.5382 73.5426 66.4602 73.1738 66.3986C72.7654 66.3302 72.4052 66.1208 72.0919 65.8238C71.1814 64.9602 70.6016 63.8461 70.0859 62.6171C70.2809 62.4351 70.4622 62.2681 70.6411 62.0984C71.2123 61.5605 71.7958 61.0391 72.3509 60.4806C73.2453 59.5815 73.703 58.4154 73.8807 57.1179C73.9621 56.5308 73.9917 55.9231 73.9658 55.3291C73.8794 53.3186 73.7351 51.3122 73.6574 49.3017C73.6006 47.8235 73.6117 46.3413 73.5945 44.8618C73.587 44.1843 73.8807 43.6793 74.3754 43.3248C75.2389 42.7103 76.211 42.5584 77.2868 42.4831Z" fill="#FF8024"/>
<path d="M55.7617 10.9123C59.0914 11.2859 62.3815 11.654 65.6791 12.0236C65.911 12.5094 65.9431 13.0282 65.9961 13.5332C66.1898 15.4082 66.2305 17.2832 65.8703 19.1446C65.8172 19.4197 65.7272 19.6866 65.6618 19.9589C65.6001 20.2149 65.4681 20.3312 65.2189 20.3613C64.1012 20.4982 62.986 20.6597 61.8695 20.8061C59.9043 21.0648 57.9391 21.3193 55.9739 21.5753C55.9307 21.5808 55.8863 21.5766 55.8259 21.5766C55.8234 21.526 55.8061 21.4726 55.8222 21.4425C56.4513 20.2587 56.6351 18.9516 56.6672 17.6076C56.7018 16.187 56.5352 14.7855 56.2774 13.3977C56.1466 12.6983 55.9751 12.0085 55.8246 11.3146C55.8012 11.2051 55.7901 11.0929 55.7617 10.9123Z" fill="white"/>
<path d="M61.8001 69.2871C63.8998 69.2871 66.0007 69.3295 68.0979 69.272C69.4278 69.2364 70.4888 68.585 71.0846 67.1903C71.1586 67.0179 71.2388 66.9152 71.414 66.9193C71.5337 66.9221 71.6546 66.907 71.773 66.9207C72.1295 66.959 72.3244 67.1725 72.3195 67.5667C72.3158 67.8637 72.2689 68.1621 72.2294 68.4563C72.058 69.7552 71.8803 71.054 71.7076 72.3528C71.5904 73.2383 71.108 73.7735 70.3777 74.0718C69.8152 74.3018 69.2304 74.2908 68.6444 74.2511C67.8364 74.1964 67.0296 74.1211 66.2203 74.0937C63.5532 74.0034 60.8848 73.9295 58.2164 73.8501C57.3923 73.8255 56.5682 73.8036 55.7429 73.7776C55.0409 73.7543 54.3785 73.5736 53.7764 73.1603C53.2398 72.7935 52.8981 72.2625 52.7488 71.585C52.66 71.1799 52.6945 71.1115 53.0326 70.9185C53.7012 70.5353 54.3464 70.1219 54.8374 69.4623C54.9163 69.3569 55.0952 69.3076 55.2309 69.2967C55.5443 69.272 55.8601 69.2871 56.1747 69.2871C58.0511 69.2871 59.9262 69.2871 61.8001 69.2871Z" fill="#FF8024"/>
<path d="M69.1971 33.6172C68.5963 33.2449 68.0116 32.8836 67.4453 32.5319C67.5576 30.4009 68.7641 28.6928 70.5961 28.014C71.2425 27.7745 71.9062 27.6746 72.586 27.6746C73.1781 27.6746 73.4063 27.3954 73.3101 26.7398C73.2595 26.3976 73.1633 26.061 73.0597 25.7339C72.7266 24.6855 72.6809 23.6125 72.8833 22.5395C73.1756 20.9943 74.392 20.3702 75.6738 21.0737C76.303 21.4186 76.7323 21.9893 77.0678 22.6531C77.507 23.5194 77.7537 24.4583 77.8882 25.4341C78.0584 26.6741 78.0683 27.9182 77.9005 29.1609C77.8623 29.4387 77.8043 29.7166 77.7254 29.9835C77.4194 31.0182 76.8569 31.5328 75.6553 31.4424C75.1631 31.4055 74.6758 31.2878 74.1848 31.2344C73.6938 31.181 73.1966 31.1071 72.7081 31.1427C71.7088 31.2139 70.8773 31.7367 70.1618 32.4881C69.8361 32.8289 69.5438 33.208 69.1971 33.6172Z" fill="#FCA603"/>
<path d="M78.8945 57.2276C78.8945 55.0788 78.8945 52.9424 78.8945 50.8073C79.2054 50.6896 87.693 50.6458 88.4245 50.7594C88.4134 50.8675 88.4122 50.9811 88.39 51.0879C88.0051 52.9328 87.6202 54.7777 87.2291 56.6199C87.1205 57.1331 86.9836 57.2522 86.5123 57.2536C84.0709 57.259 81.6283 57.2577 79.1869 57.2577C79.0993 57.2577 79.0117 57.2399 78.8945 57.2276Z" fill="#E3E722"/>
<path d="M69.047 63.1533C69.1 63.2245 69.1617 63.2929 69.2098 63.3723C69.5947 64.0074 69.9673 64.652 70.3633 65.2788C70.5372 65.5539 70.5582 65.8194 70.4607 66.1246C70.3164 66.5763 70.0771 66.9499 69.7502 67.2579C69.1716 67.8039 68.4906 68.1283 67.7442 68.1707C66.5476 68.2378 65.3485 68.2364 64.1494 68.2419C63.4301 68.246 62.7097 68.2036 61.9905 68.1885C59.966 68.1447 57.9416 68.1037 55.9172 68.0599C55.7704 68.0571 55.6236 68.0366 55.4102 68.0202C55.4731 67.2141 55.5323 66.4463 55.594 65.6579C55.7519 65.6374 55.8678 65.6141 55.9838 65.61C57.5715 65.5471 59.1629 65.5224 60.7482 65.4184C62.5592 65.2993 64.3603 65.0626 66.1281 64.5781C67.3174 64.2482 67.7504 64.0429 69.047 63.1533Z" fill="#FF8024"/>
<path d="M32.2779 59.0101C32.2927 59.793 32.1915 60.6278 31.9164 61.4326C31.7721 61.8569 31.587 62.2551 31.2737 62.559C30.8838 62.9367 30.4767 62.9162 30.119 62.5015C29.723 62.0416 29.6453 61.4805 29.718 60.8769C29.9463 58.9964 29.9167 57.1282 29.517 55.2765C29.2702 54.1323 28.8495 53.0757 28.2327 52.1122C27.4358 50.8667 26.4834 49.7937 25.4052 48.8507C25.1116 48.5934 24.8204 48.3279 24.5564 48.0337C24.137 47.5656 24.0975 47.051 24.4035 46.4899C24.6712 45.9971 25.1486 45.7877 25.6889 46.0012C26.022 46.1326 26.3514 46.3229 26.6302 46.5638C26.9707 46.8566 27.2877 47.2015 27.5591 47.5738C28.6657 49.0862 29.7205 50.6395 30.5927 52.3367C31.6647 54.417 32.2717 56.7779 32.2779 59.0101Z" fill="#FF8026"/>
<path d="M27.2055 60.6056C26.4295 60.8341 25.6918 60.956 24.9429 60.9135C23.8746 60.8547 22.8803 60.5413 22.0179 59.8008C21.1902 59.0905 20.7238 58.1899 20.6646 57.0061C20.5968 55.6142 20.9422 54.3824 21.675 53.2711C22.1105 52.6114 22.6261 52.042 23.2849 51.5452C24.2879 54.7451 25.788 57.6302 27.2055 60.6056Z" fill="#FF8026"/>
<path d="M78.6797 49.3088C78.6797 48.3781 78.6797 47.4721 78.6797 46.5743C79.0461 46.4443 88.0024 46.1568 88.4897 46.2609C88.4897 47.26 88.4897 48.2645 88.4897 49.2664C88.1455 49.369 79.5568 49.4101 78.6797 49.3088Z" fill="#FF8024"/>
<path d="M31.1737 83.5264C31.8152 83.5743 32.4567 83.629 33.0982 83.6701C35.6285 83.8357 38.1587 83.8959 40.6852 83.6181C41.8633 83.4894 43.0328 83.2896 44.1407 82.7819C44.1912 82.7586 44.248 82.7545 44.3689 82.7271C44.285 82.9146 44.2357 83.0446 44.1715 83.1651C43.4498 84.5063 42.7158 85.8394 42.0077 87.1889C41.851 87.4872 41.6783 87.5584 41.3884 87.5091C39.9635 87.271 38.5695 86.8878 37.1952 86.4128C35.2324 85.734 33.3413 84.8567 31.5068 83.8261C31.3884 83.7591 31.2749 83.6838 31.1602 83.6113C31.1639 83.5839 31.1688 83.5551 31.1737 83.5264Z" fill="#FFAA4C"/>
<path d="M33.101 34.6333C33.1861 34.7743 33.2687 34.9084 33.3477 35.0439C33.8745 35.9431 34.4987 36.7424 35.2833 37.3788C36.2233 38.1412 37.2571 38.4354 38.4205 38.2397C39.3901 38.0768 40.3326 37.8332 41.1999 37.3104C41.4873 37.1366 41.7587 36.9272 42.0598 36.7191C42.4163 36.9422 42.5594 37.3022 42.4989 37.747C42.4656 37.9865 42.3867 38.2329 42.2769 38.4436C41.5922 39.7575 40.5337 40.5144 39.2359 40.8907C38.2959 41.1631 37.3373 41.1891 36.3812 41.0509C34.8194 40.8237 33.7671 39.8191 33.0862 38.2931C32.7506 37.5403 32.5495 36.7397 32.5767 35.8911C32.5853 35.6297 32.6457 35.3669 32.7087 35.1137C32.758 34.903 32.8715 34.7292 33.101 34.6333Z" fill="white"/>
<path d="M78.6991 44.9922C78.6263 44.4393 78.5313 43.9342 78.4993 43.4251C78.4684 42.9269 78.6621 42.6847 79.1099 42.608C79.4196 42.5547 79.7354 42.53 80.05 42.5232C82.537 42.4684 85.0228 42.4192 87.5099 42.3699C87.8516 42.363 88.1946 42.3685 88.593 42.3685C88.5992 43.061 88.6695 43.7043 88.5572 44.3421C88.4795 44.7842 88.2316 44.9676 87.7677 44.9703C85.9098 44.9799 84.0519 44.9853 82.1941 44.9908C81.2207 44.9936 80.2461 44.9908 79.2728 44.9908C79.1075 44.9922 78.9434 44.9922 78.6991 44.9922Z" fill="#E3E722"/>
<path d="M86.27 29.6566C86.5883 30.6488 86.9078 31.6438 87.2544 32.7237C85.045 32.9536 82.9058 33.1767 80.7827 33.3984C80.1227 32.4623 79.1617 32.1092 78.2734 31.5809C78.345 31.1224 78.5695 30.7515 78.7977 30.3929C78.8594 30.2971 79.0346 30.2615 79.1617 30.2492C80.7148 30.1014 82.268 29.9645 83.8212 29.8222C84.3887 29.7702 84.9549 29.7059 85.5236 29.6593C85.758 29.6402 85.9961 29.6566 86.27 29.6566Z" fill="#FF8024"/>
<path d="M78.6719 61.4908C78.6719 60.5998 78.6719 59.7732 78.6719 58.9561C79.0555 58.8165 85.9443 58.5879 86.5784 58.6974C86.3107 59.65 85.9541 60.5533 85.6359 61.4922C83.3141 61.4908 81.0146 61.4908 78.6719 61.4908Z" fill="#FF8024"/>
<path d="M75.4714 32.8178C75.5775 34.1864 75.6811 35.5209 75.786 36.8731C75.6392 36.91 75.5417 36.9497 75.4418 36.9579C74.5893 37.0305 73.7356 37.0784 72.8856 37.1714C72.4267 37.2221 72.0986 37.0387 71.842 36.6459C71.4818 36.0943 71.1129 35.5469 70.7749 34.9789C70.4233 34.3876 70.48 34.0934 70.9834 33.6664C71.6421 33.1093 72.3798 32.7754 73.2113 32.6878C73.9614 32.6098 74.6991 32.6823 75.4714 32.8178Z" fill="#FF8024"/>
<path d="M81.375 40.9455C81.5563 40.2064 81.7266 39.4865 81.9141 38.7734C81.9375 38.6859 82.0498 38.5983 82.1374 38.5695C82.2632 38.5285 82.4039 38.538 82.5383 38.5298C84.2297 38.434 85.9198 38.3368 87.6111 38.2465C87.8912 38.2315 88.1737 38.2438 88.4845 38.2438C88.4845 39.1129 88.4845 39.9532 88.4845 40.836C88.3797 40.8606 88.2674 40.9071 88.1564 40.9085C85.9839 40.94 83.8102 40.9674 81.6378 40.992C81.565 40.9947 81.4934 40.9674 81.375 40.9455Z" fill="#FF8024"/>
<path d="M87.9592 36.8897C87.3276 36.9527 86.7922 37.0116 86.2568 37.0581C85.0774 37.1594 83.8968 37.2538 82.7174 37.3482C82.3485 37.377 82.1265 37.2223 81.9896 36.7638C81.8156 36.1822 81.6836 35.5854 81.5195 34.9435C81.6713 34.9011 81.7922 34.8505 81.9168 34.8354C83.4798 34.6479 85.0441 34.4632 86.6084 34.2866C87.1586 34.225 87.4744 34.4481 87.6101 35.0284C87.7458 35.6197 87.8358 36.2246 87.9592 36.8897Z" fill="#E3E722"/>
<path d="M54.7108 21.5781C54.416 21.3126 54.2766 21.0047 54.1631 20.6789C53.8584 19.814 53.7708 18.9024 53.7375 17.9882C53.6536 15.7354 53.8608 13.5032 54.1705 11.2819C54.1742 11.2545 54.2013 11.2326 54.2532 11.1505C54.3617 11.2915 54.474 11.4147 54.5628 11.5556C54.8934 12.0784 55.1241 12.6546 55.2796 13.2664C55.8359 15.4713 55.9026 17.6926 55.419 19.9221C55.2919 20.5051 55.0994 21.0649 54.7108 21.5781Z" fill="white"/>
<path d="M46.8047 88.2723C50.5587 87.3061 54.2609 86.3521 58.0679 85.3722C57.9396 85.5611 57.8878 85.6569 57.8188 85.7335C57.2698 86.348 56.7257 86.9667 56.162 87.5648C56.0312 87.7044 55.8412 87.8289 55.666 87.8563C53.4097 88.2108 51.1496 88.5324 48.8686 88.5844C48.3307 88.5967 47.7916 88.5324 47.2537 88.4927C47.1069 88.4831 46.9466 88.4667 46.8047 88.2723Z" fill="#FFAA4C"/>
<path d="M10.2878 39.936C11.5622 39.858 12.7662 39.7854 13.969 39.7129C14.0381 40.1125 13.8851 40.3945 13.7322 40.6491C13.3855 41.2294 13.0413 41.8192 12.633 42.3434C11.9779 43.1824 11.2747 43.9762 10.5839 44.781C10.4568 44.9288 10.2903 45.0369 10.0509 45.2422C9.99297 43.3945 10.1595 41.6933 10.2878 39.936Z" fill="#FFAA4C"/>
<path d="M59.7461 32.2412C59.7868 31.754 59.8176 31.2927 59.8658 30.8356C59.9484 30.0445 60.0385 29.2548 60.1298 28.4651C60.1766 28.0587 60.3259 27.7014 60.5837 27.4044C61.0661 26.8488 61.6607 26.5422 62.4009 26.3643C62.4416 26.6873 62.5008 26.9583 62.5045 27.2293C62.5194 28.3515 62.3281 29.441 62.021 30.5044C61.8815 30.9834 61.6459 31.4063 61.303 31.7485C60.8848 32.1659 60.395 32.3329 59.7461 32.2412Z" fill="#FCA603"/>
<path d="M24.9362 77.9766C24.819 77.7877 24.7425 77.6166 24.6278 77.488C24.1146 76.909 23.5915 76.3424 22.9883 75.68C24.5575 75.5363 26.0218 75.5253 27.4825 75.4391C27.4973 75.472 27.5133 75.5034 27.5281 75.5363C26.7053 76.3109 25.8812 77.087 24.9362 77.9766Z" fill="#FFAA4C"/>
<path d="M62.1012 24.1082C62.0161 24.4873 61.9668 24.8144 61.8681 25.1238C61.7792 25.4043 61.5942 25.5946 61.2981 25.6014C60.9922 25.6082 60.8429 25.392 60.7368 25.1196C60.6961 25.0143 60.6566 24.902 60.6443 24.7884C60.5838 24.1794 60.5283 23.5704 60.4827 22.9599C60.4728 22.8313 60.4975 22.6944 60.5283 22.5685C60.6418 22.1004 60.933 21.9376 61.3018 22.1867C61.493 22.3167 61.6843 22.5343 61.7644 22.7615C61.9211 23.2022 61.9988 23.6771 62.1012 24.1082Z" fill="#FCA603"/>
<path d="M49.9566 37.7416C49.8542 38.4683 49.5001 39.1212 48.9055 39.6029C48.6958 39.774 48.507 39.7453 48.3639 39.4921C48.1752 39.1581 48.0407 38.7859 47.8939 38.4246C47.868 38.3602 47.8766 38.2466 47.9124 38.1891C48.1665 37.7827 48.4083 37.3625 48.7007 36.9902C48.9055 36.7288 49.204 36.6056 49.5137 36.7904C49.8159 36.9697 49.9541 37.2735 49.9566 37.7416Z" fill="white"/>
<path d="M51.3829 35.2338C51.3841 35.8566 51.2299 36.326 50.8869 36.7106C50.6846 36.935 50.4416 37.0651 50.1579 36.9487C49.8729 36.831 49.7026 36.5806 49.6521 36.2466C49.5879 35.8169 49.6866 35.4241 49.9111 35.0737C50.032 34.8862 50.1677 34.7083 50.3034 34.5331C50.5514 34.2101 50.8586 34.2005 51.1386 34.4989C51.3496 34.7233 51.389 35.0121 51.3829 35.2338Z" fill="white"/>
<path d="M58.5781 23.8473C58.6114 23.5339 58.6312 23.2177 58.683 22.9084C58.7323 22.6142 58.8976 22.4239 59.079 22.4376C59.3072 22.454 59.4688 22.5936 59.5478 22.8373C59.7785 23.5517 59.8759 24.288 59.7994 25.0435C59.776 25.2762 59.7094 25.5088 59.4639 25.58C59.2591 25.6402 59.0087 25.4979 58.8569 25.2474C58.6867 24.9655 58.5929 24.4632 58.5781 23.8473Z" fill="#FCA603"/>
<path d="M62.8907 24.3672C62.9697 23.6623 62.7859 23.0451 62.5342 22.4648C62.364 22.0734 62.496 21.8024 62.8722 21.6847C63.2065 21.5806 63.5347 21.6039 63.7962 21.8776C64.0467 22.1404 64.0701 22.4812 63.9837 22.8439C63.8197 23.5282 63.4743 24.0469 62.8907 24.3672Z" fill="#FCA603"/>
<path d="M13.3367 31.1135C12.7309 31.7718 12.1659 32.3863 11.6157 32.9844C11.4739 32.4616 11.9328 30.7603 12.5632 29.6353C12.7026 29.8954 12.8296 30.128 12.953 30.3621C13.0801 30.6043 13.2022 30.8507 13.3367 31.1135Z" fill="#FFAA4C"/>
<path d="M58.0775 24.2478C58.0022 24.5407 57.9702 24.7926 57.8739 25.0102C57.716 25.3647 57.5088 25.3783 57.2954 25.0677C57.1967 24.9239 57.1091 24.7611 57.0536 24.5927C56.9043 24.1411 56.7587 23.6853 56.6428 23.2214C56.5145 22.7095 56.6847 22.5097 57.1695 22.5507C57.4631 22.5754 57.6864 22.6849 57.7678 23.0366C57.8641 23.4513 57.9776 23.8605 58.0775 24.2478Z" fill="#FCA603"/>
<path d="M60.268 26.6209C60.289 26.9056 60.136 27.0507 59.9892 27.1862C59.6031 27.5434 59.1516 27.6871 58.6532 27.6146C58.1412 27.5406 57.7785 26.8194 57.9771 26.2856C58.061 26.0598 58.2313 25.9489 58.4447 26.0256C58.5816 26.0748 58.7173 26.1652 58.8246 26.2733C59.1972 26.6497 59.6117 26.792 60.1027 26.6209C60.1422 26.6086 60.1891 26.6209 60.268 26.6209Z" fill="#FCA603"/>
<path d="M19.25 39.6405C19.3783 39.3654 19.4745 39.0616 19.6411 38.8179C20.0975 38.1528 20.7612 37.8969 21.478 37.7887C21.7593 37.7463 22.0467 37.7258 22.3304 37.734C23.0632 37.7545 23.7158 37.5 24.3265 37.0757C25.3973 36.3325 26.2473 35.3307 27.022 34.2385C27.096 34.1345 27.1614 34.0195 27.2465 33.9278C27.4032 33.7608 27.6166 33.7431 27.782 33.8649C27.9633 33.999 28.0225 34.244 27.9214 34.4821C27.8905 34.556 27.8424 34.6245 27.798 34.6901C26.9973 35.8658 26.0931 36.9238 24.9803 37.7449C24.1365 38.3677 23.2273 38.7454 22.1923 38.6989C21.8962 38.6852 21.5902 38.7276 21.3016 38.8002C20.7736 38.9343 20.3159 39.1861 20.1234 39.8253C20.0408 40.0976 19.8397 40.1948 19.63 40.1428C19.4326 40.0963 19.3092 39.917 19.25 39.6405Z" fill="black"/>
<path d="M40.3587 74.2357C40.6906 74.2165 40.8904 74.5491 40.7523 74.931C40.5203 75.5715 40.1194 76.0532 39.568 76.3762C38.9462 76.7403 38.2714 76.8936 37.5781 76.9374C36.7848 76.9866 35.9891 76.9839 35.1971 77.0373C34.6901 77.0715 34.1806 77.1304 33.6834 77.2426C33.0456 77.3877 32.4609 77.6778 31.9933 78.2171C31.7873 78.4552 31.5344 78.4497 31.3555 78.254C31.1902 78.0733 31.1853 77.827 31.3617 77.5806C31.4542 77.452 31.5578 77.3206 31.6812 77.233C32.0094 77.0031 32.3363 76.7581 32.6903 76.5884C33.5292 76.1874 34.4236 76.0888 35.3279 76.0587C36.1816 76.03 37.0353 75.9889 37.8865 75.9287C38.1517 75.9095 38.417 75.8206 38.676 75.7412C39.2361 75.5687 39.6753 75.2184 39.9331 74.623C40.0207 74.4177 40.133 74.2535 40.3587 74.2357Z" fill="black"/>
<path d="M12.758 59.0284C12.9677 59.0284 13.1786 59.0161 13.3871 59.0311C13.6351 59.0503 13.7942 59.2241 13.809 59.4595C13.8251 59.7127 13.6635 59.9331 13.4019 59.9577C12.9393 60.0015 12.4705 59.9851 12.0116 60.0562C11.2862 60.1685 10.5621 60.3094 9.84655 60.4846C9.5295 60.5613 9.22848 60.7337 8.93364 60.8952C8.67457 61.0375 8.47349 61.2593 8.35999 61.5699C8.10216 62.2803 7.63214 62.7785 7.04368 63.1521C6.46387 63.5203 5.83347 63.7255 5.1784 63.8487C5.0612 63.8706 4.93784 63.8829 4.82064 63.8693C4.60105 63.8446 4.46535 63.6763 4.45054 63.4436C4.43574 63.2123 4.54553 63.0193 4.75649 62.9577C4.944 62.903 5.14016 62.8825 5.33014 62.8373C5.86184 62.71 6.36887 62.5157 6.82163 62.1721C7.13744 61.9326 7.40021 61.637 7.54208 61.2374C7.74687 60.6625 8.133 60.2862 8.60796 60.0042C9.24946 59.6238 9.944 59.4089 10.6571 59.2843C11.3516 59.1625 12.0536 59.0872 12.7518 58.9914C12.7543 59.0051 12.7555 59.0174 12.758 59.0284Z" fill="black"/>
<path d="M21.8715 64.8095C21.2658 64.7082 20.6588 64.6097 20.0544 64.5057C19.5658 64.4222 19.0798 64.3195 18.5814 64.4195C18.1286 64.5098 17.798 64.711 17.7437 65.2885C17.7153 65.5937 17.513 65.7498 17.2885 65.7238C17.0578 65.6964 16.9036 65.502 16.9024 65.1996C16.8999 64.6658 17.1059 64.2374 17.4785 63.9062C17.8313 63.5928 18.2508 63.4381 18.6899 63.4491C19.2562 63.4628 19.8261 63.5107 20.385 63.6106C21.2781 63.7707 22.1701 63.9172 23.0571 63.638C23.4099 63.5271 23.7356 63.3068 24.0711 63.1316C24.1377 63.0974 24.1896 63.0276 24.2562 62.9933C24.4511 62.8934 24.6658 62.9482 24.7792 63.1316C24.9038 63.3328 24.91 63.5572 24.7533 63.7256C24.5831 63.9076 24.3882 64.0718 24.1797 64.1977C23.4642 64.6316 22.6845 64.7644 21.8715 64.8095Z" fill="black"/>
<path d="M28.9644 68.809C28.9225 69.2169 28.7362 69.5864 28.4413 69.8916C28.0824 70.2625 27.6493 70.4856 27.1892 70.6471C26.4848 70.8948 25.7594 71.0016 25.0229 71.029C24.9193 71.0331 24.8107 71.0344 24.7108 71.0084C24.5159 70.9592 24.4024 70.8086 24.3777 70.5896C24.3542 70.3775 24.4863 70.1653 24.691 70.1065C24.8193 70.0695 24.9575 70.0695 25.0907 70.0627C25.8124 70.023 26.5218 69.9108 27.1991 69.6152C27.6444 69.4208 28.0219 69.1539 28.144 68.5764C28.1995 68.3122 28.4191 68.1986 28.6276 68.2493C28.8423 68.3026 28.9681 68.4942 28.9644 68.809Z" fill="black"/>
<path d="M17.3171 43.169C17.4589 43.2771 17.6317 43.3414 17.6773 43.4632C17.7316 43.6083 17.7069 43.815 17.6588 43.9724C17.6255 44.0832 17.5009 44.1653 17.4096 44.2502C16.5029 45.0933 15.5961 45.935 14.6882 46.7767C14.608 46.8506 14.5278 46.9286 14.4377 46.9861C14.2416 47.112 14.0479 47.0792 13.9073 46.9108C13.7777 46.7562 13.7555 46.4988 13.8764 46.3127C13.9455 46.2073 14.0417 46.1225 14.133 46.0363C15.0385 45.1918 15.9453 44.3487 16.8557 43.5098C16.9889 43.3893 17.1444 43.2962 17.3171 43.169Z" fill="black"/>
<path d="M41.6287 69.6033C41.5509 69.7525 41.4461 70.0112 41.2943 70.2301C40.9958 70.6613 40.5813 70.9364 40.1446 71.1622C39.793 71.3428 39.429 71.4989 39.0614 71.6371C38.6432 71.7945 38.394 71.696 38.32 71.3825C38.246 71.0691 38.3829 70.8912 38.7814 70.7283C39.1453 70.5791 39.5117 70.4286 39.8584 70.2384C40.2753 70.0098 40.6627 69.7388 40.8428 69.205C40.9279 68.9518 41.1599 68.882 41.3659 68.971C41.5522 69.0504 41.6607 69.257 41.6287 69.6033Z" fill="black"/>
<path d="M42.6859 55.8281C40.1557 55.7378 38.0548 54.8851 36.4017 52.9034C35.5308 51.8605 34.9904 50.6369 34.9768 49.1793C34.962 47.6464 35.5345 46.4119 36.5744 45.4347C37.5169 44.5478 38.6272 44.0592 39.8387 43.8895C42.4108 43.5296 44.7153 44.2467 46.6941 46.1272C47.528 46.9211 48.1473 47.8969 48.4557 49.0821C48.9085 50.8217 48.5865 52.3778 47.4861 53.7108C46.5584 54.8359 45.358 55.4148 44.0282 55.6762C43.5433 55.772 43.0462 55.7898 42.6859 55.8281ZM42.5231 54.8003C43.5828 54.8112 44.5784 54.5553 45.4962 53.9668C47.116 52.928 47.8007 51.0092 47.2258 49.104C46.9643 48.2349 46.5066 47.4973 45.9008 46.88C44.471 45.4238 42.7661 44.775 40.8429 44.827C39.8226 44.8544 38.8517 45.1295 37.9894 45.7605C36.6682 46.7253 36.0341 48.0693 36.2635 49.8376C36.3992 50.8764 36.8631 51.7482 37.5145 52.49C38.8863 54.053 40.5863 54.7469 42.5231 54.8003Z" fill="black"/>
<path d="M16.8406 21.9654C16.8271 21.8601 16.8271 21.8108 16.8147 21.7656C16.6272 21.0622 16.7777 20.7036 17.4007 20.4572C17.7202 20.3313 18.0484 20.1821 18.4037 20.3039C18.6961 20.4038 18.8984 20.5982 18.8626 20.7761C18.8046 21.0649 18.5665 21.0704 18.3642 21.1114C18.0755 21.1689 17.7844 21.2113 17.4316 21.2702C17.6364 21.6452 17.9041 21.7259 18.1755 21.7971C18.3642 21.8464 18.5579 21.8792 18.7442 21.9408C18.9157 21.9969 19.0267 22.1365 19.0316 22.3418C19.0365 22.5649 18.9354 22.7333 18.7392 22.788C18.4789 22.8605 18.2137 22.9344 17.9472 22.9591C17.2453 23.0248 16.5433 23.0699 15.8402 23.1083C15.6798 23.1165 15.5132 23.0781 15.3553 23.0344C15.1999 22.9906 15.0913 22.8742 15.0938 22.6771C15.095 22.4787 15.2122 22.3733 15.3652 22.3281C15.6255 22.2501 15.8895 22.1899 16.1523 22.1256C16.3694 22.0722 16.5877 22.0243 16.8406 21.9654Z" fill="black"/>
<path d="M16.3827 25.1255C16.7849 25.0708 17.1661 25.0147 17.5485 24.9709C17.8903 24.9312 18.2345 24.8942 18.5774 24.8833C18.7378 24.8778 18.9191 24.897 19.0536 24.9791C19.1659 25.0475 19.2658 25.2118 19.3003 25.3555C19.3447 25.543 19.2559 25.7318 19.0844 25.7989C18.9056 25.8701 18.7106 25.9193 18.5207 25.9248C17.9816 25.9371 17.4425 25.9221 16.9046 25.918C16.7565 25.9166 16.6085 25.918 16.4235 25.918C16.3988 26.1233 16.384 26.3012 16.3531 26.4764C16.3272 26.6215 16.3087 26.7775 16.2433 26.902C16.1002 27.1744 15.814 27.1648 15.6648 26.8924C15.6191 26.809 15.5809 26.709 15.5747 26.6132C15.5291 25.8359 15.4883 25.0571 15.4575 24.2784C15.4526 24.1511 15.4871 24.0156 15.5278 23.8924C15.5969 23.6857 15.7375 23.5653 15.9423 23.5845C16.1644 23.605 16.3063 23.7583 16.3297 23.9964C16.3568 24.2756 16.3433 24.5603 16.3507 24.8422C16.3531 24.9189 16.3679 24.9983 16.3827 25.1255Z" fill="black"/>
<path d="M24.5169 15.7112C24.57 15.4252 24.5996 15.2541 24.6329 15.0844C24.6748 14.8722 24.7057 14.6286 24.961 14.6314C25.1868 14.6341 25.2929 14.8353 25.3583 15.046C25.6013 15.8399 25.0918 16.7158 24.3306 16.7952C23.9038 16.839 23.4955 16.7322 23.1365 16.4653C22.7997 16.2149 22.6307 15.8481 22.6862 15.3992C22.7479 14.901 22.9514 14.4767 23.3857 14.2591C23.7508 14.0771 24.1308 14.2769 24.285 14.7299C24.3788 15.0064 24.4219 15.302 24.5169 15.7112ZM23.6793 15.8084C23.6521 15.4909 23.6324 15.2637 23.609 14.9763C23.2808 15.3677 23.2882 15.4854 23.6793 15.8084Z" fill="black"/>
<path d="M23.4502 23.1183C23.4502 22.9267 23.4415 22.7789 23.4514 22.6338C23.4711 22.3546 23.5896 22.2041 23.7882 22.1835C23.9893 22.1644 24.1324 22.2807 24.2052 22.549C24.2508 22.7214 24.2742 22.9007 24.315 23.1224C24.5136 23.1224 24.7048 23.1224 24.896 23.1224C25.0453 23.1224 25.2019 23.0937 25.3426 23.132C25.461 23.1635 25.6128 23.247 25.6584 23.3551C25.73 23.5248 25.572 23.6151 25.4487 23.674C25.2155 23.7848 24.9836 23.9217 24.7381 23.9737C24.4827 24.0284 24.2446 24.0545 24.0744 24.3159C23.9843 24.4541 23.8215 24.4541 23.7154 24.3337C23.539 24.1352 23.3182 24.142 23.0998 24.0928C22.8111 24.0271 22.5064 23.9518 22.2585 23.7862C21.744 23.444 21.5947 22.7912 21.8711 22.2807C21.9303 22.1712 22.0179 22.0658 22.1141 21.9974C22.2757 21.8811 22.4497 21.9495 22.5151 22.1493C22.5496 22.2547 22.5484 22.3765 22.557 22.4915C22.594 22.9691 22.7408 23.1279 23.1775 23.1512C23.2503 23.1539 23.3243 23.1347 23.4502 23.1183Z" fill="black"/>
<path d="M17.3162 11.5616C17.4432 11.3262 17.5604 11.1018 17.6838 10.88C17.975 10.3627 18.3031 10.1382 18.6547 10.2491C19.1161 10.3942 19.2345 10.8308 19.311 11.2838C19.3665 11.6109 19.2789 11.9106 19.1173 12.1816C19.0088 12.3623 18.8545 12.4567 18.6547 12.3965C18.4573 12.3363 18.3611 12.1734 18.35 11.9544C18.3401 11.7642 18.3475 11.5712 18.3475 11.2783C18.1995 11.615 18.1045 11.8709 17.9799 12.1077C17.6789 12.6798 17.1866 12.7619 16.7425 12.3171C16.3897 11.964 16.2787 11.5123 16.3626 11.0046C16.4193 10.6597 16.6438 10.4407 16.9041 10.4352C17.1681 10.4298 17.2792 10.5885 17.2101 10.8732C17.1151 11.2687 17.1151 11.2687 17.3162 11.5616Z" fill="black"/>
<path d="M18.348 17.1521C18.1876 17.5107 18.0902 17.7735 17.9594 18.0144C17.7003 18.4893 17.2525 18.5851 16.8442 18.2703C16.4445 17.9624 16.2372 17.3191 16.3742 16.81C16.4519 16.5198 16.6431 16.3269 16.8738 16.305C17.1649 16.2776 17.2908 16.4391 17.202 16.7498C17.1316 16.9947 17.0564 17.2274 17.3216 17.4313C17.4178 17.2466 17.5017 17.0728 17.598 16.9072C17.7028 16.7265 17.8027 16.5335 17.9372 16.383C18.3641 15.9026 18.9278 16.023 19.1795 16.6403C19.3608 17.0864 19.4053 17.5354 19.1585 17.9761C19.0179 18.2279 18.8415 18.3223 18.6379 18.2498C18.4171 18.1704 18.3505 17.9788 18.348 17.7434C18.3468 17.5805 18.348 17.4177 18.348 17.1521Z" fill="black"/>
<path d="M23.8989 18.3638C24.1678 18.747 24.4861 18.9181 24.8192 19.0659C24.9302 19.1151 25.0487 19.1466 25.1548 19.2055C25.3546 19.3163 25.4274 19.5079 25.3818 19.7474C25.3398 19.9664 25.2128 20.1238 25.0117 20.117C24.4578 20.1005 23.9038 20.0663 23.3524 20.0116C23.2623 20.002 23.1328 19.8665 23.1143 19.7666C23.0958 19.6681 23.1846 19.5353 23.2488 19.434C23.2883 19.3738 23.3697 19.3478 23.4486 19.2944C23.3438 19.1288 23.2426 18.9879 23.1612 18.8346C22.9243 18.387 22.9934 17.9573 23.3647 17.6411C23.8237 17.2524 24.3467 17.1785 24.9019 17.2949C25.1005 17.3373 25.2288 17.4591 25.2559 17.6849C25.2818 17.897 25.1659 18.0928 24.9327 18.1557C24.6169 18.2433 24.29 18.2885 23.8989 18.3638Z" fill="black"/>
<path d="M17.8231 13.0312C18.0748 13.0531 18.3277 13.0709 18.5794 13.0969C18.6682 13.1064 18.7583 13.1229 18.8409 13.1571C19.0038 13.2241 19.1395 13.3405 19.1234 13.5526C19.1061 13.7798 18.9667 13.9002 18.7657 13.9235C18.6768 13.9331 18.5855 13.9317 18.498 13.918C18.0711 13.851 17.6443 13.7771 17.2174 13.7059C17.2026 13.7032 17.1878 13.7004 17.173 13.6963C17.004 13.647 16.856 13.5731 16.8819 13.335C16.9078 13.101 17.0669 13.0558 17.2409 13.0503C17.4345 13.0435 17.6282 13.049 17.8219 13.049C17.8219 13.0421 17.8231 13.0366 17.8231 13.0312Z" fill="black"/>
<path d="M17.8586 18.9385C18.0671 18.9385 18.2768 18.9248 18.484 18.944C18.6296 18.9576 18.7962 18.9782 18.9084 19.0658C19.012 19.1465 19.1255 19.3327 19.1095 19.4517C19.0922 19.5749 18.9343 19.6871 18.8208 19.7775C18.7703 19.8171 18.6753 19.8048 18.6037 19.7939C18.1325 19.7186 17.6612 19.6392 17.1912 19.5571C17.0172 19.527 16.868 19.4545 16.884 19.2149C16.9 18.9782 17.0567 18.9275 17.2331 18.9234C17.4416 18.9179 17.6501 18.9221 17.8586 18.9221C17.8586 18.9275 17.8586 18.933 17.8586 18.9385Z" fill="black"/>
<path d="M24.0697 20.6214C24.293 20.6214 24.5175 20.6105 24.7396 20.6255C24.8704 20.6351 25.0048 20.6693 25.1282 20.7199C25.2972 20.7884 25.3996 20.928 25.3675 21.1415C25.3367 21.3523 25.1973 21.4398 25.0246 21.4768C24.9814 21.4864 24.9345 21.4864 24.8913 21.4795C24.4053 21.4002 23.9192 21.3194 23.4344 21.2373C23.2555 21.2072 23.1099 21.1182 23.1309 20.8897C23.1507 20.6638 23.3086 20.6064 23.4887 20.6064C23.6824 20.6064 23.876 20.6064 24.0697 20.6064C24.0697 20.6105 24.0697 20.6159 24.0697 20.6214Z" fill="black"/>
<path d="M24.9283 12.9213C25.1565 12.9254 25.3342 13.1129 25.3329 13.3483C25.3317 13.5632 25.159 13.7384 24.9517 13.7343C24.7346 13.7302 24.552 13.5318 24.5508 13.3018C24.5483 13.0733 24.7062 12.9172 24.9283 12.9213Z" fill="black"/>
<path d="M15.7345 13.4522C15.7395 13.2633 15.8841 13.1183 16.061 13.1265C16.2328 13.1333 16.3775 13.2866 16.3825 13.4673C16.3874 13.6712 16.2217 13.8368 16.0325 13.819C15.8643 13.8026 15.7296 13.6356 15.7345 13.4522Z" fill="black"/>
<path d="M15.7349 19.3152C15.746 19.1208 15.8858 18.9881 16.0663 19.0018C16.2456 19.0154 16.3792 19.1633 16.3792 19.3494C16.3792 19.5492 16.2023 19.7175 16.0206 19.6929C15.8536 19.6696 15.725 19.4999 15.7349 19.3152Z" fill="black"/>
<path d="M22.324 20.6812C22.5144 20.6935 22.6678 20.8824 22.643 21.074C22.6208 21.2478 22.4526 21.3901 22.2881 21.3737C22.1237 21.3573 21.9901 21.1876 21.9963 21.0014C22.0037 20.8112 22.1484 20.6702 22.324 20.6812Z" fill="black"/>
<path d="M42.5236 54.7965C40.5868 54.7432 38.8856 54.0493 37.5162 52.4877C36.8648 51.7445 36.3997 50.8727 36.2653 49.8352C36.0346 48.0656 36.6699 46.723 37.9912 45.7581C38.8535 45.1271 39.8244 44.852 40.8446 44.8247C42.7679 44.7727 44.474 45.4228 45.9026 46.8776C46.5083 47.4949 46.9648 48.2326 47.2275 49.1017C47.8024 51.0068 47.1177 52.9256 45.4979 53.9644C44.5789 54.5516 43.5833 54.8075 42.5236 54.7965ZM41.4997 46.5724C41.3344 46.5724 41.169 46.556 41.005 46.5752C39.9428 46.6956 38.9892 47.0843 38.265 47.9999C37.5631 48.8868 37.4607 50.0857 37.9899 51.1094C38.2317 51.5789 38.5562 51.9689 38.9534 52.2796C40.1328 53.2021 41.4442 53.4649 42.8493 53.2048C43.7141 53.0447 44.4826 52.6533 45.0871 51.9265C45.8631 50.9931 45.984 49.7257 45.3647 48.6623C45.1562 48.3051 44.8885 47.9712 44.5924 47.7015C43.7005 46.8858 42.6445 46.5628 41.4997 46.5724Z" fill="white"/>
<path d="M23.678 15.8047C23.286 15.4817 23.2773 15.364 23.6075 14.9726C23.631 15.26 23.6508 15.4872 23.678 15.8047Z" fill="white"/>
<path d="M41.4967 46.5773C42.6403 46.5677 43.6963 46.8921 44.5895 47.7064C44.8855 47.976 45.1532 48.31 45.3617 48.6672C45.981 49.7306 45.8601 50.998 45.0842 51.9314C44.4797 52.6581 43.7111 53.0496 42.8463 53.2097C41.4412 53.4697 40.1298 53.207 38.9504 52.2845C38.5532 51.9738 38.23 51.5838 37.9869 51.1143C37.4577 50.0906 37.5613 48.8917 38.262 48.0048C38.9862 47.0892 39.9398 46.6991 41.002 46.58C41.1661 46.5609 41.3326 46.5773 41.4967 46.5773Z" fill="black"/>
<path d="M48.9414 40.5355C48.9414 40.5355 49.8259 42.6884 50.2565 42.3654C50.6883 42.0424 53.707 38.4183 52.9088 37.4137C52.4672 37.1016 51.8417 36.6719 48.9414 40.5355Z" fill="#E33522"/>
</g>
</g>
<defs>
<clipPath id="clip0_394_6106">
<rect width="90" height="90" fill="white" transform="matrix(0 -1 1 0 0 90)"/>
</clipPath>
</defs>
</svg>
