<svg width="90" height="90" viewBox="0 0 90 90" fill="none" xmlns="http://www.w3.org/2000/svg">
<g clip-path="url(#clip0_394_6308)">
<path d="M13.1802 76.8198C-4.39339 59.2462 -4.3934 30.7538 13.1802 13.1802C30.7538 -4.39341 59.2462 -4.39339 76.8198 13.1802C94.3934 30.7538 94.3934 59.2462 76.8198 76.8198C59.2462 94.3934 30.7538 94.3934 13.1802 76.8198Z" fill="url(#paint0_linear_394_6308)"/>
<path opacity="0.328221" d="M13.2974 76.8628C-4.2762 59.2892 -4.27622 30.7967 13.2974 13.2232C30.8709 -4.35043 59.3634 -4.35041 76.937 13.2232C94.5106 30.7968 94.5106 59.2892 76.937 76.8628C59.3634 94.4364 30.871 94.4364 13.2974 76.8628Z" fill="url(#paint1_radial_394_6308)"/>
</g>
<defs>
<linearGradient id="paint0_linear_394_6308" x1="13.1802" y1="13.1802" x2="76.8198" y2="76.8198" gradientUnits="userSpaceOnUse">
<stop stop-color="white"/>
<stop offset="0.5" stop-color="#63DDD9"/>
<stop offset="1" stop-color="white"/>
</linearGradient>
<radialGradient id="paint1_radial_394_6308" cx="0" cy="0" r="1" gradientUnits="userSpaceOnUse" gradientTransform="translate(45.1172 45.043) rotate(-90) scale(45 45)">
<stop stop-color="white"/>
<stop offset="0.5"/>
<stop offset="1" stop-color="white"/>
</radialGradient>
<clipPath id="clip0_394_6308">
<rect width="90" height="90" fill="white" transform="matrix(0 -1 1 0 0 90)"/>
</clipPath>
</defs>
</svg>
