<svg width="90" height="90" viewBox="0 0 90 90" fill="none" xmlns="http://www.w3.org/2000/svg">
<g clip-path="url(#clip0_394_6314)">
<path d="M45 90C20.1472 90 0 69.8528 0 45C0 20.1472 20.1472 -7.45654e-06 45 -7.45654e-06C69.8528 -7.45654e-06 90 20.1472 90 45C90 69.8528 69.8528 90 45 90Z" fill="#9C9C9C"/>
<path d="M46.4986 62C37.1105 62 29.5 54.3895 29.5 45.0014C29.5 35.6133 37.1105 28.0028 46.4986 28.0028C55.8867 28.0028 63.4972 35.6133 63.4972 45.0014C63.4972 54.3895 55.8867 62 46.4986 62Z" fill="url(#paint0_radial_394_6314)"/>
<path d="M46.4986 51.8516C42.7154 51.8516 39.6484 48.7846 39.6484 45.0014C39.6484 41.2181 42.7154 38.1512 46.4986 38.1512C50.2819 38.1512 53.3488 41.2181 53.3488 45.0014C53.3488 48.7846 50.2819 51.8516 46.4986 51.8516Z" fill="#7F7F7F" stroke="#878787" stroke-width="1.52226" stroke-miterlimit="10"/>
<path d="M32.5455 80.0117C23.1574 80.0117 15.5469 72.4012 15.5469 63.0131C15.5469 53.6251 23.1574 46.0145 32.5455 46.0145C41.9335 46.0145 49.5441 53.6251 49.5441 63.0131C49.5441 72.4012 41.9335 80.0117 32.5455 80.0117Z" fill="url(#paint1_radial_394_6314)"/>
<path d="M32.5455 69.8633C28.7622 69.8633 25.6953 66.7963 25.6953 63.0131C25.6953 59.2299 28.7622 56.1629 32.5455 56.1629C36.3287 56.1629 39.3957 59.2299 39.3957 63.0131C39.3957 66.7963 36.3287 69.8633 32.5455 69.8633Z" fill="#7F7F7F" stroke="#878787" stroke-width="1.52226" stroke-miterlimit="10"/>
<path d="M22.6513 62.5078C10.7411 62.5078 1.08594 52.8527 1.08594 40.9424C1.08594 29.0322 10.7411 19.3771 22.6513 19.3771C34.5615 19.3771 44.2167 29.0322 44.2167 40.9424C44.2167 52.8527 34.5615 62.5078 22.6513 62.5078Z" fill="url(#paint2_radial_394_6314)"/>
<path d="M22.6515 49.6328C17.8518 49.6328 13.9609 45.7419 13.9609 40.9423C13.9609 36.1426 17.8518 32.2518 22.6515 32.2518C27.4511 32.2518 31.342 36.1426 31.342 40.9423C31.342 45.7419 27.4511 49.6328 22.6515 49.6328Z" fill="#7F7F7F" stroke="#878787" stroke-width="1.52226" stroke-miterlimit="10"/>
<path d="M60.7082 85.3398C48.7979 85.3398 41.9336 81.2663 41.9336 69.3561C41.9336 57.4459 51.5887 47.7907 63.499 47.7907C75.4092 47.7907 83.0347 51.3568 83.0347 63.267C83.0347 69.5106 79.69 73.1552 75.5157 77.624C71.7272 81.68 66.3748 85.3398 60.7082 85.3398Z" fill="url(#paint3_radial_394_6314)"/>
<path d="M63.4991 78.0469C58.6995 78.0469 54.8086 74.156 54.8086 69.3564C54.8086 64.5567 58.6995 60.6658 63.4991 60.6658C68.2988 60.6658 72.1896 64.5567 72.1896 69.3564C72.1896 74.156 68.2987 78.0469 63.4991 78.0469Z" fill="#7F7F7F" stroke="#878787" stroke-width="1.52226" stroke-miterlimit="10"/>
<path d="M73.9027 51.8516C65.7757 51.8516 59.1875 45.2633 59.1875 37.1364C59.1875 29.0094 65.7757 22.4212 73.9027 22.4212C82.0297 22.4212 88.6179 29.0094 88.6179 37.1364C88.6179 45.2633 82.0297 51.8516 73.9027 51.8516Z" fill="url(#paint4_radial_394_6314)"/>
<path d="M73.9027 43.0664C70.6276 43.0664 67.9727 40.4114 67.9727 37.1364C67.9727 33.8613 70.6276 31.2064 73.9027 31.2064C77.1777 31.2064 79.8327 33.8613 79.8327 37.1364C79.8327 40.4114 77.1777 43.0664 73.9027 43.0664Z" fill="#7F7F7F" stroke="#878787" stroke-width="1.52226" stroke-miterlimit="10"/>
<path d="M47.8946 30.5391C38.1562 30.5391 30.2617 22.6446 30.2617 12.9062C30.2617 3.16783 37.9025 0.601244 47.6409 0.601244C57.3792 0.601244 65.5275 3.16783 65.5275 12.9062C65.5275 22.6446 57.633 30.5391 47.8946 30.5391Z" fill="url(#paint5_radial_394_6314)"/>
<path d="M47.8949 20.0117C43.9704 20.0117 40.7891 16.8304 40.7891 12.9059C40.7891 8.98153 43.9704 5.80016 47.8949 5.80016C51.8193 5.80016 55.0007 8.98153 55.0007 12.9059C55.0007 16.8304 51.8193 20.0117 47.8949 20.0117Z" fill="#7F7F7F" stroke="#878787" stroke-width="1.52226" stroke-miterlimit="10"/>
<path d="M19.8586 78.7422C14.3022 78.7422 11.7344 75.2364 8.72794 71.312C6.28248 68.12 3.62109 64.2334 3.62109 59.7139C3.62109 50.6061 5.42281 48.2969 14.5306 48.2969C23.6385 48.2969 31.0218 55.6803 31.0218 64.7881C31.0218 73.8959 28.9664 78.7422 19.8586 78.7422Z" fill="url(#paint6_radial_394_6314)"/>
<path d="M14.5324 71.4336C10.8621 71.4336 7.88672 68.4582 7.88672 64.7879C7.88672 61.1176 10.8621 58.1422 14.5324 58.1422C18.2027 58.1422 21.1781 61.1176 21.1781 64.7879C21.1781 68.4582 18.2027 71.4336 14.5324 71.4336Z" fill="#7F7F7F" stroke="#878787" stroke-width="1.52226" stroke-miterlimit="10"/>
<path d="M6.99329 28.4041C5.19275 25.7606 5.71735 25.0501 6.1542 23.3288C6.96133 20.1486 9.91828 16.5796 14.6378 12.5945C18.54 9.29944 22.6217 5.19709 26.3585 4.67078C29.2855 4.25853 32.001 6.53051 34.253 9.83688C39.3802 17.3644 37.4343 27.6232 29.9068 32.7504C22.3792 37.8776 12.1205 35.9317 6.99329 28.4041Z" fill="url(#paint7_radial_394_6314)"/>
<path d="M20.6223 25.7656C16.9519 25.7656 13.9766 22.7902 13.9766 19.1199C13.9766 15.4496 16.9519 12.4743 20.6223 12.4743C24.2926 12.4743 27.268 15.4496 27.268 19.1199C27.268 22.7902 24.2926 25.7656 20.6223 25.7656Z" fill="#7F7F7F" stroke="#878787" stroke-width="1.52226" stroke-miterlimit="10"/>
<path d="M44.4687 89.3985C36.3417 89.3985 29.2461 90.1679 29.2461 82.0409C29.2461 73.9139 35.8343 67.3257 43.9613 67.3257C52.0883 67.3257 58.6765 73.9139 58.6765 82.0409C58.6765 90.1679 52.5957 89.3985 44.4687 89.3985Z" fill="url(#paint8_radial_394_6314)"/>
<path d="M43.9612 87.9727C40.6862 87.9727 38.0312 85.3177 38.0312 82.0427C38.0312 78.7676 40.6862 76.1127 43.9612 76.1127C47.2363 76.1127 49.8912 78.7676 49.8912 82.0427C49.8912 85.3177 47.2363 87.9727 43.9612 87.9727Z" fill="#7F7F7F" stroke="#878787" stroke-width="1.52226" stroke-miterlimit="10"/>
</g>
<defs>
<radialGradient id="paint0_radial_394_6314" cx="0" cy="0" r="1" gradientUnits="userSpaceOnUse" gradientTransform="translate(46.4986 45.0014) rotate(-90) scale(16.9986)">
<stop stop-color="#878787"/>
<stop offset="1" stop-color="#878787" stop-opacity="0"/>
</radialGradient>
<radialGradient id="paint1_radial_394_6314" cx="0" cy="0" r="1" gradientUnits="userSpaceOnUse" gradientTransform="translate(32.5455 63.0131) rotate(-90) scale(16.9986)">
<stop stop-color="#878787"/>
<stop offset="1" stop-color="#878787" stop-opacity="0"/>
</radialGradient>
<radialGradient id="paint2_radial_394_6314" cx="0" cy="0" r="1" gradientUnits="userSpaceOnUse" gradientTransform="translate(22.6513 40.9424) rotate(-90) scale(21.5654)">
<stop stop-color="#878787"/>
<stop offset="1" stop-color="#878787" stop-opacity="0"/>
</radialGradient>
<radialGradient id="paint3_radial_394_6314" cx="0" cy="0" r="1" gradientUnits="userSpaceOnUse" gradientTransform="translate(63.499 69.3561) rotate(-90) scale(21.5654)">
<stop stop-color="#878787"/>
<stop offset="1" stop-color="#878787" stop-opacity="0"/>
</radialGradient>
<radialGradient id="paint4_radial_394_6314" cx="0" cy="0" r="1" gradientUnits="userSpaceOnUse" gradientTransform="translate(73.9027 37.1364) rotate(-90) scale(14.7152)">
<stop stop-color="#878787"/>
<stop offset="1" stop-color="#878787" stop-opacity="0"/>
</radialGradient>
<radialGradient id="paint5_radial_394_6314" cx="0" cy="0" r="1" gradientUnits="userSpaceOnUse" gradientTransform="translate(47.8946 12.9062) rotate(-90) scale(17.6329)">
<stop stop-color="#878787"/>
<stop offset="1" stop-color="#878787" stop-opacity="0"/>
</radialGradient>
<radialGradient id="paint6_radial_394_6314" cx="0" cy="0" r="1" gradientUnits="userSpaceOnUse" gradientTransform="translate(14.5306 64.7881) rotate(-90) scale(16.4912)">
<stop stop-color="#878787"/>
<stop offset="1" stop-color="#878787" stop-opacity="0"/>
</radialGradient>
<radialGradient id="paint7_radial_394_6314" cx="0" cy="0" r="1" gradientUnits="userSpaceOnUse" gradientTransform="translate(20.6231 19.1205) rotate(-90) scale(16.4912 16.4912)">
<stop stop-color="#878787"/>
<stop offset="1" stop-color="#878787" stop-opacity="0"/>
</radialGradient>
<radialGradient id="paint8_radial_394_6314" cx="0" cy="0" r="1" gradientUnits="userSpaceOnUse" gradientTransform="translate(43.9613 82.0409) rotate(-90) scale(14.7152)">
<stop stop-color="#878787"/>
<stop offset="1" stop-color="#878787" stop-opacity="0"/>
</radialGradient>
<clipPath id="clip0_394_6314">
<rect width="90" height="90" fill="white" transform="matrix(0 -1 1 0 0 90)"/>
</clipPath>
</defs>
</svg>
