<svg width="90" height="90" viewBox="0 0 90 90" fill="none" xmlns="http://www.w3.org/2000/svg">
<path d="M90 45C90 69.8528 69.8528 90 45 90C20.1472 90 0 69.8528 0 45C0 20.1472 20.1472 -3.05176e-05 45 -3.05176e-05C69.8528 -3.05176e-05 90 20.1472 90 45Z" fill="#6B6B6B"/>
<path d="M68.0314 72.5161C67.7969 70.333 67.8149 67.5546 68.0855 64.1808C68.1216 63.802 68.284 63.4953 68.5727 63.2607C68.8433 63.0262 69.168 62.9269 69.5469 62.963C69.9258 62.9811 70.2325 63.1254 70.467 63.396C70.7016 63.6847 70.8098 64.0185 70.7918 64.3973C70.4129 69.2145 70.5843 72.922 71.306 75.52C71.4142 75.8628 71.3691 76.1966 71.1707 76.5213C70.9902 76.8641 70.7286 77.0806 70.3858 77.1708C70.025 77.2791 69.6822 77.234 69.3575 77.0355C69.0147 76.8551 68.7982 76.5845 68.708 76.2237L68.5997 75.8989C68.3111 76.1334 67.9232 76.395 67.436 76.6837C66.6061 77.1708 65.5597 77.5768 64.2968 77.9015C64.2787 77.9015 64.1885 77.9196 64.0262 77.9556C63.8457 78.0098 63.7104 78.0459 63.6202 78.0639C63.53 78.0819 63.3857 78.109 63.1872 78.1451C62.9707 78.1812 62.7903 78.1992 62.646 78.1992C62.5016 78.1992 62.3212 78.1902 62.1047 78.1722C61.8882 78.1722 61.6898 78.1451 61.5093 78.091C61.3289 78.0549 61.1395 77.9827 60.941 77.8745C60.7426 77.7843 60.5531 77.676 60.3727 77.5497C59.5969 76.9543 59.0737 75.9711 58.8031 74.5999C58.6407 73.6798 58.5686 72.4981 58.5866 71.0547C58.5866 70.9284 58.6407 69.7918 58.749 67.6448C58.7851 66.5082 58.776 65.7414 58.7219 65.3445C58.7039 65.2543 58.6858 65.1641 58.6678 65.0739C58.6317 65.0017 58.5776 64.8845 58.5054 64.7221C58.4332 64.5778 58.3701 64.4064 58.316 64.2079C58.1897 63.8471 58.2077 63.5043 58.3701 63.1795C58.5325 62.8367 58.7941 62.6112 59.1549 62.503C59.5157 62.3767 59.8676 62.3947 60.2103 62.5571C60.5351 62.7195 60.7516 62.9811 60.8598 63.3419L60.9952 63.6396C61.0854 63.8561 61.1666 64.0726 61.2387 64.2891C61.3109 64.5236 61.356 64.7311 61.374 64.9115C61.4823 65.4889 61.5093 66.436 61.4552 67.7531C61.347 69.882 61.2928 71.0006 61.2928 71.1088C61.2748 72.3718 61.3379 73.364 61.4823 74.0857C61.6086 74.7893 61.78 75.2223 61.9965 75.3847C62.1408 75.4749 62.3122 75.511 62.5107 75.493C62.6911 75.4749 63.0699 75.3937 63.6473 75.2494C64.6576 75.0149 65.4695 74.7172 66.0829 74.3563C66.2994 74.23 66.4618 74.1218 66.57 74.0316C66.6963 73.9594 66.8226 73.8602 66.9489 73.7339C67.0752 73.6257 67.1654 73.5445 67.2195 73.4903C67.2737 73.4362 67.3909 73.2919 67.5713 73.0573C67.7518 72.8408 67.9051 72.6604 68.0314 72.5161Z" fill="#E4E4E4"/>
<path d="M51.3895 76.6021C51.2452 76.6382 51.1009 76.6562 50.9565 76.6562H50.713C50.0996 76.6382 49.6034 76.6111 49.2245 76.5751C48.8457 76.557 48.3495 76.4488 47.7361 76.2503C47.1046 76.0699 46.5544 75.8083 46.0853 75.4655C45.508 75.0325 45.0479 74.5003 44.7051 73.8688C44.3443 73.2554 44.1097 72.6059 44.0015 71.9203C43.8932 71.2347 43.8662 70.5491 43.9203 69.8636C43.9564 69.196 44.0646 68.5375 44.245 67.888C44.642 66.5168 45.2915 65.29 46.1935 64.2075C47.1137 63.125 48.1962 62.4665 49.441 62.2319C50.4514 62.0335 51.3805 62.0696 52.2285 62.3402C53.0764 62.6108 53.7801 63.0438 54.3394 63.6392C54.8986 64.2526 55.3587 64.9292 55.7195 65.6689C56.0623 66.4086 56.2969 67.1844 56.4232 67.9962C56.5675 68.754 56.5855 69.5659 56.4773 70.4319C56.351 71.2979 56.1525 72.1097 55.8819 72.8675C55.5932 73.6433 55.1422 74.3469 54.5288 74.9784C53.9154 75.6279 53.1847 76.106 52.3367 76.4127C52.0481 76.5209 51.7323 76.5841 51.3895 76.6021ZM50.3341 73.9229C50.3702 73.9229 50.6408 73.9139 51.146 73.8959C51.2903 73.8959 51.3805 73.8869 51.4166 73.8688C52.2826 73.5621 52.9411 72.8855 53.3922 71.8391C53.8252 70.8107 53.9424 69.6651 53.744 68.4022C53.5455 67.1573 53.1125 66.2101 52.445 65.5606C51.7594 64.9292 50.9205 64.7036 49.9282 64.8841C49.3328 64.9923 48.7464 65.3892 48.1691 66.0748C47.5737 66.7604 47.1317 67.6084 46.843 68.6187C46.5544 69.6651 46.4912 70.6033 46.6536 71.4332C46.816 72.2631 47.1678 72.8855 47.709 73.3005C48.2142 73.6794 49.0802 73.8869 50.307 73.9229L50.3341 73.9229Z" fill="#E4E4E4"/>
<path d="M35.8584 61.3708C35.7321 58.8991 35.6779 55.9042 35.696 52.386L34.397 53.5227C32.8454 54.8397 31.79 55.7869 31.2307 56.3642C30.96 56.6348 30.6443 56.7702 30.2835 56.7702C29.9046 56.7702 29.5799 56.6348 29.3092 56.3642C29.0386 56.1116 28.9033 55.7959 28.9033 55.417C28.9033 55.0562 29.0296 54.7405 29.2822 54.4698C29.9136 53.8384 31.0412 52.8281 32.665 51.4389L32.9085 51.2223C32.3853 50.4646 31.6546 49.337 30.7165 47.8395L28.6056 44.5108C28.4071 44.2041 28.344 43.8613 28.4162 43.4825C28.4883 43.1216 28.6778 42.842 28.9845 42.6435C29.2912 42.427 29.634 42.3549 30.0129 42.427C30.3737 42.4992 30.6624 42.6886 30.8789 42.9953L34.9382 49.4092L35.696 48.5702L35.7501 48.5432C35.7681 46.5586 35.7772 45.007 35.7772 43.8884C35.7772 43.5095 35.9125 43.1938 36.1831 42.9412C36.4357 42.6706 36.7514 42.5353 37.1303 42.5353C37.5092 42.5353 37.8339 42.6706 38.1045 42.9412C38.3571 43.1938 38.4834 43.5095 38.4834 43.8884C38.4834 45.007 38.4654 46.8021 38.4293 49.2739C38.3932 51.7636 38.3842 53.9466 38.4022 55.823C38.4203 57.4648 38.4744 59.2599 38.5646 61.2084C38.5826 61.5873 38.4654 61.912 38.2128 62.1827C37.9602 62.4713 37.6535 62.6247 37.2927 62.6427C36.9138 62.6608 36.589 62.5435 36.3184 62.2909C36.0298 62.0383 35.8764 61.7316 35.8584 61.3708Z" fill="#E4E4E4"/>
<path d="M22.2453 54.63C22.2994 53.9805 22.3084 53.0063 22.2723 51.7073C22.2362 50.2639 22.2362 49.2266 22.2723 48.5951C22.2904 47.9997 22.3535 47.1608 22.4618 46.0783C22.57 44.9958 22.6331 44.3012 22.6512 43.9945C22.6873 43.6336 22.8496 43.3269 23.1383 43.0743C23.4089 42.8398 23.7337 42.7406 24.1126 42.7767C24.4734 42.7947 24.7801 42.939 25.0327 43.2097C25.2672 43.4983 25.3755 43.8321 25.3574 44.211C25.3394 44.5177 25.2763 45.1942 25.168 46.2407C25.0598 47.3051 24.9966 48.126 24.9786 48.7033C24.9605 49.2807 24.9605 50.2639 24.9786 51.6532C25.0146 52.9882 25.0056 54.0347 24.9515 54.7924C24.9154 55.1713 24.7621 55.478 24.4914 55.7125C24.2028 55.9651 23.878 56.0734 23.5172 56.0373C23.1383 56.0192 22.8316 55.8659 22.5971 55.5772C22.3445 55.3066 22.2272 54.9909 22.2453 54.63ZM22.2994 61.098C22.0287 60.8454 21.8934 60.5297 21.8934 60.1508C21.8934 59.7719 22.0287 59.4472 22.2994 59.1765C22.552 58.9239 22.8677 58.7977 23.2466 58.7977C23.6254 58.7977 23.9502 58.9239 24.2208 59.1765C24.4734 59.4472 24.5997 59.7719 24.5997 60.1508C24.5997 60.5297 24.4734 60.8454 24.2208 61.098C23.9502 61.3686 23.6254 61.5039 23.2466 61.5039C22.8677 61.5039 22.552 61.3686 22.2994 61.098Z" fill="#E4E4E4"/>
<path d="M16.9696 61.8833C16.7892 60.4941 16.699 58.9245 16.699 57.1744C16.6809 55.4424 16.708 53.9179 16.7802 52.6009C16.9245 48.7039 16.8433 45.7721 16.5366 43.8056C16.4645 43.4267 16.5456 43.0929 16.7802 42.8042C16.9967 42.4975 17.2944 42.3171 17.6732 42.263C18.0341 42.1908 18.3678 42.272 18.6746 42.5066C18.9632 42.7231 19.1346 43.0117 19.1887 43.3726C19.4233 44.7798 19.5496 46.3585 19.5676 48.1085C19.5857 49.8225 19.5586 51.356 19.4864 52.7091C19.4143 54.0622 19.3872 55.5507 19.4052 57.1744C19.4052 58.7982 19.4954 60.2415 19.6759 61.5044C19.7119 61.8833 19.6217 62.2171 19.4052 62.5057C19.1707 62.8125 18.873 62.9838 18.5122 63.0199C18.1333 63.0741 17.7995 62.9839 17.5109 62.7493C17.2042 62.5328 17.0237 62.2441 16.9696 61.8833Z" fill="#E4E4E4"/>
<path d="M58.5503 18.3422C58.5143 15.9427 58.406 13.7506 58.2256 11.7661C58.1895 11.4052 58.2978 11.0805 58.5503 10.7918C58.7849 10.5031 59.0916 10.3408 59.4705 10.3047C59.8313 10.2686 60.156 10.3769 60.4447 10.6294C60.7334 10.864 60.8958 11.1707 60.9318 11.5496C61.1483 14.1295 61.2656 17.0884 61.2837 20.4261C61.3017 23.7818 61.2746 26.7316 61.2025 29.2755C61.2025 29.6544 61.0671 29.9701 60.7965 30.2227C60.5259 30.4753 60.2011 30.6016 59.8223 30.6016C59.4434 30.6016 59.1277 30.4663 58.8751 30.1956C58.6225 29.925 58.4962 29.6002 58.4962 29.2214V29.059C58.0632 29.3296 57.2874 29.6273 56.1688 29.9521C53.643 30.6737 51.7125 30.1866 50.3775 28.4907C49.4032 27.2819 48.88 25.5228 48.8078 23.2135C48.8078 23.1594 48.7988 23.0782 48.7808 22.9699C48.7627 22.7534 48.7447 22.6091 48.7266 22.5369C48.6906 21.9957 48.7537 21.5266 48.9161 21.1297C49.4573 19.8848 50.3684 18.8835 51.6494 18.1257C52.9123 17.386 54.2384 17.1154 55.6276 17.3139C56.3132 17.4041 57.2874 17.7469 58.5503 18.3422ZM51.4329 22.1581V22.2934C51.4329 22.3295 51.4419 22.4467 51.46 22.6452C51.496 22.8436 51.5141 23.015 51.5141 23.1594C51.5682 24.8372 51.893 26.0551 52.4883 26.8128C53.0837 27.5525 54.058 27.7329 55.4111 27.3541C56.3132 27.1015 56.8544 26.903 57.0348 26.7587C57.089 26.7226 57.4137 26.3437 58.0091 25.6221C58.1715 25.4416 58.3519 25.3154 58.5503 25.2432C58.5684 23.7277 58.5774 22.4016 58.5774 21.265C58.4872 21.247 58.388 21.2199 58.2797 21.1838C57.9008 21.0395 57.5129 20.8681 57.116 20.6696C56.7011 20.4712 56.3583 20.3178 56.0876 20.2096C55.817 20.1013 55.5374 20.0201 55.2487 19.966C54.509 19.8758 53.7693 20.0382 53.0296 20.4531C52.2718 20.8861 51.7396 21.4544 51.4329 22.1581Z" fill="#E4E4E4"/>
<path d="M43.8016 36.5552C43.6212 35.166 43.531 33.5963 43.531 31.8463C43.513 30.1143 43.54 28.5898 43.6122 27.2727C43.7565 23.3757 43.6754 20.444 43.3686 18.4774C43.2965 18.0986 43.3777 17.7648 43.6122 17.4761C43.8287 17.1694 44.1264 16.989 44.5053 16.9349C44.8661 16.8627 45.1999 16.9439 45.5066 17.1784C45.7953 17.3949 45.9667 17.6836 46.0208 18.0444C46.2553 19.4517 46.3816 21.0303 46.3997 22.7804C46.4177 24.4943 46.3906 26.0279 46.3185 27.381C46.2463 28.7341 46.2192 30.2226 46.2373 31.8463C46.2373 33.4701 46.3275 34.9134 46.5079 36.1763C46.544 36.5552 46.4538 36.889 46.2373 37.1776C46.0027 37.4843 45.705 37.6557 45.3442 37.6918C44.9653 37.7459 44.6316 37.6557 44.3429 37.4212C44.0362 37.2047 43.8558 36.916 43.8016 36.5552Z" fill="#E4E4E4"/>
<path d="M32.139 29.7904C32.2292 29.7904 32.5629 29.7634 33.1403 29.7092C33.7176 29.6551 34.1416 29.61 34.4122 29.5739C34.6828 29.5379 35.0617 29.4747 35.5488 29.3845C36.0179 29.3123 36.4419 29.2311 36.8208 29.1409C38.3182 28.726 39.1121 28.1396 39.2023 27.3819C39.2203 27.3277 39.2293 27.2736 39.2293 27.2195V27.0842V27.003C39.2293 26.985 39.2203 26.9669 39.2023 26.9489C39.094 26.8045 38.7693 26.6331 38.228 26.4347C38.21 26.4347 38.1288 26.4076 37.9845 26.3535C37.8221 26.3174 37.5064 26.2272 37.0373 26.0829C36.5682 25.9566 36.1262 25.8303 35.7112 25.704C35.1519 25.5416 34.6738 25.3793 34.2769 25.2169C33.88 25.0725 33.4109 24.856 32.8697 24.5674C32.3284 24.2967 31.8683 23.9449 31.4895 23.5119C31.1106 23.097 30.8219 22.6189 30.6235 22.0776C30.2446 21.0132 30.3438 20.0389 30.9212 19.1549C31.3361 18.5054 31.9946 17.9551 32.8967 17.5041C34.2318 16.8726 35.6571 16.5388 37.1726 16.5027C37.5154 16.5027 37.8582 16.5298 38.201 16.5839C38.5438 16.62 38.9046 16.7012 39.2835 16.8275C39.6443 16.9538 39.9239 17.062 40.1224 17.1522C40.3209 17.2244 40.6186 17.3507 41.0155 17.5311C41.3943 17.7115 41.6199 17.8108 41.692 17.8288C42.0348 17.9731 42.2694 18.2167 42.3957 18.5595C42.54 18.9203 42.54 19.2721 42.3957 19.6149C42.2513 19.9577 42.0078 20.1923 41.665 20.3186C41.3041 20.4629 40.9523 20.4629 40.6095 20.3186C40.4652 20.2464 40.2036 20.1291 39.8247 19.9668L39.067 19.642C38.9407 19.5879 38.7512 19.5157 38.4987 19.4255C38.228 19.3353 38.0025 19.2721 37.8221 19.2361C37.6236 19.218 37.4252 19.209 37.2267 19.209C36.1081 19.227 35.0617 19.4706 34.0875 19.9397C33.6364 20.1562 33.3387 20.3817 33.1944 20.6163C33.1042 20.7606 33.0952 20.941 33.1673 21.1575C33.3117 21.5544 33.6455 21.9062 34.1687 22.2129C34.6919 22.5196 35.4586 22.8173 36.469 23.106C38.1649 23.5931 39.0489 23.8547 39.1211 23.8908C40.2577 24.2877 41.0335 24.8019 41.4485 25.4334C41.8634 26.0287 42.0168 26.7865 41.9085 27.7066C41.656 29.6732 40.1946 31.0173 37.5244 31.7389C37.0914 31.8652 36.5953 31.9735 36.036 32.0637C35.4767 32.1539 35.0437 32.217 34.737 32.2531C34.4303 32.2892 33.9702 32.3343 33.3568 32.3884C32.7434 32.4606 32.4276 32.4967 32.4096 32.4967C32.0307 32.5328 31.6969 32.4335 31.4083 32.199C31.1196 31.9645 30.9572 31.6578 30.9212 31.2789C30.8851 30.9 30.9843 30.5662 31.2188 30.2776C31.4534 29.9889 31.7601 29.8265 32.139 29.7904Z" fill="#E4E4E4"/>
</svg>
