<svg width="90" height="90" viewBox="0 0 90 90" fill="none" xmlns="http://www.w3.org/2000/svg">
<g clip-path="url(#clip0_394_6337)">
<mask id="mask0_394_6337" style="mask-type:luminance" maskUnits="userSpaceOnUse" x="0" y="0" width="90" height="90">
<path d="M0 0L0 90H90V0H0Z" fill="white"/>
</mask>
<g mask="url(#mask0_394_6337)">
<path d="M60.6512 87.1992C77.787 80.841 89.9991 64.3466 89.9991 44.9982C89.9991 25.6498 77.787 9.1553 60.6512 2.7971L56.7383 44.9982L60.6512 87.1992Z" fill="#FFDA44"/>
<path d="M0 44.9982C0 64.3466 12.2119 80.841 29.3479 87.1992L33.2608 44.9982L29.3477 2.7971C12.2119 9.1553 0 25.6498 0 44.9982Z" fill="black"/>
<path d="M29.3477 87.201C34.2226 89.0098 39.4953 90 44.9997 90C50.5042 90 55.7769 89.0098 60.6518 87.201L60.6518 2.7988C55.7769 0.989998 50.5042 0 44.9997 0C39.4953 0 34.2226 0.990004 29.3477 2.799L29.3477 87.201Z" fill="#D80027"/>
</g>
</g>
<defs>
<clipPath id="clip0_394_6337">
<rect width="90" height="90" fill="white" transform="matrix(0 -1 1 0 0 90)"/>
</clipPath>
</defs>
</svg>
