<svg width="90" height="90" viewBox="0 0 90 90" fill="none" xmlns="http://www.w3.org/2000/svg">
<g clip-path="url(#clip0_394_6361)">
<mask id="mask0_394_6361" style="mask-type:luminance" maskUnits="userSpaceOnUse" x="0" y="0" width="90" height="90">
<path d="M0 0L0 90H90V0H0Z" fill="white"/>
</mask>
<g mask="url(#mask0_394_6361)">
<path d="M44.9996 1.6471C68.9464 1.6471 88.3586 21.0553 88.3586 44.9974C88.3586 68.9394 68.9464 88.3477 44.9996 88.3477C21.0527 88.3477 1.64063 68.9394 1.64063 44.9974C1.64063 21.0553 21.0527 1.6471 44.9996 1.6471Z" fill="#FEDE58" stroke="#FF0000" stroke-width="0.401901"/>
<path d="M28.0897 55.8716C28.0897 55.8716 24.2969 55.036 24.2969 55.2931C24.2969 55.5502 25.2612 65.7695 25.2612 65.7695L28.3147 65.6731C28.6805 62.9373 29.2113 57.3725 28.0897 55.8716Z" fill="white"/>
<path d="M27.5779 28.9896C27.5779 28.9896 23.7852 29.8251 23.7852 29.5681C23.7852 29.311 24.7494 19.0916 24.7494 19.0916L26.2923 19.9915C26.6581 22.7273 28.6995 27.4887 27.5779 28.9896Z" fill="white"/>
<path d="M68.8154 52.6886C70.4133 45.2044 67.9166 34.8122 65.8582 31.8955L63.5117 31.6063C65.3027 41.4719 64.0121 47.544 63.7709 54.9062L68.8154 52.6886Z" fill="white"/>
<path d="M0 45.4981C0.004536 47.101 0.0603515 48.6234 0.168283 49.5552C1.42063 60.3659 5.72866 69.4233 13.1528 76.8468C20.5769 84.2696 29.64 88.5804 40.4534 89.8324C42.5835 90.0791 47.8067 90.0479 49.9995 89.7751C53.8122 89.3006 57.5976 88.3798 60.9532 87.1098C63.002 86.3344 66.9425 84.383 68.7209 83.2631C74.0948 79.8787 78.8218 75.3011 82.2983 70.1129C84.9458 66.1618 86.888 61.9901 88.1805 57.4904C89.019 54.5716 89.4576 52.087 89.8825 47.8429C90.3587 43.0861 89.3594 35.8251 87.4806 30.4062C82.181 15.1206 69.1638 3.8705 53.304 0.870499C50.9087 0.417399 46.881 -0.001297 44.9205 -0.001297C43.6207 -0.001297 40.4709 0.271799 38.434 0.560799C32.0919 1.4607 25.6421 3.9114 20.2828 7.4552C18.4838 8.6447 16.8354 9.8795 16.7489 10.1052C16.7124 10.2003 16.6163 10.2773 16.5347 10.2773C16.3158 10.2773 14.1628 12.2315 12.5457 13.8985C9.25044 17.295 6.93275 20.5782 4.73585 24.9609C2.31611 29.7881 0.917875 34.4585 0.226675 40.0114C0.0731642 41.2446 -0.00473278 43.4378 0.00102722 45.4985L0 45.4981ZM3.79404 44.9207C3.82439 33.8943 8.22744 23.3772 16.2508 15.5812C22.7497 9.2663 30.6191 5.4805 39.9028 4.2053C42.1546 3.896 47.5531 3.8917 49.9041 4.1976C54.7897 4.8334 58.804 6.044 63.1562 8.1935C71.39 12.26 77.7568 18.6255 81.824 26.8576C83.9608 31.1825 85.1841 35.2337 85.8017 40.0115C85.9886 41.4582 86.144 46.7721 86.0312 47.9038C85.7187 51.0381 85.4422 52.7523 84.8838 55.0315C81.4188 69.177 70.23 80.725 56.1648 84.6734C46.5528 87.3723 36.2064 86.4946 27.2658 82.223C14.8505 76.2905 6.18959 64.5793 4.23479 51.0856C3.93588 49.0229 3.78934 46.9635 3.79497 44.9217L3.79404 44.9207ZM16.4878 59.5048C16.4996 61.171 16.6946 62.7645 17.0844 64.0514C18.3648 68.2766 19.9355 71.7687 20.7942 72.2994C21.1888 72.5433 21.5133 73.0717 21.5133 73.4771C21.5133 73.8825 21.1806 74.0106 20.7751 73.7601C20.3697 73.5096 20.037 73.6558 20.037 74.0851C20.037 74.5144 20.6163 74.8664 21.3259 74.869C22.0354 74.8716 23.2143 75.9198 23.9418 77.1977L25.2651 79.5227L26.3857 77.9205C27.6848 76.0663 28.844 76.453 28.9673 78.7809C29.0462 80.2706 29.0809 80.2784 29.3995 78.9185C29.5894 78.1078 30.1624 77.1137 30.6731 76.7084C31.1837 76.303 31.7821 74.3555 32.004 72.3799C32.226 70.4043 32.7281 68.5805 33.117 68.3266C33.5058 68.0727 34.0138 67.3669 34.2452 66.7588C35.0881 64.5452 34.8021 57.308 33.859 56.9621C33.1217 56.6919 33.1217 56.428 33.859 55.6467C35.2621 54.1596 34.9817 52.9532 32.6733 50.5381C31.3734 49.1781 29.8207 48.3317 28.6192 48.3317C27.1829 48.3317 26.6725 47.9567 26.6725 46.9016C26.6725 45.1172 25.2312 44.1381 24.4542 45.395C24.1307 45.9183 23.1891 46.1528 22.3238 45.9265C21.4112 45.6879 20.77 45.872 20.7634 46.3739C20.7571 46.8506 20.4364 46.7398 20.0367 46.1215C19.2692 44.934 19.3435 44.7789 18.962 48.3317C18.8968 48.9397 18.4089 50.4345 17.8758 51.6507C16.9554 53.7507 16.4682 56.728 16.4878 59.5048ZM17.1533 23.4346C17.1664 25.7339 17.6053 27.8414 18.4537 29.0556C19.2054 30.1317 20.0381 31.9025 20.301 32.9904C20.7694 34.9293 22.0681 35.701 25.9346 36.3363C29.4187 36.9087 30.5713 36.6101 32.6735 34.5964C34.5507 32.7982 34.7755 32.0922 34.7388 28.1112L34.7006 23.6411L33.3084 26.9564C32.3063 29.3442 31.9038 29.8049 31.8742 28.6007C31.8405 27.234 31.5025 26.9903 30.0231 27.2585C28.1232 27.6029 27.9738 27.3781 27.0362 22.7196C26.6676 20.889 26.8087 20.3259 27.6328 20.3259C28.838 20.3259 29.7073 17.9682 28.9523 16.7468C27.4794 14.3643 23.7368 18.4724 23.7126 22.4979C23.6919 25.9496 22.5571 26.6249 21.2342 23.9739C20.575 22.6528 20.0371 20.9752 20.0371 20.2456C20.0371 17.7947 21.7029 15.1638 23.2535 15.1638C24.4193 15.1638 24.5561 14.9671 23.8731 14.2843C22.3465 12.758 19.1782 14.4648 18.1286 17.3777C17.4614 19.2292 17.1417 21.4059 17.1533 23.4346ZM20.5175 62.4113C20.5285 61.6624 20.697 60.9512 21.0109 60.0557C22.9228 54.6024 24.1368 54.5493 24.3918 59.9104C24.4843 61.8522 24.662 65.3495 24.7896 67.6804C25.1309 73.9159 23.721 73.2232 21.2709 65.952C20.7475 64.3985 20.5033 63.3741 20.5175 62.4113ZM22.3303 28.8264C22.3303 28.4506 22.5489 28.4969 22.9843 29.1705C23.3774 29.7786 23.6797 30.7726 23.6574 31.3807C23.6307 32.1097 23.4021 31.9817 22.9843 31.0097C22.5489 29.9966 22.3303 29.2021 22.3303 28.8264ZM23.7225 33.9579C23.7225 33.3498 23.8538 32.8528 24.0131 32.8528C24.1725 32.8528 24.4911 33.3498 24.7245 33.9579C24.9579 34.5659 24.8304 35.0668 24.4377 35.0668C24.0449 35.0668 23.7225 34.5659 23.7225 33.9579ZM25.1949 23.1861C25.1949 22.7807 25.5276 22.6526 25.9331 22.9031C26.3385 23.1537 26.6712 23.6908 26.6712 24.0962C26.6712 24.5016 26.3385 24.6297 25.9331 24.3792C25.5276 24.1286 25.1949 23.5915 25.1949 23.1861ZM25.1987 59.8142C25.2068 58.9242 25.7196 57.6692 26.5947 56.8775C27.6728 55.902 28.0701 55.8339 28.3311 56.5793C28.5172 57.1108 28.6749 56.6336 28.6829 55.5201C28.6909 54.4065 29.0947 53.0202 29.5779 52.438C30.3369 51.5237 30.6492 51.5447 31.8803 52.5986C33.3487 53.8558 33.8808 55.4079 32.5649 54.5946C31.8369 54.1448 31.9312 55.7035 32.7637 57.9137C33.8325 60.7506 33.8335 64.4547 32.7675 66.6549C32.1398 67.9509 31.483 68.8656 31.3066 68.6892C31.1301 68.5128 31.5298 67.3116 32.1977 66.0202C32.8657 64.7287 33.2281 63.4866 33.0009 63.2593C32.7735 63.0321 32.0823 64.0572 31.4634 65.5384C29.6148 69.9616 27.9363 68.6115 28.6523 63.2746C28.9556 61.0141 28.7738 60.2424 27.8568 59.8906C27.2033 59.6399 26.6712 59.7541 26.6712 60.1468C26.6712 60.5394 26.3384 60.8619 25.933 60.8619C25.4241 60.8619 25.1931 60.4232 25.1987 59.8142ZM29.1305 33.9768C29.121 33.7471 29.2789 33.5906 29.5741 33.5906C30.0035 33.5906 30.3582 33.9232 30.3582 34.3286C30.3582 34.7339 30.2119 35.0666 30.0331 35.0666C29.8543 35.0666 29.4996 34.7339 29.249 34.3286C29.1707 34.2019 29.1347 34.0812 29.1305 33.9768ZM29.8533 62.744C29.8533 62.7898 29.8706 62.834 29.9069 62.8702C30.1002 63.0633 30.6141 63.0036 31.0466 62.7364C32.2227 62.0096 31.9937 61.5841 30.6947 62.0825C30.1863 62.2775 29.8551 62.5457 29.8533 62.744ZM42.9105 51.0087C42.8965 51.9925 44.6806 54.3226 47.6798 57.2339C50.3153 59.7921 52.4719 62.4921 52.4719 63.2373C52.4719 63.9825 52.9962 64.7934 53.6346 65.0384C54.4333 65.3448 54.6586 66.0264 54.3575 67.2257C54.0413 68.4851 54.229 68.9693 55.0382 68.9693C55.7047 68.9693 56.1636 69.6418 56.1703 70.6289C56.1795 71.9699 56.3191 72.0735 56.897 71.1795C57.3733 70.4425 57.6123 70.3818 57.6198 70.9959C57.6261 71.5027 58.2967 71.9175 59.1076 71.9175C59.9185 71.9175 60.58 71.6692 60.58 71.363C60.58 70.7562 64.9038 69.0982 68.1375 68.4645C69.2144 68.2535 69.8698 68.432 70.0957 68.8546L72.1839 68.1242C72.2508 68.0252 72.3291 67.9183 72.4249 67.803C73.1437 66.937 72.8913 66.7591 70.9562 66.7591C69.0241 66.7591 68.4398 66.3415 67.5791 64.3616C67.0063 63.0441 66.5241 62.2731 66.5082 62.6447C66.4923 63.0162 66.2917 63.1319 66.0607 62.9009C65.8297 62.6699 66.3097 61.1619 67.1316 59.5512C67.9534 57.9406 68.4386 56.4337 68.2063 56.2016C67.9741 55.9693 68.1475 54.7327 68.5926 53.456C69.3187 51.3735 69.2447 51.0929 67.8697 50.7335C66.6285 50.409 66.4154 49.935 66.7568 48.229C66.999 47.0179 66.8621 46.122 66.4317 46.122C66.02 46.122 65.7246 44.8775 65.7739 43.3573C65.8231 41.8372 65.5512 38.8512 65.1734 36.723C64.4772 32.8007 64.7347 32.1431 66.3322 33.7404C68.3088 35.7166 67.0196 33.0201 64.6762 30.2759L62.1596 27.3278L62.8939 30.6431C63.2983 32.4674 63.6549 36.9443 63.6856 40.5927C63.7787 51.635 63.5899 54.3519 62.7715 53.8462C62.2838 53.5448 62.1611 54.2167 62.4273 55.7275C62.6547 57.0181 62.4897 58.4948 62.0601 59.0122C61.6306 59.5297 61.2356 61.1522 61.1805 62.6182C61.0606 65.8073 60.3306 65.9869 58.5799 63.2567C55.2124 58.0061 52.7615 55.3284 51.5426 55.5633C50.6784 55.7296 50.2613 55.3438 50.2613 54.3779C50.2613 53.2778 49.5826 52.8348 47.347 52.4775C45.7427 52.221 44.0958 51.4346 43.6831 50.7262C43.0062 49.5643 42.9308 49.5894 42.9105 51.0087ZM42.9755 30.6206C42.9705 30.8484 43.0224 31.0231 43.1362 31.1368C43.5412 31.5418 50.3066 26.6885 54.281 23.1412L57.3216 20.4263L59.0541 23.6919C60.9494 27.2636 61.4075 27.5212 62.8214 25.818C63.3414 25.1915 64.229 24.859 64.7949 25.0762C65.3608 25.2932 66.9911 24.9834 68.4168 24.3879C69.8464 23.7906 70.7963 22.9626 70.5356 22.5409C70.2757 22.1204 69.7542 21.9674 69.3768 22.2006C68.9993 22.4338 68.6922 22.1435 68.6922 21.5582C68.6922 19.2427 57.316 14.4951 54.8855 15.7957C50.8686 17.945 43.034 27.9325 42.9755 30.6206ZM52.1591 51.9895C52.1622 52.0091 52.17 52.0201 52.1782 52.0201C52.3094 52.0201 53.1429 51.2727 54.0294 50.3606C55.2308 49.1245 55.5276 49.0267 55.1959 49.9706C54.9511 50.667 55.0312 51.4095 55.3756 51.6224C55.7201 51.8353 56.2087 51.1853 56.4618 50.177C56.7149 49.1688 57.2811 48.4223 57.7201 48.5213C58.1591 48.6202 58.6551 47.5668 58.8216 46.1773C58.9881 44.7878 59.2846 43.4926 59.4794 43.2979C59.6741 43.1032 59.4519 42.4825 58.986 41.9213C58.359 41.166 58.3535 40.6876 58.9669 40.0743C59.5804 39.461 59.3121 38.797 57.9381 37.5239C56.9171 36.5779 55.9722 35.8031 55.8346 35.8031C55.6972 35.8031 55.4178 36.8832 55.2151 38.2006C55.0124 39.5181 54.1941 43.1655 53.3945 46.3071C52.6449 49.2524 52.114 51.6956 52.1591 51.9895ZM68.8955 19.7922C68.8982 19.8173 68.9018 19.8456 68.9108 19.8725C69.0638 20.3253 69.8262 20.6946 70.6013 20.6946C71.3764 20.6946 73.0891 21.4641 74.4067 22.4038C77.0325 24.2764 77.5291 23.8737 75.512 21.5091C74.849 20.7319 75.3477 20.9606 76.6058 21.9756L75.1754 18.8323L72.701 16.8898C72.6814 17.6293 72.7998 18.0937 73.0566 18.3505C74.0793 19.3729 74.0909 20.5594 73.0719 19.9297C71.7 19.082 68.8111 19.0148 68.8955 19.7922ZM74.1314 53.7244C74.135 55.0654 75.3166 56.0524 76.5065 55.3113C77.6396 54.6053 78.3513 51.787 78.4073 47.7859C78.42 46.8765 78.7049 46.299 79.0383 46.5049C79.3718 46.711 79.7874 46.1306 79.9639 45.2125C80.1404 44.2944 80.3294 43.5208 80.3846 43.4956C80.6518 43.3736 77.4779 37.3275 76.9921 37.0332C76.3555 36.6478 75.0487 38.0004 74.7738 39.3314C74.6725 39.8222 74.8827 40.2262 75.2404 40.2262C75.598 40.2262 75.4623 41.4706 74.9383 42.9908C74.2811 44.8975 74.2181 46.0385 74.7394 46.6692C75.4736 47.5579 75.2779 50.5133 74.334 52.7567C74.195 53.087 74.1305 53.415 74.1314 53.7244Z" fill="black"/>
</g>
</g>
<defs>
<clipPath id="clip0_394_6361">
<rect width="90" height="90" fill="white" transform="matrix(0 -1 1 0 0 90)"/>
</clipPath>
</defs>
</svg>
