<svg width="90" height="90" viewBox="0 0 90 90" fill="none" xmlns="http://www.w3.org/2000/svg">
<g clip-path="url(#clip0_1556_47476)">
<path d="M45.0014 0.40049C56.8294 0.40049 68.1729 5.09914 76.5366 13.4628C84.9003 21.8265 89.5989 33.17 89.5989 44.998C89.5989 56.826 84.9003 68.1696 76.5366 76.5333C68.1729 84.8969 56.8294 89.5956 45.0014 89.5956C33.1734 89.5956 21.8298 84.8969 13.4661 76.5333C5.10247 68.1696 0.403809 56.826 0.403809 44.998C0.403809 33.17 5.10247 21.8265 13.4661 13.4628C21.8298 5.09914 33.1734 0.40049 45.0014 0.40049Z" fill="#3B97D3"/>
<path d="M0.434448 51.2069H13.9655C14.2107 51.2038 14.4543 51.224 14.6948 51.269C16.0367 53.5054 17.4867 55.6752 19.0396 57.7707C19.3162 58.4102 19.7418 58.9742 20.281 59.4155C20.2965 59.431 20.2965 59.4465 20.312 59.4465C28.7041 70.3228 39.9303 78.6767 52.7586 83.5914V89.3172C50.1976 89.7731 47.6012 90.0016 45 90C22.5434 90.0062 3.52238 73.4493 0.434448 51.2069Z" fill="#24AE5F"/>
<path d="M20.3121 59.4465C21.144 60.1396 22.193 60.5186 23.2759 60.5172H26.1L29.4207 67.8258C30.8125 68.8341 32.4339 69.4795 34.1379 69.7034V69.8275C34.1379 71.0621 34.6284 72.2462 35.5014 73.1192C36.3744 73.9922 37.5585 74.4827 38.7931 74.4827H48.1034C49.3381 74.4827 50.5221 74.9731 51.3951 75.8462C52.2682 76.7192 52.7586 77.9032 52.7586 79.1379V83.5913C39.9304 78.6766 28.7041 70.3227 20.3121 59.4465ZM14.6948 51.2689C15.7886 51.4424 16.7847 52.0001 17.5042 52.842C18.2237 53.6838 18.6196 54.7546 18.6207 55.862C18.6207 56.5215 18.765 57.1717 19.0397 57.7706C17.4867 55.6752 16.0367 53.5054 14.6948 51.2689Z" fill="#4FBA6F"/>
<path d="M52.7586 83.5914C55.8063 84.7833 58.9201 85.7987 62.0845 86.6328C59.0848 87.8701 55.957 88.7704 52.7586 89.3173V83.5914ZM4.09654 26.2242C6.48101 35.0131 10.0462 43.4381 14.6948 51.269C14.4543 51.224 14.2107 51.2038 13.9655 51.2069H0.434474C0.14043 49.1511 -0.00477486 47.0767 -8.45102e-06 45C-0.00588269 38.5191 1.39166 32.1137 4.09654 26.2242Z" fill="#2980BA"/>
<path d="M35.6896 48.1034C38.4435 48.1012 41.0953 49.1459 43.1076 51.026C45.1199 52.906 46.3422 55.4808 46.5269 58.2284C46.538 58.4524 46.4996 58.676 46.4143 58.8834C46.329 59.0907 46.1989 59.2767 46.0334 59.4279C43.7289 61.6122 42.1267 64.433 41.431 67.531C41.3917 67.7576 41.3025 67.9725 41.17 68.1604C41.0374 68.3482 40.8647 68.5043 40.6645 68.6172C39.1274 69.4144 37.421 69.8295 35.6896 69.8276C35.1698 69.8338 34.65 69.7919 34.1379 69.7034C32.5859 69.4985 31.1004 68.9446 29.7931 68.0834C29.5479 67.9174 29.3555 67.6862 29.236 67.4162L26.1 60.5172L25.0774 58.2641C24.9517 57.9926 24.9067 57.69 24.9439 57.3936C25.3168 54.811 26.6088 52.4495 28.5828 50.7429C30.5568 49.0363 33.0802 48.0991 35.6896 48.1034ZM35.6896 20.1724C37.4212 20.1688 39.1281 20.5824 40.666 21.3781C40.8663 21.4911 41.0389 21.6471 41.1715 21.835C41.3041 22.0228 41.3932 22.2378 41.4326 22.4643C42.1275 25.5627 43.7292 28.3841 46.0334 30.569C46.1989 30.7202 46.329 30.9062 46.4143 31.1135C46.4996 31.3209 46.538 31.5445 46.5269 31.7684C46.3432 34.4415 45.1781 36.9523 43.2554 38.8184C41.3328 40.6845 38.7883 41.7741 36.111 41.8778C33.4336 41.9816 30.8124 41.0922 28.7511 39.3805C26.6898 37.6688 25.3339 35.2556 24.9439 32.6048C24.9052 32.3069 24.9517 32.0043 25.0789 31.7328L29.2345 22.5776C29.3539 22.3076 29.5464 22.0779 29.7915 21.9135C31.544 20.7667 33.5953 20.1612 35.6896 20.1724Z" fill="white"/>
<path d="M41 58C41 55.2386 38.7614 53 36 53C33.2386 53 31 55.2386 31 58C31 60.7614 33.2386 63 36 63C38.7614 63 41 60.7614 41 58Z" fill="#393F4A"/>
<path d="M41 32C41 29.2386 38.7614 27 36 27C33.2386 27 31 29.2386 31 32C31 34.7614 33.2386 37 36 37C38.7614 37 41 34.7614 41 32Z" fill="#393F4A"/>
<path d="M55.8621 62.0689V27.931H58.9655V62.0689H55.8621Z" fill="#285680"/>
<path d="M65.1724 65.1724C65.1724 65.5839 65.0089 65.9786 64.7179 66.2696C64.4269 66.5606 64.0322 66.7241 63.6206 66.7241C63.2091 66.7241 62.8144 66.5606 62.5234 66.2696C62.2324 65.9786 62.0689 65.5839 62.0689 65.1724C61.996 64.6914 60.9253 63.6207 57.4137 63.6207C53.9022 63.6207 52.8315 64.6914 52.7586 65.2593C52.7578 65.4608 52.7168 65.6602 52.638 65.8457C52.5592 66.0312 52.4442 66.1991 52.2997 66.3396C52.1552 66.48 51.9841 66.5902 51.7964 66.6637C51.6087 66.7372 51.4083 66.7725 51.2068 66.7676C50.7908 66.7578 50.3952 66.5853 50.1051 66.287C49.8149 65.9887 49.6534 65.5885 49.6551 65.1724C49.6551 64.9815 49.7436 60.5172 57.4137 60.5172C65.0839 60.5172 65.1724 64.9815 65.1724 65.1724ZM65.1724 24.8276C65.1724 25.0184 65.0839 29.4827 57.4137 29.4827C49.7436 29.4827 49.6551 25.0184 49.6551 24.8276C49.6452 24.416 49.7992 24.0174 50.0833 23.7194C50.3673 23.4214 50.7581 23.2485 51.1696 23.2386C51.5811 23.2287 51.9797 23.3827 52.2777 23.6668C52.5757 23.9508 52.7487 24.3415 52.7586 24.7531C52.8486 25.3226 53.9286 26.3793 57.4137 26.3793C60.9253 26.3793 61.996 25.3086 62.0689 24.7407C62.0697 24.5391 62.1106 24.3398 62.1894 24.1543C62.2682 23.9688 62.3833 23.8009 62.5278 23.6604C62.6723 23.52 62.8434 23.4097 63.0311 23.3362C63.2187 23.2627 63.4192 23.2274 63.6206 23.2324C64.0366 23.2422 64.4322 23.4147 64.7224 23.713C65.0125 24.0113 65.1741 24.4115 65.1724 24.8276Z" fill="#285680"/>
<path d="M64.504 1.06054C70.961 3.87351 76.6676 8.16285 81.1646 13.5834C85.6616 19.004 88.8234 25.4045 90.3958 32.2699C89.9594 31.9866 89.4812 31.7722 88.9792 31.6316C87.5923 31.2506 86.111 31.4324 84.8575 32.1376C83.604 32.8428 82.6795 34.0144 82.2851 35.3975C81.7921 37.1456 80.6389 38.6335 79.0692 39.5471C77.4995 40.4608 75.6362 40.7285 73.8727 40.2938C72.9584 40.0296 72.1051 39.5879 71.3615 38.9938C70.6179 38.3997 69.9987 37.665 69.5392 36.8315C69.0797 35.9981 68.7889 35.0823 68.6834 34.1364C68.5779 33.1905 68.6598 32.2332 68.9245 31.319L70.3007 26.4028C70.5215 25.6179 70.5853 24.7971 70.4884 23.9875C70.3915 23.1779 70.1358 22.3953 69.736 21.6847C69.3362 20.974 68.8001 20.3492 68.1585 19.8461C67.5169 19.3429 66.7823 18.9713 65.9968 18.7524C64.4116 18.3087 63.0676 17.2533 62.2604 15.8186C61.4533 14.3839 61.2492 12.6873 61.6929 11.1021L64.504 1.06054Z" fill="#4FBA6F"/>
</g>
<rect x="1" y="89" width="88" height="88" rx="44" transform="rotate(-90 1 89)" stroke="#393F4A" stroke-width="2"/>
<defs>
<clipPath id="clip0_1556_47476">
<rect y="90" width="90" height="90" rx="45" transform="rotate(-90 0 90)" fill="white"/>
</clipPath>
</defs>
</svg>
