<svg width="90" height="90" viewBox="0 0 90 90" fill="none" xmlns="http://www.w3.org/2000/svg">
<g clip-path="url(#clip0_2250_970)">
<path d="M0.82132 45.0127C0.822126 20.6193 20.6038 0.842519 45 0.850586L46.1407 0.864258C70.0112 1.46125 89.1787 20.9965 89.1787 45.0127C89.1785 69.4109 69.3973 89.1868 45 89.1787L43.8594 89.1641C19.9902 88.5666 0.821521 69.0295 0.82132 45.0127Z" fill="#963BB6" stroke="#010101" stroke-width="1.64279" stroke-linecap="round" stroke-linejoin="round"/>
<path d="M48.9386 0.201302C67.7033 8.7561 80.7552 27.6892 80.7552 49.6656C80.7552 62.1191 76.562 73.5874 69.5103 82.7509C81.8436 74.7283 89.9959 60.8287 89.9959 45.0165C89.9959 21.4959 71.9458 2.18907 48.9386 0.201302Z" fill="#010101" fill-opacity="0.3137"/>
<path d="M43.8629 8.43411C58.8897 5.92966 70.9468 17.2856 73.6481 41.3212C75.9128 61.4771 62.4889 81.1599 45.3835 81.1564C27.9718 69.706 8.27817 37.518 25.3829 37.3427C32.7424 37.2676 14.7937 17.0208 43.8629 8.43411Z" fill="#010101" fill-opacity="0.3137"/>
<path d="M32.8486 15.9081C27.6941 16.2802 22.8569 17.5896 18.5743 19.6254C16.8566 17.332 13.8158 15.7972 10.3557 15.7972C5.00086 15.7972 0.653839 19.4501 0.653839 23.9474C0.653839 26.8561 2.47995 29.3999 5.20945 30.8418C2.31358 35.1423 0.653839 40.1047 0.653839 45.3927C0.653839 50.681 2.31501 55.6348 5.20945 59.9321C2.47995 61.3747 0.653839 63.9178 0.653839 66.8262C0.653839 71.3256 5.00086 74.9793 10.3557 74.9793C13.8205 74.9793 16.858 73.4494 18.5743 71.1507C22.8569 73.1868 27.6945 74.4952 32.8493 74.8669C36.7967 78.619 41.5373 80.8075 46.6357 80.8075C60.3708 80.8075 71.5013 64.9496 71.5013 45.3891C71.5013 25.8257 60.3708 9.96894 46.6357 9.96894C41.5373 9.96894 36.7967 12.155 32.8486 15.9081Z" fill="#CC6DEE" stroke="#010101" stroke-width="1.30747" stroke-linecap="round" stroke-linejoin="round"/>
<path d="M49.6303 26.5807C52.4818 27.9618 53.8199 30.4984 52.6178 32.2408C51.4192 33.9868 48.1384 34.2802 45.2905 32.8991C42.4425 31.5181 41.1044 28.9814 42.303 27.2391C43.5051 25.4931 46.786 25.1997 49.6303 26.5807Z" fill="#010101"/>
<path d="M49.6303 64.1937C52.4818 62.8126 53.8199 60.2767 52.6178 58.5318C51.4192 56.7873 48.1384 56.4924 45.2905 57.8753C42.4425 59.2556 41.1044 61.7915 42.303 63.5364C43.5051 65.2817 46.786 65.5758 49.6303 64.1937Z" fill="#010101"/>
<path d="M5.23309 24.2193C5.23309 25.8544 6.25813 27.2855 7.79014 28.0977C9.79442 25.5968 12.3536 23.4465 15.3303 21.7614C14.36 20.4805 12.6459 19.6219 10.7039 19.6219C7.68496 19.6219 5.23309 21.6827 5.23309 24.2193Z" fill="#E6E6E6" stroke="#010101" stroke-width="1.30747" stroke-linecap="round" stroke-linejoin="round"/>
<path d="M5.23309 67.2161C5.23309 65.5811 6.25813 64.1528 7.79014 63.3382C9.79442 65.8387 12.3536 67.9918 15.3303 69.6744C14.36 70.9581 12.6459 71.8136 10.7039 71.8136C7.68496 71.8136 5.23309 69.7531 5.23309 67.2161Z" fill="#E6E6E6" stroke="#010101" stroke-width="1.30747" stroke-linecap="round" stroke-linejoin="round"/>
<path d="M26.3428 28.917C30.8218 28.917 34.4533 32.5484 34.4533 37.0243C34.4533 41.5037 30.8218 45.1351 26.3428 45.1351C21.8638 45.1351 18.2323 41.5037 18.2323 37.0243C18.2323 32.5484 21.8638 28.917 26.3428 28.917Z" fill="white" stroke="#010101" stroke-width="1.30747" stroke-linecap="round" stroke-linejoin="round"/>
<path d="M27.7739 36.1263C29.2669 36.1263 30.4776 37.3356 30.4776 38.8275C30.4776 40.3231 29.2669 41.5323 27.7739 41.5323C26.2809 41.5323 25.0702 40.3231 25.0702 38.8275C25.0702 37.3356 26.2809 36.1263 27.7739 36.1263Z" fill="#010101"/>
<path d="M26.3428 47.7863C30.8218 47.7827 34.4533 51.4142 34.4533 55.8929C34.4533 60.3715 30.8218 64.0023 26.3428 64.0012C21.8638 64.0023 18.2323 60.3715 18.2323 55.8929C18.2323 51.4142 21.8638 47.7827 26.3428 47.7863Z" fill="white" stroke="#010101" stroke-width="1.30747" stroke-linecap="round" stroke-linejoin="round"/>
<path d="M27.7739 51.163C29.2669 51.1623 30.4776 52.3727 30.4776 53.8657C30.4776 55.3587 29.2669 56.5691 27.7739 56.5687C26.2809 56.5691 25.0702 55.3587 25.0702 53.8657C25.0702 52.3727 26.2809 51.1623 27.7739 51.163Z" fill="#010101"/>
<path d="M41.8057 10.6703C58.8288 12.4341 65.1937 20.8062 67.3261 40.0082C68.2814 48.5949 69.2366 54.0814 64.8216 69.9432C72.4566 55.3934 70.7858 53.1276 71.1436 41.679C71.4191 32.9134 67.4477 18.7811 54.8038 11.7436C45.1438 7.80803 43.6733 10.3196 41.8057 10.6703Z" fill="#010101" fill-opacity="0.3137"/>
</g>
<defs>
<clipPath id="clip0_2250_970">
<rect width="90" height="90" fill="white" transform="matrix(0 -1 1 0 0 90)"/>
</clipPath>
</defs>
</svg>
