<svg width="90" height="90" viewBox="0 0 90 90" fill="none" xmlns="http://www.w3.org/2000/svg">
<g clip-path="url(#clip0_394_6424)">
<mask id="mask0_394_6424" style="mask-type:luminance" maskUnits="userSpaceOnUse" x="0" y="0" width="90" height="90">
<path d="M0 0L0 90H90V0H0Z" fill="white"/>
</mask>
<g mask="url(#mask0_394_6424)">
<path d="M44.9992 0.851181C69.3967 0.843181 89.1775 20.616 89.1775 45.0134C89.1775 69.4118 69.3966 89.1877 44.9992 89.1797C20.603 89.1873 0.820313 69.4118 0.820313 45.0134C0.821119 20.62 20.603 0.843181 44.9992 0.851181Z" fill="#963BB6" stroke="#010101" stroke-width="1.64279" stroke-linecap="round" stroke-linejoin="round"/>
<path d="M48.9375 0.200401C67.7022 8.7552 80.7541 27.6884 80.7541 49.6647C80.7541 62.1183 76.5609 73.5865 69.5093 82.75C81.8425 74.7275 89.9948 60.8279 89.9948 45.0156C89.9948 21.495 71.9447 2.1882 48.9375 0.200401Z" fill="#010101" fill-opacity="0.3137"/>
<path d="M40.1299 11.5609C53.8583 9.2729 64.8737 19.6476 67.3416 41.6066C69.4107 60.021 57.1466 78.0033 41.5191 78C25.6117 67.5389 7.61965 38.132 23.2465 37.9718C29.9702 37.9032 13.5722 19.4057 40.1299 11.5609Z" fill="#010101" fill-opacity="0.3137"/>
<path d="M30.0655 18.3876C25.3563 18.7275 20.9371 19.9239 17.0245 21.7837C15.4552 19.6885 12.6771 18.2862 9.51601 18.2862C4.62378 18.2862 0.652344 21.6236 0.652344 25.7323C0.652344 28.3897 2.32068 30.7137 4.81435 32.031C2.16868 35.96 0.652344 40.4936 0.652344 45.3247C0.652344 50.1561 2.16999 54.682 4.81435 58.608C2.32068 59.9259 0.652344 62.2493 0.652344 64.9064C0.652344 69.017 4.62378 72.355 9.51601 72.355C12.6814 72.355 15.4565 70.9573 17.0245 68.8572C20.9371 70.7174 25.3567 71.9128 30.0662 72.2524C33.6725 75.6802 38.0035 77.6797 42.6613 77.6797C55.2098 77.6797 65.3786 63.1919 65.3786 45.3214C65.3786 27.4483 55.2098 12.9616 42.6613 12.9616C38.0035 12.9616 33.6725 14.9587 30.0655 18.3876Z" fill="#963BB6" stroke="#010101" stroke-width="1.30747" stroke-linecap="round" stroke-linejoin="round"/>
<path d="M45.3964 28.1353C48.0015 29.397 49.224 31.7145 48.1258 33.3064C47.0308 34.9015 44.0334 35.1695 41.4315 33.9078C38.8297 32.6461 37.6072 30.3286 38.7022 28.7368C39.8004 27.1417 42.7978 26.8736 45.3964 28.1353Z" fill="#010101"/>
<path d="M45.3964 62.501C48.0015 61.2393 49.224 58.9224 48.1258 57.3283C47.0308 55.7345 44.0334 55.4652 41.4315 56.7285C38.8297 57.9896 37.6072 60.3064 38.7022 61.9005C39.8004 63.495 42.7978 63.7637 45.3964 62.501Z" fill="#010101"/>
<path d="M4.83594 25.9802C4.83594 27.474 5.77241 28.7814 7.17206 29.5234C9.00317 27.2386 11.3413 25.2742 14.0608 23.7346C13.1743 22.5644 11.6083 21.7799 9.83407 21.7799C7.07596 21.7799 4.83594 23.6627 4.83594 25.9802Z" fill="#E6E6E6" stroke="#010101" stroke-width="1.30747" stroke-linecap="round" stroke-linejoin="round"/>
<path d="M4.83594 65.2607C4.83594 63.7669 5.77241 62.4621 7.17206 61.7178C9.00317 64.0023 11.3413 65.9693 14.0608 67.5066C13.1743 68.6794 11.6083 69.4609 9.83407 69.4609C7.07596 69.4609 4.83594 67.5785 4.83594 65.2607Z" fill="#E6E6E6" stroke="#010101" stroke-width="1.30747" stroke-linecap="round" stroke-linejoin="round"/>
<path d="M24.1207 30.2769C28.2127 30.2769 31.5305 33.5946 31.5305 37.6837C31.5305 41.776 28.2127 45.0938 24.1207 45.0938C20.0286 45.0938 16.7109 41.776 16.7109 37.6837C16.7109 33.5946 20.0286 30.2769 24.1207 30.2769Z" fill="white" stroke="#010101" stroke-width="1.30747" stroke-linecap="round" stroke-linejoin="round"/>
<path d="M25.4272 36.8657C26.7912 36.8657 27.8973 37.9705 27.8973 39.3336C27.8973 40.6999 26.7912 41.8047 25.4272 41.8047C24.0632 41.8047 22.957 40.6999 22.957 39.3336C22.957 37.9705 24.0632 36.8657 25.4272 36.8657Z" fill="#010101"/>
<path d="M24.1207 47.5142C28.2127 47.5109 31.5305 50.8286 31.5305 54.9203C31.5305 59.0121 28.2127 62.3291 24.1207 62.3281C20.0286 62.3291 16.7109 59.0121 16.7109 54.9203C16.7109 50.8286 20.0286 47.5109 24.1207 47.5142Z" fill="white" stroke="#010101" stroke-width="1.30747" stroke-linecap="round" stroke-linejoin="round"/>
<path d="M25.4272 50.6004C26.7912 50.5998 27.8973 51.7056 27.8973 53.0696C27.8973 54.4336 26.7912 55.5394 25.4272 55.5391C24.0632 55.5394 22.957 54.4336 22.957 53.0696C22.957 51.7056 24.0632 50.5998 25.4272 50.6004Z" fill="#010101"/>
<path d="M38.25 13.606C53.8024 15.2175 59.6173 22.8662 61.5655 40.4091C62.4382 48.254 63.3109 53.2665 59.2774 67.7578C66.2527 54.4651 64.7263 52.395 65.0531 41.9356C65.3048 33.9274 61.6766 21.0161 50.1251 14.5866C41.2997 10.9911 39.9562 13.2857 38.25 13.606Z" fill="#010101" fill-opacity="0.3137"/>
</g>
</g>
<defs>
<clipPath id="clip0_394_6424">
<rect width="90" height="90" fill="white" transform="matrix(0 -1 1 0 0 90)"/>
</clipPath>
</defs>
</svg>
