<svg width="90" height="90" viewBox="0 0 90 90" fill="none" xmlns="http://www.w3.org/2000/svg">
<g clip-path="url(#clip0_394_6590)">
<mask id="mask0_394_6590" style="mask-type:luminance" maskUnits="userSpaceOnUse" x="0" y="0" width="90" height="90">
<path d="M0 0L0 90H90V0H0Z" fill="white"/>
</mask>
<g mask="url(#mask0_394_6590)">
<path d="M90 45C90 20.1472 69.8528 0 45 0C20.1472 0 0 20.1472 0 45C0 69.8528 20.1472 90 45 90C69.8528 90 90 69.8528 90 45Z" fill="#F0F0F0"/>
<path d="M35.2161 28.0553V39.3515L25.4335 44.9993L35.2161 50.647V61.9434L44.9987 56.2949L54.7812 61.9434V50.647L64.5638 44.9993L54.7812 39.3515V28.0553L44.9987 33.7038L35.2161 28.0553ZM44.9987 38.0604L51.0083 41.5296V48.4686L44.9987 51.9383L38.9891 48.4687V41.5298L44.9987 38.0604ZM32.9793 44.9993L35.2159 43.708V46.2903L32.9793 44.9993ZM38.9891 55.408V52.8255L41.2257 54.1168L38.9891 55.408ZM51.0083 55.408L48.7716 54.1166L51.0083 52.8253V55.408ZM57.0179 44.9993L54.7812 46.2905V43.708L57.0179 44.9993ZM51.0083 34.5906V37.1732L48.7716 35.8817L51.0083 34.5906ZM38.9891 37.1732V34.5906L41.2257 35.8819L38.9891 37.1732ZM9.78125 16.9874L9.78125 73.0113C13.0603 77.1292 17.033 80.643 21.5204 83.3945L21.5204 6.6041C17.0331 9.3559 13.0604 12.8696 9.78125 16.9874ZM80.2161 73.0113V16.9875C76.9371 12.8697 72.9644 9.3559 68.4769 6.6043V83.3945C72.9643 80.6428 76.9369 77.129 80.2161 73.0113Z" fill="#0052B4"/>
</g>
</g>
<defs>
<clipPath id="clip0_394_6590">
<rect width="90" height="90" fill="white" transform="matrix(0 -1 1 0 0 90)"/>
</clipPath>
</defs>
</svg>
