<svg width="90" height="90" viewBox="0 0 90 90" fill="none" xmlns="http://www.w3.org/2000/svg">
<g clip-path="url(#clip0_394_6609)">
<mask id="mask0_394_6609" style="mask-type:luminance" maskUnits="userSpaceOnUse" x="0" y="0" width="90" height="90">
<path d="M0 0L0 90H90V0H0Z" fill="white"/>
</mask>
<g mask="url(#mask0_394_6609)">
<path d="M87.9705 35.9123C82.0014 11.9077 57.7498 -3.65894 33.803 1.14326C9.85611 5.94546 -4.71774 29.298 1.25132 53.3026C7.22038 77.3072 31.472 92.8738 55.4188 88.0716C79.3657 83.2695 93.9395 59.917 87.9705 35.9123Z" fill="#FF8838"/>
<path d="M89.9705 49.5219C89.8541 53.7661 89.1199 57.1507 86.9897 63.2615C86.5889 64.4086 85.5297 66.6163 84.9172 67.5803C82.7588 70.9808 80.8895 73.3841 77.8465 76.6679C77.3877 77.163 77.007 77.5822 77.0005 77.5997C76.9512 77.7317 74.0065 80.5133 73.5012 80.9048C71.8475 82.1869 70.4763 83.0503 68.7155 83.9179C68.4636 84.0421 68.1867 84.1843 68.1001 84.234C66.7479 85.0103 63.2065 86.5159 61.2158 87.1605C58.525 88.0324 53.6872 89.1021 51.0679 89.404C50.7184 89.4443 50.4759 89.4783 50.0374 89.5486C48.4406 89.8043 47.3664 89.8911 46.9028 89.8019C46.8713 89.7959 46.1951 89.7795 45.4 89.7655C43.2225 89.7272 42.1329 89.6673 41.6677 89.5605C41.346 89.4867 41.0274 89.4384 40.3047 89.3542C38.8906 89.1893 37.7466 88.9884 36.1253 88.6202C34.6305 88.2808 31.1747 87.3196 30.066 86.935C29.8272 86.8521 29.5695 86.7712 29.4935 86.7553C29.1628 86.6859 28.9564 86.6123 28.4421 86.3804C27.0789 85.7658 24.0552 84.4956 23.955 84.4956C23.8531 84.4956 19.5741 81.7254 18.2627 80.8105C11.302 75.9534 7.24858 71.1347 4.00469 63.8606C0.852687 56.7912 -0.152942 50.4545 0.0285463 38.8144C0.0302016 38.7083 0.0230688 38.4711 0.0126953 38.2873C-0.00425155 37.987 3.00296e-05 37.9365 0.0548871 37.7903C0.0936266 37.687 0.131129 37.4789 0.157497 37.2209C0.180354 36.9972 0.250085 36.4226 0.312452 35.9441C0.374819 35.4656 0.446713 34.8832 0.472213 34.6499C0.497713 34.4166 0.529649 34.2026 0.543183 34.1743C0.556717 34.146 0.582378 34.0246 0.600206 33.9044C0.65564 33.5307 0.733022 33.2383 0.896227 32.7856C1.08941 32.2498 1.132 32.1013 1.17259 31.8221C1.30613 30.9035 2.42105 27.5368 2.98882 26.3378C3.14983 25.9978 3.27642 25.6727 3.66124 24.6114C4.20725 23.1054 4.59499 22.3205 5.5535 20.781C6.07744 19.9395 6.19367 19.7452 6.5739 19.0753C7.00189 18.3213 7.2623 17.9394 7.7425 17.3617C8.12764 16.8983 8.27334 16.6873 8.34814 16.4845C8.40371 16.3339 8.63013 16.0271 8.90514 15.7296C9.14571 15.4694 9.4367 15.0843 9.63279 14.7664C9.76809 14.5471 9.94953 14.3537 10.1079 14.26C10.1478 14.2364 10.285 14.0801 10.4128 13.9126C10.9455 13.2149 12.706 11.5047 14.0695 10.3604C15.2724 9.3509 16.0388 8.7589 16.4838 8.4954C16.6436 8.4008 17.0159 8.153 17.311 7.9447C19.7737 6.207 20.5763 5.7245 22.5567 4.791C23.3237 4.4294 23.7651 4.1942 23.9594 4.0436C24.2237 3.8385 25.3206 3.3849 25.7219 3.3146C25.991 3.2675 26.3781 3.1464 27.2084 2.8496C28.2068 2.4927 28.7846 2.3041 29.5271 2.0927C30.3213 1.8667 30.6615 1.7565 30.8868 1.6524C31.1337 1.5383 31.4383 1.4628 32.2854 1.3058C33.0636 1.1615 33.5586 1.0522 34.0786 0.909798C35.0069 0.655598 36.6336 0.377597 38.0576 0.229897C40.4345 -0.0168035 45.7752 -0.0609979 47.481 0.151802C47.8195 0.194002 48.2788 0.240203 48.5017 0.254303C49.5576 0.321403 51.1024 0.542596 52.3496 0.805496C52.9908 0.940696 53.6685 1.0671 54.9754 1.2956C57.092 1.6655 58.27 1.9561 59.1119 2.3159C59.2772 2.3866 59.5735 2.4938 59.7703 2.5543C61.4859 3.0811 63.3219 3.8553 65.6237 5.0225C65.9226 5.1741 66.2833 5.3504 66.4252 5.4143C66.9421 5.6471 67.94 6.1772 68.3007 6.4107C68.3715 6.4565 68.8357 6.7132 69.3322 6.9811C69.8286 7.249 70.3368 7.541 70.4615 7.6299C70.5862 7.7189 70.705 7.7975 70.7254 7.8045C70.7458 7.8116 70.7627 7.8305 70.7629 7.8467C70.7631 7.8629 70.908 7.9682 71.0849 8.0809C71.8418 8.5627 71.9776 8.668 73.2243 9.7395C74.0571 10.4552 74.6083 10.9022 74.7945 11.0128C74.8565 11.0497 74.9697 11.1501 75.0462 11.236C75.182 11.3885 75.6783 11.8221 75.717 11.8221C75.7278 11.8221 75.8973 11.987 76.0939 12.1884C76.2904 12.3899 76.628 12.7283 76.8442 12.9404C77.4305 13.5155 77.7934 13.9118 77.8883 14.0806C77.9349 14.1635 78.0584 14.3149 78.1627 14.417C78.6867 14.9297 79.8667 16.3796 80.3294 17.0792C80.5998 17.488 81.154 18.4006 81.9842 19.8041C82.4183 20.538 82.6085 20.8458 83.152 21.6936C83.7015 22.5508 84.0137 23.1468 84.4313 24.1357C84.761 24.9166 85.0349 25.5204 85.3469 26.1537C85.8797 27.2353 86.0274 27.6036 86.2492 28.4031C86.4642 29.1782 86.6778 29.8192 87.0798 30.8967C87.6446 32.4103 88.0605 33.7974 88.1086 34.3283C88.1244 34.5022 88.1628 34.6958 88.206 34.819C88.3029 35.0958 88.9684 38.5666 89.2383 40.2026C89.8201 43.7291 90.0484 46.6394 89.9694 49.5214L89.9705 49.5219ZM88.3784 44.0651L88.3598 43.7753L87.9706 44.1175C86.3624 45.5316 85.3895 46.175 83.9389 46.7836C83.6378 46.9099 83.5425 46.9392 83.4752 46.9259C83.3648 46.9042 82.8851 47.1212 82.4833 47.3747C81.6357 47.9095 81.0828 48.0957 80.8614 47.9211C80.6943 47.7894 80.9693 47.5682 81.8312 47.1411C82.3296 46.8942 82.9868 46.5325 82.9868 46.5052C82.9868 46.4947 83.1253 46.3973 83.2946 46.2886C83.4638 46.1799 83.6731 46.034 83.7596 45.9644C83.8462 45.8947 83.9235 45.8465 83.9314 45.8573C83.9393 45.8681 84.1841 45.7219 84.4754 45.5325C86.8122 44.0128 87.4101 43.502 88.1538 42.3903C88.284 42.1957 88.2829 42.2362 88.1805 41.4115C88.0511 40.3693 87.8556 39.2798 87.5815 38.0725C87.4314 37.4112 87.0613 35.8834 87.0236 35.7689C87.0096 35.7265 86.9703 35.536 86.9362 35.3457C86.8527 34.879 86.7178 34.3964 86.4805 33.7153C86.3715 33.4026 86.1793 32.8286 86.0533 32.4397C85.6888 31.3149 85.1913 29.9548 84.659 28.6278L84.5786 28.4276L83.976 27.9955C81.6377 26.3192 80.4859 25.8013 76.675 24.713C75.3496 24.3345 75.2534 24.2772 75.5007 24.0134C75.6264 23.8792 75.6646 23.8842 76.6387 24.1617C80.4443 25.2457 81.82 25.8323 83.7981 27.2138C83.9973 27.353 84.1019 27.4124 84.0904 27.3799C84.0806 27.3521 84.0608 27.2646 84.0465 27.1855C83.9896 26.8715 83.2713 25.4588 81.9605 23.0827C81.4237 22.1095 81.1842 21.7294 80.3819 20.5762C79.8737 19.8459 79.363 19.0645 79.1734 18.7272C78.9235 18.2826 78.5515 17.8168 78.1148 17.4014C77.8624 17.1614 77.7827 17.066 77.6913 16.8943C77.5672 16.661 77.6204 16.7037 76.8609 16.2292C76.6641 16.1063 76.1102 15.7431 75.63 15.4222C73.9081 14.2714 73.4295 14.0274 71.6367 13.3858C70.8993 13.1219 70.8832 13.1148 70.8338 13.029C70.7698 12.9179 70.7824 12.8303 70.8744 12.7478C71.0238 12.6136 71.0388 12.6162 71.8722 12.9166C73.48 13.4964 74.25 13.8681 75.3866 14.6131L75.7301 14.8383L75.2793 14.4224C75.0313 14.1936 74.8284 13.9938 74.8284 13.9783C74.8284 13.8477 72.1188 11.3966 71.0068 10.5212C70.4411 10.0759 69.3015 9.3032 68.0546 8.5196C67.6947 8.2934 67.1103 7.9125 66.756 7.6733C65.7612 7.0016 64.4663 6.2098 63.8172 5.8761C62.6166 5.259 61.4628 4.7618 60.7159 4.5396C60.4561 4.4624 60.0954 4.3442 59.9144 4.2771C59.131 3.9867 57.7412 3.626 56.9516 3.5082C56.4546 3.4341 55.9896 3.3049 55.3392 3.06C54.8015 2.8576 54.2906 2.7359 53.4306 2.6054C53.1 2.5553 52.3634 2.4343 51.7938 2.3365C48.9046 1.8408 44.7172 1.5959 40.4059 1.6704C38.1925 1.7086 37.9226 1.7349 35.9119 2.1087C33.4534 2.5657 33.1155 2.6482 30.9736 3.3131C30.5564 3.4426 29.8994 3.6355 29.5137 3.7416C28.273 4.0831 27.7492 4.2744 27.5696 4.4516C27.4646 4.5552 27.3508 4.6103 26.966 4.7438C26.8164 4.7957 26.2947 5.0111 25.8066 5.2225C24.6611 5.7186 24.1538 5.9228 23.8336 6.0167C23.5089 6.112 23.2934 6.2232 22.4001 6.7565C21.6716 7.1914 21.3057 7.3806 21.1265 7.4148C21.0507 7.4293 20.9524 7.5012 20.7193 7.7131C20.4749 7.9353 20.3258 8.043 19.9902 8.2395C19.4525 8.5544 19.2172 8.7119 18.3189 9.3586C17.9164 9.6484 17.472 9.9534 17.3313 10.0364C17.0033 10.23 16.7187 10.4439 16.2026 10.8848C15.9743 11.0797 15.3753 11.5772 14.8715 11.9903C13.3943 13.2014 12.8424 13.7487 10.5061 16.3193C9.22773 17.7259 9.02346 18.0097 8.8209 18.6611C8.77473 18.8095 8.66518 19.1623 8.57745 19.4451C8.04252 21.1694 8.18141 25.8251 8.78192 26.2986C8.98572 26.4593 9.0139 26.4423 10.3991 25.326C12.2138 23.8638 12.7389 23.5748 12.7389 24.0384C12.7389 24.4619 11.9066 25.4392 10.2913 26.9125C9.32278 27.7958 8.98033 28.1256 8.76268 28.3846L8.63847 28.5324L8.57191 29.053C8.27752 31.3554 8.39858 35.0391 8.87583 38.3011C9.02329 39.309 8.97507 39.7755 8.69581 40.0427C8.31838 40.4039 7.94091 39.1288 7.75791 36.8743C7.68498 35.9759 7.67232 35.6165 7.64431 33.6481C7.60107 30.6103 7.56975 30.3021 7.34723 30.7245C7.03996 31.3077 6.81656 33.1902 6.89651 34.5222C7.08613 37.6815 7.15981 38.3646 7.34113 38.6438C7.43087 38.7819 7.51188 39.0468 7.60191 39.4965C7.81115 40.5416 8.04684 40.6409 9.37528 40.2432C9.96902 40.0654 10.4604 39.877 10.7956 39.6986C11.924 39.0982 12.7391 38.9585 12.7387 39.3656C12.7385 39.6839 12.5512 39.7915 10.8638 40.4432C8.79235 41.2432 8.80325 41.2342 8.67469 42.2589C8.55979 43.1745 8.46724 44.8532 8.5337 44.8163C8.55571 44.8041 8.68323 44.7238 8.81706 44.6379C9.84897 43.9759 11.0524 43.4256 12.8049 42.8143C13.4308 42.596 13.4834 42.5903 13.6111 42.7266C13.6931 42.8141 13.7024 42.898 13.6417 43.0034C13.593 43.088 13.5582 43.1037 12.9535 43.3142C11.1369 43.9464 9.92397 44.5221 8.79182 45.2896L8.46603 45.5105L8.48143 46.4624C8.49385 47.2297 8.51109 47.5369 8.57038 48.0471C8.61082 48.3951 8.66252 48.9793 8.68526 49.3453C8.708 49.7112 8.73596 50.0338 8.7474 50.0621C8.75884 50.0904 8.79123 50.1604 8.81937 50.2177C8.91043 50.4031 8.9868 50.8937 9.07527 51.8616C9.2354 53.6135 9.49951 54.9279 9.73731 55.1564C10.104 55.5089 13.6156 56.9311 14.3947 57.0429C14.9205 57.1184 16.2643 57.931 16.1404 58.0986C15.989 58.3035 15.1563 58.2764 14.4273 58.0428C14.2488 57.9856 13.8441 57.8713 13.528 57.7887C12.6173 57.5508 11.9021 57.2851 10.9495 56.8309C9.21305 56.0031 9.11615 56.0617 9.35907 57.7929C9.70854 60.2835 10.1103 62.0778 10.5255 63.0022L10.6569 63.2946L10.6629 63.9019C10.6689 64.502 10.7044 64.8906 10.8508 65.9617C10.9398 66.6127 10.9236 66.7329 10.7466 66.7329C10.5372 66.7329 10.4566 66.5614 10.3048 65.7926C10.1562 65.0398 9.91509 63.8894 9.57261 62.2986C8.79648 58.6934 8.73132 58.2708 8.70596 56.6772C8.68711 55.4932 8.68896 55.5093 8.57465 55.5351C7.65427 55.7425 8.06714 60.2705 9.39092 64.487C9.77276 65.7032 9.8581 66.2108 9.7626 66.6975C9.74353 66.7947 9.6723 67.4336 9.60431 68.1174L9.48068 69.3605L9.58323 69.5184C11.4831 72.4454 13.7391 74.8102 16.5605 76.8333C16.8282 77.0253 17.0569 77.1965 17.0688 77.2138C17.125 77.2955 19.7498 79.093 20.6682 79.6787C23.5296 81.5034 26.1653 82.779 28.875 83.651C29.1396 83.7361 29.384 83.8163 29.4181 83.8292C29.7293 83.9471 31.5868 84.4299 32.3903 84.6017C40.6317 86.3639 52.7124 86.0372 60.6155 83.8384C64.0789 82.8747 67.6784 81.1561 70.2836 79.2222C70.3583 79.1667 70.4871 79.0921 70.5699 79.0564C70.6649 79.0154 70.7996 78.9178 70.9351 78.7916C71.1891 78.5553 71.8966 78.0088 72.1803 77.8297C72.7014 77.5008 73.1462 77.1393 74.4131 76.0151C74.9957 75.4983 75.5605 75.0121 75.6684 74.9348C76.5668 74.2907 79.7716 70.3206 81.6131 67.5705C82.5302 66.201 84.0489 63.7338 84.1337 63.4757C84.1596 63.3969 84.1775 63.3749 84.1964 63.3985C84.2152 63.4219 84.218 63.4179 84.2061 63.3849C84.1962 63.3576 84.3305 62.9899 84.53 62.498C85.0732 61.1586 85.6016 59.7816 85.982 58.7145C85.9904 58.6907 85.9861 58.6858 85.9707 58.7016C85.7138 58.9658 85.3012 59.4015 84.8988 59.8339C83.9874 60.8131 83.6325 61.1312 82.729 61.7786C82.4534 61.9761 82.1829 62.1735 82.1278 62.2175C82.0727 62.2614 81.9181 62.3545 81.7843 62.4243C81.6505 62.4942 81.0708 62.8197 80.4961 63.1477C78.4876 64.2942 78.4096 64.3273 78.4068 64.0336C78.4056 63.9031 78.8074 63.5712 79.6803 62.9819C80.8233 62.2102 81.5983 61.5702 82.3531 60.7748C82.4517 60.6708 82.5799 60.5435 82.6379 60.492C82.6959 60.4405 82.8712 60.271 83.0276 60.1155C83.184 59.96 83.679 59.4915 84.1277 59.0744C85.1651 58.1101 85.5749 57.6918 86.3821 56.7736C86.7964 56.3024 86.821 56.2371 87.2337 54.5114C88.0162 51.2394 88.5346 46.5081 88.378 44.0674L88.3784 44.0651ZM75.5797 40.5895C75.4373 40.8178 74.9448 41.2561 74.6114 41.4513C74.2618 41.656 73.6651 42.064 72.994 42.5574C72.3674 43.018 71.8809 43.3495 71.5638 43.5318C70.5247 44.1282 68.3863 45.6475 68.3863 45.7889C68.3863 45.9286 68.9708 46.5555 69.8892 47.4011C70.8469 48.2828 71.5526 48.9504 72.5244 49.8941L73.793 51.1261C75.2416 52.5327 75.1845 52.9102 73.4098 53.66C72.6349 53.9874 71.7793 54.3748 71.392 54.5735C70.9962 54.7767 70.4154 55.0437 70.3043 55.0736C69.845 55.1973 68.0885 56.0599 67.789 56.309C67.3708 56.6567 67.4071 57.1456 67.8872 57.6319C68.1792 57.9276 68.4168 58.1995 68.7522 58.6216C69.1339 59.1021 69.5422 59.5675 70.2112 60.2846C70.6913 60.7992 70.9702 61.1234 71.5352 61.823C71.6533 61.9693 71.8506 62.1806 71.9736 62.2926C72.3562 62.6407 72.3443 62.8589 71.9242 63.2037C71.4334 63.6066 69.1971 64.5607 66.6599 65.4499C64.7772 66.1097 64.7816 66.089 66.0807 68.1718C67.3024 70.1306 67.3862 70.3063 67.1827 70.4836C66.946 70.6899 66.4231 70.8792 65.3981 71.1296C64.813 71.2725 64.155 71.464 63.2623 71.7512C62.8554 71.8822 62.6481 71.9323 61.1154 72.2706C59.8826 72.5428 58.0029 72.9906 57.011 73.2485C56.2578 73.4444 55.7666 73.5527 54.9685 73.6992C54.175 73.8448 53.8652 73.9211 53.5997 74.0362C53.4002 74.1227 53.3275 74.1397 53.0573 74.1626C52.5598 74.205 52.2661 74.2687 50.9388 74.6221C50.2304 74.8108 50.123 74.7978 50.123 74.523C50.123 74.1044 50.7645 73.8497 52.4274 73.6083C53.9554 73.3865 55.5828 73.0614 56.9818 72.6988C57.2478 72.6298 57.8004 72.4863 58.2098 72.3799C58.6191 72.2735 59.2825 72.1048 59.684 72.0049C60.0855 71.9051 60.6469 71.7543 60.9317 71.6699C61.2164 71.5854 62.0731 71.3486 62.8353 71.1435C66.1095 70.2625 66.4196 70.0951 66.0188 69.4244C65.7346 68.949 65.3943 68.7753 65.024 68.9168C64.468 69.1293 62.1775 69.6676 58.0238 70.5617C53.3707 71.5633 52.842 71.7231 52.1014 72.351C51.801 72.6056 51.527 72.8046 50.817 73.2836C50.3335 73.6098 50.0116 73.8473 49.8327 74.0099C49.6811 74.1475 49.3326 74.2032 49.0553 74.1341C48.7843 74.0665 48.8922 73.9462 50.0659 73.0076C50.4831 72.674 51.8099 71.6027 53.0144 70.627C56.189 68.0552 56.6278 67.7046 57.4371 67.094C58.9502 65.9526 60.3835 64.5962 60.3303 64.3563C60.2921 64.1849 59.9361 63.7489 59.343 63.147C58.9175 62.7152 58.6944 62.4579 58.6272 62.3214C58.5955 62.2571 58.4735 62.1017 58.356 61.9759C58.2385 61.8501 58.092 61.686 58.0305 61.6111C57.969 61.5362 57.7883 61.3164 57.629 61.1226C57.4697 60.9289 57.2064 60.6281 57.0439 60.4543C56.5261 59.9003 56.2979 59.6074 55.7959 58.8522C55.4046 58.2637 55.4103 58.2122 55.9106 57.8046C56.2825 57.5015 56.4706 57.3948 56.7548 57.3258C56.8365 57.3059 56.9444 57.2392 57.0983 57.1135C57.3647 56.8958 57.8018 56.5978 58.4677 56.1799C60.1882 55.1002 61.8567 53.7909 62.0279 53.3861C62.0839 53.2539 61.8639 53.0198 60.5544 51.8178C58.0382 49.5083 57.0838 48.5942 56.9724 48.3867C56.9018 48.2553 57.1251 47.9969 58.0805 47.1045C58.353 46.85 58.8672 46.3586 59.2232 46.0125C60.2375 45.0265 60.631 44.6485 61.6192 43.7112C63.8646 41.5815 63.9196 41.3718 62.4755 40.4516C61.6389 39.9184 60.8965 39.4052 59.2642 38.2316C58.3955 37.607 57.4616 36.9461 57.1888 36.7629C55.8542 35.8666 55.8292 35.9579 57.9412 34.018C60.8138 31.3797 61.4802 30.6349 61.2274 30.3465C60.938 30.016 58.2512 28.5219 56.3922 27.6578C54.9419 26.9835 54.2166 26.5315 54.2166 26.3018C54.2166 26.146 54.7432 25.4221 54.983 25.2481C55.2265 25.0714 55.5326 24.7718 56.0149 24.2383C56.577 23.6165 56.8494 23.324 57.2239 22.9401C58.1452 21.996 58.3787 21.5615 58.0967 21.3162C57.8158 21.0718 55.1328 19.5139 54.718 19.3542C54.6305 19.3205 54.4887 19.2215 54.3336 19.086C54.0698 18.8553 53.8945 18.7371 53.8165 18.7371C53.7458 18.7371 53.3042 18.4901 52.6836 18.1036C52.3853 17.9177 51.7097 17.5141 51.1823 17.2065C50.0394 16.5401 49.353 16.1147 48.9637 15.8316C48.8063 15.717 48.4689 15.4732 48.214 15.2897C47.2873 14.6225 46.9731 14.166 47.168 13.7701C47.2812 13.5403 47.9093 13.5584 48.6929 13.814C49.1409 13.9602 49.2137 13.9795 49.5986 14.0546C49.8162 14.0971 50.4258 14.1968 50.9532 14.2763C51.4807 14.3557 52.537 14.5194 53.3006 14.6399C55.6179 15.0058 61.2783 15.8278 63.291 16.0908C64.4481 16.2419 64.5091 16.27 64.5425 16.6672C64.5688 16.9787 64.5048 17.1426 64.2278 17.4738C63.7331 18.0652 63.1155 18.9569 62.9764 19.2806C62.6989 19.9262 62.8358 20.0577 64.1212 20.3798C64.3495 20.437 64.884 20.5828 65.3091 20.7037C65.7342 20.8247 66.6486 21.0629 67.3411 21.2331C71.0708 22.1498 71.1 22.2241 68.458 24.0655C67.8672 24.4773 67.428 24.8369 67.1545 25.1326C66.8838 25.4253 66.633 25.625 66.4248 25.7136C65.6406 26.047 66.0742 26.3971 68.8521 27.674C72.4653 29.3349 73.3693 29.8366 73.2671 30.1251C73.1814 30.3676 71.9464 31.6038 70.0069 33.3881C68.7933 34.5047 68.3851 34.9203 68.2627 35.1638C68.2441 35.2008 68.2298 35.3752 68.229 35.5751C68.2278 35.8912 68.2214 35.9336 68.1569 36.0507C68.0434 36.2564 68.0548 36.7535 68.1808 37.0918C68.4763 37.886 69.0299 38.3294 71.7925 39.9846C73.5198 41.0195 73.553 41.0298 74.1114 40.7055C74.858 40.2717 74.4637 39.8893 71.2205 37.9011C69.6256 36.9235 68.8421 36.3577 68.8826 36.213C68.9784 35.8703 70.2731 36.5367 73.3817 38.5286C75.7222 40.0283 75.8534 40.1512 75.581 40.5879L75.5797 40.5895ZM73.5777 52.1044C73.5093 51.8972 73.4471 51.8013 73.2052 51.5297C72.9469 51.2395 72.9997 51.2504 72.6839 51.4224C72.3124 51.6247 71.6641 51.943 70.6896 52.4016C68.9572 53.2169 68.7919 53.3241 68.3708 53.9057C67.8981 54.5586 67.6232 55.1244 67.68 55.3276C67.7479 55.5704 68.1988 55.5673 68.4854 55.322C68.6641 55.1692 68.7981 55.0975 69.7163 54.6643C71.7573 53.7012 73.3295 52.9311 73.4632 52.8288C73.6172 52.711 73.6693 52.3819 73.5777 52.1044ZM71.6922 30.1114C71.5809 29.8721 71.1306 29.5872 69.5732 28.771C68.0638 27.98 67.2774 27.5493 66.5028 27.0895C65.4361 26.4562 65.0993 26.4666 65.1306 27.1318C65.1833 28.2512 65.519 28.5537 67.972 29.6916C68.6343 29.9988 69.3685 30.346 69.6037 30.463C70.4794 30.8988 70.6259 30.9558 70.9581 30.9895C71.518 31.0464 71.9094 30.5782 71.6922 30.1114ZM70.9852 62.2965C70.8735 62.1465 70.6502 62.0188 70.4273 61.9772C70.1343 61.9226 69.9781 61.9682 68.5339 62.5298C68.1816 62.6669 67.6728 62.8598 67.4032 62.9586C65.846 63.5267 65.2649 64.01 65.2649 64.7352C65.2649 65.3376 65.6462 65.2986 67.3862 64.5186C68.7066 63.9266 69.095 63.7647 69.6722 63.5658C70.7722 63.1867 71.2804 62.6938 70.9829 62.2946L70.9852 62.2965ZM68.6264 22.5792C68.521 22.4348 68.1849 22.287 67.405 22.042C66.7519 21.8368 66.4188 21.7131 65.8826 21.4763C65.0142 21.0928 63.1986 20.49 62.7698 20.4429C62.5843 20.4225 62.5359 20.5154 62.5532 20.8587C62.5888 21.5687 63.2687 22.0074 65.3818 22.6838C67.5669 23.3833 68.1589 23.4662 68.4665 23.116C68.668 22.8866 68.7209 22.7088 68.6264 22.5792ZM63.3048 51.4533C63.1588 51.1898 62.907 50.887 62.4017 50.3673C62.1566 50.1152 61.7723 49.7123 61.5476 49.472C60.3585 48.1998 59.374 47.3747 59.0487 47.3777C58.7402 47.3806 57.938 47.819 57.938 47.9848C57.938 48.0528 58.4455 48.6281 59.0684 49.2663C61.2943 51.5466 62.527 52.7239 62.689 52.7239C62.9711 52.7239 63.3978 52.1494 63.4037 51.7618C63.4051 51.6662 63.3809 51.5906 63.3048 51.4533ZM63.1503 17.2528C62.9436 16.8937 62.5152 16.7491 61.3445 16.6433C60.5065 16.5676 60.0733 16.4832 59.6985 16.3224C59.4364 16.21 59.1321 16.142 58.8911 16.142C58.5985 16.142 57.9991 16.0677 57.3369 15.9494C56.9826 15.8862 56.1582 15.7479 55.5048 15.6422C54.1389 15.4212 53.3029 15.27 52.3703 15.0752C50.3888 14.6613 49.2017 14.5444 49.1556 14.7587C49.1024 15.0067 50.6855 15.9493 51.2646 16.0145C51.5657 16.0484 51.8714 16.105 52.6278 16.2667C54.6738 16.7041 60.792 17.7161 61.8033 17.7843C62.856 17.8554 63.3784 17.6493 63.1503 17.2528ZM62.8909 31.5322C62.5622 30.8253 62.2963 30.8326 61.6456 31.5662C61.1955 32.0736 60.812 32.436 59.211 33.8669C57.1499 35.7091 57.1603 35.6945 57.6123 36.1003C58.4478 36.8505 58.9542 36.6263 60.6835 34.741C61.3783 33.9836 61.7593 33.5822 62.2331 33.1086C62.9988 32.3432 63.126 32.038 62.8909 31.5322ZM61.0159 61.6299C60.8344 60.83 60.4826 60.2588 59.6704 59.4448C59.2995 59.0731 58.956 58.6668 58.6999 58.2967C58.2061 57.5835 57.934 57.5007 57.1486 57.8245C56.3666 58.1469 56.4723 58.5012 57.835 60.126C59.2811 61.8504 60.4566 63.0052 60.7657 63.0052C61.0759 63.0052 61.1881 62.3889 61.0159 61.6299ZM60.0119 22.6042C59.5332 21.9176 59.1691 21.9634 58.3901 22.8084C58.0144 23.216 57.3369 23.9258 56.8652 24.4062C56.0677 25.2183 55.66 25.6883 55.5003 25.9796L55.4118 26.1412L55.486 26.2419C55.7345 26.5791 56.6589 26.8879 56.9326 26.7253C57.3719 26.4642 59.7172 23.7623 60.0943 23.0828C60.1994 22.8935 60.1947 22.8663 60.0119 22.6042ZM71.2876 75.0309C70.738 75.8636 67.3687 77.8037 64.7094 78.8204C63.0805 79.4431 62.1369 79.7224 59.8287 80.2652C59.0178 80.4559 57.8799 80.7283 57.2999 80.8706C54.2884 81.6096 53.8559 81.6707 50.1102 81.8861C47.5298 82.0345 47.4278 82.0386 46.2886 82.0386C44.9855 82.0386 44.5162 82.0135 40.7924 81.745C37.9524 81.5402 37.0799 81.4339 35.8356 81.1411C35.4473 81.0497 34.436 80.8121 33.5884 80.6132C29.598 79.6764 27.6016 79.0869 25.3642 78.1857C25.0414 78.0556 24.6228 77.893 24.4338 77.8243C23.9323 77.642 23.3569 77.3712 22.7879 77.0497C22.5123 76.8941 21.9777 76.5989 21.5999 76.3938C20.4469 75.7678 20.1211 75.5688 19.3854 75.0408C19.1278 74.856 18.7221 74.5806 18.4837 74.4288C17.9234 74.0719 17.4139 73.7236 17.0197 73.4279C16.7337 73.2134 16.4389 73.0118 15.5696 72.4368C14.4521 71.6975 12.0956 69.6394 11.4816 68.8666C11.2534 68.5794 11.0646 68.391 10.917 68.3032C10.7469 68.202 10.6504 68.0744 10.6504 67.9506C10.6504 67.8156 10.5477 67.6407 10.4194 67.5572L10.3104 67.4863L10.3966 67.3924C10.5377 67.2388 10.6052 67.2936 12.5381 69.1308C13.2152 69.7743 13.6724 70.1616 13.821 70.2173C13.9718 70.2739 14.6294 70.6861 15.5941 71.3289C17.3234 72.4809 18.1804 72.9925 18.577 73.1094C18.7824 73.17 19.0399 73.304 19.5388 73.61C19.8955 73.8287 20.3269 74.0626 20.563 74.1652C20.6639 74.209 20.6977 74.2375 20.6918 74.2737C20.6853 74.314 20.8461 74.3987 21.5999 74.7514C22.1037 74.9872 22.5997 75.2331 22.702 75.2978C22.9461 75.4522 23.0935 75.5173 23.2951 75.5599C23.3861 75.5792 23.7118 75.7058 24.0188 75.8414C29.6324 78.3199 35.0258 79.4447 43.1123 79.8234C44.0715 79.8683 48.3806 79.8682 49.2955 79.8232C55.71 79.5077 60.0105 78.6498 66.5324 76.3849C68.9744 75.5368 69.3893 75.377 70.1347 74.9977C71.1173 74.4975 71.6329 74.5123 71.2896 75.0309H71.2876ZM59.3649 10.2443C59.2667 10.2746 58.6456 10.2618 58.0553 10.2173C57.764 10.1954 57.0748 10.1482 56.5238 10.1125C55.2667 10.031 54.6016 9.9721 51.8721 9.7008C47.4843 9.2646 43.2585 9.1974 41.4325 9.5348C40.9884 9.6169 40.2271 9.7327 39.5854 9.8158C38.4749 9.9596 37.6178 10.0957 35.8526 10.4085C33.8551 10.7626 33.622 10.7662 33.5875 10.4436C33.5537 10.1278 33.8189 10.0158 35.5288 9.6235C36.6319 9.3705 37.1246 9.2473 37.7948 9.0571C38.0193 8.9934 38.3705 8.9061 38.5752 8.8631C40.3816 8.4837 40.7985 8.3985 41.1229 8.342C41.3276 8.3064 41.5466 8.2708 41.6096 8.2629C41.6725 8.255 42.1234 8.1913 42.6115 8.1214C45.8468 7.6575 50.2626 7.5509 51.1781 7.9146C51.3604 7.9871 51.86 8.0804 52.6162 8.1833C55.2834 8.5462 55.8624 8.6855 58.2269 9.5336C59.2662 9.9064 59.6612 10.153 59.3649 10.2443ZM49.6378 50.9487C49.5767 51.3913 49.3908 51.778 49.2183 51.821C48.8805 51.9052 47.9771 51.7723 47.7021 51.5979C47.5436 51.4974 47.2573 51.383 47.0983 51.3566C46.8966 51.3231 46.6192 51.1987 46.2481 50.9752C45.5817 50.5739 43.9202 49.6973 42.0819 48.7771C39.5745 47.5219 38.8048 47.1084 38.5912 46.9021C38.5092 46.8228 38.2903 46.7584 38.1029 46.7584C37.926 46.7584 37.6875 46.6924 37.544 46.6038C37.2453 46.4192 33.3042 44.6235 32.0484 44.0997C30.2772 43.361 30.2016 43.5291 33.2115 41.5154C37.0024 38.9791 36.7256 39.1526 38.5717 38.1545C39.4757 37.6656 40.0051 37.3699 41.0606 36.7641C41.2939 36.6302 41.7706 36.3397 42.1197 36.1187C42.8972 35.6265 43.3677 35.3506 44.1859 34.9071C44.9625 34.4862 45.882 33.9444 46.5595 33.5084C48.0505 32.549 48.3283 32.4999 48.5336 33.1595C48.6602 33.566 48.7022 34.0691 48.8096 36.4628C48.8782 37.9917 48.9816 39.1957 49.0811 39.6248C49.1696 40.006 49.2377 40.9563 49.2387 41.8227C49.24 42.9216 49.3122 44.3786 49.4534 46.1543C49.6416 48.5214 49.7137 50.3986 49.6378 50.9487ZM47.8197 35.39C47.4478 33.7885 47.5201 33.8252 46.2888 34.6141C45.6187 35.0435 44.6546 35.6141 43.9711 35.9857C41.108 37.5424 37.317 39.9109 36.9292 40.3852C36.8147 40.5214 36.6343 40.6397 36.5341 40.6397C36.119 40.6397 32.8614 42.7065 32.8614 42.9687C32.8614 43.187 33.8491 43.6199 34.536 43.7027C34.9016 43.7468 35.3586 43.5529 36.1735 43.0081C36.7113 42.6486 37.2143 42.3353 37.2536 42.3353C37.3708 42.3353 38.9084 41.3563 39.8611 40.6751C40.7146 40.0648 41.5571 39.5465 42.2507 39.2053C42.8065 38.9318 42.9575 38.8474 43.7111 38.3886C44.0657 38.1728 44.5036 37.9238 44.6844 37.8352C44.8652 37.7467 45.2128 37.5643 45.4568 37.43C46.754 36.7162 47.123 36.5255 47.2066 36.5255C47.3496 36.5255 47.889 35.922 47.8897 35.7611C47.89 35.7295 47.857 35.5618 47.8168 35.3884L47.8197 35.39ZM38.4876 64.3284C37.9638 66.8409 37.8365 67.1882 37.2591 67.6785C36.8116 68.0585 36.2077 67.9475 35.2322 67.3059C34.4363 66.7825 31.852 65.5904 31.1885 65.4407C30.9296 65.3822 30.8051 65.3309 30.5594 65.1814C29.9169 64.7904 29.4985 64.9284 29.3266 65.5879C29.2861 65.7434 29.19 66.0789 29.1131 66.3334C28.8919 67.0652 28.7435 67.8107 28.4984 69.4195C28.1333 71.8172 28.0846 71.9135 27.2373 71.9097C25.697 71.9028 23.8007 71.2829 22.3723 70.3193C21.5906 69.792 20.3542 68.3148 20.282 67.8218C20.2545 67.6343 20.1929 67.5005 20.0354 67.2859C19.2688 66.2417 19.2089 63.0793 19.92 61.1978C20.3298 60.1138 21.5402 58.29 22.1178 57.8864C22.2098 57.8221 22.4388 57.643 22.6265 57.4884C23.3741 56.8728 23.5689 56.7306 24.0611 56.4417C25.3908 55.6611 27.6167 55.1575 29.7565 55.1532L30.4435 55.1518L30.8013 55.2498C34.5871 56.2874 35.0746 56.5522 36.702 58.454C37.5377 59.4306 37.6766 59.6414 37.8338 60.1716C38.392 62.0547 38.637 63.6122 38.4876 64.3284ZM36.7453 60.1877C36.5636 59.7085 36.2026 59.2266 35.6106 58.673C35.4291 58.5033 35.1848 58.2604 35.0677 58.1331C34.2361 57.2295 32.7911 56.5352 31.0166 56.1865C30.3859 56.0625 27.584 56.1182 26.7293 56.2716C25.9093 56.4188 24.4316 57.1146 23.6019 57.7442C22.8657 58.3029 21.7477 59.3811 21.6519 59.6248C21.6353 59.6668 21.5868 59.7982 21.5441 59.9166C21.5013 60.035 21.3773 60.3087 21.2685 60.5247C20.3547 62.3422 20.1062 64.7854 20.675 66.3731C21.1279 67.6372 21.8421 68.8152 22.1556 68.8152C22.3045 68.8152 22.2821 68.6732 22.0166 67.9342C21.6273 66.8506 21.4756 64.9025 21.7149 64.0588C21.8566 63.559 23.1731 61.1979 23.5736 60.7254C24.0252 60.1925 25.5971 59.1666 26.6569 58.7133C29.3659 57.5541 32.7614 58.1745 36.41 60.4953C36.8259 60.7599 36.928 60.6668 36.7467 60.1886L36.7453 60.1877ZM37.355 22.8895C37.2909 23.6609 37.1742 24.0872 36.9623 24.3243C36.878 24.4186 36.8549 24.4665 36.743 24.779C36.6112 25.1467 36.0475 25.9024 35.8279 26.0056C35.6271 26.0999 34.9242 25.9747 34.4446 25.7591C34.2914 25.6903 33.9536 25.5677 33.6938 25.4868C33.1577 25.3197 32.7167 25.1644 32.0341 24.9023C31.4909 24.6936 30.939 24.4983 30.3446 24.3043C29.832 24.137 29.1571 23.8897 28.5608 23.6506C27.5078 23.2285 27.2434 23.2363 27.0511 23.695C26.8461 24.1843 26.6315 26.0112 26.5238 28.1852C26.4361 29.9545 26.3671 30.0398 25.2348 29.7786C23.0127 29.266 20.8027 27.8794 19.8214 26.3822C19.4383 25.7976 18.9019 24.5573 18.6375 23.6444C18.1463 21.9485 18.3188 18.7344 18.9366 18.0704C19.0339 17.9658 19.0946 17.7928 19.0946 17.6199C19.0946 17.5082 19.146 17.4066 19.2121 17.3877C19.2923 17.3649 19.5087 17.135 19.6548 16.9175C20.2033 16.101 21.4637 14.9575 22.4724 14.3614C23.2294 13.914 24.6757 13.4951 26.6375 13.1551C28.3112 12.8649 32.0172 13.4824 33.4367 14.288C34.5703 14.9312 36.1648 16.5567 36.2732 17.1795C36.3124 17.4044 36.3969 17.6249 36.5849 17.9926C37.1944 19.1845 37.5009 21.1334 37.355 22.8895ZM35.8697 18.5803C35.0764 16.454 33.8587 15.2687 31.7687 14.589C29.6074 13.886 26.3862 13.8569 24.5335 14.5237C24.3839 14.5776 24.1585 14.6469 24.0325 14.6778C23.249 14.87 21.6742 15.9284 20.9175 16.7714C19.3593 18.5074 18.943 20.8153 19.6981 23.5323C20.0187 24.6859 20.5056 25.6778 20.7367 25.6481C20.874 25.6304 20.8846 25.5514 20.87 24.6506C20.8331 22.3789 20.8398 22.2946 21.1179 21.5272C21.5648 20.2941 22.0079 19.6266 23.049 18.6177C23.9628 17.7321 24.4195 17.4279 24.9098 17.3778C25.2242 17.3457 25.3298 17.3053 25.4475 17.1718C25.8876 16.6729 28.5818 16.356 30.1594 16.6176C32.5167 17.0086 34.0791 17.6447 35.3192 18.7183C35.9587 19.272 36.1133 19.2334 35.8697 18.5803ZM16.2677 78.7114C16.1655 78.5488 15.9568 78.2583 15.8039 78.0659C15.6511 77.8734 15.321 77.4302 15.0704 77.0809C14.2171 75.8915 13.3762 74.7661 13.0713 74.4056C12.9039 74.2076 12.7405 73.9966 12.708 73.9366C12.6484 73.8263 12.5814 73.7596 12.6162 73.8451C12.6504 73.9293 12.8124 74.1442 13.0869 74.4699C13.3781 74.8152 14.0502 75.7087 14.6437 76.5393C15.183 77.2941 15.5691 77.8169 15.8018 78.1074C16.0192 78.3787 16.2322 78.6919 16.4312 79.0328C16.4973 79.1459 16.5646 79.2501 16.5809 79.2642C16.6232 79.3009 16.484 79.0553 16.2677 78.7114ZM10.5048 71.3335C10.4773 71.3123 10.1817 70.9768 9.84775 70.588C9.27197 69.9176 9.11951 69.7481 9.17719 69.8425C9.21198 69.8995 10.8536 71.7962 10.8682 71.7962C10.8891 71.7962 10.558 71.3746 10.5048 71.3335ZM9.23226 65.3787C9.17983 64.9762 9.12541 64.7622 9.03458 64.6012C8.92988 64.4157 8.81017 64.0306 8.66107 63.3998C8.58795 63.0905 8.44583 62.525 8.34527 62.1432C8.09525 61.1942 7.97791 60.5495 7.78852 59.0841C7.74101 58.7165 7.6683 58.1902 7.62693 57.9144C7.53472 57.2998 7.54875 57.0544 7.74572 55.8376C7.81601 55.4034 7.87352 55.0343 7.87353 55.0174C7.87355 54.9867 6.82284 54.1111 6.47089 53.8485C6.02716 53.5174 5.92834 53.4642 5.85663 53.5176C5.82019 53.5448 5.78783 53.5292 5.6554 53.4205C5.5686 53.3492 5.42352 53.2591 5.33298 53.2202C5.24246 53.1812 5.16308 53.1457 5.15658 53.1413C5.15009 53.1368 5.18229 53.0245 5.22815 52.8917L5.31152 52.6503L5.52621 52.6629C5.71981 52.6742 5.97919 52.6399 6.12736 52.5834C6.1584 52.5716 6.1932 52.6065 6.25299 52.7094C6.42016 52.9971 6.9553 53.3643 7.20755 53.3643C7.44575 53.3643 7.48199 53.1687 7.37904 52.4389C7.31784 52.005 7.22347 50.9401 7.19754 50.3907C7.18082 50.0364 7.17098 49.9733 7.13097 49.9639C7.08619 49.9534 6.92472 47.7573 6.92795 47.2027C6.93184 46.5339 6.4689 46.9969 5.44544 48.6856L5.18837 49.1098L5.00013 49.1953C4.56822 49.3915 4.30741 49.7048 4.1956 50.1617L4.17724 50.2368L4.08923 50.1577L4.00123 50.0787L4.05878 50.0056C4.1712 49.8627 4.33387 49.5415 4.55761 49.0207C5.02619 47.9299 5.35462 47.428 6.25799 46.422C6.79628 45.8225 6.78569 45.8578 6.78586 44.6636C6.78597 43.7448 6.81343 43.2388 6.88737 42.7926C7.02963 41.934 6.8337 41.9523 5.21658 42.9491C4.23157 43.5584 4.09473 43.6098 4.09473 43.3887C4.09473 43.0878 4.88988 42.4184 6.13908 41.6675C7.17752 41.0434 7.15682 41.0897 6.85591 40.063C6.20189 37.8315 5.92327 34.5532 6.24039 32.8206C6.45029 31.6738 6.46653 31.1556 6.29257 31.1556C6.0758 31.1556 5.06578 32.3732 4.62285 33.1684C4.2135 33.9036 3.58087 34.626 3.34642 34.626C3.02532 34.626 4.21768 32.1743 5.18627 30.843C5.38847 30.5651 5.7865 29.9886 6.07078 29.5619L6.58768 28.7861L6.54347 27.0209C6.46869 24.035 6.40508 22.9098 6.29655 22.6535C6.2528 22.5502 6.18421 22.6284 5.94388 23.0559C5.17985 24.4133 4.24951 26.4981 3.80896 27.8374C3.34779 29.241 2.75389 30.948 2.54747 31.4672C2.15764 32.4441 1.61695 35.1202 1.41875 37.0534C1.36149 37.6119 1.32569 37.875 1.27389 38.1181C1.22238 38.3598 1.22207 38.3516 1.28244 38.3515C1.32936 38.3515 1.3313 38.3935 1.31302 39.0135C1.02261 48.8654 2.00597 54.1983 5.56884 62.0919C6.57802 64.3278 8.91035 68.7351 8.98163 68.541C8.98613 68.5287 9.02735 68.1394 9.07324 67.6758C9.14174 66.9836 9.16608 66.8204 9.2093 66.7632C9.3123 66.6269 9.3216 66.0646 9.23226 65.3787ZM2.13245 39.1988C1.9476 39.198 1.93756 39.1952 1.99076 39.1584C2.03139 39.1304 2.08124 39.1235 2.16251 39.1349C2.36363 39.1629 2.34635 39.1997 2.13245 39.1988ZM8.44219 68.9546C8.18865 68.6577 7.81253 68.2065 7.60637 67.952C7.18367 67.4302 6.49534 66.6206 5.85778 65.8954C5.6216 65.6268 5.22941 65.1699 4.98626 64.88C4.4951 64.2945 4.50145 64.3017 4.55352 64.3916C4.60882 64.487 5.0947 65.0612 6.01136 66.1144C6.46073 66.6308 6.98578 67.2439 7.17815 67.4769C8.17348 68.6827 8.39933 68.9539 8.64077 69.233C8.78544 69.4003 8.90367 69.5276 8.9035 69.5158C8.90333 69.504 8.69573 69.2515 8.44219 68.9546ZM8.65751 53.2476C8.63357 53.0497 8.53193 52.3325 8.43163 51.6538C8.21822 50.2097 8.14836 49.6225 8.08755 48.7618C8.0159 47.7474 7.99176 47.6821 7.68848 47.6821H7.52973L7.53148 47.8299C7.53243 47.9112 7.56142 48.4203 7.59588 48.9613C7.655 49.8891 7.65575 49.9457 7.60922 49.959C7.49659 49.9911 7.63705 51.5333 7.83265 52.4122C8.11876 53.6976 8.32147 54.2631 8.49623 54.2631C8.74139 54.2631 8.76348 54.1241 8.65751 53.2476ZM7.85999 26.0882C7.41293 23.2535 7.29136 21.6355 7.48914 21.1517C7.65107 20.7556 7.4465 20.4537 7.21091 20.7412C7.00666 20.9904 7.05743 25.9545 7.27599 27.1036C7.34122 27.4466 7.68222 27.5313 7.8449 27.2449C7.98332 27.0012 7.98492 26.8803 7.85999 26.0882ZM7.81558 43.0934C7.75761 42.2021 7.62714 42.1577 7.47616 42.9777C7.24787 44.2177 7.29393 45.3268 7.56977 45.2317C7.7732 45.1616 7.88618 44.1788 7.81558 43.0934ZM0.978559 38.9032C0.836869 39.1118 0.608482 39.1785 0.409274 39.0694C0.358106 39.0414 0.31624 39.0278 0.31624 39.0391C0.31624 39.0761 0.516201 39.1463 0.621564 39.1463C0.78473 39.1463 1.02957 38.9696 1.03132 38.8507C1.03152 38.8365 1.00777 38.8601 0.978559 38.9032ZM0.753759 46.1705C0.7472 46.2094 0.7472 46.273 0.753759 46.3119C0.760318 46.3508 0.765684 46.319 0.765684 46.2412C0.765684 46.1634 0.760318 46.1316 0.753759 46.1705ZM0.430744 37.5021C0.415482 37.5233 0.402995 37.558 0.402995 37.5793C0.402995 37.6135 0.406078 37.6135 0.430744 37.5793C0.446006 37.558 0.458493 37.5233 0.458493 37.5021C0.458493 37.4679 0.45541 37.4679 0.430744 37.5021Z" fill="black"/>
<path d="M19.3365 21.1773C19.3399 22.0855 19.4721 22.9941 19.7735 23.8626C19.9749 24.4429 20.1642 25.0405 20.5213 25.562C20.5632 25.6374 20.7285 25.769 20.7798 25.6342C20.9151 24.5422 20.8393 23.4342 20.9363 22.3435C21.0081 21.7835 21.2633 21.2611 21.4936 20.7422C21.9741 19.7419 22.7787 18.883 23.6472 18.1248C24.0237 17.8137 24.4373 17.4996 24.9527 17.4061C25.4687 17.2616 25.8802 16.907 26.4182 16.8099C27.5499 16.5597 28.7454 16.5376 29.9031 16.6365C30.8426 16.7332 31.7614 16.9789 32.645 17.2723C33.5712 17.5841 34.411 18.0701 35.1612 18.6473C35.4017 18.8035 35.6137 19.0062 35.8796 19.126C36.0425 19.1194 35.9528 18.9242 35.9483 18.837C35.6922 17.9352 35.2468 17.0668 34.604 16.3336C33.7307 15.3301 32.4232 14.7091 31.0722 14.3853C29.8547 14.0617 28.5725 14.0446 27.313 14.0523C26.5838 14.055 25.8539 14.1288 25.1556 14.3236C24.1919 14.5718 23.2362 14.9072 22.4441 15.4722C21.2343 16.2625 20.2383 17.3459 19.741 18.6229C19.3864 19.4357 19.3306 20.3138 19.3365 21.1773ZM20.345 64.3495C20.3527 65.7476 20.8094 67.1377 21.6145 68.3315C21.7679 68.5162 21.9006 68.7585 22.1521 68.8456C22.3188 68.8593 22.2679 68.6695 22.2441 68.5814C22.0837 68.0073 21.8906 67.4416 21.7981 66.8526C21.6611 66.0202 21.5482 65.1644 21.7005 64.3325C21.9198 63.5408 22.3586 62.8171 22.7599 62.0915C23.1607 61.36 23.643 60.6484 24.3525 60.1235C25.1324 59.5464 25.9895 59.0505 26.9034 58.6684C27.488 58.4292 28.1115 58.2636 28.7583 58.2462C29.7385 58.2013 30.7293 58.1856 31.6735 58.4469C33.1635 58.803 34.5493 59.441 35.8306 60.2018C36.1401 60.3689 36.4407 60.5608 36.7612 60.7044C36.8737 60.6608 36.8041 60.4956 36.816 60.3967C36.7174 59.8999 36.3503 59.4895 36.0257 59.0929C35.4398 58.45 34.8231 57.8137 34.0756 57.3175C33.2454 56.809 32.2991 56.4532 31.3211 56.2502C30.1733 56.0236 28.9874 56.0855 27.8239 56.1492C26.9701 56.2038 26.1166 56.3661 25.3526 56.7231C24.0379 57.2795 22.9738 58.1976 21.9999 59.1464C21.546 59.6191 21.3766 60.243 21.1132 60.8068C20.6472 61.9395 20.3352 63.1367 20.345 64.3495ZM32.8634 43.012C32.913 43.2067 33.1661 43.2824 33.3375 43.3755C33.7505 43.5439 34.1853 43.6981 34.6384 43.7436C35.1316 43.7036 35.5332 43.4027 35.947 43.1866C36.698 42.7297 37.4506 42.2746 38.201 41.8172C39.6685 40.8788 41.0665 39.847 42.6329 39.0429C43.6904 38.4407 44.7434 37.839 45.8238 37.2706C46.2927 37.0107 46.7819 36.7797 47.249 36.5242C47.5359 36.3202 47.855 36.0654 47.9063 35.7218C47.7916 35.2231 47.7377 34.6976 47.4907 34.2312C47.4409 34.1204 47.297 33.9964 47.1643 34.0922C46.2917 34.5447 45.4878 35.0933 44.6323 35.5698C42.7368 36.649 40.8339 37.7221 39.0039 38.8909C38.261 39.3596 37.5337 39.8492 36.8466 40.3822C36.3984 40.709 35.8457 40.8821 35.3753 41.1791C34.5493 41.6672 33.7218 42.1682 33.007 42.7854C32.9433 42.8493 32.8631 42.92 32.8634 43.012ZM49.1321 14.8115C49.2025 14.9979 49.4207 15.1049 49.5738 15.2355C50.0501 15.5501 50.5564 15.854 51.1259 16.0111C53.6254 16.5239 56.1466 16.9468 58.6663 17.3708C59.9785 17.5713 61.299 17.8603 62.6393 17.7811C62.8856 17.7751 63.1979 17.6717 63.2252 17.419C63.1688 17.1489 62.8834 16.9735 62.634 16.8447C61.9085 16.6517 61.1413 16.6386 60.4079 16.4731C59.8076 16.3492 59.2248 16.1408 58.6032 16.0965C56.8598 15.8652 55.1232 15.547 53.3896 15.2462C52.1768 15.046 50.9798 14.7546 49.7509 14.6407C49.5489 14.638 49.2558 14.5946 49.1356 14.7811C49.1325 14.791 49.1317 14.8013 49.1321 14.8115ZM49.5243 74.1919C49.7217 74.3019 49.9105 74.4463 50.1239 74.5234C50.218 74.408 50.262 74.2443 50.4151 74.166C50.8829 73.9048 51.4507 73.8468 51.9768 73.7364C53.6531 73.4626 55.3315 73.1822 56.9675 72.7483C59.5284 72.0931 62.0861 71.4246 64.6198 70.6882C65.1057 70.5248 65.6284 70.394 66.0397 70.0986C66.2593 69.9355 66.2077 69.6516 66.0756 69.4566C65.9185 69.1593 65.6344 68.827 65.2244 68.8582C64.8674 68.8923 64.5447 69.0554 64.1952 69.1237C61.0255 69.9166 57.8056 70.5385 54.6236 71.2919C53.741 71.5175 52.7961 71.7208 52.1057 72.3004C51.3354 72.899 50.5106 73.4387 49.7291 74.0245C49.664 74.083 49.4916 74.0887 49.5243 74.1919ZM55.4385 26.1637C55.4766 26.4086 55.7826 26.5124 55.997 26.6131C56.331 26.7392 56.7798 26.8727 57.0879 26.6264C57.673 26.1165 58.1602 25.5237 58.6684 24.953C59.1919 24.3218 59.7618 23.708 60.1465 22.9961C60.2186 22.809 60.0459 22.6306 59.9488 22.4769C59.8028 22.276 59.5561 22.0288 59.2592 22.1352C58.8312 22.3157 58.5406 22.6733 58.2169 22.9698C57.3763 23.831 56.5296 24.69 55.7508 25.5974C55.6245 25.7695 55.4455 25.947 55.4385 26.1637ZM56.7071 58.4079C56.7298 58.8541 57.0864 59.2058 57.3372 59.5672C58.1845 60.6388 59.1039 61.669 60.1248 62.6117C60.3269 62.7749 60.5231 62.9861 60.7953 63.0478C60.9945 63.0049 61.073 62.7841 61.0842 62.6191C61.1288 61.8282 60.9566 61.01 60.4629 60.3425C60.0124 59.705 59.4093 59.1704 58.9336 58.5487C58.6865 58.2551 58.4599 57.9335 58.1375 57.7017C57.7314 57.5292 57.26 57.7142 56.9249 57.9353C56.7405 58.0361 56.6886 58.2254 56.7071 58.4079ZM57.3694 35.7961C57.398 36.0534 57.6868 36.2006 57.8971 36.3393C58.1248 36.4766 58.4198 36.5919 58.686 36.467C59.5222 36.1272 60.0503 35.4156 60.6496 34.8251C61.3886 34.0407 62.16 33.2767 62.8252 32.4394C63.0272 32.1764 63.0709 31.8249 62.9065 31.5371C62.7964 31.3389 62.6959 31.0414 62.4072 31.0163C62.0769 31.046 61.8774 31.3317 61.6614 31.5259C60.2992 32.8497 58.8425 34.0944 57.5032 35.4374C57.4022 35.5323 57.3673 35.6684 57.3694 35.7961ZM57.9754 48.0007C58.0189 48.2745 58.2922 48.4595 58.4613 48.6735C59.6852 49.9647 60.9421 51.2325 62.2608 52.4465C62.4178 52.5804 62.6174 52.8146 62.8627 52.697C63.1165 52.5403 63.2899 52.28 63.3673 52.0148C63.4791 51.5822 63.1853 51.1822 62.8858 50.8702C62.0031 49.9001 61.0951 48.946 60.1234 48.0468C59.816 47.8077 59.5244 47.5247 59.1407 47.3864C58.8573 47.3339 58.6135 47.5345 58.3679 47.6279C58.2101 47.7141 57.979 47.8071 57.9754 48.0007ZM62.5018 20.7565C62.5407 21.2464 62.8786 21.7141 63.3781 21.9241C64.4538 22.4343 65.6031 22.812 66.7651 23.1295C67.2257 23.2377 67.7091 23.3792 68.1887 23.3049C68.5252 23.1954 68.8033 22.7887 68.5623 22.4969C68.3676 22.3153 68.0674 22.2701 67.8244 22.1581C66.7358 21.7826 65.6655 21.3671 64.5882 20.9671C63.9869 20.7664 63.3893 20.531 62.7544 20.4329C62.5644 20.4184 62.4893 20.6189 62.5018 20.7565ZM65.1036 27.1357C65.1172 27.6459 65.3004 28.1755 65.7455 28.5157C66.2917 28.959 66.979 29.2235 67.6095 29.553C68.6322 30.0407 69.6481 30.5446 70.7062 30.9683C71.1224 31.1028 71.7011 30.912 71.7676 30.4816C71.8267 30.1231 71.4534 29.8785 71.1817 29.6794C70.1043 28.9731 68.9255 28.4046 67.7929 27.7747C67.0745 27.4056 66.3971 26.9686 65.6464 26.6522C65.4622 26.5554 65.1844 26.6119 65.1392 26.8194C65.1045 26.9215 65.1006 27.0297 65.1036 27.1357ZM65.2342 64.7706C65.2339 64.964 65.3779 65.1987 65.6254 65.1672C66.1419 65.1016 66.6057 64.8611 67.0814 64.6824C68.2249 64.1956 69.3814 63.731 70.5031 63.2044C70.8012 63.0856 71.0091 62.8386 71.1033 62.5638C71.1392 62.3146 70.8641 62.1293 70.6389 62.0377C70.3953 61.9334 70.1167 61.9483 69.8735 62.0444C68.7369 62.4088 67.6168 62.8213 66.536 63.3044C65.9924 63.5676 65.408 63.9334 65.2616 64.5076C65.241 64.5939 65.2312 64.6824 65.2342 64.7706ZM67.6817 55.2927C67.6479 55.4349 67.8055 55.534 67.95 55.5052C68.4462 55.4491 68.8232 55.1217 69.2599 54.9352C70.6337 54.2337 72.0635 53.6205 73.4084 52.8741C73.7028 52.6906 73.7107 52.3216 73.5729 52.0523C73.4459 51.8245 73.3652 51.5412 73.1191 51.3915C72.8328 51.2896 72.5498 51.4863 72.2975 51.5841C71.2487 52.1033 70.1759 52.5886 69.1693 53.1729C68.723 53.4232 68.3721 53.79 68.1444 54.2145C67.9582 54.5572 67.6858 54.8971 67.6817 55.2927ZM68.0733 36.5341C68.0577 37.0404 68.2706 37.5415 68.6643 37.9051C69.4153 38.6142 70.3475 39.1385 71.2348 39.6964C71.9025 40.0859 72.5422 40.5242 73.261 40.8366C73.5268 40.9657 73.8346 40.8901 74.0789 40.7591C74.2788 40.6664 74.5217 40.5054 74.4494 40.2737C74.3299 39.8551 73.8772 39.6208 73.5356 39.3567C72.1481 38.3857 70.6358 37.5628 69.2706 36.5682C69.096 36.4581 68.9809 36.2975 68.8341 36.1645C68.6506 36.032 68.439 35.9159 68.2213 35.846C68.0607 36.0375 68.0793 36.3052 68.0733 36.5341Z" fill="#CD5200"/>
</g>
</g>
<defs>
<clipPath id="clip0_394_6609">
<rect width="90" height="90" fill="white" transform="matrix(0 -1 1 0 0 90)"/>
</clipPath>
</defs>
</svg>
