<svg width="90" height="90" viewBox="0 0 90 90" fill="none" xmlns="http://www.w3.org/2000/svg">
<g clip-path="url(#clip0_394_6619)">
<mask id="mask0_394_6619" style="mask-type:luminance" maskUnits="userSpaceOnUse" x="0" y="0" width="90" height="90">
<path d="M0 0L0 90H90V0H0Z" fill="white"/>
</mask>
<g mask="url(#mask0_394_6619)">
<path d="M90 45C90 20.1472 69.8528 0 45 0C20.1472 0 0 20.1472 0 45C0 69.8528 20.1472 90 45 90C69.8528 90 90 69.8528 90 45Z" fill="#F0F0F0"/>
<path d="M64.5639 45.0012C64.5639 34.1957 55.8043 25.4361 44.9988 25.4361C34.1932 25.4361 25.4336 34.1957 25.4336 45.0012C25.4336 55.8068 34.1932 64.5664 44.9988 64.5664C55.8043 64.5664 64.5639 55.8068 64.5639 45.0012Z" fill="#D80027"/>
</g>
</g>
<defs>
<clipPath id="clip0_394_6619">
<rect width="90" height="90" fill="white" transform="matrix(0 -1 1 0 0 90)"/>
</clipPath>
</defs>
</svg>
