<svg width="90" height="90" viewBox="0 0 90 90" fill="none" xmlns="http://www.w3.org/2000/svg">
<g clip-path="url(#clip0_394_6676)">
<path d="M45 0C56.9347 0 68.3807 4.7411 76.8198 13.1802C85.2589 21.6193 90 33.0653 90 45C90 56.9347 85.2589 68.3807 76.8198 76.8198C68.3807 85.2589 56.9347 90 45 90C33.0653 90 21.6193 85.2589 13.1802 76.8198C4.74106 68.3807 0 56.9347 0 45C0 33.0653 4.74106 21.6193 13.1802 13.1802C21.6193 4.7411 33.0653 0 45 0Z" fill="url(#paint0_radial_394_6676)"/>
<path d="M44.8384 1.44814C50.5702 1.44814 56.2459 2.57715 61.5414 4.77055C66.8369 6.96405 71.6485 10.179 75.7015 14.232C79.7545 18.285 82.9695 23.0966 85.163 28.3921C87.3564 33.6876 88.4854 39.3633 88.4854 45.0951C88.4854 56.6711 83.8869 67.7728 75.7015 75.9582C67.5161 84.1437 56.4143 88.7422 44.8384 88.7422C33.2625 88.7422 22.1607 84.1437 13.9753 75.9582C5.78992 67.7728 1.19141 56.6711 1.19141 45.0951C1.19141 39.3633 2.32037 33.6876 4.51384 28.3921C6.7073 23.0966 9.92232 18.285 13.9753 14.232C18.0283 10.179 22.8399 6.96405 28.1354 4.77055C33.4309 2.57715 39.1066 1.44814 44.8384 1.44814Z" fill="url(#paint1_radial_394_6676)"/>
<path d="M35.4999 49.1083C36.2409 48.6939 37.0603 48.2358 37.4104 47.4139C37.6846 46.7701 37.4474 46.0387 37.0186 45.5203C36.4502 44.8332 35.5366 44.6223 34.6995 44.5352C30.619 44.1108 30.7388 43.6294 24.2077 42.6483C20.2008 42.0465 16.1928 41.4513 12.1807 40.8857C11.2783 40.7584 10.3129 40.8974 9.53198 41.3946C8.69272 41.929 8.15469 42.8224 7.84268 43.7472C7.57557 44.5389 7.45554 45.3688 7.32033 46.1901C7.04825 47.8426 6.85965 49.531 7.03942 51.2049C7.14778 52.2138 7.45961 53.1881 7.81761 54.1327C8.27879 55.3494 8.83148 56.541 9.55819 57.6231C10.0402 58.3409 10.5824 59.0527 11.3327 59.512C12.0259 59.9364 12.8621 60.079 13.6629 59.9859C14.6515 59.8709 14.7555 59.8265 16.447 59.007C21.4703 56.5733 30.0676 52.1465 35.4999 49.1083ZM7.81031 34.7263C7.74661 36.0942 8.21596 37.4934 9.10379 38.5537C9.83478 39.4266 10.8847 40.0224 12.0185 40.1889C16.4429 40.8388 20.872 41.4559 25.2945 42.1181C28.9137 42.6601 20.1944 41.3878 26.8696 42.4923C29.3072 42.8957 31.7085 43.4936 34.1434 43.9114C35.1745 44.0883 36.2792 44.285 37.2932 43.9067C38.0116 43.6387 38.5124 42.9287 38.5274 42.1558C38.5421 41.3992 38.2097 40.6909 37.7116 40.1447C36.7382 39.0771 35.2426 37.9568 34.2517 36.9098C27.7247 30.0133 24.3237 25.9269 20.056 21.4751C19.2957 20.6821 18.205 20.2026 17.0971 20.202C15.9291 20.2013 14.7996 20.6744 13.8837 21.3739C12.5187 22.4164 11.4764 23.8208 10.6015 25.2862C10.1878 25.9792 9.7911 26.6864 9.47555 27.4294C9.03509 28.4664 8.7646 29.5667 8.50125 30.6602C8.17927 31.9971 7.87432 33.3517 7.81031 34.7263ZM12.9965 64.4372C13.0027 64.9809 13.1683 65.5042 13.3779 66.0013C14.2054 67.9645 15.4825 69.6975 16.8739 71.2942C17.8868 72.4565 19.1156 73.4442 20.5154 74.1015C21.0724 74.363 21.6463 74.5968 22.2421 74.752C23.3894 75.0508 24.6378 74.8424 25.6663 74.2615C26.4935 73.7942 27.1398 73.0754 27.6802 72.2948C32.2513 65.6909 36.5923 57.6905 38.2568 54.3767C38.7008 53.4929 39.3681 52.6836 39.5186 51.6867C39.6414 50.8739 39.3412 49.9585 38.6136 49.505C37.943 49.0871 37.1037 48.9922 36.3602 49.2442C35.2936 49.6056 34.329 50.2035 33.3659 50.7747C29.9674 52.7906 23.8069 55.8824 17.3627 59.3315C16.2228 59.9416 15.0878 60.6145 14.1892 61.5576C13.5721 62.2053 13.1102 63.029 13.019 63.9298C13.0019 64.0984 12.9945 64.2678 12.9965 64.4372ZM19.6939 18.5256C19.6699 19.2641 20.0112 19.9567 20.4891 20.5203C25.4477 26.3696 29.9902 31.2641 34.672 36.3062C35.789 37.5093 36.9972 38.6311 38.2741 39.6664C38.843 40.1276 39.5521 40.4955 40.3133 40.4006C40.9274 40.324 41.5024 39.9727 41.7691 39.4081C42.1383 38.6265 41.8865 37.7434 41.6398 36.9677C39.6232 30.6279 36.7879 22.32 34.1739 13.3974C33.9566 12.6559 33.732 11.8936 33.2676 11.2606C32.9232 10.7912 32.3936 10.4797 31.8245 10.3755C31.121 10.2467 30.3982 10.3003 29.6948 10.3933C28.3029 10.5773 26.9454 10.9892 25.6544 11.5393C25.3008 11.69 24.9726 11.889 24.6622 12.1141C23.3936 13.0339 22.2166 14.0844 21.1806 15.2608C20.7751 15.7212 20.4409 16.2431 20.1667 16.7908C19.8972 17.3294 19.7137 17.9193 19.6939 18.5256ZM27.5158 75.1097C27.4881 76.0435 27.8562 76.9504 28.4209 77.6817C28.9087 78.3135 29.5344 78.8155 30.1704 79.2891C31.4612 80.2503 32.7747 81.2124 34.2558 81.8627C34.9384 82.1625 35.6615 82.3544 36.3926 82.4939C37.8568 82.7733 39.3562 82.8335 40.8406 82.7271C41.5638 82.6753 42.2886 82.6208 43.0049 82.5069C44.0178 82.3458 45.0262 81.9177 45.7157 81.1331C46.2436 80.5323 46.4857 79.7369 46.5396 78.9509C46.5906 78.2069 46.4676 77.469 46.4308 76.7279C46.139 70.8485 44.7394 61.878 43.9475 55.3968C43.8508 54.6056 43.5952 53.7524 42.9041 53.266C42.3435 52.8714 41.6142 52.7905 40.9756 53.0167C40.0725 53.3366 39.4807 54.1507 39.0199 54.9375C37.69 57.2083 32.3042 65.9504 28.2953 72.6701C27.8552 73.4077 27.5416 74.2415 27.5158 75.1097ZM42.4571 37.4498C42.7404 38.2183 43.428 38.8712 44.2635 39.0042C45.167 39.148 46.029 38.526 46.4542 37.7608C46.9969 36.7841 47.2572 35.9149 47.6536 34.8789C49.6073 29.7732 51.4854 24.0181 53.0542 19.3638C53.5947 17.76 54.0909 16.1412 54.5699 14.5179C54.8959 13.4133 55.1311 12.2482 54.9842 11.0907C54.8724 10.2098 54.4039 9.38417 53.6976 8.84397C53.2218 8.48007 52.6577 8.26537 52.0885 8.09867C50.531 7.64267 48.9334 7.32617 47.3219 7.13737C46.3823 7.02727 45.4346 7.07547 44.494 7.13597C42.6388 7.25537 40.7809 7.46686 38.9741 7.91006C37.9218 8.16806 36.8773 8.58227 36.0338 9.28347C35.3833 9.82437 34.81 10.6169 34.8744 11.4655C35.0219 13.4094 39.7449 30.0942 42.4571 37.4498ZM44.8151 54.5433C45.8325 63.8306 47.4717 74.9404 47.6949 79.6464C47.7364 80.5205 48.0829 81.3927 48.6661 82.0593C49.0668 82.5173 49.6317 82.8159 50.2351 82.9055C51.6259 83.112 53.0459 83.0003 54.4158 82.7177C56.3096 82.3269 58.113 81.5667 59.7869 80.6091C60.6916 80.0915 61.5695 79.5127 62.3426 78.8113C63.0739 78.1478 63.4695 77.1645 63.5005 76.1841C63.5346 75.1085 63.2549 74.0079 62.6574 73.1176C59.5188 68.4411 52.4539 58.7092 48.8252 53.364C48.3551 52.6715 47.6627 52.044 46.7881 51.9475C45.9435 51.8544 45.1748 52.5015 44.9661 53.2934C44.8588 53.7008 44.7694 54.1259 44.8151 54.5433ZM47.6174 38.5043C47.6072 39.4222 48.027 40.3958 48.8767 40.8395C49.6107 41.2227 50.4902 41.2626 51.247 40.9772C58.7946 38.1307 65.4127 34.9687 73.1293 31.3331C74.3624 30.7522 75.3928 29.7111 75.9808 28.4615C76.5021 27.3537 76.553 26.0513 76.1673 24.8944C75.9641 24.2851 75.6548 23.7197 75.368 23.1475C74.503 21.4222 73.5376 19.7128 72.1975 18.3068C71.5736 17.6522 70.8777 17.0705 70.1776 16.4998C68.05 14.7655 65.6843 13.3443 63.2441 12.1024C62.0791 11.5095 60.7508 11.1719 59.4326 11.292C58.4446 11.3821 57.4917 11.8117 56.7833 12.5095C56.0427 13.2391 55.5835 14.1987 55.2799 15.1825C53.3827 21.329 51.5162 26.3761 48.2847 35.4559C47.9361 36.4353 47.629 37.4555 47.6174 38.5043ZM49.5418 50.8794C49.5192 51.8535 49.5851 52.8931 50.1022 53.6585C53.303 58.3955 60.145 67.6271 63.9259 72.71C64.5643 73.5683 65.4232 74.3211 66.4771 74.5903C67.3916 74.824 68.3683 74.6714 69.2209 74.2853C70.5507 73.6831 71.8077 72.9112 72.9172 71.9616C73.4058 71.5434 73.8416 71.0665 74.2159 70.543C75.3055 69.0187 76.9935 65.406 77.5373 63.6156C77.76 62.8826 77.9547 62.1341 78.02 61.3684C78.0985 60.4477 77.9161 59.4682 77.3397 58.7248C76.7977 58.0257 75.9805 57.6332 75.215 57.2242C70.3256 54.6118 58.4206 50.8241 53.1542 48.8067C52.4099 48.5216 51.4837 48.3637 50.7201 48.6986C49.9712 49.027 49.5605 50.074 49.5418 50.8794ZM49.957 44.315C49.916 45.2953 50.0697 46.2057 50.8248 46.7595C51.9491 47.5842 55.3982 48.8213 56.7136 49.2582C60.6449 50.564 68.4429 53.1653 75.2925 55.646C76.3862 56.0421 77.7032 56.8178 78.8484 56.5606C79.96 56.3109 80.9386 55.5933 81.5667 54.6493C81.9672 54.0474 82.2531 53.3784 82.5268 52.7124C83.0613 51.4119 83.0661 50.1428 83.2637 47.8151C83.4209 45.9623 83.3096 44.097 83.1005 42.2531C82.8179 39.7604 82.3303 37.284 81.5566 34.8952C81.2916 34.077 80.8999 33.2942 80.3748 32.611C79.7718 31.8265 78.9175 31.1984 77.9293 31.0209C76.8651 30.8298 75.7647 31.0676 74.8016 31.5171C67.4186 34.9632 60.2926 37.9826 52.5781 41.4411C51.5847 41.8864 51.0068 42.1124 50.4767 43.1041C50.3081 43.4194 49.9719 43.9571 49.957 44.315Z" fill="url(#paint2_radial_394_6676)"/>
</g>
<defs>
<radialGradient id="paint0_radial_394_6676" cx="0" cy="0" r="1" gradientUnits="userSpaceOnUse" gradientTransform="translate(45 45) rotate(-90) scale(45)">
<stop stop-color="#8DCA2E"/>
<stop offset="0.96975" stop-color="#A5D03F"/>
<stop offset="0.975994" stop-color="#8AC22D"/>
<stop offset="1" stop-color="#7EAD28"/>
</radialGradient>
<radialGradient id="paint1_radial_394_6676" cx="0" cy="0" r="1" gradientUnits="userSpaceOnUse" gradientTransform="translate(44.8384 45.0951) rotate(-90) scale(43.647 43.647)">
<stop stop-color="#EFF2EF"/>
<stop offset="0.898288" stop-color="#F4FAD9"/>
<stop offset="0.959063" stop-color="#EAF9D3"/>
<stop offset="1" stop-color="#B2DE6D"/>
</radialGradient>
<radialGradient id="paint2_radial_394_6676" cx="0" cy="0" r="1" gradientUnits="userSpaceOnUse" gradientTransform="translate(45.2391 44.4564) rotate(-90) scale(37.9752 38.096)">
<stop stop-color="#A0B52C"/>
<stop offset="0.482416" stop-color="#B2C243"/>
<stop offset="0.791995" stop-color="#B0C13D"/>
<stop offset="1" stop-color="#A0B030"/>
</radialGradient>
<clipPath id="clip0_394_6676">
<rect width="90" height="90" fill="white" transform="matrix(0 -1 1 0 0 90)"/>
</clipPath>
</defs>
</svg>
