<svg width="90" height="90" viewBox="0 0 90 90" fill="none" xmlns="http://www.w3.org/2000/svg">
<g clip-path="url(#clip0_394_6687)">
<path d="M90 45C90 20.1472 69.8528 -7.62939e-06 45 -7.62939e-06C20.1472 -7.62939e-06 0 20.1472 0 45C0 69.8528 20.1472 90 45 90C69.8528 90 90 69.8528 90 45Z" fill="white"/>
<path d="M60.399 12.9023C60.3295 12.643 60.3612 12.3316 60.1906 12.1243C59.8186 11.6722 55.8739 8.99886 55.4441 8.72628C52.9086 7.11805 49.9954 5.51538 47.0547 4.80339C44.8036 4.25835 41.8081 4.18213 39.7188 5.4348C38.9979 5.86699 38.4126 6.49982 37.8322 7.10778C36.6263 8.37093 36.2277 9.64409 36.3015 11.3539C36.3359 12.1482 36.8863 12.2917 36.9462 12.5153" fill="white"/>
<path d="M60.399 12.9023C60.3295 12.643 60.3612 12.3316 60.1906 12.1243C59.8186 11.6722 55.8739 8.99886 55.4441 8.72628C52.9086 7.11805 49.9954 5.51538 47.0547 4.80339C44.8036 4.25835 41.8081 4.18213 39.7188 5.4348C38.9979 5.86699 38.4126 6.49982 37.8322 7.10778C36.6263 8.37093 36.2277 9.64409 36.3015 11.3539C36.3359 12.1482 36.8863 12.2917 36.9462 12.5153" stroke="black" stroke-width="7.55905" stroke-linecap="round" stroke-linejoin="round"/>
<path d="M63.3125 24.2734L63.6347 23.468Z" fill="white"/>
<path d="M63.3125 24.2734L63.6347 23.468" stroke="black" stroke-width="7.55905" stroke-linecap="round" stroke-linejoin="round"/>
<path d="M28.3516 17.8281L28.5127 17.667Z" fill="white"/>
<path d="M28.3516 17.8281L28.5127 17.667" stroke="black" stroke-width="7.55905" stroke-linecap="round" stroke-linejoin="round"/>
</g>
<defs>
<clipPath id="clip0_394_6687">
<rect width="90" height="90" fill="white" transform="matrix(0 -1 1 0 0 90)"/>
</clipPath>
</defs>
</svg>
