<svg width="90" height="90" viewBox="0 0 90 90" fill="none" xmlns="http://www.w3.org/2000/svg">
<g clip-path="url(#clip0_394_7084)">
<mask id="mask0_394_7084" style="mask-type:luminance" maskUnits="userSpaceOnUse" x="0" y="0" width="90" height="90">
<path d="M0 0L0 90H90V0H0Z" fill="white"/>
</mask>
<g mask="url(#mask0_394_7084)">
<path fill-rule="evenodd" clip-rule="evenodd" d="M50.5271 74.414C50.5271 74.414 51.9337 80.7101 50.1052 83.5085C45.2454 90.9461 32.174 90.4823 26.1954 85.957C22.9607 83.5085 18.6042 84.9263 16.9128 85.4324C13.1857 86.5471 8.28332 77.6287 6.78626 71.4409C4.93675 63.7969 1.21423 56.6655 0.738426 48.7051C-0.380385 29.9932 7.8071 10.5555 21.554 2.0094C26.6603 -1.1653 32.1472 3.481 37.166 3.4085C38.7681 3.3853 40.0674 1.19 41.6666 1.3098C46.0047 1.6348 52.8449 4.423 49.6835 10.579C45.1976 19.3147 39.0975 26.9953 36.0407 36.6378C30.9998 52.5399 40.0208 67.5975 50.5271 74.414Z" fill="white"/>
<path fill-rule="evenodd" clip-rule="evenodd" d="M50.5267 74.414C50.5267 74.414 51.9334 80.7101 50.1048 83.5085C45.245 90.9461 32.1736 90.4823 26.195 85.957C22.9603 83.5085 18.6038 84.9263 16.9125 85.4324C13.1853 86.5471 8.28294 77.6287 6.78588 71.4409C6.30525 69.4549 5.69832 67.5039 5.05469 65.5635L5.09811 65.4947C5.09811 65.4947 9.17686 70.3917 10.302 62.5215C12.2711 67.2435 14.9434 75.2885 16.7717 52.2028C18.6002 70.2167 22.0225 69.109 22.679 66.7189C25.3198 57.1017 20.0534 50.5706 22.9603 30.865C24.1792 23.8693 26.7107 17.1652 29.43 12.5014C33.2274 10.0528 36.8373 8.5372 40.2598 7.9541C41.5257 6.7299 41.8538 5.7388 41.2443 4.981L39.5566 3.0571C39.6254 2.6775 39.7185 2.3264 39.8343 2.0016C40.4226 1.5897 41.0199 1.2597 41.6662 1.3082C46.0043 1.6333 52.8445 4.4214 49.6832 10.5774C45.1972 19.3132 39.0971 26.9937 36.0403 36.6362C30.9994 52.5383 40.0206 67.5962 50.5269 74.4127L50.5267 74.414Z" fill="#D9DBDC"/>
<path fill-rule="evenodd" clip-rule="evenodd" d="M50.9983 74.2574C51.0023 74.2764 52.4716 80.8483 50.483 83.8916C48.1374 87.4814 43.9984 89.3002 39.6255 89.7478C34.6032 90.2623 29.2359 88.9678 25.9426 86.4752C24.4275 85.3284 22.6258 85.0884 21.0006 85.1949C19.3401 85.3036 17.8554 85.7758 17.0255 86.0239C15.1483 86.5853 13.0726 84.9674 11.2244 82.4137C9.05638 79.4184 7.16177 75.095 6.32009 71.6158C5.64561 68.8282 4.72127 66.1117 3.79778 63.3982C2.17652 58.6337 0.557779 53.8772 0.251275 48.7496C-0.321662 39.1655 1.51904 29.3904 5.28184 20.9487C8.954 12.711 14.4581 5.7452 21.3375 1.468C24.7034 -0.624698 28.1479 0.492603 31.5308 1.5901C33.4512 2.2131 35.3511 2.8292 37.1626 2.8031C37.8106 2.7937 38.4595 2.313 39.1061 1.8337C39.9184 1.2319 40.728 0.631899 41.6955 0.704399C43.9065 0.870099 46.7557 1.6626 48.6883 3.1973C49.3881 3.753 49.9741 4.409 50.3788 5.1729C50.8 5.9683 51.0228 6.8696 50.9737 7.8825C50.9288 8.8084 50.6553 9.8161 50.0953 10.9068C48.5448 13.9261 46.7758 16.8596 45.0073 19.7923C41.7356 25.2176 38.4658 30.64 36.4944 36.8589C34.2394 43.9725 34.8683 50.9174 37.1995 56.9959C39.9727 64.2275 45.1468 70.241 50.7526 73.8778L50.942 74.0007L50.9983 74.2574ZM49.7288 83.1293C51.1953 80.8848 50.3404 75.9893 50.1096 74.8266C44.406 71.0657 39.155 64.9112 36.3197 57.5177C33.8796 51.1548 33.2229 43.8797 35.5879 36.4193C37.6059 30.0538 40.9172 24.5625 44.2302 19.0684C45.9677 16.187 47.7058 13.305 49.2725 10.2538C49.7376 9.3484 49.9636 8.5365 49.9986 7.8124C50.0343 7.0783 49.8715 6.4224 49.5637 5.8415C49.2392 5.229 48.7525 4.6892 48.1627 4.221C46.3816 2.8068 43.7173 2.0732 41.6385 1.9177C40.9613 1.8671 40.2843 2.3685 39.6052 2.8717C38.843 3.4365 38.0783 4.0034 37.1702 4.0164C35.2439 4.0444 33.276 3.406 31.287 2.7606C28.0802 1.7203 24.8152 0.6611 21.7716 2.5532C15.073 6.7183 9.71072 13.5064 6.13107 21.5367C2.46163 29.7684 0.66687 39.3069 1.22638 48.6645C1.52218 53.6119 3.1061 58.2669 4.69274 62.9294C5.63072 65.6855 6.56953 68.4444 7.25323 71.2702C8.05841 74.5984 9.87204 78.7355 11.9479 81.6037C13.5704 83.8456 15.3245 85.2862 16.8008 84.8445C17.6624 84.587 19.2018 84.0969 20.9509 83.9823C22.7353 83.8657 24.7296 84.1412 26.4492 85.4427C29.5734 87.8075 34.7102 89.0307 39.5456 88.5356C43.682 88.1119 47.5716 86.4309 49.7288 83.1293Z" fill="black"/>
<path fill-rule="evenodd" clip-rule="evenodd" d="M49.8321 10.3594C47.687 8.31576 52.8055 2.65536 56.3874 5.51196C58.4367 5.21866 58.0649 6.89586 60.1425 6.02396C61.7734 9.17136 61.9076 5.17326 63.3367 8.75786C66.5448 6.28456 64.0983 11.1486 67.3257 8.33376C68.842 13.5908 68.9396 6.26216 70.401 11.7186C74.4283 7.94946 70.2042 14.718 73.6844 10.84C73.7113 16.6093 75.2872 8.38306 75.1486 14.164C78.9338 10.3587 74.3751 17.1486 78.1932 13.5757C77.6929 19.4424 80.0341 11.3179 79.3513 17.1136C83.3723 13.9727 78.4087 19.8133 82.4329 17.0087C80.922 21.8648 84.2904 15.2961 82.6297 20.0831C86.305 17.6539 81.2757 22.266 85.1568 20.093C84.0416 22.4043 83.9209 22.2162 85.9655 21.2661C83.4529 25.7171 88.3251 20.0497 85.5021 24.3334L87.3865 23.7908C84.1926 27.9347 90.2121 23.4825 86.3983 26.3025C90.8262 24.8565 83.9629 27.7203 88.4302 26.3445C84.3971 29.172 91.1218 25.41 86.9604 28.079C91.624 27.0402 84.3208 29.141 89.0534 28.3307C86.9188 29.4092 86.9944 29.2751 89.2234 29.0197C86.9704 29.9899 87.1345 29.8349 89.3975 29.7723C84.6823 31.9712 92.5267 30.0321 87.4097 31.8814C92.546 32.9526 84.3092 32.4634 89.7306 33.574C84.3653 35.3374 93.1085 33.7399 87.4515 35.5613C90.2834 36.1088 90.2138 35.9288 87.4746 36.797L89.9583 37.2668C84.1469 39.0872 93.5954 37.8256 87.5205 39.1487C90.4551 40.0774 90.3982 39.888 87.4383 40.385C90.4091 41.3698 90.3692 41.1762 87.3506 41.652C90.3544 42.6483 90.3288 42.4547 87.2662 42.9274C90.2914 43.9276 90.2801 43.7346 87.1869 44.208C93.4647 46.2801 83.4713 44.2892 89.7523 46.366C86.6159 46.8493 86.6757 46.6542 89.6897 47.706C83.0052 48.1568 93.5255 48.714 86.9025 48.9697C93.0915 51.5301 83.0746 48.3441 89.2997 51.1923C82.7104 50.9424 92.9151 52.7299 86.4789 52.1137C89.2001 53.7295 89.3211 53.6147 86.2744 53.1029C88.906 54.9251 89.0354 54.8246 86.0245 54.0559C91.4327 58.4648 82.5988 52.0326 87.9025 56.8422C81.8056 53.9348 90.9911 59.7747 85.092 56.4133C89.9119 62.0121 81.9701 53.5558 86.5792 59.5811L84.2751 57.8048C88.6418 64.2196 81.3867 54.4339 85.5004 61.2264C82.8988 58.6164 83.172 58.7411 84.8799 62.0693C82.2397 59.3103 82.4652 59.2725 83.8374 63.1159C81.2753 60.048 81.4867 60.0272 82.842 64.0276C80.2553 60.8416 80.4558 60.8056 81.848 64.914C79.2283 61.6566 79.4178 61.5992 80.8471 65.7919L78.5612 62.9359C81.5975 71.8067 75.7773 58.6581 78.8184 67.5298C76.1289 64.1614 76.3316 64.11 77.763 68.4449L75.3602 65.543C77.7279 74.639 72.7777 61.3743 75.038 70.4768L72.7316 67.5373C74.9014 76.4771 70.2143 63.5421 72.3053 72.3843L70.0733 69.6139C72.0093 78.0921 67.705 65.909 69.5234 74.2529L67.4163 71.7608C68.9962 79.6918 65.6241 68.1139 66.5027 76.1693C62.0641 70.2073 67.1837 80.6147 63.1244 74.5996C62.5058 81.8833 62.0513 71.3387 60.9686 78.0997C57.9567 72.9963 60.6598 81.2674 57.9357 76.354C56.4573 81.5875 57.1981 73.979 55.6253 78.7266C53.4432 74.9815 54.638 80.6588 52.8774 77.0189C50.9587 80.0935 52.4688 75.5153 50.4573 78.0937C49.7409 74.9583 49.2311 79.2079 49.1033 76.0939C46.8638 77.6009 49.6804 74.9601 47.223 75.8043C48.6365 73.1773 45.291 75.4247 47.6935 73.7771C44.1869 76.3965 49.4616 10.7377 49.8321 10.3594Z" fill="black" stroke="#2C2C2B" stroke-width="0.0453147"/>
<path fill-rule="evenodd" clip-rule="evenodd" d="M31.2263 71.3713C30.6945 71.3713 26.5459 64.2284 26.5459 64.2284C25.8366 60.4366 25.1275 56.6447 24.4184 52.853C24.7092 44.8514 23.2451 36.415 26.3416 26.78C27.6937 23.5033 29.0313 19.9669 30.6133 15.0448C35.9915 10.6951 43.3333 8.35955 52.591 10.4309C58.5051 12.3767 61.9875 14.8214 68.6286 19.7974C72.3175 22.5616 77.7708 25.4034 78.9849 28.0072C80.1989 30.6112 81.2617 33.4656 81.7849 37.2151C82.67 39.577 82.764 42.136 82.4989 44.784C81.9744 47.2532 81.3058 49.7225 79.6266 52.1913C78.6769 54.7387 77.5826 57.1421 75.478 58.5406C70.6814 62.0149 65.6647 68.1657 59.8717 69.8676C54.2986 71.5048 51.2603 72.758 44.4167 74.2812C40.0197 73.3113 35.6231 72.3412 31.2263 71.3713Z" fill="#C87137" stroke="black" stroke-width="1.6783"/>
<path fill-rule="evenodd" clip-rule="evenodd" d="M53.508 25.2818C50.9293 30.6586 47.4214 35.3018 44.3834 34.7213C44.1719 34.6809 43.9626 34.6157 43.7559 34.5231C42.1674 33.8555 40.5338 32.5491 39.7049 31.07C38.782 29.4228 38.6754 28.294 38.2724 26.35C37.8338 24.2331 35.3274 23.4575 34.6579 19.9655C33.7582 26.6333 35.7979 32.9639 38.2764 35.6884C40.5973 38.2397 44.4415 37.03 47.5309 36.7465C47.7306 36.7282 47.9364 36.7099 48.1462 36.6914C49.1383 35.4619 50.2584 34.3681 51.091 32.9693C52.2917 30.9523 53.4172 27.5323 53.508 25.2818Z" fill="#784421"/>
<path fill-rule="evenodd" clip-rule="evenodd" d="M37.9258 24.6423C37.9258 18.9684 40.8331 14.363 44.4148 14.363C47.9963 14.363 50.9036 18.9684 50.9036 24.6423C50.9036 30.3162 47.9963 34.9219 44.4148 34.9219C40.8331 34.9219 37.9258 30.3162 37.9258 24.6423Z" fill="white"/>
<path fill-rule="evenodd" clip-rule="evenodd" d="M75.5519 53.1641C76.5585 52.8064 78.3434 52.502 79.2614 51.8769C80.795 50.8327 82.7012 49.9561 83.4887 48.015C84.5181 45.4765 84.2054 42.3826 84.2649 39.5407C84.3207 36.8894 84.2941 34.1921 83.8336 31.6024C82.9814 26.81 78.4546 26.8728 75.207 27.0969C76.1272 31.2448 76.9328 35.0287 77.1048 39.326C77.2858 43.8468 76.1272 48.6943 75.5519 53.1641Z" fill="#990000" stroke="black" stroke-width="0.62935"/>
<path fill-rule="evenodd" clip-rule="evenodd" d="M80.1959 38.0797C81.8621 38.0797 82.9179 38.8336 83.1449 36.4917C83.3497 34.3795 82.9683 31.8206 82.0505 30.0271C80.9317 27.8405 78.3903 27.8637 76.5898 28.1324C77.2834 29.1112 77.6317 29.5933 77.8675 31.4716C78.0414 32.8589 78.4587 37.9117 80.1959 38.0797Z" fill="#C54E39"/>
<path fill-rule="evenodd" clip-rule="evenodd" d="M81.9292 45.2648C81.4746 46.8739 80.9039 48.8954 79.1931 48.5161C78.1187 48.2781 78.6556 45.1534 78.973 44.2493C79.6353 42.3629 79.8552 40.6845 82.1987 39.9877C83.43 39.6217 82.1006 44.6495 81.9292 45.2648Z" fill="#C54E39"/>
<path fill-rule="evenodd" clip-rule="evenodd" d="M77.419 54.695C76.6685 56.0563 76.384 56.3478 73.1388 59.0791C71.2268 60.6883 68.7709 62.7734 67.6812 63.7127C65.4252 65.6573 62.6957 67.5087 61.125 68.1596C59.5333 68.8193 50.5187 71.5806 47.2496 72.4097L44.399 73.1328L40.9573 72.3472C39.0643 71.9151 37.6288 71.5095 37.7673 71.446C37.9058 71.3825 38.3591 71.2791 38.7746 71.2163C40.2289 70.2606 37.2636 66.2942 37.4456 65.9888C37.493 65.9299 38.0192 66.1277 38.6149 66.4284C39.9171 67.0856 42.3376 67.3131 43.8561 66.9211C46.9487 66.1228 49.6941 62.8616 50.6159 58.8911C51.3991 55.3283 49.6081 52.6595 48.9742 49.7221C47.6335 46.3032 48.327 45.2898 46.0181 43.5958L43.3213 43.6887C40.7154 43.7785 41.4604 42.7739 41.4634 42.1033C41.4648 41.7967 41.5277 41.4249 41.6031 41.2771C41.8298 40.8328 44.1915 40.7822 50.1912 41.093C53.2845 41.2533 55.0978 41.3985 54.2205 41.4158C53.3433 41.433 51.4167 41.6786 49.9393 41.9617C48.4619 42.2447 47.1964 42.4783 47.1271 42.4808C47.0578 42.4832 47.0012 42.6676 47.0012 42.8904C47.0012 43.1133 47.0578 43.3367 47.1271 43.3868C47.1963 43.4369 48.8059 42.203 50.191 41.9206C53.474 41.2512 54.2314 40.8629 56.5708 40.9017C59.7988 40.3187 62.014 41.2166 64.4803 41.7243C66.3664 42.0731 67.4056 41.7847 68.3193 41.3487C69.3761 40.8445 70.5575 39.1893 71.1947 38.7152C71.5009 40.5638 70.9931 41.2698 71.4316 40.3106C71.5382 40.0774 71.7475 39.9654 71.991 40.0112L72.6213 40.1365L72.0746 41.1064C71.3134 42.457 70.957 43.1423 70.957 44.6294C70.957 45.7435 71.0409 46.1957 71.6016 47.6374C72.1114 48.9483 74.5833 54.2413 74.9787 54.7881C75.0145 54.8377 75.2959 54.5745 75.6038 54.2034C76.0724 53.6386 77.4411 52.939 78.1029 52.9259C78.3434 52.9212 78.2184 53.2449 77.419 54.695Z" fill="#A05A2C"/>
<path fill-rule="evenodd" clip-rule="evenodd" d="M53.8875 55.008C50.7642 49.6315 45.1506 44.6794 41.4711 45.2601C41.2147 45.3005 40.9613 45.3655 40.711 45.4581C38.787 46.1259 36.8083 47.4323 35.8046 48.9115C34.6869 50.5586 34.5577 51.6871 34.0697 53.6314C33.5383 55.7483 30.5026 56.5239 29.692 60.0156C28.6021 53.3478 31.0726 47.0173 34.0743 44.293C36.8853 41.7417 41.5414 42.9511 45.2832 43.2347C45.5251 43.2532 45.8328 43.1222 46.0284 43.2897C47.3305 44.4062 49.145 45.2275 50.1535 46.6262C51.6075 48.6433 53.7776 52.7575 53.8875 55.008Z" fill="#784421"/>
<path fill-rule="evenodd" clip-rule="evenodd" d="M75.1218 54.125C73.9141 51.622 72.4283 49.296 71.4988 46.6159C71.1335 45.5635 71.0993 44.2944 71.3261 43.1833C71.6076 41.8031 72.7514 40.8277 72.9652 39.4286C73.2257 37.7241 71.9622 36.388 71.585 34.816C71.3848 33.9825 71.2122 33.2411 71.2399 32.3719C71.2711 31.3913 71.5149 30.3178 72.1025 29.5597C72.9218 28.5029 74.058 27.7005 75.0356 26.7707C77.1012 30.8437 76.629 33.9937 77.7962 36.7469C79.1907 40.0362 78.9497 39.4662 77.7962 42.8614C76.8213 45.7313 76.9911 49.0117 76.5885 52.0868L75.1218 54.125Z" fill="#C54E39" stroke="black" stroke-width="0.62935"/>
<path fill-rule="evenodd" clip-rule="evenodd" d="M75.1244 53.8906C74.712 53.0355 74.292 52.2479 73.8477 51.4129C74.4332 50.3616 75.1234 49.346 75.3833 48.1178C75.9491 45.4439 74.596 43.4115 76.4184 41.1453C77.8175 39.4056 77.935 38.3131 77.0339 36.9905C76.7411 36.5603 75.7802 35.0045 75.711 34.0369C75.6332 32.9457 75.8027 31.8299 76.247 30.278C76.7316 32.3585 76.9521 34.9669 77.6354 36.6378C78.9905 39.9521 78.8642 39.482 77.6354 42.9711C76.6303 45.8248 76.8804 48.9336 76.4778 52.0087L75.1244 53.8906Z" fill="#990000"/>
<path fill-rule="evenodd" clip-rule="evenodd" d="M76.8617 37.4975C75.5843 37.7628 73.3244 37.3522 72.3693 35.4502C71.7292 34.1753 71.4015 32.5128 71.9646 30.9854C72.1104 30.5897 72.4721 30.0906 72.848 29.7945C72.749 30.7091 72.5761 31.9905 72.6332 32.9568C72.6894 33.9079 73.084 34.7453 73.6532 35.3211C74.5301 36.208 75.4037 36.7057 76.8617 37.4975Z" fill="#D57D6E"/>
<path fill-rule="evenodd" clip-rule="evenodd" d="M80.577 29.0586C81.5695 29.144 82.4028 32.5585 82.5371 34.3567C82.6078 35.3057 82.5849 35.1158 81.9874 34.6814C81.9587 34.6608 81.4403 32.3706 81.4153 32.1966C81.3597 31.8072 80.7599 30.1671 79.8304 29.0793C79.7091 28.9373 80.4132 29.02 80.577 29.0586Z" fill="#D57D6E"/>
<path d="M47.3152 42.9574C51.5702 42.2481 56.3611 40.4976 60.0801 43.6187C62.2665 45.4534 63.1288 47.5017 64.9734 48.2483C66.1791 48.8658 66.6046 48.0279 66.6755 46.5287C66.3274 42.6349 68.6129 43.7804 70.6113 40.9732C71.4371 39.8134 72.0568 36.3148 70.3986 35.4177C67.7391 33.9788 67.921 33.7894 67.42 30.259C66.3922 29.55 65.2111 29.0264 64.016 30.9203C60.8773 35.8943 52.5341 36.2809 47.5279 36.7403C44.4385 37.0239 40.5941 38.2335 38.2734 35.6822" stroke="black" stroke-width="0.629329" stroke-linecap="round"/>
<path opacity="0.55157" fill-rule="evenodd" clip-rule="evenodd" d="M44.0547 39.2639C46.1176 39.2639 48.1855 39.4436 50.2433 39.2639C55.6483 38.7912 60.9814 37.276 66.4177 37.6898C67.2715 37.7547 68.1055 38.0396 68.9492 38.2144L69.0898 36.4655C68.5741 35.7077 68.1866 34.779 67.5428 34.1918C66.7479 33.4671 65.7613 33.1426 64.8705 32.6179C64.1203 33.3758 63.4712 34.3217 62.6201 34.8914C59.6033 36.9113 56.078 36.657 52.7748 37.1652C50.4258 37.5262 48.0663 37.8301 45.7425 38.3892C45.1441 38.5332 44.6173 38.9722 44.0547 39.2639Z" fill="#E9C6AF"/>
<path fill-rule="evenodd" clip-rule="evenodd" d="M37.9687 20.2031C38.2909 17.3683 37.5451 14.0153 36.75 13.7135C38.0421 12.5294 40.564 11.9863 41.8068 12.1532C42.921 12.538 42.6585 13.7153 42.1804 13.895C40.277 14.6103 38.4942 17.295 37.9687 20.2031Z" fill="#DAA079"/>
<path fill-rule="evenodd" clip-rule="evenodd" d="M32.8516 55.8996C32.8516 49.712 36.8904 44.6897 41.8665 44.6897C46.8425 44.6897 50.8816 49.712 50.8816 55.8996C50.8816 62.0871 46.8425 67.1094 41.8665 67.1094C36.8904 67.1094 32.8516 62.0871 32.8516 55.8996Z" fill="white"/>
<path fill-rule="evenodd" clip-rule="evenodd" d="M34.4922 63.3586C35.8804 66.3017 36.28 70.4175 35.5137 71.1982C37.369 71.7753 40.3468 70.953 41.6557 70.0689C42.7437 69.0171 42.0255 67.8672 41.4329 67.9384C39.0742 68.2225 36.1311 66.2681 34.4922 63.3586Z" fill="#784421"/>
<path fill-rule="evenodd" clip-rule="evenodd" d="M47.5937 49.1717C48.933 50.938 49.7558 53.3157 49.7558 55.9249C49.7558 61.3536 46.1953 65.7812 41.8293 65.7812C40.9358 65.7812 40.0759 65.5952 39.2734 65.2538C39.5092 65.2778 39.7476 65.2906 39.988 65.2906C44.7884 65.2906 48.7037 60.4219 48.7037 54.453C48.7037 52.5374 48.2999 50.7361 47.5937 49.1717Z" fill="#D9DBDC"/>
<path d="M25.5173 85.5078C21.4965 83.0178 16.5924 77.5771 14.8014 75.991C13.0107 74.4049 12.9731 74.9418 11.2854 67.5962C9.59759 60.2509 9.45703 49.2326 9.45703 49.2326" stroke="black" stroke-width="0.986056" stroke-linecap="round"/>
<path d="M38.1047 3.16557C34.1601 5.08897 33.6733 8.51526 28.4429 9.52746C23.2124 10.5396 19.4414 16.8728 19.4414 16.8728C19.4414 16.8728 14.0968 25.9672 15.2221 37.8597C16.3472 49.7525 19.4414 69.1641 19.4414 69.1641" stroke="black" stroke-width="0.986056" stroke-linecap="round"/>
<path fill-rule="evenodd" clip-rule="evenodd" d="M46.9237 16.6014C48.8582 18.0738 50.1996 21.2099 50.1996 24.8266C50.1996 29.8491 47.6137 33.9453 44.4434 33.9453C43.2736 33.9453 42.1835 33.3871 41.2734 32.431C42.0253 33.0031 42.8666 33.3242 43.7538 33.3242C46.9241 33.3242 49.51 29.228 49.51 24.2055C49.51 21.0364 48.4799 18.2365 46.9237 16.6014Z" fill="#D9DBDC"/>
<path fill-rule="evenodd" clip-rule="evenodd" d="M39.7227 53.5998C39.7227 51.2314 41.2686 49.3088 43.1733 49.3088C45.078 49.3088 46.6241 51.2314 46.6241 53.5998C46.6241 55.9683 45.078 57.8906 43.1733 57.8906C41.2686 57.8906 39.7227 55.9683 39.7227 53.5998Z" fill="url(#paint0_linear_394_7084)" stroke="black" stroke-width="0.419601"/>
<path fill-rule="evenodd" clip-rule="evenodd" d="M41.9141 53.6033C41.9141 52.7374 42.4792 52.0347 43.1755 52.0347C43.8718 52.0347 44.437 52.7374 44.437 53.6033C44.437 54.4691 43.8718 55.1719 43.1755 55.1719C42.4792 55.1719 41.9141 54.4691 41.9141 53.6033Z" fill="black"/>
<path fill-rule="evenodd" clip-rule="evenodd" d="M41.6445 51.9319C41.6445 51.4287 41.9731 51.0203 42.3777 51.0203C42.7824 51.0203 43.111 51.4287 43.111 51.9319C43.111 52.4351 42.7824 52.8438 42.3777 52.8438C41.9731 52.8438 41.6445 52.4351 41.6445 51.9319Z" fill="white"/>
<path fill-rule="evenodd" clip-rule="evenodd" d="M33.087 74.5341C33.345 73.3735 28.2832 71.5573 29.8704 69.9125C29.3523 70.2462 28.472 68.3823 29.2063 67.7437C29.1395 67.8102 28.4084 68.1598 28.4166 67.5976C28.4214 67.2603 29.2237 66.0092 29.1079 65.8109C29.0212 65.6627 28.0816 66.9801 28.0486 66.7406C27.9985 66.3754 28.8597 64.8939 28.7462 64.5958C28.6193 64.2619 27.6664 65.6643 27.5879 65.1879C27.5367 64.8767 28.4865 63.1018 28.4195 62.7926C28.3644 62.537 27.2072 63.5599 27.1654 63.2831C27.083 62.7363 28.0631 61.1486 27.9641 60.6131C27.9045 60.2906 27.0089 61.5939 26.9586 61.2551C26.8866 60.7709 27.5418 59.3682 27.469 58.8887C27.4186 58.5572 26.6695 59.772 26.6275 59.4298C26.5658 58.9263 27.5065 57.3013 27.443 56.8072C27.392 56.4086 26.4022 57.7224 26.3615 57.3162C26.3279 56.9823 27.1658 55.271 27.1344 54.9436C27.0865 54.4487 25.9327 55.8332 25.9065 55.3349C25.8865 54.9577 27.2806 53.4697 27.2646 53.1016C27.2401 52.5311 26.0103 53.8829 26.0153 53.3155C26.0212 52.6325 27.606 51.7779 27.6311 51.1172C27.6532 50.5357 26.4016 52.0445 26.4561 51.4662C26.5146 50.8438 28.0258 49.4969 28.1082 48.8959C28.1707 48.4412 26.8952 49.4865 26.9804 49.0404C27.093 48.4508 28.4523 47.5164 28.5964 46.9519C28.6518 46.7351 27.2672 47.4214 27.3293 47.2083C27.4415 46.8219 28.9002 45.7931 29.03 45.4226C29.1196 45.1672 27.6676 45.5105 27.9708 45.0071C28.3144 44.4365 29.8631 43.5472 29.9328 43.1374C30.0349 42.5374 28.5651 42.7052 28.8362 42.2022C29.2079 41.5119 30.8678 41.1517 31.0587 40.7891C31.6618 39.6436 30.2009 40.1184 30.7138 39.5468C31.2267 38.975 32.7068 38.7754 33.0974 38.5258C34.563 37.5887 35.0684 38.4692 33.6504 33.8883C33.2946 32.7386 31.8815 31.2407 31.28 29.3382C31.0656 28.6602 32.8788 29.8584 32.5895 28.1896C32.394 27.0632 30.8789 25.5251 30.6635 24.0642C30.4749 22.7859 32.1377 26.0012 32.0021 24.593C31.8983 23.5148 30.6133 21.9853 30.5122 20.7908C30.435 19.8788 31.8708 21.7772 31.8236 20.8412C31.7913 20.2052 30.8233 19.1259 30.7929 18.4649C30.7679 17.9189 31.9881 19.4818 31.9734 18.9303C31.949 18.0259 31.2305 16.9266 31.211 15.9892C31.1988 15.3929 32.2209 17.4647 32.2222 16.8718C32.2237 16.1061 31.6161 14.8957 31.6209 14.0995C31.6241 13.5932 32.4618 15.3444 32.476 14.8425C32.4943 14.195 32.0707 12.9073 32.0921 12.2364C32.1058 11.8096 32.8725 13.488 32.8946 13.0688C32.9229 12.528 32.5079 11.3507 32.5358 10.7906C32.5572 10.3633 33.3777 11.7379 33.4088 11.3223C33.4606 10.6318 32.8992 9.18551 32.9432 8.47391C32.9665 8.09931 33.7058 9.83771 33.7444 9.48941C33.7984 9.00161 33.4016 8.06481 33.4507 7.54441C33.4877 7.15281 34.2085 8.51611 34.2681 8.15481C34.3384 7.72801 33.8785 6.72811 33.9177 6.24311C33.927 6.12941 34.6589 7.29551 34.8066 6.92381C34.9486 6.56581 34.57 5.56331 34.6356 4.93931C34.6673 4.63851 35.6802 6.17401 35.1179 4.68841C34.7869 3.81391 35.0684 3.36631 35.4807 4.00021C37.947 7.79191 37.7474 24.2046 39.7388 28.5222C39.8076 28.6714 44.8488 38.5093 39.8233 38.1157C43.6241 36.7039 39.9148 52.3662 38.004 47.4791C38.1056 50.1778 33.1897 47.0066 34.1615 58.6641C34.6446 64.4612 36.3865 59.7496 37.5976 67.5068C38.1114 70.7979 36.8227 75.5758 33.087 74.5341Z" fill="black" stroke="#2C2C2B" stroke-width="0.0453147"/>
<path fill-rule="evenodd" clip-rule="evenodd" d="M43.1172 24.2635C43.1172 22.4382 44.3086 20.9565 45.7765 20.9565C47.2444 20.9565 48.436 22.4382 48.436 24.2635C48.436 26.0888 47.2444 27.5703 45.7765 27.5703C44.3086 27.5703 43.1172 26.0888 43.1172 24.2635Z" fill="url(#paint1_linear_394_7084)" stroke="black" stroke-width="0.323378"/>
<path fill-rule="evenodd" clip-rule="evenodd" d="M44.8047 24.2598C44.8047 23.5925 45.2403 23.0509 45.7769 23.0509C46.3135 23.0509 46.7491 23.5925 46.7491 24.2598C46.7491 24.927 46.3135 25.4688 45.7769 25.4688C45.2403 25.4688 44.8047 24.927 44.8047 24.2598Z" fill="black"/>
<path fill-rule="evenodd" clip-rule="evenodd" d="M44.5977 22.977C44.5977 22.5892 44.8508 22.2744 45.1627 22.2744C45.4746 22.2744 45.7278 22.5892 45.7278 22.977C45.7278 23.3648 45.4746 23.6797 45.1627 23.6797C44.8508 23.6797 44.5977 23.3648 44.5977 22.977Z" fill="white"/>
</g>
</g>
<defs>
<linearGradient id="paint0_linear_394_7084" x1="46.3835" y1="53.7433" x2="39.6889" y2="53.7956" gradientUnits="userSpaceOnUse">
<stop stop-color="#963A11"/>
<stop offset="1"/>
</linearGradient>
<linearGradient id="paint1_linear_394_7084" x1="48.2506" y1="24.3741" x2="43.0911" y2="24.4144" gradientUnits="userSpaceOnUse">
<stop stop-color="#963A11"/>
<stop offset="1"/>
</linearGradient>
<clipPath id="clip0_394_7084">
<rect width="90" height="90" fill="white" transform="matrix(0 -1 1 0 0 90)"/>
</clipPath>
</defs>
</svg>
