<svg width="90" height="90" viewBox="0 0 90 90" fill="none" xmlns="http://www.w3.org/2000/svg">
<g clip-path="url(#clip0_394_7123)">
<mask id="mask0_394_7123" style="mask-type:luminance" maskUnits="userSpaceOnUse" x="0" y="0" width="90" height="90">
<path d="M0 0L0 90H90V0H0Z" fill="white"/>
</mask>
<g mask="url(#mask0_394_7123)">
<path d="M90 45C90 20.1472 69.8528 0 45 0C20.1472 0 0 20.1472 0 45C0 69.8528 20.1472 90 45 90C69.8528 90 90 69.8528 90 45Z" fill="#F0F0F0"/>
<path d="M44.9987 46.9559L44.9987 -0.000602722C40.9369 -0.000602722 37.0026 0.540799 33.2595 1.5496V46.9559H44.9987ZM21.5204 46.9559L21.5204 6.6042C17.033 9.3559 13.0604 12.8697 9.78125 16.9875L9.78125 46.9559H21.5204ZM89.9987 44.9994C89.9987 34.4088 86.3382 24.6746 80.2161 16.9875V73.0114C86.3382 65.3243 89.9987 55.5901 89.9987 44.9994ZM68.4769 83.3946V6.6042C64.8259 4.3662 60.8725 2.6639 56.7377 1.5496L56.7377 88.4492C60.8725 87.335 64.826 85.6328 68.4769 83.3946Z" fill="#D80027"/>
<path d="M45 45H0C0 69.8527 20.1473 90 45 90V45Z" fill="#0052B4"/>
<path d="M38.5184 60.0752C38.5184 66.2209 33.5363 71.2029 27.3908 71.2029C21.2453 71.2029 16.2631 66.2207 16.2631 60.0752C16.2631 58.159 16.7478 56.356 17.6006 54.7819C15.1859 57.2513 13.6953 60.6284 13.6953 64.3551C13.6953 71.9188 19.8271 78.0508 27.391 78.0508C34.9548 78.0508 41.0866 71.9188 41.0866 64.3551C41.0866 60.6284 39.596 57.2513 37.1813 54.7819C38.0338 56.356 38.5184 58.1588 38.5184 60.0752Z" fill="#FFDA44"/>
<path d="M19.5664 56.9412L23.6976 54.9655L22.6668 50.5041L26.787 52.5019L29.6323 48.9138L30.6394 53.3813L35.2187 53.3688L32.3538 56.9412L35.2187 60.5138L30.6394 60.5014L29.6323 64.9688L26.787 61.3806L22.6668 63.3787L23.6976 58.917L19.5664 56.9412Z" fill="#FFDA44"/>
</g>
</g>
<defs>
<clipPath id="clip0_394_7123">
<rect width="90" height="90" fill="white" transform="matrix(0 -1 1 0 0 90)"/>
</clipPath>
</defs>
</svg>
