<svg width="90" height="90" viewBox="0 0 90 90" fill="none" xmlns="http://www.w3.org/2000/svg">
<g clip-path="url(#clip0_1486_22098)">
<g filter="url(#filter0_f_1486_22098)">
<path d="M1.39644 45C1.39644 69.0714 20.9285 88.6035 45 88.6035C69.0714 88.6035 88.6036 69.0714 88.6036 45C88.6036 20.9285 69.0714 1.3964 45 1.3964C20.9285 1.3964 1.39644 20.9285 1.39644 45ZM3.10548 45C3.10548 21.8521 21.8522 3.10544 45 3.10544C68.1478 3.10544 86.8945 21.8521 86.8945 45C86.8945 68.1478 68.1478 86.8945 45 86.8945C21.8522 86.8945 3.10548 68.1478 3.10548 45Z" fill="black" fill-opacity="0.609524"/>
</g>
<path d="M87.749 44.9999C87.749 21.3903 68.6096 2.25091 45 2.25091C21.3903 2.25091 2.25096 21.3903 2.25096 44.9999C2.25096 68.6096 21.3903 87.749 45 87.749C68.6096 87.749 87.749 68.6096 87.749 44.9999Z" fill="#A59A95" stroke="black" stroke-opacity="0.733333" stroke-width="0.527344" stroke-linecap="round"/>
<path d="M6.427 45.1813C6.47812 67.0123 23.0587 85.3798 45.0793 87.9994C67.1001 85.38 83.6808 67.0124 83.7319 45.1813C83.7038 23.3332 67.1174 4.93999 45.0796 2.31834C23.0417 4.93986 6.45518 23.3331 6.427 45.1813Z" fill="#090909" fill-opacity="0.547619"/>
<path d="M2.25085 44.9999C2.25085 50.6138 3.35658 56.1727 5.50492 61.3593C7.65326 66.5458 10.8021 71.2585 14.7718 75.2281C18.7414 79.1977 23.454 82.3466 28.6406 84.4949C33.8271 86.6432 39.386 87.749 44.9999 87.749C46.0106 87.7489 47.0209 87.713 48.029 87.6414C37.0868 87.09 26.774 82.3585 19.2194 74.4235C11.6648 66.4886 7.44509 55.956 7.4314 44.9999C7.4315 34.1864 11.5296 23.7747 18.9002 15.8623C26.2708 7.94981 36.3661 3.12461 47.1524 2.35867C46.436 2.30464 45.7182 2.26868 44.9999 2.25082C39.386 2.25082 33.8271 3.35656 28.6405 5.50491C23.454 7.65324 18.7414 10.8021 14.7717 14.7717C10.8021 18.7414 7.65325 23.454 5.50491 28.6406C3.35657 33.8271 2.25084 39.386 2.25085 44.9999Z" fill="black" fill-opacity="0.709524"/>
<path d="M2.25085 44.9999C2.25085 50.6138 3.35658 56.1727 5.50492 61.3593C7.65326 66.5458 10.8021 71.2585 14.7718 75.2281C18.7414 79.1977 23.454 82.3466 28.6406 84.4949C33.8271 86.6432 39.386 87.749 44.9999 87.749C45.363 87.7407 45.7259 87.7279 46.0887 87.7104C34.948 87.4256 24.359 82.8015 16.5778 74.8235C8.79665 66.8455 4.43855 56.1442 4.43213 44.9999C4.44271 33.8582 8.80279 23.1609 16.5838 15.1862C24.3647 7.21159 34.9517 2.58988 46.0898 2.30544C45.7267 2.2826 45.3634 2.26439 44.9999 2.25082C39.386 2.25082 33.8271 3.35656 28.6405 5.50491C23.454 7.65324 18.7414 10.8021 14.7717 14.7717C10.8021 18.7414 7.65325 23.454 5.50491 28.6406C3.35657 33.8271 2.25084 39.386 2.25085 44.9999Z" fill="white" fill-opacity="0.309524"/>
<path d="M87.851 44.9999C87.851 50.6138 86.7453 56.1727 84.5969 61.3593C82.4486 66.5458 79.2997 71.2585 75.3301 75.2281C71.3605 79.1977 66.6478 82.3466 61.4613 84.4949C56.2747 86.6432 50.7158 87.749 45.1019 87.749C44.0913 87.7489 43.0809 87.713 42.0728 87.6414C53.015 87.09 63.3279 82.3585 70.8825 74.4236C78.4371 66.4886 82.6568 55.956 82.6704 44.9999C82.6703 34.1864 78.5722 23.7747 71.2017 15.8623C63.8311 7.94981 53.7358 3.12461 42.9494 2.35867C43.6659 2.30464 44.3836 2.26868 45.1019 2.25082C50.7158 2.25082 56.2747 3.35656 61.4613 5.50491C66.6479 7.65324 71.3605 10.8021 75.3301 14.7717C79.2997 18.7414 82.4486 23.454 84.5969 28.6406C86.7453 33.8271 87.851 39.386 87.851 44.9999Z" fill="black" fill-opacity="0.842857"/>
<path d="M87.851 44.9999C87.851 50.6138 86.7453 56.1727 84.5969 61.3593C82.4486 66.5458 79.2997 71.2585 75.3301 75.2281C71.3605 79.1977 66.6478 82.3466 61.4613 84.4949C56.2747 86.6432 50.7158 87.749 45.1019 87.749C44.7388 87.7407 44.3759 87.7279 44.0131 87.7104C55.1538 87.4256 65.7429 82.8015 73.524 74.8235C81.3052 66.8455 85.6633 56.1442 85.6697 44.9999C85.6591 33.8582 81.299 23.1609 73.5181 15.1862C65.7371 7.21159 55.1502 2.58988 44.0121 2.30544C44.3751 2.2826 44.7384 2.26439 45.1019 2.25082C50.7158 2.25082 56.2747 3.35656 61.4613 5.50491C66.6479 7.65324 71.3605 10.8021 75.3301 14.7717C79.2997 18.7414 82.4486 23.454 84.5969 28.6406C86.7453 33.8271 87.851 39.386 87.851 44.9999Z" fill="white" fill-opacity="0.309524"/>
<g filter="url(#filter1_f_1486_22098)">
<path d="M-7.62939e-06 44.7626C-7.62939e-06 61.306 5.694 69.4011 12.1055 73.1396C18.5171 76.8781 25.5656 76.3194 28.3556 75.9401C30.7928 75.6087 31.8946 76.0943 32.7628 76.7896C33.6034 77.4629 34.2597 78.4529 35.5043 79.0901C35.7503 79.5051 36.052 79.8453 36.453 79.9787L36.504 79.9955L36.5571 79.9983C36.8578 80.0149 37.155 79.9097 37.3792 79.7125C37.6034 79.5152 37.7563 79.2469 37.8665 78.9501C38.0867 78.3565 38.1556 77.6209 38.1524 76.7928C38.1461 75.1366 37.8201 73.1158 37.3848 71.4604L37.3522 71.3357L37.2692 71.2446C36.3945 70.282 36.1031 69.5397 35.9932 69.0736C36.0456 68.7374 36.1002 68.4016 36.1654 68.0672L36.1688 68.0496L36.1713 68.0316C36.1713 68.0316 37.0097 61.458 37.0097 44.7626C37.0097 28.0672 36.1713 21.4936 36.1713 21.4936L36.1688 21.4756L36.1654 21.458C36.1393 21.3244 36.1151 21.1908 36.0911 21.0573C36.1512 20.2934 36.3821 19.0308 37.0201 18.3764L37.111 18.283L37.1464 18.1504C37.5856 16.5062 38.0133 14.6208 38.1181 13.0941C38.1704 12.3307 38.1531 11.6565 37.9609 11.0943C37.8648 10.8132 37.7157 10.5524 37.4917 10.3691C37.3034 10.215 37.0667 10.1467 36.8233 10.1333L36.8032 10C36.6961 10.006 36.5819 10.0232 36.4628 10.0551C34.713 10.5244 33.9233 11.7083 33.0088 12.5256C32.0944 13.3429 31.0289 13.9485 28.3556 13.5851C25.5656 13.2057 18.5171 12.6471 12.1055 16.3856C5.694 20.1241 -7.62939e-06 28.2192 -7.62939e-06 44.7626ZM0.888371 44.7626C0.888371 28.4751 6.37189 20.8558 12.5136 17.2747C18.6554 13.6935 25.536 14.21 28.2494 14.579C31.0796 14.9637 32.5282 14.2329 33.5609 13.3099C34.5536 12.4227 35.1564 11.5137 36.5183 11.09L36.6276 11.228C36.6865 11.175 36.7344 11.1529 36.7824 11.1299C36.862 11.1351 36.9286 11.1454 36.9694 11.1788C37.0215 11.2214 37.0796 11.3011 37.1318 11.454C37.2363 11.7597 37.2797 12.3281 37.2325 13.0167C37.1393 14.3738 36.7365 16.1932 36.3128 17.7884C35.4578 18.7791 35.2558 20.2044 35.1965 21.0268L35.1916 21.0964L35.2038 21.1648C35.232 21.3246 35.2615 21.4846 35.2926 21.6449C35.2953 21.6657 36.1213 28.1316 36.1213 44.7626C36.1213 61.4102 35.2933 67.8775 35.2923 67.8854L35.292 67.8885C35.2177 68.2731 35.1531 68.6544 35.0956 69.0321L35.0803 69.1338L35.1015 69.2339C35.2367 69.8683 35.6243 70.7839 36.5531 71.8424C36.9545 73.3979 37.2586 75.3177 37.2642 76.7971C37.267 77.5511 37.1858 78.19 37.0469 78.5642C36.9775 78.7513 36.8986 78.8653 36.8325 78.9235C36.781 78.9688 36.7223 78.9766 36.6524 78.9822C36.5075 78.9133 36.3402 78.7597 36.1714 78.4411L36.0971 78.3003L35.9632 78.2366C34.8701 77.7153 34.2937 76.7875 33.2776 75.9737C32.2615 75.1598 30.8298 74.5954 28.2496 74.9462C25.5361 75.3152 18.6555 75.8317 12.5138 72.2505C6.37203 68.6694 0.888371 61.0501 0.888371 44.7626Z" fill="black" fill-opacity="0.861905"/>
</g>
<path d="M36.7088 10.6171C38.4 10.5235 37.5906 14.7501 36.7209 18.0062C35.5511 19.2061 35.6152 21.6827 35.6152 21.6827C34.5811 16.376 35.1523 11.1349 36.7088 10.6171Z" fill="#0D0D0D" stroke="black" stroke-opacity="0.861905" stroke-width="0.316406"/>
<g filter="url(#filter2_f_1486_22098)">
<path d="M83 44.7638C83 47.8364 82.9046 49.7108 82.5924 51.197C82.2801 52.6832 81.7476 53.7606 80.9183 55.1895C79.2051 58.1416 74.6827 61.9547 72.6652 63.0912C71.7381 63.6133 71.2227 64.2503 70.4308 64.8396C69.639 65.4288 68.5903 65.9266 66.683 66.1152H66.6825C62.8884 66.49 59.6079 64.5879 54.1841 65.6356C54.2356 67.1039 54.0579 68.5182 53.15 69.5838C51.1404 71.9422 47.1231 72.7819 43.8632 71.768C42.1679 72.2963 40.3724 72.4216 38.8485 72.1746C37.408 71.9411 36.2154 71.3751 35.586 70.4324C33.5075 71.3282 31.1339 71.8231 28.4387 71.7185C22.7109 71.4959 18.0112 67.674 14.7595 62.4662C11.5079 57.2583 9.68258 50.6567 9.68234 44.7638V44.7633V44.7627C9.68258 38.8697 11.5079 32.2683 14.7595 27.0604C18.0112 21.8525 22.7109 18.0305 28.4387 17.8081C31.1339 17.7032 33.5075 18.1979 35.586 19.0936C36.2154 18.1509 37.408 17.5849 38.8485 17.3514C40.3724 17.1044 42.1679 17.2298 43.8632 17.758C47.1231 16.7443 51.1404 17.5838 53.15 19.9422C54.0579 21.0078 54.2357 22.4227 54.1841 23.891C59.6077 24.9386 62.8886 23.036 66.6825 23.4109H66.683C68.5899 23.5993 69.639 24.0978 70.4308 24.687C71.2227 25.2762 71.7381 25.9127 72.6652 26.4348C74.6827 27.5713 79.2051 31.3844 80.9183 34.3365C81.7476 35.7654 82.2802 36.8433 82.5924 38.3295C82.9046 39.8158 83 41.6902 83 44.7627V44.7633V44.7638ZM82.4494 44.7638V44.7633V44.7627C82.4494 41.7049 82.3505 39.8716 82.0566 38.4724C81.7626 37.0732 81.2768 36.0875 80.4575 34.6758C78.8736 31.9467 74.2806 28.0389 72.4186 26.99C71.4061 26.4197 70.8547 25.7459 70.1273 25.2046C69.3999 24.6633 68.4768 24.2111 66.6344 24.0291C63.0493 23.6747 59.6807 25.5621 54.1499 24.5113C54.1223 24.8825 54.0946 25.2545 54.0527 25.6232C54.0352 25.778 54.0277 25.9135 54.0097 26.0673C56.5294 26.8178 58.0898 27.5255 59.3562 28.0378C60.6709 28.5696 61.7109 28.8969 63.4247 28.8969C65.2157 28.8969 67.075 29.3902 68.2441 29.856C68.5364 29.9725 68.7857 30.0868 68.9835 30.1954C69.1814 30.304 69.3218 30.3878 69.4374 30.5301C69.4952 30.6012 69.5812 30.7307 69.5351 30.9174C69.4889 31.104 69.3517 31.1675 69.2648 31.1942C69.0911 31.2475 68.9119 31.2346 68.6314 31.1999C66.5567 30.9436 64.5032 31.4543 64.5032 31.4543L64.3949 31.4819L64.3001 31.4168C64.3001 31.4168 63.9056 31.1484 63.4386 30.9867C63.205 30.9058 62.957 30.8551 62.7491 30.8689C62.6109 30.8781 62.5226 30.958 62.4243 31.0232L62.4535 31.0894L62.4331 31.1155C62.5198 31.3393 62.6044 31.5705 62.6723 31.8474L62.6765 31.85L62.7066 31.9861C62.7266 32.076 62.7467 32.1692 62.7658 32.2676L62.7991 32.438L62.7913 32.4464C62.8662 32.8534 62.9136 33.3698 62.9652 33.8575L62.9976 33.8804L63.012 34.029C63.0252 34.1629 63.038 34.2999 63.0499 34.4387L63.0661 34.6306L63.0337 34.653C63.0716 35.1264 63.128 35.524 63.1545 36.0537L63.1568 36.0553L63.1596 36.1178C63.1601 36.1271 63.1615 36.133 63.162 36.1423C63.1627 36.1553 63.1622 36.1721 63.1629 36.1851L63.1653 36.2299C63.1688 36.3015 63.1716 36.3732 63.1746 36.441L63.182 36.6063L63.1741 36.6125C63.1991 37.2064 63.2096 37.8734 63.2236 38.5204L63.2403 38.5334L63.2435 38.6924C63.248 38.9198 63.2515 39.1494 63.2551 39.3816L63.2574 39.5176L63.2496 39.526C63.2592 40.2059 63.2679 40.9072 63.2713 41.6257L63.2755 41.6299L63.276 41.7644C63.2764 41.8799 63.2771 41.9968 63.2774 42.1136L63.2778 42.2497L63.2732 42.2544C63.2754 42.9652 63.2801 43.6553 63.2802 44.3901C63.2802 44.5185 63.2816 44.6344 63.2816 44.7633C63.2816 44.8921 63.2802 45.0078 63.2802 45.136C63.2801 45.8709 63.2753 46.5609 63.2732 47.2718L63.2778 47.2764L63.2774 47.4125C63.2771 47.5293 63.2764 47.6465 63.276 47.7618L63.2755 47.8963L63.2713 47.9004C63.2679 48.619 63.2592 49.3202 63.2496 50.0002L63.2574 50.0085L63.2551 50.1445C63.2515 50.3768 63.248 50.6063 63.2435 50.8337L63.2403 50.9927L63.2236 51.0057C63.2095 51.6528 63.1991 52.3201 63.1741 52.9141L63.182 52.9204L63.1746 53.0856C63.1716 53.1531 63.1688 53.2253 63.1653 53.2967L63.1629 53.3411C63.1622 53.3542 63.1627 53.3712 63.162 53.3843C63.1615 53.3939 63.1601 53.3998 63.1596 53.4093L63.1568 53.4708L63.1545 53.4724C63.128 54.0024 63.0716 54.4 63.0337 54.8737L63.0661 54.8961L63.0499 55.0879C63.038 55.2268 63.0252 55.3635 63.012 55.4976L62.9976 55.6462L62.9652 55.6691C62.9136 56.1566 62.8662 56.6729 62.7913 57.0797L62.7991 57.0881L62.7658 57.2585C62.7467 57.3569 62.7266 57.4501 62.7066 57.54L62.6765 57.6761L62.6723 57.6782C62.6044 57.9553 62.5198 58.1867 62.4331 58.4106L62.4535 58.4367L62.4243 58.5029C62.5226 58.5681 62.6109 58.648 62.7491 58.6572C62.9571 58.6709 63.205 58.6202 63.4386 58.5394C63.9056 58.3777 64.3001 58.1098 64.3001 58.1098L64.3949 58.0447L64.5032 58.0718C64.5032 58.0718 66.557 58.5826 68.6319 58.3262C68.9123 58.2915 69.0911 58.2785 69.2648 58.3319C69.3517 58.3586 69.4889 58.4226 69.5351 58.6092C69.5812 58.7958 69.4952 58.9249 69.4374 58.996C69.3218 59.1383 69.1814 59.2221 68.9835 59.3307C68.7857 59.4393 68.5364 59.5541 68.2441 59.6706C67.075 60.1363 65.2157 60.6292 63.4247 60.6292C61.7109 60.6292 60.6709 60.9565 59.3562 61.4883C58.0898 62.0005 56.5294 62.7088 54.0097 63.4593C54.0278 63.6131 54.0352 63.7485 54.0527 63.9034C54.0946 64.2721 54.1223 64.6441 54.1499 65.0153C59.6807 63.9644 63.0493 65.8517 66.6344 65.4975C68.4768 65.3153 69.3999 64.8628 70.1273 64.3215C70.8547 63.7802 71.4061 63.1063 72.4186 62.5361C74.2806 61.4872 78.8736 57.5794 80.4575 54.8502C81.2768 53.4385 81.7626 52.4533 82.0566 51.0542C82.3505 49.6551 82.4494 47.8216 82.4494 44.7638ZM68.3357 58.9595C66.3567 59.1278 64.6117 58.7271 64.4778 58.6941C64.3952 58.7491 64.0863 58.9642 63.6 59.1325C63.3268 59.2271 63.0234 59.2967 62.7167 59.2764C62.5132 59.2629 62.3131 59.1799 62.1263 59.0575C62.0043 59.235 61.868 59.3862 61.7002 59.4807C61.4093 59.6447 61.0572 59.6273 60.723 59.4531C59.6278 58.8822 58.2239 58.0473 56.9663 57.6974C56.3376 57.5225 55.7518 57.4719 55.2692 57.6083C54.7866 57.7447 54.3974 58.0482 54.0981 58.6649C53.6178 59.6548 53.7623 61.199 53.9486 62.8321C56.3816 62.1014 57.9003 61.418 59.1702 60.9044C60.5054 60.3643 61.6472 60.0088 63.4247 60.0088C65.1248 60.0088 66.951 59.5278 68.0609 59.0856C68.1729 59.041 68.2394 59.0025 68.3357 58.9595ZM68.3353 30.5671C68.2391 30.5241 68.1727 30.4855 68.0609 30.4409C66.951 29.9987 65.1248 29.5177 63.4247 29.5177C61.6472 29.5177 60.5054 29.1623 59.1702 28.6222C57.9003 28.1085 56.3816 27.4247 53.9486 26.6939C53.7622 28.3272 53.6177 29.8716 54.0981 30.8616C54.3974 31.4784 54.7865 31.7813 55.2692 31.9177C55.7518 32.0542 56.3375 32.004 56.9663 31.8291C58.2239 31.4793 59.6278 30.6438 60.723 30.0729C61.0572 29.8986 61.4092 29.8814 61.7002 30.0453C61.868 30.1398 62.0038 30.2917 62.1259 30.4691C62.3128 30.3464 62.513 30.2631 62.7167 30.2496C63.0234 30.2293 63.3268 30.2989 63.6 30.3935C64.086 30.5618 64.3943 30.7767 64.4773 30.8319C64.6107 30.799 66.3561 30.3989 68.3353 30.5671ZM62.7292 44.904V44.7638V44.7633V44.7627V44.622C62.4259 44.2601 62.2161 43.8173 62.2161 43.3188C62.2161 42.825 62.4229 42.3862 62.7214 42.026C62.7212 41.9693 62.7211 41.9114 62.7209 41.855C62.4227 41.4949 62.2161 41.0567 62.2161 40.5633C62.2161 40.0861 62.4123 39.6628 62.6927 39.3106C62.6899 39.1336 62.6826 38.9781 62.6793 38.8044C62.3222 38.4737 62.0597 38.0522 62.0597 37.5518C62.0597 37.0906 62.2865 36.6954 62.5978 36.3747C62.2424 36.109 61.9658 35.7657 61.9658 35.3207C61.9658 34.9413 62.177 34.6377 62.4502 34.3876C62.4428 34.3099 62.4368 34.2266 62.4289 34.1509C62.1284 33.8731 61.901 33.5205 61.901 33.0917C61.901 32.7895 62.0222 32.5244 62.186 32.2925C62.1806 32.2664 62.1758 32.2373 62.1703 32.2117C61.9151 32.0189 61.7067 31.765 61.7067 31.4194C61.7067 31.2966 61.778 31.2065 61.8219 31.1009C61.6992 30.8557 61.5707 30.6662 61.454 30.6004C61.3196 30.5247 61.1825 30.5174 60.9543 30.6364C59.8838 31.1945 58.459 32.0526 57.0982 32.4312C56.4178 32.6205 55.7474 32.6929 55.135 32.5198C54.5225 32.3467 53.978 31.9082 53.6145 31.1592C52.9972 29.8869 53.1967 28.2114 53.4059 26.5208L53.3915 26.5167L53.4244 26.2435C53.4964 25.6454 53.5568 25.052 53.5997 24.4685C53.6078 24.3572 53.6231 24.2412 53.6289 24.1313C53.7065 22.6583 53.5628 21.3232 52.7525 20.3723C50.9442 18.2501 47.0149 17.3857 43.9367 18.3737L43.8618 18.3977L43.7864 18.3737C42.1474 17.8509 40.3848 17.7297 38.9267 17.966C37.4783 18.2008 36.356 18.8038 35.9154 19.5977L35.8372 19.8614L35.6031 19.7566C35.5808 19.7508 35.5592 19.7419 35.5388 19.7301C33.495 18.8237 31.1463 18.3233 28.4577 18.4279C22.9365 18.6423 18.3913 22.3225 15.2102 27.4175C12.029 32.5125 10.2336 39.0147 10.2334 44.7627V44.7633V44.7638C10.2336 50.5117 12.029 57.0141 15.2102 62.1091C18.3913 67.2041 22.9365 70.8836 28.4577 71.0981C31.1582 71.203 33.5169 70.6996 35.567 69.7855L35.8317 69.6672L35.914 69.9263C36.3539 70.7212 37.4771 71.3256 38.9267 71.5605C40.3848 71.7969 42.1474 71.6752 43.7864 71.1524L43.8618 71.1284L43.9367 71.1524C47.0149 72.1405 50.9442 71.2764 52.7525 69.1543C53.6232 68.1324 53.7163 66.6612 53.5997 65.0575C53.5568 64.4741 53.4964 63.8809 53.4244 63.2825L53.3915 63.0093L53.4059 63.0052C53.1967 61.3146 52.9972 59.6396 53.6145 58.3673C53.978 57.6183 54.5225 57.1793 55.135 57.0062C55.7474 56.8331 56.4178 56.9055 57.0982 57.0948C58.459 57.4735 59.8838 58.3321 60.9543 58.8901C61.1825 59.009 61.3195 59.0014 61.454 58.9256C61.5708 58.8598 61.6992 58.6704 61.8219 58.4252C61.7781 58.3196 61.7067 58.2293 61.7067 58.1067C61.7067 57.7609 61.915 57.5072 62.1703 57.3143C62.1758 57.2888 62.1806 57.2596 62.186 57.2335C62.0222 57.0017 61.901 56.7365 61.901 56.4344C61.901 56.0057 62.1283 55.6533 62.4289 55.3756C62.4368 55.3 62.4427 55.2166 62.4502 55.139C62.1771 54.8887 61.9658 54.5846 61.9658 54.2054C61.9658 53.7603 62.2423 53.4171 62.5978 53.1513C62.2866 52.8305 62.0597 52.4356 62.0597 51.9742C62.0597 51.4737 62.3225 51.0524 62.6797 50.7216C62.6831 50.548 62.6899 50.3924 62.6927 50.2154C62.4123 49.8632 62.2161 49.4403 62.2161 48.9633C62.2161 48.4698 62.4227 48.0312 62.7209 47.671C62.7211 47.6146 62.7211 47.5567 62.7214 47.5C62.4229 47.1398 62.2161 46.701 62.2161 46.2073C62.2161 45.7089 62.4259 45.266 62.7292 44.904ZM62.651 51.8283C62.6426 51.8775 62.6108 51.9246 62.6108 51.9742C62.6108 52.0182 62.6376 52.0599 62.6441 52.1035C62.647 52.0146 62.6484 51.9183 62.651 51.8283ZM62.651 37.6978C62.6484 37.6079 62.6465 37.5118 62.6436 37.423C62.6372 37.4664 62.6108 37.5081 62.6108 37.5518C62.6108 37.6014 62.6426 37.6486 62.651 37.6978ZM62.5404 54.1412C62.5374 54.1618 62.5164 54.1855 62.5164 54.2053C62.5164 54.2188 62.5294 54.2348 62.5307 54.2486C62.5334 54.2102 62.5378 54.1799 62.5404 54.1412ZM62.5404 35.3848C62.5378 35.3463 62.5334 35.3161 62.5307 35.278C62.5293 35.2916 62.5164 35.3073 62.5164 35.3207C62.5164 35.3405 62.5374 35.3642 62.5404 35.3848Z" fill="black" fill-opacity="0.995516"/>
<path d="M83 44.7638C83 47.8364 82.9046 49.7108 82.5924 51.197C82.2801 52.6832 81.7476 53.7606 80.9183 55.1895C79.2051 58.1416 74.6827 61.9547 72.6652 63.0912C71.7381 63.6133 71.2227 64.2503 70.4308 64.8396C69.639 65.4288 68.5903 65.9266 66.683 66.1152H66.6825C62.8884 66.49 59.6079 64.5879 54.1841 65.6356C54.2356 67.1039 54.0579 68.5182 53.15 69.5838C51.1404 71.9422 47.1231 72.7819 43.8632 71.768C42.1679 72.2963 40.3724 72.4216 38.8485 72.1746C37.408 71.9411 36.2154 71.3751 35.586 70.4324C33.5075 71.3282 31.1339 71.8231 28.4387 71.7185C22.7109 71.4959 18.0112 67.674 14.7595 62.4662C11.5079 57.2583 9.68258 50.6567 9.68234 44.7638V44.7633V44.7627C9.68258 38.8697 11.5079 32.2683 14.7595 27.0604C18.0112 21.8525 22.7109 18.0305 28.4387 17.8081C31.1339 17.7032 33.5075 18.1979 35.586 19.0936C36.2154 18.1509 37.408 17.5849 38.8485 17.3514C40.3724 17.1044 42.1679 17.2298 43.8632 17.758C47.1231 16.7443 51.1404 17.5838 53.15 19.9422C54.0579 21.0078 54.2357 22.4227 54.1841 23.891C59.6077 24.9386 62.8886 23.036 66.6825 23.4109H66.683C68.5899 23.5993 69.639 24.0978 70.4308 24.687C71.2227 25.2762 71.7381 25.9127 72.6652 26.4348C74.6827 27.5713 79.2051 31.3844 80.9183 34.3365C81.7476 35.7654 82.2802 36.8433 82.5924 38.3295C82.9046 39.8158 83 41.6902 83 44.7627V44.7633V44.7638ZM82.4494 44.7638V44.7633V44.7627C82.4494 41.7049 82.3505 39.8716 82.0566 38.4724C81.7626 37.0732 81.2768 36.0875 80.4575 34.6758C78.8736 31.9467 74.2806 28.0389 72.4186 26.99C71.4061 26.4197 70.8547 25.7459 70.1273 25.2046C69.3999 24.6633 68.4768 24.2111 66.6344 24.0291C63.0493 23.6747 59.6807 25.5621 54.1499 24.5113C54.1223 24.8825 54.0946 25.2545 54.0527 25.6232C54.0352 25.778 54.0277 25.9135 54.0097 26.0673C56.5294 26.8178 58.0898 27.5255 59.3562 28.0378C60.6709 28.5696 61.7109 28.8969 63.4247 28.8969C65.2157 28.8969 67.075 29.3902 68.2441 29.856C68.5364 29.9725 68.7857 30.0868 68.9835 30.1954C69.1814 30.304 69.3218 30.3878 69.4374 30.5301C69.4952 30.6012 69.5812 30.7307 69.5351 30.9174C69.4889 31.104 69.3517 31.1675 69.2648 31.1942C69.0911 31.2475 68.9119 31.2346 68.6314 31.1999C66.5567 30.9436 64.5032 31.4543 64.5032 31.4543L64.3949 31.4819L64.3001 31.4168C64.3001 31.4168 63.9056 31.1484 63.4386 30.9867C63.205 30.9058 62.957 30.8551 62.7491 30.8689C62.6109 30.8781 62.5226 30.958 62.4243 31.0232L62.4535 31.0894L62.4331 31.1155C62.5198 31.3393 62.6044 31.5705 62.6723 31.8474L62.6765 31.85L62.7066 31.9861C62.7266 32.076 62.7467 32.1692 62.7658 32.2676L62.7991 32.438L62.7913 32.4464C62.8662 32.8534 62.9136 33.3698 62.9652 33.8575L62.9976 33.8804L63.012 34.029C63.0252 34.1629 63.038 34.2999 63.0499 34.4387L63.0661 34.6306L63.0337 34.653C63.0716 35.1264 63.128 35.524 63.1545 36.0537L63.1568 36.0553L63.1596 36.1178C63.1601 36.1271 63.1615 36.133 63.162 36.1423C63.1627 36.1553 63.1622 36.1721 63.1629 36.1851L63.1653 36.2299C63.1688 36.3015 63.1716 36.3732 63.1746 36.441L63.182 36.6063L63.1741 36.6125C63.1991 37.2064 63.2096 37.8734 63.2236 38.5204L63.2403 38.5334L63.2435 38.6924C63.248 38.9198 63.2515 39.1494 63.2551 39.3816L63.2574 39.5176L63.2496 39.526C63.2592 40.2059 63.2679 40.9072 63.2713 41.6257L63.2755 41.6299L63.276 41.7644C63.2764 41.8799 63.2771 41.9968 63.2774 42.1136L63.2778 42.2497L63.2732 42.2544C63.2754 42.9652 63.2801 43.6553 63.2802 44.3901C63.2802 44.5185 63.2816 44.6344 63.2816 44.7633C63.2816 44.8921 63.2802 45.0078 63.2802 45.136C63.2801 45.8709 63.2753 46.5609 63.2732 47.2718L63.2778 47.2764L63.2774 47.4125C63.2771 47.5293 63.2764 47.6465 63.276 47.7618L63.2755 47.8963L63.2713 47.9004C63.2679 48.619 63.2592 49.3202 63.2496 50.0002L63.2574 50.0085L63.2551 50.1445C63.2515 50.3768 63.248 50.6063 63.2435 50.8337L63.2403 50.9927L63.2236 51.0057C63.2095 51.6528 63.1991 52.3201 63.1741 52.9141L63.182 52.9204L63.1746 53.0856C63.1716 53.1531 63.1688 53.2253 63.1653 53.2967L63.1629 53.3411C63.1622 53.3542 63.1627 53.3712 63.162 53.3843C63.1615 53.3939 63.1601 53.3998 63.1596 53.4093L63.1568 53.4708L63.1545 53.4724C63.128 54.0024 63.0716 54.4 63.0337 54.8737L63.0661 54.8961L63.0499 55.0879C63.038 55.2268 63.0252 55.3635 63.012 55.4976L62.9976 55.6462L62.9652 55.6691C62.9136 56.1566 62.8662 56.6729 62.7913 57.0797L62.7991 57.0881L62.7658 57.2585C62.7467 57.3569 62.7266 57.4501 62.7066 57.54L62.6765 57.6761L62.6723 57.6782C62.6044 57.9553 62.5198 58.1867 62.4331 58.4106L62.4535 58.4367L62.4243 58.5029C62.5226 58.5681 62.6109 58.648 62.7491 58.6572C62.9571 58.6709 63.205 58.6202 63.4386 58.5394C63.9056 58.3777 64.3001 58.1098 64.3001 58.1098L64.3949 58.0447L64.5032 58.0718C64.5032 58.0718 66.557 58.5826 68.6319 58.3262C68.9123 58.2915 69.0911 58.2785 69.2648 58.3319C69.3517 58.3586 69.4889 58.4226 69.5351 58.6092C69.5812 58.7958 69.4952 58.9249 69.4374 58.996C69.3218 59.1383 69.1814 59.2221 68.9835 59.3307C68.7857 59.4393 68.5364 59.5541 68.2441 59.6706C67.075 60.1363 65.2157 60.6292 63.4247 60.6292C61.7109 60.6292 60.6709 60.9565 59.3562 61.4883C58.0898 62.0005 56.5294 62.7088 54.0097 63.4593C54.0278 63.6131 54.0352 63.7485 54.0527 63.9034C54.0946 64.2721 54.1223 64.6441 54.1499 65.0153C59.6807 63.9644 63.0493 65.8517 66.6344 65.4975C68.4768 65.3153 69.3999 64.8628 70.1273 64.3215C70.8547 63.7802 71.4061 63.1063 72.4186 62.5361C74.2806 61.4872 78.8736 57.5794 80.4575 54.8502C81.2768 53.4385 81.7626 52.4533 82.0566 51.0542C82.3505 49.6551 82.4494 47.8216 82.4494 44.7638ZM68.3357 58.9595C66.3567 59.1278 64.6117 58.7271 64.4778 58.6941C64.3952 58.7491 64.0863 58.9642 63.6 59.1325C63.3268 59.2271 63.0234 59.2967 62.7167 59.2764C62.5132 59.2629 62.3131 59.1799 62.1263 59.0575C62.0043 59.235 61.868 59.3862 61.7002 59.4807C61.4093 59.6447 61.0572 59.6273 60.723 59.4531C59.6278 58.8822 58.2239 58.0473 56.9663 57.6974C56.3376 57.5225 55.7518 57.4719 55.2692 57.6083C54.7866 57.7447 54.3974 58.0482 54.0981 58.6649C53.6178 59.6548 53.7623 61.199 53.9486 62.8321C56.3816 62.1014 57.9003 61.418 59.1702 60.9044C60.5054 60.3643 61.6472 60.0088 63.4247 60.0088C65.1248 60.0088 66.951 59.5278 68.0609 59.0856C68.1729 59.041 68.2394 59.0025 68.3357 58.9595ZM68.3353 30.5671C68.2391 30.5241 68.1727 30.4855 68.0609 30.4409C66.951 29.9987 65.1248 29.5177 63.4247 29.5177C61.6472 29.5177 60.5054 29.1623 59.1702 28.6222C57.9003 28.1085 56.3816 27.4247 53.9486 26.6939C53.7622 28.3272 53.6177 29.8716 54.0981 30.8616C54.3974 31.4784 54.7865 31.7813 55.2692 31.9177C55.7518 32.0542 56.3375 32.004 56.9663 31.8291C58.2239 31.4793 59.6278 30.6438 60.723 30.0729C61.0572 29.8986 61.4092 29.8814 61.7002 30.0453C61.868 30.1398 62.0038 30.2917 62.1259 30.4691C62.3128 30.3464 62.513 30.2631 62.7167 30.2496C63.0234 30.2293 63.3268 30.2989 63.6 30.3935C64.086 30.5618 64.3943 30.7767 64.4773 30.8319C64.6107 30.799 66.3561 30.3989 68.3353 30.5671ZM62.7292 44.904V44.7638V44.7633V44.7627V44.622C62.4259 44.2601 62.2161 43.8173 62.2161 43.3188C62.2161 42.825 62.4229 42.3862 62.7214 42.026C62.7212 41.9693 62.7211 41.9114 62.7209 41.855C62.4227 41.4949 62.2161 41.0567 62.2161 40.5633C62.2161 40.0861 62.4123 39.6628 62.6927 39.3106C62.6899 39.1336 62.6826 38.9781 62.6793 38.8044C62.3222 38.4737 62.0597 38.0522 62.0597 37.5518C62.0597 37.0906 62.2865 36.6954 62.5978 36.3747C62.2424 36.109 61.9658 35.7657 61.9658 35.3207C61.9658 34.9413 62.177 34.6377 62.4502 34.3876C62.4428 34.3099 62.4368 34.2266 62.4289 34.1509C62.1284 33.8731 61.901 33.5205 61.901 33.0917C61.901 32.7895 62.0222 32.5244 62.186 32.2925C62.1806 32.2664 62.1758 32.2373 62.1703 32.2117C61.9151 32.0189 61.7067 31.765 61.7067 31.4194C61.7067 31.2966 61.778 31.2065 61.8219 31.1009C61.6992 30.8557 61.5707 30.6662 61.454 30.6004C61.3196 30.5247 61.1825 30.5174 60.9543 30.6364C59.8838 31.1945 58.459 32.0526 57.0982 32.4312C56.4178 32.6205 55.7474 32.6929 55.135 32.5198C54.5225 32.3467 53.978 31.9082 53.6145 31.1592C52.9972 29.8869 53.1967 28.2114 53.4059 26.5208L53.3915 26.5167L53.4244 26.2435C53.4964 25.6454 53.5568 25.052 53.5997 24.4685C53.6078 24.3572 53.6231 24.2412 53.6289 24.1313C53.7065 22.6583 53.5628 21.3232 52.7525 20.3723C50.9442 18.2501 47.0149 17.3857 43.9367 18.3737L43.8618 18.3977L43.7864 18.3737C42.1474 17.8509 40.3848 17.7297 38.9267 17.966C37.4783 18.2008 36.356 18.8038 35.9154 19.5977L35.8372 19.8614L35.6031 19.7566C35.5808 19.7508 35.5592 19.7419 35.5388 19.7301C33.495 18.8237 31.1463 18.3233 28.4577 18.4279C22.9365 18.6423 18.3913 22.3225 15.2102 27.4175C12.029 32.5125 10.2336 39.0147 10.2334 44.7627V44.7633V44.7638C10.2336 50.5117 12.029 57.0141 15.2102 62.1091C18.3913 67.2041 22.9365 70.8836 28.4577 71.0981C31.1582 71.203 33.5169 70.6996 35.567 69.7855L35.8317 69.6672L35.914 69.9263C36.3539 70.7212 37.4771 71.3256 38.9267 71.5605C40.3848 71.7969 42.1474 71.6752 43.7864 71.1524L43.8618 71.1284L43.9367 71.1524C47.0149 72.1405 50.9442 71.2764 52.7525 69.1543C53.6232 68.1324 53.7163 66.6612 53.5997 65.0575C53.5568 64.4741 53.4964 63.8809 53.4244 63.2825L53.3915 63.0093L53.4059 63.0052C53.1967 61.3146 52.9972 59.6396 53.6145 58.3673C53.978 57.6183 54.5225 57.1793 55.135 57.0062C55.7474 56.8331 56.4178 56.9055 57.0982 57.0948C58.459 57.4735 59.8838 58.3321 60.9543 58.8901C61.1825 59.009 61.3195 59.0014 61.454 58.9256C61.5708 58.8598 61.6992 58.6704 61.8219 58.4252C61.7781 58.3196 61.7067 58.2293 61.7067 58.1067C61.7067 57.7609 61.915 57.5072 62.1703 57.3143C62.1758 57.2888 62.1806 57.2596 62.186 57.2335C62.0222 57.0017 61.901 56.7365 61.901 56.4344C61.901 56.0057 62.1283 55.6533 62.4289 55.3756C62.4368 55.3 62.4427 55.2166 62.4502 55.139C62.1771 54.8887 61.9658 54.5846 61.9658 54.2054C61.9658 53.7603 62.2423 53.4171 62.5978 53.1513C62.2866 52.8305 62.0597 52.4356 62.0597 51.9742C62.0597 51.4737 62.3225 51.0524 62.6797 50.7216C62.6831 50.548 62.6899 50.3924 62.6927 50.2154C62.4123 49.8632 62.2161 49.4403 62.2161 48.9633C62.2161 48.4698 62.4227 48.0312 62.7209 47.671C62.7211 47.6146 62.7211 47.5567 62.7214 47.5C62.4229 47.1398 62.2161 46.701 62.2161 46.2073C62.2161 45.7089 62.4259 45.266 62.7292 44.904ZM62.651 51.8283C62.6426 51.8775 62.6108 51.9246 62.6108 51.9742C62.6108 52.0182 62.6376 52.0599 62.6441 52.1035C62.647 52.0146 62.6484 51.9183 62.651 51.8283ZM62.651 37.6978C62.6484 37.6079 62.6465 37.5118 62.6436 37.423C62.6372 37.4664 62.6108 37.5081 62.6108 37.5518C62.6108 37.6014 62.6426 37.6486 62.651 37.6978ZM62.5404 54.1412C62.5374 54.1618 62.5164 54.1855 62.5164 54.2053C62.5164 54.2188 62.5294 54.2348 62.5307 54.2486C62.5334 54.2102 62.5378 54.1799 62.5404 54.1412ZM62.5404 35.3848C62.5378 35.3463 62.5334 35.3161 62.5307 35.278C62.5293 35.2916 62.5164 35.3073 62.5164 35.3207C62.5164 35.3405 62.5374 35.3642 62.5404 35.3848Z" stroke="black" stroke-opacity="0.990476" stroke-width="0.878906" stroke-linecap="round"/>
</g>
<path d="M53.9068 24.1621C53.8689 24.8603 53.7827 25.5774 53.6974 26.2852C59.0608 27.8415 59.9336 29.2072 63.4248 29.2072C66.916 29.2072 70.7953 31.1553 68.6617 30.8914C66.5282 30.6277 64.4432 31.1516 64.4432 31.1516C64.4432 31.1516 62.7747 30.0079 62.0574 30.8914H62.0567C63.005 32.7647 63.006 38.4395 63.006 44.7624C63.006 51.0849 63.0051 56.76 62.0567 58.6334H62.0574C62.7747 59.5168 64.4432 58.3734 64.4432 58.3734C64.4432 58.3734 66.5282 58.897 68.6617 58.6334C70.7953 58.3697 66.916 60.3174 63.4248 60.3174C59.9336 60.3174 59.0608 61.6832 53.6974 63.2395C53.7827 63.9475 53.8689 64.6644 53.9068 65.3626C59.547 64.196 62.9088 66.1754 66.6587 65.8049C70.4084 65.4342 70.6024 63.9046 72.5419 62.8122C74.4817 61.7195 79.0394 57.859 80.688 55.0184C82.3366 52.1779 82.7247 50.8927 82.7247 44.7623C82.7247 38.6319 82.3366 37.3465 80.688 34.5059C79.0394 31.6654 74.4817 27.8049 72.5419 26.7123C70.6024 25.6198 70.4084 24.0903 66.6587 23.7198C62.9088 23.3491 59.547 25.3284 53.9068 24.1618" fill="#CCC1B3"/>
<path d="M53.9068 24.1621C53.8689 24.8603 53.7827 25.5774 53.6974 26.2852C59.0608 27.8415 59.9336 29.2072 63.4248 29.2072C66.916 29.2072 70.7953 31.1553 68.6617 30.8914C66.5282 30.6277 64.4432 31.1516 64.4432 31.1516C64.4432 31.1516 62.7747 30.0079 62.0574 30.8914H62.0567C63.005 32.7647 63.006 38.4395 63.006 44.7624C63.006 51.0849 63.0051 56.76 62.0567 58.6334H62.0574C62.7747 59.5168 64.4432 58.3734 64.4432 58.3734C64.4432 58.3734 66.5282 58.897 68.6617 58.6334C70.7953 58.3697 66.916 60.3174 63.4248 60.3174C59.9336 60.3174 59.0608 61.6832 53.6974 63.2395C53.7827 63.9475 53.8689 64.6644 53.9068 65.3626C59.547 64.196 62.9088 66.1754 66.6587 65.8049C70.4084 65.4342 70.6024 63.9046 72.5419 62.8122C74.4817 61.7195 79.0394 57.859 80.688 55.0184C82.3366 52.1779 82.7247 50.8927 82.7247 44.7623C82.7247 38.6319 82.3366 37.3465 80.688 34.5059C79.0394 31.6654 74.4817 27.8049 72.5419 26.7123C70.6024 25.6198 70.4084 24.0903 66.6587 23.7198C62.9088 23.3491 59.547 25.3284 53.9068 24.1618" stroke="black" stroke-opacity="0.861905" stroke-width="0.351562" stroke-linecap="round"/>
<path d="M62.9678 50.8269C62.5764 51.129 62.3352 51.5307 62.3352 51.9743C62.3352 52.3922 62.5477 52.7742 62.8993 53.0702C63.1912 53.3808 65.6592 53.3175 65.6627 53.3173L65.6643 53.3072C65.7662 52.7134 65.8638 52.0912 65.9541 51.4512L66.082 50.6313L66.0645 50.6287C65.8593 50.6023 63.7469 50.3463 62.9677 50.8265" fill="#EEEDEB"/>
<path d="M62.9678 50.8269C62.5764 51.129 62.3352 51.5307 62.3352 51.9743C62.3352 52.3922 62.5477 52.7742 62.8993 53.0702C63.1912 53.3808 65.6592 53.3175 65.6627 53.3173L65.6643 53.3072C65.7662 52.7134 65.8638 52.0912 65.9541 51.4512L66.082 50.6313L66.0645 50.6287C65.8593 50.6023 63.7469 50.3463 62.9677 50.8265" stroke="black" stroke-opacity="0.614286" stroke-width="0.0703125"/>
<g filter="url(#filter3_f_1486_22098)">
<path d="M63.4247 60.3188C66.9159 60.3188 70.7952 58.371 68.6617 58.6347C66.5281 58.8984 64.4432 58.3748 64.4432 58.3748C64.4432 58.3748 62.7747 59.5181 62.0573 58.6347L62.0566 58.6342C61.7562 59.2278 61.3613 59.4434 60.8401 59.1717C58.6742 58.0427 55.1829 55.7845 53.8577 58.5159C53.2714 59.7242 53.4818 61.4526 53.6973 63.2408C59.0608 61.6846 59.9335 60.3188 63.4247 60.3188Z" fill="#2B2926"/>
</g>
<path d="M63.4067 53.2327C63.1577 53.1954 62.94 53.265 62.8903 53.2797C62.4887 53.5217 62.2412 53.8468 62.2412 54.2056C62.2412 54.5288 62.4421 54.825 62.7756 55.058C63.4726 55.5838 65.2806 55.3086 65.2846 55.3078H65.2851L65.2917 55.2742C65.364 54.9286 65.436 54.5656 65.5073 54.1847L65.6627 53.3993L65.6485 53.3967C65.6533 53.3697 65.658 53.3436 65.6627 53.3163C65.6614 53.3163 65.306 53.3256 64.8497 53.3199C64.3844 53.2791 63.8147 53.2369 63.4067 53.2316" fill="#EEEDEB"/>
<path d="M63.4067 53.2327C63.1577 53.1954 62.94 53.265 62.8903 53.2797C62.4887 53.5217 62.2412 53.8468 62.2412 54.2056C62.2412 54.5288 62.4421 54.825 62.7756 55.058C63.4726 55.5838 65.2806 55.3086 65.2846 55.3078H65.2851L65.2917 55.2742C65.364 54.9286 65.436 54.5656 65.5073 54.1847L65.6627 53.3993L65.6485 53.3967C65.6533 53.3697 65.658 53.3436 65.6627 53.3163C65.6614 53.3163 65.306 53.3256 64.8497 53.3199C64.3844 53.2791 63.8147 53.2369 63.4067 53.2316" stroke="black" stroke-opacity="0.614286" stroke-width="0.0703125"/>
<path d="M63.0044 44.7642C62.6848 45.0973 62.4913 45.7518 62.4913 46.2074C62.4913 46.6622 62.6829 47.0796 63.0016 47.4116C63.8596 47.9443 66.3516 47.753 66.3606 47.7522H66.361L66.3615 47.739C66.4383 46.7245 66.483 45.7188 66.483 44.7628L63.0044 44.7654" fill="#EEEDEB"/>
<path d="M63.0044 44.7642C62.6848 45.0973 62.4913 45.7518 62.4913 46.2074C62.4913 46.6622 62.6829 47.0796 63.0016 47.4116C63.8596 47.9443 66.3516 47.753 66.3606 47.7522H66.361L66.3615 47.739C66.4383 46.7245 66.483 45.7188 66.483 44.7628L63.0044 44.7654" stroke="black" stroke-opacity="0.614286" stroke-width="0.0703125"/>
<path d="M64.5204 55.3748C64.3832 55.3748 64.2356 55.3774 64.0852 55.3782C63.5604 55.3856 63.0028 55.4075 62.7384 55.4633C62.6318 55.4857 62.1762 55.83 62.1762 56.4343C62.1762 56.7156 62.2956 56.9758 62.4967 57.192C63.0205 57.678 64.8056 57.3049 64.807 57.3046L64.8077 57.3018C64.9532 56.7827 65.1102 56.132 65.268 55.3857L65.2694 55.3803C65.2746 55.356 65.2793 55.3323 65.2845 55.3077C65.2829 55.3077 64.9522 55.358 64.5204 55.3748Z" fill="#EEEDEB" stroke="black" stroke-opacity="0.614286" stroke-width="0.0703125"/>
<path d="M63.0004 47.7602C62.6825 48.0919 62.4913 48.5091 62.4913 48.9634C62.4913 49.4062 62.6754 49.8118 62.9795 50.1391C64.1991 50.5124 66.0775 50.4919 66.082 50.4919C66.1903 49.6295 66.2824 48.7472 66.3511 47.8699C66.3457 47.8699 63.739 47.7119 63.0004 47.7602Z" fill="#EEEDEB" stroke="black" stroke-opacity="0.614286" stroke-width="0.0703125"/>
<path d="M61.9822 58.1065C61.9824 58.2424 62.0343 58.3708 62.1248 58.4861C62.3662 58.7938 62.6455 58.9134 63.2551 58.9134C63.8369 58.9134 64.4431 58.3748 64.4431 58.3748C64.5331 58.1834 64.6374 57.8861 64.7497 57.5042C64.749 57.5042 61.9812 57.1238 61.9822 58.1073" fill="#EEEDEB"/>
<path d="M61.9822 58.1065C61.9824 58.2424 62.0343 58.3708 62.1248 58.4861C62.3662 58.7938 62.6455 58.9134 63.2551 58.9134C63.8369 58.9134 64.4431 58.3748 64.4431 58.3748C64.5331 58.1834 64.6374 57.8861 64.7497 57.5042C64.749 57.5042 61.9812 57.1238 61.9822 58.1073" stroke="black" stroke-opacity="0.614286" stroke-width="0.0703125"/>
<path d="M63.0044 44.7619C62.6848 44.4291 62.4913 43.7744 62.4913 43.3188C62.4913 42.864 62.6829 42.4465 63.0016 42.1145C63.8596 41.5818 66.3516 41.7734 66.3606 41.774H66.361L66.3615 41.7871C66.4383 42.8016 66.483 43.8073 66.483 44.7636L63.0044 44.761" fill="#EEEDEB"/>
<path d="M63.0044 44.7619C62.6848 44.4291 62.4913 43.7744 62.4913 43.3188C62.4913 42.864 62.6829 42.4465 63.0016 42.1145C63.8596 41.5818 66.3516 41.7734 66.3606 41.774H66.361L66.3615 41.7871C66.4383 42.8016 66.483 43.8073 66.483 44.7636L63.0044 44.761" stroke="black" stroke-opacity="0.614286" stroke-width="0.0703125"/>
<path d="M65.2846 55.3078C67.7645 55.6481 69.1949 54.7193 69.0494 54.1458C68.904 53.5722 65.6627 53.3173 65.6627 53.3173L65.2846 55.3078Z" fill="#E7E3DF" stroke="black" stroke-opacity="0.614286" stroke-width="0.0703125"/>
<path d="M65.6627 53.3173C68.7585 53.1625 69.5343 52.7528 69.6312 51.742C69.7284 50.7316 66.082 50.4919 66.082 50.4919L65.6627 53.3173Z" fill="#E7E3DF" stroke="black" stroke-opacity="0.614286" stroke-width="0.0703125"/>
<path d="M66.3616 47.7391C69.4131 47.6996 70.0921 48.519 70.2375 49.3658C70.383 50.2125 66.082 50.4919 66.082 50.4919L66.3616 47.7391Z" fill="#E7E3DF" stroke="black" stroke-opacity="0.614286" stroke-width="0.0703125"/>
<path d="M67.6191 44.7629C70.0191 44.7846 70.6981 45.3506 70.5526 46.6344C70.4071 47.9182 66.3616 47.7391 66.3616 47.7391L66.4831 44.7629C66.4831 44.7629 67.3765 44.7603 67.6191 44.7629Z" fill="#E7E3DF" stroke="black" stroke-opacity="0.614286" stroke-width="0.0703125"/>
<path d="M63.0004 41.7659C62.6825 41.4341 62.4913 41.0173 62.4913 40.563C62.4913 40.1199 62.6754 39.7142 62.9795 39.387C64.1991 39.0136 66.0775 39.0342 66.082 39.0342C66.1903 39.8965 66.2824 40.7789 66.3511 41.6562C66.3457 41.6562 63.739 41.8145 63.0004 41.7659Z" fill="#EEEDEB" stroke="black" stroke-opacity="0.614286" stroke-width="0.0703125"/>
<path d="M62.9678 38.6993C62.5764 38.3972 62.3352 37.9955 62.3352 37.5519C62.3352 37.1342 62.5477 36.752 62.8993 36.4563C63.1912 36.1454 65.6592 36.2089 65.6627 36.2089L65.6643 36.2189C65.7662 36.8128 65.8638 37.4349 65.9541 38.0752L66.082 38.8949L66.0645 38.8974C65.8593 38.9239 63.7469 39.1798 62.9677 38.6997" fill="#EEEDEB"/>
<path d="M62.9678 38.6993C62.5764 38.3972 62.3352 37.9955 62.3352 37.5519C62.3352 37.1342 62.5477 36.752 62.8993 36.4563C63.1912 36.1454 65.6592 36.2089 65.6627 36.2089L65.6643 36.2189C65.7662 36.8128 65.8638 37.4349 65.9541 38.0752L66.082 38.8949L66.0645 38.8974C65.8593 38.9239 63.7469 39.1798 62.9677 38.6997" stroke="black" stroke-opacity="0.614286" stroke-width="0.0703125"/>
<path d="M63.4067 36.2934C63.1577 36.3308 62.94 36.2614 62.8903 36.2467C62.4887 36.0044 62.2412 35.6795 62.2412 35.3208C62.2412 34.9973 62.4421 34.7011 62.7756 34.4684C63.4726 33.9426 65.2806 34.2178 65.2846 34.2183H65.2851L65.2917 34.2522C65.364 34.5975 65.436 34.9608 65.5073 35.3414L65.6627 36.1271L65.6485 36.1297C65.6533 36.1567 65.658 36.1828 65.6627 36.21C65.6614 36.21 65.306 36.201 64.8497 36.2064C64.3844 36.247 63.8147 36.2892 63.4067 36.2945" fill="#EEEDEB"/>
<path d="M63.4067 36.2934C63.1577 36.3308 62.94 36.2614 62.8903 36.2467C62.4887 36.0044 62.2412 35.6795 62.2412 35.3208C62.2412 34.9973 62.4421 34.7011 62.7756 34.4684C63.4726 33.9426 65.2806 34.2178 65.2846 34.2183H65.2851L65.2917 34.2522C65.364 34.5975 65.436 34.9608 65.5073 35.3414L65.6627 36.1271L65.6485 36.1297C65.6533 36.1567 65.658 36.1828 65.6627 36.21C65.6614 36.21 65.306 36.201 64.8497 36.2064C64.3844 36.247 63.8147 36.2892 63.4067 36.2945" stroke="black" stroke-opacity="0.614286" stroke-width="0.0703125"/>
<path d="M64.5204 34.1513C64.3832 34.1513 64.2356 34.1513 64.0852 34.1482C63.5604 34.1407 63.0028 34.1186 62.7384 34.0631C62.6318 34.0406 62.1762 33.6961 62.1762 33.0918C62.1762 32.8105 62.2956 32.5506 62.4967 32.3341C63.0205 31.8481 64.8056 32.2212 64.807 32.2215L64.8077 32.2243C64.9532 32.7434 65.1102 33.3944 65.268 34.1404L65.2694 34.1458C65.2746 34.1701 65.2793 34.1938 65.2845 34.2184C65.2829 34.2181 64.9522 34.1681 64.5204 34.1513Z" fill="#EEEDEB" stroke="black" stroke-opacity="0.614286" stroke-width="0.0703125"/>
<path d="M61.9822 31.4196C61.9824 31.2838 62.0343 31.1557 62.1248 31.0401C62.3662 30.7324 62.6455 30.6131 63.2551 30.6131C63.8369 30.6131 64.4431 31.1517 64.4431 31.1517C64.5331 31.3428 64.6374 31.6401 64.7497 32.022C64.749 32.022 61.9812 32.4021 61.9822 31.4185" fill="#EEEDEB"/>
<path d="M61.9822 31.4196C61.9824 31.2838 62.0343 31.1557 62.1248 31.0401C62.3662 30.7324 62.6455 30.6131 63.2551 30.6131C63.8369 30.6131 64.4431 31.1517 64.4431 31.1517C64.5331 31.3428 64.6374 31.6401 64.7497 32.022C64.749 32.022 61.9812 32.4021 61.9822 31.4185" stroke="black" stroke-opacity="0.614286" stroke-width="0.0703125"/>
<path d="M64.4432 31.1517C66.4069 31.0649 67.2796 31.9513 66.8674 32.0954C66.4554 32.2393 64.75 32.0231 64.75 32.0231L64.4432 31.1517Z" fill="#E7E3DF" stroke="black" stroke-opacity="0.614286" stroke-width="0.0703125"/>
<path d="M64.807 32.2214C66.7946 32.4579 67.9341 33.0042 67.8858 33.605C67.8372 34.2061 65.2846 34.2183 65.2846 34.2183L64.807 32.2214Z" fill="#E7E3DF" stroke="black" stroke-opacity="0.614286" stroke-width="0.0703125"/>
<path d="M65.2846 34.2183C67.7645 33.8783 69.1949 34.8068 69.0494 35.3804C68.904 35.954 65.6627 36.2089 65.6627 36.2089L65.2846 34.2183Z" fill="#E7E3DF" stroke="black" stroke-opacity="0.614286" stroke-width="0.0703125"/>
<path d="M65.6627 36.2088C68.7585 36.3636 69.5343 36.7736 69.6312 37.784C69.7284 38.7948 66.082 39.0342 66.082 39.0342L65.6627 36.2088Z" fill="#E7E3DF" stroke="black" stroke-opacity="0.614286" stroke-width="0.0703125"/>
<path d="M67.6191 44.7634C70.0191 44.7415 70.6981 44.1757 70.5526 42.892C70.4071 41.6082 66.3616 41.787 66.3616 41.787L66.4831 44.7634C66.4831 44.7634 67.3765 44.766 67.6191 44.7634Z" fill="#E7E3DF" stroke="black" stroke-opacity="0.614286" stroke-width="0.0703125"/>
<path d="M66.3616 41.787C69.4131 41.8265 70.0921 41.0072 70.2375 40.1606C70.383 39.3137 66.082 39.0342 66.082 39.0342L66.3616 41.787Z" fill="#E7E3DF" stroke="black" stroke-opacity="0.614286" stroke-width="0.0703125"/>
<path d="M64.807 57.3048C66.7946 57.0683 67.9341 56.5222 67.8858 55.9212C67.8372 55.3204 65.2846 55.3078 65.2846 55.3078L64.807 57.3048Z" fill="#E7E3DF" stroke="black" stroke-opacity="0.614286" stroke-width="0.0703125"/>
<path d="M64.4432 58.3748C66.4069 58.4615 67.2796 57.5749 66.8674 57.431C66.4554 57.2869 64.75 57.5034 64.75 57.5034L64.4432 58.3748Z" fill="#E7E3DF" stroke="black" stroke-opacity="0.614286" stroke-width="0.0703125"/>
<path d="M35.6684 19.4513C33.5832 18.5217 31.1846 18.0107 28.4481 18.1171C17.1991 18.5541 9.95825 33.1208 9.95778 44.7618C9.95824 56.4026 17.1991 70.9695 28.4481 71.4065C31.1846 71.5128 33.583 71.0018 35.6682 70.0721C36.6838 71.9474 40.5059 72.5187 43.8614 71.4483C47.0371 72.4677 51.0345 71.6157 52.9513 69.3663C55.2786 66.6349 52.531 61.2448 53.8563 58.5133C55.1817 55.7819 58.6729 58.0402 60.8387 59.1691C61.4011 59.4622 61.8166 59.1887 62.1248 58.4834C62.0343 58.3681 61.9822 58.2398 61.9822 58.1039C61.9822 57.852 62.1585 57.6256 62.4394 57.462C62.4591 57.3737 62.4785 57.2835 62.4967 57.1895C62.2956 56.9733 62.1762 56.7131 62.1762 56.4318C62.1762 56.0507 62.3918 55.7066 62.7384 55.4608C62.7514 55.3284 62.7637 55.1931 62.7756 55.0554C62.442 54.8224 62.2411 54.5261 62.2411 54.2029C62.2411 53.8442 62.4887 53.5191 62.8903 53.2771C62.8936 53.2085 62.8962 53.137 62.8993 53.0676C62.5477 52.7716 62.3352 52.3896 62.3352 51.9717C62.3352 51.5281 62.5764 51.1264 62.9677 50.8242C62.9722 50.5977 62.976 50.3684 62.9796 50.1365C62.6754 49.8092 62.4913 49.4036 62.4913 48.9608C62.4913 48.5065 62.6825 48.0893 63.0004 47.7576C63.0009 47.6423 63.0013 47.5254 63.0016 47.409C62.6829 47.077 62.4913 46.6596 62.4913 46.2048C62.4913 45.7487 62.6841 45.3299 63.0044 44.9973C63.0044 44.9183 63.0044 44.8401 63.0044 44.7611C63.0044 44.6819 63.0044 44.6036 63.0044 44.5246C62.6841 44.1924 62.4913 43.7736 62.4913 43.3172C62.4913 42.8624 62.6829 42.445 63.0016 42.113C63.0013 41.9966 63.0009 41.8799 63.0004 41.7644C62.6825 41.4326 62.4913 41.0157 62.4913 40.5615C62.4913 40.1184 62.6754 39.7127 62.9796 39.3855C62.976 39.1536 62.9722 38.9243 62.9677 38.6977C62.5764 38.3956 62.3352 37.9939 62.3352 37.5503C62.3352 37.1326 62.5477 36.7504 62.8993 36.4547C62.8962 36.385 62.8936 36.3138 62.8903 36.2449C62.4887 36.0029 62.2411 35.678 62.2411 35.3193C62.2411 34.9958 62.442 34.6996 62.7756 34.4668C62.7637 34.3291 62.7514 34.1935 62.7384 34.0614C62.3918 33.8153 62.1762 33.4716 62.1762 33.0902C62.1762 32.8089 62.2956 32.5489 62.4967 32.3325C62.4785 32.2385 62.4591 32.1483 62.4394 32.06C62.1585 31.8966 61.9822 31.67 61.9822 31.4181C61.9822 31.2822 62.0343 31.1541 62.1248 31.0385C61.8166 30.3331 61.4011 30.0598 60.8387 30.3531C58.6729 31.4821 55.1817 33.7401 53.8563 31.0086C52.531 28.2772 55.2786 22.8872 52.9513 20.1557C51.0345 17.9063 47.0371 17.0544 43.8614 18.0737C40.5059 17.0034 36.684 17.5746 35.6684 19.4498" fill="#D9D2C9"/>
<path d="M35.6684 19.4513C33.5832 18.5217 31.1846 18.0107 28.4481 18.1171C17.1991 18.5541 9.95825 33.1208 9.95778 44.7618C9.95824 56.4026 17.1991 70.9695 28.4481 71.4065C31.1846 71.5128 33.583 71.0018 35.6682 70.0721C36.6838 71.9474 40.5059 72.5187 43.8614 71.4483C47.0371 72.4677 51.0345 71.6157 52.9513 69.3663C55.2786 66.6349 52.531 61.2448 53.8563 58.5133C55.1817 55.7819 58.6729 58.0402 60.8387 59.1691C61.4011 59.4622 61.8166 59.1887 62.1248 58.4834C62.0343 58.3681 61.9822 58.2398 61.9822 58.1039C61.9822 57.852 62.1585 57.6256 62.4394 57.462C62.4591 57.3737 62.4785 57.2835 62.4968 57.1895C62.2956 56.9733 62.1762 56.7131 62.1762 56.4318C62.1762 56.0507 62.3918 55.7066 62.7384 55.4608C62.7514 55.3284 62.7637 55.1931 62.7756 55.0554C62.442 54.8224 62.2411 54.5261 62.2411 54.2029C62.2411 53.8442 62.4887 53.5191 62.8903 53.2771C62.8936 53.2085 62.8962 53.137 62.8993 53.0676C62.5477 52.7716 62.3352 52.3896 62.3352 51.9717C62.3352 51.5281 62.5764 51.1264 62.9677 50.8242C62.9722 50.5977 62.976 50.3684 62.9796 50.1365C62.6754 49.8092 62.4913 49.4036 62.4913 48.9608C62.4913 48.5065 62.6825 48.0893 63.0004 47.7576C63.0009 47.6423 63.0013 47.5254 63.0016 47.409C62.6829 47.077 62.4913 46.6596 62.4913 46.2048C62.4913 45.7487 62.6841 45.3299 63.0044 44.9973C63.0044 44.9183 63.0044 44.8401 63.0044 44.7611C63.0044 44.6819 63.0044 44.6036 63.0044 44.5246C62.6841 44.1924 62.4913 43.7736 62.4913 43.3172C62.4913 42.8624 62.6829 42.445 63.0016 42.113C63.0013 41.9966 63.0009 41.8799 63.0004 41.7644C62.6825 41.4326 62.4913 41.0157 62.4913 40.5615C62.4913 40.1184 62.6754 39.7127 62.9796 39.3855C62.976 39.1536 62.9722 38.9243 62.9677 38.6977C62.5764 38.3956 62.3352 37.9939 62.3352 37.5503C62.3352 37.1326 62.5477 36.7504 62.8993 36.4547C62.8962 36.385 62.8936 36.3138 62.8903 36.2449C62.4887 36.0029 62.2411 35.678 62.2411 35.3193C62.2411 34.9958 62.442 34.6996 62.7756 34.4668C62.7637 34.3291 62.7514 34.1935 62.7384 34.0614C62.3918 33.8153 62.1762 33.4716 62.1762 33.0902C62.1762 32.8089 62.2956 32.5489 62.4968 32.3325C62.4785 32.2385 62.4591 32.1483 62.4394 32.06C62.1585 31.8966 61.9822 31.67 61.9822 31.4181C61.9822 31.2822 62.0343 31.1541 62.1248 31.0385C61.8166 30.3331 61.4011 30.0598 60.8387 30.3531C58.6729 31.4821 55.1817 33.7401 53.8563 31.0086C52.531 28.2772 55.2786 22.8872 52.9513 20.1557C51.0345 17.9063 47.0371 17.0544 43.8614 18.0737C40.5059 17.0034 36.684 17.5746 35.6684 19.4498" stroke="black" stroke-opacity="0.861905" stroke-width="0.351562" stroke-linecap="round"/>
<g filter="url(#filter4_f_1486_22098)">
<path d="M63.4247 29.2075C66.9159 29.2075 70.7952 31.1551 68.6617 30.8914C66.5281 30.6277 64.4432 31.1516 64.4432 31.1516C64.4432 31.1516 62.7747 30.008 62.0573 30.8914L62.0566 30.8922C61.7562 30.2984 61.3613 30.083 60.8401 30.3547C58.6742 31.4837 55.1829 33.7416 53.8577 31.0102C53.2714 29.8019 53.4818 28.0735 53.6973 26.2853C59.0608 27.8418 59.9335 29.2075 63.4247 29.2075Z" fill="#2B2926"/>
</g>
<path d="M48.6629 39.0342C43.8903 40.2844 41.6379 42.4268 41.6372 44.7627C41.6378 47.0983 43.8903 49.2407 48.6629 50.4908C53.436 51.741 54.7454 51.7957 55.7636 49.6651C56.7818 47.5349 53.4775 47.3953 53.4765 44.7621C53.4774 42.1289 56.7818 41.9891 55.7636 39.859C54.7454 37.7283 53.436 37.783 48.6629 39.0331" fill="#2B2927"/>
<g filter="url(#filter5_f_1486_22098)">
<path d="M33.3031 60.6537C32.2755 52.9948 33.9355 49.4326 35.6745 48.3638C39.3059 46.1324 46.2671 49.4326 47.3735 56.5573C48.4803 63.6817 47.9271 69.3813 42.5517 70.361C37.1764 71.3406 34.3308 68.3126 33.3031 60.6537Z" fill="#524B43" fill-opacity="0.547619"/>
</g>
<path d="M33.9562 60.372C33.1157 54.1079 34.4734 51.1944 35.8957 50.3203C38.8658 48.4952 44.5592 51.1944 45.4642 57.0216C46.3694 62.8485 45.9169 67.5101 41.5205 68.3114C37.1241 69.1126 34.7968 66.6361 33.9562 60.372Z" fill="#2A2928"/>
<g filter="url(#filter6_f_1486_22098)">
<path d="M33.6977 56.7286C33.7115 53.2312 34.6217 51.3197 35.6334 50.506C34.6638 51.9673 34.026 54.7942 34.667 59.5713C35.5075 65.8354 37.8346 68.3118 42.231 67.5106C43.2283 67.3288 44.0209 66.9466 44.6425 66.3991C43.9581 67.3815 42.9483 68.051 41.5203 68.3113C37.1239 69.1125 34.7968 66.6361 33.9563 60.372C33.7724 59.0017 33.6936 57.7919 33.6977 56.7286Z" fill="black" fill-opacity="0.3"/>
</g>
<g filter="url(#filter7_f_1486_22098)">
<path d="M34.9227 51.3067C35.2246 50.8518 35.5582 50.5277 35.8958 50.3203C38.8658 48.4952 44.5593 51.1942 45.4643 57.0214C46.1641 61.5266 46.0505 65.3334 43.9318 67.1998C45.3546 65.1575 45.3648 61.7564 44.7536 57.8221C43.8486 51.9949 38.1551 49.2959 35.1851 51.1209C35.0972 51.1749 35.0096 51.2368 34.9227 51.3067Z" fill="black"/>
</g>
<path opacity="0.356" d="M43.6263 70.6439C43.8452 71.7912 44.3113 71.2581 44.2856 70.7075C47.7651 70.7075 51.0778 65.2938 51.0778 59.9829C51.0762 58.7645 52.1526 56.4491 51.8556 55.3181C52.9853 56.8816 52.4008 60.2089 52.4031 62.5371C52.4031 64.4217 52.7279 67.2674 52.0324 68.6577C51.0436 70.6341 48.7462 70.8007 46.9916 70.8008C45.975 70.7982 44.4872 71.4694 43.6263 70.6439Z" fill="#524B43" stroke="black" stroke-opacity="0.157143" stroke-width="0.175781" stroke-linecap="round"/>
<g filter="url(#filter8_f_1486_22098)">
<path d="M33.5491 29.3446C32.5214 37.0035 34.1814 40.5657 35.9204 41.6345C39.5518 43.8659 46.513 40.5657 47.6195 33.441C48.7262 26.3166 48.173 20.617 42.7976 19.6373C37.4223 18.6577 34.5767 21.6857 33.5491 29.3446Z" fill="#524B43" fill-opacity="0.547619"/>
</g>
<path d="M34.2022 29.6263C33.3617 35.8904 34.7194 38.8039 36.1417 39.678C39.1118 41.503 44.8052 38.8039 45.7102 32.9767C46.6154 27.1498 46.1629 22.4881 41.7665 21.6869C37.37 20.8857 35.0427 23.3622 34.2022 29.6263Z" fill="#2A2928"/>
<g filter="url(#filter9_f_1486_22098)">
<path d="M33.9438 33.2697C33.9575 36.767 34.8677 38.6785 35.8795 39.4922C34.9099 38.0309 34.272 35.2041 34.913 30.427C35.7535 24.1628 38.0807 21.6864 42.4771 22.4876C43.4743 22.6694 44.267 23.0516 44.8885 23.5991C44.2041 22.6167 43.1943 21.9472 41.7664 21.6869C37.37 20.8857 35.0428 23.3622 34.2023 29.6263C34.0184 30.9965 33.9396 32.2063 33.9438 33.2697Z" fill="black" fill-opacity="0.295238"/>
</g>
<g filter="url(#filter10_f_1486_22098)">
<path d="M35.1688 38.6916C35.4706 39.1465 35.8042 39.4705 36.1418 39.678C39.1119 41.503 44.8053 38.804 45.7103 32.9768C46.4102 28.4717 46.2965 24.6648 44.1778 22.7985C45.6007 24.8407 45.6108 28.2418 44.9996 32.1761C44.0946 38.0033 38.4012 40.7023 35.4311 38.8773C35.3433 38.8233 35.2556 38.7614 35.1688 38.6916Z" fill="black"/>
</g>
<path opacity="0.356" d="M43.8723 19.3543C44.0912 18.207 44.5572 18.7401 44.5316 19.2907C48.0111 19.2907 51.3238 24.7045 51.3238 30.0153C51.3222 31.2338 52.3985 33.5492 52.1015 34.6802C53.2313 33.1166 52.6467 29.7894 52.6491 27.4611C52.649 25.5766 52.9739 22.7308 52.2784 21.3405C51.2896 19.3641 48.9921 19.1975 47.2376 19.1974C46.221 19.2 44.7332 18.5288 43.8723 19.3543Z" fill="#524B43" stroke="black" stroke-opacity="0.157143" stroke-width="0.175781" stroke-linecap="round"/>
<path d="M36.5653 10.542C33.3313 11.4094 33.8058 14.8303 28.3024 14.0821C22.7989 13.3337 0.444229 11.9317 0.444229 44.7627C0.444229 77.5935 22.7989 76.1915 28.3024 75.4432C33.8058 74.6949 33.3313 78.1157 36.5653 78.9832C36.6579 79.0082 36.7439 79.0212 36.8249 79.0257C35.2685 78.5078 34.6973 73.2669 35.7314 67.9602C35.7314 67.9602 36.5653 61.4393 36.5653 44.7627C36.5653 28.086 35.7314 21.5652 35.7314 21.5652C34.6973 16.2584 35.2685 11.0173 36.8249 10.4995C36.7439 10.5042 36.6579 10.5171 36.5653 10.542Z" fill="url(#paint0_radial_1486_22098)" stroke="black" stroke-opacity="0.861905" stroke-width="0.351562"/>
<path d="M12.7993 44.7618L19.4307 42.3346V34.4797L23.5292 40.8345L30.1606 38.4073L26.0621 44.7618L30.1606 51.1167L23.5292 48.6892L19.4307 55.044V47.1891L12.7993 44.7618Z" fill="#E3E6E3" fill-opacity="0.5"/>
<path d="M12.7993 44.7617L19.4309 47.189V55.0441L19.8386 54.412L19.9993 46.7968L13.9015 44.7617L19.9993 42.5309L19.839 35.1121L19.4309 34.4796V42.3348L12.7993 44.7617ZM23.728 48.7617L30.1605 51.1168L23.7729 48.689L23.728 48.7617ZM23.728 40.7616L23.7729 40.8343L30.1605 38.4074L23.728 40.7616Z" fill="#040404" fill-opacity="0.580952"/>
<g opacity="0.705" filter="url(#filter11_f_1486_22098)">
<path d="M42.1292 44.9021C42.1299 46.8945 44.1889 48.7223 48.5516 49.7887C52.9148 50.8552 54.1115 50.9016 55.0422 49.084C55.973 47.2669 52.9526 47.148 52.9518 44.9018C52.9527 42.6555 55.973 42.5363 55.0422 40.7192C54.1115 38.9017 52.9148 38.9481 48.5516 40.0145C44.1889 41.081 42.1298 42.9085 42.1292 44.9011V44.9021ZM42.8036 44.9128V44.9123C42.8041 43.0908 44.5803 41.4202 48.3435 40.4453C52.1071 39.4705 53.1396 39.4279 53.9424 41.0893C54.7453 42.7503 52.1399 42.8593 52.139 44.9127C52.14 46.966 54.7453 47.075 53.9424 48.736C53.1396 50.3975 52.1071 50.3549 48.3435 49.38C44.5803 48.4052 42.8042 46.7341 42.8036 44.9128Z" fill="black" fill-opacity="0.971429"/>
</g>
<g filter="url(#filter12_f_1486_22098)">
<path d="M42.2007 45.0574C49.4603 45.0574 54.123 44.6587 53.946 47.1854C53.769 49.7121 50.3458 50.9092 46.9224 48.9141C43.4991 46.9193 40.4895 45.0574 42.2007 45.0574Z" fill="#2A2928" fill-opacity="0.633333"/>
</g>
<g filter="url(#filter13_f_1486_22098)">
<path d="M42.2007 44.2327C49.4603 44.2327 54.123 44.6317 53.946 42.105C53.769 39.5782 50.3458 38.3812 46.9224 40.376C43.4991 42.3711 40.4895 44.2327 42.2007 44.2327Z" fill="#2A2928" fill-opacity="0.633333"/>
</g>
<g filter="url(#filter14_f_1486_22098)">
<path d="M62.9677 50.8269C62.5764 51.129 62.3352 51.5307 62.3352 51.9743C62.3352 52.3922 62.5477 52.7741 62.8993 53.0701C63.1911 53.3808 65.6592 53.3176 65.6627 53.3173L65.6644 53.3071C65.7663 52.7133 65.8639 52.0912 65.9541 51.4511L66.082 50.6312L66.0645 50.6291C65.8594 50.6027 63.7469 50.3467 62.9677 50.8269Z" stroke="black" stroke-opacity="0.628571" stroke-width="0.175781"/>
</g>
<g filter="url(#filter15_f_1486_22098)">
<path d="M63.4067 53.2327C63.1577 53.1953 62.94 53.265 62.8902 53.2797C62.4887 53.5217 62.2411 53.8468 62.2411 54.2055C62.2411 54.5287 62.442 54.825 62.7756 55.058C63.4725 55.5838 65.2806 55.3086 65.2846 55.3078H65.285L65.2917 55.2742C65.3639 54.9286 65.436 54.5656 65.5073 54.1847L65.6627 53.3992L65.6485 53.3976C65.6532 53.3707 65.6579 53.3445 65.6627 53.3173C65.6613 53.3173 65.3059 53.3266 64.8496 53.321C64.3844 53.2802 63.8146 53.238 63.4067 53.2327Z" stroke="black" stroke-opacity="0.628571" stroke-width="0.175781"/>
</g>
<g filter="url(#filter16_f_1486_22098)">
<path d="M63.0045 44.7642C62.6849 45.0973 62.4913 45.7518 62.4913 46.2074C62.4913 46.6622 62.683 47.0796 63.0016 47.4116C63.8597 47.9443 66.3516 47.753 66.3606 47.7522H66.3611L66.3616 47.7391C66.4383 46.7246 66.4831 45.7189 66.4831 44.7629L63.0045 44.7642Z" stroke="black" stroke-opacity="0.628571" stroke-width="0.175781"/>
</g>
<g filter="url(#filter17_f_1486_22098)">
<path d="M64.5204 55.3748C64.3832 55.3751 64.2356 55.3761 64.0852 55.3783C63.5605 55.3857 63.0028 55.4076 62.7384 55.4634C62.6318 55.4858 62.1762 55.8301 62.1762 56.4344C62.1762 56.7157 62.2956 56.9759 62.4968 57.1921C63.0206 57.6781 64.8056 57.305 64.807 57.3047L64.8077 57.3018C64.9532 56.7827 65.1103 56.132 65.268 55.3857L65.2695 55.3804H65.2692C65.2744 55.3561 65.2794 55.3324 65.2846 55.3078C65.283 55.3081 64.9522 55.358 64.5204 55.3748Z" stroke="black" stroke-opacity="0.628571" stroke-width="0.175781"/>
</g>
<g filter="url(#filter18_f_1486_22098)">
<path d="M63.0004 47.7602C62.6825 48.092 62.4913 48.5091 62.4913 48.9634C62.4913 49.4062 62.6754 49.8119 62.9796 50.1391C64.1991 50.5125 66.0775 50.4919 66.082 50.4919C66.1903 49.6296 66.2824 48.7472 66.3512 47.8699C66.3457 47.8696 63.7391 47.7119 63.0004 47.7602Z" stroke="black" stroke-opacity="0.628571" stroke-width="0.175781"/>
</g>
<g filter="url(#filter19_f_1486_22098)">
<path d="M61.9822 58.1066C61.9824 58.2424 62.0343 58.3708 62.1248 58.4861C62.3662 58.7938 62.6455 58.9134 63.255 58.9134C63.8369 58.9134 64.4431 58.3748 64.4431 58.3748C64.5331 58.1834 64.6374 57.8861 64.7497 57.5042L64.7499 57.5034C64.7492 57.5034 61.9812 57.123 61.9822 58.1066Z" stroke="black" stroke-opacity="0.628571" stroke-width="0.175781"/>
</g>
<g filter="url(#filter20_f_1486_22098)">
<path d="M63.0045 44.7618C62.6849 44.429 62.4913 43.7743 62.4913 43.3187C62.4913 42.8639 62.683 42.4465 63.0016 42.1145C63.8597 41.5817 66.3516 41.7734 66.3606 41.7739H66.3611L66.3616 41.787C66.4383 42.8015 66.4831 43.8071 66.4831 44.7634L63.0045 44.7618Z" stroke="black" stroke-opacity="0.628571" stroke-width="0.175781"/>
</g>
<g filter="url(#filter21_f_1486_22098)">
<path d="M65.2846 55.3078C67.7645 55.6481 69.1949 54.7193 69.0494 54.1458C68.9039 53.5722 65.6627 53.3173 65.6627 53.3173L65.2846 55.3078Z" stroke="black" stroke-opacity="0.628571" stroke-width="0.175781"/>
</g>
<g filter="url(#filter22_f_1486_22098)">
<path d="M65.6627 53.3173C68.7585 53.1625 69.5344 52.7528 69.6313 51.742C69.7284 50.7316 66.082 50.4919 66.082 50.4919L65.6627 53.3173Z" stroke="black" stroke-opacity="0.628571" stroke-width="0.175781"/>
</g>
<g filter="url(#filter23_f_1486_22098)">
<path d="M66.3616 47.7392C69.4131 47.6997 70.092 48.519 70.2375 49.3659C70.383 50.2125 66.082 50.4919 66.082 50.4919L66.3616 47.7392Z" stroke="black" stroke-opacity="0.628571" stroke-width="0.175781"/>
</g>
<g filter="url(#filter24_f_1486_22098)">
<path d="M67.6191 44.7629C70.0191 44.7845 70.6981 45.3506 70.5526 46.6344C70.4072 47.9182 66.3616 47.7391 66.3616 47.7391L66.4831 44.7629C66.4831 44.7629 67.3765 44.7608 67.6191 44.7629Z" stroke="black" stroke-opacity="0.628571" stroke-width="0.175781"/>
</g>
<g filter="url(#filter25_f_1486_22098)">
<path d="M63.0004 41.7659C62.6825 41.4342 62.4913 41.0173 62.4913 40.563C62.4913 40.12 62.6754 39.7143 62.9796 39.3871C64.1991 39.0137 66.0775 39.0342 66.082 39.0342C66.1903 39.8966 66.2824 40.7789 66.3512 41.6562C66.3457 41.6565 63.7391 41.8145 63.0004 41.7659Z" stroke="black" stroke-opacity="0.628571" stroke-width="0.175781"/>
</g>
<g filter="url(#filter26_f_1486_22098)">
<path d="M62.9677 38.6993C62.5764 38.3971 62.3352 37.9954 62.3352 37.5519C62.3352 37.1342 62.5477 36.752 62.8993 36.4562C63.1911 36.1453 65.6592 36.2088 65.6627 36.2088L65.6644 36.219C65.7663 36.8128 65.8639 37.435 65.9541 38.0752L66.082 38.8949L66.0645 38.897C65.8594 38.9234 63.7469 39.1794 62.9677 38.6993Z" stroke="black" stroke-opacity="0.628571" stroke-width="0.175781"/>
</g>
<g filter="url(#filter27_f_1486_22098)">
<path d="M63.4067 36.2934C63.1577 36.3308 62.94 36.2614 62.8902 36.2467C62.4887 36.0044 62.2411 35.6795 62.2411 35.3208C62.2411 34.9974 62.442 34.7011 62.7756 34.4684C63.4725 33.9426 65.2806 34.2177 65.2846 34.2183H65.285L65.2917 34.2522C65.3639 34.5975 65.436 34.9608 65.5073 35.3414L65.6627 36.1271L65.6485 36.1285C65.6532 36.1554 65.6579 36.1816 65.6627 36.2088C65.6613 36.2088 65.3059 36.1997 64.8496 36.2053C64.3844 36.2459 63.8146 36.2881 63.4067 36.2934Z" stroke="black" stroke-opacity="0.628571" stroke-width="0.175781"/>
</g>
<g filter="url(#filter28_f_1486_22098)">
<path d="M64.5204 34.1513C64.3832 34.1511 64.2356 34.1503 64.0852 34.1481C63.5605 34.1407 63.0028 34.1185 62.7384 34.063C62.6318 34.0406 62.1762 33.696 62.1762 33.0917C62.1762 32.8104 62.2956 32.5505 62.4968 32.334C63.0206 31.848 64.8056 32.2211 64.807 32.2214L64.8077 32.2243C64.9532 32.7434 65.1103 33.3944 65.268 34.1404L65.2695 34.1457H65.2692C65.2744 34.17 65.2794 34.1938 65.2846 34.2183C65.283 34.2181 64.9522 34.1681 64.5204 34.1513Z" stroke="black" stroke-opacity="0.628571" stroke-width="0.175781"/>
</g>
<g filter="url(#filter29_f_1486_22098)">
<path d="M61.9822 31.4196C61.9824 31.2837 62.0343 31.1556 62.1248 31.0401C62.3662 30.7323 62.6455 30.613 63.255 30.613C63.8369 30.613 64.4431 31.1516 64.4431 31.1516C64.5331 31.3427 64.6374 31.64 64.7497 32.022L64.7499 32.023C64.7492 32.023 61.9812 32.4031 61.9822 31.4196Z" stroke="black" stroke-opacity="0.628571" stroke-width="0.175781"/>
</g>
<g filter="url(#filter30_f_1486_22098)">
<path d="M64.4431 31.1516C66.4068 31.0649 67.2795 31.9513 66.8673 32.0954C66.4553 32.2392 64.7499 32.0231 64.7499 32.0231L64.4431 31.1516Z" stroke="black" stroke-opacity="0.628571" stroke-width="0.175781"/>
</g>
<g filter="url(#filter31_f_1486_22098)">
<path d="M64.807 32.2214C66.7946 32.4579 67.9341 33.0042 67.8858 33.605C67.8372 34.206 65.2846 34.2183 65.2846 34.2183L64.807 32.2214Z" stroke="black" stroke-opacity="0.628571" stroke-width="0.175781"/>
</g>
<g filter="url(#filter32_f_1486_22098)">
<path d="M65.2846 34.2183C67.7645 33.8782 69.1949 34.8068 69.0494 35.3804C68.9039 35.9539 65.6627 36.2088 65.6627 36.2088L65.2846 34.2183Z" stroke="black" stroke-opacity="0.628571" stroke-width="0.175781"/>
</g>
<g filter="url(#filter33_f_1486_22098)">
<path d="M65.6627 36.2088C68.7585 36.3636 69.5344 36.7736 69.6313 37.784C69.7284 38.7948 66.082 39.0342 66.082 39.0342L65.6627 36.2088Z" stroke="black" stroke-opacity="0.628571" stroke-width="0.175781"/>
</g>
<g filter="url(#filter34_f_1486_22098)">
<path d="M67.6191 44.7635C70.0191 44.7416 70.6981 44.1757 70.5526 42.892C70.4072 41.6082 66.3616 41.787 66.3616 41.787L66.4831 44.7635C66.4831 44.7635 67.3765 44.7656 67.6191 44.7635Z" stroke="black" stroke-opacity="0.628571" stroke-width="0.175781"/>
</g>
<g filter="url(#filter35_f_1486_22098)">
<path d="M66.3616 41.787C69.4131 41.8265 70.092 41.0071 70.2375 40.1605C70.383 39.3137 66.082 39.0342 66.082 39.0342L66.3616 41.787Z" stroke="black" stroke-opacity="0.628571" stroke-width="0.175781"/>
</g>
<g filter="url(#filter36_f_1486_22098)">
<path d="M64.807 57.3048C66.7946 57.0683 67.9341 56.5223 67.8858 55.9212C67.8372 55.3204 65.2846 55.3079 65.2846 55.3079L64.807 57.3048Z" stroke="black" stroke-opacity="0.628571" stroke-width="0.175781"/>
</g>
<g filter="url(#filter37_f_1486_22098)">
<path d="M64.4431 58.3748C66.4068 58.4615 67.2795 57.5749 66.8673 57.431C66.4553 57.2869 64.7499 57.5034 64.7499 57.5034L64.4431 58.3748Z" stroke="black" stroke-opacity="0.628571" stroke-width="0.175781"/>
</g>
<g filter="url(#filter38_f_1486_22098)">
<path d="M19.6049 55.0441L23.489 48.9219L22.8625 48.689L19.6049 53.8238V55.0441ZM19.6049 35.7L22.8625 40.8343L23.489 40.6014L19.6049 34.4797V35.7ZM25.3543 44.7617L29.1469 50.7397L30.1604 51.1168L26.1285 44.7617L30.1604 38.4074L29.1469 38.7845L25.3543 44.7617Z" fill="#100D0D" fill-opacity="0.842857"/>
</g>
<path d="M36.579 79.4987C38.2355 79.5904 37.8073 74.8289 36.9588 71.6027C35.2496 69.7218 35.4854 68.433 35.4854 68.433C34.4514 73.7398 35.0225 78.9809 36.579 79.4987Z" fill="#0D0D0D" stroke="black" stroke-opacity="0.861905" stroke-width="0.316406"/>
</g>
<defs>
<filter id="filter0_f_1486_22098" x="0.524367" y="0.524352" width="88.9512" height="88.9512" filterUnits="userSpaceOnUse" color-interpolation-filters="sRGB">
<feFlood flood-opacity="0" result="BackgroundImageFix"/>
<feBlend mode="normal" in="SourceGraphic" in2="BackgroundImageFix" result="shape"/>
<feGaussianBlur stdDeviation="0.436036" result="effect1_foregroundBlur_1486_22098"/>
</filter>
<filter id="filter1_f_1486_22098" x="-1.15423" y="8.84577" width="40.461" height="72.3085" filterUnits="userSpaceOnUse" color-interpolation-filters="sRGB">
<feFlood flood-opacity="0" result="BackgroundImageFix"/>
<feBlend mode="normal" in="SourceGraphic" in2="BackgroundImageFix" result="shape"/>
<feGaussianBlur stdDeviation="0.577113" result="effect1_foregroundBlur_1486_22098"/>
</filter>
<filter id="filter2_f_1486_22098" x="7.83649" y="15.3838" width="77.0094" height="58.7584" filterUnits="userSpaceOnUse" color-interpolation-filters="sRGB">
<feFlood flood-opacity="0" result="BackgroundImageFix"/>
<feBlend mode="normal" in="SourceGraphic" in2="BackgroundImageFix" result="shape"/>
<feGaussianBlur stdDeviation="0.7032" result="effect1_foregroundBlur_1486_22098"/>
</filter>
<filter id="filter3_f_1486_22098" x="53.3143" y="57.057" width="16.1194" height="6.34602" filterUnits="userSpaceOnUse" color-interpolation-filters="sRGB">
<feFlood flood-opacity="0" result="BackgroundImageFix"/>
<feBlend mode="normal" in="SourceGraphic" in2="BackgroundImageFix" result="shape"/>
<feGaussianBlur stdDeviation="0.0811025" result="effect1_foregroundBlur_1486_22098"/>
</filter>
<filter id="filter4_f_1486_22098" x="53.3143" y="26.1231" width="16.1194" height="6.34608" filterUnits="userSpaceOnUse" color-interpolation-filters="sRGB">
<feFlood flood-opacity="0" result="BackgroundImageFix"/>
<feBlend mode="normal" in="SourceGraphic" in2="BackgroundImageFix" result="shape"/>
<feGaussianBlur stdDeviation="0.0811027" result="effect1_foregroundBlur_1486_22098"/>
</filter>
<filter id="filter5_f_1486_22098" x="32.1779" y="46.8648" width="16.4762" height="24.4838" filterUnits="userSpaceOnUse" color-interpolation-filters="sRGB">
<feFlood flood-opacity="0" result="BackgroundImageFix"/>
<feBlend mode="normal" in="SourceGraphic" in2="BackgroundImageFix" result="shape"/>
<feGaussianBlur stdDeviation="0.404595" result="effect1_foregroundBlur_1486_22098"/>
</filter>
<filter id="filter6_f_1486_22098" x="33.5945" y="50.4029" width="11.1512" height="18.1575" filterUnits="userSpaceOnUse" color-interpolation-filters="sRGB">
<feFlood flood-opacity="0" result="BackgroundImageFix"/>
<feBlend mode="normal" in="SourceGraphic" in2="BackgroundImageFix" result="shape"/>
<feGaussianBlur stdDeviation="0.0515597" result="effect1_foregroundBlur_1486_22098"/>
</filter>
<filter id="filter7_f_1486_22098" x="34.4376" y="49.2709" width="11.8968" height="18.414" filterUnits="userSpaceOnUse" color-interpolation-filters="sRGB">
<feFlood flood-opacity="0" result="BackgroundImageFix"/>
<feBlend mode="normal" in="SourceGraphic" in2="BackgroundImageFix" result="shape"/>
<feGaussianBlur stdDeviation="0.242578" result="effect1_foregroundBlur_1486_22098"/>
</filter>
<filter id="filter8_f_1486_22098" x="32.4238" y="18.6497" width="16.4762" height="24.4838" filterUnits="userSpaceOnUse" color-interpolation-filters="sRGB">
<feFlood flood-opacity="0" result="BackgroundImageFix"/>
<feBlend mode="normal" in="SourceGraphic" in2="BackgroundImageFix" result="shape"/>
<feGaussianBlur stdDeviation="0.404595" result="effect1_foregroundBlur_1486_22098"/>
</filter>
<filter id="filter9_f_1486_22098" x="33.8405" y="21.4378" width="11.1512" height="18.1575" filterUnits="userSpaceOnUse" color-interpolation-filters="sRGB">
<feFlood flood-opacity="0" result="BackgroundImageFix"/>
<feBlend mode="normal" in="SourceGraphic" in2="BackgroundImageFix" result="shape"/>
<feGaussianBlur stdDeviation="0.0515597" result="effect1_foregroundBlur_1486_22098"/>
</filter>
<filter id="filter10_f_1486_22098" x="34.6836" y="22.3133" width="11.8968" height="18.414" filterUnits="userSpaceOnUse" color-interpolation-filters="sRGB">
<feFlood flood-opacity="0" result="BackgroundImageFix"/>
<feBlend mode="normal" in="SourceGraphic" in2="BackgroundImageFix" result="shape"/>
<feGaussianBlur stdDeviation="0.242578" result="effect1_foregroundBlur_1486_22098"/>
</filter>
<filter id="filter11_f_1486_22098" x="41.952" y="39.094" width="13.4455" height="11.6153" filterUnits="userSpaceOnUse" color-interpolation-filters="sRGB">
<feFlood flood-opacity="0" result="BackgroundImageFix"/>
<feBlend mode="normal" in="SourceGraphic" in2="BackgroundImageFix" result="shape"/>
<feGaussianBlur stdDeviation="0.088571" result="effect1_foregroundBlur_1486_22098"/>
</filter>
<filter id="filter12_f_1486_22098" x="41.4574" y="44.7859" width="12.7421" height="5.37846" filterUnits="userSpaceOnUse" color-interpolation-filters="sRGB">
<feFlood flood-opacity="0" result="BackgroundImageFix"/>
<feBlend mode="normal" in="SourceGraphic" in2="BackgroundImageFix" result="shape"/>
<feGaussianBlur stdDeviation="0.124309" result="effect1_foregroundBlur_1486_22098"/>
</filter>
<filter id="filter13_f_1486_22098" x="41.4574" y="39.126" width="12.7421" height="5.37834" filterUnits="userSpaceOnUse" color-interpolation-filters="sRGB">
<feFlood flood-opacity="0" result="BackgroundImageFix"/>
<feBlend mode="normal" in="SourceGraphic" in2="BackgroundImageFix" result="shape"/>
<feGaussianBlur stdDeviation="0.124309" result="effect1_foregroundBlur_1486_22098"/>
</filter>
<filter id="filter14_f_1486_22098" x="61.8594" y="50.0616" width="4.71151" height="3.73706" filterUnits="userSpaceOnUse" color-interpolation-filters="sRGB">
<feFlood flood-opacity="0" result="BackgroundImageFix"/>
<feBlend mode="normal" in="SourceGraphic" in2="BackgroundImageFix" result="shape"/>
<feGaussianBlur stdDeviation="0.193984" result="effect1_foregroundBlur_1486_22098"/>
</filter>
<filter id="filter15_f_1486_22098" x="61.7652" y="52.7459" width="4.39016" height="3.11041" filterUnits="userSpaceOnUse" color-interpolation-filters="sRGB">
<feFlood flood-opacity="0" result="BackgroundImageFix"/>
<feBlend mode="normal" in="SourceGraphic" in2="BackgroundImageFix" result="shape"/>
<feGaussianBlur stdDeviation="0.193984" result="effect1_foregroundBlur_1486_22098"/>
</filter>
<filter id="filter16_f_1486_22098" x="62.0155" y="44.287" width="4.94351" height="3.97509" filterUnits="userSpaceOnUse" color-interpolation-filters="sRGB">
<feFlood flood-opacity="0" result="BackgroundImageFix"/>
<feBlend mode="normal" in="SourceGraphic" in2="BackgroundImageFix" result="shape"/>
<feGaussianBlur stdDeviation="0.193984" result="effect1_foregroundBlur_1486_22098"/>
</filter>
<filter id="filter17_f_1486_22098" x="61.7004" y="54.8127" width="4.0848" height="3.10498" filterUnits="userSpaceOnUse" color-interpolation-filters="sRGB">
<feFlood flood-opacity="0" result="BackgroundImageFix"/>
<feBlend mode="normal" in="SourceGraphic" in2="BackgroundImageFix" result="shape"/>
<feGaussianBlur stdDeviation="0.193984" result="effect1_foregroundBlur_1486_22098"/>
</filter>
<filter id="filter18_f_1486_22098" x="62.0155" y="47.2752" width="4.81834" height="3.69281" filterUnits="userSpaceOnUse" color-interpolation-filters="sRGB">
<feFlood flood-opacity="0" result="BackgroundImageFix"/>
<feBlend mode="normal" in="SourceGraphic" in2="BackgroundImageFix" result="shape"/>
<feGaussianBlur stdDeviation="0.193984" result="effect1_foregroundBlur_1486_22098"/>
</filter>
<filter id="filter19_f_1486_22098" x="61.5063" y="56.9552" width="3.74836" height="2.43408" filterUnits="userSpaceOnUse" color-interpolation-filters="sRGB">
<feFlood flood-opacity="0" result="BackgroundImageFix"/>
<feBlend mode="normal" in="SourceGraphic" in2="BackgroundImageFix" result="shape"/>
<feGaussianBlur stdDeviation="0.193984" result="effect1_foregroundBlur_1486_22098"/>
</filter>
<filter id="filter20_f_1486_22098" x="62.0155" y="41.2641" width="4.94351" height="3.97528" filterUnits="userSpaceOnUse" color-interpolation-filters="sRGB">
<feFlood flood-opacity="0" result="BackgroundImageFix"/>
<feBlend mode="normal" in="SourceGraphic" in2="BackgroundImageFix" result="shape"/>
<feGaussianBlur stdDeviation="0.193984" result="effect1_foregroundBlur_1486_22098"/>
</filter>
<filter id="filter21_f_1486_22098" x="64.793" y="52.8355" width="4.7425" height="3.02111" filterUnits="userSpaceOnUse" color-interpolation-filters="sRGB">
<feFlood flood-opacity="0" result="BackgroundImageFix"/>
<feBlend mode="normal" in="SourceGraphic" in2="BackgroundImageFix" result="shape"/>
<feGaussianBlur stdDeviation="0.193984" result="effect1_foregroundBlur_1486_22098"/>
</filter>
<filter id="filter22_f_1486_22098" x="65.1721" y="50.0109" width="4.93699" height="3.78747" filterUnits="userSpaceOnUse" color-interpolation-filters="sRGB">
<feFlood flood-opacity="0" result="BackgroundImageFix"/>
<feBlend mode="normal" in="SourceGraphic" in2="BackgroundImageFix" result="shape"/>
<feGaussianBlur stdDeviation="0.193984" result="effect1_foregroundBlur_1486_22098"/>
</filter>
<filter id="filter23_f_1486_22098" x="65.5961" y="47.2619" width="5.12092" height="3.7124" filterUnits="userSpaceOnUse" color-interpolation-filters="sRGB">
<feFlood flood-opacity="0" result="BackgroundImageFix"/>
<feBlend mode="normal" in="SourceGraphic" in2="BackgroundImageFix" result="shape"/>
<feGaussianBlur stdDeviation="0.193984" result="effect1_foregroundBlur_1486_22098"/>
</filter>
<filter id="filter24_f_1486_22098" x="65.8823" y="44.2861" width="5.16491" height="3.93737" filterUnits="userSpaceOnUse" color-interpolation-filters="sRGB">
<feFlood flood-opacity="0" result="BackgroundImageFix"/>
<feBlend mode="normal" in="SourceGraphic" in2="BackgroundImageFix" result="shape"/>
<feGaussianBlur stdDeviation="0.193984" result="effect1_foregroundBlur_1486_22098"/>
</filter>
<filter id="filter25_f_1486_22098" x="62.0155" y="38.5581" width="4.81834" height="3.69293" filterUnits="userSpaceOnUse" color-interpolation-filters="sRGB">
<feFlood flood-opacity="0" result="BackgroundImageFix"/>
<feBlend mode="normal" in="SourceGraphic" in2="BackgroundImageFix" result="shape"/>
<feGaussianBlur stdDeviation="0.193984" result="effect1_foregroundBlur_1486_22098"/>
</filter>
<filter id="filter26_f_1486_22098" x="61.8594" y="35.7276" width="4.71151" height="3.73693" filterUnits="userSpaceOnUse" color-interpolation-filters="sRGB">
<feFlood flood-opacity="0" result="BackgroundImageFix"/>
<feBlend mode="normal" in="SourceGraphic" in2="BackgroundImageFix" result="shape"/>
<feGaussianBlur stdDeviation="0.193984" result="effect1_foregroundBlur_1486_22098"/>
</filter>
<filter id="filter27_f_1486_22098" x="61.7652" y="33.67" width="4.3905" height="3.11022" filterUnits="userSpaceOnUse" color-interpolation-filters="sRGB">
<feFlood flood-opacity="0" result="BackgroundImageFix"/>
<feBlend mode="normal" in="SourceGraphic" in2="BackgroundImageFix" result="shape"/>
<feGaussianBlur stdDeviation="0.193984" result="effect1_foregroundBlur_1486_22098"/>
</filter>
<filter id="filter28_f_1486_22098" x="61.7004" y="31.6084" width="4.0848" height="3.10498" filterUnits="userSpaceOnUse" color-interpolation-filters="sRGB">
<feFlood flood-opacity="0" result="BackgroundImageFix"/>
<feBlend mode="normal" in="SourceGraphic" in2="BackgroundImageFix" result="shape"/>
<feGaussianBlur stdDeviation="0.193984" result="effect1_foregroundBlur_1486_22098"/>
</filter>
<filter id="filter29_f_1486_22098" x="61.5063" y="30.1372" width="3.74053" height="2.43396" filterUnits="userSpaceOnUse" color-interpolation-filters="sRGB">
<feFlood flood-opacity="0" result="BackgroundImageFix"/>
<feBlend mode="normal" in="SourceGraphic" in2="BackgroundImageFix" result="shape"/>
<feGaussianBlur stdDeviation="0.193984" result="effect1_foregroundBlur_1486_22098"/>
</filter>
<filter id="filter30_f_1486_22098" x="63.9329" y="30.6698" width="3.51031" height="1.9508" filterUnits="userSpaceOnUse" color-interpolation-filters="sRGB">
<feFlood flood-opacity="0" result="BackgroundImageFix"/>
<feBlend mode="normal" in="SourceGraphic" in2="BackgroundImageFix" result="shape"/>
<feGaussianBlur stdDeviation="0.193984" result="effect1_foregroundBlur_1486_22098"/>
</filter>
<filter id="filter31_f_1486_22098" x="64.3043" y="31.7312" width="4.05888" height="2.96325" filterUnits="userSpaceOnUse" color-interpolation-filters="sRGB">
<feFlood flood-opacity="0" result="BackgroundImageFix"/>
<feBlend mode="normal" in="SourceGraphic" in2="BackgroundImageFix" result="shape"/>
<feGaussianBlur stdDeviation="0.193984" result="effect1_foregroundBlur_1486_22098"/>
</filter>
<filter id="filter32_f_1486_22098" x="64.793" y="33.6695" width="4.7425" height="3.02105" filterUnits="userSpaceOnUse" color-interpolation-filters="sRGB">
<feFlood flood-opacity="0" result="BackgroundImageFix"/>
<feBlend mode="normal" in="SourceGraphic" in2="BackgroundImageFix" result="shape"/>
<feGaussianBlur stdDeviation="0.193984" result="effect1_foregroundBlur_1486_22098"/>
</filter>
<filter id="filter33_f_1486_22098" x="65.1721" y="35.7277" width="4.93699" height="3.78747" filterUnits="userSpaceOnUse" color-interpolation-filters="sRGB">
<feFlood flood-opacity="0" result="BackgroundImageFix"/>
<feBlend mode="normal" in="SourceGraphic" in2="BackgroundImageFix" result="shape"/>
<feGaussianBlur stdDeviation="0.193984" result="effect1_foregroundBlur_1486_22098"/>
</filter>
<filter id="filter34_f_1486_22098" x="65.8823" y="41.3026" width="5.16491" height="3.93762" filterUnits="userSpaceOnUse" color-interpolation-filters="sRGB">
<feFlood flood-opacity="0" result="BackgroundImageFix"/>
<feBlend mode="normal" in="SourceGraphic" in2="BackgroundImageFix" result="shape"/>
<feGaussianBlur stdDeviation="0.193984" result="effect1_foregroundBlur_1486_22098"/>
</filter>
<filter id="filter35_f_1486_22098" x="65.5961" y="38.5518" width="5.12092" height="3.71246" filterUnits="userSpaceOnUse" color-interpolation-filters="sRGB">
<feFlood flood-opacity="0" result="BackgroundImageFix"/>
<feBlend mode="normal" in="SourceGraphic" in2="BackgroundImageFix" result="shape"/>
<feGaussianBlur stdDeviation="0.193984" result="effect1_foregroundBlur_1486_22098"/>
</filter>
<filter id="filter36_f_1486_22098" x="64.3043" y="54.8317" width="4.05888" height="2.96325" filterUnits="userSpaceOnUse" color-interpolation-filters="sRGB">
<feFlood flood-opacity="0" result="BackgroundImageFix"/>
<feBlend mode="normal" in="SourceGraphic" in2="BackgroundImageFix" result="shape"/>
<feGaussianBlur stdDeviation="0.193984" result="effect1_foregroundBlur_1486_22098"/>
</filter>
<filter id="filter37_f_1486_22098" x="63.9329" y="56.9057" width="3.51031" height="1.95092" filterUnits="userSpaceOnUse" color-interpolation-filters="sRGB">
<feFlood flood-opacity="0" result="BackgroundImageFix"/>
<feBlend mode="normal" in="SourceGraphic" in2="BackgroundImageFix" result="shape"/>
<feGaussianBlur stdDeviation="0.193984" result="effect1_foregroundBlur_1486_22098"/>
</filter>
<filter id="filter38_f_1486_22098" x="19.4944" y="34.3691" width="10.7766" height="20.7855" filterUnits="userSpaceOnUse" color-interpolation-filters="sRGB">
<feFlood flood-opacity="0" result="BackgroundImageFix"/>
<feBlend mode="normal" in="SourceGraphic" in2="BackgroundImageFix" result="shape"/>
<feGaussianBlur stdDeviation="0.0552627" result="effect1_foregroundBlur_1486_22098"/>
</filter>
<radialGradient id="paint0_radial_1486_22098" cx="0" cy="0" r="1" gradientUnits="userSpaceOnUse" gradientTransform="translate(20.4759 46.9539) rotate(-90) scale(34.2631 18.1903)">
<stop stop-color="#718954"/>
<stop offset="1" stop-color="#39442C" stop-opacity="0.995238"/>
</radialGradient>
<clipPath id="clip0_1486_22098">
<rect width="90" height="90" fill="white" transform="matrix(0 -1 1 0 0 90)"/>
</clipPath>
</defs>
</svg>
