<svg width="90" height="90" viewBox="0 0 90 90" fill="none" xmlns="http://www.w3.org/2000/svg">
<g clip-path="url(#clip0_394_7144)">
<mask id="mask0_394_7144" style="mask-type:luminance" maskUnits="userSpaceOnUse" x="0" y="0" width="90" height="90">
<path d="M0 0L0 90H90V0H0Z" fill="white"/>
</mask>
<g mask="url(#mask0_394_7144)">
<g filter="url(#filter0_f_394_7144)">
<path d="M1.39453 45.0019C1.39453 69.0733 20.9266 88.6055 44.9981 88.6055C69.0695 88.6055 88.6016 69.0733 88.6016 45.0019C88.6016 20.9304 69.0695 1.39834 44.9981 1.39834C20.9266 1.39834 1.39453 20.9304 1.39453 45.0019ZM3.10357 45.0019C3.10357 21.8541 21.8503 3.10744 44.9981 3.10744C68.1459 3.10744 86.8926 21.8541 86.8926 45.0019C86.8926 68.1497 68.1459 86.8964 44.9981 86.8964C21.8503 86.8964 3.10357 68.1497 3.10357 45.0019Z" fill="black" fill-opacity="0.609524"/>
</g>
<path d="M87.748 45.001C87.748 21.3914 68.6086 2.25199 44.999 2.25199C21.3894 2.25199 2.25 21.3914 2.25 45.001C2.25 68.6106 21.3894 87.75 44.999 87.75C68.6086 87.75 87.748 68.6106 87.748 45.001Z" fill="#A59A95" stroke="black" stroke-opacity="0.733333" stroke-width="0.527344" stroke-linecap="round"/>
<path d="M6.42578 45.1819C6.4769 67.0129 23.0575 85.3805 45.0781 88C67.0989 85.3806 83.6796 67.013 83.7307 45.1819C83.7026 23.3338 67.1162 4.94058 45.0784 2.31898C23.0405 4.94048 6.45396 23.3337 6.42578 45.1819Z" fill="#090909" fill-opacity="0.547619"/>
<g filter="url(#filter1_f_394_7144)">
<path d="M12.0078 44.8489C12.0078 56.1159 16.3768 61.6292 21.2963 64.1753C26.2159 66.7214 31.6242 66.3409 33.7649 66.0826C35.635 65.8569 36.4804 66.1876 37.1466 66.6612C37.7916 67.1197 38.2951 67.794 39.2501 68.2279C39.4389 68.5106 39.6703 68.7423 39.9781 68.8331L40.0172 68.8446L40.058 68.8465C40.2887 68.8578 40.5167 68.7862 40.6888 68.6518C40.8608 68.5175 40.9781 68.3347 41.0626 68.1326C41.2316 67.7283 41.2844 67.2273 41.282 66.6633C41.2772 65.5354 41.0271 64.1591 40.693 63.0317L40.668 62.9467L40.6043 62.8847C39.9331 62.2291 39.7096 61.7236 39.6253 61.4061C39.6654 61.1772 39.7074 60.9484 39.7573 60.7207L39.76 60.7087L39.7619 60.6965C39.7619 60.6965 40.4052 56.2195 40.4052 44.8489C40.4052 33.4784 39.7619 29.0013 39.7619 29.0013L39.76 28.9891L39.7573 28.9771C39.7374 28.8861 39.7188 28.7951 39.7004 28.7042C39.7465 28.184 39.9236 27.324 40.4132 26.8784L40.4829 26.8147L40.5101 26.7245C40.8471 25.6046 41.1752 24.3206 41.2556 23.2808C41.2958 22.7609 41.2825 22.3017 41.135 21.9188C41.0613 21.7274 40.9469 21.5498 40.775 21.4249C40.6305 21.3199 40.4489 21.2735 40.2622 21.2643L40.2467 21.1735C40.1646 21.1776 40.077 21.1893 39.9855 21.2111C38.643 21.5307 38.037 22.337 37.3354 22.8936C36.6337 23.4503 35.8161 23.8627 33.7649 23.6152C31.6242 23.3568 26.2159 22.9764 21.2963 25.5225C16.3768 28.0686 12.0078 33.5819 12.0078 44.8489ZM12.6894 44.8489C12.6894 33.7562 16.8969 28.567 21.6095 26.128C26.322 23.689 31.6014 24.0408 33.6835 24.2921C35.855 24.5541 36.9666 24.0564 37.759 23.4278C38.5206 22.8236 38.9832 22.2045 40.0281 21.9159L40.112 22.0099C40.1572 21.9738 40.194 21.9588 40.2308 21.9431C40.2919 21.9466 40.343 21.9536 40.3743 21.9763C40.4142 22.0054 40.4588 22.0597 40.4989 22.1638C40.5791 22.372 40.6124 22.7591 40.5761 23.2281C40.5047 24.1523 40.1955 25.3915 39.8705 26.4779C39.2144 27.1526 39.0594 28.1234 39.0139 28.6834L39.0102 28.7308L39.0195 28.7774C39.0411 28.8863 39.0638 28.9952 39.0877 29.1044C39.0897 29.1186 39.7235 33.5222 39.7235 44.8489C39.7235 56.1869 39.0882 60.5915 39.0874 60.5969L39.0872 60.599C39.0302 60.861 38.9807 61.1206 38.9365 61.3779L38.9248 61.4471L38.9411 61.5153C39.0448 61.9474 39.3422 62.571 40.0549 63.2918C40.3628 64.3512 40.5961 65.6587 40.6005 66.6662C40.6027 67.1798 40.5403 67.6149 40.4338 67.8698C40.3805 67.9972 40.32 68.0749 40.2692 68.1145C40.2297 68.1453 40.1847 68.1507 40.131 68.1544C40.0199 68.1075 39.8915 68.003 39.762 67.7859L39.705 67.6901L39.6022 67.6467C38.7635 67.2916 38.3212 66.6598 37.5416 66.1055C36.7619 65.5512 35.6634 65.1668 33.6836 65.4057C31.6015 65.657 26.3221 66.0088 21.6096 63.5698C16.897 61.1308 12.6894 55.9416 12.6894 44.8489Z" fill="black" fill-opacity="0.861905"/>
</g>
<g filter="url(#filter2_f_394_7144)">
<path d="M75.6939 44.8463C75.6939 46.9389 75.6207 48.2155 75.3811 49.2277C75.1415 50.2399 74.7329 50.9737 74.0966 51.9468C72.782 53.9574 69.312 56.5543 67.764 57.3283C67.0527 57.684 66.6572 58.1178 66.0496 58.5191C65.442 58.9204 64.6373 59.2594 63.1739 59.3878C60.2627 59.6431 57.7452 58.3477 53.5836 59.0612C53.6231 60.0612 53.4867 61.0245 52.7901 61.7502C51.2481 63.3564 48.1657 63.9283 45.6643 63.2377C44.3635 63.5975 42.9858 63.6829 41.8166 63.5147C40.7113 63.3556 39.7962 62.9702 39.3133 62.3282C37.7185 62.9382 35.8972 63.2753 33.8292 63.204C29.4343 63.0525 25.8282 60.4495 23.3332 56.9027C20.8382 53.3558 19.4377 48.8597 19.4375 44.8463C19.4377 40.8328 20.8382 36.3361 23.3332 32.7893C25.8282 29.2424 29.4343 26.6394 33.8292 26.4879C35.8972 26.4165 37.7185 26.7534 39.3133 27.3634C39.7962 26.7214 40.7113 26.3359 41.8166 26.1769C42.9858 26.0087 44.3635 26.0941 45.6643 26.4538C48.1657 25.7634 51.2481 26.3352 52.7901 27.9414C53.4867 28.6671 53.6231 29.6307 53.5836 30.6307C57.745 31.3442 60.2625 30.0484 63.1735 30.3037C64.6367 30.4321 65.4421 30.7716 66.0496 31.1728C66.6572 31.5741 67.0527 32.0076 67.764 32.3632C69.312 33.1372 72.782 35.7342 74.0966 37.7447C74.7329 38.7179 75.1415 39.452 75.3811 40.4642C75.6207 41.4764 75.6939 42.7537 75.6939 44.8463ZM75.2714 44.8463C75.2714 42.7637 75.1955 41.5144 74.97 40.5615C74.7445 39.6086 74.3717 38.9373 73.743 37.9758C72.5277 36.1171 69.0035 33.4557 67.5748 32.7413C66.7979 32.353 66.3749 31.894 65.8167 31.5254C65.2586 31.1567 64.5503 30.8487 63.1366 30.7248C60.3858 30.4834 57.8011 31.7689 53.5573 31.0532C53.5361 31.306 53.5148 31.5594 53.4827 31.8105C53.4693 31.9159 53.4636 32.0082 53.4497 32.1129C55.3831 32.6241 56.5803 33.1061 57.5521 33.4549C58.5609 33.8171 59.3589 34.04 60.6738 34.04C62.0481 34.04 63.4747 34.376 64.3718 34.6933C64.596 34.7726 64.7873 34.8504 64.9391 34.9244C65.0909 34.9983 65.1987 35.0554 65.2874 35.1523C65.3317 35.2008 65.3977 35.289 65.3623 35.4161C65.3268 35.5432 65.2216 35.5865 65.1549 35.6046C65.0216 35.6409 64.8841 35.6322 64.6689 35.6085C63.077 35.434 61.5014 35.7818 61.5014 35.7818L61.4183 35.8006L61.3455 35.7562C61.3455 35.7562 61.0428 35.5735 60.6845 35.4633C60.5053 35.4082 60.315 35.3737 60.1555 35.3831C60.0494 35.3893 59.9817 35.4437 59.9062 35.4882L59.9286 35.5333L59.913 35.551C59.9795 35.7035 60.0444 35.8609 60.0965 36.0495L60.0997 36.0513L60.1228 36.144C60.1382 36.2052 60.1536 36.2687 60.1683 36.3357L60.1938 36.4518L60.1878 36.4574C60.2453 36.7346 60.2817 37.0863 60.3213 37.4185L60.3461 37.4341L60.3571 37.5353C60.3673 37.6265 60.3771 37.7198 60.3862 37.8143L60.3987 37.945L60.3738 37.9603C60.4029 38.2827 60.4462 38.5535 60.4665 38.9142L60.4683 38.9153L60.4704 38.9579C60.4708 38.9642 60.4719 38.9682 60.4722 38.9746C60.4728 38.9834 60.4724 38.9948 60.473 39.0037L60.4748 39.0342C60.4774 39.083 60.4796 39.1318 60.4819 39.178L60.4876 39.2906L60.4815 39.2948C60.5007 39.6993 60.5087 40.1536 60.5195 40.5942L60.5323 40.6031L60.5348 40.7114C60.5383 40.8662 60.5409 41.0226 60.5437 41.1807L60.5455 41.2734L60.5394 41.279C60.5469 41.7421 60.5535 42.2197 60.5561 42.7091L60.5593 42.7119L60.5597 42.8035C60.5601 42.8822 60.5606 42.9618 60.5608 43.0414L60.5611 43.1341L60.5576 43.1373C60.5592 43.6214 60.5629 44.0914 60.5629 44.5918C60.5629 44.6793 60.564 44.7582 60.564 44.846C60.564 44.9337 60.5629 45.0125 60.5629 45.0998C60.5629 45.6003 60.5592 46.0702 60.5576 46.5544L60.5611 46.5576L60.5608 46.6502C60.5606 46.7298 60.5601 46.8096 60.5597 46.8881L60.5593 46.9797L60.5561 46.9825C60.5535 47.4719 60.5469 47.9495 60.5394 48.4126L60.5455 48.4183L60.5437 48.5109C60.5409 48.6691 60.5382 48.8254 60.5348 48.9803L60.5323 49.0886L60.5195 49.0974C60.5087 49.5381 60.5007 49.9926 60.4815 50.3972L60.4876 50.4014L60.4819 50.514C60.4796 50.5599 60.4774 50.6091 60.4748 50.6578L60.473 50.6879C60.4724 50.6969 60.4728 50.7085 60.4722 50.7174C60.4719 50.7239 60.4708 50.728 60.4704 50.7344L60.4683 50.7763L60.4665 50.7774C60.4462 51.1384 60.4029 51.4091 60.3738 51.7317L60.3987 51.747L60.3862 51.8776C60.3771 51.9722 60.3673 52.0654 60.3571 52.1567L60.3461 52.2579L60.3213 52.2735C60.2817 52.6055 60.2453 52.9571 60.1878 53.2342L60.1938 53.2399L60.1683 53.356C60.1536 53.423 60.1382 53.4864 60.1228 53.5477L60.0997 53.6403L60.0965 53.6418C60.0444 53.8305 59.9795 53.9881 59.913 54.1406L59.9286 54.1583L59.9062 54.2034C59.9817 54.2479 60.0494 54.3023 60.1555 54.3085C60.315 54.3179 60.5053 54.2833 60.6845 54.2283C61.0428 54.1182 61.3455 53.9357 61.3455 53.9357L61.4183 53.8914L61.5014 53.9098C61.5014 53.9098 63.0772 54.2577 64.6693 54.0831C64.8845 54.0595 65.0216 54.0507 65.1549 54.087C65.2216 54.1051 65.3269 54.1488 65.3623 54.2759C65.3977 54.4029 65.3317 54.4908 65.2874 54.5393C65.1987 54.6362 65.0909 54.6933 64.9391 54.7672C64.7873 54.8412 64.596 54.9194 64.3718 54.9987C63.4747 55.3159 62.0481 55.6516 60.6738 55.6516C59.3589 55.6516 58.5609 55.8745 57.5521 56.2367C56.5803 56.5855 55.3831 57.0679 53.4497 57.579C53.4636 57.6838 53.4693 57.776 53.4827 57.8815C53.5148 58.1326 53.5361 58.386 53.5573 58.6388C57.8011 57.9231 60.3858 59.2084 63.1366 58.9672C64.5503 58.8431 65.2586 58.5349 65.8167 58.1662C66.3749 57.7976 66.7979 57.3387 67.5748 56.9503C69.0035 56.2359 72.5277 53.5745 73.743 51.7158C74.3717 50.7543 74.7445 50.0833 74.97 49.1305C75.1955 48.1776 75.2714 46.9289 75.2714 44.8463ZM64.442 54.5144C62.9236 54.629 61.5846 54.3562 61.4818 54.3337C61.4184 54.3712 61.1815 54.5176 60.8084 54.6323C60.5987 54.6967 60.3659 54.7441 60.1306 54.7303C59.9745 54.7211 59.8209 54.6645 59.6776 54.5811C59.5839 54.702 59.4794 54.805 59.3506 54.8694C59.1274 54.9811 58.8573 54.9692 58.6008 54.8506C57.7605 54.4618 56.6833 53.8932 55.7183 53.6549C55.2359 53.5357 54.7864 53.5013 54.4161 53.5942C54.0458 53.6871 53.7472 53.8938 53.5175 54.3138C53.149 54.988 53.2599 56.0396 53.4029 57.1519C55.2697 56.6542 56.435 56.1888 57.4093 55.839C58.4339 55.4712 59.3099 55.2291 60.6738 55.2291C61.9783 55.2291 63.3795 54.9015 64.2312 54.6003C64.3171 54.5699 64.3681 54.5437 64.442 54.5144ZM64.4417 35.1775C64.3679 35.1483 64.3169 35.122 64.2312 35.0916C63.3795 34.7904 61.9783 34.4629 60.6738 34.4629C59.3099 34.4629 58.4339 34.2208 57.4093 33.8529C56.435 33.5031 55.2697 33.0374 53.4029 32.5397C53.2598 33.6521 53.149 34.7039 53.5175 35.3781C53.7472 35.7982 54.0458 36.0045 54.4161 36.0974C54.7864 36.1903 55.2359 36.1562 55.7183 36.0371C56.6833 35.7988 57.7605 35.2298 58.6008 34.841C58.8573 34.7222 59.1274 34.7105 59.3506 34.8222C59.4793 34.8865 59.5836 34.99 59.6772 35.1108C59.8206 35.0272 59.9743 34.9705 60.1306 34.9613C60.3659 34.9475 60.5987 34.9949 60.8083 35.0593C61.1813 35.1739 61.4178 35.3203 61.4815 35.3579C61.5838 35.3355 62.9231 35.063 64.4417 35.1775ZM60.1402 44.9418V44.8463V44.7497C59.9074 44.5033 59.7465 44.2017 59.7465 43.8622C59.7465 43.5259 59.9051 43.2271 60.1342 42.9817C60.134 42.9431 60.134 42.9037 60.1338 42.8653C59.905 42.62 59.7465 42.3216 59.7465 41.9855C59.7465 41.6605 59.897 41.3722 60.1121 41.1324C60.11 41.0118 60.1044 40.9059 60.1018 40.7876C59.8279 40.5624 59.6265 40.2754 59.6265 39.9345C59.6265 39.6205 59.8005 39.3513 60.0394 39.1329C59.7666 38.9519 59.5544 38.7181 59.5544 38.415C59.5544 38.1567 59.7165 37.9499 59.9261 37.7795C59.9204 37.7266 59.9158 37.6699 59.9098 37.6183C59.6792 37.4292 59.5047 37.189 59.5047 36.8969C59.5047 36.6911 59.5977 36.5106 59.7234 36.3527C59.7192 36.3349 59.7155 36.315 59.7113 36.2976C59.5155 36.1663 59.3556 35.9934 59.3556 35.758C59.3556 35.6744 59.4103 35.613 59.444 35.5411C59.3498 35.3741 59.2513 35.245 59.1617 35.2002C59.0586 35.1486 58.9534 35.1437 58.7783 35.2247C57.9569 35.6048 56.8637 36.1893 55.8195 36.4471C55.2974 36.576 54.7831 36.6254 54.3131 36.5074C53.8432 36.3895 53.4254 36.0909 53.1465 35.5808C52.6729 34.7143 52.8259 33.5732 52.9864 32.4218L52.9754 32.419L53.0006 32.2329C53.0559 31.8256 53.1022 31.4214 53.1352 31.0241C53.1414 30.9483 53.1531 30.8692 53.1575 30.7944C53.217 29.7912 53.1068 28.8819 52.4851 28.2343C51.0976 26.7889 48.0827 26.2002 45.7208 26.8731L45.6633 26.8894L45.6054 26.8731C44.3478 26.5171 42.9954 26.4345 41.8766 26.5955C40.7652 26.7553 39.9041 27.166 39.566 27.7067L39.506 27.8864L39.3264 27.815C39.3093 27.811 39.2927 27.8049 39.2771 27.7969C37.7089 27.1796 35.9067 26.8388 33.8437 26.91C29.6073 27.0561 26.1199 29.5625 23.679 33.0325C21.2381 36.5024 19.8605 40.9308 19.8603 44.8456C19.8605 48.7603 21.2381 53.1895 23.679 56.6595C26.1199 60.1295 29.6073 62.6354 33.8437 62.7815C35.9158 62.8529 37.7257 62.5101 39.2987 61.8876L39.5018 61.807L39.565 61.9834C39.9024 62.5248 40.7643 62.9364 41.8766 63.0965C42.9954 63.2574 44.3478 63.1746 45.6054 62.8185L45.6633 62.8021L45.7208 62.8185C48.0827 63.4915 51.0976 62.903 52.4851 61.4577C53.1532 60.7617 53.2246 59.7597 53.1352 58.6675C53.1022 58.2702 53.0559 57.8662 53.0006 57.4586L52.9754 57.2726L52.9864 57.2698C52.8259 56.1184 52.6729 54.9776 53.1465 54.1111C53.4254 53.601 53.8432 53.302 54.3131 53.1841C54.7831 53.0662 55.2974 53.1155 55.8195 53.2445C56.8637 53.5023 57.9569 54.0871 58.7783 54.4672C58.9534 54.5482 59.0585 54.543 59.1617 54.4913C59.2513 54.4465 59.3498 54.3175 59.444 54.1505C59.4104 54.0786 59.3556 54.0171 59.3556 53.9336C59.3556 53.6981 59.5154 53.5253 59.7113 53.3939C59.7155 53.3766 59.7192 53.3567 59.7234 53.3389C59.5977 53.181 59.5047 53.0004 59.5047 52.7947C59.5047 52.5027 59.6791 52.2627 59.9098 52.0736C59.9158 52.0221 59.9204 51.9653 59.9261 51.9124C59.7165 51.742 59.5544 51.5348 59.5544 51.2766C59.5544 50.9735 59.7666 50.7397 60.0394 50.5587C59.8006 50.3402 59.6265 50.0712 59.6265 49.7571C59.6265 49.4161 59.8281 49.1292 60.1022 48.9039C60.1048 48.7857 60.11 48.6797 60.1121 48.5592C59.897 48.3193 59.7465 48.0313 59.7465 47.7064C59.7465 47.3704 59.905 47.0716 60.1338 46.8263C60.134 46.7879 60.134 46.7484 60.1342 46.7099C59.9052 46.4645 59.7465 46.1657 59.7465 45.8294C59.7465 45.49 59.9075 45.1884 60.1402 44.9418ZM60.0802 49.6576C60.0737 49.6911 60.0493 49.7232 60.0493 49.757C60.0493 49.787 60.0699 49.8154 60.0749 49.8451C60.0771 49.7846 60.0782 49.719 60.0802 49.6576ZM60.0802 40.0339C60.0782 39.9727 60.0767 39.9073 60.0745 39.8468C60.0696 39.8764 60.0493 39.9047 60.0493 39.9345C60.0493 39.9683 60.0737 40.0004 60.0802 40.0339ZM59.9953 51.2329C59.993 51.2469 59.9769 51.2631 59.9769 51.2766C59.9769 51.2857 59.9868 51.2966 59.9879 51.306C59.9899 51.2799 59.9933 51.2593 59.9953 51.2329ZM59.9953 38.4587C59.9933 38.4325 59.9899 38.4119 59.9879 38.3859C59.9868 38.3952 59.9769 38.4059 59.9769 38.415C59.9769 38.4285 59.993 38.4447 59.9953 38.4587Z" fill="black" fill-opacity="0.995516"/>
<path d="M75.6939 44.8463C75.6939 46.9389 75.6207 48.2155 75.3811 49.2277C75.1415 50.2399 74.7329 50.9737 74.0966 51.9468C72.782 53.9574 69.312 56.5543 67.764 57.3283C67.0527 57.684 66.6572 58.1178 66.0496 58.5191C65.442 58.9204 64.6373 59.2594 63.1739 59.3878C60.2627 59.6431 57.7452 58.3477 53.5836 59.0612C53.6231 60.0612 53.4867 61.0245 52.7901 61.7502C51.2481 63.3564 48.1657 63.9283 45.6643 63.2377C44.3635 63.5975 42.9858 63.6829 41.8166 63.5147C40.7113 63.3556 39.7962 62.9702 39.3133 62.3282C37.7185 62.9382 35.8972 63.2753 33.8292 63.204C29.4343 63.0525 25.8282 60.4495 23.3332 56.9027C20.8382 53.3558 19.4377 48.8597 19.4375 44.8463C19.4377 40.8328 20.8382 36.3361 23.3332 32.7893C25.8282 29.2424 29.4343 26.6394 33.8292 26.4879C35.8972 26.4165 37.7185 26.7534 39.3133 27.3634C39.7962 26.7214 40.7113 26.3359 41.8166 26.1769C42.9858 26.0087 44.3635 26.0941 45.6643 26.4538C48.1657 25.7634 51.2481 26.3352 52.7901 27.9414C53.4867 28.6671 53.6231 29.6307 53.5836 30.6307C57.745 31.3442 60.2625 30.0484 63.1735 30.3037C64.6367 30.4321 65.4421 30.7716 66.0496 31.1728C66.6572 31.5741 67.0527 32.0076 67.764 32.3632C69.312 33.1372 72.782 35.7342 74.0966 37.7447C74.7329 38.7179 75.1415 39.452 75.3811 40.4642C75.6207 41.4764 75.6939 42.7537 75.6939 44.8463ZM75.2714 44.8463C75.2714 42.7637 75.1955 41.5144 74.97 40.5615C74.7445 39.6086 74.3717 38.9373 73.743 37.9758C72.5277 36.1171 69.0035 33.4557 67.5748 32.7413C66.7979 32.353 66.3749 31.894 65.8167 31.5254C65.2586 31.1567 64.5503 30.8487 63.1366 30.7248C60.3858 30.4834 57.8011 31.7689 53.5573 31.0532C53.5361 31.306 53.5148 31.5594 53.4827 31.8105C53.4693 31.9159 53.4636 32.0082 53.4497 32.1129C55.3831 32.6241 56.5803 33.1061 57.5521 33.4549C58.5609 33.8171 59.3589 34.04 60.6738 34.04C62.0481 34.04 63.4747 34.376 64.3718 34.6933C64.596 34.7726 64.7873 34.8504 64.9391 34.9244C65.0909 34.9983 65.1987 35.0554 65.2874 35.1523C65.3317 35.2008 65.3977 35.289 65.3623 35.4161C65.3268 35.5432 65.2216 35.5865 65.1549 35.6046C65.0216 35.6409 64.8841 35.6322 64.6689 35.6085C63.077 35.434 61.5014 35.7818 61.5014 35.7818L61.4183 35.8006L61.3455 35.7562C61.3455 35.7562 61.0428 35.5735 60.6845 35.4633C60.5053 35.4082 60.315 35.3737 60.1555 35.3831C60.0494 35.3893 59.9817 35.4437 59.9062 35.4882L59.9286 35.5333L59.913 35.551C59.9795 35.7035 60.0444 35.8609 60.0965 36.0495L60.0997 36.0513L60.1228 36.144C60.1382 36.2052 60.1536 36.2687 60.1683 36.3357L60.1938 36.4518L60.1878 36.4574C60.2453 36.7346 60.2817 37.0863 60.3213 37.4185L60.3461 37.4341L60.3571 37.5353C60.3673 37.6265 60.3771 37.7198 60.3862 37.8143L60.3987 37.945L60.3738 37.9603C60.4029 38.2827 60.4462 38.5535 60.4665 38.9142L60.4683 38.9153L60.4704 38.9579C60.4708 38.9642 60.4719 38.9682 60.4722 38.9746C60.4728 38.9834 60.4724 38.9948 60.473 39.0037L60.4748 39.0342C60.4774 39.083 60.4796 39.1318 60.4819 39.178L60.4876 39.2906L60.4815 39.2948C60.5007 39.6993 60.5087 40.1536 60.5195 40.5942L60.5323 40.6031L60.5348 40.7114C60.5383 40.8662 60.5409 41.0226 60.5437 41.1807L60.5455 41.2734L60.5394 41.279C60.5469 41.7421 60.5535 42.2197 60.5561 42.7091L60.5593 42.7119L60.5597 42.8035C60.5601 42.8822 60.5606 42.9618 60.5608 43.0414L60.5611 43.1341L60.5576 43.1373C60.5592 43.6214 60.5629 44.0914 60.5629 44.5918C60.5629 44.6793 60.564 44.7582 60.564 44.846C60.564 44.9337 60.5629 45.0125 60.5629 45.0998C60.5629 45.6003 60.5592 46.0702 60.5576 46.5544L60.5611 46.5576L60.5608 46.6502C60.5606 46.7298 60.5601 46.8096 60.5597 46.8881L60.5593 46.9797L60.5561 46.9825C60.5535 47.4719 60.5469 47.9495 60.5394 48.4126L60.5455 48.4183L60.5437 48.5109C60.5409 48.6691 60.5382 48.8254 60.5348 48.9803L60.5323 49.0886L60.5195 49.0974C60.5087 49.5381 60.5007 49.9926 60.4815 50.3972L60.4876 50.4014L60.4819 50.514C60.4796 50.5599 60.4774 50.6091 60.4748 50.6578L60.473 50.6879C60.4724 50.6969 60.4728 50.7085 60.4722 50.7174C60.4719 50.7239 60.4708 50.728 60.4704 50.7344L60.4683 50.7763L60.4665 50.7774C60.4462 51.1384 60.4029 51.4091 60.3738 51.7317L60.3987 51.747L60.3862 51.8776C60.3771 51.9722 60.3673 52.0654 60.3571 52.1567L60.3461 52.2579L60.3213 52.2735C60.2817 52.6055 60.2453 52.9571 60.1878 53.2342L60.1938 53.2399L60.1683 53.356C60.1536 53.423 60.1382 53.4864 60.1228 53.5477L60.0997 53.6403L60.0965 53.6418C60.0444 53.8305 59.9795 53.9881 59.913 54.1406L59.9286 54.1583L59.9062 54.2034C59.9817 54.2479 60.0494 54.3023 60.1555 54.3085C60.315 54.3179 60.5053 54.2833 60.6845 54.2283C61.0428 54.1182 61.3455 53.9357 61.3455 53.9357L61.4183 53.8914L61.5014 53.9098C61.5014 53.9098 63.0772 54.2577 64.6693 54.0831C64.8845 54.0595 65.0216 54.0507 65.1549 54.087C65.2216 54.1051 65.3269 54.1488 65.3623 54.2759C65.3977 54.4029 65.3317 54.4908 65.2874 54.5393C65.1987 54.6362 65.0909 54.6933 64.9391 54.7672C64.7873 54.8412 64.596 54.9194 64.3718 54.9987C63.4747 55.3159 62.0481 55.6516 60.6738 55.6516C59.3589 55.6516 58.5609 55.8745 57.5521 56.2367C56.5803 56.5855 55.3831 57.0679 53.4497 57.579C53.4636 57.6838 53.4693 57.776 53.4827 57.8815C53.5148 58.1326 53.5361 58.386 53.5573 58.6388C57.8011 57.9231 60.3858 59.2084 63.1366 58.9672C64.5503 58.8431 65.2586 58.5349 65.8167 58.1662C66.3749 57.7976 66.7979 57.3387 67.5748 56.9503C69.0035 56.2359 72.5277 53.5745 73.743 51.7158C74.3717 50.7543 74.7445 50.0833 74.97 49.1305C75.1955 48.1776 75.2714 46.9289 75.2714 44.8463ZM64.442 54.5144C62.9236 54.629 61.5846 54.3562 61.4818 54.3337C61.4184 54.3712 61.1815 54.5176 60.8084 54.6323C60.5987 54.6967 60.3659 54.7441 60.1306 54.7303C59.9745 54.7211 59.8209 54.6645 59.6776 54.5811C59.5839 54.702 59.4794 54.805 59.3506 54.8694C59.1274 54.9811 58.8573 54.9692 58.6008 54.8506C57.7605 54.4618 56.6833 53.8932 55.7183 53.6549C55.2359 53.5357 54.7864 53.5013 54.4161 53.5942C54.0458 53.6871 53.7472 53.8938 53.5175 54.3138C53.149 54.988 53.2599 56.0396 53.4029 57.1519C55.2697 56.6542 56.435 56.1888 57.4093 55.839C58.4339 55.4712 59.3099 55.2291 60.6738 55.2291C61.9783 55.2291 63.3795 54.9015 64.2312 54.6003C64.3171 54.5699 64.3681 54.5437 64.442 54.5144ZM64.4417 35.1775C64.3679 35.1483 64.3169 35.122 64.2312 35.0916C63.3795 34.7904 61.9783 34.4629 60.6738 34.4629C59.3099 34.4629 58.4339 34.2208 57.4093 33.8529C56.435 33.5031 55.2697 33.0374 53.4029 32.5397C53.2598 33.6521 53.149 34.7039 53.5175 35.3781C53.7472 35.7982 54.0458 36.0045 54.4161 36.0974C54.7864 36.1903 55.2359 36.1562 55.7183 36.0371C56.6833 35.7988 57.7605 35.2298 58.6008 34.841C58.8573 34.7222 59.1274 34.7105 59.3506 34.8222C59.4793 34.8865 59.5836 34.99 59.6772 35.1108C59.8206 35.0272 59.9743 34.9705 60.1306 34.9613C60.3659 34.9475 60.5987 34.9949 60.8083 35.0593C61.1813 35.1739 61.4178 35.3203 61.4815 35.3579C61.5838 35.3355 62.9231 35.063 64.4417 35.1775ZM60.1402 44.9418V44.8463V44.7497C59.9074 44.5033 59.7465 44.2017 59.7465 43.8622C59.7465 43.5259 59.9051 43.2271 60.1342 42.9817C60.134 42.9431 60.134 42.9037 60.1338 42.8653C59.905 42.62 59.7465 42.3216 59.7465 41.9855C59.7465 41.6605 59.897 41.3722 60.1121 41.1324C60.11 41.0118 60.1044 40.9059 60.1018 40.7876C59.8279 40.5624 59.6265 40.2754 59.6265 39.9345C59.6265 39.6205 59.8005 39.3513 60.0394 39.1329C59.7666 38.9519 59.5544 38.7181 59.5544 38.415C59.5544 38.1567 59.7165 37.9499 59.9261 37.7795C59.9204 37.7266 59.9158 37.6699 59.9098 37.6183C59.6792 37.4292 59.5047 37.189 59.5047 36.8969C59.5047 36.6911 59.5977 36.5106 59.7234 36.3527C59.7192 36.3349 59.7155 36.315 59.7113 36.2976C59.5155 36.1663 59.3556 35.9934 59.3556 35.758C59.3556 35.6744 59.4103 35.613 59.444 35.5411C59.3498 35.3741 59.2513 35.245 59.1617 35.2002C59.0586 35.1486 58.9534 35.1437 58.7783 35.2247C57.9569 35.6048 56.8637 36.1893 55.8195 36.4471C55.2974 36.576 54.7831 36.6254 54.3131 36.5074C53.8432 36.3895 53.4254 36.0909 53.1465 35.5808C52.6729 34.7143 52.8259 33.5732 52.9864 32.4218L52.9754 32.419L53.0006 32.2329C53.0559 31.8256 53.1022 31.4214 53.1352 31.0241C53.1414 30.9483 53.1531 30.8692 53.1575 30.7944C53.217 29.7912 53.1068 28.8819 52.4851 28.2343C51.0976 26.7889 48.0827 26.2002 45.7208 26.8731L45.6633 26.8894L45.6054 26.8731C44.3478 26.5171 42.9954 26.4345 41.8766 26.5955C40.7652 26.7553 39.9041 27.166 39.566 27.7067L39.506 27.8864L39.3264 27.815C39.3093 27.811 39.2927 27.8049 39.2771 27.7969C37.7089 27.1796 35.9067 26.8388 33.8437 26.91C29.6073 27.0561 26.1199 29.5625 23.679 33.0325C21.2381 36.5024 19.8605 40.9308 19.8603 44.8456C19.8605 48.7603 21.2381 53.1895 23.679 56.6595C26.1199 60.1295 29.6073 62.6354 33.8437 62.7815C35.9158 62.8529 37.7257 62.5101 39.2987 61.8876L39.5018 61.807L39.565 61.9834C39.9024 62.5248 40.7643 62.9364 41.8766 63.0965C42.9954 63.2574 44.3478 63.1746 45.6054 62.8185L45.6633 62.8021L45.7208 62.8185C48.0827 63.4915 51.0976 62.903 52.4851 61.4577C53.1532 60.7617 53.2246 59.7597 53.1352 58.6675C53.1022 58.2702 53.0559 57.8662 53.0006 57.4586L52.9754 57.2726L52.9864 57.2698C52.8259 56.1184 52.6729 54.9776 53.1465 54.1111C53.4254 53.601 53.8432 53.302 54.3131 53.1841C54.7831 53.0662 55.2974 53.1155 55.8195 53.2445C56.8637 53.5023 57.9569 54.0871 58.7783 54.4672C58.9534 54.5482 59.0585 54.543 59.1617 54.4913C59.2513 54.4465 59.3498 54.3175 59.444 54.1505C59.4104 54.0786 59.3556 54.0171 59.3556 53.9336C59.3556 53.6981 59.5154 53.5253 59.7113 53.3939C59.7155 53.3766 59.7192 53.3567 59.7234 53.3389C59.5977 53.181 59.5047 53.0004 59.5047 52.7947C59.5047 52.5027 59.6791 52.2627 59.9098 52.0736C59.9158 52.0221 59.9204 51.9653 59.9261 51.9124C59.7165 51.742 59.5544 51.5348 59.5544 51.2766C59.5544 50.9735 59.7666 50.7397 60.0394 50.5587C59.8006 50.3402 59.6265 50.0712 59.6265 49.7571C59.6265 49.4161 59.8281 49.1292 60.1022 48.9039C60.1048 48.7857 60.11 48.6797 60.1121 48.5592C59.897 48.3193 59.7465 48.0313 59.7465 47.7064C59.7465 47.3704 59.905 47.0716 60.1338 46.8263C60.134 46.7879 60.134 46.7484 60.1342 46.7099C59.9052 46.4645 59.7465 46.1657 59.7465 45.8294C59.7465 45.49 59.9075 45.1884 60.1402 44.9418ZM60.0802 49.6576C60.0737 49.6911 60.0493 49.7232 60.0493 49.757C60.0493 49.787 60.0699 49.8154 60.0749 49.8451C60.0771 49.7846 60.0782 49.719 60.0802 49.6576ZM60.0802 40.0339C60.0782 39.9727 60.0767 39.9073 60.0745 39.8468C60.0696 39.8764 60.0493 39.9047 60.0493 39.9345C60.0493 39.9683 60.0737 40.0004 60.0802 40.0339ZM59.9953 51.2329C59.993 51.2469 59.9769 51.2631 59.9769 51.2766C59.9769 51.2857 59.9868 51.2966 59.9879 51.306C59.9899 51.2799 59.9933 51.2593 59.9953 51.2329ZM59.9953 38.4587C59.9933 38.4325 59.9899 38.4119 59.9879 38.3859C59.9868 38.3952 59.9769 38.4059 59.9769 38.415C59.9769 38.4285 59.993 38.4447 59.9953 38.4587Z" stroke="black" stroke-opacity="0.990476" stroke-width="0.878906" stroke-linecap="round"/>
</g>
<path d="M40.2635 68.1826C42.3686 68.286 39.4244 60.6463 39.4244 60.6463C38.631 64.2605 39.0692 67.83 40.2635 68.1826Z" fill="#0D0D0D"/>
<path d="M53.3716 30.8177C53.3425 31.2933 53.2763 31.7817 53.2109 32.2638C57.3262 33.3237 57.9959 34.2538 60.6747 34.2538C63.3535 34.2538 66.33 35.5806 64.6929 35.4008C63.0559 35.2212 61.4561 35.578 61.4561 35.578C61.4561 35.578 60.1759 34.7991 59.6255 35.4008C60.3532 36.6767 60.3533 40.5415 60.3533 44.8478C60.3533 49.1538 60.3526 53.0188 59.6249 54.2947C60.1753 54.8964 61.4561 54.1176 61.4561 54.1176C61.4561 54.1176 63.0559 54.4743 64.6929 54.2947C66.33 54.1151 63.3535 55.4417 60.6747 55.4417C57.9959 55.4417 57.3262 56.3718 53.2109 57.4317C53.2763 57.914 53.3425 58.4022 53.3716 58.8777C57.6992 58.0832 60.2788 59.4313 63.1561 59.179C66.0332 58.9265 66.182 57.8847 67.6702 57.1407C69.1586 56.3965 72.6557 53.7674 73.9207 51.8327C75.1856 49.8981 75.4834 49.0229 75.4834 44.8477C75.4834 40.6726 75.1856 39.7971 73.9207 37.8625C72.6557 35.9279 69.1586 33.2988 67.6702 32.5546C66.182 31.8106 66.0332 30.7688 63.1561 30.5165C60.2788 30.2641 57.6992 31.6122 53.3716 30.8177Z" fill="#CCC1B3"/>
<path d="M53.3716 30.8177C53.3425 31.2933 53.2763 31.7817 53.2109 32.2638C57.3262 33.3237 57.9959 34.2538 60.6747 34.2538C63.3535 34.2538 66.33 35.5806 64.6929 35.4008C63.0559 35.2212 61.4561 35.578 61.4561 35.578C61.4561 35.578 60.1759 34.7991 59.6255 35.4008C60.3532 36.6767 60.3533 40.5415 60.3533 44.8478C60.3533 49.1538 60.3526 53.0188 59.6249 54.2947C60.1753 54.8964 61.4561 54.1176 61.4561 54.1176C61.4561 54.1176 63.0559 54.4743 64.6929 54.2947C66.33 54.1151 63.3535 55.4417 60.6747 55.4417C57.9959 55.4417 57.3262 56.3718 53.2109 57.4317C53.2763 57.914 53.3425 58.4022 53.3716 58.8777C57.6992 58.0832 60.2788 59.4313 63.1561 59.179C66.0332 58.9265 66.182 57.8847 67.6702 57.1407C69.1586 56.3965 72.6557 53.7674 73.9207 51.8327C75.1856 49.8981 75.4834 49.0229 75.4834 44.8477C75.4834 40.6726 75.1856 39.7971 73.9207 37.8625C72.6557 35.9279 69.1586 33.2988 67.6702 32.5546C66.182 31.8106 66.0332 30.7688 63.1561 30.5165C60.2788 30.2641 57.6992 31.6122 53.3716 30.8177Z" stroke="black" stroke-opacity="0.861905" stroke-width="0.351562" stroke-linecap="round"/>
<path d="M60.3212 48.9759C60.0209 49.1817 59.8359 49.4553 59.8359 49.7574C59.8359 50.042 59.9989 50.3021 60.2687 50.5037C60.4926 50.7153 62.3863 50.6722 62.3891 50.672L62.3903 50.6652C62.4685 50.2607 62.5434 49.837 62.6126 49.4012L62.7108 48.8427L62.6973 48.841C62.5399 48.823 60.919 48.6489 60.3212 48.9759Z" fill="#EEEDEB"/>
<path d="M60.3212 48.9759C60.0209 49.1817 59.8359 49.4553 59.8359 49.7574C59.8359 50.042 59.9989 50.3021 60.2687 50.5037C60.4926 50.7153 62.3863 50.6722 62.3891 50.672L62.3903 50.6652C62.4685 50.2607 62.5434 49.837 62.6126 49.4012L62.7108 48.8427L62.6973 48.841C62.5399 48.823 60.919 48.6489 60.3212 48.9759Z" stroke="black" stroke-opacity="0.614286" stroke-width="0.0703125"/>
<g filter="url(#filter3_f_394_7144)">
<path d="M60.6723 55.4435C63.3511 55.4435 66.3277 54.1169 64.6906 54.2965C63.0535 54.4761 61.4538 54.1195 61.4538 54.1195C61.4538 54.1195 60.1735 54.8982 59.6231 54.2965C59.3926 54.7007 59.0891 54.8473 58.6892 54.6622C57.0272 53.8933 54.3484 52.3554 53.3316 54.2156C52.8817 55.0385 53.0431 56.2157 53.2085 57.4336C57.3239 56.3736 57.9935 55.4435 60.6723 55.4435Z" fill="#2B2926"/>
</g>
<path d="M60.6599 50.6154C60.4689 50.5899 60.3018 50.6373 60.2636 50.6473C59.9555 50.8122 59.7656 51.0336 59.7656 51.2779C59.7656 51.498 59.9197 51.6998 60.1757 51.8585C60.7104 52.2166 62.0977 52.0291 62.1008 52.0286L62.1063 52.0057C62.1617 51.7703 62.217 51.5231 62.2717 51.2637L62.3909 50.7288L62.38 50.727C62.3837 50.7087 62.3873 50.6909 62.3909 50.6723C62.3899 50.6723 62.1172 50.6786 61.7671 50.6748C61.4101 50.6469 60.9729 50.619 60.6599 50.6154Z" fill="#EEEDEB"/>
<path d="M60.6599 50.6154C60.4689 50.5899 60.3018 50.6373 60.2636 50.6473C59.9555 50.8122 59.7656 51.0336 59.7656 51.2779C59.7656 51.498 59.9197 51.6998 60.1757 51.8585C60.7104 52.2166 62.0977 52.0291 62.1008 52.0286L62.1063 52.0057C62.1617 51.7703 62.217 51.5231 62.2717 51.2637L62.3909 50.7288L62.38 50.727C62.3837 50.7087 62.3873 50.6909 62.3909 50.6723C62.3899 50.6723 62.1172 50.6786 61.7671 50.6748C61.4101 50.6469 60.9729 50.619 60.6599 50.6154Z" stroke="black" stroke-opacity="0.614286" stroke-width="0.0703125"/>
<path d="M60.3507 44.848C60.1055 45.0749 59.957 45.5206 59.957 45.8309C59.957 46.1406 60.1041 46.4249 60.3486 46.651C61.007 47.0139 62.919 46.8835 62.9259 46.883L62.9266 46.874C62.9855 46.1831 63.0199 45.4982 63.0199 44.847L60.3507 44.848Z" fill="#EEEDEB"/>
<path d="M60.3507 44.848C60.1055 45.0749 59.957 45.5206 59.957 45.8309C59.957 46.1406 60.1041 46.4249 60.3486 46.651C61.007 47.0139 62.919 46.8835 62.9259 46.883L62.9266 46.874C62.9855 46.1831 63.0199 45.4982 63.0199 44.847L60.3507 44.848Z" stroke="black" stroke-opacity="0.614286" stroke-width="0.0703125"/>
<path d="M61.5134 52.0728C61.4082 52.0728 61.2949 52.0746 61.1795 52.0751C60.7769 52.0802 60.349 52.0951 60.1461 52.1331C60.0643 52.1484 59.7148 52.3828 59.7148 52.7944C59.7148 52.986 59.8064 53.1632 59.9607 53.3104C60.3626 53.6414 61.7334 53.3872 61.7334 53.3872L61.7339 53.3852C61.8455 53.0317 61.966 52.5885 62.0871 52.0803L62.0881 52.0766C62.0921 52.06 62.0958 52.0439 62.0998 52.0271C62.0998 52.0271 61.8448 52.0614 61.5134 52.0728Z" fill="#EEEDEB" stroke="black" stroke-opacity="0.614286" stroke-width="0.0703125"/>
<path d="M60.3477 46.8894C60.1037 47.1154 59.957 47.3995 59.957 47.7089C59.957 48.0104 60.0983 48.2867 60.3317 48.5096C61.2674 48.7639 62.7087 48.7499 62.7122 48.7499C62.7952 48.1626 62.8659 47.5616 62.9187 46.9642C62.9145 46.9642 60.9144 46.8565 60.3477 46.8894Z" fill="#EEEDEB" stroke="black" stroke-opacity="0.614286" stroke-width="0.0703125"/>
<path d="M59.5664 53.9349C59.5666 54.0274 59.6064 54.1149 59.6758 54.1934C59.8611 54.403 60.0754 54.4844 60.5431 54.4844C60.9895 54.4844 61.4547 54.1176 61.4547 54.1176C61.5237 53.9872 61.6037 53.7847 61.6899 53.5246C61.6894 53.5246 59.5657 53.2651 59.5664 53.9349Z" fill="#EEEDEB"/>
<path d="M59.5664 53.9349C59.5666 54.0274 59.6064 54.1149 59.6758 54.1934C59.8611 54.403 60.0754 54.4844 60.5431 54.4844C60.9895 54.4844 61.4547 54.1176 61.4547 54.1176C61.5237 53.9872 61.6037 53.7847 61.6899 53.5246C61.6894 53.5246 59.5657 53.2651 59.5664 53.9349Z" stroke="black" stroke-opacity="0.614286" stroke-width="0.0703125"/>
<path d="M60.3507 44.8465C60.1055 44.6198 59.957 44.174 59.957 43.8637C59.957 43.5539 60.1041 43.2696 60.3486 43.0435C61.007 42.6807 62.919 42.8112 62.9259 42.8116L62.9266 42.8205C62.9855 43.5114 63.0199 44.1964 63.0199 44.8477L60.3507 44.8465Z" fill="#EEEDEB"/>
<path d="M60.3507 44.8465C60.1055 44.6198 59.957 44.174 59.957 43.8637C59.957 43.5539 60.1041 43.2696 60.3486 43.0435C61.007 42.6807 62.919 42.8112 62.9259 42.8116L62.9266 42.8205C62.9855 43.5114 63.0199 44.1964 63.0199 44.8477L60.3507 44.8465Z" stroke="black" stroke-opacity="0.614286" stroke-width="0.0703125"/>
<path d="M62.1016 52.0284C64.0044 52.2602 65.102 51.6276 64.9904 51.237C64.8788 50.8464 62.3917 50.6727 62.3917 50.6727L62.1016 52.0284Z" fill="#E7E3DF" stroke="black" stroke-opacity="0.614286" stroke-width="0.0703125"/>
<path d="M62.3906 50.6719C64.7661 50.5665 65.3614 50.2875 65.4357 49.5991C65.5102 48.9109 62.7124 48.7477 62.7124 48.7477L62.3906 50.6719Z" fill="#E7E3DF" stroke="black" stroke-opacity="0.614286" stroke-width="0.0703125"/>
<path d="M62.9254 46.8752C65.2668 46.8483 65.7878 47.4063 65.8994 47.9831C66.011 48.5597 62.7109 48.75 62.7109 48.75L62.9254 46.8752Z" fill="#E7E3DF" stroke="black" stroke-opacity="0.614286" stroke-width="0.0703125"/>
<path d="M63.8906 44.8461C65.7322 44.8609 66.2532 45.2464 66.1415 46.1207C66.0299 46.995 62.9258 46.8731 62.9258 46.8731L63.019 44.8461C63.019 44.8461 63.7045 44.8444 63.8906 44.8461Z" fill="#E7E3DF" stroke="black" stroke-opacity="0.614286" stroke-width="0.0703125"/>
<path d="M60.3477 42.8062C60.1037 42.5803 59.957 42.2963 59.957 41.987C59.957 41.6852 60.0983 41.4089 60.3317 41.186C61.2674 40.9317 62.7087 40.9457 62.7122 40.9457C62.7952 41.5331 62.8659 42.134 62.9187 42.7315C62.9145 42.7315 60.9144 42.8393 60.3477 42.8062Z" fill="#EEEDEB" stroke="black" stroke-opacity="0.614286" stroke-width="0.0703125"/>
<path d="M60.3212 40.7166C60.0209 40.5109 59.8359 40.2373 59.8359 39.9352C59.8359 39.6507 59.9989 39.3904 60.2687 39.189C60.4926 38.9772 62.3863 39.0205 62.3891 39.0205L62.3903 39.0273C62.4685 39.4318 62.5434 39.8555 62.6126 40.2916L62.7108 40.8498L62.6973 40.8516C62.5399 40.8696 60.919 41.0436 60.3212 40.7166Z" fill="#EEEDEB"/>
<path d="M60.3212 40.7166C60.0209 40.5109 59.8359 40.2373 59.8359 39.9352C59.8359 39.6507 59.9989 39.3904 60.2687 39.189C60.4926 38.9772 62.3863 39.0205 62.3891 39.0205L62.3903 39.0273C62.4685 39.4318 62.5434 39.8555 62.6126 40.2916L62.7108 40.8498L62.6973 40.8516C62.5399 40.8696 60.919 41.0436 60.3212 40.7166Z" stroke="black" stroke-opacity="0.614286" stroke-width="0.0703125"/>
<path d="M60.6599 39.0785C60.4689 39.1039 60.3018 39.0567 60.2636 39.0467C59.9555 38.8816 59.7656 38.6604 59.7656 38.4161C59.7656 38.1958 59.9197 37.994 60.1757 37.8355C60.7104 37.4774 62.0977 37.6649 62.1008 37.6652L62.1063 37.6883C62.1617 37.9235 62.217 38.1709 62.2717 38.4301L62.3909 38.9652L62.38 38.967C62.3837 38.9854 62.3873 39.0032 62.3909 39.0217C62.3899 39.0217 62.1172 39.0156 61.7671 39.0192C61.4101 39.0469 60.9729 39.0749 60.6599 39.0785Z" fill="#EEEDEB"/>
<path d="M60.6599 39.0785C60.4689 39.1039 60.3018 39.0567 60.2636 39.0467C59.9555 38.8816 59.7656 38.6604 59.7656 38.4161C59.7656 38.1958 59.9197 37.994 60.1757 37.8355C60.7104 37.4774 62.0977 37.6649 62.1008 37.6652L62.1063 37.6883C62.1617 37.9235 62.217 38.1709 62.2717 38.4301L62.3909 38.9652L62.38 38.967C62.3837 38.9854 62.3873 39.0032 62.3909 39.0217C62.3899 39.0217 62.1172 39.0156 61.7671 39.0192C61.4101 39.0469 60.9729 39.0749 60.6599 39.0785Z" stroke="black" stroke-opacity="0.614286" stroke-width="0.0703125"/>
<path d="M61.5134 37.6184C61.4082 37.6184 61.2949 37.6184 61.1795 37.6163C60.7769 37.6112 60.349 37.5961 60.1461 37.5583C60.0643 37.543 59.7148 37.3084 59.7148 36.8968C59.7148 36.7052 59.8064 36.5282 59.9607 36.3808C60.3626 36.0498 61.7334 36.3041 61.7334 36.3041L61.7339 36.306C61.8455 36.6595 61.966 37.1029 62.0871 37.6109L62.0881 37.6146C62.0921 37.6312 62.0958 37.6474 62.0998 37.6641C62.0998 37.6641 61.8448 37.6299 61.5134 37.6184Z" fill="#EEEDEB" stroke="black" stroke-opacity="0.614286" stroke-width="0.0703125"/>
<path d="M59.5664 35.7593C59.5666 35.6668 59.6064 35.5796 59.6758 35.5008C59.8611 35.2913 60.0754 35.21 60.5431 35.21C60.9895 35.21 61.4547 35.5768 61.4547 35.5768C61.5237 35.707 61.6037 35.9095 61.6899 36.1696C61.6894 36.1696 59.5657 36.4291 59.5664 35.7593Z" fill="#EEEDEB"/>
<path d="M59.5664 35.7593C59.5666 35.6668 59.6064 35.5796 59.6758 35.5008C59.8611 35.2913 60.0754 35.21 60.5431 35.21C60.9895 35.21 61.4547 35.5768 61.4547 35.5768C61.5237 35.707 61.6037 35.9095 61.6899 36.1696C61.6894 36.1696 59.5657 36.4291 59.5664 35.7593Z" stroke="black" stroke-opacity="0.614286" stroke-width="0.0703125"/>
<path d="M61.4531 35.5776C62.9598 35.5185 63.6295 36.1222 63.3132 36.2203C62.9971 36.3183 61.6885 36.171 61.6885 36.171L61.4531 35.5776Z" fill="#E7E3DF" stroke="black" stroke-opacity="0.614286" stroke-width="0.0703125"/>
<path d="M61.7344 36.3041C63.2595 36.4651 64.1338 36.8372 64.0967 37.2464C64.0594 37.6558 62.1008 37.6641 62.1008 37.6641L61.7344 36.3041Z" fill="#E7E3DF" stroke="black" stroke-opacity="0.614286" stroke-width="0.0703125"/>
<path d="M62.1016 37.6677C64.0044 37.4361 65.102 38.0685 64.9904 38.4592C64.8788 38.8498 62.3917 39.0234 62.3917 39.0234L62.1016 37.6677Z" fill="#E7E3DF" stroke="black" stroke-opacity="0.614286" stroke-width="0.0703125"/>
<path d="M62.3906 39.0211C64.7661 39.1265 65.3614 39.4057 65.4357 40.0939C65.5102 40.7823 62.7124 40.9453 62.7124 40.9453L62.3906 39.0211Z" fill="#E7E3DF" stroke="black" stroke-opacity="0.614286" stroke-width="0.0703125"/>
<path d="M63.8906 44.8469C65.7322 44.8319 66.2532 44.4466 66.1415 43.5723C66.0299 42.698 62.9258 42.8197 62.9258 42.8197L63.019 44.8469C63.019 44.8469 63.7045 44.8486 63.8906 44.8469Z" fill="#E7E3DF" stroke="black" stroke-opacity="0.614286" stroke-width="0.0703125"/>
<path d="M62.9254 42.8194C65.2668 42.8464 65.7878 42.2883 65.8994 41.7117C66.011 41.135 62.7109 40.9446 62.7109 40.9446L62.9254 42.8194Z" fill="#E7E3DF" stroke="black" stroke-opacity="0.614286" stroke-width="0.0703125"/>
<path d="M61.7344 53.3906C63.2595 53.2295 64.1338 52.8576 64.0967 52.4482C64.0594 52.039 62.1008 52.0305 62.1008 52.0305L61.7344 53.3906Z" fill="#E7E3DF" stroke="black" stroke-opacity="0.614286" stroke-width="0.0703125"/>
<path d="M61.4531 54.117C62.9598 54.176 63.6295 53.5722 63.3132 53.4742C62.9971 53.3761 61.6885 53.5235 61.6885 53.5235L61.4531 54.117Z" fill="#E7E3DF" stroke="black" stroke-opacity="0.614286" stroke-width="0.0703125"/>
<path d="M39.376 27.6089C37.7761 26.9757 35.9356 26.6277 33.8359 26.7002C25.2046 26.9978 19.6487 36.9186 19.6484 44.8468C19.6487 52.7749 25.2046 62.6957 33.8359 62.9934C35.9356 63.0657 37.7759 62.7177 39.3759 62.0846C40.1551 63.3617 43.0878 63.7509 45.6625 63.0218C48.0992 63.7161 51.1664 63.1358 52.6371 61.6039C54.4229 59.7436 52.3147 56.0726 53.3315 54.2123C54.3485 52.3521 57.0273 53.8901 58.6891 54.659C59.1206 54.8586 59.4395 54.6723 59.6759 54.192C59.6065 54.1135 59.5665 54.0261 59.5665 53.9335C59.5665 53.7619 59.7018 53.6078 59.9173 53.4964C59.9324 53.4362 59.9473 53.3748 59.9613 53.3108C59.807 53.1635 59.7154 52.9863 59.7154 52.7947C59.7154 52.5352 59.8808 52.3008 60.1467 52.1334C60.1567 52.0432 60.1662 51.9511 60.1753 51.8573C59.9193 51.6986 59.7652 51.4968 59.7652 51.2767C59.7652 51.0324 59.9552 50.811 60.2633 50.6462C60.2658 50.5994 60.2678 50.5507 60.2702 50.5035C60.0004 50.3019 59.8374 50.0418 59.8374 49.7571C59.8374 49.455 60.0224 49.1814 60.3227 48.9756C60.3261 48.8213 60.3291 48.6652 60.3318 48.5072C60.0984 48.2844 59.9572 48.0081 59.9572 47.7065C59.9572 47.3971 60.1038 47.113 60.3478 46.8871C60.3481 46.8085 60.3485 46.7289 60.3487 46.6497C60.1042 46.4236 59.9571 46.1393 59.9571 45.8295C59.9571 45.5189 60.1051 45.2337 60.3508 45.0072C60.3508 44.9534 60.3508 44.9001 60.3508 44.8463C60.3508 44.7923 60.3508 44.7391 60.3508 44.6852C60.1051 44.459 59.9571 44.1737 59.9571 43.8629C59.9571 43.5532 60.1042 43.2689 60.3487 43.0428C60.3485 42.9635 60.3481 42.8841 60.3478 42.8053C60.1038 42.5794 59.9572 42.2955 59.9572 41.9861C59.9572 41.6843 60.0984 41.4081 60.3318 41.1852C60.3291 41.0272 60.3261 40.8711 60.3227 40.7168C60.0224 40.511 59.8374 40.2375 59.8374 39.9353C59.8374 39.6509 60.0004 39.3906 60.2702 39.1891C60.2678 39.1417 60.2658 39.0932 60.2633 39.0463C59.9552 38.8814 59.7652 38.6602 59.7652 38.4159C59.7652 38.1956 59.9193 37.9938 60.1753 37.8353C60.1662 37.7415 60.1567 37.6492 60.1467 37.5592C59.8808 37.3916 59.7154 37.1575 59.7154 36.8977C59.7154 36.7061 59.807 36.5291 59.9613 36.3817C59.9473 36.3177 59.9324 36.2563 59.9173 36.1961C59.7018 36.0848 59.5665 35.9305 59.5665 35.7589C59.5665 35.6664 59.6065 35.5791 59.6759 35.5004C59.4395 35.02 59.1206 34.8339 58.6891 35.0336C57.0273 35.8025 54.3485 37.3403 53.3315 35.4801C52.3147 33.6198 54.4229 29.9489 52.6371 28.0886C51.1664 26.5566 48.0992 25.9764 45.6625 26.6706C43.0878 25.9417 40.1553 26.3307 39.376 27.6078" fill="#D9D2C9"/>
<path d="M39.376 27.6089C37.7761 26.9757 35.9356 26.6277 33.8359 26.7002C25.2046 26.9978 19.6487 36.9186 19.6484 44.8468C19.6487 52.7749 25.2046 62.6957 33.8359 62.9934C35.9356 63.0657 37.7759 62.7177 39.3759 62.0846C40.1551 63.3617 43.0878 63.7509 45.6625 63.0218C48.0992 63.7161 51.1664 63.1358 52.6371 61.6039C54.4229 59.7436 52.3147 56.0726 53.3315 54.2123C54.3485 52.3521 57.0273 53.8901 58.6891 54.659C59.1206 54.8586 59.4395 54.6723 59.6759 54.192C59.6065 54.1135 59.5665 54.0261 59.5665 53.9335C59.5665 53.7619 59.7018 53.6078 59.9173 53.4964C59.9324 53.4362 59.9473 53.3748 59.9613 53.3108C59.807 53.1635 59.7154 52.9863 59.7154 52.7947C59.7154 52.5352 59.8808 52.3008 60.1467 52.1334C60.1567 52.0432 60.1662 51.9511 60.1753 51.8573C59.9193 51.6986 59.7652 51.4968 59.7652 51.2767C59.7652 51.0324 59.9552 50.811 60.2633 50.6462C60.2658 50.5994 60.2678 50.5507 60.2702 50.5035C60.0004 50.3019 59.8374 50.0418 59.8374 49.7571C59.8374 49.455 60.0224 49.1814 60.3227 48.9756C60.3261 48.8213 60.3291 48.6652 60.3318 48.5072C60.0984 48.2844 59.9572 48.0081 59.9572 47.7065C59.9572 47.3971 60.1038 47.113 60.3478 46.8871C60.3481 46.8085 60.3485 46.7289 60.3487 46.6497C60.1042 46.4236 59.9571 46.1393 59.9571 45.8295C59.9571 45.5189 60.1051 45.2337 60.3508 45.0072C60.3508 44.9534 60.3508 44.9001 60.3508 44.8463C60.3508 44.7923 60.3508 44.7391 60.3508 44.6852C60.1051 44.4589 59.9571 44.1737 59.9571 43.8629C59.9571 43.5532 60.1042 43.2689 60.3487 43.0428C60.3485 42.9635 60.3481 42.8841 60.3478 42.8053C60.1038 42.5794 59.9572 42.2955 59.9572 41.9861C59.9572 41.6843 60.0984 41.4081 60.3318 41.1852C60.3291 41.0272 60.3261 40.8711 60.3227 40.7168C60.0224 40.511 59.8374 40.2375 59.8374 39.9353C59.8374 39.6509 60.0004 39.3906 60.2702 39.1891C60.2678 39.1417 60.2658 39.0932 60.2633 39.0463C59.9552 38.8814 59.7652 38.6602 59.7652 38.4159C59.7652 38.1956 59.9193 37.9938 60.1753 37.8353C60.1662 37.7415 60.1567 37.6492 60.1467 37.5592C59.8808 37.3916 59.7154 37.1575 59.7154 36.8977C59.7154 36.7061 59.807 36.5291 59.9613 36.3817C59.9473 36.3177 59.9324 36.2563 59.9173 36.1961C59.7018 36.0848 59.5665 35.9305 59.5665 35.7589C59.5665 35.6664 59.6065 35.5791 59.6759 35.5004C59.4395 35.02 59.1206 34.8339 58.6891 35.0336C57.0273 35.8025 54.3485 37.3403 53.3315 35.4801C52.3147 33.6198 54.4229 29.9489 52.6371 28.0886C51.1664 26.5566 48.0992 25.9764 45.6625 26.6706C43.0878 25.9417 40.1553 26.3307 39.376 27.6078" stroke="black" stroke-opacity="0.861905" stroke-width="0.351562" stroke-linecap="round"/>
<path d="M40.1737 21.5926C41.4713 21.5289 40.8503 24.4074 40.183 26.625C39.2854 27.4422 39.3346 29.1289 39.3346 29.1289C38.5411 25.5147 38.9794 21.9453 40.1737 21.5926Z" fill="#0D0D0D" stroke="black" stroke-opacity="0.861905" stroke-width="0.316406"/>
<path d="M31.8501 61.3079C31.5807 61.7971 31.4377 62.2397 31.3906 62.6401C32.1744 62.8428 32.9895 62.9653 33.8344 62.9945C35.934 63.0669 37.7743 62.7189 39.3743 62.0857C37.8028 58.9166 33.7353 57.8849 31.8501 61.3079Z" fill="#C7B69E"/>
<path d="M33.8344 26.7003C32.9895 26.7294 32.1744 26.8519 31.3906 27.0546C31.4377 27.455 31.5807 27.8977 31.8501 28.3868C33.7353 31.8098 37.803 30.7778 39.3744 27.6084C37.7745 26.9753 35.934 26.6278 33.8344 26.7003Z" fill="#C7B69E"/>
<g filter="url(#filter4_f_394_7144)">
<path d="M60.6723 34.2524C63.3511 34.2524 66.3277 35.5788 64.6906 35.3992C63.0535 35.2196 61.4538 35.5764 61.4538 35.5764C61.4538 35.5764 60.1735 34.7975 59.6231 35.3992C59.3926 34.9948 59.0891 34.8486 58.6892 35.0337C57.0272 35.8026 54.3484 37.3404 53.3316 35.4801C52.8817 34.6572 53.0431 33.48 53.2085 32.2622C57.3239 33.3223 57.9935 34.2524 60.6723 34.2524Z" fill="#2B2926"/>
</g>
<path d="M49.3479 40.9475C45.6859 41.799 43.9576 43.2581 43.957 44.849C43.9576 46.4397 45.6859 47.8988 49.3479 48.7502C53.0103 49.6016 54.0149 49.6389 54.7962 48.1878C55.5775 46.737 53.0421 46.642 53.0414 44.8486C53.0421 43.0552 55.5775 42.96 54.7962 41.5092C54.0149 40.0581 53.0103 40.0961 49.3479 40.9475Z" fill="#2B2927"/>
<path d="M40.076 68.503C41.3471 68.5655 41.0185 65.3226 40.3675 63.1254C39.0559 61.8444 39.2369 60.9667 39.2369 60.9667C38.4435 64.5809 38.8817 68.1504 40.076 68.503Z" fill="#0D0D0D" stroke="black" stroke-opacity="0.861905" stroke-width="0.316406"/>
<g filter="url(#filter5_f_394_7144)">
<path d="M37.5629 55.6696C36.7743 50.4535 38.048 48.0274 39.3824 47.2995C42.1687 45.7798 47.51 48.0274 48.359 52.8797C49.2082 57.7319 48.7837 61.6137 44.6593 62.2808C40.5348 62.948 38.3514 60.8858 37.5629 55.6696Z" fill="#524B43" fill-opacity="0.547619"/>
</g>
<path d="M38.0616 55.4778C37.4167 51.2116 38.4584 49.2273 39.5498 48.632C41.8287 47.389 46.1972 49.2273 46.8916 53.196C47.5862 57.1645 47.239 60.3393 43.8656 60.885C40.4923 61.4307 38.7065 59.744 38.0616 55.4778Z" fill="#2A2928"/>
<g filter="url(#filter6_f_394_7144)">
<path d="M37.8634 52.9965C37.874 50.6146 38.5724 49.3128 39.3487 48.7586C38.6047 49.7538 38.1153 51.6791 38.6071 54.9326C39.2521 59.1988 41.0376 60.8854 44.411 60.3397C45.1762 60.2159 45.7844 59.9556 46.2613 59.5827C45.7361 60.2518 44.9613 60.7078 43.8657 60.885C40.4923 61.4307 38.7067 59.7441 38.0618 55.4779C37.9207 54.5447 37.8602 53.7207 37.8634 52.9965Z" fill="black" fill-opacity="0.3"/>
</g>
<g filter="url(#filter7_f_394_7144)">
<path d="M38.8047 49.3048C39.0363 48.995 39.2922 48.7743 39.5513 48.633C41.8302 47.39 46.1988 49.2282 46.8931 53.1969C47.4302 56.2651 47.3429 58.8578 45.7173 60.1289C46.809 58.738 46.8168 56.4217 46.3478 53.7422C45.6534 49.7735 41.2849 47.9353 39.006 49.1783C38.9386 49.2151 38.8713 49.2572 38.8047 49.3048Z" fill="black"/>
</g>
<path opacity="0.356" d="M45.4805 62.4742C45.6485 63.2557 46.0061 62.8925 45.9864 62.5175C48.6562 62.5175 51.198 58.8304 51.198 55.2135C51.1968 54.3836 52.0227 52.8067 51.7948 52.0364C52.6616 53.1012 52.2131 55.3673 52.2149 56.953C52.2149 58.2365 52.4641 60.1746 51.9305 61.1214C51.1718 62.4675 49.409 62.581 48.0627 62.581C47.2827 62.5793 46.1411 63.0364 45.4805 62.4742Z" fill="#524B43" stroke="black" stroke-opacity="0.157143" stroke-width="0.175781" stroke-linecap="round"/>
<g filter="url(#filter8_f_394_7144)">
<path d="M37.7504 34.3476C36.9618 39.5638 38.2356 41.9899 39.5699 42.7177C42.3563 44.2375 47.6976 41.9899 48.5466 37.1375C49.3958 32.2854 48.9713 28.4036 44.8468 27.7364C40.7223 27.0692 38.5389 29.1315 37.7504 34.3476Z" fill="#524B43" fill-opacity="0.547619"/>
</g>
<path d="M38.253 34.5395C37.6081 38.8057 38.6498 40.79 39.7412 41.3853C42.0201 42.6282 46.3887 40.79 47.083 36.8213C47.7776 32.8528 47.4304 29.678 44.057 29.1323C40.6837 28.5866 38.8979 30.2733 38.253 34.5395Z" fill="#2A2928"/>
<g filter="url(#filter9_f_394_7144)">
<path d="M38.0548 37.0198C38.0653 39.4018 38.7637 40.7036 39.5401 41.2578C38.7961 40.2625 38.3067 38.3373 38.7985 35.0838C39.4434 30.8176 41.229 29.131 44.6024 29.6767C45.3676 29.8004 45.9758 30.0607 46.4527 30.4337C45.9275 29.7646 45.1527 29.3086 44.0571 29.1313C40.6837 28.5857 38.8981 30.2723 38.2532 34.5385C38.1121 35.4717 38.0516 36.2957 38.0548 37.0198Z" fill="black" fill-opacity="0.295238"/>
</g>
<g filter="url(#filter10_f_394_7144)">
<path d="M38.9922 40.7135C39.2237 41.0233 39.4797 41.244 39.7388 41.3853C42.0177 42.6282 46.3863 40.7901 47.0806 36.8214C47.6176 33.7531 47.5304 31.1604 45.9048 29.8894C46.9965 31.2802 47.0043 33.5966 46.5353 36.2761C45.8409 40.2448 41.4723 42.0829 39.1935 40.84C39.126 40.8032 39.0588 40.7611 38.9922 40.7135Z" fill="black"/>
</g>
<path opacity="0.356" d="M45.6719 27.5427C45.8399 26.7613 46.1975 27.1243 46.1778 27.4994C48.8476 27.4993 51.3894 31.1864 51.3894 34.8034C51.3882 35.6333 52.2141 37.2102 51.9862 37.9805C52.8531 36.9156 52.4045 34.6496 52.4063 33.0639C52.4063 31.7804 52.6555 29.8422 52.1219 28.8954C51.3632 27.5494 49.6004 27.4359 48.2541 27.4358C47.4741 27.4376 46.3325 26.9804 45.6719 27.5427Z" fill="#524B43" stroke="black" stroke-opacity="0.157143" stroke-width="0.175781" stroke-linecap="round"/>
<path d="M40.0632 21.5422C37.5818 22.1329 37.9459 24.4627 33.7231 23.9532C29.5004 23.4435 12.3477 22.4887 12.3477 44.8484C12.3477 67.2082 29.5004 66.2533 33.7231 65.7437C37.9459 65.234 37.5818 67.5638 40.0632 68.1546C40.1343 68.1717 40.2003 68.1805 40.2624 68.1836C39.0682 67.8309 38.6299 64.2615 39.4234 60.6473C39.4234 60.6473 40.0632 56.2062 40.0632 44.8484C40.0632 33.4907 39.4234 29.0496 39.4234 29.0496C38.6299 25.4354 39.0682 21.8659 40.2624 21.5133C40.2003 21.5164 40.1343 21.5252 40.0632 21.5422Z" fill="url(#paint0_radial_394_7144)" stroke="black" stroke-opacity="0.861905" stroke-width="0.351562"/>
<path d="M21.8281 44.845L26.9164 43.1919V37.8422L30.0611 42.1703L35.1494 40.5172L32.0046 44.845L35.1494 49.173L30.0611 47.5197L26.9164 51.8477V46.4981L21.8281 44.845Z" fill="#E3E6E3" fill-opacity="0.152381"/>
<path d="M21.8281 44.8448L26.9165 46.4979V51.8477L27.2294 51.4173L27.3526 46.2308L22.6738 44.8448L27.3526 43.3255L27.2297 38.2729L26.9165 37.8421V43.1919L21.8281 44.8448ZM30.2136 47.5691L35.1493 49.173L30.2482 47.5195L30.2136 47.5691ZM30.2136 42.1205L30.2482 42.17L35.1493 40.5172L30.2136 42.1205Z" fill="#040404" fill-opacity="0.580952"/>
<g opacity="0.705" filter="url(#filter11_f_394_7144)">
<path d="M44.332 44.943C44.3325 46.3 45.9124 47.5448 49.2599 48.2711C52.6077 48.9974 53.526 49.029 54.2402 47.7911C54.9543 46.5536 52.6368 46.4726 52.6361 44.9428C52.6369 43.413 54.9543 43.3318 54.2402 42.0942C53.526 40.8564 52.6077 40.888 49.2599 41.6143C45.9124 42.3406 44.3325 43.5859 44.332 44.943ZM44.8495 44.9503C44.8498 43.7097 46.2127 42.5716 49.1002 41.9077C51.988 41.2437 52.7802 41.2147 53.3963 42.3463C54.0123 43.4775 52.0132 43.5518 52.0125 44.9502C52.0133 46.3487 54.0123 46.4229 53.3963 47.5541C52.7802 48.6857 51.988 48.6567 49.1002 47.9927C46.2127 47.3288 44.85 46.1907 44.8495 44.9503Z" fill="black" fill-opacity="0.971429"/>
</g>
<g filter="url(#filter12_f_394_7144)">
<path d="M44.3873 45.0467C49.9576 45.0467 53.5352 44.7751 53.3995 46.496C53.2637 48.2168 50.637 49.0321 48.0102 47.6733C45.3836 46.3147 43.0744 45.0467 44.3873 45.0467Z" fill="#2A2928" fill-opacity="0.633333"/>
</g>
<g filter="url(#filter13_f_394_7144)">
<path d="M44.3873 44.4844C49.9576 44.4844 53.5352 44.7561 53.3995 43.0353C53.2637 41.3145 50.637 40.4992 48.0102 41.8578C45.3836 43.2165 43.0744 44.4844 44.3873 44.4844Z" fill="#2A2928" fill-opacity="0.633333"/>
</g>
<g filter="url(#filter14_f_394_7144)">
<path d="M60.3212 48.9759C60.0209 49.1817 59.8359 49.4553 59.8359 49.7574C59.8359 50.042 59.9989 50.3021 60.2687 50.5037C60.4926 50.7153 62.3864 50.6722 62.3891 50.672L62.3903 50.6651C62.4685 50.2607 62.5434 49.837 62.6127 49.4011L62.7108 48.8427L62.6974 48.8412C62.5399 48.8232 60.9191 48.6489 60.3212 48.9759Z" stroke="black" stroke-opacity="0.628571" stroke-width="0.175781"/>
</g>
<g filter="url(#filter15_f_394_7144)">
<path d="M60.6599 50.6153C60.4689 50.5899 60.3018 50.6373 60.2636 50.6473C59.9555 50.8122 59.7656 51.0336 59.7656 51.2779C59.7656 51.498 59.9197 51.6998 60.1757 51.8585C60.7104 52.2166 62.0977 52.0292 62.1008 52.0286L62.1063 52.0057C62.1617 51.7703 62.217 51.5231 62.2717 51.2637L62.3909 50.7288L62.38 50.7277C62.3837 50.7093 62.3873 50.6915 62.3909 50.673C62.3898 50.673 62.1172 50.6793 61.7671 50.6755C61.4101 50.6477 60.9729 50.619 60.6599 50.6153Z" stroke="black" stroke-opacity="0.628571" stroke-width="0.175781"/>
</g>
<g filter="url(#filter16_f_394_7144)">
<path d="M60.3507 44.848C60.1055 45.0749 59.957 45.5206 59.957 45.8309C59.957 46.1406 60.104 46.4249 60.3485 46.651C61.0069 47.0139 62.919 46.8835 62.9259 46.883L62.9266 46.8741C62.9855 46.1831 63.0199 45.4982 63.0199 44.8471L60.3507 44.848Z" stroke="black" stroke-opacity="0.628571" stroke-width="0.175781"/>
</g>
<g filter="url(#filter17_f_394_7144)">
<path d="M61.5134 52.0727C61.4082 52.0729 61.2949 52.0736 61.1795 52.0751C60.7769 52.0802 60.349 52.0951 60.1461 52.1331C60.0643 52.1483 59.7148 52.3828 59.7148 52.7944C59.7148 52.986 59.8064 53.1632 59.9607 53.3104C60.3626 53.6414 61.7323 53.3873 61.7334 53.3871L61.7339 53.3851C61.8455 53.0316 61.9661 52.5884 62.0871 52.0802L62.0882 52.0765C62.0922 52.06 62.0958 52.0438 62.0998 52.0271C62.0986 52.0273 61.8448 52.0613 61.5134 52.0727Z" stroke="black" stroke-opacity="0.628571" stroke-width="0.175781"/>
</g>
<g filter="url(#filter18_f_394_7144)">
<path d="M60.3476 46.8894C60.1037 47.1154 59.957 47.3995 59.957 47.7089C59.957 48.0104 60.0982 48.2867 60.3316 48.5096C61.2674 48.7639 62.7087 48.7499 62.7121 48.7499C62.7952 48.1626 62.8659 47.5616 62.9186 46.9642C62.9144 46.964 60.9144 46.8565 60.3476 46.8894Z" stroke="black" stroke-opacity="0.628571" stroke-width="0.175781"/>
</g>
<g filter="url(#filter19_f_394_7144)">
<path d="M59.5664 53.9349C59.5666 54.0274 59.6064 54.1149 59.6758 54.1934C59.8611 54.403 60.0754 54.4844 60.5431 54.4844C60.9895 54.4844 61.4547 54.1176 61.4547 54.1176C61.5237 53.9872 61.6037 53.7848 61.6899 53.5246C61.6893 53.5246 59.5657 53.2651 59.5664 53.9349Z" stroke="black" stroke-opacity="0.628571" stroke-width="0.175781"/>
</g>
<g filter="url(#filter20_f_394_7144)">
<path d="M60.3507 44.8466C60.1055 44.6199 59.957 44.174 59.957 43.8637C59.957 43.554 60.104 43.2697 60.3485 43.0436C61.0069 42.6808 62.919 42.8113 62.9259 42.8116L62.9266 42.8205C62.9855 43.5115 63.0199 44.1964 63.0199 44.8477L60.3507 44.8466Z" stroke="black" stroke-opacity="0.628571" stroke-width="0.175781"/>
</g>
<g filter="url(#filter21_f_394_7144)">
<path d="M62.1016 52.0284C64.0044 52.2602 65.102 51.6276 64.9904 51.237C64.8787 50.8464 62.3917 50.6728 62.3917 50.6728L62.1016 52.0284Z" stroke="black" stroke-opacity="0.628571" stroke-width="0.175781"/>
</g>
<g filter="url(#filter22_f_394_7144)">
<path d="M62.3906 50.6719C64.766 50.5665 65.3613 50.2875 65.4356 49.5991C65.5102 48.9109 62.7123 48.7477 62.7123 48.7477L62.3906 50.6719Z" stroke="black" stroke-opacity="0.628571" stroke-width="0.175781"/>
</g>
<g filter="url(#filter23_f_394_7144)">
<path d="M62.9254 46.8752C65.2668 46.8483 65.7878 47.4063 65.8994 47.9831C66.011 48.5597 62.7109 48.75 62.7109 48.75L62.9254 46.8752Z" stroke="black" stroke-opacity="0.628571" stroke-width="0.175781"/>
</g>
<g filter="url(#filter24_f_394_7144)">
<path d="M63.8907 44.8461C65.7322 44.8609 66.2532 45.2464 66.1416 46.1207C66.03 46.9951 62.9258 46.8731 62.9258 46.8731L63.0191 44.8461C63.0191 44.8461 63.7045 44.8447 63.8907 44.8461Z" stroke="black" stroke-opacity="0.628571" stroke-width="0.175781"/>
</g>
<g filter="url(#filter25_f_394_7144)">
<path d="M60.3476 42.8062C60.1037 42.5802 59.957 42.2963 59.957 41.9869C59.957 41.6852 60.0982 41.4089 60.3316 41.186C61.2674 40.9317 62.7087 40.9457 62.7121 40.9457C62.7952 41.533 62.8659 42.134 62.9186 42.7315C62.9144 42.7317 60.9144 42.8393 60.3476 42.8062Z" stroke="black" stroke-opacity="0.628571" stroke-width="0.175781"/>
</g>
<g filter="url(#filter26_f_394_7144)">
<path d="M60.3212 40.7169C60.0209 40.5111 59.8359 40.2376 59.8359 39.9355C59.8359 39.651 59.9989 39.3907 60.2687 39.1893C60.4926 38.9775 62.3864 39.0208 62.3891 39.0208L62.3903 39.0277C62.4685 39.4321 62.5434 39.8558 62.6127 40.2919L62.7108 40.8501L62.6974 40.8516C62.5399 40.8696 60.9191 41.0439 60.3212 40.7169Z" stroke="black" stroke-opacity="0.628571" stroke-width="0.175781"/>
</g>
<g filter="url(#filter27_f_394_7144)">
<path d="M60.6599 39.0785C60.4689 39.1039 60.3018 39.0567 60.2636 39.0467C59.9555 38.8816 59.7656 38.6604 59.7656 38.4161C59.7656 38.1958 59.9197 37.994 60.1757 37.8355C60.7104 37.4774 62.0977 37.6648 62.1008 37.6652L62.1063 37.6883C62.1617 37.9235 62.217 38.1709 62.2717 38.4301L62.3909 38.9652L62.38 38.9662C62.3837 38.9845 62.3873 39.0023 62.3909 39.0209C62.3898 39.0209 62.1172 39.0147 61.7671 39.0185C61.4101 39.0461 60.9729 39.0749 60.6599 39.0785Z" stroke="black" stroke-opacity="0.628571" stroke-width="0.175781"/>
</g>
<g filter="url(#filter28_f_394_7144)">
<path d="M61.5134 37.6185C61.4082 37.6183 61.2949 37.6178 61.1795 37.6163C60.7769 37.6112 60.349 37.5961 60.1461 37.5583C60.0643 37.5431 59.7148 37.3084 59.7148 36.8969C59.7148 36.7053 59.8064 36.5282 59.9607 36.3808C60.3626 36.0498 61.7323 36.3039 61.7334 36.3041L61.7339 36.3061C61.8455 36.6596 61.9661 37.103 62.0871 37.611L62.0882 37.6147C62.0922 37.6312 62.0958 37.6474 62.0998 37.6641C62.0986 37.6639 61.8448 37.63 61.5134 37.6185Z" stroke="black" stroke-opacity="0.628571" stroke-width="0.175781"/>
</g>
<g filter="url(#filter29_f_394_7144)">
<path d="M59.5664 35.7585C59.5666 35.666 59.6064 35.5788 59.6758 35.5001C59.8611 35.2905 60.0754 35.2092 60.5431 35.2092C60.9895 35.2092 61.4547 35.576 61.4547 35.576C61.5237 35.7062 61.6037 35.9087 61.6899 36.1688C61.6893 36.1688 59.5657 36.4284 59.5664 35.7585Z" stroke="black" stroke-opacity="0.628571" stroke-width="0.175781"/>
</g>
<g filter="url(#filter30_f_394_7144)">
<path d="M61.4531 35.5775C62.9598 35.5185 63.6294 36.1221 63.3132 36.2203C62.997 36.3183 61.6885 36.171 61.6885 36.171L61.4531 35.5775Z" stroke="black" stroke-opacity="0.628571" stroke-width="0.175781"/>
</g>
<g filter="url(#filter31_f_394_7144)">
<path d="M61.7344 36.3041C63.2595 36.4651 64.1338 36.8372 64.0967 37.2464C64.0595 37.6558 62.1008 37.6641 62.1008 37.6641L61.7344 36.3041Z" stroke="black" stroke-opacity="0.628571" stroke-width="0.175781"/>
</g>
<g filter="url(#filter32_f_394_7144)">
<path d="M62.1016 37.6677C64.0044 37.4361 65.102 38.0685 64.9904 38.4592C64.8787 38.8498 62.3917 39.0234 62.3917 39.0234L62.1016 37.6677Z" stroke="black" stroke-opacity="0.628571" stroke-width="0.175781"/>
</g>
<g filter="url(#filter33_f_394_7144)">
<path d="M62.3906 39.0211C64.766 39.1265 65.3613 39.4057 65.4356 40.0939C65.5102 40.7823 62.7123 40.9453 62.7123 40.9453L62.3906 39.0211Z" stroke="black" stroke-opacity="0.628571" stroke-width="0.175781"/>
</g>
<g filter="url(#filter34_f_394_7144)">
<path d="M63.8907 44.847C65.7322 44.8321 66.2532 44.4467 66.1416 43.5724C66.03 42.6981 62.9258 42.8199 62.9258 42.8199L63.0191 44.847C63.0191 44.847 63.7045 44.8484 63.8907 44.847Z" stroke="black" stroke-opacity="0.628571" stroke-width="0.175781"/>
</g>
<g filter="url(#filter35_f_394_7144)">
<path d="M62.9254 42.8194C65.2668 42.8463 65.7878 42.2883 65.8994 41.7117C66.011 41.1349 62.7109 40.9446 62.7109 40.9446L62.9254 42.8194Z" stroke="black" stroke-opacity="0.628571" stroke-width="0.175781"/>
</g>
<g filter="url(#filter36_f_394_7144)">
<path d="M61.7344 53.3906C63.2595 53.2295 64.1338 52.8576 64.0967 52.4482C64.0595 52.0391 62.1008 52.0305 62.1008 52.0305L61.7344 53.3906Z" stroke="black" stroke-opacity="0.628571" stroke-width="0.175781"/>
</g>
<g filter="url(#filter37_f_394_7144)">
<path d="M61.4531 54.117C62.9598 54.1761 63.6294 53.5722 63.3132 53.4742C62.997 53.3761 61.6885 53.5235 61.6885 53.5235L61.4531 54.117Z" stroke="black" stroke-opacity="0.628571" stroke-width="0.175781"/>
</g>
<g filter="url(#filter38_f_394_7144)">
<path d="M27.0508 51.8477L30.0311 47.6782L29.5504 47.5195L27.0508 51.0166V51.8477ZM27.0508 38.6733L29.5504 42.17L30.0311 42.0114L27.0508 37.8421V38.6733ZM31.4623 44.8448L34.3724 48.9162L35.1501 49.173L32.0564 44.8448L35.1501 40.5172L34.3724 40.774L31.4623 44.8448Z" fill="#100D0D" fill-opacity="0.842857"/>
</g>
<path d="M2.25 45.0009C2.25 50.6148 3.35573 56.1737 5.50407 61.3603C7.65241 66.5468 10.8013 71.2595 14.771 75.2291C18.7406 79.1987 23.4531 82.3476 28.6397 84.4959C33.8262 86.6443 39.3851 87.75 44.9991 87.75C46.0098 87.7499 47.02 87.7141 48.0281 87.6424C37.0859 87.091 26.7731 82.3595 19.2185 74.4245C11.6639 66.4896 7.44424 55.957 7.43055 45.0009C7.43065 34.1874 11.5287 23.7757 18.8993 15.8633C26.2699 7.95083 36.3653 3.12564 47.1516 2.35974C46.4352 2.30564 45.7174 2.26974 44.9991 2.25184C39.3851 2.25184 33.8262 3.35764 28.6396 5.50594C23.4531 7.65424 18.7406 10.8031 14.7709 14.7727C10.8013 18.7424 7.6524 23.455 5.50406 28.6416C3.35572 33.8281 2.24999 39.387 2.25 45.0009Z" fill="black" fill-opacity="0.709524"/>
<path d="M2.25 45.0009C2.25 50.6148 3.35573 56.1737 5.50407 61.3603C7.65241 66.5468 10.8013 71.2595 14.771 75.2291C18.7406 79.1987 23.4531 82.3476 28.6397 84.4959C33.8262 86.6443 39.3851 87.75 44.9991 87.75C45.3622 87.7417 45.725 87.7289 46.0878 87.7114C34.9471 87.4266 24.3582 82.8026 16.577 74.8245C8.7958 66.8465 4.4377 56.1452 4.43128 45.0009C4.44186 33.8592 8.80194 23.1619 16.5829 15.1872C24.3638 7.21264 34.9509 2.59093 46.089 2.30643C45.7259 2.28363 45.3626 2.26544 44.9991 2.25184C39.3851 2.25184 33.8262 3.35764 28.6396 5.50594C23.4531 7.65424 18.7406 10.8031 14.7709 14.7727C10.8013 18.7424 7.6524 23.455 5.50406 28.6416C3.35572 33.8281 2.24999 39.387 2.25 45.0009Z" fill="white" fill-opacity="0.309524"/>
<path d="M87.8485 45.0009C87.8485 50.6148 86.7427 56.1737 84.5944 61.3603C82.4461 66.5468 79.2972 71.2595 75.3276 75.2291C71.3579 79.1987 66.6453 82.3476 61.4588 84.4959C56.2722 86.6443 50.7133 87.75 45.0994 87.75C44.0887 87.7499 43.0784 87.7141 42.0703 87.6424C53.0125 87.091 63.3253 82.3596 70.88 74.4246C78.4346 66.4896 82.6542 55.957 82.6679 45.0009C82.6678 34.1874 78.5697 23.7757 71.1991 15.8633C63.8286 7.95083 53.7332 3.12564 42.9469 2.35974C43.6634 2.30564 44.3811 2.26974 45.0994 2.25184C50.7133 2.25184 56.2722 3.35764 61.4588 5.50594C66.6453 7.65424 71.358 10.8031 75.3276 14.7727C79.2972 18.7424 82.4461 23.455 84.5944 28.6416C86.7427 33.8281 87.8485 39.387 87.8485 45.0009Z" fill="black" fill-opacity="0.842857"/>
<path d="M87.8506 45.0009C87.8506 50.6148 86.7449 56.1737 84.5965 61.3603C82.4482 66.5468 79.2993 71.2595 75.3297 75.2291C71.3601 79.1987 66.6474 82.3476 61.4609 84.4959C56.2743 86.6443 50.7154 87.75 45.1015 87.75C44.7384 87.7417 44.3755 87.7289 44.0127 87.7114C55.1534 87.4266 65.7425 82.8026 73.5236 74.8245C81.3048 66.8465 85.6629 56.1452 85.6693 45.0009C85.6587 33.8592 81.2986 23.1619 73.5177 15.1872C65.7367 7.21264 55.1498 2.59093 44.0117 2.30643C44.3747 2.28363 44.738 2.26544 45.1015 2.25184C50.7154 2.25184 56.2743 3.35764 61.4609 5.50594C66.6475 7.65424 71.3601 10.8031 75.3297 14.7727C79.2993 18.7424 82.4482 23.455 84.5965 28.6416C86.7449 33.8281 87.8506 39.387 87.8506 45.0009Z" fill="white" fill-opacity="0.309524"/>
</g>
</g>
<defs>
<filter id="filter0_f_394_7144" x="0.522459" y="0.526366" width="88.9512" height="88.9512" filterUnits="userSpaceOnUse" color-interpolation-filters="sRGB">
<feFlood flood-opacity="0" result="BackgroundImageFix"/>
<feBlend mode="normal" in="SourceGraphic" in2="BackgroundImageFix" result="shape"/>
<feGaussianBlur stdDeviation="0.436036" result="effect1_foregroundBlur_394_7144"/>
</filter>
<filter id="filter1_f_394_7144" x="10.8536" y="20.0176" width="31.5819" height="49.9842" filterUnits="userSpaceOnUse" color-interpolation-filters="sRGB">
<feFlood flood-opacity="0" result="BackgroundImageFix"/>
<feBlend mode="normal" in="SourceGraphic" in2="BackgroundImageFix" result="shape"/>
<feGaussianBlur stdDeviation="0.577113" result="effect1_foregroundBlur_394_7144"/>
</filter>
<filter id="filter2_f_394_7144" x="17.5936" y="24.2499" width="59.9456" height="41.1956" filterUnits="userSpaceOnUse" color-interpolation-filters="sRGB">
<feFlood flood-opacity="0" result="BackgroundImageFix"/>
<feBlend mode="normal" in="SourceGraphic" in2="BackgroundImageFix" result="shape"/>
<feGaussianBlur stdDeviation="0.7032" result="effect1_foregroundBlur_394_7144"/>
</filter>
<filter id="filter3_f_394_7144" x="52.8769" y="53.1698" width="12.4455" height="4.42597" filterUnits="userSpaceOnUse" color-interpolation-filters="sRGB">
<feFlood flood-opacity="0" result="BackgroundImageFix"/>
<feBlend mode="normal" in="SourceGraphic" in2="BackgroundImageFix" result="shape"/>
<feGaussianBlur stdDeviation="0.0811025" result="effect1_foregroundBlur_394_7144"/>
</filter>
<filter id="filter4_f_394_7144" x="52.8769" y="32.0995" width="12.4455" height="4.42597" filterUnits="userSpaceOnUse" color-interpolation-filters="sRGB">
<feFlood flood-opacity="0" result="BackgroundImageFix"/>
<feBlend mode="normal" in="SourceGraphic" in2="BackgroundImageFix" result="shape"/>
<feGaussianBlur stdDeviation="0.0811027" result="effect1_foregroundBlur_394_7144"/>
</filter>
<filter id="filter5_f_394_7144" x="36.5111" y="46.0189" width="13.0168" height="17.1926" filterUnits="userSpaceOnUse" color-interpolation-filters="sRGB">
<feFlood flood-opacity="0" result="BackgroundImageFix"/>
<feBlend mode="normal" in="SourceGraphic" in2="BackgroundImageFix" result="shape"/>
<feGaussianBlur stdDeviation="0.404595" result="effect1_foregroundBlur_394_7144"/>
</filter>
<filter id="filter6_f_394_7144" x="37.7602" y="48.6547" width="8.60468" height="12.4328" filterUnits="userSpaceOnUse" color-interpolation-filters="sRGB">
<feFlood flood-opacity="0" result="BackgroundImageFix"/>
<feBlend mode="normal" in="SourceGraphic" in2="BackgroundImageFix" result="shape"/>
<feGaussianBlur stdDeviation="0.0515597" result="effect1_foregroundBlur_394_7144"/>
</filter>
<filter id="filter7_f_394_7144" x="38.3195" y="47.7648" width="9.35312" height="12.8492" filterUnits="userSpaceOnUse" color-interpolation-filters="sRGB">
<feFlood flood-opacity="0" result="BackgroundImageFix"/>
<feBlend mode="normal" in="SourceGraphic" in2="BackgroundImageFix" result="shape"/>
<feGaussianBlur stdDeviation="0.242578" result="effect1_foregroundBlur_394_7144"/>
</filter>
<filter id="filter8_f_394_7144" x="36.6986" y="26.8041" width="13.0168" height="17.1926" filterUnits="userSpaceOnUse" color-interpolation-filters="sRGB">
<feFlood flood-opacity="0" result="BackgroundImageFix"/>
<feBlend mode="normal" in="SourceGraphic" in2="BackgroundImageFix" result="shape"/>
<feGaussianBlur stdDeviation="0.404595" result="effect1_foregroundBlur_394_7144"/>
</filter>
<filter id="filter9_f_394_7144" x="37.9516" y="28.9281" width="8.60468" height="12.4328" filterUnits="userSpaceOnUse" color-interpolation-filters="sRGB">
<feFlood flood-opacity="0" result="BackgroundImageFix"/>
<feBlend mode="normal" in="SourceGraphic" in2="BackgroundImageFix" result="shape"/>
<feGaussianBlur stdDeviation="0.0515597" result="effect1_foregroundBlur_394_7144"/>
</filter>
<filter id="filter10_f_394_7144" x="38.507" y="29.4055" width="9.35312" height="12.8492" filterUnits="userSpaceOnUse" color-interpolation-filters="sRGB">
<feFlood flood-opacity="0" result="BackgroundImageFix"/>
<feBlend mode="normal" in="SourceGraphic" in2="BackgroundImageFix" result="shape"/>
<feGaussianBlur stdDeviation="0.242578" result="effect1_foregroundBlur_394_7144"/>
</filter>
<filter id="filter11_f_394_7144" x="44.1549" y="40.9322" width="10.3973" height="8.02225" filterUnits="userSpaceOnUse" color-interpolation-filters="sRGB">
<feFlood flood-opacity="0" result="BackgroundImageFix"/>
<feBlend mode="normal" in="SourceGraphic" in2="BackgroundImageFix" result="shape"/>
<feGaussianBlur stdDeviation="0.088571" result="effect1_foregroundBlur_394_7144"/>
</filter>
<filter id="filter12_f_394_7144" x="43.7592" y="44.7826" width="9.89177" height="3.82145" filterUnits="userSpaceOnUse" color-interpolation-filters="sRGB">
<feFlood flood-opacity="0" result="BackgroundImageFix"/>
<feBlend mode="normal" in="SourceGraphic" in2="BackgroundImageFix" result="shape"/>
<feGaussianBlur stdDeviation="0.124309" result="effect1_foregroundBlur_394_7144"/>
</filter>
<filter id="filter13_f_394_7144" x="43.7592" y="40.9272" width="9.89177" height="3.82145" filterUnits="userSpaceOnUse" color-interpolation-filters="sRGB">
<feFlood flood-opacity="0" result="BackgroundImageFix"/>
<feBlend mode="normal" in="SourceGraphic" in2="BackgroundImageFix" result="shape"/>
<feGaussianBlur stdDeviation="0.124309" result="effect1_foregroundBlur_394_7144"/>
</filter>
<filter id="filter14_f_394_7144" x="59.362" y="48.3034" width="3.83844" height="2.84625" filterUnits="userSpaceOnUse" color-interpolation-filters="sRGB">
<feFlood flood-opacity="0" result="BackgroundImageFix"/>
<feBlend mode="normal" in="SourceGraphic" in2="BackgroundImageFix" result="shape"/>
<feGaussianBlur stdDeviation="0.193984" result="effect1_foregroundBlur_394_7144"/>
</filter>
<filter id="filter15_f_394_7144" x="59.2917" y="50.1316" width="3.59625" height="2.42047" filterUnits="userSpaceOnUse" color-interpolation-filters="sRGB">
<feFlood flood-opacity="0" result="BackgroundImageFix"/>
<feBlend mode="normal" in="SourceGraphic" in2="BackgroundImageFix" result="shape"/>
<feGaussianBlur stdDeviation="0.193984" result="effect1_foregroundBlur_394_7144"/>
</filter>
<filter id="filter16_f_394_7144" x="59.4831" y="44.3698" width="4.01422" height="3.01031" filterUnits="userSpaceOnUse" color-interpolation-filters="sRGB">
<feFlood flood-opacity="0" result="BackgroundImageFix"/>
<feBlend mode="normal" in="SourceGraphic" in2="BackgroundImageFix" result="shape"/>
<feGaussianBlur stdDeviation="0.193984" result="effect1_foregroundBlur_394_7144"/>
</filter>
<filter id="filter17_f_394_7144" x="59.2409" y="51.53" width="3.36187" height="2.42828" filterUnits="userSpaceOnUse" color-interpolation-filters="sRGB">
<feFlood flood-opacity="0" result="BackgroundImageFix"/>
<feBlend mode="normal" in="SourceGraphic" in2="BackgroundImageFix" result="shape"/>
<feGaussianBlur stdDeviation="0.193984" result="effect1_foregroundBlur_394_7144"/>
</filter>
<filter id="filter18_f_394_7144" x="59.4831" y="46.4089" width="3.92047" height="2.815" filterUnits="userSpaceOnUse" color-interpolation-filters="sRGB">
<feFlood flood-opacity="0" result="BackgroundImageFix"/>
<feBlend mode="normal" in="SourceGraphic" in2="BackgroundImageFix" result="shape"/>
<feGaussianBlur stdDeviation="0.193984" result="effect1_foregroundBlur_394_7144"/>
</filter>
<filter id="filter19_f_394_7144" x="59.0925" y="52.9988" width="3.10797" height="1.95953" filterUnits="userSpaceOnUse" color-interpolation-filters="sRGB">
<feFlood flood-opacity="0" result="BackgroundImageFix"/>
<feBlend mode="normal" in="SourceGraphic" in2="BackgroundImageFix" result="shape"/>
<feGaussianBlur stdDeviation="0.193984" result="effect1_foregroundBlur_394_7144"/>
</filter>
<filter id="filter20_f_394_7144" x="59.4831" y="42.3113" width="4.01422" height="3.01422" filterUnits="userSpaceOnUse" color-interpolation-filters="sRGB">
<feFlood flood-opacity="0" result="BackgroundImageFix"/>
<feBlend mode="normal" in="SourceGraphic" in2="BackgroundImageFix" result="shape"/>
<feGaussianBlur stdDeviation="0.193984" result="effect1_foregroundBlur_394_7144"/>
</filter>
<filter id="filter21_f_394_7144" x="61.6081" y="50.1902" width="3.86578" height="2.36187" filterUnits="userSpaceOnUse" color-interpolation-filters="sRGB">
<feFlood flood-opacity="0" result="BackgroundImageFix"/>
<feBlend mode="normal" in="SourceGraphic" in2="BackgroundImageFix" result="shape"/>
<feGaussianBlur stdDeviation="0.193984" result="effect1_foregroundBlur_394_7144"/>
</filter>
<filter id="filter22_f_394_7144" x="61.8972" y="48.2683" width="4.01422" height="2.88531" filterUnits="userSpaceOnUse" color-interpolation-filters="sRGB">
<feFlood flood-opacity="0" result="BackgroundImageFix"/>
<feBlend mode="normal" in="SourceGraphic" in2="BackgroundImageFix" result="shape"/>
<feGaussianBlur stdDeviation="0.193984" result="effect1_foregroundBlur_394_7144"/>
</filter>
<filter id="filter23_f_394_7144" x="62.2253" y="46.3972" width="4.15094" height="2.83453" filterUnits="userSpaceOnUse" color-interpolation-filters="sRGB">
<feFlood flood-opacity="0" result="BackgroundImageFix"/>
<feBlend mode="normal" in="SourceGraphic" in2="BackgroundImageFix" result="shape"/>
<feGaussianBlur stdDeviation="0.193984" result="effect1_foregroundBlur_394_7144"/>
</filter>
<filter id="filter24_f_394_7144" x="62.4441" y="44.3698" width="4.18609" height="2.98297" filterUnits="userSpaceOnUse" color-interpolation-filters="sRGB">
<feFlood flood-opacity="0" result="BackgroundImageFix"/>
<feBlend mode="normal" in="SourceGraphic" in2="BackgroundImageFix" result="shape"/>
<feGaussianBlur stdDeviation="0.193984" result="effect1_foregroundBlur_394_7144"/>
</filter>
<filter id="filter25_f_394_7144" x="59.4831" y="40.4714" width="3.92047" height="2.815" filterUnits="userSpaceOnUse" color-interpolation-filters="sRGB">
<feFlood flood-opacity="0" result="BackgroundImageFix"/>
<feBlend mode="normal" in="SourceGraphic" in2="BackgroundImageFix" result="shape"/>
<feGaussianBlur stdDeviation="0.193984" result="effect1_foregroundBlur_394_7144"/>
</filter>
<filter id="filter26_f_394_7144" x="59.362" y="38.5417" width="3.83844" height="2.85015" filterUnits="userSpaceOnUse" color-interpolation-filters="sRGB">
<feFlood flood-opacity="0" result="BackgroundImageFix"/>
<feBlend mode="normal" in="SourceGraphic" in2="BackgroundImageFix" result="shape"/>
<feGaussianBlur stdDeviation="0.193984" result="effect1_foregroundBlur_394_7144"/>
</filter>
<filter id="filter27_f_394_7144" x="59.2917" y="37.1394" width="3.59625" height="2.42047" filterUnits="userSpaceOnUse" color-interpolation-filters="sRGB">
<feFlood flood-opacity="0" result="BackgroundImageFix"/>
<feBlend mode="normal" in="SourceGraphic" in2="BackgroundImageFix" result="shape"/>
<feGaussianBlur stdDeviation="0.193984" result="effect1_foregroundBlur_394_7144"/>
</filter>
<filter id="filter28_f_394_7144" x="59.2409" y="35.7331" width="3.36187" height="2.42828" filterUnits="userSpaceOnUse" color-interpolation-filters="sRGB">
<feFlood flood-opacity="0" result="BackgroundImageFix"/>
<feBlend mode="normal" in="SourceGraphic" in2="BackgroundImageFix" result="shape"/>
<feGaussianBlur stdDeviation="0.193984" result="effect1_foregroundBlur_394_7144"/>
</filter>
<filter id="filter29_f_394_7144" x="59.0925" y="34.7331" width="3.10797" height="1.95953" filterUnits="userSpaceOnUse" color-interpolation-filters="sRGB">
<feFlood flood-opacity="0" result="BackgroundImageFix"/>
<feBlend mode="normal" in="SourceGraphic" in2="BackgroundImageFix" result="shape"/>
<feGaussianBlur stdDeviation="0.193984" result="effect1_foregroundBlur_394_7144"/>
</filter>
<filter id="filter30_f_394_7144" x="60.9363" y="35.0964" width="2.92828" height="1.6314" filterUnits="userSpaceOnUse" color-interpolation-filters="sRGB">
<feFlood flood-opacity="0" result="BackgroundImageFix"/>
<feBlend mode="normal" in="SourceGraphic" in2="BackgroundImageFix" result="shape"/>
<feGaussianBlur stdDeviation="0.193984" result="effect1_foregroundBlur_394_7144"/>
</filter>
<filter id="filter31_f_394_7144" x="61.2292" y="35.8152" width="3.34625" height="2.32672" filterUnits="userSpaceOnUse" color-interpolation-filters="sRGB">
<feFlood flood-opacity="0" result="BackgroundImageFix"/>
<feBlend mode="normal" in="SourceGraphic" in2="BackgroundImageFix" result="shape"/>
<feGaussianBlur stdDeviation="0.193984" result="effect1_foregroundBlur_394_7144"/>
</filter>
<filter id="filter32_f_394_7144" x="61.6081" y="37.1433" width="3.86578" height="2.36187" filterUnits="userSpaceOnUse" color-interpolation-filters="sRGB">
<feFlood flood-opacity="0" result="BackgroundImageFix"/>
<feBlend mode="normal" in="SourceGraphic" in2="BackgroundImageFix" result="shape"/>
<feGaussianBlur stdDeviation="0.193984" result="effect1_foregroundBlur_394_7144"/>
</filter>
<filter id="filter33_f_394_7144" x="61.8972" y="38.5417" width="4.01422" height="2.88531" filterUnits="userSpaceOnUse" color-interpolation-filters="sRGB">
<feFlood flood-opacity="0" result="BackgroundImageFix"/>
<feBlend mode="normal" in="SourceGraphic" in2="BackgroundImageFix" result="shape"/>
<feGaussianBlur stdDeviation="0.193984" result="effect1_foregroundBlur_394_7144"/>
</filter>
<filter id="filter34_f_394_7144" x="62.4441" y="42.3386" width="4.18609" height="2.98297" filterUnits="userSpaceOnUse" color-interpolation-filters="sRGB">
<feFlood flood-opacity="0" result="BackgroundImageFix"/>
<feBlend mode="normal" in="SourceGraphic" in2="BackgroundImageFix" result="shape"/>
<feGaussianBlur stdDeviation="0.193984" result="effect1_foregroundBlur_394_7144"/>
</filter>
<filter id="filter35_f_394_7144" x="62.2253" y="40.4636" width="4.15094" height="2.83453" filterUnits="userSpaceOnUse" color-interpolation-filters="sRGB">
<feFlood flood-opacity="0" result="BackgroundImageFix"/>
<feBlend mode="normal" in="SourceGraphic" in2="BackgroundImageFix" result="shape"/>
<feGaussianBlur stdDeviation="0.193984" result="effect1_foregroundBlur_394_7144"/>
</filter>
<filter id="filter36_f_394_7144" x="61.2292" y="51.5534" width="3.34625" height="2.32672" filterUnits="userSpaceOnUse" color-interpolation-filters="sRGB">
<feFlood flood-opacity="0" result="BackgroundImageFix"/>
<feBlend mode="normal" in="SourceGraphic" in2="BackgroundImageFix" result="shape"/>
<feGaussianBlur stdDeviation="0.193984" result="effect1_foregroundBlur_394_7144"/>
</filter>
<filter id="filter37_f_394_7144" x="60.9363" y="52.9636" width="2.92828" height="1.6314" filterUnits="userSpaceOnUse" color-interpolation-filters="sRGB">
<feFlood flood-opacity="0" result="BackgroundImageFix"/>
<feBlend mode="normal" in="SourceGraphic" in2="BackgroundImageFix" result="shape"/>
<feGaussianBlur stdDeviation="0.193984" result="effect1_foregroundBlur_394_7144"/>
</filter>
<filter id="filter38_f_394_7144" x="26.9403" y="37.7332" width="8.31871" height="14.225" filterUnits="userSpaceOnUse" color-interpolation-filters="sRGB">
<feFlood flood-opacity="0" result="BackgroundImageFix"/>
<feBlend mode="normal" in="SourceGraphic" in2="BackgroundImageFix" result="shape"/>
<feGaussianBlur stdDeviation="0.0552627" result="effect1_foregroundBlur_394_7144"/>
</filter>
<radialGradient id="paint0_radial_394_7144" cx="0" cy="0" r="1" gradientUnits="userSpaceOnUse" gradientTransform="translate(27.7179 46.3408) rotate(-90) scale(23.3351 13.9574)">
<stop stop-color="#718954"/>
<stop offset="1" stop-color="#39442C" stop-opacity="0.995238"/>
</radialGradient>
<clipPath id="clip0_394_7144">
<rect width="90" height="90" fill="white" transform="matrix(0 -1 1 0 0 90)"/>
</clipPath>
</defs>
</svg>
