<svg width="34" height="34" viewBox="0 0 34 34" fill="none" xmlns="http://www.w3.org/2000/svg">
<path d="M32 17.0004C32.0004 18.97 31.6127 20.9204 30.8591 22.7401C30.1055 24.5599 29.0007 26.2135 27.6078 27.6064C26.2149 28.9993 24.5612 30.1042 22.7411 30.8581C20.921 31.612 18.9701 32 17 32C15.0299 32 13.079 31.612 11.2589 30.8581C9.43879 30.1042 7.78506 28.9993 6.39216 27.6064C4.99927 26.2135 3.89447 24.5599 3.14087 22.7401C2.38726 20.9204 1.9996 18.97 2 17.0004L2 16.9996C1.9996 15.03 2.38726 13.0796 3.14087 11.2599C3.89447 9.44008 4.99927 7.78651 6.39216 6.39361C7.78507 5.00071 9.43879 3.89576 11.2589 3.14189C13.079 2.38802 15.0299 2 17 2C18.9701 2 20.921 2.38802 22.7411 3.14189C24.5612 3.89576 26.2149 5.00071 27.6078 6.39361C29.0007 7.78651 30.1055 9.44008 30.8591 11.2599C31.6127 13.0796 32.0004 15.03 32 16.9996V17.0004Z" fill="#606060" stroke="black" stroke-width="4"/>
</svg>
