<svg width="90" height="91" viewBox="0 0 90 91" fill="none" xmlns="http://www.w3.org/2000/svg">
<g clip-path="url(#clip0_2260_711)">
<rect x="1" y="89.9791" width="88" height="88" rx="39" transform="rotate(-90 1 89.9791)" fill="url(#paint0_radial_2260_711)" stroke="black" stroke-width="2"/>
<path d="M15.3633 69.5764C15.3633 77.4421 18.0383 77.4421 42.1136 80.0641C66.0418 82.6703 68.864 80.0641 68.864 69.5764C68.864 64.3325 15.3633 64.3325 15.3633 69.5764ZM15.3633 22.3818C15.3633 14.516 18.0383 14.516 42.1136 11.8941C66.0418 9.28788 68.864 11.8941 68.864 22.3818C68.864 27.6256 15.3633 27.6256 15.3633 22.3818Z" fill="#66757F"/>
<path d="M9.21615 70.9791C9.21615 70.9791 1.85144 68.4791 1.85144 45.9791C1.85144 23.4791 9.21615 20.9791 9.21615 20.9791C9.21615 20.9791 23.9456 18.4791 43.5848 18.4791C63.224 18.4791 77.9535 20.9791 77.9535 20.9791C77.9535 20.9791 82.8633 23.4791 82.8633 45.9791C82.8633 68.4791 77.9535 70.9791 77.9535 70.9791C77.9535 70.9791 70.5888 73.4791 43.5848 73.4791C16.5809 73.4791 9.21615 70.9791 9.21615 70.9791Z" fill="url(#paint1_linear_2260_711)"/>
<path d="M27.3633 20.9791C24.8633 20.9791 17.3633 28.4791 17.3633 45.9791C17.3633 63.4791 24.8633 70.9791 27.3633 70.9791C29.3808 70.9791 31.3933 59.6091 32.0983 55.2016C38.7333 53.4816 52.3633 53.4791 52.3633 53.4791C44.3183 51.4666 34.6658 52.6916 31.1958 53.2466C29.7183 52.7416 27.3633 51.1266 27.3633 45.9791C27.3633 38.4791 32.3633 38.4791 32.3633 38.4791V38.4741C36.5058 39.0591 45.0858 39.8891 52.3633 38.0691C52.3633 38.0691 38.6358 38.0641 32.0283 36.3266C31.2683 31.6616 29.3183 20.9791 27.3633 20.9791Z" fill="#66757F"/>
<path d="M57.3633 55.9791C54.8633 55.9791 49.8633 50.9791 49.8633 45.9791C49.8633 40.9791 54.8633 35.9791 57.3633 35.9791C59.8633 35.9791 59.8633 38.4791 59.8633 45.9791C59.8633 53.4791 59.8633 55.9791 57.3633 55.9791ZM67.3633 60.9791C67.3633 60.9791 62.3633 55.9791 62.3633 45.9791C62.3633 35.9791 67.3633 30.9791 67.3633 30.9791C67.3633 30.9791 64.8633 35.9791 64.8633 45.9791C64.8633 55.9791 67.3633 60.9791 67.3633 60.9791ZM72.3633 60.9791C69.8633 60.9791 67.3633 55.9791 67.3633 45.9791C67.3633 35.9791 69.8633 30.9791 72.3633 30.9791C74.8633 30.9791 74.8633 33.4791 74.8633 45.9791C74.8633 58.4791 74.8633 60.9791 72.3633 60.9791Z" fill="#66757F"/>
<path d="M53.6187 45.9791C53.6187 49.1014 56.741 52.2237 58.3021 52.2237C59.8633 52.2237 59.8633 50.6625 59.8633 45.9791C59.8633 41.2956 59.8633 39.7345 58.3021 39.7345C56.741 39.7345 53.6187 42.8568 53.6187 45.9791Z" fill="#424C52"/>
<path d="M23.7236 45.9629C24.0003 52.351 26.4097 56.0695 28.3216 57.7933C29.0473 58.4477 29.5009 59.4501 29.2272 60.3881L27.7862 65.3274C27.4589 66.4491 26.2572 66.9714 25.4545 66.1222C22.7191 63.2278 19.391 56.0253 19.391 45.9629C19.391 34.599 22.6399 28.308 25.2198 25.465C26.0944 24.5013 27.4851 25.0563 27.8014 26.3187L29.2378 32.0521C29.4973 33.0879 28.8816 34.1497 28.0141 34.7724C25.9014 36.2888 23.4518 39.6917 23.7236 45.9629Z" fill="#424C52"/>
</g>
<defs>
<radialGradient id="paint0_radial_2260_711" cx="0" cy="0" r="1" gradientUnits="userSpaceOnUse" gradientTransform="translate(45 135.979) rotate(90) scale(45)">
<stop stop-color="#94AAB8"/>
<stop offset="1" stop-color="#424C52"/>
</radialGradient>
<linearGradient id="paint1_linear_2260_711" x1="1.85144" y1="45.9791" x2="82.8633" y2="45.9791" gradientUnits="userSpaceOnUse">
<stop stop-color="#DFE7EC"/>
<stop offset="1" stop-color="#B4C3CD"/>
</linearGradient>
<clipPath id="clip0_2260_711">
<rect width="90" height="90" fill="white" transform="matrix(0 -1 1 0 0 90.9791)"/>
</clipPath>
</defs>
</svg>
