<svg width="90" height="90" viewBox="0 0 90 90" fill="none" xmlns="http://www.w3.org/2000/svg">
<g clip-path="url(#clip0_394_7341)">
<mask id="mask0_394_7341" style="mask-type:luminance" maskUnits="userSpaceOnUse" x="0" y="0" width="90" height="90">
<path d="M0 0L0 90H90V0H0Z" fill="white"/>
</mask>
<g mask="url(#mask0_394_7341)">
<path d="M0 40L0 50C0 72.0914 17.9086 90 40 90H50C72.0914 90 90 72.0914 90 50V40C90 17.9086 72.0914 0 50 0H40C17.9086 0 0 17.9086 0 40Z" fill="#585858"/>
<path d="M10.9805 24.123C13.5404 18.7823 17.7766 15.5727 23.5202 14.2472C26.34 13.5975 29.1988 13.6365 32.0446 13.5845C39.4255 13.4416 46.8063 13.3376 54.1872 13.2077C56.0065 13.1817 57.8127 12.9218 59.6319 13.0387C62.3478 13.2206 64.3359 14.4551 65.6614 16.8201C66.3761 18.0936 66.9738 19.406 67.3896 20.7964C67.5326 21.2642 67.7275 21.3812 68.2083 21.3292C72.1326 20.8224 76.07 20.3676 80.0463 20.3546C80.5401 20.3546 81.0469 20.3806 81.5407 20.3936C83.4379 20.4456 84.7243 21.4982 85.6989 23.0055C87.2453 25.3965 88.1419 28.0344 88.3628 30.8542C88.5967 33.9209 88.6747 36.9876 88.6877 40.0673C88.7396 40.2103 88.7916 40.3922 88.6357 40.4701C88.4797 40.5481 88.3628 40.4052 88.2848 40.2622C88.1809 40.0673 88.1159 39.8594 88.0509 39.6515C87.6611 38.495 87.2063 37.3904 86.4786 36.3899C85.2701 34.7396 83.6718 33.765 81.6446 33.5571C80.2282 33.4011 78.7988 33.3102 77.3694 33.2322C73.2632 33.0243 69.1439 33.1023 65.0376 33.1412C62.3088 33.1672 59.5799 33.2972 56.8641 33.2452C54.2522 33.1802 51.6273 33.2062 49.0284 32.9463C48.7685 32.9203 48.5606 33.0373 48.3267 33.0503C45.4549 32.2316 42.5052 31.8288 39.5684 31.322C37.2684 30.9322 35.0203 30.2954 32.7333 29.8146C32.1355 29.6847 31.5378 29.6197 30.94 29.5158C30.3423 29.4118 29.7965 29.6197 29.2248 29.7627C29.0558 29.7237 28.8869 29.6717 28.731 29.5937C26.0801 28.1254 23.5851 28.996 21.1032 30.0745C20.7653 30.2175 20.4275 30.3734 20.1286 30.5813C19.9337 30.7243 19.7258 30.6983 19.5179 30.5813C19.258 30.3864 19.3229 30.1135 19.3619 29.8666C19.5309 28.6971 19.0111 27.8525 18.1275 27.1897C16.2692 25.7993 14.1251 25.1106 11.8901 24.6428C11.5652 24.6038 11.0324 24.7338 10.9805 24.123Z" fill="#585858"/>
<path d="M48.2623 32.6863C52.7324 32.8292 57.2155 33.0631 61.6856 32.9202C66.0518 32.7773 70.4309 32.7902 74.7971 32.8422C77.2791 32.8682 79.774 32.9332 82.23 33.336C84.9588 33.7908 86.6351 35.5581 87.7526 37.9491C88.0775 38.6378 88.3244 39.3525 88.5063 40.0932C88.5843 40.405 88.6363 40.1581 88.6882 40.0672C88.8182 42.6401 89.286 45.174 89.5459 47.7339C89.9877 51.9572 90.2866 56.1804 90.2996 60.4166C90.2996 63.5223 90.2736 66.6539 89.5719 69.7077C89.1041 71.7348 88.4024 73.645 87.0509 75.2693C85.7905 76.7767 84.2701 77.6473 82.23 77.3354C81.4373 77.2185 80.6446 77.0885 79.865 76.9716C79.8 76.6597 80.0469 76.5947 80.2548 76.5688C82.165 76.3349 83.0486 74.9185 83.6983 73.3851C84.9978 70.3574 85.5955 67.1607 85.7905 63.8731C85.9594 61.0273 85.7255 58.2205 85.5176 55.4007C85.2837 52.204 84.8678 49.0334 84.2181 45.9017C83.8673 44.2124 83.0486 43.5627 81.3333 43.5367C78.9553 43.4977 76.6553 44.0695 74.3423 44.5373C72.653 44.8881 70.9247 45.109 69.2874 45.7068C68.9366 45.8367 68.5987 45.9537 68.2739 46.1226C65.8959 47.3311 65.636 49.878 67.7151 51.5543C68.6897 52.347 69.7292 53.0617 70.7688 53.7634C72.0423 54.621 73.2637 55.5696 74.2513 56.7521C75.1479 57.8307 75.7197 59.0911 75.7587 60.5335C75.7977 62.0149 75.7717 63.4703 75.109 64.8477C74.2123 66.6929 72.757 67.9664 71.0417 69.006C69.1575 70.1495 67.2213 71.215 65.493 72.6054C64.9862 73.0083 64.4145 73.3331 63.8427 73.619C63.5439 73.7619 63.271 73.8009 63.0111 73.541C62.9461 73.4501 62.8941 73.3331 62.9331 73.2422C63.3229 72.2156 62.8551 71.345 62.4523 70.4613C62.2964 70.1105 62.0885 69.7726 61.9195 69.4218C61.4907 68.5901 61.2308 67.7065 61.2178 66.7579C61.2178 64.8347 61.1399 62.9115 61.2308 60.9883C61.3478 58.5584 61.4387 56.1284 62.1924 53.7634C62.6992 52.1781 63.0501 50.5537 63.5179 48.9554C63.7258 48.2667 63.5958 47.7989 63.219 47.63C62.8162 47.4481 62.4003 47.7209 62.0365 48.3967C61.7246 48.9944 61.5297 49.6311 61.2958 50.2679C61.2048 50.5278 61.1918 50.8266 60.893 50.9826C60.828 51.0086 60.75 51.0345 60.711 51.0086C59.9704 50.5278 59.4636 50.9306 58.9958 51.4634C58.2551 52.321 57.6313 53.2436 57.0596 54.2052C56.2799 55.5306 55.3053 56.7131 54.4477 57.9866C54.3048 58.2075 54.1228 58.3505 53.8629 58.1555C53.629 57.8437 53.694 57.4928 53.733 57.155C54.0579 53.8673 54.3048 50.5667 54.1878 47.2531C54.1228 45.174 53.4341 43.3418 51.6149 42.1333C50.2115 41.2107 48.6521 40.9768 47.0148 41.1327C44.9097 41.3406 43.0775 42.1853 41.3882 43.4457C40.1927 44.3294 38.9712 45.2 37.6328 45.8757C36.0085 46.7074 34.3192 46.8633 32.5909 46.4735C30.7977 46.0706 29.1214 45.3949 27.757 44.1085C27.614 43.9655 27.4061 43.9265 27.2632 43.7966C25.9767 41.9904 25.7168 39.9372 25.9377 37.8061C25.9897 37.3513 26.0417 36.9095 26.1456 36.4677C26.1976 36.2598 26.2106 36.0389 26.4315 35.9219C26.9773 35.8829 26.9903 36.3248 27.0163 36.6626C27.1202 38.5078 28.1078 39.8852 29.4592 40.9898C30.6417 41.9514 32.0451 42.4322 33.5525 42.6531C36.0605 43.0299 38.1916 42.1073 40.1407 40.6779C42.6227 38.8587 44.7408 36.6106 47.1708 34.7264C47.8075 34.1937 48.4052 33.6479 48.2623 32.6863Z" fill="#888888"/>
<path d="M63.0883 73.5018C63.946 73.3849 64.6217 72.8651 65.2454 72.3713C67.0387 70.9549 69.0268 69.8504 70.963 68.6679C72.9382 67.4594 74.6275 65.965 75.1602 63.626C75.9789 60.0135 75.2252 57.6485 72.4314 55.4395C70.872 54.205 69.1957 53.1135 67.6234 51.892C66.4019 50.9564 65.6742 49.7479 66.0511 48.1106C66.285 47.123 66.9347 46.4603 67.7923 45.9665C68.572 45.5247 69.4167 45.2388 70.2743 45.0439C73.38 44.3422 76.4857 43.6664 79.6433 43.2506C80.475 43.1467 81.3326 43.1727 82.1773 43.2246C83.2688 43.2896 84.1914 44.2902 84.4773 45.6416C84.7762 47.045 85.0231 48.4484 85.218 49.8648C85.7767 53.9581 86.1666 58.0774 86.1536 62.2096C86.1406 66.095 85.5169 69.8764 84.0095 73.4889C83.5677 74.5414 82.9309 75.464 82.0733 76.2307C81.6055 76.6465 81.0338 76.7375 80.462 76.8544C80.2541 76.8934 80.0202 76.8544 79.8383 76.9844C78.123 76.6075 76.4077 76.2697 74.6534 76.1657C74.1727 76.1397 73.7048 76.1007 73.2241 76.1007C69.7675 76.0878 66.298 76.1397 62.8414 76.0748C57.4227 75.9708 51.991 75.9318 46.5983 75.1651C41.7253 74.4504 37.0733 72.9431 32.9151 70.1493C32.4733 69.8504 32.0574 69.4865 31.6546 69.1357C31.4467 68.9668 31.2648 68.7978 30.9789 68.7718C29.5625 67.6933 29.0557 66.056 28.419 64.5096C28.1461 63.8339 27.8732 63.1452 27.9512 62.3785C28.0161 61.6768 28.354 61.391 29.0817 61.5339C29.8873 61.6898 30.654 62.0017 31.4207 62.2876C32.5252 62.7164 33.6558 63.0932 34.6563 63.73C34.9812 63.9379 35.358 64.0418 35.7609 63.9769C35.9818 64.0548 36.2287 64.0938 36.4106 64.2627C37.6711 65.4193 39.1135 66.3549 40.296 67.5893C40.9067 68.2261 41.6474 68.6679 42.4141 69.0707C43.1288 69.4606 43.7525 69.3956 44.1553 68.9668C44.5582 68.5509 44.5841 68.0052 44.2333 67.2775C43.6745 66.121 42.661 65.3803 41.6864 64.6396C40.166 63.4831 38.5027 62.5475 36.8394 61.6249C33.071 59.5327 29.5885 56.9988 26.1189 54.4519C24.8845 53.5423 23.637 52.6586 22.3505 51.814C21.6488 51.3592 20.9601 51.0993 20.2064 51.6841C20.0115 51.84 19.7646 51.866 19.5437 51.6841C19.3228 51.4372 19.4138 51.1643 19.4657 50.8784C19.7516 49.1761 20.7132 47.9156 22.0517 46.9021C22.8703 46.9021 23.546 47.3179 24.2217 47.6817C27.1455 49.2931 30.0303 50.9953 32.8761 52.7626C36.3846 54.9327 39.8931 57.1028 43.3757 59.3118C44.7141 60.1695 45.6367 61.313 45.8316 62.9503C45.9096 63.5351 46.4164 63.9899 46.3644 64.6266C46.6373 66.1989 46.6373 67.8232 47.248 69.3306C47.5079 69.9803 47.7548 70.6171 48.2486 71.1368C48.6644 71.5787 48.9893 71.6306 49.5221 71.3318C49.7819 71.1888 50.0418 71.0199 50.2498 70.799C51.8481 69.1357 52.9656 67.2515 53.1475 64.8735C53.3035 62.9503 53.3165 61.0271 53.5244 59.1169C53.5634 58.7401 53.5244 58.3243 53.9662 58.1293C55.4216 55.9722 56.851 53.8152 58.3323 51.6841C58.6182 51.2682 59.021 50.9044 59.4239 50.5795C59.9437 50.1637 60.3985 50.2807 60.7493 50.8654C61.1651 51.1513 60.9572 51.5281 60.8663 51.866C60.5544 53.0355 60.2295 54.205 59.9567 55.3745C59.5408 57.1418 59.3199 58.948 59.2679 60.7542C59.19 63.2102 59.086 65.6791 59.4759 68.1221C59.6318 69.1357 59.9177 70.1103 60.3465 71.0199C60.9182 72.2284 61.555 73.3719 63.0883 73.5018Z" fill="#B6B6B6"/>
<path d="M16.4375 69.7056C15.0341 69.8096 13.7606 69.2768 12.5002 68.77C9.84929 67.7045 7.58825 66.0802 5.66506 63.9751C5.48313 63.6372 5.69105 63.5332 5.96393 63.4163C7.40632 62.8185 7.84814 61.5841 7.14643 60.1547C6.7436 59.31 6.13286 58.6343 5.40517 58.0885C4.80742 57.6467 4.59951 57.1269 4.72945 56.4122C4.91138 55.3987 4.53454 54.4891 4.15769 53.5924C3.87182 52.9037 3.9108 52.7218 4.6125 52.5009C5.17127 52.332 5.31421 51.9291 5.31421 51.4094C5.31421 50.6687 5.06731 50.1489 4.59951 49.993C4.19668 49.863 3.87182 49.98 3.63791 50.3178C3.50797 50.4997 3.45599 50.7077 3.39102 50.9156C3.15712 51.7082 3.07915 51.7602 2.31247 51.4873C1.89665 51.3444 1.59778 51.4353 1.40286 51.8512C1.28591 52.0981 1.20794 52.4099 0.818104 52.28C-0.182473 45.9517 0.155384 39.7013 2.00061 33.5549C2.54637 31.7357 3.14412 29.9294 4.05374 28.2531C4.15769 28.0712 4.31363 27.9153 4.44357 27.7463C5.14528 27.0706 6.0289 27.2396 6.82157 27.3305C8.61481 27.5384 10.3561 27.9673 11.9154 28.9288C13.1759 29.7085 14.1635 30.7351 14.4493 32.2295C14.6573 33.334 14.5273 34.4775 14.2544 35.569C13.6047 38.1939 12.955 40.8188 12.5392 43.4957C11.9544 47.1861 11.9284 50.9026 12.1623 54.619C12.3442 57.6467 12.812 60.6355 13.6177 63.5592C14.1635 65.5474 14.9042 67.4576 16.2556 69.0689C16.4375 69.2508 16.5934 69.4457 16.4375 69.7056Z" fill="#B6B6B6"/>
<path d="M22.1692 47.1204C20.8048 48.3289 19.8042 49.7453 19.7003 51.6425C20.0251 51.8374 19.9991 52.1622 19.9861 52.4481C19.8952 54.3713 20.7788 55.7617 22.3122 56.8143C23.1178 57.36 23.9365 57.8798 24.8461 58.2567C25.171 58.3866 25.5608 58.4646 25.7037 58.8804C25.8467 59.4911 25.7817 60.1149 25.7687 60.7386C25.7167 63.6884 26.4704 66.3652 28.6795 68.4833C28.8354 68.6393 29.1213 68.7302 29.0173 69.0421C26.9122 69.4579 24.8331 69.9647 22.689 70.1207C22.1562 70.2246 21.6105 70.1596 21.0777 70.1596C20.5449 70.1596 20.233 69.7698 19.9602 69.393C18.9076 67.9636 18.011 66.4432 17.3353 64.7799C15.8539 61.1934 15.0742 57.49 15.0742 53.6046C15.0742 49.5114 15.581 45.496 16.4256 41.5067C17.1533 38.0762 18.0889 34.6976 18.9986 31.319C19.0895 30.9812 19.0895 30.5524 19.5833 30.4874C20.0901 30.3964 20.4669 30.0456 20.9088 29.8247C22.5331 28.98 24.2483 28.5642 26.0806 28.5252C27.2501 28.4992 28.3026 28.8241 29.1993 29.5908C29.3682 29.8507 29.1863 30.0326 29.0563 30.2275C28.0297 31.7219 27.3021 33.3332 27.0162 35.1264C26.9642 35.4253 26.9772 35.7891 26.5874 35.9191C25.9896 38.583 25.8986 41.1949 27.51 43.5988C27.9518 44.4565 27.8738 44.6904 27.0292 45.0932C26.8992 45.1582 26.7433 45.1972 26.6263 45.2881C25.7037 45.8079 24.6382 46.0028 23.7286 46.5616C23.2218 46.8605 22.741 47.0944 22.1692 47.1204Z" fill="#444444"/>
<path d="M19.5697 30.4914C17.8674 36.5859 16.1652 42.6933 15.5544 49.0346C14.9957 54.8172 15.5544 60.4308 18.1013 65.7455C18.7251 67.058 19.5307 68.2665 20.3624 69.449C20.7392 69.9818 21.194 70.2157 21.8438 70.1377C22.1167 70.0987 22.4025 70.1377 22.6884 70.1507C20.5833 70.3326 18.4782 70.4236 16.4381 69.7349C13.9691 67.11 13.2544 63.7574 12.5657 60.4048C11.721 56.2465 11.6041 52.0363 11.786 47.8131C11.903 44.7854 12.4617 41.8096 13.1504 38.8469C13.4753 37.4435 13.8781 36.0401 14.138 34.6237C14.6968 31.583 13.3713 29.8677 10.7984 28.7242C9.17412 27.9965 7.44585 27.5807 5.63961 27.6326C5.24978 27.6456 4.87293 27.7106 4.49609 27.7756C6.01645 25.7874 7.73173 24.1111 10.4996 24.2411C10.6685 24.2541 10.8374 24.1761 11.0063 24.1501C11.838 24.358 12.6826 24.5529 13.5143 24.7608C15.2296 25.1897 16.8279 25.8784 18.2703 26.9179C19.5957 27.8405 19.9856 28.8931 19.5697 30.4914Z" fill="#878787"/>
<path d="M0.859375 52.2919C1.01531 52.136 1.06729 51.9151 1.13226 51.7202C1.36616 51.0055 1.82097 50.7976 2.47069 51.2004C2.89951 51.4603 3.02946 51.3693 3.09443 50.9275C3.13342 50.6806 3.21138 50.4207 3.31534 50.1868C3.61421 49.6021 4.3549 49.3942 4.92666 49.706C5.66735 50.1219 5.97921 51.7982 5.43344 52.4479C5.2905 52.6168 5.12158 52.7857 4.90067 52.7857C4.17298 52.7987 4.31592 53.1106 4.52383 53.6044C4.96564 54.592 5.2905 55.6185 5.03061 56.7361C4.92666 57.1649 5.14757 57.4638 5.48542 57.7366C6.33007 58.3864 7.05776 59.153 7.51257 60.1406C7.9154 61.0243 7.86342 61.8949 7.46059 62.7655C7.22669 63.2593 6.81086 63.5582 6.27809 63.6881C6.05718 63.7401 5.7843 63.7271 5.66735 64C3.38031 61.726 2.26278 58.8542 1.5091 55.8005C1.21023 54.631 0.950337 53.4744 0.859375 52.2919Z" fill="#CECECE"/>
<path d="M29.0191 69.0469C27.8106 68.4361 27.1609 67.3316 26.5761 66.1881C25.6146 64.3169 25.2897 62.3157 25.4976 60.2236C25.5366 59.7948 25.5236 59.366 25.5366 58.9241C25.7315 58.6253 25.9914 58.7422 26.2383 58.8202C29.6429 59.9247 32.7485 61.549 35.5813 63.7451C35.8023 63.914 35.9712 64.096 35.8412 64.3948C35.2045 64.3169 34.6587 63.979 34.1 63.7321C32.5536 63.0564 30.9943 62.4327 29.383 61.9519C28.4214 61.666 28.1355 61.9259 28.3044 62.9265C28.4604 63.8621 28.8242 64.7587 29.227 65.6163C29.6688 66.5779 30.1236 67.5395 30.8513 68.3322C30.9683 68.4621 31.0852 68.5921 31.0073 68.787C30.3316 68.865 29.6688 68.9559 29.0191 69.0469Z" fill="#898989"/>
<path d="M26.5625 35.9232C26.8094 33.5582 27.628 31.4141 29.1874 29.5819C29.7981 29.0491 30.5128 29.1401 31.2275 29.2311C33.5925 29.5429 35.8666 30.2706 38.2056 30.7384C41.1943 31.3362 44.235 31.674 47.1978 32.4017C47.5486 32.4927 47.9125 32.5836 48.2633 32.6746C48.8741 33.2074 48.9001 33.2983 48.3803 33.9351C47.6396 34.8577 46.652 35.4944 45.7554 36.2481C43.9881 37.7685 42.2989 39.3928 40.4536 40.8092C36.9971 43.4471 33.0598 43.9149 29.3563 41.29C27.823 40.1984 26.7704 38.6781 26.6794 36.6769C26.6665 36.443 26.6015 36.1831 26.5625 35.9232Z" fill="#B6B6B6"/>
<path d="M26.4438 45.1739C26.5478 45.0699 26.6517 44.927 26.7817 44.875C27.4054 44.6541 27.5613 44.1993 27.4834 43.6015C28.8738 44.6411 30.3422 45.5117 32.0444 45.9925C34.3964 46.6552 36.5145 46.2524 38.5547 44.966C40.179 43.9394 41.6214 42.6399 43.3757 41.7953C45.6757 40.7038 48.0407 40.3789 50.4966 41.1716C52.8357 41.9252 54.447 44.3422 54.512 47.136C54.5769 50.5536 54.382 53.9582 54.0182 57.3627C53.9922 57.6226 54.0052 57.8825 53.9922 58.1424C53.6413 60.4164 53.6933 62.7165 53.4854 65.0035C53.2515 67.6154 51.991 69.6685 50.0938 71.3708C49.0673 72.3064 48.5475 72.2025 47.7418 71.033C46.8972 69.8115 46.5593 68.3951 46.3514 66.9527C46.2344 66.186 46.1565 65.4063 46.0525 64.6397C45.3508 61.3391 46.1695 58.2204 47.261 55.1537C47.7678 53.7373 48.4565 52.4248 49.2752 51.1773C50.1328 49.8779 50.2887 48.4355 50.0808 46.9411C49.9249 45.8236 49.2882 45.0309 48.1316 44.771C45.8576 44.2513 43.8564 44.797 42.1152 46.3304C40.7248 47.344 40.3869 48.8383 40.27 50.4237C40.231 50.9564 40.231 51.5022 40.3219 52.035C40.257 52.6587 40.153 53.2565 40.218 53.8932C40.296 54.7378 39.5813 55.1667 38.7886 54.8158C38.1259 54.5299 37.5931 54.0361 37.0213 53.6073C33.6168 51.0604 30.2122 48.5135 26.8076 45.9535C26.5737 45.7586 26.2359 45.5897 26.4438 45.1739Z" fill="#595959"/>
<path d="M63.0896 73.5028C62.4658 73.9187 61.9331 73.7367 61.4653 73.2559C60.1398 71.9045 59.4251 70.2282 59.2042 68.396C58.5415 62.9513 58.8274 57.5586 60.4257 52.2828C60.5686 51.828 60.6466 51.3602 60.7506 50.8924C61.0624 49.9698 61.3093 49.0342 61.7641 48.1635C62.2189 47.2929 62.7777 46.9421 63.3625 47.189C63.9212 47.4229 64.0901 48.1116 63.8433 49.0212C63.2195 51.2692 62.5698 53.5173 62.011 55.7783C61.7901 56.6749 61.7381 57.6106 61.6732 58.5332C61.4653 61.353 61.4653 64.1858 61.5432 67.0186C61.5692 67.8502 61.8291 68.6299 62.2319 69.3576C62.5958 70.0203 62.9206 70.696 63.2065 71.4107C63.4924 72.1254 63.5314 72.8141 63.0896 73.5028Z" fill="#595959"/>
<path d="M63.7264 63.8356C63.6744 61.3146 63.8174 58.4169 63.9993 55.5321C64.0253 55.1682 64.1162 54.8044 64.2072 54.4535C64.3241 53.9598 64.597 53.9078 64.9349 54.2326C65.6236 54.8824 66.1694 55.636 66.5722 56.4677C68.5993 60.5999 68.4174 64.6412 65.9225 68.5396C65.9095 68.5526 65.8965 68.5786 65.8835 68.5916C65.4547 69.0724 65.0778 69.7481 64.3241 69.5272C63.5835 69.3063 63.7524 68.5396 63.7264 67.9678C63.7004 66.7204 63.7264 65.4599 63.7264 63.8356Z" fill="#595959"/>
<path d="M26.4445 45.1776C27.2632 45.9832 28.2378 46.5939 29.1474 47.2826C32.1881 49.5696 35.2418 51.8437 38.2955 54.1177C38.4385 54.2217 38.5684 54.3256 38.7243 54.4166C39.478 54.8454 39.9328 54.5855 39.9588 53.7409C39.9718 53.1821 39.9718 52.6104 39.9718 52.0517C40.2317 51.9737 40.3357 52.1555 40.3876 52.3504C40.6345 53.2601 41.4012 53.6629 42.1029 54.1177C42.7007 54.5075 43.3504 54.8064 44.0131 55.0793C44.4419 55.2612 44.9097 55.3782 45.3126 55.0663C45.7154 54.7544 45.6374 54.2736 45.5594 53.8578C45.2216 51.9346 44.4159 50.1934 43.5453 48.4781C43.1035 47.6074 42.4797 46.8669 41.908 46.1002C43.7402 44.4889 45.8453 43.904 48.2233 44.4758C49.6267 44.8136 50.3934 45.8922 50.4844 47.3346C50.6013 49.0368 50.1595 50.5442 49.2109 51.9866C47.4696 54.6245 46.651 57.6523 46.1832 60.771C45.9883 62.0574 46.0792 63.3569 46.0532 64.6562C45.8323 63.8507 45.5984 63.0319 45.3645 62.2263C45.0007 60.9788 44.143 60.1991 43.1295 59.5494C39.9068 57.5223 36.6712 55.5341 33.4486 53.507C30.3689 51.5838 27.2502 49.7385 24.0795 47.9713C23.4818 47.6334 22.871 47.2957 22.1953 47.1138C23.4948 46.2561 24.8722 45.5024 26.4445 45.1776Z" fill="#888888"/>
<path d="M35.8393 64.3965C33.4483 62.5123 30.9273 60.8619 28.0296 59.8354C27.1979 59.5365 26.3663 59.2246 25.5346 58.9258C24.3651 58.419 23.2346 57.8342 22.169 57.1195C20.2199 55.7941 19.3882 54.0008 19.7131 51.6618C21.1815 50.7522 21.7142 50.8302 23.4165 52.0907C25.6256 53.715 27.8606 55.3003 30.0697 56.9376C33.0844 59.1727 36.385 60.9399 39.5817 62.8761C41.0891 63.7857 42.5444 64.7473 43.7529 66.0468C44.1038 66.4106 44.3897 66.8134 44.5976 67.2682C44.9744 68.0999 44.9224 68.7106 44.3897 69.2434C43.8699 69.7632 43.1812 69.8801 42.4145 69.4773C41.5958 69.0355 40.7772 68.5937 40.1275 67.905C38.958 66.6575 37.4896 65.7349 36.2421 64.5654C36.1511 64.4614 35.9822 64.4484 35.8393 64.3965Z" fill="#CECECE"/>
<path d="M81.6073 67.502C80.3858 67.502 79.8011 67.1512 79.6062 66.2935C79.3723 65.254 79.8401 64.3054 80.8406 63.8376C81.2695 63.6427 81.7113 63.4607 82.2051 63.4737C83.3226 63.4997 84.1023 64.2274 84.1282 65.319C84.1542 66.6184 83.4265 67.4631 82.257 67.502C82.0361 67.515 81.8282 67.502 81.6073 67.502Z" fill="#CECECE"/>
<path d="M32.9037 66.4617C34.0343 66.2798 35.2687 67.6052 35.4897 68.5408C35.6716 69.2945 35.1258 69.8922 34.2032 69.9572C33.3196 70.0222 31.9681 69.2295 31.5913 68.4109C31.0585 67.2803 31.6173 66.4617 32.9037 66.4617Z" fill="#CECECE"/>
<path d="M55.3853 66.9779C56.256 67.0039 56.7627 67.5756 57.0876 68.2773C57.4255 69.005 57.4774 69.7847 56.9836 70.4994C56.8147 70.7463 56.5158 70.8502 56.243 70.8242C55.3593 70.7593 54.6186 70.3564 54.2678 69.5508C53.9559 68.8231 54.0209 68.0174 54.4627 67.3027C54.6446 66.9909 55.0215 66.9779 55.3853 66.9779Z" fill="#CECECE"/>
<path d="M10.3199 66.4609C9.11142 66.4609 8.00688 65.3954 7.98089 64.2129C7.9679 63.6151 8.25378 63.2903 8.79955 63.1343C9.98205 62.8225 11.5154 63.8231 11.7103 65.0185C11.8403 65.7592 11.1516 66.4609 10.3199 66.4609Z" fill="#CECECE"/>
<path d="M31.6314 37.3777C31.6314 38.9631 30.6049 39.5478 29.1755 38.9111C27.5382 38.1964 27.3822 36.8969 27.5122 35.4155C27.5901 34.5579 28.6167 34.0251 29.4484 34.298C30.7478 34.7398 31.6444 35.9873 31.6314 37.3777Z" fill="#CECECE"/>
<path d="M33.8115 40.5881C33.2787 40.5361 32.8109 40.0034 32.8499 39.4836C32.8889 38.9378 33.3827 38.496 33.8895 38.561C34.3573 38.6259 34.8121 39.2757 34.7471 39.8214C34.6952 40.3282 34.3053 40.6401 33.8115 40.5881Z" fill="#CECECE"/>
<path d="M41.8938 46.0715C42.4656 46.1235 42.7775 46.5523 43.0244 46.9551C44.2848 49.0083 45.3764 51.1524 45.8312 53.5434C45.9481 54.1671 46.169 54.9208 45.5583 55.3626C44.9735 55.7914 44.2848 55.5445 43.6481 55.2586C42.9594 54.9468 42.2967 54.5829 41.647 54.2061C40.7763 53.6993 40.1656 53.0366 39.9577 52.036C39.9187 50.4247 39.8797 48.8134 40.7373 47.345C41.0492 46.8382 41.4001 46.3834 41.8938 46.0715Z" fill="#B6B6B6"/>
<path d="M53.0692 57.4052C53.0562 57.873 53.0952 58.3538 53.0043 58.8216C52.8093 59.8352 52.0557 60.4069 51.315 60.9527C50.6912 61.4075 49.9765 61.7454 49.1969 61.8753C48.1963 62.0443 47.6505 61.5115 47.8195 60.5109C48.0014 59.4324 48.3912 58.4318 48.885 57.4702C49.3918 56.4436 49.9246 55.43 50.7432 54.5984C51.1071 54.2346 51.4579 53.7408 52.0427 53.9357C52.6664 54.1436 52.8223 54.7803 52.9263 55.3521C53.0173 56.0148 53.1472 56.7035 53.0692 57.4052Z" fill="#444444"/>
<path d="M50.7847 65.8184C52.2661 65.8314 52.448 66.8059 52.0322 68.0014C51.9672 68.1834 51.8503 68.3523 51.7203 68.4952C50.8757 69.4568 50.096 69.9376 49.1085 68.6772C49.0825 68.6382 49.0435 68.6122 49.0175 68.5862C47.913 67.0528 47.9389 66.637 49.7712 66.0653C50.109 65.9353 50.4469 65.7664 50.7847 65.8184Z" fill="#444444"/>
</g>
</g>
<defs>
<clipPath id="clip0_394_7341">
<rect width="90" height="90" fill="white" transform="matrix(0 -1 1 0 0 90)"/>
</clipPath>
</defs>
</svg>
