<svg width="90" height="90" viewBox="0 0 90 90" fill="none" xmlns="http://www.w3.org/2000/svg">
<g clip-path="url(#clip0_394_7381)">
<mask id="mask0_394_7381" style="mask-type:luminance" maskUnits="userSpaceOnUse" x="0" y="0" width="90" height="90">
<path d="M0 0L0 90H90V0H0Z" fill="white"/>
</mask>
<g mask="url(#mask0_394_7381)">
<path d="M10.4023 76.7749C10.4023 83.4842 15.267 88.9297 21.2594 88.9297C25.1371 88.9297 28.5364 86.6484 30.4566 83.2243C36.1768 86.8456 42.7779 88.9297 49.8166 88.9297C71.5692 88.9297 89.23 69.1781 89.23 44.8281C89.23 20.4782 71.5692 0.708603 49.8166 0.708603C42.7779 0.708603 36.1768 2.7927 30.4566 6.4141C28.5348 2.9989 25.1319 0.708603 21.2594 0.708603C15.267 0.708603 10.4023 6.1541 10.4023 12.8635C10.4023 17.1974 12.4459 20.9891 15.5004 23.1404C12.2597 29.545 10.4023 36.9445 10.4023 44.8281C10.4023 52.7117 12.2613 60.0934 15.5004 66.4979C12.4459 68.6492 10.4023 72.4409 10.4023 76.7749Z" fill="#794522" stroke="#010101" stroke-width="1.60152" stroke-linecap="round" stroke-linejoin="round"/>
<path d="M15.0078 12.7184C15.0078 15.1565 16.1549 17.2854 17.8693 18.5C20.1123 14.7711 22.9762 11.5621 26.3073 9.0522C25.2215 7.1429 23.3033 5.8656 21.13 5.8656C17.7516 5.8656 15.0078 8.9357 15.0078 12.7184Z" fill="#A05B2C" stroke="#010101" stroke-width="1.60152" stroke-linecap="round" stroke-linejoin="round"/>
<path d="M15.0078 76.8035C15.0078 74.3653 16.1549 72.2365 17.8693 71.0219C20.1123 74.7508 22.9762 77.9598 26.3073 80.4696C25.2215 82.3789 23.3033 83.6562 21.13 83.6562C17.7516 83.6562 15.0078 80.5862 15.0078 76.8035Z" fill="#A05B2C" stroke="#010101" stroke-width="1.60152" stroke-linecap="round" stroke-linejoin="round"/>
<path d="M15.9291 33.9535C13.5164 29.3238 1.67039 30.8834 0.816775 33.084C7.1696 35.0605 9.6896 37.0371 11.6823 40.4791C7.74735 39.5021 2.33662 40.2013 0 43.473C3.36319 43.1414 8.4252 44.3157 11.8761 48.2597C8.23381 49.3309 4.01741 49.6311 2.58445 53.6558C6.88053 52.6653 9.55867 53.723 12.4462 54.9062" fill="#794522"/>
<path d="M15.9291 33.9535C13.5164 29.3238 1.67039 30.8835 0.816775 33.084C7.1696 35.0605 9.6896 37.0371 11.6823 40.4791C7.74735 39.5021 2.33662 40.2013 0 43.473C3.36319 43.1414 8.4252 44.3157 11.8761 48.2597C8.23381 49.3309 4.01741 49.6311 2.58445 53.6558C6.88053 52.6653 9.55867 53.723 12.4462 54.9062" stroke="#010101" stroke-width="1.60152" stroke-linecap="round" stroke-linejoin="round"/>
<path d="M50.0365 19.5449C48.8714 19.4463 47.6823 19.3925 46.4772 19.3925H46.4411C31.2511 19.397 18.9466 27.3927 18.957 37.2483C18.9594 39.9553 19.8959 42.519 21.5595 44.8182C19.8903 47.1218 18.9542 49.6944 18.957 52.4104C18.967 62.2661 31.2875 70.2527 46.4772 70.2438H46.5132C47.7063 70.2438 48.8834 70.19 50.0365 70.0914C53.6079 75.4248 58.3124 78.6607 63.4733 78.6562H63.4973C74.6519 78.6473 82.4873 63.4851 82.4793 44.7957C82.4713 26.1064 74.6239 10.9666 63.4733 10.9801H63.4453C58.2964 10.9846 53.5999 14.2205 50.0365 19.5449Z" fill="#A05B2C" stroke="#010101" stroke-width="1.60152" stroke-linecap="round" stroke-linejoin="round"/>
<path d="M58.457 69.4688C58.457 69.4688 69.4675 60.2227 69.4675 44.8185C69.4675 29.4098 58.457 20.1681 58.457 20.1681" stroke="#010101" stroke-width="1.60152" stroke-linecap="round" stroke-linejoin="round"/>
<path d="M48.3762 37.4879C49.9698 38.5143 50.7145 40.4012 50.0458 41.7009C49.3772 42.9962 47.5435 43.2158 45.9539 42.1894C44.3604 41.1631 43.6157 39.2762 44.2844 37.9765C44.953 36.6767 46.7867 36.4616 48.3762 37.4879Z" fill="#010101"/>
<path d="M48.3762 52.1582C49.9698 51.1273 50.7145 49.245 50.0458 47.9452C49.3772 46.6455 47.5435 46.4304 45.9539 47.4567C44.3604 48.483 43.6157 50.3699 44.2844 51.6696C44.953 52.9649 46.7867 53.1845 48.3762 52.1582Z" fill="#010101"/>
<path d="M34.367 46.3174C38.9717 46.3129 42.7077 50.49 42.7117 55.6442C42.7117 60.7983 38.9825 64.9799 34.3782 64.9844H34.367C29.7622 64.9889 26.0266 60.8118 26.0234 55.6576C26.0206 50.5035 29.751 46.3219 34.3557 46.3174H34.367Z" fill="white" stroke="#010101" stroke-width="1.60152" stroke-linecap="round" stroke-linejoin="round"/>
<path d="M35.3236 49.9672C36.7526 49.9672 37.9117 51.2625 37.9129 52.8625C37.9133 54.4625 36.7562 55.7578 35.3272 55.7578H35.3236C33.8947 55.7623 32.7352 54.4625 32.7344 52.867C32.7332 51.267 33.8911 49.9672 35.32 49.9672H35.3236Z" fill="#010101"/>
<path d="M34.367 24.6455C38.9717 24.6411 42.7077 28.8181 42.7117 33.9723C42.7117 39.1264 38.9825 43.308 34.3782 43.3125H34.367C29.7622 43.317 26.0266 39.1399 26.0234 33.9857C26.0206 28.8316 29.751 24.65 34.3557 24.6455H34.367Z" fill="white" stroke="#010101" stroke-width="1.60152" stroke-linecap="round" stroke-linejoin="round"/>
<path d="M35.3236 34.0878C36.7526 34.0878 37.9117 35.383 37.9129 36.983C37.9133 38.5831 36.7562 39.8828 35.3272 39.8828H35.3236C33.8947 39.8828 32.7352 38.5876 32.7344 36.9875C32.7332 35.3875 33.8911 34.0922 35.32 34.0878H35.3236Z" fill="#010101"/>
</g>
</g>
<defs>
<clipPath id="clip0_394_7381">
<rect width="90" height="90" fill="white" transform="matrix(0 -1 1 0 0 90)"/>
</clipPath>
</defs>
</svg>
