<svg width="90" height="90" viewBox="0 0 90 90" fill="none" xmlns="http://www.w3.org/2000/svg">
<g clip-path="url(#clip0_2235_28)">
<path d="M90 45C90 20.1472 69.8528 0 45 0C20.1472 0 0 20.1472 0 45C0 69.8528 20.1472 90 45 90C69.8528 90 90 69.8528 90 45Z" fill="#D80027"/>
<path d="M36.9316 18.4043V38.7246L17.6133 45L36.9316 51.2754V71.5957L48.8672 55.1602L68.1855 61.4355L56.25 45L68.1855 28.5645L48.8672 34.8398L36.9316 18.4043ZM47.373 50.5547L40.834 48.4277V41.5547L47.373 39.4277L51.416 44.9824L47.373 50.5547ZM36.9316 42.8379V47.1621L30.2695 45L36.9316 42.8379ZM44.9648 36.1055L40.8516 37.4414V30.4453L44.9648 36.1055ZM40.8516 52.541L44.9648 53.877L40.8516 59.5371V52.541ZM57.9551 54L51.293 51.8379L53.8418 48.3398L57.9551 54ZM53.8418 41.6777L51.293 38.1797L57.9551 36.0176L53.8418 41.6777Z" fill="#6DA544"/>
</g>
<defs>
<clipPath id="clip0_2235_28">
<rect width="90" height="90" fill="white" transform="matrix(0 -1 1 0 0 90)"/>
</clipPath>
</defs>
</svg>
