<svg width="90" height="90" viewBox="0 0 90 90" fill="none" xmlns="http://www.w3.org/2000/svg">
<g clip-path="url(#clip0_394_7401)">
<mask id="mask0_394_7401" style="mask-type:luminance" maskUnits="userSpaceOnUse" x="0" y="0" width="90" height="90">
<path d="M0 0L0 90H90V0H0Z" fill="white"/>
</mask>
<g mask="url(#mask0_394_7401)">
<path d="M44.9984 1.1306C50.7605 1.1294 56.4665 2.2633 61.7903 4.4676C67.1142 6.6718 71.9517 9.9032 76.0265 13.9773C80.1014 18.0513 83.3338 22.8881 85.5392 28.2115C87.7445 33.5349 88.8796 39.2406 88.8796 45.0028C88.8796 50.7649 87.7445 56.4706 85.5392 61.794C83.3338 67.1174 80.1014 71.9543 76.0265 76.0283C71.9517 80.1023 67.1142 83.3337 61.7903 85.538C56.4665 87.7423 50.7605 88.8762 44.9984 88.875C39.2363 88.8762 33.5303 87.7423 28.2065 85.538C22.8826 83.3337 18.0451 80.1023 13.9702 76.0283C9.89538 71.9543 6.66297 67.1174 4.45762 61.794C2.25227 56.4706 1.11719 50.7649 1.11719 45.0028C1.11719 39.2406 2.25227 33.5349 4.45762 28.2115C6.66297 22.8881 9.89538 18.0513 13.9702 13.9773C18.0451 9.9032 22.8826 6.6718 28.2065 4.4676C33.5303 2.2633 39.2363 1.1294 44.9984 1.1306Z" fill="url(#paint0_radial_394_7401)"/>
<path fill-rule="evenodd" clip-rule="evenodd" d="M0.00390625 45.0029C0.00390625 69.8535 20.1494 90 45.001 90C69.8525 90 89.998 69.8546 89.998 45.0029C89.998 20.1525 69.8525 0.00589752 45.001 0.00589752C20.1494 0.00589752 0.00390625 20.1514 0.00390625 45.0029ZM3.37176 45.0011C3.37161 22.0122 22.0091 3.3733 44.9986 3.3733C49.7161 3.3733 54.2502 4.1581 58.4776 5.6041C60.0703 6.1492 61.6193 6.7886 63.1182 7.5143C78.1051 15.2058 72.0678 42.3984 63.3627 43.7476C64.6445 39.9162 63.2845 34.4632 60.8901 31.4887C61.0328 39.9341 55.1111 52.6884 46.3491 53.1736C41.6505 53.434 39.3002 49.8643 38.6969 47.7274C38.3363 46.4505 37.9468 43.9592 38.9975 41.6105C39.9624 39.4517 42.5361 37.0752 44.968 36.8249C45.712 36.7482 46.4815 36.8325 47.1242 36.6579C47.7672 36.4817 48.1311 35.9548 48.4689 35.5461C49.487 34.3143 51.3047 31.6977 53.0347 29.4378C55.4056 26.3408 57.7728 23.887 59.1444 26.366C60.5524 21.571 59.3038 21.0105 58.8483 20.5655C58.2629 19.993 58.1065 19.6112 57.4362 20.5596C57.3831 20.6052 57.3353 20.659 57.2852 20.7076C56.5084 18.5251 55.2364 17.061 53.0108 16.9884C54.1606 18.3989 54.8325 20.298 55.025 22.6866C54.9794 22.7245 54.9376 22.755 54.8944 22.7876C54.3014 21.3416 53.3741 20.388 52.1127 19.9239C52.96 21.025 53.4982 22.2788 53.6053 23.7485C53.5051 23.8168 53.4026 23.8904 53.3024 23.9595C52.6335 22.7065 51.6366 21.8907 50.0212 21.8957C51.0387 22.8749 51.3559 24.0348 51.1564 25.3261C51.0546 25.3869 50.9514 25.4446 50.8489 25.5031C50.5186 24.2443 49.9213 23.4282 49.0545 23.0539C49.6057 24.0001 49.7955 25.0415 49.6232 26.1782C48.5034 26.7689 47.3592 27.3053 46.197 27.8027C46.1211 27.8103 46.0489 27.8179 45.9761 27.8255C46.5553 25.4613 47.4451 23.1651 48.5454 20.9144C51.4413 16.3245 56.2217 14.0127 62.4303 13.4295C59.9563 13.2245 57.7266 13.3611 55.7259 13.8219C57.3596 12.3593 58.6034 10.1859 58.4815 5.6499C57.3592 14.8695 50.3067 14.3204 47.2198 18.9824L47.0999 19.1669C45.2402 21.4286 43.8166 24.3019 42.7714 27.7052C40.898 27.2368 40.0753 25.9557 40.0703 24.0432C40.0703 23.7007 40.1082 23.3098 40.1743 22.8787C41.0206 23.0457 41.8832 23.4974 42.7773 24.5572C42.485 22.7076 41.7386 21.4333 40.6342 20.8527C40.695 20.6446 40.755 20.4306 40.8203 20.2142C42.4757 19.6106 43.9467 19.5248 45.071 20.4032C44.4454 18.7335 43.2839 17.7773 41.8586 17.1702C41.8966 17.0662 41.9353 16.9599 41.974 16.8551C43.9763 16.0669 45.7437 15.8259 47.0275 16.6987C46.3753 14.4697 45.0881 13.4623 43.4768 13.0762L43.5618 12.8667C45.8538 12.5835 47.8039 13.0376 49.2716 14.5235C48.2924 12.4858 47.046 10.7346 44.8773 9.9783C44.9077 9.9099 44.9456 9.8491 44.9782 9.7846C47.3079 9.4118 49.2124 10.3039 50.8226 12.077C50.5462 9.5596 49.4902 7.5977 47.3321 6.42C47.7261 6.0336 48.1476 5.6995 48.6021 5.4284C46.551 4.0313 44.4327 3.9508 42.2638 4.834C40.9637 5.3631 39.7311 6.7213 38.3175 7.8718C36.5001 9.351 34.4754 10.8092 32.6077 13.1186C33.9621 12.7481 35.2275 12.5887 36.3634 12.7352C35.9041 13.4596 35.3498 13.9917 34.9397 14.5326C34.0374 15.7227 33.3655 16.6015 32.6267 17.1648C31.7361 17.8435 30.801 17.9616 29.9799 18.3044C29.2556 18.6073 28.646 19.1383 27.8413 19.6388C23.2739 22.4801 18.7625 23.9977 14.2831 24.7541C17.502 26.5421 20.5123 26.8556 23.3812 26.1647C19.6784 32.1792 14.1281 34.6258 5.87665 31.8496C9.46394 35.4712 13.7778 36.7434 18.9662 35.179C17.0508 42.7922 12.1674 45.9127 4.31521 44.542C8.15882 47.88 12.6698 48.0392 17.7344 45.5644C19.1449 54.3218 16.6758 59.9523 8.53833 61.0136C12.8657 63.3672 17.0693 63.1157 21.0535 58.2231C25.7344 65.122 25.6778 71.2362 19.9022 76.4029C24.1424 76.4257 27.8483 74.8673 30.081 68.9454C35.4706 73.1924 36.6253 78.4287 33.5411 84.651C36.4324 83.2858 38.9009 81.1465 40.6206 77.6318C44.4872 84.1494 48.1555 86.2798 52.899 85.0209C48.9872 83.9795 48.5489 80.9362 48.5489 80.9362C58.0635 84.3512 65.1417 81.4532 65.1417 81.4532C58.9726 85.1115 51.1208 86.5977 44.9989 86.6275C22.0085 86.7399 3.37192 67.9899 3.37176 45.0011ZM26.514 28.2045C29.9748 26.0258 29.5194 20.8993 33.3283 21.1881C33.1544 25.2005 30.4161 27.1675 26.514 28.2045ZM40.7489 9.7289C41.2189 8.7903 41.4086 7.3809 43.7987 7.1699C43.8519 8.5991 41.8063 8.4616 40.7489 9.7289Z" fill="url(#paint1_linear_394_7401)"/>
<path opacity="0.15" d="M1.12891 45.0029C1.12891 69.2329 20.771 88.875 45.001 88.875C45.9172 88.875 46.8262 88.8454 47.7285 88.79C40.0269 75.8262 35.292 58.2144 35.292 38.8125C35.292 25.0494 37.6752 12.1868 41.8091 1.2451C19.0696 2.8805 1.12891 21.8466 1.12891 45.0029Z" fill="#FAFAFA"/>
</g>
</g>
<defs>
<radialGradient id="paint0_radial_394_7401" cx="0" cy="0" r="1" gradientUnits="userSpaceOnUse" gradientTransform="translate(8.36342 35.6967) rotate(-90) scale(54.4197 54.4196)">
<stop stop-color="#FFC107"/>
<stop offset="1" stop-color="#FF3D00"/>
</radialGradient>
<linearGradient id="paint1_linear_394_7401" x1="3.80981" y1="51.3836" x2="116.2" y2="35.8266" gradientUnits="userSpaceOnUse">
<stop/>
<stop offset="1" stop-color="#282828"/>
</linearGradient>
<clipPath id="clip0_394_7401">
<rect width="90" height="90" fill="white" transform="matrix(0 -1 1 0 0 90)"/>
</clipPath>
</defs>
</svg>
