<svg width="90" height="90" viewBox="0 0 90 90" fill="none" xmlns="http://www.w3.org/2000/svg">
<g clip-path="url(#clip0_847_12861)">
<path d="M90 0H0V90H90V0Z" fill="url(#paint0_linear_847_12861)"/>
<path d="M45.6847 16.951L46.785 15.3867L45.6847 14.6127L44.5843 15.3867L45.6847 16.951ZM28.5942 28.9725L27.4939 27.4081L25.3063 28.9469L27.4697 30.5194L28.5942 28.9725ZM62.7751 28.9725H64.6876V27.9794L63.8755 27.4081L62.7751 28.9725ZM62.7751 53.8168L61.6507 55.3637L64.6876 57.5712V53.8168H62.7751ZM61.2552 61.0299L62.3757 62.5797L64.5138 61.0341L62.3797 59.4828L61.2552 61.0299ZM27.0752 36.1856L28.1996 34.6385L25.1627 32.431V36.1856H27.0752ZM44.627 73.0512L43.5465 74.6291L44.6569 75.3898L45.7475 74.6012L44.627 73.0512ZM27.0752 61.0299H25.1627V62.0381L25.9945 62.6078L27.0752 61.0299ZM44.5843 15.3867L27.4939 27.4081L29.6945 30.5367L46.785 18.5152L44.5843 15.3867ZM63.8755 27.4081L46.785 15.3867L44.5843 18.5152L61.6748 30.5367L63.8755 27.4081ZM64.6876 53.8168V28.9725H60.8626V53.8168H64.6876ZM27.4697 30.5194L61.6507 55.3637L63.8996 52.2697L29.7187 27.4254L27.4697 30.5194ZM62.3797 59.4828L28.1996 34.6385L25.9507 37.7325L60.1307 62.5769L62.3797 59.4828ZM45.7475 74.6012L62.3757 62.5797L60.1347 59.48L43.5065 71.5014L45.7475 74.6012ZM25.9945 62.6078L43.5465 74.6291L45.7077 71.4734L28.1559 59.4521L25.9945 62.6078ZM25.1627 36.1856V61.0299H28.9877V36.1856H25.1627Z" fill="white"/>
</g>
<defs>
<linearGradient id="paint0_linear_847_12861" x1="-8.31438" y1="-9.69186" x2="94.2858" y2="-4.2095" gradientUnits="userSpaceOnUse">
<stop stop-color="#F29AC4"/>
<stop offset="0.13" stop-color="#F2A9CB"/>
<stop offset="0.275" stop-color="#F2BAD5"/>
<stop offset="0.395" stop-color="#CDC6D7"/>
<stop offset="0.52" stop-color="#82D1D9"/>
<stop offset="0.66" stop-color="#09D4D7"/>
<stop offset="0.8" stop-color="#11BBCA"/>
<stop offset="1" stop-color="#17A0BF"/>
</linearGradient>
<clipPath id="clip0_847_12861">
<rect width="90" height="90" rx="45" fill="white"/>
</clipPath>
</defs>
</svg>
