<svg width="90" height="90" viewBox="0 0 90 90" fill="none" xmlns="http://www.w3.org/2000/svg">
  <g clip-path="url(#clip0_255_1217)">
    <path d="M90 0H0V90H90V0Z" fill="url(#paint0_linear_255_1217)" />
    <path
      d="M45.6841 16.9506L46.7844 15.3863L45.6841 14.6123L44.5837 15.3863L45.6841 16.9506ZM28.5936 28.9721L27.4933 27.4077L25.3058 28.9465L27.4692 30.519L28.5936 28.9721ZM62.7746 28.9721H64.6871V27.979L63.8749 27.4077L62.7746 28.9721ZM62.7746 53.8164L61.6501 55.3633L64.6871 57.5708V53.8164H62.7746ZM61.2546 61.0295L62.3751 62.5793L64.5132 61.0337L62.3791 59.4824L61.2546 61.0295ZM27.0746 36.1852L28.1991 34.6381L25.1621 32.4306V36.1852H27.0746ZM44.6264 73.0508L43.5459 74.6287L44.6563 75.3894L45.7469 74.6008L44.6264 73.0508ZM27.0746 61.0295H25.1621V62.0377L25.9939 62.6074L27.0746 61.0295ZM44.5837 15.3863L27.4933 27.4077L29.694 30.5363L46.7844 18.5148L44.5837 15.3863ZM63.8749 27.4077L46.7844 15.3863L44.5837 18.5148L61.6742 30.5363L63.8749 27.4077ZM64.6871 53.8164V28.9721H60.8621V53.8164H64.6871ZM27.4692 30.519L61.6501 55.3633L63.899 52.2693L29.7181 27.425L27.4692 30.519ZM62.3791 59.4824L28.1991 34.6381L25.9502 37.7321L60.1302 62.5764L62.3791 59.4824ZM45.7469 74.6008L62.3751 62.5793L60.1341 59.4795L43.5059 71.501L45.7469 74.6008ZM25.9939 62.6074L43.5459 74.6287L45.7071 71.4729L28.1553 59.4516L25.9939 62.6074ZM25.1621 36.1852V61.0295H28.9871V36.1852H25.1621Z"
      fill="white" />
  </g>
  <defs>
    <linearGradient id="paint0_linear_255_1217" x1="-8.31438" y1="-9.69186" x2="94.2858" y2="-4.2095"
      gradientUnits="userSpaceOnUse">
      <stop stop-color="#F29AC4" />
      <stop offset="0.13" stop-color="#F2A9CB" />
      <stop offset="0.275" stop-color="#F2BAD5" />
      <stop offset="0.395" stop-color="#CDC6D7" />
      <stop offset="0.52" stop-color="#82D1D9" />
      <stop offset="0.66" stop-color="#09D4D7" />
      <stop offset="0.8" stop-color="#11BBCA" />
      <stop offset="1" stop-color="#17A0BF" />
    </linearGradient>
    <clipPath id="clip0_255_1217">
      <rect width="90" height="90" rx="45" fill="white" />
    </clipPath>
  </defs>
</svg>