<svg width="90" height="90" viewBox="0 0 90 90" fill="none" xmlns="http://www.w3.org/2000/svg">
<g clip-path="url(#clip0_1486_14821)">
<path d="M0 0L0 90H90V0H0Z" fill="#FF0000"/>
<path d="M74.9216 44.6626C74.9216 61.2823 82.9976 74.7588 92.9987 74.944V14.3687C82.9972 14.5531 74.9216 28.0423 74.9216 44.661V44.6626Z" fill="white"/>
<path d="M8.00484 47.486C8.1079 53.8308 10.0079 60.0097 13.4051 64.9084C18.2628 71.9141 25.7281 76.55 35.3318 78.5053C35.7735 78.5951 36.381 78.7098 36.6755 78.7718C36.9699 78.8338 37.72 78.9609 38.3461 79.0384C38.973 79.1159 40.0082 79.2484 40.6343 79.3406C42.105 79.5575 47.4727 79.5591 48.8071 79.3406C52.8899 78.6726 55.871 77.9481 60.8666 76.4108C62.3846 75.9435 62.7488 75.835 63.6756 75.5878C63.9336 75.5189 64.8379 75.2686 65.6856 75.0423C71.1391 73.5871 74.8982 73.46 78.4586 74.5828C81.0653 75.405 83.063 76.7045 85.6137 79.2686C87.4471 81.1059 90.2132 83.1811 93 84.5347V72.1614C92.253 71.8383 91.4719 71.5795 90.8931 71.2897C87.1876 69.4323 84.5823 67.5494 82.03 64.8847C78.6702 61.3775 76.6545 57.428 75.8068 52.7167C75.5736 51.4227 75.5325 47.3733 75.7464 46.0938C76.911 39.1192 80.6312 33.1579 86.7882 28.3924C88.6046 26.9868 90.7417 25.7214 92.9998 24.5791V-1.46443C91.0967 -0.586479 88.7131 0.906708 86.1468 2.70892C84.7373 3.69845 82.6109 5.01186 81.7642 5.72707C79.0715 7.99902 77.7704 9.91232 75.9487 11.2883C73.3056 14.1484 72.757 13.8083 69.0392 13.7424C63.1159 12.5522 52.0631 12.212 43.1613 12.5522C40.5624 12.4267 39.2111 12.5685 37.8377 12.701C32.9853 13.1713 30.0726 14.0919 26.2751 15.9942C23.2678 17.5013 20.6742 19.3982 18.1876 21.891C15.4058 24.679 13.4741 27.3819 11.6858 31.0074C9.50682 35.4251 8.40029 39.6295 8.06554 44.7616C8.00665 45.6721 7.99038 46.5795 8.0051 47.4861L8.00484 47.486Z" fill="black"/>
<path d="M23.357 34.989C23.3973 34.5217 23.4879 34.0568 23.6119 33.5725C24.868 28.6599 30.2874 24.4624 36.8818 23.293C38.8206 22.9497 41.7713 22.9203 43.5162 23.2326C47.9448 24.0252 51.1898 26.3181 52.4273 29.5159C52.9341 30.8254 53.0712 32.758 52.7543 34.1534C51.998 37.4824 49.058 40.7872 45.0536 42.798C43.1071 43.7759 39.9255 44.7422 38.6857 44.7352C37.7914 44.8809 37.6915 44.8972 36.3974 44.9778C35.9379 45.101 33.4963 44.915 31.8326 44.5299C28.2071 43.6884 25.4375 41.7148 24.1567 39.0694C23.5074 37.7289 23.2385 36.3899 23.3571 34.989L23.357 34.989Z" fill="black"/>
<path d="M23.3569 55.9598C23.2384 54.5588 23.5073 53.2198 24.1566 51.8793C25.4352 49.237 28.207 47.2689 31.8203 46.4311C34.6556 45.8624 38.6726 46.0592 39.3514 46.2855C41.6628 46.5892 44.9784 47.9049 47.1367 49.3733C50.0804 51.3756 52.1898 54.1868 52.7545 56.867C53.2589 59.2583 52.7653 61.5023 51.314 63.4294C49.1281 66.3306 45.2218 67.9324 40.3564 67.9337C32.4557 67.9345 25.1293 63.3216 23.6121 57.3878C23.4881 56.9035 23.3975 56.4261 23.3572 55.9597L23.3569 55.9598Z" fill="white"/>
<path d="M12.4364 44.6526C12.4364 44.6526 54.3782 46.3527 72.0066 45.2818C72.993 39.3718 74.332 36.6667 79.1379 30.7778C81.6524 27.6953 88.1521 21.9768 93.0013 19.7713V3.16018C90.6109 4.70746 85.9922 7.77226 85.1194 8.50953C84.0044 9.45099 82.5081 10.7249 81.7898 11.3309C79.5086 13.2557 76.2626 16.1337 74.7189 17.2998C73.4993 18.5342 72.6407 18.4102 71.0018 18.3652C66.6159 18.2544 49.458 17.8259 42.2949 17.4811C40.0927 17.3749 39.1969 17.3687 38.0329 17.4811C33.9214 17.8794 31.0808 18.6659 27.8626 20.2784C25.314 21.5546 23.1172 23.154 21.0096 25.2664C18.6524 27.629 17.0157 29.9188 15.5009 32.9912C13.6551 36.7338 12.4378 44.6507 12.4378 44.6507L12.4364 44.6526Z" fill="#333333"/>
<path d="M52.7407 32.8399C52.1719 35.5357 50.0526 38.3648 47.0918 40.3786C44.9214 41.8555 41.59 43.1759 39.2655 43.4812C38.5828 43.709 34.5403 43.9105 31.6888 43.3394C28.0547 42.4964 25.2613 40.5088 23.9749 37.8519C23.1055 36.0542 22.928 34.2687 23.4271 32.3194C26.4189 18.5367 55.6279 18.0646 52.7407 32.8401V32.8399Z" fill="white"/>
<path d="M52.02 47.7638L52.5097 48.2241C53.4799 49.14 54.1416 51.1121 54.4903 54.1458C54.8739 57.477 54.6662 61.7132 54.0215 63.7435C53.703 64.747 53.7573 65.019 54.3353 65.2592C56.1609 66.0162 59.6162 64.4332 64.2637 60.7116C67.2113 58.3513 70.755 54.8425 72.4084 52.6466C73.0523 51.7919 73.5606 50.7497 73.807 49.7779C74.0077 48.9876 73.9682 44.3056 73.7528 43.2C73.6807 42.8312 73.5506 42.1446 73.4591 41.6758C72.9671 39.1273 71.7327 36.9794 68.606 33.2164C65.7816 29.8177 61.1315 25.6496 58.9207 24.5361C57.3043 23.7217 54.868 23.3854 54.1218 23.8743C53.694 24.1548 53.6871 24.2726 54.0296 25.3481C54.3612 26.3911 54.6991 29.9454 54.6991 32.3539C54.6991 33.3511 54.6061 34.9606 54.4899 35.9344C54.1528 38.7697 53.5716 40.4007 52.5558 41.3572L52.0195 41.8593L52.02 47.7638ZM53.0917 46.545C53.0917 45.8065 54.0533 45.3927 55.1141 45.6786C56.9335 46.1684 57.8138 47.3547 56.894 48.0777C55.8867 48.8704 53.0916 47.7445 53.0916 46.545H53.0917ZM53.0917 43.7399C53.0917 42.9162 54.6585 41.9267 55.9603 41.9267C57.0823 41.9267 57.5991 42.779 56.9653 43.5849C56.443 44.249 54.8971 44.8332 54.0672 44.6775C53.5032 44.5721 53.0917 44.1753 53.0917 43.7399Z" fill="#EECC00"/>
<path d="M41.0667 52.2734C44.4049 52.2734 47.1107 54.7592 47.1107 57.8247C47.1107 60.8909 44.4048 63.3761 41.0667 63.3761C37.7278 63.3761 35.0217 60.8911 35.0217 57.8247C35.0217 54.7593 37.7276 52.2734 41.0667 52.2734Z" fill="black"/>
<path d="M38.6994 53.5726C40.1624 53.5726 41.3479 54.6621 41.3479 56.005C41.3479 57.3486 40.1624 58.4381 38.6994 58.4381C37.2365 58.4381 36.0509 57.3486 36.0509 56.005C36.0509 54.6621 37.2365 53.5726 38.6994 53.5726Z" fill="white"/>
<path d="M41.1063 27.4111C44.4452 27.4111 47.1513 29.8961 47.1513 32.9624C47.1513 36.0279 44.4454 38.5138 41.1063 38.5138C37.7681 38.5138 35.0624 36.028 35.0624 32.9624C35.0624 29.8963 37.7683 27.4111 41.1063 27.4111Z" fill="black"/>
<path d="M38.6994 28.6178C40.1624 28.6178 41.3479 29.7065 41.3479 31.0501C41.3479 32.3929 40.1624 33.4824 38.6994 33.4824C37.2365 33.4824 36.0509 32.3929 36.0509 31.0501C36.0509 29.7064 37.2365 28.6178 38.6994 28.6178Z" fill="white"/>
<path d="M8.00483 47.486C8.10789 53.8308 10.0079 60.0097 13.4051 64.9084C18.2628 71.9141 25.7281 76.55 35.3318 78.5053C35.7735 78.5951 36.381 78.7098 36.6755 78.7718C36.9699 78.8338 37.72 78.9609 38.3461 79.0384C38.973 79.1159 40.0082 79.2484 40.6343 79.3406C42.105 79.5575 47.4727 79.5591 48.8071 79.3406C52.8899 78.6726 55.871 77.9481 60.8666 76.4108C62.3846 75.9435 62.7488 75.835 63.6755 75.5878C63.9336 75.5189 64.8379 75.2686 65.6856 75.0423C71.1391 73.5871 74.8982 73.46 78.4586 74.5828C81.0653 75.405 83.063 76.7045 85.6137 79.2686C87.4471 81.1059 90.2132 83.1811 93 84.5347V-1.46486C91.0969 -0.586906 88.7126 0.910141 86.147 2.71246C84.7375 3.70199 82.6111 5.01152 81.7644 5.72674C79.0717 7.9987 77.7745 9.90803 75.9528 11.284C73.3089 14.1441 72.7572 13.8078 69.0393 13.742C63.116 12.5518 52.0672 12.2155 43.1654 12.5556C40.5665 12.4301 39.2119 12.568 37.8382 12.7005C32.9858 13.1709 30.0731 14.0914 26.2756 15.9937C23.2683 17.5009 20.6747 19.3978 18.1881 21.8906C15.4063 24.6786 13.4746 27.3814 11.6863 31.007C9.50731 35.4246 8.40077 39.6291 8.06603 44.7612C8.00714 45.6717 7.99086 46.5791 8.00559 47.4857L8.00483 47.486ZM28.7691 69.1826L28.7691 21.2005H49.0609L49.0609 69.1826H28.7691Z" fill="#191919"/>
<path d="M50.7966 14.8742C53.5552 18.3209 65.6534 7.02147 67.5697 4.04296C62.6981 8.94333 58.9856 6.69845 55.2328 9.16484C51.48 11.6313 48.0379 11.4275 50.7966 14.8742Z" fill="#191919"/>
<path d="M48.9253 14.3519C52.6147 16.7757 60.6238 2.28842 61.5247 -1.13708C58.4074 5.02955 54.1828 4.04366 51.3778 7.55016C48.572 11.0563 45.2353 11.9275 48.9253 14.3519Z" fill="#191919"/>
<path d="M11.8552 49.0631C11.9427 54.4656 13.5599 59.7271 16.4524 63.8981C20.5887 69.8624 26.9451 73.8103 35.1222 75.4749C35.4988 75.5516 36.0156 75.6485 36.2667 75.7019C36.517 75.7546 37.1555 75.8623 37.6886 75.929C38.2225 75.9948 39.1043 76.108 39.6374 76.1862C44.754 77.1758 51.6589 76.3722 52.7949 76.1862C56.271 75.6175 58.8094 74.9999 63.0628 73.6919C64.3553 73.2936 64.6653 73.2014 65.4541 72.9906C65.6741 72.9318 66.4444 72.7194 67.1658 72.5265C71.8096 71.2874 75.7849 71.179 78.817 72.1352C81.0362 72.8349 82.7371 73.9414 84.9092 76.1244C86.4706 77.6888 88.8253 79.4563 91.1981 80.6095V45.0585L50.6879 45.0585V71.4115H27.2106V45.0585H11.8757C11.8532 45.6195 11.8463 48.5035 11.8556 49.0629L11.8552 49.0631Z" fill="#333333"/>
</g>
<rect x="0.5" y="89.5" width="89" height="89" rx="44.5" transform="rotate(-90 0.5 89.5)" stroke="black"/>
<defs>
<clipPath id="clip0_1486_14821">
<rect y="90" width="90" height="90" rx="45" transform="rotate(-90 0 90)" fill="white"/>
</clipPath>
</defs>
</svg>
