<svg width="90" height="90" viewBox="0 0 90 90" fill="none" xmlns="http://www.w3.org/2000/svg">
<g clip-path="url(#clip0_383_2757)">
<path d="M89.855 44.9744C89.855 50.8682 88.6942 56.7043 86.4387 62.1495C84.1833 67.5947 80.8774 72.5423 76.7098 76.7098C72.5423 80.8774 67.5947 84.1833 62.1495 86.4387C56.7043 88.6942 50.8682 89.8551 44.9744 89.8551C39.0806 89.8551 33.2445 88.6942 27.7993 86.4387C22.3541 84.1833 17.4065 80.8774 13.239 76.7098C9.07144 72.5423 5.76554 67.5947 3.51008 62.1495C1.25462 56.7043 0.0937495 50.8682 0.09375 44.9744C0.09375 33.0713 4.82224 21.6557 13.239 13.239C21.6557 4.82223 33.0713 0.0937505 44.9744 0.09375C56.8775 0.0937505 68.2931 4.82223 76.7098 13.239C85.1266 21.6557 89.855 33.0713 89.855 44.9744Z" fill="black"/>
<path d="M67.2164 45.8198C67.0571 73.5918 56.1619 85.365 44.5752 84.9258C31.916 84.446 21.2969 72.1581 21.2969 45.8198C21.2969 23.7822 23.7726 6.19798 44.2566 5.91728C64.7428 5.63655 67.3428 23.7826 67.2164 45.8198Z" fill="#9B916B"/>
<g filter="url(#filter0_f_383_2757)">
<path d="M63.6302 45.9047C63.4923 71.0445 54.0597 81.7018 44.0284 81.3043C33.0686 80.8699 23.875 69.7467 23.875 45.9047C23.875 25.9559 26.0184 10.0383 43.7526 9.78416C61.4887 9.53004 63.7396 25.9562 63.6302 45.9047Z" fill="#E8DEC0"/>
</g>
<path d="M36.4646 34.1009C36.4646 34.7171 35.9286 35.3081 34.9744 35.7439C34.0203 36.1796 32.7262 36.4244 31.3768 36.4244C30.0275 36.4244 28.7334 36.1796 27.7792 35.7439C26.8251 35.3081 26.2891 34.7171 26.2891 34.1009C26.2891 33.4846 26.8251 32.8936 27.7792 32.4579C28.7334 32.0221 30.0275 31.7773 31.3768 31.7773C32.7262 31.7773 34.0203 32.0221 34.9744 32.4579C35.9286 32.8936 36.4646 33.4846 36.4646 34.1009Z" fill="url(#paint0_radial_383_2757)"/>
<path d="M34.0096 48.2114C34.0096 52.2382 34.229 59.1713 32.8592 59.0972C30.7444 58.9829 27.7864 47.1666 28.4989 45.5247C29.069 44.2109 29.9769 44.4466 30.6341 44.3894C32.0007 44.2705 34.0096 44.1846 34.0096 48.2114Z" fill="#958085"/>
<path d="M27.2973 39.0915C27.3253 38.3845 29.8308 39.2243 31.0988 39.2344C32.4138 39.2448 34.7916 38.5399 35.0431 39.1486C35.416 40.0512 32.5037 40.6527 31.0988 40.6349C29.7313 40.6176 27.2588 40.0665 27.2973 39.0915Z" fill="#8C837C"/>
<path d="M34.8787 27.9203C36.0002 26.8772 36.8415 18.9713 35.1677 18.6356C33.0927 18.2196 30.1661 24.9651 30.26 26.2705C30.3437 27.4326 30.7266 28.0512 32.2128 28.489C33.0882 28.7469 33.8313 28.8946 34.8787 27.9203Z" fill="#958085"/>
<path d="M34.7536 65.9577C41.1729 65.9226 53.8465 65.9005 53.8465 65.9005C56.232 65.7884 54.093 70.1902 44.8717 70.2165C34.2265 70.2468 33.0548 66.166 34.7536 65.9577Z" fill="url(#paint1_radial_383_2757)"/>
<path d="M40.9862 73.5104C43.8575 72.9909 48.6386 73.3367 48.5406 73.4859C49.4844 73.4377 48.6381 75.3289 44.9896 75.3402C40.7777 75.3533 40.314 73.5999 40.9862 73.5104Z" fill="#958D83"/>
<path d="M51.3089 34.1009C51.3089 34.7171 51.8449 35.3081 52.799 35.7439C53.7532 36.1796 55.0473 36.4244 56.3966 36.4244C57.0647 36.4244 57.7263 36.3643 58.3436 36.2476C58.9609 36.1308 59.5218 35.9596 59.9942 35.7439C60.4666 35.5281 60.8414 35.272 61.0971 34.9901C61.3528 34.7082 61.4844 34.406 61.4844 34.1009C61.4844 33.7958 61.3528 33.4936 61.0971 33.2117C60.8414 32.9298 60.4666 32.6737 59.9942 32.4579C59.5218 32.2421 58.9609 32.071 58.3436 31.9542C57.7263 31.8374 57.0647 31.7773 56.3966 31.7773C55.0473 31.7773 53.7532 32.0221 52.799 32.4579C51.8449 32.8936 51.3089 33.4846 51.3089 34.1009Z" fill="url(#paint2_radial_383_2757)"/>
<path d="M53.7629 48.2114C53.7629 52.2382 53.5435 59.1713 54.9132 59.0972C57.0281 58.9829 59.9861 47.1666 59.2736 45.5247C58.7035 44.2109 57.7956 44.4466 57.1384 44.3894C55.7718 44.2705 53.7629 44.1846 53.7629 48.2114Z" fill="#958085"/>
<path d="M60.4738 39.0915C60.4458 38.3845 57.9403 39.2243 56.6723 39.2344C55.3573 39.2448 52.9795 38.5399 52.728 39.1486C52.3551 40.0512 55.2674 40.6527 56.6723 40.6349C58.0398 40.6176 60.5123 40.0665 60.4738 39.0915Z" fill="#8C837C"/>
<path d="M52.8898 27.9203C51.7682 26.8772 50.927 18.9713 52.6008 18.6356C54.6758 18.2196 57.6024 24.9651 57.5085 26.2705C57.4248 27.4326 57.0419 28.0512 55.5557 28.489C54.6803 28.7469 53.9372 28.8946 52.8898 27.9203Z" fill="#958085"/>
<g filter="url(#filter1_f_383_2757)">
<path d="M43.4828 7.51174C43.3481 7.51169 43.2124 7.51259 43.0759 7.51445C25.7564 7.75179 23.5241 22.487 23.4844 41.0495C25.1851 20.5368 29.2111 6.02988 51.9259 9.20038C49.6226 8.10622 46.84 7.51278 43.4828 7.51174Z" fill="white" fill-opacity="0.535714"/>
</g>
<g filter="url(#filter2_f_383_2757)">
<path d="M65.68 54.0312C64.9064 73.7369 49.3162 94.315 31.4219 78.4017C35.1362 82.8104 39.8604 85.0262 44.9419 85.2152C55.0063 85.5895 64.503 76.1494 65.68 54.0312Z" fill="black"/>
</g>
</g>
<defs>
<filter id="filter0_f_383_2757" x="19.3399" y="5.24616" width="48.828" height="80.6053" filterUnits="userSpaceOnUse" color-interpolation-filters="sRGB">
<feFlood flood-opacity="0" result="BackgroundImageFix"/>
<feBlend mode="normal" in="SourceGraphic" in2="BackgroundImageFix" result="shape"/>
<feGaussianBlur stdDeviation="2.26755" result="effect1_foregroundBlur_383_2757"/>
</filter>
<filter id="filter1_f_383_2757" x="22.2758" y="6.30312" width="30.8625" height="35.9563" filterUnits="userSpaceOnUse" color-interpolation-filters="sRGB">
<feFlood flood-opacity="0" result="BackgroundImageFix"/>
<feBlend mode="normal" in="SourceGraphic" in2="BackgroundImageFix" result="shape"/>
<feGaussianBlur stdDeviation="0.604299" result="effect1_foregroundBlur_383_2757"/>
</filter>
<filter id="filter2_f_383_2757" x="29.5237" y="52.1331" width="38.0541" height="34.9916" filterUnits="userSpaceOnUse" color-interpolation-filters="sRGB">
<feFlood flood-opacity="0" result="BackgroundImageFix"/>
<feBlend mode="normal" in="SourceGraphic" in2="BackgroundImageFix" result="shape"/>
<feGaussianBlur stdDeviation="0.949066" result="effect1_foregroundBlur_383_2757"/>
</filter>
<radialGradient id="paint0_radial_383_2757" cx="0" cy="0" r="1" gradientUnits="userSpaceOnUse" gradientTransform="translate(31.2856 36.1986) rotate(-0.752103) scale(6.45529 4.23977)">
<stop stop-color="#2F2F2F"/>
<stop offset="1"/>
</radialGradient>
<radialGradient id="paint1_radial_383_2757" cx="0" cy="0" r="1" gradientUnits="userSpaceOnUse" gradientTransform="translate(44.2488 70.076) rotate(0.706754) scale(10.3152 3.71912)">
<stop stop-color="#2F2F2F"/>
<stop offset="1"/>
</radialGradient>
<radialGradient id="paint2_radial_383_2757" cx="0" cy="0" r="1" gradientUnits="userSpaceOnUse" gradientTransform="translate(56.3966 36.1584) rotate(180) scale(5.08776 3.73812)">
<stop stop-color="#2F2F2F"/>
<stop offset="1"/>
</radialGradient>
<clipPath id="clip0_383_2757">
<rect width="90" height="90" fill="white"/>
</clipPath>
</defs>
</svg>
