<svg width="90" height="90" viewBox="0 0 90 90" fill="none" xmlns="http://www.w3.org/2000/svg">
<g clip-path="url(#clip0_391_4887)">
<mask id="mask0_391_4887" style="mask-type:luminance" maskUnits="userSpaceOnUse" x="0" y="0" width="90" height="90">
<path d="M45 90C69.8528 90 90 69.8528 90 45C90 20.1472 69.8528 0 45 0C20.1472 0 0 20.1472 0 45C0 69.8528 20.1472 90 45 90Z" fill="white"/>
</mask>
<g mask="url(#mask0_391_4887)">
<path d="M-27.4492 0H152.911V90.18H-27.4492V0Z" fill="#024FA2"/>
<path d="M-27.4492 15.0312H152.911V75.1509H-27.4492V15.0312Z" fill="white"/>
<path d="M-27.4492 17.5352H152.911V72.6449H-27.4492V17.5352Z" fill="#ED1C27"/>
<path d="M32.669 25.0508C21.6013 25.0508 12.6289 34.0232 12.6289 45.0909C12.6289 56.1587 21.6013 65.1309 32.669 65.1309C43.7368 65.1309 52.7091 56.1587 52.7091 45.0909C52.7091 34.0232 43.7368 25.0508 32.669 25.0508ZM44.0802 60.797L32.669 52.5063L21.2579 60.797L25.6164 47.3821L14.2053 39.092H28.3101L32.669 25.6773L37.0275 39.092H51.1322L39.7212 47.3823L44.0802 60.797Z" fill="white"/>
</g>
</g>
<defs>
<clipPath id="clip0_391_4887">
<rect width="90" height="90" fill="white"/>
</clipPath>
</defs>
</svg>
