<svg width="90" height="90" viewBox="0 0 90 90" fill="none" xmlns="http://www.w3.org/2000/svg">
  <circle cx="45" cy="45" r="45" transform="rotate(-90 45 45)" fill="#3B82F6" />
  <path
    d="M34.8505 14.4583H46.6571C57.5638 14.4583 67.5312 20.5646 72.3926 30.2243L75.5416 36.4815L68.4432 36.2964L67.6256 34.755C63.4001 26.7892 55.0577 21.7994 45.965 21.7994L57.0485 43.7917L45.965 65.784C55.0287 65.784 63.315 60.7188 67.3708 52.6992L68.163 51.1327H75.5416L72.3966 57.3733C67.5323 67.0252 57.5691 73.125 46.6682 73.125H34.8505L49.6388 43.7917L34.8505 14.4583Z"
    fill="white" />
  <path
    d="M20.6535 27.9213C15.6155 37.9145 15.6155 49.6689 20.6535 59.662L27.4408 73.125L42.2291 43.7917L27.4408 14.4583L20.6535 27.9213ZM34.9439 43.9767L27.4719 58.4738L25.0913 53.7666C21.9257 47.5071 21.9257 40.1379 25.0913 33.8785L27.4719 29.1713L34.9439 43.9767Z"
    fill="white" />
</svg>