<svg width="90" height="90" viewBox="0 0 90 90" fill="none" xmlns="http://www.w3.org/2000/svg">
<g clip-path="url(#clip0_2574_26194)">
<path d="M1 45C1 20.6995 20.6995 1 45 1C69.3005 1 89 20.6995 89 45C89 69.3005 69.3005 89 45 89C20.6995 89 1 69.3005 1 45Z" fill="#47965C" stroke="black" stroke-width="2"/>
<path d="M84.5674 45C84.5674 23.1475 66.8525 5.43258 45 5.43258C23.1475 5.43258 5.43262 23.1475 5.43262 45C5.43262 66.8525 23.1475 84.5674 45 84.5674C66.8525 84.5674 84.5674 66.8525 84.5674 45Z" fill="#6EC48C"/>
<path d="M14.4688 37.5586C14.3653 37.9825 14.3655 38.4251 14.4694 38.8489L61.4037 22.8339L61.8389 22.3988C63.0837 21.154 62.8334 19.0726 61.3306 18.1559C56.5718 15.2542 50.9817 13.5815 45 13.5815C30.2119 13.5815 17.8108 23.7986 14.4688 37.5586Z" fill="#075431"/>
<path d="M14.4694 38.8488C14.7548 40.0166 15.8006 40.9255 17.1075 40.9255H42.1872C42.9076 40.9255 43.5984 40.6394 44.1078 40.13L61.4038 22.8341C56.629 20.4117 51.0121 19.014 45 19.014C30.2107 19.014 17.8101 27.4664 14.4694 38.8488ZM59.4735 53.7115L67.6018 61.8397C68.8399 63.078 70.9193 62.8446 71.832 61.3502C73.5222 58.5848 74.7717 55.573 75.5356 52.4232C75.949 50.7168 74.6482 49.0746 72.8926 49.0746H61.3943C58.9743 49.0744 57.7625 52.0002 59.4735 53.7115ZM14.4688 52.4413C17.8108 66.2014 30.212 76.4185 45 76.4185C50.9817 76.4185 56.5718 74.7458 61.3306 71.8438C62.8336 70.9274 63.0837 68.846 61.8389 67.601L44.1078 49.8699C43.8556 49.6177 43.5562 49.4176 43.2266 49.2811C42.8971 49.1446 42.5439 49.0744 42.1872 49.0744H17.1075C15.344 49.0744 14.0527 50.7277 14.4688 52.4413Z" fill="black"/>
<path d="M75.533 38.8571C75.6372 38.4368 75.6381 37.9976 75.5354 37.577C74.7716 34.4271 73.5221 31.4154 71.8318 28.6499C71.0875 27.4312 69.5677 27.052 68.3605 27.6248L75.533 38.8571Z" fill="#075431"/>
<path d="M59.4735 36.2885C57.7625 37.9997 58.9743 40.9255 61.3943 40.9255H72.8926C74.1953 40.9255 75.2458 40.0206 75.5332 38.857C74.2882 34.6094 71.7827 30.7698 68.3609 27.6247C68.0791 27.7585 67.8224 27.9397 67.602 28.1604L59.4735 36.2885Z" fill="black"/>
</g>
<defs>
<clipPath id="clip0_2574_26194">
<rect width="90" height="90" fill="white" transform="matrix(0 -1 1 0 0 90)"/>
</clipPath>
</defs>
</svg>
