<svg width="90" height="90" viewBox="0 0 90 90" fill="none" xmlns="http://www.w3.org/2000/svg">
<g clip-path="url(#clip0_394_8502)">
<mask id="mask0_394_8502" style="mask-type:luminance" maskUnits="userSpaceOnUse" x="0" y="0" width="90" height="90">
<path d="M0 0L0 90H90V0H0Z" fill="white"/>
</mask>
<g mask="url(#mask0_394_8502)">
<path d="M90 45C90 20.1472 69.8528 0 45 0C20.1472 0 0 20.1472 0 45C0 69.8528 20.1472 90 45 90C69.8528 90 90 69.8528 90 45Z" fill="#50832B"/>
<path d="M39.0052 44.3145C39.0052 44.3145 28.9505 60.5215 42.3626 72.2461C42.345 72.2461 55.6517 62.0859 39.0052 44.3145Z" fill="white"/>
<path d="M47.8667 61.2949C47.8667 61.7168 47.8492 62.1386 47.814 62.5605C47.2867 69.0117 42.8395 72.4746 42.6461 72.6328L42.3296 72.8789L42.0309 72.6152C38.902 69.873 36.7749 66.6738 35.7027 63.0703C34.8414 60.205 34.6656 57.0761 35.1578 53.8066C36.0015 48.2519 38.48 44.2265 38.5679 44.0507L38.9019 43.5234L39.3239 43.9804C45.0016 50.0273 47.8667 55.8457 47.8667 61.2949ZM42.3649 71.6132C43.3493 70.7343 46.443 67.5527 46.8649 62.4726C47.3043 57.0761 44.7028 51.2402 39.1129 45.1406C38.4274 46.4238 36.7749 49.7988 36.1421 54C35.6675 57.1289 35.8433 60.0996 36.6695 62.8242C37.6187 66.1113 39.5348 69.0644 42.3649 71.6132Z" fill="black"/>
<path d="M32.1848 14.7129C32.1848 14.7129 24.134 22.0782 38.7765 43.3125L41.6769 31.6934V24.9961L40.1125 20.3028L37.7746 17.0684L32.1848 14.7129Z" fill="white" stroke="black" stroke-width="1.75781" stroke-miterlimit="10"/>
<path d="M40.4667 47.3398C43.2441 47.3398 45.4765 50.7148 45.4765 54.8809C45.4765 59.0469 43.2265 62.4219 40.4667 62.4219C37.707 62.4219 35.457 59.0469 35.457 54.8809C35.457 50.7148 37.6894 47.3398 40.4667 47.3398Z" fill="black"/>
<path d="M48.5319 61.3813C48.5319 63.3149 48.1803 65.1958 47.4772 66.9536C46.3346 69.854 44.1725 72.7016 41.0788 75.3911C40.9206 75.5317 40.692 75.7251 40.3756 75.8305C39.444 76.1294 38.1959 75.5493 36.4733 73.9848C35.0319 72.684 33.819 71.1899 33.6784 71.0141C31.9381 68.852 30.8483 66.3383 30.5495 63.7368C30.0749 59.6059 31.2877 54.9653 34.1354 49.9907C34.2584 49.7622 35.3483 48.1626 36.2799 46.809C38.442 43.6977 38.5299 43.6977 38.8815 43.645L39.2155 43.5922L39.4616 43.8208C42.362 46.686 44.5065 49.4458 46.0358 52.2407C47.6881 55.2817 48.5319 58.393 48.5319 61.3813ZM31.7975 61.9614C31.7975 62.5239 31.8327 63.0512 31.8854 63.5961C32.1491 65.934 33.1334 68.2192 34.7155 70.1704C34.8385 70.3286 35.9987 71.7524 37.3698 72.9829C38.8991 74.3891 39.7077 74.6176 39.9538 74.5473C40.0065 74.5297 40.1295 74.4243 40.1998 74.3715C43.1354 71.8227 45.1569 69.1684 46.2291 66.4614C47.8639 62.3305 47.3893 57.5141 44.8756 52.9086C43.5045 50.395 41.5885 47.8989 39.0397 45.2973C38.0377 46.6333 35.5416 50.2895 35.3307 50.6586C32.9752 54.7368 31.7975 58.5336 31.7975 61.9614Z" fill="black"/>
<path d="M40.6033 33.0986C40.0932 29.808 38.2564 27.3611 36.5008 27.6332C34.7451 27.9054 33.7355 30.7936 34.2456 34.0842C34.7558 37.3748 36.5925 39.8217 38.3481 39.5496C40.1038 39.2774 41.1134 36.3892 40.6033 33.0986Z" fill="black" stroke="black" stroke-width="2.46094" stroke-miterlimit="10"/>
<path d="M42.4333 28.67C42.4333 30.0938 42.3278 31.6055 42.1345 33.2051C41.6423 37.1778 40.5876 41.1153 39.656 44.4903L38.3552 44.1211C38.2849 44.3672 38.3903 44.543 38.3903 44.543C38.1091 44.086 35.5603 41.8184 34.3298 40.711C33.4157 39.9024 32.9763 39.4981 32.8356 39.3399C28.5817 34.6993 26.0329 30.586 24.82 26.42C24.2048 24.3457 24.0114 22.3418 24.2048 20.4961C24.2751 19.793 24.4685 18.4395 24.9079 17.209C25.4704 15.6621 26.2614 14.7481 27.281 14.502C30.4099 13.7637 33.363 13.9571 35.8415 15.0821C38.531 16.295 40.4646 18.545 41.4313 21.586C42.0993 23.7305 42.4333 26.0684 42.4333 28.67ZM38.6892 42.9082C40.6228 35.8067 42.1696 28.4239 40.1306 22.0079C39.2868 19.3536 37.6169 17.3848 35.279 16.3301C33.0817 15.3282 30.4099 15.1524 27.5798 15.8379C26.8591 16.0137 25.8923 17.3848 25.5231 20.6719C25.3474 22.3594 25.5231 24.17 26.0856 26.086C27.2458 30.0586 29.7067 33.9961 33.8024 38.4786C33.9079 38.6016 34.5583 39.1817 35.2087 39.7442C36.07 40.5176 37.1423 41.4668 38.0036 42.2754C38.2673 42.5039 38.4958 42.7149 38.6892 42.9082Z" fill="black"/>
<path d="M47.9526 27.9303C47.9878 28.0182 48.0229 28.1061 48.0405 28.1764C48.3042 28.9674 48.2866 29.8287 48.2866 30.6725C48.2339 34.0299 48.1811 37.3873 48.146 40.7447C48.1284 42.2213 48.1108 43.7155 48.4272 45.1569C49.0425 47.8463 50.7827 50.1139 52.2593 52.4518C54.4565 55.9674 54.5268 58.8151 54.228 62.8053C54.1753 63.5436 54.1225 64.2994 53.8589 65.0026C53.6128 65.6354 53.2085 66.1803 52.9272 66.7955C52.2065 68.3248 52.2593 70.1881 53.0679 71.6647C53.8764 73.1412 55.4233 74.1959 57.1108 74.3893C60.0639 74.7584 62.8413 72.5436 64.0718 69.8365C65.4604 66.778 65.2495 63.3854 65.1264 60.1334C65.0913 59.4303 65.0737 58.7096 64.8452 58.0416C64.687 57.567 64.4409 57.1276 64.1948 56.6881C62.5249 53.735 60.978 50.6764 59.2729 47.7408C57.7436 45.1041 55.7925 42.608 55.1596 39.567C54.7378 37.5104 54.9663 35.3834 54.896 33.274C54.8432 31.4459 54.562 29.5651 55.1772 27.8424C55.4057 27.192 55.7573 26.5768 55.7749 25.8912C55.7749 25.4166 55.6167 24.9596 55.4233 24.5201C54.7378 22.8502 53.8589 21.2506 52.8042 19.774C51.855 18.4381 50.7124 17.1725 49.2358 16.4869C47.7417 15.8014 45.8432 15.819 44.6128 16.8737C43.4702 17.858 43.1011 19.5455 43.3999 21.0221C43.7163 22.4987 44.5952 23.7994 45.6323 24.9244C46.4761 25.8385 47.478 26.7526 47.9526 27.9303Z" fill="#85492D"/>
<path d="M65.8842 63.3695C65.8842 65.6547 65.6733 67.9398 64.6889 70.102C64.0209 71.5785 62.9311 72.8969 61.6303 73.7934C60.1889 74.7953 58.5893 75.2348 57.0424 75.0414C55.1616 74.8129 53.4213 73.6352 52.5073 71.9652C51.5932 70.2953 51.5229 68.2035 52.3315 66.4809C52.4545 66.1996 52.6127 65.9535 52.7534 65.6898C52.9467 65.3559 53.1225 65.057 53.2455 64.7406C53.4741 64.1254 53.5268 63.4223 53.5795 62.7367C53.8432 59.0805 53.8608 56.2328 51.6987 52.7875C51.4174 52.348 51.1362 51.9086 50.8549 51.4691C49.6069 49.5531 48.3061 47.5844 47.7963 45.2816C47.4448 43.7523 47.4799 42.2055 47.4975 40.7113L47.6381 30.6391C47.6557 29.8656 47.6557 29.057 47.4272 28.3539C47.4096 28.2836 47.3745 28.2133 47.3569 28.143C47.0229 27.2992 46.3549 26.5961 45.6342 25.8578C45.4584 25.682 45.3002 25.5062 45.1245 25.3129C43.8061 23.8715 43.0327 22.5004 42.7338 21.0941C42.3471 19.2484 42.9096 17.3676 44.1577 16.2953C45.5112 15.1527 47.6557 14.9418 49.5014 15.8031C51.2944 16.6293 52.5424 18.1937 53.3334 19.3012C54.4233 20.8129 55.3198 22.4652 56.0229 24.1879C56.2163 24.6625 56.4272 25.2074 56.4272 25.8051V25.8227C56.4272 26.4555 56.1987 27.018 55.9877 27.5277C55.9174 27.6859 55.8647 27.8441 55.7944 28.0023C55.3373 29.268 55.4252 30.6391 55.4956 32.098C55.5131 32.4496 55.5307 32.8187 55.5483 33.1879C55.5659 33.8559 55.5659 34.5238 55.5483 35.1918C55.5307 36.6508 55.5131 38.0219 55.7944 39.3754C56.2514 41.5902 57.4995 43.559 58.6948 45.475C59.0815 46.0902 59.4682 46.7055 59.8373 47.3383C60.7866 48.973 61.7006 50.6605 62.5795 52.3129C63.2827 53.6312 64.0209 54.9848 64.7592 56.2855C65.0229 56.7426 65.2866 57.2172 65.4623 57.7621C65.7084 58.5355 65.7436 59.3266 65.7612 60.0473L65.7788 60.557C65.8491 61.5238 65.8842 62.4379 65.8842 63.3695ZM53.1049 69.0473C53.1049 69.8383 53.2983 70.6117 53.6674 71.3148C54.3705 72.6156 55.7241 73.5297 57.2006 73.7055C59.9252 74.0395 62.4038 71.8598 63.4584 69.5395C64.7065 66.7973 64.5834 63.6684 64.4604 60.6449L64.4428 60.1352C64.4252 59.4848 64.3901 58.8168 64.1967 58.2191C64.0561 57.7973 63.8276 57.4105 63.5991 56.9887C62.8432 55.6703 62.1225 54.2992 61.4018 52.9809C60.5229 51.3461 59.6088 49.6586 58.6772 48.0414C58.3256 47.4262 57.9389 46.8109 57.5698 46.2133C56.3041 44.1918 55.0034 42.1176 54.4936 39.6742C54.1772 38.1801 54.1948 36.6684 54.2123 35.2094C54.2123 34.5766 54.2299 33.9086 54.2123 33.2758C54.1948 32.9242 54.1772 32.5727 54.1596 32.2211C54.0717 30.6918 53.9838 29.1098 54.5288 27.598C54.5991 27.4223 54.6694 27.2289 54.7397 27.0707C54.9155 26.6488 55.0737 26.2445 55.0737 25.8754C55.0737 25.5238 54.9331 25.1371 54.7748 24.768C54.1069 23.1332 53.2456 21.5863 52.226 20.1625C51.5229 19.1781 50.4155 17.7895 48.9213 17.1039C47.3217 16.3656 45.81 16.7172 45.0014 17.4027C44.1225 18.1586 43.7358 19.5297 44.017 20.9008C44.2631 22.0609 44.9311 23.2211 46.0737 24.4867C46.2319 24.6625 46.4077 24.8383 46.5659 25.0141C47.3217 25.8227 48.1127 26.6488 48.5522 27.7211C48.5873 27.8266 48.6225 27.9145 48.6577 28.0199C48.9565 28.934 48.9389 29.9008 48.9389 30.7445L48.7983 40.8168C48.7807 42.2406 48.7631 43.6996 49.062 45.0707C49.5366 47.1273 50.7495 49.0082 51.9448 50.8187C52.226 51.2582 52.5248 51.7152 52.8061 52.1547C55.1791 55.934 55.1616 59.1332 54.8803 62.9125C54.8276 63.6508 54.7573 64.4945 54.4584 65.3031C54.3002 65.725 54.0893 66.0941 53.8784 66.4457C53.7377 66.6918 53.6147 66.9027 53.5092 67.1312C53.2455 67.6762 53.1049 68.3617 53.1049 69.0473Z" fill="black"/>
<path d="M55.7392 70.1701C57.5146 70.0119 58.9912 68.8342 59.7295 67.2346C60.5205 65.5119 60.5556 63.5432 60.292 61.6799C59.8174 58.1994 58.165 55.0354 56.6006 51.9592C55.0185 48.8479 53.3486 45.6135 53.0322 42.0803C52.8388 39.883 53.0146 37.6682 52.9092 35.4533C52.8037 33.2385 52.5576 31.0237 52.1533 28.8264C51.4502 24.924 50.0967 19.4045 45.2451 19.0705C44.5068 19.0178 44.5068 20.178 45.2451 20.2307C46.9502 20.3537 48.3388 21.5666 49.1826 22.9729C50.167 24.6428 50.5713 26.6115 50.9404 28.4924C51.3447 30.549 51.6084 32.6233 51.7314 34.6975C51.8545 36.7893 51.749 38.8811 51.8193 40.9729C51.9424 44.383 53.1377 47.5119 54.6142 50.553C56.0381 53.4709 57.708 56.3362 58.6396 59.4651C59.167 61.2405 59.4834 63.1916 59.1846 65.0549C58.8857 66.8479 57.7431 68.8166 55.7392 68.9924C55.001 69.0627 54.9834 70.2229 55.7392 70.1701Z" fill="black"/>
<path d="M39.8833 49.9754C39.8833 50.0282 39.8833 50.0633 39.8833 50.1161C39.8657 50.2918 39.9008 50.4676 39.9887 50.6258C40.1821 51.0125 40.6215 51.2059 41.0434 51.1004C41.4301 50.995 41.6762 50.6434 41.6938 50.2743C41.7641 49.9754 41.6587 49.6414 41.4126 49.4305C41.1665 49.202 40.8325 49.1493 40.5337 49.2547C40.1821 49.3075 39.9008 49.6063 39.8833 49.9754Z" fill="white"/>
<path d="M39.2683 50.6955C39.3035 49.9573 38.1433 49.9573 38.1082 50.6955C38.073 51.3635 38.0379 52.0315 38.0203 52.6994C38.0027 53.0334 38.3015 53.2619 38.6004 53.2795L41.1316 53.4553C41.8699 53.508 41.8699 52.3479 41.1316 52.2951C40.4812 52.26 39.8484 52.2073 39.198 52.1721C39.2156 51.6799 39.2332 51.1877 39.2683 50.6955Z" fill="white"/>
<path d="M37.0215 30.745C36.8809 30.7274 36.7227 30.7098 36.5821 30.6746C36.1602 30.6043 35.8262 30.8856 35.8614 31.3075C35.668 31.6414 35.7734 32.1161 35.9492 32.4149C36.4238 33.2235 37.5136 33.2762 38.1289 32.5907C38.2695 32.4325 38.375 32.2567 38.4277 32.0633C38.4277 32.0457 38.4628 31.9754 38.4628 31.9051C38.8144 32.0282 39.2891 31.9227 39.5704 31.7118C39.7989 31.5536 39.9218 31.3075 39.9394 31.0438C39.9921 30.8153 39.9394 30.534 39.7109 30.3758C38.9902 29.8485 38.0938 29.8309 37.3204 30.2176C37.127 30.3055 37.0215 30.534 37.0215 30.745Z" fill="white"/>
<path d="M32.609 30.4988C33.0133 30.6042 33.4001 30.6921 33.8044 30.7976C34.5251 30.9734 34.8415 29.8659 34.1032 29.6902C33.6989 29.5847 33.3122 29.4968 32.9079 29.3913C32.1872 29.198 31.8883 30.323 32.609 30.4988Z" fill="white"/>
</g>
</g>
<defs>
<clipPath id="clip0_394_8502">
<rect width="90" height="90" fill="white" transform="matrix(0 -1 1 0 0 90)"/>
</clipPath>
</defs>
</svg>
