<svg width="90" height="90" viewBox="0 0 90 90" fill="none" xmlns="http://www.w3.org/2000/svg">
<g clip-path="url(#clip0_394_8566)">
<path d="M90 45C90 20.1472 69.8528 0 45 0C20.1472 0 0 20.1472 0 45C0 69.8528 20.1472 90 45 90C69.8528 90 90 69.8528 90 45Z" fill="#9C002A"/>
<path d="M75.7617 77.7447C73.7604 79.6547 71.394 81.5088 68.9761 83.0614C68.2997 83.4958 68.2545 83.5183 68.2075 83.4434C68.1811 83.3997 67.8405 82.9356 67.4527 82.4122C63.0887 71.3096 57.8619 63.1519 51.11 55.0356C50.2534 54.006 47.478 51.6892 47.3905 51.4945L47.3398 51.3817L47.5662 51.2843C47.9166 51.1336 48.3992 50.8696 48.7871 50.6167C49.3048 50.2792 50.2122 49.416 50.6057 48.8868C50.969 48.398 51.3765 47.6699 51.5558 47.1888C51.6295 46.9908 51.7017 46.8289 51.7164 46.8289C51.7315 46.8289 52.287 47.0845 52.9521 47.397C63.1073 52.1682 73.2828 58.175 83.5863 65.4809C84.2862 65.9772 84.6233 66.2363 84.615 66.2715C84.5923 66.3732 83.5825 68.0935 83.1124 68.8347C81.0043 72.1582 78.7418 74.9005 75.7617 77.7447Z" fill="#6D872E"/>
<path d="M89.9778 46.4772C89.9132 49.2429 89.5511 52.2272 88.9392 55.0348C88.768 55.8202 88.7518 55.8681 88.666 55.8483C88.6157 55.837 88.0473 55.7489 87.403 55.6529C76.4665 50.888 67.0022 48.8155 56.4888 47.8508C55.1551 47.7284 51.5543 48.0528 51.3548 47.9769L51.2391 47.933L51.3302 47.704C51.4712 47.3499 51.6261 46.8218 51.7215 46.3687C51.8488 45.7639 51.8802 44.512 51.7842 43.8595C51.6958 43.2569 51.4686 42.454 51.2553 41.987C51.1676 41.7949 51.1042 41.6293 51.1144 41.6191C51.1257 41.6089 51.6986 41.3965 52.3899 41.1471C62.9444 37.34 74.387 34.3923 86.8388 32.2727C87.6846 32.1287 88.1062 32.0736 88.1252 32.1043C88.18 32.1932 88.6834 34.1227 88.8751 34.9793C89.7345 38.82 90.074 42.3588 89.9778 46.4772Z" fill="#F5F5F5"/>
<path d="M77.8497 14.2461C79.7597 16.2474 81.6138 18.6138 83.1664 21.0317C83.6008 21.7081 83.6232 21.7533 83.5484 21.8002C83.5045 21.8275 83.0406 22.1674 82.5171 22.5551C71.4146 26.9191 63.2569 32.1458 55.1406 38.8978C54.111 39.7543 51.7942 42.5299 51.5995 42.6173L51.4865 42.668L51.3889 42.4416C51.2381 42.0914 50.9743 41.6085 50.7214 41.2207C50.3839 40.703 49.5207 39.7956 48.9914 39.4021C48.5027 39.0387 47.7746 38.6313 47.2934 38.452C47.0954 38.3782 46.9336 38.3061 46.9336 38.2916C46.9336 38.2772 47.1895 37.721 47.5018 37.0559C52.273 26.9007 58.2797 16.7252 65.5857 6.42169C66.082 5.72175 66.3411 5.38465 66.3763 5.39296C66.478 5.4172 68.1982 6.42546 68.9394 6.8956C72.2629 9.00365 75.0055 11.266 77.8497 14.2461Z" fill="#F5F5F5"/>
<path d="M46.4864 0.0300163C49.2521 0.0945404 52.2364 0.456751 55.044 1.06863C55.8294 1.23978 55.8773 1.25587 55.8576 1.34198C55.8462 1.39227 55.7581 1.96063 55.6621 2.60495C50.8972 13.5414 48.8247 23.0057 47.86 33.5191C47.7376 34.8528 48.0619 38.4536 47.9863 38.6532L47.9424 38.7688L47.7134 38.6775C47.3592 38.5364 46.8311 38.3817 46.378 38.2862C45.7733 38.1589 44.5213 38.1276 43.8688 38.2235C43.2663 38.3122 42.4633 38.539 41.9964 38.7524C41.8044 38.8402 41.6388 38.9037 41.6286 38.8934C41.6173 38.8832 41.406 38.3092 41.1566 37.6179C37.3495 27.0634 34.4018 15.6208 32.2822 3.16905C32.1382 2.32317 32.083 1.90161 32.1136 1.88259C32.2025 1.82769 34.1321 1.32435 34.9886 1.13268C38.8293 0.273238 42.3679 -0.0660957 46.4864 0.0300163Z" fill="#F5F5F5"/>
<path d="M14.2559 12.1545C16.2572 10.2445 18.6235 8.39034 21.0414 6.83774C21.7178 6.4034 21.7631 6.38094 21.81 6.45579C21.8364 6.49948 22.177 6.96358 22.5648 7.48703C26.9288 18.5896 32.1556 26.7473 38.9075 34.8636C39.7641 35.8932 42.5396 38.21 42.627 38.4047L42.6777 38.5175L42.4513 38.6149C42.1013 38.7655 41.6182 39.0296 41.2304 39.2825C40.7127 39.62 39.8053 40.4832 39.4118 41.0124C39.0485 41.5012 38.641 42.2293 38.4617 42.7104C38.388 42.9084 38.3158 43.0703 38.3011 43.0703C38.2859 43.0703 37.7305 42.8146 37.0654 42.5021C26.9102 37.731 16.7347 31.7242 6.43122 24.4183C5.73129 23.9219 5.39418 23.6629 5.40249 23.6277C5.42668 23.526 6.43498 21.8057 6.90512 21.0645C9.01317 17.741 11.2757 14.9987 14.2559 12.1545Z" fill="#F5F5F5"/>
<path d="M0.0391045 43.5212C0.103659 40.7555 0.465848 37.7712 1.07772 34.9636C1.2489 34.1782 1.26496 34.1303 1.3511 34.1501C1.4014 34.1614 1.96975 34.2496 2.61407 34.3455C13.5505 39.1104 23.0148 41.1829 33.5283 42.1476C34.862 42.27 38.4627 41.9456 38.6623 42.0215L38.778 42.0654L38.6869 42.2944C38.5459 42.6485 38.3909 43.1766 38.2956 43.6297C38.1682 44.2345 38.1368 45.4865 38.2328 46.1389C38.3213 46.7415 38.5484 47.5444 38.7617 48.0114C38.8494 48.2035 38.9129 48.3691 38.9027 48.3793C38.8914 48.3895 38.3185 48.602 37.6272 48.8513C27.0727 52.6584 15.6301 55.6061 3.17833 57.7257C2.33245 57.8697 1.91088 57.9249 1.89187 57.8941C1.83691 57.8052 1.33362 55.8757 1.14195 55.0191C0.282516 51.1785 -0.0570088 47.6397 0.0391045 43.5212Z" fill="#F5F5F5"/>
<path d="M12.1654 75.7522C10.2554 73.7509 8.40131 71.3846 6.8487 68.9666C6.41438 68.2902 6.3919 68.245 6.46675 68.1981C6.51047 68.1708 6.97454 67.831 7.49799 67.4432C18.6005 63.0793 26.7583 57.8525 34.8745 51.1005C35.9042 50.244 38.2209 47.4685 38.4157 47.381L38.5283 47.3304L38.6258 47.5567C38.7766 47.9069 39.0405 48.3898 39.2934 48.7776C39.6309 49.2953 40.4941 50.2027 41.0233 50.5962C41.5121 50.9596 42.2402 51.367 42.7213 51.5463C42.9194 51.6201 43.0811 51.6922 43.0811 51.7067C43.0811 51.7211 42.8253 52.2773 42.513 52.9424C37.7418 63.0976 31.7351 73.2731 24.4291 83.5766C23.9328 84.2765 23.6737 84.6136 23.6385 84.6053C23.5368 84.5815 21.8165 83.5728 21.0753 83.1027C17.7518 80.9946 15.0096 78.7323 12.1654 75.7522Z" fill="#F5F5F5"/>
<path d="M43.5306 89.9685C40.7649 89.904 37.7806 89.5418 34.973 88.9299C34.1876 88.7588 34.1397 88.7427 34.1595 88.6566C34.1708 88.6062 34.2589 88.0379 34.3549 87.3936C39.1198 76.4571 41.1923 66.9928 42.157 56.4794C42.2795 55.1457 41.9552 51.5449 42.0308 51.3454L42.0746 51.2298L42.3037 51.321C42.6578 51.4621 43.1859 51.6169 43.639 51.7123C44.2437 51.8397 45.4957 51.871 46.1482 51.775C46.7507 51.6864 47.5537 51.4596 48.0206 51.2461C48.2126 51.1583 48.3782 51.0948 48.3884 51.1051C48.3997 51.1153 48.611 51.6893 48.8604 52.3806C52.6675 62.9351 55.6152 74.3777 57.7348 86.8295C57.8788 87.6754 57.934 88.0969 57.9033 88.116C57.8145 88.1709 55.8849 88.6742 55.0284 88.8659C51.1877 89.7253 47.6491 90.0646 43.5306 89.9685Z" fill="#F5F5F5"/>
<path d="M75.7617 77.8424C73.7604 79.7524 71.394 81.6065 68.9761 83.1591C68.2997 83.5934 68.2545 83.6159 68.2075 83.5411C68.1811 83.4973 67.8405 83.0333 67.4527 82.5098C63.0887 71.4073 57.8619 63.2495 51.11 55.1333C50.2534 54.1037 47.478 51.7869 47.3905 51.5921L47.3398 51.4793L47.5662 51.3819C47.9166 51.2313 48.3992 50.9673 48.7871 50.7144C49.3048 50.3768 50.2122 49.5137 50.6057 48.9844C50.969 48.4957 51.3765 47.7676 51.5558 47.2864C51.6295 47.0885 51.7017 46.9265 51.7164 46.9265C51.7315 46.9265 52.287 47.1822 52.9521 47.4947C63.1073 52.2659 73.2828 58.2726 83.5863 65.5786C84.2862 66.0749 84.6233 66.334 84.615 66.3692C84.5923 66.4709 83.5825 68.1912 83.1124 68.9324C81.0043 72.2558 78.7418 74.9982 75.7617 77.8424Z" fill="#F5F5F5"/>
<path d="M52.165 44.6924C52.165 40.3373 48.8874 36.8068 44.8442 36.8068C40.8011 36.8068 37.5234 40.3373 37.5234 44.6924C37.5234 49.0476 40.8011 52.5781 44.8442 52.5781C48.8874 52.5781 52.165 49.0476 52.165 44.6924Z" fill="#F5F5F5"/>
</g>
<defs>
<clipPath id="clip0_394_8566">
<rect width="90" height="90" fill="white" transform="matrix(0 -1 1 0 0 90)"/>
</clipPath>
</defs>
</svg>
