<svg width="90" height="90" viewBox="0 0 90 90" fill="none" xmlns="http://www.w3.org/2000/svg">
<path d="M0.839844 45C0.839038 20.6099 20.6126 0.835687 45 0.84375L46.1396 0.858398C70.0001 1.45517 89.1602 20.9908 89.1602 45C89.1601 69.3943 69.3869 89.1682 45 89.1602L43.8604 89.1455C19.9995 88.5487 0.839852 69.0132 0.839844 45Z" fill="#FFAAAA" stroke="black" stroke-width="1.68002" stroke-linecap="round" stroke-linejoin="round"/>
<path d="M29.5648 2.72365C30.2552 2.69079 30.9583 2.67026 31.6565 2.67026C56.4872 2.67026 76.6401 22.8286 76.6401 47.6703C76.6401 67.0851 64.3192 83.653 47.0823 89.9548C70.9519 88.8662 89.9877 69.1391 89.9877 45C89.9877 20.1584 69.8348 0 45.0041 0C39.5829 0 34.3794 0.961281 29.5648 2.72365Z" fill="black" fill-opacity="0.31373"/>
<path d="M0.919922 74.8049C0.965489 76.6992 1.49086 78.069 2.49121 78.8557C3.50877 79.656 5.09741 79.9211 7.15918 79.6497C9.19952 79.381 11.5614 78.6032 13.9668 77.51C18.786 75.3197 23.599 71.9451 26.1143 69.1975C26.7399 68.5142 26.9126 67.9293 26.8682 67.3977C26.8204 66.8271 26.5111 66.1731 25.8857 65.4016C24.6173 63.8371 22.3764 62.1627 19.7969 60.134C17.2433 58.1258 15.0084 56.4141 13.0977 55.5442C12.1506 55.113 11.3544 54.9237 10.6885 54.9661C10.054 55.0065 9.47902 55.2598 8.94336 55.845C6.42974 58.591 3.62611 63.533 2.08301 68.2805C1.31239 70.6514 0.87466 72.9203 0.919922 74.8049Z" fill="#FFAAAA" stroke="black" stroke-width="1.58854" stroke-linecap="round" stroke-linejoin="round"/>
<path d="M8.44429 62.8251C6.78024 65.0854 5.55778 70.9539 4.98108 74.3962" stroke="black" stroke-width="1.47002" stroke-linecap="round" stroke-linejoin="round"/>
<path d="M0.919922 14.288C0.965489 12.3937 1.49086 11.0239 2.49121 10.2372C3.50877 9.43686 5.09741 9.17181 7.15918 9.44324C9.19952 9.71187 11.5614 10.4897 13.9668 11.5829C18.786 13.7732 23.599 17.1478 26.1143 19.8954C26.7399 20.5786 26.9126 21.1636 26.8682 21.6952C26.8204 22.2658 26.5111 22.9198 25.8857 23.6913C24.6173 25.2558 22.3764 26.9302 19.7969 28.9589C17.2433 30.9671 15.0084 32.6787 13.0977 33.5487C12.1506 33.9799 11.3544 34.1692 10.6885 34.1268C10.054 34.0864 9.47902 33.8331 8.94336 33.2479C6.42974 30.5019 3.62611 25.5599 2.08301 20.8124C1.31239 18.4415 0.87466 16.1726 0.919922 14.288Z" fill="#FFAAAA" stroke="black" stroke-width="1.58854" stroke-linecap="round" stroke-linejoin="round"/>
<path d="M9.41609 25.9373C7.75205 23.6769 6.52958 17.8084 5.95288 14.3661" stroke="black" stroke-width="1.47002" stroke-linecap="round" stroke-linejoin="round"/>
<path d="M35.5823 9.99053C54.6326 9.98223 70.0809 25.4685 70.0809 44.5672C70.0809 63.6699 54.6326 79.1521 35.5823 79.1479C16.5315 79.1521 1.08496 63.6699 1.08496 44.5672C1.08492 25.4685 16.5315 9.98223 35.5823 9.99053Z" fill="#FFAAAA" stroke="black" stroke-width="1.5" stroke-linecap="round" stroke-linejoin="round"/>
<path d="M51.8659 29.8605C58.3423 29.8564 63.5919 36.4424 63.5919 44.5671C63.5919 52.696 58.3423 59.282 51.8659 59.2778C45.3911 59.282 40.1407 52.696 40.1407 44.5671C40.1407 36.4424 45.3911 29.8564 51.8659 29.8605Z" fill="#FFAAAA" stroke="black" stroke-width="1.13401" stroke-linecap="round" stroke-linejoin="round"/>
<path d="M26.5669 24.0287C31.475 24.0287 35.4548 27.9806 35.4548 32.8587C35.4548 37.7367 31.475 41.6943 26.5669 41.6886C21.6582 41.6943 17.6785 37.7367 17.6785 32.8587C17.6785 27.9806 21.6582 24.0287 26.5669 24.0287Z" fill="white" stroke="black" stroke-width="1.57847" stroke-linecap="round" stroke-linejoin="round"/>
<path d="M28.1348 31.8808C29.7711 31.8808 31.0977 33.1981 31.0977 34.8203C31.0977 36.4482 29.7711 37.7655 28.1348 37.7655C26.4992 37.7655 25.1726 36.4482 25.1726 34.8203C25.1726 33.1981 26.4992 31.8808 28.1348 31.8808Z" fill="black"/>
<path d="M26.5669 48.1638C31.475 48.1638 35.4548 52.1157 35.4548 56.9954C35.4548 61.8741 31.475 65.8277 26.5669 65.8265C21.6582 65.8277 17.6785 61.8741 17.6785 56.9954C17.6785 52.1157 21.6582 48.1638 26.5669 48.1638Z" fill="white" stroke="black" stroke-width="1.57847" stroke-linecap="round" stroke-linejoin="round"/>
<path d="M28.1348 51.8454C29.7711 51.8454 31.0977 53.1621 31.0977 54.7877C31.0977 56.4139 29.7711 57.7318 28.1348 57.7318C26.4992 57.7318 25.1726 56.4139 25.1726 54.7877C25.1726 53.1621 26.4992 51.8454 28.1348 51.8454Z" fill="black"/>
<path d="M24.6395 11.8983L25.8171 12.7195C27.18 12.6117 28.5663 12.5702 29.9726 12.5702C49.9964 12.5702 66.6131 33.7177 64.4348 48.333C62.6196 60.5055 57.8833 71.9606 43.3264 78.501C61.1632 75.1748 72.2257 56.5863 72.1214 46.2303C71.8919 23.2663 56.548 10.4675 36.5241 10.4675C32.3611 10.4675 28.3639 10.9361 24.6395 11.8983Z" fill="black" fill-opacity="0.31373"/>
<path d="M51.2233 35.1981C52.8591 35.194 54.1861 36.5128 54.1861 38.1386C54.1861 39.7644 52.8591 41.0833 51.2233 41.0833C49.5875 41.0833 48.2605 39.7644 48.2605 38.1386C48.2605 36.5128 49.5875 35.194 51.2233 35.1981Z" fill="black"/>
<path d="M51.2233 48.5237C52.8591 48.5237 54.1861 49.8426 54.1861 51.4683C54.1861 53.0941 52.8591 54.413 51.2233 54.413C49.5875 54.413 48.2605 53.0941 48.2605 51.4683C48.2605 49.8426 49.5875 48.5237 51.2233 48.5237Z" fill="black"/>
</svg>
