<svg width="90" height="90" viewBox="0 0 90 90" fill="none" xmlns="http://www.w3.org/2000/svg">
<g clip-path="url(#clip0_394_8524)">
<mask id="mask0_394_8524" style="mask-type:luminance" maskUnits="userSpaceOnUse" x="0" y="0" width="90" height="90">
<path d="M0 0L0 90H90V0H0Z" fill="white"/>
</mask>
<g mask="url(#mask0_394_8524)">
<path d="M0.651293 80.3754C0.644553 82.0277 1.4927 83.7865 2.95869 84.3394C4.54489 84.9901 6.26027 84.6172 7.86781 84.2871C11.8805 83.4308 16.0763 83.4549 20.0328 84.6391C22.5412 85.3406 25.034 86.1288 27.593 86.5778C31.5574 87.3702 35.5105 88.2456 39.4985 88.8853C45.3602 89.7214 51.3219 89.1747 57.1005 87.9096C60.1729 87.204 63.2172 86.2432 66.0706 84.779C70.2664 82.5029 73.8713 79.1236 77.2099 75.5503C81.2394 71.1673 84.6567 65.9982 86.7327 60.1525C89.8366 51.5693 90.2005 41.8057 87.7179 32.975C85.7183 25.7251 81.8719 19.1456 76.8347 14.0263C73.3208 10.4467 69.2868 7.5388 65.0629 5.0985C62.0152 3.3735 58.7519 2.0725 55.3604 1.5016C50.5816 0.607302 45.7039 0.572502 40.8802 0.945602C36.5822 1.3312 32.3179 2.06 28.0603 2.7976C25.3373 3.3635 22.7715 4.5998 20.0541 5.1844C18.2084 5.504 16.329 5.2005 14.535 4.6894C12.1141 4.1209 9.76293 3.0824 7.2668 2.9829C5.61658 2.8361 3.87873 3.7242 3.06653 5.3548C2.25209 6.9443 2.36668 8.8647 2.66774 10.596C3.24627 14.1855 4.08206 17.7402 4.27303 21.3919C4.36065 23.1953 3.96972 24.9652 3.51251 26.6816C2.88567 28.9875 2.18581 31.2798 1.84431 33.6666C1.3871 36.72 1.22196 39.817 1.14445 42.9077C1.09278 47.4711 1.74208 51.9934 2.35207 56.4933C2.59697 58.3217 2.8868 60.1438 3.07777 61.9796C3.27548 65.048 2.73402 68.0939 2.21839 71.0926C1.76904 73.5329 1.16355 75.9383 0.770371 78.391C0.686118 79.0478 0.635566 79.7112 0.651293 80.3754Z" fill="url(#paint0_linear_394_8524)" stroke="url(#paint1_linear_394_8524)" stroke-width="1.29738"/>
<path d="M53.678 40.6539C54.6255 40.6539 55.5342 41.3658 56.2042 42.633C56.8742 43.9002 57.2506 45.6189 57.2506 47.4109C57.2506 49.203 56.8742 50.9217 56.2042 52.1889C55.5342 53.4561 54.6255 54.168 53.678 54.168C52.7305 54.168 51.8218 53.4561 51.1519 52.1889C50.4819 50.9217 50.1055 49.203 50.1055 47.4109C50.1055 45.6189 50.4819 43.9002 51.1519 42.633C51.8218 41.3658 52.7305 40.6539 53.678 40.6539Z" fill="url(#paint2_radial_394_8524)"/>
<path d="M64.4643 32.9166C66.558 32.9166 68.5658 34.4146 70.0462 37.0808C71.5267 39.7471 72.3583 43.3634 72.3583 47.1341C72.3583 50.9048 71.5267 54.5211 70.0462 57.1874C68.5658 59.8537 66.558 61.3516 64.4643 61.3516C62.3707 61.3516 60.3628 59.8537 58.8824 57.1874C57.402 54.5211 56.5703 50.9048 56.5703 47.1341C56.5703 43.3634 57.402 39.7471 58.8824 37.0808C60.3628 34.4146 62.3707 32.9166 64.4643 32.9166Z" fill="url(#paint3_radial_394_8524)"/>
<path d="M20.7225 65.7764C20.8113 71.4828 24.4757 76.8098 29.332 78.6158C31.235 79.2869 33.2323 79.7157 35.2364 79.5628C37.2933 79.4221 39.3019 78.6158 40.9993 77.3297C43.5763 75.3633 45.3052 72.2303 46.0769 68.9045C46.8184 65.5413 46.688 61.9282 45.6456 58.6608C44.7761 55.9954 42.9495 53.6795 40.6039 52.5129C40.168 52.3475 39.7322 52.0564 39.2637 52.0826C38.7526 52.2194 38.6088 52.9631 38.8717 53.4171C39.6603 55.9196 40.3792 58.4942 40.5073 61.1571C40.5421 62.6632 40.4331 64.2988 39.5468 65.5202C38.9492 66.4331 38.0763 67.1197 37.09 67.4045C35.014 68.2117 32.4819 67.9816 30.7913 66.3174C29.059 64.5513 28.3513 61.8735 28.3008 59.33C28.2884 56.9021 29.0995 54.5614 30.224 52.5116C30.3992 52.0427 29.9678 51.5204 29.5286 51.6696C28.54 51.7281 27.7155 52.4121 26.8584 52.8848C23.3433 55.2318 21.0663 59.58 20.7675 64.0898C20.7248 64.6508 20.7113 65.2142 20.7225 65.7764Z" fill="url(#paint4_linear_394_8524)"/>
<path d="M17.7647 26.1008C18.1286 31.7611 21.0089 37.225 25.4496 40.118C26.746 40.9339 28.2547 41.3132 29.742 41.2747C30.1902 40.7747 29.7476 39.97 29.2421 39.7772C26.3202 36.1479 25.9551 30.2798 28.4928 26.2898C30.152 23.9714 33.011 22.9665 35.6116 23.3782C37.6977 23.6991 39.7321 25.0249 40.696 27.1517C41.3913 28.5783 41.5463 30.2487 41.361 31.837C41.0734 34.7064 39.8568 37.3108 39.2142 40.0832C40.095 40.8754 41.3666 40.5956 42.2698 39.9998C44.7176 38.6901 46.4184 36.123 47.4496 33.4017C49.5706 28.0373 49.2167 21.6543 46.8037 16.4815C45.6848 13.897 44.1514 11.3684 41.8519 9.92558C38.547 7.90328 34.668 7.09608 30.9204 7.50768C26.2798 8.19678 22.093 11.5711 19.9159 16.1382C18.4027 19.1618 17.6321 22.6443 17.7647 26.1008Z" fill="url(#paint5_linear_394_8524)"/>
<path d="M0.737601 80.4378C0.730861 82.0902 1.57788 83.849 3.045 84.4019C4.63007 85.0526 6.34657 84.6797 7.95411 84.3496C11.9668 83.4932 16.1614 83.5174 20.1191 84.7016C22.6264 85.403 25.1203 86.1912 27.6782 86.6402C31.6426 87.4326 35.5957 88.3081 39.5836 88.9478C45.4465 89.7838 51.4071 89.2373 57.1857 87.972C60.2592 87.2666 63.3035 86.3058 66.1558 84.8415C70.3516 82.5654 73.9576 79.187 77.2951 75.6124C81.3246 71.2294 84.743 66.0603 86.8179 60.2158C89.9229 51.6314 90.2868 41.8691 87.8042 33.0384C85.8035 25.7872 81.9571 19.2077 76.9199 14.0884C73.4071 10.5101 69.3731 7.6022 65.1481 5.1607C62.1015 3.4368 58.837 2.1358 55.4456 1.5637C50.6679 0.669398 45.7891 0.635803 40.9654 1.009C36.6685 1.3933 32.4031 2.1234 28.1466 2.8609C25.4236 3.4256 22.8578 4.6619 20.1404 5.2465C18.2936 5.5674 16.4153 5.2626 14.6202 4.7515C12.1993 4.1831 9.84811 3.1445 7.35199 3.045C5.70288 2.8995 3.96391 3.7863 3.15172 5.4169C2.33728 7.0064 2.45298 8.928 2.75405 10.6581C3.33258 14.2476 4.16724 17.8035 4.35934 21.454C4.44584 23.2574 4.05603 25.0285 3.59769 26.7437C2.97198 29.0496 2.271 31.3419 1.93062 33.7287C1.47341 36.7821 1.30827 39.8791 1.22964 42.9698C1.17796 47.5344 1.82839 52.0555 2.43726 56.5554C2.68215 58.3838 2.9731 60.2059 3.16407 62.0429C3.36066 65.1101 2.8192 68.156 2.30357 71.1547C1.85535 73.5963 1.24986 76.0004 0.856678 78.4544C0.771302 79.1111 0.720751 79.7737 0.737601 80.4378Z" fill="url(#paint6_radial_394_8524)"/>
<path fill-rule="evenodd" clip-rule="evenodd" d="M51.3705 36.2188C48.7722 36.735 46.4917 38.3183 44.0439 39.3382C42.4139 39.4277 40.812 39.8096 39.3404 40.5807C37.862 40.9401 36.314 40.5819 34.8491 41.0508C33.3146 40.7188 31.8891 39.4128 30.2613 40.0098C28.8661 40.2561 27.5596 41.8245 26.1071 40.9538C24.349 39.9526 23.6458 37.2984 21.5923 36.8817C20.0229 37.138 18.3862 37.2312 17.2404 35.7997C16.2125 34.9813 15.8317 36.0434 16.6697 36.8357C18.3267 39.7424 20.4509 42.7884 23.5997 43.5769C26.5452 44.2573 29.5648 44.6391 32.3811 45.8941C34.4998 46.5719 36.733 46.2958 38.8876 46.0159C41.5804 45.5868 44.0945 44.358 46.5164 43.0185C47.9869 42.312 49.6383 42.0521 51.0121 41.118C52.1041 40.0509 52.759 37.9141 52.1344 36.4825C51.8962 36.3407 51.6244 36.3109 51.3705 36.2188Z" fill="url(#paint7_linear_394_8524)"/>
<path fill-rule="evenodd" clip-rule="evenodd" d="M52.5619 58.2932C49.9636 57.7783 47.6831 56.195 45.2353 55.1751C43.6053 55.0856 42.0045 54.7037 40.5329 53.9326C39.0534 53.5732 37.5054 53.9301 36.0405 53.4612C34.506 53.7946 33.0805 55.1005 31.4527 54.5023C30.0575 54.256 28.751 52.6876 27.2985 53.5595C25.5404 54.5595 24.8372 57.2149 22.7848 57.6303C21.2143 57.3754 19.5776 57.2821 18.4318 58.7136C17.4039 59.5308 17.0231 58.4686 17.8611 57.6776C19.5181 54.7709 21.6423 51.7249 24.7911 50.9351C27.7366 50.256 30.7562 49.8742 33.5725 48.618C35.6912 47.9414 37.9244 48.2163 40.0791 48.4974C42.7718 48.9265 45.2859 50.1553 47.7078 51.4936C49.1783 52.2013 50.8297 52.4612 52.2036 53.3953C53.2955 54.4625 53.9504 56.5992 53.3258 58.0296C53.0876 58.1714 52.8158 58.2025 52.5619 58.2932Z" fill="url(#paint8_linear_394_8524)"/>
<path d="M34.5472 50.5141C39.4159 50.5141 43.3679 54.8921 43.3679 60.2863C43.3679 65.6805 39.4159 70.0586 34.5472 70.0586C29.6786 70.0586 25.7266 65.6805 25.7266 60.2863C25.7266 54.8921 29.6786 50.5141 34.5472 50.5141Z" fill="url(#paint9_radial_394_8524)"/>
<path d="M34.099 19.8611C39.9551 19.8611 44.707 25.126 44.707 31.6122C44.707 38.0984 39.9551 43.3633 34.099 43.3633C28.244 43.3633 23.4922 38.0984 23.4922 31.6122C23.4922 25.126 28.244 19.8611 34.099 19.8611Z" fill="url(#paint10_radial_394_8524)"/>
<path d="M54.0195 36.7183C54.8373 37.0367 55.7248 36.8812 56.5786 36.9248C55.0924 38.0827 54.1274 40.0727 54.2128 42.11C54.1442 44.1796 56.4943 45.8786 58.112 44.6436C58.9792 44.1809 59.815 43.554 60.5205 42.7941C60.7721 43.2257 61.0642 43.6386 61.2967 44.0615C62.7054 46.248 62.3077 49.5801 60.4744 51.3052C59.4802 50.146 58.258 49.2268 56.8909 48.7132C55.6439 48.4221 54.6149 49.8388 54.6969 51.131C54.6329 53.3275 55.7933 55.4419 57.484 56.5377C56.9785 56.8101 56.4483 57.0451 55.9776 57.3648C55.4788 57.7354 54.3734 56.9058 54.2689 57.1596C55.4968 57.8834 56.8763 58.5389 58.2984 58.2441C59.3634 58.1956 60.5339 58.2889 61.4225 57.5091C61.4529 57.4792 61.4798 57.4481 61.5068 57.4158C64.4556 56.4606 64.7814 53.8698 65.7969 50.5987C66.4687 48.9743 66.6338 47.1137 66.2642 45.3749C65.6879 43.1349 65.0555 40.8376 63.7816 38.9459C63.2087 38.0504 62.3853 37.4297 61.6225 36.7494C61.4574 36.5516 61.2394 36.4285 61.0159 36.3725C60.2407 35.8526 59.2645 35.6785 58.404 36.023C58.2715 36.0554 58.1423 36.0952 58.0142 36.14C57.2795 35.926 56.5359 35.7693 55.7776 35.7855C55.1979 35.8924 54.1487 36.334 54.0195 36.7183Z" fill="url(#paint11_linear_394_8524)"/>
<path d="M54.7183 42.1529C54.6521 39.9104 56.2427 37.7786 58.2412 37.4278C58.995 37.2711 59.8802 37.4291 60.3442 38.1729C60.7778 38.7736 60.7463 39.643 60.3543 40.2574C59.4994 41.9688 58.0974 43.3904 56.4146 44.021C55.4519 44.2462 54.6554 43.1516 54.7183 42.1529Z" fill="url(#paint12_linear_394_8524)"/>
<path d="M67.0125 20.6174C67.1574 23.2231 67.6539 25.8822 68.9334 28.1111C69.3098 28.8922 70.0242 29.4058 70.7949 29.5899C71.9441 29.9332 73.2371 29.8698 74.238 30.6807C75.5568 31.6944 76.2421 33.4468 76.4308 35.1682C76.7229 37.3298 76.5027 39.5947 77.207 41.6743C77.4081 42.2962 77.7609 42.8484 78.035 43.4118C78.4416 44.4056 78.0282 45.5623 77.4059 46.326C76.9869 46.8471 76.4398 47.2215 75.9522 47.6556C75.0199 48.709 74.7738 50.2998 74.9715 51.7189C75.1895 53.4005 76.0129 54.9453 75.9927 56.6729C76.0309 57.7972 75.4344 58.832 74.6446 59.49C73.3932 60.5571 71.7846 61.0596 70.7005 62.3768C69.6131 63.7101 68.9705 65.3929 68.3336 67.0235C68.1639 67.5185 67.9336 68.0023 67.8292 68.5185C67.8797 68.8717 68.3122 68.9388 68.5279 68.7287C69.3828 68.3257 69.7434 67.2996 70.2388 66.5048C71.0263 65.0782 71.5756 63.4128 72.79 62.3419C74.0448 61.4253 75.5209 60.7798 76.4533 59.4141C77.2655 58.3022 77.5654 56.7413 77.1498 55.3756C76.7847 53.8445 76.0623 52.4055 75.977 50.801C75.8826 49.9142 76.1646 48.9864 76.7745 48.3894C77.5306 47.6854 78.454 47.168 79.0056 46.2327C79.7009 45.1121 79.7178 43.5822 79.146 42.3969C78.9067 41.8061 78.463 41.341 78.3012 40.7104C77.6665 38.6445 78.0451 36.4318 77.7788 34.3063C77.5867 32.6446 77.0633 30.922 75.8972 29.7877C75.1827 29.0862 74.2683 28.7255 73.3561 28.4755C72.4226 28.1956 71.3846 27.7976 70.8971 26.7939C70.3231 25.6534 69.8906 24.4345 69.4333 23.233C69.0143 22.1311 68.6009 21.0067 68.001 20.0079C67.6775 19.6535 66.9518 19.8699 67.0069 20.4383C67.0046 20.498 67.0091 20.5577 67.0125 20.6174Z" fill="url(#paint13_radial_394_8524)"/>
<path d="M4.77782 9.39012C5.10022 11.8191 5.68999 14.2022 6.47859 16.4932C6.72236 17.0753 7.16497 17.7357 7.81091 17.6847C8.4546 17.426 8.56132 16.584 8.8972 16.0168C9.72737 14.2059 10.4126 12.2321 11.7876 10.8229C12.5998 9.86022 13.5435 9.01072 14.2298 7.93492C14.2826 7.34902 13.6951 7.04812 13.2581 6.95982C12.082 6.58662 10.8912 6.26822 9.6948 5.98842C8.41865 5.74962 6.96951 5.75332 5.90006 6.67242C5.17212 7.32042 4.72389 8.35032 4.77782 9.39012Z" fill="url(#paint14_linear_394_8524)"/>
<path fill-rule="evenodd" clip-rule="evenodd" d="M51.5402 40.1801C51.3784 40.8467 51.3414 41.5495 51.429 42.2335C51.5009 42.6925 51.5997 43.1539 51.8064 43.5644C51.9457 43.8989 52.1244 44.2111 52.3131 44.5146C52.5187 44.8317 52.7534 45.1253 52.9837 45.4188C53.0275 45.4623 53.1118 45.5718 53.0433 45.4437C52.8074 44.925 52.6085 44.3827 52.4827 43.8168C52.4074 43.5246 52.3693 43.2236 52.3243 42.9201C52.2828 42.6378 52.2659 42.3368 52.2524 42.0457C52.2367 41.6179 52.2872 41.1925 52.3445 40.7696C52.4198 40.2734 52.5411 39.7858 52.6928 39.3119C52.8849 38.8356 53.0455 38.3393 53.3118 37.9052C53.5814 37.4226 53.8948 36.9674 54.2689 36.5794C54.3093 36.4674 54.1296 36.6528 54.0914 36.6776C53.7971 36.9264 53.496 37.1702 53.2365 37.4662C52.9467 37.7 52.7141 38.006 52.476 38.302C52.0873 38.8107 51.7862 39.4015 51.5807 40.0283C51.5672 40.0793 51.5537 40.1291 51.5402 40.1801Z" fill="url(#paint15_linear_394_8524)"/>
<path d="M34.5454 54.6352C37.3606 54.6352 39.6444 57.1663 39.6444 60.2844C39.6444 63.4038 37.3606 65.9336 34.5454 65.9336C31.7302 65.9336 29.4453 63.4038 29.4453 60.2844C29.4453 57.1663 31.7302 54.6352 34.5454 54.6352Z" fill="url(#paint16_radial_394_8524)" stroke="#A05A2C" stroke-width="0.432463"/>
<path d="M34.2303 25.3857C37.3937 25.3857 39.9606 28.2289 39.9606 31.7339C39.9606 35.2388 37.3937 38.082 34.2303 38.082C31.0669 38.082 28.5 35.2388 28.5 31.7339C28.5 28.2289 31.0669 25.3857 34.2303 25.3857Z" fill="url(#paint17_radial_394_8524)" stroke="#A05A2C" stroke-width="0.432463"/>
<path d="M31.9474 32.9064C32.7854 32.9064 33.465 33.6589 33.465 34.588C33.465 35.5158 32.7854 36.2695 31.9474 36.2695C31.1093 36.2695 30.4297 35.5158 30.4297 34.588C30.4297 33.6589 31.1093 32.9064 31.9474 32.9064Z" fill="url(#paint18_radial_394_8524)"/>
<path d="M33.5994 28.4363C33.7308 28.7236 34.0106 28.8766 34.2802 28.9562C34.6509 29.0893 35.0283 29.2124 35.3665 29.43C35.7945 29.6987 36.1764 30.0793 36.4146 30.5606C36.5999 30.8293 36.6898 31.1601 36.8414 31.4512C36.9133 31.6502 36.9515 31.8877 37.12 32.0208C37.2728 32.1327 37.4829 32.1924 37.6514 32.0817C37.8671 31.8927 38.0333 31.6377 38.1165 31.3454C38.3557 30.5743 38.267 29.7024 37.9289 28.9835C37.7334 28.583 37.4683 28.2186 37.129 27.9574C36.7437 27.6378 36.2708 27.4711 35.7978 27.4002C35.3811 27.3418 34.9519 27.3803 34.552 27.5246C34.2116 27.6614 33.8769 27.8629 33.6488 28.1825C33.6174 28.2621 33.5792 28.3467 33.5994 28.4363Z" fill="url(#paint19_linear_394_8524)"/>
<path fill-rule="evenodd" clip-rule="evenodd" d="M62.229 18.2661C62.2695 19.1193 62.6975 19.8581 63.085 20.5695C63.2311 20.9153 63.1053 20.378 63.1232 20.2374C63.0806 19.4489 63.1086 18.6591 63.1188 17.8706C63.1367 17.2387 63.4007 16.6131 63.868 16.2375C64.4893 15.6828 65.3363 15.546 66.1092 15.679C66.8562 15.791 67.5763 16.0459 68.2986 16.2773C68.2188 16.0882 67.9773 16.0459 67.8571 15.8805C67.1134 15.2674 66.3451 14.5733 65.3947 14.4365C64.2927 14.2562 63.0851 14.9029 62.6189 16.0447C62.2987 16.7226 62.1942 17.5074 62.229 18.2661Z" fill="url(#paint20_radial_394_8524)"/>
<path fill-rule="evenodd" clip-rule="evenodd" d="M63.0689 18.9648C63.1082 19.818 63.5373 20.558 63.9238 21.2682C64.0698 21.6152 63.9451 21.0767 63.962 20.9361C63.9193 20.1476 63.9474 19.3578 63.9586 18.5693C63.9754 17.9374 64.2406 17.3118 64.7068 16.9362C65.3291 16.3815 66.1761 16.2447 66.9479 16.3777C67.6949 16.4897 68.4161 16.7447 69.1384 16.9772C69.0576 16.7869 68.816 16.7447 68.6958 16.5792C67.9522 15.9673 67.1849 15.272 66.2345 15.1352C65.1314 14.9549 63.9249 15.6016 63.4587 16.7434C63.1385 17.4225 63.0341 18.2061 63.0689 18.9648Z" fill="#784421"/>
<path fill-rule="evenodd" clip-rule="evenodd" d="M63.7152 68.4811C63.768 67.3604 64.3297 66.3903 64.8375 65.4587C65.0284 65.0035 64.8655 65.71 64.888 65.8941C64.8318 66.9276 64.8689 67.9649 64.8824 68.9985C64.9049 69.8281 65.252 70.649 65.8642 71.1402C66.6798 71.8678 67.7908 72.0482 68.8041 71.8741C69.7848 71.7261 70.7306 71.3927 71.6776 71.088C71.572 71.3368 71.2553 71.3927 71.098 71.6091C70.1218 72.4126 69.1152 73.3243 67.8683 73.5034C66.4214 73.741 64.8386 72.8927 64.2263 71.394C63.8062 70.5034 63.6703 69.4748 63.7152 68.4811Z" fill="url(#paint21_radial_394_8524)"/>
<path fill-rule="evenodd" clip-rule="evenodd" d="M64.8697 68.5897C64.909 67.7365 65.3381 66.9977 65.7245 66.2863C65.8706 65.9405 65.7459 66.4778 65.7627 66.6184C65.7212 67.4069 65.7481 68.1967 65.7594 68.9853C65.7762 69.6171 66.0413 70.2427 66.5075 70.6183C67.1299 71.173 67.9769 71.3098 68.7487 71.1768C69.4957 71.0648 70.2169 70.8099 70.9392 70.5785C70.8595 70.7676 70.6179 70.8099 70.4977 70.9753C69.7529 71.5884 68.9857 72.2825 68.0353 72.4193C66.9333 72.5996 65.7257 71.9529 65.2595 70.8111C64.9393 70.1332 64.8348 69.3484 64.8697 68.5897Z" fill="#784421"/>
<path d="M14.1279 28.9752C14.2077 31.3197 14.7705 33.6443 15.7894 35.704C16.451 37.097 17.3059 38.3594 18.1675 39.6044C18.4551 40.0285 18.7405 40.4564 19.0213 40.8867C19.2763 40.8743 19.2415 40.4962 19.146 40.3208C18.436 37.6766 17.1565 35.2724 16.4387 32.6306C15.8321 30.454 15.5366 28.1307 15.8658 25.867C16.0545 24.2178 16.5274 22.6009 16.988 21.0126C17.5126 19.2651 18.0631 17.5276 18.5753 15.7739C18.5686 15.5102 18.2114 15.4294 18.1013 15.662C17.7283 16.2005 17.3082 16.7764 16.9644 17.3659C16.0579 18.851 15.3468 20.4828 14.8817 22.2029C14.5649 23.3036 14.3638 24.4628 14.2391 25.6158C14.1257 26.7165 14.0807 27.8583 14.1279 28.9752Z" fill="#784421"/>
<path d="M16.6693 63.9762C16.7626 66.1864 17.2625 68.3905 18.2016 70.3493C18.7532 71.4539 19.4396 72.4649 20.1271 73.4688C20.3708 73.4016 20.2226 73.0807 20.1765 72.9066C19.6597 71.0036 19.0677 69.123 18.6678 67.184C18.4746 66.189 18.2994 65.1455 18.305 64.1107C18.2915 62.2637 18.6476 60.4266 19.2733 58.719C19.5081 58.0734 19.7923 57.3807 20.0518 56.7153C20.3933 55.8546 20.7236 54.9665 20.9381 54.0511C21.0494 53.831 21.0437 53.4156 20.7584 53.3795C20.4371 53.3882 20.3124 53.78 20.1259 54.0051C19.1217 55.3931 18.1758 56.8645 17.5658 58.52C17.1614 59.6257 16.8918 60.7861 16.7513 61.9689C16.675 62.6356 16.6525 63.3059 16.6693 63.9762Z" fill="#784421"/>
<path fill-rule="evenodd" clip-rule="evenodd" d="M66.4258 84.5818C70.4722 82.3101 73.9658 79.0187 77.2101 75.5448C81.2396 71.1618 84.6592 65.9952 86.7351 60.1495C89.839 51.5663 90.2041 41.804 87.7215 32.9733C85.7207 25.7234 81.8721 19.1414 76.8349 14.0221C74.7398 11.8865 72.4583 9.9923 70.0632 8.2921C71.2417 10.7025 72.4684 13.083 73.7838 15.394C79.4422 23.4063 83.0763 33.2569 83.2448 43.503C83.6897 50.4233 81.9417 57.1359 79.2681 63.3174C76.8708 71.6357 72.1617 78.71 66.4258 84.5818Z" fill="url(#paint22_linear_394_8524)"/>
<path fill-rule="evenodd" clip-rule="evenodd" d="M13.4819 7.94458C13.2213 7.70948 11.5823 7.93588 10.9589 8.16848C9.86583 8.57518 12.2058 9.91718 9.35133 8.64108C7.70896 7.90728 7.855 7.61118 8.97724 9.66588C9.76809 11.1149 9.30639 10.5291 7.95049 9.92338C7.58539 9.75918 8.94467 11.5838 8.85817 12.1572C8.83121 12.3375 9.34346 13.0303 8.49644 13.3462C7.54383 13.702 7.79434 13.0428 8.09877 14.0428C8.12012 14.1124 7.58988 15.9631 7.52361 16.4084C7.28545 17.988 8.47285 16.1646 8.67506 15.8101C9.02892 15.1895 8.99073 14.3214 9.4221 13.7604C9.94109 13.0863 10.3792 11.9769 10.7522 11.493C11.2453 10.8525 11.7789 10.1572 12.253 9.54158C12.7596 8.88238 12.7439 8.71318 13.4819 7.94458Z" fill="url(#paint23_linear_394_8524)"/>
<path d="M2.69579 78.9222C3.0182 76.4932 3.60797 74.1101 4.39657 71.8191C4.64034 71.2383 5.08295 70.5766 5.72888 70.6276C6.37257 70.8863 6.4793 71.7283 6.81518 72.2955C7.64535 74.1064 8.33061 76.0815 9.70561 77.4907C10.5178 78.4521 11.4614 79.3021 12.1467 80.3777C12.2006 80.9635 11.6131 81.2649 11.175 81.3534C9.99993 81.7259 8.80916 82.0448 7.61277 82.3243C6.33663 82.5626 4.88748 82.5589 3.81691 81.6406C3.08897 80.9916 2.64187 79.962 2.69579 78.9222Z" fill="url(#paint24_linear_394_8524)"/>
<path fill-rule="evenodd" clip-rule="evenodd" d="M11.396 80.3693C11.1354 80.6047 9.49639 80.3781 8.87293 80.1458C7.77989 79.7383 10.1199 78.3964 7.26539 79.6727C5.62302 80.4069 5.76906 80.7027 6.89131 78.6477C7.68216 77.1987 7.22045 77.7845 5.86455 78.3915C5.49945 78.5544 6.85873 76.7298 6.77223 76.1564C6.74527 75.9761 7.25752 75.2833 6.4105 74.9674C5.45789 74.6129 5.7084 75.2721 6.01283 74.2709C6.03418 74.2012 5.50395 72.3505 5.43767 71.9052C5.19952 70.3256 6.38691 72.1502 6.588 72.5035C6.94298 73.1254 6.90366 73.9923 7.33616 74.5532C7.85516 75.2273 8.29327 76.3368 8.6651 76.8206C9.15826 77.4624 9.69298 78.1564 10.167 78.772C10.6737 79.431 10.6568 79.6008 11.396 80.3693Z" fill="url(#paint25_linear_394_8524)"/>
<path d="M32.2454 60.8736C32.943 60.8736 33.5092 61.5017 33.5092 62.2741C33.5092 63.0477 32.943 63.6758 32.2454 63.6758C31.5466 63.6758 30.9805 63.0477 30.9805 62.2741C30.9805 61.5017 31.5466 60.8736 32.2454 60.8736Z" fill="url(#paint26_radial_394_8524)"/>
<path d="M55.3034 51.326C55.254 53.015 56.4526 54.6207 57.9579 54.8844C58.5252 55.0026 59.1925 54.8832 59.5407 54.3235C59.8687 53.8707 59.844 53.2165 59.5486 52.7526C58.9049 51.4641 57.8489 50.3932 56.5818 49.9181C55.8561 49.7489 55.2562 50.5735 55.3034 51.326Z" fill="url(#paint27_linear_394_8524)"/>
<path fill-rule="evenodd" clip-rule="evenodd" d="M61.0915 53.8415C62.0835 54.2383 63.1248 53.5156 63.6966 52.6438C64.2516 51.747 65.0256 50.9659 65.2592 49.8727C65.4109 49.3391 65.3075 48.7881 65.2817 48.2483C65.2727 46.3018 65.4951 44.2384 64.7009 42.4263C64.2763 41.5407 63.5528 40.9014 62.9676 40.1551C62.6317 39.8131 62.2935 39.3119 61.7891 39.343C61.2196 39.4835 61.269 40.3131 61.4746 40.772C62.1868 42.6365 63.2035 44.4287 63.3641 46.4896C63.4652 47.8105 63.0406 49.0941 62.4351 50.2097C61.8442 51.3652 61.1342 52.4784 60.832 53.7806C60.9185 53.8017 61.005 53.8216 61.0915 53.8415Z" fill="url(#paint28_linear_394_8524)"/>
<path d="M65.6738 20.6174C65.8176 23.2231 66.3141 25.8822 67.5947 28.1111C67.9711 28.8922 68.6855 29.4058 69.455 29.5899C70.6053 29.9332 71.8972 29.8698 72.8981 30.6807C74.2181 31.6944 74.9033 33.4468 75.0921 35.1682C75.383 37.3298 75.164 39.5947 75.8672 41.6743C76.0694 42.2962 76.421 42.8484 76.6951 43.4118C77.1029 44.4056 76.6895 45.5623 76.0672 46.326C75.6481 46.8471 75.0999 47.2215 74.6135 47.6556C73.68 48.709 73.4351 50.2998 73.6317 51.7189C73.8496 53.4005 74.6742 54.9453 74.6528 56.6729C74.691 57.7972 74.0945 58.832 73.3048 59.49C72.0534 60.5571 70.4447 61.0596 69.3607 62.3768C68.2744 63.7101 67.6307 65.3929 66.9948 67.0235C66.8241 67.5185 66.5938 68.0023 66.4905 68.5185C66.541 68.8717 66.9735 68.9388 67.1881 68.7287C68.0441 68.3257 68.4035 67.2996 68.9001 66.5048C69.6864 65.0782 70.2369 63.4128 71.4512 62.3419C72.7049 61.4253 74.1821 60.7798 75.1145 59.4141C75.9256 58.3022 76.2256 56.7413 75.8099 55.3756C75.4448 53.8445 74.7225 52.4055 74.6382 50.801C74.5439 49.9142 74.8247 48.9864 75.4347 48.3894C76.1907 47.6854 77.1153 47.168 77.6668 46.2327C78.3622 45.1121 78.3779 43.5822 77.8073 42.3969C77.5669 41.8061 77.1242 41.341 76.9614 40.7104C76.3267 38.6445 76.7052 36.4318 76.4401 34.3063C76.2469 32.6446 75.7245 30.922 74.5574 29.7877C73.844 29.0862 72.9285 28.7255 72.0163 28.4755C71.0828 28.1956 70.0448 27.7976 69.5572 26.7939C68.9832 25.6534 68.5518 24.4345 68.0946 23.233C67.6745 22.1311 67.2611 21.0067 66.6612 20.0079C66.3377 19.6535 65.612 19.8699 65.667 20.4383C65.6659 20.498 65.6704 20.5577 65.6738 20.6174Z" fill="url(#paint29_radial_394_8524)"/>
<path fill-rule="evenodd" clip-rule="evenodd" d="M51.5235 54.1535C51.6392 54.498 51.8055 54.8201 51.9875 55.1261C52.1391 55.3475 52.2863 55.5726 52.4671 55.7666C52.8626 56.2343 53.3344 56.6149 53.8264 56.9507C53.9084 57.0079 53.9904 57.0676 54.0747 57.1211C53.8331 56.8736 53.6467 56.5713 53.4422 56.2865C53.2692 55.9992 53.0782 55.7194 52.9625 55.396C52.885 55.2069 52.7682 55.0365 52.7019 54.8301C52.4548 54.1821 52.2571 53.508 52.1414 52.8152C52.0436 52.2617 52.0391 51.6908 52.0829 51.1311C52.1312 50.3973 52.3087 49.6797 52.5682 49.0043C52.6525 48.7978 52.7502 48.5976 52.8423 48.3936C52.6379 48.5118 52.5637 48.7754 52.4346 48.972C52.0313 49.661 51.6606 50.3861 51.4617 51.1821C51.3213 51.6946 51.264 52.2319 51.2921 52.7667C51.3056 53.2368 51.3865 53.7082 51.5235 54.1535Z" fill="url(#paint30_linear_394_8524)"/>
<path d="M34.0204 58.0426C34.1271 58.2789 34.3563 58.4033 34.5776 58.4692C34.8809 58.5774 35.1898 58.6781 35.4673 58.8572C35.8178 59.0774 36.1312 59.3883 36.3266 59.7826C36.4783 60.0027 36.5524 60.2739 36.676 60.5127C36.7356 60.6756 36.767 60.8709 36.9041 60.9791C37.0299 61.0711 37.2018 61.1209 37.3399 61.0301C37.5163 60.8746 37.6533 60.6657 37.7207 60.4269C37.9162 59.7938 37.8432 59.0799 37.5668 58.4916C37.4062 58.1632 37.1894 57.8647 36.9119 57.6508C36.5963 57.3884 36.2087 57.2515 35.8211 57.1943C35.4796 57.1458 35.128 57.1782 34.8011 57.2963C34.5225 57.4082 34.2473 57.5724 34.0608 57.8349C34.035 57.8995 34.0035 57.9692 34.0204 58.0426Z" fill="url(#paint31_linear_394_8524)"/>
</g>
</g>
<defs>
<linearGradient id="paint0_linear_394_8524" x1="44.9996" y1="45.0035" x2="87.7201" y2="45.0035" gradientUnits="userSpaceOnUse">
<stop stop-color="#C87137"/>
<stop offset="1" stop-color="#784421"/>
</linearGradient>
<linearGradient id="paint1_linear_394_8524" x1="82.064" y1="53.2359" x2="11.3464" y2="51.2317" gradientUnits="userSpaceOnUse">
<stop stop-color="#502D16"/>
<stop offset="1" stop-color="#DEAA87"/>
</linearGradient>
<radialGradient id="paint2_radial_394_8524" cx="0" cy="0" r="1" gradientUnits="userSpaceOnUse" gradientTransform="translate(53.6772 47.4109) rotate(-90) scale(6.75702 3.57254)">
<stop stop-color="#D38D5F"/>
<stop offset="1" stop-color="#D38D5F" stop-opacity="0"/>
</radialGradient>
<radialGradient id="paint3_radial_394_8524" cx="0" cy="0" r="1" gradientUnits="userSpaceOnUse" gradientTransform="translate(64.4641 47.1341) rotate(-90) scale(14.2175 7.89414)">
<stop stop-color="#784421"/>
<stop offset="1" stop-color="#784421" stop-opacity="0"/>
</radialGradient>
<linearGradient id="paint4_linear_394_8524" x1="35.4184" y1="54.8736" x2="29.9871" y2="80.7761" gradientUnits="userSpaceOnUse">
<stop stop-color="#A05A2C"/>
<stop offset="1" stop-color="#A05A2C" stop-opacity="0"/>
</linearGradient>
<linearGradient id="paint5_linear_394_8524" x1="33.2986" y1="41.2772" x2="33.2986" y2="7.40328" gradientUnits="userSpaceOnUse">
<stop stop-color="#A05A2C"/>
<stop offset="1" stop-color="#A05A2C" stop-opacity="0"/>
</linearGradient>
<radialGradient id="paint6_radial_394_8524" cx="0" cy="0" r="1" gradientUnits="userSpaceOnUse" gradientTransform="translate(10.1052 50.0098) rotate(-90) scale(46.425 44.3507)">
<stop stop-color="#D38D5F"/>
<stop offset="1" stop-color="#784421" stop-opacity="0"/>
</radialGradient>
<linearGradient id="paint7_linear_394_8524" x1="34.2942" y1="37.582" x2="34.2942" y2="45.0632" gradientUnits="userSpaceOnUse">
<stop stop-color="#A05A2C" stop-opacity="0"/>
<stop offset="0.57651" stop-color="#A05A2C"/>
<stop offset="1" stop-color="#A05A2C" stop-opacity="0"/>
</linearGradient>
<linearGradient id="paint8_linear_394_8524" x1="35.4856" y1="56.9313" x2="35.4856" y2="49.4501" gradientUnits="userSpaceOnUse">
<stop stop-color="#A05A2C" stop-opacity="0"/>
<stop offset="0.57651" stop-color="#A05A2C"/>
<stop offset="1" stop-color="#A05A2C" stop-opacity="0"/>
</linearGradient>
<radialGradient id="paint9_radial_394_8524" cx="0" cy="0" r="1" gradientUnits="userSpaceOnUse" gradientTransform="translate(34.5487 60.2878) rotate(-90) scale(9.77157 8.82101)">
<stop stop-color="#784421"/>
<stop offset="0.78399" stop-color="#784421"/>
<stop offset="1" stop-color="#784421" stop-opacity="0"/>
</radialGradient>
<radialGradient id="paint10_radial_394_8524" cx="0" cy="0" r="1" gradientUnits="userSpaceOnUse" gradientTransform="translate(34.1017 31.6111) rotate(-90) scale(11.751 10.6073)">
<stop stop-color="#784421"/>
<stop offset="0.78399" stop-color="#784421"/>
<stop offset="1" stop-color="#784421" stop-opacity="0"/>
</radialGradient>
<linearGradient id="paint11_linear_394_8524" x1="58.9725" y1="45.9557" x2="66.4592" y2="46.2633" gradientUnits="userSpaceOnUse">
<stop stop-color="#A05A2C"/>
<stop offset="1" stop-color="#784421"/>
</linearGradient>
<linearGradient id="paint12_linear_394_8524" x1="56.9426" y1="39.888" x2="54.673" y2="40.5723" gradientUnits="userSpaceOnUse">
<stop stop-color="#502D16"/>
<stop offset="1" stop-color="#28170B"/>
</linearGradient>
<radialGradient id="paint13_radial_394_8524" cx="0" cy="0" r="1" gradientUnits="userSpaceOnUse" gradientTransform="translate(74.7666 44.3434) rotate(-90) scale(29.7795 11.9307)">
<stop stop-color="#502D16"/>
<stop offset="1" stop-color="#28170B"/>
</radialGradient>
<linearGradient id="paint14_linear_394_8524" x1="9.5027" y1="8.62392" x2="4.57497" y2="6.27062" gradientUnits="userSpaceOnUse">
<stop stop-color="#784421"/>
<stop offset="1" stop-color="#502D16"/>
</linearGradient>
<linearGradient id="paint15_linear_394_8524" x1="52.8287" y1="36.5433" x2="52.8287" y2="43.4649" gradientUnits="userSpaceOnUse">
<stop stop-color="#784421"/>
<stop offset="1" stop-color="#784421" stop-opacity="0"/>
</linearGradient>
<radialGradient id="paint16_radial_394_8524" cx="0" cy="0" r="1" gradientUnits="userSpaceOnUse" gradientTransform="translate(34.5453 60.2844) rotate(-90) scale(5.64942 5.0995)">
<stop/>
<stop offset="0.41739" stop-color="#502D16"/>
<stop offset="1" stop-opacity="0"/>
</radialGradient>
<radialGradient id="paint17_radial_394_8524" cx="0" cy="0" r="1" gradientUnits="userSpaceOnUse" gradientTransform="translate(34.2305 31.7328) rotate(-90) scale(6.34882 5.73068)">
<stop/>
<stop offset="0.41739" stop-color="#502D16"/>
<stop offset="1" stop-opacity="0"/>
</radialGradient>
<radialGradient id="paint18_radial_394_8524" cx="0" cy="0" r="1" gradientUnits="userSpaceOnUse" gradientTransform="translate(31.9474 34.588) rotate(-90) scale(1.68152 1.51784)">
<stop stop-color="white" stop-opacity="0.61935"/>
<stop offset="1" stop-color="white" stop-opacity="0"/>
</radialGradient>
<linearGradient id="paint19_linear_394_8524" x1="36.8156" y1="28.6801" x2="34.847" y2="30.4693" gradientUnits="userSpaceOnUse">
<stop stop-color="white" stop-opacity="0.3871"/>
<stop offset="1" stop-color="white" stop-opacity="0"/>
</linearGradient>
<radialGradient id="paint20_radial_394_8524" cx="0" cy="0" r="1" gradientUnits="userSpaceOnUse" gradientTransform="translate(65.2587 17.5457) rotate(-90) scale(3.13851 3.03767)">
<stop stop-color="#DEAA87"/>
<stop offset="1" stop-color="#DEAA87" stop-opacity="0"/>
</radialGradient>
<radialGradient id="paint21_radial_394_8524" cx="0" cy="0" r="1" gradientUnits="userSpaceOnUse" gradientTransform="translate(67.6904 69.4249) rotate(-90) scale(4.11723 3.98494)">
<stop stop-color="#DEAA87"/>
<stop offset="1" stop-color="#DEAA87" stop-opacity="0"/>
</radialGradient>
<linearGradient id="paint22_linear_394_8524" x1="89.3537" y1="46.437" x2="81.7597" y2="46.437" gradientUnits="userSpaceOnUse">
<stop stop-color="#502D16"/>
<stop offset="1" stop-color="#784421" stop-opacity="0"/>
</linearGradient>
<linearGradient id="paint23_linear_394_8524" x1="10.487" y1="12.4445" x2="7.07902" y2="8.17478" gradientUnits="userSpaceOnUse">
<stop stop-color="#502D16"/>
<stop offset="1" stop-color="#502D16" stop-opacity="0"/>
</linearGradient>
<linearGradient id="paint24_linear_394_8524" x1="7.42056" y1="79.6884" x2="2.49284" y2="82.0417" gradientUnits="userSpaceOnUse">
<stop stop-color="#784421"/>
<stop offset="1" stop-color="#502D16"/>
</linearGradient>
<linearGradient id="paint25_linear_394_8524" x1="8.401" y1="75.8691" x2="4.99297" y2="80.1388" gradientUnits="userSpaceOnUse">
<stop stop-color="#502D16"/>
<stop offset="1" stop-color="#502D16" stop-opacity="0"/>
</linearGradient>
<radialGradient id="paint26_radial_394_8524" cx="0" cy="0" r="1" gradientUnits="userSpaceOnUse" gradientTransform="translate(32.2453 62.2759) rotate(-90) scale(1.40053 1.2642)">
<stop stop-color="white" stop-opacity="0.61935"/>
<stop offset="1" stop-color="white" stop-opacity="0"/>
</radialGradient>
<linearGradient id="paint27_linear_394_8524" x1="56.9795" y1="53.0309" x2="55.27" y2="52.5155" gradientUnits="userSpaceOnUse">
<stop stop-color="#502D16"/>
<stop offset="1" stop-color="#28170B"/>
</linearGradient>
<linearGradient id="paint28_linear_394_8524" x1="65.3401" y1="46.6476" x2="62.0441" y2="46.6476" gradientUnits="userSpaceOnUse">
<stop stop-color="#784421"/>
<stop offset="1" stop-color="#784421" stop-opacity="0"/>
</linearGradient>
<radialGradient id="paint29_radial_394_8524" cx="0" cy="0" r="1" gradientUnits="userSpaceOnUse" gradientTransform="translate(71.9381 44.3422) rotate(-90) scale(24.5059 6.27446)">
<stop stop-color="#A05A2C"/>
<stop offset="1" stop-color="#A05A2C" stop-opacity="0"/>
</radialGradient>
<linearGradient id="paint30_linear_394_8524" x1="52.6806" y1="57.1211" x2="52.6806" y2="48.3936" gradientUnits="userSpaceOnUse">
<stop stop-color="#784421"/>
<stop offset="1" stop-color="#784421" stop-opacity="0"/>
</linearGradient>
<linearGradient id="paint31_linear_394_8524" x1="36.6551" y1="58.2422" x2="35.0423" y2="59.708" gradientUnits="userSpaceOnUse">
<stop stop-color="white" stop-opacity="0.3871"/>
<stop offset="1" stop-color="white" stop-opacity="0"/>
</linearGradient>
<clipPath id="clip0_394_8524">
<rect width="90" height="90" fill="white" transform="matrix(0 -1 1 0 0 90)"/>
</clipPath>
</defs>
</svg>
