<svg width="90" height="90" viewBox="0 0 90 90" fill="none" xmlns="http://www.w3.org/2000/svg">
<g clip-path="url(#clip0_394_8611)">
<path d="M0.00108963 45.5817C0.312537 70.1661 20.3426 90 45.0005 90C69.8531 90 90 69.8531 90 45.0005C90 20.1479 69.8531 0.00109863 45.0005 0.00109863C20.1479 0.00109863 0.00108963 20.1479 0.00108963 45.0005C0.00108963 45.1947 -0.00136203 45.3881 0.00108963 45.5817Z" fill="#0000FF"/>
<path d="M12.6484 21.5284C12.7395 22.2185 21.2248 31.975 21.2248 31.975C25.6464 37.3266 30.3909 43.3951 34.6425 48.2396C36.2383 50.0606 38.0567 50.7694 40.0448 51.4034C43.7456 52.5832 49.0822 51.7903 51.6529 52.4212C53.8852 52.9691 55.9322 54.0348 56.4133 55.9507C56.8893 57.8467 55.3748 59.7218 54.6602 59.9167C53.9456 60.1116 53.6849 59.8501 54.5295 58.8756C55.3741 57.9011 55.7518 56.4515 54.9847 55.171C54.2175 53.8906 52.1901 53.3918 50.5907 53.2189C46.9649 52.827 43.4472 53.7605 39.6527 52.9627C37.0785 52.4214 34.6652 50.6124 33.2216 49.132C31.7853 47.6589 28.1624 43.0578 25.5557 39.8391C24.7661 38.8642 23.9751 37.644 22.9238 37.1486C21.4966 36.476 14.8815 36.8335 14.744 37.1757C14.6066 37.5178 26.1181 49.141 32.8661 54.8146C40.9512 61.6135 49.1264 56.3739 49.1264 56.3739C49.1264 56.3739 49.2183 56.9274 47.9321 58.3974C46.6471 59.8689 42.6754 60.7595 40.7271 62.5135C38.7773 64.2678 38.0966 66.5428 39.1047 68.8816C40.1113 71.2204 41.4727 71.8692 42.4793 72.194C43.4863 72.5188 44.6565 72.9116 45.1112 73.6586C45.566 74.4057 46.3145 75.8984 46.3145 75.8984C46.3145 75.8984 46.6702 74.6966 46.9951 74.1768C47.3199 73.6571 47.9059 72.5868 49.1403 72.5544C50.3746 72.5219 51.9026 72.4237 56.4502 72.4237C60.9979 72.4237 64.7631 71.0584 66.712 69.1744C68.6609 67.2904 71.1068 63.5279 71.746 57.6416C71.9767 55.5165 71.6257 49.3425 72.3319 47.835C73.0469 46.3085 74.4789 43.6753 76.9152 43.6753C79.3514 43.6753 80.4872 44.8771 81.3317 45.3969C82.1763 45.9166 82.1114 45.6904 82.1114 45.2031C82.1114 44.8677 82.1008 38.4683 81.7914 37.8392C81.482 37.21 79.377 37.1066 78.3752 37.1587C76.4654 37.2579 74.4282 38.2734 73.1385 39.2903C71.8487 40.3073 71.7987 40.9776 71.5523 40.9055C71.3059 40.8334 71.2874 40.7294 71.5792 40.0111C71.9016 39.2174 72.3707 38.3744 74.6527 36.6133C76.7577 34.9887 80.6699 34.5181 80.766 34.1186C80.862 33.7192 78.8706 29.2998 78.1997 28.6566C77.9507 28.4806 76.8512 28.6579 75.5767 29.398C74.3021 30.138 73.0423 31.4964 71.9645 32.7301C71.2474 33.5509 70.3046 35.5926 70.09 35.4093C69.8755 35.2261 70.0804 33.5071 71.3572 31.4523C72.8494 29.0507 76.3377 27.0426 76.4292 26.4887C76.5208 25.9349 74.7066 24.3396 74.0219 23.6969C72.7808 22.5318 70.9381 20.7285 70.2808 20.9754C69.6234 21.2223 68.8505 26.1997 68.5855 27.5537C68.2698 29.1674 67.1878 32.5521 66.8969 32.4734C66.6059 32.3947 67.0069 31.484 67.3474 29.2895C68.2389 23.5449 67.795 19.8904 67.5279 19.4023C67.2608 18.914 64.9353 17.6625 63.6925 17.2341C62.4496 16.8057 60.2493 16.7159 60.2493 16.7159C60.2493 16.7159 61.9065 21.6177 62.2639 24.6388C62.6212 27.6596 62.7168 27.7563 62.327 32.174C61.9372 36.5917 61.0933 37.2424 61.678 40.4258C62.2627 43.6092 61.9371 50.2382 61.5473 52.3821C61.1575 54.526 60.8984 54.978 60.8984 54.978C60.8984 54.978 62.1331 47.3787 60.5739 40.6872C59.5987 36.502 58.8522 33.3837 57.6671 30.8084L57.6716 30.7453L57.5499 30.5606C57.4589 30.3701 57.3669 30.1819 57.2705 29.9972L56.2466 28.2969C55.9161 27.8214 55.5565 27.362 55.1604 26.9134L54.8089 26.3771C52.4373 23.8833 48.2297 21.5643 44.7949 21.37C44.7949 21.37 43.8582 21.2007 43.5375 21.4737C43.2168 21.7468 47.2826 28.7341 47.2826 28.7341C49.4636 32.8035 52.7085 37.5548 52.0507 37.9503C51.393 38.3458 42.2566 21.6251 41.4825 21.3973C40.8266 21.2036 34.3553 20.841 33.7439 21.1431C33.2561 21.3841 45.4753 38.7085 44.9572 39.1441C44.439 39.58 31.5345 21.3609 31.1036 21.2124C30.4497 20.9864 24.2972 21.079 23.7776 21.2054C23.258 21.3318 35.954 38.0194 35.1507 38.4376C34.3474 38.8555 22.2434 21.4592 21.2403 21.3222C20.2372 21.186 12.8357 21.0973 12.6531 21.5011C12.6503 21.5074 12.6517 21.5172 12.6531 21.5282L12.6484 21.5284ZM42.4519 68.1632C42.4539 67.9291 42.5253 67.7122 42.6773 67.5413C43.0826 67.0854 43.89 67.143 44.48 67.6675C45.0699 68.192 45.2188 68.9828 44.8135 69.4386C44.4082 69.8944 43.6052 69.8414 43.0152 69.3169C42.6465 68.9891 42.4487 68.5534 42.4519 68.1632Z" fill="white"/>
<path d="M24.9166 75.4646C25.3078 77.3297 32.1415 77.3756 33.5269 77.1634C35.7503 76.8229 37.927 75.1398 40.2394 74.7255C42.5129 74.3181 44.7772 75.1917 46.5069 75.5546C47.2852 75.6461 47.5857 75.1639 46.6961 74.8674C45.8066 74.5708 44.5868 74.4818 44.0431 74.383C43.4995 74.2841 41.4917 73.838 40.8299 73.3915C40.2483 72.9991 39.4109 71.6266 38.8064 70.9218C38.2079 70.224 37.0065 68.4618 35.7051 67.7694C34.34 67.0433 32.2817 67.1174 31.145 66.9198C30.0083 66.7221 29.9606 67.1644 30.2572 67.5597C30.5537 67.9551 31.193 68.6486 32.132 69.5382C33.071 70.4278 34.9009 71.9602 36.9271 72.5532C38.9533 73.1462 37.7166 72.452 36.5305 71.8096C35.3444 71.1671 34.4091 70.3774 33.3713 69.2408C32.3335 68.1041 33.8613 68.598 34.8992 69.1417C35.937 69.6853 38.7048 72.3569 39.3473 72.9994C39.9898 73.6419 39.8441 73.7873 38.7074 73.5402C37.571 73.2929 35.5736 72.6765 33.8142 72.4538C32.1211 72.2396 29.3482 72.6477 28.4284 72.9992C27.4006 73.3919 24.6741 74.303 24.9177 75.4644L24.9166 75.4646ZM27.233 75.2573C28.7844 74.2971 33.4584 73.7397 35.244 74.202C36.1251 74.4687 37.3303 74.3185 35.4176 75.0347C33.3169 75.8214 30.121 75.9527 27.9316 75.4195C27.4868 75.3701 27.2268 75.3314 27.233 75.2573Z" fill="white"/>
</g>
<defs>
<clipPath id="clip0_394_8611">
<rect width="90" height="90" fill="white" transform="matrix(0 -1 1 0 0 90)"/>
</clipPath>
</defs>
</svg>
