<svg width="90" height="90" viewBox="0 0 90 90" fill="none" xmlns="http://www.w3.org/2000/svg">
<g clip-path="url(#clip0_394_8617)">
<mask id="mask0_394_8617" style="mask-type:luminance" maskUnits="userSpaceOnUse" x="0" y="0" width="90" height="90">
<path d="M0 0L0 90H90V0H0Z" fill="white"/>
</mask>
<g mask="url(#mask0_394_8617)">
<mask id="mask1_394_8617" style="mask-type:luminance" maskUnits="userSpaceOnUse" x="-4" y="-32" width="117" height="141">
<path d="M-3.46094 108.477L-3.46094 -31.417H112.133L112.133 108.477H-3.46094Z" fill="white"/>
</mask>
<g mask="url(#mask1_394_8617)">
<path fill-rule="evenodd" clip-rule="evenodd" d="M6.41555 55.6385L13.3181 53.2775L10.7104 67.0295L19.1593 64.242L18.3338 75.1133L23.6204 73.0943L25.0828 78.8567L32.8088 72.8262L33.4441 84.3386L38.483 81.2094L40.2901 86.8555L42.3626 84.1767L44.1015 85.9687L48.1521 82.6955L54.6249 87.3281L58.5707 82.9313L61.5971 86.5508L65.1132 82.1932L69.5894 85.1708L76.779 76.5561L84.5872 61.8112L87.9432 49.5984L85.1523 27.8577L82.0562 20.0646L74.1701 10.2177L69.8145 3.16701L64.0155 8.86681L58.0271 2.04731L55.8583 4.89851L50.9039 0.372108L46.8755 8.55401L40.3316 3.53791L39.7765 5.49411L36.8019 3.06891L36.6479 7.70111L33.0927 5.0479L28.8462 10.5401L22.6984 8.62021L22.3163 13.7912L17.8241 12.0634L15.3183 22.0277L10.8051 20.7569L11.1212 34.0519L5.87891 32.989L6.41555 55.6385Z" fill="#874F17"/>
<path fill-rule="evenodd" clip-rule="evenodd" d="M52.3979 65.7969C48.5748 58.7221 45.1077 51.6596 43.8281 42.6198C44.8612 35.1831 48.0556 27.847 51.6318 21.9218C53.9168 25.3476 56.2016 28.7736 58.4865 32.1993C62.5872 38.348 62.9817 45.5161 59.5783 52.038C57.1848 56.624 54.7914 61.2105 52.3979 65.7969Z" fill="#DE9145"/>
<path fill-rule="evenodd" clip-rule="evenodd" d="M46.6914 31.9223C48.0809 28.3379 49.8064 24.9472 51.6312 21.9236C53.9162 25.3494 56.201 28.7754 58.4859 32.201C62.5866 38.3497 62.9811 45.5179 59.5777 52.0397L58.7359 53.6523C63.2897 41.5381 58.1333 33.7325 50.7434 26.9174C48.8991 28.0644 47.8085 30.0073 46.6914 31.9223Z" fill="#C97F34"/>
<path fill-rule="evenodd" clip-rule="evenodd" d="M52.3979 65.7969C48.5748 58.7221 45.1077 51.6596 43.8281 42.6198C44.0792 40.8126 44.4584 39.0112 44.939 37.2346C45.2021 48.0043 48.6206 57.0016 52.3979 65.7969Z" fill="#EDAB68"/>
<path fill-rule="evenodd" clip-rule="evenodd" d="M51.6326 21.9218C53.9176 25.3476 56.2024 28.7736 58.4873 32.1993C62.588 38.348 62.9825 45.5161 59.5791 52.038C57.1856 56.624 54.7922 61.2105 52.3987 65.7969C49.2028 51.1717 48.6295 36.547 51.6326 21.9218Z" fill="#BD732A"/>
<path fill-rule="evenodd" clip-rule="evenodd" d="M51.6334 21.9236C53.9184 25.3494 56.2032 28.7754 58.4881 32.201C62.5888 38.3497 62.9833 45.5179 59.5799 52.0397L58.7381 53.6523C63.2917 41.5384 58.1355 33.7325 50.7461 26.9178C50.9968 25.2532 51.2917 23.5881 51.6334 21.9236Z" fill="#A6601B"/>
<path fill-rule="evenodd" clip-rule="evenodd" d="M34.846 61.4961C31.7728 55.8087 28.9857 50.1315 27.957 42.8649C28.7876 36.8863 31.3553 30.9893 34.2303 26.2263C36.0671 28.9801 37.9039 31.7342 39.7405 34.488C43.037 39.4307 43.3541 45.1929 40.618 50.4356C38.6941 54.1226 36.7701 57.8092 34.846 61.4961Z" fill="#DE9145"/>
<path fill-rule="evenodd" clip-rule="evenodd" d="M30.2617 34.2626C31.3786 31.3813 32.7654 28.6555 34.2326 26.2249C36.0694 28.9787 37.9062 31.7328 39.7428 34.4866C43.0393 39.4293 43.3564 45.1915 40.6203 50.4342L39.944 51.7305C43.6047 41.9923 39.4593 35.7175 33.5188 30.2393C32.0365 31.1615 31.1597 32.7229 30.2617 34.2626Z" fill="#C97F34"/>
<path fill-rule="evenodd" clip-rule="evenodd" d="M34.846 61.4961C31.7728 55.8087 28.9856 50.1315 27.957 42.8649C28.1589 41.4119 28.4636 39.9638 28.8501 38.5359C29.0618 47.1932 31.8096 54.4255 34.846 61.4961Z" fill="#EDAB68"/>
<path fill-rule="evenodd" clip-rule="evenodd" d="M34.2309 26.2263C36.0677 28.9801 37.9045 31.7342 39.7411 34.488C43.0376 39.4307 43.3547 45.1929 40.6186 50.4356C38.6947 54.1226 36.7707 57.8092 34.8466 61.4961C32.2775 49.7392 31.8169 37.9831 34.2309 26.2263Z" fill="#BD732A"/>
<path fill-rule="evenodd" clip-rule="evenodd" d="M34.2328 26.2249C36.0696 28.9787 37.9064 31.7328 39.743 34.4866C43.0395 39.4293 43.3566 45.1915 40.6205 50.4342L39.9442 51.7305C43.6044 41.9926 39.4597 35.7175 33.5195 30.2396C33.7209 28.9016 33.958 27.5633 34.2328 26.2249Z" fill="#A6601B"/>
<path fill-rule="evenodd" clip-rule="evenodd" d="M20.7262 59.2266C18.0481 54.2703 15.6193 49.3226 14.7227 42.99C15.4465 37.7805 17.6842 32.6413 20.1897 28.49C21.7903 30.8904 23.391 33.2903 24.9916 35.6903C27.8642 39.9975 28.1406 45.0191 25.7563 49.5879C24.0796 52.8009 22.4028 56.0136 20.7262 59.2266Z" fill="#DE9145"/>
<path fill-rule="evenodd" clip-rule="evenodd" d="M16.7266 35.4963C17.7 32.9852 18.9087 30.6096 20.1873 28.4914C21.7879 30.8918 23.3886 33.2917 24.9892 35.6917C27.8618 39.9989 28.1382 45.0204 25.7539 49.5892L25.1644 50.7188C28.3543 42.2325 24.7422 36.7645 19.5652 31.9901C18.2732 32.7938 17.5093 34.1547 16.7266 35.4963Z" fill="#C97F34"/>
<path fill-rule="evenodd" clip-rule="evenodd" d="M20.7224 59.2266C18.0442 54.2703 15.6154 49.3226 14.7188 42.99C14.8946 41.7241 15.1603 40.4621 15.4971 39.2177C15.6816 46.7624 18.0763 53.0649 20.7224 59.2266Z" fill="#EDAB68"/>
<path fill-rule="evenodd" clip-rule="evenodd" d="M20.1878 28.49C21.7884 30.8904 23.3891 33.2903 24.9897 35.6903C27.8623 39.9975 28.1387 45.0191 25.7544 49.5879C24.0777 52.8009 22.4009 56.0136 20.7243 59.2266C18.4853 48.9811 18.084 38.7356 20.1878 28.49Z" fill="#BD732A"/>
<path fill-rule="evenodd" clip-rule="evenodd" d="M20.1881 28.4914C21.7887 30.8918 23.3894 33.2917 24.99 35.6917C27.8626 39.9989 28.139 45.0204 25.7547 49.5892L25.1652 50.7188C28.355 42.2325 24.743 36.7645 19.5664 31.9905C19.7418 30.8245 19.9484 29.6581 20.1881 28.4914Z" fill="#A6601B"/>
<path fill-rule="evenodd" clip-rule="evenodd" d="M69.8926 61.4961C66.8195 55.8087 64.0326 50.1315 63.0039 42.8649C63.8345 36.8863 66.4022 30.9893 69.2772 26.2263C71.1138 28.9801 72.9506 31.7342 74.7874 34.488C78.0837 39.4307 78.4009 45.1929 75.6649 50.4356C73.7408 54.1226 71.8168 57.8092 69.8926 61.4961Z" fill="#DE9145"/>
<path fill-rule="evenodd" clip-rule="evenodd" d="M65.3086 34.2626C66.4258 31.3813 67.8125 28.6555 69.2798 26.2249C71.1164 28.9787 72.9532 31.7328 74.79 34.4866C78.0863 39.4293 78.4035 45.1915 75.6675 50.4342L74.9908 51.7305C78.6516 41.9923 74.5065 35.7175 68.566 30.2393C67.0835 31.1615 66.2067 32.7229 65.3086 34.2626Z" fill="#C97F34"/>
<path fill-rule="evenodd" clip-rule="evenodd" d="M69.8925 61.4961C66.8195 55.8087 64.0325 50.1315 63.0039 42.8649C63.2056 41.4119 63.5103 39.9638 63.8968 38.5359C64.1085 47.1932 66.8563 54.4255 69.8925 61.4961Z" fill="#EDAB68"/>
<path fill-rule="evenodd" clip-rule="evenodd" d="M69.278 26.2263C71.1146 28.9801 72.9514 31.7342 74.7882 34.488C78.0845 39.4307 78.4017 45.1929 75.6657 50.4356C73.7416 54.1226 71.8176 57.8092 69.8934 61.4961C67.3243 49.7392 66.8638 37.9831 69.278 26.2263Z" fill="#BD732A"/>
<path fill-rule="evenodd" clip-rule="evenodd" d="M69.2798 26.2249C71.1164 28.9787 72.9532 31.7328 74.79 34.4866C78.0863 39.4293 78.4035 45.1915 75.6675 50.4342L74.9908 51.7305C78.6513 41.9926 74.5065 35.7175 68.5664 30.2396C68.7679 28.9016 69.0048 27.5633 69.2798 26.2249Z" fill="#A6601B"/>
<path fill-rule="evenodd" clip-rule="evenodd" d="M85.4919 58.5938C83.8122 53.6371 82.2889 48.6898 81.7266 42.3573C82.1807 37.1473 83.5842 32.0081 85.1556 27.8574C86.1593 30.2571 87.1635 32.6573 88.1672 35.057C89.969 39.3647 90.1424 44.3861 88.647 48.9551C87.5953 52.1677 86.5435 55.3805 85.4919 58.5938Z" fill="#DE9145"/>
<path fill-rule="evenodd" clip-rule="evenodd" d="M82.9844 34.863C83.5949 32.3523 84.3529 29.9769 85.1549 27.8587C86.1586 30.2584 87.1628 32.6587 88.1665 35.0584C89.9683 39.3661 90.1417 44.3874 88.6463 48.9563L88.2766 50.0859C90.2772 41.5993 88.0116 36.1312 84.7647 31.3571C83.9542 32.1605 83.4752 33.5218 82.9844 34.863Z" fill="#C97F34"/>
<path fill-rule="evenodd" clip-rule="evenodd" d="M85.4919 58.5938C83.8122 53.6371 82.2889 48.6898 81.7266 42.3573C81.8368 41.0911 82.0033 39.8291 82.2147 38.5847C82.3305 46.1294 83.8323 52.432 85.4919 58.5938Z" fill="#EDAB68"/>
<path fill-rule="evenodd" clip-rule="evenodd" d="M85.1542 27.8574C86.1579 30.2571 87.1621 32.6573 88.1658 35.057C89.9676 39.3647 90.141 44.3861 88.6456 48.9551C87.5939 52.1677 86.5421 55.3805 85.4905 58.5938C84.0863 48.3481 83.8346 38.1029 85.1542 27.8574Z" fill="#BD732A"/>
<path fill-rule="evenodd" clip-rule="evenodd" d="M85.1557 27.8587C86.1594 30.2584 87.1636 32.6587 88.1673 35.0584C89.9691 39.3661 90.1425 44.3874 88.6471 48.9563L88.2774 50.0859C90.278 41.5996 88.0125 36.1315 84.7656 31.3575C84.8757 30.1911 85.0053 29.0248 85.1557 27.8587Z" fill="#A6601B"/>
<path fill-rule="evenodd" clip-rule="evenodd" d="M40.8861 80.9531C38.5577 75.9759 36.4782 71.007 36.0312 64.6471C37.1267 59.4147 39.733 54.2537 42.5367 50.0847C43.9685 52.4951 45.4003 54.9054 46.8319 57.3156C49.401 61.6415 49.3205 66.6848 46.6082 71.2732C44.7008 74.5 42.7934 77.7267 40.8861 80.9531Z" fill="#DE9145"/>
<path fill-rule="evenodd" clip-rule="evenodd" d="M38.5742 57.118C39.7274 54.5964 41.1066 52.2103 42.5373 50.0831C43.9691 52.4934 45.4009 54.9038 46.8325 57.314C49.4016 61.6399 49.3211 66.6832 46.6088 71.2715L45.9381 72.4062C49.7359 63.8827 46.5087 58.3916 41.6655 53.5969C40.3149 54.4036 39.4533 55.7704 38.5742 57.118Z" fill="#C97F34"/>
<path fill-rule="evenodd" clip-rule="evenodd" d="M40.8861 80.9531C38.5578 75.9759 36.4782 71.007 36.0312 64.6471C36.2975 63.3755 36.6532 62.1082 37.079 60.8581C36.7268 68.4353 38.6755 74.7653 40.8861 80.9531Z" fill="#EDAB68"/>
<path fill-rule="evenodd" clip-rule="evenodd" d="M42.5371 50.0847C43.9689 52.4951 45.4007 54.9054 46.8323 57.3156C49.4014 61.6415 49.3208 66.6848 46.6085 71.2732C44.7011 74.5 42.7938 77.7267 40.8865 80.9531C39.3744 70.6636 39.7018 60.3744 42.5371 50.0847Z" fill="#BD732A"/>
<path fill-rule="evenodd" clip-rule="evenodd" d="M42.5356 50.0831C43.9674 52.4934 45.3992 54.9038 46.8308 57.314C49.3999 61.6399 49.3194 66.6832 46.6071 71.2715L45.9364 72.4062C49.734 63.8834 46.507 58.3915 41.6641 53.5972C41.923 52.4258 42.2127 51.2543 42.5356 50.0831Z" fill="#A6601B"/>
<path fill-rule="evenodd" clip-rule="evenodd" d="M26.4445 74.2461C24.6219 70.3495 22.9942 66.4596 22.6445 61.4817C23.502 57.3859 25.542 53.3456 27.7367 50.0823C28.8577 51.9689 29.9784 53.8559 31.0989 55.7429C33.1103 59.129 33.047 63.0766 30.9239 66.6684C29.4309 69.1944 27.9377 71.7203 26.4445 74.2461Z" fill="#DE9145"/>
<path fill-rule="evenodd" clip-rule="evenodd" d="M24.6328 55.591C25.5358 53.617 26.6153 51.7492 27.7352 50.0841C28.8562 51.9708 29.9769 53.8578 31.0974 55.7447C33.1088 59.1309 33.0455 63.0785 30.9224 66.6703L30.3974 67.5586C33.3703 60.8867 30.8441 56.5878 27.0528 52.8348C25.9957 53.4662 25.3211 54.5361 24.6328 55.591Z" fill="#C97F34"/>
<path fill-rule="evenodd" clip-rule="evenodd" d="M26.4445 74.2461C24.6219 70.3495 22.9942 66.4596 22.6445 61.4817C22.8529 60.4861 23.1312 59.4941 23.4647 58.5157C23.1887 64.4469 24.7142 69.4017 26.4445 74.2461Z" fill="#EDAB68"/>
<path fill-rule="evenodd" clip-rule="evenodd" d="M27.7352 50.0823C28.8562 51.9689 29.9769 53.8559 31.0974 55.7429C33.1088 59.129 33.0455 63.0766 30.9224 66.6684C29.4294 69.1944 27.9362 71.7203 26.443 74.2461C25.2595 66.1912 25.5157 58.1372 27.7352 50.0823Z" fill="#BD732A"/>
<path fill-rule="evenodd" clip-rule="evenodd" d="M27.7367 50.0841C28.8577 51.9708 29.9784 53.8578 31.0989 55.7447C33.1103 59.1309 33.047 63.0785 30.9239 66.6703L30.3989 67.5586C33.3716 60.8867 30.8456 56.588 27.0547 52.835C27.2573 51.9179 27.4842 51.0009 27.7367 50.0841Z" fill="#A6601B"/>
<path fill-rule="evenodd" clip-rule="evenodd" d="M10.7121 67.0273C9.57408 64.0189 8.58605 61.0154 8.66017 57.1711C9.60558 54.0083 11.4601 50.8887 13.3806 48.369C14.1155 49.8258 14.8505 51.2828 15.5852 52.7398C16.9045 55.3544 16.5825 58.4029 14.6947 61.1763C13.3673 63.1269 12.0397 65.0772 10.7121 67.0273Z" fill="#DE9145"/>
<path fill-rule="evenodd" clip-rule="evenodd" d="M10.6055 52.6221C11.4391 51.0979 12.4018 49.656 13.3818 48.37C14.1167 49.8268 14.8517 51.2838 15.5864 52.7408C16.9057 55.3554 16.5837 58.4039 14.6959 61.1773L14.2292 61.8633C16.9861 56.7112 15.3324 53.3918 12.6647 50.4936C11.8045 50.9815 11.2098 51.8077 10.6055 52.6221Z" fill="#C97F34"/>
<path fill-rule="evenodd" clip-rule="evenodd" d="M10.716 67.0273C9.57798 64.0189 8.58996 61.0154 8.66408 57.1711C8.89382 56.4026 9.17745 55.6365 9.50242 54.8809C8.87937 59.4608 9.71482 63.2873 10.716 67.0273Z" fill="#EDAB68"/>
<path fill-rule="evenodd" clip-rule="evenodd" d="M13.3818 48.369C14.1167 49.8258 14.8517 51.2828 15.5864 52.7398C16.9057 55.3544 16.5837 58.4029 14.6959 61.1763C13.3685 63.1269 12.0409 65.0772 10.7133 67.0273C10.3563 60.8078 11.1109 54.5883 13.3818 48.369Z" fill="#BD732A"/>
<path fill-rule="evenodd" clip-rule="evenodd" d="M13.3809 48.37C14.1158 49.8268 14.8508 51.2838 15.5855 52.7408C16.9048 55.3554 16.5828 58.4039 14.695 61.1773L14.2283 61.8633C16.9851 56.7115 15.3317 53.392 12.6641 50.4939C12.8838 49.7859 13.1224 49.078 13.3809 48.37Z" fill="#A6601B"/>
<path fill-rule="evenodd" clip-rule="evenodd" d="M61.1753 76.6445C59.2043 72.4318 57.4445 68.2261 57.0664 62.8431C57.9936 58.4146 60.1991 54.0463 62.5724 50.5176C63.7841 52.5578 64.996 54.598 66.2075 56.638C68.3824 60.2993 68.3139 64.5677 66.0184 68.4513C64.4041 71.1824 62.7897 73.9135 61.1753 76.6445Z" fill="#DE9145"/>
<path fill-rule="evenodd" clip-rule="evenodd" d="M59.2188 56.4742C60.1949 54.3398 61.3622 52.3204 62.5732 50.5198C63.7849 52.56 64.9969 54.6002 66.2084 56.6402C68.3833 60.3016 68.3147 64.5699 66.0192 68.4535L65.4516 69.4141C68.6661 62.1999 65.9345 57.5518 61.8354 53.4938C60.6922 54.1767 59.9628 55.3339 59.2188 56.4742Z" fill="#C97F34"/>
<path fill-rule="evenodd" clip-rule="evenodd" d="M61.1792 76.6445C59.2082 72.4318 57.4484 68.2261 57.0703 62.8431C57.2954 61.767 57.5965 60.6944 57.957 59.6362C57.6586 66.0493 59.3083 71.4069 61.1792 76.6445Z" fill="#EDAB68"/>
<path fill-rule="evenodd" clip-rule="evenodd" d="M62.5726 50.5176C63.7843 52.5578 64.9962 54.598 66.2077 56.638C68.3826 60.2993 68.3141 64.5677 66.0186 68.4513C64.4043 71.1824 62.7899 73.9135 61.1755 76.6445C59.8956 67.9354 60.1727 59.2267 62.5726 50.5176Z" fill="#BD732A"/>
<path fill-rule="evenodd" clip-rule="evenodd" d="M62.5735 50.5198C63.7852 52.56 64.9971 54.6002 66.2086 56.6402C68.3835 60.3016 68.315 64.5699 66.0195 68.4535L65.4518 69.4141C68.666 62.1999 65.9348 57.5523 61.8359 53.494C62.0549 52.5025 62.3001 51.511 62.5735 50.5198Z" fill="#A6601B"/>
<path fill-rule="evenodd" clip-rule="evenodd" d="M77.4104 77.2617C75.2615 72.843 73.3422 68.4313 72.9297 62.7852C73.9408 58.14 76.346 53.5579 78.9338 49.8565C80.2551 51.9964 81.5764 54.1364 82.8977 56.2764C85.2692 60.1169 85.1945 64.594 82.6913 68.6677C80.9309 71.5325 79.1707 74.3972 77.4104 77.2617Z" fill="#DE9145"/>
<path fill-rule="evenodd" clip-rule="evenodd" d="M75.2773 56.099C76.3417 53.8604 77.6143 51.7419 78.9349 49.8533C80.2562 51.9932 81.5775 54.1332 82.8988 56.2732C85.2703 60.1136 85.1956 64.5908 82.6924 68.6645L82.0735 69.6719C85.5785 62.1052 82.5999 57.2296 78.1305 52.9728C76.8838 53.6894 76.0884 54.9029 75.2773 56.099Z" fill="#C97F34"/>
<path fill-rule="evenodd" clip-rule="evenodd" d="M77.4104 77.2617C75.2615 72.843 73.3422 68.4313 72.9297 62.7852C73.1756 61.6562 73.5039 60.5311 73.8967 59.4216C73.5716 66.1484 75.3701 71.7683 77.4104 77.2617Z" fill="#EDAB68"/>
<path fill-rule="evenodd" clip-rule="evenodd" d="M78.935 49.8565C80.2563 51.9964 81.5776 54.1364 82.8989 56.2764C85.2704 60.1169 85.1957 64.594 82.6925 68.6677C80.9321 71.5325 79.1719 74.3972 77.4116 77.2617C76.0159 68.1267 76.3182 58.9918 78.935 49.8565Z" fill="#BD732A"/>
<path fill-rule="evenodd" clip-rule="evenodd" d="M78.933 49.8533C80.2543 51.9932 81.5756 54.1332 82.8969 56.2732C85.2684 60.1136 85.1937 64.5908 82.6905 68.6645L82.0716 69.6719C85.5766 62.1052 82.5983 57.2297 78.1289 52.9731C78.3676 51.9334 78.6353 50.8936 78.933 49.8533Z" fill="#A6601B"/>
<path fill-rule="evenodd" clip-rule="evenodd" d="M45.8542 86.1606C45.4761 84.3151 45.2352 82.3658 45.1875 80.2583C46.483 75.2199 49.23 70.2501 52.1215 66.2355C53.3895 68.5567 54.6571 70.8779 55.925 73.1986C58.2002 77.3643 57.8904 82.2203 55.0677 86.6387C54.9209 86.8683 54.7743 87.0979 54.6275 87.3275C53.5636 88.9933 51.6634 89.8694 49.6858 89.6062C47.708 89.3432 46.2349 88.0182 45.8542 86.1606Z" fill="#DE9145"/>
<path fill-rule="evenodd" clip-rule="evenodd" d="M52.1521 66.2943L55.9235 73.1986C58.1989 77.3643 57.8891 82.2203 55.0665 86.6387C54.9197 86.8683 54.773 87.0979 54.6264 87.3275C53.5623 88.9933 51.6621 89.8694 49.6846 89.6062C49.34 89.5604 49.0107 89.4822 48.6997 89.3745C48.6177 81.6809 49.672 73.9876 52.1521 66.2943Z" fill="#BD732A"/>
<path fill-rule="evenodd" clip-rule="evenodd" d="M45.8542 86.1616C45.476 84.3161 45.2351 82.3668 45.1875 80.2593C45.4929 79.0714 45.8791 77.8872 46.3287 76.7189C45.9631 80.9397 46.3424 84.767 47.0849 88.4023C46.468 87.8157 46.0362 87.0494 45.8542 86.1616Z" fill="#EDAB68"/>
<path fill-rule="evenodd" clip-rule="evenodd" d="M47.9805 73.0089C49.2072 70.5805 50.6449 68.2831 52.1204 66.2347C53.3884 68.5559 54.656 70.8771 55.9239 73.1978C58.1991 77.3635 57.8893 82.2195 55.0666 86.6379L54.3687 87.7305C58.4174 79.5234 55.5624 74.2351 51.1194 69.6184C49.7818 70.3952 48.8892 71.7116 47.9805 73.0089Z" fill="#C97F34"/>
<path fill-rule="evenodd" clip-rule="evenodd" d="M52.1217 66.2347C53.3897 68.5559 54.6573 70.8771 55.9252 73.1978C58.2004 77.3635 57.8906 82.2195 55.0679 86.6379L54.37 87.7305C58.4187 79.5234 55.564 74.2353 51.1211 69.6184C51.424 68.4907 51.7572 67.3626 52.1217 66.2347Z" fill="#A6601B"/>
<path fill-rule="evenodd" clip-rule="evenodd" d="M63.106 82.202C62.9897 80.567 63.0015 78.8619 63.1957 77.0478C64.8597 72.9045 67.7512 69.0195 70.6596 65.9733C71.48 68.1383 72.3007 70.3035 73.1212 72.4684C74.594 76.3537 73.7893 80.4766 70.8945 83.8784C70.7441 84.0551 70.5937 84.232 70.4433 84.4088C69.3522 85.6913 67.6371 86.1813 65.9834 85.6838C64.3294 85.1865 63.2231 83.8473 63.106 82.202Z" fill="#DE9145"/>
<path fill-rule="evenodd" clip-rule="evenodd" d="M70.6814 66.0284L73.1222 72.4684C74.595 76.3537 73.7903 80.4766 70.8955 83.8784C70.7451 84.0551 70.5947 84.232 70.4443 84.4088C69.3532 85.6913 67.6381 86.1813 65.9844 85.6838C65.6963 85.5972 65.4245 85.4848 65.1719 85.3498C65.959 78.74 67.7132 72.2862 70.6814 66.0284Z" fill="#BD732A"/>
<path fill-rule="evenodd" clip-rule="evenodd" d="M63.106 82.2021C62.9897 80.5671 63.0015 78.8619 63.1957 77.0479C63.5882 76.0709 64.0487 75.1086 64.5616 74.168C63.7802 77.7381 63.6766 81.073 63.9039 84.293C63.4441 83.7051 63.1619 82.9885 63.106 82.2021Z" fill="#EDAB68"/>
<path fill-rule="evenodd" clip-rule="evenodd" d="M66.3828 71.2141C67.6974 69.2998 69.177 67.5272 70.6611 65.9728C71.4815 68.1378 72.3022 70.303 73.1227 72.4679C74.5955 76.3533 73.7908 80.4761 70.896 83.878L70.1805 84.7188C74.5408 78.2362 72.6996 73.3076 69.4322 68.7373C68.207 69.2199 67.3006 70.2261 66.3828 71.2141Z" fill="#C97F34"/>
<path fill-rule="evenodd" clip-rule="evenodd" d="M70.6624 65.9728C71.4828 68.1378 72.3035 70.303 73.124 72.4679C74.5968 76.3533 73.7921 80.4761 70.8973 83.878L70.1818 84.7188C74.542 78.2362 72.7012 73.3081 69.4336 68.7376C69.8173 67.8119 70.2262 66.8902 70.6624 65.9728Z" fill="#A6601B"/>
<path fill-rule="evenodd" clip-rule="evenodd" d="M27.7282 81.4323C27.5622 79.8536 27.5048 78.2067 27.6022 76.4544C28.8866 72.4524 31.2505 68.6996 33.6621 65.7579C34.4624 67.849 35.2626 69.9399 36.063 72.0311C37.4994 75.7843 36.9622 79.7662 34.5764 83.0518C34.4526 83.2228 34.3285 83.3935 34.2047 83.5645C33.3052 84.8027 31.8315 85.2764 30.3717 84.7957C28.9118 84.3154 27.8954 83.022 27.7282 81.4323Z" fill="#DE9145"/>
<path fill-rule="evenodd" clip-rule="evenodd" d="M33.6838 65.8108L36.0643 72.0311C37.5007 75.7843 36.9635 79.7662 34.5777 83.0518C34.4539 83.2228 34.3298 83.3935 34.206 83.5645C33.3065 84.8027 31.8328 85.2764 30.3729 84.7957C30.1186 84.712 29.8777 84.6037 29.6523 84.4733C30.0757 78.0887 31.3475 71.8552 33.6838 65.8108Z" fill="#BD732A"/>
<path fill-rule="evenodd" clip-rule="evenodd" d="M27.7321 81.4332C27.566 79.8545 27.5087 78.2076 27.6061 76.4553C27.9089 75.5119 28.2717 74.5821 28.6811 73.6737C28.1421 77.1221 28.1842 80.3431 28.5097 83.4531C28.0861 82.8853 27.8118 82.1934 27.7321 81.4332Z" fill="#EDAB68"/>
<path fill-rule="evenodd" clip-rule="evenodd" d="M30.1484 70.8192C31.2171 68.9704 32.4352 67.2582 33.6658 65.757C34.4661 67.8481 35.2665 69.939 36.0667 72.0302C37.5031 75.7834 36.9659 79.7653 34.5801 83.0509L33.9903 83.8633C37.5301 77.6016 35.7316 72.8418 32.7054 68.4269C31.6578 68.8929 30.9085 69.8652 30.1484 70.8192Z" fill="#C97F34"/>
<path fill-rule="evenodd" clip-rule="evenodd" d="M33.6634 65.757C34.4637 67.8481 35.2641 69.939 36.0643 72.0302C37.5007 75.7834 36.9635 79.7653 34.5777 83.0509L33.9879 83.8633C37.5277 77.6016 35.7293 72.8418 32.7031 68.4272C33.0005 67.5331 33.3201 66.6427 33.6634 65.757Z" fill="#A6601B"/>
<path fill-rule="evenodd" clip-rule="evenodd" d="M14.5039 72.53C14.4189 71.3349 14.4274 70.0887 14.5696 68.7625C15.7858 65.7336 17.8993 62.8939 20.0252 60.6675C20.6251 62.2502 21.2249 63.8328 21.8247 65.4152C22.901 68.2554 22.3131 71.2688 20.1971 73.7553C20.0872 73.8847 19.9772 74.0139 19.8673 74.1431C19.0697 75.0803 17.816 75.4387 16.6071 75.0752C15.3983 74.7116 14.5895 73.7329 14.5039 72.53Z" fill="#DE9145"/>
<path fill-rule="evenodd" clip-rule="evenodd" d="M20.0387 60.7076L21.823 65.4152C22.8993 68.2554 22.3114 71.2688 20.1954 73.7553C20.0855 73.8847 19.9755 74.0139 19.8656 74.1431C19.068 75.0803 17.8143 75.4387 16.6054 75.0752C16.3949 75.0119 16.1962 74.9299 16.0117 74.8312C16.5867 69.9991 17.8693 65.2819 20.0387 60.7076Z" fill="#BD732A"/>
<path fill-rule="evenodd" clip-rule="evenodd" d="M14.5039 72.5301C14.4189 71.335 14.4274 70.0888 14.5696 68.7626C14.8563 68.0486 15.1929 67.3449 15.5679 66.6577C14.9969 69.2672 14.921 71.7047 15.0873 74.0586C14.7511 73.6286 14.5448 73.1052 14.5039 72.5301Z" fill="#EDAB68"/>
<path fill-rule="evenodd" clip-rule="evenodd" d="M16.8984 64.4993C17.8592 63.1002 18.9405 61.8043 20.0254 60.6682C20.6253 62.2509 21.2251 63.8334 21.8249 65.4158C22.9012 68.256 22.3133 71.2695 20.1973 73.7559L19.6741 74.3711C22.8613 69.6322 21.5155 66.0296 19.1271 62.6889C18.2317 63.0416 17.5692 63.7771 16.8984 64.4993Z" fill="#C97F34"/>
<path fill-rule="evenodd" clip-rule="evenodd" d="M20.0232 60.6682C20.6231 62.2509 21.2229 63.8334 21.8227 65.4158C22.899 68.256 22.3111 71.2695 20.1951 73.7559L19.6719 74.3711C22.8591 69.6322 21.5135 66.0299 19.125 62.6893C19.4056 62.0124 19.7044 61.3388 20.0232 60.6682Z" fill="#A6601B"/>
<path fill-rule="evenodd" clip-rule="evenodd" d="M6.42147 55.6367C3.74331 51.9841 1.31454 48.3383 0.417969 43.6718C1.14187 39.8327 3.37948 36.046 5.88483 32.9872C7.48552 34.7553 9.0862 36.5241 10.6868 38.2927C13.5596 41.4667 13.8358 45.1669 11.4516 48.534C9.77485 50.9013 8.09802 53.2688 6.42147 55.6367Z" fill="#DE9145"/>
<path fill-rule="evenodd" clip-rule="evenodd" d="M2.42188 38.1496C3.39517 36.2995 4.60386 34.5493 5.88232 32.9884C7.48301 34.7565 9.08369 36.5253 10.6842 38.2939C13.557 41.4679 13.8332 45.1681 11.449 48.5352L10.8594 49.3672C14.0494 43.1138 10.4372 39.0841 5.26043 35.5663C3.96838 36.1582 3.20445 37.1609 2.42188 38.1496Z" fill="#C97F34"/>
<path fill-rule="evenodd" clip-rule="evenodd" d="M6.41757 55.6367C3.73941 51.9841 1.31064 48.3383 0.414063 43.6718C0.590054 42.739 0.85549 41.8089 1.19244 40.8919C1.37667 46.4516 3.77148 51.0959 6.41757 55.6367Z" fill="#EDAB68"/>
<path fill-rule="evenodd" clip-rule="evenodd" d="M5.88294 32.9872C7.48363 34.7553 9.08431 36.5241 10.6849 38.2927C13.5577 41.4667 13.8339 45.1669 11.4497 48.534C9.77296 50.9013 8.09613 53.2688 6.41958 55.6367C4.18068 48.0865 3.77928 40.5368 5.88294 32.9872Z" fill="#BD732A"/>
<path fill-rule="evenodd" clip-rule="evenodd" d="M5.88332 32.9884C7.48401 34.7565 9.08469 36.5253 10.6852 38.2939C13.558 41.4679 13.8342 45.1681 11.45 48.5352L10.8604 49.3672C14.0503 43.1138 10.4384 39.0845 5.26172 35.5667C5.43727 34.707 5.6439 33.8474 5.88332 32.9884Z" fill="#A6601B"/>
<path fill-rule="evenodd" clip-rule="evenodd" d="M42.9706 37.2109C39.951 31.7811 37.1814 26.3603 35.8516 19.4226C36.2204 13.7142 38.1097 8.08444 40.3345 3.53614C42.1009 6.16554 43.8675 8.79504 45.6336 11.4245C48.8039 16.1438 49.4236 21.6453 47.3484 26.6509C45.8894 30.1708 44.43 33.691 42.9706 37.2109Z" fill="#DE9145"/>
<path fill-rule="evenodd" clip-rule="evenodd" d="M37.3477 11.2123C38.1509 8.46153 39.1988 5.85893 40.3339 3.53793C42.1003 6.16743 43.8669 8.79693 45.633 11.4264C48.8033 16.1457 49.423 21.6472 47.3478 26.6527L46.8346 27.8906C49.4487 18.5926 45.459 12.6016 39.9501 7.37103C38.7117 8.25113 38.0397 9.74263 37.3477 11.2123Z" fill="#C97F34"/>
<path fill-rule="evenodd" clip-rule="evenodd" d="M42.9706 37.2109C39.951 31.7811 37.1813 26.3603 35.8516 19.4226C35.941 18.0354 36.1208 16.6529 36.3729 15.2891C37.073 23.5552 39.9007 30.4605 42.9706 37.2109Z" fill="#EDAB68"/>
<path fill-rule="evenodd" clip-rule="evenodd" d="M40.3338 3.53614C42.1002 6.16554 43.8668 8.79504 45.6329 11.4245C48.8032 16.1438 49.4229 21.6453 47.3477 26.6509C45.8887 30.1708 44.4293 33.691 42.9699 37.2109C40.0289 25.986 38.9273 14.761 40.3338 3.53614Z" fill="#BD732A"/>
<path fill-rule="evenodd" clip-rule="evenodd" d="M40.3325 3.53793C42.0989 6.16743 43.8655 8.79693 45.6316 11.4264C48.8019 16.1457 49.4216 21.6472 47.3464 26.6527L46.8332 27.8906C49.4473 18.5926 45.4579 12.6016 39.9492 7.37143C40.0452 6.09363 40.1724 4.81553 40.3325 3.53793Z" fill="#A6601B"/>
<path fill-rule="evenodd" clip-rule="evenodd" d="M27.3382 36.9727C25.021 33.0763 22.8996 29.1865 21.918 24.2084C22.2557 20.1123 23.783 16.0722 25.5636 12.8088C26.9237 14.6954 28.2839 16.5824 29.644 18.4691C32.0852 21.8556 32.523 25.8034 30.8558 29.395C29.6833 31.9206 28.5108 34.4465 27.3382 36.9727Z" fill="#DE9145"/>
<path fill-rule="evenodd" clip-rule="evenodd" d="M23.1602 18.3173C23.8124 16.3435 24.655 14.4761 25.5637 12.8107C26.9238 14.6973 28.284 16.5843 29.6441 18.471C32.0853 21.8574 32.5231 25.8052 30.8559 29.3968L30.4435 30.2852C32.5697 23.6133 29.4976 19.3147 25.2303 15.5615C24.2531 16.193 23.7145 17.2626 23.1602 18.3173Z" fill="#C97F34"/>
<path fill-rule="evenodd" clip-rule="evenodd" d="M27.3343 36.9727C25.0171 33.0763 22.8957 29.1865 21.9141 24.2084C21.9961 23.2127 22.1487 22.2209 22.3577 21.2425C22.8348 27.1736 24.9891 32.1287 27.3343 36.9727Z" fill="#EDAB68"/>
<path fill-rule="evenodd" clip-rule="evenodd" d="M25.5634 12.8088C26.9235 14.6954 28.2837 16.5824 29.6438 18.4691C32.085 21.8556 32.5228 25.8034 30.8556 29.395C29.6831 31.9206 28.5106 34.4465 27.338 36.9727C25.1321 28.9177 24.3661 20.8634 25.5634 12.8088Z" fill="#BD732A"/>
<path fill-rule="evenodd" clip-rule="evenodd" d="M25.5636 12.8107C26.9237 14.6973 28.2839 16.5843 29.644 18.471C32.0852 21.8574 32.523 25.8052 30.8558 29.3968L30.4434 30.2852C32.5696 23.6134 29.4978 19.3147 25.2305 15.5615C25.3166 14.6447 25.4272 13.7277 25.5636 12.8107Z" fill="#A6601B"/>
<path fill-rule="evenodd" clip-rule="evenodd" d="M13.3193 39.4141C11.3461 36.4056 9.52434 33.4018 8.53125 29.5577C8.59844 26.3952 9.58706 23.2756 10.8079 20.7554C11.9473 22.2124 13.0868 23.6694 14.2261 25.1264C16.2711 27.7412 16.7955 30.7893 15.6777 33.5627C14.8916 35.5131 14.1055 37.4636 13.3193 39.4141Z" fill="#DE9145"/>
<path fill-rule="evenodd" clip-rule="evenodd" d="M9.21094 25.009C9.62116 23.4843 10.1836 22.0423 10.8066 20.7565C11.946 22.2135 13.0855 23.6705 14.2248 25.1275C16.2698 27.7423 16.7942 30.7904 15.6764 33.5638L15.4 34.25C16.7267 29.0982 14.1517 25.7784 10.6793 22.8805C9.9545 23.3678 9.58893 24.1944 9.21094 25.009Z" fill="#C97F34"/>
<path fill-rule="evenodd" clip-rule="evenodd" d="M13.3193 39.4141C11.3461 36.4056 9.52435 33.4018 8.53125 29.5577C8.54743 28.7893 8.61853 28.0232 8.73384 27.2674C9.38217 31.8474 11.2798 35.6737 13.3193 39.4141Z" fill="#EDAB68"/>
<path fill-rule="evenodd" clip-rule="evenodd" d="M10.8091 20.7554C11.9485 22.2124 13.088 23.6694 14.2273 25.1264C16.2723 27.7412 16.7967 30.7893 15.6789 33.5627C14.8928 35.5131 14.1067 37.4636 13.3205 39.4141C11.2367 33.1944 10.265 26.9751 10.8091 20.7554Z" fill="#BD732A"/>
<path fill-rule="evenodd" clip-rule="evenodd" d="M10.807 20.7565C11.9464 22.2135 13.0859 23.6705 14.2252 25.1275C16.2702 27.7423 16.7946 30.7904 15.6768 33.5638L15.4004 34.25C16.7271 29.0982 14.1521 25.7787 10.6797 22.8805C10.7029 22.1728 10.7451 21.4644 10.807 20.7565Z" fill="#A6601B"/>
<path fill-rule="evenodd" clip-rule="evenodd" d="M62.5907 36.8789C59.8874 31.71 57.3963 26.5504 56.082 19.9465C56.2392 14.5129 57.6858 9.15391 59.4452 4.82451C61.0118 7.32721 62.5783 9.83041 64.1447 12.3331C66.9559 16.8255 67.6297 22.0619 66.0092 26.827C64.8698 30.1775 63.7302 33.5283 62.5907 36.8789Z" fill="#DE9145"/>
<path fill-rule="evenodd" clip-rule="evenodd" d="M57.125 12.1325C57.73 9.51401 58.5464 7.03651 59.4441 4.82741C61.0107 7.33011 62.5772 9.83331 64.1436 12.336C66.9548 16.8284 67.6286 22.0648 66.0081 26.8299L65.6076 28.0078C67.5678 19.1573 64.028 13.4547 59.2234 8.47601C58.1991 9.31381 57.6706 10.7332 57.125 12.1325Z" fill="#C97F34"/>
<path fill-rule="evenodd" clip-rule="evenodd" d="M62.5946 36.8789C59.8912 31.71 57.4002 26.5504 56.0859 19.9465C56.1242 18.6261 56.2388 17.3097 56.4153 16.012C57.232 23.88 59.8129 30.4531 62.5946 36.8789Z" fill="#EDAB68"/>
<path fill-rule="evenodd" clip-rule="evenodd" d="M59.4466 4.82451C61.0132 7.32721 62.5797 9.83041 64.1461 12.3331C66.9573 16.8255 67.6311 22.0619 66.0106 26.827C64.8712 30.1775 63.7316 33.5283 62.5921 36.8789C59.798 26.1938 58.5609 15.5094 59.4466 4.82451Z" fill="#BD732A"/>
<path fill-rule="evenodd" clip-rule="evenodd" d="M59.4469 4.82741C61.0135 7.33011 62.58 9.83331 64.1464 12.336C66.9576 16.8284 67.6314 22.0648 66.0109 26.8299L65.6104 28.0078C67.5706 19.1576 64.0311 13.455 59.2266 8.47641C59.2733 7.26021 59.3462 6.04401 59.4469 4.82741Z" fill="#A6601B"/>
<path fill-rule="evenodd" clip-rule="evenodd" d="M78.3449 37.8516C75.343 33.2575 72.5723 28.6716 71.0703 22.802C71.1847 17.9734 72.7058 13.2098 74.579 9.36246C76.3133 11.5869 78.0475 13.8114 79.7817 16.0358C82.8945 20.0284 83.684 24.6828 81.9671 28.9176C80.7598 31.8954 79.5524 34.8736 78.3449 37.8516Z" fill="#DE9145"/>
<path fill-rule="evenodd" clip-rule="evenodd" d="M72.125 15.8548C72.7573 13.5273 73.6214 11.3257 74.5774 9.36274C76.3117 11.587 78.0459 13.8115 79.7801 16.036C82.8929 20.0285 83.6824 24.683 81.9655 28.9177L81.5409 29.9648C83.5856 22.0986 79.6661 17.0301 74.3748 12.6053C73.2664 13.3497 72.7055 14.6113 72.125 15.8548Z" fill="#C97F34"/>
<path fill-rule="evenodd" clip-rule="evenodd" d="M78.345 37.8516C75.3431 33.2575 72.5723 28.6716 71.0703 22.802C71.0982 21.6284 71.2093 20.4591 71.3881 19.3053C72.3612 26.2983 75.2444 32.1402 78.345 37.8516Z" fill="#EDAB68"/>
<path fill-rule="evenodd" clip-rule="evenodd" d="M74.5762 9.36246C76.3105 11.5869 78.0447 13.8114 79.7789 16.0358C82.8917 20.0284 83.6812 24.6828 81.9643 28.9176C80.757 31.8954 79.5496 34.8736 78.3421 37.8516C75.1835 28.3551 73.7222 18.8589 74.5762 9.36246Z" fill="#BD732A"/>
<path fill-rule="evenodd" clip-rule="evenodd" d="M74.5773 9.36274C76.3116 11.587 78.0458 13.8115 79.78 16.036C82.8928 20.0285 83.6823 24.683 81.9654 28.9177L81.5408 29.9648C83.5855 22.0986 79.666 17.0304 74.375 12.6054C74.4133 11.5242 74.4799 10.4432 74.5773 9.36274Z" fill="#A6601B"/>
<path fill-rule="evenodd" clip-rule="evenodd" d="M14.3114 15.7808C13.9817 20.4155 16.0717 23.3145 19.4787 26.8828C20.0401 25.4019 20.6016 23.9207 21.1629 22.4398C22.1703 19.7813 21.62 16.9612 19.6397 14.6339C19.5368 14.5131 19.4339 14.3917 19.3309 14.2712C18.5846 13.3937 17.4113 13.0583 16.2798 13.3986C15.1483 13.7391 14.3915 14.6551 14.3114 15.7808Z" fill="#DE9145"/>
<path fill-rule="evenodd" clip-rule="evenodd" d="M14.3114 15.7808C13.9817 20.4155 16.0718 23.3145 19.4788 26.8828C16.8587 23.7857 14.9875 20.1852 14.3114 15.7808Z" fill="#EDAB68"/>
<path fill-rule="evenodd" clip-rule="evenodd" d="M19.4916 26.8438L21.1615 22.4383C22.1689 19.7798 21.6186 16.9597 19.6383 14.6324C19.5354 14.5116 19.4325 14.3901 19.3295 14.2697C18.5832 13.3922 17.4099 13.0569 16.2784 13.3972C16.0813 13.4566 15.8955 13.5334 15.7227 13.6259C16.2612 18.1476 17.4612 22.5627 19.4916 26.8438Z" fill="#BD732A"/>
<path fill-rule="evenodd" clip-rule="evenodd" d="M21.5032 21.2656C21.9776 18.9666 21.3297 16.6192 19.6383 14.6319C19.5354 14.511 19.4325 14.3897 19.3295 14.2692C18.5832 13.3917 17.4099 13.0563 16.2784 13.3966C16.0813 13.4561 15.8955 13.5328 15.7227 13.6253C18.1543 13.931 21.3389 16.5599 21.5032 21.2656Z" fill="#A6601B"/>
<path fill-rule="evenodd" clip-rule="evenodd" d="M27.8325 7.31549C27.4502 12.6869 29.8728 16.0476 33.8219 20.1836C34.4725 18.4667 35.1232 16.7501 35.7738 15.0336C36.9415 11.9526 36.3035 8.68329 34.0083 5.98599C33.8889 5.84589 33.7697 5.70579 33.6505 5.56539C32.7851 4.54909 31.4255 4.15999 30.1139 4.55449C28.8026 4.94899 27.9253 6.01039 27.8325 7.31549Z" fill="#DE9145"/>
<path fill-rule="evenodd" clip-rule="evenodd" d="M27.8325 7.31549C27.4501 12.6869 29.8727 16.0476 33.8218 20.1836C30.785 16.5934 28.616 12.4202 27.8325 7.31549Z" fill="#EDAB68"/>
<path fill-rule="evenodd" clip-rule="evenodd" d="M33.8371 20.1406L35.7727 15.0343C36.9404 11.9533 36.3024 8.68402 34.0072 5.98672C33.8878 5.84662 33.7685 5.70662 33.6493 5.56612C32.7839 4.54982 31.4244 4.16072 30.1128 4.55522C29.8844 4.62402 29.669 4.71332 29.4688 4.82002C30.0929 10.0615 31.4838 15.1788 33.8371 20.1406Z" fill="#BD732A"/>
<path fill-rule="evenodd" clip-rule="evenodd" d="M36.1686 13.6758C36.7186 11.0115 35.9676 8.29079 34.0071 5.98689C33.8878 5.84679 33.7686 5.70668 33.6494 5.56628C32.784 4.54998 31.4243 4.16088 30.1128 4.55538C29.8843 4.62408 29.669 4.71348 29.4688 4.82018C32.2871 5.17498 35.978 8.22148 36.1686 13.6758Z" fill="#A6601B"/>
<path fill-rule="evenodd" clip-rule="evenodd" d="M45.8773 4.42886C45.4009 11.1264 48.4213 15.3163 53.3448 20.4727C54.156 18.3325 54.9673 16.1921 55.7784 14.0517C57.2343 10.2104 56.4388 6.13435 53.5775 2.77165C53.4285 2.59645 53.2798 2.42195 53.1311 2.24745C52.0522 0.979652 50.357 0.494955 48.7218 0.986855C47.0869 1.47815 45.9928 2.80216 45.8773 4.42886Z" fill="#DE9145"/>
<path fill-rule="evenodd" clip-rule="evenodd" d="M45.8773 4.42886C45.4009 11.1264 48.4212 15.3163 53.3448 20.4727C49.558 15.9971 46.8542 10.7938 45.8773 4.42886Z" fill="#EDAB68"/>
<path fill-rule="evenodd" clip-rule="evenodd" d="M53.3646 20.418L55.7777 14.0511C57.2336 10.2097 56.4381 6.13377 53.5768 2.77107C53.4278 2.59587 53.2791 2.42127 53.1304 2.24677C52.0515 0.978973 50.3563 0.494268 48.7211 0.986168C48.436 1.07147 48.1677 1.18287 47.918 1.31647C48.6962 7.85107 50.4302 14.231 53.3646 20.418Z" fill="#BD732A"/>
<path fill-rule="evenodd" clip-rule="evenodd" d="M56.2714 12.3555C56.9571 9.03327 56.0207 5.64197 53.5767 2.76957C53.4278 2.59437 53.2791 2.41987 53.1304 2.24537C52.0515 0.977569 50.3563 0.492773 48.7211 0.984673C48.436 1.07007 48.1677 1.18147 47.918 1.31507C51.432 1.75687 56.034 5.55517 56.2714 12.3555Z" fill="#A6601B"/>
<path fill-rule="evenodd" clip-rule="evenodd" d="M63.1403 4.60303C62.7269 10.414 65.3477 14.0496 69.6196 18.5234C70.3233 16.6665 71.0271 14.8093 71.7311 12.9522C72.994 9.61924 72.3042 6.08324 69.8211 3.16484C69.6922 3.01364 69.563 2.86184 69.434 2.71024C68.4982 1.61014 67.0271 1.18974 65.6085 1.61664C64.1897 2.04294 63.2407 3.19183 63.1403 4.60303Z" fill="#DE9145"/>
<path fill-rule="evenodd" clip-rule="evenodd" d="M63.1364 4.60303C62.723 10.414 65.3436 14.0496 69.6157 18.5234C66.3302 14.6402 63.984 10.1253 63.1364 4.60303Z" fill="#EDAB68"/>
<path fill-rule="evenodd" clip-rule="evenodd" d="M69.636 18.4766L71.7298 12.9522C72.9927 9.61916 72.3029 6.08316 69.8198 3.16476C69.6909 3.01356 69.5617 2.86176 69.4327 2.71016C68.4969 1.61006 67.0257 1.18966 65.6071 1.61656C65.3599 1.69066 65.1269 1.78706 64.9102 1.90276C65.5854 7.57266 67.0902 13.1087 69.636 18.4766Z" fill="#BD732A"/>
<path fill-rule="evenodd" clip-rule="evenodd" d="M72.1581 11.4844C72.7531 8.60217 71.9405 5.65888 69.8197 3.16658C69.6909 3.01538 69.5617 2.86358 69.4327 2.71198C68.4969 1.61188 67.0257 1.19148 65.6071 1.61838C65.3599 1.69248 65.1269 1.78888 64.9102 1.90458C67.9591 2.28848 71.952 5.58397 72.1581 11.4844Z" fill="#A6601B"/>
<path fill-rule="evenodd" clip-rule="evenodd" d="M21.581 78.1183C21.4607 77.397 21.3939 76.6451 21.4032 75.8445C21.9622 74.017 23.0735 72.3035 24.2278 70.96C24.6811 71.9147 25.1344 72.8697 25.5878 73.8246C26.4014 75.5387 26.2205 77.3571 25.0873 78.8575C25.0285 78.9353 24.9695 79.0136 24.9106 79.0915C24.4834 79.6568 23.7477 79.8735 22.9972 79.654C22.2467 79.4346 21.7021 78.8438 21.581 78.1183Z" fill="#DE9145"/>
<path fill-rule="evenodd" clip-rule="evenodd" d="M24.2394 70.9839L25.588 73.8246C26.4014 75.5387 26.2207 77.3571 25.0874 78.8575C25.0286 78.9353 24.9697 79.0136 24.9107 79.0915C24.4836 79.6568 23.7478 79.8735 22.9973 79.654C22.8666 79.6157 22.742 79.5662 22.625 79.5068C22.6932 76.591 23.1944 73.7444 24.2394 70.9839Z" fill="#BD732A"/>
<path fill-rule="evenodd" clip-rule="evenodd" d="M21.5772 78.1168C21.4568 77.3955 21.39 76.6436 21.3993 75.843C21.5312 75.4123 21.6935 74.9877 21.8802 74.573C21.6861 76.1476 21.7812 77.6186 22.0174 79.0391C21.7897 78.7799 21.6351 78.4634 21.5772 78.1168Z" fill="#EDAB68"/>
<path fill-rule="evenodd" clip-rule="evenodd" d="M22.5625 73.2695C23.0616 72.4253 23.6394 71.6431 24.2283 70.9578C24.6816 71.9126 25.1349 72.8675 25.5883 73.8225C26.4019 75.5365 26.221 77.355 25.0878 78.8553L24.8076 79.2266C26.4574 76.367 25.4372 74.1932 23.8028 72.1771C23.2829 72.3896 22.9257 72.8339 22.5625 73.2695Z" fill="#C97F34"/>
<path fill-rule="evenodd" clip-rule="evenodd" d="M24.226 70.9578C24.6793 71.9126 25.1326 72.8675 25.586 73.8225C26.3996 75.5365 26.2187 77.355 25.0855 78.8553L24.8053 79.2266C26.455 76.367 25.4349 74.1934 23.8008 72.1773C23.9308 71.7688 24.0723 71.3623 24.226 70.9578Z" fill="#A6601B"/>
<path fill-rule="evenodd" clip-rule="evenodd" d="M36.3623 86.7745C36.2421 86.0532 36.1752 85.3013 36.1845 84.5011C36.7435 82.6732 37.8548 80.9597 39.0091 79.6163C39.4623 80.5711 39.9158 81.5262 40.3691 82.4808C41.1826 84.1949 41.0018 86.0133 39.8686 87.5137C39.8098 87.5915 39.7507 87.6698 39.6919 87.7477C39.2647 88.3134 38.529 88.5297 37.7786 88.3102C37.0282 88.0908 36.4834 87.5002 36.3623 86.7745Z" fill="#DE9145"/>
<path fill-rule="evenodd" clip-rule="evenodd" d="M39.0208 79.6405L40.3693 82.4808C41.1828 84.1949 41.002 86.0133 39.8688 87.5137C39.81 87.5915 39.7509 87.6698 39.6921 87.7477C39.2649 88.3134 38.5292 88.5297 37.7788 88.3102C37.6479 88.2719 37.5234 88.2224 37.4062 88.163C37.4743 85.2472 37.9758 82.4006 39.0208 79.6405Z" fill="#BD732A"/>
<path fill-rule="evenodd" clip-rule="evenodd" d="M36.3584 86.7731C36.2382 86.0517 36.1713 85.2998 36.1805 84.4996C36.3123 84.0686 36.4749 83.644 36.6614 83.2292C36.4675 84.8039 36.5624 86.2749 36.7987 87.6953C36.5711 87.4362 36.4164 87.1197 36.3584 86.7731Z" fill="#EDAB68"/>
<path fill-rule="evenodd" clip-rule="evenodd" d="M37.3438 81.926C37.8428 81.0817 38.4203 80.2995 39.0094 79.6144C39.4626 80.5692 39.9161 81.5243 40.3694 82.4789C41.1829 84.1929 41.0021 86.0114 39.8689 87.5117L39.5887 87.8828C41.2384 85.0234 40.2183 82.8496 38.5841 80.8336C38.0642 81.0464 37.7068 81.4902 37.3438 81.926Z" fill="#C97F34"/>
<path fill-rule="evenodd" clip-rule="evenodd" d="M39.0072 79.6144C39.4604 80.5692 39.9139 81.5243 40.3672 82.4789C41.1807 84.1929 40.9999 86.0114 39.8667 87.5117L39.5865 87.8828C41.236 85.0234 40.2162 82.8498 38.582 80.8337C38.712 80.4253 38.8536 80.0187 39.0072 79.6144Z" fill="#A6601B"/>
<path fill-rule="evenodd" clip-rule="evenodd" d="M41.3979 85.7166C41.3115 85.1997 41.2636 84.6601 41.2701 84.0861C41.6712 82.7752 42.4684 81.5458 43.2966 80.582C43.6217 81.2668 43.947 81.9521 44.2721 82.6372C44.8557 83.8663 44.7261 85.1708 43.9129 86.2473C43.8708 86.3033 43.8285 86.3592 43.7862 86.415C43.4798 86.8207 42.9522 86.9758 42.4136 86.8184C41.8754 86.6612 41.4846 86.2375 41.3979 85.7166Z" fill="#DE9145"/>
<path fill-rule="evenodd" clip-rule="evenodd" d="M43.3064 80.5996L44.2739 82.6372C44.8575 83.8663 44.7279 85.1708 43.9147 86.2473C43.8726 86.3033 43.8303 86.3592 43.788 86.415C43.4816 86.8207 42.954 86.9758 42.4154 86.8184C42.3218 86.7912 42.2324 86.7555 42.1484 86.713C42.1973 84.6214 42.5569 82.5795 43.3064 80.5996Z" fill="#BD732A"/>
<path fill-rule="evenodd" clip-rule="evenodd" d="M41.3939 85.7169C41.3075 85.1999 41.2597 84.6603 41.2662 84.0864C41.3607 83.7772 41.4774 83.4726 41.6112 83.175C41.4721 84.3046 41.5404 85.3598 41.7096 86.3789C41.5464 86.1927 41.4354 85.966 41.3939 85.7169Z" fill="#EDAB68"/>
<path fill-rule="evenodd" clip-rule="evenodd" d="M42.1016 82.2424C42.4597 81.6367 42.8741 81.076 43.2967 80.5841C43.6218 81.2689 43.9471 81.9542 44.2722 82.6393C44.8558 83.8685 44.7262 85.173 43.913 86.2495L43.712 86.5156C44.8954 84.4644 44.1637 82.905 42.9914 81.4588C42.6183 81.6113 42.362 81.9297 42.1016 82.2424Z" fill="#C97F34"/>
<path fill-rule="evenodd" clip-rule="evenodd" d="M43.2975 80.5841C43.6226 81.2689 43.9479 81.9542 44.273 82.6393C44.8566 83.8685 44.727 85.173 43.9138 86.2495L43.7128 86.5156C44.8962 84.4644 44.1645 82.905 42.9922 81.4588C43.0857 81.1661 43.1871 80.8744 43.2975 80.5841Z" fill="#A6601B"/>
<path fill-rule="evenodd" clip-rule="evenodd" d="M58.2687 85.5831C58.1482 84.8618 58.0816 84.1098 58.0907 83.3096C58.6495 81.4819 59.7611 79.7684 60.9154 78.4249C61.3687 79.3797 61.8221 80.3348 62.2752 81.2896C63.089 83.0038 62.908 84.8219 61.7747 86.3226C61.716 86.4004 61.6569 86.4784 61.5983 86.5566C61.1712 87.1221 60.4353 87.3382 59.6848 87.1188C58.9341 86.8995 58.3897 86.3086 58.2687 85.5831Z" fill="#DE9145"/>
<path fill-rule="evenodd" clip-rule="evenodd" d="M60.9269 78.449L62.2755 81.2896C63.0889 83.0038 62.9082 84.8219 61.7749 86.3226C61.7163 86.4004 61.6572 86.4784 61.5985 86.5566C61.1714 87.1221 60.4355 87.3382 59.685 87.1188C59.5541 87.0805 59.4297 87.031 59.3125 86.9717C59.3807 84.0558 59.8821 81.2091 60.9269 78.449Z" fill="#BD732A"/>
<path fill-rule="evenodd" clip-rule="evenodd" d="M58.2648 85.5816C58.1443 84.8603 58.0777 84.1084 58.0868 83.3082C58.2184 82.8772 58.381 82.4526 58.5674 82.0378C58.3738 83.6125 58.4688 85.0835 58.7049 86.5039C58.4772 86.2447 58.3225 85.9284 58.2648 85.5816Z" fill="#EDAB68"/>
<path fill-rule="evenodd" clip-rule="evenodd" d="M59.25 80.7344C59.749 79.8903 60.3267 79.1083 60.9158 78.4228C61.3691 79.3776 61.8225 80.3327 62.2756 81.2875C63.0894 83.0017 62.9084 84.8198 61.7751 86.3205L61.4951 86.6914C63.1446 83.8318 62.1246 81.658 60.4904 79.6423C59.9704 79.855 59.6131 80.2988 59.25 80.7344Z" fill="#C97F34"/>
<path fill-rule="evenodd" clip-rule="evenodd" d="M60.9134 78.4228C61.3667 79.3776 61.8201 80.3327 62.2732 81.2875C63.087 83.0017 62.906 84.8198 61.7727 86.3205L61.4927 86.6914C63.1422 83.8318 62.1222 81.6582 60.4883 79.6423C60.6182 79.2337 60.7598 78.8273 60.9134 78.4228Z" fill="#A6601B"/>
<path fill-rule="evenodd" clip-rule="evenodd" d="M21.0104 9.95625C20.8338 12.4384 21.9532 13.991 23.778 15.9023C24.0787 15.1093 24.3792 14.3158 24.6801 13.5224C25.2196 12.099 24.9248 10.5883 23.8643 9.34174C23.8091 9.27714 23.7539 9.21235 23.6987 9.14745C23.299 8.67775 22.6706 8.49814 22.0646 8.68054C21.4586 8.86254 21.0532 9.35345 21.0104 9.95625Z" fill="#DE9145"/>
<path fill-rule="evenodd" clip-rule="evenodd" d="M21.0104 9.95625C20.8339 12.4384 21.9533 13.991 23.778 15.9023C22.3746 14.2434 21.3724 12.3151 21.0104 9.95625Z" fill="#EDAB68"/>
<path fill-rule="evenodd" clip-rule="evenodd" d="M23.7882 15.8828L24.6826 13.523C25.2221 12.0996 24.9273 10.5889 23.8668 9.34232C23.8116 9.27772 23.7564 9.21292 23.7012 9.14802C23.3015 8.67832 22.6731 8.49871 22.0671 8.68111C21.9615 8.71261 21.8619 8.75381 21.7695 8.80331C22.058 11.2252 22.7007 13.59 23.7882 15.8828Z" fill="#BD732A"/>
<path fill-rule="evenodd" clip-rule="evenodd" d="M24.8656 12.8945C25.1196 11.6633 24.7727 10.4063 23.8669 9.34143C23.8117 9.27693 23.7565 9.21203 23.7013 9.14713C23.3016 8.67743 22.6732 8.49783 22.0672 8.68023C21.9616 8.71173 21.862 8.75303 21.7695 8.80253C23.072 8.96653 24.7776 10.3742 24.8656 12.8945Z" fill="#A6601B"/>
<path fill-rule="evenodd" clip-rule="evenodd" d="M34.8827 4.05679C34.7322 6.17089 35.6858 7.49379 37.2399 9.12109C37.4959 8.44559 37.752 7.77009 38.008 7.09459C38.4677 5.88199 38.2165 4.59539 37.3133 3.53359C37.2662 3.47869 37.2192 3.42359 37.1723 3.36829C36.832 2.96839 36.2967 2.81539 35.7805 2.97049C35.2646 3.12579 34.9192 3.54349 34.8827 4.05679Z" fill="#DE9145"/>
<path fill-rule="evenodd" clip-rule="evenodd" d="M34.8827 4.05679C34.7323 6.17089 35.6858 7.49379 37.24 9.12109C36.0447 7.70849 35.1912 6.06619 34.8827 4.05679Z" fill="#EDAB68"/>
<path fill-rule="evenodd" clip-rule="evenodd" d="M37.2465 9.10547L38.0082 7.09587C38.4679 5.88337 38.2167 4.59667 37.3135 3.53487C37.2664 3.47997 37.2194 3.42487 37.1725 3.36957C36.8322 2.96967 36.2969 2.81667 35.7807 2.97177C35.691 2.99877 35.606 3.03387 35.5273 3.07617C35.7729 5.13877 36.3204 7.15257 37.2465 9.10547Z" fill="#BD732A"/>
<path fill-rule="evenodd" clip-rule="evenodd" d="M38.164 6.55859C38.3804 5.51009 38.085 4.43939 37.3135 3.53249C37.2664 3.47759 37.2194 3.42249 37.1725 3.36729C36.8322 2.96729 36.2969 2.81429 35.7807 2.96949C35.691 2.99639 35.6061 3.03149 35.5273 3.07379C36.6364 3.21319 38.0891 4.41209 38.164 6.55859Z" fill="#A6601B"/>
<path fill-rule="evenodd" clip-rule="evenodd" d="M55.328 2.21735C55.1776 4.33115 56.1308 5.65385 57.6849 7.28125L58.4532 5.25455C58.9127 4.04205 58.6617 2.75556 57.7585 1.69376C57.7115 1.63906 57.6644 1.58375 57.6175 1.52835C57.2772 1.12845 56.742 0.975454 56.2257 1.13055C55.7097 1.28595 55.3644 1.70355 55.328 2.21735Z" fill="#DE9145"/>
<path fill-rule="evenodd" clip-rule="evenodd" d="M55.3319 2.21735C55.1815 4.33115 56.1347 5.65385 57.6889 7.28125C56.4939 5.86875 55.6401 4.22615 55.3319 2.21735Z" fill="#EDAB68"/>
<path fill-rule="evenodd" clip-rule="evenodd" d="M57.6918 7.26562L58.4536 5.25613C58.9131 4.04353 58.6621 2.75702 57.7589 1.69522C57.7119 1.64052 57.6648 1.58522 57.6179 1.52982C57.2776 1.12992 56.7424 0.976927 56.2261 1.13203C56.1364 1.15933 56.0514 1.19413 55.9727 1.23663C56.2183 3.29913 56.7658 5.31313 57.6918 7.26562Z" fill="#BD732A"/>
<path fill-rule="evenodd" clip-rule="evenodd" d="M58.6094 4.72266C58.8259 3.67446 58.5304 2.60335 57.7589 1.69675C57.712 1.64195 57.6649 1.58676 57.6179 1.53126C57.2776 1.13136 56.7424 0.978353 56.2262 1.13345C56.1364 1.16075 56.0515 1.19555 55.9727 1.23805C57.0818 1.37735 58.5343 2.57646 58.6094 4.72266Z" fill="#A6601B"/>
</g>
</g>
</g>
<defs>
<clipPath id="clip0_394_8617">
<rect width="90" height="90" fill="white" transform="matrix(0 -1 1 0 0 90)"/>
</clipPath>
</defs>
</svg>
