<svg width="90" height="90" viewBox="0 0 90 90" fill="none" xmlns="http://www.w3.org/2000/svg">
<g clip-path="url(#clip0_394_10826)">
<mask id="mask0_394_10826" style="mask-type:luminance" maskUnits="userSpaceOnUse" x="0" y="0" width="90" height="90">
<path d="M0 0L0 90H90V0H0Z" fill="white"/>
</mask>
<g mask="url(#mask0_394_10826)">
<mask id="mask1_394_10826" style="mask-type:luminance" maskUnits="userSpaceOnUse" x="0" y="0" width="90" height="90">
<path d="M0 44.9993C0 20.1463 20.1476 -0.001297 44.999 -0.001297C69.852 -0.001297 90 20.146 90 44.9993C90 69.8527 69.852 90 44.999 90C20.1476 90 0 69.8524 0 44.9993Z" fill="white"/>
</mask>
<g mask="url(#mask1_394_10826)">
<path d="M0 112.5L0 58.4971L90.0076 58.4971V112.5H0Z" fill="#076629"/>
<path d="M0 58.5039L0 -22.499H90.0076V58.5039L0 58.5039Z" fill="#E32121"/>
<path d="M35.9389 77.3024C36.1309 77.1802 36.3245 77.0563 36.5105 76.9305C37.3245 74.4731 38.4679 69.8103 38.7413 62.4749C38.8014 60.9419 38.809 59.721 38.8014 59.0292V57.9459C38.809 57.2561 38.8014 56.0332 38.7413 54.5022C38.4719 47.1668 37.3285 42.5043 36.5105 40.0427C36.3245 39.9184 36.1305 39.7906 35.9389 39.6743C35.4844 39.3899 35.0196 39.1224 34.5454 38.8723C34.3165 38.9925 34.0904 39.1179 33.8672 39.2482C34.7875 41.7324 36.5028 47.7889 36.4348 58.4112H36.4308C36.4348 58.4344 36.4348 58.541 36.4308 58.5663H36.4348C36.5028 69.1869 34.7875 75.243 33.8672 77.7295C34.0914 77.8581 34.3175 77.9834 34.5454 78.1055C35.0193 77.8546 35.4842 77.5867 35.9389 77.3024C35.9389 77.2988 35.9389 77.2988 35.9389 77.3024Z" fill="#F5E600"/>
<path d="M38.8517 57.5129V58.2282L38.8457 58.4667V58.5364L38.8517 58.7516V59.4663C38.8517 60.1329 38.8381 61.197 38.7916 62.478C38.5223 69.6738 37.4253 74.3171 36.5568 76.9491L36.5492 76.9647L36.5336 76.9724C36.3609 77.0889 36.1749 77.2108 35.9617 77.3463L35.8262 77.4297C35.4136 77.6832 34.9942 77.9255 34.5685 78.1563L34.5392 78.168L34.516 78.1563C34.2775 78.0285 34.0527 77.9066 33.8338 77.7784L33.793 77.7552L33.8106 77.7106C34.7657 75.1311 36.3745 69.2919 36.3745 59.1831C36.3745 58.9971 36.3745 58.8108 36.3705 58.6228V58.3534C36.3745 58.1671 36.3745 57.9811 36.3745 57.7971C36.3745 47.6846 34.7657 41.8474 33.8106 39.2696L33.793 39.2231L33.8338 39.1998C34.0586 39.0686 34.286 38.9419 34.516 38.8199L34.5392 38.8043L34.5685 38.8199C34.9959 39.0506 35.4166 39.2936 35.8302 39.5485L35.9617 39.6339C36.1547 39.7541 36.3454 39.8781 36.5336 40.0058L36.5492 40.0135L36.5568 40.0331C37.425 42.6571 38.5183 47.3084 38.7916 54.5039C38.8384 55.7822 38.8517 56.846 38.8517 57.5129ZM38.7395 58.0087V57.5125C38.7395 56.846 38.7318 55.7819 38.6793 54.5046C38.4137 47.3359 37.3267 42.7079 36.4582 40.0839C36.3187 39.9909 36.1712 39.8943 36.0045 39.7893L35.9095 39.7272C35.4646 39.4458 35.0088 39.182 34.5432 38.9364C34.3392 39.0455 34.1371 39.1579 33.9368 39.2735C34.8979 41.882 36.493 47.7252 36.493 57.7971V59.1827C36.493 69.2567 34.9019 75.0996 33.9368 77.7063C34.1372 77.8219 34.3394 77.9344 34.5432 78.0438C35.0083 77.798 35.4641 77.5348 35.9095 77.255L36.0374 77.1716C36.1905 77.0766 36.33 76.9797 36.4582 76.8963C37.3263 74.2743 38.4097 69.6463 38.6793 62.4776C38.7315 61.2003 38.7395 60.1366 38.7395 59.4697V59.0316V58.0087Z" fill="#101211"/>
<path d="M38.3503 58.5683V58.4132C38.4141 48.3588 36.8834 42.3937 35.9375 39.6803C36.1306 39.799 36.3212 39.9218 36.5091 40.0487C37.4586 42.9204 38.8601 48.7929 38.796 58.4128V58.5679C38.8601 68.1883 37.4589 74.0623 36.5091 76.9288C36.3202 77.0554 36.1297 77.1794 35.9375 77.3008C36.8834 74.5881 38.4141 68.621 38.3503 58.5683Z" fill="#F5E600"/>
<path d="M38.8533 57.7981C38.8533 58.0017 38.8533 58.207 38.8473 58.4142V58.569C38.9154 68.3676 37.4345 74.3098 36.5623 76.9491L36.5547 76.9647L36.5394 76.9724C36.3667 77.0889 36.1807 77.2108 35.9675 77.3463L35.832 77.4297L35.8882 77.2786C36.7895 74.6951 38.297 68.9083 38.297 59.1754V58.6151H38.293V58.3458H38.297V57.7855C38.297 48.0586 36.7835 42.2699 35.8882 39.6807L35.832 39.5336L35.9675 39.615C36.1768 39.7465 36.3627 39.867 36.5394 39.9909L36.5547 39.9985L36.5623 40.0142C37.4155 42.6196 38.8533 48.3598 38.8533 57.7981ZM38.741 58.3541C38.8011 48.6272 37.3362 42.7202 36.464 40.0806C36.3322 39.9912 36.1964 39.9022 36.0472 39.8056C36.9718 42.5263 38.4717 48.4837 38.4116 58.4102V59.1794C38.4116 68.7416 36.9542 74.5034 36.0472 77.1683C36.2003 77.0693 36.3362 76.9764 36.464 76.893C37.3362 74.2553 38.7971 68.356 38.741 58.6195V58.4856V58.3541Z" fill="#101211"/>
<path d="M36.8804 58.5686V58.4135C36.9502 47.487 35.1382 41.3864 34.2372 39.045C34.113 39.1147 33.9871 39.1768 33.8672 39.2545C34.7875 41.7388 36.5028 47.7952 36.4348 58.4175H36.4308C36.4348 58.4407 36.4348 58.5493 36.4308 58.5726H36.4348C36.5028 69.1932 34.7875 75.2513 33.8672 77.7358C33.9871 77.8056 34.1133 77.8737 34.2372 77.9414C35.1382 75.5924 36.9502 69.4951 36.8804 58.5686Z" fill="#F5E600"/>
<path d="M36.9406 57.7966C36.9406 58.0002 36.9406 58.2054 36.9366 58.4126V58.5674C36.9406 58.773 36.9406 58.9802 36.9406 59.1818C36.9406 69.8991 35.0877 75.8798 34.2893 77.9555L34.2661 78.0156L34.2099 77.9847C34.0877 77.917 33.9638 77.8489 33.8416 77.7772L33.8008 77.7539L33.8184 77.7094C34.7735 75.1299 36.3823 69.2907 36.3823 59.1818C36.3823 58.9958 36.3823 58.8095 36.3783 58.6215V58.3522C36.3823 58.1659 36.3823 57.9799 36.3823 57.7959C36.3823 47.6834 34.7735 41.8462 33.8184 39.2683L33.8008 39.2218L33.8416 39.1986L34.2099 38.9893L34.2661 38.9581L34.2893 39.0206C35.0877 41.0986 36.9406 47.0813 36.9406 57.7966ZM36.83 58.3525C36.8941 47.4028 35.0316 41.2766 34.2099 39.1215C34.1208 39.1692 34.0323 39.2183 33.9446 39.2686C34.9057 41.8774 36.5009 47.7203 36.5009 57.7923V59.1818C36.5009 69.2558 34.9097 75.0987 33.9446 77.7054C34.0316 77.7579 34.1229 77.8044 34.2099 77.8565C35.016 75.7323 36.83 69.7789 36.83 59.1818V58.4877V58.3525Z" fill="#101211"/>
<path d="M49.9359 60.001C58.0135 45.9194 58.6881 41.9599 58.622 40.9254C58.202 40.5984 57.7703 40.2868 57.3277 39.9912C56.5949 39.5381 55.8378 39.1254 55.0601 38.7547C55.0099 40.0882 53.9594 44.3867 46.37 57.6038C37.3544 73.3211 32.8503 76.0015 31.9453 76.4104C32.3764 76.7435 32.8184 77.0622 33.2708 77.3659C34.065 77.8606 34.8898 78.3046 35.74 78.6953C37.025 77.9975 41.5075 74.703 49.9359 60.001Z" fill="#F5E600"/>
<path d="M58.6817 41.0597C58.6817 42.2068 57.8365 46.3503 49.984 60.0327C41.4876 74.8529 36.9506 78.099 35.7646 78.7423L35.7373 78.7539L35.7141 78.7423C34.8609 78.351 34.0336 77.9056 33.2372 77.4088C32.7834 77.1033 32.34 76.7826 31.9078 76.4474L31.832 76.3873L31.9154 76.3524C32.7274 75.9901 37.2568 73.3757 46.3092 57.5751C54.0228 44.1291 54.9528 39.9315 54.9953 38.7492V38.6639L55.0766 38.6987C55.8587 39.0689 56.6185 39.4843 57.3523 39.9428C57.799 40.2348 58.2335 40.5451 58.6545 40.8731L58.6701 40.8887V40.9159C58.6817 40.9664 58.6817 41.0053 58.6817 41.0597ZM35.7334 78.6297C36.9506 77.9592 41.4603 74.6646 49.8907 59.9726C57.7282 46.3151 58.5731 42.1952 58.5731 41.0557C58.5731 41.0169 58.5731 40.982 58.5655 40.9511C58.1522 40.6332 57.7282 40.3294 57.2941 40.0405C56.5882 39.6012 55.8584 39.2014 55.1082 38.8429C55.0188 40.4008 53.7206 44.8893 46.4221 57.6298C37.6135 72.9904 33.0632 75.921 32.0496 76.4168C32.458 76.7267 32.8748 77.0253 33.2996 77.3122C34.0807 77.805 34.8937 78.2451 35.7334 78.6297Z" fill="#101211"/>
<path d="M49.9356 60.0011C58.0133 45.9195 58.6878 41.96 58.6217 40.9255C58.5403 40.8554 58.4477 40.7973 58.3699 40.7239C58.2846 42.1463 57.1215 46.5784 49.5829 59.7201C41.3946 73.9917 36.8905 77.6353 35.3867 78.5287C35.501 78.5848 35.6192 78.6353 35.7394 78.6914C37.0247 77.9976 41.5072 74.7031 49.9356 60.0011Z" fill="#F5E600"/>
<path d="M58.6828 41.0597C58.6828 42.2068 57.8376 46.3503 49.9851 60.0327C41.4887 74.8529 36.9517 78.099 35.7657 78.7423L35.7385 78.7539L35.7152 78.7423C35.595 78.6862 35.4768 78.6337 35.3605 78.5795L35.2695 78.535L35.3569 78.4806C36.9132 77.5583 41.3937 73.8798 49.5354 59.6936C56.9618 46.7359 58.2179 42.2457 58.3109 40.7263V40.6253L58.3962 40.6874C58.4776 40.7535 58.5746 40.8193 58.6559 40.8854L58.6715 40.901V40.9282C58.6828 40.9664 58.6828 41.0053 58.6828 41.0597ZM35.7345 78.6297C36.9517 77.9592 41.4614 74.6646 49.8918 59.9726C57.7293 46.3151 58.5742 42.1952 58.5742 41.0557C58.5742 41.0169 58.5742 40.982 58.5666 40.9511C58.5201 40.9086 58.4696 40.8698 58.4115 40.8349C58.272 42.4626 56.9153 47.0537 49.6284 59.7497C41.6282 73.6978 37.1436 77.5118 35.508 78.5234C35.5794 78.56 35.6591 78.5952 35.7345 78.6297Z" fill="#101211"/>
<path d="M31.9414 76.4106C32.0809 76.5172 32.2224 76.6274 32.3658 76.7344C33.676 76.0286 38.209 72.6916 46.7347 57.8308C54.0369 45.0983 55.355 40.5497 55.5022 38.9761C55.355 38.9024 55.2076 38.829 55.0525 38.7592C55.0057 40.0927 53.9515 44.3912 46.3697 57.6083C37.3505 73.3252 32.8504 76.0054 31.9414 76.4106Z" fill="#F5E600"/>
<path d="M55.5652 38.9435L55.5575 38.9821C55.4104 40.5792 54.0614 45.1643 46.7821 57.8564C38.181 72.843 33.5975 76.1299 32.3943 76.7852L32.3634 76.8008L32.3362 76.7815C32.1891 76.6749 32.0496 76.5663 31.9078 76.456L31.832 76.3959L31.9154 76.3611C32.7274 76.0007 37.2568 73.3843 46.3092 57.5834C54.0228 44.1378 54.9527 39.9399 54.9953 38.7576V38.6722L55.0766 38.7071C55.2317 38.7808 55.3749 38.8505 55.5227 38.9279L55.5652 38.9435ZM32.3744 76.6666C33.6168 75.9788 38.1727 72.6334 46.6888 57.7963C53.8943 45.2225 55.2782 40.6333 55.4489 39.0053C55.3324 38.9469 55.2121 38.8967 55.1078 38.8426C55.0149 40.4005 53.7166 44.889 46.4178 57.6296C37.6095 72.9901 33.0569 75.9207 32.0452 76.4165C32.1555 76.5039 32.2641 76.5872 32.3744 76.6666Z" fill="#101211"/>
<path d="M58.1147 58.4902C58.0835 68.0544 56.9288 73.8102 55.7812 77.1768C55.9857 77.3105 56.1925 77.4404 56.4016 77.5664C57.1456 77.1244 57.8473 76.6398 58.5331 76.1167C60.5723 68.7697 60.5723 58.4905 60.5723 58.4905C60.5723 58.4905 60.5723 48.2056 58.5331 40.8606C57.8473 40.3415 57.1419 39.853 56.4016 39.4113C56.1906 39.5362 55.9838 39.668 55.7812 39.8065C56.9288 43.1701 58.0838 48.924 58.1147 58.4902Z" fill="#F5E600"/>
<path d="M60.626 58.4905C60.626 58.5934 60.6027 68.8647 58.5871 76.1323L58.5795 76.1519L58.5639 76.1655C57.8812 76.6893 57.1695 77.1739 56.432 77.6172L56.4011 77.6328L56.3739 77.6172C56.1218 77.4701 55.9359 77.3479 55.7499 77.2276L55.707 77.2044L55.7266 77.1655C56.7731 74.1015 58.0252 68.3725 58.0597 58.4945C58.0252 48.6144 56.7731 42.8878 55.7266 39.8221L55.707 39.7832L55.7499 39.756C55.9359 39.6361 56.1298 39.5119 56.3739 39.3644L56.4011 39.3491L56.432 39.3644C57.1686 39.8083 57.8803 40.2922 58.5639 40.8141L58.5795 40.8297L58.5871 40.845C60.6024 48.1143 60.626 58.3879 60.626 58.4905ZM58.4862 76.0858C60.4861 68.8338 60.517 58.5934 60.517 58.4905C60.517 58.3879 60.4861 48.1471 58.4862 40.8955C57.8189 40.3842 57.1228 39.9118 56.4011 39.4807C56.1916 39.6045 56.0132 39.7211 55.8425 39.8294C56.889 42.9071 58.1451 48.6437 58.1683 58.4945C58.1451 68.3416 56.889 74.0762 55.8425 77.1615C56.0132 77.2682 56.1916 77.3784 56.4011 77.5066C57.1226 77.0731 57.8187 76.5987 58.4862 76.0858Z" fill="#101211"/>
<path d="M58.5553 58.4902C58.532 68.2735 57.3228 74.0719 56.1484 77.4073C56.2298 77.4615 56.3188 77.5099 56.4078 77.5664C56.9428 77.2455 57.464 76.9021 57.9701 76.5372C60.1248 69.1746 60.1248 58.4902 60.1248 58.4902C60.1248 58.4902 60.1248 47.8097 57.9701 40.4418C57.4641 40.0775 56.9428 39.7348 56.4078 39.4146C56.3193 39.4641 56.2327 39.5172 56.1484 39.5737C57.3228 42.9064 58.532 48.7051 58.5553 58.4902Z" fill="#F5E600"/>
<path d="M60.1864 58.4909C60.1864 58.5975 60.1551 69.2663 58.0233 76.5532L58.0157 76.5744L58.0001 76.5861C57.4918 76.949 56.9695 77.2916 56.4342 77.6133L56.4109 77.6289L56.2794 77.5495C56.2253 77.5186 56.1708 77.4874 56.1167 77.4545L56.0781 77.4313L56.0934 77.3868C57.1751 74.3191 58.4733 68.5476 58.5006 58.4872C58.4693 48.4252 57.1751 42.6521 56.0934 39.5857L56.0781 39.5472L56.1167 39.5199C56.1708 39.489 56.2253 39.4578 56.2794 39.4229L56.4109 39.3419L56.4342 39.3612C56.9703 39.6828 57.4927 40.0268 58.0001 40.3921L58.0157 40.4037L58.0233 40.4233C60.1551 47.7135 60.1864 58.3843 60.1864 58.4909ZM57.9224 76.5067C60.0465 69.2351 60.0698 58.5975 60.0698 58.4909C60.0698 58.3843 60.0465 47.7464 57.9224 40.4734C57.431 40.1239 56.9267 39.793 56.4106 39.4814L56.3292 39.5199C56.2899 39.5487 56.2485 39.5746 56.2053 39.5973C57.2867 42.6826 58.5892 48.4617 58.6048 58.4909C58.5816 68.52 57.2867 74.2955 56.2053 77.3828C56.2482 77.4081 56.2867 77.4313 56.3292 77.4545L56.4106 77.4991C56.9285 77.1902 57.4329 76.8591 57.9224 76.5067Z" fill="#101211"/>
<path d="M50.5889 58.4873C50.5889 58.4873 50.5889 42.7877 46.7517 36.3304C46.3519 36.2966 45.9512 36.2745 45.5501 36.2643C45.0966 36.2706 44.6434 36.2927 44.1914 36.3304C45.4883 38.2995 48.0931 44.063 48.1316 58.4873C48.0931 72.9024 45.4883 78.6702 44.1914 80.6469C44.6437 80.6795 45.0967 80.6996 45.5501 80.707C45.9511 80.6966 46.3518 80.6753 46.7517 80.6433C50.5889 74.1853 50.5889 58.4873 50.5889 58.4873Z" fill="#F5E600"/>
<path d="M50.6487 58.4879C50.6487 58.647 50.6023 74.2772 46.7959 80.6704L46.7763 80.6936L46.7454 80.6976C46.3442 80.73 45.9422 80.7513 45.5398 80.7617C45.0357 80.7541 44.594 80.7345 44.1848 80.7036L44.0898 80.6976L44.1423 80.6182C45.315 78.8335 48.036 73.1065 48.0749 58.4919C48.036 43.8776 45.315 38.1526 44.1423 36.3618L44.0898 36.2805L44.1848 36.2728C44.6358 36.24 45.0877 36.2207 45.5398 36.2147C45.9422 36.2236 46.3443 36.2443 46.7454 36.2768H46.7763L46.7959 36.308C50.6023 42.7029 50.6487 58.3328 50.6487 58.4879ZM46.7185 80.591C50.486 74.2051 50.5325 58.6466 50.5325 58.4879C50.5325 58.3291 50.4857 42.7726 46.7185 36.3851C46.3291 36.353 45.9388 36.3323 45.5482 36.323C45.1278 36.3278 44.7077 36.3459 44.2884 36.3771C45.494 38.2569 48.1529 44.0516 48.1914 58.4879C48.1529 72.9222 45.494 78.7169 44.2884 80.599C44.7078 80.6285 45.1278 80.646 45.5482 80.6515C45.9386 80.6385 46.3288 80.6184 46.7185 80.591Z" fill="#101211"/>
<path d="M48.5785 58.4895C48.54 72.9045 45.9276 78.6723 44.6406 80.6491C45.0096 80.6757 45.3793 80.6925 45.7492 80.6992C45.9276 80.6952 46.1059 80.6876 46.2843 80.676C50.1447 74.234 50.1447 58.4895 50.1447 58.4895C50.1447 58.4895 50.1447 42.743 46.2843 36.3013L45.7492 36.2781C45.3792 36.2843 45.0095 36.3025 44.6406 36.3326C45.9276 38.3093 48.54 44.0688 48.5785 58.4895Z" fill="#F5E600"/>
<path d="M50.2 58.4877C50.2 58.6468 50.1535 74.3235 46.3319 80.7014L46.3163 80.7267L46.2894 80.7307C46.1031 80.7383 45.9247 80.7459 45.7464 80.7539C45.3086 80.7423 44.9556 80.7267 44.6301 80.7014L44.5352 80.6974L44.5876 80.6181C45.7543 78.8333 48.4873 73.1063 48.5258 58.4917C48.4873 43.8774 45.7583 38.1524 44.5876 36.3617L44.5352 36.2803L44.6301 36.2727C44.9556 36.2498 45.3087 36.2341 45.7387 36.2225L46.293 36.2458H46.3163L46.3319 36.2727C50.1538 42.6486 50.2 58.3326 50.2 58.4877ZM46.2542 80.6177C50.0449 74.2475 50.0914 58.6425 50.0914 58.4874C50.0914 58.3323 50.0449 42.726 46.2542 36.3534C46.0835 36.3461 45.9131 36.3381 45.7424 36.3304C45.406 36.3358 45.0699 36.3513 44.7344 36.3769C45.9363 38.2567 48.5952 44.0514 48.6341 58.4877C48.5913 72.922 45.9324 78.7167 44.7344 80.5988C45.0726 80.6217 45.4112 80.6365 45.75 80.6433C45.9131 80.6393 46.0838 80.6314 46.2542 80.6177Z" fill="#101211"/>
<path d="M22.7734 58.4876C22.7734 70.7592 32.7232 80.7109 44.9988 80.7109C57.278 80.7109 67.2238 70.7592 67.2238 58.4876C67.2238 46.214 57.278 36.2606 44.9988 36.2606C32.7232 36.2602 22.7734 46.214 22.7734 58.4876ZM64.9993 58.4876C64.9993 69.5323 56.0455 78.4918 44.9988 78.4918C33.954 78.4918 24.9963 69.5363 24.9963 58.4876C24.9963 47.4372 33.9537 38.4854 44.9988 38.4854C56.0455 38.4854 64.9993 47.4408 64.9993 58.4876Z" fill="#F5E600"/>
<path d="M67.2796 58.4881C67.2796 70.7713 57.287 80.7656 45.0001 80.7656C32.7206 80.7656 22.7227 70.7713 22.7227 58.4881C22.7227 46.2033 32.7206 36.207 45.0001 36.207C57.287 36.2067 67.2796 46.2029 67.2796 58.4881ZM22.8349 58.4881C22.8349 70.7132 32.777 80.6554 45.0001 80.6554C57.2252 80.6554 67.171 70.7096 67.171 58.4881C67.171 46.267 57.2252 36.3232 45.0001 36.3232C32.7767 36.3232 22.8349 46.2631 22.8349 58.4881ZM65.0624 58.4881C65.0624 69.5505 56.0622 78.5428 44.9998 78.5428C33.9394 78.5428 24.9412 69.5465 24.9412 58.4881C24.9412 47.4298 33.9434 38.4318 44.9998 38.4318C56.0625 38.4318 65.0624 47.4258 65.0624 58.4881ZM25.0577 58.4881C25.0577 69.4864 34.0075 78.4325 45.0001 78.4325C56.0007 78.4325 64.9462 69.4864 64.9462 58.4881C64.9462 47.4899 56.0004 38.5404 45.0001 38.5404C34.0075 38.5404 25.0577 47.4899 25.0577 58.4881Z" fill="#101211"/>
<path d="M23.2227 58.488C23.2227 70.5174 32.9748 80.2656 45.0003 80.2656C57.0318 80.2656 66.7836 70.5135 66.7836 58.488C66.7836 46.4608 57.0318 36.7107 45.0003 36.7107C32.9748 36.7107 23.2227 46.4568 23.2227 58.488ZM65.4502 58.488C65.4502 69.7792 56.2951 78.9322 45 78.9322C33.7128 78.9322 24.5577 69.7788 24.5577 58.488C24.5577 47.1951 33.7128 38.0441 45 38.0441C56.2951 38.0441 65.4502 47.1951 65.4502 58.488Z" fill="#F5E600"/>
<path d="M66.8378 58.4904C66.8378 70.5315 57.0391 80.3242 45 80.3242C32.9589 80.3242 23.1719 70.5275 23.1719 58.4904C23.1719 46.4513 32.9626 36.659 45 36.659C57.0391 36.659 66.8378 46.4513 66.8378 58.4904ZM23.2748 58.4904C23.2748 70.4694 33.019 80.2136 45 80.2136C56.977 80.2136 66.7292 70.4694 66.7292 58.4904C66.7292 46.5118 56.977 36.7672 45 36.7672C33.023 36.7672 23.2748 46.5114 23.2748 58.4904ZM65.504 58.4904C65.504 69.7949 56.3141 78.9948 44.9997 78.9948C33.6972 78.9948 24.501 69.7989 24.501 58.4904C24.501 47.1823 33.6932 37.9844 44.9997 37.9844C56.3105 37.9921 65.504 47.186 65.504 58.4904ZM24.6079 58.4904C24.6079 69.7348 33.7573 78.8785 44.9997 78.8785C56.2484 78.8785 65.3957 69.7311 65.3957 58.4904C65.3957 47.2501 56.2484 38.1007 44.9997 38.1007C33.7573 38.1007 24.6079 47.2497 24.6079 58.4904Z" fill="#101211"/>
<path d="M22.7734 59.6016V57.3787H67.2238V59.6016H22.7734Z" fill="#F5E600"/>
<path d="M67.2796 57.3227V59.6602H22.7227V57.3227H67.2796ZM67.171 59.5456V57.433H22.8386V59.5456H67.171Z" fill="#101211"/>
<path d="M22.5547 59.6016V59.1579H67.4491V59.6016H22.5547Z" fill="#F5E600"/>
<path d="M67.5029 59.0999V59.6602H22.5039V59.0999H67.5029ZM67.3943 59.5456V59.2121H22.6065V59.5456H67.3943Z" fill="#101211"/>
<path d="M22.5547 57.8242V57.3785H67.4491V57.8242H22.5547Z" fill="#F5E600"/>
<path d="M67.5029 57.3225V57.8828H22.5039V57.3225H67.5029ZM67.3943 57.7662V57.4328H22.6065V57.7662H67.3943Z" fill="#101211"/>
<path d="M44.1904 80.6933C44.4598 80.701 44.7271 80.7109 44.9988 80.7109C45.58 80.7109 46.1539 80.6897 46.7238 80.6432C45.4292 78.6704 42.8225 72.9026 42.7816 58.4836C42.8225 44.0633 45.4289 38.2994 46.7238 36.3227C46.1539 36.2759 45.584 36.2529 44.9988 36.2529C44.7311 36.2529 44.4638 36.2603 44.1904 36.2722C40.3203 42.6989 40.3203 58.4799 40.3203 58.4799C40.3203 58.4799 40.3203 74.2689 44.1904 80.6933Z" fill="#F5E600"/>
<path d="M46.8202 36.2806L46.7661 36.362C45.5954 38.1451 42.8724 43.8777 42.8335 58.492C42.8724 73.1067 45.5954 78.8336 46.7661 80.6184L46.8202 80.6978L46.7309 80.7018C45.8856 80.7684 45.0372 80.7859 44.1899 80.7542H44.159L44.1434 80.731C40.3081 74.3644 40.2656 58.6511 40.2656 58.492C40.2656 58.3329 40.3081 42.618 44.1434 36.2574L44.159 36.2302L44.1899 36.2262C44.5001 36.2145 44.7578 36.2066 44.9982 36.2066C45.5758 36.2066 46.1533 36.2338 46.7309 36.2763L46.8202 36.2806ZM42.7213 58.4884C42.7658 44.0524 45.425 38.2574 46.6186 36.3776C46.0839 36.3391 45.5412 36.3155 44.9986 36.3155C44.7661 36.3155 44.52 36.3231 44.2251 36.3311C40.4227 42.6914 40.3762 58.3293 40.3762 58.488C40.3762 58.6468 40.4227 74.2847 44.2251 80.6436C44.5197 80.6513 44.7658 80.6589 44.9986 80.6589C45.5412 80.6589 46.0839 80.6396 46.6186 80.5988C45.4247 78.7174 42.7658 72.9227 42.7213 58.4884Z" fill="#101211"/>
<path d="M40.7656 58.4897C40.7656 58.4897 40.7656 74.2711 44.6337 80.6955C44.7344 80.6995 44.8353 80.6995 44.9439 80.7031C45.386 80.6955 45.8357 80.6799 46.2777 80.645C44.9828 78.6723 42.3724 72.9044 42.3335 58.4854C42.3724 44.0651 44.9828 38.3013 46.2777 36.3245C45.8357 36.2896 45.386 36.2701 44.9439 36.2621L44.6337 36.2737C40.7656 42.7087 40.7656 58.4897 40.7656 58.4897Z" fill="#F5E600"/>
<path d="M46.3718 36.2805L46.3253 36.3618C45.1546 38.145 42.43 43.8776 42.3851 58.4919C42.4296 73.1065 45.1546 78.8335 46.3253 80.6182L46.3718 80.6976L46.2791 80.7016C45.8353 80.7364 45.3905 80.7564 44.9454 80.7617C44.8368 80.7617 44.7362 80.7577 44.6352 80.7541H44.6043L44.5927 80.7308C40.7574 74.3642 40.7109 58.651 40.7109 58.4919C40.7109 58.3328 40.7574 42.6179 44.5927 36.2572L44.6043 36.23L44.6352 36.226C44.7358 36.226 44.8368 36.222 44.9374 36.2144C45.385 36.2231 45.8323 36.2438 46.2788 36.2765L46.3718 36.2805ZM44.674 80.6438C44.7594 80.6478 44.8524 80.6478 44.9454 80.6515C45.3567 80.6464 45.7679 80.6289 46.1782 80.599C44.9763 78.7169 42.3174 72.9225 42.2785 58.4879C42.3174 44.0519 44.9763 38.2569 46.1782 36.3771C45.8062 36.3462 45.399 36.3306 44.9377 36.323C44.8524 36.3306 44.7594 36.3306 44.6744 36.3306C40.87 42.6909 40.8255 58.3288 40.8255 58.4876C40.8255 58.6463 40.8657 74.2848 44.674 80.6438Z" fill="#101211"/>
<path d="M35.5941 78.6289C34.8811 77.0105 32.5862 70.8302 32.6659 58.5703H32.6699V58.4152H32.6659C32.5865 46.1552 34.8851 39.9693 35.5941 38.3492C34.7592 38.7456 33.9483 39.1909 33.1657 39.6827C32.9726 39.8014 32.782 39.9242 32.5942 40.051C31.7801 42.5083 30.6367 47.1748 30.3633 54.5102C30.3032 56.0412 30.2956 57.2641 30.3032 57.9542V59.0376C30.2956 59.7293 30.3032 60.9525 30.3633 62.4836C30.6327 69.8189 31.7762 74.4818 32.5942 76.9391C32.7801 77.065 32.9741 77.1889 33.1657 77.3111C33.9486 77.7977 34.7595 78.2377 35.5941 78.6289Z" fill="#F5E600"/>
<path d="M35.6991 78.7422L35.5693 78.6784C34.7768 78.3086 34.0068 77.8925 33.2631 77.4323L33.1352 77.349C32.9184 77.2131 32.732 77.0913 32.5597 76.975L32.5444 76.9674L32.5368 76.9518C31.6686 74.3201 30.5756 69.6765 30.3023 62.4806C30.2558 61.1996 30.2422 60.1356 30.2422 59.469C30.2422 59.3063 30.2422 59.1588 30.2462 59.0309V57.9473C30.2422 57.8214 30.2422 57.6739 30.2422 57.5112C30.2422 56.8446 30.2558 55.7806 30.3023 54.4996C30.5716 47.3037 31.6686 42.6564 32.5368 40.0284L32.5444 40.0128L32.5597 39.9972C32.7324 39.885 32.9144 39.7607 33.1352 39.6252L33.2631 39.5439C34.0093 39.0826 34.7825 38.6561 35.5693 38.2998L35.6991 38.234L35.641 38.3655C34.9452 39.9507 32.643 46.1234 32.7184 58.3481V58.6195C32.7144 58.8054 32.7144 58.9918 32.7144 59.1777C32.7144 71.0305 34.9529 77.0424 35.641 78.6024L35.6991 78.7422ZM33.0964 77.1899L33.1874 77.25C33.9296 77.7133 34.6991 78.1434 35.4819 78.5117C34.736 76.7578 32.6038 70.7323 32.6038 59.1781V58.4046C32.5245 46.4488 34.7204 40.2416 35.4819 38.4549C34.6929 38.8305 33.9267 39.2525 33.1874 39.7186L33.0595 39.8039V39.7963C32.9064 39.8969 32.7706 39.9899 32.6387 40.0753C31.7706 42.6993 30.6872 47.3273 30.4179 54.4943C30.3772 55.497 30.3572 56.5004 30.3578 57.5039V59.4554C30.3578 60.1239 30.3654 61.186 30.4179 62.4653C30.6832 69.634 31.7706 74.262 32.6387 76.8843C32.7785 76.9883 32.926 77.0833 33.0964 77.1899Z" fill="#101211"/>
<path d="M32.221 58.4152V58.5703C32.1416 70.2274 34.217 76.3868 35.035 78.3596C35.2229 78.4506 35.4089 78.5416 35.5952 78.6289C34.8822 77.0105 32.5873 70.8302 32.667 58.5703H32.671V58.4152H32.667C32.5876 46.1552 34.8862 39.9693 35.5952 38.3492C35.4089 38.4422 35.2193 38.5355 35.035 38.6285C34.2133 40.5973 32.1452 46.7583 32.221 58.4152Z" fill="#F5E600"/>
<path d="M35.701 78.7422L35.5711 78.6784C35.3812 78.5911 35.1932 78.5001 35.0072 78.4051L34.988 78.3975L34.9803 78.3762C34.1178 76.2968 32.0869 70.1494 32.1663 58.5676V58.4086C32.0869 46.8311 34.1178 40.6834 34.9803 38.5984L34.988 38.5788L35.0072 38.5671C35.1935 38.4778 35.3812 38.3812 35.5711 38.2998L35.701 38.234L35.6429 38.3619C34.9471 39.951 32.6449 46.1237 32.7203 58.3485V58.6178C32.6486 70.8389 34.9511 77.0155 35.6429 78.6027L35.701 78.7422ZM35.075 78.3138C35.2145 78.3835 35.3443 78.4476 35.4878 78.5154C34.7263 76.7246 32.5343 70.5171 32.6097 58.5673V57.7922C32.6097 46.2396 34.7379 40.2144 35.4878 38.4625C35.3483 38.5246 35.2184 38.5904 35.075 38.6638C34.2301 40.7182 32.2766 46.6637 32.2766 57.7918V58.6215C32.2088 70.1122 34.2128 76.2208 35.075 78.3138Z" fill="#101211"/>
<path d="M30.7486 58.5683C30.7486 58.545 30.7486 58.4368 30.7526 58.4132H30.7486C30.6848 48.3588 32.2155 42.3937 33.1614 39.6803C32.9683 39.799 32.7777 39.9218 32.5898 40.0487C31.6403 42.9204 30.2388 48.7929 30.3029 58.4128V58.5679C30.2388 68.1883 31.64 74.0623 32.5898 76.9288C32.7758 77.0547 32.9698 77.1786 33.1614 77.3008C32.2159 74.5881 30.6888 68.621 30.7486 58.5683Z" fill="#F5E600"/>
<path d="M33.2688 77.4336L33.1373 77.3502C32.9204 77.2144 32.7321 77.0925 32.5617 76.9763L32.5465 76.9686L32.5388 76.953C31.6647 74.3134 30.1898 68.3676 30.2519 58.5729V58.4138C30.1898 48.6095 31.6647 42.6733 32.5388 40.034L32.5465 40.0184L32.5617 40.0068C32.7381 39.8869 32.9241 39.7627 33.1373 39.6348L33.2688 39.5494L33.2127 39.7006C32.3117 42.2781 30.8039 48.0708 30.8039 57.8034C30.8039 57.9894 30.8039 58.1753 30.8079 58.3617V58.633C30.8039 58.819 30.8039 59.0053 30.8039 59.1913C30.8039 68.9199 32.3157 74.7109 33.2127 77.2941L33.2688 77.4336ZM32.6411 76.8929C32.769 76.9763 32.9048 77.0693 33.0579 77.1682C32.1333 74.4489 30.6335 68.4994 30.6936 58.5649V58.4058C30.6295 48.4717 32.1297 42.5219 33.0579 39.8052C32.9088 39.8978 32.773 39.9912 32.6411 40.0762C31.769 42.7122 30.308 48.6131 30.3642 58.3497V58.6191C30.3077 68.3596 31.769 74.2593 32.6411 76.8929Z" fill="#101211"/>
<path d="M54.9981 78.3438C55.6951 77.992 56.3731 77.6039 57.0293 77.181C55.8739 73.8111 54.7192 68.0548 54.6959 58.4946C54.7192 48.9284 55.8743 43.175 57.0293 39.8067C56.3718 39.3859 55.6939 38.9977 54.9981 38.6436C52.2383 45.9132 52.2383 58.4946 52.2383 58.4946C52.2383 58.4946 52.2386 71.0721 54.9981 78.3438Z" fill="#F5E600"/>
<path d="M57.1022 39.7815L57.0866 39.8204C56.0361 42.8825 54.784 48.6127 54.7532 58.4928C54.7844 68.3708 56.0361 74.0998 57.0866 77.1638L57.1022 77.2027L57.0633 77.2259C56.4034 77.6509 55.7216 78.041 55.0208 78.3946L54.9627 78.4219L54.9395 78.3618C52.2108 71.1659 52.1836 58.615 52.1836 58.4891C52.1836 58.3612 52.2145 45.8127 54.9395 38.6151L54.9627 38.557L55.0208 38.5879C55.7227 38.9388 56.4045 39.3283 57.0633 39.7546L57.1022 39.7815ZM55.0321 78.2664C55.6948 77.9263 56.3415 77.5557 56.97 77.1559C55.9159 74.0705 54.6678 68.3399 54.6446 58.4888C54.6678 48.638 55.9159 42.9054 56.97 39.8204C56.3408 39.4223 55.6942 39.0524 55.0321 38.7118C52.3267 45.8997 52.2958 58.3612 52.2958 58.4888C52.2958 58.615 52.3267 71.0785 55.0321 78.2664Z" fill="#101211"/>
<path d="M55.3695 78.1523C55.8096 77.9188 56.2414 77.6699 56.664 77.4061C55.4857 74.0707 54.2765 68.2723 54.2532 58.4889C54.2762 48.7039 55.4897 42.9055 56.664 39.5724C56.2414 39.3092 55.8096 39.061 55.3695 38.8282C52.6797 46.1207 52.6797 58.4893 52.6797 58.4893C52.6797 58.4893 52.6797 70.8518 55.3695 78.1523Z" fill="#F5E600"/>
<path d="M56.7375 39.5479L56.7222 39.5865C55.6365 42.6565 54.3346 48.4296 54.3111 58.488C54.3383 68.5484 55.6365 74.3159 56.7222 77.3876L56.7375 77.4321L56.699 77.4553C56.2727 77.7176 55.8383 77.9665 55.3964 78.2016L55.3423 78.2305L55.319 78.1704C52.6601 70.9456 52.6289 58.6139 52.6289 58.4917C52.6289 58.3678 52.6601 46.0321 55.319 38.8113L55.3423 38.7532L55.3964 38.7877C55.8398 39.0193 56.2743 39.2676 56.699 39.532L56.7375 39.5479ZM54.1952 58.488C54.226 48.4589 55.513 42.6797 56.598 39.5944C56.2067 39.3532 55.8085 39.1232 55.404 38.9046C52.7684 46.1158 52.7335 58.3641 52.7335 58.488C52.7335 58.6102 52.7684 70.8586 55.404 78.0717C55.8084 77.8536 56.2066 77.6242 56.598 77.3836C55.5126 74.2963 54.2257 68.5172 54.1952 58.488Z" fill="#101211"/>
<path d="M58.6514 40.9535C57.4998 40.0532 56.261 39.2703 54.9537 38.6164C53.8062 39.1939 49.3101 42.2713 40.6549 57.3589C32.3912 71.7623 31.8795 75.5763 31.9784 76.5025C33.0963 77.3119 34.2868 78.0159 35.5347 78.6055C35.5832 77.272 36.6433 72.9735 44.2191 59.7564C53.2406 44.0391 57.7441 41.3606 58.6514 40.9535Z" fill="#F5E600"/>
<path d="M58.7582 40.9683L58.6728 41.0069C57.8588 41.3715 53.3391 43.9839 44.277 59.7862C36.5694 73.2225 35.6411 77.4261 35.5966 78.608L35.5926 78.6914L35.5133 78.6565C34.2606 78.0654 33.0661 77.3583 31.9454 76.5443L31.9258 76.5327L31.9218 76.5094C31.9181 76.4457 31.9102 76.3779 31.9102 76.3062C31.9102 75.1587 32.759 71.0153 40.6062 57.3349C49.2421 42.2785 53.7499 39.1699 54.9282 38.5692L54.9515 38.5579L54.9827 38.5692C56.2894 39.2301 57.53 40.0141 58.6878 40.9105L58.7582 40.9683ZM35.49 78.5174C35.581 76.9571 36.8756 72.4649 44.1781 59.7281C52.9907 44.3675 57.533 41.4409 58.5486 40.9448C57.4246 40.0773 56.2202 39.3194 54.9518 38.6814C53.7502 39.3015 49.2697 42.4565 40.7052 57.3907C32.8736 71.0478 32.0247 75.168 32.0247 76.3058C32.0247 76.366 32.0287 76.4221 32.0324 76.4722C33.1214 77.256 34.2786 77.9405 35.49 78.5174Z" fill="#101211"/>
<path d="M43.8613 59.5335C36.5588 72.2664 35.241 76.8147 35.0898 78.3866C35.2373 78.4623 35.3924 78.5337 35.5375 78.6055C35.586 77.272 36.6461 72.9735 44.2216 59.7564C53.2358 44.0391 57.7433 41.361 58.6466 40.9538C58.5071 40.8452 58.3716 40.7369 58.2242 40.6283C56.922 41.3337 52.3866 44.6751 43.8613 59.5335Z" fill="#F5E600"/>
<path d="M58.7607 40.9683L58.6754 41.0069C57.8614 41.3715 53.3416 43.9839 44.2796 59.7862C36.5719 73.2225 35.6438 77.4261 35.5993 78.608L35.5952 78.6914L35.5159 78.6565C35.3648 78.5848 35.2152 78.5094 35.0681 78.4377L35.0312 78.4221L35.0352 78.3812C35.1863 76.7824 36.5314 72.2026 43.8107 59.5089C52.4117 44.5223 57.0009 41.2357 58.1988 40.5844L58.2333 40.5648L58.2566 40.5844C58.4037 40.6927 58.5432 40.8053 58.687 40.9099L58.7607 40.9683ZM35.4926 78.5174C35.5836 76.9571 36.8781 72.4649 44.1806 59.7281C52.9933 44.3675 57.5357 41.4409 58.5513 40.9448C58.443 40.8594 58.3343 40.7741 58.2257 40.6927C56.9856 41.3788 52.4197 44.7242 43.9153 59.561C36.6981 72.1388 35.3218 76.7263 35.1555 78.3503C35.2617 78.4108 35.3763 78.4652 35.4926 78.5174Z" fill="#101211"/>
<path d="M41.0132 57.6347C49.3413 43.1154 53.8607 39.5997 55.2871 38.782C55.1785 38.7236 55.0699 38.6654 54.9537 38.6113C53.8062 39.1928 49.3101 42.2702 40.6549 57.3538C32.3912 71.7572 31.8795 75.5712 31.9784 76.4974C32.0618 76.5556 32.1451 76.6157 32.2285 76.6758C32.2919 75.2982 33.3969 70.9199 41.0132 57.6347Z" fill="#F5E600"/>
<path d="M55.4014 38.7811L55.3121 38.8353C53.7658 39.723 49.2929 43.3238 41.0658 57.6667C33.5809 70.7175 32.3584 75.1827 32.2903 76.6825L32.2867 76.7852L32.1352 76.6785C32.0731 76.634 32.013 76.5912 31.9493 76.5467L31.9297 76.5351L31.9257 76.5118C31.9217 76.4481 31.9141 76.3803 31.9141 76.3082C31.9141 75.1608 32.7629 71.0173 40.6101 57.3369C49.2461 42.2766 53.7498 39.168 54.9282 38.5712L54.9514 38.5599L54.986 38.5712C55.0753 38.6257 55.1799 38.6722 55.2769 38.7263L55.4014 38.7811ZM32.1841 76.5763C32.2947 74.9715 33.6281 70.4039 40.9671 57.6109C49.0641 43.5024 53.5413 39.7579 55.1729 38.7888C55.0992 38.7502 55.0335 38.7117 54.9521 38.6805C53.7505 39.3005 49.27 42.4556 40.7054 57.3898C32.8739 71.0469 32.025 75.1671 32.025 76.3049C32.025 76.365 32.029 76.4212 32.0326 76.4713C32.0811 76.5045 32.1316 76.5394 32.1841 76.5763Z" fill="#101211"/>
<path d="M53.9449 69.8825C58.2158 67.6557 60.3789 63.8281 60.3789 58.4907C60.3789 53.1556 58.2158 49.3257 53.9449 47.0992C50.7469 45.4363 47.4949 45.3453 47.464 45.3453H30.0078V71.6367H47.4713C47.4949 71.6367 50.7506 71.5494 53.9449 69.8825Z" fill="white"/>
<path d="M30.0158 45.3433H47.466C47.4969 45.3433 50.7526 45.4343 53.9469 47.0972C55.819 48.0699 57.3072 49.3878 58.3733 51.0022C59.7067 53.031 60.3809 55.5468 60.3809 58.4847C60.3809 61.4209 59.7067 63.9423 58.3733 65.9655C57.3032 67.5856 55.815 68.8997 53.9469 69.8705C50.753 71.539 47.4969 71.6264 47.4737 71.6264H30.0158V45.3433ZM29.793 45.1204V71.8516H47.4737C47.4737 71.8516 60.6097 71.5782 60.6097 58.485C60.6097 45.3898 47.4737 45.1168 47.4737 45.1168H29.793V45.1204Z" fill="black"/>
<path d="M53.9919 69.9806C56.9607 68.4396 60.4884 65.1935 60.4884 58.4898C60.4884 51.7824 56.953 48.534 53.9843 46.9957C50.7555 45.3212 47.5034 45.2318 47.4649 45.2318H29.8984V71.7461H47.4725C47.5034 71.7461 50.7671 71.6591 53.9919 69.9806ZM35.5709 66.0792V50.9007H47.3407C47.6818 50.9239 49.7402 51.0986 51.612 52.1547C53.1082 52.992 54.8215 54.4726 54.8215 58.4901C54.8215 62.5057 53.1082 63.9863 51.612 64.8275C49.7399 65.88 47.6818 66.0583 47.3407 66.0796L35.5709 66.0792Z" fill="black"/>
<path d="M53.9919 69.9806C56.9607 68.4396 60.4884 65.1935 60.4884 58.4898C60.4884 51.7824 56.953 48.534 53.9843 46.9957C50.7555 45.3212 47.5034 45.2318 47.4649 45.2318H29.8984V71.7461H47.4725C47.5034 71.7461 50.7671 71.6591 53.9919 69.9806ZM35.4354 66.2131V50.7652H47.3487C47.6821 50.7904 49.7635 50.9648 51.6741 52.0325C52.6588 52.5828 53.3875 53.2593 53.9145 54.0966C54.6043 55.2108 54.961 56.6838 54.961 58.4901C54.961 60.2965 54.6043 61.7674 53.9145 62.8797C53.3835 63.7169 52.6588 64.3914 51.6741 64.9438C49.7674 66.0115 47.6818 66.1862 47.3487 66.2094H35.4354V66.2131Z" fill="#E32121"/>
<path d="M53.9919 69.9806C56.9607 68.4396 60.4884 65.1935 60.4884 58.4898C60.4884 51.7824 56.953 48.534 53.9843 46.9957C50.7555 45.3212 47.5034 45.2318 47.4649 45.2318H29.8984V71.7461H47.4725C47.5034 71.7461 50.7671 71.6591 53.9919 69.9806ZM30.5902 71.0599V45.9236H47.4573C47.62 45.9236 50.6509 46.0382 53.6665 47.6058C57.7365 49.722 59.8059 53.3812 59.8059 58.4895C59.8059 63.5768 57.7514 67.23 53.7129 69.3482C50.6974 70.9318 47.612 71.0516 47.4569 71.0593L30.5902 71.0599Z" fill="black"/>
<path d="M53.9919 69.9806C56.9607 68.4396 60.4884 65.1935 60.4884 58.4898C60.4884 51.7824 56.953 48.534 53.9843 46.9957C50.7555 45.3212 47.5034 45.2318 47.4649 45.2318H29.8984V71.7461H47.4725C47.5034 71.7461 50.7671 71.6591 53.9919 69.9806ZM30.4584 71.1898V45.7921H47.4649C47.612 45.7961 50.6857 45.9084 53.7282 47.4919C55.5343 48.4278 56.9686 49.6934 57.9919 51.2457C59.2865 53.1992 59.9377 55.6393 59.9377 58.4938C59.9377 61.335 59.2865 63.7691 58.0072 65.7169C56.9916 67.2732 55.5651 68.5346 53.7667 69.4764C50.7199 71.0716 47.6037 71.1898 47.4642 71.1935H30.4584V71.1898Z" fill="white"/>
<path d="M33.487 56.8849L33.4773 58.4896L33.487 60.0924L34.8881 60.2631V56.7146L33.487 56.8849ZM34.9154 56.6833V60.2997C34.9154 60.3579 34.9659 60.4062 35.022 60.4062C35.0781 60.4062 35.1286 60.3579 35.1286 60.2997V56.6833C35.1286 56.6231 35.0781 56.5767 35.022 56.5767C34.9659 56.5767 34.9154 56.6195 34.9154 56.6833ZM33.2641 56.7939V60.1834C33.273 60.2011 33.2865 60.2161 33.3033 60.2267C33.32 60.2372 33.3393 60.2431 33.3591 60.2435C33.3731 60.2436 33.387 60.2408 33.3999 60.2355C33.4129 60.2301 33.4247 60.2224 33.4346 60.2125C33.4445 60.2026 33.4523 60.1907 33.4577 60.1778C33.463 60.1648 33.4657 60.1509 33.4657 60.1369V56.8461C33.4654 56.8179 33.4541 56.7909 33.4342 56.771C33.4143 56.7511 33.3873 56.7396 33.3591 56.7394C33.3397 56.7383 33.3204 56.743 33.3035 56.7527C33.2867 56.7623 33.273 56.7766 33.2641 56.7939ZM31.9812 56.6484H31.5859V56.9217H31.7875V57.1081H31.5899V57.3871H31.7875V57.5733H31.5859V57.8467H31.9812C32.1286 57.8467 32.1363 57.676 32.1363 57.676L32.9386 57.7068V58.0324L31.4056 58.0653C31.4056 58.0653 31.4016 57.8948 31.2565 57.8948H30.8477V58.1642H31.0532V58.3501H30.8556V58.6276H31.0532V58.8154H30.8477V59.0889H31.2565C31.402 59.0889 31.4056 58.9184 31.4056 58.9184L32.9386 58.9494V59.2747L32.1439 59.3081C32.1439 59.3081 32.1363 59.1372 31.9888 59.1372H31.5856V59.4102H31.7872V59.5963H31.5896V59.8752H31.7872V60.0616H31.5856V60.3309H31.9888C32.1359 60.3309 32.1439 60.1602 32.1439 60.1602L32.9386 60.191V60.2279C32.9386 60.288 32.9911 60.3309 33.0453 60.3309C33.1014 60.3309 33.1519 60.2824 33.1519 60.2279V56.7626C33.1521 56.7484 33.1496 56.7343 33.1444 56.721C33.1391 56.7077 33.1314 56.6955 33.1215 56.6853C33.1116 56.675 33.0997 56.6668 33.0867 56.6611C33.0736 56.6554 33.0595 56.6524 33.0453 56.6521C33.0168 56.6537 32.9899 56.6658 32.9702 56.6863C32.9504 56.7069 32.9391 56.7341 32.9386 56.7626V56.79L32.1363 56.8265C32.1363 56.8232 32.1286 56.6484 31.9812 56.6484Z" fill="#F5E600"/>
<path d="M32.3903 59.8102C32.3358 59.7949 32.3109 59.7693 32.3109 59.7308C32.3109 59.6939 32.3362 59.6667 32.3903 59.6514C32.4162 59.6443 32.4429 59.6404 32.4697 59.6398H32.6773V59.8182H32.4697C32.47 59.8218 32.4312 59.8218 32.3903 59.8102ZM32.3903 57.3257C32.3358 57.31 32.3109 57.2811 32.3109 57.2463C32.3109 57.2094 32.3362 57.1825 32.3903 57.1669C32.4162 57.1598 32.4429 57.1559 32.4697 57.1553H32.6773V57.3336H32.4697C32.47 57.3373 32.4312 57.3373 32.3903 57.3257ZM31.9194 58.5678C31.8553 58.5525 31.832 58.5272 31.832 58.4884C31.832 58.4479 31.8593 58.4246 31.9194 58.409C31.9659 58.3974 32.0104 58.3974 32.0104 58.3974H32.2605V58.5794H32.0104C32.0144 58.5794 31.9659 58.5794 31.9194 58.5678Z" fill="black"/>
<path d="M34.8149 56.6752L33.5764 56.8226C33.5706 56.7693 33.5456 56.72 33.5059 56.684C33.4663 56.6479 33.4148 56.6277 33.3612 56.627C33.3187 56.6255 33.277 56.6385 33.243 56.6639C33.2248 56.6276 33.1969 56.5971 33.1623 56.5758C33.1277 56.5546 33.0879 56.5434 33.0474 56.5436C32.9936 56.5431 32.9417 56.5631 32.9022 56.5994C32.8626 56.6357 32.8383 56.6857 32.8341 56.7393L32.1673 56.7625C32.15 56.6831 32.0955 56.5918 31.9716 56.5918H31.5316V56.9777H31.7255V57.0571H31.5356V57.4447H31.7255V57.524H31.5316V57.9056H31.9716C32.0955 57.9056 32.15 57.8146 32.1673 57.7353L32.8302 57.7585V57.9814L31.4326 58.0122C31.4134 57.9329 31.3569 57.8419 31.233 57.8419H30.793V58.2235H30.9906V58.3028H30.8006V58.6904H30.9906V58.7698H30.793V59.1517H31.233C31.3572 59.1517 31.4134 59.0567 31.4326 58.981L32.8302 59.0119V59.2311L32.1673 59.2583C32.15 59.179 32.0955 59.0876 31.9716 59.0876H31.5316V59.4696H31.7255V59.5493H31.5356V59.9368H31.7255V60.0162H31.5316V60.3978H31.9716C32.0955 60.3978 32.15 60.3068 32.1673 60.2311L32.8341 60.2543C32.8377 60.3079 32.8619 60.358 32.9017 60.3941C32.9415 60.4303 32.9937 60.4495 33.0474 60.448C33.1307 60.448 33.2064 60.4015 33.243 60.3297C33.2777 60.3537 33.319 60.3666 33.3612 60.3666C33.4678 60.3666 33.5648 60.2812 33.5764 60.171L34.8149 60.3181C34.8156 60.3741 34.8384 60.4275 34.8783 60.4667C34.9183 60.5059 34.9721 60.5277 35.0281 60.5273C35.1483 60.5273 35.2469 60.4324 35.2469 60.3101V56.6938C35.247 56.665 35.2414 56.6365 35.2304 56.6099C35.2194 56.5834 35.2033 56.5592 35.1829 56.5389C35.1626 56.5186 35.1385 56.5024 35.1119 56.4915C35.0853 56.4805 35.0568 56.4749 35.0281 56.4749C34.9095 56.4639 34.8149 56.5549 34.8149 56.6752ZM33.8418 58.4699L33.8301 58.4892L33.8418 58.5088C34.0354 58.9973 34.6229 59.0571 34.8109 59.0611V59.3151C34.5996 59.3075 33.8458 59.2278 33.5801 58.5244V58.4486C33.8418 57.7392 34.5993 57.6675 34.8109 57.6599V57.9136C34.6229 57.9212 34.0317 57.9814 33.8418 58.4699ZM34.8109 58.0239V58.9521C34.6422 58.9445 34.1227 58.89 33.9484 58.4888C34.1227 58.088 34.6442 58.0318 34.8109 58.0239ZM33.5801 58.7741C33.9251 59.3497 34.6073 59.4138 34.8109 59.4254V60.1946L33.5801 60.0491V58.7741ZM34.8109 57.5569C34.6073 57.5646 33.9251 57.6343 33.5801 58.2062V56.9289L34.8109 56.7818V57.5569ZM31.9753 57.7894H31.6422V57.6227H31.8378V57.3301H31.6458V57.1594H31.8378V56.8648H31.6422V56.6981H31.9753C32.0587 56.6981 32.0663 56.8047 32.0663 56.8223V57.6712C32.0666 57.6828 32.0587 57.7894 31.9753 57.7894ZM32.8341 56.8455V57.6479L32.1789 57.6227V56.8728L32.8341 56.8455ZM31.237 59.0318H30.9036V58.8651H31.1035V58.5725H30.9115V58.4021H31.1035V58.1076H30.9036V57.9448H31.237C31.3243 57.9448 31.328 58.0534 31.332 58.0651V58.9103C31.332 58.9252 31.3283 59.0318 31.237 59.0318ZM32.8302 58.088V58.8943L31.4446 58.8615V58.1152L32.8302 58.088ZM31.9753 60.2739H31.6422V60.1112H31.8378V59.8186H31.6458V59.6479H31.8378V59.3533H31.6422V59.1869H31.9753C32.0587 59.1869 32.0663 59.2955 32.0663 59.3111V60.156C32.0666 60.1673 32.0587 60.2739 31.9753 60.2739ZM32.8341 59.3301V60.1364L32.1789 60.1112V59.361L32.8341 59.3301ZM33.047 60.3264C32.9969 60.3264 32.956 60.2915 32.9444 60.243C32.9444 60.2354 32.9404 60.2274 32.9404 60.2198V56.7545C32.9404 56.7263 32.9516 56.6991 32.9716 56.6792C32.9916 56.6592 33.0187 56.6479 33.047 56.6479C33.0753 56.6479 33.1024 56.6592 33.1224 56.6792C33.1424 56.6991 33.1536 56.7263 33.1536 56.7545V60.2198C33.1596 60.2839 33.1075 60.3264 33.047 60.3264ZM33.3612 60.243C33.3167 60.243 33.2818 60.2198 33.2662 60.1829V56.7931C33.2755 56.7759 33.2892 56.7614 33.3059 56.7512C33.3226 56.741 33.3416 56.7354 33.3612 56.7349C33.4213 56.7349 33.4678 56.7814 33.4678 56.8415V60.1325C33.4686 60.1468 33.4664 60.1612 33.4614 60.1747C33.4563 60.1883 33.4486 60.2006 33.4386 60.211C33.4286 60.2213 33.4165 60.2295 33.4032 60.2351C33.3899 60.2406 33.3756 60.2433 33.3612 60.243ZM35.1344 56.6828V60.2992C35.1338 60.3273 35.1224 60.3541 35.1026 60.374C35.0827 60.3939 35.0559 60.4053 35.0277 60.4058C34.9736 60.4058 34.9211 60.3573 34.9211 60.2992V56.6828C34.9211 56.6227 34.9736 56.5762 35.0277 56.5762C35.0842 56.5762 35.1344 56.619 35.1344 56.6828Z" fill="black"/>
<path d="M33.487 66.9998L33.4773 68.6026L33.487 70.2073L34.8881 70.3741V66.8294L33.487 66.9998ZM34.9154 66.7926V70.4129C34.9154 70.473 34.9659 70.5195 35.022 70.5195C35.0781 70.5195 35.1286 70.473 35.1286 70.4129V66.7926C35.1286 66.7344 35.0781 66.6859 35.022 66.6859C34.9659 66.6859 34.9154 66.7344 34.9154 66.7926ZM33.2641 66.9088V70.2983C33.2734 70.3155 33.2871 70.33 33.3038 70.3402C33.3205 70.3504 33.3395 70.356 33.3591 70.3565C33.4192 70.3565 33.4657 70.31 33.4657 70.2499V66.9553C33.4654 66.9271 33.4541 66.9001 33.4342 66.8802C33.4143 66.8603 33.3873 66.8489 33.3591 66.8487C33.3393 66.8491 33.32 66.8549 33.3033 66.8655C33.2865 66.8761 33.273 66.8911 33.2641 66.9088ZM31.9812 66.7613H31.5859V67.0347H31.7875V67.221H31.5899V67.5H31.7875V67.6863H31.5859V67.9593H31.9812C32.1286 67.9593 32.1363 67.7886 32.1363 67.7886L32.9386 67.8214V68.1469L31.4056 68.1778C31.4056 68.1778 31.4016 68.0074 31.2565 68.0074H30.8477V68.2804H31.0532V68.4667H30.8556V68.7457H31.0532V68.9317H30.8477V69.205H31.2565C31.402 69.205 31.4056 69.0307 31.4056 69.0307L32.9386 69.0675V69.393L32.1439 69.4242C32.1439 69.4242 32.1363 69.2535 31.9888 69.2535H31.5856V69.5268H31.7872V69.7148H31.5896V69.9921H31.7872V70.1781H31.5856V70.4478H31.9888C32.1359 70.4478 32.1439 70.2771 32.1439 70.2771L32.9386 70.31V70.3409C32.9392 70.3689 32.9507 70.3957 32.9705 70.4156C32.9904 70.4354 33.0172 70.4469 33.0453 70.4475C33.1014 70.4475 33.1519 70.401 33.1519 70.3409V66.8719C33.1516 66.8437 33.1403 66.8168 33.1203 66.7968C33.1004 66.7769 33.0734 66.7656 33.0453 66.7653C33.0175 66.7669 32.9913 66.7786 32.9716 66.7983C32.952 66.818 32.9402 66.8442 32.9386 66.8719V66.9051L32.1363 66.9397C32.1363 66.936 32.1286 66.7613 31.9812 66.7613Z" fill="#F5E600"/>
<path d="M32.3903 69.9196C32.3358 69.9043 32.3109 69.8807 32.3109 69.8402C32.3109 69.8013 32.3362 69.7764 32.3903 69.7608C32.4162 69.7537 32.4429 69.7498 32.4697 69.7492H32.6773V69.9275H32.4697C32.47 69.9312 32.4312 69.9312 32.3903 69.9196ZM32.3903 67.435C32.3358 67.4194 32.3109 67.3905 32.3109 67.3556C32.3109 67.3208 32.3362 67.2919 32.3903 67.2763C32.4162 67.2691 32.4429 67.2652 32.4697 67.2646H32.6773V67.443H32.4697C32.47 67.4466 32.4312 67.4466 32.3903 67.435ZM31.9194 68.6771C31.8553 68.6619 31.832 68.6386 31.832 68.5978C31.832 68.5592 31.8593 68.534 31.9194 68.5184C31.9659 68.5068 32.0104 68.5068 32.0104 68.5068H32.2605V68.6851H32.0104C32.0144 68.6891 31.9659 68.6891 31.9194 68.6771Z" fill="black"/>
<path d="M34.8149 66.7855L33.5764 66.937C33.5709 66.8838 33.5458 66.8345 33.5061 66.7987C33.4663 66.763 33.4147 66.7432 33.3612 66.7434C33.3191 66.7421 33.2777 66.7543 33.243 66.7782C33.2256 66.7412 33.1979 66.71 33.1632 66.6883C33.1285 66.6666 33.0883 66.6554 33.0474 66.656C32.994 66.6555 32.9423 66.6751 32.9028 66.711C32.8633 66.7469 32.8387 66.7964 32.8341 66.8496L32.1673 66.8769C32.15 66.7975 32.0955 66.7062 31.9716 66.7062H31.5316V67.0921H31.7255V67.1714H31.5356V67.555H31.7255V67.6344H31.5316V68.016H31.9716C32.0955 68.016 32.15 67.925 32.1673 67.8456L32.8302 67.8729V68.0957L31.4326 68.1266C31.4134 68.0472 31.3569 67.9562 31.233 67.9562H30.793V68.3378H30.9906V68.4172H30.8006V68.8031H30.9906V68.8805H30.793V69.2545H31.233C31.3572 69.2545 31.4134 69.1595 31.4326 69.0838L32.8302 69.115V69.3338L32.1673 69.3611C32.15 69.2817 32.0955 69.1907 31.9716 69.1907H31.5316V69.5723H31.7255V69.6517H31.5356V70.0392H31.7255V70.119H31.5316V70.5009H31.9716C32.0955 70.5009 32.15 70.4099 32.1673 70.3345L32.8341 70.3617C32.8376 70.4155 32.8618 70.4659 32.9015 70.5023C32.9412 70.5388 32.9935 70.5585 33.0474 70.5573C33.1307 70.5573 33.2064 70.5089 33.243 70.4371C33.2773 70.4619 33.3188 70.4749 33.3612 70.474C33.4148 70.4733 33.4663 70.453 33.5059 70.417C33.5456 70.381 33.5706 70.3316 33.5764 70.2784L34.8149 70.4255C34.8149 70.4534 34.8205 70.481 34.8313 70.5067C34.8421 70.5324 34.8578 70.5557 34.8776 70.5754C34.8974 70.595 34.9209 70.6105 34.9467 70.621C34.9726 70.6316 35.0002 70.6369 35.0281 70.6367C35.1483 70.6367 35.2469 70.5417 35.2469 70.4175V66.7975C35.2469 66.7688 35.2413 66.7405 35.2302 66.714C35.2192 66.6876 35.2031 66.6636 35.1827 66.6434C35.1624 66.6233 35.1382 66.6073 35.1117 66.5966C35.0851 66.5858 35.0567 66.5804 35.0281 66.5806C35.0005 66.5796 34.973 66.5841 34.9472 66.594C34.9214 66.6038 34.8979 66.6187 34.878 66.6378C34.8581 66.657 34.8422 66.6799 34.8314 66.7053C34.8206 66.7306 34.8149 66.7579 34.8149 66.7855ZM33.8418 68.5843L33.8301 68.6035L33.8418 68.6231C34.0354 69.1153 34.6229 69.1714 34.8109 69.1794V69.4295C34.5996 69.4218 33.8458 69.3421 33.5801 68.6407V68.569C33.8418 67.8576 34.5993 67.7862 34.8109 67.7782V68.0283C34.6229 68.0356 34.0317 68.0957 33.8418 68.5843ZM34.8109 68.1346V69.0688C34.6422 69.0612 34.1227 69.0047 33.9484 68.6035C34.1227 68.2023 34.6442 68.1442 34.8109 68.1346ZM33.5801 68.8865C33.9251 69.462 34.6073 69.5281 34.8109 69.5358V70.3109L33.5801 70.1638V68.8865ZM34.8109 67.6713C34.6073 67.6789 33.9251 67.7507 33.5801 68.3225V67.0433L34.8109 66.8961V67.6713ZM31.9753 67.9057H31.6422V67.739H31.8378V67.4444H31.6458V67.2777H31.8378V66.9851H31.6422V66.8164H31.9753C32.0587 66.8164 32.0663 66.925 32.0663 66.9366V67.7852C32.0666 67.7975 32.0587 67.9057 31.9753 67.9057ZM32.8341 66.9562V67.7586L32.1789 67.7314V66.9855L32.8341 66.9562ZM31.237 69.1482H30.9036V68.9815H31.1035V68.6869H30.9115V68.5202H31.1035V68.2276H30.9036V68.0589H31.237C31.3243 68.0589 31.328 68.1675 31.332 68.1791V69.0283C31.332 69.0396 31.3283 69.1482 31.237 69.1482ZM32.8302 68.1987V69.0087L31.4446 68.9778V68.2316L32.8302 68.1987ZM31.9753 70.3903H31.6422V70.2276H31.8378V69.933H31.6458V69.7623H31.8378V69.4697H31.6422V69.3033H31.9753C32.0587 69.3033 32.0663 69.4099 32.0663 69.4215V70.2664C32.0666 70.282 32.0587 70.3903 31.9753 70.3903ZM32.8341 69.4408V70.2471L32.1789 70.2199V69.4737L32.8341 69.4408ZM33.047 70.4408C32.9969 70.4408 32.956 70.4059 32.9444 70.3574C32.9444 70.3498 32.9404 70.3418 32.9404 70.3342V66.8689C32.9404 66.8088 32.9929 66.7623 33.047 66.7623C33.1031 66.7623 33.1536 66.8088 33.1536 66.8689V70.3342C33.1596 70.3983 33.1075 70.4408 33.047 70.4408ZM33.3612 70.3574C33.3167 70.3574 33.2818 70.3342 33.2662 70.2993V66.9094C33.2751 66.8917 33.2886 66.8767 33.3054 66.8662C33.3221 66.8556 33.3414 66.8497 33.3612 66.8493C33.4213 66.8493 33.4678 66.8958 33.4678 66.9559V70.2505C33.4718 70.3109 33.4213 70.3574 33.3612 70.3574ZM35.1344 66.7935V70.4139C35.1342 70.4421 35.1229 70.4691 35.1029 70.4891C35.083 70.509 35.056 70.5203 35.0277 70.5205C34.9736 70.5205 34.9211 70.474 34.9211 70.4139V66.7935C34.9211 66.7354 34.9736 66.6869 35.0277 66.6869C35.0842 66.6869 35.1344 66.7354 35.1344 66.7935Z" fill="black"/>
<path d="M43.6864 66.9998L43.6788 68.6025L43.6864 70.2073L45.0916 70.374V66.8294L43.6864 66.9998ZM45.1225 66.7925V70.4129C45.1224 70.4271 45.1252 70.4412 45.1306 70.4543C45.1361 70.4675 45.1442 70.4794 45.1543 70.4893C45.1645 70.4993 45.1766 70.5071 45.1898 70.5122C45.2031 70.5174 45.2172 70.5199 45.2314 70.5195C45.2856 70.5195 45.34 70.473 45.34 70.4129V66.7925C45.34 66.7344 45.2816 66.6859 45.2314 66.6859C45.2172 66.6856 45.2031 66.6882 45.19 66.6934C45.1768 66.6987 45.1648 66.7065 45.1546 66.7164C45.1445 66.7263 45.1364 66.7382 45.1309 66.7512C45.1254 66.7643 45.1225 66.7783 45.1225 66.7925ZM43.4636 66.9088V70.2983C43.4731 70.3153 43.4868 70.3296 43.5035 70.3398C43.5201 70.35 43.5391 70.3557 43.5586 70.3564C43.6187 70.3564 43.6672 70.3099 43.6672 70.2498V66.9553C43.6666 66.9268 43.6549 66.8998 43.6346 66.8798C43.6143 66.8599 43.587 66.8487 43.5586 66.8486C43.5388 66.8493 43.5196 66.8553 43.5029 66.8658C43.4862 66.8764 43.4727 66.8912 43.4636 66.9088ZM42.1863 66.7613H41.7851V67.0346H41.9867V67.2209H41.7931V67.4999H41.9867V67.6862H41.7851V67.9592H42.1863L42.3374 67.7885L43.1378 67.8214V68.1469L41.6107 68.1778C41.6107 68.1778 41.6067 68.0074 41.4556 68.0074H41.0508V68.2804H41.258V68.4667H41.0548V68.7457H41.258V68.9317H41.0508V69.205H41.4556C41.6107 69.205 41.6107 69.0306 41.6107 69.0306L43.1378 69.0675V69.393L42.345 69.4242C42.345 69.4242 42.3374 69.2535 42.1899 69.2535H41.7847V69.5268H41.9903V69.7148H41.7927V69.9921H41.9903V70.1781H41.7847V70.4478H42.1899C42.341 70.4478 42.345 70.277 42.345 70.277L43.1378 70.3099V70.3408C43.1386 70.3692 43.1503 70.3962 43.1706 70.416C43.1908 70.4359 43.218 70.4472 43.2464 70.4474C43.3005 70.4474 43.353 70.4009 43.353 70.3408V66.8719C43.3524 66.8438 43.341 66.817 43.3211 66.7972C43.3012 66.7773 43.2745 66.7659 43.2464 66.7653C43.1903 66.7653 43.1378 66.8178 43.1378 66.8719V66.9051L42.3374 66.9396C42.3374 66.936 42.3337 66.7613 42.1863 66.7613Z" fill="#F5E600"/>
<path d="M42.5948 69.9196C42.5427 69.9043 42.5155 69.8807 42.5155 69.8402C42.5155 69.8013 42.5427 69.7764 42.5948 69.7608C42.6337 69.7492 42.6742 69.7492 42.6742 69.7492H42.8798V69.9275H42.6742C42.6706 69.9312 42.6301 69.9312 42.5948 69.9196ZM42.5948 67.435C42.5427 67.4194 42.5155 67.3905 42.5155 67.3556C42.5155 67.3208 42.5427 67.2919 42.5948 67.2763C42.6337 67.2647 42.6742 67.2646 42.6742 67.2646H42.8798V67.443H42.6742C42.6706 67.4466 42.6301 67.4466 42.5948 67.435ZM42.1184 68.6771C42.0583 68.6619 42.0312 68.6386 42.0312 68.5978C42.0312 68.5592 42.0622 68.534 42.1184 68.5184C42.1669 68.5068 42.2094 68.5068 42.2094 68.5068H42.4594V68.6851H42.2094C42.2134 68.6891 42.1669 68.6891 42.1184 68.6771Z" fill="black"/>
<path d="M45.0157 66.7854L43.7752 66.9368C43.7705 66.8833 43.7457 66.8336 43.7058 66.7976C43.6658 66.7617 43.6137 66.7422 43.56 66.7432C43.5179 66.7423 43.4766 66.7545 43.4418 66.7781C43.4249 66.7411 43.3976 66.7098 43.3632 66.6881C43.3288 66.6664 43.2888 66.6552 43.2482 66.6559C43.1945 66.6549 43.1424 66.6744 43.1025 66.7103C43.0626 66.7462 43.0379 66.796 43.0333 66.8495L42.3664 66.8767C42.3511 66.7973 42.2947 66.706 42.1728 66.706H41.7307V67.0919H41.9303V67.1713H41.7347V67.5549H41.9303V67.6343H41.7307V68.0159H42.1728C42.295 68.0159 42.3511 67.9249 42.3664 67.8455L43.0293 67.8727V68.0956L41.6318 68.1265C41.6161 68.0471 41.56 67.9561 41.4381 67.9561H40.9961V68.3377H41.1957V68.4171H41.0021V68.803H41.1957V68.8804H40.9961V69.2543H41.4381C41.5604 69.2543 41.6165 69.1593 41.6318 69.0836L43.0293 69.1148V69.3337L42.3664 69.3609C42.3511 69.2815 42.2947 69.1905 42.1728 69.1905H41.7307V69.5721H41.9303V69.6515H41.7347V70.0391H41.9303V70.1188H41.7307V70.5007H42.1728C42.295 70.5007 42.3511 70.4097 42.3664 70.3343L43.0333 70.3616C43.0368 70.4157 43.0611 70.4663 43.1012 70.5028C43.1413 70.5393 43.194 70.5588 43.2482 70.5572C43.3315 70.5572 43.4052 70.5087 43.4418 70.437C43.4727 70.4576 43.5085 70.4698 43.5456 70.4724C43.5827 70.4751 43.6199 70.4681 43.6535 70.4521C43.6871 70.4361 43.7159 70.4117 43.7373 70.3812C43.7586 70.3507 43.7717 70.3152 43.7752 70.2782L45.0157 70.4253C45.0154 70.4537 45.0208 70.4818 45.0317 70.5079C45.0426 70.5341 45.0587 70.5577 45.079 70.5775C45.0993 70.5972 45.1234 70.6127 45.1499 70.6228C45.1763 70.633 45.2046 70.6376 45.2329 70.6366C45.3491 70.6366 45.4497 70.5416 45.4497 70.4174V66.7973C45.4488 66.7401 45.4256 66.6855 45.3852 66.645C45.3447 66.6046 45.2901 66.5814 45.2329 66.5805C45.205 66.5789 45.177 66.583 45.1508 66.5926C45.1245 66.6022 45.1005 66.617 45.0802 66.6362C45.0598 66.6554 45.0436 66.6785 45.0325 66.7041C45.0214 66.7298 45.0157 66.7574 45.0157 66.7854ZM44.0406 68.5841L44.0329 68.6034L44.0406 68.623C44.2362 69.1152 44.8217 69.1713 45.0157 69.1793V69.4293C44.8061 69.4217 44.0446 69.342 43.7829 68.6406V68.5688C44.0485 67.8574 44.7985 67.786 45.0157 67.7781V68.0282C44.8217 68.0355 44.2362 68.0956 44.0406 68.5841ZM45.0157 68.1344V69.0687C44.845 69.061 44.3239 69.0046 44.1492 68.6034C44.3235 68.2022 44.845 68.1441 45.0157 68.1344ZM43.7789 68.8863C44.1239 69.4619 44.8137 69.528 45.0157 69.5356V70.3108L43.7789 70.1636V68.8863ZM45.0157 67.6711C44.8141 67.6788 44.1239 67.7505 43.7789 68.3224V67.0431L45.0157 66.896V67.6711ZM42.1761 67.9056H41.843V67.7389H42.0406V67.4443H41.8506V67.2776H42.0406V66.985H41.843V66.8163H42.1761C42.2594 66.8163 42.2671 66.9249 42.2671 66.9365V67.785C42.2711 67.7973 42.2634 67.9056 42.1761 67.9056ZM43.0329 66.9561V67.7585L42.3777 67.7312V66.9853L43.0329 66.9561ZM41.4454 69.148H41.112V68.9813H41.3096V68.6867H41.116V68.52H41.3096V68.2274H41.112V68.0587H41.4454C41.5288 68.0587 41.5364 68.1673 41.5364 68.1789L41.5404 68.2314V68.9893L41.5364 69.0281C41.5364 69.0394 41.5288 69.148 41.4454 69.148ZM43.029 68.1985V69.0085L41.647 68.9777V68.2314L43.029 68.1985ZM42.1761 70.3901H41.843V70.2274H42.0406V69.9328H41.8506V69.7621H42.0406V69.4695H41.843V69.3031H42.1761C42.2594 69.3031 42.2671 69.4097 42.2671 69.4214V70.2663C42.2711 70.2819 42.2634 70.3901 42.1761 70.3901ZM43.0329 69.4406V70.247L42.3777 70.2198V69.4735L43.0329 69.4406ZM43.2518 70.4406C43.1993 70.4406 43.1645 70.4057 43.1472 70.3573C43.1472 70.3496 43.1432 70.3416 43.1432 70.334V66.8687C43.144 66.8404 43.1557 66.8134 43.176 66.7935C43.1962 66.7736 43.2234 66.7624 43.2518 66.7621C43.3059 66.7621 43.3584 66.8086 43.3584 66.8687V70.334C43.3585 70.348 43.3557 70.3619 43.3504 70.3749C43.345 70.3878 43.3372 70.3996 43.3273 70.4095C43.3174 70.4194 43.3056 70.4273 43.2927 70.4326C43.2797 70.4379 43.2658 70.4407 43.2518 70.4406ZM43.5637 70.3573C43.5212 70.3573 43.4863 70.334 43.4687 70.2991V66.9093C43.4777 66.8917 43.4913 66.8769 43.508 66.8663C43.5247 66.8558 43.5439 66.8498 43.5637 66.8491C43.6238 66.8491 43.6723 66.8956 43.6723 66.9558V70.2503C43.6716 70.2788 43.6599 70.3058 43.6396 70.3258C43.6193 70.3457 43.5921 70.357 43.5637 70.3573ZM45.3411 66.7934V70.4137C45.3403 70.4414 45.3291 70.4678 45.3097 70.4875C45.2903 70.5073 45.2642 70.519 45.2365 70.5203C45.1708 70.5203 45.1276 70.4738 45.1276 70.4137V66.7934C45.1284 66.7649 45.1402 66.7379 45.1605 66.718C45.1808 66.6981 45.2081 66.6869 45.2365 66.6867C45.264 66.6884 45.29 66.7003 45.3093 66.72C45.3286 66.7397 45.34 66.7658 45.3411 66.7934Z" fill="black"/>
<path d="M53.2696 64.7893L54.3938 65.9287L55.5333 67.0549L56.6495 66.1828L55.3938 64.9327L54.1457 63.6787L53.2696 64.7893ZM54.1381 63.6302L56.6963 66.1905C56.7349 66.233 56.8046 66.233 56.8514 66.1905C56.8701 66.1689 56.8803 66.1414 56.8803 66.1129C56.8803 66.0844 56.8701 66.0569 56.8514 66.0354L54.2932 63.4751C54.2467 63.4326 54.1769 63.4326 54.1381 63.4751C54.1271 63.4848 54.1183 63.4968 54.1123 63.5101C54.1063 63.5235 54.1032 63.538 54.1032 63.5526C54.1032 63.5673 54.1063 63.5818 54.1123 63.5952C54.1183 63.6085 54.1271 63.6205 54.1381 63.6302ZM53.0451 64.8803L55.4483 67.2775C55.4661 67.2832 55.4852 67.2841 55.5036 67.28C55.5219 67.276 55.5388 67.267 55.5525 67.2542C55.5627 67.244 55.5708 67.2319 55.5763 67.2186C55.5818 67.2053 55.5847 67.1911 55.5847 67.1767C55.5847 67.1623 55.5818 67.148 55.5763 67.1347C55.5708 67.1214 55.5627 67.1093 55.5525 67.0991L53.2194 64.7737C53.1806 64.7288 53.1148 64.7288 53.0723 64.7737C53.0451 64.7969 53.0371 64.8417 53.0451 64.8803ZM52.0371 65.6827C51.9362 65.7856 51.7578 65.96 51.7578 65.96L51.9518 66.1556L52.0913 66.0121L52.2228 66.146L52.0833 66.2854L52.1842 66.3844L52.2852 66.485L52.4247 66.3456L52.5526 66.4754L52.4054 66.6189L52.6034 66.8088C52.6034 66.8088 52.7814 66.6345 52.8784 66.5279C52.983 66.4253 52.8707 66.2974 52.8707 66.2974L53.4562 65.7507L53.6847 65.9792L52.6263 67.0838C52.6263 67.0838 52.5064 66.9636 52.3938 67.0722C52.3001 67.169 52.2045 67.264 52.1072 67.3572L52.3008 67.5508L52.4483 67.4053L52.5798 67.5352L52.4403 67.6787L52.533 67.7736L52.6339 67.8723L52.7734 67.7308L52.9016 67.8606L52.7661 68.0081L52.9521 68.1981C52.9521 68.1981 53.1384 68.0197 53.2354 67.9131C53.3437 67.8065 53.2277 67.6826 53.2277 67.6826L54.3284 66.6225L54.5608 66.8534L54.0182 67.4365C54.0182 67.4365 53.894 67.3183 53.7817 67.4249C53.6847 67.5315 53.5064 67.7099 53.5064 67.7099L53.6927 67.9018L53.8398 67.7547L53.9677 67.8882L53.8322 68.0277L53.9292 68.1263L54.0222 68.2233L54.1616 68.0838L54.2932 68.2137L54.1537 68.3572L54.3476 68.5508C54.3476 68.5508 54.5256 68.3724 54.6266 68.2658C54.7312 68.1592 54.619 68.0353 54.619 68.0353L55.1965 67.4963L55.2194 67.5196C55.2699 67.5584 55.336 67.5584 55.3745 67.5196C55.3863 67.5108 55.3958 67.4994 55.4024 67.4863C55.409 67.4732 55.4124 67.4587 55.4124 67.444C55.4124 67.4293 55.409 67.4149 55.4024 67.4018C55.3958 67.3886 55.3863 67.3772 55.3745 67.3685L52.9292 64.9168C52.9081 64.8971 52.8803 64.8862 52.8515 64.8862C52.8226 64.8862 52.7948 64.8971 52.7737 64.9168C52.7637 64.9268 52.7556 64.9388 52.7502 64.9519C52.7447 64.965 52.7419 64.9791 52.7419 64.9934C52.7419 65.0076 52.7447 65.0217 52.7502 65.0348C52.7556 65.0479 52.7637 65.0599 52.7737 65.0699L52.797 65.0951L52.2503 65.6823C52.2699 65.6943 52.1457 65.58 52.0371 65.6827Z" fill="#F5E600"/>
<path d="M54.5653 67.6256C54.5185 67.6508 54.48 67.6508 54.4567 67.6256C54.4255 67.5984 54.4255 67.5635 54.4567 67.515C54.4724 67.4801 54.4996 67.4512 54.5072 67.4512L54.6427 67.3038L54.7742 67.4316L54.6271 67.5788C54.6271 67.5831 54.5962 67.6063 54.5653 67.6256ZM52.8055 65.8681C52.759 65.8913 52.7201 65.8913 52.6969 65.8681C52.674 65.8448 52.674 65.804 52.6969 65.7614C52.708 65.7372 52.7239 65.7156 52.7437 65.6977L52.8908 65.5506L53.0147 65.6784L52.8676 65.8259C52.8676 65.8259 52.844 65.8524 52.8055 65.8681ZM53.3558 67.0829C53.3017 67.1138 53.2548 67.1178 53.2319 67.0945C53.2087 67.0673 53.2087 67.0265 53.2395 66.9743C53.2569 66.9471 53.2778 66.9223 53.3017 66.9006L53.4724 66.7242L53.6039 66.8521L53.4255 67.0265C53.4255 67.0265 53.3946 67.058 53.3558 67.0829Z" fill="black"/>
<path d="M54.0522 63.7024L53.2847 64.6792C53.245 64.6444 53.1935 64.6262 53.1407 64.6283C53.088 64.6305 53.0381 64.6529 53.0014 64.6908C52.9685 64.7183 52.9455 64.7557 52.9357 64.7974C52.8969 64.7851 52.8556 64.7835 52.816 64.7927C52.7765 64.802 52.7401 64.8217 52.7108 64.8499C52.6743 64.8886 52.6533 64.9395 52.6519 64.9927C52.6505 65.046 52.6687 65.0979 52.7032 65.1385L52.2535 65.627C52.1838 65.5845 52.0828 65.5553 51.9898 65.6426L51.6836 65.9565L51.9513 66.2258L52.0908 66.088L52.1449 66.1425L52.0094 66.278L52.2847 66.5513L52.4162 66.4178L52.4704 66.4719L52.3309 66.6114L52.6022 66.8808L52.9124 66.5669C53.0051 66.4796 52.9745 66.3769 52.9353 66.3092L53.4239 65.8615L53.579 66.0166L52.6102 67.0242C52.5478 66.9797 52.4395 66.9525 52.3581 67.0398L52.0403 67.3537L52.3076 67.623L52.4475 67.4855L52.5056 67.54L52.3737 67.6755L52.6414 67.9488L52.7729 67.815L52.839 67.8695L52.6992 68.0089L52.9589 68.2783L53.2767 67.9644C53.3621 67.8771 53.3349 67.7745 53.2924 67.7067L54.3 66.7436L54.4551 66.9007L54.0094 67.3889C53.9436 67.35 53.8387 67.3191 53.7573 67.4065L53.4471 67.7183L53.7068 67.9857L53.8463 67.8462L53.9121 67.9023L53.7726 68.0362L54.0399 68.3115L54.1798 68.1757L54.2379 68.2318L54.0984 68.3693L54.3657 68.6406L54.6759 68.3268C54.7097 68.2932 54.7299 68.2484 54.7327 68.2009C54.7356 68.1534 54.721 68.1065 54.6915 68.0691L55.1801 67.6194C55.2614 67.6911 55.4009 67.6871 55.4707 67.6078C55.5007 67.5801 55.5221 67.5444 55.5324 67.5049C55.5427 67.4653 55.5415 67.4237 55.5288 67.3849C55.5697 67.3794 55.6071 67.3586 55.6334 67.3268C55.7148 67.2474 55.7148 67.1232 55.653 67.0362L56.6261 66.267C56.7115 66.3464 56.847 66.3464 56.9207 66.263C56.9409 66.243 56.957 66.2192 56.968 66.1929C56.979 66.1666 56.9847 66.1384 56.9847 66.1099C56.9847 66.0814 56.979 66.0532 56.968 66.027C56.957 66.0007 56.9409 65.9768 56.9207 65.9568L54.3624 63.3966C54.3223 63.3565 54.268 63.334 54.2113 63.334C54.1546 63.334 54.1003 63.3565 54.0602 63.3966C54.0199 63.4368 53.9965 63.491 53.995 63.5479C53.9936 63.6048 54.014 63.6602 54.0522 63.7024ZM54.6338 65.6599L54.6494 65.6792L54.665 65.6868C55.1452 65.896 55.6108 65.5201 55.7424 65.3922L55.9207 65.5706C55.7656 65.714 55.1724 66.191 54.4943 65.8844L54.4398 65.8339C54.1296 65.1421 54.6105 64.555 54.75 64.4039L54.9283 64.5822C54.8041 64.718 54.4242 65.1754 54.6338 65.6599ZM55.0057 64.6539L55.6646 65.3129C55.5404 65.4291 55.1376 65.7546 54.7267 65.5958C54.5717 65.187 54.8971 64.7821 55.0057 64.6539ZM54.665 66.0555C55.3159 66.2182 55.8506 65.7821 55.9984 65.6426L56.5487 66.191L55.572 66.9565L54.665 66.0555ZM54.6799 64.3248C54.5404 64.4719 54.106 65.005 54.2691 65.6543L53.3584 64.7512L54.122 63.7782L54.6799 64.3248ZM52.8354 66.4972L52.6029 66.7336L52.4863 66.6194L52.6258 66.4799L52.4166 66.2707L52.2851 66.4042L52.1608 66.2859L52.3003 66.1501L52.0911 65.9449L51.9516 66.0844L51.835 65.9681L52.0675 65.7336C52.13 65.6715 52.2146 65.7413 52.2226 65.7512L52.2303 65.7629L52.8194 66.3504C52.8354 66.3577 52.8971 66.4371 52.8354 66.4972ZM52.7729 65.2219L53.3505 65.7898L52.8619 66.2335L52.3349 65.7064L52.7729 65.2219ZM53.1994 67.8944L52.9589 68.1308L52.8503 68.0166L52.9822 67.8771L52.7726 67.6715L52.6411 67.8054L52.5245 67.6871L52.6564 67.5513L52.4471 67.3421L52.3073 67.4816L52.1911 67.3653L52.4315 67.1269C52.4936 67.0631 52.571 67.1345 52.5786 67.1481L52.6172 67.183L53.1522 67.718L53.1867 67.7469C53.1917 67.7549 53.2615 67.8346 53.1994 67.8944ZM53.649 66.1039L54.2229 66.6755L53.2229 67.631L52.6955 67.1039L53.649 66.1039ZM54.5949 68.255L54.3624 68.4935L54.2462 68.3773L54.3857 68.2398L54.1764 68.0285L54.0366 68.1644L53.9204 68.0442L54.0519 67.9103L53.8427 67.6991L53.7032 67.8386L53.5946 67.7223L53.831 67.4859C53.8931 67.4218 53.9665 67.4935 53.9745 67.5011L53.9822 67.5051L54.5713 68.0963L54.5786 68.1003C54.5869 68.1116 54.657 68.1909 54.5949 68.255ZM54.5328 66.9817L55.0987 67.5476L54.6181 67.9933L54.0911 67.4643L54.5328 66.9817ZM55.3933 67.532C55.3764 67.5494 55.3539 67.5602 55.3297 67.5623C55.3056 67.5645 55.2814 67.5578 55.2618 67.5437L55.2385 67.532L52.7889 65.0784C52.7503 65.0395 52.7503 64.9678 52.7889 64.9253C52.8393 64.8844 52.9054 64.8844 52.944 64.9253L55.3936 67.3769C55.4401 67.4254 55.4401 67.4932 55.3933 67.532ZM55.556 67.2511C55.5414 67.2638 55.5238 67.2726 55.5049 67.2766C55.486 67.2807 55.4663 67.2799 55.4478 67.2743L53.0482 64.8771C53.0406 64.8383 53.0482 64.7938 53.0831 64.7665C53.0919 64.7561 53.1029 64.7476 53.1153 64.7419C53.1277 64.7361 53.1412 64.7331 53.1549 64.7331C53.1685 64.7331 53.182 64.7361 53.1944 64.7419C53.2068 64.7476 53.2178 64.7561 53.2266 64.7665L55.5637 67.092C55.5949 67.1388 55.5949 67.2105 55.556 67.2511ZM54.2923 63.4756L56.8506 66.0359C56.8692 66.0574 56.8795 66.0849 56.8795 66.1134C56.8795 66.1419 56.8692 66.1694 56.8506 66.191C56.8038 66.2335 56.734 66.2335 56.6955 66.191L54.1372 63.6307C54.1263 63.621 54.1175 63.609 54.1115 63.5957C54.1055 63.5823 54.1024 63.5678 54.1024 63.5532C54.1024 63.5385 54.1055 63.524 54.1115 63.5106C54.1175 63.4973 54.1263 63.4853 54.1372 63.4756C54.1764 63.4371 54.2462 63.4371 54.2923 63.4756Z" fill="black"/>
<path d="M33.487 46.7715L33.4773 48.3799L33.487 49.9827L34.8881 50.1494V46.6048L33.487 46.7715ZM34.9154 46.5699V50.1883C34.9154 50.2484 34.9659 50.2969 35.022 50.2969C35.0781 50.2969 35.1286 50.2484 35.1286 50.1883V46.5699C35.1286 46.5098 35.0781 46.4613 35.022 46.4613C34.9659 46.4613 34.9154 46.5098 34.9154 46.5699ZM33.2641 46.6805V50.0704C33.2733 50.0878 33.2869 50.1025 33.3036 50.1131C33.3203 50.1236 33.3394 50.1296 33.3591 50.1305C33.4192 50.1305 33.4657 50.082 33.4657 50.0219V46.729C33.4659 46.7148 33.4633 46.7008 33.4581 46.6876C33.4528 46.6745 33.445 46.6625 33.4351 46.6524C33.4252 46.6423 33.4134 46.6343 33.4003 46.6288C33.3873 46.6233 33.3733 46.6204 33.3591 46.6204C33.3394 46.6212 33.3203 46.6272 33.3036 46.6378C33.2869 46.6483 33.2733 46.6631 33.2641 46.6805ZM31.9812 46.533H31.5859V46.8084H31.7875V46.9947H31.5899V47.2717H31.7875V47.458H31.5859V47.7293H31.9812C32.1286 47.7293 32.1363 47.5586 32.1363 47.5586L32.9386 47.5895V47.915L31.4056 47.9498C31.4056 47.9498 31.4016 47.7755 31.2565 47.7755H30.8477V48.0508H31.0532V48.2368H30.8556V48.5101H31.0532V48.7001H30.8477V48.9714H31.2565C31.402 48.9714 31.4056 48.801 31.4056 48.801L32.9386 48.8319V49.1574L32.1439 49.1883C32.1439 49.1883 32.1363 49.0176 31.9888 49.0176H31.5856V49.2929H31.7872V49.4789H31.5896V49.7562H31.7872V49.9422H31.5856V50.2135H31.9888C32.1359 50.2135 32.1439 50.0428 32.1439 50.0428L32.9386 50.074V50.1049C32.9391 50.1332 32.9505 50.1603 32.9703 50.1805C32.9901 50.2007 33.017 50.2125 33.0453 50.2135C33.0736 50.2127 33.1006 50.201 33.1205 50.1807C33.1404 50.1605 33.1516 50.1333 33.1519 50.1049V46.6396C33.1513 46.6116 33.1398 46.5848 33.12 46.5649C33.1001 46.5451 33.0733 46.5336 33.0453 46.533C33.0173 46.534 32.9907 46.5455 32.9709 46.5653C32.9511 46.5851 32.9396 46.6117 32.9386 46.6396V46.6729L32.1363 46.7037C32.1363 46.7077 32.1286 46.533 31.9812 46.533Z" fill="#F5E600"/>
<path d="M32.3903 49.695C32.3358 49.6797 32.3109 49.6561 32.3109 49.6176C32.3109 49.5768 32.3362 49.5535 32.3903 49.5382C32.4312 49.5246 32.4697 49.5246 32.4697 49.5246H32.6773V49.705H32.4697C32.47 49.7086 32.4312 49.7086 32.3903 49.695ZM32.3903 47.2105C32.3358 47.1949 32.3109 47.1716 32.3109 47.1331C32.3109 47.0962 32.3362 47.0693 32.3903 47.0537C32.4312 47.0401 32.4697 47.0401 32.4697 47.0401H32.6773V47.2204H32.4697C32.47 47.2241 32.4312 47.2241 32.3903 47.2105ZM31.9194 48.4526C31.8553 48.4373 31.832 48.4101 31.832 48.3732C31.832 48.3383 31.8593 48.3111 31.9194 48.2958C31.9659 48.2822 32.0104 48.2822 32.0104 48.2822H32.2605V48.4622H32.0104C32.0144 48.4662 31.9659 48.4662 31.9194 48.4526Z" fill="black"/>
<path d="M34.8149 46.5631L33.5764 46.7086C33.5702 46.6557 33.5449 46.6068 33.5053 46.5712C33.4657 46.5356 33.4145 46.5156 33.3612 46.515C33.3191 46.5137 33.2777 46.5259 33.243 46.5498C33.2246 46.5135 33.1967 46.483 33.1622 46.4614C33.1277 46.4399 33.088 46.4282 33.0474 46.4276C32.9941 46.4278 32.9429 46.4476 32.9035 46.4834C32.8641 46.5192 32.8394 46.5683 32.8341 46.6212L32.1673 46.6501C32.15 46.5707 32.0955 46.4794 31.9716 46.4794H31.5316V46.8594H31.7255V46.9387H31.5356V47.3243H31.7255V47.4037H31.5316V47.7836H31.9716C32.0955 47.7836 32.15 47.6926 32.1673 47.6129L32.8302 47.6418V47.859L31.4326 47.8955C31.4134 47.8162 31.3569 47.7212 31.233 47.7212H30.793V48.1048H30.9906V48.1842H30.8006V48.5737H30.9906V48.6531H30.793V49.033H31.233C31.3572 49.033 31.4134 48.942 31.4326 48.8623L32.8302 48.8952V49.1124L32.1673 49.1413C32.15 49.0619 32.0955 48.9706 31.9716 48.9706H31.5316V49.3505H31.7255V49.4299H31.5356V49.8155H31.7255V49.8949H31.5316V50.2765H31.9716C32.0955 50.2765 32.15 50.1835 32.1673 50.1041L32.8341 50.133C32.838 50.1865 32.8623 50.2365 32.902 50.2725C32.9417 50.3086 32.9937 50.3279 33.0474 50.3266C33.1307 50.3266 33.2064 50.2801 33.243 50.2044C33.2779 50.2278 33.3192 50.2399 33.3612 50.2393C33.4145 50.2387 33.4657 50.2187 33.5053 50.183C33.5449 50.1474 33.5702 50.0986 33.5764 50.0456L34.8149 50.1911C34.8149 50.219 34.8205 50.2466 34.8313 50.2723C34.8421 50.298 34.8578 50.3214 34.8776 50.341C34.8974 50.3606 34.9209 50.3761 34.9467 50.3867C34.9726 50.3972 35.0002 50.4025 35.0281 50.4023C35.1483 50.4023 35.2469 50.3037 35.2469 50.1835V46.5651C35.2472 46.5363 35.2416 46.5077 35.2307 46.4811C35.2198 46.4544 35.2037 46.4302 35.1833 46.4099C35.163 46.3895 35.1387 46.3734 35.1121 46.3624C35.0854 46.3515 35.0569 46.346 35.0281 46.3462C34.9713 46.3475 34.9172 46.3708 34.8774 46.4113C34.8375 46.4518 34.8151 46.5063 34.8149 46.5631ZM33.8418 48.3559L33.8301 48.3771L33.8418 48.3967C34.0354 48.8852 34.6229 48.9434 34.8109 48.953V49.2031C34.5996 49.1934 33.8458 49.1197 33.5801 48.4123V48.3406C33.8418 47.6255 34.5993 47.5558 34.8109 47.5518V47.8019C34.6229 47.8092 34.0317 47.8673 33.8418 48.3559ZM34.8109 47.9158V48.8441C34.6422 48.8364 34.1227 48.7803 33.9484 48.3808C34.1227 47.9756 34.6442 47.9198 34.8109 47.9158ZM33.5801 48.6617C33.9251 49.2373 34.6073 49.3054 34.8109 49.313V50.0862L33.5801 49.939V48.6617ZM34.8109 47.4429C34.6073 47.4505 33.9251 47.5223 33.5801 48.0942V46.8168L34.8109 46.6697V47.4429ZM31.9753 47.6774H31.6422V47.5146H31.8378V47.2164H31.6458V47.0497H31.8378V46.7571H31.6422V46.5903H31.9753C32.0587 46.5903 32.0663 46.697 32.0663 46.7122V47.5591C32.0666 47.5747 32.0587 47.6774 31.9753 47.6774ZM32.8341 46.7335V47.5379L32.1789 47.5146V46.7647L32.8341 46.7335ZM31.237 48.9198H30.9036V48.757H31.1035V48.4645H30.9115V48.2938H31.1035V47.9992H30.9036V47.8324H31.237C31.3243 47.8324 31.328 47.9391 31.332 47.9547V48.8019C31.332 48.8168 31.3283 48.9198 31.237 48.9198ZM32.8302 47.9719V48.78L31.4446 48.7491V48.0028L32.8302 47.9719ZM31.9753 50.1619H31.6422V49.9992H31.8378V49.7026H31.6458V49.5359H31.8378V49.2413H31.6422V49.0749H31.9753C32.0587 49.0749 32.0663 49.1815 32.0663 49.1931V50.04C32.0666 50.0593 32.0587 50.1619 31.9753 50.1619ZM32.8341 49.218V50.0224L32.1789 49.9952V49.2489L32.8341 49.218ZM33.047 50.218C32.9969 50.218 32.956 50.1812 32.9444 50.1347C32.9444 50.127 32.9404 50.119 32.9404 50.1114V46.6461C32.9404 46.586 32.9929 46.5375 33.047 46.5375C33.0754 46.5383 33.1024 46.5501 33.1222 46.5703C33.1421 46.5906 33.1534 46.6178 33.1536 46.6461V50.1114C33.1596 50.1695 33.1075 50.218 33.047 50.218ZM33.3612 50.1347C33.3167 50.1347 33.2818 50.1114 33.2662 50.0745V46.6847C33.2754 46.6672 33.289 46.6525 33.3057 46.642C33.3224 46.6314 33.3415 46.6254 33.3612 46.6246C33.3754 46.6246 33.3894 46.6274 33.4025 46.6329C33.4155 46.6383 33.4274 46.6464 33.4373 46.6565C33.4472 46.6666 33.455 46.6786 33.4603 46.6917C33.4655 46.7049 33.4681 46.719 33.4678 46.7332V50.0261C33.4718 50.0825 33.4213 50.1347 33.3612 50.1347ZM35.1344 46.5707V50.1891C35.1342 50.2175 35.123 50.2448 35.1031 50.265C35.0832 50.2853 35.0561 50.297 35.0277 50.2977C34.9736 50.2977 34.9211 50.2492 34.9211 50.1891V46.5707C34.9211 46.5106 34.9736 46.4622 35.0277 46.4622C35.0842 46.4622 35.1344 46.5106 35.1344 46.5707Z" fill="black"/>
<path d="M43.6864 46.7715L43.6788 48.3799L43.6864 49.9827L45.0916 50.1494V46.6048L43.6864 46.7715ZM45.1225 46.5699V50.1883C45.1224 50.2026 45.1251 50.2168 45.1305 50.2301C45.1359 50.2433 45.144 50.2554 45.1541 50.2655C45.1643 50.2756 45.1763 50.2836 45.1896 50.289C45.2029 50.2944 45.2171 50.297 45.2314 50.2969C45.2856 50.2969 45.34 50.2484 45.34 50.1883V46.5699C45.34 46.5098 45.2816 46.4613 45.2314 46.4613C45.1693 46.4576 45.1225 46.5098 45.1225 46.5699ZM43.4636 46.6805V50.0704C43.4848 50.1052 43.5197 50.1305 43.5586 50.1305C43.6187 50.1305 43.6672 50.082 43.6672 50.0219V46.729C43.6672 46.7147 43.6644 46.7006 43.659 46.6874C43.6535 46.6742 43.6456 46.6622 43.6355 46.6521C43.6254 46.642 43.6134 46.634 43.6002 46.6286C43.587 46.6231 43.5728 46.6203 43.5586 46.6204C43.5197 46.6204 43.4848 46.6456 43.4636 46.6805ZM42.1863 46.533H41.7851V46.8084H41.9867V46.9947H41.7931V47.2717H41.9867V47.458H41.7851V47.7293H42.1863L42.3374 47.5586L43.1378 47.5895V47.915L41.6107 47.9498C41.6107 47.9498 41.6067 47.7755 41.4556 47.7755H41.0508V48.0508H41.258V48.2368H41.0548V48.5101H41.258V48.7001H41.0508V48.9714H41.4556C41.6107 48.9714 41.6107 48.801 41.6107 48.801L43.1378 48.8319V49.1574L42.345 49.1883C42.345 49.1883 42.3374 49.0176 42.1899 49.0176H41.7847V49.2929H41.9903V49.4789H41.7927V49.7562H41.9903V49.9422H41.7847V50.2135H42.1899C42.341 50.2135 42.345 50.0428 42.345 50.0428L43.1378 50.074V50.1049C43.1384 50.1335 43.15 50.1608 43.1702 50.181C43.1905 50.2013 43.2178 50.2129 43.2464 50.2135C43.3005 50.2135 43.353 50.165 43.353 50.1049V46.6396C43.3521 46.6117 43.3406 46.5851 43.3208 46.5653C43.301 46.5455 43.2744 46.5339 43.2464 46.533C43.2181 46.5335 43.191 46.5449 43.1708 46.5647C43.1506 46.5845 43.1388 46.6113 43.1378 46.6396V46.6728L42.3374 46.7037C42.3374 46.7077 42.3337 46.533 42.1863 46.533Z" fill="#F5E600"/>
<path d="M42.5948 49.695C42.5427 49.6797 42.5155 49.6561 42.5155 49.6176C42.5155 49.5768 42.5427 49.5535 42.5948 49.5382C42.6337 49.5246 42.6742 49.5246 42.6742 49.5246H42.8798V49.705H42.6742C42.6706 49.7086 42.6301 49.7086 42.5948 49.695ZM42.5948 47.2105C42.5427 47.1949 42.5155 47.1716 42.5155 47.1331C42.5155 47.0962 42.5427 47.0693 42.5948 47.0537C42.6337 47.0401 42.6742 47.0401 42.6742 47.0401H42.8798V47.2204H42.6742C42.6706 47.2241 42.6301 47.2241 42.5948 47.2105ZM42.1184 48.4526C42.0583 48.4373 42.0312 48.4101 42.0312 48.3732C42.0312 48.3383 42.0622 48.3111 42.1184 48.2958C42.1669 48.2822 42.2094 48.2822 42.2094 48.2822H42.4594V48.4622H42.2094C42.2134 48.4662 42.1669 48.4662 42.1184 48.4526Z" fill="black"/>
<path d="M45.0157 46.563L43.7752 46.7084C43.7698 46.6552 43.7448 46.6058 43.705 46.57C43.6652 46.5342 43.6135 46.5145 43.56 46.5148C43.5179 46.5139 43.4766 46.5261 43.4418 46.5497C43.4217 46.507 43.3882 46.4721 43.3464 46.4503C43.3045 46.4285 43.2567 46.4211 43.2102 46.4293C43.1638 46.4374 43.1213 46.4606 43.0893 46.4952C43.0573 46.5299 43.0376 46.5741 43.0333 46.6211L42.3664 46.65C42.3511 46.5706 42.2947 46.4793 42.1728 46.4793H41.7307V46.8592H41.9303V46.9386H41.7347V47.3242H41.9303V47.4035H41.7307V47.7835H42.1728C42.295 47.7835 42.3511 47.6925 42.3664 47.6128L43.0293 47.6417V47.8589L41.6318 47.8954C41.6161 47.816 41.56 47.721 41.4381 47.721H40.9961V48.1046H41.1957V48.184H41.0021V48.5736H41.1957V48.653H40.9961V49.0329H41.4381C41.5604 49.0329 41.6165 48.9419 41.6318 48.8622L43.0293 48.8951V49.1123L42.3664 49.1412C42.3511 49.0618 42.2947 48.9705 42.1728 48.9705H41.7307V49.3504H41.9303V49.4298H41.7347V49.8153H41.9303V49.8947H41.7307V50.2763H42.1728C42.295 50.2763 42.3511 50.1833 42.3664 50.104L43.0333 50.1328C43.0373 50.1866 43.0618 50.2367 43.1019 50.2728C43.1419 50.3088 43.1943 50.3281 43.2482 50.3265C43.3315 50.3265 43.4052 50.28 43.4418 50.2043C43.4768 50.2274 43.518 50.2395 43.56 50.2391C43.6723 50.2391 43.7636 50.1558 43.7752 50.0455L45.0157 50.191C45.0154 50.2193 45.0208 50.2474 45.0317 50.2735C45.0426 50.2997 45.0587 50.3234 45.079 50.3431C45.0993 50.3629 45.1234 50.3783 45.1499 50.3884C45.1763 50.3986 45.2046 50.4033 45.2329 50.4022C45.3491 50.4022 45.4497 50.3036 45.4497 50.1833V46.565C45.4492 46.5074 45.4263 46.4523 45.3858 46.4115C45.3453 46.3706 45.2904 46.3471 45.2329 46.3461C45.1083 46.3517 45.0157 46.4427 45.0157 46.563ZM44.0406 48.3557L44.0329 48.377L44.0406 48.3966C44.2362 48.8851 44.8217 48.9432 45.0157 48.9529V49.2029C44.8061 49.1933 44.0446 49.1196 43.7829 48.4122V48.3404C44.0485 47.6254 44.7985 47.5556 45.0157 47.5517V47.8017C44.8217 47.8091 44.2362 47.8672 44.0406 48.3557ZM45.0157 47.9157V48.8439C44.845 48.8363 44.3239 48.7801 44.1492 48.3806C44.3235 47.9754 44.845 47.9196 45.0157 47.9157ZM43.7789 48.6616C44.1239 49.2371 44.8137 49.3052 45.0157 49.3129V50.086L43.7789 49.9389V48.6616ZM45.0157 47.4427C44.8141 47.4504 44.1239 47.5221 43.7789 48.094V46.8167L45.0157 46.6696V47.4427ZM42.1761 47.6772H41.843V47.5145H42.0406V47.2162H41.8506V47.0495H42.0406V46.7569H41.843V46.5902H42.1761C42.2594 46.5902 42.2671 46.6968 42.2671 46.7121V47.559C42.2711 47.5746 42.2634 47.6772 42.1761 47.6772ZM43.0329 46.7333V47.5377L42.3777 47.5145V46.7646L43.0329 46.7333ZM41.4454 48.9196H41.112V48.7569H41.3096V48.4643H41.116V48.2936H41.3096V47.999H41.112V47.8323H41.4454C41.5288 47.8323 41.5364 47.9389 41.5364 47.9545L41.5404 48.003V48.7609L41.5364 48.8017C41.5364 48.8167 41.5288 48.9196 41.4454 48.9196ZM43.029 47.9718V48.7798L41.647 48.7489V48.0027L43.029 47.9718ZM42.1761 50.1617H41.843V49.999H42.0406V49.7024H41.8506V49.5357H42.0406V49.2411H41.843V49.0747H42.1761C42.2594 49.0747 42.2671 49.1813 42.2671 49.193V50.0399C42.2711 50.0591 42.2634 50.1617 42.1761 50.1617ZM43.0329 49.2179V50.0223L42.3777 49.995V49.2488L43.0329 49.2179ZM43.2518 50.2179C43.1993 50.2179 43.1645 50.181 43.1472 50.1345C43.1472 50.1269 43.1432 50.1189 43.1432 50.1113V46.646C43.1432 46.5859 43.1957 46.5374 43.2518 46.5374C43.2801 46.5384 43.3069 46.5502 43.3268 46.5704C43.3466 46.5906 43.3579 46.6177 43.3584 46.646V50.1113C43.3575 50.1392 43.346 50.1658 43.3262 50.1856C43.3064 50.2054 43.2798 50.217 43.2518 50.2179ZM43.5637 50.1345C43.5437 50.1348 43.5241 50.1292 43.5072 50.1186C43.4904 50.1079 43.477 50.0925 43.4687 50.0744V46.6845C43.4899 46.6496 43.5248 46.6244 43.5637 46.6244C43.5779 46.6244 43.5921 46.6271 43.6053 46.6326C43.6185 46.638 43.6305 46.646 43.6406 46.6561C43.6506 46.6662 43.6586 46.6782 43.6641 46.6914C43.6695 46.7046 43.6723 46.7187 43.6723 46.733V50.0259C43.671 50.0543 43.6592 50.0812 43.6391 50.1013C43.619 50.1215 43.5921 50.1333 43.5637 50.1345ZM45.3411 46.5706V50.189C45.3404 50.2169 45.3292 50.2434 45.3099 50.2635C45.2905 50.2836 45.2644 50.2958 45.2365 50.2976C45.1708 50.2976 45.1276 50.2491 45.1276 50.189V46.5706C45.1276 46.5105 45.1784 46.462 45.2365 46.462C45.2867 46.4583 45.3411 46.5105 45.3411 46.5706Z" fill="black"/>
<path d="M55.5326 49.9218L54.3931 51.0536L53.2689 52.1934L54.1451 53.3L55.3931 52.05L56.6489 50.7959L55.5326 49.9218ZM56.6957 50.7919L54.1374 53.3518C54.0909 53.3907 54.0909 53.4624 54.1374 53.5069C54.1468 53.5171 54.1582 53.5252 54.1708 53.5307C54.1835 53.5362 54.1972 53.5391 54.211 53.5391C54.2248 53.5391 54.2385 53.5362 54.2511 53.5307C54.2638 53.5252 54.2752 53.5171 54.2845 53.5069L56.8468 50.947C56.8672 50.9264 56.8787 50.8985 56.8787 50.8695C56.8787 50.8404 56.8672 50.8126 56.8468 50.7919C56.8372 50.7814 56.8255 50.773 56.8125 50.7673C56.7995 50.7615 56.7855 50.7586 56.7712 50.7586C56.757 50.7586 56.743 50.7615 56.7299 50.7673C56.7169 50.773 56.7053 50.7814 56.6957 50.7919ZM55.4476 49.7049L53.0444 52.1021C53.0399 52.1211 53.0404 52.1409 53.0458 52.1596C53.0513 52.1783 53.0616 52.1952 53.0756 52.2087C53.0851 52.2188 53.0965 52.2268 53.1091 52.2322C53.1218 52.2377 53.1354 52.2405 53.1492 52.2405C53.163 52.2405 53.1766 52.2377 53.1893 52.2322C53.2019 52.2268 53.2133 52.2188 53.2228 52.2087L55.5559 49.8829C55.5746 49.8614 55.585 49.8339 55.585 49.8054C55.585 49.7769 55.5746 49.7493 55.5559 49.7278C55.525 49.6953 55.4785 49.6873 55.4476 49.7049ZM54.6412 48.695C54.5403 48.5883 54.3619 48.414 54.3619 48.414L54.1683 48.604L54.3078 48.7474L54.1763 48.8833L54.0365 48.7438L53.9438 48.8388L53.8468 48.9374L53.9823 49.0769L53.8545 49.2124L53.715 49.0653L53.521 49.2589C53.521 49.2589 53.6994 49.4372 53.796 49.5418C53.897 49.6445 54.0328 49.5282 54.0328 49.5282L54.5791 50.1174L54.343 50.3459L53.2457 49.2878C53.2457 49.2878 53.3583 49.1636 53.2533 49.0573C53.1527 48.9487 52.9667 48.7703 52.9667 48.7703L52.7804 48.9663L52.9202 49.1078L52.7884 49.2393L52.6489 49.0958L52.5479 49.1948L52.4549 49.2918L52.5948 49.4332L52.4629 49.5648L52.3158 49.4176L52.1222 49.6076C52.1222 49.6076 52.3081 49.7879 52.4088 49.8945C52.5174 49.9972 52.6412 49.8829 52.6412 49.8829L53.6997 50.9855L53.4712 51.216L52.8857 50.6753C52.8857 50.6753 53.0019 50.5531 52.9053 50.4469L52.6183 50.1599L52.4247 50.3499L52.5682 50.4933L52.4403 50.6252L52.3005 50.4857L52.1999 50.5843L52.0989 50.6833L52.2384 50.8228L52.1069 50.9547L51.9674 50.8112L51.7734 51.0011L52.06 51.2881C52.161 51.3907 52.2852 51.2765 52.2852 51.2765L52.8319 51.8636L52.8046 51.8869C52.7661 51.9254 52.7661 51.9975 52.8046 52.038C52.8548 52.0805 52.9212 52.0805 52.9597 52.038L55.4094 49.5883C55.4204 49.579 55.4292 49.5675 55.4353 49.5544C55.4413 49.5414 55.4445 49.5272 55.4445 49.5128C55.4445 49.4984 55.4413 49.4842 55.4353 49.4711C55.4292 49.4581 55.4204 49.4465 55.4094 49.4372C55.3706 49.3944 55.3048 49.3944 55.2543 49.4372L55.2387 49.4585L54.6459 48.9138C54.6256 48.9218 54.7495 48.7999 54.6412 48.695Z" fill="#F5E600"/>
<path d="M52.6969 51.2169C52.674 51.1684 52.674 51.1335 52.6969 51.1103C52.7201 51.085 52.7593 51.085 52.8055 51.1103C52.844 51.1259 52.8676 51.1528 52.8676 51.1528L53.0147 51.2999L52.8908 51.4258L52.7437 51.2803C52.7241 51.2624 52.7082 51.2409 52.6969 51.2169ZM54.4567 49.4593C54.4255 49.4109 54.4255 49.376 54.4567 49.3507C54.48 49.3275 54.5188 49.3275 54.5653 49.3507C54.5962 49.372 54.6274 49.3952 54.6274 49.3952L54.7746 49.5427L54.6431 49.6686L54.5036 49.5214C54.5036 49.5214 54.4724 49.4942 54.4567 49.4593ZM53.2399 50.0057C53.2087 49.9512 53.2087 49.9107 53.2322 49.8834C53.2552 49.8582 53.302 49.8622 53.3561 49.8951C53.395 49.9183 53.4259 49.9512 53.4259 49.9512L53.6042 50.1219L53.4727 50.2518L53.302 50.0774C53.2772 50.0573 53.2562 50.033 53.2399 50.0057Z" fill="black"/>
<path d="M56.6281 50.7108L55.6514 49.9453C55.7135 49.86 55.7135 49.7341 55.6357 49.6547C55.6052 49.626 55.568 49.6053 55.5275 49.5946C55.5504 49.5189 55.5348 49.4319 55.473 49.3734C55.4361 49.3348 55.3858 49.3119 55.3324 49.3094C55.2791 49.3068 55.2268 49.3249 55.1864 49.3598L54.6902 48.9121C54.737 48.844 54.76 48.7414 54.6746 48.6544L54.3644 48.3402L54.0934 48.6096L54.2329 48.749L54.1788 48.8052L54.0389 48.6693L53.7679 48.9427L53.9074 49.0785L53.8453 49.1346L53.7138 48.9991L53.4425 49.2645L53.7527 49.5783C53.838 49.6657 53.9466 49.6384 54.0087 49.5939L54.4584 50.0821L54.3033 50.2372L53.2957 49.2721C53.3342 49.2064 53.3654 49.0978 53.2801 49.0104L52.9622 48.6966L52.6985 48.9679L52.8384 49.1014L52.7759 49.1615L52.6444 49.022L52.3731 49.2974L52.5049 49.4312L52.4508 49.4873L52.311 49.3478L52.04 49.6192L52.3578 49.931C52.4431 50.0184 52.5514 49.9911 52.6138 49.9486L53.5826 50.9563L53.4275 51.1153L52.939 50.6657C52.9778 50.5979 53.0087 50.4953 52.9161 50.4079L52.6059 50.0941L52.3345 50.3654L52.474 50.5029L52.4199 50.5591L52.2884 50.4232L52.0091 50.6985L52.1486 50.8321L52.0944 50.8882L51.9549 50.7487L51.6836 51.0184L51.9938 51.3322C52.0868 51.4196 52.1877 51.3923 52.2575 51.3515L52.7032 51.84C52.6669 51.8802 52.6474 51.9327 52.6488 51.9868C52.6502 52.041 52.6724 52.0924 52.7108 52.1306C52.7403 52.1596 52.7773 52.1799 52.8177 52.1891C52.858 52.1983 52.9001 52.1961 52.9393 52.1828C52.9483 52.224 52.9701 52.2614 53.0017 52.2894C53.0391 52.327 53.0891 52.3495 53.1421 52.3524C53.195 52.3553 53.2472 52.3384 53.2884 52.305L54.0519 53.2817C54.0322 53.3017 54.0167 53.3255 54.0064 53.3516C53.9961 53.3777 53.9912 53.4056 53.9919 53.4336C53.9926 53.4617 53.999 53.4893 54.0106 53.5148C54.0222 53.5404 54.0389 53.5633 54.0595 53.5823C54.0997 53.6222 54.154 53.6445 54.2106 53.6445C54.2673 53.6445 54.3216 53.6222 54.3618 53.5823L56.924 51.0224C57.0054 50.941 57.0054 50.8012 56.924 50.7142C56.885 50.6748 56.8321 50.6524 56.7767 50.6517C56.7213 50.6511 56.6679 50.6724 56.6281 50.7108ZM54.667 51.2944L54.6514 51.302L54.6357 51.3176C54.4262 51.8022 54.8065 52.2635 54.9303 52.397L54.752 52.5713C54.6125 52.4202 54.1319 51.8251 54.4418 51.1429L54.4963 51.0944C55.1861 50.7786 55.7676 51.2611 55.9227 51.4046L55.7443 51.583C55.6125 51.4611 55.1472 51.0831 54.667 51.2944ZM55.6666 51.6663L55.0077 52.3252C54.8991 52.1994 54.566 51.7942 54.7287 51.3893C55.1396 51.2266 55.5424 51.5521 55.6666 51.6663ZM54.2711 51.3252C54.1084 51.9725 54.5424 52.5076 54.6859 52.6547L54.1316 53.203L53.3681 52.2263L54.2711 51.3252ZM56.0001 51.3332C55.8526 51.1954 55.3176 50.7613 54.6666 50.9204L55.5733 50.0194L56.55 50.7829L56.0001 51.3332ZM53.8294 49.496L53.5969 49.2575L53.7095 49.1433L53.841 49.2811L54.0502 49.0719L53.9224 48.936L54.035 48.8141L54.1744 48.9536L54.3837 48.7424L54.2482 48.6029L54.3604 48.4887L54.5969 48.7271C54.6593 48.7852 54.5893 48.8686 54.5813 48.8782L54.574 48.8859L53.9768 49.4767C53.9689 49.488 53.8915 49.5597 53.8294 49.496ZM55.1007 49.4319L54.5348 49.9994L54.0931 49.5152L54.6201 48.9882L55.1007 49.4319ZM52.4342 49.8563L52.1937 49.6198L52.31 49.5036L52.4498 49.6431L52.659 49.4319L52.5272 49.298L52.6437 49.1778L52.7753 49.3136L52.9848 49.1024L52.845 48.9689L52.9616 48.8523L53.202 49.0868C53.2641 49.1509 53.1944 49.2303 53.1864 49.2382L53.1479 49.2771L52.6132 49.8178L52.582 49.841C52.5737 49.8447 52.4959 49.9164 52.4342 49.8563ZM54.2246 50.31L53.6507 50.8815L52.6972 49.8815L53.2246 49.3525L54.2246 50.31ZM52.0695 51.2499L51.837 51.0154L51.9536 50.9008L52.0931 51.0403L52.3023 50.8291L52.1628 50.6956L52.287 50.5753L52.4186 50.7108L52.6278 50.4996L52.4883 50.3618L52.6049 50.2455L52.845 50.484C52.8995 50.5481 52.8297 50.6275 52.8221 50.6351L52.8144 50.6428L52.2253 51.2299C52.217 51.2419 52.1319 51.3136 52.0695 51.2499ZM53.3488 51.1917L52.7749 51.7616L52.3332 51.2791L52.8603 50.75L53.3488 51.1917ZM52.7905 52.0522C52.775 52.0344 52.7652 52.0122 52.7624 51.9887C52.7596 51.9652 52.764 51.9414 52.7749 51.9204C52.7826 51.9128 52.7826 51.9048 52.7905 51.9008L55.2402 49.4531C55.287 49.4086 55.3528 49.4086 55.3953 49.4531C55.4063 49.4622 55.4151 49.4736 55.4212 49.4866C55.4273 49.4995 55.4305 49.5136 55.4305 49.5278C55.4305 49.5421 55.4273 49.5562 55.4212 49.5691C55.4151 49.5821 55.4063 49.5935 55.3953 49.6026L52.9456 52.0522C52.9071 52.0967 52.8374 52.0967 52.7905 52.0522ZM53.0775 52.211C53.0634 52.1975 53.0531 52.1806 53.0477 52.1618C53.0422 52.1431 53.0417 52.1233 53.0463 52.1044L55.4494 49.7072C55.4803 49.6936 55.5268 49.7032 55.5577 49.7304C55.5966 49.7693 55.5966 49.841 55.5577 49.8855L53.2206 52.2113C53.1861 52.2535 53.1163 52.2535 53.0775 52.211ZM56.8529 50.9456L54.2867 53.5056C54.2668 53.5243 54.2405 53.5348 54.2131 53.5348C54.1858 53.5348 54.1595 53.5243 54.1396 53.5056C54.1286 53.4958 54.1198 53.4839 54.1138 53.4705C54.1078 53.4572 54.1047 53.4427 54.1047 53.428C54.1047 53.4134 54.1078 53.3989 54.1138 53.3855C54.1198 53.3721 54.1286 53.3602 54.1396 53.3505L56.7018 50.7905C56.7229 50.7709 56.7506 50.7599 56.7794 50.7599C56.8082 50.7599 56.8359 50.7709 56.8569 50.7905C56.8741 50.813 56.883 50.8406 56.8823 50.8688C56.8816 50.897 56.8712 50.9241 56.8529 50.9456Z" fill="black"/>
<path d="M37.3008 60.1673H39.7252C39.7292 60.1673 40.1825 60.1557 40.6262 59.9444C41.2174 59.6595 41.5236 59.171 41.5236 58.4888C41.5236 57.8066 41.221 57.3184 40.6262 57.0315C40.1865 56.8223 39.7289 56.8086 39.7252 56.8086H37.3008V60.1673ZM37.8959 59.3981C37.8959 59.2158 38.0431 59.0647 38.229 59.0647C38.3173 59.0653 38.4017 59.1006 38.464 59.163C38.5264 59.2254 38.5616 59.3099 38.5621 59.3981C38.5615 59.4863 38.5262 59.5707 38.4639 59.633C38.4016 59.6953 38.3172 59.7306 38.229 59.7312C38.0431 59.7312 37.8959 59.5801 37.8959 59.3981ZM40.3725 59.3981C40.3724 59.4865 40.3372 59.5712 40.2747 59.6337C40.2122 59.6961 40.1274 59.7312 40.0391 59.7312C39.9509 59.7306 39.8665 59.6953 39.8042 59.633C39.7418 59.5707 39.7066 59.4863 39.7059 59.3981C39.7065 59.3099 39.7417 59.2254 39.8041 59.163C39.8664 59.1006 39.9508 59.0653 40.0391 59.0647C40.0829 59.0643 40.1265 59.0727 40.1671 59.0893C40.2077 59.106 40.2446 59.1305 40.2756 59.1616C40.3067 59.1926 40.3312 59.2295 40.3478 59.2701C40.3645 59.3107 40.3728 59.3542 40.3725 59.3981ZM39.4715 58.4891C39.4708 58.5773 39.4354 58.6618 39.373 58.7241C39.3107 58.7865 39.2263 58.8219 39.138 58.8226C39.0934 58.824 39.0489 58.8164 39.0072 58.8003C38.9656 58.7842 38.9276 58.7599 38.8955 58.7288C38.8634 58.6977 38.8379 58.6605 38.8205 58.6193C38.803 58.5782 38.7941 58.534 38.7941 58.4893C38.7941 58.4446 38.803 58.4004 38.8205 58.3593C38.8379 58.3181 38.8634 58.2809 38.8955 58.2498C38.9276 58.2187 38.9656 58.1944 39.0072 58.1783C39.0489 58.1622 39.0934 58.1546 39.138 58.156C39.226 58.1572 39.3101 58.1927 39.3724 58.2549C39.4346 58.3171 39.4702 58.4011 39.4715 58.4891ZM37.8959 57.5841C37.8959 57.4021 38.0431 57.251 38.229 57.251C38.3172 57.2516 38.4016 57.2869 38.4639 57.3492C38.5262 57.4116 38.5615 57.496 38.5621 57.5841C38.5616 57.6723 38.5264 57.7568 38.464 57.8192C38.4017 57.8816 38.3173 57.917 38.229 57.9176C38.0431 57.9176 37.8959 57.7661 37.8959 57.5841ZM40.3765 57.5841C40.3758 57.6723 40.3404 57.7567 40.278 57.8191C40.2157 57.8815 40.1313 57.9169 40.043 57.9176C39.9772 57.9175 39.9128 57.8979 39.8581 57.8613C39.8034 57.8247 39.7607 57.7726 39.7356 57.7118C39.7104 57.6509 39.7038 57.584 39.7167 57.5194C39.7295 57.4548 39.7613 57.3955 39.8078 57.3489C39.8544 57.3023 39.9137 57.2706 39.9783 57.2578C40.0429 57.2449 40.1098 57.2515 40.1707 57.2766C40.2315 57.3018 40.2836 57.3445 40.3202 57.3992C40.3568 57.4539 40.3764 57.5183 40.3765 57.5841ZM48.8128 60.1673H51.2469C51.2469 60.1673 51.6966 60.1557 52.1459 59.9444C52.7351 59.6595 53.0413 59.171 53.0413 58.4888C53.0413 57.8066 52.743 57.3184 52.1459 57.0315C51.86 56.9018 51.5526 56.8263 51.2392 56.8086H48.8128V60.1673ZM49.4096 59.3981C49.411 59.3101 49.4466 59.2261 49.5088 59.1639C49.571 59.1016 49.6551 59.0661 49.7431 59.0647C49.7877 59.0633 49.8322 59.0708 49.8739 59.087C49.9155 59.1031 49.9535 59.1274 49.9856 59.1585C50.0177 59.1896 50.0432 59.2268 50.0606 59.2679C50.0781 59.3091 50.087 59.3533 50.087 59.398C50.087 59.4426 50.0781 59.4868 50.0606 59.528C50.0432 59.5691 50.0177 59.6063 49.9856 59.6374C49.9535 59.6685 49.9155 59.6928 49.8739 59.7089C49.8322 59.7251 49.7877 59.7326 49.7431 59.7312C49.5647 59.7312 49.4096 59.5801 49.4096 59.3981ZM51.8905 59.3981C51.8904 59.4865 51.8553 59.5712 51.7927 59.6337C51.7302 59.6961 51.6454 59.7312 51.5571 59.7312C51.3787 59.7312 51.2236 59.5801 51.2236 59.3981C51.225 59.3101 51.2606 59.2261 51.3228 59.1639C51.385 59.1016 51.4691 59.0661 51.5571 59.0647C51.601 59.0643 51.6445 59.0727 51.6851 59.0893C51.7257 59.106 51.7626 59.1305 51.7936 59.1616C51.8247 59.1926 51.8492 59.2295 51.8658 59.2701C51.8825 59.3107 51.8909 59.3542 51.8905 59.3981ZM50.9835 58.4891C50.9836 58.5329 50.975 58.5763 50.9582 58.6168C50.9415 58.6573 50.9169 58.694 50.8859 58.725C50.855 58.756 50.8182 58.7805 50.7777 58.7973C50.7372 58.814 50.6939 58.8226 50.6501 58.8226C50.5621 58.8212 50.478 58.7856 50.4158 58.7234C50.3536 58.6612 50.318 58.5771 50.3166 58.4891C50.3166 58.3071 50.4717 58.156 50.6501 58.156C50.6939 58.1559 50.7372 58.1645 50.7777 58.1812C50.8182 58.1979 50.8549 58.2224 50.8859 58.2534C50.9169 58.2843 50.9415 58.3211 50.9582 58.3615C50.975 58.402 50.9836 58.4453 50.9835 58.4891ZM49.4096 57.5841C49.4096 57.4021 49.5647 57.251 49.7431 57.251C49.7877 57.2496 49.8322 57.2572 49.8739 57.2733C49.9155 57.2894 49.9535 57.3137 49.9856 57.3448C50.0177 57.3759 50.0432 57.4131 50.0606 57.4543C50.0781 57.4954 50.087 57.5396 50.087 57.5843C50.087 57.629 50.0781 57.6732 50.0606 57.7143C50.0432 57.7555 50.0177 57.7927 49.9856 57.8238C49.9535 57.8548 49.9155 57.8792 49.8739 57.8953C49.8322 57.9114 49.7877 57.919 49.7431 57.9176C49.6551 57.9162 49.571 57.8806 49.5088 57.8184C49.4466 57.7561 49.411 57.6721 49.4096 57.5841ZM51.8905 57.5841C51.8905 57.6279 51.8819 57.6713 51.8651 57.7117C51.8484 57.7522 51.8238 57.7889 51.7928 57.8199C51.7619 57.8509 51.7251 57.8754 51.6847 57.8922C51.6442 57.9089 51.6009 57.9176 51.5571 57.9176C51.4691 57.9162 51.385 57.8806 51.3228 57.8184C51.2606 57.7561 51.225 57.6721 51.2236 57.5841C51.2236 57.4021 51.3787 57.251 51.5571 57.251C51.6009 57.2507 51.6444 57.259 51.685 57.2756C51.7256 57.2923 51.7625 57.3168 51.7935 57.3478C51.8245 57.3788 51.8491 57.4156 51.8657 57.4562C51.8824 57.4968 51.8908 57.5403 51.8905 57.5841ZM43.0586 60.1673H45.4874C45.4874 60.1673 45.9371 60.1557 46.3904 59.9444C46.9759 59.6595 47.2858 59.171 47.2858 58.4888C47.2858 57.8066 46.9835 57.3184 46.3904 57.0315C45.9407 56.8223 45.4874 56.8086 45.4874 56.8086H43.0586V60.1673ZM43.6558 59.3981C43.6556 59.3543 43.6641 59.3109 43.6808 59.2704C43.6974 59.2299 43.722 59.1931 43.7529 59.1621C43.7839 59.1311 43.8207 59.1065 43.8612 59.0898C43.9017 59.0731 43.9451 59.0646 43.9889 59.0647C44.1709 59.0647 44.3223 59.2158 44.3223 59.3981C44.3215 59.4863 44.2861 59.5706 44.2238 59.6329C44.1614 59.6952 44.077 59.7305 43.9889 59.7312C43.9451 59.7314 43.9017 59.7228 43.8612 59.7061C43.8208 59.6895 43.784 59.6649 43.753 59.634C43.7221 59.603 43.6975 59.5662 43.6809 59.5258C43.6642 59.4853 43.6556 59.4419 43.6558 59.3981ZM46.1307 59.3981C46.1306 59.4865 46.0954 59.5712 46.0329 59.6337C45.9704 59.6961 45.8856 59.7312 45.7972 59.7312C45.6189 59.7312 45.4638 59.5801 45.4638 59.3981C45.4652 59.3101 45.5007 59.2261 45.563 59.1639C45.6252 59.1016 45.7092 59.0661 45.7972 59.0647C45.8411 59.0643 45.8846 59.0727 45.9253 59.0893C45.9659 59.106 46.0028 59.1305 46.0338 59.1616C46.0648 59.1926 46.0894 59.2295 46.106 59.2701C46.1226 59.3107 46.131 59.3542 46.1307 59.3981ZM45.2313 58.4891C45.2313 58.6715 45.0762 58.8226 44.8899 58.8226C44.7116 58.8226 44.5584 58.6715 44.5584 58.4891C44.5584 58.3071 44.7116 58.156 44.8899 58.156C45.0762 58.1557 45.2313 58.3068 45.2313 58.4891ZM43.6558 57.5841C43.6556 57.5403 43.6642 57.497 43.6809 57.4565C43.6975 57.416 43.7221 57.3792 43.753 57.3483C43.784 57.3173 43.8208 57.2928 43.8612 57.2761C43.9017 57.2594 43.9451 57.2509 43.9889 57.251C44.1709 57.251 44.3223 57.4021 44.3223 57.5841C44.3216 57.6723 44.2863 57.7567 44.2239 57.8191C44.1615 57.8815 44.0771 57.9169 43.9889 57.9176C43.9451 57.9177 43.9017 57.9092 43.8612 57.8924C43.8207 57.8757 43.7839 57.8512 43.7529 57.8202C43.722 57.7892 43.6974 57.7524 43.6808 57.7119C43.6641 57.6713 43.6556 57.6279 43.6558 57.5841ZM46.1307 57.5841C46.1307 57.6279 46.122 57.6713 46.1053 57.7117C46.0885 57.7522 46.064 57.7889 46.033 57.8199C46.002 57.8509 45.9653 57.8754 45.9248 57.8922C45.8844 57.9089 45.841 57.9176 45.7972 57.9176C45.7092 57.9162 45.6252 57.8806 45.563 57.8184C45.5007 57.7561 45.4652 57.6721 45.4638 57.5841C45.4638 57.4021 45.6189 57.251 45.7972 57.251C45.8411 57.2507 45.8846 57.259 45.9252 57.2756C45.9658 57.2923 46.0026 57.3168 46.0337 57.3478C46.0647 57.3788 46.0893 57.4156 46.1059 57.4562C46.1226 57.4968 46.131 57.5403 46.1307 57.5841ZM43.0586 64.875H45.4874C45.4874 64.875 45.9371 64.8634 46.3904 64.6482C46.9759 64.3635 47.2858 63.875 47.2858 63.1928C47.2858 62.5087 46.9835 62.0222 46.3904 61.7352C45.9407 61.5203 45.4874 61.5084 45.4874 61.5084H43.0586V64.875ZM43.6558 64.1015C43.6555 64.0577 43.6639 64.0142 43.6805 63.9737C43.6971 63.9331 43.7216 63.8963 43.7526 63.8653C43.7836 63.8343 43.8205 63.8098 43.861 63.7931C43.9016 63.7765 43.945 63.7681 43.9889 63.7684C44.1709 63.7684 44.3223 63.9175 44.3223 64.1015C44.3216 64.1897 44.2863 64.2741 44.2239 64.3365C44.1615 64.3989 44.0771 64.4343 43.9889 64.435C43.9451 64.4351 43.9017 64.4265 43.8612 64.4098C43.8207 64.3931 43.7839 64.3686 43.7529 64.3376C43.722 64.3066 43.6974 64.2698 43.6808 64.2292C43.6641 64.1887 43.6556 64.1453 43.6558 64.1015ZM46.1307 64.1015C46.1307 64.1899 46.0955 64.2748 46.033 64.3373C45.9705 64.3998 45.8857 64.435 45.7972 64.435C45.7092 64.4336 45.6252 64.398 45.563 64.3358C45.5007 64.2735 45.4652 64.1895 45.4638 64.1015C45.4638 63.9175 45.6189 63.7684 45.7972 63.7684C45.8411 63.7679 45.8847 63.7761 45.9254 63.7927C45.9661 63.8092 46.003 63.8337 46.0341 63.8648C46.0651 63.8958 46.0897 63.9327 46.1063 63.9734C46.1229 64.014 46.1312 64.0576 46.1307 64.1015ZM45.2313 63.1928C45.2313 63.3788 45.0762 63.526 44.8899 63.526C44.7116 63.526 44.5584 63.3788 44.5584 63.1928C44.5584 63.0105 44.7116 62.8594 44.8899 62.8594C45.0762 62.8594 45.2313 63.0105 45.2313 63.1928ZM43.6558 62.2875C43.6557 62.2439 43.6643 62.2007 43.681 62.1605C43.6978 62.1202 43.7224 62.0837 43.7534 62.053C43.7843 62.0224 43.8211 61.9982 43.8616 61.9819C43.902 61.9656 43.9453 61.9575 43.9889 61.9581C44.1709 61.9581 44.3223 62.1052 44.3223 62.2875C44.3223 62.3759 44.2872 62.4608 44.2247 62.5233C44.1621 62.5858 44.0773 62.6209 43.9889 62.6209C43.945 62.6214 43.9014 62.6131 43.8607 62.5966C43.8201 62.58 43.7832 62.5554 43.7521 62.5244C43.7211 62.4933 43.6966 62.4563 43.68 62.4157C43.6635 62.375 43.6552 62.3314 43.6558 62.2875ZM46.1307 62.2875C46.131 62.3314 46.1226 62.3749 46.106 62.4155C46.0894 62.4561 46.0648 62.493 46.0338 62.5241C46.0028 62.5551 45.9659 62.5797 45.9253 62.5963C45.8846 62.6129 45.8411 62.6213 45.7972 62.6209C45.6189 62.6209 45.4638 62.4738 45.4638 62.2875C45.4638 62.1055 45.6189 61.9581 45.7972 61.9581C45.841 61.9568 45.8846 61.9645 45.9253 61.9806C45.9661 61.9966 46.0031 62.0208 46.0343 62.0516C46.0654 62.0824 46.09 62.1191 46.1066 62.1597C46.1232 62.2002 46.1314 62.2437 46.1307 62.2875ZM43.0586 55.4639H45.4874C45.4874 55.4639 45.9371 55.4563 46.3904 55.2391C46.9759 54.9521 47.2858 54.4639 47.2858 53.7818C47.2858 53.0996 46.9835 52.6111 46.3904 52.3241C46.1053 52.1957 45.7994 52.1196 45.4874 52.0993H43.0586V55.4639ZM43.6558 54.6904C43.6557 54.6468 43.6643 54.6036 43.681 54.5634C43.6978 54.5231 43.7224 54.4866 43.7534 54.456C43.7843 54.4253 43.8211 54.4011 43.8616 54.3848C43.902 54.3685 43.9453 54.3604 43.9889 54.361C44.1709 54.361 44.3223 54.5081 44.3223 54.6904C44.3223 54.7342 44.3137 54.7776 44.2969 54.818C44.2802 54.8585 44.2556 54.8952 44.2247 54.9262C44.1937 54.9572 44.1569 54.9817 44.1165 54.9985C44.076 55.0152 44.0327 55.0239 43.9889 55.0239C43.8009 55.0278 43.6558 54.8767 43.6558 54.6904ZM46.1307 54.6904C46.131 54.7343 46.1226 54.7778 46.106 54.8184C46.0894 54.8591 46.0648 54.896 46.0338 54.927C46.0028 54.958 45.9659 54.9826 45.9253 54.9992C45.8846 55.0158 45.8411 55.0242 45.7972 55.0239C45.6189 55.0239 45.4638 54.8767 45.4638 54.6904C45.4638 54.5084 45.6189 54.3573 45.7972 54.3573C45.9832 54.3573 46.1307 54.5084 46.1307 54.6904ZM45.2313 53.7857C45.2313 53.9677 45.0762 54.1189 44.8899 54.1189C44.7116 54.1189 44.5584 53.9677 44.5584 53.7857C44.5584 53.5994 44.7116 53.4523 44.8899 53.4523C45.0762 53.4523 45.2313 53.5994 45.2313 53.7857ZM43.6558 52.8804C43.6556 52.8366 43.6642 52.7932 43.6809 52.7528C43.6975 52.7123 43.7221 52.6755 43.753 52.6446C43.784 52.6136 43.8208 52.5891 43.8612 52.5724C43.9017 52.5557 43.9451 52.5472 43.9889 52.5473C44.1709 52.5473 44.3223 52.6984 44.3223 52.8804C44.3216 52.9686 44.2863 53.053 44.2239 53.1154C44.1615 53.1778 44.0771 53.2131 43.9889 53.2138C43.9006 53.2135 43.816 53.1782 43.7536 53.1158C43.6912 53.0533 43.656 52.9687 43.6558 52.8804ZM46.1307 52.8804C46.1307 52.9688 46.0955 53.0537 46.033 53.1162C45.9705 53.1787 45.8857 53.2138 45.7972 53.2138C45.7092 53.2125 45.6252 53.1769 45.563 53.1147C45.5007 53.0524 45.4652 52.9684 45.4638 52.8804C45.4638 52.6984 45.6189 52.5473 45.7972 52.5473C45.9832 52.5473 46.1307 52.6984 46.1307 52.8804Z" fill="#153A8D"/>
</g>
</g>
</g>
<defs>
<clipPath id="clip0_394_10826">
<rect width="90" height="90" fill="white" transform="matrix(0 -1 1 0 0 90)"/>
</clipPath>
</defs>
</svg>
