<svg width="90" height="90" viewBox="0 0 90 90" fill="none" xmlns="http://www.w3.org/2000/svg">
<g clip-path="url(#clip0_394_10934)">
<mask id="mask0_394_10934" style="mask-type:luminance" maskUnits="userSpaceOnUse" x="0" y="0" width="90" height="90">
<path d="M45 0C20.1472 0 0 20.1472 0 45C0 69.8528 20.1472 90 45 90C69.8528 90 90 69.8528 90 45C90 20.1472 69.8528 0 45 0Z" fill="white"/>
</mask>
<g mask="url(#mask0_394_10934)">
<path d="M89.9936 76.5644C89.9936 80.9463 89.9915 85.3271 90 89.7089C90 89.9456 89.9574 89.9989 89.7143 89.9989C59.909 89.9915 30.1038 89.9915 0.299588 90C0.0319845 90 0 89.9275 0 89.6887C0.00639689 59.8962 0.00639689 30.1038 0 0.311302C0 0.0736022 0.0298522 -0.00109863 0.298522 -0.00109863C30.1038 0.00750137 59.909 0.0075 89.7132 0C89.9563 0 90.0011 0.0512023 90 0.288902C89.9893 3.2176 89.9936 6.1463 89.9936 9.0751C89.8881 9.2137 89.7484 9.22 89.5863 9.2115C88.9093 9.1742 88.2345 9.1081 87.5543 9.1028C84.923 9.0846 82.3493 9.4525 79.8343 10.2244C76.6241 11.2095 73.5142 12.4473 70.5417 14.0135C68.8881 14.8856 67.371 15.9602 65.9999 17.2386C65.3666 17.8292 64.7216 18.4071 64.0958 19.0073C63.8922 19.2024 63.7386 19.4412 63.5318 19.6342C63.2322 19.9135 63.0467 19.9178 62.746 19.6374C62.1138 19.0457 61.5029 18.4294 60.7769 17.9465C59.7001 17.2311 58.5987 16.5818 57.298 16.3334C56.3545 16.1532 55.4173 15.9112 54.4557 15.8963C52.6464 15.8675 50.8819 16.1223 49.2326 16.9272C48.6004 17.2354 47.9767 17.5573 47.3711 17.9156C46.8359 18.2322 46.2559 18.3921 45.629 18.3868C44.9616 18.3815 44.2931 18.3793 43.6257 18.3868C40.5392 18.422 37.6521 19.1672 34.9995 20.7782C33.9376 21.4232 32.8875 22.0821 31.9365 22.887C30.4172 24.1728 29.2636 25.7272 28.4715 27.5557C27.9683 28.7167 27.4352 29.8639 27.1431 31.1038C26.6729 33.1007 26.3083 35.1168 26.1388 37.1627C26.0908 37.7427 26.0204 38.327 26.0545 38.9144C26.0727 39.2289 25.8904 39.3462 25.6078 39.2044C25.336 39.0669 25.0811 38.8995 24.8199 38.7428C24.4468 38.5189 24.0523 38.3408 23.6333 38.2193C23.4862 38.1766 23.338 38.1468 23.1845 38.1447C22.6695 38.1393 22.403 38.4272 22.5171 38.9262C22.7079 39.7588 22.9233 40.5851 23.3017 41.3612C23.902 42.5948 24.5609 43.7952 25.2922 44.9552C25.4607 45.2228 25.5428 45.4862 25.5012 45.8135C25.4372 46.3146 25.5428 46.8178 25.5726 47.3189C25.6761 49.0503 25.9021 50.7668 26.2667 52.4641C26.8414 55.1433 27.6889 57.7341 28.8702 60.2065C29.7125 61.971 30.8213 63.5638 32.1188 65.0276C33.25 66.3038 34.4697 67.4765 35.9164 68.3977C36.5806 68.8199 37.2672 69.2016 37.9869 69.5129C39.3515 70.1035 40.712 70.7102 42.1598 71.0769C43.5138 71.4202 44.8923 71.6036 46.2868 71.6846C49.4426 71.868 52.4193 71.1644 55.3075 69.9521C57.2191 69.1493 59.1062 68.2953 60.9762 67.3998C61.5402 67.13 62.1447 67.0053 62.7834 67.0309C63.1928 67.0469 63.5744 67.1226 63.9305 67.3124C64.4988 67.6151 65.0596 67.9318 65.5809 68.3135C67.5288 69.7368 69.4649 71.1771 71.5492 72.4C72.7668 73.1143 74.0494 73.6805 75.3735 74.1624C77.4568 74.9193 79.572 75.5697 81.7523 75.9833C83.1105 76.2403 84.4891 76.3266 85.8697 76.3981C86.712 76.4418 87.5543 76.4482 88.3965 76.4631C88.7622 76.4695 89.1194 76.4002 89.4819 76.3927C89.6727 76.3917 89.8635 76.3895 89.9936 76.5644Z" fill="#E9F7FA"/>
<path d="M89.9951 13.5068C89.9951 27.6844 89.9951 41.861 89.9951 56.0387C89.8405 56.1559 89.6881 56.108 89.5335 56.0355C87.6133 55.1378 85.6484 54.3371 83.7795 53.3338C82.6557 52.7304 81.5278 52.1355 80.3966 51.5448C78.6342 50.6226 76.7791 50.0565 74.778 50.1034C73.0988 50.1429 71.4655 50.4137 69.8588 50.9734C67.9973 51.6216 66.3575 52.6376 64.7178 53.6835C62.9373 54.8179 61.2965 56.1421 59.6003 57.3905C58.0992 58.4961 56.5362 59.4983 54.9007 60.3949C52.842 61.5229 50.635 62.2074 48.3204 62.5038C47.1072 62.6594 45.8715 62.6157 44.6497 62.4164C43.2946 62.1957 41.9587 61.9131 40.6815 61.3886C39.0951 60.7361 37.6653 59.8469 36.3988 58.6859C35.0544 57.4545 34.0404 55.9928 33.3378 54.32C32.8826 53.2368 32.5873 52.1099 32.4999 50.9265C32.3911 49.4371 32.4039 47.9583 32.7056 46.4924C33.0084 45.0179 33.5138 43.6084 34.0692 42.2139C34.7398 40.5305 35.6759 38.9899 36.6088 37.4461C36.9841 36.8245 37.3519 36.1987 37.7272 35.5771C38.1963 34.7988 38.1664 34.334 37.5758 33.6293C37.0118 32.9565 36.4041 32.3222 35.8145 31.6729C34.8443 30.6057 34.0937 29.4265 33.8102 27.9883C33.5191 26.5127 33.7664 25.1193 34.3667 23.7493C35.0949 22.0872 36.3071 20.9059 37.8455 20.0146C38.1824 19.8195 38.5972 19.7566 38.8466 19.4164C39.513 19.2171 40.206 19.1894 40.8894 19.103C41.4587 19.0305 42.0323 19.0124 42.6027 18.9911C43.2083 18.9687 43.8128 19.0742 44.4183 19.1329C45.0889 19.1979 45.7468 19.3781 46.4398 19.2576C47.1765 19.1307 47.7959 18.7597 48.4398 18.4303C50.5423 17.3545 52.7364 16.5805 55.1353 16.798C58.1791 17.0741 60.9735 18.0017 63.1943 20.2384C63.7039 21.0263 64.415 21.5935 65.22 22.0488C65.9396 22.455 66.6827 22.4038 67.4216 22.0989C68.4632 21.6692 69.3715 21.0391 70.1797 20.2566C70.4729 19.973 70.8087 19.7384 71.1467 19.5145C71.4057 19.3429 71.6104 19.1435 71.732 18.8578C72.7342 18.2032 73.795 17.6594 74.8899 17.1818C77.1683 16.1871 79.517 15.3907 81.9265 14.783C84.4256 14.1529 86.9662 13.7392 89.5175 13.3863C89.6977 13.3597 89.8693 13.3362 89.9951 13.5068Z" fill="#FEFEFE"/>
<path d="M38.8882 19.5608C38.7858 19.7165 38.6184 19.7805 38.4628 19.8615C37.4169 20.4074 36.4243 21.0481 35.678 21.9661C34.679 23.1943 34.0212 24.5941 33.8879 26.2019C33.7131 28.2979 34.5425 30.0091 35.9136 31.5156C36.5277 32.1915 37.1514 32.8589 37.7495 33.5487C38.3487 34.2396 38.3956 34.7737 37.9329 35.5659C37.3241 36.6064 36.6994 37.6385 36.0725 38.6694C34.5255 41.2143 33.3655 43.9234 32.8292 46.8564C32.3772 49.3256 32.4987 51.7841 33.4561 54.1435C34.3165 56.2651 35.6833 58.004 37.5128 59.3858C39.1856 60.6491 41.0525 61.4743 43.0899 61.9392C44.2925 62.2132 45.509 62.3934 46.7393 62.4051C48.1391 62.4168 49.5134 62.2079 50.8589 61.8038C51.892 61.4935 52.924 61.1716 53.9006 60.7195C54.7162 60.3432 55.4817 59.857 56.2632 59.4092C58.0351 58.3932 59.6493 57.1426 61.272 55.9154C62.7774 54.7779 64.3307 53.717 65.9129 52.6925C67.704 51.5336 69.6359 50.6956 71.7096 50.2489C73.909 49.7755 76.1266 49.7478 78.3048 50.445C79.066 50.6892 79.7824 51.041 80.4914 51.4024C82.1599 52.2543 83.8029 53.1573 85.4842 53.9804C86.9672 54.7064 88.4886 55.3515 89.9929 56.0327C89.9929 56.8995 89.9929 57.7663 89.9929 58.6341C89.8661 58.8111 89.6912 58.7674 89.5153 58.7439C87.5408 58.4838 85.5908 58.1 83.6643 57.5925C81.935 57.1372 80.1737 56.923 78.3837 56.9816C77.0147 57.0264 75.682 57.2407 74.4485 57.8804C74.2331 57.9923 74.0092 58.0925 73.8472 58.2951C74.5167 58.1352 75.1831 57.9742 75.8601 57.8644C78.3453 57.4624 80.7985 57.5914 83.2272 58.2588C85.0567 58.7621 86.9075 59.1672 88.7903 59.4188C89.0793 59.4572 89.3746 59.4444 89.6624 59.5105C89.7936 59.5403 89.9087 59.5809 89.994 59.6864C89.994 64.9351 89.994 70.1848 89.994 75.4334C89.8714 75.5955 89.6987 75.6115 89.5185 75.5901C88.6805 75.4899 87.834 75.4899 86.9949 75.4803C83.4041 75.4366 79.9061 74.8556 76.5115 73.7031C74.2278 72.928 72.1051 71.8117 70.1242 70.4247C68.7041 69.4299 67.3224 68.383 65.898 67.3957C65.3873 67.0418 64.8542 66.7198 64.2817 66.4746C63.1345 65.981 61.9991 65.9543 60.8594 66.5353C59.7218 67.1143 58.6173 67.7604 57.4488 68.2764C55.1619 69.2839 52.8505 70.237 50.3375 70.511C48.1914 70.7456 46.0484 70.7808 43.9023 70.3991C41.0716 69.8958 38.467 68.8212 35.984 67.4203C34.8443 66.7763 33.8847 65.9053 33.002 64.9361C32.0595 63.902 31.1863 62.8198 30.4784 61.6129C29.3227 59.6438 28.4538 57.5509 27.8205 55.3568C27.1925 53.1797 26.7394 50.9685 26.4953 48.7168C26.3822 47.6709 26.2906 46.6208 26.265 45.5674C26.2554 45.1815 26.136 44.836 25.9462 44.5034C25.1796 43.1611 24.3917 41.8295 23.7158 40.4382C23.5623 40.1215 23.4311 39.7953 23.3107 39.4658C23.2531 39.308 23.2222 39.1385 23.3586 39.0053C23.5015 38.8645 23.6668 38.9317 23.8171 38.9999C24.363 39.2451 24.8896 39.5266 25.3854 39.8635C25.734 40.1002 26.0816 40.3401 26.4537 40.5405C26.8833 40.7719 27.1222 40.6482 27.1008 40.1642C27.0603 39.2046 27.0241 38.2462 27.039 37.2856C27.0411 37.1331 27.0379 36.9806 27.055 36.8293C27.072 36.6789 27.1264 36.551 27.2927 36.5233C27.4484 36.4977 27.523 36.6086 27.5881 36.7258C27.7075 36.9412 27.8098 37.164 27.9079 37.3911C28.1478 37.9455 28.4858 38.0425 28.989 37.7014C29.3685 37.4444 29.6788 37.1032 30.0423 36.8271C30.1692 36.7301 30.2854 36.568 30.4688 36.6843C30.6554 36.8026 30.5978 36.9913 30.5552 37.1619C30.5072 37.3549 30.4432 37.5446 30.4187 37.7429C30.407 37.8378 30.4091 37.9391 30.5178 37.9818C30.6074 38.0169 30.6895 37.969 30.7321 37.9007C31.1159 37.2898 31.455 36.6576 31.3761 35.9028C31.3345 35.503 30.9976 35.3281 30.6234 35.4944C30.2993 35.6384 30.0274 35.8655 29.7726 36.1085C29.4933 36.3751 29.231 36.6608 28.9453 36.922C28.6638 37.1779 28.4794 37.1438 28.3205 36.8058C28.216 36.583 28.1115 36.3601 27.9985 36.1416C27.8098 35.7748 27.5635 35.4795 27.1371 35.374C26.9004 35.3153 26.8492 35.1394 26.8812 34.9091C27.0134 33.9677 27.2682 33.053 27.4697 32.1265C27.9751 29.8065 28.876 27.639 29.9901 25.5547C30.6884 24.2487 31.7162 23.2241 32.8826 22.3392C34.2408 21.3083 35.7047 20.4543 37.2826 19.8007C37.6845 19.6344 38.1067 19.5331 38.531 19.4436C38.6739 19.4137 38.8157 19.3817 38.8882 19.5608Z" fill="#8EB5FF"/>
<path d="M38.8861 19.5624C38.1153 19.6732 37.3807 19.9121 36.6834 20.25C35.001 21.0646 33.4157 22.0305 32.0179 23.2853C30.8889 24.2993 30.1405 25.569 29.4826 26.9177C28.2534 29.437 27.587 32.1216 27.0614 34.852C27.0209 35.0642 27.0081 35.1985 27.2874 35.2262C27.5721 35.255 27.7619 35.464 27.925 35.6857C28.1702 36.0184 28.3483 36.3883 28.4869 36.7753C28.5711 37.0109 28.6553 37.0045 28.8142 36.8329C29.2449 36.3702 29.6852 35.9149 30.1959 35.5365C30.3174 35.4458 30.4422 35.3531 30.5786 35.2923C31.0904 35.0684 31.5371 35.3371 31.5776 35.8915C31.5947 36.125 31.5862 36.3585 31.5222 36.5887C31.3751 37.124 31.1352 37.6176 30.8452 38.0878C30.7311 38.2722 30.5786 38.4076 30.3526 38.3074C30.1394 38.2125 30.1522 38.0185 30.2034 37.8223C30.2929 37.4747 30.3771 37.1261 30.3953 36.7348C30.1533 36.9491 29.9123 37.1645 29.6682 37.3766C29.5093 37.5152 29.3515 37.656 29.1852 37.785C28.6468 38.2008 28.0849 38.3959 27.7256 37.4331C27.6275 37.1709 27.4879 36.9246 27.3653 36.6719C27.3567 36.6538 27.3312 36.6442 27.3056 36.625C27.1947 36.7668 27.2245 36.9331 27.2181 37.0898C27.1808 38.1325 27.2373 39.1742 27.2853 40.2158C27.3173 40.9098 27.0561 41.0826 26.4473 40.7371C25.8983 40.4258 25.379 40.0612 24.8374 39.735C24.5069 39.5356 24.1626 39.3586 23.8182 39.1848C23.7009 39.1262 23.5538 38.9961 23.4376 39.1081C23.3416 39.2008 23.4493 39.3511 23.493 39.4674C23.8129 40.3128 24.2276 41.1135 24.669 41.8992C25.1274 42.7159 25.5752 43.539 26.0603 44.3407C26.3247 44.7789 26.4345 45.2309 26.4537 45.7363C26.6126 49.7525 27.3098 53.6727 28.6937 57.4522C29.9464 60.8735 31.8346 63.8854 34.6343 66.2693C35.6684 67.1499 36.8764 67.7555 38.0961 68.3301C40.4981 69.4634 43.0078 70.2513 45.6647 70.4507C49.2267 70.7183 52.6597 70.1746 55.9573 68.7406C57.5714 68.0391 59.1344 67.2437 60.6867 66.4239C61.9117 65.7756 63.1218 65.7671 64.3649 66.3236C65.4865 66.8258 66.4546 67.5678 67.4386 68.2843C68.7254 69.2214 70.0027 70.1746 71.3482 71.0285C73.8654 72.6267 76.6022 73.6822 79.4946 74.3795C81.9094 74.9616 84.3584 75.2228 86.834 75.3059C87.8873 75.3411 88.9407 75.3934 89.993 75.4381C89.993 75.8134 89.993 76.1876 89.993 76.5629C87.1773 76.7101 84.368 76.6301 81.5896 76.129C79.7345 75.7942 77.9412 75.2068 76.1437 74.6364C72.3898 73.4455 69.2351 71.2311 66.1251 68.9261C65.495 68.4591 64.8447 68.0231 64.1655 67.6254C63.254 67.0913 62.3254 67.0763 61.3637 67.4367C60.3082 67.8312 59.3423 68.4186 58.307 68.8536C56.1843 69.746 54.1128 70.7684 51.8558 71.3217C48.345 72.1821 44.8501 72.0947 41.4139 71.0381C39.0407 70.3089 36.725 69.3728 34.7569 67.796C31.8037 65.4302 29.5882 62.494 28.1297 58.9949C26.6414 55.4223 25.7063 51.7174 25.4409 47.8505C25.3876 47.0797 25.2831 46.311 25.3503 45.5359C25.363 45.3834 25.2735 45.2715 25.1999 45.1521C24.4174 43.8737 23.6625 42.5805 23.042 41.2126C22.7105 40.4823 22.5068 39.7147 22.332 38.9385C22.1859 38.2903 22.5644 37.8841 23.2233 37.946C23.7841 37.9993 24.2766 38.2509 24.7617 38.5121C25.1392 38.7157 25.5038 38.9439 25.9057 39.1795C25.8609 37.8767 25.9921 36.6229 26.1552 35.3733C26.5689 32.2197 27.313 29.1673 28.8664 26.3505C29.9027 24.472 31.3516 22.9975 33.099 21.7821C35.114 20.3812 37.241 19.234 39.6558 18.6743C41.2188 18.3118 42.802 18.1369 44.397 18.2201C45.7531 18.2904 46.96 18.0228 48.1349 17.3021C50.2011 16.0345 52.4933 15.5718 54.906 15.753C56.1001 15.8426 57.2825 16.0633 58.4083 16.4609C59.5832 16.8757 60.6376 17.5452 61.5961 18.3459C62.0183 18.6988 62.4234 19.0741 62.8105 19.4643C63.0642 19.7212 63.2177 19.718 63.4768 19.4451C64.8244 18.025 66.2349 16.6688 67.816 15.5089C69.6967 14.1293 71.7842 13.1207 73.9197 12.2091C76.583 11.0737 79.2878 10.0587 82.128 9.45309C84.6217 8.92109 87.141 8.81129 89.6774 9.04589C89.7819 9.05549 89.8874 9.06399 89.993 9.07359C89.993 9.35509 89.993 9.63649 89.993 9.91689C89.8821 10.0651 89.7222 10.0747 89.5537 10.0896C88.5185 10.1824 87.4801 10.2346 86.4448 10.353C84.4181 10.5854 82.4191 10.95 80.4542 11.5001C77.8997 12.2155 75.4315 13.158 73.0561 14.334C71.1531 15.2764 69.3971 16.4609 67.6966 17.7296C66.6912 18.4792 65.7775 19.3342 64.8383 20.1615C64.7061 20.2777 64.5813 20.4035 64.4267 20.4867C63.7082 20.8759 63.5749 20.8268 63.0781 20.3748C61.4181 18.7478 59.4329 17.8021 57.1663 17.2755C54.1075 16.5654 51.2992 17.1337 48.5848 18.5474C47.8822 18.9131 47.2084 19.3449 46.3896 19.4408C45.8811 19.5005 45.3853 19.4525 44.8885 19.3673C42.8745 19.025 40.8776 19.1945 38.8861 19.5624Z" fill="#010101"/>
<path d="M63.0781 20.378C63.7018 20.6904 64.1464 20.6136 64.7413 20.0347C65.2957 19.4942 65.8778 18.9856 66.4738 18.4941C68.7671 16.5985 71.2256 14.9588 73.94 13.7221C76.8154 12.4128 79.7772 11.3595 82.8818 10.7347C85.2284 10.2624 87.5985 9.98733 89.992 9.92023C89.992 10.6697 89.992 11.4202 89.992 12.1697C89.815 12.3894 89.5485 12.3734 89.3139 12.3979C86.0046 12.7433 82.7944 13.5429 79.6386 14.5622C76.6289 15.5345 73.7897 16.8779 71.1553 18.6391C70.7171 18.9323 70.3055 19.2607 69.8876 19.5816C69.7917 19.6562 69.6285 19.7501 69.7287 19.8833C69.8258 20.0134 69.9665 19.8855 70.071 19.8236C70.506 19.5699 70.9175 19.2788 71.3514 19.0261C71.5007 18.9398 71.6659 18.7809 71.8493 18.9835C71.8387 19.1018 71.7512 19.1626 71.6702 19.2308C70.8663 19.9079 70.0699 20.5945 69.2564 21.2619C68.6626 21.748 67.9707 22.0732 67.2617 22.3461C66.4973 22.6404 65.7435 22.5636 65.0334 22.151C64.2583 21.7 63.5984 21.1158 63.0781 20.378Z" fill="#8EB5FF"/>
<path d="M71.8539 18.9847C71.2068 19.2405 70.6758 19.6947 70.0745 20.0306C70.0031 20.07 69.9413 20.1265 69.8709 20.167C69.6897 20.2726 69.5233 20.2353 69.4061 20.0743C69.2813 19.9047 69.3741 19.7683 69.5169 19.6542C70.3155 19.0198 71.1364 18.4185 72.0043 17.8812C75.1377 15.9419 78.5248 14.6134 82.0698 13.6486C84.5145 12.9833 86.9837 12.4577 89.5051 12.1933C89.6671 12.1762 89.8324 12.1762 89.9955 12.1688C89.9955 12.6144 89.9955 13.059 89.9955 13.5047C88.7396 13.6475 87.4943 13.8597 86.248 14.0665C82.5751 14.6753 79.0046 15.6423 75.5652 17.0805C74.2784 17.62 73.0299 18.2309 71.8539 18.9847Z" fill="#010101"/>
<path d="M89.9928 59.6914C87.7101 59.5805 85.499 59.0634 83.308 58.4632C80.3271 57.6465 77.3472 57.6114 74.3556 58.3747C73.9941 58.4675 73.6402 58.5901 73.2809 58.6956C73.2638 58.701 73.2393 58.6807 73.2031 58.6668C73.2585 58.4142 73.4696 58.2916 73.6519 58.1636C74.7842 57.3693 76.0635 57.0058 77.4261 56.8725C79.8995 56.6305 82.3048 57.01 84.6801 57.6593C86.4233 58.1348 88.2112 58.3694 89.9928 58.637C89.9928 58.9888 89.9928 59.3396 89.9928 59.6914Z" fill="#020202"/>
<path d="M45.6544 50.7031C44.4507 50.6722 43.3803 50.2756 42.57 49.3225C41.473 48.0324 41.554 46.2477 42.746 44.9854C44.0285 43.626 46.2013 43.2604 47.856 44.125C50.0086 45.2487 50.3337 47.9877 48.5042 49.6317C47.7046 50.3502 46.7493 50.6808 45.6544 50.7031Z" fill="black"/>
<path d="M53.3693 32.6959C53.4738 32.8515 53.5122 33.0232 53.4941 33.2087C53.461 33.8985 53.4344 34.5819 53.138 35.2322C52.7915 35.9935 52.4034 36.728 51.881 37.3805C51.6422 37.678 51.3863 37.969 50.9492 37.9978C50.4278 38.0319 50.172 37.6599 49.9118 37.3272C49.3617 36.6236 49.0397 35.8016 48.7892 34.9508C48.7529 34.8292 48.7369 34.6981 48.6463 34.5979C48.5269 33.8878 48.5354 33.182 48.7124 32.4805C48.9192 32.0956 48.9715 31.6521 49.1709 31.264C49.3702 30.876 49.6058 30.5103 49.898 30.1883C50.1549 29.9047 50.4321 29.8652 50.7967 30.0454C51.9215 30.5998 52.8032 31.3973 53.2926 32.5797C53.3096 32.6234 53.3342 32.6639 53.3693 32.6959Z" fill="#FEB041"/>
<path d="M45.7776 21.4349C46.5442 21.4231 47.2691 21.5852 47.9376 21.9605C49.4633 22.8198 49.7085 24.4595 48.508 25.7304C47.1465 27.1718 44.3543 27.3498 42.8276 26.0929C41.561 25.0502 41.593 23.4286 42.9011 22.3901C43.7434 21.7227 44.7168 21.4455 45.7776 21.4349Z" fill="black"/>
<path d="M48.6484 34.5985C48.754 34.6764 48.7529 34.6764 48.802 34.8096C49.1197 35.6668 49.4395 36.5229 50.0259 37.2447C50.0995 37.3353 50.173 37.427 50.2551 37.5102C50.6858 37.9505 51.0547 38.0081 51.4631 37.5646C52.5111 36.427 53.3128 35.1508 53.4354 33.5494C53.444 33.4332 53.4301 33.3138 53.4952 33.2083C53.7062 35.0239 52.8117 36.4238 51.7723 37.7661C51.6209 37.9612 51.4002 38.0902 51.1784 38.1936C50.8831 38.3322 50.6197 38.2639 50.3724 38.0475C49.5163 37.298 49.1005 36.3033 48.7934 35.2467C48.7316 35.0356 48.6964 34.815 48.6484 34.5985Z" fill="#080808"/>
<path d="M53.3717 32.6953C53.1062 32.432 53.0124 32.0609 52.78 31.771C52.2896 31.159 51.7234 30.6451 51.0283 30.2805C50.4302 29.967 50.1445 30.031 49.734 30.5758C49.3001 31.1526 48.9941 31.7944 48.8054 32.4917C48.7947 32.5311 48.7713 32.5663 48.7542 32.6036C48.7414 32.5631 48.7276 32.5226 48.7148 32.481C48.8576 31.6739 49.1594 30.934 49.6573 30.2794C50.0976 29.7005 50.4441 29.6355 51.0656 30.0246C51.7032 30.4244 52.2832 30.8914 52.7523 31.4884C53.038 31.852 53.2523 32.2486 53.3717 32.6953Z" fill="#0D0D0D"/>
<path d="M45.0528 44.4214C45.5069 44.4214 45.9366 44.5163 46.3215 44.7658C47.119 45.2818 47.2831 46.1923 46.7202 46.9546C45.991 47.9418 44.2883 48.2062 43.3 47.4844C42.5462 46.9343 42.4332 46.0249 43.0303 45.3063C43.4994 44.7434 44.2404 44.4193 45.0528 44.4214Z" fill="#FEFEFE"/>
<path d="M48.3954 48.6899C48.3922 49.1323 48.0234 49.4842 47.5766 49.4724C47.1395 49.4607 46.7952 49.1163 46.793 48.6878C46.7909 48.2592 47.1747 47.8945 47.615 47.9041C48.05 47.9148 48.3997 48.2656 48.3954 48.6899Z" fill="#FCFCFC"/>
<path d="M50.5781 30.5282C51.7541 32.4366 51.3468 34.4591 51.0355 36.3867C51.0355 35.8142 51.0355 35.151 51.0355 34.489C51.0365 33.8226 51.125 33.1509 51.0206 32.4921C50.9161 31.83 50.7284 31.1818 50.5781 30.5282Z" fill="#0C0C0C"/>
<path d="M44.367 24.75C43.8307 24.7489 43.4266 24.654 43.0759 24.3939C42.5588 24.0101 42.4714 23.4013 42.852 22.8842C43.4629 22.0548 44.931 21.8202 45.7636 22.4204C46.3031 22.8096 46.4086 23.4141 46.0099 23.9472C45.576 24.5282 44.9512 24.7159 44.367 24.75Z" fill="#FEFEFE"/>
<path d="M47.1008 24.7596C47.5155 24.7628 47.8396 25.0688 47.8332 25.4515C47.8268 25.8257 47.5144 26.1029 47.104 26.0976C46.6871 26.0923 46.3598 25.7852 46.3673 25.4078C46.3747 25.0368 46.6924 24.7564 47.1008 24.7596Z" fill="#FCFCFC"/>
</g>
</g>
<defs>
<clipPath id="clip0_394_10934">
<rect width="90" height="90" fill="white" transform="matrix(0 -1 1 0 0 90)"/>
</clipPath>
</defs>
</svg>
