<svg width="90" height="90" viewBox="0 0 90 90" fill="none" xmlns="http://www.w3.org/2000/svg">
<g clip-path="url(#clip0_1486_24104)">
<circle cx="45" cy="45" r="45" transform="rotate(-90 45 45)" fill="#79AA8A"/>
<g clip-path="url(#clip1_1486_24104)">
<path d="M6.01051 54.2278C6.01051 53.8148 6.01051 53.4006 6.01051 52.9876C6.11454 52.3657 6.02688 51.7381 6.05493 51.115C6.05025 49.2494 6.10051 47.3804 6.26415 45.524C6.43247 43.6122 6.90819 41.7443 7.42715 39.8937C8.15067 37.3128 9.10094 34.815 10.3364 32.4302C11.5859 30.02 13.0353 27.731 14.8481 25.69C15.7447 24.6805 16.7218 23.7436 17.9082 23.0502C19.7678 21.9646 22.3042 23.0606 22.7554 25.1477C22.8618 25.6392 22.8758 26.1353 22.8886 26.6326C22.9167 26.7468 22.8419 26.8276 22.7951 26.9187C21.3317 29.7616 19.8754 32.6067 18.4038 35.4449C17.6347 36.9298 16.9041 38.4354 16.0824 39.8937C15.3356 41.2205 15.2222 42.6431 15.4384 44.1014C15.7622 46.2866 16.8925 48.0322 18.5242 49.5021C20.6339 51.4035 23.1516 52.5722 25.8178 53.4675C28.6721 54.4263 31.6 55.1001 34.6016 55.3897C37.1836 55.6389 39.7691 55.6562 42.3043 54.9582C43.8273 54.5382 45.2066 53.869 46.2831 52.6807C47.0533 51.8304 47.4846 50.8278 47.7137 49.7213C48.02 48.2411 48.6009 46.8831 49.5558 45.6844C50.741 44.1972 52.1951 44.226 53.6047 45.3867C54.0547 45.7571 54.4054 46.222 54.756 46.6824C55.7343 47.9688 57.0528 48.8341 58.494 49.5125C60.2274 50.3293 62.0356 50.9616 63.9338 51.2812C67.0499 51.805 70.11 51.6077 73.0344 50.3386C75.4364 49.2956 77.268 47.6054 78.604 45.3798C79.9902 43.07 80.605 40.5294 80.9241 37.9001C81.1111 36.3598 81.1649 34.8092 81.0994 33.2609C81.0305 31.626 80.8435 29.9981 80.6155 28.3759C80.5664 28.0263 80.3981 27.6548 80.6319 27.3018C81.1181 26.5968 82.1584 26.2173 83.0876 26.4042C84.0987 26.6072 84.8725 27.1956 85.5434 27.9225C86.157 28.587 86.7905 29.2424 87.2195 30.0511C87.1856 30.7226 86.9273 31.3445 86.7695 31.9883C85.7982 35.9629 85.0034 39.9733 84.2682 43.9953C83.4476 48.481 82.6575 52.9726 81.92 57.4733C81.4524 60.3277 80.9755 63.1797 80.5267 66.0364C79.8979 70.0445 79.2632 74.0526 78.6753 78.0676C78.5946 78.6214 78.5081 79.1764 78.4099 79.7279C78.369 79.954 78.2673 80.0786 78.0254 80.0567C76.9746 79.9633 75.946 80.2263 74.9022 80.2355C74.5153 80.2182 74.2687 80.4051 74.0782 80.7316C72.6686 83.1614 70.8148 85.237 68.7331 87.1118C67.2521 88.4456 65.6193 89.5912 63.8485 90.5327C63.5504 90.6908 63.312 90.8915 63.1343 91.1799C61.9573 93.0917 60.1666 94.1693 58.0358 94.7323C57.338 94.9169 56.5946 94.9112 55.8676 94.9469C55.7075 94.955 55.5403 94.8985 55.3872 94.9896C54.3703 94.9896 53.3522 94.9896 52.3353 94.9896C51.6177 94.9088 50.8942 94.9123 50.1741 94.8823C48.6266 94.8177 47.1293 94.4923 45.6612 94.0274C44.5847 93.687 43.4556 93.6432 42.3569 93.4344C39.3401 92.8598 36.397 92.0383 33.5088 91.0069C30.6778 89.9962 27.938 88.7836 25.2555 87.4441C22.6268 86.1312 20.0577 84.7086 17.5751 83.1418C16.564 82.5038 15.7131 81.6777 14.8832 80.8216C13.781 79.6864 12.8085 78.4576 11.9401 77.147C9.95887 74.1576 8.5621 70.9075 7.58027 67.4786C6.98182 65.388 6.55636 63.2605 6.26766 61.1088C6.14727 60.2112 6.15545 59.302 6.10987 58.3986C6.07129 57.6348 6.03038 56.8688 6.05727 56.1015C6.02571 55.4773 6.11337 54.8497 6.01051 54.2278Z" fill="#802E19"/>
<path d="M93.9906 36.061C93.8247 36.8582 93.8328 37.6716 93.7534 38.4769C93.363 42.3997 92.7797 46.297 92.1485 50.1874C90.5975 59.7474 88.7156 69.2461 86.7976 78.7403C86.4808 80.3059 85.9665 81.7539 84.9777 83.0195C84.1478 84.0833 83.1554 84.8597 81.6839 84.7201C80.7616 84.6325 80.0218 84.164 79.3473 83.5883C78.9756 83.271 78.6601 82.8892 78.2907 82.5684C77.9097 82.2361 77.815 81.8542 77.9307 81.3824C77.9973 81.1112 78.0172 80.8286 78.0558 80.5505C78.1271 80.0313 78.106 80.0059 77.5532 80.0048C76.6263 80.0025 75.7005 80.0036 74.7737 80.0036C75.6655 79.8733 76.5631 79.9471 77.4585 79.9217C78.1656 79.9021 78.1598 79.9136 78.2603 79.2352C79.1603 73.1769 80.1048 67.1256 81.0866 61.0799C82.1175 54.7286 83.1882 48.383 84.3897 42.0593C85.1261 38.1874 85.8788 34.3177 86.9261 30.5126C86.9682 30.358 86.9705 30.1931 86.9916 30.0327C86.96 29.2608 87.3002 28.6136 87.6917 27.9825C87.8098 27.7933 87.9921 27.6871 88.2037 27.6548C89.0581 27.5233 89.895 27.2902 90.7775 27.3272C91.4461 27.3549 91.9709 27.6329 92.3589 28.1255C93.2648 29.2758 93.7265 30.6073 93.9053 32.046C93.9462 32.3806 93.91 32.7198 93.9941 33.0497C93.9906 34.0523 93.9906 35.0572 93.9906 36.061Z" fill="#79AA8A"/>
<path d="M62.2109 17.0092C62.5651 17.1719 62.9555 17.1788 63.3283 17.2619C64.7906 17.5872 65.5959 18.5102 65.8904 19.9224C65.9477 20.1947 66.0038 20.467 66.0611 20.7404C66.296 20.9919 66.3498 21.3185 66.3615 21.6311C66.4012 22.6626 66.4456 23.694 66.1593 24.7105C65.7677 26.1042 64.6819 26.921 63.2079 26.9856C61.4932 27.0595 60.1444 26.4388 59.1719 25.0508C58.6413 24.294 58.4975 23.4286 58.5419 22.5206C58.5863 21.6069 58.598 20.692 58.7558 19.7863C58.8061 19.4944 58.8353 19.1956 59.1439 19.0363C59.297 18.5945 59.463 18.1618 59.7505 17.7799C60.0567 17.3726 60.5067 17.1961 60.9532 17.0104C61.3729 17.0092 61.7913 17.0092 62.2109 17.0092Z" fill="#1E1E1E"/>
<path d="M6.08532 56.1984C6.06077 56.1915 6.03506 56.1834 6.01051 56.1765C6.01051 55.5269 6.01051 54.8774 6.01051 54.2267C6.16363 54.8797 6.10753 55.5396 6.08532 56.1984Z" fill="#727272"/>
<path d="M6.01051 51.0377C6.03623 51.0331 6.06311 51.0274 6.08766 51.0193C6.10168 51.6769 6.16597 52.3357 6.01051 52.9864C6.01051 52.3369 6.01051 51.6873 6.01051 51.0377Z" fill="#727272"/>
<path d="M59.1439 19.0352C58.8271 20.4105 58.7009 21.8076 58.7897 23.2083C58.9113 25.1489 60.6318 26.7145 62.6001 26.7537C62.8094 26.7584 63.0186 26.7549 63.2278 26.7468C64.662 26.6891 65.5737 25.9738 65.9477 24.6101C66.2212 23.6121 66.1932 22.5956 66.1254 21.578C66.1067 21.2988 66.0821 21.0196 66.0611 20.7404C66.9576 21.1408 67.8506 21.5504 68.684 22.073C68.8757 22.1665 68.8441 22.3199 68.8184 22.4907C68.5905 24.0113 68.5192 25.5331 68.5987 27.0756C68.6676 28.4151 68.7191 29.7592 68.8289 31.0953C68.947 32.5317 68.8348 33.9566 68.7939 35.3849C68.7518 36.8721 68.6641 38.3627 68.4818 39.8418C68.269 41.5632 68.4304 43.2269 69.1059 44.8352C69.314 45.3302 69.1761 45.5332 68.615 45.5805C67.8541 45.6451 67.1271 45.5321 66.4386 45.1871C66.1266 45.0314 65.832 44.8179 65.4346 44.7787C66.0891 45.584 69.0031 45.9809 69.8622 45.3786C69.1831 45.1225 68.9891 44.5618 68.8955 43.9434C68.7015 42.6731 68.594 41.404 68.6863 40.1106C68.7833 38.7434 68.8804 37.3751 68.9143 36.0022C68.954 34.4088 68.9949 32.8155 68.9949 31.221C68.9949 29.8608 68.8149 28.5132 68.7553 27.1587C68.6968 25.8354 68.5461 24.5086 68.7354 23.1829C68.7693 22.9487 68.8137 22.7145 68.9376 22.5068C69.1188 22.2034 69.2602 22.1849 69.5735 22.4168C70.6582 22.1526 71.7265 22.2126 72.7936 22.538C74.0034 22.9072 75.122 23.461 76.1985 24.1059C77.6595 24.9827 79.0014 26.0165 80.3035 27.1056C80.4496 27.2279 80.5817 27.3814 80.7991 27.3825C80.7009 27.919 80.8563 28.4382 80.9288 28.9585C81.2385 31.1714 81.3975 33.3935 81.318 35.6249C81.2117 38.6108 80.7722 41.5401 79.4572 44.2699C77.3662 48.6091 73.8596 51.055 69.0522 51.6377C64.5825 52.1799 60.4822 51.047 56.6823 48.7453C55.6455 48.1176 54.8729 47.2119 54.1436 46.2693C53.7672 45.7824 53.3265 45.3706 52.769 45.0856C51.703 44.541 50.7013 44.7291 49.9018 45.6175C49.0906 46.5197 48.6032 47.5904 48.2058 48.7118C48.0515 49.1468 47.9966 49.6025 47.8902 50.0467C47.307 52.473 45.6986 53.9717 43.4089 54.8451C41.8718 55.4312 40.2647 55.6839 38.6271 55.7346C33.3346 55.9008 28.2875 54.7828 23.4251 52.7972C21.3236 51.9388 19.3961 50.7758 17.8065 49.1433C16.1386 47.4311 15.1614 45.4098 15.1018 42.9973C15.0679 41.607 15.56 40.3841 16.197 39.1715C18.2974 35.1749 20.3569 31.1576 22.4269 27.146C22.5205 26.9649 22.5695 26.7607 22.6397 26.5668C22.8349 26.6349 22.9436 26.4803 23.0721 26.3926C26.2911 24.2017 29.8082 22.7283 33.6771 22.1111C34.2954 22.013 34.9231 21.9784 35.5461 21.9138C35.6887 22.043 35.677 22.2045 35.6361 22.3649C35.2164 24.0182 36.0276 25.1489 37.276 26.073C38.5617 27.0237 40.0543 27.4091 41.6299 27.4991C43.0874 27.5821 44.5134 27.4495 45.8845 26.8737C47.3339 26.2657 48.3332 25.315 48.6021 23.7298C48.6219 23.6144 48.636 23.4956 48.6991 23.3929C49.5091 22.7237 50.4547 22.2634 51.35 21.7257C51.4716 21.653 51.6446 21.6277 51.6048 21.4246C53.1255 21.3404 54.2908 20.3366 55.6747 19.8901C56.812 19.5221 57.94 19.1356 59.1439 19.0352Z" fill="#C3844E"/>
<path d="M54.6637 85.6754C54.0232 85.6431 53.2272 85.4182 52.444 85.1863C50.9666 84.7478 49.5219 84.224 48.3122 83.2237C47.5396 82.5846 47.0253 81.8369 47.1188 80.7847C47.1503 80.4328 47.1433 80.0752 47.1246 79.7221C47.1036 79.3298 47.2649 79.2295 47.6378 79.3183C48.9165 79.6229 50.1999 79.9067 51.4797 80.209C53.385 80.659 55.2867 81.1181 57.1919 81.5693C57.9364 81.7458 57.9341 81.7412 57.8313 82.4853C57.7027 83.4072 57.2924 84.1998 56.6846 84.8955C56.2066 85.4401 55.5847 85.6939 54.6637 85.6754Z" fill="#C3844E"/>
<path d="M48.92 23.4667C48.7026 24.1971 48.6313 24.9839 48.0504 25.57C47.4753 26.1503 46.878 26.6822 46.1101 27.0295C44.2785 27.859 42.3581 27.8856 40.4388 27.5995C38.7335 27.3456 37.2105 26.6234 36.0732 25.2747C35.2199 24.264 35.0773 23.1322 35.5437 21.9138C36.3853 20.452 37.733 19.6813 39.3284 19.311C41.8368 18.7295 44.2551 18.9591 46.5227 20.2443C47.0066 20.5178 47.4461 20.8535 47.8014 21.2746C48.013 21.525 48.2444 21.6507 48.5658 21.6277C48.6313 21.9992 48.775 22.3453 48.9106 22.6937C49.01 22.9487 48.9387 23.2083 48.92 23.4667Z" fill="#B5723E"/>
<path d="M48.92 23.4667C48.6605 22.9718 48.6289 22.3949 48.325 21.9115C48.2 21.7119 48.4571 21.7027 48.5658 21.6277C49.578 21.5596 50.5903 21.4927 51.6025 21.4246C51.7626 21.4373 51.9227 21.45 52.2009 21.4719C51.052 22.1792 49.9439 22.7572 48.92 23.4667Z" fill="#802E19"/>
<path d="M69.5711 22.4134C69.2263 22.3741 69.0849 22.5691 69.0299 22.8668C68.8955 23.5959 68.8535 24.3343 68.8897 25.0716C68.9563 26.4284 69.0171 27.7852 69.134 29.1385C69.2918 30.9684 69.2228 32.7993 69.1842 34.628C69.1457 36.4429 69.0545 38.2577 68.9201 40.0679C68.8242 41.3613 68.9189 42.6327 69.1211 43.9041C69.1515 44.0933 69.1971 44.2814 69.2579 44.4625C69.4344 44.9933 69.7184 45.1571 70.2818 45.0775C70.4174 45.0579 70.5985 44.939 70.6663 45.1479C70.7224 45.3175 70.56 45.4155 70.4349 45.4882C70.0714 45.7028 69.6716 45.8493 69.2532 45.8851C67.8798 46.0051 66.573 45.7467 65.3399 45.1375C65.1529 45.0452 64.9741 44.9344 64.8431 44.766C64.7578 44.6564 64.6924 44.5295 64.7707 44.3979C64.8572 44.2549 65.0044 44.2918 65.1342 44.3287C65.5561 44.4475 65.9208 44.6875 66.31 44.8744C66.9775 45.1952 67.6612 45.4352 68.4198 45.3798C68.9844 45.3394 69.0346 45.2644 68.8149 44.7418C68.1288 43.1115 68.0879 41.4213 68.255 39.6918C68.6057 36.0587 68.7705 32.4221 68.4514 28.7716C68.2819 26.8322 68.2398 24.8789 68.497 22.936C68.5355 22.6441 68.6197 22.3591 68.6816 22.0707C68.8348 21.8792 69.0241 21.803 69.2649 21.893C69.5115 21.9853 69.5933 22.1699 69.5711 22.4134Z" fill="#802E19"/>
<path d="M43.7654 43.1507C42.2459 43.2511 40.6948 42.7954 39.2408 42.0847C37.7341 41.3486 36.4355 40.3241 35.7705 38.7238C34.7162 36.1844 35.6477 33.9866 37.9235 32.6667C40.1887 31.3526 42.6246 31.1691 45.1528 31.8487C47.1702 32.3909 48.8522 33.397 50.076 35.0976C50.5271 35.7241 50.7843 36.429 50.8848 37.1824C51.1829 39.408 50.1379 40.9471 48.2771 42.0478C46.9341 42.8427 45.4696 43.1888 43.7654 43.1507Z" fill="#B5723E"/>
<path d="M39.7831 26.5714C39.6955 26.7607 39.554 26.6637 39.4406 26.6211C38.5219 26.2772 37.6827 25.8111 37.0141 25.0808C35.9657 23.9351 35.9996 22.5276 37.1158 21.4546C37.9773 20.6262 39.0608 20.2535 40.2133 20.0747C42.4586 19.7263 44.5929 20.0309 46.5355 21.2631C47.1726 21.6669 47.6939 22.1941 48.0071 22.8922C48.4454 23.8659 48.1392 25.1085 47.2801 25.7661C47.0405 25.9496 46.8827 26.2888 46.4911 26.2207C46.3123 26.1573 46.324 25.998 46.3006 25.855C46.2071 25.2608 45.881 24.8385 45.3492 24.5443C43.9793 23.7863 41.8754 23.9686 40.6714 24.9666C40.2916 25.2816 40.0473 25.6738 39.9912 26.1676C39.9748 26.3292 39.9713 26.4965 39.7831 26.5714Z" fill="#FEFEFE"/>
<path d="M39.7831 26.5715C39.6382 25.8192 39.9643 25.2504 40.5171 24.782C41.762 23.7275 44.081 23.5279 45.5011 24.3528C46.0224 24.6562 46.3906 25.067 46.5309 25.6784C46.5788 25.8861 46.5437 26.043 46.4911 26.2207C46.3999 26.3857 46.2468 26.4722 46.0797 26.5438C44.1651 27.3652 42.1979 27.3814 40.1957 26.936C39.9725 26.8864 39.8871 26.7284 39.7831 26.5715Z" fill="#1E1E1E"/>
<path d="M41.9081 42.3662C40.8818 42.2728 39.9818 41.8401 39.1484 41.2898C37.7411 40.3587 36.6904 39.1473 36.5244 37.4097C36.3245 35.3111 37.3987 33.8839 39.1858 32.9309C42.2891 31.2764 46.629 32.144 48.8674 34.8311C50.6078 36.9194 50.2361 39.7738 48.0153 41.3267C47.8996 41.4075 47.7546 41.6867 47.5723 41.3763C47.4519 41.2644 47.4379 41.119 47.4437 40.9702C47.4706 40.2987 47.1328 39.8291 46.5998 39.4599C45.2942 38.5542 42.9004 38.6638 41.7316 39.6872C41.0162 40.3137 40.9859 41.1813 41.6568 41.8551C41.8005 41.997 42.0028 42.1101 41.9081 42.3662Z" fill="#FEFEFE"/>
<path d="M41.9081 42.3662C40.3512 41.3221 40.6936 39.6837 42.4294 38.9823C43.8928 38.3916 45.3527 38.44 46.7237 39.2696C47.5828 39.7887 47.8423 40.5029 47.5735 41.3751C47.3806 41.7755 47.0218 41.9601 46.6244 42.1124C45.3164 42.6108 43.9699 42.7204 42.5872 42.5623C42.3441 42.5346 42.1383 42.417 41.9081 42.3662Z" fill="#1E1E1E"/>
</g>
</g>
<defs>
<clipPath id="clip0_1486_24104">
<rect y="90" width="90" height="90" rx="45" transform="rotate(-90 0 90)" fill="white"/>
</clipPath>
<clipPath id="clip1_1486_24104">
<rect width="78" height="88" fill="white" transform="matrix(0 -1 1 0 6 95)"/>
</clipPath>
</defs>
</svg>
