<svg width="90" height="90" viewBox="0 0 90 90" fill="none" xmlns="http://www.w3.org/2000/svg">
<g clip-path="url(#clip0_394_10992)">
<mask id="mask0_394_10992" style="mask-type:luminance" maskUnits="userSpaceOnUse" x="0" y="0" width="90" height="90">
<path d="M0 0L0 90H90V0H0Z" fill="white"/>
</mask>
<g mask="url(#mask0_394_10992)">
<path d="M90 45C90 20.1472 69.8528 0 45 0C20.1472 0 0 20.1472 0 45C0 69.8528 20.1472 90 45 90C69.8528 90 90 69.8528 90 45Z" fill="white"/>
<mask id="mask1_394_10992" style="mask-type:luminance" maskUnits="userSpaceOnUse" x="6" y="11" width="77" height="68">
<path d="M6 11L6 79H83V11H6Z" fill="white"/>
</mask>
<g mask="url(#mask1_394_10992)">
<path d="M6.00781 43.4563C6.00781 43.0962 6.00781 42.7351 6.00781 42.375C6.09884 41.8329 6.02213 41.2857 6.04668 40.7426C6.04259 39.1161 6.08656 37.4867 6.22975 35.8683C6.37702 34.2017 6.79328 32.5732 7.24737 30.9599C7.88045 28.7098 8.71193 26.5322 9.79297 24.4532C10.8863 22.352 12.1545 20.3565 13.7407 18.5771C14.5252 17.697 15.3802 16.8803 16.4183 16.2758C18.0455 15.3293 20.2648 16.2849 20.6596 18.1044C20.7526 18.5329 20.7649 18.9654 20.7762 19.3989C20.8007 19.4985 20.7353 19.5689 20.6943 19.6483C19.4139 22.1267 18.1395 24.6071 16.8519 27.0814C16.179 28.3759 15.5397 29.6885 14.8208 30.9599C14.1672 32.1166 14.068 33.3568 14.2572 34.6281C14.5405 36.5332 15.5295 38.055 16.9573 39.3364C18.8033 40.994 21.0063 42.0129 23.3392 42.7934C25.8367 43.6293 28.3986 44.2167 31.025 44.4692C33.2843 44.6864 35.5466 44.7015 37.7649 44.093C39.0975 43.7269 40.3044 43.1435 41.2463 42.1075C41.9203 41.3662 42.2977 40.4921 42.4981 39.5275C42.7661 38.237 43.2744 37.0532 44.11 36.0081C45.147 34.7116 46.4193 34.7368 47.6527 35.7486C48.0465 36.0715 48.3533 36.4768 48.6601 36.8782C49.5162 37.9997 50.6698 38.754 51.9308 39.3455C53.4476 40.0576 55.0298 40.6088 56.6907 40.8874C59.4173 41.3441 62.0948 41.1721 64.6537 40.0656C66.7555 39.1564 68.3581 37.6828 69.5271 35.7426C70.74 33.7289 71.278 31.5141 71.5572 29.2218C71.7209 27.879 71.7679 26.5272 71.7106 25.1774C71.6503 23.7521 71.4866 22.3329 71.2872 20.9187C71.2443 20.6139 71.097 20.2901 71.3015 19.9823C71.727 19.3677 72.6372 19.0368 73.4503 19.1997C74.335 19.3768 75.012 19.8897 75.5991 20.5234C76.136 21.1028 76.6903 21.6741 77.0657 22.3792C77.036 22.9646 76.81 23.5067 76.6719 24.068C75.822 27.533 75.1266 31.0293 74.4833 34.5356C73.7653 38.4463 73.0739 42.3619 72.4286 46.2857C72.0195 48.7741 71.6022 51.2605 71.2095 53.7509C70.6592 57.2452 70.1039 60.7394 69.5895 64.2397C69.5189 64.7225 69.4432 65.2063 69.3573 65.6871C69.3215 65.8842 69.2325 65.9929 69.0208 65.9738C68.1014 65.8923 67.2014 66.1216 66.2881 66.1297C65.9495 66.1146 65.7337 66.2775 65.567 66.5622C64.3336 68.6804 62.7115 70.4899 60.89 72.1244C59.5942 73.2871 58.1655 74.2859 56.616 75.1067C56.3552 75.2445 56.1466 75.4195 55.9911 75.6709C54.9612 77.3376 53.3944 78.277 51.5299 78.7679C50.9194 78.9288 50.2689 78.9238 49.6328 78.955C49.4926 78.962 49.3464 78.9127 49.2124 78.9922C48.3226 78.9922 47.4318 78.9922 46.542 78.9922C45.9141 78.9218 45.281 78.9248 44.651 78.8986C43.2969 78.8423 41.9868 78.5587 40.7022 78.1533C39.7603 77.8566 38.7723 77.8184 37.8109 77.6363C35.1712 77.1354 32.596 76.4193 30.0688 75.5201C27.5917 74.639 25.1944 73.5818 22.8472 72.4141C20.5471 71.2694 18.2991 70.0293 16.1268 68.6633C15.2421 68.1071 14.4976 67.3869 13.7714 66.6406C12.807 65.6509 11.9561 64.5797 11.1962 63.4371C9.46263 60.831 8.24045 57.9975 7.38135 55.0082C6.85771 53.1857 6.48543 51.3309 6.23282 49.455C6.12747 48.6725 6.13463 47.8799 6.09475 47.0924C6.06099 46.4265 6.0252 45.7586 6.04872 45.0898C6.02111 44.5456 6.09781 43.9984 6.00781 43.4563Z" fill="#802E19"/>
<path d="M82.9906 27.6197C82.8454 28.3148 82.8526 29.0239 82.783 29.7259C82.4414 33.1458 81.9311 36.5434 81.3788 39.9351C80.0216 48.2694 78.375 56.5504 76.6967 64.8273C76.4195 66.1922 75.9695 67.4545 75.1043 68.5579C74.3781 69.4853 73.5098 70.1622 72.2222 70.0405C71.4153 69.9641 70.7679 69.5557 70.1778 69.0538C69.8525 68.7772 69.5764 68.4443 69.2532 68.1647C68.9198 67.875 68.8369 67.542 68.9382 67.1307C68.9965 66.8943 69.0139 66.6479 69.0476 66.4055C69.11 65.9528 69.0916 65.9307 68.6079 65.9297C67.7968 65.9277 66.9868 65.9287 66.1758 65.9287C66.9561 65.815 67.7416 65.8794 68.525 65.8573C69.1438 65.8402 69.1387 65.8502 69.2266 65.2588C70.0141 59.9772 70.8405 54.7017 71.6996 49.4311C72.6017 43.894 73.5385 38.362 74.5899 32.849C75.2342 29.4735 75.8928 26.0999 76.8092 22.7827C76.846 22.6479 76.8481 22.5041 76.8665 22.3643C76.8389 21.6914 77.1365 21.1271 77.4791 20.5769C77.5824 20.412 77.7419 20.3194 77.9271 20.2913C78.6747 20.1766 79.407 19.9734 80.1791 20.0056C80.7641 20.0298 81.2233 20.2722 81.5629 20.7017C82.3555 21.7045 82.7595 22.8652 82.916 24.1195C82.9518 24.4111 82.9201 24.7069 82.9937 24.9945C82.9906 25.8686 82.9906 26.7447 82.9906 27.6197Z" fill="#79AA8A"/>
<path d="M55.1818 11.0084C55.4917 11.1502 55.8333 11.1563 56.1596 11.2287C57.439 11.5123 58.1437 12.317 58.4014 13.5481C58.4515 13.7855 58.5006 14.0229 58.5507 14.2613C58.7563 14.4805 58.8034 14.7652 58.8136 15.0378C58.8484 15.937 58.8872 16.8362 58.6367 17.7223C58.294 18.9374 57.3439 19.6495 56.0542 19.7058C54.5539 19.7702 53.3736 19.229 52.5227 18.019C52.0584 17.3592 51.9326 16.6048 51.9715 15.8133C52.0103 15.0166 52.0206 14.219 52.1586 13.4295C52.2026 13.175 52.2282 12.9145 52.4982 12.7757C52.6322 12.3904 52.7774 12.0132 53.029 11.6803C53.2969 11.3253 53.6907 11.1714 54.0814 11.0094C54.4485 11.0084 54.8147 11.0084 55.1818 11.0084Z" fill="#1E1E1E"/>
<path d="M6.07327 45.1719C6.05179 45.1658 6.02929 45.1588 6.00781 45.1528C6.00781 44.5865 6.00781 44.0202 6.00781 43.4529C6.14179 44.0222 6.0927 44.5975 6.07327 45.1719Z" fill="#727272"/>
<path d="M6.00781 40.6762C6.03031 40.6721 6.05384 40.6671 6.07531 40.6601C6.08759 41.2334 6.14384 41.8077 6.00781 42.375C6.00781 41.8087 6.00781 41.2424 6.00781 40.6762Z" fill="#727272"/>
<path d="M52.4992 12.7727C52.222 13.9717 52.1116 15.1897 52.1893 16.4108C52.2957 18.1026 53.8011 19.4675 55.5234 19.5017C55.7065 19.5057 55.8896 19.5027 56.0727 19.4957C57.3276 19.4454 58.1253 18.8218 58.4526 17.6329C58.6919 16.7628 58.6673 15.8767 58.608 14.9896C58.5917 14.7461 58.5702 14.5027 58.5518 14.2593C59.3362 14.6083 60.1176 14.9654 60.8468 15.4211C61.0145 15.5025 60.9869 15.6363 60.9644 15.7852C60.765 17.1109 60.7026 18.4375 60.7721 19.7823C60.8325 20.9501 60.8775 22.1219 60.9736 23.2866C61.0769 24.5389 60.9787 25.7811 60.9429 27.0263C60.9061 28.3228 60.8294 29.6223 60.6699 30.9118C60.4837 32.4125 60.6249 33.8629 61.216 35.265C61.3981 35.6965 61.2774 35.8736 60.7865 35.9148C60.1207 35.9711 59.4845 35.8726 58.8821 35.5718C58.609 35.436 58.3513 35.2499 58.0036 35.2158C58.5763 35.9178 61.126 36.2638 61.8777 35.7388C61.2835 35.5155 61.1137 35.0267 61.0319 34.4875C60.8621 33.3801 60.768 32.2737 60.8488 31.1462C60.9337 29.9543 61.0186 28.7614 61.0483 27.5644C61.0831 26.1754 61.1188 24.7863 61.1188 23.3963C61.1188 22.2104 60.9613 21.0356 60.9092 19.8547C60.8581 18.7011 60.7261 17.5444 60.8918 16.3887C60.9215 16.1845 60.9603 15.9803 61.0687 15.7992C61.2273 15.5347 61.351 15.5186 61.6251 15.7208C62.5742 15.4905 63.509 15.5428 64.4428 15.8264C65.5013 16.1483 66.48 16.6311 67.422 17.1933C68.7004 17.9578 69.8745 18.859 71.0138 19.8085C71.1417 19.9151 71.2573 20.0489 71.4475 20.0499C71.3616 20.5176 71.4976 20.9702 71.561 21.4238C71.832 23.353 71.9711 25.2902 71.9016 27.2355C71.8085 29.8386 71.424 32.3924 70.2734 34.7722C68.4437 38.5551 65.3755 40.6875 61.169 41.1954C57.258 41.6681 53.6702 40.6804 50.3453 38.6738C49.4381 38.1266 48.7621 37.337 48.1239 36.5153C47.7946 36.0908 47.409 35.7317 46.9212 35.4833C45.9884 35.0086 45.112 35.1725 44.4124 35.947C43.7026 36.7335 43.2761 37.667 42.9284 38.6446C42.7934 39.0238 42.7453 39.4211 42.6523 39.8084C42.1419 41.9236 40.7346 43.2302 38.7311 43.9916C37.3862 44.5026 35.9799 44.7228 34.5471 44.7671C29.9161 44.9119 25.4999 43.9373 21.2453 42.2063C19.4064 41.4579 17.7199 40.444 16.329 39.0208C14.8696 37.5282 14.0145 35.7659 13.9624 33.6628C13.9327 32.4507 14.3633 31.3846 14.9207 30.3274C16.7586 26.8432 18.5606 23.3409 20.3719 19.8437C20.4537 19.6858 20.4967 19.5077 20.558 19.3388C20.7288 19.3981 20.8239 19.2633 20.9364 19.1869C23.7531 17.2768 26.8305 15.9924 30.2158 15.4543C30.7568 15.3688 31.306 15.3386 31.8511 15.2823C31.9759 15.3949 31.9657 15.5357 31.9299 15.6755C31.5627 17.1169 32.2725 18.1026 33.3648 18.9083C34.4898 19.7371 35.7958 20.073 37.1745 20.1515C38.4498 20.2239 39.6976 20.1082 40.8972 19.6063C42.1654 19.0762 43.0399 18.2474 43.2751 16.8654C43.2925 16.7648 43.3048 16.6612 43.36 16.5717C44.0688 15.9883 44.8962 15.587 45.6796 15.1183C45.7859 15.0549 45.9373 15.0328 45.9025 14.8558C47.2331 14.7824 48.2528 13.9073 49.4637 13.518C50.4588 13.1972 51.4458 12.8602 52.4992 12.7727Z" fill="#C3844E"/>
<path d="M48.5801 70.8742C48.0197 70.846 47.3232 70.6499 46.6379 70.4477C45.3452 70.0655 44.0811 69.6089 43.0226 68.7368C42.3465 68.1796 41.8965 67.5278 41.9783 66.6105C42.0059 66.3037 41.9998 65.9919 41.9834 65.6841C41.965 65.3421 42.1062 65.2546 42.4324 65.3321C43.5513 65.5976 44.6743 65.845 45.7942 66.1086C47.4612 66.5008 49.1252 66.9012 50.7923 67.2944C51.4438 67.4483 51.4417 67.4443 51.3517 68.0931C51.2392 68.8967 50.8803 69.5877 50.3484 70.1942C49.9301 70.669 49.386 70.8903 48.5801 70.8742Z" fill="#C3844E"/>
<path d="M43.5549 16.6365C43.3647 17.2731 43.3023 17.9591 42.794 18.4701C42.2908 18.976 41.7682 19.4397 41.0963 19.7424C39.4936 20.4656 37.8133 20.4888 36.1339 20.2393C34.6418 20.018 33.3091 19.3884 32.314 18.2126C31.5674 17.3315 31.4426 16.3448 31.8507 15.2826C32.5871 14.0082 33.7663 13.3363 35.1623 13.0135C37.3571 12.5065 39.4732 12.7067 41.4573 13.8272C41.8807 14.0656 42.2653 14.3583 42.5762 14.7254C42.7613 14.9436 42.9638 15.0533 43.245 15.0332C43.3023 15.357 43.4281 15.6588 43.5468 15.9625C43.6337 16.1848 43.5713 16.4111 43.5549 16.6365Z" fill="#B5723E"/>
<path d="M43.5538 16.6406C43.3268 16.2091 43.2992 15.7062 43.0333 15.2848C42.9238 15.1108 43.1488 15.1027 43.2439 15.0373C44.1296 14.978 45.0153 14.9197 45.901 14.8603C46.0411 14.8714 46.1812 14.8824 46.4247 14.9016C45.4193 15.5181 44.4497 16.022 43.5538 16.6406Z" fill="#802E19"/>
<path d="M61.6217 15.7234C61.32 15.6892 61.1963 15.8592 61.1482 16.1187C61.0306 16.7544 60.9937 17.3981 61.0255 18.0408C61.0838 19.2237 61.1369 20.4065 61.2392 21.5864C61.3773 23.1816 61.3169 24.7779 61.2832 26.3721C61.2494 27.9543 61.1697 29.5364 61.052 31.1146C60.9682 32.2421 61.051 33.3505 61.228 34.459C61.2546 34.6239 61.2944 34.7879 61.3476 34.9458C61.5021 35.4085 61.7506 35.5513 62.2435 35.4819C62.3622 35.4648 62.5207 35.3612 62.58 35.5432C62.6291 35.6911 62.487 35.7766 62.3775 35.84C62.0594 36.027 61.7097 36.1548 61.3435 36.186C60.1418 36.2906 58.9984 36.0653 57.9194 35.5342C57.7558 35.4537 57.5993 35.3572 57.4847 35.2103C57.4101 35.1148 57.3528 35.0041 57.4213 34.8895C57.497 34.7647 57.6259 34.7969 57.7394 34.8291C58.1086 34.9327 58.4277 35.1419 58.7683 35.3049C59.3523 35.5845 59.9506 35.7937 60.6143 35.7454C61.1083 35.7102 61.1523 35.6448 60.96 35.1892C60.3596 33.768 60.3239 32.2944 60.4701 30.7867C60.7769 27.6193 60.9211 24.449 60.6419 21.2665C60.4936 19.5757 60.4568 17.8729 60.6818 16.179C60.7156 15.9246 60.7892 15.6761 60.8434 15.4247C60.9774 15.2577 61.1431 15.1913 61.3538 15.2698C61.5696 15.3502 61.6411 15.5112 61.6217 15.7234Z" fill="#802E19"/>
<path d="M39.0421 33.8005C37.7125 33.888 36.3553 33.4907 35.083 32.8711C33.7647 32.2293 32.6285 31.3362 32.0465 29.9411C31.124 27.7273 31.9391 25.8112 33.9304 24.6605C35.9125 23.5149 38.0439 23.3549 40.2561 23.9474C42.0213 24.4201 43.493 25.2972 44.5638 26.7798C44.9586 27.3259 45.1836 27.9405 45.2716 28.5973C45.5324 30.5375 44.618 31.8793 42.9898 32.8389C41.8147 33.5319 40.5332 33.8336 39.0421 33.8005Z" fill="#B5723E"/>
<path d="M35.5581 19.3471C35.4814 19.5121 35.3577 19.4276 35.2585 19.3904C34.4546 19.0906 33.7203 18.6843 33.1353 18.0476C32.2179 17.0488 32.2475 15.8217 33.2242 14.8863C33.978 14.1641 34.9261 13.8392 35.9345 13.6833C37.8992 13.3795 39.7667 13.6451 41.4665 14.7193C42.0239 15.0713 42.48 15.531 42.7541 16.1395C43.1376 16.9885 42.8697 18.0717 42.118 18.645C41.9083 18.805 41.7702 19.1007 41.4276 19.0413C41.2711 18.986 41.2814 18.8472 41.2609 18.7225C41.1791 18.2045 40.8938 17.8364 40.4284 17.5799C39.2298 16.9191 37.3888 17.078 36.3354 17.948C36.003 18.2226 35.7893 18.5646 35.7402 18.9951C35.7258 19.1359 35.7228 19.2817 35.5581 19.3471Z" fill="#FEFEFE"/>
<path d="M35.5574 19.3421C35.4306 18.6863 35.716 18.1905 36.1997 17.7821C37.2889 16.8628 39.3181 16.6888 40.5607 17.4079C41.0168 17.6725 41.339 18.0305 41.4617 18.5636C41.5036 18.7447 41.473 18.8815 41.4269 19.0364C41.3472 19.1802 41.2132 19.2556 41.0669 19.318C39.3917 20.0341 37.6704 20.0482 35.9185 19.66C35.7231 19.6167 35.6485 19.4789 35.5574 19.3421Z" fill="#1E1E1E"/>
<path d="M37.4191 33.1172C36.5211 33.0357 35.7336 32.6585 35.0044 32.1788C33.773 31.367 32.8535 30.3109 32.7083 28.7962C32.5334 26.9666 33.4733 25.7223 35.0371 24.8915C37.7525 23.4492 41.5499 24.2056 43.5084 26.5481C45.0313 28.3687 44.7061 30.8571 42.7629 32.2109C42.6616 32.2813 42.5348 32.5248 42.3753 32.2542C42.2699 32.1566 42.2576 32.0299 42.2628 31.9001C42.2863 31.3147 41.9907 30.9054 41.5243 30.5835C40.3819 29.7939 38.2874 29.8895 37.2646 30.7817C36.6387 31.3278 36.6121 32.0842 37.1992 32.6716C37.325 32.7953 37.5019 32.8939 37.4191 33.1172Z" fill="#FEFEFE"/>
<path d="M37.4177 33.1142C36.0554 32.2039 36.355 30.7757 37.8738 30.1641C39.1543 29.6491 40.4317 29.6914 41.6314 30.4146C42.3831 30.8672 42.6101 31.4898 42.3749 32.2502C42.2061 32.5992 41.8921 32.7602 41.5444 32.8929C40.4 33.3274 39.2218 33.423 38.0119 33.2852C37.7991 33.2611 37.6191 33.1585 37.4177 33.1142Z" fill="#1E1E1E"/>
</g>
</g>
</g>
<defs>
<clipPath id="clip0_394_10992">
<rect width="90" height="90" fill="white" transform="matrix(0 -1 1 0 0 90)"/>
</clipPath>
</defs>
</svg>
