<svg width="90" height="90" viewBox="0 0 90 90" fill="none" xmlns="http://www.w3.org/2000/svg">
<g clip-path="url(#clip0_2357_1227)">
<path d="M1.12543 47.1829C0.70466 39.0027 2.54809 30.6262 6.94086 23.0286C10.5549 16.7784 15.6031 11.5587 21.7006 7.78638L21.895 7.66528L22.018 7.4729C22.0101 7.48528 22.0109 7.48003 22.0297 7.46216C22.0461 7.44662 22.0701 7.42806 22.1 7.40747C28.64 3.43284 36.0807 1.24684 43.6957 1.01196L43.7631 1.01001L43.8295 0.999268C43.8351 0.998747 43.8452 0.99772 43.8618 0.996338C43.8778 0.995004 43.9058 0.991261 43.9409 0.987549C52.0368 0.806807 59.9967 2.85917 66.9819 6.88892C74.2084 11.0838 79.7887 17.0479 83.5141 23.9045L83.517 23.9104C86.9684 30.17 88.9242 37.3572 88.9243 44.9934C88.9243 50.8585 87.7488 56.6124 85.5092 61.9456L85.5082 61.9485L85.3198 62.3958C85.2575 62.5416 85.1947 62.6848 85.1293 62.8274L85.1303 62.8284L84.9858 63.1545L84.7631 63.635C84.2326 64.757 83.6517 65.858 83.019 66.9622C81.9431 68.8292 80.7316 70.6102 79.3959 72.2922L79.3696 72.3245L79.3481 72.3557L79.3325 72.3713L79.2983 72.4133C78.268 73.6918 77.1792 74.9158 76.02 76.0627L76.0161 76.0676L75.2358 76.8293C67.0941 84.5931 56.3594 88.9241 45.0063 88.9241C44.5016 88.9241 43.995 88.9114 43.4741 88.8987H43.437C43.4252 88.8981 43.4117 88.8965 43.3881 88.8948C43.3573 88.8926 43.2991 88.8905 43.2328 88.8889L43.2338 88.887L42.4741 88.8499C42.217 88.837 41.9883 88.8244 41.7641 88.802L41.7153 88.7971H41.6352L41.6098 88.7922L41.5463 88.7874C41.1911 88.762 40.8671 88.7379 40.5473 88.7024L40.4926 88.6965H40.4672C34.3959 88.0731 28.4603 86.1815 23.0161 83.0334H23.0151C15.0714 78.4553 9.10814 71.7373 5.42035 64.0276L5.39008 63.9641L5.36664 63.9309C5.24979 63.6855 5.13687 63.4461 5.02386 63.1975L5.02289 63.1965C3.03928 58.8465 1.74065 54.1157 1.26996 49.136L1.18695 48.137C1.1745 47.9627 1.16252 47.7754 1.14984 47.5852L1.14886 47.5735L1.14789 47.5608C1.14397 47.5176 1.14144 47.4707 1.13812 47.3977C1.13555 47.3411 1.13086 47.2649 1.12445 47.1838L1.12543 47.1829Z" fill="url(#paint0_radial_2357_1227)" stroke="#6EED4A" stroke-width="2"/>
<path fill-rule="evenodd" clip-rule="evenodd" d="M46.3099 89.9114C45.8796 89.9241 45.4366 89.9241 45.0063 89.9241C44.5633 89.9241 44.1203 89.9241 43.69 89.8988V53.6887C43.69 52.9672 44.2722 52.3724 45.0063 52.3724C45.7277 52.3724 46.3099 52.9672 46.3099 53.6887V89.9114ZM43.69 0.012676C43.7533 1.9554e-05 43.8166 1.9554e-05 43.8925 -0.0126369C44.7025 -0.0252933 45.5126 -0.0252933 46.3099 1.9554e-05L46.3099 36.3114C46.3099 37.0328 45.7277 37.615 45.0063 37.615C44.2722 37.615 43.69 37.0328 43.69 36.3114L43.69 0.012676ZM89.924 44.9937C89.924 45.4367 89.924 45.8796 89.9114 46.31L53.6886 46.31C52.9672 46.31 52.385 45.7278 52.385 44.9937C52.385 44.2723 52.9672 43.6901 53.6886 43.6901L89.9114 43.6901C89.924 44.1204 89.924 44.5634 89.924 44.9937ZM0.0885647 46.31C0.0632519 45.4367 0.0632519 44.5634 0.0885647 43.6901H36.3746C37.0327 43.7534 37.6276 44.2723 37.6276 44.9937C37.6276 45.7278 37.0327 46.31 36.3113 46.31H0.0885647Z" fill="#6EED4A"/>
<path fill-rule="evenodd" clip-rule="evenodd" d="M55.0049 44.9936C55.0049 50.4739 50.5498 54.929 45.0696 54.929C39.5893 54.929 35.1343 50.4739 35.1343 44.9936C35.1343 43.1711 35.6532 41.3486 36.6024 39.8804C36.9695 39.2982 37.7668 39.0831 38.349 39.4501C38.9312 39.8172 39.159 40.6145 38.792 41.1967C38.1339 42.2978 37.6909 43.69 37.6909 44.9936C37.6909 49.0943 40.9816 52.3724 45.0696 52.3724C49.1703 52.3724 52.4483 49.0943 52.4483 44.9936C52.4483 40.9056 49.0943 37.6149 45.0063 37.6149C43.69 37.6149 42.3738 37.982 41.1967 38.716C40.6145 39.0831 39.8172 38.8679 39.4501 38.2731C39.0831 37.6909 39.2982 36.8935 39.8931 36.5265C41.4878 35.5772 43.2471 35.0583 45.0063 35.0583C50.4739 35.0583 55.0049 39.5261 55.0049 44.9936Z" fill="#6EED4A"/>
<path fill-rule="evenodd" clip-rule="evenodd" d="M66.6235 44.9937C66.6235 56.9034 56.9034 66.5476 45.0696 66.5476C33.1599 66.5476 23.5283 56.8401 23.5283 44.9937C23.5283 40.9816 24.6168 37.1087 26.6671 33.7548C27.0342 33.1599 27.8315 32.9447 28.4137 33.3118C28.9959 33.6788 29.2237 34.4762 28.8567 35.0584C27.0342 37.982 26.0849 41.4246 26.0849 44.9937C26.0849 55.5238 34.628 63.991 45.0696 63.991C55.5238 63.991 64.0669 55.4479 64.0669 44.9937C64.0669 41.6397 63.1936 38.349 61.5103 35.3621C61.1433 34.7673 61.3584 33.9699 62.0166 33.6029C62.6114 33.2358 63.4088 33.451 63.7758 34.1091C65.5984 37.4757 66.6235 41.1967 66.6235 44.9937ZM58.4475 28.7048C58.4475 28.9959 58.3715 29.2237 58.2196 29.4389C57.7893 30.0211 56.9793 30.097 56.3971 29.73C53.1064 27.2493 49.1703 26.009 45.0063 26.009C41.4878 26.009 38.0579 26.9582 35.071 28.7808C34.4761 29.1478 33.6788 28.9326 33.3118 28.3378C32.9447 27.7556 33.1599 26.9582 33.7547 26.5912C37.1087 24.5409 40.9816 23.4524 45.0063 23.4524C49.7525 23.4524 54.2075 24.9079 57.9285 27.6797C58.2956 27.9075 58.4475 28.3378 58.4475 28.7048Z" fill="#6EED4A"/>
<path fill-rule="evenodd" clip-rule="evenodd" d="M78.2421 44.9937C78.2421 63.3329 63.3328 78.2422 45.0063 78.2422C39.5261 78.2422 34.261 76.9259 29.4389 74.4453C28.7807 74.0782 28.5656 73.3441 28.9326 72.686C29.2996 72.0279 30.0211 71.8127 30.6792 72.1797C35.1343 74.5085 39.9564 75.6856 45.0063 75.6856C61.9533 75.6856 75.6855 61.9533 75.6855 44.9937C75.6855 28.0467 61.9533 14.3145 45.0063 14.3145C39.2982 14.3145 33.818 15.8459 29.0718 18.7695C28.4896 19.1366 27.6923 18.9214 27.3252 18.3392C26.9582 17.7444 27.1734 16.947 27.7556 16.58C32.9447 13.4412 38.9312 11.7579 45.0696 11.7579C63.3328 11.7579 78.2421 26.6672 78.2421 44.9937ZM24.7686 68.598C24.7686 68.8891 24.6168 69.1802 24.4016 69.4713C23.8827 69.9775 23.0853 70.0535 22.5791 69.5472C15.7066 63.257 11.7578 54.3468 11.7578 44.9937C11.7578 38.868 13.4411 32.8688 16.5799 27.6797C16.947 27.0975 17.757 26.8823 18.3392 27.2494C18.9214 27.6164 19.1365 28.4138 18.7695 28.996C15.8585 33.7548 14.3144 39.2983 14.3144 44.9304C14.3144 53.5495 17.9721 61.8015 24.3257 67.5728C24.6168 67.9398 24.7686 68.3069 24.7686 68.598Z" fill="#6EED4A"/>
<path fill-rule="evenodd" clip-rule="evenodd" d="M31.9955 71.1545C31.9955 74.1415 29.5908 76.5588 26.5912 76.5588C23.6675 76.5588 21.2628 74.1415 21.2628 71.1545C21.2628 68.2309 23.6675 65.8135 26.5912 65.8135C29.5908 65.8135 31.9955 68.2309 31.9955 71.1545ZM65.5224 31.4892C65.5224 34.4129 63.1177 36.8176 60.1181 36.8176C57.1312 36.8176 54.7897 34.4762 54.7897 31.4892C54.7897 28.4897 57.1945 26.0723 60.1181 26.0723C63.1177 26.0723 65.5224 28.4897 65.5224 31.4892Z" fill="#6EED4A"/>
<path fill-rule="evenodd" clip-rule="evenodd" d="M5.96118 22.731C5.99915 22.6677 6.03712 22.5918 6.07509 22.5285C9.77077 16.137 14.9346 10.796 21.1742 6.93574C21.2628 6.79652 21.402 6.66995 21.5539 6.5687C21.9336 6.34088 22.3133 6.11307 22.7057 5.89791L46.0948 44.3355C46.2467 44.5634 46.3099 44.7785 46.3099 44.9937C46.3099 45.3607 46.1707 45.6518 45.9556 45.8796C45.5126 46.3099 44.8544 46.3859 44.4115 46.0948L5.96118 22.731Z" fill="#A9FF91"/>
</g>
<defs>
<radialGradient id="paint0_radial_2357_1227" cx="0" cy="0" r="1" gradientUnits="userSpaceOnUse" gradientTransform="translate(44.9954 44.9498) rotate(180) scale(44.9286 44.9743)">
<stop stop-color="#407E34"/>
<stop offset="1" stop-color="#0F230B"/>
</radialGradient>
<clipPath id="clip0_2357_1227">
<rect width="90" height="90" fill="white" transform="matrix(0 -1 1 0 0 90)"/>
</clipPath>
</defs>
</svg>
