<svg width="92" height="92" viewBox="0 0 92 92" fill="none" xmlns="http://www.w3.org/2000/svg">
<g clip-path="url(#clip0_2279_1270)">
<g clip-path="url(#clip1_2279_1270)">
<path d="M48.2633 1.84684C52.5019 1.84684 56.6471 2.5152 60.5832 3.83292C66.7674 5.90634 71.1106 9.08862 73.1496 10.8051C77.2164 14.2228 79.4794 17.6063 81.1338 20.0785C85.7346 26.9481 87.7027 33.419 88.3338 35.8835C89.1703 39.138 90.9106 45.9127 89.4691 54.4342C88.5803 59.6861 86.8326 63.4987 85.6749 66.0165C83.9794 69.7152 82.0562 73.9076 78.0604 78.0013C73.3139 82.8658 68.3545 84.8101 63.9815 86.5304C56.7853 89.3557 50.8774 89.7734 47.7068 89.9975C45.8172 90.1304 44.1106 90.2405 42.3031 90.2405C38.7554 90.2405 35.6409 89.7924 32.4965 88.8279C30.1662 88.1139 26.6446 87.0354 23.2649 84.1228C22.3948 83.3709 21.9243 82.8354 21.4276 82.2696C20.9122 81.681 20.3297 81.0165 19.1421 79.9304C17.3085 78.2557 16.0388 77.4051 14.6944 76.5013C13.8877 75.9582 13.055 75.4 12.0915 74.6519C9.01056 72.2557 6.42633 69.4873 4.81679 66.8557C2.21015 62.6025 2.04583 58.5696 1.7172 50.538C1.4782 44.7127 1.30641 40.5089 2.86741 35.1013C4.08857 30.8785 5.80268 27.8329 7.7894 24.3089C9.35413 21.5329 10.9711 18.662 13.8616 15.438C17.1143 11.8076 20.2774 9.62405 21.4873 8.84937C22.6151 8.12785 26.0508 5.93671 32.9072 4.19747C36.8209 3.20633 42.1873 1.84684 48.2633 1.84684Z" fill="#44485D"/>
<path d="M42.3031 89.481C39.3529 89.481 36.2235 89.1772 32.7131 88.1025C30.2409 87.343 26.9471 86.2987 23.7504 83.5456C22.0363 82.0684 22.0139 81.5329 19.6425 79.3684C16.6363 76.6228 15.0492 75.9962 12.5471 74.0519C11.7218 73.4101 7.88279 70.4253 5.45167 66.457C2.9496 62.3709 2.78902 58.4177 2.46412 50.5076C2.22512 44.7089 2.05707 40.6038 3.58445 35.3177C4.77947 31.1785 6.48238 28.1557 8.43923 24.6848C10.0749 21.7835 11.6359 19.0494 14.4143 15.9506C17.865 12.1038 21.155 9.95823 21.8832 9.49494C23.5824 8.40886 26.9172 6.49873 33.0865 4.93798C37.0861 3.92405 42.2807 2.61013 48.2633 2.61013C52.0127 2.61013 56.0757 3.12658 60.3479 4.55823C67.0326 6.79873 71.4093 10.3342 72.6716 11.3937C76.5741 14.6785 78.8073 17.9557 80.5139 20.5076C85.3948 27.7949 87.1948 34.4633 87.6093 36.0772C88.5093 39.5785 90.1189 46.1139 88.7297 54.3051C87.8745 59.3519 86.2201 63.0278 84.9952 65.6975C83.3371 69.3127 81.4326 73.4671 77.5264 77.4696C72.8919 82.2165 67.9811 84.1456 63.7089 85.8241C56.7591 88.5544 51.0044 89.0063 47.6508 89.2418C45.9069 89.3633 44.1405 89.481 42.3031 89.481ZM42.3031 91C44.1367 91 45.8546 90.8899 47.7517 90.757C50.9633 90.5291 56.9421 90.1076 64.243 87.2405C68.6869 85.4937 73.7247 83.519 78.5832 78.5405C82.6724 74.3481 84.6255 70.0911 86.3471 66.3392C87.5197 63.7797 89.2936 59.9139 90.201 54.5595C91.6724 45.8785 89.9023 38.9975 89.0546 35.6899C88.2554 32.5835 86.2463 26.3671 81.75 19.6494C80.1666 17.2835 77.7728 13.7063 73.6239 10.2203C71.5438 8.47342 67.1185 5.22658 60.8147 3.11139C56.804 1.76709 52.5803 1.08734 48.2633 1.08734C42.0977 1.08734 36.6791 2.45823 32.7243 3.46076C25.7521 5.22658 22.2417 7.46709 21.0878 8.2038C19.8517 8.99367 16.6251 11.2266 13.3089 14.9215C10.3625 18.2063 8.72678 21.1152 7.14337 23.9253C5.13425 27.4911 3.39773 30.5747 2.15043 34.8848C0.555824 40.4101 0.727607 44.6709 0.970346 50.5646C1.30645 58.7291 1.47449 62.8304 4.18196 67.2544C5.86619 70.0038 8.44296 72.7684 11.6396 75.2519C12.6218 76.0152 13.4695 76.5848 14.2874 77.1316C15.6094 78.0165 16.8529 78.8557 18.6454 80.4924C19.8031 81.5519 20.3708 82.2013 20.8749 82.7709C21.3903 83.3595 21.8757 83.9139 22.7869 84.6962C26.2861 87.7076 29.8936 88.8165 32.2836 89.5494C35.4952 90.5405 38.6807 91 42.3031 91Z" fill="#191919"/>
<path d="M70.9151 80.2174C69.6852 80.216 68.5457 80.7092 67.3367 80.846C65.7339 81.027 64.1408 81.0076 62.5491 80.7824C61.7394 80.6678 60.9728 80.408 60.3008 79.9245C60.1561 79.8209 60.003 79.7532 59.8291 79.7214C58.3126 79.4437 56.7961 79.1605 55.2517 79.0721C54.819 78.9422 54.3738 78.9533 53.9286 78.9436C53.0979 78.9243 52.2673 78.9975 51.4381 78.8801C48.4203 78.4545 45.5 77.4737 42.4335 77.3327C42.3584 77.3272 42.2818 77.3217 42.2067 77.3162C41.7963 76.9528 41.4025 76.5757 41.1034 76.1101C40.9949 75.9415 40.8279 75.8559 40.6331 75.8186C40.5622 75.4497 40.2714 75.2356 40.0251 74.9993C37.6515 72.7157 35.1513 70.5715 32.647 68.4329C32.3395 68.1704 32.0431 67.8914 31.6424 67.7656C31.5603 67.6095 31.4783 67.452 31.3976 67.2959C31.4017 65.9006 31.3586 64.5038 31.424 63.1112C31.4699 62.1124 31.1513 61.4009 30.2233 60.9865C30.425 60.6563 30.7715 60.6646 31.0929 60.6314C32.0097 60.5347 32.7875 60.9588 33.5638 61.3332C34.7451 61.9024 35.8178 62.654 36.9211 63.3544C38.7548 64.519 40.622 65.6339 42.4391 66.822C43.381 67.4382 44.309 67.9121 45.4944 67.7794C47.3546 67.5708 49.2315 67.6579 51.1014 67.5639C53.084 67.4645 55.0722 67.3553 57.0618 67.412C57.5404 68.3625 57.8284 69.3765 58.1067 70.3975C58.2555 70.9459 58.3682 71.4972 58.7717 71.9683C59.9279 73.3194 62.0163 73.5142 63.537 73.0583C63.6288 73.0307 63.7165 72.9795 63.6636 72.8082C63.0639 72.858 62.4531 72.956 61.8437 72.9478C60.3119 72.927 58.8079 72.228 58.442 70.4168C58.2722 69.5754 58.026 68.741 57.667 67.9466C56.8823 66.2059 55.7818 64.6434 54.8468 62.9869C53.9411 61.3816 52.9073 59.8481 52.0572 58.2096C52.0698 57.1182 51.971 56.0323 51.8597 54.9492C51.6774 53.1863 52.3884 51.0532 54.2861 50.2934C55.1501 49.9466 56.0267 49.8347 56.9338 49.7974C57.1216 51.2232 57.4375 52.6268 57.7143 54.036C58.3808 57.4318 59.4896 60.7074 60.497 64.0079C61.066 65.8743 62.4198 67.0224 64.4079 67.3401C64.5513 67.3636 64.7711 67.4506 64.8031 67.2503C64.8393 67.0265 64.5888 67.0914 64.4566 67.0638C63.1098 66.7778 62.0163 66.1368 61.3192 64.9128C60.6556 63.7481 60.3411 62.4647 59.953 61.1978C58.7592 57.3033 57.77 53.3645 57.162 49.336C57.1648 48.8013 57.1258 48.2639 57.1787 47.7334C57.3526 45.9664 58.1262 44.7078 60.1964 44.8308C60.426 44.8446 60.657 44.8294 60.8879 44.828C61.3401 47.1684 61.9551 49.47 62.8093 51.6956C63.3102 53.0026 63.5982 54.3206 63.697 55.7104C63.8125 57.3337 64.8267 58.5301 66.154 58.6365C67.4257 58.7373 68.7043 58.7097 69.9607 58.4209C70.0845 58.3919 70.2793 58.4057 70.257 58.2261C70.2334 58.041 70.0414 58.0935 69.9217 58.117C69.0271 58.2911 68.1186 58.3629 67.2156 58.3767C65.6685 58.4002 64.8351 58.2635 64.1923 56.4882C64.0086 55.9798 63.9307 55.4506 63.889 54.9105C63.8403 54.2653 63.8584 53.6201 63.6135 52.9874C62.5756 50.3155 61.7144 47.5911 61.2357 44.759C61.2024 44.5655 61.1662 44.3818 61.0104 44.245C60.9923 43.8817 60.9784 43.5183 60.9533 43.1564C60.8754 42.047 61.1592 40.8548 62.7384 40.7194C66.5714 40.3906 70.3711 40.4569 74.0679 41.663C75.4898 42.1271 76.806 42.811 77.862 43.901C78.1514 44.1994 78.4783 44.4909 78.5229 44.9496C77.3235 44.9842 76.1354 45.1541 74.9541 45.3406C74.4936 45.4138 74.3155 45.2729 74.2473 44.8446C74.1402 44.1621 74.0094 43.4824 73.8759 42.8055C73.8355 42.5996 73.8536 42.3551 73.5684 42.2349C73.6505 43.0707 73.8021 43.89 73.9412 44.712C73.9802 44.9455 74.1806 45.2232 73.9482 45.4152C73.6936 45.6266 73.3444 45.5934 73.0661 45.4497C72.2605 45.0339 71.4202 44.8032 70.5075 44.8087C70.2223 44.8101 70.0122 44.7134 70.0219 44.3238C70.0553 42.9533 68.9534 41.6657 67.5356 41.3659C67.5134 41.3618 67.4814 41.4087 67.448 41.435C67.5481 41.7237 67.8361 41.7306 68.0393 41.8536C68.8073 42.315 69.5683 42.782 69.752 43.7601C69.8536 44.2989 69.7214 44.4799 69.1746 44.484C68.6236 44.4896 68.0949 44.5849 67.5982 44.8115C67.3715 44.9151 67.1057 45.0076 67.0083 45.3268C67.2671 45.3917 67.4118 45.2384 67.5648 45.1458C68.0101 44.8778 68.5054 44.8032 69.0049 44.7493C69.2163 44.7258 69.4668 44.7313 69.5823 44.9289C69.6908 45.1154 69.4487 45.2149 69.368 45.3572C69.1496 45.7357 68.8546 46.088 68.8421 46.6075C69.1857 46.4886 69.1565 46.2137 69.2553 46.0231C69.4835 45.5879 69.7242 45.1472 70.2751 45.0947C71.2031 45.0076 72.0783 45.1845 72.8783 45.6956C73.2052 45.9043 73.2957 46.2925 73.6435 46.5867C73.3555 45.7178 73.9482 45.7343 74.4407 45.668C75.1294 45.5755 75.8181 45.4732 76.511 45.4152C78.1848 45.2743 79.8599 45.1582 81.5337 45.0297C83.4064 44.8861 85.2777 44.922 87.1518 45.0118C88.7755 45.0892 90.3755 45.3696 91.9894 45.5299C92.1174 45.5685 92.244 45.6197 92.3748 45.6445C94.5202 46.0604 96.6322 46.5992 98.6775 47.3756C99.5053 47.6906 100.303 48.17 101.158 48.315C102.999 48.6273 104.87 48.7709 106.728 48.9837C106.728 57.9333 106.728 66.8828 106.728 75.831C106.249 75.8255 105.843 75.5671 105.395 75.4552C101.114 74.3901 96.7964 73.7629 92.3734 74.3362C89.261 74.7396 86.349 75.7081 83.7737 77.5206C82.0999 78.6991 80.2857 79.4741 78.2515 79.7546C75.8167 80.0958 73.3708 80.2215 70.9151 80.2174Z" fill="#BA9168"/>
<path d="M31.6438 67.767C32.0445 67.8913 32.3423 68.1718 32.6484 68.4343C35.1541 70.5729 37.6543 72.717 40.0265 75.0007C40.2728 75.237 40.5636 75.4511 40.6345 75.82C39.95 77.3521 39.4978 78.9339 39.5632 80.6305C38.7131 80.6443 37.8616 80.7023 37.0143 80.6581C36.3813 80.6249 35.8484 80.7824 35.3183 81.096C32.1224 82.9874 28.7012 84.2818 25.0657 85.0942C14.9091 87.3654 4.73297 83.1075 -0.889338 74.129C-3.60519 69.7923 -5.15233 65.0399 -6.06921 60.0567C-6.46156 57.9222 -6.72869 55.7712 -6.87896 53.6063C-6.8873 53.4792 -6.84696 53.33 -7 53.2499C-7 51.1375 -7 49.0251 -7 46.9128C-6.78713 46.3505 -6.83722 45.7523 -6.77043 45.172C-6.2626 40.7373 -5.09668 36.5154 -2.61318 32.7383C-0.256288 29.1546 2.83661 26.455 6.97995 25.0514C7.76465 24.7861 8.52014 24.4366 9.28815 24.1272C9.23806 24.3385 9.10866 24.5029 8.97649 24.6715C8.39214 25.4244 7.677 26.0392 6.91734 26.6029C6.50551 26.9068 6.43177 27.219 6.64464 27.686C7.677 29.9448 8.49788 32.2823 9.20745 34.6586C10.7309 39.7633 11.5936 44.9745 11.6826 50.3044C11.7452 54.1009 11.3807 57.8531 10.4694 61.5473C10.3567 62.0046 10.4123 62.4025 10.6948 62.7976C11.2332 63.5492 11.7953 64.2814 12.4117 64.9708C13.2896 65.9517 14.2871 66.7184 15.6673 66.9008C16.3908 66.9961 17.0906 67.2586 17.8086 67.4106C18.2301 67.5004 18.4861 67.72 18.6517 68.1082C19.0134 68.9579 19.3515 69.8144 19.6075 70.7014C20.3714 73.3484 20.5731 76.0217 19.9234 78.7212C19.7467 79.4534 19.5686 80.1759 19.6827 80.9344C19.7216 81.1914 19.634 81.5478 19.9512 81.6307C20.3046 81.7232 20.4048 81.353 20.562 81.1237C20.6162 81.0449 20.6566 80.9565 20.6983 80.8695C21.817 78.5913 22.3804 76.1736 22.4597 73.651C22.5112 72.0014 22.4862 70.3491 22.4611 68.6982C22.4528 68.1635 22.6531 67.9922 23.1735 68.0005C24.8542 68.0254 26.5377 67.9259 28.217 68.0544C28.3255 68.0627 28.4855 68.1303 28.4869 67.9577C28.4883 67.5556 28.7902 67.6662 28.9864 67.6703C29.8685 67.6869 30.7562 67.7311 31.6438 67.767Z" fill="#191919"/>
<path d="M91.9894 45.5327C90.3755 45.3725 88.7755 45.0934 87.1518 45.0147C85.2791 44.9249 83.4064 44.8889 81.5337 45.0326C79.8599 45.1611 78.1834 45.2771 76.511 45.4181C75.8182 45.4761 75.1295 45.5783 74.4408 45.6709C73.9468 45.7372 73.3541 45.7206 73.6435 46.5896C73.2957 46.2953 73.2053 45.9085 72.8783 45.6985C72.0783 45.1873 71.2032 45.0091 70.2752 45.0975C69.7256 45.15 69.4835 45.5908 69.2553 46.0259C69.1565 46.2166 69.1844 46.4901 68.8421 46.6103C68.8546 46.0909 69.1496 45.74 69.368 45.36C69.4501 45.2191 69.6922 45.1183 69.5823 44.9318C69.4668 44.7342 69.215 44.7287 69.0049 44.7522C68.5054 44.806 68.0087 44.8793 67.5649 45.1487C67.4118 45.2412 67.2671 45.3946 67.0084 45.3296C67.1057 45.0105 67.3715 44.9179 67.5983 44.8143C68.0964 44.5878 68.6237 44.4924 69.1746 44.4869C69.7214 44.4814 69.8522 44.3018 69.752 43.763C69.5684 42.7849 68.8073 42.3179 68.0393 41.8565C67.8348 41.7335 67.5482 41.7266 67.448 41.4379C67.4814 41.4102 67.5134 41.3633 67.5357 41.3688C68.9534 41.6686 70.0553 42.9562 70.0219 44.3266C70.0122 44.7162 70.2223 44.8129 70.5075 44.8116C71.4202 44.806 72.2606 45.0368 73.0661 45.4526C73.3444 45.5963 73.6936 45.6281 73.9482 45.4181C74.1806 45.226 73.9802 44.9497 73.9413 44.7149C73.8021 43.8928 73.6505 43.0722 73.5684 42.2378C73.8536 42.358 73.8355 42.6025 73.8759 42.8083C74.0095 43.4867 74.1402 44.165 74.2474 44.8475C74.3155 45.2758 74.4936 45.4167 74.9542 45.3435C76.1354 45.1556 77.3222 44.987 78.5229 44.9525C79.2311 44.8323 79.9448 44.8212 80.66 44.8433C81.229 44.8613 81.5253 44.6016 81.7173 44.0711C82.8541 40.9156 84.0269 37.774 85.1692 34.6214C85.5129 33.6736 86.0082 32.7701 85.9623 31.7036C85.8482 28.9875 85.4683 26.3184 84.4833 23.7708C83.821 22.0577 82.8318 20.5436 81.1873 19.5958C80.7045 19.3181 80.3803 19.0598 80.4443 18.4809L80.461 18.4671C80.6947 18.4146 80.8784 18.2806 81.0509 18.119C82.1139 17.1187 83.1754 16.1171 84.2482 15.1266C85.8565 13.64 87.476 12.1646 89.0872 10.6808C90.3032 9.56038 91.5053 8.42752 92.7254 7.31263C94.9404 5.29006 97.1693 3.28269 99.3815 1.25737C101.182 -0.392183 102.94 -2.08732 104.77 -3.70371C105.416 -4.2729 105.947 -4.98163 106.728 -5.39609C106.728 3.82149 106.728 13.0405 106.728 22.258C104.038 22.1848 101.372 22.515 98.6984 22.6905C96.4069 22.8424 94.1251 23.0842 91.8392 23.2956C91.2187 23.3536 91.17 23.442 91.4427 24.0029C91.7195 24.5721 92.0367 25.1261 92.2691 25.7133C93.2402 28.1544 93.5491 30.7158 93.6131 33.3186C93.6674 35.5442 93.6075 37.7685 93.3613 39.9803C93.1484 41.8813 92.7741 43.7602 91.9894 45.5327Z" fill="#3F2A19"/>
<path d="M105.683 118.699C105.583 118.54 105.409 118.576 105.264 118.554C101.065 117.892 97.6187 115.848 94.7039 112.855C92.5612 110.654 90.8611 108.174 89.6868 105.314C87.5052 100.001 85.2276 94.7249 82.9918 89.4336C82.9166 89.2568 82.8596 89.0744 82.7928 88.8948C83.1253 88.6599 83.4968 88.7359 83.8572 88.7774C85.677 88.9887 87.4941 89.2167 89.3139 89.4212C92.8952 89.8246 96.4792 90.21 100.062 90.6134C102.284 90.8635 104.504 91.1315 106.726 91.3912C106.726 100.265 106.719 109.138 106.743 118.012C106.744 118.605 106.622 118.826 106.028 118.703C105.919 118.679 105.8 118.699 105.683 118.699Z" fill="#212330"/>
<path d="M106.728 -5.40039C105.947 -4.98455 105.416 -4.2772 104.77 -3.70801C102.94 -2.093 101.182 -0.396472 99.3815 1.25308C97.1693 3.2784 94.9404 5.28577 92.7254 7.30834C91.5052 8.42323 90.3017 9.55609 89.0871 10.6765C87.476 12.1603 85.8565 13.6358 84.2481 15.1223C83.1754 16.1128 82.1138 17.1158 81.0509 18.1147C80.8797 18.2763 80.6961 18.4103 80.461 18.4628C80.9493 16.2109 81.5921 13.9977 82.2488 11.79C84.0589 5.70438 86.2363 -0.243123 89.2026 -5.87978C91.643 -10.5176 94.5188 -14.8445 98.4618 -18.3909C99.9867 -19.7628 101.591 -21.0158 103.469 -21.8917C104.186 -22.2261 104.965 -22.367 105.683 -22.6847C106.031 -22.6847 106.515 -22.8201 106.689 -22.6474C106.863 -22.4747 106.726 -21.994 106.726 -21.6486C106.728 -16.2316 106.728 -10.816 106.728 -5.40039Z" fill="#212330"/>
<path d="M106.728 91.3898C104.506 91.1301 102.287 90.8621 100.063 90.612C96.482 90.2086 92.8979 89.8218 89.3153 89.4197C87.4954 89.2153 85.677 88.9873 83.8585 88.7759C83.4982 88.7345 83.1267 88.6585 82.7942 88.8934C80.7573 88.385 79.5288 86.7147 77.9468 85.5542C75.743 83.9364 73.567 82.28 71.3812 80.6373C71.2143 80.5116 71.0167 80.4163 70.9151 80.2173C73.3708 80.2215 75.8167 80.0944 78.2515 79.7587C80.2856 79.4782 82.0999 78.7018 83.7737 77.5247C86.349 75.7122 89.261 74.7437 92.3734 74.3403C96.795 73.767 101.114 74.3942 105.395 75.4593C105.843 75.5713 106.249 75.8296 106.728 75.8351C106.728 81.02 106.728 86.2049 106.728 91.3898Z" fill="#383B4A"/>
<path d="M80.4442 18.4767C80.3802 19.0556 80.7044 19.3139 81.1872 19.5916C82.8317 20.5394 83.821 22.0535 84.4832 23.7666C85.4683 26.3142 85.8481 28.9833 85.9622 31.6994C86.0067 32.7659 85.5128 33.6694 85.1691 34.6172C84.0255 37.7698 82.854 40.9128 81.7173 44.0669C81.5253 44.5974 81.2289 44.8571 80.6599 44.8391C79.9461 44.817 79.231 44.8281 78.5228 44.9483C78.4797 44.4896 78.1513 44.1981 77.8619 43.8997C76.8059 42.811 75.4898 42.1258 74.0678 41.6616C70.3711 40.4555 66.5714 40.3892 62.7383 40.718C61.1592 40.8534 60.8754 42.0457 60.9533 43.155C60.9783 43.517 60.9922 43.8803 61.0103 44.2437C60.8503 44.4136 60.7766 44.6015 60.8893 44.8281C60.6583 44.8295 60.4274 44.8447 60.1978 44.8308C58.1289 44.7079 57.3539 45.9665 57.18 47.7334C57.1285 48.2626 57.1661 48.8014 57.1647 49.336C56.8238 49.3595 56.9087 49.5916 56.9365 49.7961C56.0294 49.8334 55.1543 49.9453 54.2889 50.292C52.3911 51.0519 51.6801 53.185 51.8624 54.9478C51.9737 56.0309 52.0725 57.1168 52.06 58.2082C51.9473 58.2441 51.8346 58.2814 51.7219 58.3174C50.3876 58.3215 49.9229 58.7747 49.9855 60.0899C50.0342 61.0956 50.3765 62.0406 50.6993 62.9842C50.8495 63.4235 51.0471 63.8366 51.3768 64.1764C52.9156 65.7624 54.8704 66.59 56.9491 67.1896C56.9866 67.2628 57.0256 67.3346 57.0632 67.4078C55.0736 67.3526 53.0854 67.4603 51.1028 67.5598C49.2342 67.6538 47.3559 67.5667 45.4957 67.7753C44.3103 67.9093 43.3823 67.4355 42.4404 66.8179C40.6234 65.6284 38.7562 64.5149 36.9225 63.3503C35.8191 62.6498 34.745 61.8983 33.5652 61.3291C32.7875 60.9547 32.0111 60.5292 31.0942 60.6273C30.7728 60.6618 30.4264 60.6522 30.2247 60.9823C30.0702 60.9823 29.9589 61.0473 29.9033 61.1951C29.3732 61.4396 29.2646 61.9287 29.216 62.4274C29.1645 62.9579 29.2076 63.4967 29.1826 64.0245C29.1158 65.4778 29.9436 66.3095 31.072 66.9796C31.1499 67.1163 31.225 67.2545 31.3975 67.2932C31.4796 67.4493 31.5617 67.6068 31.6424 67.7629C30.7547 67.7284 29.8671 67.6842 28.9794 67.6648C28.7832 67.6607 28.4827 67.5515 28.4799 67.9522C28.4786 68.1249 28.3185 68.0572 28.21 68.0489C26.5293 67.919 24.8472 68.0185 23.1665 67.995C22.6462 67.9881 22.4458 68.158 22.4541 68.6927C22.4792 70.3436 22.5042 71.9959 22.4528 73.6455C22.3748 76.1681 21.8114 78.5858 20.6914 80.864C20.6496 80.9496 20.6093 81.0394 20.555 81.1182C20.3978 81.3475 20.2976 81.7178 19.9442 81.6252C19.627 81.5423 19.7133 81.1859 19.6757 80.9289C19.5616 80.1691 19.7397 79.4465 19.9164 78.7157C20.5661 76.0162 20.3644 73.3443 19.6006 70.6959C19.3446 69.8089 19.0065 68.9524 18.6447 68.1028C18.4792 67.7159 18.2245 67.4949 17.8016 67.4051C17.0837 67.2531 16.3838 66.9906 15.6604 66.8953C14.2802 66.7129 13.2826 65.9462 12.4047 64.9653C11.7883 64.2759 11.2262 63.5437 10.6878 62.7921C10.4053 62.397 10.3497 61.9991 10.4624 61.5419C11.3737 57.849 11.7396 54.0968 11.6756 50.2989C11.5866 44.969 10.724 39.7579 9.20047 34.6531C8.4909 32.2782 7.67002 29.9393 6.63766 27.6805C6.42479 27.2149 6.49992 26.9027 6.91036 26.5974C7.67002 26.0351 8.38516 25.4189 8.96951 24.666C9.10029 24.4961 9.23108 24.333 9.28116 24.1217C12.7135 22.2442 16.1737 20.4205 19.7439 18.8111C22.2928 17.6616 24.8556 16.5398 27.4295 15.447C27.8942 15.2495 28.1919 14.8764 28.6052 14.6416C28.8459 14.6955 28.9182 14.9041 29.0212 15.0864C30.5516 17.8039 31.8483 20.654 33.76 23.1546C34.2219 23.7583 34.7381 24.1217 35.4936 24.0899C36.2616 24.0567 37.0268 23.9393 37.7976 23.9973C37.9089 24.0277 38.0174 24.0761 38.1301 24.0857C40.5023 24.3096 42.6658 23.7127 44.711 22.5219C46.517 21.4719 47.9904 20.0379 49.4888 18.6315C51.1626 17.0607 53.0701 16.3671 55.3671 16.8507C56.3745 17.0634 57.2148 17.6022 58.076 18.112C58.3042 18.6328 58.6019 19.1288 58.6924 19.7021C58.7133 19.8541 58.7494 20.0061 58.7508 20.158C58.762 21.3254 58.8607 22.5177 57.827 23.395C57.6141 23.5746 57.5376 23.844 57.4597 24.1037C56.9699 25.7588 57.3484 27.2122 58.5115 28.4707C58.7745 28.7553 58.9303 29.0758 58.9456 29.4489C58.9915 30.5914 58.4656 31.5391 57.7825 32.3805C56.9964 33.3462 56.0558 33.476 54.9303 32.9538C53.9299 32.4896 53.1132 31.8002 52.3522 31.0266C52.2325 30.905 52.1421 30.7019 51.9097 30.7876C51.9042 30.8401 51.8944 30.8649 51.9028 30.876C52.8489 32.2299 54.2903 32.9483 55.6593 33.7592C55.6899 33.7772 55.7484 33.791 55.7678 33.7758C56.1755 33.4387 56.732 33.5589 57.1759 33.3061C58.5922 32.4938 59.5119 30.2294 59.0235 28.678C58.9623 28.4832 58.9915 28.2994 59.0138 28.1102C59.1766 26.6968 59.2517 25.2808 59.0319 23.8675C58.9832 23.5525 58.6993 23.2251 58.7564 22.9529C58.9345 22.1074 58.9748 21.2467 59.1432 20.404C59.3087 20.7922 59.498 21.1749 59.5522 21.599C59.6955 22.7332 60.1018 23.7915 60.5136 24.847C60.81 25.6027 61.0409 26.3791 61.0994 27.1831C61.1717 28.2 61.4792 29.1366 61.9175 30.0402C62.0844 30.3828 62.1387 30.7088 62.0775 31.0915C61.9801 31.6994 62.0093 32.3114 62.1707 32.9165C62.6618 34.7539 63.2489 36.5347 64.2201 38.2078C64.6792 39.0008 65.1077 39.552 66.0413 39.6128C66.1749 39.6211 66.3043 39.6777 66.4364 39.7012C66.6034 39.7316 66.7954 39.8145 66.9276 39.6598C67.0806 39.4815 66.9707 39.284 66.8733 39.1251C66.2959 38.1829 66.0886 37.1274 65.9342 36.0636C65.7951 35.1021 65.4959 34.1267 65.7338 33.1583C65.9634 32.2271 65.873 31.3747 65.4556 30.5361C65.1481 29.9172 64.8392 29.2969 64.5192 28.6849C63.9474 27.5921 63.6316 26.4399 63.6747 25.202C63.7011 24.4422 63.4507 23.768 63.0305 23.1504C62.6715 22.6213 62.4364 22.0397 62.2027 21.447C61.1161 18.6853 61.2969 15.7551 61.0173 12.887C62.346 13.1509 63.5133 13.7616 64.6097 14.5255C64.4747 14.5283 64.3383 14.5435 64.2048 14.5311C63.0305 14.4123 62.538 15.1583 62.4267 16.0577C62.3168 16.9405 62.275 17.8702 62.6674 18.6632C63.1001 19.5377 63.2114 20.3556 63.1265 21.3241C63.0291 22.4196 63.5578 23.4461 64.0476 24.4311C64.3898 25.1178 64.7864 25.7823 64.9964 26.5255C65.9398 29.8633 66.8733 33.2052 67.8111 36.5444C67.8556 36.7047 67.8166 36.9395 68.01 36.9934C68.2563 37.0625 68.2758 36.7641 68.4219 36.6577C70.065 35.8343 71.128 34.4583 71.9377 32.8889C73.7283 29.4143 74.3795 25.6883 74.2097 21.8159C74.1527 20.4979 73.7896 19.2656 72.9228 18.1949C72.3454 17.482 71.5996 16.9736 70.961 16.3409C73.8285 17.3494 76.8282 17.8177 79.7778 18.4919C80.0018 18.5403 80.2286 18.6618 80.4442 18.4767ZM45.4512 45.6542C45.4526 44.4385 45.454 43.2214 45.454 42.0056C45.454 41.7403 45.4763 41.4696 45.3024 41.2375C45.3566 40.3436 45.2578 39.4429 44.8196 38.6775C44.487 38.0959 44.3576 37.5267 44.3256 36.8939C44.309 36.5665 44.2742 36.2322 43.886 36.0982C43.399 36.0208 43.1152 36.3082 42.9149 36.677C42.6227 37.2172 42.3277 37.7615 42.1093 38.3321C41.3816 40.2276 40.9642 42.1603 41.5903 44.1774C42.2929 46.4403 43.4909 48.4491 44.8502 50.3722C44.9239 50.4772 44.9935 50.6512 45.1479 50.596C45.3705 50.5172 45.1966 50.3335 45.2036 50.1967C45.2857 48.6812 45.3677 47.1684 45.4512 45.6542ZM37.8518 31.0127C37.3357 30.9796 36.704 31.0583 36.0724 31.1578C35.5423 31.2421 35.2 31.5198 35.0344 32.0323C34.8257 32.6761 34.6922 33.3337 34.6588 34.0065C34.535 36.5914 34.4626 39.179 34.2845 41.7597C34.2024 42.9464 34.2191 44.1345 34.1176 45.3213C34.0355 46.2773 33.8908 47.2762 34.4529 48.1838C34.7353 48.6411 34.9384 49.1454 35.2167 49.6054C35.6744 50.3611 35.9847 51.2425 36.6275 51.8421C38.0258 53.1477 39.6063 54.2253 41.3691 55.0044C41.6668 55.1357 42.0745 55.3595 42.3249 54.9989C42.5823 54.6259 42.3096 54.275 42.055 53.9724C42.03 53.9434 42.0008 53.9172 41.9757 53.8896C40.7096 52.5122 39.5576 51.0477 38.5517 49.4728C37.9785 48.5776 37.479 47.6298 37.3593 46.5619C37.0713 43.9784 37.0073 41.3701 37.4567 38.8184C37.8616 36.5237 38.5447 34.2676 39.5214 32.1249C39.8206 31.4687 39.566 31.0293 38.8466 31.0141C38.5559 31.0072 38.2665 31.0127 37.8518 31.0127ZM41.9799 34.2359C41.6752 34.4514 41.6724 34.45 41.5041 34.8285C40.8821 36.217 40.3465 37.64 40.0543 39.1348C39.7774 40.5509 39.6021 41.9835 39.8887 43.4231C40.5301 46.6406 42.0675 49.4756 43.7455 52.2483C43.8109 52.356 43.8818 52.4901 44.0696 52.4417C44.1309 52.1944 43.9945 51.9872 43.8749 51.8103C43.0429 50.578 42.3917 49.249 41.7628 47.913C40.8849 46.048 40.1503 44.1387 40.1072 42.0291C40.0529 39.4456 40.8223 37.0735 41.863 34.7595C41.9354 34.5937 42.1162 34.45 41.9799 34.2359ZM48.0224 43.2089C48.0919 42.6812 47.9445 41.8992 47.8819 41.1173C47.733 39.2494 47.3629 37.4272 46.4725 35.7528C46.1218 35.0938 45.7504 34.4348 45.1702 33.9333C45.0825 33.8573 44.9629 33.6832 44.8335 33.8352C44.7264 33.9623 44.8585 34.088 44.9643 34.1696C45.4317 34.5357 45.742 35.0289 46.0077 35.5359C47.1305 37.6704 47.5869 39.9665 47.6606 42.3565C47.7246 44.4343 47.5577 46.4956 47.2697 48.5513C47.2474 48.7074 47.1278 48.9464 47.3671 48.981C47.5605 49.01 47.5257 48.7613 47.5465 48.6204C47.7928 46.9142 47.9876 45.2011 48.0224 43.2089ZM77.3374 25.1841C77.5127 24.9506 77.368 24.8124 77.2873 24.6715C76.3106 22.9833 75.4397 21.2729 76.1089 19.2324C76.1381 19.144 76.1576 19.0266 76.0254 19.0003C75.9141 18.9782 75.8529 19.0722 75.8167 19.162C75.7736 19.2683 75.7458 19.3802 75.7124 19.4908C75.263 20.9607 75.7597 22.2911 76.3468 23.5994C76.5986 24.1617 76.8672 24.7282 77.3374 25.1841ZM57.1202 35.1214C57.0785 35.156 57.0367 35.1919 56.995 35.2264C57.3776 35.6464 57.7602 36.0678 58.1428 36.4878C58.1818 36.4518 58.2193 36.4173 58.2583 36.3814C57.9369 35.9117 57.6155 35.4406 57.1202 35.1214ZM59.1515 37.4369C59.0513 37.2241 58.9581 37.0072 58.6284 36.9713C58.7313 37.2656 58.8746 37.4244 59.1515 37.4369ZM56.284 34.45C56.355 34.3519 56.3925 34.3077 56.3884 34.3036C56.355 34.269 56.3146 34.2428 56.2757 34.2151C56.2576 34.2414 56.22 34.269 56.2242 34.2911C56.2311 34.3409 56.259 34.3878 56.284 34.45Z" fill="#8A6948"/>
<path d="M31.6257 13.3664C32.5871 13.2463 33.5123 13.4714 34.4278 13.6953C36.0084 14.0807 37.5917 14.4137 39.2306 14.3957C39.8219 14.3888 40.3632 14.2755 40.8988 14.0047C42.5002 13.1938 44.1726 12.5375 45.8116 11.8067C48.8307 10.4625 51.8805 10.544 54.9873 11.3895C55.7484 11.5967 56.483 11.9062 57.2788 11.9822C57.2997 12.6315 57.315 13.2794 57.347 13.9287C57.4124 15.237 57.7338 16.4942 57.9939 17.7653C57.3414 17.3121 56.675 16.8811 55.8861 16.7056C55.445 16.6075 55.317 16.363 55.3059 15.932C55.2809 14.9884 54.787 14.2866 53.8659 14.0669C52.3967 13.716 50.5977 13.9785 49.5139 15.3766C48.9476 16.106 48.6485 16.9543 48.3368 17.8025C47.9194 18.9382 47.5326 20.0862 46.5211 20.8861C43.9709 22.9018 41.1632 24.1507 37.8171 23.855C36.3659 21.5921 34.9231 19.3236 33.4581 17.0676C32.7026 15.9016 32.0556 14.6886 31.6257 13.3664ZM41.0491 21.8477C41.0519 21.3669 41.2884 20.8696 40.9434 20.4136C40.9336 19.8389 40.9684 19.2601 40.7945 18.6978C40.7527 18.0816 40.6734 17.4751 40.3395 16.9322C40.2686 16.736 40.2032 16.5371 40.1253 16.3423C39.5242 14.8336 38.6505 14.509 37.2007 15.2522C36.9753 15.2868 36.8807 15.4484 36.8306 15.6432C36.6122 16.4804 36.5217 17.3287 36.5732 18.1935C36.6317 19.1482 36.9948 20.0102 37.3607 20.8751C35.6007 19.4991 35.4546 17.6188 35.7301 15.5949C35.417 16.3962 35.3405 17.1891 35.4866 18.0084C35.7398 19.4328 36.32 20.6347 37.6877 21.3268C37.8992 21.3821 38.0313 21.5534 38.2038 21.6667C38.8592 22.0977 39.527 22.5136 40.1893 22.9349C40.6734 23.1394 40.9058 22.9211 40.9837 22.4625C41.0157 22.2608 41.0268 22.0535 41.0491 21.8477ZM42.0425 14.9179C41.9242 15.0713 41.9701 15.1376 42.0174 15.197C42.4947 15.7924 42.6602 16.4735 42.6797 17.2292C42.7159 18.5997 42.2832 19.8721 41.9437 21.168C41.8741 21.4346 41.7197 21.6985 41.8658 21.9845C42.0341 21.6266 42.1427 21.2619 42.2498 20.8972C42.6366 19.5889 43.0289 18.2806 42.8982 16.8907C42.8286 16.1502 42.6435 15.4581 42.0425 14.9179ZM41.4122 14.5297C41.4929 14.5394 41.5486 14.5186 41.5263 14.4523C41.5124 14.4109 41.4526 14.3736 41.4053 14.3556C41.3496 14.3363 41.287 14.3653 41.3093 14.4316C41.3232 14.4758 41.383 14.5048 41.4122 14.5297Z" fill="#8A6948"/>
<path d="M70.968 16.3409C71.6066 16.9736 72.3538 17.482 72.9298 18.1949C73.7966 19.267 74.1597 20.4993 74.2167 21.8159C74.3865 25.6883 73.7353 29.4143 71.9447 32.8889C71.135 34.4583 70.072 35.8357 68.4289 36.6577C68.9019 34.9722 69.1955 33.2619 69.2984 31.5115C69.3958 29.8357 69.3652 28.193 68.792 26.5766C68.2118 24.9423 67.8459 23.2471 68.088 21.5009C68.3384 19.6925 67.8292 18.264 66.3614 17.0897C65.6615 16.5301 65.1593 15.704 64.945 14.777C66.4003 14.8101 67.7902 15.1583 69.1509 15.6404C69.7603 15.8587 70.3614 16.106 70.968 16.3409Z" fill="#9F7171"/>
<path d="M57.9953 17.7652C57.7351 16.4942 57.4138 15.237 57.3484 13.9287C57.3164 13.2794 57.2997 12.63 57.2802 11.9821C58.364 11.8591 59.3755 12.1244 60.355 12.5554C60.5832 12.6563 60.803 12.7765 61.0256 12.8884C61.3053 15.7564 61.1244 18.6867 62.211 21.4484C62.4448 22.041 62.6785 22.6227 63.0388 23.1518C63.459 23.7707 63.7095 24.4435 63.683 25.2034C63.6399 26.4412 63.9557 27.5934 64.5276 28.6862C64.8476 29.2996 65.1564 29.9185 65.4639 30.5375C65.8813 31.3774 65.9717 32.2285 65.7422 33.1596C65.5043 34.1267 65.802 35.102 65.9425 36.065C66.097 37.1274 66.3043 38.1842 66.8817 39.1265C66.9791 39.2839 67.089 39.4829 66.9359 39.6611C66.8024 39.8158 66.6117 39.7329 66.4448 39.7026C66.3112 39.6791 66.1818 39.6224 66.0497 39.6141C65.1147 39.5547 64.6876 39.0021 64.2284 38.2091C63.2587 36.5361 62.6715 34.7553 62.179 32.9178C62.0176 32.3127 61.9884 31.7007 62.0858 31.0928C62.147 30.7102 62.0928 30.3827 61.9258 30.0415C61.4861 29.138 61.18 28.1999 61.1077 27.1845C61.0507 26.3791 60.8183 25.604 60.522 24.8483C60.1087 23.7942 59.7039 22.7359 59.5606 21.6003C59.5063 21.1762 59.3171 20.7949 59.1515 20.4053C59.0513 20.1401 58.9539 19.872 58.6993 19.7049C58.6089 19.1315 58.3112 18.6356 58.083 18.1147C58.0969 17.9876 58.0705 17.8702 57.9953 17.7652Z" fill="#191919"/>
<path d="M64.9436 14.7797C65.1578 15.7067 65.6601 16.5329 66.3599 17.0924C67.8292 18.2667 68.337 19.6952 68.0866 21.5036C67.8445 23.2499 68.2104 24.9437 68.7906 26.5794C69.3638 28.1944 69.3944 29.837 69.297 31.5142C69.1954 33.2632 68.9005 34.975 68.4274 36.6604C68.2813 36.7668 68.2619 37.0652 68.0156 36.9961C67.8236 36.9423 67.8626 36.7088 67.8167 36.5471C66.8789 33.208 65.9453 29.8661 65.002 26.5283C64.7919 25.785 64.3954 25.1205 64.0531 24.4339C63.5634 23.4488 63.0347 22.4224 63.1321 21.3268C63.2184 20.3584 63.107 19.5391 62.673 18.666C62.2806 17.8744 62.3223 16.9432 62.4323 16.0604C62.5436 15.1596 63.0361 14.4136 64.2104 14.5338C64.3439 14.5476 64.4803 14.531 64.6152 14.5283C64.7669 14.5601 64.8518 14.6733 64.9436 14.7797Z" fill="#46352D"/>
<path d="M31.6257 13.3664C32.0556 14.6885 32.7026 15.9029 33.4595 17.0675C34.9231 19.3222 36.3659 21.592 37.8185 23.855C37.8129 23.9033 37.8073 23.9517 37.8032 24.0001C37.031 23.942 36.2671 24.0608 35.4991 24.0926C34.7437 24.1258 34.2275 23.761 33.7656 23.1573C31.8525 20.6567 30.5572 17.8066 29.0267 15.0892C28.9238 14.9068 28.8514 14.6982 28.6107 14.6443C28.6233 14.6084 28.6566 14.5628 28.6455 14.5379C28.2991 13.7629 28.9043 13.5833 29.4052 13.3484C29.8615 13.1343 30.3485 13.0486 30.8507 13.0169C31.1805 12.9961 31.4518 13.0625 31.6257 13.3664Z" fill="#191919"/>
<path d="M39.5632 80.629C39.4992 78.9325 39.9499 77.3507 40.6345 75.8185C40.8293 75.8558 40.9962 75.9415 41.1047 76.1101C41.4039 76.5742 41.7976 76.9528 42.208 77.3161C42.1148 77.4612 42.0119 77.6007 41.9298 77.7527C41.2411 79.0265 41.2592 80.3002 43.0748 80.8349C43.7969 81.0477 44.5274 80.973 45.2509 81.0559C45.3956 81.0725 45.6293 81.1596 45.646 80.9717C45.6669 80.7258 45.4011 80.7962 45.2509 80.7948C44.4175 80.7852 43.6008 80.6857 42.8133 80.3969C41.9409 80.0764 41.6153 79.4782 41.895 78.5899C42.0314 78.1575 42.2526 77.7513 42.4362 77.3327C45.5027 77.4736 48.4231 78.4545 51.4408 78.88C52.2701 78.9975 53.1007 78.9242 53.9313 78.9436C54.3765 78.9532 54.8217 78.9422 55.2544 79.0721C52.5636 81.7467 49.4067 83.2222 45.511 82.8271C44.1629 82.6903 42.8174 82.5535 41.5402 82.0645C40.7527 81.7619 40.0237 81.3765 39.5632 80.629Z" fill="#8A6948"/>
<path d="M56.9379 49.7974C56.9101 49.5929 56.8252 49.3608 57.1661 49.3373C57.7741 53.3658 58.7633 57.3046 59.9571 61.1991C60.3453 62.4646 60.6597 63.7494 61.3234 64.9141C62.0204 66.1381 63.114 66.7778 64.4608 67.0651C64.593 67.0928 64.842 67.0278 64.8072 67.2516C64.7752 67.452 64.5554 67.3635 64.4121 67.3414C62.4239 67.0237 61.0702 65.8742 60.5011 64.0092C59.4938 60.7087 58.3835 57.4331 57.7185 54.0373C57.4416 52.6267 57.1258 51.2245 56.9379 49.7974Z" fill="#3F2A19"/>
<path d="M51.7233 58.3202C51.836 58.2843 51.9487 58.247 52.0614 58.211C52.9101 59.8495 53.9438 61.383 54.8496 62.9884C55.7832 64.6448 56.8837 66.2074 57.6698 67.9481C58.0274 68.7425 58.2736 69.5769 58.4447 70.4183C58.8107 72.2281 60.3161 72.9285 61.8465 72.9492C62.4559 72.9575 63.0653 72.8594 63.6664 72.8097C63.7192 72.981 63.6316 73.0335 63.5397 73.0598C62.019 73.5143 59.9307 73.3209 58.7745 71.9697C58.3724 71.4986 58.2597 70.9474 58.1094 70.3989C57.8312 69.378 57.5432 68.3639 57.0646 67.4134C57.027 67.3402 56.988 67.267 56.9505 67.1951C55.2085 64.2345 53.4652 61.278 51.7233 58.3202Z" fill="#3F2A19"/>
<path d="M60.8921 44.8308C60.7794 44.6042 60.8517 44.4163 61.0131 44.2464C61.169 44.3832 61.2051 44.5669 61.2385 44.7603C61.7171 47.5925 62.5784 50.3169 63.6163 52.9887C63.8626 53.6215 63.8445 54.2667 63.8918 54.9118C63.9321 55.452 64.01 55.9812 64.1951 56.4896C64.8379 58.2648 65.6713 58.403 67.2184 58.3781C68.1214 58.3643 69.0313 58.2925 69.9245 58.1184C70.0456 58.0949 70.2362 58.0424 70.2598 58.2275C70.2835 58.4071 70.0873 58.3947 69.9635 58.4223C68.7071 58.7097 67.4285 58.7387 66.1568 58.6378C64.8295 58.5328 63.8153 57.3364 63.6998 55.7118C63.601 54.3219 63.313 53.0039 62.8121 51.697C61.9592 49.4728 61.3443 47.1711 60.8921 44.8308Z" fill="#3F2A19"/>
<path d="M42.4363 77.3328C42.2526 77.7514 42.0314 78.1576 41.895 78.59C41.6154 79.4783 41.9409 80.0779 42.8133 80.397C43.6008 80.6858 44.4161 80.7852 45.2509 80.7949C45.4012 80.7963 45.6669 80.7258 45.646 80.9717C45.6293 81.161 45.3956 81.0726 45.2509 81.056C44.5274 80.9731 43.797 81.0477 43.0749 80.835C41.2592 80.2989 41.2411 79.0265 41.9298 77.7528C42.0119 77.6022 42.1149 77.4613 42.2081 77.3162C42.2846 77.3217 42.3597 77.3273 42.4363 77.3328Z" fill="#3F2A19"/>
<path d="M29.9033 61.1992C29.9589 61.0514 30.0703 60.9865 30.2247 60.9865C31.1513 61.4023 31.4713 62.1138 31.4254 63.1127C31.36 64.5053 31.4031 65.902 31.399 67.2973C31.2264 67.2586 31.1499 67.1191 31.072 66.9837C31.2028 65.7252 31.1277 64.461 31.1847 63.2025C31.2306 62.2009 30.8271 61.5543 29.9033 61.1992Z" fill="#3C3C3C"/>
<path d="M37.8519 31.0128C38.2665 31.0128 38.5559 31.0072 38.8467 31.0142C39.566 31.0293 39.8206 31.4687 39.5215 32.1249C38.5448 34.2677 37.8616 36.5237 37.4568 38.8184C37.0074 41.3687 37.0714 43.9785 37.3594 46.5619C37.479 47.6312 37.9785 48.5776 38.5517 49.4728C39.5576 51.0464 40.7097 52.5122 41.9758 53.8896C42.0022 53.9186 42.0314 53.9434 42.0551 53.9725C42.3111 54.275 42.5838 54.6259 42.325 54.9989C42.0759 55.3595 41.6669 55.1357 41.3691 55.0045C39.6049 54.2253 38.0258 53.1477 36.6275 51.8421C35.9847 51.2426 35.6759 50.3598 35.2167 49.6054C34.9385 49.1454 34.7353 48.6411 34.4529 48.1838C33.8908 47.2762 34.0369 46.2773 34.1176 45.3213C34.2192 44.1346 34.2025 42.9465 34.2846 41.7597C34.4626 39.179 34.5336 36.59 34.6588 34.0066C34.6908 33.3337 34.8258 32.6761 35.0345 32.0323C35.2 31.5198 35.5423 31.2421 36.0724 31.1578C36.7041 31.0584 37.3357 30.9796 37.8519 31.0128Z" fill="#191919"/>
<path d="M51.7233 58.3201C53.4652 61.2779 55.2085 64.2358 56.9505 67.1923C54.8704 66.5927 52.917 65.7665 51.3782 64.1792C51.0485 63.8393 50.8509 63.4262 50.7007 62.9869C50.3779 62.0433 50.0356 61.097 49.9869 60.0926C49.9243 58.7774 50.389 58.3242 51.7233 58.3201Z" fill="#BA9168"/>
<path d="M45.2036 50.1952C45.1967 50.332 45.3706 50.5158 45.148 50.5945C44.9949 50.6484 44.9253 50.4757 44.8502 50.3707C43.4909 48.4476 42.293 46.4389 41.5904 44.1759C40.9643 42.1602 41.3817 40.2261 42.1093 38.3306C42.3278 37.7601 42.6227 37.2157 42.9149 36.6756C43.1139 36.3067 43.3991 36.0193 43.886 36.0967C43.6954 36.2791 43.4505 36.431 43.3212 36.6507C42.3751 38.245 41.6864 39.9277 41.6363 41.8121C41.6961 41.9074 41.7573 42.0028 41.8171 42.0981C41.614 42.63 41.7044 42.9367 42.094 43.0071C42.3431 43.0527 42.549 42.9767 42.6756 42.7446C42.8495 42.4241 42.6742 42.2045 42.4516 42C42.6032 41.9737 42.7563 41.9489 42.9079 41.9212C43.8832 41.7375 44.661 42.1202 44.988 42.9477C45.3469 43.8554 45.0631 44.7119 44.238 45.2549C43.8429 45.5146 43.4158 45.5643 42.9622 45.5105C42.6714 45.4759 42.4697 45.5146 42.6645 45.8738C43.0318 47.0592 43.7288 48.0746 44.38 49.1107C44.6193 49.4934 44.7848 49.9424 45.2036 50.1952Z" fill="#191919"/>
<path d="M58.6966 19.7063C58.9512 19.8735 59.0486 20.1415 59.1488 20.4068C58.9804 21.2495 58.9387 22.1116 58.762 22.9557C58.7049 23.2292 58.9888 23.5567 59.0375 23.8703C59.2573 25.2836 59.1808 26.6996 59.0194 28.1129C58.9971 28.3022 58.9679 28.486 59.0291 28.6808C59.5161 30.2322 58.5964 32.4965 57.1814 33.3089C56.739 33.5631 56.1811 33.4415 55.7734 33.7786C55.754 33.7938 55.6955 33.78 55.6649 33.762C54.2959 32.9511 52.8544 32.2327 51.9084 30.8788C51.9 30.8663 51.9111 30.8415 51.9153 30.7904C52.1477 30.7061 52.2381 30.9078 52.3577 31.0294C53.1188 31.803 53.9355 32.4924 54.9359 32.9566C56.0614 33.4788 57.0034 33.349 57.7881 32.3833C58.4712 31.5419 58.9971 30.5942 58.9512 29.4516C58.9359 29.0786 58.7787 28.7567 58.5171 28.4735C57.354 27.2149 56.9755 25.7616 57.4653 24.1065C57.5418 23.8468 57.6197 23.5788 57.8326 23.3978C58.8663 22.5205 58.7675 21.3282 58.7564 20.1608C58.7536 20.0103 58.7175 19.8583 58.6966 19.7063Z" fill="#3F2A19"/>
<path d="M41.6362 41.8137C41.6863 39.9279 42.375 38.2452 43.3211 36.6523C43.4505 36.434 43.6954 36.282 43.886 36.0983C44.2742 36.2309 44.309 36.5666 44.3257 36.894C44.3577 37.5268 44.4857 38.096 44.8196 38.6776C45.2578 39.4416 45.3566 40.3423 45.3024 41.2376C43.9639 40.4888 42.8745 40.6601 41.6362 41.8137Z" fill="#FEFEFE"/>
<path d="M37.8018 24.0001C37.8073 23.9517 37.8129 23.9034 37.8171 23.855C41.1632 24.1507 43.9722 22.9018 46.5211 20.8861C47.534 20.0848 47.9208 18.9382 48.3368 17.8025C48.6485 16.9543 48.9476 16.106 49.5139 15.3766C50.5977 13.9798 52.3967 13.7174 53.8659 14.0669C54.787 14.2865 55.2809 14.9884 55.3059 15.9319C55.317 16.363 55.445 16.6075 55.8861 16.7056C56.675 16.8811 57.3428 17.3121 57.9939 17.7652C58.0691 17.8716 58.0941 17.9891 58.0788 18.1162C57.2176 17.6064 56.3772 17.0676 55.3699 16.8548C53.0729 16.3699 51.164 17.0634 49.4916 18.6356C47.9932 20.042 46.5197 21.476 44.7138 22.526C42.6686 23.7155 40.5051 24.3123 38.1329 24.0899C38.0216 24.0775 37.9131 24.0305 37.8018 24.0001ZM48.1532 19.1482C48.4648 19.1634 48.558 18.9948 48.6707 18.876C50.2819 17.1809 52.213 16.2538 54.6047 16.421C54.8203 16.4362 54.9177 16.3478 54.9623 16.1419C55.093 15.5451 54.7146 14.7549 54.1581 14.4882C52.8586 13.8666 50.9094 14.3087 49.9466 15.3738C48.974 16.45 48.7639 17.8495 48.1532 19.1482Z" fill="#3F2A19"/>
<path d="M29.9033 61.1992C30.8271 61.5542 31.2306 62.2008 31.1847 63.2024C31.1276 64.461 31.2028 65.7251 31.072 66.9836C29.9436 66.3136 29.1158 65.4819 29.1826 64.0285C29.2076 63.5008 29.1645 62.962 29.216 62.4315C29.2646 61.9328 29.3732 61.4437 29.9033 61.1992Z" fill="#BA9168"/>
<path d="M41.6362 41.8135C42.8745 40.66 43.9639 40.4873 45.3024 41.2361C45.4749 41.4682 45.454 41.7389 45.454 42.0042C45.454 43.2199 45.4526 44.4371 45.4512 45.6528C44.5497 46.07 43.637 46.3381 42.6658 45.8739C42.471 45.516 42.6742 45.476 42.9636 45.5105C43.4171 45.5644 43.8457 45.5147 44.2394 45.2549C45.0644 44.7134 45.3483 43.8568 44.9893 42.9478C44.6624 42.1202 43.8846 41.7362 42.9093 41.9213C42.7576 41.9503 42.6046 41.9738 42.4529 42C42.2303 41.9614 42.0244 42.0235 41.8199 42.0981C41.7573 42.0056 41.6961 41.9102 41.6362 41.8135Z" fill="#512314"/>
<path d="M42.6645 45.8739C43.637 46.3381 44.5497 46.0701 45.4499 45.6529C45.3678 47.167 45.2857 48.6812 45.2036 50.1953C44.7848 49.9425 44.6193 49.4921 44.38 49.1108C43.7288 48.0747 43.0318 47.0606 42.6645 45.8739Z" fill="#FEFEFE"/>
<path d="M41.9799 34.2359C42.1162 34.45 41.9368 34.5923 41.863 34.7567C40.8237 37.0722 40.0529 39.4443 40.1072 42.0264C40.1517 44.1373 40.8863 46.0452 41.7628 47.9103C42.3917 49.2463 43.0428 50.5767 43.8749 51.8076C43.9931 51.9831 44.1309 52.1917 44.0696 52.439C43.8804 52.4873 43.8109 52.3547 43.7455 52.2456C42.0675 49.4728 40.5315 46.6379 39.8887 43.4203C39.6021 41.9822 39.7774 40.5495 40.0543 39.1321C40.3465 37.6372 40.8821 36.2156 41.5041 34.8258C41.6724 34.45 41.6738 34.4514 41.9799 34.2359Z" fill="#3F2A19"/>
<path d="M48.0224 43.2089C47.9876 45.1997 47.7929 46.9128 47.5466 48.6217C47.5257 48.7626 47.5605 49.0099 47.3671 48.9823C47.1278 48.9464 47.2475 48.7074 47.2697 48.5526C47.5577 46.4983 47.7247 44.4371 47.6607 42.3579C47.5869 39.9678 47.1306 37.6717 46.0078 35.5372C45.7407 35.0302 45.4318 34.537 44.9643 34.1709C44.8586 34.088 44.7264 33.9623 44.8335 33.8366C44.9615 33.6846 45.0812 33.8587 45.1702 33.9347C45.7504 34.4361 46.1233 35.0951 46.4725 35.7541C47.3629 37.4285 47.7344 39.2508 47.8819 41.1186C47.9445 41.9006 48.092 42.6811 48.0224 43.2089Z" fill="#3F2A19"/>
<path d="M77.3375 25.1841C76.8658 24.7282 76.5987 24.1618 76.3469 23.5995C75.7597 22.2912 75.2644 20.9607 75.7124 19.4908C75.7458 19.3803 75.775 19.2684 75.8168 19.162C75.8529 19.0722 75.9128 18.9782 76.0255 19.0004C76.1576 19.0266 76.1382 19.144 76.1089 19.2324C75.4397 21.273 76.3107 22.9833 77.2874 24.6715C77.3681 24.8125 77.5142 24.9506 77.3375 25.1841Z" fill="#3F2A19"/>
<path d="M57.1202 35.1214C57.6155 35.4406 57.9369 35.9117 58.2583 36.3828C58.2193 36.4187 58.1818 36.4532 58.1428 36.4891C57.7602 36.0691 57.3776 35.6478 56.995 35.2278C57.0367 35.1919 57.0785 35.156 57.1202 35.1214Z" fill="#3F2A19"/>
<path d="M59.1515 37.4369C58.8732 37.4244 58.7313 37.2655 58.6284 36.9713C58.9581 37.0072 59.0513 37.2241 59.1515 37.4369Z" fill="#3F2A19"/>
<path d="M56.284 34.45C56.259 34.3878 56.2312 34.3408 56.2242 34.2911C56.2214 34.269 56.2576 34.24 56.2757 34.2151C56.3146 34.2441 56.3884 34.3035 56.3884 34.3035C56.3884 34.3035 56.3536 34.3533 56.284 34.45Z" fill="#3F2A19"/>
<path d="M37.3593 20.875C36.9934 20.0116 36.6303 19.1481 36.5719 18.1935C36.519 17.3286 36.6094 16.4804 36.8292 15.6432C36.8807 15.4484 36.9739 15.2867 37.1993 15.2522C36.9545 16.2566 36.8112 17.272 36.8779 18.3095C36.9572 18.6066 36.9545 18.9796 37.4331 18.9146C37.7308 19.1205 38.048 19.1868 38.3124 18.8994C38.542 18.648 38.4557 18.3717 38.2442 18.1313C38.6185 17.8992 39.015 18.0014 39.4129 18.0387C39.9611 18.0885 40.3048 18.5375 40.7931 18.6991C40.9684 19.26 40.9336 19.8389 40.9434 20.4136C40.5816 20.8488 40.2741 21.3378 39.6675 21.5036C39.438 21.5658 39.0234 21.4705 39.0094 21.6929C38.99 21.9885 39.438 21.972 39.6494 22.1405C39.6634 22.1516 39.6856 22.1516 39.7037 22.1571C39.6787 22.5301 40.1601 22.5937 40.1879 22.9363C39.5256 22.5149 38.8592 22.0991 38.2025 21.668C38.03 21.5547 37.8978 21.3834 37.6863 21.3282C37.6585 21.1182 37.5973 20.9344 37.3593 20.875Z" fill="#191919"/>
<path d="M36.878 18.3109C36.8112 17.2734 36.9545 16.258 37.1994 15.2536C38.6491 14.5103 39.5229 14.835 40.1239 16.3436C40.2018 16.5384 40.2672 16.736 40.3382 16.9336C38.9775 16.7291 37.8296 17.0524 37.031 18.2474C37.0074 18.2847 36.9308 18.2902 36.878 18.3109Z" fill="#FEFEFE"/>
<path d="M36.878 18.3109C36.9308 18.2902 37.006 18.286 37.031 18.2473C37.8296 17.0523 38.9761 16.729 40.3382 16.9335C40.6707 17.4764 40.75 18.0829 40.7931 18.6991C40.3048 18.5375 39.9611 18.0885 39.413 18.0387C39.015 18.0028 38.6185 17.9006 38.2442 18.1313C37.4888 17.9558 37.2216 18.2142 37.4345 18.9146C36.9545 18.9796 36.9587 18.6079 36.878 18.3109Z" fill="#512314"/>
<path d="M39.7037 22.157C39.6856 22.1515 39.6634 22.1515 39.6495 22.1405C39.438 21.9705 38.99 21.9885 39.0095 21.6928C39.0234 21.4704 39.4366 21.5657 39.6676 21.5036C40.2742 21.3392 40.5817 20.8501 40.9434 20.4135C41.2884 20.8694 41.0519 21.3668 41.0491 21.8476C40.615 22.012 40.1907 22.222 39.7037 22.157Z" fill="#512314"/>
<path d="M42.0426 14.918C42.6436 15.4581 42.8287 16.1503 42.8982 16.8908C43.029 18.2806 42.6366 19.5889 42.2499 20.8972C42.1427 21.262 42.0342 21.6267 41.8659 21.9845C41.7198 21.6985 41.8742 21.4347 41.9438 21.168C42.2833 19.8735 42.7146 18.5997 42.6798 17.2293C42.6603 16.4722 42.4933 15.7925 42.0175 15.197C41.9702 15.1376 41.9243 15.0713 42.0426 14.918Z" fill="#3F2A19"/>
<path d="M37.3594 20.875C37.5973 20.9344 37.6585 21.1196 37.6849 21.3282C36.3173 20.636 35.7371 19.4341 35.4839 18.0097C35.3392 17.1905 35.4143 16.3975 35.7273 15.5962C35.4546 17.6188 35.6007 19.4977 37.3594 20.875Z" fill="#3F2A19"/>
<path d="M39.7037 22.157C40.1921 22.222 40.6151 22.012 41.0492 21.8476C41.0269 22.0534 41.0158 22.2606 40.9824 22.4637C40.9045 22.9238 40.6721 23.1421 40.1879 22.9362C40.1601 22.595 39.6787 22.5314 39.7037 22.157Z" fill="#FEFEFE"/>
<path d="M41.4122 14.5296C41.3844 14.5047 41.3232 14.4757 41.3093 14.4329C41.2884 14.3652 41.3496 14.3362 41.4053 14.3569C41.4526 14.3735 41.5124 14.4108 41.5263 14.4536C41.5486 14.5186 41.4915 14.5393 41.4122 14.5296Z" fill="#3C3C3C"/>
<path d="M41.8171 42.101C42.0216 42.0264 42.2276 41.9629 42.4502 42.003C42.6728 42.2074 42.8481 42.4271 42.6742 42.7476C42.5476 42.9797 42.3416 43.0557 42.0926 43.0101C41.7044 42.9396 41.614 42.6315 41.8171 42.101Z" fill="#FEFEFE"/>
<path d="M48.1532 19.1481C48.7654 17.8495 48.9741 16.45 49.9452 15.3752C50.908 14.31 52.8572 13.8679 54.1567 14.4896C54.7132 14.7563 55.0917 15.5465 54.9609 16.1433C54.9164 16.3478 54.819 16.4376 54.6033 16.4224C52.213 16.2552 50.2805 17.1822 48.6694 18.8774C48.5581 18.9948 48.4634 19.1633 48.1532 19.1481Z" fill="#8A6948"/>
<path d="M37.4345 18.9147C37.223 18.2129 37.4901 17.9545 38.2442 18.1314C38.4557 18.3718 38.5433 18.6481 38.3124 18.8995C38.0494 19.1869 37.7322 19.1206 37.4345 18.9147Z" fill="#FEFEFE"/>
</g>
</g>
<rect x="0.5" y="91.5" width="91" height="91" transform="rotate(-90 0.5 91.5)" stroke="black"/>
<defs>
<clipPath id="clip0_2279_1270">
<rect x="1" y="91" width="90" height="90" transform="rotate(-90 1 91)" fill="white"/>
</clipPath>
<clipPath id="clip1_2279_1270">
<rect x="0.764893" y="91" width="90" height="90" rx="45" transform="rotate(-90 0.764893 91)" fill="white"/>
</clipPath>
</defs>
</svg>
