<svg width="90" height="90" viewBox="0 0 90 90" fill="none" xmlns="http://www.w3.org/2000/svg">
<g clip-path="url(#clip0_394_11209)">
<mask id="mask0_394_11209" style="mask-type:luminance" maskUnits="userSpaceOnUse" x="0" y="0" width="90" height="90">
<path d="M0 0L0 90H90V0H0Z" fill="white"/>
</mask>
<g mask="url(#mask0_394_11209)">
<path d="M45 0.75C69.4386 0.75 89.25 20.5614 89.25 45C89.25 69.4386 69.4386 89.25 45 89.25C20.5614 89.25 0.75 69.4386 0.75 45C0.75 20.5614 20.5614 0.75 45 0.75Z" fill="#E3CBA1" stroke="black" stroke-width="1.5" stroke-miterlimit="10"/>
<path d="M33.6348 49.5085C36.7619 49.5085 39.2979 52.75 39.2979 56.7542C39.2979 60.7585 36.7619 64 33.6348 64C30.5077 64 31.5373 60.7585 31.5373 56.7542C31.5373 52.75 30.5077 49.5085 33.6348 49.5085Z" fill="white" stroke="black" stroke-width="0.572034" stroke-miterlimit="10"/>
<path d="M35.3487 56.8489C35.3487 56.554 34.9987 56.315 34.5669 56.315C34.1352 56.315 33.7852 56.554 33.7852 56.8489C33.7852 57.1438 34.1352 57.3828 34.5669 57.3828C34.9987 57.3828 35.3487 57.1438 35.3487 56.8489Z" fill="black"/>
<path d="M34.166 25.9616C37.2932 25.9616 39.8292 29.2031 39.8292 33.2074C39.8292 37.2116 37.2932 40.4531 34.166 40.4531C31.0389 40.4531 32.0686 37.2116 32.0686 33.2074C32.0686 29.2031 31.058 25.9616 34.166 25.9616Z" fill="white" stroke="black" stroke-width="0.572034" stroke-miterlimit="10"/>
<path d="M35.8839 31.6067C35.8839 31.3119 35.5339 31.0728 35.1021 31.0728C34.6703 31.0728 34.3203 31.3119 34.3203 31.6067C34.3203 31.9016 34.6703 32.1406 35.1021 32.1406C35.5339 32.1406 35.8839 31.9016 35.8839 31.6067Z" fill="black"/>
<path d="M31.3828 41.0808L50.1455 38.3731L54.0163 42.7969L49.5926 39.174L31.3828 41.0808Z" fill="black"/>
<path d="M60.4219 45.2188V38.3734" stroke="black" stroke-width="0.572034" stroke-miterlimit="10"/>
<path d="M29 62.5312V51.224" stroke="black" stroke-width="0.572034" stroke-miterlimit="10"/>
<path d="M29 38.8672V27.56" stroke="black" stroke-width="0.572034" stroke-miterlimit="10"/>
</g>
</g>
<defs>
<clipPath id="clip0_394_11209">
<rect width="90" height="90" fill="white" transform="matrix(0 -1 1 0 0 90)"/>
</clipPath>
</defs>
</svg>
