<svg width="90" height="90" viewBox="0 0 90 90" fill="none" xmlns="http://www.w3.org/2000/svg">
<g clip-path="url(#clip0_394_11262)">
<mask id="mask0_394_11262" style="mask-type:luminance" maskUnits="userSpaceOnUse" x="0" y="0" width="90" height="90">
<path d="M45 0C20.1472 0 0 20.1472 0 45C0 69.8528 20.1472 90 45 90C69.8528 90 90 69.8528 90 45C90 20.1472 69.8528 0 45 0Z" fill="white"/>
</mask>
<g mask="url(#mask0_394_11262)">
<path d="M90 45C90 20.1472 69.8528 0 45 0C20.1472 0 0 20.1472 0 45C0 69.8528 20.1472 90 45 90C69.8528 90 90 69.8528 90 45Z" fill="url(#paint0_linear_394_11262)"/>
<mask id="mask1_394_11262" style="mask-type:luminance" maskUnits="userSpaceOnUse" x="5" y="0" width="123" height="95">
<path d="M5 0L5 95L128 95V0L5 0Z" fill="white"/>
</mask>
<g mask="url(#mask1_394_11262)">
<path d="M110.928 0.0587997C107.677 0.5307 104.386 0.614302 101.127 1.0081C96.3199 1.5878 91.4683 1.5878 86.659 2.1395C85.2065 2.3067 83.7281 2.4089 82.4267 3.1669C80.8046 4.1144 79.5419 5.4446 78.5299 7.0349C77.3244 8.9299 75.988 10.7246 75.3096 12.9372C74.1096 16.8442 73.9474 20.911 73.328 24.9053C72.9926 27.0679 72.6755 29.2359 72.2349 31.3762C71.9363 32.8271 70.9852 33.4216 69.5382 33.3009C68.6828 33.2284 67.8312 33.1337 66.9759 33.0631C66.4063 33.0185 65.9418 32.8197 65.5068 32.4147C64.2883 31.2796 63.0164 30.2113 61.4312 29.6057C60.2275 29.1468 59.0459 28.6229 57.833 28.19C57.2026 27.9633 56.7252 27.5899 56.2256 27.053C57.162 26.9954 57.9325 27.4766 59.0496 27.4636C58.0063 26.8839 57.8127 25.8045 56.8505 25.4293C56.504 25.2955 56.2459 24.9314 55.9473 24.6713C56.609 23.9021 55.5288 23.6903 55.4274 23.12C55.2726 22.2375 54.5463 23.0364 54.0947 22.9045C53.7629 22.8079 53.5251 22.9416 53.4754 23.2667C53.3777 23.9096 53.0127 23.7461 52.7012 23.5175C50.303 21.76 47.3573 21.6226 44.6679 20.7308C44.3933 20.6398 44.1776 20.6769 44.1739 21.0392C44.0615 21.604 44.4928 21.6096 44.8393 21.695C46.3011 22.0554 47.761 22.4251 49.1767 22.9435C50.0394 23.2612 50.9316 23.5324 51.7021 24.0526C52.0984 24.322 52.3989 24.7233 52.1666 25.2398C51.9583 25.7005 51.5048 25.6336 51.1122 25.5649C50.0541 25.381 49.009 25.1264 47.9454 24.9722C47.2486 24.8719 46.6513 24.6583 46.3583 23.904C46.196 23.4897 45.7647 23.3188 45.3739 23.1144C44.3343 22.5701 43.7333 21.7043 43.6559 20.5023C45.3278 20.0731 43.3278 19.6514 43.6688 19.2092C43.9453 19.3021 44.2274 19.4173 44.5186 19.4898C44.9389 19.5938 45.4495 19.735 45.7149 19.3244C46.0265 18.8395 45.4919 18.559 45.2228 18.271C43.8642 16.8201 42.1518 15.8336 40.526 14.7412C39.4181 13.9962 38.1278 13.7008 36.8209 13.476C35.9139 13.3199 34.9278 13.6153 34.0761 12.9948C34.4854 13.5429 35.0881 13.8699 35.4513 14.4309C35.5748 14.6223 35.7149 14.8415 35.3978 14.9381C35.2245 14.992 34.9683 15.3375 34.7932 14.8155C34.7139 14.5814 34.4466 14.2358 34.078 14.1671C33.5618 13.8531 33.3665 14.5257 32.9572 14.5368C32.3766 14.7263 32.1185 15.1573 31.9121 15.7221C31.56 16.6807 31.1084 16.7866 30.3489 16.2219C28.8613 15.1146 27.3 14.1411 25.5046 13.6172C25.1784 13.5224 24.9904 13.567 24.6807 13.8754C24.0023 14.5517 23.7848 15.0273 24.7212 15.5976C24.8576 15.6812 24.9056 15.9079 24.8484 16.1011C23.8198 16.3185 23.5618 15.4917 23.2613 14.8341C22.9553 14.1652 23.2263 13.5726 23.8512 13.1527C23.1157 12.7663 22.6641 12.8369 22.3212 13.6116C22.0834 14.1467 21.7516 14.7988 20.8889 14.3287C20.5829 14.1615 20.417 14.4049 20.2843 14.7783C19.9286 15.7834 19.7276 16.7513 20.5571 17.8716C19.2539 17.4313 18.1977 17.2883 17.1175 17.3347C17.0253 17.4127 16.9405 17.5521 16.8318 17.5483C15.5507 17.5056 15.0511 18.4457 14.5387 19.3746C14.2548 20.14 14.0281 20.9352 12.9681 20.9537C12.6751 20.9593 12.4594 21.2696 12.3009 21.5445C12.1792 21.7526 12.0944 21.9904 11.7829 21.996C11.0824 22.0127 10.6087 22.4642 10.1313 22.9008C9.9543 23.0624 9.79393 23.3671 9.54323 23.2909C8.76535 23.0549 8.78009 23.6179 8.61604 24.0953C8.35428 24.8552 8.47779 25.5426 8.80959 26.2374C8.89807 26.4232 9.21881 26.6926 8.86673 26.8579C7.95981 27.2834 8.45198 27.7645 8.76166 28.2513C8.89807 28.4668 9.21143 28.6619 8.71558 28.8588C7.76073 29.2359 7.76442 30.0348 7.94138 30.8597C8.05935 31.4077 8.3506 31.8871 8.68055 32.3367C8.88332 32.6135 8.94968 32.8085 8.64553 33.1132C7.93585 33.8248 7.287 34.5995 6.61418 35.3482C5.92846 35.7105 5.67592 36.2975 5.70542 37.0593C5.72569 37.5572 5.79758 38.042 5.89712 38.5269C6.29713 39.036 6.76902 39.5915 6.73031 40.2287C6.6492 41.5998 7.40497 42.6457 8.02802 43.6675C9.26489 45.6963 9.39577 45.6889 7.72571 47.2569C7.06764 47.8755 7.11004 48.4347 7.39391 49.111C7.534 49.4491 7.75889 49.7501 7.93585 50.0752C8.04645 50.2777 8.36166 50.443 8.19944 50.705L7.85843 51.9516L7.99299 53.0496C8.4059 54.0379 9.03447 54.9037 9.60222 55.8363L8.45751 56.6556C7.88239 57.4248 8.11281 58.0323 8.61788 58.6342C8.97549 59.0615 9.36812 59.4386 9.79946 59.7879C10.4833 60.3397 11.2594 60.7726 11.9193 61.3764C11.7165 61.5398 11.4953 61.5566 11.3018 61.6439C10.7727 61.8817 10.2972 62.1845 10.3101 62.8366C10.3211 63.4515 10.7174 63.7952 11.2538 64.0776C11.9672 64.4566 12.6769 64.8356 13.4345 65.1143C13.4806 65.131 13.5267 65.1477 13.5728 65.1645C13.7387 65.1496 13.8751 65.1162 13.9764 65.0641C13.9654 65.0734 13.9543 65.0809 13.9433 65.0901C13.3626 65.5174 13.1433 65.798 13.1691 66.3052C13.1801 66.5002 13.2262 66.7288 13.3018 67.013C13.8787 67.5926 14.7285 67.7691 15.3092 68.2949C16.4834 69.3557 17.7037 70.3162 19.1396 70.9906C19.6023 71.208 19.8217 71.6204 19.7866 72.1257C19.724 73.0844 20.1829 73.7643 20.841 74.3849C21.5949 75.1001 22.4705 75.5887 23.4291 75.9417C25.3885 76.6626 27.4328 76.8075 29.4918 76.8502C29.9305 76.8576 30.3415 76.761 30.7213 76.5325C31.0881 76.3114 31.2558 76.0049 31.0918 75.598C30.9591 75.2655 30.8227 74.9738 31.1876 74.6988C31.5489 74.4257 31.9157 74.3997 32.3047 74.6134C32.6844 74.8214 33.0734 75.0091 33.4955 75.1001C35.9139 75.6333 38.3656 75.6538 40.819 75.4847C41.7057 75.4234 42.5573 75.1298 43.3278 74.6375C44.1923 74.0858 44.7582 73.3779 44.6403 72.2799C44.5979 71.8768 44.6919 71.5684 45.0771 71.351C46.0652 70.7955 46.4043 69.4226 47.691 69.2257C47.7647 69.2127 47.8329 69.0975 47.8514 69.0102C48.0652 68.0088 48.8689 67.901 49.6726 67.7487C50.9666 67.5016 52.3067 67.3195 53.3555 66.4222C54.3731 65.5509 55.3998 64.8449 56.8099 64.6796C57.9159 64.5495 58.2699 63.7562 57.9123 62.7289C57.7242 62.1845 57.9842 61.9318 58.3952 61.7182C58.7141 61.6346 59.1436 61.8984 59.3537 61.5714C59.8514 60.7949 60.6975 60.8283 61.4183 60.5756C63.8718 59.7099 66.4708 59.1228 68.1575 56.847C68.3658 56.5627 68.6921 56.559 68.9999 56.5832C70.4082 56.6909 71.8128 56.8191 73.2211 56.9194C73.7723 56.9584 73.9861 57.2185 74.0912 57.7703C74.4211 59.4999 74.8396 61.2129 75.1972 62.9388C75.9253 66.4575 77.1511 69.8332 78.1004 73.2869C78.6719 75.3695 79.4276 77.3983 80.071 79.4604C81.223 83.1538 83.8922 85.3572 87.2636 86.8026C92.9743 89.2512 98.8729 91.1406 104.853 92.8071C107.942 93.6691 111.183 93.4164 114.241 94.3751C116.073 94.951 117.955 95.1386 119.87 94.8971C120.127 94.8637 120.63 94.86 120.552 94.6853C120.221 93.9292 121.004 93.2028 120.386 92.4467C121.087 92.521 121.609 92.6714 122.082 92.9594C122.713 93.344 123.43 93.3496 124.125 93.435C124.372 93.4647 124.705 93.4146 124.779 93.2065C124.844 93.0282 124.709 92.7086 124.563 92.5395C124.224 92.1457 123.826 91.8057 123.45 91.4434C123.234 91.1982 122.927 91.1592 122.639 91.0663C122.576 91.0459 122.512 91.0254 122.449 91.005C122.845 91.1053 123.249 91.187 123.66 91.2391C124.375 91.2818 124.901 91.9599 125.64 91.8782C126.127 91.8243 126.906 92.272 127.03 91.6849C127.148 91.1276 126.444 90.691 125.898 90.39C125.054 89.9219 124.09 89.8253 123.201 89.5039C122.35 89.1973 121.365 89.2066 120.691 88.4653C120.657 88.3836 120.379 88.313 120.68 88.2164C122.571 88.7124 124.458 89.227 126.626 89.3311C126.04 88.4505 125.293 88.2665 124.702 87.8652C124.493 87.7241 124.088 87.6888 124.259 87.3023C124.418 86.9475 124.698 87.0441 125.032 87.1518C125.813 87.4064 126.61 87.7278 127.669 87.3971C126.517 86.6038 125.516 85.9145 124.516 85.2253C125.336 85.4408 126.128 85.66 127.12 85.4036C126.191 84.6568 125.378 84.0028 124.453 83.2578C125.288 83.4009 125.975 83.8208 126.949 83.5347C126.095 82.8547 125.533 82.1134 124.93 81.4074C124.875 81.2793 124.783 81.2031 124.681 81.1511C124.879 81.1715 125.107 81.0879 125.293 81.2254C126.136 81.6731 126.993 82.028 128.001 81.7716C127.139 80.0066 126.101 78.5464 124.042 78.2659C124.012 78.2621 123.983 78.251 123.951 78.2473C123.269 78.1488 123.03 77.7011 122.954 77.0025C124.197 77.2088 125.338 77.7104 126.613 77.3258C126.25 76.8168 125.81 76.6012 125.439 76.2966C125.159 76.0681 124.711 76.0681 124.584 75.5293C124.374 74.632 123.992 76.0736 123.651 75.5311C123.583 75.4234 123.387 75.3844 123.242 75.3416C122.316 75.0723 122.346 73.9854 121.398 73.4299C122.182 73.3891 122.683 73.4132 123.174 73.5563C123.798 73.7383 124.44 73.7272 125.08 73.7792C125.714 73.8294 125.693 73.2683 125.939 72.9952C126.226 72.6738 125.752 72.4249 125.577 72.2744C125.236 71.9845 124.783 71.8322 124.377 71.6167C124.195 71.5182 123.845 71.561 123.992 71.1708C124.018 71.0018 123.953 70.9349 123.784 70.9832C123.334 71.0984 122.921 71.0965 122.466 70.8866C121.492 70.4388 120.488 70.0617 119.483 69.6883C118.81 69.4375 118.305 68.9879 117.609 68.2986C121.102 69.4356 124.383 70.3069 127.839 71.2024C127.225 70.1843 126.41 69.8685 125.511 69.6864C125.299 69.1476 124.775 69.0696 124.328 68.882C124.099 68.7073 123.852 68.5884 123.598 68.4993C123.885 68.5606 124.182 68.5569 124.49 68.3469C124.506 68.3079 124.523 68.2689 124.539 68.228C124.311 67.4793 123.668 67.1746 123.07 66.8031C122.23 66.281 121.26 66.0284 120.248 65.5397C121.159 65.3502 121.944 65.6456 122.801 65.1923C120.925 64.4436 119.009 64.1166 117.459 62.9518C118.608 63.0707 119.704 63.3196 120.783 63.6336C122.7 64.1928 122.792 64.2151 124.045 63.7915C122.98 63.1469 121.749 63.0335 120.683 62.4465C122.447 62.3016 124.06 63.6763 125.931 62.9053C124.812 61.8259 123.069 62.0415 121.988 60.7558C123.12 61.0141 124.106 61.525 125.201 61.3894C125.434 61.3615 125.784 61.4562 125.846 61.185C125.928 60.8264 125.537 60.7744 125.297 60.6927C124.256 60.3341 123.209 59.9848 122.152 59.6672C121.728 59.539 121.789 59.2714 121.817 58.95C121.852 58.5562 122.108 58.61 122.346 58.6528C122.676 58.7104 122.98 58.7141 123.279 58.4577C122.825 58.0193 122.263 57.9115 121.795 57.6328C121.671 57.4991 121.518 57.4248 121.419 57.3857C121.504 57.4117 121.642 57.4433 121.789 57.3932C122.809 57.5715 123.771 58.2422 124.869 57.8242C124.855 57.4452 124.403 57.4712 124.375 57.1498C124.726 57.0328 125.03 57.1851 125.343 57.2891C125.585 57.369 125.898 57.4155 126.033 57.213C126.208 56.9547 125.902 56.7745 125.732 56.6222C125.12 56.0815 124.777 55.266 123.942 54.913C124.538 54.9538 125.072 55.2734 125.633 54.9613C125.548 54.5526 125.201 54.2442 124.995 54.0918C124.311 53.5846 124.09 52.535 123.085 52.4328C122.798 52.1968 122.075 52.6984 122.139 51.8661C121.986 50.7942 122.711 49.6014 121.516 48.6837C121.813 48.5926 121.94 48.5759 122.044 48.5183C122.263 48.3957 122.687 48.483 122.654 48.0985C122.63 47.8086 122.281 47.7269 122.058 47.569C121.795 47.3851 121.367 47.5448 121.209 47.1547C121.598 46.8964 122.121 46.9355 122.44 46.6122C119.806 45.8078 117.113 45.6721 114.222 45.5031C114.847 45.1668 115.308 45.2188 115.758 45.1984C117.38 45.1222 119.006 45.0795 120.624 44.9625C122.003 44.8621 122.051 44.7339 121.813 43.3982C121.728 42.9151 121.376 42.7423 121.03 42.577C120.433 42.2946 120.009 41.8915 119.837 41.2301C120.514 41.1019 121.387 41.3546 121.728 40.7582C122.036 40.2213 121.146 39.911 120.888 39.4596C121.065 39.2125 121.26 39.2961 121.43 39.3035C122.289 39.3407 123.148 39.4001 123.998 39.2311C124.551 39.1214 124.733 38.9394 124.6 38.2185C124.366 36.9329 123.456 36.1731 122.799 35.207C122.37 34.5735 121.815 34.2874 121.048 34.2056C118.941 33.9827 116.814 33.7505 115.373 31.8016C116.055 32.0115 116.731 32.2884 117.422 32.2438C118.458 32.1787 119.452 32.1044 120.477 32.476C120.794 32.5912 121.787 32.5968 121.52 31.5787C121.457 31.339 121.544 31.2647 121.782 31.2294C122.344 31.1439 122.036 30.9154 121.835 30.7371C121.623 30.5476 121.393 30.3804 121.161 30.1946C121.411 29.9865 121.693 30.2875 121.878 30.0422C121.797 29.7264 121.478 29.6762 121.282 29.4923C121.203 29.4162 121.078 29.3065 121.091 29.2341C121.122 29.0483 121.605 29.405 121.45 28.9944C121.376 28.8012 121.043 28.725 120.884 28.5448C120.549 28.1603 120.132 27.8574 120.563 27.1775C120.963 26.544 120.582 26.0572 119.83 25.8324C118.895 25.55 117.97 25.3345 116.982 25.4664C116.475 25.5333 116.276 25.2193 116.315 24.7196C116.361 24.1436 116.694 24.0991 117.135 24.2347C117.395 24.3146 117.645 24.4483 117.911 24.4836C118.069 24.5059 118.32 24.4632 118.377 24.2625C118.442 24.0322 118.202 23.9337 118.047 23.8965C117.693 23.8092 117.323 23.7925 116.96 23.7293C116.401 23.6346 115.795 23.7293 115.304 23.3318C115.179 22.9323 114.884 22.6518 114.504 22.6035C113.607 22.4846 112.825 22.0499 111.973 21.7489C112.477 21.7173 112.912 21.5222 113.317 21.2491C114.165 21.2343 115.013 21.2213 115.861 21.2008C116.029 21.1953 116.34 21.2844 116.322 21.0671C116.244 20.0936 116.849 20.4317 117.365 20.4001C117.846 20.3704 118.315 20.1252 118.788 19.9747C118.593 19.6644 118.694 19.2037 118.298 18.9956C118.086 18.86 118.049 18.6203 117.953 18.416C117.474 18.0481 116.987 18.6835 116.508 18.403C115.732 17.5223 115.732 17.5223 116.661 17.1656C116.762 17.1248 117.028 17.1935 116.827 16.9427C116.674 16.7476 116.197 16.8758 116.272 16.469C116.372 15.9283 116.001 15.893 115.679 15.8763C115.081 15.8447 114.525 15.724 113.887 15.3022C115.074 15.4917 116.103 15.3933 117.127 15.1703C118.263 14.9251 118.35 14.7412 118.156 13.6116C118.047 12.9688 117.393 13.3478 117.181 12.8945C117.564 12.7273 117.959 12.588 118.322 12.391C118.892 12.0826 118.947 11.5364 118.414 11.1704C117.957 10.8546 117.435 10.6354 116.93 10.3678C117.155 10.1319 117.625 10.1338 117.505 9.5727C117.415 9.1528 117.015 8.9986 116.858 8.6289C117.249 8.5472 117.553 8.4524 117.905 8.4654C118.875 8.4989 119.037 8.1236 118.624 7.2263C118.405 6.7469 117.903 6.7265 117.496 6.3865C118.073 6.2973 118.527 6.2342 118.98 6.158C119.38 6.0911 119.986 6.2156 120.023 5.6675C120.062 5.0898 119.542 4.8873 119.002 4.8575C118.945 4.8538 118.892 4.7442 118.844 4.6922C118.96 4.4544 119.188 4.5547 119.334 4.4637C119.527 4.3411 119.874 4.4191 119.902 4.0903C119.929 3.7707 119.704 3.6388 119.433 3.4976C118.851 3.1892 118.329 2.8121 117.594 2.931C117.299 2.9774 116.895 2.8269 116.648 2.6281C115.828 1.9649 114.962 1.4912 113.872 1.5822C113.531 1.6101 113.387 1.3407 113.437 1.1177C113.647 0.160899 113.044 0.1554 112.385 0.0531998C111.887 -0.0248002 111.408 -0.0118003 110.928 0.0587997ZM14.1147 64.3767C14.2216 64.5142 14.2419 64.6536 14.1958 64.7836C14.2142 64.6721 14.1884 64.5384 14.1147 64.3767ZM120.851 90.5182C120.313 90.3547 119.776 90.1894 119.245 90.0055C119.784 90.1597 120.316 90.3417 120.851 90.5182ZM123.172 68.3822C122.967 68.3358 122.763 68.3005 122.563 68.267C122.763 68.2615 122.965 68.3191 123.172 68.3822Z" fill="black"/>
<path d="M44.1731 21.039C46.5749 21.6316 48.9639 22.2595 51.2515 23.233C51.8063 23.469 52.2579 23.8015 52.6192 24.2846C53.0266 24.8252 52.8478 25.3268 52.5621 25.834C52.2856 26.3263 51.8911 26.2074 51.445 26.1201C50.0091 25.8359 48.5639 25.5981 47.1206 25.3491C46.6026 25.2599 46.1749 24.9998 46.0754 24.4815C45.9685 23.9223 45.598 23.7495 45.1666 23.5544C44.2689 23.1457 43.5408 22.5977 43.4505 21.4774C43.4191 21.1003 43.2072 20.738 43.0781 20.3664C43.3325 20.2029 43.4837 20.3906 43.6551 20.502C43.8265 20.6804 43.9998 20.8587 44.1731 21.039Z" fill="#F5F5F5"/>
<path d="M6.61313 35.3486C6.14492 36.3555 5.91819 37.4182 5.89607 38.5273C5.5145 38.0499 5.3615 37.4479 5.06841 36.9185C4.72924 36.3054 5.71542 35.3598 6.61313 35.3486Z" fill="#AFE4EC"/>
<path d="M17.1179 17.3351C17.2395 17.6175 17.2967 17.9315 16.8709 17.9055C15.7262 17.8311 15.1861 18.6765 14.5391 19.375C14.7271 18.0671 15.857 17.0118 17.1179 17.3351Z" fill="#AFE4EC"/>
<path d="M34.0774 14.1625C33.6756 14.2015 33.3898 14.5954 32.9566 14.5322C33.3437 14.1644 33.1059 13.9377 32.7538 13.8188C32.4589 13.7203 32.164 13.6739 32.0312 13.267C32.9438 13.085 33.4857 13.6869 34.0774 14.1625Z" fill="#AFE4EC"/>
<path d="M33.346 48.365C34.0759 48.1458 34.0999 47.6795 33.6815 47.176C33.381 46.8156 33.2114 46.6224 33.6907 46.2359C34.251 45.7845 33.9579 45.2327 33.6225 44.7534C32.8114 43.5997 30.286 41.2941 29.0547 40.5919C29.3644 40.3503 29.7183 40.4599 30.0261 40.4246C31.1118 40.3002 32.0243 39.8561 32.7635 39.0499C33.0879 38.6969 33.5524 38.3829 33.1727 37.7977C32.8538 37.3054 32.4943 36.9932 31.8602 37.3648C31.5966 37.519 31.3773 37.2496 31.5432 36.8558C31.7072 36.4675 31.5966 36.2613 31.3865 35.9491C30.7063 34.9422 31.322 33.6844 32.5109 33.5228C33.2446 33.4225 33.993 33.4021 33.7183 32.1852C33.6151 31.7263 34.2197 31.0352 34.8722 30.9646C36.0649 30.8364 37.0326 30.1862 38.0962 29.7533C38.1534 29.731 38.24 29.7161 38.2584 29.6734C38.8059 28.4472 40.1792 28.7278 41.0603 28.1128C41.2115 28.0088 41.405 27.9605 41.5414 27.8434C43.7848 25.8983 46.417 26.0896 49.0548 26.5077C53.512 27.2136 57.6908 28.843 61.8383 30.5577C62.6734 30.9033 63.3462 31.5052 64.0411 32.0626C66.7545 34.2455 68.0448 37.3592 69.5674 40.4544C68.972 40.4116 68.7619 39.8431 68.1536 40.0178C69.4366 41.3926 70.231 42.9439 70.4817 44.7813C70.7711 46.8992 70.3619 48.9056 69.6946 50.8842C69.3057 52.0361 68.3011 52.4522 67.125 52.8275C68.937 53.1378 70.4227 52.1643 70.9721 50.3826C71.6854 48.064 71.6578 45.751 71.2559 43.3359C70.6863 39.9175 68.9776 37.1103 67.1969 34.2938C67.1361 34.1972 67.0881 34.0913 66.996 33.9204C67.9582 33.8145 68.843 33.9204 69.6983 34.0653C72.5776 34.5521 73.6191 32.4992 74.0947 30.5373C74.2679 29.8202 74.3693 29.077 74.4117 28.3395C74.4467 27.7283 74.6606 27.6985 75.149 27.8992C77.044 28.6795 78.4228 30.0784 79.5638 31.7151C83.3445 37.1326 85.1786 43.1408 84.8155 49.7862C84.7528 50.9269 84.5666 52.0546 84.3602 53.1823C83.9104 55.6347 82.5261 57.3792 80.4523 58.6351C79.1269 59.4376 77.656 59.4748 76.1739 59.4748C75.4292 59.4748 75.5306 58.8413 75.3831 58.4196C74.926 57.1228 74.9389 57.1284 76.2827 57.2566C77.0606 57.329 77.8421 57.3996 78.6182 57.0652C75.5159 56.2979 72.338 56.1865 69.1103 55.8818C69.3038 55.3969 69.5287 54.9621 69.6485 54.4995C69.761 54.0667 70.1186 53.4926 69.4587 53.2269C68.8283 52.9743 68.5868 53.5409 68.4117 53.9868C68.0872 54.8135 67.4974 55.4396 66.996 56.14C65.5379 58.1762 63.3517 59.0587 61.1416 59.7869C57.2632 61.0632 53.3074 62.0795 49.2908 62.8356C47.9138 63.0939 46.5534 63.0084 45.1765 62.7557C42.5202 62.2671 39.8603 61.8212 37.2852 60.9722C36.6105 60.7493 35.84 60.7901 35.2925 60.2402C35.3865 59.8575 35.9193 60.2142 35.9045 59.8315C35.8916 59.5268 35.5616 59.4024 35.322 59.2983C34.5662 58.9695 34.3266 58.4809 34.4372 57.6207C34.5515 56.7438 33.9487 56.1214 33.1948 55.7276C32.6566 55.447 32.4925 55.0049 32.5017 54.4494C32.5109 53.931 32.6547 53.5669 33.287 53.5613C33.7515 53.5576 34.2215 53.4369 34.3598 52.8721C34.498 52.3129 34.2289 51.9339 33.8142 51.5976C33.3367 51.2112 32.8851 50.7895 32.4225 50.3845C32.6695 49.6841 32.7248 48.8926 33.346 48.365Z" fill="#F5F5F5"/>
<path d="M42.3281 66.0976C42.4996 65.884 42.6544 65.9211 42.8019 65.9285C44.5143 66.0289 45.1871 65.5291 45.5853 63.8199C45.6627 63.4892 45.8729 63.5561 46.0738 63.584C48.4332 63.8942 50.7005 63.3685 52.9642 62.8111C53.742 62.6198 53.9116 62.7925 53.6572 63.5728C53.3715 64.4479 52.6969 64.9848 51.9319 65.4046C50.6489 66.1069 49.2038 66.2908 47.8157 66.655C46.7208 66.9411 45.6148 67.1844 44.5198 67.4687C44.1401 67.5671 43.8544 67.6285 43.6129 67.1826C43.3438 66.6903 42.7632 66.5008 42.3281 66.0976Z" fill="#F4F4F4"/>
<path d="M29.9462 73.9418C29.4135 74.488 28.7794 74.6738 28.0992 74.7184C26.6356 74.815 25.2273 74.5567 23.8687 74.0124C23.3802 73.8173 22.9231 73.5628 22.6245 73.0984C22.4623 72.8457 22.4143 72.5744 22.6005 72.3199C22.8014 72.045 23.0964 72.0561 23.3452 72.2066C25.3692 73.4309 27.5664 73.9715 29.9462 73.9418Z" fill="#AFE4EC"/>
<path d="M35.3008 13.6025C36.9506 13.6991 38.0953 14.5853 39.2547 15.4306C39.3985 15.5346 39.6013 15.7576 39.3948 15.9749C39.2639 16.1124 39.0722 16.105 38.8879 15.9972C38.6501 15.8597 38.4068 15.7241 38.1487 15.635C36.5211 15.0795 36.5211 15.0832 35.3008 13.6025Z" fill="#AFE4EC"/>
<path d="M13.6276 66.7188C12.9585 66.3248 12.8387 65.6059 12.5898 64.9055C12.9235 65.1768 13.2682 65.173 13.6221 65.0616C14.0147 64.7067 13.9723 64.4707 13.4599 64.2868C13.1576 64.1771 12.9032 63.9097 13.0544 63.5734C13.1779 63.2966 13.5134 63.1423 13.8157 63.1238C14.2341 63.0977 14.2249 63.4323 14.2765 63.7574C14.4387 64.8015 14.4553 64.8608 14.2212 65.2528C14.1604 65.355 14.0848 65.5557 14.0534 65.5483C13.0691 65.3179 13.7198 66.087 13.576 66.3582C13.5281 66.4474 13.6055 66.5979 13.6276 66.7188Z" fill="#AFE4EC"/>
<path d="M38.082 72.9297C38.5963 72.4838 39.0645 72.1011 39.3668 71.4824C39.6562 70.8935 40.3161 71.0533 40.8378 71.109C41.1143 71.1369 41.0848 71.4081 40.9392 71.6143C40.6682 72.0008 40.318 72.3296 39.8774 72.4541C39.2839 72.6213 38.683 72.7662 38.082 72.9297Z" fill="#AFE4EC"/>
<path d="M38.0156 74.0768C39.0995 73.3132 40.5078 73.3318 41.3705 72.219C41.4166 73.5027 40.0617 74.2329 38.0156 74.0768Z" fill="#AFE4EC"/>
<path d="M33.3481 48.3634C33.5767 49.2867 32.8818 49.7809 32.4209 50.3828C32.3859 49.9054 32.2624 49.413 32.3435 48.956C32.4283 48.4767 32.8154 48.224 33.3481 48.3634Z" fill="#818181"/>
<path d="M22.0302 18.4453C21.4993 17.7598 21.221 17.0408 21.6984 16.2345C21.8864 15.9168 22.2182 15.6641 22.5371 15.9019C22.9666 16.2234 22.4025 16.3348 22.2827 16.4927C21.8127 17.1114 21.9417 17.7653 22.0302 18.4453Z" fill="#AFE4EC"/>
<path d="M42.593 16.6432C43.0059 16.777 43.1866 17.1523 43.4409 17.4421C43.5995 17.6242 43.782 17.8359 43.5902 18.0905C43.4446 18.2837 43.2068 18.2893 43.0041 18.2094C42.7571 18.1109 42.4806 18.0106 42.5193 17.6427C42.5525 17.3176 42.5672 16.9888 42.593 16.6432Z" fill="#AFE4EC"/>
<path d="M29.0548 75.428C28.0926 76.1414 27.1323 75.5264 26.1719 75.4596C27.1323 75.493 28.0945 75.4558 29.0548 75.428Z" fill="#6C6C6C"/>
<path d="M32.5329 18.0508C32.4204 18.3202 32.2379 18.5338 32.0352 18.3926C31.7237 18.179 31.1578 18.3611 31.084 17.8334C31.0545 17.6254 31.3605 17.5622 31.5154 17.6217C31.8564 17.7517 32.3006 17.6867 32.5329 18.0508Z" fill="#AFE4EC"/>
<path d="M18.5895 26.6663C18.6448 27.0267 18.6467 27.376 18.3573 27.6213C18.3149 27.6566 18.0716 27.5618 18.0568 27.4986C17.9702 27.0881 18.3075 26.9004 18.5895 26.6663Z" fill="#AFE4EC"/>
<path d="M33.161 57.4844C32.7297 57.2577 32.3758 56.9735 32.2578 56.3307C32.8237 56.6353 33.0007 57.0571 33.161 57.4844Z" fill="#ABABAB"/>
<path d="M19.4402 20C19.289 19.7678 19.0273 19.5801 19.2835 19.3015C19.383 19.1918 19.6135 19.177 19.7001 19.307C19.8992 19.608 19.6632 19.7919 19.4402 20Z" fill="#AFE4EC"/>
<path d="M24.7439 71.759C24.7513 71.8909 24.7181 72.0247 24.5669 72.0061C24.355 71.9801 24.1467 71.889 24.0748 71.668C24.0305 71.5342 24.1706 71.4636 24.2904 71.4432C24.5338 71.4041 24.696 71.5007 24.7439 71.759Z" fill="#AFE4EC"/>
<path d="M16.2539 67.1289C16.276 66.4434 16.4272 66.1814 16.9341 66.135C16.9267 66.5623 16.5949 66.683 16.2539 67.1289Z" fill="#AFE4EC"/>
<path d="M19.8278 23.4448C20.0195 23.5173 20.2444 23.5805 20.2259 23.8498C20.2149 24.0282 20.1319 24.2753 19.9586 24.2734C19.6932 24.2697 19.6932 23.9985 19.6748 23.783C19.6619 23.6399 19.5826 23.4764 19.8278 23.4448Z" fill="#AFE4EC"/>
<path d="M34.5838 18.038C34.2262 18.2071 34.0161 18.1272 33.7617 17.8206C34.1175 17.6757 34.3166 17.8076 34.5838 18.038Z" fill="#AFE4EC"/>
<path d="M58.7524 39.0634C59.1911 40.7596 59.1745 42.4781 59.0639 44.2115C58.9017 46.7381 58.9551 49.2666 59.2924 51.7784C59.3643 52.3153 58.8556 53.077 59.8418 53.3854C60.0906 53.4634 59.7699 53.7291 59.5542 53.7142C58.9053 53.6697 58.31 53.4523 57.7035 53.0454C58.1146 52.7835 58.7321 53.0659 58.9219 52.5531C59.0934 52.0924 58.7837 51.6576 58.6989 51.208C58.592 50.6451 58.2841 50.1063 58.4832 49.5026C58.5901 49.2722 58.5883 49.0307 58.5699 48.7854C58.592 49.0344 58.5846 49.2796 58.5017 49.5174C57.9542 49.0047 57.9118 48.2559 57.6519 47.615C57.3772 46.9332 56.3302 46.4724 55.709 46.8756C55.3164 47.1301 54.909 47.3289 54.4611 47.4515C53.6666 47.6689 53.0657 48.0832 52.9293 48.9768C52.8408 49.5657 52.4906 49.64 51.9947 49.4654C51.7127 49.3669 51.4159 49.3149 51.0491 49.2202C51.4251 50.4073 52.45 50.9554 53.1468 51.8007C52.7744 51.9474 52.5809 51.6985 52.367 51.5554C51.0988 50.7008 50.0739 49.6047 49.2684 48.3005C49.1597 48.124 48.9901 47.9178 49.1633 47.7116C49.3532 47.4831 49.5449 47.6689 49.7292 47.7729C50.0223 47.9383 50.3154 48.1017 50.6159 48.2522C51.7071 48.8022 51.7827 48.7669 52.2564 47.654C52.5274 47.0186 53.0417 46.6434 53.6666 46.4074C53.9247 46.3108 54.1975 46.2514 54.45 46.1417C55.6113 45.6346 55.7754 44.3025 54.7413 43.5798C53.7348 42.8757 52.6436 42.2737 52.2952 40.9473C52.1956 40.572 51.9062 40.5497 51.5597 40.611C50.8592 40.7336 50.2085 40.9993 49.5597 41.2705C49.3753 41.3485 49.202 41.4284 49.0859 41.2204C48.9901 41.0476 49.1689 40.9473 49.2758 40.8488C49.7071 40.4531 50.1127 40.0202 50.5864 39.6839C51.0657 39.344 51.438 38.8293 52.1274 39.7341C52.5735 40.3193 53.0546 40.9082 53.4417 41.5492C53.6721 41.9319 53.9394 42.2124 54.3136 42.4614C55.0214 42.9314 55.8104 43.3327 56.2067 44.1669C56.415 44.6072 56.8242 44.4716 57.18 44.4883C57.5745 44.5069 57.6887 44.2449 57.7864 43.9254C58.1772 42.6304 58.05 41.2352 58.5514 39.9515C58.6657 39.6598 58.4666 39.2455 58.4113 38.8888C58.6196 38.7643 58.6657 38.9557 58.7524 39.0634Z" fill="#050505"/>
<path d="M40.8381 41.7032C39.7357 40.9768 39.3007 39.8268 39.321 38.6285C39.3634 35.944 40.3109 33.4378 41.1348 30.9185C41.1975 30.7291 41.2565 30.3556 41.5883 30.482C41.8722 30.5897 41.7984 30.9074 41.7321 31.1378C41.4224 32.2357 41.109 33.3319 40.7662 34.4187C40.6132 34.9073 40.5726 35.1507 41.2454 35.2231C42.2187 35.329 42.8307 36.2004 42.8215 37.1999C42.8104 38.623 41.8205 39.1004 40.0694 38.4372C40.1947 39.0781 40.6169 39.4237 41.0279 39.7395C41.4703 40.0795 41.7192 40.5217 41.8261 41.0363C41.9311 41.5342 41.721 41.72 41.2436 41.4394C41.1385 41.5732 41.0961 41.811 40.8381 41.7032Z" fill="#030303"/>
<path d="M40.3618 52.6557C40.7913 53.9804 41.1304 55.0282 41.4678 56.076C41.5341 56.2804 41.6023 56.4847 41.6521 56.6947C41.6945 56.8711 41.7553 57.1145 41.5673 57.1926C41.3129 57.2985 41.1857 57.0625 41.112 56.8563C40.8724 56.1893 40.6401 55.5205 40.4171 54.8461C39.7995 52.9809 39.1876 51.1119 38.5 49.0181C39.1599 49.3785 39.4512 49.3507 39.5009 48.7097C39.5489 48.0966 40.1166 47.7418 40.4429 47.2643C40.5553 47.1008 40.7876 46.9596 41.0106 47.0878C41.2521 47.2272 41.1673 47.4798 41.0899 47.6675C40.9719 47.948 40.8189 48.2174 40.6493 48.4682C40.2714 49.0293 40.1553 49.6479 40.1443 50.3112C40.1387 50.692 40.3507 50.8258 40.6549 50.7905C41.0493 50.7459 40.9258 50.4821 40.8134 50.2499C40.4668 49.542 41.0088 49.6182 41.3811 49.6442C42.1498 49.6981 42.5627 50.2053 42.806 50.8964C43.0364 51.554 43.0309 52.1708 42.5221 52.704C41.9249 53.3301 41.2632 53.2057 40.3618 52.6557Z" fill="#040404"/>
<path d="M38.1955 50.6039C37.742 53.9406 39.7291 56.6827 40.3301 59.75C39.6407 59.6961 38.0536 58.6409 37.9079 58.0538C37.2904 55.555 37.6738 53.0785 38.1955 50.6039Z" fill="#101010"/>
<path d="M38.2014 39.7227C37.4143 37.7979 36.7857 35.8138 36.7544 33.7572C36.7415 32.9304 36.9885 31.9737 37.3664 31.1265C37.6355 30.5246 38.1719 30.5338 38.6364 30.3852C38.8908 30.3035 38.8908 30.5394 38.8687 30.7438C38.6622 32.6295 38.4853 34.517 38.2549 36.399C38.1185 37.5081 38.1055 38.6061 38.2014 39.7227Z" fill="#070707"/>
<path d="M39.2238 41.3786C39.869 42.9893 40.0976 44.5908 39.845 46.3817C43.1667 45.3544 46.4626 45.8225 49.823 46.1662C49.3824 46.7347 48.8331 46.5582 48.3446 46.5136C46.0847 46.3056 43.8266 46.0845 41.5612 46.4338C40.5602 46.588 40.5621 46.5935 38.9234 47.9219C38.7206 46.7273 39.8284 45.8578 39.587 44.667C39.3676 43.5894 39.3381 42.4766 39.2238 41.3786Z" fill="#151515"/>
<path d="M60.1086 39.9827C61.0689 40.6645 61.2072 41.5396 60.927 42.5502C60.3961 44.4601 60.1712 46.3346 61.1795 48.2129C61.6717 49.1288 61.0708 50.4367 60.1178 50.9773C60.0238 51.0312 59.8652 51.0814 59.7915 51.0386C59.6588 50.9625 59.5906 50.7878 59.6717 50.6373C59.7731 50.4497 59.8874 50.2546 60.044 50.1153C60.9344 49.3164 61.0284 48.434 60.4625 47.3861C59.8634 46.277 59.9205 45.0639 60.0957 43.8563C60.2818 42.5706 60.8809 41.2906 60.1086 39.9827Z" fill="#111111"/>
<path d="M40.8359 41.7018C40.9779 41.5736 40.7419 41.308 40.9834 41.2355C41.1032 41.2002 41.2028 41.3117 41.2452 41.4399C41.8313 42.2239 42.718 42.3948 43.5862 42.5434C45.0056 42.7868 46.4139 43.1082 47.8609 43.1788C48.1761 43.1936 48.4858 43.3274 48.7733 43.5039C46.0563 43.2104 43.2452 43.3683 40.8359 41.7018Z" fill="#333333"/>
<path d="M43.4023 33.8575C43.747 36.0441 44.5507 38.2122 43.6162 40.4453C43.7747 38.2419 43.5314 36.0516 43.4023 33.8575Z" fill="#2A2A2A"/>
<path d="M43.7048 49.8783C44.6062 51.0153 44.5564 53.8318 43.7066 54.7031C44.1066 53.1704 43.6734 51.6414 43.7048 49.8783Z" fill="#383838"/>
<path d="M62.1663 47.1602C61.2078 46.1328 61.1064 45.3023 61.8898 44.1505C61.8733 45.2782 61.6428 46.2628 62.1663 47.1602Z" fill="#5D5D5D"/>
<path d="M58.7531 39.0664C58.6389 39.007 58.5264 38.9456 58.4121 38.8862C58.4029 38.8565 58.3918 38.8286 58.3863 38.7989C58.2112 37.9573 57.6527 37.1138 58.3937 36.2759L58.3716 36.2871C58.7144 36.2685 58.8711 36.6345 58.7642 36.7497C58.0269 37.5393 58.884 38.3028 58.7531 39.0664Z" fill="#434343"/>
<path d="M61.2461 37.6435C61.8396 37.5766 62.2249 37.2051 62.5899 37.6677C62.7374 37.8553 62.7355 38.1358 62.5143 38.2139C62.0608 38.3736 61.7401 38.0782 61.2461 37.6435Z" fill="#252525"/>
<path d="M58.3914 36.2722C57.9011 35.9526 57.326 36.2053 56.6992 36.0306C57.2375 35.8114 57.6836 35.6535 58.1665 35.6795C58.6955 35.7074 58.7379 35.934 58.3711 36.2852L58.3914 36.2722Z" fill="#434343"/>
<path d="M57.039 44.8816C57.6897 44.8779 58.3459 45.6043 58.3164 46.2601C58.3017 46.5593 58.0657 46.9067 57.8316 46.7766C57.321 46.4942 56.4067 46.8398 56.3127 46.0186C56.2666 45.6322 56.0381 44.6866 57.039 44.8816Z" fill="#E8E8E8"/>
<path d="M58.4619 45.4844C57.8757 44.3474 58.519 43.2773 58.6333 42.1774C58.8822 43.2959 58.5817 44.3845 58.4619 45.4844Z" fill="#A7A7A7"/>
<path d="M58.5026 49.5195C58.3662 49.0495 58.2408 48.5776 58.0878 48.1132C57.9643 47.736 58.038 47.4611 58.5247 47.227C58.6445 48.0221 58.8749 48.7522 58.4786 49.5028C58.4841 49.5047 58.5026 49.5195 58.5026 49.5195Z" fill="#E7E7E7"/>
<path d="M40.4818 35.9376C40.7159 36.0045 40.8615 36.142 40.8615 36.3947C40.8615 36.5749 40.8873 36.8052 40.6127 36.7792C40.4081 36.7607 40.1555 36.7216 40.1684 36.4244C40.1777 36.2144 40.209 35.9878 40.4818 35.9376Z" fill="#CDCDCD"/>
<path d="M37.769 36.9961C37.369 36.3161 37.5644 35.8108 37.7505 35.3036C38.027 35.8127 37.9533 36.318 37.769 36.9961Z" fill="#757575"/>
<path d="M37.7135 33.4531C37.367 33.1633 37.3043 32.8865 37.3633 32.4035C37.6914 32.7211 37.7504 32.998 37.7135 33.4531Z" fill="#5B5B5B"/>
</g>
</g>
</g>
<defs>
<linearGradient id="paint0_linear_394_11262" x1="0" y1="45" x2="90" y2="45" gradientUnits="userSpaceOnUse">
<stop stop-color="#AFE4EC"/>
<stop offset="0.5" stop-color="#71C3D7"/>
<stop offset="1" stop-color="#3FA0BC"/>
</linearGradient>
<clipPath id="clip0_394_11262">
<rect width="90" height="90" fill="white" transform="matrix(0 -1 1 0 0 90)"/>
</clipPath>
</defs>
</svg>
