<svg width="34" height="34" viewBox="0 0 34 34" fill="none" xmlns="http://www.w3.org/2000/svg">
<path d="M17 34C26.3888 34 34 26.3888 34 17C34 7.61116 26.3888 0 17 0C7.61116 0 0 7.61116 0 17C0 26.3888 7.61116 34 17 34Z" fill="#F0F0F0"/>
<path d="M16.2609 17H34C34 15.4656 33.7955 13.9792 33.4144 12.5652H16.2609V17ZM16.2609 8.13046H31.5048C30.4653 6.43522 29.1378 4.93444 27.5822 3.69565H16.2609V8.13046ZM17 34C21.0009 34 24.6783 32.6172 27.5822 30.3044H6.41776C9.32171 32.6172 12.9991 34 17 34ZM2.49514 25.8696H31.5048C32.3503 24.4903 32.9934 22.9968 33.4144 21.4348H0.585632C1.00657 22.9968 1.64964 24.4903 2.49514 25.8696Z" fill="#B1193F"/>
<path d="M7.87472 2.65479H9.42391L7.98289 3.70168L8.53334 5.39564L7.09239 4.34875L5.65144 5.39564L6.12691 3.93225C4.8558 4.99114 3.74515 6.22896 2.8297 7.60697H3.32609L2.40882 8.27336C2.26578 8.51206 2.12863 8.75425 1.9975 8.99971L2.43552 10.3478L1.61832 9.75408C1.41437 10.1859 1.22889 10.6262 1.06237 11.0738L1.54494 12.5591H3.32609L1.88507 13.606L2.43552 15.3L0.994566 14.2531L0.131418 14.8802C0.0438964 15.5834 6.42705e-06 16.2914 0 17H17V0C13.6417 0 10.5111 0.97418 7.87472 2.65479ZM8.53334 15.3L7.09239 14.2531L5.65144 15.3L6.20188 13.606L4.76086 12.5591H6.54201L7.09239 10.8652L7.64276 12.5591H9.42391L7.98289 13.606L8.53334 15.3ZM7.98289 8.65386L8.53334 10.3478L7.09239 9.30093L5.65144 10.3478L6.20188 8.65386L4.76086 7.60697H6.54201L7.09239 5.91301L7.64276 7.60697H9.42391L7.98289 8.65386ZM14.6312 15.3L13.1902 14.2531L11.7493 15.3L12.2997 13.606L10.8587 12.5591H12.6398L13.1902 10.8652L13.7406 12.5591H15.5217L14.0807 13.606L14.6312 15.3ZM14.0807 8.65386L14.6312 10.3478L13.1902 9.30093L11.7493 10.3478L12.2997 8.65386L10.8587 7.60697H12.6398L13.1902 5.91301L13.7406 7.60697H15.5217L14.0807 8.65386ZM14.0807 3.70168L14.6312 5.39564L13.1902 4.34875L11.7493 5.39564L12.2997 3.70168L10.8587 2.65479H12.6398L13.1902 0.960832L13.7406 2.65479H15.5217L14.0807 3.70168Z" fill="#102564"/>
</svg>
