<svg width="90" height="90" viewBox="0 0 90 90" fill="none" xmlns="http://www.w3.org/2000/svg">
<g clip-path="url(#clip0_394_11465)">
<mask id="mask0_394_11465" style="mask-type:luminance" maskUnits="userSpaceOnUse" x="0" y="0" width="90" height="90">
<path d="M0 0L0 90H90V0H0Z" fill="white"/>
</mask>
<g mask="url(#mask0_394_11465)">
<path d="M90 45C90 20.1472 69.8528 0 45 0C20.1472 0 0 20.1472 0 45C0 69.8528 20.1472 90 45 90C69.8528 90 90 69.8528 90 45Z" fill="#3D9635"/>
<path d="M26.1981 76.7673C28.5241 76.9163 32.6388 77.1076 33.055 75.361C33.2744 73.2376 29.0022 74.4076 28.2259 73.6426C27.8491 73.4963 27.8491 73.2263 28.3244 73.2066H31.9638C32.3502 73.2362 32.7351 73.1319 33.0536 72.9111C33.3722 72.6904 33.6051 72.3667 33.7131 71.9945C33.6709 71.432 33.6906 71.0663 34.3094 70.8498C36.3963 70.756 38.4831 70.6688 40.57 70.5882C40.57 70.5882 41.0059 69.2916 37.0516 69.2298C35.4858 69.3593 33.9138 69.3997 32.3434 69.3507C31.9047 69.3507 31.8653 68.8445 32.1044 68.4845C32.5431 67.922 33.0775 67.6801 32.8609 66.8195C32.4419 65.5032 31.7359 64.7213 30.5941 64.6988C29.4905 64.7312 28.3981 64.9303 27.3541 65.2895C27.1544 65.2332 26.6594 65.551 26.4597 65.4835C26.8788 65.2501 26.8366 64.8957 26.4597 64.817C25.6901 64.9447 24.9917 65.3438 24.4909 65.942C24.0325 66.4088 24.1309 67.0979 25.1069 67.3482C26.3521 67.3745 27.5721 66.9954 28.5831 66.2682C29.1374 66.0439 29.7365 65.9524 30.3325 66.001C30.4409 66.1758 30.4765 66.3861 30.4318 66.5869C30.3872 66.7877 30.2657 66.963 30.0934 67.0754C30.0934 67.0754 29.1991 68.1329 29.0219 68.1329C28.0971 67.8769 27.1165 67.9073 26.2094 68.2201C25.6648 68.3368 25.1522 68.571 24.7075 68.9063C24.37 69.1651 24.37 69.5195 24.7075 69.6882C25.9171 70.0603 27.2146 70.0307 28.4059 69.6038C29.1991 69.3704 29.6969 68.9935 29.6969 69.1651C30.1553 69.3113 30.0344 69.6095 29.5169 69.8232C28.4031 70.0802 27.2623 70.202 26.1194 70.186C25.225 70.2845 23.3069 70.3913 22.8203 70.9116C22.3422 71.2295 22.5813 71.7076 23.0397 71.8763C23.9005 71.9168 24.7631 71.899 25.6216 71.8229C26.9964 71.5116 28.3909 71.2945 29.7953 71.1732C31.7641 71.1282 30.6391 72.1801 29.6575 72.1351C28.4139 71.9104 27.139 71.9228 25.9 72.1716C25.3853 72.3432 25.2644 72.5457 25.3656 72.9704C25.3234 73.3079 26.3781 74.1601 28.1275 74.3991C28.6919 74.5242 29.2628 74.6181 29.8375 74.6804C30.7319 74.8041 31.3675 75.3301 29.6969 75.6985C28.4847 76.0248 25.5034 76.216 26.1981 76.7504" fill="white"/>
<path d="M35.7389 70.9879C36.7936 72.8638 37.747 74.6862 38.7398 76.5312C37.7449 76.2199 36.8506 75.6493 36.1488 74.8783C35.447 74.1073 34.9629 73.1636 34.7461 72.1439C34.7855 71.0189 35.2439 71.3001 35.7389 70.9879Z" fill="white"/>
<path d="M22.583 63.9201C22.6082 64.0425 22.6478 64.1614 22.7011 64.2745C22.8007 64.5614 23.0072 64.7988 23.2776 64.9371C23.548 65.0755 23.8614 65.1041 24.1523 65.017C27.8086 64.4826 30.593 64.1423 34.2295 63.6107C34.6683 63.5179 35.2252 63.8442 35.1858 64.252C34.6486 64.9523 33.5545 65.1267 33.6136 66.3192C33.7154 66.8227 33.9707 67.2824 34.3444 67.6349C34.7181 67.9874 35.1918 68.2156 35.7005 68.2879C36.4874 68.4484 37.2986 68.4484 38.0855 68.2879C38.3928 68.0758 38.617 67.7634 38.7196 67.4043C38.8222 67.0452 38.7969 66.6617 38.648 66.3192C38.4089 65.796 37.8042 65.3601 37.9533 65.1745C38.1923 65.0592 40.0992 65.1913 41.5505 67.6438C42.3042 69.1598 42.5039 70.3579 41.1117 71.0188C40.2398 71.4126 36.938 70.9879 37.6945 71.9695C46.1602 74.8888 47.3527 65.1379 38.0517 64.0438C37.793 63.9735 37.5342 63.7626 37.5961 63.6023C37.6355 63.5292 37.7339 63.4785 37.9336 63.4617C46.3402 63.6867 46.897 71.002 44.273 72.2423C43.3555 72.5429 42.395 72.6911 41.4295 72.681C41.095 72.6821 40.769 72.7862 40.4958 72.9792C40.2595 73.2773 40.9148 73.6738 42.0483 73.7638C42.7193 73.8533 43.397 73.8825 44.0733 73.851C50.753 73.4629 47.8898 64.041 42.3858 62.5026C40.6501 62.1993 38.8832 62.1142 37.1264 62.2495V62.2185L37.1067 62.196C38.2317 61.2426 37.2445 59.946 36.8677 59.6507C36.8115 59.6197 36.7634 59.5758 36.7275 59.5226C36.6916 59.4693 36.6689 59.4084 36.6612 59.3446C36.6535 59.2809 36.6611 59.2163 36.6833 59.156C36.7055 59.0958 36.7417 59.0417 36.7889 58.9982C36.936 58.8145 37.0357 58.5973 37.0791 58.3659C37.1225 58.1346 37.1082 57.8961 37.0376 57.6715C36.967 57.4469 36.8422 57.2432 36.6743 57.0782C36.5063 56.9133 36.3003 56.7922 36.0745 56.7257C35.0276 56.5602 33.9722 56.4541 32.9133 56.4079C32.9938 56.7776 33.1563 57.1246 33.3886 57.4232C33.434 57.4628 33.4895 57.4891 33.5489 57.4992C33.8302 57.5357 34.1452 57.5751 34.4433 57.6201C34.4698 57.6253 34.4961 57.6319 34.522 57.6398C34.5577 57.6621 34.586 57.6944 34.6036 57.7326C34.6341 57.7777 34.6521 57.83 34.6557 57.8843C34.6593 57.9386 34.6483 57.9929 34.624 58.0416C34.5996 58.0903 34.5628 58.1316 34.5172 58.1613C34.4716 58.191 34.4189 58.2081 34.3645 58.2107C33.2395 58.4329 33.0511 59.361 34.8398 59.9263C35.1998 60.3145 35.2589 60.9951 34.7611 61.071C33.5489 60.9726 33.3886 61.4113 33.9455 62.272C31.5605 62.5532 29.2964 62.8345 26.9142 63.1157C26.9142 62.7501 27.2123 62.4295 26.7539 62.0948C25.3414 62.3971 23.9826 62.911 22.7236 63.6192C22.6952 63.6401 22.6679 63.6626 22.642 63.6867C22.6416 63.6927 22.6395 63.6985 22.636 63.7034C22.6326 63.7084 22.6278 63.7123 22.6223 63.7148V63.7485C22.6027 63.7654 22.6027 63.7935 22.583 63.7963C22.583 63.8413 22.5633 63.8807 22.583 63.9201ZM35.6414 66.5413C35.6307 66.4269 35.6606 66.3123 35.7259 66.2176C35.7912 66.123 35.8877 66.0544 35.9986 66.0238C36.1054 65.9895 36.2188 65.9812 36.3294 65.9998C36.44 66.0184 36.5446 66.0633 36.6342 66.1307C36.7748 66.2067 36.7158 66.4542 36.7158 66.6398C36.7246 66.7335 36.7045 66.8276 36.6582 66.9095C36.612 66.9915 36.5418 67.0573 36.457 67.0982C36.2377 67.1657 36.0183 66.9801 35.8411 66.8901C35.6639 66.8001 35.8017 66.8732 35.782 66.8592C35.7078 66.7676 35.6592 66.6579 35.6414 66.5413Z" fill="white"/>
<path d="M22.3838 57.3531C22.4063 57.5835 22.4742 57.8072 22.5835 58.0112C22.8319 58.2477 23.151 58.3962 23.492 58.4338C23.8329 58.4713 24.1767 58.396 24.4707 58.2193C24.6507 57.8481 25.0894 57.4768 25.3144 57.73C26.5688 58.7706 28.6894 61.5015 29.0719 61.6393H29.1113V61.6168C29.2264 60.9435 29.233 60.2561 29.131 59.5806H29.1113C27.9359 58.3507 26.6592 57.2217 25.2947 56.2056C25.1569 56.3434 25.0557 56.4868 24.9179 56.6247C24.8915 56.6575 24.8581 56.684 24.8201 56.7022C24.7822 56.7205 24.7406 56.7299 24.6985 56.7299C24.6564 56.7299 24.6148 56.7205 24.5768 56.7022C24.5389 56.684 24.5055 56.6575 24.4791 56.6247C24.2397 56.3596 23.9058 56.199 23.5492 56.1775C23.1927 56.1559 22.8419 56.2751 22.5722 56.5093C22.4319 56.7673 22.3694 57.0604 22.3922 57.3531M23.4863 57.4825C23.4666 57.3109 23.6663 57.1112 23.9025 57.01C24.1388 56.9087 24.42 56.9565 24.4791 57.1253C24.5382 57.294 24.3413 57.5275 24.0825 57.64C23.8238 57.7525 23.5454 57.6906 23.506 57.5134C23.506 57.5134 23.4863 57.5134 23.4863 57.4825ZM41.745 76.3375C42.5704 76.806 43.4841 77.0979 44.4282 77.1947C45.3722 77.2915 46.3262 77.1912 47.2294 76.9C47.4147 76.7724 47.556 76.5907 47.634 76.3798C47.712 76.1688 47.723 75.9389 47.6654 75.7215C47.3475 75.0718 45.8569 74.7793 45.3225 74.9397C44.9232 75.1562 44.8641 75.3278 45.2016 75.55C46.2366 76.0028 45.5194 76.1968 44.9204 76.239C43.938 76.2916 42.9529 76.2502 41.9785 76.1153C41.1657 76 41.4019 76.1153 41.7422 76.3431M38.7638 31.855C36.3169 32.8562 33.9122 34.2512 32.9982 34.6928C32.0841 35.1343 26.6194 38.484 25.9838 38.979C24.5325 40.0703 26.5997 37.2128 23.6972 39.3418C22.921 40.1462 22.8816 40.1856 22.246 40.8803C21.9647 41.2065 21.4922 42.0475 22.2854 42.1825C22.8616 42.2592 23.4469 42.2355 24.015 42.1122C24.542 41.9003 25.0371 41.6164 25.486 41.2684C30.8116 37.6866 36.4369 34.5718 42.2991 31.959C42.0629 31.4978 39.18 31.5962 38.7638 31.869" fill="white"/>
<path d="M46.9131 36.2642C47.1522 36.4695 48.2434 35.7833 48.2237 34.8861C48.0465 33.3983 47.0987 32.0736 44.6068 30.8698C43.7558 30.3685 42.8074 30.0549 41.8253 29.9501C37.1157 29.8 32.4032 30.1364 27.7628 30.9542C27.4392 31.0063 27.1085 30.9939 26.7897 30.9176C26.6518 30.822 26.7897 30.493 26.4718 30.3214C26.1737 30.0598 23.7493 30.9936 22.8156 31.5251C22.3965 31.7136 22.1209 31.7811 22.855 32.0876C23.6897 32.4679 24.6019 32.6471 25.5184 32.6108C31.045 31.8992 35.9247 31.6826 41.4372 31.2045C42.005 31.1249 42.5828 31.2484 43.0684 31.5533C44.6836 32.8173 46.0002 34.422 46.9243 36.253M54.9906 19.1755C55.6881 20.2526 56.5009 20.2526 56.5206 19.378C56.542 18.488 56.3315 17.6079 55.9099 16.8239C55.4883 16.0399 54.8701 15.379 54.1159 14.9061C53.1375 14.4782 52.0889 14.2332 51.0222 14.1833C45.9399 13.9813 40.8498 14.2524 35.8178 14.9933C35.3464 15.0885 34.8671 15.1384 34.3862 15.1423C34.1275 15.0411 34.4256 14.5601 34.105 14.397C33.8237 14.1326 31.6215 15.643 30.6878 16.183C30.2687 16.363 29.9903 16.4305 30.7468 16.7455C31.58 17.1006 32.4979 17.208 33.3906 17.0548C39.0848 16.2554 44.8171 15.7559 50.5637 15.5586C51.0434 15.5964 51.5162 15.6966 51.97 15.8567C52.6681 16.2659 53.3157 16.7558 53.8993 17.3164C54.2959 17.8114 54.6925 18.8464 54.9906 19.1811" fill="white"/>
<path d="M41.4876 15.3214C40.0814 15.3382 38.8636 15.2848 37.8089 15.3382C36.7542 15.3917 32.8195 15.8107 31.987 15.9429C31.1545 16.0751 29.8608 16.2411 28.8455 16.4436C28.2564 16.5615 27.6575 16.6236 27.0567 16.6292C26.7755 16.5504 27.0764 16.2045 26.7389 16.0498C25.1904 16.2268 23.6914 16.7045 22.3261 17.4561C21.9098 17.6501 22.0448 18.0186 22.7255 18.4657C23.1614 18.8932 24.1542 18.747 25.1105 18.5754C31.3282 17.4049 37.6442 16.836 43.9711 16.8767C44.4689 16.9386 42.4411 15.3045 41.4876 15.3214ZM33.6942 23.2217C33.6745 23.8995 32.2233 25.3114 31.3711 25.722C30.9569 25.8456 30.5122 25.8176 30.1167 25.6432C29.9395 25.3929 29.7201 25.0076 29.9395 24.7236C29.9395 24.7236 30.3951 24.4254 30.457 24.4817C30.6539 24.1161 30.5358 23.9557 30.3558 23.9192C30.0745 23.8967 29.9001 24.0345 29.5823 24.0345C28.688 23.8798 28.567 22.9826 29.1239 22.6282C29.605 22.3863 30.1351 22.2574 30.6736 22.2514C30.9323 22.2514 30.6342 22.6198 30.6933 22.8139C30.7523 23.0079 31.0139 23.0698 31.2558 23.0951C32.0693 23.1546 32.8843 23.193 33.6998 23.2104M43.057 35.6586C41.1276 35.4673 37.2323 35.7204 36.1017 35.7373C33.4383 35.7992 28.2886 36.1957 27.4336 36.3729C25.8051 36.5867 27.6136 35.7851 26.6601 35.9004C25.1345 36.2537 23.7037 36.9341 22.4667 37.8945C21.9886 38.1926 21.8901 38.1757 22.5848 38.6539C23.6534 38.958 24.7883 38.9365 25.8445 38.592C28.9644 37.949 32.1262 37.5298 35.3058 37.3376C38.6546 37.1344 42.0118 37.1091 45.3633 37.2617C45.3633 36.7526 44.4295 35.9398 43.057 35.6586Z" fill="white"/>
<path d="M39.9751 13.0225C37.7251 14.2009 35.1039 16.0009 34.2095 16.4762C33.3151 16.9516 26.6382 21.0128 26.0532 21.5191C24.3235 23.0041 25.772 20.8384 24.4023 21.8003C23.7076 22.3177 23.0685 22.9058 22.4954 23.5553C22.2564 23.9012 21.7585 24.1178 22.5742 24.2303C23.3009 24.2917 24.0306 24.3095 24.7595 24.2838C25.2535 24.2057 25.7192 24.0023 26.1123 23.6931C31.6144 19.6831 37.4297 16.1213 43.502 13.0422C43.2657 12.5922 40.3829 12.7469 39.9864 13.0253M61.2629 27.4028C61.3258 27.6119 61.4463 27.7992 61.6106 27.9431C61.7748 28.087 61.9762 28.1818 62.1918 28.2168C62.4074 28.2517 62.6285 28.2252 62.8298 28.1405C63.031 28.0557 63.2044 27.9161 63.3301 27.7375C63.3301 38.8328 63.1304 55.8625 63.1304 59.4991C63.1304 61.5494 62.8492 68.0041 62.8492 68.125C63.8281 67.4832 64.6077 66.5799 65.0993 65.5175C65.591 64.4552 65.7751 63.2763 65.6307 62.1147C65.6307 57.1816 65.5717 34.3581 65.5717 27.8697C66.0138 28.0339 66.4906 28.0823 66.9567 28.0105C67.4229 27.9386 67.8629 27.7488 68.2351 27.4591L68.2548 27.4338C68.2619 27.4302 68.2677 27.4245 68.2712 27.4174C68.2748 27.4103 68.2759 27.4022 68.2745 27.3944V27.3747C68.3954 26.9416 68.0354 26.7531 67.7992 26.6012C67.8919 24.943 67.8854 23.2806 67.7795 21.6231C68.1761 21.3784 68.5529 21.1309 68.4939 20.6725C68.2942 19.8625 68.1957 19.2269 66.3479 19.1987C66.3479 19.1987 63.2064 19.2831 63.406 21.1225C63.4651 21.5584 63.6057 22.7762 63.6057 22.7762C63.4257 24.1825 63.406 25.2316 63.3245 26.8178C63.1248 26.6688 62.2698 26.4156 61.9717 26.7306C61.9278 26.7829 61.8947 26.8434 61.8745 26.9086C61.8542 26.9738 61.8471 27.0424 61.8535 27.1103V27.1412C61.8535 27.1412 61.8339 27.1666 61.8142 27.175H61.7945C61.6201 27.2475 61.4406 27.3067 61.2573 27.3522V27.3888M65.7573 26.635C65.836 25.0262 65.777 23.5075 65.8557 21.8819C65.9898 21.7829 66.1538 21.733 66.3203 21.7407C66.4867 21.7484 66.6454 21.8131 66.7698 21.9241C66.7895 21.9241 66.7895 21.9466 66.7895 21.9466V21.9916C66.7698 22.5175 66.7698 22.8184 66.7501 23.3444C66.7107 23.3444 66.6911 23.3612 66.6517 23.3612C66.2326 23.4906 66.2748 24.385 66.6123 24.6044H66.7107C66.7301 24.6098 66.7505 24.6098 66.7698 24.6044C66.8137 25.2943 66.7873 25.9869 66.6911 26.6716C66.4098 26.8713 65.8951 26.8487 65.7573 26.6041M24.2926 55.4716C27.7492 56.5487 31.5657 54.8472 31.2085 53.6716C31.5854 52.8278 29.7573 52.285 27.7689 51.9306C27.2064 51.6887 27.1529 51.5116 27.4314 51.3878C30.0948 51.4244 30.691 51.2219 31.487 50.6144C31.6619 50.4514 31.8021 50.2548 31.8992 50.0364C31.9962 49.8179 32.0482 49.5821 32.0519 49.3431C32.0555 49.104 32.0109 48.8667 31.9206 48.6454C31.8303 48.4241 31.6962 48.2232 31.5264 48.055C31.4476 47.9678 30.3535 47.0003 30.3535 47.0003C30.2871 46.9491 30.2326 46.884 30.1939 46.8096C30.1551 46.7351 30.1331 46.6531 30.1294 46.5693C30.1256 46.4855 30.1402 46.4018 30.1721 46.3242C30.2041 46.2466 30.2525 46.1769 30.3142 46.12C30.632 45.8078 31.2085 45.8387 31.5854 45.1581C31.7259 44.7986 31.7537 44.4049 31.6653 44.0292C31.5769 43.6535 31.3764 43.3135 31.0904 43.0544C30.3535 42.6663 30.0948 42.5819 29.8164 42.4047C29.4001 42.1234 29.5801 41.6566 29.7179 41.6566C29.957 41.6988 30.1764 41.9631 30.5926 41.7916C30.8739 41.4541 30.691 41.3781 30.632 41.1812C30.2551 40.495 28.5845 39.9775 28.5845 39.9775C27.9489 39.955 28.0079 40.2587 28.1485 40.4725C28.3257 40.7284 28.3876 40.7538 28.5648 41.0125C28.6042 41.3444 28.8629 41.9969 28.306 42.3119C27.631 42.6466 26.6776 42.6466 26.0026 42.9053C25.9632 42.9053 24.9479 43.3356 24.8776 42.9306C24.917 42.7309 25.0548 42.2978 24.6385 42.2247C24.242 42.0053 23.0889 42.6831 22.532 43.1416C22.4121 43.2235 22.313 43.3324 22.2426 43.4594C22.1723 43.5865 22.1327 43.7283 22.127 43.8734C22.1212 44.0186 22.1495 44.163 22.2096 44.2953C22.2697 44.4275 22.3598 44.5438 22.4729 44.635C22.8277 44.9015 23.2612 45.042 23.7048 45.0344C23.9928 45.0939 24.2901 45.0929 24.5777 45.0315C24.8653 44.97 25.1369 44.8493 25.3754 44.6772C26.3871 44.0363 27.579 43.7403 28.7729 43.8334C28.9677 43.9422 29.1296 44.1015 29.2415 44.2945C29.3533 44.4876 29.411 44.7072 29.4085 44.9303C29.3298 45.2116 29.1892 45.6897 27.122 45.9428C25.4941 45.8831 23.8664 46.067 22.2929 46.4884C21.6573 46.705 21.0414 46.8569 22.1354 47.3828C22.4797 47.6119 22.872 47.7589 23.2821 47.8126C23.6922 47.8662 24.1091 47.825 24.5007 47.6922C25.6815 47.2878 26.942 47.1721 28.1767 47.3547C28.5324 47.5338 28.8713 47.7447 29.1892 47.9847C29.3883 48.1367 29.5205 48.3602 29.5578 48.608C29.5951 48.8558 29.5345 49.1083 29.3889 49.3122C29.2604 49.5397 29.0782 49.7323 28.858 49.8731C28.6378 50.0138 28.3865 50.0984 28.126 50.1194C26.7666 50.0258 25.4012 50.0701 24.0507 50.2516C23.2942 50.5722 23.5726 51.115 23.792 51.34C25.1217 52.3957 26.7056 53.0834 28.3848 53.3341C29.4957 53.6434 29.1779 53.9725 28.7223 54.2003C28.1457 54.7628 23.5332 54.7966 24.2898 55.4716" fill="white"/>
<path d="M31.4675 51.8284C31.4872 51.8284 31.4872 51.8425 31.4872 51.8594H31.5069C31.5463 51.9297 31.6869 52.0225 31.8444 52.2081C32.0556 52.3655 32.297 52.4777 32.5534 52.5377C32.8099 52.5977 33.0759 52.6042 33.335 52.5569C33.4363 52.5428 35.2447 51.9663 36.5357 51.4656C37.9328 51.0463 39.3985 50.9048 40.85 51.0494C42.7148 51.8536 44.2938 53.2013 45.381 54.9166C45.5075 55.1668 45.5734 55.4433 45.5734 55.7238C45.5734 56.0042 45.5075 56.2807 45.381 56.5309H45.3613C45.2402 56.6858 45.0816 56.8071 44.9004 56.8834C44.7193 56.9597 44.5217 56.9885 44.3263 56.9669C43.262 55.2384 41.6906 53.8801 39.8263 53.0772C38.7772 52.698 37.6349 52.6615 36.5638 52.9731C36.021 53.0705 35.5097 53.2972 35.0732 53.6341C35.0732 53.6341 35.0732 53.6341 35.0535 53.6341C34.9353 53.4175 35.4107 52.8578 35.1125 52.765C34.2572 52.9277 33.461 53.3161 32.8063 53.89C32.6969 53.9645 32.6058 54.0628 32.5398 54.1775C32.4737 54.2923 32.4345 54.4204 32.4251 54.5524C32.4156 54.6845 32.4361 54.8169 32.4851 54.9399C32.5341 55.0628 32.6102 55.1731 32.7078 55.2625C33.006 55.7266 34.0607 55.825 34.9944 55.6084C35.6694 55.3553 35.7903 54.6719 37.1797 54.1853H37.1994C37.6827 54.0926 38.1814 54.1216 38.6507 54.2697C39.7993 55.0951 40.829 56.0746 41.7107 57.1806L41.7303 57.2003H41.7528V57.2313H41.7303C41.5787 57.2205 41.4264 57.2205 41.2747 57.2313C40.8782 57.2313 39.9219 57.0878 39.7447 57.0991H39.725C40.341 57.9288 42.2085 58.2241 42.7653 58.3675C44.0831 60.4819 45.6075 62.4604 47.316 64.2738C48.5703 64.9994 45.845 59.2928 45.5272 58.6488C45.5272 58.6488 45.5272 58.6319 45.5469 58.6234C45.9574 58.5028 46.3513 58.3318 46.7197 58.1144C47.2029 57.7813 47.5707 57.3063 47.7722 56.7551C47.9738 56.2039 47.9991 55.6037 47.8447 55.0375C46.9381 53.1638 45.4823 51.6108 43.671 50.5853C43.3897 50.4166 43.1732 50.1438 43.3897 49.8991C44.5437 49.3094 45.5062 48.4037 46.165 47.2878C46.8238 46.1718 47.1518 44.8915 47.1107 43.5963C46.1347 42.8847 45.6397 43.2194 45.4597 43.5119C45.381 43.6047 44.7453 45.0503 44.1097 45.2697C43.5332 45.4075 43.0157 45.0728 42.6163 44.3781C42.4109 42.3989 41.9912 40.4478 41.3647 38.5591C40.5809 38.4912 39.8173 38.2745 39.1147 37.9206C38.9553 37.8474 38.8177 37.734 38.7153 37.5916C38.7153 37.5916 38.7153 37.5916 38.6957 37.5916H38.676C38.6629 37.5893 38.6496 37.5893 38.6366 37.5916L38.4172 37.9206L38.3778 44.2431C38.353 44.3063 38.3199 44.3659 38.2794 44.4203H38.1613C38.094 44.3708 38.0446 44.3007 38.0207 44.2206C37.8013 42.7019 37.3063 40.0244 34.3841 39.85C34.0549 39.8037 33.7198 39.8254 33.3993 39.9138C33.0789 40.0022 32.78 40.1553 32.5211 40.3639C32.2622 40.5724 32.0489 40.8318 31.8943 41.1261C31.7396 41.4204 31.6471 41.7432 31.6222 42.0747C31.758 42.7077 32.134 43.2634 32.6711 43.6248C33.2083 43.9862 33.8647 44.1252 34.5022 44.0125C34.8819 44.0659 35.6553 43.8888 35.7341 44.2431C35.9928 46.5719 37.6241 49.1088 38.7969 49.2016V49.2325L38.8166 49.2494V49.2803L38.7969 49.3084C38.7236 49.4274 38.6154 49.5209 38.4871 49.5762C38.3588 49.6316 38.2166 49.6461 38.0797 49.6178C35.9639 49.7244 33.8933 50.2693 31.9991 51.2181C31.6222 51.5388 31.4816 51.685 31.4619 51.7806V51.82M34.0663 42.5753C34.0481 42.3988 34.0974 42.222 34.2041 42.0803C34.2604 41.9688 34.3453 41.8742 34.45 41.806C34.5547 41.7379 34.6756 41.6986 34.8003 41.6922H34.8763L34.9157 41.7316C35.0535 41.8553 35.0338 42.1253 34.8538 42.3953C34.7967 42.4993 34.7161 42.5886 34.6185 42.656C34.5208 42.7233 34.4088 42.767 34.2913 42.7834H34.2688C34.2294 42.7834 34.2097 42.7666 34.2097 42.7553L34.1703 42.7384C34.1507 42.7384 34.1507 42.7384 34.131 42.7075C34.1114 42.6881 34.096 42.6648 34.0858 42.6392C34.0757 42.6135 34.0709 42.586 34.0719 42.5584M40.0738 48.4394V48.3775C40.2585 47.506 40.3714 46.6209 40.4113 45.7309C40.4703 44.9969 41.106 44.6341 41.3844 45.3203C41.6628 46.0066 41.8428 46.6506 42.9566 46.6506C43.2676 46.5577 43.599 46.5577 43.91 46.6506C43.9297 46.6506 43.9494 46.6675 43.9494 46.6788H43.9888V46.6984L44.0085 46.7294C44.0139 46.7311 44.0188 46.7344 44.0223 46.739C44.0258 46.7435 44.0278 46.749 44.0282 46.7547C44.0478 46.9234 43.851 47.1569 43.7694 47.3369C43.4364 47.821 43.0036 48.2282 42.5 48.5309C41.9964 48.8336 41.4338 49.0249 40.85 49.0919C40.7557 49.1003 40.6607 49.09 40.5704 49.0614C40.4801 49.0328 40.3964 48.9865 40.3242 48.9253C40.2519 48.864 40.1926 48.789 40.1496 48.7047C40.1066 48.6203 40.0809 48.5282 40.0738 48.4338M24.3322 68.7963C24.7091 68.0622 24.5516 66.6981 23.2382 66.7544C23.0326 66.7601 22.8273 66.7704 22.6222 66.7853C22.2257 66.9288 22.3044 67.3478 22.7235 67.4322C22.8416 67.4631 23.061 67.3872 23.1397 67.4884C23.2185 67.5897 23.1594 67.7838 22.8022 67.7697C22.6869 67.7768 22.5764 67.8179 22.4844 67.8878C22.46 67.9097 22.4417 67.9375 22.4314 67.9686C22.421 67.9997 22.4189 68.0329 22.4253 68.065C22.445 68.1634 22.4647 68.1634 22.5632 68.2084C22.6588 68.2434 22.7595 68.2624 22.8613 68.2647C22.9991 68.2816 23.0413 68.3322 23.061 68.4166C23.0807 68.5009 23.0807 68.4813 23.0216 68.5656C22.9597 68.605 22.94 68.6725 22.8416 68.6725C22.7349 68.6743 22.6285 68.6856 22.5238 68.7063C22.4646 68.7519 22.4229 68.8164 22.4057 68.8891C22.4057 69.2913 22.9203 69.3166 23.12 69.2913C23.1594 69.325 24.0735 69.3363 24.3322 68.7963Z" fill="white"/>
<path d="M34.5069 47.428C34.8865 46.6995 34.6672 44.967 33.3819 45.3833C33.1759 45.3879 32.9703 45.4029 32.7659 45.4283C32.3694 45.5717 32.4678 45.9739 32.8672 46.0723C33.005 46.0948 33.2244 46.0161 33.3031 46.1202C33.3819 46.2242 33.3031 46.4183 32.9459 46.4014C32.8367 46.4088 32.7324 46.4501 32.6478 46.5195C32.6257 46.5407 32.6089 46.5667 32.5987 46.5955C32.5884 46.6243 32.585 46.6551 32.5887 46.6855C32.6084 46.7811 32.6281 46.7811 32.7265 46.8373C32.8231 46.8681 32.9234 46.8861 33.0247 46.8908C33.1653 46.8908 33.2047 46.9498 33.2244 47.037C33.244 47.1242 33.244 47.0989 33.185 47.1833C33.1259 47.2677 33.1062 47.2902 33.005 47.2902C32.897 47.2865 32.7893 47.3027 32.6872 47.338C32.6261 47.3793 32.5837 47.4429 32.569 47.5152C32.569 47.9089 33.0837 47.9314 33.2834 47.9173C33.3031 47.9398 34.2172 47.9567 34.4956 47.4167M30.2937 34.9686C30.6706 34.243 30.4934 32.8733 29.1687 32.9295C29.0703 32.9295 28.6737 32.952 28.5528 32.9605C28.1759 33.1152 28.2547 33.523 28.6737 33.6073C28.7919 33.6411 29.0112 33.5652 29.0703 33.672C29.149 33.7255 29.1097 33.9533 28.7328 33.9533C28.6191 33.9674 28.5103 34.0079 28.415 34.0714C28.3951 34.1224 28.3883 34.1775 28.3953 34.2317C28.3953 34.3273 28.415 34.3273 28.5134 34.3864C28.6164 34.419 28.7233 34.438 28.8312 34.4427C28.9522 34.4427 28.9915 34.4961 29.0112 34.5889C29.0309 34.6817 29.0309 34.6648 28.9719 34.7295C28.9529 34.7608 28.9266 34.7869 28.8952 34.8055C28.8638 34.8241 28.8283 34.8348 28.7919 34.8364C28.6779 34.8399 28.5648 34.8559 28.4544 34.8842C28.4155 34.9368 28.3886 34.9973 28.3756 35.0614C28.3756 35.458 28.8903 35.4917 29.0703 35.4636C29.1097 35.4917 30.0237 35.5086 30.2825 34.9658M40.849 28.5195C41.5713 28.9555 42.3837 29.2205 43.2242 29.2941C44.0646 29.3677 44.9107 29.248 45.6978 28.9442C46.5303 28.6725 47.2411 28.1171 47.7059 27.3748C47.825 27.2654 47.9163 27.1292 47.9722 26.9775C48.0282 26.8257 48.0472 26.6629 48.0277 26.5023C48.0081 26.3418 47.9507 26.1882 47.86 26.0543C47.7693 25.9204 47.648 25.8101 47.5062 25.7323C46.6315 24.9898 44.4265 24.9702 43.9878 24.627C43.1722 24.3739 43.3128 23.7636 43.67 23.4655C44.0927 23.1949 44.447 22.83 44.705 22.3995C44.8724 22.2583 45.01 22.0852 45.1097 21.8902C45.2094 21.6952 45.2692 21.4823 45.2857 21.2639C45.3022 21.0455 45.2751 20.826 45.2058 20.6183C45.1365 20.4105 45.0265 20.2187 44.8822 20.0539C44.4905 19.4359 43.8797 18.9889 43.1722 18.8023C39.8272 18.5302 36.4669 18.4992 33.1175 18.7095C32.8784 18.7461 28.9831 19.4295 28.9409 19.4295C28.8987 19.4295 26.9553 19.528 26.4969 19.5983C26.3 19.6152 26.2381 19.6545 26.2606 19.4773C26.4575 19.2917 26.4772 19.2748 26.5165 19.1567C26.5587 18.9711 26.1987 18.8023 25.8612 18.912C24.6687 19.4745 23.4565 20.0736 22.2837 20.653C22.1065 20.7852 21.9462 20.9708 22.3034 21.1986C22.4458 21.3363 22.6141 21.4445 22.7985 21.5169C22.9828 21.5893 23.1797 21.6245 23.3778 21.6205C24.2215 21.567 25.1075 21.4348 25.9625 21.387C27.4109 21.1536 28.8819 20.923 30.3528 20.6895C33.4747 20.473 36.335 20.4083 39.4569 20.1945C40.5851 20.1445 41.7056 20.4042 42.6969 20.9455C42.6969 20.9455 43.054 21.4545 42.6772 21.8061C42.0842 22.2935 41.4445 22.7212 40.7675 23.083C40.2331 23.6061 40.3709 23.9548 40.7675 24.3261C42.2063 25.2438 43.7563 25.9744 45.38 26.5002C45.6978 26.6858 45.9762 27.1892 45.3603 27.7461C43.9827 28.4816 42.4044 28.7529 40.8603 28.5195M22.6212 34.6395C22.926 34.2836 23.3148 34.0094 23.7525 33.8419C24.1901 33.6744 24.6626 33.6189 25.1272 33.6805C26.0215 33.8127 27.0144 34.153 26.8765 34.4061C26.7387 34.6592 25.9822 34.2261 25.1665 34.4764C24.6294 34.6311 23.6759 35.5142 23.3778 35.4214C23.2698 35.4592 23.1532 35.4653 23.0418 35.4389C22.9304 35.4126 22.8289 35.3548 22.7493 35.2726C22.6697 35.1903 22.6153 35.087 22.5926 34.9748C22.5699 34.8626 22.5799 34.7463 22.6212 34.6395Z" fill="white"/>
<path d="M41.7448 26.4174C40.4308 26.3575 39.114 26.4036 37.8073 26.5552C36.7751 26.5946 28.2448 27.6014 27.4517 27.8152C25.9639 28.0627 27.2548 26.828 26.3801 26.9714C25.2861 27.3933 23.6773 28.4536 22.7239 28.7827C22.3048 28.9936 21.9476 28.9064 22.6226 29.3452C23.8287 29.73 25.1001 29.8669 26.3604 29.7474C32.2681 28.4863 38.2864 27.8155 44.3267 27.7449C44.3267 27.2414 43.0358 26.6593 41.7448 26.4061M32.8489 18.3343C33.2061 17.7239 35.0539 17.3808 35.5911 17.4455C36.5642 17.5608 37.6189 17.8758 37.4783 18.1036C37.3376 18.3314 36.0298 18.0558 35.6304 18.1739C35.0539 18.3174 34.002 19.1189 33.6842 19.0374C33.0261 19.2005 32.7504 18.683 32.8404 18.3343M38.3642 59.498C38.6033 58.9355 39.9758 58.598 40.3723 58.6543C41.0867 58.7696 41.8433 59.0705 41.7786 59.2843C41.7139 59.498 40.7042 59.2336 40.4061 59.3546C39.672 59.3968 39.2811 60.1983 38.9745 60.1702C38.3979 60.3221 38.2995 59.8496 38.3783 59.4896M22.167 74.7193C22.4483 73.8755 23.8348 73.8305 24.2539 73.8755C24.9879 73.9908 25.7839 74.2918 25.6854 74.5111C25.587 74.7305 24.5914 74.5111 24.2792 74.6293C23.8208 74.7502 23.0473 75.473 22.8083 75.3774C22.3104 75.5405 22.0714 75.0596 22.1726 74.7108M28.7258 58.1283C28.9855 58.4586 29.352 58.6883 29.7625 58.7781C30.1729 58.8679 30.6018 58.8122 30.9758 58.6205C31.1413 58.5096 31.2661 58.3476 31.331 58.1593C31.396 57.9709 31.3977 57.7665 31.3358 57.5771C31.4342 56.9443 30.0026 56.5702 30.0026 56.5702C30.0026 56.5702 29.6061 56.5505 30.3598 57.293C30.4414 57.6136 30.3008 57.653 30.1011 57.7346C29.7292 57.8095 29.3437 57.7763 28.9901 57.6389C28.6301 57.5236 28.4726 57.7655 28.7314 58.1283M21.6298 53.2993C21.8585 53.5807 22.1419 53.8128 22.4629 53.9815C22.7839 54.1502 23.1358 54.252 23.4973 54.2808C23.9754 54.3061 23.9754 54.3877 24.2933 54.1036C24.6308 53.8927 24.5914 53.6846 24.3326 53.2739C24.2586 53.1684 24.1643 53.0787 24.0551 53.0101C23.946 52.9415 23.8242 52.8954 23.697 52.8746C23.1345 52.7733 23.9558 53.3921 23.3398 53.4764C22.7633 53.6086 22.5439 53.2149 21.9673 52.8352C21.5904 52.8352 21.3317 52.8352 21.6298 53.2993ZM22.4061 49.3983C23.1187 49.5531 23.8432 49.6472 24.5717 49.6796C25.1089 49.7949 25.3451 49.1705 24.6504 48.8977C23.893 48.6166 23.093 48.4673 22.2851 48.4561C21.4695 48.5799 21.5117 49.0749 22.4061 49.3983ZM36.4573 24.8452C36.3758 24.7552 33.6729 21.3858 33.6729 21.3858C33.5351 21.0399 35.0792 21.1046 35.0454 21.2705C36.1806 22.2923 37.1319 23.5015 37.8579 24.8452C37.9789 25.0083 36.8061 25.1771 36.4686 24.8452M36.4376 21.7655C36.7751 21.1636 38.7214 20.9218 39.2501 20.9949C40.2851 20.9724 41.1176 21.5574 40.9995 21.7993C40.8814 22.0411 39.7086 21.7739 39.2895 21.8893C38.6564 22.1499 37.996 22.3386 37.3208 22.4518C36.6626 22.6205 36.3054 22.1311 36.4264 21.7683M44.8639 41.8439C44.5118 41.5667 44.1978 41.2443 43.9301 40.8849C43.8757 40.7766 43.8597 40.6531 43.8848 40.5345C43.9098 40.4159 43.9744 40.3094 44.0679 40.2324C44.4279 40.1733 44.7851 40.4405 45.2801 40.3561C45.4798 40.2886 45.7189 40.2324 45.6204 39.9061C45.4323 39.6933 45.2894 39.4444 45.2004 39.1746C45.1115 38.9048 45.0783 38.6198 45.1029 38.3368C45.1029 37.9149 45.8961 37.9121 45.8961 38.1624C46.1004 38.9047 46.3832 39.6231 46.7398 40.3055C46.8086 40.4012 46.8369 40.5201 46.8184 40.6365C46.8 40.7529 46.7364 40.8573 46.6414 40.9271C46.539 40.9923 46.4223 41.0318 46.3013 41.0421C46.1803 41.0524 46.0586 41.0332 45.9467 40.9861C45.5473 40.958 45.3308 41.1014 45.3504 41.4024C45.5079 41.6274 45.5867 41.8214 45.3111 41.9339C45.0917 41.9733 44.9736 41.9902 44.8526 41.8439M45.9186 18.2105C46.0168 18.1148 46.1485 18.0613 46.2856 18.0613C46.4227 18.0613 46.5544 18.1148 46.6526 18.2105C46.9114 18.4524 47.0295 18.6127 47.2883 18.8546C47.5076 18.9614 47.8254 19.0317 47.9239 18.6943C48.1236 18.0671 47.0801 16.6046 47.0295 16.6046C46.9584 16.5263 46.8653 16.4713 46.7625 16.4467C46.6596 16.4221 46.5518 16.4291 46.4529 16.4668C46.2758 16.6046 46.3742 16.9111 46.3742 17.1164C46.3742 17.2233 46.2954 17.5467 45.9973 17.3977C45.8199 17.2896 45.6313 17.201 45.4348 17.1333C45.1761 17.0405 45.0186 17.1136 44.8723 17.4821C44.823 17.78 44.823 18.0841 44.8723 18.3821C44.9314 18.5986 45.0523 18.6633 45.3308 18.7139C45.7667 18.6999 45.747 18.458 45.927 18.2049" fill="white"/>
</g>
</g>
<defs>
<clipPath id="clip0_394_11465">
<rect width="90" height="90" fill="white" transform="matrix(0 -1 1 0 0 90)"/>
</clipPath>
</defs>
</svg>
