<svg width="90" height="90" viewBox="0 0 90 90" fill="none" xmlns="http://www.w3.org/2000/svg">
<g clip-path="url(#clip0_394_11498)">
<mask id="mask0_394_11498" style="mask-type:luminance" maskUnits="userSpaceOnUse" x="0" y="0" width="90" height="90">
<path d="M0 0L0 90H90V0H0Z" fill="white"/>
</mask>
<g mask="url(#mask0_394_11498)">
<path d="M45.0026 0.779037C69.4355 0.771737 89.251 20.5797 89.251 45.0164C89.251 69.453 69.4356 89.2574 45.0026 89.25C20.5659 89.2574 0.75 69.4529 0.75 45.0164C0.75 20.5797 20.5659 0.771737 45.0026 0.779037Z" fill="white" stroke="black" stroke-width="1.49906" stroke-linecap="round" stroke-linejoin="round"/>
<path d="M22.8505 44.96C23.2702 65.6924 38.3358 74.5137 54.9848 75.1807C63.055 75.5042 69.1427 71.0347 73.2936 66.6218C68.4479 78.0612 58.7272 84.8872 47.012 89.1719C70.8771 88.0821 89.2818 68.9394 89.2818 44.8071C89.2818 21.5851 70.695 1.3455 46.2213 0.790901C39.4369 0.637401 34.5919 1.6457 29.7762 3.4071C30.3145 3.4238 29.4676 3.409 30.1454 3.2463C38.9618 1.1284 56.1767 6.2488 64.2828 14.134C61.2885 12.7848 58.0917 11.9791 54.7713 11.9791C37.8431 11.9791 22.851 22.5167 22.851 43.9646C22.851 44.2981 22.8435 44.6279 22.851 44.9577L22.8505 44.96Z" fill="#0F0F0F" fill-opacity="0.45"/>
<path fill-rule="evenodd" clip-rule="evenodd" d="M69.1125 44.2743C67.9256 60.7133 73.1655 72.0859 73.1655 72.0859C73.1655 72.0859 73.077 68.458 73.4029 66.4102C76.0317 70.2472 81.2433 71.5049 81.2433 71.5049C81.2433 71.5049 76.6553 67.2286 75.0256 62.839C79.9785 66.5661 88.1201 67.0621 88.1201 67.0621C88.1201 67.0621 75.4613 62.7788 72.8396 54.7754C70.8414 48.6745 72.0176 42.2194 72.0176 42.2194C72.0176 42.2194 71.1355 29.426 78.7775 25.0399C79.0503 24.4624 74.1363 24.5191 72.3826 28.1541L71.8759 18.3651C68.868 25.504 69.1125 44.2743 69.1125 44.2743Z" fill="#44AA00" stroke="black" stroke-width="1.41716" stroke-linejoin="round"/>
<path d="M17.6516 45.8466C17.8677 56.5214 21.7791 63.8906 27.8374 68.3865C26.9198 76.9142 36.2057 84 36.2057 84C36.2057 84 39.5537 77.3075 36.7513 72.638C39.8372 73.4883 43.1639 73.9028 46.6359 73.9028C62.6427 73.9028 75.6345 54.0165 75.6345 44.9042C75.6345 35.4412 62.6427 15.9092 46.6359 15.9092C43.1639 15.9092 39.8372 16.3202 36.7513 17.1705C39.5537 12.5045 36.2057 5.8226 36.2057 5.8226C36.2057 5.8226 26.9233 12.8978 27.8374 21.422C21.6019 26.049 17.6516 33.7193 17.6516 44.9042C17.6516 45.2231 17.6445 45.5349 17.6516 45.8466Z" fill="#333333" stroke="black" stroke-width="1.41716" stroke-linecap="round" stroke-linejoin="round"/>
<path d="M42.3911 46.1936C46.8233 46.1901 50.4228 49.7861 50.4228 54.2218C50.4228 58.6575 46.8233 62.2535 42.3911 62.25C37.9554 62.2535 34.3594 58.6575 34.3594 54.2218C34.3594 49.7861 37.9554 46.1901 42.3911 46.1936Z" fill="white" stroke="black" stroke-width="1.41716" stroke-linecap="round" stroke-linejoin="round"/>
<path d="M42.3911 27.5026C46.8233 27.5026 50.4228 31.0986 50.4228 35.5343C50.4228 39.97 46.8233 43.5625 42.3911 43.5625C37.9554 43.5625 34.3594 39.97 34.3594 35.5343C34.3594 31.0986 37.9554 27.5026 42.3911 27.5026Z" fill="white" stroke="black" stroke-width="1.41716" stroke-linecap="round" stroke-linejoin="round"/>
<path d="M43.8073 34.6467C45.2847 34.6467 46.4822 35.8442 46.4822 37.3216C46.4822 38.8025 45.2847 40 43.8073 40C42.3264 40 41.1289 38.8025 41.1289 37.3216C41.1289 35.8442 42.3264 34.6467 43.8073 34.6467Z" fill="black"/>
<path d="M43.8073 49.5373C45.2847 49.5373 46.4822 50.7348 46.4822 52.2122C46.4822 53.6931 45.2847 54.8906 43.8073 54.8906C42.3264 54.8906 41.1289 53.6931 41.1289 52.2122C41.1289 50.7348 42.3264 49.5373 43.8073 49.5373Z" fill="black"/>
<path d="M37.1367 19.1372L38.0791 19.7997C39.1668 19.7147 40.2757 19.6793 41.3988 19.6793C57.4056 19.6793 70.3938 39.2112 70.3938 48.6743C70.3938 56.0116 61.9795 70.3213 50.3446 75.625C64.6047 72.9253 75.6338 55.3703 75.6338 46.9701C75.6338 37.5071 62.642 17.9751 46.6352 17.9751C43.3084 17.9751 40.1127 18.3542 37.1367 19.1372Z" fill="black" fill-opacity="0.31373"/>
<path d="M65.2887 39.0224C66.6952 39.8338 67.3577 41.3253 66.7625 42.3528C66.1708 43.3767 64.5482 43.5503 63.1417 42.7389C61.7351 41.9276 61.0726 40.4361 61.6678 39.4086C62.2595 38.3847 63.8786 38.2111 65.2887 39.0224Z" fill="black"/>
<path d="M65.2887 50.6217C66.6952 49.8104 67.3577 48.3189 66.7625 47.2914C66.1708 46.2675 64.5482 46.0939 63.1417 46.9053C61.7351 47.7166 61.0726 49.2081 61.6678 50.2356C62.2595 51.2595 63.8786 51.4331 65.2887 50.6217Z" fill="black"/>
<path d="M75.2621 71.5213C75.1381 72.6905 75.9848 73.7462 77.1539 73.8702C77.3382 73.888 77.5224 73.8738 77.6996 73.849C77.7952 74.8339 78.5817 75.6559 79.6056 75.7621C80.7712 75.8826 81.8164 75.0252 81.9404 73.8561C81.9687 73.5904 81.9404 73.3388 81.8766 73.0944C82.9997 73.1546 83.9953 72.322 84.1122 71.1918C84.2362 70.0227 83.3788 68.9775 82.2097 68.8535C81.9156 68.8252 81.6286 68.8535 81.3664 68.9315C81.2035 68.0209 80.4559 67.2805 79.4887 67.1777C78.3196 67.0573 77.2744 67.9111 77.1539 69.0803C77.1327 69.268 77.1362 69.4523 77.161 69.6294C76.1761 69.7251 75.3683 70.4974 75.2621 71.5213ZM79.4781 71.4186C79.6233 71.4044 79.7651 71.3831 79.8997 71.3406C79.9103 71.4009 79.921 71.4611 79.9351 71.5213C79.7863 71.5142 79.634 71.5178 79.4887 71.5426C79.4852 71.5001 79.4852 71.4575 79.4781 71.4186Z" fill="#FFFF00" stroke="black" stroke-width="1.41716" stroke-linecap="round" stroke-linejoin="round"/>
</g>
</g>
<defs>
<clipPath id="clip0_394_11498">
<rect width="90" height="90" fill="white" transform="matrix(0 -1 1 0 0 90)"/>
</clipPath>
</defs>
</svg>
