<svg width="90" height="90" viewBox="0 0 90 90" fill="none" xmlns="http://www.w3.org/2000/svg">
<g clip-path="url(#clip0_394_11582)">
<mask id="mask0_394_11582" style="mask-type:luminance" maskUnits="userSpaceOnUse" x="0" y="0" width="90" height="90">
<path d="M0 0L0 90H90V0H0Z" fill="white"/>
</mask>
<g mask="url(#mask0_394_11582)">
<path d="M90 45C90 20.1472 69.8528 0 45 0C20.1472 0 0 20.1472 0 45C0 69.8528 20.1472 90 45 90C69.8528 90 90 69.8528 90 45Z" fill="#007100"/>
<path d="M44.5414 17.8451C44.5414 13.4448 41.2022 9.8777 37.0832 9.8777C32.9641 9.8777 29.625 13.4448 29.625 17.8451C29.625 22.2454 32.9641 25.8125 37.0832 25.8125C41.2022 25.8125 44.5414 22.2454 44.5414 17.8451Z" fill="#E1C725" stroke="#E1C725" stroke-width="0.991497" stroke-linecap="round" stroke-linejoin="round"/>
<path d="M58.2027 15.3158C58.2027 11.1235 54.1786 7.72515 49.2146 7.72515C44.2507 7.72515 40.2266 11.1235 40.2266 15.3158C40.2266 19.5079 44.2507 22.9062 49.2146 22.9062C54.1786 22.9062 58.2027 19.5079 58.2027 15.3158Z" fill="#E1C725" stroke="#E1C725" stroke-width="0.991497" stroke-linecap="round" stroke-linejoin="round"/>
<path d="M43.8319 72.3545C43.8319 67.761 40.8597 64.0372 37.1933 64.0372C33.5269 64.0372 30.5547 67.761 30.5547 72.3545C30.5547 76.9481 33.5269 80.6719 37.1933 80.6719C40.8597 80.6719 43.8319 76.9481 43.8319 72.3545Z" fill="#E1C725" stroke="#E1C725" stroke-width="0.991497" stroke-linecap="round" stroke-linejoin="round"/>
<path d="M58.1457 73.376C58.1457 68.3068 54.5253 64.1973 50.0592 64.1973C45.5931 64.1973 41.9727 68.3068 41.9727 73.376C41.9727 78.4453 45.5931 82.5547 50.0592 82.5547C54.5253 82.5547 58.1457 78.4453 58.1457 73.376Z" fill="#E1C725" stroke="#E1C725" stroke-width="0.991497" stroke-linecap="round" stroke-linejoin="round"/>
<path d="M49.4544 77.5861C49.8931 77.1524 50.6152 77.3497 50.9778 77.774C51.6262 78.5329 51.2781 79.6621 50.5305 80.2138C49.3301 81.0996 47.6428 80.5637 46.8424 79.4181C45.6489 77.7102 46.4389 75.3947 48.1189 74.3253C49.703 73.317 51.785 73.4372 53.344 74.4308" stroke="#BFB026" stroke-width="1.6525" stroke-linecap="round" stroke-linejoin="round"/>
<path fill-rule="evenodd" clip-rule="evenodd" d="M16.1169 1.65068C17.9117 9.20708 13.6212 19.5084 10.5074 31.5079C8.46039 39.3962 11.463 60.5092 11.463 60.5092C16.6189 61.314 3.8152 39.8412 13.6784 39.7355C13.6784 39.7355 33.2657 28.8596 28.9868 13.7905C27.6355 9.03148 25.8529 4.98828 20.6754 1.43218C19.5027 0.626679 15.9833 1.08848 16.1169 1.65068Z" fill="#281111" stroke="black" stroke-width="0.330499"/>
<path d="M38.4937 74.3886C38.9771 73.8762 39.7727 74.1093 40.1723 74.6106C40.8868 75.5071 40.5032 76.8412 39.6795 77.4929C38.3567 78.5393 36.4976 77.9062 35.6156 76.5529C34.3005 74.5352 35.171 71.7997 37.0222 70.5363C38.7676 69.3451 41.0617 69.4872 42.7796 70.6609" stroke="#BFB026" stroke-width="1.6525" stroke-linecap="round" stroke-linejoin="round"/>
<path d="M80.0855 46.2639C80.0855 32.3005 65.5794 20.9809 47.6853 20.9809C29.7912 20.9809 15.2852 32.3005 15.2852 46.2639C15.2852 60.2273 29.7912 71.5469 47.6853 71.5469C65.5794 71.5469 80.0855 60.2273 80.0855 46.2639Z" fill="#DE1313" stroke="#DE1313" stroke-width="1.04635" stroke-linecap="round" stroke-linejoin="round"/>
<path d="M66.9826 66.5945C66.9826 60.5241 62.4149 55.6031 56.7804 55.6031C51.1458 55.6031 46.5781 60.5241 46.5781 66.5945C46.5781 72.6649 51.1458 77.5859 56.7804 77.5859C62.4149 77.5859 66.9826 72.6649 66.9826 66.5945Z" fill="#DE1313" stroke="#DE1313" stroke-width="0.991497" stroke-linecap="round" stroke-linejoin="round"/>
<path d="M48.6028 11.8279C49.0415 12.2616 49.7636 12.0643 50.1262 11.6399C50.7747 10.8811 50.4265 9.75181 49.679 9.20021C48.4785 8.31441 46.7913 8.85031 45.9908 9.99581C44.7973 11.7038 45.5873 14.0193 47.2674 15.0887C48.8514 16.097 50.9334 15.9768 52.4925 14.9833" stroke="#BFB026" stroke-width="1.6525" stroke-linecap="round" stroke-linejoin="round"/>
<path d="M68.5082 23.4791C68.5082 17.8756 63.599 13.3331 57.5432 13.3331C51.4873 13.3331 46.5781 17.8756 46.5781 23.4791C46.5781 29.0825 51.4873 33.625 57.5432 33.625C63.599 33.625 68.5082 29.0825 68.5082 23.4791Z" fill="#DE1313" stroke="#DE1313" stroke-width="0.991497" stroke-linecap="round" stroke-linejoin="round"/>
<path d="M59.077 52.2263C59.077 48.0235 55.659 44.6166 51.4428 44.6166C47.2265 44.6166 43.8086 48.0235 43.8086 52.2263C43.8086 56.429 47.2265 59.8359 51.4428 59.8359C55.659 59.8359 59.077 56.429 59.077 52.2263Z" fill="#DE1313" stroke="#DE1313" stroke-width="1.17424" stroke-linecap="round" stroke-linejoin="round"/>
<path d="M50.9194 59.7706C50.9194 54.8417 47.2482 50.846 42.7195 50.846C38.1908 50.846 34.5195 54.8417 34.5195 59.7706C34.5195 64.6996 38.1908 68.6953 42.7195 68.6953C47.2482 68.6953 50.9194 64.6996 50.9194 59.7706Z" fill="#E1C725" stroke="#E1C725" stroke-width="0.991497" stroke-linecap="round" stroke-linejoin="round"/>
<path d="M58.5335 36.3436C58.5335 32.4861 55.1017 29.359 50.8683 29.359C46.6349 29.359 43.2031 32.4861 43.2031 36.3436C43.2031 40.201 46.6349 43.3281 50.8683 43.3281C55.1017 43.3281 58.5335 40.201 58.5335 36.3436Z" fill="#DE1313" stroke="#DE1313" stroke-width="1.11514" stroke-linecap="round" stroke-linejoin="round"/>
<path d="M38.2473 14.453C38.6861 14.8867 39.4081 14.6894 39.7707 14.265C40.4192 13.5062 40.0711 12.377 39.3235 11.8253C38.123 10.9395 36.4358 11.4754 35.6353 12.6209C34.4419 14.3289 35.2319 16.6444 36.9119 17.7138C38.496 18.7221 40.5779 18.6018 42.137 17.6083" stroke="#BFB026" stroke-width="1.6525" stroke-linecap="round" stroke-linejoin="round"/>
<path d="M51.3449 27.2322C51.3449 22.4589 47.4175 18.5893 42.5728 18.5893C37.7282 18.5893 33.8008 22.4589 33.8008 27.2322C33.8008 32.0055 37.7282 35.875 42.5728 35.875C47.4175 35.875 51.3449 32.0055 51.3449 27.2322Z" fill="#E1C725" stroke="#E1C725" stroke-width="0.991497" stroke-linecap="round" stroke-linejoin="round"/>
<path d="M60.9008 53.6965C60.9008 49.0071 57.2381 45.2055 52.7199 45.2055C48.2018 45.2055 44.5391 49.0071 44.5391 53.6965C44.5391 58.386 48.2018 62.1875 52.7199 62.1875C57.2381 62.1875 60.9008 58.386 60.9008 53.6965Z" fill="#E1C725" stroke="#E1C725" stroke-width="1.01699" stroke-linecap="round" stroke-linejoin="round"/>
<path d="M59.9184 54.4621C59.9184 49.8029 56.5054 46.0258 52.2951 46.0258C48.0849 46.0258 44.6719 49.8029 44.6719 54.4621C44.6719 59.1214 48.0849 62.8984 52.2951 62.8984C56.5054 62.8984 59.9184 59.1214 59.9184 54.4621Z" fill="#DE1313" stroke="#DE1313" stroke-width="0.978553" stroke-linecap="round" stroke-linejoin="round"/>
<path d="M50.7749 61.3331C50.7749 56.4042 47.1037 52.4085 42.575 52.4085C38.0462 52.4085 34.375 56.4042 34.375 61.3331C34.375 66.2621 38.0462 70.2578 42.575 70.2578C47.1037 70.2578 50.7749 66.2621 50.7749 61.3331Z" fill="#F1DB0D" stroke="#F1DB0D" stroke-width="0.991497" stroke-linecap="round" stroke-linejoin="round"/>
<path d="M60.8991 35.3124C60.8991 30.7775 57.3269 27.1013 52.9203 27.1013C48.5137 27.1013 44.9414 30.7775 44.9414 35.3124C44.9414 39.8472 48.5137 43.5234 52.9203 43.5234C57.3269 43.5234 60.8991 39.8472 60.8991 35.3124Z" fill="#E1C725" stroke="#E1C725" stroke-width="1.01699" stroke-linecap="round" stroke-linejoin="round"/>
<path d="M60.4873 36.2871C60.4873 31.7815 57.1585 28.1289 53.0522 28.1289C48.946 28.1289 45.6172 31.7815 45.6172 36.2871C45.6172 40.7928 48.946 44.4453 53.0522 44.4453C57.1585 44.4453 60.4873 40.7928 60.4873 36.2871Z" fill="#DE1313"/>
<path fill-rule="evenodd" clip-rule="evenodd" d="M16.3356 88.3481C18.1305 80.7917 13.84 70.4904 10.7261 58.4909C8.67915 50.6026 11.6818 29.4896 11.6818 29.4896C16.8377 28.6848 10.2585 62.8778 20.1217 62.9836C20.1217 62.9836 33.4845 61.1392 29.2056 76.2083C27.8542 80.9673 26.0717 85.0105 20.8942 88.5666C19.7214 89.3721 16.2021 88.9103 16.3356 88.3481Z" fill="#281111" stroke="black" stroke-width="0.330499"/>
<path d="M45.2052 61.0495C45.2052 59.3251 43.7742 57.9271 42.0089 57.9271C40.2436 57.9271 38.8125 59.3251 38.8125 61.0495C38.8125 62.7739 40.2436 64.1719 42.0089 64.1719C43.7742 64.1719 45.2052 62.7739 45.2052 61.0495Z" fill="#281111" stroke="black" stroke-width="0.991497" stroke-linecap="round" stroke-linejoin="round"/>
<path d="M51.4894 25.6697C51.4894 20.8964 47.562 17.0268 42.7174 17.0268C37.8727 17.0268 33.9453 20.8964 33.9453 25.6697C33.9453 30.443 37.8727 34.3125 42.7174 34.3125C47.562 34.3125 51.4894 30.443 51.4894 25.6697Z" fill="#F1DB0D" stroke="#F1DB0D" stroke-width="0.991497" stroke-linecap="round" stroke-linejoin="round"/>
<path d="M45.2599 28.7787C45.2599 27.0989 43.8166 25.7371 42.0362 25.7371C40.2558 25.7371 38.8125 27.0989 38.8125 28.7787C38.8125 30.4585 40.2558 31.8203 42.0362 31.8203C43.8166 31.8203 45.2599 30.4585 45.2599 28.7787Z" fill="#281111" stroke="black" stroke-width="0.991497" stroke-linecap="round" stroke-linejoin="round"/>
<path fill-rule="evenodd" clip-rule="evenodd" d="M8.80821 55.9595C8.80821 56.4979 11.8133 66.188 11.8133 66.188L14.7092 63.2271L18.8617 74.1016L23.2875 67.5338L29.1338 66.6725L25.2545 60.0509L31.7018 59.2972L25.4184 53.8062L31.1008 50.7915L24.8174 44.9774L31.374 38.625L25.3637 36.2025L32.1389 30.1731L25.8555 28.8811L28.8606 22.5287L21.5035 25.5029L23.6984 19.4951L18.519 18.2408L14.9278 26.62L11.6494 24.4667L8.42574 32.0573L4 37.2792L6.9505 44.6006L4 52.6218L8.80821 55.9595Z" fill="#F1DB0D"/>
<path d="M30.6641 70.8203C32.8678 66.6353 32.8937 61.6993 33.2305 57.0611C33.0928 54.7726 32.7921 52.391 31.593 50.417" stroke="#463B3B" stroke-width="7.60148" stroke-linecap="round" stroke-linejoin="round"/>
<path d="M31.1562 19.1827C33.36 23.3677 33.3859 28.3037 33.7227 32.9419C33.585 35.2304 33.2844 37.612 32.0853 39.5859" stroke="#463B3B" stroke-width="7.60148" stroke-linecap="round" stroke-linejoin="round"/>
<path d="M34.1954 69.5894C34.1954 66.2301 31.7241 63.5069 28.6758 63.5069C25.6274 63.5069 23.1562 66.2301 23.1562 69.5894C23.1562 72.9486 25.6274 75.6719 28.6758 75.6719C31.7241 75.6719 34.1954 72.9486 34.1954 69.5894Z" fill="#463B3B" stroke="#463B3B" stroke-width="1.04361" stroke-linecap="round" stroke-linejoin="round"/>
<path d="M34.2109 20.8862C34.2109 17.527 31.7397 14.8037 28.6914 14.8037C25.643 14.8037 23.1719 17.527 23.1719 20.8862C23.1719 24.2455 25.643 26.9688 28.6914 26.9688C31.7397 26.9688 34.2109 24.2455 34.2109 20.8862Z" fill="#463B3B" stroke="#463B3B" stroke-width="1.04361" stroke-linecap="round" stroke-linejoin="round"/>
<path d="M57.208 53.047C57.208 51.1271 55.9678 49.5706 54.438 49.5706C52.9082 49.5706 51.668 51.1271 51.668 53.047C51.668 54.967 52.9082 56.5234 54.438 56.5234C55.9678 56.5234 57.208 54.967 57.208 53.047Z" fill="#281111" stroke="black" stroke-width="1.02556" stroke-linecap="round" stroke-linejoin="round"/>
<path d="M57.0791 35.7309C57.0791 33.891 55.8389 32.3994 54.3091 32.3994C52.7792 32.3994 51.5391 33.891 51.5391 35.7309C51.5391 37.5709 52.7792 39.0625 54.3091 39.0625C55.8389 39.0625 57.0791 37.5709 57.0791 35.7309Z" fill="#281111" stroke="black" stroke-width="1.02556" stroke-linecap="round" stroke-linejoin="round"/>
<path d="M62.8164 19.5382V70.8698C62.8164 72.0506 66.4387 73.0078 70.907 73.0078C75.3753 73.0078 78.9976 72.0506 78.9976 70.8698V19.5382C78.9976 18.3574 75.3753 17.4002 70.907 17.4002C66.4387 17.4002 62.8164 18.3574 62.8164 19.5382Z" fill="#DE1313" stroke="#DE1313" stroke-width="0.993784" stroke-linecap="round" stroke-linejoin="round"/>
<path d="M63.1797 32.4928V37.0616C63.1797 37.1225 64.2733 37.1719 65.6223 37.1719H65.9195C67.2684 37.1719 68.362 37.1225 68.362 37.0616V32.4928C68.362 32.4319 67.2684 32.3825 65.9195 32.3825H65.6223C64.2733 32.3825 63.1797 32.4319 63.1797 32.4928Z" fill="#F1DB0D" stroke="#E1C725" stroke-width="0.660998" stroke-linecap="round" stroke-linejoin="round"/>
<path d="M70.5859 53.3125V57.5919C70.5859 57.7137 71.6457 57.8125 72.9531 57.8125C74.2604 57.8125 75.3202 57.7137 75.3202 57.5919V53.3125C75.3202 53.1907 74.2604 53.0919 72.9531 53.0919C71.6457 53.0919 70.5859 53.1907 70.5859 53.3125Z" fill="#F1DB0D" stroke="#E1C725" stroke-width="0.660998" stroke-linecap="round" stroke-linejoin="round"/>
<path d="M70.2812 32.5484V36.8966C70.2812 37.0184 71.3749 37.1172 72.7239 37.1172H73.0211C74.3701 37.1172 75.4637 37.0184 75.4637 36.8966V32.5484C75.4637 32.4266 74.3701 32.3278 73.0211 32.3278H72.7239C71.3749 32.3278 70.2812 32.4266 70.2812 32.5484Z" fill="#F1DB0D" stroke="#E1C725" stroke-width="0.660998" stroke-linecap="round" stroke-linejoin="round"/>
<path d="M70.2617 26.2474V30.4353C70.2617 30.5055 71.2747 30.5625 72.5243 30.5625H73.2164C74.466 30.5625 75.479 30.5055 75.479 30.4353V26.2474C75.479 26.1772 74.466 26.1202 73.2164 26.1202H72.5243C71.2747 26.1202 70.2617 26.1772 70.2617 26.2474Z" fill="#F1DB0D" stroke="#E1C725" stroke-width="0.660998" stroke-linecap="round" stroke-linejoin="round"/>
<path d="M53.8554 40.7249C50.5137 40.7249 47.8047 42.4042 47.8047 44.4757C47.8047 46.5473 50.5137 48.2266 53.8554 48.2266C57.1972 48.2266 59.9062 46.5473 59.9062 44.4757C59.9062 42.4042 57.1972 40.7249 53.8554 40.7249Z" fill="#DE1313" stroke="#DE1313" stroke-width="0.6475" stroke-linecap="round" stroke-linejoin="round"/>
<path d="M58.4492 40.9132V48.1161C58.4492 48.9236 59.1136 49.5781 59.9331 49.5781C60.7526 49.5781 61.4169 48.9236 61.4169 48.1161V40.9132C61.4169 40.1057 60.7526 39.4512 59.9331 39.4512C59.1136 39.4512 58.4492 40.1057 58.4492 40.9132Z" fill="#DE1313" stroke="#DE1313" stroke-width="0.660998" stroke-linecap="round" stroke-linejoin="round"/>
<path d="M58.6992 38.2416V49.6016H59.8272V38.2416H58.6992Z" fill="#E1C725" stroke="#E1C725" stroke-width="1.52187" stroke-linecap="round" stroke-linejoin="round"/>
<path d="M63.1797 39.1725V43.7413C63.1797 43.8022 64.2733 43.8516 65.6223 43.8516H65.9195C67.2684 43.8516 68.362 43.8022 68.362 43.7413V39.1725C68.362 39.1116 67.2684 39.0622 65.9195 39.0622H65.6223C64.2733 39.0622 63.1797 39.1116 63.1797 39.1725Z" fill="#F1DB0D" stroke="#E1C725" stroke-width="0.660998" stroke-linecap="round" stroke-linejoin="round"/>
<path d="M63.3164 46.2975V50.8663C63.3164 50.9272 64.41 50.9766 65.759 50.9766H66.0561C67.4051 50.9766 68.4987 50.9272 68.4987 50.8663V46.2975C68.4987 46.2366 67.4051 46.1872 66.0561 46.1872H65.759C64.41 46.1872 63.3164 46.2366 63.3164 46.2975Z" fill="#F1DB0D" stroke="#E1C725" stroke-width="0.660998" stroke-linecap="round" stroke-linejoin="round"/>
<path d="M63.3164 53.11V57.6788C63.3164 57.7397 64.41 57.7891 65.759 57.7891H66.0561C67.4051 57.7891 68.4987 57.7397 68.4987 57.6788V53.11C68.4987 53.0491 67.4051 52.9997 66.0561 52.9997H65.759C64.41 52.9997 63.3164 53.0491 63.3164 53.11Z" fill="#F1DB0D" stroke="#E1C725" stroke-width="0.660998" stroke-linecap="round" stroke-linejoin="round"/>
<path d="M63.3867 59.7193V64.2881C63.3867 64.3491 64.4803 64.3984 65.8293 64.3984H66.1265C67.4755 64.3984 68.569 64.3491 68.569 64.2881V59.7193C68.569 59.6584 67.4755 59.6091 66.1265 59.6091H65.8293C64.4803 59.6091 63.3867 59.6584 63.3867 59.7193Z" fill="#F1DB0D" stroke="#E1C725" stroke-width="0.660998" stroke-linecap="round" stroke-linejoin="round"/>
<path d="M63.4531 66.024V70.5928C63.4531 70.6537 64.5467 70.7031 65.8957 70.7031H66.1929C67.5418 70.7031 68.6354 70.6537 68.6354 70.5928V66.024C68.6354 65.9631 67.5418 65.9137 66.1929 65.9137H65.8957C64.5467 65.9137 63.4531 65.9631 63.4531 66.024Z" fill="#F1DB0D" stroke="#E1C725" stroke-width="0.660998" stroke-linecap="round" stroke-linejoin="round"/>
<path d="M63.2461 26.1959V30.7647C63.2461 30.8256 64.3397 30.875 65.6887 30.875H65.9858C67.3348 30.875 68.4284 30.8256 68.4284 30.7647V26.1959C68.4284 26.135 67.3348 26.0856 65.9858 26.0856H65.6887C64.3397 26.0856 63.2461 26.135 63.2461 26.1959Z" fill="#F1DB0D" stroke="#E1C725" stroke-width="0.660998" stroke-linecap="round" stroke-linejoin="round"/>
<path d="M63.3164 19.7037V24.2725C63.3164 24.3334 64.41 24.3828 65.759 24.3828H66.0561C67.4051 24.3828 68.4987 24.3334 68.4987 24.2725V19.7037C68.4987 19.6428 67.4051 19.5934 66.0561 19.5934H65.759C64.41 19.5934 63.3164 19.6428 63.3164 19.7037Z" fill="#F1DB0D" stroke="#E1C725" stroke-width="0.660998" stroke-linecap="round" stroke-linejoin="round"/>
<path d="M70.1562 39.1725V43.7413C70.1562 43.8022 71.2499 43.8516 72.5989 43.8516H72.8961C74.2451 43.8516 75.3387 43.8022 75.3387 43.7413V39.1725C75.3387 39.1116 74.2451 39.0622 72.8961 39.0622H72.5989C71.2499 39.0622 70.1562 39.1116 70.1562 39.1725Z" fill="#F1DB0D" stroke="#E1C725" stroke-width="0.660998" stroke-linecap="round" stroke-linejoin="round"/>
<path d="M70.3633 59.7193V64.2881C70.3633 64.3491 71.4569 64.3984 72.8059 64.3984H73.103C74.452 64.3984 75.5456 64.3491 75.5456 64.2881V59.7193C75.5456 59.6584 74.452 59.6091 73.103 59.6091H72.8059C71.4569 59.6091 70.3633 59.6584 70.3633 59.7193Z" fill="#F1DB0D" stroke="#E1C725" stroke-width="0.660998" stroke-linecap="round" stroke-linejoin="round"/>
<path d="M70.4297 66.024V70.5928C70.4297 70.6537 71.5233 70.7031 72.8723 70.7031H73.1694C74.5184 70.7031 75.612 70.6537 75.612 70.5928V66.024C75.612 65.9631 74.5184 65.9137 73.1694 65.9137H72.8723C71.5233 65.9137 70.4297 65.9631 70.4297 66.024Z" fill="#F1DB0D" stroke="#E1C725" stroke-width="0.660998" stroke-linecap="round" stroke-linejoin="round"/>
<path d="M70.293 19.7037V24.2725C70.293 24.3334 71.3865 24.3828 72.7355 24.3828H73.0327C74.3817 24.3828 75.4753 24.3334 75.4753 24.2725V19.7037C75.4753 19.6428 74.3817 19.5934 73.0327 19.5934H72.7355C71.3865 19.5934 70.293 19.6428 70.293 19.7037Z" fill="#F1DB0D" stroke="#E1C725" stroke-width="0.660998" stroke-linecap="round" stroke-linejoin="round"/>
<path d="M70.3633 46.2975V50.8663C70.3633 50.9272 71.4569 50.9766 72.8059 50.9766H73.103C74.452 50.9766 75.5456 50.9272 75.5456 50.8663V46.2975C75.5456 46.2366 74.452 46.1872 73.103 46.1872H72.8059C71.4569 46.1872 70.3633 46.2366 70.3633 46.2975Z" fill="#F1DB0D" stroke="#E1C725" stroke-width="0.660998" stroke-linecap="round" stroke-linejoin="round"/>
</g>
</g>
<defs>
<clipPath id="clip0_394_11582">
<rect width="90" height="90" fill="white" transform="matrix(0 -1 1 0 0 90)"/>
</clipPath>
</defs>
</svg>
