<svg width="90" height="90" viewBox="0 0 90 90" fill="none" xmlns="http://www.w3.org/2000/svg">
<g clip-path="url(#clip0_394_11673)">
<mask id="mask0_394_11673" style="mask-type:luminance" maskUnits="userSpaceOnUse" x="0" y="0" width="90" height="90">
<path d="M0 0L0 90H90V0H0Z" fill="white"/>
</mask>
<g mask="url(#mask0_394_11673)">
<path d="M89.25 45C89.25 20.5614 69.4386 0.75 45 0.75C20.5614 0.75 0.75 20.5614 0.75 45C0.75 69.4386 20.5614 89.25 45 89.25C69.4386 89.25 89.25 69.4386 89.25 45Z" fill="white" stroke="black" stroke-width="1.5"/>
<path d="M79.4403 0.00229645C78.1124 0.0183964 76.744 0.319604 75.7111 1.1656C74.4189 2.23 74.5045 3.7082 75.3161 4.9727C75.6445 5.483 75.9824 5.975 76.1276 6.5682C76.3037 7.2923 75.8468 7.9843 75.4493 8.5614C74.5022 9.9292 73.1314 10.973 72.1842 12.3386C69.7021 15.9227 67.2342 19.493 64.0595 22.5552C60.9467 25.5576 56.9558 27.5577 53.812 30.5349C52.0843 32.1741 50.6921 34.1673 49.2237 36.0156C48.3503 37.1168 47.4817 38.2203 46.6131 39.3238C44.8377 37.91 43.1005 36.4501 41.4988 34.8248C38.0457 31.3211 35.2471 27.2589 31.7535 23.7897C30.2375 22.2839 28.4717 21.0172 26.7273 19.7688C24.8901 18.4492 23.11 17.0652 21.2561 15.7732C20.259 15.0789 19.2927 14.3456 18.4003 13.5294C17.7221 12.9087 16.9462 12.2489 16.4941 11.4466C16.2751 11.0603 16.3537 10.6879 16.5488 10.3132C16.8701 9.7039 17.2509 9.1476 17.5126 8.5062C18.762 5.4509 16.4251 1.8966 13.1885 1.1932C10.7087 0.652899 7.43887 1.138 6.30845 3.6186C5.46838 5.4669 6.50836 7.2463 8.04334 8.3223C5.99432 7.7659 3.68589 7.3107 1.98194 8.5591C0.751574 9.4557 0.0852246 11.1569 0.0066906 12.6489C-0.000448863 12.8145 -0.00282868 12.98 0.00431078 13.1409C0.00431078 13.157 0.0066906 13.1731 0.0066906 13.1892C0.0828448 14.7226 0.980037 16.0767 2.24848 16.9595C3.52168 17.8446 5.31369 18.2147 6.86533 18.0584C7.91245 17.9526 8.89769 17.6216 9.92102 17.4101C10.5969 17.2721 11.406 16.8859 11.9558 17.1572C12.6388 17.4951 13.198 18.1917 13.7311 18.7044C14.6069 19.5435 15.4874 20.3781 16.3632 21.2172C17.9719 22.7529 19.6307 24.2357 21.4655 25.5208C23.3575 26.8451 25.4541 27.8934 27.4246 29.1026C29.426 30.3303 31.3085 31.7465 32.872 33.4753C34.3427 35.1029 35.4636 36.995 36.7487 38.7537C38.1933 40.7285 39.9401 42.5079 41.5536 44.354C41.744 44.5724 41.9367 44.7931 42.1247 45.0115C41.337 46.0047 40.5469 46.9978 39.752 47.9864C38.3051 49.7865 37.0843 51.6693 35.8587 53.6119C34.664 55.5017 33.3004 57.1983 31.6059 58.6973C29.8472 60.2514 27.8149 61.4951 25.8325 62.7641C23.9239 63.9895 22.1485 65.2976 20.5041 66.8448C18.812 68.4357 17.2675 70.1691 15.654 71.8359C15.1162 72.3899 14.6164 73.0451 13.9524 73.4658C13.3646 73.8406 12.3223 73.3601 11.6845 73.2451C10.723 73.0704 9.81631 72.7876 8.83582 72.7164C8.04334 72.6589 7.3056 72.7853 6.54167 72.9669C4.90198 73.3555 3.52406 74.4314 2.79346 75.8935C2.01526 77.4568 2.27228 79.204 2.99336 80.726C3.62878 82.0617 4.664 83.0203 6.20136 83.2042C7.4817 83.356 8.76919 83.0847 9.98765 82.7284C10.1019 82.6939 10.2185 82.6594 10.3327 82.6249C8.52644 84.0618 7.74586 86.4573 9.43077 88.4091C10.2994 89.4161 11.6797 89.9034 13.11 89.9862C13.4122 90.0046 13.7168 90.0046 14.0191 89.9862C15.0995 89.9218 16.1538 89.6414 16.9819 89.1862C18.4051 88.4068 19.4332 87.0228 19.902 85.5308C20.4041 83.9399 19.9496 82.395 19.1095 80.9995C18.8763 80.611 18.5645 80.234 18.4907 79.7811C18.3932 79.1926 18.9596 78.5994 19.3094 78.1902C20.8253 76.4085 22.6816 74.9716 24.5617 73.5647C25.3922 72.9417 26.1514 72.1968 26.9653 71.5462C27.8815 70.8128 28.8073 70.0932 29.7164 69.3553C31.4822 67.923 33.0838 66.3942 34.5236 64.6562C37.6721 60.8583 40.4017 56.7339 43.8358 53.1613C44.7735 52.1843 45.7635 51.2647 46.7773 50.3704C48.3979 52.2372 50.0233 54.1016 51.6654 55.9523C54.4926 59.1364 58.179 61.1778 61.7059 63.5458C65.3851 66.0172 68.2718 69.307 70.942 72.7416C72.1128 74.2498 73.2075 75.728 74.5902 77.0614C75.5517 77.9856 77.2985 79.3811 77.0748 80.8501C76.8796 82.1352 75.5588 82.9491 75.7111 84.3376C75.8848 85.9124 77.5341 86.7355 78.9429 87.0412C80.1614 87.3056 81.6892 87.3125 82.8363 86.7952C84.7282 85.94 84.5045 83.8457 83.9239 82.287C83.7454 81.8111 83.5431 81.3444 83.3575 80.8731C85.021 81.7375 87.1795 81.7789 88.6859 80.565C89.6093 79.8202 89.9995 78.6592 89.9995 77.5166C89.9995 77.1327 89.9567 76.751 89.8734 76.3901C89.5426 74.9395 87.9672 73.8107 86.4703 73.6727C85.8896 73.6176 85.3065 73.6176 84.7306 73.7279C83.9834 73.8704 83.3265 74.3118 82.6483 74.6268C82.2651 74.8038 81.9153 74.9441 81.5012 74.813C81.1752 74.7096 80.8777 74.5279 80.5945 74.3417C79.8306 73.836 79.2118 73.1164 78.6359 72.4267C77.5602 71.1393 76.6488 69.7507 75.4232 68.5851C73.6383 66.8885 71.9462 65.1022 70.2709 63.3067C67.1795 59.9916 64.2451 56.5753 61.3227 53.1223C58.8263 50.1727 56.2585 47.2507 53.3361 44.6827C53.5526 44.4804 53.7692 44.2758 53.9834 44.0689C57.2104 40.9492 59.9234 37.3651 62.6245 33.8247C65.4184 30.1648 68.3075 26.6014 71.3156 23.1023C72.772 21.4103 74.4427 19.8447 75.8158 18.0929C76.8391 16.7871 77.6649 15.3525 78.7644 14.0973C79.2666 13.5248 79.8449 12.9984 80.5469 12.6604C81.3084 12.2926 82.0985 12.8765 82.7887 13.2099C83.962 13.7754 85.4017 13.8444 86.6035 13.3133C88.2528 12.5823 89.0191 11.1914 88.9572 9.4695C88.9072 8.097 88.2099 6.8095 86.9629 6.1176C85.5231 5.3198 83.7311 5.5336 82.3389 6.3268C82.8625 4.8715 83.5812 3.3427 83.0338 1.8392C82.5269 0.443703 81.0752 0.0252964 79.7021 0.00229645C79.6569 -3.5523e-06 79.6116 0 79.5688 0C79.526 0 79.4831 -3.5523e-06 79.4403 0.00229645Z" fill="white"/>
<path d="M79.4422 0.00229645C78.1143 0.0183964 76.7459 0.319604 75.7131 1.1656C74.4208 2.23 74.5065 3.7082 75.318 4.9727C75.6464 5.483 75.9844 5.975 76.1295 6.5682C76.3056 7.2923 75.8487 7.9843 75.4513 8.5614C74.5041 9.9292 73.1333 10.973 72.1862 12.3386C69.704 15.9227 67.2361 19.493 64.0615 22.5552C60.9487 25.5576 56.9577 27.5577 53.814 30.5349C52.0862 32.1741 50.694 34.1673 49.2257 36.0156C48.3523 37.1168 47.4836 38.2203 46.615 39.3238C46.4841 39.4894 46.3532 39.6549 46.2223 39.8227C45.644 40.5561 45.0681 41.2895 44.4898 42.0228C43.852 42.8321 43.2143 43.639 42.5741 44.4459C42.4265 44.6345 42.2766 44.823 42.1267 45.0115C41.339 46.0047 40.5489 46.9978 39.754 47.9864C38.3071 49.7865 37.0862 51.6693 35.8606 53.6119C34.6659 55.5017 33.3023 57.1983 31.6079 58.6973C29.8492 60.2514 27.8168 61.4951 25.8344 62.7641C23.9258 63.9895 22.1505 65.2976 20.506 66.8448C18.814 68.4357 17.2695 70.1691 15.6559 71.8359C15.1181 72.3899 14.6183 73.0451 13.9544 73.4658C13.3666 73.8406 12.3242 73.3601 11.6864 73.2451C10.725 73.0704 9.81825 72.7876 8.83777 72.7164C8.04529 72.6589 7.30754 72.7853 6.54362 72.9669C4.90393 73.3555 3.52601 74.4314 2.79541 75.8935C2.0172 77.4568 2.27422 79.204 2.99531 80.726C3.63072 82.0617 4.66594 83.0203 6.20331 83.2042C7.48365 83.356 8.77113 83.0847 9.9896 82.7284C10.1038 82.6939 10.2204 82.6594 10.3347 82.6249C8.52839 84.0618 7.74781 86.4573 9.43272 88.4091C10.3014 89.4161 11.6817 89.9034 13.1119 89.9862C13.4142 90.0046 13.7188 90.0046 14.021 89.9862C15.1014 89.9218 16.1557 89.6414 16.9839 89.1862C18.407 88.4068 19.4351 87.0228 19.9039 85.5308C20.4061 83.9399 19.9515 82.395 19.1114 80.9995C18.8782 80.611 18.5665 80.234 18.4927 79.7811C18.3951 79.1926 18.9615 78.5994 19.3113 78.1902C20.8273 76.4085 22.6836 74.9716 24.5636 73.5647C25.3942 72.9417 26.1533 72.1968 26.9672 71.5462C27.8835 70.8128 28.8092 70.0932 29.7183 69.3553C31.4841 67.923 33.0857 66.3942 34.5255 64.6562C37.674 60.8583 40.4037 56.7339 43.8378 53.1613C44.7754 52.1843 45.7654 51.2647 46.7792 50.3704C46.9553 50.2118 47.1338 50.0577 47.3123 49.9037C49.1614 48.2967 51.07 46.7564 52.8787 45.1058C53.0334 44.9678 53.1857 44.8253 53.338 44.6827C53.5546 44.4804 53.7711 44.2758 53.9853 44.0689C57.2123 40.9492 59.9253 37.3651 62.6264 33.8247C65.4203 30.1648 68.3094 26.6014 71.3175 23.1023C72.774 21.4103 74.4446 19.8447 75.8178 18.0929C76.8411 16.7871 77.6669 15.3525 78.7664 14.0973C79.2685 13.5248 79.8468 12.9984 80.5489 12.6604C81.3104 12.2926 82.1005 12.8765 82.7906 13.2099C83.9639 13.7754 85.4037 13.8444 86.6055 13.3133C88.2547 12.5823 89.021 11.1914 88.9591 9.4695C88.9092 8.097 88.2119 6.8095 86.9649 6.1176C85.5251 5.3198 83.7331 5.5336 82.3409 6.3268C82.8644 4.8715 83.5831 3.3427 83.0358 1.8392C82.5289 0.443703 81.0772 0.0252964 79.704 0.00229645C79.6588 -3.5523e-06 79.6136 0 79.5708 0C79.5279 0 79.4851 -3.5523e-06 79.4422 0.00229645ZM82.2861 2.6438C82.4694 4.1565 81.5484 5.6899 81.1438 7.1084C81.1438 7.1061 81.1962 7.113 81.2771 7.1222C81.1676 7.2303 81.0629 7.3406 80.9653 7.4579C81.0462 7.359 81.7459 7.6395 81.903 7.4625C82.4146 6.8532 83.0167 6.3658 83.7592 6.0417C84.5636 5.6899 85.2871 5.7635 86.0558 6.1474C87.4789 6.8555 88.0239 8.4395 88.0215 9.8902C88.0215 10.7017 87.7764 11.4718 87.2814 12.1271C86.7697 12.8007 85.4608 13.7271 84.5517 13.5179C83.8378 13.3524 83.2047 12.9202 82.5336 12.6466C81.9767 12.419 81.3485 12.3524 80.7488 12.3845C79.3708 12.4627 78.388 13.4306 77.5622 14.4053C76.4984 15.656 75.694 17.0859 74.6636 18.3596C74.0091 19.1711 73.2238 19.9022 72.517 20.6769C71.6579 21.6218 70.8202 22.5851 69.9896 23.5552C68.4594 25.3415 66.9292 27.1301 65.456 28.9601C62.6383 32.4614 60.0372 36.1168 57.1624 39.5744C55.8059 41.2044 54.3804 42.7815 52.8478 44.2597C52.7859 44.3195 52.7264 44.3793 52.6645 44.4368C52.5765 44.5218 52.4884 44.6046 52.398 44.685C50.8273 46.1541 49.1162 47.4806 47.486 48.8807C47.2837 49.0554 47.0815 49.2301 46.8816 49.4048C46.7031 49.5612 46.5246 49.7175 46.3485 49.8761C45.0182 51.0578 43.7331 52.2785 42.5122 53.566C40.8202 55.3431 39.3304 57.2811 37.843 59.2168C36.3199 61.1985 34.8111 63.1917 33.2047 65.1137C31.7721 66.8264 30.0991 68.2931 28.3523 69.7001C26.6983 71.0335 25.0848 72.4681 23.3856 73.7417C21.5198 75.1418 19.7278 76.5947 18.2214 78.3649C17.8835 78.7626 17.5122 79.2431 17.5479 79.7857C17.5765 80.2202 17.9453 80.6455 18.1667 81.0041C19.0448 82.418 19.4089 83.9238 18.9615 85.5354C18.0191 88.9172 13.5617 91.3771 10.5822 88.6229C9.67308 87.7815 9.29707 86.5424 9.4708 85.3561C9.6826 83.8848 10.8344 82.756 12.1291 82.064C12.0339 82.0617 11.9363 82.0594 11.8411 82.0571C11.8387 82.0548 11.8387 82.0548 11.8363 82.0571C11.6222 82.0341 11.3532 81.9996 11.2223 82.0387C9.67546 82.5031 7.65262 83.5307 6.04624 82.9353C4.40178 82.3237 3.51649 80.2616 3.29517 78.7029C3.06432 77.0936 3.6926 75.4889 4.87299 74.3532C5.52506 73.7256 6.36275 73.3187 7.22901 73.052C8.67356 72.606 10.387 73.1417 11.8292 73.475C12.7216 73.6796 13.8854 73.9509 14.7635 73.544C15.2871 73.3026 15.694 72.7853 16.0748 72.3853C16.8958 71.5232 17.7193 70.6634 18.5379 69.7967C20.1229 68.1207 21.734 66.4701 23.5427 65.0125C25.4013 63.5136 27.517 62.3296 29.5017 60.9962C31.3199 59.7755 33.0143 58.4099 34.4756 56.8006C35.9629 55.1637 37.0339 53.2119 38.2095 51.3681C39.5017 49.3382 41.0891 47.5059 42.5907 45.6161C42.6003 45.6023 42.6122 45.5908 42.6217 45.577C42.7716 45.3908 42.9192 45.2023 43.0667 45.0138C44.3161 43.4413 45.556 41.8642 46.7983 40.2848C46.9315 40.117 47.0624 39.9515 47.1957 39.7836C47.2385 39.7285 47.2814 39.671 47.3266 39.6158C48.8973 37.618 50.4703 35.6248 52.06 33.6408C53.4737 31.8798 54.9134 30.2797 56.6983 28.8566C58.4023 27.498 60.2323 26.2933 61.9934 25.0082C63.7878 23.7024 65.3918 22.254 66.8792 20.6286C69.2923 17.994 71.2699 15.0215 73.2904 12.1064C74.5065 10.35 78.0048 8.3108 76.8125 5.8739C76.339 4.906 75.5179 4.1542 75.6274 3.0048C75.7654 1.5587 77.1362 0.657502 78.4475 0.275902C80.3085 -0.268998 82.0577 0.770199 82.2861 2.6438Z" fill="black"/>
<path d="M6.30845 3.619C5.46838 5.4674 6.50836 7.2468 8.04334 8.3227C5.99432 7.7663 3.68589 7.3111 1.98194 8.5595C0.751574 9.4561 0.0852246 11.1573 0.0066906 12.6493C-0.000448863 12.8149 -0.00282868 12.9804 0.00431078 13.1413C0.00431078 13.1574 0.0066906 13.1735 0.0066906 13.1896C0.0828448 14.723 0.980037 16.0771 2.24848 16.9599C3.52168 17.845 5.31369 18.2151 6.86533 18.0588C7.91245 17.9531 8.89769 17.622 9.92102 17.4105C10.5969 17.2726 11.406 16.8863 11.9558 17.1576C12.6388 17.4956 13.198 18.1922 13.7311 18.7048C14.6069 19.544 15.4874 20.3785 16.3632 21.2176C17.9719 22.7533 19.6307 24.2361 21.4655 25.5213C23.3575 26.8455 25.4541 27.8938 27.4246 29.1031C29.426 30.3307 31.3085 31.7469 32.872 33.4757C34.3427 35.1034 35.4636 36.9954 36.7487 38.7541C38.1933 40.7289 39.9401 42.5083 41.5536 44.3544C41.744 44.5728 41.9367 44.7935 42.1247 45.0119C42.2913 45.2004 42.4555 45.3889 42.6197 45.5775C43.8644 47.0097 45.1043 48.4443 46.3465 49.8765C46.4917 50.0421 46.6345 50.2053 46.7773 50.3708C48.3979 52.2376 50.0233 54.102 51.6654 55.9527C54.4926 59.1368 58.179 61.1783 61.7059 63.5462C65.3851 66.0176 68.2718 69.3074 70.942 72.7421C72.1128 74.2502 73.2075 75.7284 74.5902 77.0618C75.5517 77.986 77.2985 79.3815 77.0748 80.8505C76.8796 82.1356 75.5588 82.9495 75.7111 84.3381C75.8848 85.9128 77.5341 86.7359 78.9429 87.0416C80.1614 87.306 81.6892 87.3129 82.8363 86.7957C84.7282 85.9404 84.5045 83.8461 83.9239 82.2874C83.7454 81.8115 83.5431 81.3448 83.3575 80.8735C85.021 81.7379 87.1795 81.7793 88.6859 80.5654C89.6093 79.8206 89.9995 78.6596 89.9995 77.517C89.9995 77.1331 89.9567 76.7515 89.8734 76.3905C89.5426 74.9399 87.9672 73.8111 86.4703 73.6731C85.8896 73.618 85.3065 73.618 84.7306 73.7283C83.9834 73.8709 83.3265 74.3123 82.6483 74.6272C82.2651 74.8042 81.9153 74.9445 81.5012 74.8134C81.1752 74.71 80.8777 74.5284 80.5945 74.3421C79.8306 73.8364 79.2118 73.1168 78.6359 72.4271C77.5602 71.1397 76.6488 69.7511 75.4232 68.5855C73.6383 66.8889 71.9462 65.1026 70.2709 63.3071C67.1795 59.992 64.2451 56.5757 61.3227 53.1227C58.8263 50.1731 56.2585 47.2511 53.3361 44.6832C53.1742 44.5406 53.01 44.3981 52.8458 44.2602C52.5912 44.0395 52.3318 43.8233 52.07 43.6118C50.4612 42.306 48.8144 41.0577 47.1937 39.7841C46.9986 39.63 46.8058 39.4783 46.6131 39.3243C44.8377 37.9104 43.1005 36.4506 41.4988 34.8252C38.0457 31.3216 35.2471 27.2593 31.7535 23.7901C30.2375 22.2843 28.4717 21.0176 26.7273 19.7692C24.8901 18.4496 23.11 17.0657 21.2561 15.7736C20.259 15.0794 19.2927 14.346 18.4003 13.5298C17.7221 12.9091 16.9462 12.2493 16.4941 11.447C16.2751 11.0608 16.3537 10.6883 16.5488 10.3136C16.8701 9.7044 17.2509 9.148 17.5126 8.5066C18.762 5.4513 16.4251 1.8971 13.1885 1.1936C10.7087 0.653304 7.43887 1.1384 6.30845 3.619ZM16.7749 5.495C17.2318 7.0537 16.6821 8.548 15.861 9.8906C15.6397 10.2515 15.3898 10.6102 15.4184 11.0424C15.4636 11.6999 16.2133 12.3183 16.6464 12.7482C18.3313 14.4219 20.3184 15.6127 22.1628 17.0887C23.9025 18.4864 25.773 19.7256 27.5602 21.0613C31.4298 23.9488 34.3332 27.7053 37.4174 31.3239C40.0924 34.462 43.0148 37.2391 46.2204 39.8231C46.4108 39.9795 46.6035 40.1335 46.7963 40.2852C47.0629 40.4967 47.3342 40.7082 47.6054 40.9175C49.2166 42.1612 50.8587 43.3567 52.396 44.6855C52.5579 44.8234 52.7173 44.9636 52.8768 45.1062C52.8863 45.1154 52.8982 45.1246 52.9077 45.1338C54.5545 46.6166 56.08 48.2236 57.5555 49.865C60.5398 53.1801 63.2861 56.6861 66.2704 60.0012C67.7982 61.6978 69.3689 63.3623 70.942 65.0198C72.4127 66.5693 74.0809 67.9832 75.4708 69.5948C77.1152 71.5052 78.7406 74.9353 81.7011 75.0157C83.1243 75.0525 84.1166 74.2111 85.4065 73.8088C86.3513 73.5122 87.6507 74.4387 88.2361 75.0617C88.793 75.6549 89 76.4526 89.0548 77.2297C89.1595 78.678 88.5383 80.1286 87.2461 80.9126C85.6873 81.8598 84.0024 81.016 82.8958 79.8183C82.7316 79.6367 82.0557 79.9217 81.9605 79.816L81.9581 79.8206C82.0629 79.9355 82.1771 80.0436 82.2937 80.1493C82.2128 80.1585 82.158 80.1631 82.1557 80.1585C82.7054 81.8345 83.962 83.6622 83.2076 85.4531C82.3413 87.5106 79.6545 87.3106 78.0195 86.3267C77.3127 85.9014 76.8058 85.1151 76.6535 84.3381C76.5226 83.6714 76.8701 83.0322 77.208 82.4805C77.5317 81.954 77.8768 81.4551 78.0148 80.8505C78.1814 80.1286 77.6911 79.4574 77.2699 78.9056C76.2656 77.5883 74.8496 76.6158 73.8453 75.3008C72.5245 73.5743 71.218 71.8386 69.8163 70.1718C68.4289 68.5189 66.9201 66.9671 65.2875 65.5371C63.7454 64.1853 61.9796 63.0887 60.2471 61.9829C58.3741 60.7897 56.5012 59.592 54.8092 58.162C53.0005 56.6355 51.5226 54.7343 49.9781 52.9686C49.0857 51.9479 48.198 50.9272 47.3104 49.9041C47.1652 49.7363 47.0224 49.5708 46.8796 49.4052C45.6088 47.9408 44.3403 46.4764 43.0648 45.0142C42.9029 44.8234 42.7363 44.6349 42.5721 44.4464C41.6749 43.4164 40.773 42.3865 39.8663 41.3635C36.8844 37.9955 34.8306 33.9654 31.2609 31.0986C29.5545 29.7284 27.6245 28.6364 25.723 27.5398C23.605 26.3167 21.5988 25.0316 19.7473 23.4476C18.3408 22.2475 17.0295 20.9509 15.6968 19.675C15.0733 19.0773 14.4474 18.4818 13.8192 17.8887C13.4717 17.5622 13.11 17.2266 12.6602 17.0404C12.001 16.7714 11.0824 16.9208 10.4136 17.0634C9.68779 17.2197 8.95719 17.3852 8.23611 17.5645C7.71493 17.6956 7.20088 17.8381 6.67018 17.937C5.97528 18.0657 5.13758 17.8197 4.47837 17.5944C1.61545 16.6266 0.330346 13.6931 1.28465 10.9987C1.75348 9.6699 2.64115 8.3986 4.09522 7.987C4.92816 7.7503 5.92054 8.0491 6.73444 8.2514C7.46742 8.4353 8.19327 8.6491 8.92625 8.84H8.92863C9.05476 8.8721 9.29275 8.8446 9.49503 8.8262C9.60688 8.8216 9.72111 8.8193 9.83296 8.817C9.82345 8.8147 9.81155 8.8124 9.80203 8.8078C9.80917 8.8078 9.81631 8.8078 9.82106 8.8101C8.46695 8.1572 7.36033 7.1295 7.03192 5.6674C6.77014 4.4926 7.22468 3.2925 8.06476 2.435C11.0443 -0.606503 15.7801 2.0994 16.7749 5.495Z" fill="black"/>
<path d="M72.3638 29.2095C69.2176 30.0808 66.2357 28.483 63.2538 27.7589C60.2719 27.1795 57.4566 27.4692 55.3028 25.1472C53.1491 22.5356 52.3209 20.0711 49.5056 17.7492C46.8545 15.4272 44.37 13.8317 40.3957 13.2524C37.4137 12.8179 34.2676 13.3972 31.1191 13.2524C27.4756 12.9627 24.9911 12.8179 21.6784 14.5582C16.0477 17.3147 11.9068 23.9863 11.4095 29.4969C10.5813 38.3433 11.576 46.6104 13.0658 55.4591C14.3914 63.0021 15.7169 75.9108 28.3038 72.2853L48.7845 68.5104L54.558 63.8136L56.9045 60.3352L59.4295 56.8569" fill="white"/>
<path d="M71.9717 29.198C69.1445 29.9153 66.3387 28.421 63.6542 27.7474C61.729 27.2623 59.718 27.3773 57.8499 26.6324C55.7699 25.8025 54.668 23.7909 53.5329 22.0436C52.3549 20.2321 51.0483 18.6986 49.3825 17.2848C46.4386 14.7858 43.045 13.2984 39.1064 13.0777C36.5862 12.9351 34.0707 13.2892 31.5505 13.2271C29.6847 13.1811 27.8618 12.9512 25.9912 13.1168C22.1312 13.457 18.678 15.7583 16.1673 18.4894C13.609 21.2712 11.767 24.8162 11.134 28.49C10.739 30.7889 10.7271 33.1959 10.7056 35.5202C10.6842 37.9893 10.8008 40.4584 10.9984 42.9206C11.3672 47.4932 12.0836 52.0268 12.8475 56.5512C13.6519 61.3054 14.3182 67.0551 18.0093 70.6553C19.7275 72.3313 22.0479 72.9842 24.4467 72.952C26.2673 72.9267 27.9736 72.4324 29.7442 72.106L43.5019 69.5679C45.2344 69.2484 46.967 68.9288 48.6995 68.6092C48.9351 68.5656 49.1326 68.561 49.3158 68.4115C50.056 67.8092 50.7985 67.2046 51.5386 66.6022C52.5786 65.7562 53.6185 64.9102 54.6609 64.0642C55.3249 63.5239 55.7199 62.7032 56.1888 62.0089C57.3668 60.2617 58.6043 58.5628 59.8442 56.8546C59.787 56.9328 59.1373 56.696 59.0231 56.8546C58.0807 58.1535 57.105 59.4341 56.2078 60.7629C55.5819 61.6894 54.9584 62.6158 54.3325 63.5423C54.0469 63.9653 53.6257 64.2389 53.2259 64.5654C51.6195 65.8712 50.0131 67.177 48.4067 68.4851C48.4091 68.4828 48.4091 68.4943 48.2759 68.5196C48.064 68.5587 47.8499 68.5978 47.6381 68.6368C46.8551 68.7817 46.0745 68.9242 45.2916 69.069C40.4819 69.9564 35.6723 70.8438 30.8603 71.7312C29.6538 71.9542 28.4448 72.1474 27.2597 72.4531C24.1373 73.2532 21.0436 72.8187 18.728 70.5588C16.9122 68.7863 15.927 66.3333 15.2225 63.9837C14.48 61.5077 14.0731 58.9536 13.6423 56.4155C12.8689 51.8406 12.1645 47.2541 11.7932 42.6309C11.5957 40.1687 11.5053 37.6973 11.5267 35.2282C11.5481 32.9293 11.5957 30.5636 11.986 28.2899C12.6214 24.6001 14.5895 21.0988 17.1431 18.3193C18.49 16.8549 20.0869 15.6019 21.8741 14.6732C24.1516 13.4915 26.4172 13.0248 29.0065 13.1558C31.2649 13.2685 33.4543 13.3099 35.7175 13.1972C38.5234 13.057 41.2149 13.2386 43.8256 14.2892C47.6666 15.8341 50.6723 18.917 52.838 22.2483C53.8327 23.7771 54.7847 25.4093 56.4363 26.3588C57.9903 27.2531 59.9227 27.3428 61.6695 27.5796C63.8256 27.8715 65.8175 28.752 67.9284 29.2302C69.5038 29.5866 71.1935 29.621 72.7618 29.2233C72.619 29.2555 72.2002 29.1383 71.9669 29.198H71.9717Z" fill="black"/>
<path d="M58.5055 60.9059C60.8758 62.1151 62.8296 63.0577 65.4783 63.8646C68.1295 64.6716 70.6378 64.4026 73.4269 64.6716C78.1699 65.0739 85.8401 68.5706 87.0942 61.8484C87.9319 56.7401 88.6292 51.9008 89.0481 46.7902C89.3265 43.8337 88.6292 42.0842 87.7939 39.2611C86.9562 36.5736 87.7939 34.2861 87.6559 31.5986C87.3774 28.5065 86.1209 26.088 83.1937 25.1454C79.8477 24.0695 77.6154 23.9362 74.4074 25.2811C71.1994 26.357 68.6887 26.626 65.3427 26.2213C63.1104 25.9524 59.0671 25.5477 57.1133 26.6237" fill="white"/>
<path d="M58.1563 60.9152C60.153 61.9313 62.1663 62.8877 64.301 63.6096C66.3048 64.2878 68.3229 64.474 70.4314 64.5498C72.3257 64.6165 74.1439 64.782 75.9978 65.1476C77.3995 65.4258 78.7965 65.72 80.2196 65.8787C82.4471 66.1246 85.1054 66.0833 86.5428 64.1613C87.7041 62.6072 87.7113 60.3266 87.9897 58.5105C88.3729 56.023 88.7132 53.5309 88.9988 51.0319C89.2629 48.6916 89.6627 46.2639 89.3676 43.9143C89.0939 41.751 88.0635 39.7463 87.8255 37.583C87.5828 35.3645 88.2372 33.1528 87.9421 30.932C87.7208 29.2768 87.102 27.656 85.8598 26.4628C84.5509 25.203 82.5494 24.7478 80.7908 24.4398C79.2915 24.1754 77.6661 24.1938 76.1858 24.5639C75.0673 24.8421 74.0202 25.3065 72.9183 25.6306C71.5832 26.0237 70.2101 26.2697 68.8179 26.3502C66.6189 26.4766 64.42 26.0054 62.2258 25.9111C60.4504 25.8352 58.3705 25.7846 56.7617 26.6192C56.8474 26.5755 57.2853 26.7295 57.4614 26.6376C59.3319 25.6674 61.7308 25.9134 63.7655 26.1042C65.579 26.2766 67.3543 26.4881 69.182 26.41C71.281 26.3203 73.3681 25.826 75.31 25.0697C77.9992 24.0236 80.8241 24.3064 83.4562 25.3869C85.1173 26.0674 86.1977 27.4744 86.776 29.0791C87.4923 31.0654 87.2853 33.1138 87.1163 35.1667C87.0283 36.2564 87.0235 37.3347 87.2139 38.4129C87.4186 39.5647 87.8731 40.6866 88.1872 41.8131C88.8012 44.004 88.756 46.0753 88.549 48.3168C88.1277 52.8941 87.5899 57.538 86.688 62.0532C86.4357 63.3222 85.8027 64.5177 84.6532 65.228C83.3586 66.0281 81.7308 65.9614 80.272 65.7752C77.4352 65.412 74.7246 64.6556 71.8498 64.5269C69.3795 64.4165 67.0854 64.297 64.7294 63.5015C62.6898 62.8118 60.7598 61.8693 58.8512 60.8991C58.668 60.8094 58.2324 60.9635 58.1468 60.9198L58.1563 60.9152Z" fill="black"/>
<path d="M62.5312 54.445C64.7301 55.9325 68.1285 56.721 70.9248 55.583C74.2232 54.1829 69.8253 48.9321 66.7268 49.6333C68.6259 50.8586 72.1218 50.5966 71.6245 47.9711C71.1247 45.6078 68.8258 43.5088 66.0295 43.5088C67.2289 43.4215 68.3284 43.4215 69.5278 43.3341C71.1271 43.2468 71.4269 43.3341 71.8244 41.934C72.624 39.2213 71.0247 37.3844 68.426 36.2464C70.2251 36.2464 73.9234 37.297 74.2208 35.3705C74.5207 33.2692 70.9224 31.9588 69.1233 31.4324C71.2223 30.9955 72.2218 31.4324 72.5217 29.1564C72.5217 28.5448 71.9243 28.4552 72.7216 27.5816C73.3213 27.0574 74.1209 26.7057 74.9205 26.4436C76.8196 26.0068 78.5188 26.1815 80.5155 26.6183C81.415 26.8804 85.4131 27.0551 84.1137 28.5426C83.4141 29.3288 79.0186 28.7173 79.6183 30.9059C80.0181 32.3933 84.4136 31.9565 84.5159 33.1796C84.8158 35.1912 79.7206 34.7544 79.5183 36.2418C79.3184 38.166 83.5164 37.8166 84.416 38.7799C85.8153 40.6167 81.6173 41.9294 80.5202 42.718C78.0214 44.3801 81.02 44.9917 82.7192 45.7802C84.7182 46.7435 86.515 47.9688 84.416 49.8057C83.3165 50.8563 78.921 51.1184 78.921 52.6059C79.0209 54.5301 83.019 54.268 83.9186 55.3186C85.7177 57.2429 81.6197 57.8567 80.1204 57.8567C79.2208 57.7693 78.2213 57.3325 77.7215 58.2935C77.2218 59.1694 78.1214 59.8683 78.821 60.2177C79.8206 60.8293 83.6187 61.5304 83.2166 63.1052C82.9167 64.3306 79.0209 64.0685 78.0214 64.1559C76.0224 64.3306 74.2232 63.8938 72.2265 63.457C70.3275 63.1075 68.3284 62.4937 66.5316 61.7075C65.5321 61.1833 62.5335 59.6959 62.4336 58.6452C63.9329 58.2958 65.4322 59.7832 66.8315 59.3441C68.4307 58.9073 68.1309 56.8934 67.0314 56.1072" fill="black"/>
<path d="M62.1312 54.4522C63.928 55.6338 66.0961 56.2247 68.2712 56.158C69.7324 56.112 72.255 55.9235 72.4953 54.1441C72.6809 52.7555 71.3839 51.3003 70.3202 50.5393C69.1683 49.7163 67.7953 49.3301 66.3721 49.6105C66.3579 49.6128 66.2935 49.6174 66.3316 49.6404C67.7047 50.4842 70.3297 50.8635 71.6148 49.6588C72.5881 48.7461 71.8767 47.1483 71.315 46.2288C70.5511 44.9735 69.2492 44.0723 67.8118 43.67C67.5572 43.5987 67.2883 43.5505 67.0265 43.5229C66.9218 43.5091 66.8147 43.4999 66.71 43.4907C66.6195 43.4861 66.1579 43.5436 66.5339 43.5183C67.5001 43.4539 68.4688 43.4401 69.4373 43.3826C70.2512 43.3344 71.4696 43.4907 71.948 42.6975C72.6333 41.5619 72.5835 39.9641 72.0028 38.8146C71.3817 37.5846 70.0632 36.7892 68.8234 36.2306C68.6544 36.2466 68.4854 36.2627 68.3188 36.2788C69.7943 36.2995 74.8633 37.6145 74.6396 34.9063C74.5278 33.5385 72.7691 32.6786 71.653 32.1798C71.0104 31.8924 70.3392 31.6648 69.6633 31.4602C69.768 31.4924 70.4274 31.2901 70.6154 31.2625C70.9247 31.2188 71.2413 31.1843 71.5435 31.1038C72.7834 30.7751 73.0761 29.5359 72.7405 28.4646C72.4597 27.5703 74.1707 26.8921 74.7942 26.6393C76.4625 25.9634 78.4926 26.1887 80.2013 26.6462C81.296 26.9381 82.474 26.8967 83.5045 27.4117C83.9685 27.6439 84.0708 28.0163 83.7995 28.4324C83.5186 28.8601 82.8119 28.8991 82.3479 28.9704C81.3888 29.1175 80.0609 29.1497 79.3731 29.9107C78.4878 30.8923 79.9181 31.6832 80.7058 31.9085C81.6458 32.1752 83.4164 32.12 84.0352 32.9522C84.761 33.9316 82.8643 34.6029 82.2479 34.7822C81.3126 35.0558 80.0109 35.1477 79.2993 35.865C78.4116 36.7616 80.0537 37.5662 80.7105 37.7663C81.6863 38.0605 83.4806 38.0214 84.0993 38.9111C84.937 40.1158 83.0499 41.1503 82.1956 41.6147C81.2722 42.1159 79.4825 42.6562 79.1707 43.7643C78.8804 44.7919 81.5481 45.4586 82.1693 45.7253C83.7185 46.3897 85.8486 47.6564 84.4159 49.4128C83.5211 50.5117 81.8291 50.7255 80.5344 51.1417C79.642 51.429 78.1283 51.9348 78.6448 53.1027C79.1017 54.1395 80.8867 54.3441 81.8552 54.5901C82.7048 54.8062 84.5134 55.4706 83.8256 56.6408C83.2854 57.5627 81.0555 57.9328 80.0917 57.7834C79.0232 57.6178 77.155 57.3236 77.1812 58.9145C77.2002 60.1352 79.5278 60.6847 80.4297 61.0203C81.265 61.3307 83.3592 62.0709 82.7428 63.2848C82.4906 63.7814 81.6195 63.8963 81.1364 63.9722C80.3273 64.0986 79.492 64.0871 78.6757 64.0963C77.6072 64.1101 76.5553 64.1676 75.4891 64.0182C74.2397 63.8412 73.0046 63.5377 71.7718 63.2733C69.7204 62.8342 67.7215 62.1353 65.889 61.1468C65.1584 60.7536 64.442 60.3306 63.7852 59.8272C63.5282 59.6317 63.2974 59.411 63.0951 59.1651C63.0142 59.0685 62.9595 58.9604 62.9071 58.8478C62.7382 58.4915 63.6186 58.8041 63.7566 58.8478C65.0013 59.2501 66.2912 59.8019 67.5858 59.2225C68.9185 58.6248 68.333 56.7971 67.4525 56.1074C67.2645 55.9603 66.7577 56.2063 66.6315 56.1074C67.7096 56.9511 68.0095 58.8225 66.4459 59.3352C65.7439 59.5651 64.58 58.7627 63.8685 58.6363C63.2807 58.5328 62.6787 58.5213 62.0885 58.6248C62.067 58.6248 62.0479 58.6317 62.0312 58.6455C62.2384 59.8065 64.1612 60.6548 65.0965 61.1652C66.8623 62.1307 68.7805 62.7721 70.7462 63.2388C72.731 63.7101 74.799 64.2113 76.8528 64.232C78.2259 64.2458 79.6419 64.1998 81.0103 64.0986C81.8242 64.0389 83.471 63.9837 83.6614 62.9859C83.8732 61.8594 81.8313 61.2226 81.0627 60.9376C79.956 60.526 77.4359 59.8685 78.1427 58.2937C78.5211 57.45 79.4206 57.9029 80.1298 57.896C80.651 57.8914 81.1721 57.8592 81.6886 57.7903C82.6595 57.6569 84.1661 57.4661 84.7015 56.5511C85.325 55.489 83.5187 54.8016 82.8048 54.6085C81.7029 54.3073 79.9322 54.151 79.4182 52.9877C78.878 51.767 81.0247 51.2497 81.8291 51.0014C83.1737 50.5899 84.4848 50.3324 85.3939 49.2174C86.7028 47.6127 84.3422 46.369 83.1213 45.7713C82.3479 45.3919 79.6848 44.8517 80.0252 43.647C80.1941 43.0447 81.0103 42.6493 81.541 42.3688C82.174 42.0354 82.8238 41.7343 83.445 41.3779C84.3898 40.8331 85.6296 39.9227 84.8348 38.7824C84.6063 38.456 84.0066 38.3341 83.6472 38.2398C82.988 38.0651 82.3122 37.9594 81.653 37.787C80.8605 37.5777 79.2254 36.7708 80.1869 35.8006C80.9223 35.0604 82.4954 34.9868 83.4569 34.6764C84.1375 34.458 85.463 33.7684 84.8086 32.8855C84.5659 32.5614 84.0208 32.4487 83.6495 32.3545C82.9879 32.1867 82.3098 32.0901 81.6482 31.9269C80.7105 31.697 79.3135 30.89 80.2678 29.8325C81.0055 29.0141 82.6976 29.1083 83.709 28.8968C84.2183 28.7911 84.6919 28.5957 84.7895 28.0439C84.8966 27.4416 83.8019 27.1795 83.4021 27.0715C82.6928 26.8829 81.9575 26.8002 81.2364 26.6737C80.0893 26.4737 78.9732 26.2048 77.7999 26.1634C76.7623 26.1266 75.5249 26.0921 74.5325 26.4323C73.7543 26.699 71.5934 27.4255 71.9527 28.5681C72.1836 29.3038 72.0837 30.1613 71.4887 30.7406C70.8843 31.3292 69.561 31.2556 68.778 31.4096C68.7876 31.4073 68.6829 31.4257 68.7377 31.4395C70.5035 31.9614 73.4711 32.8603 73.8234 34.9063C74.2493 37.3708 69.9037 36.2214 68.5424 36.203C68.4615 36.2007 68.0404 36.2512 68.038 36.2512C70.1822 37.2168 71.9051 38.8307 71.5719 41.2676C71.4553 42.1297 71.2056 43.1343 70.1846 43.2447C68.7424 43.401 67.2764 43.3711 65.8294 43.4677C65.4796 43.4907 65.732 43.5367 65.9271 43.539C68.5021 43.5941 71.6076 46.1138 71.2388 48.8013C71.0769 49.9715 69.6848 50.4037 68.6425 50.2152C68.3759 50.1669 68.1188 50.0795 67.8689 49.9876C67.788 49.9577 67.224 49.6197 67.2335 49.6174C67.7285 49.5209 68.4187 49.8933 68.8399 50.1117C70.2868 50.8658 72.1026 52.7486 71.6124 54.489C71.1959 55.9649 68.6187 56.1442 67.4383 56.0454C65.8319 55.912 64.2588 55.2959 62.9356 54.4269C62.7571 54.3142 62.2194 54.5027 62.1432 54.4522H62.1312Z" fill="black"/>
<path d="M28.4727 72.7188C31.4546 71.1233 36.0905 71.268 39.5698 70.8335C43.3798 70.399 47.1899 69.8175 50.9976 68.9484C54.9719 67.9346 56.7949 66.047 57.6231 62.4216C57.9539 60.9709 57.4565 59.0859 58.6154 57.7801C59.7744 56.6191 62.7563 56.0397 64.4127 55.8949C64.7435 56.1846 64.2461 55.8949 64.0819 56.1846" fill="white"/>
<path d="M28.8676 72.7299C32.3302 70.9413 36.6757 71.2356 40.4763 70.7896C42.7728 70.5206 45.0622 70.1896 47.3349 69.785C49.3388 69.4286 51.4116 69.0999 53.3012 68.3366C56.0974 67.2078 57.799 64.6836 58.1274 61.8075C58.3202 60.1132 58.0061 58.3016 59.7267 57.2602C61.1593 56.3935 63.0441 56.0808 64.7029 55.9245C64.4697 55.9153 64.234 55.9061 64.0008 55.8969C64.0817 55.9268 64.1151 55.9728 64.0984 56.0371C64.165 56.0256 64.234 56.0141 64.3031 56.0027C64.0484 56.021 63.8557 56.0049 63.67 56.1866C63.7676 56.09 64.3316 56.3429 64.4911 56.1866C64.5482 56.1015 64.6243 56.0624 64.7172 56.0716C64.7314 56.0716 64.9171 56.0693 64.9218 56.0371C64.9718 55.5635 61.8542 56.2211 61.6353 56.2693C60.0551 56.6257 58.2607 57.1636 57.6419 58.7499C57.3207 59.5707 57.3778 60.5178 57.3373 61.3799C57.2969 62.2834 57.0541 63.157 56.7424 64.0054C56.2022 65.479 55.2455 66.7273 53.8985 67.6032C52.1231 68.7596 49.9171 69.1137 47.8585 69.516C45.2217 70.031 42.561 70.4172 39.8909 70.7367C36.026 71.1988 31.5972 70.8885 28.0703 72.7116C28.1703 72.661 28.6653 72.8357 28.8652 72.7322L28.8676 72.7299Z" fill="black"/>
<path d="M63.9183 45.7487C62.262 48.5051 58.4519 50.9696 55.1392 51.9858C52.8212 52.71 46.36 50.8248 46.5266 47.7787C46.5266 45.7487 52.4904 44.298 54.4776 44.298C56.3005 44.4429 57.2929 45.1693 58.9493 45.6038C60.6056 46.0383 62.4286 45.8935 64.0849 45.8935" fill="black"/>
<path d="M63.508 45.7462C62.4585 47.4382 60.9045 48.7647 59.222 49.8613C57.7869 50.797 55.8926 51.9051 54.1339 52.089C52.637 52.2454 50.8688 51.5902 49.5575 50.9533C48.4342 50.4062 47.2658 49.5556 46.9754 48.3118C46.6922 47.1072 47.7703 46.383 48.7412 45.8818C50.0668 45.1967 51.578 44.7967 53.0463 44.5208C53.9602 44.3484 54.6932 44.3392 55.607 44.5921C56.5256 44.8473 57.3871 45.2657 58.2986 45.5439C60.1549 46.1094 62.1682 45.9416 64.0863 45.9347C64.5528 45.9324 64.5528 45.8542 64.0863 45.8542C62.6751 45.8611 61.2639 45.9462 59.8645 45.7094C58.7365 45.5186 57.7013 45.0013 56.628 44.6427C55.419 44.2404 54.222 44.2082 52.9749 44.3783C51.5352 44.576 50.1001 44.9645 48.7579 45.4979C47.8012 45.8795 46.4043 46.4956 46.1401 47.5762C45.864 48.6935 46.8755 49.7786 47.7346 50.3648C48.9221 51.1786 50.3048 51.6706 51.7208 51.9649C52.7988 52.1879 53.9483 52.2569 55.043 52.1097C56.7826 51.8752 58.5818 50.797 60.0216 49.8866C61.7184 48.813 63.2891 47.4405 64.3362 45.7508C64.2886 45.8128 63.6056 45.5921 63.508 45.7462Z" fill="black"/>
<path d="M64.252 42.2679C60.6085 44.0082 57.2958 42.2679 53.6523 42.4127C51.0011 42.5576 44.7089 46.7647 46.3629 41.3966C47.3576 38.2056 52.6575 36.1756 55.9702 36.8998C59.6137 37.7711 61.4366 39.8011 64.0854 42.1208" fill="black"/>
<path d="M63.8523 42.2556C62.2126 43.0005 60.5396 43.081 58.7547 42.8488C57.7171 42.7131 56.6867 42.5361 55.6443 42.435C54.4472 42.32 53.2573 42.3039 52.096 42.6235C50.9537 42.9384 49.8613 43.4051 48.7309 43.7569C47.7481 44.0626 46.6105 44.3132 46.501 43.0005C46.2273 39.6716 50.0589 37.5933 52.9146 36.9795C57.3221 36.0323 60.7323 39.536 63.6738 42.12C63.8475 42.2717 64.383 42.0211 64.4948 42.12C61.8604 39.8026 59.0974 36.9749 55.2945 36.7381C52.3244 36.5542 49.1045 37.4646 47.0389 39.6049C46.1488 40.5268 45.4563 42.0464 45.7276 43.327C45.8965 44.1224 46.8104 44.1753 47.4934 44.1523C48.5453 44.1155 49.5329 43.7914 50.5158 43.4488C52.0555 42.9108 53.3835 42.3545 55.0636 42.4901C58.3382 42.7545 61.501 43.704 64.6471 42.2763C64.5401 42.3269 64.0641 42.1614 63.8523 42.2556Z" fill="black"/>
<path d="M41.3956 46.325C41.3956 44.0054 32.4522 43.2789 30.4651 43.2789C26.8216 43.2789 23.8397 44.4399 22.0167 47.1963C20.527 49.3712 18.2066 53.4334 18.8706 55.8979C19.368 58.7992 23.8397 62.2799 26.8216 63.004C31.2933 64.165 42.3927 62.5695 45.8697 60.1027C52.1595 56.0428 45.2057 49.6608 41.3956 46.325C41.2314 46.1802 40.8982 45.8905 40.5674 45.7457L41.3956 46.325Z" fill="black"/>
<path d="M41.8042 46.3265C41.7661 45.4828 40.7761 45.0299 40.0812 44.7402C38.8722 44.239 37.5395 43.9908 36.2497 43.7747C33.8913 43.3815 31.4305 43.1241 29.0364 43.2896C27.3396 43.4068 25.6785 43.8275 24.2173 44.6782C22.7156 45.5541 21.7447 46.9104 20.8594 48.3335C19.867 49.9244 18.9912 51.6325 18.5343 53.4441C18.1369 55.0258 18.4248 56.5086 19.3149 57.8788C20.9879 60.4606 24.1626 62.6584 27.2825 63.194C30.1193 63.6814 33.1654 63.4423 35.9998 63.0791C40.8047 62.463 51.2164 60.6652 48.2559 53.7821C47.5181 52.067 46.2187 50.5819 44.9217 49.237C44.2697 48.5588 43.5795 47.9151 42.8822 47.2806C42.2849 46.738 41.6899 46.1081 40.9593 45.7311C40.7594 45.6276 40.2644 45.8023 40.1669 45.7518C40.8808 46.1219 41.471 46.7495 42.0588 47.2783C42.7085 47.8622 43.3392 48.4646 43.9531 49.0853C45.155 50.3014 46.2735 51.621 47.0993 53.1062C47.8061 54.3798 48.213 55.8419 47.8227 57.2673C47.411 58.7662 46.026 59.8398 44.6838 60.564C41.8446 62.0951 38.3249 62.6607 35.1407 63.0538C31.866 63.4584 28.2749 63.7366 25.2502 62.2308C22.3539 60.7893 18.9151 57.8972 19.184 54.4465C19.3244 52.6257 20.2406 50.8463 21.1259 49.2669C21.9755 47.7519 22.9203 46.2415 24.3292 45.154C27.0017 43.0896 30.5119 43.1907 33.7199 43.5563C35.2145 43.7264 36.7114 43.9678 38.1559 44.3747C39.0817 44.6345 40.343 45.0023 40.857 45.8621C40.9403 46.0024 40.9712 46.161 40.9784 46.3196C40.9879 46.3955 41.8089 46.3725 41.8042 46.3265Z" fill="black"/>
<path d="M22.8426 27.7578C24.0016 33.1236 28.8064 36.4594 35.0987 36.6042C40.3985 36.749 47.0239 33.8477 47.5213 28.7716C48.1853 22.969 39.9035 21.6655 34.6013 21.8103C31.7859 21.9552 29.1348 22.5368 26.4837 23.6955C25.1581 24.2748 23.835 24.7116 23.0068 25.8703C22.1786 27.1761 23.0068 28.19 22.676 29.4958" fill="black"/>
<path d="M22.4298 27.754C23.1581 30.984 25.2642 33.5979 28.2937 35.129C31.1138 36.5544 34.5931 36.9153 37.7249 36.5061C41.0043 36.0762 44.4027 34.7589 46.497 32.191C48.3484 29.9242 48.5769 26.5999 46.297 24.5538C44.912 23.3123 42.9867 22.7077 41.1804 22.3146C39.1957 21.8801 37.1371 21.7467 35.1071 21.7582C32.2038 21.7766 29.3147 22.379 26.6374 23.4503C25.4022 23.9446 24.0743 24.4319 23.0795 25.317C21.7207 26.524 22.5655 28.0022 22.2656 29.4943C22.2633 29.5058 23.0676 29.5977 23.0867 29.4943C23.2794 28.5287 22.9296 27.5838 23.0962 26.6206C23.2961 25.478 24.5193 24.7676 25.4998 24.3009C27.6797 23.2618 29.9786 22.4847 32.3775 22.0916C35.9068 21.5146 39.9191 21.8272 43.2295 23.202C44.5193 23.7377 45.714 24.54 46.4684 25.701C47.2466 26.8987 47.2704 28.3701 46.9444 29.7058C46.1376 33.0347 42.6393 35.0394 39.4836 35.9636C32.7297 37.9407 24.8239 34.7152 23.2509 27.754C23.2295 27.6436 22.4322 27.7494 22.4298 27.754Z" fill="black"/>
<path d="M31.125 71.125C35.2659 68.2237 42.2221 69.964 47.027 69.095C42.8861 67.6444 32.4506 65.4695 31.125 70.6905" fill="black"/>
<path d="M31.5177 71.1397C33.9546 69.4867 37.0365 69.3787 39.9137 69.3878C42.3982 69.397 44.9185 69.5419 47.3792 69.1166C47.3744 69.1166 47.4696 69.1028 47.4196 69.0867C44.4044 68.0407 41.1536 67.4084 37.948 67.351C35.2302 67.3027 31.5344 67.6797 30.7109 70.6914C30.7133 70.6845 31.501 70.8086 31.532 70.6914C32.1388 68.4706 34.3925 67.6682 36.5582 67.4682C39.2807 67.2176 42.1626 67.8246 44.7709 68.5326C45.235 68.6591 45.6943 68.797 46.1512 68.9441C46.3678 69.0154 46.7128 69.0706 46.2583 69.1419C45.7347 69.2246 45.2017 69.2637 44.6733 69.2936C42.9289 69.3924 41.175 69.3051 39.4306 69.3051C36.4772 69.3051 33.2288 69.4177 30.7276 71.1144C30.8014 71.0684 31.344 71.2592 31.5177 71.1397Z" fill="black"/>
<path d="M27.4805 14.9927C30.6266 15.572 37.0878 17.0227 38.5776 13.8317C35.4314 13.5421 32.2829 15.572 29.1368 15.572" fill="black"/>
<path d="M27.1268 15.0188C29.3519 15.4303 31.5699 15.851 33.845 15.874C35.7132 15.8924 38.0764 15.6625 38.9902 13.8372C38.9997 13.8188 38.7879 13.8027 38.7855 13.8027C37.51 13.7107 36.2748 13.8532 35.0349 14.1498C33.0407 14.6234 31.1106 15.5039 29.0283 15.5407C28.4524 15.5499 28.9854 15.6212 29.2472 15.6166C30.4229 15.5959 31.5533 15.3798 32.6813 15.074C34.5161 14.5774 36.4271 13.7314 38.3714 13.8716C38.3048 13.8601 38.2358 13.8487 38.1692 13.8372C37.2934 15.589 35.0802 15.8602 33.2739 15.7775C31.439 15.6924 29.6328 15.3108 27.836 14.9774C27.6742 14.9453 27.0554 15.0027 27.1268 15.0188Z" fill="black"/>
<path d="M34.8155 48.6868C38.3139 48.6868 41.1506 51.1927 41.1506 54.2848C41.1506 57.3769 38.3139 59.8828 34.8155 59.8828C31.3172 59.8828 28.4805 57.3769 28.4805 54.2848C28.4781 51.1927 31.3148 48.6845 34.8155 48.6868Z" fill="white"/>
<path d="M39.3898 48.64C42.8881 48.64 45.7248 51.1458 45.7248 54.238C45.7248 57.3301 42.8881 59.8359 39.3898 59.8359C35.8914 59.8359 33.0547 57.3301 33.0547 54.238C33.0547 51.1458 35.8914 48.6377 39.3898 48.64Z" fill="black"/>
<path d="M35.6516 24.365C38.7002 24.365 41.1704 26.549 41.1704 29.2411C41.1704 31.9332 38.7002 34.1172 35.6516 34.1172C32.6031 34.1172 30.1328 31.9355 30.1328 29.2411C30.1328 26.549 32.6054 24.3673 35.6516 24.365Z" fill="white"/>
<path d="M39.636 24.3337C42.6845 24.3337 45.1548 26.5177 45.1548 29.2098C45.1548 31.9019 42.6845 34.0859 39.636 34.0859C36.5874 34.0859 34.1172 31.9019 34.1172 29.2098C34.1172 26.5154 36.5898 24.3337 39.636 24.3337Z" fill="black"/>
<path d="M30.597 53.1337C31.5704 53.1337 32.3581 53.9338 32.3581 54.9223C32.3581 55.9109 31.5704 56.7109 30.597 56.7109C29.6237 56.7109 28.8359 55.9109 28.8359 54.9223C28.8359 53.9338 29.6237 53.1337 30.597 53.1337Z" fill="black"/>
<path d="M32.1744 27.9284C32.8907 27.9284 33.4714 28.4894 33.4714 29.179C33.4714 29.871 32.8907 30.4297 32.1744 30.4297C31.4581 30.4297 30.875 29.8687 30.875 29.179C30.875 28.4894 31.4581 27.9284 32.1744 27.9284Z" fill="black"/>
<path d="M18.7451 22.3905C19.1258 22.1147 19.2401 22.0158 19.6327 22.1377C19.9659 22.2411 20.2801 22.4089 20.5894 22.5676C21.1249 22.8434 21.6366 23.1147 22.2482 23.1768C23.4881 23.3032 24.5447 22.7883 24.4662 21.4411C24.39 20.1077 23.5952 18.7674 22.1269 18.7283C21.5296 18.7122 21.0512 18.7881 20.6038 19.1881C19.9589 19.7628 19.6304 20.5054 18.726 20.7721C18.8831 20.7261 19.3876 20.8755 19.6565 20.7974C20.2563 20.6203 20.6513 20.2433 21.0392 19.7835C21.2439 19.5421 21.4414 19.3007 21.6794 19.0892C22.0149 18.7904 22.1102 18.8455 22.4529 19.1306C23.3001 19.8364 23.8975 21.5905 23.2407 22.5446C23.0812 22.7768 22.8598 22.9561 22.5956 23.0687C22.7479 23.0044 22.5623 23.0297 22.4338 22.9837C22.3005 22.9354 22.1744 22.8733 22.0483 22.8136C21.508 22.5584 21.0011 22.2503 20.4252 22.071C19.578 21.8089 18.4977 21.8733 17.7812 22.3928C17.9455 22.2779 18.5214 22.563 18.7498 22.3951L18.7451 22.3905Z" fill="black"/>
<path d="M45.2246 21.1376C45.8481 21.0502 46.6549 22.7238 47.0832 23.1446C47.6187 23.6687 48.6587 23.5561 49.2727 23.2434C50.2912 22.7261 50.3674 20.618 49.5249 19.9766C49.2108 19.7352 48.6801 19.7743 48.3041 19.7973C47.7448 19.8294 47.069 20.3881 46.5478 20.2938C46.3931 20.2662 45.7934 20.3191 45.8624 20.3329C46.2693 20.4065 46.7215 20.4364 47.1332 20.3651C47.7044 20.2662 48.3898 19.7168 48.8848 20.0938C49.7605 20.7628 49.2489 22.848 48.3612 23.2963C48.1994 23.3193 48.1803 23.3538 48.3017 23.3997C48.1756 23.3699 48.0542 23.2894 47.9542 23.2158C47.771 23.0802 47.6306 22.8871 47.4973 22.7054C47.2213 22.333 46.9904 21.933 46.6715 21.5905C46.1242 21.0019 45.2912 20.995 44.5344 21.1008C44.3821 21.1215 44.6534 21.1513 44.6772 21.1536C44.8629 21.1582 45.0461 21.1605 45.2246 21.1376Z" fill="black"/>
<path d="M21.7143 70.8337C21.4073 70.1854 21.4287 69.5049 21.8666 68.9164C22.0784 68.6313 22.4139 68.4313 22.7685 68.3531C22.4425 68.4244 22.809 68.4635 22.9661 68.5485C23.1921 68.6704 23.3682 68.8589 23.5324 69.0451C23.6038 69.1279 23.9204 69.0911 24.0156 69.0911C24.0489 69.0911 24.4987 69.0428 24.4987 69.0451C23.8442 68.3048 22.7471 68.0473 21.7738 68.3416C20.6552 68.6796 20.2864 69.8566 20.7504 70.8337C20.8337 71.0038 21.6928 70.7785 21.719 70.8337H21.7143Z" fill="black"/>
<path d="M22.6003 65.831C22.5122 66.1069 22.4027 66.3483 22.2266 66.5828C22.1219 66.7207 21.9744 66.8219 21.8221 66.9069C21.6007 67.0311 22.0101 67.0656 21.5888 66.9529C20.9582 66.7828 20.4299 66.3253 20.0443 65.831C19.8992 65.6448 19.1543 65.9276 19.0781 65.831C20.13 67.1805 22.9049 67.8955 23.5665 65.831C23.5593 65.8494 22.6479 65.6816 22.6003 65.831Z" fill="black"/>
<path d="M19.8603 70.654C20.0578 69.0516 20.7241 66.7802 18.4966 66.3411C18.2848 66.2998 18.0492 66.3112 17.835 66.325C17.8017 66.3273 17.4781 66.3526 17.6613 66.3894C19.7912 66.8101 19.0773 69.1781 18.894 70.6563C18.8869 70.6908 19.8436 70.7598 19.8579 70.6563L19.8603 70.654Z" fill="black"/>
</g>
</g>
<defs>
<clipPath id="clip0_394_11673">
<rect width="90" height="90" fill="white" transform="matrix(0 -1 1 0 0 90)"/>
</clipPath>
</defs>
</svg>
