<svg width="90" height="90" viewBox="0 0 90 90" fill="none" xmlns="http://www.w3.org/2000/svg">
<g clip-path="url(#clip0_394_11866)">
<mask id="mask0_394_11866" style="mask-type:luminance" maskUnits="userSpaceOnUse" x="0" y="0" width="90" height="90">
<path d="M45 0C20.1472 0 0 20.1472 0 45C0 69.8528 20.1472 90 45 90C69.8528 90 90 69.8528 90 45C90 20.1472 69.8528 0 45 0Z" fill="white"/>
</mask>
<g mask="url(#mask0_394_11866)">
<path d="M0 0L0 90H90V0H0Z" fill="#212121"/>
<mask id="mask1_394_11866" style="mask-type:luminance" maskUnits="userSpaceOnUse" x="23" y="18" width="44" height="54">
<path d="M23.4375 18.75L23.4375 71.25H66.5625V18.75H23.4375Z" fill="white"/>
</mask>
<g mask="url(#mask1_394_11866)">
<path d="M56.3539 62.7234C56.0218 62.4066 55.8281 61.971 55.8281 61.509V19.6093C55.8281 18.8436 56.7966 18.4608 57.3639 19.002L66.0387 27.279C66.3707 27.5958 66.5644 28.0315 66.5644 28.4935V70.3932C66.5644 71.1588 65.5959 71.5416 65.0287 71.0004L56.3539 62.7234Z" fill="url(#paint0_linear_394_11866)"/>
<path d="M23.9632 62.7234C23.6312 62.3934 23.4375 61.9579 23.4375 61.509L23.4375 19.6094C23.4375 18.8437 24.406 18.4609 24.9732 19.0021L33.648 27.279C33.9801 27.5958 34.1738 28.0314 34.1738 28.4935V70.3931C34.1738 71.1588 33.2053 71.5416 32.6381 71.0004L23.9632 62.7234Z" fill="url(#paint1_linear_394_11866)"/>
<path d="M40.0531 27.279C39.721 27.5958 39.5273 28.0315 39.5273 28.4935V70.3932C39.5273 71.1588 40.4958 71.5416 41.0631 71.0004L49.7379 62.7234C50.0699 62.4066 50.2636 61.971 50.2636 61.509V19.6093C50.2636 18.8436 49.2951 18.4608 48.7279 19.002L40.0531 27.279Z" fill="url(#paint2_linear_394_11866)"/>
</g>
</g>
</g>
<defs>
<linearGradient id="paint0_linear_394_11866" x1="18.2573" y1="23.6119" x2="75.2676" y2="54.8068" gradientUnits="userSpaceOnUse">
<stop stop-color="#00FFA3"/>
<stop offset="1" stop-color="#DC1FFF"/>
</linearGradient>
<linearGradient id="paint1_linear_394_11866" x1="11.3175" y1="36.2915" x2="68.3278" y2="67.4862" gradientUnits="userSpaceOnUse">
<stop stop-color="#00FFA3"/>
<stop offset="1" stop-color="#DC1FFF"/>
</linearGradient>
<linearGradient id="paint2_linear_394_11866" x1="14.7636" y1="29.992" x2="71.7739" y2="61.1869" gradientUnits="userSpaceOnUse">
<stop stop-color="#00FFA3"/>
<stop offset="1" stop-color="#DC1FFF"/>
</linearGradient>
<clipPath id="clip0_394_11866">
<rect width="90" height="90" fill="white" transform="matrix(0 -1 1 0 0 90)"/>
</clipPath>
</defs>
</svg>
