<svg width="90" height="90" viewBox="0 0 90 90" fill="none" xmlns="http://www.w3.org/2000/svg">
<g clip-path="url(#clip0_394_11881)">
<mask id="mask0_394_11881" style="mask-type:luminance" maskUnits="userSpaceOnUse" x="0" y="0" width="90" height="90">
<path d="M0 0L0 90H90V0H0Z" fill="white"/>
</mask>
<g mask="url(#mask0_394_11881)">
<path fill-rule="evenodd" clip-rule="evenodd" d="M6.49865 29.4725C6.3369 28.9594 6.18724 27.9648 6.02549 26.506L5.80098 24.7857L6.48899 20.4826L7.5729 24.0038C8.65681 25.5701 9.96766 26.3521 11.515 26.3521C12.5434 26.4009 14.2695 25.9806 16.6908 25.0936C18.6438 24.3679 20.1139 23.9476 21.0964 23.8425C22.7356 23.6886 24.2082 24.0795 25.4997 25.0154L26.6488 26.0368C26.2915 25.0447 25.2921 23.7179 23.6409 22.0465C21.1133 19.5956 19.7011 17.3792 19.3897 15.4048C19.03 13.103 19.7566 10.6032 21.5575 7.8908L23.2546 5.4668L23.3295 8.4455C23.4333 10.1633 24.1889 11.4438 25.5745 12.2721C26.6029 12.9515 28.4593 13.5526 31.1389 14.078C33.553 14.6498 35.127 15.0896 35.8439 15.4048L36.0805 15.4806L36.2302 15.6321C36.9568 16.5215 37.5507 17.6945 38.0118 19.1557C37.9562 18.0097 37.6448 16.502 37.0799 14.6204C36.4185 11.8054 36.0805 9.8579 36.0805 8.7607C36.0805 6.5639 36.7685 4.8192 38.1638 3.5192L39.3226 2.7373C40.4548 2.0116 41.3601 1.5155 42.0312 1.2492L44.4259 0.389L43.2648 2.6615C42.8495 3.3384 42.6419 4.0935 42.6419 4.9243C42.6419 5.8675 43.0571 6.8327 43.8779 7.8151C44.3969 8.4455 45.3215 9.3056 46.6613 10.4028C48.3101 11.8054 49.4713 12.9221 50.14 13.7627C51.2239 15.1654 51.7622 16.6828 51.7622 18.2956C51.7622 19.0311 51.714 19.576 51.6102 19.9377C52.0157 19.6811 52.4792 18.535 52.9982 16.502L53.2324 15.4048C54.0049 12.2257 54.9295 9.9825 56.0158 8.685C57.9205 6.4418 60.7763 5.6574 64.5857 6.3367L66.9805 6.7277L64.972 8.0545C63.5308 9.0955 62.7848 10.2391 62.7293 11.4902C62.6255 12.5409 63.0118 14.2001 63.8881 16.502C64.8682 19.2608 65.3606 21.245 65.3606 22.4399L65.1989 24.0038C65.0492 24.8444 64.5302 25.7509 63.6611 26.743L63.1904 27.2122C64.0208 26.897 65.2568 25.856 66.9056 24.0795C69.17 21.4747 71.3282 20.0134 73.3946 19.708C76.2794 19.2877 78.9301 20.2236 81.3538 22.5156L82.8143 23.928C80.7599 23.5077 78.9011 23.8523 77.2499 24.9397C75.449 26.2006 74.5534 28.0235 74.5534 30.4182C74.5534 31.5153 74.732 32.4244 75.0917 33.1574C74.732 34.9241 74.1671 36.2803 73.3946 37.2236C72.8273 37.8931 71.8955 38.4453 70.6112 38.8656L69.689 39.1711V39.2566C70.4036 39.2004 71.7724 39.0196 73.7809 38.7044C76.4581 38.1888 78.4859 37.9493 79.8812 38.0079C82.1456 38.113 83.9465 38.8094 85.2935 40.1168C86.0588 41.2139 86.8603 42.7216 87.681 44.6496L87.7655 44.8793C86.1143 44.3075 84.4921 44.2879 82.8891 44.8035C81.1462 45.3753 79.8812 46.4456 79.1087 48.0095L77.3271 50.1208C75.8352 51.8948 74.5244 52.9162 73.3946 53.1752C72.668 53.2803 71.7917 53.1948 70.7633 52.9358L69.8387 52.7843C70.3577 53.0408 71.2823 53.3267 72.6197 53.642L73.9306 53.9474C76.0911 54.5779 78.0996 55.3305 79.956 56.2199L80.1926 56.3812C82.0973 58.0991 83.1257 60.3423 83.2754 63.1011C82.2494 62.5293 81.1631 62.2434 80.0333 62.2434C78.9011 62.2434 77.6385 62.3753 76.2505 62.6343C74.8093 62.7858 73.5443 63.7022 72.4604 65.3736C70.8671 65.9943 69.689 66.3852 68.9045 66.5465C67.5767 66.7469 66.3866 66.6247 65.3606 66.1555C65.0492 66.0505 64.5302 65.679 63.8132 65.0584L62.7293 64.1982L62.4179 64.5037C62.7848 65.3443 63.8132 66.5196 65.5103 68.0273C67.1615 69.4861 68.2358 70.6029 68.7548 71.397C69.7349 72.7996 70.225 74.5468 70.225 76.6263C70.225 79.3949 69.3197 81.4279 67.5188 82.7255L67.1326 83.3559C66.9805 81.3228 66.1621 79.759 64.663 78.6593C63.3232 77.6208 61.7299 77.1517 59.8711 77.2567H59.5693C57.3532 76.9415 55.7503 76.5212 54.7798 76.0056C53.5438 75.3776 52.5637 74.2023 51.8371 72.4844L51.2239 71.2333L50.7628 71.397C50.8087 72.3329 51.1491 73.8406 51.7622 75.9299C52.6385 79.0039 52.9789 81.3986 52.7713 83.1189C52.3561 86.144 50.2993 88.3286 46.5937 89.6848L45.8212 90C46.1327 89.2181 46.2823 88.3286 46.2823 87.3365C46.2823 86.039 45.954 84.8367 45.2829 83.7469L45.0487 83.3559L44.9715 83.2704C44.5008 82.5446 43.5303 81.5232 42.0312 80.2257C40.4934 78.9184 39.4095 77.831 38.7867 76.9415C37.71 75.5291 37.1644 73.9921 37.1644 72.3231L37.3238 71.072H37.1644C36.6454 71.2822 36.165 72.8192 35.7015 75.6928L35.3153 77.8016C34.7504 80.0449 33.7413 81.7334 32.2977 82.8794C31.1679 83.8715 29.5167 84.6266 27.3561 85.1519L27.0471 85.2277L26.8202 85.0737L25.8859 84.9125C25.1134 84.7585 24.6041 84.6266 24.3482 84.5215L23.1049 83.9766V83.9008C24.7537 82.9552 25.7363 81.4768 26.0453 79.4437L26.1225 79.3582L26.1974 78.2684C26.1974 76.6458 25.7628 75.2628 24.8865 74.1167L24.0368 71.854C23.6795 70.813 23.4719 69.7745 23.4164 68.7237C23.3681 67.5777 23.5202 66.6907 23.8871 66.07C23.933 65.8599 24.1406 65.6204 24.5003 65.3638C25.169 64.5819 25.5287 64.142 25.5842 64.037C24.9614 64.037 23.7543 65.1537 21.9534 67.3969L21.642 67.7879C19.7373 70.0311 18.1151 71.4337 16.7777 72.0079L16.5315 72.1692C15.042 72.6946 13.4197 72.6946 11.6647 72.1692C10.8922 71.9126 10.0256 71.4166 9.04306 70.6908L7.88432 69.8209L6.03514 67.4067L8.42265 68.0273C10.0256 68.0273 11.1747 67.3773 11.9013 66.07C12.3624 65.183 12.8259 63.4358 13.287 60.8285C13.7601 58.1773 14.2405 56.325 14.7595 55.2841C15.6358 53.4025 17.0022 52.2589 18.8514 51.8386V51.5234C17.5695 51.4183 15.9183 51.714 13.9098 52.3811C12.0051 53.0702 10.3828 53.3756 9.04306 53.3267C7.29046 53.2217 5.74305 52.6205 4.40565 51.5234C3.73455 50.9516 2.70616 49.8055 1.32048 48.0877L0.311417 46.6827L0 44.3344L1.16117 45.1188C1.57638 45.1652 2.03746 45.3485 2.55649 45.6612C2.91377 45.8714 3.31933 46.0253 3.79249 46.1304C5.02607 46.1866 6.18724 45.7956 7.26149 44.955C7.88432 44.4394 8.77993 43.4473 9.96765 41.9885C11.4571 40.1632 12.7028 38.9414 13.6732 38.3134C15.3727 37.3188 17.2581 37.1185 19.3125 37.6927L19.4742 37.4532C19.3125 37.3017 18.313 36.9572 16.4566 36.4318L15.9183 36.2803C13.806 35.6597 12.2876 35.1343 11.3557 34.714C9.81798 34.0933 8.60129 33.2821 7.72499 32.29C7.16734 31.5642 6.75212 30.6283 6.49865 29.4725Z" fill="#FCECA4"/>
<path fill-rule="evenodd" clip-rule="evenodd" d="M44.3415 2.1924C43.9359 3.1283 43.7283 3.9127 43.7283 4.5309C43.7283 5.4668 44.1435 6.4418 44.9619 7.4241C45.4809 8.0545 46.4055 8.9122 47.7453 10.0118C49.3941 11.4145 50.5456 12.5312 51.224 13.3718C52.2982 14.7744 52.8462 16.2918 52.8462 17.9046C52.8462 18.5741 52.7979 19.0971 52.7231 19.4709C53.119 19.2217 53.5728 18.0952 54.0822 16.111L54.3067 14.9259C55.0816 11.8054 56.0062 9.5915 57.0901 8.2842C58.9948 6.0508 61.8241 5.2371 65.5852 5.8578L67.9824 6.3367L65.9739 7.6636C64.6341 8.6557 63.8881 9.7724 63.7288 11.0235C63.625 12.1207 64.0112 13.8092 64.8875 16.111C65.8701 18.5546 66.3601 20.5388 66.3601 22.0465L66.208 23.5371C66.0487 24.2628 65.5393 25.206 64.663 26.3521L64.1995 26.8212C65.1796 26.4009 66.406 25.36 67.9051 23.6886C68.9914 22.4399 69.8871 21.5236 70.6016 20.9493C71.7918 20.0721 73.0253 19.5174 74.3193 19.3072C77.2499 18.8967 79.9295 19.8326 82.3533 22.1247L84.1252 23.8425H81.6556C80.1637 23.8425 79.1088 24.1577 78.4859 24.7857C77.8728 25.36 77.4117 26.2177 77.1003 27.3637C76.8927 27.8891 76.6561 28.9765 76.4026 30.6479C75.9874 33.673 75.3187 35.7061 74.3941 36.7471C73.723 37.4728 72.8008 38.0544 71.6107 38.4649L70.6885 38.7801L70.7634 38.8559C71.4321 38.8094 72.7719 38.6286 74.7804 38.3134C77.4117 37.788 79.4395 37.5583 80.8807 37.6072C83.1547 37.6634 84.9266 38.3403 86.2182 39.6403C86.9834 40.8425 87.7849 42.3795 88.6129 44.2488L90.001 47.7725L87.0679 45.4242C85.7764 44.3832 84.3328 44.3344 82.7395 45.2703C81.7111 45.9496 80.3448 47.2764 78.6477 49.2606L78.259 49.7298C76.7695 51.4941 75.4491 52.5155 74.3193 52.7745C73.6482 52.8796 72.8008 52.8014 71.7724 52.5448L70.8479 52.3811C71.4127 52.6401 72.3108 52.9358 73.5444 53.2412L74.8648 53.5564C77.1751 54.2333 79.1836 54.9884 80.8903 55.829L81.1173 55.9805C82.2495 56.9726 83.1258 58.3581 83.7486 60.1223C84.3135 61.8988 84.4366 63.5409 84.1252 65.0584L83.9755 65.9943L83.0508 65.8403C82.3797 65.7352 81.938 65.2099 81.7401 64.2764L81.6556 64.1127C80.6827 63.3405 79.495 63.0546 78.0997 63.255C77.233 63.4163 75.8643 63.883 74.0079 64.6674C72.3108 65.3931 71.0458 65.8599 70.225 66.07C68.7838 66.3852 67.4899 66.2802 66.3601 65.7548C65.8966 65.5544 65.3873 65.1635 64.8127 64.5917C64.144 64.0663 63.7843 63.8073 63.7385 63.8073L63.5019 64.1127C63.8616 64.9533 64.8875 66.1262 66.5943 67.6364C68.1417 68.9901 69.1966 70.1166 69.7639 70.9963C70.7344 72.4087 71.2243 74.1558 71.2243 76.2353C71.2243 79.0039 70.3288 81.0369 68.5279 82.3345L67.1326 83.4317L66.9805 81.6283C66.9805 81.2666 66.9057 80.9026 66.7464 80.5409L66.5943 79.759C66.3867 79.5952 66.1622 79.2605 65.8966 78.7375L65.7469 78.5078C64.9262 77.7259 63.2194 77.1712 60.6436 76.8658C58.3817 76.5505 56.7594 76.1302 55.7793 75.6049C54.5916 74.9842 53.6477 73.8113 52.9211 72.0934L52.3079 70.7666L51.8371 70.9963C51.8927 71.9884 52.2234 73.4765 52.8462 75.4534C53.7225 78.6325 54.0532 81.0565 53.8553 82.7255C53.4401 85.7531 51.3761 87.9376 47.6681 89.2938L45.6596 90L46.4345 88.0427C46.8014 87.1557 46.9801 86.3249 46.9801 85.5429C46.9801 84.4457 46.5938 83.4048 45.8213 82.4127C45.4061 81.8873 44.5298 81.0272 43.19 79.8347C41.6426 78.5274 40.5393 77.4376 39.8706 76.5505C38.8423 75.1381 38.3232 73.6011 38.3232 71.9297L38.4005 70.6811H38.3232C37.8066 70.8912 37.3238 72.4282 36.8627 75.2994L36.392 77.4107C35.8826 79.5952 34.9001 81.296 33.4589 82.4884C32.3267 83.4317 30.6755 84.1867 28.5173 84.7585H28.2808L27.122 84.5313C26.3954 84.4262 25.857 84.2918 25.4998 84.1403L24.65 83.7469C26.8106 82.5446 27.8945 80.6167 27.8945 77.9531C27.8945 75.815 27.1679 74.1558 25.7363 72.9511L25.1883 71.463C24.3676 69.1245 24.312 67.1965 25.0363 65.679L25.6494 64.8971C26.1226 64.4866 26.4992 64.0663 26.8106 63.646C26.0936 63.646 24.8769 64.7725 23.1798 67.0157L22.8684 67.4067C21.379 69.2784 20.0971 70.5271 19.0108 71.1576C17.2582 72.2449 15.2497 72.4551 12.9853 71.7782C12.1572 71.5681 11.2592 71.0818 10.2791 70.2999L6.64831 67.6364H9.65623C11.2592 67.6364 12.4204 66.9864 13.1374 65.679C13.5984 64.8018 14.0619 63.0546 14.5327 60.4376C14.9938 57.7838 15.4766 55.9047 15.9932 54.8173C16.8719 52.9358 18.2383 51.8191 20.0874 51.4476L20.0102 51.1422C18.7766 51.0371 17.1544 51.323 15.1459 51.9999C13.287 52.6792 11.6648 52.992 10.2791 52.9358C8.57232 52.8307 7.05388 52.2296 5.71649 51.1422C4.94157 50.5117 3.91318 49.3657 2.63132 47.6967L0 44.3344L2.48165 44.6496C2.78341 44.6985 3.24449 44.8793 3.86732 45.1945C4.37668 45.5097 4.76294 45.6612 5.02607 45.6612C6.26207 45.7101 7.42323 45.3485 8.49748 44.5641C9.16618 43.9923 10.0715 43.0002 11.2037 41.5951C12.6932 39.7722 13.9292 38.5406 14.9093 37.9224C16.6064 36.8815 18.4941 36.642 20.5485 37.2138L20.7103 37.0623C20.4447 36.8521 19.4453 36.5174 17.6927 36.0409L17.1544 35.8869C15.042 35.2687 13.5236 34.7433 12.599 34.323C11.054 33.7024 9.83729 32.8911 8.95857 31.899C8.13779 30.7529 7.5729 28.825 7.26149 26.1126L6.48898 20.4826L8.8089 23.6128C9.89281 25.0741 11.2037 25.856 12.7511 25.9611C13.7771 26.0075 15.5031 25.5897 17.9268 24.7002C19.8315 23.9745 21.3041 23.5566 22.3301 23.4515C23.9258 23.2976 25.367 23.6886 26.6488 24.6245C26.7623 24.6831 27.0182 24.9103 27.4238 25.3306L27.81 25.6459L27.8945 25.5701C27.4238 24.4729 26.3954 23.1632 24.8021 21.6555C23.5661 20.4068 22.7188 19.4416 22.2553 18.7647C21.379 17.5601 20.831 16.3114 20.633 15.0114C20.2661 12.712 20.9927 10.2122 22.7936 7.4998L24.4158 5.0001L24.5655 8.0545C24.6234 9.7724 25.338 11.0504 26.7357 11.8812C27.7159 12.5116 29.5626 13.103 32.2977 13.6772C34.2507 14.0486 35.8247 14.4885 37.0052 15.0114L37.2393 15.0896L37.3914 15.2411C38.1156 16.1306 38.7119 17.2742 39.173 18.6865C39.1175 18.0659 38.806 16.5777 38.2387 14.2295C37.5797 11.8348 37.2393 9.8774 37.2393 8.3698C37.2393 6.173 37.9273 4.4258 39.3227 3.1283L39.4844 2.967L40.4838 2.3463C41.4639 1.6695 42.3595 1.171 43.19 0.8582L45.5002 -0.0019989L44.3415 2.1924Z" fill="url(#paint0_linear_394_11881)"/>
<path fill-rule="evenodd" clip-rule="evenodd" d="M42.4933 2.108C41.0497 4.8765 42.2568 7.8748 46.1241 11.1003C50.1411 14.4896 51.5557 17.7249 50.3777 20.7989C51.715 21.2192 52.6879 20.7207 53.3083 19.3083C53.4604 19.0029 53.7718 17.7542 54.2329 15.5574C55.0633 12.3783 56.0169 10.1938 57.0912 8.9915C58.74 7.2248 61.212 6.6237 64.512 7.1955C62.8608 8.3415 61.9555 9.7173 61.8058 11.3398C61.702 12.437 62.1921 14.4407 63.276 17.3608C64.3044 20.0732 64.6641 22.182 64.3623 23.6897C64.2488 24.3201 63.9181 24.9408 63.3532 25.5712C62.6266 26.5071 62.1921 27.0789 62.0424 27.2891L63.0418 28.3105C64.2754 27.9953 65.9556 26.6586 68.0679 24.3201C70.0184 22.1258 71.8773 20.904 73.6299 20.645C76.2057 20.2735 78.6004 21.141 80.8069 23.2229C79.1653 23.2229 77.8738 23.6139 76.9492 24.3959C75.8653 25.3904 75.0928 27.3941 74.6293 30.4193C74.1682 33.5984 73.5454 35.6314 72.7729 36.5185C72.3673 36.9876 71.7735 37.3786 71.001 37.6938C69.7167 38.1605 68.9635 38.4464 68.7559 38.5515C68.5579 38.7519 68.5579 39.0207 68.7559 39.3261L69.2266 40.1838C70.8199 40.1838 73.5261 39.8026 77.3379 39.0109C80.732 38.6468 83.1823 39.2211 84.6742 40.7385C85.3888 41.7208 86.1444 43.1332 86.9169 44.9561C85.2101 43.6024 83.3054 43.6024 81.1931 44.9561C80.0609 45.6917 78.6487 47.0674 76.9492 49.1005C76.2805 49.8824 75.7325 50.4542 75.3294 50.8183C74.6027 51.5538 73.9051 51.9912 73.2436 52.1549C72.8767 52.2014 71.9811 52.1061 70.5375 51.8397C69.4536 51.6296 68.6811 51.7908 68.2176 52.3064C68.6328 53.0908 69.4053 53.6919 70.5375 54.1098C71.2641 54.3126 72.3384 54.579 73.782 54.8942C75.4308 55.3047 77.3837 56.0402 79.6554 57.0788C80.6282 57.9682 81.4007 59.1411 81.968 60.6024C82.5426 62.2152 82.6657 63.7522 82.3543 65.211C82.0984 65.1548 81.9391 64.974 81.8908 64.6685C81.8449 64.5048 81.7677 64.2482 81.6663 63.8841C79.8075 62.2616 77.1303 62.2152 73.6299 63.7228C69.8205 65.3356 67.2374 65.8317 65.9073 65.211C64.8693 64.3728 64.1257 63.7986 63.6622 63.4932C62.7859 62.9116 62.0689 63.1975 61.5041 64.3533C61.8058 65.4407 62.7859 66.7211 64.4371 68.1799C66.3974 69.9564 67.6044 71.1782 68.0679 71.8551C68.9925 73.2675 69.4053 74.9853 69.3015 77.0208C69.1977 79.2616 68.4541 80.9037 67.0685 81.9446C67.0105 81.3142 66.8319 80.5127 66.5205 79.5206C66.3225 79.4155 66.1149 79.1858 65.9073 78.8144C65.7576 78.4503 65.6249 78.2426 65.5211 78.1937C64.5965 77.3067 62.9742 76.686 60.6543 76.3122C57.8274 75.9017 56.0169 75.5107 55.242 75.149C54.3753 74.6725 53.6777 73.9175 53.1587 72.8765C52.2824 71.0536 51.8189 70.0908 51.773 69.9857C50.7905 70.301 50.17 70.6333 49.9142 71.0072C49.9142 72.0946 50.3294 74.0519 51.1502 76.8669C51.8768 79.3202 52.1303 81.3533 51.9227 82.966C51.6112 85.5147 49.7645 87.4525 46.3607 88.75C47.5484 85.6198 46.4355 82.5751 43.0413 79.5963C39.3816 76.4759 37.8632 73.4507 38.486 70.5282C37.1945 69.5923 36.2409 70.1177 35.6278 72.0946C35.1087 74.7581 34.7225 76.5516 34.469 77.4875C33.9017 79.5206 32.9964 81.0576 31.7628 82.0986C30.7345 82.9367 29.216 83.616 27.2075 84.1414C26.0753 83.9777 25.3028 83.7969 24.8876 83.5867C26.5847 81.8689 27.3572 80.0166 27.2075 78.0398C27.1496 77.1528 26.8671 76.0556 26.3481 74.7581C25.5297 72.8203 25.0952 71.75 25.0373 71.5399C24.2648 69.4115 24.2189 67.7132 24.8876 66.4621C24.9359 66.3106 25.4259 65.7559 26.3481 64.82C27.0192 63.8841 26.9251 63.283 26.0464 63.0264C25.0107 62.7112 23.3402 64.0674 21.0203 67.0925C19.6346 68.8593 18.4469 70.0322 17.4668 70.604C15.8735 71.5496 14.0726 71.7305 12.0617 71.1587C11.6006 71.0536 10.4419 70.3181 8.58305 68.9643C11.5716 68.9155 13.5053 66.3106 14.3816 61.1449C15.3062 55.7812 17.1071 52.9369 19.7867 52.6217C19.9943 52.3064 20.0498 51.9448 19.946 51.5343C19.8422 51.114 19.6926 50.7988 19.4849 50.5886C18.0896 50.332 16.3443 50.5691 14.2319 51.2948C11.9603 52.0303 10.2898 52.3651 9.20586 52.3162C7.4605 52.2111 5.88654 51.4756 4.49121 50.1219C4.44292 50.073 3.33005 48.6899 1.17188 45.9776C1.37948 46.0264 1.79471 46.217 2.40546 46.5225C2.97277 46.8377 3.46283 47.0185 3.87805 47.0772C5.99035 47.1822 8.4889 45.4815 11.364 41.9896C13.9398 38.8105 16.7015 37.7134 19.6346 38.7055C20.7668 37.8746 20.8223 37.1391 19.7867 36.5185C19.4849 36.3083 18.3238 35.888 16.3153 35.2698C12.4504 34.2288 9.87457 32.9973 8.5927 31.5946C8.02782 30.8103 7.61259 29.7131 7.34704 28.3105C7.2529 27.4699 7.09356 26.2188 6.88595 24.5498C8.22576 26.3238 9.79973 27.2304 11.6006 27.2891C12.5807 27.3355 14.891 26.7441 18.5507 25.4955C21.3317 24.5498 23.4923 24.6549 25.0373 25.8009C25.4066 26.0086 25.8412 26.402 26.3481 26.9738C26.8671 27.2304 27.3862 26.9445 27.8955 26.1137C27.5382 24.8162 26.254 23.069 24.0379 20.8747C21.9256 18.8416 20.7378 16.9698 20.4844 15.2422C20.1729 13.1627 20.8416 10.8902 22.4929 8.4466C22.6425 11.1565 24.2648 13.0381 27.3572 14.0791C29.1122 14.6509 31.8666 15.3766 35.6278 16.2636C36.393 17.1531 37.0714 18.6608 37.6363 20.7989C38.0998 20.7989 38.6091 20.645 39.1837 20.3297C39.1837 19.8044 38.6357 16.9991 37.5614 11.8823C36.7889 8.3904 37.25 5.8124 38.9471 4.141C40.9001 2.9486 42.0781 2.2717 42.4933 2.108Z" fill="url(#paint1_linear_394_11881)"/>
<path fill-rule="evenodd" clip-rule="evenodd" d="M57.3241 26.1875L56.7785 23.849C56.4188 21.9674 56.2691 20.2203 56.3174 18.6075C56.3729 16.3081 56.9861 14.3312 58.1738 12.6623C58.787 11.8315 59.3808 11.2303 59.9457 10.8663C59.796 12.1638 60.3899 14.4656 61.7297 17.7498C62.3429 19.3626 61.8045 21.2417 60.1075 23.3798L57.3241 26.1875Z" fill="url(#paint2_linear_394_11881)"/>
<path fill-rule="evenodd" clip-rule="evenodd" d="M64.9727 34.875L65.6631 32.6049C66.2836 30.8284 67.0295 29.245 67.9058 27.8399C69.0935 25.9046 70.5854 24.5289 72.3863 23.6883C73.3109 23.2778 74.1124 23.0407 74.781 22.9919C74.0544 24.0793 73.4412 26.3811 72.9222 29.8754C72.7243 31.5346 71.3289 32.8713 68.7556 33.8536L64.9727 34.875Z" fill="url(#paint3_linear_394_11881)"/>
<path fill-rule="evenodd" clip-rule="evenodd" d="M72.6232 42.6079C74.6317 41.5694 76.6402 41.1589 78.6511 41.3593C79.6216 41.4643 80.423 41.6745 81.0459 41.9897C79.8582 42.5615 78.1587 44.2036 75.9425 46.9135C74.8586 48.2697 72.9829 48.7096 70.3033 48.2404L66.5977 47.153L68.2948 45.5867C69.7384 44.3355 71.182 43.3435 72.6232 42.6079Z" fill="url(#paint4_linear_394_11881)"/>
<path fill-rule="evenodd" clip-rule="evenodd" d="M62.9648 58.2515L65.1254 57.4695C66.9263 56.9539 68.6524 56.6387 70.3012 56.5336C72.5173 56.3797 74.4992 56.7902 76.2518 57.7823C77.1764 58.3077 77.8451 58.8233 78.2603 59.3486C76.9229 59.3975 74.7068 60.2356 71.612 61.8484C70.1225 62.6328 68.2468 62.2687 65.9752 60.7512L62.9648 58.2515Z" fill="url(#paint5_linear_394_11881)"/>
<path fill-rule="evenodd" clip-rule="evenodd" d="M54.543 64.9L56.7036 65.6819C58.4562 66.3588 60.0036 67.1701 61.3434 68.106C63.1902 69.3669 64.5107 70.921 65.2735 72.8025L65.8963 75.2266C64.8679 74.4446 62.6253 73.7384 59.1732 73.1178C57.5244 72.8025 56.2691 71.3413 55.3928 68.7364C54.9293 67.4291 54.6468 66.1487 54.543 64.9Z" fill="url(#paint6_linear_394_11881)"/>
<path fill-rule="evenodd" clip-rule="evenodd" d="M44.1172 65.9944C45.7105 67.9224 47.002 70.1167 47.9724 72.5603C48.8029 74.652 49.0105 76.685 48.5953 78.6595L47.7479 81.0859C47.3327 79.8348 45.8698 77.963 43.3447 75.4535C42.1546 74.261 41.9301 72.333 42.6446 69.6695C43.0043 68.3133 43.504 67.0916 44.1172 65.9944Z" fill="url(#paint7_linear_394_11881)"/>
<path fill-rule="evenodd" clip-rule="evenodd" d="M31.7514 63.7182C32.5722 66.1227 32.9584 68.6543 32.9101 71.308C32.8546 73.5512 32.2873 75.5256 31.2131 77.2532L29.516 79.125L29.3566 77.4829C29.0549 76.0217 28.4586 74.2745 27.5823 72.2414C26.9136 70.6287 27.4037 68.73 29.0549 66.5332C29.8733 65.4458 30.7689 64.5002 31.7514 63.7182Z" fill="url(#paint8_linear_394_11881)"/>
<path fill-rule="evenodd" clip-rule="evenodd" d="M24.1032 53.254C23.8473 55.7538 23.1786 58.2071 22.0947 60.6043C21.1701 62.6374 19.8303 64.2012 18.0777 65.2911L15.7578 66.3125L16.2285 64.7462C16.5858 63.2385 16.7934 61.3862 16.8417 59.1919C16.8972 57.4741 18.1042 55.9639 20.4724 54.6566C21.7084 54.036 22.9227 53.5692 24.1032 53.254Z" fill="url(#paint9_linear_394_11881)"/>
<path fill-rule="evenodd" clip-rule="evenodd" d="M13.7604 42.9964C14.8347 41.65 16.7201 41.2004 19.39 41.6695C20.7371 41.8797 21.9634 42.2413 23.1053 42.7667C21.4082 44.5896 19.39 46.1266 17.0798 47.3777C15.1171 48.426 13.1376 48.8366 11.1291 48.6264L8.73438 48.0057L10.0452 47.0723C11.175 46.0778 12.411 44.724 13.7604 42.9964Z" fill="url(#paint10_linear_394_11881)"/>
<path fill-rule="evenodd" clip-rule="evenodd" d="M27.1944 32.6807C24.7707 33.2525 22.2528 33.4162 19.6215 33.1474C17.4054 32.947 15.5297 32.1846 13.9823 30.8871L12.2852 29.0055L13.9074 28.9298C15.351 28.7758 17.1326 28.3556 19.2353 27.6787C20.8382 27.1533 22.6391 27.8326 24.6476 29.7117C25.676 30.6476 26.5257 31.6397 27.1944 32.6807Z" fill="url(#paint11_linear_394_11881)"/>
<path fill-rule="evenodd" clip-rule="evenodd" d="M36.7039 23.5391C34.2223 23.3289 31.8083 22.6789 29.4425 21.5818C27.434 20.6459 25.8576 19.3092 24.7278 17.5914L23.7188 15.3286L25.2638 15.7978C26.7629 16.0544 28.5831 16.2083 30.7534 16.2645C32.4505 16.2645 33.9398 17.457 35.2313 19.8639C35.9 21.115 36.3925 22.3368 36.7039 23.5391Z" fill="url(#paint12_linear_394_11881)"/>
<path fill-rule="evenodd" clip-rule="evenodd" d="M46.1227 22.4375C44.2639 20.7661 42.6996 18.8186 41.408 16.5754C40.2758 14.5912 39.7568 12.585 39.8606 10.5519C39.9741 9.511 40.1527 8.6826 40.4086 8.0521L41.4177 9.3033C42.3881 10.4469 43.7545 11.6686 45.5095 12.976C46.8952 14.0169 47.4142 15.8985 47.0569 18.6084L46.1227 22.4375Z" fill="url(#paint13_linear_394_11881)"/>
<path fill-rule="evenodd" clip-rule="evenodd" d="M44.0384 15.6295C52.1665 15.6295 59.0972 18.5227 64.8112 24.3165C70.5832 30.1493 73.4682 37.1941 73.4682 45.4217C73.4682 53.659 70.5832 60.694 64.8112 66.5342C59.0972 72.3768 52.1665 75.2969 44.0384 75.2969C35.8981 75.2969 28.9504 72.3768 23.1784 66.5342C17.4063 60.7038 14.5313 53.659 14.5313 45.4217C14.5313 37.1843 17.4063 30.1493 23.1784 24.3165C28.9504 18.5325 35.8981 15.6295 44.0384 15.6295Z" fill="url(#paint14_radial_394_11881)"/>
<path fill-rule="evenodd" clip-rule="evenodd" d="M63.2657 25.7224C58.0152 20.4076 51.6589 17.7538 44.1898 17.7538C36.7207 17.7538 30.3669 20.4076 25.1139 25.7224C19.8054 31.0396 17.1548 37.4833 17.1548 45.0437C17.1548 52.6017 19.8054 59.0357 25.1139 64.3529C30.3669 69.7263 36.7207 72.4094 44.1898 72.4094C51.6589 72.4094 58.0248 69.7166 63.2657 64.3529C68.5767 59.0357 71.2249 52.6017 71.2249 45.0437C71.2249 37.4833 68.5767 31.0396 63.2657 25.7224ZM21.4083 22.0472C27.6873 15.6915 35.2795 12.5124 44.1898 12.5124C53.1001 12.5124 60.6923 15.6915 66.981 22.0472C73.2624 28.4152 76.403 36.0709 76.403 45.0437C76.403 54.0068 73.2624 61.6894 66.981 68.1038C60.6923 74.462 53.1001 77.6484 44.1898 77.6484C35.3351 77.6484 27.7356 74.4718 21.4083 68.1038C15.1173 61.6894 11.9766 54.0068 11.9766 45.0437C11.9766 36.0709 15.1173 28.4152 21.4083 22.0472Z" fill="url(#paint15_linear_394_11881)"/>
<path fill-rule="evenodd" clip-rule="evenodd" d="M63.2662 25.7203C58.0157 20.4055 51.6594 17.7517 44.1903 17.7517C36.7212 17.7517 30.3674 20.4055 25.1144 25.7203C19.8059 31.0375 17.1553 37.4812 17.1553 45.0417C17.1553 52.5996 19.8059 59.0336 25.1144 64.3508C30.3674 69.7243 36.7212 72.4073 44.1903 72.4073C51.6594 72.4073 58.0253 69.7145 63.2662 64.3508C68.5772 59.0336 71.2254 52.5996 71.2254 45.0417C71.2254 37.4812 68.5772 31.0375 63.2662 25.7203ZM22.0969 22.6756C28.2262 16.5202 35.5915 13.4462 44.1903 13.4462C52.7916 13.4462 60.1545 16.5202 66.2838 22.6756C72.4131 28.8798 75.479 36.3254 75.479 45.0417C75.479 53.7946 72.4131 61.2475 66.2838 67.3955C60.1545 73.5998 52.7916 76.7031 44.1903 76.7031C35.5915 76.7031 28.2262 73.5998 22.0969 67.3955C16.0231 61.2475 12.9766 53.7946 12.9766 45.0417C12.9862 36.3254 16.0231 28.8798 22.0969 22.6756Z" fill="url(#paint16_linear_394_11881)"/>
<path fill-rule="evenodd" clip-rule="evenodd" d="M63.2622 25.7228C58.0116 20.408 51.6554 17.7543 44.1863 17.7543C36.7172 17.7543 30.3634 20.408 25.1104 25.7228C19.8019 31.0401 17.1512 37.4838 17.1512 45.0442C17.1512 52.6022 19.8019 59.0362 25.1104 64.3534C30.3634 69.7268 36.7172 72.4099 44.1863 72.4099C51.6554 72.4099 58.0213 69.7171 63.2622 64.3534C68.5731 59.0362 71.2214 52.6022 71.2214 45.0442C71.2214 37.4838 68.5731 31.0401 63.2622 25.7228ZM24.1013 24.7112C29.6633 19.1276 36.3599 16.3395 44.1863 16.3395C52.0127 16.3395 58.7093 19.1276 64.2713 24.7112C69.8357 30.3436 72.6167 37.1197 72.6167 45.0442C72.6167 52.9663 69.8357 59.7326 64.2713 65.3748C58.7093 70.9975 52.0127 73.8125 44.1863 73.8125C36.3599 73.8125 29.6633 70.9975 24.1013 65.3748C18.5369 59.7326 15.7656 52.9663 15.7656 45.0442C15.7656 37.1197 18.5369 30.3436 24.1013 24.7112Z" fill="url(#paint17_linear_394_11881)"/>
<path fill-rule="evenodd" clip-rule="evenodd" d="M41.7334 19.881C36.1231 23.4681 32.0506 27.048 29.5327 30.5912C25.6654 35.8595 24.1204 42.054 24.8929 49.2039C25.156 51.7526 26.1096 54.702 27.7487 58.0326C29.6558 62.0034 30.7953 64.5985 31.155 65.8594C27.8525 62.8342 25.5423 58.8439 24.2049 53.8907C22.9134 49.1453 22.7058 44.3265 23.5821 39.4296C25.7402 28.0132 31.7947 21.4937 41.7334 19.881Z" fill="#3C2B11"/>
<path fill-rule="evenodd" clip-rule="evenodd" d="M42.7458 21.8323C42.6903 23.2447 41.9178 24.4933 40.4259 25.5929C38.0601 27.3572 36.7493 28.3786 36.4861 28.6376C32.4209 33.4295 30.4317 39.4334 30.5355 46.6199C30.6393 53.8163 32.7806 59.7346 36.9472 64.375C33.6569 62.2931 31.3369 58.9527 29.9971 54.3612C28.8094 50.19 28.6115 45.6376 29.3743 40.682C30.1492 35.834 31.6942 31.6921 34.0141 28.2467C36.4861 24.5422 39.3999 22.4041 42.7458 21.8323Z" fill="#3C2B11"/>
<path fill-rule="evenodd" clip-rule="evenodd" d="M47.5358 31.6017C49.8461 32.9652 52.6271 35.5432 55.8716 39.3429C57.728 41.5373 60.4366 44.8215 63.9901 49.2028C64.4536 49.7184 65.4337 50.5761 66.9232 51.7783C67.9974 52.9244 68.1592 54.0215 67.3842 55.0625C65.791 54.6422 64.0094 53.3447 62.0564 51.1503C59.8886 48.4477 58.2953 46.4904 57.2669 45.2882L46.6016 33.0898C46.6595 32.8797 46.8092 32.6231 47.0627 32.3079C47.3741 32.0977 47.5358 31.868 47.5358 31.6017Z" fill="#3C2B11"/>
<path fill-rule="evenodd" clip-rule="evenodd" d="M41.7361 61.4062C38.9093 59.8888 36.8718 57.2057 35.6358 53.3498C34.5036 49.7992 34.2694 45.9433 34.9381 41.7721C35.6068 37.552 37.0504 33.982 39.2665 31.062C41.7941 27.8829 44.8768 26.1087 48.5365 25.7446C52.807 28.9237 54.9024 31.6923 54.7986 34.0308C53.6085 35.2795 52.5535 35.128 51.6289 33.5616C50.4412 31.5872 49.4128 30.5951 48.5365 30.5951C48.1768 30.6416 47.612 30.9861 46.8395 31.6068C46.1225 32.2348 45.7073 32.7308 45.6035 33.0949C45.4996 33.8769 46.4532 35.1842 48.4617 37.0071C50.1105 38.5172 50.2891 39.6339 48.9976 40.3695C48.1768 40.8362 47.3005 40.2645 46.376 38.6493C45.1424 36.56 44.2371 35.3675 43.6698 35.0522C39.2376 36.6161 36.9273 40.7117 36.7197 47.3264C36.5121 53.6846 38.1826 58.3812 41.7361 61.4062Z" fill="#3C2B11"/>
<path fill-rule="evenodd" clip-rule="evenodd" d="M39.8903 20.506C34.2704 24.1029 30.1761 27.673 27.6028 31.2235C23.7934 36.4845 22.246 42.6888 22.9726 49.8289C23.2261 52.3287 24.1796 55.2488 25.8308 58.5916C27.7355 62.494 28.8653 65.1282 29.225 66.4844C25.9346 63.4104 23.6147 59.42 22.2749 54.523C20.9834 49.7801 20.8048 44.9589 21.7269 40.0546C23.8972 28.6382 29.9516 22.1187 39.8903 20.506Z" fill="#F7E69B"/>
<path fill-rule="evenodd" clip-rule="evenodd" d="M40.8136 22.4568C40.7653 23.8618 39.9928 25.1203 38.4937 26.2101C36.1255 27.9842 34.8147 28.9958 34.5515 29.2646C30.4863 34.054 28.526 40.0506 28.6854 47.2469C28.7892 54.4433 30.9015 60.3518 35.0223 64.9922C31.7223 62.9103 29.4023 59.5699 28.0625 54.9882C26.8845 50.817 26.6769 46.2548 27.4494 41.2992C28.2243 36.4512 29.762 32.3093 32.0795 28.8712C34.5515 25.1692 37.4653 23.031 40.8136 22.4568Z" fill="#F7E69B"/>
<path fill-rule="evenodd" clip-rule="evenodd" d="M45.6791 32.232C47.9435 33.532 50.7245 36.1173 54.0245 39.9733C55.8254 42.1114 58.5315 45.3956 62.1357 49.8258C62.5968 50.3488 63.5504 51.2089 64.9916 52.4111C66.0755 53.5572 66.2276 54.6446 65.4551 55.6953C63.8618 55.275 62.0778 53.9677 60.1272 51.7807C57.9666 49.0708 56.3637 47.1135 55.3353 45.921L44.6797 33.6371C44.7279 33.427 44.9066 33.1973 45.218 32.9382C45.4715 32.7281 45.6332 32.4911 45.6791 32.232Z" fill="#F7E69B"/>
<path fill-rule="evenodd" clip-rule="evenodd" d="M39.8914 62.0234C37.0525 60.5157 35.0246 57.8229 33.7814 53.967C32.6009 50.4262 32.3378 46.5702 33.0161 42.399C33.6776 38.179 35.1188 34.6089 37.3349 31.6888C39.8624 28.5 42.9548 26.7332 46.6049 26.3716C50.8874 29.4456 52.9901 32.2044 52.9418 34.6578C51.7541 35.9064 50.6798 35.7549 49.6973 34.1886C48.5096 32.2044 47.4812 31.2197 46.6049 31.2197C46.3031 31.2685 45.7576 31.6033 44.9826 32.2313C44.2101 32.8617 43.8046 33.3309 43.7466 33.6364C43.6453 34.4183 44.5964 35.7549 46.6049 37.6243C48.2561 39.1442 48.4347 40.2609 47.1529 40.994C46.3224 41.4632 45.4461 40.8889 44.5216 39.2664C43.2397 37.1282 42.3344 35.9064 41.8154 35.5912C37.3928 37.2064 35.0729 41.2994 34.8653 47.8678C34.6577 54.2822 36.3355 58.9958 39.8914 62.0234Z" fill="#F7E69B"/>
<path fill-rule="evenodd" clip-rule="evenodd" d="M40.6626 20.1856C35.0426 23.7826 30.9773 27.3527 28.4522 30.9032C24.5946 36.1642 23.0472 42.3685 23.8221 49.5086C24.0756 52.067 25.0291 54.9871 26.6779 58.2713C28.5826 62.2323 29.7148 64.8665 30.0721 66.1641C26.7817 63.09 24.4618 59.0997 23.1244 54.2052C21.8305 49.4597 21.6325 44.641 22.5016 39.7343C24.6694 28.3179 30.7239 21.8082 40.6626 20.1856Z" fill="url(#paint18_linear_394_11881)"/>
<path fill-rule="evenodd" clip-rule="evenodd" d="M41.6629 22.1423C41.617 23.5572 40.8421 24.8058 39.3429 25.8957C36.9772 27.6697 35.6663 28.6911 35.4008 28.9501C31.3379 33.742 29.3584 39.7361 29.4622 46.9324C29.5636 54.1288 31.6952 60.0471 35.8739 64.6875C32.5739 62.5958 30.254 59.2652 28.9142 54.6737C27.7361 50.5025 27.5285 45.9404 28.301 40.9945C29.0735 36.1465 30.6209 31.9948 32.9312 28.5567C35.4008 24.8547 38.3146 22.7166 41.6629 22.1423Z" fill="url(#paint19_linear_394_11881)"/>
<path fill-rule="evenodd" clip-rule="evenodd" d="M46.5267 31.9195C48.8466 33.2293 51.6276 35.8048 54.8721 39.6608C56.673 41.799 59.3502 45.0831 62.9061 49.5133C63.3672 50.0387 64.3497 50.8964 65.8392 52.0986C66.9231 53.2447 67.0752 54.3418 66.3003 55.3828C64.707 54.9625 62.9254 53.665 60.9724 51.4682C58.8143 48.7583 57.2113 46.801 56.183 45.6085L45.5273 33.3344C45.5732 33.1242 45.7542 32.8848 46.0632 32.6282C46.3191 32.418 46.4784 32.1786 46.5267 31.9195Z" fill="url(#paint20_linear_394_11881)"/>
<path fill-rule="evenodd" clip-rule="evenodd" d="M40.662 61.7109C37.8231 60.2032 35.7881 57.5202 34.5521 53.6642C33.4199 50.1137 33.1929 46.2577 33.8641 42.0865C34.5327 37.8665 35.9764 34.2964 38.1828 31.3763C40.7103 28.1972 43.8027 26.4207 47.4528 26.0591C51.7329 29.2382 53.8163 31.997 53.7124 34.3453C52.5247 35.5939 51.4698 35.4424 50.5452 33.8761C49.3575 31.8919 48.3291 30.9072 47.4528 30.9072C47.151 30.956 46.603 31.3006 45.8305 31.9188C45.0556 32.5492 44.6501 33.0184 44.5945 33.3336C44.4449 34.1156 45.396 35.4424 47.4528 37.3142C49.0557 38.8317 49.2054 39.9484 47.9235 40.6815C47.0931 41.1507 46.2168 40.5764 45.2922 38.9636C44.0562 36.8255 43.1799 35.5939 42.6705 35.2787C38.1828 36.9037 35.8436 40.9967 35.636 47.565C35.4284 53.9208 37.1061 58.6369 40.662 61.7109Z" fill="url(#paint21_linear_394_11881)"/>
</g>
</g>
<defs>
<linearGradient id="paint0_linear_394_11881" x1="5.25175" y1="44.9954" x2="86.3641" y2="45.0755" gradientUnits="userSpaceOnUse">
<stop stop-color="#A38435"/>
<stop offset="1" stop-color="#5C470D"/>
</linearGradient>
<linearGradient id="paint1_linear_394_11881" x1="82.38" y1="45.4142" x2="10.2286" y2="45.4855" gradientUnits="userSpaceOnUse">
<stop stop-color="#835E24"/>
<stop offset="1" stop-color="#EECF74"/>
</linearGradient>
<linearGradient id="paint2_linear_394_11881" x1="56.4652" y1="18.4899" x2="61.2524" y2="18.6402" gradientUnits="userSpaceOnUse">
<stop stop-color="#835E24"/>
<stop offset="1" stop-color="#EECF74"/>
</linearGradient>
<linearGradient id="paint3_linear_394_11881" x1="66.2164" y1="29.174" x2="73.4615" y2="28.6817" gradientUnits="userSpaceOnUse">
<stop stop-color="#835E24"/>
<stop offset="1" stop-color="#EECF74"/>
</linearGradient>
<linearGradient id="paint4_linear_394_11881" x1="73.3892" y1="44.8556" x2="79.5692" y2="44.8617" gradientUnits="userSpaceOnUse">
<stop stop-color="#835E24"/>
<stop offset="1" stop-color="#EECF74"/>
</linearGradient>
<linearGradient id="paint5_linear_394_11881" x1="71.6732" y1="59.3588" x2="77.3896" y2="59.3645" gradientUnits="userSpaceOnUse">
<stop stop-color="#835E24"/>
<stop offset="1" stop-color="#EECF74"/>
</linearGradient>
<linearGradient id="paint6_linear_394_11881" x1="56.3131" y1="70.3254" x2="63.7123" y2="69.8226" gradientUnits="userSpaceOnUse">
<stop stop-color="#835E24"/>
<stop offset="1" stop-color="#EECF74"/>
</linearGradient>
<linearGradient id="paint7_linear_394_11881" x1="43.8505" y1="73.5312" x2="48.949" y2="73.5362" gradientUnits="userSpaceOnUse">
<stop stop-color="#835E24"/>
<stop offset="1" stop-color="#EECF74"/>
</linearGradient>
<linearGradient id="paint8_linear_394_11881" x1="27.2137" y1="71.7567" x2="31.5366" y2="71.6002" gradientUnits="userSpaceOnUse">
<stop stop-color="#835E24"/>
<stop offset="1" stop-color="#EECF74"/>
</linearGradient>
<linearGradient id="paint9_linear_394_11881" x1="16.4721" y1="59.4557" x2="20.7486" y2="60.1148" gradientUnits="userSpaceOnUse">
<stop stop-color="#835E24"/>
<stop offset="1" stop-color="#EECF74"/>
</linearGradient>
<linearGradient id="paint10_linear_394_11881" x1="10.5041" y1="45.0827" x2="14.521" y2="45.0866" gradientUnits="userSpaceOnUse">
<stop stop-color="#835E24"/>
<stop offset="1" stop-color="#EECF74"/>
</linearGradient>
<linearGradient id="paint11_linear_394_11881" x1="13.1393" y1="32.234" x2="19.4992" y2="30.9313" gradientUnits="userSpaceOnUse">
<stop stop-color="#835E24"/>
<stop offset="1" stop-color="#EECF74"/>
</linearGradient>
<linearGradient id="paint12_linear_394_11881" x1="26.9181" y1="21.307" x2="32.3748" y2="18.0492" gradientUnits="userSpaceOnUse">
<stop stop-color="#835E24"/>
<stop offset="1" stop-color="#EECF74"/>
</linearGradient>
<linearGradient id="paint13_linear_394_11881" x1="40.8467" y1="16.107" x2="45.4125" y2="14.6422" gradientUnits="userSpaceOnUse">
<stop stop-color="#835E24"/>
<stop offset="1" stop-color="#EECF74"/>
</linearGradient>
<radialGradient id="paint14_radial_394_11881" cx="0" cy="0" r="1" gradientUnits="userSpaceOnUse" gradientTransform="translate(43.8911 45.4481) rotate(-90) scale(29.8688 29.5079)">
<stop stop-color="#7A5824"/>
<stop offset="0.7098" stop-color="#725320"/>
<stop offset="1" stop-color="#523A16"/>
</radialGradient>
<linearGradient id="paint15_linear_394_11881" x1="75.272" y1="45.0625" x2="12.5452" y2="45.1244" gradientUnits="userSpaceOnUse">
<stop stop-color="#5C3F0A"/>
<stop offset="1" stop-color="#BFAC57"/>
</linearGradient>
<linearGradient id="paint16_linear_394_11881" x1="74.5" y1="45.0623" x2="13.4727" y2="45.1226" gradientUnits="userSpaceOnUse">
<stop stop-color="#7A540E"/>
<stop offset="1" stop-color="#EFDC85"/>
</linearGradient>
<linearGradient id="paint17_linear_394_11881" x1="15.1366" y1="45.0691" x2="71.6835" y2="45.125" gradientUnits="userSpaceOnUse">
<stop stop-color="#4B3202"/>
<stop offset="1" stop-color="#EECF74"/>
</linearGradient>
<linearGradient id="paint18_linear_394_11881" x1="65.2601" y1="43.1796" x2="22.0002" y2="43.2223" gradientUnits="userSpaceOnUse">
<stop stop-color="#B68434"/>
<stop offset="1" stop-color="#EFDC85"/>
</linearGradient>
<linearGradient id="paint19_linear_394_11881" x1="63.7162" y1="43.4154" x2="23.5463" y2="43.4551" gradientUnits="userSpaceOnUse">
<stop stop-color="#B68434"/>
<stop offset="1" stop-color="#EFDC85"/>
</linearGradient>
<linearGradient id="paint20_linear_394_11881" x1="63.7136" y1="43.6529" x2="23.5437" y2="43.6926" gradientUnits="userSpaceOnUse">
<stop stop-color="#B68434"/>
<stop offset="1" stop-color="#EFDC85"/>
</linearGradient>
<linearGradient id="paint21_linear_394_11881" x1="63.7153" y1="43.8867" x2="23.5454" y2="43.9264" gradientUnits="userSpaceOnUse">
<stop stop-color="#B68434"/>
<stop offset="1" stop-color="#EFDC85"/>
</linearGradient>
<clipPath id="clip0_394_11881">
<rect width="90" height="90" fill="white" transform="matrix(0 -1 1 0 0 90)"/>
</clipPath>
</defs>
</svg>
