<svg width="90" height="90" viewBox="0 0 90 90" fill="none" xmlns="http://www.w3.org/2000/svg">
<g clip-path="url(#clip0_394_11919)">
<path d="M45 90C20.1472 90 0 69.8528 0 45C0 20.1472 20.1472 -7.45654e-06 45 -7.45654e-06C69.8528 -7.45654e-06 90 20.1472 90 45C90 69.8528 69.8528 90 45 90Z" fill="#FF7000"/>
<path d="M33.6614 78.082C21.9613 78.082 12.4766 68.5973 12.4766 56.8972C12.4766 45.1972 21.9613 35.7124 33.6614 35.7124C45.3614 35.7124 54.8462 45.1972 54.8462 56.8972C54.8462 68.5973 45.3614 78.082 33.6614 78.082Z" fill="url(#paint0_radial_394_11919)"/>
<path d="M40.259 42.8164C28.559 42.8164 19.0742 33.3316 19.0742 21.6316C19.0742 9.93154 28.559 0.446781 40.259 0.446781C51.9591 0.446781 61.4438 9.93154 61.4438 21.6316C61.4438 33.3316 51.9591 42.8164 40.259 42.8164Z" fill="url(#paint1_radial_394_11919)"/>
<path d="M47.8684 52.7109C36.1684 52.7109 26.6836 43.2262 26.6836 31.5261C26.6836 19.8261 36.1684 10.3413 47.8684 10.3413C59.5685 10.3413 69.0532 19.8261 69.0532 31.5261C69.0532 43.2262 59.5685 52.7109 47.8684 52.7109Z" fill="url(#paint2_radial_394_11919)"/>
<path d="M65.6301 77.3242C53.9301 77.3242 44.4453 67.8395 44.4453 56.1394C44.4453 44.4394 53.9301 34.9546 65.6301 34.9546C77.3302 34.9546 86.8149 44.4394 86.8149 56.1394C86.8149 67.8395 77.3302 77.3242 65.6301 77.3242Z" fill="url(#paint3_radial_394_11919)"/>
<path d="M21.4856 65.1445C9.78555 65.1445 0.300781 55.6598 0.300781 43.9597C0.300781 32.2597 9.78555 22.7749 21.4856 22.7749C33.1856 22.7749 42.6704 32.2597 42.6704 43.9597C42.6704 55.6598 33.1856 65.1445 21.4856 65.1445Z" fill="url(#paint4_radial_394_11919)"/>
<path d="M43.0481 89.2461C31.348 89.2461 21.8633 79.7613 21.8633 68.0613C21.8633 56.3612 31.348 46.8765 43.0481 46.8765C54.7481 46.8765 64.2329 56.3612 64.2329 68.0613C64.2329 79.7613 54.7481 89.2461 43.0481 89.2461Z" fill="url(#paint5_radial_394_11919)"/>
</g>
<defs>
<radialGradient id="paint0_radial_394_11919" cx="0" cy="0" r="1" gradientUnits="userSpaceOnUse" gradientTransform="translate(33.6614 56.8972) rotate(-90) scale(21.1848)">
<stop stop-color="#FFAA00"/>
<stop offset="1" stop-color="#FFAA00" stop-opacity="0"/>
</radialGradient>
<radialGradient id="paint1_radial_394_11919" cx="0" cy="0" r="1" gradientUnits="userSpaceOnUse" gradientTransform="translate(40.259 21.6316) rotate(-90) scale(21.1848)">
<stop stop-color="#FFAA00"/>
<stop offset="1" stop-color="#FFAA00" stop-opacity="0"/>
</radialGradient>
<radialGradient id="paint2_radial_394_11919" cx="0" cy="0" r="1" gradientUnits="userSpaceOnUse" gradientTransform="translate(47.8684 31.5261) rotate(-90) scale(21.1848)">
<stop stop-color="#FFAA00"/>
<stop offset="1" stop-color="#FFAA00" stop-opacity="0"/>
</radialGradient>
<radialGradient id="paint3_radial_394_11919" cx="0" cy="0" r="1" gradientUnits="userSpaceOnUse" gradientTransform="translate(65.6301 56.1394) rotate(-90) scale(21.1848)">
<stop stop-color="#FFAA00"/>
<stop offset="1" stop-color="#FFAA00" stop-opacity="0"/>
</radialGradient>
<radialGradient id="paint4_radial_394_11919" cx="0" cy="0" r="1" gradientUnits="userSpaceOnUse" gradientTransform="translate(21.4856 43.9597) rotate(-90) scale(21.1848)">
<stop stop-color="#FFAA00"/>
<stop offset="1" stop-color="#FFAA00" stop-opacity="0"/>
</radialGradient>
<radialGradient id="paint5_radial_394_11919" cx="0" cy="0" r="1" gradientUnits="userSpaceOnUse" gradientTransform="translate(43.0481 68.0613) rotate(-90) scale(21.1848)">
<stop stop-color="#FFAA00"/>
<stop offset="1" stop-color="#FFAA00" stop-opacity="0"/>
</radialGradient>
<clipPath id="clip0_394_11919">
<rect width="90" height="90" fill="white" transform="matrix(0 -1 1 0 0 90)"/>
</clipPath>
</defs>
</svg>
