<svg width="90" height="90" viewBox="0 0 90 90" fill="none" xmlns="http://www.w3.org/2000/svg">
<path d="M9.57038 44.8984C9.57501 45.367 9.58887 45.8347 9.61196 46.3006C9.99241 55.4342 14.0476 64.4123 20.865 70.57C33.4001 82.7934 55.2815 83.7635 68.5072 72.1247C77.218 65.4043 81.9882 54.1661 81.2756 43.2612C81.6209 28.364 70.2511 14.7436 56.1196 10.7231C41.6449 6.10049 23.889 11.9253 16.0623 25.1604C11.5221 30.602 9.5009 37.8699 9.57039 44.8991L9.57038 44.8984Z" fill="#FFFF00"/>
<path d="M1.81545 48.3539C3.07752 48.3688 3.9592 49.6156 3.89357 50.7894C3.99962 52.2237 4.44578 53.7611 5.67728 54.6362C6.69332 55.5836 8.28986 56.3295 9.62496 55.5861C10.4068 54.8767 9.88976 53.7197 9.57986 52.9071C8.95633 51.6155 9.35282 50.1679 8.91367 48.8308C8.73263 48.2886 8.10399 47.9499 7.58431 48.2714C7.11774 48.5507 6.57574 48.8187 6.04447 48.5404C4.90153 48.1628 3.87469 46.985 2.57312 47.3942C2.16274 47.5764 1.90318 47.9641 1.65439 48.318L1.76169 48.3419L1.81545 48.3539ZM2.53963 39.8223C2.52446 40.3415 3.05621 40.6659 3.52623 40.581C4.94494 41.032 5.1437 42.7237 5.50282 43.9403C5.7882 45.0556 6.58119 46.2433 7.84754 46.3009C8.39981 46.4178 8.88473 45.9575 8.8509 45.4152C9.28033 43.4211 8.76213 41.354 9.20826 39.3749C9.20721 38.6291 8.36625 38.1261 7.69077 38.4173C6.74439 38.6044 5.6241 39.2048 4.77602 38.4369C3.82019 37.9241 2.41889 38.6851 2.53963 39.8223ZM3.09456 61.2342C3.94547 62.6001 5.83645 62.7243 7.26743 62.4061C8.95653 62.0659 10.6963 61.2683 12.4341 61.8146C13.0397 60.2793 11.8713 58.8601 11.2443 57.5535C11.1235 56.7106 10.1654 56.5027 9.44678 56.5775C7.6174 56.6311 6.25363 58.1268 5.39684 59.588C4.62043 60.1012 3.0994 59.9902 3.09456 61.2342ZM6.37876 29.0356C6.85613 29.6224 7.42999 30.2124 7.50626 31.0197C7.78858 32.5061 7.63969 34.3917 9.05553 35.3629C9.38109 35.679 9.85615 35.4741 9.979 35.0712C11.2367 33.3802 11.329 31.1594 12.2468 29.3261C11.0061 28.0299 9.03007 27.3236 7.27031 27.8022C6.78382 28.011 6.3258 28.4697 6.37876 29.0356ZM9.07139 68.5788C10.7146 71.5177 14.9924 72.807 17.8554 70.88C18.1475 70.6224 18.6496 70.3023 18.6651 69.9647C17.3201 68.4728 16.3179 66.6619 14.7108 65.4137C13.4533 67.3188 11.1455 68.1398 8.98531 68.4398L9.04294 68.533L9.07139 68.5788ZM11.1468 19.9064C11.2983 21.4029 12.0237 22.8893 11.5239 24.3895C11.3842 25.4954 12.2484 26.9301 13.507 26.6546C14.1986 26.3939 14.2407 25.5065 14.7544 25.0478C15.5756 23.8765 16.8482 22.9343 17.3122 21.5396C17.3273 20.4943 16.0916 20.1537 15.2608 19.9986C14.8103 19.9476 14.4007 19.924 14.6638 19.4739C14.6376 18.8452 13.8063 18.9759 13.3894 18.8118C12.5798 18.5773 11.3449 18.3774 11.1735 19.3763C11.1407 19.5509 11.1381 19.7297 11.1469 19.9066L11.1468 19.9064ZM17.123 76.9656C18.3708 78.1732 20.4178 77.7634 21.6348 76.726C22.3714 76.1701 23.1907 75.6059 23.6696 74.8165C23.6059 73.2958 21.8943 72.7525 21.2299 71.5655C19.6912 71.1394 18.2521 72.4563 17.8868 73.8712C17.5112 74.8583 17.3326 75.9031 17.0676 76.9217L17.123 76.9656ZM17.8356 17.1122C17.9681 18.2036 19.2646 19.1781 20.2993 18.5026C21.9963 17.7018 23.1278 16.1178 24.3631 14.785C24.6661 13.822 23.6968 12.968 22.8834 12.647C21.3576 12.0223 19.6735 12.2993 18.0723 12.2612C17.8626 13.8691 17.896 15.4957 17.8356 17.1122ZM22.677 78.0167C23.4872 79.4175 24.2305 81.2051 25.8846 81.7891C27.6615 81.4651 29.8242 81.3529 31.0036 79.7789C31.4111 79.1129 31.3903 77.9112 30.4469 77.7277C28.4884 76.9228 26.6328 75.8825 24.7967 74.8652C23.6822 74.6893 23.0258 75.9112 22.8685 76.8367C22.7615 77.2209 22.6647 77.6152 22.677 78.0167ZM23.5304 8.48227C23.9421 10.3843 23.828 12.7086 25.489 14.064C27.048 14.0205 28.1111 12.6999 29.3848 12.0008C30.0156 11.2342 29.492 10.1271 28.9957 9.43222C28.0362 8.17361 26.5034 7.18878 24.8783 7.23586C24.2368 7.32156 23.5639 7.79154 23.5304 8.48227ZM29.968 10.2238C30.8155 11.3166 32.4262 11.0272 33.5205 10.5224C34.6042 10.0174 35.7698 9.58708 36.7904 9.00576C37.5503 6.80743 35.2231 4.20641 32.9465 4.81144C32.1973 5.22159 32.0702 6.19186 31.4916 6.7752C30.7826 7.79297 29.8815 8.92387 29.968 10.2238ZM31.1217 81.4641C31.2042 82.6507 32.529 83.0896 33.3067 83.7674C34.015 84.2616 34.6054 84.9274 35.2653 85.4452C37.2185 85.4185 38.7228 83.609 39.0249 81.8056C38.5027 80.2807 36.7141 79.8537 35.3 79.6277C34.301 79.5057 33.2843 78.5511 32.2698 79.174C31.4938 79.6451 31.1161 80.5862 31.1217 81.4641ZM37.3514 7.70338C37.4076 8.74833 38.6891 9.24447 39.5684 8.85769C41.3905 8.64722 43.3348 8.73592 45.0038 7.8582C45.1151 6.16791 43.2858 5.6498 43.6821 3.93301C43.3834 3.48186 42.7848 3.36084 42.4039 3.02843C41.7603 2.9966 41.5899 3.13247 41.0721 3.37623C39.7372 4.58421 38.3852 5.83996 37.4022 7.34631C37.361 7.46014 37.3432 7.5826 37.3514 7.70338ZM39.5704 82.1036C39.87 83.59 41.4927 84.1603 42.6903 84.7674C43.6109 84.9923 43.6885 86.31 44.6603 86.3981C46.026 86.3499 46.74 84.9213 47.0406 83.771C47.3832 82.8458 46.9984 81.4339 45.8574 81.3517C44.9002 81.3606 43.9347 81.6434 42.9976 81.3214C41.9128 81.0862 40.4515 80.8008 39.6688 81.8248C39.6148 81.908 39.5741 82.0036 39.5704 82.1036ZM44.9811 7.31361C45.0661 8.23125 46.1959 8.38134 46.9092 8.55477C48.5732 8.79523 50.2829 8.55087 51.9272 8.4517C53.6552 6.85744 53.3437 3.89453 51.7889 2.29556C51.501 2.08789 51.014 1.52604 50.8041 2.02397C49.3835 3.8637 46.4891 3.76936 45.2851 5.85347C45.0534 6.30124 44.9631 6.81275 44.9811 7.31361ZM48.5877 82.0751C48.8043 84.2611 50.8339 85.5378 52.2601 86.9533C52.5379 87.3271 52.9452 88.1184 53.5143 87.7035C55.2512 86.6666 55.6774 84.4271 55.6165 82.5643C55.5663 81.4347 54.8632 80.0841 53.5838 80.067C52.3985 80.0563 51.436 81.0704 50.2255 80.8715C49.5283 80.9006 48.5284 81.2051 48.5877 82.0751ZM52.5664 8.07127C53.5588 9.4253 55.422 9.6344 56.9372 10.06C57.639 10.1799 58.2926 10.6295 58.9748 10.7422C60.4806 10.4927 61.0945 8.72058 60.8551 7.37824C60.7473 6.45247 60.4042 5.29221 59.4413 4.95371C57.2283 5.54305 54.5915 5.55008 52.9371 7.36554C52.7631 7.56467 52.5473 7.78557 52.5664 8.07127ZM55.6562 81.2145C56.4311 83.9263 60.0041 85.5759 62.4727 84.0091C63.1571 83.5601 62.5532 82.7036 62.647 82.0859C62.582 80.4711 62.8945 78.8809 63.0452 77.2755C60.7447 78.1514 57.912 78.1321 56.1179 80.0388C55.8569 80.3719 55.6436 80.783 55.6562 81.2145ZM60.261 10.7319C61.3886 12.3003 63.5324 12.579 64.9368 13.8335C66.142 14.4692 67.5091 13.3723 67.7429 12.1749C68.2212 10.838 68.3149 9.08006 67.2228 8.01298C66.7719 7.6747 66.2876 8.03806 65.9441 8.32283C64.2816 9.14346 62.0607 8.40135 60.664 9.83922C60.45 10.0879 60.2362 10.3874 60.261 10.7319ZM65.0375 75.9678C66.1722 77.5522 67.6794 79.3339 69.8031 79.3714C70.4241 79.3365 71.0107 79.0572 71.4808 78.6605C70.4799 77.2995 71.2868 75.5552 71.986 74.2597C72.5842 73.1339 72.9507 71.5834 72.0482 70.5073C69.4576 71.9753 67.3035 74.0552 64.9779 75.8835L65.0375 75.9678ZM67.3141 14.9603C67.6633 15.7636 68.5748 16.1172 69.1638 16.7223C70.1794 17.5118 71.1406 18.421 72.0977 19.2517C74.0811 19.281 75.3542 17.0597 75.0373 15.2678C74.9353 14.59 74.5445 13.5545 73.692 13.7213C71.8175 13.7436 69.953 12.4188 68.0976 13.2247C67.5233 13.587 67.2658 14.3065 67.3141 14.9603ZM72.7899 69.9656C73.8027 71.7285 76.221 72.2243 78.0512 71.6036C78.6913 71.3402 79.2355 70.8068 79.4149 70.129C78.0151 69.7711 77.7423 68.1352 77.4773 66.9465C77.325 66.1469 76.8717 65.2823 76.0187 65.0673C75.2772 66.9112 72.9223 67.8489 72.7899 69.9656ZM73.4871 20.6319C73.8877 21.2806 74.4825 21.8791 74.8577 22.5903C75.7357 24.0182 76.529 25.6284 77.9798 26.57C79.5353 26.935 81.0841 25.5947 81.1938 24.0594C81.4083 22.8933 81.416 21.558 80.8055 20.524C78.8861 19.8246 76.9612 18.4036 74.8142 18.8962C74.1087 19.167 73.4672 19.8409 73.4871 20.6319ZM78.0692 62.7064C80.2228 62.3405 81.7433 64.7384 83.9086 64.4022C84.5693 64.2528 85.3668 63.8586 85.4931 63.1388C85.2273 62.1783 83.6623 62.3431 83.6578 61.263C84.0264 59.4804 84.2423 57.3415 83.0032 55.8356C82.3913 55.3015 81.3452 55.2138 80.7279 55.7676C79.8019 58.0918 78.6994 60.3466 77.9009 62.7202L78.0105 62.7112L78.0692 62.7064ZM78.7212 28.41C79.2028 30.3892 80.3377 32.1394 80.9456 34.0807C81.2636 34.9497 82.3998 34.9212 83.1512 34.7449C85.5498 34.1246 86.3111 30.6607 84.5424 29.0048C83.9521 28.6494 83.8291 27.8855 83.2207 27.519C82.1921 26.7924 80.7238 26.5023 79.5539 27.0377C79.0652 27.3117 78.6985 27.8381 78.7212 28.41ZM81.3747 53.3495C82.2421 54.1414 83.8441 54.0495 84.3981 52.9329C85.3202 51.7003 85.5082 49.7976 87.0516 49.1255C87.6805 49.0257 88.1512 48.2364 87.6576 47.7235C87.2447 47.0765 86.3743 47.1703 85.7591 46.9302C84.8944 46.2849 84.6208 44.8085 83.3568 44.7345C82.6274 44.5767 82.506 45.5307 82.4532 46.0381C81.9502 48.444 81.9255 50.939 81.3063 53.3075L81.3747 53.3495ZM81.379 36.8102C81.9873 38.7186 81.9684 40.7886 82.546 42.6837C84.6428 44.1213 87.9638 42.6575 88.4256 40.2027C88.5794 39.4854 88.2956 38.6889 87.6026 38.3628C86.1872 37.2531 84.851 35.6231 82.9092 35.548C82.2288 35.6229 81.4912 36.1049 81.379 36.8102Z" fill="#FFBF00"/>
<path d="M16.8427 55.5075C17.4144 57.2747 18.4043 58.9169 19.4841 60.4017C20.7728 60.4433 19.2003 58.6564 19.1343 58.0432C18.5999 55.1921 18.7362 51.7761 20.6737 49.4418C20.9112 49.2162 21.0497 48.5765 20.5373 48.6794C18.0545 49.9386 17.001 52.9454 16.8427 55.5075ZM18.8388 30.1059C18.8336 31.3259 19.4105 32.6568 20.5087 33.0488C21.1729 33.5087 22.4507 35.8518 22.9368 34.1656C22.6377 33.6532 22.332 33.1474 22.0021 32.6547C19.9459 31.8883 19.8491 29.7118 20.2538 27.857C19.3013 28.0397 18.8433 29.0295 18.8388 30.1059ZM39.4431 51.7866C39.4411 51.8506 39.4433 51.9151 39.45 51.9803C39.5511 52.9832 39.7821 54.0145 40.631 54.6364C42.7949 57.4022 41.526 60.8359 40.8839 63.8622C40.4375 64.4688 40.9542 66.262 41.891 65.5285C41.9482 63.0365 45.2909 62.36 45.1018 59.7191C44.9676 56.1585 42.5904 52.9943 39.5775 51.2271C39.4934 51.4077 39.449 51.5945 39.4431 51.7866ZM40.0015 43.2221C40.0093 43.5287 40.0486 43.8178 40.1162 44.0621C42.3022 48.1067 44.6004 41.7453 41.9899 40.4489C40.5301 40.2336 39.9677 41.8933 40.0015 43.2221ZM40.1052 33.1943C43.1225 33.1658 46.6721 29.3357 46.1508 26.0139C46.2761 23.8985 46.0232 20.1233 42.984 20.9227C42.9092 23.2395 44.5211 25.7248 43.184 27.8643C43.7426 30.306 40.3208 31.1029 40.1052 33.1943ZM70.3852 43.0528C70.3735 44.1314 70.4621 45.1957 70.5109 46.0655C70.8518 47.6071 71.406 49.3218 72.6376 50.3618C74.1132 50.1363 74.4013 48.4325 74.4518 47.215C75.448 44.0813 74.995 40.4901 73.4072 37.6413C70.9216 38.2374 70.4108 40.68 70.3852 43.0528Z" fill="#C8B100"/>
<path d="M0.000235849 48.7722C-0.0119168 50.3604 2.27745 49.1845 2.56817 50.7263C3.17514 52.9774 3.72699 55.4869 5.76991 56.9343C5.10576 58.8745 3.18833 59.0301 1.52358 59.2864C-0.0268137 61.7105 3.74691 65.1679 6.13518 63.681C7.86811 62.827 10.0011 63.138 11.6702 62.3169C14.4851 62.6913 13.269 66.4536 10.8345 66.458C9.03343 66.3485 7.1182 67.5571 6.66958 69.1972C8.71478 72.4074 12.5213 73.6359 16.2378 73.2549C16.935 74.7921 15.7935 76.5505 15.0128 77.9563C15.9827 80.1658 19.0947 79.3163 21.0233 79.2856C23.5237 80.0148 22.9672 83.5075 25.4852 84.0484C27.8184 81.2017 32.562 83.4613 33.49 86.6956C35.9927 87.5299 38.8361 84.0788 41.1716 86.4328C42.8298 86.8642 42.6981 88.601 43.4106 89.7681C45.8846 89.4243 46.6675 86.6584 48.2487 85.2438C50.2125 85.7956 51.0658 88.2635 51.6882 90H52.2733C54.6594 89.4022 55.9391 87.3679 57.098 85.4124C59.6732 86.2949 62.3826 85.8395 64.4871 84.3264C63.2864 82.4038 63.3107 79.5853 64.9534 77.9408C67.1108 79.3357 69.4245 81.3789 72.2196 80.2271C73.8976 79.8789 72.3032 78.2408 71.9667 77.4371C72.4593 75.8189 72.9431 73.8765 73.9569 72.5714C76.9368 73.3532 81.8716 73.7213 82.2543 69.5234C79.6769 69.3811 78.2519 67.0466 79.2305 64.6444C80.7677 64.3422 81.6891 66.2801 83.3253 65.6955C86.072 66.0568 89.3243 60.7862 85.0602 60.6679C83.8331 56.5117 85.025 52.3095 88.6888 49.9205C91.2354 47.5621 86.8614 46.5088 86.0212 44.6978C87.1912 43.2044 89.6322 42.992 89.9797 40.7015V40.5064C90.2722 37.6663 87.3187 37.0926 86.1048 35.1415C86.1136 33.578 87.9125 32.1546 87.1384 30.4663C85.3109 28.9663 84.6182 26.5969 82.8017 25.086C82.9534 23.102 82.6612 21.0154 81.9289 19.1869C80.2114 18.4052 78.1461 18.1928 76.8289 16.6292C76.5078 15.1533 77.0376 11.5575 74.3568 12.3786C72.8108 11.8706 71.0363 11.8423 69.5981 11.0781C68.9647 9.50365 68.8922 7.5219 67.5903 6.26714C65.6045 6.05035 63.834 8.28606 61.8152 7.69701C61.3204 6.18606 61.5315 4.17583 59.9943 3.10941C57.8854 3.36343 55.847 6.14642 53.7138 4.7757C53.4433 3.0392 52.8626 1.40146 51.7037 0H50.9515C48.8953 1.74744 46.1598 5.10001 43.3779 3.27811C43.0546 3.29234 41.4621 2.54469 41.5084 2.83207C41.6946 3.98763 44.6279 6.40909 44.6684 7.6577C42.8871 8.51829 40.8267 8.28837 38.92 8.62122C38.0998 8.86647 37.0968 7.56773 38.104 7.04218C39.1617 5.24655 41.1834 4.90582 42.4809 3.40144C40.5703 1.36084 39.096 4.92685 37.0552 4.98378C35.452 3.80129 33.5891 3.08974 31.7023 2.4307C31.3834 4.28764 30.6116 6.15334 29.1713 7.41904C26.9677 6.71393 24.676 5.97372 22.6704 4.80882C21.485 6.42487 22.6463 9.06138 21.9536 11.0388C19.882 11.9366 17.7378 10.9117 15.6465 10.7869C16.0225 13.5198 17.298 16.3207 16.5371 19.1149C15.3916 19.6207 14.6694 18.9697 13.7332 18.7529C12.0002 18.403 9.79893 17.6307 8.44426 19.1608C8.14738 20.2995 9.95494 20.5645 10.0737 21.5958C10.2518 23.1506 10.2805 24.7184 10.5994 26.2557C8.30352 25.8878 4.16913 26.1857 4.52979 29.3805C6.30889 31.3754 6.80128 34.0644 7.91845 36.4207C8.26371 37.7082 6.24057 37.0666 5.67972 37.0776C3.55975 36.4951 0.500739 38.7923 1.78064 40.9579C2.18088 42.0834 4.03234 41.2118 4.27425 42.4644C4.52715 43.8264 4.6547 45.2279 5.29685 46.4826C3.3616 45.7622 0.535705 45.6045 0.0343006 48.2213L0.0343006 48.4162C0.0117594 48.5483 0.000748249 48.6665 -6.10352e-05 48.7724L0.000235849 48.7722ZM0.0345974 89.9993H0.206062C0.164279 89.9555 0.0785803 89.8702 0.0345974 89.8286L0.0345974 89.9993ZM2.22068 48.1087C3.53137 46.3416 5.64232 49.9767 7.52919 48.6825C8.92124 47.719 8.72998 50.1802 8.89712 50.9509C8.60903 52.4728 10.1021 53.7935 9.58092 55.2453C8.03712 56.1957 6.24064 54.8752 5.24443 53.7234C3.5357 52.0657 5.18072 48.7131 2.22068 48.1087ZM2.87149 39.6562C2.89816 38.7713 4.11792 38.2535 4.83972 38.8798C6.1724 40.0119 9.33939 37.1129 8.7962 40.0801C8.41795 41.9567 9.0623 44.3195 8.33438 45.9487C4.62443 46.2684 6.66743 40.2901 2.99046 40.1806C2.90284 39.9965 2.86655 39.82 2.87149 39.6562ZM3.41475 61.1872C3.41475 60.1383 5.45988 60.4298 5.90637 59.4925C6.75524 57.7867 8.81562 56.2757 10.7465 57.1451C11.1115 58.54 12.6356 59.9368 12.2024 61.4171C9.34128 60.6573 5.78982 63.7558 3.41475 61.1872ZM6.67168 28.9974C7.02574 27.0222 10.925 28.2572 11.8531 29.3915C10.9866 31.2222 10.8214 33.7273 9.44919 35.201C7.17528 34.0251 8.80711 30.4492 6.67168 28.9974ZM9.52198 68.6829C11.2153 68.4113 13.522 67.6229 14.7689 65.8929C16.161 67.0534 17.1504 68.7705 18.2895 70.0383C16.0816 72.5831 11.1977 71.488 9.52198 68.6829ZM9.57009 44.2405C9.62977 37.4186 11.664 30.4343 16.062 25.162C23.8887 11.9269 41.6446 6.10206 56.1193 10.7247C70.251 14.7451 81.6206 28.3654 81.2753 43.2627C81.9878 54.1679 77.2177 65.4059 68.5069 72.1263C55.2812 83.765 33.3998 82.7949 20.8647 70.5716C14.0473 64.4139 9.99211 55.4358 9.61165 46.3022C9.58856 45.8363 9.57471 45.3686 9.57008 44.9C9.5679 44.6804 9.56781 44.4604 9.56973 44.2403L9.57009 44.2405ZM11.4734 19.6733C11.4966 19.0013 12.263 18.9856 12.8651 19.0252C13.4243 19.2171 14.2618 19.7287 14.2618 19.7287C14.6452 20.6626 17.6237 20.2406 16.8493 21.9568C15.7916 23.4218 14.4149 24.6702 13.577 26.3103C12.2091 26.6782 11.6661 25.0555 11.9146 24.0349C12.3703 22.7477 11.4337 20.8216 11.4734 19.6733ZM17.4388 76.796C17.9138 74.9544 18.3514 71.4573 21.0234 71.8624C21.6303 72.9311 23.3059 73.4959 23.3411 74.8425C21.9534 76.1676 19.5104 78.4997 17.4388 76.796ZM18.1555 17.0346C18.2434 15.5587 18.1839 14.0586 18.3665 12.5893C20.1742 12.5893 23.7854 12.1709 24.1416 14.5906C22.8045 15.9241 19.2441 20.6871 18.1555 17.0346ZM20.2598 56.2558C20.2667 56.6687 20.3018 57.0718 20.3657 57.4582C20.7527 60.7253 23.1234 63.6112 26.3759 64.358C27.0049 63.9966 27.0732 62.9807 26.2859 62.7683C20.9882 60.7099 20.5923 51.9615 25.8065 49.5286C26.4311 49.2812 28.1198 48.6288 27.1941 47.7682C22.7562 47.3566 20.1936 52.2638 20.2598 56.2558ZM20.2688 62.2523C20.265 62.3367 20.2824 62.4307 20.3262 62.5339C21.4851 64.3055 23.871 67.1478 26.1515 66.5303C25.1201 64.9799 22.6792 63.9724 21.5973 62.1593C21.3529 61.5499 20.2951 61.6619 20.2688 62.2523ZM21.258 29.6705C21.234 30.6904 21.4645 31.7181 22.002 32.6554C22.3318 33.1481 22.6375 33.6539 22.9366 34.1664C24.4782 35.8043 26.4858 37.2498 28.7949 37.3878C29.2831 35.8374 27.2863 35.673 26.4792 34.9766C23.4378 33.332 21.9668 28.4926 24.9487 26.097C25.6481 25.5868 27.2446 23.8547 25.5535 23.6488C23.0434 24.5098 21.3195 27.064 21.2579 29.6703L21.258 29.6705ZM21.8357 23.6578C21.8341 23.7113 21.8343 23.7643 21.836 23.8162C21.8397 23.927 21.8509 24.0337 21.87 24.1351C22.9036 23.7103 24.3265 21.5512 25.0588 20.3577C23.457 19.61 21.8823 21.9977 21.8357 23.6578ZM22.9781 77.9098C23.1584 76.8827 23.5985 74.5659 25.0917 75.3258C26.8686 76.5455 28.8498 77.3778 30.8004 78.2362C31.6625 80.7173 27.5501 81.2032 25.8304 81.4682C24.5131 80.8506 23.7082 79.1886 22.9781 77.9098ZM23.8533 8.41469C24.6824 5.93585 30.1805 9.35198 29.226 11.7585C27.9989 12.3454 26.9895 13.587 25.6414 13.7622C24.0954 12.468 24.2843 10.2037 23.8533 8.41469ZM30.2064 55.9681C30.2153 56.545 30.2998 57.1127 30.4727 57.6525C31.0577 60.5956 33.3384 63.2233 35.9356 64.6051C37.7521 65.273 37.2661 63.2801 36.7317 62.4239C34.5502 58.0903 36.4435 53.2336 36.0521 48.67C33.1853 48.3245 30.2842 52.1461 30.2072 55.7205C30.2054 55.8032 30.2051 55.8857 30.2064 55.9681ZM30.2243 10.0198C30.5124 8.18914 32.0628 6.85994 32.8456 5.2198C34.8117 4.30666 37.2527 7.04833 36.4786 8.90302C34.6907 9.39571 31.5765 11.7694 30.224 10.0198H30.2243ZM31.4517 81.4594C31.4018 80.2592 32.4642 78.7371 33.7034 79.4633C35.3329 80.256 38.0381 79.9472 38.7154 81.9224C38.2206 83.4947 37.1143 85.093 35.2537 85.1215C34.2619 83.7813 32.6434 83.1397 31.5438 81.9463C31.4885 81.7954 31.4588 81.6308 31.4517 81.4594ZM31.9925 55.5082C31.991 55.4033 31.9912 55.2982 31.9932 55.1931C32.0291 53.343 32.65 51.4897 34.3676 50.8046C37.0505 53.4301 30.5521 55.2781 33.4725 58C35.5639 58.2277 34.5456 60.9849 35.3813 62.3885C33.7693 61.5914 32.8676 59.3666 32.2585 57.6038C32.1033 56.9656 32.0039 56.2424 31.9925 55.5082ZM31.9956 29.7279C31.9931 29.995 32.0021 30.2586 32.0231 30.5176C32.2672 33.3468 34.9963 34.6322 37.356 35.4665C39.2649 33.6731 36.9187 30.8528 37.6158 28.6871C37.1474 26.0156 38.3568 23.6815 39.2232 21.3056C34.6956 20.9833 32.0337 25.7208 31.9956 29.7279ZM33.5367 29.2602C33.566 27.001 34.3528 24.135 36.736 23.4513C37.2594 26.0856 32.8568 27.4214 34.9217 30.0754C36.4655 30.5966 37.1471 31.9981 36.9601 33.6667C35.1656 33.3601 33.9033 31.3959 33.5404 29.7032C33.5359 29.5588 33.5348 29.4108 33.5367 29.2602ZM36.4352 67.9384C36.4385 68.3323 36.5149 68.7349 36.6634 68.9826C37.3539 70.3009 37.9435 72.4795 39.76 72.4335C39.3113 70.6817 37.2857 69.3264 37.4968 67.2023C36.7756 66.2464 36.4279 67.0716 36.4352 67.9384ZM37.1396 53.1536C37.1409 54.668 37.2643 56.1974 37.3276 57.6919C37.4903 59.1853 37.2045 60.8279 38.2491 62.0564C37.9237 64.2484 37.1496 67.3357 39.3862 68.7876C39.8304 69.2408 41.328 69.635 41.1455 68.6233C39.5005 68.0211 38.3325 66.171 39.2233 64.4608C40.7957 60.887 40.567 56.735 38.4756 53.4328C37.6289 52.6817 38.865 49.9313 37.308 50.4547C37.1818 51.3415 37.1387 52.2449 37.1396 53.1536ZM37.6571 19.2601C37.6569 19.6421 37.7275 19.9695 37.8907 20.1801C39.848 22.0305 38.3108 17.3314 39.837 16.3285C38.9865 14.9283 37.6581 17.6045 37.6571 19.2601ZM38.569 43.0346C38.5726 43.26 38.5976 43.4728 38.6405 43.6539C38.8274 44.6678 39.5466 45.9315 40.6682 45.9928C39.9161 44.4271 39.3728 42.6948 40.037 40.9648C38.9417 40.8456 38.5535 42.0578 38.569 43.0346ZM38.9072 33.2217C38.9076 33.6509 38.9219 34.083 38.9549 34.5185C40.2062 34.0236 40.0104 31.0893 41.3476 29.9747C43.9844 26.6615 40.9212 22.8423 41.218 19.2379C41.5721 18.6992 42.6869 17.2629 41.2816 17.5607C38.7724 19.1176 40.8 22.2183 39.5003 24.3096C39.5927 27.3446 38.904 30.2171 38.9072 33.2217ZM39.8924 82.0977C40.7742 80.5364 43.7275 82.2947 45.2889 81.6837C48.8647 81.2042 45.223 88.7655 43.7144 85.0451C42.5335 83.9983 40.3652 83.8342 39.8924 82.0977ZM42.4311 72.0497C42.4288 72.2 42.4632 72.3782 42.5424 72.5875C43.9784 75.4671 47.7148 74.3919 50.2416 75.4846C53.1928 74.9613 57.2923 75.2196 59.1681 72.6883C56.9118 71.8627 55.0555 74.5519 52.7948 73.814C50.1514 73.3804 47.1276 73.5994 44.9878 71.7227C44.2547 71.305 42.4474 70.9978 42.4313 72.0498L42.4311 72.0497ZM43.2087 49.8825C45.8674 53.7212 46.6831 58.4818 46.2565 63.0431C45.9794 65.5832 49.399 66.5229 51.2529 65.4214C51.3409 64.2258 48.9506 64.7051 49.0408 63.4766C49.6456 59.7671 49.41 55.7927 46.8612 52.7905C46.2719 51.7372 44.1323 48.7547 43.2087 49.8825ZM43.4111 67.366C44.0994 68.6273 45.3175 69.4285 46.6634 67.8891C48.7745 70.2716 52.5263 70.0615 54.8046 68.0732C55.9811 68.1038 55.383 66.6695 54.6771 67.0878C52.7199 67.9024 50.2304 68.7412 48.2622 67.5565C46.2478 68.4084 48.0224 64.9485 45.9771 66.8076C47.6132 64.0703 43.9433 66.4287 43.4111 67.366ZM43.8289 20.5133C44.7371 20.7585 45.6145 21.0763 46.4525 21.4836C47.772 21.3435 46.9164 19.4822 47.785 18.8668C49.6169 17.8814 51.7303 18.2337 53.6721 18.6301C52.7441 16.576 49.3774 16.3857 47.5565 17.4982C46.6681 19.1208 43.9498 18.5994 43.8289 20.5133ZM43.8588 38.6583C43.8594 38.7134 43.8676 38.7772 43.8839 38.8506C46.2435 41.1674 45.6013 45.0039 44.0948 47.4345C47.3672 46.6725 47.6948 41.6292 45.5308 39.4438C45.4649 38.9737 43.847 37.8321 43.8588 38.6583ZM45.1284 35.671C49.3684 34.1338 49.7708 29.2024 50.0809 25.368C54.3934 30.2053 50.9013 36.2403 50.954 41.6491C52.4033 43.4557 50.6679 45.4376 51.4574 47.4873C52.7483 52.4822 53.5927 58.3375 50.6283 62.8966C50.5887 63.6346 51.8138 63.9937 52.2756 63.444C57.0433 60.5185 61.1863 56.5002 64.8786 52.298C67.1965 46.2564 67.2339 38.7104 63.3832 33.2951C69.2439 36.1768 66.4862 43.6528 67.1592 48.8163C66.7875 51.1506 64.6502 54.2141 62.6423 56.4805C62.1409 57.0805 63.0359 57.7179 63.4406 57.0194C65.9872 53.8771 68.9998 50.4457 68.9844 46.1624C69.3318 47.0121 69.5188 48.7527 70.8207 48.6017C70.1279 46.1797 69.8729 43.6878 70.3853 41.2067C69.6574 39.3651 69.0747 44.0909 68.6854 41.7521C69.3386 36.6499 65.4395 32.3669 61.0984 30.2976C60.575 30.0611 60.6475 30.9107 60.2692 31.0531C57.3136 28.0925 52.6336 26.8331 49.7813 23.5572C49.3591 21.4331 53.3793 23.9384 52.7966 21.6062C51.7212 19.8128 48.7347 20.4608 47.7539 21.9696C48.3807 26.6973 47.7472 31.6025 45.1279 35.6711L45.1284 35.671ZM45.3102 7.26289C45.2407 4.1339 49.5585 4.39601 51.088 2.19177C52.8517 3.14214 53.4519 6.81639 51.7058 8.21128C49.7002 8.11274 46.9691 8.84851 45.3307 7.57625C45.3191 7.46805 45.3124 7.36384 45.3102 7.26289ZM46.4736 16.668C49.5106 15.9103 52.7169 15.9849 55.5186 17.4762C57.4011 17.3382 53.9596 16.2431 54.6259 15.8599C52.7808 14.7891 47.782 13.9001 46.4736 16.668ZM48.9168 82.0112C48.9477 80.8923 51.0744 81.3824 51.8577 80.9718C56.5353 78.1535 55.9371 86.6348 53.1002 87.5392C51.8841 85.6121 49.3771 84.7209 48.9395 82.2574C48.9219 82.1678 48.9147 82.0858 48.9168 82.0112ZM49.7291 71.3433C53.0102 72.0002 57.714 70.6556 59.183 67.4958C56.278 69.1009 52.2625 70.4323 49.7291 71.3433ZM52.3001 40.0271C52.3329 37.7103 52.8881 35.3309 53.6897 33.47C54.09 39.7284 53.978 46.1973 54.3584 52.5301C54.1913 53.152 54.4926 54.7856 53.6921 54.9761C52.6959 50.8462 52.8849 46.3438 52.4517 42.3014C52.3362 41.5646 52.2892 40.7994 52.3001 40.0271ZM52.8697 8.0234C54.0814 5.95624 57.2898 5.86633 59.5241 5.27718C61.0151 6.47062 61.0021 10.2504 58.8008 10.4365C56.9447 9.36574 54.3827 9.58684 52.8697 8.0234ZM53.7384 60.6243C55.104 56.1045 55.2491 51.2609 54.8335 46.5748C54.6158 41.0127 55.1964 35.4067 54.2552 29.8862C53.4459 27.4074 56.208 29.0805 56.9447 29.884C57.5671 33.357 59.2142 36.9069 58.2707 40.3711C59.3175 41.8733 59.4146 43.9468 58.5525 45.5257C60.2195 47.8709 57.1273 49.7936 58.7635 52.1126C57.5474 53.8972 58.2202 56.3763 56.296 57.8259C56.0893 58.8332 54.7567 61.8442 53.7384 60.6245L53.7384 60.6243ZM55.9725 81.1231C56.3837 78.8763 60.5071 78.4579 62.6623 77.755C62.4556 79.6863 62.0752 81.6311 62.4953 83.5669C60.3159 85.3318 56.7069 83.7028 55.9724 81.1233L55.9725 81.1231ZM60.5645 10.6557C61.4068 8.35208 65.0354 9.83875 66.7397 8.16792C68.6684 8.68909 67.6808 15.066 64.8725 13.4258C63.6014 12.2587 61.6883 12.0003 60.5645 10.6557ZM61.7497 48.3179C62.2972 44.4091 60.7578 39.1383 63.344 35.9456C65.9588 40.0295 64.3314 45.458 64.4721 50.0982C62.5985 50.6084 62.5678 48.4011 61.7497 48.3179ZM65.4266 75.9508C67.3487 74.4333 69.6952 72.2457 71.9449 70.9537C73.4007 73.2946 69.4708 75.8282 71.0454 78.5785C68.9628 80.0982 66.5746 77.5953 65.4266 75.9508ZM67.6258 15.0068C67.6544 11.5557 72.1778 14.4354 74.0932 14.0303C75.6194 15.5917 74.2979 19.0515 72.1009 18.9289C70.8034 17.4289 68.9848 16.2944 67.6258 15.0068ZM73.0796 69.815C73.3919 68.1486 75.4373 67.0053 76.1785 65.4922C77.7178 66.1535 76.8315 69.4384 78.9843 70.3187C78.1179 72.3333 73.8735 71.6457 73.0796 69.815ZM73.7634 20.5602C74.6673 17.5163 78.6282 20.0607 80.6866 20.8359C81.3595 22.9228 81.0822 26.6783 78.0342 26.2513C76.0571 24.7534 75.4238 22.2988 73.7634 20.5602ZM74.808 53.8318C78.9908 50.3982 78.5578 43.7283 77.9442 38.7422C76.9062 37.3473 76.5257 34.7414 74.8564 34.1721C76.9918 40.4721 76.7388 47.5079 74.808 53.832L74.808 53.8318ZM78.3794 62.3566C79.1118 60.2478 80.196 58.014 81.0338 55.8943C83.9103 54.8148 83.8157 59.3413 83.3605 61.0931C82.9713 62.4792 84.8052 62.3082 85.1879 63.2695C82.9513 65.7155 80.7765 62.107 78.3794 62.3566ZM79.0615 28.3426C79.1835 26.255 83.4193 27.0209 83.8378 28.8993C86.6505 30.5745 84.678 35.6874 81.3682 34.2663C80.6997 32.4159 79.8661 30.6096 79.0941 28.7986C79.0633 28.6336 79.0534 28.4818 79.0615 28.3426ZM81.6827 53.1573C82.3358 50.5274 82.3005 47.7225 83.0042 45.0794C84.8295 44.8232 84.6382 47.6436 86.5229 47.44C87.22 47.4641 88.0932 48.4867 87.0531 48.7539C84.5702 49.3779 84.7835 55.1391 81.6827 53.1573ZM81.6957 36.7254C83.2791 34.2246 86.3051 37.9451 87.9699 39.0465C88.9705 41.7027 84.7704 43.9976 82.734 42.4188C82.3975 40.5268 82.2323 38.5867 81.6957 36.7254Z" fill="#190907"/>
<path d="M53.5328 60.719L53.4926 60.6735C54.6009 57.0481 54.9215 53.226 54.7901 49.4415C54.2579 43.5801 54.936 37.6731 54.3032 31.8217C54.3028 30.8914 53.9391 30.0159 53.9042 29.0944C53.8392 28.3709 54.7426 28.1939 55.2509 28.4936C55.9522 28.8617 56.8353 29.1942 57.1779 29.9621C57.8242 33.3603 59.3881 36.8163 58.5073 40.3263C59.4429 41.7276 59.6116 43.5939 58.9705 45.1473C58.7095 45.4483 58.9218 45.6971 59.0684 45.9917C59.8114 47.6446 58.3816 49.2274 58.5066 50.8843C58.431 51.4308 59.1148 51.7887 58.8811 52.321C57.8611 54.0279 58.2737 56.3996 56.6693 57.8012C56.1733 58.6167 55.978 59.6568 55.3309 60.4183C55.0113 61.0542 53.9734 61.4311 53.5328 60.719Z" fill="#ECEAE3"/>
<path d="M61.6071 48.5078L61.505 48.4887C61.7503 46.825 61.6382 45.1384 61.5916 43.4604C61.4971 40.7656 61.481 37.7199 63.3647 35.559C63.7435 36.1367 64.076 36.7471 64.3196 37.394C65.7798 41.3652 64.6404 45.618 64.6838 49.7053C64.9118 50.4096 64.0264 50.4701 63.5646 50.3394C62.5385 50.1898 62.4741 48.853 61.6071 48.5078Z" fill="#ECEAE3"/>
<path d="M34.12 61.6816C32.7229 59.9333 31.7963 57.7321 31.7724 55.4777C31.7481 53.7521 32.2235 51.7291 33.8469 50.8118C34.1957 50.4317 34.7411 50.6745 34.9111 51.1036C35.6509 52.0832 35.0207 53.3407 34.3063 54.1317C33.6255 54.9673 32.5286 56.0263 33.093 57.1939C33.2911 57.8308 34.0372 57.8061 34.4805 58.1769C35.6769 59.5153 34.717 61.6068 35.9701 62.9243C35.2801 62.6351 34.6231 62.2411 34.12 61.6816Z" fill="#ECEAE3"/>
<path d="M37.1497 33.9256C35.0659 33.6254 33.7237 31.6265 33.321 29.7048C33.2946 27.5018 33.7787 24.8874 35.8006 23.622C36.1347 23.5045 36.5672 23.0611 36.916 23.3288C37.324 24.7879 36.0903 26.0314 35.2804 27.0812C34.5824 27.8065 34.2517 29.1684 35.134 29.8978C36.7277 30.4708 37.4896 32.3418 37.1497 33.9256Z" fill="#ECEAE3"/>
</svg>
