<svg width="90" height="90" viewBox="0 0 90 90" fill="none" xmlns="http://www.w3.org/2000/svg">
<g clip-path="url(#clip0_1486_14843)">
<path d="M51.114 77.8386C51.114 72.0493 46.5358 67.3562 40.8882 67.3562C35.2407 67.3562 30.6625 72.0493 30.6625 77.8386C30.6625 83.6279 35.2407 88.321 40.8882 88.321C46.5358 88.321 51.114 83.6279 51.114 77.8386Z" fill="#F4D7D7" stroke="black" stroke-width="0.947368" stroke-linecap="round" stroke-linejoin="bevel"/>
<path d="M52.0508 10.8717C52.0508 5.0824 47.4725 0.389248 41.825 0.389248C36.1775 0.389248 31.5992 5.0824 31.5992 10.8717C31.5992 16.661 36.1775 21.3541 41.825 21.3541C47.4725 21.3541 52.0508 16.661 52.0508 10.8717Z" fill="#F4D7D7" stroke="black" stroke-width="0.947368" stroke-linecap="round" stroke-linejoin="bevel"/>
<path d="M16.3453 44.3495C16.3745 57.2177 18.9071 69.3919 30.8717 75.8116C42.8654 82.2601 56.8095 80.6697 69.8513 76.6213C73.956 75.3489 77.1 73.0933 79.6618 70.5197C86.1823 63.9844 88.8023 53.3139 88.8314 44.1471C88.8314 44.0893 88.8314 44.0603 88.8314 44.0025C88.8314 43.9735 88.8314 43.9158 88.8314 43.8579C88.8023 34.691 86.1823 24.7145 79.6618 18.1791C77.1 15.6054 73.956 13.3499 69.8513 12.0775C56.8095 8.02941 42.8654 6.46786 30.8717 12.8872C18.9071 19.3069 16.3744 31.4812 16.3453 44.3495Z" fill="url(#paint0_linear_1486_14843)" stroke="#1A1A1A" stroke-width="1.77112" stroke-linecap="round" stroke-linejoin="bevel"/>
<path d="M70.026 30.4113C74.0142 30.4113 77.2165 37.0045 77.2165 45.1593C77.2165 53.0536 74.1889 59.5312 70.3462 59.8782L70.026 30.4113Z" fill="black"/>
<path d="M70.026 30.4113C74.0142 30.4113 77.2165 37.0045 77.2165 45.1593C77.2165 53.0536 74.1889 59.5312 70.3462 59.8782" stroke="black" stroke-width="0.354224"/>
<path d="M75.0622 42.6723C75.1787 40.9373 75.5571 39.5203 76.5177 38.8263C76.6633 39.9252 76.8089 40.9662 76.8671 42.1807C76.0229 42.441 75.6153 43.2796 75.1495 44.3785C75.0622 43.8869 75.004 43.3085 75.0622 42.6723ZM75.1495 44.3785C75.1787 44.4075 75.1787 44.4363 75.1787 44.4363C75.6444 43.3663 76.838 41.4577 76.9253 42.2674C77.2165 44.6098 77.1873 47.1545 76.8672 49.7571C76.838 50.1329 76.7798 50.5088 76.7216 50.8848C75.3825 50.5378 74.5092 48.6871 74.6547 46.4605C74.7129 45.7086 74.9166 45.0147 75.1495 44.3785Z" fill="#FF0000"/>
<path d="M75.1495 44.3785C75.6153 43.2796 76.0229 42.441 76.8671 42.1807C76.8089 40.9662 76.6633 39.9252 76.5177 38.8263C75.5571 39.5203 75.1787 40.9373 75.0622 42.6723C75.004 43.3085 75.0622 43.8869 75.1495 44.3785ZM75.1495 44.3785C75.1787 44.4075 75.1787 44.4363 75.1787 44.4363C75.6444 43.3663 76.838 41.4577 76.9253 42.2674C77.2165 44.6098 77.1873 47.1545 76.8672 49.7571C76.838 50.1329 76.7798 50.5088 76.7216 50.8848C75.3825 50.5378 74.5092 48.6871 74.6547 46.4605C74.7129 45.7086 74.9166 45.0147 75.1495 44.3785Z" stroke="black" stroke-width="0.442779"/>
<path d="M49.2697 28.6763C49.619 35.4719 44.4373 41.3132 44.4373 41.3132C44.4373 41.3132 36.1116 36.1948 35.7623 29.3992C35.4421 22.6036 39.0518 15.9236 39.0518 15.9236C39.0518 15.9236 48.9203 21.8806 49.2697 28.6763Z" fill="white" stroke="black" stroke-width="0.472298"/>
<path d="M47.6104 30.903C47.7269 33.3031 46.0966 35.3273 43.9425 35.443C41.8174 35.5587 39.9834 33.7369 39.867 31.3367C39.7505 28.9655 41.3807 26.9413 43.5058 26.8256C45.66 26.7099 47.4939 28.5317 47.6104 30.903Z" fill="#241C1C" stroke="black" stroke-width="0.413261"/>
<path d="M58.0031 39.5782C58.9928 39.5782 59.9244 40.7059 60.4193 42.4988C60.9142 44.3206 60.9142 46.5473 60.4193 48.3691C59.9244 50.1619 58.9928 51.2897 58.0031 51.2897" stroke="black" stroke-width="0.560854" stroke-linecap="round" stroke-linejoin="bevel"/>
<path d="M49.1242 60.1673C49.5899 53.3717 44.4956 47.4727 44.4956 47.4727C44.4956 47.4727 36.1116 52.4464 35.6459 59.2709C35.2092 66.0664 38.7316 72.8042 38.7316 72.8042C38.7316 72.8042 48.6875 66.9918 49.1242 60.1673Z" fill="white" stroke="black" stroke-width="0.472298"/>
<path d="M47.6104 57.9985C47.7559 55.6272 46.1548 53.5741 44.0298 53.4295C41.8756 53.256 40.0125 55.0778 39.867 57.449C39.7214 59.8492 41.3225 61.8734 43.4476 62.0469C45.5727 62.1915 47.4357 60.3697 47.6104 57.9985Z" fill="#241C1C" stroke="black" stroke-width="0.413261"/>
<path d="M24.8748 8.05842C70.317 10.314 70.6955 10.3718 70.6955 10.3718L24.8748 8.05842Z" fill="#483737"/>
<path d="M26.7087 17.6875C70.2006 14.709 70.579 14.709 70.579 14.709L26.7087 17.6875Z" fill="#483737"/>
<path d="M26.476 12.5113C78.3518 12.627 78.7885 12.6559 78.7885 12.6559L26.476 12.5113Z" fill="#483737"/>
<path d="M24.8748 80.7163C70.317 78.4607 70.6955 78.4318 70.6955 78.4318L24.8748 80.7163Z" fill="#483737"/>
<path d="M31.1435 75.83H33.2549L33.2518 75.3185L37.8324 80.9127L36.4703 67.8503L41.6883 65.9286L38.6393 54.3499L43.3402 50.0428L38.5334 42.9142L42.1981 32.694L37.5291 29.233L39.9479 18.4865L35.2409 19.0943L35.6295 6.42516L31.3233 12.7781L31.1434 11.1603L31.1435 75.83Z" fill="#483737" stroke="black" stroke-width="0.588348" stroke-linecap="round" stroke-linejoin="bevel"/>
<path d="M21.5 75.5L28 78.5L27 12L17 17L9.5 21L4.5 29.5L1.5 39.5L1.5 48.5L3.5 60L11 69.5L21.5 75.5Z" fill="#7B8C42"/>
<path d="M25.6656 12.7034C25.3942 12.9694 25.0526 13.2351 24.619 13.4659C22.9901 14.3327 17.7622 16.5294 15.5411 17.8071C7.06863 21.9713 1.04944 32.672 1.04944 45.2247C1.04944 58.365 7.50485 69.4191 16.6046 73.1266C19.4322 74.5924 24.1287 76.6125 25.5776 77.3553C25.8206 77.4798 26.0259 77.6188 26.2038 77.7632C27.5983 84.6128 29.3978 88.7662 31.3345 88.7444C35.5268 88.6978 38.7732 69.118 38.5857 45.0115C38.3982 20.9054 34.8476 1.40119 30.6553 1.44785C28.7032 1.46962 26.9564 5.72745 25.6656 12.7034Z" stroke="black" stroke-width="2.33563" stroke-miterlimit="10" stroke-linecap="round"/>
<path d="M38.5898 45.0096C38.4024 20.9022 34.8518 1.3971 30.6594 1.44374C26.467 1.49039 23.2202 21.0711 23.4076 45.1785C23.595 69.2858 27.1456 88.7909 31.338 88.7443C35.5305 88.6976 38.7772 69.1169 38.5898 45.0096Z" fill="#7B8C42" stroke="black" stroke-width="0.389291" stroke-miterlimit="10"/>
<path d="M27.2333 79.3363C27.2333 79.3363 27.0262 78.0982 25.5773 77.3553C24.1284 76.6125 19.4318 74.5924 16.6043 73.1266C7.50448 69.4191 1.04907 58.365 1.04907 45.2247C1.04907 32.672 7.06827 21.9715 15.5407 17.807C17.7618 16.5294 22.9897 14.3327 24.6186 13.4659C26.2475 12.5992 26.6118 11.2372 26.6118 11.2372" stroke="black" stroke-width="0.389272" stroke-miterlimit="10" stroke-linecap="round"/>
<path d="M27.5104 5.47823C28.1656 4.00594 28.8743 3.20116 29.6185 3.19279C33.2307 3.15262 36.3048 21.8552 36.4846 44.9663C36.6644 68.0774 33.8818 86.8453 30.2697 86.8857C29.4043 86.8953 28.5698 85.8264 27.7986 83.8814C28.8697 87.0003 30.0729 88.7584 31.3343 88.7444C35.5266 88.6978 38.7731 69.118 38.5856 45.0115C38.3981 20.9054 34.8475 1.40119 30.6552 1.44785C29.5213 1.46041 28.4568 2.90466 27.5104 5.47823Z" fill="#6B784B" stroke="black" stroke-width="0.389272" stroke-miterlimit="10"/>
<path d="M38.3786 46.3077L29.282 68.6368L34.7263 70.707L43.8229 48.3778L38.3786 46.3077Z" fill="#483737" stroke="black" stroke-width="0.947368" stroke-linecap="round" stroke-linejoin="bevel"/>
<path d="M38.3786 40.5417L29.282 18.2125L34.7263 16.1424L43.8229 38.4716L38.3786 40.5417Z" fill="#483737" stroke="black" stroke-width="0.947368" stroke-linecap="round" stroke-linejoin="bevel"/>
<path d="M62.2678 46.3929C62.2678 46.3929 63.5824 66.4988 67.1352 69.3895C70.6881 72.2802 70.7074 69.4957 70.7074 69.4957V22.7538C70.7074 22.7538 71.1116 19.8305 67.3973 22.6654C63.6831 25.5004 62.2678 46.3929 62.2678 46.3929Z" fill="#483737" stroke="black" stroke-width="0.776938" stroke-linecap="round" stroke-linejoin="bevel"/>
<path d="M67.1434 66.5712C70.5383 68.2747 70.5383 68.2747 70.5383 68.2747" stroke="black" stroke-width="0.571905"/>
<path d="M67.1434 66.5712C70.5383 68.2747 70.5383 68.2747 70.5383 68.2747" stroke="black" stroke-width="0.571905"/>
<path d="M66.7876 64.0083C70.5219 65.7118 70.5219 65.7118 70.5219 65.7118" stroke="black" stroke-width="0.599819"/>
<path d="M66.4319 61.4455C70.5057 63.1489 70.5057 63.1489 70.5057 63.1489" stroke="black" stroke-width="0.626491"/>
<path d="M66.076 58.8825C70.4894 60.5859 70.4894 60.5859 70.4894 60.5859" stroke="black" stroke-width="0.652072"/>
<path d="M65.7202 56.3196C70.473 58.0231 70.473 58.0231 70.473 58.0231" stroke="black" stroke-width="0.676687"/>
<path d="M65.3644 53.7568C70.4567 55.4602 70.4567 55.4602 70.4567 55.4602" stroke="black" stroke-width="0.700438"/>
<path d="M65.0087 51.1939C70.4404 52.8973 70.4404 52.8973 70.4404 52.8973" stroke="black" stroke-width="0.723409"/>
<path d="M64.6528 48.631C70.4241 50.3345 70.4241 50.3345 70.4241 50.3345" stroke="black" stroke-width="0.745673"/>
<path d="M70.495 46.4055C64.8541 46.4055 64.99 46.4055 64.99 46.4055L65.024 46.2441" stroke="black" stroke-width="0.508127"/>
<path d="M67.1434 25.9005C70.5383 24.197 70.5383 24.197 70.5383 24.197" stroke="black" stroke-width="0.571905"/>
<path d="M67.1434 25.9005C70.5383 24.197 70.5383 24.197 70.5383 24.197" stroke="black" stroke-width="0.571905"/>
<path d="M66.7876 28.4633C70.5219 26.7599 70.5219 26.7599 70.5219 26.7599" stroke="black" stroke-width="0.599819"/>
<path d="M66.4319 31.0262C70.5057 29.3228 70.5057 29.3228 70.5057 29.3228" stroke="black" stroke-width="0.626491"/>
<path d="M66.076 33.5892C70.4894 31.8857 70.4894 31.8857 70.4894 31.8857" stroke="black" stroke-width="0.652072"/>
<path d="M65.7202 36.1521C70.473 34.4486 70.473 34.4486 70.473 34.4486" stroke="black" stroke-width="0.676687"/>
<path d="M65.3644 38.7149C70.4567 37.0115 70.4567 37.0115 70.4567 37.0115" stroke="black" stroke-width="0.700438"/>
<path d="M65.0087 41.2778C70.4404 39.5743 70.4404 39.5743 70.4404 39.5743" stroke="black" stroke-width="0.723409"/>
<path d="M64.6528 43.8407C70.4241 42.1372 70.4241 42.1372 70.4241 42.1372" stroke="black" stroke-width="0.745673"/>
<path d="M6.65209 40.7462C5.97558 44.405 5.5 45.5 5.64955 46.2471C5.7405 46.7015 6.14022 46.5731 6.30405 46.5454C6.62926 46.4639 7.11831 46.1917 7.77118 45.8926C8.36862 45.4288 8.97246 44.806 9.31981 43.9592C9.94334 42.4391 10.3357 41.3335 10.7315 40.5392C11.0844 39.8309 11.3753 39.0555 11.765 38.3091C12.3885 37.1151 12.5501 36.36 13.2052 35.5118C13.8557 34.6699 14.4095 33.9171 15.2429 32.7675C16.0335 31.6769 17.3719 30.3692 18.0133 29.2904C18.5309 28.4199 19.0539 27.5748 19.2889 26.4099C19.509 25.3194 20.6914 23.7704 20.0469 22.3631C19.9361 22.121 19.7209 22.121 19.5302 22.1488C19.3395 22.1765 19.1769 22.2267 19.0142 22.2849C18.2505 22.5579 17.2705 22.8661 16.569 23.0999L14.6129 23.752C13.96 23.9696 13.2859 24.1485 12.6567 24.5679C12.0038 25.0031 11.4159 25.5171 11.0274 26.1988C10.5921 26.9626 10.1381 27.8195 9.85939 28.5087C9.45104 29.5186 8.98366 30.9171 8.71829 31.8799C8.19909 33.7635 7.51233 35.6746 7.33349 36.7964C7.16884 37.8291 6.96716 39.0421 6.65209 40.7462Z" fill="#483737" fill-opacity="0.2"/>
</g>
<defs>
<linearGradient id="paint0_linear_1486_14843" x1="18.8083" y1="59.0443" x2="87.7723" y2="12.5593" gradientUnits="userSpaceOnUse">
<stop stop-color="#F5D9D9"/>
<stop offset="1" stop-color="#F0C8C8"/>
</linearGradient>
<clipPath id="clip0_1486_14843">
<rect width="90" height="90" fill="white" transform="matrix(0 -1 1 0 0 90)"/>
</clipPath>
</defs>
</svg>
