<svg width="90" height="90" viewBox="0 0 90 90" fill="none" xmlns="http://www.w3.org/2000/svg">
<rect x="5" y="7" width="81" height="81" rx="32" fill="#BD21E4" stroke="black" stroke-width="2"/>
<rect x="14" y="17" width="64" height="64" rx="24" fill="#775838" stroke="black" stroke-width="2"/>
<path d="M10 63.7079C10 72.5978 18.6667 80.9401 23 84C17.7883 81.7109 13.4886 76.8234 10.4331 72.1476C6.98069 66.8643 6 60.47 6 54.1587V41H10V63.7079Z" fill="#9213B2"/>
<path d="M81 63.236C81 72.3326 72.3333 80.8689 68 84C73.5175 82.1815 77.9075 76.7707 80.9396 71.6406C84.0838 66.3208 85 60.069 85 53.8896V40H81V63.236Z" fill="#9213B2"/>
<ellipse cx="46" cy="47.5" rx="31" ry="9.5" fill="#4A3B24"/>
<path d="M35 3H56C73.6731 3 88 17.3269 88 35V43C88 44.6569 86.6569 46 85 46H6C4.34315 46 3 44.6569 3 43V35C3 17.3269 17.3269 3 35 3Z" fill="#FDBB06" stroke="black" stroke-width="2"/>
<path d="M28 20C32.883 20 37 24.3853 37 30C37 35.6147 32.883 40 28 40C23.117 40 19 35.6147 19 30C19 24.3853 23.117 20 28 20Z" fill="#AE8FF9" stroke="black" stroke-width="2"/>
<path d="M63 20C67.883 20 72 24.3853 72 30C72 35.6147 67.883 40 63 40C58.117 40 54 35.6147 54 30C54 24.3853 58.117 20 63 20Z" fill="#AE8FF9" stroke="black" stroke-width="2"/>
<ellipse cx="29" cy="30" rx="4" ry="6" fill="black"/>
<ellipse cx="62" cy="30" rx="4" ry="6" fill="black"/>
<path d="M32.8405 9.4C19.0589 9.4 7.87117 21.1333 5 27C8.56063 13.6476 20.463 4.2154 34.2757 3.79998L51.5303 3.28104C65.7449 2.85354 83.6621 12.9725 86 27C81.789 13.624 66.0184 9.69333 59.1595 9.4H32.8405Z" fill="#FFDF88"/>
<path d="M11 4H24.7734C22.2124 5.13354 20.793 6.50776 20.168 7.44531C19.6954 8.1542 19.3612 9.00064 19.0547 9.75781C18.7339 10.5503 18.4229 11.3028 17.9834 12.0039C17.1542 13.3264 15.8136 14.5554 12.8477 15.0117C12.2954 15.0966 11.9431 14.9955 11.7227 14.8613C11.4997 14.7256 11.3203 14.5004 11.2139 14.1738C10.9915 13.4916 11.1337 12.4664 11.793 11.6094C12.0911 11.2215 12.0645 10.6749 11.7305 10.3174C11.3963 9.95978 10.8526 9.89647 10.4453 10.168C8.98668 11.1404 6.90017 12.1814 5.26855 12.3555C4.46396 12.4412 3.94238 12.2995 3.62793 12.0352C3.32909 11.7838 3 11.2369 3 10C3 7.64372 4.22587 6.18948 5.86328 5.27246C7.54812 4.32895 9.61717 4 11 4Z" fill="#629B88" stroke="black" stroke-width="2" stroke-linejoin="round"/>
<path d="M11 7C5.4 7 4 9.66667 4 11C3.5 6.5 7 5.5 10 5H21L19.5 7H11Z" fill="#8BD4BC"/>
<path d="M46 34C48.819 34 51.6055 34.3029 54.1982 34.8887C56.7925 35.4748 59.1292 36.3295 61.0781 37.3926C62.4303 38.1302 63.5686 38.9536 64.4736 39.8301L64.5146 39.8691L64.5596 39.9043C65.3005 40.4744 68.2272 44.1859 73.7197 45.5078C74.6536 45.7326 75.2424 46.2036 75.4297 46.543C75.5082 46.6854 75.4939 46.7546 75.4834 46.7871C75.4682 46.8343 75.3929 46.9968 75.0479 47.2051C73.5615 48.1022 71.3122 48.9556 68.3848 49.6875C65.47 50.4162 61.9906 50.9971 58.1436 51.3955C54.2978 51.7938 50.1704 52 46 52C41.8296 52 37.7022 51.7938 33.8564 51.3955C30.0094 50.9971 26.53 50.4162 23.6152 49.6875C20.6878 48.9556 18.4385 48.1022 16.9521 47.2051C16.6071 46.9968 16.5318 46.8343 16.5166 46.7871C16.5061 46.7546 16.4918 46.6854 16.5703 46.543C16.7577 46.2036 17.3464 45.7326 18.2803 45.5078C23.7725 44.1858 26.6988 40.4741 27.4404 39.9033L27.4854 39.8691L27.5254 39.8301C28.4303 38.9536 29.5692 38.1304 30.9219 37.3926C32.8708 36.3295 35.2075 35.4748 37.8018 34.8887C40.3945 34.3029 43.181 34 46 34Z" fill="#E4520E" stroke="black" stroke-width="2"/>
<path d="M46 48.5C36.4 48.5 25.3333 46.8333 21 46L18 47C21.8333 48 27 51 46 51C59.2242 51 70.5 48.3333 74.5 46.5L71.5 46C67 46.8333 55.6 48.5 46 48.5Z" fill="#FF7231"/>
<ellipse cx="11.5" cy="32.25" rx="1.5" ry="2.25" fill="#FE9F02"/>
<ellipse cx="15.25" cy="34.5" rx="0.75" ry="1.5" fill="#FE9F02"/>
<ellipse cx="12.25" cy="39" rx="2.25" ry="3" fill="#FE9F02"/>
<ellipse cx="79.5" cy="39.75" rx="1.5" ry="2.25" transform="rotate(180 79.5 39.75)" fill="#FE9F02"/>
<ellipse cx="75.75" cy="37.5" rx="0.75" ry="1.5" transform="rotate(180 75.75 37.5)" fill="#FE9F02"/>
<ellipse cx="78.75" cy="33" rx="2.25" ry="3" transform="rotate(180 78.75 33)" fill="#FE9F02"/>
<ellipse cx="43" cy="40" rx="1" ry="2" fill="black"/>
<ellipse cx="49" cy="40" rx="1" ry="2" fill="black"/>
<path d="M28 56L36 64M36 56L28 64" stroke="black" stroke-width="3" stroke-linecap="round"/>
<path d="M56 56L64 64M64 56L56 64" stroke="black" stroke-width="3" stroke-linecap="round"/>
<path d="M30 70L36 74.5L41 71.5L47 74.5L52 71.5L57 74.5L62 71.5" stroke="black" stroke-width="3" stroke-linecap="round" stroke-linejoin="round"/>
</svg>
