<svg width="91" height="90" viewBox="0 0 91 90" fill="none" xmlns="http://www.w3.org/2000/svg">
<rect x="7.03833" y="85" width="81" height="81" rx="32" transform="rotate(-90 7.03833 85)" fill="#BD21E4" stroke="black" stroke-width="2"/>
<rect x="17.0383" y="76" width="64" height="64" rx="24" transform="rotate(-90 17.0383 76)" fill="#775838" stroke="black" stroke-width="2"/>
<path d="M63.7462 80C72.6361 80 80.9784 71.3333 84.0383 67C81.7492 72.2117 76.8617 76.5114 72.1859 79.5669C66.9027 83.0193 60.5083 84 54.1971 84H41.0383V80H63.7462Z" fill="#9213B2"/>
<path d="M63.2743 9C72.3709 9 80.9072 17.6667 84.0383 22C82.2198 16.4825 76.809 12.0925 71.6789 9.0604C66.3591 5.91625 60.1074 5 53.9279 5L40.0383 5V9L63.2743 9Z" fill="#9213B2"/>
<ellipse cx="47.5383" cy="44" rx="31" ry="9.5" transform="rotate(-90 47.5383 44)" fill="#4A3B24"/>
<path d="M3.03833 55L3.03833 34C3.03833 16.3269 17.3652 2 35.0383 2H43.0383C44.6952 2 46.0383 3.34315 46.0383 5L46.0383 84C46.0383 85.6569 44.6952 87 43.0383 87H35.0383C17.3652 87 3.03833 72.6731 3.03833 55Z" fill="#FDBB06" stroke="black" stroke-width="2"/>
<path d="M20.0383 62C20.0383 57.117 24.4237 53 30.0383 53C35.653 53 40.0383 57.117 40.0383 62C40.0383 66.883 35.653 71 30.0383 71C24.4237 71 20.0383 66.883 20.0383 62Z" fill="#AE8FF9" stroke="black" stroke-width="2"/>
<path d="M20.0383 27C20.0383 22.117 24.4237 18 30.0383 18C35.653 18 40.0383 22.117 40.0383 27C40.0383 31.883 35.653 36 30.0383 36C24.4237 36 20.0383 31.883 20.0383 27Z" fill="#AE8FF9" stroke="black" stroke-width="2"/>
<ellipse cx="30.0383" cy="61" rx="4" ry="6" transform="rotate(-90 30.0383 61)" fill="black"/>
<ellipse cx="30.0383" cy="28" rx="4" ry="6" transform="rotate(-90 30.0383 28)" fill="black"/>
<path d="M9.43833 57.1595C9.43833 70.9411 21.1717 82.1288 27.0383 85C13.686 81.4394 4.25373 69.537 3.83831 55.7243L3.31937 38.4697C2.89187 24.2551 13.0108 6.33792 27.0383 4C13.6623 8.21104 9.73166 23.9816 9.43833 30.8405L9.43833 57.1595Z" fill="#FFDF88"/>
<path d="M4.03833 79L4.03833 65.2266C5.17187 67.7876 6.54609 69.207 7.48364 69.832C8.19253 70.3046 9.03897 70.6388 9.79614 70.9453C10.5886 71.2661 11.3411 71.5771 12.0422 72.0166C13.3647 72.8458 14.5937 74.1864 15.05 77.1523C15.135 77.7046 15.0338 78.0569 14.8997 78.2773C14.7639 78.5003 14.5387 78.6797 14.2122 78.7861C13.5299 79.0085 12.5047 78.8663 11.6477 78.207C11.2598 77.9089 10.7132 77.9355 10.3557 78.2695C9.99811 78.6037 9.9348 79.1474 10.2063 79.5547C11.1787 81.0133 12.2198 83.0998 12.3938 84.7314C12.4796 85.536 12.3378 86.0576 12.0735 86.3721C11.8222 86.6709 11.2752 87 10.0383 87C7.68205 87 6.22781 85.7741 5.31079 84.1367C4.36728 82.4519 4.03833 80.3828 4.03833 79Z" fill="#629B88" stroke="black" stroke-width="2" stroke-linejoin="round"/>
<path d="M7.03833 79C7.03833 84.6 9.705 86 11.0383 86C6.53833 86.5 5.53833 83 5.03833 80L5.03833 69L7.03833 70.5L7.03833 79Z" fill="#8BD4BC"/>
<path d="M34.0383 44C34.0383 41.181 34.3412 38.3945 34.927 35.8018C35.5131 33.2075 36.3679 30.8708 37.4309 28.9219C38.1685 27.5697 38.9919 26.4314 39.8684 25.5264L39.9075 25.4854L39.9426 25.4404C40.5127 24.6995 44.2242 21.7728 45.5461 16.2803C45.7709 15.3464 46.242 14.7576 46.5813 14.5703C46.7237 14.4918 46.7929 14.5061 46.8254 14.5166C46.8726 14.5318 47.0351 14.6071 47.2434 14.9521C48.1405 16.4385 48.9939 18.6878 49.7258 21.6152C50.4545 24.53 51.0354 28.0094 51.4338 31.8564C51.8321 35.7022 52.0383 39.8296 52.0383 44C52.0383 48.1704 51.8321 52.2978 51.4338 56.1436C51.0354 59.9906 50.4545 63.47 49.7258 66.3848C48.9939 69.3122 48.1405 71.5615 47.2434 73.0479C47.0351 73.3929 46.8726 73.4682 46.8254 73.4834C46.7929 73.4939 46.7237 73.5082 46.5813 73.4297C46.2419 73.2423 45.7709 72.6536 45.5461 71.7197C44.2241 66.2275 40.5124 63.3012 39.9417 62.5596L39.9075 62.5146L39.8684 62.4746C38.9919 61.5697 38.1688 60.4308 37.4309 59.0781C36.3679 57.1292 35.5131 54.7925 34.927 52.1982C34.3412 49.6055 34.0383 46.819 34.0383 44Z" fill="#E4520E" stroke="black" stroke-width="2"/>
<path d="M48.5383 44C48.5383 53.6 46.8717 64.6667 46.0383 69L47.0383 72C48.0383 68.1667 51.0383 63 51.0383 44C51.0383 30.7758 48.3717 19.5 46.5383 15.5L46.0383 18.5C46.8717 23 48.5383 34.4 48.5383 44Z" fill="#FF7231"/>
<ellipse cx="32.2883" cy="78.5" rx="1.5" ry="2.25" transform="rotate(-90 32.2883 78.5)" fill="#FE9F02"/>
<ellipse cx="34.5383" cy="74.75" rx="0.75" ry="1.5" transform="rotate(-90 34.5383 74.75)" fill="#FE9F02"/>
<ellipse cx="39.0383" cy="77.75" rx="2.25" ry="3" transform="rotate(-90 39.0383 77.75)" fill="#FE9F02"/>
<ellipse cx="39.7883" cy="10.5" rx="1.5" ry="2.25" transform="rotate(90 39.7883 10.5)" fill="#FE9F02"/>
<ellipse cx="37.5383" cy="14.25" rx="0.75" ry="1.5" transform="rotate(90 37.5383 14.25)" fill="#FE9F02"/>
<ellipse cx="33.0383" cy="11.25" rx="2.25" ry="3" transform="rotate(90 33.0383 11.25)" fill="#FE9F02"/>
<ellipse cx="40.0383" cy="47" rx="1" ry="2" transform="rotate(-90 40.0383 47)" fill="black"/>
<ellipse cx="40.0383" cy="41" rx="1" ry="2" transform="rotate(-90 40.0383 41)" fill="black"/>
<path d="M56.0383 62L64.0383 54M56.0383 54L64.0383 62" stroke="black" stroke-width="3" stroke-linecap="round"/>
<path d="M56.0383 34L64.0383 26M56.0383 26L64.0383 34" stroke="black" stroke-width="3" stroke-linecap="round"/>
<path d="M70.0383 60L74.5383 54L71.5383 49L74.5383 43L71.5383 38L74.5383 33L71.5383 28" stroke="black" stroke-width="3" stroke-linecap="round" stroke-linejoin="round"/>
</svg>
