<svg width="90" height="90" viewBox="0 0 90 90" fill="none" xmlns="http://www.w3.org/2000/svg">
<g clip-path="url(#clip0_394_11982)">
<mask id="mask0_394_11982" style="mask-type:luminance" maskUnits="userSpaceOnUse" x="0" y="0" width="90" height="90">
<path d="M0 0L0 90H90V0H0Z" fill="white"/>
</mask>
<g mask="url(#mask0_394_11982)">
<path d="M90 45C90 20.1472 69.8528 0 45 0C20.1472 0 0 20.1472 0 45C0 69.8528 20.1472 90 45 90C69.8528 90 90 69.8528 90 45Z" fill="#DE3831"/>
<path d="M45 0C56.9347 0 68.3807 4.7411 76.8198 13.1802C85.2589 21.6193 90 33.0653 90 45C90 56.9347 85.2589 68.3807 76.8198 76.8198C68.3807 85.2589 56.9347 90 45 90L45 0Z" fill="#002395"/>
<path d="M45 45L18 81C25.7893 86.842 35.2633 90 45 90C54.7367 90 64.2107 86.842 72 81L45 45Z" fill="black"/>
<path d="M10.0625 73.3494C14.6992 79.0661 20.6648 83.5609 27.4385 86.4414L45.0005 63.0264L62.5625 86.4264C69.3346 83.5501 75.3 79.0606 79.9385 73.3494L56.2385 41.9724L56.2385 1.4184C48.8578 -0.473804 41.1192 -0.473804 33.7385 1.4184V41.9724L10.0625 73.3494Z" fill="#FFB612"/>
<path d="M13.0938 76.7273C16.1593 79.8131 19.6544 82.4402 23.4708 84.5273L45.0018 55.7993L66.5327 84.5213C70.349 82.4342 73.844 79.8071 76.9097 76.7213L51.7518 43.1843L51.7518 0.503311C47.2768 -0.168689 42.7267 -0.168689 38.2518 0.503311V43.1843L13.0938 76.7273Z" fill="#007A4D"/>
</g>
</g>
<defs>
<clipPath id="clip0_394_11982">
<rect width="90" height="90" fill="white" transform="matrix(0 -1 1 0 0 90)"/>
</clipPath>
</defs>
</svg>
