<svg width="90" height="90" viewBox="0 0 90 90" fill="none" xmlns="http://www.w3.org/2000/svg">
<g clip-path="url(#clip0_394_15144)">
<path d="M90 45.0843C90 20.278 69.8528 0.168602 45 0.168602C20.1472 0.168602 0 20.278 0 45.0843C0 69.8906 20.1472 90 45 90C69.8528 90 90 69.8906 90 45.0843Z" fill="#115724"/>
<path d="M89.9778 46.3736C89.9132 49.1342 89.5511 52.1129 88.9392 54.9152C88.768 55.6992 88.7518 55.747 88.666 55.7272C88.6157 55.7159 88.0473 55.628 87.403 55.5322C76.4665 50.7762 67.0022 48.7076 56.4888 47.7447C55.1551 47.6225 51.5543 47.9463 51.3548 47.8706L51.2391 47.8267L51.3302 47.5982C51.4712 47.2447 51.6261 46.7176 51.7215 46.2654C51.8488 45.6617 51.8802 44.4121 51.7842 43.7608C51.6958 43.1594 51.4686 42.358 51.2553 41.8919C51.1676 41.7002 51.1042 41.5349 51.1144 41.5247C51.1257 41.5145 51.6986 41.3024 52.3899 41.0536C62.9444 37.2536 74.387 34.3114 86.8388 32.1958C87.6846 32.0521 88.1062 31.997 88.1252 32.0277C88.18 32.1164 88.6834 34.0424 88.8751 34.8973C89.7346 38.7308 90.074 42.2629 89.9778 46.3736Z" fill="#F5F5F5"/>
<path d="M77.8532 14.2056C79.7632 16.2032 81.6173 18.5651 83.1699 20.9785C83.6043 21.6536 83.6267 21.6987 83.5519 21.7456C83.508 21.7728 83.0441 22.112 82.5207 22.499C71.4181 26.8548 63.2604 32.0718 55.1441 38.8111C54.1145 39.6661 51.7977 42.4363 51.603 42.5236L51.4903 42.5742L51.3928 42.3482C51.242 41.9987 50.9782 41.5168 50.7253 41.1296C50.3878 40.6129 49.5246 39.7072 48.9953 39.3144C48.5066 38.9517 47.7785 38.5451 47.2973 38.3661C47.0993 38.2925 46.9375 38.2205 46.9375 38.206C46.9375 38.1916 47.193 37.6365 47.5057 36.9726C52.2769 26.8365 58.2836 16.68 65.5896 6.39585C66.0859 5.69722 66.345 5.36075 66.3802 5.36905C66.4819 5.39324 68.2021 6.39961 68.9433 6.86887C72.2668 8.97297 75.009 11.2311 77.8532 14.2056Z" fill="#F5F5F5"/>
<path d="M46.4861 0.0168761C49.2519 0.0812793 52.2362 0.442811 55.0438 1.05354C55.8292 1.22438 55.8771 1.24044 55.8573 1.32638C55.846 1.37658 55.7579 1.94388 55.6619 2.58698C50.897 13.503 48.8245 22.9495 47.8598 33.4433C47.7373 34.7745 48.0616 38.3685 47.986 38.5677L47.9422 38.683L47.7132 38.592C47.359 38.4512 46.8309 38.2967 46.3778 38.2014C45.7731 38.0743 44.5211 38.0431 43.8686 38.1389C43.2661 38.2273 42.4631 38.4537 41.9961 38.6667C41.8041 38.7544 41.6386 38.8177 41.6284 38.8075C41.6171 38.7973 41.4058 38.2244 41.1564 37.5344C37.3493 26.9996 34.4016 15.5785 32.282 3.15004C32.138 2.30575 32.0828 1.88497 32.1138 1.866C32.2026 1.81119 34.1322 1.3088 34.9887 1.11748C38.8294 0.259656 42.3677 -0.0790558 46.4861 0.0168761Z" fill="#F5F5F5"/>
<path d="M14.2559 12.1186C16.2572 10.2122 18.6235 8.36156 21.0415 6.81186C21.7178 6.37834 21.7631 6.35592 21.81 6.43063C21.8365 6.47425 22.177 6.93747 22.5648 7.45994C26.9288 18.5417 32.1556 26.6841 38.9076 34.7852C39.7641 35.8129 42.5396 38.1253 42.6271 38.3197L42.6777 38.4323L42.4513 38.5295C42.1009 38.6799 41.6183 38.9434 41.2304 39.1958C40.7127 39.5327 39.8053 40.3943 39.4118 40.9225C39.0486 41.4103 38.641 42.1371 38.4617 42.6174C38.388 42.8149 38.3158 42.9766 38.3011 42.9766C38.286 42.9766 37.7305 42.7214 37.0654 42.4095C26.9102 37.6472 16.7347 31.6517 6.43124 24.3594C5.73131 23.8641 5.39418 23.6055 5.40249 23.5703C5.42517 23.4688 6.43503 21.7518 6.90517 21.012C9.0132 17.6947 11.2758 14.9575 14.2559 12.1186Z" fill="#F5F5F5"/>
<path d="M0.0392342 43.4271C0.103864 40.6666 0.46594 37.6878 1.07785 34.8855C1.24906 34.1016 1.26493 34.0538 1.35111 34.0735C1.40137 34.0848 1.96974 34.1728 2.61407 34.2685C13.5505 39.0245 23.0148 41.0931 33.5282 42.056C34.8619 42.1782 38.4627 41.8544 38.6623 41.9302L38.778 41.974L38.6869 42.2025C38.5459 42.556 38.3909 43.0831 38.2956 43.5354C38.1682 44.139 38.1368 45.3886 38.2328 46.0399C38.3213 46.6413 38.5484 47.4427 38.7617 47.9088C38.8494 48.1006 38.9129 48.2658 38.9027 48.2761C38.8914 48.2863 38.3185 48.4983 37.6272 48.7472C27.0726 52.5471 15.6301 55.4893 3.17831 57.6049C2.33245 57.7487 1.91089 57.8037 1.89184 57.773C1.83704 57.6843 1.33361 55.7584 1.14195 54.9034C0.28252 51.07 -0.0568792 47.5378 0.0392342 43.4271Z" fill="#F5F5F5"/>
<path d="M12.1654 75.5969C10.2554 73.5994 8.40129 71.2375 6.8487 68.8241C6.41436 68.1489 6.39191 68.1038 6.46674 68.057C6.51059 68.0297 6.97452 67.6905 7.49799 67.3035C18.6005 62.9477 26.7583 57.7307 34.8745 50.9914C35.9042 50.1365 38.2209 47.3662 38.4157 47.2789L38.5287 47.2283L38.6262 47.4543C38.777 47.8038 39.0409 48.2857 39.2938 48.6729C39.6313 49.1896 40.4945 50.0953 41.0237 50.4881C41.5124 50.8508 42.2406 51.2574 42.7217 51.4364C42.9198 51.51 43.0815 51.582 43.0815 51.5965C43.0815 51.6109 42.826 52.166 42.5133 52.8299C37.7422 62.966 31.7354 73.1224 24.4295 83.4066C23.9331 84.1053 23.6741 84.4417 23.6389 84.4334C23.5372 84.4096 21.8169 83.4029 21.0757 82.9336C17.7522 80.8295 15.0097 78.5715 12.1654 75.5969Z" fill="#F5F5F5"/>
<path d="M43.5306 89.785C40.7649 89.7206 37.7806 89.359 34.973 88.7483C34.1876 88.5775 34.1397 88.5614 34.1595 88.4754C34.1708 88.4252 34.2589 87.858 34.3549 87.2148C39.1198 76.2989 41.1923 66.8523 42.157 56.3586C42.2795 55.0274 41.9552 51.4333 42.0308 51.2341L42.0746 51.1188L42.3036 51.2099C42.6578 51.3507 43.1859 51.5051 43.639 51.6004C44.2437 51.7275 45.4957 51.7588 46.1482 51.663C46.7507 51.5745 47.5537 51.3482 48.0206 51.1351C48.2126 51.0474 48.3782 50.9841 48.3884 50.9943C48.3997 51.0045 48.611 51.5775 48.8604 52.2675C52.6675 62.8022 55.6152 74.2234 57.7348 86.6518C57.8788 87.4961 57.9339 87.9169 57.9033 87.9358C57.8145 87.9907 55.8849 88.4931 55.0284 88.6844C51.1877 89.5422 47.6491 89.8809 43.5306 89.785Z" fill="#F5F5F5"/>
<path d="M75.7617 77.6812C73.7604 79.5877 71.394 81.4383 68.9761 82.988C68.2997 83.4215 68.2545 83.444 68.2076 83.3693C68.1811 83.3256 67.8406 82.8624 67.4527 82.3399C63.0888 71.2582 57.8619 63.1157 51.11 55.0147C50.2535 53.987 47.4779 51.6746 47.3905 51.4802L47.3398 51.3676L47.5662 51.2704C47.9166 51.12 48.3993 50.8565 48.7871 50.6041C49.3048 50.2672 50.2123 49.4056 50.6058 48.8774C50.969 48.3895 51.3766 47.6628 51.5558 47.1825C51.6295 46.985 51.7017 46.8233 51.7165 46.8233C51.7316 46.8233 52.287 47.0785 52.9521 47.3904C63.1073 52.1527 73.2828 58.1481 83.5863 65.4404C84.2862 65.9358 84.6234 66.1944 84.615 66.2296C84.5924 66.3311 83.5826 68.0481 83.1124 68.7879C81.0044 72.1052 78.7419 74.8423 75.7617 77.6812Z" fill="#6D872E"/>
<path d="M75.7617 77.6812C73.7604 79.5877 71.394 81.4383 68.9761 82.988C68.2997 83.4215 68.2545 83.444 68.2076 83.3693C68.1811 83.3256 67.8406 82.8624 67.4527 82.3399C63.0888 71.2582 57.8619 63.1157 51.11 55.0147C50.2535 53.987 47.4779 51.6746 47.3905 51.4802L47.3398 51.3676L47.5662 51.2704C47.9166 51.12 48.3993 50.8565 48.7871 50.6041C49.3048 50.2672 50.2123 49.4056 50.6058 48.8774C50.969 48.3895 51.3766 47.6628 51.5558 47.1825C51.6295 46.985 51.7017 46.8233 51.7165 46.8233C51.7316 46.8233 52.287 47.0785 52.9521 47.3904C63.1073 52.1527 73.2828 58.1481 83.5863 65.4404C84.2862 65.9358 84.6234 66.1944 84.615 66.2296C84.5924 66.3311 83.5826 68.0481 83.1124 68.7879C81.0044 72.1052 78.7419 74.8423 75.7617 77.6812Z" fill="#F5F5F5"/>
<path d="M52.2435 45.0972C52.2435 40.8966 48.9606 37.4914 44.9108 37.4914C40.8611 37.4914 37.5781 40.8966 37.5781 45.0972C37.5781 49.2979 40.8611 52.7031 44.9108 52.7031C48.9606 52.7031 52.2435 49.2979 52.2435 45.0972Z" fill="#F5F5F5"/>
</g>
<defs>
<clipPath id="clip0_394_15144">
<rect width="90.0001" height="90" fill="white" transform="matrix(0 -1 1 0 0 90)"/>
</clipPath>
</defs>
</svg>
