<svg width="90" height="90" viewBox="0 0 90 90" fill="none" xmlns="http://www.w3.org/2000/svg">
<g clip-path="url(#clip0_394_15161)">
<mask id="mask0_394_15161" style="mask-type:luminance" maskUnits="userSpaceOnUse" x="0" y="0" width="90" height="90">
<path d="M0 0L0 90H90V0H0Z" fill="white"/>
</mask>
<g mask="url(#mask0_394_15161)">
<path opacity="0.916" d="M89.6093 45.0059C89.6093 20.3677 69.6362 0.3946 44.998 0.3946C20.3599 0.3946 0.386719 20.3677 0.386719 45.0059C0.386719 69.644 20.3599 89.6172 44.998 89.6172C69.6362 89.6172 89.6093 69.644 89.6093 45.0059Z" fill="url(#paint0_linear_394_15161)"/>
<path d="M0.347656 45.0325C0.364567 52.2183 2.11048 59.294 5.43739 65.6599C8.7643 72.0258 13.5741 77.4942 19.4591 81.6016C23.728 70.1192 25.9634 57.6548 26.0175 45.0325C25.9904 32.3958 23.7768 19.9105 19.5233 8.4039C13.6182 12.5099 8.79078 17.9847 5.45207 24.3622C2.11336 30.7397 0.362199 37.831 0.347656 45.0325Z" fill="#1D667F"/>
<path d="M48.6562 89.4922C71.8162 87.5889 89.6463 68.2432 89.6581 45.0052C89.6411 21.7712 71.8123 2.4313 48.6563 0.528297L48.6562 89.4922Z" fill="#1D667F"/>
<path d="M54.8306 45.0056C54.8306 20.7729 51.6821 1.1284 47.7981 1.1284C43.9142 1.1284 40.7656 20.7729 40.7656 45.0056C40.7656 69.2383 43.9142 88.8828 47.7981 88.8828C51.6821 88.8828 54.8306 69.2383 54.8306 45.0056Z" fill="#667F8A" stroke="#4B6371" stroke-width="0.0217823"/>
<path d="M40.5508 45.0038C40.5508 50.8707 40.7476 56.6802 41.1301 62.1005C41.5126 67.5208 42.0733 72.4459 42.78 76.5944C43.4868 80.743 44.3258 84.0338 45.2492 86.279C46.1726 88.5241 47.1623 89.6797 48.1618 89.6797C49.1613 89.6797 50.151 88.5241 51.0745 86.279C51.9979 84.0338 52.8369 80.743 53.5437 76.5944C54.2504 72.4459 54.811 67.5209 55.1935 62.1005C55.576 56.6802 55.7729 50.8707 55.7729 45.0038C55.7729 39.1368 55.576 33.3273 55.1935 27.907C54.811 22.4867 54.2504 17.5616 53.5437 13.4131C52.8369 9.2645 51.9979 5.9737 51.0745 3.7285C50.151 1.4834 49.1613 0.327797 48.1618 0.327797C47.1623 0.327797 46.1726 1.4834 45.2492 3.7285C44.3258 5.9737 43.4868 9.2645 42.78 13.4131C42.0733 17.5616 41.5126 22.4867 41.1301 27.907C40.7476 33.3273 40.5508 39.1368 40.5508 45.0038ZM42.5751 45.0038C42.5751 34.3733 43.1637 24.1783 44.2114 16.6614C45.2591 9.1446 46.6801 4.9216 48.1618 4.9215C49.6435 4.9216 51.0646 9.1445 52.1123 16.6614C53.16 24.1783 53.7486 34.3733 53.7486 45.0038C53.7486 55.6342 53.16 65.8292 52.1123 73.3461C51.0646 80.8629 49.6435 85.0859 48.1618 85.086C46.6801 85.0859 45.2591 80.8629 44.2114 73.3461C43.1637 65.8292 42.5751 55.6342 42.5751 45.0038Z" fill="url(#paint1_radial_394_15161)" stroke="#4B6371" stroke-width="0.0228658"/>
<path d="M40.5508 45.0038C40.5508 50.8707 40.7476 56.6802 41.1301 62.1005C41.5126 67.5208 42.0733 72.4459 42.78 76.5944C43.4868 80.743 44.3258 84.0338 45.2492 86.279C46.1726 88.5241 47.1623 89.6797 48.1618 89.6797C49.1613 89.6797 50.151 88.5241 51.0745 86.279C51.9979 84.0338 52.8369 80.743 53.5437 76.5944C54.2504 72.4459 54.811 67.5209 55.1935 62.1005C55.576 56.6802 55.7729 50.8707 55.7729 45.0038C55.7729 39.1368 55.576 33.3273 55.1935 27.907C54.811 22.4867 54.2504 17.5616 53.5437 13.4131C52.8369 9.2645 51.9979 5.9737 51.0745 3.7285C50.151 1.4834 49.1613 0.327797 48.1618 0.327797C47.1623 0.327797 46.1726 1.4834 45.2492 3.7285C44.3258 5.9737 43.4868 9.2645 42.78 13.4131C42.0733 17.5616 41.5126 22.4867 41.1301 27.907C40.7476 33.3273 40.5508 39.1368 40.5508 45.0038ZM42.5751 45.0038C42.5751 34.3733 43.1637 24.1783 44.2114 16.6614C45.2591 9.1446 46.6801 4.9216 48.1618 4.9215C49.6435 4.9216 51.0646 9.1445 52.1123 16.6614C53.16 24.1783 53.7486 34.3733 53.7486 45.0038C53.7486 55.6342 53.16 65.8292 52.1123 73.3461C51.0646 80.8629 49.6435 85.0859 48.1618 85.086C46.6801 85.0859 45.2591 80.8629 44.2114 73.3461C43.1637 65.8292 42.5751 55.6342 42.5751 45.0038Z" fill="url(#paint2_radial_394_15161)" stroke="#4B6371" stroke-width="0.0228658"/>
<path opacity="0.178" d="M26.9924 45.1075C26.9924 28.0029 22.2511 14.1369 16.4025 14.1369C10.5538 14.1369 5.8125 28.0029 5.8125 45.1075C5.8125 62.2121 10.5538 76.0781 16.4025 76.0781C22.2511 76.0781 26.9924 62.2121 26.9924 45.1075Z" fill="url(#paint3_radial_394_15161)"/>
<g opacity="0.604" filter="url(#filter0_f_394_15161)">
<path d="M55.1627 45.0075C55.1627 20.6766 52.1226 0.952499 48.3724 0.952499C44.6222 0.952499 41.582 20.6766 41.582 45.0075C41.582 69.3384 44.6222 89.0625 48.3724 89.0625C52.1226 89.0625 55.1627 69.3384 55.1627 45.0075Z" fill="url(#paint4_radial_394_15161)"/>
</g>
<g opacity="0.856" filter="url(#filter1_f_394_15161)">
<path d="M85.8821 45.0056C85.8821 44.232 67.6125 43.6049 45.0758 43.6049C22.5391 43.6049 4.26953 44.232 4.26953 45.0056C4.26953 45.7791 22.5391 46.4062 45.0758 46.4062C67.6125 46.4063 85.8821 45.7791 85.8821 45.0056Z" fill="url(#paint5_radial_394_15161)"/>
</g>
<g opacity="0.856" filter="url(#filter2_f_394_15161)">
<path d="M80.3732 72.6977C80.3732 71.9052 64.3468 71.2627 44.5772 71.2627C24.8076 71.2627 8.78125 71.9052 8.78125 72.6977C8.78125 73.4903 24.8076 74.1328 44.5772 74.1328C64.3468 74.1328 80.3732 73.4903 80.3732 72.6977Z" fill="url(#paint6_radial_394_15161)"/>
</g>
<g opacity="0.856" filter="url(#filter3_f_394_15161)">
<path d="M83.0191 22.0566C83.0191 21.2723 66.0314 20.6366 45.076 20.6366C24.1205 20.6366 7.13281 21.2723 7.13281 22.0566C7.13281 22.8408 24.1205 23.4766 45.076 23.4766C66.0314 23.4766 83.0191 22.8408 83.0191 22.0566Z" fill="url(#paint7_radial_394_15161)"/>
</g>
<g opacity="0.058" filter="url(#filter4_f_394_15161)">
<path d="M63.1863 10.3399C64.5516 10.3399 65.6584 26.114 65.6584 45.5723C65.6584 65.0306 64.5516 80.8047 63.1863 80.8047C61.821 80.8047 61.4766 64.0495 61.4766 44.5912C61.4766 25.1328 61.821 10.3399 63.1863 10.3399Z" fill="url(#paint8_radial_394_15161)"/>
</g>
<g opacity="0.058" filter="url(#filter5_f_394_15161)">
<path d="M16.8231 10.9184C18.2634 10.9184 19.4309 25.4192 19.4309 43.3068C19.4309 61.1945 18.2634 75.6953 16.8231 75.6953C15.3828 75.6953 15.0195 60.2926 15.0195 42.4049C15.0195 24.5173 15.3828 10.9184 16.8231 10.9184Z" fill="url(#paint9_radial_394_15161)"/>
</g>
<path opacity="0.086" d="M89.6093 45.0059C89.6093 20.3678 69.6362 0.3946 44.998 0.3946C20.3599 0.3946 0.386719 20.3678 0.386719 45.0059C0.386719 69.644 20.3599 89.6172 44.998 89.6172C69.6362 89.6172 89.6093 69.644 89.6093 45.0059Z" fill="url(#paint10_linear_394_15161)"/>
</g>
</g>
<defs>
<filter id="filter0_f_394_15161" x="39.1415" y="-1.48745" width="18.4632" height="92.9905" filterUnits="userSpaceOnUse" color-interpolation-filters="sRGB">
<feFlood flood-opacity="0" result="BackgroundImageFix"/>
<feBlend mode="normal" in="SourceGraphic" in2="BackgroundImageFix" result="shape"/>
<feGaussianBlur stdDeviation="1.22029" result="effect1_foregroundBlur_394_15161"/>
</filter>
<filter id="filter1_f_394_15161" x="0.910191" y="40.2461" width="88.332" height="9.51946" filterUnits="userSpaceOnUse" color-interpolation-filters="sRGB">
<feFlood flood-opacity="0" result="BackgroundImageFix"/>
<feBlend mode="normal" in="SourceGraphic" in2="BackgroundImageFix" result="shape"/>
<feGaussianBlur stdDeviation="1.67967" result="effect1_foregroundBlur_394_15161"/>
</filter>
<filter id="filter2_f_394_15161" x="5.59651" y="68.077" width="77.9632" height="9.24057" filterUnits="userSpaceOnUse" color-interpolation-filters="sRGB">
<feFlood flood-opacity="0" result="BackgroundImageFix"/>
<feBlend mode="normal" in="SourceGraphic" in2="BackgroundImageFix" result="shape"/>
<feGaussianBlur stdDeviation="1.59237" result="effect1_foregroundBlur_394_15161"/>
</filter>
<filter id="filter3_f_394_15161" x="3.87121" y="17.3751" width="82.4099" height="9.36304" filterUnits="userSpaceOnUse" color-interpolation-filters="sRGB">
<feFlood flood-opacity="0" result="BackgroundImageFix"/>
<feBlend mode="normal" in="SourceGraphic" in2="BackgroundImageFix" result="shape"/>
<feGaussianBlur stdDeviation="1.6308" result="effect1_foregroundBlur_394_15161"/>
</filter>
<filter id="filter4_f_394_15161" x="58.8741" y="7.7374" width="9.38847" height="75.6697" filterUnits="userSpaceOnUse" color-interpolation-filters="sRGB">
<feFlood flood-opacity="0" result="BackgroundImageFix"/>
<feBlend mode="normal" in="SourceGraphic" in2="BackgroundImageFix" result="shape"/>
<feGaussianBlur stdDeviation="1.30122" result="effect1_foregroundBlur_394_15161"/>
</filter>
<filter id="filter5_f_394_15161" x="12.4568" y="8.35521" width="9.53568" height="69.9029" filterUnits="userSpaceOnUse" color-interpolation-filters="sRGB">
<feFlood flood-opacity="0" result="BackgroundImageFix"/>
<feBlend mode="normal" in="SourceGraphic" in2="BackgroundImageFix" result="shape"/>
<feGaussianBlur stdDeviation="1.28138" result="effect1_foregroundBlur_394_15161"/>
</filter>
<linearGradient id="paint0_linear_394_15161" x1="44.998" y1="89.6172" x2="44.998" y2="0.3946" gradientUnits="userSpaceOnUse">
<stop stop-color="#CCCCCC"/>
<stop offset="0.0335027" stop-color="#E5E5E5"/>
<stop offset="0.0827708" stop-color="#CCCCCC" stop-opacity="0.898039"/>
<stop offset="0.308956" stop-color="#CCCCCC" stop-opacity="0.726891"/>
<stop offset="0.387337" stop-color="#E5E5E5" stop-opacity="0.521569"/>
<stop offset="0.467958" stop-color="#CCCCCC" stop-opacity="0.52549"/>
<stop offset="0.586649" stop-color="#F9F9F9" stop-opacity="0.467626"/>
<stop offset="0.658312" stop-color="#CCCCCC" stop-opacity="0.552941"/>
<stop offset="0.897934" stop-color="#CCCCCC" stop-opacity="0.898039"/>
<stop offset="0.960639" stop-color="#E6E6E6"/>
<stop offset="1" stop-color="#C6CACC"/>
</linearGradient>
<radialGradient id="paint1_radial_394_15161" cx="0" cy="0" r="1" gradientUnits="userSpaceOnUse" gradientTransform="translate(48.1618 45.0038) rotate(-90) scale(44.6874 7.62249)">
<stop stop-color="#CCCCCC"/>
<stop offset="0.0335027" stop-color="#E5E5E5"/>
<stop offset="0.0827708" stop-color="#CCCCCC" stop-opacity="0.898039"/>
<stop offset="0.308956" stop-color="#CCCCCC" stop-opacity="0.517647"/>
<stop offset="0.387337" stop-color="#E5E5E5" stop-opacity="0.521569"/>
<stop offset="0.467958" stop-color="#CCCCCC" stop-opacity="0.52549"/>
<stop offset="0.586649" stop-color="#E5E5E5" stop-opacity="0.596078"/>
<stop offset="0.658312" stop-color="#CCCCCC" stop-opacity="0.552941"/>
<stop offset="0.897934" stop-color="#CCCCCC" stop-opacity="0.898039"/>
<stop offset="0.960639" stop-color="#E6E6E6"/>
<stop offset="1" stop-color="#C6CACC"/>
</radialGradient>
<radialGradient id="paint2_radial_394_15161" cx="0" cy="0" r="1" gradientUnits="userSpaceOnUse" gradientTransform="translate(48.1618 45.0038) rotate(-90) scale(44.6874 7.62249)">
<stop stop-color="#CCCCCC"/>
<stop offset="0.0335027" stop-color="#E5E5E5"/>
<stop offset="0.0827708" stop-color="#CCCCCC" stop-opacity="0.898039"/>
<stop offset="0.308956" stop-color="#CCCCCC" stop-opacity="0.517647"/>
<stop offset="0.387337" stop-color="#E5E5E5" stop-opacity="0.521569"/>
<stop offset="0.467958" stop-color="#CCCCCC" stop-opacity="0.52549"/>
<stop offset="0.586649" stop-color="#E5E5E5" stop-opacity="0.596078"/>
<stop offset="0.658312" stop-color="#CCCCCC" stop-opacity="0.552941"/>
<stop offset="0.897934" stop-color="#CCCCCC" stop-opacity="0.898039"/>
<stop offset="0.960639" stop-color="#E6E6E6"/>
<stop offset="1" stop-color="#C6CACC"/>
</radialGradient>
<radialGradient id="paint3_radial_394_15161" cx="0" cy="0" r="1" gradientUnits="userSpaceOnUse" gradientTransform="translate(16.4025 45.1075) rotate(-90) scale(30.9706 10.59)">
<stop stop-color="#E6E6E6"/>
<stop offset="1" stop-color="#E6E6E6" stop-opacity="0"/>
</radialGradient>
<radialGradient id="paint4_radial_394_15161" cx="0" cy="0" r="1" gradientUnits="userSpaceOnUse" gradientTransform="translate(48.3724 45.0075) rotate(-90) scale(42.5471 5.3405)">
<stop/>
<stop offset="0.749256" stop-opacity="0.956835"/>
<stop offset="1" stop-opacity="0"/>
</radialGradient>
<radialGradient id="paint5_radial_394_15161" cx="0" cy="0" r="1" gradientUnits="userSpaceOnUse" gradientTransform="translate(45.0758 45.0056) rotate(-90) scale(5.12371 41.2982)">
<stop stop-color="#F1F1F1"/>
<stop offset="1" stop-color="#F1F1F1" stop-opacity="0"/>
</radialGradient>
<radialGradient id="paint6_radial_394_15161" cx="0" cy="0" r="1" gradientUnits="userSpaceOnUse" gradientTransform="translate(44.5772 72.6977) rotate(-90) scale(5.24949 36.2275)">
<stop stop-color="#F1F1F1"/>
<stop offset="1" stop-color="#F1F1F1" stop-opacity="0"/>
</radialGradient>
<radialGradient id="paint7_radial_394_15161" cx="0" cy="0" r="1" gradientUnits="userSpaceOnUse" gradientTransform="translate(45.076 22.0566) rotate(-90) scale(5.19439 38.4005)">
<stop stop-color="#F1F1F1"/>
<stop offset="1" stop-color="#F1F1F1" stop-opacity="0"/>
</radialGradient>
<radialGradient id="paint8_radial_394_15161" cx="0" cy="0" r="1" gradientUnits="userSpaceOnUse" gradientTransform="translate(63.1863 45.5723) rotate(-90.2057) scale(36.5868 1.86855)">
<stop stop-color="#CCCCCC"/>
<stop offset="0.0335027" stop-color="#E5E5E5"/>
<stop offset="0.0827708" stop-color="#CCCCCC" stop-opacity="0.898039"/>
<stop offset="0.308956" stop-color="#CCCCCC" stop-opacity="0.517647"/>
<stop offset="0.387337" stop-color="#E5E5E5" stop-opacity="0.521569"/>
<stop offset="0.467958" stop-color="#CCCCCC" stop-opacity="0.52549"/>
<stop offset="0.586649" stop-color="#E5E5E5" stop-opacity="0.596078"/>
<stop offset="0.658312" stop-color="#CCCCCC" stop-opacity="0.552941"/>
<stop offset="0.897934" stop-color="#CCCCCC" stop-opacity="0.898039"/>
<stop offset="0.960639" stop-color="#E6E6E6"/>
<stop offset="1" stop-color="#C6CACC"/>
</radialGradient>
<radialGradient id="paint9_radial_394_15161" cx="0" cy="0" r="1" gradientUnits="userSpaceOnUse" gradientTransform="translate(16.8231 43.3068) rotate(-90.236) scale(33.6336 1.97111)">
<stop stop-color="#CCCCCC"/>
<stop offset="0.0335027" stop-color="#E5E5E5"/>
<stop offset="0.0827708" stop-color="#CCCCCC" stop-opacity="0.898039"/>
<stop offset="0.308956" stop-color="#CCCCCC" stop-opacity="0.517647"/>
<stop offset="0.387337" stop-color="#E5E5E5" stop-opacity="0.521569"/>
<stop offset="0.467958" stop-color="#CCCCCC" stop-opacity="0.52549"/>
<stop offset="0.586649" stop-color="#E5E5E5" stop-opacity="0.596078"/>
<stop offset="0.658312" stop-color="#CCCCCC" stop-opacity="0.552941"/>
<stop offset="0.897934" stop-color="#CCCCCC" stop-opacity="0.898039"/>
<stop offset="0.960639" stop-color="#E6E6E6"/>
<stop offset="1" stop-color="#C6CACC"/>
</radialGradient>
<linearGradient id="paint10_linear_394_15161" x1="44.998" y1="89.6172" x2="44.998" y2="0.3946" gradientUnits="userSpaceOnUse">
<stop stop-color="#CCCCCC"/>
<stop offset="0.0335027" stop-color="#E5E5E5"/>
<stop offset="0.0827708" stop-color="#CCCCCC" stop-opacity="0.898039"/>
<stop offset="0.308956" stop-color="#CCCCCC" stop-opacity="0.517647"/>
<stop offset="0.387337" stop-color="#E5E5E5" stop-opacity="0.521569"/>
<stop offset="0.467958" stop-color="#CCCCCC" stop-opacity="0.52549"/>
<stop offset="0.586649" stop-color="#E5E5E5" stop-opacity="0.596078"/>
<stop offset="0.658312" stop-color="#CCCCCC" stop-opacity="0.552941"/>
<stop offset="0.897934" stop-color="#CCCCCC" stop-opacity="0.898039"/>
<stop offset="0.960639" stop-color="#E6E6E6"/>
<stop offset="1" stop-color="#C6CACC"/>
</linearGradient>
<clipPath id="clip0_394_15161">
<rect width="90" height="90" fill="white" transform="matrix(0 -1 1 0 0 90)"/>
</clipPath>
</defs>
</svg>
