<svg width="90" height="90" viewBox="0 0 90 90" fill="none" xmlns="http://www.w3.org/2000/svg">
<g clip-path="url(#clip0_394_15256)">
<mask id="mask0_394_15256" style="mask-type:luminance" maskUnits="userSpaceOnUse" x="0" y="0" width="90" height="90">
<path d="M0 0L0 90H90V0H0Z" fill="white"/>
</mask>
<g mask="url(#mask0_394_15256)">
<path fill-rule="evenodd" clip-rule="evenodd" d="M45 0C69.8486 0 90 20.1514 90 45C90 69.8486 69.8486 90 45 90C20.1514 90 0 69.8486 0 45C0 20.1514 20.1514 0 45 0Z" fill="#29296E"/>
<path fill-rule="evenodd" clip-rule="evenodd" d="M32.9871 23.9171L29.4733 25.0645C28.7562 25.2797 28.2182 25.8534 27.9672 26.5705L26.8916 30.0845C26.7482 30.5864 26.0668 30.5864 25.8875 30.0845L24.7401 26.5705C24.525 25.8534 23.9514 25.3155 23.2342 25.0645L19.7202 23.9888C19.2183 23.8454 19.2183 23.1641 19.7202 22.9849L23.2342 21.8374C23.9514 21.6223 24.4891 21.0486 24.7401 20.3315L25.8159 16.8175C25.9593 16.3155 26.6405 16.3155 26.8198 16.8175L27.9672 20.3315C28.1823 21.0486 28.7562 21.5864 29.4733 21.8374L32.9871 22.9131C33.4533 23.0924 33.4533 23.7737 32.9871 23.9171Z" fill="#FAFAFA"/>
<path fill-rule="evenodd" clip-rule="evenodd" d="M44.2838 86.0547C42.1682 84.979 40.5547 82.8634 39.5507 80.6403C38.5467 78.4172 37.9372 75.979 37.7579 73.5766C37.3276 68.736 38.1164 64.0029 39.5507 59.7001C40.232 57.477 41.1284 55.5049 42.0607 53.4611C42.5268 52.4571 43.1005 51.5248 43.6383 50.5567L45.1802 47.9033C46.973 44.963 48.5866 42.1304 49.8415 39.477C51.0607 36.7878 51.9212 34.3854 52.3515 32.1264C52.7818 29.8674 52.7818 27.5368 52.1364 24.7041C51.4909 21.8714 50.0925 18.716 48.3356 15.3814C46.5427 12.0467 44.3555 8.60449 42.2399 4.69609C46.6862 5.09049 50.8814 6.3455 54.9332 8.2818C58.9132 10.2897 62.8216 13.0866 65.977 17.1384C69.1682 21.1184 71.3555 26.6045 71.714 32.1623C72.1085 37.7559 70.8535 43.0268 68.9889 47.5447C67.0885 52.0627 64.6144 56.0069 61.8893 59.4491C61.1364 60.4172 60.7061 60.9192 60.0965 61.6364L58.3395 63.6085C57.2997 64.9352 56.0447 66.226 55.0049 67.5527C52.7101 70.1702 50.487 72.7878 48.5866 75.6563C47.6184 77.0905 46.6862 78.5607 45.8973 80.2459C45.5029 81.0706 45.1443 81.967 44.8575 82.9352C44.5348 83.9033 44.3555 84.8714 44.2838 86.0547Z" fill="#FF4F0A"/>
<path fill-rule="evenodd" clip-rule="evenodd" d="M44.353 86.0547C39.7993 85.5168 35.5323 83.4013 31.9108 79.9949C28.3252 76.6244 25.5283 71.3176 25.1698 65.473C24.9905 62.5686 25.3132 59.6284 26.0303 56.9392C26.7833 54.2499 27.859 51.7399 29.1499 49.4451C29.7953 48.2977 30.5124 47.2579 31.1937 46.1822L33.3451 43.3495L36.8232 38.9392C39.0821 36.0706 41.1977 33.3455 42.9546 30.8356C44.7116 28.2897 45.9666 26.1384 46.7196 24.0587C47.5443 22.0149 47.7236 19.4332 46.863 15.991C46.4686 14.3057 45.7514 12.5129 44.9626 10.6125C44.1738 8.7479 43.2056 6.7758 42.2734 4.6244C44.5682 4.8754 46.8271 5.34149 48.9785 6.23799C51.1299 7.09849 53.2455 8.21009 55.2176 9.75189C56.1857 10.5407 57.1538 11.4013 58.0144 12.4053C58.875 13.4093 59.6997 14.5208 60.4168 15.7399C61.8152 18.1782 62.855 21.0826 63.2494 24.0587C63.608 27.0348 63.4287 30.0109 62.855 32.736C62.2813 35.4611 61.3849 37.9352 60.3451 40.23C58.2295 44.7838 55.5762 48.5846 52.7435 51.9551C51.3451 53.6403 49.8749 55.218 48.369 56.724L46.5761 58.481C46.0742 59.0188 45.5363 59.5567 45.0702 60.0945C43.1698 62.2459 41.6997 64.2539 40.8032 66.4411C39.8351 68.6284 39.4765 71.4252 40.122 74.8674C40.8032 78.3097 42.2734 82.0387 44.353 86.0547Z" fill="#FAFAFA"/>
<path fill-rule="evenodd" clip-rule="evenodd" d="M67.7678 67.7692C69.1662 67.7692 70.2778 68.8807 70.2778 70.2791C70.2778 71.6775 69.1662 72.7891 67.7678 72.7891C66.3694 72.7891 65.2578 71.6775 65.2578 70.2791C65.2578 68.8807 66.3694 67.7692 67.7678 67.7692Z" fill="#FAFAFA"/>
<path fill-rule="evenodd" clip-rule="evenodd" d="M67.7678 67.7692C69.1662 67.7692 70.2778 68.8807 70.2778 70.2791C70.2778 71.6775 69.1662 72.7891 67.7678 72.7891C66.3694 72.7891 65.2578 71.6775 65.2578 70.2791C65.2578 68.8807 66.3694 67.7692 67.7678 67.7692Z" fill="#FAFAFA"/>
</g>
</g>
<defs>
<clipPath id="clip0_394_15256">
<rect width="90" height="90" fill="white" transform="matrix(0 -1 1 0 0 90)"/>
</clipPath>
</defs>
</svg>
