<svg width="90" height="90" viewBox="0 0 90 90" fill="none" xmlns="http://www.w3.org/2000/svg">
<g clip-path="url(#clip0_394_15222)">
<path d="M45 0C20.1472 0 0 20.1472 0 45C0 69.8528 20.1472 90 45 90C69.8528 90 90 69.8528 90 45C90 20.1472 69.8528 0 45 0Z" fill="url(#paint0_linear_394_15222)"/>
<path fill-rule="evenodd" clip-rule="evenodd" d="M48.4947 70.6133C47.8957 70.6133 47.4102 70.1193 47.4102 69.51C47.4102 69.2174 47.5244 68.9368 47.7278 68.7299C47.9312 68.523 48.2071 68.4068 48.4947 68.4068C49.0937 68.4068 49.5792 68.9007 49.5792 69.51C49.5792 70.1193 49.0937 70.6133 48.4947 70.6133Z" fill="white"/>
<path fill-rule="evenodd" clip-rule="evenodd" d="M48.4947 70.6133C47.8957 70.6133 47.4102 70.1193 47.4102 69.51C47.4102 69.2174 47.5244 68.9368 47.7278 68.7299C47.9312 68.523 48.2071 68.4068 48.4947 68.4068C49.0937 68.4068 49.5792 68.9007 49.5792 69.51C49.5792 70.1193 49.0937 70.6133 48.4947 70.6133Z" fill="white" stroke="white" stroke-width="0.395796" stroke-linejoin="round"/>
<path fill-rule="evenodd" clip-rule="evenodd" d="M31.5142 83.3828C30.9153 83.3828 30.4297 82.8889 30.4297 82.2796C30.4297 81.987 30.5439 81.7064 30.7474 81.4995C30.9507 81.2926 31.2266 81.1763 31.5142 81.1763C32.1132 81.1763 32.5988 81.6703 32.5988 82.2796C32.5988 82.8889 32.1132 83.3828 31.5142 83.3828Z" fill="white"/>
<path fill-rule="evenodd" clip-rule="evenodd" d="M31.5142 83.3828C30.9153 83.3828 30.4297 82.8889 30.4297 82.2796C30.4297 81.987 30.5439 81.7064 30.7474 81.4995C30.9507 81.2926 31.2266 81.1763 31.5142 81.1763C32.1132 81.1763 32.5988 81.6703 32.5988 82.2796C32.5988 82.8889 32.1132 83.3828 31.5142 83.3828Z" fill="white" stroke="white" stroke-width="0.395796" stroke-linejoin="round"/>
<path fill-rule="evenodd" clip-rule="evenodd" d="M33.9517 69.0469C33.3528 69.0469 32.8672 68.5529 32.8672 67.9436C32.8672 67.651 32.9814 67.3704 33.1849 67.1635C33.3882 66.9566 33.6641 66.8404 33.9517 66.8404C34.5507 66.8404 35.0363 67.3343 35.0363 67.9436C35.0363 68.5529 34.5507 69.0469 33.9517 69.0469Z" fill="white"/>
<path fill-rule="evenodd" clip-rule="evenodd" d="M33.9517 69.0469C33.3528 69.0469 32.8672 68.5529 32.8672 67.9436C32.8672 67.651 32.9814 67.3704 33.1849 67.1635C33.3882 66.9566 33.6641 66.8404 33.9517 66.8404C34.5507 66.8404 35.0363 67.3343 35.0363 67.9436C35.0363 68.5529 34.5507 69.0469 33.9517 69.0469Z" fill="white" stroke="white" stroke-width="0.395796" stroke-linejoin="round"/>
<path fill-rule="evenodd" clip-rule="evenodd" d="M57.9127 56.5469C57.3137 56.5469 56.8281 56.0529 56.8281 55.4436C56.8281 55.151 56.9424 54.8704 57.1458 54.6635C57.3492 54.4566 57.625 54.3404 57.9127 54.3404C58.5117 54.3404 58.9972 54.8343 58.9972 55.4436C58.9972 56.0529 58.5117 56.5469 57.9127 56.5469Z" fill="white" stroke="white" stroke-width="0.395796" stroke-linejoin="round"/>
<path fill-rule="evenodd" clip-rule="evenodd" d="M11.4714 49.8555C10.4214 49.8555 9.57031 49.0043 9.57031 47.9544C9.57031 47.4502 9.77059 46.9667 10.1271 46.6101C10.4836 46.2536 10.9672 46.0533 11.4714 46.0533C12.5213 46.0533 13.3724 46.9045 13.3724 47.9544C13.3724 49.0043 12.5213 49.8555 11.4714 49.8555Z" fill="white"/>
<path fill-rule="evenodd" clip-rule="evenodd" d="M34.5847 38.0156C33.5347 38.0156 32.6836 37.1645 32.6836 36.1145C32.6836 35.6104 32.8839 35.1268 33.2404 34.7703C33.5969 34.4138 34.0805 34.2135 34.5847 34.2135C35.6346 34.2135 36.4857 35.0646 36.4857 36.1145C36.4857 37.1645 35.6346 38.0156 34.5847 38.0156Z" fill="white"/>
<path fill-rule="evenodd" clip-rule="evenodd" d="M10.944 65.1641C9.89411 65.1641 9.04297 64.3129 9.04297 63.263C9.04297 62.7588 9.24325 62.2753 9.59978 61.9187C9.95631 61.5622 10.4398 61.3619 10.944 61.3619C11.994 61.3619 12.8451 62.2131 12.8451 63.263C12.8451 64.3129 11.994 65.1641 10.944 65.1641Z" fill="white" stroke="white" stroke-width="0.395796" stroke-linejoin="round"/>
<path fill-rule="evenodd" clip-rule="evenodd" d="M66.2019 44.7812C65.1519 44.7812 64.3008 43.9301 64.3008 42.8802C64.3008 42.376 64.5011 41.8925 64.8576 41.5359C65.2141 41.1794 65.6977 40.9791 66.2019 40.9791C67.2518 40.9791 68.1029 41.8303 68.1029 42.8802C68.1029 43.9301 67.2518 44.7812 66.2019 44.7812Z" fill="white"/>
<path fill-rule="evenodd" clip-rule="evenodd" d="M72.6589 25.8008C71.6089 25.8008 70.7578 24.9497 70.7578 23.8997C70.7578 23.3955 70.9581 22.912 71.3146 22.5555C71.6711 22.1989 72.1547 21.9987 72.6589 21.9987C73.7088 21.9987 74.5599 22.8498 74.5599 23.8997C74.5599 24.9497 73.7088 25.8008 72.6589 25.8008Z" fill="white" stroke="white" stroke-width="0.395796" stroke-linejoin="round"/>
<path fill-rule="evenodd" clip-rule="evenodd" d="M62.3658 15.082C61.7668 15.082 61.2812 14.5881 61.2812 13.9788C61.2812 13.6862 61.3955 13.4056 61.5989 13.1987C61.8023 12.9918 62.0782 12.8755 62.3658 12.8755C62.9648 12.8755 63.4503 13.3695 63.4503 13.9788C63.4503 14.5881 62.9648 15.082 62.3658 15.082Z" fill="white"/>
<path fill-rule="evenodd" clip-rule="evenodd" d="M41.0534 11.8945C40.0035 11.8945 39.1523 11.0434 39.1523 9.99344C39.1523 9.48924 39.3526 9.0057 39.7092 8.64918C40.0657 8.29266 40.5492 8.09237 41.0534 8.09237C42.1033 8.09237 42.9545 8.94351 42.9545 9.99344C42.9545 11.0434 42.1033 11.8945 41.0534 11.8945Z" fill="white"/>
<path fill-rule="evenodd" clip-rule="evenodd" d="M41.0339 26.1953C39.984 26.1953 39.1328 25.3442 39.1328 24.2942C39.1328 23.7901 39.3331 23.3065 39.6896 22.95C40.0461 22.5935 40.5297 22.3931 41.0339 22.3931C42.0838 22.3931 42.935 23.2443 42.935 24.2942C42.935 25.3442 42.0838 26.1953 41.0339 26.1953Z" fill="white" stroke="white" stroke-width="0.395796" stroke-linejoin="round"/>
<path fill-rule="evenodd" clip-rule="evenodd" d="M23.4831 44.918C22.4332 44.918 21.582 44.0668 21.582 43.0169C21.582 42.5127 21.7823 42.0292 22.1388 41.6727C22.4954 41.3161 22.9789 41.1158 23.4831 41.1158C24.533 41.1158 25.3842 41.967 25.3842 43.0169C25.3842 44.0668 24.533 44.918 23.4831 44.918Z" fill="white" stroke="white" stroke-width="0.395796" stroke-linejoin="round"/>
<path fill-rule="evenodd" clip-rule="evenodd" d="M76.9556 62.7617C76.3566 62.7617 75.8711 62.2678 75.8711 61.6585C75.8711 61.3659 75.9854 61.0853 76.1888 60.8784C76.3922 60.6715 76.668 60.5552 76.9557 60.5552C77.5546 60.5552 78.0402 61.0492 78.0402 61.6585C78.0402 62.2678 77.5546 62.7617 76.9556 62.7617Z" fill="white" stroke="white" stroke-width="0.395796" stroke-linejoin="round"/>
<path fill-rule="evenodd" clip-rule="evenodd" d="M63.8307 75.2383C63.2317 75.2383 62.7461 74.7443 62.7461 74.135C62.7461 73.8424 62.8604 73.5618 63.0638 73.3549C63.2672 73.148 63.543 73.0318 63.8307 73.0318C64.4296 73.0318 64.9152 73.5257 64.9152 74.135C64.9152 74.7443 64.4296 75.2383 63.8307 75.2383Z" fill="white"/>
<path fill-rule="evenodd" clip-rule="evenodd" d="M63.8307 75.2383C63.2317 75.2383 62.7461 74.7443 62.7461 74.135C62.7461 73.8424 62.8604 73.5618 63.0638 73.3549C63.2672 73.148 63.543 73.0318 63.8307 73.0318C64.4296 73.0318 64.9152 73.5257 64.9152 74.135C64.9152 74.7443 64.4296 75.2383 63.8307 75.2383Z" fill="white" stroke="white" stroke-width="0.395796" stroke-linejoin="round"/>
<path fill-rule="evenodd" clip-rule="evenodd" d="M79.7956 45.2461C78.7457 45.2461 77.8945 44.395 77.8945 43.345C77.8945 42.8408 78.0948 42.3573 78.4513 42.0008C78.8079 41.6443 79.2914 41.444 79.7956 41.444C80.8455 41.444 81.6967 42.2951 81.6967 43.345C81.6967 44.395 80.8455 45.2461 79.7956 45.2461Z" fill="white"/>
<path fill-rule="evenodd" clip-rule="evenodd" d="M52.3698 44.0469C51.3199 44.0469 50.4688 43.1957 50.4688 42.1458C50.4688 41.6416 50.669 41.1581 51.0256 40.8015C51.3821 40.445 51.8656 40.2447 52.3698 40.2447C53.4197 40.2447 54.2709 41.0959 54.2709 42.1458C54.2709 43.1957 53.4197 44.0469 52.3698 44.0469Z" fill="white" stroke="white" stroke-width="0.395796" stroke-linejoin="round"/>
<path fill-rule="evenodd" clip-rule="evenodd" d="M22.4683 64.9297L21.6287 61.0197L17.7188 60.1801L21.6287 59.3405L22.4683 55.4306L23.3079 59.3405L27.2179 60.1801L23.3079 61.0197L22.4683 64.9297Z" fill="white"/>
<path fill-rule="evenodd" clip-rule="evenodd" d="M12.5699 33.0469L11.7302 29.1369L7.82031 28.2973L11.7302 27.4577L12.5699 23.5478L13.4095 27.4577L17.3194 28.2973L13.4095 29.1369L12.5699 33.0469Z" fill="white"/>
<path fill-rule="evenodd" clip-rule="evenodd" d="M66.8394 67.0312L65.9998 63.1213L62.0898 62.2817L65.9998 61.4421L66.8394 57.5321L67.679 61.4421L71.589 62.2817L67.679 63.1213L66.8394 67.0312Z" fill="white"/>
<path fill-rule="evenodd" clip-rule="evenodd" d="M42.0738 56.207L41.2342 52.2971L37.3242 51.4575L41.2342 50.6179L42.0738 46.7079L42.9134 50.6179L46.8233 51.4575L42.9134 52.2971L42.0738 56.207Z" fill="white"/>
<path fill-rule="evenodd" clip-rule="evenodd" d="M55.0894 31.5664L54.2498 27.6565L50.3398 26.8168L54.2498 25.9772L55.0894 22.0673L55.929 25.9772L59.839 26.8168L55.929 27.6565L55.0894 31.5664Z" fill="white"/>
<path fill-rule="evenodd" clip-rule="evenodd" d="M48.4761 85.8516L47.6365 81.9416L43.7266 81.102L47.6365 80.2624L48.4761 76.3525L49.3157 80.2624L53.2257 81.102L49.3157 81.9416L48.4761 85.8516Z" fill="white"/>
<path fill-rule="evenodd" clip-rule="evenodd" d="M27.8511 21.2617L27.0115 17.3518L23.1016 16.5122L27.0115 15.6726L27.8511 11.7626L28.6907 15.6726L32.6007 16.5122L28.6907 17.3518L27.8511 21.2617Z" fill="white"/>
</g>
<defs>
<linearGradient id="paint0_linear_394_15222" x1="13.1802" y1="13.1802" x2="76.8198" y2="76.8198" gradientUnits="userSpaceOnUse">
<stop stop-color="#351C75"/>
<stop offset="1" stop-color="#073763"/>
</linearGradient>
<clipPath id="clip0_394_15222">
<rect width="90" height="90" fill="white" transform="matrix(0 -1 1 0 0 90)"/>
</clipPath>
</defs>
</svg>
