<svg width="90" height="90" viewBox="0 0 90 90" fill="none" xmlns="http://www.w3.org/2000/svg">
<g clip-path="url(#clip0_394_15311)">
<mask id="mask0_394_15311" style="mask-type:luminance" maskUnits="userSpaceOnUse" x="0" y="0" width="90" height="90">
<path d="M0 0L0 90H90V0H0Z" fill="white"/>
</mask>
<g mask="url(#mask0_394_15311)">
<path d="M90 45C90 20.1472 69.8528 0 45 0C20.1472 0 0 20.1472 0 45C0 69.8528 20.1472 90 45 90C69.8528 90 90 69.8528 90 45Z" fill="#ED1C24"/>
<path d="M45 0C69.9 0 90 20.1 90 45C90 69.9 69.9 90 45 90L45 0Z" fill="black"/>
<path d="M45 90C50.1 90 55.2 89.1 60 87.3L60 2.4C50.4 -1.2 39.6 -1.2 30 2.4L30 87.3C34.8 89.1 39.9 90 45 90Z" fill="#F0F0F0"/>
<path d="M12.6016 76.1985C29.7016 94.1984 58.2016 94.7984 76.2016 77.3985C76.8016 77.0985 77.1016 76.4985 77.4016 76.1985L45.0016 35.9985L12.6016 76.1985Z" fill="#009245"/>
</g>
</g>
<defs>
<clipPath id="clip0_394_15311">
<rect width="90" height="90" fill="white" transform="matrix(0 -1 1 0 0 90)"/>
</clipPath>
</defs>
</svg>
