<svg width="90" height="90" viewBox="0 0 90 90" fill="none" xmlns="http://www.w3.org/2000/svg">
<g clip-path="url(#clip0_1625_906)">
<rect y="90" width="90" height="90" rx="45" transform="rotate(-90 0 90)" fill="url(#paint0_linear_1625_906)"/>
<path d="M14.8374 -52.2232C13.2778 -57.1838 -0.957286 -66.5412 -11.9249 -66.6C7.0675 -41.7752 14.8374 10.1772 14.8374 10.1772C21.699 15.5057 26.659 23.4831 28.785 35.4155C25.6722 37.1786 21.2873 39.1594 18.5361 38.2474C17.4775 37.8948 16.7739 37.1416 16.3709 35.9445V35.9336L17.1813 30.6683C17.7868 30.4854 18.4534 30.4789 19.0393 30.9273C19.2223 31.0666 19.4772 31.0557 19.6558 30.912C19.7691 30.8119 19.8344 30.6748 19.8344 30.5289C19.8344 30.4549 19.8192 30.3809 19.7799 30.3047C19.7342 30.2111 18.608 28.0476 14.8679 28.0476C11.1278 28.0476 8.49645 31.8676 8.41585 36.7803L8.42021 36.776C7.95406 37.3419 6.42926 39.5098 6.42926 43.9219C6.42926 46.6819 7.54672 48.7258 8.52913 50.5324C9.75985 52.7809 10.7292 54.5614 9.46361 57.0972C9.38519 57.2517 9.3939 57.4346 9.48321 57.5826C9.57252 57.7263 9.73154 57.8155 9.9058 57.8155C9.99511 57.8155 11.9512 57.7807 13.5217 55.1252C14.1469 55.6367 15.3145 56.4507 16.7391 56.8077C16.9373 56.8578 17.1464 56.7772 17.2662 56.614C17.386 56.4442 17.386 56.2222 17.2662 56.0524C17.1529 55.8783 16.9591 55.5518 16.7739 55.1839C16.7739 55.1839 19.0328 57.4455 28.04 58.3706C25.6177 68.3549 20.9932 75.2679 14.8374 80.0479C14.8374 80.0479 7.0675 132 -11.9249 156.825C-0.957286 156.764 13.28 147.407 14.8374 142.446C18.5187 130.738 21.1523 118.705 22.6074 106.309L20.1132 146.575C25.328 144.76 30.3076 141.362 35.054 136.412C37.5111 133.85 38.8878 130.442 38.9357 126.896C39.0643 117.441 38.7266 108.114 37.8597 98.9369L44.0939 133.156C50.0428 128.391 54.896 122.693 57.1941 114.822C57.9804 112.127 58.0066 109.267 57.2464 106.564C55.3382 99.7749 52.5674 93.0817 48.9863 86.4734L65.2929 106.507C67.6847 101.518 69.2051 95.7503 69.6604 89.0244C69.8303 86.4929 69.0178 83.992 67.4015 82.0352L61.1694 74.493L75.2695 85.0368C75.6768 81.232 75.7661 77.4402 75.5069 73.6616C75.3958 72.0465 74.457 70.6034 73.0302 69.8372L65.2929 65.6754L76.8988 69.2212C76.4501 65.4447 75.5526 61.7357 74.2653 58.0919L82.6495 62.9002L90.6634 55.4669L84.5751 50.1929L94.1464 52.2346L101.925 45.0168L94.1464 37.799L84.5751 39.8407L90.6634 34.5666L82.6495 27.1334L74.3524 31.8915C75.594 28.3262 76.4588 24.6999 76.8988 21.0083L65.2929 24.554L73.0302 20.3923C74.457 19.6239 75.3958 18.1808 75.5069 16.5679C75.7661 12.7914 75.6768 8.99964 75.2695 5.19267L61.1694 15.7364L67.4015 8.19428C69.0178 6.23747 69.8303 3.73648 69.6604 1.20503C69.2073 -5.52083 67.6869 -11.289 65.2929 -16.2779L48.9863 3.75608C52.5696 -2.85007 55.3404 -9.54546 57.2464 -16.3345C58.0066 -19.0357 57.9804 -21.898 57.1941 -24.5927C54.896 -32.4613 50.0428 -38.1598 44.0939 -42.9267L37.8597 -8.70745C38.7266 -17.8842 39.0643 -27.209 38.9357 -36.6666C38.8878 -40.2124 37.5111 -43.6232 35.054 -46.1829C30.3076 -51.1326 25.328 -54.5304 20.1132 -56.3457L22.6074 -16.0885C21.1523 -28.4824 18.5187 -40.5149 14.8374 -52.2232Z" fill="white" fill-opacity="0.2"/>
<g filter="url(#filter0_d_1625_906)">
<path d="M26.9381 -14.5986C25.9848 -17.6359 17.2841 -23.3653 10.5804 -23.4013C22.189 -8.20145 26.9381 23.6083 26.9381 23.6083C31.1321 26.8708 34.1637 31.7553 35.4631 39.0613C33.5606 40.1408 30.8804 41.3536 29.1989 40.7952C28.5518 40.5793 28.1218 40.1182 27.8754 39.3852V39.3785L28.3707 36.1546C28.7409 36.0427 29.1483 36.0387 29.5064 36.3132C29.6183 36.3985 29.774 36.3919 29.8832 36.3039C29.9524 36.2426 29.9924 36.1586 29.9924 36.0693C29.9924 36.024 29.9831 35.9787 29.9591 35.9321C29.9311 35.8748 29.2428 34.55 26.9568 34.55C24.6707 34.55 23.0624 36.889 23.0131 39.897L23.0158 39.8943C22.7309 40.2408 21.7989 41.5682 21.7989 44.2697C21.7989 45.9596 22.4819 47.211 23.0824 48.3172C23.8346 49.6939 24.4271 50.7841 23.6535 52.3367C23.6056 52.4313 23.6109 52.5433 23.6655 52.6339C23.7201 52.7219 23.8173 52.7765 23.9238 52.7765C23.9784 52.7765 25.174 52.7552 26.134 51.1292C26.5161 51.4424 27.2297 51.9409 28.1005 52.1594C28.2216 52.1901 28.3494 52.1408 28.4227 52.0408C28.4959 51.9369 28.4959 51.8009 28.4227 51.697C28.3534 51.5904 28.2349 51.3905 28.1218 51.1652C28.1218 51.1652 29.5024 52.5499 35.0078 53.1164C33.5273 59.2296 30.7007 63.4624 26.9381 66.3891C26.9381 66.3891 22.189 98.1988 10.5804 113.399C17.2841 113.361 25.9862 107.632 26.9381 104.595C29.1882 97.4258 30.7979 90.0584 31.6873 82.4685L30.1628 107.123C33.3502 106.011 36.3938 103.931 39.2949 100.9C40.7968 99.3316 41.6382 97.2445 41.6675 95.0735C41.7461 89.2841 41.5397 83.5733 41.0098 77.9545L44.8203 98.9065C48.4564 95.9891 51.4227 92.5 52.8274 87.6808C53.308 86.0309 53.324 84.2797 52.8593 82.6244C51.693 78.4676 49.9995 74.3695 47.8106 70.3233L57.7776 82.5898C59.2394 79.5352 60.1688 76.0034 60.447 71.8853C60.5509 70.3353 60.0543 68.804 59.0664 67.6059L55.2572 62.9879L63.8754 69.4437C64.1244 67.1141 64.179 64.7924 64.0205 62.4788C63.9526 61.4899 63.3788 60.6063 62.5067 60.1372L57.7776 57.589L64.8713 59.76C64.597 57.4477 64.0485 55.1768 63.2616 52.9458L68.3862 55.8898L73.2845 51.3385L69.5632 48.1093L75.4134 49.3594L80.1679 44.94L75.4134 40.5207L69.5632 41.7708L73.2845 38.5416L68.3862 33.9903L63.3149 36.9036C64.0738 34.7206 64.6024 32.5003 64.8713 30.24L57.7776 32.411L62.5067 29.8628C63.3788 29.3923 63.9526 28.5087 64.0205 27.5212C64.179 25.2089 64.1244 22.8873 63.8754 20.5563L55.2572 27.0121L59.0664 22.3942C60.0543 21.196 60.5509 19.6647 60.447 18.1147C60.1701 13.9966 59.2408 10.4648 57.7776 7.41021L47.8106 19.6767C50.0008 15.6319 51.6944 11.5324 52.8593 7.37556C53.324 5.72164 53.308 3.96909 52.8274 2.31916C51.4227 -2.49867 48.4564 -5.98778 44.8203 -8.90647L41.0098 12.0455C41.5397 6.42665 41.7461 0.717211 41.6675 -5.07352C41.6382 -7.24455 40.7968 -9.33294 39.2949 -10.9002C36.3938 -13.9309 33.3502 -16.0113 30.1628 -17.1228L31.6873 7.52616C30.7979 -0.0624335 29.1882 -7.42979 26.9381 -14.5986Z" fill="url(#paint1_radial_1625_906)"/>
<path d="M56.4727 54.1786C57.0133 51.829 57.5099 48.6837 57.5099 45.0587C57.5099 41.2977 56.96 38.0405 56.4541 35.8415L61.9315 45.176L56.4727 54.1786Z" fill="#FFD23A"/>
<path d="M57.0479 37.3781L61.6213 45.1733L57.0532 52.7072C57.458 50.5722 57.7762 47.968 57.7762 45.0587C57.7762 42.1 57.438 39.4505 57.0479 37.3781ZM55.7737 34.1542V34.2422C56.5619 37.0529 57.2436 40.8712 57.2436 45.0573C57.2436 49.2434 56.5619 53.0324 55.7737 55.8445L55.7857 55.8232C55.815 55.7765 55.8962 55.6526 56.0121 55.45L62.2404 45.1773L56.1266 34.758C55.9135 34.3595 55.7737 34.1542 55.7737 34.1542Z" fill="url(#paint2_linear_1625_906)"/>
<path d="M52.5 45C52.5 54.2146 50.4403 63.0932 46.5433 70.6765C42.8246 77.9119 37.6814 83.5307 31.6461 86.9545V71.2376C38.1487 64.2087 41.7289 54.8956 41.7289 45C41.7289 35.1045 38.1487 25.7913 31.6461 18.7625V3.04421C37.6814 6.46934 42.826 12.0881 46.5433 19.3236C50.4403 26.9068 52.5 35.7855 52.5 45Z" fill="#FFD23A"/>
<path d="M31.9123 3.50661C34.6763 5.13255 37.2686 7.2436 39.6265 9.79312C42.1935 12.5692 44.4422 15.8171 46.3062 19.4461C50.1832 26.9907 52.2336 35.8281 52.2336 45C52.2336 54.1719 50.1846 63.0092 46.3062 70.5538C44.4409 74.1829 42.1935 77.4307 39.6265 80.2068C37.2686 82.7563 34.6763 84.8674 31.9123 86.492V71.3415C38.4149 64.2727 41.9951 54.9262 41.9951 45C41.9951 35.0738 38.4149 25.7286 31.9123 18.6598V3.50661ZM31.3798 2.59102V18.8677C37.6108 25.5647 41.4625 34.8006 41.4625 45C41.4625 55.1981 37.6108 64.4352 31.3798 71.1322V87.4076C43.9323 80.5267 52.7662 64.1314 52.7662 45C52.7662 25.8686 43.9323 9.47326 31.3798 2.59102Z" fill="url(#paint3_linear_1625_906)"/>
<path d="M36.0635 78.9302C36.0848 78.3211 36.0928 77.7161 36.0875 77.1177C37.0554 76.8498 37.8756 76.3127 38.5014 75.545C38.9034 75.0506 38.9833 74.6814 38.7517 74.5015C38.7463 74.4975 38.7423 74.4935 38.737 74.4895C38.5253 74.3242 38.2284 74.4429 37.351 75.1932C35.969 76.3527 34.7122 77.083 33.7243 76.1274C33.7203 76.1234 33.7149 76.1194 33.7109 76.1141C32.8149 75.2438 32.9827 73.8218 34.1423 72.4264C34.9731 71.4215 35.8026 70.8138 36.7585 70.4713C36.9063 71.0124 37.0435 71.5588 37.1713 72.1119C36.3937 72.4371 35.7373 72.8982 35.2833 73.4446C34.9452 73.8525 34.9159 74.171 35.0969 74.3269C35.1023 74.3309 35.1063 74.3349 35.1116 74.3389C35.3326 74.5295 35.6428 74.4189 36.4976 73.6872C37.9182 72.4544 38.9687 71.7814 39.9939 72.4957C39.9992 72.4997 40.0045 72.5024 40.0098 72.5064C41.1229 73.2754 40.9964 74.9053 39.6317 76.5792C38.6318 77.804 37.3484 78.657 36.0635 78.9302Z" fill="black"/>
<path d="M39.866 71.191C38.8342 70.4953 37.801 69.801 36.7692 69.1053C37.1633 68.5215 37.5401 67.9298 37.9022 67.3301C38.9567 67.9671 40.0111 68.6042 41.0656 69.2412C41.8831 69.7396 42.5888 69.4678 43.0494 68.6468C43.5088 67.8245 43.3969 67.1008 42.5621 66.6704C41.4544 66.0946 40.348 65.5202 39.2403 64.9445C39.5598 64.3287 39.8634 63.7064 40.1509 63.0786C41.268 63.5917 42.3837 64.1048 43.5008 64.6166C45.4619 65.4949 45.6883 67.3301 44.4873 69.4798C43.2691 71.6388 41.5795 72.3731 39.866 71.191Z" fill="black"/>
<path d="M40.6383 61.9751C41.0897 60.9103 41.4971 59.8308 41.8592 58.7406C42.212 57.6731 42.6674 57.0214 43.2385 56.6602C43.7179 56.343 44.2691 56.2497 44.9041 56.411C44.9108 56.4123 44.9161 56.4136 44.9228 56.4163C45.916 56.6668 46.4113 57.4425 46.4659 58.5114C47.3859 58.1182 48.3019 57.6904 49.2126 57.2306C48.9969 58.0995 48.7559 58.9632 48.4923 59.8214C47.6855 60.1639 46.8746 60.4811 46.0638 60.7743C45.9573 61.0835 45.8468 61.3927 45.7323 61.7006C46.362 61.9338 46.9918 62.167 47.6202 62.4003C47.3499 63.1319 47.0624 63.8596 46.7561 64.5806C44.7177 63.7104 42.678 62.8427 40.6383 61.9751ZM44.8549 59.8428C45.0919 59.1284 44.9188 58.6446 44.4555 58.5034C44.4488 58.502 44.4435 58.4994 44.4368 58.498C43.9269 58.3434 43.5594 58.6819 43.3371 59.347C43.1919 59.7815 43.0402 60.2133 42.8817 60.6437C43.381 60.829 43.879 61.0129 44.3782 61.1981C44.5447 60.7477 44.7031 60.2959 44.8549 59.8428Z" fill="black"/>
<path d="M42.7605 55.6246C42.9416 54.897 43.104 54.1653 43.2465 53.4296C44.727 53.1604 46.2075 52.8352 47.6854 52.4567C46.3913 51.6464 45.0785 50.8881 43.7484 50.1831C43.8323 49.4554 43.8975 48.7251 43.9441 47.9934C46.109 49.1116 48.2299 50.3803 50.2936 51.797C50.1991 52.5074 50.0899 53.2164 49.9648 53.9241C47.5695 54.6477 45.1637 55.2142 42.7605 55.6246Z" fill="black"/>
<path d="M44.0254 44.499C44.0121 43.7527 43.9801 43.0077 43.9282 42.2627C45.2889 41.619 46.635 40.922 47.9651 40.173C46.5058 39.7278 45.0426 39.336 43.5754 39.0002C43.4689 38.2738 43.3437 37.5501 43.1986 36.8305C45.5792 37.3516 47.9557 38.0273 50.3137 38.8602C50.4055 39.5706 50.4827 40.2836 50.544 40.9979C48.4177 42.316 46.2395 43.4835 44.0254 44.499Z" fill="black"/>
<path d="M48.0542 36.6865C47.9184 35.9388 47.764 35.1951 47.5922 34.4541C48.194 34.3142 48.7945 34.1729 49.3963 34.033C49.5747 34.8033 49.7358 35.5763 49.8769 36.3533C49.2685 36.4639 48.6613 36.5745 48.0542 36.6865Z" fill="black"/>
<path d="M42.662 34.4861C42.176 32.611 41.5609 30.7625 40.8167 28.9553C41.3146 28.7501 41.8112 28.5448 42.3092 28.3396C42.8138 29.5657 43.2611 30.8105 43.6512 32.0686C44.0107 31.9566 44.3702 31.8447 44.7297 31.7327C44.3675 30.5652 43.9574 29.4111 43.4994 28.2703C43.9721 28.0797 44.4447 27.8891 44.9174 27.6985C45.3914 28.8767 45.8148 30.0708 46.1889 31.2783C46.9451 31.0424 47.7 30.8078 48.4563 30.5719C48.6866 31.3142 48.8996 32.0619 49.094 32.8122C46.9505 33.3693 44.8056 33.9277 42.662 34.4861Z" fill="black"/>
<path d="M43.9162 26.7003C42.7752 27.1974 41.6341 27.6945 40.4931 28.1917C40.2189 27.5599 39.9273 26.9335 39.621 26.3125C40.7248 25.7661 41.8285 25.2196 42.9336 24.6732C43.7937 24.2521 43.9468 23.5177 43.5048 22.6888C43.0614 21.8612 42.3877 21.5613 41.5769 22.0344C40.4958 22.6581 39.416 23.2819 38.3349 23.9056C37.9861 23.3018 37.6213 22.7034 37.2418 22.113C38.275 21.448 39.3068 20.7816 40.34 20.1166C42.1334 18.9331 43.8203 19.7594 44.9826 21.9265C46.1383 24.1081 45.8321 25.8874 43.9162 26.7003Z" fill="black"/>
<path d="M36.5575 21.0868C36.1914 20.5524 35.8106 20.0246 35.4165 19.5035C35.7254 17.9682 35.9477 16.3822 36.0756 14.7523C35.1955 15.5253 34.3154 16.2983 33.434 17.0713C32.9707 16.5435 32.4927 16.0237 31.9988 15.5146C33.5898 13.9713 35.1808 12.428 36.7719 10.8847C37.2765 11.4071 37.7678 11.9362 38.2457 12.4747C38.1765 14.2285 38.0021 15.9371 37.7332 17.5924C38.7011 16.8567 39.669 16.121 40.637 15.3853C41.1216 16.0224 41.5889 16.6688 42.0389 17.3245C40.2136 18.5786 38.3855 19.8327 36.5575 21.0868Z" fill="black"/>
<path d="M23.5044 44.5988L23.0663 42.1932C23.0357 42.028 23.0956 41.86 23.2248 41.7468L24.1914 40.8965L23.5044 44.5988Z" fill="#EAD481"/>
<path d="M46.9878 45.2892C47.9211 45.2812 48.8544 45.2732 49.7864 45.2652C49.853 45.2652 49.9062 45.3132 49.9062 45.3731C49.9062 45.4105 49.9062 45.4464 49.9062 45.4838C50.066 45.4838 50.2244 45.4824 50.3842 45.4824V45.4811C50.3842 45.3598 50.4907 45.2599 50.6239 45.2585C50.7557 45.2572 50.8635 45.3558 50.8635 45.4784C50.8635 45.6264 50.8635 45.7756 50.8635 45.9236C50.8635 46.3687 50.8635 46.8138 50.8635 47.259C50.8635 47.3816 50.757 47.4775 50.6252 47.4722C50.4934 47.4669 50.3869 47.3642 50.3869 47.2443C50.2271 47.239 50.0687 47.2336 49.9089 47.2283C49.9089 47.2643 49.9089 47.3003 49.9089 47.3363C49.9089 47.3962 49.8556 47.4429 49.7891 47.4415C48.8571 47.4069 47.9251 47.3722 46.9918 47.3363C46.8893 47.3323 46.7867 47.3149 46.6896 47.283C46.4992 47.2216 46.3101 47.1617 46.1197 47.103C45.8015 47.0924 45.482 47.0817 45.1638 47.071C45.1638 47.071 45.1638 47.071 45.1638 47.0697C45.1638 47.0697 45.1638 47.0697 45.1624 47.0697C44.072 47.0337 43.4729 46.8058 42.4943 46.41C42.425 46.382 42.3824 46.3354 42.3678 46.2861C42.3438 46.2074 42.3851 46.1208 42.493 46.0808C43.4689 45.7143 44.0667 45.5024 45.1584 45.4984C45.4766 45.4971 45.7962 45.4958 46.1144 45.4944C46.3048 45.4411 46.4938 45.3865 46.6842 45.3305C46.7827 45.3052 46.8853 45.2892 46.9878 45.2892Z" fill="black"/>
</g>
</g>
<rect x="1" y="89" width="88" height="88" rx="44" transform="rotate(-90 1 89)" stroke="black" stroke-width="2"/>
<defs>
<filter id="filter0_d_1625_906" x="8.78044" y="-24.7513" width="73.1874" height="140.4" filterUnits="userSpaceOnUse" color-interpolation-filters="sRGB">
<feFlood flood-opacity="0" result="BackgroundImageFix"/>
<feColorMatrix in="SourceAlpha" type="matrix" values="0 0 0 0 0 0 0 0 0 0 0 0 0 0 0 0 0 0 127 0" result="hardAlpha"/>
<feOffset dy="0.45"/>
<feGaussianBlur stdDeviation="0.9"/>
<feComposite in2="hardAlpha" operator="out"/>
<feColorMatrix type="matrix" values="0 0 0 0 0 0 0 0 0 0 0 0 0 0 0 0 0 0 0.4 0"/>
<feBlend mode="normal" in2="BackgroundImageFix" result="effect1_dropShadow_1625_906"/>
<feBlend mode="normal" in="SourceGraphic" in2="effect1_dropShadow_1625_906" result="shape"/>
</filter>
<linearGradient id="paint0_linear_1625_906" x1="45" y1="90" x2="45" y2="180" gradientUnits="userSpaceOnUse">
<stop stop-color="#EAD481"/>
<stop offset="1" stop-color="#FFD23A"/>
</linearGradient>
<radialGradient id="paint1_radial_1625_906" cx="0" cy="0" r="1" gradientUnits="userSpaceOnUse" gradientTransform="translate(33.6764 45.7773) rotate(-0.959506) scale(46.498 126.273)">
<stop/>
<stop offset="0.910049" stop-color="#1A1A1A"/>
</radialGradient>
<linearGradient id="paint2_linear_1625_906" x1="59.0071" y1="55.8445" x2="59.0071" y2="34.1542" gradientUnits="userSpaceOnUse">
<stop stop-color="#C89A00"/>
<stop offset="1" stop-color="#FFF2C4"/>
</linearGradient>
<linearGradient id="paint3_linear_1625_906" x1="42.073" y1="87.4076" x2="42.073" y2="2.59102" gradientUnits="userSpaceOnUse">
<stop stop-color="#C89A00"/>
<stop offset="1" stop-color="#FFF2C4"/>
</linearGradient>
<clipPath id="clip0_1625_906">
<rect y="90" width="90" height="90" rx="45" transform="rotate(-90 0 90)" fill="white"/>
</clipPath>
</defs>
</svg>
