<svg width="90" height="90" viewBox="0 0 90 90" fill="none" xmlns="http://www.w3.org/2000/svg">
<g clip-path="url(#clip0_394_15367)">
<mask id="mask0_394_15367" style="mask-type:luminance" maskUnits="userSpaceOnUse" x="0" y="0" width="90" height="90">
<path d="M0 0L0 90H90V0H0Z" fill="white"/>
</mask>
<g mask="url(#mask0_394_15367)">
<path d="M90 45C90 20.1472 69.8528 0 45 0C20.1472 0 0 20.1472 0 45C0 69.8528 20.1472 90 45 90C69.8528 90 90 69.8528 90 45Z" fill="#D80027"/>
<path d="M37.1757 21.5201V37.1722H21.5234L21.5234 52.8245H37.1757V68.4766H52.8278V52.8245H68.4799V37.1722H52.8278V21.5201H37.1757Z" fill="#F0F0F0"/>
</g>
</g>
<defs>
<clipPath id="clip0_394_15367">
<rect width="90" height="90" fill="white" transform="matrix(0 -1 1 0 0 90)"/>
</clipPath>
</defs>
</svg>
