<svg width="90" height="90" viewBox="0 0 90 90" fill="none" xmlns="http://www.w3.org/2000/svg">
<g clip-path="url(#clip0_394_15387)">
<mask id="mask0_394_15387" style="mask-type:luminance" maskUnits="userSpaceOnUse" x="0" y="0" width="90" height="90">
<path d="M0 0L0 90H90V0H0Z" fill="white"/>
</mask>
<g mask="url(#mask0_394_15387)">
<path d="M45 0C69.8527 0 90 20.1473 90 45C90 69.8527 69.8527 90 45 90L0 45C0 20.1473 20.1473 0 45 0Z" fill="#D80027"/>
<path d="M45 45H0C0 69.8527 20.1473 90 45 90V45Z" fill="#0052B4"/>
<path d="M26.3374 50.8697L28.9228 56.3655L34.2453 53.4391L33.1034 59.4067L39.1321 60.1631L34.6982 64.3196L39.1321 68.4765L33.1034 69.2325L34.2449 75.2003L28.9224 72.2739L26.3374 77.7695L23.7525 72.2737L18.4299 75.2003L19.5716 69.2327L13.543 68.4763L17.9769 64.3196L13.543 60.1629L19.5716 59.4067L18.4299 53.4389L23.7527 56.3655L26.3374 50.8697Z" fill="#F0F0F0"/>
<path d="M34.71 64.3188C34.71 59.6926 30.9597 55.9423 26.3335 55.9423C21.7073 55.9423 17.957 59.6926 17.957 64.3188C17.957 68.945 21.7073 72.6953 26.3335 72.6953C30.9597 72.6953 34.71 68.945 34.71 64.3188Z" fill="#0052B4"/>
<path d="M30.798 64.3181C30.798 66.7792 28.7956 68.7812 26.3345 68.7812C23.8734 68.7812 21.8711 66.779 21.8711 64.3181C21.8711 61.857 23.8734 59.8547 26.3345 59.8547C28.7956 59.8548 30.798 61.8573 30.798 64.3181Z" fill="#F0F0F0"/>
</g>
</g>
<defs>
<clipPath id="clip0_394_15387">
<rect width="90" height="90" fill="white" transform="matrix(0 -1 1 0 0 90)"/>
</clipPath>
</defs>
</svg>
