<svg width="90" height="90" viewBox="0 0 90 90" fill="none" xmlns="http://www.w3.org/2000/svg">
<g clip-path="url(#clip0_394_15399)">
<path d="M48.2982 90C46.1647 90 44.0313 90 41.8978 90C41.0687 89.884 40.2275 89.882 39.3963 89.853C36.8648 89.767 34.4443 89.1448 32.0428 88.4367C27.3858 87.0654 23.0759 84.955 19.094 82.1794C17.3147 80.9392 15.6523 79.5579 14.058 78.0856C11.4364 75.6651 9.16894 72.9476 7.19252 69.988C5.2041 67.0114 3.60576 63.8328 2.3845 60.4641C1.51932 58.0766 0.867183 55.6361 0.398084 53.1416C0.201042 52.0964 0.18904 51.0372 0.0960203 49.985C0.0460097 49.4239 0.0980207 48.8578 0 48.3007C0 46.0672 0 43.8338 0 41.6003C0.0820173 40.7772 0.0910192 39.95 0.128027 39.1248C0.218046 37.1534 0.641135 35.239 1.14324 33.3417C2.68957 27.5015 5.29012 22.1674 8.96889 17.3785C14.188 10.5821 20.8144 5.6361 28.7951 2.5235C31.5147 1.4633 34.3112 0.642097 37.2129 0.240997C38.2351 0.0999973 39.2723 0.099 40.2995 0C43.4992 0 46.6999 0 49.8995 0C50.8857 0.106 51.881 0.109 52.8652 0.236C55.4557 0.5691 57.9452 1.3103 60.3958 2.1804C64.7587 3.7307 68.7925 5.9102 72.4683 8.7287C77.8164 12.8306 82.1133 17.8256 85.257 23.8078C87.3654 27.8206 88.8518 32.0404 89.6789 36.4933C89.876 37.5565 89.871 38.6387 89.951 39.7139C89.963 39.876 89.9 40.046 90 40.199C90 43.3657 90 46.5323 90 49.6989C89.891 50.6961 89.88 51.7013 89.764 52.6985C89.5539 54.4979 89.0818 56.2402 88.5647 57.9676C87.1834 62.5825 85.119 66.8744 82.3624 70.8262C81.1901 72.5065 79.9029 74.0958 78.5206 75.6131C76.0511 78.3237 73.2835 80.6821 70.2418 82.7175C64.8777 86.3063 59.0025 88.6347 52.6381 89.6999C51.4049 89.907 50.1396 89.9 48.8863 89.951C48.6893 89.961 48.4862 89.896 48.2982 90Z" fill="#1F9D9C"/>
<path d="M29.7599 42.6558C29.2948 43.0349 29.0638 43.519 28.8687 44.0071C27.9115 46.3956 27.7395 48.8631 28.5406 51.2966C29.3548 53.7701 31.1992 55.3424 33.5707 56.3286C34.851 56.8607 36.2323 57.0737 37.5145 57.6028C42.0645 59.4792 44.375 63.512 44.203 67.9319C44.0139 72.7949 39.897 76.7136 35.004 76.7627C32.7215 76.7857 30.438 76.7667 28.1556 76.7687C27.4814 76.7697 27.4814 76.7727 27.4774 77.4158C27.4704 78.569 27.4704 78.569 26.2982 78.569C24.5148 78.569 22.7324 78.555 20.949 78.578C20.4659 78.584 20.3159 78.425 20.3229 77.9469C20.3399 76.7677 20.3199 76.7817 19.1317 76.7607C18.5375 76.7507 17.8344 76.9927 17.3773 76.6466C16.9432 76.3186 16.9302 75.6014 16.7402 75.0543C16.036 73.0239 15.3499 70.9885 14.6587 68.9541C14.4737 68.41 14.4797 68.4 15.0548 68.399C16.6041 68.396 18.1545 68.375 19.7038 68.41C20.2279 68.422 20.3609 68.241 20.3409 67.7529C20.3079 66.9547 20.3459 66.1535 20.3279 65.3534C20.3189 64.9753 20.4509 64.8313 20.839 64.8033C22.8164 64.6602 24.7909 64.4892 26.7673 64.3302C27.4724 64.2732 27.4754 64.2772 27.4764 64.9653C27.4784 65.9315 27.4944 66.8987 27.4714 67.8649C27.4614 68.276 27.5934 68.41 28.0105 68.406C30.21 68.389 32.4095 68.401 34.6089 68.397C35.4291 68.395 35.8722 67.9389 35.8562 67.1177C35.8442 66.4586 35.5021 65.9905 34.965 65.6454C34.5229 65.3614 34.0258 65.2263 33.5217 65.1043C30.141 64.2882 27.0353 62.9109 24.5868 60.3754C20.765 56.4176 19.2567 51.6226 19.7608 46.1855C20.0048 43.555 20.755 41.0505 22.0643 38.744C23.6736 35.9085 26.1211 34.3552 29.3928 34.3092C33.9408 34.2451 38.4907 34.2842 43.0397 34.2692C43.4208 34.2682 43.5718 34.3902 43.5698 34.7853C43.5578 37.1517 43.5558 39.5172 43.5718 41.8837C43.5748 42.3248 43.3778 42.4048 42.9947 42.4008C42.0215 42.3928 42.0375 42.3978 42.4626 43.26C43.8389 46.0495 44.0209 48.8621 42.4656 51.6376C40.9683 54.3112 37.7526 55.6324 34.5819 54.9573C31.5833 54.3192 29.7109 52.1967 29.3078 49.0071C29.0578 47.0267 29.2738 45.0853 29.7289 43.1579C29.7629 43.0159 29.8409 42.8779 29.7599 42.6558Z" fill="#FEFEFE"/>
<path d="M22.5172 23.0659C21.9751 22.5498 21.449 22.0197 21.0179 21.4075C19.8726 19.7832 19.4826 17.9878 19.8556 16.0435C20.2457 14.0121 21.603 12.8558 23.4694 12.2027C25.3338 11.5506 27.2812 11.3685 29.2306 11.3475C33.8466 11.2965 38.4626 11.3185 43.0785 11.2985C43.4636 11.2965 43.5616 11.4505 43.5606 11.8016C43.5516 14.2341 43.5476 16.6676 43.5626 19.1001C43.5656 19.5642 43.3546 19.6432 42.9525 19.6442C38.8697 19.6582 34.7868 19.5842 30.7049 19.6842C29.8367 19.7052 28.9746 19.7822 28.1544 20.1073C27.6123 20.3223 27.1772 20.6504 27.1292 21.2785C27.0802 21.9186 27.3832 22.4017 27.9123 22.7438C28.3694 23.0389 28.8625 23.2009 29.4187 23.1989C32.0512 23.1899 34.6848 23.2039 37.3173 23.1879C37.7924 23.1849 38.0555 23.2459 38.0185 23.825C37.9785 24.4431 38.3145 24.9312 38.7806 25.3303C39.7048 26.1215 40.616 26.9266 41.5472 27.7098C41.8013 27.9238 41.9033 28.1549 41.8943 28.4829C41.8743 29.2821 41.8553 30.0843 41.8913 30.8824C41.9143 31.3845 41.7563 31.5516 41.2462 31.5426C39.6798 31.5146 38.1135 31.5326 36.5472 31.5326C31.4141 31.5326 26.282 31.5326 21.1489 31.5326C20.4098 31.5326 20.4078 31.5306 20.4078 30.7974C20.4068 28.4639 20.4198 26.1315 20.3978 23.798C20.3928 23.3089 20.5498 23.1509 21.0259 23.1869C21.502 23.2229 21.9831 23.1949 22.4622 23.1949C22.4802 23.1519 22.4982 23.1089 22.5172 23.0659Z" fill="#FEFEFE"/>
<path d="M63.4773 52.9954C62.7131 54.2396 62.019 55.3518 61.3418 56.4751C60.5837 57.7333 59.9105 59.0336 59.4684 60.4418C59.3374 60.8579 59.2544 61.282 59.2384 61.7161C59.2234 62.1062 59.2844 62.4853 59.5665 62.7863C60.0175 63.2684 60.4856 63.2054 60.6997 62.5853C61.0308 61.6261 61.2968 60.6439 61.6059 59.6767C62.028 58.3544 62.5471 57.0772 63.3533 55.9329C64.7856 53.9005 66.743 52.9483 69.2245 53.0804C72.7322 53.2684 75.2328 55.2058 76.419 58.6725C78.0014 63.2954 77.1112 67.5983 74.7087 71.7021C74.5576 71.9601 74.4086 71.9942 74.1445 71.8771C72.0581 70.9539 69.9687 70.0368 67.8732 69.1336C67.5091 68.9766 67.5441 68.8465 67.7582 68.5655C69.1145 66.7801 69.9186 64.7887 69.9266 62.5173C69.9286 62.1112 69.8646 61.7131 69.5946 61.39C69.2355 60.9609 68.8394 61.016 68.6864 61.5451C68.4273 62.4402 68.2273 63.3524 67.9802 64.2516C67.5141 65.9489 66.907 67.5833 65.7588 68.9595C64.3295 70.6729 62.4701 71.343 60.2876 71.139C56.6668 70.7999 54.4464 68.6555 53.2371 65.3968C51.8118 61.5561 52.3679 57.8283 54.1653 54.2296C54.4564 53.6475 54.8165 53.1064 55.1615 52.5563C55.3766 52.2132 55.5706 52.1772 55.9257 52.3682C57.478 53.2054 59.1334 53.6575 60.9117 53.5915C61.7509 53.5595 62.5531 53.3494 63.4773 52.9954Z" fill="#FEFEFE"/>
<path d="M65.0408 51.0868C65.5169 50.6887 65.93 50.3546 66.3301 50.0066C68.5225 48.0992 69.7628 45.7137 69.9298 42.7961C69.9558 42.344 69.9198 41.891 69.6708 41.4919C69.5338 41.2718 69.3327 41.1078 69.0597 41.1148C68.7496 41.1228 68.7186 41.4059 68.6576 41.6159C68.2515 43.0232 67.9964 44.4715 67.4763 45.8477C66.8792 47.4271 66.126 48.9184 64.7327 49.9426C62.5213 51.5679 60.1178 51.5149 57.7133 50.4847C55.4338 49.5085 54.0285 47.6591 53.2223 45.3777C51.773 41.2778 52.4051 37.3791 54.5096 33.6523C54.6996 33.3152 54.8957 33.2352 55.2717 33.3853C57.2512 34.1764 59.2376 34.9486 61.229 35.7087C61.5881 35.8457 61.6501 35.9728 61.441 36.3128C60.6369 37.6211 59.9247 38.9764 59.4676 40.4517C59.3096 40.9638 59.2016 41.4849 59.2556 42.025C59.2876 42.348 59.3886 42.6431 59.6487 42.8611C60.1098 43.2492 60.4888 43.1852 60.6859 42.6181C61.014 41.6749 61.283 40.7117 61.5791 39.7575C61.9261 38.6413 62.3522 37.5581 62.9504 36.5489C64.6477 33.6833 67.4113 32.5071 70.67 33.2412C73.7326 33.9314 75.515 35.9718 76.4672 38.8163C78.0235 43.4643 77.0633 47.7811 74.6018 51.871C74.4418 52.137 74.3148 52.187 74.0207 52.006C71.3961 50.3947 68.5986 50.1126 65.6629 50.9728C65.4929 51.0238 65.3359 51.1398 65.0408 51.0868Z" fill="#FEFEFE"/>
<path d="M60.7529 21.6169C62.9683 21.6169 65.1838 21.6069 67.3983 21.6189C72.0382 21.6449 75.9761 25.1786 76.4342 29.7866C76.5542 30.9908 76.4712 32.216 76.4792 33.4313C76.4802 33.5263 76.5062 33.6513 76.3951 33.6973C76.2631 33.7524 76.185 33.6273 76.101 33.5563C75.4398 32.9972 74.8218 32.3861 74.0877 31.919C72.6864 31.0288 71.1499 30.5997 69.4936 30.5987C64.2975 30.5947 59.1005 30.5967 53.9044 30.5967C53.1772 30.5967 53.1753 30.5947 53.1753 29.8526C53.1742 27.3211 53.1853 24.7896 53.1642 22.2571C53.1602 21.765 53.2912 21.5979 53.8083 21.6039C56.1229 21.6319 58.4383 21.6169 60.7529 21.6169Z" fill="#FEFEFE"/>
<path d="M43.5175 29.9457C43.5175 29.2456 43.5045 28.5455 43.5225 27.8463C43.5335 27.4262 43.3775 27.1202 43.0594 26.8511C42.0672 26.0119 41.085 25.1608 40.1098 24.3026C39.8998 24.1186 39.5317 23.9745 39.6847 23.5985C39.8187 23.2674 40.1648 23.3574 40.4359 23.3524C41.7021 23.3284 42.9684 23.2944 44.2337 23.3104C44.7748 23.3174 45.1419 23.1134 45.4699 22.7073C46.3291 21.6451 47.2103 20.6019 48.0865 19.5537C48.2435 19.3656 48.3915 19.1136 48.6946 19.2256C48.9917 19.3346 48.9607 19.6197 48.9597 19.8667C48.9557 21.266 48.9567 22.6663 48.9317 24.0656C48.9237 24.5397 49.0867 24.8847 49.4488 25.1888C50.47 26.045 51.4712 26.9251 52.4784 27.7973C52.6524 27.9483 52.8755 28.0884 52.7765 28.3714C52.6765 28.6565 52.4134 28.6235 52.1843 28.6275C50.8351 28.6505 49.4858 28.6795 48.1365 28.6845C47.6834 28.6865 47.3523 28.8385 47.0633 29.1956C46.1721 30.2958 45.2559 31.375 44.3467 32.4602C44.1987 32.6373 44.0606 32.8673 43.7796 32.7763C43.4675 32.6763 43.5115 32.3912 43.5105 32.1452C43.5075 31.412 43.5095 30.6789 43.5095 29.9457C43.5125 29.9457 43.5145 29.9457 43.5175 29.9457Z" fill="#FEFEFE"/>
<path d="M35.8144 46.8438C34.4351 46.8438 33.5869 45.9366 33.5899 44.4663C33.5939 43.101 34.3551 42.4009 35.8324 42.4039C37.2727 42.4069 38.0819 43.1581 38.0769 44.4893C38.0719 45.9326 37.1957 46.8438 35.8144 46.8438Z" fill="#1F9D9C"/>
</g>
<defs>
<clipPath id="clip0_394_15399">
<rect width="90" height="90" fill="white" transform="matrix(0 -1 1 0 0 90)"/>
</clipPath>
</defs>
</svg>
