<svg width="90" height="90" viewBox="0 0 90 90" fill="none" xmlns="http://www.w3.org/2000/svg">
<path d="M48.2982 90C46.1647 90 44.0313 90 41.8978 90C41.0687 89.884 40.2275 89.882 39.3963 89.853C36.8648 89.767 34.4443 89.1448 32.0428 88.4367C27.3858 87.0654 23.0759 84.955 19.094 82.1794C17.3147 80.9392 15.6523 79.5579 14.058 78.0856C11.4364 75.6651 9.16894 72.9476 7.19252 69.988C5.2041 67.0114 3.60576 63.8328 2.3845 60.4641C1.51932 58.0766 0.867183 55.6361 0.398084 53.1416C0.201042 52.0964 0.18904 51.0372 0.0960203 49.985C0.0460097 49.4239 0.0980207 48.8578 0 48.3007C0 46.0672 0 43.8338 0 41.6003C0.0820173 40.7772 0.0910192 39.95 0.128027 39.1248C0.218046 37.1534 0.641135 35.239 1.14324 33.3417C2.68957 27.5015 5.29012 22.1674 8.96889 17.3785C14.188 10.5821 20.8144 5.63612 28.7951 2.5235C31.5147 1.46329 34.3112 0.642123 37.2129 0.241043C38.2351 0.100015 39.2723 0.099017 40.2995 -2.80055e-06C43.4992 -2.80055e-06 46.6999 -2.80055e-06 49.8995 -2.80055e-06C50.8857 0.106018 51.881 0.109018 52.8652 0.236043C55.4557 0.56911 57.9452 1.31026 60.3958 2.18043C64.7587 3.73074 68.7925 5.91018 72.4683 8.72874C77.8164 12.8306 82.1133 17.8256 85.257 23.8078C87.3654 27.8206 88.8518 32.0404 89.6789 36.4933C89.876 37.5565 89.871 38.6387 89.951 39.7139C89.963 39.876 89.9 40.046 90 40.199C90 43.3657 90 46.5323 90 49.6989C89.891 50.6961 89.88 51.7013 89.764 52.6985C89.5539 54.4979 89.0818 56.2402 88.5647 57.9676C87.1834 62.5825 85.119 66.8744 82.3624 70.8262C81.1901 72.5065 79.9029 74.0958 78.5206 75.6131C76.0511 78.3237 73.2835 80.6821 70.2418 82.7175C64.8777 86.3063 59.0025 88.6347 52.6381 89.6999C51.4049 89.907 50.1396 89.9 48.8863 89.951C48.6893 89.961 48.4862 89.896 48.2982 90Z" fill="#1F9D9C"/>
<path d="M29.7613 42.6555C29.2962 43.0346 29.0652 43.5187 28.8701 44.0068C27.9129 46.3953 27.7409 48.8628 28.542 51.2963C29.3562 53.7698 31.2006 55.3421 33.5721 56.3283C34.8524 56.8604 36.2337 57.0734 37.5159 57.6025C42.0659 59.4789 44.3764 63.5117 44.2044 67.9316C44.0153 72.7946 39.8984 76.7133 35.0054 76.7624C32.7229 76.7854 30.4394 76.7664 28.157 76.7684C27.4828 76.7694 27.4828 76.7724 27.4788 77.4155C27.4718 78.5687 27.4718 78.5687 26.2996 78.5687C24.5162 78.5687 22.7338 78.5547 20.9504 78.5777C20.4673 78.5837 20.3173 78.4247 20.3243 77.9466C20.3413 76.7674 20.3213 76.7814 19.1331 76.7604C18.5389 76.7504 17.8358 76.9924 17.3787 76.6463C16.9446 76.3183 16.9316 75.6011 16.7416 75.054C16.0374 73.0236 15.3513 70.9882 14.6601 68.9538C14.4751 68.4097 14.4811 68.3997 15.0562 68.3987C16.6055 68.3957 18.1559 68.3747 19.7052 68.4097C20.2293 68.4217 20.3623 68.2407 20.3423 67.7526C20.3093 66.9544 20.3473 66.1532 20.3293 65.3531C20.3203 64.975 20.4523 64.831 20.8404 64.803C22.8178 64.6599 24.7923 64.4889 26.7687 64.3299C27.4738 64.2729 27.4768 64.2769 27.4778 64.965C27.4798 65.9312 27.4958 66.8984 27.4728 67.8646C27.4628 68.2757 27.5948 68.4097 28.0119 68.4057C30.2114 68.3887 32.4109 68.4007 34.6103 68.3967C35.4305 68.3947 35.8736 67.9386 35.8576 67.1174C35.8456 66.4583 35.5035 65.9902 34.9664 65.6451C34.5243 65.3611 34.0272 65.226 33.5231 65.104C30.1424 64.2879 27.0367 62.9106 24.5882 60.3751C20.7664 56.4173 19.2581 51.6223 19.7622 46.1852C20.0062 43.5547 20.7564 41.0502 22.0657 38.7437C23.675 35.9082 26.1225 34.3549 29.3942 34.3089C33.9422 34.2448 38.4921 34.2839 43.0411 34.2689C43.4222 34.2679 43.5732 34.3899 43.5712 34.785C43.5592 37.1514 43.5572 39.5169 43.5732 41.8834C43.5762 42.3245 43.3792 42.4045 42.9961 42.4005C42.0229 42.3925 42.0389 42.3975 42.464 43.2597C43.8403 46.0492 44.0223 48.8618 42.467 51.6373C40.9697 54.3109 37.754 55.6321 34.5833 54.957C31.5847 54.3189 29.7123 52.1964 29.3092 49.0068C29.0592 47.0264 29.2752 45.085 29.7303 43.1576C29.7643 43.0156 29.8423 42.8776 29.7613 42.6555Z" fill="#FEFEFE"/>
<path d="M22.5188 23.0667C21.9767 22.5506 21.4506 22.0205 21.0195 21.4083C19.8742 19.784 19.4842 17.9886 19.8572 16.0443C20.2473 14.0129 21.6046 12.8566 23.471 12.2035C25.3354 11.5514 27.2828 11.3693 29.2322 11.3483C33.8482 11.2973 38.4642 11.3193 43.0801 11.2993C43.4652 11.2973 43.5632 11.4513 43.5622 11.8024C43.5532 14.2349 43.5492 16.6684 43.5642 19.1009C43.5672 19.565 43.3562 19.644 42.9541 19.645C38.8713 19.659 34.7884 19.585 30.7065 19.685C29.8383 19.706 28.9762 19.783 28.156 20.1081C27.6139 20.3231 27.1788 20.6512 27.1308 21.2793C27.0818 21.9194 27.3848 22.4025 27.9139 22.7446C28.371 23.0397 28.8641 23.2017 29.4203 23.1997C32.0528 23.1907 34.6864 23.2047 37.3189 23.1887C37.794 23.1857 38.0571 23.2467 38.0201 23.8258C37.9801 24.4439 38.3161 24.932 38.7822 25.3311C39.7064 26.1223 40.6176 26.9274 41.5488 27.7106C41.8029 27.9246 41.9049 28.1557 41.8959 28.4837C41.8759 29.2829 41.8569 30.0851 41.8929 30.8832C41.9159 31.3853 41.7579 31.5524 41.2478 31.5434C39.6814 31.5154 38.1151 31.5334 36.5488 31.5334C31.4157 31.5334 26.2836 31.5334 21.1505 31.5334C20.4114 31.5334 20.4094 31.5314 20.4094 30.7982C20.4084 28.4647 20.4214 26.1323 20.3994 23.7988C20.3944 23.3097 20.5514 23.1517 21.0275 23.1877C21.5036 23.2237 21.9847 23.1957 22.4638 23.1957C22.4818 23.1527 22.4998 23.1097 22.5188 23.0667Z" fill="#FEFEFE"/>
<path d="M63.4785 52.9966C62.7143 54.2408 62.0201 55.3531 61.343 56.4763C60.5848 57.7345 59.9117 59.0348 59.4696 60.4431C59.3386 60.8592 59.2556 61.2832 59.2396 61.7173C59.2246 62.1074 59.2856 62.4865 59.5676 62.7875C60.0187 63.2696 60.4868 63.2066 60.7009 62.5865C61.0319 61.6273 61.298 60.6451 61.6071 59.6779C62.0291 58.3557 62.5483 57.0784 63.3544 55.9342C64.7867 53.9018 66.7441 52.9496 69.2257 53.0816C72.7334 53.2696 75.2339 55.207 76.4202 58.6737C78.0025 63.2966 77.1123 67.5995 74.7098 71.7033C74.5588 71.9614 74.4098 71.9954 74.1457 71.8784C72.0593 70.9552 69.9698 70.038 67.8744 69.1348C67.5103 68.9778 67.5453 68.8478 67.7594 68.5667C69.1156 66.7813 69.9198 64.7899 69.9278 62.5185C69.9298 62.1124 69.8658 61.7143 69.5957 61.3913C69.2367 60.9622 68.8406 61.0172 68.6876 61.5463C68.4285 62.4415 68.2285 63.3537 67.9814 64.2528C67.5153 65.9502 66.9082 67.5845 65.7599 68.9608C64.3306 70.6741 62.4712 71.3443 60.2888 71.1402C56.668 70.8011 54.4475 68.6567 53.2383 65.3981C51.813 61.5573 52.3691 57.8296 54.1665 54.2308C54.4575 53.6487 54.8176 53.1076 55.1627 52.5575C55.3777 52.2144 55.5718 52.1784 55.9269 52.3695C57.4792 53.2066 59.1345 53.6587 60.9129 53.5927C61.7521 53.5607 62.5543 53.3507 63.4785 52.9966Z" fill="#FEFEFE"/>
<path d="M65.0427 51.0883C65.5188 50.6902 65.9319 50.3561 66.332 50.008C68.5244 48.1007 69.7647 45.7152 69.9317 42.7976C69.9577 42.3455 69.9217 41.8924 69.6727 41.4933C69.5357 41.2733 69.3346 41.1093 69.0616 41.1163C68.7515 41.1243 68.7205 41.4073 68.6595 41.6174C68.2534 43.0246 67.9983 44.4729 67.4782 45.8492C66.8811 47.4285 66.1279 48.9198 64.7346 49.944C62.5232 51.5694 60.1197 51.5163 57.7152 50.4861C55.4357 49.5099 54.0304 47.6606 53.2242 45.3791C51.7749 41.2793 52.407 37.3805 54.5115 33.6538C54.7015 33.3167 54.8976 33.2367 55.2736 33.3867C57.2531 34.1779 59.2395 34.95 61.2309 35.7102C61.59 35.8472 61.652 35.9742 61.4429 36.3143C60.6388 37.6226 59.9266 38.9778 59.4695 40.4531C59.3115 40.9652 59.2035 41.4863 59.2575 42.0264C59.2895 42.3495 59.3905 42.6446 59.6506 42.8626C60.1117 43.2507 60.4907 43.1867 60.6878 42.6196C61.0159 41.6764 61.2849 40.7132 61.581 39.759C61.928 38.6428 62.3541 37.5596 62.9523 36.5503C64.6496 33.6848 67.4132 32.5085 70.6719 33.2427C73.7345 33.9328 75.5169 35.9732 76.4691 38.8178C78.0255 43.4657 77.0652 47.7826 74.6037 51.8724C74.4437 52.1385 74.3167 52.1885 74.0226 52.0074C71.398 50.3961 68.6005 50.1141 65.6648 50.9742C65.4948 51.0252 65.3378 51.1413 65.0427 51.0883Z" fill="#FEFEFE"/>
<path d="M60.7538 21.6184C62.9693 21.6184 65.1848 21.6084 67.3992 21.6204C72.0392 21.6464 75.977 25.1801 76.4351 29.788C76.5552 30.9923 76.4721 32.2175 76.4801 33.4328C76.4811 33.5278 76.5071 33.6528 76.3961 33.6988C76.2641 33.7538 76.1861 33.6288 76.1021 33.5578C75.4409 32.9987 74.8228 32.3875 74.0886 31.9204C72.6873 31.0303 71.151 30.6012 69.4947 30.6002C64.2986 30.5962 59.1015 30.5982 53.9054 30.5982C53.1782 30.5982 53.1762 30.5962 53.1762 29.854C53.1752 27.3225 53.1862 24.791 53.1652 22.2585C53.1612 21.7664 53.2922 21.5994 53.8094 21.6054C56.1238 21.6334 58.4393 21.6184 60.7538 21.6184Z" fill="#FEFEFE"/>
<path d="M43.5183 29.946C43.5183 29.2458 43.5052 28.5457 43.5233 27.8466C43.5343 27.4265 43.3782 27.1204 43.0602 26.8514C42.0679 26.0122 41.0857 25.161 40.1105 24.3028C39.9005 24.1188 39.5324 23.9748 39.6854 23.5987C39.8195 23.2676 40.1655 23.3577 40.4366 23.3527C41.7029 23.3287 42.9691 23.2946 44.2344 23.3106C44.7755 23.3176 45.1426 23.1136 45.4707 22.7075C46.3298 21.6453 47.211 20.6021 48.0872 19.5539C48.2442 19.3659 48.3923 19.1138 48.6953 19.2258C48.9924 19.3349 48.9614 19.6199 48.9604 19.867C48.9564 21.2662 48.9574 22.6665 48.9324 24.0658C48.9244 24.5399 49.0874 24.885 49.4495 25.189C50.4707 26.0452 51.4719 26.9254 52.4791 27.7975C52.6532 27.9486 52.8762 28.0886 52.7772 28.3717C52.6772 28.6567 52.4141 28.6237 52.1851 28.6277C50.8358 28.6507 49.4865 28.6797 48.1372 28.6847C47.6841 28.6867 47.3531 28.8388 47.064 29.1958C46.1728 30.296 45.2566 31.3753 44.3474 32.4605C44.1994 32.6375 44.0614 32.8676 43.7803 32.7765C43.4682 32.6765 43.5122 32.3915 43.5112 32.1454C43.5082 31.4123 43.5102 30.6791 43.5102 29.946C43.5132 29.946 43.5153 29.946 43.5183 29.946Z" fill="#FEFEFE"/>
<path d="M35.8136 46.8442C34.4343 46.8442 33.5861 45.937 33.5891 44.4667C33.5931 43.1014 34.3543 42.4013 35.8316 42.4043C37.2719 42.4073 38.0811 43.1585 38.0761 44.4897C38.0711 45.933 37.1949 46.8442 35.8136 46.8442Z" fill="#1F9D9C"/>
</svg>
