<svg width="90" height="90" viewBox="0 0 90 90" fill="none" xmlns="http://www.w3.org/2000/svg">
<g clip-path="url(#clip0_394_15410)">
<path d="M45 90C20.1472 90 0 69.8528 0 45C0 20.1472 20.1472 0 45 0C69.8528 0 90 20.1472 90 45C90 69.8528 69.8528 90 45 90Z" fill="#FF0000"/>
<path d="M45 80C25.67 80 10 64.33 10 45C10 25.67 25.67 10 45 10C64.33 10 80 25.67 80 45C80 64.33 64.33 80 45 80Z" fill="white"/>
<path d="M45 70C31.1929 70 20 58.8071 20 45C20 31.1929 31.1929 20 45 20C58.8071 20 70 31.1929 70 45C70 58.8071 58.8071 70 45 70Z" fill="#FF0000"/>
<path d="M45 60C36.7157 60 30 53.2843 30 45C30 36.7157 36.7157 30 45 30C53.2843 30 60 36.7157 60 45C60 53.2843 53.2843 60 45 60Z" fill="white"/>
<path d="M45 50C42.2386 50 40 47.7614 40 45C40 42.2386 42.2386 40 45 40C47.7614 40 50 42.2386 50 45C50 47.7614 47.7614 50 45 50Z" fill="#FF0000"/>
</g>
<defs>
<clipPath id="clip0_394_15410">
<rect width="90" height="90" fill="white" transform="matrix(0 -1 1 0 0 90)"/>
</clipPath>
</defs>
</svg>
