<svg width="90" height="90" viewBox="0 0 90 90" fill="none" xmlns="http://www.w3.org/2000/svg">
<g clip-path="url(#clip0_394_15457)">
<mask id="mask0_394_15457" style="mask-type:luminance" maskUnits="userSpaceOnUse" x="0" y="0" width="90" height="90">
<path d="M0 0L0 90H90V0H0Z" fill="white"/>
</mask>
<g mask="url(#mask0_394_15457)">
<path d="M90 45C90 20.1472 69.8528 0 45 0C20.1472 0 0 20.1472 0 45C0 69.8528 20.1472 90 45 90C69.8528 90 90 69.8528 90 45Z" fill="#F0F0F0"/>
<path d="M29.3477 2.799L29.3477 87.201C34.2226 89.01 39.4953 90 44.9997 90C50.5042 90 55.7769 89.01 60.6518 87.201L60.6518 2.7988C55.7769 0.989998 50.5042 0 44.9997 0C39.4953 0 34.2226 0.990004 29.3477 2.799Z" fill="#0052B4"/>
<path d="M0 45.001C0 58.64 6.06867 70.8609 15.6521 79.1133L15.6521 10.8889C6.06867 19.1411 0 31.362 0 45.001ZM74.3479 10.8887V79.1133C83.9313 70.8609 90 58.64 90 45.001C90 31.362 83.9313 19.1411 74.3479 10.8887Z" fill="#D80027"/>
</g>
</g>
<defs>
<clipPath id="clip0_394_15457">
<rect width="90" height="90" fill="white" transform="matrix(0 -1 1 0 0 90)"/>
</clipPath>
</defs>
</svg>
