<svg width="90" height="90" viewBox="0 0 90 90" fill="none" xmlns="http://www.w3.org/2000/svg">
<g clip-path="url(#clip0_1558_47631)">
<path d="M89.1532 47.4983C89.1532 51.7369 88.4848 55.8821 87.1671 59.8182C85.0937 66.0025 81.9114 70.3456 80.195 72.3846C76.7772 76.4514 73.3937 78.7145 70.9215 80.3689C64.0519 84.9697 57.581 86.9377 55.1165 87.5689C51.8621 88.4054 45.0874 90.1456 36.5658 88.7041C31.314 87.8153 27.5013 86.0676 24.9836 84.9099C21.2848 83.2145 17.0924 81.2913 12.9988 77.2954C8.1342 72.5489 6.1899 67.5896 4.46965 63.2166C1.64433 56.0203 1.22661 50.1124 1.00256 46.9419C0.869648 45.0523 0.759521 43.3456 0.759521 41.5382C0.759521 37.9904 1.20762 34.8759 2.17218 31.7315C2.8861 29.4012 3.96458 25.8796 6.87724 22.5C7.62914 21.6299 8.16458 21.1593 8.73041 20.6626C9.31901 20.1473 9.98357 19.5647 11.0696 18.3772C12.7443 16.5435 13.595 15.2738 14.4988 13.9294C15.0418 13.1228 15.6 12.29 16.3481 11.3265C18.7443 8.24562 21.5127 5.66139 24.1443 4.05185C28.3975 1.44521 32.4304 1.28089 40.4621 0.952263C46.2874 0.713257 50.4912 0.541473 55.8988 2.10247C60.1215 3.32363 63.1671 5.03773 66.6912 7.02446C69.4671 8.58919 72.338 10.2062 75.562 13.0967C79.1924 16.3494 81.376 19.5124 82.1507 20.7224C82.8722 21.8502 85.0633 25.2859 86.8026 32.1423C87.7937 36.056 89.1532 41.4224 89.1532 47.4983Z" fill="#C1503E"/>
<path d="M1.51899 41.5382C1.51899 38.588 1.82278 35.4586 2.89747 31.9482C3.65696 29.476 4.70127 26.1822 7.45443 22.9855C8.93165 21.2714 9.46709 21.249 11.6316 18.8777C14.3772 15.8714 15.0038 14.2843 16.9481 11.7822C17.5899 10.9569 20.5747 7.1179 24.543 4.68678C28.6291 2.18471 32.5823 2.02412 40.4924 1.69923C46.2911 1.46023 50.3962 1.29218 55.6823 2.81956C59.8215 4.01458 62.8443 5.71748 66.3152 7.67433C69.2165 9.31002 71.9506 10.871 75.0494 13.6494C78.8962 17.1001 81.0418 20.3901 81.5051 21.1183C82.5911 22.8175 84.5013 26.1523 86.062 32.3216C87.076 36.3212 88.3899 41.5158 88.3899 47.4984C88.3899 51.2478 87.8734 55.3108 86.4418 59.583C84.2013 66.2677 80.6658 70.6445 79.6063 71.9067C76.3215 75.8092 73.0443 78.0424 70.4924 79.749C63.2051 84.6299 56.5367 86.4299 54.9228 86.8445C51.4215 87.7445 44.8861 89.354 36.6949 87.9648C31.6481 87.1096 27.9722 85.4552 25.3025 84.2303C21.6873 82.5723 17.5329 80.6677 13.5304 76.7615C8.78354 72.127 6.85443 67.2162 5.17595 62.944C2.44557 55.9942 1.99367 50.2395 1.75823 46.886C1.63671 45.142 1.51899 43.3756 1.51899 41.5382ZM0 41.5382C0 43.3718 0.110127 45.0897 0.243038 46.9868C0.470886 50.1984 0.892405 56.1772 3.75949 63.4781C5.50633 67.9221 7.48101 72.9598 12.4595 77.8183C16.6519 81.9075 20.9089 83.8606 24.6608 85.5822C27.2203 86.7548 31.0861 88.5287 36.4405 89.4362C45.1215 90.9075 52.0025 89.1374 55.3101 88.2897C58.4165 87.4905 64.6329 85.4814 71.3506 80.9851C73.7165 79.4017 77.2937 77.0079 80.7797 72.859C82.5266 70.7789 85.7734 66.3536 87.8886 60.0499C89.2329 56.0391 89.9127 51.8154 89.9127 47.4984C89.9127 41.3328 88.5418 35.9142 87.5392 31.9594C85.7734 24.9872 83.5329 21.4768 82.7962 20.3229C82.0063 19.0868 79.7734 15.8602 76.0785 12.544C72.7937 9.59756 69.8848 7.96188 67.0747 6.37848C63.5089 4.36935 60.4253 2.63284 56.1152 1.38554C50.5899 -0.209068 46.3291 -0.0372849 40.4354 0.205452C32.2709 0.54155 28.1696 0.709602 23.7456 3.41707C20.9962 5.1013 18.2316 7.67806 15.7481 10.8747C14.9848 11.8569 14.4152 12.7046 13.8684 13.5225C12.9835 14.8445 12.1443 16.088 10.5076 17.8806C9.4481 19.0382 8.79873 19.6059 8.22911 20.11C7.64051 20.6254 7.08608 21.1108 6.3038 22.022C3.29241 25.5212 2.18354 29.1287 1.45063 31.5187C0.459494 34.7303 0 37.9158 0 41.5382Z" fill="#333333"/>
<path d="M61.0486 61.4506C64.5754 63.3661 67.8185 63.8725 71.2606 63.039C76.4965 61.772 78.3461 57.2782 78.3461 53.3572C78.3461 53.2286 78.3432 53.1 78.3404 52.9741C78.1943 48.4018 75.8657 45.4682 75.1526 44.6794L75.0416 44.5563H71.8683L71.8099 44.8471C71.6638 45.5741 71.0851 46.1392 70.3344 46.2817L70.0159 46.3432L70.0365 46.6537C70.0422 46.746 70.0482 46.8356 70.0482 46.9445C70.0482 47.6491 69.9049 48.3568 69.6245 49.0504C69.122 50.2865 67.0036 51.0135 65.1891 51.2822L65.0898 51.2961L65.0111 51.3576C64.8211 51.5059 64.6253 51.6094 64.4324 51.6651L63.8101 51.8972L64.3505 52.3222C64.3968 52.3669 64.4466 52.4081 64.4995 52.4454C66.4015 53.7093 69.5135 52.8984 69.5454 52.89C69.6681 52.8564 69.7968 52.8845 69.8901 52.9653C69.972 53.0325 70.0099 53.1303 70.0128 53.284C69.5337 56.4078 68.2157 58.5975 66.0945 59.786C64.7534 60.5384 63.123 60.8768 61.2501 60.79L59.6898 60.7173L61.0486 61.4506Z" fill="white"/>
<path d="M63.7747 46.458C63.4212 47.4005 63.0209 48.4688 63.0209 49.3635C63.0209 49.9564 63.1992 50.4374 63.5527 50.7897C63.5761 50.812 63.7836 51.0049 64.0584 50.9994C64.2073 50.9967 64.3534 50.9349 64.5317 50.7981L64.7186 50.6386C64.897 50.4513 65.1013 50.0878 65.341 49.6626C66.092 48.3287 67.3455 46.097 70.1826 45.5797C70.4748 45.5264 70.729 45.3588 70.9013 45.107L71.2811 44.5531H68.4908C68.2862 44.5531 68.1167 44.3936 68.1167 44.1951C68.1167 43.9965 68.2834 43.837 68.4908 43.837H71.3134L70.8605 43.2638C70.6882 43.0486 70.4485 42.9003 70.1797 42.8528C67.3426 42.3355 66.0863 40.101 65.3381 38.7669C65.0633 38.2748 64.8824 37.9643 64.7158 37.7909C64.4849 37.5533 64.2601 37.4328 64.0467 37.4358C63.8715 37.4358 63.6609 37.5309 63.5499 37.651H63.547C62.5974 38.599 63.0414 39.9945 63.775 41.8655C64.0995 42.6906 64.4033 43.4708 64.409 44.1L64.7831 44.0973L64.409 44.114C64.4119 44.7689 64.102 45.5882 63.7747 46.458Z" fill="#5B5B5B"/>
<path d="M71.2577 25.7161C74.7668 26.5663 77.1687 29.0106 78.0248 32.6152L78.0393 32.7215C78.2423 33.6004 78.3452 34.4977 78.3461 35.3978C78.3461 35.5265 78.3461 35.6551 78.3372 35.7837C78.1968 40.3197 75.871 43.0157 75.1611 43.7288L75.0501 43.8435H71.8595L71.801 43.5584C71.7288 43.2335 71.5639 42.9342 71.3246 42.6937C71.0852 42.4533 70.7808 42.2811 70.4453 42.1964L70.1474 42.118L70.1708 41.8187C70.1854 41.704 70.1942 41.5839 70.1942 41.4468C70.1942 40.784 70.0598 40.1211 69.791 39.4695C69.1279 37.8364 65.9079 37.3076 65.2739 37.2238L65.1629 37.2099L65.081 37.1372C64.8735 36.9665 64.6484 36.8436 64.4178 36.7792L63.7019 36.5806L64.298 36.1527C64.3653 36.0967 64.4033 36.0604 64.4558 36.0325C66.3404 34.8495 69.4932 35.8537 69.5223 35.8676C69.6478 35.9039 69.7822 35.8815 69.8875 35.8031C69.9694 35.7305 70.0219 35.6324 70.0219 35.5262C69.7006 33.4149 69.0081 31.7312 67.9415 30.4979C67.4292 29.8859 66.8019 29.3709 66.0919 28.9794C64.7508 28.2243 63.1261 27.8887 61.2474 27.9728L59.6901 28.0454L61.0457 27.3042C64.5725 25.389 67.8216 24.8799 71.2577 25.7161Z" fill="white"/>
<path d="M69.0954 39.7239C68.85 39.1199 68.0114 38.6165 66.6001 38.2279L65.741 37.993L66.1675 38.7424C66.8016 39.8556 67.5728 40.9797 68.8908 41.6621L69.4578 41.9557L69.4432 41.3404C69.4315 40.8035 69.3117 40.2609 69.0954 39.7239ZM43.3773 60.9079C43.0237 62.0377 42.0362 64.2413 39.4154 66.3024C38.46 67.0518 37.975 67.9244 37.975 68.8947C37.975 69.9126 38.5331 70.7433 38.7728 71.0536C40.2745 72.9945 43.4652 73.9536 46.209 72.2031C48.2514 70.8998 48.9759 69.4988 48.9759 68.3633C48.9781 67.9992 48.8994 67.6388 48.7451 67.3061C48.4238 66.6236 47.8451 66.2601 47.5033 66.347L47.3629 66.4169C46.9626 66.7301 46.6119 67.1327 46.2409 67.5579C45.4286 68.4892 44.5871 69.451 43.2109 69.451C42.8018 69.451 42.5213 69.3309 42.3812 69.093C42.1212 68.6568 42.4454 68.0891 43.0971 67.0431C43.7137 66.0531 44.4821 64.8198 44.7449 63.4636C45.0459 61.903 44.4878 61.1116 43.9619 60.7284L43.5325 60.4125L43.3773 60.9079ZM15.1784 45.5994C14.8628 46.0356 14.3341 46.9445 14.3341 48.1472C14.3341 49.1345 14.6905 50.1103 15.3947 51.0445C16.4085 52.3926 16.5986 53.6622 16.7652 54.7836C16.9815 56.2378 17.1861 57.611 19.2254 58.9811L20.1342 59.5907L19.7952 58.5783C18.7491 55.4658 18.1531 53.1223 18.1151 51.9813L18.1006 51.4108C18.0655 49.758 18.0101 46.9923 16.7595 45.9127C16.441 45.6358 16.0407 45.4793 15.5733 45.4457H15.4914L15.284 45.4542L15.1784 45.5994Z" fill="#5B5B5B"/>
<path d="M35.7394 57.3673L35.6341 57.6972C35.3827 58.4775 35.2015 59.3388 35.0936 60.2589L35.0674 60.4714L35.2543 60.5916C35.4326 60.7063 35.5961 60.7928 35.7394 60.8488C37.3173 61.4614 39.269 60.3873 40.0899 58.4551C40.3324 57.8818 40.4551 57.2889 40.4551 56.7127C40.4551 56.3631 40.4083 56.022 40.3179 55.6976C40.0665 54.7999 39.497 54.1398 38.7137 53.835C38.6084 53.793 38.4506 53.7539 38.2843 53.7203L38.0857 53.6813L37.9424 53.8211C37.2411 54.5036 36.651 55.3425 36.1836 56.3156L35.9996 56.696L37.5715 57.1101C37.6667 57.1356 37.7474 57.1961 37.7961 57.2783C37.8448 57.3606 37.8575 57.458 37.8315 57.5492C37.8185 57.5944 37.7963 57.6367 37.7662 57.6737C37.736 57.7107 37.6986 57.7416 37.656 57.7647C37.6134 57.7878 37.5664 57.8027 37.5178 57.8084C37.4691 57.8141 37.4198 57.8106 37.3726 57.798L35.7394 57.3673ZM37.8346 31.2083C37.8589 31.2995 37.845 31.3962 37.7958 31.4776C37.7467 31.5591 37.6662 31.619 37.5715 31.6445L35.9996 32.0443L36.1836 32.4302C36.6744 33.4565 37.3056 34.3345 38.0654 35.0448L38.2172 35.1874L38.4218 35.1341C38.5211 35.109 38.6204 35.0782 38.7169 35.0418C39.4998 34.7398 40.0696 34.077 40.321 33.1793C40.4115 32.8548 40.4583 32.511 40.4583 32.1614C40.4583 31.5855 40.3356 30.9896 40.093 30.4191C39.2721 28.4866 37.3201 27.41 35.7425 28.0253C35.5993 28.0813 35.4446 28.1651 35.2663 28.2853L35.0851 28.4085L35.1113 28.6182C35.2195 29.485 35.3978 30.3016 35.6344 31.0455L35.7396 31.3755L37.3818 30.956C37.5744 30.9063 37.779 31.0182 37.8346 31.2083Z" fill="#F9DC62"/>
<path d="M52.7067 74.7173L52.8032 74.8544C53.2443 75.506 53.7996 76.3114 53.5744 76.9267C53.484 77.1728 53.2823 77.3516 52.9929 77.444C51.2281 78.0087 47.6254 78.4088 45.6326 78.5962L43.8122 78.7696L45.5596 79.2926C46.9035 79.6954 48.8641 79.877 51.3799 79.838C56.9956 79.7484 57.6094 77.2121 57.9424 75.8501C58.0594 75.3719 58.1353 75.0923 58.3544 74.9246C58.5473 74.7763 58.8016 74.7037 59.1228 74.6113C60.0725 74.3402 61.6589 73.8871 62.5734 70.8275C62.7837 70.1229 62.8685 69.4964 62.8685 68.9483C62.8685 67.922 62.5763 67.1584 62.2724 66.6384L61.7054 65.6763L61.5768 66.7752C61.1881 70.1423 59.9375 71.4062 58.5818 72.5055C56.928 73.845 55.3561 73.6689 53.5359 73.4676L53.2409 73.434C52.943 73.4031 52.6887 73.4564 52.5629 73.5793L52.5104 73.6465C52.4111 73.8002 52.4168 74.0687 52.5455 74.4519C52.5606 74.5048 52.6248 74.5999 52.7067 74.7173ZM66.1533 49.7272L65.715 50.4935L66.5887 50.239C67.4944 49.9732 68.6369 49.5062 68.9291 48.7847C69.1394 48.2708 69.2618 47.7279 69.2914 47.1767L69.3265 46.5139L68.7305 46.8522C67.5089 47.5432 66.7696 48.6421 66.1533 49.7272ZM26.3574 41.1196C26.4684 39.52 27.1552 37.2352 27.7102 35.5991L28.0989 34.4526L27.1201 35.2132C25.6738 36.3346 25.3291 37.3609 24.9638 38.4489C24.7184 39.1816 24.4614 39.9368 23.8653 40.7309C23.199 41.6174 22.9362 42.4228 23.0969 43.1359C23.2752 43.9328 23.9412 44.3495 24.0787 44.4334C24.3681 44.6571 24.628 44.7158 24.8794 44.6123C25.5919 44.3105 26.2404 42.7778 26.3574 41.1196Z" fill="#5B5B5B"/>
<path d="M79.0151 33.7478L79.6931 34.3685C80.2161 34.8383 80.6835 35.4817 81.0867 36.2589C82.2115 38.3788 82.8838 41.4746 82.8838 44.8193C82.8838 49.4923 81.5952 53.6285 79.6055 55.3539L78.8605 55.9971L78.9803 55.0491C79.0768 54.3415 79.1059 53.6369 79.0856 52.9517C78.9452 48.4857 76.8269 45.5184 75.9184 44.4501L75.7255 44.2152L75.9329 43.9858C76.485 43.3874 77.4903 42.1233 78.2148 40.2189C78.6853 39.0053 79.0357 37.5286 79.0856 35.8031C79.1002 35.4257 79.0945 35.0396 79.0711 34.6482L79.0151 33.7478Z" fill="white"/>
<path d="M61.1366 1.83322C58.2966 4.45909 55.9708 4.67184 55.8744 4.68003C55.7545 4.69396 55.6435 4.64371 55.5616 4.56532C55.5241 4.52245 55.4972 4.47198 55.4831 4.41772C55.4689 4.36345 55.4677 4.30682 55.4798 4.25208L56.067 1.62048L55.427 1.85534C53.0952 2.69704 49.3963 4.78053 47.7716 5.75659C47.7126 5.79144 47.645 5.8106 47.5757 5.81209C47.5063 5.81358 47.4379 5.79735 47.3773 5.76506C47.2574 5.69241 47.1904 5.55805 47.1989 5.42396L47.3624 3.74056L46.7139 4.14611C44.47 5.56679 41.4896 7.0713 41.3698 7.12729C41.2208 7.20567 41.0336 7.17754 40.9226 7.06284C40.8116 6.94267 40.7882 6.76352 40.8701 6.62669C41.2588 6.01413 41.0336 4.70816 40.8613 3.98663L40.7415 3.4945L40.2943 3.76568C35.9789 6.36916 33.2527 9.92931 33.2205 9.96564C33.1739 10.028 33.107 10.0736 33.0302 10.0954C32.9535 10.1171 32.8713 10.1138 32.7968 10.0858C32.6333 10.0298 32.5425 9.90118 32.5514 9.72776C32.6099 8.84974 32.7003 8.05255 32.8113 7.33949L32.9691 6.36916L32.2007 7.01805C28.826 9.89845 26.1701 13.7522 26.1407 13.7942C26.0822 13.8808 25.9829 13.9368 25.8719 13.9507C25.7609 13.9647 25.6471 13.9229 25.5652 13.85L24.0457 12.3957L23.8003 12.7592C22.7426 14.3 21.0714 15.4132 19.8647 16.0703L19.2977 16.3778L19.8558 16.6853C20.4172 17.008 20.9734 17.339 21.5242 17.678C22.0004 17.9716 22.4476 18.2401 22.8798 18.4779C23.0522 18.5702 23.1195 18.7912 23.0202 18.9619C22.9774 19.0343 22.9091 19.0898 22.8273 19.1183C22.8185 19.1183 22.8039 19.1268 22.7982 19.1268C22.751 19.1405 22.7013 19.1444 22.6524 19.1381C22.6036 19.1319 22.5567 19.1156 22.5149 19.0905C22.0592 18.8472 21.5827 18.5563 21.0685 18.2488C18.7573 16.8451 15.59 14.918 9.40445 13.8833C6.07341 13.3267 3.45857 14.3028 2.39197 16.4952C1.50371 18.3296 1.8193 21.1404 4.27064 23.6712C4.59792 24.0123 4.972 24.348 5.38089 24.6779C5.56779 24.8289 5.73728 24.963 5.90392 25.0974C5.92732 25.1113 5.94187 25.1337 5.96241 25.1476C8.3758 27.1527 8.75873 28.0589 8.95733 28.9508C8.978 29.0217 8.9749 29.0969 8.94848 29.166C8.92658 29.2229 8.89074 29.2739 8.84397 29.3148C8.79719 29.3556 8.74086 29.3852 8.67969 29.4009C8.47225 29.4429 8.28535 29.3364 8.24141 29.1521L8.23257 29.11C8.08362 28.4753 7.88188 27.6055 4.90152 25.2227C3.56614 24.1601 2.52323 22.8765 1.89206 21.52L1.25804 20.172L1.17615 21.6402C1.01835 24.4646 1.81616 26.8335 3.55444 28.6875C5.07387 30.3207 6.41496 31.9484 6.06713 33.5228C4.40447 40.9421 5.82174 43.8449 5.88024 43.9736C5.90502 44.0152 5.92041 44.0614 5.92543 44.1091C5.93044 44.1568 5.92496 44.2049 5.90934 44.2505C4.41046 48.9011 5.88594 55.6997 6.06713 56.4688C6.07598 56.5188 6.07598 56.5698 6.06713 56.6198C5.67279 58.3731 4.83105 59.9505 3.55444 61.3125C1.80418 63.1805 0.968706 65.636 1.14676 68.4241L1.2432 69.8868L1.86267 68.5445C2.49669 67.1601 3.5456 65.8542 4.90438 64.7719C7.41707 62.7752 7.95179 61.841 8.14753 61.2117L8.52161 61.2677L8.878 61.3685C8.61806 62.2326 7.98974 63.2365 5.38346 65.32C1.92487 68.0892 1.39015 71.42 2.3954 73.5035C3.46199 75.6932 6.07683 76.6635 9.40787 76.1069C12.9024 75.5225 15.7718 74.6164 18.4249 73.2544L18.5067 73.2123C19.512 72.6978 20.3769 72.1721 21.0691 71.7496C21.5833 71.4364 22.0595 71.1512 22.5155 70.8994C22.5974 70.8574 22.7024 70.8435 22.7988 70.8631C22.8938 70.8904 22.9742 70.9515 23.0237 71.0338C23.1201 71.1988 23.0528 71.4254 22.8833 71.5177C22.4507 71.7526 22.0039 72.0238 21.4663 72.3513C21.0046 72.6282 20.4961 72.9357 19.9468 73.2489L19.4181 73.5564L19.9468 73.864C21.1244 74.5407 22.7489 75.6763 23.8009 77.2226L24.0463 77.5945L25.5657 76.1403C25.6476 76.0619 25.7586 76.0256 25.8725 76.0395C25.927 76.0435 25.9797 76.0598 26.0264 76.087C26.0731 76.1141 26.1125 76.1515 26.1413 76.196C26.1704 76.2323 28.8234 80.0915 32.2013 82.9664L32.9697 83.6235L32.8119 82.6474C32.7009 81.9398 32.6102 81.1345 32.552 80.2649C32.5431 80.1 32.6338 79.9574 32.7916 79.9014C32.9494 79.8512 33.1278 79.9014 33.2242 80.03C33.2533 80.0664 35.9826 83.6265 40.298 86.23L40.7452 86.5012L40.865 86.009C41.0373 85.2821 41.2593 83.9761 40.8796 83.3635C40.8349 83.2981 40.8149 83.22 40.8228 83.1421C40.8308 83.0643 40.8663 82.9914 40.9235 82.9356C41.0345 82.8209 41.2214 82.793 41.3706 82.8629C41.4905 82.9274 44.4708 84.4319 46.7147 85.8441L47.3633 86.2581L47.2055 84.5747C47.191 84.4404 47.258 84.3035 47.3779 84.2336C47.4977 84.161 47.6526 84.161 47.7722 84.2336C49.3966 85.2179 53.0929 87.2932 55.4275 88.1433L56.0676 88.3782L55.4803 85.7466C55.4569 85.6319 55.4892 85.5172 55.5622 85.4334C55.6441 85.3468 55.7551 85.3047 55.8749 85.3132C55.9714 85.3217 58.2972 85.5341 61.1372 88.16L61.6368 88.6243L61.7623 87.9615C61.8967 87.226 61.9786 86.0486 61.6279 84.6222C61.59 84.4936 61.6425 84.3592 61.7478 84.2642C61.8151 84.214 61.9056 84.1858 61.9875 84.1858C62.04 84.1858 62.0928 84.1943 62.1364 84.2137C62.1655 84.2276 65.1402 85.4833 67.6734 85.1897L68.3805 85.1114L67.91 84.6053C67.2554 83.8977 66.7997 83.2155 66.598 82.6141C66.5699 82.5348 66.5717 82.4485 66.6032 82.3703C66.6347 82.2921 66.6938 82.227 66.7703 82.1862C66.8902 82.1302 69.5869 80.7655 72.3364 80.4159L72.9034 80.3433L71.352 77.9384C71.2995 77.8518 71.2846 77.7537 71.314 77.6672C71.3374 77.5749 71.3959 77.4883 71.4864 77.4462C71.6208 77.3679 74.8699 75.5558 77.9701 75.1923L78.4932 75.1363L78.2623 74.6805C77.7715 73.752 76.8393 72.5132 75.1681 71.8616C75.0425 71.8113 74.9518 71.6966 74.9373 71.568C74.9227 71.4394 74.9898 71.305 75.1008 71.2324C75.1387 71.2045 79.057 68.7209 80.6172 66.9873L80.7516 66.8447L80.6931 66.6601C80.4477 65.8547 79.7407 63.872 78.5251 62.8651C78.4706 62.8233 78.4301 62.767 78.4088 62.7034C78.3875 62.6397 78.3862 62.5714 78.4053 62.507C78.4198 62.4426 78.867 60.8094 80.664 59.2126L81.0817 58.8407L80.5587 58.6197C80.097 58.4266 79.4776 58.1694 78.7034 57.834L78.3471 57.6775L78.2067 58.0271C77.3564 60.0882 75.4951 62.7504 71.4484 63.7264C65.7391 65.1108 61.3885 62.7924 57.4908 60.0519C57.4469 60.0295 57.4149 60.0098 57.3504 59.9456C56.3452 59.2326 55.3753 58.4971 54.303 57.6693C51.9772 55.8852 49.5695 54.045 46.9838 52.7699C44.3016 51.45 41.5958 51.4276 39.3373 52.7475L38.8611 53.0747L39.3667 53.3516C40.5149 53.9724 41.1986 55.2338 41.1986 56.7241C41.1986 57.4009 41.0582 58.0722 40.7808 58.7153C39.8195 60.9916 37.4498 62.2473 35.4981 61.5173L34.9984 61.3327L34.9839 62.1968C34.9839 64.6662 34.2389 66.4113 32.7634 67.3956C30.1628 69.1349 26.2945 67.8096 26.1307 67.7536C26.0389 67.7206 25.9646 67.654 25.924 67.5685C25.8835 67.4831 25.88 67.3857 25.9144 67.2978C25.9818 67.1132 26.1978 67.0209 26.3906 67.0826C26.5396 67.1386 30.0869 68.3244 32.3365 66.8114C33.5957 65.9697 34.2357 64.4147 34.2357 62.1971C34.2357 57.5519 35.9655 53.88 38.9838 52.1183C41.3972 50.7061 44.4389 50.7145 47.3228 52.1322C49.9699 53.4382 52.3981 55.3007 54.7618 57.11C55.8136 57.9099 56.8334 58.6929 57.8472 59.4144L57.9525 59.4647C58.7209 59.7135 62.7005 60.863 65.7334 59.1572C67.4018 58.2147 68.5354 56.5452 69.0878 54.1988L69.1988 53.6982L68.6701 53.7626C67.589 53.9052 65.5553 53.9975 64.0798 53.0132C63.0951 52.3643 62.5136 51.3519 62.3356 49.9733C62.1107 48.796 62.6249 47.4201 63.0806 46.2064C63.3873 45.3926 63.6678 44.6293 63.6678 44.0951C63.6678 43.5945 63.3845 42.8757 63.0863 42.1039C62.6771 41.0552 62.1541 39.7492 62.2973 38.6167L62.3062 38.5522C62.4406 37.1119 63.0278 36.055 64.0565 35.42C65.5174 34.5 67.551 34.6985 68.6321 34.8998L69.1991 35.006L69.0647 34.4718C68.641 32.6877 67.8726 31.2978 66.7769 30.3272C66.4566 30.0443 66.107 29.7932 65.7337 29.5779C62.7008 27.8803 58.7212 29.0213 57.9528 29.2703L57.8475 29.3206C56.8337 30.0421 55.8139 30.8251 54.7621 31.625C52.4158 33.4289 49.9761 35.2914 47.3231 36.6028C44.4392 38.0235 41.3974 38.029 38.9841 36.6252C38.5827 36.3827 38.2017 36.1106 37.8444 35.8114C37.5385 35.5554 37.2542 35.2767 36.9941 34.9779C35.2059 32.967 34.2357 30.0279 34.2357 26.5407C34.2357 24.3231 33.5957 22.7681 32.3422 21.9264C30.0835 20.4134 26.5365 21.6047 26.3875 21.6552C26.1946 21.7196 25.9783 21.6273 25.9113 21.44C25.8939 21.3965 25.8857 21.3501 25.8872 21.3036C25.8887 21.257 25.8998 21.2112 25.9199 21.1688C25.94 21.1264 25.9687 21.0883 26.0044 21.0566C26.04 21.0249 26.0819 21.0003 26.1276 20.9842C26.2911 20.9282 30.1597 19.5998 32.7603 21.3422C34.2357 22.3265 34.9808 24.0743 34.9808 26.541C34.9808 26.6557 34.9808 26.7758 34.9896 26.8905L35.0042 27.5252L35.5038 27.3406C37.4498 26.6136 39.8192 27.8691 40.7805 30.1426C41.0457 30.7559 41.1874 31.4115 41.1983 32.0751V32.1311C41.1983 33.5714 40.5583 34.8129 39.4774 35.4561L38.9487 35.7693L39.4863 36.0687C41.6834 37.302 44.3541 37.2684 46.9838 35.9679C49.5695 34.6898 51.9772 32.8496 54.303 31.0684C55.3753 30.2491 56.3455 29.5052 57.4032 28.7501C57.4266 28.7222 57.4791 28.6941 57.5376 28.6578C61.3917 25.9478 65.7422 23.6294 71.4516 25.0138C75.9979 26.1127 77.83 29.287 78.575 31.7618L78.686 32.1535L79.0804 31.9828C79.691 31.7255 80.1849 31.5131 80.5647 31.3563L81.0877 31.1411L80.67 30.7691C78.8818 29.1723 78.4261 27.5392 78.4113 27.4747C78.3733 27.3403 78.4201 27.2035 78.5311 27.1112C78.6364 27.0246 78.7328 26.9323 78.829 26.8343C79.8662 25.7856 80.4768 24.0601 80.6991 23.3247L80.7576 23.14L80.6232 22.989C79.0513 21.2412 75.1447 18.7745 75.1068 18.7521C74.9958 18.6737 74.9284 18.5536 74.9433 18.4165C74.9504 18.3521 74.9756 18.2909 75.0163 18.2392C75.0569 18.1875 75.1115 18.1473 75.1741 18.1229C76.8425 17.474 77.7747 16.2325 78.2683 15.2985L78.4991 14.8481L77.9761 14.7837C74.8759 14.4202 71.6268 12.6163 71.4924 12.538C71.4019 12.4877 71.3434 12.4093 71.32 12.317C71.3052 12.2716 71.3015 12.2236 71.3091 12.1766C71.3167 12.1295 71.3355 12.0848 71.364 12.0458L72.9068 9.64091L72.3398 9.56253C69.5903 9.21297 66.8904 7.85674 66.7794 7.80076C66.6159 7.71419 66.5398 7.52956 66.6011 7.36462C66.8028 6.77171 67.2557 6.0865 67.9042 5.38736L68.3805 4.87284L67.6646 4.79446C65.631 4.57352 63.1619 5.3371 62.1421 5.77052C62.0077 5.82077 61.8588 5.80685 61.7478 5.71454C61.6425 5.63615 61.59 5.4936 61.6279 5.3565C61.9786 3.9219 61.8967 2.74456 61.7623 2.0173L61.6425 1.35448L61.1366 1.83322ZM61.5075 64.7978C61.5894 64.8481 63.617 66.0675 63.617 68.9143C63.617 69.5771 63.506 70.2902 63.2809 71.0256C62.2611 74.4626 60.3533 75.0053 59.3013 75.3043C59.1963 75.3327 59.092 75.3635 58.9886 75.3966L58.8162 75.4611L58.7577 75.6317C58.7232 75.757 58.6911 75.8828 58.6613 76.0092C58.3106 77.4495 57.589 80.4473 51.3889 80.5451C43.8679 80.6653 43.2427 78.7107 43.1988 78.4756C43.1754 78.3693 43.2076 78.2685 43.2661 78.1904C43.3335 78.1121 43.4296 78.0618 43.5409 78.0561C44.1895 78.0058 49.785 77.5779 52.3941 76.8648L52.5197 77.2144L53.2267 76.9934L52.8615 75.9393L52.6686 76.0258C52.5342 75.777 52.3473 75.4974 52.169 75.2344C51.9761 74.9575 51.8477 74.7647 51.8037 74.6136C51.5495 73.8361 51.7512 73.386 51.9615 73.1454C52.2449 72.8183 52.7445 72.6672 53.3172 72.7314L53.6151 72.7593C55.3302 72.9523 56.6859 73.1004 58.0943 71.9594C59.6283 70.7176 60.8144 69.4201 60.9403 65.0966C60.9403 64.968 61.0162 64.8533 61.1332 64.7891C61.2476 64.7334 61.3905 64.7334 61.5075 64.7978ZM38.9418 65.7542C42.4598 62.9855 42.8395 59.9989 42.8395 59.968C42.8541 59.8672 42.9069 59.7749 42.9885 59.7192C43.0704 59.6632 43.1814 59.6408 43.2778 59.6548C44.2682 59.8337 45.998 60.8966 45.4749 63.5923C45.1856 65.0772 44.3501 66.4252 43.7247 67.4237C43.571 67.6646 43.4249 67.9099 43.2864 68.1591L42.8687 68.9003L43.7101 68.6709C44.4785 68.4639 45.0512 67.8011 45.6707 67.0938C46.0505 66.6576 46.4391 66.2158 46.8919 65.8605C47.2338 65.5893 47.6897 65.5472 48.1511 65.7318C48.972 66.0535 49.5975 66.9875 49.7025 68.0363C49.7182 68.1475 49.7261 68.2596 49.7259 68.3719C49.7259 69.4851 49.1823 71.16 46.6171 72.7931C43.5084 74.7843 39.8794 73.6854 38.1728 71.4732C37.5388 70.6594 37.2261 69.7814 37.2261 68.9255C37.2269 67.7648 37.8082 66.638 38.9418 65.7542ZM29.0223 33.4764C29.0789 33.5258 29.1189 33.5902 29.1371 33.6614C29.1553 33.7326 29.1509 33.8074 29.1245 33.8762C29.0486 34.0693 27.2749 38.6276 27.0966 41.1669C27.0147 42.35 26.6349 43.9271 25.814 44.7912L25.5831 45.0346L25.814 45.2694C26.5299 46.0246 26.8423 47.2885 26.9476 47.8003C26.9622 47.8868 26.9476 47.9791 26.8951 48.0575C26.8366 48.1441 26.7547 48.1919 26.6497 48.214C26.5533 48.2279 26.4568 48.214 26.375 48.158C26.3336 48.1322 26.2983 48.0985 26.2711 48.059C26.244 48.0196 26.2256 47.9752 26.2172 47.9286C25.9484 46.6227 25.4048 45.6523 24.8321 45.4538C24.6013 45.3754 24.3471 45.4399 24.0198 45.6886C23.9907 45.7026 23.2659 46.139 23.0876 46.9668C22.9472 47.6659 23.1986 48.4713 23.862 49.3493C24.458 50.1492 24.7123 50.9041 24.9577 51.6313C25.3318 52.7221 25.6736 53.7511 27.12 54.8698L28.0958 55.6249L27.7072 54.4839C27.3711 53.4854 27.0877 52.5571 26.8657 51.7152C26.8423 51.6286 26.8569 51.5306 26.9097 51.4522C26.9622 51.3656 27.0441 51.3096 27.1405 51.2872C27.1863 51.2735 27.2346 51.2697 27.2822 51.2759C27.3297 51.2822 27.3751 51.2985 27.4153 51.3235C27.4583 51.3471 27.4959 51.3788 27.5255 51.4168C27.5552 51.4548 27.5763 51.4983 27.5876 51.5445C28.1603 53.7203 29.0252 55.9518 29.1216 56.2036C29.1741 56.338 29.1305 56.5029 29.0163 56.6034C28.8965 56.6957 28.727 56.7181 28.5926 56.6455C25.2764 54.9061 24.7328 53.2784 24.2478 51.8523C24.0081 51.1447 23.7861 50.4679 23.2573 49.7688C22.4595 48.7061 22.1616 47.7077 22.3634 46.7933C22.5269 46.0718 22.9683 45.5881 23.3101 45.3085L23.6314 45.0373L23.3101 44.7661C22.9683 44.4892 22.5272 44.0025 22.3634 43.2755C22.1616 42.3694 22.4598 41.3712 23.2573 40.3083C23.7861 39.6091 24.0112 38.9379 24.2478 38.2248C24.7328 36.7902 25.2761 35.171 28.5926 33.4316C28.6605 33.3965 28.738 33.3821 28.8147 33.39C28.8915 33.398 28.9639 33.4282 29.0223 33.4764ZM21.0191 29.1109C21.1301 29.2116 21.1769 29.3596 21.1244 29.4967C20.6521 30.8083 20.2128 32.1305 19.8067 33.4622C19.7782 33.5531 19.7144 33.6301 19.6284 33.6774C19.538 33.7194 19.4415 33.7334 19.3451 33.7052C19.1816 33.6632 19.0763 33.5121 19.0763 33.3641C19.0763 33.3278 19.0851 33.2997 19.0908 33.2634C19.3305 32.4719 19.5816 31.7001 19.7979 31.0512L20.1397 30.0388L19.2309 30.6514C17.1885 32.0218 16.981 33.3977 16.7648 34.8517C16.6013 35.9649 16.4141 37.2342 15.3943 38.5907C13.4277 41.2166 14.7543 43.8258 15.2074 44.5613L15.3272 44.7598L15.5581 44.7374C16.9225 44.6173 17.6881 43.2105 17.9891 40.3162C18.0037 40.1231 18.1909 39.9751 18.3923 39.9945C18.4417 39.9981 18.4897 40.0113 18.5334 40.0335C18.5772 40.0556 18.6157 40.0861 18.6466 40.1231C18.7139 40.1958 18.737 40.2881 18.7285 40.3861C18.638 41.2699 18.4012 43.6245 17.1477 44.7795L16.8409 45.0564L17.2647 45.3781C18.749 46.6702 18.8075 49.5142 18.8511 51.3992L18.86 51.9558C18.9359 54.1231 21.1039 60.0743 21.1244 60.1302C21.1497 60.1972 21.1531 60.2699 21.1343 60.3388C21.1155 60.4077 21.0754 60.4695 21.0191 60.5161C20.9636 60.562 20.8952 60.5912 20.8225 60.6002C20.7497 60.6091 20.6758 60.5974 20.61 60.5664C16.5924 58.676 16.3176 56.8274 16.0254 54.881C15.8676 53.7902 15.6982 52.6634 14.7894 51.4579C13.0157 49.1032 13.4862 46.7065 14.5146 45.258L14.649 45.0733L14.5291 44.8748C14.1727 44.2958 12.4867 41.2308 14.7891 38.1685C15.6979 36.9633 15.8702 35.8362 16.0252 34.7455C16.3145 32.7991 16.5921 30.9589 20.6097 29.0601C20.6757 29.0294 20.7496 29.0179 20.8223 29.027C20.8951 29.036 20.9635 29.0651 21.0191 29.1109ZM42.9888 28.1405C42.9069 28.0845 42.8544 27.9895 42.8398 27.8917C42.8398 27.8554 42.4073 24.8322 38.9421 22.114C37.5397 21.015 36.967 19.5832 37.3322 18.0841C37.5571 17.164 38.1066 16.3084 38.8751 15.6317C39.6743 14.9211 40.6531 14.4219 41.715 14.1831C41.7621 14.1715 41.811 14.169 41.8591 14.1757C41.9071 14.1823 41.9533 14.1981 41.9949 14.2221C42.0365 14.246 42.0728 14.2776 42.1015 14.3151C42.1302 14.3526 42.1508 14.3952 42.1622 14.4404C42.2061 14.6389 42.0863 14.832 41.8874 14.8765C40.0087 15.3045 38.4368 16.6888 38.0627 18.2436C37.7648 19.4854 38.2262 20.6319 39.4126 21.5604C42.0366 23.6215 43.027 25.8252 43.3777 26.9605L43.5355 27.4526L43.9592 27.1393C44.4879 26.7534 45.0461 25.962 44.7422 24.4015C44.4822 23.0535 43.7138 21.8201 43.0944 20.822C42.4312 19.7508 42.1185 19.2167 42.3784 18.7748C42.5188 18.5399 42.8022 18.4167 43.2142 18.4167C44.5847 18.4167 45.429 19.3789 46.2471 20.3072C46.6123 20.7351 46.963 21.1349 47.3662 21.4482L47.5006 21.5208C47.8424 21.6074 48.4239 21.2496 48.7452 20.5587C49.3179 19.3393 48.9526 17.421 46.212 15.6647C46.1706 15.6389 46.1353 15.6052 46.1081 15.5657C46.081 15.5263 46.0626 15.4819 46.0542 15.4353C46.0308 15.343 46.0542 15.2507 46.1067 15.1723C46.1652 15.0939 46.2471 15.0379 46.3464 15.0158C46.4428 15.0019 46.5392 15.0158 46.6211 15.0718C49.4611 16.8841 49.8178 18.78 49.7065 19.8287C49.6012 20.8829 48.976 21.8114 48.1551 22.1331C47.6934 22.3262 47.2378 22.2757 46.8959 22.0045C46.4402 21.6464 46.0545 21.2046 45.6658 20.7627C45.0552 20.0636 44.4797 19.4065 43.7141 19.1937L42.8726 18.9643L43.2904 19.7055C43.4102 19.9265 43.5737 20.1895 43.7375 20.4549C44.357 21.4392 45.1896 22.7957 45.4818 24.2723C45.996 26.9766 44.2751 28.031 43.2847 28.2099C43.1817 28.2189 43.0707 28.1992 42.9888 28.1405ZM58.6616 11.8478C58.6907 11.968 58.7289 12.1248 58.758 12.2253L58.8165 12.4042L58.9948 12.4601C59.0853 12.488 59.2197 12.5328 59.331 12.5609C60.3508 12.8545 62.2585 13.3944 63.2812 16.8341C63.506 17.5696 63.6173 18.2827 63.6173 18.9455C63.6173 21.7923 61.5894 23.0117 61.5078 23.0619C61.4511 23.0928 61.3872 23.1098 61.3219 23.1113C61.2566 23.1127 61.192 23.0987 61.1337 23.0704C61.0139 23.0059 60.9408 22.8915 60.9408 22.7629C60.8883 21.0514 60.6721 19.818 60.3359 18.8674C59.8218 17.427 59.0239 16.6552 58.092 15.9001C56.6836 14.7591 55.328 14.9074 53.6128 15.1002L53.3149 15.1365C52.7422 15.1925 52.2426 15.0442 51.9592 14.717C51.8189 14.5521 51.6845 14.2976 51.6845 13.9171C51.6845 13.7241 51.7136 13.5031 51.8043 13.2543C51.8483 13.0978 51.9767 12.9047 52.1695 12.6196L52.1784 12.6112C52.352 12.3619 52.5139 12.1053 52.6635 11.8421L52.8652 11.9429L53.2304 10.8663L52.5234 10.6454L52.4035 10.9949C49.7884 10.2819 44.1901 9.85393 43.5358 9.80368C43.4305 9.79521 43.334 9.7477 43.267 9.66931C43.2081 9.58568 43.1841 9.48395 43.1996 9.38419C43.2436 9.16325 43.8482 7.19447 51.3897 7.31464C57.5893 7.41241 58.3109 10.4075 58.6616 11.8478Z" fill="#F97A53"/>
<path d="M71.2577 25.7161C74.7668 26.5663 77.1687 29.0106 78.0248 32.6152L78.0393 32.7215C78.2423 33.6004 78.3452 34.4977 78.3461 35.3978C78.3461 35.5265 78.3461 35.6551 78.3372 35.7837C78.1968 40.3197 75.871 43.0157 75.1611 43.7288L75.0501 43.8435H71.8595L71.801 43.5584C71.7288 43.2335 71.5639 42.9342 71.3246 42.6937C71.0852 42.4533 70.7808 42.2811 70.4453 42.1964L70.1474 42.118L70.1708 41.8187C70.1854 41.704 70.1942 41.5839 70.1942 41.4468C70.1942 40.784 70.0598 40.1211 69.791 39.4695C69.1279 37.8364 65.9079 37.3076 65.2739 37.2238L65.1629 37.2099L65.081 37.1372C64.8735 36.9665 64.6484 36.8436 64.4178 36.7792L63.7019 36.5806L64.298 36.1527C64.3653 36.0967 64.4033 36.0604 64.4558 36.0325C66.3404 34.8495 69.4932 35.8537 69.5223 35.8676C69.6478 35.9039 69.7822 35.8815 69.8875 35.8031C69.9694 35.7305 70.0219 35.6324 70.0219 35.5262C69.7006 33.4149 69.0081 31.7312 67.9415 30.4979C67.4292 29.8859 66.8019 29.3709 66.0919 28.9794C64.7508 28.2243 63.1261 27.8887 61.2474 27.9728L59.6901 28.0454L61.0457 27.3042C64.5725 25.389 67.8216 24.8799 71.2577 25.7161Z" fill="white"/>
<path d="M79.0151 33.7478L79.6931 34.3685C80.2161 34.8383 80.6835 35.4817 81.0867 36.2589C82.2115 38.3788 82.8838 41.4746 82.8838 44.8193C82.8838 49.4923 81.5952 53.6285 79.6055 55.3539L78.8605 55.9971L78.9803 55.0491C79.0768 54.3415 79.1059 53.6369 79.0856 52.9517C78.9452 48.4857 76.8269 45.5184 75.9184 44.4501L75.7255 44.2152L75.9329 43.9858C76.485 43.3874 77.4903 42.1233 78.2148 40.2189C78.6853 39.0053 79.0357 37.5286 79.0856 35.8031C79.1002 35.4257 79.0945 35.0396 79.0711 34.6482L79.0151 33.7478Z" fill="#E2DED7"/>
<path d="M40.0489 20.2767C40.2507 20.2319 40.3702 20.0391 40.3265 19.8432C40.3032 19.752 40.2431 19.6734 40.1592 19.6247C40.0754 19.5759 39.9747 19.561 39.8794 19.5832C39.3067 19.7119 38.7663 19.9216 38.2667 20.1846C38.3688 20.3971 38.4915 20.6041 38.6493 20.8026C39.0881 20.566 39.5592 20.389 40.0489 20.2767ZM43.2835 68.1565L42.8658 68.9004L43.6838 68.6768C43.7423 68.2321 43.7395 67.8378 43.6867 67.4855C43.5494 67.7092 43.4005 67.9495 43.2835 68.1565ZM39.044 35.8366L39.0089 35.7443L38.9447 35.7833L39.044 35.8366ZM43.8299 26.1634C44.0014 26.3613 44.1767 26.5561 44.3558 26.7478C44.4991 26.5632 44.6217 26.3283 44.7065 26.0459C44.6043 25.9339 44.5048 25.825 44.4026 25.7075C43.6576 24.8547 42.8832 23.9848 41.7027 23.8423C41.9406 24.151 42.162 24.4711 42.3659 24.8014C42.9009 25.1064 43.3566 25.621 43.8299 26.1634ZM1.49199 20.6459L1.26715 20.1677L1.22321 20.9283C1.31109 20.8305 1.39869 20.7352 1.49199 20.6459ZM71.4416 63.7323C69.075 64.3055 66.9478 64.2356 64.9844 63.7713C64.6509 64.0759 64.2823 64.3433 63.8858 64.5682C63.3103 64.8927 62.6996 65.1109 62.0859 65.2562C62.7111 65.8406 63.617 67.0095 63.617 68.9141C63.617 69.0315 63.5936 69.1574 63.5879 69.2748C65.4286 69.6468 67.4154 69.6665 69.604 69.135C73.6538 68.1535 75.5151 65.491 76.3622 63.4329L76.5055 63.0861L76.8619 63.2399C77.4799 63.5059 78.0993 63.7688 78.7203 64.0286L79.2433 64.2468L78.8256 64.6187C77.0285 66.2183 76.5845 67.8487 76.5668 67.9186C76.5496 67.9828 76.5514 68.0503 76.5721 68.1136C76.5927 68.1768 76.6314 68.2333 76.6838 68.2767C77.0724 68.5954 77.4054 69.0206 77.6919 69.4679C78.7702 68.6822 79.9301 67.7649 80.6226 66.9958L80.7542 66.8475L80.6985 66.6602C80.4503 65.8548 79.7461 63.8721 78.5245 62.8682C78.4716 62.8252 78.4325 62.7688 78.4117 62.7054C78.391 62.642 78.3896 62.5743 78.4075 62.5101C78.4249 62.4429 78.8721 60.8098 80.6663 59.2102L81.084 58.8383L80.561 58.6201C79.9395 58.3616 79.32 58.0987 78.7026 57.8314L78.3462 57.6776L78.2029 58.0244C77.3526 60.0885 75.4914 62.7507 71.4416 63.7323ZM73.5394 76.4596C74.7666 75.9423 76.3882 75.38 77.9718 75.1927L78.4977 75.1312L78.2612 74.6782C78.0549 74.2865 77.8083 73.9155 77.525 73.5707C76.0758 74.7817 74.2202 76.0147 73.5394 76.4596Z" fill="#D3593D"/>
<path d="M61.1363 1.83603C58.2963 4.45917 55.9734 4.67464 55.8741 4.68284C55.7571 4.6913 55.6404 4.64925 55.5645 4.56267C55.5266 4.52051 55.4993 4.47062 55.4846 4.4168C55.4699 4.36299 55.4682 4.30667 55.4798 4.25216L56.0698 1.62056L55.4298 1.8527C53.098 2.70013 49.4021 4.77788 47.7745 5.75941C47.7155 5.79476 47.6473 5.81372 47.5777 5.81421C47.5081 5.81469 47.4397 5.79666 47.3801 5.76213C47.2603 5.69222 47.1961 5.55786 47.2018 5.42377L47.3625 3.73737L46.7167 4.14565C44.4697 5.56359 41.4925 7.06538 41.3669 7.12956C41.2949 7.16505 41.2128 7.17742 41.1329 7.16483C41.0529 7.15224 40.9793 7.11536 40.9229 7.05964C40.8091 6.94221 40.7885 6.76333 40.8733 6.63169C41.2591 6.0164 41.0311 4.71042 40.8616 3.98889L40.7446 3.49676L40.2975 3.76522C35.9789 6.3717 33.2499 9.92884 33.2236 9.96517C33.1757 10.0276 33.1081 10.0735 33.0307 10.0962C32.9534 10.1189 32.8704 10.1171 32.7942 10.0911C32.6336 10.0351 32.5428 9.90645 32.5488 9.7303C32.613 8.85774 32.7038 8.05509 32.8148 7.34476L32.9666 6.37143L32.1981 7.02578C28.8234 9.90071 26.1704 13.7599 26.1441 13.7962C26.1137 13.8408 26.0732 13.8783 26.0257 13.9059C25.9781 13.9335 25.9247 13.9505 25.8693 13.9557C25.8142 13.9616 25.7585 13.9553 25.7063 13.9374C25.6541 13.9194 25.6069 13.8903 25.5683 13.8522L24.0489 12.3979L23.7975 12.7642C22.7397 14.305 21.0742 15.4124 19.8618 16.0725L19.3008 16.3773L19.8561 16.6906C20.4171 17.011 20.9733 17.3391 21.5245 17.6748C21.7145 17.7895 21.8926 17.8985 22.0738 18.0047L22.2141 17.8004L23.7336 19.2547C23.8123 19.3301 23.9236 19.3694 24.0346 19.3582C24.1456 19.347 24.2449 19.2883 24.3094 19.1987C24.3356 19.1624 26.9859 15.3059 30.3634 12.4283L31.1318 11.7739L30.98 12.7473C30.869 13.4576 30.7783 14.2602 30.7141 15.1328C30.7084 15.3089 30.7988 15.4376 30.9595 15.4936C31.0357 15.5197 31.1187 15.5215 31.196 15.4988C31.2734 15.4761 31.3411 15.4301 31.3889 15.3677C31.4152 15.3313 34.1441 11.7742 38.4627 9.16771L38.9099 8.89925L39.0269 9.39138C39.1964 10.1129 39.4243 11.4189 39.0386 12.0342C38.9538 12.1685 38.9744 12.3474 39.0882 12.4621C39.2021 12.5768 39.3861 12.6047 39.5322 12.532C39.6492 12.4733 42.2027 11.184 44.3621 9.86985C43.9501 9.83626 43.6579 9.81387 43.5352 9.8054C43.4299 9.79994 43.3335 9.74941 43.2693 9.6683C43.2051 9.58719 43.1817 9.48369 43.1991 9.38592C43.243 9.16225 43.8477 7.19346 51.392 7.31362C51.9716 7.32375 52.55 7.36579 53.1246 7.43953C53.2852 7.37508 53.443 7.31362 53.592 7.26064L54.232 7.02851L54.1033 7.60175C55.4621 7.8926 56.3968 8.37926 57.0514 8.93858C57.7351 8.53302 58.4949 7.98764 59.3013 7.24399L59.8069 6.77698L59.9268 7.43979C60.0612 8.17253 60.1459 9.34714 59.7864 10.7845C59.7709 10.8494 59.7744 10.9172 59.7966 10.9804C59.8187 11.0435 59.8586 11.0996 59.9119 11.1425C59.9653 11.1849 60.03 11.2121 60.0987 11.221C60.1674 11.2299 60.2374 11.2201 60.3006 11.1928C61.3232 10.7593 63.7922 9.99575 65.8287 10.2167L66.5386 10.2951L66.0652 10.8069C65.4167 11.5087 64.9638 12.1939 64.7561 12.7896C64.729 12.8696 64.732 12.9562 64.7646 13.0343C64.7972 13.1125 64.8572 13.1773 64.9344 13.2175C65.0454 13.2735 67.751 14.6355 70.4948 14.985L71.0647 15.0577L69.519 17.4626C69.4933 17.5031 69.4762 17.5481 69.4687 17.595C69.4613 17.6418 69.4636 17.6896 69.4755 17.7356C69.4874 17.7816 69.5088 17.8249 69.5383 17.863C69.5678 17.9011 69.6049 17.9332 69.6474 17.9575C69.7818 18.0329 73.0338 19.8424 76.1311 20.2059L76.657 20.2674L76.4205 20.7204C75.9325 21.649 75.0003 22.8932 73.3291 23.5394C73.2664 23.5636 73.2118 23.6038 73.1711 23.6555C73.1304 23.7072 73.1053 23.7686 73.0983 23.833C73.0906 23.8978 73.1022 23.9635 73.1317 24.0223C73.1611 24.0812 73.2073 24.1309 73.2649 24.1659C73.3028 24.1883 77.2066 26.6577 78.7813 28.4055L78.7988 28.4252C78.5183 27.8883 78.4101 27.5163 78.4013 27.4827C78.3662 27.3513 78.413 27.2142 78.5211 27.1247C79.7424 26.1235 80.4466 24.1408 80.6951 23.3327L80.7508 23.1453L80.6192 22.997C79.0444 21.2492 75.1407 18.7798 75.1028 18.7574C75.0456 18.722 74.9998 18.6722 74.9704 18.6134C74.941 18.5547 74.9291 18.4893 74.9361 18.4245C74.9507 18.2931 75.0383 18.1784 75.167 18.1309C76.8353 17.485 77.7704 16.2405 78.2583 15.3119L78.4949 14.8589L77.969 14.7974C74.8719 14.4339 71.6196 12.6274 71.4852 12.549C71.3976 12.5015 71.3363 12.4203 71.3129 12.3253C71.2895 12.2357 71.3041 12.1352 71.3568 12.0541L72.9025 9.64918L72.3327 9.57654C69.586 9.22697 66.8833 7.86502 66.7723 7.80903C66.6952 7.76868 66.6353 7.70387 66.6027 7.62576C66.5702 7.54765 66.5671 7.46113 66.594 7.38108C66.8014 6.78818 67.2542 6.10296 67.9031 5.39836L68.3765 4.88657L67.6666 4.8082C65.6301 4.58726 63.1611 5.35085 62.1384 5.78426C62.0753 5.81179 62.0053 5.82168 61.9365 5.81279C61.8678 5.8039 61.803 5.77659 61.7498 5.734C61.6963 5.69129 61.6562 5.63521 61.6341 5.572C61.6119 5.50879 61.6085 5.44093 61.6242 5.37597C61.9806 3.93864 61.8959 2.76403 61.7646 2.0313L61.6448 1.36848L61.1363 1.83603Z" fill="#C1503E"/>
<path d="M78.8574 28.7363C78.7318 29.1419 78.4922 29.8438 78.1298 30.568C78.2984 30.9598 78.4438 31.3603 78.5652 31.7677L78.6822 32.1621L79.0737 31.9944C79.6843 31.7314 80.1751 31.5247 80.5552 31.3679L81.0782 31.1497L80.6604 30.7778C79.7867 30.0002 79.2375 29.2145 78.8956 28.605L78.8574 28.7363ZM59.2954 70.198C59.238 70.2275 59.1897 70.271 59.1554 70.324C59.121 70.377 59.1018 70.4377 59.0997 70.5001C59.0942 70.6904 59.0855 70.8806 59.0735 71.0706C59.3161 70.8139 59.5342 70.5368 59.7252 70.2428C59.6961 70.2231 59.6727 70.2092 59.6667 70.2065C59.5557 70.1393 59.4124 70.1366 59.2954 70.198ZM14.927 40.2555C14.9944 39.7969 15.0614 39.3466 15.187 38.8992C14.3512 40.1744 14.2519 41.4246 14.4186 42.4452C14.7136 41.6704 14.8249 40.9349 14.927 40.2555ZM14.7898 38.172C15.155 37.6881 15.438 37.152 15.6284 36.5836C15.0032 37.2576 14.6845 37.9344 14.4859 38.6196C14.5824 38.471 14.6757 38.323 14.7898 38.172ZM25.3465 45.8513C25.183 45.6582 25.0103 45.5157 24.8351 45.4542C24.5986 45.3704 24.3501 45.4346 24.0171 45.6864C23.988 45.703 23.2661 46.1394 23.0909 46.9672C22.9448 47.6636 23.2019 48.469 23.8653 49.3497C24.0025 49.5316 24.1166 49.7105 24.2217 49.8894C24.8734 48.9944 25.1887 47.627 25.2617 46.5671C25.2763 46.3462 25.3085 46.1001 25.3465 45.8513ZM61.779 74.3147C61.779 74.1722 61.7702 74.0378 61.7616 73.9065C60.8851 74.8489 59.9383 75.1259 59.3043 75.3047C59.199 75.3356 59.0763 75.3692 58.9916 75.3998L58.8164 75.4612L58.7639 75.6346C58.7269 75.7586 58.6938 75.8835 58.6646 76.0093C58.3139 77.4497 57.5863 80.4502 51.389 80.5483C50.9947 80.5537 50.6323 80.551 50.2728 80.5483C50.2962 80.5819 50.3079 80.6043 50.3341 80.6406C50.5125 80.9036 50.6965 81.1832 50.8309 81.432L51.0266 81.3425L51.389 82.3966L50.6819 82.6203L50.5592 82.2707C48.3824 82.8636 44.1485 83.258 42.4188 83.4005C43.5145 83.9765 45.2676 84.9247 46.7197 85.8421L46.7899 85.8869C46.971 85.8989 47.1522 85.9091 47.3335 85.9177L47.2048 84.5697C47.1903 84.4299 47.2604 84.2955 47.38 84.2256C47.4996 84.1557 47.6548 84.1557 47.7715 84.2283C48.4612 84.6451 49.5275 85.2604 50.7022 85.8951C55.8389 85.4644 56.4991 82.7601 56.8264 81.4121C56.8555 81.2919 56.8938 81.1379 56.9257 81.0374L56.9782 80.864L57.1534 80.8025C57.241 80.7717 57.3637 80.7381 57.4661 80.7075C58.515 80.4082 60.4203 79.8658 61.4458 76.4288C61.6652 75.6934 61.779 74.9803 61.779 74.3147Z" fill="#D3593D"/>
<path d="M43.3772 26.9409C43.0236 25.8111 42.0361 23.6074 39.4152 21.5463C38.4599 20.7969 37.9748 19.9244 37.9748 18.954C37.9748 17.9362 38.533 17.1054 38.7726 16.7952C40.2744 14.8542 43.465 13.8951 46.2089 15.6457C48.2513 16.9489 48.9758 18.3499 48.9758 19.4855C48.9779 19.8496 48.8993 20.2099 48.7449 20.5427C48.4236 21.2251 47.845 21.5886 47.5031 21.5018L47.3628 21.4319C46.9624 21.1186 46.6117 20.7161 46.2408 20.2909C45.4284 19.3596 44.587 18.3977 43.2108 18.3977C42.8016 18.3977 42.5211 18.5179 42.381 18.7558C42.1211 19.1919 42.4452 19.7597 43.0969 20.8057C43.7136 21.7957 44.482 23.029 44.7448 24.3852C45.0458 25.9457 44.4877 26.7371 43.9618 27.1203L43.5324 27.4363L43.3772 26.9409ZM14.9124 44.6654C14.5762 44.2012 14.0153 43.2336 14.0153 41.9527C14.0153 40.9013 14.395 39.8638 15.1432 38.868C16.2243 37.4307 16.4258 36.0799 16.6013 34.8857C16.8321 33.3364 17.0484 31.8739 19.2221 30.4139L20.1891 29.765L19.8267 30.8416C18.7105 34.1554 18.0765 36.6499 18.0385 37.8666L18.024 38.4734C17.9889 40.2324 17.9275 43.1773 16.5953 44.3295C16.2563 44.6231 15.8297 44.7911 15.333 44.8244L15.2454 44.8271L15.0262 44.8186L14.9124 44.6654ZM26.3573 48.9386C26.4683 50.5382 27.1551 52.823 27.7101 54.4591L28.0987 55.6056L27.12 54.845C25.6736 53.7236 25.3289 52.6973 24.9637 51.6093C24.7183 50.8766 24.4612 50.1214 23.8651 49.3273C23.1989 48.4408 22.9361 47.6354 23.0967 46.9223C23.2751 46.1254 23.941 45.7087 24.0786 45.6248C24.3679 45.4012 24.6278 45.3424 24.8792 45.446C25.5917 45.745 26.2403 47.2774 26.3573 48.9386Z" fill="#5B5B5B"/>
<path d="M61.639 88.6162L61.7589 87.9534C61.8933 87.2179 61.978 86.0406 61.6245 84.6172C61.5894 84.4828 61.639 84.3487 61.75 84.2592C61.8582 84.1726 62.01 84.1529 62.1387 84.2059C62.1678 84.2198 65.1424 85.4755 67.6757 85.1847L68.3827 85.1036L67.9122 84.5945C67.2605 83.8899 66.8077 83.2047 66.6002 82.6091C66.5717 82.5291 66.5741 82.442 66.6068 82.3636C66.6395 82.2851 66.7004 82.2204 66.7786 82.1811C66.8924 82.1224 69.5951 80.7632 72.3418 80.4136L72.9116 80.341L71.3631 77.933C71.3106 77.8519 71.2957 77.7512 71.3191 77.6618C71.3425 77.5695 71.4067 77.4884 71.4915 77.4409C71.6287 77.3625 74.8807 75.556 77.9781 75.1925L78.504 75.131L78.2674 74.6779C77.7795 73.7494 76.8473 72.5051 75.1761 71.859C75.1137 71.835 75.0594 71.7953 75.0187 71.744C74.9781 71.6928 74.9527 71.632 74.9452 71.5681C74.9335 71.4368 74.9949 71.3051 75.1119 71.2325C75.1527 71.2074 79.0738 68.7183 80.6283 66.9929L80.7599 66.8446L80.7042 66.6572C80.456 65.8519 79.7518 63.8691 78.5302 62.8652C78.4773 62.8223 78.4382 62.7658 78.4174 62.7024C78.3967 62.6391 78.3953 62.5713 78.4132 62.5072C78.4306 62.44 78.8778 60.8069 80.672 59.2073L81.0897 58.8353L80.5667 58.6171C79.9452 58.3587 79.3257 58.0957 78.7083 57.8284L78.3519 57.6747L78.2086 58.0215C77.3612 60.0826 75.5031 62.7448 71.4504 63.7236C67.0502 64.7889 63.4592 63.6509 60.2597 61.822C60.4963 62.4373 60.7973 63.3685 61.1451 64.7835C61.2621 64.722 61.4022 64.7275 61.5161 64.7919C61.6008 64.8422 63.6256 66.0589 63.6256 68.9029C63.6256 69.5685 63.5146 70.2788 63.2926 71.017C62.2671 74.454 60.3619 74.9966 59.313 75.2957C59.2077 75.3266 59.085 75.3601 59.0002 75.3907L58.825 75.4522L58.7725 75.6256C58.7355 75.7495 58.7024 75.8745 58.6732 76.0003C58.3226 77.4406 57.5949 80.4412 51.3977 80.5392C50.2378 80.5589 49.2588 80.5226 48.4028 80.4554C47.874 80.584 47.3567 80.598 46.8716 80.6597C42.4945 81.1911 37.9277 81.7281 33.1417 79.9551C33.174 79.9775 33.2119 79.9887 33.2353 80.0195C33.2616 80.0559 35.9877 83.613 40.3091 86.2167L40.7563 86.4852L40.8733 85.9931C41.0427 85.2715 41.2707 83.9656 40.885 83.3503C40.8425 83.2835 40.8241 83.2052 40.8325 83.1274C40.841 83.0496 40.8758 82.9766 40.9317 82.9196C41.0456 82.8049 41.2296 82.7743 41.3757 82.8497C41.5013 82.9141 44.4788 84.4156 46.7255 85.8336L47.3713 86.2419L47.2106 84.5612C47.2033 84.4939 47.2158 84.426 47.2468 84.3652C47.2778 84.3043 47.3259 84.253 47.3858 84.2171C47.4448 84.1826 47.5128 84.1645 47.582 84.165C47.6511 84.1655 47.7188 84.1845 47.7773 84.2198C49.4049 85.2014 53.1009 87.2821 55.4326 88.1265L56.0727 88.3587L55.4826 85.7271C55.4592 85.6151 55.4883 85.5034 55.5673 85.4166C55.6461 85.3327 55.7602 85.2879 55.8801 85.2964C55.9765 85.3049 58.2994 85.5173 61.1366 88.1377L61.639 88.6162ZM61.639 1.47834L61.7589 2.14115C61.8933 2.87662 61.978 4.05395 61.6245 5.47735C61.6076 5.54228 61.6105 5.61047 61.6328 5.67388C61.655 5.7373 61.6957 5.79333 61.75 5.83539C61.8034 5.87761 61.868 5.90492 61.9365 5.91431C62.0051 5.92371 62.075 5.91483 62.1387 5.88865C62.1678 5.87472 65.1424 4.619 67.6757 4.90985L68.3827 4.99097L67.9122 5.50002C67.2605 6.20462 66.8077 6.88984 66.6002 7.48547C66.5717 7.56544 66.5741 7.65251 66.6068 7.73099C66.6395 7.80946 66.7004 7.87416 66.7786 7.91342C66.8924 7.97214 69.5951 9.33137 72.3418 9.68093L72.9116 9.75358L71.3631 12.1615C71.3375 12.2017 71.3204 12.2464 71.3128 12.2929C71.3053 12.3394 71.3074 12.387 71.3191 12.4327C71.3311 12.4786 71.3525 12.5218 71.3821 12.5597C71.4117 12.5977 71.4489 12.6296 71.4915 12.6536C71.6287 12.732 74.8807 14.5386 77.9781 14.9021L78.504 14.9635L78.2674 15.4166C77.7795 16.3451 76.8473 17.5894 75.1761 18.2355C75.1137 18.2596 75.0594 18.2993 75.0187 18.3505C74.9781 18.4017 74.9527 18.4625 74.9452 18.5264C74.9388 18.5915 74.9509 18.6571 74.9803 18.7162C75.0096 18.7753 75.0551 18.8257 75.1119 18.862C75.1527 18.8872 79.0738 21.3762 80.6283 23.1017L80.7599 23.25L80.7042 23.4373C80.456 24.2427 79.7518 26.2254 78.5302 27.2293C78.4773 27.2723 78.4382 27.3287 78.4174 27.3921C78.3967 27.4555 78.3953 27.5232 78.4132 27.5874C78.4306 27.6545 78.8778 29.2877 80.672 30.8872L81.0897 31.2592L80.5667 31.4774C79.9458 31.7372 79.3263 32.0001 78.7083 32.2661L78.3519 32.4199L78.2086 32.0731C77.3612 30.012 75.5031 27.3498 71.4504 26.371C67.0502 25.3056 63.4592 26.4436 60.2597 28.2726C60.4963 27.6573 60.292 28.4657 60.6395 27.0504C60.7565 27.1119 61.1597 26.4827 61.2735 26.4158C61.3583 26.3655 63.6284 24.0359 63.6284 21.1889C63.6284 20.5233 63.5174 19.813 63.2954 19.0748C62.2699 15.6378 60.3647 15.0952 59.3158 14.7961C59.2105 14.7653 59.0878 14.7317 59.0031 14.7011L58.8279 14.6396L58.7754 14.4662C58.7431 14.3654 58.7052 14.2117 58.6761 14.0915C58.3254 12.6512 57.5978 9.65062 51.4005 9.55257C50.2406 9.53291 49.2616 9.56923 48.4056 9.63641C47.8769 9.50778 47.3596 9.48812 46.8745 9.43214C42.03 8.89249 39.4209 8.80291 33.1446 10.137C33.1768 10.1146 33.2148 10.1034 33.2382 10.0726C33.2644 10.0362 35.9905 6.47909 40.312 3.87534L40.7591 3.60688L40.8761 4.09901C41.0456 4.82054 41.2736 6.12652 40.8878 6.74181C40.8454 6.80863 40.8269 6.88692 40.8354 6.9647C40.8438 7.04248 40.8787 7.11546 40.9346 7.17249C40.9906 7.22878 41.0642 7.26607 41.1443 7.27869C41.2245 7.29131 41.3067 7.27857 41.3786 7.24241C41.5041 7.17796 44.4816 5.67645 46.7284 4.25851L47.3741 3.85022L47.2135 5.53088C47.2061 5.59818 47.2187 5.6661 47.2496 5.72693C47.2806 5.78775 47.3288 5.83905 47.3887 5.87499C47.4477 5.90952 47.5156 5.92757 47.5848 5.92709C47.654 5.9266 47.7217 5.90761 47.7802 5.87226C49.4077 4.89073 53.1037 2.80997 55.4355 1.96555L56.0755 1.73341L55.4854 4.36501C55.462 4.47698 55.4911 4.58868 55.5702 4.67554C55.6092 4.71718 55.6577 4.74967 55.7119 4.77052C55.7661 4.79135 55.8246 4.79997 55.8829 4.7957C55.9794 4.78723 58.3023 4.57475 61.1394 1.95435L61.639 1.47834Z" fill="white"/>
<path d="M52.7329 13.1065C52.6365 13.2463 52.5606 13.3637 52.5049 13.4896C52.4056 13.8056 52.4056 14.0656 52.5078 14.2196L52.5574 14.2783C52.683 14.4015 52.9372 14.4572 53.2354 14.4236L53.5304 14.39C55.3509 14.1888 56.9228 14.0126 58.5764 15.3492C59.932 16.4481 61.1826 17.7123 61.5741 21.0821L61.6997 22.1783L62.2666 21.2192C62.5734 20.702 62.8656 19.9384 62.8656 18.9121C62.8656 18.3612 62.7808 17.7347 62.5705 17.0271C61.656 13.9676 60.0695 13.5147 59.1199 13.2433C58.7986 13.151 58.5444 13.0783 58.3515 12.9328C58.1324 12.7651 58.0565 12.4882 57.9395 12.0072C57.6093 10.6453 56.9927 8.10871 51.377 8.01941C48.8583 7.98035 46.8977 8.16197 45.5566 8.56479L43.8124 9.08778L45.6297 9.2612C47.6225 9.44855 51.2252 9.84836 52.99 10.4134C53.2822 10.5057 53.4808 10.6846 53.5715 10.9307C53.7935 11.5432 53.2442 12.3513 52.8003 13.003L52.7329 13.1065Z" fill="#5B5B5B"/>
<path d="M61.7587 2.14124L61.6388 1.47843L61.1332 1.94543C58.2961 4.56583 55.9731 4.77831 55.8767 4.78677C55.7597 4.79524 55.643 4.75318 55.564 4.66661C55.5256 4.62469 55.498 4.57482 55.4833 4.52092C55.4686 4.46703 55.4672 4.41059 55.4792 4.35609L55.4821 4.34216C55.4792 4.3113 55.4732 4.28345 55.4792 4.25259L56.043 1.73295L55.4296 1.95662C53.0949 2.80405 49.4018 4.88181 47.7742 5.86334C47.6544 5.93325 47.5026 5.93598 47.3827 5.86607C47.2629 5.79615 47.1927 5.66179 47.2075 5.52197L47.2132 5.45478C47.2132 5.44358 47.2075 5.43512 47.2075 5.42392L47.3565 3.84949L46.7196 4.24931C44.4726 5.66725 41.4953 7.16904 41.3698 7.23322C41.2978 7.26871 41.2157 7.28108 41.1357 7.26849C41.0558 7.2559 40.9822 7.21902 40.9258 7.1633C40.8499 7.08492 40.8322 6.98442 40.8439 6.88365C40.8265 6.79707 40.8294 6.70749 40.879 6.62911C41.0194 6.40271 41.0776 6.08373 41.0865 5.73689C41.0865 5.16092 40.9666 4.5205 40.8645 4.08982L40.7475 3.59769L40.3004 3.86615C35.9818 6.47263 33.2528 10.0298 33.2265 10.0634C33.2031 10.0942 33.1652 10.1054 33.1329 10.1278C35.1988 9.68867 36.8612 9.40628 38.3426 9.24133C38.3834 9.2162 38.4214 9.19108 38.4625 9.16595L38.9096 8.89749L38.9738 9.17442C40.5135 9.03186 41.8751 9.02339 43.3187 9.1045C43.6984 8.50313 45.2296 7.21136 51.3889 7.30913C51.9685 7.31926 52.5469 7.3613 53.1215 7.43503C53.2821 7.37058 53.4399 7.30913 53.5888 7.25615L54.2289 7.02402L54.1002 7.59726C55.459 7.88811 56.3937 8.37478 57.0483 8.93409C57.732 8.52853 58.4918 7.98315 59.2982 7.2395L59.8038 6.77249L59.9236 7.43531C60.058 8.16804 60.1428 9.34265 59.7833 10.78C59.7678 10.8449 59.7713 10.9127 59.7935 10.9759C59.8156 11.0391 59.8555 11.0952 59.9088 11.138C59.9621 11.1804 60.0269 11.2076 60.0956 11.2165C60.1643 11.2254 60.2343 11.2156 60.2974 11.1883C61.3201 10.7549 63.7891 9.99126 65.8256 10.2122L66.5355 10.2906L66.0621 10.8024C65.4136 11.5042 64.9607 12.1895 64.753 12.7851C64.7259 12.8651 64.7289 12.9517 64.7615 13.0299C64.7941 13.108 64.8541 13.1728 64.9313 13.213C65.0423 13.269 67.7479 14.631 70.4917 14.9806L71.0615 15.0532L69.5159 17.4581C69.4902 17.4986 69.4731 17.5436 69.4656 17.5905C69.4581 17.6373 69.4604 17.6852 69.4724 17.7312C69.4843 17.7772 69.5057 17.8204 69.5352 17.8585C69.5647 17.8966 69.6017 17.9287 69.6443 17.953C69.7787 18.0284 73.0307 19.8379 76.128 20.2014L76.6539 20.2629L76.4173 20.716C75.9294 21.6445 74.9972 22.8887 73.326 23.5349C73.2633 23.5592 73.2087 23.5993 73.168 23.651C73.1273 23.7028 73.1021 23.7641 73.0951 23.8285C73.0875 23.8934 73.0991 23.959 73.1285 24.0178C73.158 24.0767 73.2042 24.1265 73.2618 24.1614C73.2997 24.1838 77.0545 26.5609 78.6818 28.303C78.486 27.8862 78.407 27.6123 78.3985 27.5842C78.3896 27.5533 78.4013 27.5227 78.4013 27.4919C78.4013 27.4891 78.3985 27.4834 78.3985 27.4807C78.3634 27.3493 78.4102 27.2122 78.5183 27.1226C79.7395 26.1214 80.4438 24.1387 80.6923 23.3306L80.7245 23.2217L80.6164 23.1015C79.0619 21.3733 75.1407 18.8843 75.0999 18.8619C74.9861 18.7892 74.9247 18.6576 74.9333 18.5262C74.9333 18.515 74.9421 18.5066 74.945 18.4954C74.9421 18.4702 74.9305 18.4506 74.9333 18.4255C74.9479 18.2941 75.0355 18.1794 75.1641 18.1319C76.8325 17.486 77.7676 16.2415 78.2555 15.3129L78.4424 14.9579L77.969 14.9019C74.872 14.5384 71.6197 12.7318 71.4824 12.6535C71.3977 12.6059 71.3335 12.5248 71.3101 12.4325C71.2989 12.3828 71.2979 12.3315 71.3072 12.2815C71.2984 12.2061 71.3101 12.125 71.354 12.0551L72.8383 9.7452L72.3299 9.68075C69.5832 9.33118 66.8805 7.96922 66.7666 7.91323C66.6995 7.87841 66.6454 7.82441 66.6119 7.75876C66.5784 7.69311 66.5672 7.61907 66.5797 7.547C66.5694 7.4921 66.5724 7.43566 66.5886 7.38205C66.796 6.78915 67.2489 6.10394 67.8977 5.39934L68.2863 4.97985L67.6669 4.90994C65.1365 4.62182 62.1593 5.87754 62.1299 5.88874C62.0661 5.9151 61.9959 5.924 61.9272 5.91444C61.8584 5.90488 61.7938 5.87724 61.7405 5.8346C61.6872 5.79196 61.6473 5.736 61.6253 5.67294C61.6032 5.60988 61.5999 5.5422 61.6157 5.47744C61.6186 5.47198 61.6186 5.46625 61.6186 5.45778C61.6186 5.42993 61.6069 5.40179 61.6129 5.37394C61.7823 4.69146 61.8494 4.06797 61.8642 3.52259C61.8771 3.05992 61.8418 2.59719 61.7587 2.14124Z" fill="#E2DED7"/>
<path d="M9.41354 13.8809C15.5991 14.9157 18.7664 16.8424 21.0776 18.2464C21.5918 18.5539 22.068 18.8448 22.524 19.0881C22.5657 19.1133 22.6126 19.1296 22.6615 19.1359C22.7104 19.1421 22.7601 19.1382 22.8073 19.1245C22.8162 19.1245 22.8307 19.116 22.8364 19.116C22.9563 19.1804 23.0673 19.2504 23.1726 19.3145C17.9862 20.6344 16.531 24.1077 14.6846 25.0054C13.4106 25.148 13.2822 22.139 13.2822 22.139L13.0074 26.3616C13.0074 26.3616 11.3068 25.0781 11.1433 21.339C9.60043 24.7621 9.16215 29.4911 9.16215 29.4911C9.16215 29.4911 9.08026 29.3709 8.96042 29.1555C8.78208 28.8338 8.51329 28.322 8.29729 27.7069C8.09556 27.128 7.11114 26.1576 5.9715 25.1398C5.9481 25.1259 5.93355 25.1035 5.913 25.0895C5.37442 24.6081 4.82996 24.1327 4.27973 23.6634C1.82839 21.1326 1.51565 18.3221 2.40106 16.4874C3.46765 14.3031 6.0825 13.3243 9.41354 13.8809ZM9.41354 76.1576C15.5991 75.1228 18.7664 73.1961 21.0776 71.792C21.5918 71.4845 22.068 71.1937 22.524 70.9503C22.6059 70.9001 22.7109 70.8859 22.8073 70.914C22.8162 70.914 22.8307 70.9225 22.8364 70.9225C22.9563 70.858 23.0673 70.7881 23.1726 70.7239C17.9862 69.404 16.531 65.9307 14.6846 65.0331C13.4106 64.8905 13.2822 67.8995 13.2822 67.8995L13.0074 63.6768C13.0074 63.6768 11.3068 64.9604 11.1433 68.6994C9.60043 65.2764 9.16215 60.5474 9.16215 60.5474C9.16215 60.5474 9.08026 60.6675 8.96042 60.883C8.78208 61.2047 8.51329 61.7165 8.29729 62.3315C8.09556 62.9105 7.11114 63.8808 5.9715 64.8987C5.9481 64.9126 5.93355 64.935 5.913 64.9489C5.37442 65.4304 4.82996 65.9058 4.27973 66.3751C1.82839 68.9059 1.51565 71.7164 2.40106 73.5511C3.46765 75.7351 6.0825 76.7139 9.41354 76.1576ZM48.1108 39.6513C45.5134 40.3868 41.5806 40.4624 36.856 35.0818L36.9904 34.9895C37.2496 35.289 37.534 35.5677 37.8407 35.823C38.1984 36.1216 38.5794 36.3936 38.9803 36.6368C41.3937 38.0405 44.4354 38.0351 47.3193 36.6144C49.9724 35.3027 52.4092 33.4404 54.7584 31.6366C55.8101 30.8367 56.8299 30.0537 57.8437 29.3322L57.949 29.2819C58.7174 29.0331 62.6971 27.8921 65.7299 29.5894C66.1037 29.8041 66.4533 30.0553 66.7731 30.3388C66.4661 30.3138 66.1578 30.3045 65.8498 30.311C57.9253 30.4366 53.8113 38.0348 48.1108 39.6513Z" fill="#C1503E"/>
<path d="M78.0249 32.6124L78.0394 32.7186C78.2424 33.5975 78.3453 34.4949 78.3461 35.395C78.3461 35.5236 78.3461 35.6523 78.3373 35.7809C78.1969 40.3168 75.8711 43.0129 75.1612 43.726C76.0786 38.9382 74.1853 31.7204 67.9384 30.4926C67.4261 29.8805 66.7988 29.3656 66.0889 28.9741C64.7478 28.219 63.1231 27.8833 61.2444 27.9675L59.687 28.0401L61.0427 27.2989C64.5663 25.3861 67.8186 24.8798 71.2518 25.716C74.7669 26.5634 77.1657 29.0104 78.0249 32.6124Z" fill="#E2DED7"/>
<path d="M23.4501 71.2077C23.4506 71.3339 23.4159 71.4579 23.3497 71.567C23.2834 71.6761 23.188 71.7664 23.0732 71.8285C22.6321 72.0691 22.1733 72.3487 21.6736 72.6508C19.2836 74.102 16.0082 76.0905 9.60039 77.1616C5.74633 77.8047 2.67551 76.605 1.38693 73.9483C-0.0389109 71.0034 1.28164 67.2087 4.67402 64.4987C7.55509 62.197 7.73913 61.3974 7.87638 60.8129L8.61569 60.9219L9.3316 61.1204C9.09506 62.1383 8.65364 63.1758 5.62962 65.5922C2.31913 68.2377 1.79325 71.3923 2.74 73.3472C3.72756 75.3831 6.19374 76.2808 9.34644 75.7551C15.4618 74.7343 18.5911 72.8327 20.8761 71.4456C21.3963 71.1296 21.8754 70.8387 22.337 70.5869C22.4504 70.525 22.5788 70.4927 22.7093 70.4932C22.8398 70.4938 22.9679 70.5272 23.0806 70.5901C23.1934 70.653 23.2869 70.7431 23.3518 70.8516C23.4166 70.96 23.4506 71.0828 23.4501 71.2077ZM79.4624 53.3685C79.4624 57.6946 77.3937 62.6558 71.5325 64.0765C64.3243 65.8216 59.1057 61.8196 54.057 57.9492C51.7457 56.1789 49.3586 54.3472 46.8048 53.0888C44.2393 51.8249 41.6653 51.8052 39.5615 53.0328C36.885 54.596 35.3482 57.938 35.3482 62.2027C35.3482 64.795 34.5475 66.6409 32.9699 67.6981C30.2115 69.5437 26.1677 68.1539 25.9982 68.0952C25.8134 68.0293 25.6632 67.8964 25.5801 67.7252C25.497 67.5541 25.4877 67.3585 25.5542 67.1808C25.6223 67.0034 25.7611 66.8591 25.9402 66.7794C26.1192 66.6998 26.324 66.6913 26.5095 66.7559C26.5446 66.7671 30.0012 67.9471 32.1196 66.5265C33.2709 65.7547 33.8553 64.3004 33.8553 62.2057C33.8553 57.4319 35.6524 53.6454 38.7845 51.8194C41.312 50.3428 44.485 50.3458 47.4859 51.8249C50.1712 53.1478 52.6197 55.027 54.9892 56.839C59.9709 60.6592 64.6781 64.2666 71.1676 62.6951C76.3656 61.4367 78.0836 56.8475 77.9638 52.9856C77.7971 47.7587 74.7029 44.733 74.671 44.7049C74.3788 44.4252 74.3788 43.9749 74.671 43.6952C74.9631 43.4155 75.4337 43.4155 75.7259 43.6952C75.8719 43.835 79.2729 47.1546 79.4541 52.9435C79.4595 53.0831 79.4624 53.2259 79.4624 53.3685Z" fill="#333333"/>
<path d="M38.22 57.4513C38.2203 57.5611 38.1942 57.6695 38.1436 57.768C38.0929 57.8665 38.0193 57.9526 37.9282 58.0194C37.8372 58.0863 37.7313 58.1321 37.6187 58.1533C37.5062 58.1746 37.39 58.1707 37.2793 58.1419L35.3244 57.6274C35.2299 57.6027 35.1414 57.5603 35.064 57.5027C34.9866 57.4452 34.9219 57.3735 34.8736 57.2919C34.8252 57.2103 34.7942 57.1204 34.7823 57.0273C34.7704 56.9342 34.7779 56.8397 34.8042 56.7494C34.8563 56.567 34.9818 56.4119 35.1533 56.318C35.3248 56.2242 35.5281 56.1993 35.7187 56.2488L37.6736 56.7633C37.8305 56.8055 37.9687 56.8954 38.0673 57.0196C38.166 57.1437 38.2196 57.2953 38.22 57.4513ZM38.22 31.3007C38.2204 31.4577 38.1664 31.6103 38.0665 31.7348C37.9666 31.8592 37.8264 31.9485 37.6679 31.9887L35.719 32.4865C35.528 32.5349 35.3248 32.5089 35.1538 32.414C34.9829 32.3191 34.8583 32.1632 34.8074 31.9805C34.7569 31.7977 34.7843 31.6032 34.8834 31.4396C34.9825 31.2761 35.1453 31.1568 35.3361 31.1079L37.285 30.61C37.476 30.5616 37.6792 30.5877 37.8502 30.6826C38.0211 30.7775 38.1457 30.9334 38.1966 31.1161C38.2116 31.1766 38.2194 31.2385 38.22 31.3007ZM84 44.8192C84 51.2513 81.7122 56.4137 78.5595 57.0905C78.3666 57.1315 78.1645 57.0978 77.9976 56.9967C77.8306 56.8955 77.7122 56.7353 77.6683 56.5508C77.6251 56.3662 77.6602 56.1727 77.7659 56.0127C77.8716 55.8528 78.0393 55.7396 78.2322 55.6979C80.2892 55.2561 82.5097 50.9717 82.5097 44.8192C82.5097 38.843 80.4236 34.6203 78.4074 33.9853C78.314 33.9565 78.2276 33.9103 78.1531 33.8493C78.0785 33.7884 78.0173 33.7139 77.973 33.6302C77.9287 33.5464 77.9022 33.4551 77.8951 33.3615C77.8879 33.2679 77.9001 33.1739 77.9311 33.0849C77.9616 32.9958 78.0101 32.9134 78.0739 32.8422C78.1377 32.7711 78.2155 32.7127 78.3028 32.6704C78.3902 32.6281 78.4854 32.6026 78.5831 32.5955C78.6807 32.5885 78.7789 32.5998 78.8719 32.6291C81.8434 33.5631 84 38.6892 84 44.8192ZM6.50608 32.9814C6.50608 33.1857 6.48554 33.3897 6.43874 33.5967C4.78492 40.9824 6.21076 43.779 6.22531 43.8068C6.31291 43.9745 6.3363 44.1731 6.27781 44.3495C4.74098 49.1009 6.42105 56.3132 6.4356 56.3859C6.45851 56.4871 6.45948 56.5918 6.43846 56.6934C6.03242 58.5057 5.15871 60.1388 3.84102 61.5453C-0.26129 65.9302 2.28364 71.8953 2.31275 71.9513C2.35093 72.0376 2.37093 72.1302 2.3716 72.2239C2.37228 72.3176 2.35362 72.4105 2.31669 72.4973C2.27976 72.5841 2.22529 72.663 2.1564 72.7296C2.08752 72.7962 2.00557 72.8491 1.91527 72.8853C1.82512 72.9218 1.72832 72.941 1.63042 72.9416C1.53253 72.9423 1.43546 72.9244 1.34479 72.8891C1.25412 72.8537 1.17164 72.8016 1.10207 72.7357C1.03251 72.6697 0.977232 72.5913 0.939414 72.5049C0.816719 72.2252 -1.9913 65.6421 2.73334 60.5944C3.84073 59.4113 4.58575 58.0496 4.94813 56.5421C4.69675 55.418 3.3645 48.9269 4.77579 44.184C4.39886 43.2443 3.4755 40.017 4.98038 33.2971C5.22862 32.1869 4.00452 30.7605 2.73048 29.3958C-1.99415 24.3481 0.875213 17.5468 1.00076 17.2587C1.07632 17.084 1.22129 16.9452 1.40376 16.8728C1.58624 16.8005 1.79127 16.8005 1.97377 16.8728C2.15626 16.9451 2.30126 17.0838 2.37687 17.2585C2.45248 17.4331 2.45251 17.6294 2.37695 17.8041C2.3507 17.8655 -0.249877 24.0739 3.84073 28.4449C5.24974 29.95 6.50608 31.4351 6.50608 32.9814Z" fill="#333333"/>
<path d="M82.5801 58.7518C82.58 58.8649 82.5519 58.9763 82.4981 59.0769C82.4443 59.1776 82.3663 59.2646 82.2705 59.3308C80.6344 60.4548 79.9039 61.7723 79.6292 62.4015C81.1777 63.9759 81.8528 66.6354 81.8819 66.7558C81.907 66.8577 81.9086 66.9635 81.8863 67.066C81.8641 67.1684 81.8186 67.2649 81.7532 67.3487C80.7015 68.691 78.1796 70.4837 76.7509 71.4485C79.0359 72.8777 79.6902 75.196 79.7225 75.3077C79.7511 75.4132 79.754 75.5235 79.7311 75.6302C79.7083 75.7369 79.6601 75.8372 79.5905 75.9234C79.5208 76.0095 79.4314 76.0792 79.3292 76.1272C79.227 76.1751 79.1147 76.2 79.0008 76.2C76.6984 76.2 73.9635 77.4052 72.7245 78.0177L74.2029 80.3164C74.2725 80.4244 74.3106 80.5484 74.3132 80.6753C74.3158 80.8022 74.2827 80.9274 74.2174 81.0379C74.1524 81.1488 74.0578 81.2411 73.9433 81.3054C73.8288 81.3698 73.6985 81.4038 73.5657 81.4042C71.4502 81.4042 69.0457 82.3439 67.9294 82.836C68.4056 83.6248 69.2237 84.3938 69.5627 84.6735C69.6595 84.7526 69.7335 84.8542 69.7776 84.9686C69.8217 85.0829 69.8344 85.2062 69.8145 85.3266C69.7945 85.447 69.7427 85.5604 69.6638 85.6561C69.5849 85.7518 69.4818 85.8266 69.3641 85.8732C67.2429 86.7176 64.5108 86.122 62.9417 85.6356C63.2048 87.996 62.4626 89.5199 62.4247 89.5928C62.3716 89.6989 62.2922 89.7908 62.1933 89.8605C62.0945 89.9302 61.9792 89.9756 61.8577 89.9927C61.7362 90.0096 61.6121 89.9972 61.4968 89.9566C61.3816 89.9161 61.2786 89.8487 61.1974 89.7605C59.45 87.8783 57.8373 87.0366 56.832 86.6647L57.2849 88.6867C57.3099 88.8013 57.3054 88.9199 57.2718 89.0324C57.2382 89.145 57.1765 89.248 57.092 89.3326C57.0069 89.417 56.9011 89.4799 56.7844 89.5156C56.6676 89.5512 56.5433 89.5585 56.4229 89.5369C54.4244 89.1873 50.4855 87.0478 48.4551 85.8874L48.5572 86.9612C48.5692 87.0997 48.5392 87.2385 48.4708 87.361C48.4023 87.4836 48.2984 87.5846 48.1714 87.6519C48.044 87.719 47.8987 87.7487 47.7537 87.7372C47.6087 87.7257 47.4705 87.6737 47.3562 87.5875C46.0209 86.5947 43.6865 85.3027 42.205 84.5167C42.1788 85.6968 41.7841 86.9189 41.6674 87.2488C41.6319 87.3487 41.574 87.44 41.4978 87.5164C41.4216 87.5927 41.329 87.6522 41.2263 87.6907C41.123 87.7281 41.0124 87.7432 40.9023 87.7349C40.7923 87.7267 40.6854 87.6954 40.5894 87.6432C37.6268 86.024 35.3389 83.9574 33.9248 82.4892C34.1234 83.7504 34.3251 84.2679 34.328 84.2761C34.445 84.5697 34.3485 84.9053 34.0883 85.0984C33.8281 85.2915 33.466 85.297 33.1972 85.1123C29.7874 82.7577 26.8744 79.0607 25.729 77.5057L24.4727 78.7081C24.3876 78.7891 24.2836 78.8494 24.1692 78.8839C24.0548 78.9185 23.9334 78.9263 23.8152 78.9067C23.6973 78.886 23.5861 78.8386 23.4911 78.7685C23.3961 78.6985 23.3199 78.6077 23.2688 78.5038C21.9865 75.8471 18.3196 74.2336 18.2845 74.2194C18.1077 74.1395 17.9707 73.9963 17.9031 73.8206C17.8355 73.645 17.8428 73.4509 17.9233 73.2803C18.0038 73.1097 18.1511 72.9762 18.3335 72.9086C18.5159 72.841 18.7187 72.8447 18.8983 72.9189C19.0532 72.9861 22.3637 74.4346 24.1197 77.0326L25.3118 75.8916C25.3904 75.8168 25.4853 75.7596 25.5898 75.7242C25.6943 75.6889 25.8057 75.6762 25.9159 75.6871C26.0261 75.6981 26.1324 75.7324 26.2271 75.7876C26.3218 75.8427 26.4024 75.9174 26.4632 76.0061C26.4923 76.0508 29.1046 79.8513 32.453 82.7066C32.3537 82.0746 32.2573 81.2775 32.1842 80.2932C32.1637 79.9633 32.3594 79.6806 32.6721 79.5717C32.9849 79.4627 33.3353 79.5662 33.5313 79.8235C33.5604 79.8598 36.2283 83.3528 40.503 85.9311C40.7164 85.0222 40.8274 83.9762 40.5586 83.5486C40.4751 83.4148 40.4393 83.2587 40.4567 83.1038C40.4741 82.9489 40.5437 82.8036 40.6551 82.6899C40.7667 82.5767 40.914 82.5017 41.0745 82.4764C41.235 82.4511 41.3997 82.477 41.5433 82.5501C41.6951 82.6255 44.6698 84.1303 46.9225 85.5509L46.8321 84.603C46.8115 84.3318 46.9431 84.0716 47.1856 83.929C47.4281 83.7864 47.732 83.7892 47.9717 83.9317C49.4443 84.8182 53.2137 86.9547 55.5628 87.8079L55.1157 85.8167C55.0661 85.5957 55.1303 85.3663 55.2852 85.1959C55.4402 85.0255 55.6738 84.9387 55.9075 84.9583C56.0214 84.9668 58.4699 85.1989 61.3917 87.8974C61.529 87.145 61.5935 86.0376 61.2631 84.7038C61.2317 84.5746 61.2383 84.4396 61.2821 84.3137C61.3259 84.1879 61.4052 84.0761 61.5113 83.9907C61.7276 83.8173 62.0315 83.7782 62.2886 83.8872C62.3237 83.9011 65.225 85.1121 67.6298 84.8382C67.1068 84.2734 66.5167 83.5125 66.2419 82.7295C66.1866 82.5696 66.1919 82.3961 66.2571 82.2395C66.3223 82.083 66.4432 81.9535 66.5983 81.8739C66.7299 81.8067 69.4588 80.4281 72.2871 80.0673L71.0425 78.1294C70.9904 78.0488 70.9558 77.9589 70.9407 77.8652C70.9257 77.7716 70.9305 77.6759 70.9549 77.584C71.0045 77.3967 71.1272 77.2372 71.2996 77.1422C71.4545 77.0556 74.7444 75.2209 77.9294 74.8462C77.5 74.0296 76.6263 72.8132 75.0309 72.1979C74.9048 72.1496 74.795 72.069 74.7135 71.9649C74.6321 71.8608 74.5822 71.7372 74.5692 71.6078C74.5556 71.4786 74.5792 71.3482 74.6374 71.2309C74.6956 71.1136 74.7862 71.0138 74.8994 70.9422C74.9402 70.9171 78.8148 68.4589 80.3399 66.767C80.1062 66.0007 79.4283 64.0879 78.2829 63.1454C78.1774 63.0593 78.0993 62.9465 78.0575 62.82C78.0157 62.6934 78.0118 62.5582 78.0464 62.4296C78.0698 62.3458 78.5432 60.6203 80.413 58.9563C79.5533 58.5986 78.6972 58.2331 77.8446 57.8601C77.7554 57.8214 77.6751 57.7662 77.6082 57.6977C77.5413 57.6292 77.4891 57.5488 77.4546 57.461C77.4202 57.3733 77.4042 57.2799 77.4074 57.1862C77.4107 57.0925 77.4332 57.0003 77.4737 56.9149C77.5142 56.8295 77.5719 56.7526 77.6434 56.6886C77.7149 56.6245 77.799 56.5746 77.8907 56.5416C77.9824 56.5087 78.08 56.4933 78.1779 56.4964C78.2758 56.4996 78.3721 56.5211 78.4613 56.5599C81.009 57.6673 82.1048 58.0925 82.1164 58.0953C82.2401 58.1432 82.348 58.2218 82.4292 58.3231C82.5104 58.4244 82.5618 58.5445 82.5781 58.6712C82.5801 58.6958 82.5801 58.7239 82.5801 58.7518ZM23.4503 18.7834C23.4498 18.9068 23.4166 19.028 23.3538 19.1357C23.2561 19.3003 23.0941 19.4211 22.9034 19.4714C22.7127 19.5218 22.509 19.4976 22.3369 19.4042C21.8752 19.1524 21.3961 18.8615 20.876 18.5455C18.591 17.1585 15.4617 15.2569 9.3463 14.236C6.19645 13.7103 3.72742 14.6107 2.73986 16.6439C1.79311 18.5961 2.31899 21.7531 5.62948 24.3989C8.6535 26.815 9.09492 27.8526 9.33146 28.8707C9.41906 29.2538 9.17367 29.6594 8.77049 29.7432C8.37016 29.8298 7.97582 29.6089 7.88508 29.226C7.88508 29.226 7.87339 29.1812 7.87339 29.1785C7.73899 28.594 7.55209 27.7941 4.67103 25.4927C1.27864 22.7827 -0.0419015 18.9852 1.38393 16.0431C2.67252 13.3864 5.74048 12.1867 9.5974 12.8298C16.005 13.9009 19.2775 15.8894 21.6706 17.3406C22.1703 17.6427 22.6291 17.9223 23.0702 18.1629C23.1858 18.2243 23.2821 18.3142 23.349 18.4234C23.4158 18.5325 23.4508 18.6569 23.4503 18.7834Z" fill="#333333"/>
<path d="M82.5799 31.2392C82.5799 31.27 82.577 31.2979 82.5742 31.3287C82.5574 31.4565 82.5048 31.5774 82.4219 31.6789C82.3391 31.7803 82.2291 31.8583 82.1036 31.9047C82.0948 31.9074 81.2445 32.2264 78.7084 33.3281C78.5282 33.4062 78.323 33.4127 78.1379 33.3462C77.9527 33.2796 77.8027 33.1454 77.7208 32.9731C77.68 32.8877 77.6572 32.7955 77.6538 32.7018C77.6504 32.608 77.6664 32.5145 77.7009 32.4266C77.7353 32.3388 77.7876 32.2583 77.8547 32.1899C77.9218 32.1214 78.0024 32.0664 78.0918 32.0279C79.1173 31.5833 79.8683 31.2616 80.4059 31.0406C78.5358 29.3766 78.0627 27.6539 78.0393 27.57C78.0053 27.4415 78.0094 27.3064 78.0511 27.1799C78.0929 27.0535 78.1707 26.9407 78.2758 26.8542C79.4212 25.9118 80.0991 24.0017 80.3328 23.2326C78.8077 21.5381 74.9331 19.0826 74.8923 19.0575C74.7793 18.9857 74.6889 18.8858 74.6307 18.7686C74.5725 18.6513 74.5488 18.5211 74.5621 18.3919C74.5751 18.2625 74.625 18.139 74.7065 18.0349C74.7879 17.9308 74.8977 17.8501 75.0238 17.8018C76.6163 17.1865 77.4929 15.9701 77.9223 15.1535C74.7373 14.7815 71.4474 12.9441 71.2924 12.8575C71.2072 12.8095 71.1327 12.7457 71.0735 12.6699C71.0144 12.594 70.9716 12.5076 70.9478 12.4157C70.9233 12.3238 70.9185 12.2281 70.9336 12.1344C70.9486 12.0407 70.9832 11.9509 71.0354 11.8703L72.28 9.93235C69.4546 9.57158 66.7227 8.19297 66.5912 8.12579C66.4362 8.04604 66.3155 7.91655 66.2503 7.76006C66.1851 7.60358 66.1796 7.43011 66.2348 7.27015C66.5065 6.4899 67.0968 5.72931 67.617 5.16427C65.6242 4.94606 63.1934 5.72358 62.2817 6.11221C62.0218 6.22117 61.7208 6.18212 61.5016 6.0087C61.2825 5.83528 61.1889 5.55836 61.2534 5.29564C61.5895 3.94761 61.525 2.84592 61.3878 2.09625C58.4631 4.79777 56.0114 5.03263 55.9004 5.0411C55.6639 5.06076 55.433 4.97119 55.2781 4.8035C55.1232 4.63582 55.059 4.40368 55.1086 4.18274L55.5557 2.19157C53.2066 3.04446 49.4372 5.1812 47.9646 6.06769C47.7249 6.21298 47.421 6.21298 47.1785 6.07042C46.936 5.92786 46.8044 5.66486 46.825 5.3964L46.9154 4.44847C44.6627 5.86914 41.6883 7.37366 41.5362 7.44931C41.3925 7.52183 41.2279 7.54742 41.0675 7.52217C40.9072 7.49693 40.7599 7.42225 40.648 7.30948C40.536 7.19616 40.4659 7.05082 40.4485 6.89573C40.4311 6.74064 40.4673 6.58436 40.5515 6.45085C40.8203 6.0229 40.7093 4.97719 40.4959 4.06831C36.2212 6.64666 33.5536 10.1369 33.5242 10.176C33.3285 10.4332 32.9778 10.5367 32.665 10.4277C32.3523 10.3188 32.1537 10.0307 32.1771 9.70622C32.2502 8.72196 32.3466 7.92478 32.4459 7.29282C29.0975 10.1481 26.4883 13.9486 26.4561 13.9934C26.3334 14.1722 26.1316 14.2897 25.9097 14.3121C25.6877 14.3345 25.4657 14.2588 25.3047 14.1078L24.1097 12.964C22.3275 15.5593 18.906 16.9464 18.7451 17.0106C18.6549 17.0466 18.5582 17.0653 18.4605 17.0655C18.3628 17.0658 18.266 17.0476 18.1756 17.012C18.0853 16.9764 18.0031 16.9241 17.9339 16.8582C17.8646 16.7922 17.8096 16.7138 17.7721 16.6274C17.696 16.4527 17.6954 16.2563 17.7705 16.0812C17.8455 15.9061 17.9901 15.7666 18.1724 15.6934C18.2104 15.6795 21.9882 14.1414 23.2651 11.4931C23.3152 11.3886 23.3912 11.2973 23.4864 11.2271C23.5816 11.1569 23.6932 11.11 23.8116 11.0903C23.9297 11.07 24.0513 11.0775 24.1658 11.112C24.2803 11.1466 24.3844 11.2073 24.469 11.2888L25.7253 12.4913C26.8735 10.9365 29.7868 7.2393 33.1935 4.88462C33.3241 4.79384 33.482 4.74635 33.6434 4.74936C33.8047 4.75237 33.9607 4.80571 34.0875 4.90128C34.2143 4.9968 34.3055 5.12895 34.3477 5.27808C34.3898 5.42722 34.3805 5.58538 34.3211 5.72905C34.3211 5.73178 34.1194 6.2493 33.9208 7.51048C35.3321 6.04502 37.6228 3.97847 40.5855 2.35652C40.7784 2.25028 41.012 2.23335 41.2223 2.309C41.4298 2.38437 41.5933 2.5466 41.6635 2.75088C41.7773 3.08078 42.1748 4.30291 42.201 5.48298C43.6794 4.69727 46.0169 3.40522 47.3523 2.41223C47.586 2.23608 47.9075 2.21368 48.1675 2.34778C48.4274 2.48487 48.5735 2.7618 48.5533 3.03845L48.4511 4.11229C50.4847 2.9516 54.4204 0.809669 56.4189 0.46283C56.6643 0.420773 56.9157 0.496426 57.088 0.667114C57.2604 0.837803 57.3334 1.07813 57.2809 1.313L56.8281 3.33504C57.8302 2.96307 59.4432 2.12138 61.1935 0.239159C61.3601 0.0602798 61.6083 -0.0265694 61.8537 0.00702286C61.9755 0.0233727 62.0911 0.0684853 62.1901 0.13829C62.289 0.208092 62.3683 0.300392 62.4207 0.406849C62.4558 0.479492 63.198 2.0094 62.9377 4.36408C64.5068 3.87741 67.2386 3.28178 69.3601 4.12649C69.4778 4.17311 69.581 4.24785 69.6598 4.34356C69.7387 4.43926 69.7906 4.55274 69.8105 4.67312C69.8304 4.7935 69.8177 4.91676 69.7737 5.03111C69.7296 5.14546 69.6556 5.24707 69.5587 5.32622C69.2226 5.60315 68.4045 6.37493 67.9283 7.16365C69.0445 7.65577 71.4551 8.59551 73.5646 8.59551C73.6972 8.59573 73.8274 8.62971 73.9417 8.69397C74.0561 8.75821 74.1505 8.85042 74.2154 8.96113C74.2802 9.07184 74.3132 9.19707 74.3108 9.32397C74.3084 9.45087 74.2707 9.57488 74.2018 9.68327L72.7234 11.982C73.9652 12.5915 76.703 13.7997 78.9997 13.7997C79.2306 13.7997 79.4468 13.9032 79.5898 14.0767C79.6592 14.1629 79.7071 14.2631 79.7299 14.3697C79.7527 14.4764 79.7498 14.5866 79.7213 14.692C79.6922 14.8039 79.0348 17.1223 76.7498 18.5511C78.1785 19.5133 80.7001 21.3056 81.7521 22.6509C81.8183 22.7344 81.8642 22.8309 81.8865 22.9335C81.9087 23.036 81.9068 23.1421 81.8808 23.2438C81.8517 23.364 81.1737 26.0237 79.628 27.5982C79.9028 28.2274 80.6333 29.5418 82.2694 30.6689C82.466 30.7945 82.5799 31.0098 82.5799 31.2392ZM21.5157 60.2507C21.5158 60.3517 21.4935 60.4516 21.4501 60.5437C21.4068 60.6358 21.3435 60.718 21.2643 60.7849C21.1537 60.8793 21.0162 60.9398 20.8693 60.9587C20.7225 60.9777 20.573 60.9541 20.4403 60.8911C16.2475 58.9139 15.9465 56.8894 15.6572 54.9345C15.4937 53.8383 15.3416 52.8062 14.4884 51.671C12.1832 48.6059 13.53 45.7171 14.5643 44.6181C14.693 44.4837 14.8682 44.3999 15.0582 44.3832C16.0312 44.3079 16.8581 44.5567 17.5096 45.1214C19.1166 46.5113 19.178 49.4476 19.2188 51.394L19.2333 51.9506C19.2889 53.7039 20.8694 58.3688 21.4744 60.0158C21.5014 60.0915 21.5153 60.1708 21.5157 60.2507ZM14.7078 48.1471C14.7078 48.9301 14.9532 49.8502 15.6982 50.8347C16.7677 52.2554 16.9634 53.5698 17.1329 54.7302C17.3492 56.193 17.5304 57.4066 19.4382 58.6875C18.7662 56.6878 17.7903 53.5417 17.7407 51.9897L17.7261 51.4164C17.6939 49.8223 17.6385 47.1517 16.5078 46.1756C16.233 45.938 15.8971 45.8121 15.488 45.7952C15.2075 46.1838 14.7078 47.0312 14.7078 48.1471Z" fill="#333333"/>
<path d="M21.5156 29.3822C21.5156 29.4606 21.5011 29.5417 21.4748 29.6171C21.4691 29.6368 20.7735 31.5326 20.1629 33.5601C20.1041 33.7377 19.9752 33.8862 19.8036 33.974C19.6321 34.0618 19.4314 34.0819 19.2446 34.0301C19.0577 33.9783 18.8994 33.8586 18.8034 33.6966C18.7075 33.5346 18.6815 33.3431 18.731 33.163C18.9707 32.3689 19.2218 31.5941 19.4441 30.9397C17.5332 32.2233 17.352 33.437 17.1357 34.8997C16.9634 36.0604 16.7676 37.3775 15.701 38.7952C13.8865 41.2086 15.0379 43.5802 15.5287 44.3799C16.373 44.3045 17.2761 43.5941 17.6148 40.2801C17.6242 40.1867 17.6529 40.0961 17.699 40.0134C17.7451 39.9306 17.8078 39.8574 17.8835 39.7979C17.9593 39.7384 18.0465 39.6938 18.1403 39.6667C18.2341 39.6395 18.3325 39.6303 18.43 39.6396C18.5276 39.6483 18.6225 39.6755 18.7092 39.7195C18.7958 39.7636 18.8724 39.8236 18.9346 39.8961C18.9969 39.9687 19.0434 40.0524 19.0717 40.1423C19.0999 40.2322 19.1092 40.3265 19.0991 40.4199C18.9559 41.8182 18.5204 46.0717 15.061 45.8033C14.9561 45.7949 14.8543 45.7654 14.7621 45.7168C14.6699 45.6681 14.5896 45.6014 14.5263 45.5209C13.5182 44.2316 12.2122 40.9961 14.494 37.9647C15.3472 36.8294 15.5021 35.7946 15.6628 34.7011C15.9521 32.7436 16.2529 30.7215 20.4459 28.7445C20.5787 28.6817 20.7281 28.6582 20.8749 28.6772C21.0217 28.6961 21.1593 28.7565 21.27 28.8508C21.3477 28.9178 21.4098 28.9998 21.4521 29.0914C21.4944 29.183 21.5161 29.2821 21.5156 29.3822ZM29.5217 56.3299C29.5214 56.4322 29.4983 56.5333 29.454 56.6263C29.4096 56.7194 29.3451 56.8023 29.2646 56.8696C29.1494 56.965 29.0065 57.0244 28.855 57.0399C28.7035 57.0554 28.5508 57.0262 28.4171 56.9562C24.9722 55.1469 24.4024 53.455 23.8999 51.9614C23.6691 51.2762 23.4528 50.6331 22.9592 49.976C22.0972 48.8295 21.7787 47.7333 22.0039 46.7209C22.2669 45.5547 23.1609 44.9394 23.4151 44.7857C23.985 44.3607 24.6247 44.2403 25.2208 44.4473C26.6115 44.9312 27.1491 46.8998 27.3157 47.7248C27.3976 48.1107 27.1317 48.4854 26.7256 48.561C26.5316 48.5967 26.3306 48.5573 26.1669 48.4514C26.0031 48.3456 25.8898 48.1819 25.8519 47.9963C25.592 46.7154 25.0807 45.9155 24.7094 45.7869C24.6686 45.7729 24.5545 45.7336 24.312 45.924C24.2829 45.9464 24.2478 45.9688 24.2155 45.9884C24.1833 46.0081 23.6049 46.3519 23.4588 47.0371C23.3333 47.6355 23.5698 48.3431 24.1687 49.143C24.797 49.982 25.0627 50.765 25.3169 51.5228C25.6733 52.5827 25.9949 53.5364 27.3565 54.5906C27.0789 53.774 26.7664 52.7895 26.5091 51.8025C26.4619 51.6193 26.4922 51.4258 26.5935 51.264C26.6947 51.1021 26.8586 50.9851 27.0495 50.9384C27.2409 50.8926 27.4434 50.9213 27.6127 51.0183C27.7819 51.1153 27.9041 51.2726 27.9523 51.4556C28.5455 53.7207 29.4629 56.0533 29.4717 56.0784C29.5053 56.1584 29.5223 56.2438 29.5217 56.3299Z" fill="#333333"/>
<path d="M29.5218 33.7477C29.5218 33.8316 29.5073 33.9184 29.475 33.9995C29.4576 34.0471 27.6489 38.6559 27.4737 41.1895C27.3567 42.8535 26.7258 45.0039 25.3262 45.5886C24.961 45.7423 24.2305 45.9018 23.4153 45.2923C23.161 45.1385 22.2671 44.5232 22.004 43.3571C21.776 42.3447 22.0976 41.2485 22.9593 40.102C23.4532 39.4449 23.6692 38.7987 23.9001 38.1165C24.4026 36.6232 24.9724 34.9314 28.4173 33.1218C28.692 32.9792 29.0279 33.0128 29.2647 33.2084C29.3456 33.2752 29.4105 33.3581 29.4548 33.4512C29.4992 33.5443 29.5221 33.6454 29.5218 33.7477ZM23.4238 42.7164C23.4238 42.8338 23.4355 42.9458 23.4618 43.0548C23.6136 43.7288 24.2097 44.0838 24.2157 44.0868C24.2506 44.1056 24.2838 44.1271 24.315 44.1513C24.5663 44.3471 24.6802 44.3023 24.7327 44.2799C25.2469 44.0647 25.8723 42.7333 25.989 41.0947C26.1029 39.4531 26.8014 37.132 27.3595 35.4877C26.0007 36.5418 25.6794 37.4955 25.3231 38.5554C25.0688 39.3133 24.8029 40.0962 24.1749 40.9352C23.6721 41.595 23.4238 42.1907 23.4238 42.7164ZM50.0947 19.4938C50.0947 19.6251 50.089 19.7483 50.0773 19.8573C49.9575 21.0373 49.2416 22.086 48.3008 22.4607C47.7076 22.6956 47.1086 22.6284 46.6558 22.2734C46.1767 21.8987 45.7736 21.4371 45.3849 20.9925C44.7917 20.3158 44.2687 19.7144 43.6113 19.5355C43.7542 19.7835 43.9022 20.0287 44.0552 20.271C44.6836 21.2777 45.5424 22.6593 45.8406 24.2028C46.4161 27.184 44.4616 28.3502 43.3482 28.5542C43.2474 28.5727 43.1436 28.5711 43.0435 28.5494C42.9434 28.5278 42.849 28.4865 42.7664 28.4281C42.6838 28.3698 42.6147 28.2957 42.5635 28.2106C42.5122 28.1255 42.48 28.0311 42.4688 27.9334C42.4659 27.9083 42.0596 25.0221 38.7026 22.3851C37.1891 21.1965 36.5725 19.6388 36.97 18.0002C37.4462 16.0314 39.3163 14.3562 41.6276 13.8305C41.7227 13.8087 41.8214 13.8051 41.918 13.8199C42.0146 13.8347 42.1073 13.8676 42.1906 13.9167C42.2739 13.9658 42.3463 14.0301 42.4036 14.106C42.4609 14.1819 42.5021 14.2678 42.5247 14.3589C42.6183 14.7475 42.3729 15.128 41.9726 15.2175C40.2283 15.6146 38.7673 16.89 38.4224 18.3189C38.1564 19.4151 38.5802 20.4414 39.6496 21.2804C42.3261 23.3805 43.3516 25.6262 43.7345 26.8484C44.1874 26.5155 44.6433 25.836 44.3774 24.4574C44.1291 23.1653 43.3781 21.9629 42.7761 20.9953C42.1129 19.9326 41.6747 19.2278 42.0573 18.5873C42.2034 18.3413 42.5218 18.0504 43.2115 18.0504C44.76 18.0504 45.7008 19.1243 46.5277 20.0725C46.8872 20.4865 47.2291 20.8751 47.5971 21.1632C47.6907 21.1884 48.123 20.9955 48.4035 20.4026C48.912 19.3176 48.5496 17.5752 45.9987 15.9505C45.8342 15.8455 45.7199 15.6822 45.6811 15.4966C45.6422 15.311 45.6818 15.1182 45.7912 14.9605C45.9012 14.8033 46.0717 14.6941 46.2656 14.6569C46.4594 14.6197 46.6608 14.6575 46.8256 14.762C49.5834 16.5265 50.0947 18.3667 50.0947 19.4938ZM63.9881 18.9484C63.9881 21.9883 61.8113 23.297 61.7003 23.3641C61.5885 23.4292 61.4609 23.465 61.3301 23.4679C61.1993 23.4708 61.0701 23.4408 60.9553 23.3808C60.8402 23.3216 60.7437 23.2342 60.6754 23.1276C60.6071 23.021 60.5696 22.899 60.5666 22.774C60.4496 18.5988 59.3191 17.3597 57.8522 16.1712C56.5696 15.1337 55.3481 15.2678 53.6594 15.4554L53.3616 15.489C52.6602 15.5674 52.0439 15.3658 51.6758 14.9409C51.407 14.6334 51.1528 14.0683 51.4478 13.1455C51.512 12.9412 51.6524 12.7372 51.8655 12.424C52.0145 12.2058 52.368 11.6828 52.4761 11.3837C49.8756 10.6201 43.5733 10.1673 43.5088 10.1616C43.2985 10.1477 43.1028 10.0469 42.9741 9.88468C42.8454 9.72246 42.7929 9.51546 42.8309 9.31691C42.9447 8.73248 43.9003 6.8336 51.3947 6.95376C57.8813 7.05727 58.6848 10.3599 59.0267 11.7694C59.0558 11.8841 59.0909 12.0324 59.1203 12.1274C59.2021 12.1553 59.3337 12.1918 59.4358 12.2224C60.5287 12.533 62.5594 13.1147 63.6434 16.739C63.8888 17.5586 63.9881 18.294 63.9881 18.9484ZM61.94 21.0485C62.4133 20.2486 62.7609 18.982 62.2088 17.1306C61.3496 14.2587 59.9415 13.8559 59.0093 13.5901C58.6614 13.4924 58.3635 13.4055 58.1153 13.2154C57.7852 12.9636 57.6916 12.5777 57.5749 12.0941C57.2447 10.7379 56.6954 8.46702 51.3687 8.38318C48.4235 8.33566 46.6849 8.60684 45.6654 8.91463C47.889 9.12437 51.3456 9.52147 53.1073 10.0835C53.5076 10.2094 53.797 10.4721 53.9225 10.8217C54.203 11.5992 53.5981 12.4912 53.1102 13.2042C52.9992 13.3692 52.8999 13.5063 52.8559 13.5959C52.7683 13.8755 52.8034 14.0126 52.818 14.032C52.8385 14.0517 52.9612 14.0965 53.1889 14.0741L53.484 14.0405C55.3101 13.8362 57.037 13.6461 58.8135 15.0837C60.2365 16.2329 61.5396 17.581 61.94 21.0485ZM52.6365 11.434C52.6365 11.434 52.6394 11.4367 52.6422 11.4367L52.8731 10.7572L52.6365 11.434ZM50.0947 68.3691C50.0947 69.4961 49.5834 71.3363 46.8282 73.0923C43.5294 75.1952 39.687 74.0321 37.8725 71.6886C36.245 69.5857 36.5722 67.1469 38.7023 65.4747C42.0915 62.8125 42.4656 59.957 42.4685 59.9264C42.4802 59.8288 42.5127 59.7346 42.5639 59.6495C42.6151 59.5643 42.684 59.4902 42.7664 59.4315C42.933 59.3141 43.1433 59.2666 43.3479 59.3056C44.461 59.5069 46.4158 60.6843 45.8403 63.657C45.5424 65.2005 44.6833 66.5822 44.055 67.5888C43.9018 67.8311 43.7538 68.0763 43.611 68.3243C44.2655 68.1454 44.7914 67.544 45.3846 66.8673C45.7733 66.4227 46.1764 65.9611 46.6555 65.5864C47.1084 65.2314 47.7073 65.1642 48.3005 65.3991C49.2444 65.7738 49.9572 66.8198 50.077 68.0026C50.0887 68.1145 50.0947 68.2377 50.0947 68.3691ZM38.3459 68.8948C38.3459 69.7925 38.831 70.5337 39.0707 70.8412C40.4674 72.6477 43.4418 73.54 46.0013 71.9065C48.5522 70.2789 48.9143 68.5395 48.4061 67.4544C48.1284 66.8615 47.693 66.6687 47.5997 66.6939C47.2288 66.9847 46.8898 67.3733 46.5274 67.7874C45.7005 68.7353 44.7597 69.8094 43.2112 69.8094C42.5215 69.8094 42.2031 69.5185 42.057 69.2725C41.6772 68.6321 42.1127 67.9275 42.7758 66.8645C43.3776 65.8969 44.1257 64.6945 44.3771 63.4024C44.643 62.0293 44.1871 61.3471 43.7342 61.0142C43.3516 62.2363 42.3258 64.482 39.6493 66.5822C38.6555 67.3597 38.3459 68.179 38.3459 68.8948ZM63.9881 68.9117C63.9881 69.5661 63.886 70.3015 63.6403 71.1238C62.5592 74.7482 60.5255 75.3299 59.4327 75.6404C59.3255 75.6688 59.2193 75.7005 59.1143 75.7354C59.0852 75.8305 59.0501 75.976 59.0207 76.0904C58.6788 77.4999 57.8753 80.8025 51.3887 80.906C43.894 81.0262 42.9387 79.1273 42.8249 78.5429C42.8055 78.4439 42.8082 78.3422 42.8329 78.2443C42.8576 78.1465 42.9037 78.0547 42.9681 77.9751C43.0315 77.8952 43.112 77.8291 43.2042 77.7814C43.2964 77.7336 43.3982 77.7053 43.5028 77.6982C43.567 77.6927 49.8696 77.2397 52.4702 76.4761C52.362 76.174 52.0085 75.6538 51.8595 75.4358C51.6461 75.1226 51.506 74.9186 51.4418 74.7143C51.1439 73.7915 51.401 73.2264 51.6698 72.9189C52.0379 72.494 52.6516 72.2952 53.3556 72.3708L53.6506 72.4017C55.3424 72.589 56.5636 72.7261 57.8465 71.6859C59.3131 70.5001 60.4439 69.2585 60.5609 65.0831C60.5666 64.8286 60.7159 64.5964 60.9496 64.4763C61.1833 64.3531 61.4666 64.3616 61.6946 64.4929C61.8113 64.5631 63.9881 65.8745 63.9881 68.9117ZM45.668 78.9512C46.6878 79.256 48.4263 79.5272 51.3713 79.4826C56.6949 79.3988 57.2473 77.128 57.5774 75.7717C57.6944 75.2851 57.7877 74.9019 58.1179 74.6504C58.3661 74.4603 58.6671 74.3735 59.0118 74.2757C59.944 74.01 61.3522 73.6074 62.2113 70.7352C62.7606 68.8896 62.4131 67.6199 61.9425 66.82C61.5422 70.2849 60.2391 71.6329 58.8161 72.7824C57.0396 74.2197 55.3127 74.0296 53.4865 73.8256L53.1943 73.792C52.9695 73.7669 52.8437 73.8144 52.8234 73.8341C52.8117 73.8537 52.7766 73.9936 52.8731 74.2984C52.9053 74.3598 53.0046 74.4969 53.1156 74.6591C53.6035 75.3749 54.2084 76.2671 53.928 77.0447C53.7993 77.3942 53.5102 77.6572 53.1127 77.7829C51.3482 78.3444 47.8885 78.7387 45.668 78.9512ZM52.6365 76.4288L52.8731 77.1056L52.6422 76.4261C52.6396 76.4288 52.6396 76.4288 52.6365 76.4288ZM41.5657 56.7328C41.5657 57.4264 41.4253 58.1507 41.1245 58.8553C40.0728 61.3359 37.4665 62.6754 35.3159 61.8392C34.9216 61.6854 34.495 61.4252 34.1705 61.1401C34.0986 61.0767 34.0404 61.0005 33.9992 60.9156C33.958 60.8307 33.9348 60.7389 33.9307 60.6455C33.9266 60.552 33.9418 60.4586 33.9754 60.3708C34.009 60.2829 34.0604 60.2023 34.1266 60.1334C34.1926 60.0642 34.2722 60.0082 34.3609 59.9686C34.4495 59.929 34.5456 59.9066 34.6433 59.9027C34.7411 59.8988 34.8387 59.9134 34.9306 59.9458C35.0224 59.9782 35.1066 60.0277 35.1784 60.0914C35.3684 60.259 35.6489 60.4297 35.8737 60.5163C37.2616 61.0559 38.9942 60.069 39.7395 58.3181C40.4817 56.5675 39.9586 54.6992 38.5679 54.1623C38.413 54.1009 38.1296 54.0422 37.8959 54.017C37.4868 53.975 37.186 53.6284 37.2297 53.2341C37.2501 53.0458 37.3477 52.873 37.501 52.7534C37.6544 52.6339 37.851 52.5774 38.0477 52.5964C38.3456 52.6242 38.787 52.7053 39.1289 52.837C40.6717 53.4411 41.5657 54.9904 41.5657 56.7328ZM41.5657 32.1424C41.5657 33.8848 40.6717 35.4339 39.1346 36.0325C38.8221 36.1529 38.4937 36.231 38.1587 36.2646C37.962 36.2832 37.7657 36.2266 37.6124 36.1071C37.4592 35.9877 37.3615 35.8151 37.3407 35.6269C37.2882 35.2326 37.5977 34.883 38.0069 34.844C38.2027 34.8243 38.3927 34.7795 38.5739 34.7096C39.9618 34.1699 40.4877 32.3047 39.7455 30.5538C39.0033 28.8032 37.2676 27.816 35.8797 28.3556C35.6663 28.4395 35.4152 28.5962 35.2078 28.7778C35.1358 28.8412 35.0516 28.8904 34.9598 28.9226C34.868 28.9548 34.7704 28.9694 34.6728 28.9655C34.5751 28.9616 34.4792 28.9393 34.3905 28.8999C34.3018 28.8604 34.2221 28.8047 34.156 28.7358C34.0897 28.667 34.0383 28.5863 34.0046 28.4985C33.971 28.4106 33.9557 28.3172 33.9598 28.2237C33.9639 28.1302 33.9872 28.0384 34.0284 27.9535C34.0696 27.8687 34.1279 27.7924 34.1999 27.7291C34.5361 27.4328 34.945 27.1783 35.3219 27.0327C37.4725 26.1965 40.0756 27.536 41.1305 30.0166C41.4224 30.7248 41.5657 31.449 41.5657 32.1424ZM72.219 43.9385V44.5033C72.219 45.5435 71.4506 46.4412 70.3928 46.6343C68.0759 47.0565 67.0649 48.8603 66.3256 50.1748C66.0391 50.6838 65.8143 51.0864 65.5395 51.3688C64.9785 51.9505 64.4147 52.0706 64.0435 52.0706C63.2808 52.0679 62.7843 51.57 62.7315 51.5141C61.2472 50.0319 62.0684 47.8507 62.7286 46.0944C63.0208 45.3168 63.2956 44.5814 63.2956 44.1144V44.1059C63.2928 43.6698 63.0091 42.9425 62.7318 42.2406C62.0655 40.5376 61.2329 38.4178 62.7435 36.9105C62.8399 36.8155 63.319 36.3679 64.0438 36.3651C64.4178 36.3651 64.9788 36.4853 65.5398 37.067C65.8146 37.3521 66.0394 37.7549 66.3259 38.261C67.0652 39.5782 68.079 41.3793 70.3931 41.8015C71.4506 42.0003 72.219 42.8953 72.219 43.9385ZM63.3949 49.3637C63.3949 49.8279 63.5119 50.2335 63.8186 50.5383C63.8477 50.5661 63.953 50.6445 64.0523 50.6418C64.1545 50.639 64.2977 50.5522 64.4438 50.3984C64.5899 50.2447 64.7945 49.8812 65.0136 49.495C65.7938 48.1052 67.1029 45.7784 70.1152 45.2275C70.4716 45.1631 70.7318 44.8556 70.7318 44.4975V43.9328C70.7318 43.5747 70.4719 43.27 70.1152 43.2028C67.1029 42.6519 65.7966 40.3251 65.0136 38.9353C64.7973 38.5494 64.5928 38.1829 64.4438 38.0319C64.2949 37.8781 64.1516 37.7885 64.0463 37.7913C63.9442 37.7913 63.8329 37.8808 63.8329 37.8808C63.8272 37.8836 63.8241 37.8893 63.8183 37.8948C63.0205 38.6917 63.4414 39.9895 64.1251 41.7373C64.4612 42.5929 64.7768 43.4013 64.7825 44.092V44.1087C64.7825 44.8244 64.4641 45.6719 64.1251 46.5723C63.7747 47.5123 63.3949 48.5304 63.3949 49.3637Z" fill="#333333"/>
<path d="M75.9444 44.1984C75.9445 44.2921 75.9253 44.3849 75.8879 44.4714C75.8505 44.558 75.7956 44.6366 75.7264 44.7029C75.6572 44.7691 75.575 44.8216 75.4846 44.8574C75.3942 44.8932 75.2972 44.9116 75.1994 44.9115H68.4908C68.0788 44.9115 67.7458 44.5928 67.7458 44.1984C67.7458 43.8041 68.0788 43.4853 68.4908 43.4853H75.1994C75.2972 43.4853 75.3941 43.5037 75.4845 43.5395C75.5749 43.5754 75.6571 43.6279 75.7263 43.6941C75.7954 43.7603 75.8503 43.839 75.8878 43.9255C75.9252 44.012 75.9444 44.1048 75.9444 44.1984ZM70.5623 41.4409C70.5623 42.1204 70.4251 42.5456 70.4134 42.5792C70.3835 42.6684 70.3355 42.7512 70.2722 42.8227C70.2089 42.8942 70.1314 42.9531 70.0443 42.9959C69.9572 43.0388 69.8622 43.0648 69.7646 43.0725C69.667 43.0802 69.5687 43.0694 69.4755 43.0407C69.2885 42.9827 69.1328 42.8566 69.042 42.6897C68.9513 42.5228 68.9327 42.3284 68.9904 42.1485C69.005 42.0983 69.2769 41.1643 68.745 39.8525C68.3741 38.9409 66.0366 38.3871 64.9611 38.2612C64.8639 38.2501 64.77 38.2208 64.6846 38.1748C64.5993 38.1289 64.5244 38.0672 64.4641 37.9934C64.4038 37.9195 64.3594 37.835 64.3334 37.7447C64.3074 37.6543 64.3003 37.56 64.3126 37.467C64.3243 37.374 64.3551 37.2842 64.4032 37.2027C64.4513 37.1211 64.5158 37.0495 64.5928 36.9918C64.6699 36.9341 64.7581 36.8916 64.8524 36.8666C64.9467 36.8416 65.0452 36.8347 65.1423 36.8462C65.5689 36.8965 69.3439 37.3916 70.1358 39.338C70.4716 40.1573 70.5623 40.8846 70.5623 41.4409ZM70.4191 46.939C70.4191 47.518 70.3255 48.2982 69.9691 49.1735C69.1773 51.1172 65.4051 51.615 64.9757 51.6653C64.8786 51.6768 64.7801 51.6698 64.6858 51.6448C64.5916 51.6198 64.5034 51.5773 64.4263 51.5196C64.3492 51.462 64.2848 51.3903 64.2367 51.3088C64.1886 51.2273 64.1577 51.1375 64.1459 51.0445C64.1222 50.8569 64.1771 50.668 64.2987 50.5191C64.4202 50.3702 64.5986 50.2735 64.7945 50.2503C66.165 50.0881 68.2423 49.4867 68.5784 48.659C69.1248 47.3167 68.8649 46.2874 68.8617 46.2764C68.7624 45.896 68.999 45.5074 69.3964 45.4096C69.7939 45.3118 70.1971 45.5328 70.3021 45.9129C70.3138 45.9408 70.4191 46.3267 70.4191 46.939Z" fill="#333333"/>
<path d="M70.39 53.2286C70.39 53.2622 70.3871 53.2985 70.3811 53.3321C69.8844 56.5705 68.5053 58.8441 66.2817 60.0913C62.457 62.2363 57.598 60.4969 57.3906 60.4212C57.0079 60.2814 56.815 59.8704 56.9611 59.5012C57.1072 59.1319 57.5398 58.9473 57.9224 59.0871C57.9664 59.1038 62.3315 60.6531 65.5338 58.855C67.1203 57.9628 68.1869 56.3744 68.7128 54.126C67.4536 54.2909 65.3994 54.3412 63.8595 53.3179C62.7141 52.5573 62.0624 51.3658 61.9223 49.7747C61.8932 49.383 62.1911 49.0365 62.6031 49.0056C62.7008 48.9977 62.7991 49.0083 62.8925 49.0368C62.9858 49.0652 63.0724 49.111 63.1473 49.1716C63.2222 49.2321 63.2839 49.3061 63.3289 49.3894C63.3739 49.4728 63.4012 49.5638 63.4095 49.6572C63.5116 50.8206 63.9382 51.6345 64.7126 52.149C66.1764 53.1193 68.6249 52.7616 69.4461 52.5434C69.6886 52.4789 69.9486 52.5349 70.1386 52.6944C70.2179 52.7611 70.2813 52.8433 70.3247 52.9355C70.368 53.0276 70.3903 53.1275 70.39 53.2286ZM79.4623 35.3839C79.4623 35.5264 79.4595 35.669 79.4566 35.8118C79.2726 41.6231 75.8422 44.607 75.6962 44.7299C75.3894 44.9899 74.916 44.9648 74.6444 44.6712C74.3728 44.3776 74.399 43.9273 74.7057 43.6646C74.7497 43.6282 77.8059 40.9267 77.9694 35.767C78.0893 31.9051 76.3713 27.3159 71.1733 26.0574C64.6838 24.4858 59.9766 28.0934 54.9949 31.9136C52.6283 33.7286 50.1795 35.6051 47.4944 36.9277C44.4907 38.4071 41.3206 38.4098 38.793 36.9332C35.6609 35.1042 33.8638 31.3204 33.8638 26.5469C33.8638 24.4522 33.2795 22.9979 32.1281 22.2261C30.0098 20.8054 26.5532 21.9855 26.5181 21.9967C26.4262 22.0288 26.3286 22.0433 26.2309 22.0394C26.1331 22.0354 26.0372 22.0131 25.9485 21.9736C25.8598 21.9341 25.78 21.8783 25.7139 21.8094C25.6477 21.7405 25.5963 21.6597 25.5628 21.5718C25.5292 21.4838 25.514 21.3904 25.5182 21.2969C25.5223 21.2033 25.5457 21.1115 25.5869 21.0266C25.6281 20.9417 25.6864 20.8654 25.7585 20.802C25.8305 20.7387 25.9149 20.6896 26.0068 20.6574C26.1762 20.5987 30.2201 19.2089 32.9784 21.0545C34.5563 22.1087 35.3567 23.9573 35.3567 26.5499C35.3567 30.8146 36.8936 34.1565 39.57 35.7198C41.6738 36.9474 44.2479 36.928 46.8133 35.6638C49.3671 34.4053 51.7571 32.5737 54.0655 30.8034C59.1114 26.933 64.3328 22.934 71.5411 24.6761C77.3936 26.0962 79.4623 31.0574 79.4623 35.3839Z" fill="#333333"/>
<path d="M70.39 35.5264C70.39 35.6311 70.366 35.7344 70.3195 35.8292C70.2731 35.9239 70.2054 36.0077 70.1212 36.0745C70.0234 36.1529 69.906 36.2057 69.7806 36.2277C69.6551 36.2498 69.5258 36.2404 69.4053 36.2004C69.3762 36.192 66.393 35.2383 64.6573 36.3263C63.918 36.7906 63.5091 37.5681 63.4066 38.7034C63.3899 38.8921 63.2956 39.0668 63.1444 39.189C62.9932 39.3112 62.7975 39.3709 62.6003 39.355C62.1911 39.3214 61.8844 38.9719 61.9194 38.586C62.0598 37.0031 62.7084 35.8397 63.8421 35.1323C65.376 34.1732 67.4214 34.3297 68.6982 34.5646C68.1664 32.3497 67.1029 30.7837 65.5338 29.9027C62.3315 28.1016 57.9661 29.6539 57.9224 29.6706C57.8309 29.7039 57.7334 29.7197 57.6356 29.7169C57.5377 29.7141 57.4413 29.6929 57.352 29.6545C57.2627 29.616 57.1822 29.5611 57.1152 29.4928C57.0481 29.4245 56.9957 29.3442 56.9611 29.2566C56.8914 29.08 56.8975 28.8842 56.9779 28.7119C57.0583 28.5396 57.2067 28.4046 57.3906 28.3365C57.5951 28.2611 62.4542 26.5215 66.2817 28.6664C68.5053 29.9136 69.8844 32.1872 70.3812 35.4256C70.3869 35.4565 70.39 35.4901 70.39 35.5264Z" fill="#333333"/>
</g>
<defs>
<clipPath id="clip0_1558_47631">
<rect width="90" height="90" fill="white" transform="matrix(0 -1 1 0 0 90)"/>
</clipPath>
</defs>
</svg>
