<svg width="90" height="90" viewBox="0 0 90 90" fill="none" xmlns="http://www.w3.org/2000/svg">
<g clip-path="url(#clip0_394_15600)">
<mask id="mask0_394_15600" style="mask-type:luminance" maskUnits="userSpaceOnUse" x="0" y="0" width="90" height="90">
<path d="M0 0L0 90H90V0H0Z" fill="white"/>
</mask>
<g mask="url(#mask0_394_15600)">
<path d="M44.903 89.9998C20.002 89.9199 -0.0773562 69.6626 0.000224053 44.7011C0.0778043 20.0417 20.3888 -0.0638984 45.16 -0.000198364C69.9324 0.0634016 90.1114 20.3705 89.9991 45.1248C89.8868 69.9625 69.6719 90.0785 44.903 89.9998Z" fill="#171717"/>
<path d="M23.5008 29.4492C23.3317 28.8703 23.2252 28.2822 23.2669 27.6755C23.9153 26.9449 24.859 27.1533 25.6429 27.0641C27.0706 26.9009 28.5134 26.6925 29.9631 26.7955C30.7319 27.1394 30.8095 27.7102 30.3394 28.3042C29.6666 29.1552 29.8334 30.269 29.317 31.1848C29.0298 31.6954 30.2086 33.4403 30.8269 33.6822C31.0978 33.7876 31.4116 33.8015 31.6073 34.0643C31.7451 34.1778 31.8204 34.3237 31.847 34.495C31.4591 35.6505 31.3375 35.7246 29.8137 35.7733C30.3209 36.072 31.209 35.1145 31.598 36.2295C31.7706 37.2252 32.1886 38.2672 31.0353 38.9874C30.6474 39.1981 30.3139 38.7836 29.9631 38.8925C31.9014 39.2699 32.2812 39.8998 31.8285 42.0359C31.8748 43.2389 31.3908 44.4477 31.8864 45.6391C31.9373 46.042 31.759 46.3697 31.4742 46.614C31.026 46.9972 30.4355 46.7703 30.3348 46.1404C30.1993 45.3022 30.2109 44.45 30.3463 43.6071C30.3927 43.3153 30.4633 43.0259 30.4575 42.7306C30.4494 42.2918 30.5189 41.7118 30.0105 41.5913C29.4327 41.4547 29.5717 42.1402 29.3598 42.4377C28.8712 43.122 28.5122 43.7507 29.3841 44.5079C29.7767 44.8495 29.3447 45.4805 29.266 45.9807C29.1803 46.5318 28.8966 47.2207 29.9561 47.157C30.3764 47.1315 30.6462 47.4638 30.6416 47.8806C30.6231 49.7922 31.7683 50.825 33.3523 51.5394C33.585 51.6447 33.7182 51.9157 34.0065 51.9133C34.0922 51.8867 34.1779 51.8647 34.2601 51.83C34.5044 51.6829 34.6804 51.4039 35.0706 51.4548C34.4326 50.671 34.4326 49.7308 34.2647 48.8382C34.8923 47.1269 35.7654 45.4654 35.1899 43.533C35.0764 43.1509 35.2084 42.7457 35.4852 42.3972C35.843 41.9456 35.557 41.7442 35.1181 41.6492C34.8205 41.6226 34.6966 41.3551 34.4917 41.2C33.9834 41.0147 33.4553 40.8781 32.9818 40.6026C32.7641 40.4868 32.5093 40.4312 32.3576 40.2101C32.2685 40.1059 32.2025 39.9901 32.1538 39.8627C32.1307 39.4019 32.1006 38.9642 31.9651 38.4942C31.7277 37.6733 31.6004 36.7563 32.3437 36.0338C32.5452 35.8207 32.8023 35.8265 33.0628 35.8497C33.4854 35.8821 33.8884 35.7328 34.3052 35.7096C35.0336 35.6969 35.6253 35.3229 36.2251 34.9697C37.1896 34.7417 38.1796 34.6583 39.1592 34.5008C40.4225 34.4024 41.3245 33.4565 42.4743 33.1091C43.066 32.9991 43.6357 32.9366 43.9599 33.6139C43.4875 34.6733 43.6079 35.7119 43.7677 36.8535C43.9194 37.9373 42.9618 38.7223 42.0007 39.2664C40.7641 38.9457 39.4406 39.0233 38.2537 38.4652C37.7894 38.2464 37.3205 38.3784 36.8515 38.4467C38.4263 38.2255 38.6683 38.383 38.6254 39.8662C38.5907 41.0668 39.2136 41.7257 40.2095 42.1691C42.2346 42.8186 44.2656 43.4624 46.0963 44.5843C46.9184 45.088 47.5668 45.8672 48.5279 46.1103C47.2831 45.0613 46.2468 43.8155 44.9384 42.8615C44.4196 42.4829 44.1336 41.9746 44.4648 41.2463C44.7114 40.7033 44.188 40.085 44.4671 39.4945C44.5308 38.6273 45.2603 38.2927 45.8068 37.8122C45.9492 37.6953 46.0998 37.5968 46.2839 37.5494C46.5953 37.4683 47.1291 37.7335 47.1234 37.136C47.1187 36.6961 46.8281 36.3904 46.3846 36.2133C45.8948 36.0176 45.4027 35.8242 44.943 35.5452C44.4798 35.265 44.2494 34.9119 44.3062 34.3746C44.2656 34.0898 44.0479 33.8756 43.9958 33.5954C43.792 33.086 44.1116 32.7097 44.415 32.4364C45.2475 31.6862 45.8867 30.746 46.7818 30.064C47.7313 29.5442 48.6692 29.0046 49.4855 28.2833C50.3806 28.0251 50.1478 26.9518 50.7719 26.4979C52.9928 26.7677 55.2033 27.0618 56.9031 28.7453C57.1324 29.1031 56.8336 29.3798 56.7201 29.66C56.558 30.0629 56.4723 30.4207 56.7722 30.7831C57.3964 31.1952 57.9093 31.7174 58.3169 32.3438C58.2046 34.2959 58.3829 36.2214 58.7245 38.148C59.0638 40.0607 59.0093 41.9317 57.8734 43.6546C57.0513 44.9004 56.8151 46.2886 57.1706 47.7707C57.6337 49.7042 57.3616 50.3561 55.6931 51.5185C54.974 52.0338 54.4807 51.2673 53.8717 51.1561C51.9217 50.8018 49.9903 50.9153 48.0462 51.0843C46.813 51.192 45.7269 50.8053 44.7172 50.1071C43.6867 49.3939 43.1818 49.4819 42.5971 50.6131C41.9324 51.896 41.0397 52.9137 39.7254 53.5771C39.8007 54.0646 40.5452 54.0762 40.4132 54.6354C40.3137 55.0592 39.9674 55.3035 39.7127 55.6149C38.8836 56.628 38.1171 57.7106 36.943 58.2629C38.9346 57.9433 41.0154 58.5303 43.0903 58.205C45.3726 58.1969 47.6398 57.9502 49.9139 57.8495C50.4361 57.8264 51.1656 57.5427 51.2119 58.5118C49.4218 59.1127 47.5251 59.1301 45.603 59.5052C46.0233 60.1779 46.5571 60.7915 46.2978 61.624C46.0094 62.548 45.2255 62.9937 44.4706 63.4464C43.9368 63.766 43.3659 64.0265 42.8124 64.3125C42.6318 64.4132 42.5218 64.3391 42.4523 64.1666C42.4408 64.0925 42.4523 64.0242 42.4859 63.9582C42.4986 63.9339 42.5056 63.9072 42.5149 63.8818C41.6997 64.8057 40.6518 64.8046 39.5564 64.6263C38.8223 64.6598 38.2016 64.5661 38.3765 63.5807C38.5316 63.2322 38.7389 62.9312 39.1673 62.93C40.0983 62.9254 40.6645 62.3708 41.0628 61.7421C40.5348 62.2631 39.8215 62.4542 39.0029 62.255C38.3163 62.0883 37.64 62.0026 37.0032 62.4183C36.6164 62.7147 36.1046 62.5179 35.7017 62.7494C35.4319 62.827 35.2073 62.8062 35.0509 62.5248C33.8513 60.3597 32.2002 58.5766 30.3359 56.9765C29.5474 56.635 28.9939 56.0086 28.4254 55.3996C28.0444 54.9827 27.3207 54.9376 27.1829 54.2568C25.4947 51.2001 25.0871 47.8795 25.1462 44.4593C25.2133 40.5563 25.0883 36.666 24.3287 32.8197C24.1133 31.6792 23.9593 30.526 23.5008 29.4492Z" fill="#EFC495"/>
<path d="M11.0451 63.192C13.8264 65.8446 17.2677 66.9549 20.9765 67.4424C21.1525 67.4655 21.3193 67.5639 21.4906 67.6276C21.2729 68.1579 21.625 68.7264 21.3679 69.2706C21.2845 69.4477 21.4131 69.7279 21.6562 69.7997C21.8959 69.8703 22.1634 69.7233 22.1877 69.5218C22.2641 68.8908 22.8581 68.5863 23.0434 68.0375C24.749 67.9125 26.3631 68.6014 28.056 68.6083C28.3849 68.6095 28.7125 68.6882 29.0414 68.731C29.1004 68.8202 29.1479 68.9186 29.2116 69.0031C29.4594 69.3343 29.603 69.8703 30.1055 69.8148C30.7702 69.7407 30.2259 69.0575 30.527 68.7635C31.612 68.7426 32.6217 69.1629 33.6835 69.2926C34.6098 69.406 35.5188 69.4535 36.4266 69.2034C36.9256 69.5045 37.581 69.2277 38.0662 69.6967C38.2931 69.9166 38.7181 69.7395 38.7864 69.4385C38.908 68.9082 39.4464 68.6048 39.4649 68.0444C40.3855 67.5037 41.4577 67.711 42.4338 67.4424C42.9873 67.9622 42.8981 68.6511 42.8993 69.303C42.912 74.5688 42.9039 79.8357 42.9062 85.1015C42.9062 85.5067 42.8981 85.912 42.9132 86.3172C42.9734 87.893 43.4042 88.2925 44.9998 88.3747C45.9782 88.4245 46.9937 88.1593 47.9246 88.6734C48.0335 88.766 48.1006 88.8818 48.1273 89.0219C45.2128 89.3299 42.318 89.3033 39.4742 88.4835C38.7644 87.9 38.0476 87.7622 37.3147 88.4441C33.7043 87.6105 30.0742 86.8394 26.8159 84.9487C26.9108 84.342 26.3608 84.0097 26.1952 83.5083C26.1211 83.2826 25.8143 83.2073 25.6267 83.3439C25.2504 83.6183 24.7189 83.6044 24.4283 84.0166C22.036 82.6342 19.7619 81.085 17.5873 79.3714C13.1513 75.876 9.56991 71.6337 6.73766 66.7905C5.52185 64.7122 4.30488 62.5598 3.96098 60.0856C4.65225 59.5275 5.28679 60.507 5.95375 60.089C5.66543 58.9104 5.58901 58.8664 4.48088 59.4731C4.17404 59.641 3.79887 59.6051 3.53139 59.8482C2.4198 56.4581 1.45873 53.0402 1.28157 49.444C1.20746 47.9423 1.02219 46.4452 0.886719 44.947C1.29778 44.397 1.90221 44.4376 2.48464 44.4376C3.6854 44.4376 4.92321 44.5823 5.76501 43.4129C5.84722 43.2994 6.03596 43.3492 6.17259 43.421C6.10775 45.5803 5.77196 47.7385 6.1668 49.9013C6.23281 50.2603 6.14249 50.6354 5.93406 50.9584C5.64111 50.7199 5.45353 50.4247 5.36784 50.0507C5.31805 49.833 5.18605 49.642 4.90815 49.6929C4.79468 49.7138 4.70668 49.8006 4.69162 49.9152C4.65804 50.163 4.80047 50.3413 4.99268 50.4536C5.30069 50.6331 5.71174 50.6146 5.94101 50.9492C6.15754 53.3991 7.4243 55.4635 8.41084 57.6275C9.26307 59.4985 9.92539 61.4599 11.0532 63.199C10.5472 63.4942 10.1477 63.9874 9.45991 63.9353C9.15075 63.9122 8.92148 64.1472 8.88559 64.4841C8.8659 64.674 8.92843 64.8824 9.11833 64.9322C9.51781 65.0387 9.73318 64.7643 9.86287 64.4506C10.0991 63.8763 10.5437 63.5116 11.0451 63.192Z" fill="#102564"/>
<path d="M55.8445 64.3119C58.2263 64.709 60.4403 65.6515 62.7051 66.4272C65.4123 67.3535 68.108 68.3133 70.8418 69.1678C69.1964 68.1582 67.3345 67.6835 65.5582 67.0119C63.144 66.0996 60.6834 65.3065 58.2553 64.4288C57.8303 64.2748 57.1309 64.2528 57.1078 63.7272C57.0846 63.212 57.7446 63.0788 58.1777 62.9086C60.0003 62.1942 61.8089 61.4347 63.665 60.8234C68.7518 59.148 73.8582 57.5305 78.9622 55.9061C81.5664 55.0771 84.1775 54.2736 86.7909 53.4758C88.0461 53.0926 88.3344 53.3311 88.0276 54.5827C86.8048 59.5671 85.0042 64.3154 82.15 68.6178C79.2552 72.9805 75.8868 76.9345 71.6755 80.0676C69.4326 81.736 67.1411 83.3905 64.5196 84.4766C64.068 84.4221 63.8214 84.1454 63.65 83.739C62.4875 80.988 61.1107 78.325 60.2064 75.4698C59.9979 74.811 59.1886 74.5077 59.2661 73.7192C58.2715 71.1789 57.0916 68.7186 56.0344 66.2061C55.7947 65.6341 55.1312 65.0135 55.8445 64.3119Z" fill="#122F59"/>
<path d="M65.6391 6.22829C68.4563 7.56909 70.9759 9.35789 73.3485 11.3668C73.8279 11.772 74.5261 12.0835 74.7449 12.5999C75.4015 14.1409 76.9125 14.7835 77.95 15.9101C79.0315 17.0841 80.0273 18.3137 80.9479 19.607C81.8684 20.8991 82.7635 22.2144 83.4594 23.6478C83.9781 24.7142 83.7767 25.0719 82.5701 25.0685C79.614 25.0604 76.6647 25.1819 73.7294 25.5131C69.7659 25.96 65.8255 26.5644 61.9534 27.5578C61.202 27.75 60.4424 27.9109 59.6828 28.0684C59.3296 28.1413 58.8746 28.3347 58.6476 27.9839C58.3824 27.5728 58.8827 27.3575 59.1027 27.0947C59.3146 26.8399 59.5681 26.6199 59.8032 26.3849C62.9643 23.2217 66.1277 20.062 69.2842 16.8942C69.6327 16.5446 70.0588 16.2308 70.1573 15.6299C69.6385 15.7144 69.4382 16.1 69.1661 16.3697C65.9703 19.5491 62.7814 22.7366 59.5983 25.9299C59.0726 26.4567 58.5168 26.936 57.8625 27.295C57.323 27.0194 57.4526 26.6084 57.609 26.1649C58.1578 24.6065 58.7761 23.0735 59.2659 21.4943C59.3898 20.9651 59.3887 20.3793 59.9862 20.0806C60.227 19.9601 60.2293 19.6799 60.2907 19.4519C61.4417 15.2084 63.1739 11.1723 64.7278 7.07359C64.8934 6.63469 65.1215 6.27929 65.6391 6.22829Z" fill="#122F59"/>
<path d="M11.2683 61.8203C10.1799 58.8169 8.47545 56.081 7.40207 53.0811C6.81616 51.4439 6.88795 49.6551 6.97943 47.916C7.10333 45.5552 7.2828 43.1956 7.2388 40.8301C7.15891 36.4443 8.39324 32.4533 10.7913 28.8003C12.3186 26.4743 13.5807 24.022 14.3681 21.3358C14.5626 20.6712 14.881 20.0263 15.2365 19.4277C16.0679 18.0268 17.0521 17.8786 18.3467 18.894C19.735 19.9823 20.4321 21.4435 20.6498 23.164C21.5367 24.646 21.2021 26.2878 21.253 27.8752C21.2669 28.3187 21.3897 28.7992 21.0828 29.2113C20.2665 29.6282 19.9261 29.1338 19.6771 28.4692C19.5717 26.9281 19.4617 25.3824 19.4617 24.1493C19.7535 27.2732 18.9198 30.6065 18.5574 33.9908C18.1348 37.9425 16.8402 41.5213 14.925 44.9358C14.7259 45.2912 14.507 45.6351 14.2384 45.9408C13.9547 46.2638 13.6189 46.5116 13.1824 46.2082C12.8037 45.9454 12.8454 45.5737 13.0249 45.2183C13.7648 43.7536 14.2673 42.1859 15.1068 40.5106C14.8382 41.1173 14.5881 41.4519 14.265 41.7355C13.9524 42.0111 13.6282 42.3144 13.1974 41.9984C12.7783 41.6892 12.9184 41.3118 13.1187 40.9146C13.8679 39.4315 14.5997 37.939 15.1763 36.376C15.8213 34.6265 16.3666 32.8411 16.8553 31.6659C16.4894 32.6362 16.0528 34.2247 14.9934 35.525C14.7108 35.8723 14.4572 36.3065 13.9188 36.0275C13.3827 35.7496 13.5749 35.298 13.7162 34.865C14.1018 33.684 14.5047 32.5111 15.0964 31.4124C14.8868 31.813 14.7236 32.2356 14.4931 32.6258C14.2789 32.987 13.9918 33.1862 13.5761 33.0055C13.1476 32.8191 13.1604 32.4706 13.26 32.07C13.5703 30.83 14.2453 29.7382 14.5707 28.8652C14.4503 29.2739 14.0994 29.9419 13.7243 30.5984C13.5135 30.9666 13.1951 31.1484 12.7991 30.9377C12.4158 30.7339 12.4239 30.419 12.5698 30.0091C13.1152 28.4773 13.6919 26.9536 13.9478 25.8166C12.9276 29.3943 11.266 33.2753 10.6639 37.4516C10.4485 38.9475 10.3015 40.4596 10.2945 41.9717C10.2772 45.3329 10.3374 48.6941 9.94716 52.0413C9.88579 52.5635 10.0166 53.0718 10.0977 53.5812C10.1683 54.0224 10.261 54.5017 10.7623 54.6453C11.2683 54.7912 11.5879 54.416 11.8797 54.0803C12.7551 53.0764 13.4742 51.951 14.3264 50.9298C14.5163 50.7017 14.6969 50.469 14.932 50.2849C15.3523 49.9561 15.7333 49.9144 16.0251 50.4493C16.1559 50.8453 15.8722 51.0896 15.7078 51.3941C14.7652 53.1355 13.7359 54.8271 12.8639 56.6078C12.241 57.8791 11.779 59.177 11.8195 60.6208C11.8322 61.0874 11.8589 61.6096 11.2683 61.8203Z" fill="#FDFDFD"/>
<path d="M64.8153 57.2655C62.2783 58.2659 59.7263 59.2292 57.209 60.277C55.2208 61.1048 53.3948 60.6799 51.4102 59.7398C54.0595 58.6966 56.219 57.1289 58.3634 55.523C59.9058 54.3675 61.0787 52.9619 61.8893 51.2008C63.2637 48.2136 64.8998 45.3631 66.6657 42.5889C66.8602 42.2832 67.0698 41.9892 67.3164 41.6256C70.3664 44.9937 73.4059 48.2541 76.9699 50.9692C77.4458 50.7875 77.6855 51.0433 77.7446 51.4602C77.8117 51.9418 77.4759 52.1989 77.0753 52.3517C75.9151 52.7951 74.7236 53.161 73.568 53.6137C70.6234 54.7692 67.5804 55.6839 64.8153 57.2655Z" fill="white"/>
<path d="M55.4445 50.9777C56.9833 50.085 57.2219 49.7087 56.8073 48.0299C56.3986 46.3777 56.6869 44.8737 57.4558 43.4275C58.4886 41.487 58.6357 39.4932 57.9189 37.4277C57.7707 36.9993 57.7059 36.579 57.8043 36.1251C57.9653 35.3795 57.9201 34.6095 57.5368 33.9658C56.9312 32.9492 57.3168 32.5243 58.3219 32.3448C60.4779 34.8318 60.7674 40.5446 58.7827 43.1253C57.5866 44.6803 57.1015 46.2955 57.78 48.185C58.1019 49.0812 57.7591 49.8697 57.289 50.5898C56.7298 51.4489 56.0975 52.2606 55.4734 53.1243C57.5565 52.3208 59.4428 49.168 59.0757 47.0133C58.8661 45.7849 58.9518 44.656 59.6859 43.6336C62.2287 40.0918 61.5409 36.4574 60.0032 32.8033C59.7519 32.2071 59.342 31.6756 59.2239 30.8142C60.559 31.6687 61.1403 32.8369 61.5525 34.0874C61.732 34.6304 61.9601 34.8921 62.5298 34.7867C62.9315 35.831 63.6448 36.8106 63.1608 38.0413C63.1631 38.171 63.3449 38.1861 63.2048 38.1397C63.1817 38.1328 63.2071 38.0969 63.206 38.0344C63.2002 37.4728 63.5927 37.4138 64.0154 37.3663C64.4577 37.3165 64.8386 37.5527 65.2578 37.6095C66.1448 39.4157 65.9398 41.2022 65.083 42.9355C63.9378 45.2534 62.2866 47.2842 61.2178 49.6474C60.5416 50.4879 60.0646 51.4432 59.5771 52.3995C59.254 53.0328 58.836 53.6268 58.3462 54.1571C56.3349 56.2041 53.9705 57.6734 51.2192 58.5082C49.7626 58.1886 48.3094 58.5371 46.8632 58.6031C45.5107 58.6645 44.1571 58.7282 42.8035 58.749C42.3589 58.9389 41.9131 58.9447 41.5993 58.5522C41.282 58.1551 41.6028 57.7776 41.7788 57.4268C42.4654 56.0548 43.4195 54.89 44.5856 53.8966C45.0557 53.496 45.6092 53.3339 46.2205 53.3119C47.2904 53.2725 48.3453 53.0629 49.4199 53.0444C50.2095 53.0305 50.9448 52.7434 51.6164 52.3405C52.8021 51.6296 54.011 50.9939 55.4445 50.9777Z" fill="#CD9365"/>
<path d="M48.1186 66.315C49.705 65.3865 50.7726 63.96 51.5333 62.3645C52.0277 61.3271 52.5129 61.2484 53.3651 61.7949C53.6708 61.9906 54.0124 62.1295 54.3378 62.2951C54.2903 63.182 54.4605 64.0573 54.4582 64.9465C54.4385 71.9166 54.4455 78.8855 54.4489 85.8556C54.4489 86.5943 54.4269 87.3295 54.3447 88.0636C52.3045 88.5869 50.1867 88.6043 48.1302 89.0234C48.1128 88.9829 48.1047 88.9401 48.1047 88.8961C47.6381 88.5464 47.5848 88.0312 47.5837 87.5148C47.5651 80.958 47.557 74.4024 47.5825 67.8457C47.5848 67.2621 47.7828 66.7701 48.1186 66.315Z" fill="#B1193F"/>
<path d="M59.8924 21.6829C59.1501 23.5053 58.4137 25.3289 57.8637 27.222C57.6344 27.7106 57.3739 27.9745 56.8274 27.5322C55.9914 26.8549 54.9539 26.6129 53.9488 26.3154C53.4567 25.8465 53.3478 25.2467 53.3467 24.6006C53.3363 17.509 53.3224 10.4173 53.3652 3.32561C53.3687 2.70731 53.1591 1.79152 54.339 1.92122C56.1928 2.38552 58.0397 2.87292 59.8449 3.50622C60.212 3.93582 60.4158 4.42211 60.4158 4.99641C60.4134 9.63691 60.5582 14.2786 60.3266 18.9157C60.2803 19.842 60.0024 20.7543 59.8924 21.6829Z" fill="#FEFEFE"/>
<path d="M54.3363 1.9183C53.7249 2.1939 53.9658 2.7496 53.9646 3.1838C53.9472 10.8938 53.9484 18.6025 53.9461 26.3125C51.6198 25.4441 49.2195 25.084 46.7381 25.2288C46.2321 25.2589 45.711 25.2623 45.2305 25.0273C45.3405 24.5688 45.7342 24.5283 46.0931 24.4635C47.104 24.2805 47.5116 23.6275 47.5498 22.6619C47.5671 22.2184 47.5683 21.775 47.5683 21.3304C47.5706 15.2286 47.5625 9.1258 47.5752 3.024C47.5764 2.3374 47.4583 1.6022 48.0801 1.0696C50.1933 1.1495 52.2636 1.5443 54.3363 1.9183Z" fill="#B1193F"/>
<path d="M48.082 1.07088C48.1006 4.90788 48.1249 8.74488 48.1353 12.582C48.1446 16.272 48.1411 19.9619 48.1399 23.6531C48.1399 25.0703 48.1365 25.0633 46.7794 25.0182C46.2653 25.0008 45.7488 25.0251 45.2336 25.0309C44.2783 25.0216 43.3242 25.0135 42.3689 25.0043C41.8965 24.665 41.8166 24.1649 41.8142 23.6369C41.7911 16.5649 41.7911 9.49288 41.8142 2.42088C41.8154 1.89288 41.8999 1.39509 42.3631 1.04999C44.269 0.951586 46.1761 0.951583 48.082 1.07088Z" fill="#FEFEFE"/>
<path d="M42.3606 1.0491C42.3409 5.3006 42.3061 9.55099 42.3061 13.8025C42.3061 17.5365 42.3443 21.2693 42.3663 25.0033C40.6978 25.1168 39.0952 24.7312 37.4973 24.3341C36.9566 24.1998 36.4899 23.9126 36.1345 23.4669C35.8982 17.7113 36.0824 11.9535 36.0337 6.19679C36.0221 4.75639 36.0569 3.31839 35.6875 1.90929C37.8899 1.45319 40.1165 1.1857 42.3606 1.0491Z" fill="#B1193F"/>
<path d="M11.2694 61.8261C10.7969 58.3572 12.6785 55.6699 14.2568 52.8877C14.7107 52.0864 15.2236 51.3176 15.7088 50.5338C15.5733 49.6585 15.9635 48.9348 16.3688 48.2124C16.7417 48.0202 17.0045 47.7249 17.2048 47.3567C18.0709 45.7624 19.1015 44.2584 19.8483 42.5981C19.985 42.2936 20.1772 42.1002 20.5188 42.1465C20.9171 42.2009 21.0537 42.4834 21.0711 42.8551C21.0873 43.2013 20.953 43.5035 20.8198 43.808C20.1726 45.2923 19.3169 46.6794 18.614 48.1197C17.1933 51.0317 15.4506 53.7769 14.1723 56.7571C13.8226 57.5711 13.5296 58.4174 13.6778 59.3321C13.7693 59.8983 13.9627 60.4564 14.5972 60.5837C15.248 60.7134 15.4714 60.1553 15.7088 59.7003C17.2315 56.793 18.6186 53.822 19.8866 50.7955C20.0093 50.5037 20.0151 50.2293 19.9734 49.9352C19.9803 49.6539 20.0985 49.4049 20.1922 49.1479C20.2606 49.0657 20.3324 48.9858 20.4065 48.9071C20.946 48.6373 20.6786 47.5269 21.6535 47.7041C22.1491 48.0838 22.0658 48.6384 21.9998 49.1282C21.5713 52.3539 20.5292 55.3666 18.8028 58.1361C18.4114 58.7648 18.4496 59.5382 18.2053 59.9724C18.1451 60.3533 18.3176 60.1542 18.1728 60.1866C18.13 60.1958 18.1196 60.1681 18.1346 60.1009C18.2273 59.7003 18.3859 59.3194 18.4971 58.9234C18.6499 58.3804 18.8838 57.6197 19.5241 58.6328C19.5716 58.7069 19.5021 58.7335 19.5786 58.7022C20.8963 58.1511 20.6531 59.221 20.6913 59.8497C20.7677 61.0989 21.0364 62.244 21.9569 63.1564C23.5838 65.2196 23.9856 65.5392 25.477 65.8796C24.9119 65.2961 24.2009 65.0054 23.8895 64.3293C24.2056 63.2768 24.5599 63.1633 25.4503 63.8303C25.228 63.4713 24.7533 63.4702 24.4939 63.1587C24.3723 62.7083 24.2542 62.2568 24.2635 61.7832C24.4441 61.0133 24.8737 61.1742 25.345 61.4926C25.6611 61.8052 25.9436 62.1641 26.4045 62.2846C26.7426 62.6192 27.0054 63.0267 27.4014 63.3081C27.7858 63.5825 28.1691 63.858 28.6334 64.1267C28.2374 63.2224 27.4176 62.6226 27.3713 61.6304C27.3748 61.5262 27.3864 61.4231 27.4049 61.3212C27.6261 60.8269 27.9676 60.7979 28.3856 61.07C28.447 61.1105 28.5061 61.158 28.5535 61.2124C29.18 61.9361 29.767 62.6933 30.412 63.3995C31.0662 64.1162 32.2716 63.9831 32.7985 64.951C32.5136 63.4783 31.996 62.1236 31.3499 60.8106C31.1588 60.4228 30.7791 59.9388 31.4819 59.6169C32.6861 60.7261 33.3519 62.1607 33.9031 63.6577C34.4253 65.0761 34.8074 66.5523 35.7257 67.797C36.19 68.4268 35.6979 68.4523 35.2648 68.4812C34.1416 68.5565 33.0682 68.2254 31.9763 68.0563C27.9271 67.4288 23.8107 67.2968 19.7951 66.4226C17.5522 65.934 15.3614 65.3204 13.3548 64.1348C12.3983 63.5674 11.7406 62.7998 11.2694 61.8261Z" fill="#CD9365"/>
<path d="M48.118 66.3147C48.1134 73.8417 48.1087 81.3675 48.1041 88.8946C46.446 89.0474 44.7867 89.03 43.1251 88.9802C42.6179 88.9652 42.2879 88.8575 42.2891 88.2415C42.3041 81.4497 42.303 74.6579 42.3122 67.8661C42.3122 67.7249 42.3921 67.5848 42.4338 67.4435C44.4254 67.5466 46.3174 67.1599 48.118 66.3147Z" fill="#FEFEFE"/>
<path d="M35.6869 1.91235C36.5449 1.81275 36.5021 2.39055 36.5009 2.96715C36.4951 6.10015 36.4974 9.23204 36.4986 12.3651C36.4998 15.6823 36.509 18.9983 36.4928 22.3155C36.4905 22.7149 36.7163 23.2314 36.1339 23.4688C34.4329 22.2067 32.4494 21.9589 30.4196 21.8743C29.8777 21.5826 29.8325 21.0651 29.8302 20.5406C29.8035 15.3489 29.7989 10.1571 29.8313 4.96555C29.8348 4.40285 29.9448 3.88755 30.4172 3.51595C32.0927 2.71475 33.9246 2.42755 35.6869 1.91235Z" fill="#FDFDFD"/>
<path d="M54.345 88.0625C53.8031 87.8715 53.9629 87.4002 53.9617 87.0262C53.9536 79.1264 53.9524 71.2254 53.964 63.3256C53.964 62.9586 53.7753 62.4769 54.338 62.2951C55.0166 62.8358 55.3327 63.6463 55.8445 64.3109C57.1853 67.3398 58.5262 70.3698 59.8671 73.3987C60.8003 77.2982 60.358 81.2603 60.4032 85.1992C60.409 85.689 60.1415 86.0896 59.8647 86.474C58.0514 87.098 56.2115 87.6237 54.345 88.0625Z" fill="#FEFEFE"/>
<path d="M30.4188 3.51628C30.4199 9.63538 30.42 15.7557 30.4211 21.8748C28.4955 22.3796 26.4946 22.5683 24.6084 23.2422C24.0734 22.9852 24.0642 22.4803 24.0665 22.0045C24.0873 16.7236 23.9159 11.4428 24.1603 6.16309C26.1831 5.13269 28.2396 4.17978 30.4188 3.51628Z" fill="#B1193F"/>
<path d="M78.0691 29.8968C77.1092 30.1747 76.4862 30.9412 75.7718 31.549C73.0704 33.8438 70.4153 36.1942 67.9964 38.7947C67.8748 38.9255 67.7243 39.0286 67.5275 39.1953C66.0789 36.9688 64.3883 35.0584 62.2508 33.5185C61.5955 33.0461 61.2631 32.0712 60.8926 31.2746C60.6633 30.7802 61.24 30.815 61.497 30.7409C63.0926 30.2859 64.6987 29.8644 66.3012 29.4325C70.032 28.6174 73.7987 28.1323 77.6256 28.2492C78.2162 28.2678 78.9549 28.1346 79.058 29.062C79.0371 29.7069 78.8102 30.1064 78.0691 29.8968Z" fill="white"/>
<path d="M88.9437 41.849C88.9889 43.5707 88.9669 43.6054 87.5589 43.4306C84.4394 43.0416 81.3768 42.3619 78.328 41.6151C77.5904 41.4345 76.8076 41.211 76.7185 40.3288C76.6096 39.2578 76.5772 38.0687 77.6981 37.4666C80.5929 35.9105 83.5316 34.4378 86.5329 33.0935C87.259 32.7682 87.4327 33.1549 87.5867 33.7315C88.3254 36.4871 88.7585 39.2914 88.9437 41.849Z" fill="#B24A57"/>
<path d="M6.17259 43.4167C5.71175 44.9751 5.71174 44.9798 3.98761 44.9763C2.95359 44.974 1.91958 44.9554 0.886719 44.9439C1.04651 38.8051 2.16969 32.8747 4.7171 27.2546C5.37016 25.8131 5.99775 24.3577 6.83145 23.0066C7.53083 23.3308 7.3884 23.9942 7.38261 24.543C7.35251 27.7919 7.64315 31.0558 6.9704 34.2768C6.94029 34.4227 6.97734 34.5698 7.03177 34.7087C6.10312 37.5488 6.14828 40.4839 6.17259 43.4167Z" fill="#B1193F"/>
<path d="M24.1631 6.15881C24.7537 6.16801 24.6344 6.62071 24.6344 6.95881C24.6321 12.3855 24.6205 17.8123 24.6112 23.2378C23.7347 23.6801 23.172 23.5192 22.9265 22.4748C22.7875 21.8843 22.4321 21.4004 21.7153 21.3633C21.1896 21.3367 20.9974 20.9175 20.767 20.5355C20.1776 19.5594 19.6577 18.5266 18.648 17.8875C18.2115 17.4024 18.069 16.8188 18.0644 16.1844C18.0528 14.6757 18.0644 13.1659 18.0586 11.6573C18.0563 11.0135 18.274 10.4555 18.5808 9.91471C20.2158 8.32621 22.2526 7.33741 24.1631 6.15881Z" fill="#FEFEFE"/>
<path d="M20.7956 49.1811C20.7342 49.1915 20.6729 49.202 20.6127 49.2124C19.6921 48.9715 19.5833 48.755 19.933 47.8554C19.8253 48.0129 19.728 48.1784 19.6169 48.3347C18.9383 49.2876 18.936 49.29 20.0488 49.6686C20.2769 49.7461 20.4008 49.9244 20.5409 50.0923C19.735 52.9961 18.4149 55.68 17.0289 58.3372C16.6016 59.1558 16.23 60.0033 15.7865 60.8126C15.2782 61.7412 14.7224 61.8002 13.9338 61.0778C12.8419 60.0774 12.8801 58.8339 13.2831 57.5916C14.1226 55.0073 15.5804 52.7217 16.9189 50.3818C18.3107 47.9469 19.5844 45.4552 20.476 42.7702C19.097 44.5927 18.1961 46.7138 16.8367 48.542C16.025 48.6207 16.0308 48.0627 16.3029 47.6458C17.0637 46.4811 17.0567 44.9215 18.2528 43.9802C18.6002 43.7069 18.7264 43.2125 18.6986 42.7633C18.606 41.2882 18.9603 39.915 19.559 38.5859C19.64 38.2188 19.5323 37.8101 19.8114 37.4882C21.231 36.9117 21.4927 37.1629 22.1631 38.3311C22.1527 38.9066 22.1423 39.4809 22.1318 40.0563C22.2997 41.9737 22.0589 43.869 21.8238 45.7644C21.7486 46.2495 21.6826 46.7381 21.5749 47.2174C21.1175 47.7917 21.158 48.5663 20.7956 49.1811Z" fill="#EFC495"/>
<path d="M88.964 45.8697C88.9605 46.1661 88.957 46.4636 88.9524 46.76C88.6675 47.5439 88.1048 48.0336 87.366 48.4018C84.8152 49.6743 82.1288 50.6017 79.4517 51.5523C78.8415 51.7688 78.288 51.6924 77.8839 51.132C76.7376 49.5434 75.5958 47.948 74.8502 46.1186C74.5074 45.278 74.7749 44.6134 75.538 44.1306C76.924 43.2541 78.4767 42.9647 80.0376 43.2275C82.5526 43.6501 85.0572 44.1688 87.4969 44.9527C88.0805 45.1391 88.5865 45.3857 88.964 45.8697Z" fill="white"/>
<path d="M78.0704 29.8989C78.258 29.6766 78.4467 29.4554 78.6343 29.2331C79.0998 28.6542 79.6926 28.4331 80.443 28.4481C81.9077 28.4794 83.3748 28.396 84.8291 28.6704C85.2923 28.7584 85.7196 28.8904 86.0588 29.2331C87.3812 31.9343 87.3661 31.9008 84.7203 33.179C82.4288 34.2859 80.1778 35.4738 77.9129 36.6351C77.1001 37.0519 74.5167 36.8563 73.8382 36.3075C73.3855 35.9416 73.8301 35.7181 73.9934 35.5016C75.2127 33.8795 76.4516 32.2736 77.6848 30.6631C77.862 30.4338 78.1074 30.237 78.0704 29.8989Z" fill="white"/>
<path d="M7.03054 34.7109C6.72833 34.2779 6.83485 33.7835 6.8337 33.3123C6.82559 29.8782 6.82906 26.4429 6.83022 23.0088C8.47909 20.1582 10.4475 17.5427 12.6476 15.0974C13.479 15.1645 13.3296 15.8419 13.3609 16.3363C13.494 18.4366 13.3551 20.5206 12.8595 22.5735C12.0119 24.646 11.1284 26.6849 9.78753 28.5212C8.44088 30.3691 7.50529 32.4497 7.03054 34.7109Z" fill="#FEFEFE"/>
<path d="M25.2698 61.8444C25.044 61.7414 24.8159 61.4577 24.5947 61.8502C24.2856 61.9857 24.1964 61.8502 24.0575 61.5584C23.7807 60.9795 23.7494 60.3578 23.6429 60.0185C23.8386 61.1694 24.0053 62.2149 25.0961 62.9582C25.6623 63.4688 26.2598 63.9517 26.7079 64.7239C25.6484 64.8814 24.9294 63.3739 23.8953 64.3245C21.8655 61.871 22.6043 59.3586 23.4704 56.9086C23.6568 56.3806 23.9312 56.5647 24.1906 56.8472C24.9548 57.6786 25.9263 57.9113 27.0078 57.8372C27.3343 57.2675 27.5636 56.6527 27.8068 56.046C27.9527 55.6813 28.1101 55.3791 28.5698 55.4185C29.2646 55.914 29.7417 56.5613 29.9315 57.403C30.4503 58.1405 30.9702 58.8769 31.4889 59.6144C32.3331 61.6094 33.2849 63.5661 33.6496 65.7301C33.6786 65.9049 33.8025 66.0751 33.5026 66.4375C32.4824 64.7899 30.3727 64.6035 29.2785 62.9756C28.8836 62.3874 28.5999 61.5411 27.6979 61.4068C27.2162 61.5121 27.2961 61.0212 27.1086 60.866C27.2406 61.1532 27.4015 61.4658 27.7466 61.6256C28.5038 62.773 29.2611 63.9192 30.0184 65.0666C29.9512 65.1407 29.8841 65.2137 29.8169 65.2878C28.3533 64.7135 27.0171 63.9308 25.9483 62.7093C25.836 61.8791 25.2524 61.2203 25.1193 60.4515C25.0232 60.8973 25.8071 61.2968 25.2698 61.8444Z" fill="#EFC495"/>
<path d="M88.9631 45.8645C87.4254 45.5994 85.9826 45.0182 84.5051 44.5435C82.3074 43.8372 80.0611 43.4505 77.7441 43.8719C77.5264 43.9113 77.3075 43.9564 77.0957 44.019C75.1341 44.6037 74.891 45.1351 75.8578 46.9425C76.4669 48.0818 77.1443 49.1852 77.817 50.2897C78.2825 51.0539 78.873 51.2635 79.7797 50.8883C82.4406 49.7884 85.2126 48.9501 87.7346 47.5225C88.1514 47.2863 88.5463 47.0119 88.9504 46.7549C88.9712 48.8436 88.9701 48.8425 87.0421 49.5151C79.6326 52.0983 72.2231 54.6825 64.8125 57.2656C65.4586 56.4528 66.4266 56.1321 67.3009 55.6898C70.2257 54.209 73.3429 53.1947 76.3928 52.0137C76.8131 51.8516 77.7198 51.8296 76.9671 50.9682C77.0667 50.49 76.6858 50.2388 76.4669 49.9123C75.4977 48.4731 74.5378 47.0293 73.549 45.604C73.2595 45.1872 73.2653 44.9197 73.6972 44.606C74.6235 43.9344 75.5313 43.2374 76.4171 42.5126C76.8976 42.119 77.3805 42.2521 77.8842 42.3644C81.1263 43.0881 84.3662 43.8441 87.6778 44.1718C88.8531 44.2876 89.2561 44.753 88.9631 45.8645Z" fill="#BFBFBF"/>
<path d="M59.8912 21.6797C60.0695 15.8014 59.9433 9.92199 59.9538 4.04369C59.9538 3.86309 59.8819 3.68248 59.8438 3.50298C61.8005 4.33198 63.827 5.00699 65.6379 6.15439C63.7228 11.3299 61.8076 16.5042 59.8912 21.6797Z" fill="#B1193F"/>
<path d="M75.4593 38.081C76.0359 38.2107 76.0394 38.6518 76.0417 39.1138C76.044 39.8478 75.9583 40.59 76.1691 41.3102C76.3335 41.8717 75.9433 42.1264 75.5878 42.3777C74.5665 43.099 73.5198 43.7856 72.5043 44.5139C72.0399 44.8461 71.6625 44.8774 71.2502 44.4386C70.1919 43.3132 69.122 42.1982 68.0428 41.0925C67.6526 40.693 67.6769 40.3191 68.0312 39.9358C68.902 38.9922 69.6755 37.9525 70.7581 37.2219C71.7065 36.9255 72.5251 37.5194 73.4179 37.6213C74.1045 37.6977 74.7657 37.9779 75.4593 38.081Z" fill="#B24A57"/>
<path d="M28.6064 55.6257C28.1305 56.4037 28.1699 57.5569 27.0038 57.8359C26.7804 57.5071 26.3925 57.44 26.0787 57.2559C24.7505 56.4755 24.255 55.335 24.754 53.8739C25.1593 52.6859 25.3098 51.4957 25.0724 50.28C24.3152 46.4082 24.6915 42.4774 24.4286 38.579C24.2225 35.5212 23.7837 32.4923 23.5 29.4461C24.8536 31.6506 25.1975 34.1353 25.4742 36.6339C25.7915 39.5018 25.7081 42.3813 25.7139 45.2585C25.7209 48.402 26.1644 51.4366 27.8815 54.1633C28.0066 54.6554 28.4756 54.9217 28.6712 55.3675C28.7037 55.467 28.6817 55.5527 28.6064 55.6257Z" fill="#CD9365"/>
<path d="M12.8603 22.5703C12.8476 20.47 12.8407 18.3697 12.8187 16.2694C12.814 15.8746 12.9287 15.4532 12.6484 15.0942C14.5196 13.2464 16.3248 11.322 18.5804 9.91412C18.6024 12.5713 18.6244 15.2297 18.6476 17.8869C16.3897 16.9317 14.8554 17.5511 13.9499 19.7938C13.5771 20.7155 13.2228 21.6441 12.8603 22.5703Z" fill="#B1193F"/>
<path d="M21.96 63.1562C20.7233 62.5659 20.4419 61.3895 20.1802 60.2132C20.0969 59.838 20.2138 59.42 19.995 59.0529C19.4357 59.2602 19.6638 59.8959 19.2435 60.146C18.9447 59.6956 19.438 59.214 19.1115 58.6929C18.734 59.1538 18.7305 59.7036 18.5927 60.1922C18.4549 60.682 18.3669 61.1857 18.1307 61.6894C17.6351 61.0086 17.6838 60.2721 17.9119 59.4987C18.4769 57.5813 19.5168 55.8608 20.1965 53.9921C20.9167 52.011 21.4817 49.9954 21.4667 47.8615C21.3358 47.7237 21.2884 47.5605 21.3138 47.374C21.4493 46.8461 21.4644 46.296 21.601 45.7669C21.7481 45.3593 21.5431 44.8164 22.0688 44.5536C22.5574 44.505 22.7311 44.7735 22.7126 45.21C22.6674 46.2648 22.8238 47.3242 22.6281 48.3743C22.6234 51.5132 22.2124 54.6058 21.5616 57.6706C21.1633 59.5428 21.0081 61.3884 21.96 63.1562Z" fill="#EFC495"/>
<path d="M59.8633 86.4766C60.0902 84.264 59.949 82.0444 59.9536 79.8295C59.9582 77.6875 60.0798 75.5409 59.8656 73.4013C61.4172 77.0924 62.9677 80.7847 64.5193 84.4758C62.9665 85.1416 61.4149 85.8085 59.8633 86.4766Z" fill="#B1193F"/>
<path d="M56.7893 28.9905C55.1751 27.1901 52.9809 26.9886 50.7797 26.808C50.496 27.1484 50.1371 27.3093 49.6936 27.2688C49.1783 27.0141 48.6526 27.0627 48.0841 27.0731C45.6177 27.1171 43.1421 27.2757 40.6815 26.9874C38.8821 26.7767 37.3109 27.5038 35.699 28.0804C35.5068 28.1487 35.3285 28.2437 35.1212 28.2553C34.6233 28.0526 34.0432 28.0434 33.6217 27.6509C33.3103 27.4112 33.0277 27.6671 32.7325 27.7065C31.8339 27.7435 30.9724 27.5895 30.1492 27.2294C27.8426 27.1796 25.5777 27.762 23.27 27.6764C23.2573 27.5478 23.2434 27.4193 23.2306 27.2896C23.0743 26.691 23.402 26.5672 23.9161 26.3865C25.1898 25.9396 26.5376 26.0033 27.8229 25.6884C28.5675 25.4186 29.2726 25.9836 30.0148 25.7949C31.717 25.6189 33.396 26.2557 35.1027 25.9419C38.4618 25.869 41.8221 25.7497 45.1812 25.7382C47.8432 25.73 50.4983 25.9628 53.0874 26.6331C54.7386 27.0604 56.3817 27.5525 57.4331 29.0646C57.638 29.3587 57.9426 29.6226 57.8592 30.0464C57.8522 30.08 57.836 30.1402 57.8221 30.1402C57.7712 30.1437 57.7202 30.1251 57.6681 30.1159C57.1448 29.9202 56.611 29.7326 56.7893 28.9905Z" fill="#F8F8F8"/>
<path d="M86.0571 29.2346C84.3422 29.1524 82.6262 29.0748 80.9113 28.988C80.1378 28.9486 79.3783 29.0146 78.6337 29.2334C78.3686 28.6452 77.8267 28.8108 77.3809 28.8154C73.8608 28.8467 70.3442 28.9602 66.8485 29.4233C66.6678 29.4476 66.4826 29.4326 66.3008 29.436C69.7502 28.1636 73.3756 27.7363 76.9837 27.2524C79.1362 26.9641 81.3108 26.8738 83.4773 26.714C84.7139 26.6225 85.4504 26.9502 85.7178 28.1902C85.7931 28.5468 85.9413 28.8872 86.0571 29.2346Z" fill="#BEBEBE"/>
<path d="M50.2565 60.979C51.1284 60.9292 51.3102 61.2789 50.9269 62.0419C49.5919 64.6933 47.4462 66.3247 44.5098 66.4856C42.0515 66.6211 39.6674 66.9036 37.3469 67.7222C37.054 67.8252 36.7078 68.0672 36.438 67.7106C36.2388 67.4454 36.1022 67.1074 36.1925 66.7727C36.3117 66.3316 36.7344 66.4451 37.0331 66.4439C41.3927 66.4289 45.0239 64.6157 48.2973 61.9087C48.8739 61.4317 49.4784 61.0149 50.2565 60.979Z" fill="#CD9365"/>
<path d="M22.1624 38.3281C21.4526 38.0097 20.7937 37.5165 19.945 37.6624C19.3209 37.073 19.256 36.2938 19.5895 35.6292C20.4047 34.0094 20.1835 32.2414 20.4857 30.5533C20.5668 30.0995 20.3259 29.5703 20.8099 29.2137C20.8215 27.1968 20.8968 25.1776 20.6478 23.1676C21.3831 23.8877 21.1666 22.8434 21.4537 22.7322C22.0686 23.8113 21.866 25.0351 22.0188 26.1883C22.1439 27.1343 22.0281 28.1138 22.1531 29.0065C22.2133 28.8166 22.0269 28.4669 22.3963 28.3095C22.7159 31.6579 22.5734 34.9959 22.1624 38.3281Z" fill="#EFC495"/>
<path d="M27.9849 26.3049C26.7424 26.4589 25.5012 26.6164 24.2587 26.7646C23.8453 26.8132 23.4493 26.8757 23.227 27.2891C23.0059 26.9255 23.0383 26.5214 23.0441 26.122C23.2085 25.7908 23.3856 25.4921 23.7631 25.3358C26.761 24.0993 29.775 22.9426 33.1214 23.4763C33.8486 23.5921 34.6834 23.5169 35.0725 24.3806C34.8999 24.4848 34.7274 24.589 34.4507 24.7569C35.4465 24.8773 36.3265 24.9838 37.2065 25.0904C37.2042 25.1818 37.2007 25.2744 37.1984 25.3659C35.67 25.4829 34.1427 25.5986 32.6142 25.7156C31.6798 26.1081 30.6643 25.8893 29.7055 26.0977C29.1277 26.1197 28.5476 26.1428 27.9849 26.3049Z" fill="#EFC495"/>
<path d="M35.071 24.3836C33.1176 23.5396 31.1052 23.7989 29.117 24.1521C27.0096 24.5272 25.0759 25.4905 23.0426 26.125C22.6721 24.6997 22.6767 24.7136 24.0049 24.3489C25.9513 23.8151 27.8665 23.1633 29.8766 22.8773C31.7571 22.6087 33.5403 22.8287 35.181 23.8395C35.3327 23.9332 35.6685 23.9749 35.4798 24.2794C35.4265 24.3663 35.2123 24.3524 35.071 24.3836Z" fill="#F9F9F9"/>
<path d="M3.53125 59.844C3.64704 59.0208 4.99369 58.905 4.56527 57.7229C5.27275 58.4292 5.90497 58.8645 6.86257 58.3539C6.43414 59.2003 6.13077 59.9367 7.10689 60.8131C6.01497 60.6221 5.20328 60.5908 4.75285 61.4453C4.23874 61.0679 4.79917 60.1925 3.95968 60.0814C3.81841 60.0027 3.67483 59.9239 3.53125 59.844Z" fill="#F5F5F5"/>
<path d="M23.044 68.0361C23.2142 68.0894 23.484 68.1658 23.3068 68.3719C22.7093 69.0643 22.9838 69.7068 23.5118 70.5358C22.4569 70.1387 21.7309 70.3726 21.0709 71.4297C21.1577 70.2012 20.7872 69.5691 19.7578 69.275C20.8138 69.1418 20.8509 68.0998 21.4912 67.6262C21.8837 68.2353 22.4013 68.3719 23.044 68.0361Z" fill="#F6F6F6"/>
<path d="M65.2582 37.6116C64.2775 37.9265 63.0987 37.9891 63.0802 39.5312C62.9864 39.492 62.8925 39.4514 62.7987 39.412C62.7096 37.8709 62.6204 36.3299 62.5312 34.7888C63.6058 35.5692 64.6862 36.3449 65.2582 37.6116Z" fill="#EFC495"/>
<path d="M39.4653 68.0422C39.6494 68.0931 40.0466 68.0931 39.8219 68.3745C39.2592 69.0761 39.5209 69.7048 39.9968 70.5141C38.9998 70.1888 38.2761 70.3254 37.6265 71.4844C37.7284 70.1668 37.0777 69.684 36.4258 69.2011C37.5246 69.0367 38.378 68.2332 39.4653 68.0422Z" fill="#F1F1F1"/>
<path d="M38.8055 63.3789C38.7337 64.2067 39.1621 64.5413 39.9414 64.5274C40.0155 64.6421 39.9785 64.6953 39.8476 64.6953C38.8947 64.6444 37.9405 64.5853 36.9876 64.5436C35.6189 64.4846 35.4545 64.1824 36.1562 62.9794C36.2674 62.4549 36.7178 62.3299 37.1265 62.1527C38.2949 62.1898 38.7187 62.4989 38.8055 63.3789Z" fill="#EFC495"/>
<path d="M24.4292 84.0144C24.3667 83.8628 24.0865 83.6404 24.3042 83.5652C25.0765 83.2966 25.0962 82.6204 25.2409 81.8377C25.8801 82.5012 26.4903 83.006 27.4745 82.4699C27.2615 83.2838 26.7786 83.8778 27.3483 84.6246C27.6459 85.0159 27.0149 84.84 26.818 84.9453C26.0214 84.635 25.2247 84.3247 24.4292 84.0144Z" fill="#F4F4F4"/>
<path d="M30.5288 68.7659C31.418 68.9511 31.3671 69.8195 31.9194 70.5535C30.8981 70.2282 30.1455 70.2595 29.5758 71.3281C29.4299 70.2629 29.2087 69.4802 27.957 69.3934C28.4966 69.0657 28.7699 68.899 29.0432 68.7334C29.5387 68.745 30.0332 68.7554 30.5288 68.7659Z" fill="#F2F2F2"/>
<path d="M22.3996 28.3119C22.2919 29.1016 22.183 29.8912 22.0754 30.6797C22.0418 30.6785 22.0082 30.6774 21.9746 30.6751C21.8021 28.0283 21.6296 25.3803 21.457 22.7335C21.9063 22.0805 21.8982 22.722 21.9376 22.9304C22.2722 24.7076 22.4864 26.4976 22.3996 28.3119Z" fill="#EFEFEF"/>
<path d="M22.6271 48.375C22.6156 47.5425 22.6051 46.71 22.5936 45.8776C22.5866 45.3936 22.5774 44.9108 21.9671 44.7661C21.4461 44.1837 22.0158 43.5897 21.9706 42.99C21.9254 42.3937 22.0841 41.765 22.3724 41.2034C22.4511 40.8816 22.5287 40.5608 22.6075 40.239C22.8298 42.9552 22.9838 45.6657 22.6271 48.375Z" fill="#EFC495"/>
<path d="M37.3164 88.4397C37.4229 87.8898 37.5295 87.3398 37.6649 86.6382C38.3203 87.2981 38.8935 87.943 39.8453 87.2229C39.9553 87.8458 39.513 88.0993 39.4748 88.4791C38.7487 88.8762 38.0389 88.324 37.3164 88.4397Z" fill="#E9E9E9"/>
<path d="M58.3477 54.1562C59.142 52.5493 59.6515 50.7603 61.2193 49.6465C60.4643 51.2779 59.9965 53.0934 58.3477 54.1562Z" fill="#EFC495"/>
<path d="M42.5934 64.13C42.6698 64.1914 42.7451 64.2516 42.8215 64.3129C40.7384 65.6954 38.418 65.7475 36.0547 65.546C37.4361 65.0435 38.9321 65.3283 40.3285 64.9115C41.0511 64.5607 41.7424 64.1126 42.5934 64.13Z" fill="#EFC495"/>
<path d="M22.3699 41.2016C22.2356 42.3895 22.1001 43.5763 21.9658 44.7642C21.8755 45.1324 21.7863 45.4995 21.696 45.8676C21.6427 45.9232 21.5906 45.9417 21.5385 45.9221C21.4864 45.9024 21.4609 45.8827 21.4609 45.8642C21.586 43.9144 21.7886 41.9739 22.1314 40.0484C22.2113 40.4328 22.2912 40.8172 22.3699 41.2016Z" fill="#171717"/>
<path d="M42.591 64.1248C41.8592 64.4548 41.1564 64.8681 40.325 64.9062C40.1664 64.8356 38.6704 64.6909 38.5117 64.6203C39.0652 64.6145 39.3906 64.5891 39.9429 64.5266C41.4111 64.4247 42.5552 63.6432 43.6795 62.7493C43.5405 63.4035 43.0588 63.7589 42.591 64.1248Z" fill="#171717"/>
<path d="M56.7874 28.9889C57.1082 29.3421 57.4798 29.6571 57.6651 30.1156C57.1892 30.0971 56.9032 30.3332 56.7781 30.7812C55.7499 30.1793 56.0776 29.5829 56.7874 28.9889Z" fill="#CD9365"/>
<path d="M29.5381 25.9253C30.564 25.8547 31.5888 25.784 32.6147 25.7134C33.4426 25.7887 34.2705 25.8639 35.0984 25.938C33.3801 26.011 31.6629 26.0828 29.9446 26.1557C29.7176 26.2391 29.4883 26.3271 29.5381 25.9253Z" fill="#171717"/>
<path d="M75.4589 38.0749C74.3022 38.1999 73.2601 37.6685 72.1543 37.4948C71.6853 37.4219 71.2233 37.3084 70.7578 37.2135C70.8863 36.9831 71.1098 36.9298 71.3298 36.9854C72.7077 37.3408 74.154 37.4381 75.4589 38.0749Z" fill="#B24A57"/>
<path d="M28.6059 55.6314C28.6024 55.5631 28.5885 55.4958 28.5676 55.431C28.5016 55.2075 28.5966 55.1498 28.8004 55.2076C29.3238 55.7877 29.9583 56.2727 30.3427 56.9744C30.2038 57.118 30.066 57.2627 29.927 57.4062C29.487 56.8159 29.0459 56.2231 28.6059 55.6314Z" fill="#292929"/>
<path d="M37.0298 62.2989C36.7392 62.527 36.4485 62.7563 36.1579 62.9844C36.0085 62.9056 35.8603 62.8281 35.7109 62.7493C36.0502 62.483 36.3698 62.1808 36.8237 62.1148C36.9291 62.1345 36.9962 62.1982 37.0298 62.2989Z" fill="#171717"/>
<path d="M55.4451 50.9795C54.3671 51.5456 53.2289 52.0227 52.2273 52.7C50.6085 53.7953 48.7582 53.6795 46.9865 53.7976C45.685 53.8845 44.746 54.3395 43.9227 55.2762C43.2581 56.0322 42.7439 56.8774 42.2507 57.7435C41.8882 58.3803 42.0689 58.7172 42.803 58.7519C42.1279 59.1259 41.4251 58.8446 40.735 58.8318C39.2598 58.8052 37.7834 58.7751 36.3094 58.7114C35.9192 58.6941 35.5336 58.5505 35.082 58.3189C37.5079 58.0434 38.5118 56.1144 39.8908 54.5838C39.4045 54.1635 38.4909 54.813 38.4516 54.0118C38.4215 53.3912 39.2551 53.3796 39.7218 53.1319C40.6319 52.6502 41.3614 52.0123 41.762 51.0362C41.916 50.6622 42.0955 50.2952 42.2947 49.9432C43.0577 48.5967 43.4468 48.5145 44.7089 49.421C45.626 50.0798 46.6102 50.6576 47.7681 50.5163C50.3642 50.1991 52.9151 50.3461 55.4451 50.9795Z" fill="#DBA075"/>
<path d="M33.9319 52.5312C33.5128 52.3032 33.0982 52.0623 32.6721 51.8481C31.0082 51.0133 29.958 49.7698 30.0842 47.7819C29.4936 47.9023 29.628 48.4383 29.254 48.6884C28.4689 47.7124 28.4712 46.6379 28.785 45.5114C28.9274 44.9984 29.1092 44.4693 28.2049 44.8167C27.663 45.0251 27.7568 44.6292 27.8297 44.3525C27.971 43.8199 28.1146 43.2826 28.4457 42.8242C28.7248 42.4363 28.9807 42.1167 28.6681 41.5424C28.3647 40.9844 28.9761 40.7783 29.3767 40.681C30.0969 40.505 30.7315 40.7041 30.9457 41.4949C31.1298 42.1757 31.0638 42.8866 30.9341 43.579C30.7905 44.3466 30.7361 45.127 30.8577 45.8877C30.941 46.404 31.1495 46.1366 31.2641 45.8471C31.4227 45.3666 31.4331 44.8641 31.4783 44.3686C31.5107 44.0143 31.5594 43.6994 32.0434 43.8209C32.561 44.137 32.5042 44.789 32.8493 45.207C33.2325 45.7002 33.7582 45.9387 34.3592 46.0475C35.1408 46.5836 34.8038 47.1162 34.3604 47.6488C34.0593 47.9695 33.4908 47.3455 33.3252 47.8665C33.1665 48.3678 33.39 48.8586 33.6749 49.3345C33.9134 49.7328 34.4796 49.8626 34.512 50.4067C34.5977 50.6348 34.6857 50.8594 34.7367 51.0967C34.4611 51.5772 34.6209 52.2905 33.9319 52.5312Z" fill="#DBA075"/>
<path d="M30.1462 27.226C31.0887 26.9146 32.066 27.079 33.0259 27.0211C33.1348 27.2029 33.1244 27.4483 32.9704 27.5155C31.6005 28.1094 31.736 29.3483 31.6526 30.4992C31.4419 31.1719 31.3933 31.8168 31.604 32.5277C31.7592 33.0499 31.78 33.6925 31.2231 34.1185C30.8259 34.1834 30.4299 34.2887 30.0304 34.3026C29.5429 34.3189 29.1458 34.254 29.4075 33.5408C29.6367 32.9144 29.0149 32.4837 28.8401 31.9395C28.6108 31.2251 27.7644 30.4228 29.1342 29.9446C29.1238 28.9095 29.8417 28.1453 30.1462 27.226Z" fill="#DBA075"/>
<path d="M33.9451 47.4349C34.1964 47.0505 34.538 46.6638 33.9139 46.3037C33.6371 45.9749 33.3245 45.6553 33.5827 45.1702C34.0331 44.6295 33.3998 44.0865 33.5827 43.5446C33.6487 43.3906 33.6348 43.2146 33.717 43.0641C34.4326 42.6149 34.4164 41.5601 35.2501 41.2093C36.5562 41.6064 36.5713 41.6145 35.9425 42.7619C35.7086 43.1891 35.7318 43.6071 35.8395 44.0367C36.2436 45.6623 35.5998 47.1142 35.0834 48.5823C35.0243 48.7513 34.7557 48.8474 34.5843 48.9771C34.4708 49.0848 34.34 49.1658 34.1941 49.2214C33.563 49.3488 33.3801 48.866 33.3175 48.4445C33.2527 48.0126 33.3094 47.5032 33.9451 47.4349Z" fill="#F4CEA2"/>
<path d="M44.8143 39.6886C44.8769 40.2618 45.1293 40.8245 44.8444 41.4115C44.636 41.8422 44.995 42.0853 45.2242 42.3551C46.5605 43.9251 48.0021 45.3747 49.8374 46.3774C50.0354 46.4851 50.487 46.5337 50.1523 46.9609C49.0963 46.7143 48.141 46.228 47.327 45.5403C45.7465 44.2042 43.8753 43.4562 41.9809 42.7395C41.6278 42.6064 41.2306 42.5415 41.1542 42.0714C41.0453 41.5099 41.2931 41.1544 41.8014 40.9518C42.6861 40.8465 42.6722 39.941 43.1319 39.4513C43.7352 39.2394 44.4079 38.5181 44.8143 39.6886Z" fill="#1E1E1E"/>
<path d="M44.8161 39.6831C44.2498 39.4689 43.7357 39.6437 43.2332 39.8984C42.1795 39.7919 42.4701 39.1123 42.8534 38.6931C43.9036 37.5446 44.1248 36.418 43.195 35.0923C42.7457 34.4509 43.5007 34.2899 43.7925 33.9565C43.9036 33.7006 44.0924 33.5825 44.3737 33.6323C44.5185 33.7909 44.6632 33.9495 44.808 34.1082C44.8126 35.156 45.2422 35.7858 46.2982 36.1957C47.4538 36.6438 47.5557 37.6303 46.1245 38.3238C45.6335 38.7232 45.0581 39.044 44.8161 39.6831Z" fill="#171717"/>
<path d="M48.7734 35.2148C49.3188 34.1635 49.7542 33.0763 49.8897 31.8872C49.9591 31.2747 50.2776 30.8776 50.9677 30.6981C50.7685 31.3986 50.5763 32.0423 50.4038 32.693C50.0865 33.8891 49.6291 35.0886 50.42 36.2834C50.4756 36.368 50.501 36.5081 50.4756 36.6042C49.7345 39.4293 50.9654 41.9707 51.5107 44.6406C50.1259 42.5901 49.9082 40.0522 48.8012 37.887C49.7658 36.9851 49.0363 36.1028 48.7734 35.2148Z" fill="#242424"/>
<path d="M53.5012 34.1199C52.3167 36.5143 52.8956 38.7871 54.1496 41.0703C52.4649 40.6361 51.7527 39.7411 51.8396 38.2869C51.9195 36.945 51.7747 35.6309 51.4297 34.3364C52.1036 33.695 53.1214 33.5896 53.5012 34.1199Z" fill="#161616"/>
<path d="M31.2248 34.119C31.1646 32.7945 31.1032 31.4699 31.043 30.1454C31.3394 29.974 31.6717 29.9867 31.7609 30.3167C31.9612 31.0542 32.5239 31.199 33.1411 31.3101C34.5063 31.7466 34.5098 31.7466 34.519 33.2205C34.5213 33.5193 34.5897 33.7971 34.6927 34.0727C34.7309 34.1769 34.7576 34.2846 34.7772 34.3946C34.5433 34.9492 34.5954 35.5698 34.3801 36.1301C34.013 36.3015 33.624 36.2992 33.2326 36.2807C33.0288 36.1267 32.8111 35.9345 32.7787 35.6994C32.6559 34.8068 32.0724 34.5648 31.2919 34.5532C31.2699 34.4096 31.2468 34.2649 31.2248 34.119Z" fill="#171717"/>
<path d="M40.1473 42.5234C38.994 42.058 38.3387 41.1838 38.1094 39.9843C37.8303 38.5185 37.8408 38.5185 36.2764 38.7188C36.1039 38.7408 35.9267 38.7223 35.7461 38.6274C36.9839 38.2256 38.224 37.9118 39.5359 38.3147C40.3094 38.5521 41.0852 38.7895 41.9085 38.7732C42.3207 39.3962 42.3126 40.0214 41.9247 40.6512C41.714 40.8307 41.4812 40.8666 41.23 40.7508C40.8722 40.5227 40.5827 39.901 40.064 40.4116C39.6019 40.8666 40.0327 41.2626 40.2932 41.6423C40.4657 41.9735 40.5491 42.2896 40.1473 42.5234Z" fill="#DBA075"/>
<path d="M41.6744 40.6357C41.6952 40.007 41.6512 39.3713 41.9083 38.7727C43.3533 37.9101 43.857 36.9005 43.1218 35.7554C42.4617 34.7261 42.8659 34.2908 43.7042 33.8566C43.7818 33.8114 43.8489 33.8219 43.908 33.8902C43.5108 34.3278 43.3151 34.6833 43.732 35.3282C44.4267 36.4027 44.3607 37.5489 43.4228 38.5284C43.0164 38.9533 42.9122 39.3922 43.2318 39.9039C43.2445 39.9769 43.2607 40.0486 43.2711 40.1216C43.3371 40.5789 44.3214 40.6785 43.8663 41.2331C43.4043 41.7958 42.7188 41.4566 42.1387 41.2099C41.8654 41.1127 41.5945 41.0166 41.6744 40.6357Z" fill="#CD9365"/>
<path d="M37.0264 62.2937C36.9581 62.2324 36.8886 62.171 36.8203 62.1096C37.4792 61.5712 38.1461 61.298 39.0366 61.6558C39.9722 62.032 40.7202 61.4416 41.4554 60.9356C41.7056 60.7631 42.0402 60.3625 42.2961 60.6681C42.6041 61.0375 42.0182 61.1509 41.8642 61.4022C41.694 61.6812 41.4821 61.9394 41.3443 62.2335C40.8302 63.3346 39.9884 63.7236 38.805 63.3774C38.2121 63.0162 37.6193 62.655 37.0264 62.2937Z" fill="#191919"/>
<path d="M40.1475 42.5203C40.0688 42.2355 39.9889 41.9495 39.9102 41.6647C39.9611 41.5512 40.0433 41.4713 40.1579 41.4239C40.7647 41.3011 41.1804 41.564 41.4745 42.0734C44.719 43.0784 47.2895 45.2783 50.1542 46.9594C49.2684 46.9837 48.4509 46.7163 47.7863 46.1651C45.5411 44.3057 42.8304 43.4477 40.1475 42.5203Z" fill="#CD9365"/>
<path d="M31.294 34.5548C31.4306 34.2538 31.5128 33.9065 31.7166 33.6633C32.1045 33.2013 32.5607 33.1087 32.7703 33.8138C33.0089 34.6162 33.4072 35.4 33.2347 36.2823C33.0285 36.2835 32.8224 36.2846 32.6175 36.2858C32.1543 36.302 31.6483 36.7165 31.2477 36.1411C30.2797 36.1028 29.2873 36.2383 28.3008 35.7972C29.3151 35.2715 30.7405 35.9732 31.294 34.5548Z" fill="#171717"/>
<path d="M31.4653 41.8517C31.5128 39.6333 31.2604 39.3451 29.0268 39.0625C28.8543 39.0405 28.6852 38.9977 28.332 38.9306C29.1553 38.5079 29.8605 38.6156 30.5448 38.5855C31.617 38.4813 32.4334 38.8101 32.7935 39.9124C32.8074 39.9633 32.8201 40.0143 32.8305 40.0664C33.5693 41.2277 32.8687 42.2906 32.57 43.3673C32.4901 43.6545 32.1462 43.8351 31.7838 43.7402C31.4271 43.6464 31.3565 43.3604 31.3727 43.0501C31.3959 42.6495 31.2754 42.2385 31.4653 41.8517Z" fill="#171717"/>
<path d="M43.908 33.8906C43.842 33.8686 43.7737 33.8582 43.7042 33.857C43.3337 33.497 42.8612 33.5039 42.3934 33.4935C42.0333 33.5444 41.7832 33.4136 41.6697 33.0558C41.6489 32.7212 41.8133 32.492 42.0935 32.338C43.5016 31.568 44.9455 30.8641 46.2736 29.9529C46.4183 29.8533 46.6557 29.7502 46.8699 29.8973C47.0309 30.0154 47.1038 30.1636 47.0332 30.3604C46.0235 31.3527 44.9652 32.3056 44.3712 33.6359C44.2172 33.7204 44.0631 33.8061 43.908 33.8906Z" fill="#1F1F1F"/>
<path d="M34.1755 43.2482C34.1546 43.3744 34.1349 43.5006 34.1141 43.6257C33.9543 44.252 33.7111 44.8437 33.395 45.4076C33.1357 45.6252 32.8682 45.6136 32.5949 45.4377C32.0773 45.1401 32.075 44.5809 31.9141 44.1015C32.9099 43.3073 32.9492 42.1483 33.065 41.0275C33.0905 40.782 32.977 40.5181 33.2468 40.3432C33.7783 40.4787 34.3086 40.6142 34.8401 40.7496C34.7232 41.611 34.3329 42.3984 34.1755 43.2482Z" fill="#171717"/>
<path d="M49.6839 26.7795C50.0487 26.7888 50.4134 26.7992 50.7782 26.8084C50.7145 27.6479 51.019 28.6529 49.8043 28.9736C49.5276 28.8277 49.2671 29.0511 48.9927 29.0106C48.4218 28.9029 47.7942 29.1611 47.2731 28.7385C46.9292 28.0334 47.47 27.737 47.9042 27.4163C48.4287 27.0284 49.0147 26.7772 49.6839 26.7795Z" fill="#CD9365"/>
<path d="M33.2501 40.3382C33.4388 41.1301 33.3404 41.9384 33.2721 42.7234C33.2072 43.4667 32.8749 44.1416 31.9162 44.0965C31.4727 44.5944 31.6915 45.3389 31.2677 45.8438C31.3604 44.5122 31.0396 43.161 31.4669 41.8457C31.4715 41.9557 31.4634 42.068 31.4843 42.1745C31.563 42.5763 31.2955 43.2722 31.8154 43.3046C32.4291 43.3417 31.9347 42.6007 32.1188 42.3749C32.6838 41.6802 32.8981 40.9252 32.8321 40.0603C32.971 40.1518 33.11 40.2456 33.2501 40.3382Z" fill="#171717"/>
<path d="M32.7916 39.9062C32.1293 39.317 31.3917 38.8538 30.543 38.5794C31.7715 38.0514 31.071 36.969 31.2447 36.1376C31.7159 36.0473 32.1814 36.0056 32.6145 36.2835C31.9962 37.5235 32.6515 38.7021 32.7916 39.9062Z" fill="#DBA075"/>
<path d="M48.7757 35.217C49.4114 35.0398 49.768 35.2714 49.8514 35.9348C49.9602 36.7974 49.9649 37.6438 49.6094 38.5469C49.2933 38.2887 49.049 38.0895 48.8035 37.8892C48.4677 37.0012 48.4955 36.1108 48.7757 35.217Z" fill="#CD9365"/>
<path d="M46.1235 38.3281C46.9121 37.1518 46.9329 36.97 45.7113 36.339C44.6854 35.8099 44.8024 34.9751 44.807 34.1125C45.0988 34.7504 45.1694 35.5262 46.1143 35.6767C46.8762 35.7983 47.6694 36.0356 47.6601 37.0592C47.6497 38.0688 46.772 38.0699 46.1235 38.3281Z" fill="#CD9365"/>
<path d="M36.3491 43.5127C38.1277 45.0792 37.8208 47.8742 35.6914 49.2266C37.1585 47.4516 37.1319 45.5331 36.3491 43.5127Z" fill="#171717"/>
<path d="M34.376 49.0027C34.442 48.9726 34.5115 48.9645 34.5833 48.9784C34.9862 50.245 35.3475 51.5291 36.3225 52.7969C35.6358 52.6996 35.4992 52.328 35.2873 52.086C34.8809 51.6228 34.7651 52.0732 34.5671 52.2851C33.8862 52.0188 34.4872 51.3519 34.1583 50.9768C34.1375 50.7637 34.1167 50.5495 34.0958 50.3365C33.8156 49.8132 33.6558 49.3153 34.376 49.0027Z" fill="#171717"/>
<path d="M41.9057 32.9984C42.0678 33.1628 42.2311 33.3272 42.3932 33.4916C41.373 34.0763 40.4282 34.815 39.2367 35.0547C39.1174 34.9968 39.0132 34.9181 38.9252 34.8173C38.7538 34.6182 38.6149 34.4017 38.6878 34.1261C38.8951 33.3538 41.1878 32.5526 41.9057 32.9984Z" fill="#171717"/>
<path d="M53.5019 34.1176C53.1441 33.7505 52.8291 34.0678 52.5466 34.2195C52.1737 34.4186 51.8148 34.4255 51.4292 34.3341C51.2914 34.0863 51.0355 33.761 51.5253 33.6764C52.3162 33.5398 53.0132 33.1647 53.7913 32.8301C53.9291 33.3777 53.6825 33.7401 53.5019 34.1176Z" fill="#CD9365"/>
<path d="M34.1765 43.2422C34.2147 42.3599 33.6566 41.3202 34.8423 40.7436C34.9789 40.8987 35.1156 41.0527 35.2511 41.2079C35.2707 42.0855 34.5355 42.5649 34.1765 43.2422Z" fill="#171717"/>
<path d="M34.3829 36.1328C34.0355 35.5493 34.0505 34.9553 34.3296 34.3544C35.1262 34.4667 35.8129 34.8164 36.4289 35.3212C36.4532 35.4346 36.4219 35.5296 36.3328 35.606C35.6832 35.782 35.0324 35.9568 34.3829 36.1328Z" fill="#171717"/>
<path d="M49.2495 28.7998C49.4348 28.8577 49.6189 28.9144 49.8041 28.9723C48.7747 29.2236 47.9862 29.9541 47.0332 30.3594C46.9476 30.2737 46.8619 30.188 46.7773 30.1023C46.7773 29.2594 47.4258 29.1367 48.0348 28.9503C48.4343 28.8276 48.8651 29.007 49.2495 28.7998Z" fill="#4F4F4F"/>
<path d="M36.332 35.6016C36.3355 35.5471 36.3448 35.4927 36.361 35.4406C36.3529 34.3835 37.2445 34.754 37.7736 34.5503C38.2692 34.5375 38.781 34.431 39.2268 34.7633C39.2303 34.8594 39.2338 34.9543 39.2384 35.0504C38.2692 35.2345 37.3 35.4175 36.332 35.6016Z" fill="#171717"/>
<path d="M34.1594 50.9795C34.296 51.416 34.4315 51.8525 34.5681 52.289C34.4859 52.6155 34.501 53.0567 34.0679 53.0856C33.8896 53.0984 33.9556 52.7313 33.9336 52.531C34.2404 52.0482 34.1165 51.5017 34.1594 50.9795Z" fill="#171717"/>
<path d="M28.8035 55.2062C28.7259 55.2803 28.6483 55.3556 28.5707 55.4297C28.243 55.0627 27.7845 54.7663 27.8853 54.1665C28.1909 54.5138 28.4966 54.86 28.8035 55.2062Z" fill="#5B5B5B"/>
<path d="M27.4534 72.901C26.8385 73.7833 27.0261 74.5139 27.6629 75.4332C26.5896 75.0175 25.8682 75.1541 25.2753 76.1719C25.1896 75.0997 24.877 74.3819 23.6172 74.1283C24.767 73.7775 25.2881 73.2542 25.1572 72.1241C25.8879 72.747 26.4054 73.5193 27.4534 72.901Z" fill="#F3F3F3"/>
<path d="M11.2812 69.2829C12.1625 68.88 12.9938 68.5895 12.511 67.1908C13.4153 67.9202 13.9942 68.6693 15.0155 67.9851C14.645 68.8685 14.1714 69.6001 15.1024 70.3724C14.1425 70.2219 13.3724 70.2926 12.8062 71.1562C12.8143 70.1247 12.284 69.5793 11.2812 69.2829Z" fill="#F5F5F5"/>
<path d="M37.7493 80.9453C37.4112 79.5814 37.4112 79.5814 36.3633 78.9191C37.1981 78.5915 37.6879 78.0369 37.5895 76.8987C38.2993 77.6988 38.9176 78.192 40.0547 77.5216C39.5093 78.5162 39.1967 79.2862 40.2284 80.2414C39.0415 79.8685 38.2958 79.9565 37.7493 80.9453Z" fill="#F5F5F5"/>
<path d="M36.1021 72.7769C35.2847 73.7251 35.2418 74.4511 36.0327 75.3021C35.0102 75.1574 34.1499 74.9629 33.667 76.0547C33.608 75.0173 33.2016 74.4129 32.1328 74.1663C32.9839 73.7159 33.7747 73.3778 33.5513 72.2281C34.2124 72.917 34.9188 73.2782 36.1021 72.7769Z" fill="#F6F6F6"/>
<path d="M16.9316 72.2225C17.4828 73.1094 18.1949 73.1603 19.2208 72.8142C18.6175 73.7173 18.4473 74.4791 19.3215 75.3185C18.3142 75.2004 17.4469 74.8867 17.0231 76.2656C16.6838 75.2108 16.7209 74.2475 15.5039 74.2232C16.3446 73.7416 16.9582 73.2344 16.9316 72.2225Z" fill="#F7F7F7"/>
<path d="M28.2109 78.9519C29.1685 78.6416 29.4812 77.9631 29.531 76.8539C30.1296 77.8728 30.8394 78.0476 31.8422 77.6505C31.4276 78.5327 30.8591 79.2656 32.0981 80.0819C30.9656 80.0668 30.0636 79.7079 29.6606 80.875C29.4314 79.9661 29.2322 79.195 28.2109 78.9519Z" fill="#F7F7F7"/>
<path d="M19.8438 78.9435C20.6682 78.5695 21.2298 78.1121 21.0028 76.9242C21.7682 77.6259 22.3819 78.2279 23.5942 77.4939C22.9122 78.5371 22.7189 79.2908 23.5583 80.165C22.5127 79.9566 21.6998 79.8304 21.2169 80.8828C21.1475 79.879 20.7689 79.2572 19.8438 78.9435Z" fill="#F5F5F5"/>
<path d="M35.8805 82.5671C35.1892 83.4494 35.3595 84.1475 35.9743 84.9707C34.9889 84.7438 34.2015 84.7253 33.6689 85.875C33.4894 84.8075 33.4003 83.9229 32.1914 83.8419C33.0737 83.403 33.7245 82.9712 33.4767 81.7751C34.2629 82.427 34.85 83.1587 35.8805 82.5671Z" fill="#F6F6F6"/>
<path d="M11.0451 63.1935C10.6491 63.9345 10.0991 64.6663 11.2361 65.7037C10.0296 65.3366 9.29779 65.5531 8.61694 66.6172C8.76399 65.3343 8.29851 64.7658 7.20312 64.4741C8.18852 64.0792 8.82768 63.6346 8.68757 62.5625C9.35453 63.4285 10.1593 63.5096 11.052 63.2004L11.0451 63.1935Z" fill="#F6F6F6"/>
<path d="M5.94011 50.9511C5.31484 50.8886 5.19441 51.618 4.6143 51.7812C4.56335 50.9025 4.23219 50.2194 2.94922 50.0168C4.11408 49.6475 4.62472 49.0709 4.60156 48.1249C5.97253 48.7154 6.08369 49.7795 5.93316 50.9604L5.94011 50.9511Z" fill="#EFEFEF"/>
<path d="M76.8781 19.6252C76.8433 19.8973 76.8491 20.1613 76.8815 20.4195C76.9163 20.7089 76.9834 20.9914 77.0633 21.2705C77.2185 21.8251 77.42 22.3692 77.508 22.9354C77.5983 23.5201 77.5531 24.055 77.0656 24.282C77.0552 24.2866 77.0378 24.2947 77.017 24.3028C77.0008 24.3097 76.9846 24.3155 76.9672 24.3225H76.9661C76.9302 24.3341 76.8931 24.3456 76.8537 24.3549C76.8445 24.3584 76.8352 24.3595 76.8271 24.3607C76.7356 24.3804 76.6349 24.392 76.5214 24.3966C75.8139 24.5795 75.3704 24.3213 75.3403 23.5815C75.3102 22.8497 74.8008 22.3426 74.5703 21.7058C74.5043 21.5923 74.4569 21.4742 74.4233 21.348C74.15 20.526 74.355 19.8324 74.9768 19.2501C75.4145 19.2107 75.8521 19.1609 76.291 19.1343C76.6303 19.1146 76.9221 19.2674 76.8781 19.6252Z" fill="#AE4260"/>
<path d="M75.0048 21.7652C74.4247 22.1462 74.1143 21.5522 73.6836 21.3971C73.6917 20.9988 73.7311 20.5982 73.7033 20.2033C73.6477 19.4264 74.0043 19.1439 74.7408 19.2586C75.0812 19.9602 74.662 20.744 74.9747 21.4492C74.9839 21.5545 74.9943 21.6599 75.0048 21.7652Z" fill="#AE4260"/>
<path d="M74.0469 22.7973C74.4961 23.3276 74.1557 24.3592 75.1515 24.5433C73.4969 24.7748 74.2831 23.4619 74.0469 22.7973Z" fill="#0B1834"/>
<path d="M74.9723 22.5938C74.6074 21.5309 74.8402 20.3718 74.7383 19.2661C74.8182 19.2591 74.8981 19.2533 74.9781 19.2464C74.9757 20.3625 74.9734 21.4787 74.9723 22.5938Z" fill="#FEFEFE"/>
<path d="M74.236 22.5938C73.8711 21.5309 74.1097 20.4401 74.0078 19.3344C74.0738 19.3008 74.1619 19.2522 74.2406 19.2452C74.2395 20.3625 74.2383 21.4787 74.236 22.5938Z" fill="#FEFEFE"/>
<path d="M75.7105 23C75.3457 21.7912 75.5785 20.4713 75.4766 19.2128C75.5565 19.2046 75.6364 19.1977 75.7163 19.1896C75.714 20.4597 75.7117 21.7299 75.7105 23Z" fill="#FEFEFE"/>
<path d="M76.3121 24.4531C75.9472 22.7639 76.1801 20.9206 76.0781 19.1642C76.158 19.1538 76.238 19.1433 76.3179 19.1329C76.3156 20.9067 76.3133 22.6793 76.3121 24.4531Z" fill="#FEFEFE"/>
<path d="M76.8826 20.4181C76.9173 20.7076 76.9845 20.9901 77.0644 21.2691C77.0656 22.2649 77.0656 23.2548 77.0667 24.2806C77.0563 24.2853 77.0389 24.2934 77.0181 24.3015C77.0019 24.3084 76.9856 24.3142 76.9683 24.3212H76.9671C76.9312 24.3351 76.8918 24.3466 76.8548 24.3536C76.8455 24.3571 76.8362 24.3582 76.8281 24.3594C76.9034 23.0603 76.7957 21.7149 76.8826 20.4181Z" fill="#FEFEFE"/>
<path d="M19.9262 38.7463C20.0721 39.0288 20.3558 39.3102 20.0154 39.6274C19.1863 40.402 19.2431 41.4058 19.323 42.39C19.4029 43.3834 18.9802 44.0735 18.3654 44.8318C17.5155 45.8797 16.9655 47.1452 16.8358 48.5369C16.5428 49.2478 16.2001 49.9309 15.708 50.5283C14.7677 50.8178 14.4759 51.7383 13.9317 52.3982C13.1559 53.3372 12.4762 54.3561 11.6078 55.2175C10.788 56.0315 10.2588 55.9192 9.80955 54.8331C9.13101 53.1902 9.35565 51.4754 9.54439 49.7989C9.77366 47.7681 9.80029 45.7384 9.73197 43.7099C9.5525 38.3665 10.6791 33.2906 12.6835 28.3734C13.2636 26.9504 13.7997 25.5089 14.4574 24.1079C14.1297 26.2418 13.7268 28.3514 12.9776 30.3961C14.0267 29.4386 14.5697 28.1661 15.29 26.9921C14.953 28.8539 14.3879 30.6427 13.6006 32.7106C14.5732 31.7994 14.8059 30.7538 15.6674 29.7975C15.5702 32.0066 14.5964 33.6831 14.0521 35.7869C15.686 33.7781 16.5069 31.6674 17.4877 29.6203C17.5074 31.041 17.0152 32.3644 16.6389 33.697C16.2568 35.0459 15.8099 36.3832 15.2807 37.68C14.7457 38.9941 14.0753 40.2526 13.3458 41.7833C14.4505 41.0122 14.887 39.9875 15.7624 39.3275C15.2807 41.5679 14.4065 43.6613 13.4906 45.75C14.5859 44.701 15.1325 43.3324 15.7798 42.0299C17.248 39.0751 17.7007 35.8703 18.1905 32.6504C18.7185 29.1815 19.0705 25.7011 19.389 22.1964C19.9274 24.1369 20.0467 26.1283 20.1717 28.1198C20.8294 31.0063 20.3211 33.8626 19.9506 36.7213C19.8637 37.3974 19.6217 38.0678 19.9262 38.7463Z" fill="#EFC495"/>
<path d="M19.9277 38.75C19.4124 38.7419 19.5653 38.3772 19.6139 38.1132C20.216 34.8065 20.1871 31.465 20.1732 28.1246C20.3955 28.4836 20.4372 28.9479 20.8123 29.2153C20.8934 32.0694 20.4129 34.8655 19.9462 37.664C19.9404 38.0264 19.9346 38.3888 19.9277 38.75Z" fill="#EFEFEF"/>
<path d="M20.5416 50.0899C19.7183 50.2022 18.6357 50.6503 18.2396 49.7229C17.9131 48.9576 18.77 48.271 19.4427 47.8102C19.9302 47.4767 20.1247 46.4173 20.5775 46.6628C21.2769 47.0414 20.2185 47.5855 20.288 48.1656C20.3332 48.5477 20.4582 48.8765 20.6145 49.21C20.5891 49.5029 20.5647 49.7958 20.5416 50.0899Z" fill="#EFC495"/>
<path d="M25.0938 62.9609C23.5792 62.2801 22.8717 60.2806 23.5433 58.3748C24.1651 59.5083 23.9277 60.8259 24.5912 61.8541C24.7591 62.2234 24.9259 62.5916 25.0938 62.9609Z" fill="#F1F1F1"/>
<path d="M25.2685 61.846C24.9871 60.9869 24.6108 60.1417 25.0207 59.1773C25.184 60.3988 26.1786 61.3771 25.9459 62.7109C25.7201 62.4226 25.4943 62.1343 25.2685 61.846Z" fill="#F3F3F3"/>
<path d="M27.7421 61.625C26.6618 61.2452 26.8111 60.1893 26.6328 59.3093C26.986 60.0075 27.3403 60.7068 27.6935 61.405C27.7097 61.4791 27.7259 61.5521 27.7421 61.625Z" fill="#EAEAEA"/>
<path d="M21.4622 47.3978C21.4634 47.5529 21.4634 47.7081 21.4646 47.8632C21.1403 48.2511 21.409 48.94 20.793 49.1797C20.8972 48.5035 20.947 47.8158 21.2318 47.1801C21.3986 47.1581 21.3881 47.3225 21.4622 47.3978Z" fill="#171717"/>
<path d="M21.4648 47.3984C21.3884 47.3255 21.3108 47.2525 21.2344 47.1796C21.2761 46.7362 21.2135 46.2753 21.4636 45.8689C21.5424 45.8701 21.6211 45.8713 21.6987 45.8724C21.6211 46.3807 21.5435 46.8902 21.4648 47.3984Z" fill="#171717"/>
<path d="M29.9966 61.7188C29.0147 61.002 28.8039 59.9959 28.9325 58.8636C29.2868 59.8153 29.6411 60.767 29.9966 61.7188Z" fill="#EDEDED"/>
<path d="M37.8922 34.9809C37.3815 35.1361 36.8709 35.2901 36.3614 35.4452C35.4189 35.5761 34.6871 35.3132 34.3281 34.3546C34.3316 34.277 34.3362 34.2006 34.3397 34.123C34.3895 33.6992 34.635 33.4109 34.9823 33.1933C35.2151 33.0543 35.486 33.1342 35.7292 33.0589C36.2989 32.5599 36.6578 31.9324 36.7528 31.196C36.8489 30.455 36.681 29.7997 35.845 29.5438C35.5787 29.3782 35.3135 29.5889 35.046 29.5473C34.701 29.4766 34.5273 29.2439 34.4485 28.9209C34.276 28.335 34.2054 27.7955 35.0287 27.6716C35.493 27.88 35.7929 27.513 36.1414 27.3428C37.7752 26.5473 39.4473 26.2127 41.293 26.4686C43.4907 26.772 45.7208 26.545 47.9371 26.5798C48.5253 26.589 49.1239 26.5172 49.6844 26.7766C48.9155 27.3381 48.0633 27.7943 47.4542 28.5562C47.5828 28.9718 47.2956 29.215 47.0316 29.4014C45.3503 30.5789 43.6447 31.7136 41.5987 32.1848C39.9498 32.5669 38.837 33.6645 37.8922 34.9809Z" fill="#EFC495"/>
<path d="M32.84 32.0781C31.7933 31.85 31.4367 30.9782 31.043 30.1434C31.1067 29.8609 31.256 29.5656 31.2201 29.2959C31.0302 27.888 31.5525 27.0867 33.0276 27.0207C33.3252 26.8957 33.6228 26.7765 33.9343 26.986C34.3268 28.1647 33.155 28.5595 32.7521 29.3387C32.9061 29.8354 32.3919 30.3518 32.7961 30.8427C33.0126 31.1414 33.1909 31.4483 33.0369 31.8361C32.9778 31.923 32.913 32.004 32.84 32.0781Z" fill="#171717"/>
<path d="M32.3582 29.2265C32.7322 28.3755 33.5925 27.8673 33.9318 26.9919C34.2143 27.3416 34.454 27.8152 35.0156 27.3775C35.0191 27.4771 35.0226 27.5755 35.026 27.6751C34.6231 27.9657 34.7146 28.3698 34.7771 28.7669C34.6103 29.4234 34.0071 29.5403 33.5103 29.7823C32.3107 30.1991 32.3107 30.1991 32.3582 29.2265Z" fill="#171717"/>
<path d="M29.5383 25.9279C29.6738 26.0044 29.8092 26.0819 29.9436 26.1583C29.3067 26.4235 28.6432 26.3355 27.9844 26.3054C28.4614 26.0136 28.9755 25.87 29.5383 25.9279Z" fill="#171717"/>
<path d="M40.0547 53.9922C41.3076 53.1493 42.2339 52.01 43.2355 50.9448C43.4821 50.682 43.7658 50.169 44.2139 50.484C44.6562 50.7943 44.6007 51.3292 44.3888 51.7935C44.031 52.5796 43.3443 52.9964 42.5963 53.3403C41.7973 53.7097 40.9764 53.9945 40.0547 53.9922Z" fill="#202020"/>
<path d="M34.3757 49.0033C34.1488 49.4189 34.1476 49.8832 34.0955 50.3359C32.9619 49.3946 32.7442 48.055 32.3945 46.6054C33.124 46.7004 33.6428 46.8532 33.945 47.4367C33.7725 48.0458 33.3301 48.73 34.3757 49.0033Z" fill="#171717"/>
<path d="M32.5938 45.4339C32.742 45.2868 32.8902 45.1386 33.0372 44.9916C33.3892 44.8191 33.7713 44.5273 33.9207 45.2023C34.0041 45.5705 34.2877 45.9398 33.9114 46.3045C33.0383 46.6716 32.6539 46.2999 32.5938 45.4339Z" fill="#171717"/>
<path d="M33.9226 45.2031C33.6528 45.0283 33.3505 44.9901 33.0391 44.9924C33.398 44.5362 33.7558 44.08 34.1148 43.6239C33.9642 44.1402 34.7562 44.7701 33.9226 45.2031Z" fill="#171717"/>
<path d="M41.472 42.0703C41.0296 41.9198 40.5885 41.7704 40.1462 41.6199C39.7745 40.6589 40.1543 40.2097 41.2554 40.3093C41.3944 40.4158 41.5333 40.5223 41.6723 40.63C41.8263 40.821 41.9814 41.0121 42.1354 41.2031C41.8124 41.4138 41.5692 41.6859 41.472 42.0703Z" fill="#171717"/>
<path d="M33.5408 29.4488C33.6207 28.6245 34.2344 28.7565 34.7763 28.7588C34.9326 28.9139 35.0901 29.0702 35.2464 29.2254C36.0929 29.4048 36.079 30.1794 36.2469 30.7722C36.6058 32.0377 36.1901 33.1319 35.2464 33.6622C34.9431 33.8138 34.6408 33.9655 34.3375 34.1172C33.6265 33.6077 33.7979 32.9513 34.0885 32.216C33.6497 32.1199 33.2073 32.3052 32.8368 32.0759C32.838 32.0076 32.838 31.9382 32.8368 31.8699C33.1286 31.4565 33.0811 31.0571 32.7847 30.668C32.5392 29.9537 33.432 29.9455 33.5408 29.4488Z" fill="#F4CEA2"/>
<path d="M41.2586 40.3129C40.7838 40.6614 40.323 41.0215 40.1493 41.6235C40.0694 41.6374 39.9906 41.6513 39.9108 41.6641C39.5009 41.3121 38.9728 41.0157 39.1477 40.3407C39.3017 39.7444 39.7313 39.4214 40.3218 39.3426C41.0443 39.2465 41.1103 39.8289 41.2586 40.3129Z" fill="#171717"/>
<path d="M37.8906 34.9766C38.1187 33.0106 39.5569 32.1897 41.1907 31.7184C43.4915 31.055 45.5908 30.0547 47.4515 28.553C48.0502 28.6328 48.6488 28.7139 49.2486 28.7949C48.4207 29.2233 47.4677 29.4121 46.7753 30.0975C45.1936 31.1337 43.7103 32.3344 41.9051 32.9932C41.0633 33.1403 40.3859 33.6705 39.6136 33.9785C39.2477 34.1244 39.1389 34.3953 39.2257 34.7635C38.7799 34.8353 38.3353 34.9059 37.8906 34.9766Z" fill="#CD9365"/>
<path d="M35.25 33.6634C36.4334 32.1849 35.8035 30.7063 35.25 29.2278C35.4052 28.9985 35.5615 28.7693 35.7166 28.5389C37.0042 29.4246 37.3586 31.21 36.5411 32.707C36.3465 33.0625 36.0976 33.3844 35.91 33.7444C35.653 34.0188 35.4538 33.8278 35.25 33.6634Z" fill="#DBA075"/>
<path d="M35.9082 33.75C36.1259 33.2093 36.3806 32.6813 36.5543 32.1267C36.977 30.7779 36.5381 29.6119 35.7148 28.5444C36.7778 28.8605 37.4274 30.2163 37.1298 31.5629C36.9434 32.4069 36.5428 33.1479 35.9082 33.75Z" fill="#171717"/>
<path d="M33.5425 29.4549C33.6919 29.6968 33.8413 29.9388 34.0068 30.2063C33.6514 30.3776 33.2287 30.1935 32.9844 30.5328C33.0041 30.9577 32.8443 31.1684 32.3916 31.026C31.5602 30.4402 32.3024 29.8265 32.3591 29.2256C32.6081 30.0523 33.1639 29.2939 33.5425 29.4549Z" fill="#171717"/>
<path d="M32.3906 31.024C32.5886 30.8596 32.7855 30.6952 32.9835 30.5308C33.4131 30.6222 33.8832 30.723 33.8195 31.2938C33.757 31.8565 33.2741 31.8634 32.8376 31.875C32.6095 31.6319 32.4462 31.3563 32.3906 31.024Z" fill="#171717"/>
<path d="M75.0048 21.7632C75.9068 21.9033 75.8165 22.6327 75.8697 23.2556C75.9126 23.7488 75.7945 24.3058 76.5251 24.3914C76.0828 24.5779 75.6185 24.5628 75.153 24.5443C74.3158 24.5732 74.0796 24.1263 74.1908 23.3668C74.2174 23.1804 74.2903 22.9372 74.0483 22.7983C73.8156 22.3595 73.7288 21.8824 73.6836 21.395C73.855 21.0905 74.1051 20.962 74.3436 21.2688C74.5289 21.5061 74.7477 21.6462 75.0048 21.7632Z" fill="#102564"/>
</g>
</g>
<defs>
<clipPath id="clip0_394_15600">
<rect width="90" height="90" fill="white" transform="matrix(0 -1 1 0 0 90)"/>
</clipPath>
</defs>
</svg>
