<svg width="90" height="90" viewBox="0 0 90 90" fill="none" xmlns="http://www.w3.org/2000/svg">
<g clip-path="url(#clip0_394_15742)">
<mask id="mask0_394_15742" style="mask-type:luminance" maskUnits="userSpaceOnUse" x="0" y="0" width="90" height="90">
<path d="M0 0L0 90H90V0H0Z" fill="white"/>
</mask>
<g mask="url(#mask0_394_15742)">
<path d="M39.6525 20.5324L44.9985 24.4174L50.3445 20.5324L48.2985 26.8174L53.6445 30.6994H47.0445L44.9985 36.9844L42.9555 30.6994H36.3555L41.6985 26.8174L39.6525 20.5324Z" fill="white"/>
<path d="M90 45C90 20.1472 69.8528 0 45 0C20.1472 0 0 20.1472 0 45C0 69.8528 20.1472 90 45 90C69.8528 90 90 69.8528 90 45Z" fill="#E30A17"/>
<path d="M45.2347 61.521C42.2614 61.5212 39.36 60.607 36.924 58.9023C34.488 57.1976 32.6352 54.7849 31.6169 51.9915C30.5986 49.198 30.4642 46.159 31.2317 43.2865C31.9993 40.414 33.6317 37.8472 35.9077 35.934C32.5654 37.8902 29.9431 40.8722 28.4303 44.4371C26.9174 48.0021 26.5947 51.9599 27.5099 55.7229C28.4252 59.4858 30.5297 62.8533 33.5109 65.3252C36.4921 67.797 40.191 69.2415 44.0584 69.4441C47.9258 69.6467 51.7554 68.5966 54.9785 66.4497C58.2017 64.3028 60.6465 61.1737 61.9499 57.527C63.2533 53.8802 63.3458 49.9103 62.2137 46.2068C61.0816 42.5033 58.7853 39.2637 55.6657 36.969C57.6408 39.0156 58.9698 41.5983 59.4872 44.3951C60.0046 47.1919 59.6874 50.0791 58.5753 52.6969C57.4631 55.3147 55.6051 57.5473 53.2328 59.1164C50.8605 60.6855 48.0789 61.5218 45.2347 61.521Z" fill="white"/>
</g>
</g>
<defs>
<clipPath id="clip0_394_15742">
<rect width="90" height="90" fill="white" transform="matrix(0 -1 1 0 0 90)"/>
</clipPath>
</defs>
</svg>
