<svg width="90" height="90" viewBox="0 0 90 90" fill="none" xmlns="http://www.w3.org/2000/svg">
<g clip-path="url(#clip0_394_15752)">
<mask id="mask0_394_15752" style="mask-type:luminance" maskUnits="userSpaceOnUse" x="0" y="0" width="90" height="90">
<path d="M0 0L0 90H90V0H0Z" fill="white"/>
</mask>
<g mask="url(#mask0_394_15752)">
<path d="M42.7259 90L38.3623 78.5099C37.2783 75.6562 38.7092 72.4573 41.5552 71.3705L43.2739 70.7143L47.6379 82.204C48.7215 85.0577 47.2906 88.2569 44.445 89.3438L42.7259 90Z" fill="#0980B3"/>
<path d="M42.1287 69.6462L33.5903 78.0085C31.4699 80.0852 31.4699 83.4574 33.5903 85.5345L34.8713 86.7891L43.4097 78.4263C45.5301 76.3496 45.5301 72.9774 43.4097 70.9003L42.1287 69.6462Z" fill="#0D94CE"/>
<path d="M45 73.5569L45 16.1483C45 7.237 51.9056 0.00209808 60.4107 0.00209808C68.9153 0.00209808 75.8209 7.237 75.8209 16.1483V73.5569C75.8209 82.4682 68.9153 89.7031 60.4107 89.7031C51.9056 89.7031 45 82.4682 45 73.5569Z" fill="#2E996C"/>
<path d="M50.082 69.6128L50.082 20.0982C50.082 12.4123 54.7096 6.1719 60.4093 6.1719C66.1084 6.1719 70.736 12.4123 70.736 20.0982V69.6128C70.736 77.2987 66.1084 83.5391 60.4093 83.5391C54.7096 83.5391 50.082 77.2987 50.082 69.6128Z" fill="white"/>
<path d="M0 44.854C0 25.0509 15.3445 8.97359 34.2449 8.97359H55.7551C74.6555 8.97359 90 25.0509 90 44.854C90 64.6571 74.6555 80.7344 55.7551 80.7344H34.2449C15.3445 80.7344 0 64.6571 0 44.854Z" fill="#36B37E"/>
<path d="M33.0391 8.97359L33.0391 80.7344H49.5732V8.97359H33.0391Z" fill="#06A2E5"/>
<path d="M41.3077 68.9609C38.0594 68.9609 35.4219 66.1975 35.4219 62.794C35.4219 59.3905 38.0594 56.627 41.3077 56.627C44.5561 56.627 47.1936 59.3905 47.1936 62.794C47.1936 66.1975 44.5561 68.9609 41.3077 68.9609Z" fill="#EBEBEB"/>
<path d="M41.3081 66.1562C39.5364 66.1562 38.0977 64.6488 38.0977 62.7925C38.0977 60.9361 39.5364 59.4287 41.3081 59.4287C43.0799 59.4287 44.5186 60.9361 44.5186 62.7925C44.5186 64.6488 43.0799 66.1562 41.3081 66.1562Z" fill="black"/>
<path d="M41.3077 33.0781C38.0594 33.0781 35.4219 30.3147 35.4219 26.9112C35.4219 23.5077 38.0594 20.7442 41.3077 20.7442C44.5561 20.7442 47.1936 23.5077 47.1936 26.9112C47.1936 30.3147 44.5561 33.0781 41.3077 33.0781Z" fill="#EBEBEB"/>
<path d="M41.3081 30.2734C39.5364 30.2734 38.0977 28.766 38.0977 26.9097C38.0977 25.0533 39.5364 23.5459 41.3081 23.5459C43.0799 23.5459 44.5186 25.0533 44.5186 26.9097C44.5186 28.766 43.0799 30.2734 41.3081 30.2734Z" fill="black"/>
<path d="M81.4371 54.1016C79.9605 54.1016 78.7617 52.845 78.7617 51.2979C78.7617 49.7513 79.9605 48.4947 81.4371 48.4947C82.9137 48.4947 84.1125 49.7513 84.1125 51.2979C84.1125 52.845 82.9137 54.1016 81.4371 54.1016Z" fill="#2E996C"/>
<path d="M81.4371 41.2031C79.9605 41.2031 78.7617 39.9471 78.7617 38.4C78.7617 36.8533 79.9605 35.5968 81.4371 35.5968C82.9137 35.5968 84.1125 36.8533 84.1125 38.4C84.1125 39.9471 82.9137 41.2031 81.4371 41.2031Z" fill="#2E996C"/>
</g>
</g>
<defs>
<clipPath id="clip0_394_15752">
<rect width="90" height="90" fill="white" transform="matrix(0 -1 1 0 0 90)"/>
</clipPath>
</defs>
</svg>
