<svg width="90" height="90" viewBox="0 0 90 90" fill="none" xmlns="http://www.w3.org/2000/svg">
<g clip-path="url(#clip0_394_15776)">
<path d="M45 0C20.1472 0 0 20.1472 0 45C0 69.8528 20.1472 90 45 90C69.8528 90 90 69.8528 90 45C90 20.1472 69.8528 0 45 0Z" fill="#BC2634"/>
<path d="M36.8899 20.1159C38.1874 20.3691 39.1349 21.3237 40.3216 21.801C40.8814 21.7311 41.0738 22.1211 41.2516 22.5315C41.0825 25.2789 41.3683 28.0089 41.5869 30.7417C41.5024 30.9746 41.3653 31.1608 41.1292 31.2598C40.0912 31.0357 40.2924 30.1742 40.2487 29.7842C40.065 31.3093 39.3128 32.8081 37.5926 33.6318C35.8695 34.4583 34.2892 33.9723 32.8577 32.8634C30.7847 31.254 29.6826 29.0246 28.8867 26.6031C28.7963 26.0996 28.5426 25.5961 28.8838 25.0926C29.3211 24.7201 29.6972 24.985 30.0442 25.2382C31.0296 25.9512 31.6506 25.4506 32.1346 24.6066C32.5603 23.8674 32.5953 23.067 32.4029 22.2434C32.2658 21.6438 32.0326 21.0443 32.2542 20.4127C32.9481 19.8335 33.7994 19.6007 34.6333 19.755C35.3826 19.8859 36.1581 19.883 36.8899 20.1159Z" fill="#110315"/>
<path d="M44.4944 76.3268C41.5146 80.5556 38.0101 81.1347 34.217 78.0556C34.1237 77.5375 34.5202 77.4473 34.8671 77.3134C36.6864 76.9467 36.8905 75.41 36.4415 73.9082C36.1179 72.8256 35.0566 72.1474 34.9575 70.9716C35.0129 70.7417 35.1412 70.5642 35.3249 70.4187C37.3833 69.173 39.3834 69.4495 41.261 70.7737C42.8267 71.8768 43.9375 73.364 44.5702 75.1888C44.5789 75.5701 44.6693 75.9572 44.4944 76.3268Z" fill="#110414"/>
<path d="M40.8753 22.4458C40.6916 22.2275 40.5079 22.0092 40.3242 21.7909C40.8811 18.0365 42.1173 14.5731 44.6917 11.6889C46.6627 9.48282 50.5987 9.83502 52.4355 12.4049C53.1178 13.3595 53.6455 14.4305 53.7271 15.6034C53.9779 19.1803 55.5727 22.1867 57.6486 24.9778C61.2755 29.8556 63.0774 35.3883 63.7188 41.3605C64.057 44.5037 64.1182 47.6324 63.3718 50.7378C62.2289 55.5021 59.4387 59.2012 55.7738 62.295C54.8409 63.0837 54.2169 63.9073 53.9312 65.1152C53.4122 67.3038 52.3772 69.2741 50.9544 71.0291C49.7328 72.5338 48.2371 73.3254 46.2458 72.7811C46.0708 72.4086 46.2837 72.2078 46.5723 72.039C48.5286 72.0244 49.7736 70.9127 50.8028 69.3934C51.7649 67.9761 52.5259 66.4714 52.9253 64.8096C53.2577 63.43 53.9895 62.3881 55.0858 61.483C57.4591 59.5272 59.3921 57.2018 60.8382 54.4544C62.538 51.2209 63.0744 47.7633 62.8704 44.1952C62.6196 39.783 61.8674 35.4553 60.1035 31.3545C59.3279 29.358 58.2259 27.5448 56.9634 25.8276C54.7272 22.7892 52.9399 19.5703 52.6279 15.7053C52.5609 14.8787 52.1819 14.1249 51.762 13.4148C50.2488 10.8653 46.8901 10.5888 45.0474 12.8967C43.3593 15.0097 42.3126 17.4399 41.7179 20.0709C41.5575 20.7752 41.5254 21.5115 41.2193 22.1809C41.1406 22.3148 41.024 22.4021 40.8753 22.4458Z" fill="#3E0805"/>
<path d="M36.8913 20.1134C36.0807 20.1541 35.2848 20.0144 34.483 19.9387C33.7424 19.8689 32.824 19.8078 32.4479 20.7973C31.0485 21.522 29.8152 22.4388 28.9609 23.7921C28.3486 24.5983 27.9259 25.4976 27.6664 26.4755C26.366 30.9313 27.5031 34.9448 30.1038 38.5711C32.585 42.0316 37.4248 41.9064 39.9001 38.446C40.0984 38.1695 40.2529 37.8552 40.492 37.6194C41.8215 36.3097 42.1976 34.9215 41.1422 33.2189C40.7981 32.663 40.4104 31.9092 40.9847 31.1874C41.0897 31.0681 41.1976 30.9488 41.3025 30.8324C42.3609 31.2078 42.2443 32.3138 42.6991 33.0646C43.7983 34.8778 43.4717 36.3563 42.1189 38.0414C39.3404 41.499 37.0196 45.3058 36.1974 49.7412C35.4656 53.6906 35.6259 57.5819 38.3316 60.9346C38.5765 61.2402 38.7835 61.5691 38.7747 61.9853C38.6377 62.3549 38.5356 62.7769 37.9759 62.5412C37.177 60.8561 35.8387 59.4969 35.346 57.5964C33.9699 52.2878 35.1682 47.442 37.693 42.7825C37.8971 42.4041 38.2033 42.0752 38.2499 41.5252C37.5006 41.4117 36.8854 41.8802 36.2032 41.9676C33.2643 42.3401 30.7481 41.5455 29.1038 39.0135C26.0657 34.3336 24.7158 29.3713 27.5731 24.1064C29.579 20.4131 33.101 18.5825 36.8913 20.1134Z" fill="#370E0C"/>
<path d="M46.5223 72.1633C46.429 72.37 46.3357 72.5766 46.2424 72.7862C45.8983 74.0842 45.3764 75.2949 44.493 76.3281C44.3939 76.0022 44.2948 75.6762 44.1927 75.3473C45.0412 73.7757 45.3327 72.2856 44.1198 70.6645C43.4288 69.7419 43.3501 68.4817 43.4114 67.3088C43.4638 66.3193 43.2393 65.4985 42.3501 64.9514C42.2772 64.6138 42.4317 64.378 42.6941 64.1947C42.8866 64.1685 42.6387 64.1248 42.8282 64.1452C46.913 64.541 49.2658 62.105 51.5779 59.2004C54.3739 55.6905 55.1057 51.9914 53.7908 47.7771C53.126 45.6438 52.3447 43.5657 51.3126 41.5809C49.6332 38.3474 48.2016 35.015 47.3036 31.473C47.0821 31.6564 47.0179 32.1075 46.6331 32.0464C46.2249 31.9823 46.1287 31.5749 46.152 31.2489C46.3852 27.7564 46.8809 24.3164 48.3532 21.0887C48.4553 20.8675 48.6506 20.7075 48.8955 20.6347C49.6828 21.0043 49.4233 21.6679 49.3096 22.2471C49.053 23.5596 48.6157 24.8373 48.4699 26.1761C48.1229 27.7332 48.397 29.2582 48.7323 30.7716C49.537 34.3951 51.0822 37.7333 52.7062 41.0453C54.1611 44.011 55.4468 47.0349 55.8871 50.3528C56.0416 51.517 56.1582 52.6957 55.823 53.8162C54.2281 59.1364 51.4642 63.502 45.9129 65.4752C45.1111 65.7605 44.7292 66.1679 44.8283 67.0731C44.9887 68.5283 45.1024 69.9718 46.1841 71.1185C46.4494 71.3834 46.6506 71.7355 46.5223 72.1633Z" fill="#2B140A"/>
<path d="M42.7123 64.3751C42.6161 64.5556 42.517 64.736 42.4207 64.9135C42.7735 66.1476 42.1263 68.1557 41.1466 68.8804C40.4556 69.3927 39.8959 69.2268 39.4673 68.5399C39.132 68.0015 39.0212 67.3903 39.0153 66.7616C39.0066 65.7779 39.3127 64.768 38.8025 63.8221C38.3652 63.5457 37.887 63.6097 37.4089 63.6446C37.0211 63.6446 36.6566 63.5718 36.3447 63.3245C36.2193 63.1993 36.2047 63.0596 36.3009 62.9112C36.8287 62.6405 37.3943 62.5474 37.9774 62.5416C38.1727 62.3699 38.3652 62.1981 38.5605 62.0264C39.2136 61.5113 39.0795 60.7197 39.2224 60.0386C39.4089 59.1451 39.5168 58.2284 40.0271 57.4425C40.8551 56.1649 41.8959 56.1736 42.8318 57.4542C43.5753 58.8541 43.0709 60.3413 43.1438 61.7878C43.2167 62.6842 43.4412 63.6097 42.7123 64.3751Z" fill="#0D050C"/>
<path d="M36.3035 62.9031C36.3123 63.0225 36.3181 63.1418 36.3269 63.264C36.1432 64.1284 35.2685 64.2623 34.7291 64.7454C34.2714 65.1529 33.7699 65.5109 33.4609 66.058C32.9885 66.9108 32.6153 67.8072 32.2946 68.7269C32.0439 69.1547 32.2072 69.6203 32.1809 70.0656C31.9214 72.2455 32.28 74.2566 33.6212 76.0756C34.0819 76.7014 34.9799 76.8498 35.2102 77.6705C34.8662 77.7666 34.4696 77.7287 34.2189 78.0547C29.5132 74.7747 30.3645 66.4975 34.4696 63.718C35.0265 63.3368 35.5951 62.9584 36.3035 62.9031Z" fill="#3B0F10"/>
<path d="M42.7148 64.3738C42.4611 63.4774 42.7381 62.5897 42.7585 61.6991C43.0238 61.3615 42.6157 60.8173 43.1026 60.5379C43.5895 60.6223 43.6448 61.053 43.8023 61.3848C44.0472 61.9028 44.435 62.2375 44.9948 62.3365C45.5166 62.4296 46.0998 62.546 46.4642 62.0396C46.8053 61.5681 46.4904 61.0996 46.231 60.7037C45.2834 59.2573 43.9102 58.2736 42.4699 57.3742C41.4844 56.4662 40.9363 56.5128 40.3852 57.6187C39.7526 58.8964 39.5922 60.3021 39.5368 61.6933C39.4902 62.8982 39.0412 62.3801 38.5601 62.0222C34.6678 57.4761 34.6474 52.348 36.4317 47.0336C37.6883 43.2879 39.8604 40.0108 42.3212 36.9491C43.0763 36.009 43.3504 35.2756 42.6827 34.1522C42.0763 33.1306 41.7526 31.9403 41.3036 30.8256C40.6768 28.0578 40.3619 25.2754 40.8721 22.4494C40.8984 22.3418 40.9246 22.2341 40.9509 22.1264C41.8022 21.361 42.6506 20.5868 43.5894 19.9261C45.0385 18.9046 46.6391 18.8347 48.2573 19.3557C48.8404 19.5419 49.6422 19.8796 48.8608 20.7643C47.4759 24.3325 46.7674 28.0374 46.5371 31.9373C47.1086 31.3174 47.0619 30.6102 47.1727 29.8739C47.3331 29.9932 47.4934 30.0514 47.508 30.1358C48.4293 34.7983 50.5781 38.9776 52.5986 43.2122C54.0039 46.1605 55.0331 49.2193 54.9398 52.5546C54.9135 53.5325 54.8144 54.5075 54.4121 55.3923C53.0097 58.4773 51.0271 61.149 48.3477 63.2416C46.6916 64.5397 44.779 64.9238 42.7148 64.3738Z" fill="#FDC893"/>
<path d="M40.988 31.1817C41.1776 32.4419 41.7228 33.577 42.3117 34.68C42.6324 35.2825 42.6004 35.7045 42.1601 36.2254C41.5362 36.9589 40.9881 37.7621 40.4341 38.5538C37.6672 42.4915 32.495 42.6982 29.6844 38.7953C26.9816 35.038 25.7454 30.8674 27.2732 26.234C27.9904 25.9925 28.7106 25.748 29.282 26.5222C30.0226 28.251 30.6961 30.0205 31.9643 31.4611C33.2297 32.8989 34.6992 33.9932 36.7575 33.5159C38.7285 33.056 39.3757 31.3942 39.9151 29.7032C40.0317 29.3394 40.0842 28.9582 40.2008 28.4198C40.4895 29.4384 40.7373 30.3086 40.988 31.1817Z" fill="#FEF6FC"/>
<path d="M28.9275 23.6939C29.152 22.2329 31.0938 20.6351 32.4466 20.7981C32.6915 21.6741 33.1522 22.5152 33.0472 23.4582C32.9248 24.57 32.432 25.4693 31.4145 26.0426C30.1491 26.7557 29.8401 25.2685 28.9975 25.0211C28.5718 24.5962 28.3211 24.1683 28.9275 23.6939Z" fill="#F9F7F9"/>
<path d="M28.9285 23.6887C28.9518 24.1311 28.9751 24.5735 28.9956 25.0158C29.0889 25.5193 29.1822 26.0199 29.2784 26.5234C28.634 26.2411 27.876 26.7737 27.2695 26.2353C27.6048 25.2429 27.6777 24.0816 28.9285 23.6887Z" fill="#E5DFE2"/>
<path d="M31.8955 68.7159C32.2104 67.703 32.4903 66.6757 33.1725 65.8258C34.3329 65.3689 35.5458 65.689 36.7295 65.5784C37.2718 65.529 37.957 65.7705 38.2631 65.1011C38.5634 64.4376 38.0736 64.0447 37.613 63.675C37.4555 63.5499 37.3826 63.3782 37.4614 63.1715C38.0445 63.1453 38.6334 63.0173 39.2049 63.2414C39.5956 64.3648 39.1553 65.5435 39.4498 66.6727C39.6976 67.4469 39.3477 68.7828 40.2924 68.8585C41.1758 68.9312 41.549 67.6943 41.8697 66.8474C42.1059 66.2216 42.2429 65.561 42.4266 64.9149C43.447 64.8712 43.8261 65.267 43.7794 66.3672C43.6919 68.3695 44.0272 70.2991 45.4355 71.9056C46.0565 72.6129 45.278 74.6502 44.2022 75.3516C43.7415 74.1176 42.9747 73.0785 42.0855 72.1327C40.0271 69.944 38.3594 69.5919 35.505 70.6804C34.4437 70.4505 33.5137 69.8364 32.4349 69.6326C32.0063 69.5511 31.6244 69.2805 31.8955 68.7159Z" fill="#F9F3F7"/>
<path d="M35.2089 77.6719C33.3488 77.2411 32.6636 75.7161 32.0717 74.1852C31.5294 72.7795 31.3924 71.2981 31.891 69.8196C33.028 69.2725 34.2089 69.7003 35.1535 70.9983C36.1565 72.1741 37.0515 73.4081 37.1448 75.0263C37.2381 76.7085 36.8504 77.2237 35.2089 77.6719Z" fill="#FBFCFC"/>
<path d="M35.1516 71C34.1691 70.3161 33.2448 69.4779 31.8891 69.8213C31.72 69.4517 31.4343 69.082 31.892 68.7153C31.8687 69.1315 32.0378 69.2712 32.478 69.2683C33.6938 69.2625 34.6735 69.8155 35.4957 70.6799C35.3819 70.7846 35.2653 70.8923 35.1516 71Z" fill="#544E53"/>
<path d="M46.5205 72.1652C44.5 70.5703 44.3018 68.3205 44.2814 65.998C44.2755 65.3956 44.5146 65.1773 45.121 65.1104C47.4214 64.8601 49.1708 63.5882 50.6548 61.9206C53.8328 58.3553 56.4276 54.5864 55.2702 49.4C54.687 46.7836 53.7803 44.3039 52.5937 41.9145C50.8064 38.3114 49.0979 34.6763 48.2057 30.724C47.8704 29.2426 47.7159 27.7525 47.9812 26.242C49.0046 27.5371 50.4624 27.3945 51.9027 27.5662C55.069 27.9475 57.8738 29.3212 60.454 31.1635C63.5154 39.0419 64.9849 46.9786 61.0838 55.02C59.7135 57.846 57.5968 60.1307 55.1244 62.0515C54.238 62.7384 53.7191 63.5009 53.4625 64.6127C52.894 67.0953 51.821 69.377 49.9726 71.1844C49.0483 72.0953 47.9666 72.8666 46.5205 72.1652Z" fill="#FDC994"/>
<path d="M60.4641 31.1578C59.9743 31.1898 59.5457 31.1025 59.0997 30.8318C56.1024 29.0128 52.9507 27.6507 49.3325 27.9883C47.8251 28.1309 48.5045 26.7631 47.9913 26.2363C47.9738 24.6763 48.6561 23.2618 48.9156 21.7601C48.9739 21.4283 49.3704 21.0703 48.8631 20.7647C48.9535 20.3689 48.9739 20.0691 48.487 19.8392C47.207 19.2339 44.8338 19.4958 43.7113 20.4388C43.0873 20.9626 42.4488 21.4719 41.8482 22.022C41.5479 22.2985 41.2826 22.3451 40.9531 22.1268C41.2563 18.515 42.5654 15.299 44.7754 12.4322C46.0466 10.782 47.7231 10.5259 49.5949 11.0935C51.8195 11.7687 52.907 13.5207 53.1111 15.6279C53.4668 19.2368 54.98 22.2869 57.0529 25.142C58.4174 27.0192 59.7236 28.9284 60.4641 31.1578Z" fill="#FCA170"/>
<path d="M42.4727 57.3762C42.6913 57.2511 42.9217 57.1754 43.1549 57.3122C44.8372 58.3133 46.2979 59.5386 47.1288 61.3693C47.47 62.1231 47.0676 62.5975 46.4174 62.8303C44.9101 63.3745 43.5019 62.5072 43.2074 60.8192C43.0324 61.1626 42.8954 61.4304 42.7584 61.6981C42.6972 60.2575 42.8021 58.8023 42.4727 57.3762Z" fill="#F8A474"/>
<path d="M37.4607 63.1728C37.7931 63.7316 38.8368 63.1669 38.9389 64.2292C39.0876 65.7543 38.8747 66.1385 37.3062 66.0773C35.9271 66.0249 34.5189 66.3771 33.1719 65.827C33.8629 64.5319 35.1603 63.9848 36.3265 63.2717C36.7026 63.2368 37.0817 63.2048 37.4607 63.1728Z" fill="#E4DFE3"/>
<path d="M40.1264 65.8828C39.6774 64.7274 39.5695 63.5807 40.1672 62.4544C40.762 63.5952 40.2897 64.7448 40.1264 65.8828Z" fill="#DBD6DB"/>
<path d="M39.4457 66.6719C38.918 65.5601 39.2795 64.3843 39.2008 63.2405C39.851 64.3436 39.297 65.531 39.4457 66.6719Z" fill="#E4DFE3"/>
</g>
<defs>
<clipPath id="clip0_394_15776">
<rect width="90" height="90" fill="white" transform="matrix(0 -1 1 0 0 90)"/>
</clipPath>
</defs>
</svg>
