<svg width="90" height="90" viewBox="0 0 90 90" fill="none" xmlns="http://www.w3.org/2000/svg">
<g clip-path="url(#clip0_1486_22090)">
<path d="M90 0H0V90H90V0Z" fill="#D7E3F4"/>
<path opacity="0.7757" d="M28.5 70C28.5 70 13.0603 73.383 2.9338 77.9453C1.55484 78.5666 0.678152 78.6678 0.0332013 79.602C0.0539465 82.1934 -0.0810692 90.1394 0.0806849 89.9981L89.9499 89.9154C89.9536 87.4718 90.0608 79.4335 89.9499 78.2361C89.2214 77.3272 89.094 77.2828 88.1432 76.7865C87.1924 76.2892 61 69 61 69L28.5 70Z" fill="#567DB7"/>
<path d="M64.4305 45.9575C64.4718 45.846 64.5206 45.8064 64.5553 45.7026C64.6133 45.5242 64.6348 45.3362 64.6677 45.1486C64.7129 44.8921 64.7641 44.6349 64.8083 44.373C64.855 44.097 64.891 43.8085 64.9488 43.5419C65.0066 43.2753 65.0815 43.0303 65.1735 42.794C65.3058 42.4527 65.4162 42.1461 65.5106 41.8521C65.6619 41.3806 65.8048 40.8148 65.9038 40.2177C65.9783 39.7758 66.0455 39.3043 65.96 38.8326C65.912 38.5388 65.8873 38.2821 65.6101 38.1274C65.5069 38.0749 65.3819 38.0446 65.273 38.0442C65.0916 38.0434 64.9257 38.0903 64.7675 38.1551C64.5654 38.2359 64.3691 38.3701 64.2057 38.4875C64.0676 38.5867 63.8601 38.7885 63.7142 38.867L63.3181 38.9195C63.3511 38.829 63.2784 38.6509 63.3021 38.5427C63.6157 37.052 64.1707 31.9987 64.1457 29.5247C64.0883 23.8852 65.8006 21.6427 61.6674 16.7157C60.6283 15.477 59.0473 14.0243 57.6902 13.1007C58.4048 13.2846 58.9603 13.3666 59.763 13.7572C57.9976 12.3503 56.4306 11.5826 55.1061 10.9095C55.7436 11.0065 56.5573 11.21 57.2211 11.314C52.9407 9.22718 50.0244 8.98211 47.2248 9.00095L46.5169 9.07579C45.2852 9.08373 44.7821 9.14905 43.8992 9.33341C41.1394 9.21165 37.2641 8.87459 33.3637 10.7406C33.9156 10.7101 34.3834 10.6895 34.8242 10.6852C33.0774 11.4881 31.1322 12.5244 28.9511 14.8514C29.4447 14.5843 29.8774 14.3535 30.2993 14.1589C28.6336 15.7105 26.7816 18.167 25.8895 20.4139C24.9114 22.8777 25.1265 33.7379 25.5075 35.6225C25.859 37.3608 25.5216 38.489 25.4838 38.6399C25.4698 38.632 25.4698 38.6185 25.4557 38.6122C25.2042 38.493 24.8124 38.3584 24.5098 38.492C24.2095 38.6488 24.1006 38.926 24.0418 39.221C23.9348 39.7085 24.0558 40.1682 24.1542 40.6059C24.3112 41.3362 24.4979 42.0472 24.669 42.6005C24.7314 42.8022 24.8093 43.0047 24.8844 43.2377C24.9589 43.4672 25.0258 43.7122 25.0623 43.9763C25.099 44.2404 25.1143 44.5393 25.1372 44.8167C25.1579 45.0722 25.1512 45.3023 25.1745 45.5553C25.1906 45.7408 25.1946 45.9289 25.24 46.1094C25.2898 46.2982 25.3662 46.4549 25.4631 46.6045C25.4711 46.6164 25.484 46.6486 25.4912 46.6599C25.5113 46.8136 25.6751 47.03 25.6779 47.3652C25.6799 47.6249 25.7714 47.9317 25.7439 48.2325C25.717 48.5332 25.6731 48.8282 25.6315 49.1104C25.601 49.3141 25.5773 49.5083 25.5711 49.6837C25.565 49.8086 25.5811 49.9566 25.5992 50.0992C25.6393 50.4306 25.7469 50.7363 25.9514 51.0432C26.0712 51.2257 26.0038 51.2368 26.202 51.3323C26.3714 51.4121 26.5244 51.4691 26.6903 51.4899C26.9059 51.5174 27.124 51.5461 27.2996 51.6008C27.5397 51.6754 27.7167 51.7277 27.905 51.8735C28.1654 52.0752 28.386 52.2145 28.761 52.4857C28.7909 52.5788 28.8527 52.6512 28.8834 52.752C28.988 53.0948 29.1502 53.5171 29.3328 53.9154C29.6108 54.5208 30.0038 55.206 30.3728 55.8365L30.3868 56.1312C31.7871 62.2722 30.7864 67.3038 28.0869 71.1329C32.7417 80.5247 40.0698 79.6757 46.5387 79.9877C52.8832 80.2937 62.4946 74.8136 61.8477 71.0775C59.6719 67.4396 59.2438 62.3283 59.8426 57.8232C60.0112 56.5962 60.1431 56.1132 60.4434 55.4869C60.719 54.8842 60.9035 54.5476 61.1627 54.0178C61.5206 53.2846 61.7131 52.539 61.8368 51.9125C61.8549 51.824 61.877 51.7127 61.9137 51.6006C62.0231 51.5242 62.1602 51.4555 62.2258 51.4139C62.4191 51.2911 62.7048 51.1243 63.0404 50.9984C63.1397 50.9616 63.2424 50.9273 63.3493 50.8598C63.464 50.7852 63.5556 50.6636 63.6302 50.5551C63.8348 50.2621 63.9676 49.9287 64.0234 49.5855C64.0756 49.2575 64.1332 48.9733 64.1228 48.7225C64.1219 48.6932 64.1237 48.6701 64.1228 48.6394C64.1087 48.3147 64.016 47.8978 64.0513 47.5036C64.0861 47.1139 64.1692 46.7279 64.2481 46.4509C64.3268 46.1741 64.3798 46.0995 64.4322 45.9578L64.4305 45.9575Z" fill="#99B7E3"/>
</g>
<rect x="0.75" y="0.75" width="88.5" height="88.5" rx="44.25" stroke="#567DB7" stroke-width="1.5"/>
<defs>
<clipPath id="clip0_1486_22090">
<rect width="90" height="90" rx="45" fill="white"/>
</clipPath>
</defs>
</svg>
