<svg width="90" height="90" viewBox="0 0 90 90" fill="none" xmlns="http://www.w3.org/2000/svg">
<g clip-path="url(#clip0_394_15809)">
<mask id="mask0_394_15809" style="mask-type:luminance" maskUnits="userSpaceOnUse" x="0" y="0" width="90" height="90">
<path d="M45 0C20.1472 0 0 20.1472 0 45C0 69.8528 20.1472 90 45 90C69.8528 90 90 69.8528 90 45C90 20.1472 69.8528 0 45 0Z" fill="white"/>
</mask>
<g mask="url(#mask0_394_15809)">
<path d="M0 0L0 90H90V0H0Z" fill="#D7E3F4"/>
<path opacity="0.7757" d="M70 61.5C70 61.5 73.383 76.9397 77.9453 87.0662C78.5666 88.4452 78.6678 89.3218 79.602 89.9668C82.1934 89.9461 90.1394 90.0811 89.9981 89.9193L89.9154 0.0501022C87.4718 0.0464022 79.4335 -0.0607978 78.2361 0.0501022C77.3272 0.778602 77.2828 0.905996 76.7865 1.8568C76.2892 2.8076 69 29 69 29L70 61.5Z" fill="#87AADE"/>
<path d="M45.9575 25.5695C45.846 25.5282 45.8064 25.4794 45.7026 25.4447C45.5242 25.3867 45.3362 25.3652 45.1486 25.3323C44.8921 25.2871 44.6349 25.2359 44.373 25.1917C44.097 25.145 43.8085 25.109 43.5419 25.0512C43.2753 24.9934 43.0303 24.9185 42.794 24.8265C42.4527 24.6942 42.1461 24.5838 41.8521 24.4894C41.3806 24.3381 40.8148 24.1952 40.2177 24.0962C39.7758 24.0217 39.3043 23.9545 38.8326 24.04C38.5388 24.088 38.2821 24.1127 38.1274 24.3899C38.0749 24.4931 38.0446 24.6181 38.0442 24.727C38.0434 24.9084 38.0903 25.0743 38.1551 25.2325C38.2359 25.4346 38.3701 25.6309 38.4875 25.7943C38.5867 25.9324 38.7885 26.1399 38.867 26.2858L38.9195 26.6819C38.829 26.6489 38.6509 26.7216 38.5427 26.6979C37.052 26.3843 31.9987 25.8293 29.5247 25.8543C23.8852 25.9117 21.6427 24.1994 16.7157 28.3326C15.477 29.3717 14.0243 30.9527 13.1007 32.3098C13.2846 31.5952 13.3666 31.0397 13.7572 30.237C12.3503 32.0024 11.5826 33.5694 10.9095 34.8939C11.0065 34.2564 11.21 33.4427 11.314 32.7789C9.22718 37.0593 8.98211 39.9756 9.00095 42.7752L9.07579 43.4831C9.08373 44.7148 9.14905 45.2179 9.33341 46.1008C9.21165 48.8606 8.87459 52.7359 10.7406 56.6363C10.7101 56.0844 10.6895 55.6166 10.6852 55.1758C11.4881 56.9226 12.5244 58.8678 14.8514 61.0489C14.5843 60.5553 14.3535 60.1226 14.1589 59.7007C15.7105 61.3664 18.167 63.2184 20.4139 64.1105C22.8777 65.0886 33.7379 64.8735 35.6225 64.4925C37.3608 64.141 38.489 64.4784 38.6399 64.5162C38.632 64.5302 38.6185 64.5302 38.6122 64.5443C38.493 64.7958 38.3584 65.1876 38.492 65.4902C38.6488 65.7905 38.926 65.8994 39.221 65.9582C39.7085 66.0652 40.1682 65.9442 40.6059 65.8458C41.3362 65.6888 42.0472 65.5021 42.6005 65.331C42.8022 65.2686 43.0047 65.1907 43.2377 65.1156C43.4672 65.0411 43.7122 64.9742 43.9763 64.9377C44.2404 64.901 44.5393 64.8857 44.8167 64.8628C45.0722 64.8421 45.3023 64.8488 45.5553 64.8255C45.7408 64.8094 45.9289 64.8054 46.1094 64.76C46.2982 64.7102 46.4549 64.6338 46.6045 64.5369C46.6164 64.5289 46.6486 64.516 46.6599 64.5088C46.8136 64.4887 47.03 64.3249 47.3652 64.3221C47.6249 64.3201 47.9317 64.2286 48.2325 64.2561C48.5332 64.283 48.8282 64.3269 49.1104 64.3685C49.3141 64.399 49.5083 64.4227 49.6837 64.4289C49.8086 64.435 49.9566 64.4189 50.0992 64.4008C50.4306 64.3607 50.7363 64.2531 51.0432 64.0486C51.2257 63.9288 51.2368 63.9962 51.3323 63.798C51.4121 63.6286 51.4691 63.4756 51.4899 63.3097C51.5174 63.0941 51.5461 62.876 51.6008 62.7004C51.6754 62.4603 51.7277 62.2833 51.8735 62.095C52.0752 61.8346 52.2145 61.614 52.4857 61.239C52.5788 61.2091 52.6512 61.1473 52.752 61.1166C53.0948 61.012 53.5171 60.8498 53.9154 60.6672C54.5208 60.3892 55.206 59.9962 55.8365 59.6272L56.1312 59.6132C62.2722 58.2129 67.3038 59.2136 71.1329 61.9131C80.5247 57.2583 79.6757 49.9302 79.9877 43.4613C80.2937 37.1168 74.8136 27.5054 71.0775 28.1523C67.4396 30.3281 62.3283 30.7562 57.8232 30.1574C56.5962 29.9888 56.1132 29.8569 55.4869 29.5566C54.8842 29.281 54.5476 29.0965 54.0178 28.8373C53.2846 28.4794 52.539 28.2869 51.9125 28.1632C51.824 28.1451 51.7127 28.123 51.6006 28.0863C51.5242 27.9769 51.4555 27.8398 51.4139 27.7742C51.2911 27.5809 51.1243 27.2952 50.9984 26.9596C50.9616 26.8603 50.9273 26.7576 50.8598 26.6507C50.7852 26.536 50.6636 26.4444 50.5551 26.3698C50.2621 26.1652 49.9287 26.0324 49.5855 25.9766C49.2575 25.9244 48.9733 25.8668 48.7225 25.8772C48.6932 25.8781 48.6701 25.8763 48.6394 25.8772C48.3147 25.8913 47.8978 25.984 47.5036 25.9487C47.1139 25.9139 46.7279 25.8308 46.4509 25.7519C46.1741 25.6732 46.0995 25.6202 45.9578 25.5678L45.9575 25.5695Z" fill="#99B7E3"/>
</g>
<path d="M45 0.75C20.5614 0.75 0.75 20.5614 0.75 45C0.75 69.4386 20.5614 89.25 45 89.25C69.4386 89.25 89.25 69.4386 89.25 45C89.25 20.5614 69.4386 0.75 45 0.75Z" stroke="#6A92CE" stroke-width="1.5"/>
</g>
<defs>
<clipPath id="clip0_394_15809">
<rect width="90" height="90" fill="white" transform="matrix(0 -1 1 0 0 90)"/>
</clipPath>
</defs>
</svg>
