<svg width="90" height="90" viewBox="0 0 90 90" fill="none" xmlns="http://www.w3.org/2000/svg">
<g opacity="0.9" clip-path="url(#clip0_2456_1156)">
<g clip-path="url(#clip1_2456_1156)">
<path d="M0 45C0 69.8528 20.1472 90 45 90C60.6032 90 74.3502 82.0575 82.4226 69.9961C82.4226 59.3026 82.4736 29.33 82.4736 20.0812C74.4082 7.97678 60.6364 0 45 0C20.1472 0 0 20.1472 0 45Z" fill="#8B7CD1"/>
<path d="M82.4599 35.1867C58.7856 65.6633 15.5197 60.1652 0.0520313 42.8581C0.0186328 43.5681 0 44.2818 0 45C0 69.8528 20.1472 90 45 90C60.6032 90 74.3502 82.0575 82.4226 69.9961C82.4226 62.9492 82.4447 47.5302 82.4599 35.1867Z" fill="#625AC4"/>
<path d="M65.3173 34.7509C64.0834 31.7914 62.2983 29.1939 60.0632 27.1313C56.609 23.9435 52.0817 22.0322 46.8617 22.0322C43.9745 22.0322 41.2192 22.6186 38.697 23.6805C38.2525 26.9888 31.5073 36.6524 31.5073 44.758C31.5073 47.1556 32.0996 49.6888 32.9423 52.1542H34.5049C43.8729 63.2016 62.8388 56.2179 65.7793 50.8077C69.9518 56.8231 89.0778 60.6416 94.9936 45.4324C94.9967 45.208 94.9998 44.9833 94.9998 44.7582C94.9998 35.0964 92.0931 26.1146 87.1097 18.6353C77.2406 19.5684 68.96 25.954 65.3173 34.7509Z" fill="#EEECFF"/>
<path d="M87.0565 70.9617C91.9563 63.6405 94.8613 54.8717 94.9938 45.432C88.0587 55.0576 69.8213 53.3208 65.6488 47.3055C62.7085 52.7157 45.4631 59.7515 34.5053 52.154C34.8676 52.9049 35.2092 53.6656 35.5299 54.4352C37.1974 58.4402 38.2529 62.5271 38.6974 65.8352C41.2814 66.9248 44.0577 67.4853 46.8621 67.4835C52.0821 67.4835 56.6092 65.5722 60.0636 62.3844C62.288 60.3316 64.0662 57.7488 65.2996 54.807C68.9259 63.6104 77.1944 70.0087 87.0565 70.9617Z" fill="#D3D3FF"/>
<path d="M30.225 26.6219C27.3836 27.2085 23.9633 28.0462 21.0189 29.0125C20.0515 29.3296 19.1826 29.8918 18.4968 30.6443C17.8111 31.3968 17.3318 32.314 17.1057 33.3067C16.4078 36.3708 16 39.9062 16 44.7576C16 45.6076 16.0133 46.4153 16.0376 47.1891C19.352 55.6518 37.5971 58.6324 41.0812 43.2651C41.0419 39.5161 40.8562 35.9523 40.5501 32.7056C40.0826 27.7475 39.3354 23.5274 38.4053 20.5093C37.4336 17.3564 36.2622 15.5153 35.0012 15.5153C33.065 15.5156 31.3402 19.8566 30.225 26.6219Z" fill="#D3D3FF"/>
<path d="M16.0378 47.1892C16.1528 50.8316 16.5303 53.6814 17.1058 56.2086C17.3319 57.2013 17.8112 58.1185 18.497 58.871C19.1827 59.6235 20.0516 60.1857 21.0191 60.5027C23.9635 61.4693 27.3836 62.307 30.2252 62.8935C31.3404 69.6588 33.0652 74 35.0014 74C36.2624 74 37.4338 72.1589 38.4055 69.0059C39.3357 65.9879 40.0828 61.7678 40.5503 56.8097C40.8969 53.1348 41.0899 49.0546 41.0899 44.7579C41.0899 44.2572 41.0867 43.76 41.0814 43.2656C36.5983 53.3208 21.135 52.0839 16.0378 47.1892Z" fill="#9CA1E4"/>
</g>
<rect x="1" y="89" width="88" height="87.9998" rx="43.9999" transform="rotate(-90 1 89)" stroke="#282366" stroke-width="2"/>
</g>
<defs>
<clipPath id="clip0_2456_1156">
<rect width="90" height="90" fill="white" transform="matrix(0 -1 1 0 0 90)"/>
</clipPath>
<clipPath id="clip1_2456_1156">
<rect y="90" width="90" height="89.9998" rx="44.9999" transform="rotate(-90 0 90)" fill="white"/>
</clipPath>
</defs>
</svg>
