<svg width="34" height="34" viewBox="0 0 34 34" fill="none" xmlns="http://www.w3.org/2000/svg">
<path d="M17 2C18.9701 2 20.9211 2.38773 22.7412 3.1416C24.5612 3.89543 26.2146 5.00076 27.6074 6.39355C29.0003 7.78645 30.1058 9.43998 30.8594 11.2598C31.613 13.0796 32.0004 15.0304 32 17L31.9951 17.3691C31.9501 19.2131 31.5659 21.0341 30.8594 22.7402C30.1058 24.56 29.0003 26.2135 27.6074 27.6064C26.2146 28.9992 24.5612 30.1046 22.7412 30.8584C20.9211 31.6123 18.9701 32 17 32C15.0299 32 13.0789 31.6123 11.2588 30.8584C9.43878 30.1046 7.78543 28.9992 6.39258 27.6064C4.99968 26.2135 3.89423 24.56 3.14062 22.7402C2.38702 20.9205 1.9996 18.9696 2 17L2.00488 16.6309C2.04987 14.7869 2.43408 12.9659 3.14062 11.2598C3.89423 9.43998 4.99968 7.78645 6.39258 6.39355C7.78543 5.00076 9.43878 3.89543 11.2588 3.1416C13.0789 2.38773 15.0299 2 17 2Z" fill="#D3D3FF" stroke="#282366" stroke-width="4"/>
</svg>
