<svg width="90" height="90" viewBox="0 0 90 90" fill="none" xmlns="http://www.w3.org/2000/svg">
<g clip-path="url(#clip0_2522_4345)">
<path d="M0.000610352 -7.62939e-06V90H90.0006V-7.62939e-06H0.000610352Z" fill="#D7E3F4"/>
<path opacity="0.7757" d="M70.0006 61.5C70.0006 61.5 73.3836 76.9397 77.9459 87.0662C78.5672 88.4452 78.6684 89.3218 79.6026 89.9668C82.1941 89.9461 90.14 90.0811 89.9988 89.9193L89.916 0.0501175C87.4724 0.0464115 79.4341 -0.0607598 78.2367 0.0501175C77.3278 0.778568 77.2835 0.905967 76.7872 1.85677C76.2898 2.80758 69.0006 29 69.0006 29L70.0006 61.5Z" fill="#567DB7"/>
<path d="M45.9581 25.5695C45.8466 25.5282 45.807 25.4794 45.7032 25.4447C45.5248 25.3867 45.3368 25.3652 45.1492 25.3323C44.8927 25.2871 44.6356 25.2359 44.3736 25.1917C44.0976 25.145 43.8091 25.109 43.5425 25.0512C43.2759 24.9934 43.0309 24.9185 42.7946 24.8265C42.4533 24.6942 42.1467 24.5838 41.8527 24.4894C41.3812 24.3381 40.8154 24.1952 40.2183 24.0962C39.7764 24.0217 39.3049 23.9545 38.8332 24.04C38.5394 24.088 38.2828 24.1127 38.128 24.3899C38.0755 24.4931 38.0452 24.6181 38.0448 24.727C38.044 24.9084 38.0909 25.0743 38.1557 25.2325C38.2365 25.4346 38.3707 25.6309 38.4881 25.7943C38.5873 25.9324 38.7891 26.1399 38.8676 26.2858L38.9201 26.6819C38.8296 26.6489 38.6515 26.7216 38.5433 26.6979C37.0526 26.3843 31.9993 25.8293 29.5253 25.8543C23.8858 25.9117 21.6433 24.1994 16.7163 28.3326C15.4776 29.3717 14.0249 30.9527 13.1013 32.3098C13.2852 31.5952 13.3672 31.0397 13.7578 30.237C12.351 32.0024 11.5832 33.5694 10.9101 34.8939C11.0071 34.2564 11.2106 33.4427 11.3146 32.7789C9.2278 37.0593 8.98272 39.9756 9.00156 42.7752L9.0764 43.4831C9.08434 44.7148 9.14966 45.2179 9.33402 46.1008C9.21226 48.8606 8.8752 52.7359 10.7412 56.6363C10.7107 56.0844 10.6901 55.6166 10.6858 55.1758C11.4887 56.9226 12.525 58.8678 14.852 61.0489C14.585 60.5553 14.3541 60.1226 14.1595 59.7007C15.7111 61.3664 18.1676 63.2184 20.4145 64.1105C22.8783 65.0886 33.7385 64.8735 35.6231 64.4925C37.3614 64.141 38.4896 64.4784 38.6405 64.5162C38.6326 64.5302 38.6192 64.5302 38.6128 64.5443C38.4936 64.7958 38.359 65.1876 38.4926 65.4902C38.6494 65.7905 38.9266 65.8994 39.2216 65.9582C39.7091 66.0652 40.1688 65.9442 40.6065 65.8458C41.3368 65.6888 42.0479 65.5021 42.6012 65.331C42.8028 65.2686 43.0053 65.1907 43.2383 65.1156C43.4678 65.0411 43.7128 64.9742 43.9769 64.9377C44.241 64.901 44.5399 64.8857 44.8173 64.8628C45.0728 64.8421 45.3029 64.8488 45.5559 64.8255C45.7414 64.8094 45.9295 64.8054 46.11 64.76C46.2989 64.7102 46.4555 64.6338 46.6051 64.5369C46.617 64.5289 46.6493 64.516 46.6605 64.5088C46.8142 64.4887 47.0306 64.3249 47.3658 64.3221C47.6256 64.3201 47.9323 64.2286 48.2331 64.2561C48.5338 64.283 48.8288 64.3269 49.111 64.3685C49.3147 64.399 49.5089 64.4227 49.6843 64.4289C49.8092 64.435 49.9572 64.4189 50.0998 64.4008C50.4312 64.3607 50.7369 64.2531 51.0438 64.0486C51.2263 63.9288 51.2374 63.9962 51.3329 63.798C51.4127 63.6286 51.4697 63.4756 51.4905 63.3097C51.5181 63.0941 51.5468 62.876 51.6014 62.7004C51.676 62.4603 51.7283 62.2833 51.8742 62.095C52.0758 61.8346 52.2151 61.614 52.4863 61.239C52.5794 61.2091 52.6519 61.1473 52.7526 61.1166C53.0954 61.012 53.5177 60.8498 53.916 60.6672C54.5214 60.3892 55.2066 59.9962 55.8371 59.6272L56.1318 59.6132C62.2728 58.2129 67.3044 59.2136 71.1335 61.9131C80.5253 57.2583 79.6763 49.9302 79.9883 43.4613C80.2943 37.1168 74.8142 27.5054 71.0781 28.1523C67.4402 30.3281 62.3289 30.7562 57.8238 30.1574C56.5968 29.9888 56.1139 29.8569 55.4875 29.5566C54.8848 29.281 54.5482 29.0965 54.0184 28.8373C53.2853 28.4794 52.5396 28.2869 51.9131 28.1632C51.8246 28.1451 51.7133 28.123 51.6012 28.0863C51.5248 27.9769 51.4561 27.8398 51.4145 27.7742C51.2918 27.5809 51.1249 27.2952 50.999 26.9596C50.9622 26.8603 50.9279 26.7576 50.8604 26.6507C50.7858 26.536 50.6642 26.4444 50.5557 26.3698C50.2628 26.1652 49.9293 26.0324 49.5861 25.9766C49.2581 25.9244 48.9739 25.8668 48.7231 25.8772C48.6938 25.8781 48.6707 25.8763 48.64 25.8772C48.3153 25.8913 47.8984 25.984 47.5042 25.9487C47.1145 25.9139 46.7285 25.8308 46.4515 25.7519C46.1747 25.6732 46.1001 25.6202 45.9584 25.5678L45.9581 25.5695Z" fill="#99B7E3"/>
</g>
<rect x="0.75061" y="89.25" width="88.5" height="88.5" rx="44.25" transform="rotate(-90 0.75061 89.25)" stroke="#567DB7" stroke-width="1.5"/>
<defs>
<clipPath id="clip0_2522_4345">
<rect x="0.000610352" y="90" width="90" height="90" rx="45" transform="rotate(-90 0.000610352 90)" fill="white"/>
</clipPath>
</defs>
</svg>
