<svg width="90" height="90" viewBox="0 0 90 90" fill="none" xmlns="http://www.w3.org/2000/svg">
<g clip-path="url(#clip0_394_15832)">
<path d="M47.2107 89.2959C45.8862 90.2347 44.1139 90.2347 42.7895 89.2959L35.8285 84.3606C35.0829 83.832 34.1728 83.5881 33.2627 83.6731L24.7663 84.4666C23.1504 84.6176 21.615 83.7313 20.9378 82.2561L17.3767 74.5015C16.9956 73.6709 16.329 73.0045 15.4984 72.6231L7.74397 69.0623C6.26871 68.385 5.38253 66.8498 5.53337 65.2336L6.32731 56.7375C6.4119 55.8275 6.16832 54.9172 5.63936 54.1716L0.704 47.2106C-0.234664 45.8864 -0.234664 44.1137 0.704 42.7896L5.63936 35.8285C6.16832 35.0829 6.4119 34.1728 6.32731 33.2627L5.53337 24.7663C5.38253 23.1504 6.26871 21.615 7.74397 20.9378L15.4984 17.3767C16.329 16.9956 16.9956 16.329 17.3767 15.4984L20.9378 7.74397C21.615 6.26871 23.1504 5.38253 24.7663 5.53337L33.2627 6.32731C34.1728 6.4119 35.0829 6.16832 35.8285 5.63936L42.7895 0.704C44.1139 -0.234664 45.8862 -0.234664 47.2107 0.704L54.1716 5.63936C54.9172 6.16832 55.8275 6.4119 56.7375 6.32731L65.2336 5.53337C66.8498 5.38253 68.385 6.26871 69.0623 7.74397L72.6231 15.4984C73.0045 16.329 73.6709 16.9956 74.5015 17.3767L82.2562 20.9378C83.7313 21.615 84.6176 23.1504 84.4666 24.7663L83.6731 33.2627C83.5881 34.1728 83.832 35.0829 84.3606 35.8285L89.2959 42.7896C90.2347 44.1137 90.2347 45.8864 89.2959 47.2106L84.3606 54.1716C83.832 54.9172 83.5881 55.8275 83.6731 56.7375L84.4666 65.2336C84.6176 66.8498 83.7313 68.385 82.2562 69.0623L74.5015 72.6231C73.6709 73.0045 73.0045 73.6709 72.6231 74.5015L69.0623 82.2561C68.385 83.7313 66.8498 84.6176 65.2336 84.4666L56.7375 83.6731C55.8275 83.5881 54.9172 83.832 54.1716 84.3606L47.2107 89.2959Z" fill="#4790FF"/>
<path d="M59.1894 49.8934L51.0818 41.7859L30.8132 62.0547L22.7056 53.9472L42.9745 33.6785L51.0818 25.5709L67.2969 41.7859L59.1894 49.8934Z" fill="white"/>
</g>
<defs>
<clipPath id="clip0_394_15832">
<rect width="90" height="90" fill="white" transform="matrix(0 -1 1 0 0 90)"/>
</clipPath>
</defs>
</svg>
