<svg width="91" height="91" viewBox="0 0 91 91" fill="none" xmlns="http://www.w3.org/2000/svg">
<path d="M37.5322 84.6851H55.4131C67.9495 84.6851 78.1126 75.1031 78.1126 63.2836V28.2145C78.1126 16.395 67.9495 6.81305 55.4131 6.81305H37.5322L37.5322 84.6851Z" fill="#262626"/>
<path d="M41.275 12.9269C41.275 6.94066 46.078 2.07831 52.0143 2.07831C57.9503 2.07852 62.7535 6.94074 62.7535 12.9269C62.7535 13.212 62.7327 13.4886 62.7135 13.7443L62.6705 14.3176L62.109 14.1955C59.8015 13.6955 57.41 13.427 54.9557 13.4269H41.275V12.9269Z" fill="#F9BFAB" stroke="black"/>
<path d="M44.0654 6.40782C45.887 4.90761 48.1656 4.08963 50.5155 4.09238C55.829 4.09238 60.1954 8.18266 60.7041 13.4178C61.2079 13.5024 61.7098 13.5983 62.2093 13.7055C62.2288 13.4466 62.2535 13.1899 62.2535 12.9256C62.2535 7.21043 57.669 2.57727 52.0139 2.57727C50.4903 2.5766 48.9858 2.92024 47.6105 3.58301C46.2352 4.24579 45.024 5.21093 44.0654 6.40782Z" fill="#CB8565" fill-opacity="0.3"/>
<path d="M46.7693 12.9265H54.9546C55.7278 12.9265 56.4927 12.9614 57.2539 13.0121C57.2547 12.9833 57.2584 12.9553 57.2584 12.9265C57.2584 11.5208 56.7059 10.1727 55.7223 9.17869C54.7388 8.1847 53.4048 7.62629 52.0139 7.62629C50.6229 7.62629 49.289 8.1847 48.3054 9.17869C47.3219 10.1727 46.7693 11.5208 46.7693 12.9265Z" fill="#CB8565"/>
<path d="M41.275 78.0707H54.9547L55.857 78.059C57.959 78.0022 60.0519 77.749 62.109 77.3022L62.6705 77.1801L62.7135 77.7524C62.7327 78.0082 62.7545 78.2855 62.7545 78.5707C62.7545 84.5571 57.9505 89.4194 52.0143 89.4194C46.0782 89.4192 41.275 84.5569 41.275 78.5707V78.0707Z" fill="#F9BFAB" stroke="black"/>
<path d="M54.9553 78.5711H46.7693C46.7693 79.9768 47.3219 81.3249 48.3054 82.3189C49.289 83.3129 50.6229 83.8713 52.0139 83.8713C53.4048 83.8713 54.7388 83.3129 55.7223 82.3189C56.7059 81.3249 57.2584 79.9768 57.2584 78.5711C57.2584 78.5423 57.2547 78.5143 57.2539 78.4855C56.4889 78.5396 55.7223 78.5681 54.9553 78.5711Z" fill="#CB8565"/>
<path d="M37.5322 80.579H54.9554C73.9894 80.579 89.4196 64.9849 89.4196 45.7488C89.4196 26.5127 73.9894 10.9186 54.9554 10.9186H37.5322L37.5322 80.579Z" fill="#FFD2C0"/>
<path d="M37.5322 14.7043H51.2093C70.2432 14.7043 85.6735 30.2984 85.6735 49.5345C85.6735 58.1891 82.5432 66.0993 77.3736 72.1908C84.7437 65.8025 89.4196 56.3302 89.4196 45.7486C89.4196 26.5125 73.9894 10.9184 54.9554 10.9184H37.5322L37.5322 14.7043Z" fill="#FCC4AE"/>
<path d="M90.918 45.7487C90.918 65.7889 74.785 82.0933 54.9553 82.0933H37.5314V79.0645H54.9546C73.1322 79.0645 87.9204 64.1194 87.9204 45.7487C87.9204 27.3781 73.1322 12.4329 54.9546 12.4329H37.5314V9.40417H54.9546C74.785 9.40417 90.918 25.7085 90.918 45.7487Z" fill="#58595B"/>
<path d="M47.4664 89.2319L47.4664 2.26545C47.4664 1.10999 46.237 0.380081 45.2382 0.942665L36.2281 6.02029L36.2281 85.477L45.2382 90.5547C46.237 91.1173 47.4664 90.3873 47.4664 89.2319Z" fill="#648940"/>
<path d="M45.2382 0.942566L36.2281 6.0202V7.69508L41.4921 4.72845C42.4909 4.16587 43.7203 4.89503 43.7203 6.05124L43.7203 89.699L45.2382 90.5546C46.237 91.1172 47.4664 90.388 47.4664 89.2318L47.4664 2.26535C47.4664 1.10914 46.237 0.379219 45.2382 0.942566Z" fill="#87BF51"/>
<path d="M36.2281 85.4771L36.2281 6.01956C16.7266 6.01956 0.918015 21.996 0.918015 41.7046L0.918015 49.792C0.918015 69.5006 16.7266 85.4771 36.2281 85.4771Z" fill="url(#paint0_linear_2298_2576)"/>
<path d="M9.46367 18.4426C15.6455 13.0643 23.6847 9.80618 32.4813 9.80618V85.2764C33.7256 85.4097 34.9761 85.4769 36.2274 85.4778V6.02029C25.5232 6.01952 15.9392 10.8405 9.46367 18.4426Z" fill="#5A7A39"/>
<path d="M15.7632 78.8482L15.987 12.4064L16.2407 12.2355C19.1638 10.2661 22.3467 8.71292 25.6978 7.62073L25.6975 83.863C22.1477 82.725 18.7877 81.0272 15.7632 78.8482V78.8482Z" fill="#49662C"/>
<rect x="10.9392" y="55.624" width="19.6875" height="19.6875" rx="9.84375" transform="rotate(-90 10.9392 55.624)" stroke="#49662C" stroke-width="1.6875"/>
<path d="M20.7832 36.7802C23.1871 36.7802 25.4472 37.7163 27.147 39.4161C28.8469 41.116 29.783 43.376 29.783 45.78C29.783 48.1839 28.8469 50.444 27.147 52.1438C25.4472 53.8436 23.1871 54.7798 20.7832 54.7798C18.3792 54.7798 16.1192 53.8436 14.4193 52.1438C12.7195 50.444 11.7834 48.1839 11.7834 45.78C11.7834 43.376 12.7195 41.116 14.4193 39.4161C16.1192 37.7163 18.3792 36.7802 20.7832 36.7802Z" fill="#FF3300"/>
<path d="M20.7829 36.7801C23.1869 36.7801 25.4468 37.7164 27.1467 39.4163C28.8466 41.1162 29.7829 43.3761 29.7829 45.7801C29.7829 47.6144 29.2378 49.3648 28.2243 50.8462C28.8863 49.3258 29.1201 47.6488 28.8871 45.9646C28.5529 43.5488 27.2976 41.408 25.3532 39.9362C23.4084 38.4647 21.0071 37.8382 18.5917 38.1725C16.4804 38.4651 14.5792 39.4602 13.1509 41.0046C13.508 40.4358 13.9324 39.9029 14.4191 39.4163C16.119 37.7164 18.379 36.7801 20.7829 36.7801Z" fill="#160204" fill-opacity="0.0745098"/>
<path opacity="0.25" d="M12.8602 41.5022C12.398 43.1047 12.3758 44.8084 12.8132 46.4629C13.4512 48.8744 14.9899 50.8929 17.1459 52.1474C19.3023 53.4016 21.8178 53.7412 24.2294 53.1032C25.7016 52.714 27.0272 51.9889 28.1224 50.9923C27.8297 51.4026 27.5034 51.7878 27.1467 52.144C25.4468 53.8439 23.1869 54.7802 20.7829 54.7802C18.379 54.7802 16.1191 53.8439 14.4191 52.144C12.7192 50.4441 11.7829 48.1842 11.7829 45.7802C11.7829 44.2617 12.1565 42.801 12.8602 41.5022Z" fill="white"/>
<path d="M19.7529 40.703L21.7468 43.3102L24.8058 42.3542C24.9175 42.3193 25.0373 42.3204 25.1484 42.3575C25.2594 42.3946 25.3559 42.4657 25.4241 42.5608C25.4924 42.6558 25.529 42.77 25.5287 42.887C25.5284 43.0041 25.4913 43.118 25.4225 43.2128L23.5536 45.7874L25.4291 48.4859C25.494 48.5792 25.5288 48.6901 25.5287 48.8037C25.5287 48.8914 25.508 48.9779 25.4683 49.056C25.4285 49.1342 25.3709 49.2019 25.3 49.2536C25.2291 49.3053 25.1471 49.3395 25.0605 49.3534C24.9739 49.3674 24.8852 49.3607 24.8017 49.3339L21.7001 48.3383L19.7513 50.8599C19.6802 50.9518 19.5822 51.0193 19.4709 51.0527C19.3597 51.0862 19.2407 51.084 19.1307 51.0464C19.0208 51.0089 18.9253 50.9379 18.8577 50.8434C18.7901 50.7489 18.7538 50.6356 18.7538 50.5194V47.3168L15.8303 46.3293C15.721 46.2923 15.6259 46.2224 15.558 46.129C15.4902 46.0356 15.4531 45.9235 15.4517 45.8081L15.4517 45.8017C15.4517 45.5678 15.598 45.3586 15.8182 45.2784L18.7538 44.2108V41.0413C18.7538 40.9249 18.7903 40.8114 18.8582 40.7168C18.926 40.6222 19.0218 40.5513 19.1321 40.5139C19.2423 40.4766 19.3615 40.4748 19.4729 40.5087C19.5843 40.5426 19.6822 40.6106 19.7529 40.703Z" fill="#FFFF00"/>
<path d="M1.66801 49.7925L1.66801 41.7047C1.66808 22.4029 17.1487 6.77008 36.2286 6.77008H36.4249L36.5967 6.6734L45.6065 1.59625C46.0936 1.3219 46.7167 1.67038 46.7168 2.2652L46.7168 89.232C46.7167 89.7898 46.1689 90.131 45.6993 89.9459L45.6065 89.9019L36.5967 84.8238L36.4258 84.7271H36.2286C17.4468 84.7271 2.15304 69.5785 1.67973 50.6939L1.66801 49.7925Z" stroke="black" stroke-width="1.5"/>
<path d="M69.0578 34.9893C70.3518 35.0811 74.8288 38.2768 74.8288 45.7946C74.8288 53.3124 70.3518 56.507 69.0578 56.5998C67.8964 56.6821 67.4078 55.87 67.6076 54.8733C67.8074 53.8777 70.0671 51.4255 70.0671 45.7956C70.0671 40.1657 67.8074 37.7136 67.6065 36.7179C67.4068 35.7223 67.8943 34.9081 69.0568 34.9914L69.0578 34.9893Z" fill="#473535"/>
<path d="M48.6269 32.2655C48.6269 28.4375 51.6753 25.3182 55.4551 25.3182C59.2347 25.3184 62.2832 28.4375 62.2832 32.2655C62.2832 36.0935 59.2347 39.2127 55.4551 39.2128C51.6754 39.2128 48.627 36.0935 48.6269 32.2655Z" fill="white" stroke="#CB8565"/>
<path d="M59.5644 32.2655C59.5644 29.953 57.7245 28.0784 55.4548 28.0784C53.1852 28.0784 51.3453 29.953 51.3453 32.2655C51.3453 34.5779 53.1852 36.4526 55.4548 36.4526C57.7245 36.4526 59.5644 34.5779 59.5644 32.2655Z" fill="#473535"/>
<path d="M55.5853 30.2384C55.5853 29.0454 54.6361 28.0784 53.4653 28.0784C52.2944 28.0784 51.3453 29.0454 51.3453 30.2384C51.3453 31.4313 52.2944 32.3984 53.4653 32.3984C54.6361 32.3984 55.5853 31.4313 55.5853 30.2384Z" fill="white"/>
<path d="M48.6269 59.2183C48.6269 55.3902 51.6753 52.271 55.4551 52.271C59.2347 52.2711 62.2832 55.3903 62.2832 59.2183C62.2832 63.0462 59.2347 66.1654 55.4551 66.1655C51.6754 66.1655 48.627 63.0463 48.6269 59.2183Z" fill="white" stroke="#CB8565"/>
<path d="M59.5644 59.2182C59.5644 56.9057 57.7245 55.0311 55.4548 55.0311C53.1852 55.0311 51.3453 56.9057 51.3453 59.2182C51.3453 61.5307 53.1852 63.4053 55.4548 63.4053C57.7245 63.4053 59.5644 61.5307 59.5644 59.2182Z" fill="#473535"/>
<path d="M55.5853 57.1911C55.5853 55.9981 54.6361 55.0311 53.4653 55.0311C52.2944 55.0311 51.3453 55.9981 51.3453 57.1911C51.3453 58.384 52.2944 59.3511 53.4653 59.3511C54.6361 59.3511 55.5853 58.384 55.5853 57.1911Z" fill="white"/>
<path d="M62.3069 68.0205L71.4361 62.7498L76.4357 71.0339C73.6676 73.3905 70.5133 75.3356 67.159 76.7371L62.3069 68.0205Z" fill="#6A9243" fill-opacity="0.5"/>
<path d="M62.2994 23.5098L70.923 28.4886L75.9548 20.0915C73.3892 17.9 70.4852 16.139 67.3559 14.877L67.159 14.7976L62.2994 23.5098Z" fill="#6A9243" fill-opacity="0.5"/>
<rect x="47.4665" y="79.074" width="66.6394" height="3.32092" transform="rotate(-90 47.4665 79.074)" fill="#F2AD97" fill-opacity="0.5"/>
<defs>
<linearGradient id="paint0_linear_2298_2576" x1="0.918015" y1="45.7483" x2="36.2281" y2="45.7483" gradientUnits="userSpaceOnUse">
<stop stop-color="#89C252"/>
<stop offset="1" stop-color="#648940"/>
</linearGradient>
</defs>
</svg>
