<svg width="90" height="90" viewBox="0 0 90 90" fill="none" xmlns="http://www.w3.org/2000/svg">
<g clip-path="url(#clip0_394_15848)">
<mask id="mask0_394_15848" style="mask-type:luminance" maskUnits="userSpaceOnUse" x="0" y="0" width="90" height="90">
<path d="M45 0C20.1472 0 0 20.1472 0 45C0 69.8528 20.1472 90 45 90C69.8528 90 90 69.8528 90 45C90 20.1472 69.8528 0 45 0Z" fill="white"/>
</mask>
<g mask="url(#mask0_394_15848)">
<path d="M90 45C90 20.1472 69.8528 0 45 0C20.1472 0 0 20.1472 0 45C0 69.8528 20.1472 90 45 90C69.8528 90 90 69.8528 90 45Z" fill="#708FF2"/>
<mask id="mask1_394_15848" style="mask-type:luminance" maskUnits="userSpaceOnUse" x="6" y="16" width="77" height="59">
<path d="M6 16L6 75H83V16L6 16Z" fill="white"/>
</mask>
<g mask="url(#mask1_394_15848)">
<path d="M44.8799 20.4967C45.2459 16.9964 46.422 15.9757 49.8007 16C52.5855 16.0204 55.1087 16.9702 57.5024 18.2872C59.0368 19.1312 60.5113 20.0907 61.9906 21.0338C62.9987 21.6767 63.7171 22.5838 63.9875 23.7677C64.1768 24.5981 64.6586 24.9963 65.4649 24.9487C69.7619 24.6942 72.6201 27.031 74.9801 30.267C76.076 31.7695 77.1894 33.2603 78.2245 34.8045C78.9246 35.8486 79.6546 36.8256 80.5661 37.7162C84.0163 41.0902 83.7363 50.5294 80.1355 53.7198C79.5976 54.1957 79.1718 54.7172 78.7942 55.3194C77.2164 57.8368 75.4735 60.225 73.522 62.4743C71.5628 64.7333 69.2434 66.0736 66.2075 65.9833C64.9975 65.9473 64.0744 66.2173 63.8436 67.6722C63.7171 68.4734 63.1368 69.1552 62.4628 69.5981C59.1556 71.7746 55.9131 74.1035 51.8893 74.8028C51.1526 74.931 50.3975 74.999 49.6501 75C46.3747 75.0058 45.2015 73.9384 44.8993 70.6053C41.2734 72.7371 37.1743 72.6176 33.253 73.2217C29.2322 73.8404 25.3494 73.0682 21.8665 70.8558C20.9231 70.2556 20.7212 70.648 20.6189 71.5823C19.099 70.5363 18.061 69.2708 17.1813 67.8499C16.9843 67.5314 16.7777 66.8845 16.3644 67.1594C15.0376 68.0432 15.3051 66.9156 15.139 66.2814C14.9469 65.5462 14.7315 64.7887 14.1367 64.2875C10.8507 61.5196 9.5346 57.6493 8.36428 53.7363C7.47977 50.779 7.2123 47.709 7.21809 44.6176C7.21906 44.2049 7.56378 43.4425 6.46974 43.7727C5.84692 43.9601 5.94928 43.3279 6.17523 42.985C8.07363 40.1112 8.78722 36.6566 10.6518 33.7702C11.0168 33.2059 11.2119 32.6086 11.32 31.9492C11.6107 30.1612 12.3629 28.5762 13.6404 27.2981C14.494 26.4444 15.0463 25.479 15.2095 24.2844C15.28 23.7716 15.2617 23.1432 16.0631 23.725C16.741 24.2174 16.9273 23.5783 17.1658 23.1753C17.8138 22.0846 18.5708 21.0736 19.5528 20.284C19.8512 20.0431 20.4596 18.6601 20.8323 20.3442C20.9173 20.7278 21.3402 20.4267 21.5787 20.2791C26.2581 17.3713 31.2571 17.1712 36.5119 18.2367C39.3402 18.8097 42.3027 18.7427 44.8799 20.4967Z" fill="#191919"/>
<path d="M47.424 26.2773C47.9397 26.1801 48.5065 26.3851 48.9767 26.017C50.9794 25.6974 52.986 25.8043 54.9935 25.9626C55.9939 26.2481 56.9952 26.5346 57.9956 26.8202C58.8743 26.5065 59.6439 26.859 60.3362 27.3135C60.793 27.6146 61.2671 27.8283 61.7653 28.0167C63.3934 29.0151 65.2058 28.883 66.9999 28.8995C68.3537 28.9122 70.1343 30.167 70.5852 31.3722C70.7494 31.8112 70.7117 31.9462 70.1565 32.8825C70.4279 33.302 70.9715 33.169 71.3191 33.438C72.1959 34.3626 73.345 34.822 74.4168 35.4494C76.6512 36.7595 79.1126 37.8172 80.8372 39.8965C81.404 40.6988 81.7033 41.6049 81.6811 42.5751C81.6155 45.4421 82.3599 48.3936 80.8401 51.1159C80.1091 52.092 79.1725 52.8593 78.0939 53.3556C76.266 54.1966 74.8368 55.7729 72.7878 56.1963C72.2075 56.3168 72.082 56.9976 71.6648 57.3385C70.8691 57.6221 70.3168 57.929 70.4423 59.0449C70.5978 60.4337 68.7535 62.0479 67.1457 62.1003C65.3043 62.1605 63.431 61.9624 61.7537 62.9997C60.9668 63.1551 60.4106 63.7727 59.6864 64.0466C59.1398 64.2535 58.5827 64.4536 57.9927 64.1845C54.5339 65.584 51.0103 65.7453 47.426 64.743C45.486 65.1645 43.6514 64.4934 41.7906 64.1612C40.6541 63.9582 39.6074 64.136 38.5655 64.5691C36.0317 65.6219 33.3811 65.5763 30.7218 65.3578C28.918 65.2092 27.4358 64.5186 26.6817 62.7258C26.392 62.5403 26.1149 62.717 25.8319 62.7627C23.9191 62.3567 23.7018 61.942 24.5023 60.2171C24.6307 59.9404 24.6259 59.6305 24.7302 59.3499C25.0372 58.67 25.9893 58.2242 25.4766 57.2452C25.2429 56.9005 25.1338 56.5246 25.1328 56.1089C25.1164 50.4623 24.7785 44.8623 22.9737 39.4439C22.2582 37.2956 20.999 35.6523 19.0688 34.4888C17.4774 33.5303 17.3983 32.8193 18.8293 31.5422C20.1667 30.3505 21.4915 29.0967 23.3069 28.6247C23.949 28.4576 24.0909 27.7729 24.5226 27.3844C26.4586 25.6819 28.9132 25.545 31.2626 25.3129C33.9151 25.0506 36.5309 25.5421 39.0203 26.5511C39.8787 26.8988 40.7391 27.03 41.6526 26.8503C43.5567 26.4773 45.4436 25.8917 47.424 26.2773Z" fill="#F1C4A5"/>
<path d="M25.4174 28.2151C25.3035 28.7667 24.8255 28.6337 24.4653 28.7415C22.2627 29.4 20.3585 30.5402 18.8454 32.3049C18.4264 32.7943 18.2072 33.177 18.9961 33.5645C22.7484 35.4088 23.717 38.8858 24.5792 42.6366C25.3382 45.9397 25.5313 49.2554 25.8278 52.5866C25.9128 53.5365 26.2536 54.4339 26.7229 55.2837C27.0155 55.813 27.1343 56.3452 26.1754 55.9761C25.9678 55.8965 25.5902 55.8916 25.6192 56.2364C25.6511 56.6269 26.0721 56.5103 26.3386 56.5822C26.8079 56.7366 27.3592 56.824 26.7712 57.5087C26.2739 58.0866 25.4985 58.4391 25.3257 59.2841C25.2552 59.8697 24.8216 60.2116 24.4547 60.601C24.194 60.8788 23.8125 61.1284 24.0124 61.5917C24.2171 62.0647 24.6575 62.1501 25.1142 62.1365C25.4473 62.1268 25.7978 62.2249 26.1078 62.0132C26.2913 61.8869 26.4747 61.7597 26.6582 61.6334C26.917 61.4042 27.3959 61.0614 27.3708 61.6499C27.3264 62.7037 27.9261 63.8157 27.1372 64.8326C26.6852 65.4153 27.0618 65.8164 27.6258 65.9155C29.4286 66.2321 31.1107 67.1043 33.0052 67.0207C33.6493 66.9926 34.4517 66.8333 34.7925 67.7171C34.0886 68.2299 33.2427 67.9327 32.4876 68.2231C34.3059 68.5786 36.0942 68.3717 37.8719 67.8618C40.1536 67.2082 42.3127 66.0864 44.7596 66.0622C45.4529 66.0554 46.1453 65.9815 46.8376 65.9388C46.4716 67.4325 45.0223 67.3102 44.0161 67.6559C43.2059 67.9337 42.2896 68.0716 41.5383 68.2542C41.7894 68.159 42.1727 68.0939 42.5377 67.9793C42.9954 67.8356 43.4531 67.6569 43.6772 68.2406C43.8964 68.8116 43.5613 69.2254 43.0756 69.4653C42.0395 69.9752 40.9812 70.5229 39.8398 70.6521C36.5104 71.0299 33.2138 71.7408 29.8544 71.7952C26.3019 71.8525 23.2776 70.4326 20.6347 68.1357C19.5967 67.2334 18.632 66.1884 17.6094 65.3396C16.6873 64.5733 15.8984 63.6633 14.9752 62.9523C12.6018 61.1255 11.7221 58.477 10.7372 55.8916C8.74414 50.6627 8.74124 45.2297 9.5118 39.788C9.80728 37.699 10.8241 35.8119 12.1238 34.1336C12.4328 33.7345 12.6607 33.4227 12.6732 32.8546C12.7157 30.9762 13.6823 29.5398 14.8024 28.0587C15.8037 26.735 17.509 26.0707 18.0517 24.3759C18.0816 24.2836 18.1705 24.1855 18.2603 24.1671C20.5758 23.6902 21.8176 21.5283 23.911 20.5998C26.7944 19.3217 29.698 18.873 32.7252 19.4188C34.78 19.7889 36.8532 19.9316 38.9148 20.1851C40.0619 20.326 41.0903 20.7222 42.1438 21.0922C42.8139 21.3273 43.598 21.675 43.2735 22.5636C42.9578 23.429 42.2094 22.8055 41.7894 22.7919C42.3755 23.6718 44.5115 22.2315 44.4226 24.4789C42.9877 25.0431 41.6513 24.5216 40.3603 24.0117C38.1529 23.1405 35.8847 22.6151 33.5218 22.4937C33.4059 22.4879 33.2843 22.5996 33.039 22.7181C33.7062 22.9366 34.2489 23.1143 34.7906 23.2911C33.9505 24.1001 33.5624 24.1642 31.4882 23.8136C31.8522 24.9004 31.1213 25.1412 30.342 25.2927C28.7739 25.5967 27.1999 25.8463 25.7167 26.5067C24.6893 26.9613 24.5483 27.4702 25.4174 28.2151Z" fill="#342C21"/>
<path d="M44.4237 24.4747C43.1336 23.2568 41.2362 23.3724 39.8602 22.0933C40.821 22.2458 41.7827 22.3982 42.7435 22.5507C40.849 21.0036 38.5962 20.7278 36.3425 20.5889C35.036 20.5083 33.7662 20.3451 32.4906 20.0596C27.4173 18.9252 23.2545 20.5724 19.8353 24.3776C19.5128 24.7369 19.3148 25.3119 18.6688 24.8117C18.4883 24.6718 18.272 24.8204 18.158 24.9962C16.8844 26.9765 14.7311 28.2206 13.7027 30.4136C13.4439 30.9663 12.9292 31.6335 13.2035 32.0899C14.1092 33.5982 12.712 33.9391 12.1538 34.8142C11.081 36.4953 10.1647 38.159 10.1647 40.4472C10.1647 42.9753 9.75139 45.549 9.85085 48.111C10.0073 52.1425 11.1583 55.936 12.8732 59.5577C13.3493 60.5639 14.0706 61.4224 14.9792 62.0828C15.4823 62.449 15.8589 62.8821 16.1003 63.4619C16.2094 63.7251 16.4923 64.17 16.5995 64.1428C18.1996 63.7417 18.4101 65.2062 19.1294 65.9851C22.9195 70.0914 27.3381 72.399 33.0642 70.8033C34.8738 70.2983 36.7442 70.5139 38.5701 70.1749C40.2098 69.871 41.7181 69.3009 43.5498 68.384C41.9459 68.218 40.8529 69.0639 39.5754 68.6569C41.9961 67.7498 44.4169 66.8418 46.8377 65.9346C48.1674 65.9346 49.4961 65.9346 50.8083 65.9346C50.8248 66.428 50.6143 66.4805 50.4298 66.5213C48.1664 67.0175 46.1328 67.7605 44.3918 69.5417C42.9019 71.0665 40.6356 71.3423 38.519 71.5434C35.737 71.8066 33.0043 72.4485 30.1683 72.3291C26.5193 72.1756 23.3144 71.0413 20.5276 68.6744C20.1163 68.3248 19.8343 67.6653 19.0358 68.2092C18.6032 68.5045 18.3318 67.8353 18.2218 67.5391C17.5748 65.8055 16.0163 64.7673 14.788 63.6999C12.3972 61.6234 11.3369 58.8914 10.1907 56.206C8.21124 51.5675 7.90417 46.561 8.39084 41.6505C8.64963 39.0419 10.0449 36.5089 11.531 34.2101C11.7212 33.9158 12.0496 33.6186 12.0611 33.3137C12.1789 30.3126 13.9451 28.0944 15.8492 26.1617C16.838 25.1584 17.5227 23.3821 18.5568 23.1568C20.5093 22.7314 21.585 21.2153 23.1908 20.4374C24.8893 19.6148 26.6352 19.0301 28.4737 18.8067C30.3605 18.5775 32.3052 18.4687 34.1641 18.8562C37.0937 19.4671 40.1924 19.1971 42.9724 20.5656C43.3316 20.7423 43.7961 20.8113 44.0481 21.0842C45.8354 23.0227 47.9521 24.3212 50.6596 24.6699C48.515 25.1205 46.4515 25.3342 44.4237 24.4747Z" fill="#5F4E38"/>
<path d="M34.7929 67.7173C31.2558 67.9262 27.9563 67.1288 24.5352 65.4583C25.4003 64.9892 26.0077 64.7552 26.5002 64.3735C27.5315 63.5732 27.5778 62.2436 26.6595 61.6347C27.4359 60.7732 27.5894 61.5395 27.5653 62.0688C27.4909 63.6693 28.5087 64.1462 29.7697 64.3948C32.7632 64.9853 35.7208 64.9494 38.5762 63.7257C39.7223 63.2342 40.8685 63.1148 42.0794 63.4256C43.8581 63.882 45.7265 63.9704 47.4299 64.7416C47.0533 65.0339 46.9857 65.6098 46.2315 65.5467C43.4245 65.3117 40.7237 65.7866 38.1107 66.9151C37.0794 67.359 35.9033 67.46 34.7929 67.7173Z" fill="#CA9575"/>
<path d="M25.4177 28.2188C24.6539 27.9031 23.2682 28.4334 23.1562 27.6758C23.0336 26.8435 24.3884 26.5551 25.127 26.0772C26.8922 24.9351 28.9557 24.7592 31.0298 24.462C30.6533 23.8356 30.0111 24.127 29.5756 23.7424C31.3292 23.1354 33.0702 23.32 34.7928 23.2938C36.8438 23.6822 38.832 24.2619 40.7825 25.0311C42.427 25.6799 44.2114 25.5187 45.9389 25.4711C46.6853 25.4507 47.0735 25.7431 47.426 26.2792C45.2765 27.1281 42.9841 27.3369 40.743 27.7681C40.0999 27.8915 39.4674 27.6321 38.8639 27.3689C34.7755 25.5868 30.633 25.6829 26.4567 27.0232C25.8715 27.2097 25.2767 27.3903 25.4177 28.2188Z" fill="#CA9575"/>
<path d="M51.3316 24.0972C49.1745 23.7097 47.1988 23.0833 46.2911 20.7524C45.5698 18.9003 46.1917 17.5503 48.1248 17.123C50.3612 16.6286 52.4827 17.2045 54.5674 17.965C57.0828 18.8828 59.1811 20.5416 61.4455 21.9052C61.6135 22.0062 61.7574 22.1577 61.8945 22.3024C62.4517 22.89 63.1575 23.5893 62.864 24.3692C62.5743 25.1393 61.6212 24.7052 60.9636 24.7149C60.138 24.7275 59.241 24.9033 58.5757 24.1603C57.4623 23.7553 56.9805 22.5666 55.9087 22.0538C54.9141 21.5779 53.9774 21.5449 53.3025 22.3073C52.417 23.3066 51.6976 23.0396 50.8894 22.3607C50.3052 21.8693 49.4516 21.5701 49.5395 20.561C50.7281 19.1266 52.4334 19.4315 53.9832 19.2208C55.2047 19.4403 56.3586 19.8375 57.358 20.6154C56.5662 19.9793 55.6383 19.6413 54.6872 19.3509C53.1055 18.9595 51.5055 18.6516 49.9305 18.2379C49.6747 18.1709 49.44 18.201 49.2227 18.3506C48.4676 19.3975 48.6598 20.2755 49.7413 21.4458C50.4761 22.2412 51.6522 22.5122 52.1457 23.5679C52.0742 24.0535 51.7053 24.0788 51.3316 24.0972Z" fill="#F1C4A5"/>
<path d="M58.5767 66.852C59.7557 65.8517 61.1539 66.3654 62.4604 66.3159C63.032 66.2945 62.9895 66.787 62.8505 67.2094C62.6236 67.898 62.2421 68.5099 61.655 68.9052C58.7534 70.8583 55.9058 72.9299 52.4006 73.7117C51.2245 73.9739 50.0416 74.1526 48.8336 74.0147C46.1511 73.7088 45.3429 72.0684 46.5615 69.6802C47.729 67.391 49.89 67.4211 51.9361 67.1074C52.0462 67.2026 52.1138 67.3231 52.1457 67.4649C52.1573 67.9728 51.7565 68.1262 51.408 68.3108C50.3863 68.8527 49.5965 69.618 48.9659 70.6009C47.8246 72.3821 47.9945 72.7609 50.1324 72.9415C51.127 72.8793 51.995 72.4404 52.8699 72.0179C53.4618 71.7479 54.1194 71.8246 54.7297 71.6556C55.5137 71.3652 56.3432 71.1749 56.8675 70.7407C56.1105 71.2739 55.0783 71.5828 54.0035 71.7887C52.4537 71.5964 50.7735 71.8907 49.5443 70.5514C49.4362 69.0334 50.7533 68.7876 51.659 68.2049C52.5232 67.6494 52.896 68.4166 53.3353 68.9459C54.0431 69.7977 54.7982 69.4772 55.618 69.1013C56.7797 68.5672 57.417 67.3668 58.5767 66.852Z" fill="#F1C4A5"/>
<path d="M80.8381 39.8984C77.7481 37.5821 74.0662 36.3069 70.8768 34.1654C70.9415 32.9446 71.8308 33.5127 72.4247 33.4467C72.7511 33.4108 73.1846 33.6778 73.3729 33.2641C73.539 32.898 73.1981 32.6173 72.9789 32.3521C72.6603 31.9646 72.2943 31.616 72.0162 31.1945C69.9991 28.1322 66.996 27.4417 63.6144 27.6476C63.2002 27.6729 62.8361 27.7408 62.5638 28.1118C62.3215 28.443 62.025 28.7373 61.5606 28.4372C60.3767 27.8894 58.9843 27.8049 57.9955 26.8211C57.9298 26.4258 57.3746 26.3034 57.4577 25.6508C61.3732 25.7596 65.3187 25.5867 69.1628 26.5152C71.3123 27.0338 72.529 28.9548 73.8876 30.5311C75.026 31.8529 76.0129 33.3175 76.9582 34.7899C77.1234 35.0463 78.4443 35.6144 76.992 36.17C76.6908 36.2855 77.3435 36.7226 77.64 36.8945C78.9416 37.6491 80.2626 38.3688 80.8381 39.8984Z" fill="#CA9575"/>
<path d="M57.9947 64.181C58.9883 63.2079 60.3739 63.1185 61.5616 62.5824C61.7287 62.4309 61.9402 62.4037 62.114 62.5047C64.6236 63.9645 68.3576 63.5167 70.4607 61.5258C71.4466 60.5924 72.2848 59.5348 73.149 58.4975C73.3392 58.2693 73.5806 58.0129 73.4416 57.6973C73.29 57.3515 72.9318 57.4846 72.643 57.4642C72.0057 57.4205 71.1434 57.7138 71.2101 56.5493C74.3647 54.637 77.8545 53.3258 80.8421 51.1134C80.0618 53.2122 77.9143 53.7221 76.0874 55.1682C77.5136 54.8681 77.8052 55.1323 77.0791 56.1666C75.4018 58.5558 73.7216 60.9294 71.5992 62.9564C70.4665 64.0383 69.1861 64.6744 67.6122 64.8395C64.2335 65.194 60.8529 65.3319 57.4655 65.328C57.3815 64.7123 57.9483 64.587 57.9947 64.181Z" fill="#CA9575"/>
<path d="M58.5769 66.8459C57.8556 68.3989 56.5742 69.3011 55.0283 69.8557C54.1718 70.1636 53.1714 70.1674 52.7852 69.2681C52.2319 67.9793 51.6332 68.5494 50.9949 69.0146C50.5575 69.3332 50.1915 69.7498 49.7937 70.1228C49.503 70.993 50.1191 71.3232 50.7294 71.3921C51.92 71.5271 53.1193 71.837 54.3301 71.5174C54.5715 71.5602 54.9539 71.4077 54.8632 71.9079C54.2857 72.1157 53.7073 72.3226 53.1299 72.5304C52.1295 72.8791 51.0422 72.9432 50.094 73.4657C49.2356 73.489 48.3057 73.556 47.8702 72.6236C47.4173 71.6553 48.044 70.9133 48.606 70.1898C49.5156 69.0175 50.7815 68.2969 51.9557 67.4587C52.6905 66.6857 53.4157 66.9294 54.0067 67.5908C54.6652 68.328 55.1963 68.259 55.8336 67.6122C55.1316 66.808 53.9072 67.9278 53.4234 66.7672C54.6816 65.9359 57.2897 65.9767 58.5769 66.8459Z" fill="#383838"/>
<path d="M51.9755 23.5393C50.7453 22.6895 49.4475 21.9222 48.5273 20.6937C47.6418 19.5107 47.8031 18.4055 48.9521 17.7422C49.4349 18.1501 50.3069 18.1073 50.3861 18.9882C50.4035 19.7001 49.3702 20.0701 49.769 20.9093C50.2123 21.3045 50.6429 21.7173 51.1035 22.0912C51.7592 22.6235 52.2594 22.8663 52.7711 21.7843C53.2298 20.8141 54.2775 20.9083 55.1591 21.222C56.6587 21.7562 57.8648 22.6837 58.5783 24.1657C56.7273 25.3254 54.7729 24.796 52.8349 24.5163C53.6035 23.4781 54.8675 23.9443 56.034 23.551C55.219 22.8187 54.6753 22.6099 53.9917 23.5257C53.4133 24.2988 52.6533 24.5707 51.9755 23.5393Z" fill="#2F2F2F"/>
<path d="M51.9742 23.5393C52.7138 23.7598 53.3888 23.9336 53.2594 22.7148C53.1957 22.1175 53.5771 21.8174 54.1758 21.7756C55.1095 21.7105 57.1508 22.9187 57.5351 23.7899C57.8721 24.5533 57.2976 24.5105 56.8611 24.5163C55.518 24.5319 54.1748 24.5173 52.8326 24.5154C52.3073 24.4707 51.7743 24.4542 51.332 24.1026C51.5464 23.9142 51.7598 23.7268 51.9742 23.5393Z" fill="#CA9575"/>
<path d="M53.4255 66.7726C54.5128 66.6833 55.5991 66.5774 56.6874 66.5143C57.0079 66.4958 57.4502 66.3696 57.597 66.8047C57.7283 67.1951 57.3642 67.4321 57.1354 67.6778C56.4402 68.4247 55.6204 68.988 54.6065 69.1754C53.8948 69.3065 53.216 69.1783 53.2807 68.2547C53.3695 66.9921 52.6578 67.2835 51.9568 67.4641C51.9501 67.3447 51.9443 67.2262 51.9375 67.1067C52.3662 66.692 52.9369 66.9164 53.4255 66.7726Z" fill="#CA9575"/>
<path d="M71.212 56.5487C72.2665 57.1334 73.2524 56.4739 74.2672 56.368C75.0455 56.2865 75.4231 56.505 74.9094 57.248C72.3756 60.9133 69.8785 64.6486 64.5686 64.1222C63.884 64.0542 63.1771 64.1921 62.4819 64.2543C62.0445 64.2931 61.5366 64.533 61.2353 64.0746C60.8906 63.5521 61.4757 63.2976 61.6862 62.9344C61.7268 62.8645 61.608 62.7023 61.5636 62.5828C62.7986 61.2309 64.4228 61.3484 66.0257 61.3843C67.0811 61.4086 68.0825 61.4047 68.9197 60.5171C70.1103 59.2545 70.1228 59.103 68.4745 58.5902C69.2798 57.7025 70.1972 57.0625 71.212 56.5487Z" fill="#E8B693"/>
<path d="M61.5638 28.4299C61.9819 28.0851 61.5387 27.9394 61.3977 27.7345C60.8193 26.8944 61.2596 26.5448 62.0302 26.7021C63.8571 27.076 65.7198 26.738 67.5506 27.1392C68.9778 27.4519 70.1616 28.022 71.1581 29.1068C72.3458 30.4005 73.5007 31.7165 74.5136 33.15C74.7869 33.5365 75.3479 33.9648 75.0447 34.4553C74.7193 34.9807 74.1332 34.5446 73.6668 34.4757C72.7408 34.3407 71.8543 33.8687 70.88 34.1571C69.7165 33.7968 68.9295 32.8489 67.8461 32.3303C67.9735 32.1671 68.0199 32.0447 68.0875 32.0311C68.7161 31.9 69.4219 32.7877 69.9695 31.9534C70.2138 31.5805 68.3887 29.742 67.651 29.675C66.7627 29.5934 65.8598 29.5798 64.9695 29.6313C63.6524 29.707 62.513 29.3642 61.5638 28.4299Z" fill="#E8B693"/>
<path d="M60.291 43.252C56.8197 44.1096 53.3058 43.3307 49.817 43.5259C49.4733 42.9393 49.7205 42.5391 50.184 42.1458C50.5171 41.8622 51.1515 41.802 51.0405 41.1309C51.305 40.7356 51.6565 40.3908 52.1393 40.4598C53.9006 40.7123 55.6136 40.08 57.3633 40.215C57.766 40.3024 57.9687 39.9596 58.2613 39.8023C58.8812 39.4682 59.5494 39.338 60.1983 39.6595C60.9409 40.0276 60.5537 40.7045 60.5025 41.2474C60.4388 41.9156 60.7594 42.6285 60.291 43.252Z" fill="#E8B693"/>
<path d="M49.8203 47.4796C52.0943 47.5689 54.351 47.5495 56.6231 47.227C59.0632 46.8813 59.6589 47.7894 59.461 51.0779C58.8652 51.9238 58.2472 50.9206 57.6437 51.1002C56.0881 50.7894 54.5306 50.4204 52.9363 50.534C51.9968 50.601 51.29 50.3281 50.7299 49.5958C50.6517 48.7926 49.2371 48.5702 49.8203 47.4796Z" fill="#E8B693"/>
<path d="M43.217 41.756C42.4918 41.2054 42.1326 40.474 42.0872 39.5601C42.0022 37.8528 41.9559 36.1395 41.7772 34.4419C41.5349 32.1411 42.7448 30.5201 44.1237 28.9506C44.3062 28.7428 44.5157 28.3835 44.8411 28.6447C45.1298 28.8759 44.9097 29.1672 44.7716 29.4469C43.5375 31.9478 43.4719 34.5594 44.087 37.2283C44.9473 38.4054 44.6451 39.8437 44.8189 41.1432C44.9348 41.9979 43.9267 41.9532 43.217 41.756Z" fill="#5F4E38"/>
<path d="M44.0896 53.7828C43.5952 55.1978 43.6522 56.6838 43.797 58.1134C43.9409 59.5382 44.4362 60.927 44.6506 62.3906C43.1896 60.9328 41.6717 59.5217 41.7962 57.1723C41.8947 55.3144 42 53.4574 42.0753 51.5985C42.1139 50.6341 42.4519 49.8426 43.2196 49.2492C44.8592 49.0851 45.0986 49.3143 44.6767 50.8682C44.414 51.8316 44.9673 52.9544 44.0896 53.7828Z" fill="#5F4E38"/>
<path d="M67.6009 54.4624C67.4821 55.1122 67.796 56.3748 67.1326 56.267C66.0704 56.0941 66.9704 55.0471 66.9443 54.3779C66.9269 53.9293 67.0322 53.4485 66.9086 53.0357C66.1988 50.6757 66.1612 48.2924 66.5214 45.8779C66.5638 45.5934 66.5445 45.2505 66.4238 44.997C65.4949 43.0371 65.7141 40.9714 65.8686 38.9221C65.9294 38.1121 66.0096 37.3342 65.717 36.5495C65.6088 36.261 65.3221 35.8065 65.8136 35.6569C66.2635 35.5209 66.3282 36.0269 66.4402 36.3368C66.5416 36.6165 66.5783 36.9195 66.644 37.2128C66.7705 38.7823 67.569 40.1565 67.8336 41.7192C68.5182 45.7604 68.3724 49.7356 67.6154 53.7253C67.571 53.9671 67.4773 54.2148 67.6009 54.4624Z" fill="#A15958"/>
<path d="M69.6725 51.0889C69.1772 51.8018 68.6808 52.5137 68.1855 53.2266C67.4477 52.0019 67.9779 50.683 68.0686 49.4612C68.2589 46.8914 68.1565 44.374 67.6795 41.8547C67.5385 41.1117 67.3435 40.3066 68.4684 40.1327C69.3307 40.1774 69.658 40.8786 69.8714 41.5021C70.8708 44.4128 70.9288 47.3809 70.1553 50.3557C70.0868 50.6169 69.8936 50.884 69.6725 51.0889Z" fill="#C78683"/>
<path d="M69.6717 51.0859C69.9431 49.0581 70.0222 47.0214 69.9856 44.9761C69.9547 43.2308 69.4805 41.6429 68.4937 40.2084C68.4097 40.1074 68.4087 40.0054 68.4888 39.9025C69.8822 39.85 70.4239 40.8727 70.7252 41.9284C71.3036 43.9534 71.3055 46.0823 71.3509 48.1626C71.376 49.2911 71.012 50.5693 69.6717 51.0859Z" fill="#CF997E"/>
<path d="M68.4899 39.9035C68.4919 40.0055 68.4928 40.1074 68.4948 40.2094C68.1597 40.5328 67.8922 40.8922 67.9926 41.3962C68.7738 45.3277 68.5682 49.2747 68.1858 53.2246C67.9917 53.6364 67.7966 54.0491 67.6025 54.4609C66.9826 52.7798 67.5388 51.084 67.7049 49.4408C68.0602 45.9318 67.6392 42.5627 66.6398 39.2285C66.4351 38.5448 66.2159 37.8834 66.6456 37.2123C67.1825 38.1621 67.729 39.1071 68.4899 39.9035Z" fill="#79453A"/>
<path d="M43.2148 41.752C44.0964 41.7637 44.4141 41.3937 44.2809 40.4662C44.1273 39.3978 44.1438 38.3052 44.0858 37.2243C44.277 36.6959 44.4672 36.1666 44.6584 35.6383C45.3662 35.9539 45.2214 36.5969 45.2224 37.1689C45.2243 38.6714 45.5091 40.0854 46.4979 41.2684C46.8784 41.7229 47.2048 42.4756 47.9908 41.7724C49.1196 42.0939 50.1557 41.9725 51.0402 41.1276C51.6968 41.686 50.9127 41.855 50.7399 42.1629C50.4724 42.6388 50.1286 43.0719 49.8167 43.5226C49.7144 43.5226 49.612 43.5235 49.5097 43.5245C48.4127 43.5488 47.3158 43.5138 46.2189 43.5391C45.1538 43.0505 44.4025 42.0308 43.2148 41.752Z" fill="#CA9575"/>
<path d="M44.0868 53.7831C44.1467 52.7012 44.1409 51.6115 44.2857 50.5412C44.4093 49.6273 44.109 49.2311 43.2148 49.2495C44.4006 48.9669 45.1528 47.9413 46.2305 47.4732C47.3226 47.4781 48.4156 47.4654 49.5087 47.4829C49.613 47.4819 49.7173 47.481 49.8206 47.481C50.0215 48.2307 51.2005 48.5551 50.7302 49.5972C49.8708 49.0679 49.0037 48.6056 47.9956 49.2437C47.2096 48.5192 46.8793 49.2826 46.4979 49.7371C45.5111 50.9161 45.2301 52.3292 45.2243 53.8268C45.2224 54.4028 45.3672 55.0457 44.6613 55.3672C44.4692 54.8388 44.278 54.3115 44.0868 53.7831Z" fill="#CA9575"/>
<path d="M47.1122 30.4789C47.035 29.9981 47.3025 29.6534 47.6076 30.1234C49.0666 32.3689 50.4407 34.6755 49.4934 37.5532C49.4181 37.7814 49.4365 38.0679 49.0859 38.1641C48.9479 37.6416 48.8098 37.1229 48.6717 36.6033C48.5355 36.5383 48.3386 36.4576 48.3415 36.3256C48.3791 34.489 47.5323 32.8875 47.0195 31.1976C47.0543 30.9577 47.1084 30.7217 47.1122 30.4789Z" fill="#CA9575"/>
<path d="M47.1494 53.5514C47.8495 53.4737 48.3941 53.6757 48.6509 54.3954C49.4659 55.8707 49.0565 57.2401 48.3641 58.6279C48.1218 59.1135 47.7094 59.4943 47.5704 60.0304C46.3981 60.3237 46.5884 59.1903 46.1838 58.6969C46.1413 58.5969 46.0959 58.4861 45.9964 58.4094C45.8613 58.3803 45.7328 58.388 45.6044 58.3919C45.2297 57.8558 45.0472 57.2517 44.9816 56.6059C44.9072 56.4816 44.8889 56.3514 44.9362 56.2135C45.5088 55.556 45.9771 54.748 47.0016 54.745C47.5385 54.4071 46.8124 53.9079 47.1494 53.5514Z" fill="white"/>
<path d="M45.0976 56.1665C45.06 56.3112 45.0233 56.4559 44.9856 56.6016C44.8784 56.1888 44.7712 55.776 44.6641 55.3633C44.721 53.4578 44.6689 51.5338 45.7929 49.8429C46.1009 49.3796 46.3655 48.8571 46.8734 48.624C47.4383 48.3647 48.1219 48.1239 47.9993 49.2408C47.4866 49.4039 47.1341 49.7672 46.8319 50.1926C46.5402 50.8374 46.4533 51.5522 46.1492 52.1932C46.1366 52.3234 46.1434 52.4516 46.1704 52.5798C46.07 52.9168 46.2448 53.1052 46.5209 53.2392C46.6175 53.3538 46.6484 53.485 46.6107 53.6316C45.676 54.2163 45.734 55.4011 45.0976 56.1665Z" fill="#8C5A41"/>
<path d="M47.9915 41.7733C47.6777 43.3467 46.8762 42.5008 46.4224 41.986C45.4104 40.84 44.8214 39.4551 44.7374 37.8943C44.6969 37.1436 44.6853 36.3909 44.6602 35.6392C44.7335 35.1633 44.7635 34.666 45.2724 34.4106C45.8411 34.6116 45.7358 35.1215 45.7822 35.5537C45.8556 36.2384 46.1337 36.8066 46.6686 37.2427C46.9709 37.6661 46.7159 38.0604 46.6097 38.4615C46.5866 38.5956 46.5605 38.7296 46.5412 38.8636C46.5499 39.526 46.4572 40.2029 46.8309 40.8099C47.1389 41.2266 47.4865 41.5966 47.9915 41.7733Z" fill="#8C5A41"/>
<path d="M46.5537 37.5714C44.9228 37.2334 44.7558 36.8216 45.2714 34.4121C45.3458 34.0974 45.2724 33.7332 45.5746 33.4952C46.3085 33.5399 47.0993 33.4438 47.501 34.2955C47.9423 35.4522 47.9182 36.538 47.0192 37.4918C46.8763 37.5918 46.7208 37.618 46.5537 37.5714Z" fill="#1E1E1E"/>
<path d="M47.3338 60.1656C47.9798 58.2902 48.9174 56.4818 48.6528 54.3947C48.8073 53.9849 48.9608 53.576 49.124 53.1428C50.2422 55.6777 49.2776 59.3207 47.1184 60.8047C47.1136 60.5658 47.1117 60.3278 47.3338 60.1656Z" fill="#CA9575"/>
<path d="M47.124 34.4603C46.6914 34.0019 45.7615 34.3515 45.5752 33.493L45.5742 33.5299C45.6775 33.4668 45.7741 33.3959 45.8629 33.3153C46.1391 33.1074 46.0725 32.7869 46.1111 32.4994C46.4288 31.873 46.5022 31.0572 47.3461 30.8241C48.0124 32.6966 48.9935 34.4962 48.6719 36.5979C48.6449 36.7718 48.6178 36.9466 48.5908 37.1205C48.4247 37.3594 48.3108 37.6391 48.0549 37.8081C47.9187 37.8615 47.7768 37.8887 47.631 37.8906C47.407 37.8741 47.2206 37.7857 47.0796 37.607C47.293 36.562 48.361 35.5277 47.124 34.4603Z" fill="white"/>
<path d="M60.292 43.2515C60.2167 42.663 60.0767 42.0736 60.0776 41.485C60.0786 39.7951 59.8961 39.6416 58.214 40.1582C57.9243 40.2476 57.6588 40.3632 57.3633 40.2146C59.3689 38.6655 60.0496 38.6646 61.5676 40.2108C61.6467 40.4963 61.5299 40.6021 61.2508 40.5613C60.9158 40.8954 60.9872 41.3383 60.9361 41.7481C60.3219 42.2638 61.472 43.0448 60.6705 43.5312C60.545 43.4381 60.4185 43.3448 60.292 43.2515Z" fill="#CA9575"/>
<path d="M57.6445 51.1017C58.2461 50.7617 58.8573 51.2134 59.4618 51.0803C60.2546 51.0541 60.0779 50.484 60.0702 49.9984C60.0566 49.1087 59.9118 48.1842 60.6727 47.481C61.4732 47.9676 60.3251 48.7436 60.9334 49.2593C60.9875 49.6682 60.9141 50.111 61.2501 50.4432C61.5292 50.4063 61.6489 50.516 61.5775 50.8025C60.1397 52.2584 59.5449 52.304 57.6445 51.1017Z" fill="#CA9575"/>
<path d="M61.2519 46.8468C62.4946 45.6571 62.4946 45.3269 61.2461 44.1799C61.2828 43.8419 61.1795 43.4573 61.559 43.2349C61.7376 43.4068 61.9104 43.5855 62.0949 43.7496C63.7934 45.2579 63.7924 45.7872 62.0891 47.2606C61.9017 47.4227 61.7212 47.5917 61.5367 47.7578C61.1833 47.5364 61.2799 47.1722 61.2519 46.8468Z" fill="#CA9575"/>
<path d="M47.1638 37.4536C47.3559 37.4895 47.5481 37.5255 47.7393 37.5614C47.8581 37.7236 47.6282 37.6809 47.8262 37.6721C47.9092 37.6682 47.973 37.5488 48.0261 37.4633C48.2144 37.3497 48.4017 37.236 48.59 37.1214C48.6837 37.9839 48.5649 38.822 48.3032 39.6427C46.96 40.036 46.5448 39.8049 45.9336 38.3228C46.1402 38.0713 46.3469 37.8197 46.5535 37.5682C46.6356 37.5381 46.7148 37.5012 46.7901 37.4584C46.9137 37.3089 47.0373 37.3079 47.1638 37.4536Z" fill="white"/>
<path d="M26.1095 62.0139C24.8388 62.7394 23.8732 62.2139 22.8516 61.2155C23.851 60.7115 24.6727 60.1569 25.1961 59.2702C25.2617 59.1605 25.3274 59.1235 25.3921 59.1604C25.4568 59.1974 25.4896 59.2343 25.4896 59.2712C25.3844 59.5946 25.3342 59.952 25.1642 60.2366C24.2131 61.8293 24.2034 61.8235 26.1095 62.0139Z" fill="#CA9575"/>
<path d="M62.418 35.8438C63.008 34.1082 63.5584 33.708 65.2974 33.8294C64.0557 34.3868 63.3498 35.257 62.418 35.8438Z" fill="#CA9575"/>
<path d="M47.332 60.1656C47.2605 60.3783 47.1881 60.592 47.1167 60.8047C46.4089 60.1297 45.9154 59.3187 45.6055 58.3912C45.7069 58.0795 45.8073 57.7677 45.9087 57.455C46.3982 57.5443 46.7208 57.7551 46.5382 58.332C46.8019 58.9439 47.0664 59.5547 47.332 60.1656Z" fill="#1A1A1A"/>
<path d="M62.2891 54.9156C63.4072 55.7091 63.9634 56.7337 65.5113 57.0377C63.5897 57.3378 62.8791 56.8212 62.2891 54.9156Z" fill="#CA9575"/>
<path d="M46.5152 53.5386C46.5162 53.4395 46.5171 53.3395 46.5181 53.2404C46.7286 53.3434 46.9391 53.4463 47.1496 53.5493C47.9173 54.0903 48.2012 54.8313 47.9569 55.7306C47.8207 56.2298 47.5648 56.6339 47.1168 55.9152C47.1313 55.4567 47.0386 55.0819 46.6118 54.7866C46.1299 54.4515 46.1029 53.9902 46.5152 53.5386Z" fill="#7F8980"/>
<path d="M45.9125 33.5547C45.8005 33.5479 45.6885 33.5421 45.5755 33.5353C45.5446 32.2397 46.0574 31.2209 47.1147 30.4798C47.1929 30.5964 47.2702 30.7129 47.3474 30.8295C47.079 31.4462 46.8115 32.0629 46.544 32.6806C46.7198 33.2536 46.4031 33.4673 45.9125 33.5547Z" fill="#333333"/>
<path d="M45.9324 38.3229C46.5775 39.026 47.3769 39.4485 48.3019 39.6428C48.2498 39.9846 48.721 40.3925 48.2208 40.6654C47.6868 40.9568 47.5131 40.3362 47.1549 40.173C46.4085 39.9837 46.0116 39.4874 45.9062 38.7337C45.915 38.5968 45.9237 38.4598 45.9324 38.3229Z" fill="#1E1E1E"/>
<path d="M46.1689 52.5859C46.081 52.4733 45.9932 52.3606 45.9062 52.248C46.0386 51.5225 46.4122 51.0145 47.1558 50.8387C47.5237 50.7494 47.9592 50.1152 48.2383 50.8067C48.444 51.3156 48.2102 51.7653 47.5043 51.7458C46.897 51.7293 46.5822 52.2518 46.1689 52.5859Z" fill="#1E1E1E"/>
<path d="M61.254 46.8449C61.3496 47.1489 61.4442 47.4529 61.5398 47.7569C61.338 48.257 61.1362 48.7562 60.9343 49.2564C60.664 49.4545 60.3695 49.6041 60.41 49.066C60.4506 48.5328 60.5819 48.0065 60.6736 47.4771C60.8668 47.2664 61.0599 47.0556 61.254 46.8449Z" fill="#181818"/>
<path d="M61.5594 43.2347C61.4551 43.5494 61.3508 43.865 61.2465 44.1797C61.0544 43.9631 60.8622 43.7456 60.6701 43.529C60.5764 42.9968 60.4383 42.4674 60.4016 41.9304C60.364 41.3836 60.6681 41.5526 60.9356 41.7458C61.1432 42.2421 61.3518 42.7384 61.5594 43.2347Z" fill="#171717"/>
<path d="M46.2188 43.5371C47.3138 43.0943 48.4107 43.069 49.5096 43.5226C48.4155 44.0344 47.3185 44.0082 46.2188 43.5371Z" fill="#8C5A41"/>
<path d="M49.5087 47.4869C48.4147 47.9365 47.3226 47.9084 46.2305 47.4772C47.3245 46.9896 48.4176 46.975 49.5087 47.4869Z" fill="#8C5A41"/>
<path d="M25.4889 59.2734C25.3913 59.2734 25.2928 59.2734 25.1953 59.2725C25.2532 58.5557 25.7061 58.1099 26.2372 57.7078C26.6698 57.3796 27.0387 57.0261 26.3386 56.5851C27.3216 56.5783 27.3419 57.0338 26.8349 57.6855C26.4091 58.2333 25.9388 58.7461 25.4889 59.2734Z" fill="#CA9575"/>
<path d="M45.9072 38.7361C46.3234 39.2158 46.7396 39.6956 47.1557 40.1754C47.0466 40.3881 46.9385 40.5998 46.8294 40.8125C46.2355 40.2482 45.6465 39.683 45.9072 38.7361Z" fill="#CA9575"/>
<path d="M47.1536 50.833C46.7374 51.303 46.3203 51.7731 45.9041 52.2422C45.6366 51.2962 46.2546 50.7543 46.8282 50.1929C46.9363 50.4066 47.0455 50.6193 47.1536 50.833Z" fill="#CA9575"/>
<path d="M61.5773 50.8047C61.4682 50.6852 61.3591 50.5658 61.25 50.4463C61.5136 50.121 61.5619 49.5713 62.1673 49.5635C62.3798 50.1889 61.9356 50.4764 61.5773 50.8047Z" fill="#E8B693"/>
<path d="M61.25 40.5567C61.3553 40.4401 61.4605 40.3236 61.5667 40.206C61.9839 40.5052 62.2842 40.8597 62.2359 41.4453C61.5551 41.4385 61.5107 40.8849 61.25 40.5567Z" fill="#E8B693"/>
<path d="M24.1273 45.0312C22.2086 42.8073 19.587 42.2944 17.6133 40.586C19.7869 40.0761 23.1829 42.2984 24.1273 45.0312Z" fill="#5F4E38"/>
<path d="M20.1562 56.4664C21.4976 57.2609 22.9797 57.5115 24.7188 57.5522C23.2172 58.7585 21.6183 58.3457 20.1562 56.4664Z" fill="#5F4E38"/>
<path d="M26.4135 63.2552C25.5271 64.6936 23.6548 64.9442 22.0586 63.8234C23.6045 63.5932 25.1196 64.2556 26.4135 63.2552Z" fill="#5F4E38"/>
<path d="M21.0491 29.2456C19.7726 30.0886 18.4729 30.884 17.2852 32.3359C17.7863 30.3401 18.946 29.432 21.0491 29.2456Z" fill="#5F4E38"/>
<path d="M49.7694 20.9062C49.3445 20.5247 48.7188 20.1828 48.8549 19.5389C48.9737 18.9804 49.6458 19.1213 50.09 18.9911C51.4862 18.2151 52.8313 18.6832 54.1755 19.1621C54.3773 19.2533 54.4401 19.4039 54.3657 19.6137C52.7184 19.6292 51.1676 19.9954 49.7694 20.9062Z" fill="#CA9575"/>
<path d="M54.3159 19.3832C52.9351 18.954 51.506 19.054 50.0913 18.9918C49.7061 18.5791 48.4054 19.0103 48.9529 17.74C50.5259 17.4185 51.8574 18.4043 53.3455 18.5684C53.8746 18.6267 54.3796 18.9025 54.8953 19.0783C54.9223 19.6037 54.6297 19.5153 54.3159 19.3832Z" fill="#2F2F2F"/>
<path d="M54.3164 19.3862C54.5095 19.2842 54.7027 19.1823 54.8958 19.0813C56.573 19.5882 57.9655 20.5138 59.0286 21.9531C57.5126 21.0761 56.1028 20.0126 54.3666 19.6174C54.3521 19.5397 54.3348 19.4629 54.3164 19.3862Z" fill="#2F2F2F"/>
<path d="M54.3243 71.6348C53.0323 72.0602 51.7007 72.0486 50.3691 71.9786C49.8419 71.9505 49.1206 72.0767 48.911 71.5057C48.6667 70.8404 49.3436 70.4917 49.7927 70.1207C51.1571 71.1191 52.7397 71.3221 54.36 71.3833C54.5609 71.4979 54.5493 71.5814 54.3243 71.6348Z" fill="#CA9575"/>
<path d="M54.3242 71.6353C54.3358 71.5508 54.3474 71.4673 54.3599 71.3837C56.0102 70.9914 57.4055 70.0687 58.8626 69.2306C57.7966 70.5359 56.5094 71.4877 54.863 71.9062C54.6834 71.8159 54.5038 71.7256 54.3242 71.6353Z" fill="#383838"/>
<path d="M50.0956 73.4687C49.916 72.9637 49.1734 73.1074 48.9688 72.3567C50.4074 73.1035 51.769 72.5606 53.1315 72.5334C52.1852 73.0627 51.2041 73.4745 50.0956 73.4687Z" fill="#CA9575"/>
<path d="M46.5154 53.5416C46.6293 54.3565 47.9802 54.8537 47.1169 55.9182C46.8794 55.7511 46.6612 55.5103 46.3975 55.4413C46.1677 55.3811 46.1368 55.6433 46.1446 55.8638C46.1542 56.1746 46.8948 56.5174 46.1745 56.7758C45.6927 56.9486 45.3373 56.5912 45.0949 56.1726C45.2118 55.1004 44.3707 53.5047 46.5154 53.5416Z" fill="#1A1A1A"/>
<path d="M46.5397 58.3359C46.3302 58.0436 46.1197 57.7513 45.9102 57.4589C46.4982 57.0666 47.1403 57.0685 48.0046 57.1219C47.5778 57.8018 47.263 58.2981 46.5397 58.3359Z" fill="#7F8980"/>
<path d="M47.1657 37.4561C47.0411 37.458 46.9175 37.459 46.793 37.4609C47.1638 36.4907 47.5461 35.5214 47.1261 34.4628C48.3717 35.3738 48.3824 36.1352 47.1657 37.4561Z" fill="#7F8980"/>
<path d="M45.9102 33.5553C46.1207 33.2639 46.3312 32.9726 46.5426 32.6812C47.151 32.7511 47.5391 33.0697 47.7033 33.802C47.0496 33.9914 46.4702 33.8981 45.9102 33.5553Z" fill="#7F8980"/>
<path d="M48.0284 37.4667C48.0139 37.5638 48.0032 37.6619 47.9839 37.758C47.9077 38.1475 47.6788 38.3777 47.2781 38.3582C47.167 38.3524 46.9594 38.198 46.9691 38.1446C47.0483 37.7328 47.5272 37.8241 47.7416 37.5648C47.8362 37.5317 47.9328 37.4987 48.0284 37.4667Z" fill="#7F8980"/>
<path d="M45.9104 57.4568L45.3793 56.1428L45.0964 56.1719L44.9844 56.606C44.9844 56.606 45.0858 57.8035 45.6072 58.3921C46.1286 58.9806 45.8457 58.1872 45.8457 58.1872L45.9104 57.4568Z" fill="#1A1A1A"/>
</g>
</g>
</g>
<defs>
<clipPath id="clip0_394_15848">
<rect width="90" height="90" fill="white" transform="matrix(0 -1 1 0 0 90)"/>
</clipPath>
</defs>
</svg>
