<svg width="90" height="90" viewBox="0 0 90 90" fill="none" xmlns="http://www.w3.org/2000/svg">
<path d="M20.5556 4.91108C8.43117 8.43108 2.46673 17.4592 1.00006 21.5333L5.40006 39.6222L41.089 5.39997C36.6889 4.58515 26.4223 3.34663 20.5556 4.91108Z" fill="url(#paint0_linear_2408_2359)"/>
<path d="M53.0056 87.2584L56.7334 81.6667L22.5112 74.3333L25.2282 85.9776C25.6412 87.7477 27.2193 89 29.037 89H49.7513C51.059 89 52.2802 88.3464 53.0056 87.2584Z" fill="#2D2D2D"/>
<path d="M53.0056 2.74162L56.7334 8.33333L22.5112 15.6667L25.2282 4.02239C25.6412 2.25226 27.2193 1 29.037 1L49.7513 1C51.059 1 52.2802 1.65355 53.0056 2.74162Z" fill="#2D2D2D"/>
<path d="M15.3053 21.5288L15.3356 21.3245C15.3356 21.3245 7.91847 29.8787 6.411 40.6385L1.00006 45.2192L6.35048 50.5165C7.55072 59.0838 12.4937 66.248 14.4604 68.8131C20.9263 78.6707 31.436 85.0889 43.3119 85.0889C69.9334 86.0667 88.5112 67.1645 88.5112 45.4889C88.5112 23.8132 70.4223 2.95557 43.6129 5.88884C32.1746 5.88884 21.9024 12.0839 15.3053 21.5288Z" fill="#EBEBF0"/>
<path d="M89.0001 45C85.5778 17.6222 69.9334 4.91111 40.6742 4.91111C30.0247 4.91111 20.4609 11.3214 14.3189 21.0936L14.347 20.8822C14.347 20.8822 7.44146 29.7336 6.03795 40.8672C6.03795 40.8672 3.61407 43.2983 1.00006 45.4889" fill="#D2D2D7"/>
<path d="M33.1785 10.5359L44.7322 14.2429L44.7332 14.2419L47.0838 14.9861L47.6043 15.1511L47.6365 15.697L49.327 44.0447H49.4647L49.4149 44.8865L49.3953 45.2087L49.4149 45.53L49.4647 46.3718H49.327L47.6365 74.7195L47.6043 75.2654L47.0838 75.4304L44.7332 76.1755H44.7322L33.1785 79.8806L31.9344 80.2791L32.1512 78.9919L37.8455 45.2087L32.1512 11.4246L31.9344 10.1375L33.1785 10.5359Z" fill="#3D1212" stroke="black" stroke-width="1.58962"/>
<path d="M33.5302 76.6822C33.5302 76.6822 47.8029 69.1603 49.8149 51.9962V74.0066L32.7778 79.2222L33.5302 76.6822Z" fill="#ED1C24"/>
<path d="M33.199 13.4696C33.199 13.4696 47.4718 20.9916 49.4838 38.1556V16.1452L32.7778 11.2667L33.199 13.4696Z" fill="#ED1C24"/>
<path d="M44.5112 85.0889C44.5112 85.0889 52.0316 49.9063 44.0223 45H89.0001C89.0001 45 89.0001 80.1293 50.6904 84.9456L44.5112 85.0889Z" fill="#D2D2D7"/>
<path d="M44.5112 5.05437C44.5112 5.05437 52.0316 40.0936 44.0223 44.9999H89.0001C89.0001 44.9999 89.0001 9.87061 50.6904 5.05432L44.5112 5.05437Z" fill="#A0A0A5"/>
<mask id="mask0_2408_2359" style="mask-type:alpha" maskUnits="userSpaceOnUse" x="47" y="5" width="39" height="39">
<path d="M47.9334 5.88888C77.6579 13.7111 85.089 33.9185 85.089 43.0444H50.3779C53.3112 26.9111 49.889 10.7778 47.9334 5.88888Z" fill="black"/>
</mask>
<g mask="url(#mask0_2408_2359)">
<path d="M44.0223 37.1778V42.0667L96.8223 41.9164L93.3687 37.1778H44.0223Z" fill="#2D2D2D"/>
<path d="M46.0879 27.1469V32.0358L91.0657 31.8849L88.14 27.1469L46.0879 27.1469Z" fill="#2D2D2D"/>
<path d="M45.1101 20.3025L45.8765 24.2136L86.1768 24.0998L83.6374 20.3025L45.1101 20.3025Z" fill="#2D2D2D"/>
<path d="M44.7372 14.9996L45.7309 17.6752L81.5362 17.5987L79.8159 14.9996L44.7372 14.9996Z" fill="#2D2D2D"/>
<path d="M43.0445 10.3104L43.9253 12.275L72.242 12.2196L70.9782 10.3104L43.0445 10.3104Z" fill="#2D2D2D"/>
<path d="M43.0445 6.86664L43.9294 7.84442L72.3778 7.81685L71.1081 6.86664L43.0445 6.86664Z" fill="#2D2D2D"/>
</g>
<mask id="mask1_2408_2359" style="mask-type:alpha" maskUnits="userSpaceOnUse" x="47" y="46" width="39" height="39">
<path d="M47.9334 84.1111C77.6579 76.2889 85.089 56.0815 85.089 46.9556H50.3779C53.3112 63.0889 49.889 79.2222 47.9334 84.1111Z" fill="url(#paint1_linear_2408_2359)"/>
</mask>
<g mask="url(#mask1_2408_2359)">
<path d="M44.0223 52.8222V47.9333L96.8223 48.0836L93.3687 52.8222H44.0223Z" fill="#4B5054"/>
<path d="M46.0879 62.8531V57.9642L91.0657 58.1151L88.14 62.8531H46.0879Z" fill="#4B5054"/>
<path d="M45.1101 69.6975L45.8765 65.7864L86.1768 65.9002L83.6374 69.6975H45.1101Z" fill="#4B5054"/>
<path d="M44.7372 75.0004L45.7309 72.3248L81.5362 72.4013L79.8159 75.0004H44.7372Z" fill="#4B5054"/>
<path d="M43.0445 79.6896L43.9253 77.725L72.242 77.7804L70.9782 79.6896H43.0445Z" fill="#4B5054"/>
<path d="M43.0445 83.1334L43.9294 82.1556L72.3778 82.1832L71.1081 83.1334H43.0445Z" fill="#4B5054"/>
</g>
<path d="M1 21.5334C3.34667 32.4845 14.6889 43.6963 20.0667 45.4889L6.37778 50.3778L1 45.4889L1 21.5334Z" fill="#ED1C24"/>
<path d="M0.510742 21.4482L0.540039 21.3682C2.02741 17.2366 7.93295 8.29718 19.8477 4.61328L20.4189 4.44141L20.4297 4.43848C21.7228 4.09367 23.2105 3.88731 24.7852 3.77637C25.2969 1.85667 27.0381 0.511093 29.0361 0.510742H49.751C51.2221 0.510785 52.5961 1.24667 53.4121 2.4707L55.3086 5.31738C72.344 8.79451 80.9065 18.6815 85.1934 27.7227C87.3412 32.2527 88.4147 36.5648 88.9512 39.7441C89.2195 41.3342 89.3535 42.6432 89.4209 43.5566C89.4546 44.0134 89.472 44.372 89.4805 44.6172C89.4847 44.7397 89.4862 44.8341 89.4873 44.8984C89.4878 44.9306 89.4881 44.9557 89.4883 44.9727C89.4884 44.981 89.4892 44.9876 89.4893 44.9922V44.999V45C89.4893 45.041 89.4846 53.2338 85.1904 62.2861C80.9024 71.3255 72.3394 81.2085 55.3086 84.6846L53.4121 87.5293C52.5961 88.7533 51.2221 89.4892 49.751 89.4893H29.0361C26.9917 89.4889 25.2166 88.08 24.752 86.0889L23.0264 78.7002C19.5563 76.0948 16.5216 72.8418 14.0645 69.1006C12.0899 66.5234 7.14821 59.3597 5.8916 50.751L3.99512 48.873L0.670898 45.8506L0.510742 45.7051L0.510742 21.4482Z" stroke="black" stroke-width="0.977778"/>
<defs>
<linearGradient id="paint0_linear_2408_2359" x1="15.6667" y1="17.6222" x2="4.42228" y2="30.8222" gradientUnits="userSpaceOnUse">
<stop stop-color="#721113"/>
<stop offset="1" stop-color="#490C0D"/>
</linearGradient>
<linearGradient id="paint1_linear_2408_2359" x1="85.089" y1="65.5333" x2="47.9334" y2="65.5333" gradientUnits="userSpaceOnUse">
<stop stop-color="#3E3E3E"/>
<stop offset="1" stop-color="#282828"/>
</linearGradient>
</defs>
</svg>
