<svg width="90" height="90" viewBox="0 0 90 90" fill="none" xmlns="http://www.w3.org/2000/svg">
<g clip-path="url(#clip0_2452_784)">
<mask id="mask0_2452_784" style="mask-type:luminance" maskUnits="userSpaceOnUse" x="0" y="0" width="90" height="90">
<path d="M90 3.93402e-06L0 0L-3.93402e-06 90L90 90L90 3.93402e-06Z" fill="white"/>
</mask>
<g mask="url(#mask0_2452_784)">
<path d="M50.6171 68.8477C50.6171 68.8477 45.1586 73.6372 40.3205 77.8331C40.0398 78.0679 39.7733 78.3017 39.5207 78.5339C36.5633 81.1071 33.947 83.3362 33.1829 83.9597C32.5512 84.4524 32.7058 85.3265 33.566 86.2536C35.4274 88.3122 40.6723 90.6114 48.109 89.6048C48.8004 89.514 49.4482 89.4284 50.0775 89.3159C59.2025 87.8608 61.4679 85.8891 61.4679 85.8891M57.8554 81.2049C55.5471 83.6932 49.4301 85.304 46.4363 84.8759C44.5491 84.6085 43.5923 82.891 44.7644 81.6216C45.9376 80.3496 52.7524 75.5912 52.7524 75.5912C52.7524 75.5912 57.5169 80.6797 57.8554 81.2049Z" fill="#323232"/>
<path d="M51.5116 21.4858C51.5116 21.4858 46.0531 16.6963 41.215 12.5003C40.9343 12.2656 40.6679 12.0317 40.4152 11.7996C37.4579 9.22639 34.8416 6.99722 34.0774 6.37373C33.4457 5.88103 33.6003 5.00696 34.4606 4.07989C36.3219 2.02128 41.5669 -0.277992 49.0035 0.728606C49.695 0.819396 50.3427 0.905007 50.972 1.01754C60.0971 2.4726 62.3624 4.44433 62.3624 4.44433M58.7499 9.12854C56.4416 6.64026 50.3246 5.02944 47.3308 5.45758C45.4437 5.72497 44.4868 7.44238 45.6589 8.71176C46.8321 9.98387 53.6469 14.7422 53.6469 14.7422C53.6469 14.7422 58.4115 9.65373 58.7499 9.12854Z" fill="#323232"/>
<path d="M75.4481 6.27112C73.185 6.51781 71.0084 6.85143 68.9322 7.25818C63.5644 8.28837 58.8329 9.82579 54.8721 11.4081C46.3979 14.8183 41.4353 18.5183 41.4353 18.5183C41.4353 18.5183 38.9682 16.8057 29.7388 16.3557C29.101 16.3127 28.4478 16.2983 27.7505 16.2834C20.2485 16.095 15.286 18.9533 13.6605 21.2028C12.9067 22.2181 12.8485 23.1037 13.5301 23.5248C14.3578 24.0611 17.2018 25.9912 20.4228 28.2259C20.6995 28.4293 20.9898 28.6326 21.2943 28.8353C26.5615 32.478 32.5106 36.6428 32.5106 36.6428L32.5105 45.5958L32.5105 54.549C32.5105 54.549 26.5617 58.7138 21.2943 62.3563C20.9897 62.559 20.6993 62.7623 20.4228 62.9655C17.2021 65.2004 14.358 67.1305 13.5303 67.6668C12.8487 68.0876 12.9069 68.9733 13.6607 69.9888C15.2861 72.2383 20.2486 75.0966 27.7507 74.9081C28.4479 74.8934 29.1012 74.879 29.739 74.8359C38.9684 74.386 41.4355 72.6735 41.4355 72.6735C41.4355 72.6735 46.3982 76.3735 54.8722 79.7837C58.8329 81.3658 63.5645 82.9034 68.9324 83.9336C71.0084 84.3401 73.1852 84.674 75.4482 84.9205C75.5503 84.9352 75.6663 84.9352 75.7684 84.9496L75.7533 84.7462L75.7381 84.6306L75.7381 84.4564L75.2309 76.3011L84.0237 77.3893L82.6888 68.799L88.9722 67.3479L85.6563 61.0581C91.0511 59.0474 97.8998 56.4038 99.7008 55.297C102.793 53.4022 101.91 49.2305 100.144 46.1965C100.013 45.9719 99.8935 45.785 99.7801 45.6169C99.8935 45.4491 100.013 45.2633 100.144 45.0359C101.91 42.0027 102.793 37.8322 99.7008 35.9369C97.8982 34.8301 91.0439 32.1703 85.6492 30.1468L88.9724 23.8437L82.689 22.3926L84.0239 13.8023L75.2311 14.8907L75.7383 6.73538L75.7383 6.56095L75.7534 6.44556L75.7685 6.24219C75.6661 6.25655 75.5501 6.25638 75.4481 6.27112ZM38.3562 67.6228C35.7899 69.8441 29.5336 70.7773 26.6044 70.0248C24.7578 69.5529 23.9942 67.7413 25.2979 66.6075C26.603 65.4711 33.8967 61.4854 33.8967 61.4854C33.8967 61.4854 38.0771 67.0638 38.3562 67.6228ZM71.861 63.7343C71.861 57.6884 75.2464 55.2694 76.2142 54.3023L79.3587 52.8513L71.861 63.7343ZM92.0591 40.8081C94.4143 42.6566 94.4881 44.3827 94.4881 45.5965C94.4881 46.8101 94.4144 48.5348 92.0591 50.3856C90.173 51.8686 87.8773 50.6557 87.8773 48.7659L87.8773 45.5966L87.8773 42.426C87.8773 40.5354 90.173 39.3218 92.0591 40.8081ZM79.3587 38.3404L76.2142 36.8893C75.2464 35.9221 71.861 33.5031 71.861 27.4573L79.3587 38.3404ZM38.3563 23.5709C38.0772 24.1292 33.8968 29.7066 33.8968 29.7066C33.8968 29.7066 26.603 25.7218 25.2979 24.5868C23.9942 23.4525 24.758 21.6414 26.6044 21.1675C29.5336 20.4143 35.7898 21.3497 38.3563 23.5709Z" fill="#323232"/>
<path d="M16.8786 22.8284C16.8786 22.8284 11.7378 17.6994 7.17811 13.2025C6.91301 12.9503 6.662 12.6999 6.4248 12.452C3.6381 9.69484 1.16981 7.30282 0.447105 6.6317C-0.151695 6.09959 0.0585106 5.2372 0.976311 4.36708C2.96561 2.43181 8.34691 0.472872 15.7039 1.95329C16.3881 2.08814 17.0291 2.21503 17.6499 2.3676C26.6631 4.40359 28.7976 6.51624 28.7976 6.51624M24.8928 10.9597C22.7485 8.3288 16.7471 6.32984 13.732 6.56552C11.8316 6.71161 10.7669 8.36428 11.8553 9.70606C12.9447 11.0506 19.4411 16.2353 19.4411 16.2353C19.4411 16.2353 24.5215 11.4621 24.8928 10.9597Z" fill="#666666"/>
<path d="M16.8786 22.8284C16.8786 22.8284 11.7378 17.6994 7.17811 13.2025C6.91301 12.9503 6.662 12.6999 6.4248 12.452C3.6381 9.69484 1.16981 7.30282 0.447105 6.6317C-0.151695 6.09959 0.0585106 5.2372 0.976311 4.36708C2.96561 2.43181 8.34691 0.472872 15.7039 1.95329C16.3881 2.08814 17.0291 2.21503 17.6499 2.3676C26.6631 4.40359 28.7976 6.51624 28.7976 6.51624M24.8928 10.9597C22.7485 8.3288 16.7471 6.32984 13.732 6.56552C11.8316 6.71161 10.7669 8.36428 11.8553 9.70606C12.9447 11.0506 19.4411 16.2353 19.4411 16.2353C19.4411 16.2353 24.5215 11.4621 24.8928 10.9597Z" stroke="#323232" stroke-width="1.5625"/>
<path d="M17.031 67.375C17.031 67.375 11.8902 72.504 7.33047 77.0009C7.06537 77.2532 6.81447 77.5036 6.57717 77.7514C3.79057 80.5086 1.32227 82.9006 0.599574 83.5717C0.000774308 84.1038 0.210872 84.9662 1.12877 85.8363C3.11797 87.7716 8.49937 89.7305 15.8563 88.2501C16.5406 88.1153 17.1815 87.9884 17.8023 87.8358C26.8156 85.7998 28.9501 83.6872 28.9501 83.6872M25.0453 79.2437C22.9009 81.8746 16.8995 83.8736 13.8845 83.6379C11.9841 83.4918 10.9193 81.8391 12.0078 80.4974C13.0972 79.1528 19.5935 73.9681 19.5935 73.9681C19.5935 73.9681 24.6739 78.7413 25.0453 79.2437Z" fill="#666666"/>
<path d="M17.031 67.375C17.031 67.375 11.8902 72.504 7.33047 77.0009C7.06537 77.2532 6.81447 77.5036 6.57717 77.7514C3.79057 80.5086 1.32227 82.9006 0.599574 83.5717C0.000774308 84.1038 0.210872 84.9662 1.12877 85.8363C3.11797 87.7716 8.49937 89.7305 15.8563 88.2501C16.5406 88.1153 17.1815 87.9884 17.8023 87.8358C26.8156 85.7998 28.9501 83.6872 28.9501 83.6872M25.0453 79.2437C22.9009 81.8746 16.8995 83.8736 13.8845 83.6379C11.9841 83.4918 10.9193 81.8391 12.0078 80.4974C13.0972 79.1528 19.5935 73.9681 19.5935 73.9681C19.5935 73.9681 24.6739 78.7413 25.0453 79.2437Z" stroke="#323232" stroke-width="1.5625"/>
<path d="M16.2598 14.9834C32.7467 -1.56218 59.4772 -1.56218 75.9641 14.9834C92.4509 31.529 92.4509 58.3548 75.9641 74.9004C59.4772 91.446 32.7467 91.4461 16.2598 74.9004C-0.227114 58.3548 -0.227113 31.529 16.2598 14.9834Z" fill="#666666"/>
<path d="M69.6055 32.8466C69.3682 14.6445 63.6201 10.8184 46.3165 13.9341C51.5597 17.0922 66.3321 26.856 69.6055 32.8466Z" fill="#B81414" stroke="#171717" stroke-width="4.06071" stroke-linejoin="round"/>
<path d="M69.1133 56.3438C68.876 74.5457 63.1279 78.3719 45.8243 75.2562C51.0675 72.0981 65.8399 62.3342 69.1133 56.3438Z" fill="#B81414" stroke="#171717" stroke-width="4.06071" stroke-linejoin="round"/>
<path d="M31.7122 17.9219C31.5654 18.2412 44.1584 35.0492 44.1584 35.0492L43.3322 24.0758L31.7122 17.9219Z" fill="#262626"/>
<path d="M30.0912 20.4062C29.9444 20.7256 42.5375 37.5336 42.5375 37.5336L41.7112 26.5602L30.0912 20.4062Z" fill="#262626"/>
<path d="M85.3532 60.8416C81.6602 61.5088 73.1098 56.052 71.3087 54.9131L73.3393 45.6549L71.3087 34.9903C73.1113 33.8514 79.3275 28.1591 85.3604 29.032L85.3532 60.8416ZM78.9505 40.003C76.5953 41.9053 76.5215 43.6815 76.5215 44.9306C76.5215 46.1795 76.5951 47.9543 78.9505 49.8589C80.8366 51.385 83.1322 50.1368 83.1322 48.1921L83.1322 44.9308L83.1322 41.668C83.1322 39.7225 80.8366 38.4735 78.9505 40.003Z" fill="#323232"/>
<path d="M44.5425 52.0314C44.1943 51.9832 31.7501 68.9017 31.7501 68.9017L42.0148 64.935L44.5425 52.0314Z" fill="#262626"/>
<path d="M41.9722 50.5939C41.624 50.5457 29.1798 67.4642 29.1798 67.4642L39.4445 63.4975L41.9722 50.5939Z" fill="#262626"/>
</g>
</g>
<defs>
<clipPath id="clip0_2452_784">
<rect width="90" height="90" fill="white" transform="translate(90) rotate(90)"/>
</clipPath>
</defs>
</svg>
