<svg width="90" height="90" viewBox="0 0 90 90" fill="none" xmlns="http://www.w3.org/2000/svg">
<g clip-path="url(#clip0_394_16066)">
<mask id="mask0_394_16066" style="mask-type:luminance" maskUnits="userSpaceOnUse" x="0" y="0" width="90" height="90">
<path d="M0 0L0 90H90V0H0Z" fill="white"/>
</mask>
<g mask="url(#mask0_394_16066)">
<path d="M90 45C90 20.1472 69.8528 0 45 0C20.1472 0 0 20.1472 0 45C0 69.8528 20.1472 90 45 90C69.8528 90 90 69.8528 90 45Z" fill="white"/>
<path d="M6.87576 48.0368C7.22257 48.2502 7.36675 48.6359 7.60348 48.9384C8.61178 50.2286 9.64832 51.4902 10.755 52.7001C11.8627 53.911 13.0502 55.0298 14.2874 56.0929C15.6981 57.3057 17.2422 58.3425 18.8447 59.2861C20.155 60.0574 21.5228 60.7054 22.9373 61.2633C24.763 61.9828 26.6471 62.4939 28.5789 62.7768C30.4679 63.0528 32.3744 63.1252 34.2848 62.9275C35.7967 62.7719 37.2794 62.489 38.7329 62.0455C40.3881 61.5404 41.9731 60.8786 43.4968 60.0466C45.3175 59.053 47.1822 58.1505 49.1676 57.5113C50.2372 57.1667 51.2894 56.7635 52.3912 56.5335C53.9684 56.2036 55.5486 55.9275 57.1706 55.8462C60.2218 55.6945 63.1132 56.3925 65.9939 57.2686C67.3743 57.6886 68.6788 58.2778 69.9803 58.8729C70.8269 59.2605 71.6238 59.7706 72.4119 60.2738C74.4509 61.5776 76.295 63.1223 77.9463 64.896C78.6633 65.6674 79.3638 66.4544 79.9639 67.3256C80.1451 67.5879 80.1626 67.8717 80.0691 68.1644C79.6044 69.6131 79.1426 71.0619 78.6662 72.5068C78.3165 73.5659 77.9405 74.6172 77.5888 75.6754C77.5479 75.7997 77.4193 75.7527 77.3803 75.8438C77.1611 75.8378 77.0978 75.6499 76.9984 75.508C76.2989 74.5086 75.8976 73.3769 75.4942 72.2355C75.052 70.9835 74.9058 69.7062 74.9195 68.3955C74.9224 68.1165 74.8971 67.8414 74.7889 67.58C74.7636 67.5193 74.7334 67.4519 74.6672 67.4401C74.5629 67.4205 74.5356 67.5164 74.4996 67.5849C74.407 67.764 74.4226 67.9667 74.3807 68.1557C74.3096 68.4758 74.1187 68.5452 73.8488 68.3582C73.7407 68.2828 73.6511 68.185 73.5858 68.0725C72.5444 66.2625 70.861 65.2328 69.0831 64.3155C68.9535 64.248 68.8181 64.1911 68.6914 64.1187C67.651 63.5235 66.5696 63.0949 65.3441 63.0548C64.5277 63.0283 63.7542 62.7415 63.0002 62.4351C62.1078 62.0729 61.2067 61.7626 60.2266 61.7607C59.9373 61.7597 59.9373 61.7351 59.9139 61.5002C59.9461 61.4982 59.9928 61.5101 60.0084 61.4944C60.0523 61.4474 60.1185 61.5287 60.0591 61.5032C60.0669 61.4876 60.0484 61.4846 60.0026 61.4944C59.7171 61.5551 59.4317 61.5864 59.1385 61.5855C57.419 61.5786 55.6996 61.5825 53.9811 61.5825C53.7385 61.5825 53.4969 61.5864 53.2563 61.5424C53.2504 61.5414 53.2348 61.5571 53.2348 61.5639C53.2358 61.5796 53.2456 61.5943 53.2504 61.6109C53.1413 61.7695 52.9689 61.7548 52.8111 61.7763C51.2212 61.9986 49.6985 62.394 48.3561 63.3455C47.7345 63.786 47.0467 64.1334 46.4223 64.5739C45.5874 65.1632 44.6658 65.5254 43.6936 65.823C41.6604 66.4446 39.6536 67.1522 37.6282 67.8022C36.8849 68.0401 36.1055 68.1224 35.3233 68.1361C33.1323 68.1723 30.9501 68.0558 28.765 67.8777C27.8064 67.7994 26.9072 67.5967 26.0294 67.259C24.9705 66.8518 23.8687 66.6863 22.7532 66.5688C21.97 66.4866 21.2325 66.3076 20.5681 65.8328C19.6075 65.1476 18.5038 64.8264 17.3386 64.705C16.5895 64.6267 15.926 64.3802 15.4019 63.7987C14.6625 62.9784 13.7692 62.3578 12.7843 61.8752C12.1637 61.5718 11.7575 61.1096 11.5422 60.4489C11.2645 59.5953 10.8339 58.8025 10.5037 57.9705C9.69606 55.9383 8.71699 53.9923 7.67363 52.0737C7.08034 50.9833 7.00338 49.7342 6.75691 48.541C6.72086 48.3687 6.72573 48.1767 6.87576 48.0368Z" fill="#DADADA"/>
<path d="M59.833 61.5563C61.6129 61.5446 63.1453 62.496 64.8316 62.8494C64.9417 62.8729 65.0527 62.9003 65.1648 62.9111C68.1517 63.1763 70.4927 64.7513 72.6719 66.6513C73.1571 67.0742 73.4367 67.6576 73.8176 68.1617C73.9004 68.2714 73.9822 68.4534 74.1478 68.4016C74.3281 68.3448 74.256 68.149 74.254 68.0149C74.2492 67.6821 74.3953 67.4207 74.6067 67.1604C74.8726 67.317 74.9895 67.5578 75.0051 67.8603C75.0207 68.1529 75.0461 68.4456 75.049 68.7383C75.0782 71.3558 75.9238 73.7002 77.3831 75.843C77.4962 76.1709 77.4962 76.1709 77.1727 77C75.7426 74.9287 74.7197 72.6665 74.3894 70.1244C74.3612 69.9071 74.2842 69.7172 74.1469 69.5488C73.7153 69.0192 73.2818 68.4926 72.8551 67.9591C72.0426 66.943 71.0996 66.0953 69.9052 65.5442C69.3762 65.3005 68.8774 64.9912 68.3689 64.7034C67.3587 64.1317 66.3328 63.657 65.1229 63.6609C64.4127 63.6628 63.7113 63.4308 63.0595 63.1382C61.6236 62.4941 60.1253 62.2689 58.5617 62.2679C56.7273 62.267 54.887 62.1896 53.0633 62.3551C51.4569 62.4999 49.9332 63.0334 48.5635 63.934C47.5201 64.6202 46.5352 65.4023 45.3935 65.928C43.976 66.5799 42.4475 66.901 40.9716 67.3806C40.7582 67.4501 40.5215 67.4677 40.3276 67.5871C39.1138 68.3311 37.7509 68.4955 36.3792 68.6854C34.801 68.9037 33.2355 68.6972 31.6661 68.6541C30.3373 68.6179 29.0104 68.4936 27.6835 68.3977C27.4264 68.3791 27.1487 68.3624 26.9217 68.2567C25.514 67.5999 24.0069 67.41 22.4911 67.2191C21.4 67.082 20.3888 66.6925 19.5032 66.0092C19.021 65.6362 18.4277 65.5756 17.8568 65.464C17.2684 65.3494 16.6751 65.2545 16.0828 65.1595C15.7243 65.1028 15.434 64.9275 15.2411 64.6309C14.6819 63.7686 13.8636 63.2214 13.0024 62.7192C12.5971 62.4823 12.1919 62.2405 11.808 61.9704C11.4008 61.6836 11.1212 61.291 10.9585 60.8104C10.1675 58.4826 9.30436 56.1921 7.95413 54.111C6.60292 52.0289 6.07685 49.6972 6.10413 47.2305C6.12751 45.1435 6.13725 43.0566 6.01353 40.9716C5.91611 39.3212 6.36618 37.7422 6.68182 36.1457C7.31408 32.9546 8.41589 29.9827 10.5328 27.4533C12.0253 25.6688 13.3911 23.7835 14.7881 21.9236C15.3181 21.2189 15.8675 20.5268 16.5709 19.9933C18.4316 18.5808 20.4365 17.4453 22.6986 16.7924C23.9962 16.4175 25.2822 16.0592 26.6567 16.1307C27.1663 16.1571 27.6495 15.9104 28.0382 15.5845C29.216 14.5968 30.6568 14.3521 32.0918 14.0868C32.425 14.0251 32.7698 13.9889 33.1079 13.9967C33.6817 14.0094 34.2194 13.9429 34.7543 13.6943C35.2871 13.4466 35.8668 13.5298 36.4221 13.6933C37.6301 14.0486 38.8644 14.2033 40.1211 14.1896C40.5429 14.1847 40.9005 14.0633 41.2268 13.7745C42.0276 13.0658 43.0106 12.8015 44.0471 12.7144C45.8474 12.5637 47.6468 12.6919 49.4451 12.7751C49.6595 12.7849 49.8816 12.8182 50.0355 12.9689C50.5109 13.4368 51.1091 13.6296 51.7335 13.752C52.1768 13.8391 52.5538 14.0408 52.9065 14.3119C53.4111 14.6995 53.9294 15.0647 54.5947 15.1156C54.7857 15.1303 54.9201 15.2497 55.0555 15.3691C55.7122 15.9466 56.4623 16.3538 57.2923 16.6162C57.5768 16.7062 57.8447 16.8394 58.0356 17.0625C58.8228 17.9837 59.8496 18.3302 61.0157 18.3713C61.1618 18.3762 61.306 18.4065 61.4521 18.4095C62.7955 18.4359 63.8506 18.9919 64.7449 20.0119C65.6226 21.0133 66.6144 21.9129 67.8087 22.5491C68.0591 22.6823 68.1945 22.9397 68.328 23.1835C68.8735 24.1819 69.4181 25.1813 69.9607 26.1827C70.4459 27.0784 70.6388 28.0377 70.6076 29.0538C70.5881 29.7165 70.7839 29.8946 71.4396 29.8829C72.2491 29.8682 72.858 29.3709 73.5195 29.0038C73.651 28.9304 73.6598 28.7601 73.6919 28.6142C74.1108 26.7143 74.3573 24.8045 74.2881 22.8467C74.2258 21.0877 74.2628 19.3267 74.4567 17.5706C74.5278 16.9265 74.7869 16.349 74.9516 15.7391C75.2311 14.7025 75.4688 13.6541 75.729 12.6116C75.7747 12.4266 75.7894 12.2201 75.9842 12.0997C76.3466 12.8446 76.4177 13.5876 76.1868 14.402C75.8731 15.512 75.4143 16.579 75.237 17.7311C74.9321 19.7085 75.0003 21.6985 75.012 23.6846C75.0188 24.9454 75.0012 26.1915 74.5843 27.4004C74.4995 27.6442 74.4528 27.9065 74.4752 28.1708C74.5482 29.0479 74.2219 29.691 73.3967 30.0463C72.8794 30.5554 72.2248 30.7071 71.537 30.7394C70.7684 30.7756 70.6729 30.8363 70.7011 31.6302C70.7313 32.4739 70.7947 33.308 70.7226 34.1606C70.6076 35.5134 70.2735 36.7937 69.6948 38.0026C69.1278 39.188 68.6407 40.4244 67.7669 41.4395C67.5866 41.6489 67.4054 41.8574 67.2077 42.0503C66.0795 43.1476 64.9748 44.2664 63.9188 45.4362C63.2592 46.1674 62.8618 47.0797 62.2032 47.8012C61.3167 48.7722 60.4204 49.7354 59.4989 50.6742C59.4053 50.7691 59.2952 50.8347 59.1705 50.8758C59.0186 51.0207 58.85 51.1509 58.7175 51.3114C57.6352 52.628 56.2226 53.5227 54.8042 54.4095C54.0375 54.8892 53.1792 55.0399 52.2995 55.0938C51.7735 55.1261 51.3166 55.2416 50.8782 55.6008C50.0102 56.3105 48.9308 56.2469 47.8981 56.1891C46.9941 56.1382 46.0959 55.9806 45.1947 55.87C45.146 55.8641 45.0954 55.8681 45.0496 55.8534C44.8352 55.7858 44.619 55.638 44.6589 55.4276C44.6881 55.271 44.919 55.1515 45.1421 55.1848C45.639 55.2592 46.1348 55.3444 46.6336 55.3982C47.6663 55.5098 48.6999 55.5695 49.7199 55.2974C50.0657 55.2054 50.3804 55.0517 50.6531 54.8001C51.036 54.4458 51.4988 54.25 52.0287 54.2891C53.1695 54.3743 54.1914 54.155 54.9591 53.2134C55.037 53.1174 55.1646 53.0499 55.2825 53.0019C56.3941 52.5526 57.2387 51.7519 58.0736 50.9218C59.7356 49.2705 61.2943 47.5515 62.664 45.6261C63.7113 44.1549 65.0868 42.9107 66.3679 41.6166C68.2958 39.6687 69.2642 37.2597 69.8244 34.6402C69.8916 34.326 69.8779 33.9912 69.8799 33.6662C69.8867 32.3291 69.8429 30.99 69.8994 29.6548C69.9549 28.3372 69.6266 27.143 69.0002 26.0095C68.5608 25.2136 68.1312 24.4129 67.6811 23.623C67.4678 23.249 67.1512 22.9798 66.7605 22.7811C65.9071 22.3465 65.2223 21.6985 64.6299 20.9546C64.2198 20.4397 63.7288 20.0197 63.2164 19.6184C62.817 19.3052 62.326 19.3492 61.87 19.2709C61.04 19.129 60.2051 19.0125 59.3722 18.8911C59.0907 18.85 58.8461 18.7306 58.6299 18.5514C57.3576 17.5001 55.8622 16.8051 54.4837 15.9231C54.4058 15.8732 54.3054 15.8448 54.2129 15.8341C53.6615 15.7724 53.189 15.5424 52.7788 15.1763C52.358 14.7994 51.8602 14.5977 51.3263 14.4255C50.6824 14.2189 50.0686 13.9155 49.4422 13.6531C49.0029 13.4691 48.5499 13.3869 48.0706 13.3859C46.5781 13.383 45.0846 13.335 43.6029 13.5739C42.8528 13.6943 42.1591 13.9693 41.598 14.493C41.2112 14.8532 40.7797 14.9697 40.2682 14.9638C39.1118 14.9492 37.973 14.8239 36.8507 14.539C36.235 14.3834 35.6038 14.262 34.9793 14.4607C33.932 14.7925 32.8312 14.724 31.7654 14.9286C30.5526 15.1606 29.4157 15.5482 28.4015 16.255C27.7761 16.6906 27.1166 16.8766 26.3479 16.8521C24.8253 16.8032 23.4244 17.3729 22.0196 17.8584C19.2947 18.7991 16.9791 20.3261 15.171 22.6323C13.7262 24.4756 12.2747 26.3129 10.8543 28.1747C9.70476 29.6812 8.7783 31.2993 8.36036 33.1973C7.96289 35.0043 7.19815 36.7183 6.93317 38.5655C6.73053 39.9741 6.70423 41.3915 6.7432 42.8089C6.79191 44.5513 6.68962 46.2986 6.87374 48.038C6.9887 49.4701 7.16503 50.9179 7.87229 52.1738C9.38327 54.8569 10.5523 57.6897 11.6989 60.5353C11.9259 61.0982 12.2951 61.4839 12.8212 61.755C13.8811 62.2993 14.867 62.9434 15.6571 63.8596C16.0633 64.3304 16.6186 64.4949 17.2158 64.5536C18.5777 64.6887 19.8432 65.0842 20.9499 65.928C21.4487 66.3087 22.0615 66.3665 22.6557 66.4213C24.0508 66.5505 25.4146 66.8089 26.7064 67.3689C27.5345 67.7271 28.4161 67.6968 29.2812 67.7829C31.3494 67.9904 33.4245 68.0472 35.5015 67.9973C36.6627 67.9699 37.7665 67.6684 38.8576 67.2788C40.7163 66.6151 42.5946 66.0053 44.4884 65.4503C44.881 65.3357 45.2415 65.1644 45.5854 64.9461C46.5303 64.3471 47.5006 63.7852 48.4203 63.1499C49.7715 62.2161 51.2981 61.8588 52.8802 61.6385C53.0068 61.6209 53.1305 61.5866 53.2552 61.5592C53.3322 61.476 53.4345 61.4976 53.529 61.4976C55.5378 61.4966 57.5456 61.4966 59.5544 61.4976C59.6547 61.4937 59.756 61.4711 59.833 61.5563Z" fill="#020202"/>
<path d="M59.1758 50.8708C60.1061 49.8723 61.0375 48.8768 61.9639 47.8754C62.151 47.6728 62.3517 47.4711 62.488 47.2352C63.4847 45.5046 64.868 44.094 66.3088 42.7627C68.6177 40.6317 69.8598 37.9516 70.5106 34.9513C70.7561 33.8188 70.6314 32.6441 70.607 31.4871C70.5895 30.6531 70.6401 30.5904 71.4672 30.6208C72.1842 30.6472 72.7658 30.2645 73.4 30.0403C73.4302 30.1147 73.4858 30.1901 73.4858 30.2645C73.4945 31.7171 73.55 33.1717 73.2597 34.6097C73.1643 35.0815 73.0834 35.5572 73.0152 36.034C72.9938 36.1847 72.9558 36.3619 73.1097 36.4862C73.0893 36.7671 72.8379 36.7583 72.6626 36.8376C72.4073 36.9521 72.1063 36.9727 71.8764 37.2164C72.1404 37.3642 72.4024 37.0442 72.6187 37.2761C72.7015 37.8684 72.419 38.3813 72.229 38.9011C71.7653 40.1658 71.134 41.3561 70.4005 42.4789C69.4458 43.9403 68.343 45.2814 67.0034 46.4227C66.3517 46.9778 65.7117 47.5524 65.0258 48.0584C64.039 48.7867 62.981 49.4093 61.8626 49.931C61.0618 50.305 60.2737 50.6965 59.4339 50.9843C59.2294 51.0548 59.242 50.952 59.1758 50.8708Z" fill="#EDEDED"/>
<path d="M40.5646 41.2784C40.5646 42.0439 40.5558 42.8084 40.5675 43.5739C40.5772 44.1798 40.3756 44.6829 39.9401 45.1029C39.718 45.3163 39.4998 45.5394 39.3196 45.7881C38.9523 46.2922 38.5373 46.6368 37.8553 46.5262C37.0614 46.3969 36.4603 46.0318 36.1407 45.2683C36.0911 45.1489 36.0346 45.0206 36.0316 44.8953C35.9985 43.6453 35.8855 42.3933 36.0794 41.1463C36.1281 40.836 36.244 40.5423 36.4106 40.2858C36.9513 39.4538 37.377 38.5581 37.8563 37.6918C38.207 37.0575 39.1471 36.7159 39.8349 36.9577C40.1272 37.0604 40.2597 37.2738 40.3103 37.5743C40.5198 38.8019 40.4311 40.044 40.5646 41.2784Z" fill="black"/>
<path d="M39.6671 18.5469C40.2185 18.5871 40.6725 18.6096 41.1235 18.6575C41.6944 18.7182 41.8727 18.9727 41.7899 19.5522C41.7197 20.0368 41.6048 20.5106 41.4654 20.9785C41.0767 22.2784 40.8907 23.6126 40.7806 24.9615C40.7367 25.4979 40.5867 25.6291 40.0431 25.6457C38.6003 25.6888 37.9924 25.2248 37.6924 23.8084C37.4664 22.7424 37.2949 21.6646 37.1848 20.5791C37.064 19.3878 37.7976 18.5616 38.9881 18.5479C39.2453 18.544 39.5054 18.5469 39.6671 18.5469Z" fill="black"/>
<path d="M27.2975 23.2212C27.3053 23.2349 27.3248 23.2545 27.3209 23.2613C26.6146 24.6024 26.9127 26.0629 26.8533 27.4734C26.79 28.9545 26.753 30.4375 26.6731 31.9185C26.6292 32.7319 26.3341 33.469 26.0262 34.2051C25.4076 35.6832 24.978 37.2064 25.3112 38.8156C25.6346 40.375 26.0116 41.9255 26.4841 43.4496C27.0043 45.1264 27.5898 46.7915 27.6512 48.5721C27.6775 49.3366 27.6307 50.1021 27.7233 50.8646C27.7369 50.9762 27.7281 51.0946 27.7057 51.2053C27.6853 51.31 27.6755 51.4519 27.5197 51.4451C27.3891 51.4392 27.395 51.311 27.3784 51.2238C27.3268 50.9517 27.2284 50.6727 27.2518 50.4055C27.5002 47.6138 26.4666 45.056 25.8294 42.4267C25.5226 41.162 25.1641 39.9081 24.9156 38.6326C24.6351 37.1878 24.8659 35.7713 25.4573 34.4322C26.0467 33.1 26.3214 31.7276 26.3175 30.2632C26.3117 28.3084 26.4149 26.3526 26.4812 24.3978C26.5045 23.6636 26.7345 23.3524 27.2975 23.2212Z" fill="#040404"/>
<path d="M47.6952 25.1806C48.2173 24.6696 48.7609 24.1792 49.2539 23.6418C49.6416 23.2199 50.0712 23.1524 50.572 23.3286C50.8613 23.4304 51.1565 23.5332 51.4195 23.6849C52.3616 24.2282 53.3348 24.6902 54.3665 25.0426C55.178 25.3206 55.288 25.7004 54.8964 26.46C54.6665 26.9054 54.5019 27.387 54.1638 27.7766C53.7254 27.4673 53.6192 27.0953 53.9359 26.6352C53.9719 26.5823 53.9914 26.5187 54.0187 26.459C54.3538 25.7229 54.3255 25.674 53.516 25.5966C53.1185 25.5584 52.7697 25.3852 52.4502 25.162C51.929 24.7988 51.3513 24.5414 50.7989 24.2379C50.3255 23.9776 49.9426 24.0627 49.5812 24.4425C48.91 25.1483 48.2621 25.8776 47.513 26.505C46.4248 27.4173 45.2002 27.9107 43.7584 27.7962C43.472 27.7736 43.1447 27.6953 43.1525 27.4418C43.1612 27.1521 43.4934 27.0698 43.7964 27.0835C44.0877 27.0972 44.38 27.0777 44.6586 26.9739C44.7755 26.8202 44.9538 26.7771 45.1233 26.7321C46.0381 26.4894 46.8301 26.0449 47.4526 25.3167C47.5169 25.2452 47.5831 25.1698 47.6952 25.1806Z" fill="#020202"/>
<path d="M61.1299 24.3442C61.2293 24.3442 61.428 24.3921 61.504 24.5546C61.5868 24.7308 61.4621 24.9197 61.3062 25.002C60.8377 25.2477 60.7792 25.6559 60.7909 26.1208C60.8357 27.9787 60.8708 29.8366 60.9127 31.6945C60.9477 33.2705 60.7821 34.8083 60.182 36.2894C59.9248 36.9227 59.7826 37.5991 60.1236 38.2775C60.2327 38.4948 60.1947 38.7953 60.0047 38.8941C59.8732 38.9627 59.5809 38.8472 59.4572 38.6582C59.1844 38.2393 58.9399 37.8223 59.1036 37.2653C59.4416 36.1112 59.7417 34.9463 60.0495 33.7834C60.373 32.5608 60.1694 31.3186 60.1625 30.0843C60.1577 29.0897 60.1216 28.0962 60.1158 27.1016C60.1129 26.6905 60.033 26.296 59.9628 25.8957C59.8187 25.0685 60.3194 24.3677 61.1299 24.3442Z" fill="#020202"/>
<path d="M24.7042 21.3432C24.9643 21.6418 24.8776 21.8728 24.712 22.1244C24.3359 22.6941 23.9794 23.2755 23.6131 23.8511C23.3617 24.2466 23.2497 24.6782 23.2585 25.1481C23.2926 27.054 23.3062 28.9608 23.391 30.8667C23.4416 32.0002 23.2984 33.1289 22.8474 34.1665C22.2989 35.4292 22.1411 36.7204 22.2414 38.0751C22.369 39.796 22.3193 41.5286 22.56 43.2436C22.7295 44.4515 22.9643 45.6526 23.0237 46.8742C23.0373 47.1493 23.1611 47.5819 22.8415 47.6231C22.5707 47.6583 22.6467 47.2061 22.6126 46.9711C22.0904 43.3561 21.7592 39.7265 21.8196 36.0674C21.8235 35.8374 21.8293 35.6044 21.9238 35.3959C22.9857 33.0554 23.0422 30.5799 22.9224 28.0749C22.8785 27.1636 22.9078 26.2493 22.8805 25.337C22.8552 24.4932 23.0597 23.7268 23.542 23.0337C23.9287 22.4777 24.3096 21.9178 24.7042 21.3432Z" fill="#040404"/>
<path d="M75.2107 60.1838C75.0938 60.3942 75.0188 60.6497 74.8503 60.8024C74.633 60.9982 74.4041 60.8416 74.4236 60.591C74.4879 59.756 73.9219 59.387 73.3549 58.9925C72.5697 58.4453 71.8108 57.856 71.011 57.3313C69.9111 56.6099 69.6344 55.4519 69.3305 54.3008C69.2827 54.1206 69.4113 53.9562 69.5458 53.8975C69.7357 53.8133 69.8975 53.9846 69.9715 54.1304C70.1322 54.4476 70.2764 54.7814 70.3719 55.123C70.6525 56.1322 71.2594 56.8214 72.2141 57.255C73.0899 57.6534 73.8439 58.2525 74.5658 58.8887C74.9526 59.2294 75.1688 59.6464 75.2107 60.1838Z" fill="#030303"/>
<path d="M54.5029 34.7735C54.7308 36.4983 52.4736 37.6563 51.1409 37.3039C50.7571 37.2021 50.5164 36.9466 50.4268 36.5796C50.3002 36.0598 50.2193 35.5292 50.117 35.0036C50.0654 34.7393 50.1063 34.4554 50.3713 34.3937C50.6655 34.3252 50.7493 34.612 50.8253 34.8558C50.9509 35.2601 51.0552 35.6663 51.1078 36.0872C51.1565 36.4748 51.364 36.6432 51.7732 36.6031C52.9617 36.4876 53.6845 35.7886 53.8151 34.5954C53.817 34.5788 53.817 34.5621 53.8209 34.5474C53.8872 34.3017 53.9105 33.9533 54.2086 33.9513C54.5798 33.9484 54.4873 34.3096 54.5029 34.5572C54.5068 34.6375 54.5029 34.7187 54.5029 34.7735Z" fill="#040404"/>
<path d="M79.4433 39.995C78.7828 39.528 78.5791 38.8546 78.583 38.0852C78.585 37.678 78.5821 37.2707 78.5752 36.8645C78.5723 36.6883 78.5733 36.518 78.7526 36.3672C79.0224 36.7705 78.999 37.2149 78.9601 37.6388C78.8519 38.8027 79.3322 39.5828 80.4028 40.0096C80.8315 40.1809 81.0205 40.4824 80.9991 40.9562C80.9718 41.5572 80.9981 42.1612 80.9854 42.7632C80.9776 43.1577 80.8734 43.5277 80.4457 43.652C79.417 43.9506 79.0692 44.8218 78.7555 45.694C78.5022 46.3997 78.5256 47.1632 78.4233 47.9219C78.1953 47.8573 78.0862 47.7251 78.0511 47.4833C77.9479 46.7697 77.9995 46.0698 78.3512 45.4443C78.7068 44.812 78.998 44.1317 79.5231 43.606C79.6079 43.4122 79.7764 43.3124 79.9537 43.2311C80.3249 43.0598 80.4652 42.7564 80.473 42.3677C80.4779 42.124 80.4798 41.8793 80.474 41.6355C80.4623 41.0874 80.3239 40.6048 79.7871 40.3327C79.643 40.2563 79.5387 40.1281 79.4433 39.995Z" fill="#040404"/>
<path d="M30.1993 37.2162C29.7658 38.7863 29.9977 40.3369 30.0249 41.8796C30.0318 42.2408 30.0775 42.5951 30.1789 42.9407C30.3893 43.6582 30.6075 44.3718 30.6971 45.1196C30.8014 45.9899 31.1628 46.7739 31.5496 47.5472C31.6538 47.7548 31.8671 48.0886 31.646 48.1884C31.38 48.3078 31.2466 47.9241 31.1599 47.7029C30.7293 46.5987 30.2597 45.5063 30.1341 44.3052C30.0659 43.6572 29.7356 43.0689 29.6625 42.416C29.4979 40.9516 29.646 39.4833 29.5914 38.0179C29.5797 37.7105 29.6694 37.4042 29.8096 37.1232C29.8642 37.0136 29.9606 36.9304 30.0834 36.9725C30.21 37.0155 30.2159 37.1389 30.1993 37.2162Z" fill="#060606"/>
<path d="M29.7806 24.8455C29.8673 24.265 29.8595 23.6278 29.8458 22.9935C29.8234 21.9226 30.141 20.974 30.7976 20.14C31.1698 19.6682 31.5565 19.2072 31.9482 18.751C32.0319 18.6531 32.1216 18.4622 32.2852 18.5552C32.4947 18.6737 32.3184 18.8616 32.2706 18.982C32.1333 19.3334 31.8858 19.6369 31.614 19.8826C30.4781 20.9055 30.1147 22.1937 30.2219 23.6718C30.2511 24.0751 30.1537 24.4794 30.2082 24.8905C30.2813 25.4348 30.4391 25.935 30.7635 26.3804C30.897 26.5644 31.0772 26.8218 30.8473 26.9775C30.5999 27.1439 30.5151 26.8169 30.4099 26.6564C30.0611 26.121 29.7416 25.5728 29.7806 24.8455Z" fill="#060606"/>
<path d="M57.1016 54.3433C57.4318 53.8774 57.9589 53.7873 58.4274 53.7364C59.9082 53.5749 61.3978 53.5661 62.8737 53.8255C63.3413 53.9077 63.7241 54.2111 64.1333 54.4402C64.2941 54.5303 64.4061 54.6898 64.3194 54.8347C64.2405 54.9659 64.0564 54.8924 63.9297 54.8073C62.8474 54.081 61.6335 53.9948 60.3866 54.0751C59.4396 54.1358 58.4713 54.0271 57.5721 54.4608C57.4396 54.5244 57.4269 54.497 57.1016 54.3433Z" fill="#0A0A0A"/>
<path d="M79.4425 39.9993C80.3173 40.3292 80.6836 40.9615 80.5706 41.8885C80.5531 42.0324 80.5492 42.1802 80.5638 42.3241C80.6174 42.8566 80.4488 43.2384 79.9023 43.4019C79.7679 43.442 79.65 43.5379 79.5243 43.6094C79.4483 43.4968 79.4201 43.3695 79.4396 43.2384C79.5984 42.1577 79.5516 41.079 79.4425 39.9993Z" fill="#D8D8D8"/>
<path d="M72.6176 37.2782C72.4306 37.3193 72.2425 37.3546 72.0574 37.4025C71.9142 37.4397 71.7428 37.5063 71.6853 37.3213C71.6385 37.1686 71.772 37.0462 71.9123 36.9904C72.2114 36.872 72.5182 36.7741 72.8183 36.6576C72.9216 36.6175 73.0122 36.546 73.1086 36.4882C73.6035 36.2602 73.9094 35.8588 74.1208 35.3704C74.1783 35.2382 74.2085 35.0924 74.3273 34.9915C74.3945 34.9348 74.4608 34.9025 74.5436 34.9446C74.6332 34.9896 74.6303 35.061 74.6069 35.1482C74.5319 35.4262 74.5231 35.7286 74.3098 35.9548C73.8129 36.4824 73.2508 36.9258 72.6176 37.2782Z" fill="#0A0A0A"/>
<path d="M53.9318 31.5676C53.9483 31.873 53.9678 32.1315 53.6668 32.1814C53.393 32.2264 53.2635 32.0159 53.1816 31.7898C53.0462 31.4169 53.0141 31.0292 53.0472 30.6357C53.0667 30.4076 53.1729 30.1854 53.3872 30.1482C53.6171 30.1081 53.6707 30.3695 53.7311 30.5398C53.8558 30.8932 53.9084 31.2651 53.9318 31.5676Z" fill="#050505"/>
<path d="M34.6587 34.9821C33.9592 35.5088 33.326 35.9864 32.6917 36.4612C32.6177 36.517 32.5349 36.6276 32.4414 36.5532C32.3469 36.4788 32.3625 36.3457 32.4024 36.2341C32.6177 35.6292 33.9251 34.8656 34.6587 34.9821Z" fill="#090909"/>
<path d="M33.1133 26.3094C34.0641 25.9042 35.012 25.9678 36.0758 26.3359C35.0081 26.7196 34.0621 26.3466 33.1133 26.3094Z" fill="#151515"/>
<path d="M59.8319 61.5547C57.6409 61.5547 55.45 61.5537 53.26 61.5537C53.1664 61.492 53.032 61.5792 52.9375 61.4588C55.4461 61.4588 57.941 61.4588 60.4359 61.4588C60.4369 61.4725 60.4378 61.4852 60.4378 61.4989C60.2362 61.5175 60.0335 61.5361 59.8319 61.5547Z" fill="#FDFDFD"/>
<path d="M36.7289 44.3297C36.7162 44.2505 36.6948 44.1712 36.6919 44.0909C36.6646 43.2774 36.7445 43.2256 37.5433 43.296C38.0889 43.344 38.6412 43.3107 39.1897 43.3225C39.7927 43.3362 39.9233 43.5114 39.6934 44.0782C39.4108 44.7771 38.8439 45.2626 38.2788 45.708C37.9067 46.0007 36.8458 45.4427 36.7532 44.9601C36.7143 44.7556 36.7191 44.5412 36.7035 44.3317C36.7123 44.3317 36.7211 44.3307 36.7289 44.3297Z" fill="#FDFDFD"/>
<path d="M39.1227 37.5524C39.4676 37.5494 39.6936 37.8255 39.6829 38.2533C39.677 38.495 39.5709 38.7907 39.3283 38.7143C38.9932 38.6096 38.4379 38.8954 38.3473 38.2719C38.2995 37.9518 38.7477 37.5563 39.1227 37.5524Z" fill="#F8F8F8"/>
<path d="M40.3072 23.2971C40.2643 23.6504 40.238 24.0058 40.1737 24.3552C40.0909 24.8036 39.8434 24.9514 39.408 24.8544C39.0202 24.7683 38.7192 24.5579 38.5877 24.1771C38.4085 23.6612 38.087 22.9799 38.3802 22.6158C38.69 22.2311 39.4353 22.5218 39.9847 22.4278C40.1601 22.3985 40.2575 22.5737 40.2614 22.7587C40.2653 22.9368 40.2623 23.115 40.2623 23.2931C40.277 23.2951 40.2925 23.2961 40.3072 23.2971Z" fill="#FDFDFD"/>
<path d="M40.8445 20.2344C40.6692 20.1101 40.525 19.9711 40.4841 19.7763C40.4588 19.6559 40.3078 19.4885 40.5104 19.3945C40.7052 19.3044 40.8465 19.4053 40.9507 19.5815C41.1008 19.834 41.0316 20.0386 40.8445 20.2344Z" fill="#D9D9D9"/>
</g>
</g>
<defs>
<clipPath id="clip0_394_16066">
<rect width="90" height="90" fill="white" transform="matrix(0 -1 1 0 0 90)"/>
</clipPath>
</defs>
</svg>
