<svg width="90" height="90" viewBox="0 0 90 90" fill="none" xmlns="http://www.w3.org/2000/svg">
<g clip-path="url(#clip0_1490_43176)">
<path d="M89.1532 47.4983C89.1532 51.7369 88.4848 55.8821 87.1671 59.8182C85.0937 66.0025 81.9114 70.3456 80.195 72.3846C76.7772 76.4514 73.3937 78.7145 70.9215 80.3688C64.0519 84.9697 57.581 86.9377 55.1165 87.5688C51.8621 88.4054 45.0874 90.1456 36.5658 88.7041C31.314 87.8153 27.5013 86.0676 24.9836 84.9099C21.2848 83.2145 17.0924 81.2913 12.9988 77.2954C8.1342 72.5489 6.1899 67.5896 4.46965 63.2166C1.64433 56.0203 1.22661 50.1124 1.00256 46.9419C0.869648 45.0522 0.759521 43.3456 0.759521 41.5381C0.759521 37.9904 1.20762 34.8759 2.17218 31.7315C2.8861 29.4012 3.96458 25.8796 6.87724 22.5C7.62914 21.6298 8.16458 21.1593 8.73041 20.6626C9.31901 20.1473 9.98357 19.5647 11.0696 18.3771C12.7443 16.5435 13.595 15.2738 14.4988 13.9294C15.0418 13.1228 15.6 12.29 16.3481 11.3265C18.7443 8.24561 21.5127 5.66138 24.1443 4.05183C28.3975 1.44519 32.4304 1.28088 40.4621 0.952248C46.2874 0.713242 50.4912 0.541458 55.8988 2.10246C60.1215 3.32362 63.1671 5.03772 66.6912 7.02444C69.4671 8.58917 72.338 10.2062 75.562 13.0966C79.1924 16.3493 81.376 19.5124 82.1507 20.7224C82.8722 21.8502 85.0633 25.2859 86.8026 32.1423C87.7937 36.056 89.1532 41.4224 89.1532 47.4983Z" fill="white"/>
<path d="M1.51899 41.5382C1.51899 38.588 1.82278 35.4585 2.89747 31.9481C3.65696 29.4759 4.70127 26.1822 7.45443 22.9855C8.93165 21.2714 9.46709 21.249 11.6316 18.8776C14.3772 15.8714 15.0038 14.2842 16.9481 11.7822C17.5899 10.9568 20.5747 7.11784 24.543 4.68672C28.6291 2.18465 32.5823 2.02406 40.4924 1.69917C46.2911 1.46017 50.3962 1.29211 55.6823 2.8195C59.8215 4.01452 62.8443 5.71742 66.3152 7.67427C69.2165 9.30996 71.9506 10.8709 75.0494 13.6494C78.8962 17.1 81.0418 20.39 81.5051 21.1183C82.5911 22.8174 84.5013 26.1523 86.062 32.3216C87.076 36.3212 88.3899 41.5158 88.3899 47.4983C88.3899 51.2477 87.8734 55.3108 86.4418 59.583C84.2013 66.2676 80.6658 70.6444 79.6063 71.9066C76.3215 75.8091 73.0443 78.0423 70.4924 79.749C63.2051 84.6299 56.5367 86.4299 54.9228 86.8444C51.4215 87.7444 44.8861 89.3539 36.6949 87.9647C31.6481 87.1095 27.9722 85.4552 25.3025 84.2303C21.6873 82.5722 17.5329 80.6676 13.5304 76.7614C8.78354 72.127 6.85443 67.2162 5.17595 62.944C2.44557 55.9942 1.99367 50.2394 1.75823 46.8859C1.63671 45.1419 1.51899 43.3755 1.51899 41.5382ZM0 41.5382C0 43.3718 0.110127 45.0896 0.243038 46.9867C0.470886 50.1983 0.892405 56.1772 3.75949 63.478C5.50633 67.922 7.48101 72.9597 12.4595 77.8183C16.6519 81.9075 20.9089 83.8606 24.6608 85.5822C27.2203 86.7548 31.0861 88.5286 36.4405 89.4361C45.1215 90.9075 52.0025 89.1373 55.3101 88.2896C58.4165 87.4905 64.6329 85.4813 71.3506 80.9851C73.7165 79.4017 77.2937 77.0079 80.7797 72.8589C82.5266 70.7788 85.7734 66.3535 87.8886 60.0498C89.2329 56.039 89.9127 51.8153 89.9127 47.4983C89.9127 41.3328 88.5418 35.9141 87.5392 31.9593C85.7734 24.9871 83.5329 21.4768 82.7962 20.3228C82.0063 19.0867 79.7734 15.8602 76.0785 12.544C72.7937 9.5975 69.8848 7.96182 67.0747 6.37842C63.5089 4.36929 60.4253 2.63278 56.1152 1.38548C50.5899 -0.209129 46.3291 -0.0373459 40.4354 0.205391C32.2709 0.541489 28.1696 0.709541 23.7456 3.41701C20.9962 5.10124 18.2316 7.678 15.7481 10.8747C14.9848 11.8568 14.4152 12.7046 13.8684 13.5224C12.9835 14.8444 12.1443 16.088 10.5076 17.8805C9.4481 19.0382 8.79873 19.6058 8.22911 20.11C7.64051 20.6253 7.08608 21.1108 6.3038 22.022C3.29241 25.5212 2.18354 29.1286 1.45063 31.5187C0.459494 34.7303 0 37.9158 0 41.5382Z" fill="black"/>
<path d="M21.4899 17.4174C21.7101 17.227 21.9304 17.0365 22.1544 16.8498C21.8924 17.0178 21.6721 17.212 21.4899 17.4174Z" fill="#3C2415"/>
<path d="M26.2899 45.168C26.4266 45.9821 26.5633 46.8 26.7228 47.7224C26.2215 47.9203 25.762 48.1033 24.957 48.4245C25.2266 47.1585 25.4392 46.1465 25.6519 45.1382C25.8646 45.1494 26.0772 45.1568 26.2899 45.168Z" fill="white"/>
<path d="M46.3329 48.4879C45.2734 48.8128 44.6202 49.0145 43.7392 49.2834C43.5683 46.9083 43.3936 44.6863 43.2759 42.4643C43.2721 42.3597 43.7506 42.2328 44.1493 42.046C44.8708 44.1709 45.5582 46.2062 46.3329 48.4879Z" fill="white"/>
<path d="M42.5962 31.7315C41.8101 32.6353 43.1506 34.5398 40.8759 34.9207C40.2911 33.468 39.7139 32.0228 39.1329 30.5813C40.4506 29.939 40.4506 29.939 42.5962 31.7315Z" fill="white"/>
<path d="M84.7671 27.9896C85.2076 29.2481 85.6481 30.6859 86.062 32.3216C87.7101 38.8307 90.1595 48.4954 86.4418 59.583C84.2013 66.2676 80.6658 70.6444 79.6063 71.9066C76.3215 75.8091 73.0443 78.0423 70.4924 79.7489C63.205 84.6299 56.5367 86.4299 54.9228 86.8444C51.4215 87.7444 44.8861 89.3539 36.6949 87.9647C31.6481 87.1095 27.9721 85.4552 25.3025 84.2303C21.6873 82.5722 17.5329 80.6676 13.5304 76.7614C8.78353 72.127 6.85441 67.2162 5.17593 62.944C3.31517 58.205 2.51011 54.0187 2.11517 50.7734C2.18733 51.0871 5.681 65.9913 17.3278 71.5332C29.1 77.1348 53.7835 87.2178 68.2139 73.4004C82.6443 59.583 86.8899 52.0394 84.7671 27.9896Z" fill="#CCCCCC"/>
<path d="M67.1772 67.078C68.662 66.9211 69.9228 65.9464 71.3355 64.1614C72.7557 62.3689 75.7215 58.0145 74.5481 56.8307C73.8342 56.1099 71.9355 56.9278 71.7874 56.9913C71.476 57.1294 70.7127 57.5103 68.6582 60.5166C68.5633 60.6547 67.7582 61.8386 66.8051 63.5527C65.4874 65.924 65.4722 66.4543 65.6924 66.7531C66.0228 67.2012 66.862 67.1116 67.1772 67.078Z" fill="#CCCCCC"/>
<path d="M59.324 72.59C59.981 72.7879 60.6911 72.5975 61.6177 72.0933C62.5481 71.5854 64.5987 70.2672 64.3177 69.5614C64.1468 69.1282 63.1937 69.1394 63.1215 69.1431C62.9658 69.1469 62.5709 69.173 61.1544 70.0805C61.0899 70.1215 60.5316 70.4801 59.8139 71.0365C58.8228 71.8058 58.7202 72.0298 58.7582 72.1942C58.8114 72.4369 59.1835 72.5489 59.324 72.59Z" fill="#CCCCCC"/>
<path d="M41.587 52.3674C41.587 53.5239 41.5746 54.6789 41.5911 55.8354C41.605 56.7508 41.319 57.511 40.7016 58.1454C40.3867 58.4678 40.0773 58.805 39.8217 59.1807C39.301 59.9423 38.7126 60.4629 37.7457 60.2958C36.62 60.1006 35.7677 59.5489 35.3147 58.3954C35.2442 58.215 35.1641 58.0212 35.16 57.8319C35.113 55.9433 34.9528 54.0518 35.2277 52.1677C35.2967 51.6989 35.4611 51.2552 35.6973 50.8677C36.4639 49.6107 37.0675 48.2575 37.7471 46.9486C38.2443 45.9903 39.5773 45.4742 40.5524 45.8394C40.9668 45.9947 41.1547 46.3171 41.2265 46.7712C41.5235 48.6257 41.3978 50.5024 41.587 52.3674Z" fill="black"/>
<path d="M40.3149 18.0182C41.0967 18.0789 41.7404 18.1129 42.3799 18.1854C43.1893 18.277 43.4421 18.6616 43.3247 19.5371C43.2253 20.2691 43.0623 20.9849 42.8648 21.6918C42.3136 23.6558 42.0498 25.6716 41.8937 27.7095C41.8316 28.52 41.6188 28.7181 40.8481 28.7433C38.8024 28.8084 37.9405 28.1073 37.5151 25.9674C37.1947 24.3568 36.9515 22.7286 36.7955 21.0884C36.6242 19.2886 37.6643 18.0404 39.3522 18.0197C39.7168 18.0138 40.0856 18.0182 40.3149 18.0182Z" fill="black"/>
<path d="M22.7728 25.086C22.7839 25.1067 22.8115 25.1363 22.806 25.1466C21.8045 27.1727 22.2272 29.3792 22.143 31.5104C22.0532 33.7479 22.0007 35.9885 21.8874 38.2261C21.8253 39.4551 21.4067 40.5687 20.9703 41.6808C20.0932 43.914 19.484 46.2151 19.9564 48.6465C20.415 51.0024 20.9495 53.345 21.6195 55.6476C22.357 58.181 23.1872 60.6966 23.2742 63.3867C23.3115 64.5418 23.2452 65.6983 23.3764 66.8504C23.3958 67.0189 23.3833 67.1979 23.3516 67.365C23.3226 67.5233 23.3087 67.7377 23.0877 67.7273C22.9026 67.7185 22.9109 67.5247 22.8875 67.3931C22.8142 66.982 22.6747 66.5605 22.7079 66.1567C23.0601 61.9389 21.5946 58.0745 20.6912 54.1022C20.2561 52.1914 19.7478 50.2969 19.3956 48.3699C18.9978 46.187 19.3252 44.0471 20.1636 42.0239C20.9993 40.0111 21.3888 37.9377 21.3833 35.7252C21.375 32.7719 21.5214 29.817 21.6153 26.8636C21.6485 25.7544 21.9744 25.2842 22.7728 25.086Z" fill="#040404"/>
<path d="M51.6965 28.0453C52.4368 27.2733 53.2076 26.5323 53.9065 25.7204C54.4562 25.083 55.0654 24.981 55.7753 25.2472C56.1856 25.401 56.6041 25.5563 56.9771 25.7855C58.3127 26.6063 59.6926 27.3043 61.1554 27.8367C62.306 28.2568 62.4621 28.8306 61.9068 29.9782C61.5808 30.6511 61.3474 31.3787 60.8681 31.9673C60.2465 31.5 60.0959 30.938 60.5449 30.2429C60.596 30.1631 60.6236 30.0669 60.6623 29.9767C61.1374 28.8646 61.0974 28.7906 59.9495 28.6738C59.386 28.6161 58.8915 28.3544 58.4384 28.0172C57.6994 27.4685 56.8804 27.0795 56.0972 26.6211C55.4259 26.2277 54.883 26.3564 54.3706 26.9302C53.4189 27.9965 52.5004 29.0983 51.4382 30.0462C49.8953 31.4246 48.159 32.1699 46.1148 31.9969C45.7087 31.9629 45.2446 31.8446 45.2556 31.4615C45.2681 31.0238 45.7391 30.8996 46.1686 30.9203C46.5816 30.941 46.996 30.9114 47.3911 30.7546C47.5568 30.5224 47.8096 30.4574 48.0499 30.3893C49.3469 30.0226 50.4699 29.3511 51.3525 28.2508C51.4437 28.1429 51.5376 28.029 51.6965 28.0453Z" fill="#020202"/>
<path d="M70.7428 26.7794C70.8837 26.7794 71.1654 26.8519 71.2732 27.0974C71.3906 27.3636 71.2138 27.649 70.9928 27.7732C70.3284 28.1444 70.2455 28.7611 70.2621 29.4636C70.3256 32.2706 70.3754 35.0776 70.4347 37.8845C70.4845 40.2656 70.2497 42.5889 69.3988 44.8265C69.0341 45.7834 68.8325 46.8053 69.3159 47.8302C69.4706 48.1585 69.4168 48.6125 69.1474 48.7619C68.9609 48.8654 68.5466 48.6909 68.3711 48.4055C67.9844 47.7725 67.6377 47.1425 67.8697 46.301C68.349 44.5574 68.7745 42.7975 69.2109 41.0405C69.6695 39.1934 69.3808 37.3166 69.3712 35.4517C69.3643 33.9492 69.3132 32.4481 69.3049 30.9455C69.3007 30.3243 69.1875 29.7284 69.088 29.1235C68.8836 27.8738 69.5936 26.8149 70.7428 26.7794Z" fill="#020202"/>
<path d="M19.1 22.2404C19.4688 22.6915 19.3458 23.0405 19.111 23.4206C18.5779 24.2813 18.0723 25.1598 17.553 26.0294C17.1966 26.6269 17.0377 27.2791 17.0502 27.9889C17.0985 30.8684 17.1179 33.7493 17.238 36.6287C17.3098 38.3413 17.1068 40.0465 16.4673 41.6141C15.6896 43.5219 15.4659 45.4726 15.6081 47.5194C15.7891 50.1193 15.7186 52.737 16.0598 55.3281C16.3001 57.153 16.633 58.9677 16.7173 60.8133C16.7366 61.2289 16.912 61.8826 16.459 61.9447C16.075 61.9979 16.1827 61.3147 16.1344 60.9597C15.394 55.4981 14.9244 50.0143 15.01 44.4862C15.0156 44.1386 15.0239 43.7867 15.1578 43.4716C16.6634 39.9356 16.7435 36.1954 16.5736 32.4109C16.5115 31.034 16.5529 29.6527 16.5142 28.2744C16.4783 26.9996 16.7684 25.8416 17.4521 24.7945C18.0005 23.9545 18.5406 23.1086 19.1 22.2404Z" fill="#040404"/>
<path d="M61.346 42.5385C61.6692 45.1444 58.4688 46.8939 56.5793 46.3615C56.035 46.2077 55.6939 45.8217 55.5668 45.2671C55.3872 44.4818 55.2726 43.6803 55.1276 42.8861C55.0543 42.4868 55.1124 42.0579 55.4881 41.9647C55.9052 41.8612 56.024 42.2945 56.1317 42.6628C56.3099 43.2736 56.4577 43.8873 56.5323 44.5232C56.6014 45.1089 56.8956 45.3633 57.4757 45.3026C59.1609 45.1281 60.1858 44.0722 60.3708 42.2694C60.3736 42.2442 60.3736 42.2191 60.3791 42.1969C60.4731 41.8257 60.5062 41.2992 60.9289 41.2963C61.4551 41.2918 61.3239 41.8375 61.346 42.2117C61.3515 42.333 61.346 42.4557 61.346 42.5385Z" fill="#040404"/>
<path d="M26.8918 46.2269C26.2771 48.5991 26.6058 50.9417 26.6445 53.2725C26.6542 53.8182 26.7191 54.3535 26.8628 54.8756C27.1611 55.9596 27.4705 57.0378 27.5976 58.1676C27.7454 59.4824 28.2578 60.667 28.8062 61.8353C28.954 62.1489 29.2565 62.6532 28.9429 62.804C28.5659 62.9844 28.3766 62.4047 28.2537 62.0705C27.6432 60.4023 26.9774 58.7518 26.7992 56.9372C26.7025 55.9582 26.2343 55.0693 26.1307 54.0829C25.8973 51.8705 26.1072 49.6521 26.0299 47.4382C26.0133 46.9738 26.1404 46.5109 26.3393 46.0864C26.4166 45.9208 26.5534 45.7951 26.7274 45.8587C26.907 45.9238 26.9152 46.1101 26.8918 46.2269Z" fill="#060606"/>
<path d="M26.2964 27.541C26.4193 26.664 26.4083 25.7012 26.3889 24.7429C26.3572 23.125 26.8075 21.6919 27.7384 20.4319C28.2661 19.7191 28.8144 19.0225 29.3697 18.3333C29.4885 18.1854 29.6156 17.897 29.8476 18.0375C30.1446 18.2165 29.8946 18.5004 29.8269 18.6823C29.6321 19.2133 29.2813 19.6717 28.8959 20.0429C27.2854 21.5884 26.7702 23.5346 26.9221 25.7678C26.9635 26.3771 26.8254 26.9879 26.9028 27.609C27.0064 28.4313 27.2301 29.187 27.6901 29.8599C27.8793 30.138 28.1349 30.5269 27.8089 30.7621C27.458 31.0135 27.3379 30.5195 27.1887 30.277C26.6942 29.468 26.2411 28.6398 26.2964 27.541Z" fill="#060606"/>
<path d="M60.5407 37.6878C60.5642 38.1492 60.5918 38.5396 60.165 38.615C59.7769 38.6831 59.5932 38.3651 59.4772 38.0235C59.2852 37.46 59.2396 36.8744 59.2865 36.2798C59.3142 35.9353 59.4647 35.5995 59.7686 35.5433C60.0946 35.4827 60.1706 35.8776 60.2562 36.1349C60.433 36.6688 60.5076 37.2308 60.5407 37.6878Z" fill="#050505"/>
<path d="M33.2124 42.8462C32.2207 43.6418 31.3228 44.3635 30.4236 45.0808C30.3187 45.1651 30.2013 45.3322 30.0687 45.2198C29.9347 45.1074 29.9568 44.9063 30.0134 44.7377C30.3187 43.8237 32.1723 42.6702 33.2124 42.8462Z" fill="#090909"/>
<path d="M31.0217 29.7519C32.3698 29.1396 33.7138 29.2358 35.2222 29.7918C33.7083 30.3716 32.3671 29.8081 31.0217 29.7519Z" fill="#151515"/>
<path d="M68.9057 83C65.7992 83 62.6927 82.9985 59.5876 82.9985C59.455 82.9054 59.2644 83.037 59.1304 82.8551C62.6872 82.8551 66.2246 82.8551 69.762 82.8551C69.7634 82.8758 69.7648 82.895 69.7648 82.9157C69.4789 82.9438 69.1916 82.9719 68.9057 83Z" fill="#FDFDFD"/>
<path d="M36.1448 56.9771C36.1269 56.8573 36.0965 56.7375 36.0924 56.6163C36.0537 55.3873 36.1669 55.3089 37.2996 55.4154C38.0731 55.4879 38.8563 55.4376 39.6339 55.4553C40.4889 55.476 40.674 55.7408 40.348 56.5971C39.9475 57.653 39.1436 58.3865 38.3424 59.0594C37.8148 59.5016 36.3106 58.6587 36.1794 57.9296C36.1241 57.6205 36.131 57.2966 36.1089 56.9801C36.1214 56.9801 36.1338 56.9786 36.1448 56.9771Z" fill="#FDFDFD"/>
<path d="M39.5414 46.7401C40.0303 46.7357 40.3508 47.1527 40.3356 47.799C40.3273 48.1643 40.1767 48.6109 39.8328 48.4956C39.3576 48.3373 38.5703 48.7692 38.4419 47.8271C38.3742 47.3435 39.0096 46.746 39.5414 46.7401Z" fill="#F8F8F8"/>
<path d="M41.2182 25.1939C41.1574 25.7278 41.1201 26.2646 41.029 26.7926C40.9115 27.4699 40.5607 27.6932 39.9433 27.5468C39.3935 27.4167 38.9667 27.0987 38.7803 26.5234C38.5261 25.744 38.0703 24.7147 38.486 24.1645C38.9253 23.5833 39.982 24.0226 40.761 23.8806C41.0096 23.8362 41.1477 24.101 41.1533 24.3805C41.1588 24.6496 41.1546 24.9188 41.1546 25.1879C41.1754 25.1909 41.1975 25.1924 41.2182 25.1939Z" fill="#FDFDFD"/>
<path d="M41.9834 20.5649C41.7348 20.3771 41.5304 20.1671 41.4724 19.8728C41.4365 19.6908 41.2224 19.438 41.5097 19.296C41.7859 19.1599 41.9862 19.3122 42.134 19.5785C42.3467 19.96 42.2486 20.2691 41.9834 20.5649Z" fill="#D9D9D9"/>
</g>
<defs>
<clipPath id="clip0_1490_43176">
<rect width="90" height="90" fill="white" transform="matrix(0 -1 1 0 0 90)"/>
</clipPath>
</defs>
</svg>
