<svg width="90" height="90" viewBox="0 0 90 90" fill="none" xmlns="http://www.w3.org/2000/svg">
<g clip-path="url(#clip0_1492_43623)">
<path d="M89.1532 47.4983C89.1532 51.7369 88.4848 55.8821 87.1671 59.8182C85.0937 66.0025 81.9114 70.3456 80.1949 72.3846C76.7772 76.4514 73.3937 78.7145 70.9215 80.3689C64.0519 84.9697 57.581 86.9377 55.1165 87.5689C51.862 88.4054 45.0873 90.1456 36.5658 88.7041C31.3139 87.8153 27.5013 86.0676 24.9835 84.9099C21.2848 83.2145 17.0924 81.2913 12.9987 77.2954C8.13417 72.5489 6.18987 67.5896 4.46962 63.2166C1.6443 56.0203 1.22658 50.1124 1.00253 46.9419C0.869618 45.0523 0.759491 43.3456 0.759491 41.5382C0.759491 37.9904 1.20759 34.8759 2.17215 31.7315C2.88607 29.4012 3.96455 25.8796 6.87721 22.5C7.62911 21.6299 8.16455 21.1593 8.73038 20.6626C9.31898 20.1473 9.98354 19.5647 11.0696 18.3772C12.7443 16.5435 13.5949 15.2738 14.4987 13.9294C15.0418 13.1228 15.6 12.29 16.3481 11.3265C18.7443 8.24562 21.5127 5.66139 24.1443 4.05185C28.3975 1.44521 32.4304 1.28089 40.462 0.952263C46.2873 0.713257 50.4911 0.541473 55.8987 2.10247C60.1215 3.32363 63.1671 5.03773 66.6911 7.02446C69.4671 8.58919 72.338 10.2062 75.562 13.0967C79.1924 16.3494 81.3759 19.5124 82.1506 20.7224C82.8721 21.8502 85.0633 25.2859 86.8025 32.1423C87.7937 36.056 89.1532 41.4224 89.1532 47.4983Z" fill="#4D4D4D"/>
<path d="M1.51899 41.5382C1.51899 38.588 1.82278 35.4586 2.89747 31.9482C3.65696 29.476 4.70127 26.1822 7.45443 22.9855C8.93165 21.2714 9.46709 21.249 11.6316 18.8777C14.3772 15.8714 15.0038 14.2843 16.9481 11.7822C17.5899 10.9569 20.5747 7.1179 24.543 4.68678C28.6291 2.18471 32.5823 2.02412 40.4924 1.69923C46.2911 1.46023 50.3962 1.29218 55.6823 2.81956C59.8215 4.01458 62.8443 5.71748 66.3152 7.67433C69.2165 9.31002 71.9506 10.871 75.0494 13.6494C78.8962 17.1001 81.0418 20.3901 81.5051 21.1183C82.5911 22.8175 84.5013 26.1523 86.062 32.3216C87.076 36.3212 88.3899 41.5158 88.3899 47.4984C88.3899 51.2478 87.8734 55.3108 86.4418 59.583C84.2013 66.2677 80.6658 70.6445 79.6063 71.9067C76.3215 75.8092 73.0443 78.0424 70.4924 79.749C63.2051 84.6299 56.5367 86.4299 54.9228 86.8445C51.4215 87.7445 44.8861 89.354 36.6949 87.9648C31.6481 87.1096 27.9722 85.4552 25.3025 84.2303C21.6873 82.5723 17.5329 80.6677 13.5304 76.7615C8.78354 72.127 6.85443 67.2162 5.17595 62.944C2.44557 55.9942 1.99367 50.2395 1.75823 46.886C1.63671 45.142 1.51899 43.3756 1.51899 41.5382ZM0 41.5382C0 43.3718 0.110127 45.0897 0.243038 46.9868C0.470886 50.1984 0.892405 56.1772 3.75949 63.4781C5.50633 67.9221 7.48101 72.9598 12.4595 77.8183C16.6519 81.9075 20.9089 83.8606 24.6608 85.5822C27.2203 86.7548 31.0861 88.5287 36.4405 89.4362C45.1215 90.9075 52.0025 89.1374 55.3101 88.2897C58.4165 87.4905 64.6329 85.4814 71.3506 80.9851C73.7165 79.4017 77.2937 77.0079 80.7797 72.859C82.5266 70.7789 85.7734 66.3536 87.8886 60.0499C89.2329 56.0391 89.9127 51.8154 89.9127 47.4984C89.9127 41.3328 88.5418 35.9142 87.5392 31.9594C85.7734 24.9872 83.5329 21.4768 82.7962 20.3229C82.0063 19.0868 79.7734 15.8602 76.0785 12.544C72.7937 9.59756 69.8848 7.96188 67.0747 6.37848C63.5089 4.36935 60.4253 2.63284 56.1152 1.38554C50.5899 -0.209068 46.3291 -0.0372849 40.4354 0.205452C32.2709 0.54155 28.1696 0.709602 23.7456 3.41707C20.9962 5.1013 18.2316 7.67806 15.7481 10.8747C14.9848 11.8569 14.4152 12.7046 13.8684 13.5225C12.9835 14.8445 12.1443 16.088 10.5076 17.8806C9.4481 19.0382 8.79873 19.6059 8.22911 20.11C7.64051 20.6254 7.08608 21.1108 6.3038 22.022C3.29241 25.5212 2.18354 29.1287 1.45063 31.5187C0.459494 34.7303 0 37.9158 0 41.5382Z" fill="black"/>
<path d="M1.28231 19.0392C1.28231 18.8077 1.22515 18.1846 1.65463 17.416C3.63892 13.7965 2.68405 13.0017 10.2509 10.2566C13.8857 8.96493 17.3612 8.24955 21.228 8.51437C24.8419 8.75418 26.2073 9.55228 30.6018 9.71005C32.7688 9.81207 34.4127 9.67543 35.7339 10.2015C37.6198 10.9623 41.6977 6.21952 44.1051 4.19123C44.9198 3.4952 47.1745 2.17381 48.2726 1.68233C47.655 2.72769 46.0827 5.1942 46.182 5.97085C46.2504 6.58526 48.4471 4.82652 51.6988 3.54446C55.2204 2.1374 57.7233 2.07492 59.103 1.95811C60.4617 1.84734 62.9373 1.63676 64.1819 1.28439C63.612 1.86922 62.9993 2.41895 62.4926 3.0576C62.3995 3.17342 62.3401 3.30879 62.2936 3.44553C62.6052 3.41726 62.8678 3.24223 63.1599 3.15107C63.9402 2.88986 64.7476 2.71259 65.5541 2.54343C70.2616 1.5971 71.1458 1.781 72.8666 1.9586C69.9011 4.4931 68.2959 8.25768 69.6038 12.1552C71.6626 18.2721 75.927 23.2427 75.3424 25.0085C74.8787 26.2755 73.9087 27.0179 73.8345 27.4991C73.8269 27.7016 74.0671 27.7653 74.2258 27.8219C75.9327 28.3333 77.6771 28.7313 79.356 29.3266C80.2233 29.6545 80.5152 29.6588 82.1562 31.6071C83.6679 33.4274 85.4969 36.0171 86.6035 37.962C87.9202 40.2101 88.5592 43.2795 88.7174 45.9427C88.7174 50.3983 87.8668 52.2802 84.3837 55.7943C81.4079 58.7916 77.5177 61.7362 75.9266 64.0422C73.7153 67.2439 75.7472 70.2855 72.8205 71.7258C69.8099 73.2007 63.9397 78.6611 61.3775 79.8907C59.2544 80.896 63.1355 85.1173 64.9495 86.4593C65.5745 86.8961 65.2709 86.7575 67.8304 86.7802C66.0305 87.2446 59.772 88.5685 53.4025 88.7175C51.2281 88.7175 49.0641 88.6725 46.7534 88.2079C43.2813 87.489 40.8111 87.0095 40.8111 87.0095C39.8879 86.8099 39.2596 86.6706 38.9365 86.2624C38.5879 85.8234 38.3113 84.8571 37.8123 84.2435C36.3653 82.4765 33.2189 81.2592 30.9472 80.667C26.737 79.589 23.961 80.0163 21.9956 80.3278C17.0057 81.1284 11.9874 82.8135 8.54603 79.9687C4.3664 76.4681 0.335362 73.6764 3.70259 66.6988C3.81183 66.4668 4.04168 66.3241 4.22546 66.1509C9.66938 61.294 9.39248 63.301 8.11185 52.9804C6.69257 41.8374 8.17825 39.4609 10.1517 34.3285C11.6886 30.2411 10.0753 29.383 5.06891 24.5936C3.43907 23.0084 1.4791 21.0386 1.28231 19.0392ZM4.86999 73.2824C5.5026 74.4275 6.46911 75.361 7.4859 76.1966C9.85535 78.183 12.3435 79.9253 19.9045 78.2835C21.2347 78.0022 26.6774 76.1681 33.8205 78.8222C36.2342 79.7288 39.4537 81.4814 40.5199 83.7371C42.0423 86.8859 56.9783 86.2216 60.6167 86.0176C60.2429 85.7072 59.8568 85.4095 59.5091 85.0708C56.6351 82.3082 56.7509 79.438 58.0159 78.2597C58.2929 77.9926 58.6557 77.8362 58.9877 77.6425C62.4607 75.6571 70.9782 70.3374 72.5698 66.7922C73.1472 65.4906 72.5082 65.3293 72.6268 64.4233C72.9396 62.2077 77.0299 59.4203 78.999 57.7603C78.5977 57.7186 76.5067 57.6375 75.5115 57.6837C73.7485 57.802 72.6002 59.0185 72.2687 59.286C72.4876 58.6829 72.9103 58.1646 73.3948 57.7348C74.2204 56.9753 77.0841 56.8495 79.5784 56.1499C81.4413 55.6277 82.2589 55.1124 83.0715 53.666C84.194 51.6451 84.6801 48.611 84.589 47.3722C84.5067 46.541 83.3661 46.0717 82.76 46.1005L82.7434 46.0727C81.8292 45.9473 80.5434 46.2264 80.0956 47.1166C79.738 47.891 79.5732 48.7544 79.0669 49.4614C78.885 49.7477 78.5113 49.775 78.2349 49.9359C77.0309 50.5875 75.6915 51.868 73.9951 52.0729C72.097 52.3209 70.8116 51.5485 69.9805 49.9081C69.457 48.9231 69.194 47.5213 68.0623 45.8202C68.0143 45.7709 68.0471 45.7085 68.0675 45.6547C68.4233 44.8493 68.8787 42.9256 68.901 42.7856C69.0452 42.5324 69.8876 39.819 71.3536 38.5915C71.9852 38.0447 72.5855 38.6239 73.3768 38.5879C73.7719 38.5692 74.1652 38.5049 74.5631 38.5231C76.302 38.5274 77.7528 39.6793 78.0644 40.1418C78.579 40.8943 78.8815 41.8615 79.4773 42.339C81.2823 43.7963 82.0331 44.3151 83.6752 41.2632C83.9659 40.6829 84.2817 40.1027 84.4233 39.4681C84.466 39.3141 84.3572 39.1764 84.2951 39.0428C83.6473 37.8007 82.9643 36.574 82.2034 35.392C81.9235 34.9725 78.5399 33.5112 78.194 33.4014C77.6163 33.218 76.3349 32.9921 75.9723 33.0207C75.582 32.7905 70.4218 32.6948 69.5417 31.8142C69.8248 31.8557 70.0998 31.94 70.3857 31.9687C71.9495 32.1682 73.1913 31.5082 74.1989 30.9572C74.7878 30.6575 74.9467 30.5832 75.4992 30.886C76.755 31.6225 76.4434 31.9179 79.4797 32.0543C78.8283 31.4369 78.4057 31.5467 78.0259 31.4198C77.0403 31.1087 74.2873 29.5949 73.0828 29.4173C72.4554 29.0944 70.6856 29.2234 70.7276 28.5052C70.7891 27.6505 72.8131 26.1759 72.3319 24.3111C71.5143 21.2206 65.8022 13.5513 66.2884 9.85649C66.5091 7.8315 67.172 5.6209 68.3405 3.94157C67.1608 3.95478 65.9687 4.05917 64.8384 4.39879C63.1111 4.92876 62.6184 5.42362 59.3505 12.1006C58.8539 10.3361 58.5116 7.82123 59.5367 6.28325C59.9732 5.6059 60.432 4.94082 60.8556 4.2557C57.3207 4.83093 52.343 5.92239 49.0749 7.31848C48.073 7.74181 43.9866 10.0185 42.7521 10.4204C43.2845 9.38889 43.8583 8.37647 44.3792 7.33946C42.9197 8.41424 40.0316 10.8589 38.6259 12.8806C38.4692 13.0921 38.2654 13.2749 38.0203 13.3875C37.9334 13.4395 37.8018 13.4636 37.7838 13.5771C37.6261 14.1988 37.3189 15.5234 36.8705 15.983C35.4111 17.529 30.8677 17.7143 30.7278 18.8839C30.5809 19.9021 32.6487 21.2724 32.93 21.5287C31.0785 20.7046 28.7602 19.9163 26.7502 20.2642C26.4011 20.3367 26.014 20.416 25.7681 20.6863C24.9579 21.5548 27.9616 23.5938 29.246 24.6835C29.6899 25.0755 30.1745 25.4285 29.9693 25.9954C29.6537 26.914 28.1064 27.8086 27.209 28.2564C27.1768 28.1784 27.1454 28.1 27.1131 28.0212C25.901 29.1831 23.2014 31.9223 22.9902 33.5596C22.9238 35.767 20.8312 37.96 19.7179 37.7433C18.5149 37.3757 16.3056 33.2507 13.0161 30.3528C13.0596 31.3814 12.4501 32.8425 12.3474 33.3714C12.1427 33.778 12.0273 34.2197 11.8564 34.6395C11.1235 36.5718 10.5417 38.5624 10.233 40.5996C8.82567 49.7413 11.9776 58.5875 10.736 62.2755C12.8411 60.4228 20.1086 54.0879 22.8491 53.2591C22.7123 53.673 22.557 54.0941 22.5623 54.534C22.4189 55.2408 22.6509 56.3779 23.0315 56.8178C23.0477 56.9758 23.5138 57.5582 24.1006 57.9729C26.4783 59.6412 27.0605 60.7391 27.3116 60.9531C28.2353 61.6528 29.1767 62.332 30.0924 63.0418C26.7924 67.9357 26.6875 67.6867 26.7142 68.1007C26.7569 68.6647 28.3585 68.4451 29.4925 68.3906C30.1191 68.3842 30.4157 68.2868 31.6867 68.928C33.3024 69.7668 35.2682 71.3101 36.5975 72.9658C37.6274 74.2841 37.6716 74.7367 38.2916 76.7597C38.3177 76.8377 38.3419 76.9175 38.3871 76.9881C38.4246 77.2265 38.5158 77.4526 38.5666 77.6883C36.9055 74.9606 35.2602 73.0557 34.835 72.7092C34.6199 72.4469 33.9617 71.846 33.728 71.7022C33.595 71.524 32.502 70.7144 31.5271 70.4988C30.2695 70.2385 29.3371 72.1373 26.3969 73.7116C25.7415 74.0781 21.1093 76.1463 17.4658 76.8537C13.7201 77.5729 10.2917 77.107 7.39814 74.6429C4.84873 72.5058 4.56292 71.2186 4.28782 70.6447C4.18939 71.5557 4.42542 72.4784 4.86999 73.2824ZM5.94285 14.8706C9.41379 12.8085 17.412 12.1304 21.4009 11.9592C21.5083 13.2099 23.0295 14.0955 24.2638 14.5561C25.019 14.8305 25.8819 14.9426 26.6518 14.654C27.0821 14.5059 27.4406 14.221 27.747 13.9015C27.3895 15.2 27.311 15.9407 28.9367 16.1729C27.32 16.5714 25.6877 16.9132 24.0691 17.3043C24.4104 17.4747 28.0591 19.097 29.2368 18.3186C30.1585 17.718 31.8655 17.2521 33.3569 16.8006C34.386 16.4625 34.2028 16.5844 34.9641 15.7896C35.5938 15.0798 36.2041 14.3528 36.784 13.6048C35.3454 13.472 33.9333 12.8133 32.2199 12.2993C29.7429 11.5653 29.2263 12.0141 28.4509 12.0463C25.2656 12.2499 21.0802 9.51231 17.9354 10.434C14.5992 11.3818 8.5933 12.3599 5.94285 14.8706ZM10.1745 20.8334C10.4013 21.6226 11.0946 22.7923 11.2678 22.9699C11.7068 23.9674 14.545 27.427 15.4016 28.4404C16.1735 29.3218 17.3183 30.9519 18.9522 30.8636C19.9887 30.8182 20.5353 30.1972 21.5824 29.8002C23.3962 29.105 25.2465 28.5033 27.0816 27.8638C26.6668 26.4256 25.9137 24.2208 25.1296 22.9321C24.7214 22.2834 24.5618 22.0008 22.5289 21.374C19.6755 20.545 15.2898 19.9177 12.2471 19.7143C10.8893 19.6423 10.2973 19.5925 10.1436 20.0489C10.0614 20.3051 10.1066 20.5799 10.1745 20.8334ZM11.4131 70.8337C11.8448 70.9139 12.2875 70.8373 12.7097 70.7407C18.126 69.4463 25.2532 64.4596 26.1741 63.3297C26.4405 63.1515 26.6447 62.8999 26.8547 62.6651C26.999 62.486 27.1515 62.2895 27.1619 62.0538C27.1795 61.748 27.2047 61.443 27.2175 61.1367C24.9188 59.9113 21.3206 58.5228 19.2353 60.0468C16.9857 61.664 10.5074 68.2542 10.876 70.3441C10.9178 70.6012 11.1552 70.7872 11.4131 70.8337Z" fill="black" stroke="black" stroke-width="0.0393384"/>
<path d="M4.28765 70.6445C4.52766 71.1452 4.81413 72.4767 7.39797 74.6427C12.2625 78.7853 18.3026 77.1033 24.2239 74.6814C25.2877 74.2267 26.6672 73.7927 28.6379 72.2158C29.8744 71.2383 30.6305 70.3131 31.5269 70.4987C32.1761 70.6423 32.7579 70.9782 33.2932 71.3483C33.4437 71.4586 33.6152 71.5511 33.7277 71.7021C33.9234 72.0125 34.2635 72.1925 34.509 72.4615C34.5964 72.5686 34.7213 72.6324 34.8348 72.709C35.1426 72.9598 36.7389 74.6873 38.5664 77.6881C38.5155 77.4524 38.4243 77.2263 38.3869 76.9879C38.8958 77.5455 39.7644 78.7934 41.0175 79.3441C41.2925 79.4681 41.5951 79.5173 41.8952 79.5447C44.8941 79.8111 44.7464 79.6279 44.5928 79.0155C44.5656 78.9242 44.0662 77.1868 43.9787 76.7176C44.2767 77.0245 46.5752 80.1087 49.6504 81.8603C51.8051 83.081 54.5945 82.6846 54.6025 81.5203C54.5253 80.655 52.9743 79.1115 53.5538 78.6253C54.0545 78.2118 55.2065 78.3909 55.8682 78.1576C56.0316 78.1107 56.0943 77.9475 56.1118 77.7993C56.2579 76.7747 56.4932 74.5482 55.6545 73.9106C55.5234 73.8107 55.35 73.8012 55.1914 73.7774C56.4534 72.8188 56.966 72.8948 57.6065 72.8065C61.767 72.2662 67.2925 70.7877 66.672 66.7981C66.5879 66.3053 66.6645 66.1572 65.498 65.7862C63.2502 65.1406 60.0379 64.8137 59.5167 64.3644C59.6568 63.9328 60.0695 63.6406 60.4618 63.4227C62.4177 62.4427 65.8321 63.1322 67.5554 62.7098C70.4687 62.0168 72.7757 60.0173 69.6783 58.8105C68.396 58.3487 67.0158 58.2827 65.6765 58.0702C66.212 57.7751 72.9448 54.5123 74.4618 54.3355C77.924 54.0632 83.0916 52.9771 83.419 49.6719C83.6771 47.7883 83.0309 46.6906 82.7598 46.1004C83.3384 46.073 84.5047 46.5229 84.5888 47.3722C84.6724 48.5083 84.2441 51.5547 83.0714 53.666C82.2506 55.1269 81.4188 55.6339 79.5782 56.1498C77.0855 56.8491 74.2202 56.9755 73.3946 57.7348C72.9102 58.1646 72.4875 58.6829 72.2685 59.2859C72.5306 59.0745 73.7143 57.8043 75.5113 57.6837C76.5086 57.6374 78.6006 57.7189 78.9988 57.7602C76.9988 59.4463 72.9383 62.2156 72.6266 64.4232C72.5098 65.3163 73.1418 65.5025 72.5696 66.7922C70.9753 70.3434 62.4337 75.6725 58.9875 77.6425C58.6555 77.8362 58.2927 77.9925 58.0158 78.2597C56.7546 79.4345 56.6302 82.3037 59.5089 85.0708C59.8566 85.4095 60.2427 85.7071 60.6165 86.0176C57.012 86.2196 42.044 86.8897 40.5197 83.737C38.8816 80.2714 30.5418 76.124 22.088 77.7811C20.0352 78.1775 13.9933 80.1418 9.77496 77.8299C8.94195 77.3827 8.20245 76.7974 7.48579 76.1966C5.70627 74.7344 4.0461 72.8832 4.28765 70.6445Z" fill="#4D4D4D" stroke="#4D4D4D" stroke-width="0.0393384"/>
<path d="M5.94278 14.8706C8.5911 12.3619 14.5817 11.3867 17.9353 10.4339C21.0797 9.51234 25.266 12.2499 28.4508 12.0462C29.2244 12.0142 29.7441 11.5656 32.2198 12.2992C33.9247 12.8106 35.3471 13.4721 36.7839 13.6047C36.204 14.3527 35.5937 15.0798 34.9639 15.7895C34.2033 16.5837 34.3856 16.4626 33.3568 16.8006C31.8641 17.2524 30.1575 17.7186 29.2367 18.3185C28.3425 18.9096 26.1363 18.1281 25.1224 17.7474C24.7676 17.6074 24.4095 17.4743 24.069 17.3043C25.6876 16.9132 27.3199 16.5713 28.9366 16.1729C27.2949 15.9385 27.393 15.1866 27.7469 13.9015C27.4406 14.221 27.082 14.5059 26.6517 14.654C25.8818 14.9426 25.0188 14.8304 24.2637 14.5561C23.0313 14.0962 21.5082 13.2108 21.4008 11.9591C17.3336 12.1338 9.40946 12.8111 5.94278 14.8706Z" fill="#666666" stroke="#666666" stroke-width="0.0393384"/>
<path d="M11.8561 34.6394C12.0271 34.2196 12.1425 33.7779 12.3472 33.3713C12.3429 33.8536 12.2328 34.3249 12.1677 34.8003C11.0842 42.0386 10.9607 42.1455 11.215 44.8205C11.6078 48.8078 12.0055 49.7393 12.0822 50.1347C12.3313 51.4452 13.0039 56.032 14.1634 55.4041C14.3871 55.2751 14.5229 55.0513 14.7105 54.8826C17.0711 52.719 25.1964 49.5957 26.3801 50.3143C26.5535 50.4196 26.5392 50.6985 26.3559 50.7874C23.1114 52.6521 22.8276 53.9959 22.5622 54.534C22.5569 54.094 22.7122 53.6729 22.849 53.259C20.0984 54.0908 12.8065 60.453 10.7358 62.2754C11.0915 61.2188 11.0578 60.0937 11.0018 58.9984C10.4777 51.3462 8.27087 44.0931 11.8561 34.6394Z" fill="#4D4D4D" stroke="#4D4D4D" stroke-width="0.0393384"/>
<path d="M10.1436 20.0489C10.2972 19.5926 10.8884 19.6423 12.247 19.7143C15.2995 19.9183 19.6888 20.5489 22.5288 21.374C24.5199 21.988 24.701 22.2511 25.1295 22.9321C25.5461 23.6167 25.8519 24.3557 26.1516 25.0923C25.8738 25.4415 24.7986 26.2887 24.4276 26.5578C23.1302 27.502 20.1931 26.4762 17.703 26.2844C16.7463 26.229 16.2606 26.4193 13.9534 24.9082C12.5038 23.9174 11.9767 23.4318 11.2677 22.97C11.0796 22.7771 10.978 22.5232 10.8364 22.2989C10.4903 21.679 9.94682 20.6623 10.1436 20.0489Z" fill="#666666" stroke="#666666" stroke-width="0.0393384"/>
<path d="M11.413 70.8337C11.1552 70.7872 10.9177 70.6013 10.8759 70.3441C10.621 68.8994 13.5946 65.5446 14.5932 64.4356C15.9141 65.6742 18.0321 65.9023 19.8735 65.6267C22.9317 65.1659 25.5023 63.6141 26.1739 63.3297C25.3453 64.3464 18.29 69.407 12.7096 70.7407C12.2874 70.8374 11.8448 70.914 11.413 70.8337Z" fill="#4D4D4D" stroke="#4D4D4D" stroke-width="0.0393384"/>
<path d="M11.215 44.8204C10.9639 42.1795 11.072 42.1204 12.1677 34.8003C12.2328 34.3248 12.3429 33.8535 12.3472 33.3712C12.4499 32.842 13.0595 31.3833 13.0159 30.3527C15.6881 32.7068 17.6825 35.9165 18.982 37.2235C19.4777 37.7014 19.8368 38.034 20.7725 37.4524C21.8844 36.726 22.9438 35.0945 22.99 33.5595C23.2011 31.9221 25.901 29.1828 27.1129 28.0211C27.1452 28.1 27.1765 28.1783 27.2088 28.2563C28.384 27.6698 30.6216 26.3079 29.8594 25.2815C29.1139 24.2951 24.8085 21.7146 25.7679 20.6862C26.2833 20.1199 28.0461 20.025 29.8176 20.4392C30.8957 20.6848 31.9273 21.0824 32.9299 21.5286C32.7188 21.3363 29.6093 19.2313 31.1351 18.3596C32.058 17.8441 33.7026 17.5097 35.0234 17.0363C37.0588 16.2805 37.1273 15.6989 37.4237 14.8679C37.5705 14.4449 37.674 14.0095 37.7837 13.577C37.8018 13.4635 37.9334 13.4393 38.0203 13.3874C38.2653 13.2747 38.4691 13.0919 38.6258 12.8805C40.0833 10.7844 43.0857 8.29176 44.3792 7.3393C43.8581 8.37632 43.2845 9.38873 42.7521 10.4203C43.5462 10.1617 46.0911 8.83931 46.8312 8.45154C48.2685 7.70804 49.4599 6.86599 54.4753 5.57658C56.5811 5.05007 58.7098 4.60476 60.8555 4.25554C59.5502 6.36655 59.0375 6.63593 58.895 8.34988C58.8062 9.61438 59.0076 10.8821 59.3505 12.1005C60.1814 10.4027 61.8225 6.95101 63.0492 5.45988C64.0734 4.19847 66.6745 3.96013 68.3405 3.94146C67.1714 5.62157 66.5091 7.83077 66.2883 9.85638C65.9028 12.7864 69.4049 18.1958 71.3914 22.0674C72.3364 23.9683 72.7765 24.899 71.9932 26.3472C71.5123 27.2637 70.7658 27.9721 70.7275 28.5052C70.6851 29.2301 72.4465 29.0898 73.0827 29.4173C73.4242 29.7441 73.8178 30.029 74.0872 30.4188C74.1983 30.577 74.1878 30.7753 74.1987 30.9572C73.5386 31.3182 72.8632 31.6724 72.1223 31.8552C70.8183 32.1846 69.9546 31.8747 69.5415 31.8142C70.1957 32.4688 72.8655 32.6408 75.6677 32.9487C76.1373 33.0288 75.6441 32.8924 76.7767 33.4902C81.5932 36.0841 81.53 36.0118 81.7364 36.2959C82.3898 37.1605 81.684 38.73 80.4185 38.9986C79.0204 39.3099 77.8071 37.6525 77.064 37.0425C75.9952 36.1838 74.5119 36.1417 73.1397 36.1605C69.5442 36.2926 69.4902 37.8569 69.0448 41.394C68.9978 41.858 68.9066 42.3185 68.9009 42.7857C68.8871 42.8723 68.4377 44.8164 68.0674 45.6547C68.047 45.7085 68.0142 45.771 68.0622 45.8202C69.1825 47.5042 69.4669 48.942 69.9804 49.9082C70.8114 51.5482 72.0965 52.321 73.995 52.0729C75.6905 51.8681 77.0357 50.5849 78.2348 49.936C78.5112 49.775 78.8849 49.7477 79.0668 49.4614C79.5731 48.7544 79.7379 47.8911 80.0955 47.1166C80.5326 46.2478 81.7927 45.9424 82.7433 46.0727L82.7599 46.1005C83.0069 46.6386 83.681 47.7602 83.4191 49.672C83.0917 52.977 77.9245 54.0633 74.4619 54.3356C73.0047 54.5054 66.3491 57.6996 65.6766 58.0703C67.0159 58.2827 68.3961 58.3488 69.6784 58.8106C70.2747 59.043 71.0967 59.443 71.1492 60.091C71.2304 60.7726 70.5052 61.4144 69.9077 61.7749C69.1882 62.2152 68.3813 62.5133 67.5554 62.7098C65.8316 63.1324 62.4181 62.4426 60.4618 63.4227C60.0695 63.6406 59.6568 63.9328 59.5167 64.3645C60.0379 64.8138 63.2474 65.1398 65.498 65.7863C66.6637 66.157 66.5878 66.3049 66.672 66.7982C67.2921 70.785 61.7749 72.2653 57.6065 72.8066C56.9598 72.8958 56.4523 72.8197 55.1914 73.7775C55.3501 73.8012 55.5234 73.8108 55.6545 73.9106C56.495 74.5496 56.2565 76.7844 56.1118 77.7994C56.0942 77.9475 56.0315 78.1107 55.8682 78.1577C55.2065 78.391 54.0545 78.2118 53.5538 78.6254C52.9742 79.1117 54.5253 80.6553 54.6025 81.5204C54.5945 82.689 51.7991 83.0776 49.6503 81.8604C46.581 80.1121 44.2793 77.0272 43.9787 76.7177C44.065 77.1804 44.5598 78.9049 44.5928 79.0156C44.7469 79.6301 44.8901 79.8108 41.8952 79.5448C41.595 79.5175 41.2925 79.4682 41.0175 79.3442C39.7645 78.7935 38.892 77.5414 38.3868 76.988C38.3417 76.9174 38.3175 76.8376 38.2914 76.7596C37.6719 74.7384 37.6276 74.2845 36.5973 72.9657C35.2703 71.3127 33.3049 69.7681 31.6864 68.9279C30.4155 68.2867 30.1188 68.3841 29.4923 68.3905C28.3138 68.4471 26.7563 68.6591 26.7139 68.1006C26.6873 67.6866 26.7922 67.9354 30.0921 63.0417C29.1764 62.332 28.2351 61.6528 27.3114 60.953C27.0383 60.7203 26.4921 59.6508 24.1004 57.9727C23.5032 57.5508 23.047 56.9706 23.0313 56.8177C23.0493 56.3272 22.7568 55.9087 22.5644 55.4752C22.5051 55.1684 22.4998 54.8407 22.5621 54.5339C22.8236 54.0039 23.1026 52.6571 26.3558 50.7874C26.7085 50.6164 26.9985 49.143 20.687 51.6398C15.0852 53.8796 14.5557 55.1778 14.1633 55.4042C13.001 56.0336 12.3268 51.4215 12.0822 50.1347C12.0076 49.7504 11.8632 49.3821 11.7962 48.9956C11.5351 47.6134 11.3527 46.2185 11.215 44.8204ZM39.2726 71.2147C39.8072 71.9282 41.3091 72.9964 41.8083 73.4483C41.7627 73.4488 41.671 73.4492 41.6254 73.4492C42.1119 73.7688 45.1911 75.5503 47.857 76.6537C48.6337 76.9808 49.3562 77.0585 52.0777 80.1555C52.1466 79.4809 52.1931 78.7994 52.1224 78.1234C52.0901 77.8904 52.0431 77.5914 51.779 77.4998C51.6755 77.4391 51.5074 77.4428 51.4604 77.3211C51.5193 77.0849 51.7681 76.9432 52.0061 76.9158C52.9222 76.8205 54.1636 77.5246 54.8068 77.8357C54.3503 77.3275 53.8783 76.832 53.4261 76.3201C53.2115 76.068 52.8942 75.9189 52.6862 75.6619C52.5033 75.4353 52.5551 75.1313 52.5864 74.8678C52.7574 73.7487 53.3682 72.7623 53.8446 71.7467C54.1014 71.118 54.1143 71.1398 53.4646 70.2206C52.4873 68.8931 50.6343 66.7115 51.2129 66.2598C51.5449 65.9973 51.912 65.7616 52.159 65.4161C51.2405 65.5579 50.283 65.6445 49.3763 65.3919C48.9693 65.2784 48.558 65.1362 48.2246 64.8777C49.3098 64.8085 50.3694 64.5564 51.4257 64.3221C53.0195 63.9456 54.6243 63.4569 55.976 62.5356C57.9182 61.2152 57.4628 60.3553 60.4527 59.1752C61.3897 58.805 62.3776 58.5771 63.3673 58.3825C61.6043 58.2245 61.5593 57.6466 62.0233 57.082C62.7656 56.2359 63.6304 55.4993 64.5176 54.7978C64.3552 54.8169 64.1946 54.8456 64.0332 54.8679C64.0051 54.862 63.9491 54.8502 63.9211 54.8438C64.2968 54.4427 66.8599 51.6255 67.0623 51.3375C66.946 51.3498 66.8215 51.3548 66.727 51.4286C65.8298 52.0778 64.9241 52.7173 63.9861 53.3103C63.9016 53.3522 63.8033 53.4334 63.7083 53.3755C62.8024 52.9224 58.5494 48.4715 56.4884 49.8072C56.0978 50.0321 56.9383 50.4835 57.3395 50.914C57.9189 51.43 58.2798 52.1721 58.2798 52.9347C58.3121 53.8477 57.908 54.697 57.5518 55.5211C57.4178 55.7915 57.3223 56.1096 57.0426 56.2764C56.6246 55.4922 56.8816 54.666 55.7878 53.9503C55.7009 53.9056 55.5793 53.8171 55.4919 53.9065C55.3381 54.1705 55.3347 54.5032 55.1158 54.7357C54.3771 55.5228 53.0975 57.8973 52.5417 57.8504C51.905 57.3198 54.3077 52.8065 54.4747 52.3799C53.8524 52.6118 52.4986 53.2209 51.9575 53.2624C51.7889 53.2879 51.6911 53.116 51.6782 52.9784C51.5845 52.2092 51.965 51.0365 52.1921 50.2935C51.7832 50.2165 51.3685 50.1695 50.9563 50.1162C50.8756 50.1221 50.7668 50.0756 50.7065 50.1399C50.2606 49.8687 49.7695 49.6777 49.2837 49.4844C47.873 48.9145 44.7167 49.3813 44.0547 49.5806C44.5253 49.6508 44.9765 49.7994 45.4244 49.9484C46.2384 50.2274 47.0439 50.5314 47.8242 50.8884C47.9743 50.9627 48.188 51.052 48.1671 51.2485C48.1296 51.727 47.3327 52.4763 46.3838 53.7374C45.6337 54.7283 44.68 56.0075 43.7589 58.7397C43.1811 60.4945 42.4618 63.3905 43.4668 64.9592C43.7096 65.3037 43.6376 65.2518 44.4978 65.426C44.6536 65.4588 44.8293 65.4715 44.9466 65.5891C45.4325 66.0217 45.9359 66.437 46.4641 66.8217C47.4284 67.5002 47.6963 67.5601 48.0599 67.4759C48.7713 67.3282 49.4372 67.0369 50.1068 66.7721C49.923 67.0875 49.7559 67.4226 49.7217 67.7877C49.3469 68.1163 49.0744 68.5348 48.7186 68.8808C47.1406 70.3816 48.1377 70.3207 48.606 71.9221C48.6616 72.1432 48.7214 72.3921 48.6136 72.6072C48.3181 73.1524 47.592 72.709 45.565 72.8301C45.1162 72.863 44.6655 72.8502 44.2167 72.8853C43.1082 72.9713 41.7362 71.951 40.0359 71.1231C39.7651 70.9955 39.4783 70.8733 39.1687 70.8929C39.1857 71.0042 39.1956 71.1236 39.2726 71.2147ZM39.4084 17.9338C40.165 17.6038 40.9045 17.2337 41.6843 16.9533C42.2176 16.969 43.8668 16.5526 44.9429 16.4113C44.8436 16.9455 44.6218 17.4524 44.5397 17.9894C44.9001 17.7465 45.2521 17.4907 45.6439 17.2929C46.0913 17.0591 46.5377 16.817 47.0165 16.6475C47.291 16.5444 47.5906 16.6839 47.7664 16.8904C48.6565 17.9408 48.6891 21.3388 48.4888 22.205C48.399 22.6768 46.4376 21.4556 44.5492 21.2122C44.2804 21.1772 43.9461 21.1908 43.7837 21.4342C43.3267 22.1359 43.7928 24.2319 44.0149 25.9994C44.0259 26.1302 44.0705 26.2542 44.127 26.3718C43.8779 29.4168 44.5023 32.7491 45.3196 34.643C45.8069 35.8197 47.2642 37.4611 48.04 38.4597C48.1919 38.6771 48.3791 38.8978 48.4052 39.1676C48.4308 39.339 48.2608 39.4352 48.1254 39.4995C47.2648 39.9091 45.2358 40.7032 44.2922 40.8373C44.7513 40.9932 48.0757 41.5632 49.6238 40.8961C50.0741 40.7074 50.5466 40.547 50.9437 40.2625C49.4913 38.7223 48.3054 36.9445 47.4847 35.0213C48.3201 35.4644 49.2306 35.7575 50.1358 36.0383C50.5043 36.1267 50.8824 36.2845 51.2676 36.2047C51.2091 36.0894 51.1445 35.9768 51.0771 35.866C50.6879 35.2516 50.3786 34.0427 50.596 32.5821C50.7691 31.294 49.7218 30.3916 48.5709 29.6999C47.4901 29.0358 47.3793 28.647 47.431 27.7658C47.0017 28.3091 46.6725 28.9163 46.3515 29.5216C46.3311 28.8607 46.4906 28.2107 46.6127 27.5638C46.7671 26.9303 46.5857 26.9265 47.5944 25.6712C49.1583 25.9891 54.1558 27.0203 54.7346 28.4345C54.9383 28.8926 54.8761 29.4236 54.6615 29.8676C54.3395 30.5586 53.7629 31.0961 53.1768 31.5852C59.3722 33.0624 58.3897 33.5662 60.6195 34.1384C61.4962 34.3572 62.4033 34.4584 63.3086 34.4702C63.888 34.4826 64.4646 34.3959 65.0264 34.266C64.8915 34.2551 64.7567 34.246 64.6222 34.241C64.7624 34.2137 66.0216 34.0618 66.597 33.8052C65.8865 33.6995 65.138 33.5755 64.5572 33.1379C64.3497 32.9884 64.2732 32.7089 64.3611 32.4769C64.5107 32.0215 64.8859 31.6906 65.2136 31.3501C63.5898 31.0192 61.966 30.5679 60.5208 29.7652C60.1655 29.556 59.8088 29.3281 59.5471 29.0113C59.3852 28.8189 59.3415 28.5176 59.5011 28.312C59.9048 27.7919 60.9873 27.5113 61.6506 27.3871C61.491 27.0197 61.2598 26.6869 61.027 26.3592C59.8413 24.7676 59.1344 24.7042 58.3213 24.6215C57.3309 24.5068 55.744 24.6886 55.05 24.3042C54.3037 23.9006 55.5221 21.1778 55.2343 19.1132C55.1958 18.7663 55.0571 18.4422 54.9417 18.1149C54.5009 16.9069 55.095 15.994 55.7933 14.45C56.6785 12.5007 57.4079 11.0746 57.143 9.48866C56.9624 8.55051 56.3448 7.93667 55.9144 8.03591C55.8194 8.20732 55.8189 8.41471 55.7116 8.58245C55.3693 9.16555 54.7445 9.8726 54.3798 9.91393C54.226 9.93491 54.1638 9.77399 54.0925 9.67554C53.6019 8.85504 53.2509 7.96751 52.8435 7.10826C52.5509 7.7747 52.3638 8.47897 52.0693 9.14446C51.3227 10.6882 49.5082 11.5981 48.7182 12.4019C48.6565 12.4621 48.589 12.5213 48.5031 12.5446C48.2124 12.1854 48.937 9.86394 49.0787 9.14037C47.2714 9.49054 47.3711 9.3932 46.7572 9.88246C45.5186 10.8813 43.4313 13.8964 42.584 15.1292C42.5089 15.2354 42.4605 15.3548 42.4173 15.4742C41.4241 16.3051 40.3968 17.0983 39.4084 17.9338Z" fill="#666666" stroke="#666666" stroke-width="0.0393384"/>
<path d="M11.2677 22.97C12.3602 23.6815 14.6165 25.6758 16.4056 26.1567C16.8254 26.2843 17.2695 26.2592 17.7031 26.2843C19.3658 26.4124 20.9839 26.8737 22.6528 26.9489C24.0307 26.9819 24.3191 26.6915 25.3671 25.8184C25.634 25.5819 25.9294 25.3717 26.1516 25.0923C26.4936 26.0058 26.8118 26.9284 27.0815 27.8638C22.9556 29.3016 21.4397 29.7541 20.6391 30.2569C19.3993 31.0023 18.3381 31.1483 17.1089 30.2232C16.4397 29.7245 15.942 29.0576 15.4015 28.4404C14.1296 26.9357 11.6542 23.8481 11.2677 22.97Z" fill="#4D4D4D" stroke="#4D4D4D" stroke-width="0.0393384"/>
<path d="M14.5932 64.4356C15.6433 63.2879 16.7385 62.177 17.9026 61.1358C19.0895 60.0873 19.6125 59.7257 20.235 59.544C22.3276 58.9182 25.3096 60.1197 27.2174 61.1367C27.2046 61.443 27.1794 61.748 27.1618 62.0539C27.1514 62.2895 26.9989 62.486 26.8545 62.6652C26.6446 62.8999 26.4404 63.1515 26.174 63.3298C25.5047 63.6131 22.9325 65.1658 19.8735 65.6267C18.0209 65.904 15.909 65.6695 14.5932 64.4356Z" fill="#666666" stroke="#666666" stroke-width="0.0393384"/>
<path d="M22.5645 55.4752C22.7568 55.9087 23.0494 56.3272 23.0313 56.8176C22.8171 56.57 22.5717 55.9274 22.5645 55.4752Z" fill="#4E4E4E" stroke="#4E4E4E" stroke-width="0.0393384"/>
<path d="M34.509 72.4615C34.2635 72.1925 33.9234 72.0125 33.7278 71.702C33.9684 71.85 34.6284 72.4574 34.8349 72.709C34.7213 72.6324 34.5964 72.5686 34.509 72.4615Z" fill="#666666" stroke="#666666" stroke-width="0.0393384"/>
<path d="M39.2726 71.2147C39.1956 71.1236 39.1857 71.0041 39.1686 70.8929C40.222 70.8262 42.6932 73.0036 44.2166 72.8854C44.6655 72.8503 45.1162 72.863 45.565 72.8302C47.5926 72.709 48.3182 73.1523 48.6136 72.6073C48.7214 72.3921 48.6615 72.1432 48.606 71.9221C48.1376 70.3207 47.1405 70.3815 48.7185 68.8808C49.0742 68.5348 49.3469 68.1164 49.7216 67.7877C49.7064 68.1524 49.8531 68.5221 50.1448 68.7614C51.018 69.4821 52.1487 70.2469 52.3114 71.1021C52.5022 72.0336 50.2721 74.4477 50.5466 75.0182C50.7185 75.1641 50.9289 75.2607 51.1146 75.3897C50.9094 75.3492 50.6287 75.2407 50.4811 75.4467C50.2146 75.8829 50.2161 76.4144 50.2412 76.9049C49.0325 75.841 45.6444 73.5918 41.8083 73.4483C41.301 72.9891 39.812 71.9346 39.2726 71.2147Z" fill="#4D4D4D" stroke="#4D4D4D" stroke-width="0.0393384"/>
<path d="M39.4084 17.9338C40.2698 17.2056 47.7511 11.1672 48.246 10.8008C47.7012 11.5195 46.0787 13.5063 45.2729 14.293C45.1893 14.3837 45.1366 14.4949 45.0801 14.6006C45.8521 14.9436 48.1037 14.2409 48.9361 13.9315C50.2324 13.4311 51.3447 12.878 52.6667 9.89001C52.6843 10.2893 52.6748 10.6891 52.6795 11.0884C52.6833 11.3141 52.6491 11.5411 52.5508 11.7471C52.0433 12.862 51.0698 13.9878 51.2201 14.4416C51.9291 14.7603 53.9521 12.2487 54.4743 11.6336C54.1473 12.4724 53.0139 15.2079 52.3642 15.8551C52.1785 16.0584 52.0647 16.0593 52.3423 17.1465C52.8363 18.9295 53.9083 21.4094 53.6503 22.1479C53.2103 23.0078 49.9279 24.3333 50.0674 24.8834C50.2208 25.0165 50.4373 25.037 50.6311 25.0794C52.5437 25.4112 56.7104 25.7052 58.6684 25.8498C58.0958 25.9317 56.669 25.9101 55.9717 26.2208C56.4129 26.7041 58.4207 27.4707 58.2499 29.7763C58.185 30.6022 58.5235 31.1991 59.5375 31.5286C60.7379 31.9078 62.3502 31.7958 63.5939 31.6083C63.1816 31.767 61.7617 32.232 61.961 32.9389C62.0389 33.2097 62.2759 33.3984 62.4948 33.5675C63.4822 34.2735 64.5285 34.2254 65.0262 34.2658C64.4644 34.3957 63.8878 34.4823 63.3084 34.47C61.9377 34.4521 60.1948 34.1998 59.024 33.526C57.5663 32.6652 54.816 31.976 53.1766 31.585C53.7626 31.0959 54.3392 30.5585 54.6612 29.8674C54.8759 29.4234 54.9381 28.8924 54.7344 28.4343C54.156 27.0209 49.1822 25.9938 47.5942 25.671C46.5865 26.9252 46.7662 26.933 46.6125 27.5637C46.4904 28.2105 46.3308 28.8605 46.3513 29.5215C46.6723 28.9161 47.0015 28.3089 47.4308 27.7656C47.4099 28.1216 47.399 28.5013 47.5833 28.8236C48.0468 29.6596 49.2909 29.8455 50.1517 31.0093C50.4879 31.4602 50.6703 32.0272 50.5958 32.582C50.2687 34.7795 51.0961 35.8665 51.2673 36.2045C50.8822 36.2843 50.5041 36.1266 50.1356 36.0382C49.2304 35.7574 48.3199 35.4642 47.4845 35.0212C48.3052 36.9444 49.4911 38.7221 50.9434 40.2624C50.5464 40.5468 50.0738 40.7073 49.6236 40.896C48.0856 41.5586 44.7668 40.9984 44.292 40.8372C45.2351 40.7031 47.2639 39.9093 48.1252 39.4993C48.2606 39.4351 48.4306 39.3389 48.405 39.1675C48.3546 38.6468 47.4249 37.7997 46.3803 36.3604C45.7001 35.4278 45.0928 34.68 44.5181 31.9994C44.053 29.7473 43.59 25.3635 45.0819 23.5806C47.2638 23.6849 47.0657 24.2657 48.8424 23.1863C49.0941 23.0217 49.3658 22.8768 49.5738 22.6593C50.0355 22.1346 50.3921 21.5266 50.6158 20.8742C51.0646 19.5827 51.3506 17.6025 50.9374 16.7631C50.5973 16.1057 48.5846 16.5913 47.819 16.7407C48.2478 16.4535 48.7019 16.1974 49.0965 15.8655C49.192 15.7798 49.258 15.6695 49.3274 15.5638C47.9694 15.1971 44.4197 15.8037 41.6843 16.9531C40.9044 17.2336 40.165 17.6037 39.4084 17.9338ZM46.7628 32.0022C47.0681 31.9949 47.3835 32.0009 47.6713 32.113C48.0531 32.2475 48.3657 32.531 48.5485 32.8779C48.3307 32.8693 47.0108 32.7466 47.0753 33.0589C47.1124 33.3246 47.2562 33.563 47.393 33.7919C47.8487 34.4687 48.0473 34.4542 48.5519 34.2569C49.4585 33.8765 49.9282 32.969 49.3834 31.8865C49.0557 31.252 48.5551 30.7059 47.9753 30.2719C47.6853 30.0876 47.5607 29.9475 47.1992 30.6822C47.0121 31.1079 46.8673 31.5514 46.7628 32.0022Z" fill="black" stroke="black" stroke-width="0.0393384"/>
<path d="M43.1808 74.3505C42.6608 74.0528 42.1251 73.7775 41.6254 73.4493C44.7221 73.4493 48.3297 75.2225 50.2412 76.905C50.216 76.4145 50.2146 75.883 50.4811 75.4468C50.6288 75.2408 50.9094 75.3492 51.1146 75.3898C50.9289 75.2609 50.7185 75.1642 50.5466 75.0183C50.2721 74.4479 52.5022 72.0337 52.3114 71.1022C52.1488 70.2472 51.0195 69.4833 50.1448 68.7615C49.8531 68.5221 49.7064 68.1525 49.7216 67.7878C49.7558 67.4227 49.923 67.0876 50.1068 66.7722C49.4371 67.037 48.7713 67.3283 48.0598 67.476C47.6961 67.5602 47.4288 67.5006 46.464 66.8219C45.9359 66.4371 45.4325 66.0219 44.9466 65.5893C44.8292 65.4717 44.6536 65.4589 44.4978 65.4261C43.6388 65.2522 43.7099 65.3044 43.4667 64.9593C42.462 63.3911 43.1805 60.4962 43.7588 58.7399C44.659 56.0698 45.5748 54.8061 46.3837 53.7375C47.3336 52.4751 48.1296 51.7271 48.1671 51.2486C48.1879 51.0521 47.9743 50.9628 47.8242 50.8885C46.9286 50.4788 44.9952 49.721 44.0546 49.5807C44.7016 49.3859 47.8616 48.91 49.2836 49.4845C49.7695 49.6778 50.2606 49.8687 50.7065 50.14C50.2145 50.7029 48.6912 52.3338 47.627 54.5825C48.3427 54.2633 50.4718 53.403 51.2636 53.4826C51.1278 53.7652 50.9425 54.0255 50.8366 54.3213C49.7928 57.0648 52.0186 57.9298 48.4615 60.0644C47.3768 60.7444 47.4133 61.2007 47.4275 61.9238C46.8927 61.2473 46.5042 60.4801 46.1395 59.7102C46.0687 60.6228 46.0906 61.5431 46.2278 62.4489C46.3457 63.1788 46.3174 63.3324 47.0675 64.4623C48.0677 64.146 49.0817 63.8693 50.0715 63.5219C51.3147 63.0713 53.4985 62.064 54.7334 61.2532C56.1661 60.3296 57.0862 58.9929 56.7989 57.4073C56.7348 56.972 56.5624 56.5622 56.3682 56.1674C56.9744 56.6703 58.4864 57.9508 59.2434 58.112C59.9468 58.2406 60.6237 56.9554 60.8957 56.3215C59.6259 55.5567 59.7766 54.5935 59.2325 53.5145C59.1118 53.2624 58.9446 53.0345 58.787 52.8029C59.4357 53.2583 60.0712 53.731 60.7128 54.1955C61.6618 54.8555 62.8947 55.0055 64.0331 54.8679C64.1946 54.8455 64.3551 54.8168 64.5175 54.7977C63.6304 55.4992 62.7655 56.2358 62.0232 57.0819C61.6791 57.5005 61.6674 57.8825 62.1709 58.1248C62.5423 58.3003 62.9603 58.3459 63.3673 58.3824C55.4766 59.9341 59.3952 62.4393 51.4256 64.3219C50.3694 64.5562 49.3098 64.8083 48.2246 64.8776C48.558 65.1361 48.9693 65.2783 49.3763 65.3918C50.283 65.6443 51.2404 65.5577 52.1589 65.416C51.912 65.7615 51.5448 65.9972 51.2129 66.2597C50.4994 66.8167 53.4442 69.9421 53.9565 70.9817C54.2578 71.5707 52.8565 73.0994 52.5863 74.8677C52.555 75.1312 52.5032 75.4353 52.6861 75.6618C52.8941 75.9189 53.2114 76.0679 53.426 76.32C53.8781 76.8319 54.3502 77.3274 54.8067 77.8356C54.1482 77.5172 52.9206 76.8206 52.006 76.9157C51.768 76.9431 51.5192 77.0848 51.4602 77.321C51.6118 77.7133 52.4208 76.7941 52.0777 80.1554C49.3571 77.0595 48.6489 76.9871 47.8569 76.6536C46.247 75.9874 44.6992 75.1896 43.1808 74.3505ZM47.553 59.5353C47.6851 59.6456 47.8409 59.5089 47.9553 59.4396C48.4829 59.0507 48.9394 58.5671 49.2733 58.0141C50.4302 56.0575 48.298 55.044 47.8333 55.4059C47.4292 55.7073 47.068 56.4073 47.0748 56.7022C47.2869 56.9371 48.2014 56.8326 48.5494 56.8166C48.1717 57.5208 47.5517 57.7113 46.7632 57.7064C46.8764 58.1679 47.1779 59.2275 47.553 59.5353Z" fill="black" stroke="black" stroke-width="0.0393384"/>
<path d="M41.6843 16.9533C44.3058 15.8516 47.9127 15.1819 49.3274 15.5639C49.2581 15.6696 49.1921 15.7799 49.0966 15.8656C48.7019 16.1975 48.2479 16.4537 47.819 16.7408C48.6017 16.5881 49.3906 16.399 50.1956 16.435C50.9093 16.4889 51.1214 16.6819 51.1364 18.0181C51.1126 18.9877 50.9355 19.9545 50.6159 20.8744C50.3922 21.5267 50.0355 22.1348 49.5739 22.6595C49.3252 22.9195 48.2554 23.6074 47.5692 23.7913C47.0763 23.93 46.2894 23.6385 45.082 23.5807C44.4233 24.368 44.2556 25.4 44.1269 26.3718C44.0704 26.2542 44.0258 26.1302 44.0148 25.9994C43.7943 24.2443 43.3256 22.1374 43.7836 21.4342C43.946 21.1908 44.2803 21.1772 44.5491 21.2122C46.4353 21.4553 48.3991 22.6761 48.4887 22.205C48.6886 21.3407 48.6575 17.9422 47.7663 16.8904C47.5905 16.6839 47.2909 16.5445 47.0163 16.6475C46.5376 16.817 46.0912 17.0591 45.6438 17.2929C45.252 17.4908 44.9 17.7465 44.5396 17.9894C44.6217 17.4524 44.8435 16.9455 44.9428 16.4113C43.848 16.555 42.2306 16.9694 41.6843 16.9533Z" fill="#4D4D4D" stroke="#4D4D4D" stroke-width="0.0393384"/>
<path d="M42.4171 15.4741C42.4604 15.3547 42.5088 15.2352 42.5838 15.129C43.7026 13.5014 46.3436 9.65346 47.5682 9.42965C48.0712 9.3312 48.5751 9.23774 49.0785 9.14018C48.9248 9.92537 48.2135 12.1868 48.5029 12.5444C48.5889 12.5211 48.6563 12.4619 48.718 12.4017C49.0894 12.0238 49.5406 11.7316 49.9576 11.4034C52.4094 9.53566 52.0384 8.9416 52.8434 7.10806C53.2509 7.96732 53.6018 8.85485 54.0924 9.67534C54.1637 9.77379 54.2259 9.93471 54.3797 9.91373C54.8009 9.86594 55.4526 9.02321 55.7115 8.58225C55.8188 8.41451 55.8193 8.20712 55.9143 8.03571C56.1437 7.98284 56.355 8.1232 56.5117 8.2677C57.4852 9.12775 57.2567 10.8964 56.8095 12.0976C56.196 13.7127 55.2547 15.4761 54.9383 16.4112C54.4971 17.6722 55.1435 18.295 55.2342 19.113C55.5236 21.1888 54.3005 23.8987 55.0499 24.304C55.9455 24.7999 58.384 24.3358 59.4383 24.8775C60.4476 25.3746 61.3893 26.7856 61.6505 27.3869C60.9876 27.511 59.9048 27.7915 59.501 28.3117C59.3414 28.5173 59.3851 28.8186 59.547 29.011C59.8087 29.3278 60.1654 29.5557 60.5207 29.765C61.9659 30.5677 63.5897 31.019 65.2135 31.3499C64.8858 31.6904 64.5106 32.0213 64.361 32.4767C64.2731 32.7087 64.3495 32.9881 64.5571 33.1376C65.138 33.5752 65.8864 33.6992 66.5969 33.805C66.0205 34.062 64.7659 34.2128 64.6221 34.2407C63.2402 34.204 62.1162 33.4781 61.9611 32.9388C61.8956 32.7064 62.028 32.4725 62.2028 32.3171C62.5899 31.9625 63.1071 31.7956 63.5939 31.6082C62.3509 31.7957 60.7383 31.9078 59.5375 31.5285C58.5247 31.1993 58.1849 30.6033 58.25 29.7762C58.4205 27.4736 56.4102 26.701 55.9718 26.2207C56.6684 25.9103 58.0964 25.9316 58.6685 25.8497C55.3642 25.6056 50.4908 25.2507 50.0674 24.8833C49.9279 24.3332 53.2103 23.0078 53.6503 22.1478C53.9083 21.4095 52.8376 18.9339 52.3424 17.1464C52.0673 16.0694 52.171 16.0666 52.3643 15.855C53.0139 15.2078 54.1473 12.4723 54.4744 11.6335C53.9396 12.2634 51.9288 14.76 51.2201 14.4415C51.07 13.9879 52.0445 12.8595 52.5509 11.747C52.6492 11.541 52.6834 11.314 52.6796 11.0883C52.6748 10.689 52.6843 10.2892 52.6667 9.88992C51.3628 12.8372 50.275 13.4146 48.9362 13.9314C48.1002 14.2422 45.8481 14.9416 45.0802 14.6006C45.3544 14.0873 44.96 14.7556 46.8113 12.5762C47.2952 11.9886 47.7868 11.4065 48.246 10.8007C47.6796 11.2201 44.1003 14.137 42.4171 15.4741Z" fill="#4D4D4D" stroke="#4D4D4D" stroke-width="0.0393384"/>
<path d="M46.1397 59.7104C46.5044 60.4803 46.8929 61.2475 47.4277 61.924C47.4215 61.6117 47.4006 61.2853 47.5288 60.9904C47.8797 60.1573 48.9648 59.9676 49.8803 59.0079C50.8646 58.0039 50.5758 57.0808 50.5395 56.6294C50.4043 54.7218 51.0789 53.8674 51.2637 53.4827C50.4717 53.4031 48.3416 54.2639 47.6272 54.5827C48.6717 52.3755 50.144 50.7837 50.7067 50.1401C50.767 50.0758 50.8757 50.1223 50.9564 50.1164C51.3687 50.1697 51.7833 50.2167 52.1922 50.2937C51.9651 51.0368 51.5846 52.2094 51.6784 52.9786C51.6912 53.1163 51.789 53.2881 51.9576 53.2626C52.4981 53.2211 53.8722 52.6046 54.4748 52.3801C54.2952 52.8389 51.9044 57.3194 52.5418 57.8506C53.0978 57.8975 54.3768 55.5233 55.1159 54.7359C55.3348 54.5034 55.3382 54.1707 55.4921 53.9067C55.5794 53.8174 55.701 53.9058 55.7879 53.9505C56.8811 54.6658 56.6225 55.4881 57.0427 56.2766C57.3225 56.1098 57.4179 55.7916 57.5519 55.5213C57.9081 54.6972 58.3122 53.8479 58.28 52.9349C58.28 52.1723 57.919 51.4302 57.3396 50.9142C56.9416 50.4871 56.0984 50.032 56.4885 49.8074C58.5498 48.4715 62.8044 52.9235 63.7084 53.3757C63.8034 53.4336 63.9017 53.3525 63.9862 53.3105C64.9242 52.7174 65.8299 52.0779 66.7271 51.4288C66.8216 51.355 66.946 51.35 67.0624 51.3377C66.8466 51.6447 64.2381 54.5057 63.9212 54.844C63.9492 54.8504 64.0053 54.8622 64.0333 54.8682C62.8949 55.0058 61.6619 54.8558 60.713 54.1958C60.0714 53.7313 59.4359 53.2586 58.7871 52.8032C58.9448 53.0348 59.112 53.2627 59.2326 53.5148C59.7697 54.5798 59.6309 55.5599 60.8959 56.3218C60.676 56.8341 60.401 57.3337 60.0196 57.7527C59.4077 58.3897 59.0144 58.3629 56.3683 56.1677C56.5626 56.5625 56.735 56.9723 56.7991 57.4076C56.9549 58.2674 56.7278 59.1745 56.2121 59.8897C55.5389 60.8504 54.4159 61.5571 52.434 62.5094C49.7313 63.7564 49.9012 63.5665 47.0677 64.4626C46.8626 64.1536 46.664 63.8391 46.4973 63.509C46.1973 62.9354 46.0241 61.2002 46.1397 59.7104Z" fill="#4D4D4D" stroke="#4D4D4D" stroke-width="0.0393384"/>
<path d="M46.7633 57.7065C47.5557 57.7115 48.173 57.5185 48.5495 56.8167C48.2075 56.8325 47.2865 56.9366 47.0749 56.7023C47.068 56.405 47.4319 55.7055 47.8333 55.406C48.2878 55.0522 50.4355 56.0487 49.2733 58.0143C48.9394 58.5672 48.4831 59.0509 47.9554 59.4397C47.8409 59.509 47.6851 59.6457 47.5531 59.5354C47.1779 59.2275 46.8763 58.1678 46.7633 57.7065Z" fill="#FFFF00"/>
<path d="M46.7628 32.0023C46.8634 31.5682 47.1891 30.4222 47.5621 30.1557C47.7074 30.0654 47.857 30.1967 47.9753 30.2719C48.5551 30.7059 49.0557 31.2519 49.3834 31.8864C49.9228 32.9583 49.4682 33.8723 48.5519 34.2568C48.047 34.4544 47.8485 34.4683 47.393 33.7918C47.2562 33.563 47.1124 33.3246 47.0753 33.0588C47.0116 32.7505 48.2991 32.868 48.5485 32.8779C48.3657 32.531 48.0532 32.2475 47.6713 32.113C47.3835 32.0009 47.0681 31.995 46.7628 32.0023Z" fill="#FFFF00"/>
<path d="M68.9008 42.7856C68.9058 42.38 69.2117 39.9738 69.3244 39.3367C69.5375 38.1221 69.8682 37.0197 71.0518 36.5278C72.169 36.0662 74.0747 36.1181 74.8374 36.2188C77.301 36.4893 77.4978 37.7879 78.8416 38.6174C80.9888 40.0106 82.6234 37.4696 81.7363 36.2958C81.5501 36.0396 81.2476 35.9033 80.9731 35.7533C76.5614 33.3479 76.361 33.3093 75.972 33.0206C76.2656 32.9973 76.5533 33.0689 76.8421 33.1076C78.336 33.3469 78.4544 33.512 79.1213 33.7932C79.5227 33.9661 81.9389 34.9958 82.2032 35.3918C82.964 36.5738 83.647 37.8005 84.2948 39.0427C84.357 39.1762 84.4658 39.3139 84.423 39.4679C84.2363 40.305 83.2641 42.2452 82.4805 43.028C81.4837 44.0016 80.6722 43.3037 79.477 42.3388C79.0942 42.032 78.8767 41.5894 78.6516 41.1728C77.9695 39.9288 78.0562 39.9868 77.1375 39.343C75.5009 38.2412 74.0708 38.5549 73.3765 38.5877C72.5851 38.6238 71.9849 38.0446 71.3533 38.5914C69.8807 39.8246 69.0519 42.5202 68.9008 42.7856Z" fill="#4D4D4D" stroke="#4D4D4D" stroke-width="0.0393384"/>
<path d="M74.0871 30.4187C73.8178 30.029 73.4241 29.7441 73.0826 29.4172C74.2756 29.5931 77.0824 31.122 78.0257 31.4197C78.4109 31.5483 78.8259 31.4347 79.4795 32.0542C78.8711 32.0269 78.2646 31.9731 77.66 31.9056C76.216 31.7513 75.5488 30.5695 74.8109 30.7013C74.592 30.7492 74.3949 30.8572 74.1988 30.957C74.1878 30.7752 74.1982 30.5769 74.0871 30.4187Z" fill="#4D4D4D" stroke="#4D4D4D" stroke-width="0.0393384"/>
<path d="M11.5 62L7 64L5.5 51.5C5.66667 43.3333 6.3 27 7.5 27C8.7 27 11.6667 29.3333 13 30.5V32L10 45.5L11.5 62Z" fill="#4D4D4D"/>
</g>
<defs>
<clipPath id="clip0_1492_43623">
<rect width="90" height="90" fill="white" transform="matrix(0 -1 1 0 0 90)"/>
</clipPath>
</defs>
</svg>
