<svg width="91" height="91" viewBox="0 0 91 91" fill="none" xmlns="http://www.w3.org/2000/svg">
<g clip-path="url(#clip0_2260_782)">
<path d="M47.8528 0.139893C73.6439 0.139893 91.1552 20.2871 91.1552 45.1399C91.1552 69.9926 73.6439 90.1399 47.8528 90.1399C22.0625 90.1399 1.15515 69.9926 1.15515 45.1399C1.15515 20.2871 22.0625 0.139893 47.8528 0.139893Z" fill="black"/>
<path d="M48.165 6.49468C71.3742 6.49468 87.1324 23.9983 87.1324 45.5899C87.1324 67.1816 71.3742 84.6852 48.165 84.6852C24.9566 84.6852 6.14221 67.1816 6.14221 45.5899C6.14201 23.9983 24.9564 6.49468 48.165 6.49468Z" fill="url(#paint0_radial_2260_782)"/>
<path d="M58.5782 7.65809C55.3153 6.83912 51.8348 6.40244 48.1682 6.40244C24.9051 6.40244 6.04639 23.9473 6.04639 45.5899C6.04639 67.2324 24.9051 84.7773 48.1684 84.7773C51.835 84.7773 55.3155 84.3407 58.5784 83.5217C65.1763 73.4294 69.1873 60.1479 69.1873 45.5899C69.1873 31.0319 65.1763 17.7504 58.5782 7.65809Z" fill="#FBC610"/>
<path d="M15.7568 33.2523C18.4879 33.2523 20.7013 38.7762 20.7013 45.5899C20.7013 52.4041 18.4879 57.9276 15.7568 57.9276C13.0262 57.9276 10.8126 52.4041 10.8126 45.5899C10.8126 38.7762 13.0262 33.2523 15.7568 33.2523Z" fill="url(#paint1_linear_2260_782)"/>
<path d="M26.2353 17.7888C16.0444 22.2292 8.85242 33.0027 8.85242 45.5899C8.85242 58.1773 16.0444 68.9509 26.2353 73.3911C35.2345 62.5177 41.0804 49.5514 42.755 45.5899C41.0795 41.6265 35.2336 28.6613 26.2353 17.7888Z" fill="url(#paint2_linear_2260_782)"/>
<path d="M10.9377 0.589844C33.4775 10.7456 46.9377 45.5898 46.9377 45.5898C46.9377 45.5898 33.4775 80.4341 10.9377 90.5898H52.8412C63.0229 80.4341 69.6334 64.0616 69.6334 45.5898C69.6334 27.1181 63.0229 10.7456 52.8412 0.589844H10.9377Z" fill="url(#paint3_radial_2260_782)"/>
<path d="M55.7342 29.562C55.7342 20.7604 49.0615 13.4483 40.2855 11.9901L52.3037 39.8687C54.4644 36.9581 55.7342 33.4018 55.7342 29.562Z" fill="#163047"/>
<path d="M52.2096 39.6489C53.5017 37.3053 54.235 34.6363 54.235 31.8029C54.235 24.2604 49.0479 17.8752 41.896 15.7257L52.2096 39.6489Z" fill="white"/>
<path d="M40.2855 11.9897L41.8961 15.7254C42.8699 16.0197 43.8132 16.3934 44.7147 16.8422L43.1246 12.6905C42.2006 12.386 41.2511 12.1517 40.2855 11.9897Z" fill="#0B1E2B"/>
<path d="M46.3666 26.0964L52.2096 39.6488C52.4649 39.1851 52.697 38.711 52.9053 38.2279L44.7146 16.8421C43.8131 16.3933 42.8698 16.0196 41.896 15.7254L46.3666 26.0964Z" fill="#BDCCD4"/>
<path d="M55.7342 61.6177C55.7342 70.4193 49.0615 77.7315 40.2855 79.1898L52.3037 51.3112C54.4644 54.2217 55.7342 57.7779 55.7342 61.6177Z" fill="#163047"/>
<path d="M52.2096 51.5308C53.5017 53.8744 54.235 56.5435 54.235 59.3769C54.235 66.9194 49.0479 73.3045 41.896 75.4541L52.2096 51.5308Z" fill="white"/>
<path d="M40.2855 79.1898L41.8961 75.4541C42.8699 75.1599 43.8132 74.7862 44.7147 74.3374L43.1246 78.4891C42.2006 78.7935 41.2511 79.0279 40.2855 79.1898Z" fill="#0B1E2B"/>
<path d="M46.3666 65.0833L52.2096 51.5309C52.4649 51.9946 52.697 52.4687 52.9053 52.9518L44.7146 74.3376C43.8131 74.7864 42.8698 75.1601 41.896 75.4543L46.3666 65.0833Z" fill="#BDCCD4"/>
<path d="M45.7638 42.8898L44.1986 45.5898L45.7638 48.2898L65.7203 49.1898L67.6769 45.5898L65.7203 41.9898L45.7638 42.8898Z" fill="url(#paint4_linear_2260_782)"/>
<path d="M44.1986 45.5898H65.7203V49.1898L45.7638 48.2898L44.1986 45.5898Z" fill="url(#paint5_linear_2260_782)"/>
<path d="M74.0509 44.6898C74.0509 48.5105 75.4738 52.2916 77.7285 54.8405C76.6464 51.7295 75.8781 48.2004 75.8781 44.6898C75.8781 41.1792 76.6464 37.6502 77.7285 34.5392C75.4738 37.088 74.0509 40.8691 74.0509 44.6898Z" fill="black"/>
<path d="M80.4708 50.1276C80.4708 50.1276 82.7851 46.6262 82.7851 44.6897C82.7851 42.7532 80.4708 39.2519 80.4708 39.2519C81.15 42.8771 81.1221 46.5023 80.4708 50.1276Z" fill="black" fill-opacity="0.5"/>
</g>
<defs>
<radialGradient id="paint0_radial_2260_782" cx="0" cy="0" r="1" gradientUnits="userSpaceOnUse" gradientTransform="translate(46.6372 45.5899) rotate(-90) scale(38.1865 41.507)">
<stop stop-color="#FDE6CC"/>
<stop offset="0.242" stop-color="#FBD1A1"/>
<stop offset="0.627" stop-color="#F9B362"/>
<stop offset="0.81" stop-color="#F8A749"/>
<stop offset="0.963" stop-color="#D68D3E"/>
</radialGradient>
<linearGradient id="paint1_linear_2260_782" x1="-1.89127" y1="45.5899" x2="21.0382" y2="45.5899" gradientUnits="userSpaceOnUse">
<stop offset="0.19" stop-color="white"/>
<stop offset="0.379" stop-color="#FFFFC1" stop-opacity="0.743"/>
<stop offset="0.814" stop-color="#FFFF29" stop-opacity="0.153"/>
<stop offset="0.926" stop-color="#FFFF00" stop-opacity="0"/>
</linearGradient>
<linearGradient id="paint2_linear_2260_782" x1="-4.83267" y1="45.5899" x2="53.6988" y2="45.5899" gradientUnits="userSpaceOnUse">
<stop stop-color="white"/>
<stop offset="0.119" stop-color="#FFFFC6" stop-opacity="0.881"/>
<stop offset="0.244" stop-color="#FFFF92" stop-opacity="0.756"/>
<stop offset="0.371" stop-color="#FFFF65" stop-opacity="0.629"/>
<stop offset="0.498" stop-color="#FFFF41" stop-opacity="0.502"/>
<stop offset="0.625" stop-color="#FFFF24" stop-opacity="0.376"/>
<stop offset="0.75" stop-color="#FFFF10" stop-opacity="0.25"/>
<stop offset="0.876" stop-color="#FFFF04" stop-opacity="0.124"/>
<stop offset="1" stop-color="#FFFF00" stop-opacity="0"/>
</linearGradient>
<radialGradient id="paint3_radial_2260_782" cx="0" cy="0" r="1" gradientUnits="userSpaceOnUse" gradientTransform="translate(40.2693 45.581) rotate(90) scale(50.4266 46.6789)">
<stop stop-color="#163047"/>
<stop offset="1"/>
</radialGradient>
<linearGradient id="paint4_linear_2260_782" x1="44.1986" y1="49.1898" x2="44.1986" y2="41.9898" gradientUnits="userSpaceOnUse">
<stop stop-color="#FFFF00"/>
<stop offset="0.223" stop-color="#FEF602"/>
<stop offset="0.584" stop-color="#FDDE09"/>
<stop offset="0.877" stop-color="#FBC610"/>
<stop offset="1" stop-color="#B08C0B"/>
</linearGradient>
<linearGradient id="paint5_linear_2260_782" x1="46.4283" y1="47.3898" x2="64.0759" y2="47.3898" gradientUnits="userSpaceOnUse">
<stop stop-color="#FEEB06"/>
<stop offset="0.638" stop-color="#FBC610"/>
<stop offset="1" stop-color="#EAAD00"/>
</linearGradient>
<clipPath id="clip0_2260_782">
<rect width="90" height="90" fill="white" transform="matrix(0 -1 1 0 0.853271 90.6949)"/>
</clipPath>
</defs>
</svg>
