<svg width="90" height="90" viewBox="0 0 90 90" fill="none" xmlns="http://www.w3.org/2000/svg">
<g clip-path="url(#clip0_394_16138)">
<path d="M44.3643 42.5691C44.7409 42.6519 45.2019 42.7919 45.6799 43.069C46.1575 43.3418 46.6607 43.7427 47.075 44.3062C47.481 44.8703 47.7969 45.5978 47.8822 46.4053C47.8963 46.5058 47.896 46.6073 47.9023 46.7096L47.9094 46.8632L47.9117 46.9403L47.9102 47.0131L47.9089 47.0279L47.9064 47.0577C47.8908 47.2257 47.8925 47.3455 47.8467 47.6107C47.8135 47.8547 47.7565 48.0621 47.6963 48.2656C47.6336 48.4715 47.5529 48.6747 47.4624 48.8731C47.0823 49.6594 46.4739 50.3588 45.7032 50.8101C45.3186 51.0358 44.9015 51.2003 44.4731 51.3107C44.2562 51.3556 44.0404 51.4013 43.8204 51.4142C43.7109 51.425 43.602 51.4357 43.4925 51.4316L43.126 51.4266C42.8232 51.3983 42.2788 51.3086 41.9036 51.1598C41.5049 51.0041 41.1312 50.8011 40.8004 50.5489C40.4755 50.289 40.1836 50.0006 39.9378 49.6825C39.7004 49.3583 39.5023 49.0136 39.3611 48.6522C39.063 47.9433 39.0043 47.1491 39.0751 46.4982C39.1685 45.7598 39.3884 45.1515 39.7048 44.6095C40.0185 44.0757 40.4175 43.6492 40.8232 43.3337C41.2285 43.0125 41.6486 42.8212 42.002 42.6953C42.1799 42.6319 42.3422 42.586 42.4872 42.5609C42.6306 42.5291 42.7541 42.5057 42.8552 42.4986C43.0578 42.4784 43.1659 42.4674 43.1659 42.4674L43.2055 42.4682C43.2055 42.4682 43.2952 42.4669 43.4635 42.4647C43.6001 42.4582 44.0166 42.4896 44.3643 42.5691ZM35.8945 46.6197C35.8945 50.8529 39.3019 54.2969 43.49 54.2969C47.6784 54.2969 51.0861 50.8529 51.0861 46.6197C51.0861 42.3862 47.6784 38.9421 43.49 38.9421C39.3019 38.9421 35.8945 42.3862 35.8945 46.6197Z" fill="#F8C260"/>
<path d="M41.5121 44.3964C41.1915 44.5657 40.8463 44.8201 40.5613 45.1895C40.2842 45.551 40.064 46.0634 40.0112 46.5611C40.0003 46.686 39.9879 46.9004 39.9936 46.9936C40.0077 47.1324 40.0097 47.2732 40.0426 47.4115C40.0843 47.6916 40.1844 47.9641 40.3039 48.2274C40.5667 48.7441 40.9791 49.2042 41.4968 49.4855C41.7548 49.6267 42.0316 49.7238 42.3114 49.7885C42.6208 49.8461 42.7904 49.85 43.2034 49.8386C43.1259 49.8363 43.1858 49.8375 43.1702 49.8366L43.1767 49.8354L43.19 49.8336L43.2163 49.8295L43.2686 49.8214L43.373 49.8066C43.4428 49.8005 43.5104 49.7807 43.5778 49.7632C43.7137 49.7363 43.8423 49.6829 43.9707 49.6378C44.2211 49.5277 44.4539 49.3918 44.6585 49.2245C44.857 49.0498 45.0367 48.8634 45.1871 48.6601C45.3294 48.4508 45.4493 48.2333 45.5313 48.0068C45.5727 47.8943 45.6107 47.7812 45.6372 47.6668C45.6636 47.5492 45.6869 47.4365 45.6901 47.3554C45.7072 47.2995 45.7063 47.0951 45.7103 46.9446C45.7035 46.8465 45.6968 46.7496 45.6901 46.6542C45.63 46.2251 45.5046 45.8321 45.318 45.4927C45.1329 45.1531 44.8922 44.873 44.6434 44.661C44.3952 44.4451 44.1319 44.3159 43.9089 44.2265C43.7939 44.1811 43.6938 44.1478 43.6205 44.1331C43.5808 44.1221 43.5447 44.1119 43.511 44.1021C43.4765 44.0923 43.418 44.0899 43.3801 44.0838C43.2129 44.0648 43.1237 44.0546 43.1237 44.0546L43.1636 44.0557C43.1636 44.0557 43.0929 44.0535 42.9603 44.0501C42.8273 44.0457 42.6312 44.0557 42.3837 44.1001C42.1378 44.1467 41.8326 44.2239 41.5121 44.3964Z" fill="#F8C260"/>
<path d="M57.0951 46.2921C57.0951 53.6941 51.1373 59.716 43.8141 59.716C36.4909 59.716 30.533 53.6941 30.533 46.2921C30.533 38.8899 36.4909 32.8676 43.8141 32.8676C51.1373 32.8676 57.0951 38.8899 57.0951 46.2921ZM42.9785 29.3907C42.7899 29.4061 42.5773 29.4007 42.3471 29.4359C42.1174 29.4723 41.8668 29.5123 41.5955 29.5557C41.3256 29.6032 41.0313 29.634 40.7247 29.7028C40.4206 29.7838 40.0975 29.8696 39.7558 29.9595C38.4069 30.3534 36.7729 30.9616 35.1545 32.0974C33.5353 33.2072 31.8711 34.7527 30.5755 36.805C29.9578 37.845 29.3551 38.9579 28.9497 40.1971C28.8469 40.5055 28.7351 40.814 28.636 41.1283C28.5611 41.4501 28.4856 41.7746 28.4092 42.1013L28.2937 42.5918C28.2571 42.7563 28.2482 42.9181 28.2232 43.0822C28.1795 43.4079 28.1354 43.7361 28.0908 44.0669C28.043 44.3945 28.0576 44.7908 28.0377 45.1535L28.02 45.7119L28.0117 45.973C28.0117 45.9683 28.0118 45.9694 28.0117 45.973L28.0147 46.0055L28.0194 46.0716L28.0289 46.2036C28.0886 46.9071 28.093 47.6234 28.2482 48.3288C28.4439 49.7572 28.9284 51.1568 29.5226 52.5114C29.6884 52.8431 29.855 53.1761 30.0225 53.5102C30.1925 53.842 30.4142 54.1471 30.6068 54.469L30.9061 54.9473L31.2503 55.3962C31.4853 55.6907 31.7008 56.0033 31.9514 56.287C32.9444 57.4359 34.1068 58.4446 35.3773 59.3081L36.3677 59.8994C36.5289 60.0051 36.7013 60.0905 36.878 60.1683L37.4004 60.4149L37.9208 60.6674C38.0969 60.7458 38.2821 60.8019 38.4623 60.8709C38.827 60.9971 39.1838 61.1486 39.5541 61.2578L40.6784 61.5445L40.9592 61.6165L41.2344 61.6562L41.7831 61.739L42.3317 61.8258C42.5064 61.8619 42.7429 61.8529 42.9455 61.8687L44.1484 61.9258C44.1538 61.9253 44.1861 61.9254 44.1749 61.9249L44.2111 61.9227L44.2839 61.9193L44.4291 61.9121L44.7199 61.8978L45.3009 61.8709C45.6903 61.8709 46.0726 61.8036 46.4557 61.7443L47.0299 61.6587L47.3176 61.6165L47.5986 61.5445L48.7232 61.2578C49.0936 61.1486 49.4507 60.9971 49.8152 60.8709C49.9951 60.8019 50.1803 60.7458 50.3564 60.6674L50.8769 60.4149L51.3995 60.1683C51.5759 60.0905 51.7481 60.0051 51.9099 59.8994L52.9001 59.3081C54.1706 58.4446 55.3327 57.4359 56.3256 56.287C56.5763 56.0033 56.7917 55.6907 57.0274 55.3962L57.3716 54.9473L57.6704 54.469C57.8628 54.1471 58.0845 53.842 58.2548 53.5102C58.4223 53.1761 58.5886 52.8431 58.7551 52.5114L58.8804 52.263L58.9793 52.0042L59.1774 51.4869C59.304 51.1414 59.4613 50.8062 59.5413 50.4481C59.6378 50.0948 59.7352 49.7438 59.8315 49.3942C59.9245 49.0448 59.9569 48.704 60.0249 48.3607C60.1778 47.712 60.1908 46.9049 60.2494 46.165L60.265 45.9396L60.2563 45.6766L60.2395 45.1518C60.2203 44.8042 60.2379 44.454 60.1908 44.1132C59.9185 41.3674 58.9902 38.8528 57.7016 36.805C56.4064 34.7527 54.7421 33.2072 53.123 32.0974C51.5047 30.9616 49.8705 30.3534 48.5212 29.9595C48.1799 29.8696 47.8568 29.7838 47.5525 29.7028C47.2489 29.6342 46.964 29.6052 46.6991 29.5586C46.4341 29.5152 46.1888 29.4754 45.9646 29.4388C45.7388 29.4034 45.5061 29.4069 45.3126 29.3915C44.6324 29.3542 44.2279 29.3322 44.128 29.3264C44.0753 29.3293 43.6817 29.3517 42.9785 29.3907Z" fill="#F8C260"/>
<path d="M52.2109 46.6198C52.2109 51.4811 48.2979 55.4361 43.4879 55.4361C38.6783 55.4361 34.7652 51.4811 34.7652 46.6198C34.7652 41.758 38.6783 37.803 43.4879 37.803C48.2979 37.803 52.2109 41.758 52.2109 46.6198ZM31.75 46.2919C31.75 53.0149 37.1612 58.4844 43.8125 58.4844C50.4639 58.4844 55.875 53.0149 55.875 46.2919C55.875 39.5689 50.4639 34.0993 43.8125 34.0993C37.1612 34.0993 31.75 39.5689 31.75 46.2919Z" fill="#F8C260"/>
<path d="M58.5826 73.8659C57.1932 74.5329 55.7422 75.0704 54.2675 75.5315C52.7884 75.9868 51.2699 76.3032 49.7409 76.5425C48.1983 76.7663 46.6798 76.8595 45.0898 76.8746C43.6119 76.8611 42.0004 76.7665 40.4808 76.5425C38.9519 76.3032 37.4329 75.9868 35.9544 75.5315C34.4797 75.0704 33.0286 74.5329 31.6392 73.8659C30.2534 73.1945 28.9044 72.4509 27.6336 71.5937C22.5333 68.1871 18.5314 63.3371 16.1386 57.9607C15.9815 57.6277 15.8365 57.2903 15.7064 56.9475C15.5721 56.6064 15.4381 56.2658 15.3045 55.926C15.0725 55.2336 14.8153 54.5523 14.63 53.8515C14.2085 52.4648 13.9274 51.0533 13.7002 49.6514C13.6095 48.9466 13.4997 48.2472 13.4571 47.545C13.441 47.3242 13.4216 47.1036 13.4045 46.8834L11.7344 46.2227C11.7346 46.2368 11.7351 46.251 11.7356 46.2649C11.7489 46.6362 11.7876 47.0068 11.8121 47.3793C11.8511 48.1261 11.9648 48.8693 12.0548 49.6194C12.2867 51.1103 12.5737 52.6132 13.0128 54.0899C13.2038 54.8367 13.4745 55.5625 13.7143 56.3012C13.8543 56.6636 13.9944 57.027 14.1351 57.3906L14.3477 57.9361L14.5878 58.4718C17.0889 64.2138 21.3311 69.4245 26.775 73.0706C28.1295 73.9904 29.5684 74.7877 31.0457 75.5093C32.5273 76.2264 34.076 76.804 35.6492 77.3018C37.2269 77.7929 38.849 78.134 40.4831 78.3955C41.3043 78.5026 42.1276 78.6167 42.9364 78.6619C43.7167 78.7451 44.6442 78.7361 45.4353 78.7656C47.0929 78.7433 48.7497 78.6401 50.3877 78.3955C52.0217 78.134 53.6436 77.7929 55.2216 77.3018C56.7949 76.8036 58.3437 76.2264 59.8248 75.5093C61.3028 74.7874 62.741 73.9904 64.0958 73.0706C65.2295 72.3112 66.3077 71.4804 67.3322 70.5946L66.6557 68.3562C65.3951 69.5367 64.0378 70.6253 62.5882 71.5937C61.3174 72.4509 59.9684 73.1945 58.5826 73.8659Z" fill="#F8C260"/>
<path d="M60.0132 68.4899C55.5427 71.4114 50.1433 72.971 44.7887 72.8698C39.4323 72.7939 34.1439 71.0603 29.8531 68.051C27.7076 66.5484 25.7944 64.7595 24.1755 62.7708C22.5634 60.7766 21.2496 58.5833 20.2739 56.2915C20.0115 55.7267 19.814 55.1367 19.591 54.5615C19.4029 53.9733 19.1935 53.3951 19.0446 52.801C18.7043 51.6255 18.4831 50.4308 18.3071 49.2468C18.2388 48.6514 18.1538 48.061 18.1262 47.4693C18.0745 46.8789 18.0608 46.2902 18.0551 45.7052L18.0491 45.2548L18.06 44.8267C18.0678 44.5419 18.0752 44.2582 18.0824 43.9747C18.1277 43.3975 18.1545 42.8117 18.2263 42.2475C18.497 39.9851 18.9965 37.8089 19.7404 35.7971C20.4895 33.789 21.4064 31.9181 22.4834 30.2433C24.645 26.8938 27.3344 24.3204 29.9939 22.4756C32.6596 20.6179 35.3136 19.5194 37.5476 18.8578L37.5498 18.857L37.272 16.2754C37.2663 16.2771 37.2604 16.2783 37.2547 16.2798C34.8209 16.9545 31.9156 18.088 28.96 20.0485C26.008 21.9908 23.0078 24.7564 20.5505 28.3928C19.3323 30.2142 18.2596 32.2484 17.4115 34.4622C16.5586 36.6744 15.9773 39.0776 15.667 41.5853C15.583 42.2133 15.5537 42.8259 15.4973 43.4605C15.4866 43.7925 15.476 44.1252 15.4655 44.459L15.4492 44.9604L15.4511 45.0836L17.3868 42.7619L15.4584 45.5349C15.4633 45.8221 15.4687 46.1099 15.4737 46.3983C15.4832 46.7252 15.5148 47.0511 15.5344 47.3791C15.5639 48.0366 15.6596 48.6909 15.7342 49.3516C15.9296 50.665 16.1727 51.9903 16.5506 53.294C16.7144 53.9532 16.9481 54.5941 17.1555 55.247L17.5196 56.2099C17.6368 56.5332 17.7682 56.8518 17.9124 57.1658C18.9982 59.7067 20.4715 62.1296 22.2666 64.3334C24.0718 66.5303 26.2178 68.485 28.6122 70.1096C29.808 70.9259 31.0785 71.6343 32.384 72.2762C33.6932 72.9142 35.062 73.4285 36.4533 73.8728C37.8482 74.3112 39.2832 74.6168 40.7291 74.8523C42.1924 75.0724 43.596 75.1663 45.1342 75.1914C46.5597 75.1672 48.057 75.0724 49.4973 74.8523C50.943 74.6169 52.378 74.3112 53.7731 73.8728C55.1644 73.4285 56.5335 72.9142 57.8422 72.2762C59.1476 71.6343 60.4186 70.9259 61.614 70.1096C63.2227 69.0183 64.7151 67.7752 66.0713 66.413L65.9162 65.8996L64.6925 64.6522C63.2899 66.0929 61.7233 67.3895 60.0132 68.4899Z" fill="#F8C260"/>
<path d="M28.7995 79.6602L29.9865 77.4668C28.4524 76.7141 26.9595 75.8827 25.5516 74.9283C19.7514 71.046 15.2321 65.5001 12.5621 59.3794L12.307 58.8086L12.0793 58.2269C11.9297 57.8388 11.7735 57.4543 11.631 57.0657C11.3731 56.2784 11.0868 55.5043 10.8812 54.7084C10.4141 53.1334 10.1053 51.5317 9.85866 49.9421C9.76091 49.1433 9.64189 48.3511 9.59863 47.5558C9.57197 47.1588 9.53156 46.7637 9.51715 46.3686C9.50843 46.0225 9.49971 45.6787 9.49083 45.3349L9.28344 45.2525L7.25781 46.3857C7.80957 61.0243 16.4585 73.6023 28.7995 79.6602Z" fill="#F8C260"/>
<path d="M60.7675 77.5232C59.1882 78.2864 57.5381 78.9024 55.8602 79.4318C54.1784 79.9541 52.4497 80.3188 50.7088 80.5952C48.9637 80.8549 47.1997 80.9653 45.4362 80.9869C44.5179 80.9554 43.7319 80.9692 42.8092 80.8807C41.9087 80.83 41.0372 80.7097 40.1634 80.5952C38.4226 80.3188 36.6937 79.9541 35.012 79.4321C33.3346 78.9028 31.6843 78.2866 30.1048 77.5232C30.0866 77.5144 30.0686 77.5054 30.0504 77.4964L29.082 79.7941C34.0428 82.1788 39.5876 83.5156 45.4362 83.5156C54.8506 83.5156 63.4786 80.0542 70.1458 74.327L68.2024 72.7698C67.2804 73.5334 66.3203 74.2565 65.3187 74.9267C63.8755 75.9055 62.3428 76.7557 60.7675 77.5232Z" fill="#F8C260"/>
<path d="M45.4343 6.28014C42.5479 6.28014 39.736 6.60724 37.0312 7.22334L37.1649 9.26894C39.5435 8.69664 41.5035 8.48654 42.8999 8.39414C43.7243 8.31504 44.3597 8.32964 44.7866 8.31084C45.2141 8.29964 45.4343 8.29434 45.4343 8.29434H45.4626C45.4626 8.29434 45.6765 8.30024 46.0909 8.31084C46.5123 8.32994 47.0991 8.31334 47.951 8.39334C49.6348 8.50444 52.0394 8.77354 55.0271 9.61364C57.9979 10.4465 61.5413 11.8433 65.1385 14.2441C68.729 16.626 72.3868 19.9992 75.3381 24.456C76.8055 26.6836 78.0925 29.1689 79.104 31.8684C79.3773 32.5928 79.6244 33.3349 79.8494 34.0898L81.8676 33.26C76.9712 17.636 62.4908 6.28014 45.4343 6.28014Z" fill="#F8C260"/>
<path d="M81.353 42.8427C81.3622 43.2309 81.3723 43.6207 81.382 44.0111L81.3962 44.5978L81.3845 45.1987C81.3746 45.58 81.365 45.9621 81.3553 46.3454C81.3411 46.7328 81.3003 47.1443 81.2737 47.5438C81.2296 48.3571 81.1102 49.1432 81.0131 49.9431C80.7658 51.5326 80.458 53.1342 79.9903 54.7093C79.7852 55.5051 79.4984 56.2792 79.2403 57.0665C79.098 57.4554 78.9419 57.8397 78.7922 58.2278L78.5645 58.8092L78.3092 59.3805C76.2472 64.1079 73.0773 68.4886 69.0703 72.0289L71.1556 73.4336C78.8246 66.3656 83.6443 56.1909 83.6443 44.8989C83.6443 41.122 83.1026 37.4706 82.098 34.0182L80.0266 34.701C80.5489 36.574 80.9298 38.5284 81.1625 40.5365C81.2582 41.2969 81.2923 42.0688 81.353 42.8427Z" fill="#F8C260"/>
<path d="M67.3696 55.4231C67.6127 54.9032 67.7913 54.359 67.9978 53.8303C68.1692 53.2882 68.3638 52.7568 68.4998 52.2093C68.8131 51.1276 69.014 50.0276 69.1768 48.9373C69.2381 48.3907 69.3188 47.8386 69.3409 47.3176C69.3567 47.0496 69.3828 46.8016 69.3916 46.5191C69.3967 46.2309 69.4021 45.9433 69.4068 45.6568C69.4254 45.1523 69.387 44.5917 69.3812 44.0667C69.3381 43.5368 69.3154 43.0074 69.2484 42.487C68.9976 40.404 68.5409 38.401 67.8565 36.5496C67.1668 34.7017 66.3263 32.9781 65.3358 31.4335C63.3475 28.3457 60.8714 25.9692 58.423 24.265C55.9692 22.5482 53.5249 21.5331 51.4678 20.9204C49.4121 20.301 47.6953 20.0802 46.5789 19.9873C46.03 19.9216 45.5386 19.9243 45.2351 19.9051C44.9714 19.8943 44.8168 19.8875 44.7754 19.886C44.7328 19.8863 44.5855 19.8875 44.3362 19.8895C44.0372 19.8987 43.5918 19.8787 43.0135 19.9253C41.8577 19.9807 40.1523 20.1412 38.0501 20.6941C38.0063 20.7048 37.9616 20.7175 37.9175 20.7285L38.1242 23.894C38.2456 23.8576 38.3658 23.8229 38.4841 23.7895C38.9512 23.67 39.3935 23.5568 39.8095 23.4502C40.2284 23.3585 40.6301 23.3177 40.999 23.2555C41.3692 23.1998 41.7117 23.1488 42.0252 23.1016C42.339 23.0569 42.6286 23.0638 42.8856 23.0449C43.916 22.9962 44.4654 22.9701 44.4654 22.9701L44.5022 22.9713C44.5022 22.9713 45.034 22.9962 46.031 23.044C46.2832 23.0622 46.5531 23.0539 46.871 23.0991C47.19 23.1459 47.5382 23.1974 47.9141 23.2535C48.2885 23.3155 48.6999 23.358 49.1214 23.4502C49.5375 23.5568 49.9796 23.67 50.4467 23.7895C52.2941 24.314 54.525 25.1374 56.7805 26.6311C59.0374 28.1012 61.3425 30.1879 63.2485 32.9493C65.1307 35.7164 66.5595 39.1788 67.0747 43.0315C67.1564 43.5104 67.1537 44.0006 67.1968 44.4905C67.2127 44.7363 67.229 44.9823 67.2447 45.2295L67.2684 45.6013C67.2702 45.5661 67.2697 45.7017 67.2689 45.7037L67.2672 45.7481L67.264 45.8369L67.2586 46.0147C67.2134 46.9718 67.2425 47.8921 67.0605 48.9612C66.8388 51.0668 66.2348 53.0442 65.4426 55.0343C65.2209 55.5192 64.9978 56.0062 64.774 56.4949C64.5439 56.9808 64.2467 57.4329 63.9828 57.9058L63.5727 58.6103C63.4211 58.8355 63.2589 59.0543 63.1016 59.2769C62.7789 59.716 62.4782 60.1768 62.1305 60.6011C60.7425 62.3086 59.0778 63.8057 57.2514 65.1035C55.3988 66.3717 53.3371 67.341 51.1802 68.0421L49.5349 68.4761L49.1223 68.5823L48.7016 68.6494L47.8598 68.7828L47.0173 68.9143C46.737 68.9661 46.451 68.9567 46.1683 68.9805L45.317 69.0271L44.8914 69.0492L44.6784 69.0602L44.5719 69.066L44.5188 69.0687C44.4673 69.0687 44.5583 69.0722 44.39 69.0693L42.7952 68.9822C42.5223 68.9595 42.28 68.9721 41.9821 68.9202L41.112 68.7885L40.243 68.6521L39.8091 68.5825L39.396 68.4761L37.7503 68.0421C35.5936 67.341 33.5319 66.3717 31.6798 65.1035C29.8527 63.8057 28.1879 62.3086 26.8003 60.6011C26.4523 60.1768 26.1518 59.716 25.8291 59.2769C25.6717 59.0543 25.5094 58.8355 25.3578 58.6103L24.9479 57.9058C24.684 57.4329 24.3869 56.9808 24.1569 56.4949C23.9329 56.0062 23.7099 55.5192 23.4881 55.0343C22.698 53.0589 22.0875 51.0334 21.8748 48.9946C21.6955 47.9846 21.7152 46.9694 21.6712 45.974L21.665 45.7876L21.6622 45.6945L21.6607 45.6478C21.6592 45.6442 21.6644 45.5107 21.6639 45.5463L21.6873 45.1928C21.7029 44.9571 21.7187 44.7229 21.7339 44.4888C21.7495 44.2552 21.7651 44.022 21.7804 43.7898C21.7975 43.5568 21.8022 43.3311 21.8518 43.0798C21.9324 42.59 22.0123 42.103 22.0916 41.6202C22.1363 41.3806 22.1633 41.1346 22.2225 40.9044C22.2844 40.6753 22.3457 40.4479 22.4071 40.2205C22.5303 39.767 22.6529 39.3169 22.7743 38.8706C22.9273 38.4344 23.0972 38.0078 23.2563 37.5822C23.5456 36.7189 23.9807 35.936 24.3631 35.1506C24.5427 34.751 24.7856 34.3917 25.0098 34.0267C25.2361 33.6639 25.4601 33.305 25.6822 32.9493C27.5885 30.1879 29.8934 28.1012 32.1502 26.6306C34.249 25.2411 36.3266 24.4322 38.0935 23.9035L37.7565 20.7702C36.7843 21.0278 35.7441 21.397 34.6418 21.8503C33.427 22.3501 32.1558 23.0027 30.8682 23.8205C28.2948 25.4471 25.6502 27.7909 23.5086 30.9361C21.3649 34.0615 19.7417 38.0009 19.2766 42.3669C18.7795 46.7176 19.4352 51.4518 21.3829 55.794C23.3327 60.1242 26.5826 64.0428 30.7381 66.7079C34.8711 69.3995 39.8442 70.8287 44.7897 70.7295C49.7374 70.6513 54.6004 69.048 58.5529 66.269C60.0741 65.1999 61.4674 63.9735 62.7093 62.629L62.4526 62.3675L62.7319 62.6041C63.0944 62.2106 63.4456 61.8082 63.7814 61.3952C65.2652 59.5554 66.4733 57.5335 67.3696 55.4231Z" fill="#F8C260"/>
<path d="M69.673 28.392C67.2159 24.7555 64.2156 21.9903 61.2637 20.0476C58.3086 18.0871 55.4035 16.9536 52.9696 16.279C50.5373 15.5993 48.5177 15.3813 47.2079 15.2998C46.564 15.2356 45.9876 15.2495 45.6318 15.2342C45.3481 15.2275 45.1728 15.2237 45.1077 15.222C45.0935 15.2225 44.9154 15.2266 44.5798 15.2348C44.2302 15.25 43.709 15.2342 43.0338 15.2986C41.7514 15.3783 39.8916 15.5779 37.6172 16.1803L37.7872 18.7866C39.9171 18.1713 41.6664 17.949 42.8672 17.8505C43.4908 17.7811 43.972 17.7846 44.2952 17.7646C44.6192 17.7516 44.7863 17.7448 44.7863 17.7448L44.8131 17.7451C44.8131 17.7451 44.9737 17.7463 45.2854 17.7495C45.6046 17.7589 46.0399 17.738 46.6922 17.7883C47.9788 17.8531 49.8026 18.028 52.0894 18.6304C53.2333 18.913 54.4696 19.3448 55.7835 19.8893C57.0993 20.4334 58.4759 21.1428 59.8695 22.0308C62.6539 23.7974 65.5118 26.3376 67.8271 29.7448C68.9757 31.4472 70.0122 33.3448 70.7963 35.4312C71.5955 37.5104 72.1382 39.7712 72.4036 42.126C72.4772 42.714 72.5036 43.3109 72.5488 43.9087C72.5562 44.209 72.5641 44.5095 72.5711 44.8114L72.5817 45.2647L72.5694 45.737C72.5606 46.0238 72.5513 46.3108 72.5425 46.5992C72.5294 46.8936 72.4969 47.2218 72.4737 47.5323C72.4345 48.1713 72.3399 48.7741 72.26 49.3918C72.062 50.6182 71.816 51.8532 71.4473 53.0663C71.2854 53.6793 71.0609 54.2761 70.8583 54.8816C70.6199 55.4739 70.407 56.081 70.1284 56.6616C68.8611 59.4826 67.0827 62.1375 64.892 64.4373L66.2711 65.6064L66.3063 65.636L66.3318 65.6989L66.4599 66.0156C66.981 65.472 67.4816 64.9111 67.9569 64.3327C69.7525 62.1287 71.226 59.7058 72.3119 57.1651C72.4554 56.8507 72.5874 56.5323 72.7046 56.2088L73.0681 55.2461C73.2758 54.5933 73.5098 53.9523 73.6735 53.2933C74.0512 51.9894 74.2941 50.6642 74.4901 49.3506C74.5647 48.6912 74.6601 48.0308 74.689 47.3901C74.7084 47.0647 74.7396 46.7538 74.7498 46.4198C74.7559 46.0819 74.7617 45.7448 74.7678 45.4086C74.7917 44.7826 74.7377 44.1206 74.7279 43.4852C74.672 42.8472 74.6412 42.2104 74.5572 41.5844C74.3543 39.9425 74.0324 38.3469 73.597 36.819L71.6497 37.4609L73.5549 36.6772C73.3351 35.9209 73.0897 35.1802 72.8122 34.4613C71.9642 32.2475 70.8914 30.2133 69.673 28.392Z" fill="#F8C260"/>
<path d="M73.4879 25.7073C70.7174 21.5274 67.2833 18.3631 63.9151 16.1297C60.5406 13.8792 57.2182 12.5716 54.4334 11.7923C51.6482 11.0063 49.3441 10.7513 47.8328 10.6523C47.0874 10.5779 46.4419 10.5915 46.0357 10.5733C45.7001 10.565 45.4987 10.5594 45.4335 10.5579C45.4182 10.5584 45.2135 10.5637 44.8282 10.5733C44.4275 10.5923 43.8307 10.5759 43.0576 10.6514C41.6766 10.7414 39.7105 10.9544 37.3164 11.5586L37.4492 13.5906C39.703 13.0181 41.5553 12.8126 42.8571 12.7231C43.5906 12.6511 44.1559 12.6626 44.5357 12.6446C44.9158 12.6341 45.1117 12.6285 45.1117 12.6285L45.1443 12.6289C45.1443 12.6289 45.3327 12.6345 45.698 12.6446C46.0716 12.6629 46.5818 12.649 47.3463 12.7217C48.8522 12.8249 50.9841 13.0693 53.6413 13.8232C56.2818 14.5695 59.4282 15.8198 62.6199 17.9604C65.8015 20.0858 69.0534 23.0847 71.6408 27.0613C72.9299 29.0456 74.0567 31.2569 74.9373 33.6544C75.1978 34.3591 75.4295 35.0837 75.6391 35.8203L77.78 34.94C77.5532 34.1633 77.3031 33.4004 77.0227 32.6582C76.073 30.127 74.8652 27.7962 73.4879 25.7073Z" fill="#F8C260"/>
<path d="M76.8636 43.3776C76.8668 44.0693 76.9125 44.7431 76.8782 45.4611C76.8679 45.7969 76.8565 46.1338 76.8461 46.4716C76.8315 46.8135 76.7932 47.1775 76.7668 47.531C76.7236 48.2495 76.6139 48.9426 76.5234 49.6484C76.2964 51.0505 76.0151 52.462 75.5936 53.8488C75.4078 54.5496 75.1506 55.231 74.9194 55.9234C74.7855 56.2631 74.6515 56.6037 74.5172 56.9445C74.3864 57.2877 74.2423 57.6251 74.0848 57.9577C72.4701 61.5852 70.1213 64.9705 67.1992 67.8367L68.0552 69.9531C71.6102 66.6992 74.4282 62.7311 76.2847 58.469L76.5247 57.9335L76.7373 57.3878C76.8777 57.0237 77.0185 56.6607 77.158 56.2984C77.3984 55.5597 77.6688 54.8339 77.8598 54.0873C78.299 52.6101 78.5854 51.1075 78.8181 49.6164C78.9078 48.8676 79.0216 48.118 79.0597 47.3889C79.0837 47.0194 79.1221 46.6646 79.1363 46.2857C79.146 45.9024 79.1553 45.5202 79.1646 45.1389L79.1759 44.5984L79.1616 44.0473C79.1526 43.6802 79.143 43.3147 79.1341 42.95C79.076 42.2237 79.0458 41.4986 78.9546 40.7848C78.7383 38.9314 78.3892 37.1265 77.9114 35.3955L75.723 36.1171C76.1817 37.7935 76.5127 39.5422 76.7087 41.3369C76.7891 42.0102 76.8146 42.6933 76.8636 43.3776Z" fill="#F8C260"/>
<path d="M44.1361 27.861L44.1726 27.8616C44.1726 27.8616 44.5938 27.8818 45.3836 27.9189C45.5838 27.9337 45.7954 27.9267 46.0504 27.9623C46.3062 27.9998 46.5852 28.0411 46.887 28.0853C47.1871 28.1346 47.5175 28.169 47.8545 28.2431C48.187 28.3277 48.54 28.418 48.9134 28.5134C50.389 28.932 52.1706 29.5895 53.9741 30.7803C55.7784 31.9531 57.6201 33.6189 59.1478 35.8225C60.6552 38.0316 61.802 40.7982 62.2179 43.879C62.284 44.2615 62.2833 44.6541 62.3179 45.0462L62.3571 45.637L62.3762 45.934C62.3782 45.8979 62.3767 46.0249 62.3767 46.0249L62.3755 46.0601L62.3734 46.1306L62.3687 46.2713C62.3343 47.0308 62.3598 47.7527 62.2149 48.6174C62.0389 50.3124 61.5592 51.8887 60.9267 53.4847C60.7494 53.8731 60.5719 54.263 60.3932 54.6546C60.2094 55.0442 59.9722 55.4065 59.7618 55.7856L59.4337 56.3497L59.058 56.8842C58.7994 57.236 58.5597 57.6054 58.2814 57.9455C57.172 59.3141 55.8396 60.5142 54.377 61.555C52.8946 62.5725 51.243 63.3505 49.5153 63.9115L48.1967 64.2596L47.8662 64.3447L47.5298 64.3991L46.8554 64.506C46.4056 64.5789 45.9565 64.6568 45.5001 64.665L44.8183 64.7022L44.4771 64.7202L44.3067 64.729L44.2214 64.7336L44.1785 64.7356C44.133 64.7354 44.2206 64.7388 44.0655 64.736L42.8029 64.6666C42.5854 64.6485 42.3968 64.6583 42.1559 64.6172L41.4551 64.5113L40.7554 64.4013L40.406 64.3448L40.0751 64.2596L38.7565 63.9115C37.0288 63.3505 35.3777 62.5725 33.8948 61.555C32.4325 60.5142 31.1003 59.3141 29.9906 57.9455C29.7126 57.6054 29.472 57.236 29.2142 56.8842L28.8381 56.3497L28.5105 55.7856C28.2998 55.4065 28.0627 55.0442 27.8789 54.6546C27.7006 54.263 27.5223 53.8731 27.3453 53.4847C26.7146 51.9026 26.2294 50.2807 26.0612 48.6491C25.9192 47.8408 25.9356 47.0284 25.9019 46.2326L25.8972 46.0832L25.8951 46.0088L25.8941 45.9713L25.8969 45.8818L25.916 45.6016L25.9541 45.0444C25.9883 44.6672 25.9841 44.3215 26.0495 43.9256C26.1144 43.5319 26.1789 43.141 26.2431 42.7529C26.279 42.5609 26.3015 42.3627 26.3489 42.1786L26.4975 41.6318C26.5967 41.269 26.6951 40.9096 26.7927 40.5527C26.9156 40.2041 27.0521 39.8635 27.1798 39.5232C27.6853 38.159 28.3968 36.9445 29.1246 35.8225C30.6521 33.6189 32.4938 31.9531 34.2982 30.7803C36.1013 29.5895 37.883 28.932 39.3589 28.5134C39.7319 28.418 40.0851 28.3277 40.4176 28.2431C40.7523 28.1699 41.0728 28.1372 41.3677 28.0882C41.6633 28.0435 41.9367 28.0023 42.1872 27.965C42.4382 27.9291 42.6692 27.9352 42.8743 27.9203C43.6971 27.8811 44.1361 27.861 44.1361 27.861ZM27.1652 33.9542C26.9726 34.2887 26.7778 34.6261 26.5809 34.9676C26.3858 35.3092 26.1719 35.6444 26.021 36.0176C25.6964 36.7512 25.3178 37.4768 25.0828 38.2765C24.9507 38.6698 24.8073 39.0629 24.6802 39.4637C24.5838 39.8742 24.4864 40.288 24.3885 40.7048C24.3389 40.9129 24.2894 41.1219 24.2395 41.3307C24.1925 41.5401 24.1799 41.7494 24.1476 41.959C24.0909 42.3774 24.0334 42.7987 23.9759 43.2232C23.9367 43.4267 23.9385 43.6667 23.9296 43.8983C23.9216 44.1313 23.9139 44.3647 23.906 44.5989C23.8981 44.8329 23.8902 45.0678 23.8825 45.3038L23.8711 45.6409C23.8711 45.6409 23.8715 45.6412 23.8715 45.6448L23.8746 45.687L23.8805 45.7708L23.8921 45.94C23.9662 46.8379 23.9705 47.7525 24.1664 48.6539C24.4128 50.4779 25.0273 52.2676 25.7832 54.0007C25.9943 54.4248 26.2066 54.8507 26.4195 55.2782C26.6366 55.7031 26.9183 56.0935 27.1641 56.5053L27.5451 57.1174C27.6861 57.3121 27.8377 57.5 27.9836 57.6922C28.2835 58.0697 28.5585 58.4695 28.8782 58.8332C30.1448 60.3041 31.6299 61.596 33.2535 62.7023C33.6746 62.9544 34.0966 63.2069 34.5191 63.4604C34.6256 63.5225 34.7285 63.5902 34.8372 63.6482L35.1715 63.8053L35.8394 64.1218L36.5057 64.4447C36.7305 64.5453 36.9676 64.6177 37.1979 64.7056C37.6644 64.8676 38.1214 65.0612 38.595 65.2013L40.0335 65.5689L40.3928 65.6607L40.7472 65.7126L41.4551 65.8197L42.1626 65.9312C42.3892 65.9769 42.6833 65.9654 42.9403 65.9857L44.4725 66.0586C44.4725 66.0586 44.5185 66.0583 44.5069 66.0572L44.5534 66.055L44.6462 66.0501L44.832 66.0408L45.2039 66.0228L45.9481 65.9876C46.1945 65.9686 46.4454 65.983 46.6896 65.9371L47.4245 65.8252L48.1598 65.7151L48.5275 65.661L48.8871 65.5689L50.3258 65.2013C50.7994 65.0612 51.2569 64.8676 51.7228 64.7056C51.953 64.6177 52.1906 64.5453 52.4149 64.4447L53.081 64.1218L53.7493 63.8053L54.0834 63.6482C54.1921 63.5902 54.2952 63.5225 54.4016 63.4604C54.8238 63.2069 55.2461 62.9544 55.6671 62.7023C57.2909 61.596 58.776 60.3041 60.0428 58.8332C60.3623 58.4695 60.6374 58.0697 60.9376 57.6922C61.0831 57.5 61.2348 57.3121 61.3756 57.1174L61.7565 56.5053C62.0023 56.0935 62.2843 55.7031 62.5008 55.2782C62.7142 54.8507 62.9268 54.4248 63.1375 54.0007L63.2968 53.6826L63.4231 53.3513L63.675 52.6902C63.8357 52.2481 64.0358 51.8196 64.1366 51.3622C64.2598 50.9109 64.3827 50.462 64.5049 50.0148C64.6226 49.5679 64.6639 49.128 64.7502 48.6873C64.9434 47.8455 64.9569 46.8352 65.03 45.899L65.049 45.6027L65.0372 45.267L65.0149 44.5973C64.9895 44.1534 65.0106 43.7068 64.9494 43.2715C64.5955 39.7682 63.4039 36.5624 61.7554 33.9542C60.0979 31.341 57.9761 29.3744 55.9102 27.9623C53.8459 26.5178 51.7639 25.7427 50.0443 25.2423C49.609 25.1271 49.1973 25.0188 48.8098 24.9161C48.4218 24.8281 48.0569 24.791 47.7177 24.7309C47.3784 24.6761 47.0647 24.6258 46.7773 24.5797C46.4883 24.5343 46.1974 24.5396 45.9523 24.5199C45.082 24.4724 44.5668 24.4443 44.4496 24.4382C44.3748 24.4423 43.8698 24.4699 42.9828 24.5192C42.7425 24.5387 42.4712 24.5316 42.1782 24.5763C41.8856 24.6231 41.5661 24.6736 41.2207 24.7285C40.8765 24.789 40.5014 24.8278 40.111 24.9161C39.7233 25.0188 39.3114 25.1271 38.8765 25.2423C37.1572 25.7427 35.0749 26.5178 33.0106 27.9623C30.9454 29.3744 28.8234 31.341 27.1652 33.9542Z" fill="#F8C260"/>
<path d="M9.52166 42.8666C9.58118 42.0889 9.61689 41.2916 9.71296 40.5334C10.0658 37.4887 10.7522 34.5634 11.769 31.865C12.7802 29.1655 14.0673 26.6802 15.5348 24.4527C18.4862 19.9959 22.1441 16.6226 25.734 14.2407C29.3315 11.84 32.8749 10.4431 35.8455 9.61018C36.0799 9.54408 36.3092 9.48308 36.5366 9.42378L36.3181 7.39158C19.6397 11.5358 7.23047 26.777 7.23047 44.8958C7.23047 44.9895 7.23349 45.0822 7.23433 45.1758L9.00058 44.1628L9.26364 44.0409L9.4727 44.1528L9.48947 44.1616L9.49349 43.9992C9.50305 43.6208 9.51227 43.2424 9.52166 42.8666Z" fill="#F8C260"/>
<path d="M13.3341 44.904L13.3435 44.4025C13.3496 44.0684 13.3556 43.7354 13.3615 43.4034C13.4096 42.7161 13.4371 42.0087 13.5174 41.3372C13.8123 38.6426 14.4035 36.049 15.2885 33.6533C16.169 31.2558 17.2957 29.0445 18.585 27.0602C21.1719 23.0836 24.4238 20.0847 27.6062 17.9593C30.797 15.8187 33.9439 14.5684 36.5842 13.8221C36.7233 13.7825 36.8603 13.7452 36.9968 13.7081L36.7809 11.6983C36.6679 11.729 36.5555 11.7586 36.441 11.7912C33.6561 12.5705 30.3341 13.8772 26.9594 16.1287C23.5912 18.3613 20.1569 21.5263 17.3862 25.7062C16.0091 27.7951 14.8015 30.1259 13.8517 32.6571C12.8967 35.1859 12.2536 37.9292 11.9208 40.7851C11.8299 41.5005 11.8009 42.2009 11.7421 42.9237C11.7325 43.3002 11.7231 43.6772 11.7132 44.0562L11.6992 44.6254L11.7109 45.1515C11.7124 45.219 11.7142 45.2871 11.7158 45.3544L13.3729 46.2422C13.3646 45.9775 13.3561 45.7131 13.3475 45.4496C13.3437 45.2647 13.3343 45.128 13.3341 44.904Z" fill="#F8C260"/>
<path d="M85.3424 32.9462L85.0978 33.0267L82.0986 34.0157C83.1032 37.4682 83.645 41.1194 83.645 44.8965C83.645 56.1883 78.8252 66.3632 71.1562 73.431L73.8521 75.2468L74.5895 75.7435L74.9932 76.0156L76.6524 74.1717L78.2115 71.3114L81.1071 69.475L82.8881 66.7494L85.7814 64.5344L86.1603 61.0496L86.6861 57.7553L86.4329 54.3532L90.0016 51.6841L87.9565 48.1174L88.3887 44.8965L87.4109 41.7164L89.4669 38.1906L87.006 35.3085L85.9106 32.7588L85.3424 32.9462Z" fill="#42210B"/>
<path d="M44.9524 0.0665092L44.7859 -0.000385284L41.4916 0.456608L38.5605 3.15381L36.7812 3.44071L36.7845 3.44031L36.8214 4.00501L37.0314 7.22111C39.7362 6.60501 42.5479 6.27791 45.4343 6.27791C62.4908 6.27791 76.9711 17.6338 81.8675 33.2578L84.7964 32.0538L85.2732 31.8574L86.0528 31.5369L87.3888 28.2547L86.041 25.1322L83.3617 22.7674L82.4431 19.3943L80.2249 18.8242C80.1886 18.8717 80.15 18.9171 80.1101 18.9615C79.6987 19.4211 79.1209 19.7239 78.4717 19.7724C78.4113 19.7768 78.351 19.7817 78.29 19.7817C76.9329 19.7817 75.8332 18.6697 75.8332 17.2981C75.8332 17.0803 75.8636 16.8705 75.9158 16.669C76.0097 16.3059 76.1811 15.9748 76.4136 15.6969C76.5394 15.5464 76.6831 15.413 76.8401 15.2964L74.9116 12.7864L72.8487 10.1499L69.0342 9.90391L67.4901 6.28271L66.8774 6.36811L66.8411 6.28271L63.5171 6.74631L61.5498 3.39031L60.9468 3.46931L60.901 3.39031L57.5695 3.82571L54.7639 3.57711L52.0228 0.70541L51.4674 0.803013L51.3741 0.70541L48.4691 1.21601L45.4343 -0.000385284L44.9524 0.0665092Z" fill="#42210B"/>
<path d="M4.12501 46.96L7.23117 45.1791C7.23067 45.0856 7.22765 44.9927 7.22765 44.8992C7.22765 26.7803 19.6369 11.5391 36.3152 7.39497L35.9713 4.19837L35.9053 3.58427L35.9039 3.56887L32.4118 2.21707L31.9659 2.29557L31.7632 2.21707L28.4424 2.80167L25.6172 4.65897L22.3493 5.61607L21.2146 9.94377L17.3001 10.0589L16.4277 14.0032L13.0978 15.1788L11.769 16.9056C12.3117 17.3607 12.6572 18.0476 12.6572 18.8161C12.6572 19.0909 12.6113 19.3546 12.5297 19.6017C12.3655 20.0992 12.05 20.5254 11.6377 20.8272C11.2335 21.1234 10.7378 21.2995 10.2004 21.2995C9.58876 21.2995 9.03063 21.0721 8.60076 20.6986L6.95001 22.8207L4.49251 25.2859L4.03079 28.733L2.31013 31.6571L1.11524 34.8258L2.1195 38.3997L1.301 41.6057L0 44.8992L2.89709 47.668L2.89843 47.6631L4.12501 46.96Z" fill="#42210B"/>
<path d="M26.2669 84.345L27.2882 82.4575L28.8025 79.6597C16.4615 73.6015 7.81262 61.0239 7.26103 46.3848L4.19643 48.0988L2.51971 49.037L0.496094 51.6439L3.84168 54.3431L3.89315 57.6455L3.51995 61.2669L5.14017 64.1941L8.56254 66.0311L8.33822 70.0144L11.0479 72.0917L13.3768 74.3556L14.663 75.3826C15.0931 75.0093 15.6509 74.7823 16.2616 74.7823C16.3654 74.7823 16.467 74.791 16.5673 74.8037C17.6044 74.9342 18.4403 75.7161 18.6605 76.733C18.6977 76.9048 18.7186 77.0826 18.7186 77.2658C18.7186 77.9331 18.4569 78.5374 18.0331 78.9839L19.9144 81.7753L22.3261 84.2219L24.3487 84.5117C24.6927 84.3267 25.085 84.2208 25.502 84.2208C25.7694 84.2208 26.0259 84.2653 26.2669 84.345Z" fill="#42210B"/>
<path d="M45.4378 83.5163C39.5892 83.5163 34.0441 82.1794 29.0835 79.795L27.847 82.7286L27 84.7386C27.5823 85.1926 27.9592 85.903 27.9592 86.7038C27.9592 86.7133 27.9577 86.7225 27.9577 86.7318L28.3882 87.1361L31.8059 87.4447L31.9274 87.3971L32.4547 87.4447L35.8446 86.1165L38.4969 87.0917L41.6505 87.2217L44.7894 90L45.2082 89.7965L45.4378 90L48.6651 88.4339L51.5454 87.0966L54.4267 87.5845L54.5808 87.5008L55.0756 87.5845L57.5394 86.2438C57.5394 86.2365 57.5384 86.2292 57.5384 86.2217C57.5384 86.1307 57.5441 86.0409 57.5533 85.9524C57.6028 85.4896 57.7794 85.0663 58.0451 84.7156C58.4942 84.1228 59.1996 83.7386 59.9953 83.7386C60.1918 83.7386 60.3819 83.7645 60.5651 83.8086C61.3479 83.9967 61.9843 84.5615 62.2772 85.3044L64.0532 85.3343L64.0601 85.3231L64.7015 85.3341L66.7111 82.1496L69.5342 80.6275L73.4208 80.3657L74.2123 77.5849L73.6839 77.1615L72.6624 76.3431L70.1475 74.3278C63.4803 80.0549 54.8522 83.5163 45.4378 83.5163Z" fill="#42210B"/>
<path d="M11.6942 44.6265L11.7083 44.0572C11.7181 43.6783 11.7276 43.3013 11.7372 42.9247C11.7958 42.202 11.825 41.5016 11.9159 40.7862C12.2487 37.9302 12.8918 35.187 13.8468 32.6582C14.7966 30.127 16.0042 27.7962 17.3813 25.7073C20.1518 21.5272 23.5861 18.3624 26.9545 16.1297C30.3292 13.8783 33.6512 12.5716 36.4361 11.7922C36.5506 11.7597 36.6629 11.73 36.7759 11.6994L36.5313 9.42537C36.304 9.48467 36.0746 9.54567 35.8404 9.61177C32.8697 10.4447 29.3263 11.8415 25.7287 14.2423C22.1389 16.6242 18.481 19.9975 15.5295 24.4543C14.0621 26.6817 12.775 29.1671 11.7638 31.8666C10.747 34.5649 10.0606 37.4903 9.7077 40.5348C9.61163 41.2932 9.57592 42.0905 9.51641 42.8681C9.50702 43.2438 9.49778 43.6222 9.48822 44.0008L9.48438 44.1632L11.7108 45.3555C11.7092 45.2882 11.7075 45.2201 11.706 45.1526L11.6942 44.6265Z" fill="#824C20"/>
<path d="M75.3413 24.4557C72.3901 19.9989 68.7323 16.6257 65.1418 14.2437C61.5445 11.843 58.0013 10.4461 55.0304 9.6132C52.0428 8.7732 49.6381 8.50411 47.9543 8.39301C47.1025 8.31301 46.5155 8.32961 46.0944 8.31041C45.6799 8.29991 45.4658 8.29401 45.4658 8.29401H45.4376C45.4376 8.29401 45.2173 8.29931 44.7898 8.31041C44.363 8.32921 43.7272 8.31471 42.9032 8.39381C41.5068 8.48621 39.5469 8.69631 37.168 9.26861L37.3177 11.56C39.7117 10.9559 41.6778 10.7429 43.0589 10.6529C43.8322 10.5773 44.429 10.5937 44.8297 10.5751C45.2152 10.5651 45.4195 10.5598 45.4348 10.5593C45.5 10.5609 45.7014 10.5666 46.0374 10.5751C46.4432 10.5929 47.0887 10.5793 47.8341 10.6537C49.3454 10.7527 51.6495 11.0077 54.4347 11.7937C57.2195 12.573 60.542 13.8808 63.9164 16.1312C67.2846 18.3645 70.7187 21.5288 73.4892 25.7087C74.8665 27.7977 76.0743 30.1284 77.0241 32.6596C77.3046 33.4019 77.5547 34.1648 77.7814 34.9414L79.8528 34.0895C79.6278 33.3346 79.3806 32.5925 79.1077 31.8681C78.0959 29.1686 76.8088 26.6833 75.3413 24.4557Z" fill="#824C20"/>
<path d="M79.1336 42.9516C79.1425 43.3163 79.152 43.6818 79.1611 44.0488L79.1753 44.5999L79.1639 45.1405C79.1547 45.5218 79.1455 45.9039 79.1358 46.2872C79.1215 46.6661 79.0831 47.021 79.0588 47.3904C79.0211 48.1196 78.9072 48.8691 78.8175 49.618C78.5848 51.109 78.2985 52.6116 77.8592 54.0888C77.6683 54.8355 77.3978 55.5613 77.1574 56.2999C77.0179 56.6622 76.8771 57.0252 76.7368 57.3894L76.5242 57.9351L76.2841 58.4705C74.4276 62.7326 71.6097 66.7005 68.0547 69.9547L68.8274 71.8638L69.07 72.0273C73.077 68.4873 76.2469 64.1064 78.3089 59.3789L78.5642 58.8079L78.7919 58.2264C78.9416 57.8385 79.0977 57.4538 79.24 57.065C79.4981 56.2779 79.7849 55.5036 79.99 54.708C80.4577 53.1329 80.7655 51.5312 81.0128 49.9418C81.1099 49.1419 81.2293 48.3557 81.2734 47.5426C81.3 47.143 81.3408 46.7315 81.355 46.3442C81.3647 45.9607 81.3741 45.5785 81.3842 45.1974L81.3959 44.5964L81.3817 44.0097C81.372 43.6192 81.3619 43.2295 81.3527 42.8413C81.292 42.0673 81.2579 41.2954 81.1622 40.5351C80.9295 38.527 80.5486 36.5726 80.0263 34.6996L77.9109 35.3971C78.3887 37.1281 78.7377 38.933 78.954 40.7864C79.0452 41.5002 79.0754 42.2253 79.1336 42.9516Z" fill="#824C20"/>
<path d="M59.8255 75.5083C58.3444 76.2256 56.7956 76.8028 55.2221 77.3007C53.6443 77.7919 52.0224 78.1329 50.3884 78.3944C48.7504 78.6389 47.0936 78.7421 45.436 78.7645C44.6449 78.735 43.7174 78.744 42.9371 78.6609C42.1282 78.6155 41.305 78.5016 40.4838 78.3944C38.8497 78.1329 37.2276 77.7919 35.6499 77.3007C34.0767 76.803 32.528 76.2256 31.0464 75.5083C29.569 74.7866 28.1302 73.9896 26.7757 73.0698C21.3318 69.4237 17.0896 64.2129 14.5885 58.4706L14.3484 57.9353L14.1358 57.3896C13.9951 57.0258 13.855 56.6626 13.715 56.3002C13.4752 55.5615 13.2045 54.8357 13.0135 54.0889C12.5744 52.612 12.2874 51.1093 12.0555 49.6182C11.9655 48.8683 11.8518 48.1251 11.8128 47.3783C11.7883 47.0058 11.7496 46.635 11.7363 46.2639C11.7358 46.2498 11.7353 46.2358 11.7351 46.2217L9.49219 45.3346C9.50108 45.6784 9.50979 46.0223 9.51851 46.3683C9.53293 46.7635 9.57334 47.1585 9.59999 47.5555C9.64308 48.3508 9.76228 49.143 9.86002 49.9419C10.1069 51.5314 10.4153 53.1331 10.8826 54.7081C11.088 55.504 11.3745 56.2781 11.6324 57.0655C11.7747 57.454 11.9311 57.8385 12.0805 58.2266L12.3084 58.8083L12.5635 59.3791C15.2334 65.4998 19.7528 71.0457 25.553 74.9281C26.9608 75.8825 28.4536 76.7138 29.9879 77.4666L30.3295 76.835L30.0502 77.4974C30.0687 77.5062 30.0864 77.5154 30.1047 77.5244C31.6839 78.2878 33.3344 78.9039 35.0118 79.433C36.6936 79.9553 38.4225 80.3199 40.1634 80.5963C41.0371 80.7107 41.9085 80.8314 42.809 80.8817C43.7318 80.9703 44.5178 80.9566 45.436 80.9883C47.1996 80.9664 48.9635 80.8561 50.7086 80.5963C52.4496 80.3199 54.1781 79.9553 55.8601 79.433C57.538 78.9038 59.188 78.2874 60.7673 77.5244C62.3426 76.7567 63.8754 75.9067 65.3185 74.9279C66.3201 74.2577 67.2803 73.5346 68.2022 72.771L68.0715 72.6663L67.9226 72.5461L67.8815 72.4087L67.3329 70.5938C66.3084 71.4794 65.2302 72.3102 64.0965 73.0698C62.7417 73.9894 61.3035 74.7864 59.8255 75.5083Z" fill="#824C20"/>
<path d="M74.7289 43.4829C74.7388 44.1182 74.7928 44.7802 74.7688 45.4062C74.7628 45.7423 74.7569 46.0793 74.7508 46.4174C74.7406 46.7514 74.7094 47.0624 74.6902 47.3877C74.6612 48.0284 74.5658 48.6888 74.4911 49.3484C74.2952 50.6617 74.0522 51.987 73.6745 53.2907C73.5109 53.9501 73.2768 54.591 73.0691 55.2439L72.7056 56.2066C72.5884 56.5299 72.4565 56.8485 72.313 57.1627C71.2271 59.7034 69.7535 62.1263 67.9579 64.3301C67.4826 64.9089 66.982 65.4696 66.4609 66.0131L67.1984 67.8359C70.1205 64.9699 72.4694 61.5846 74.0841 57.9571C74.2415 57.6245 74.3857 57.2869 74.5165 56.9441C74.6508 56.6031 74.7847 56.2623 74.9187 55.9227C75.1499 55.2303 75.4071 54.5489 75.5928 53.8484C76.0143 52.4613 76.2956 51.0497 76.5226 49.648C76.6132 48.9422 76.7228 48.2489 76.7661 47.5304C76.7924 47.1769 76.8308 46.8129 76.8454 46.4709C76.8558 46.1332 76.867 45.7963 76.8774 45.4603C76.9118 44.7424 76.866 44.0687 76.8628 43.3769C76.8139 42.6927 76.7884 42.0096 76.7079 41.3363C76.5119 39.5416 76.181 37.7929 75.7222 36.1164L73.598 36.8166C74.0334 38.3445 74.355 39.9401 74.5582 41.582C74.6422 42.208 74.6731 42.8448 74.7289 43.4829Z" fill="#824C20"/>
<path d="M71.637 27.0603C69.0495 23.0837 65.7977 20.0848 62.616 17.9593C59.4244 15.8188 56.278 14.5685 53.6374 13.8222C50.9802 13.0683 48.8483 12.824 47.3424 12.7208C46.5779 12.6479 46.0677 12.662 45.6942 12.6437C45.3289 12.6335 45.1406 12.6279 45.1406 12.6279L45.1079 12.6276C45.1079 12.6276 44.9119 12.6331 44.5318 12.6437C44.1521 12.6616 43.5867 12.6501 42.8532 12.7221C41.5516 12.8116 39.6991 13.0171 37.4453 13.5896L37.6142 16.1789C39.8889 15.5765 41.7487 15.3769 43.0311 15.2972C43.7063 15.2328 44.2275 15.2486 44.5771 15.2333C44.9127 15.2252 45.0908 15.2211 45.105 15.2205C45.1703 15.2223 45.3455 15.226 45.6291 15.2328C45.9849 15.2481 46.5613 15.2342 47.2053 15.2984C48.515 15.3799 50.5346 15.5978 52.9669 16.2775C55.4008 16.9522 58.3059 18.0857 61.261 20.0462C64.213 21.9887 67.2132 24.7541 69.6703 28.3905C70.8887 30.2119 71.9612 32.2461 72.8095 34.4599C73.087 35.1788 73.3326 35.9195 73.5523 36.6758L75.6352 35.8193C75.4256 35.0827 75.1939 34.3581 74.9334 33.6535C74.0529 31.2559 72.9261 29.0447 71.637 27.0603Z" fill="#824C20"/>
<path d="M61.6133 70.1064C60.418 70.9227 59.1471 71.6311 57.8417 72.2731C56.533 72.911 55.1636 73.4253 53.7724 73.8698C52.3773 74.3078 50.9424 74.6139 49.4967 74.8489C48.0563 75.0691 46.559 75.1641 45.1334 75.1882C43.5953 75.1631 42.1917 75.0691 40.7284 74.8489C39.2828 74.6137 37.8477 74.3078 36.4526 73.8698C35.0614 73.4253 33.6925 72.911 32.3836 72.2731C31.0781 71.6311 29.8074 70.9227 28.6118 70.1064C26.217 68.4818 24.0711 66.5269 22.266 64.3302C20.471 62.1264 18.9976 59.7033 17.9115 57.1627C17.7677 56.8487 17.6361 56.5301 17.5188 56.2065L17.1549 55.2438C16.9477 54.5908 16.714 53.9498 16.55 53.2909C16.1723 51.9873 15.9287 50.6619 15.7334 49.3484C15.6588 48.6875 15.5633 48.0332 15.5337 47.3761C15.5144 47.0477 15.4826 46.7216 15.4729 46.3951C15.468 46.1065 15.4629 45.8187 15.4577 45.5318L14.3774 47.0853L14.2803 47.2254L14.1004 47.1544L13.4063 46.8801C13.4234 47.1002 13.4428 47.321 13.4587 47.542C13.5015 48.2439 13.6113 48.9432 13.702 49.6479C13.9292 51.05 14.2103 52.4616 14.6318 53.8481C14.8171 54.5488 15.0743 55.2305 15.3063 55.9228C15.4399 56.2624 15.5738 56.6032 15.7081 56.9441C15.8382 57.2869 15.9832 57.6245 16.1403 57.9572C18.5331 63.334 22.5351 68.1836 27.6354 71.5902C28.9062 72.4473 30.2551 73.1911 31.641 73.8623C33.0303 74.5295 34.4815 75.0674 35.9562 75.5283C37.4347 75.9835 38.9537 76.2997 40.4826 76.539C42.0022 76.7633 43.614 76.8575 45.0916 76.8711C46.6815 76.8564 48.2001 76.763 49.7427 76.539C51.2717 76.2997 52.7902 75.9835 54.2693 75.5283C55.744 75.0674 57.195 74.5295 58.5844 73.8623C59.9701 73.1911 61.3192 72.4473 62.59 71.5902C64.0396 70.6218 65.3968 69.5331 66.6574 68.353L66.0708 66.4097C64.7146 67.7721 63.222 69.0153 61.6133 70.1064Z" fill="#824C20"/>
<path d="M15.4637 44.4595C15.4741 44.1257 15.485 43.7932 15.4954 43.4612C15.5517 42.8266 15.5813 42.2139 15.6653 41.5858C15.9756 39.0782 16.5568 36.6749 17.4097 34.4628C18.2581 32.2489 19.3304 30.2147 20.5489 28.3934C23.0059 24.7569 26.0066 21.9915 28.9584 20.0491C31.9138 18.0886 34.819 16.9551 37.2528 16.2805C37.259 16.279 37.2646 16.2778 37.2704 16.2761L36.9946 13.711C36.8582 13.7481 36.7212 13.7855 36.582 13.8252C33.942 14.5715 30.7949 15.8218 27.604 17.9624C24.4216 20.0877 21.1697 23.0866 18.5828 27.0631C17.2935 29.0475 16.1669 31.2588 15.2864 33.6563C14.4013 36.052 13.8101 38.6455 13.5152 41.3401C13.4349 42.0117 13.4073 42.719 13.3593 43.4063C13.3534 43.7383 13.3474 44.0713 13.3414 44.4053L13.332 44.9072C13.3321 45.131 13.3415 45.2675 13.3454 45.4526C13.3539 45.7159 13.3625 45.9806 13.3709 46.2451L14.1389 46.6562L15.4493 45.0843L15.4473 44.961L15.4637 44.4595Z" fill="#824C20"/>
<path d="M58.5497 66.2658C54.5972 69.0446 49.7342 70.6481 44.7867 70.7265C39.8413 70.8255 34.868 69.3963 30.7351 66.7047C26.5797 64.0396 23.3297 60.1212 21.3795 55.7908C19.4319 51.4486 18.7763 46.7144 19.2733 42.3635C19.7385 37.9977 21.3616 34.0583 23.5054 30.9329C25.6472 27.7877 28.2917 25.4439 30.8648 23.8173C32.1528 22.9995 33.4238 22.3469 34.6386 21.8472C35.7408 21.3939 36.7809 21.0246 37.7535 20.767L37.5478 18.8536L37.5451 18.8545C35.3116 19.5161 32.6574 20.6145 29.9919 22.4723C27.3322 24.317 24.6428 26.8905 22.4812 30.24C21.404 31.9148 20.4874 33.7856 19.738 35.7937C18.9943 37.8055 18.4948 39.9817 18.2241 42.2442C18.152 42.8083 18.1255 43.3942 18.0802 43.9713C18.073 44.2548 18.0653 44.5385 18.0579 44.8236L18.0469 45.2514L18.0527 45.7019C18.0588 46.287 18.0723 46.8755 18.124 47.4658C18.1515 48.0577 18.2366 48.6479 18.305 49.2432C18.4809 50.4274 18.7021 51.6221 19.0424 52.798C19.1913 53.3918 19.4008 53.97 19.5888 54.5582C19.8119 55.1333 20.0093 55.7234 20.2716 56.2884C21.2476 58.58 22.5612 60.7733 24.1735 62.7675C25.7921 64.7564 27.7054 66.5451 29.851 68.0477C34.1417 71.0571 39.4301 72.7905 44.7867 72.8665C50.1408 72.9676 55.5405 71.4081 60.011 68.4864C61.7209 67.3861 63.2877 66.0899 64.6903 64.6485L62.7061 62.6257C61.4643 63.9703 60.0709 65.1967 58.5497 66.2658Z" fill="#824C20"/>
<path d="M70.8601 54.882C71.0626 54.2763 71.2871 53.6795 71.4491 53.0669C71.8177 51.8536 72.0634 50.6186 72.2617 49.3922C72.3417 48.7745 72.4362 48.1715 72.4755 47.5329C72.4986 47.2222 72.5311 46.8937 72.5442 46.5998C72.5531 46.3116 72.5623 46.0242 72.5712 45.7373L72.5834 45.2653L72.5727 44.812C72.5658 44.5099 72.5579 44.2094 72.5506 43.9091C72.5053 43.3113 72.479 42.7144 72.4054 42.1267C72.14 39.7716 71.5973 37.5108 70.7981 35.4316C70.0139 33.3452 68.9775 31.4475 67.8289 29.7452C65.5135 26.338 62.6557 23.7978 59.8711 22.0312C58.4777 21.1432 57.1011 20.4338 55.7853 19.8897C54.4714 19.3452 53.2351 18.9134 52.0912 18.6308C49.8043 18.0284 47.9806 17.8535 46.694 17.7887C46.0416 17.7384 45.6064 17.7593 45.2872 17.7499C44.9755 17.7467 44.8147 17.7455 44.8147 17.7455L44.7879 17.7452C44.7879 17.7452 44.6209 17.752 44.297 17.765C43.9736 17.785 43.4926 17.7815 42.8687 17.8509C41.6683 17.9494 39.9187 18.1717 37.7891 18.787L37.9157 20.728C37.9596 20.7172 38.0045 20.7045 38.0483 20.6938C40.1505 20.1408 41.8558 19.9804 43.0117 19.9249C43.5898 19.8783 44.0354 19.8983 44.3345 19.8892C44.5838 19.8872 44.7311 19.886 44.7738 19.8856C44.8151 19.8872 44.9695 19.8939 45.2334 19.9048C45.5368 19.9239 46.0282 19.9212 46.5771 19.987C47.6935 20.0798 49.4103 20.3005 51.466 20.9198C53.5231 21.5328 55.9674 22.5479 58.4212 24.2646C60.8696 25.9689 63.3457 28.3454 65.334 31.4331C66.3245 32.9778 67.1648 34.7013 67.8547 36.5493C68.5391 38.4007 68.9958 40.4037 69.2466 42.4867C69.3136 43.0071 69.3363 43.5365 69.3794 44.0664C69.3852 44.5914 69.4234 45.1521 69.405 45.6564C69.4003 45.9428 69.3949 46.2306 69.3898 46.5188C69.381 46.8015 69.3549 47.049 69.3389 47.3173C69.317 47.8384 69.2363 48.3903 69.175 48.937C69.0122 50.0271 68.8113 51.1274 68.498 52.2091C68.3617 52.7563 68.1674 53.2881 67.996 53.8302C67.7895 54.3585 67.6109 54.903 67.3678 55.4226C66.4715 57.5334 65.2634 59.5552 63.7796 61.3948C63.4437 61.8078 63.0926 62.2101 62.7301 62.6039L64.8934 64.4375C67.0845 62.1379 68.8626 59.4828 70.1301 56.662C70.4088 56.0813 70.6217 55.4744 70.8601 54.882Z" fill="#824C20"/>
<path d="M40.1119 24.9176C40.5024 24.8293 40.8773 24.7905 41.2216 24.73C41.567 24.6751 41.8866 24.6246 42.1791 24.5778C42.4722 24.5331 42.7434 24.5402 42.9837 24.5207C43.8708 24.4714 44.3757 24.4438 44.4505 24.4397C44.5677 24.4458 45.0829 24.4739 45.9532 24.5214C46.1983 24.541 46.4892 24.5358 46.7783 24.5812C47.0656 24.6273 47.3793 24.6776 47.7186 24.7324C48.0578 24.7925 48.4228 24.8296 48.8108 24.9176C49.1982 25.0203 49.61 25.1286 50.0452 25.2438C51.7647 25.7442 53.8468 26.5193 55.9112 27.9638C57.977 29.3759 60.0989 31.3425 61.7563 33.9557C63.4047 36.5639 64.5964 39.7697 64.9503 43.273C65.0115 43.7082 64.9904 44.1548 65.0159 44.5988L65.0382 45.2685L65.0499 45.6042L65.031 45.9005C64.9577 46.8367 64.9443 47.8469 64.751 48.6886C64.6648 49.1295 64.6236 49.5694 64.5059 50.0165C64.3837 50.4633 64.2608 50.9122 64.1375 51.3635C64.0368 51.821 63.8366 52.2496 63.676 52.6917L63.424 53.353L63.2978 53.6841L63.1385 54.0022C62.9277 54.4263 62.7151 54.852 62.5017 55.2796C62.2853 55.7046 62.0033 56.095 61.7575 56.507L61.3766 57.1189C61.2358 57.3134 61.084 57.5013 60.9385 57.6937C60.6384 58.0714 60.3633 58.471 60.0437 58.8347C58.7769 60.3054 57.2918 61.5972 55.6681 62.7038C55.2471 62.9561 54.8247 63.2088 54.4026 63.4618C54.2961 63.5238 54.193 63.5917 54.0844 63.6497L53.7502 63.8069L53.082 64.1233L52.4159 64.4462C52.1915 64.5468 51.954 64.619 51.7238 64.7071C51.2579 64.8691 50.8003 65.0626 50.3267 65.2026L48.888 65.5703L48.5284 65.6625L48.1608 65.7166L47.4254 65.8266L46.6906 65.9386C46.4463 65.9845 46.1955 65.9699 45.9487 65.9889L45.2046 66.0242L44.8329 66.0421L44.6472 66.0516L44.5543 66.0564L44.5079 66.0587C44.5194 66.0597 44.4735 66.0603 44.4735 66.0603L42.9413 65.9872C42.6843 65.9667 42.3902 65.9786 42.1634 65.9327L41.456 65.821L40.7482 65.7139L40.3936 65.6624L40.0345 65.5703L38.596 65.2026C38.1223 65.0626 37.6653 64.8691 37.1989 64.7071C36.9685 64.619 36.7315 64.5468 36.5066 64.4462L35.8404 64.1233L35.1724 63.8069L34.8381 63.6497C34.7295 63.5917 34.6264 63.5238 34.5204 63.4618C34.0978 63.2088 33.6756 62.9561 33.2544 62.7038C31.6309 61.5972 30.1458 60.3054 28.879 58.8347C28.5594 58.471 28.2843 58.0714 27.9845 57.6937C27.8386 57.5013 27.6871 57.3134 27.5461 57.1189L27.165 56.507C26.9192 56.095 26.6376 55.7046 26.4204 55.2796C26.2075 54.852 25.9953 54.4263 25.7842 54.0022C25.0282 52.2691 24.4138 50.4798 24.1673 48.6559C23.9715 47.754 23.9671 46.8394 23.893 45.9415L23.8815 45.7725L23.8756 45.6883L23.8727 45.6463C23.8724 45.643 23.8721 45.6422 23.8721 45.6422L23.8835 45.3051C23.8912 45.0691 23.8991 44.8342 23.9071 44.6004C23.9148 44.3662 23.9225 44.1328 23.9304 43.8998C23.9393 43.6682 23.9376 43.4282 23.9769 43.2247C24.0344 42.8002 24.0919 42.3789 24.1485 41.9605C24.1809 41.7509 24.1935 41.5416 24.2404 41.3322C24.2904 41.1234 24.3398 40.9144 24.3895 40.7063C24.4874 40.2895 24.5848 39.8756 24.6812 39.4652C24.8083 39.0644 24.9516 38.6713 25.0837 38.278C25.3188 37.4783 25.6973 36.7527 26.0219 36.0191C26.1728 35.6459 26.3867 35.3107 26.5819 34.9691C26.7786 34.6276 26.9735 34.2902 27.166 33.9557C28.8243 31.3425 30.9462 29.3759 33.0115 27.9638C35.0759 26.5193 37.158 25.7442 38.8775 25.2438C39.3124 25.1286 39.7243 25.0203 40.1119 24.9176ZM25.6781 32.9491C25.4563 33.3047 25.2323 33.6638 25.0059 34.0266C24.7814 34.3916 24.5387 34.7508 24.3591 35.1504C23.9769 35.9359 23.5418 36.7188 23.2522 37.582C23.0931 38.0077 22.9235 38.4342 22.7701 38.8704C22.6487 39.3168 22.5263 39.7669 22.4031 40.2203C22.3417 40.4476 22.2802 40.6752 22.2183 40.9043C22.1591 41.1344 22.132 41.3805 22.0874 41.6201C22.0082 42.1029 21.9284 42.5899 21.848 43.0796C21.7983 43.3309 21.7935 43.5567 21.7765 43.7897C21.7611 44.0218 21.7457 44.255 21.7301 44.4887C21.7143 44.7227 21.6991 44.9569 21.6833 45.1925L21.6598 45.5461C21.6605 45.5105 21.6552 45.6441 21.6565 45.6476L21.6582 45.6944L21.6609 45.7874L21.6672 45.9738C21.7113 46.9692 21.6915 47.9846 21.8708 48.9945C22.0835 51.0332 22.6939 53.0588 23.4839 55.0342C23.7061 55.519 23.9289 56.0059 24.1529 56.4946C24.3829 56.9806 24.6802 57.4327 24.9439 57.9058L25.3538 58.6101C25.5054 58.8353 25.6677 59.0539 25.8251 59.2768C26.1477 59.7158 26.4484 60.1766 26.7963 60.6009C28.184 62.3084 29.8487 63.8056 31.6756 65.1033C33.5279 66.3716 35.5896 67.3409 37.7463 68.0418L39.3922 68.4761L39.8051 68.5823L40.239 68.652L41.108 68.7882L41.9781 68.9201C42.276 68.9719 42.5183 68.9594 42.7914 68.9823L44.386 69.0692C44.5543 69.0721 44.4633 69.0685 44.5147 69.0685L44.5677 69.0658L44.6742 69.0602L44.8873 69.049L45.3129 69.027L46.1643 68.9804C46.447 68.9565 46.733 68.966 47.0133 68.9141L47.8558 68.7826L48.6976 68.6493L49.1182 68.5822L49.5308 68.4761L51.1762 68.0418C53.3331 67.3409 55.3948 66.3716 57.2474 65.1033C59.0737 63.8056 60.7385 62.3084 62.1265 60.6009C62.4742 60.1766 62.7748 59.7158 63.0976 59.2768C63.2548 59.0539 63.4171 58.8353 63.5687 58.6101L63.9788 57.9058C64.2427 57.4327 64.5399 56.9806 64.7699 56.4946C64.9938 56.0059 65.2169 55.519 65.4386 55.0342C66.2306 53.044 66.8348 51.0666 67.0564 48.9614C67.2385 47.8919 67.2093 46.9714 67.2546 46.0145L67.26 45.8367L67.2632 45.7481L67.2648 45.7035C67.2657 45.7015 67.266 45.5659 67.2643 45.601L67.2407 45.2294C67.2249 44.982 67.2087 44.7361 67.1927 44.4904C67.1497 44.0005 67.1523 43.5102 67.0707 43.0313C66.5555 39.1787 65.1267 35.7163 63.2444 32.9491C61.3385 30.1878 59.0334 28.1011 56.7764 26.631C54.521 25.1372 52.2901 24.3138 50.4427 23.7893C49.9756 23.6699 49.5335 23.5567 49.1174 23.4501C48.6959 23.3579 48.2845 23.3153 47.9101 23.2533C47.5342 23.1972 47.186 23.1457 46.8669 23.0989C46.5491 23.0537 46.2791 23.062 46.0268 23.0439C45.0299 22.9961 44.4983 22.9712 44.4983 22.9712L44.4612 22.97C44.4612 22.97 43.9122 22.9961 42.8818 23.0447C42.6246 23.0637 42.3349 23.0567 42.0208 23.1015C41.7075 23.1486 41.3648 23.1996 40.9951 23.2554C40.6259 23.3175 40.2242 23.3584 39.8053 23.4501C39.3895 23.5567 38.947 23.6699 38.4799 23.7893C38.3614 23.8227 38.2415 23.8574 38.1202 23.8939L38.1691 24.6424L38.0895 23.9034C36.3225 24.4321 34.2451 25.2409 32.1461 26.6305C29.8892 28.1011 27.5843 30.1878 25.6781 32.9491Z" fill="#824C20"/>
<path d="M45.9626 29.4376C46.1868 29.4742 46.4321 29.514 46.6971 29.5574C46.962 29.604 47.2469 29.633 47.5505 29.7016C47.8548 29.7826 48.1779 29.8682 48.5192 29.9583C49.8685 30.3522 51.5027 30.9604 53.1211 32.0962C54.7401 33.206 56.4044 34.7515 57.6996 36.8038C58.988 38.8516 59.9165 41.3662 60.1888 44.112C60.2359 44.4528 60.2183 44.803 60.2376 45.1506L60.2543 45.6754L60.263 45.9384L60.2474 46.1638C60.1888 46.9035 60.1759 47.7106 60.023 48.3595C59.9549 48.7028 59.9225 49.0436 59.8295 49.393C59.7332 49.7426 59.6358 50.0939 59.5393 50.4469C59.4593 50.805 59.302 51.1402 59.1755 51.4857L58.9773 52.0029L58.8784 52.262L58.7531 52.5102C58.5866 52.842 58.4203 53.1749 58.2528 53.509C58.0825 53.8408 57.8609 54.1459 57.6684 54.4678L57.3696 54.9461L57.0254 55.395C56.7897 55.6895 56.5743 56.0021 56.3236 56.286C55.3308 57.4347 54.1686 58.4434 52.8981 59.3068L51.9079 59.8982C51.7461 60.0038 51.5739 60.0895 51.3975 60.1673L50.875 60.4137L50.3544 60.6662C50.1784 60.7445 49.9931 60.8007 49.8132 60.87C49.4487 60.9959 49.0916 61.1474 48.7213 61.2566L47.5966 61.5431L47.3156 61.6153L47.0279 61.6573L46.4537 61.7431C46.0704 61.8024 45.6884 61.8697 45.2989 61.8697L44.7178 61.8965L44.4271 61.9109L44.2819 61.918L44.2091 61.9215L44.1729 61.9237C44.1841 61.9246 44.1518 61.9241 44.1464 61.9246L42.9435 61.8675C42.741 61.8517 42.5044 61.8607 42.3297 61.8246L41.7811 61.7378L41.2322 61.6551L40.9573 61.6153L40.6764 61.5431L39.5521 61.2566C39.1818 61.1474 38.825 60.9959 38.4604 60.87C38.2801 60.8007 38.0949 60.7445 37.9187 60.6662L37.3986 60.4137L36.876 60.1673C36.6995 60.0895 36.5269 60.0038 36.3655 59.8982L35.3753 59.3068C34.1048 58.4434 32.9425 57.4347 31.9494 56.286C31.6988 56.0021 31.4835 55.6895 31.2483 55.395L30.9041 54.9461L30.6048 54.4678C30.4122 54.1459 30.1906 53.8408 30.0205 53.509C29.8531 53.1749 29.6864 52.842 29.5206 52.5102C28.9264 51.1552 28.4419 49.7558 28.2462 48.3276C28.091 47.6222 28.0865 46.9059 28.0269 46.2024L28.0174 46.0704L28.0127 46.0043L28.0105 45.9715C28.0106 45.9679 28.0102 45.9669 28.0105 45.9715L28.0181 45.7107L28.0357 45.1523C28.0556 44.7896 28.041 44.3933 28.0888 44.0657C28.1334 43.7349 28.1775 43.4067 28.2213 43.081C28.2462 42.9166 28.2551 42.7551 28.2917 42.5906L28.4074 42.1001C28.4836 41.7734 28.5591 41.4489 28.6339 41.1271C28.7331 40.8128 28.8449 40.5043 28.9477 40.1954C29.3531 38.9567 29.9558 37.8438 30.5735 36.8038C31.8691 34.7515 33.5333 33.206 35.1525 32.0962C36.7706 30.9604 38.4049 30.3522 39.7538 29.9583C40.0955 29.8682 40.4186 29.7826 40.7225 29.7016C41.0294 29.6325 41.3236 29.602 41.5935 29.5545C41.8648 29.5111 42.1154 29.4711 42.3451 29.4347C42.5753 29.3995 42.7879 29.4049 42.9767 29.3895C43.6797 29.3505 44.0733 29.3281 44.126 29.3252C44.2257 29.331 44.6304 29.353 45.3106 29.3903C45.5041 29.4056 45.7368 29.4022 45.9626 29.4376ZM41.3684 28.0894C41.0734 28.1383 40.7529 28.171 40.4182 28.2443C40.0858 28.3288 39.7327 28.4191 39.3593 28.5145C37.8836 28.9331 36.1018 29.5906 34.2986 30.7814C32.4945 31.9542 30.6526 33.62 29.1253 35.8237C28.3975 36.9457 27.6861 38.1602 27.1805 39.5244C27.0527 39.8646 26.9161 40.2052 26.7933 40.5538C26.6954 40.9107 26.5973 41.2701 26.4981 41.6329L26.3495 42.1798C26.3021 42.3638 26.2796 42.5621 26.2438 42.7541C26.1794 43.1422 26.115 43.5331 26.0501 43.9268C25.9846 44.3226 25.9888 44.6683 25.9547 45.0454L25.9167 45.6027L25.8976 45.8828L25.8945 45.9728L25.8957 46.0098L25.8979 46.0842L25.9024 46.2338C25.9363 47.0294 25.9198 47.842 26.0617 48.6503C26.2298 50.2818 26.7155 51.9039 27.3459 53.4858C27.523 53.8744 27.701 54.2643 27.8794 54.6559C28.0632 55.0454 28.3004 55.4077 28.5111 55.7867L28.8387 56.3509L29.2148 56.8852C29.4728 57.2373 29.7132 57.6066 29.9912 57.9467C31.1008 59.3152 32.4331 60.5154 33.8954 61.5562C35.3783 62.5734 37.0294 63.3514 38.7574 63.9129L40.0757 64.2606L40.4065 64.3462L40.7559 64.4026L41.4557 64.5124L42.1567 64.6182C42.3974 64.6597 42.5859 64.6498 42.8035 64.6678L44.0659 64.7371C44.2212 64.74 44.1337 64.7366 44.1791 64.7369L44.222 64.7346L44.3072 64.7302L44.4777 64.7215L44.8189 64.7034L45.5007 64.6659C45.9569 64.6576 46.4063 64.5802 46.8559 64.5073L47.5304 64.4001L47.8669 64.3458L48.1973 64.2606L49.5159 63.9129C51.2436 63.3514 52.8952 62.5734 54.3776 61.5562C55.8403 60.5154 57.1726 59.3152 58.282 57.9467C58.5603 57.6066 58.8001 57.2373 59.0586 56.8852L59.4343 56.3509L59.7624 55.7867C59.9728 55.4077 60.2101 55.0454 60.3938 54.6559C60.5725 54.2643 60.7501 53.8744 60.9273 53.4858C61.5599 51.8897 62.0395 50.3135 62.2156 48.6186C62.3603 47.7537 62.3349 47.0319 62.3691 46.2724L62.374 46.1318L62.3762 46.0613L62.3774 46.026C62.3782 46.0264 62.3787 45.8991 62.3768 45.9352L62.3577 45.638L62.3183 45.0472C62.284 44.6553 62.2846 44.2626 62.2186 43.8802C61.8026 40.7994 60.6559 38.0328 59.1485 35.8237C57.6208 33.62 55.7791 31.9542 53.9746 30.7814C52.1711 29.5906 50.3896 28.9331 48.9141 28.5145C48.5407 28.4191 48.1876 28.3288 47.8551 28.2443C47.5182 28.1702 47.1877 28.1358 46.8876 28.0865C46.5858 28.0423 46.3068 28.0009 46.051 27.9635C45.796 27.9279 45.5844 27.9348 45.3842 27.9201C44.5946 27.883 44.1731 27.8628 44.1731 27.8628L44.1367 27.8621C44.1367 27.8621 43.6978 27.8823 42.8747 27.9214C42.6699 27.9363 42.4387 27.9302 42.1879 27.9662C41.9374 28.0035 41.6639 28.0446 41.3684 28.0894Z" fill="#824C20"/>
<path d="M55.8746 46.2909C55.8746 53.0137 50.4635 58.4834 43.8121 58.4834C37.1608 58.4834 31.7497 53.0137 31.7497 46.2909C31.7497 39.5679 37.1608 34.0983 43.8121 34.0983C50.4635 34.0983 55.8746 39.5679 55.8746 46.2909ZM30.5312 46.2909C30.5312 53.6929 36.4889 59.7148 43.8121 59.7148C51.1353 59.7148 57.0933 53.6929 57.0933 46.2909C57.0933 38.8887 51.1353 32.8665 43.8121 32.8665C36.4889 32.8665 30.5312 38.8887 30.5312 46.2909Z" fill="#824C20"/>
<path d="M51.0844 46.6173C51.0844 50.8506 47.6766 54.2947 43.4886 54.2947C39.3002 54.2947 35.8929 50.8506 35.8929 46.6173C35.8929 42.3838 39.3002 38.9397 43.4886 38.9397C47.6766 38.9397 51.0844 42.3838 51.0844 46.6173ZM34.7656 46.6173C34.7656 51.4786 38.6789 55.4336 43.4886 55.4336C48.2983 55.4336 52.2112 51.4786 52.2112 46.6173C52.2112 41.7555 48.2983 37.8004 43.4886 37.8004C38.6789 37.8004 34.7656 41.7555 34.7656 46.6173Z" fill="#824C20"/>
<path d="M42.9613 44.0481C43.0941 44.0515 43.1647 44.0537 43.1647 44.0537L43.125 44.0527C43.125 44.0527 43.2142 44.0628 43.3808 44.0818C43.419 44.0879 43.4777 44.0903 43.5123 44.1001C43.5458 44.1099 43.582 44.1201 43.6216 44.1311C43.6948 44.1457 43.7946 44.1791 43.9101 44.2242C44.1329 44.314 44.3965 44.4431 44.6444 44.659C44.8933 44.8713 45.1342 45.1513 45.3191 45.4909C45.5057 45.8301 45.6311 46.2231 45.6911 46.652C45.6978 46.7476 45.7045 46.8445 45.7114 46.9428C45.7074 47.0931 45.7082 47.2975 45.6911 47.3532C45.6879 47.4346 45.6646 47.5474 45.6383 47.6654C45.612 47.7794 45.5738 47.8923 45.5324 48.0045C45.4504 48.2314 45.3305 48.4486 45.188 48.6579C45.0376 48.8618 44.8582 49.048 44.6595 49.2227C44.455 49.39 44.222 49.5255 43.9716 49.6357C43.8436 49.6809 43.715 49.7343 43.5788 49.7613C43.5116 49.7787 43.4439 49.7985 43.3741 49.8043L43.2697 49.8196L43.2174 49.8273L43.191 49.8316L43.1778 49.8335L43.1714 49.8345C43.1867 49.8355 43.127 49.8343 43.2041 49.8368C42.7917 49.848 42.6218 49.8441 42.3127 49.7865C42.0327 49.7218 41.7559 49.6247 41.4982 49.4837C40.9802 49.2022 40.5676 48.7423 40.305 48.2256C40.1856 47.9621 40.0854 47.6896 40.0436 47.4095C40.0106 47.2712 40.0089 47.1302 39.9947 46.9916C39.9888 46.8986 40.0014 46.684 40.0124 46.5591C40.0653 46.0614 40.2854 45.549 40.5625 45.1874C40.8474 44.8183 41.1924 44.5638 41.5131 44.3945C41.8339 44.222 42.1388 44.1447 42.3848 44.0981C42.6322 44.0537 42.8284 44.0439 42.9613 44.0481ZM43.2041 42.4653L43.1647 42.4645C43.1647 42.4645 43.0567 42.4755 42.8539 42.4957C42.7531 42.5028 42.6297 42.5263 42.486 42.558C42.3412 42.5831 42.1789 42.629 42.0007 42.6924C41.6473 42.8183 41.2273 43.0096 40.8221 43.3308C40.4165 43.6463 40.0173 44.0728 39.7036 44.6066C39.3874 45.1486 39.1671 45.7569 39.0739 46.4953C39.0032 47.1462 39.062 47.9406 39.3601 48.6493C39.5011 49.0107 39.6991 49.3552 39.9368 49.6796C40.1823 49.9977 40.4745 50.2861 40.7991 50.546C41.13 50.7982 41.5037 51.0012 41.9026 51.1568C42.2778 51.3057 42.8222 51.3954 43.125 51.4237L43.4913 51.4287C43.6008 51.433 43.7098 51.4221 43.8191 51.4113C44.039 51.3986 44.2548 51.3525 44.4721 51.3078C44.9001 51.1976 45.3174 51.0329 45.702 50.8072C46.4727 50.3559 47.081 49.6564 47.4612 48.8702C47.5518 48.6718 47.6324 48.4686 47.6951 48.2627C47.7553 48.0592 47.8123 47.8518 47.8455 47.6078C47.8913 47.3427 47.8896 47.2228 47.9052 47.0548L47.9077 47.0252L47.909 47.0102L47.9106 46.9375L47.9082 46.8603L47.9012 46.7067C47.8948 46.6044 47.8951 46.5029 47.881 46.4024C47.7957 45.5949 47.4798 44.8674 47.0738 44.3033C46.6595 43.7398 46.1564 43.3389 45.6787 43.0661C45.2009 42.789 44.7397 42.649 44.3633 42.5662C44.0154 42.4867 43.5988 42.4553 43.4621 42.4618C43.294 42.464 43.2041 42.4653 43.2041 42.4653Z" fill="#824C20"/>
<path d="M73.8501 75.2491L71.1542 73.433L69.0689 72.0282L68.8263 71.8648L68.0536 69.9555L67.1975 67.8391L66.46 66.0162L66.3319 65.6995L66.3064 65.6366L66.2712 65.607L64.8921 64.4379L62.7285 62.6038L62.4492 62.3674L62.7058 62.6287L64.6901 64.6519L65.9138 65.8993L66.0689 66.4128L66.6557 68.3556L67.3322 70.5942L67.8807 72.4094L67.9218 72.5465L68.0707 72.6669L68.2014 72.7718L70.1449 74.3289L72.6598 76.3441L73.6811 77.1626L74.2097 77.5859L74.9912 76.0176L74.5875 75.7454L73.8501 75.2491Z" fill="black"/>
<path d="M4.19642 48.0972L7.26101 46.3831L9.28647 45.2501L9.49402 45.3323L11.7368 46.2194L13.4068 46.8803L14.1011 47.155L14.2807 47.2257L14.3781 47.0857L15.4583 45.5319L17.3868 42.7589L15.4512 45.0806L14.1405 46.6527L13.3726 46.2414L11.7155 45.354L9.48866 44.1615L9.47189 44.1525L9.26299 44.0408L8.99977 44.1627L7.23334 45.1757L4.12702 46.9564L2.90044 47.6598L2.89893 47.6646L2.51953 49.0352L4.19642 48.0972Z" fill="black"/>
<path d="M35.974 4.19602L36.3176 7.39252L36.5362 9.42472L36.7808 11.6986L36.9969 13.7084L37.2725 16.2734L37.5503 18.8549L37.7562 20.7683L38.093 23.9016L38.1727 24.6406L38.1236 23.8921L37.917 20.7264L37.7904 18.7854L37.6202 16.1792L37.4509 13.5898L37.3185 11.5578L37.1687 9.26643L37.0351 7.22083L36.8251 4.00462L36.7882 3.44003L36.7852 3.44032L35.9062 3.56642L35.908 3.58183L35.974 4.19602Z" fill="black"/>
<path d="M85.2766 31.8583L84.7998 32.0543L81.871 33.2587L79.8529 34.0885L77.7815 34.9404L75.6406 35.8207L73.5576 36.6772L71.6523 37.4609L73.5997 36.819L75.7239 36.1188L77.9123 35.3973L80.0278 34.6998L82.0992 34.017L85.0984 33.028L85.343 32.9475L85.9112 32.7603L86.0562 31.5378L85.2766 31.8583Z" fill="black"/>
<path d="M29.0822 79.7945L30.0506 77.4966L30.3299 76.8342L29.9882 77.4657L28.8012 79.6591L27.287 82.4574L26.2656 84.3445C26.5334 84.4333 26.7801 84.5678 26.9984 84.7383L27.8456 82.7285L29.0822 79.7945Z" fill="black"/>
</g>
<defs>
<clipPath id="clip0_394_16138">
<rect width="90" height="90" fill="white" transform="matrix(0 -1 1 0 0 90)"/>
</clipPath>
</defs>
</svg>
