<svg width="90" height="90" viewBox="0 0 90 90" fill="none" xmlns="http://www.w3.org/2000/svg">
<g clip-path="url(#clip0_394_19790)">
<mask id="mask0_394_19790" style="mask-type:luminance" maskUnits="userSpaceOnUse" x="0" y="0" width="90" height="90">
<path d="M0 0L0 90H90V0H0Z" fill="white"/>
</mask>
<g mask="url(#mask0_394_19790)">
<path d="M89.06 47.4521C89.06 51.6801 88.3954 55.8081 87.0849 59.7322C85.0309 65.8834 81.8617 70.2226 80.1569 72.2606C76.7436 76.3293 73.2552 78.6675 70.9496 80.2201C64.3821 84.6334 58.3027 86.6085 55.2649 87.3903C52.0319 88.2241 45.3067 89.9583 36.8429 88.5168C31.6159 87.6275 27.8384 85.8896 25.3413 84.7372C21.6689 83.0475 17.5083 81.1317 13.4379 77.1445C8.60147 72.4052 6.66764 67.4694 4.96287 63.1117C3.40829 59.143 2.3982 55.1188 1.87625 50.8093C1.6885 49.2604 1.59087 47.9005 1.51953 46.9074C1.41063 45.3325 1.27545 44.1171 1.17031 43.1389C1.03889 41.9531 0.9375 41.0193 0.9375 40.0521C0.9375 38.0956 1.36182 36.0798 2.68358 31.7517C2.98022 30.7846 3.34821 29.5988 3.87016 28.3167V27.5719H4.19309C5.04172 25.6858 6.08186 24.0294 7.37358 22.5287C8.12458 21.6542 8.65779 21.1873 9.22104 20.6907C9.79932 20.1831 10.4527 19.6087 11.5191 18.4341C13.1676 16.6258 14.0049 15.3696 14.8949 14.043C15.4318 13.2389 15.9876 12.4089 16.7311 11.4491C19.1117 8.3772 21.8679 5.7982 24.4889 4.1863C28.7358 1.5776 32.7349 1.4108 40.6993 1.0848C46.4932 0.843901 50.6651 0.673398 56.0422 2.2335C59.786 3.3192 62.6848 4.8533 65.3359 6.3318L66.759 7.1322C69.5152 8.6922 72.3652 10.3041 75.5645 13.1796C79.1956 16.4479 81.351 19.5865 82.1095 20.7834C82.5864 21.5319 84.0358 23.8108 85.4252 27.7905C85.9058 29.1653 86.3414 30.6364 86.7281 32.1668C87.712 36.0687 89.06 41.4047 89.06 47.4521Z" fill="#F5E600"/>
<path d="M1.8775 40.0531C1.8775 38.23 2.26802 36.329 3.58228 32.0195C3.90521 30.9708 4.27695 29.7739 4.81016 28.4992C4.81016 28.4992 4.81016 28.4955 4.81392 28.4955C5.52737 26.7873 6.52996 24.9419 8.08828 23.1262C9.54898 21.4254 10.0784 21.4031 12.2188 19.0501C14.9337 16.0672 15.5532 14.4923 17.4758 12.0096C18.1104 11.1907 21.0618 7.3814 24.9858 4.9691C29.0262 2.4864 32.9352 2.3271 40.7568 2.0047C46.4907 1.7675 50.5499 1.6008 55.7769 3.1163C59.2953 4.1354 61.9989 5.5286 64.8715 7.1331C65.3371 7.3962 65.8102 7.663 66.2909 7.9335C69.1597 9.5566 71.8633 11.1055 74.9274 13.8624C78.7312 17.2863 80.8528 20.5509 81.3109 21.2735C82.0995 22.5111 83.3274 24.627 84.5365 28.0916C84.9721 29.3404 85.4076 30.767 85.8169 32.3901C86.8195 36.3587 88.1187 41.5131 88.1187 47.453C88.1187 51.1734 87.6081 55.2013 86.1924 59.4404C83.977 66.0733 80.4811 70.4162 79.4334 71.6687C76.1853 75.541 72.9448 77.7569 70.4214 79.4503C63.2155 84.2935 56.6217 86.0795 55.0259 86.4908C51.5638 87.3839 45.1014 88.981 37.0018 87.6025C32.0114 86.7539 28.3766 85.1124 25.7368 83.897C22.1621 82.2517 18.0541 80.3619 14.0963 76.4859C9.40254 71.8873 7.49499 67.0146 5.83528 62.7754C3.99533 58.0731 3.19927 53.9192 2.80875 50.6991C2.62475 49.1983 2.53087 47.8977 2.45577 46.8416C2.21545 43.3881 1.8775 41.7502 1.8775 40.0531ZM0 40.0531C0 41.0684 0.10514 42.0244 0.236565 43.2399C0.349216 44.2589 0.473131 45.415 0.582026 46.9713C0.653371 47.9755 0.751001 49.3503 0.942507 50.9251C1.47572 55.3125 2.50083 59.4071 4.08169 63.4461C5.73765 67.6704 7.79539 72.9286 12.7708 77.8051C16.9614 81.9071 21.381 83.9414 24.937 85.5793C27.4867 86.7539 31.3318 88.5252 36.6789 89.433C45.3417 90.9078 52.2021 89.1366 55.4952 88.288C58.5931 87.4913 64.7889 85.4792 71.4728 80.9881C73.8234 79.4096 77.3757 77.0269 80.8753 72.8582C82.6252 70.7683 85.8695 66.3253 87.9723 60.0296C89.3128 56.0165 89.9925 51.7848 89.9925 47.4605C89.9925 41.2982 88.6294 35.8992 87.6344 31.9565C87.2401 30.3965 86.7932 28.8957 86.3051 27.4988C85.3475 24.7492 84.2286 22.3962 82.8955 20.2989C82.1182 19.0724 79.9028 15.8486 76.1891 12.5062C72.9147 9.5603 70.0196 7.9224 67.2221 6.3402C66.7377 6.0697 66.2684 5.8029 65.8027 5.5398C63.0991 4.0279 60.1439 2.4642 56.3026 1.3525C50.7752 -0.251999 46.5396 -0.0740977 40.6742 0.166702C32.785 0.492802 28.4479 0.670703 23.9907 3.4091C21.2346 5.1025 18.4634 7.6927 15.9813 10.898C15.219 11.8836 14.652 12.7285 14.1076 13.5437C13.2402 14.8406 12.4178 16.0672 10.8182 17.8273C9.78555 18.9649 9.17724 19.4948 8.59146 20.0099C8.00192 20.5286 7.44242 21.0178 6.65012 21.9405C5.42974 23.3634 4.41964 24.9123 3.58603 26.6539H2.93642L2.93266 28.1472C2.42949 29.3997 2.07652 30.5521 1.78363 31.4896C0.435581 35.9103 0 37.9928 0 40.0531Z" fill="#3C2415"/>
<path d="M84.5363 28.0987C84.9719 29.3475 85.4075 30.7741 85.8168 32.3972C87.4464 38.8559 89.8684 48.4458 86.1923 59.4476C83.9768 66.0805 80.4809 70.4233 79.4333 71.6758C76.1852 75.5481 72.9446 77.764 70.4212 79.4574C63.2154 84.3006 56.6216 86.0866 55.0257 86.4979C51.5636 87.391 45.1012 88.9881 37.0017 87.6096C32.0113 86.761 28.3764 85.1195 25.7367 83.9041C22.1619 82.2588 18.0539 80.369 14.0961 76.493C9.40239 71.8944 7.49484 67.0217 5.83513 62.7825C3.99518 58.0802 3.19911 53.9263 2.80859 50.7062C2.87994 51.0175 6.33455 65.8062 17.8512 71.3053C29.4917 76.8636 53.8992 86.8685 68.1682 73.158C82.4373 59.4476 86.6354 51.9624 84.5363 28.0987Z" fill="#C8B100"/>
<path d="M67.1436 67.6269C68.6118 67.4713 69.8584 66.5042 71.2553 64.7329C72.6597 62.9543 75.5923 58.6336 74.432 57.459C73.7261 56.7438 71.8486 57.5553 71.7022 57.6183C71.3942 57.7554 70.6395 58.1334 68.608 61.1163C68.5142 61.2534 67.7181 62.4281 66.7756 64.1289C65.4726 66.4819 65.4576 67.0081 65.6754 67.3046C66.0021 67.7455 66.8319 67.6603 67.1436 67.6269Z" fill="#C8B100"/>
<path d="M59.3784 73.0955C60.028 73.2919 60.7302 73.1029 61.6464 72.6027C62.5664 72.0987 64.5941 70.7907 64.3162 70.0903C64.1472 69.6605 63.2047 69.6716 63.1334 69.6753C62.9794 69.679 62.5889 69.705 61.1883 70.6054C61.1245 70.6462 60.5725 71.0019 59.8628 71.554C58.8827 72.3174 58.7813 72.5397 58.8189 72.7028C58.8714 72.9473 59.2394 73.0548 59.3784 73.0955Z" fill="#C8B100"/>
<path d="M55.7755 3.1208C59.2939 4.1398 61.9975 5.5331 64.8701 7.1376L31.6533 8.5828C31.6533 8.5828 19.3782 21.3409 15.1951 21.956C10.2009 22.4377 5.01152 28.274 4.8125 28.5C5.52595 26.7917 6.52854 24.9464 8.08687 23.1307C9.54756 21.4298 10.077 21.4076 12.2174 19.0546C14.9322 16.0716 15.5518 14.4968 17.4744 12.0141C18.109 11.1952 21.0604 7.3859 24.9844 4.9736C29.0248 2.4909 32.9337 2.3315 40.7554 2.0091C46.4893 1.772 50.5485 1.6052 55.7755 3.1208Z" fill="#C8B100"/>
<path d="M41.6669 32.0156L65.8716 30.8558L64.5724 16.9934H37.5664L41.6669 32.0156Z" fill="#262262"/>
<path d="M14.7404 29.0158L20.2903 35.1929L18.7883 38.8984L14.7404 38.639L13.5312 32.9696L14.2522 29.0158H14.7404Z" fill="#F5E600"/>
<path d="M42.5778 14.2771C40.291 13.888 37.9892 13.6657 35.6874 14.14C34.0201 14.4846 32.413 14.9848 31.14 16.1965C30.9936 16.3337 30.8359 16.4596 30.6857 16.593C30.5355 16.7301 30.3778 16.8561 30.2163 16.971L28.8119 19.6649C28.5829 20.4134 28.3764 21.0841 28.1473 21.8327C27.0696 21.3509 26.0332 20.884 24.9969 20.4171C24.9969 20.4171 23.3033 19.9688 21.4559 19.8724C17.6896 19.7539 16.0562 21.2027 16.0111 21.2435L16.3716 19.8094C16.4054 19.5538 16.4505 19.3425 16.4542 19.135C16.458 18.8979 16.3641 18.7015 16.1163 18.6089C15.6882 18.4458 15.1437 18.5681 14.8771 18.9312C14.6255 19.2721 14.3852 19.6242 14.1899 19.9984C13.7018 20.9285 13.499 21.9438 13.3113 22.9666C13.0785 24.245 12.9433 25.5567 12.3838 26.7499L11.5352 37.8665C12.4777 38.263 13.4014 38.615 14.2951 39.0338C15.0236 39.3747 15.4516 39.9453 15.508 40.7828C15.6206 42.4465 15.8159 44.1066 15.8797 45.7704C15.9661 48.053 15.8008 50.3319 15.2601 52.5589C14.986 53.6965 14.5579 54.8045 14.1975 55.9236C14.1862 55.9606 14.1524 55.994 14.0735 56.1051L14.5467 56.9648C14.6819 57.1056 14.7682 57.176 14.8358 57.265C15.324 57.932 15.8647 58.573 16.274 59.2808C16.7058 60.0293 17.0212 60.8482 17.3779 61.6412C17.8285 62.638 18.2791 63.6348 19.0189 64.4648C19.0339 64.4834 19.0452 64.5019 19.0639 64.5167C19.7511 65.0466 20.1792 65.7803 20.6673 66.4695C21.5122 67.6553 22.6049 68.6039 23.7126 69.5414C24.5913 70.2862 25.4775 71.0273 26.4162 71.8203C26.2585 71.4646 26.1234 71.1718 26.0032 70.8717C25.4775 69.5748 25.2109 68.2296 25.2522 66.829C25.256 66.6807 25.1583 66.488 25.0457 66.3806C23.8929 65.3134 22.7213 64.2721 21.5685 63.2087C19.4207 61.2188 17.9975 58.7954 17.0963 56.0384C16.7847 55.0861 16.3791 54.1671 16.0186 53.2334C15.9999 53.1852 15.9886 53.1333 15.9548 53.0258C16.6007 53.1259 17.2052 53.2148 17.8511 53.3149C17.7272 52.7628 17.577 52.2625 17.5094 51.7474C17.2803 50.0058 17.0625 48.2605 16.8785 46.5152C16.7621 45.4073 16.6758 44.2956 16.642 43.1877C16.5856 41.3979 16.0449 39.7341 15.3728 38.1C14.8546 36.8327 14.2726 35.5691 14.1486 34.1943C14.066 33.2605 14.1524 32.3119 14.1899 31.3744C14.205 30.9594 14.2876 30.5481 14.3401 30.1331C14.3739 30.1182 14.404 30.0997 14.4378 30.0849C14.7344 30.3628 15.0574 30.6148 15.3202 30.9223C16.3716 32.1563 17.3141 33.4903 18.4594 34.6353C20.3294 36.4992 22.6237 37.4589 25.3423 37.1588C26.5627 37.0254 27.6854 36.6029 28.7068 35.9359C29.5367 35.3949 29.9272 34.5686 30.0811 33.6459C30.2276 32.7677 30.2877 31.8784 30.3853 30.9964C30.4003 30.8742 30.4153 30.7556 30.4379 30.5703C30.6857 30.6852 30.9072 30.7741 31.1175 30.8853C32.5632 31.656 33.5395 32.8603 34.298 34.2536C35.4771 36.4251 36.1117 38.741 36.2581 41.2052C36.352 42.7467 36.5773 44.2808 36.75 45.8149C36.7726 46.0076 36.8364 46.1965 36.9566 46.4078C37.0204 46.2744 37.118 46.1484 37.1443 46.0076C37.2607 45.4221 37.4672 44.8255 37.4372 44.2437C37.3396 42.2353 37.4184 40.2047 36.9002 38.2371C36.5059 36.74 36.0291 35.2689 35.586 33.7867C35.5484 33.6607 35.5146 33.5347 35.4545 33.3346C35.8225 33.5199 36.1267 33.6793 36.4346 33.8238C37.2795 34.224 38.1206 34.6205 38.9692 35.0132C40.4374 35.7025 41.947 35.6543 43.4565 35.1911C44.4478 34.8873 45.4016 34.4834 46.3891 34.1721C48.4882 33.5125 50.6623 33.3013 52.8477 33.1382C55.0782 32.9678 57.2636 33.1605 59.4115 33.7497C61.8973 34.4315 64.4244 34.5797 66.9853 34.4204C67.819 34.3685 68.6526 34.3611 69.4862 34.3351C69.5725 34.3314 69.6627 34.3462 69.8091 34.3537C69.3698 34.9169 68.9567 35.4357 68.5512 35.9619C67.1318 37.8109 65.7912 39.7193 65.0027 41.9241C64.6385 42.9468 64.4019 44.0214 64.2029 45.0886C64.0114 46.0965 64.4207 47.0303 64.8525 47.9641C64.9351 47.5713 65.029 47.1822 65.0966 46.7894C65.2843 45.7259 65.4458 44.6587 65.641 43.599C65.9264 42.0612 66.7187 40.7272 67.481 39.3895C68.4611 37.6738 69.5951 36.0767 71.1046 34.7613C71.9607 34.0202 72.8995 33.405 73.9621 33.0086C74.6043 32.7714 75.2989 32.6565 76.0199 32.4712L77.0563 29.7625C77.6608 28.1802 78.1002 26.5646 78.0851 24.8564C78.0814 24.6489 78.0776 24.4377 78.0739 24.2005C78.0739 24.2005 78.0438 20.0058 76.3203 17.4379C75.4754 16.4189 74.5029 15.5184 73.3501 14.7736C72.0208 13.9139 70.5826 13.2766 68.9717 13.2544C66.8201 13.221 64.6647 13.2321 62.5169 13.3248C60.5342 13.41 58.5591 13.6212 56.5802 13.7842C55.7616 13.8509 54.9243 13.8695 54.132 14.0547C53.2833 14.2511 52.461 14.5846 51.6499 14.9181C50.4558 15.4073 49.258 15.5518 47.9813 15.2887C46.1976 14.9107 44.3877 14.5846 42.5778 14.2771ZM28.6392 32.6417C28.4289 34.0165 27.6366 34.8428 26.39 35.3097C25.0682 35.8062 23.7502 35.7803 22.4472 35.1837C20.1153 34.1128 18.2942 32.5083 17.0475 30.2776C16.6382 29.5476 16.4392 28.7694 16.488 27.9394C16.5406 26.9982 16.6307 26.0607 16.7096 25.0194C16.9048 25.2195 17.0325 25.3492 17.1602 25.4826C17.9487 26.2978 18.7748 27.0649 19.7699 27.6392C20.0402 27.7949 20.2167 27.7838 20.4345 27.5577C21.1743 26.7981 21.6699 25.9421 21.5836 24.849C21.5047 23.8781 21.009 23.2704 20.0365 23.0851C19.4357 22.9703 18.8086 22.9999 18.189 22.9777C18.0163 22.9703 17.8398 23.0073 17.5619 23.0333C18.0276 22.4811 18.5195 22.1476 19.0827 21.9179C19.9576 21.5585 20.8701 21.4918 21.8051 21.5696C23.0856 21.677 24.321 21.9772 25.5 22.4589C25.9694 22.6516 26.405 22.9517 26.8105 23.263C27.2311 23.5817 27.4789 24.0412 27.5916 24.5599C27.8657 25.8198 28.1285 27.0834 28.4026 28.3433C28.7181 29.7625 28.8645 31.178 28.6392 32.6417ZM50.4858 16.9414C51.7062 16.8006 52.8553 16.4004 53.9968 15.9853C55.5739 15.411 57.181 15.0552 58.8708 14.9626C60.4216 14.8774 61.9649 14.6588 63.5157 14.5031C66.0278 14.2511 68.4535 14.5513 70.7929 15.5518C73.0835 16.5338 74.7094 18.1234 75.6444 20.406C76.5043 22.5108 76.7146 24.6674 76.1889 26.8833C75.5205 29.6884 73.7631 31.4782 70.9581 32.2193C69.7978 32.5268 68.6 32.6936 67.4172 32.9233C67.4134 32.8863 67.4097 32.8455 67.4021 32.8085C64.7286 33.2235 62.1489 32.7121 59.5654 32.134C58.2287 31.8339 56.8769 31.5486 55.5176 31.3892C53.8203 31.1928 52.1193 31.4226 50.4295 31.6375C49.3894 31.7709 48.3417 31.8635 47.3204 32.0785C46.5881 32.2304 45.886 32.5417 45.1838 32.8159C43.9784 33.2865 42.7655 33.4199 41.4738 33.1901C38.9767 32.7418 36.5397 32.1415 34.2755 30.9705C32.8861 30.2516 31.662 29.3215 30.5918 28.1802C29.8859 27.428 29.5216 26.5646 29.3789 25.5641C28.827 21.7289 31.3428 17.5231 35.0002 16.3299C36.9941 15.6778 39.0706 15.5296 41.1509 15.8297C42.9683 16.0891 44.7707 16.4374 46.5844 16.7227C47.8761 16.9191 49.1716 17.0933 50.4858 16.9414Z" fill="#3C2415"/>
<path d="M41.1526 15.8188C39.0686 15.5186 36.9958 15.6706 35.0019 16.319C31.3445 17.5122 28.8287 21.718 29.3806 25.5532C29.5233 26.5537 29.8876 27.4171 30.5935 28.1693C31.6637 29.3106 32.8878 30.237 34.2772 30.9596C36.5377 32.1306 38.9784 32.7308 41.4755 33.1792C42.7672 33.409 43.9801 33.2756 45.1855 32.805C45.8877 32.5307 46.5898 32.2232 47.3221 32.0676C48.3434 31.8526 49.3911 31.76 50.4312 31.6266C52.121 31.4117 53.822 31.1819 55.5192 31.3783C56.8786 31.5377 58.2304 31.823 59.5671 32.1231C62.1506 32.7012 64.734 33.2126 67.4038 32.7975C67.4076 32.8383 67.4113 32.8754 67.4189 32.9124C68.5979 32.6827 69.7995 32.5159 70.9598 32.2084C73.7648 31.4673 75.5259 29.6775 76.1906 26.8724C76.7163 24.6565 76.5097 22.4999 75.6461 20.3951C74.7111 18.1125 73.0852 16.5228 70.7946 15.5409C68.4552 14.5404 66.0295 14.2439 63.5174 14.4922C61.9703 14.6478 60.427 14.8665 58.8725 14.9517C57.1865 15.0443 55.5756 15.4001 53.9985 15.9744C52.8569 16.3894 51.7079 16.7896 50.4875 16.9305C49.1733 17.0824 47.8778 16.9082 46.5861 16.7044C44.7724 16.4265 42.9663 16.0782 41.1526 15.8188ZM44.3594 17.4678C45.8839 17.868 47.4047 18.2793 48.9405 18.6461C50.2848 18.9685 51.6403 18.9944 53.0334 18.9018C54.9147 18.7758 56.6119 18.1348 58.313 17.4455C59.7436 16.8675 61.2344 16.7415 62.7589 16.8119C65.2935 16.9267 67.693 17.5011 69.9648 18.6572C71.5719 19.4762 72.4093 20.762 72.7172 22.4591C73.1603 24.9122 72.0112 27.5765 69.9497 28.8845C69.1462 29.3959 68.2337 29.6182 67.3175 29.7998C66.4125 29.9776 65.4963 30.1036 64.5838 30.2518C62.083 30.426 59.5972 30.2667 57.1151 30.0518C55.5305 29.9184 53.9459 29.7071 52.365 29.7257C50.6565 29.7442 48.948 29.9628 47.247 30.1481C45.1855 30.3741 43.1277 30.6632 41.0437 30.5446C38.6292 30.4075 36.3912 29.7405 34.4086 28.3361C33.1094 27.4171 32.287 26.2239 32.1931 24.6157C32.0918 22.8927 32.5386 21.3474 33.8191 20.1135C34.0669 19.8764 34.3485 19.6429 34.6602 19.5058C36.3537 18.7536 38.0472 17.9828 39.8496 17.5085C41.3478 17.1157 42.8498 17.0713 44.3594 17.4678Z" fill="#BE1E2D"/>
<path d="M17.5654 23.0272C18.031 22.4751 18.5229 22.1416 19.0862 21.9118C19.9611 21.5524 20.8736 21.4857 21.8086 21.5635C23.089 21.671 24.3244 21.9711 25.5035 22.4528C25.9729 22.6455 26.4084 22.9457 26.814 23.2569C27.2345 23.5756 27.4824 24.0351 27.595 24.5539C27.8654 25.8138 28.132 27.0773 28.4061 28.3372C28.7178 29.7602 28.8642 31.1757 28.6389 32.6394C28.4286 34.0141 27.6363 34.8404 26.3897 35.3073C25.0679 35.8039 23.7499 35.7779 22.4469 35.1814C20.1151 34.1105 18.2939 32.506 17.0472 30.2752C16.6379 29.5452 16.4389 28.7671 16.4877 27.937C16.5403 26.9958 16.6304 26.0583 16.7093 25.0171C16.9045 25.2172 17.0322 25.3469 17.1599 25.4803C17.9484 26.2955 18.7745 27.0625 19.7696 27.6369C20.04 27.7925 20.2164 27.7814 20.4342 27.5554C21.174 26.7957 21.6696 25.9398 21.5833 24.8466C21.5044 23.8758 21.0087 23.2681 20.0362 23.0828C19.4354 22.9679 18.8083 22.9976 18.1887 22.9753C18.016 22.9679 17.8395 23.0013 17.5654 23.0272Z" fill="white"/>
<path d="M16.9258 37.3847C16.9446 38.0146 16.9183 38.652 16.9934 39.2782C17.106 40.2157 17.3351 41.1421 17.429 42.0796C17.5416 43.195 17.5604 44.3215 17.6317 45.4405C17.7631 47.4786 18.2363 49.461 18.6268 51.4583C18.792 52.2958 18.9047 53.1443 19.0023 53.9929C19.0962 54.8192 19.0849 55.6604 19.2088 56.483C19.3816 57.6466 19.7796 58.7471 20.6432 59.592C21.7359 60.6554 22.9188 61.6189 24.2818 62.3415C25.1305 62.7898 26.0317 63.1048 27.0005 63.0196C27.6276 62.964 28.2058 63.0455 28.7766 63.2716C28.9531 63.342 29.1333 63.4198 29.3211 63.4531C29.7641 63.5272 29.9256 63.7792 29.9331 64.2128C29.9481 64.7278 30.0232 65.2429 30.0721 65.7654C30.1659 65.758 30.2035 65.7617 30.2335 65.7506C30.4701 65.6468 30.7067 65.543 30.9432 65.4393C31.3826 65.2466 31.3788 65.2503 31.6079 65.6468C32.0847 66.4731 32.633 67.2439 33.3502 67.8886C33.4516 67.9813 33.5642 68.0554 33.6731 68.1406C33.7032 68.1221 33.7332 68.1036 33.767 68.0813C33.3051 66.3434 32.8395 64.6018 32.3513 62.7676C33.8083 63.505 35.1714 64.2128 36.7447 64.3943C36.3204 63.9311 35.8473 63.5235 35.4192 63.0715C34.9723 62.5934 34.4955 62.1154 34.1688 61.5596C33.8158 60.963 33.6881 60.2849 34.2364 59.6698C34.3453 59.5475 34.4166 59.3882 34.4992 59.2436C35.7233 57.0796 36.0726 54.7525 35.8548 52.3106C35.7346 50.9395 35.3103 49.7315 34.3603 48.6829C32.9334 47.108 31.3037 45.9148 29.1296 45.6147C27.2746 45.3627 25.4985 45.7073 23.7636 46.3595C22.4006 46.8709 21.1314 47.486 20.4592 48.8756C20.4179 48.9645 20.3503 49.0497 20.2715 49.109C20.0387 49.298 19.8134 49.5055 19.5505 49.6463C19.16 49.8501 19.0962 49.7945 18.9723 49.3758C18.5179 47.8602 18.3865 46.2965 18.2813 44.7291C18.1612 42.9541 18.1124 41.1718 17.6956 39.4302C17.5303 38.7335 17.2863 38.0517 17.076 37.3625C17.0272 37.3588 16.9784 37.3736 16.9258 37.3847ZM22.4945 48.8422C23.4895 48.1196 24.6273 47.7454 25.8214 47.5156C26.3621 47.4119 26.9141 47.3415 27.4586 47.2562C31.499 46.5522 34.6306 50.506 34.2364 54.0744C34.0711 55.5603 33.8646 57.0351 33.2563 58.4173C32.618 59.8699 31.6529 61.0075 30.0458 61.4373C28.8104 61.7671 27.5637 61.693 26.3358 61.3484C24.3269 60.7851 22.731 59.6587 21.5933 57.9134C21.1802 57.2797 21.015 56.5608 20.876 55.842C20.493 53.8558 20.6432 51.9252 21.4844 50.0576C21.7097 49.5537 22.0476 49.1646 22.4945 48.8422Z" fill="#3C2415"/>
<path d="M37.7852 36.4803C38.4573 37.051 38.9041 37.6698 39.2759 38.3442C39.8542 39.3892 40.1809 40.5231 40.4099 41.6829C40.6352 42.8168 40.8154 43.9581 41.022 45.0957C41.052 45.2661 41.1008 45.4366 41.2022 45.5996C41.9983 42.487 41.405 39.467 40.5751 36.4285C41.0708 36.9065 41.5815 37.3734 42.0584 37.8699C42.5165 38.3442 42.6629 38.9519 42.7267 39.5819C42.9333 41.631 42.8281 43.6691 42.4489 45.6886C42.3175 46.3889 42.141 47.0782 42.0058 47.7748C41.9344 48.1454 41.6979 48.3047 41.3599 48.3454C40.823 48.4047 40.2822 48.4418 39.7453 48.49C39.5087 48.5122 39.535 48.364 39.535 48.212C39.5162 47.2004 39.5838 46.1814 39.4486 45.1846C39.2308 43.5431 38.9042 41.9163 38.585 40.2933C38.3597 39.1372 38.078 37.9922 37.8227 36.8435C37.8002 36.7545 37.8002 36.6693 37.7852 36.4803Z" fill="#3C2415"/>
<path d="M58.4706 48.4997C57.9599 47.9661 57.6971 47.3881 57.5243 46.7692C57.3516 46.1541 57.2164 45.5316 57.0437 44.8164C56.732 45.3797 56.6757 45.8984 56.6419 46.4098C56.5931 47.1398 56.6006 47.8735 56.5631 48.6072C56.5293 49.2779 56.3978 49.9226 55.951 50.5859C55.8121 50.0412 55.6581 49.5817 55.5755 49.1111C55.0798 46.2097 55.921 43.6121 57.5018 41.1998C58.5269 39.6361 59.8111 38.3021 61.3019 37.1608C61.377 37.1015 61.4633 37.0533 61.6211 37.0385C61.3657 37.7537 61.1479 38.4911 60.84 39.184C60.3293 40.3327 59.7961 41.4777 59.2028 42.5894C58.6358 43.6566 58.403 44.7794 58.418 45.9614C58.4255 46.7062 58.4668 47.4511 58.4894 48.1922C58.4931 48.27 58.4819 48.3404 58.4706 48.4997Z" fill="#3C2415"/>
<path d="M65.8475 35.1478C65.9376 36.0668 65.686 36.8338 65.258 37.5379C64.8862 38.1456 64.4844 38.7422 64.0263 39.2869C62.5619 41.0248 61.4729 42.9331 61.0636 45.1898C60.9622 45.7493 60.7182 46.2866 60.5229 46.8906C59.8845 45.4862 59.9972 43.4815 60.7782 42.0141C62.0775 39.5796 63.6583 37.3452 65.6034 35.3664C65.6635 35.3034 65.7311 35.2515 65.8475 35.1478Z" fill="#3C2415"/>
<path d="M44.6612 48.2578C44.6687 47.7131 44.6724 47.2499 44.6837 46.7904C44.7776 43.3739 44.6236 39.9685 44.2594 36.5706C44.2444 36.4186 44.2594 36.1407 44.3157 36.1259C44.5448 36.0592 44.8001 36.0666 45.0442 36.0703C45.078 36.0703 45.1305 36.2148 45.138 36.2964C45.4009 39.0755 45.6675 41.8547 45.9153 44.6338C45.9641 45.197 45.9454 45.7677 45.9491 46.3346C45.9491 46.4643 45.9304 46.6051 45.8853 46.7274C45.6562 47.3388 45.1944 47.7687 44.6612 48.2578Z" fill="#3C2415"/>
<path d="M48.9369 18.6521C47.4048 18.2853 45.8803 17.8703 44.3558 17.4738C42.8463 17.0773 41.3443 17.1217 39.8423 17.5145C38.0361 17.9888 36.3464 18.7596 34.6528 19.5118C34.3412 19.6489 34.0596 19.8824 33.8117 20.1195C32.5275 21.3572 32.0844 22.9024 32.1858 24.6217C32.2797 26.2262 33.102 27.4194 34.4013 28.3421C36.3877 29.7465 38.6219 30.4135 41.0364 30.5506C43.1204 30.6692 45.1781 30.3801 47.2396 30.1541C48.9406 29.9688 50.6492 29.7539 52.3577 29.7317C53.9386 29.7131 55.5269 29.9206 57.1078 30.0578C59.5936 30.269 62.0757 30.4283 64.5765 30.2578C65.489 30.1096 66.4052 29.9836 67.3101 29.8058C68.2264 29.6242 69.1388 29.4019 69.9424 28.8905C72.0039 27.5825 73.1492 24.9182 72.7098 22.4651C72.4019 20.7643 71.5646 19.4785 69.9574 18.6632C67.6856 17.5071 65.2862 16.9328 62.7516 16.8179C61.227 16.7512 59.7363 16.8735 58.3056 17.4515C56.6046 18.1371 54.9111 18.7818 53.0261 18.9078C51.6367 19.0004 50.2812 18.9745 48.9369 18.6521ZM37.7395 20.1232C38.4604 19.7156 39.095 19.3599 39.7672 18.9819C39.8836 19.5637 39.9925 20.0936 40.1164 20.7087C39.3128 20.5086 38.5768 20.3307 37.7395 20.1232ZM34.4088 26.1299C34.2811 26.0706 34.1459 25.9335 34.1009 25.8038C33.6615 24.4624 33.6953 23.1506 34.4275 21.9093C34.9157 21.0829 35.6742 20.6494 36.643 20.5827C36.6993 20.579 36.7556 20.5827 36.812 20.5864C36.8307 20.5864 36.8495 20.6049 36.8983 20.6346C36.3801 22.7097 36.2224 24.8255 36.5116 27.0822C35.7531 26.7413 35.0734 26.4486 34.4088 26.1299ZM40.0788 21.6536L40.2253 23.2136C39.2002 23.0432 38.2051 22.8801 37.21 22.7171C37.2062 22.6837 37.1987 22.6467 37.195 22.6133C38.1412 22.2947 39.0875 21.9834 40.0788 21.6536ZM40.3755 23.7732C40.3229 24.6996 40.2778 25.5148 40.2253 26.4486C39.08 25.8964 37.9986 25.374 36.9171 24.8515C36.9209 24.7996 36.9209 24.7477 36.9246 24.6921C38.0511 24.392 39.1776 24.0918 40.3755 23.7732ZM37.563 27.3231C37.593 27.3082 37.6193 27.286 37.6493 27.2823C38.5994 27.1934 39.5494 27.1081 40.5595 27.0155C40.6458 27.5639 40.7397 28.1828 40.8373 28.8238C39.6958 29.0017 38.16 28.2865 37.563 27.3231ZM61.7077 28.7719C60.799 28.7312 59.8902 28.6497 58.9815 28.5644C58.8764 28.5533 58.6924 28.4236 58.6924 28.3458C58.6774 27.2601 58.576 26.1595 58.7149 25.0886C58.9252 23.5101 59.8189 22.2428 61.013 21.1941C61.5838 20.6939 62.1921 20.2418 62.8492 19.7119C63.4124 22.7541 63.6941 25.7297 63.8931 28.7682C63.1421 28.7756 62.4249 28.8053 61.7077 28.7719ZM64.4939 21.724L68.4216 21.3646C68.0912 21.9537 67.7795 22.3947 67.1036 22.4725C66.424 22.5503 65.7556 22.7208 65.0797 22.8468C64.9708 22.869 64.8619 22.869 64.7192 22.8801C64.6403 22.4725 64.5652 22.0834 64.4939 21.724ZM64.7004 23.9621L67.0248 23.7472C67.0323 24.1474 67.0473 24.5254 67.0323 24.8996C67.0285 24.9738 66.9234 25.0923 66.8483 25.1109C66.1911 25.2517 65.5265 25.374 64.8431 25.5074L64.7004 23.9621ZM65.181 28.8535L64.952 26.4337C65.9884 26.5153 67.036 26.5968 68.0799 26.6783C68.0874 26.7154 68.0912 26.7524 68.0987 26.7858C67.2839 27.6492 66.3564 28.3532 65.181 28.8535ZM69.1689 19.7749C71.0689 21.1311 71.6547 24.2438 70.3742 26.1818C70.0363 26.6931 69.5406 27.1267 69.0637 27.3045C68.7821 26.6079 68.4592 25.9187 68.2339 25.2035C68.14 24.9108 68.1738 24.518 68.294 24.2289C68.8872 22.8097 69.09 21.3386 68.9811 19.8194C68.9774 19.7897 68.9886 19.7564 68.9961 19.6897C69.0637 19.723 69.1201 19.7415 69.1689 19.7749ZM67.5805 19.4377C66.6155 20.3641 65.4364 20.5679 64.1972 20.7606L63.9907 18.5669C65.1848 18.7336 66.3564 19.0301 67.5805 19.4377ZM56.6384 19.8416C58.0015 19.3525 59.3908 18.9226 60.7877 18.5372C61.366 18.3779 61.9968 18.4076 62.6051 18.352C62.6164 18.3816 62.6276 18.4076 62.6352 18.4335C62.3498 18.6818 62.0569 18.9226 61.779 19.1746C61.0092 19.8749 60.2057 20.5456 59.4809 21.2905C58.178 22.6356 57.656 24.3031 57.5922 26.1299C57.5659 26.8858 57.5621 27.6417 57.5509 28.4384C57.4157 28.4273 57.288 28.4199 57.1604 28.4051C54.453 28.0419 51.7381 28.079 49.027 28.3236C46.7928 28.5237 44.5623 28.7571 42.3281 28.9794C42.1967 28.9943 42.0615 29.0054 41.8737 29.0202L40.9199 18.9115C41.5583 18.9078 42.1403 18.8707 42.7148 18.9041C44.3483 19.0004 45.8991 19.5007 47.4574 19.9416C48.7153 20.2974 49.9808 20.6198 51.295 20.6976C53.1463 20.7976 54.9073 20.4604 56.6384 19.8416Z" fill="#3C2415"/>
<path d="M27.4591 47.2594C26.9146 47.3446 26.3664 47.415 25.8219 47.5188C24.6278 47.7485 23.49 48.1228 22.495 48.8453C22.0481 49.1677 21.7102 49.5605 21.4811 50.0645C20.6438 51.932 20.4936 53.8626 20.8728 55.8488C21.0117 56.5677 21.177 57.2865 21.59 57.9202C22.724 59.6655 24.3237 60.792 26.3326 61.3552C27.5605 61.6998 28.8071 61.7739 30.0425 61.4441C31.6534 61.0143 32.6147 59.8767 33.2531 58.4241C33.8651 57.0383 34.0717 55.5672 34.2331 54.0813C34.6312 50.5128 31.4995 46.5553 27.4591 47.2594ZM28.8297 53.5847C30.5082 54.2406 31.7773 55.293 32.2054 57.1124C32.258 57.3273 32.2693 57.5533 32.2693 57.7757C32.2617 58.5872 31.9576 58.9689 31.1165 59.2208C30.8799 59.2912 30.6321 59.3246 30.3918 59.3728C30.388 59.3913 30.3842 59.4098 30.3767 59.4283C29.5056 59.3246 28.6344 59.2245 27.767 59.1097C27.6919 59.0985 27.598 58.9985 27.5717 58.9207C27.23 57.872 27.0198 56.8085 27.215 55.7006C27.3615 54.8631 27.7595 54.1739 28.4729 53.6811C28.5706 53.6218 28.7358 53.5477 28.8297 53.5847Z" fill="white"/>
<path d="M62.855 19.7206C63.4182 22.7628 63.6999 25.7384 63.8989 28.7769C63.1441 28.7769 62.4269 28.8066 61.7135 28.7732C60.8048 28.7325 59.896 28.6509 58.9873 28.5657C58.8822 28.5546 58.6982 28.4249 58.6982 28.3471C58.6832 27.2614 58.5818 26.1608 58.7207 25.0899C58.931 23.5114 59.8247 22.2441 61.0188 21.1991C61.5858 20.7026 62.1979 20.2468 62.855 19.7206Z" fill="#DA1C5C"/>
<path d="M69.0675 27.3047C68.7859 26.608 68.4629 25.9225 68.2376 25.2037C68.1437 24.9109 68.1775 24.5181 68.2977 24.2291C68.891 22.8099 69.0938 21.3388 68.9849 19.8195C68.9811 19.7899 68.9924 19.7565 68.9999 19.6898C69.0675 19.7232 69.1238 19.7417 69.1726 19.775C71.0727 21.1313 71.6584 24.2439 70.378 26.1819C70.04 26.6896 69.5406 27.1268 69.0675 27.3047Z" fill="#92278F"/>
<path d="M36.5175 27.0781C35.7553 26.7372 35.0794 26.4408 34.4147 26.1258C34.287 26.0665 34.1519 25.9294 34.1068 25.7997C33.6675 24.4583 33.7013 23.1466 34.4335 21.9052C34.9216 21.0789 35.6802 20.6453 36.6489 20.5823C36.7053 20.5786 36.7616 20.5823 36.8179 20.586C36.8367 20.586 36.8555 20.6046 36.9043 20.6342C36.3823 22.7093 36.2284 24.8215 36.5175 27.0781Z" fill="#9E1F63"/>
<path d="M67.582 19.4349C66.6169 20.3613 65.4379 20.5651 64.1987 20.7578C64.1311 20.0241 64.0635 19.3127 63.9922 18.5641C65.1863 18.7309 66.3578 19.0273 67.582 19.4349Z" fill="white"/>
<path d="M40.3763 23.7736C40.3238 24.7 40.2787 25.5152 40.2261 26.4453C39.0809 25.8932 37.9994 25.3707 36.918 24.8482C36.9217 24.7963 36.9217 24.7445 36.9255 24.6889C38.052 24.3924 39.1785 24.0923 40.3763 23.7736Z" fill="white"/>
<path d="M65.1822 28.8516C65.1071 28.0363 65.0357 27.2804 64.9531 26.4318C65.9933 26.5134 67.0372 26.5949 68.081 26.6764C68.0886 26.7135 68.0923 26.7505 68.0998 26.7839C67.285 27.6473 66.3575 28.3513 65.1822 28.8516Z" fill="white"/>
<path d="M40.8408 28.8144C39.6993 28.9997 38.1635 28.2845 37.5664 27.3174C37.5964 27.3026 37.6227 27.2766 37.6528 27.2766C38.6028 27.1877 39.5528 27.1025 40.5629 27.0098C40.6455 27.5582 40.7394 28.1771 40.8408 28.8144Z" fill="white"/>
<path d="M64.7251 22.875C64.6463 22.4674 64.5674 22.082 64.4961 21.7189C65.8103 21.5966 67.0871 21.4817 68.4238 21.3594C68.0934 21.9486 67.7817 22.3896 67.1058 22.4674C66.4262 22.5452 65.7578 22.7157 65.0819 22.8417C64.9767 22.8602 64.8641 22.8602 64.7251 22.875Z" fill="white"/>
<path d="M67.0275 23.7436C67.035 24.1475 67.05 24.5217 67.0387 24.896C67.035 24.9701 66.9298 25.0887 66.8547 25.1035C66.1976 25.2443 65.533 25.3703 64.8496 25.5C64.8008 24.9775 64.7519 24.481 64.7031 23.9548C65.4842 23.8844 66.2314 23.8177 67.0275 23.7436Z" fill="white"/>
<path d="M40.0792 21.6509C40.1317 22.1919 40.1768 22.6736 40.2256 23.2109C39.2005 23.0405 38.2054 22.8774 37.2103 22.7144C37.2066 22.681 37.1991 22.644 37.1953 22.6106C38.1416 22.292 39.0878 21.9807 40.0792 21.6509Z" fill="white"/>
<path d="M40.1191 20.7031C39.3155 20.5067 38.5796 20.3252 37.7422 20.1177C38.4631 19.71 39.0977 19.3543 39.7699 18.9764C39.8863 19.5581 39.9952 20.088 40.1191 20.7031Z" fill="white"/>
<path d="M30.3772 59.4297C29.5061 59.3259 28.6349 59.2259 27.7675 59.111C27.6924 59.0999 27.5985 58.9998 27.5722 58.922C27.2305 57.8734 27.0203 56.8099 27.2155 55.7056C27.362 54.8682 27.76 54.1789 28.4734 53.6861C28.5711 53.6194 28.7401 53.5453 28.8302 53.5824C30.5087 54.2382 31.7741 55.2906 32.2059 57.11C32.2585 57.3249 32.2698 57.551 32.2698 57.7733C32.2623 58.5848 31.9581 58.9665 31.117 59.2222C30.8804 59.2926 30.6326 59.3259 30.3923 59.3741C30.3847 59.3963 30.381 59.4149 30.3772 59.4297Z" fill="#3C2415"/>
</g>
</g>
<defs>
<clipPath id="clip0_394_19790">
<rect width="90" height="90" fill="white" transform="matrix(0 -1 1 0 0 90)"/>
</clipPath>
</defs>
</svg>
