<svg width="90" height="90" viewBox="0 0 90 90" fill="none" xmlns="http://www.w3.org/2000/svg">
<g clip-path="url(#clip0_394_19863)">
<mask id="mask0_394_19863" style="mask-type:luminance" maskUnits="userSpaceOnUse" x="0" y="0" width="90" height="90">
<path d="M0 0L0 90H90V0H0Z" fill="white"/>
</mask>
<g mask="url(#mask0_394_19863)">
<path d="M1.43529 36.605C0.124666 34.9995 1.13662 31.8986 2.9265 31.6116C4.16262 30.6537 1.77165 29.5459 2.34742 28.2437C2.71111 26.765 4.06785 26.3557 5.18279 26.2757C7.02538 26.3988 6.55809 24.0619 6.18992 22.6456C6.04373 21.1681 6.88196 19.5574 8.21077 19.63C9.4231 19.8499 9.79037 18.2152 10.4699 17.3784C11.244 16.2914 13.2127 15.9869 13.5094 17.746C13.6639 19.3754 12.9068 20.8719 12.7017 22.4526C12.1571 25.3555 11.4909 28.2865 10.0833 30.7654C9.23343 32.5845 8.05494 34.3053 6.36699 34.9723C4.96011 35.7637 3.58496 36.7387 2.03492 37.0469C1.79568 37.0166 1.56096 36.8604 1.43529 36.605Z" fill="#FF92F6" stroke="#1A1A1A" stroke-width="3.45094"/>
<path d="M1.69589 51.1613C-0.596192 49.588 -0.141361 45.0031 2.23779 43.8387C3.65075 42.0195 0.0208832 41.5825 0.419666 39.5912C0.47284 37.4569 2.2182 36.3181 3.73013 35.7247C6.30613 35.0852 4.95439 32.1666 4.01802 30.4348C3.36901 28.5245 4.03599 26.0066 5.88881 25.5239C7.62583 25.2888 7.63663 22.9444 8.31933 21.5297C9.05653 19.7395 11.6768 18.4737 12.6184 20.6947C13.3249 22.8043 12.7351 25.1342 12.9313 27.3359C13.0603 31.4521 13.0304 35.659 11.842 39.5852C11.2221 42.3865 10.1197 45.2002 7.99611 46.8278C6.29751 48.4991 4.69817 50.4019 2.65586 51.4899C2.31707 51.5538 1.94641 51.4477 1.69589 51.1613Z" fill="#FF92F6" stroke="#1A1A1A" stroke-width="4.14113"/>
<path d="M0.744319 47.6782C-0.584459 46.0262 0.441513 42.8354 2.25617 42.5402C3.50947 41.5545 1.08533 40.4146 1.66905 39.0745C2.03779 37.5531 3.41341 37.1318 4.54381 37.0495C6.41198 37.1762 5.93817 34.7716 5.56489 33.3142C5.41667 31.7939 6.26655 30.1364 7.61381 30.2112C8.84302 30.4375 9.21532 28.7554 9.90432 27.8943C10.6891 26.7758 12.6852 26.4625 12.9859 28.2726C13.1427 29.9491 12.375 31.489 12.1671 33.1156C11.6149 36.1025 10.9395 39.1184 9.51236 41.6693C8.65072 43.541 7.45579 45.3118 5.74451 45.9981C4.31812 46.8124 2.92384 47.8158 1.35234 48.1328C1.10979 48.1018 0.871735 47.941 0.744319 47.6782Z" fill="#FF92F6" stroke="#1A1A1A" stroke-width="4.14113"/>
<path d="M77.2456 34.721C77.3436 34.3842 77.5709 34.1797 77.7761 33.9372L77.9088 33.7804C77.953 33.7282 77.9821 33.6471 78.0414 33.6237C78.1253 33.5906 78.2228 33.6568 78.3067 33.6237C78.366 33.6003 78.3873 33.5079 78.4393 33.4669C78.5216 33.4021 78.6162 33.3624 78.7046 33.3102C78.793 33.2579 78.8761 33.1904 78.9699 33.1534C79.0537 33.1204 79.156 33.2002 79.2351 33.1534C79.291 33.1204 79.3118 33.0297 79.3678 32.9966C79.5092 32.9131 79.4916 33.0802 79.633 32.9966C79.6889 32.9636 79.7097 32.8729 79.7657 32.8399C79.8439 32.7937 80.0723 32.8758 80.1636 32.8399C80.2574 32.8029 80.3351 32.7201 80.4288 32.6832C80.5554 32.6333 80.9451 32.7265 81.092 32.6832C81.2277 32.6431 81.3543 32.5664 81.4899 32.5264C81.6564 32.4772 81.854 32.5756 82.0205 32.5264C82.1164 32.498 82.192 32.4066 82.2857 32.3696C82.3696 32.3366 82.4626 32.3696 82.551 32.3696H83.2142H85.2037H86.3974C86.654 32.3696 87.1271 32.2915 87.3258 32.5264C87.3303 32.5317 87.3258 32.9586 87.3258 32.9966C87.3258 33.1534 87.358 33.3148 87.3258 33.4669C87.2456 33.8459 87.2122 33.6981 87.0605 33.9372C86.9649 34.0879 86.8909 34.2567 86.7953 34.4074C86.7578 34.4666 86.6973 34.5027 86.6626 34.5642C86.6078 34.6614 86.5893 34.7842 86.53 34.8777C86.4175 35.055 86.2647 35.1912 86.1321 35.348L85.9995 35.5047C85.9553 35.5569 85.9227 35.6285 85.8668 35.6615C85.8273 35.6849 85.7737 35.6382 85.7342 35.6615C85.6783 35.6946 85.6575 35.7852 85.6016 35.8182C85.562 35.8416 85.5085 35.7948 85.4689 35.8182C85.0644 36.0573 85.7115 35.9425 85.071 36.1318C84.9526 36.1668 84.5614 36.1318 84.4078 36.1318C84.3011 36.1318 83.9605 36.1646 83.8773 36.1318C83.7835 36.0948 83.7058 36.0119 83.612 35.975C83.5701 35.9585 83.5189 35.9983 83.4794 35.975C83.4235 35.9419 83.391 35.8705 83.3468 35.8182C83.2141 35.766 83.0815 35.7138 82.9489 35.6615C82.8162 35.6093 82.688 35.5371 82.5509 35.5047C82.3775 35.4637 82.1882 35.5708 82.0204 35.5047C81.9611 35.4814 81.9437 35.381 81.8878 35.348C81.8482 35.3246 81.7993 35.348 81.7551 35.348H81.6225H81.092H80.2961C80.2364 35.348 79.9386 35.3241 79.8982 35.348C79.7864 35.414 79.7448 35.5954 79.6329 35.6615C79.4915 35.745 79.5091 35.578 79.3677 35.6615C79.3118 35.6946 79.2792 35.766 79.235 35.8182C79.1466 35.9227 79.0738 36.0498 78.9698 36.1318C78.933 36.1608 78.8767 36.1084 78.8371 36.1318C78.7253 36.1978 78.6837 36.3791 78.5719 36.4452C78.5323 36.4686 78.4788 36.4219 78.4392 36.4452C78.4139 36.4602 77.9214 37.0422 77.9087 37.0722C77.8889 37.119 77.9284 37.1823 77.9087 37.229C77.8807 37.2951 77.804 37.3197 77.7761 37.3858C77.741 37.4687 77.7922 37.9364 77.7761 38.0128C77.752 38.1261 77.6747 38.2155 77.6434 38.3263C77.6295 38.3759 77.6434 38.4308 77.6434 38.483V38.7966V40.2074C77.6434 40.3185 77.6606 41.1074 77.6434 41.1479C77.6154 41.214 77.5733 41.3047 77.5108 41.3047C77.4096 41.3047 77.2455 40.8344 77.2455 40.8344C77.2316 40.7849 77.2562 40.7283 77.2455 40.6776C77.2116 40.5173 77.1648 40.3608 77.1129 40.2074C77.0762 40.0989 77.0115 40.0047 76.9802 39.8939C76.9663 39.8443 76.991 39.7878 76.9802 39.7372C76.9463 39.5768 76.8815 39.4272 76.8476 39.2669C76.8261 39.1655 76.8871 39.0468 76.8476 38.9534C76.8196 38.8873 76.7429 38.8627 76.715 38.7966C76.6754 38.7031 76.7545 38.5766 76.715 38.4831C76.687 38.417 76.6021 38.3965 76.5823 38.3264C76.5543 38.2272 76.6038 38.1142 76.5823 38.0128C76.5583 37.8995 76.481 37.8101 76.4497 37.6993C76.4357 37.6497 76.4636 37.5921 76.4497 37.5426C76.4184 37.4317 76.3483 37.3399 76.3171 37.2291C76.2892 37.1304 76.3171 36.5866 76.3171 36.4453C76.3171 36.3747 76.2969 36.0227 76.3171 35.975C76.345 35.909 76.3977 35.8593 76.4497 35.8183C76.6642 35.6493 76.8919 35.5047 77.2456 34.721Z" stroke="black" stroke-width="0.690189"/>
<path d="M1.43529 36.605C0.124666 34.9995 1.13662 31.8986 2.9265 31.6116C4.16262 30.6537 1.77165 29.5459 2.34742 28.2437C2.71111 26.765 4.06785 26.3557 5.18279 26.2757C7.02538 26.3988 6.55809 24.0619 6.18992 22.6456C6.04373 21.1681 6.88196 19.5574 8.21077 19.63C9.4231 19.8499 9.79037 18.2152 10.4699 17.3784C11.244 16.2914 13.2127 15.9869 13.5094 17.746C13.6639 19.3754 12.9068 20.8719 12.7017 22.4526C12.1571 25.3555 11.4909 28.2865 10.0833 30.7654C9.23343 32.5845 8.05494 34.3053 6.36699 34.9723C4.96011 35.7637 3.58496 36.7387 2.03492 37.0469C1.79568 37.0166 1.56096 36.8604 1.43529 36.605Z" fill="#FF92F6" stroke="#FF35D8" stroke-width="0.690189"/>
<path d="M1.69589 51.1613C-0.596192 49.588 -0.141361 45.0031 2.23779 43.8387C3.65075 42.0195 0.0208832 41.5825 0.419666 39.5912C0.47284 37.4569 2.2182 36.3181 3.73013 35.7247C6.30613 35.0852 4.95439 32.1666 4.01802 30.4348C3.36901 28.5245 4.03599 26.0066 5.88881 25.5239C7.62583 25.2888 7.63663 22.9444 8.31933 21.5297C9.05653 19.7395 11.6768 18.4737 12.6184 20.6947C13.3249 22.8043 12.7351 25.1342 12.9313 27.3359C13.0603 31.4521 13.0304 35.659 11.842 39.5852C11.2221 42.3865 10.1197 45.2002 7.99611 46.8278C6.29751 48.4991 4.69817 50.4019 2.65586 51.4899C2.31707 51.5538 1.94641 51.4477 1.69589 51.1613Z" fill="#FF92F6" stroke="#FF35D8" stroke-width="0.690189"/>
<path d="M0.744319 47.6782C-0.584459 46.0262 0.441513 42.8354 2.25617 42.5402C3.50947 41.5545 1.08533 40.4146 1.66905 39.0745C2.03779 37.5531 3.41341 37.1318 4.54381 37.0495C6.41198 37.1762 5.93817 34.7716 5.56489 33.3142C5.41667 31.7939 6.26655 30.1364 7.61381 30.2112C8.84302 30.4375 9.21532 28.7554 9.90432 27.8943C10.6891 26.7758 12.6852 26.4625 12.9859 28.2726C13.1427 29.9491 12.375 31.489 12.1671 33.1156C11.6149 36.1025 10.9395 39.1184 9.51236 41.6693C8.65072 43.541 7.45579 45.3118 5.74451 45.9981C4.31812 46.8124 2.92384 47.8158 1.35234 48.1328C1.10979 48.1018 0.871735 47.941 0.744319 47.6782Z" fill="#FF92F6" stroke="#FF35D8" stroke-width="0.690189"/>
<path d="M41.8048 88.6754C29.8207 90.9849 16.5944 88.8088 6.98798 79.8369C4.2607 76.3804 2.85416 72.0361 2.08936 67.35C1.41489 63.2174 1.24764 58.8816 1.08693 54.7154C1.06478 54.1411 1.04275 53.5701 1.01953 53.0032C1.02414 52.9228 1.06144 52.819 1.22903 52.659C1.42142 52.4754 1.69646 52.3017 2.06205 52.0793C2.07994 52.0684 2.09808 52.0574 2.11646 52.0462C2.43976 51.8499 2.83418 51.6103 3.15352 51.3245C3.50103 51.0134 3.84418 50.5747 3.90368 49.9677C3.95464 49.4479 3.99545 48.7781 4.03761 48.0862C4.05328 47.8289 4.06914 47.5686 4.08578 47.3118C4.14869 46.3409 4.22273 45.4179 4.33618 44.7789C4.35576 44.6686 4.4411 44.5025 4.69686 44.2643C4.94995 44.0286 5.2848 43.7984 5.68221 43.5308C5.70182 43.5176 5.72161 43.5043 5.74155 43.4909C6.10254 43.2481 6.51333 42.9718 6.85456 42.6695C7.21055 42.3542 7.58276 41.9334 7.72191 41.3813C7.84154 40.9067 7.81459 40.3804 7.75221 39.9015C7.69283 39.4457 7.58993 38.959 7.49419 38.5061C7.48753 38.4746 7.48091 38.4433 7.47433 38.4121C7.36993 37.9174 7.27748 37.4648 7.23376 37.0594C7.18899 36.6444 7.20597 36.3607 7.26373 36.1813C7.46875 35.5443 7.22891 34.9622 6.97826 34.5615C6.83802 34.3372 6.6673 34.1259 6.49573 33.9358C9.62324 33.9976 11.586 33.8346 12.7265 33.4938C13.3543 33.3061 13.9399 33.0058 14.2001 32.4546C14.4862 31.8486 14.2386 31.272 13.9926 30.9021C13.7379 30.5191 13.3584 30.1565 12.9906 29.8407C12.6888 29.5816 12.3561 29.3222 12.0522 29.0853C11.9799 29.0289 11.9092 28.9738 11.841 28.9203C11.4674 28.6273 11.1776 28.3896 10.997 28.1987C10.9919 28.1933 10.987 28.1881 10.9823 28.183C11.2569 27.684 11.7422 27.0405 12.2958 26.324C12.3376 26.2699 12.3799 26.2153 12.4224 26.1603C12.9899 25.4271 13.6087 24.6276 13.9293 23.9944C14.1204 23.617 14.0859 23.2277 13.9992 22.9242C13.9131 22.6226 13.755 22.3295 13.585 22.0654C13.2516 21.5477 12.7668 20.9842 12.3276 20.4738L12.305 20.4474C11.8376 19.9042 11.4221 19.4188 11.156 19.0039C11.0233 18.7968 10.9569 18.6508 10.9318 18.5589L10.9304 18.5539C14.6722 13.0562 19.5289 10.3325 24.8938 8.48543C27.5062 7.58603 30.2251 6.89893 33.0025 6.19713L33.3142 6.11833C36.183 5.39313 39.1081 4.64393 41.9689 3.62683C50.5928 1.03183 58.2649 -0.0911696 69.6406 2.44033C75.6407 3.85183 80.8415 8.29583 84.4093 14.335C87.9751 20.3709 89.8697 27.9396 89.2925 35.4769C89.2914 35.4918 89.2907 35.5068 89.2905 35.5217C89.1819 42.3158 88.7563 49.914 86.9629 56.6895C85.173 63.4521 82.0473 69.2948 76.6174 72.7357C73.0668 74.4438 69.5408 76.4549 66.0339 78.4551C63.8554 79.6976 61.6843 80.9359 59.5194 82.0947C53.8054 85.1532 48.0296 87.7229 41.8812 88.6596C41.8553 88.6635 41.8298 88.6688 41.8048 88.6754Z" fill="#ABC837" stroke="#1A1A1A" stroke-width="1.48563" stroke-linecap="round" stroke-linejoin="round"/>
<path d="M80.7119 45.2947C77.8091 49.4827 80.0295 55.2838 79.9045 59.8762C79.4491 61.5037 76.3801 63.8198 74.2461 66.1353C79.9614 66.5494 81.3784 60.718 81.4479 58.4741C81.8458 54.6113 80.0778 52.8959 80.482 49.0277C80.4387 48.2662 81.0725 46.0076 80.7119 45.2947Z" fill="#677821"/>
<path d="M33.1406 85.0639C36.9416 85.3986 41.6685 85.0107 43.8422 80.7056C46.0732 76.6676 45.6008 70.5383 42.7973 67.0818C41.4596 64.8006 33.9333 58.3705 37.6875 64.4157C38.7565 67.7505 39.8708 71.1315 39.4339 74.8198C39.2059 79.4413 36.2833 82.7951 33.1406 85.0639Z" fill="#677821"/>
<path d="M36.5156 42.0035C38.6235 41.9852 46.935 48.8349 52.1661 39.6696C54.3971 35.6318 53.8296 27.3653 51.026 23.9088C50.3464 21.9319 43.5148 17.6572 41.6338 19.3308C42.7028 22.6655 47.2431 28.6335 46.8062 32.3223C46.5774 36.944 39.6586 39.7353 36.5156 42.0035Z" fill="#677821"/>
<path d="M72.3997 63.6644C72.5073 63.6432 72.6307 63.6957 72.7362 63.6644C72.7849 63.6501 72.8232 63.6037 72.8708 63.5849C72.892 63.576 72.9156 63.5849 72.9381 63.5849H73.2745C73.3194 63.5849 73.3656 63.5978 73.4091 63.5849C73.4578 63.5705 73.495 63.5198 73.5437 63.5055C73.5872 63.4926 73.6347 63.5183 73.6783 63.5055C73.727 63.4911 73.7642 63.4402 73.8128 63.4258C73.8657 63.4101 74.1466 63.4258 74.2166 63.4258C74.239 63.4258 74.2627 63.4347 74.2839 63.4258C74.3315 63.407 74.3698 63.3607 74.4185 63.3463C74.462 63.3334 74.5082 63.3463 74.5531 63.3463H74.8895H75.0241C75.0465 63.3463 75.0713 63.3581 75.0914 63.3463C75.1198 63.3295 75.1303 63.2835 75.1587 63.2667C75.2024 63.2409 75.5187 63.2926 75.5624 63.2667C75.5908 63.25 75.6014 63.204 75.6297 63.1872C75.6706 63.163 75.9926 63.2114 76.0335 63.1872C76.0619 63.1704 76.0724 63.1244 76.1008 63.1077C76.1209 63.0959 76.1457 63.1077 76.1681 63.1077H76.2354H76.5719H76.6392C76.6616 63.1077 76.6863 63.1196 76.7065 63.1077C76.7348 63.0909 76.7513 63.0546 76.7738 63.0281C76.7962 63.0016 76.8268 62.9821 76.8411 62.9486C76.8513 62.9244 76.8411 62.7458 76.8411 62.71V61.9147V60.9604C76.8411 60.9179 76.8507 60.5855 76.8411 60.5628C76.8269 60.5293 76.788 60.5168 76.7738 60.4832C76.7468 60.4196 76.8007 60.3083 76.7738 60.2447C76.7596 60.2111 76.7206 60.1986 76.7065 60.1651C76.685 60.1143 76.7245 59.911 76.7065 59.847C76.6905 59.7908 76.6513 59.7455 76.6392 59.6879C76.6162 59.5796 76.6663 59.307 76.6392 59.2108C76.6291 59.1752 76.5819 59.1668 76.5719 59.1312C76.5447 59.035 76.5948 58.7624 76.5719 58.6541C76.5597 58.5965 76.5205 58.5513 76.5046 58.495C76.4915 58.4487 76.5046 58.0726 76.5046 58.0179V57.2226V55.1549V53.4849V52.7691V52.61C76.5046 52.557 76.4904 52.5013 76.5046 52.451C76.5146 52.4154 76.5618 52.407 76.5719 52.3714C76.586 52.3211 76.5719 52.2655 76.5719 52.2125V51.5761V51.4171C76.5719 51.3641 76.5577 51.3083 76.5719 51.258C76.5819 51.2225 76.6291 51.214 76.6392 51.1785C76.6533 51.1281 76.6392 51.0725 76.6392 51.0195C76.6392 50.9311 76.626 50.4298 76.6392 50.3833C76.6709 50.2708 76.7494 50.1802 76.7737 50.0652C76.7846 50.0138 76.7629 49.9576 76.7737 49.9061C76.7859 49.8486 76.8186 49.8001 76.841 49.7471C76.8635 49.6675 76.8945 49.5906 76.9083 49.5084C76.9171 49.4564 76.9083 49.4024 76.9083 49.3493C76.9308 49.2963 76.9635 49.2478 76.9756 49.1903C76.9865 49.1389 76.9615 49.0815 76.9756 49.0312C76.9856 48.9957 77.0205 48.9783 77.0429 48.9518C77.0654 48.8723 77.0964 48.7953 77.1102 48.7131C77.119 48.6612 77.1015 48.606 77.1102 48.5541C77.1381 48.3897 77.217 48.2413 77.2448 48.0769C77.2554 48.0146 77.2298 47.6351 77.2448 47.5997C77.3988 47.2358 77.2169 47.9372 77.3794 47.3611C77.3936 47.3109 77.3652 47.2525 77.3794 47.2022C77.3953 47.146 77.4308 47.0993 77.4467 47.043C77.4669 46.9715 77.4265 46.876 77.4467 46.8045C77.6373 46.3539 77.4216 46.923 77.514 46.4863C77.5262 46.4288 77.5692 46.3848 77.5813 46.3273C77.6031 46.2244 77.5596 46.112 77.5813 46.0092C77.7719 45.5586 77.5562 46.1277 77.6486 45.6911C77.6608 45.6335 77.7038 45.5895 77.7159 45.532C77.7268 45.4806 77.705 45.4244 77.7159 45.373C77.7281 45.3154 77.7711 45.2714 77.7832 45.2139C77.7965 45.1514 77.7832 44.8194 77.7832 44.7367C77.7832 44.6837 77.769 44.628 77.7832 44.5777C77.7932 44.5421 77.8405 44.5337 77.8505 44.4981C77.8681 44.436 77.832 44.0647 77.8505 44.021C77.8648 43.9875 77.9078 43.9771 77.9178 43.9415C77.9281 43.9052 77.9028 43.6588 77.9178 43.6234C77.932 43.5899 77.9709 43.5773 77.9851 43.5438C78.0052 43.4964 77.9709 43.435 77.9851 43.3847C78.0169 43.2723 78.0954 43.1816 78.1197 43.0666C78.1461 42.9419 78.0933 42.7938 78.1197 42.6691C78.1319 42.6115 78.1711 42.5662 78.187 42.5099C78.1938 42.4848 78.187 42.4569 78.187 42.4304V42.1123C78.187 42.0592 78.1761 42.0047 78.187 41.9532C78.1992 41.8957 78.2445 41.8523 78.2543 41.7942C78.2888 41.5902 78.2198 41.3618 78.2543 41.1579C78.2641 41.0998 78.3118 41.057 78.3216 40.9989C78.3348 40.9209 78.3216 40.8398 78.3216 40.7603V40.0445V39.8855C78.3216 39.8325 78.3107 39.7779 78.3216 39.7264C78.3338 39.6689 78.3768 39.6249 78.3889 39.5674C78.3998 39.5159 78.3889 39.4613 78.3889 39.4083C78.3889 39.2758 78.3705 39.1414 78.3889 39.0107C78.4006 38.928 78.4446 38.8549 78.4562 38.7722C78.4673 38.6937 78.4562 38.613 78.4562 38.5335V37.8179V37.102C78.4562 37.0662 78.446 36.8876 78.4562 36.8634C78.4704 36.8299 78.5093 36.8174 78.5235 36.7839C78.5336 36.7601 78.5235 36.7309 78.5235 36.7044V36.2272V36.1477C78.5235 36.1211 78.5336 36.0919 78.5235 36.0681C78.5093 36.0346 78.4846 36.0053 78.4562 35.9886C78.4411 35.9797 78.203 35.9886 78.187 35.9886H77.5141H77.3795C77.3347 35.9886 77.2885 36.0014 77.245 35.9886C77.1963 35.9742 77.158 35.9278 77.1104 35.909C77.0892 35.9002 77.0643 35.9179 77.0431 35.909C76.9955 35.8902 76.9561 35.8483 76.9085 35.8295C76.8873 35.8206 76.8636 35.8295 76.8412 35.8295H76.5047C76.4599 35.8295 76.4137 35.8423 76.3702 35.8295C76.3215 35.8151 76.2832 35.7688 76.2356 35.75C76.2144 35.7411 76.1907 35.75 76.1683 35.75H76.0337H75.63H74.957C74.9034 35.75 74.661 35.7658 74.6206 35.75C74.573 35.7312 74.5336 35.6893 74.486 35.6705C74.4421 35.6532 74.1627 35.6705 74.0823 35.6705H73.5439C73.4997 35.6705 73.38 35.6555 73.342 35.6705C73.2945 35.6893 73.2551 35.7312 73.2075 35.75C73.1508 35.7723 72.9111 35.7263 72.871 35.75C72.673 35.867 72.9755 35.8295 72.6691 35.8295C72.6227 35.8295 72.4204 35.8174 72.4 35.8295C72.3716 35.8463 72.361 35.8923 72.3327 35.909C72.2926 35.9328 72.2407 35.8923 72.1981 35.909C71.7107 36.1011 72.3042 35.8862 71.9962 36.0681C71.9561 36.0918 71.9042 36.0513 71.8616 36.0681C71.8141 36.0869 71.7746 36.1288 71.7271 36.1476C71.7058 36.1565 71.6799 36.1357 71.6598 36.1476C71.6314 36.1644 71.6208 36.2104 71.5925 36.2272C71.529 36.2647 71.454 36.2692 71.3906 36.3067C71.3622 36.3235 71.3516 36.3695 71.3233 36.3862C71.2598 36.4238 71.1902 36.4454 71.1214 36.4658C71.0996 36.472 71.0742 36.454 71.0541 36.4658C71.0257 36.4825 71.0152 36.5286 70.9868 36.5453C70.9667 36.5572 70.9382 36.5306 70.9195 36.5453C70.8667 36.5869 70.8377 36.6628 70.7849 36.7044C70.7662 36.7191 70.7377 36.6925 70.7176 36.7044C70.6609 36.7379 70.6358 36.8219 70.583 36.8634C70.0951 37.1518 70.6894 36.7796 70.3811 37.0225C70.3394 37.0554 70.2883 37.0691 70.2466 37.102C70.1938 37.1436 70.1687 37.2275 70.112 37.2611C70.0919 37.2729 70.0648 37.2492 70.0447 37.2611C70.0268 37.2716 69.8517 37.4787 69.8428 37.4998C69.8328 37.5235 69.8529 37.5555 69.8428 37.5792C69.8286 37.6127 69.7898 37.6252 69.7755 37.6588C69.7554 37.7061 69.7897 37.7676 69.7755 37.8179C69.7596 37.8741 69.7241 37.9206 69.7082 37.9769C69.7014 38.002 69.7082 38.0299 69.7082 38.0564V38.2155V38.5336C69.7082 38.8238 69.6756 39.133 69.7755 39.4084C69.8074 39.4963 69.8739 39.5615 69.9101 39.647C69.9418 39.722 69.9495 39.8085 69.9774 39.8855C70.0169 39.9945 70.0768 40.0927 70.112 40.2037C70.1445 40.306 70.1428 40.4213 70.1793 40.5218C70.3284 40.933 70.3287 40.5832 70.4484 41.0786C70.4669 41.155 70.43 41.2406 70.4484 41.3171C70.476 41.431 70.5435 41.5262 70.583 41.6352C70.6109 41.7122 70.6254 41.7953 70.6503 41.8737C70.6927 42.0074 70.7467 42.136 70.7849 42.2714C70.8142 42.3751 70.8256 42.4848 70.8522 42.5895C70.893 42.7501 70.9383 42.9091 70.9868 43.0667C71.0281 43.2008 71.0977 43.3243 71.1214 43.4643C71.1434 43.5943 71.1102 43.73 71.1214 43.8619C71.1327 43.9964 71.1773 44.1251 71.1887 44.2596C71.2004 44.3984 71.1746 45.0261 71.1887 45.1344C71.2135 45.3251 71.3002 45.5 71.3233 45.6911C71.3455 45.8748 71.3233 46.0622 71.3233 46.2478V47.2816V54.7573V56.9045V57.6997C71.3233 57.8323 71.3476 57.968 71.3233 58.0974C71.3015 58.2131 71.213 58.3005 71.1887 58.4155C71.1669 58.5183 71.2014 58.6286 71.1887 58.7336C71.212 58.8954 71.0778 58.9912 71.0541 59.1312C71.0346 59.2463 71.0785 59.4932 71.0541 59.6084C71.0419 59.6659 71.0027 59.7112 70.9868 59.7674C70.9726 59.8178 71.001 59.8762 70.9868 59.9265C70.9709 59.9827 70.9354 60.0293 70.9195 60.0856C70.9068 60.1304 70.9195 60.2719 70.9195 60.3241V60.8013C70.9195 60.8724 70.9088 61.1736 70.9195 61.1989C70.9337 61.2325 70.9725 61.245 70.9868 61.2785C70.9968 61.3022 70.9768 61.3344 70.9868 61.3581C71.001 61.3916 71.0399 61.404 71.0541 61.4376C71.0641 61.4613 71.0473 61.492 71.0541 61.5171C71.0739 61.5873 71.2205 61.9313 71.256 61.9943C71.2736 62.0255 71.3056 62.0426 71.3233 62.0738C71.3789 62.1725 71.4022 62.2933 71.4578 62.3919C71.4755 62.4231 71.5027 62.4449 71.5251 62.4715L71.727 62.71C71.7719 62.7631 71.8264 62.8067 71.8616 62.8691C71.8894 62.9184 71.9011 62.9788 71.9289 63.0282C71.9641 63.0906 72.0351 63.1201 72.0635 63.1872C72.0802 63.2268 72.0549 63.444 72.0635 63.5053C72.0823 63.6387 72.1081 63.7705 72.3997 63.6644Z" fill="#338000"/>
<path d="M67.1537 61.571C67.3441 61.796 67.5344 62.0209 67.7247 62.2459C67.7565 62.2834 67.7882 62.3209 67.8199 62.3583C67.8516 62.3958 67.875 62.4471 67.9151 62.4708C67.9912 62.5158 68.1244 62.4258 68.2005 62.4708C68.2407 62.4946 68.2556 62.5596 68.2957 62.5833C68.3247 62.6004 68.5383 62.5833 68.5812 62.5833C68.667 62.5833 68.9971 62.6069 69.057 62.5833C69.1243 62.5568 69.1883 62.5173 69.2473 62.4708C69.3564 62.3849 69.5024 62.1646 69.5328 62.0209C69.5482 61.9482 69.5204 61.8695 69.5328 61.796C69.6319 61.2109 69.5963 61.6835 69.7232 61.2336C69.7645 61.087 69.7968 60.9362 69.8183 60.7838C69.8288 60.7098 69.8059 60.6323 69.8183 60.5588C69.8381 60.4426 69.897 60.3384 69.9135 60.2214C70.0916 58.9586 69.6957 60.8412 70.0087 59.5466C70.0446 59.398 70.0876 59.2501 70.1038 59.0967C70.1353 58.7991 70.0487 58.4898 70.1038 58.197C70.1409 57.9999 70.2682 57.8341 70.2941 57.6346C70.3327 57.3382 70.2941 57.0348 70.2941 56.7348V56.1725V55.4977C70.2941 55.2727 70.2769 55.0469 70.2941 54.8229C70.3088 54.6325 70.3693 54.4502 70.3893 54.2605C70.3997 54.1622 70.3694 53.5203 70.3893 53.4732C70.4094 53.4259 70.4644 53.4082 70.4845 53.3608C70.4987 53.3273 70.4702 53.2819 70.4845 53.2483C70.5046 53.201 70.5596 53.1832 70.5796 53.1358C70.608 53.0688 70.5595 52.982 70.5796 52.9109C70.6021 52.8314 70.6576 52.7673 70.6748 52.686C70.6979 52.5768 70.6447 52.4552 70.6748 52.3485C70.6972 52.269 70.7475 52.2031 70.77 52.1236C70.8004 52.0158 70.7406 51.6655 70.77 51.5613C70.7842 51.511 70.851 51.4991 70.8651 51.4488C70.9052 51.3065 70.8344 51.1444 70.8651 50.9989C70.8824 50.9176 70.9378 50.8535 70.9603 50.774C70.9703 50.7384 70.9603 50.699 70.9603 50.6615V50.4366V49.5368V49.1994C70.9603 49.1244 70.9449 49.0472 70.9603 48.9745C70.9776 48.8932 71.0383 48.8309 71.0555 48.7495C71.0862 48.604 71.0153 48.4419 71.0555 48.2997C71.0697 48.2494 71.1306 48.2346 71.1506 48.1872C71.1809 48.1156 71.1244 47.718 71.1506 47.6248C71.1649 47.5745 71.2316 47.5627 71.2458 47.5124C71.2659 47.4413 71.2304 47.3602 71.2458 47.2874C71.2802 47.1248 71.4017 47.0002 71.4361 46.8376C71.4515 46.7648 71.4361 46.6876 71.4361 46.6126C71.4361 46.4252 71.4101 46.2352 71.4361 46.0503C71.4526 45.9333 71.5148 45.8298 71.5313 45.7129C71.7117 44.4337 71.3543 46.1156 71.6265 45.1505C71.6364 45.115 71.6265 45.0755 71.6265 45.0381C71.6265 44.9321 71.6084 44.5397 71.6265 44.4757C71.6406 44.4254 71.7016 44.4106 71.7216 44.3632C71.7359 44.3297 71.7216 44.2882 71.7216 44.2508C71.7216 44.1757 71.7015 44.097 71.7216 44.0258C71.7359 43.9755 71.8026 43.9637 71.8168 43.9134C71.8369 43.8422 71.8014 43.7612 71.8168 43.6884C71.834 43.6071 71.8947 43.5448 71.9119 43.4635C71.9273 43.3908 71.9119 43.3135 71.9119 43.2385V43.0136V41.8889V40.2019V39.6395V39.527C71.9119 39.4895 71.9261 39.4481 71.9119 39.4146C71.8918 39.3672 71.8368 39.3495 71.8168 39.3021C71.7884 39.2351 71.8451 39.1442 71.8168 39.0772C71.7967 39.0298 71.7417 39.0121 71.7216 38.9647C71.7071 38.9305 71.7216 38.6779 71.7216 38.6273V38.4023C71.7216 38.3648 71.7359 38.3234 71.7216 38.2899C71.7015 38.2425 71.6465 38.2248 71.6265 38.1774C71.6123 38.1439 71.6406 38.0985 71.6265 38.0649C71.6063 38.0176 71.563 37.9899 71.5313 37.9525C71.4996 37.915 71.4762 37.8637 71.4361 37.84C71.4078 37.8232 71.3727 37.84 71.341 37.84H71.2458C71.196 37.84 70.8902 37.8253 70.8651 37.84C70.7849 37.8873 70.7551 38.0175 70.6748 38.0649C70.6464 38.0817 70.608 38.0482 70.5796 38.0649C70.4994 38.1123 70.464 38.231 70.3893 38.2899C70.2713 38.3829 70.1267 38.4218 70.0087 38.5148C69.9714 38.5442 69.9536 38.6036 69.9135 38.6273C69.8851 38.644 69.8467 38.6105 69.8183 38.6273C69.7381 38.6746 69.7027 38.7934 69.628 38.8522C69.569 38.8988 69.4967 38.9182 69.4377 38.9647C69.3556 39.0294 69.2265 39.2142 69.1522 39.3021C69.1204 39.3396 69.0887 39.3771 69.057 39.4146C69.0253 39.4521 68.9819 39.4797 68.9619 39.527C68.9477 39.5606 68.976 39.606 68.9619 39.6395C68.9218 39.7343 68.8117 39.7696 68.7715 39.8644C68.7573 39.898 68.7816 39.9413 68.7715 39.9769C68.7491 40.0564 68.6988 40.1223 68.6764 40.2019C68.6663 40.2374 68.6863 40.2787 68.6764 40.3143C68.6539 40.3939 68.6037 40.4597 68.5812 40.5393C68.5611 40.6104 68.6013 40.6931 68.5812 40.7642C68.5588 40.8437 68.5032 40.9078 68.486 40.9891C68.4707 41.0618 68.5014 41.1413 68.486 41.2141C68.4516 41.3767 68.3406 41.5049 68.2957 41.6639C68.2656 41.7706 68.3144 41.8911 68.2957 42.0014C68.3175 42.2272 68.1468 42.3678 68.1054 42.5637C68.0823 42.6728 68.1355 42.7944 68.1054 42.9011C68.0829 42.9806 68.0327 43.0465 68.0102 43.126C67.9901 43.1972 68.0303 43.2798 68.0102 43.351C68.0675 43.5546 67.8561 43.5602 67.8199 43.6884C67.7998 43.7595 67.84 43.8422 67.8199 43.9133C67.8057 43.9636 67.7356 43.9743 67.7247 44.0258C67.7016 44.1349 67.7247 44.2507 67.7247 44.3632C67.7247 44.4007 67.7389 44.4421 67.7247 44.4757C67.7046 44.523 67.6496 44.5408 67.6296 44.5882C67.6154 44.6217 67.6296 44.6632 67.6296 44.7006V44.8131C67.6296 44.8731 67.6431 45.3432 67.6296 45.3754C67.6094 45.4228 67.5545 45.4405 67.5344 45.4879C67.5219 45.5175 67.5344 45.879 67.5344 45.9378V47.0625V49.5369V50.5491C67.5344 50.6792 67.5556 51.011 67.5344 51.1114C67.5171 51.1927 67.4617 51.2568 67.4392 51.3364C67.4191 51.4075 67.4392 51.4863 67.4392 51.5613V52.2361V52.3486C67.4392 52.3861 67.4534 52.4275 67.4392 52.461C67.4191 52.5084 67.3641 52.5261 67.3441 52.5735C67.3141 52.6444 67.3741 53.0649 67.3441 53.1359C67.324 53.1832 67.269 53.2009 67.2489 53.2483C67.2205 53.3154 67.269 53.4021 67.2489 53.4733C67.2172 53.5483 67.1854 53.6232 67.1537 53.6982C67.1537 53.7357 67.1638 53.7751 67.1537 53.8107C67.1313 53.8902 67.0758 53.9543 67.0586 54.0356C67.0419 54.1144 67.0586 54.6697 67.0586 54.7104C67.0586 54.7479 67.0686 54.7873 67.0586 54.8229C67.0361 54.9024 66.9859 54.9683 66.9634 55.0478C66.9534 55.0834 66.9634 55.1228 66.9634 55.1603V55.3852V56.1725C66.9634 56.2475 66.9835 56.3263 66.9634 56.3975C66.941 56.477 66.8907 56.5429 66.8682 56.6224C66.8483 56.6932 66.8682 57.0834 66.8682 57.1847V58.5344V59.9965C66.8682 60.0757 66.8515 60.4895 66.8682 60.5588C66.9152 60.7529 66.9951 60.9337 67.1537 61.571Z" fill="#FF0000"/>
<path d="M33.2375 84.0407C23.6021 82.8533 21.3055 62.5409 31.1486 59.9472C40.4396 59.4595 41.0488 73.3874 38.419 80.9681C37.6935 83.4448 35.3856 85.2395 33.2375 84.0407Z" fill="white" stroke="#1A1A1A" stroke-width="0.99042" stroke-linecap="round" stroke-linejoin="round"/>
<path d="M22.6692 31.5625C25.524 41.7289 38.078 43.4971 45.0843 39.2319C50.1287 32.8749 47.62 18.9656 39.2503 18.6818C31.4202 17.0197 19.5712 18.201 22.6692 31.5625Z" fill="white" stroke="#1A1A1A" stroke-width="0.99042" stroke-linecap="round" stroke-linejoin="round"/>
<path d="M59.8191 60.4821C57.8894 68.4895 64.113 57.3644 60.0706 59.1267L60.2113 59.7014L59.8191 60.4821Z" fill="#338000" stroke="#1A1A1A" stroke-width="0.99042" stroke-linecap="round" stroke-linejoin="round"/>
<path d="M59.8196 52.6285C57.1697 42.9817 65.4626 56.3605 59.8196 52.6285Z" fill="#338000" stroke="#1A1A1A" stroke-width="0.99042" stroke-linecap="round" stroke-linejoin="round"/>
<path d="M55.5898 46.202C55.8296 38.9657 66.5322 47.9187 58.1032 45.8009C57.4086 45.9053 56.1566 47.3807 55.5898 46.202Z" fill="#677821"/>
<path d="M56.1952 65.4744C58.1585 68.4332 64.8814 65.9945 58.3163 69.6258C56.3862 70.6473 51.8479 64.5839 56.1952 65.4744Z" fill="#677821"/>
<path d="M33.7629 74.5312C35.7965 70.6792 29.5253 73.3076 33.7629 74.5312Z" fill="#1A1A1A" stroke="#1A1A1A" stroke-width="0.785918" stroke-linecap="round" stroke-linejoin="round"/>
<path d="M35.5842 33.2926C37.9784 34.5453 40.3499 30.4616 36.365 30.3799C35.2471 30.6353 34.7521 32.3119 35.5842 33.2926Z" fill="#1A1A1A" stroke="#1A1A1A" stroke-width="0.68916" stroke-linecap="round" stroke-linejoin="round"/>
<path d="M70.0893 61.55C61.7288 59.2537 76.2771 51.9484 73.0329 61.4171C72.1656 62.2212 71.0373 61.766 70.0893 61.55Z" fill="#FFDD55" stroke="#1A1A1A" stroke-width="0.99042" stroke-linecap="round" stroke-linejoin="round"/>
<path d="M67.674 63.3379C66.3501 72.157 78.9863 59.0101 69.0178 60.4901C67.932 60.6418 67.2206 62.1381 67.674 63.3379Z" fill="#FFE680" stroke="#1A1A1A" stroke-width="0.99042" stroke-linecap="round" stroke-linejoin="round"/>
<path d="M70.6956 55.8359C62.0515 51.83 78.5085 47.9993 72.9561 55.7065L71.79 55.7809L70.6956 55.8359Z" fill="#FFE680" stroke="#1A1A1A" stroke-width="0.99042" stroke-linecap="round" stroke-linejoin="round"/>
<path d="M72.5028 51.1948C63.8519 53.7177 68.5788 41.908 73.8644 48.7674C75.1773 49.946 73.7489 51.5424 72.5028 51.1948Z" fill="#FFD42A" stroke="#1A1A1A" stroke-width="0.99042" stroke-linecap="round" stroke-linejoin="round"/>
<path d="M73.7138 45.8417C74.3218 38.2295 63.8954 47.3553 72.602 45.9519C72.9726 45.9151 73.3432 45.8784 73.7138 45.8417Z" fill="#FFE680" stroke="#1A1A1A" stroke-width="0.99042" stroke-linecap="round" stroke-linejoin="round"/>
<path d="M73.4106 41.9134C73.2023 33.3272 64.6817 42.7006 73.4106 41.9134Z" fill="#FFDD55" stroke="#1A1A1A" stroke-width="0.99042" stroke-linecap="round" stroke-linejoin="round"/>
<path d="M74.6191 65.4766C70.4316 60.4306 81.8652 62.1284 74.6191 65.4766Z" fill="#FFD42A" stroke="#1A1A1A" stroke-width="0.99042" stroke-linecap="round" stroke-linejoin="round"/>
<path d="M76.9403 62.7266C75.3434 53.1968 77.9935 44.4545 78.7526 35.596" stroke="#1A1A1A" stroke-width="0.99042" stroke-linecap="round" stroke-linejoin="round"/>
<path d="M70.0867 70.1172C63.4504 64.2783 69.1262 53.3375 67.5763 45.4881C67.2593 39.6666 71.325 32.8885 78.2545 36.0728" stroke="#1A1A1A" stroke-width="0.99042" stroke-linecap="round" stroke-linejoin="round"/>
<path d="M65.2578 37.9922C66.5748 32.9727 71.4325 30.7996 75.5279 31.5666" stroke="#1A1A1A" stroke-width="0.99042" stroke-linecap="round" stroke-linejoin="round"/>
<path d="M64.3488 71.5442C63.2616 69.8148 69.1316 75.6745 69.7856 72.6151" stroke="#1A1A1A" stroke-width="0.99042" stroke-linecap="round" stroke-linejoin="round"/>
<path d="M46.2266 42.2734C52.6408 40.1052 52.9711 30.6439 49.5491 25.1382" stroke="#1A1A1A" stroke-width="0.99042" stroke-linecap="round" stroke-linejoin="round"/>
<path d="M39.582 83.3281C41.9945 79.4226 42.7421 73.9855 41.3943 69.4064" stroke="#1A1A1A" stroke-width="0.99042" stroke-linecap="round" stroke-linejoin="round"/>
<path d="M26.5933 84.75C23.6656 79.808 23.1502 73.4628 22.9688 67.6147" stroke="#1A1A1A" stroke-width="0.99042" stroke-linecap="round" stroke-linejoin="round"/>
<path d="M0.345138 52.6615C0.500187 52.8007 0.657022 52.9168 0.837521 53.0494C2.46754 53.6263 5.07446 53.8448 4.0497 50.9711C5.31057 46.7004 10.3779 48.0367 12.5371 45.9278C12.7369 43.1959 6.29504 43.5755 9.79383 41.3001C11.7547 40.1956 14.7572 41.0964 16.2417 39.6929C15.9667 38.2043 12.7412 37.5987 15.2101 36.1736C17.2198 34.5739 21.2468 34.7595 19.7822 30.6592C18.3425 28.8291 18.6888 25.4531 21.0484 25.5881C21.1593 23.1529 14.665 24.3668 18.2582 21.2099C20.6704 19.3995 22.8184 17.1376 25.0343 15.0304C28.4432 12.5247 32.4408 11.2868 36.4058 12.4534C39.6354 12.5113 43.8133 16.5705 46.3937 14.0883C43.3976 11.7982 38.5434 12.1182 34.8579 10.6522C31.339 9.90248 28.1382 11.8982 24.7754 12.7028C22.0286 13.7098 19.512 12.1344 16.8973 11.539C14.4484 13.2032 12.1859 15.3556 10.2384 18.2449C9.5906 19.4014 13.8716 22.4464 13.263 23.6485C12.6544 24.8505 10.7496 26.8662 10.1914 28.1098C9.63324 29.3535 20.9177 33.7228 5.15031 33.1531C3.95831 33.11 6.98051 34.6366 6.55712 35.9518C6.1337 37.2672 7.34171 39.8437 7.00261 41.1891C6.6635 42.5344 3.84633 43.2814 3.60286 44.6528C3.35934 46.0244 3.29399 48.4963 3.15737 49.8901C3.03244 51.1645 0.750036 51.5282 0.34375 52.6611L0.345138 52.6615Z" fill="#AA0000"/>
<path d="M41.8061 88.6751C29.8216 90.9851 16.5948 88.8091 6.98798 79.8369C4.2607 76.3804 2.85416 72.0361 2.08936 67.35C1.41489 63.2174 1.24764 58.8816 1.08693 54.7154C1.06478 54.1411 1.04275 53.5701 1.01953 53.0032C1.02414 52.9228 1.06144 52.819 1.22903 52.659C1.42142 52.4754 1.69646 52.3017 2.06205 52.0793C2.07994 52.0684 2.09808 52.0574 2.11646 52.0462C2.43976 51.8499 2.83418 51.6103 3.15352 51.3245C3.50103 51.0134 3.84418 50.5747 3.90368 49.9677C3.95464 49.4479 3.99545 48.7781 4.03761 48.0862C4.05328 47.8289 4.06914 47.5686 4.08578 47.3119C4.14869 46.3409 4.22273 45.4179 4.33618 44.7789C4.35576 44.6686 4.4411 44.5025 4.69686 44.2643C4.94995 44.0286 5.2848 43.7984 5.68221 43.5308C5.70182 43.5176 5.72161 43.5043 5.74155 43.4909C6.10254 43.2481 6.51333 42.9718 6.85456 42.6695C7.21055 42.3542 7.58276 41.9334 7.72191 41.3813C7.84154 40.9067 7.81459 40.3804 7.75221 39.9015C7.69283 39.4457 7.58993 38.959 7.49419 38.5061C7.48753 38.4746 7.48091 38.4433 7.47433 38.4121C7.36993 37.9174 7.27748 37.4648 7.23376 37.0594C7.18899 36.6444 7.20597 36.3607 7.26373 36.1813C7.46875 35.5443 7.22891 34.9622 6.97826 34.5615C6.83802 34.3372 6.6673 34.1259 6.49573 33.9358C9.62324 33.9976 11.586 33.8346 12.7265 33.4938C13.3543 33.3061 13.9399 33.0058 14.2001 32.4546C14.4862 31.8486 14.2386 31.272 13.9926 30.9021C13.7379 30.5192 13.3584 30.1565 12.9906 29.8407C12.6888 29.5816 12.3561 29.3222 12.0522 29.0853C11.9799 29.0289 11.9092 28.9738 11.841 28.9203C11.4674 28.6273 11.1776 28.3896 10.997 28.1987C10.9919 28.1933 10.987 28.1881 10.9823 28.183C11.2569 27.6841 11.7422 27.0405 12.2958 26.324C12.3376 26.2699 12.3799 26.2153 12.4224 26.1603C12.9899 25.4271 13.6087 24.6276 13.9293 23.9944C14.1204 23.617 14.0859 23.2277 13.9992 22.9242C13.9131 22.6226 13.755 22.3295 13.585 22.0655C13.2516 21.5477 12.7668 20.9842 12.3277 20.4739L12.305 20.4475C11.8376 19.9042 11.4221 19.4188 11.156 19.0039C11.0233 18.7968 10.9569 18.6508 10.9318 18.5589L10.9304 18.5539C14.6722 13.0562 19.5289 10.3325 24.8938 8.48544C27.5062 7.58604 30.2251 6.89894 33.0025 6.19714L33.3142 6.11834C36.183 5.39314 39.1081 4.64394 41.9689 3.62684C50.5929 1.03194 58.265 -0.0911627 69.6408 2.44044C75.6407 3.85204 80.8416 8.29594 84.4093 14.3351C87.9751 20.371 89.8697 27.9397 89.2925 35.477C89.2914 35.4919 89.2907 35.5069 89.2905 35.5218C89.1819 42.3159 88.7563 49.9141 86.9629 56.6896C85.173 63.4522 82.0473 69.2949 76.6174 72.7358C73.0668 74.4439 69.5408 76.455 66.0339 78.4552C63.8554 79.6977 61.6843 80.936 59.5194 82.0948C53.8054 85.1533 48.0296 87.723 41.8812 88.6597C41.8557 88.6636 41.8306 88.6687 41.8061 88.6751Z" stroke="#1A1A1A" stroke-width="1.48563" stroke-linecap="round" stroke-linejoin="round"/>
</g>
</g>
<defs>
<clipPath id="clip0_394_19863">
<rect width="90" height="90" fill="white" transform="matrix(0 -1 1 0 0 90)"/>
</clipPath>
</defs>
</svg>
