<svg width="71" height="68" viewBox="0 0 71 68" fill="none" xmlns="http://www.w3.org/2000/svg">
<path d="M58.9639 2.55957C60.0898 2.88716 60.8493 3.58565 61.3945 4.30371C61.9003 4.96977 62.3073 5.78249 62.6094 6.32812L62.668 6.43359L63.375 7.71289C66.914 14.1383 70.3572 21.0602 67.5166 29.3174L67.4502 29.5078L67.3369 29.6748C64.1948 34.2782 62.8052 38.1095 62.3096 40.9727C61.8062 43.8806 62.2351 45.7035 62.5811 46.3779L62.7373 46.6816L62.7461 47.0234C62.77 47.9249 62.9037 49.2523 63.1631 50.5352C63.4334 51.8723 63.7967 52.9325 64.168 53.4668L65.0859 54.7881L63.7041 55.6113L53.0117 61.9814L52.9805 62L52.9473 62.0176L50.1953 63.4785L47.8096 64.7441L47.9961 62.0498C48.9649 48.0336 45.4792 39.4953 40.9766 34.4678C36.4758 29.4424 30.8083 27.7518 27.0205 27.7061C24.3453 27.9939 20.6292 27.9346 17.0195 27.6084C13.3726 27.2788 9.67543 26.6646 7.16699 25.79L7.13379 25.7783L7.10059 25.7646C5.7759 25.231 3.67958 24.4961 2.66016 22.4697L2.31445 21.7832L2.66992 21.1016L2.93945 20.5859L3.18652 20.1123L3.67773 19.9014C5.13838 19.2746 6.50879 19.5675 7.39746 19.6426C11.9678 19.9871 16.2175 20.087 20.6826 19.5439C21.5703 19.2149 22.8385 18.9472 24.2031 18.7305C25.7272 18.4884 27.5074 18.2876 29.2998 18.1396C32.8392 17.8476 36.6087 17.7481 38.6035 18.0039L38.6709 18.0127L38.7363 18.0273L41.1338 18.5566L41.2012 18.5713L41.2666 18.5928C44.6899 19.6843 47.1097 21.0098 49.2139 22.8125C51.0218 24.3615 52.5565 26.2324 54.2715 28.4697L55.0195 29.4512L55.0547 29.498L55.0859 29.5469C55.2047 29.732 55.3055 29.9034 55.3916 30.0537C57.3316 26.8129 58.4933 24.4504 58.9814 22.0186C59.4823 19.523 59.3022 16.8111 58.2588 12.8398C57.9695 11.7387 57.5118 10.2194 57.1797 8.7832C56.8434 7.3288 56.5733 5.72142 56.6807 4.26074L56.7217 3.70801L57.1113 3.31445L57.4795 2.94336L58.1074 2.31055L58.9639 2.55957Z" fill="#8EAD4D" stroke="black" stroke-width="3"/>
<path d="M56.5362 50.2615C58.4089 49.7885 60.4462 50.441 61.1165 51.7274C61.7872 53.0138 60.8435 54.4616 58.9952 54.9825C57.7695 55.3265 56.3866 55.1861 55.3796 54.6179C54.3721 54.0467 53.8971 53.1342 54.137 52.2305C54.3766 51.3298 55.2943 50.5757 56.5362 50.2615Z" fill="#ECDF67"/>
<path d="M57.3676 46.141C58.3775 45.8859 59.4761 46.2377 59.8376 46.9314C60.1993 47.6251 59.6903 48.4058 58.6937 48.6867C58.0327 48.8722 57.287 48.7965 56.7439 48.4901C56.2007 48.1821 55.9445 47.69 56.0739 47.2027C56.2031 46.717 56.6979 46.3104 57.3676 46.141Z" fill="#ECDF67"/>
</svg>
