<svg width="42" height="40" viewBox="0 0 42 40" fill="none" xmlns="http://www.w3.org/2000/svg">
<path d="M13.8966 2.86398C15.5004 2.73215 17.2522 2.59578 19.1261 3.36008L19.503 3.52512L19.504 3.52609C20.0904 3.80231 20.7175 4.26553 21.3233 4.77707C21.95 5.30624 22.6399 5.96084 23.3605 6.69113C24.8027 8.15302 26.4272 9.97769 28.0099 11.8464C30.7737 15.1098 33.4718 18.5814 34.9239 20.6062L35.4669 21.3806L35.92 22.0613C36.9695 23.6685 37.9502 25.4138 38.6339 27.3054L38.7726 27.7048C39.0907 28.6622 39.3663 29.7906 39.464 30.9451C39.5742 32.2479 39.47 33.7235 38.8028 35.0242L38.8019 35.0232C38.1294 36.3356 36.8441 37.3276 35.4464 37.6853L35.4454 37.6863C33.954 38.067 32.5637 37.6775 31.4601 37.1863C30.3958 36.7126 29.3172 36.0016 28.6075 35.5876L28.5812 35.572L28.5558 35.5564C21.1204 30.8222 14.2789 24.0797 7.82234 18.3787L6.5362 17.2537C5.37414 16.2476 4.37662 15.3421 3.66511 14.5017C2.96963 13.6801 2.35188 12.6986 2.32331 11.5417C2.29324 10.3224 2.91854 9.33398 3.72663 8.52512C4.52593 7.7251 5.67774 6.92487 7.10652 6.05344C9.33118 4.69809 10.9909 3.84484 13.506 2.94797L13.6954 2.88059L13.8966 2.86398Z" fill="#FDEDCC" stroke="#2B2B2B" stroke-width="3.07692"/>
</svg>
