<svg width="81" height="78" viewBox="0 0 81 78" fill="none" xmlns="http://www.w3.org/2000/svg">
<path d="M73.5292 19.6183C74.4452 20.3503 74.8811 21.2856 75.1115 22.1572C75.3253 22.9658 75.3918 23.8723 75.4631 24.4919L75.477 24.6117L75.6431 26.0639C76.4658 33.3532 77.0108 41.065 71.2373 47.6161L71.1033 47.7668L70.9349 47.8781C66.2754 50.9363 63.5304 53.9487 61.9808 56.4068C60.4071 58.9034 60.1088 60.7521 60.1715 61.5075L60.2002 61.8478L60.0781 62.1672C59.7565 63.0097 59.3742 64.2879 59.1251 65.5727C58.8653 66.912 58.7971 68.0306 58.9367 68.6661L59.2817 70.2375L57.6904 70.4719L45.3772 72.2857L45.3412 72.2909L45.3038 72.2945L42.2027 72.5962L39.5147 72.857L40.7141 70.4371C46.9522 57.8482 46.984 48.6259 44.7376 42.2617C42.4921 35.9002 37.8969 32.177 34.4124 30.691C31.8295 29.9374 28.4165 28.4661 25.2036 26.7887C21.9577 25.094 18.7737 23.1169 16.788 21.3522L16.7617 21.3287L16.7363 21.3034C15.715 20.3051 14.057 18.8267 13.8869 16.5647L13.829 15.7983L14.4174 15.3036L14.8632 14.9296L15.2721 14.5859L15.8066 14.5781C17.3959 14.5554 18.5512 15.3485 19.3442 15.7567C23.4382 17.8173 27.329 19.5294 31.664 20.7293C32.6102 20.7634 33.8846 20.9993 35.2289 21.3191C36.7302 21.6762 38.4525 22.169 40.166 22.7155C43.5495 23.7946 47.0723 25.1393 48.8191 26.1362L48.878 26.17L48.9329 26.2085L50.9477 27.6116L51.0044 27.6509L51.0567 27.6957C53.8055 30.0096 55.5374 32.1574 56.7956 34.626C57.8767 36.7473 58.5824 39.0618 59.3151 41.7839L59.6326 42.9764L59.6472 43.0332L59.6575 43.0902C59.6968 43.3066 59.7246 43.5035 59.7469 43.6753C62.7757 41.4186 64.7503 39.6772 66.1285 37.615C67.5427 35.4987 68.4098 32.9229 68.9589 28.8538C69.1112 27.7255 69.2671 26.1464 69.5075 24.692C69.7509 23.2192 70.1139 21.6303 70.7699 20.3208L71.0185 19.8254L71.5288 19.6101L72.0106 19.4073L72.8323 19.0616L73.5292 19.6183Z" fill="#180D24" stroke="black" stroke-width="3"/>
<path d="M50.009 66.4056C50.3363 66.4685 50.6637 66.5315 50.991 66.5944C51.2482 65.8673 51.4955 65.1383 51.7331 64.4074C52.8704 60.9091 53.7837 57.3677 54.473 53.7833C54.473 53.7833 54.473 53.7833 54.473 53.7833L54.4956 53.385C54.1622 49.0516 53.7755 44.7224 53.3353 40.3973L53.1543 39.821C51.4178 37.0288 49.6548 34.2521 47.8654 31.4909L47.7525 31.2783L47.4698 31.1126C45.2609 30.063 43.0441 29.0283 40.8194 28.0086C40.125 27.6903 39.4299 27.3735 38.7339 27.0581C38.578 27.3527 38.422 27.6473 38.2661 27.9419C38.9181 28.3402 39.5709 28.737 40.2245 29.1323C42.3185 30.399 44.4204 31.6507 46.5302 32.8874L46.1346 32.5091C47.6785 35.4146 49.2489 38.3046 50.8457 41.179L50.6647 40.6027C50.8912 44.9443 51.1711 49.2817 51.5044 53.615L51.527 53.2167C51.527 53.2167 51.527 53.2167 51.527 53.2167C50.8377 56.8012 50.3723 60.4287 50.131 64.0993C50.0805 64.8662 50.0399 65.6349 50.009 66.4056Z" fill="#FF9801"/>
</svg>
