<svg width="70" height="146" viewBox="0 0 70 146" fill="none" xmlns="http://www.w3.org/2000/svg">
<path d="M31.1487 2.53162C33.0137 1.17236 35.0355 1.41134 36.6096 1.81677C37.3762 2.01425 38.1892 2.29537 38.8147 2.48962C39.436 2.68255 39.9339 2.81065 40.3567 2.85681C40.5309 2.56107 40.8163 2.22649 41.2874 2.02087C42.1423 1.64673 43.0347 1.70428 43.7493 1.85486C44.4775 2.00836 45.1949 2.29672 45.8088 2.57751C46.4089 2.85195 47.0367 3.18027 47.4631 3.39001C47.6946 3.50389 47.8767 3.58874 48.0208 3.64685C48.1194 3.68663 48.1699 3.70153 48.1829 3.70544L48.2063 3.70837L48.2463 3.71619L51.2874 4.29333C51.6804 4.17769 52.081 4.13328 52.4495 4.12634C53.0092 4.11583 53.6046 4.1859 54.1956 4.30017C55.3775 4.52873 56.6903 4.96433 57.9417 5.48376C59.1991 6.00573 60.4433 6.63301 61.4915 7.26892C62.4956 7.87813 63.4603 8.57836 64.0344 9.28259L64.1399 9.4281C64.231 9.56883 64.2799 9.68918 64.2932 9.72107C64.328 9.80441 64.3551 9.88524 64.3752 9.94763C64.4017 10.0299 64.4238 10.1178 64.4465 10.2015C65.7248 10.8307 67.2931 11.7441 68.0129 13.7582H68.012C68.0954 13.9915 68.1321 14.2514 68.1516 14.4047C68.1765 14.6 68.1972 14.8336 68.2161 15.0931C68.2539 15.6146 68.2866 16.303 68.3147 17.1254C68.371 18.7737 68.4119 21.0152 68.4407 23.6556C68.4982 28.9396 68.5079 35.8593 68.4954 42.9076C68.4702 57.0328 68.3557 71.6204 68.3557 74.7963L68.3606 110.332C68.3606 116.285 68.3704 122.243 68.345 128.201V128.202C68.3367 129.931 67.897 131.268 66.9387 132.318C66.2765 133.043 65.4306 133.549 64.5745 133.969L64.5442 134.824C64.536 135.102 64.5321 135.604 64.3967 136.081C64.2314 136.663 63.8956 137.172 63.3499 137.582L63.3479 137.584C60.7019 139.57 57.387 140.825 54.4973 141.733L54.4954 141.734C53.9448 141.906 53.0603 142.193 52.1965 142.039C51.5526 141.925 51.0535 141.61 50.6653 141.18C49.8385 141.355 48.88 141.553 48.0452 141.684C47.7375 142.014 47.383 142.281 47.05 142.491C46.4822 142.849 45.829 143.137 45.1858 143.348C44.5424 143.559 43.86 143.709 43.22 143.762C42.6262 143.811 41.8761 143.795 41.2249 143.498L40.72 143.269L40.4856 142.765C40.4454 142.678 40.413 142.611 40.386 142.554C40.0053 142.587 39.6047 142.611 39.2209 142.63C39.1523 142.961 39.035 143.28 38.8567 143.626L38.47 144.376L37.6292 144.436C36.0101 144.551 34.0785 144.478 32.5813 144.459L32.0715 144.453L31.6721 144.138C31.4862 143.992 31.246 143.781 31.0588 143.485C30.8506 143.155 30.7818 142.84 30.7551 142.601C30.3803 142.573 30.005 142.542 29.6399 142.508C29.6305 142.531 29.621 142.553 29.6116 142.577L29.3928 143.114L28.8694 143.364C28.2234 143.672 27.4937 143.746 26.8547 143.727C26.1935 143.707 25.5021 143.582 24.8528 143.383C24.2041 143.185 23.5519 142.899 22.9817 142.528C22.6247 142.296 22.2618 142.004 21.9534 141.648C20.8783 141.439 19.8075 141.212 18.7415 140.964C18.6678 141.081 18.5896 141.204 18.5012 141.34L18.2004 141.805L17.6702 141.963C17.1478 142.119 16.5799 142.084 16.1477 142.029C15.6705 141.967 15.1415 141.848 14.5999 141.699C13.513 141.398 12.2542 140.937 11.0334 140.415C9.81109 139.893 8.58837 139.293 7.57642 138.702C7.07097 138.406 6.59855 138.103 6.19849 137.801C5.81847 137.515 5.41932 137.168 5.13501 136.775V136.774C4.74363 136.232 4.71138 135.596 4.70239 135.311C4.69172 134.972 4.71729 134.562 4.72778 134.301C4.73872 134.029 4.73845 133.821 4.72388 133.655C3.37921 132.935 2.50283 131.999 2.02856 130.753C1.54566 129.485 1.55005 128.025 1.55005 126.661C1.55005 118.217 1.58006 109.818 1.57544 101.383V44.9193L1.56372 27.1097C1.54575 23.3167 1.32104 18.1214 1.84106 14.1127V14.1117C1.98694 12.9952 2.70897 12.1646 3.29321 11.6361C3.7617 11.2124 4.28289 10.8588 4.71899 10.5873C4.83523 10.1607 4.94952 9.82117 5.12427 9.33533L5.2356 9.02478L5.46802 8.78943C5.99973 8.25122 6.82629 7.72444 7.66528 7.26013C8.54142 6.77529 9.56812 6.28542 10.6028 5.84119C12.6161 4.97681 14.8783 4.19211 16.2073 4.0238C16.8004 3.94866 17.3725 3.9959 17.928 4.29138C18.0446 4.35346 18.1498 4.42038 18.2415 4.48572C19.4367 4.21854 20.79 3.97914 21.8743 3.76892C21.9011 3.74605 21.9368 3.71823 21.9807 3.67908C22.059 3.60934 22.2004 3.48104 22.3401 3.37146C22.4668 3.27207 22.7198 3.08304 23.052 2.97107L23.054 2.97009C23.361 2.86719 23.6898 2.73544 24.0979 2.57556C24.4862 2.42344 24.9325 2.25255 25.3938 2.11169C26.2299 1.85645 27.323 1.63262 28.4358 1.93396L28.6584 2.00134L29.2795 2.20935L29.5491 2.80603C29.5687 2.84938 29.5865 2.88712 29.6018 2.92029L29.9973 2.87634H29.9993L30.2688 2.84705V2.84802C30.5129 2.81955 30.6292 2.80677 30.7375 2.79138C30.755 2.7889 30.7696 2.78929 30.7805 2.78748C30.7857 2.78439 30.7922 2.78065 30.8 2.77576C30.8657 2.73458 30.963 2.66691 31.1487 2.53162Z" fill="#272727" stroke="black" stroke-width="3"/>
<path d="M7.28296 132.537C9.6624 132.705 14.3199 133.617 16.9138 134.369C16.918 134.989 16.9232 135.886 16.947 136.706C16.9636 137.277 16.9914 137.848 17.0378 138.327C17.061 138.566 17.0893 138.793 17.1267 138.991C17.138 139.051 17.154 139.114 17.1697 139.179C17.0497 139.415 16.9457 139.591 16.7996 139.821C16.7076 139.82 16.5875 139.814 16.4353 139.795C16.1007 139.752 15.6824 139.662 15.2 139.528C14.237 139.262 13.0765 138.84 11.9187 138.345C10.7616 137.85 9.62622 137.29 8.71265 136.757C8.25556 136.49 7.86248 136.235 7.55444 136.003C7.25374 135.776 7.06973 135.597 6.97632 135.475C6.9717 135.454 6.95845 135.386 6.95386 135.24C6.94656 135.009 6.96405 134.745 6.97827 134.391C6.99144 134.064 7.00021 133.677 6.95288 133.301C6.92976 133.117 6.89115 132.921 6.8269 132.725C6.87387 132.685 6.91742 132.651 6.96069 132.623C7.06424 132.556 7.15318 132.528 7.28296 132.537Z" fill="#323232" stroke="black" stroke-width="1.50426"/>
<path d="M56.9857 133.252C59.011 132.828 60.9263 132.536 62.0033 132.58C62.0356 132.599 62.065 132.617 62.0922 132.633C62.1406 132.661 62.1759 132.683 62.2045 132.7C62.2067 132.706 62.2097 132.713 62.2123 132.72C62.2421 132.807 62.2872 132.936 62.3519 133.112L62.2933 134.742V134.746C62.2819 135.122 62.2748 135.311 62.2308 135.466C62.2012 135.57 62.153 135.664 61.9965 135.783C59.669 137.529 56.6583 138.694 53.8226 139.584C53.1553 139.793 52.8169 139.863 52.5912 139.823C52.5006 139.806 52.3426 139.763 52.1439 139.392C52.1514 139.328 52.1591 139.267 52.1635 139.213C52.1782 139.029 52.1883 138.803 52.1957 138.555C52.2104 138.058 52.2133 137.44 52.2113 136.82C52.2084 135.945 52.1944 135.043 52.1849 134.448C53.3788 134.093 55.1806 133.631 56.9857 133.252Z" fill="#323232" stroke="black" stroke-width="1.50426"/>
<path d="M52.4919 6.37836C52.8456 6.37172 53.2759 6.41596 53.7683 6.51117C54.7533 6.70167 55.9145 7.08058 57.0789 7.5639C58.2402 8.04601 59.3808 8.62222 60.323 9.19379C61.2329 9.74583 61.8948 10.2585 62.2332 10.643C62.2531 10.7057 62.2772 10.7919 62.3025 10.8911C62.3388 11.0333 62.371 11.1826 62.3943 11.2885C62.3166 12.0405 62.2339 12.805 62.1697 13.5756C61.199 13.4508 60.2056 13.2575 59.2136 13.06C58.0015 12.8187 56.7752 12.5704 55.6697 12.4789C54.5384 12.2312 53.793 12.0535 52.6179 11.9965C52.5023 11.8699 52.3816 11.6553 52.281 11.3061C52.148 10.8443 52.081 10.2538 52.0593 9.59125C52.0379 8.93471 52.0615 8.24427 52.0935 7.59222C52.1138 7.18033 52.1347 6.77105 52.1511 6.4057C52.249 6.39168 52.3621 6.3808 52.4919 6.37836Z" fill="#323232" stroke="black" stroke-width="1.50426"/>
<path d="M16.4899 6.25726C16.7691 6.22187 16.8402 6.26349 16.8707 6.27972C16.9054 6.29822 16.9533 6.33113 17.0387 6.40277C17.0486 6.41112 17.0586 6.42028 17.069 6.42914C16.917 8.05196 16.9524 10.0236 16.9655 11.645C14.0661 12.331 10.0406 13.2444 7.13635 13.5971L6.69397 11.8676L6.72717 11.8344L6.77502 11.6352C6.90968 11.0765 7.00505 10.77 7.1842 10.2651C7.50001 9.98478 8.03849 9.62724 8.75647 9.22992C9.55059 8.7905 10.5065 8.3336 11.4918 7.91058C13.4909 7.05232 15.5005 6.38261 16.4899 6.25726Z" fill="#323232" stroke="black" stroke-width="1.50426"/>
<path d="M32.6348 4.24255C33.6273 3.60492 34.744 3.66161 36.0479 3.99744C36.4715 4.10655 36.8853 4.23639 37.3086 4.37244C37.2773 4.44629 37.2543 4.5168 37.2373 4.57556C37.2009 4.70189 37.1732 4.84141 37.1504 4.98279C37.1047 5.26616 37.0721 5.61134 37.0488 5.98669C37.0021 6.74038 36.9882 7.67871 36.9902 8.62244C36.9932 10.017 37.0309 11.4722 37.0547 12.392C35.6318 12.4344 34.302 12.435 32.8711 12.4135C32.9014 11.4746 32.9502 10.0095 32.9629 8.60583C32.9714 7.65935 32.9635 6.71992 32.9229 5.96423C32.9026 5.58781 32.8738 5.24194 32.8311 4.9574C32.8097 4.81525 32.7834 4.67561 32.749 4.54919C32.7253 4.46186 32.6896 4.35228 32.6348 4.24255Z" fill="#323232" stroke="black" stroke-width="1.50426"/>
<path d="M33.0073 133.436C34.3722 133.544 35.7075 133.573 37.0435 133.597C37.0243 136.089 36.981 138.72 37.0415 141.196H37.0405C37.0405 141.651 37.057 141.832 37.0366 142.04C37.0311 142.096 37.0209 142.152 37.0054 142.214C35.7366 142.274 34.3131 142.234 32.9849 142.213C32.9771 142.031 32.9583 141.695 32.8716 141.297L32.8696 141.293L32.8257 141.099C32.8531 140.24 32.8613 138.423 32.8892 136.729C32.9038 135.838 32.925 134.976 32.9565 134.28C32.9722 133.936 32.989 133.653 33.0073 133.436Z" fill="#323232" stroke="black" stroke-width="1.50426"/>
<path d="M42.2742 4.05249C42.5152 3.97334 42.8456 3.96576 43.2849 4.05835C43.7716 4.16095 44.312 4.36972 44.8718 4.62573C45.4385 4.88491 45.9595 5.16052 46.4685 5.41089C46.4801 5.41658 46.4921 5.42183 46.5037 5.42749C46.4775 5.49579 46.4562 5.56456 46.4402 5.63354V5.63452C46.2131 6.6195 46.1998 7.76179 46.2214 8.82788C46.238 9.64437 46.273 10.408 46.2722 11.1023H42.2751C42.2609 10.9197 42.2468 10.6986 42.2361 10.4402C42.2104 9.81909 42.1998 9.06056 42.1951 8.27808C42.1862 6.80813 42.1986 5.22386 42.1755 4.41479C42.1928 4.34958 42.21 4.28917 42.2214 4.24292C42.2428 4.15652 42.2583 4.0984 42.2742 4.05249Z" fill="#323232" stroke="black" stroke-width="1.50426"/>
<path d="M26.0521 4.26483C26.6725 4.07546 27.2025 3.99819 27.6547 4.06952C27.7215 4.20304 27.7912 4.32764 27.8744 4.44745C27.9189 4.51153 27.9668 4.57149 28.016 4.63007C27.8721 4.98722 27.7873 5.38432 27.7328 5.76678C27.6412 6.40992 27.617 7.14775 27.6205 7.88202C27.624 8.61879 27.656 9.38181 27.682 10.0724C27.6964 10.4532 27.7081 10.8091 27.7142 11.132L23.7416 11.0724C23.7235 11.0082 23.7028 10.9137 23.6898 10.7785C23.6485 10.3465 23.6837 9.76958 23.722 9.05194C23.7585 8.36867 23.7953 7.58394 23.724 6.84979C23.6785 6.38101 23.5838 5.89022 23.3929 5.43573C23.4234 5.40912 23.4532 5.38426 23.4799 5.36053C23.5875 5.26463 23.6617 5.19798 23.7308 5.14374C23.8066 5.08432 23.8128 5.09056 23.7709 5.10468C24.1456 4.97904 24.5434 4.82028 24.9193 4.67303C25.3054 4.52178 25.6813 4.37805 26.0521 4.26483Z" fill="#323232" stroke="black" stroke-width="1.50426"/>
<path d="M46.2821 135.044C46.2726 135.711 46.2611 136.543 46.2684 137.357C46.2772 138.335 46.313 139.37 46.4286 140.11C46.305 140.251 46.1174 140.416 45.8485 140.586C45.4671 140.826 44.9897 141.043 44.4843 141.209C43.979 141.374 43.4705 141.482 43.0341 141.518C42.7524 141.541 42.5353 141.529 42.3798 141.504C42.3078 141.356 42.2339 141.211 42.1454 141.076C42.0831 140.981 42.0146 140.894 41.9413 140.808C41.9505 140.78 41.9615 140.753 41.9696 140.725C42.0431 140.475 42.0968 140.19 42.1376 139.894C42.2192 139.301 42.258 138.593 42.2753 137.888C42.2997 136.891 42.2825 135.81 42.2714 135.045C43.5621 135.012 44.9521 135.033 46.2821 135.044Z" fill="#323232" stroke="black" stroke-width="1.50426"/>
<path d="M27.6024 134.928C27.6254 135.073 27.6506 135.248 27.6718 135.454C27.7282 136.006 27.7643 136.679 27.787 137.378C27.8309 138.73 27.8248 140.095 27.8348 140.831C27.7866 141.076 27.7422 141.198 27.6542 141.411C27.4644 141.457 27.2195 141.485 26.9227 141.476C26.4873 141.462 25.9953 141.378 25.5116 141.23C25.0277 141.081 24.5745 140.877 24.2098 140.64C23.9257 140.455 23.7215 140.267 23.5907 140.094C23.6959 138.497 23.7226 136.646 23.7596 135.011C24.9708 135.033 26.3787 135.059 27.6024 134.928Z" fill="#323232" stroke="black" stroke-width="1.50426"/>
<path d="M7.13892 67.7666C8.70725 67.8597 10.6264 68.1904 12.5823 68.6006C14.7755 69.0606 16.9368 69.6028 18.6663 69.999C18.6687 70.0028 18.6723 70.0063 18.675 70.0107C18.7304 70.1019 18.7988 70.2666 18.8635 70.5205C18.9917 71.0229 19.0678 71.7166 19.0959 72.4717C19.1238 73.2193 19.1034 73.991 19.052 74.6328C18.9976 75.3109 18.916 75.7448 18.8616 75.8828L18.8606 75.8848C18.8212 75.9851 18.7851 76.0315 18.7639 76.0537C18.7434 76.0752 18.7149 76.0974 18.6614 76.1221C18.6004 76.1501 18.519 76.1769 18.387 76.2119C18.2835 76.2393 18.1188 76.2786 17.9612 76.3242C16.9087 76.5311 14.355 77.0916 11.8616 77.5322C10.608 77.7538 9.39405 77.9403 8.4231 78.0332C7.93647 78.0798 7.52749 78.1014 7.21313 78.0947C7.16604 78.0937 7.12324 78.0899 7.08423 78.0879C7.07737 78.0156 7.06854 77.9354 7.06177 77.8467C7.03426 77.4863 7.01134 77.0305 6.99341 76.5078C6.95757 75.4634 6.94287 74.1707 6.94946 72.874C6.95606 71.577 6.98427 70.283 7.03442 69.2354C7.05951 68.7113 7.08922 68.255 7.12427 67.8936C7.12857 67.8492 7.13461 67.8067 7.13892 67.7666Z" fill="#323232" stroke="black" stroke-width="1.50426"/>
<path d="M61.9735 53.4764C62.3131 54.4788 62.4357 55.8564 62.3915 57.2996C62.3529 58.5607 62.1885 59.8164 61.9696 60.824C61.7158 60.8453 61.3841 60.8513 60.9764 60.8279C60.3238 60.7905 59.5591 60.6953 58.7694 60.5731C57.1745 60.3261 55.5891 59.9884 54.6366 59.8182L54.6249 59.8162L54.6122 59.8143L54.2284 59.7527C53.5215 59.6289 52.8786 59.4575 52.1591 59.2596C52.1406 57.6122 52.2842 56.5321 52.5526 55.8104C52.8279 55.0701 53.232 54.7063 53.8143 54.4744C54.4674 54.2144 55.3451 54.1186 56.5946 54.0223C57.8042 53.9291 59.2902 53.8364 61.0145 53.5379C61.316 53.4984 61.59 53.4483 61.8446 53.4617C61.8992 53.4646 61.9418 53.4697 61.9735 53.4764Z" fill="#323232" stroke="black" stroke-width="1.50426"/>
<path d="M61.8875 41.3588C61.9147 41.368 61.9523 41.3903 62.031 41.4467C62.1241 41.7982 62.1966 42.2815 62.2439 42.8744C62.3002 43.5802 62.3189 44.3916 62.3162 45.2269C62.3119 46.547 62.2558 47.883 62.2156 48.9369C59.7767 48.7071 56.7198 48.1295 54.3083 47.7406L54.2673 47.7347L54.2253 47.7328L54.0603 47.7123C53.8467 47.6782 53.4961 47.6038 53.0818 47.5072C52.7946 47.4402 52.5167 47.3707 52.2742 47.3109C52.1652 45.8732 52.18 44.5039 52.1941 43.0209C54.9134 42.3794 58.8362 41.8324 61.575 41.4086L61.6267 41.4008L61.6775 41.3851C61.8425 41.3355 61.8835 41.3574 61.8875 41.3588Z" fill="#323232" stroke="black" stroke-width="1.50426"/>
<path d="M62.0562 29.3659C62.1257 29.629 62.1904 30.0466 62.2339 30.6169C62.2898 31.3495 62.3063 32.2318 62.3003 33.1432C62.2911 34.5366 62.2277 35.9616 62.1821 36.9772C59.6756 36.6659 56.815 36.1098 54.2603 35.7243L52.2583 35.3151C52.1651 33.9289 52.1786 32.4429 52.1841 30.9968L61.8862 29.2809L62.0562 29.3659Z" fill="#323232" stroke="black" stroke-width="1.50426"/>
<path d="M61.8125 17.3095C61.8301 17.3176 61.8719 17.341 61.96 17.3886C62.0787 17.6784 62.1823 18.121 62.251 18.7148C62.3323 19.4182 62.3589 20.2475 62.3545 21.1093C62.3476 22.469 62.2684 23.826 62.2148 24.8671C59.6581 24.6054 56.9708 24.0897 54.4062 23.622L54.3838 23.6181L54.3613 23.6152L53.7031 23.5224C53.2264 23.446 52.7421 23.3499 52.25 23.2538C52.1827 21.6082 52.3039 20.5215 52.5635 19.79C52.8314 19.0351 53.247 18.6488 53.8555 18.3964C54.5309 18.1163 55.4404 18.0013 56.7109 17.8867C57.9363 17.7761 59.4339 17.6676 61.1484 17.3613C61.3755 17.3496 61.5405 17.3348 61.6592 17.3232C61.7249 17.3168 61.7639 17.3123 61.7949 17.3105C61.8021 17.3101 61.8079 17.3097 61.8125 17.3095Z" fill="#323232" stroke="black" stroke-width="1.50426"/>
<path d="M62.0542 109.159C62.1386 109.468 62.2088 109.91 62.2544 110.47C62.3129 111.191 62.3288 112.036 62.3198 112.909C62.3057 114.28 62.2311 115.675 62.1772 116.722C59.8751 116.502 57.2132 115.962 54.9575 115.532L54.9341 115.528C54.0149 115.382 53.0949 115.246 52.1724 115.117L52.1782 110.791C55.043 110.197 59.0628 109.484 61.7144 109.198L61.7134 109.197C61.7836 109.19 61.8459 109.183 61.8989 109.176C61.9551 109.169 61.9949 109.165 62.0317 109.161C62.0399 109.16 62.0474 109.159 62.0542 109.159Z" fill="#323232" stroke="black" stroke-width="1.50426"/>
<path d="M6.96838 53.5015C8.18601 53.5456 9.95945 53.7836 11.8063 54.0933C13.7216 54.4144 15.6506 54.7997 16.9889 55.0728C16.9994 55.2776 17.0124 55.4896 17.025 55.7026C17.051 56.1411 17.0775 56.5924 17.0895 57.0386C17.1142 57.9555 17.0728 58.7486 16.8971 59.2827L16.8961 59.2856C16.8785 59.3398 16.8672 59.348 16.8746 59.3394C16.8822 59.3307 16.8833 59.3335 16.8551 59.3481C16.8182 59.3673 16.7627 59.3895 16.652 59.4272C16.573 59.4542 16.4611 59.4921 16.3405 59.5366C15.7714 59.6234 14.9785 59.7806 14.1119 59.9517C13.1948 60.1327 12.1774 60.3334 11.191 60.4995C10.2011 60.6663 9.26516 60.794 8.5094 60.8345C8.13101 60.8547 7.81693 60.8521 7.57483 60.8267C7.47328 60.816 7.39217 60.8007 7.32874 60.7856C7.21801 60.545 7.11186 60.1581 7.03381 59.6108C6.93832 58.9411 6.89683 58.1359 6.88733 57.2886C6.87184 55.9066 6.93537 54.5546 6.96838 53.5015Z" fill="#323232" stroke="black" stroke-width="1.50426"/>
<path d="M7.02808 121.192C10.2247 121.473 13.7873 122.181 16.9822 122.844C16.9918 123.065 17.0047 123.29 17.0173 123.514C17.0422 123.956 17.0673 124.397 17.0769 124.832C17.0965 125.718 17.0447 126.486 16.8367 127.061V127.063L16.8347 127.065C16.8277 127.069 16.8169 127.076 16.8015 127.084C16.7486 127.11 16.6789 127.137 16.5554 127.182C16.4644 127.216 16.3509 127.26 16.2253 127.311C13.244 127.841 9.99087 128.436 7.01147 128.685C6.92866 126.313 6.97723 123.6 7.02808 121.192Z" fill="#323232" stroke="black" stroke-width="1.50426"/>
<path d="M7.00793 97.1638C8.10652 97.2646 9.93135 97.4885 11.7609 97.7565C12.9288 97.9277 14.0832 98.1138 15.0304 98.2936C15.7962 98.439 16.3782 98.5725 16.7257 98.6774C16.7768 98.8013 16.8307 98.9734 16.8741 99.2038C16.9416 99.5616 16.9781 99.9903 16.9933 100.452C17.0213 101.302 16.9783 102.166 16.9581 102.826C16.9246 102.888 16.9001 102.932 16.88 102.968C16.8771 102.969 16.8743 102.971 16.8712 102.971C16.7544 103.002 16.5762 103.048 16.3273 103.126C15.297 103.356 13.3229 103.854 11.3947 104.195C10.425 104.367 9.49602 104.493 8.73352 104.525C8.35252 104.541 8.03108 104.534 7.77649 104.502C7.62028 104.482 7.50925 104.454 7.43372 104.429C7.28144 104.178 7.14273 103.773 7.04407 103.199C6.93063 102.539 6.88384 101.749 6.87708 100.914C6.8662 99.5694 6.95369 98.2305 7.00793 97.1638Z" fill="#323232" stroke="black" stroke-width="1.50426"/>
<path d="M7.05518 41.4246C8.28409 41.4892 10.1439 41.7678 12.0728 42.1024C13.8726 42.4146 15.5933 42.7448 16.9458 42.991C16.9987 44.3618 16.9709 45.9031 16.9585 47.3279L15.6392 47.6209C12.6561 48.1433 9.99222 48.5936 7.04834 48.9461C7.00296 47.9878 6.95923 46.6329 6.9458 45.2899C6.93008 43.7172 6.95873 42.2438 7.05518 41.4246Z" fill="#323232" stroke="black" stroke-width="1.50426"/>
<path d="M62.0551 85.0939C62.143 85.4209 62.2132 85.8658 62.2592 86.4152C62.3196 87.1379 62.3347 87.9771 62.3236 88.8419C62.3061 90.2043 62.2223 91.5917 62.1586 92.6437C59.8375 92.4067 57.0161 91.8578 54.7103 91.4698L54.7094 91.4689L53.1263 91.2179C52.814 91.1707 52.5014 91.1267 52.1888 91.0822L52.1693 86.7784C55.0487 86.0844 58.7801 85.5655 61.6742 85.1466C61.8005 85.1307 61.9403 85.1084 62.0023 85.0997C62.023 85.0968 62.0405 85.0956 62.0551 85.0939Z" fill="#323232" stroke="black" stroke-width="1.50426"/>
<path d="M7.0249 85.0914C9.74424 85.3036 14.3707 86.1843 17.0093 86.7848C17.0351 87.3797 17.068 88.0759 17.0688 88.7858C17.07 89.7642 17.0041 90.5858 16.8345 91.0338L16.8335 91.0348C16.8041 91.0463 16.758 91.0617 16.6694 91.0846C16.5988 91.1029 16.4937 91.1305 16.3813 91.1627C14.5941 91.3823 12.8985 91.7678 11.2925 92.0582C9.87009 92.3154 8.46974 92.5069 6.98389 92.4948C6.96072 90.0283 6.9749 87.5601 7.0249 85.0914Z" fill="#323232" stroke="black" stroke-width="1.50426"/>
<path d="M6.99646 29.4675C8.1815 29.5251 9.96863 29.7529 11.8129 30.0475C13.7568 30.3581 15.694 30.7287 16.9281 31.0095C16.9701 31.6171 17.0233 32.3575 17.0394 33.1052C17.0501 33.5977 17.0424 34.0694 17.0062 34.4763C16.9697 34.8862 16.9064 35.1744 16.8353 35.3454V35.3464C16.8003 35.3607 16.7488 35.3763 16.6527 35.4011C16.5826 35.4191 16.4772 35.4452 16.3685 35.4763C13.5401 35.963 9.88361 36.6753 7.04626 36.902C6.94604 34.5082 6.9818 31.917 6.99646 29.4675Z" fill="#323232" stroke="black" stroke-width="1.50426"/>
<path d="M62.2117 121.245C62.2605 123.737 62.2486 126.232 62.1775 128.724C60.0237 128.514 56.969 127.927 54.9031 127.588H54.9021L52.2966 127.162C52.1742 125.572 52.18 124.344 52.2078 122.728C55.1094 122.278 58.007 121.809 60.9021 121.321V121.322L60.9128 121.319C61.0719 121.29 61.4271 121.269 61.863 121.255C61.9795 121.251 62.0969 121.248 62.2117 121.245Z" fill="#323232" stroke="black" stroke-width="1.50426"/>
<path d="M6.97278 17.4794C7.40417 17.4718 7.94185 17.4981 8.56458 17.5555C9.52789 17.6443 10.6369 17.8016 11.7628 17.9882C13.7057 18.3101 15.6688 18.7159 16.9747 18.9882C17.0046 19.6025 17.0397 20.2997 17.0499 21.0038C17.063 21.9003 17.0301 22.7217 16.9122 23.3026C16.8987 23.308 16.8833 23.3152 16.8654 23.3221C16.8112 23.3432 16.7404 23.3731 16.6593 23.4071C14.902 23.6141 13.1995 23.9199 11.5128 24.205C10.0321 24.4552 8.55501 24.6901 7.02161 24.8407C6.93532 22.5481 6.97381 19.8386 6.97278 17.4794Z" fill="#323232" stroke="black" stroke-width="1.50426"/>
<path d="M62.1824 97.1927C62.2127 98.088 62.2527 98.8921 62.2917 99.6107C62.342 100.536 62.3889 101.304 62.4099 101.956C62.4311 102.611 62.4243 103.108 62.3767 103.489C62.3288 103.872 62.2477 104.068 62.1726 104.172C62.0695 104.315 61.8099 104.509 60.6687 104.431C59.5721 104.356 57.9889 104.062 55.6384 103.649L55.6296 103.647L55.6208 103.646L54.7664 103.507C53.9863 103.372 53.4222 103.241 53.0085 103.088C52.4804 102.893 52.3027 102.701 52.2107 102.511C52.0932 102.268 52.0385 101.876 52.075 101.117C52.1059 100.473 52.1862 99.7108 52.2742 98.6976C54.9625 98.1685 57.9018 97.726 60.6257 97.2777L62.1824 97.1927Z" fill="#323232" stroke="black" stroke-width="1.50426"/>
<path d="M7.08655 109.168C8.29527 109.314 10.2355 109.549 12.1139 109.843C13.2893 110.028 14.4242 110.232 15.3278 110.449C15.78 110.557 16.1602 110.666 16.4528 110.771C16.597 110.823 16.7114 110.872 16.7975 110.915C16.8384 111.066 16.8824 111.277 16.9196 111.548C16.9737 111.944 17.0103 112.411 17.026 112.886C17.054 113.736 17.0127 114.518 16.9352 114.954C16.7438 115.133 16.6956 115.144 16.6696 115.152C16.6238 115.166 16.5607 115.178 16.3961 115.203C16.3195 115.214 16.229 115.228 16.1237 115.245L15.776 115.307C14.4447 115.546 13.1115 115.794 11.7838 116.047C10.8895 116.214 10.0165 116.448 9.12073 116.537C8.30286 116.617 7.67988 116.542 7.24475 116.278C7.11348 116.026 6.99657 115.611 6.92151 115.024C6.83708 114.363 6.81544 113.578 6.83362 112.755C6.86193 111.476 6.98348 110.159 7.08655 109.168Z" fill="#323232" stroke="black" stroke-width="1.50426"/>
<path d="M44.4838 82.4982C45.139 82.4693 45.7569 82.4792 46.2592 82.5411C46.3297 83.0315 46.2763 83.5573 46.2484 84.2892L46.2465 84.3331L46.2504 84.3781C46.4112 86.3558 46.3211 91.4176 46.3051 94.1886C44.9523 94.1983 43.5999 94.1863 42.2484 94.1515C42.1855 91.1687 42.0746 87.0008 42.3539 84.4073L42.3568 84.3859L42.3578 84.3644C42.3704 84.1075 42.3693 83.8558 42.3695 83.6388C42.3697 83.4131 42.3705 83.226 42.3832 83.0577C42.3958 82.8907 42.4189 82.776 42.4447 82.6954C43.0402 82.608 43.7643 82.5299 44.4838 82.4982Z" fill="#323232" stroke="black" stroke-width="1.50426"/>
<path d="M25.8499 82.4802C26.333 82.4707 26.7962 82.4785 27.1838 82.5114C27.3356 82.5243 27.4639 82.5409 27.5706 82.5583C27.6329 83.1477 27.6143 83.5438 27.592 84.3132L27.5911 84.3444L27.592 84.3757C27.7713 87.6565 27.7878 90.9436 27.6448 94.2253L23.72 94.2106C23.6861 91.0924 23.5711 87.1176 23.7981 84.3718L23.801 84.3444V84.3161C23.8029 84.0911 23.7941 83.8501 23.7874 83.6325C23.7804 83.4069 23.7751 83.1986 23.7805 83.0046C23.7854 82.8287 23.8006 82.6949 23.8176 82.5944C24.3639 82.5467 25.1145 82.4946 25.8499 82.4802Z" fill="#323232" stroke="black" stroke-width="1.50426"/>
<path d="M35.0367 82.3766C35.5695 82.3758 36.0844 82.388 36.5035 82.4205C36.6821 82.4344 36.8353 82.4527 36.9606 82.4723C37.0788 82.9281 37.0418 83.299 37.0358 84.069V84.0699C37.0165 87.2892 37.0155 90.5086 37.0338 93.7301L32.9547 93.6949C32.9288 92.2422 32.9203 90.7527 32.9186 89.2594L32.9156 84.0641C32.9181 83.6346 32.8967 83.2792 32.9156 82.8688C32.9236 82.6976 32.9395 82.5536 32.9596 82.4342C33.4943 82.4083 34.2709 82.3777 35.0367 82.3766Z" fill="#323232" stroke="black" stroke-width="1.50426"/>
<path d="M42.3674 99.4801C43.6681 99.4439 45.0443 99.3902 46.2756 99.4557C46.3366 99.9029 46.2911 100.344 46.2668 101.041L46.2659 101.072L46.2678 101.103C46.3962 103.713 46.3016 107.757 46.2834 110.739H42.219C42.1879 107.519 42.2152 104.301 42.3049 101.083L42.3059 101.071C42.3114 100.618 42.2882 100.275 42.3137 99.8824C42.3242 99.721 42.344 99.5885 42.3674 99.4801Z" fill="#323232" stroke="black" stroke-width="1.50426"/>
<path d="M23.6738 51.8241C25.0328 51.8706 26.2917 51.8884 27.6572 51.8719C27.7385 55.105 27.8207 58.477 27.6133 61.621L27.6123 61.6385V61.6561C27.6067 61.9491 27.6144 62.175 27.6191 62.3446C27.6242 62.5254 27.6242 62.6079 27.6172 62.6718C27.6122 62.7169 27.6073 62.7753 27.4863 62.9647C26.7005 63.2473 26.1816 63.3321 25.6729 63.326C25.1502 63.3198 24.6239 63.2213 23.7891 63.0741C23.7635 62.9808 23.744 62.8693 23.7314 62.7313C23.7181 62.5841 23.713 62.4242 23.708 62.2343C23.7033 62.0561 23.6991 61.8508 23.6855 61.6385C23.69 58.4255 23.728 55.0674 23.6738 51.8241Z" fill="#323232" stroke="black" stroke-width="1.50426"/>
<path d="M46.2736 51.897C46.2903 55.0967 46.3629 58.5818 46.2628 61.6597L46.2618 61.6704V61.6812C46.2606 61.971 46.272 62.1947 46.2794 62.3628C46.2873 62.5417 46.2882 62.6226 46.2823 62.6851C46.2785 62.7259 46.2761 62.7805 46.1622 62.9624C45.3957 63.2488 44.8782 63.3295 44.3712 63.3149C43.8428 63.2998 43.3121 63.1856 42.4777 63.0181C42.4432 62.9187 42.4217 62.8132 42.4073 62.689C42.3925 62.561 42.3861 62.4208 42.3781 62.2397C42.3703 62.0652 42.3613 61.8577 42.3419 61.6294V61.6235L42.295 61.063C42.1042 58.4171 42.1801 54.6654 42.213 51.8501L46.2736 51.897Z" fill="#323232" stroke="black" stroke-width="1.50426"/>
<path d="M25.7864 99.4204C26.2851 99.4015 26.7691 99.3968 27.1721 99.4155C27.3324 99.423 27.467 99.4345 27.5774 99.4468C27.6478 99.9081 27.6004 100.272 27.5608 101L27.5579 101.051L27.5618 101.104C27.8035 103.943 27.7772 107.668 27.7952 110.743L23.7327 110.725C23.6878 107.544 23.7196 104.249 23.7131 101.055C23.7156 100.622 23.6917 100.306 23.7131 99.9321C23.7219 99.7784 23.7396 99.6558 23.76 99.5591C24.2789 99.5082 25.0357 99.4488 25.7864 99.4204Z" fill="#323232" stroke="black" stroke-width="1.50426"/>
<path d="M42.2582 18.7304C43.5626 18.737 44.8986 18.7477 46.2123 18.7411C46.2991 21.9581 46.3125 25.1769 46.2484 28.3945L46.2474 28.4169L46.2484 28.4384C46.2728 29.0681 46.274 29.3221 46.2162 29.7822C46.1227 29.8029 46.0089 29.8251 45.8734 29.8417C45.4875 29.889 45.0007 29.9063 44.4838 29.9042C43.7436 29.9012 42.9847 29.8566 42.4457 29.8203C42.4357 29.7343 42.4282 29.6376 42.4271 29.5283C42.4239 29.1906 42.4582 28.9012 42.476 28.4863L42.4838 28.2988L42.4017 28.1288C42.4018 28.1289 42.3861 28.0935 42.3646 28.0019C42.3443 27.9152 42.3247 27.8003 42.3051 27.6572C42.2658 27.3707 42.2343 27.0017 42.2113 26.5673C42.1653 25.6999 42.1534 24.6164 42.1595 23.498C42.1694 21.7166 42.224 19.8812 42.2582 18.7304Z" fill="#323232" stroke="black" stroke-width="1.50426"/>
<path d="M33.0167 99.0923C34.1348 98.5076 35.4799 98.5726 36.8605 98.895C36.9643 99.0949 36.9856 99.3122 36.9991 99.7212L37.0206 100.385C37.1049 103.306 37.0413 106.761 37.0304 109.831C35.6919 109.792 34.2734 109.807 32.9532 109.814C32.9716 107.502 32.9686 105.19 32.9396 102.877L32.8976 100.31C32.8934 99.8192 32.8751 99.6497 32.8976 99.4585C32.9087 99.364 32.9314 99.2623 33.0167 99.0923Z" fill="#323232" stroke="black" stroke-width="1.50426"/>
<path d="M27.7303 18.7684C27.7459 19.8452 27.7772 21.686 27.787 23.4207C27.7935 24.5738 27.7898 25.7032 27.7655 26.5965C27.7533 27.0438 27.7366 27.4241 27.7137 27.7147C27.7023 27.8601 27.6901 27.9759 27.6776 28.0623C27.6636 28.1593 27.6535 28.1835 27.6591 28.1678L27.6141 28.2947L27.6171 28.4295C27.6277 29.1419 27.645 29.391 27.5712 29.825C27.4423 29.8436 27.2878 29.8616 27.1083 29.8748C26.7022 29.9048 26.2256 29.914 25.7352 29.909C25.0157 29.9016 24.2904 29.8641 23.7557 29.825C23.7459 29.7389 23.7391 29.6411 23.7391 29.5291C23.7394 29.1869 23.7774 28.9046 23.7997 28.4783L23.8016 28.4461L23.8007 28.4139C23.6918 25.1967 23.6771 21.9768 23.7548 18.7586L27.7303 18.7684Z" fill="#323232" stroke="black" stroke-width="1.50426"/>
<path d="M42.2456 117.524L42.2407 117.482C42.205 117.161 42.1927 116.883 42.2153 116.655C42.2219 116.589 42.2311 116.532 42.2417 116.483C43.4254 116.335 45.1395 116.23 46.3032 116.31C46.3465 116.614 46.3051 116.939 46.2759 117.528L46.2749 117.547V117.565L46.2729 127.266L42.2368 127.253C42.2177 124.722 42.2456 119.08 42.2456 117.566V117.524Z" fill="#323232" stroke="black" stroke-width="1.50426"/>
<path d="M36.9836 52.5067L37.0784 61.9335C37.0748 62.2333 37.0817 62.5022 37.0432 62.7548C37.0211 62.8995 36.9926 62.9652 36.9807 62.9891C35.8192 63.6385 34.4755 63.5558 32.9973 63.3348C32.9698 63.2447 32.9536 63.1435 32.9436 63.0214C32.9326 62.8863 32.9302 62.7374 32.929 62.5458C32.9277 62.3613 32.9272 62.142 32.9153 61.9032L32.9143 61.8915L32.9133 61.8788C32.8075 60.6015 32.8209 58.8016 32.8645 56.9335C32.9005 55.3934 32.9554 53.805 32.9758 52.4852L36.9836 52.5067Z" fill="#323232" stroke="black" stroke-width="1.50426"/>
<path d="M25.8091 116.333C26.3311 116.32 26.8373 116.32 27.2505 116.342C27.3807 116.348 27.4976 116.358 27.6001 116.369C27.6435 116.733 27.6346 116.967 27.606 117.533L27.603 117.589L27.6089 117.643C27.8434 120.054 27.7493 124.369 27.7192 127.271L23.7437 127.267L23.7017 117.594C23.7119 117.208 23.6942 116.961 23.7183 116.642C23.7244 116.561 23.7331 116.492 23.7427 116.434C24.2627 116.396 25.0399 116.351 25.8091 116.333Z" fill="#323232" stroke="black" stroke-width="1.50426"/>
<path d="M46.2993 68.7324C46.2826 69.8633 46.2555 71.6064 46.2544 73.3105C46.2537 74.3829 46.2636 75.4491 46.2944 76.3486C46.3216 77.1411 46.3662 77.8533 46.4448 78.3251C46.4107 78.4641 46.319 78.5806 46.1089 78.6894C45.8309 78.8333 45.4055 78.9234 44.8813 78.9374C44.3684 78.9511 43.821 78.89 43.3442 78.7831C43.0328 78.7133 42.7822 78.6279 42.6001 78.5497L42.4692 77.8163L42.4624 77.7822L42.4536 77.7499L42.4058 77.5585C42.1783 76.5534 42.1153 74.8352 42.1284 73.0038C42.1396 71.4388 42.2004 69.8961 42.2388 68.7656C43.6084 68.7357 44.9498 68.7061 46.2993 68.7324Z" fill="#323232" stroke="black" stroke-width="1.50426"/>
<path d="M27.6747 68.6996C27.6775 69.7501 27.6781 71.53 27.6854 73.2894C27.6902 74.4383 27.6989 75.5757 27.7137 76.4828C27.7257 77.2149 27.7436 77.8442 27.7714 78.1967L27.6678 78.5619C27.6486 78.5705 27.6289 78.582 27.6063 78.5912C27.4704 78.6466 27.2938 78.7026 27.0839 78.7533C26.6632 78.8549 26.1497 78.9258 25.6395 78.9408C25.124 78.9559 24.6513 78.9126 24.2958 78.8129C24.0486 78.7435 23.9224 78.6641 23.8593 78.6097L23.7538 77.4418C23.6276 74.613 23.6869 71.6078 23.7333 68.7172L27.6747 68.6996Z" fill="#323232" stroke="black" stroke-width="1.50426"/>
<path d="M37.0267 68.7961C37.0346 69.7885 37.0489 71.4212 37.0482 73.0246C37.0478 74.0887 37.0409 75.1308 37.0219 75.9504C37.0123 76.3607 36.9996 76.7093 36.9838 76.9748C36.9758 77.1078 36.9679 77.2145 36.9594 77.2941C36.9496 77.3844 36.9428 77.4072 36.9467 77.3928L36.9281 77.4611L36.9232 77.5324L36.8793 78.1027C36.8094 78.1648 36.6774 78.2523 36.434 78.3342C36.085 78.4515 35.6236 78.5218 35.1146 78.5432C34.6109 78.5642 34.0935 78.5356 33.6469 78.4719C33.4006 78.4367 33.1937 78.3922 33.0306 78.3478L32.9515 77.9074L32.9222 68.798L37.0267 68.7961Z" fill="#323232" stroke="black" stroke-width="1.50426"/>
<path d="M46.2852 35.2983L46.2695 44.2534C45.7339 44.2319 45.1212 44.2093 44.5264 44.2055C43.8236 44.201 43.0783 44.222 42.4385 44.3198C42.365 43.9355 42.3072 43.4537 42.2656 42.8911C42.2007 42.0129 42.1799 40.9958 42.1836 39.9565C42.1897 38.2454 42.262 36.5097 42.3125 35.2709L46.2852 35.2983Z" fill="#323232" stroke="black" stroke-width="1.50426"/>
<path d="M27.677 35.2905C27.7395 38.2646 27.7615 41.2394 27.7444 44.2143L23.719 44.2123C23.6995 41.2311 23.7164 38.2497 23.7698 35.269L27.677 35.2905Z" fill="#323232" stroke="black" stroke-width="1.50426"/>
<path d="M32.8606 116.759C34.2904 116.744 35.7639 116.761 37.2161 116.771L37.2454 127.229C35.8138 127.266 34.2454 127.239 32.7668 127.228C32.8433 123.738 32.8752 120.249 32.8606 116.759Z" fill="#323232" stroke="black" stroke-width="1.50426"/>
<path d="M32.9243 20.0096C34.277 19.99 35.636 20.0158 37.0073 20.0389L37.0435 28.7449C35.6529 28.7589 34.2504 28.7136 32.8364 28.6717C33.0181 25.9055 32.9544 22.7619 32.9243 20.0096Z" fill="#323232" stroke="black" stroke-width="1.50426"/>
<path d="M32.9808 36.179C34.3236 36.1972 35.7104 36.1911 37.0433 36.1907L36.9867 44.9338C35.8029 44.9886 34.2018 44.9706 32.9291 44.9641L32.9808 36.179Z" fill="#323232" stroke="black" stroke-width="1.50426"/>
<path d="M60.239 68.0002C60.8865 67.8986 61.4692 67.843 61.9509 67.8665C61.9639 67.9175 61.9783 67.9752 61.9919 68.0403C62.0582 68.3569 62.1169 68.7852 62.1658 69.301C62.2631 70.3295 62.3149 71.6429 62.3181 72.969C62.3214 74.2947 62.2767 75.6157 62.1863 76.6604C62.1409 77.1841 62.0848 77.6244 62.0212 77.9553C62.0105 78.0113 61.9986 78.0627 61.988 78.1096C61.5158 78.0948 60.824 78.0369 59.9744 77.9338C58.8039 77.7918 57.401 77.5766 56.0095 77.3264C54.6173 77.0761 53.2461 76.7922 52.1355 76.512C51.5796 76.3717 51.0972 76.2346 50.7146 76.1057C50.5244 76.0417 50.3712 75.9833 50.2517 75.9329C50.0379 74.3113 50.0957 71.7859 50.2029 70.1184C50.2575 70.0487 50.2948 70.0098 50.3201 69.9875C50.3475 69.9634 50.3679 69.9504 50.4187 69.9309C50.5155 69.8938 50.5724 69.883 50.7976 69.8098C50.9617 69.7565 51.1562 69.6858 51.3923 69.5793C52.9976 69.4182 56.3157 68.7146 57.8132 68.4397C58.1903 68.3792 58.5992 68.2998 59.0056 68.2219C59.4171 68.143 59.8311 68.0643 60.239 68.0002Z" fill="#323232" stroke="black" stroke-width="1.50426"/>
</svg>
