<svg xmlns="http://www.w3.org/2000/svg" width="146" height="70" fill="none"><path fill="#272727" stroke="#000" stroke-width="3" d="M143.5 31.1c1.3 2 1 4 .7 5.5l-.7 2.2-.4 1.6c.3.1.7.4.9.9.4.8.3 1.7.1 2.4a10 10 0 0 1-.7 2.1l-.8 1.7-.2.5-.1.2-.6 3 .2 1.2c0 .6 0 1.2-.2 1.8a26.9 26.9 0 0 1-3 7.3c-.6 1-1.3 2-2 2.5l-.1.1-.3.2h-.2l-.3.1c-.6 1.3-1.5 2.9-3.6 3.6l-.6.2h-.7l-2 .1-6.6.1-19.2.1-31.9-.1H17.8c-1.7 0-3-.5-4.1-1.5a7.7 7.7 0 0 1-1.7-2.3h-.8c-.3 0-.8 0-1.3-.2-.6-.2-1-.5-1.5-1-2-2.7-3.2-6-4.1-8.9-.2-.6-.5-1.4-.3-2.3 0-.6.4-1.1.8-1.5a53 53 0 0 1-.5-2.7 5 5 0 0 1-.8-1 8.5 8.5 0 0 1-1.3-3.8c0-.6 0-1.3.3-2l.2-.5.5-.2.2-.1v-1.2c-.4 0-.7-.2-1-.3l-.8-.4v-.9c-.2-1.6 0-3.5 0-5V32l.3-.4c.1-.2.3-.5.6-.6l.9-.3v-1.2l-.5-.2-.3-.5c-.3-.7-.3-1.4-.3-2a7.8 7.8 0 0 1 1.2-4l.9-1 .6-3.2-.3-.2-.5-.3-.2-.5C4 17 4 16.6 4 16l.3-1.5a29.4 29.4 0 0 1 3.9-8.4c.3-.4.6-.8 1-1 .6-.5 1.2-.5 1.5-.5h1.6a5.4 5.4 0 0 1 3-2.7c1.2-.5 2.7-.4 4-.4H119c3.8 0 9-.3 13 .2 1.1.2 2 1 2.5 1.5l1 1.4 1.3.4.3.1.2.3a33.8 33.8 0 0 1 4.8 10.7 2.8 2.8 0 0 1-.5 2l.7 3.7h.1c0 .2.2.3.3.4l.4.8.4 1 .5 1.3c.2.8.5 2 .2 3l-.1.3-.2.6-.6.2-.1.1v.7l.1.4v.1l.3.3Z"/><mask id="a" width="141" height="65" x="2" y="3" maskUnits="userSpaceOnUse" style="mask-type:alpha"><path fill="#272727" d="M141.6 30.2v.2c.2 1 .1.9.7 1.6 1.9 2.7-.5 5.8-.7 8.4v1c.4.1.9.2 1 .5.8 1.8-1.6 5-1.8 6l-.6 3.5c1 2.2-2.4 9.9-4.4 11.5l-1 .3c-.7 1.4-1.4 2.8-3 3.4-2 .7-54.3.3-60.6.3H17.8c-3 0-3.8-1.5-4.8-3.8h-1.8c-.7 0-1.2 0-1.6-.7C7.8 60 6.6 57 5.7 54c-.4-1.2-.6-2 .8-2.6-.2-1.3-.7-3-.8-4.2-1.3-.7-2.4-4.1-1.8-5.4.5-.2.7-.3 1.1-.8l-.2-3.2c-.8 0-1 0-1.7-.3-.2-1.5 0-3.3 0-4.9.4-.5.4-.2 1.4-.5h.3l.3-3.5-1.1-.4c-.7-1.4.2-4.6 1.7-5.4l1-4.8-1.2-.8C5 15.6 8.5 7.6 10 6.4c.6-.5 2.4.2 3.3-.5 1.3-2.8 3-2.9 6-2.9h99.5c3.9 0 9-.2 12.8.3 1.2.2 2 1.6 2.7 2.6l.1.1 1.7.5c1.5 1.5 4 7.7 4.3 9.9 0 .8-.2 1-.6 1.5l.9 4.5c.1.4.7.8.8 1.1.5 1.4 1.5 3.2 1 4.7-.6.2-.7.3-1.1.7l.1 1.3Z"/></mask><g fill="#585858" stroke="#000" stroke-width="1.5" mask="url(#a)"><path d="M147.4 8c-.1 1.5-.5 3.4-.9 5.4-.4 2.2-1 4.3-1.4 6l-.5.3-2 .2a19.1 19.1 0 0 1-3.4-.2l-.1-.1v-.1l-.2-.3v-.4c-.3-1-.9-3.6-1.3-6.1A46.1 46.1 0 0 1 137 8V8h.3a33.3 33.3 0 0 1 5-.1 89.2 89.2 0 0 1 5 .1ZM147.4 47.1h-4.6a90.9 90.9 0 0 0-5 .1c-.2 0-.3 0-.4-.3a3 3 0 0 1-.2-1.2 6.4 6.4 0 0 1 .4-2.3l.7-.1h.3c1-.3 2.7-.4 4.5-.4l4.2.1v4.1ZM147.4 28.5h-4.6a279 279 0 0 0-5 0h-.3l-.2-.6-.2-1.5c0-.5 0-1 .2-1.3l.2-.4 1.1-.1c2.9-.2 5.9-.1 8.8 0v3.9ZM147.4 37.7h-4.6a276.5 276.5 0 0 0-5 .1h-.3v-.1l-.2-.5-.2-1.5c0-.5 0-1 .2-1.3 0-.3.1-.4.2-.5h1.1c2.9-.2 5.9-.1 8.8 0v3.8ZM147.3 61v1.8l-1.4.2a42.1 42.1 0 0 1-8.6-.2h-.2l.2-2a73 73 0 0 1 2-9.7 35.1 35.1 0 0 1 6 0v.1l.1.4.3.6c.1 1.6.8 5 1.1 6.4l.2 1.2.3 1.2ZM127.5 8c0 1.5-.4 3.4-.8 5.4l-1.4 6-.5.3-2 .2a19.1 19.1 0 0 1-3.4-.2l-.2-.1v-.1l-.1-.3-.1-.4-1.3-6.1a46.1 46.1 0 0 1-.5-4.7V8h.2a33.3 33.3 0 0 1 5-.1 89.3 89.3 0 0 1 5 .1h.1ZM127.5 47.1H123a90.9 90.9 0 0 0-5 .1c-.1 0-.2 0-.3-.3a3 3 0 0 1-.3-1.2 6.4 6.4 0 0 1 .4-2.3l.7-.1H118.8c1-.3 2.7-.4 4.5-.4l4.3.1v4.1ZM127.5 28.5H123a279 279 0 0 0-4.9 0h-.3l-.2-.6-.2-1.5.1-1.3.2-.4 1.2-.1c2.8-.2 5.8-.1 8.7 0v3.9ZM127.5 37.7H123a276.5 276.5 0 0 0-4.9.1h-.3v-.1l-.2-.5-.2-1.5.1-1.3c0-.3.2-.4.2-.5h1.2c2.8-.2 5.8-.1 8.7 0v3.8ZM127.4 61l.1 1.8h-.1l-1.3.2a42.1 42.1 0 0 1-8.7-.2h-.1c0-.5 0-1.2.2-2a74 74 0 0 1 2-9.7 35.1 35.1 0 0 1 6 0v.5l.3.6 1.2 6.4a37 37 0 0 1 .4 2.4ZM107.6 8c0 1.5-.4 3.4-.8 5.4-.4 2.2-1 4.3-1.4 6l-.5.3-2 .2a19.1 19.1 0 0 1-3.4-.2l-.1-.1-.1-.1-.1-.3-.1-.4-1.2-6.1a46.4 46.4 0 0 1-.6-4.7V8h.3a33.3 33.3 0 0 1 5-.1 89.3 89.3 0 0 1 5 .1ZM107.7 47.1H103a91 91 0 0 0-5 .1c-.2 0-.3 0-.4-.3a3 3 0 0 1-.2-1.2 6.5 6.5 0 0 1 .3-2.3l.8-.1h.2c1-.3 2.8-.4 4.6-.4l4.2.1v4.1ZM107.7 28.5H103a279 279 0 0 0-5 0h-.3l-.2-.6-.2-1.5c0-.5 0-1 .2-1.3l.2-.4 1.1-.1c2.9-.2 5.9-.1 8.8 0v3.9ZM107.7 37.7H103a276.6 276.6 0 0 0-5 .1h-.3v-.1l-.2-.5-.2-1.5c0-.5 0-1 .2-1.3 0-.3.1-.4.2-.5h1.1c2.9-.2 5.9-.1 8.8 0v3.8ZM107.5 61l.2 1.8h-.2l-1.3.2a42.1 42.1 0 0 1-8.6-.2h-.2l.2-2a72.9 72.9 0 0 1 2-9.7 35.1 35.1 0 0 1 6 0v.1l.1.4.3.6c.1 1.6.8 5 1 6.4l.3 1.2.2 1.2ZM87.8 8c-.1 1.5-.4 3.4-.8 5.4l-1.4 6-.6.3-2 .2a19.1 19.1 0 0 1-3.3-.2l-.2-.1v-.1l-.2-.3v-.4L78 12.7a46.4 46.4 0 0 1-.5-4.7V8h.2a33.3 33.3 0 0 1 5-.1 89.2 89.2 0 0 1 5 .1ZM87.8 47.1h-4.6a91 91 0 0 0-5 .1c-.1 0-.2 0-.4-.3a3 3 0 0 1-.2-1.2 6.5 6.5 0 0 1 .4-2.3l.7-.1h.3c1-.3 2.7-.4 4.5-.4l4.3.1v4.1ZM87.8 28.5h-4.6a279 279 0 0 0-4.9 0H78l-.2-.6-.2-1.5.1-1.3.2-.4 1.2-.1c2.8-.2 5.8-.1 8.7 0v3.9ZM87.8 37.7h-4.6a276.6 276.6 0 0 0-4.9.1H78v-.1l-.2-.5-.2-1.5.1-1.3c0-.3.1-.4.2-.5h1.2c2.8-.2 5.8-.1 8.7 0v3.8ZM87.7 61l.1 1.8h-.2l-1.2.2a42.1 42.1 0 0 1-8.7-.2h-.1l.1-2a72.9 72.9 0 0 1 2-9.7 35.1 35.1 0 0 1 6 0v.1l.2.4c0 .2 0 .4.2.6l1.1 6.4.3 1.2.2 1.2ZM68 8l-.9 5.4-1.4 6-.5.3-2 .2a19.1 19.1 0 0 1-3.4-.2l-.2-.1v-.1l-.1-.3-.1-.4-1.2-6.1a46.3 46.3 0 0 1-.6-4.7V8h.3a33.3 33.3 0 0 1 5-.1 89.2 89.2 0 0 1 5 .1ZM68 47.1h-4.6a91 91 0 0 0-5 .1c-.2 0-.3 0-.4-.3a3 3 0 0 1-.3-1.2 6.5 6.5 0 0 1 .4-2.3l.8-.1h.2c1-.3 2.7-.4 4.6-.4l4.2.1v4.1ZM68 28.5h-4.6a279 279 0 0 0-5 0h-.3l-.2-.6-.2-1.5.1-1.3.2-.4 1.2-.1c2.8-.2 5.8-.1 8.7 0v3.9ZM68 37.7h-4.6a276.6 276.6 0 0 0-5 .1h-.3v-.1l-.2-.5-.2-1.5.1-1.3.2-.5h1.2c2.8-.2 5.8-.1 8.7 0v3.8ZM67.8 61l.2 1.8h-.2l-1.3.2a42.1 42.1 0 0 1-8.6-.2h-.2c0-.5 0-1.2.2-2a72.9 72.9 0 0 1 2-9.7 35.1 35.1 0 0 1 6 0v.1l.1.4.2.6 1.2 6.4.2 1.2.2 1.2ZM48 8c0 1.5-.3 3.4-.8 5.4-.4 2.2-1 4.3-1.4 6l-.5.3-2 .2a19.1 19.1 0 0 1-3.3-.2l-.2-.1v-.1l-.2-.3v-.4l-1.3-6.1a46.4 46.4 0 0 1-.6-4.7V8h.3a33.3 33.3 0 0 1 5-.1 89.2 89.2 0 0 1 5 .1ZM48 47.1h-4.5a91 91 0 0 0-5 .1c-.1 0-.3 0-.4-.3a3 3 0 0 1-.2-1.2 6.5 6.5 0 0 1 .4-2.3l.7-.1h.3c1-.3 2.7-.4 4.5-.4l4.3.1v4.1ZM48.1 28.5h-4.6a279 279 0 0 0-4.9 0h-.4l-.2-.6-.1-1.5v-1.3l.3-.4 1.2-.1c2.8-.2 5.8-.1 8.7 0v3.9ZM48.1 37.7h-4.6a276.6 276.6 0 0 0-4.9.1h-.4v-.1l-.2-.5-.1-1.5v-1.3l.3-.5h1.2c2.8-.2 5.8-.1 8.7 0v3.8ZM48 61v1.8l-1.3.2a42.1 42.1 0 0 1-8.7-.2H38l.1-2a72.9 72.9 0 0 1 2-9.7 35.1 35.1 0 0 1 6 0v.1l.2.4c0 .2 0 .4.2.6.1 1.6.8 5 1.1 6.4l.2 1.2.3 1.2ZM28.2 8c0 1.5-.4 3.4-.8 5.4l-1.4 6-.5.3-2 .2a19.1 19.1 0 0 1-3.4-.2l-.2-.1v-.1l-.1-.3-.1-.4-1.2-6.1a46.4 46.4 0 0 1-.6-4.7V8h.2a33.3 33.3 0 0 1 5-.1 89.2 89.2 0 0 1 5 .1h.1ZM28.2 47.1h-4.5a91 91 0 0 0-5 .1c-.2 0-.3 0-.4-.3a3 3 0 0 1-.3-1.2 6.5 6.5 0 0 1 .4-2.3l.7-.1H19.5c1-.3 2.7-.4 4.6-.4l4.2.1v4.1ZM28.2 28.5h-4.6a279 279 0 0 0-4.9 0h-.3l-.2-.6-.2-1.5.1-1.3.2-.4 1.2-.1c2.8-.2 5.8-.1 8.7 0v3.9ZM28.2 37.7h-4.6a276.6 276.6 0 0 0-4.9.1h-.3v-.1l-.2-.5-.2-1.5.1-1.3.2-.5h1.2c2.8-.2 5.8-.1 8.7 0v3.8ZM28.1 61c.1.7.2 1.3.1 1.8h-.1l-1.3.2a42.1 42.1 0 0 1-8.7-.2H18c0-.5 0-1.2.2-2a72.9 72.9 0 0 1 2-9.7 35.1 35.1 0 0 1 6 0v.5l.3.6 1.2 6.4.2 1.2.2 1.2ZM8.4 8c-.1 1.5-.5 3.4-.9 5.4-.4 2.2-1 4.3-1.4 6l-.5.3-2 .2a19.1 19.1 0 0 1-3.4-.2l-.1-.1-.1-.1v-.3l-.2-.4-1.2-6.1A46.3 46.3 0 0 1-2 8V8h.3a33.3 33.3 0 0 1 5-.1 89.2 89.2 0 0 1 5 .1ZM8.4 47.1H3.8a91 91 0 0 0-5 .1c-.2 0-.3 0-.4-.3a3 3 0 0 1-.2-1.2 6.5 6.5 0 0 1 .4-2.3l.7-.1h.2c1-.3 2.8-.4 4.6-.4l4.2.1v4.1ZM8.4 28.5H3.8a279 279 0 0 0-5 0h-.3l-.2-.6-.2-1.5c0-.5 0-1 .2-1.3l.2-.4 1.1-.1c2.9-.2 5.9-.1 8.8 0v3.9ZM8.4 37.7H3.8a276.6 276.6 0 0 0-5 .1h-.3v-.1l-.2-.5-.2-1.5c0-.5 0-1 .2-1.3 0-.3.1-.4.2-.5h1.1c2.9-.2 5.9-.1 8.8 0v3.8ZM8.2 61l.2 1.8h-.2L7 63a42.1 42.1 0 0 1-8.6-.2H-2l.2-2a72.9 72.9 0 0 1 2-9.7 35.1 35.1 0 0 1 6 0v.1l.1.4.3.6c.1 1.6.8 5 1.1 6.4l.2 1.2.2 1.2Z"/></g></svg>