<svg width="146" height="70" viewBox="0 0 146 70" fill="none" xmlns="http://www.w3.org/2000/svg">
<path d="M143.468 31.1487C144.827 33.0137 144.588 35.0355 144.182 36.6096C143.985 37.3762 143.704 38.1892 143.51 38.8147C143.317 39.436 143.188 39.9339 143.142 40.3567C143.438 40.5309 143.773 40.8163 143.978 41.2874C144.352 42.1423 144.295 43.0347 144.144 43.7493C143.991 44.4775 143.702 45.1949 143.422 45.8088C143.147 46.4089 142.819 47.0367 142.609 47.4631C142.495 47.6946 142.41 47.8767 142.352 48.0208C142.313 48.1194 142.298 48.1699 142.294 48.1829L142.291 48.2063L142.283 48.2463L141.706 51.2874C141.821 51.6804 141.866 52.081 141.873 52.4495C141.883 53.0092 141.813 53.6046 141.699 54.1956C141.47 55.3775 141.035 56.6903 140.515 57.9417C139.993 59.1991 139.366 60.4433 138.73 61.4915C138.121 62.4956 137.421 63.4603 136.717 64.0344L136.571 64.1399C136.43 64.231 136.31 64.2799 136.278 64.2932C136.195 64.328 136.114 64.3551 136.052 64.3752C135.969 64.4017 135.881 64.4238 135.798 64.4465C135.168 65.7248 134.255 67.2931 132.241 68.0129L132.241 68.012C132.008 68.0954 131.748 68.1321 131.594 68.1516C131.399 68.1765 131.166 68.1972 130.906 68.2161C130.385 68.2539 129.696 68.2866 128.874 68.3147C127.225 68.371 124.984 68.4119 122.344 68.4407C117.06 68.4982 110.14 68.5079 103.092 68.4954C88.9664 68.4702 74.3787 68.3557 71.2029 68.3557L35.6667 68.3606C29.7144 68.3606 23.7558 68.3704 17.7986 68.345L17.7976 68.345C16.0686 68.3367 14.7309 67.897 13.6814 66.9387C12.9562 66.2765 12.4501 65.4306 12.03 64.5745L11.1755 64.5442C10.8973 64.536 10.3947 64.5321 9.91772 64.3967C9.33569 64.2314 8.82759 63.8956 8.41675 63.3498L8.41479 63.3479C6.42917 60.7019 5.1739 57.387 4.26636 54.4973L4.26538 54.4954C4.09308 53.9448 3.80615 53.0603 3.95971 52.1965C4.07427 51.5526 4.38922 51.0535 4.81909 50.6653C4.64451 49.8384 4.44573 48.88 4.31518 48.0452C3.98548 47.7375 3.71846 47.383 3.50854 47.05C3.15046 46.4822 2.86215 45.829 2.65112 45.1858C2.44004 44.5424 2.29006 43.86 2.23706 43.22C2.18793 42.6261 2.20429 41.8761 2.50073 41.2248L2.73022 40.72L3.23413 40.4856C3.32072 40.4454 3.38778 40.413 3.44507 40.386C3.41165 40.0053 3.38826 39.6047 3.36889 39.2209C3.03856 39.1523 2.71898 39.035 2.3728 38.8567L1.6228 38.47L1.56323 37.6291C1.44807 36.0101 1.52116 34.0785 1.53979 32.5813L1.54663 32.0715L1.86108 31.6721C2.00749 31.4862 2.21819 31.246 2.5144 31.0588C2.84388 30.8506 3.15964 30.7818 3.39819 30.7551C3.42569 30.3803 3.45757 30.0049 3.49097 29.6399C3.46838 29.6305 3.44566 29.621 3.42261 29.6116L2.8855 29.3928L2.6355 28.8694C2.32748 28.2234 2.25275 27.4937 2.27222 26.8547C2.2924 26.1935 2.41726 25.5021 2.61597 24.8528C2.8145 24.2041 3.1006 23.5519 3.47143 22.9817C3.70363 22.6247 3.99509 22.2618 4.35132 21.9534C4.56025 20.8783 4.7873 19.8075 5.03491 18.7414C4.9179 18.6678 4.79549 18.5896 4.65893 18.5012L4.19409 18.2004L4.03589 17.6702C3.88058 17.1478 3.91493 16.5799 3.97046 16.1477C4.03178 15.6705 4.15073 15.1415 4.30054 14.5998C4.60113 13.513 5.06191 12.2542 5.58374 11.0334C6.10625 9.81109 6.70651 8.58836 7.29761 7.57641C7.59285 7.07097 7.89638 6.59855 8.198 6.19848C8.48451 5.81846 8.83108 5.41931 9.22437 5.135L9.22534 5.135C9.76724 4.74363 10.4034 4.71137 10.6882 4.70239C11.0269 4.69172 11.4369 4.71728 11.698 4.72778C11.9703 4.73872 12.178 4.73844 12.3445 4.72387C13.0637 3.3792 14.0004 2.50283 15.2458 2.02856C16.5143 1.54565 17.9744 1.55004 19.3376 1.55004C27.7826 1.55004 36.1811 1.58005 44.616 1.57544L101.08 1.57544L118.889 1.56372C122.682 1.54575 127.878 1.32104 131.886 1.84106L131.887 1.84106C133.004 1.98694 133.835 2.70897 134.363 3.29321C134.787 3.7617 135.14 4.28289 135.412 4.71899C135.838 4.83523 136.178 4.94952 136.664 5.12427L136.974 5.2356L137.21 5.46802C137.748 5.99973 138.275 6.82629 138.739 7.66528C139.224 8.54142 139.714 9.56812 140.158 10.6028C141.022 12.6161 141.807 14.8783 141.975 16.2073C142.05 16.8004 142.003 17.3725 141.708 17.928C141.646 18.0446 141.579 18.1498 141.513 18.2415C141.781 19.4367 142.02 20.79 142.23 21.8743C142.253 21.9011 142.281 21.9368 142.32 21.9807C142.39 22.059 142.518 22.2004 142.628 22.3401C142.727 22.4668 142.916 22.7198 143.028 23.052L143.029 23.054C143.132 23.361 143.264 23.6898 143.424 24.0979C143.576 24.4862 143.747 24.9325 143.887 25.3938C144.143 26.2299 144.367 27.323 144.065 28.4358L143.998 28.6584L143.79 29.2795L143.193 29.5491C143.15 29.5687 143.112 29.5865 143.079 29.6018L143.123 29.9973L143.123 29.9993L143.152 30.2688L143.151 30.2688C143.18 30.5129 143.192 30.6292 143.208 30.7375C143.21 30.755 143.21 30.7696 143.212 30.7805C143.215 30.7857 143.218 30.7922 143.223 30.8C143.265 30.8657 143.332 30.963 143.468 31.1487Z" fill="#272727" stroke="black" stroke-width="3"/>
<mask id="mask0_4112_9092" style="mask-type:alpha" maskUnits="userSpaceOnUse" x="2" y="3" width="141" height="65">
<path d="M141.631 30.1613L141.661 30.4312C141.763 31.3079 141.724 31.3033 142.256 32.0323C144.166 34.653 141.817 37.8412 141.634 40.372L141.671 41.4217C142.003 41.5255 142.458 41.5555 142.603 41.8877C143.392 43.6871 140.958 46.8546 140.809 47.9666L140.154 51.4201C141.289 53.6187 137.75 61.2617 135.766 62.8743C135.664 62.9573 134.946 63.1165 134.758 63.1558C134.054 64.6068 133.434 65.9933 131.736 66.6001C129.745 67.3129 77.5274 66.8561 71.2028 66.8561L35.6665 66.8607C29.711 66.8607 23.758 66.87 17.8049 66.8446C14.883 66.8308 14.0281 65.4004 13.0031 63.1096L11.2301 63.045C10.5451 63.0243 10.0472 63.0219 9.61488 62.4475C7.7884 60.0136 6.59341 56.9015 5.69718 54.0478C5.3037 52.7905 5.12884 51.9646 6.49627 51.3625C6.25096 50.1398 5.85018 48.4233 5.71416 47.226C4.3613 46.5016 3.31448 43.0573 3.86583 41.8462C4.42689 41.5855 4.63821 41.4978 5.02925 41.0341C4.88352 40.1228 4.85193 38.7479 4.80335 37.7928C4.0237 37.7928 3.71768 37.862 3.05947 37.5229C2.95017 35.9864 3.02059 34.1616 3.04002 32.5998C3.47235 32.0507 3.53551 32.3552 4.54105 32.1361L4.82767 32.0715C4.85681 30.9526 4.99282 29.7137 5.0924 28.5879C4.60663 28.4979 4.44146 28.408 3.9897 28.2234C3.3242 26.8277 4.24472 23.6002 5.7093 22.8251C6.01291 21.201 6.3651 19.5861 6.75858 17.9781C6.21695 17.722 5.97648 17.5675 5.47371 17.2422C4.97095 15.5512 8.40533 7.57827 10.1031 6.35096C10.6739 5.93801 12.5173 6.57704 13.4281 5.91955C14.6887 3.10734 16.4691 3.04965 19.3375 3.04965C27.7656 3.04965 36.1912 3.07964 44.6168 3.07503L101.081 3.07503L118.896 3.06351C122.795 3.04506 127.816 2.82587 131.693 3.32879C132.858 3.48105 133.794 4.92063 134.351 5.86188L134.54 6.04411C135.191 6.20099 135.527 6.30942 136.156 6.5355C137.657 8.01889 140.208 14.1901 140.488 16.3955C140.585 17.1638 140.315 17.3483 139.881 17.8582C140.229 19.2331 140.522 20.9795 140.802 22.3937C140.903 22.7697 141.494 23.1988 141.606 23.531C142.079 24.9406 143.069 26.7078 142.575 28.1819C142.024 28.4311 141.9 28.5072 141.497 28.9409L141.631 30.1613Z" fill="#272727"/>
</mask>
<g mask="url(#mask0_4112_9092)">
<path d="M20.2324 7.13892C20.1393 8.70725 19.8086 10.6264 19.3984 12.5823C18.9385 14.7755 18.3962 16.9368 18 18.6663C17.9962 18.6687 17.9928 18.6723 17.9883 18.675C17.8972 18.7304 17.7324 18.7988 17.4785 18.8635C16.9761 18.9917 16.2825 19.0678 15.5273 19.0959C14.7798 19.1238 14.0081 19.1034 13.3662 19.052C12.6882 18.9976 12.2542 18.916 12.1162 18.8616L12.1143 18.8606C12.014 18.8212 11.9676 18.785 11.9453 18.7639C11.9238 18.7434 11.9016 18.7149 11.877 18.6614C11.8489 18.6004 11.8221 18.519 11.7871 18.387C11.7597 18.2835 11.7205 18.1188 11.6748 17.9612C11.4679 16.9087 10.9074 14.355 10.4668 11.8616C10.2453 10.608 10.0587 9.39405 9.96582 8.4231C9.91927 7.93647 9.89767 7.52749 9.9043 7.21313C9.90529 7.16604 9.90909 7.12324 9.91113 7.08423C9.98339 7.07737 10.0636 7.06854 10.1523 7.06177C10.5127 7.03426 10.9685 7.01134 11.4912 6.99341C12.5357 6.95757 13.8283 6.94287 15.125 6.94946C16.422 6.95606 17.716 6.98427 18.7637 7.03442C19.2877 7.05951 19.744 7.08922 20.1055 7.12427C20.1498 7.12857 20.1923 7.13461 20.2324 7.13892Z" fill="#323232" stroke="black" stroke-width="1.50426"/>
<path d="M34.5227 61.9734C33.5203 62.313 32.1427 62.4355 30.6995 62.3914C29.4383 62.3527 28.1827 62.1884 27.175 61.9695C27.1538 61.7157 27.1478 61.3839 27.1711 60.9763C27.2085 60.3236 27.3037 59.559 27.426 58.7693C27.673 57.1744 28.0106 55.589 28.1809 54.6365L28.1829 54.6248L28.1848 54.6121L28.2463 54.2283C28.3702 53.5214 28.5416 52.8785 28.7395 52.1589C30.3868 52.1405 31.467 52.2841 32.1887 52.5525C32.929 52.8278 33.2928 53.2319 33.5247 53.8142C33.7847 54.4673 33.8805 55.345 33.9768 56.5945C34.07 57.8041 34.1627 59.2901 34.4612 61.0144C34.5006 61.3159 34.5508 61.5899 34.5374 61.8445C34.5345 61.8991 34.5294 61.9417 34.5227 61.9734Z" fill="#323232" stroke="black" stroke-width="1.50426"/>
<path d="M46.6404 61.8875C46.6312 61.9147 46.6089 61.9523 46.5525 62.031C46.201 62.1241 45.7177 62.1966 45.1248 62.2439C44.419 62.3002 43.6075 62.3189 42.7722 62.3162C41.4522 62.3119 40.1161 62.2558 39.0623 62.2156C39.2921 59.7767 39.8696 56.7198 40.2585 54.3083L40.2644 54.2673L40.2664 54.2253L40.2869 54.0603C40.321 53.8467 40.3953 53.4961 40.4919 53.0818C40.5589 52.7946 40.6285 52.5167 40.6882 52.2742C42.126 52.1652 43.4953 52.18 44.9783 52.1941C45.6197 54.9134 46.1668 58.8362 46.5906 61.575L46.5984 61.6267L46.614 61.6775C46.6637 61.8425 46.6417 61.8835 46.6404 61.8875Z" fill="#323232" stroke="black" stroke-width="1.50426"/>
<path d="M58.6333 62.0562C58.3702 62.1257 57.9526 62.1904 57.3823 62.2339C56.6497 62.2898 55.7674 62.3063 54.856 62.3003C53.4626 62.2911 52.0376 62.2277 51.022 62.1821C51.3333 59.6756 51.8894 56.815 52.2749 54.2603L52.6841 52.2583C54.0704 52.1651 55.5563 52.1786 57.0024 52.1841L58.7183 61.8862L58.6333 62.0562Z" fill="#323232" stroke="black" stroke-width="1.50426"/>
<path d="M70.6897 61.8125C70.6816 61.8301 70.6582 61.8719 70.6106 61.96C70.3208 62.0787 69.8782 62.1823 69.2844 62.251C68.581 62.3323 67.7517 62.3589 66.8899 62.3545C65.5302 62.3476 64.1732 62.2684 63.1321 62.2148C63.3938 59.6581 63.9095 56.9708 64.3772 54.4062L64.3811 54.3838L64.384 54.3613L64.4768 53.7031C64.5532 53.2264 64.6493 52.7421 64.7454 52.25C66.391 52.1827 67.4777 52.3039 68.2092 52.5635C68.9641 52.8314 69.3504 53.247 69.6028 53.8555C69.8829 54.5309 69.9979 55.4404 70.1125 56.7109C70.2231 57.9363 70.3316 59.4339 70.6379 61.1484C70.6496 61.3755 70.6644 61.5405 70.676 61.6592C70.6824 61.7249 70.6869 61.7639 70.6887 61.7949C70.6891 61.8021 70.6895 61.8079 70.6897 61.8125Z" fill="#323232" stroke="black" stroke-width="1.50426"/>
<path d="M34.4976 6.96851C34.4534 8.18613 34.2154 9.95957 33.9058 11.8064C33.5846 13.7218 33.1993 15.6507 32.9263 16.989C32.7214 16.9995 32.5095 17.0125 32.2964 17.0251C31.8579 17.0511 31.4067 17.0776 30.9604 17.0896C30.0435 17.1143 29.2504 17.073 28.7163 16.8972L28.7134 16.8962C28.6592 16.8786 28.651 16.8673 28.6597 16.8748C28.6683 16.8823 28.6656 16.8835 28.6509 16.8552C28.6317 16.8184 28.6096 16.7629 28.5718 16.6521C28.5448 16.5731 28.507 16.4613 28.4624 16.3406C28.3756 15.7715 28.2184 14.9786 28.0474 14.1121C27.8663 13.1949 27.6657 12.1775 27.4995 11.1912C27.3328 10.2012 27.205 9.26528 27.1646 8.50952C27.1443 8.13113 27.1469 7.81705 27.1724 7.57495C27.183 7.47341 27.1983 7.3923 27.2134 7.32886C27.454 7.21813 27.8409 7.11198 28.3882 7.03394C29.0579 6.93844 29.8631 6.89695 30.7104 6.88745C32.0925 6.87196 33.4445 6.93549 34.4976 6.96851Z" fill="#323232" stroke="black" stroke-width="1.50426"/>
<path d="M46.5745 7.05518C46.5098 8.28409 46.2313 10.1439 45.8967 12.0728C45.5845 13.8726 45.2543 15.5933 45.0081 16.9458C43.6373 16.9987 42.096 16.9709 40.6711 16.9585L40.3782 15.6392C39.8558 12.6561 39.4055 9.99222 39.053 7.04834C40.0113 7.00296 41.3662 6.95923 42.7092 6.9458C44.2818 6.93008 45.7553 6.95873 46.5745 7.05518Z" fill="#323232" stroke="black" stroke-width="1.50426"/>
<path d="M2.90527 62.0549C2.57826 62.1428 2.13332 62.2131 1.58398 62.259C0.86124 62.3194 0.0220937 62.3346 -0.842774 62.3235C-2.20513 62.306 -3.59253 62.2222 -4.64453 62.1584C-4.40754 59.8374 -3.85867 57.0159 -3.4707 54.7102L-3.46973 54.7092L-3.21875 53.1262C-3.17152 52.8139 -3.12751 52.5012 -3.08301 52.1887L1.2207 52.1692C1.91471 55.0486 2.43367 58.78 2.85254 61.6741C2.86847 61.8004 2.89075 61.9402 2.89941 62.0022C2.9023 62.0228 2.90356 62.0404 2.90527 62.0549Z" fill="#323232" stroke="black" stroke-width="1.50426"/>
<path d="M2.90771 7.0249C2.69557 9.74424 1.81486 14.3707 1.21435 17.0093C0.619484 17.0351 -0.0767542 17.068 -0.786622 17.0688C-1.76504 17.07 -2.58666 17.0041 -3.03467 16.8345L-3.03564 16.8335C-3.04712 16.8041 -3.06256 16.758 -3.08545 16.6694C-3.10371 16.5988 -3.13138 16.4937 -3.16357 16.3813C-3.38311 14.5941 -3.7687 12.8985 -4.05908 11.2925C-4.31627 9.87009 -4.50774 8.46974 -4.49561 6.98389C-2.02917 6.96072 0.439036 6.9749 2.90771 7.0249Z" fill="#323232" stroke="black" stroke-width="1.50426"/>
<path d="M58.5317 6.99634C58.4741 8.18138 58.2463 9.96851 57.9517 11.8127C57.6411 13.7566 57.2705 15.6939 56.9897 16.928C56.3821 16.9699 55.6417 17.0231 54.894 17.0393C54.4016 17.0499 53.9298 17.0423 53.5229 17.0061C53.113 16.9696 52.8248 16.9063 52.6538 16.8352L52.6528 16.8352C52.6385 16.8001 52.6229 16.7487 52.5981 16.6526C52.5801 16.5825 52.554 16.4771 52.5229 16.3684C52.0362 13.54 51.3239 9.88349 51.0972 7.04614C53.491 6.94592 56.0822 6.98167 58.5317 6.99634Z" fill="#323232" stroke="black" stroke-width="1.50426"/>
<path d="M70.5198 6.9729C70.5274 7.40429 70.501 7.94197 70.4436 8.5647C70.3548 9.52801 70.1975 10.637 70.011 11.7629C69.6891 13.7059 69.2833 15.6689 69.011 16.9749C68.3966 17.0047 67.6994 17.0398 66.9954 17.05C66.0988 17.0631 65.2774 17.0302 64.6965 16.9124C64.6911 16.8988 64.684 16.8834 64.677 16.8655C64.656 16.8113 64.626 16.7406 64.592 16.6594C64.3851 14.9021 64.0793 13.1996 63.7942 11.5129C63.5439 10.0322 63.3091 8.55513 63.1584 7.02173C65.451 6.93545 68.1606 6.97393 70.5198 6.9729Z" fill="#323232" stroke="black" stroke-width="1.50426"/>
<path d="M5.50098 44.4836C5.52985 45.1389 5.51993 45.7567 5.45801 46.259C4.96762 46.3295 4.44187 46.2762 3.70996 46.2483L3.66602 46.2463L3.62109 46.2502C1.64334 46.4111 -3.41843 46.321 -6.18945 46.3049C-6.19914 44.9522 -6.18718 43.5997 -6.15234 42.2483C-3.16959 42.1854 0.998343 42.0745 3.5918 42.3538L3.61328 42.3567L3.63477 42.3577C3.89164 42.3703 4.14334 42.3692 4.36035 42.3694C4.58605 42.3696 4.77317 42.3704 4.94141 42.3831C5.10841 42.3957 5.22315 42.4188 5.30371 42.4446C5.39117 43.0401 5.46926 43.7642 5.50098 44.4836Z" fill="#323232" stroke="black" stroke-width="1.50426"/>
<path d="M5.51904 25.8499C5.5285 26.333 5.52069 26.7962 5.48779 27.1838C5.47491 27.3356 5.45826 27.4639 5.44092 27.5706C4.85153 27.6329 4.45544 27.6143 3.68603 27.592L3.65478 27.5911L3.62353 27.592C0.342664 27.7713 -2.94436 27.7878 -6.22607 27.6448L-6.21143 23.72C-3.0932 23.6861 0.881628 23.5711 3.62744 23.7981L3.65479 23.801L3.68311 23.801C3.90812 23.8029 4.14913 23.7941 4.3667 23.7874C4.59234 23.7803 4.80056 23.7751 4.99463 23.7805C5.1705 23.7854 5.30428 23.8006 5.40479 23.8176C5.45253 24.3639 5.50465 25.1145 5.51904 25.8499Z" fill="#323232" stroke="black" stroke-width="1.50426"/>
<path d="M5.62256 35.0369C5.62331 35.5696 5.61114 36.0845 5.57861 36.5037C5.56475 36.6823 5.5464 36.8354 5.52686 36.9607C5.071 37.0789 4.70018 37.0419 3.93018 37.0359L3.9292 37.0359C0.709936 37.0166 -2.50948 37.0157 -5.73096 37.0339L-5.6958 32.9548C-4.24307 32.9289 -2.75357 32.9204 -1.26025 32.9187L3.93506 32.9158C4.36455 32.9182 4.71996 32.8968 5.13037 32.9158C5.30156 32.9237 5.44555 32.9397 5.56494 32.9597C5.59087 33.4944 5.62148 34.271 5.62256 35.0369Z" fill="#323232" stroke="black" stroke-width="1.50426"/>
<path d="M36.175 23.6738C36.1285 25.0328 36.1107 26.2917 36.1272 27.6572C32.8942 27.7385 29.5221 27.8207 26.3782 27.6133L26.3606 27.6123L26.343 27.6123C26.05 27.6067 25.8242 27.6144 25.6545 27.6191C25.4738 27.6242 25.3912 27.6242 25.3274 27.6172C25.2823 27.6122 25.2238 27.6073 25.0344 27.4863C24.7518 26.7005 24.667 26.1816 24.6731 25.6729C24.6794 25.1502 24.7779 24.6239 24.925 23.7891C25.0183 23.7635 25.1298 23.744 25.2678 23.7314C25.4151 23.7181 25.5749 23.713 25.7649 23.708C25.943 23.7033 26.1483 23.6991 26.3606 23.6855C29.5737 23.69 32.9317 23.728 36.175 23.6738Z" fill="#323232" stroke="black" stroke-width="1.50426"/>
<path d="M36.1021 46.2737C32.9023 46.2905 29.4172 46.363 26.3394 46.2629L26.3286 46.262L26.3179 46.262C26.028 46.2607 25.8043 46.2721 25.6362 46.2795C25.4573 46.2874 25.3765 46.2883 25.314 46.2825C25.2731 46.2786 25.2185 46.2762 25.0366 46.1624C24.7502 45.3958 24.6696 44.8784 24.6841 44.3713C24.6992 43.8429 24.8134 43.3122 24.981 42.4778C25.0803 42.4433 25.1858 42.4218 25.3101 42.4075C25.438 42.3927 25.5782 42.3862 25.7593 42.3782C25.9338 42.3704 26.1413 42.3615 26.3696 42.342L26.3755 42.342L26.936 42.2952C29.582 42.1043 33.3336 42.1802 36.1489 42.2131L36.1021 46.2737Z" fill="#323232" stroke="black" stroke-width="1.50426"/>
<path d="M69.2688 42.2581C69.2622 43.5625 69.2515 44.8985 69.2581 46.2122C66.0411 46.299 62.8223 46.3124 59.6047 46.2483L59.5823 46.2473L59.5608 46.2483C58.9311 46.2727 58.6771 46.2739 58.217 46.2161C58.1963 46.1226 58.1741 46.0088 58.1575 45.8733C58.1102 45.4874 58.0929 45.0006 58.095 44.4836C58.098 43.7434 58.1426 42.9846 58.179 42.4456C58.2649 42.4356 58.3616 42.4281 58.4709 42.427C58.8086 42.4237 59.098 42.458 59.5129 42.4758L59.7004 42.4836L59.8704 42.4016C59.8703 42.4016 59.9057 42.386 59.9973 42.3645C60.084 42.3442 60.1989 42.3246 60.342 42.3049C60.6285 42.2657 60.9975 42.2342 61.4319 42.2112C62.2993 42.1652 63.3828 42.1533 64.5012 42.1594C66.2826 42.1693 68.118 42.2239 69.2688 42.2581Z" fill="#323232" stroke="black" stroke-width="1.50426"/>
<path d="M69.2307 27.7302C68.1539 27.7458 66.3131 27.7771 64.5784 27.7869C63.4253 27.7933 62.2958 27.7897 61.4026 27.7654C60.9553 27.7532 60.575 27.7365 60.2844 27.7136C60.139 27.7022 60.0232 27.69 59.9368 27.6775C59.8398 27.6634 59.8155 27.6534 59.8313 27.6589L59.7043 27.614L59.5696 27.6169C58.8572 27.6276 58.6081 27.6449 58.1741 27.571C58.1554 27.4422 58.1375 27.2877 58.1243 27.1082C58.0943 26.7021 58.0851 26.2254 58.0901 25.7351C58.0974 25.0156 58.135 24.2903 58.1741 23.7556C58.2602 23.7458 58.358 23.7389 58.47 23.739C58.8122 23.7393 59.0945 23.7773 59.5208 23.7996L59.553 23.8015L59.5852 23.8005C62.8024 23.6917 66.0223 23.677 69.2405 23.7546L69.2307 27.7302Z" fill="#323232" stroke="black" stroke-width="1.50426"/>
<path d="M35.4924 36.9836L26.0657 37.0784C25.7658 37.0748 25.497 37.0817 25.2444 37.0432C25.0997 37.0211 25.034 36.9926 25.01 36.9807C24.3607 35.8192 24.4434 34.4755 24.6643 32.9973C24.7544 32.9698 24.8557 32.9536 24.9778 32.9436C25.1128 32.9326 25.2617 32.9302 25.4534 32.929C25.6379 32.9277 25.8572 32.9272 26.0959 32.9153L26.1077 32.9143L26.1204 32.9133C27.3977 32.8075 29.1976 32.8209 31.0657 32.8645C32.6057 32.9005 34.1941 32.9554 35.5139 32.9758L35.4924 36.9836Z" fill="#323232" stroke="black" stroke-width="1.50426"/>
<path d="M19.2668 46.2993C18.136 46.2826 16.3928 46.2555 14.6887 46.2544C13.6163 46.2537 12.5501 46.2636 11.6506 46.2944C10.8581 46.3216 10.1459 46.3662 9.67407 46.4448C9.53513 46.4107 9.41865 46.319 9.30981 46.1089C9.16586 45.8309 9.07578 45.4055 9.06177 44.8813C9.0481 44.3684 9.10918 43.821 9.21606 43.3442C9.28591 43.0328 9.37134 42.7822 9.44946 42.6001L10.1829 42.4692L10.217 42.4624L10.2493 42.4536L10.4407 42.4058C11.4458 42.1783 13.164 42.1153 14.9954 42.1284C16.5604 42.1396 18.1031 42.2004 19.2336 42.2388C19.2635 43.6084 19.2931 44.9498 19.2668 46.2993Z" fill="#323232" stroke="black" stroke-width="1.50426"/>
<path d="M19.2996 27.6746C18.2491 27.6774 16.4691 27.678 14.7097 27.6853C13.5608 27.6901 12.4235 27.6988 11.5164 27.7136C10.7843 27.7256 10.1549 27.7434 9.80249 27.7712L9.43726 27.6677C9.4286 27.6485 9.41715 27.6287 9.40796 27.6062C9.35254 27.4703 9.29659 27.2937 9.24585 27.0837C9.14422 26.6631 9.07335 26.1496 9.05835 25.6394C9.04321 25.1239 9.08655 24.6512 9.18628 24.2957C9.25564 24.0485 9.33502 23.9223 9.3894 23.8591L10.5574 23.7537C13.3861 23.6274 16.3913 23.6867 19.282 23.7332L19.2996 27.6746Z" fill="#323232" stroke="black" stroke-width="1.50426"/>
<path d="M19.2031 37.0266C18.2107 37.0345 16.5781 37.0487 14.9746 37.0481C13.9105 37.0477 12.8684 37.0408 12.0488 37.0217C11.6385 37.0122 11.2899 36.9995 11.0244 36.9836C10.8914 36.9757 10.7847 36.9678 10.7051 36.9592C10.6148 36.9495 10.592 36.9426 10.6064 36.9465L10.5381 36.928L10.4668 36.9231L9.89648 36.8791C9.83445 36.8093 9.74695 36.6773 9.66504 36.4338C9.54769 36.0849 9.47738 35.6235 9.45605 35.1145C9.43496 34.6107 9.46365 34.0934 9.52734 33.6467C9.56248 33.4004 9.60699 33.1936 9.65137 33.0305L10.0918 32.9514L19.2012 32.9221L19.2031 37.0266Z" fill="#323232" stroke="black" stroke-width="1.50426"/>
<path d="M52.7009 46.2852L43.7458 46.2695C43.7673 45.7339 43.7899 45.1211 43.7937 44.5264C43.7982 43.8236 43.7772 43.0783 43.6794 42.4385C44.0637 42.365 44.5455 42.3072 45.1082 42.2656C45.9863 42.2007 47.0034 42.1799 48.0427 42.1836C49.7538 42.1897 51.4895 42.262 52.7283 42.3125L52.7009 46.2852Z" fill="#323232" stroke="black" stroke-width="1.50426"/>
<path d="M52.7087 27.677C49.7346 27.7395 46.7598 27.7615 43.7849 27.7444L43.7869 23.719C46.7681 23.6995 49.7495 23.7164 52.7302 23.7698L52.7087 27.677Z" fill="#323232" stroke="black" stroke-width="1.50426"/>
<path d="M67.9895 32.9243C68.0091 34.277 67.9832 35.636 67.9602 37.0073L59.2542 37.0435C59.2402 35.6529 59.2855 34.2504 59.3274 32.8364C62.0936 33.0181 65.2372 32.9544 67.9895 32.9243Z" fill="#323232" stroke="black" stroke-width="1.50426"/>
<path d="M51.8201 32.9807C51.8019 34.3235 51.8079 35.7103 51.8083 37.0432L43.0652 36.9866C43.0104 35.8027 43.0284 34.2017 43.0349 32.929L51.8201 32.9807Z" fill="#323232" stroke="black" stroke-width="1.50426"/>
<path d="M19.9988 60.239C20.1005 60.8865 20.156 61.4692 20.1326 61.9509C20.0816 61.9639 20.0238 61.9783 19.9587 61.9919C19.6422 62.0582 19.2138 62.1169 18.698 62.1658C17.6695 62.2631 16.3561 62.3149 15.03 62.3181C13.7043 62.3214 12.3833 62.2767 11.3386 62.1863C10.8149 62.1409 10.3747 62.0848 10.0437 62.0212C9.98775 62.0105 9.93636 61.9986 9.8894 61.988C9.90423 61.5158 9.96209 60.824 10.0652 59.9744C10.2072 58.8039 10.4224 57.401 10.6726 56.0095C10.9229 54.6173 11.2069 53.2461 11.4871 52.1355C11.6273 51.5796 11.7645 51.0972 11.8933 50.7146C11.9574 50.5244 12.0157 50.3712 12.0662 50.2517C13.6877 50.0379 16.2131 50.0957 17.8806 50.2029C17.9504 50.2575 17.9892 50.2948 18.0115 50.3201C18.0356 50.3475 18.0487 50.3679 18.0681 50.4187C18.1052 50.5155 18.116 50.5724 18.1892 50.7976C18.2425 50.9617 18.3133 51.1562 18.4197 51.3923C18.5808 52.9976 19.2844 56.3157 19.5593 57.8132C19.6198 58.1903 19.6992 58.5992 19.7771 59.0056C19.856 59.4171 19.9347 59.8311 19.9988 60.239Z" fill="#323232" stroke="black" stroke-width="1.50426"/>
<path d="M136.232 7.2771C136.139 8.84543 135.809 10.7645 135.398 12.7205C134.938 14.9137 134.396 17.075 134 18.8044C133.996 18.8069 133.993 18.8105 133.988 18.8132C133.897 18.8686 133.732 18.9369 133.479 19.0017C132.976 19.1298 132.282 19.206 131.527 19.2341C130.78 19.262 130.008 19.2416 129.366 19.1902C128.688 19.1358 128.254 19.0542 128.116 18.9998L128.114 18.9988C128.014 18.9594 127.968 18.9232 127.945 18.9021C127.924 18.8816 127.902 18.8531 127.877 18.7996C127.849 18.7386 127.822 18.6572 127.787 18.5251C127.76 18.4216 127.72 18.257 127.675 18.0994C127.468 17.0469 126.907 14.4932 126.467 11.9998C126.245 10.7461 126.059 9.53224 125.966 8.56128C125.919 8.07465 125.898 7.66568 125.904 7.35132C125.905 7.30422 125.909 7.26142 125.911 7.22241C125.983 7.21556 126.064 7.20672 126.152 7.19995C126.513 7.17244 126.969 7.14953 127.491 7.13159C128.536 7.09576 129.828 7.08105 131.125 7.08765C132.422 7.09425 133.716 7.12245 134.764 7.17261C135.288 7.1977 135.744 7.22741 136.105 7.26245C136.15 7.26675 136.192 7.2728 136.232 7.2771Z" fill="#323232" stroke="black" stroke-width="1.50426"/>
<path d="M150.523 62.1116C149.52 62.4511 148.143 62.5737 146.699 62.5295C145.438 62.4909 144.183 62.3266 143.175 62.1077C143.154 61.8538 143.148 61.5221 143.171 61.1145C143.209 60.4618 143.304 59.6972 143.426 58.9075C143.673 57.3125 144.011 55.7272 144.181 54.7747L144.183 54.7629L144.185 54.7502L144.246 54.3665C144.37 53.6596 144.542 53.0167 144.74 52.2971C146.387 52.2787 147.467 52.4222 148.189 52.6907C148.929 52.966 149.293 53.37 149.525 53.9524C149.785 54.6055 149.881 55.4832 149.977 56.7327C150.07 57.9423 150.163 59.4283 150.461 61.1526C150.501 61.4541 150.551 61.7281 150.537 61.9827C150.534 62.0373 150.529 62.0799 150.523 62.1116Z" fill="#323232" stroke="black" stroke-width="1.50426"/>
<path d="M94.8403 62.1924C94.5307 62.2768 94.0896 62.347 93.5288 62.3926C92.8082 62.4511 91.9631 62.467 91.0903 62.458C89.7193 62.4439 88.3238 62.3693 87.2769 62.3154C87.4974 60.0133 88.0373 57.3514 88.4673 55.0957L88.4712 55.0723C88.6173 54.1531 88.7533 53.2331 88.8823 52.3105L93.2085 52.3164C93.8018 55.1812 94.5147 59.201 94.8013 61.8525L94.8022 61.8516C94.8096 61.9218 94.8162 61.9841 94.8228 62.0371C94.8297 62.0932 94.8343 62.1331 94.8384 62.1699C94.8393 62.1781 94.8397 62.1856 94.8403 62.1924Z" fill="#323232" stroke="black" stroke-width="1.50426"/>
<path d="M150.498 7.10669C150.453 8.32432 150.215 10.0978 149.906 11.9446C149.585 13.8599 149.199 15.7889 148.926 17.1272C148.721 17.1377 148.509 17.1507 148.296 17.1633C147.858 17.1893 147.407 17.2158 146.96 17.2278C146.044 17.2525 145.25 17.2111 144.716 17.0354L144.713 17.0344C144.659 17.0168 144.651 17.0055 144.66 17.0129C144.668 17.0205 144.666 17.0216 144.651 16.9934C144.632 16.9566 144.61 16.9011 144.572 16.7903C144.545 16.7113 144.507 16.5994 144.462 16.4788C144.376 15.9097 144.218 15.1168 144.047 14.2502C143.866 13.3331 143.666 12.3157 143.5 11.3293C143.333 10.3394 143.205 9.40346 143.165 8.6477C143.144 8.26931 143.147 7.95523 143.172 7.71313C143.183 7.61159 143.198 7.53048 143.213 7.46704C143.454 7.35631 143.841 7.25016 144.388 7.17212C145.058 7.07662 145.863 7.03514 146.71 7.02563C148.092 7.01014 149.444 7.07368 150.498 7.10669Z" fill="#323232" stroke="black" stroke-width="1.50426"/>
<path d="M82.8069 7.16626C82.5265 10.3629 81.8185 13.9255 81.1555 17.1204C80.9341 17.1299 80.7086 17.1429 80.4846 17.1555C80.0432 17.1804 79.6024 17.2055 79.1672 17.2151C78.2807 17.2346 77.5128 17.1829 76.9377 16.9749L76.9358 16.9749L76.9338 16.9729C76.9296 16.9659 76.9229 16.9551 76.9153 16.9397C76.8892 16.8868 76.8621 16.8171 76.8166 16.6936C76.7831 16.6026 76.7395 16.4891 76.6877 16.3635C76.1583 13.3822 75.5627 10.1291 75.3137 7.14966C77.6856 7.06684 80.3991 7.11541 82.8069 7.16626Z" fill="#323232" stroke="black" stroke-width="1.50426"/>
<path d="M106.835 7.14624C106.735 8.24483 106.511 10.0697 106.243 11.8992C106.072 13.0671 105.885 14.2215 105.706 15.1687C105.56 15.9346 105.427 16.5165 105.322 16.864C105.198 16.9151 105.026 16.969 104.795 17.0125C104.438 17.0799 104.009 17.1164 103.547 17.1316C102.697 17.1596 101.833 17.1166 101.173 17.0964C101.112 17.063 101.067 17.0384 101.031 17.0183C101.03 17.0154 101.029 17.0126 101.028 17.0095C100.997 16.8927 100.951 16.7145 100.874 16.4656C100.643 15.4353 100.145 13.4612 99.8042 11.533C99.6327 10.5633 99.5064 9.63433 99.4741 8.87183C99.458 8.49083 99.4656 8.16939 99.4976 7.91479C99.5172 7.75859 99.5452 7.64755 99.5698 7.57202C99.8217 7.41975 100.226 7.28103 100.8 7.18237C101.46 7.06893 102.25 7.02215 103.085 7.01538C104.43 7.00451 105.769 7.09199 106.835 7.14624Z" fill="#323232" stroke="black" stroke-width="1.50426"/>
<path d="M118.905 62.1931C118.578 62.281 118.133 62.3513 117.584 62.3972C116.861 62.4576 116.022 62.4728 115.157 62.4617C113.795 62.4442 112.407 62.3604 111.355 62.2966C111.592 59.9756 112.141 57.1541 112.529 54.8484L112.53 54.8474L112.781 53.2644C112.828 52.9521 112.872 52.6394 112.917 52.3269L117.221 52.3074C117.915 55.1868 118.434 58.9181 118.853 61.8123C118.868 61.9386 118.891 62.0784 118.899 62.1404C118.902 62.161 118.904 62.1786 118.905 62.1931Z" fill="#323232" stroke="black" stroke-width="1.50426"/>
<path d="M118.908 7.16309C118.696 9.88242 117.815 14.5089 117.214 17.1475C116.619 17.1733 115.923 17.2062 115.213 17.207C114.235 17.2082 113.413 17.1423 112.965 16.9727L112.964 16.9717C112.953 16.9423 112.937 16.8962 112.915 16.8076C112.896 16.737 112.869 16.6319 112.836 16.5195C112.617 14.7323 112.231 13.0366 111.941 11.4307C111.684 10.0083 111.492 8.60792 111.504 7.12207C113.971 7.0989 116.439 7.11309 118.908 7.16309Z" fill="#323232" stroke="black" stroke-width="1.50426"/>
<path d="M82.7541 62.3499C80.2619 62.3987 77.7669 62.3868 75.2747 62.3157C75.4853 60.1619 76.072 57.1071 76.4114 55.0413L76.4114 55.0403L76.8372 52.4348C78.4267 52.3124 79.6551 52.3182 81.2708 52.3459C81.7207 55.2476 82.1904 58.1452 82.678 61.0403L82.677 61.0403L82.6799 61.051C82.7091 61.2101 82.7303 61.5652 82.7444 62.0012C82.7482 62.1177 82.7514 62.2351 82.7541 62.3499Z" fill="#323232" stroke="black" stroke-width="1.50426"/>
<path d="M106.806 62.3206C105.911 62.3508 105.107 62.3909 104.388 62.4299C103.463 62.4802 102.695 62.527 102.043 62.5481C101.388 62.5692 100.891 62.5625 100.51 62.5149C100.127 62.4669 99.9313 62.3859 99.8269 62.3108C99.6837 62.2077 99.4903 61.9481 99.5681 60.8069C99.643 59.7103 99.9367 58.1271 100.35 55.7766L100.352 55.7678L100.353 55.759L100.492 54.9045C100.627 54.1245 100.758 53.5604 100.911 53.1467C101.106 52.6186 101.298 52.4409 101.488 52.3489C101.731 52.2313 102.123 52.1766 102.883 52.2131C103.526 52.2441 104.288 52.3244 105.302 52.4124C105.831 55.1007 106.273 58.04 106.721 60.7639L106.806 62.3206Z" fill="#323232" stroke="black" stroke-width="1.50426"/>
<path d="M94.8315 7.22485C94.6855 8.43358 94.4501 10.3738 94.1558 12.2522C93.9716 13.4277 93.7672 14.5625 93.5503 15.4661C93.4418 15.9183 93.3334 16.2985 93.228 16.5911C93.176 16.7353 93.1274 16.8497 93.0845 16.9358C92.9336 16.9767 92.722 17.0207 92.4507 17.0579C92.055 17.112 91.5885 17.1486 91.1128 17.1643C90.2627 17.1923 89.4807 17.151 89.0454 17.0735C88.8659 16.8821 88.8552 16.8339 88.8472 16.8079C88.833 16.7622 88.8209 16.699 88.7964 16.5344C88.785 16.4578 88.7715 16.3673 88.7544 16.262L88.6919 15.9143C88.4534 14.583 88.2055 13.2498 87.9526 11.9221C87.7853 11.0278 87.5507 10.1548 87.4624 9.25903C87.3818 8.44116 87.457 7.81819 87.7212 7.38306C87.9734 7.25179 88.3878 7.13488 88.9751 7.05981C89.6358 6.97539 90.4214 6.95374 91.2437 6.97192C92.5235 7.00023 93.8404 7.12179 94.8315 7.22485Z" fill="#323232" stroke="black" stroke-width="1.50426"/>
<path d="M121.501 44.6218C121.53 45.2771 121.52 45.8949 121.458 46.3972C120.968 46.4677 120.442 46.4144 119.71 46.3865L119.666 46.3845L119.621 46.3884C117.643 46.5493 112.582 46.4592 109.811 46.4431C109.801 45.0904 109.813 43.7379 109.848 42.3865C112.83 42.3236 116.998 42.2127 119.592 42.4919L119.613 42.4949L119.635 42.4958C119.892 42.5085 120.143 42.5074 120.36 42.5076C120.586 42.5077 120.773 42.5085 120.941 42.5212C121.108 42.5339 121.223 42.557 121.304 42.5828C121.391 43.1783 121.469 43.9024 121.501 44.6218Z" fill="#323232" stroke="black" stroke-width="1.50426"/>
<path d="M121.519 25.988C121.528 26.4712 121.521 26.9343 121.488 27.322C121.475 27.4738 121.458 27.6021 121.441 27.7087C120.852 27.7711 120.455 27.7525 119.686 27.7302L119.655 27.7292L119.624 27.7302C116.343 27.9095 113.056 27.926 109.774 27.783L109.789 23.8582C112.907 23.8243 116.882 23.7093 119.627 23.9363L119.655 23.9392L119.683 23.9392C119.908 23.9411 120.149 23.9323 120.367 23.9255C120.592 23.9185 120.801 23.9133 120.995 23.9187C121.171 23.9236 121.304 23.9387 121.405 23.9558C121.453 24.5021 121.505 25.2527 121.519 25.988Z" fill="#323232" stroke="black" stroke-width="1.50426"/>
<path d="M121.623 35.175C121.623 35.7078 121.611 36.2227 121.579 36.6418C121.565 36.8204 121.546 36.9736 121.527 37.0989C121.071 37.2171 120.7 37.1801 119.93 37.1741L119.929 37.1741C116.71 37.1548 113.491 37.1538 110.269 37.1721L110.304 33.093C111.757 33.0671 113.246 33.0586 114.74 33.0569L119.935 33.054C120.365 33.0564 120.72 33.035 121.13 33.054C121.302 33.0619 121.446 33.0778 121.565 33.0979C121.591 33.6326 121.621 34.4092 121.623 35.175Z" fill="#323232" stroke="black" stroke-width="1.50426"/>
<path d="M104.519 42.5056C104.555 43.8063 104.609 45.1825 104.543 46.4138C104.096 46.4748 103.655 46.4293 102.958 46.405L102.927 46.4041L102.896 46.406C100.286 46.5344 96.2421 46.4398 93.2603 46.4216L93.2603 42.3572C96.4801 42.326 99.6983 42.3534 102.917 42.4431L102.928 42.4441C103.381 42.4496 103.724 42.4264 104.117 42.4519C104.278 42.4624 104.411 42.4822 104.519 42.5056Z" fill="#323232" stroke="black" stroke-width="1.50426"/>
<path d="M152.175 23.812C152.129 25.171 152.111 26.4299 152.127 27.7954C148.894 27.8767 145.522 27.9589 142.378 27.7515L142.361 27.7505L142.343 27.7505C142.05 27.7449 141.824 27.7526 141.655 27.7573C141.474 27.7624 141.391 27.7624 141.327 27.7554C141.282 27.7504 141.224 27.7454 141.034 27.6245C140.752 26.8387 140.667 26.3198 140.673 25.811C140.679 25.2884 140.778 24.7621 140.925 23.9272C141.018 23.9017 141.13 23.8822 141.268 23.8696C141.415 23.8562 141.575 23.8512 141.765 23.8462C141.943 23.8415 142.148 23.8373 142.361 23.8237C145.574 23.8282 148.932 23.8662 152.175 23.812Z" fill="#323232" stroke="black" stroke-width="1.50426"/>
<path d="M152.102 46.4119C148.902 46.4286 145.417 46.5012 142.339 46.4011L142.329 46.4001L142.318 46.4001C142.028 46.3989 141.804 46.4103 141.636 46.4177C141.457 46.4256 141.376 46.4265 141.314 46.4207C141.273 46.4168 141.219 46.4144 141.037 46.3005C140.75 45.534 140.67 45.0165 140.684 44.5095C140.699 43.9811 140.813 43.4504 140.981 42.616C141.08 42.5815 141.186 42.56 141.31 42.5457C141.438 42.5308 141.578 42.5244 141.759 42.5164C141.934 42.5086 142.141 42.4996 142.37 42.4802L142.375 42.4802L142.936 42.4333C145.582 42.2425 149.334 42.3184 152.149 42.3513L152.102 46.4119Z" fill="#323232" stroke="black" stroke-width="1.50426"/>
<path d="M104.579 25.9246C104.597 26.4233 104.602 26.9073 104.583 27.3103C104.576 27.4706 104.565 27.6052 104.552 27.7156C104.091 27.786 103.727 27.7386 103 27.699L102.948 27.696L102.895 27.7C100.056 27.9417 96.3313 27.9154 93.2563 27.9333L93.2739 23.8708C96.4554 23.826 99.7496 23.8578 102.944 23.8513C103.377 23.8538 103.693 23.8299 104.067 23.8513C104.221 23.8601 104.343 23.8778 104.44 23.8982C104.491 24.417 104.55 25.1739 104.579 25.9246Z" fill="#323232" stroke="black" stroke-width="1.50426"/>
<path d="M104.907 33.155C105.491 34.2731 105.426 35.6182 105.104 36.9988C104.904 37.1026 104.687 37.124 104.278 37.1375L103.614 37.1589C100.693 37.2432 97.2382 37.1796 94.1685 37.1687C94.2071 35.8302 94.1918 34.4117 94.1851 33.0916C96.4972 33.1099 98.8093 33.1069 101.122 33.0779L103.689 33.0359C104.18 33.0317 104.349 33.0134 104.541 33.0359C104.635 33.047 104.737 33.0697 104.907 33.155Z" fill="#323232" stroke="black" stroke-width="1.50426"/>
<path d="M86.4749 42.3838L86.5168 42.3789C86.8385 42.3432 87.116 42.3309 87.344 42.3535C87.4098 42.3601 87.4666 42.3693 87.5159 42.3799C87.6638 43.5636 87.7687 45.2777 87.6887 46.4414C87.3847 46.4847 87.0601 46.4432 86.4709 46.4141L86.4524 46.4131L86.4338 46.4131L76.7327 46.4111L76.7463 42.375C79.2767 42.3558 84.9195 42.3838 86.4329 42.3838L86.4749 42.3838Z" fill="#323232" stroke="black" stroke-width="1.50426"/>
<path d="M151.492 37.1218L142.066 37.2166C141.766 37.213 141.497 37.2199 141.244 37.1814C141.1 37.1593 141.034 37.1308 141.01 37.1189C140.361 35.9574 140.443 34.6137 140.664 33.1355C140.754 33.108 140.856 33.0918 140.978 33.0818C141.113 33.0707 141.262 33.0684 141.453 33.0671C141.638 33.0659 141.857 33.0654 142.096 33.0535L142.108 33.0525L142.12 33.0515C143.398 32.9457 145.198 32.9591 147.066 33.0027C148.606 33.0387 150.194 33.0936 151.514 33.114L151.492 37.1218Z" fill="#323232" stroke="black" stroke-width="1.50426"/>
<path d="M87.6663 25.9473C87.6787 26.4693 87.679 26.9755 87.6575 27.3887C87.6507 27.5189 87.6406 27.6358 87.6301 27.7383C87.2663 27.7817 87.0323 27.7728 86.4661 27.7441L86.4104 27.7412L86.3557 27.7471C83.9454 27.9816 79.6302 27.8875 76.7278 27.8574L76.7317 23.8818L86.4055 23.8398C86.7907 23.8501 87.0376 23.8323 87.3567 23.8564C87.4384 23.8626 87.5071 23.8713 87.5647 23.8809C87.603 24.4009 87.648 25.1781 87.6663 25.9473Z" fill="#323232" stroke="black" stroke-width="1.50426"/>
<path d="M135.267 46.4375C134.136 46.4208 132.393 46.3937 130.689 46.3926C129.616 46.3919 128.55 46.4018 127.651 46.4326C126.858 46.4598 126.146 46.5044 125.674 46.583C125.535 46.5489 125.419 46.4572 125.31 46.2471C125.166 45.9691 125.076 45.5437 125.062 45.0195C125.048 44.5066 125.109 43.9592 125.216 43.4824C125.286 43.171 125.371 42.9204 125.449 42.7383L126.183 42.6074L126.217 42.6006L126.249 42.5918L126.441 42.5439C127.446 42.3164 129.164 42.2535 130.995 42.2666C132.56 42.2778 134.103 42.3386 135.234 42.377C135.263 43.7466 135.293 45.0879 135.267 46.4375Z" fill="#323232" stroke="black" stroke-width="1.50426"/>
<path d="M135.3 27.8127C134.249 27.8156 132.469 27.8162 130.71 27.8235C129.561 27.8282 128.423 27.837 127.516 27.8518C126.784 27.8638 126.155 27.8816 125.802 27.9094L125.437 27.8059C125.429 27.7867 125.417 27.7669 125.408 27.7444C125.353 27.6085 125.297 27.4319 125.246 27.2219C125.144 26.8013 125.073 26.2878 125.058 25.7776C125.043 25.2621 125.087 24.7893 125.186 24.4338C125.256 24.1867 125.335 24.0605 125.389 23.9973L126.557 23.8918C129.386 23.7656 132.391 23.8249 135.282 23.8713L135.3 27.8127Z" fill="#323232" stroke="black" stroke-width="1.50426"/>
<path d="M135.203 37.1648C134.211 37.1727 132.578 37.1869 130.975 37.1863C129.911 37.1858 128.868 37.179 128.049 37.1599C127.639 37.1504 127.29 37.1376 127.024 37.1218C126.891 37.1139 126.785 37.106 126.705 37.0974C126.615 37.0877 126.592 37.0808 126.606 37.0847L126.538 37.0662L126.467 37.0613L125.896 37.0173C125.834 36.9474 125.747 36.8155 125.665 36.572C125.548 36.2231 125.477 35.7617 125.456 35.2527C125.435 34.7489 125.464 34.2315 125.527 33.7849C125.562 33.5386 125.607 33.3317 125.651 33.1687L126.092 33.0896L135.201 33.0603L135.203 37.1648Z" fill="#323232" stroke="black" stroke-width="1.50426"/>
<path d="M87.24 32.9988C87.2552 34.4286 87.2381 35.9021 87.2283 37.3542L76.7703 37.3835C76.7329 35.9519 76.7602 34.3836 76.7712 32.905C80.2607 32.9814 83.7503 33.0134 87.24 32.9988Z" fill="#323232" stroke="black" stroke-width="1.50426"/>
<path d="M135.999 60.3772C136.1 61.0247 136.156 61.6074 136.133 62.0891C136.082 62.1021 136.024 62.1165 135.959 62.1301C135.642 62.1964 135.214 62.2551 134.698 62.304C133.669 62.4013 132.356 62.453 131.03 62.4563C129.704 62.4595 128.383 62.4149 127.339 62.3245C126.815 62.2791 126.375 62.2229 126.044 62.1594C125.988 62.1487 125.936 62.1368 125.889 62.1262C125.904 61.654 125.962 60.9622 126.065 60.1125C126.207 58.9421 126.422 57.5392 126.673 56.1477C126.923 54.7555 127.207 53.3843 127.487 52.2737C127.627 51.7178 127.764 51.2354 127.893 50.8528C127.957 50.6625 128.016 50.5094 128.066 50.3899C129.688 50.1761 132.213 50.2339 133.881 50.3411C133.95 50.3957 133.989 50.4329 134.011 50.4583C134.036 50.4857 134.049 50.5061 134.068 50.5569C134.105 50.6537 134.116 50.7105 134.189 50.9358C134.243 51.0999 134.313 51.2943 134.42 51.5305C134.581 53.1358 135.284 56.4539 135.559 57.9514C135.62 58.3285 135.699 58.7374 135.777 59.1438C135.856 59.5553 135.935 59.9693 135.999 60.3772Z" fill="#323232" stroke="black" stroke-width="1.50426"/>
</g>
</svg>
