<?xml version="1.0" encoding="utf-8"?>
<svg viewBox="0 0 148 72" width="148" height="72" xmlns="http://www.w3.org/2000/svg">
  <defs>
    <clipPath id="clip-0">
      <path d="M 261.875 -19.264 L 262.145 -19.293 C 263.021 -19.396 263.017 -19.357 263.746 -19.888 C 266.366 -21.798 269.555 -19.45 272.085 -19.267 L 273.135 -19.304 C 273.239 -19.636 273.269 -20.091 273.601 -20.236 C 275.401 -21.025 278.568 -18.59 279.68 -18.441 L 283.134 -17.787 C 285.332 -18.921 292.975 -15.382 294.588 -13.398 C 294.671 -13.297 294.83 -12.579 294.869 -12.39 C 296.32 -11.687 297.707 -11.066 298.313 -9.368 C 299.026 -7.378 298.57 44.84 298.57 51.165 L 298.574 86.701 C 298.574 92.657 298.583 98.61 298.558 104.563 C 298.544 107.485 297.114 108.34 294.823 109.365 L 294.758 111.138 C 294.738 111.822 294.735 112.32 294.161 112.753 C 291.727 114.579 288.615 115.774 285.761 116.67 C 284.504 117.064 283.678 117.239 283.076 115.871 C 281.853 116.117 280.137 116.517 278.939 116.653 C 278.215 118.006 274.771 119.053 273.56 118.502 C 273.299 117.941 273.211 117.729 272.748 117.338 C 271.836 117.484 270.461 117.516 269.506 117.564 C 269.506 118.344 269.575 118.65 269.236 119.308 C 267.7 119.417 265.875 119.347 264.313 119.328 C 263.764 118.895 264.069 118.832 263.849 117.827 L 263.785 117.54 C 262.666 117.511 261.427 117.375 260.301 117.275 C 260.211 117.761 260.121 117.926 259.937 118.378 C 258.541 119.043 255.314 118.123 254.538 116.658 C 252.914 116.355 251.299 116.003 249.692 115.609 C 249.435 116.151 249.281 116.391 248.956 116.894 C 247.265 117.397 239.292 113.962 238.064 112.265 C 237.651 111.694 238.29 109.85 237.633 108.939 C 234.821 107.679 234.763 105.899 234.763 103.03 C 234.763 94.602 234.793 86.176 234.788 77.751 L 234.788 21.287 L 234.777 3.472 C 234.758 -0.427 234.539 -5.449 235.042 -9.325 C 235.194 -10.491 236.634 -11.427 237.575 -11.983 L 237.758 -12.172 C 237.914 -12.823 238.023 -13.16 238.249 -13.788 C 239.732 -15.29 245.903 -17.841 248.109 -18.12 C 248.877 -18.217 249.062 -17.947 249.572 -17.514 C 250.947 -17.862 252.693 -18.155 254.107 -18.434 C 254.483 -18.535 254.912 -19.127 255.244 -19.239 C 256.654 -19.711 258.421 -20.702 259.895 -20.208 C 260.144 -19.656 260.221 -19.532 260.654 -19.13 L 261.875 -19.264 Z" fill="#272727"/>
    </clipPath>
  </defs>
  <g style="transform-origin: 35.9px 116.274px;" transform="matrix(0, 1, -1, 0, -3.677955627441, -80.227874755859)">
    <path d="M 32.049 4.41 C 33.914 3.05 35.936 3.289 37.51 3.695 C 38.276 3.892 39.089 4.173 39.715 4.368 C 40.336 4.561 40.834 4.689 41.257 4.735 C 41.431 4.439 41.717 4.105 42.188 3.899 C 43.043 3.525 43.935 3.582 44.65 3.733 C 45.378 3.886 46.095 4.175 46.709 4.456 C 47.309 4.73 47.937 5.058 48.363 5.268 C 48.595 5.382 48.777 5.467 48.921 5.525 C 49.02 5.565 49.07 5.58 49.083 5.584 L 49.107 5.586 L 49.147 5.594 L 52.188 6.171 C 52.581 6.056 52.981 6.011 53.35 6.004 C 53.909 5.994 54.505 6.064 55.096 6.178 C 56.278 6.407 57.591 6.842 58.842 7.362 C 60.099 7.884 61.344 8.511 62.392 9.147 C 63.396 9.756 64.361 10.456 64.935 11.161 L 65.04 11.306 C 65.131 11.447 65.18 11.567 65.193 11.599 C 65.228 11.682 65.255 11.763 65.275 11.826 C 65.302 11.908 65.324 11.996 65.347 12.08 C 66.625 12.709 68.193 13.622 68.913 15.636 L 68.912 15.636 C 68.996 15.87 69.032 16.129 69.052 16.283 C 69.077 16.478 69.097 16.712 69.116 16.971 C 69.154 17.493 69.187 18.181 69.215 19.003 C 69.271 20.652 69.312 22.893 69.341 25.534 C 69.398 30.818 69.408 37.737 69.396 44.786 C 69.37 58.911 69.256 73.498 69.256 76.674 L 69.261 112.21 C 69.261 118.163 69.271 124.121 69.245 130.079 L 69.245 130.08 C 69.237 131.809 68.797 133.146 67.839 134.196 C 67.177 134.921 66.331 135.427 65.475 135.847 L 65.444 136.702 C 65.436 136.98 65.432 137.482 65.297 137.959 C 65.132 138.541 64.796 139.05 64.25 139.46 L 64.248 139.462 C 61.602 141.448 58.287 142.703 55.398 143.611 L 55.396 143.612 C 54.845 143.784 53.961 144.071 53.097 143.917 C 52.453 143.803 51.954 143.488 51.566 143.058 C 50.739 143.233 49.78 143.431 48.945 143.562 C 48.638 143.892 48.283 144.159 47.95 144.369 C 47.382 144.727 46.729 145.015 46.086 145.226 C 45.443 145.437 44.76 145.587 44.12 145.64 C 43.526 145.689 42.776 145.673 42.125 145.376 L 41.62 145.147 L 41.386 144.643 C 41.346 144.556 41.313 144.489 41.286 144.432 C 40.906 144.465 40.505 144.489 40.121 144.508 C 40.053 144.839 39.935 145.158 39.757 145.504 L 39.37 146.254 L 38.529 146.314 C 36.91 146.429 34.979 146.356 33.482 146.337 L 32.972 146.331 L 32.572 146.016 C 32.386 145.87 32.146 145.659 31.959 145.363 C 31.751 145.033 31.682 144.718 31.655 144.479 C 31.281 144.451 30.905 144.42 30.54 144.386 C 30.531 144.409 30.521 144.431 30.512 144.455 L 30.293 144.992 L 29.77 145.242 C 29.124 145.55 28.394 145.624 27.755 145.605 C 27.094 145.585 26.402 145.46 25.753 145.261 C 25.104 145.063 24.452 144.777 23.882 144.406 C 23.525 144.174 23.162 143.882 22.854 143.526 C 21.779 143.317 20.708 143.09 19.642 142.842 C 19.568 142.959 19.49 143.082 19.401 143.218 L 19.101 143.683 L 18.57 143.841 C 18.048 143.997 17.48 143.962 17.048 143.907 C 16.571 143.845 16.042 143.726 15.5 143.577 C 14.413 143.276 13.154 142.815 11.934 142.293 C 10.711 141.771 9.489 141.171 8.477 140.58 C 7.971 140.284 7.499 139.981 7.099 139.679 C 6.719 139.393 6.32 139.046 6.035 138.653 L 6.035 138.652 C 5.644 138.11 5.612 137.474 5.603 137.189 C 5.592 136.85 5.618 136.44 5.628 136.179 C 5.639 135.907 5.639 135.699 5.624 135.533 C 4.279 134.813 3.403 133.877 2.929 132.631 C 2.446 131.363 2.45 129.903 2.45 128.539 C 2.45 120.095 2.48 111.696 2.476 103.261 L 2.476 46.797 L 2.464 28.988 C 2.446 25.195 2.221 19.999 2.741 15.991 L 2.741 15.99 C 2.887 14.873 3.609 14.043 4.193 13.514 C 4.662 13.09 5.183 12.737 5.619 12.465 C 5.736 12.039 5.85 11.699 6.025 11.213 L 6.136 10.903 L 6.368 10.667 C 6.9 10.129 7.727 9.603 8.566 9.138 C 9.442 8.653 10.468 8.163 11.503 7.719 C 13.516 6.855 15.779 6.07 17.108 5.902 C 17.701 5.827 18.273 5.874 18.828 6.169 C 18.945 6.232 19.05 6.298 19.142 6.364 C 20.337 6.097 21.69 5.857 22.775 5.647 C 22.801 5.624 22.837 5.596 22.881 5.557 C 22.959 5.487 23.101 5.359 23.24 5.25 C 23.367 5.15 23.62 4.961 23.952 4.849 L 23.954 4.848 C 24.261 4.745 24.59 4.614 24.998 4.454 C 25.386 4.302 25.833 4.131 26.294 3.99 C 27.13 3.735 28.223 3.511 29.336 3.812 L 29.559 3.879 L 30.18 4.087 L 30.449 4.684 C 30.469 4.727 30.487 4.765 30.502 4.798 L 30.898 4.754 L 30.9 4.754 L 31.169 4.725 L 31.169 4.726 C 31.413 4.698 31.529 4.685 31.638 4.669 C 31.655 4.667 31.67 4.667 31.681 4.666 C 31.686 4.662 31.692 4.659 31.7 4.654 C 31.766 4.613 31.863 4.545 32.049 4.41 Z" fill="#272727" stroke="black" stroke-width="3"/>
    <g style="clip-path: url('#clip-0');" transform="matrix(1, 0, 0, 1, -230.563843, 25.355045)">
      <g>
        <path d="M 264.57 109.039 C 266.233 109.18 267.85 109.197 269.516 109.228 C 269.502 111.958 269.439 114.851 269.506 117.564 C 269.506 117.881 269.515 118.119 269.506 118.335 C 269.505 118.369 269.504 118.402 269.501 118.435 C 269.5 118.455 269.498 118.474 269.496 118.494 C 269.484 118.611 269.463 118.724 269.427 118.845 C 269.42 118.868 269.412 118.891 269.405 118.914 C 269.393 118.95 269.379 118.986 269.365 119.023 C 269.354 119.05 269.343 119.077 269.331 119.104 C 269.304 119.168 269.273 119.237 269.237 119.308 L 268.648 119.342 C 268.37 119.353 268.086 119.359 267.798 119.363 C 267.746 119.364 267.693 119.364 267.641 119.365 C 266.524 119.376 265.36 119.341 264.314 119.328 C 263.765 118.896 264.069 118.832 263.85 117.827 L 263.785 117.54 C 263.793 117.331 263.8 117.051 263.805 116.718 C 263.82 115.799 263.829 114.482 263.85 113.196 C 263.853 112.997 263.857 112.798 263.861 112.602 C 263.865 112.397 263.869 112.194 263.873 111.995 C 263.878 111.813 263.884 111.635 263.889 111.463 C 263.895 111.253 263.902 111.05 263.909 110.858 C 263.928 110.401 263.948 110 263.976 109.689 C 263.981 109.635 263.988 109.584 263.993 109.536 C 264.012 109.36 264.031 109.223 264.055 109.132 Z M 278.757 110.667 C 278.746 112.114 278.647 115.363 278.94 116.653 C 278.842 116.836 278.694 117.012 278.509 117.18 C 278.485 117.202 278.461 117.223 278.436 117.245 C 278.418 117.26 278.4 117.276 278.381 117.291 C 278.352 117.314 278.323 117.338 278.293 117.361 C 278.277 117.374 278.26 117.386 278.243 117.398 C 278.217 117.418 278.19 117.437 278.163 117.456 C 278.086 117.51 278.004 117.563 277.92 117.615 C 277.861 117.652 277.798 117.686 277.736 117.721 C 277.685 117.75 277.635 117.781 277.582 117.808 C 277.513 117.845 277.441 117.878 277.369 117.913 C 277.317 117.938 277.265 117.965 277.211 117.989 C 277.146 118.018 277.08 118.045 277.013 118.073 C 276.951 118.099 276.89 118.125 276.827 118.149 C 276.566 118.25 276.296 118.339 276.028 118.412 C 275.965 118.429 275.902 118.442 275.84 118.458 C 275.773 118.474 275.707 118.492 275.641 118.507 C 275.572 118.522 275.502 118.534 275.434 118.547 C 275.366 118.559 275.299 118.572 275.232 118.583 C 275.189 118.589 275.146 118.595 275.104 118.6 C 275.014 118.612 274.926 118.624 274.84 118.632 C 274.798 118.635 274.757 118.637 274.716 118.639 C 274.643 118.644 274.571 118.648 274.5 118.649 C 274.413 118.651 274.329 118.651 274.247 118.646 C 274.211 118.644 274.176 118.642 274.141 118.638 C 274.127 118.637 274.113 118.636 274.1 118.635 C 274.058 118.63 274.017 118.625 273.978 118.619 C 273.968 118.617 273.959 118.617 273.949 118.615 C 273.852 118.599 273.762 118.576 273.679 118.549 C 273.637 118.535 273.597 118.519 273.56 118.502 C 273.299 117.941 273.211 117.73 272.747 117.339 C 273.423 116.542 273.218 112.085 273.225 110.688 C 274.974 110.608 276.985 110.662 278.757 110.667 Z M 259.879 110.468 L 259.92 110.568 C 260.33 111.709 260.279 115.955 260.301 117.275 C 260.211 117.761 260.121 117.926 259.937 118.378 L 259.801 118.436 C 259.662 118.489 259.509 118.527 259.345 118.553 C 259.327 118.556 259.309 118.559 259.29 118.561 C 259.255 118.566 259.22 118.571 259.184 118.575 C 259.164 118.577 259.144 118.579 259.123 118.581 C 259.032 118.589 258.938 118.595 258.841 118.596 C 258.751 118.598 258.66 118.596 258.567 118.593 C 258.488 118.589 258.408 118.583 258.327 118.576 C 258.283 118.572 258.238 118.57 258.194 118.565 C 258.103 118.555 258.013 118.541 257.921 118.526 C 257.88 118.52 257.838 118.515 257.797 118.508 C 257.707 118.491 257.616 118.472 257.526 118.452 C 257.484 118.443 257.442 118.435 257.4 118.425 C 257.139 118.361 256.879 118.282 256.627 118.188 C 256.564 118.165 256.503 118.138 256.441 118.113 C 256.374 118.086 256.307 118.06 256.242 118.031 C 256.185 118.005 256.129 117.976 256.073 117.949 C 256.012 117.92 255.952 117.892 255.894 117.861 C 255.801 117.812 255.711 117.76 255.623 117.707 C 255.591 117.687 255.56 117.668 255.529 117.648 C 255.512 117.637 255.495 117.626 255.478 117.615 C 255.453 117.599 255.429 117.582 255.405 117.565 C 255.327 117.511 255.252 117.456 255.181 117.398 C 255.157 117.379 255.133 117.359 255.11 117.339 C 255 117.245 254.899 117.148 254.81 117.047 C 254.787 117.02 254.765 116.993 254.743 116.966 C 254.731 116.95 254.717 116.935 254.705 116.919 C 254.674 116.878 254.645 116.836 254.618 116.795 L 254.538 116.658 C 254.674 114.785 254.686 112.521 254.74 110.615 L 255.945 110.635 C 257.194 110.656 258.538 110.663 259.656 110.497 Z M 283.138 110.263 C 285.477 109.515 291.614 108.019 293.942 108.209 C 294.705 108.673 294.454 108.406 294.824 109.365 L 294.758 111.137 C 294.737 111.822 294.735 112.32 294.161 112.753 C 291.728 114.579 288.615 115.774 285.761 116.671 C 285.498 116.753 285.254 116.824 285.027 116.875 C 284.988 116.883 284.951 116.893 284.913 116.9 C 284.901 116.903 284.888 116.905 284.875 116.907 C 284.833 116.915 284.791 116.922 284.749 116.927 C 284.724 116.931 284.699 116.934 284.674 116.937 C 284.562 116.95 284.455 116.956 284.352 116.951 C 284.334 116.95 284.317 116.947 284.299 116.946 C 284.266 116.943 284.233 116.939 284.2 116.934 C 284.179 116.931 284.159 116.927 284.138 116.923 C 284.105 116.916 284.073 116.908 284.041 116.898 C 284.026 116.894 284.011 116.89 283.995 116.885 C 283.959 116.872 283.924 116.857 283.889 116.841 C 283.876 116.834 283.862 116.83 283.849 116.823 C 283.804 116.8 283.76 116.775 283.717 116.745 C 283.705 116.737 283.695 116.727 283.683 116.718 C 283.65 116.694 283.616 116.668 283.584 116.638 C 283.573 116.628 283.562 116.616 283.55 116.605 C 283.519 116.575 283.489 116.542 283.459 116.508 C 283.447 116.493 283.434 116.478 283.422 116.463 C 283.391 116.423 283.36 116.382 283.329 116.337 C 283.322 116.326 283.314 116.316 283.307 116.304 C 283.268 116.244 283.229 116.18 283.192 116.11 L 283.076 115.872 C 283.243 115.374 283.147 111.09 283.138 110.263 Z M 237.633 108.939 C 238.055 108.485 238.424 108.112 239.049 108.155 C 241.663 108.34 246.884 109.387 249.375 110.178 C 249.398 111.303 249.346 114.907 249.692 115.609 C 249.628 115.745 249.57 115.861 249.514 115.968 C 249.466 116.06 249.418 116.145 249.37 116.228 C 249.354 116.257 249.338 116.286 249.321 116.314 C 249.289 116.367 249.256 116.42 249.222 116.475 C 249.144 116.6 249.059 116.734 248.955 116.894 C 247.263 117.396 239.292 113.962 238.065 112.264 C 237.652 111.694 238.291 109.85 237.633 108.939 Z M 294.661 96.843 C 294.735 99.863 294.722 102.887 294.62 105.906 C 292.431 105.785 288.771 105.073 286.494 104.699 L 283.309 104.179 C 283.285 103.923 283.266 103.676 283.248 103.437 C 283.245 103.386 283.241 103.335 283.238 103.284 C 283.226 103.115 283.216 102.95 283.207 102.788 C 283.204 102.73 283.2 102.672 283.198 102.615 C 283.187 102.404 283.178 102.197 283.171 101.992 C 283.162 101.696 283.157 101.405 283.155 101.113 C 283.154 101.02 283.153 100.928 283.153 100.835 C 283.152 100.545 283.152 100.253 283.156 99.951 L 283.18 98.452 C 286.287 97.973 289.39 97.47 292.491 96.948 C 292.94 96.865 294.147 96.86 294.661 96.843 Z M 238.006 96.749 C 241.649 96.989 245.841 97.847 249.431 98.595 C 249.443 100.138 249.775 102.258 249.258 103.686 C 249.094 104.143 248.7 104.164 248.144 104.407 C 246.814 104.643 245.418 104.894 244.009 105.124 C 243.753 105.165 243.497 105.207 243.241 105.247 C 243.162 105.259 243.084 105.272 243.005 105.284 C 242.219 105.405 241.433 105.515 240.656 105.609 C 240.116 105.675 239.58 105.733 239.052 105.78 C 238.97 105.787 238.889 105.795 238.808 105.802 C 238.538 105.824 238.27 105.845 238.004 105.862 C 237.863 103.032 237.946 99.588 238.006 96.749 Z M 254.938 92.091 C 255.796 92.008 259.245 91.79 259.981 92.108 C 260.117 92.914 260.112 93.118 260.071 93.939 C 260.331 96.618 260.193 101.581 260.177 104.393 L 254.709 104.388 L 254.663 93.941 C 254.671 93.662 254.66 93.339 254.678 93.03 C 254.679 93.014 254.68 92.997 254.681 92.981 C 254.684 92.939 254.688 92.898 254.693 92.857 C 254.696 92.821 254.699 92.784 254.704 92.749 C 254.71 92.705 254.72 92.662 254.728 92.619 C 254.734 92.588 254.739 92.558 254.746 92.528 C 254.772 92.424 254.805 92.327 254.849 92.239 C 254.859 92.218 254.869 92.197 254.88 92.177 Z M 273.447 92.161 C 274.792 91.959 277.253 91.792 278.598 91.981 C 278.879 92.659 278.777 93.189 278.741 93.934 L 278.739 104.39 L 273.206 104.371 C 273.202 104.13 273.199 103.812 273.197 103.437 C 273.189 102.313 273.19 100.676 273.194 99.056 C 273.198 96.898 273.206 94.771 273.206 93.934 C 273.188 93.774 273.175 93.614 273.169 93.459 C 273.167 93.411 273.167 93.365 273.166 93.318 C 273.166 93.28 273.166 93.242 273.166 93.205 C 273.167 93.173 273.169 93.142 273.17 93.111 C 273.172 93.067 273.174 93.024 273.178 92.981 C 273.181 92.942 273.187 92.904 273.192 92.866 C 273.196 92.833 273.2 92.801 273.205 92.769 C 273.212 92.732 273.22 92.696 273.229 92.661 C 273.237 92.627 273.245 92.593 273.255 92.56 C 273.299 92.412 273.36 92.277 273.447 92.161 Z M 263.821 92.385 C 265.732 92.345 267.759 92.388 269.68 92.393 L 269.714 104.323 C 267.837 104.408 265.621 104.346 263.714 104.343 C 263.809 100.357 263.845 96.371 263.821 92.385 Z M 293.347 84.819 C 293.859 84.766 293.94 84.697 294.375 84.976 C 295.07 86.628 294.696 91.838 294.604 93.905 C 292.085 93.742 289.014 93.113 286.53 92.639 C 285.399 92.46 284.269 92.292 283.134 92.139 L 283.141 86.548 C 286.032 85.931 290.47 85.13 293.347 84.819 Z M 238.134 84.697 L 240.518 84.99 C 243.622 85.384 248.29 86.056 249.141 86.796 C 249.542 87.719 249.609 90.728 249.334 91.707 C 249.251 91.791 249.177 91.862 249.111 91.923 C 249.047 91.98 248.989 92.026 248.935 92.066 C 248.897 92.094 248.862 92.118 248.826 92.139 C 248.814 92.147 248.802 92.154 248.789 92.161 C 248.769 92.172 248.749 92.179 248.729 92.188 C 248.695 92.204 248.662 92.219 248.627 92.23 C 248.608 92.236 248.589 92.241 248.57 92.247 C 248.539 92.255 248.507 92.263 248.474 92.27 C 248.278 92.311 248.029 92.334 247.622 92.416 C 246.294 92.654 244.962 92.901 243.636 93.154 C 243.227 93.231 242.779 93.332 242.317 93.427 C 242.111 93.468 241.901 93.508 241.692 93.544 C 241.548 93.568 241.405 93.592 241.261 93.612 C 241.164 93.625 241.066 93.636 240.969 93.646 C 240.918 93.652 240.867 93.656 240.817 93.661 C 240.757 93.666 240.698 93.67 240.639 93.674 C 240.601 93.676 240.563 93.679 240.525 93.68 C 240.321 93.69 240.121 93.689 239.925 93.677 C 239.888 93.674 239.852 93.671 239.816 93.668 C 239.75 93.662 239.685 93.654 239.62 93.645 C 239.58 93.64 239.541 93.635 239.501 93.628 C 239.484 93.625 239.467 93.621 239.449 93.618 C 239.305 93.59 239.164 93.555 239.029 93.508 C 239.022 93.505 239.015 93.502 239.008 93.5 C 238.872 93.451 238.741 93.392 238.616 93.321 C 238.604 93.314 238.592 93.307 238.58 93.3 C 238.52 93.264 238.461 93.225 238.404 93.183 C 237.354 91.646 237.922 86.679 238.134 84.697 Z M 254.956 75.227 C 255.891 75.113 259.074 74.851 259.923 75.181 C 260.156 76.044 260.073 76.52 260.025 77.409 C 260.29 80.525 260.235 84.695 260.265 87.867 L 254.704 87.843 C 254.642 84.428 254.682 80.853 254.675 77.426 C 254.676 77.221 254.669 76.998 254.666 76.772 C 254.665 76.695 254.666 76.618 254.667 76.541 C 254.667 76.521 254.668 76.5 254.668 76.48 C 254.669 76.424 254.671 76.368 254.673 76.312 C 254.676 76.259 254.681 76.206 254.685 76.153 C 254.689 76.105 254.692 76.058 254.698 76.011 C 254.706 75.941 254.715 75.871 254.729 75.803 C 254.763 75.631 254.814 75.471 254.891 75.332 Z M 273.575 75.111 C 275.167 75.075 277.034 74.975 278.598 75.113 C 278.854 75.924 278.762 76.575 278.732 77.435 C 278.748 77.768 278.759 78.124 278.769 78.498 C 278.771 78.587 278.774 78.677 278.776 78.768 C 278.782 79.074 278.787 79.391 278.79 79.716 C 278.791 79.772 278.793 79.829 278.793 79.885 C 278.797 80.297 278.799 80.721 278.798 81.151 C 278.798 81.755 278.792 82.373 278.786 82.989 C 278.782 83.484 278.778 83.977 278.773 84.463 C 278.759 85.691 278.744 86.865 278.743 87.86 L 273.186 87.86 L 273.166 85.252 C 273.164 84.437 273.167 83.622 273.173 82.807 C 273.174 82.666 273.176 82.524 273.177 82.383 C 273.183 81.723 273.192 81.064 273.202 80.404 C 273.206 80.167 273.211 79.93 273.215 79.693 C 273.23 78.939 273.246 78.185 273.267 77.43 C 273.27 77.151 273.26 76.843 273.265 76.537 C 273.266 76.494 273.268 76.452 273.269 76.41 C 273.27 76.358 273.271 76.307 273.274 76.256 C 273.277 76.203 273.282 76.152 273.286 76.1 C 273.291 76.05 273.295 76 273.301 75.951 C 273.31 75.876 273.321 75.803 273.335 75.731 C 273.34 75.708 273.346 75.684 273.351 75.661 C 273.398 75.457 273.468 75.269 273.575 75.111 Z M 264.177 74.907 C 265.667 74.02 267.442 74.19 269.033 74.598 C 269.525 75.206 269.449 75.803 269.486 76.723 C 269.578 79.91 269.492 83.75 269.492 86.98 C 267.707 86.893 265.711 86.939 263.909 86.939 L 263.925 84.463 C 263.933 81.873 263.911 79.284 263.859 76.694 C 263.857 76.482 263.851 76.307 263.849 76.153 L 263.849 76.014 C 263.849 76.002 263.85 75.99 263.85 75.977 C 263.851 75.944 263.852 75.911 263.854 75.879 C 263.855 75.85 263.857 75.822 263.86 75.794 C 263.862 75.765 263.866 75.736 263.869 75.708 C 263.875 75.67 263.881 75.632 263.889 75.594 C 263.893 75.574 263.897 75.553 263.903 75.532 C 263.913 75.492 263.926 75.452 263.94 75.411 C 263.947 75.388 263.954 75.363 263.963 75.34 C 263.987 75.278 264.014 75.214 264.047 75.146 Z M 238.005 72.725 C 239.706 72.791 247.529 73.838 248.96 74.43 C 249.65 75.392 249.447 78.118 249.417 79.4 C 249.313 79.588 249.25 79.714 249.197 79.802 C 249.172 79.843 249.147 79.874 249.124 79.901 C 249.096 79.934 249.068 79.958 249.032 79.978 C 249.004 79.994 248.972 80.01 248.933 80.023 C 248.805 80.066 248.602 80.105 248.229 80.223 L 246.099 80.717 C 245.703 80.806 245.281 80.898 244.848 80.989 C 244.561 81.049 244.27 81.111 243.977 81.168 C 243.737 81.214 243.496 81.258 243.256 81.301 C 243.239 81.304 243.222 81.306 243.205 81.309 C 243.013 81.343 242.822 81.375 242.632 81.405 C 242.567 81.415 242.502 81.426 242.437 81.436 C 242.232 81.467 242.03 81.496 241.831 81.521 C 241.812 81.524 241.793 81.527 241.774 81.529 C 241.571 81.555 241.372 81.576 241.179 81.594 C 240.909 81.62 240.65 81.638 240.406 81.646 C 240.353 81.648 240.301 81.65 240.249 81.651 C 240.006 81.656 239.778 81.65 239.572 81.633 C 239.522 81.628 239.474 81.624 239.427 81.619 C 239.409 81.617 239.391 81.614 239.373 81.612 C 239.238 81.594 239.114 81.57 239.002 81.54 C 238.979 81.534 238.958 81.526 238.936 81.519 C 238.9 81.508 238.865 81.496 238.831 81.483 C 238.815 81.477 238.798 81.47 238.783 81.464 C 238.734 81.443 238.69 81.421 238.649 81.396 C 237.41 79.859 237.943 74.87 238.005 72.725 Z M 294.625 72.769 C 294.865 82.378 296.51 82.392 287.222 80.758 C 286.931 80.713 286.659 80.668 286.405 80.625 C 286.325 80.611 286.247 80.596 286.171 80.583 C 286.012 80.554 285.86 80.525 285.716 80.496 C 285.331 80.417 284.998 80.337 284.71 80.247 C 284.545 80.195 284.395 80.139 284.259 80.081 C 284.231 80.069 284.203 80.056 284.176 80.044 C 284.14 80.027 284.104 80.01 284.07 79.993 C 284.04 79.978 284.011 79.962 283.983 79.946 C 283.952 79.929 283.922 79.911 283.893 79.893 C 283.871 79.88 283.849 79.866 283.827 79.852 C 283.792 79.829 283.759 79.804 283.726 79.779 C 283.71 79.767 283.694 79.756 283.679 79.744 C 283.644 79.715 283.61 79.686 283.578 79.656 C 283.57 79.648 283.56 79.641 283.552 79.633 C 283.471 79.553 283.402 79.467 283.342 79.375 C 283.329 79.355 283.318 79.335 283.306 79.314 C 283.287 79.282 283.269 79.25 283.252 79.217 C 283.245 79.203 283.239 79.189 283.233 79.175 C 283.217 79.141 283.202 79.106 283.189 79.07 C 283.179 79.046 283.171 79.021 283.162 78.996 C 283.153 78.968 283.144 78.939 283.136 78.91 C 283.127 78.879 283.118 78.847 283.111 78.814 C 283.105 78.79 283.1 78.766 283.095 78.742 C 283.087 78.705 283.08 78.668 283.074 78.63 C 283.068 78.597 283.064 78.564 283.06 78.531 C 283.056 78.502 283.052 78.474 283.049 78.444 C 283.042 78.371 283.036 78.296 283.032 78.218 C 283.02 77.966 283.025 77.685 283.042 77.37 C 283.049 77.251 283.056 77.128 283.066 77 C 283.072 76.91 283.079 76.818 283.087 76.723 C 283.103 76.535 283.12 76.337 283.139 76.128 L 283.288 74.438 C 284.005 74.292 284.741 74.152 285.49 74.017 C 286.238 73.883 286.997 73.754 287.758 73.628 L 292.258 72.898 Z M 255.009 58.258 C 256.075 58.148 259.063 57.913 259.967 58.338 C 260.112 59.306 260.085 59.746 260.057 60.703 C 260.251 64.249 260.257 67.802 260.077 71.348 L 254.691 71.329 C 254.672 68.167 254.513 63.693 254.762 60.678 C 254.764 60.467 254.756 60.238 254.749 60.007 C 254.744 59.838 254.741 59.669 254.741 59.503 C 254.742 59.48 254.74 59.457 254.741 59.434 L 254.742 59.352 C 254.743 59.326 254.745 59.301 254.746 59.275 C 254.749 59.208 254.753 59.143 254.759 59.079 C 254.766 59 254.774 58.923 254.786 58.848 C 254.79 58.828 254.793 58.807 254.797 58.787 C 254.801 58.767 254.804 58.747 254.809 58.727 C 254.839 58.591 254.882 58.467 254.942 58.36 C 254.962 58.324 254.985 58.29 255.009 58.258 Z M 273.712 58.371 C 275.055 58.147 277.28 57.951 278.593 58.255 C 278.849 59.044 278.745 59.839 278.713 60.686 C 278.893 62.899 278.764 68.866 278.766 71.304 C 278.346 71.31 277.926 71.313 277.506 71.314 C 277.372 71.315 277.237 71.314 277.103 71.314 C 276.842 71.314 276.581 71.313 276.321 71.311 C 276.152 71.31 275.984 71.309 275.816 71.307 C 275.414 71.303 275.012 71.298 274.61 71.29 C 274.148 71.28 273.686 71.268 273.225 71.254 C 273.17 68.293 273.011 63.567 273.32 60.696 C 273.333 60.425 273.329 60.159 273.33 59.905 C 273.331 59.843 273.331 59.782 273.332 59.721 C 273.333 59.669 273.336 59.617 273.338 59.566 C 273.34 59.515 273.341 59.464 273.344 59.414 C 273.347 59.369 273.353 59.325 273.358 59.281 C 273.364 59.219 273.369 59.158 273.379 59.098 C 273.382 59.082 273.385 59.066 273.388 59.05 C 273.402 58.977 273.418 58.906 273.44 58.839 C 273.443 58.828 273.446 58.817 273.449 58.806 C 273.459 58.779 273.47 58.753 273.481 58.727 C 273.487 58.713 273.493 58.698 273.499 58.683 C 273.512 58.656 273.527 58.629 273.541 58.602 C 273.546 58.593 273.55 58.583 273.555 58.574 C 273.567 58.553 273.582 58.534 273.596 58.514 C 273.63 58.464 273.668 58.415 273.712 58.371 Z M 264.124 58.077 C 265.006 58.019 268.53 57.864 269.264 58.22 C 269.582 59.037 269.508 59.559 269.501 60.443 C 269.48 63.914 269.481 67.385 269.504 70.858 L 263.93 70.809 C 263.911 69.967 263.899 69.109 263.892 68.243 C 263.884 67.377 263.881 66.503 263.88 65.629 L 263.877 60.435 C 263.878 60.247 263.874 60.038 263.871 59.822 C 263.87 59.668 263.87 59.509 263.874 59.352 C 263.875 59.311 263.875 59.269 263.877 59.228 C 263.878 59.201 263.881 59.174 263.882 59.147 C 263.886 59.074 263.891 59.001 263.898 58.929 C 263.902 58.891 263.908 58.852 263.912 58.814 C 263.92 58.758 263.927 58.702 263.937 58.648 C 263.949 58.579 263.962 58.511 263.98 58.446 C 263.99 58.409 264 58.373 264.012 58.338 C 264.043 58.244 264.08 58.156 264.124 58.077 Z M 293.293 60.768 C 293.794 60.705 293.937 60.623 294.366 60.878 C 295.09 62.636 294.698 67.715 294.578 69.831 C 292.089 69.649 288.824 69.005 286.298 68.58 C 285.251 68.405 284.203 68.247 283.154 68.103 L 283.129 62.561 C 286.126 61.782 290.223 61.213 293.293 60.768 Z M 238.002 60.664 C 240.784 60.746 246.722 61.898 249.451 62.549 C 249.491 63.855 249.701 66.481 249.251 67.669 C 249.221 67.748 249.185 67.812 249.145 67.867 C 249.141 67.872 249.137 67.877 249.133 67.883 C 249.109 67.913 249.083 67.94 249.056 67.965 C 249.05 67.97 249.045 67.976 249.038 67.981 C 249.014 68.002 248.987 68.018 248.96 68.035 C 248.937 68.049 248.913 68.061 248.888 68.073 C 248.87 68.082 248.852 68.092 248.832 68.099 C 248.815 68.106 248.797 68.112 248.78 68.118 C 248.752 68.127 248.725 68.138 248.697 68.146 C 248.668 68.155 248.639 68.163 248.609 68.171 C 248.495 68.201 248.371 68.23 248.239 68.271 L 247.577 68.359 C 247.539 68.365 247.5 68.371 247.461 68.377 C 247.075 68.434 246.693 68.497 246.316 68.564 C 245.371 68.732 244.448 68.921 243.525 69.093 C 243.331 69.13 243.138 69.166 242.945 69.2 C 242.851 69.217 242.757 69.234 242.662 69.25 C 242.58 69.264 242.498 69.277 242.415 69.291 C 242.281 69.313 242.146 69.334 242.011 69.354 C 241.941 69.365 241.871 69.375 241.801 69.385 C 241.678 69.403 241.555 69.419 241.432 69.435 C 241.34 69.447 241.247 69.459 241.155 69.47 C 241.018 69.487 240.882 69.502 240.744 69.515 C 240.687 69.521 240.629 69.528 240.572 69.533 C 240.432 69.546 240.292 69.556 240.151 69.566 C 240.065 69.572 239.979 69.58 239.893 69.585 C 239.783 69.591 239.673 69.595 239.563 69.599 C 239.462 69.604 239.361 69.609 239.259 69.611 C 239.147 69.614 239.034 69.613 238.92 69.614 C 238.815 69.615 238.708 69.616 238.602 69.615 C 238.387 69.612 238.17 69.606 237.951 69.594 C 237.915 66.619 237.933 63.641 238.002 60.664 Z M 260.138 44.313 C 260.154 45.693 260.122 53.737 260.246 54.638 L 260.025 55.421 L 259.943 55.482 C 259.883 55.522 259.813 55.561 259.734 55.598 C 259.68 55.624 259.621 55.647 259.56 55.671 C 259.503 55.693 259.442 55.714 259.379 55.735 C 259.341 55.748 259.303 55.761 259.263 55.773 C 259.206 55.79 259.146 55.806 259.085 55.822 C 259.031 55.836 258.975 55.851 258.918 55.864 C 258.865 55.876 258.811 55.887 258.756 55.898 C 258.691 55.912 258.625 55.926 258.557 55.938 C 258.487 55.951 258.416 55.961 258.344 55.971 C 258.292 55.979 258.24 55.989 258.187 55.996 C 258.097 56.007 258.005 56.015 257.913 56.024 C 257.868 56.028 257.823 56.034 257.778 56.038 C 257.507 56.059 257.233 56.068 256.965 56.061 C 256.94 56.061 256.915 56.057 256.89 56.056 C 256.781 56.052 256.674 56.047 256.569 56.038 C 256.464 56.028 256.361 56.016 256.261 56.001 C 256.24 55.997 256.219 55.994 256.198 55.991 C 256.17 55.986 256.143 55.981 256.116 55.976 C 256.086 55.971 256.055 55.964 256.025 55.958 C 255.991 55.951 255.958 55.944 255.926 55.936 C 255.901 55.93 255.877 55.924 255.853 55.918 C 255.825 55.91 255.798 55.903 255.772 55.895 C 255.741 55.886 255.71 55.876 255.68 55.866 C 255.658 55.859 255.635 55.851 255.614 55.843 C 255.586 55.833 255.558 55.823 255.532 55.812 C 255.508 55.803 255.485 55.793 255.462 55.783 C 255.436 55.771 255.411 55.759 255.386 55.747 C 255.366 55.737 255.346 55.727 255.326 55.717 C 255.304 55.704 255.283 55.69 255.261 55.677 C 255.239 55.664 255.218 55.652 255.198 55.638 C 255.176 55.624 255.157 55.609 255.137 55.593 C 255.12 55.581 255.104 55.569 255.088 55.555 C 255.072 55.542 255.057 55.527 255.041 55.512 C 254.959 55.434 254.89 55.348 254.842 55.251 L 254.716 53.846 C 254.7 53.495 254.688 53.14 254.678 52.784 C 254.674 52.635 254.671 52.486 254.667 52.337 C 254.663 52.158 254.659 51.978 254.656 51.799 C 254.652 51.617 254.65 51.436 254.648 51.254 C 254.644 50.934 254.641 50.614 254.64 50.294 C 254.639 49.801 254.642 49.306 254.646 48.812 C 254.651 48.105 254.659 47.398 254.669 46.696 L 254.707 44.338 Z M 273.225 44.396 C 275.084 44.357 276.916 44.303 278.776 44.369 C 278.755 46.336 278.598 53.121 278.921 54.686 L 278.893 54.862 C 278.867 54.973 278.826 55.074 278.775 55.167 C 278.768 55.18 278.759 55.191 278.751 55.204 C 278.731 55.238 278.71 55.271 278.687 55.302 C 278.677 55.315 278.666 55.327 278.656 55.34 C 278.632 55.368 278.608 55.397 278.582 55.424 C 278.573 55.434 278.562 55.443 278.552 55.453 C 278.524 55.48 278.495 55.507 278.464 55.532 C 278.451 55.543 278.437 55.553 278.423 55.563 C 278.393 55.586 278.361 55.609 278.328 55.631 C 278.307 55.644 278.285 55.658 278.263 55.671 C 278.238 55.685 278.213 55.699 278.188 55.713 C 278.159 55.728 278.13 55.742 278.1 55.757 C 278.075 55.768 278.051 55.78 278.026 55.791 C 277.996 55.804 277.966 55.815 277.935 55.827 C 277.912 55.836 277.888 55.846 277.865 55.854 C 277.835 55.865 277.805 55.873 277.775 55.883 C 277.736 55.895 277.697 55.907 277.657 55.918 C 277.643 55.921 277.629 55.925 277.615 55.928 C 277.57 55.94 277.525 55.951 277.479 55.961 C 277.454 55.966 277.428 55.97 277.403 55.975 C 277.357 55.984 277.31 55.992 277.263 56 C 277.25 56.002 277.238 56.004 277.225 56.006 C 277.177 56.013 277.13 56.019 277.081 56.024 C 277.047 56.028 277.013 56.032 276.978 56.035 C 276.941 56.038 276.904 56.041 276.866 56.044 C 276.844 56.045 276.822 56.047 276.8 56.049 C 276.747 56.052 276.694 56.054 276.64 56.055 C 276.625 56.056 276.61 56.056 276.595 56.056 C 276.51 56.058 276.425 56.057 276.34 56.055 C 276.267 56.054 276.194 56.053 276.121 56.05 C 276.045 56.046 275.97 56.039 275.894 56.033 C 275.828 56.028 275.763 56.023 275.698 56.016 C 275.609 56.007 275.522 55.995 275.436 55.982 C 275.382 55.974 275.329 55.968 275.277 55.959 C 275.181 55.943 275.088 55.924 274.996 55.905 C 274.957 55.897 274.918 55.89 274.88 55.882 C 274.788 55.861 274.699 55.836 274.612 55.812 C 274.573 55.802 274.534 55.793 274.496 55.782 C 274.428 55.762 274.364 55.738 274.3 55.717 C 274.25 55.7 274.201 55.685 274.155 55.668 C 274.145 55.664 274.135 55.66 274.125 55.656 C 274.033 55.62 273.947 55.583 273.868 55.544 C 273.782 55.501 273.704 55.457 273.638 55.411 L 273.442 54.317 C 273.417 54.229 273.396 54.134 273.374 54.035 C 273.368 54.004 273.361 53.973 273.355 53.941 C 273.344 53.888 273.335 53.834 273.325 53.779 C 273.306 53.667 273.287 53.549 273.27 53.427 C 273.264 53.382 273.257 53.337 273.251 53.291 C 273.186 52.771 273.143 52.175 273.118 51.538 C 273.116 51.472 273.114 51.405 273.112 51.339 C 273.105 51.134 273.1 50.926 273.096 50.715 C 273.087 50.171 273.088 49.611 273.094 49.054 C 273.098 48.739 273.102 48.425 273.109 48.115 C 273.112 47.97 273.116 47.825 273.119 47.682 C 273.129 47.298 273.141 46.924 273.153 46.568 C 273.181 45.705 273.212 44.946 273.225 44.396 Z M 269.488 44.413 L 269.502 46.347 C 269.521 49.041 269.536 53.401 269.386 53.958 L 269.326 54.745 C 268.694 55.962 265.13 55.801 264.08 55.274 L 263.914 54.344 L 263.882 44.415 Z M 289.407 44.065 C 290.861 43.832 292.84 43.303 294.182 43.534 C 294.973 44.441 294.981 54.201 294.227 55.225 C 294.166 55.23 294.098 55.234 294.023 55.235 C 293.831 55.239 293.594 55.228 293.32 55.212 C 293.235 55.207 293.147 55.202 293.056 55.195 C 292.903 55.184 292.74 55.169 292.57 55.153 C 292.503 55.147 292.435 55.141 292.366 55.134 C 292.166 55.113 291.955 55.089 291.736 55.063 C 291.668 55.055 291.599 55.048 291.53 55.04 C 291.318 55.014 291.099 54.984 290.874 54.954 C 290.781 54.941 290.686 54.929 290.59 54.916 C 290.382 54.887 290.17 54.855 289.954 54.823 C 289.844 54.807 289.733 54.791 289.621 54.774 C 289.453 54.748 289.283 54.721 289.112 54.693 C 288.667 54.622 288.215 54.546 287.764 54.466 C 287.02 54.333 286.277 54.191 285.571 54.044 C 285.41 54.01 285.252 53.975 285.096 53.941 C 284.959 53.911 284.823 53.882 284.69 53.852 C 284.505 53.811 284.325 53.767 284.149 53.725 C 284.033 53.698 283.918 53.672 283.807 53.644 C 283.666 53.609 283.529 53.573 283.396 53.538 C 283.253 53.5 283.115 53.464 282.982 53.427 C 282.792 53.373 282.612 53.321 282.446 53.269 C 282.411 53.259 282.378 53.248 282.345 53.237 C 282.279 53.216 282.215 53.196 282.154 53.175 C 282.092 53.153 282.032 53.132 281.975 53.111 C 281.947 53.101 281.919 53.091 281.892 53.081 C 281.716 53.015 281.565 52.951 281.443 52.888 L 281.279 52.795 C 281.243 52.589 281.213 52.365 281.187 52.128 C 281.165 51.926 281.146 51.715 281.131 51.497 C 281.13 51.482 281.129 51.466 281.128 51.451 C 281.119 51.311 281.113 51.169 281.106 51.024 C 281.098 50.873 281.091 50.72 281.086 50.564 C 281.082 50.442 281.079 50.318 281.076 50.194 C 281.073 50.041 281.072 49.887 281.071 49.733 C 281.07 49.601 281.069 49.468 281.07 49.336 C 281.07 49.18 281.07 49.025 281.073 48.871 C 281.074 48.744 281.077 48.617 281.079 48.492 C 281.083 48.301 281.089 48.113 281.095 47.928 C 281.098 47.846 281.1 47.764 281.103 47.682 C 281.113 47.426 281.124 47.178 281.136 46.943 L 281.18 46.22 C 281.731 45.412 281.875 45.703 282.906 45.213 C 284.41 45.084 287.815 44.357 289.407 44.065 Z M 238.217 43.359 C 241.712 43.413 247.202 44.871 250.642 45.656 C 251.846 45.933 251.678 51.506 251.275 52.528 C 250.996 53.239 250.469 53.24 249.846 53.427 C 249.343 53.525 248.439 53.718 247.345 53.941 C 246.865 54.039 246.348 54.141 245.813 54.246 C 245.081 54.389 244.315 54.534 243.561 54.666 C 243.443 54.686 243.326 54.705 243.209 54.725 C 242.884 54.781 242.561 54.834 242.246 54.883 C 242.158 54.896 242.071 54.91 241.984 54.924 C 241.892 54.937 241.802 54.951 241.712 54.964 C 241.524 54.991 241.34 55.016 241.16 55.04 C 241.081 55.05 241.003 55.06 240.925 55.07 C 240.685 55.1 240.454 55.126 240.235 55.147 C 240.075 55.163 239.922 55.176 239.775 55.186 C 239.758 55.187 239.741 55.188 239.725 55.189 C 239.588 55.198 239.457 55.205 239.332 55.21 C 239.311 55.21 239.29 55.212 239.269 55.213 C 239.133 55.216 239.006 55.217 238.888 55.214 C 238.82 55.212 238.755 55.209 238.694 55.205 C 238.66 55.203 238.628 55.199 238.597 55.196 C 238.558 55.192 238.52 55.188 238.485 55.183 C 238.465 55.181 238.446 55.179 238.428 55.176 C 238.369 55.166 238.315 55.156 238.267 55.142 C 238.213 55.127 238.167 55.109 238.127 55.09 C 237.816 53.809 237.832 44.679 238.217 43.359 Z M 263.947 28.099 L 269.442 28.127 L 269.543 38.295 C 269.54 38.507 269.545 38.782 269.521 39.052 C 269.517 39.09 269.513 39.129 269.508 39.168 C 269.504 39.201 269.499 39.234 269.493 39.267 C 269.485 39.321 269.474 39.373 269.461 39.424 C 269.445 39.488 269.427 39.55 269.405 39.608 C 269.399 39.623 269.392 39.637 269.386 39.651 C 269.366 39.696 269.345 39.74 269.32 39.78 C 269.303 39.805 269.285 39.829 269.266 39.851 C 269.259 39.859 269.252 39.867 269.245 39.875 C 269.229 39.892 269.212 39.909 269.195 39.925 C 269.189 39.93 269.183 39.935 269.177 39.94 C 269.153 39.96 269.128 39.978 269.101 39.994 C 269.005 40.048 268.909 40.099 268.812 40.145 C 268.72 40.189 268.627 40.228 268.533 40.265 C 268.49 40.283 268.445 40.297 268.401 40.313 C 268.346 40.333 268.292 40.353 268.238 40.371 C 268.201 40.382 268.164 40.392 268.127 40.403 C 268.07 40.42 268.013 40.436 267.955 40.451 C 267.91 40.462 267.865 40.471 267.82 40.481 C 267.76 40.494 267.7 40.508 267.64 40.519 C 267.609 40.525 267.577 40.53 267.546 40.535 C 267.482 40.546 267.419 40.556 267.355 40.564 C 267.308 40.57 267.26 40.575 267.213 40.58 C 267.164 40.585 267.114 40.59 267.065 40.594 C 267.011 40.599 266.958 40.602 266.905 40.605 C 266.854 40.608 266.803 40.611 266.752 40.613 C 266.712 40.614 266.672 40.615 266.632 40.616 C 266.567 40.617 266.503 40.617 266.438 40.617 C 266.398 40.617 266.358 40.617 266.319 40.616 C 266.258 40.615 266.197 40.613 266.136 40.61 C 266.1 40.609 266.064 40.607 266.028 40.605 C 265.983 40.603 265.939 40.599 265.895 40.596 C 265.727 40.585 265.559 40.571 265.392 40.552 C 265.295 40.542 265.199 40.53 265.103 40.517 C 264.999 40.504 264.896 40.492 264.793 40.477 C 264.6 40.45 264.409 40.421 264.219 40.39 C 263.799 39.784 263.921 39.187 263.877 38.309 C 263.658 35.664 263.937 30.959 263.947 28.099 Z M 254.621 27.414 C 256.538 27.491 258.189 27.52 260.106 27.479 C 260.191 30.924 260.304 34.612 260.077 38.039 C 260.057 39.13 260.23 39.199 259.686 39.957 C 259.412 40.061 259.162 40.144 258.93 40.213 C 258.901 40.221 258.873 40.228 258.845 40.236 C 258.738 40.266 258.636 40.293 258.535 40.316 C 258.514 40.321 258.493 40.326 258.472 40.331 C 258.354 40.357 258.239 40.379 258.127 40.395 C 258.107 40.398 258.087 40.4 258.067 40.403 C 257.979 40.415 257.893 40.424 257.808 40.43 C 257.774 40.433 257.74 40.435 257.706 40.437 C 257.617 40.442 257.528 40.446 257.44 40.446 C 257.426 40.446 257.412 40.446 257.399 40.446 C 257.289 40.445 257.179 40.441 257.068 40.433 C 257.051 40.432 257.035 40.431 257.019 40.429 C 256.95 40.424 256.881 40.417 256.811 40.41 C 256.651 40.393 256.486 40.372 256.313 40.345 C 255.928 40.286 255.501 40.206 254.991 40.118 C 254.959 40.071 254.932 40.023 254.907 39.974 C 254.9 39.961 254.893 39.948 254.887 39.935 C 254.84 39.839 254.804 39.738 254.776 39.635 C 254.738 39.494 254.714 39.347 254.699 39.194 C 254.697 39.165 254.694 39.136 254.692 39.107 C 254.687 39.053 254.685 38.998 254.682 38.942 C 254.668 38.657 254.668 38.355 254.647 38.039 C 254.651 34.541 254.697 30.9 254.621 27.414 Z M 278.735 27.522 C 278.742 30.893 278.836 34.718 278.728 38.052 C 278.723 39.129 278.898 39.201 278.367 39.949 C 278.092 40.059 277.84 40.147 277.605 40.217 C 277.588 40.221 277.571 40.225 277.555 40.23 C 277.448 40.261 277.344 40.289 277.243 40.312 C 277.208 40.321 277.172 40.329 277.137 40.337 C 277.119 40.341 277.1 40.344 277.082 40.347 C 277.007 40.362 276.933 40.375 276.861 40.386 C 276.85 40.388 276.84 40.39 276.83 40.391 C 276.807 40.395 276.784 40.396 276.761 40.399 C 276.666 40.411 276.573 40.421 276.481 40.427 C 276.458 40.428 276.434 40.429 276.411 40.43 C 276.319 40.435 276.228 40.437 276.136 40.435 C 276.117 40.435 276.098 40.436 276.078 40.435 C 275.979 40.433 275.879 40.427 275.779 40.419 C 275.734 40.415 275.689 40.41 275.644 40.405 C 275.582 40.399 275.52 40.391 275.457 40.383 C 275.408 40.376 275.358 40.37 275.307 40.362 C 274.842 40.292 274.328 40.181 273.689 40.055 C 273.287 39.442 273.377 38.902 273.306 38.061 C 273.031 35.129 273.158 30.482 273.184 27.459 Z M 237.949 29.116 C 240.464 28.997 246.794 30.278 249.431 30.821 C 249.461 32.249 249.766 34.547 249.325 35.886 C 249.152 36.419 248.769 36.431 248.241 36.637 C 246.039 36.959 239.785 38.536 238.519 37.754 C 238.504 37.732 238.49 37.708 238.476 37.684 C 238.463 37.663 238.449 37.642 238.436 37.619 C 238.425 37.599 238.414 37.579 238.404 37.558 C 238.387 37.526 238.37 37.493 238.355 37.459 C 238.345 37.437 238.337 37.415 238.327 37.393 C 238.314 37.361 238.299 37.328 238.286 37.294 C 238.276 37.265 238.266 37.236 238.255 37.206 C 238.242 37.169 238.23 37.131 238.218 37.093 C 238.21 37.067 238.202 37.041 238.195 37.014 C 238.184 36.979 238.174 36.943 238.164 36.907 C 238.154 36.868 238.144 36.828 238.134 36.788 C 238.13 36.773 238.128 36.757 238.124 36.742 C 238.07 36.509 238.027 36.253 237.991 35.98 C 237.978 35.883 237.965 35.783 237.954 35.681 C 237.945 35.598 237.937 35.513 237.929 35.427 C 237.921 35.335 237.914 35.241 237.908 35.146 C 237.868 34.593 237.85 34.002 237.848 33.406 C 237.848 33.303 237.848 33.199 237.848 33.095 C 237.849 32.809 237.853 32.522 237.859 32.24 C 237.863 32.046 237.868 31.855 237.873 31.667 C 237.902 30.658 237.943 29.743 237.949 29.116 Z M 292.619 29.162 C 293.118 29.097 294.144 28.887 294.37 29.519 C 295.18 31.793 294.878 35.594 294.301 37.85 C 292.764 38.313 288.043 37.253 286.218 36.927 C 286.03 36.899 285.847 36.867 285.667 36.834 C 285.629 36.827 285.591 36.82 285.553 36.812 C 285.209 36.745 284.877 36.669 284.546 36.585 C 284.416 36.552 284.286 36.517 284.156 36.482 C 283.823 36.393 283.485 36.301 283.131 36.204 C 282.889 28.257 285.858 30.338 292.619 29.162 Z M 238.574 17.029 L 239.088 17.057 C 241.814 17.253 246.821 18.276 249.382 18.727 C 249.486 20.453 249.426 22.546 249.419 24.301 L 247.497 24.728 C 246.167 24.961 244.897 25.18 243.635 25.384 C 243.476 25.409 243.317 25.434 243.158 25.459 C 242.125 25.622 241.092 25.774 240.033 25.914 C 239.859 25.937 239.686 25.959 239.511 25.981 C 239.395 25.996 239.28 26.011 239.163 26.025 C 238.798 26.07 238.429 26.114 238.055 26.156 C 237.937 24.377 237.772 18.905 238.078 17.324 Z M 293.173 17.034 C 293.724 16.868 293.992 17.039 294.394 17.363 C 295.019 19.164 294.717 23.936 294.653 26.119 C 292.066 25.952 288.534 25.277 285.902 24.852 C 285.431 24.829 283.837 24.415 283.283 24.283 C 283.263 24.073 283.246 23.864 283.231 23.657 C 283.226 23.587 283.221 23.516 283.216 23.446 C 283.206 23.293 283.198 23.14 283.191 22.988 C 283.188 22.943 283.186 22.897 283.184 22.852 C 283.174 22.641 283.167 22.43 283.161 22.219 C 283.154 21.921 283.151 21.624 283.149 21.326 C 283.146 20.947 283.146 20.568 283.149 20.185 L 283.161 18.8 C 285.925 18.086 290.271 17.483 293.173 17.034 Z M 263.947 11.785 L 265.326 11.805 C 266.719 11.816 268.143 11.802 269.513 11.807 L 269.449 22.008 L 268.861 22.049 C 268.667 22.059 268.461 22.066 268.247 22.072 C 268.112 22.076 267.973 22.078 267.831 22.081 C 267.756 22.082 267.68 22.085 267.604 22.086 C 267.203 22.091 266.786 22.092 266.372 22.092 C 265.46 22.09 264.564 22.081 263.887 22.083 Z M 273.304 10.883 L 278.753 10.921 L 278.735 21.403 C 277.369 21.362 275.073 21.199 273.821 21.52 L 273.587 21.51 C 272.872 19.442 273.216 13.286 273.304 10.883 Z M 254.744 10.882 L 260.128 10.911 C 260.209 14.385 260.235 17.861 260.207 21.337 L 254.684 21.333 C 254.654 17.849 254.675 14.365 254.744 10.882 Z M 293.716 4.866 L 294.378 5.199 C 295.022 6.589 294.69 12.328 294.614 14.188 L 293.705 14.083 C 293.686 14.08 293.666 14.076 293.647 14.074 C 293.517 14.057 293.387 14.039 293.255 14.021 C 293.03 13.991 292.802 13.96 292.573 13.927 C 292.455 13.909 292.338 13.891 292.22 13.874 C 292.008 13.842 291.794 13.81 291.579 13.776 C 291.418 13.751 291.256 13.725 291.093 13.699 C 290.893 13.667 290.692 13.634 290.491 13.6 C 290.055 13.528 289.618 13.454 289.183 13.381 C 288.439 13.255 287.7 13.131 286.984 13.014 C 286.594 12.951 286.211 12.89 285.837 12.834 L 283.265 12.307 C 283.101 10.525 283.148 8.54 283.148 6.734 Z M 237.963 5.071 C 240.289 4.996 246.992 6.184 249.355 6.774 C 249.426 8.049 249.721 10.903 249.235 12.026 C 249.055 12.443 248.674 12.449 248.241 12.581 C 246.991 12.795 245.556 13.059 244.091 13.306 C 243.839 13.349 243.586 13.391 243.332 13.432 C 243.227 13.449 243.123 13.466 243.018 13.483 C 242.203 13.614 241.391 13.733 240.608 13.832 C 240.057 13.901 239.521 13.96 239.009 14.005 C 238.95 14.01 238.892 14.015 238.834 14.019 C 238.563 14.041 238.299 14.06 238.043 14.073 C 237.882 11.2 237.954 7.976 237.963 5.071 Z M 254.735 -5.626 L 260.186 -5.614 C 260.188 -4.192 260.396 3.896 260.082 4.787 C 260.096 5.711 260.128 5.938 259.925 6.819 L 259.72 6.879 C 259.647 6.896 259.568 6.911 259.483 6.925 C 259.468 6.927 259.454 6.929 259.439 6.931 C 259.37 6.942 259.297 6.952 259.222 6.961 C 259.196 6.964 259.17 6.967 259.144 6.969 C 259.073 6.977 259 6.983 258.924 6.989 C 258.899 6.991 258.874 6.993 258.849 6.995 C 258.803 6.998 258.757 7 258.71 7.003 C 258.578 7.01 258.441 7.017 258.3 7.021 C 258.268 7.022 258.236 7.024 258.203 7.025 C 258.158 7.026 258.112 7.025 258.066 7.026 C 257.889 7.029 257.709 7.03 257.528 7.029 C 257.436 7.028 257.343 7.027 257.251 7.025 C 257.095 7.022 256.939 7.019 256.785 7.014 C 256.73 7.013 256.675 7.011 256.62 7.009 C 256.432 7.002 256.249 6.993 256.074 6.984 C 256.031 6.982 255.99 6.981 255.949 6.978 C 255.741 6.967 255.548 6.954 255.374 6.941 L 254.896 6.9 C 254.589 6.306 254.725 5.515 254.762 4.808 C 254.644 1.332 254.635 -2.149 254.735 -5.626 Z M 273.241 -5.657 C 275.032 -5.652 276.871 -5.626 278.658 -5.647 C 278.765 -2.173 278.782 1.303 278.713 4.778 C 278.745 5.611 278.741 5.855 278.616 6.677 C 278.568 6.717 278.504 6.753 278.428 6.785 C 278.418 6.789 278.409 6.793 278.399 6.797 C 278.363 6.811 278.326 6.824 278.285 6.837 C 278.274 6.84 278.262 6.844 278.249 6.847 C 278.244 6.849 278.239 6.85 278.234 6.851 C 278.166 6.87 278.092 6.888 278.014 6.903 C 277.992 6.907 277.969 6.912 277.947 6.916 C 277.867 6.93 277.783 6.943 277.695 6.954 C 277.686 6.955 277.678 6.956 277.669 6.957 C 277.572 6.969 277.471 6.979 277.366 6.987 C 277.221 6.999 277.071 7.007 276.915 7.012 C 276.877 7.014 276.839 7.015 276.8 7.016 C 276.658 7.021 276.513 7.024 276.366 7.024 C 276.337 7.024 276.307 7.024 276.277 7.024 C 276.205 7.024 276.133 7.023 276.061 7.022 C 275.87 7.02 275.678 7.016 275.491 7.01 C 275.435 7.009 275.381 7.008 275.326 7.006 C 275.1 6.997 274.881 6.988 274.676 6.976 C 274.208 6.951 273.816 6.921 273.585 6.904 C 273.288 6.311 273.408 5.523 273.438 4.823 C 272.9 3.706 273.195 -3.793 273.241 -5.657 Z M 263.877 -4.358 C 265.736 -4.409 267.607 -4.361 269.469 -4.333 L 269.513 5.852 C 267.598 5.903 265.658 5.823 263.741 5.77 C 264.014 2.625 263.903 -1.151 263.877 -4.358 Z M 292.772 -7.018 C 293.713 -7.061 293.531 -7.196 294.246 -6.787 C 295.178 -5.151 294.712 0.012 294.641 2.06 C 291.81 1.829 288.792 1.242 285.985 0.73 C 285.08 0.622 284.141 0.421 283.241 0.25 C 283.234 0.129 283.23 0.011 283.224 -0.105 C 283.218 -0.223 283.211 -0.339 283.206 -0.453 C 283.193 -0.808 283.192 -1.141 283.197 -1.453 C 283.198 -1.55 283.198 -1.645 283.2 -1.738 C 283.203 -1.804 283.207 -1.869 283.21 -1.934 C 283.216 -2.051 283.22 -2.166 283.228 -2.277 C 283.235 -2.379 283.246 -2.478 283.256 -2.575 C 283.263 -2.641 283.268 -2.706 283.276 -2.77 C 283.287 -2.863 283.302 -2.953 283.316 -3.041 C 283.327 -3.113 283.336 -3.183 283.349 -3.251 C 283.371 -3.369 283.395 -3.482 283.421 -3.591 C 283.428 -3.618 283.433 -3.644 283.44 -3.67 C 283.448 -3.701 283.456 -3.73 283.464 -3.76 C 283.492 -3.862 283.522 -3.96 283.554 -4.054 C 283.564 -4.083 283.575 -4.112 283.585 -4.141 C 283.596 -4.17 283.607 -4.199 283.618 -4.227 C 283.628 -4.251 283.638 -4.275 283.648 -4.299 C 283.659 -4.327 283.671 -4.354 283.683 -4.381 C 283.697 -4.413 283.711 -4.445 283.726 -4.476 C 283.738 -4.501 283.751 -4.525 283.763 -4.549 C 283.775 -4.574 283.788 -4.598 283.801 -4.621 C 283.817 -4.65 283.832 -4.679 283.848 -4.706 C 283.858 -4.723 283.867 -4.74 283.877 -4.756 C 283.899 -4.792 283.922 -4.826 283.945 -4.861 C 283.955 -4.876 283.965 -4.892 283.976 -4.907 C 283.998 -4.94 284.022 -4.972 284.045 -5.003 C 284.05 -5.009 284.053 -5.016 284.058 -5.022 C 284.078 -5.047 284.098 -5.072 284.118 -5.097 C 284.133 -5.114 284.147 -5.131 284.161 -5.148 C 284.183 -5.173 284.206 -5.196 284.228 -5.22 C 284.276 -5.271 284.324 -5.321 284.375 -5.367 C 284.429 -5.416 284.484 -5.463 284.541 -5.507 C 284.641 -5.584 284.745 -5.655 284.855 -5.72 C 284.863 -5.725 284.871 -5.729 284.879 -5.734 C 284.938 -5.768 285 -5.798 285.062 -5.828 C 285.109 -5.852 285.158 -5.875 285.207 -5.897 C 285.26 -5.92 285.314 -5.942 285.368 -5.963 C 285.408 -5.978 285.447 -5.993 285.488 -6.007 C 285.551 -6.03 285.616 -6.052 285.683 -6.073 C 285.729 -6.087 285.776 -6.1 285.824 -6.114 C 285.879 -6.129 285.935 -6.144 285.992 -6.158 C 286.054 -6.174 286.116 -6.188 286.179 -6.202 C 286.238 -6.216 286.299 -6.228 286.36 -6.24 C 286.404 -6.249 286.448 -6.258 286.493 -6.266 C 286.579 -6.281 286.666 -6.296 286.754 -6.31 C 286.793 -6.316 286.832 -6.322 286.871 -6.327 C 286.956 -6.34 287.042 -6.352 287.129 -6.364 C 287.159 -6.367 287.188 -6.372 287.218 -6.375 C 287.411 -6.399 287.61 -6.42 287.817 -6.441 C 287.958 -6.455 288.102 -6.47 288.249 -6.484 C 289.156 -6.567 290.182 -6.645 291.327 -6.795 C 291.594 -6.83 291.868 -6.868 292.148 -6.912 C 292.352 -6.945 292.56 -6.98 292.772 -7.018 Z M 237.936 -6.848 C 240.234 -7.207 246.916 -5.782 249.412 -5.262 C 249.47 -3.84 249.655 -1.422 249.339 -0.06 C 249.254 0.313 248.988 0.316 248.564 0.51 C 245.025 0.919 241.719 1.742 238.019 2.028 L 237.983 1.255 C 237.98 1.186 237.978 1.116 237.976 1.047 C 237.972 0.931 237.969 0.815 237.966 0.698 C 237.962 0.552 237.959 0.405 237.955 0.257 C 237.934 -0.712 237.928 -1.731 237.929 -2.747 C 237.93 -3.398 237.931 -4.048 237.934 -4.682 C 237.937 -5.433 237.939 -6.163 237.936 -6.848 Z M 294.8 -19.157 C 294.874 -16.137 294.86 -13.113 294.758 -10.094 C 292.569 -10.215 288.91 -10.927 286.633 -11.301 L 283.448 -11.821 C 283.424 -12.077 283.404 -12.324 283.387 -12.563 C 283.385 -12.592 283.382 -12.621 283.38 -12.651 C 283.365 -12.858 283.353 -13.06 283.342 -13.258 C 283.34 -13.294 283.338 -13.33 283.336 -13.366 C 283.325 -13.584 283.317 -13.797 283.31 -14.008 C 283.3 -14.322 283.295 -14.63 283.292 -14.941 C 283.292 -15.005 283.292 -15.069 283.291 -15.133 C 283.29 -15.433 283.291 -15.736 283.294 -16.049 L 283.318 -17.548 C 286.425 -18.027 289.529 -18.53 292.629 -19.052 C 293.079 -19.135 294.286 -19.14 294.8 -19.157 Z M 238.145 -19.251 C 241.787 -19.011 245.979 -18.153 249.569 -17.405 C 249.58 -15.862 249.913 -13.742 249.396 -12.314 C 249.232 -11.857 248.837 -11.836 248.282 -11.593 C 246.948 -11.356 245.548 -11.105 244.135 -10.874 C 243.878 -10.832 243.621 -10.791 243.364 -10.751 C 243.294 -10.74 243.224 -10.729 243.154 -10.718 C 242.361 -10.596 241.569 -10.485 240.785 -10.39 C 240.248 -10.325 239.716 -10.267 239.191 -10.22 C 239.108 -10.213 239.026 -10.205 238.945 -10.198 C 238.675 -10.176 238.408 -10.155 238.143 -10.138 C 238.002 -12.968 238.085 -16.412 238.145 -19.251 Z M 255.075 -23.909 C 255.934 -23.992 259.382 -24.21 260.118 -23.892 C 260.255 -23.086 260.251 -22.882 260.209 -22.061 C 260.47 -19.382 260.331 -14.419 260.315 -11.607 L 254.847 -11.612 L 254.801 -22.059 C 254.808 -22.338 254.798 -22.661 254.816 -22.97 C 254.817 -22.985 254.818 -23.001 254.819 -23.016 C 254.822 -23.061 254.826 -23.106 254.83 -23.151 C 254.833 -23.18 254.836 -23.208 254.84 -23.237 C 254.847 -23.286 254.856 -23.334 254.866 -23.381 C 254.871 -23.412 254.877 -23.442 254.884 -23.472 C 254.897 -23.526 254.912 -23.579 254.93 -23.63 C 254.939 -23.655 254.948 -23.679 254.958 -23.702 C 254.967 -23.723 254.977 -23.742 254.987 -23.761 C 254.997 -23.782 255.006 -23.803 255.018 -23.823 Z M 273.584 -23.839 C 274.929 -24.041 277.391 -24.208 278.736 -24.019 C 279.017 -23.341 278.916 -22.811 278.879 -22.066 L 278.877 -11.61 L 273.345 -11.629 C 273.31 -13.558 273.345 -20.393 273.345 -22.066 C 273.326 -22.233 273.312 -22.399 273.306 -22.561 C 273.301 -22.685 273.303 -22.807 273.31 -22.925 C 273.312 -22.956 273.313 -22.986 273.316 -23.016 C 273.319 -23.056 273.325 -23.095 273.33 -23.134 C 273.335 -23.167 273.338 -23.199 273.344 -23.231 C 273.351 -23.27 273.36 -23.309 273.369 -23.347 C 273.376 -23.376 273.383 -23.405 273.391 -23.433 C 273.406 -23.484 273.422 -23.534 273.442 -23.582 C 273.445 -23.591 273.45 -23.598 273.453 -23.607 C 273.49 -23.69 273.532 -23.768 273.584 -23.839 Z M 263.958 -23.615 C 265.87 -23.655 267.896 -23.612 269.818 -23.607 L 269.852 -11.677 C 267.974 -11.592 265.759 -11.654 263.852 -11.657 C 263.947 -15.643 263.983 -19.629 263.958 -23.615 Z M 293.485 -31.181 C 293.997 -31.234 294.078 -31.303 294.514 -31.024 C 295.208 -29.372 294.835 -24.162 294.742 -22.095 C 292.223 -22.258 289.153 -22.887 286.668 -23.361 C 285.538 -23.54 284.407 -23.708 283.272 -23.861 L 283.279 -29.452 C 286.169 -30.069 290.608 -30.87 293.485 -31.181 Z M 238.272 -31.303 C 240.226 -31.058 248.143 -30.19 249.279 -29.204 C 249.68 -28.281 249.746 -25.272 249.472 -24.293 C 249.389 -24.209 249.315 -24.138 249.248 -24.077 C 249.185 -24.02 249.127 -23.973 249.073 -23.933 C 249.034 -23.904 248.997 -23.88 248.96 -23.859 C 248.947 -23.851 248.935 -23.844 248.922 -23.837 C 248.905 -23.828 248.887 -23.821 248.87 -23.813 C 248.835 -23.796 248.8 -23.782 248.764 -23.77 C 248.746 -23.764 248.729 -23.758 248.71 -23.753 C 248.679 -23.744 248.646 -23.737 248.612 -23.73 C 248.416 -23.689 248.167 -23.666 247.761 -23.584 C 246.432 -23.346 245.1 -23.099 243.774 -22.846 C 243.365 -22.769 242.917 -22.668 242.454 -22.573 C 242.248 -22.532 242.039 -22.492 241.829 -22.456 C 241.686 -22.432 241.542 -22.408 241.399 -22.388 C 241.301 -22.375 241.204 -22.364 241.107 -22.354 C 241.056 -22.348 241.004 -22.344 240.953 -22.339 C 240.895 -22.334 240.837 -22.33 240.78 -22.326 C 240.74 -22.324 240.701 -22.321 240.662 -22.32 C 240.459 -22.31 240.258 -22.311 240.063 -22.323 C 240.026 -22.326 239.99 -22.329 239.953 -22.332 C 239.888 -22.338 239.823 -22.346 239.758 -22.355 C 239.719 -22.36 239.68 -22.365 239.641 -22.371 C 239.622 -22.375 239.603 -22.378 239.584 -22.382 C 239.443 -22.409 239.306 -22.445 239.173 -22.49 C 239.162 -22.494 239.151 -22.498 239.14 -22.502 C 239.007 -22.55 238.879 -22.608 238.757 -22.678 C 238.743 -22.686 238.728 -22.695 238.714 -22.703 C 238.656 -22.739 238.598 -22.776 238.542 -22.817 C 237.493 -24.354 238.06 -29.321 238.272 -31.303 Z M 255.094 -40.772 C 256.028 -40.887 259.213 -41.149 260.062 -40.818 C 260.295 -39.956 260.212 -39.48 260.163 -38.591 C 260.429 -35.475 260.373 -31.305 260.403 -28.133 L 254.843 -28.157 C 254.781 -31.572 254.82 -35.147 254.813 -38.574 C 254.814 -38.827 254.803 -39.108 254.804 -39.389 L 254.804 -39.444 C 254.804 -39.484 254.807 -39.523 254.808 -39.562 C 254.809 -39.613 254.81 -39.664 254.813 -39.715 C 254.814 -39.746 254.817 -39.777 254.82 -39.808 C 254.824 -39.868 254.828 -39.929 254.835 -39.988 C 254.843 -40.05 254.851 -40.111 254.863 -40.171 L 254.869 -40.205 C 254.883 -40.274 254.9 -40.34 254.92 -40.404 C 254.936 -40.456 254.953 -40.506 254.973 -40.554 C 254.99 -40.593 255.008 -40.631 255.029 -40.668 Z M 273.403 -39.463 C 273.403 -39.496 273.405 -39.529 273.406 -39.562 C 273.407 -39.629 273.41 -39.696 273.413 -39.762 C 273.416 -39.801 273.42 -39.841 273.423 -39.88 C 273.428 -39.937 273.433 -39.993 273.44 -40.049 C 273.455 -40.172 273.475 -40.291 273.504 -40.404 C 273.539 -40.537 273.585 -40.662 273.646 -40.775 L 273.714 -40.889 C 275.306 -40.925 277.172 -41.025 278.737 -40.887 C 278.993 -40.075 278.9 -39.424 278.87 -38.564 C 278.886 -38.252 278.896 -37.919 278.906 -37.57 C 278.909 -37.456 278.912 -37.341 278.914 -37.224 C 278.92 -36.957 278.925 -36.682 278.928 -36.401 C 278.93 -36.254 278.931 -36.106 278.932 -35.956 C 278.934 -35.629 278.936 -35.296 278.936 -34.957 C 278.936 -34.258 278.93 -33.54 278.923 -32.825 C 278.916 -32.079 278.909 -31.336 278.901 -30.624 L 278.882 -28.14 L 273.324 -28.14 L 273.305 -30.748 C 273.303 -31.515 273.306 -32.282 273.311 -33.049 C 273.313 -33.325 273.315 -33.602 273.318 -33.878 C 273.323 -34.399 273.33 -34.921 273.338 -35.442 C 273.343 -35.73 273.347 -36.018 273.353 -36.307 C 273.367 -37.061 273.384 -37.815 273.405 -38.569 C 273.408 -38.848 273.398 -39.156 273.403 -39.463 Z M 264.316 -41.093 C 265.806 -41.979 267.58 -41.809 269.172 -41.401 C 269.663 -40.794 269.587 -40.197 269.624 -39.276 C 269.717 -36.09 269.631 -32.25 269.631 -29.02 C 267.846 -29.107 265.85 -29.061 264.048 -29.061 L 264.063 -31.303 C 264.072 -33.971 264.051 -36.638 263.997 -39.306 C 263.996 -39.472 263.992 -39.616 263.99 -39.744 C 263.987 -39.855 263.986 -39.955 263.989 -40.049 C 263.989 -40.067 263.991 -40.084 263.991 -40.101 C 263.993 -40.145 263.996 -40.186 264 -40.227 C 264.002 -40.249 264.004 -40.271 264.007 -40.292 C 264.012 -40.33 264.02 -40.367 264.028 -40.404 C 264.033 -40.428 264.037 -40.452 264.043 -40.475 C 264.054 -40.517 264.067 -40.558 264.081 -40.6 C 264.087 -40.617 264.091 -40.635 264.098 -40.652 C 264.122 -40.716 264.151 -40.783 264.186 -40.853 Z M 238.143 -43.274 C 239.843 -43.209 247.669 -42.162 249.099 -41.569 C 249.789 -40.607 249.586 -37.882 249.556 -36.6 L 249.334 -36.198 C 249.311 -36.159 249.288 -36.129 249.266 -36.103 C 249.237 -36.068 249.208 -36.043 249.171 -36.022 C 249.143 -36.005 249.111 -35.99 249.072 -35.977 C 248.943 -35.934 248.741 -35.895 248.367 -35.777 L 246.237 -35.283 C 245.837 -35.193 245.411 -35.1 244.974 -35.008 C 244.676 -34.945 244.373 -34.882 244.068 -34.823 C 243.844 -34.78 243.619 -34.739 243.395 -34.699 C 243.378 -34.696 243.361 -34.694 243.344 -34.691 C 243.152 -34.657 242.96 -34.625 242.771 -34.595 C 242.706 -34.585 242.641 -34.575 242.576 -34.565 C 242.14 -34.498 241.715 -34.443 241.314 -34.406 C 241.045 -34.38 240.787 -34.362 240.544 -34.354 C 240.491 -34.352 240.439 -34.35 240.387 -34.349 C 240.144 -34.344 239.917 -34.35 239.71 -34.367 C 239.66 -34.372 239.611 -34.376 239.564 -34.382 C 239.547 -34.384 239.53 -34.386 239.514 -34.388 C 239.377 -34.406 239.252 -34.43 239.139 -34.461 C 239.117 -34.467 239.095 -34.474 239.074 -34.481 C 239.038 -34.492 239.004 -34.503 238.972 -34.516 C 238.953 -34.523 238.934 -34.53 238.916 -34.538 C 238.87 -34.559 238.826 -34.58 238.786 -34.604 C 237.548 -36.142 238.081 -41.13 238.143 -43.274 Z M 294.763 -43.23 C 295.003 -33.622 296.648 -33.608 287.36 -35.242 C 287.066 -35.287 286.792 -35.332 286.536 -35.376 C 286.463 -35.389 286.39 -35.403 286.32 -35.415 C 286.159 -35.444 286.005 -35.473 285.86 -35.503 C 285.68 -35.54 285.511 -35.576 285.353 -35.615 C 285.338 -35.618 285.324 -35.622 285.31 -35.625 C 285.145 -35.666 284.991 -35.708 284.849 -35.753 C 284.681 -35.806 284.53 -35.862 284.392 -35.921 C 284.37 -35.931 284.349 -35.941 284.327 -35.95 C 284.286 -35.969 284.247 -35.988 284.208 -36.007 C 284.178 -36.022 284.15 -36.038 284.121 -36.054 C 284.093 -36.07 284.065 -36.086 284.037 -36.103 C 284.012 -36.118 283.988 -36.133 283.964 -36.149 C 283.927 -36.173 283.892 -36.198 283.859 -36.224 C 283.846 -36.233 283.834 -36.243 283.823 -36.252 C 283.789 -36.279 283.757 -36.306 283.727 -36.334 C 283.713 -36.347 283.699 -36.359 283.686 -36.372 C 283.605 -36.453 283.536 -36.539 283.476 -36.632 C 283.466 -36.647 283.458 -36.662 283.449 -36.678 C 283.431 -36.708 283.413 -36.739 283.397 -36.77 C 283.382 -36.801 283.368 -36.832 283.355 -36.863 C 283.347 -36.881 283.339 -36.899 283.331 -36.918 C 283.32 -36.946 283.31 -36.975 283.3 -37.005 C 283.289 -37.039 283.278 -37.073 283.269 -37.108 C 283.264 -37.127 283.259 -37.146 283.254 -37.165 C 283.243 -37.211 283.233 -37.258 283.224 -37.307 C 283.221 -37.321 283.218 -37.336 283.215 -37.351 C 283.207 -37.402 283.2 -37.454 283.194 -37.507 C 283.192 -37.522 283.189 -37.538 283.188 -37.554 C 283.18 -37.627 283.175 -37.703 283.171 -37.782 C 283.165 -37.898 283.163 -38.02 283.164 -38.148 C 283.165 -38.182 283.164 -38.216 283.164 -38.251 C 283.167 -38.37 283.173 -38.494 283.18 -38.625 C 283.187 -38.754 283.196 -38.888 283.206 -39.029 C 283.217 -39.167 283.229 -39.31 283.241 -39.459 C 283.253 -39.592 283.264 -39.729 283.277 -39.872 L 283.426 -41.561 C 283.784 -41.635 284.148 -41.706 284.515 -41.776 C 285.25 -41.916 286 -42.051 286.757 -42.181 C 288.649 -42.505 290.58 -42.802 292.396 -43.101 Z M 255.148 -57.742 C 256.214 -57.851 259.2 -58.087 260.105 -57.662 C 260.25 -56.693 260.222 -56.254 260.195 -55.297 C 260.388 -51.751 260.396 -48.197 260.216 -44.651 L 254.829 -44.671 C 254.811 -47.833 254.652 -52.307 254.901 -55.321 C 254.904 -55.682 254.878 -56.09 254.879 -56.479 C 254.879 -56.523 254.878 -56.567 254.879 -56.61 C 254.88 -56.649 254.882 -56.687 254.884 -56.725 C 254.887 -56.791 254.891 -56.857 254.897 -56.921 C 254.903 -56.992 254.91 -57.062 254.92 -57.129 C 254.95 -57.322 255.001 -57.496 255.08 -57.64 Z M 273.85 -57.629 C 275.193 -57.852 277.419 -58.049 278.732 -57.745 C 278.988 -56.956 278.884 -56.161 278.852 -55.313 C 279.032 -53.1 278.902 -47.134 278.905 -44.695 C 278.485 -44.69 278.065 -44.687 277.645 -44.685 C 277.51 -44.685 277.376 -44.685 277.241 -44.685 C 276.98 -44.686 276.719 -44.687 276.458 -44.688 C 276.29 -44.689 276.122 -44.691 275.954 -44.692 C 275.552 -44.697 275.15 -44.702 274.747 -44.71 C 274.286 -44.719 273.825 -44.731 273.364 -44.746 C 273.308 -47.707 273.148 -52.433 273.457 -55.304 C 273.477 -55.698 273.463 -56.083 273.476 -56.433 C 273.478 -56.491 273.48 -56.548 273.484 -56.603 C 273.486 -56.634 273.491 -56.664 273.493 -56.693 C 273.5 -56.765 273.506 -56.835 273.517 -56.902 C 273.52 -56.918 273.523 -56.934 273.526 -56.95 C 273.53 -56.973 273.535 -56.996 273.54 -57.018 C 273.545 -57.037 273.548 -57.056 273.553 -57.074 C 273.56 -57.1 273.569 -57.126 273.576 -57.151 C 273.581 -57.165 273.583 -57.18 273.588 -57.193 C 273.597 -57.218 273.607 -57.242 273.616 -57.266 C 273.623 -57.283 273.629 -57.3 273.637 -57.316 C 273.663 -57.374 273.695 -57.428 273.73 -57.479 C 273.765 -57.532 273.804 -57.583 273.85 -57.629 Z M 264.262 -57.923 C 265.143 -57.981 268.669 -58.136 269.403 -57.779 C 269.721 -56.963 269.647 -56.441 269.64 -55.557 C 269.619 -52.086 269.619 -48.615 269.642 -45.142 L 264.069 -45.19 C 263.993 -48.562 264.029 -52.176 264.015 -55.564 C 264.017 -55.901 264.001 -56.302 264.013 -56.693 C 264.014 -56.711 264.013 -56.728 264.014 -56.745 C 264.016 -56.804 264.021 -56.863 264.025 -56.921 C 264.028 -56.966 264.031 -57.011 264.035 -57.056 C 264.04 -57.107 264.047 -57.158 264.054 -57.209 C 264.06 -57.256 264.066 -57.303 264.074 -57.349 C 264.113 -57.563 264.17 -57.76 264.262 -57.923 Z M 293.431 -55.231 C 293.932 -55.294 294.075 -55.377 294.504 -55.122 C 295.229 -53.364 294.836 -48.284 294.716 -46.169 C 292.227 -46.351 288.963 -46.995 286.437 -47.42 C 285.913 -47.507 285.389 -47.591 284.866 -47.67 L 283.292 -47.896 L 283.267 -53.438 C 286.263 -54.218 290.36 -54.787 293.431 -55.231 Z M 238.14 -55.336 C 240.922 -55.253 246.861 -54.102 249.59 -53.451 C 249.629 -52.144 249.839 -49.519 249.389 -48.331 C 249.361 -48.256 249.326 -48.194 249.288 -48.142 C 249.282 -48.132 249.277 -48.123 249.27 -48.114 C 249.247 -48.086 249.223 -48.061 249.198 -48.038 C 249.19 -48.031 249.183 -48.025 249.176 -48.018 C 249.152 -47.998 249.126 -47.981 249.099 -47.965 C 249.076 -47.951 249.052 -47.939 249.027 -47.927 C 249.008 -47.918 248.99 -47.909 248.971 -47.901 C 248.951 -47.893 248.93 -47.886 248.909 -47.879 C 248.886 -47.871 248.863 -47.862 248.839 -47.854 C 248.813 -47.847 248.786 -47.84 248.759 -47.833 C 248.642 -47.801 248.514 -47.771 248.376 -47.728 C 247.717 -47.649 247.075 -47.546 246.444 -47.433 C 245.469 -47.26 244.518 -47.065 243.566 -46.888 C 243.432 -46.863 243.298 -46.837 243.163 -46.813 C 243.018 -46.788 242.873 -46.762 242.728 -46.737 C 242.678 -46.729 242.629 -46.721 242.579 -46.713 C 242.436 -46.689 242.293 -46.667 242.15 -46.645 C 242.08 -46.635 242.011 -46.624 241.942 -46.614 C 241.817 -46.596 241.691 -46.58 241.566 -46.563 C 241.475 -46.552 241.384 -46.54 241.293 -46.529 C 241.158 -46.513 241.023 -46.499 240.887 -46.485 C 240.828 -46.479 240.769 -46.472 240.71 -46.467 C 240.572 -46.454 240.433 -46.444 240.293 -46.433 C 240.205 -46.427 240.117 -46.42 240.029 -46.415 C 239.921 -46.409 239.813 -46.406 239.705 -46.401 C 239.603 -46.397 239.501 -46.391 239.398 -46.389 C 239.285 -46.386 239.172 -46.386 239.058 -46.386 C 238.953 -46.385 238.847 -46.383 238.741 -46.385 C 238.526 -46.388 238.308 -46.394 238.089 -46.405 C 238.052 -49.38 238.071 -52.358 238.14 -55.336 Z M 260.276 -71.686 C 260.292 -70.307 260.259 -62.262 260.384 -61.361 L 260.162 -60.579 L 260.081 -60.517 C 260.023 -60.478 259.954 -60.44 259.876 -60.403 C 259.821 -60.377 259.76 -60.353 259.697 -60.328 C 259.642 -60.307 259.585 -60.286 259.525 -60.267 C 259.484 -60.253 259.442 -60.238 259.399 -60.225 C 259.345 -60.209 259.289 -60.196 259.232 -60.181 C 259.175 -60.166 259.117 -60.15 259.057 -60.136 C 259.001 -60.123 258.943 -60.112 258.884 -60.1 C 258.823 -60.087 258.762 -60.074 258.699 -60.062 C 258.628 -60.05 258.557 -60.039 258.485 -60.028 C 258.431 -60.02 258.377 -60.011 258.323 -60.004 C 258.236 -59.993 258.148 -59.984 258.059 -59.975 C 258.011 -59.971 257.964 -59.966 257.916 -59.962 C 257.646 -59.94 257.371 -59.931 257.103 -59.938 C 257.08 -59.939 257.058 -59.941 257.035 -59.942 C 256.924 -59.946 256.814 -59.952 256.706 -59.962 C 256.602 -59.971 256.499 -59.984 256.399 -59.999 C 256.377 -60.002 256.356 -60.005 256.335 -60.009 C 256.309 -60.013 256.283 -60.019 256.257 -60.023 C 256.224 -60.029 256.192 -60.035 256.159 -60.042 C 256.128 -60.049 256.097 -60.056 256.067 -60.063 C 256.042 -60.069 256.017 -60.075 255.992 -60.082 C 255.966 -60.089 255.94 -60.096 255.914 -60.103 C 255.88 -60.113 255.847 -60.124 255.815 -60.135 C 255.794 -60.142 255.773 -60.148 255.753 -60.155 C 255.723 -60.166 255.693 -60.179 255.664 -60.19 C 255.645 -60.198 255.625 -60.205 255.606 -60.214 C 255.576 -60.227 255.547 -60.242 255.519 -60.256 C 255.5 -60.265 255.481 -60.274 255.462 -60.284 C 255.436 -60.298 255.411 -60.315 255.386 -60.33 C 255.371 -60.339 255.356 -60.348 255.341 -60.357 C 255.314 -60.375 255.289 -60.395 255.264 -60.415 C 255.252 -60.425 255.239 -60.433 255.227 -60.443 C 255.21 -60.457 255.195 -60.473 255.18 -60.487 C 255.097 -60.565 255.028 -60.651 254.98 -60.749 L 254.855 -62.153 C 254.839 -62.512 254.826 -62.874 254.816 -63.237 C 254.813 -63.34 254.81 -63.443 254.808 -63.547 C 254.8 -63.851 254.794 -64.156 254.789 -64.462 C 254.788 -64.524 254.788 -64.586 254.787 -64.648 C 254.783 -65 254.78 -65.353 254.779 -65.706 C 254.777 -66.22 254.78 -66.735 254.783 -67.25 C 254.789 -67.936 254.798 -68.622 254.808 -69.304 L 254.845 -71.662 Z M 273.364 -71.603 C 275.223 -71.642 277.055 -71.696 278.914 -71.631 C 278.894 -69.664 278.736 -62.879 279.059 -61.313 L 279.031 -61.138 C 278.992 -60.973 278.922 -60.829 278.828 -60.702 C 278.813 -60.682 278.796 -60.663 278.78 -60.643 C 278.76 -60.621 278.741 -60.598 278.72 -60.576 C 278.71 -60.566 278.7 -60.557 278.69 -60.547 C 278.661 -60.519 278.632 -60.493 278.601 -60.468 C 278.586 -60.456 278.57 -60.444 278.555 -60.433 C 278.526 -60.411 278.498 -60.389 278.467 -60.369 C 278.452 -60.359 278.437 -60.35 278.421 -60.341 C 278.389 -60.321 278.356 -60.302 278.322 -60.284 C 278.294 -60.269 278.265 -60.256 278.237 -60.242 C 278.214 -60.231 278.191 -60.221 278.168 -60.211 C 278.137 -60.197 278.106 -60.185 278.074 -60.173 C 278.046 -60.162 278.019 -60.151 277.991 -60.142 C 277.968 -60.134 277.944 -60.126 277.921 -60.119 C 277.88 -60.106 277.839 -60.093 277.796 -60.082 C 277.779 -60.077 277.762 -60.074 277.745 -60.069 C 277.705 -60.059 277.665 -60.05 277.623 -60.041 C 277.594 -60.035 277.564 -60.028 277.533 -60.022 C 277.491 -60.014 277.449 -60.008 277.406 -60.001 C 277.391 -59.999 277.376 -59.996 277.361 -59.994 C 277.313 -59.987 277.265 -59.98 277.217 -59.975 C 277.183 -59.971 277.15 -59.968 277.116 -59.965 C 277.08 -59.961 277.044 -59.959 277.008 -59.956 C 276.984 -59.954 276.96 -59.952 276.936 -59.951 C 276.883 -59.948 276.831 -59.946 276.778 -59.944 C 276.763 -59.944 276.748 -59.944 276.733 -59.943 C 276.648 -59.941 276.563 -59.943 276.478 -59.944 C 276.405 -59.945 276.333 -59.946 276.26 -59.949 C 276.184 -59.953 276.108 -59.961 276.032 -59.967 C 275.966 -59.972 275.9 -59.976 275.834 -59.983 C 275.749 -59.993 275.665 -60.005 275.581 -60.017 C 275.525 -60.026 275.469 -60.032 275.414 -60.041 C 275.319 -60.057 275.226 -60.076 275.134 -60.095 C 275.095 -60.103 275.056 -60.109 275.018 -60.118 C 274.918 -60.141 274.821 -60.167 274.727 -60.193 C 274.697 -60.201 274.668 -60.208 274.639 -60.217 C 274.571 -60.237 274.507 -60.26 274.444 -60.281 C 274.283 -60.336 274.137 -60.392 274.011 -60.454 C 273.923 -60.498 273.844 -60.542 273.777 -60.589 L 273.58 -61.683 C 273.555 -61.775 273.531 -61.874 273.509 -61.978 C 273.504 -62.001 273.5 -62.024 273.495 -62.047 C 273.484 -62.106 273.473 -62.166 273.462 -62.228 C 273.445 -62.329 273.428 -62.433 273.412 -62.542 C 273.405 -62.597 273.396 -62.652 273.389 -62.709 C 273.348 -63.032 273.316 -63.384 273.292 -63.758 C 273.287 -63.838 273.283 -63.92 273.279 -64.003 C 273.272 -64.125 273.265 -64.248 273.26 -64.374 C 273.256 -64.469 273.252 -64.564 273.249 -64.661 C 273.243 -64.866 273.237 -65.074 273.234 -65.285 C 273.229 -65.559 273.227 -65.837 273.227 -66.117 C 273.227 -66.238 273.227 -66.358 273.228 -66.479 C 273.228 -66.615 273.23 -66.752 273.232 -66.888 C 273.235 -67.222 273.24 -67.556 273.247 -67.885 C 273.251 -68.03 273.254 -68.174 273.258 -68.317 C 273.268 -68.702 273.278 -69.075 273.29 -69.432 C 273.319 -70.295 273.35 -71.054 273.364 -71.603 Z M 269.626 -71.587 L 269.64 -69.652 C 269.659 -66.959 269.675 -62.599 269.525 -62.042 L 269.464 -61.255 C 268.832 -60.038 265.268 -60.198 264.218 -60.725 L 264.052 -61.655 L 264.02 -71.585 Z M 289.545 -71.934 C 290.998 -72.168 292.977 -72.696 294.32 -72.466 C 295.111 -71.56 295.118 -61.798 294.365 -60.774 C 294.304 -60.769 294.236 -60.766 294.161 -60.765 C 293.97 -60.761 293.733 -60.771 293.459 -60.787 C 293.374 -60.792 293.285 -60.798 293.193 -60.805 C 293.041 -60.816 292.881 -60.831 292.712 -60.847 C 292.643 -60.853 292.572 -60.859 292.499 -60.866 C 292.302 -60.886 292.096 -60.91 291.881 -60.935 C 291.81 -60.944 291.738 -60.952 291.665 -60.961 C 291.454 -60.987 291.236 -61.016 291.012 -61.046 C 290.919 -61.058 290.824 -61.071 290.729 -61.084 C 290.518 -61.113 290.302 -61.145 290.083 -61.178 C 289.977 -61.194 289.869 -61.209 289.761 -61.225 C 289.592 -61.252 289.421 -61.28 289.248 -61.308 C 288.805 -61.379 288.353 -61.454 287.903 -61.534 C 287.498 -61.606 287.094 -61.681 286.696 -61.758 C 286.656 -61.765 286.616 -61.773 286.576 -61.781 C 286.278 -61.839 285.984 -61.899 285.696 -61.959 C 285.581 -61.983 285.469 -62.008 285.357 -62.032 C 285.177 -62.071 285 -62.109 284.826 -62.148 C 284.639 -62.191 284.455 -62.234 284.277 -62.276 C 284.165 -62.303 284.055 -62.329 283.948 -62.355 C 283.803 -62.391 283.662 -62.429 283.526 -62.465 C 283.388 -62.501 283.255 -62.535 283.127 -62.571 C 282.939 -62.624 282.761 -62.675 282.595 -62.726 C 282.538 -62.744 282.482 -62.762 282.427 -62.78 C 282.384 -62.794 282.343 -62.807 282.302 -62.821 C 282.242 -62.842 282.185 -62.863 282.129 -62.883 C 282.092 -62.896 282.056 -62.909 282.021 -62.923 C 281.849 -62.988 281.701 -63.05 281.581 -63.111 L 281.417 -63.205 C 281.382 -63.404 281.353 -63.62 281.327 -63.849 C 281.306 -64.044 281.288 -64.249 281.273 -64.462 C 281.269 -64.51 281.265 -64.559 281.262 -64.608 C 281.255 -64.717 281.251 -64.827 281.245 -64.938 C 281.237 -65.105 281.229 -65.274 281.224 -65.445 C 281.22 -65.558 281.217 -65.672 281.215 -65.787 C 281.211 -65.972 281.209 -66.158 281.208 -66.345 C 281.208 -66.444 281.207 -66.543 281.207 -66.642 C 281.208 -66.805 281.209 -66.967 281.211 -67.129 C 281.213 -67.256 281.214 -67.383 281.217 -67.509 C 281.22 -67.638 281.224 -67.767 281.228 -67.893 C 281.248 -68.59 281.281 -69.242 281.319 -69.779 C 281.801 -70.487 281.971 -70.352 282.697 -70.636 L 283.044 -70.787 C 284.548 -70.916 287.953 -71.643 289.545 -71.934 Z M 238.355 -72.641 C 241.85 -72.587 247.341 -71.128 250.781 -70.344 C 251.985 -70.066 251.816 -64.494 251.412 -63.472 C 251.133 -62.76 250.607 -62.76 249.985 -62.573 L 247.483 -62.058 C 247.013 -61.963 246.508 -61.862 245.986 -61.76 C 245.657 -61.695 245.321 -61.631 244.982 -61.567 C 244.951 -61.562 244.921 -61.555 244.89 -61.55 C 244.495 -61.476 244.096 -61.404 243.7 -61.335 C 243.581 -61.314 243.462 -61.294 243.343 -61.273 C 243.021 -61.219 242.703 -61.166 242.392 -61.118 C 242.301 -61.104 242.21 -61.089 242.12 -61.075 C 242.031 -61.062 241.942 -61.049 241.854 -61.036 C 241.663 -61.008 241.476 -60.983 241.293 -60.959 C 241.216 -60.949 241.139 -60.939 241.063 -60.93 C 240.837 -60.902 240.619 -60.877 240.41 -60.856 C 240.238 -60.839 240.072 -60.825 239.914 -60.813 C 239.896 -60.812 239.878 -60.812 239.861 -60.81 C 239.725 -60.801 239.595 -60.794 239.472 -60.79 C 239.45 -60.789 239.428 -60.788 239.407 -60.787 C 239.271 -60.783 239.144 -60.783 239.027 -60.786 C 238.958 -60.788 238.893 -60.791 238.831 -60.795 C 238.798 -60.797 238.767 -60.801 238.736 -60.804 C 238.696 -60.807 238.658 -60.811 238.621 -60.816 C 238.603 -60.819 238.584 -60.821 238.567 -60.824 C 238.507 -60.834 238.453 -60.844 238.405 -60.857 L 238.265 -60.91 C 237.954 -62.191 237.97 -71.32 238.355 -72.641 Z M 264.085 -87.9 L 269.58 -87.873 L 269.682 -77.705 L 269.677 -77.257 C 269.675 -77.19 269.672 -77.121 269.667 -77.053 C 269.666 -77.028 269.663 -77.003 269.661 -76.977 C 269.657 -76.929 269.652 -76.88 269.646 -76.832 C 269.642 -76.802 269.638 -76.772 269.633 -76.743 C 269.624 -76.686 269.613 -76.63 269.6 -76.576 C 269.583 -76.507 269.562 -76.44 269.536 -76.378 C 269.533 -76.37 269.531 -76.363 269.528 -76.355 C 269.507 -76.307 269.485 -76.261 269.458 -76.22 C 269.441 -76.192 269.421 -76.168 269.401 -76.143 C 269.396 -76.138 269.391 -76.133 269.386 -76.128 C 269.371 -76.111 269.355 -76.095 269.338 -76.08 C 269.33 -76.073 269.323 -76.065 269.315 -76.059 C 269.291 -76.039 269.266 -76.021 269.239 -76.006 C 269.143 -75.951 269.047 -75.901 268.95 -75.854 C 268.859 -75.81 268.765 -75.771 268.672 -75.734 C 268.632 -75.719 268.592 -75.706 268.552 -75.691 C 268.492 -75.669 268.432 -75.647 268.371 -75.628 C 268.334 -75.616 268.296 -75.606 268.258 -75.595 C 268.204 -75.579 268.151 -75.563 268.097 -75.55 C 268.048 -75.537 267.999 -75.527 267.949 -75.517 C 267.892 -75.504 267.835 -75.491 267.778 -75.48 C 267.748 -75.475 267.718 -75.471 267.688 -75.466 C 267.623 -75.455 267.558 -75.444 267.493 -75.435 C 267.445 -75.429 267.396 -75.424 267.348 -75.419 C 267.3 -75.414 267.253 -75.409 267.205 -75.405 C 267.151 -75.401 267.096 -75.398 267.041 -75.394 C 266.991 -75.392 266.941 -75.388 266.891 -75.387 C 266.851 -75.385 266.81 -75.384 266.77 -75.384 C 266.705 -75.382 266.64 -75.382 266.575 -75.383 C 266.536 -75.383 266.497 -75.383 266.458 -75.384 C 266.396 -75.385 266.333 -75.387 266.271 -75.39 C 266.237 -75.391 266.202 -75.393 266.168 -75.394 C 266.122 -75.397 266.076 -75.4 266.03 -75.403 C 265.864 -75.414 265.698 -75.428 265.532 -75.446 C 265.435 -75.457 265.338 -75.47 265.241 -75.482 C 264.944 -75.52 264.648 -75.563 264.357 -75.609 C 263.937 -76.216 264.06 -76.813 264.016 -77.69 C 263.797 -80.335 264.076 -85.041 264.085 -87.9 Z M 254.76 -88.586 C 256.677 -88.509 258.326 -88.48 260.243 -88.52 C 260.329 -85.076 260.442 -81.388 260.216 -77.961 C 260.195 -76.869 260.368 -76.801 259.824 -76.043 C 259.547 -75.937 259.295 -75.854 259.061 -75.785 C 259.038 -75.778 259.016 -75.772 258.993 -75.766 C 258.879 -75.733 258.769 -75.705 258.662 -75.681 C 258.646 -75.677 258.63 -75.673 258.614 -75.67 C 258.494 -75.644 258.379 -75.621 258.266 -75.604 C 258.245 -75.601 258.225 -75.599 258.204 -75.597 C 258.117 -75.585 258.031 -75.576 257.946 -75.569 C 257.912 -75.567 257.879 -75.564 257.846 -75.562 C 257.756 -75.557 257.667 -75.555 257.578 -75.555 C 257.565 -75.555 257.551 -75.554 257.537 -75.554 C 257.427 -75.554 257.317 -75.559 257.205 -75.566 C 257.189 -75.567 257.173 -75.569 257.157 -75.57 C 257.088 -75.576 257.018 -75.583 256.947 -75.591 C 256.788 -75.608 256.624 -75.628 256.451 -75.654 L 255.129 -75.882 C 255.098 -75.928 255.071 -75.975 255.046 -76.022 C 255.038 -76.039 255.03 -76.055 255.022 -76.071 C 254.978 -76.163 254.943 -76.257 254.916 -76.355 C 254.876 -76.503 254.85 -76.657 254.835 -76.818 C 254.833 -76.84 254.832 -76.861 254.83 -76.883 C 254.827 -76.925 254.825 -76.967 254.823 -77.01 C 254.806 -77.308 254.808 -77.627 254.785 -77.961 C 254.79 -81.459 254.836 -85.1 254.76 -88.586 Z M 273.323 -88.541 L 278.872 -88.477 C 278.879 -85.107 278.974 -81.281 278.866 -77.947 C 278.861 -76.871 279.036 -76.798 278.506 -76.051 C 278.233 -75.942 277.982 -75.855 277.748 -75.785 C 277.728 -75.779 277.708 -75.773 277.689 -75.767 C 277.583 -75.737 277.481 -75.711 277.381 -75.688 C 277.344 -75.68 277.307 -75.67 277.271 -75.662 C 277.255 -75.659 277.239 -75.656 277.223 -75.653 C 277.147 -75.638 277.072 -75.624 276.998 -75.613 C 276.988 -75.612 276.978 -75.61 276.968 -75.608 C 276.945 -75.605 276.922 -75.603 276.899 -75.6 C 276.805 -75.588 276.712 -75.579 276.62 -75.573 C 276.596 -75.572 276.572 -75.57 276.548 -75.569 C 276.456 -75.565 276.365 -75.563 276.274 -75.564 C 276.254 -75.565 276.235 -75.564 276.215 -75.564 C 276.116 -75.567 276.016 -75.573 275.915 -75.581 C 275.872 -75.585 275.828 -75.59 275.784 -75.595 C 275.722 -75.601 275.658 -75.609 275.594 -75.617 C 275.547 -75.623 275.499 -75.629 275.45 -75.637 C 274.984 -75.706 274.469 -75.818 273.827 -75.944 C 273.426 -76.558 273.516 -77.097 273.445 -77.938 C 273.17 -80.871 273.297 -85.518 273.323 -88.541 Z M 238.087 -86.884 C 240.602 -87.003 246.933 -85.721 249.57 -85.179 C 249.6 -83.751 249.904 -81.452 249.463 -80.113 C 249.29 -79.58 248.907 -79.569 248.379 -79.362 C 246.179 -79.04 239.925 -77.464 238.658 -78.246 C 238.626 -78.291 238.595 -78.34 238.567 -78.392 L 238.505 -78.515 C 238.503 -78.518 238.502 -78.522 238.5 -78.526 C 238.485 -78.56 238.47 -78.595 238.455 -78.631 C 238.446 -78.654 238.436 -78.677 238.427 -78.701 C 238.414 -78.734 238.402 -78.768 238.39 -78.803 C 238.38 -78.831 238.371 -78.859 238.362 -78.889 C 238.351 -78.922 238.341 -78.957 238.33 -78.992 C 238.321 -79.025 238.311 -79.059 238.302 -79.093 C 238.292 -79.132 238.281 -79.171 238.272 -79.212 C 238.268 -79.227 238.266 -79.242 238.262 -79.258 C 238.207 -79.496 238.163 -79.758 238.126 -80.038 C 238.112 -80.148 238.099 -80.26 238.087 -80.375 C 238.082 -80.427 238.075 -80.48 238.071 -80.533 C 238.058 -80.671 238.048 -80.812 238.038 -80.956 C 238.034 -81.024 238.028 -81.092 238.025 -81.16 C 238.004 -81.532 237.993 -81.918 237.989 -82.309 C 237.983 -82.814 237.988 -83.326 237.998 -83.823 C 238.003 -84.024 238.009 -84.222 238.015 -84.417 C 238.043 -85.393 238.081 -86.274 238.087 -86.884 Z M 292.758 -86.838 C 293.256 -86.902 294.283 -87.112 294.509 -86.48 C 295.319 -84.206 295.016 -80.406 294.44 -78.149 C 292.903 -77.687 288.181 -78.747 286.356 -79.073 C 286.169 -79.1 285.988 -79.132 285.81 -79.165 C 285.769 -79.173 285.728 -79.18 285.688 -79.188 C 285.345 -79.255 285.014 -79.331 284.684 -79.415 C 284.565 -79.445 284.446 -79.477 284.326 -79.509 C 283.983 -79.6 283.635 -79.696 283.27 -79.796 C 283.028 -87.743 285.996 -85.662 292.758 -86.838 Z M 238.712 -98.971 C 241.273 -98.887 246.789 -97.754 249.521 -97.272 C 249.625 -95.547 249.565 -93.454 249.558 -91.699 L 247.636 -91.271 C 246.305 -91.038 245.035 -90.819 243.773 -90.616 C 243.613 -90.59 243.453 -90.565 243.293 -90.54 C 242.261 -90.377 241.23 -90.226 240.172 -90.087 C 239.998 -90.064 239.824 -90.041 239.649 -90.018 C 239.533 -90.004 239.417 -89.989 239.3 -89.975 C 238.936 -89.93 238.567 -89.885 238.194 -89.844 C 238.076 -91.623 237.909 -97.095 238.216 -98.676 Z M 293.312 -98.966 C 293.863 -99.132 294.131 -98.96 294.532 -98.637 C 295.157 -96.836 294.855 -92.063 294.79 -89.881 C 292.204 -90.048 288.672 -90.723 286.04 -91.147 C 285.57 -91.171 283.976 -91.584 283.422 -91.717 C 283.401 -91.931 283.384 -92.143 283.368 -92.354 C 283.365 -92.407 283.361 -92.46 283.358 -92.513 C 283.347 -92.677 283.337 -92.84 283.329 -93.003 C 283.326 -93.072 283.322 -93.142 283.319 -93.211 C 283.31 -93.401 283.304 -93.591 283.299 -93.78 C 283.292 -94.058 283.289 -94.336 283.287 -94.613 C 283.284 -95.012 283.284 -95.411 283.287 -95.814 L 283.299 -97.2 C 286.063 -97.913 290.41 -98.517 293.312 -98.966 Z M 264.084 -104.215 C 265.902 -104.173 267.825 -104.199 269.652 -104.192 L 269.587 -93.992 L 268.998 -93.951 C 268.804 -93.941 268.598 -93.934 268.384 -93.928 C 268.249 -93.924 268.111 -93.921 267.971 -93.919 C 267.895 -93.917 267.819 -93.915 267.741 -93.914 C 267.34 -93.908 266.924 -93.908 266.51 -93.908 C 265.598 -93.909 264.702 -93.919 264.025 -93.917 Z M 273.442 -105.117 L 278.891 -105.079 L 278.872 -94.597 C 277.507 -94.638 275.211 -94.801 273.958 -94.479 L 273.726 -94.49 C 273.011 -96.558 273.354 -102.714 273.442 -105.117 Z M 254.882 -105.118 L 260.267 -105.089 C 260.348 -101.614 260.373 -98.138 260.345 -94.663 L 254.823 -94.667 C 254.793 -98.151 254.813 -101.635 254.882 -105.118 Z M 293.854 -111.134 L 294.516 -110.801 C 295.16 -109.411 294.827 -103.672 294.751 -101.811 L 293.843 -101.917 C 293.822 -101.92 293.8 -101.923 293.779 -101.926 C 293.654 -101.942 293.528 -101.959 293.402 -101.976 C 293.178 -102.007 292.951 -102.038 292.723 -102.071 C 292.587 -102.091 292.45 -102.112 292.313 -102.133 C 292.122 -102.161 291.93 -102.19 291.738 -102.221 C 291.569 -102.247 291.4 -102.274 291.23 -102.302 C 291.021 -102.335 290.812 -102.37 290.603 -102.404 C 290.188 -102.473 289.773 -102.542 289.359 -102.612 C 288.573 -102.745 287.793 -102.877 287.039 -102.999 L 285.976 -103.166 L 283.404 -103.692 C 283.24 -105.475 283.285 -107.46 283.285 -109.266 Z M 238.101 -110.929 C 240.426 -111.004 247.131 -109.816 249.493 -109.225 C 249.565 -107.951 249.86 -105.097 249.373 -103.974 C 249.193 -103.557 248.813 -103.55 248.379 -103.419 C 247.122 -103.203 245.676 -102.938 244.202 -102.689 C 243.966 -102.65 243.729 -102.61 243.492 -102.571 C 243.379 -102.553 243.266 -102.534 243.153 -102.516 C 242.342 -102.386 241.533 -102.267 240.754 -102.169 C 240.199 -102.099 239.659 -102.039 239.143 -101.995 C 239.086 -101.99 239.03 -101.985 238.974 -101.98 C 238.702 -101.958 238.438 -101.939 238.182 -101.927 C 238.02 -104.8 238.092 -108.024 238.101 -110.929 Z M 254.872 -121.626 L 260.324 -121.613 C 260.326 -120.192 260.534 -112.107 260.22 -111.214 C 260.234 -110.289 260.266 -110.062 260.063 -109.181 C 259.997 -109.157 259.921 -109.137 259.838 -109.118 C 259.771 -109.103 259.699 -109.088 259.621 -109.075 C 259.607 -109.073 259.593 -109.071 259.578 -109.068 C 259.508 -109.057 259.435 -109.048 259.358 -109.039 C 259.333 -109.036 259.309 -109.033 259.283 -109.03 C 259.214 -109.023 259.142 -109.017 259.068 -109.011 C 259.04 -109.008 259.012 -109.007 258.984 -109.005 C 258.94 -109.002 258.895 -109 258.85 -108.997 C 258.716 -108.989 258.577 -108.983 258.435 -108.978 C 258.404 -108.978 258.374 -108.975 258.343 -108.975 C 258.296 -108.973 258.25 -108.974 258.202 -108.974 C 258.026 -108.971 257.847 -108.969 257.666 -108.971 C 257.575 -108.971 257.483 -108.973 257.391 -108.975 C 257.234 -108.977 257.078 -108.98 256.924 -108.985 C 256.868 -108.987 256.812 -108.989 256.756 -108.991 C 256.567 -108.998 256.383 -109.006 256.207 -109.016 C 256.168 -109.018 256.129 -109.019 256.09 -109.021 C 255.882 -109.033 255.686 -109.046 255.512 -109.059 L 255.034 -109.1 C 254.728 -109.694 254.864 -110.484 254.901 -111.191 C 254.783 -114.668 254.773 -118.149 254.872 -121.626 Z M 273.379 -121.656 C 275.169 -121.652 277.008 -121.626 278.796 -121.646 C 278.902 -118.173 278.921 -114.696 278.852 -111.222 C 278.884 -110.389 278.88 -110.144 278.755 -109.323 L 278.684 -109.272 C 278.676 -109.267 278.666 -109.264 278.657 -109.26 C 278.631 -109.245 278.602 -109.23 278.571 -109.217 C 278.559 -109.212 278.547 -109.207 278.535 -109.202 C 278.498 -109.187 278.457 -109.173 278.414 -109.16 C 278.407 -109.158 278.399 -109.155 278.392 -109.153 C 278.381 -109.15 278.37 -109.148 278.359 -109.144 C 278.296 -109.127 278.228 -109.112 278.156 -109.098 C 278.132 -109.093 278.108 -109.088 278.084 -109.084 C 278.003 -109.069 277.916 -109.056 277.825 -109.045 C 277.821 -109.044 277.816 -109.043 277.811 -109.043 C 277.713 -109.031 277.61 -109.021 277.504 -109.013 C 277.359 -109.001 277.208 -108.993 277.052 -108.987 C 277.015 -108.986 276.977 -108.984 276.939 -108.983 C 276.797 -108.979 276.652 -108.976 276.505 -108.975 C 276.475 -108.975 276.445 -108.975 276.415 -108.975 C 276.343 -108.976 276.271 -108.977 276.199 -108.977 C 276.007 -108.979 275.816 -108.983 275.628 -108.989 C 275.574 -108.991 275.52 -108.992 275.467 -108.994 C 275.235 -109.003 275.011 -109.012 274.802 -109.023 L 273.723 -109.096 C 273.426 -109.689 273.545 -110.477 273.575 -111.177 C 273.542 -111.246 273.512 -111.341 273.485 -111.458 C 273.46 -111.565 273.437 -111.69 273.417 -111.831 C 273.106 -114.007 273.339 -120.015 273.379 -121.656 Z M 264.016 -120.357 C 265.875 -120.409 267.746 -120.361 269.608 -120.333 L 269.652 -110.147 C 267.737 -110.097 265.796 -110.177 263.879 -110.229 C 264.151 -113.374 264.041 -117.15 264.016 -120.357 Z M 292.91 -123.017 C 293.851 -123.061 293.669 -123.195 294.384 -122.787 C 295.316 -121.151 294.85 -115.988 294.779 -113.939 C 291.948 -114.17 288.931 -114.757 286.123 -115.269 C 285.219 -115.378 284.28 -115.578 283.38 -115.75 C 283.365 -115.994 283.352 -116.228 283.344 -116.454 C 283.34 -116.576 283.34 -116.695 283.337 -116.811 C 283.334 -116.961 283.332 -117.106 283.332 -117.247 C 283.332 -117.317 283.333 -117.385 283.334 -117.453 C 283.336 -117.55 283.335 -117.644 283.338 -117.737 C 283.34 -117.806 283.345 -117.873 283.348 -117.939 C 283.353 -118.055 283.358 -118.167 283.366 -118.276 C 283.373 -118.362 283.382 -118.445 283.39 -118.526 C 283.399 -118.617 283.406 -118.705 283.416 -118.791 C 283.426 -118.868 283.439 -118.944 283.45 -119.017 C 283.463 -119.097 283.473 -119.174 283.487 -119.25 C 283.523 -119.449 283.567 -119.635 283.616 -119.809 C 283.621 -119.823 283.624 -119.838 283.628 -119.852 C 283.639 -119.887 283.65 -119.922 283.66 -119.956 C 283.675 -120 283.689 -120.043 283.704 -120.086 C 283.708 -120.098 283.712 -120.109 283.716 -120.121 C 283.729 -120.156 283.742 -120.191 283.755 -120.225 C 283.768 -120.257 283.781 -120.288 283.794 -120.319 C 283.802 -120.337 283.81 -120.354 283.818 -120.372 C 283.834 -120.409 283.851 -120.446 283.868 -120.482 C 283.878 -120.502 283.888 -120.522 283.898 -120.541 C 283.938 -120.621 283.98 -120.697 284.025 -120.77 C 284.04 -120.795 284.056 -120.82 284.072 -120.844 C 284.082 -120.859 284.092 -120.874 284.102 -120.89 C 284.128 -120.928 284.156 -120.966 284.184 -121.003 C 284.188 -121.008 284.191 -121.013 284.195 -121.018 C 284.252 -121.093 284.312 -121.163 284.374 -121.229 C 284.385 -121.24 284.395 -121.251 284.406 -121.262 C 284.427 -121.284 284.449 -121.305 284.471 -121.326 C 284.485 -121.34 284.499 -121.354 284.513 -121.367 C 284.568 -121.417 284.625 -121.465 284.684 -121.511 C 284.744 -121.557 284.806 -121.601 284.87 -121.642 C 284.889 -121.655 284.909 -121.668 284.928 -121.68 C 285.013 -121.732 285.102 -121.78 285.194 -121.825 C 285.246 -121.851 285.299 -121.876 285.354 -121.899 C 285.401 -121.92 285.449 -121.94 285.497 -121.959 C 285.542 -121.976 285.588 -121.993 285.634 -122.01 C 285.693 -122.03 285.753 -122.051 285.814 -122.07 C 285.865 -122.086 285.917 -122.101 285.969 -122.115 C 286.022 -122.13 286.075 -122.145 286.129 -122.158 C 286.192 -122.174 286.256 -122.188 286.322 -122.202 C 286.377 -122.214 286.434 -122.227 286.491 -122.238 C 286.54 -122.248 286.59 -122.257 286.64 -122.267 C 286.722 -122.281 286.806 -122.296 286.892 -122.309 C 286.931 -122.316 286.97 -122.321 287.01 -122.327 C 287.095 -122.34 287.18 -122.352 287.268 -122.363 C 287.298 -122.367 287.328 -122.371 287.358 -122.375 C 287.548 -122.399 287.744 -122.419 287.948 -122.439 C 288.095 -122.454 288.245 -122.47 288.399 -122.484 C 289.312 -122.568 290.347 -122.647 291.501 -122.8 C 291.757 -122.834 292.019 -122.87 292.286 -122.912 C 292.491 -122.944 292.699 -122.979 292.91 -123.017 Z M 238.067 -118.747 C 238.067 -119.398 238.069 -120.047 238.072 -120.682 C 238.074 -121.433 238.077 -122.162 238.074 -122.848 C 240.371 -123.207 247.055 -121.782 249.551 -121.262 C 249.609 -119.84 249.793 -117.422 249.477 -116.059 C 249.391 -115.687 249.126 -115.683 248.701 -115.489 C 245.163 -115.081 241.857 -114.258 238.157 -113.972 C 238.14 -114.269 238.128 -114.577 238.116 -114.892 C 238.112 -115.017 238.108 -115.143 238.105 -115.27 C 238.099 -115.458 238.095 -115.648 238.091 -115.84 C 238.071 -116.78 238.066 -117.765 238.067 -118.747 Z M 248.247 -134.12 C 249.015 -134.217 249.2 -133.947 249.71 -133.514 C 249.493 -131.685 249.569 -129.274 249.574 -127.391 C 248.795 -127.205 247.908 -126.996 246.965 -126.781 C 246.541 -126.685 246.105 -126.588 245.663 -126.491 C 245.536 -126.463 245.408 -126.436 245.28 -126.408 C 244.968 -126.341 244.655 -126.274 244.34 -126.208 C 244.173 -126.173 244.005 -126.138 243.837 -126.103 C 243.398 -126.014 242.96 -125.925 242.526 -125.843 C 242.204 -125.781 241.884 -125.725 241.57 -125.669 C 241.481 -125.653 241.393 -125.637 241.305 -125.622 C 240.661 -125.511 240.038 -125.415 239.453 -125.337 C 239.35 -125.323 239.248 -125.309 239.147 -125.297 C 239.09 -125.29 239.034 -125.283 238.979 -125.276 C 238.788 -125.254 238.603 -125.232 238.422 -125.215 L 237.714 -127.982 L 237.896 -128.172 C 237.949 -128.391 237.997 -128.574 238.045 -128.745 C 238.055 -128.781 238.066 -128.817 238.076 -128.852 C 238.162 -129.146 238.253 -129.416 238.387 -129.788 C 239.87 -131.29 246.042 -133.841 248.247 -134.12 Z M 283.272 -133.786 C 285.47 -134.921 293.113 -131.382 294.726 -129.397 L 294.761 -129.333 C 294.766 -129.322 294.769 -129.308 294.774 -129.295 C 294.785 -129.264 294.797 -129.227 294.809 -129.187 C 294.828 -129.124 294.85 -129.052 294.869 -128.976 C 294.876 -128.952 294.882 -128.928 294.888 -128.903 C 294.941 -128.695 294.988 -128.481 295.007 -128.39 C 294.899 -127.333 294.781 -126.282 294.714 -125.222 C 292.202 -125.44 289.54 -126.24 287.408 -126.407 C 286.891 -126.52 286.467 -126.615 286.057 -126.692 C 285.478 -126.801 284.929 -126.871 284.188 -126.894 C 284.143 -126.923 284.101 -126.954 284.06 -126.988 C 284.044 -127.001 284.03 -127.015 284.015 -127.028 C 283.992 -127.048 283.97 -127.069 283.949 -127.091 C 283.929 -127.111 283.911 -127.132 283.892 -127.153 C 283.874 -127.174 283.856 -127.194 283.839 -127.216 C 283.823 -127.236 283.808 -127.256 283.793 -127.277 C 283.775 -127.303 283.757 -127.33 283.74 -127.357 C 283.727 -127.377 283.714 -127.396 283.702 -127.416 C 283.685 -127.445 283.668 -127.476 283.652 -127.507 C 283.638 -127.532 283.624 -127.557 283.612 -127.583 C 283.6 -127.607 283.589 -127.632 283.577 -127.657 C 283.567 -127.68 283.555 -127.703 283.545 -127.727 L 283.535 -127.751 C 283.49 -127.862 283.449 -127.98 283.413 -128.103 C 283.401 -128.147 283.39 -128.191 283.378 -128.235 C 283.374 -128.252 283.37 -128.268 283.366 -128.285 C 283.337 -128.4 283.312 -128.518 283.29 -128.641 C 283.287 -128.656 283.284 -128.672 283.282 -128.688 C 283.262 -128.801 283.245 -128.916 283.231 -129.034 C 283.214 -129.169 283.202 -129.307 283.191 -129.447 C 283.17 -129.71 283.159 -129.98 283.155 -130.253 C 283.153 -130.326 283.152 -130.399 283.152 -130.473 C 283.151 -130.556 283.152 -130.639 283.153 -130.722 C 283.153 -130.816 283.154 -130.911 283.156 -131.006 C 283.157 -131.068 283.159 -131.131 283.16 -131.193 C 283.165 -131.382 283.174 -131.569 283.182 -131.753 C 283.215 -132.535 283.264 -133.258 283.272 -133.786 Z M 263.884 -135.888 C 266.505 -137.797 269.693 -135.45 272.224 -135.267 C 271.446 -135.22 270.671 -135.147 269.896 -135.047 C 269.404 -134.331 269.655 -127.844 269.676 -126.51 C 267.69 -126.431 265.937 -126.438 263.949 -126.476 C 263.981 -127.888 264.271 -134.343 263.793 -135.089 L 262.013 -135.264 L 262.282 -135.293 C 263.159 -135.395 263.155 -135.356 263.884 -135.888 Z M 255.383 -135.238 C 256.793 -135.711 258.559 -136.701 260.033 -136.207 C 260.282 -135.656 260.359 -135.532 260.792 -135.13 C 260.763 -135.092 260.735 -135.052 260.708 -135.009 C 260.65 -134.915 260.6 -134.809 260.554 -134.691 C 260.119 -133.569 260.216 -131.415 260.284 -129.608 C 260.311 -128.904 260.333 -128.253 260.318 -127.735 L 255.297 -127.81 C 254.019 -128.254 255.66 -132.65 254.245 -134.434 C 254.621 -134.535 255.051 -135.126 255.383 -135.238 Z M 273.74 -136.235 C 275.539 -137.024 278.705 -134.591 279.818 -134.441 C 279.37 -134.226 279.117 -134.226 279.025 -133.828 C 278.616 -132.057 278.956 -129.592 278.859 -127.775 L 273.469 -127.776 C 273.453 -127.836 273.44 -127.91 273.427 -127.997 C 273.421 -128.036 273.417 -128.078 273.411 -128.123 C 273.405 -128.174 273.398 -128.228 273.393 -128.285 C 273.388 -128.336 273.383 -128.39 273.378 -128.446 C 273.372 -128.523 273.367 -128.604 273.362 -128.688 C 273.359 -128.726 273.357 -128.764 273.355 -128.803 C 273.351 -128.877 273.347 -128.954 273.343 -129.034 C 273.336 -129.183 273.332 -129.341 273.326 -129.505 C 273.321 -129.674 273.315 -129.85 273.311 -130.032 C 273.307 -130.223 273.305 -130.419 273.302 -130.619 C 273.3 -130.755 273.299 -130.893 273.298 -131.032 C 273.293 -131.573 273.292 -132.13 273.292 -132.662 C 273.292 -133.217 273.29 -133.746 273.288 -134.203 C 273.286 -134.654 273.284 -135.035 273.274 -135.304 C 273.377 -135.635 273.407 -136.09 273.74 -136.235 Z" fill="#404040" style="stroke: rgb(0, 0, 0); stroke-width: 1.2px;"/>
        <animateTransform type="translate" additive="sum" attributeName="transform" values="0 0;0 116" begin="0s" dur="1s" fill="freeze" keyTimes="0; 1" repeatCount="indefinite"/>
      </g>
    </g>
    <animateTransform type="rotate" additive="sum" attributeName="transform" values="0; 0" begin="32.86s" dur="2s" fill="freeze"/>
  </g>
</svg>