<svg width="146" height="70" viewBox="0 0 146 70" fill="none" xmlns="http://www.w3.org/2000/svg">
<path d="M143.468 31.1487C144.827 33.0137 144.588 35.0355 144.182 36.6096C143.985 37.3762 143.704 38.1892 143.51 38.8147C143.317 39.436 143.188 39.9339 143.142 40.3567C143.438 40.5309 143.773 40.8163 143.978 41.2874C144.352 42.1423 144.295 43.0347 144.144 43.7493C143.991 44.4775 143.702 45.1949 143.422 45.8088C143.147 46.4089 142.819 47.0367 142.609 47.4631C142.495 47.6946 142.41 47.8767 142.352 48.0208C142.313 48.1194 142.298 48.1699 142.294 48.1829L142.291 48.2063L142.283 48.2463L141.706 51.2874C141.821 51.6804 141.866 52.081 141.873 52.4495C141.883 53.0092 141.813 53.6046 141.699 54.1956C141.47 55.3775 141.035 56.6903 140.515 57.9417C139.993 59.1991 139.366 60.4433 138.73 61.4915C138.121 62.4956 137.421 63.4603 136.717 64.0344L136.571 64.1399C136.43 64.231 136.31 64.2799 136.278 64.2932C136.195 64.328 136.114 64.3551 136.052 64.3752C135.969 64.4017 135.881 64.4238 135.798 64.4465C135.168 65.7248 134.255 67.2931 132.241 68.0129L132.241 68.012C132.008 68.0954 131.748 68.1321 131.594 68.1516C131.399 68.1765 131.166 68.1972 130.906 68.2161C130.385 68.2539 129.696 68.2866 128.874 68.3147C127.225 68.371 124.984 68.4119 122.344 68.4407C117.06 68.4982 110.14 68.5079 103.092 68.4954C88.9664 68.4702 74.3787 68.3557 71.2029 68.3557L35.6667 68.3606C29.7144 68.3606 23.7558 68.3704 17.7986 68.345L17.7976 68.345C16.0686 68.3367 14.7309 67.897 13.6814 66.9387C12.9562 66.2765 12.4501 65.4306 12.03 64.5745L11.1755 64.5442C10.8973 64.536 10.3947 64.5321 9.91772 64.3967C9.33569 64.2314 8.82759 63.8956 8.41675 63.3498L8.41479 63.3479C6.42917 60.7019 5.1739 57.387 4.26636 54.4973L4.26538 54.4954C4.09308 53.9448 3.80615 53.0603 3.95971 52.1965C4.07427 51.5526 4.38922 51.0535 4.81909 50.6653C4.64451 49.8384 4.44573 48.88 4.31518 48.0452C3.98548 47.7375 3.71846 47.383 3.50854 47.05C3.15046 46.4822 2.86215 45.829 2.65112 45.1858C2.44004 44.5424 2.29006 43.86 2.23706 43.22C2.18793 42.6261 2.20429 41.8761 2.50073 41.2248L2.73022 40.72L3.23413 40.4856C3.32072 40.4454 3.38778 40.413 3.44507 40.386C3.41165 40.0053 3.38826 39.6047 3.36889 39.2209C3.03856 39.1523 2.71898 39.035 2.3728 38.8567L1.6228 38.47L1.56323 37.6291C1.44807 36.0101 1.52116 34.0785 1.53979 32.5813L1.54663 32.0715L1.86108 31.6721C2.00749 31.4862 2.21819 31.246 2.5144 31.0588C2.84388 30.8506 3.15964 30.7818 3.39819 30.7551C3.42569 30.3803 3.45757 30.0049 3.49097 29.6399C3.46838 29.6305 3.44566 29.621 3.42261 29.6116L2.8855 29.3928L2.6355 28.8694C2.32748 28.2234 2.25275 27.4937 2.27222 26.8547C2.2924 26.1935 2.41726 25.5021 2.61597 24.8528C2.8145 24.2041 3.1006 23.5519 3.47143 22.9817C3.70363 22.6247 3.99509 22.2618 4.35132 21.9534C4.56025 20.8783 4.7873 19.8075 5.03491 18.7414C4.9179 18.6678 4.79549 18.5896 4.65893 18.5012L4.19409 18.2004L4.03589 17.6702C3.88058 17.1478 3.91493 16.5799 3.97046 16.1477C4.03178 15.6705 4.15073 15.1415 4.30054 14.5998C4.60113 13.513 5.06191 12.2542 5.58374 11.0334C6.10625 9.81109 6.70651 8.58836 7.29761 7.57641C7.59285 7.07097 7.89638 6.59855 8.198 6.19848C8.48451 5.81846 8.83108 5.41931 9.22437 5.135L9.22534 5.135C9.76724 4.74363 10.4034 4.71137 10.6882 4.70239C11.0269 4.69172 11.4369 4.71728 11.698 4.72778C11.9703 4.73872 12.178 4.73844 12.3445 4.72387C13.0637 3.3792 14.0004 2.50283 15.2458 2.02856C16.5143 1.54565 17.9744 1.55004 19.3376 1.55004C27.7826 1.55004 36.1811 1.58005 44.616 1.57544L101.08 1.57544L118.889 1.56372C122.682 1.54575 127.878 1.32104 131.886 1.84106L131.887 1.84106C133.004 1.98694 133.835 2.70897 134.363 3.29321C134.787 3.7617 135.14 4.28289 135.412 4.71899C135.838 4.83523 136.178 4.94952 136.664 5.12427L136.974 5.2356L137.21 5.46802C137.748 5.99973 138.275 6.82629 138.739 7.66528C139.224 8.54142 139.714 9.56812 140.158 10.6028C141.022 12.6161 141.807 14.8783 141.975 16.2073C142.05 16.8004 142.003 17.3725 141.708 17.928C141.646 18.0446 141.579 18.1498 141.513 18.2415C141.781 19.4367 142.02 20.79 142.23 21.8743C142.253 21.9011 142.281 21.9368 142.32 21.9807C142.39 22.059 142.518 22.2004 142.628 22.3401C142.727 22.4668 142.916 22.7198 143.028 23.052L143.029 23.054C143.132 23.361 143.264 23.6898 143.424 24.0979C143.576 24.4862 143.747 24.9325 143.887 25.3938C144.143 26.2299 144.367 27.323 144.065 28.4358L143.998 28.6584L143.79 29.2795L143.193 29.5491C143.15 29.5687 143.112 29.5865 143.079 29.6018L143.123 29.9973L143.123 29.9993L143.152 30.2688L143.151 30.2688C143.18 30.5129 143.192 30.6292 143.208 30.7375C143.21 30.755 143.21 30.7696 143.212 30.7805C143.215 30.7857 143.218 30.7922 143.223 30.8C143.265 30.8657 143.332 30.963 143.468 31.1487Z" fill="#272727" stroke="black" stroke-width="3"/>
<path d="M13.4622 7.28296C13.2941 9.6624 12.3817 14.3199 11.6301 16.9138C11.01 16.918 10.1127 16.9232 9.29321 16.947C8.72247 16.9636 8.15118 16.9914 7.67212 17.0378C7.43319 17.061 7.20622 17.0893 7.00806 17.1267C6.9481 17.138 6.885 17.154 6.82056 17.1697C6.58435 17.0497 6.40806 16.9457 6.17798 16.7996C6.17909 16.7076 6.1848 16.5875 6.20435 16.4353C6.24733 16.1007 6.33753 15.6824 6.47095 15.2C6.73728 14.237 7.15963 13.0765 7.65454 11.9187C8.14917 10.7616 8.7088 9.62622 9.24243 8.71265C9.50943 8.25556 9.7641 7.86248 9.99634 7.55444C10.2231 7.25374 10.4023 7.06972 10.5237 6.97632C10.5452 6.9717 10.6136 6.95844 10.759 6.95386C10.9904 6.94656 11.2537 6.96405 11.6077 6.97827C11.9355 6.99144 12.3225 7.0002 12.6985 6.95288C12.8822 6.92976 13.078 6.89115 13.2737 6.8269C13.3143 6.87387 13.3481 6.91742 13.3762 6.96069C13.4434 7.06424 13.4711 7.15318 13.4622 7.28296Z" fill="#323232" stroke="black" stroke-width="1.50426"/>
<path d="M12.7468 56.9857C13.1713 59.011 13.4628 60.9263 13.4187 62.0033C13.3997 62.0356 13.3818 62.065 13.366 62.0922C13.3378 62.1406 13.3165 62.1759 13.2996 62.2045C13.2931 62.2067 13.2865 62.2097 13.2791 62.2123C13.1923 62.2421 13.0631 62.2872 12.8875 62.3519L11.2576 62.2933L11.2527 62.2933C10.8771 62.2819 10.6877 62.2748 10.533 62.2308C10.4286 62.2012 10.3347 62.153 10.2166 61.9965C8.46992 59.669 7.30536 56.6583 6.41479 53.8226C6.20597 53.1553 6.13639 52.8169 6.17651 52.5912C6.19263 52.5006 6.23584 52.3426 6.60718 52.1439C6.67092 52.1514 6.73187 52.1591 6.78589 52.1635C6.97032 52.1782 7.19633 52.1883 7.44409 52.1957C7.94099 52.2104 8.55862 52.2133 9.17944 52.2113C10.0542 52.2084 10.9559 52.1944 11.5515 52.1849C11.9057 53.3788 12.3685 55.1806 12.7468 56.9857Z" fill="#323232" stroke="black" stroke-width="1.50426"/>
<path d="M139.621 52.4919C139.627 52.8456 139.583 53.2759 139.488 53.7683C139.298 54.7533 138.919 55.9145 138.435 57.0789C137.953 58.2402 137.377 59.3808 136.805 60.323C136.253 61.2329 135.741 61.8948 135.356 62.2332C135.294 62.2531 135.207 62.2772 135.108 62.3025C134.966 62.3388 134.817 62.371 134.711 62.3943C133.959 62.3166 133.194 62.2339 132.424 62.1697C132.548 61.199 132.742 60.2056 132.939 59.2136C133.18 58.0015 133.429 56.7752 133.52 55.6697C133.768 54.5384 133.946 53.793 134.003 52.6179C134.129 52.5023 134.344 52.3816 134.693 52.281C135.155 52.148 135.745 52.081 136.408 52.0593C137.064 52.0379 137.755 52.0615 138.407 52.0935C138.819 52.1138 139.228 52.1347 139.594 52.1511C139.608 52.249 139.618 52.3621 139.621 52.4919Z" fill="#323232" stroke="black" stroke-width="1.50426"/>
<path d="M139.742 16.4899C139.777 16.7691 139.736 16.8402 139.719 16.8707C139.701 16.9054 139.668 16.9533 139.596 17.0387C139.588 17.0486 139.579 17.0586 139.57 17.069C137.947 16.917 135.976 16.9524 134.354 16.9655C133.668 14.0661 132.755 10.0406 132.402 7.13635L134.132 6.69397L134.165 6.72717L134.364 6.77502C134.923 6.90968 135.229 7.00505 135.734 7.1842C136.014 7.50001 136.372 8.03849 136.769 8.75647C137.209 9.55059 137.666 10.5065 138.089 11.4918C138.947 13.4909 139.617 15.5005 139.742 16.4899Z" fill="#323232" stroke="black" stroke-width="1.50426"/>
<path d="M141.757 32.6348C142.394 33.6273 142.338 34.744 142.002 36.0479C141.893 36.4715 141.763 36.8853 141.627 37.3086C141.553 37.2773 141.482 37.2543 141.424 37.2373C141.297 37.2009 141.158 37.1732 141.016 37.1504C140.733 37.1047 140.388 37.0721 140.012 37.0488C139.259 37.0021 138.32 36.9882 137.377 36.9902C135.982 36.9932 134.527 37.0309 133.607 37.0547C133.565 35.6318 133.564 34.302 133.586 32.8711C134.525 32.9014 135.99 32.9502 137.393 32.9629C138.34 32.9714 139.279 32.9635 140.035 32.9229C140.411 32.9026 140.757 32.8738 141.042 32.8311C141.184 32.8097 141.324 32.7834 141.45 32.749C141.537 32.7253 141.647 32.6896 141.757 32.6348Z" fill="#323232" stroke="black" stroke-width="1.50426"/>
<path d="M12.563 33.0073C12.4555 34.3722 12.4263 35.7075 12.4019 37.0435C9.91017 37.0243 7.27887 36.981 4.80322 37.0415L4.80322 37.0405C4.34801 37.0405 4.16749 37.057 3.95947 37.0366C3.90315 37.0311 3.8469 37.0209 3.78467 37.0054C3.72477 35.7366 3.7652 34.3131 3.78662 32.9849C3.9678 32.9771 4.30392 32.9583 4.70166 32.8716L4.70654 32.8696L4.8999 32.8257C5.75888 32.8531 7.57618 32.8613 9.27002 32.8892C10.1606 32.9038 11.0235 32.925 11.7192 32.9565C12.0635 32.9722 12.3458 32.989 12.563 33.0073Z" fill="#323232" stroke="black" stroke-width="1.50426"/>
<path d="M141.947 42.2742C142.026 42.5152 142.033 42.8456 141.941 43.2849C141.838 43.7716 141.629 44.312 141.373 44.8718C141.114 45.4385 140.839 45.9595 140.588 46.4685C140.582 46.4801 140.577 46.4921 140.572 46.5037C140.503 46.4775 140.434 46.4562 140.365 46.4402L140.365 46.4402C139.38 46.2131 138.237 46.1998 137.171 46.2214C136.355 46.238 135.591 46.273 134.897 46.2722L134.897 42.2751C135.079 42.2609 135.3 42.2468 135.559 42.2361C136.18 42.2104 136.938 42.1998 137.721 42.1951C139.191 42.1862 140.775 42.1986 141.584 42.1755C141.649 42.1928 141.71 42.21 141.756 42.2214C141.843 42.2428 141.901 42.2583 141.947 42.2742Z" fill="#323232" stroke="black" stroke-width="1.50426"/>
<path d="M141.734 26.0521C141.924 26.6725 142.001 27.2025 141.93 27.6547C141.796 27.7215 141.672 27.7912 141.552 27.8744C141.488 27.9189 141.428 27.9668 141.369 28.016C141.012 27.8721 140.615 27.7873 140.232 27.7328C139.589 27.6412 138.851 27.617 138.117 27.6205C137.38 27.624 136.617 27.656 135.927 27.682C135.546 27.6964 135.19 27.7081 134.867 27.7142L134.927 23.7416C134.991 23.7235 135.086 23.7028 135.221 23.6898C135.653 23.6485 136.23 23.6837 136.947 23.722C137.631 23.7585 138.415 23.7953 139.149 23.724C139.618 23.6785 140.109 23.5838 140.563 23.3929C140.59 23.4234 140.615 23.4532 140.639 23.4799C140.735 23.5875 140.801 23.6617 140.855 23.7308C140.915 23.8066 140.909 23.8128 140.895 23.7709C141.02 24.1456 141.179 24.5434 141.326 24.9193C141.477 25.3054 141.621 25.6813 141.734 26.0521Z" fill="#323232" stroke="black" stroke-width="1.50426"/>
<path d="M10.9556 46.2821C10.2879 46.2726 9.45641 46.2611 8.64209 46.2684C7.66367 46.2772 6.62879 46.313 5.88916 46.4286C5.74823 46.305 5.5831 46.1174 5.41357 45.8485C5.17313 45.4671 4.95636 44.9897 4.79053 44.4843C4.62477 43.979 4.51709 43.4705 4.48096 43.0341C4.45765 42.7524 4.47054 42.5353 4.49463 42.3798C4.64314 42.3078 4.78816 42.2339 4.92334 42.1454C5.01855 42.0831 5.10545 42.0146 5.19092 41.9413C5.21935 41.9505 5.24653 41.9615 5.27393 41.9696C5.52388 42.0431 5.8091 42.0968 6.10498 42.1376C6.69799 42.2192 7.40652 42.258 8.11084 42.2753C9.10816 42.2997 10.189 42.2825 10.9536 42.2714C10.9869 43.5621 10.9663 44.9521 10.9556 46.2821Z" fill="#323232" stroke="black" stroke-width="1.50426"/>
<path d="M11.0713 27.6024C10.9262 27.6254 10.7514 27.6506 10.5449 27.6718C9.99332 27.7282 9.31983 27.7643 8.62109 27.787C7.26901 27.8309 5.90427 27.8248 5.16797 27.8348C4.92298 27.7866 4.80159 27.7422 4.58789 27.6542C4.54217 27.4644 4.51438 27.2195 4.52344 26.9227C4.53676 26.4873 4.62149 25.9953 4.76953 25.5116C4.91765 25.0277 5.12229 24.5745 5.35937 24.2098C5.54417 23.9257 5.73213 23.7215 5.90527 23.5907C7.50232 23.6959 9.35357 23.7226 10.9883 23.7596C10.9662 24.9708 10.9399 26.3787 11.0713 27.6024Z" fill="#323232" stroke="black" stroke-width="1.50426"/>
<path d="M78.2324 7.13892C78.1393 8.70725 77.8086 10.6264 77.3984 12.5823C76.9385 14.7755 76.3962 16.9368 76 18.6663C75.9962 18.6687 75.9928 18.6723 75.9883 18.675C75.8972 18.7304 75.7324 18.7988 75.4785 18.8635C74.9761 18.9917 74.2825 19.0678 73.5273 19.0959C72.7798 19.1238 72.0081 19.1034 71.3662 19.052C70.6882 18.9976 70.2542 18.916 70.1162 18.8616L70.1143 18.8606C70.014 18.8212 69.9676 18.785 69.9453 18.7639C69.9238 18.7434 69.9016 18.7149 69.877 18.6614C69.8489 18.6004 69.8221 18.519 69.7871 18.387C69.7597 18.2835 69.7205 18.1188 69.6748 17.9612C69.4679 16.9087 68.9074 14.355 68.4668 11.8616C68.2453 10.608 68.0587 9.39405 67.9658 8.4231C67.9193 7.93647 67.8977 7.52749 67.9043 7.21313C67.9053 7.16604 67.9091 7.12324 67.9111 7.08423C67.9834 7.07737 68.0636 7.06854 68.1523 7.06177C68.5127 7.03426 68.9685 7.01134 69.4912 6.99341C70.5357 6.95757 71.8283 6.94287 73.125 6.94946C74.422 6.95606 75.716 6.98427 76.7637 7.03442C77.2877 7.05951 77.744 7.08922 78.1055 7.12427C78.1498 7.12857 78.1923 7.13461 78.2324 7.13892Z" fill="#323232" stroke="black" stroke-width="1.50426"/>
<path d="M92.5227 61.9735C91.5203 62.3131 90.1427 62.4357 88.6995 62.3915C87.4383 62.3529 86.1827 62.1885 85.175 61.9696C85.1538 61.7158 85.1478 61.3841 85.1711 60.9764C85.2085 60.3238 85.3037 59.5591 85.426 58.7694C85.673 57.1745 86.0106 55.5891 86.1809 54.6366L86.1829 54.6249L86.1848 54.6122L86.2463 54.2284C86.3702 53.5215 86.5416 52.8786 86.7395 52.1591C88.3868 52.1406 89.467 52.2842 90.1887 52.5526C90.929 52.8279 91.2928 53.232 91.5247 53.8143C91.7847 54.4674 91.8805 55.3451 91.9768 56.5946C92.07 57.8042 92.1627 59.2902 92.4612 61.0145C92.5006 61.316 92.5508 61.59 92.5374 61.8446C92.5345 61.8992 92.5294 61.9418 92.5227 61.9735Z" fill="#323232" stroke="black" stroke-width="1.50426"/>
<path d="M104.64 61.8875C104.631 61.9147 104.609 61.9523 104.552 62.031C104.201 62.1241 103.718 62.1966 103.125 62.2439C102.419 62.3002 101.608 62.3189 100.772 62.3162C99.4522 62.3119 98.1161 62.2558 97.0623 62.2156C97.2921 59.7767 97.8696 56.7198 98.2585 54.3083L98.2644 54.2673L98.2664 54.2253L98.2869 54.0603C98.321 53.8467 98.3953 53.4961 98.4919 53.0818C98.5589 52.7946 98.6285 52.5167 98.6882 52.2742C100.126 52.1652 101.495 52.18 102.978 52.1941C103.62 54.9134 104.167 58.8362 104.591 61.575L104.598 61.6267L104.614 61.6775C104.664 61.8425 104.642 61.8835 104.64 61.8875Z" fill="#323232" stroke="black" stroke-width="1.50426"/>
<path d="M116.633 62.0562C116.37 62.1257 115.953 62.1904 115.382 62.2339C114.65 62.2898 113.767 62.3063 112.856 62.3003C111.463 62.2911 110.038 62.2277 109.022 62.1821C109.333 59.6756 109.889 56.815 110.275 54.2603L110.684 52.2583C112.07 52.1651 113.556 52.1786 115.002 52.1841L116.718 61.8862L116.633 62.0562Z" fill="#323232" stroke="black" stroke-width="1.50426"/>
<path d="M128.69 61.8125C128.682 61.8301 128.658 61.8719 128.611 61.96C128.321 62.0787 127.878 62.1823 127.284 62.251C126.581 62.3323 125.752 62.3589 124.89 62.3545C123.53 62.3476 122.173 62.2684 121.132 62.2148C121.394 59.6581 121.91 56.9708 122.377 54.4062L122.381 54.3838L122.384 54.3613L122.477 53.7031C122.553 53.2264 122.649 52.7421 122.745 52.25C124.391 52.1827 125.478 52.3039 126.209 52.5635C126.964 52.8314 127.35 53.247 127.603 53.8555C127.883 54.5309 127.998 55.4404 128.113 56.7109C128.223 57.9363 128.332 59.4339 128.638 61.1484C128.65 61.3755 128.664 61.5405 128.676 61.6592C128.682 61.7249 128.687 61.7639 128.689 61.7949C128.689 61.8021 128.69 61.8079 128.69 61.8125Z" fill="#323232" stroke="black" stroke-width="1.50426"/>
<path d="M36.8403 62.0542C36.5307 62.1386 36.0896 62.2088 35.5288 62.2544C34.8082 62.3129 33.9631 62.3288 33.0903 62.3198C31.7193 62.3057 30.3238 62.2311 29.2769 62.1772C29.4974 59.8751 30.0373 57.2132 30.4673 54.9575L30.4712 54.9341C30.6173 54.0149 30.7533 53.0949 30.8823 52.1724L35.2085 52.1782C35.8018 55.043 36.5147 59.0628 36.8013 61.7144L36.8022 61.7134C36.8096 61.7836 36.8162 61.8459 36.8228 61.8989C36.8297 61.9551 36.8343 61.9949 36.8384 62.0317C36.8393 62.0399 36.8397 62.0474 36.8403 62.0542Z" fill="#323232" stroke="black" stroke-width="1.50426"/>
<path d="M92.4976 6.96838C92.4534 8.18601 92.2154 9.95945 91.9058 11.8063C91.5846 13.7216 91.1993 15.6506 90.9263 16.9889C90.7214 16.9994 90.5095 17.0124 90.2964 17.025C89.8579 17.051 89.4067 17.0775 88.9604 17.0895C88.0435 17.1142 87.2504 17.0728 86.7163 16.8971L86.7134 16.8961C86.6592 16.8785 86.651 16.8672 86.6597 16.8746C86.6683 16.8822 86.6656 16.8833 86.6509 16.8551C86.6317 16.8182 86.6096 16.7627 86.5718 16.652C86.5448 16.573 86.507 16.4611 86.4624 16.3405C86.3756 15.7714 86.2184 14.9785 86.0474 14.1119C85.8663 13.1948 85.6657 12.1774 85.4995 11.191C85.3328 10.2011 85.205 9.26516 85.1646 8.5094C85.1443 8.13101 85.1469 7.81693 85.1724 7.57483C85.183 7.47328 85.1983 7.39217 85.2134 7.32873C85.454 7.21801 85.8409 7.11186 86.3882 7.03381C87.0579 6.93832 87.8631 6.89683 88.7104 6.88733C90.0925 6.87184 91.4445 6.93537 92.4976 6.96838Z" fill="#323232" stroke="black" stroke-width="1.50426"/>
<path d="M24.8069 7.02808C24.5265 10.2247 23.8185 13.7873 23.1555 16.9822C22.9341 16.9918 22.7086 17.0047 22.4846 17.0173C22.0432 17.0422 21.6024 17.0673 21.1672 17.0769C20.2807 17.0965 19.5128 17.0447 18.9377 16.8367L18.9358 16.8367L18.9338 16.8347C18.9296 16.8277 18.9229 16.8169 18.9153 16.8015C18.8892 16.7486 18.8621 16.6789 18.8166 16.5554C18.7831 16.4644 18.7395 16.3509 18.6877 16.2253C18.1583 13.244 17.5627 9.99087 17.3137 7.01147C19.6856 6.92866 22.3991 6.97723 24.8069 7.02808Z" fill="#323232" stroke="black" stroke-width="1.50426"/>
<path d="M48.8354 7.00793C48.7346 8.10652 48.5107 9.93135 48.2427 11.7609C48.0716 12.9288 47.8854 14.0832 47.7056 15.0304C47.5602 15.7962 47.4267 16.3782 47.3218 16.7257C47.1979 16.7768 47.0258 16.8307 46.7954 16.8741C46.4376 16.9416 46.0089 16.9781 45.5474 16.9933C44.697 17.0213 43.8331 16.9783 43.1733 16.9581C43.1115 16.9246 43.0674 16.9001 43.0308 16.88C43.03 16.8771 43.0286 16.8743 43.0278 16.8712C42.9969 16.7544 42.9513 16.5762 42.8735 16.3273C42.6433 15.297 42.1453 13.3229 41.8042 11.3947C41.6327 10.425 41.5064 9.49602 41.4741 8.73352C41.458 8.35252 41.4656 8.03108 41.4976 7.77649C41.5172 7.62028 41.5452 7.50925 41.5698 7.43372C41.8217 7.28144 42.2262 7.14273 42.8003 7.04407C43.4605 6.93063 44.2501 6.88384 45.0854 6.87707C46.4298 6.8662 47.7687 6.95369 48.8354 7.00793Z" fill="#323232" stroke="black" stroke-width="1.50426"/>
<path d="M104.574 7.05518C104.51 8.28409 104.231 10.1439 103.897 12.0728C103.585 13.8726 103.254 15.5933 103.008 16.9458C101.637 16.9987 100.096 16.9709 98.6711 16.9585L98.3782 15.6392C97.8558 12.6561 97.4055 9.99222 97.053 7.04834C98.0113 7.00296 99.3662 6.95923 100.709 6.9458C102.282 6.93008 103.755 6.95873 104.574 7.05518Z" fill="#323232" stroke="black" stroke-width="1.50426"/>
<path d="M60.9053 62.0551C60.5783 62.143 60.1333 62.2132 59.584 62.2592C58.8612 62.3196 58.0221 62.3347 57.1572 62.3236C55.7949 62.3061 54.4075 62.2223 53.3555 62.1586C53.5925 59.8375 54.1413 57.0161 54.5293 54.7103L54.5303 54.7094L54.7812 53.1263C54.8285 52.814 54.8725 52.5014 54.917 52.1888L59.2207 52.1693C59.9147 55.0487 60.4337 58.7801 60.8525 61.6742C60.8685 61.8005 60.8908 61.9403 60.8994 62.0023C60.9023 62.023 60.9036 62.0405 60.9053 62.0551Z" fill="#323232" stroke="black" stroke-width="1.50426"/>
<path d="M60.9077 7.0249C60.6956 9.74424 59.8149 14.3707 59.2144 17.0093C58.6195 17.0351 57.9232 17.068 57.2134 17.0688C56.235 17.07 55.4133 17.0041 54.9653 16.8345L54.9644 16.8335C54.9529 16.8041 54.9374 16.758 54.9146 16.6694C54.8963 16.5988 54.8686 16.4937 54.8364 16.3813C54.6169 14.5941 54.2313 12.8985 53.9409 11.2925C53.6837 9.87009 53.4923 8.46974 53.5044 6.98389C55.9708 6.96072 58.439 6.9749 60.9077 7.0249Z" fill="#323232" stroke="black" stroke-width="1.50426"/>
<path d="M116.532 6.99646C116.474 8.1815 116.246 9.96863 115.952 11.8129C115.641 13.7568 115.27 15.694 114.99 16.9281C114.382 16.9701 113.642 17.0233 112.894 17.0394C112.402 17.0501 111.93 17.0424 111.523 17.0062C111.113 16.9697 110.825 16.9064 110.654 16.8353L110.653 16.8353C110.638 16.8003 110.623 16.7488 110.598 16.6527C110.58 16.5826 110.554 16.4772 110.523 16.3685C110.036 13.5401 109.324 9.88361 109.097 7.04626C111.491 6.94604 114.082 6.9818 116.532 6.99646Z" fill="#323232" stroke="black" stroke-width="1.50426"/>
<path d="M24.7541 62.2117C22.2619 62.2605 19.7669 62.2486 17.2747 62.1775C17.4853 60.0237 18.072 56.969 18.4114 54.9031L18.4114 54.9021L18.8372 52.2966C20.4267 52.1742 21.6551 52.18 23.2708 52.2078C23.7207 55.1094 24.1904 58.007 24.678 60.9021L24.677 60.9021L24.6799 60.9128C24.7091 61.0719 24.7303 61.4271 24.7444 61.863C24.7482 61.9795 24.7514 62.0969 24.7541 62.2117Z" fill="#323232" stroke="black" stroke-width="1.50426"/>
<path d="M128.52 6.97278C128.527 7.40417 128.501 7.94185 128.444 8.56458C128.355 9.52789 128.198 10.6369 128.011 11.7628C127.689 13.7057 127.283 15.6688 127.011 16.9747C126.397 17.0046 125.699 17.0397 124.995 17.0499C124.099 17.063 123.277 17.0301 122.697 16.9122C122.691 16.8987 122.684 16.8833 122.677 16.8654C122.656 16.8112 122.626 16.7404 122.592 16.6593C122.385 14.902 122.079 13.1995 121.794 11.5128C121.544 10.0321 121.309 8.55501 121.158 7.02161C123.451 6.93532 126.161 6.9738 128.52 6.97278Z" fill="#323232" stroke="black" stroke-width="1.50426"/>
<path d="M48.8064 62.1824C47.9112 62.2127 47.107 62.2527 46.3884 62.2917C45.4635 62.342 44.6952 62.3889 44.0427 62.4099C43.3877 62.4311 42.891 62.4243 42.5105 62.3767C42.1271 62.3288 41.9313 62.2477 41.8269 62.1726C41.6837 62.0695 41.4903 61.8099 41.5681 60.6687C41.643 59.5721 41.9367 57.9889 42.3503 55.6384L42.3523 55.6296L42.3533 55.6208L42.4919 54.7664C42.6275 53.9863 42.7582 53.4222 42.9109 53.0085C43.1059 52.4804 43.2983 52.3027 43.488 52.2107C43.7307 52.0932 44.123 52.0385 44.8826 52.075C45.5264 52.1059 46.2883 52.1862 47.3015 52.2742C47.8306 54.9625 48.2731 57.9018 48.7214 60.6257L48.8064 62.1824Z" fill="#323232" stroke="black" stroke-width="1.50426"/>
<path d="M36.8315 7.08655C36.6855 8.29527 36.4501 10.2355 36.1558 12.1139C35.9716 13.2893 35.7672 14.4242 35.5503 15.3278C35.4418 15.78 35.3334 16.1602 35.228 16.4528C35.176 16.597 35.1274 16.7114 35.0845 16.7975C34.9336 16.8384 34.722 16.8824 34.4507 16.9196C34.055 16.9737 33.5885 17.0103 33.1128 17.026C32.2627 17.054 31.4807 17.0127 31.0454 16.9352C30.8659 16.7438 30.8552 16.6956 30.8472 16.6696C30.833 16.6238 30.8209 16.5607 30.7964 16.3961C30.785 16.3195 30.7715 16.229 30.7544 16.1237L30.6919 15.776C30.4534 14.4447 30.2055 13.1115 29.9526 11.7838C29.7853 10.8895 29.5507 10.0165 29.4624 9.12073C29.3818 8.30286 29.457 7.67988 29.7212 7.24475C29.9734 7.11348 30.3878 6.99657 30.9751 6.92151C31.6358 6.83708 32.4214 6.81544 33.2437 6.83362C34.5235 6.86193 35.8404 6.98348 36.8315 7.08655Z" fill="#323232" stroke="black" stroke-width="1.50426"/>
<path d="M63.501 44.4838C63.5299 45.139 63.5199 45.7569 63.458 46.2592C62.9676 46.3297 62.4419 46.2763 61.71 46.2484L61.666 46.2465L61.6211 46.2504C59.6433 46.4112 54.5816 46.3211 51.8105 46.3051C51.8009 44.9523 51.8128 43.5999 51.8477 42.2484C54.8304 42.1855 58.9983 42.0746 61.5918 42.3539L61.6133 42.3568L61.6348 42.3578C61.8916 42.3704 62.1433 42.3693 62.3604 42.3695C62.5861 42.3697 62.7732 42.3705 62.9414 42.3832C63.1084 42.3958 63.2232 42.4189 63.3037 42.4447C63.3912 43.0402 63.4693 43.7643 63.501 44.4838Z" fill="#323232" stroke="black" stroke-width="1.50426"/>
<path d="M63.519 25.8499C63.5285 26.333 63.5207 26.7962 63.4878 27.1838C63.4749 27.3356 63.4583 27.4639 63.4409 27.5706C62.8515 27.6329 62.4554 27.6143 61.686 27.592L61.6548 27.5911L61.6235 27.592C58.3427 27.7713 55.0556 27.7878 51.7739 27.6448L51.7886 23.72C54.9068 23.6861 58.8816 23.5711 61.6274 23.7981L61.6548 23.801L61.6831 23.801C61.9081 23.8029 62.1491 23.7941 62.3667 23.7874C62.5923 23.7803 62.8006 23.7751 62.9946 23.7805C63.1705 23.7854 63.3043 23.8006 63.4048 23.8176C63.4525 24.3639 63.5047 25.1145 63.519 25.8499Z" fill="#323232" stroke="black" stroke-width="1.50426"/>
<path d="M63.6226 35.0367C63.6233 35.5695 63.6111 36.0844 63.5786 36.5035C63.5648 36.6821 63.5464 36.8353 63.5269 36.9606C63.071 37.0788 62.7002 37.0418 61.9302 37.0358L61.9292 37.0358C58.7099 37.0165 55.4905 37.0155 52.269 37.0338L52.3042 32.9547C53.7569 32.9288 55.2464 32.9203 56.7397 32.9186L61.9351 32.9156C62.3645 32.9181 62.72 32.8967 63.1304 32.9156C63.3016 32.9236 63.4455 32.9395 63.5649 32.9596C63.5909 33.4943 63.6215 34.2709 63.6226 35.0367Z" fill="#323232" stroke="black" stroke-width="1.50426"/>
<path d="M46.519 42.3674C46.5553 43.6681 46.6089 45.0443 46.5435 46.2756C46.0962 46.3366 45.6551 46.2911 44.9585 46.2668L44.9272 46.2659L44.896 46.2678C42.2857 46.3962 38.2421 46.3016 35.2603 46.2834L35.2603 42.219C38.4801 42.1879 41.6983 42.2152 44.9165 42.3049L44.9282 42.3059C45.3806 42.3114 45.7244 42.2882 46.1167 42.3137C46.2782 42.3242 46.4106 42.344 46.519 42.3674Z" fill="#323232" stroke="black" stroke-width="1.50426"/>
<path d="M94.175 23.6738C94.1285 25.0328 94.1107 26.2917 94.1272 27.6572C90.8942 27.7385 87.5221 27.8207 84.3782 27.6133L84.3606 27.6123L84.343 27.6123C84.05 27.6067 83.8242 27.6144 83.6545 27.6191C83.4738 27.6242 83.3912 27.6242 83.3274 27.6172C83.2823 27.6122 83.2238 27.6073 83.0344 27.4863C82.7518 26.7005 82.667 26.1816 82.6731 25.6729C82.6794 25.1502 82.7779 24.6239 82.925 23.7891C83.0183 23.7635 83.1298 23.744 83.2678 23.7314C83.4151 23.7181 83.5749 23.713 83.7649 23.708C83.943 23.7033 84.1483 23.6991 84.3606 23.6855C87.5737 23.69 90.9317 23.728 94.175 23.6738Z" fill="#323232" stroke="black" stroke-width="1.50426"/>
<path d="M94.1021 46.2736C90.9023 46.2903 87.4172 46.3629 84.3394 46.2628L84.3286 46.2618L84.3179 46.2618C84.028 46.2606 83.8043 46.272 83.6362 46.2794C83.4573 46.2873 83.3765 46.2882 83.314 46.2823C83.2731 46.2785 83.2185 46.2761 83.0366 46.1622C82.7502 45.3957 82.6696 44.8782 82.6841 44.3712C82.6992 43.8428 82.8134 43.3121 82.981 42.4777C83.0803 42.4432 83.1858 42.4217 83.3101 42.4073C83.438 42.3925 83.5782 42.3861 83.7593 42.3781C83.9338 42.3703 84.1413 42.3613 84.3696 42.3419L84.3755 42.3419L84.936 42.295C87.582 42.1042 91.3336 42.1801 94.1489 42.213L94.1021 46.2736Z" fill="#323232" stroke="black" stroke-width="1.50426"/>
<path d="M46.5786 25.7864C46.5975 26.2851 46.6022 26.7691 46.5835 27.1721C46.5761 27.3324 46.5645 27.467 46.5522 27.5774C46.0909 27.6478 45.7269 27.6004 44.9995 27.5608L44.9478 27.5579L44.895 27.5618C42.0558 27.8035 38.3313 27.7772 35.2563 27.7952L35.2739 23.7327C38.4554 23.6878 41.7496 23.7196 44.9438 23.7131C45.377 23.7156 45.6925 23.6917 46.0669 23.7131C46.2206 23.7219 46.3432 23.7396 46.4399 23.76C46.4908 24.2789 46.5502 25.0357 46.5786 25.7864Z" fill="#323232" stroke="black" stroke-width="1.50426"/>
<path d="M127.269 42.2582C127.262 43.5626 127.252 44.8986 127.258 46.2123C124.041 46.2991 120.822 46.3125 117.605 46.2484L117.582 46.2474L117.561 46.2484C116.931 46.2728 116.677 46.274 116.217 46.2162C116.196 46.1227 116.174 46.0089 116.157 45.8734C116.11 45.4875 116.093 45.0007 116.095 44.4838C116.098 43.7436 116.143 42.9847 116.179 42.4457C116.265 42.4357 116.362 42.4282 116.471 42.4271C116.809 42.4239 117.098 42.4582 117.513 42.476L117.7 42.4838L117.87 42.4017C117.87 42.4018 117.906 42.3861 117.997 42.3646C118.084 42.3443 118.199 42.3247 118.342 42.3051C118.629 42.2658 118.998 42.2343 119.432 42.2113C120.299 42.1653 121.383 42.1534 122.501 42.1595C124.283 42.1694 126.118 42.224 127.269 42.2582Z" fill="#323232" stroke="black" stroke-width="1.50426"/>
<path d="M46.9067 33.0167C47.4914 34.1348 47.4264 35.4799 47.104 36.8605C46.9041 36.9643 46.6868 36.9856 46.2778 36.9991L45.6138 37.0206C42.693 37.1049 39.2382 37.0413 36.1685 37.0304C36.2071 35.6919 36.1918 34.2734 36.1851 32.9532C38.4972 32.9716 40.8093 32.9686 43.1216 32.9396L45.689 32.8976C46.1798 32.8934 46.3493 32.8751 46.5405 32.8976C46.635 32.9087 46.7367 32.9314 46.9067 33.0167Z" fill="#323232" stroke="black" stroke-width="1.50426"/>
<path d="M127.231 27.7303C126.154 27.7459 124.313 27.7772 122.578 27.787C121.425 27.7935 120.296 27.7898 119.403 27.7655C118.955 27.7533 118.575 27.7366 118.284 27.7137C118.139 27.7023 118.023 27.6901 117.937 27.6776C117.84 27.6636 117.816 27.6535 117.831 27.6591L117.704 27.6141L117.57 27.6171C116.857 27.6277 116.608 27.645 116.174 27.5712C116.155 27.4423 116.138 27.2878 116.124 27.1083C116.094 26.7022 116.085 26.2256 116.09 25.7352C116.097 25.0157 116.135 24.2904 116.174 23.7557C116.26 23.7459 116.358 23.7391 116.47 23.7391C116.812 23.7394 117.094 23.7774 117.521 23.7997L117.553 23.8016L117.585 23.8007C120.802 23.6918 124.022 23.6771 127.24 23.7548L127.231 27.7303Z" fill="#323232" stroke="black" stroke-width="1.50426"/>
<path d="M28.4749 42.2456L28.5168 42.2407C28.8385 42.205 29.116 42.1927 29.344 42.2153C29.4098 42.2219 29.4666 42.2311 29.5159 42.2417C29.6638 43.4254 29.7687 45.1395 29.6887 46.3032C29.3847 46.3465 29.0601 46.3051 28.4709 46.2759L28.4524 46.2749L28.4338 46.2749L18.7327 46.2729L18.7463 42.2368C21.2767 42.2177 26.9195 42.2456 28.4329 42.2456L28.4749 42.2456Z" fill="#323232" stroke="black" stroke-width="1.50426"/>
<path d="M93.4924 36.9836L84.0657 37.0784C83.7658 37.0748 83.497 37.0817 83.2444 37.0432C83.0997 37.0211 83.034 36.9926 83.01 36.9807C82.3607 35.8192 82.4434 34.4755 82.6643 32.9973C82.7544 32.9698 82.8557 32.9536 82.9778 32.9436C83.1128 32.9326 83.2617 32.9302 83.4534 32.929C83.6379 32.9277 83.8572 32.9272 84.0959 32.9153L84.1077 32.9143L84.1204 32.9133C85.3977 32.8075 87.1976 32.8209 89.0657 32.8645C90.6057 32.9005 92.1941 32.9554 93.5139 32.9758L93.4924 36.9836Z" fill="#323232" stroke="black" stroke-width="1.50426"/>
<path d="M29.6663 25.8091C29.6787 26.3311 29.679 26.8373 29.6575 27.2505C29.6507 27.3807 29.6406 27.4976 29.6301 27.6001C29.2663 27.6435 29.0323 27.6346 28.4661 27.606L28.4104 27.603L28.3557 27.6089C25.9454 27.8434 21.6302 27.7493 18.7278 27.7192L18.7317 23.7437L28.4055 23.7017C28.7907 23.7119 29.0376 23.6942 29.3567 23.7183C29.4384 23.7244 29.5071 23.7331 29.5647 23.7427C29.603 24.2627 29.648 25.0399 29.6663 25.8091Z" fill="#323232" stroke="black" stroke-width="1.50426"/>
<path d="M77.2668 46.2993C76.136 46.2826 74.3928 46.2555 72.6887 46.2544C71.6163 46.2537 70.5501 46.2636 69.6506 46.2944C68.8581 46.3216 68.1459 46.3662 67.6741 46.4448C67.5351 46.4107 67.4186 46.319 67.3098 46.1089C67.1659 45.8309 67.0758 45.4055 67.0618 44.8813C67.0481 44.3684 67.1092 43.821 67.2161 43.3442C67.2859 43.0328 67.3713 42.7822 67.4495 42.6001L68.1829 42.4692L68.217 42.4624L68.2493 42.4536L68.4407 42.4058C69.4458 42.1783 71.164 42.1153 72.9954 42.1284C74.5604 42.1396 76.1031 42.2004 77.2336 42.2388C77.2635 43.6084 77.2931 44.9498 77.2668 46.2993Z" fill="#323232" stroke="black" stroke-width="1.50426"/>
<path d="M77.2996 27.6747C76.2491 27.6775 74.4691 27.6781 72.7097 27.6854C71.5608 27.6902 70.4235 27.6989 69.5164 27.7137C68.7843 27.7257 68.1549 27.7436 67.8025 27.7714L67.4373 27.6678C67.4286 27.6486 67.4172 27.6289 67.408 27.6063C67.3525 27.4704 67.2966 27.2938 67.2458 27.0839C67.1442 26.6632 67.0734 26.1497 67.0583 25.6395C67.0432 25.124 67.0865 24.6513 67.1863 24.2958C67.2556 24.0486 67.335 23.9224 67.3894 23.8593L68.5574 23.7538C71.3861 23.6276 74.3913 23.6869 77.282 23.7333L77.2996 27.6747Z" fill="#323232" stroke="black" stroke-width="1.50426"/>
<path d="M77.2031 37.0267C76.2107 37.0346 74.5781 37.0489 72.9746 37.0482C71.9105 37.0478 70.8684 37.0409 70.0488 37.0219C69.6385 37.0123 69.2899 36.9996 69.0244 36.9838C68.8914 36.9758 68.7847 36.9679 68.7051 36.9594C68.6148 36.9496 68.592 36.9428 68.6064 36.9467L68.5381 36.9281L68.4668 36.9232L67.8965 36.8793C67.8344 36.8094 67.7469 36.6774 67.665 36.434C67.5477 36.085 67.4774 35.6236 67.4561 35.1146C67.435 34.6109 67.4636 34.0935 67.5273 33.6469C67.5625 33.4006 67.607 33.1937 67.6514 33.0306L68.0918 32.9515L77.2012 32.9222L77.2031 37.0267Z" fill="#323232" stroke="black" stroke-width="1.50426"/>
<path d="M110.701 46.2852L101.746 46.2695C101.767 45.7339 101.79 45.1211 101.794 44.5264C101.798 43.8236 101.777 43.0783 101.679 42.4385C102.064 42.365 102.545 42.3072 103.108 42.2656C103.986 42.2007 105.003 42.1799 106.043 42.1836C107.754 42.1897 109.49 42.262 110.728 42.3125L110.701 46.2852Z" fill="#323232" stroke="black" stroke-width="1.50426"/>
<path d="M110.709 27.677C107.735 27.7395 104.76 27.7615 101.785 27.7444L101.787 23.719C104.768 23.6995 107.749 23.7164 110.73 23.7698L110.709 27.677Z" fill="#323232" stroke="black" stroke-width="1.50426"/>
<path d="M29.24 32.8606C29.2552 34.2904 29.2381 35.7639 29.2283 37.2161L18.7703 37.2454C18.7329 35.8138 18.7602 34.2454 18.7712 32.7668C22.2607 32.8433 25.7503 32.8752 29.24 32.8606Z" fill="#323232" stroke="black" stroke-width="1.50426"/>
<path d="M125.99 32.9243C126.009 34.277 125.983 35.636 125.96 37.0073L117.254 37.0435C117.24 35.6529 117.286 34.2504 117.327 32.8364C120.094 33.0181 123.237 32.9544 125.99 32.9243Z" fill="#323232" stroke="black" stroke-width="1.50426"/>
<path d="M109.82 32.9808C109.802 34.3236 109.808 35.7104 109.808 37.0433L101.065 36.9867C101.01 35.8029 101.028 34.2018 101.035 32.9291L109.82 32.9808Z" fill="#323232" stroke="black" stroke-width="1.50426"/>
<path d="M77.9988 60.239C78.1005 60.8865 78.156 61.4692 78.1326 61.9509C78.0816 61.9639 78.0238 61.9783 77.9587 61.9919C77.6422 62.0582 77.2138 62.1169 76.698 62.1658C75.6695 62.2631 74.3561 62.3149 73.03 62.3181C71.7043 62.3214 70.3833 62.2767 69.3386 62.1863C68.8149 62.1409 68.3747 62.0848 68.0437 62.0212C67.9878 62.0105 67.9364 61.9986 67.8894 61.988C67.9042 61.5158 67.9621 60.824 68.0652 59.9744C68.2072 58.8039 68.4224 57.401 68.6726 56.0095C68.9229 54.6173 69.2069 53.2461 69.4871 52.1355C69.6273 51.5796 69.7645 51.0972 69.8933 50.7146C69.9574 50.5244 70.0157 50.3712 70.0662 50.2517C71.6877 50.0379 74.2131 50.0957 75.8806 50.2029C75.9504 50.2575 75.9892 50.2948 76.0115 50.3201C76.0356 50.3475 76.0487 50.3679 76.0681 50.4187C76.1052 50.5155 76.116 50.5724 76.1892 50.7976C76.2425 50.9617 76.3133 51.1562 76.4197 51.3923C76.5808 52.9976 77.2844 56.3157 77.5593 57.8132C77.6198 58.1903 77.6992 58.5992 77.7771 59.0056C77.856 59.4171 77.9347 59.8311 77.9988 60.239Z" fill="#323232" stroke="black" stroke-width="1.50426"/>
</svg>
