<svg xmlns="http://www.w3.org/2000/svg" width="598" height="244" fill="none"><g clip-path="url(#a)"><path fill="#000" d="M510 190V54l11-30 1-10h12l1 9c2 11 9 27 13 37v123l-14 37v9h-14l1-9-11-30Zm15-3-8 2 6 16 1 5 1-23Zm14-2-4 1-2 13c2-2 5-11 6-14Zm0-128-5-11v1l2 11h3v-1Zm-13-17-1-7-6 19-1 2c1 2 5 2 8 2V40Z"/><path fill="#696E72" d="m532 186-3 36-3 1 1-17v-19l5-1ZM533 55v2h-5l-1-34 1-2h1l2 13 2 21Z"/><path fill="#4F5357" d="M546 59h-4c-5-10-10-25-10-36l4 10 10 26ZM545 184l-14 37 2-14 8-22 4-1ZM525 217l-1 6-10-29c-1-2-2-3-1-4l2-1c2 2 4 11 5 14l5 14ZM525 26c0 5-4 11-5 17-2 3-2 8-5 11h-2v-1l9-25 2-5 1 3Z"/><path fill="#FF5757" d="M533 17v2h-4l-5 1-1-3h10ZM532 224v2c-3 2-8 1-11 0l1-2h10Z"/><path fill="#FF5757" fill-rule="evenodd" d="m546 63-33-6v7l33 5v-6ZM546 181l-33 5v-6l33-6v7ZM546 72l-33-5v6l33 5v-6ZM546 172l-33 5v-6l33-6v7ZM546 81l-33-5v6l33 6v-7ZM546 163l-33 5v-7l33-5v7Z" clip-rule="evenodd"/><path fill="#000" d="M597 93c1 4 1 10-2 13h-6v31c2 0 5-1 6 1 3 5 2 12 2 17-1 7-5 6-11 4l-5 9-6 4a1639 1639 0 0 1-82 14l-25 5c-5 1-11 1-15 3-5 6-8 7-13 0-7 0-28 5-37 6l-71 14c-19 3-38 8-57 8-11 0-16-3-26-7l-31-12c-16-7-20-8-32-21l-9 1-3 5-1 12c-3 8-15 17-21 24v10l1 3v4c-1 3-27 4-30 0l-1-15c-4-6-14-14-19-19-6-6-6-8-6-17l-3-5-13-1c-11 0-16 0-18-12H49l4 15c1 3 6 5 5 9-3 3-6 2-9 0-8-4-10-15-12-22l-35-1c-2-2-2-8 0-10 1-2 6-1 8-1h18c-1-7 1-4 6-8 2-5-2-8-2-12l1-48 2-4-6-3-1-4c-2-3-21 0-26-2-2-2-2-8-1-10l3-2 34 1c1-7 3-16 8-21 3-3 9-6 13-3l-7 13-3 12 14 1c1-12 7-12 18-13h13c1-3 1-3 4-5l2-13c5-7 16-16 22-23V2c6-3 28-2 31 0v4l-1 2v12l14 14c8 8 7 10 7 21l3 6h9l9-8c9-7 27-14 37-18 8-3 32-13 38-14 22-1 52 8 74 12l60 11c9 2 29 6 37 5 5-5 8-5 12 1l41 7 37 6 30 5c17 3 18 2 26 17 10-3 10-2 11 8ZM159 196l-1-7-3-6h-15v11l-2 2 1 14 1 12c3 1 18-17 20-20l-1-6Zm103 13c-4-8-14-24-19-30-10-4-13-7-23-2l-7 3-6 3 5 5c8 3 44 21 50 21ZM123 34l3-8-16 17 1 12 2 4 3-1 7-24ZM63 81H49v5l3 1 11 2v-8Zm355-9-35 6-22 5c7 4 10 8 12 16v3l12-4c3 0 9-1 11 3 0 3-4 3-7 4l4 12h25V72ZM63 154l-14 4v4l14 1v-9Zm0-59-15-3v60l15-4V95Zm334 96-110-10h-7v19c0 10 2 11 12 10l41-7 40-7 24-5ZM264 83l4-2v-5l-7 1h-2c-3 2-5 2-7 6-2 5-1 13-2 18v7c1-6 2-12 5-17l4-5 5-3Zm5 96h-12l7 12 5 7v-19Zm-146 30c-1-5-6-22-8-23l-2-1v1l-2 4v13l15 15-1-2-2-6v-1Zm78-143-1-2c-3 0-5 3-7 5l7 1 1-4Zm216 65v-4l-23-1-5 12c3 1 6 1 8 3 0 5-20 5-21 2l-2-1c-3 8-2 11-9 17l-4 2 56 10v-40ZM159 42c-3-4-15-19-19-22l-1 21c-1 5-1 7 1 13v6h14c2-8 6-7 5-18ZM79 172v-12l-2 5c0 2-2 8 1 8h1v-1Zm50-9h-7v4l6-2 1-2Zm269 15-17-4-21-5-48-3c-8-1-17 1-26-1h-6l1 3 16 2 30 2 50 5c4 0 18 2 21 1ZM79 71h-1c-2 2 0 7 0 10l1 1V71Zm0 35v-7c0-2-3-3-4-2l-1 15v34l4-1c2-4 1-33 1-39Zm50 37h-10v13h10v-13Zm-1-57c-3 0-19 2-14-6 3-2 11-1 15-1-12-5-21-7-34-8v19c0 4-1 24 1 26l3 3h8c0-3-1-20 2-21 5-3 14-1 18-7 1-3 2-2 1-5Zm266-33-71-14-33-6-9 1c-2 2-2 5-2 8v21l78-7 26-2 11-1ZM115 168l-1-10-1-15-5-2c-2-4-1-11-1-16-3 0-7 0-9 2l-3 2v43c6-1 14-1 20-3v-1ZM268 45l-12 19h12V45Zm-5 115-2-2c-8-7-7-9-10-18v8c1 7 0 14 7 17v1l5 1h6l-1-5-5-2Zm64-83 22-2h10c5-1 42-9 44-11-13 1-25 3-38 3l-4 1-6 1-30 2-7 1-14 1h-3l-6 1-15 1v3l14-1h33Zm-66-42-34 13-15 7-6 6 11 4 7 3c4 2 16-2 19-6 4-6 15-20 18-27Z"/><path fill="#696E72" d="m584 85-5 4c-3-8-5-9-14-10l-26-5-37-6c-9-2-36-8-43-7-3 0-5 1-7 3l-1 5 1 29-1 53 1 24c0 3 3 6 6 7l25-3 40-7c16-3 33-5 49-9 4-1 6-5 7-8l5 4c-2 4-5 8-9 11-3 2-35 7-42 8l-63 11-23 3c-2 1-20-1-24-1l-58-5-97-9h-22l-19-5-34-6-24-3c-14 2-31 8-45 12l-5-4c12-6 26-9 38-14 9-3 8-7 8-15 0-11-2-22-1-33 2-21 2-20-16-27l-29-8c1-2 4-5 7-5 12 2 23 7 35 10l13 1 24-4c9-2 21-3 31-6 12-3 19-5 31-4h11l94-8 56-5 27-2 20 4 29 5 50 8 25 5c6 1 9 7 12 12Zm-321 75-2-2c-8-7-7-9-10-18v8c1 7 0 14 7 17v1l5 1h6l-1-5-5-2Zm64-83 22-2h10c5-1 42-9 44-11-13 1-25 3-38 3l-4 1-6 1-30 2-30 3-15 1v3l14-1h33Zm-63 6 4-2v-5l-7 1h-2c-3 2-5 2-7 6-2 5-1 13-2 18v7c1-6 2-12 5-17l4-5 5-3Zm154-11-35 6-22 5c7 4 10 8 12 16v3l12-4c3 0 9-1 11 3 0 3-4 3-7 4l4 12h25V72Zm-20 106-17-4-21-5-48-3c-8-1-17 1-26-1h-6l1 3 16 2 30 2 50 5c4 0 18 2 21 1Zm19-47v-4l-23-1-5 12c3 1 6 1 8 3 0 5-20 5-21 2l-2-1c-3 8-2 11-9 17l-4 2 56 10v-40Z"/><path fill="#000" d="m445 65-1 2a548 548 0 0 1 1 83l-1 26c0 4-1 5-4 7a3150 3150 0 0 0-134-11c-13 0-31-1-44-4-15-3-13-14-13-26l-1-39c0-6 0-20 4-25 2-2 6-3 9-3l26-3 57-5 70-5 23-2c3 0 6 2 8 5Zm-182 95-2-2c-8-7-7-9-10-18v8c1 7 0 14 7 17 0 0 2 2 5 2h6l-1-5-5-2Zm1-77 4-2v-5l-7 1h-2c-3 2-5 2-7 6-2 5-1 13-2 18v7c1-6 2-12 5-17l4-5 5-3Zm134 95-17-4-21-5-48-3c-8-1-17 1-26-1h-6l1 3 16 2 30 2 50 5c4 0 18 2 21 1Zm20-106-35 6-22 5c7 4 10 8 12 16v3l12-4c3 0 9-1 11 3 0 3-4 3-7 4l4 12h25V72Zm-91 5 22-2h10c5-1 42-9 44-11-13 1-25 3-38 3l-4 1-6 1-30 2a11516 11516 0 0 1-45 4v3l14-1h33Zm90 54v-4l-23-1-5 12c3 1 6 1 8 3 0 5-20 5-21 2l-2-1c-3 8-2 11-9 17l-4 2 56 10v-40Z"/><path fill="#3D5054" d="M372 113c1 11 2 33-5 41-4 6-13 8-19 9l-33 1c-17 0-41 2-55-9-6-5-7-18-8-25 0-11-1-33 7-41 11-11 39-10 54-10 13 0 26 0 39 2 17 4 20 17 20 32Z"/><path fill="#000" d="m355 85-1 2h-13c-15 1-32 2-47 6-3 1-7 3-8 7-3 9-4 33 0 43 4 13 42 11 54 13l15 1v1a302 302 0 0 1-59-5c-16-3-15-21-14-34 0-9 0-16 4-23-4-1-17-3-19-5h-1c4-1 16 2 20 4 5-4 9-5 15-6 18-2 36-4 54-4Z"/><path fill="#000" d="M287 147c-2 3-17 6-21 7v-1l21-6Z"/><path fill="#4F5357" d="m442 74 1 4v81c0 4 0 18-3 22-4 1-15 0-20-1V63l12-1c11-1 10 4 10 12Z"/><path fill="#696E72" d="M392 118c0 8-1 13-5 20l-9-2v-10l1-19 8-2 5 13Z"/><path fill="#4F5357" d="M418 63v7l-40 7-17 4c-5 1-10-2-15-3h-2l14-1c20-3 41-11 60-14ZM417 119v6l-23-1v-4l23-1Z"/><path fill="#696E72" d="M395 142c-4 4-17-1-21-2l1-3 10 3c3 0 6 0 10 2ZM394 100v1l-17 4h-4c1-3 13-5 16-5h5ZM377 108l-1 27h-2v-26l3-1Z"/><path fill="#4F5357" d="M278 164v3c-2 2-6 1-7 0v-4l7 1ZM277 75c1 5-2 4-7 6v-5l7-1Z"/><path fill="#000" d="M240 140v1c1 5 2 19-2 21-6 4-23-1-30-1l-28-5-3-3c-8-11-6-37-5-50 2-16 9-16 23-19l34-5c5 0 10 0 11 7v54Z"/><path fill="#4F5357" d="m427 193-16 4-118 22c-6 1-20 2-27 1l-21-9c-13-5-35-12-47-20-8-5-20-19-26-26l11 2c4 3 19 21 22 20-1-3-9-10-11-12h6l1 1c4 10 8 14 18 18 6 3 40 17 45 17l4 7 1-1c0-3-20-33-23-38h9c3 5 20 34 23 36v-1l-7-13v-21h7v23c0 7 3 9 10 9 11 0 21-3 32-5l84-15c3-1 19 1 23 1ZM427 50c-2 1-22 3-25 2l-91-17c-39-7-34-7-34 28l-7 1V41l8-12h-1c-2 1-11 15-13 18l-11 17h-9c4-4 8-11 11-16l15-25c21-1 58 9 79 13l78 14Z"/><path fill="#696E72" d="M130 67h-5c-4 2-5 2-9 6l-10-3c-12-1-24-2-36-1l-3-3v1c0 3 3 4 5 4v102l-3 1-3 3c-2-7-1-28-1-36V73c0-17 18-10 30-12l19 2c5 1 13 0 16 4Z"/><path fill="#B79377" d="m57 47-6 9c-4 9-4 20-4 29-3-1-6-1-7 2 0 3 3 4 6 4l-1 27 1 35c-3 0-6 1-6 5 2 2 4 2 7 1 0 11 0 23 7 33 1 1 2 2 1 3-2 2-8-2-9-4-3-4-6-13-7-18l-1-43c0-20-1-40 2-60 1-8 6-25 17-23Z"/><path fill="#696E72" d="M162 112v15l-6 6c-4 3-9 3-13 2-6-1-9-5-12-9-7-16 10-29 24-22 3 2 6 5 7 8Z"/><path fill="#000" d="M152 118a6 6 0 1 1-12 2 6 6 0 0 1 12-2Z"/><path fill="#4F5357" d="M150 118a4 4 0 1 1-7 2 4 4 0 0 1 7-2ZM268 23l-5 9c-11 3-22 9-33 13l-18 8c-4 2-8 10-11 10-1-3 2-3 4-6h-1c-4 1-17 16-21 20l-11 1 23-24c15-10 36-16 53-23l20-8Z"/><path fill="#696E72" d="M87 71v102h-5V70l5 1ZM129 176c0 6-10 3-15 4-7 2-44 5-47-1l1-1 2-2 37-3 9-2c5 5 7 7 13 5Z"/><path fill="#4F5357" d="M93 71v94c0 3 1 6-1 8l-3-1V72l4-1ZM172 188v13c-5 6-17 16-22 23l-1 12h-7c0-10 0-11 6-18l12-14c3-3 1-11 1-16h11ZM171 46v8h-11c4-17-3-18-13-30-2-2-4-3-5-6l-1-10c11-1 8 3 8 12 5 6 17 15 21 22l1 4ZM184 180h-1l-16 1h-39l3-2v-3c4-2 41-1 47-1l6 5ZM184 63l-6 5h-45l-1-2-3-4 55 1ZM130 233v1l-5-1-1-8c-3-5-13-13-17-17l-7-7-1-10v-1l9-1v14c9 13 19 12 22 30Z"/><path fill="#696E72" d="M137 236v1h-3l-15-50v-1l8-1 4 27 6 24Z"/><path fill="#4F5357" d="M130 10c-1 3-1 7-3 10-4 8-15 15-18 22l-1 12h-8l1-11c6-8 16-17 23-25 0-5-1-9 6-8Z"/><path fill="#696E72" d="M137 6c-1 5-4 12-4 17l-7 36-7-1 3-10c2-5 10-40 12-42h3Z"/><path fill="#4F5357" d="M37 72v8l-5-2-3 1c-3 2-20 0-25 0H3v-7h34Z"/><path fill="#8E979E" d="m595 92-1 13-14-3v-9c1-6 9-7 14-8l1 7ZM595 145c0 4 0 10-2 13-1 1-12-3-13-4-1-13 2-13 14-15l1 6Z"/><path fill="#4F5357" d="M37 166v6l-35-1 1-6v-1h25c4 4 5 3 8 0l1 2Z"/><path fill="#696E72" d="M587 106v32l-7 2v-36l7 2ZM163 95l-1 12c-8-9-20-9-29-2l-3 4 1-14h32ZM158 135v9h-27l-1-10v-6c7 10 17 12 28 7Z"/><path fill="#4F5357" d="M115 141h-1c-2 0-4 0-5-3-1-12 0-26 1-38 1-1 2-2 3-1l2 42ZM160 154l-23 1v-9h21c0 3 0 5 2 8ZM162 93h-26v-5l2-1c7 0 16-1 22 2l2 4Z"/><path fill="#2A2C2D" d="m137 21-2 28h-3c1-7 0-19 3-27l2-1ZM132 195h3c1 4 2 26 1 28-3-4-4-22-4-28Z"/><path fill="#696E72" d="M151 157c-11 4-14 4-26 4l-10-1 1-2h21l14-1Z"/><path fill="#4F5357" d="m223 69-10 3-10-4v-2l2-3 18 6Z"/><path fill="#FF5757" d="M150 3v4l-4-1h-8c-3-4-5 0-12-1h-1l-1-1 1-1h25Z"/><path fill="#4F5357" d="m223 173-17 8-2-1c0-3 0-4 3-5 5-4 10-3 16-2ZM63 78v1H49v-4l1-1h13v4Z"/><path fill="#2A2C2D" d="m176 70-2 3h-26l-5-1v-1l33-1Z"/><path fill="#696E72" d="M174 59v1h-17l-1-1 1-2c3-2 10-2 13-1l4 3Z"/><path fill="#FF5757" d="M151 237v3l-12 1c-2 0-13 1-14-1v-1l11 1c3 0 2-4 6-2 3 1 6 0 9-1Z"/><path fill="#4F5357" d="M63 165v5H49v-5h14Z"/><path fill="#696E72" d="m142 83-25 1-2-1 1-2c9 0 18-1 26 2Z"/><path fill="#B79377" d="m36 94-1 51v1c-2-6 0-26-1-33V96l2-2Z"/><path fill="#696E72" d="M129 98v1c-3 3-5 0-8 1-2 3-1 5-1 8l-4 1V98h13Z"/><path fill="#2A2C2D" d="M176 172h-34l12-2h20l2 2Z"/><path fill="#696E72" d="m129 109-1 7-11-2-1-2c3-2 10-3 13-3ZM128 127v5l-11-1v-3c3-2 7-2 11-1ZM163 136c0 4 1 15-2 16h-1c0-3-2-15 1-17l2 1Z"/><path fill="#4F5357" d="M79 149c1 9-3 12-4 22l-1-6c-1-9 1-10 5-16Z"/><path fill="#696E72" d="M63 92v1l-22-5 1-1c2-1 18 4 21 5ZM63 150v2c-2 2-16 5-20 6v-2c3-2 17-5 20-6ZM175 183l-2 2h-16v-2h18ZM111 184l-1 3H96v-2c2-1 13-2 15-1ZM110 57v2c-2 2-10 0-13 0l1-2c2-2 9-1 12 0Z"/><path fill="#FF5757" d="M129 141h-6v-7h5l1 7ZM128 124l-5 1v-8l5 1v6Z"/><path fill="#696E72" d="M120 124v1l-4 1v-9h4v7Z"/><path fill="#4F5357" d="m135 146-1 9-3 1v-9l4-1Z"/><path fill="#2A2C2D" d="M172 168h-16 1l12-3 3 3Z"/><path fill="#696E72" d="m121 134-1 7h-3v-7h4Z"/><path fill="#FF5757" d="m129 103-1 4-6 1v-6l7 1Z"/><path fill="#2A2C2D" d="m172 75-1 2c-3 2-10-1-13-1l-1-1h15Z"/><path fill="#FF5757" d="M139 9c0 3 1 8-1 11l-3 1 4-12Z"/><path fill="#696E72" d="M126 182c-3 4-10 2-13 1l-1-1h14Z"/><path fill="#FF5757" d="M34 159c0 3 0 4-2 6l-2-2v-1c0-2 0-4 2-5l2 2Z"/><path fill="#4F5357" d="M117 145v11h-1l-1-4 1-9 1 2Z"/><path fill="#696E72" d="M126 61v1c-2 1-12 0-15-1 3-2 12-1 15 0Z"/><path fill="#4F5357" d="M138 191v1c-2 1-7 1-8-1 2-2 7-2 8 0Z" opacity=".9"/><path fill="#FF5757" d="M203 175h-1c-2-3-2-2-5-3l-1-3h1l5 1c-1 3-1 3 1 5Z"/><path fill="#4F5357" d="M134 85v6c0 2 0 2-3 3l1-8 2-1Z"/><path fill="#FF5757" d="m34 81-1 5-3-1 1-5 3 1Z"/><path fill="#4F5357" d="M138 52v1h-8c1-3 6-3 8-1ZM107 121l-1 2h-8l1-2h8Z"/><path fill="#FF5757" d="m136 223 3 2v10l-3-12ZM201 72v2l-6 1v-3h6Z"/><path fill="#4F5357" d="M134 55v5l-3 1v-5l3-1ZM120 168l-2 1-1-1v-4l2-1 1 5Z"/><path fill="#FF5757" d="m193 168-1 4-3-2-1-2h5Z"/><path fill="#4F5357" d="M134 183v4h-3v-3l3-1Z" opacity=".9"/><path fill="#FF5757" d="M129 91v4l-5 1 5-5ZM192 75l-5 1v-1l3-2c2 0 1 0 2 2Z"/><path fill="#8E979E" d="M450 195c-2 2-3 2-6 1l-1-1h7Z"/><path fill="#FF5757" d="m131 7-1 2h-5V8l6-1Z"/><path fill="#4F5357" d="m96 119-1 7v-8h1v1Z"/><path fill="#8E979E" d="m450 49-7-1c3-1 4-1 7 1Z"/><path fill="#4F5357" d="M138 55c0 2 1 5-1 6-1-3-1-4 1-6Z"/><path fill="#474547" d="M147 85h-1l-7 1v-1h8Z"/><path fill="#2A2C2D" d="m136 163-6 1 1-1h5Z"/><path fill="#4F5357" d="M138 183c0 2 1 4-1 5v-4l1-1Z" opacity=".9"/><path fill="#FF5757" d="M131 236h-7 7Z"/><path fill="#4F5357" d="M337 166h-1 1ZM337 166h-1 1ZM418 180h-3c-23-4-45-12-66-13l-12-1v-1l14-1c11-2 18 1 29 3l36 6 1 1 1 6ZM75 77c3 8 5 9 4 18l-5-8V73l1 1v3Z"/><mask id="b" width="126" height="117" x="452" y="63" maskUnits="userSpaceOnUse" style="mask-type:alpha"><path fill="#FDFDFD" d="m577 100 1 1-1 54-2 4-7 3-98 17c-3 1-12 2-14 0-3-3-2-13-2-17v-20l-1-69c0-4 0-10 6-10l34 5 42 7 31 5c13 3 10 9 11 20Z"/></mask><g fill-rule="evenodd" clip-rule="evenodd" mask="url(#b)"><path fill="#B79377" d="m577 19 2 202-214 3-2-202 214-3Z"/><path fill="#957A51" d="M487 222c-3-9-3-20-2-29 2-9-7-11-5-19 1-9-1-17-1-25 4-7-8-14-8-4 1 8 2 16-5 21 0 3-1 10-4 4-1-3 3-14-3-8-6 8 1 17 2 26 3 9-6 0-5-4-2-3-1-11-6-6-2 5-1 17-7 17-6-7-1-16 1-22 1-9-10-13-12-22-5-6-11 2-5 6-5 4-5-8-8-9-3 5 0 20-9 15-10-6-1-15-1-23 2-8-2-17-2-23 2-7 7-12 11-18 7-4 12-12 12-19 4-5 7-22-2-19-4 5-5 22-15 17-1-8-1-17 2-25 2-7 11-7 16-12 12-2 1 15 13 15 3 1 12 6 8-2-3-4-11-10-1-13 5-5 11 2 15-5 2-3 17-10 6-11-7 4-17 0-24 2-6 1-10 14-17 5-5-2-7-5-5-11h-20c-3 11-15 0-20 7-5 5-5 15-12 19-8 4-6 13-8 21 0 5-3 5-3 13l1 43c4-6 1-14 4-21 2 4-2 14 2 19 4 10 6-7 4-11-2-7 0-16 6-21 3-8 18-15 17-1-1 5-1 17-6 19 2-6 4-21-7-15-10 5-5 17-7 25-4 8-2 16 3 23 1 5-1 12 2 16-3-1-8-11-9-1 1 7 5 15 7 23-2 6-6 17 4 18 3 3 11 18 11 6-1-7 0-15 1-21 6 5 6 13 6 20 4 7 4 17 11 21h19c0-8 8-3 11 0l44-1Z"/><path fill="#957A51" d="M506 40c-1 3-4 5-2 8 0 2 3 9-1 7 0-3-4 1-5 2 1 3 2 7 1 10-1 4 4 6 5 10l-1 11c0 4 2 8 0 11 1 4-5 9-6 4 2-4 1-7 1-11 0-2-1-7-4-5-1 4 1 9-2 12-4 3 2 6 4 9s1 7 2 10c2 3 0 10-4 7l-4-11c-1-3 0-7-2-10-2-2-3-5-6-3-4 1-1 8-6 9-3-3-3-8-4-11V88c1-4-1-8-5-6-4 0-3 9-7 7s-6-6-5-10c-1-4-9 4-8-1 2-3 0-7 1-11-2-3 0-8 4-6 2 2-1 9 4 8l-1-9c-2-3 3-8 6-5 3 0 7-6 9-2 4 4-2-2 2-3 3-1 6 1 10 1 3-4 6 0 8 3 3 1-1-5 1-7s1-2 0-4c2-4 9 1 7-4-3-4 2-8 5-4 1 1 3 3 3 5Zm72 52c-6 0-6-6-6-10 6-7-5-12-7-18 0-3-2-7-6-4-6-2-6-11-8-16-1-8-3-15-7-21-5-4-13-1-19 0-4 1-1 10-8 9-8 2 1 10 2 15 3 7-7 13 0 18 3 6 0 13 5 18 2 8 1 16 2 24-1 6 0 11 1 17l3 18c4 6-8 11-1 16 8 2 8 12 9 18s-2 15 4 18c7 3 9-6 9-11 0-6-5-11-4-17s-6-13-2-17c4 0 7 10 8 2 1-6-5-13-1-20 7-3 9 10 9 15 1 8-3 15-2 23 0 3-2 14 3 7 6 0 3-8 8-10-2-5-1-12 6-7 2-6-4-13-3-20-2-6 1-11 5-12V92Zm-16-3-6 14c-4 5 1 12-1 18-5 4-3-8-3-11-1-6-2-13-1-19 4-4 3-10 5-14 6-3 3 9 6 12Z"/><path fill="#C6AA94" d="m480 124-3-2-6 2-1 1c-1 1-2-2-3-3-1-2-4-3-5-6l2-6c0-1 0-4-2-4-1-1-4-1-2 1 2 1 2 6-1 5-2 0-1-3-2-5-1-1-3-2-2 0l-2 5c1 1 3 3 2 4-2 1-2 5-4 4s-4-3-6-2l2 4 4 4c0 2 3 3 2 5-1 1 0 2 1 1l1-5c0-2 3-3 3-4 1-1 0-4 2-2l3 4c2 1 4 2 3 4l2 6-2 5c-3 2-6 3-9 2l-5-3c-1-2-4-3-3 0l2 4 4 3-4 2c-1 1 2 4 1 4 0 1-1-2-3-1s2 4 5 6 4 0 6-1c1-1 1-2 2 0 2 1 1 5 3 6s3-5 3-9c-1-4-4-6-3-8l3-1 4-5c1-2-1-5 1-7l2-4c1-2 2-3 4-3l1-1Zm97-99c-3-6-2 3-9 3-3 3 2 2 3 3 2 12-7-5-13 1-2 3 1 7 4 6s6 2 4 5c2 2 3-5 6-5 5 0 2 3 1 6-2 3-9 5-6 8 3 2 8-5 8-2 0 5-5 11-7 14-1 2-4 10-5 7-3-4-14-11-16-7-2 3-4 10 2 9 4 0 0-7 4-5 3 3 8 5 8 9 0 5 4 7 6 10 1 3 1 8-4 10-4-1-4 3-1 5 4 2 8-1 8-6 0-4 2-4 8-1v-8c-6 2-6 5-6-19l2-8c0-2 3-6 3 0V25Zm-29 57c0-6-3-2-5 2-1 5 0 12 2 17 2 8-9 8-8 0 0-4-7-13-9-7-1 2-3 7-2 2 0-7-2-13-3-20 0-11-1-23 1-34 1-6-3-13-8-16-7-3-3 7-2 10 2 5 4 10 3 16-2 6-6 12-7 19-1 6 1 13 4 17 2 4 3 7-2 7s2 11-5 12c-6 0-9-4-10-8-2-5-10-5-11 0-1 4-6 14 1 13s10 5 13 9c5 6 2 12-1 16s0 5-1 9c-1 5 4-2 6-3 5-2 3-9 5-14 1-3 3-12 6-7 3 4 0 11-3 15-1 4-3 9 3 8l9-2c5-1 1-13 2-19s3 5 6 0c2-2 1-10 5-6 4 5 6 12 4 18-1 5-6-8-6-1 0 5 2 10 1 14-1 3 0 12 3 8 3-3-3-12-1-15 3-3 6-5 6-11-1-3-1-13 2-13 1-1 6 4 4-1-3-8-1-15-1-24 0-3-2-8-1-11Zm4 116-2 3h-3l-3-4-1-4v-5l-1-3v-5l-1-6 1-3h2v4l1 5 1 3 1 4 1 5c1 2 3 3 3 6h1Zm-17-16c0 1-1 3-3 3h-5c0 3-3 1-2-1 0-2-3-1-2 1-1 2 0 4 1 4 2 0 4-2 5 0 0 2-3 2-4 3l-1 4-2 6c-1 1 0 5-3 4l-5-2-5-4-6-6c-1-2-3-2-4 0l-5 7c-1 2-2 0-1 0l2-6 3-6 1-6v-6l1-5c3-1 4 2 5 3l4 5c1 2 2 0 1-1 1-3-1-5 1-7 1-1 3 0 4 2l2 6c0 1 0 5 2 4 2 0 3-2 3-4 0-1 0-5 2-4 0 1 0 4 2 4l4-2c2-1 4 0 5 2v2Zm-78-88c2-6-2-11-5-16-2-4-6-7-7-12s6-8 4-13c0-4-5-5-8-2-3 2-7 5-8 10-1 2-5 4-4 8 0 4 1 8-1 12-2 5-6 8-11 10-3 2-9 2-9 6 2 2 4 6 1 8-3 7-7 13-5 20 2 5 6-2 7-4 1-4 1 3 1 4l-1 14c-1 5 6 3 8 1 3-5-1-10-1-15-1-6 3-12 7-17 1-3 4-2 5 1 2 4 5-3 5-5-2-4-1-7 0-11 2-2 3-8 6-7 5 2 4 7 2 10-1 4 5 1 5-2 0-2-1-8 2-6 3 3-1 7-2 11 2 3 5-5 5-6 1-4 2-2 2 1h2Zm9 113c0-2 0-2-2-2-2 2-6 1-7 4-2 3-6 5-9 3-4-1-5-5-7-8-1-3-5-5-5-9-2-4 2-7 5-9 4-2 9 2 11 4 2 1 7 4 5 1-2-4 0-7 3-6s6-2 1-2c-4 0-8-3-12-5l-8-9-5-10c-2-4-7-5-10-3l-10 10c-2 2-4 6-3 8 5-1 7-5 9-9 2-3 7-7 8-2 0 5-3 8-4 11-2 2-3 7 1 4 2-1 4-9 7-4 0 4-2 8-4 11-2 4-2 9-5 12l-11 12c-5 4-6 9-3 14h16c-3-5 0-11-1-17 0-5 6-2 8 0 7 5 9 12 11 17h6c-3-6 8-9 11-11 2 0 4-3 4-5Z"/><path fill="#17181F" d="m511 73-1-1 1 1Z" opacity=".6"/><path fill="#17181F" d="M524 177v1-1Z"/><path fill="#714B22" d="M483 54c1 1-1 3-3 3l-4-4c-1-1-3-3-4-1l3 4c1 1 2 2 1 4-1 1-3-1-4-2l-4-3-4 2c-1 1-2 3-4 3-2 1-1-2-2-3v2c0 1-3 0-2 2l2 5c0 2-3 0-3-1-1-1-1-4-2-3-2 0-3 2-5 3s-3 3-4 2l2-4 6-7 4-1 3-3c0-1-1-3 1-3l5-2 4-2 5 2h5l2 3c2 1 1 3 2 4Zm36 21c1 3-3 2-4 1l-4-3v4l-5 1c-2 0-5 0-7-2l-4-5c-1-1-4-1-4-3l-4-4c-1-1-1-4 1-4 2 1 5 0 4-2l-2-6v-6c0-1-3-4 0-4l6-1c2 0 2 2 0 2-1 0-4-1-2 1l4 1c-1 2-3 1-5 2v5c-1 2 0 4 1 5 1 2 2 1 3 0 2 1 2 4 4 3 1-2 3-4 5-2 0 2-4 1-3 3 0 3 3 3 4 2 2 0 4 0 4 2-1 2-3 0-4 1 2 1 4 0 6 2l6 6v1Zm5 70-1 3-4 1c-1 1 1 2 1 3-1 1-2 2-3 1-2 1-2-1-3-2l-2 1c1 1-1 3-2 2s-3-1-2 1l-1 4v3l1 4 3 3 1 2-4-4h-2c1 1 0 3-1 2v-5c1-1-1-2-1-4 1-1 0-2-1-3-1-2 0-3 1-4l3-3 2-3 3-3 4-1 3-2 5 2v2Zm-7-51-2 3-4-1v4l2 3-2 2-3 2h-5l-4-3-4-2c-1-1 1-1 2-1 1 1 3 1 3-1h1l4 4 3-1v-3l-3-2c-1-1-1-2-3-2-1-1-3-2-1-3l2 1 1-1 2 3h2c0-2 0-3-2-4l-3-2c0-2 2-1 3 0 2 0 3 1 4 3 1 1 2-1 2-2l-2-3-4-4c-1-1-3-2-2-4l3 3 2 2h1l-1-4v-3l3 4 2 6c2 1 3 3 3 5v1Zm-20 56c2 4-3 6-5 3-2-2-6-3-9-1 3 1 8 2 8 6 0 3 5 6 2 9-1 1-2 5-4 2-1-1-4-6-6-5 0 3 6 5 2 6 1 2 6 2 4 6l-3 11c-1 2-4-1-6-1-4-1-3-6-3-9-1-1-3-7-4-4 2 2 3 6 1 9-3 2-7-2-7-6 1-3-3-6-6-9l-12-8c-3-3-7-3-11-2 3 1 6 0 9 2 1 2 6 4 4 6s-8-2-8 2c3 3 8-1 10 2 1 2-3 3-2 6 1 5 3 0 2-2 2-3 6-2 9-2 2 2 5 5 4 8-1 2-7 1-3 3l10 4 8 5c3 1 6 2 7-1 4 0 1-6 5-7l-1-10c1-4 5-6 7-9 3-3 0-7 0-11l5-10c3-6-6-4-4-7 3-2 4-6 4-10s-3-7-6-8c-5-1 2 4-1 5-2 1-3 3 0 4s2 8-2 5l-7-6c-3-2-3-8-5-9 0 2 3 9-2 7-1 3 6 1 5 5-2 0-7 5-5 7 3-2 5-5 8-5 4 0 6 5 5 8-4 3-6-2-8-3-2 0 3 3-1 3-2-2-3 2 0 2 3-1 7 0 8 4l4 5Zm48-105c0 2-3 1-4 1s-3-1-4 1c0 1 0 3-2 3v8c0 2-2 3-3 4-2 1-2-2-1-3s2-1 1-3v-5c1-2-1-2-2-2-2 0-1-2 0-2-2-1-3 1-5 1s-4-2-5-3c-2-2-1-5-2-7l-3-4c-1-1-2-3 0-3 2-1 4-2 6-1l4 2v10c0 2 3 0 4 1 2 0 3-2 4-3l3-3c2 0 2 3 1 4l5 1c1 1 3 1 3 3Zm9 144 6 1v-2l1-5 1-3c1-1 1 1 2 2 0 0 1 2 2 1l-1-6-1-6-1-5c-1-1-1 1-1 1l-1 3-3-1h-4l-2-1 2 3 1 1-6-1v2h4l4 1-1 3-1 5c0 1 2 2 1 3 0 1-2 1-2 3v1Z"/><path fill="#522F09" d="m533 75 5-1 6 3 2 3-1 4v4l1 3-1 1-2-2-1-4 1-3c1 0 0-2-1-1l-3 1v-2l2-2-2 1-2 2v3h-2l-1-3 4-4-2-1h-3v-2Zm-3 75v1a12 12 0 0 0-1 2v1a32 32 0 0 0 0 1v2l1 1h1l1 1 1 1 1 1 1 1 1 1 1 1 1 1v1h-3a4 4 0 0 1-1 0l-1-1a5 5 0 0 1-1-1h-1v-1l-1-1h-1v-1l-1 1v2h-1v2l-1 1v1a3 3 0 0 1-1 1l-1 1a11 11 0 0 0-1 2h-1l-1 1v-3h1v-3h1v-2l1-1v-1a16 16 0 0 0 1-1v-1h1v-2l-1-1v-3l1-1v-2h1v-1a3 3 0 0 1 2-1h1Z"/><path fill="#714B22" d="M566 123h-5c-2-1-5-3-5 0l-2 6c0 1 1 5-1 3-2-1-2-4-1-6s0-4-1-5c-1-2-4 1-6 0-1-1-3-4-4-3-2 0-3 3-5 4-1 1-4 0-3 3l-1 6c0 3-3 3-3 0v-6l-7-1c-2 0-5 0-6-2-1-1 2 0 4-1l6-2c1-1 3-1 1-3l-7-7c-1-2-1-6 2-4l4 5 5 5h5c2 0 5 1 5-2v-7c0-2-1-4 2-5 1 0 4 0 5 2l-2 8-1 5c1 2 3 2 5 2l5-2c1-2 4-4 4-1 0 2-1 3 1 4 2 0 4 1 5 3l1 1Zm12 2-4-1h-4v2l1 2 2 1 2-1 3 1v-4Zm0 11-2 2c0 1 0 2 1 1h1v-3Z"/></g><mask id="c" width="67" height="80" x="172" y="81" maskUnits="userSpaceOnUse" style="mask-type:alpha"><path fill="#B79377" d="M239 143c0 4 0 14-3 17-6 3-45-5-52-6-15-2-12-41-10-53 1-6 4-12 11-13 9-1 44-10 51-6 3 4 2 26 2 32l1 29Z"/></mask><g fill-rule="evenodd" clip-rule="evenodd" mask="url(#c)"><path fill="#B79377" d="m326 19 3 201-218 3-2-201 217-3Z"/><path fill="#957A51" d="M235 222c-3-10-3-20-2-30 2-8-7-11-5-19 1-8-1-16-1-24 4-8-8-15-8-4 1 7 1 16-6 20 1 3 0 11-3 4-1-3 3-14-3-7-7 8 0 16 2 25 3 9-6 0-6-4-1-2 0-10-5-5-2 4-1 17-7 16-6-7-2-15 1-21 0-10-10-14-13-22-5-6-11 1-5 6-5 4-5-9-8-9-3 5 0 19-9 15-10-6-1-16-1-24 2-7-2-16-2-22 2-7 7-13 11-19 8-3 12-11 13-19 3-4 6-21-3-19-4 6-5 22-15 18-1-8-2-18 2-25 2-7 11-8 16-12 12-2 2 15 13 15 4 1 12 6 9-2-4-4-12-11-2-13 5-6 11 2 16-5 2-3 17-10 6-11-8 4-17 0-24 2-6 1-11 14-17 5-6-2-8-5-6-11h-20c-3 11-15 0-21 6-5 6-4 15-12 19-8 5-6 14-8 21 0 5-3 5-2 14v43c4-7 2-15 4-22 2 5-2 14 2 20 5 9 6-7 4-11-1-8 0-16 6-22 4-7 19-15 18-1-1 6-1 18-6 20 2-7 4-22-8-16-10 6-4 17-7 26-4 7-2 16 4 22 1 6-2 12 2 17-4-1-9-11-10-2l7 23c-2 6-6 17 5 18 2 3 11 18 10 6l1-20c7 4 7 12 7 19 3 7 4 17 11 21h19c0-8 8-3 11 0h45Z"/><path fill="#957A51" d="M254 39c-1 3-3 6-2 9 0 2 4 9 0 7-1-3-5 1-6 2 1 3 2 6 1 10 0 4 4 6 5 9l-1 12c0 3 2 7 0 11 1 4-4 8-6 3 2-3 1-7 1-10 1-3 0-8-4-6-1 4 1 9-2 12-4 4 2 6 4 9s1 7 2 11c2 3 1 10-3 7l-5-11-1-11c-3-1-4-4-7-2-4 0-1 8-6 8-3-2-3-7-4-11V87c1-3-1-7-5-5-4 0-3 9-8 6-3-2-5-6-5-10-1-4-8 5-8 0 2-3 1-7 2-11-3-3 0-8 3-6 2 2 0 8 4 8v-9c-2-4 3-8 6-6 3 0 6-5 9-1 4 4-3-3 1-4l11 2c3-5 6 0 8 2 3 1 0-5 2-6v-4c1-4 8 1 6-5-3-3 2-7 5-3 1 1 3 2 3 4Z"/><path fill="#C6AA94" d="m228 123-3-1c-2 0-5 0-6 2l-1 1c-2 0-2-3-3-4l-5-5c-1-2 2-4 2-6s0-4-2-5c-1 0-5 0-2 1 2 1 2 6-1 6s-1-4-2-5-3-2-3 0c1 1-2 3-1 4 0 2 3 4 1 5-1 1-1 4-3 3l-6-2c-2 1 1 4 2 4l3 4c1 2 4 3 3 5v1c2-1 1-3 2-5 0-2 2-2 3-4 0 0 0-3 1-2l4 4c1 2 3 3 3 5l2 6-3 4c-2 2-5 3-8 2l-5-3c-1-1-5-2-4 0l3 4 4 4-4 1c-2 1 1 4 1 5-1 0-1-2-4-1-2 1 2 4 6 6 3 1 4 0 5-1 2-1 2-2 3-1s1 6 3 6c2 1 3-4 2-9 0-3-3-5-2-8l2-1 5-4c1-2-1-5 1-7l2-5 4-3 1-1Zm69-42c0-5-4-2-5 3s0 11 1 17c2 7-8 7-7 0 0-4-8-14-9-8-1 3-3 7-3 2 1-6-1-13-2-19-1-12-1-23 1-34 1-7-3-13-8-16-7-3-4 6-2 10 1 5 3 10 2 15-1 7-6 12-7 19 0 6 1 13 4 18 3 3 4 7-2 7-5 0 3 10-5 11-5 1-8-4-10-8-2-5-10-5-11 0-1 4-6 14 1 13 7 0 10 5 14 10s2 11-2 16c-3 3 0 4-1 8-1 6 4-1 6-2 5-2 4-10 5-14 2-3 3-13 6-8 3 4 0 11-2 16-2 3-3 8 2 7l9-1c5-2 2-13 3-19s3 5 6 0c1-2 1-10 5-6s6 12 4 17c-1 5-6-8-6-1-1 5 2 10 1 15-1 3 0 12 3 8s-3-12-1-16c3-3 6-5 6-10-1-4-1-13 2-14 1 0 6 5 4-1-3-7-1-15-1-23 0-4-2-8-1-12Zm-92 12c1-5-2-11-5-15-2-4-7-7-8-12 0-5 7-8 5-13 0-5-6-5-8-3-4 2-8 6-8 10-2 3-6 4-5 8 0 4 1 9-1 13-2 5-6 8-11 10-3 1-9 2-9 6 2 2 4 5 1 8-3 6-7 13-5 20 2 4 6-2 7-5s1 3 1 4l-1 14c-2 5 6 4 8 1 3-5-1-10-1-14-1-7 3-12 7-17 1-3 4-2 5 0 2 5 6-2 5-5s-1-7 1-10c1-3 2-8 6-7 4 2 4 6 2 9-2 4 5 2 4-1 1-3-1-9 2-6 3 2-1 7-1 11 2 3 4-5 5-6 1-4 2-2 2 1l2-1Zm9 113c0-1 0-2-2-2-2 2-6 1-8 5-1 3-5 4-9 2-4 0-5-5-7-8-1-3-5-5-5-9-1-4 2-7 5-9 4-2 9 2 11 4 3 2 8 5 5 1-2-4 0-6 3-5 4 0 7-2 2-3-5 0-9-3-13-5-3-2-4-6-7-9s-4-6-5-10c-2-3-7-5-11-3-4 3-6 8-10 10-2 2-4 7-3 9 5-1 7-6 9-9s7-8 8-3c0 5-3 8-4 11s-3 7 1 4c2-1 4-8 7-3 0 3-1 7-4 11-2 3-2 8-5 11l-11 12c-5 5-6 9-4 14h17c-3-5 0-11-1-16 0-6 6-3 9 0 7 4 8 11 11 16h5c-3-5 8-8 12-11 2 0 4-3 4-5Z"/><path fill="#714B22" d="M172 157c0-1-7-2-9 1-1 3-2 6-5 8-3 1-6 3-8-1-1-4-4-6-3-10 1-3 3-8 7-8 2-1 8 1 7-1l-11-2c-5-1-6-5-9-8-3-2-6-5-10-5-3-2-6-4-9-3h-12v3c4 2 8-1 12 0 2 1 4 3 0 4-3 3-6-4-9-1l-3 4v3c3-3 5-4 7-3 4 1 8-1 12-2 3 1 5 3 5 6 0 2 4 5 3 5-2 0-6-2-8 0 1 2 8 1 6 3-2 1-6 3-6 5 2 2 6-3 7-2-1 2-5 8-1 6 2-2 5-3 6 0 4 2 1 7 3 10s3 8 8 7c6-1 7 5 6 9s0 9 1 13 2 9 4 11c3 2 3 4 5 3l1-6c2-3-4-3-3-12 0-8-5-15-4-21 1-5 3-8 4-9 2-2 7-6 6-7Z"/><path fill="#522F09" d="m173 117 1 2 1 3 3 1 4 1 4 1 2 2-3 1h-3l-4-1v9l-1 4h-1l-1-4v-9l-2-2-2-3 1-5h1Z"/><path fill="#714B22" d="M245 150c2 4-3 5-5 2-2-2-6-2-9-1 4 1 8 2 8 6 0 3 5 6 2 9-1 1-2 6-4 3-1-2-4-6-6-5 0 2 6 4 2 6 1 1 6 1 4 5-1 4-1 8-3 11-1 3-5 0-6-1-5-1-3-5-3-9-1-1-3-7-4-4 1 3 3 7 1 9-3 2-7-2-7-5 1-4-4-7-6-9l-13-8c-2-3-7-4-10-3 2 1 6 0 8 3 2 1 6 3 5 6-2 1-9-2-8 1 2 4 7-1 10 2 0 3-4 4-2 7 0 4 3-1 2-3 1-2 6-2 8-1 3 1 5 5 5 7-1 3-7 2-4 3l11 5c3 0 6 3 8 4 3 2 6 3 7 0 4 0 1-7 5-7l-1-11c1-4 5-6 7-9 4-3 0-7 0-10l6-10c2-7-6-4-4-7l4-10c0-4-4-7-7-8-5-2 2 4-1 5-2 1-3 3 0 3 3 2 2 9-2 6l-7-7c-3-2-3-7-5-8 0 2 3 8-2 6-1 3 6 2 6 5-3 1-8 5-6 7 3-2 5-5 8-4 4 0 6 4 5 7-4 3-5-1-8-3-2 0 3 4-1 3-2-1-3 2 0 2s7 1 8 4l4 6Z"/></g><path fill="#3D5054" stroke="#000" stroke-width="2.5" d="M56 116v19l2 11 3 8 8 5 9 2h27l23-1c9 0 17-3 22-8 3-2 5-7 6-11l1-12-1-20-2-10-3-8h-1c-5-5-13-7-22-8h-23c-11 0-21 0-32 3h-1c-7 2-11 6-13 11-3 6-3 12-3 19Z"/><path fill="#000" d="m71 91 1 1h10c13 1 27 1 39 4 3 1 5 3 6 6 3 9 4 30 2 39-4 12-35 10-45 13l-12 1v1c2 1 17-1 20-1 10-1 19-2 28-5 14-3 12-19 11-31 0-7 0-14-4-20 3-1 14-3 16-5-3-1-13 2-16 4-4-3-7-5-12-5-14-2-30-3-44-2Z"/><path fill="#000" d="M128 145c1 3 13 5 17 5l-1-1-16-4Z"/><path fill="#343231" stroke="#000" stroke-width="2.5" d="m398 157-1-69a4 4 0 1 0-9 1l1 68a4 4 0 0 0 9 0Z"/><path fill="#000" d="m424 104 14-2a2 2 0 0 1 1 2v34a2 2 0 0 1-1 2l-13-2a2 2 0 0 1-2-2v-30a2 2 0 0 1 1-2Z"/><path fill="#343231" stroke="#000" stroke-width="1.3" d="m437 168-13-3a2 2 0 0 1-1-1v-20a2 2 0 0 1 1-2l13 2a2 2 0 0 1 2 1v21a2 2 0 0 1-1 2 2 2 0 0 1-1 0Zm0-96-13 3a2 2 0 0 0-1 2v22a2 2 0 0 0 1 1l13-1a2 2 0 0 0 2-2V74a2 2 0 0 0-2-2Z"/></g><defs><clipPath id="a"><path fill="#fff" d="M598 0v244H0V0z"/></clipPath></defs></svg>