<svg xmlns="http://www.w3.org/2000/svg" width="598" height="244" fill="none"><g clip-path="url(#a)"><path fill="#000" d="M195 31c-4-3 3-10 6-8l6 4c1-4 3-7 8-7l4 3v-3l7-4h2l16 14c6-3 19-8 26-9l17 1c4-5 7-5 12-3l9-19h2l-2 20 19 4 9-19c1 1-1 18-1 21l20 3c2-4 8-16 11-19h1l-1 21 15 3c0-2 4-16 6-17l2 19 8 2v5c4 1 32 6 34 5 1-1 0-2 2-3l4-1c0-2 0-3 2-3s3 0 5-2c1-1 3 0 4 1 8 0 12 4 12 11l25 5c1-4 6-19 8-20l1 2v19l17 3c0-7 2-11 5-18l4-12c1-3 3-6 2-10v-5c3-1 10-2 13-1l1 12 7 21c3 7 6 11 6 19l9 2c1-3 9-17 11-18 2 2-2 16-2 19v1c2-1 2-3 4-2l1 2c8 3 10 5 14 14v1c4-1 10-3 11 2 1 6 3 16-2 20l-5-1v8c2 0 6 0 8 2l-8 3v19h5c3 2 3 9 3 12-1 11-1 12-11 9-5 8-7 13-15 15-1 0 0 2-2 3-2 0-2-3-4-2l5 19-14-17-9 1 1 6-3 5 1 13-4-7-6 18c-3 7-2 10-3 17l-14-1 1-7-2-8c-3-10-8-19-8-30l-36 6-15 3c0 3 0 6-3 9s-9 3-13 3l-2-1-5-1v-2c-4-2-5 0-5-5l-13 2c-1 1-1 2-3 1h-3l-1 6-16 3 2 3h-1l-2 1c0 2 2 4 0 5l-2-1c0 2 0 6-2 6l-2-1c-1 2-1 4-3 5l-2-2c-1 1-1 3-3 3s-2-1-2-2c-3 0-3 3-6 2v-3l-6 1c-1-1 0-2 1-3-2-1-6 0-6-3l2-1-4-3-18 3 3 4-3 1c0 2 2 2 1 4h-3v5c-1 1-2 0-3-1 0 2 0 5-2 5l-3-2-2 4h-1l-1-2c-2 2-4 5-5 1-2 0-3 3-5 2l-1-2c-2 0-2 2-4 1v-3h-5l1-3-5-1v-2l2-1-6-2c-7 2-7 2-12-4-15 1-21 1-35-5l-9-3-16 14h-2c-3 0-6-1-7-4l-1-3-3 3c-2 0-8-3-7-6l-1-1c-2 0-3 4-7 4-2 0-5-4-5-6v-2c4-5 10-9 15-13-6-3-12-6-18-11l-7-6h-8l-3 6-1 11c-2 8-16 18-22 25l2 17v1l-5 1h-22l-3-1-1-16c-5-7-13-13-19-19s-6-10-6-18c-2-1-3-3-3-5-7 0-22 1-27-3-3-2-4-6-4-10l-14 1 1 5h3l5 11-3 2 2 4v2l-1 1c-3 1-7-1-10-2l1 3-1 1-3-1v3l-2 2-1-2-3 4h-2v-3l-6 3-1-1 1-3h-6l-1-1 3-2-5-1-2-2 2-1-3-3v-3l2 1c1-2-1-5-1-6v-1l3 2 1-5 1-2 2 1 3-3h1l1 3 3-3h3v3h1v-5c-6 0-32 1-36-1l-1-3 1-7 3-1 10 1h14v-2c0-6 2-4 5-7l1-3v-1c-3-2-28 0-30-2 2-2 24-4 28-5v-39h-3l-7-1c-4-1-12-5-15-9v-1c2-1 22 1 26 1l1-3c0-3-4-3-5-5-2-1-1-2-1-4h-9c-3 0-15 1-17-2-2-1-1-2-2-4 0-2 0-4 2-6h35l2-7-19-7-5-2v-1l27 2 2-3c2-3 5-6 8-7l6 1-7 14-2 11 14 1c0-3 1-7 3-9 5-5 21-4 28-4l4-5 1-11c2-6 18-20 23-26V1l5-1h18l7 1v1l-1 7v10c5 5 19 18 21 23l1 13c2 1 2 4 3 6h9c8-8 15-12 25-17l-15-13Zm205 148-19-5c-20-5-41-6-61-7-2 1-7 2-9 1-2 0-2-1-3-2h-5l-1 1 4 4 11 1 19 2 43 4 21 1Zm-100-13-15 1-5-1c0 2 0 3 2 3l15 1 3-3v-1Zm-237-9-3-1c-3-1-8 1-12 3v3l1 1h13l1-6Zm355 5h-2c-2 2-1 5-3 6l-4 2 1 1 8 1v-10ZM540 58l-5-12c0 3 0 10 2 12l3 1v-1ZM63 81H48l1 5 2 1 12 2v-8Zm462 128 1-21-8 1 6 20 1 1v-1Zm1-167V32l-6 17c0 1-2 4-1 5l2 1 3 1c2-5 3-8 2-14ZM79 170l-1-7-1 4v7h1l1-2v-2Zm36-5-2-2H95v9c1 1 11 0 13-1l7-1v-5ZM59 94l-11-2-1 11v38l1 11h3l6-2v-1l-2-1c-1-4-2-7 0-11v-27l-2-4c0-2 0-6 2-7l2-1 2-4Zm359-16v-6l-38 7-19 4c9 6 10 9 13 19l7-3 6-1v-1c0-3-1-10 2-12l4-2 4 2 1 3v16l1 13h16v-1l-4-1 7-4V78ZM235 66l-16-15c-4 2-7 3-9 6l-4 4 20 8 9-2v-1ZM129 79l-14-5-20-3v11h18l4-3h12Zm269-14h-10l-3 4 16-4h2-5ZM125 217c-2-8-6-23-9-29l-3-3-2 4c-2 3-2 9-1 13 1 3 12 13 15 16v-1Zm4-54h-8v3l1 1h4l3-2v-2Zm106 13c-11-3-18 4-28 7l3 5 9 4c5-5 13-9 16-16Zm183-43-5-3-1-2 3-1-16-1v33l-1 3-5 1-3-1c-3-3-2-13-2-17-6 0-9-1-14-3l-3 9c-2 6-5 8-10 11l34 6 8 1 3-1c0-2 0-4 2-6l5-2 1-4 4-4v-19ZM159 42c-5-8-13-15-19-22a229 229 0 0 0-2 28l2 12h14c3-8 5-8 5-18Zm96 110-3-6-1 2 1 9c0 2 1 5 3 7v-12Zm14 28h-4l1 6v1c2-1 3-3 3-5v-2Zm0-17-3-2v6l1 1h2v-5Zm-1-118c-2 1-3 4-4 6l2 11v2h2V45ZM79 70l-3 2 2 8 1 1V70Zm189 6-2 1v6l2-2v-5Zm-7-41-10 3 3 2 2 3 5-8Zm118 17-6-4-6-1-10-2-16-3-8-1h-2l-2 1h-3l-1-3-23-4c-1 0-4 4-6 1l-1-2-6-1-9 1c-2 3-1 12-1 16v13l15-1 1-3c3-2 55-5 62-6l3 4 1-1v-3l3-3h2l1 2c3 1 2 0 3 3h8l1-3Zm16 139-30-3-61-5-9-1-4 1h-1l-4 3-6 1c0 5-1 14 1 19l1 4c4 3 25-1 31-3h2l2-3h4l2 1 45-8c3 0 3-4 7-3l1 2 18-4 1-1ZM384 51l2 1 1 2 8-1-9-2h-4l-1 1h2l1-1Zm-1 18-4-3-6 1-3 4h-2l-4-4c-8 2-17 2-25 3l-1 2h-6l-2-1-24 2-4 2c-2 0-2-2-3-2l-15 1-5 2v1h31c1-2 3-2 5-2h4l1 2 27-2h10l19-4 7-2ZM269 190l-1 1-2 3 1 3 2 1v-8Zm270-3-1-2-2 1c-2 3-2 9-2 13 2-1 5-10 5-12ZM255 85v-6c-4 4-4 11-5 16l1 5h1c2-4 3-11 3-15Zm7 124-5-8-3 3-2 2c2 1 7 4 10 3ZM201 65l-3-1-5 5 7 1 1-5Zm-76-39c-4 4-12 12-14 17l-1 6c0 3 0 6 2 9l1 1h3c2-5 9-29 9-33Zm35 171-1-8c-3-2-4-3-4-5h-15c0 2 1 9-1 11l-1 4v10l2 14c6-3 16-15 20-21v-5Z"/><path fill="#807B74" d="m238 55-1 2v2l-1 1-3 1c-8-5-15-12-22-18l-14-12-1-1v-1h1v1l3 1c4 0 3-4 4-5l10 9 24 20Z"/><path fill="#998E85" d="M237 57v2l-2-1-7-6-12-11-12-10c5 1 28 21 33 26Z"/><path fill="#64605B" d="M244 61c-2 3-4 4-8 5l-3-5 3-1 1-1v-2l1-2 6 6Z"/><path fill="#C4793F" d="M201 29Z"/><path fill="#64605B" d="M295 69h4v2l-8 1c-7 1-32 2-37 5l-4 6-1 11v60l2 8c3 4 6 5 10 6 8 3 17 3 26 4l11 1h-2l-5 2-3 2v2l-2-1-3 1-18-1h-19l-14-4c-9-2-57-11-64-10l-9 2-20 6c-3 1-14 5-16 3l-2-1-3-3 23-8c6-2 13-3 19-6l4-5c2-7 0-17 0-24v-15l1-17-2-5c0-2-1-3-3-3l-17-7-25-8 4-3 3-1c11 1 23 6 35 9l10 2c12 0 23-3 34-5l42-9h19l29-2 1 3v2Z"/><path fill="#807B74" d="m237 167-1 3c-7 1-26-3-34-5-3 0-24-3-29-6-4-4-5-8-5-13-2-13-5-48 4-59l2-1h-8a1013 1013 0 0 1-44-16c6 0 11 2 17 4 11 4 25 10 36 10l12-3 20-4c9-2 19-4 28-3-7 3-21 4-29 6l-16 3c-5 1-11 1-14 5-9 8-8 29-7 40 0 6 0 13 2 19l1 4 3 5 6 3 8 2 11 3 13 1 24 2Z"/><path fill="#000" d="m258 70-2 4c-1 1-9 9-11 9l-1-1-7-6-1-4 2-2c3-2 13-3 17-2l3 1v1Z"/><path fill="#807B74" d="m257 70-1 2-11 10c-2 0-3-3-5-4l-2-3v-5c4-1 14-2 17-1l2 1Z"/><path fill="#000" fill-rule="evenodd" d="m254 71-1-1 1 1v1l-1 1h-1l2-2Z" clip-rule="evenodd"/><path fill="#000" d="M257 172c0 1 0 3-2 4-3 2-9 0-12-1-2 0-5-1-6-3l-1-2 1-3 8-6h3l2 1 7 10Z"/><path fill="#807B74" d="m256 172-1 2-1 1c-3 1-11 0-14-2l-2-2c-1-1 0-3 1-4l3-2c1-1 3-3 5-3s7 7 9 10Z"/><path fill="#1D1C1B" d="M254 172v1h-2l2-1-2-1 2 1ZM248 164l-1 2v-2l-1-1 2 1ZM245 80l-1-2 1 1v-1h1l-1 2Z"/><path fill="#807B74" d="M243 154c2-11 0-21 0-31l1-21 1-13 1-2 1 1c1 3-1 16-1 20-1 12 1 24 1 36l-1 7c0 2 2 9 1 10h-2l-2-7ZM164 159l-3 3c-7 5-29 11-38 13l-2-1c4-3 13-5 18-6 8-3 16-7 25-9ZM295 67v2l-29 2-8 1v-3c11 0 26-4 37-2ZM262 173c5 0 25 0 29 2l-3 2c-8 0-18-1-26-4Z"/><path fill="#000" d="m241 146-1 11-2 6-9 1-19-3-19-3c-3 0-9-1-12-3l-2-3c-8-11-7-39-4-53 0-3 1-5 3-8l7-4c4-2 9-2 13-3l31-5c3 0 8 0 10 2l2 5c2 9 1 22 1 32l1 28Z"/><path fill="#BDAF97" fill-rule="evenodd" d="m212 108-1-1v-1h10c3 1 5 3 6 5l2 3c2 5 2 11 0 16-1 3-3 7-5 8-4 3-10 2-14 1l4-2h5-9v-1l-6 1-1 2h-3l-1-1c0-2 2-6-1-8h-1l1 2v1c-2 0-3-3-5-3h-3l-1-1v-1l-1-1v-6l1-3v-1l1-1h2v-1l2 1-2 1h5c4-3 1-6 2-9l3-2 2-1 1 2h3l4 2h5v-1h-5Z" clip-rule="evenodd"/><path fill="#000" d="m208 126 2 5v5l-6 1-2-3v-6l5-2v-1l1-1v2Z"/><path fill="#3F3E3C" d="m210 134-1 1-3 1h-2l-1-7 1-1 3-1 3 7Z"/><path fill="#000" d="m205 120-1-1-2-3 1-6 3-1 4 1c3 2-3 7-2 10l1 2-2-1-2-1Z"/><path fill="#3F3E3C" d="m210 111-2 6-2 2-3-1 1-7 2-1 4 1Z"/><path fill="#998E85" fill-rule="evenodd" d="m207 121 2 1 4-7 1 2h1l-1 4v10c-2-1-3-5-5-5h-1v-2l-1 1v1l-5 2v6l2 3 6-1v1h1l-2 2h-5l-1 2-3-2-1-1c0-2 2-6-1-8h-1l1 2v1c-2 0-3-3-5-3l-1-1 6 1h2c1-3 4-3 6-5l1-2-2-3 2 1Zm22 9c-1 3-3 7-5 8-4 3-10 2-14 1l4-2h5c5-1 7-4 10-7Z" clip-rule="evenodd"/><path fill="#000" d="m214 130-3-5 3 4v1Z"/><path fill="#1D1C1B" d="m194 116-2 1v4l-1 2 1 1v5l1 1h-3l-1-1v-1l-1-1v-6l1-3v-1l1-1h2v-1l2 1Z"/><path fill="#BDAF97" fill-rule="evenodd" d="m188 121 1-3h2l1 1-2 1 2 2-3 1 3 1-1 1-3 1v-5Z" clip-rule="evenodd"/><path fill="#BDAF97" d="m188 127 3-1 1 1v1h-3l-1-1Z"/><path fill="#998E85" d="M192 116v1h-3l1-1h2ZM192 129l1 1h-3l-1-1h3ZM212 108l-1-1v-1h10c3 1 5 3 6 5l-10-2v-1h-5Z"/><path fill="#000" d="m205 122-1 2-3 2h-4v-1l2-2-2-1v-2l8 2Z"/><path fill="#3F3E3C" d="m204 123-6 2 2-2-2-2h1l5 2Z"/><path fill="#64605B" fill-rule="evenodd" d="M188 90v-1l2-1 4 11h44v2h-42l-4-1c-2-3-2-9-4-10Zm51 11c-1 3-1 4-3 5h-12c-6-2-11-1-18 0l-2-2-6 2h-8l-5-12c0-1 1-4 3-4l4 11-2 5 3-5a1850 1850 0 0 0 46 0Z" clip-rule="evenodd"/><path fill="#64605B" d="m188 90 4 11-2 5-5-12c0-1 1-4 3-4Z"/><path fill="#64605B" fill-rule="evenodd" d="m188 154-3-3 4-13h8c2 1 2 3 5 4l5-1c8-1 12 3 19-3h10c1 2 3 2 3 4l-13 1h-33l-3-4v1h1l1 3c-2 2-4 9-4 11Zm51-11v2h-45c-1 3-3 10-5 11l-1-1c2-3 2-8 4-10l2-1 11-1h34Z" clip-rule="evenodd"/><path fill="#807B74" d="M239 146v5l-2 4-2-3-2-1-4 2v3l-1 1h-1l-2-4-2-1h-4l-1 4-1 1-1-1c-1 0 0-3-3-4h-3c-5 1-2 2-3 5h-2v-4h-1l-1-1h-4l-2 1 1 4-7-1 3-10h45ZM239 98v-5l-2-4-2 3-2 1-4-2v-3h-2l-2 3-2 2-4-1-1-4h-2c-1 0 0 3-3 4h-3c-5-1-2-2-3-4h-2v3h-1l-1 1-4 1-2-2 1-4-7 1 3 10h45Z"/><path fill="#3F3E3C" d="M185 118c1 5 1 12-1 17h-5c2-6 1-13 1-19l-2-15h5c3 5 1 12 2 17Z"/><path fill="#3F3E3C" d="M181 136v2c-1 2-6 1-8 1v-24l1-1 2-8c0-2 0-3-2-5h2c2 2 3 15 2 18h-3c-2 2-2 6-2 9 0 2 0 6 2 7l6 1Z"/><path fill="#64605B" d="M236 123v6l-1 3c-2 2-4 1-5 1l2-11-3-11h1l4 1c2 2 2 8 2 11Z"/><path fill="#3F3E3C" d="M238 125v12h-10l1-3c2 0 5 1 6-1 3-2 2-10 2-13v-1c0-2 0-6-2-8l-6-1-2-1h1l1-1h9v17ZM188 87c-4 4-6 8-8 12h-6l2-4c2-5 7-7 12-8ZM191 109v4l-3 3-1 5c-1-6 0-13-2-19l-3-3 2-4 5 12 2 2ZM190 133v2l-2 4-4 9v1h-1v-2c3-5-2-8-1-11l6-1 2-3v1Z"/><path fill="#64605B" fill-rule="evenodd" d="M179 125v2c0 2 0 6-2 8h-1l-1-4c-1-3-1-8 1-11h1l2 5Zm-2 3v-4h-1v6h1v-2Z" clip-rule="evenodd"/><path fill="#64605B" d="M182 140v5l-7-1-1-4h8Z"/><path fill="#786D66" fill-rule="evenodd" d="m198 154 1-1h3l2 1-4-1-2 1Zm5 0 2 5c-1 0-5 0-6-2l-1-2 2-1h3ZM198 90l1 1h3l2-1h-6Zm5-1 2-4-6 1-1 3h5ZM209 154l3-1 2 1v1l-4-1h-1Zm5 1 2 6c-1 0-5 0-6-2l-2-3 2-1h4ZM209 89v1l3 1 2-1v-1l-4 1-1-1Zm5 0 2-6-6 1-2 4 2 1h4ZM220 154l3-1 2 1v1l-4-1h-1Zm5 1 3 7-6-1-3-5 2-1h4ZM220 89v1l3 1 2-1v-1l-4 1-1-1Zm5 0 3-7-6 1-3 5 2 1h4ZM230 154v-1l3-1 2 1v1l-4-1-1 1Zm5 0c0 2 2 4 3 5-1 3-5 4-5 2l-4-6 2-1h4ZM230 90v1h3l2-1h-5Zm5 0 3-6c-1-2-5-3-5-1l-4 6 2 1h4Z" clip-rule="evenodd"/><path fill="#3F3E3C" d="M186 155h-3c-3-1-4-3-6-5l2-1 3 1 2 3 2 2ZM198 135l-1 1h-6l1-3 6 2Z"/><path fill="#64605B" d="M182 146v1l-2 2-4-1-1-1 1-1h6Z"/><path fill="#998E85" fill-rule="evenodd" d="m196 114 2-1-1 3v1h-5l2-1-2-1v-1h4Z" clip-rule="evenodd"/><path fill="#3F3E3C" d="M197 108v2l-3 1-2 2v-5h5Z"/><path fill="#64605B" d="M189 131h-1c0 2 0 3-2 4v-4l1-3 2 3ZM175 108v3l-2 2v-4l2-1ZM175 106v1l-1 1v-1l-1-3 1-1 1 3ZM220 161h-1l-2-3v-1l1 1 2 3ZM220 83h-1l-2 3h1l2-3ZM231 162h-1l-3-4h2l2 4ZM231 82h-1l-3 4h2l2-4ZM209 160h-1l-2-2v-1l1 1 2 2ZM209 84h-1l-2 2h1l2-2Z"/><path fill="#3F3E3C" d="m197 111-1 1-3 1 4-2Z"/><path fill="#807B74" d="M194 131v1h-2v-1h2Z"/><path fill="url(#b)" fill-rule="evenodd" d="m511 176-9 1-24 4-16 3-10-8a1141 1141 0 0 0 0-41c0-3 0-4 2-5l-1-1v-25l1-1-1-1-1-10V69l10-8 24 4-2 6 1 2c0 2-1 2-2 3-2 3 0 6 0 9l-1 2c-1 4-1 6 1 8 1 1-1 2-1 3v4h-1l-1-2 1 3c4-1 4 9 9 6 2 0 6 6 7 7l10 8c1 0 3 2 2 3h-7l-1 1 3 1 5-1v4l-2 3 2-1v1c0 2-2 1-3 3l5-2v1l-1 1c-2 1 0 3-1 5l-2 2 1 1h2l-3 3c1 0 3-2 4-1l-1 1-3 2 3-1v3l-3 2 3-1h1l1 2 2 2c2 7 5 9 9 14v1c-1 2-9 3-11 3v-2c0-4-2-16-1-18h-1v3l1 14v3Z" clip-rule="evenodd"/><path fill="#786D66" d="m486 65-2 6 1 2c0 2-1 2-2 3-2 3 0 6 0 9l-1 2c-1 4-1 6 1 8 1 1-1 2-1 3v4h-1l-1-2c-2 0-2 1-2 2l-2-1v-1l-1 1v2l-1 1h-2l-1 1h-1l-1-1-2-1h-3v1l-2-1c0 3-2 3-3 1v-1l-2-1h-1l-1-1-1 2-1-1-1-10V69l10-8 24 4Z"/><path fill="#000" d="m470 102-1 2-2-1h-3v1l-2-1-2-1h10ZM475 102v1l-1 1h-2l-1 1v-3h4ZM463 66h-4v1c0 2 2 1 3 2l-1 1-1-1-1-1v-2l1-1 3 1Z"/><path fill="#786D66" d="m502 177-24 4-16 3-10-8a1141 1141 0 0 0 0-41c0-3 0-4 2-5l-1-1v-25l1-1 1-2 1 1h1l2 1v1c-3 2-2 4-3 6-1 6-1 13 2 19h-1l-1 1h1c-2 4-2 7-2 11l22 15c8 2 10 4 18 9h-13l-25-6c-1 11 10 11 17 12l9 2 19 4Z"/><path fill="#000" d="m457 102 2 1h-3l1-1Z"/><path fill="#1D1C1B" d="m464 177-1 2-1 1-2-1v-2l1 2h2v-3l1 1Z"/><path fill="#64605B" fill-rule="evenodd" d="M536 137h-17c-1 0-9 1-8-2l1-4-1-1-1-6v-2h4l-1-1h-6l-3-2h29l1-1-30 1c-4-3-11-8-13-12l-1-1v-2l-2-10h48v43Zm0 0v13h-25v-3c0-3 2-3 0-5v-1l4-1h19c-1-1-22 1-23-1v-1l9-1h16Zm-41-41a2 2 0 1 0-3 2 2 2 0 0 0 3-2Zm36 0a2 2 0 1 0-3 2 2 2 0 0 0 3-2Z" clip-rule="evenodd"/><path fill="#64605B" d="M533 121h-26l-3-2h29v2Z"/><path fill="#1D1C1B" d="M533 121h2-1l-18 1h-2l-1-1h20ZM531 145v1h-2l1 1-1 1-1-1 1-2h2Z"/><path fill="#786D66" fill-rule="evenodd" d="M508 146h2l-3 3c1 0 3-2 4-1l-1 1-3 2h-1c-2-2-13-19-13-21l1-2v1h6v-2h2l-1 1 3 1 5-1v4l1-1 1 1-4 3 2-1v1c0 2-2 1-3 3l5-2v1l-1 1c-2 1 0 3-1 5l-2 2 3-1 1-1v1c0 2-2 1-3 2Z" clip-rule="evenodd"/><path fill="#1D1C1B" d="M509 130v2l-2 1s2-1 2-3ZM507 130v1l-2-1-1 1h-1l2-1h2Z"/><path fill="#998E85" d="M514 158c2 7 5 9 9 14v1c-1 2-9 3-11 3v-2c2-4 0-12 2-16Z"/><path fill="#000" d="M519 171v2h-2v-1h1l1-1-3-1h1l2 1Z"/><path fill="#786D66" fill-rule="evenodd" d="M511 156h-1v3c-1-2 0-3-3-4l3-1h1l1 2 2 2c-2 4 0 12-2 16 0-4-2-16-1-18Z" clip-rule="evenodd"/><path fill="#000" d="M465 129h1v1h-5l4-1ZM458 129l1 1h-3l1-1h1ZM478 102v1h-2v-2l2 1Z"/><path fill="#1D1C1B" d="m474 127 2 2v1h-7v1h-1v-4l1 2h6l-1-2ZM500 127v2h-6v-1l-2-3 2 3 6-1Z"/><path fill="#1D1C1B" fill-rule="evenodd" d="m478 129-3-3 3 2 5 1h-1l-3 1v2l-1-2v-1Z" clip-rule="evenodd"/><path fill="#807B74" d="M467 103v1h-3v-1h3Z"/><path fill="#1D1C1B" d="M510 171v1l-1 2-3 1v-1l1-2 3-1Z"/><path fill="#8E867F" d="M509 173a1 1 0 1 1-2 1 1 1 0 0 1 2-1Z"/><path fill="#1D1C1B" d="M492 128c0 2-4 2-4 2l1 1c-2 0-3-3-4-4l-2-1h1l3 3 5-1ZM487 132l-6-5c2 0 5 3 6 5Z"/><path fill="#664E40" d="M366 89c5 5 6 13 7 20l-1 31-3 12-4 2-4 2h-2v1l-13-1-7-2-20-1c-2-4-4-11-4-15 0-3 4-5-1-9v-12l2-4c0-2 0-3-2-4l5-18 1-2c2-2 28-2 33-2l2-1-3-1 2-4 9 5-7 1h8l2 2Z"/><path fill="#8A6150" fill-rule="evenodd" d="m365 154-4 2-2 1-16-2c5-1 14-4 19-3 4-18 9-33-2-51l-10-12h-5l6-1 12 1-5 1 2 1c14 6 9 17 9 30 0 9 0 25-4 33Z" clip-rule="evenodd"/><path fill="#564238" fill-rule="evenodd" d="m352 85-32 2 1-3v-5h16c7 0 11 0 17 2l9 5-7 1h8l2 2h-3l-12-1-19 2-13 1 1-2c2-2 28-2 33-2l2-1-3-1Z" clip-rule="evenodd"/><path fill="#664E40" d="M59 98c3-5 6-9 12-11 11-3 22-2 33-3h19c6 0 16 1 22 4 4 3 7 6 8 11l3 12c1 7 0 22-1 29l-3 9c-3 5-9 8-14 9-11 3-23 3-34 3-9 0-19 1-28-1-3 0-7-1-9-3-4-2-6-5-7-8l7-2 3 1 5-2h4c2 1 6 0 7-2l1-1h4c1 4 3 7 7 10a153 153 0 0 0 5 1l6-1c6-1 14-2 18-7l17 4-5-1c-4-2-7-3-11-3l3-8c1-10 0-27-2-35l-2-4 17-5h-5l-12 4-2-1c-7-4-14-5-21-5h-4l-2 1-10-2 7 2 2 1-5 10-3-1c-3 0-2-1-4-2-5-2-8 0-12-1-2 0-5-3-6-2l-2 1-6-1Z"/><path fill="#564238" d="M144 150c-6 2-10-1-16-1l-5 2c-8 3-22 6-29 4l9-1 6-1c6-1 14-2 18-7l17 4ZM91 143c1 4 3 7 7 10l-4 1v-1l-6-10h3ZM95 93l2 1-5 10-3-1 6-10ZM139 94l-12 4-2-1c5-1 9-4 14-3Z"/><path fill="#1D1C1B" d="m103 154-9 1H78l16-1 4-1 5 1ZM125 87H79l1-1h36l9 1ZM132 156v1l-15 1-12 1 27-3ZM82 158l-8-1c-3 0-5-3-7-6l6 5 9 2ZM153 128c0 5 0 13-4 17l4-17ZM81 91l-10 1-4 2 2-3h12ZM146 93l-2-2-7-2v-1l4 1c3 1 4 2 5 4ZM152 108v1l-3-10v-1c2 2 2 7 3 10ZM143 152v1c-1 2-5 2-8 3l8-4ZM149 147v2l-2 1 2-3Z"/><path fill="#664E40" d="M130 121c1 7 1 19-3 24-5 6-20 7-28 8-4-3-5-6-7-11l9-1v-5l-1-4-9 2v-9l1-12 8 2 2-9-9-1c1-5 3-9 6-12 6 0 22 2 26 6 5 4 5 16 5 22Z"/><path fill="#786D66" fill-rule="evenodd" d="m515 72 1-1h-2v-2l26 4 1 2v2h-1l4 1-1-1h7v24l-12-1c0-3 1-7-3-8h-21v-5l-2 1 1 1v3h-24v-4c-1-3 0-7 1-10l-1-4c3-2 3-4 3-6v-2l21 3v2l-1 1 1 1-3 1h3c1 2 0 3-1 4l2-1c-1-1 0-4 1-5Z" clip-rule="evenodd"/><path fill="#64605B" d="M513 90v2h-24v-4c0 2 1 2 2 2h22Z"/><path fill="#998E85" d="M516 71h-2v-2l26 4 1 2-22-3-3-1ZM492 68v-2l21 3v2l-21-3Z"/><path fill="#64605B" d="M514 89v1a1460 1460 0 0 0 0 2v-3Z"/><path fill="#000" d="M515 79c-2 2-2 4 0 6l-3 1h-1c2-1 2-3 2-5h-2v-1l4-1ZM544 80h-1l-1 6 2 1h-6l3-1v-6l-4-1 7 1ZM544 89l-2 1v5h-3l1-1h1v-4l-4-2 7 1ZM543 96l-2 3v-2l-1-1h-1 4Z"/><path fill="#807B74" fill-rule="evenodd" d="M581 141v4l-4 1v5l1 1 3 1c0 3-6 9-8 10l-6 1c0-3 1-3-1-7l-3-4 1-5-3-5 1-3h3v-1h-3c0-4-3-5-2-8 1-5 1-6-2-9 5-4 2-7 2-10s5-5 1-11c3-2 3-4 3-8l-1-3 2-1c1-2 3-5 2-7v-1c2-1 6 0 8 2l6 6v6h-4c-3 4-3 8 4 7v10c-3-1-4 0-5 3v3c1 4 3 3 4 3l1 9-3-1v1c-2 1-2 4-1 6s3 1 4 1v3c-4 0-3 0-5-3l-2 3-2-1-1-2-1 2h-3v2-1h3l1 4 1-1v-3h3v1l1 2 1-2h4Z" clip-rule="evenodd"/><path fill="#998E85" d="M575 83c-3 1-5-1-8-1v-1c2-1 6 0 8 2Z"/><path fill="#3F3E3C" d="M575 87v1l-2 1-1-1v-2 2h2l1-1Z"/><path fill="#000" d="M575 157v1l-1 2-2-1v-2 1l2 1 1-2Z"/><path fill="#1D1C1B" d="M534 106c-3 2-26 1-31 0l-12 1-1-1h44Z"/><path fill="#64605B" d="M527 104v2h-37v-2h37Z"/><path fill="#1D1C1B" d="M534 104h-44 13c6 0 25-2 31 0Z"/><path fill="#64605B" d="M530 97a1 1 0 1 1-2 0 1 1 0 0 1 2 0ZM495 97a1 1 0 1 1-2 0 1 1 0 0 1 2 0Z"/><path fill="#807B74" fill-rule="evenodd" d="m289 221-1-1v-1l8-2 18-3 47-9c15-3 29-5 43-9v2c0 2-24 5-26 7l12-3 15-3 4 4c-1-2-4-4-4-6 3 1 2 3 6 2v5l-80 15-27 5-11 2-4-4 19-5c-1-1-17 3-19 4Z" clip-rule="evenodd"/><path fill="#1D1C1B" fill-rule="evenodd" d="m331 213 33-7c-8 3-24 5-33 7h-3 3Z" clip-rule="evenodd"/><path fill="#664E40" d="M90 112v22l-3 1h-3c-1-1-6 0-8 1l-2 1c-3 2-7 2-11 2l-5 1c-2-9-2-24-1-33h5l13 2 1 1 3 1 4 1 4-1 3 1Z"/><path fill="#564238" d="m63 139-5 1c-2-9-2-24-1-33h5l-1 1c-3 8-2 23 1 30l1 1ZM90 112v22l-3 1v-24l3 1Z"/><path fill="#000" d="m64 108-1 8v10h-1c-1-4 0-14 2-18Z"/><path fill="#64605B" d="M44 55c2-3 5-7 9-8h3c1 2-4 7-5 9l-1 3c-3 8-3 18-4 26h-5l-1 2 1 2c2 2 3 2 5 2l-1 21 1 41c-2 1-4 1-5 3l-1 2 2 2h4l3 22-8 1-3-11 8-2c0-2-2-3-3-4l-5-2-1-15h7v-1c-1-2-5-3-7-5v-40c2-2 4-5 4-8l-4-1c1-6 0-11 4-16l4-3-1-1-5-1 2-9 4-2 2-2-1-1-2-4Z"/><path fill="#786D66" d="m561 163 3 2-17 2c-2 0-2 1-2-1l-1 1-19 3-8-10-4-5-2-3h2c3 0 21 0 24-2l1-7 2 1 1 1v3l1-4c2-7 8-3 13-3l3 3c-3 4-2 8 2 10v3c-1 2 0 4 1 6Z"/><path fill="#807B74" d="m561 163 3 2-17 2c-2 0-2 1-2-1l-1 1-1-2-1-5h-2 3l-1-2c-1-2 1-2-1-3h-1 1v-9 2l1-4c2-7 8-3 13-3l3 3c-3 4-2 8 2 10v3c-1 2 0 4 1 6Z"/><path fill="#000" fill-rule="evenodd" d="M543 158h-1c-1-2 1-2-1-3h-1 1l3-1-1 2v2l3-1-3 1Z" clip-rule="evenodd"/><path fill="#000" d="M540 160h6-3l2 5h-2l-1-5h-2ZM544 153l-3 1v-8 2l1 4 2 1Z"/><path fill="#1D1C1B" d="M547 142v1l-2-1v2l-1-1 2-1h1Z"/><path fill="#664E40" d="M541 145v5l-3 2c-6 3-20 0-25 3l-2-3h2c3 0 21 0 24-2l1-7 2 1 1 1Z"/><path fill="#664E40" fill-rule="evenodd" d="m258 110 1-2c4-2 19 2 23 4v22a77 77 0 0 1-25 5h-4v-31h5l-1 9c-1 3-2 14 0 16v-15l1-8Z" clip-rule="evenodd"/><path fill="#564238" fill-rule="evenodd" d="m257 133 1 5-1 1h-4v-31h5l-1 9c-1 3-2 14 0 16Z" clip-rule="evenodd"/><path fill="#1D1C1B" fill-rule="evenodd" d="m261 137-3 1-1-5v-14c1 6 0 13 3 18h1Z" clip-rule="evenodd"/><path fill="#8A6150" d="M261 109c-2 9 1 19 2 28h-2l-3 1-1-5v-15l1-8 3-1Z"/><path fill="#564238" d="m258 110 1-2c4-2 19 2 23 4v1l-21-4-3 1ZM282 133v1a77 77 0 0 1-25 5l1-1 3-1h2c4-2 15-2 19-4Z"/><path fill="url(#c)" d="m551 78 12 1v1l-2 1c-1 3-2 5-1 9l-3 4-1 5 2 2c-2 2-3 1-3 6l1 5-3 6 1 4c-1 6-2 7 3 11l-3 3 1 2-3 1 3 1v1c-5 0-11-4-13 3l-1 4v-5l-3-1v-40c4-2 10 1 12-1v-1l1-22Z"/><path fill="#786D66" d="M555 141c-5 0-11-4-13 3l-1 4v-5l-3-1v-38 1c1 3 2 3 2 7l1 24h13l1 2-3 1 3 1v1Z"/><path fill="#000" d="M551 139h-5 5ZM544 139l-3 1 1-1h2Z"/><path fill="#998E85" d="m551 78 12 1v1l-2 1-10-2v-1Z"/><path fill="#1D1C1B" d="M544 105h-3l1 2h-1l-1-2 2-1 2 1Z"/><path fill="#BDAF97" fill-rule="evenodd" d="m424 113 1-1-1-6c1-1 3-2 4-1l1 1c4-1 3-4 8 1 1 2 3 2 5 2-1 0-4-1-5-3 3 0 5 0 8 3 2 4 3 9 3 14 0 4-1 9-4 12l-7 2 4-3h-1l-4 3c-2 2-4 2-6 0l-1 2-3-1c-3-2 2-6-3-8l1 2h-5v-2h-1v-1h1v-2l-1-1-1-1h-1v-2l3-1h-1l-2-1v-2l2-1-1-1h-1l2-2h1-2l-2-1 5-2 3-1v3l1-1Z" clip-rule="evenodd"/><path fill="#000" d="M435 132c0 2 0 4-2 4l-5-3v-6c5-5 6 1 7 5Z"/><path fill="#3F3E3C" d="M434 132v2l-2 1-2-2-1-3v-2l1-2h1c2 1 3 4 3 6Z"/><path fill="#998E85" d="M425 112c1 3-3 7-7 3h1-2l-2-1 5-2 3-1v3l1-1 1-1Z"/><path fill="#BDAF97" d="M420 112v2l-3 1-2-1 5-2Z"/><path fill="#998E85" fill-rule="evenodd" d="m423 130 1 2h-5v-2h-1v-1h1v-2h1l3 1h1c4 4 1 7 2 10-3-2 2-6-3-8Z" clip-rule="evenodd"/><path fill="#998E85" d="m440 134-4 3c-2 2-4 2-6 0l3-1c2 0 2-2 2-4l1 2h4Z"/><path fill="#998E85" fill-rule="evenodd" d="M437 106c3 0 5 0 8 3h-3c-1 0-4-1-5-3ZM441 134c1-1 2 0 3 1l-7 2 4-3Z" clip-rule="evenodd"/><path fill="#BDAF97" d="M419 119v2l-1 1-2-1v-2l2-1 1 1Z"/><path fill="#000" d="M428 109c10-5 8 5 4 10h-1c-4-2-3-6-3-10Z"/><path fill="#3F3E3C" d="m434 110-1 4c0 2-1 3-2 3l-2-1v-4l1-3 2-1 2 2Z"/><path fill="#000" d="m430 121-1 1-1 1-5 2v-1l1-2-1-1v-1l1-1 6 2Z"/><path fill="#3F3E3C" d="M428 121v1l-1 1h-3l2-1-3-2 5 1Z"/><path fill="#998E85" fill-rule="evenodd" d="m432 121-1-2h1c1 4 4-1 5-2l-1 3c-2 2-2 1-4 1Z" clip-rule="evenodd"/><path fill="#664E40" fill-rule="evenodd" d="M312 82v4l-1 2-4 1c-7 0-15 1-21 7l-2 8c-7-2-16-5-23-5l3-8c-2 1-3 6-4 8h-6c1-4 2-7 6-11 5-5 15-7 23-9l14-1 15 2v1l-8 1-5-1 4 1h9Z" clip-rule="evenodd"/><path fill="#564238" fill-rule="evenodd" d="M303 82v1c-8 1-16 1-23 3l-9 5h-3v1h-1l-1 1c-1 2-2 6-5 6l3-8c-2 1-3 6-4 8h-6c1-4 2-7 6-11 5-5 15-7 23-9l14-1 15 2v1l-8 1-5-1 4 1Z" clip-rule="evenodd"/><path fill="#8A6150" d="M303 82v1c-8 1-16 1-23 3l-9 5h-3v1h-1l-1 1c-1 2-2 6-5 6l3-8 3-2c6-5 24-9 32-8l4 1Z"/><path fill="#1D1C1B" d="M268 91v1h-1v-1h1Z"/><path fill="#664E40" d="m286 96-2 8c-7-2-16-5-23-5 3 0 4-4 5-6l1-1h1v-1h3l7 2 7 2v1h1Z"/><path fill="#000" d="m278 93 7 2v1l-17-4v-1h3l7 2Z"/><path fill="#564238" d="m312 86-1 2-4 1c-7 0-15 1-21 7h-1v-1l-7-2c5-4 16-6 22-7h12Z"/><path fill="#807B74" d="m307 173 21 2 34 3 36 3-1 3v2c1 2 0 2-1 3l-20-2-54-4-25-2 2-3 1-2h2c3 0 4 0 5-3Z"/><path fill="#64605B" d="m307 173 21 2 34 3 36 3-1 3h-1l-7-1-20-1-65-6h-2c3 0 4 0 5-3ZM397 186c1 2 0 2-1 3l-20-2-54-4-25-2 2-3 19 2a1117 1117 0 0 0 56 5l17 1h6Z"/><path fill="#807B74" d="M396 39v4l-4-1 2-2-3 2c-6-2-25-6-32-6l15 3c5 1 11 3 17 3l-1 3-71-13-31-6c-1-1 0-2 1-3 0-2 2-3 4-4 2 0 5 0 6 2 3 5 8 1 10 1l18 3 3 3h3l3-1 18 4 2 1c2 1 2 2 5 2l4-1 15 3 1 2c6 0 9-1 15 1Z"/><path fill="#1D1C1B" d="M289 23c10 1 21 3 31 6l-9-2-22-4Z"/><path fill="#534F4B" d="M354 35c-1 1-7 0-9-1 2-1 7 1 9 1ZM316 209l1 3-31 6v3c-17 2-25-2-41-9l5-5 14 5 6 7-13-22-2-3h7l2 1c4 6 10 17 15 21l-8-14v-11c3-1 5-1 7-4v14c1 7 1 12 9 12l29-4Z"/><path fill="#3F3E3C" d="M262 194c-1 2-2 3-5 3l-2-3h7Z"/><path fill="#534F4B" d="m493 59 7 1 21 3c1 5 6 5 9 2l10 2 15 2c2 0 2 1 2 3 2 2 5 1 7 1l-1 2-1 2-19-2-2-3-43-7-6-1v-3h-2l-2 2-17-3-9-1c-3 2-10 7-11 10v15l-3-1c-4 1-4-17-3-18l4-1c1-2 7 0 7-3 3-2 4-5 4-8l26 4v1l7 1Z"/><path fill="#3F3E3C" d="m563 75-1 2-19-2-2-3c4-1 17 2 22 3Z"/><path fill="#000" d="M493 59c-2 1-5 1-7-1l7 1Z"/><path fill="#534F4B" d="m563 169 2 4c-3 0-5-1-8 1l-1 1-12 2-1-2c-4 0-7 0-8 4l-14 2-61 10v-3l4-3 14-2 30-5 16-2 2-4 18-3 18-2 1 2Z"/><path fill="#3F3E3C" d="m526 172 18-3 18-2 1 2-25 5-14 2 2-4Z"/><path fill="#664E40" d="M311 162v2c-18 2-37 2-51-9-3-2-4-5-5-8h5l2 5h1l-2-4v-1l8 5-2 1h3c6-2 11-2 17-5 5 5 12 6 19 7l5 1v6Z"/><path fill="#564238" d="M311 162v2c-18 2-37 2-51-9-3-2-4-5-5-8h5l2 5h1l4 3 12 5 4 1c7 4 9-1 16 0h12v1Z"/><path fill="#1D1C1B" d="M279 160c-2 1-11-2-12-5l12 5ZM311 161v1l-12-1h12Z"/><path fill="#564238" d="M287 148c5 5 12 6 19 7l5 1v2l-18-1-23-4c6-2 11-2 17-5Z"/><path fill="#8A6150" d="m269 153 18 5 2 2-6 1-4-1-12-5-4-3-2-4v-1l8 5-2 1h2Z"/><path fill="#3F3E3C" d="M397 141v19l-3 1-3-1-1-4v-28l-1-24V87h1l2-2 3 1 2 3v52Z"/><path fill="#807B74" fill-rule="evenodd" d="M359 61v2h-1l-61 5c-1-2-2-6-1-8 2-2 54-5 60-5l3 6-17 1c1 1 14-1 17-1Zm-3-3-1-2h-1l-1 1 1 2a2 2 0 0 0 2-1Zm-55 5-1-2h-3l2 2a2 2 0 0 0 2 0Zm27-3-2-2h-1l-1 1 1 2a2 2 0 0 0 3-1Z" clip-rule="evenodd"/><path fill="#1D1C1B" fill-rule="evenodd" d="M327 64h3-4c-5 0-23 3-26 2 4-2 22-2 27-2Z" clip-rule="evenodd"/><path fill="#786D66" d="M327 59a1 1 0 1 1-2 1 1 1 0 0 1 2-1ZM355 57a1 1 0 1 1-1 1 1 1 0 0 1 1-1ZM300 62a1 1 0 1 1-2 0 1 1 0 0 1 2 0Z"/><path fill="#534F4B" fill-rule="evenodd" d="m257 44 13-21c6-1 12 0 17 1l-1 3 11 2-1 3c-2 1-6 0-8-1-12-1-11 8-11 17v15l-7 1V42l8-14c-6 5-10 13-14 20l-10 16h-10l13-20Z" clip-rule="evenodd"/><path fill="#FEFEFE" d="M400 179Z"/><path fill="#807B74" fill-rule="evenodd" d="m198 212 34-29 5-6 6 2 2 3-5 5-36 31c-2-2 2-4-5-5l-3 1 2-2Z" clip-rule="evenodd"/><path fill="#64605B" d="m245 182-5 5-2-3-6-1 5-6 6 2 2 3Z"/><path fill="#998E85" d="m236 186-1 1c-5 6-12 11-18 16l-13 10h-1l33-27Z"/><path fill="#534F4B" d="M172 188v12c-1 5-12 14-16 18l-6 6c-2 4 1 9-1 12-2 2-5 1-8 1 0-12 3-13 11-22 11-12 9-11 9-26l11-1Z"/><path fill="#3F3E3C" d="m217 193-6 6-14-8c-9-6-18-18-26-26l12 2 3 2c5 6 12 15 20 19l-13-13 7 1 4 7 5 6 8 4Z"/><path fill="#807B74" d="m344 221-3 1v4h-2l-1 2 1 2h-1c-3 0-3 2-3 4l-3-1-2 4-2-3-4 4-1-2-4 1-1-2c-1 0-2 2-3 1-2-1 1-2-5-2v-2c-1-2-4-1-5-2l1-1v-1c-1-2-2-2-4-2l16-4 2 2c3 1 4 1 7-1l1-3 13-2 3 3Z"/><path fill="#807B74" d="m344 221-3 1v4h-2l-1 2-11-5 1-3 13-2 3 3Z"/><path fill="#998E85" d="M327 223c2 0 11 1 12 3l-1 2-11-5Z"/><path fill="#64605B" d="m318 222 2 2-14 5v-1c-1-2-2-2-4-2l16-4Z"/><path fill="#807B74" d="m250 53-5 7-7-6-12-11-17-15h5l2-1 1-4 28 25 5 5Z"/><path fill="#998E85" d="M216 27a124 124 0 0 1 28 24l-11-9-15-12-2-3Z"/><path fill="#64605B" d="m250 53-5 7-7-6h4c2-2 3-3 3-6l5 5Z"/><path fill="#534F4B" d="M171 44v10h-11V43c-1-10-14-17-18-26l-1-10 7 1c3 2 1 9 2 12l5 6c4 3 15 13 16 18Z"/><path fill="#3F3E3C" d="m419 63-1 7-8 1-18 4-21 4-12 2c-5 0-8-3-14-3h-1l1-1c24 0 50-11 74-14Z"/><path fill="#BDAF97" fill-rule="evenodd" d="M446 60c-1 1-3-1-5-2l-1-5h-1l-1 2-1-1h-1v-1l-2-1 1-1h-1l-1-1 3-2h-3l3-2h1l2-3 2-1 2-1 3-1 1 2h1v-1c9 0 11 5 11 13-1 6-8 11-12 6 0-1-2-2-1-3l3-2h4c-2 0-7-1-8 2l1 2v1Z" clip-rule="evenodd"/><path fill="#998E85" fill-rule="evenodd" d="M453 55c2 1 5 0 6-1-1 6-8 11-12 6 0-1-2-2-1-3l3-2h4Z" clip-rule="evenodd"/><path fill="#000" d="M441 53v-3l3-2h1c2 1 3 5 1 6h-4l-1-1Z"/><path fill="#3F3E3C" d="M446 51v2l-2 1-2-2v-1l2-2h1l1 2Z"/><path fill="#807B74" fill-rule="evenodd" d="M440 53h1l1 1h4c-2 2-3 5-1 6l1-1v1c-1 1-3-1-5-2l-1-5Z" clip-rule="evenodd"/><path fill="#1D1C1B" d="M444 41h1c1 1 0 3-1 3l-3 1h-1v-2h1v-1l2-1h1Z"/><path fill="#807B74" fill-rule="evenodd" d="m441 42 2-1h1l-3 2h-1v3h-3l2-3 2-1Z" clip-rule="evenodd"/><path fill="#000" d="m440 46 2 1-4 2v-2l-1-1h3Z"/><path fill="#807B74" fill-rule="evenodd" d="m437 53 1-1 1 1-1 2-1-1h-1v-1h1Z" clip-rule="evenodd"/><path fill="#3F3E3C" d="m217 50-8 5-7 8-1-1c0-2 3-4 4-6-7 4-16 15-22 21l-7 1h-4c7-7 16-18 24-24 4-4 10-6 15-9l6 5Z"/><path fill="#BDAF97" d="M457 185c4 8 1 18-9 19v-2l-2 2-6-2c-3 0 0-2-5-3h-1l1-1-2-1v-1h3l-3-2 1-1v-1l2-1 1 1 2-1 1-1 1-4 3-1 1-1h1l1 1 1-1c2-2 7-1 9 1Z"/><path fill="#998E85" d="m447 185 1-1c2-2 7-1 9 1l-4 4c-5 0-3 1-8-2l2-2Z"/><path fill="#1D1C1B" d="M442 191c4-2 4 2 3 6-2-3-3 0-4-4l1-2ZM446 204l-6-2h1l-1-2 3-1c3 1 2 2 2 5h1Z"/><path fill="#807B74" d="m446 204-6-2h1l4 2h1Z"/><path fill="#B2A997" d="M442 198v1h1l-3 1 1 2h-1c-3 0 0-2-5-3l2-1h5Z"/><path fill="#000" d="M442 190c6-2 6 6 3 7 1-4 1-8-3-6v-1Z"/><path fill="#998E85" d="M442 190v1l-1 2v-1h-4l2-1 1-1h2Z"/><path fill="#1D1C1B" d="M442 198h-5 1v-2c2-1 3 1 4 2Z"/><path fill="#807B74" d="m444 185-2 5h-2l1-4 3-1Z"/><path fill="#1D1C1B" d="M453 189c-3 1-6 1-8-1l1-4 1 1-2 2c5 3 3 2 8 2Z"/><path fill="#664E40" d="M306 119v7c0 2-1 2-2 3-2 5-11-1-13 2-1 2-5 2-8 3l1-22 4 1 4 3c5 0 7-3 12 0l2 3Z"/><path fill="#564238" d="M291 131c-1 2-5 2-8 3l1-22 4 1-1 19 4-1ZM306 119v7c0 2-1 2-2 3v-13l2 3Z"/><path fill="#786D66" d="M45 197v1h-2c-2 0 0 3-1 5l-3-2-3 4-1-3-5 2v-3h-6l1-2v-1l-5-1 1-3-3-3 3-1-2-4v-1h3l1-5 2 1c2 0 2-2 3-3v-1l1 2c2 1 3-2 5-2l1 3 3-1 1 5c-2 0-7 0-9 2l-1 2 3 5c2 1 8-1 11-1l2 5Z"/><path fill="#534F4B" d="m183 181-55 1 3-3v-3l25-1h22l5 6Z"/><path fill="#807B74" d="m252 41 3 3-4 8-7-7-23-21 6-1v-1l2-3 23 22Z"/><path fill="#998E85" d="M227 22a89 89 0 0 1 24 22l-24-21v-1Z"/><path fill="#64605B" d="m252 41 3 3-4 8-7-7h4c2 0 3-3 4-4Z"/><path fill="#534F4B" d="m184 63-6 6h-13c-8 0-25 1-32-1l-2-1c0-2-1-3-3-5l56 1Z"/><path fill="#564238" fill-rule="evenodd" d="M322 161h-1l-1-4 25 2 11-1-13-1-23-2-1-2 20 1 7 2 13 1v-1h2l4-2 4-2c-1 3-2 5-5 6l-13 6-6-1h-2l-22 1v-2h18l-17-1Z" clip-rule="evenodd"/><path fill="#3F3E3C" d="M439 85v13l-13 2-2-1-1-9 1-15h4c4 6 8 5 8 6 1 0 0 2 3 4ZM130 233v2c-2 1-4 0-5-1l-2-8c-2-4-17-16-21-21-4-4-4-8-3-13v-1c2-2 6-1 9-1 0 4-1 9 1 13 1 5 8 9 11 13l6 6 4 11Z"/><path fill="#807B74" d="M382 211a352 352 0 0 0 14-2v1l-2 1v3l1 1-3 1-1 2v2l-2-1-3 5-2-2-3 4c-1-1-1-3-3-2l-3 2-1-3-5 1v-3l-5-1 1-1c1-3-2-4-4-4l13-3 1 1h6l1-2Z"/><path fill="#998E85" d="M382 211a352 352 0 0 0 14-2v1l-2 1v3l1 1-3 1-1 2v1l-11-6h1l1-2Z"/><path fill="#786D66" d="M382 211a352 352 0 0 0 14-2v1l-2 1v3l-13-1 1-2Z"/><path fill="#64605B" d="m374 212 1 1-6 8-5-1 1-1c1-3-2-4-4-4l13-3Z"/><path fill="#534F4B" d="M137 238h-3c-3-4-4-10-5-16l-11-35 8-2 3 15 3 17 5 21Z"/><path fill="#664E40" d="m311 89-4 17-3 2-4-1-4-2h-8l-3-1 2-7c5-5 18-7 24-8Z"/><path fill="#564238" d="m311 89-4 17-3 2 2-15c-8 2-16 3-18 12l-3-1 2-7c5-5 18-7 24-8Z"/><path fill="#64605B" d="m387 105 1 34h-3l-7-2 1-30 5-1 3-1Z"/><path fill="#534F4B" d="m387 105 1 34h-3c2-2 0-32-1-33l3-1ZM137 6l-2 9-3 10-6 35-8-1 1-3 8-28 4-14 2-8h4Z"/><path fill="#3F3E3C" d="M130 10c-2 12-8 17-17 25-6 7-5 11-5 19h-8c0-3-1-8 1-11 1-4 18-20 22-25 1-2 0-6 2-7 1-2 3-1 5-1Z"/><path fill="#64605B" d="m105 182-10 2c-5 0-20 0-24-2l-4-2 1-3 2-1 12-1 21-1 2 8Z"/><path fill="#807B74" d="m239 189 4 1v2h-5l-4 4v1l2 2 1-1h6l-27 23 1-3-1-1h-1l-1-1h-5l30-27Z"/><path fill="#807B74" d="M240 198h3l-27 23 1-3-1-1h-1c1-3 18-16 21-18l1-1h3Z"/><path fill="#998E85" fill-rule="evenodd" d="M216 217h-1c1-3 18-16 21-18l1-1h3a357 357 0 0 1-24 19Z" clip-rule="evenodd"/><path fill="#3F3E3C" d="M341 166c5-1 9 0 14-2 4-2 13 1 18 2l18 3 12 2-2 6-11-2-21-5c-9-2-19-2-28-3l-3-1h-1 4ZM341 166h-4 4Z"/><path fill="#64605B" d="M106 62c-2 3-3 5-3 8l-18-1H72l-5-2 1-3 5-3c7-1 25 0 33 1Z"/><path fill="#807B74" d="m255 201-26 24-2-4-6-2 25-22 1 1c0 2-3 3-4 5l2 2c3-1 3-3 5-4h4v-1l1 1Z"/><path fill="#664E40" d="M294 107v6c-11-1-22-6-33-7l-11 1v-6c12-2 23 1 34 4l10 2Z"/><path fill="#534F4B" d="m443 87 1 19-4-2-1-1-15 1c-2 2-1 4-1 5l-3 2V68l1-5 1 2h-1v1c1 3 3 6 5 7h2l-5 2-1 7c0 3 0 17 2 18l1 1 14-2 1-14 3 2Z"/><path fill="#564238" d="M294 138v1l-8 2-16 4c-3 0-16 2-19 0v-5l13-1 30-6v5Z"/><path fill="#664E40" d="m305 138 1 1 5 15c-10-1-22-2-26-12l5-1h8v-2l7-1Z"/><path fill="#564238" d="m305 138 1 1 5 15c-10-1-22-2-26-12l5-1c1 6 12 9 17 10l-2-13Z"/><path fill="#64605B" d="m416 58 2 3-31 3v-3l-1-2-1-1 1-2 16-2 15-1-1 4v1Z"/><path fill="#64605B" d="m416 58 2 3-31 3v-3h7l22-3Z"/><path fill="#807B74" d="M416 57v1l-22 3h-7l-1-2h1l20-2 7-1 2 1Z"/><path fill="#3F3E3C" d="M439 146v16c-3 1-4 3-6 5l-9-1v-1l-1-10c7-1 5-4 8-6h4l4-3Z"/><path fill="#8A6150" d="M334 82h2l-2 1c-4 2-9 1-13 1v-3a4217 4217 0 0 0 13 1Z"/><path fill="#998E85" d="M596 143c1 4 0 11-2 16-3 0-12-2-12-6 1-2 7-1 9-1v-1l-9-5v-3c4-3 8-4 12-4l2 4Z"/><path fill="#786D66" d="m594 139 2 4-14 3v-3c4-3 8-4 12-4Z"/><path fill="url(#d)" d="M427 50h-1c-2 2-6 0-8 0l-4 2h-11l-21-4v-1l1-1c2-2 5 1 7 0l2-2 18 3c6 1 12 1 17 3Z"/><path fill="#998E85" d="M594 85c2 7 2 10 2 17-1 3-1 4-5 3l-9-3 4-2 6-4h-4l-6-1v-5l4-3 8-2Z"/><path fill="#786D66" d="M596 102c-1 3-1 4-5 3l-9-3 4-2 10 2ZM586 87l1 1c2 2 1 4 1 8l-6-1v-5l4-3Z"/><path fill="#564238" d="m313 135 2 11 5 13c1 10-3 6-9 8l1-1c3-4-1-13-2-17l-3-12 6-2ZM319 80c1 8-2 15-5 22l-1 9-5-2v-3c1-8 5-16 6-25l-2-4h6l1 3Z"/><path fill="#786D66" fill-rule="evenodd" d="M37 101v2h-3c-8 0-19-3-25-9l31 1-3 6-13-2c4 2 9 2 13 2Z" clip-rule="evenodd"/><path fill="#64605B" d="m130 176-1 3c-2 3-9 2-13 2l-9 1-2-5v-3l12-3c0 2 1 3 3 4 3 2 6 2 10 1ZM130 67h-6c-3 1-6 3-8 6l-12-3v-1l3-7 15 1c3 1 6 1 8 4Z"/><path fill="#664E40" d="m533 187-4 36-3 1 1-10v-27h6Z"/><path fill="#534F4B" d="M2 71h4c3 0 30 0 31 2h-2l-21 1-2 1 15 4v1h-4L2 79v-8Z"/><path fill="#1D1C1B" d="M27 79v1h-4l4-1Z"/><path fill="#534F4B" d="M451 92v42l-3 2-1-1 2-6c1-8 1-14-4-22V87l6 5ZM28 165v1l-6 2c-6 2-13 5-19 4l-1-1v-7l26 1Z"/><path fill="#564238" d="m443 79-3-1-1-5c-1-2-3-1-5-1l-3-1-1-4-4-5h13l2 1c2 3 2 6 2 9v7ZM444 180l7 2c-6 0-7 2-11 3l-1 3h-3l-4 5-10-2v-2l-1-2v-1c5-1 2-2 6-3l13 1 4-4Z"/><path fill="#664E40" d="m427 183 3 3c-1 2-6 4-8 5v-2l-1-2v-1c5-1 2-2 6-3Z"/><path fill="#534F4B" d="M376 44v3c-11-1-22-4-32-6l-14-2 1-4 45 9Z"/><path fill="#564238" d="M456 61c0 3-6 1-7 3l-4 1-2-3c-4-3-13-2-18-1 0-4-2-6-4-8l11-1c2 3 3 4 7 4 1 1 0 3 3 4 5 3 9 3 14 1Z"/><path fill="#3F3E3C" d="M260 26c3-2 5-3 9-3l-4 6-2 3-13 5-5-6 15-5Z"/><path fill="#534F4B" d="M260 26c3-2 5-3 9-3l-4 6h-4l-1-3ZM371 201l-9 2-21 4-18 3-1-1v-1l48-9 1 2ZM464 185l-4 3c-3-5-4-5-9-6l-7-2 1-14 6-2v12c2 3 9 9 13 9Z"/><path fill="#564238" d="m443 166-1 14-2 2h-13v-3l2-1 6-6h2c3-1 5-4 6-6Z"/><path fill="#534F4B" d="M72 71v14l-8 3c0-7-1-14 2-21l6 4ZM546 59v1l-4-1-7-22-3-13h1l13 35Z"/><path fill="#786D66" fill-rule="evenodd" d="M51 188v1l-17 3-2-1-1-4c2-2 15-3 18-4l2 5Zm-15 1a2 2 0 1 0-3 0 2 2 0 0 0 3 0Z" clip-rule="evenodd"/><path fill="#807B74" d="M35 188a1 1 0 0 1-1 1 1 1 0 1 1 1-1Z"/><path fill="#534F4B" d="M72 162v12h-2c-3 1-3 2-4 4l-1-3-1-17 8 4Z"/><path fill="#664E40" d="m284 142 2 6-17 4-8-5v1l3-1 20-5Z"/><path fill="#534F4B" d="M525 218v5c-3-4-5-11-7-16l-4-13-1-2 1-3h1l2 3 4 13 4 13Z"/><path fill="#1D1C1B" d="M137 22c1 9-1 18-2 27h-4l3-23c0-1 0-3 2-4h1Z"/><path fill="#3F3E3C" d="M526 23v4l-3 10-5 14-3 4-2-1v-1l3-8 7-19 2-4 1 1Z"/><path fill="#1D1C1B" d="m135 195 1 2c0 4 2 23 1 26l-1 1c-3-5-4-22-5-29h4Z"/><path fill="#534F4B" d="m585 86-3 2c-4-4-6-9-13-9l2-3 1-4 2 1c6 2 9 8 11 13ZM585 159l-2 5c-3 4-7 8-12 9v-1l1-2-2-4c6-1 8-5 12-9l3 2Z"/><path fill="#64605B" d="m406 181 12 2c-1 3-3 2-4 8l-13-1v-2l3-1 1-3 1-3Z"/><path fill="#786D66" d="m405 184 9 1c1 3-9 2-10 2l1-3Z"/><path fill="#3F3E3C" d="M542 193c1 2-9 27-10 29h-1v-3l2-8c1-8 4-15 7-22l2 4Z"/><path fill="#534F4B" d="M588 119v19l-6 2v-4l6-4-6-2v-9l6-2Z"/><path fill="#534F4B" d="M588 119v19l-6 2v-4l6-4v1-14Z"/><path fill="#64605B" fill-rule="evenodd" d="M20 170c5-1 11-4 16-4h3l-18 5 19-4h2l2 2-19 3-13 1 8-3Z" clip-rule="evenodd"/><path fill="#664E40" d="M100 138v2l-9 1-5 1-1-5 14-4 1 5ZM101 107l-1 7-15-4v-1l1-5 15 3Z"/><path fill="#534F4B" d="M451 139v19h-6v-15l6-4Z"/><path fill="#64605B" d="M162 111v17l-4 5v-8c0-7 0-13-2-20 3 2 5 3 6 6Z"/><path fill="#998E85" d="m366 12-1 6-1 15c-3 0-3 1-6-1l-2-1c3-8 5-11 10-19Z"/><path fill="#64605B" d="m366 12-1 6v-1l-7 15-2-1c3-8 5-11 10-19Z"/><path fill="#3F3E3C" d="m415 119-1 6-15-1v-5h16Z"/><path fill="#8A6150" d="M150 3v3h-11c-4-3-9-1-14-1l-1-1V3c3-3 22-1 26 0Z"/><path fill="#564238" d="m434 168-1 1h-3c-1 0-5 2-5 4l-1 3-4 2v-18l2-3 1 8c2 2 8 3 11 3Z"/><path fill="#3F3E3C" d="M223 69c-1 2-6 2-8 2-4 1-9-1-12-3v-3l2-2 18 6ZM223 174c-2 2-14 7-18 8l-1-3v-1l3-3c5-3 11-3 16-1Z"/><path fill="#786D66" fill-rule="evenodd" d="m43 59 1 1v1l-2 1c-3 1-19-6-23-8l10 1c4 1 11 0 14 2v2l-14-3 14 3Z" clip-rule="evenodd"/><path fill="#64605B" fill-rule="evenodd" d="m40 78-3 2-21-5c4-1 24-1 26 1l-1 1c-5 0-15-3-20-2l19 3Z" clip-rule="evenodd"/><path fill="#1D1C1B" d="m177 70-3 3c-7 0-23 1-29-1l-2-1 34-1Z"/><path fill="#998E85" d="m543 179 3 18-1-2-4-7-5-9 4-4 3 1v3Z"/><path fill="#786D66" d="M540 175c-1 8 3 10 4 17l1 3-4-7-5-9 4-4Z"/><path fill="#534F4B" d="M63 74v5H49v-6h7l7 1Z"/><path fill="#3F3E3C" d="M63 74v5H51h4l1-6 7 1Z"/><path fill="#664E40" fill-rule="evenodd" d="M528 35V20c4 0 4 17 4 20l2 17h-4l2-16-3 4v1l-1-11Z" clip-rule="evenodd"/><path fill="#64605B" fill-rule="evenodd" d="M38 146h2l3 2H10c4-1 24-5 27-4l1 1-9 1h9Z" clip-rule="evenodd"/><path fill="#534F4B" d="m62 165 1 6H48v-6h14Z"/><path fill="#3F3E3C" d="m62 165 1 6h-6l-1-6h6Z"/><path fill="#1D1C1B" d="M176 173h-35l1-1 28-2 6 3Z"/><path fill="#534F4B" d="M436 140c-3 1-4 1-5 3-12-1-6 0-10 9l-1 1v-20c5 1 3 2 5 6 0 1 3 2 4 1h7Z"/><path fill="#534F4B" d="m421 152-1 1v-3l1 2Z"/><path fill="#64605B" d="M174 58v1l-1 1h-16l-1-2 1-1c4-2 10-2 14-1l3 2Z"/><path fill="#786D66" d="m596 116-18 5-2-3v-3h1l1-2c1-1 11 1 13 2l5 1Z"/><path fill="#998E85" d="m591 115-2 1-12-1 1-2c1-1 11 1 13 2Z"/><path fill="#8A6150" d="M151 240v1l-1 1c-3 1-23 1-25-1v-2l11 1 4-2h11v2Z"/><path fill="#664E40" d="M312 115v16l-5-1v-14l5-1Z"/><path fill="#534F4B" d="m259 186-1 1-3 3-3-1-5-7-2-3 10 1 4 6Z"/><path fill="#786D66" d="m568 58-2 9c-1 2 0 4-2 5h-5l-2-2 10-14v1l1 1Z"/><path fill="#998E85" fill-rule="evenodd" d="M567 57v-1l2-4-1 6-2 9h-5l6-10Z" clip-rule="evenodd"/><path fill="#664E40" d="m537 183-23 4-1-2v-1l23-4 1 3Z"/><path fill="#64605B" d="M35 104v38l-2 1v-38l2-1Z"/><path fill="#534F4B" d="M326 35v3c-6-2-19-5-25-5l1-3 24 5ZM360 61v-3c2-1 4 1 5 2v1l-1 1 1 4-26 2 1-2c3-1 19-1 20-3v-2Z"/><path fill="#534F4B" d="M360 61v-3c2-1 4 1 5 2v1l-1 1-3 1-1-1v-1Z"/><path fill="#64605B" d="m365 61-1 1-3 1-1-1v-1h5ZM377 108v28h-3v-27l3-1Z"/><path fill="#534F4B" d="M87 71v12h-6V70l6 1Z"/><path fill="#664E40" fill-rule="evenodd" d="m55 141 1-2v2l12-1c-1 1-2 1-2 3l1 4H57l-1-2-1-4Z" clip-rule="evenodd"/><path fill="#786D66" d="M493 56v3l-7-1v-1l6-16 1 1v14Z"/><path fill="url(#e)" fill-rule="evenodd" d="M492 41v-2l1 3v14l-2-1c-2-4 2-9 1-14Z" clip-rule="evenodd"/><path fill="#534F4B" d="m163 95-1 12a28 28 0 0 0-5-3c-2-1-2-7-3-9h9Z"/><path fill="#664E40" d="M68 106H56l-1 2v-5l1-3c2-2 7 0 10 0v4l2 2Z"/><path fill="url(#f)" d="M308 3v1l-1 17-1 1h-5l-1-1 8-18Z"/><path fill="#64605B" d="M85 142v2l-7 2-1-6-1-1 1-2 6-2 2 7Z"/><path fill="#000" d="M84 142v1l-4 1-2-5v-1l4-1 2 5Z"/><path fill="#664E40" d="m83 142-1 1h-1l-2-4 1-1h1c2 1 2 2 2 4Z"/><path fill="#64605B" d="m85 102-2 9-6-1c-1-3 1-7 1-10l7 2Z"/><path fill="#000" d="m84 103-2 6-5-1 3-6 4 1Z"/><path fill="#664E40" d="m83 104-1 4h-3l1-5 3 1Z"/><path fill="#3F3E3C" d="M418 178v3l-11-2v-1l1-1 2-4 8 1v4Z"/><path fill="#534F4B" d="m87 173-6 1v-11h6v10Z"/><path fill="#64605B" d="m568 184 2 7-12-16 3-1h3l4 10Z"/><path fill="#998E85" fill-rule="evenodd" d="m562 175-1-1h3l4 10c-2 0-6-7-6-9Z" clip-rule="evenodd"/><path fill="url(#g)" d="m530 46-2 19c-1 2-4 1-5 0-1-2 1-4 2-6a131 131 0 0 1 5-13Z"/><path fill="#786D66" fill-rule="evenodd" d="m525 59 4-10-3 10-2 4 4 2c-1 2-4 1-5 0-1-2 1-4 2-6Z" clip-rule="evenodd"/><path fill="#807B74" d="m378 57 2 2h-1v5l-6 1-1-3-1-2-1-2 8-1Z"/><path fill="#64605B" d="m378 57 2 2h-1l-8 1-1-2 8-1Z"/><path fill="#534F4B" d="M379 62v2l-6 1-1-3h7Z"/><path fill="#564238" d="M443 144c0 5 1 14-2 19l-1-1v-18h3Z"/><path fill="#3F3E3C" d="M162 93h-9l-5-6c2-1 8 0 10 1s3 2 4 5Z"/><path fill="#664E40" d="M547 62v4l-18-3 1-3 17 2Z"/><path fill="#534F4B" d="M331 67v2h-8l-17 2v-2l25-2ZM163 143v6l-2 3c-2-2-2-4-2-7v-10l2-3h1l1 11Z"/><path fill="#3F3E3C" d="m415 197-6 1-2-3-6 1 1-3 10-1c2 1 3 3 3 5Z"/><path fill="#534F4B" d="m415 197-6 1-2-3c3 0 5 0 8 2Z"/><path fill="#64605B" d="m175 183-1 2c-4 3-13 2-17 1v-2l18-1Z"/><path fill="#664E40" d="m77 102-2 6c-3-1-6-1-8-4v-3l1-2 5 2 4 1Z"/><path fill="#64605B" d="M387 26v11h-3l-2-1 5-16v6Z"/><path fill="url(#h)" d="M387 26v11h-2c-1-1 1-10 1-11h1Z"/><path fill="#64605B" d="m110 58-1 1c-2 2-7 1-10 1l-3-2 1-1c2-2 6-2 8-1 2 0 4 0 5 2Z"/><path fill="#64605B" fill-rule="evenodd" d="M335 9Zm0 0-1 8v10h-4l-1-1c0-4 3-11 5-14l1-3Z" clip-rule="evenodd"/><path fill="#998E85" d="M334 17v10h-4c2-2 3-9 4-12v2Z"/><path fill="#64605B" d="m111 185-1 1-1 2c-4 1-10 1-13-1v-2h15Z"/><path fill="#3F3E3C" d="M93 71v11l-5 1 1-12h4Z"/><path fill="#64605B" d="m61 91-1 2c-6-2-13-2-18-5l-1-1h1c3-1 15 3 19 4Z"/><path fill="#3F3E3C" d="M160 154c-2 2-9 1-12 2l5-4 2-5 1-1c2 1 2 6 4 8ZM394 197l-17 3-1-2 17-4 1 3Z"/><path fill="#664E40" d="m76 144-7 2h-1l-1-4 8-4 1 6ZM306 110v5l-9-2 1-5 8 2Z"/><path fill="#64605B" d="M59 153v1c-3 1-14 5-17 4v-1c2-3 12-5 16-5l1 1Z"/><path fill="#564238" d="M306 131v5l-8 2-1-6 9-1Z"/><path fill="#64605B" d="M264 61v3h-5v-6l4-6 1 9Z"/><path fill="#3F3E3C" d="M588 106v7l-6-1v-8l6 2Z"/><path fill="#64605B" d="m56 195-1 1-1 1c-4 0-7-3-9-5v-1l7-1 4 5Z"/><path fill="#3F3E3C" d="M93 163v10h-4l-1-10h5Z"/><path fill="#64605B" d="M250 189c-3 1-4 1-6 4l-1-1v-2l-4-1 7-6 4 6Z"/><path fill="#534F4B" fill-rule="evenodd" d="M117 81c8-1 17-1 25 2-6 2-13-1-20-1h-7l2-1Z" clip-rule="evenodd"/><path fill="#664E40" d="m577 98 1-2 10 1-1 1c-2 1-8 5-10 2v-2Z"/><path fill="#998E85" d="m577 98 1-2 10 1-1 1h-10Z"/><path fill="#786D66" d="m586 149 3 2h-11v1l-1-1c1-2 0-4 2-5h1l6 3Z"/><path fill="#998E85" d="m586 149-2 1-5-2 1-2 6 3Z"/><path fill="#807B74" d="m586 149 3 2h-1l-4-1 2-1Z"/><path fill="#64605B" d="M260 158v9l-3-2v-11l3 4ZM260 83v3l-3 3-1-6v-5l4-1v6ZM383 139l-1 4-8-3v-3l9 2Z"/><path fill="#1D1C1B" d="m172 75-3 3-11-2-2-1h16Z"/><path fill="#64605B" d="m382 101 1 3c-2 1-7 3-9 2-1-3 5-4 8-5Z"/><path fill="#664E40" d="M534 16v3c-4 0-7-1-10 1v-4h10ZM533 225l-1 2-3 1-7-1 1-2 9-1 1 1Z"/><path fill="#807B74" d="M57 189h-3c-2-2-3-6-4-9l1-1c2 1 4 8 6 10Z"/><path fill="#1D1C1B" d="M172 168c-4 1-12 2-15 0h1l11-3 3 3Z"/><path fill="#664E40" d="m523 59-1 3-9-2 1-3 9 2Z"/><path fill="#8A6150" d="M139 8v7l-1 5-3 1c0-4 2-10 4-13Z"/><path fill="#664E40" d="m585 132-6 4-2-3 1-3 7 2Z"/><path fill="#998E85" d="m585 132-8 1 1-3 7 2Z"/><path fill="#3F3E3C" d="m277 75 1 3-8 3v-5l7-1Z"/><path fill="#64605B" d="m126 182-3 3c-4 0-7 0-11-2 2-2 11-1 14-1Z"/><path fill="#534F4B" d="M278 165v3l-1 1-6-1v-4c2-1 5 1 7 1ZM126 62h-1l-14-1 10-1c2 0 4 0 5 2Z"/><path fill="#64605B" d="M264 180v5l-3 1-1-1-1-3v-2h5Z"/><path fill="#786D66" d="m322 210-4 1-2-5 5-2 1 6Z"/><path fill="#3F3E3C" d="M138 52v1l-7 1-2-2 1-1 5-1 3 2Z"/><path fill="#786D66" d="m338 66-1 5h-5l1-4 5-1Z"/><path fill="#8A6150" d="M34 162v1l-2 2-2-1-1-2 1-3 1-1h2l1 4Z"/><path fill="#3F3E3C" d="M138 191v1l-1 1h-7v-2h8Z"/><path fill="#64605B" d="M265 80v3l-4 2v-8h3l1 3Z"/><path fill="#3F3E3C" d="M77 83v1l-3 1V73l3 10Z"/><path fill="#8A6150" d="m136 224 2 1c2 3 1 7 1 10-2-2-3-7-3-11Z"/><path fill="#64605B" d="M265 161v7l-4-1 1-8 3 2Z"/><path fill="url(#i)" d="m249 194 2 1-2 1c0 2 0 6-2 7l-2 1-1-1c2-2 3-2 3-4v-4l2-1Z"/><path fill="#64605B" d="m249 194 2 1-2 1v-2Z"/><path fill="#3F3E3C" d="M151 157c-2 2-10 4-12 4h-5l4-1c5-2 8-3 13-3Z"/><path fill="#8A6150" d="m201 174-4-1-1-1v-2l3-1 2 1v4ZM34 81v3l-2 2-2-1v-4l2-1 2 1Z"/><path fill="#534F4B" d="M388 140v3h-6l1-4 5 1Z"/><path fill="#3F3E3C" d="m120 168-3 1-1-6h3l1 5Z"/><path fill="#534F4B" d="M387 100v4h-4l-1-3 5-1Z"/><path fill="#8A6150" d="M201 71v2l-2 1h-4v-2l6-1Z"/><path fill="#786D66" d="m381 45-1 4-1 1-2-1v-1l1-4 3 1Z"/><path fill="#807B74" d="m380 49-1 1-2-1v-1l3 1Z"/><path fill="#3F3E3C" d="M134 55v5l-3 1v-6h3Z"/><path fill="#807B74" d="m297 106-1 9h-1l-3-1h2l1-2v-6h2ZM297 137v3h-2v-8h-3l1-1h2c2 2 2 5 2 6Z"/><path fill="#664E40" d="m313 112-1 1-2 1h-3v-3l1-1 5 2Z"/><path fill="#786D66" d="m301 30-2 5h-3l2-6 3 1Z"/><path fill="#664E40" d="m313 132-1 2-5 2v-5l6 1Z"/><path fill="#786D66" d="M305 69v4h-4v-4h4ZM375 200v1h-2l-2-5 1-1h2l1 5Z"/><path fill="#3F3E3C" d="m430 144-1 2h-3l-3 1 1-4 6 1Z"/><path fill="#64605B" fill-rule="evenodd" d="M564 78v-1c0-2 1-6 3-6l-1 3-2 4Z" clip-rule="evenodd"/><path fill="#3F3E3C" d="M278 181v1l-1 1-2-1-4 1v-3l7 1Z"/><path fill="#8A6150" d="m193 169-1 4-3-2-1-2v-1l5 1Z"/><path fill="#3F3E3C" d="M134 188h-3v-4h3v4Z"/><path fill="#64605B" d="M369 62v1h-1l-3-6v-1h2c2 2 2 4 2 6Z"/><path fill="#534F4B" d="m76 163-2 8v-9l2 1Z"/><path fill="#64605B" d="m243 193-4 2-2 2h-2v-1l4-3h4ZM299 177l-3 4-5 1 8-5ZM422 183l-4 6h-1c0-2 1-5 3-6h2ZM293 178l-1 1c-1 2-4 3-7 4v-1l8-4ZM330 35l-2 6h-2l2-6h2Z"/><path fill="#8A6150" d="m131 7-1 1-6 1V7h7Z"/><path fill="#64605B" d="M271 187v1l-5 2h-2v-1l5-2h2ZM382 67v1l-1-1c-2-2-1-5-1-7h1l1 7Z"/><path fill="#8A6150" d="m192 74-2 2h-3v-1l3-2 2 1Z"/><path fill="#3F3E3C" d="m428 194-9 2 1-2h8Z"/><path fill="#534F4B" d="M266 191v1l-2 1h-6v-1l8-1Z"/><path fill="#64605B" d="M245 196v1h-1l-6-1h7Z"/><path fill="#3F3E3C" d="M138 55v5l-2 1v-5l2-1Z"/><path fill="#64605B" d="M443 140v1l-7 4v-1l7-4Z"/><path fill="#534F4B" d="m260 190-1 1-8 2 2-1c1-1 5-3 7-2ZM567 167l-1 1v-1c-2-1-2-4-3-6h1l3 6Z"/><path fill="#64605B" d="m428 71-1 1h-1l-4-6 1-1 5 6ZM244 193l2-1c2-2 5-3 7-2v1l-6 1-3 1Z"/><path fill="#534F4B" d="M426 66h-1c-2 0-3-5-4-6h1c2 0 3 4 4 6Z"/><path fill="#64605B" d="m282 185 5-2v1c-1 2-4 2-6 2v-2l1 1Z"/><path fill="#1D1C1B" d="M282 185h-1v-1l1 1Z"/><path fill="#64605B" d="m302 172-3 3-4 2 2-2c2-2 3-3 5-3ZM367 68v1l-1-1-1-7h1l1 7Z"/><path fill="#534F4B" d="M405 175c0 2-1 6-3 7h-1l3-6 1-1Z"/><path fill="#64605B" d="M400 185c0 2 0 5-2 7v-2c0-1 0-4 2-5ZM287 179c-1 2-6 3-8 4l2-3 6-1ZM434 145l-1 1c-1 2-4 4-6 4v-2l7-3Z"/><path fill="#534F4B" d="m281 184-1 1-6 1 7-3 1 1h-1ZM432 170l-6 5h-1v-1l4-4h3ZM437 141l-7 5v-1h1c0-2 1-3 2-3l4-1ZM265 187l-1 1-7 1v-1c2-1 5-2 8-1Z"/><path fill="#64605B" d="m429 175-4 5h-2l4-5h2Z"/><path fill="#534F4B" d="M488 71c0 2 0 5-2 7h-1l1-3 1-4h1ZM435 79v1h-1l-5-5v-1l6 5Z"/><path fill="#64605B" d="M563 156v2c-2-1-3-5-3-7l1-1 2 6Z"/><path fill="#534F4B" d="M276 183c-2 2-6 3-8 3l1-1c2-2 4-2 7-2Z"/><path fill="#64605B" d="M432 74v1h-1l-4-5v-1h1l4 5ZM563 86l-2 7-1 1 2-7 1-1ZM557 118v8h-1v-6l1-2ZM437 168v1l-4 3h-3c1-2 5-3 6-4h1ZM489 108l-1 1-2-5v-1h1l2 5Z"/><path fill="#534F4B" d="m567 77-3 6h-1l2-5 2-1Z"/><path fill="#3F3E3C" d="M138 184v4h-2v-4h2Z"/><path fill="#534F4B" d="m424 177-5 6 1-4 4-2ZM447 136c-1 2-6 4-8 4l1-2 7-2Z"/><path fill="#64605B" d="m410 166-1 4-4 3 2-4 3-3Z"/><path fill="#786D66" d="m327 221-2 2h-4l-1-1 7-1Z"/><path fill="#64605B" d="M421 62h-1c-2-1-2-4-3-6h1l3 6ZM425 151l-3 3-3 2 3-3c1-1 1-2 3-2ZM561 97l-1 6-2 2 2-8h1ZM383 58v3l-1-2v-4h1v3ZM418 195v3h-1l-1-2v-3l1-1 1 3ZM440 81c-2 0-5-3-6-4h1c2 0 4 2 5 4Z"/><path fill="#534F4B" d="m427 179-1 3c-1 1-2 3-4 3 0-2 3-5 5-6Z"/><path fill="#64605B" d="m446 163-2 1-5 2 4-3h3ZM561 146l-1 1-2-6v-1h1l2 6ZM404 181c1 1 0 4-1 5l-2 1 2-5 1-1Z"/><path fill="#534F4B" d="m428 147-6 4h-1l4-4h3Z"/><path fill="#64605B" d="M486 95v4h-1v-7l1 3ZM486 81l-1 8h-1v-2l1-6h1ZM277 187l-1 1c-2 2-4 2-7 2l1-1 7-2Z"/><path fill="#534F4B" d="M440 163v1c-3 1-4 3-6 5l2-4 4-2Z"/><path fill="#64605B" d="M386 64v2l-1-3-1-2 1-2v1l1 4ZM451 137v1c-2 1-4 2-6 1v-1l6-1ZM559 110l-1 4v1h-1l1-7 1 2ZM450 158l-8 4 1-2 7-2ZM560 126v4h-1l-1-3v-3l1-1 1 3ZM557 142c1 0 1 0 0 0h-1v-7l1 7Z"/><path fill="#664E40" d="m571 175-1 1-3-4 1-1h1l2 4Z"/><path fill="#64605B" d="m559 132-1 4v-3l-1-2 1-2 1 3ZM492 62l-3 6v-4l2-2h1ZM560 91l-2 8h-1l1-5c0-2 1-2 2-3Z"/><path fill="#534F4B" d="m292 177-3 1 6-4v1l-1 1-2 1Z"/><path fill="#64605B" d="m560 114-1 6-1 1 1-7h1Z"/><path fill="#534F4B" d="m571 170-1 2-2-5v-2l3 5ZM485 105h-1l-1-7h1l1 7Z"/><path fill="#64605B" d="m406 169-4 8v-4l4-4ZM422 156l-2 3-3 2c0-2 3-4 5-5ZM442 166v1c-2 2-4 4-6 4l6-5ZM434 173h-1l-5 5 1-3 5-2ZM488 65l-3 7 1-5 2-2Z"/><path fill="#664E40" d="M547 179v3h-2v-3h2Z"/><path fill="#64605B" d="m409 172-1 2c0 2-1 3-3 4l2-5 2-1ZM421 56v1h-1l-2-5v-1l3 5ZM571 73v1l-2 5h-2l3-6h1Z"/><path fill="#534F4B" d="M430 150c-2 2-4 4-6 4 1-2 3-4 6-4Z"/><path fill="#64605B" d="M444 85h-2c-2 0-4-1-5-3l1-1c2 2 4 4 6 4ZM401 179c-1 2-1 6-3 7l1-6 2-1ZM419 194l1-6v5l-1 1ZM556 113l-1 7h-1l1-5 1-2Z"/><path fill="#3F3E3C" d="m439 73-1 4v-2l-2-2h3Z"/><path fill="#664E40" d="m567 161-1 1-2-5v-1h1l2 5Z"/><path fill="#64605B" d="M561 138v3l-1-3v-3l1 3ZM449 86l-1 1-6-4h1c2-1 5 2 6 3Z"/><path fill="#786D66" d="M556 131h-1l-1-7h1l1 7Z"/><path fill="#64605B" d="M371 63v5l-1-2v-5l1 2ZM558 102l-1 5-1 3v-4c0-2 0-3 2-4Z"/><path fill="#534F4B" d="m439 144-2 2c-1 2-3 2-4 2 0-2 4-3 6-4Z"/><path fill="#807B74" d="M315 111v2l-1 3-1-1 1-4v-1l1 1Z"/><path fill="#64605B" d="M566 82v3l-2 4 2-7ZM489 77v2l-2 5v-1l1-6h1Z"/><path fill="#786D66" d="m417 158-1 3-4 3v-1l5-5Z"/><path fill="#534F4B" d="m448 140-1 1-5 2c1-2 4-2 6-3Z"/><path fill="#64605B" d="M437 76h-1l-4-4h1l4 4Z"/><path fill="#8A6150" d="M131 236v1h-7 1l6-1Z"/><path fill="#664E40" d="m563 81-2 7h-1l2-6 1-1Z"/><path fill="#64605B" d="M489 102v2l-1-1-1-4v-2l2 5ZM567 173h-1l-2-6v-1l3 7ZM563 92v4l-2 3 2-7ZM430 69h-1l-3-5v-1c2 1 3 4 4 6Z"/><path fill="#786D66" d="M315 132v4h-1v-5l1 1Z"/><path fill="#64605B" d="M563 163h-1l-2-6v-1l3 7Z"/><path fill="#534F4B" d="M365 58h-1l-1-4 1-1 1 4v1Z"/><path fill="#64605B" d="M559 152v1c-2-2-2-5-2-6l1-1 1 6ZM385 68l-1 1-1-2v-2h1l1 3ZM306 173l-1 2h-3v-1l4-1ZM561 104l-1 6-1-1 2-6v1ZM492 67l-2 5-1 1 2-6h1Z"/><path fill="#534F4B" d="M401 190v2l-1 4h-1l1-6h1Z"/><path fill="#64605B" d="M451 162v1l-6 2 6-3ZM484 94h-1l-1-6 1-1 1 7ZM420 153l-6 6 1-3c1-1 3-3 5-3ZM424 60l-3-5h1l2 5Z"/><path fill="#534F4B" d="m571 69-2 4-2 1 2-4 2-1Z"/><path fill="#64605B" d="M370 68v2h-1l-1-1v-3h1l1 2ZM412 161l-5 6v-1c0-2 3-4 5-5Z"/><path fill="#664E40" d="M563 148v3l-1-2v-3l1 2Z"/><path fill="#64605B" d="m417 186-2 8v-6l2-2Z"/><path fill="#534F4B" d="M302 168c-1 2-2 4-4 4l2-3 2-1Z"/><path fill="#64605B" d="M446 82h-1l-5-3h1l5 3Z"/><path fill="#B2A997" d="M419 130v2l-4-2 3-1v1h1Z"/><path fill="#64605B" d="m488 88-1 6v-7l1 1Z"/><path fill="#534F4B" d="M252 196v3l-2 1v-3l2-1Z"/><path fill="#64605B" d="m386 53-2 4v-5l2 1ZM484 76v1l-1 6v-1l1-6ZM397 189l-1 4-1 1v-1l2-4Z"/><path fill="#998E85" d="M436 191v-1h1l2 1-2 1-1-1Z"/><path fill="#64605B" d="m451 90-1 1-3-3v-1l4 3Z"/><path fill="#BDAF97" d="M419 127v1c-2 0-2 1-3-1l2-1 1 1Z"/><path fill="#64605B" d="m451 159-1 2h-2v-1l3-1Z"/><path fill="#534F4B" d="M381 53v4h-1l-1-3 2-1Z"/><path fill="#64605B" d="m247 193 1 1-2 1h-4l4-1 1-1Z"/><path fill="#3F3E3C" d="m135 163-4 2v-2h4Z"/><path fill="#64605B" d="M369 55v1l-2-2v-1h1l1 2Z"/><path fill="#786D66" d="M367 54h-1l-2-3h1l2 3Z"/><path fill="#3F3E3C" d="M157 139v5h-1l1-5Z"/><path fill="#534F4B" d="m255 197-1 2-2 1v-1c2-1 1-1 2-3l1 1Z"/><path fill="#807B74" d="m414 164-4 5 4-5Z"/><path fill="#786D66" d="M380 211v1h-4l4-1Z"/><path fill="#3F3E3C" d="M148 85h-6 6Z"/><path fill="#64605B" d="M396 194v3h-1v-3h1ZM258 64h-2v-1l1-1 1 2ZM451 85v1l-3-1 1-1 2 1Z"/><path fill="#1D1C1B" d="M345 78h-4l4-1-1 1h1Z"/><path fill="#3F3E3C" d="M37 172h-1l-9 1 10-1Z"/><path fill="#B2A997" d="m435 198-1 1-1-1h2Z"/><path fill="#3F3E3C" d="m312 166-1 1-1-1h2Z"/><path fill="#998E85" fill-rule="evenodd" d="M226 220c0-2 13-12 16-14l1-1h2v1a278 278 0 0 1-19 14Z" clip-rule="evenodd"/></g><defs><linearGradient id="b" x1="495.7" x2="472.7" y1="108.5" y2="172.4" gradientUnits="userSpaceOnUse"><stop stop-color="#7D756E"/><stop offset="1" stop-color="#938B84"/></linearGradient><linearGradient id="c" x1="570.4" x2="532.6" y1="93.2" y2="124.9" gradientUnits="userSpaceOnUse"><stop stop-color="#7A6C63"/><stop offset="1" stop-color="#85857E"/></linearGradient><linearGradient id="d" x1="404.6" x2="403.9" y1="52.1" y2="43.2" gradientUnits="userSpaceOnUse"><stop stop-color="#3E3D3B"/><stop offset="1" stop-color="#60574E"/></linearGradient><linearGradient id="e" x1="495.6" x2="488.7" y1="43.7" y2="52.9" gradientUnits="userSpaceOnUse"><stop stop-color="#747274"/><stop offset="1" stop-color="#988D88"/></linearGradient><linearGradient id="f" x1="304.1" x2="309" y1="12.7" y2="14.8" gradientUnits="userSpaceOnUse"><stop stop-color="#615C58"/><stop offset="1" stop-color="#A49C99"/></linearGradient><linearGradient id="g" x1="525.4" x2="530.2" y1="49.4" y2="63.2" gradientUnits="userSpaceOnUse"><stop stop-color="#787777"/><stop offset="1" stop-color="#9D8F88"/></linearGradient><linearGradient id="h" x1="389.5" x2="383.5" y1="28.3" y2="34.7" gradientUnits="userSpaceOnUse"><stop stop-color="#888487"/><stop offset="1" stop-color="#9D9A91"/></linearGradient><linearGradient id="i" x1="250.2" x2="244" y1="197.6" y2="200.6" gradientUnits="userSpaceOnUse"><stop stop-color="#655D5D"/><stop offset="1" stop-color="#7B7672"/></linearGradient><clipPath id="a"><path fill="#fff" d="M598 0v244H0V0z"/></clipPath></defs></svg>