<svg width="685" height="390" fill="none" xmlns="http://www.w3.org/2000/svg"><g clip-path="url(#Frame__a)"><path d="M680.6 212.6c7.5 5.1 2.9 9.6-3.9 11.4 1.3 11 .1 28.5-5.3 38.8-.9 1.6-2.3.5-3.6 2.2 1.2 3 7.7-.3 11 2.2 0 1.7.3 2.6-.6 3.9-2.5 1.8-6.6 1-9.8 1l-.5.8c.8 10.7 0 22.8.4 33.5.2 7.5.7 14.6 1.2 22l-7.5 1.2c-4 4.4-9.1 14.7-12.2 20.1-13.7 5.8-17 5.6-31.6 6.2l-25.9 1.2-33.5 1.6c-11 .5-23.2 1.2-34.1.2-5.5-.4-13.3-3.7-18.4-5.8l-23.7-9.6c-4.1-1.7-13.7-5.8-17.6-6.4-7.3-1.2-17.7-2-25.2-2.3 0 7.8-.3 8.3-4.4 15.3-11.5 2.6-23 1.5-34.7 1.9-3.6 0-9.3-.3-12.6.5-.2 1.2 0 6.2-.3 6.6-5.7 9.8-12 41.4-28.8 27.4-3.8-3.2 6.6-30 11.5-33.2 3.5.2 7.5 1.8 10.9 0-2-1.6-8.2-1-10.8-.8-2.8.7-4.4 1.6-7 2.5-3 1.1-6 2-9.2 2.7-9 5.4-8.7 1.6-9.5-5.2-24.7 0-49.5 1.3-74.3.7a36.994 36.994 0 0 1-10.8-2.8c-2.5-9-3.8-17.6.5-26.3h-.5c-5.8 9.6-35.8 31.2-38.7 32-5.5 2.6-15.1 8.6-21.2 9-20.3 1.6-68.8-.1-88-4.4a42.008 42.008 0 0 1-12.6-5.2c-7.5-4.6-8.7-11.6-11-20H66.9c-9.5-.2-19.6-1.1-19.6-24.7 0-6.4.3-227.4.2-236.2-.2-18.7 9.9-21 18.3-21l22.5.3c3.7-11.4 3.9-16.3 15.2-22.2 13-6.7 86.6-10.7 100.4-6.3 6.4 2 11.5 6 17.6 8.2 3 1.1 30.6 20 38.5 32.4h1.1l-1.2-2c-3.7-7.3-2.3-17 0-24.4 9-4.8 26.2-3.2 36.5-3l48.4.6c.2-3 .3-6.4 3-8.1 5 1.6 9.3 3.7 14.4 5 2.6.6 5.7 1.9 8.1 2.8-5.8-5.6-9-18.6-11.8-26.2-1.2-4-.6-7.7 3.8-9.6 15-6.7 19.8 19.4 25.2 28.5 1.3 2.3-.5 4.8.4 7.2 3.5 1.3 31.6.7 37.4 1.2 4.1.4 5.7.5 10.3 1.5 3.4 7.4 4.4 6.4 4.1 15.3 8-.6 17.3-.8 25-2 2.7-.4 10.6-3.7 13.5-4.8l25.6-10.4c8.6-3.5 16.3-7.3 25.7-7.4 10 0 19.8.3 29.7.7l42.6 2.1c11.3.7 23.1 1 34.4 2.2 4 .5 9.7 3 13.5 4.6 3.5 6.1 8.3 15 12.5 20.4l7.4.9c-1.3 20.3-1.3 36.7-1.4 57 3.5 0 7.8-.8 10.3 1.2.9 1.8.8 1 .5 3-2.5 2.6-6.5.7-10.7 2l-.3.7.4.6 2.1.2c1.3 1.5 1.7 3.2 2.2 5a80.895 80.895 0 0 1 4 37c7.2 1.8 10.8 5.5 4 11.2v33.6h-.1ZM381.6 37c-3.2-3-3.7-2-7.6-.4 1.2.8 5.2.8 6.9.9l.7-.5Z" fill="#000"/><path d="M649.5 91.3c4 11.3 3 29.5 3 41.8V217c0 8.1-.2 17.7 0 25.6-.2 11.6 1.4 47.5-3.2 55.3-4.4 2.8-41.8 9.2-50.1 11.2-18.6 4.5-41 7.3-60 11.3a586.066 586.066 0 0 1-81 9.9c4.1-11 3.8-29.4 3.9-41.7h3.2c8.1 0 5.1-10.4 5-16.7-2.6-.2-5.7-.2-8.3-.2V118c3 0 5.4-.1 8.4-.3v-16.4l-8.4-.1c0-13 .4-29.8-3.6-42 18 2 36.7 2.7 54.5 5 11 1.5 24.1 4.4 35.2 6.4 21.3 3.8 43.1 8 64.2 12.7 11 2.5 27.1 4.5 37.2 8Z" fill="#6F725F"/><path d="M668.7 241.5c-.2 7 0 14 .2 21-5 .1-10.3 0-15.2.2.5-3 .4-6.6.3-9.7v-12c5 .5 9.7.5 14.7.5Z" fill="#65665B"/><path d="M680.6 212.6c7.5 5.1 2.9 9.6-3.9 11.4l.2-1.5c.4-5.8.1-13.3.1-19.3v-34l-.3-1.4c7.2 1.8 10.8 5.5 4 11.2v33.6h-.1Z" fill="#6F725F"/><path d="M680.6 212.6c7.5 5.1 2.9 9.6-3.9 11.4l.2-1.5c6.5-2.3 8.4-4.8 2.3-9.4-.4-11-.1-23.4 0-34.5 5.3-5 4.8-7-2.3-9.5l-.2-1.3c7.2 1.8 10.8 5.5 4 11.2v33.6h-.1Z" fill="#000"/><path d="m666.7 289.2-.5 3.1c-2.5-7-4.7-17-12.1-20.8 0-2.3.1-5.1-.4-7.3h12.7c0 5.9-.4 19.8.3 25Zm12-22c.2 1.7.4 2.6-.5 3.9-2.5 1.8-6.6 1-9.8 1v-1.5c-.5-.8-.4-1-.4-2l.8-.6c2.4-.6 7.1-.5 9.4.6l.6-1.4h-.1Z" fill="#6F725F"/><path d="M678.8 267.2c0 1.7.3 2.6-.6 3.9-2.5 1.8-6.6 1-9.8 1v-1.5c3.5 0 7.8 1 9.8-2l.6-1.4ZM662 221c2-.5 5.7-.3 8-.3l.8-1c1.9 2 1 15.3 1 19-.9-1.8.3-4.1-.4-7-.6.5 0 3-.6 5-.5-2.7-.2-12.2-.2-15.6H662v-.1Z" fill="#000"/><path d="M669.2 169.8c.5 16.3-.6 33 .2 49.6-3.4.2-12 .8-14.8-.5-.5-1-.5-.9-.6-1.9.4-5 .2-12.2.2-17.2v-29.9l15-.1Z" fill="#65665B"/><path fill-rule="evenodd" clip-rule="evenodd" d="M217.3 54.6c8-.2 17-.6 24.1 1.1 3.2.8 13.4 12.8 15.5 13.7 4.7-.4 58.8-.5 58.8-.5 4.6 0 25.8-.7 28.8.7l.4.7-.4 1c-2.7.5-12 .3-15 .3h-70.6l-3.1-.1-14.9-12.7-23.7.4-138 1.8c-4.6 0-13.2-.3-17.1 1.1-9 3.2-4.7 28.4-8 36-1.4.8-2.2.5-4 .5v-.1c.8-10.8-1.5-30.4 5.2-38.8 1-1 3.2-2.6 4.6-2.7 11-.6 93.7-2 104.7-2 17.7.2 35-.7 52.7-.4Zm0 280c8 .3 17 .7 24.1-1 3.2-.8 13.4-13 15.5-13.8 4.6.8 58.8.7 58.8.7 4.6 0 25.8.7 28.8-.7l.4-.7-.4-1c-2.7-.5-12-.3-15-.3h-73.7l-14.9 12.7-23.7-.4-138.7-1.8c-4.6 0-13.3.2-17.2-1.1-9-3.3-4.6-28.4-8-36-1.3-.8-2.1-.6-3.8-.6v.2c.7 10.8-1.6 30.4 5.1 38.8 1 1 3.1 2.5 4.6 2.6 11 .6 94.5 2.1 105.5 2 17.7-.1 35 .8 52.7.4h-.1Z" fill="#65665B"/><path d="M260 66.6c19 0 42-.7 61-.1 4.9.1 18-.5 22.3.4-2 .8-13 .5-16 .5h-44.2c-4.8 0-19.2.5-23.8.5l.7-1.3Zm0 256.5c19 0 42 .7 61 .2 4.9-.2 18 .4 22.3-.5-2-.8-13-.5-16-.5h-44.2c-4.8 0-19.2-.6-23.8-.6l.7 1.4Z" fill="#3F3F3D"/><path d="M460.6 117.8c-.4 51.3-.5 102.7 0 154l-7.3.1c-.2 5 0 10.2 0 15.2l-43 .1V273c-.4-56.8-.4-113.5 0-170.3 14.3-.1 28.6.3 43 .2-.2 5-.2 10 0 14.9h7.3Z" fill="#6F725F"/><path d="M450.5 210c-.3.5-.5.6-1 1.1-3.4.6-29 1-32.2 0l.7-1c1.8-1 28.7-.7 32.5-.1Z" fill="#6F725F"/><path d="M451.7 185.4c-.2 2.4.2 2-1 3.6-1.7.8-4.2.8-6 .8-8.7 0-17.5.3-26-.3-.9 0-2-1-2.6-1.5 0-1.8 0-1.9.7-3.4 1-.6 2.2-1 3.3-1 6 .5 27.5-1.7 31.6 1.8Zm0 7.7c-.2 2.4.2 2-1 3.5-1.7.8-4.2.8-6 .8-8.7 0-17.5.3-26-.3-.9 0-2-1-2.6-1.5 0-1.7 0-1.9.7-3.3 1-.7 2.2-1.1 3.3-1 6 .4 27.5-1.8 31.6 1.8Zm0 7.8c-.2 2.4.2 2-1 3.5-1.7.8-4.2.9-6 .8-8.7 0-17.5.4-26-.2-.9 0-2-1-2.6-1.6 0-1.7 0-1.9.7-3.3 1-.7 2.2-1.1 3.3-1 6 .5 27.5-1.7 31.6 1.8Zm0 8.5c-.2 2.4.2 2-1.1 3.5-1.7.8-4.1.9-6 .8-8.6 0-17.4.4-26-.2-.8 0-2-1-2.6-1.6 0-1.7 0-1.9.8-3.3 1-.7 2.2-1.1 3.3-1 6 .5 27.5-1.8 31.6 1.8Z" fill="#000"/><path d="M450.5 186c-.4 1-.5 1.7-1.4 1.8-4.6.5-29.3.7-32-.5.4-.6.8-1.7 1.3-1.7 5.3-.7 28.6-.9 32.1.5v-.1Zm0 7.7c-.4.8-.5 1.6-1.4 1.7-4.6.5-29.3.8-32-.5.4-.6.8-1.7 1.3-1.7 5.3-.6 28.6-.8 32.1.5Zm0 7.8c-.4.9-.5 1.6-1.4 1.7-4.6.5-29.3.8-32-.5.4-.6.8-1.6 1.3-1.7 5.3-.6 28.6-.8 32.1.5Zm0 8.5c-.4.8-.5 1.6-1.5 1.7-4.5.5-29.2.8-32-.5.5-.6.9-1.7 1.4-1.7 5.2-.6 28.5-.8 32 .5h.1Z" fill="#65665B"/><path d="m451.9 170.2-.5 2.3c-1.4 1.6-2.1 2-4.7 2-9.3.1-19 .5-28.3-.1-.6 0-1.7-1-2.2-1.4 0-1.6 0-2.5.8-3.8.4-.2 1-.5 1.6-.5 10.2-.3 21.6-.8 31.7.2l1.6 1.3Z" fill="#000"/><path d="M450.5 170.6c-.3 1.2-.2 1-1 2-3.7.5-29.7.5-32-.6.4-.8.3-.6 1-1.3 2.7-.8 29.5-1 32 0v-.1Z" fill="#65665B"/><path d="M451.7 178.6c-.1.9-.4 1.7-.6 2.6-.8.7-.6.8-1.4.8-10.5.2-21.5.1-32-.4-.5 0-1.5-.8-2-1.2.6-1.9.6-2.3 1.8-3.7 4-1.4 21.2-.5 26.3-.6 3.5-.1 5.6 0 8 2.5h-.1Z" fill="#000"/><path d="M450.1 178.2c-.4 1.6 0 1.3-1.2 2-3.8.3-28.2.4-31.4-.3l.7-1.5c2.3-1 28.4-.8 32-.2h-.1Z" fill="#65665B"/><path d="M451.8 217.3c0 .7-.2 2.3-.5 2.8-1.1 1.7-6.7 1.8-8.6 1.6-5.6-.5-22.4 1.4-26.7-1.7 0-1.5 0-3.6 2-3.8 10.4-.6 21-.4 31.4 0 .6 0 1.9.8 2.4 1.1Z" fill="#000"/><path d="M450.5 218c-.4.8-.5 1.6-1.1 1.7-4.5.9-29.2.9-32-.2.3-1 .2-1 1-1.8a261.016 261.016 0 0 1 32 .3h.1Z" fill="#65665B"/><path d="M451.9 162.3c-.3 1.3-.8 3.8-2.5 3.9-5 .2-30 1.5-33.3-.5.1-1.8 0-2.2.9-3.7.5-.4 1.2-.9 1.9-.8 5.6.1 29.5-1.5 33 1v.1Z" fill="#000"/><path d="m450.5 162.8-.6 1.4c-2 1.2-29 1-32.4.5.2-.5.4-1.4.8-1.5a198.063 198.063 0 0 1 32.2-.4Z" fill="#65665B"/><path d="m659.4 59.1-.1.4c-2 .5-3 0-4.8.2-15.2 2-32.1 1-47.6.7l-119-2.7c-18.4-.3-36.8.3-55.2.9-4.8.1-9.6 0-14.3-.3a151.985 151.985 0 0 1 19.5-1.7c17.5-1.5 25.6-.4 42.3-7.8 11.2-5 25.6-10.5 37-14.9 9.6-3.6 33.2-1.7 44-1.2l30 1.3 26.6 1.4c11.7.7 19.9.2 30.7 5.7 3.7 5.9 7.1 12 11 18h-.1Z" fill="#6F725F"/><path fill-rule="evenodd" clip-rule="evenodd" d="M418 331c5.2 0 34 .9 42 1 17.5.5 34.6-.3 52-.8l52.3-1.3 85-1.4 1.2 1.6c2.6.3 6.7 0 9.5-.2-3.5 4.1-8.5 13.6-11.3 18.6-12.3 5.3-13.3 5-26.6 5.6l-23.4 1.1-33.6 1.6c-9.6.6-31.4 2.2-40.3.6C505 354 484 338.6 464 335.3c-10.2-1.7-44.5-3-46.4-4l.2-.4.2.1Z" fill="#6F725F"/><path d="m360.1 354.2-.2.5a54.492 54.492 0 0 0-10.3 4l-.5.4-1-.5c-.3-.6-.5-.9-.5-1.6-.2-39 .1-78 .1-117V33.3c-.3-4 8.1.5 12.3 1.4-.5 21.4 0 44.2 0 65.7v122.9l-.1 85.5c0 13.7-.5 32 .2 45.4Z" fill="#6F725F"/><path d="M76 325.4c-2.3.5-13.4 0-16.5 0a227.502 227.502 0 0 1-3-37.7c.2-8.1.1-16.2 0-24.4V130c0-18-.8-35.7 1.7-53.4l1.3-11.7c2.5-.4 5.1-.5 7.7-.6 3.2 0 6 0 9.3-.2-4.5 6.4-4.7 13.9-5 21.6-1 23-.1 130-.1 206.4.5 5.3.7 30 4.6 33.4v-.1Z" fill="#52534C"/><path d="m244.6 53.1-.9.8c-4.31-.586-8.651-.92-13-1h-22.1c-9.5 0-73.5.8-83 .6-11.3-.3-23.8 1-35 .1l-.3-1c2.5-7.2 3-12.4 9.2-16.7 3-2.2 6.5-3.8 10.1-4.8 24-6.2 65.3-5.8 90.4-5 8.1.2 39.7 20 44.6 27Zm.2 282.7-1-.8c-4.3.6-8.6.9-13 1h-22.1c-9.5 0-73.5-.8-83-.6-11.3.3-23.7-1-35-.1l-.3 1c2.5 7.2 3 12.4 9.2 16.8 3 2.1 6.5 3.7 10.2 4.7 23.9 6.2 65.2 5.8 90.3 5 8.2-.2 39.7-20 44.7-27Z" fill="#6F725F"/><path fill-rule="evenodd" clip-rule="evenodd" d="M394.3 275.5c0 6.7.8 51.2-1.3 53-2.7 2.7-9 3.8-12.6 5.3-.4-6.2-.2-12.5-.2-18.8 0-29.3.5-58.8.1-88.2-3-3.3-5.8-6.2-8.2-10 0-6.3-1.2-41.2 1.7-44.2 3.3-1 12.3-.4 16.3-.4 0 4.9-1.3 28.3-.2 30 1.5.3.8.4 2.1-.4.6-1.7.8-5.4 1-7.3 0-2 0-7.5 1-9 .6 8.7.1 21.8.2 31 0 6.6.5 26.6-.4 32-.7 2.5-2.6 12-2.6 14.6 0 7.4-6.9 31-5.6 36l.7.7 1.2-.3a215.912 215.912 0 0 0 5.4-23.6c.2-1.8.1-2.2.8-4 .7 1.2.5 2.2.6 3.6Z" fill="#52534C"/><path d="m345 38.7-.1 26.4H289l-25.8-.1c-1.2 0-1.6-1-2.3-2-3-8.5-1.7-13.8.2-22.5 9.5-4 27-2.3 37.9-2.1 15.2.2 30.5.3 45.8.3h.2Z" fill="#6F725F"/><path d="M342.4 44.8c.5 4.6 1.2 15.5-2.4 18.5-1.7.4-1 .4-2.6-.1-1.1-1.3-1.2-2-1.7-3.7v-.6c-.4-4.4-1-14.5 1.9-17.8 3-1 3.9 1.2 4.8 3.7Z" fill="#000"/><path d="M341 43.7c.3 4 1 16.1-1.7 18.7h-.9l-.8-1.5c-.6-3.2-2.3-18.5 2.1-18.5l1.4 1.3h-.1Z" fill="#52534C"/><path d="M284.1 47c.3 4 .8 13.1-2.6 16-1.7.3-1 .4-2.6-.4-1.2-1.6-1.2-2.6-1.6-4.6-.5-4.4-1.5-14.8 2.7-17.3 1.5 0 1.5 0 2.7 1 1.1 1.7 1.1 3.2 1.4 5.2v.1Z" fill="#000"/><path d="M282.6 48c.2 4 .4 10.2-1.9 13.7h-.8c-1-1.4-1-3.2-1.3-5l-.3-4.2c0-2.8.4-8.7 2.4-10.7l.8.5c1 1.9 1 3.6 1.1 5.7Z" fill="#52534C"/><path d="M298.6 45.2c.2 4.7 1 14.7-2.4 18-1.7.4-1 .4-2.7-.5-1-1.5-1-2.4-1.5-4.3-.5-3.8-.6-7.7-.2-11.5.3-2.3.6-4.6 2.5-6 1.7-.3.9-.4 2.5.3 1.2 1.5 1.3 2.1 1.8 4Z" fill="#000"/><path d="M297.2 45.7c.1 4.2.7 12.6-1.6 16l-.9.1c-1-1.1-1-2.3-1.4-3.8-.2-3.1-.9-15.1 2.4-16.1l-.7.4.3-.4c1.8 1.7 1.3 1.2 1.9 3.8Z" fill="#52534C"/><path d="M327.8 44.8c.3 4.3 1 16.3-2.6 19-2.6 0-3.2-2.2-3.7-4.4V59l-.1-.6c-.7-4.4-1.3-15 3-17.7l1 .2c1.5 1.3 1.7 2 2.4 3.9Zm-14.5 0c.3 4.3 1 16.3-2.6 19-2.6 0-3.2-2.2-3.7-4.4V59l-.1-.6c-.8-4.4-1.3-15 3-17.7l1 .2c1.5 1.3 1.6 2 2.4 3.9Z" fill="#000"/><path d="M326.4 45.1c.2 3.8.8 14.8-2 17-1.2-.6-.8-.5-1.5-2.3-.7-3.5-1.5-15.4 1.7-17.3 1.4 1 1 .7 1.8 2.6Zm-14.5 0c.2 3.8.8 14.8-2 17-1.2-.6-.9-.5-1.5-2.3-.7-3.5-1.5-15.4 1.7-17.3 1.4 1 1 .7 1.8 2.6Z" fill="#52534C"/><path d="M269.5 45.1c.2 4.8.9 14.4-2.3 18-1.4.5-.8.4-2.4-.2-1.2-1.2-1.2-2.3-1.6-4-.5-4.6-1.5-14 1.6-17.9 3-1 4 1.8 4.7 4.1Z" fill="#000"/><path d="M268 46c.3 3.3 1.5 14.7-2.2 16.2-1-1-1-2.3-1.3-3.8-.6-3.5-1.3-13.5 1.2-16h.8c1.3 1 1.2 1.8 1.6 3.5l-.1.1Z" fill="#52534C"/><path d="M341.6 324.4c1.6.2 1.8 0 2.7.9.6 8 .3 17.4.5 25.6-24.7.2-50 1.1-74.6.7-2.8 0-6.5-1.5-9.1-2.5-1.4-6.4-4-16.1-.1-22.3.4-.7.9-1.4 1.8-1.5 19-.8 38-.3 57-.5l5.1.1c5.4-.6 11 0 16.7-.5Z" fill="#6F725F"/><path d="M340.5 326c3 5.7 4.3 18-1.2 22.6-.5.4-1 0-1.7-.1-3.3-3.7-2.5-17.7-.5-22.1 1.6-.6 1.7-.5 3.4-.3v-.1Z" fill="#000"/><path d="M341 330.2c.2 3.5 1.3 15.7-2.2 17.1-1.3-1-1-.9-1.6-2.7-.3-3.7-1-14.8 1.8-17.1 1.5.8 1.2.9 2 2.7Z" fill="#52534C"/><path d="m341.6 324.4-1.1 1.7c-1.7-.2-1.8-.3-3.4.3-1.9-1.6-9.2-1-12.2-1.5 5.4-.6 11 0 16.7-.5Z" fill="#65665B"/><path d="m313.3 330.9.3 6c0 3.8.3 9-2.5 11.8-1.6.5-1 .5-2.7 0-1.1-1-1.2-2-1.6-3.5a67.983 67.983 0 0 1-.4-5c-.2-3.8-.6-10.4 2-13.3 1.7-.6 1-.6 2.7-.2 1.4 1.2 1.6 2.4 2.2 4.2Z" fill="#000"/><path d="M311.9 330.7c0 3.6 1 14.3-1.6 16.7l-1-.2c-1.1-1.4-.9-1.7-1.2-3.6-.3-3-1-15 2-16.2 1.3 1.2 1.1 1.6 1.8 3.3Z" fill="#52534C"/><path d="M284.1 332.6c.5 4.3 1 13.4-2.8 16.2-1.6.2-1 .4-2.4-.3-1.1-1.5-1.2-2.8-1.6-4.7-.5-4.3-2-17 4.3-17.3 2.2 1.6 2 3.3 2.5 6v.1Z" fill="#000"/><path d="M282.7 333.8c.3 3.1.5 11.8-2.4 13.9l-.6-.5c-.9-1.5-.9-3-1.1-4.7v-.3c-.3-3.4-.4-12 1.9-14.6l.7.3c1.1 1.9 1.2 3.7 1.5 5.9Z" fill="#52534C"/><path d="M298.7 332.5c.1 4 1.2 14.5-3 16.5-1.7 0-1 .2-2.2-.7-1.2-1.9-1.2-3.6-1.6-5.8-.5-3.2-.8-16.2 4-16.5 2 1.7 2.3 4 2.8 6.5Z" fill="#000"/><path d="M297.3 332.2c0 3.5 1.3 14-2.5 15.2-1.2-1.1-1.2-2.4-1.6-4-.2-4.2-.5-12 1.6-15.6l.8-.1c1.1 1.3 1.3 2.8 1.7 4.5Z" fill="#52534C"/><path d="m327.9 331.4.1 4.4c0 3.7.3 10.4-2.4 13.3-3 .6-3.7-2-4.2-4.4-.8-4.3-1.4-14.9 2.1-18 1.7-.3 1-.4 2.3.1 1.3 1.5 1.5 2.7 2 4.6h.1Z" fill="#000"/><path d="M326.4 331.7c.1 4.2.6 11.7-1.4 15.3l-.9.2c-1-1-1-2.1-1.4-3.6-.4-2.8-1-14.7 2-15.7 1.2 1 1.3 2.2 1.7 3.8Z" fill="#52534C"/><path d="M269.6 332v6c0 3.3-.1 8.6-2.6 11-1.5.3-.9.3-2.4-.4-1.2-1.4-1.2-2.5-1.5-4.3a37.022 37.022 0 0 1 0-11.5c.2-2.4.8-5.6 2.8-7l1.2.4c1.4 1.7 2 3.6 2.5 5.7v.1Z" fill="#000"/><path d="M268 332.8c.2 3.8.6 10.8-1.5 14.2h-.8c-1.3-1.3-1.3-2.6-1.6-4.5-.3-3-.5-13.1 2.3-14.9 1.5 2.5 1.2 2.2 1.6 5.2Z" fill="#52534C"/><path d="M460.3 86c.4 4.6.3 10.9.3 15.6-16.8-.3-33.5-.5-50.2-.3l-.1-27.4c0-.7 0-1-.3-1.6-1.5-3.2-1.2-8.2-1.2-11.9 14.5-.2 33.8-1.3 47.9-1 3.5 8.6 3.2 17.5 3.6 26.6Zm.3 202.6c0 12.2 0 30.6-4 41.8-15.1.2-33.4-1.8-48-1 0-2.3-.8-7.7-.2-10 0-.4 1.8-1.2 1.9-3.3v-27.3c16.8 0 33.5 0 50.3-.2ZM650 299.8V327l-92.6 1.5c-23.6.6-48.8 2-72.2 2l1-1c10.2-1.5 22.6-2 32.7-3.5 8-1.3 14.6-3.1 21.8-4.3 23.8-3.9 47-8.7 70.6-13.6l20-4c6-1.1 13-2.1 18.7-4.2v-.1Z" fill="#65665B"/><path fill-rule="evenodd" clip-rule="evenodd" d="M493.6 60.6c-4.7-.2-13.1-.5-17.3-1.5 6.3 0 12.7 0 19.1.4 51.5 1.7 103 2.7 154.6 3v27.1c-39.7-8.5-79.5-16.5-119.4-23.8-7-1.3-13.9-2.4-20.8-3.2-3-.4-13.8-1.4-16.3-2h.1Z" fill="#65665B"/><path d="M394.3 88.7c0 7 .4 60.2-.6 62.5l-2-1.7h-.8c-.7 1.5-.7 18.3-.8 21.1h-14.3l-1.2-.7c-.5-1.9-.2-8.9-.2-11.2l.1-20.5c0-6-.5-40 .6-47.4.3-2 14.5-1.8 19.2-2.1Z" fill="#6F725F"/><path fill-rule="evenodd" clip-rule="evenodd" d="m218 60.6 22.4-.2c4.7 4.1 10 8.2 15 12.6H345v6.7c-7.4.1-12-.9-14.5 6.6-5.2 0-16.8-.4-17.8.2-12-.5-51.1-.4-51.1-.4l-56.1-25 12.6-.5h-.1Zm0 268 22.4.3c4.7-4.1 10-8.2 15-12.6l89.5.2v-6.8c-7.4-.1-12 .8-14.5-6.7-5.2 0-16.8.5-17.8-.1-12 .5-51.1.2-51.1.2l-56.1 25 12.6.6v-.1Z" fill="#3F3F3D"/><path d="M378.7 227.2v80l-14.1-1.5V215c1.7 0 4.3-.2 5.7.4 1.6 5.2 4.7 7.7 8.4 11.8Z" fill="#3F3F3D"/><path d="M667.9 62.4c-.7 13-.8 27.4-4.8 39.7-1.2 3.6-4.7 12.7-8.5 13.7-1-1.2-.6-2.8-.6-4.4 0-1.9 0-5.7-.3-7.4-3-14.2-2-28.3-2-42.8 6 0 10 .4 16.2 1.2Zm-.3 262.2c.2 1.8.4 1.3-.4 2.4-4 1.7-11.2 1.4-15.6 1.5-.2-9.5 0-20.2.2-29.8.1-5 2-10.9 2.2-17.4 0-2.8 0-5.7.2-8.6 12.9 12.6 12.3 35.2 13.4 52v-.1ZM53.7 100.3c.6 12.5.1 27 .1 39.8v124.8c0 5.8.6 18 0 23.2-1.3 1-2 .8-4.3 1.1.9-18.2 0-39.2 0-57.6l.4-97.2c0-5-.5-32 .8-33.6l3-.5Z" fill="#6F725F"/><path fill-rule="evenodd" clip-rule="evenodd" d="M237 86.2 204.4 72s-5.6-.4-11.5-.4L75.7 72c.7-5 4.1-8.3 4.1-8.3 2.6-1.1 122.4-2 122.4-2l56 24.7-21.3-.2h.1Zm0 217.2-32.5 14.2s-5.6.4-11.5.4l-117.7-.6c.6 5 4 8.2 4 8.2 2.7 1.2 123 2.2 123 2.2l55.8-24.7-21.2.3h.1Z" fill="#52534C"/><path d="M438 47.3V55c-6.7.5-13.4 1.1-20 1.8.2-4 1.5-14.6-3.7-15.5-4.2 2-3.3 10.5-3 14.2-3-3-3.1-3-7.3-4.5-.4-.1-1.6-7.6-2.2-9.2-1-1-1.8-1-3.2-.8-2 1.9-2 4.8-2.3 7.6l-7-3.3-1.3-6.5c12.1 0 24.5 1 36.7.7 3 0 6.1.4 9.1 1.2a23.999 23.999 0 0 1 4.2 6.6Zm.1 287.2c.3 7.1.3 8.7-4 14.3-8.7 2.2-35.5 1.6-46 1.6l1.5-5.9 6.7-3.3.5 5.6c1 1.7 1.8 3 3.9 2.1 2.7-3.4 1.6-7.1 3-10.5l7.5-3.1c-.1 3.6-.8 12 3.2 13.4l1-.5c3.5-4 2.7-10.3 2.6-15.3l20.1 1.6Z" fill="#6F725F"/><path d="M362.4 49.9c1 7.8.7 15.2.7 23.1v225.2c0 8.8.4 35.3-.8 42.5-.7 3 0 7-.5 10.3-.8-5.7-.4-23.5-.4-29.9V48l1 2v-.1Z" fill="#65665B"/><path d="M408.7 72c.4 8 0 18.6 0 26.8.2 19 0 38-.5 57-.2 13.6 0 27.3 0 41 0 20.2 0 40.4.2 60.5.1 8.3 1.4 56.4-.5 60l-.7-.3-.2-1.3c-.6-14.4-.4-29.8-.4-44.3l.1-62.8v-83.2c0-5-.5-51.3 1-53.4h1Zm-14.2-2v17.5l-15 .1.2-13.5c0-6.6-.5-11.6 1.2-18 4.5 1.5 12.2 3.2 13.5 8.1.2.9.1 4.7 0 5.8h.1Z" fill="#52534C"/><path d="m405.3 71.2-.1 178.3v48.9l.3 18.2c0 1.4-.4 1.5-1.3 2.1-.9-10.2-.5-26-.4-36.3l.3-68-.2-85c0-7.5-1-53.9.4-58l1-.2Z" fill="#65665B"/><path d="m668.7 149.7.2 18.6c-4.5-.3-10.3-.1-14.9 0 .2-6.2.1-12.6.1-18.8 4.867-.209 9.741-.142 14.6.2Zm0 89.8.2-18.6c-4.4.3-10.3.1-14.9 0 .2 6.2.1 12.6.1 18.8 4.4.1 10.3.2 14.6-.2Z" fill="#6F725F"/><path d="M666.3 159c-1.4 2.6-5 2.4-7.6 2-1.6-.3-1.6-.9-2.4-2.1 2.1-4 7.3-3.3 10 0v.1Zm0 71.4c-1.4-2.6-5-2.5-7.7-2-1.5.3-1.5.8-2.3 2 2 4 7.3 3.3 10 0Z" fill="#000"/><path d="m664.3 158.4-.6.7c-2 .5-3.8.2-5.8 0l.9-.7c2-.5 3.3-.2 5.5 0Zm0 72.5-.6-.6c-2-.6-3.8-.3-5.9 0l1 .6c2 .5 3.3.3 5.4 0h.1Z" fill="#6F725F"/><path d="M402.4 318.8c-3.2 4.2 0 13.4-5.8 15l-.3-.4c.7-1 2-3 2-4.3 1.7-27.8-.3-55.8 1.3-83.6.4-5.9 1.2-14 2.4-19.8 1.2 30-.2 62.7.4 93.1ZM669 127.1l-.2 20.7-14.6.2v-20.9H669ZM375.9 31c.4 4.8-4.4 4.4-5.8 2.8a72.404 72.404 0 0 1-11-27.8c1.8-2.7 3.8-3.5 6.5-4.7 4 10.5 6.7 19.3 10.3 29.7Z" fill="#65665B"/><path d="M395 49.7c-.2 2 0 4.3 0 6.3-4.7-1.6-27-10.7-30-10.2-1.5 1-1.8 2.3-2.6 4l-1-1.8c-.1-4 0-8.8 0-12.8 10.7 4.6 23.4 9.5 33.5 14.5h.1Z" fill="#6F725F"/><path d="M376.1 356.2a276.026 276.026 0 0 1-10.7 32.6c-2.1-1-2.9-1.5-4.8-2.9-1.3-1.9-1.4-3.3-.7-5.6 1.9-5.5 6-22.3 11-25.2 2-.4 3.3.3 5.2 1v.1Z" fill="#65665B"/><path d="M365.5 175.3c1.4 0 3.7 0 4.7.8.5 3.8.3 10.6.3 14.7v23h-6.2c-.4-6-1.5-38.7.2-42v2.8l1 .7Z" fill="#121211"/><path d="M365.5 175.3c1.4 0 3.7 0 4.7.8.5 3.8.3 10.6.3 14.7v23h-6.2l.5-3.8c2-.1 2.4.1 4-.8.4-4.4.3-24 0-28.6-1-1.2-.8-.9-2.7-1.4h-1c-.8-1.5-.5-1-.4-3l.8-.9ZM378 83c0 1.7.3 3.4-.8 4.6-.6.3-2.5 1-2.8 1.4-2.7 3.4-1.7 17.8-1.7 22l-8 .8v-28L378 83Z" fill="#3F3F3D"/><path d="m394.8 333.9-.2 6.6a395.873 395.873 0 0 1-32.2 13.2c-1-1-.6-.9-.6-2.7.5-3.3-.2-7.2.5-10.3.7 1.6.9 2.5 2.3 3.5 3.2.1 25.8-8.6 30.2-10.3Zm7.2-203.5c.5 7.8.8 82.7 0 83.6-1.1 1.6-2 1.4-3 3.6-.3-10.4.2-22.2.2-32.7 0-15.4-.7-39.3 2.8-54.5Zm-20.8 226.7-1.2 1 .4.7c2.2 0 3-1 5.6-2.2l.6.4c-.3 3.8-8.5 19.7-10.4 24.1-2.3 5.2-4 6-9 7.7 3.9-10.5 7.3-21.1 10.4-31.8 1.4-.8 1.8-.5 3.6-.3v.4Zm5.5-324.8-.1.5-.8.3c-3.4-1.3-4.1-1.7-7.5-.6-1.2-1-3.6-10.2-4.3-12.3L368 3l-.3-1 .6-.3c.8 0 1.6.2 2.3.6 6.3 3.4 13.7 22.9 16.1 30Zm10.7 38.8c.1 23.5.3 47.6-.4 71.1a85.006 85.006 0 0 1-1.5 17.1c-.3-8.4.3-17.3.4-25.8l.1-33c0-6.7 1.1-36-1.6-40-2.8-2-23.7-10-26.7-10.6-1.8.3-2.2 1-3.5 2.2l-.3-.2c.1-2 .3-3.6 2.1-4.6 3.8.3 25.6 8.8 29.9 11.3 1.4.9 1.4 9.9 1.5 12.5Z" fill="#6F725F"/><path d="m402.1 71.2.2 2c-.1 15.8.5 32.2-.4 48l-.8.8h.3c-4-.2-2.5-13.4-2.4-17.2V76.7c0-6.2.7-14.6-2.2-20l-.1-.4.5-.1c6.6 4.2 1.4 8.4 5 15h-.1Zm-4.8 202.4c.1 8.4 1 52-1.3 57.2-4.3 4.4-18.2 7-24.1 10-4.4 2.1-8.5 3.5-8.2-3.2l.5-.3 1.5 2.5c1.2.3 3.4-.7 4.7-1.1l6-2c19-7.5 19.3-2 19.3-23.3l.2-30.7c0-7.2-1-16.4 1.2-23l.2 13.9Z" fill="#6F725F"/><path d="M378.2 324.2c.8 2.5.5 7.2.6 10-2.8 1.4-4.7 2-7.7 3-.3-4.4.3-13.2-6.2-10.1-.3-1.3-.3-1.3 0-2.5-.5-1.7-.6-1.8-.2-3.5v-1.8c1.3-2 11.4-2 13.5-.9l.6 2.7a8.711 8.711 0 0 1-1 2.5l.4.6Z" fill="#6F725F"/><path d="M378.8 321a8.214 8.214 0 0 1-1 2.6l.4.6a99.088 99.088 0 0 1-13.3.4c-.5-1.7-.6-1.8-.2-3.5v-1.8c1.3-2 11.4-2 13.5-.9l.6 2.7v-.1Z" fill="#121211"/><path d="M364.7 321.1v-1.8c1.3-2 11.4-2 13.5-.9l.6 2.7h-14.1Zm8.2-208.8-.2 40-8.2-1.4.1-6.6 1.5-.5c5-5 1.5-15.4 2.2-19.7 1.5-.7 1.7-.8 2.9-2 .5-1.6.5-1.8 0-3.4-1.1-4.6-3.7-1.3-6.4-2.8-.4-1.4-.3-.9 0-2.4 2-.8 5.9-1 8.1-1.2Z" fill="#3F3F3D"/><path d="M379 55.3c-.4 2.8-1.1 7.5-.8 10.1l-.6 3c.3 1.2.5 1.5 0 2.7-2.7 1.8-9 1-12.2.8l-.7-.5c0-1.4 0-1.3.3-2.7 0-.5-.1-3.2-.3-3.7l.3-1.3c6.3-1.3 5.6-5.8 5.8-11.3l8.1 3 .1-.1Z" fill="#6F725F"/><path d="M377.6 68.5c.3 1.1.5 1.4 0 2.6-2.7 1.8-9 1-12.2.8l-.7-.5c0-1.4 0-1.3.3-2.7l12.6-.2Z" fill="#3F3F3D"/><path d="m378.2 65.4-.6 3-12.6.3c0-.5-.1-3.2-.3-3.7 1.5.4 11.2.4 13.5.4Z" fill="#121211"/><path d="M666.4 97.3c.5 8.4.1 19.8 0 28.4-3.7-.3-8.3-.3-12.2-.3-.2-1.5-.1-5.5-.1-7.1 7.6-4.5 9.6-13 12.3-21Z" fill="#6F725F"/><path d="m372.7 172.1-.2.1c-2.1 3.3-4.6 1.4-8 2.4v-2.7c.2-6.5.1-13.2.1-19.7l8 1.5c-.1 6.1 0 12.3.1 18.4Z" fill="#3F3F3D"/><path d="M397.3 163.5c.8 19.2-.1 38.9 0 58.1.1 8.8.2 18.3-1 27-1.7-1.6-.1-73-.2-80.8 0-1.3.6-3 1.2-4.3Z" fill="#6F725F"/><path d="m378.7 308.4-.2 8.3c-3.2 0-11.1.3-13.9-.2v-9c4.7 0 9.4.5 14.1.9Zm-.7-235v8c-3.9.6-9.4.6-13.4.8v-8.7l13.4-.1Z" fill="#3F3F3D"/><path d="M469 103.1v13.2h-6.6v-13.2h6.6Zm0 170.2V287h-6.7c.2-4.3 0-9 0-13.4l6.6-.2.1-.1Z" fill="#65665B"/><path d="M344.9 81.5c0 3.3 0 6.1-.2 9.4a42.183 42.183 0 0 0-8.8-3.6c-1.5-.4-2.3-.4-3.3-1.5.3-1.8 1.3-2.5 2.5-4.1 3.2-.3 6.6-.2 9.8-.2Z" fill="#52534C"/><path d="M461 103.5v12.7h-6.3v-13l6.3.3Zm-.2 170v12.9l-6.1.2.1-13.1h6Z" fill="#65665B"/><path d="M344.8 298.3c-.3 3-.3 6.7-.3 9.8-3 0-8 .3-10.7-1l-1.1-2.2c.5-1.3 9.4-4.8 12-6.6h.1Z" fill="#52534C"/><path d="M403.4 320.7c.4 4.6.2 11 .3 15.8-2.2.8-5.8 3-7.7 2.9 0-5.9 3-3.8 4.9-7.3.8-1.7.7-8.7 1.8-11.3l.7-.1Z" fill="#65665B"/><path d="M416.6 338.2c0 2.4.3 8-2.6 8.8-1.1-1-1.2-2.4-1.5-4l-.1-4.5c0-4.1 1.1-5 3.8-7.8.3 2.3.3 5.1.4 7.5Zm0-289c.1 2.6.7 6.6-2 8-1.8-1.1-2.1-3.3-2.2-5.2 0-2.7-.2-7.4 2.2-9l.9.5c1 1.7 1 3.6 1.2 5.7h-.1Z" fill="#52534C"/><path d="M403.4 59c.2 2.8.6 7.5-.5 10-1.4-4.3.5-7.4-2.2-12-1.5-1.1-4.9-3.2-4-5.4 2.1-.8 4.3.5 6.6 1.4v6h.1Z" fill="#6F725F"/><path d="M367.3 126.6c.2 3.8.8 13.6-2.4 16-.1-.3-.3-1-.3-1.7 0-3.2-.6-14.8.8-16.6 1.4.5 1 .6 2 2.3h-.1Z" fill="#3F3F3D"/><path d="M369.8 52c0 2.8.2 8-2 10-.9.8-1.7.4-3 .2.1-3.4-.4-8 1.7-10.5 1.7-.7 1.1-.5 3.3.3Zm.2 285.2c-.7.8-.8.8-1.6 1.4-.9.1-.7.2-1.4 0-1.9-2-1.6-7-1.6-9.6.7-1 .7-1 1.7-1.8l1 .2c1.9 2.2 1.7 6.8 1.9 9.8Z" fill="#52534C"/><path d="M411.4 58.6c-.7.9-2.3.9-3 1.3-2.2 1-1.5 6.8-2.8 10.5l-.5-.4-.1-3 .1-13.3s2.9 1.6 3.9 2.4c1 .7 2.4 2.5 2.4 2.5Zm0 272.6c-.7-.9-2.3-1-3-1.3-2.2-1-1.5-6.8-2.8-10.5l-.5.3-.1 3.1.1 13.3s2.9-1.6 3.9-2.4c1-.7 2.4-2.5 2.4-2.5Z" fill="#65665B"/><path d="M381.2 356.7c2.4-2.7 3.5-10 5.4-11.6l.8.3c.8 2.4-1.2 6.5-2.1 9.2-1.4 1-2.5 1.9-4.1 2.5v-.4Zm296.9-236.8c-.2 1-.2 1-.8 1.9-2.4 1.1-7 .6-9.8.5.4-1.9 0-1.5 1.2-2.5 3-.9 6.2-.4 9.4.1Z" fill="#6F725F"/><path d="M401.6 47.1c0 1.3.1 1.7-.2 3l-1 .5c-1.3-.3-1.7-1-2.7-2v-1l.2-2c.2-1.8.5-2 1.6-3l.9.2c1.1 1.4 1 2.5 1.2 4.3Z" fill="#52534C"/><path d="m387.5 43.1-.1.8h-1.1c-2-1.6-1.6-6.1-5-10 0-.5 0-.3.2-.9 4.1.3 5.5 7 6 10.1Z" fill="#6F725F"/><path d="M401.7 339c0 2.6.3 7.5-2.3 8.5l-1-.5-1-6 4.3-2Z" fill="#52534C"/><path d="M172.2 49.7c-2.2.8-6.6 2.9-8.4 1.3l-.1-2.3.4-1.8c1.7-.7 5.5 1.8 8.1 2.8Z" fill="#6F725F"/><path d="M369.8 117.7c0 2.1.2 3.1-.8 4.8-1.5.4-2.7-.2-4.3-.7 0-2-.3-2.4.6-4.1 1.5-.7 2.8-.2 4.5 0Z" fill="#3F3F3D"/><path d="M383 39.3c0 1.1.2 1.8-.5 2.7-1.7.4-4.1-1-6-1.8l-.8-.7.3-.4 7 .2Z" fill="#6F725F"/><path d="M383.7 346.8c-.4 1.6-.3 2-1.3 3.2-1.7.8-3.5.4-5.4.1.8-1.2 5-2.6 6.7-3.3Z" fill="#65665B"/><path fill-rule="evenodd" clip-rule="evenodd" d="M670.5 128.8v130.5s5-7 5-32.8V164s1.3-15.7-5-35.3v.1Z" fill="#6F725F"/><path fill-rule="evenodd" clip-rule="evenodd" d="m234.2 86.9-30.7-13.1H75.3l-1 13.3 160-.2h-.1Zm-1.5 216.5-30.5 12.8h-127l-1-13 158.5.2Z" fill="#3F3F3D"/><path d="M227.2 176.8c-.6 11.6-.3 23.5-.1 35.2l-58.6-.4c-1.1-1.5-.4-30.6-.4-34.5l59.1-.3Z" fill="#52534C"/><path d="M166.4 176.8c-1 11.6-.5 23.5-.2 35.2l-92.5-1c-1.7-1.4-1-29-1-32.9 3.7-.1 66.4-1.2 93.7-1.3Z" fill="#6F725F"/><path d="M47.5 177s-.6 23.5-.3 35.1l-6-1c-1.7-1.4-1-28.9-1-32.8 3.6-.8 7.3-1.4 7.3-1.4v.1Z" fill="#3F3F3D"/><path fill-rule="evenodd" clip-rule="evenodd" d="M49.9 177s-.6 23.4-.3 35a2.395 2.395 0 0 1-.806 1.813 2.398 2.398 0 0 1-1.894.587l-6-.9c-.5 0-.9-.2-1.2-.5l-.6-.8-.4-.8c-.3-.7-.5-2-.6-3.6-.7-8-.3-26.4-.2-29.6 0-1 .7-2 1.8-2.2 3.7-.8 7.5-1.4 7.5-1.4a2.398 2.398 0 0 1 2.7 2.4Zm-2.4 0s-3.7.5-7.3 1.3c0 4-.7 31.4 1 32.9l6 1c-.3-11.7.3-35.3.3-35.3v.1Z" fill="#000"/><path fill-rule="evenodd" clip-rule="evenodd" d="M341.4 181.2c.3 7.3.4 21.4-.2 28.5l-4 3c-13.7.4-32.5.3-46.3 0 .9-1.7 1.6-3.6 2.4-5.4 1.6-8.7 1.8-22.8-2.8-30.6h46.8c2.3 1.5 3.4 2 4.1 4.5Zm-5 8.6a5.5 5.5 0 0 0-6.398-.138 5.495 5.495 0 0 0-2.198 6.01 5.494 5.494 0 0 0 2.796 3.428 5.503 5.503 0 0 0 7.6-1.7 5.508 5.508 0 0 0-1.7-7.6h-.1Zm1.2-9.7a495.332 495.332 0 0 0-37.9-.2c0 9.5-.3 20.3 0 29.7 4.4.1 9.7.4 14 .2 3.4 0 21.2.2 23.4-1-2.6-1.2-12-.7-15.5-.7.3-8.9.3-17.8.3-26.7 2.8 0 13.5.6 15.3-.6l.4-.7Z" fill="#52534C"/><path fill-rule="evenodd" clip-rule="evenodd" d="M306.3 208c-1 .7-3.7.3-5.1.2 0-4.1-.5-24.3.5-26.6 1.6-.5 3.3-.1 5 0-2 2.1-3 3.8-2.3 6.7 2.2 10.6 20 0 8-6.8h8c-.2 9.2-.4 17.4-.3 26.7-2.5 0-4.5.1-7-.4 10.3-6.5-5.2-17.1-9.3-6-.7 2 1 5 2.5 6.2Z" fill="#65665B"/><path d="M314 202a3.996 3.996 0 0 1-1.4 3.9 4.295 4.295 0 0 1-4.2.7 3.997 3.997 0 0 1-2.6-3.2 3.998 3.998 0 0 1 3.4-4.5c2.2-.4 4.3 1 4.8 3v.1Zm-.3-16.6c.335.503.551 1.075.634 1.673a4.017 4.017 0 0 1-.159 1.782 4.013 4.013 0 0 1-2.417 2.514 3.997 3.997 0 0 1-4.75-1.587 3.998 3.998 0 0 1 1.975-5.916 3.998 3.998 0 0 1 4.717 1.534Zm21.4 6a3.396 3.396 0 0 1 2.397 3.35 3.396 3.396 0 0 1-1.279 2.557 3.398 3.398 0 0 1-5.423-1.852 3.401 3.401 0 0 1 4.305-4.055Z" fill="#3F3F3D"/><path d="M288.8 176.8c5.3 7.9 3.3 15 3.7 24.1.1 4.2-.3 7.8-3.5 10.9-3.7 1.5-38.3 1-44.3.9v-1c2.5-.7 3.4-2.3 3.3-4.8-.1-7.6 2-23.7-1.8-30 3.8-1 36.5-.4 42.6 0v-.1Z" fill="#65665B"/><path fill-rule="evenodd" clip-rule="evenodd" d="M241.6 178.6c1.9 0 2.5-.1 4.2.8 1.8 3.1.7 24 .4 28.9-.1 2.4-3.2 2.3-5 2.5l-1.3-.3v-.7l.5-.4c7.1-6.1.2-12.9-3.8-11.8-9.6 2.6-6.4 10.4.5 13.6l-.3 1.3-8-.4c-.3-9.8-.9-25.5.1-35l6-.5c.3 1 .2 1 0 2-.2 1.1-2.2 2.5-2.2 2.5-.7.9-1.6 3.1-1.7 4.4-.4 4 4.8 7.4 8.3 5.6 6.2-3.2 5-8.3.1-11.6l2.2-1v.1Z" fill="#52534C"/><path d="M241.8 184a4.206 4.206 0 1 1-8 2.6 4.206 4.206 0 0 1 8-2.6Z" fill="#3F3F3D"/><path d="M344.9 176.4v20.8c0 4 .3 11.5-.3 15.3-1 .6-3.2.4-4.2-.2l.7-.6c.9-1.3 1.7-2.2 1.7-3.8.5-9 .7-18.2 0-27.2-.1-.8-2-3-2.4-3.7 1-.6 3.2-.5 4.5-.6Z" fill="#52534C"/><path d="M241.8 203a4.193 4.193 0 0 1-.134 3.34 4.208 4.208 0 0 1-2.53 2.185 4.21 4.21 0 0 1-3.324-.355 4.21 4.21 0 0 1-2.012-2.67 4.2 4.2 0 0 1 8-2.5Z" fill="#3F3F3D"/><path fill-rule="evenodd" clip-rule="evenodd" d="m345 173.9-271.3 1.8-.3-79.5c0-3.3.7-5 2-6.3 1-1.3 2.3-1.6 5.1-1.6h249.8l15.3 6.2-.6 79.4Zm0 40.8L73.5 213l-.3 82c0 2.6.4 3.7 1.4 4.8 1 1 2.3 1.6 4.7 1.6h250.3l16-6.3-.6-80.3v-.1Z" fill="#3F3F3D"/><path d="M131.9 182.5c2 .2 1.6 0 3 .8.6 1 .7 2.7.6 4 0 5.7.3 11.6-.2 17.3 0 .6-.8 1.3-1.3 1.7-1.5 0-1.6 0-2.8-.5a2.99 2.99 0 0 1-.9-2.2c.5-4-1.4-18.3 1.6-21v-.1Zm6.4 0c2 .2 1.6 0 3 .8.6 1 .7 2.7.7 4-.1 5.7.2 11.6-.3 17.3 0 .6-.8 1.3-1.3 1.7-1.4 0-1.6 0-2.8-.5a3.007 3.007 0 0 1-.8-2.2c.4-4-1.5-18.3 1.5-21v-.1Zm6.6 0c2 .2 1.6 0 3 .8.6 1 .7 2.7.7 4-.1 5.7.2 11.6-.3 17.3 0 .6-.8 1.3-1.3 1.7-1.4 0-1.6 0-2.8-.5a3.007 3.007 0 0 1-.8-2.2c.4-4-1.5-18.3 1.5-21v-.1Zm7.1 0c2 .2 1.7 0 3 .8.7 1 .7 2.7.7 4 0 5.7.3 11.6-.2 17.3 0 .6-.9 1.3-1.3 1.7-1.5 0-1.6 0-2.8-.5a2.99 2.99 0 0 1-.9-2.2c.4-4-1.4-18.3 1.5-21v-.1Z" fill="#000"/><path d="M132.4 183.3c.7.3 1.4.4 1.4 1 .5 3 .7 19.5-.4 21.3-.5-.2-1.4-.5-1.4-.9-.5-3.5-.7-19 .4-21.4Zm6.4 0c.7.3 1.4.4 1.5 1 .4 3 .6 19.5-.4 21.3-.6-.2-1.5-.5-1.5-.9-.5-3.5-.7-19 .4-21.4Zm6.6 0c.7.3 1.4.4 1.5 1 .4 3 .6 19.5-.4 21.3-.6-.2-1.5-.5-1.5-.9-.5-3.5-.7-19 .4-21.4Zm7.2 0c.7.3 1.3.4 1.4 1 .4 3 .6 19.5-.4 21.3-.5-.2-1.4-.5-1.5-.9a87.966 87.966 0 0 1 .5-21.3v-.1Z" fill="#65665B"/><path d="m119 182.4 2 .4c1.3.9 1.6 1.4 1.6 3 .2 6.3.5 12.8 0 19 0 .3-.9 1.1-1.2 1.4-1.3 0-2.1 0-3.2-.5a2.001 2.001 0 0 1-.5-1c-.1-6.9-.6-14.5.3-21.2l1-1v-.1Z" fill="#000"/><path d="M119.4 183.3c1 .2.9.2 1.6.7.5 2.5.5 19.8-.4 21.4-.8-.3-.6-.2-1.2-.7-.6-1.8-.8-19.7 0-21.4Z" fill="#65665B"/><path d="m126.1 182.5 2.2.5c.6.5.7.3.7.9.1 7 0 14.3-.4 21.3 0 .4-.7 1-1 1.3-1.5-.3-1.9-.3-3-1.1-1.3-2.7-.5-14.2-.6-17.6 0-2.3 0-3.7 2.1-5.3Z" fill="#000"/><path d="M125.8 183.6c1.3.3 1.1 0 1.7.8.2 2.5.3 18.8-.3 21l-1.3-.5c-.9-1.5-.6-19 0-21.3h-.1Z" fill="#65665B"/><path d="M158.7 182.5c.6 0 2 .1 2.4.3 1.4.8 1.5 4.5 1.3 5.8-.4 3.7 1.2 15-1.4 17.7-1.3 0-3 0-3.2-1.3-.5-6.9-.4-14 0-21 0-.4.6-1.2 1-1.5h-.1Z" fill="#000"/><path d="M159.3 183.4c.7.2 1.4.3 1.5.7a95 95 0 0 1-.2 21.3c-1-.2-1-.1-1.6-.7-.3-2.4-.5-19.4.3-21.3Z" fill="#65665B"/><path d="M112.4 182.4c1 .2 3.2.5 3.3 1.7.1 3.4 1.2 20-.5 22.2-1.5 0-1.8 0-3.1-.6-.3-.3-.7-.8-.7-1.3.1-3.7-1.2-19.7 1-22Z" fill="#000"/><path d="m112.8 183.3 1.2.4c1 1.4.8 19.3.4 21.7-.4-.2-1.2-.3-1.2-.6-1-4-.8-18.4-.4-21.5Z" fill="#65665B"/><path d="M333 248.2c0 12.5.4 26.9-1.1 39a468.029 468.029 0 0 0-62.8-2.9l.1-20.6c.2-11.4 0-24.1 0-35.6 7.5 1.4 21.2 1.3 29 1.4 10 .2 23.8.4 33.5-1.8 1.5 7.5 1.2 12.6 1.2 20.5h.1Z" fill="#52534C"/><path fill-rule="evenodd" clip-rule="evenodd" d="M334.9 248.2c0 12.6.5 27-1.1 39.3l-.3 1.9-1.9-.2a466.1 466.1 0 0 0-62.4-3l-2 .1v-22.6c.3-11.4 0-24.1 0-35.6v-2.4l2.3.4c7.4 1.5 21 1.3 28.8 1.5 9.8.1 23.4.3 33-1.8l2-.5.3 2c1.5 7.7 1.3 12.9 1.3 20.9Zm-2 0c0-7.9.3-13-1.2-20.5a156.028 156.028 0 0 1-33.5 1.8c-7.8-.1-21.5 0-29-1.4 0 11.5.2 24.2 0 35.6v20.6c20.943-.396 41.89.607 62.7 3 1.5-12.2 1-26.6 1-39.1Z" fill="#000"/><path d="m274.3 235.2-.3 10.7c-.2 5.8-.2 11.6-.2 17.3 0 2.7.7 15.2.5 16.6h-.4c-1.5-9-1-32.4-.4-42.4 0-1.6.1-1.5.8-2.2Zm30.6 1c1 9-1.5 25.2-.2 35a16.995 16.995 0 0 1-.2 6.4c-1-6.5-1.3-37 .4-41.5v.1Zm-17.8 15c.4 7.6 0 18.7-.8 26.2l-.4.4c-.2-.9.4-14 .5-16.1v-.3c.2-5.4 0-9.6-.3-15.1-.1-2.4-.5-7.5-.3-9.7 1 3 1.1 11 1.3 14.6Z" fill="#000"/><path d="M331.2 288.4c-5.2 15.8-50 6.8-60.3 3.7-.4-.3-1-.6-1.3-1-.7-1.5-.5-3.2-.5-5.1 21.2-1.5 41.2 1.6 62 2.4h.1Z" fill="#6F725F"/><path fill-rule="evenodd" clip-rule="evenodd" d="M333 289c-1.7 5.4-7.3 8.5-14.9 9.7-15.8 2.6-40.3-2.5-47.8-4.7h-.3l-.2-.3-1.4-1-.4-.3-.2-.5c-.8-1.7-.6-3.8-.6-6v-1.7l1.8-.2c21.3-1.5 41.3 1.7 62.3 2.5h2.6l-.9 2.6v-.1Zm-1.8-.6c-20.9-.8-40.9-4-62-2.4 0 1.9-.3 3.6.4 5.1l1.3 1c10.4 3 55 12 60.3-3.7Z" fill="#000"/><path d="M330.8 225.9c-3 3.8-54.3 1.7-61.6 1 0-2-.3-4 .3-5.4 4-1 9.6-.9 13.7-1.6 12.1-2.1 37-5.7 47.6 6Z" fill="#6F725F"/><path fill-rule="evenodd" clip-rule="evenodd" d="M332.3 227c-.3.5-1 1-1.9 1.3a27.976 27.976 0 0 1-6.3 1.2c-18.365.84-36.763.606-55.1-.7l-1.8-.2v-1.8c0-2.2-.2-4.3.5-6l.3-1 1-.2c4-1 9.7-1 13.9-1.6a110.014 110.014 0 0 1 30.3-1.8c7.6 1 14.5 3.4 19 8.3l1.1 1.3-1 1.3v-.1Zm-1.5-1.1c-10.5-11.7-35.5-8.1-47.6-6-4.1.7-9.7.6-13.7 1.6-.6 1.5-.3 3.3-.3 5.3 7.3.8 58.5 3 61.6-1v.1Z" fill="#000"/><path d="M266.1 227.6a741.214 741.214 0 0 1-.2 57.8c-9.3 4.5-7.8 5-16.4 5.4-12.9.6-16.2-4.2-24.4-11.5-3.8-2.4-5.2-2.5-9.7-2.5-.1-8.9-.2-17.7-.1-26.6 12.7 1.4 14.4-14.5 23.2-19.3 2.7-1.5 6.6-2.1 9.7-2.7 4.8-1 15.5-2 18-.6h-.1Z" fill="#52534C"/><path fill-rule="evenodd" clip-rule="evenodd" d="M268 227.6a700.7 700.7 0 0 1-.2 58v1l-1 .6c-9.8 4.6-8.2 5.2-17.3 5.6-13.4.6-17-4.3-25.6-11.9-3.3-2-4.6-2.2-8.5-2.1h-2v-2l-.1-26.6V248l2.2.2c5.5.6 8.5-2.7 11.2-6.5 3.3-4.6 6.2-10 10.8-12.5 3-1.6 7-2.3 10.4-3 3.4-.6 9.8-1.3 14.2-1.2 2.3 0 4.1.4 5 1l1 .5v1l-.1.1Zm-1.9 0c-2.4-1.4-13-.3-17.9.6-3.1.6-7 1.2-9.7 2.7-8.8 4.8-10.5 20.7-23.2 19.3l.1 26.6c4.5 0 6 .1 9.7 2.5 8.2 7.3 11.5 12 24.4 11.5 8.6-.3 7-1 16.4-5.4 1-16.3.7-41.2.2-57.8Z" fill="#000"/><path d="M241 251.2c.9 6.2.5 26.9-1.3 32.4-.8-1.8 0-11 .3-14 .1-7 0-13.9-.4-20.8-.2-2.2-1.5-10.7-.4-12 1.3 1.4 1.7 12 1.9 14.4h-.1Zm19.4 2.1c.165 9.042-.504 18.08-2 27-.7-1.2.4-17 .5-20 .2-5.6 0-11.2-.4-16.7-.2-2.1-1-7.1-1-8.8 2.6 2.6 2.7 14.4 2.9 18.5ZM249 258c0 3.3 0 21-2 22.4 0-6.8.5-14.8.6-21.9 0-4.6-1.5-19-.8-21.8 1.3 1.1 2 18.4 2.2 21.3Z" fill="#000"/><path d="m265.8 220.8.2 4-.4.7c-13.7 2-8-.8-21.5 2.1-2.4.5-5.8 1.7-7.2 2.8-6.3 4.9-10.3 15.3-17.8 18.5-1 .5-2.4.3-3.5-.2-1-2.3-.5-8-.3-10.6.5-6.6 3-10.3 8.3-14.5 7.4-4.3 11.4-4 20.2-4.7-4 1.3-7.2 2-10.1 5a46.006 46.006 0 0 0-6.8 12.6c2.3-.5 5.4-8.8 7.8-11.6 6-7 25.3-8.6 31.1-4.1Z" fill="#6F725F"/><path fill-rule="evenodd" clip-rule="evenodd" d="M243.8 217.8c2-.6 4.1-1 6.3-1.2 6.9-.8 13.7.2 17 2.6l.6.6v.8c.2 1.3.2 2.7.3 4v.7l-.3.5-.5.8-.5.7-.9.1c-13.6 2-7.9-.8-21.3 2.1-2.1.5-5.2 1.5-6.4 2.4-3 2.4-5.5 6-8.1 9.6-3 3.9-6 7.5-10 9.2-1.7.7-3.6.5-5.2-.2l-.7-.3-.3-.7c-.4-.8-.6-2-.7-3.4-.2-2.8.1-6.2.3-8.2.5-7.2 3.2-11.2 9-15.8v-.1l.2-.1c7.7-4.4 11.9-4.2 21-5l.2.9Zm22 3c-5.8-4.5-25.2-3-31 4-2.5 3-5.6 11.2-8 11.7a44.68 44.68 0 0 1 6.9-12.5c2.9-3.1 6-3.8 10-5.1-8.7.7-12.7.4-20.1 4.7-5.3 4.2-7.8 7.9-8.3 14.5-.2 2.6-.7 8.3.3 10.6 1.1.5 2.4.7 3.5.2 7.5-3.2 11.5-13.6 17.8-18.5a23.983 23.983 0 0 1 7.2-2.8c13.5-2.9 7.8-.2 21.5-2.1l.4-.8c0-1.3 0-2.6-.2-4v.1Z" fill="#000"/><path d="M266 286.8c-.4 5.5-4 9.2-10 10.6-11.8 3-16.4.4-19.2-.7-2.1-.9-6.1-5.7-8.3-6.6l-.3.6c2.4 4.3 4.9 5.8 9.4 7.8-6-.6-10.5-.6-16-3.2-3.3-2.5-4.8-4.8-5.2-8.8-.3-2.4-1.4-5.6-.7-8 7-2.6 13.9 7.8 18.6 10.2a29.998 29.998 0 0 0 31.6-2l.1.1Z" fill="#6F725F"/><path fill-rule="evenodd" clip-rule="evenodd" d="m237.8 299.2-.4 1.3c-6.3-.7-11-.7-16.6-3.4l-.1-.1-.2-.1c-4-3-5.6-5.6-6-10.2l-.9-4.8a12.997 12.997 0 0 1 .3-4l.3-.8.8-.4c3.4-1.3 6.8-.2 10 2 3.9 2.5 7.4 6.8 10.2 8.2a28.005 28.005 0 0 0 29.6-1.8l3 1.8c-.3 6.4-4.4 10.7-11.2 12.4-10.6 2.7-15.7 1.2-18.8 0v-.1Zm28.1-12.4a29.803 29.803 0 0 1-31.6 1.9c-4.7-2.4-11.6-12.8-18.6-10.1-.7 2.3.4 5.5.7 7.9.4 4 1.9 6.3 5.3 8.8 5.4 2.6 9.9 2.6 16 3.2-4.6-2-7.1-3.5-9.5-7.8l.3-.6c2.2 1 6.2 5.7 8.3 6.6 2.8 1.1 7.4 3.8 19.3.7 5.9-1.4 9.5-5.1 9.8-10.6Z" fill="#000"/><path d="M333 140.5c0-12.5.4-26.9-1.1-39a468.36 468.36 0 0 1-62.8 2.9l.1 20.6c.2 11.4 0 24.1 0 35.6 7.5-1.4 21.2-1.3 29-1.4 10-.2 23.8-.4 33.5 1.8 1.5-7.5 1.2-12.6 1.2-20.5h.1Z" fill="#52534C"/><path fill-rule="evenodd" clip-rule="evenodd" d="M334.9 140.5c0 8 .2 13.2-1.3 20.9l-.4 2-2-.5c-9.5-2.1-23.1-2-33-1.8-7.6.2-21.3 0-28.7 1.5l-2.4.4v-2.4c.1-11.5.4-24.2.2-35.6l-.2-22.6h2c20.9.5 41.7-.5 62.5-2.9l2-.2.2 2c1.6 12.2 1.1 26.6 1 39.2h.1Zm-2 0c0-12.5.5-26.9-1-39a468.36 468.36 0 0 1-62.8 2.9l.1 20.6c.2 11.4 0 24.1 0 35.6 7.5-1.4 21.2-1.3 29-1.4 10-.2 23.8-.4 33.5 1.8 1.5-7.5 1.2-12.6 1.2-20.5Z" fill="#000"/><path d="m274.3 153.5-.3-10.7c-.2-5.8-.2-11.6-.2-17.3 0-2.7.7-15.2.5-16.6h-.4c-1.5 9-1 32.4-.4 42.4 0 1.6.1 1.5.8 2.2Zm30.6-1c1-9-1.5-25.2-.2-35a16.995 16.995 0 0 0-.2-6.4c-1 6.5-1.3 37 .4 41.5v-.1Zm-17.8-15c.4-7.6 0-18.7-.8-26.2l-.4-.4c-.2.9.4 14 .5 16.1v.3c.2 5.4 0 9.6-.3 15-.1 2.5-.5 7.6-.3 9.8 1-3 1.1-11 1.3-14.6Z" fill="#000"/><path d="M331.2 100.3c-5.2-15.8-50-6.8-60.3-3.7-.4.3-1 .6-1.3 1-.7 1.5-.5 3.2-.5 5.1 21.2 1.5 41.2-1.6 62-2.4h.1Z" fill="#6F725F"/><path fill-rule="evenodd" clip-rule="evenodd" d="M331.3 102.2c-21 .8-41 4-62.3 2.5l-1.8-.2v-1.8c0-2.1-.2-4.2.6-5.9l.2-.5.4-.3 1.4-1 .2-.2.3-.1c7.5-2.2 32-7.3 47.8-4.7 7.6 1.2 13.2 4.3 15 9.6l.8 2.5-2.6.1Zm-.1-2c-5.2-15.7-50-6.7-60.3-3.6-.4.3-1 .6-1.3 1-.7 1.5-.5 3.2-.5 5.1 21.2 1.5 41.2-1.6 62-2.4l.1-.1Z" fill="#000"/><path d="M330.8 162.8c-3-3.8-54.3-1.7-61.6-1 0 2-.3 4 .3 5.4 4 1 9.6.9 13.7 1.6 12.1 2.1 37 5.7 47.6-6Z" fill="#6F725F"/><path fill-rule="evenodd" clip-rule="evenodd" d="M332.2 164.2c-4.5 5-11.4 7.4-19 8.3a110.014 110.014 0 0 1-30.3-1.8c-4.2-.7-9.8-.6-13.9-1.6l-1-.2-.3-1c-.7-1.7-.5-3.8-.5-6V160l1.8-.2c5.9-.6 40-2 55-.7 3 .3 5.1.7 6.4 1.2 1 .3 1.6.8 2 1.2l1 1.3-1.2 1.3v.1Zm-1.4-1.4c-3-3.8-54.3-1.7-61.6-1 0 2-.3 4 .3 5.4 4 1 9.6.9 13.7 1.6 12.1 2.1 37 5.7 47.6-6Z" fill="#000"/><path d="M266.1 161a741.116 741.116 0 0 0-.2-57.7c-9.3-4.5-7.8-5-16.4-5.4-12.9-.6-16.2 4.2-24.4 11.4-3.8 2.5-5.2 2.6-9.7 2.6-.1 8.9-.2 17.7-.1 26.6 12.7-1.4 14.4 14.5 23.2 19.3 2.7 1.5 6.6 2.1 9.7 2.7 4.8 1 15.5 2 18 .6l-.1-.1Z" fill="#52534C"/><path fill-rule="evenodd" clip-rule="evenodd" d="M267.1 162.7c-.9.6-2.7 1-5 1-4.4.1-10.8-.6-14.2-1.3-3.4-.6-7.5-1.3-10.4-2.9-4.6-2.5-7.5-7.9-10.8-12.5-2.7-3.8-5.7-7.1-11.2-6.5l-2.2.2v-2.2l.1-26.6v-2h2c4 0 5.2 0 8.5-2.1 8.6-7.6 12.2-12.5 25.6-11.9 9.1.4 7.5 1 17.2 5.6l1 .5.1 1.2c1 16.4.7 41.3.3 58v1l-1 .5Zm-1-1.6a741.214 741.214 0 0 0-.2-57.8c-9.3-4.5-7.8-5-16.4-5.4-12.9-.6-16.2 4.2-24.4 11.4-3.8 2.5-5.2 2.6-9.7 2.6-.1 8.9-.2 17.7-.1 26.6 12.7-1.4 14.4 14.5 23.2 19.3 2.7 1.5 6.6 2.1 9.7 2.7 4.8 1 15.5 2 18 .6h-.1Z" fill="#000"/><path d="M241 137.5c.9-6.2.5-26.9-1.3-32.5-.8 1.9 0 11.2.3 14 .1 7 0 14-.4 21-.2 2.1-1.5 10.6-.4 11.9 1.3-1.4 1.7-12.1 1.9-14.4h-.1Zm19.4-2.1a147.01 147.01 0 0 0-2-27c-.7 1.2.4 17 .5 20 .2 5.6 0 11.2-.4 16.7-.2 2.1-1 7.1-1 8.8 2.6-2.6 2.7-14.4 2.9-18.5Zm-11.3-4.7c0-3.2 0-20.8-2-22.3 0 6.8.5 14.8.6 21.9 0 4.6-1.5 19-.8 21.8 1.3-1.1 2-18.4 2.2-21.4Z" fill="#000"/><path d="m265.8 168 .2-4-.4-.8c-13.7-2-8 .8-21.5-2.1-2.4-.5-5.8-1.7-7.2-2.8-6.3-4.9-10.3-15.3-17.8-18.5a4.6 4.6 0 0 0-3.5.2c-1 2.3-.5 8-.3 10.6.5 6.6 3 10.3 8.3 14.5 7.4 4.3 11.4 4 20.2 4.7-4-1.3-7.2-2-10.1-5a46.006 46.006 0 0 1-6.8-12.6c2.3.5 5.4 8.7 7.8 11.6 6 7 25.3 8.6 31.1 4.1v.1Z" fill="#6F725F"/><path fill-rule="evenodd" clip-rule="evenodd" d="m243.8 171-.2.8c-9.1-.8-13.3-.6-21-5h-.1l-.1-.2c-5.8-4.6-8.5-8.6-9-15.8-.2-2-.5-5.4-.3-8.2 0-1.3.3-2.6.7-3.4l.3-.7.7-.3c1.6-.7 3.5-1 5.1-.2a26.993 26.993 0 0 1 10.1 9.2c2.6 3.5 5 7.2 8 9.6 1.3 1 4.4 1.9 6.5 2.4 13.4 2.9 7.7.1 21.3 2l.9.2.5.7.5.8.3.5v.7l-.2 4v.8l-.8.6c-3.2 2.4-10 3.4-17 2.6a33.965 33.965 0 0 1-6.2-1.2v.1Zm22-3 .2-4-.4-.8c-13.7-2-8 .8-21.5-2.1-2.4-.5-5.8-1.7-7.2-2.8-6.3-4.9-10.3-15.3-17.8-18.5a4.6 4.6 0 0 0-3.5.2c-1 2.3-.5 8-.3 10.6.5 6.6 3 10.3 8.3 14.5 7.4 4.3 11.4 4 20.2 4.7-4-1.3-7.2-2-10.1-5a45.979 45.979 0 0 1-6.8-12.6c2.3.5 5.4 8.7 7.8 11.6 6 7 25.3 8.6 31.1 4.1v.1Z" fill="#000"/><path d="M266 102c-.4-5.6-4-9.3-10-10.8-11.8-3-16.4-.3-19.2.8-2.1.9-6.1 5.7-8.3 6.6l-.3-.6c2.4-4.3 4.9-5.8 9.4-7.8-6 .6-10.5.6-16 3.2-3.3 2.5-4.8 4.8-5.2 8.8-.3 2.4-1.4 5.6-.7 8 7 2.6 13.9-7.8 18.6-10.2a29.999 29.999 0 0 1 31.6 2h.1Z" fill="#6F725F"/><path fill-rule="evenodd" clip-rule="evenodd" d="M237.8 89.5c3-1.3 8.2-2.8 18.8-.2 6.8 1.8 11 6.1 11.3 12.5l-3 1.8a27.999 27.999 0 0 0-29.7-1.8c-2.8 1.4-6.3 5.7-10.2 8.3-3.2 2.1-6.6 3.2-10 1.9l-.8-.4-.3-.9a9.914 9.914 0 0 1-.3-3.9c.2-1.6.7-3.4.8-4.8.5-4.6 2.2-7.3 6.1-10.2h.2l.1-.2c5.6-2.7 10.3-2.7 16.6-3.4l.4 1.3Zm28.1 12.4c-.3-5.5-4-9.2-9.8-10.7-12-3-16.5-.3-19.3.8-2.1.9-6.1 5.7-8.3 6.6l-.3-.6c2.4-4.3 4.9-5.8 9.4-7.8-6 .6-10.5.6-16 3.2-3.3 2.5-4.8 4.8-5.2 8.8-.3 2.4-1.4 5.6-.7 8 7 2.6 13.9-7.8 18.6-10.2a30 30 0 0 1 31.6 2v-.1Z" fill="#000"/><path d="M180.6 140.5c0-12.5.5-26.9-1-39a468.36 468.36 0 0 1-62.8 2.9l.1 20.6c.2 11.4 0 24.1 0 35.6 7.5-1.4 21.2-1.3 29-1.4 10-.2 23.8-.4 33.5 1.8 1.5-7.5 1.2-12.6 1.2-20.5Z" fill="#52534C"/><path fill-rule="evenodd" clip-rule="evenodd" d="M182.6 140.5c0 8 .2 13.2-1.3 20.9l-.4 2-2-.5c-9.5-2.1-23.1-2-33-1.8-7.6.2-21.2 0-28.7 1.5l-2.3.4v-2.4c0-11.5.3-24.2 0-35.6v-22.6h2c20.8.5 41.6-.5 62.4-2.9l2-.2.2 2c1.6 12.2 1.1 26.6 1 39.2h.1Zm-2 0c0-12.5.5-26.9-1-39a468.36 468.36 0 0 1-62.8 2.9l.1 20.6c.2 11.4 0 24.1 0 35.6 7.5-1.4 21.2-1.3 29-1.4 10-.2 23.8-.4 33.5 1.8 1.5-7.5 1.2-12.6 1.2-20.5Z" fill="#000"/><path d="m122 153.5-.3-10.7c-.2-5.8-.2-11.6-.2-17.3 0-2.7.7-15.2.5-16.6h-.4c-1.5 9-1 32.4-.4 42.4 0 1.6.1 1.5.8 2.2Zm30.6-1c1-9-1.5-25.2-.2-35 .3-1.6.4-5.2-.2-6.4-1 6.5-1.3 37 .4 41.5v-.1Zm-17.8-15c.5-7.6 0-18.7-.8-26.2l-.4-.4c-.2.9.4 14 .5 16.1v.3c.2 5.4 0 9.6-.3 15-.1 2.5-.5 7.6-.3 9.8 1-3 1.1-11 1.3-14.6Z" fill="#000"/><path d="M178.9 100.3c-5.2-15.8-50-6.8-60.3-3.7l-1.3 1c-.7 1.5-.5 3.2-.5 5.1 21.2 1.5 41.2-1.6 62-2.4h.1Z" fill="#6F725F"/><path fill-rule="evenodd" clip-rule="evenodd" d="M179 102.2c-21 .8-41 4-62.3 2.5l-1.8-.2v-1.8c0-2.1-.2-4.2.6-5.9l.2-.5.4-.3 1.4-1 .2-.2.3-.1c7.5-2.2 32-7.3 47.8-4.7 7.6 1.2 13.2 4.3 15 9.6l.8 2.5-2.6.1Zm-.1-2c-5.2-15.7-50-6.7-60.3-3.6l-1.3 1c-.7 1.5-.5 3.2-.5 5.1 21.2 1.5 41.2-1.6 62-2.4l.1-.1Z" fill="#000"/><path d="M178.5 162.8c-3-3.8-54.3-1.7-61.6-1 0 2-.2 4 .3 5.4 4 1 9.6.9 13.7 1.6 12.2 2.1 37 5.7 47.6-6Z" fill="#6F725F"/><path fill-rule="evenodd" clip-rule="evenodd" d="M180 164.2a30.003 30.003 0 0 1-19 8.3 109.998 109.998 0 0 1-30.4-1.8c-4.2-.7-9.8-.6-13.9-1.6l-1-.2-.3-1c-.7-1.7-.5-3.8-.5-6V160l1.8-.2c5.9-.6 40-2 55-.7 3 .3 5.1.7 6.4 1.2 1 .3 1.6.8 2 1.2l1 1.3-1.2 1.3.1.1Zm-1.5-1.4c-3-3.8-54.3-1.7-61.6-1 0 2-.2 4 .3 5.4 4 1 9.6.9 13.7 1.6 12.2 2.1 37 5.7 47.6-6Z" fill="#000"/><path d="M113.8 161c.5-16.5.8-41.4-.2-57.7-9.3-4.5-7.7-5-16.4-5.4-12.9-.6-16.2 4.2-24.4 11.4-3.8 2.5-5.2 2.6-9.7 2.6-.1 8.9-.2 17.7-.1 26.6 12.7-1.4 14.4 14.5 23.2 19.3 2.7 1.5 6.6 2.1 9.7 2.7 4.8 1 15.5 2 18 .6l-.1-.1Z" fill="#52534C"/><path fill-rule="evenodd" clip-rule="evenodd" d="M114.8 162.7c-.9.6-2.7 1-5 1-4.4.1-10.8-.6-14.2-1.3-3.4-.6-7.5-1.3-10.4-2.9-4.6-2.5-7.5-7.9-10.8-12.5-2.7-3.8-5.7-7.1-11.2-6.5l-2.2.2v-2.2c0-8.9 0-17.8.2-26.6v-2h2c3.8 0 5.2 0 8.4-2.1 8.6-7.6 12.2-12.5 25.6-11.9 9.1.4 7.5 1 17.2 5.6l1 .5.1 1.2c1 16.4.7 41.3.3 58v1l-1 .5Zm-1-1.6c.5-16.6.8-41.5-.2-57.8-9.3-4.5-7.7-5-16.4-5.4-12.9-.6-16.2 4.2-24.4 11.4-3.8 2.5-5.2 2.6-9.7 2.6-.1 8.9-.2 17.7-.1 26.6 12.7-1.4 14.4 14.5 23.2 19.3 2.7 1.5 6.6 2.1 9.7 2.7 4.8 1 15.5 2 18 .6h-.1Z" fill="#000"/><path d="M88.8 137.5c.8-6.2.4-26.9-1.4-32.5-.8 1.9.1 11.2.3 14 .1 7 0 14-.4 21-.1 2.1-1.5 10.6-.4 11.9a54.004 54.004 0 0 0 1.9-14.4Zm19.3-2.1a147.01 147.01 0 0 0-2-27c-.7 1.2.4 17 .5 20 .2 5.6 0 11.2-.4 16.7-.2 2.1-1 7.1-.9 8.8 2.5-2.6 2.6-14.4 2.8-18.5Zm-11.3-4.7c0-3.2.1-20.8-2-22.3 0 6.8.5 14.8.6 21.9 0 4.6-1.5 19-.8 21.8 1.3-1.1 2-18.4 2.2-21.4Z" fill="#000"/><path d="m113.5 168 .3-4-.5-.8c-13.7-2-8 .8-21.5-2.1-2.4-.5-5.8-1.7-7.2-2.8-6.3-4.9-10.3-15.3-17.8-18.5a4.6 4.6 0 0 0-3.5.2c-1 2.3-.5 8-.3 10.6.5 6.6 3 10.3 8.3 14.5 7.4 4.3 11.4 4 20.2 4.7-4-1.3-7.2-2-10.1-5a46 46 0 0 1-6.8-12.6c2.4.5 5.4 8.7 7.8 11.6 6 7 25.3 8.6 31.1 4.1v.1Z" fill="#6F725F"/><path fill-rule="evenodd" clip-rule="evenodd" d="m91.5 171-.2.8c-9-.8-13.3-.6-21-5h-.1l-.1-.2c-5.8-4.6-8.5-8.6-9-15.8-.2-2-.5-5.4-.3-8.2.1-1.3.3-2.6.7-3.4l.3-.7.7-.3c1.6-.7 3.5-1 5.1-.2a26.997 26.997 0 0 1 10.1 9.2c2.6 3.5 5 7.2 8 9.6 1.3 1 4.4 1.9 6.5 2.4 13.4 2.9 7.7.1 21.3 2l.9.2.5.7.5.8.3.5v.7l-.2 4v.8l-.8.6c-3.2 2.4-10 3.4-17 2.6a33.974 33.974 0 0 1-6.2-1.2v.1Zm22-3 .3-4-.5-.8c-13.7-2-8 .8-21.5-2.1-2.4-.5-5.8-1.7-7.2-2.8-6.3-4.9-10.3-15.3-17.8-18.5-1-.5-2.4-.3-3.5.2-1 2.3-.5 8-.3 10.6.5 6.6 3 10.3 8.3 14.5 7.4 4.3 11.4 4 20.2 4.7-4-1.3-7.2-2-10.1-5a45.997 45.997 0 0 1-6.8-12.6c2.4.5 5.4 8.7 7.8 11.6 6 7 25.3 8.6 31.1 4.1v.1Z" fill="#000"/><path d="M113.6 102c-.3-5.6-4-9.3-9.8-10.8-12-3-16.5-.3-19.3.8-2.1.9-6.1 5.7-8.3 6.6L76 98c2.4-4.3 5-5.8 9.4-7.8-6 .6-10.5.6-16 3.2-3.3 2.5-4.8 4.8-5.2 8.8-.3 2.4-1.4 5.6-.6 8 6.9 2.6 13.8-7.8 18.5-10.2a30 30 0 0 1 31.6 2h-.1Z" fill="#6F725F"/><path fill-rule="evenodd" clip-rule="evenodd" d="M85.5 89.5c3-1.3 8.2-2.8 18.8-.2 6.8 1.8 11 6.1 11.3 12.5l-3 1.8a27.999 27.999 0 0 0-29.7-1.8c-2.8 1.4-6.3 5.7-10.2 8.3-3.2 2.1-6.6 3.2-10 1.9l-.8-.4-.3-.9a9.801 9.801 0 0 1-.3-3.9c.2-1.6.7-3.4.8-4.8.5-4.6 2.2-7.3 6.1-10.2h.2l.1-.2c5.6-2.7 10.3-2.7 16.6-3.4l.4 1.3Zm28.1 12.4c-.3-5.5-4-9.2-9.8-10.7-12-3-16.5-.3-19.3.8-2.1.9-6.1 5.7-8.3 6.6L76 98c2.4-4.3 5-5.8 9.4-7.8-6 .6-10.5.6-16 3.2-3.3 2.5-4.8 4.8-5.2 8.8-.3 2.4-1.4 5.6-.6 8 6.9 2.6 13.8-7.8 18.5-10.2a30 30 0 0 1 31.6 2l-.1-.1Z" fill="#000"/><path d="M180.6 248.2c0 12.5.5 26.9-1 39a468.029 468.029 0 0 0-62.8-2.9l.1-20.6c.2-11.4 0-24.1 0-35.6 7.5 1.4 21.2 1.3 29 1.4 10 .2 23.8.4 33.5-1.8 1.5 7.5 1.2 12.6 1.2 20.5Z" fill="#52534C"/><path fill-rule="evenodd" clip-rule="evenodd" d="M182.6 248.2c0 12.6.5 27-1 39.3l-.3 1.9-2-.2a466.1 466.1 0 0 0-62.4-3l-2 .1v-22.6c.3-11.4 0-24.1 0-35.6v-2.4l2.3.4c7.5 1.5 21 1.3 28.8 1.5 9.8.1 23.4.3 33-1.8l2-.5.3 2c1.5 7.7 1.3 12.9 1.3 20.9Zm-2 0c0-7.9.3-13-1.2-20.5a156.028 156.028 0 0 1-33.5 1.8c-7.8-.1-21.5 0-29-1.4 0 11.5.2 24.2 0 35.6v20.6c20.943-.396 41.89.607 62.7 3 1.5-12.2 1-26.6 1-39.1Z" fill="#000"/><path d="m122 235.2-.3 10.7c-.2 5.8-.2 11.6-.2 17.3 0 2.7.7 15.2.5 16.6h-.4c-1.5-9-1-32.4-.4-42.4 0-1.6.1-1.5.8-2.2Zm30.6 1c1 9-1.5 25.2-.2 35 .3 1.6.4 5.2-.2 6.4-1-6.5-1.3-37 .4-41.5v.1Zm-17.8 15c.5 7.6 0 18.7-.8 26.2l-.4.4c-.2-.9.4-14 .5-16.1v-.3c.2-5.4 0-9.6-.3-15.1-.1-2.4-.5-7.5-.3-9.7 1 3 1.1 11 1.3 14.6Z" fill="#000"/><path d="M178.9 288.4c-5.2 15.8-50 6.8-60.3 3.7l-1.3-1c-.7-1.5-.5-3.2-.5-5.1 21.2-1.5 41.2 1.6 62 2.4h.1Z" fill="#6F725F"/><path fill-rule="evenodd" clip-rule="evenodd" d="M180.7 289c-1.7 5.4-7.3 8.5-14.9 9.7-15.8 2.6-40.3-2.5-47.8-4.7h-.3l-.2-.3-1.4-1-.4-.3-.2-.5c-.8-1.7-.6-3.8-.6-6v-1.7l1.8-.2c21.3-1.5 41.3 1.7 62.3 2.5h2.6l-.9 2.6v-.1Zm-1.8-.6c-20.9-.8-40.9-4-62-2.4 0 1.9-.3 3.6.4 5.1l1.3 1c10.4 3 55 12 60.3-3.7Z" fill="#000"/><path d="M178.5 225.9c-3 3.8-54.3 1.7-61.6 1 0-2-.2-4 .3-5.4 4-1 9.6-.9 13.7-1.6 12.2-2.1 37-5.7 47.6 6Z" fill="#6F725F"/><path fill-rule="evenodd" clip-rule="evenodd" d="M180 227c-.3.5-1 1-1.9 1.3a27.976 27.976 0 0 1-6.3 1.2c-18.365.84-36.763.606-55.1-.7l-1.8-.2v-1.8c0-2.2-.2-4.3.5-6l.3-1 1-.2c4.1-1 9.7-1 14-1.6a109.995 109.995 0 0 1 30.2-1.8c7.6 1 14.5 3.4 19 8.3l1.1 1.3-1 1.3v-.1Zm-1.5-1.1c-10.5-11.7-35.4-8.1-47.6-6-4.1.7-9.7.6-13.7 1.6-.5 1.5-.3 3.3-.3 5.3 7.3.8 58.5 3 61.6-1v.1Z" fill="#000"/><path d="M113.8 227.6c.5 16.6.8 41.5-.2 57.8-9.3 4.5-7.7 5-16.4 5.4-12.9.6-16.2-4.2-24.4-11.5-3.8-2.4-5.2-2.5-9.7-2.5-.1-8.9-.2-17.7-.1-26.6 12.7 1.4 14.4-14.5 23.2-19.3 2.7-1.5 6.6-2.1 9.7-2.7 4.8-1 15.5-2 18-.6h-.1Z" fill="#52534C"/><path fill-rule="evenodd" clip-rule="evenodd" d="M115.8 227.6c.655 19.33.555 38.678-.3 58v1l-1 .6c-9.8 4.6-8.2 5.2-17.3 5.6-13.4.6-17-4.3-25.6-11.9-3.2-2-4.6-2.2-8.5-2.1h-2V248l2 .2c5.6.6 8.6-2.7 11.3-6.5 3.3-4.6 6.2-10 10.8-12.5 3-1.6 7-2.3 10.4-3 3.4-.6 9.8-1.3 14.2-1.2 2.3 0 4.1.4 5 1l1 .5v1.1Zm-2 0c-2.4-1.4-13-.3-17.9.6-3.1.6-7 1.2-9.7 2.7-8.8 4.8-10.5 20.7-23.2 19.3l.1 26.6c4.5 0 6 .1 9.7 2.5 8.2 7.3 11.5 12 24.4 11.5 8.7-.3 7.1-1 16.4-5.4 1-16.3.7-41.2.2-57.8Z" fill="#000"/><path d="M88.8 251.2c.8 6.2.4 26.9-1.4 32.4-.8-1.8.1-11 .3-14 .1-7 0-13.9-.4-20.8-.1-2.2-1.5-10.7-.4-12 1.3 1.4 1.8 12 1.9 14.4Zm19.3 2.1c.165 9.042-.504 18.08-2 27-.7-1.2.4-17 .5-20 .2-5.6 0-11.2-.4-16.7-.2-2.1-1-7.1-.9-8.8 2.5 2.6 2.6 14.4 2.8 18.5ZM96.8 258c0 3.3.1 21-2 22.4 0-6.8.5-14.8.6-21.9 0-4.6-1.5-19-.8-21.8 1.3 1.1 2 18.4 2.2 21.3Z" fill="#000"/><path d="m113.5 220.8.3 4-.5.7c-13.7 2-8-.8-21.5 2.1-2.4.5-5.8 1.7-7.2 2.8-6.3 4.9-10.3 15.3-17.8 18.5-1 .5-2.4.3-3.5-.2-1-2.3-.5-8-.3-10.6.5-6.6 3-10.3 8.3-14.5 7.4-4.3 11.4-4 20.2-4.7-4 1.3-7.2 2-10.1 5a46 46 0 0 0-6.8 12.6c2.4-.5 5.4-8.8 7.8-11.6 6-7 25.3-8.6 31.1-4.1Z" fill="#6F725F"/><path fill-rule="evenodd" clip-rule="evenodd" d="M91.5 217.8c2-.6 4.2-1 6.3-1.2 6.9-.8 13.7.2 17 2.6l.6.6v.8c.2 1.3.2 2.7.3 4v.7l-.3.5-.5.8-.5.7-.9.1c-13.6 2-7.9-.8-21.3 2.1-2.1.5-5.2 1.5-6.4 2.4-3 2.4-5.5 6-8 9.6-3 3.9-6.2 7.5-10.2 9.2-1.6.7-3.5.5-5-.2l-.8-.3-.3-.7c-.4-.8-.6-2-.7-3.4-.2-2.8.1-6.2.3-8.2.5-7.2 3.2-11.2 9-15.8v-.1l.2-.1c7.7-4.4 12-4.2 21-5l.2.9Zm22 3c-5.8-4.5-25.1-3-31 4-2.5 3-5.5 11.2-8 11.7a44.692 44.692 0 0 1 6.9-12.5c2.9-3.1 6-3.8 10.1-5.1-8.8.7-12.8.4-20.2 4.7-5.3 4.2-7.8 7.9-8.3 14.5-.2 2.6-.7 8.3.3 10.6 1.1.5 2.4.7 3.5.2 7.5-3.2 11.5-13.6 17.8-18.5a23.988 23.988 0 0 1 7.2-2.8c13.5-2.9 7.8-.2 21.5-2.1l.5-.8-.3-4v.1Z" fill="#000"/><path d="M113.6 286.8c-.3 5.5-4 9.2-9.8 10.6-12 3-16.5.4-19.3-.7-2.1-.9-6.1-5.7-8.3-6.6l-.3.6c2.4 4.3 5 5.8 9.4 7.8-6-.6-10.5-.6-16-3.2-3.3-2.5-4.8-4.8-5.2-8.8-.3-2.4-1.4-5.6-.6-8 6.9-2.6 13.8 7.8 18.5 10.2a29.998 29.998 0 0 0 31.6-2v.1Z" fill="#6F725F"/><path fill-rule="evenodd" clip-rule="evenodd" d="m85.5 299.2-.4 1.3c-6.3-.7-11-.7-16.6-3.4l-.1-.1-.2-.1c-3.9-3-5.6-5.6-6-10.2l-.9-4.8a13.003 13.003 0 0 1 .3-4l.3-.8.8-.4c3.4-1.3 6.8-.2 10 2 3.9 2.5 7.4 6.8 10.2 8.2a28.004 28.004 0 0 0 29.6-1.8l3 1.8c-.2 6.4-4.4 10.7-11.2 12.4-10.6 2.7-15.7 1.2-18.8 0v-.1Zm28.1-12.4a29.803 29.803 0 0 1-31.6 1.9c-4.7-2.4-11.6-12.8-18.5-10.1-.8 2.3.3 5.5.6 7.9.4 4 1.9 6.3 5.3 8.8 5.4 2.6 9.9 2.6 16 3.2-4.6-2-7.1-3.5-9.5-7.8l.3-.6c2.2 1 6.2 5.7 8.3 6.6 2.8 1.1 7.4 3.8 19.3.7 5.9-1.4 9.5-5.1 9.8-10.6Z" fill="#000"/><path d="M340 124.2c.4 4.5.3 7 .1 12.6-.3 10.1-8.5 44.1-19.6 18.5a62.012 62.012 0 0 1-2.4-15.6c-1.4-8 .4-29.8 5-36 11.7-15.7 16.1 13.8 17 20.5h-.1Z" fill="#3F3F3D"/><path fill-rule="evenodd" clip-rule="evenodd" d="M342 124c.4 4.6.3 7.2 0 13a67.507 67.507 0 0 1-6 23.4c-1.1 2.3-2.5 4-4 5a5.802 5.802 0 0 1-4 1.2 7.002 7.002 0 0 1-4-2.1 26.022 26.022 0 0 1-5.3-8.4c-1-2.3-2.7-13-2.6-16.3-.8-5-.5-15 1-23.4a36.004 36.004 0 0 1 4.5-13.9c2.8-3.8 5.4-5.2 7.6-5.3 2.4-.1 4.6 1.3 6.3 3.9 4 6 6 18.7 6.5 22.8v.1Zm-2 .2c-.8-6.7-5.2-36.2-16.9-20.5-4.6 6.2-6.4 28-5 36a63.185 63.185 0 0 0 2.4 15.6c11 25.6 19.3-8.4 19.6-18.5.2-5.6.3-8.1 0-12.6h-.1Z" fill="#000"/><path fill-rule="evenodd" clip-rule="evenodd" d="M328.6 101.2c11 1.8 11.4 55.6.3 60.7 1.3-3.7 2.4-5.2 3.1-9.2-1.5.5-3 6-3.4 7.7l-1 .8c-5.7-.4-7.8-17-8.7-21.7 4.1-3.1 7-4.1 12.3-3.4 1.5.2 3 .5 4.3 1v-8.7c-.9.8-2 1.8-3 2.5-3.8.3-13.7 1.8-13.3-4.4.5-8 2.6-18.8 8.3-24.7 1.6 2.7 3 10 6.3 10.5 0-3-3.7-8.2-5.2-11.1Z" fill="#000"/><path d="M335.3 123c2 6.4-10.8 10-13.6 5-2-3.4 0-10 1-13.7.7-2.2 2-7.7 3.8-8.8 1.8 1 2.9 5.2 4.4 6.9 1.1 1.1 2.6 2.3 3.8 3.3.3 2.3.4 4.9.6 7.2v.1Zm-.3 15.8c.3 7-.7 10.4-5.7 13.7-.7.5-1.5 5.6-3 6.8-1.3-.9-1.5-1.8-2.2-3.2-2.3-6.2-3-10.1-3.2-16.7 4.3-2.3 9.8-3.4 14.1-.6Zm9.5-13.8c1.3 3 1.8 12.4-.1 15.4l-2.7.7c.7-5.6.6-11 .3-16.7l2.5.6Z" fill="#52534C"/><path fill-rule="evenodd" clip-rule="evenodd" d="M346.3 124.2a29.017 29.017 0 0 1 1.3 10.5c-.1 2.8-.7 5.4-1.6 6.8a1.998 1.998 0 0 1-1.2.8l-2.7.7a2.001 2.001 0 0 1-2.4-2.2c.7-5.4.7-10.8.4-16.3a1.995 1.995 0 0 1 1.442-1.943c.279-.081.571-.1.858-.057l2.5.6a2.004 2.004 0 0 1 1.4 1.1Zm-1.8.8-2.5-.6c.3 5.6.4 11.1-.3 16.7l2.7-.7c2-3 1.4-12.3.1-15.4Z" fill="#000"/><path d="M43.7 87.6c2.9.3 2.4-.2 4.2 1.4 1 2 1 5 1 7.3 0 10.4.5 21-.3 31.4 0 1-1.2 2.4-1.9 3.1-2 0-2.2 0-4-1a6.2 6.2 0 0 1-1.2-3.9c.6-7.1-2-33.3 2.2-38.3Z" fill="#000"/><path d="M44.4 89.1c1 .5 2 .6 2.1 1.8.6 5.5 1 35.4-.6 38.6-.7-.4-2-1-2-1.6-.8-6.3-1-34.5.5-38.8Z" fill="#D54C38"/><path d="M43.7 259.3c2.9.2 2.4-.2 4.2 1.3 1 2 1 5 1 7.3 0 10.4.5 21-.3 31.4 0 1-1.2 2.4-1.9 3.1-2 0-2.2 0-4-.9a6.2 6.2 0 0 1-1.2-4c.6-7.1-2-33.3 2.2-38.2Z" fill="#000"/><path d="M44.4 260.7c1 .5 2 .6 2.1 1.8.6 5.5 1 35.4-.6 38.7-.7-.5-2-1-2-1.6-.8-6.4-1-34.6.5-38.9Z" fill="#D54C38"/><path d="M25.2 254.8c-1.2 1.2-2.5 1-3.5.6l-1.5-.5-1-.3c0 .2-.2.5-.5.7a1.998 1.998 0 0 1-1.6.1c-.5-.1-1-.4-1.4-.6l-1-.7c-.16-.11-.328-.21-.5-.3l-2-.5-.7.2c-.4 0-.8 0-1.2-.2a16.184 16.184 0 0 1-4.7-2.5 7.294 7.294 0 0 1-1.6-1.7v-.1l-.2-.3v-.4a5.009 5.009 0 0 1-2.5-3.5v-.6a61.601 61.601 0 0 1-.2-7.3v-16.3l.1-27v-45.3a6 6 0 0 1 1-3.5c.3-.6.9-1 1.4-1.4v-.8c0-.2 0-.6.2-1 0-.5.3-1 .6-1.3 1.7-1.7 3.9-2.7 5.7-3.5.4-.2 1-.4 1.5-.3.4.1.8.4 1 .8a27.897 27.897 0 0 1 1.7-.5l.6-.7a4.993 4.993 0 0 1 2.5-1c.4 0 .9 0 1.3.2l.3.2.2.4v.2h.8l.2-1 .3-.6h4.1l.3.2.3.6c.2.3.2.6.2.8h.8l.1-.5.4-.2c.4-.3.8-.3 1.3-.3l1.2.3 1.3.7.6.8 2 .5.2-.3.2-.4.4-.1h1c.3 0 .6 0 1 .2a16.303 16.303 0 0 1 6 4.2c.3.5.3 1 .3 1.2v1.4c.9.7 1.5 1.4 1.8 2.5.3 1 .3 2.3.3 3.5v84.3c0 3.3.1 7.7-.2 11.1-.1 1-.6 1.7-1 2.1a7.044 7.044 0 0 1-.9 1l-.2 1-.1.2-.2.2c-.3.5-.8 1-1.4 1.3a19.901 19.901 0 0 1-5.5 2.8 1.404 1.404 0 0 1-1.3-.4l-2.3.6H31l-.2.3-.5.4-.7.3-.8.4c-.5.2-1.2.4-2 .2l-.1-.1-.4-.2-.2-.5h-.7l-.3.2h.1Z" fill="#272727" stroke="#000" stroke-width="2.2"/><path d="M40.6 144.6c-1.6-.2-4.6-1-6.2-1.6v-2a27.67 27.67 0 0 0-.2-1.9v-.1l.2-.6h.3l.8.3a14.996 14.996 0 0 1 4.2 2.3l.7.6.4.5v.9a7.492 7.492 0 0 0 0 1.4v.1h-.2v.1Zm-32-.6a12.385 12.385 0 0 1-3.4.5L5 144v-2l.2-.3a16.19 16.19 0 0 1 6-3.4c.1 0 .2 0 .4.4v.1a15.702 15.702 0 0 0 0 2v2c-.8.4-2 .8-3.2 1l.2.2Zm2.8 107.6-.8-.1a14.824 14.824 0 0 1-4.2-2.3L5 248v-2.6l2 .5 2.3.5c.7.2 1.2.4 2 .4l.2.6.1 1.5v2.7h-.3.1Zm23.2 0c-.1.1-.2 0-.2 0h-.1V247c2-.6 4.5-1.3 6.4-1.6l.3 1.4v.2l-.4 1.2-1 .9a18.812 18.812 0 0 1-5 2.5Zm-10.4 1.8c-.6.5-1.3.5-2.2.2l-.8-.3v-.2l.1-.3v-.9l.1-2.2v-3.2H24v3.2a49.97 49.97 0 0 0 .1 3.7h.1ZM24 143.8l-2.6-.1v-7.3H24v.8l.1.1v3.7c-.02.934-.054 1.867-.1 2.8Zm-6 109.8h-.6l-1-.5-1-.7h-.1v-.2c.2-.8.2-1.8.2-2.7v-2H18c.049.833.049 1.667 0 2.5v3.6Zm10.5-.2c-.4.1-.8.2-1 .1a2.798 2.798 0 0 0-.3-.4l.2-1v-4.5H30v3.6c0 .4 0 .8.2 1.2l-.2.2-.8.4-.7.4Zm-13-111v-1.9c0-.8 0-1.7-.2-2.3l.4-.4a3.597 3.597 0 0 1 1.8-.8h.4c.081.209.182.41.3.6v.7L18 140v2.5h-2.6l.1-.1Zm12 .2v-.5l-.1-1.6V137h.5l1 .1.8.5.4.5-.1 4.3h-2.5v.2Zm13.2 57c-1-.2-2.3-.4-3.5-.8l-4-1.2v-.4c-.2-.4-.2-1-.2-1.7-.032-.968.001-1.937.1-2.9v-.1h.1l.2-.1.3-.1c.7-.2 2.3-.7 4-1 .988-.233 1.99-.4 3-.5v.2a36.78 36.78 0 0 1 0 4.2c.03 1.4.03 2.8 0 4.2v.2Zm-35.4 12c-.2-.8-.3-2-.3-3.2l.3-3H6l1.4.2 2.6.7h.3l1.3.4c0 1.4 0 2.3-.2 3-.2.6-.4.9-.8 1-.4.3-1 .4-1.8.5-.8 0-1.8.1-2.9.4h-.6Zm0 10.3-.2-1.3v-5.1c1.6.2 3.6.7 5.2 1h.1l.6.2.6.2v3.6c-1.7.6-4.3 1-6 1.4h-.3Zm0 10.2-.2-1a35.5 35.5 0 0 1 0-5.5c1.7.3 3.5.8 5.2 1l1.3.4v3.7l-6.2 1.5-.1-.1Zm.1 10.2c-.2-.3-.2-.7-.3-1.2V236c1.7.2 3.4.7 5 1h.1l.4.1 1 .3c0 1.4 0 2.3-.2 3-.2.5-.5.9-.8 1-.5.3-1 .4-1.9.5l-2.9.5h-.3l-.1-.1Zm-.1-77.9-.2-1V158a77.239 77.239 0 0 0 6.4 1.4l.1 3.6-6.1 1.4h-.2Zm35.5 47.2a78.09 78.09 0 0 1-6.5-1.3v-3.6h.1l.1-.1.2-.1c.4 0 1-.2 1.5-.4l1.9-.4c.756-.17 1.526-.27 2.3-.3h.1l.2 1 .1 2v3.2Zm0-57.4c-2.1-.2-4.4-.8-6.5-1.4v-1.6l.1-2h.2l.2-.2c2-.4 4-1 6-1.1v6.3Zm0 20.4a49.71 49.71 0 0 1-6.3-1.3l-.1-.4v-3.2l.3-.2 3.2-.9c.79-.158 1.595-.225 2.4-.2h.2l.2 1 .1 2v3.2Zm0 47.3c-.9 0-2-.3-3.3-.6l-3.2-.8V217l.9-.3 5.5-1.1a113.8 113.8 0 0 1 0 6.4l.1-.1Zm-35.5-37-.2-1.2v-5.3c1.6.2 3.4.7 4.9 1l1 .2.6.1v3.7c-1.8.6-4.2 1-6 1.4h-.3v.1Zm35.4 0-6.4-1.5v-1.7l.1-2h.3l3.3-.8c1-.2 1.8-.4 2.8-.4v6.3l-.1.1Zm0 47.1a45 45 0 0 1-6.4-1.3v-1.8c-.01-.635.024-1.27.1-1.9h.3a42.989 42.989 0 0 1 6-1.3v6.3ZM5.3 154.2v-6.4l4.7 1 1.7.3v3.8L6 154.1c-.2.015-.4.015-.6 0h-.2l.1.1Zm35.6 88h-1a66.413 66.413 0 0 1-5.4-1.2l-.1-1.8v-2h.2l3.3-.7 3-.6v6.3ZM5.2 174.6v-2l-.2-2v-1.4l.2-.6s.2-.2 1-.2c.7 0 1.7.3 3.2.7l.6.1c.5.1.8.2 1 .4.4.1.6.3.6.5v3.1c-1.8.5-3.7 1-5.4 1.3h-1v.1Zm35.5-10.2a73.134 73.134 0 0 1-6.3-1.5v-.5c-.1-.998-.1-2.003 0-3h.1l.2-.1h.2l.2-.1 2.6-.6c.5-.2 1.1-.4 1.7-.4.5-.1 1 0 1.2.2l.2 1v2l-.1 3ZM16.6 187h-1.2v-10H18v9.8l-1.4.1v.1Zm12 0a6.314 6.314 0 0 1-1.1 0v-1.5a111.933 111.933 0 0 1 0-8.4H30v9.8l-1.4.1Zm-6 .1c-.4.025-.8.025-1.2 0v-9.6H24v9.6h-1.4ZM18 172.6h-2.6v-9.5h2.7l-.1 8.2v1.3ZM30 213h-2.6v-9.2l.1-.2 1.2-.3c.4 0 .7 0 1.2.2v1.2l.1 8.3Zm-14.6 0v-9.2l.1-.2c.5-.3.8-.3 1.2-.3l1.2.2v1.2l.1.5v7.8h-2.6Zm13.2-40.3a9.175 9.175 0 0 1-1.1 0v-1.4c-.2-2.5-.1-5.6-.2-8.2H30v9.5h-1.4v.1ZM18 241h-2.5v-9.3h2.4v1.8l.2 1v6.6l-.1-.1Zm6-68.1a2.99 2.99 0 0 1-2.5.1v-1c-.2-2.5-.1-5.5-.1-8H24v9.1-.2Zm3.4 68V237a110.202 110.202 0 0 1 0-4v-1.4H30v9.4h-2.6v-.1ZM18 157.4c.036.332.036.668 0 1h-2.6v-9.2H18v8.2Zm3.4 55.2v-9c.8-.6 1.6-.5 2.6-.3v9.2h-2.6v.1Zm7.2-54.2a9.611 9.611 0 0 1-1.1 0v-1c-.2-2.1-.1-5.8-.1-8.2H30v9.1l-1.4.1Zm-13.2 40.4v-3.9c.065-1.499.099-3 .1-4.5.2-.2.5-.2.8-.3.525.008 1.04.145 1.5.4v.6l.1.2c.2.9.2 2.3.2 3.9v3.6h-2.7Zm12 0v-3.9c.01-1.367.01-2.733 0-4.1v-.3l.4-.2 1-.2c.3 0 .6 0 .8.2l.3.1v8.4h-2.5Zm-6 0V195a149.134 149.134 0 0 1 0-3.7v-.6l.4-.2.8-.2a4.099 4.099 0 0 1 1.4.1v8.1h-2.6v.3Zm-6 28.4v-7.6c.833.04 1.667.04 2.5 0l.1 1.1v6.5h-2.6Zm12 0v-7.6H30v7.6h-2.6ZM24.1 158h-2.8v-9H24v9h.1Zm0 82h-2.7v-7.4H24v7.4h.1Zm0-13.7h-2.7v-7.4H24v7.4h.1Zm-17.7-27c-.4.1-.8.2-1 .1v-.1l-.2-1a47 47 0 0 1 .1-7.6l1.3.2c2.147.374 4.256.943 6.3 1.7a39.1 39.1 0 0 1-.1 5l-.3.2-.4.2c-1 .1-3.1.7-4.1 1l-.8.1-.8.2Z" fill="#323232" stroke="#000" stroke-width="1.1"/></g><defs><clipPath id="Frame__a"><path fill="#fff" d="M0 0h685v390H0z"/></clipPath></defs></svg>