<svg xmlns="http://www.w3.org/2000/svg" width="681" height="390" fill="none"><g clip-path="url(#a)"><path fill="#060506" fill-rule="evenodd" d="m670 306 11-2v3c-5 3-9 6-15 8 1 10 4 14-7 15l-11 19-6 2c-8 4-17 3-26 4l-22 1a662 662 0 0 1-74 2c-5-1-6-2-14-6-16-6-41-16-55-17l-13-1c0 6 0 15-7 16l-16 1-28 1c-2 4 0 3 0 5l-8 20c-4 7-4 10-12 13h-1c-2-1-7-3-8-5-2-4 3-16 5-20 1-3 4-10 7-11s7 2 9 0l2-3-11 1-21 8c-5 1-4-6-4-8h-77l-8-2-2-8h-1l-1 2c-3-4-7-3-11-4-2-1-6 3-8 4l-10 10c-9 1-15 8-24 10-6 2-14 1-21 1h-8l-8 1-12-1c-15-1-42-1-55-10l-5-5c-10 1-17 0-27-3-5-1-11-2-16-5-4-3-7-6-12-8l-10-15-2-5-2-8c0-2-2-2-2-3v-11l-2-20c5-7 9-12 18-16l9-3v-40h-3v-37l3-1v-40c-7-2-21-8-26-12l1-16c0-9 1-14 4-23 1-5 2-17 6-22 4-6 12-11 18-16 4-4 17-5 23-7l7-2h15l1-1c11-11 52-13 67-12 5 4 5 0 11 0h8c7 0 15-1 22 1l4-1c8 4 16 10 23 15 3 2 8 8 11 9h2l1 1 1-3 1 1 1 2 8-2v-2h1l2-6c11-5 26 1 36-5l3-1c2 2 6 2 7-1 2 0 1 1 3 2l2-1 2-1v3l4-2 5 1 2-1c3 0 4 3 8 2l1-2 1 2 3 1v1l8 1c0-3-1-6 1-8 4-2 20 7 25 8h10l-3-4c-2 1-6 3-8 2-5-4-8-12-10-18-3-10-6-14 6-18 2 1 5 1 7 3 4 4 13 23 14 28l-1 5c0 2 2 2 3 2 7 0 41-1 45 3 4 3 4 9 4 14h13c29-3 62-24 73-24a932 932 0 0 0 88 3c9 1 31 0 37 8 2 4 5 12 9 14l4-2v6l5 1v13l14 8v4l-15-4v5l3 8h2l-1 1v1c2 5 3 3 4 5-1 2-1 0-3 1l3 10h3l-2 2c0 2 2 4 3 5v1h-2l3 9c1 3 0 6 2 9l-1 35-2 4v34l3 4v4l-6 3 5 11v9l-2 4v3l-1 8-3 9c1 1 4-1 2 3l-4 2-2 9-1 13 3-1c0 2-1 2-2 2v1c0 2 2 6-2 5l-2 3v2h4ZM258 50l-7 3v1h-6l1 2 1 1 2 1c2 0 2-1 3-2h3v-1l1-1 1 1 1-1v-4Zm-7 11 6 6 3-3-2-5c-3 0-3 0-4 2l-2-1-1 1Zm425 180-2-1-1 4h1l2-3Zm-6-124-2-1 1-2-1-2h-1v2l-1 5 4-1v-1Zm1 2-5 1-1 2h5l1-3Zm4 127-2 1-1 7-3 8c-1 2-3 2-3 5h4c3-6 4-14 5-21Zm1-114h-1v3l1-1v-2Zm2 19c-1-2 0-8-2-10h-2c-2 3 1 17 1 22v5h1l2-1-1-8c0-1-2-1-1-2l1-3c-1-1-2-1-2-3l2 1 1-1ZM252 334l1-3 1 3 2-1 1 5 1-8c0-3 3-4 2-6-2-2-5-1-6 0l-6 7 4 3Zm419-206v-5h-2l-3 1c0 2 2 3 3 4l3 9v-7l-1-2ZM249 336l-3-2-1 1 3 1h1Zm416-59 1 3v-2l2-6h-1c-1 1-2 1-2 3v2Zm11-42-1-6-1 6 1 3v1l1-1v-3ZM315 37c1 2 4 1 5 0h-5Zm12 0h-5l4 1 1-1Zm340 69 1 3v-6h-1v3Zm10 64h-2v4l1-3 1-1Zm0-34-2 1v2h1l1-1v-2Z" clip-rule="evenodd"/><path fill="#D54C38" fill-rule="evenodd" d="m72 192-2 2v22l-2 2 1 6v3l3-1v-34Z" clip-rule="evenodd"/><path fill="#292929" fill-rule="evenodd" d="M600 241h21l-11 7c-2 2-2 6-5 8h-1l-1-9-3-5-5-1-51 2c-2 0-2 1-2 2l-1 40s-4 0-4 3 3 5 7 6c-2 7-2 15-2 17l15-1-10 2c-6 1-16 3-18 1-1-5 2-23 2-23l1-13 3-18 1-12c0-4 1-5 5-5h5l54-1Z" clip-rule="evenodd"/><path fill="url(#b)" fill-rule="evenodd" d="M343 47c-1-1-4-5-6-5l-2 1-1-3h-3c0-4-10-4-10-4h-6l-1 3c-3-3-4 0-7-1v-1l-1-1-12 2-6 3-2-2h2l11-4h7c3-1 2 2 5-1l2 2c3-1 11-2 13-1l6 1 3 1c2 1 1 2 2 3l7 6 1 2-1 1-1-2Z" clip-rule="evenodd"/><path fill="#060506" d="M313 35v1l-2-2v-1l2-1v3Z"/><path fill="#77756D" fill-rule="evenodd" d="m225 65 12-2c4 0 13-4 17-6l19-7 4-2c1-1 2-4 5-3v1l-4 3c-2 1-1 1-1 2l-4 1v1l-1 1-2-1-12 5-8 2-6 3-2 1h-1l-1 3-2-3-12 3-16 2-15 1 4-2c4-1 6 1 8-3l1 1-1 1v1h1l1-2h1v1l12-1 3-1Z" clip-rule="evenodd"/><path fill="url(#c)" fill-rule="evenodd" d="m247 51 5-1 25-7c2 0 3-1 3-2l2 2 2-2c2-1 4 1 6 1l4 1c4 1 7 3 11 3 3 2 16 4 20 4l1 1h2c3-2 2 0 4 0l5-1c11-2 14 6 18 7v-1c2 2 0 4 3 5l4 1h-6c1 8-2 15-7 21-7 7-6 8-7 15l1 1 2-1-3 2 1 1v2l1 1h-2c2 6 3 11 8 15 2 3 5 4 8 6l1-2v3l3 4h2l-1 1c-2 1-1 1-1 3l-6 9-3 1c-4 3-9 6-11 11l-2 5h3l-1 1-1 1 1 1-1 2c1 2 2 1 3 2h-3c1 3 5 7 7 9 5 3 10 11 10 13v1h1c-1 2 1 8 1 12s0 6-2 10l1 1-1 1 3 1h-3c0 2 2 2 0 3-2 2-2 1-5 2l1-1 2-1-1-4h1l2-10c1-7-1-10-2-16l-6-8-4-3-5-7-2-3h-3l2-1v-6l-1-1 1 1c3-10 4-11 13-16 2-1 0-2 2-3 3-2 5-3 6-6 3-5 0-3-2-7l1-1h-2l1-1s-10-6-13-10l-3-12-2-1 2-1c-1-1-2-1-2-3h2v-5c0-7 5-11 9-15 2-3 7-14 4-17h-1v-1l1-1-2-2 1-1c-3-1-5-6-10-4h-1v-1h-10v1h-2c-4 1-2-1-5 1v-2l-11-1v1h-1c0-2 0-2-2-2-1-1-5-2-7-1l-1-2-18-4 1 4-1 1-2-3-2-1-10 3h-1l-4 1-2 2 1-2v-1c-2 0-12 5-19 5l-3 2c-3-1-5 1-8 2-1 1 0 2-2 1h-12v1l-5 1-2 2v-3l-1 2-1 1-9 4-8 4-1 1-2-1-1 2-1-1-2 2v-2l-4 2h-3v2l-1-2-5-3-8-6-5-4-1 1-3-1-1-1h-1v-4l1 2h2l2-1 2 4c6-1 10 9 16 10h8-7l-4-3h5v-1h1v1l6 2 2-1h4c4-2 17-7 20-10h4l2-2h1v1a104 104 0 0 0 24-5l1-1 1 1Z" clip-rule="evenodd"/><path fill="#6D6154" fill-rule="evenodd" d="M313 53h1l1-1h5l2 11c5 2 5-5 5-8h6l1-2c1 3 1 11 4 11 5-3 2-9 5-10h1v11h-66l-16-1-2-6h2c1 2 2 6 4 5 3-1 2-7 4-9h1v2l1 1 1-4 1-1h1c2 2 1 10 5 11 4-1 4-12 4-16l2 3 1-5h4c1 4-2 17 4 18 4-1 3-12 3-15h4l2 3 1-2c3 3-1 10 4 15v-1c5-1 3-6 4-10Z" clip-rule="evenodd"/><path fill="#5A5753" fill-rule="evenodd" d="m267 49-3 2v2l3-2v-2Z" clip-rule="evenodd"/><path fill="#6A5645" d="M297 47v10l-2 4-2-1V46l4 1Z"/><path fill="#5A5753" d="M282 47c0 3 1 11-1 14h-1l-1-1-1-10 4-3Z"/><path fill="#6B6256" d="M311 51c0 2 1 8-1 10l-1 1-1-1V50l3 1Z"/><path fill="#6B6256" fill-rule="evenodd" d="m238 56 5-1 3 4c-2 2-5 0-6-1l-2-2Z" clip-rule="evenodd"/><path fill="#6B6256" d="m263 52-1 1-1 1h-2v-3l1-1h2l1 2Z"/><path fill="#3F3E3E" fill-rule="evenodd" d="M208 106V96l4-1v-7h22c-2 2-11 2-15 5-3 3-4 7-5 11l-1 32c0 9-2 19 5 27 6 6 13 8 21 8h7c8 2 15 3 22-2l15 2c16 2 33 5 48-5 3-2 3-5 5-6h1v6l-3 2h5l3 6h-55c-6 2-15-1-21 0h-23l-14 1c-4 0-6-1-9 1l-12-2v-68ZM337 105c-9-22-37-16-55-13-5 1-12 2-15 6-4-7-8-8-15-10h65c12 0 12-1 23 5v3l-3 1 3 14c1 3 3 5 3 8v3l-1 1-2-2-2-13-1-3Z" clip-rule="evenodd"/><path fill="#6B675D" fill-rule="evenodd" d="M347 163v-13c4-1 4-5 8-5l4-4v49-1c-1-5-8-13-12-15v-11ZM652 170v-20h15l-5 8-4 5-2 7-1 11c0 2-1 1-2 3l2 2c1 9 0 15 4 23l4 8-1 1v1c1 0 2 0 1 1h-11v-50Z" clip-rule="evenodd"/><path fill="#6D6154" fill-rule="evenodd" d="M294 39h35l1 3h4c1 1 2 6 0 8h-1l-1-3s-3 4-4 2l-2-6-2-2c-3 0-3 5-4 8l-4-1c-4 0-3-5-6-8-2 0-3 3-4 5l-9-2v-2h-5l-1-1 3-1Z" clip-rule="evenodd"/><path fill="#68513F" fill-rule="evenodd" d="M202 54h16l1 1-3 1-3 1-3 1-11 1h-33l-4-2 1-1c2-2 13-2 16-2h23Z" clip-rule="evenodd"/><path fill="#3F3E3E" fill-rule="evenodd" d="m244 64 10 7h-26l-6-3h5l11-2 2 3h1l1-4 2-1Z" clip-rule="evenodd"/><path fill="#8C8A8A" fill-rule="evenodd" d="m670 195-3-1h3l2-1c-1 3 1 2 1 3l-3-1Zm0 0v10c0 3 1 9-1 11l-1-7 1-10c0-3-1-3 1-4Zm-6 21c-8-9-8-19-8-30l-1-2 1-2c0-4 0-8 2-14 0 0 1-5 4-9l7-10 1-3 3-12 1-1c1 3-1 14-4 17l-7 10-3 4 1 1-2 7 2 2h-3v14h1v1l-1 1c-1 10 2 16 7 24l3-2c-3 2-1 4 2 5v1h-1c4 5 9 10 10 17v9h-1l-1-1v-2c1-6 0-9-3-14l-6-8-3 1 1-2h-2v-2Zm7-27 1-8 7-13c0-3-2-7 0-9h1l-1 14-1 1-5 9-1 7h-1c-2 0-2-1-2-2l2 1Zm9-32v1h-1l-2-1 1-4h1l1 4Zm0-5-1-1-1-11-3-19c4 10 4 12 4 23l1 8Zm-7-24s-2-3 0-6l1 2v7l-1-3Zm2-8-5 2 3-3-1-1 2-1 1 3Zm-1-5v1h-4v-1h4Zm-8-18-1-8 3 8 2-2v1l-3 4-1-3Zm-7-35h-1c1-2 0-2-1-4l3-2c-2 2 2 1 1 5 3 4 2 5 3 10l-5 6h-1c0-3 8-8 1-15Zm-1 31-1-9-2-1 2-1v-3l-1-2 3 1c2 1 0 2 0 3l1 1-2 1 2 10 3 6 1 5v5l-1 1v-1l-2-1c0-3 3-5 1-7l-4-8Zm15 19v1h-1l-3-11h4-2c-1 2 1 8 2 10Zm-7-6c1 4 6 6 5 8l-2-1c-4-4-3-3-4-7v-1l1 1Zm4-7v1l-2 2v-1l2-2Zm0 94v-2h3v1h-1l-2 1Zm-4 103-1-2 2 1c-1-5-1-13 1-18l2-6-5-1 1-1 5-1c0-4 2-4 3-8s1-9 3-13c0 7-2 14-4 20v1l2 1-4 2c-1 7-4 12-3 19v5l2-1-1 2v3c-3 0-3 4-3 4-2-1 0-5 0-7Zm12-50h-1l-2-1 1-1 2 2Zm-11-9s2-3 2-8l-1-8c4 2 2 13 1 15 3 3 4 6 3 10l-1 3-2-4-2-8Z" clip-rule="evenodd"/><path fill="#6B675D" d="M679 83v1l-13-3v-6l13 8Z"/><path fill="#060506" d="m184 72 4-2v1l-2 2-2-1Z"/><path fill="#5A5753" d="M324 42c2 3 2 8 2 7h-3c-1-2-1-5 1-7ZM325 54h1l-1 7h-1c-2-1-2-6-2-8h2l1 1Z"/><path fill="#151211" d="m337 159 1 1h-2l1-1Z"/><path fill="#6B675D" fill-rule="evenodd" d="M650 161v72h-50l-11 2c-8 0-66 2-68 1l-1-5c0-7 2-30 0-34 0-2-2-3-3-4l5-35 28 1h11l56 1 21 1h12Zm-65 3-2-2h-2l-1 2c0 2 1 3 3 2l2-2Zm-17-1-3-2-2 3c0 1 1 2 3 2 1 0 2-1 2-3Zm-14-2-3-1c-1 1-2 2-1 3l2 2 2-1v-3Zm-13 0c0-1-1-2-3-1-1 0-2 1-1 2 0 2 1 2 3 2 1 0 2-2 1-3Zm96 3c-1-2-2-2-3-2a2 2 0 0 0 1 5l2-1v-2Zm-26 0-1-2-3 1v2c1 2 2 2 3 2 1-1 2-2 1-3Zm-82-2-2-2h-2l-1 2c0 2 1 3 2 2 2 0 3-1 3-2Zm119 2c-1-1-2-2-3-1s-2 2-1 3a2 2 0 0 0 4 0v-2Zm-49-1c0-1-2-2-3-1l-1 3 2 1 2-1v-2Zm25 1-2-2-2 1v3l3 1 1-3Zm-46-1c-1-1-2-2-3-1a2 2 0 0 0 0 4h2l1-3Zm35 65a2 2 0 0 0-5 0l1 3h3l1-3Zm-29 2c0-2-2-2-3-2-1 1-2 2-1 3 0 2 2 2 3 2 1-1 2-2 1-3Zm14 0-2-2h-2l-1 2c0 2 2 2 3 2l2-2Zm-50 1c-1-1-2-2-3-1a2 2 0 0 0 0 4l2-1 1-2Zm-23-44-1-2-3 1v2l2 2c1 0 2-1 2-3Zm34 44a2 2 0 1 0-5 1 2 2 0 1 0 5-1Zm15-1-3-1-2 1v2l2 1 2-1 1-2Zm-49 1a2 2 0 0 0-4 0v3h3c1-1 2-2 1-3Zm11 0a2 2 0 0 0-4 0v2l3 1c1-1 2-2 1-3Zm111-3-2-2-2 1v2c1 2 2 2 3 2 1-1 2-2 1-3Zm-9-1-3-1c-1 1-2 2-1 4l3 1c1-1 2-2 1-4Zm-11 0-3-1c-1 1-2 2-1 4h3l1-3Z" clip-rule="evenodd"/><path fill="#594E42" d="m612 229-1 1h-2v-2a1 1 0 0 1 3 1Z"/><path fill="#624937" d="M583 230v2l-2-1v-1l1-1 1 1Z"/><path fill="#5C412F" d="m597 229-1 2h-1l-1-2h3Z"/><path fill="#6A5645" d="m647 164-1 2h-1v-2h2Z"/><path fill="#594E42" d="m547 231-1 2-2-1 1-1a1 1 0 0 1 2 0Z"/><path fill="#6A5645" d="M583 163v2h-2v-2h2Z"/><path fill="#5A5753" d="M540 161v2h-2v-1l1-1h1Z"/><path fill="#594E42" d="M566 163v2a1 1 0 0 1-2-1l1-1h1ZM524 187v1a1 1 0 0 1-2 0v-1h2ZM558 231v1a1 1 0 0 1-3 0l1-2 2 1Z"/><path fill="#6A5645" d="M553 162v1a1 1 0 0 1-2 0l1-2 1 1ZM636 164l-1 2-1-1v-1a1 1 0 0 1 2 0ZM577 164l-1 1a1 1 0 0 1-2-1l1-1 2 1Z"/><path fill="#6B6256" d="M527 162v1h-2v-1a1 1 0 0 1 2 0Z"/><path fill="#5A5753" d="M524 232v1a1 1 0 0 1-2 0v-2l2 1Z"/><path fill="#594E42" d="M535 231v1l-1 1h-1v-2h2Z"/><path fill="#6A5645" d="M646 228v2l-2-1v-1a1 1 0 0 1 2 0Z"/><path fill="#594E42" d="M610 164v2l-2-1v-1a1 1 0 0 1 2 0ZM637 228v1a1 1 0 0 1-2 0v-2l2 1ZM598 163v2l-2-1v-1a1 1 0 0 1 2 0Z"/><path fill="#6A5645" d="m623 164-1 2-1-1v-1a1 1 0 0 1 2 0Z"/><path fill="#594E42" d="M626 228v1a1 1 0 0 1-2 0v-2l2 1Z"/><path fill="#6D6154" fill-rule="evenodd" d="M449 287h-40V106l1-3h42v12c0 6 5 2 7 4v153h-7v10l-1 4-2 1Zm2-68-3-2h-32l-1 2v2l3 1h24c4 0 7 1 9-3Zm-33-11-3 2 1 3c3 2 28 2 33 1l2-2-1-1c-4-5-26-2-32-3Zm32-22-2-1h-31l-1 1-1 2 2 2h29l4-1v-3Zm0-16c-5-1-31-2-34 0l-1 2v2l4 1h30l1-2v-3Zm1 9-4-2h-30l-1 2-1 2a133 133 0 0 0 35 1l1-3Zm-1 15-8-2h-25l-2 2v2l2 2h26l7-1v-3Zm0 8c-4-4-26-3-32-2l-2 1-1 3 4 2 30-1h1v-3Zm1-38-1-2h-32c-2 0-4 2-2 4 3 2 28 1 33 1l2-3Z" clip-rule="evenodd"/><path fill="#6B675D" d="M449 211v1h-1a175 175 0 0 1-32 0l1-2c4-1 28-1 32 1ZM449 164v1c-4 2-28 1-33 0l1-1c4-2 28-1 32 0ZM449 219l-1 1c-4 2-27 1-32 0l1-1c3-2 29-1 32 0Z"/><path fill="#6D6154" d="m449 194-1 2h-32l1-2c3-2 28-1 32 0Z"/><path fill="#77756D" d="m440 186 9 1v1l-24 1c-2 0-7 0-8-2 2-2 20-1 23-1Z"/><path fill="#68513F" d="M449 202v1l-1 1c-4 1-29 1-32-1l1-1c4-2 29-1 32 0Z"/><path fill="#6B675D" d="M449 180h-1c-3 2-29 1-32 0l3-1c3-1 27-2 30 1Z"/><path fill="#725F4E" d="M449 171v2h-32v-2h32Z"/><path fill="#6B675D" fill-rule="evenodd" d="M636 158v1h-4l-34-1h-37l-16-1 1-18 2-16-2-11v-12l-1-25-1-4 22 4 32 6c12 3 23 6 35 7l1 32 1 14 1 24Zm-4-18-3-1a2 2 0 0 0 0 4h3v-3Zm0 14-2-1-2 1-1 2c1 1 2 2 3 1 2 0 2-1 2-3Zm-80-2h-3l-1 3 2 1 2-1v-3Zm0-64c-1-1-2-2-3-1a2 2 0 0 0 1 4l2-1v-2Zm1 15-2-1-2 1v2l3 1c1-1 2-2 1-3Zm78 9c0-2-2-2-3-1l-1 3 3 1c2-1 2-2 1-3Zm0 14-2-1-2 1v2c1 1 2 2 3 1 1 0 2-1 1-3Zm-78 13-3-2-2 3c1 2 2 2 3 2l2-3Zm-2-64c-1-1-2-2-3-1-1 0-2 2-1 3l2 1 2-1v-2Zm67 79-1-2-3 1v2a2 2 0 0 0 4-1Zm-48-2c-1-1-2-2-3-1-1 0-2 2-1 3l2 1 2-1v-2Zm31 1c0-1-1-2-3-1l-1 3 3 1c2-1 2-2 1-3Zm-48-32-1-2-2 1-1 3 3 1c1-1 2-2 1-3Zm77-25-2-2-2 1v2c0 1 1 2 3 1l1-2Zm-45 55a2 2 0 0 0-4 1l1 2 3 1v-4Z" clip-rule="evenodd"/><path fill="#594E42" d="m631 155-1 1h-2l1-2a1 1 0 0 1 2 1ZM630 127v2l-2-1 1-2 1 1ZM552 139l-1 2-2-1 1-1 1-1 1 1Z"/><path fill="#624937" d="m550 75-1 2h-1v-2h2Z"/><path fill="#594E42" d="m617 154-1 2-1-1v-2h1l1 1Z"/><path fill="#634B39" d="M551 153v2l-2-1 1-1h1Z"/><path fill="#594E42" d="M569 152v2a1 1 0 0 1-2-1v-1h2ZM631 141l-1 1h-1v-2a1 1 0 0 1 2 1Z"/><path fill="#6A5645" d="m629 96-1 1h-1v-2h1l1 1ZM551 88v1l-1 1-1-1 1-1h1ZM552 103v1l-1 1h-1v-2h2ZM601 153l-1 1a1 1 0 0 1-2 0l1-1h2Z"/><path fill="#594E42" d="m585 152-1 2-2-1 1-1h2ZM630 112v2l-2-1v-1a1 1 0 0 1 2 0Z"/><path fill="#6A5645" d="M552 121v2l-2-1 1-1 1-1v1Z"/><path fill="#6B675D" fill-rule="evenodd" d="M461 197c18 0 35 0 53-2l5 1v10c1 13-1 26 1 39v14l-1 2-11 2c-16 1-32 8-48 8l1-23v-51Zm8 2-2-1-2 1v2c0 1 2 2 3 1l1-3Zm12 0-2-1a2 2 0 0 0 0 4h2v-3Zm37 24-2-1h-2l-1 2 3 2c1 0 2-1 2-3Zm1 17c-1-1-2-2-3-1a2 2 0 0 0 0 4l2-1 1-2Zm-52 26-3-1-1 3c1 2 2 2 3 1 1 0 2-2 1-3Zm50-68-2-2-2 1v3l3 1c1-1 2-2 1-3Zm-23 63-2-1h-2l-1 3 3 1c1 0 2-1 2-3Zm0-62v-1l-3-1-1 1v3l1 1 2-1 1-2Zm25 57a2 2 0 0 0-4 1l2 2c1 1 2 0 2-1v-2Zm-40 8-2-1-2 1-1 2c1 1 2 2 3 1 2 0 2-1 2-3Zm27-65-2-2-2 1-1 2a2 2 0 0 0 5-1Zm3 59c0-1-2-2-3-1l-2 2 2 2h2l1-3Z" clip-rule="evenodd"/><path fill="#6A5645" d="M518 257v1h-2v-1a1 1 0 0 1 2 0ZM493 200l-1 1-1-1v-1h1l1 1Z"/><path fill="#634B39" d="M505 199v1a1 1 0 0 1-3 0l1-2 2 1Z"/><path fill="#594E42" d="M508 258v2a1 1 0 0 1-3-1l1-1h2ZM477 265v1a1 1 0 0 1-2 0l1-2 1 1Z"/><path fill="#6A5645" d="m516 198-1 2-1-1v-1a1 1 0 0 1 2 0ZM493 261l-1 2h-2v-2a1 1 0 0 1 3 0ZM468 200l-1 1h-1v-1a1 1 0 0 1 2 0ZM480 200l1 1a1 1 0 0 1-3 0l1-2 1 1Z"/><path fill="#594E42" d="M516 223v2l-2-1v-1a1 1 0 0 1 2 0ZM518 240l-1 1a1 1 0 0 1-2 0l1-1h2Z"/><path fill="#6A5645" d="M466 267v1h-2v-1l1-1 1 1Z"/><path fill="#6B675D" fill-rule="evenodd" d="M521 151v7h-4l-1 1v2c1 2 3 1 5 1l-2 12-2-1-2 1v3l3 1c1 2-2 13-2 16l-33 1h-22v-68l15 1h16l16 1 11-1 2 23Zm-43-18-2-2h-2v3a2 2 0 0 0 4-1Zm14 0-1-2h-2l-1 3 2 2c2-1 2-2 2-3Zm27 0-2-2h-2l-1 3c0 1 2 2 3 1l2-2Zm1 13c-1-2-2-2-3-2-1 1-2 2-1 4l2 1 2-1v-2Zm-14-13-2-2c-2 0-2 2-2 3l1 2h2l1-3Zm-40-2-3-1-2 1v2c1 1 1 2 3 2l1-1 1-3Z" clip-rule="evenodd"/><path fill="#6A5645" d="M517 133v1h-2v-1a1 1 0 0 1 2 0Z"/><path fill="#594E42" d="M519 146v1a1 1 0 0 1-2 0v-1h2ZM519 159v2a1 1 0 0 1-2-1l1-1h1ZM505 133v2l-2-1v-1h2ZM464 132v1h-1l-1-1 1-1 1 1ZM477 133l-1 1-1-1v-1h1l1 1ZM491 133v1h-1l-1-1 1-1 1 1Z"/><path fill="url(#d)" d="M332 235v17c0 11 1 23-1 34l-33-2h-29v-55c15 1 49 3 62-1l1 7Z"/><path fill="#151211" d="M274 273v6h-1c-1-5-1-38 1-43v37ZM286 238a138 138 0 0 1 0 39v-11c-2-6-8-9 0-14v-14Z"/><path fill="#5A5753" d="M286 253v9h-1v-1l-2-3 1-3 2-2Z"/><path fill="#151211" d="m305 236-1 22v19c-1-9-2-34 1-41Z"/><path fill="#6B675D" fill-rule="evenodd" d="M508 65c6 14 7 28 9 44l2 18-15 1v-1l1-2c0-2-1-2-3-2l-1 1 1 3h-25l-7-1h-9v-8h8v-16h-9a357 357 0 0 0-1-37l-2-5h7l44 5Zm-41 11-1-2-3-1-1 4c2 1 3 1 5-1Zm1 46-2-1-2 1v2c0 1 2 2 3 1l1-3Zm38-55c0-1-2-2-3-1l-1 3 2 1 2-1v-2Zm10 56a2 2 0 0 0-4 1l2 2 2-1v-2Zm-51-59-2-2-2 1-1 2c1 1 2 2 3 1l2-2Zm48 43c0-1-2-2-3-1l-1 3 2 1 2-1v-2Zm-2-15c0-1-2-2-3-1l-1 3 2 1 2-1v-2Zm-2-14-2-1-2 1v2c1 1 2 2 3 1l1-3Zm-35 47 3 1 2-2-1-2c-3-1-5 1-4 3Zm-7-38-2-1-2 1v2c0 1 1 2 2 1 2 0 2-1 2-3Z" clip-rule="evenodd"/><path fill="#6A5645" d="m466 76-2 1-1-2 1-1 2 2Z"/><path fill="#151211" d="M491 127h-4l-2-4c1-1 3-2 5-1l-1 5h2Z"/><path fill="#6A5645" d="m489 124-1 1h-1l-1-1 1-1 2 1Z"/><path fill="#594E42" d="M477 123v1l-1 1-1-1v-1h2Z"/><path fill="#6A5645" d="M515 123v2l-2-1v-1h2ZM466 122v2h-1l-1-1 1-1h1Z"/><path fill="#634B39" d="m464 64-1 1h-2l1-2h1l1 1Z"/><path fill="#6A5645" d="M512 107v2h-2l1-2h1Z"/><path fill="#594E42" d="m466 88-1 1h-2l1-2a1 1 0 0 1 2 1ZM508 78v2a1 1 0 0 1-2 0v-2h2ZM505 67v2a1 1 0 0 1-2-1l1-1h1ZM510 92v2h-2l1-2h1Z"/><path fill="#6B6256" fill-rule="evenodd" d="m512 309 2 16-9 1a930 930 0 0 1-44 4l1-1c0-2-1-3-3-3-1-2 0-6 1-7l2 2c2 0 2-1 3-3-2-3-3-2-5-1v-11l1-18h8v-16l38-8 3 29 2 16Zm0 12c-1-1-2-2-3-1s-2 2-1 3l3 1 1-3Zm-3-22-4-1-1 3c1 1 2 2 4 1l1-3Zm1 11-2-2c-2-1-2 0-3 1 1 4 3 4 5 1Zm-2-25c-1-1-2-2-3-1l-2 2c1 2 2 2 3 2l2-3Zm-2-15c-1-1-2-2-3-1a2 2 0 0 0 0 4l2-1 1-2Z" clip-rule="evenodd"/><path fill="#634B39" d="M508 300v1a1 1 0 0 1-3 0l1-2 2 1ZM508 309v1l-1 1-1-1 1-1h1Z"/><path fill="#624937" d="m507 285-1 2-2-1v-1a1 1 0 0 1 3 0Z"/><path fill="#594E42" d="m505 270-1 2-2-1 1-1h2Z"/><path fill="#634B39" d="M511 321v2h-2v-2h2Z"/><path fill="url(#e)" d="M320 103a88 88 0 0 0 0 56c-19-1-32 0-51 1v-55h6l24-1 21-1Z"/><path fill="#151211" d="m274 110-1 22 1 23c-2-6-3-41 0-46v1ZM286 114l1 23-1 15v-21l-1-14 1-5v2ZM305 146v4l-1 1c-2-5-1-27-1-34l1-5v14l1 20Z"/><path fill="#5A5753" d="M266 238v47c-11 5-22 8-33 1-4-4-8-10-14-10h-4v-25h3c8-1 13-12 17-17 7-7 22-6 31-7v11Z"/><path fill="#060506" d="m249 253-1 26-1-11v-31l2 16ZM258 270l1-12-2-22 1-1c4 8 2 33 1 42l-1 2v-9Z"/><path fill="#6B675D" fill-rule="evenodd" d="m551 33 20 1 38 1c7 1 32 1 38 7l10 18h-1l-12 1-14 1-76-2c0-5-2-9-3-13V33Zm17 22-2-1-2 1-1 2c1 1 2 2 3 1l2-3Z" clip-rule="evenodd"/><path fill="#68513F" d="m567 55-1 2h-2v-2a1 1 0 0 1 3 0Z"/><path fill="#5A5753" d="M266 116v45c-8 0-23 0-29-5l-8-10-9-8h-5v-26c10 2 14-7 21-11 6-3 15-4 22-1l8 4v12Z"/><path fill="#060506" d="M241 121c1 9 0 24-2 32-1-5 0-10 1-16l-1-33c2 5 2 11 2 17ZM241 253c1 9 0 24-2 32-1-5 0-10 1-16v-33l1 17ZM260 128c1 8 0 17-2 25v-11l1-7c0-9-2-19-1-28 2 7 2 14 2 21Z"/><path fill="#060506" fill-rule="evenodd" d="M247 147v-37c3 3 1 31 1 37l-1 4v-4Z" clip-rule="evenodd"/><path fill="#6B6256" fill-rule="evenodd" d="m544 87 1 26 1 10-2 34h-21c0-16-3-38-5-54-3-15-3-24-8-38l33 5v4l1 13Zm-17 38-4-1-1 3c1 2 2 2 3 1 2 0 2-1 2-3Zm-8-55-2-2-2 1-1 2 3 2c1 0 2-1 2-3Zm5 32-2-2-2 1v3l3 1 1-3Zm5 49a2 2 0 0 0-4 0v2c1 1 2 2 3 1l1-3Zm-1-14-1-2-3 1v3l3 1 1-3Zm-2-24-3-2c-1 1-2 2-1 3l2 2c2-1 2-2 2-3Zm-3-25-3-2a2 2 0 0 0 1 5l2-3Zm18 63-3-1a2 2 0 0 0 1 5l2-1v-3Z" clip-rule="evenodd"/><path fill="#594E42" d="m526 126-1 2-2-1 1-2 2 1Z"/><path fill="#634B39" d="M540 152v2l-2-1v-1a1 1 0 0 1 2 0ZM527 137v1l-1 1-1-1v-1h2Z"/><path fill="#594E42" d="m523 102-1 2-1-1v-1a1 1 0 0 1 2 0ZM518 70v1a1 1 0 0 1-2 0v-1h2Z"/><path fill="#634B39" d="m528 152-1 1h-1v-2l2 1Z"/><path fill="#594E42" d="m525 114-1 1-2-1 1-2 2 2ZM522 88l-1 2-2-1v-1a1 1 0 0 1 3 0Z"/><path fill="#6D6154" d="m538 134-2 2-2-1 2-2 2 1Z"/><path fill="#3F3E3E" d="M393 191v57l-2 12-2 13c-1 4-6 25-4 27l1 1c3-1 5-23 7-27v49l-1 5c-2 3-9 4-13 5V228l-8-10v-2c0-6-1-39 2-43h16v30h1c3-2 1-12 3-15v3Z"/><path fill="#6D6154" fill-rule="evenodd" d="M459 93v9h-50V76l-1-8v-7l47-1c4 10 4 22 4 33Zm-42-29-2-2-2 1v2c0 2 1 2 2 2l2-3Zm0 10a2 2 0 0 0-4 0v2c1 1 2 2 3 1 2-1 2-2 1-3Zm40 12-1-2-3 1v2c1 2 2 2 3 2 1-1 2-2 1-3Zm-2-21-2-2-2 1v2c0 2 2 2 3 2 1-1 2-2 1-3Zm1 10a2 2 0 0 0-4 0v2l4 1v-3Zm2 20-3-1-1 2 1 3 3-1v-3Zm-42 1-2-1-2 1v2c1 1 2 2 3 1 1 0 2-2 1-3Zm1-10-3-1a2 2 0 0 0 0 4h2l1-3Z" clip-rule="evenodd"/><path fill="#6A5645" d="M457 96v1h-2v-1l1-1 1 1Z"/><path fill="#594E42" d="M416 75v1h-2l1-2 1 1Z"/><path fill="#6A5645" d="M456 86v1h-2v-1l1-1 1 1ZM454 66l-1 1-1-1v-1h1l1 1ZM416 87v1a1 1 0 0 1-2 0v-2l2 1Z"/><path fill="#594E42" d="M415 97v1a1 1 0 0 1-2 0v-2l2 1Z"/><path fill="#6A5645" d="M455 75v1a1 1 0 0 1-2 0l1-1h1Z"/><path fill="#634B39" d="M415 64v1h-1a1 1 0 0 1 0-1h1Z"/><path fill="url(#f)" fill-rule="evenodd" d="m211 305 1 4h120c1-1 2-3 3-2v3l-3 2 4 1v5h-54c-4 0-3-2-7 0h-38l-2-1-3 1h-32l-1-2c-2 0-4 3-6 2l-1-2-2 2-17-1-10-1-13-2-8-1-15-3-1-3-2-7 8 1 3 2 14 2 17 2 6 1 22 2 4-7 1-34-1-14v-76a1716 1716 0 0 1 0-78c0-6 1-14-3-17h-3c-6-1-12 1-17 1-14 1-27 1-40 3l-5 1-1-9 19-2c14-2 29-2 44-3l12-2 3 1v2l-1 6 1 14v186l-1 26 1 1 1-5v-7h3v8Z" clip-rule="evenodd"/><path fill="#6D6154" fill-rule="evenodd" d="M459 288v4c0 13 0 25-3 38h-9l-14-1h1c1-1 2-3 0-4-3-1-5 1-2 4h-24l-1-10c2-1 2-2 2-4v-16l1-11h49Zm-5 37-3-1-1 4h4v-3Zm-12 4h3v-3c0-1-1-2-2-1l-2 1 1 3Zm8-37-2-2-2 1v2c0 1 2 2 3 1l1-2Zm-13-1-3-1-1 3 2 1c1 1 2 0 2-1v-2Zm-13 34c-1-1-2-2-3-1-1 0-2 1-2 3l3 1c2-1 2-2 2-3Zm-10-1-3-1c-2 1-2 2-1 3 0 1 1 2 3 1l1-3Zm13-33-3-1h-2l-1 2 2 2 3-1 1-2Zm32 0c-1-1-2-2-3-1-2 0-2 2-2 3l2 1 2-1 1-2Zm-42 0-2-2-2 1v2a2 2 0 0 0 4-1Z" clip-rule="evenodd"/><path fill="#624937" d="M444 326v2h-2v-2h2ZM413 325l-1 1h-1v-1l1-1 1 1Z"/><path fill="#594E42" d="M453 325a1 1 0 0 1 0 2h-1v-2h1Z"/><path fill="#624937" d="M422 325v2l-1-1v-1h1Z"/><path fill="#594E42" d="M425 291v1a1 1 0 0 1-2 0v-1h2Z"/><path fill="#6A5645" d="m458 292-1 1h-2l1-2a1 1 0 0 1 2 1Z"/><path fill="#594E42" d="M416 291v1h-2v-2l2 1Z"/><path fill="#6A5645" d="M449 292v1a1 1 0 0 1-2 0v-2l2 1ZM436 292v1h-2l1-2 1 1Z"/><path fill="#6B6256" fill-rule="evenodd" d="m168 28 3-2h3c2 3-3 21-2 26l-1 1h-15v-1l-2-1-1 2h-36c-3 1-24 2-26 1v-1l1-3c0-5 4-11 6-14l9-5c13-4 42-6 56-6l5 3Zm1 20c-1-2-2-2-3-1-2 0-2 2-2 3 1 1 2 2 4 1l1-3Zm-72 2-2-2-2 1v2l2 2 2-3Zm22 0a2 2 0 1 0-4 1c0 1 1 2 3 1 1 0 2-1 1-2Zm-10-1c0-1-2-2-3-1-1 0-2 2-1 3l3 1c1-1 2-2 1-3Zm61-15-2-2-2 1v3l3 1 1-3Z" clip-rule="evenodd"/><path fill="#5C412F" d="m168 49-1 1-2-1 1-1h1l1 1Z"/><path fill="#624937" d="M118 49a1 1 0 0 1-1 2h-1v-2h2ZM108 49v1l-1 1-1-1v-1h2Z"/><path fill="#594E42" d="m169 34-1 2-1-1v-1l1-1 1 1Z"/><path fill="#634B39" d="m95 50 1 1a1 1 0 0 1-2 0v-1h1Z"/><path fill="#6B675D" d="M648 63v27h-1l-13-3-29-6-81-16-40-4-6-1h22l26 1 78 2h44Z"/><path fill="#6B6256" fill-rule="evenodd" d="m596 329-1 10-2 4 3 1-2 10-3 1h-9l-27 2h-34v-26l28-1 47-1Zm-5 18h-3c-1 0-2 2-1 3l2 1 2-1v-3Zm1-14-2-2-2 1-1 2 3 2 2-3Zm-65 14-3-2a2 2 0 0 0 0 5l2-1 1-2Zm0-13-2-2-2 1v2a2 2 0 0 0 4-1Z" clip-rule="evenodd"/><path fill="#594E42" d="M590 348v1l-1 1h-1v-2h2ZM590 333v1h-2v-1l1-1 1 1Z"/><path fill="#6A5645" d="M526 347v1l-1 1-2-1 1-1h2ZM526 334v1a1 1 0 0 1-2 0v-2l2 1Z"/><path fill="#6B675D" d="M648 300v27h-4l-93 1-45 2h-23c12-3 23-3 35-4l25-5 62-12 22-5 21-4Z"/><path fill="#6B6256" fill-rule="evenodd" d="M293 194v10l-1 10-9-1-40-1c3-1 4-1 5-4v-22h3v-2l-3 1-2-9c7 0 17-2 23-1h3l12 1 7-1c2 0 1 3 2 4h2c1 2-3 7-3 8 0 5-2 2-3 5l1 1h2v-1l1 2Zm-40 16-1-2-2 1v2l2 1 1-2Zm6-34h-2v2a2 2 0 0 0 3 0l-1-2Zm12 1a2 2 0 0 0-3 1l1 1h1l1-2Zm21 6-1-1-2 1v1l2 1 1-2Zm-1-6-2-1c-1 0-2 1-1 2l1 2 2-1v-2Zm-42 16v2l2 1 1-2-1-2-2 1Zm31-16a2 2 0 0 0-3 0v2h3v-2Zm12 24-1-1-2 1v1l3 1v-2Zm-1 10-1-1h-1l-1 1 2 2 1-2Zm-17-2h-2a2 2 0 0 0 0 3l1-1 1-2Zm-23-31-1-1h-2v2l2 1 1-2Zm32 32-2-1a2 2 0 0 0 0 3l2-1v-1Zm-31-8-1-1-2 1 1 2h2v-2Zm12 8-2-1a2 2 0 0 0 0 3h1l1-2Z" clip-rule="evenodd"/><path fill="#5A5753" fill-rule="evenodd" d="M340 180v30l-3 2-25 1h-18c-2-8 0-7 0-14 1-2-1-9-1-12 1-3 4-5 4-10h-3 43l3 3Zm-2 13c-1-3-4-5-7-4s-4 4-3 7 4 5 7 4c2-1 4-5 3-7Zm-39-13v25l1 4 1 1 5-1h31l-16-1v-27h15c-1-2-33-1-37-1Z" clip-rule="evenodd"/><path fill="#77756D" d="m320 181-1 27h-6l2-3 1-4c-1-2-2-3-4-3h-5c-2 0-3 1-3 3-1 3 0 5 1 7h-4v-27l5 1c-1 1-3 4-2 6l1 3c2 1 4 2 5 1l5-2 1-4-4-5h8Z"/><path fill="#3F3E3E" d="M313 200v5l-4 2-3-2-1-2 1-3 3-1 4 1ZM313 185c1 2 0 5-2 5-2 1-4 0-5-2s0-4 2-5 4 0 5 2ZM336 193v4a3 3 0 0 1-6-2c-1-1 0-3 2-4 1-1 3 0 4 2Z"/><path fill="#6B6256" fill-rule="evenodd" d="m468 54 9-4 13-5c8-4 24-11 32-12l27-1 1 15c0 4 3 8 3 13l-88-2-28 1h-20l15-2c9 0 18 0 27-2l9-1Zm80 1c0-1-2-2-3-1a2 2 0 0 0 1 4l2-1v-2Zm-3-15-3-2a2 2 0 0 0 1 5l2-1v-2Zm-12 15c0-1-1-2-3-2a2 2 0 0 0 1 5l2-1v-2Zm-46-1-2-2-2 1-1 2c1 2 2 2 3 2l2-3Zm11 0-2-2c-2 0-3 1-2 3l2 2 2-3Z" clip-rule="evenodd"/><path fill="#624937" d="M547 55v1a1 1 0 0 1-2 0v-1h2Z"/><path fill="#634B39" d="M544 40v1a1 1 0 0 1-2 0v-1h2Z"/><path fill="#6A5645" d="m486 54-1 2-2-1v-1a1 1 0 0 1 3 0Z"/><path fill="#594E42" d="M532 55v2l-2-1v-1a1 1 0 0 1 2 0ZM497 54v1h-2a1 1 0 0 1 0-2l2 1Z"/><path fill="#6B675D" fill-rule="evenodd" d="M61 139c-2 1-5-2-6-2l-27-12-5-3 1-15 1-12 4-14v-4l16 7 9 1 6 3c-1 9-4 31-3 39l4 12Zm-32-20c-1-1-2-2-3-1-1 0-2 2-1 3l3 1 1-3Zm29-26a2 2 0 0 0-4 0v3h3c1 0 2-2 1-3Z" clip-rule="evenodd"/><path fill="#594E42" d="M57 94v1h-2v-2l2 1Z"/><path fill="#634B39" d="m28 119-1 2-1-1v-1h2Z"/><path fill="#6D6154" d="M393 89v62l-3-1-1 7v14h-11c-4 0-5-2-5-5v-49c0-5 0-22 2-26 2-2 15-2 18-2Z"/><path fill="url(#g)" fill-rule="evenodd" d="m93 348-3 1c-9 0-28-3-37-7-5-2-8-7-14-9l-5-8-6-11 5-3 8-2 21-5 5 6 1 6c1 4 3 12 6 16 4 4 11 3 15 3l4 13Zm-30-40-3-1v3l3 1v-3Zm-27 6-1-2-2 1-1 3 3 1c1-1 2-2 1-3Z" clip-rule="evenodd"/><path fill="#060506" d="M65 327v2c-1 2-1 3-3 3h-3c-4-1-7-7-9-11v-4l6 5c3 2 7 2 9 5Z"/><path fill="#6B675D" d="m64 327-1 2-1 2h-2c-3-1-6-6-8-9l-1-3 6 5 7 3Z"/><path fill="#594E42" d="M35 314v2l-2-1v-1a1 1 0 0 1 2 0Z"/><path fill="#634B39" d="m63 309-1 1h-1a1 1 0 0 1 0-2l2 1ZM46 304l-1 1h-1a1 1 0 0 1 1-2l1 1Z"/><path fill="url(#h)" fill-rule="evenodd" d="m60 249-1 9-2 20 2 18-1 1-2-3-1-1-2 1v3c-2 3-16 4-20 4l-6 2h-3v-6l-2-24 7-9c9-9 22-8 31-15Zm-4 26c0-1-1-2-3-1a2 2 0 0 0 1 4c1 0 2-1 2-3Zm-26 21c0-2-2-2-3-2l-2 2 2 2h2l1-2Zm9-33-1-2-3 1v2c0 1 1 2 2 1 2 0 2-1 2-2Z" clip-rule="evenodd"/><path fill="#6A5645" d="M55 275v2a1 1 0 0 1-2-1v-1h2Z"/><path fill="#68513F" d="M38 263v1a1 1 0 0 1-2 0v-2l2 1Z"/><path fill="#594E42" d="m29 296-1 1h-2l1-2a1 1 0 0 1 2 1Z"/><path fill="#6B675D" fill-rule="evenodd" d="m649 339 1 3-4 6-11 4-19 1-21 1 2-10v-1l-3-1c0-1 2-1 2-3l1-10h28l22-1 2 11Zm-47 6-3-1-1 3 2 1 2-1v-2Zm45-1-3-1a2 2 0 0 0 0 5l2-1 1-3Zm-45-12-1-1h-2l-1 2c0 2 2 2 3 2s2-2 1-3Zm44-1-4-1v3a2 2 0 0 0 4 0v-2Z" clip-rule="evenodd"/><path fill="#68513F" d="m645 332-1 1h-1l-1-1a1 1 0 0 1 3 0Z"/><path fill="#594E42" d="m646 345-1 2-2-1 1-2h1l1 1ZM601 332v2l-1-1v-1h1ZM602 346l-1 1-2-1v-1h2l1 1Z"/><path fill="#828282" fill-rule="evenodd" d="M546 273v-11h56v17l-56 1v-7Zm52 0-2-2-3 1v3c0 1 2 2 3 1l2-3Zm-46 0-3-1a2 2 0 0 0 1 5l2-1v-3Zm20 1-1-2-3 1v2c0 1 2 2 3 1 1 0 2-1 1-2Zm-10-1-3-1c-2 1-2 2-1 3 0 1 2 2 3 1l1-3Zm22 1c0-1-1-2-3-2-1 0-2 2-1 3l1 1h2l1-2Zm17 6v1c-1 2-2 4-5 4h-1v-3c-2-1-6-1-8 1l1 2h-4l1-2c-2-2-6-2-8 0v2l-3 1v-4c-2-1-6-1-7 1v2h-5v-3h-4c-3 0-3 0-3 2l-12 1 2-4h35l21-1Z" clip-rule="evenodd"/><path fill="#77756D" d="M601 280v1c-1 2-2 4-5 4h-1v-3c-2-1-6-1-8 1l1 2h-4l1-2c-2-2-6-2-8 0v2l-3 1v-4c-2-1-6-1-7 1v2h-5v-3h-4c-3 0-3 0-3 2l-12 1 2-4h35l21-1ZM596 273v2h-2v-2h2ZM551 274v1h-1l-1-1 1-1 1 1ZM571 274v1h-2v-2l2 1Z"/><path fill="#6B675D" d="M561 274v1a1 1 0 0 1-2 0v-2l2 1Z"/><path fill="#828282" d="M583 274v1h-2v-2l2 1Z"/><path fill="#3F3E3E" d="M378 228v78l-14-1v-34l3 1v-1l-3-3 1-4v-2h-1v-46h5c2 5 5 8 9 12ZM339 125c2 10-1 28-7 36-1 2-2 3-4 3l-3-1c-6-5-7-17-8-24-1-9 0-27 5-35 2-2 3-4 6-5l3 1c6 4 8 19 8 25Z"/><path fill="#060506" d="M328 100c11 9 10 41 5 54l-4 7h-2c-6 0-8-18-9-22l6-3v-5l-5-2c-1-7 1-17 4-23l4-4c1 2 3 9 6 10v-1l-5-11Z"/><path fill="#3F3E3E" d="M332 152c-1 3-2 7-4 9h-1c3-4 1-5 5-9ZM330 126v14l-1 3-3 7-2 4h-1c-1-1 1-8 2-10v-25l-2-9 1-2c2 2 2 5 3 7l3 7v4Z"/><path fill="#5A5753" d="m335 139-3 11-4 2c0 2 0 5-2 7l-2-2v-1l7-13 1-6 3 2ZM334 120l1 5-3 3-1-7-4-11c-1-1-2-3-1-5l3 5 5 6v4ZM324 119v8l-1 2h-1c-2-2-2-4-2-5l2-12 2 7ZM324 137c0 4 0 10-2 13l-1-1-1-10 4-2Z"/><path fill="#3F3E3E" d="M335 128v8h-3v-5c0-2 2-2 3-3Z"/><path fill="#6B675D" fill-rule="evenodd" d="M90 96v183l-2-3-1-2-2-4-1-2-1-3v-16l1-43-1-64 2-12-1-10 3-2v-1l-4-1 2-5-1-2-1-13h7Zm-2 3-1-1h-1l-1 2h2l1-1Zm0 4-1-1h-1v2h1l1-1Z" clip-rule="evenodd"/><path fill="#3F3E3E" fill-rule="evenodd" d="M208 289v-74l12-1h17l104 1-5 13 1 4-2 2h3l4 8-2 9-2 7c-4 2-1 3-3 5v-1l-1-25-1-11-5-5c-12-8-30-5-44-4l-16 3c-9-6-17-3-26-3-8 0-17 2-23 8-2 2-4 5-5 9l-1 17v27l2 12c1 3 4 5 6 7l5 2 12 1h5c4 1 8 0 12-1 5-1 9-3 12-8 1 1 2 3 4 3l6 2c11 2 22 4 33 3 9 0 20-2 23-11l1-17 1-5h2l2 16 2 8-2 7c-4 2-7 4-11 4H212l1-5-5-1v-6Z" clip-rule="evenodd"/><path fill="url(#i)" fill-rule="evenodd" d="M208 340v21l-5 2-11 1h-22c-1-10 1-19 1-28h37v4Zm-5 0c0 2 1 2 2 2l2-2c1-1 0-2-1-2h-2l-1 2Z" clip-rule="evenodd"/><path fill="#634B39" d="M206 339v1l-1 1-1-1v-1h2Z"/><path fill="#6B6256" fill-rule="evenodd" d="m170 336-1 19v10l-11-1-27-2 1-5-1-21h33l-1 3v1h4c1-1-1-2-1-4h4Zm-4 20-1-2-2 1-1 2c1 1 2 2 3 1 1 0 2-1 1-2Z" clip-rule="evenodd"/><path fill="#594E42" d="M165 356v1h-2l1-2 1 1Z"/><path fill="#6B675D" fill-rule="evenodd" d="M278 74c4-1 6-2 10-1h11v1l4-2h29l12-3v11l-8-1c1-2 1-3-1-4v2l-1 5h-2v-8c-2 2-2 3-3 7l-118 1 2-9h33l16-1c4 7 3 3 1 0l7 2h8Z" clip-rule="evenodd"/><path fill="url(#j)" fill-rule="evenodd" d="M650 123v36h-13c-1-11 0-23-2-34v-14l-1-22c5 1 9 1 13 3 4 10 3 21 3 31Zm-8-29h-3l-1 3a2 2 0 0 0 4 0v-3Zm1 36-2-2-2 1v2l2 2c2-1 2-2 2-3Zm2 23a2 2 0 0 0-4 0v3h3l1-3Zm-3-47-2-1-2 1v2c1 1 2 2 3 1 1 0 2-2 1-3Z" clip-rule="evenodd"/><path fill="#594E42" d="M642 130v1a1 1 0 0 1-2 0v-2l2 1ZM641 95v1h-2v-1l1-1 1 1Z"/><path fill="#624937" d="m644 154-1 2-1-1-1-1 1-1 2 1Z"/><path fill="#6A5645" d="M641 106v2a1 1 0 0 1-2 0l1-2h1Z"/><path fill="url(#k)" fill-rule="evenodd" d="m534 255-3 24-4 29-13 3-1-5h2l3-1-1-2-2-1-2 1-1-10-2-12-1-17c2-1 9-1 11-3s2-5 2-7l12 1Zm-5 23-2-2-2 1v3h3l1-2Zm-3 21-2-1a2 2 0 0 0 0 5l2-1v-3Zm6-41a2 2 0 0 0-4 0l1 2 3 1v-3Z" clip-rule="evenodd"/><path fill="#6A5645" d="m526 300-1 1a1 1 0 0 1-2 0l1-2 2 1Z"/><path fill="#634B39" d="m528 278-1 2-1-1v-1a1 1 0 0 1 2 0Z"/><path fill="#6D6154" d="M531 258v1l-1 1h-1l1-2h1Z"/><path fill="#6B6256" fill-rule="evenodd" d="M69 68v8l-8 11c-8-4-9-3-16-5-6-1-11-4-16-6l2-6 2-5c3-8 12-13 18-17 4 7 13 13 18 20Zm-10-6c-1-2-2-3-4-3h-2c-4 4-4 14-4 18l1 2h1l2-7c2-4 6-6 6-10Zm2 19-2-1h-2v3l3 1 1-3Zm-24-8-3-1c-1 1-2 2-1 3l2 1 2-1v-2Z" clip-rule="evenodd"/><path fill="#6B675D" d="M58 62v1l-5 7-2 5-1-1c1-4 1-11 3-13l2-1c2 0 2 1 3 2Z"/><path fill="#624937" d="m60 81-1 2h-1v-2h2Z"/><path fill="#594E42" d="m36 74-1 1h-1v-2a1 1 0 0 1 2 1Z"/><path fill="#6D6154" fill-rule="evenodd" d="m520 336-1 20c-25-7-43-22-70-23l-32-2h30l25 1 23-1h25v5Zm-3-4h-2l-1 2 2 2 2-2c1-1 0-2-1-2Zm-27 2-1-2-3 1v3l3 1c1-1 2-2 1-3Zm-8 0-1-1h-3v2c0 2 1 2 2 2s2-1 2-3Zm20 0-1-2-3 1v2c0 1 1 2 3 2 1-1 2-2 1-3Zm9-1-2-1-2 1v2c0 1 2 2 3 1 1 0 2-1 1-3Z" clip-rule="evenodd"/><path fill="#594E42" d="M517 333v2l-2-1v-1h2Z"/><path fill="#6B6256" d="M520 331v5l-1-4h-4l-7-1h12Z"/><path fill="#634B39" d="M501 334v1a1 1 0 0 1-2 0v-2l2 1Z"/><path fill="#6A5645" d="m510 334-1 1h-1v-1a1 1 0 0 1 2 0ZM489 334v1a1 1 0 0 1-2 0l1-2 1 1ZM481 334l-1 2-1-1v-1a1 1 0 0 1 2 0Z"/><path fill="#6B6256" d="M495 338v2l-1 2h-3v-1l2-3h2Z"/><path fill="#6B675D" fill-rule="evenodd" d="m82 259-3-3 1-5-3 3-3-5h1v-1l-3-2-2-5v-8l4-4v-35a4969 4969 0 0 0 0-28l-2-4c1-3 1-3-1-4l3-5 3-6c2-2 4-3 5-6v121l-1-2 1-1ZM82 271v27h-9l-3-1-5-1h-1l-1-11v-55l3 7 1 6 7 14-1 1v1l4 2-1 1v2c1 1 1 0 2-1l4 8Zm-12 21-3-1-1 1v2l1 1h1l2-3Zm7 0-3-1-1 3 2 1h2v-3Z" clip-rule="evenodd"/><path fill="#6D6154" fill-rule="evenodd" d="m204 52-31 1 1-15 2-12 3-1h23l2 23-1-1h-3l-1 1 1 3 3-1h1v2Zm-22-3-2-2h-2l-1 2 3 2 2-2Zm19-20c-1-2-2-2-3-1-1 0-2 2-1 3l3 1c1-1 2-2 1-3Zm-18-1-3-1a2 2 0 0 0 0 4h2l1-3Z" clip-rule="evenodd"/><path fill="#634B39" d="m200 29-1 2-1-1v-1l1-1 1 1ZM182 28v2a1 1 0 0 1-2-1v-1h2Z"/><path fill="#3F3E3E" d="M181 48v2a1 1 0 0 1-3-1l1-1h2Z"/><path fill="#6B675D" fill-rule="evenodd" d="m228 176-1 11h-3v1l1 2 2-2v9h-4l1 2c1 1 2 1 3-1v1l1 14h-20v-34l1-1-1-2h7v3h2l1-2h3l1-1h6Zm-1 33h-2a2 2 0 0 0 0 3l2-1v-2Zm-15 1-2-1a2 2 0 0 0 1 3l1-1v-1Zm7-1a2 2 0 0 0-3 1l2 2 1-1v-2Z" clip-rule="evenodd"/><path fill="#151211" d="m211 176-1 3h-2l1-1-1-2h3Z"/><path fill="#5A5753" d="m211 176-2 1-1-1h3Z"/><path fill="#060506" d="m227 178-2 2-2-1 1-2h1l2 1Z"/><path fill="url(#l)" fill-rule="evenodd" d="M652 273c14 15 12 35 13 54l-6 1h-10v-5l1-24 1-13 1-13Zm6 12-2-1c-1-1-1 0-2 1v2c1 1 2 2 3 1 1 0 2-2 1-3Z" clip-rule="evenodd"/><path fill="#6A5645" d="M657 285v2h-2v-2a1 1 0 0 1 2 0Z"/><path fill="url(#m)" fill-rule="evenodd" d="m243 50-2 1-2-2v3h-33l-2-21-1-5 6-1 10 6c8 6 17 12 24 19Zm-31-3c-1-1-2-2-3-1a2 2 0 0 0 0 4l2-1 1-2Zm13 0c-1-1-2-2-3-1s-2 2-1 3l2 1 2-1v-2Zm-15-17-2-2-2 1-1 2 3 2 2-3Z" clip-rule="evenodd"/><path fill="#6A5645" d="M211 47v1a1 1 0 0 1-2 0v-1h2Z"/><path fill="#5C412F" d="m209 30-1 2h-1l-1-1 1-2 2 1Z"/><path fill="#594E42" d="M224 47v2h-2v-2h2Z"/><path fill="#6B6256" fill-rule="evenodd" d="M79 113v5l-5-1c2 1 3 2 3 5l-2 2 3 1c1 2-3 14-3 17-1 3-2 8-5 12l-3-1v3h-2l-1 3-1-3v-53h12l2 1-1 2v2l2 2 1 3Zm-8-7-3-1-1 3 2 1 1-1 1-2Z" clip-rule="evenodd"/><path fill="#594E42" d="m70 107-1 1h-1v-2l2 1Z"/><path fill="#6B675D" fill-rule="evenodd" d="m93 316-3-3c-9-9-7-26-7-37l2 2 2 6v1c3 0 1 6 2 7h1l-1 2-3 1 4 2 3 12 2 4 8 8-5 5h-6l-20-1-5-17-3-4v-7l18 2c1 9 5 13 11 19l5 2-5-4Zm-5-25a1 1 0 0 0-2 0v2h1l1-2Zm-1-4a1 1 0 0 0-2 0l1 1h1v-1Z" clip-rule="evenodd"/><path fill="#6D6154" fill-rule="evenodd" d="M267 325h46l23-1v4l-1 3c-3 1-3 1-5-1l-3 2-2-5c-4-1-5 5-5 8l-4-1-3 3-1-8c0-2-2-3-4-3-3 3-2 12-3 13l-1-2v4l-6 1v-8c0-3 0-5-2-8-7-1-4 12-5 16h-5l-2 1c0-5 1-14-4-17-5 0-3 15-4 16l-1-2-2 2c-1-3-2 0-3-1-2-4 1-9-3-15h-2c-4 6-2 11-3 12-4 0-3-13 1-13h4Z" clip-rule="evenodd"/><path fill="#6D6154" d="m296 326 4 2c1 1-1 2-1 3l-1 3c0-3 0-5-2-8Z"/><path fill="url(#n)" d="M266 220v5l-4 1h-7c-6 0-9 1-15 3-8 2-16 23-24 20l-1-9c1-17 14-22 29-21-5 1-8 2-12 7l-5 9c2-1 4-5 5-7 4-8 15-10 22-10l8 1 4 1Z"/><path fill="url(#o)" d="M266 168c-7 4-15 3-22 1-12-3-13-15-17-16l1 2c3 5 5 11 11 13l2 1h2v1l-4-1c-16-1-24-8-24-25l1-4c7-4 16 17 22 19s9 3 15 3l6 1h7v5Z"/><path fill="#6A5645" fill-rule="evenodd" d="M130 335v26l-4 1c-5-1-15-2-19-4v-23h23Zm-3 23-3-2-2 1v2l2 1h2l1-2Zm-12-3c-1-2-2-2-3-2a2 2 0 0 0 0 5l2-1 1-2Zm-1-19h-1a2 2 0 0 0 1 4l2-2-2-2Zm14 1-3-1c-1 1-2 2-1 3l2 2 2-2v-2Z" clip-rule="evenodd"/><path fill="#634B39" d="m115 338-1 1-2-1 1-1h1l1 1Z"/><path fill="#5C412F" d="m127 338-1 1h-1v-1a1 1 0 0 1 2 0Z"/><path fill="#634B39" d="M125 358v1h-2a1 1 0 0 1 1-2l1 1ZM114 355v1h-2a1 1 0 0 1 1-2l1 1Z"/><path fill="#77756D" d="M331 288c-1 3-3 5-6 6-12 7-41 2-54-2l-1-1-1-5c21-1 41 1 62 2ZM328 97l-6 4-34 2h-17l-2-1v-4l1-1c3-3 28-6 34-6 7 0 18 0 24 6Z"/><path fill="#6B675D" fill-rule="evenodd" d="M95 77c-3 7-5 11-5 18l-7-1c1-16 5-13 13-25-5 3-11 10-13 16l-1 10v4l-1 2-1-2c-2-3-3-7-3-10v-5l-1-1 1-5c1-4 1-10 4-13s6-2 10-3l4 1 5 6-5 8Z" clip-rule="evenodd"/><path fill="#6B675D" d="M359 63v58l-1 3c-3-2-6-3-8-6l-1-1-1-1-1-2V88l1-2 1 1v-3l7-10 2-11h1ZM437 48v7l-21 2 1-2c0-3 1-9-2-12l-2-1-1 1c-3 3-2 9-2 12l-7-4-3-9-1-1h-2l-2 8-7-3-1-7 26 1c6 0 13-1 20 1l4 7Z"/><path fill="#77756D" d="M330 226c-5 4-52 1-61 1v-6c13-2 27-4 41-3 7 0 15 2 20 8Z"/><path fill="url(#p)" d="M437 334c0 14-3 15-16 16h-34l1-6 7-3c1 3 0 9 5 8l1-5 1-6 8-3c0 3-1 12 3 13 5-2 4-12 4-15l20 1Z"/><path fill="#77756D" d="m326 166-6 3-13 2-38-4v-5l22-1h29c2 2 3 4 6 5Z"/><path fill="#6B675D" fill-rule="evenodd" d="m631 296 2-1 2-8v9l-1 5-7 2-33 7-15 3-25 4c-13 3-26 6-39 7l-1-12 13-2c0 3-1 5 4 5l13-1 20-3 8-2c2 0 12 1 14-1l7 1h3c3-6 2-5 8-6 5-2 12-2 15-5l12-2Z" clip-rule="evenodd"/><path fill="#6D6154" fill-rule="evenodd" d="M50 175v-39l4 2v113l-4 1v-77Z" clip-rule="evenodd"/><path fill="#6D6154" d="M332 309c1-1 2-3 3-2v3l-3-1Z"/><path fill="#77756D" d="M266 101h-1l-4-2-6-2c-7-2-16-1-23 5l-9 7c-2 1-4 2-7 1v-1c-1-1 0-2 1-3l-1 1c0-5 0-9 4-12 5-4 11-4 17-5-3 2-7 4-9 8 4-1 7-6 11-7 6-2 15-1 20 2 4 1 6 4 7 8Z"/><path fill="#725F4E" fill-rule="evenodd" d="m242 339-9 7-6 7h-4l-13 7v-24h15l1 1c0 3-2 1-3 4v1l3 1 1-1v-4l3-1 3 3 1-2c2-1 6 1 8 1Zm-25 0-3-1a2 2 0 0 0 0 5l2-1 1-3Z" clip-rule="evenodd"/><path fill="#634B39" d="m216 340-1 2-1-1v-1a1 1 0 0 1 2 0Z"/><path fill="#6B675D" fill-rule="evenodd" d="M649 88V62c6 0 9 0 12 5l-2 7c-3 4-3 1-4 1v3c2 2-1 4 0 6h1c0 5 3 14 5 17 1 2-1 6-2 8l-7 8-1-12-1-6-1-11Z" clip-rule="evenodd"/><path fill="#5A5753" d="m408 285-1 32-1-4V146l-1-42c0-4 0-30 2-32l1 5v21l-1 69 1 118Z"/><path fill="#3F3E3E" d="M393 64v23h-14v-7c0-8-1-16 1-24 4 2 11 3 13 8Z"/><path fill="#77756D" fill-rule="evenodd" d="M258 297c-7 2-14 3-22-1-3-1-5-5-7-6l-1 1c0 2 7 6 9 7-10-1-20-1-21-13 0-3-1-5 1-7 4-1 10 4 13 7 7 7 16 8 25 6l7-2 4-2-3 6-5 4Z" clip-rule="evenodd"/><path fill="#151211" d="m369 176 1 18-1 20h-5l-1-2v-26l-1 13v14h-1v-76h1l1 11-1 21 1 12v-2l1-3h5Z"/><path fill="#6A5645" d="M362 199v14h-1v-76h1v62Z"/><path fill="#3F3E3E" d="m369 176 1 18-1 20h-5l-1-2c1-2 3-2 5-2v-30l-5-1 1-3h5Z"/><path fill="#6D6154" d="M347 179c3 2 7 7 9 11l-1 3 1 1h1c2 2 0 16-2 20l-2-2c1 2 2 4 0 7l-1 1 2 1-7 12v-54ZM404 149v169h-1v-76a3532 3532 0 0 0 0-146V71l1 1v77Z"/><path fill="#6B675D" fill-rule="evenodd" d="M601 234h41v22l-4-1c0-3 1-13-1-15-3-2-31-1-36-1l-25 1c-6 0-37 0-40 2-2 2-2 9-2 11h-12l-1-16 55-1h13l12-2Z" clip-rule="evenodd"/><path fill="#8C8A8A" fill-rule="evenodd" d="M251 337s-6-7-9-5h-1c-4-4-5-3-10-4l-2-1-2 1-1-2-1 1-4-2-7-2h-1l-15-2-1-1h1c6-2 25 3 31 5l3-4-2 5c5 1 14 3 18 6l4 2 1 1c2 1 3 1 3 3h-4l-1-1Zm-120-18 2 2 2 1 5 3c7 4 9 5 17 5h6l2-2 1 2 4-3 17-6h4l1-3 1 3v-1l2-1 2 2 1 1c5 0 10 1 14 3h2l11 7 3 1c3 0 2 1 4 2h1l12 2 3 1h1l6 3c-5-1-19-5-22-4l-2-1c-2-1-4 2-5-2h-1l-1-1c-5-1-4-2-8-4h-2c-2-4-8-4-11-4l-4-2-1 1-2-1-1-2-1 2-2 1-1-1v-1l-5 1h-1c-4 1-10 5-13 5l-4 2-1 2h-5l-3 2v-2h-8l-7-2v1h-1c0-2-3-5-5-5v1h-2l-1-3h-4l2-1-4-4c-4-4-5-9-7-14v-6h1c1 3 1 9 3 11l4 8 1 1Zm34 6h-2l-1-1-3 1-1-2-2 1-15-4-7-1-2-1h1c3-2 10 0 12 1l2 1 12 2 4-1v3l2-3 1 1h1c3 0 13-1 14-3h1v1l1 1c-4 0-7 2-11 3h-6v2h-1v-1Zm152 12c4-3 9-1 12-5h1l1 1 14-2 1-1v1h6l3-1 1 1c3 0 10 0 12 2l4 2h1v1c-3 1-4-1-6-2l-10-1-3-1h-2c-2 2-7 1-9 1l-26 5-1 2 2 2c13-2 20 4 31 6v1h-3l-10-4-1 1c-4 0-5 0-8-2h-2c-4-2-5 1-8-1-3-4-4-2-7 0l2-5h3l2-1Zm-43 9c-5-3-5-1-10-2l-7-5v1l-1 1v-2c2-2 5 2 7 2l6 1c3 1 4 0 7 2l3-1 2-1-1 2 5-1 14-1h3l3-1h2l3-2-2 5-4-1-2 1h-1l-1 1h-20l-1 2c-2-3-3-2-5-1Z" clip-rule="evenodd"/><path fill="url(#q)" d="m77 40-1 5c-2 4-4 12-2 15-2 1-3 5-4 7-5-6-16-14-18-21l4-2 9-1 12-3Z"/><path fill="#6D6154" d="m158 332-1 2c-1 1-72-1-80-1l-4-5h19l49 1 1 1 1 1 10 2 5-1Z"/><path fill="#5A5753" d="m247 186-1 21-1 3h-5c0-1 4-4 3-7l-2-4c-2-1-3-2-5-1l-4 2-1 4c0 4 4 6 7 8h-9v-34l1-1h5c0 3-3 4-4 7v3l5 4h4l4-6-5-6h6l2 7Z"/><path fill="#3F3E3E" d="M331 307h-78l1-1 7-3h68l2 4Z"/><path fill="url(#r)" d="M666 242v21h-14v-21h14Z"/><path fill="#68513F" d="m145 55 1 1-6 1-5 3H84l-9 2-1-1 1-1 4-3c7-2 14-1 21-1l23-1h22Z"/><path fill="#6B675D" fill-rule="evenodd" d="M666 127v21h-14v-20l14-1Zm-2 10-6-2-3 2-1 1c2 2 3 2 5 2l4-2 1-1Z" clip-rule="evenodd"/><path fill="#77756D" fill-rule="evenodd" d="M587 253h15v4h-56v-4h41Z" clip-rule="evenodd"/><path fill="#6B675D" d="M667 170v23l-2 2 2 1v1l-1 15h-1l-4-6-1-5-1-11 2-2-2-1v-9l-1-2c1-2 3-1 4-1l-2-4 7-1Z"/><path fill="#6D6154" fill-rule="evenodd" d="M276 351c-7 0-9 0-15-2l-2-7 3 2c1 1 2 6 4 5s2-5 5-3h6l1 2c2 1 2-1 4-1v1h1v-1l9-1 2 3c4 0 2-2 5-3 2 0 0 1 1 3h1c0-3 1-4 5-4l2 4c2 1 3-1 4-3s2-2 4-2h1c5 0 3 1 6 5h1c2-1 2-3 3-5 3 2 4 2 8 2l2 3c2 0 6-1 7 1h-16l-34 1h-18Z" clip-rule="evenodd"/><path fill="#68513F" fill-rule="evenodd" d="M361 61V36l32 13c2 2 1 5 1 7l-3-1c-7-3-19-8-26-9-6 6-1 9-3 15h-1Zm0 0Z" clip-rule="evenodd"/><path fill="#6B675D" d="M359 277v53l-2 1v-2l-1-1-1-2 1-2v-2l1-10c-1-7-4-7-2-14l-3 1-6-8 6-7 1 1 1-2 5-6Z"/><path fill="#6D6154" fill-rule="evenodd" d="m667 226-1 6v8h-14v-18l14-1 1 5Zm-3 5c-2-2-4-3-6-2l-3 1-1 2c2 1 3 2 5 1l4-1 1-1Z" clip-rule="evenodd"/><path fill="#594E42" d="M662 231h-1l-5 1v-1h6ZM662 137l-1 1h-5v-1h6Z"/><path fill="#6B675D" d="M375 32v2l-3 1-3-2c-5-5-10-21-10-28l6-4c3 10 8 20 10 31Z"/><path fill="#3F3E3E" d="m331 82-1 4h-68l-5-2-2-1h25l30-1h21Z"/><path fill="#6B675D" d="M375 356c-2 11-6 22-10 32l-4-2-2-1v-3c1-5 6-24 11-26h5Z"/><path fill="#634B39" fill-rule="evenodd" d="M347 50V33c1-3 10 1 12 2v25h-1c-2-2 0-5-1-5h-3l-7-5Z" clip-rule="evenodd"/><path fill="#3F3E3E" d="M377 83v4l-4 3c-2 7-1 14-1 21l-8 1V84l13-1Z"/><path fill="url(#s)" d="M359 269v2c-1 3-3 4-5 5l-7 6v-34l2 2 9 14-1 3 2 2Z"/><path fill="#68513F" fill-rule="evenodd" d="m400 134 1-2v83l-3 3v-38c0-14 0-33 2-46Z" clip-rule="evenodd"/><path fill="url(#t)" fill-rule="evenodd" d="m81 38 14 1-6 15c-6 0-13 2-15 5l5-20 2-1Z" clip-rule="evenodd"/><path fill="#6B675D" d="M650 268c1 10 0 21-3 30l-6 2v-12l2-2v-2l-2-2-1-8h4c2-2 1-5 2-7l4 1Z"/><path fill="#6D6154" d="m359 258-2-2-1-5h-2l-7-9c1-3 2-7 4-9 3-2 2-3 3-5l4-9 1 1v38Z"/><path fill="#6A5645" d="M396 80v58c0 7 0 14-2 22l1-25V93c0-10 1-23-1-32l-3-2c-4-2-21-9-25-9-1 0-1 2-3 2v-1l2-4c5 1 27 9 30 12 2 2 1 18 1 21Z"/><path fill="#6D6154" fill-rule="evenodd" d="M398 324v-20a4173 4173 0 0 1 2-73l1-3v88l-1 8c0 3 0 8-4 9l1-4 1-5Z" clip-rule="evenodd"/><path fill="#6D6154" d="M386 32v1c-1 1-4-2-8 0l-2-2-3-12-6-15V2h2c8 4 14 22 17 30ZM385 358v-1c-1-1-3 2-8 0l-1 2-3 12-6 15v2h2c7-4 14-23 16-30Z"/><path fill="#6B675D" d="M124 90c-6 2-18 2-26 8l-4 5-3-2 1-10c4-4 8-6 14-7 0 0 15-4 17-3l1 9Z"/><path fill="url(#u)" d="m342 68-4 1-5 1-32 1h-46l-9-8 3-1 7 7h35l19-1h32Z"/><path fill="#3F3E3E" d="m342 68-4 1h-47l19-1h32ZM124 73l-1 7-13 1-12 3-5 3 4-10 6-7s4 4 4 2l1-2 3 2c1 0 0-3 3-1l10 2Z"/><path fill="#6D6154" fill-rule="evenodd" d="m362 341 2 3c6-1 12-4 17-6l13-5v7l-9 4-24 10v-8c-3 3-5 4-10 4l-1-2v-1h3l1-2h1l1 2c2 0 3-2 5-3v-10l1 7Z" clip-rule="evenodd"/><path fill="url(#v)" d="M650 236v31l-4-1v-4c-1-3-1-5-3-6v-22l7 1v1Z"/><path fill="#624937" fill-rule="evenodd" d="m106 344-1 13-3-2-5-4c-3-3-4-8-5-12v-4h14v9Zm-8-7h-3c-1 0-2 1-1 2a2 2 0 0 0 4 1v-3Z" clip-rule="evenodd"/><path fill="#5C412F" d="M97 338v1a1 1 0 0 1-2 0v-2l2 1Z"/><path fill="#6A5645" fill-rule="evenodd" d="M178 334h-10l1-4h30c5 0 12-1 18 1l5 3h1l1 1h-5l-41-1Z" clip-rule="evenodd"/><path fill="#6D6154" d="M401 71v49l-1 2h-1c-2-4-1-12-1-16V64l-3-9c7 6 3 10 6 16Z"/><path fill="#3F3E3E" d="M372 112v40l-8-1v-6l2-2c3-3 2-15 1-19l2-1 2-4-1-2-5-1-1-1v-2l8-1Z"/><path fill="#6B6256" fill-rule="evenodd" d="M364 65c0-3 2-1 3-3 3-3 3-6 3-9l8 2-1 10h-13Z" clip-rule="evenodd"/><path fill="#6B6256" d="M396 283v33l-1 15c-3 2-25 11-29 11l-2-1-1-3v-1l3 2 10-3 13-5c2 0 4-1 4-3 2-4 2-10 2-14v-26c0-7-2-20 1-26v21Z"/><path fill="#828282" fill-rule="evenodd" d="m603 263 1-6h8l1 1 1 4v6l-1 4-1 1-9-1v-9Z" clip-rule="evenodd"/><path fill="#6B6256" fill-rule="evenodd" d="m377 324 1 10-4 1-2-1-1-1c-2-3-1-9-7-6v-3h13Z" clip-rule="evenodd"/><path fill="#77756D" d="M76 101v1H63c1-6 0-13 2-19l2-2 2 1 2 3v6l3-1 2 11Z"/><path fill="#6B675D" fill-rule="evenodd" d="m116 300-8 8c-5-2-9-3-13-7l-1-4 2 1 1-1-2-4v-2l1-1c5 6 13 7 20 8l5 1v6l-1 1h2l1 4-10-1 8-7-5-2Z" clip-rule="evenodd"/><path fill="#6B675D" d="M664 265v28l-4-10c-2-5-4-9-8-11v-7h12Z"/><path fill="#828282" fill-rule="evenodd" d="m628 272-1 1h-8v-16h8c2 1 3 12 1 15Z" clip-rule="evenodd"/><path fill="#8C8A8A" fill-rule="evenodd" d="M157 64h3c2 0 5-2 6-1l-1 1 4 1 3 2-8-1v1h-1v-1l-3 2-1-2h-1l-1 1-4-1c-5 1-13 7-17 6l-5-4 1 1 1-2 3 2c5 2 10-3 14-4h7v-1Z" clip-rule="evenodd"/><path fill="#3F3E3E" d="M94 303c7 4 14 7 29 8 1 0 3 5 2 6h-19c-3 0-8-3-11-5l-1-9ZM372 171l-1 2c-2 2-5 1-8 1l1-18v-3l8 1v17Z"/><path fill="#6B675D" d="M359 131v2c-1 3-2 5-5 6l-2 1c-2 2-1 3-5 5v-24l8 6-1 1 1 1h2l1 2-1 2 2-2Z"/><path fill="#3F3E3E" d="m179 74-25 2-25 3-1-1v-1l1-4h48l2 1Z"/><path fill="#6A5645" d="m663 110 1 1v15h-12v-7c4-3 9-11 9-11l2 1v1Z"/><path fill="#151211" d="m663 110-2-2 2 1v1Z"/><path fill="#8C8A8A" fill-rule="evenodd" d="M80 117c0-9-3-14-5-22v-6l-4 1c1-2 3-1 2-3l-1-3-1-2 2 2h3v5l6 21h1v1l-1 1v4l-2 2h5l-2 1c-2 1-1 4-2 5h-4l2-1h1l-2-1 1-2-2-2h1l2 1v-2Zm2 14 1-10v15c-2 6-12 19-13 22h1v3l-1 1 3 2-4 1v8l1 12v1h2l-2 2 2 2-3 2v21l-1 3-1-4v-18l1-16c-1-3-2-8-1-12l1-4 1-5 6-11c2-5 2-16 4-21h2l-1 6-1 5-2 8 4-7 1-6ZM67 231v-1l-1-5v-4l-2-7-1-1 1-2-3-14-1-2 1-1c3 4 3 15 5 19l1 3 1 7v7h3l-3 1 1 1v4l-2-1v-1l-1-1 1-2Zm24 65h-1l-1-1h2l-1-6-4-12-2-2-1-5-3-3-1-5-2 1 1-3-4-1 2-2c-5-7-8-11-9-21h2l1 8 4 4v1l3 7 1-2v3l3 3-1 2 7 12v2c1 4 5 9 5 13v1h1l2-1-2 1v4l1 1v1h-1v5h-1l-1-4v-1ZM57 189h1l-1-3v-10c1-4 5-11 8-14l-1-1-2-1h3l3-4-2 8-1-1-5 10-1 6v10l1 1 1 2-1 1-1 1-2 1h-1l3-2v-1l-2-1v-1l-2-1h2ZM86 61c-1 1-6 3-7 6-3 5-2 11-4 15l-1 1v-1c0-6 2-15 6-19 2-2 3-2 6-2Z" clip-rule="evenodd"/><path fill="#6A5645" d="m130 325 5 1-1 1H99c1-2 5-4 5-6l-3-4c4 2 11 1 15 1h10l5 5s-2 1-1 2Z"/><path fill="#3F3E3E" d="m251 319-10 9-10-3 2-3-1-1-3 3-3-1-8-2-7-2h40Z"/><path fill="#292929" d="m634 242-1 15-2-4-2-1-3 3h-8l-1-2h-4c6-6 14-8 21-11Z"/><path fill="#6B6256" d="M673 167v8c0 2-2 10-4 11-2-1-1-14-1-16v-11l1-5 3-4 1 4v13Z"/><path fill="#77756D" fill-rule="evenodd" d="M567 250h-21v-4h56v4h-35Z" clip-rule="evenodd"/><path fill="#3F3E3E" d="M617 276c2-3 6-2 8-1l1 2-9-1ZM603 276c2-3 6-3 8-2l1 2h-9Z"/><path fill="#6B675D" d="M351 304c1 6 3 9 2 15l-3 2h1v1c4 4-5 3-1 8l-2 1v-2h-1v-30c2 0 2 4 4 5Z"/><path fill="url(#w)" d="M396 165v83l-1 1v-80l1-4Z"/><path fill="#5A5753" d="M97 62h35v1h-4v2l-1 2h-13l1-3h-5c-1 4-4 0-6 2v1l-3 1-4-6Z"/><path fill="url(#x)" d="M336 320h-80c-3 2-6 8-10 9l-2-1 10-9h69l13 1Z"/><path fill="#828282" d="M602 259v1l-56 1v-2h56ZM602 251v1h-57v-1h57Z"/><path fill="#6D6154" fill-rule="evenodd" d="m57 202 1-6c2 2 1 4 1 6v26l3 2v19l-3-3-1 1v2h-1v-47Z" clip-rule="evenodd"/><path fill="#6B675D" d="m57 240 1 9h-1v-9Z"/><path fill="#77756D" fill-rule="evenodd" d="m359 344-3 2v-3c-3 1-3 3-6 3l-1-2-1 3-1-1v-12l7 1v-2h1c1 2 3 0 2 4l1 1v-1l1-2v9Z" clip-rule="evenodd"/><path fill="#3F3E3E" d="M378 309v13c-5 0-10 1-14-1v-14l14 2Z"/><path fill="#6B675D" d="M354 63c-1 7-2 13-7 18V54l3 2v1c0 2 1 1 2 2v5l2-1Z"/><path fill="#6B675D" fill-rule="evenodd" d="m62 303-20 5-2-5v-1l7-1c4-1 8-3 13-3l2 5Zm-15 1-2-2-2 1v2l2 1 2-2Zm-6 4h-1l-6 2-6 3-1-6-1-3 13-2 2 6Z" clip-rule="evenodd"/><path fill="#5A5753" d="M63 162h-2c-4 1-2 8-4 11v-34l4 2 1 4-1 13-1 1v1l3 2ZM204 61l-10 5h-10l-2-2c-2-1-2 1-3 1h-4l-1-1-4-3h34Z"/><path fill="#8C8A8A" fill-rule="evenodd" d="M343 243c0-2-3-4-3-7l-1-3h-2l2-1-1-1v-3h4l-1 3 1 2h-2l4 7 12-20v1c0 5-5 11-8 15l-3 6 9 10h2v3l5 9 3-1c-1 3-2 1-2 5l3 2v1l-3-2-2 6-7 7v2h-1v-1l-8 8-4 15 1 1c-1 1-2 1-2 3l-1 4 1 13-3-5 1-10h-3l3-1v-3l-1-3h1l1 1 1-4c2-12 10-21 19-28l3-6-2-1v-3c-1-4-11-18-15-20v3c-1 3-4 9-3 12l1 1-1 1v4l1 2-2-1c-1 3 1 8 2 11v7l1 3v1l-1 1-2-4c0-3-2-17-1-20l-6-1 5-1-1-1 2-4c2-6 1-10 4-15Zm9 83c0-1 2-1 2-5h-3l3-1v-5c0-7-1-11-5-16l-2-1 1-1c-1-1-4-4-3-6h1l3 6c2 2 2 4 4 3l1 3 2 13-1 6v1c0 2-1 5-3 7v-3l-2 1v-1h1l1-1Zm-7-115c0 4-3 6-4 9l-1 7-1 1v-2c-1-6 2-10 6-15Z" clip-rule="evenodd"/><path fill="#292929" d="M611 278c-3 10 1 14 2 15h-13l-1-6c3-2 4-4 5-9h7Z"/><path fill="#3F3E3E" d="M377 67v14l-13 1V67h13Z"/><path fill="#5A5753" d="M62 86v16l-1 9h-1v2l1 1 1 20-2-1-2-8c-1-8 2-31 4-39Z"/><path fill="#8C8A8A" fill-rule="evenodd" d="m153 56 2 1-1 1-8 1-11 4-3 5h-2c-4 3-5 17-2 19l1 2h-3c-4-5 1-20 4-23l-1-2v-1l2 1c2 0 7-4 9-6l7-2h6Z" clip-rule="evenodd"/><path fill="#6A5645" d="M362 62v65l-1-1V63l1-1Z"/><path fill="#060506" d="m563 293-1 2h-5l1-2h5Z"/><path fill="#5A5753" d="M62 294v4h-1l-1-4c-3-11-1-23 0-34l1-8 1 42Z"/><path fill="#3F3E3E" d="M342 67h-83l2-1h62c6 0 14-1 19 1Z"/><path fill="#828282" fill-rule="evenodd" d="m634 267-1-10h9l1 10c0 2 0 5-2 6l-1-1c-1-2 1-3 1-5h-7v6-6Z" clip-rule="evenodd"/><path fill="#6D6154" d="M362 272v59h-1v-56l1-3ZM680 217v2c-1 2-4 2-5 3v-41c2 1 1 28 2 32l3 4Z"/><path fill="#6B6256" fill-rule="evenodd" d="M464 273c3 0 4 0 4 3v11l-7-1v-13h3Z" clip-rule="evenodd"/><path fill="#6D6154" d="m468 103-1 14h-6v-13l7-1Z"/><path fill="#3F3E3E" d="m336 322-1 1a1439 1439 0 0 1-76-1h77Z"/><path fill="#5A5753" d="M257 303c-7 6-20 4-29 4h1l2-1c8-4 17-3 26-3Z"/><path fill="#151211" d="M67 211v5l-1-3 1-2Z"/><path fill="#828282" fill-rule="evenodd" d="M568 295v-3h6c2 3 1 9 1 12h-7v-9Zm6-2h-5v2l5-1v-1ZM578 295v-3h6c2 3 1 9 1 12h-7v-9Zm6-2h-5v2l5-1v-1ZM588 295l1-3h6v12h-7v-9Zm6-2h-5v2l5-1v-1ZM556 295v-3h6l1 12h-7v-9Zm6-2h-5v2l4-1 1-1Z" clip-rule="evenodd"/><path fill="#624937" d="m460 273-1 13h-6l1-13h6ZM460 104v13l-6-1v-12h6Z"/><path fill="#895C45" d="M633 241c-5 2-21 7-22 13l-1 2c-2 0-2 0-2-2l3-5c7-7 13-8 22-8Z"/><path fill="#292929" fill-rule="evenodd" d="M618 291c-2-5-2-5 0-9v-4h4c1 4-1 7 3 10 2 2 4 5 3 7l-7 1-3-5Z" clip-rule="evenodd"/><path fill="#5A5753" d="M344 177v32l-2 3-2 1v-1l1-2 1-2v-26l-2-5h4Z"/><path fill="#6A5645" d="M362 215v47l-1 1v-47l1-1Z"/><path fill="#6D6154" fill-rule="evenodd" d="m279 39-1 2c-2 2-6 2-9 3l-3-4c-3 0-2 4-4 6l-2-1 1-5c5-2 12-2 18-2l7 1-2 1h-1l-1 1c-1 0-1-2-3-2Z" clip-rule="evenodd"/><path fill="#895C45" fill-rule="evenodd" d="M549 292c-2-1-11 1-11-4 2-2 13-2 15-1 1 2-1 5-4 5Z" clip-rule="evenodd"/><path fill="#6B6256" d="m665 74-2 22a30 30 0 0 1-3-11l1-1v-1l-1-2 2-2v-1l-1-1v-1l3-4 1 2Z"/><path fill="#6D6154" d="M359 349v5c-2 1-10 5-12 4v-7l8-1 1 2h1v-2l2-1Z"/><path fill="#5A5753" d="M78 63c-3 6-4 12-5 18l-5-1 2-3v-5l3-8 5-1Z"/><path fill="#3F3E3E" d="M159 316h-29l-3-4h1l15 2 16 2Z"/><path fill="#151211" d="M335 346c-4 0-5 0-8-2l8 2Z"/><path fill="#594E42" d="M600 244v1l-54-1 1-1h51l2 1Z"/><path fill="#3F3E3E" d="m49 177-1 34-2 1c0-4-1-34 1-35h2ZM232 303h-1l-2 2c-6 2-11 2-17 2v-4h20Z"/><path fill="#5A5753" d="M257 86h-21l-5-3 20 1 6 2Z"/><path fill="#6B6256" d="M344 315v12c0 3-1 3-2 3l-2-4-1-12 5 1Z"/><path fill="#3F3E3E" d="m233 86-20 1-1-3h5c6-1 10 0 16 2Z"/><path fill="#6D6154" d="m402 321 1 15c-3 1-5 3-8 3 0-5 4-4 5-8l1-10h1Z"/><path fill="#3F3E3E" d="M241 183c1 2 0 5-2 6s-4 0-5-2 0-5 2-6 5 0 5 2ZM242 204l-2 3-3 1c-2 0-3-2-4-3l1-2c0-2 1-2 2-3h4l2 4Z"/><path fill="#634B39" fill-rule="evenodd" d="M208 88V73l2-2 2 1-2 7 1 9c0 2 1 5-1 7h-1c-2-2-1-4-1-7Z" clip-rule="evenodd"/><path fill="#6A5645" d="m297 332-1 8-1 2-1-1c-2-1-1-2-2-4l1-7 2-2h1l1 4Z"/><path fill="#77756D" d="M679 306c-2 3-9 6-13 8v-6l13-2Z"/><path fill="#5A5753" d="m345 130-1 9-2 2-1-1v-4l1-12 1 1c2 1 2 4 2 5ZM415 337c0 3 1 6-1 8l-1 1-1-5-1-6 4-4v6ZM282 336v2l-4 5a55 55 0 0 1 1-13l1-2 1 1 1 7Z"/><path fill="#6D6154" d="m658 330-5 7-2 4-1-4-1-7h9Z"/><path fill="#5A5753" d="M415 49v6l-2 2-2-4c0-3 0-6 2-8l1-2 1 6Z"/><path fill="#6D6154" d="M402 59v10c-2-3 0-8-2-11-1-1-3-2-3-4l-1-2h1l5 1v6Z"/><path fill="#8C8A8A" fill-rule="evenodd" d="m111 66 2-1-1 2c5 2 9 3 14 2v1l-1 1c-3 2-9-2-13-2l-2 1-3-1-1 1v1l-1-1v-3l1-1v1l5-1Z" clip-rule="evenodd"/><path fill="#6B675D" d="M616 267c1-7-1-8-1-13h2c2 5 1 16 0 22h-3c2-3 2-7 2-9Z"/><path fill="#5A5753" d="m600 299-1-4h1v4Z"/><path fill="#6A5645" d="M268 332v9l-4-2v-4c0-2 0-6 2-7l2 4Z"/><path fill="#3F3E3E" d="M345 271v4c0 2 1 9-1 10l-2-4c2-4-1-9-1-13h3l1 3ZM344 142v5c-3 3-4 5-5 9l-2 2 2-10 1-5 4-1Z"/><path fill="#77756D" d="M410 58v1l-3 1-3 11V54l6 4Z"/><path fill="#6B675D" d="M667 163v6h-4l-2-1 1-2v-2l4-7 1 6Z"/><path fill="#5A5753" d="M369 52v6l-2 4h-3v-6l2-4h3Z"/><path fill="#77756D" d="m410 331-6 5v-18l2 11 4 2Z"/><path fill="#895C45" d="M551 297v6l-4 5-4 1 7-13 1 1Z"/><path fill="#5A5753" fill-rule="evenodd" d="M157 67h1v2c2 1 4-1 6-1v1l1 1v-3h3l8 4h-32l2-1 3-1 8-2Z" clip-rule="evenodd"/><path fill="#5A5753" d="m341 334-1 10-3-1-1-8 5-1Z"/><path fill="#6D6154" d="m335 335 1 8-9-3v-4l8-1ZM344 334v12l-3-1v-11h3Z"/><path fill="#3F3E3E" d="M366 126c0 4 2 12-1 16h-1v-10l1-2-1-2v-4l2 2Z"/><path fill="#5A5753" d="m74 224-1 4-2 1-1-1 3-1v-62l1 59Z"/><path fill="#6B675D" d="M632 261v12l-2 3c-1-1 1-5 1-7 0-5 0-10-2-15l1-1h1l1 8Z"/><path fill="#5A5753" d="M311 331v4l-1 2-2 2-1-2 1-6 1-3h1l1 3Z"/><path fill="#292929" d="m635 276-1 10-2 1-2-3c-2-2-1-5-2-6l7-2Z"/><path fill="#5A5753" d="M639 281v1h-2l-1-11v-1h2l1 11Z"/><path fill="#5A5753" fill-rule="evenodd" d="M639 300v-13h-2l-1 14 3-1ZM223 72c-9 0-8-1-16-2 7-1 11-2 17 1h1v1h-2Z" clip-rule="evenodd"/><path fill="#5A5753" d="m341 53-2 8-1 1-1-1-1-8h5Z"/><path fill="#453B35" d="m550 294-6 10 2-10h4Z"/><path fill="#5A5753" d="m341 88-1 1-7-3-1-2h6l3 4Z"/><path fill="#6A5645" d="M673 207v3l-1 1-1-1v-11l1-2c2 2 1 8 1 10Z"/><path fill="#634B39" d="m119 302-7 6h-2l6-7 3 1Z"/><path fill="#6B6256" fill-rule="evenodd" d="M668 133v-2l1 1c2 7 2 8-1 15v-14Z" clip-rule="evenodd"/><path fill="#5A5753" d="M401 339c0 2 0 6-2 8h-2v-6l4-2Z"/><path fill="#6B675D" fill-rule="evenodd" d="m552 292 4-2v1l-2 2-1 13c-2-2-1-11-1-14Z" clip-rule="evenodd"/><path fill="url(#y)" d="M568 290v1c-4 3-1 10-2 14l-1-2v-9l-3-4h6Z"/><path fill="#5A5753" d="m401 46-1 4h-2l-1-2v-4l2-1 2 3Z"/><path fill="#3F3E3E" d="M636 240v15l-1 1v-15l1-1ZM369 119l-1 3-1 1-3-2v-2l1-1 3-1 1 2Z"/><path fill="#6B6256" d="m671 252-3 8v-15l3 7Z"/><path fill="#6A5645" fill-rule="evenodd" d="m339 83-3-1v-1h8c0 4-1 4-2 7l-3-5Z" clip-rule="evenodd"/><path fill="#3F3E3E" d="M344 314c-3 0-4-3-4-3l1-3 2 1c2 1 2 3 1 5Z"/><path fill="#5A5753" d="m66 227-1 1-5-1v-23h1v23h5Z"/><path fill="#3F3E3E" fill-rule="evenodd" d="m205 72-23 2 5-1h2l1-1h1l1-1h11l2 1Z" clip-rule="evenodd"/><path fill="#6D6154" d="M345 39v6l-3-3-4-3h7Z"/><path fill="#5A5753" d="M341 47v1l-2 1-3-1v-3l1-1h1l3 3Z"/><path fill="#3F3E3E" d="m342 300 1-1v8l-2-1 1-6ZM336 301h1c0 2-3 5-5 5l-1-3 5-2ZM344 218v8l-2 1v-1c-1-3 0-6 2-8Z"/><path fill="#77756D" d="M561 291h-3l-1-5h3l1 5ZM583 289l-1 1v1h-2l-1-2 1-2 1-1h1l1 3Z"/><path fill="#5A5753" d="m598 289-1 14v-11l-3-2 1-1h3Z"/><path fill="#5A5753" fill-rule="evenodd" d="m671 228 1-2 1 2v11l-2-2v-9Z" clip-rule="evenodd"/><path fill="#77756D" d="M572 291h-4l1-5h3v5Z"/><path fill="#3F3E3E" d="M344 252v5l-1 2-1-1v-1c0-2 0-5 2-6v1Z"/><path fill="#5A5753" d="M326 330v3l-2 1h-2v-1l1-3 1-2 2 2ZM325 346v-1l-1-1h-2v1l1 2 1 1 1-2Z"/><path fill="#6D6154" d="m317 340 3 1v-3 1h-2l-1 1Z"/><path fill="#77756D" d="M593 289v1l-1 1c-3 0-2-1-2-1v-2l2-2 1 3Z"/><path fill="#3F3E3E" d="m344 259 1 6-1 2-1-1-1-1v-4l2-2Z"/><path fill="#756A58" fill-rule="evenodd" d="m630 291-1-1 2-1h1v1l-2 1Zm2 0v3h-2l-1-2h1l2-1Z" clip-rule="evenodd"/><path fill="#756A58" d="M632 291v3h-2l-1-2h1l2-1ZM619 294l-1 2-2 1v-2l3-1Z"/><path fill="#5A5753" fill-rule="evenodd" d="m383 38-2-4c2-2 4 2 4 4l1 6-3-6ZM383 351l-2 4c2 2 4-2 5-3v-7l-3 6Z" clip-rule="evenodd"/><path fill="url(#z)" d="m575 305-1 3-7-1v-2h1l1 1c2 1 4 0 6-1Z"/><path fill="url(#A)" d="m585 305-1 3-7-1v-2h1l1 1c2 1 4 0 6-1Z"/><path fill="url(#B)" d="m595 305-1 3-6-1-1-2h1l1 1c3 1 4 0 6-1Z"/><path fill="url(#C)" d="m563 305-1 3-7-1-1-2h1l2 1c2 1 3 0 6-1Z"/><path fill="#5A5753" d="M645 264v4l-1 4v-14l1 6ZM267 56v3l-1 3-1-1-1-4 3-1ZM369 332h-1l-3-2v-1l1-2h1l2 5ZM382 40l-1 2-6-2h7Z"/><path fill="#6B675D" d="M382 347v2c-2 2-5 1-7 1l7-3Z"/><path fill="#3F3E3E" d="M344 153v5l-3 1v-1h1l1-4 1-1Z"/><path fill="#6B6256" d="m311 46-1 1-1-1-1-3 1-1 1 1 1 3Z"/><path fill="#5A5753" d="M673 210v5l-1 1h-1v-1l2-5Z"/><path fill="#77756D" d="m578 290-2 3-2-2h-1v-1l3-1 2 1ZM589 290l-3 3-1-2h-1v-1l2-1 3 1Z"/><path fill="#756A58" fill-rule="evenodd" d="m629 286 2 1-1 1-2 1-1-1v-1l2-1ZM627 284l2 1v1l-3 1-1-2h1l1-1ZM626 281l2 1-1 1-3 1v-2l2-1ZM626 278l1 2h-3l-1-1 1-1h2ZM616 278l1 2h-4v-2h3ZM615 281v3l-3-1v-1l1-1h2ZM614 285l1 2h-3l-1-1 1-1h2ZM615 288l1 2h-3l-1-1 1-1h2ZM616 291c1 0 2 1 1 2h-3v-2h2Z" clip-rule="evenodd"/><path fill="#77756D" d="M642 284v1h-7l2-1h5Z"/><path fill="#6B675D" d="m562 283-1 1h-5l1-1h5Z"/><path fill="#292929" d="m606 301-7 2v-1l7-1Z"/><path fill="#77756D" d="M573 284h-6l2-1c2-1 3 0 4 1Z"/><path fill="#6B675D" d="m594 283-1 1h-5l2-1h4Z"/><path fill="#5A5753" d="M326 337v3h-4v-1l4-2ZM369 337l-2 1-2-3 4 2ZM340 330v1h-3v-1l1-2 2 2Z"/><path fill="#3F3E3E" d="m553 308-3 1-1-1h1l1-2 2 2Z"/><path fill="#5A5753" d="m568 287-1 1h-5v-1h6Z"/><path fill="#6B675D" d="m584 283-1 1h-5l1-1h5Z"/><path fill="#5A5753" d="M640 268v1h-5l1-2 4 1ZM267 44v1l-2-1-1-1 2-1 1 2ZM610 295c1 0 2 0 2 2l-1 2h-1l1-2-1-2ZM608 295c1 0 2 1 2 3l-2 1v-4ZM605 295c1 0 2 1 2 3l-1 2-1-1 1-2-1-2ZM603 295c1 0 2 1 2 3l-1 2-1-1v-4ZM601 295c1 0 2 1 1 3l-1 2v-5ZM612 294c1 0 3 1 3 3l-1 2h-1v-2l-1-3ZM311 344l-1 2-2 1v-2l3-1Z"/><path fill="#6A5645" d="M264 345v2l2 1v-2l-2-1Z"/><path fill="#5A5753" d="M673 217v3h-1l-1-2 2-1Z"/><path fill="#624937" d="m461 327-1 2h-2l1-2h2Z"/><path fill="#594E42" d="M463 318v2l-2-1v-1l1-1 1 1Z"/><path fill="#634B39" d="M226 340v2l-2-1 1-1h1Z"/><path fill="#5A5753" d="m578 287-1 1h-4l1-1h4ZM589 287l-1 1h-4v-1h5Z"/><path fill="#594E42" d="M665 62v6-1l-1-2v-2l1-1ZM434 326l-1 2-1-1v-1a1 1 0 0 1 2 0Z"/><path fill="#5A5753" d="M82 102v5c-1-1-2-3-1-5h1ZM172 325l-4 2v-2h4Z"/><path fill="#594E42" d="M504 124v2h-2v-2h2Z"/><path fill="#634B39" d="m203 48-1 1h-2l1-2 2 1Z"/><path fill="#6A5645" d="M518 175v1h-2v-1l1-1 1 1Z"/><path fill="#634B39" d="M516 303v2h-2v-1l1-1h1Z"/><path fill="#6A5645" d="m56 295-1 2-1-1v-1l1-1 1 1Z"/><path fill="#68513F" d="m166 338-1 2-1-1v-1l1-1 1 1Z"/><path fill="#5A5753" d="M597 286v1l-3 1 1-1 2-1ZM556 286v2l-2 1v-2l2-1ZM189 319v1h-5v-1h5Z"/><path fill="#3F3E3E" d="M345 106v4h-1v-4h1Z"/><path fill="#6A5645" d="M296 345v1l-2 1v-1l2-1Z"/><path fill="#5A5753" d="M573 305h-4 4ZM583 305h-4 4ZM593 305h-4 4ZM561 305h-4 4Z"/><path fill="#6B675D" d="M164 334h-3 3Z"/><path fill="#3F3E3E" d="m345 96-1 1-1-2 1-1v1l1 1Z"/><path fill="#5A5753" d="M60 164h1l-1 2v-2Z"/><path fill="#3F3E3E" d="m345 100-1 3 1-3Z"/><path fill="#5A5753" d="m62 134-1 1-1-2 2 1Z"/><path fill="#3F3E3E" d="M239 88v1h-1v-1h1Z"/><path fill="#624937" d="m573 231-1 1h-2v-1a1 1 0 0 1 3 0Z"/><path fill="#77756D" fill-rule="evenodd" d="m545 279-3 4v-36s0-3 3-3v35Z" clip-rule="evenodd"/><path fill="#6A5645" fill-rule="evenodd" d="m245 333-2 2h-9l-5-3-6-2h15l3 3h4ZM233 329h-11l-7-4h-2l-3-2 5 2 6 1c2 0 2 2 2 2h3v1l2-1 5 1Z" clip-rule="evenodd"/><path fill="#676B66" fill-rule="evenodd" d="m212 329-35-1h-2l11-4 4-1 1 2 3-1h2l1 1 2-1 3 1 4 1 5 1 1 2Z" clip-rule="evenodd"/><path fill="#6D6154" fill-rule="evenodd" d="m179 319-18-2-16 1c5 1 12 3 18 2l1 1 1-1 2 1 12-2ZM134 320l5 1 16 4 2-1 1 2h4l1 1-1 2-14-1-14-8Z" clip-rule="evenodd"/><path fill="#6B6256" fill-rule="evenodd" d="M269 48v3l9-5-7 2h-2Z" clip-rule="evenodd"/><path fill="#5A5753" fill-rule="evenodd" d="m242 61-5-4-3 2-6-1s-5 0-6 2c-3-1-7 2-7 2h-2l-5 2 3 1 2 1 12-2 10-2 7-1ZM162 62l-1-1h-1l-3-1-2-1s-15 2-18 5l-2 2s2 3 5 2c3-2 10-5 13-5l3 1 1-1h3l2-1ZM61 173v16l-1-1v-12l1-3Z" clip-rule="evenodd"/><path fill="#3F3E3E" fill-rule="evenodd" d="m197 92-1-4-3-3-6 1-36 3-20 2s-28 3-31 10c-4 5-6 5-6 5l-2-1v174s4 12 14 15 27 5 27 5l4 3 51 6c4 0 7-1 8-5l1-6V92Z" clip-rule="evenodd"/><path fill="url(#D)" d="M187 238v16l-1 35-33-2h-30v-5l1-51c14 1 49 3 62-1l1 8Z"/><path fill="#000" fill-rule="evenodd" d="m188 238 1 16-1 35-2 2-33-2a239 239 0 0 0-31-1l-1-2 1-4v-52l2-1a252 252 0 0 0 63 0l1 1v8Zm-1 0-1-8c-13 4-48 2-62 1l-1 51v5h30l33 2 1-35v-16Z" clip-rule="evenodd"/><path fill="#151211" d="m129 276-1 6c-1-6-2-38 0-43v10l1 27ZM140 241a137 137 0 0 1 0 38v-11c-2-6-7-9 0-14v-13Z"/><path fill="#5A5753" d="m141 256-1 8v1l-1-1-2-4 2-3 2-1Z"/><path fill="#151211" d="M159 239v39l-1 2c0-10-2-34 1-41Z"/><path fill="#5A5753" d="m121 241-1 46c-10 6-21 9-32 1-5-3-9-9-15-9l-3-1v-25h3c7 0 12-11 17-16 6-7 22-7 30-7l1 11Z"/><path fill="#000" fill-rule="evenodd" d="M122 241a993 993 0 0 1-1 48c-11 6-23 9-34 1l-7-6c-2-2-4-3-7-3l-4-1-1-1v-26l1-1 1-1 3 1 6-4 10-13c2-3 7-4 12-5 6-2 14-2 19-2l2 1v12Zm-1 0-1-11c-8 0-24 0-30 7-5 5-10 16-17 16h-3v25l3 1c6 0 10 6 15 9 11 8 22 5 32-1l1-46Z" clip-rule="evenodd"/><path fill="#060506" d="M103 256c1 5 1 18-1 26v-26c0-5-2-12-1-17 2 1 2 14 2 17ZM113 273v-12l-1-22v-1c4 7 2 33 1 42v2-9ZM96 255c0 9 0 24-2 33v-49l2 16Z"/><path fill="url(#E)" d="M120 223v5h-10l-15 3c-9 2-17 23-25 20v-8c0-17 14-22 29-21-6 1-9 1-12 6l-5 10c2-1 4-6 5-8 4-7 14-9 22-9l8 1 3 1Z"/><path fill="#000" fill-rule="evenodd" d="M99 220a49 49 0 0 1 10-1 38 38 0 0 1 9 1l3 1 1 2v5l-1 2h-11l-15 3c-2 0-3 2-5 4l-9 10-5 5c-2 1-4 2-6 1h-1l-1-3v-7c0-8 3-13 7-17 6-5 15-7 24-6Zm21 3-3-1-8-1c-8 0-18 2-22 9-1 2-3 7-5 8l5-10c3-5 6-5 12-6-15-1-29 4-29 21v8c8 3 16-18 25-20l15-3h10v-5Z" clip-rule="evenodd"/><path fill="#77756D" d="m185 291-5 6c-12 7-41 1-55-2l-1-1-1-6c21 0 41 2 62 3Z"/><path fill="#000" fill-rule="evenodd" d="m187 292-6 6c-5 3-13 4-22 4a168 168 0 0 1-36-7l-1-3v-4l1-1c21-1 42 1 62 2l2 1v2Zm-2-1c-21-1-41-3-62-3l1 6 1 1c14 3 43 9 55 2l5-6Z" clip-rule="evenodd"/><path fill="#77756D" d="m185 228-1 1c-4 3-52 1-61 0l1-5c13-2 27-4 40-4 7 0 16 3 21 8Z"/><path fill="#000" fill-rule="evenodd" d="M186 229v1h-1l-2 1-6 1a524 524 0 0 1-55-3v-6l2-1c13-2 27-4 40-4 8 1 17 3 22 9v2Zm-1-1c-5-5-14-8-21-8-13 0-27 2-40 4l-1 5c9 1 57 3 61 0l1-1Z" clip-rule="evenodd"/><path fill="#77756D" fill-rule="evenodd" d="M113 299c-8 2-15 4-22 0l-7-6h-1c0 2 6 7 8 8-10-1-19-1-20-14-1-2-2-5 0-6 4-2 11 4 14 7 7 6 16 8 25 6l6-3 5-2-4 7-4 3Z" clip-rule="evenodd"/><path fill="#000" fill-rule="evenodd" d="m93 302-2 1-10-2c-3 0-6-2-9-4-1-2-3-5-3-10l-1-3 2-5h1c2-1 4 0 7 1l8 6c6 7 15 8 23 6l7-2 4-3 2 1v2c-1 3-1 5-3 7a18 18 0 0 1-6 4c-7 2-14 3-20 1Zm20-3 4-3 4-7-5 2-6 3c-9 2-18 0-25-6-3-3-10-9-14-7-2 1-1 4 0 6 1 13 10 13 20 14-2-1-8-6-8-8h1l7 6c7 4 14 2 22 0Z" clip-rule="evenodd"/><path fill="url(#F)" d="M187 152v-16l-1-35-33 2h-30v5l1 51c14-1 49-3 62 1l1-8Z"/><path fill="#000" fill-rule="evenodd" d="M188 152v8l-1 1-2 1a252 252 0 0 0-63-2v-52l-1-4 1-2h1l30-1 33-2 2 2 1 35-1 16Zm-1 0v-16l-1-35-33 2h-30v5l1 51c14-1 49-3 62 1l1-8Z" clip-rule="evenodd"/><path fill="#151211" d="m129 114-1-6c-1 6-2 38 0 43v-10l1-27ZM140 149a137 137 0 0 0 0-38v11c-2 6-7 9 0 14v13Z"/><path fill="#5A5753" d="m141 134-1-8v-1l-1 1-2 4 2 3 2 1Z"/><path fill="#151211" d="M159 151v-39l-1-2c0 10-2 34 1 41Z"/><path fill="#5A5753" d="m121 149-1-46c-10-6-21-9-32-1-5 3-9 9-15 9l-3 1v25h3c7 0 12 11 17 16 6 7 22 7 30 7l1-11Z"/><path fill="#000" fill-rule="evenodd" d="M122 149v12l-2 1c-5 0-13 0-19-2-5-1-10-2-12-5l-10-13-6-4-3 1-1-1-1-1v-26l1-1 4-1c3 0 5-1 7-3l7-6c11-8 23-5 34 1l1 2v46Zm-1 0-1-46c-10-6-21-9-32-1-5 3-9 9-15 9l-3 1v25h3c7 0 12 11 17 16 6 7 22 7 30 7l1-11Z" clip-rule="evenodd"/><path fill="#060506" d="M103 134c1-5 1-18-1-26v26c0 5-2 12-1 17 2-1 2-14 2-17ZM113 117v12l-1 22v1c4-7 2-33 1-42v-2 9ZM96 135c0-9 0-24-2-33v49l2-16Z"/><path fill="url(#G)" d="M120 167v-5h-10l-15-3c-9-2-17-23-25-20v8c0 17 14 22 29 21-6-1-9-1-12-6l-5-10c2 1 4 6 5 8 4 7 14 9 22 9l8-1 3-1Z"/><path fill="#000" fill-rule="evenodd" d="M99 170c-9 1-18-1-24-6-4-4-7-9-7-17v-7l1-3h1c2-1 4 0 6 1l5 5 9 10c2 2 3 4 5 4l15 3h11l1 2v5l-1 2-3 1h-1l-8 1-10-1Zm21-3v-5h-10l-15-3c-9-2-17-23-25-20v8c0 17 14 22 29 21-6-1-9-1-12-6l-5-10c2 1 4 6 5 8 4 7 14 9 22 9l8-1 3-1Z" clip-rule="evenodd"/><path fill="#77756D" d="m185 99-5-6c-12-7-41-1-55 2l-1 1-1 6c21 0 41-2 62-3Z"/><path fill="#000" fill-rule="evenodd" d="M185 101c-20 1-41 3-62 2l-1-1v-4l1-3a4 4 0 0 1 2-1c8-3 22-6 34-6 9 0 17 1 22 4l6 6v2l-2 1Zm0-2-5-6c-12-7-41-1-55 2l-1 1-1 6c21 0 41-2 62-3Z" clip-rule="evenodd"/><path fill="#77756D" d="m185 162-1-1c-4-3-52-1-61 0l1 5c13 2 27 4 40 4 7 0 16-3 21-8Z"/><path fill="#000" fill-rule="evenodd" d="M186 163c-5 6-14 8-22 9-13 0-27-2-40-4l-2-1v-6l1-2a524 524 0 0 1 62 1h1v3Zm-1-1-1-1c-4-3-52-1-61 0l1 5c13 2 27 4 40 4 7 0 16-3 21-8Z" clip-rule="evenodd"/><path fill="#77756D" fill-rule="evenodd" d="M113 91c-8-2-15-4-22 0l-7 6h-1c0-2 6-7 8-8-10 1-19 1-20 14-1 2-2 5 0 6 4 2 11-4 14-7 7-6 16-8 25-6l6 3 5 2-4-7-4-3Z" clip-rule="evenodd"/><path fill="#000" fill-rule="evenodd" d="M93 88a31 31 0 0 1 20 1 18 18 0 0 1 6 4c2 2 2 4 3 7v2l-2 1-4-3-7-2c-8-2-17-1-23 6l-8 6c-3 1-5 2-7 1h-1l-2-5 1-3c0-5 2-8 3-10 3-2 6-4 9-4l10-2 2 1Zm20 3c-8-2-15-4-22 0l-7 6h-1c0-2 6-7 8-8-10 1-19 1-20 14-1 2-2 5 0 6 4 2 11-4 14-7 7-6 16-8 25-6l6 3 5 2-4-7-4-3Z" clip-rule="evenodd"/><path fill="#060506" fill-rule="evenodd" d="M197 176h-5l-4 1-1-1-8 1-14-1-25 1v1h-23l-1 1-6-1-19 1v34l24-2h3l4 1 3-1h8l2-1h4l-1 2h42l7 2h10v-38Z" clip-rule="evenodd"/><path fill="#6B6256" fill-rule="evenodd" d="M141 178c8 0 17-2 24-1h3l6 1h-1v2l2 1a2 2 0 0 0 0-3h4l4-1h4l1 1v3h3v1l-1 1-2 4-1 1v2l-1 1-2 1v1h1v1h1l1-1h1v19h-10l-38-1c2-1 3-1 3-4l1-9v-10h2l1-1v-1l-1-1-2 1-3-8Zm47 6-2-1-1 1-1 1c1 1 2 2 3 1l1-2Zm-19 25c0-1-1-2-2-1l-1 2 2 1 1-1v-1Zm-14-31h-2v2l2 1 1-2-1-1Zm32 32-1-1h-2v1l1 2 2-2Zm0-31c-1-1-2-2-3-1l-1 2 1 1h2l1-2Zm-42 15v1l2 1 1-2-1-1-2 1Zm22-15c0-1-1-2-2-1l-2 1 1 2h2l1-2Zm11 30-2-1-1 2 2 1 1-1v-1Zm-30-7-2-1-1 1v2h2l1-2Zm11 7-2-1-1 2 1 1h2v-2Zm-12-30-1-1-2 1v1c0 1 1 2 2 1l1-2Zm41 22-2-1h-1v2l2 1 1-2Zm-39 8-1-2-2 1v2l2 1 1-2Z" clip-rule="evenodd"/><path fill="#6B675D" fill-rule="evenodd" d="M122 198h1-1Zm0 0v1-1Zm-9-18h4v-1h7c-2 4-2 6-1 9h-3l-1 1v2h3l1-1-1 7h-4v1a2 2 0 0 0 1 1l2 1 1-1a142 142 0 0 1 1 12h-2l-8-1-20 2v-32l13-1h4l1 1h-1v2h3v-2Zm9 28-2-1-1 2 2 1 1-1v-1Zm-15 0-2-1-1 2 2 1 1-1v-1Zm7-1h-1l-2 2 2 1 2-1-1-2Z" clip-rule="evenodd"/><path fill="#585751" fill-rule="evenodd" d="m142 187-1 19-1 2h-5a4 4 0 0 0-2 0l-1 1 1 1h-8v-5l-1-20a40 40 0 0 1 1-5l1-1h4l1 2h3l1-1v-1h5l2 8Zm-1 19-1-1h-2l-1 1 2 2 2-2Zm-12-24-1-1h-2v2l2 1 1-2Zm11-1-1-1h-2l-1 2 2 1 2-2Zm-11 27-1-2h-2v2l2 1 1-1Zm12-20-1-2h-1l-1 2 2 1 1-1Zm0 12-1-1h-1l-1 2 2 1 1-2Zm-13-12-1-2-1 1-1 1c0 1 1 2 2 1l1-1Zm0 6-1-1h-2v2l2 1 1-2Z" clip-rule="evenodd"/><path fill="#5A5753" fill-rule="evenodd" d="M191 177h5v35h-6v-7l1-6-1-7v-4l2-5 1-5v-1h-2Z" clip-rule="evenodd"/><path fill="#D54C38" fill-rule="evenodd" d="m66 166 1 12v15l-1 15-4-16v-20l2-6 1-1 1 1ZM66 227l-1-5s-2-6-1-7l-2-1 1-3v-2l-1-5-1 20 1 2h1l3 1ZM72 166v19h-1l-1-19h2Z" clip-rule="evenodd"/><path fill="#272727" stroke="#000" stroke-width="2.2" d="m26 255-4 1-1-1h-1l-1 1h-1l-2-1h-1v-1h-4l-2-1-3-2-1-2H4a5 5 0 0 1-2-4v-1a64 64 0 0 1 0-7v-90l1-4 1-1v-2l1-1 6-4h1l1 1 2-1h1a5 5 0 0 1 2-1h2v1h1v-2h5a2 2 0 0 1 0 2h1v-1h3l1 1h1l2 1v-1h3a16 16 0 0 1 4 3l1 1 1 1v2l2 3v100l-1 2-1 1v2h-1l-1 1a20 20 0 0 1-5 3 1 1 0 0 1-2 0h-2v1h-2v1h-3v-1h-1Z"/><path fill="#323232" stroke="#000" stroke-width="1.1" d="m41 143-6-1v-2a29 29 0 0 0 0-2v-1h1a15 15 0 0 1 4 3h1v2a8 8 0 0 0 1 1h-1ZM9 143H6v-2a16 16 0 0 1 6-4v1a16 16 0 0 0 0 2v2l-3 1ZM12 252h-1l-2-1-2-1-1-2v-2h2l2 1h2v5ZM35 252v-5l6-1 1 1-1 2-1 1a19 19 0 0 1-5 2ZM25 254h-3v-7h3v3a51 51 0 0 0 0 4ZM25 143l-3-1v-7h3v5a108 108 0 0 1 0 3ZM19 254h-1l-1-1h-1v-5h3a22 22 0 0 1 0 2v4ZM29 254h-1a3 3 0 0 0 0-1v-5h3v5h-1l-1 1ZM16 141v-5a4 4 0 0 1 2 0h1v5h-3ZM28 141v-5h2l1 1v4h-3ZM41 199l-3-1-4-1v-2a22 22 0 0 1 0-3l4-1a23 23 0 0 1 3-1 37 37 0 0 1 0 5 104 104 0 0 1 0 4ZM6 211v-6h2l3 1h1v3l-1 2H6ZM6 222v-7l5 1 1 1v3l-6 2ZM6 232v-1a37 37 0 0 1 0-5l5 1h1v4l-6 1ZM6 243v-7l5 1h1v3l-1 2H9l-2 1H6ZM6 163v-6l5 1h1v4l-6 1ZM41 211h-3l-3-1v-4h2a56 56 0 0 1 4-1v1l1 2-1 3ZM41 153l-6-1v-4h1l5-1v6ZM41 174a48 48 0 0 1-6-2v-3l4-1 1-1h1v2l1 2-1 3ZM41 222l-3-1-3-1v-3l1-1 5-1a119 119 0 0 1 0 7ZM6 184v-6l5 1h1v4l-6 1ZM41 184l-6-1v-4l4-1h2v6ZM41 232h-3l-3-1v-2a15 15 0 0 1 0-2l6-1v6ZM6 153v-6l5 1h1v4l-5 1H6ZM41 242h-3l-3-1v-2a13 13 0 0 1 0-2h4l2-1v6ZM6 174v-6h5l1 1v3l-5 2H6ZM41 163h-3a22 22 0 0 1-3-1v-1a16 16 0 0 1 0-3h3l2-1h1l1 1v2l-1 3ZM17 186h-1v-10h3v10h-2ZM29 186a6 6 0 0 1-1 0v-10h3v9a13 13 0 0 1 0 1h-2ZM23 187a10 10 0 0 1-1-1v-9h3v9l-2 1ZM19 172h-3v-10h3v10ZM31 213h-3v-10h3v10ZM16 213v-10h3v10h-3ZM29 172a9 9 0 0 1-1 0v-10h3v10h-2ZM19 241h-3v-9h3v9ZM25 172h-3v-9h3v9ZM28 241v-4a114 114 0 0 1 0-4v-1h3v9h-3ZM19 156a5 5 0 0 1 0 1h-3v-9h3v8ZM22 212v-9h3v9h-3ZM29 157a9 9 0 0 1-1 0v-9h3v9h-2ZM16 198v-4a110 110 0 0 0 0-4l1-1a3 3 0 0 1 2 1v8h-3ZM28 198v-4a318 318 0 0 0 0-4h1v-1l1 1h1v8h-3ZM22 198v-3a155 155 0 0 1 0-4v-1h1a4 4 0 0 1 2 0v8h-3ZM16 227v-8a26 26 0 0 0 3 0v8h-3ZM28 227v-8h3v8h-3ZM25 157h-3v-9h3v9ZM25 240h-3v-7h3v7ZM25 226h-3v-7h3v7ZM7 199H6v-1a49 49 0 0 1 0-8h1a35 35 0 0 1 7 2 40 40 0 0 1-1 5v1l-4 1H7Z"/></g><defs><linearGradient id="b" x1="311.8" x2="319.3" y1="40.6" y2="30.5" gradientUnits="userSpaceOnUse"><stop stop-color="#6F6E6D"/><stop offset="1" stop-color="#8D8D8F"/></linearGradient><linearGradient id="c" x1="276.3" x2="275.7" y1="40.5" y2="53.2" gradientUnits="userSpaceOnUse"><stop stop-color="#6E6E6E"/><stop offset="1" stop-color="#8C8A8A"/></linearGradient><linearGradient id="d" x1="267.6" x2="333.7" y1="252.3" y2="258.9" gradientUnits="userSpaceOnUse"><stop stop-color="#5C4A3C"/><stop offset="1" stop-color="#565A59"/></linearGradient><linearGradient id="e" x1="264.3" x2="325.6" y1="149" y2="114.4" gradientUnits="userSpaceOnUse"><stop stop-color="#5F4D3B"/><stop offset="1" stop-color="#545D60"/></linearGradient><linearGradient id="f" x1="244.3" x2="166.1" y1="258" y2="303.1" gradientUnits="userSpaceOnUse"><stop stop-color="#6A5B4D"/><stop offset="1" stop-color="#6A6E6C"/></linearGradient><linearGradient id="g" x1="67.1" x2="57.6" y1="305.8" y2="342.9" gradientUnits="userSpaceOnUse"><stop stop-color="#665647"/><stop offset="1" stop-color="#6D685E"/></linearGradient><linearGradient id="h" x1="20.5" x2="68.7" y1="294.4" y2="265" gradientUnits="userSpaceOnUse"><stop stop-color="#625548"/><stop offset="1" stop-color="#727167"/></linearGradient><linearGradient id="i" x1="208.9" x2="169.1" y1="357.6" y2="345.4" gradientUnits="userSpaceOnUse"><stop stop-color="#685341"/><stop offset="1" stop-color="#676C68"/></linearGradient><linearGradient id="j" x1="661.6" x2="621.6" y1="135.8" y2="114.7" gradientUnits="userSpaceOnUse"><stop stop-color="#674633"/><stop offset="1" stop-color="#6D7B76"/></linearGradient><linearGradient id="k" x1="535.6" x2="510.7" y1="302.1" y2="261.9" gradientUnits="userSpaceOnUse"><stop stop-color="#725D4B"/><stop offset="1" stop-color="#67685F"/></linearGradient><linearGradient id="l" x1="669.1" x2="648.1" y1="303.5" y2="299.5" gradientUnits="userSpaceOnUse"><stop stop-color="#725943"/><stop offset="1" stop-color="#6F7069"/></linearGradient><linearGradient id="m" x1="202.7" x2="233" y1="28" y2="58.9" gradientUnits="userSpaceOnUse"><stop stop-color="#70523B"/><stop offset="1" stop-color="#6E7977"/></linearGradient><linearGradient id="n" x1="238.6" x2="231.3" y1="241.2" y2="220.4" gradientUnits="userSpaceOnUse"><stop stop-color="#786C57"/><stop offset="1" stop-color="#7C8178"/></linearGradient><linearGradient id="o" x1="260.9" x2="218.4" y1="148.3" y2="160.2" gradientUnits="userSpaceOnUse"><stop stop-color="#7C6E5C"/><stop offset="1" stop-color="#7C7B6C"/></linearGradient><linearGradient id="p" x1="396.4" x2="431.3" y1="358.8" y2="329.1" gradientUnits="userSpaceOnUse"><stop stop-color="#716151"/><stop offset="1" stop-color="#71736E"/></linearGradient><linearGradient id="q" x1="52.5" x2="75.1" y1="47.7" y2="53.1" gradientUnits="userSpaceOnUse"><stop stop-color="#755D49"/><stop offset="1" stop-color="#6B685F"/></linearGradient><linearGradient id="r" x1="666.3" x2="651.9" y1="251.7" y2="252.6" gradientUnits="userSpaceOnUse"><stop stop-color="#6F5D4D"/><stop offset="1" stop-color="#6A675E"/></linearGradient><linearGradient id="s" x1="357.1" x2="344.8" y1="262.5" y2="265.1" gradientUnits="userSpaceOnUse"><stop stop-color="#715B49"/><stop offset="1" stop-color="#696557"/></linearGradient><linearGradient id="t" x1="95" x2="73.7" y1="45.3" y2="48.8" gradientUnits="userSpaceOnUse"><stop stop-color="#725A47"/><stop offset="1" stop-color="#696B61"/></linearGradient><linearGradient id="u" x1="292.8" x2="293" y1="61.5" y2="70.5" gradientUnits="userSpaceOnUse"><stop stop-color="#6B5540"/><stop offset="1" stop-color="#6B6962"/></linearGradient><linearGradient id="v" x1="655.8" x2="639.7" y1="243.9" y2="254.8" gradientUnits="userSpaceOnUse"><stop stop-color="#665B4F"/><stop offset="1" stop-color="#6B6F6B"/></linearGradient><linearGradient id="w" x1="391.2" x2="400.4" y1="206.8" y2="207.8" gradientUnits="userSpaceOnUse"><stop stop-color="#6F5447"/><stop offset="1" stop-color="#6D6A60"/></linearGradient><linearGradient id="x" x1="289.7" x2="289.9" y1="318.4" y2="327.6" gradientUnits="userSpaceOnUse"><stop stop-color="#484038"/><stop offset="1" stop-color="#7E6A5A"/></linearGradient><linearGradient id="y" x1="569.6" x2="561.1" y1="301.7" y2="291.4" gradientUnits="userSpaceOnUse"><stop stop-color="#4C4948"/><stop offset="1" stop-color="#757575"/></linearGradient><linearGradient id="z" x1="571.1" x2="570.9" y1="304.8" y2="307.3" gradientUnits="userSpaceOnUse"><stop stop-color="#575655"/><stop offset="1" stop-color="#6D6D6B"/></linearGradient><linearGradient id="A" x1="581.1" x2="580.9" y1="304.8" y2="307.3" gradientUnits="userSpaceOnUse"><stop stop-color="#575655"/><stop offset="1" stop-color="#6D6D6B"/></linearGradient><linearGradient id="B" x1="591.3" x2="591.1" y1="304.8" y2="307.3" gradientUnits="userSpaceOnUse"><stop stop-color="#575655"/><stop offset="1" stop-color="#6D6D6B"/></linearGradient><linearGradient id="C" x1="559" x2="558.7" y1="304.8" y2="307.3" gradientUnits="userSpaceOnUse"><stop stop-color="#575655"/><stop offset="1" stop-color="#6D6D6B"/></linearGradient><linearGradient id="D" x1="122.2" x2="188.3" y1="254.9" y2="261.5" gradientUnits="userSpaceOnUse"><stop stop-color="#5C4A3C"/><stop offset="1" stop-color="#565A59"/></linearGradient><linearGradient id="E" x1="93.2" x2="85.9" y1="243.8" y2="223" gradientUnits="userSpaceOnUse"><stop stop-color="#786C57"/><stop offset="1" stop-color="#7C8178"/></linearGradient><linearGradient id="F" x1="122.2" x2="188.3" y1="135.1" y2="128.5" gradientUnits="userSpaceOnUse"><stop stop-color="#5C4A3C"/><stop offset="1" stop-color="#565A59"/></linearGradient><linearGradient id="G" x1="93.2" x2="85.9" y1="146.2" y2="167" gradientUnits="userSpaceOnUse"><stop stop-color="#786C57"/><stop offset="1" stop-color="#7C8178"/></linearGradient><clipPath id="a"><path fill="#fff" d="M681 0v390H0V0z"/></clipPath></defs></svg>