<svg xmlns="http://www.w3.org/2000/svg" width="690" height="395" fill="none"><path fill="#050303" fill-rule="evenodd" d="M370 35c-3-4-6-9-7-14-2-5-5-13-3-17 1-2 5-3 7-4h2c11 3 17 22 20 32 0 1-1 5 1 5 15 3 32-1 47 3 5 6 5 8 5 15 7 0 18 0 25-2 19-4 48-22 66-22h27l32 2 31 1 16 1c6 1 19 4 19 11 0 2-1 2-2 2l6 4 6 9 8 1-2 58c3 0 10-1 11 2 0 4-5 4-8 4 6 6 7 8 4 16l3 10-1 5v9c2 1 3 1 3 4l3 4h1v3l-4 5v33l4 3v5h-1c-2 3-5 3-5 7 1 7 4 10-2 16-1 8 2 12-3 19l-4 5c2 0 9-1 10 2-1 5-8 4-11 4 1 18-1 39 2 56l-9 2c-4 6-3 9-10 11l-1 1 3 1v1c0 2-4 7-6 8-11 5-22 4-34 5a2986 2986 0 0 1-70 3c-11 0-20 1-30-2l-35-14c-8-3-16-8-25-7l-5-1-12-1c0 7 0 10-5 16-9 2-15 1-24 2h-24v6c-4 10-7 20-14 29-3 6-17 3-16-4 1-9 6-21 11-29 2-2 9 1 12-1v-1h-9l-24 8c-3 1-3-6-3-8l-29 1h-29c-12 0-17 1-29-2-3-11-4-18 1-28-15 15-29 28-48 37-10 5-13 5-24 6l-52-2-23-2c-16-4-26-9-28-27-31 0-43 6-42-33l-2-1c-3 0-4-2-4-5 1-6-2-34 2-38h4v-45l-3-1c-1 2-2-42 0-39l3-1v-45h-4l-1-2c-1-4-1-37 1-40l1-1h2l1 1V78c1-12 2-23 17-23h25c1-5 3-14 7-17 14-14 49-12 68-14 12 0 30-2 41 1 16 5 34 18 47 29l12 13h1c-5-9-6-17-1-28 15-4 24-2 39-2l47 1c0-3 0-6 2-8 2-1 17 5 22 7l7 1h6l-3-3-2 1-4 1-4-2Z" clip-rule="evenodd"/><path fill="#574C3C" fill-rule="evenodd" d="m628 350 16-1h13c-5 13-43 10-55 11l-49 2-17 1h-7c-4-1-23-6-25-9-8-2-16-6-23-9l1-1h-5l-11-4c3-1 4-1 6-4h20l31-1 103-2h25l8 1h6l-4 8c-7 0-19 2-26 4l-7 2c-5 2-12 1-15 2l-3 1h3l15-1Z" clip-rule="evenodd"/><path fill="#130C09" d="M592 336v1h-10l-35 2-15 1h1l14-1 27-2 18-1Z"/><path fill="#271B14" d="M529 344v1h-34v-1h34ZM587 347h-1l-32 1 1-1h32ZM571 353h-12l-13 1c8-2 17-2 25-1ZM622 345l-24 1c6-2 18-1 24-1ZM588 357h-15 15Z"/><path fill="#574C3C" fill-rule="evenodd" d="M465 131v-9h3l2-2 17-3c2 0 2-11 0-11-5-2-11-2-17-3l-1-2h-5v-6h5l37 1 12-1h-24l-26-1h-1c-3 0-3-1-3-3v-5h59l-25-1-30 1-3-1c-1-2-2-14-1-16l-3-8c4-2 13 7 12 10l-1 3 3 1c3 0 8 0 9-3-1-3-6-6-8-11l33 3 24 4 78 15 9 2h-59l-20 1h75c3 0 9 0 11 2l-2 12v2c6 2 10 3 11 0l9-1-8-1 3-8 13 8c4 3 5 6 5 11l-13 3-8 1-4 1h-2c-4 2-11 0-15 1l-14 1h9l12 2 31 2c2 2 4 4 4 7v2H465Zm14 0h179v45l-47 1h47v55h-13l-12 1-9 1 22 1 12 1v6H465v-24h-1l1-20-1-1 1-20v-28l3-1 21-2h15l-16-1-23-2v-12h14Z" clip-rule="evenodd"/><path fill="#271B14" d="M607 140c-3 3-37 0-42 0h-14l1-1c3-1 27 1 32 1h23Z"/><path fill="#130C09" d="M646 136h-18l-25 2v-1c15 0 29-2 43-1Z"/><path fill="url(#a)" fill-rule="evenodd" d="m626 98 3-13 7 2 3 2-2 7-1 2-1 5-5-1-4-3v-1Zm8 0a2 2 0 1 0-4 0 2 2 0 0 0 4 0Z" clip-rule="evenodd"/><path fill="#7B7266" fill-rule="evenodd" d="M659 106c-1-4-2-5-5-7l-13-7c-2-2 0-4-2-5l-6-2 6-1c3 2 2 4 7 7l9 5c3 2 8 6 6 11l-1 3-1-4Z" clip-rule="evenodd"/><path fill="#574C3C" d="m647 90 8 3 1 3c-2-1-8-4-9-6Z"/><path fill="#3D352E" d="m649 117-2 3c-7 0-25 0-30-2h12l4-1h16Z"/><path fill="#473D34" fill-rule="evenodd" d="M664 134c-2 3 0 8-2 10l-2-2-1-13 5 5Zm0 0 3 4-2 3-1 1v-8Z" clip-rule="evenodd"/><path fill="#515B5A" d="M658 119v3h-2l-3-6 5-1v4Z"/><path fill="#050303" d="m660 142-1 1-1-12v-2l1-1v1l1 13Z"/><path fill="#99836B" d="M637 84h-8l1-1c2-2 5 0 7 1Z"/><path fill="#4D4842" d="M663 115c-1 1-2 3-4 3l1-6 3 3Z"/><path fill="#99836B" d="m629 82-1 2-1 1h-1l1-1 2-2Z"/><path fill="#3D352E" d="M653 120h-3l-1-1h1l2-2 1 3Z"/><path fill="#515B5A" d="M658 113c-2 2-10 3-12 3 2-2 10-3 12-3Z"/><path fill="#1B1511" d="M625 100Z"/><path fill="#3D352E" d="m468 86-3-1c-1-2-2-14-1-16l4 17ZM464 86h3c1 2 2 7 1 8h-1c-3 0-3-1-3-3v-5Z"/><path fill="#473D34" d="M469 131h-4v-9h3l1 9Z"/><path fill="#3D352E" d="M469 95v6h-5v-6h5Z"/><path fill="#050303" d="m646 108-50 1h-69l-36-1h155Z"/><path fill="#271B14" d="m562 83-1 1-49-3v-1h3l18 1 29 2Z"/><path fill="#130C09" d="M537 197h107l13 1H537v8c6 7-5 5-8 5l1-4c3-1 2-5 2-9h-67l-1-1h68v-7l-3-2v-4c3 0 12-2 9 4l-1 2v7Z"/><path fill="#99836B" d="M536 189v18h-3v-18h3ZM538 208l-1 2-7 1 1-3h7ZM538 188l-1-3h-7l1 3h7Z"/><path fill="#1B1511" d="M658 153H472h186Z"/><path fill="#130C09" d="M467 176h106l18 1H465v-1h2Z"/><path fill="#3D352E" d="M468 153v1l-1 22h-2v-27l3-1v5Z"/><path fill="#130C09" d="m469 218 104 1H465v-1h4Z"/><path fill="#3D352E" d="m469 219-2 1v22h-2v-23h4ZM479 198h-12v20h2-5l1-20h14Z"/><path fill="#130C09" d="M658 218v1h-79 25l54-1Z"/><path fill="#3D352E" d="M467 177v20h-3l1-20h2Z"/><path fill="#1B1511" d="m633 233-9 1-3-1h12Z"/><path fill="#292822" d="M346 291v9l-12 5h-91l9-1c7-1 10-2 15-8l1 1c2 3 9 3 12 4l12 1c10 2 26 3 36-2 3-2 5-5 6-9 2-7 1-21 1-28v-30l-2-5c-3-4-9-7-13-8-17-4-28 0-44 1l-9 2-6-3c-7-1-25-1-32 1-6 2-11 5-14 11-2 2-3 5-3 8v24c0 10-1 20 1 30 1 3 3 5 6 7 5 3 12 3 17 4h6-32l-1-1-1-87 138 1-1 3c0 3-3 6-4 11s1 10 5 15l-1 10v15h-1c-2 3-3 8-3 11 1 4 2 6 5 8Z"/><path fill="#36352C" d="M333 263c1 9 1 18-1 27l-25-1-39-2v-55c22 0 42 3 64-1 2 10 1 21 1 32Z"/><path fill="#050303" d="m274 239-1 12v14l1 19h-1l-1-36 1-9h1ZM305 241v39l-1-1c0-5-1-35 1-38Z"/><path fill="#130C09" d="m287 252-1 29v-39l1 10Z"/><path fill="#36352C" d="m266 250-1 39-11 4-12 1c-11-2-14-11-23-14h-5v-25l3-1c7-1 11-9 15-14 8-11 21-7 33-9l1 19Z"/><path fill="#050303" d="M259 251c1 5 1 29-1 33v-36c0-3-2-6-1-9 2 2 2 10 2 12ZM248 260c0 7 1 17-2 24v-7l1-14c0-8-2-15-1-23 2 6 2 14 2 20ZM240 262c1 8 1 16-1 24v-24c0-8-2-16-1-24 2 6 2 17 2 24Z"/><path fill="#36352C" d="M332 292c-1 3-4 5-6 6-12 7-42 2-56-2l-2-3 1-3c3-3 55 2 63 2ZM331 229l-7 2c-19 1-37 0-56-1l1-5h1c3-2 8-2 12-2 9-2 19-3 28-2 8 0 16 2 21 8ZM239 223h2-6c-5 0-10 2-15 5-4 4-7 9-7 15 0 2-1 7 1 9l2 1c2 0 5-3 6-4l2-8c3-9 7-13 15-18Z"/><path fill="#36352C" d="m265 225-4-3c-7-2-17 1-23 4-8 4-12 10-14 18v3l7-8c8-10 22-9 34-10v-4ZM265 293v-2l-7 4-7 1c-11 1-18-3-26-10l1 4 1 3c4 5 9 8 15 10 5 1 13 0 18-4 3-1 4-3 5-6Z"/><path fill="#36352C" d="m236 303-3-2-4-3c-3-4-5-8-5-12-3-3-6-4-10-4 0 5 0 11 3 14 5 6 13 6 19 7Z"/><path fill="#B6A588" d="m295 302-11-2 5-2c-3 1-8 3-12 2v-1l1-2c2 0 3-2 5-3l3-1-3-3c3 0 4-2 6-5-1-1-3-4-5-4l8-5v-1c2-1 4 0 5-3l-3-2 6-2-1-1c2-1 5-1 5-3l-4-4 5-1c3-1 19-3 18-8l-4-3h6c3-1 8-1 9-5 2 1 0 8 1 10v1h-1l-6 4-8 3-2 1h2c7-3 9-3 15-7-1 8-3 21 0 28 0 3-3 14-5 16l-14 4-19-1v-1c8-1 12 0 19-3l-9 2c-3 0-10 0-12 2Zm16-23 2 2c-5 2-1 7 3 8 1 1 3 0 5-1 3-2 3-4 5-7 1-2 2-2 0-4 1-1 3-2 2-4-3-2-15 3-17 5v1Zm-4 8c-2-1-5-2-6-1-3 0-7 4-9 6l6 2 3-2c2-2 5-2 6-5Zm24-2-13 8c3-1 11-5 12-8h1Zm-32-7c-2 0-6 0-7 2l-1 4h2l2-3 4-3Zm9-10-4 1-1 1 5-2Zm6 1-7 3-2 3v1h4l5-5v-2Z"/><path fill="#000" fill-rule="evenodd" d="m336 255-1 18c0 3 0 7 2 10v1l-4 12-2 4a68 68 0 0 1-15 4h-14l-6-1h-2l-10-2h-7l-1-1v-1l1-2 1-1 2-1 2-2 1-1h-1a1 1 0 0 1 1-3l4-4-2-2-1-1-1-2 1-1 7-5 2-1 2-1-2-1a1 1 0 0 1 0-2l4-2 1-1 1-1h2l2-1-2-2-2-1a1 1 0 0 1 1-3l5-1 15-3 2-2-4-3a1 1 0 0 1 1-2l6-1 5-1 2-2 1-1h2l1 1v8l1 1v2l-1 1Zm-41 47c2-2 9-2 12-2l9-2c-7 3-11 2-19 3v1l19 1 14-4c2-2 5-13 5-16-3-7-1-20 0-28-6 4-8 4-15 7h-2l2-1 8-3 6-4h1v-1c-1-2 1-9-1-10-1 4-6 4-9 5h-6l4 3c1 5-15 7-18 8l-5 1 4 4c0 2-3 2-5 3l1 1-6 2 3 2c-1 3-3 2-5 3v1l-8 5c2 0 4 3 5 4-2 3-3 5-6 5l3 3-3 1c-2 1-3 3-5 3l-1 2v1c4 1 9-1 12-2l-5 2 11 2Zm4-24-4 3-2 3h-2l1-4c1-2 5-2 7-2Zm-4 2-2 1v1l1-1v-1h1Zm12 7c-1 3-4 3-6 5l-3 2-6-2c2-2 6-6 9-6 1-1 4 0 6 1Zm-2 1-2-1h-2l-6 5h1l2 1 2-2 4-2 1-1Zm26-3h-1a210 210 0 0 1 0 0Zm-17-16v2l-5 5h-4v-1l2-3 7-3Zm-1 2-5 2-1 2h1l5-4Zm-2 8v-1c2-2 14-7 17-5 1 2-1 3-2 4 2 2 1 2 0 4-2 3-2 5-5 7-2 1-4 2-5 1-4-1-8-6-3-8l-2-2Zm2 0 1 1a1 1 0 0 1-1 2l-1 2 1 2 3 2 4-1c3-2 3-4 5-6v-2h1l-1-1v-2l2-1v-1h-1l-4 1a44 44 0 0 0-9 4Zm-5-11-5 2 1-1 4-1Z" clip-rule="evenodd"/><path fill="#574C3C" d="M658 242v44l-11 1h-84 95v2c-2 7-12 10-19 15-2-11-3-17-15-9 1 3 4 11 2 13l-15 1H464v-5c0-3 0-3 3-3l27-1h24-54l1-5h2l2-2 19-3v-11c-6-3-13-2-18-5l-2-1h-3v-9h-1l1-12h3l8-1h1l12-1h14-1 1-1l-13-1-21-2c-2 0-3 0-4-2 0-2 2-2 4-2h17l66-1h107Z"/><path fill="#130C09" d="M468 264h190l-190 1-3-1h-1 4Z"/><path fill="#473D34" d="M468 252v12h-4l1-12h3Z"/><path fill="#443C31" d="M483 309h-19v-5c0-3 0-3 3-3l1 7 15 1Z"/><path fill="#473D34" d="M468 265v8h-3v-9l3 1Z"/><path fill="#3D352E" d="M469 300h-5l1-5h2v4l2 1Z"/><path fill="#473D34" d="M468 243v4c-2 0-3 0-4-2 0-2 2-2 4-2Z"/><path fill="#1B1511" d="M543 287h-16l-37 1 1-1h52Z"/><path fill="#271B14" d="M565 278h-34l-28-1v-1h7l19 1 36 1Z"/><path fill="#1B1511" d="M608 255h-30c-9 0-18 2-27 1h14l12-2 31 1ZM655 274l-45 1 45-1ZM646 259c-1 2-36-1-41-1h3l18 1h20Z"/><path fill="#3D352E" d="M608 277h-11 11Z"/><path fill="#574C3C" fill-rule="evenodd" d="M425 68h-15v-3l1-4 37-1-3 4-1 4-4 1c-4 3 0 7 4 7s4-6 6-8c1-2 7-8 9-8 3 5 5 20 4 25h-3c-7 0-23-1-29 1h29l3 1v15l-18 3c-2 2-1 9 0 12l9 2 9 2v30l-3 1h-23l23 1h3v79h-3l-22 1 21-1h4v11h-27l23 1h4v26h-4l-27-1c3 2 23 2 27 2h4v4l-18 3c-2 3 0 6-2 8l-1 1-30-1v-21h47l2-1h-49v-3l24-2 9-1h-8l-25 2-1-18h21l-20-1v-6h10-10l-1-20 1-61 22-1h-23l1-17 23 1h10c-9-2-24 0-33-2v-26l25-1h-25V80h26l-26-1v-5l-2-6h15Zm29 104-2-1h-31l-3 1v3l2 1h32l2-1v-3Zm0-8c-5-2-27-1-34 0-2 1-2 1-2 3v1h34l1-1 1-3Zm0 32-2-1h-28l-6 1v3c3 2 29 2 34 1l1-2 1-2Zm0-8-3-1c-5-1-29-1-32 1l-2 2 1 1 17 1c3 0 16 1 18-1l1-3Zm0 24-2-1h-30l-4 1v3l2 1a287 287 0 0 0 33-1l1-3Zm0-30-2-3h-33l-2 3 4 2h32l1-2Zm0 38a115 115 0 0 0-36 0v3c3 2 29 2 34 1l1-1 1-3Zm0-17h-35l-1 2v2h2a311 311 0 0 0 33 0l1-4Z" clip-rule="evenodd"/><path fill="#3D352E" d="M463 271v4l-18 3h-2c3-3 11-3 15-5l1-2h4Z"/><path fill="#473D34" d="M445 278c-2 3 0 6-2 8l-1 1 1-9h2Z"/><path fill="#3D352E" d="M460 153h3v79h-3l-1-2 1-16v-61ZM448 60l-3 4h-26l-9 1 1-4 37-1ZM463 244v26h-4v-5l2-1h-2v-20h4ZM450 68c1-2 7-8 9-8 3 5 5 20 4 25h-3c0-3-2-18-4-19l-6 2Z"/><path fill="#3D352E" fill-rule="evenodd" d="m443 104 17-4V90l2-1h-2v-3l3 1v15l-18 3c-2 2-1 9 0 12l9 2 9 2v30l-3 1 1-3v-1s0-25-3-27l-1 1-3-1c-4-1-7-1-10-3-4-4-4-7-4-13l3-1Z" clip-rule="evenodd"/><path fill="#3D352E" d="M463 232v11h-4v-11h4Z"/><path fill="#1B1511" d="M460 89h2l-2 1h-18l18-1Z"/><path fill="#3D352E" d="m452 213-1 2c-2 1-29 0-32-1v-1l1-1c3-1 29-1 32 1ZM452 173v2c-5 2-27 0-33 0l1-1 1-1h31ZM452 221l-1 2c-4 1-27 0-32-1v-1h1a179 179 0 0 1 32 0ZM452 165l-1 2h-32l1-1c2-2 28-2 32-1ZM452 188v2c-4 2-29 1-33 0l1-2h32ZM452 196v2a188 188 0 0 1-34 0l1-2h33ZM452 181v1h-1c-3 2-29 1-32 0l2-2c7 0 27-1 31 1ZM453 204l-1 1-1 1h-32v-1l1-1h33Z"/><path fill="#130C09" d="M437 237v1h-19c3-2 15-1 19-1Z"/><path fill="#3D352E" d="M213 68c-5 2-10 4-16 4h-41l-17 1h-12c-11 0-20-5-30-9 13-2 26-1 39-1h64c4 0 9 3 13 5ZM202 74s4 5 0 10h-10l-29-1h-14l-16 1h-13c-2-2-2-7 0-10h82ZM202 321s4-5 0-10h-10l-29 1h-14l-16-1h-13c-2 2-2 7 0 10h82Z"/><path fill="#574C3C" d="m119 78 1-4h82l2 4h-9l-31-1-15 1h-30ZM119 317l1 4h82l2-4h-9l-31 1-15-1h-30ZM665 58v2l-8 1-23 1-55-2h-25l-16-1h-35l-31-1-7-3 7-2c11-4 23-1 34-1h4c7-2 12-1 19-1l-8-1h-36l-6 1 23-9c2-1 19 1 22 1h18c3-1 9 1 13 1l-14-2c-8 0-18 2-26 0l-8-1h-3l1-1c7-3 18-7 26-8l21 1 40 1 11 1 17 1c9-1 30 0 36 8l1 2-12 2h-14l10 3c4 1 19 1 21 3v2l3 2Z"/><path fill="#3D352E" d="M665 58v2l-8 1-23 1-55-2h-25l-16-1h-35l-31-1-7-3 7-2c11-4 23-1 34-1h4-7l-6 2h22l16 1 54 3c11 1 21 0 33-1h16l8 1a640 640 0 0 0 19 0Z"/><path fill="#130C09" d="M589 58v1l-9-1c-16 0-33-1-49-3l-12-1 16 1 54 3ZM638 57v1l-16-1h16Z"/><path fill="#3D352E" d="m552 33-15 1-22 8-8-1h-3l1-1c7-3 18-7 26-8l21 1Z"/><path fill="#473D34" d="M485 50h1c6-1 14 1 21-1 1-1 13 1 14 1h-36Z"/><path fill="#271B14" d="M596 42v1l-40-5h-23l7-1 24 1c11 2 22 4 32 4ZM587 48l-1 1h-11l-21-1h33ZM200 184v1h-11l-22-1h33ZM623 50v1l-23-1h23Z"/><path fill="#515B5A" fill-rule="evenodd" d="M380 268v43l-10-1h-4c5-4 5-9 0-12v-28c6-5 5-9 0-16v-14l4 7 10 16v5Zm1-3 10 15-1 3-2 8-1 8v5c3 0 5-14 6-17l1 3 2 3c0 11 1 28-1 39-3 4-8 5-13 6l-1-13v-60Zm-11 63-3-5v-1l12 1 1 5h-10Zm-2-8v-8h8l4 1v8h-12v-1Z" clip-rule="evenodd"/><path fill="#646D6B" d="M380 336v3l-8 3-2-13h9l1 2v5Z"/><path fill="#7A8583" d="m391 280-1 3c-2-3-8-11-8-14l-1-1v-3l10 15Z"/><path fill="#7B7266" d="M368 329c0 4 0 2-2 5-3 4-23 6-22-1l2-1 1 1 2 1c5 1 11-1 15-3l2-7c2 1 2 3 2 5Z"/><path fill="#7B7266" fill-rule="evenodd" d="m344 321 1-3 2 1c8 4 18-2 20-1v1c0 2-2 3-3 4-5 2-11 2-16 1l-4-3Z" clip-rule="evenodd"/><path fill="#7B7266" d="M349 315c3 1 9 0 12-1l5-3 1 6h-2c-5 1-10 3-16 1-2 0-4-1-5-3h5Z"/><path fill="#574C3C" d="M361 325v6l-11 2-2-1v-7h13Z"/><path fill="#646D6B" fill-rule="evenodd" d="m368 333 1-3h1v4l1 8-3 1c-2-3-2-4-2-8l2-2Z" clip-rule="evenodd"/><path fill="#473D34" d="M364 325v3l-1 2h-1l1-5h1Z"/><path fill="#7B7266" fill-rule="evenodd" d="m361 252 3 2c4 5 8 10 1 15 1-4 1-7-2-10l-13-10c-5-4-8-10-8-16l3-9h1c2 4-2 10 2 16 2 5 9 9 13 12Z" clip-rule="evenodd"/><path fill="#050303" d="M361 265v-5h2l-1 1v34h-1v-30Z"/><path fill="#7A8583" d="M380 265v3l-7-13-7-12v-3l4 7 10 16v2Z"/><path fill="#36352C" d="M321 104c-6 11-5 25-5 36l1 9 3 11-30 1-17 1h-5v-55l27-1 26-2Z"/><path fill="#050303" d="M274 110a244 244 0 0 0-1 33c0 2 2 12 1 13-3-10-2-27-1-38l1-8Z"/><path fill="#130C09" d="m287 124-1 30v-39l1 9Z"/><path fill="#050303" d="M305 114v36l-1 2v-38h1Z"/><path fill="#3D352E" d="M73 64c-5 8-5 18-5 27-4 2-7 4-9 8l-2 10v44l1 6c2 4 5 8 9 11l1 54c-5 3-9 7-10 12-2 8-1 17-1 25l1 28 2 8c2 3 5 4 8 6v4c1 8 1 16 4 23-4 0-13 1-16-1-2-3-4-24-4-29V98a241 241 0 0 1 4-32c4-2 12-1 17-2Z"/><path fill="#36352C" d="M266 123v40c-9-1-21 1-29-4l-5-5c-3-4-6-9-10-12-3-3-5-3-8-3v-25c10 1 15-10 24-13 6-2 13-2 19 1l8 4 1 17Z"/><path fill="#050303" d="M259 127c1 10 1 21-3 31l2-19-1-31c2 6 2 13 2 19ZM248 121c0 9 1 27-3 35l1-11 1-16-1-20 2 12ZM240 124c1 5 0 26-2 29-1-3 1-13 1-17v-29l1 17ZM85 124c1 9 0 24-2 33l1-17v-33l1 17Z"/><path fill="#6E7162" fill-rule="evenodd" d="M375 101c1-1 0-8 1-7 1-4 5-4 8-4h12v64l-3-2-1 8v13l-16-1v-27l-1-1v-43Z" clip-rule="evenodd"/><path fill="#22201D" d="M366 182v-4c3 1 3-1 6 2v12l-3-3v-5l-1-2h-2Zm26-11v2l-16-1v-27l15 25v2l1-1Zm-22-16 4 1-1 19c-3 2-4 2-7 2v-23l4 1Z"/><path fill="#6E7162" d="M392 171v2l-16-1v-27l15 25v2l1-1Z"/><path fill="#515B5A" d="m374 156-1 19c-3 2-4 2-7 2v-23l4 1 4 1ZM366 182v-4c3 1 3 0 6 3v12l-3-3v-5l-1-2-2-1ZM366 213v4c3-1 3 1 6-2v-12h-3v8l-1 2h-2Z"/><path fill="#8E958D" fill-rule="evenodd" d="M376 94c5 11 14 24 20 35v1l-1 5-1-1-18-31v-9Z" clip-rule="evenodd"/><path fill="#515B5A" fill-rule="evenodd" d="M366 98v-1c2-1 3-2 4-5l4 6v14l-8 2V98Z" clip-rule="evenodd"/><path fill="#574C3C" fill-rule="evenodd" d="M259 52c-1-2 1-9 1-11l9-3h37l40 2-1 19-2 1v3l2 2v1h-84l-3-12 1-1h9l17-1h14c-3-2-20 0-24 0h-16Z" clip-rule="evenodd"/><path fill="#3D352E" d="m345 59-2 1v3l2 2v1h-84l-3-12 1-1h9v4c1 2 12 0 15 0l12 1h25c8 0 18 2 25 1Z"/><path fill="#130C09" d="M299 60c-3 2-28 1-33 0h33Z"/><path fill="#3D352E" d="m260 41 9-3h24c-8 1-16 0-22 7l-3 6 1 1h6-16c-1-2 1-9 1-11Z"/><path fill="#271B14" d="M326 43h-9l-20-1-14 1c4-2 36-1 43 0ZM304 44c-2 2-18 1-21 1l21-1Z"/><path fill="#574C3C" fill-rule="evenodd" d="m259 346-1-5v-3l3-9h83l1 1-2 4v1l3 2v18l-55 2h-18l-13-2-1-8h37l-26-1h-11Z" clip-rule="evenodd"/><path fill="#3D352E" d="M261 329h83l1 1-2 4v1c-3-1-6 0-8 1h-37l-28 1c-3 0-6-2-9-1l-3 2 3-9Z"/><path fill="#271B14" d="m266 351 10 1h-11v-1h1ZM333 341c-3 2-27-2-33-2 3-2 18 1 23 1l10 1ZM337 349v1h-30l30-1ZM303 341h-13l-18 1 1-1h30Z"/><path fill="#515B5A" fill-rule="evenodd" d="M373 210v-15c1-4-2-19 3-20l16-1v31h1c2-3 0-14 2-16h1v63l-3 15-1 7-1 6-10-15h1v-35l-9-10v-10Zm7 53-10-16-4-7v-22h5c1 5 6 9 9 13v32Z" clip-rule="evenodd"/><path fill="#7A8583" fill-rule="evenodd" d="M373 210v-16l23 39v16l-6-10-17-29ZM372 207l-6-9h-1v-15l2 2 5 7v15Z" clip-rule="evenodd"/><path fill="#7B7266" fill-rule="evenodd" d="M660 271h-1c0-3 3-6 4-7l-4-8 5 6 7-7-4-7-7 7h-1c1-3 4-6 7-9l-3-4c-1-1-1 1-3 1v-1l2-2 2 1 3 4 5-6 2-2-5-7-9 11-1-3 2-1 7-8-4-7-4 5 3-6-5-7 6 6c1-2 3-6 5-7l-6-8-5 4 4-6-3-6 4 5 5-6-5-7-5 3 4-5-2-3v-1l3 4 6-10-6-9-3 2c0-2 1-3 3-4l-4-6 4 5 6-7c-2-2-7-8-6-10l5 6 2 2 4-10-5-6-9 10v-3l-1-5 3 4 6-8-11-15 3 2c2-2 3-6 5-7v1l-4 8 7 9 3-6v-4l1 1v4l-3 7 12 14 2-1 1 2-1 2-6 12 5 7 1-7 2 1-2 7 2 5c1 4 1 8-1 12l-1 3 2 4c1 6 1 10-2 15l2 6c0 3-3 7-2 10s2 9 1 12l-3 5v6c3 10-7 15-12 21l-9 10v-3l7-9-3-6-4 5Zm21-58-5-7c-2 2-5 5-5 7l5 7 5-7Zm-8 42 4 9c3-5 5-9 2-15l-6 6Zm8-79-5-7-5 8 5 7 5-8Zm-1 18-4-6-6 8 5 8 5-10Zm-12 52 4 7 6-6c-1-2-2-7-4-8l-1 1-5 6Zm15-11-2-5-5 7 1 4 2 5c3-4 4-7 4-11Zm0-15-1-5-5 6 1 2 3 4c1-2 3-4 2-7Zm-3-66-5-6c-1 2-5 8-4 10l5 7c1-3 4-7 4-11Zm0 74-4-5-6 6 1 1 4 6c1-2 5-5 5-8Zm-5-61-5-8c-2 2-6 5-6 8l6 9c1-2 3-8 5-9Zm0 19-5-7-6 9 5 7 6-9Zm1 79-1-1-4-8-7 8 2 3 2 4h1l7-6Zm-2-60-5-8-5 6v1l6 7 4-6Zm10 2-2-11c-2 1-5 7-6 9 2 1 4 6 6 6l2-4Zm-7-21 5 7v-3l2-7-2-5-5 8Zm-3 35-5-7-4 7 4 7 5-7Z" clip-rule="evenodd"/><path fill="#473D34" d="M679 254c0 4 0 5-2 8l-3-7 4-3 1 2Z"/><path fill="#473D34" fill-rule="evenodd" d="m666 120 5 5-3 10-5-8 3-7Z" clip-rule="evenodd"/><path fill="#574E43" d="m681 181-1 7-1-2c-1-1 1-3 2-5Z"/><path fill="#3D352E" d="M675 190v11l-1-1-3-4 4-6Z"/><path fill="#473D34" d="m679 194-2 5h-1v-2l1-6 2 3ZM681 198v12l-2-3-2-3 4-6ZM675 151v11l-2-2-1-2 3-7Z"/><path fill="#3D352E" d="m679 154-2 6h-1v-4l1-5 2 3ZM680 176l-4 7v-12l2 2 2 3ZM674 186l-4 7v-12l2 2 2 3ZM675 172v9l-1-1-2-2 1-3 2-3ZM669 182v11l-2-2-2-3 1-2 3-4Z"/><path fill="#473D34" d="m680 213-4 5v-10l4 5ZM675 208v9l-2-2-2-2 4-5Z"/><path fill="#3D352E" d="m671 201 2 3-3 4v1l-5-5 4-5 2 2Z"/><path fill="#473D34" d="M675 225v8h-1l-1-2-2-2 4-4ZM679 228l-1 2-1 2-1-3v-5l3 4ZM681 232v2c1 2 1 7-1 9h-1v-2l-2-4 4-5ZM682 217l-1 8-3-3 4-5Z"/><path fill="#574C3C" d="m681 150-1-7-2 3 3 4ZM468 310h151c-19 5-41 8-61 12l-37 7-45 5 3-5 5-5c1-2-3-3-5-4-2 1-4 1-5 3-2 7-6 11-13 12l2-7 1-17c0-2 3-2 4-1Z"/><path fill="#443C31" d="m463 328 1-17c0-2 3-2 4-1s-4 18-5 18Z"/><path fill="#574C3C" fill-rule="evenodd" d="m485 61-4-1h8l20 1h33l114 2-1 6 1 11-12 1h11v5l1 5-10-3-3-4-12-3h3l1-1-15-1-17 1-26-5-41-8 20-1h-16c-8 1-13-1-20-2l-35-3Z" clip-rule="evenodd"/><path fill="#3D352E" d="m584 71 10 2 26 6-17 1-26-5-41-8 20-1h-1l16 3 13 2Z"/><path fill="#3D352E" fill-rule="evenodd" d="m655 86 1 5-10-3-3-4-12-3h3l1-1 10 2 10 4Z" clip-rule="evenodd"/><path fill="#130C09" d="M622 68Z"/><path fill="#1B1511" d="M647 76h-28 28Z"/><path fill="#574C3C" fill-rule="evenodd" d="M656 327v4l-56 1-119 3 9-1 18-2a1020 1020 0 0 0 98-18v1h19l9-1 10-3 2-4 10-3-1 10v1h-9 10v11l-22 1h22Z" clip-rule="evenodd"/><path fill="#3D352E" fill-rule="evenodd" d="m606 314 19-3 2 3h3l-24 1h19l-9 3-21 4-16 4h-10c-2 2-15 3-18 4l-15-1-2-1 72-14Z" clip-rule="evenodd"/><path fill="#130C09" d="M579 326h-15 15Z"/><path fill="#3D352E" d="m656 304-1 10v-6l-2 2c-4 2-15 5-19 4l10-3 2-4 10-3Z"/><path fill="#1B1511" d="m622 327-1 1-29-1-11-1h1l12 1h28Z"/><path fill="#271B14" d="M646 319h-27c4-2 22 0 27 0Z"/><path fill="#574C3C" fill-rule="evenodd" d="M198 340h46l-1 1-8 6c0 2-8 6-10 7l-3 1 1 1-3 2-7 4-4 2c-9 4-28 4-38 4v-1l-1 1h-1c-3 0-16 1-17-1h-1l-4-3v1l-1-1 1-1h4l-1-1v-1h3l-7-2v-1c1-2 1-4 3-4l3 2c1 1 3 3 5 2l-2-2c-1 0-2 0-2-2-1-2 0-6 1-9l6-2c3-1 5 1 7 2h18l1 2 2 5 4 2 3-1c2-2 2-5 3-8v-5Z" clip-rule="evenodd"/><path fill="#130C09" fill-rule="evenodd" d="M152 367h-1l-4-3v1l-1-1 1-1h4l6-2h-4l-7-2v-1c1-2 1-4 3-4l3 2c1 1 3 3 5 2l-2-2c-1 0-2 0-2-2-1-2 0-6 1-9l6-2c3-1 5 1 7 2l1 2v8l-2 1-1 1-1 1c3 1 6-3 8-4l2 1 1 3c-2 2-8 3-10 3l10 2-4 5v-1l-1 1h-1 1l-2-2c-5-2-10-3-15 0l-1 1Z" clip-rule="evenodd"/><path fill="#C4BCB4" fill-rule="evenodd" d="m171 367-2-2-7-2-12-5-3 1v-1l2-3 5 3c3 2 13 6 17 6h2l-2 3Zm-24-3h4c3-1 5-2 8-1-2 2-6 1-8 4l-4-3Zm10-8h-1c-3-1 0-5-1-7l-1 3-1-2 1-3 6-3c3-1 5 0 7 2l1 4-2 2 1 3c-2 2-3 0-4 4-4-2-3 2-6-3Zm8-4a2 2 0 1 0-4 1 2 2 0 0 0 4-1Zm2-4-1 4 1-4Zm-9 6 2-2-1-1h-2l-1 1 2 2Zm16 4-11 3v-1l7-3c1-1 1-2 3-2l1 3Z" clip-rule="evenodd"/><path fill="#443C31" d="M198 340h46l-1 1-8 6-8 1-7 1v-3l-22-1v-5Z"/><path fill="#473D34" d="M220 346c1 2 5 1 7 2l-7 1v-3Z"/><path fill="#443C31" d="M235 347c0 2-8 6-10 7l-3 1-5 1c-4-1-8 1-11-2 0-3 10-2 12-4l17-3Z"/><path fill="#3D352E" d="m213 362-4 2-15-1 17-3h1l1 2Z"/><path fill="#1B1511" d="m222 355 1 1-18 3-13 1h-7l32-4 5-1Z"/><path fill="#130C09" d="m235 347-17 3h-11l13-1 7-1 8-1Z"/><path fill="#473D34" d="m220 358-7 4-1-2h-1l7-1 2-1Z"/><path fill="#574C3C" fill-rule="evenodd" d="M351 153c1-3 7-6 10-8v106c-4-3-12-8-13-12v-62l1-21 1-2c2 3-2 11 0 14 1-4 2-12 1-15Z" clip-rule="evenodd"/><path fill="#3D352E" fill-rule="evenodd" d="m364 253-2-2V144l2-2v111Z" clip-rule="evenodd"/><path fill="#271B14" d="m357 214-1 29v-33l1 4ZM355 156l-1 18c-1-3 0-16 1-18ZM354 181l1 5-1 3v-8Z"/><path fill="#3D352E" fill-rule="evenodd" d="M340 182c4 6 4 21 2 28l-4 6h-48l2-4a49 49 0 0 0-2-33h49l1 3Zm-2 1-1-1h-37v30h37l-15-1v-28h16Z" clip-rule="evenodd"/><path fill="#574C3C" fill-rule="evenodd" d="m305 192 2 2c2 2 4 1 6 1l2-2 2-4c-1-3-2-4-4-5h8l-1 27h-7c2-1 3-2 3-4v-4c-1-2-3-3-5-3-3 0-4 0-6 2-1 2-2 4-1 6l1 3h-4v-27h6l-2 2v6Z" clip-rule="evenodd"/><path fill="#3D352E" d="M314 204v2l-2 3h-3l-4-2 1-4 4-1 4 2ZM314 188a4 4 0 1 1-8 2 4 4 0 0 1 8-2Z"/><path fill="#574C3C" fill-rule="evenodd" d="m114 37-11 1-12 4c4-8 12-9 20-12l17-2h2a200 200 0 0 1 39-2h2v1l2 3v1h-3l3 1-7 1 9 3-1 3-2 3-3-3h-1c0 6 1 7-2 11-2 2-4 3-7 2l-6-4 1 2h-26v-4h11l-11-1-4-4-5 1-1 1h-2l-3 2-1 2c-8 0-16 2-24 4l2-8 12-3 12-2 5-1h-5Z" clip-rule="evenodd"/><path fill="#130C09" fill-rule="evenodd" d="M168 39c0 6 1 7-2 11-2 2-4 3-7 2l-6-4-1-3 1-2 1-4 4-3-3 1-7 4-2-4 1-1 9-3c-2 0-8 0-9-2l2-3 1-1v-1h21v1l2 3v1h-3l3 1-7 1 9 3-1 3-2 3-3-3-4-2h-1l4 2Z" clip-rule="evenodd"/><path fill="#3D352E" fill-rule="evenodd" d="M150 26h21v1l-3 2c-2 1-6 3-9 2l-9-4-1 1h-19l20-2Z" clip-rule="evenodd"/><path fill="#C4BCB4" d="m171 27 2 3v1h-3c-4 1-5 2-8 1 4-1 7-1 9-5Z"/><path fill="#C4BCB4" fill-rule="evenodd" d="m168 44-2 5-6 2c-2 0-4 0-5-2l-2-4 2-2v-4h1l2-1-1-1 1-1 3 1 1-1 2 3 3 1c0 2-1 2 1 4Zm-3-3a2 2 0 1 0-3 3 2 2 0 0 0 3-3Zm-6 1a2 2 0 1 0-3 1 2 2 0 0 0 3-1Zm8 2-1-1v3l1-2Z" clip-rule="evenodd"/><path fill="#C4BCB4" d="m174 36-1 4h-1l-1-2c-4-3-15-6-20-7h-4l2-2 2-1 1 2 9 2c4 2 8 4 13 4Z"/><path fill="#C4BCB4" d="m159 34-7 4-3 2h-1l-1-4c3 0 9-3 12-2Z"/><path fill="#443C31" fill-rule="evenodd" d="M112 47c-8 0-16 2-24 4l2-8 12-3-1 5h12l3-2h2c-2 3-1 7-2 11H87v-2c3-3 27-4 27-5h-2ZM111 30l17-2-16 4-9 5v1l-12 4c4-8 12-9 20-12Z" clip-rule="evenodd"/><path fill="#3D352E" fill-rule="evenodd" d="m344 78-1 2-8 2c-2 1-3 3-4 6h-54l-16-1-10-4-22-10 1-2v-5l-3-3c-5-2-9 2-13 4l-11-5h11l25-1 16 13h87l2 1v3Zm-15-1h-48l-1 2 1 3v1l2 1h36c3 0 6-1 8-4l2-3Z" clip-rule="evenodd"/><path fill="#292822" d="M327 78v1c-1 2-4 3-6 3a343 343 0 0 1-38 0l-1-1 1-2c4-2 37-1 44-1Z"/><path fill="#3D352E" fill-rule="evenodd" d="m344 317-1 4h-88c-5 2-11 9-16 12h-14v-1h1l5-3c1-3-1-5-2-7l1-1c1-1 28-13 31-13l12-1h43l15 1 2 4 2 1 8 1 1 3Zm-63-5v5l2 1h44l1-1 1-1-5-5h-17a955 955 0 0 0-26 1Z" clip-rule="evenodd"/><path fill="#292822" d="M327 316h-1l-43 1-1-3 3-2h32c4 0 7 1 10 4Z"/><path fill="#574E43" d="m346 70-1 2-2 1-29-1-59 1-15-13h-27l-45 1-85 1H65c-3 0-7 0-9 2l-2 5c-2 6-2 12-2 18l-2 13h-4V76c1-6 2-13 6-16l6-3h25l86-1 47-1h21c9 2 16 14 20 15h20l43-1 26 1Z"/><path fill="#473D34" d="M115 179c0 5 0 21-2 24v-6c0-3 0-10-2-12h-1l-1 2c-2 4-2 18 0 22l2 1 2-4 1 1 1 7H69v-34h17l29-1Z"/><path fill="#3D352E" d="M292 187v23h-45v-26c16-1 29-1 44 1l1 2Z"/><path fill="#574C3C" d="M340 125c2 5 1 16 0 21-1 6-3 14-7 18l-3 3-4-2c-7-5-7-15-8-22l1-26c1-5 3-12 8-16h5c6 6 7 16 8 24Z"/><path fill="#050303" d="M337 128c1 10 0 20-3 29-1 2-2 5-4 6 0-2 3-5 2-7-2 0-2 4-3 6l-2 1c-1 0-3-2-3-4-2-3-5-14-4-18l2-2c6-2 8-2 14 0v-9l-4 3h-8c-2 0-4-2-4-3-2-4 2-16 3-20 1-2 2-5 4-6h1l4 7 2 4-2-7-2-5 2 1c4 4 5 18 5 24Z"/><path fill="#292822" d="M336 125v2l-1 2c-3 3-7 3-10 3l-3-3c-2-3 0-9 1-12l4-10c2 5 4 7 8 10l1 8ZM336 141c0 4-1 8-3 11l-4 2-2 7h-1l-2-4c-2-6-3-10-3-16l5-2c4-1 6 0 10 2Z"/><path fill="#574C3C" fill-rule="evenodd" d="M244 336c-3 3-7 3-11 3h-35l-46-1-70-1H54c-7-6-8-15-9-24v-19h5v6c1 8 0 25 6 31l7 1 28 1h39l110 2a348 348 0 0 0 15-13h88l2 2-4 1h-86l-11 11ZM410 327c-2-2 0-3 1-4 2-4 1-9 1-13h51l-1 16-3 9c-11-6-9-12-15-16-2 1-6 1-6 5l5 4 5 7-24-1-14-1v-5c7 0 20 1 26-1h-26Z" clip-rule="evenodd"/><path fill="#473D34" d="m444 310 5 1v1c-1 0-32 1-36-1l-1-1h32Z"/><path fill="#3D352E" d="m463 310-1 16-3-15-11-1h15Z"/><path fill="#574C3C" fill-rule="evenodd" d="m207 39 14 1c6 2 11 4 16 8-5-1-33-3-35-1h-4l-1-1c0-2-1-4-3-5h-4l-4 4-10 1h10v4h-20c3-4 2-5 2-11h1l3 3 2-3 1-3-9-3 7-1-3-1h3v-1l-2-3v-1c7 0 22-1 29 1 2 0 13 5 14 7h-1l12 5-18-1v1Z" clip-rule="evenodd"/><path fill="#A78A5A" fill-rule="evenodd" d="M196 54h-9l1-7c0-2 0-4 2-5h3c1 1 3 0 4 9l-1 3Zm-2-9a2 2 0 1 0-4 0 2 2 0 0 0 4 0ZM196 340l-9 1 1 6c0 2 0 4 2 5h3c1 0 3 0 4-9l-1-3Zm-2 9a2 2 0 1 1-4 0 2 2 0 0 1 4 0ZM126 340l-8 1v6l2 5h3c1 0 3 0 4-9l-1-3Zm-2 9-2 2-2-2 2-2 2 2ZM126 54h-8v-7c0-2 0-4 2-5h3c1 1 3 0 4 9l-1 3Zm-2-9a2 2 0 1 0-4 0 2 2 0 0 0 4 0Z" clip-rule="evenodd"/><path fill="#1B1511" d="m202 32-1 1h-15l-1-1h17Z"/><path fill="#574C3C" d="M463 293v13l-8-1-13 1h18l-1 3h-47v-21a708 708 0 0 1 33 1l6 2 8 1 4 1Z"/><path fill="#473D34" d="M412 288a708 708 0 0 1 33 1l6 2c-4 1-33-1-38-3h-1Z"/><path fill="#3D352E" d="M463 293v13l-8-1h4v-13l4 1ZM213 327l-13 5h-25l-77-1c7-3 19-9 29-9h12l22 1 20-1h13c7 0 13 3 19 5Z"/><path fill="#574C3C" fill-rule="evenodd" d="M128 346v-1h26c-1 3-2 7-1 9 0 2 1 2 2 2l2 2c-2 1-4-1-5-2l-3-2c-2 0-2 2-3 4v1l7 2h-3v1l1 1h-4l-1 1 1 1 3 2-35-2-4-6v-1l22 1c-10-2-20-1-29-3l-13-4-3-7 17 4 9 1c-1-2-6-2-8-2v-1c3-3 7-2 10-2v4l3 4 4 1c3-1 3-2 4-4h13c-4-2-8 1-12-1v-3Z" clip-rule="evenodd"/><path fill="#3D352E" d="M105 349c-4 0-8-1-8 1-1 4 3 4 7 6l-13-4-3-7 17 4Z"/><path fill="#574E43" d="M50 242v51h-5V155a1107 1107 0 0 1 3-53h1l1 2v138Z"/><path fill="#515B5A" fill-rule="evenodd" d="m368 74-1-1 2-4v-4l-3-6c0-2 0-5 2-7l3 1h1l9 3-2 10 1 4-1 1c-3 3-6 2-11 3Zm14-17c4 1 13 4 14 9v23h-15V77l1-20Zm-13 27-2 1 1-4v-6l11-1v8l-10 2Z" clip-rule="evenodd"/><path fill="#646D6B" fill-rule="evenodd" d="M369 69v-4l-3-6c0-2 0-5 2-7l3 1h1l9 3-2 10 1 4-1 1c-3 3-6 2-11 3l-1-1 2-4Z" clip-rule="evenodd"/><path fill="#574C3C" fill-rule="evenodd" d="m668 62 6 1c0 13-1 30-5 42l-3 6-1-1-3-4c2-4-2-7-5-10V62h4v5-5h6v36l1-36Zm-7 14v13-13Z" clip-rule="evenodd"/><path fill="#473D34" d="m669 105-3 6-1-1-3-4c2-4-2-7-5-10V62h2l-1 1v29c4 3 6 6 7 8l2 5h2Z"/><path fill="#574C3C" fill-rule="evenodd" d="M666 333h-9v-34c6-5 7-7 4-14l3-5 2 5c7 10 7 34 8 47l-6 1-1-1-3-14v-5c-1 2 1 15 2 18v2Z" clip-rule="evenodd"/><path fill="#292822" d="m203 218 3-1v92h-88l-6-3-42-1v-17l1-71c4 0 127-1 132 1ZM203 177h3l1-1-1-90h-88l-6 3-42 1v17l1 70h132Z"/><path fill="#3D352E" fill-rule="evenodd" d="M660 333h-3v-34c6-5 7-7 4-14l3-5 2 5c-1 7-2 12-6 18v28h6v2h-6Z" clip-rule="evenodd"/><path fill="#271B14" d="M669 309v11-8l-1-11 1 8ZM671 330v1l-1-5v-2h1v6Z"/><path fill="#3D352E" d="M222 179h3l1 1v35l-17-1-1-7v-28h14Z"/><path fill="#574C3C" d="M206 199v8h-28l22 1h6v6l-88 1 1-36h28l3 1 3-1h53v19h-8l8 1Z"/><path fill="#3D352E" fill-rule="evenodd" d="m118 184 1-5h28l3 1 3-1h53v8h-61l-8-3h-19Z" clip-rule="evenodd"/><path fill="#3D352E" d="M411 81v25l-1 61v87l1 50-1 17h-1l-1-7V174a3412 3412 0 0 1 0-83V78l2-5v1l1 7Z"/><path fill="#36352C" d="m329 98-6 4-17 1-30 2c-2 0-6 0-7-2v-4c4-4 28-6 34-7 9 0 19 0 26 6Z"/><path fill="#574C3C" fill-rule="evenodd" d="M404 352v-6l1-3 8-3v4l1 8 2 1c2 0 2-1 2-2h1l1-8v-6c4 1 18 1 20 3-2 1-2 2-5 2l-4 1h5l4-1v4h-5l-1 1h6l-2 4c-1 2-4 3-6 3-10 2-20 1-31 1h-11v-2h13l8-2-7 1Zm-14 0 1-3 7-3 1 7-9-1Z" clip-rule="evenodd"/><path fill="#3D352E" fill-rule="evenodd" d="M431 343h-11v-6c4 1 18 1 20 3-2 1-2 2-5 2l-4 1Z" clip-rule="evenodd"/><path fill="#3D352E" d="m405 343 8-3v4c-2 3-5 2-8 2h-1l1-3Z"/><path fill="#473D34" d="m398 346 1 7-9-1 1-3 7-3Z"/><path fill="#574E43" fill-rule="evenodd" d="m420 46-4-4-3 6v8l-8-6v-1l-1-2c0-2 0-4-3-5-2 0-2 1-3 3l-1 4c-1-1-6-2-7-4 1-1-1-4-1-6l25 1 20 1c4 1 7 7 6 11v4l-21 2 1-5-1-7h11-10Z" clip-rule="evenodd"/><path fill="#3D352E" d="M440 52v4l-21 2 1-5 6-1h14Z"/><path fill="#473D34" d="M413 48v8l-8-6v-1l-1-2 5 1h4ZM398 45l-1 4c-1-1-6-2-7-4h8Z"/><path fill="#36352C" d="M327 169h-1c-2 2-5 2-8 3-12 3-24 1-36-1l-13-1-1-1v-5l20-1h33l6 6Z"/><path fill="#3D352E" d="m114 85-1 2-2 1H95l-24 1 1-10v-4h22c6 3 15 6 20 10ZM113 311l-7 4-13 5H71v-3l-1-10h43v4Z"/><path fill="#574C3C" fill-rule="evenodd" d="m355 103 6-2v35c-1 1-4 4-6 4v-37Zm0 37-7 6v-37l6-5v22l1 14Z" clip-rule="evenodd"/><path fill="#130C09" d="M352 119v1l-1-12v-1h1v12Z"/><path fill="#7B7266" fill-rule="evenodd" d="M365 97c-5 3-17 8-19 13v13c-7-13-1-18 10-25 3-2 8-3 9-7 0-4-13-4-16-3l-5 1c-1-1 0-4 2-5 9-2 18-1 23 7-1 3-1 4-4 6Z" clip-rule="evenodd"/><path fill="#7B7266" d="m346 82-2-2 1-1c8-7 17 1 22 0v1c-1 2 1 4-2 5l-2-3c-5-3-12-3-17 0Z"/><path fill="#574C3C" d="M346 82c5-2 10-2 15 0l4 3c-6-2-13-4-19-2v-1Z"/><path fill="#292822" d="M246 184c0 5 1 25-2 28-1 2-5 2-6 2l4-5v-4l-2-3-4-2-5 3-2 4c1 4 5 6 8 8h-9l-1-3v-33h6l1 1-3 4c-1 2-2 4-1 6l2 3c1 1 4 2 6 1l3-2 1-6c-1-2-2-4-5-5l8 1 1 2Z"/><path fill="#7B7266" fill-rule="evenodd" d="m363 306 2-1c1-3-5-6-8-7-7-4-16-9-14-18l3-9c0 8-3 15 6 20l11 6c2 2 5 3 6 6l-1 4c-3 3-9 4-13 5-3 0-8 0-10-2l-1-3v-1l3 1c5 1 12 1 16-1Zm-12-10 9 5h1v5c-3 0-6 2-9 0v-3l-1-7Z" clip-rule="evenodd"/><path fill="#574C3C" fill-rule="evenodd" d="m351 296 9 5h1v5c-3 0-6 2-9 0v-3l-1-7Z" clip-rule="evenodd"/><path fill="#473D34" fill-rule="evenodd" d="M349 306v-12l2 3v9l-1 1h-2l1-1Z" clip-rule="evenodd"/><path fill="#4D4842" d="M404 323c-4 6 1 11-7 17 5-10 3-19 3-31 1-25-2-54 4-78v92Z"/><path fill="#3D352E" d="M203 73c3-1 6-1 8-3 4-1 10-6 15-5l3 2v3c-1 2-2 3-4 3l-16 9-2-5c0-2-2-3-4-4Z"/><path fill="#574C3C" d="M203 73c3-1 6-1 8-3 4-1 10-6 15-5l3 2v3c-1 2-2 3-4 3h-2v-5l-15 8-1 1c0-2-2-3-4-4Z"/><path fill="#36352C" fill-rule="evenodd" d="M236 172c-5 0-11-2-15-6-5-3-7-8-8-14 0-3 0-8 2-10l1-1c3 0 5 3 7 5l1 7c3 10 7 14 16 18l1 1h-5Z" clip-rule="evenodd"/><path fill="#36352C" d="m266 170-4 2c-7 2-17 0-24-4s-11-10-14-18v-3l7 9c8 10 22 8 34 10l1 4Z"/><path fill="#443C31" fill-rule="evenodd" d="M202 47c3 0 32 1 36 3 2 0 3 1 4 3l2 2-17-1h-29v-7h4Z" clip-rule="evenodd"/><path fill="#574C3C" d="M397 344v1a325 325 0 0 1-35 13v-20l2-1c1 3-1 7-1 9l3 3c3 0 25-9 30-11l1 6Z"/><path fill="#271B14" d="M380 348v1c-3 3-13 6-16 6 1-2 6-2 8-3l8-4ZM393 343l-11 5 1-1c1-2 7-4 10-4Z"/><path fill="#8E958D" d="m373 21 4 11c1 1 0 1-1 3h-5l-2-3-4-10-2-5-2-6-1-6c1-2 5-3 7-3l3 10 2 4 1 5Z"/><path fill="#7A8583" d="m370 12 2 4-2-1-9-4-1-6c1-2 5-3 7-3l3 10Z"/><path fill="#8E958D" d="m370 12 2 4-2-1-9-4-1-6 10 7Z"/><path fill="#7A8583" fill-rule="evenodd" d="m369 32-4-10 8 5c4 3 1 5 3 8h-5l-2-3Z" clip-rule="evenodd"/><path fill="#7A8583" d="m372 16 1 5c-3-2-5-4-9-5l-1 1-2-6 9 4 2 1Z"/><path fill="#4D4842" fill-rule="evenodd" d="M404 140v77l-4 4v-15c1-13-1-62 3-72l1 6Z" clip-rule="evenodd"/><path fill="#7A8583" d="m378 361-3 8-3 8-4 12-1 5-7-4 2-8 1-5c2-5 5-14 9-17l6 1Z"/><path fill="#7A8583" d="m372 377-4 12-1 5-7-4 2-8c3 1 6-5 10-5Z"/><path fill="#8E958D" d="m368 389-1 5-7-4 8-1ZM375 369l-3 8c-4 0-7 6-10 5l1-5 11-8h1Z"/><path fill="#574C3C" fill-rule="evenodd" d="M362 42v-6l21 8 13 6 1 4-1 3c-2 0-10-5-13-5-5-2-14-7-18-5l-1 2v10l-1-1-1-16Z" clip-rule="evenodd"/><path fill="#050303" d="m378 44-1 1-14-4 1-1 14 4Z"/><path fill="#574C3C" fill-rule="evenodd" d="m349 57-1-14 1-11h1c2 1 0 21 1 23l1-21 1-1 5 2-1 3v10-1l1-5 1-7h1c2 6 1 16 1 22l-11-1-1 1ZM348 357v-18c5 1 8 0 13-1v19l-1 2-2 1-1-4v-6 10l-4 2-1-16v9c0 3 0 6-2 9l-1-1-1-6Z" clip-rule="evenodd"/><path fill="#3D352E" d="M186 340v7l-1-2h-18c-2-1-4-3-7-2l-6 2h-26v1l-1-6h59Z"/><path fill="#36352C" d="M265 101v2l-7-4-7-1c-11-1-18 3-26 10l1-4 1-3c4-5 9-9 15-10 5-1 13 0 18 4 3 1 4 3 5 6Z"/><path fill="#574E43" fill-rule="evenodd" d="m385 363 1-1h1c1 2-2 8-3 10-4 9-5 18-16 22l1-3 10-29 2-1h1v1l1 1-5 17-3 7v-1h1l8-23h1Z" clip-rule="evenodd"/><path fill="#3D352E" d="m382 362-2 6c-3 7-5 15-9 22l-2 1 10-29 2-1h1v1Z"/><path fill="#473D34" d="M399 300c0 9 1 29-2 36-6 4-14 6-21 8l-8 3h-2l-1-3v-2l2 2 22-7 5-2 2-4 1-17v-42l1-9c2 12 1 25 1 37Z"/><path fill="#443C31" d="M256 87v1h-19l-20-9 2-1 8-4 12 5 17 8ZM256 307l-29 14-7-4-3-1c5-3 13-7 19-8l20-1Z"/><path fill="#A78A5A" fill-rule="evenodd" d="M463 276v16l-15-3-2-1-1-8c2-2 15-4 18-4Zm-12 7a2 2 0 1 0-3 2 2 2 0 0 0 3-2Z" clip-rule="evenodd"/><path fill="#3D352E" d="M186 46v8h-58v-4h26l-1-2 6 4c3 1 5 0 7-2h20v-4ZM117 321h1l-20 8-3 1h-2l-3-2v-3c1-3 19-10 23-12v2l4 6Z"/><path fill="#574C3C" d="M117 321h1l-20 8 3-2c6-4 10-4 16-6Z"/><path fill="#443C31" d="M92 65h3c5 1 10 4 14 6 3 1 7 1 10 3h-1l-1 1-4 5v2L91 71l-1-1v-4l2-1Z"/><path fill="#574C3C" d="M92 65h3c5 1 10 4 14 6 3 1 7 1 10 3h-1l-1 1-12-3c-3-2-5-4-9-5l-4-2Z"/><path fill="#A78A59" fill-rule="evenodd" d="M461 104h2v15l-17-3c-2-7-3-9 5-10l7-2h3Zm-10 8a2 2 0 1 0-3-1 2 2 0 0 0 3 1Z" clip-rule="evenodd"/><path fill="#A78A5A" fill-rule="evenodd" d="M487 281v8l-14 2-4 1v-16l9 2 8 1 1 2Zm-2 2a2 2 0 1 0-3 2 2 2 0 0 0 3-2Z" clip-rule="evenodd"/><path fill="#A78A59" fill-rule="evenodd" d="m486 106 1 2v8l-18 3 1-4-1-6v-5l4 1 13 1Zm-1 6a2 2 0 1 0-4-1 2 2 0 0 0 4 1Z" clip-rule="evenodd"/><path fill="#574C3C" fill-rule="evenodd" d="M371 9c0-1-3-6-2-7l5 2 2 2c2 3 12 23 12 26l-1 1c-1-2-3-10-5-11l1 5 2 5h-2l-2 1c-3 0-8-20-9-23l-1-1ZM361 68v2l-7-1-4 1 1-8c3 0 8 0 10 3v3Zm-1 3c2 1 6 2 7 4v2l-2 1c-6-2-9-5-16-3l-4 2-1-1 1-1 4-4h11Z" clip-rule="evenodd"/><path fill="#7B7266" d="M360 71c2 1 6 2 7 4v2l-2 1c-6-2-9-5-16-3l-4 2-1-1 1-1 4-4h11Z"/><path fill="#3D352E" fill-rule="evenodd" d="m209 313 16 8 4 3-1 5-4 2-11-5-9-5 3-2h1l1-6Z" clip-rule="evenodd"/><path fill="#574C3C" d="m225 321 4 3-1 5-4 2-11-5-9-5 3-2 17 8c0-2-1-4 1-6Z"/><path fill="#4D4842" d="M404 73c-1 17 1 34-1 51l-3-3V65l-3-9 5 4c1 4 0 9 2 13Z"/><path fill="#473D34" fill-rule="evenodd" d="M406 219v-38l-1-66V75l1-3 1 1v237c0 3 1 11-1 13-2-3-1-32-1-38l1-66Z" clip-rule="evenodd"/><path fill="#36352C" d="m236 91-3 2-4 3c-3 3-5 8-5 12-3 3-6 4-10 4 0-5 0-11 3-15 5-5 13-5 19-6Z"/><path fill="#99836B" fill-rule="evenodd" d="M466 59c-9-2-13 2-17 9l-4 6h-2c-2-4 7-14 11-16 8-6 18-1 23 6l2 5c1 1 2 2 1 3l-1 2c-2 0-3-1-3-3-4-7-4-7-10-12Z" clip-rule="evenodd"/><path fill="#574C3C" d="M291 211c0 2-2 3-3 4h-44l3-4h44Z"/><path fill="#473D34" d="M399 166v42c0 9 2 38-1 44-2-2-1-74-1-83l2-3Z"/><path fill="#3D352E" d="M116 340a202 202 0 0 1 0 5c-3 0-7-1-10 2v1l-19-4v-4h29Z"/><path fill="#574C3C" d="m291 184-23-2-21 1-1-2v-2h42l3 5Z"/><path fill="url(#b)" fill-rule="evenodd" d="m627 299-1-4c2-1 7-4 9-2v2l1 1 3 10-4 2-5 1c-2-1-2-3-2-5l-1-5Zm7-2-2-2c-2 1-3 1-3 3l3 2 2-3Z" clip-rule="evenodd"/><path fill="#0BC9FF" d="M43 272c0 6 1 27-1 33h-2l-1-8v-27c0-2 0-4 2-6 2 2 2 6 2 8ZM43 97c0 5 1 31-1 34l-2-1-1-4c0-7-1-29 1-34l1-1c2 1 2 4 2 6Z"/><path fill="#3D352E" d="M91 322h-1l-2 4 2 5c-4 0-13 1-15-1l-4-8h20ZM90 64l-2 4 2 5H72v-1c0-3 2-6 4-8h14Z"/><path fill="#99836B" fill-rule="evenodd" d="M452 336c-4-2-10-10-9-15h1c3 1 4 6 6 8l7 7c5 2 9 0 13-4l5-7c1-3 1-4 4-4l1 1v2l-5 9c-7 6-16 11-23 3Z" clip-rule="evenodd"/><path fill="#7B7266" fill-rule="evenodd" d="m347 149 16-13c4-3 3-5 3-10 3 3 4 7 2 11l-7 6c-4 3-8 5-11 9-6 7-3 12-4 20-3-4-4-8-3-14 1-3 2-7 4-9Z" clip-rule="evenodd"/><path fill="#574C3C" fill-rule="evenodd" d="M351 89c2-1 8 0 10 1v4l-10 6V89Zm0 11-2 1h-1l1-12h1l1 11Z" clip-rule="evenodd"/><path fill="#3D352E" fill-rule="evenodd" d="M397 67c-1-6 0-6-6-8-8-3-15-7-23-8l-2 2h-1l-1-1v-2c2-4 6-2 8-1l25 10 2 6v55c1 5 0 38-2 41v-12a741 741 0 0 0 0-60V67Z" clip-rule="evenodd"/><path fill="#7B7266" d="m348 62-4 1v-1c2-9 34-4 21 10 0-5 1-7-4-9-4-1-9-2-13-1Z"/><path fill="#473D34" fill-rule="evenodd" d="m670 274 3-3v26l-8-18 4-4v6h1v-7Z" clip-rule="evenodd"/><path fill="#3D352E" d="M231 307c-1 2-13 7-16 7l-4-2-2-1 1-4h21Z"/><path fill="#7A8583" fill-rule="evenodd" d="m374 92 1 1-1 5-4-6c0-5-4-5-3-7l2-1h1l3 5 1 3Z" clip-rule="evenodd"/><path fill="#515B5A" fill-rule="evenodd" d="M374 84h5v5c-3 0-3 0-5 3l-1-3-3-5h4Z" clip-rule="evenodd"/><path fill="#292822" d="M346 179v37h-4l-1-1 1-1 2-7c1-6 1-22-3-26v-2h5Z"/><path fill="#3D352E" d="m111 358 4 7c-9-2-17-4-24-11 5 2 11 2 16 3l4 1Z"/><path fill="#574C3C" d="m343 327-3 1h-50l-20-1h-10v-1h10l18 1h55Z"/><path fill="#473D34" d="m635 80-1 1h-4l-4 1-2 2-17-3-4-1 17-1 15 1Z"/><path fill="#1B1511" d="m635 80-1 1h-8l-19-1v1l-4-1 17-1 15 1Z"/><path fill="#7B7266" fill-rule="evenodd" d="m665 116-4-5 1-3 6 8c4 6 15 15 14 22l-2 3v-5c-4-8-11-13-15-20Z" clip-rule="evenodd"/><path fill="#473D34" d="m44 178-1 9v27l-2 1v-35l3-2Z"/><path fill="#3D352E" d="M231 88h-21l1-5 4-3 12 5 4 3ZM343 68h-84 84Z"/><path fill="#473D34" d="M664 172c2 1 3 4 4 6l-4 5v-11Z"/><path fill="#574C3C" fill-rule="evenodd" d="M663 184s-1-9 1-13l-1-2-3 3v10l3 3v-1Z" clip-rule="evenodd"/><path fill="#3D352E" d="M364 99v32c0 2 0 2-2 3v-34l2-1ZM364 296v-32l-2-4v35l2 1Z"/><path fill="#7B7266" fill-rule="evenodd" d="m653 297 2-1c3-3 4-6 4-9l1-2c2 4 2 6 0 9-3 4-9 8-14 9l-2 2c-5 6-3 6-12 5l9-3v-3l3-2 9-5Z" clip-rule="evenodd"/><path fill="#3D352E" d="m346 90-1 2-11-5-1-1 2-3 3-1 5 1c1 1-1 3-1 5l1 2h3ZM452 338h-1c-1 1-28-1-32-2l1-1c2-1 25 1 29 1l3 2Z"/><path fill="#292822" d="m346 304-3 1h-1c-1 2 1 5 1 7h-8l-2-3 12-6 1 1Z"/><path fill="#3D352E" d="M112 193c0 4 1 12-1 16h-1l-1-9v-12l2-3 1 8Z"/><path fill="#443C31" d="m453 56-3 3h-29 1l31-3Z"/><path fill="#473D34" d="M405 326v15c-2 1-4 3-7 3l-1-1c0-3 4-5 5-6l3-12v1Z"/><path fill="#3D352E" d="M225 333h-21l10-5 8 5 3-1v1Z"/><path fill="#271B14" d="M225 333h-21 18l3-1v1Z"/><path fill="#443C31" d="m664 207 3 5-3 6h-1v-1l-4-4v-3l4-4 1 1Z"/><path fill="#473D34" d="m664 207 3 5-3 6h-1l1-11Z"/><path fill="#292822" d="m241 206-2 4-2 1c-2 0-3-1-4-3v-1l1-3 3-1c2 0 3 1 4 3Z"/><path fill="#473D34" d="M418 343v6l-2 2-2-5v-7l4-3v7Z"/><path fill="#3D352E" d="M346 127v13c-1 1-2 3-4 3v-17l4 1Z"/><path fill="#473D34" d="M419 48c0 3 0 7-2 9l-1 1-2-4 1-7 2-3 2 4ZM673 110v11l-3-4v-7c0-5 1-8 3-13v13Z"/><path fill="#292822" d="M240 187a4 4 0 1 1-7 2 4 4 0 0 1 7-2Z"/><path fill="#4D4842" d="M405 56v16l-2-12-5-7 1-1 6 2v2Z"/><path fill="#473D34" d="M669 254v1l-5 5v-4l-1 3v1l-2-3v-2l6-6 2 5ZM413 335c-1 3-4 4-6 5a160 160 0 0 0 0-15v-1c2 2 2 8 2 10l4 1ZM414 59l-4 2-3 10v-5l-1-12 8 5Z"/><path fill="#3D352E" d="m667 196-3 4h-1c-2-3-4-2-3-7l2-2h1l4 5Z"/><path fill="#473D34" fill-rule="evenodd" d="m673 237-6 7-4-5 4-5v3l1 1v-6h1l4 5ZM671 135l2-7 2 2c0 3 1 11-1 13l-3-4v-4Zm6-1v2l-1 2v-5l1 1Z" clip-rule="evenodd"/><path fill="#3D352E" d="M482 250h-5l-12 1v-3l17 2ZM658 51h-1c-4 0-17 0-20-2h6c2 0 9-2 10-1v1l5 2ZM658 344l-1-1c-4 2-25 4-27 6v1l13-2 10-1v-1l5-2Z"/><path fill="#574C3C" fill-rule="evenodd" d="M681 274c-2 1-6 2-7-1 1-2 2-2 4-2h2l4 1c-1 2-1 2-3 2Z" clip-rule="evenodd"/><path fill="#3D352E" d="m485 146-20 1h-1l1-2 20 1Z"/><path fill="#574C3C" d="m684 122-1 2h-6l-3-2v-1h1c3-1 7 0 9 1Z"/><path fill="#A78A5A" fill-rule="evenodd" d="M466 281h2v6h-3v-6h1ZM466 108h2v6l-4 1v-6l2-1Z" clip-rule="evenodd"/><path fill="#3D352E" d="M403 344c0 2 1 5-1 7l-2 1-1-7 4-1ZM403 49v2h-1l-3-1v-3l1-3h1c2 1 2 3 2 5Z"/><path fill="#574E43" d="M688 174c1 3 0 4-1 6h-1c-1-2-3-6-1-7l3 1Z"/><path fill="#443C31" d="m665 246-4 4-1 1-1-1 1-5h3l2 1Z"/><path fill="#A78A5A" fill-rule="evenodd" d="M468 280h-4c0-2-1-4 1-5h3v5Z" clip-rule="evenodd"/><path fill="#574C3C" d="M681 160v11l-1-1-2-3 3-7Z"/><path fill="#A78A5A" fill-rule="evenodd" d="M464 293v-5h4v5h-4Z" clip-rule="evenodd"/><path fill="#A78A5A" d="M468 115v6h-4v-5l4-1ZM468 103v4h-4v-5h2l2 1Z"/><path fill="#4D4842" fill-rule="evenodd" d="m384 37-2-4 5 4 2 7v1l-3-1-2-7Z" clip-rule="evenodd"/><path fill="#574E43" d="M687 217c3 2 1 7-1 7v-6c-1-1 0-1 1-1Z"/><path fill="#7B7266" d="M679 136v2l-2 7h-1c-1-2 1-7 2-9h1Z"/><path fill="#292822" fill-rule="evenodd" d="M386 353v-1c0-1 1-2 3-2 1 2 0 3-1 5l-1 1v3l-3 3 1-4 1-5Z" clip-rule="evenodd"/><path fill="#99836B" d="m638 311-5 2-4-1v-1h9Z"/><path fill="#3D352E" d="M656 299v2c-2 3-7 4-10 4 1-2 7-4 10-6Z"/><path fill="#473D34" d="m385 351-1 4h-6l7-4Z"/><path fill="#4D4842" d="M384 40v3l-5-2-1-1h6Z"/><path fill="#473D34" d="M658 233v2l-17-1h-1v-1h18ZM364 67v4l-2-1 1-5 1 2Z"/><path fill="#3D352E" d="m460 306 3 1-1 2h-3l1-3Z"/><path fill="#473D34" d="m443 69-2 5h-1v-3l3-2ZM443 326h-2 1-1l-1-4 1-1 2 5Z"/><path fill="#574C3C" d="M669 108v7h-1l-1-2 2-5Z"/><path fill="#443C31" fill-rule="evenodd" d="m660 120 3-4 1 1-2 3-2 3v-3Z" clip-rule="evenodd"/><path fill="#473D34" fill-rule="evenodd" d="m673 147-4-5-4 5 5 7 3-7Z" clip-rule="evenodd"/><path fill="#443C31" d="m662 221-3 3v-6l3 3Z"/><path fill="#99836B" d="M629 313h-1c-1-1-2-1-2-3h2l1 2v1ZM645 307l-1 2-3 1c1-1 2-3 4-3ZM645 88l-1 1-2-4h1l2 3Z"/><path fill="#6D645B" d="M685 192v5l-1-2 1-3Z"/><path fill="#473D34" d="m660 261 2 3-2 3-1-2 1-4ZM661 203v1l-2 1v-4h1l1 2Z"/><path fill="#3D352E" d="m365 304-2 1-1-1 1-2 2 2ZM364 91v1l-2 1v-2l1-1 1 1Z"/><path fill="#574C3C" d="M483 71v1l-1 1-1-3v-1l2 2ZM483 323v1l-3 3 2-4h1Z"/><path fill="#473D34" fill-rule="evenodd" d="m668 158-5 5-3-4-1-7 3-2 1 2v5l1-1v-3l4 5ZM674 166l-5-6-4 6 5 8 4-8Z" clip-rule="evenodd"/><path fill="#574C3C" fill-rule="evenodd" d="M659 163v5l2-2-2-3ZM659 185v4l2-2-2-2Z" clip-rule="evenodd"/><path fill="#473D34" fill-rule="evenodd" d="m673 221-4-6-3 6 3 5 4-5ZM664 224l3 5-6 7-2 1v-9h2l3-4ZM678 247l-4-7-5 7 3 5 6-5ZM671 258l-5 6 3 6 5-5-3-7ZM666 272l-3-5-2 5h-2v8l7-8Z" clip-rule="evenodd"/><path fill="#515B5A" fill-rule="evenodd" d="M369 137c2-5 2-9-3-11v-11l8-2v28l-1 13h-2c-3-1-5 0-5-4v-9l3-4Z" clip-rule="evenodd"/><path fill="#8E958D" fill-rule="evenodd" d="M374 132v11l-4-7v-6l-2-3v-1l6 6Zm18 28v11l-1 1v-2l-15-25-1-1 1-9 4 7 11 18 1-4v4Z" clip-rule="evenodd"/><path fill="#574C3C" fill-rule="evenodd" d="m355 292 6 3v-36l-6-4v37Zm0-37-7-6v38l6 4v-22l1-14Z" clip-rule="evenodd"/><path fill="#3D352E" fill-rule="evenodd" d="m363 312-8 1-9-1 9 2 8-2Z" clip-rule="evenodd"/><path fill="#292822" fill-rule="evenodd" d="M346 143v4s-7 8-4 20l4 7v3H209V89h29s-20 0-23 9c-3 8-3 14-3 14v42s2 12 11 15c8 4 18 5 18 5s17 2 25-2l2-1s26 5 42 4 23-6 28-14l4-15 4-3ZM250 89h83l13 6v7s-7 6-4 14l4 8v2l-4-3s-3-19-10-25c-7-5-12-8-30-7-17 1-37 6-37 6s-4-7-15-8Z" clip-rule="evenodd"/><path fill="#130C09" fill-rule="evenodd" d="m259 188-1-1c0-2 3-4 3-4l1-1 1 1v4l1 6 1-4 2-7h1l4 3-2 3c-1 1-3 3-2 5l2-2 1-2c3-1 7 0 10 1l2 6-2 7-2 1h-8l-2-2v-1l-1-1c-1 3 3 6 4 8l-1 2-3 1c-2-2-3-8-4-10l-1 10-6-4 1-1 2-2c2-5 3-9 0-15l-1-1Z" clip-rule="evenodd"/><path fill="#C4BCB4" fill-rule="evenodd" d="m259 207 2-2 2-7 5-12-1-2 1-1 3 2-4 5-5 17v2l-4-2h1Zm3-24v4c1 3 2 6 1 8-2-2-1-6-4-8l3-4Zm8 10v-1c1-3 5 0 7-1l-3-1 2-1 3 1 3 6-2 7-4 1-2-2-3 1c-2-2 0-3-4-4 2-4-2-3 3-6Zm4 8a2 2 0 1 0-1-3 2 2 0 0 0 1 3Zm4 2-4-1 4 1Zm-6-9 2 2 1-1v-2l-1-1-2 2Zm-4 16-3-11h1l3 7 2 3-3 1Z" clip-rule="evenodd"/><path fill="#020101" fill-rule="evenodd" d="m300 49 1-2 4-2 6 2 2 5-1 2c-2 2-5 1-7 2s-1 3-5 3l-3-1v-4c-1-1-7 0-7-4l3-3h5l1 1 1 2v-1Z" clip-rule="evenodd"/><path fill="#BFBAAA" fill-rule="evenodd" d="m312 51-2 3h-5l-4-4 2-2c2-2 4-1 6-1l3 4Zm-1 0-4-2-2 2-1 1 4 2 2-2 1-1Z" clip-rule="evenodd"/><path fill="#847D70" d="m305 51 3-1 2 1-1 1-2 1-1-1-1-1Z"/><path fill="#9B938B" d="m305 51 4 1-2 1-1-1-1-1Z"/><path fill="#B2AFA8" d="m304 56-1 1h-3l3-1h-3l-1 1v1l-1-2 2-4 4 4Z"/><path fill="#B2AFA8" fill-rule="evenodd" d="m297 51-2-1h-1l-1 2-1-2 1-2h4l2 2-1 2-3 1 2-2Z" clip-rule="evenodd"/><path fill="#847D70" d="m295 50 1 1-1 1h-1v-2h1Z"/><path fill="#020101" fill-rule="evenodd" d="M105 348h2l3 3 1 6-3 4h-2c-3-1-4-4-6-6-1-1-3 1-4-3v-3l2-2c1-1-3-6 1-7h4c0 2 2 3 3 5l-1 2-1 1h1Z" clip-rule="evenodd"/><path fill="#BFBAAA" fill-rule="evenodd" d="M108 360a6 6 0 0 1-6-5l2-6 3 1c2 1 3 3 3 5l-2 5Zm0-2-1-3-3-2v4l2 1h2Z" clip-rule="evenodd"/><path fill="#847D70" d="m105 354 2 1v3h-1l-2-2 1-2Z"/><path fill="#9B938B" d="m105 354 1 4-2-2 1-2Z"/><path fill="#B2AFA8" d="m100 355-2-1-1-2 2 1-1-2h-2l1-2h5l-2 6Z"/><path fill="#B2AFA8" fill-rule="evenodd" d="m102 346-1-2v-1h-3l2-2h2l2 4-1 2-2 1-2-3 3 1Z" clip-rule="evenodd"/><path fill="#847D70" d="m101 344-1 1v-1l1-1v1Z"/><path fill="#020101" fill-rule="evenodd" d="m425 325 1-1 4-2c2 0 4 0 5 2 1 1 3 3 3 5l-1 1c-2 2-5 2-7 3-2 0-1 3-6 2l-2-1-1-3c0-1-7 0-6-4l2-3h6l1 1 1 2v-2Z" clip-rule="evenodd"/><path fill="#BFBAAA" fill-rule="evenodd" d="m437 328-3 3h-4l-4-4 2-3h6l3 4Zm-2-1-3-1-3 2v1l3 1 3-1v-2Z" clip-rule="evenodd"/><path fill="#847D70" d="m430 328 2-1 3 1-1 1-3 1-1-2Z"/><path fill="#9B938B" d="m430 328 4 1-3 1-1-2Z"/><path fill="#B2AFA8" d="m429 333-2 1h-2l2-1v-1l-2 1-1 1h-1l-1-2 3-3 4 4Z"/><path fill="#B2AFA8" fill-rule="evenodd" d="m422 328-2-1h-1l-1 2-1-2 1-2h4l2 2-1 2-3 1v-1l2-1Z" clip-rule="evenodd"/><path fill="#847D70" d="m420 327 1 1-1 1-1-1v-1h1Z"/><path fill="#020101" fill-rule="evenodd" d="m608 348 1-2 4-2 6 2c1 1 3 3 2 5v2l-8 2c-2 1-1 3-5 3l-2-2-1-3c-1-1-7 0-7-4l3-3h5l1 1 1 2v-1Z" clip-rule="evenodd"/><path fill="#BFBAAA" fill-rule="evenodd" d="m620 350-2 3h-5l-4-4 2-3h6l3 4Zm-1-1-3-1-3 2-1 1c1 1 2 2 4 1l2-1 1-2Z" clip-rule="evenodd"/><path fill="#847D70" d="m614 350 2-1 2 1-1 1-2 1-1-2Z"/><path fill="#9B938B" d="m614 350 3 1-2 1-1-2Z"/><path fill="#B2AFA8" d="m612 355-1 1h-3l3-1h-3v1h-1l-1-2 2-3 4 4Z"/><path fill="#B2AFA8" fill-rule="evenodd" d="m605 350-2-1h-1l-1 2-1-2 1-2h4l2 2-1 2-3 1v-1l2-1Z" clip-rule="evenodd"/><path fill="#847D70" d="m603 349 1 1v1l-2-1v-1h1Z"/><path fill="#020101" fill-rule="evenodd" d="M507 55v1c1 2 3 2 4 2 3 1 4 0 6-1 1-2 3-3 3-5l-1-2c-2-2-5-1-8-2-2-1-1-3-5-3l-2 1-1 3c-1 1-7 1-6 5l2 3h5l2-2v-1l1 1Z" clip-rule="evenodd"/><path fill="#BFBAAA" fill-rule="evenodd" d="m519 52-3-2h-5c-2 0-3 2-4 4l2 2c2 2 4 1 6 1l4-5Zm-2 1-3 1-3-2v-1l3-1 2 1 1 2Z" clip-rule="evenodd"/><path fill="#847D70" d="m512 52 2 1h2l-1-1-2-1-1 1Z"/><path fill="#9B938B" d="M512 52h3l-2-1-1 1Z"/><path fill="#B2AFA8" d="m511 48-2-1-2-1 2 2h-2l-1-2h-1l-1 2 2 4 5-4Z"/><path fill="#B2AFA8" fill-rule="evenodd" d="m504 53-3 1-1-3h-1l-1 3 1 1 5 1 1-2-1-3h-2l2 2Z" clip-rule="evenodd"/><path fill="#847D70" d="m501 53 1-1h-1v1Z"/><path fill="#020101" fill-rule="evenodd" d="m664 314-1-1-2-4c0-2 0-4 2-5 1-1 3-3 5-3l2 1 2 7c0 2 3 1 2 6l-1 2-3 1c-1 0 0 7-4 6l-3-2v-6l1-1 2-1h-2Z" clip-rule="evenodd"/><path fill="#BFBAAA" fill-rule="evenodd" d="m667 302 3 2v5l-4 4-3-2v-6l4-3Zm-1 2-1 3 2 2 1 1c1-1 2-2 1-3l-1-3h-2Z" clip-rule="evenodd"/><path fill="#847D70" d="m667 309-1-2 1-3 1 1 1 2-2 2Z"/><path fill="#9B938B" d="m667 309 1-4 1 2-2 2Z"/><path fill="#B2AFA8" d="m672 310 1 1v3l-1-2h-1l1 2 1 1-2 2-3-3 4-4Z"/><path fill="#B2AFA8" fill-rule="evenodd" d="m667 317-1 2v1l2 1-2 1-2-1v-4l2-2 2 1 1 3h-1l-1-2Z" clip-rule="evenodd"/><path fill="#847D70" d="m666 319 1-1 1 1-1 1h-1v-1Z"/><path fill="#5F4835" d="m458 232 1 3h-3c-2 0-2 0-3-2l5-1Z"/><path fill="#000" fill-rule="evenodd" d="m458 232 2 3v1h-5l-3-3v-1h6Zm0 0-5 1c1 2 1 2 3 2h3l-1-3Z" clip-rule="evenodd"/><path fill="#5F4835" d="m456 236 5 1 1 2h-4l-3-3h1Z"/><path fill="#000" fill-rule="evenodd" d="M456 236h6v1l1 1v1l-1 1h-5l-2-3v-1h1Zm0 0h-1l3 3h4l-1-2-5-1Z" clip-rule="evenodd"/><path fill="#C0C0BF" fill-rule="evenodd" d="m449 224-2 1-2-3c-16-22-36-48-27-78 2 12 4 17 11 26l1 1c0 16 13 39 23 51l-4 2-6-9a268 268 0 0 1 6 9Zm-27-44h1v-1l-3-12-1-9c-1 7 0 16 3 22Z" clip-rule="evenodd"/><path fill="#000" fill-rule="evenodd" d="m449 224-1 1h-1l-2-2c-9-12-18-24-24-37-5-13-8-27-4-42a1 1 0 0 1 1 0 45 45 0 0 0 12 26v1a107 107 0 0 0 23 51v1l-4 1Zm0 0a162 162 0 0 1-15-22l9 13 6 9 4-2c-10-12-23-35-23-51l-1-1c-7-9-9-14-11-26-9 30 11 56 27 78l2 3 2-1Zm-27-44c-3-6-4-15-3-22l1 9 3 12v1h-1Z" clip-rule="evenodd"/><path fill="#948065" fill-rule="evenodd" d="m468 245 1-3c3-6-2-15-8-17l-2-1c8-4 18 13 9 21l1 3c0 3-2 4-5 2l-1-1c0-2 3-3 5-4Z" clip-rule="evenodd"/><path fill="#000" fill-rule="evenodd" d="m467 245 2-3c1-3 0-7-1-10-2-3-4-5-7-6l-2-1v-1c-1 0-1 0 0 0 3-2 7 0 10 3 3 5 5 13 0 18l1 3-1 3h-2a8 8 0 0 1-3-1h-1v-1l2-3 2-1Zm1 0c-2 1-5 2-5 4l1 1c3 2 5 1 5-2l-1-3c9-8-1-25-9-21l2 1c6 2 11 11 8 17l-1 3Z" clip-rule="evenodd"/><path fill="#948065" d="M460 219v1l-4 6c-3 2-10 7-13 6l-2-1 1-2 2 1h4c3-2 9-6 10-9l2-2Z"/><path fill="#000" fill-rule="evenodd" d="M460 219v2c0 2-2 4-4 5l-8 5-5 2-3-2v-1l2-2h1l1 2h1l2-1 7-4 3-4 2-2a1 1 0 0 1 1 0Zm0 0-2 2c-1 3-7 7-10 9h-4l-2-1-1 2 2 1c3 1 10-4 13-6l4-6v-1Z" clip-rule="evenodd"/><path fill="#5F4835" d="m457 231-1 1-5-1v-1l4-2 2 3Z"/><path fill="#000" fill-rule="evenodd" d="M458 231v1h-2c-2 1-4 1-5-1v-1l4-3 3 4Zm-1 0-2-3-4 2v1l5 1 1-1Z" clip-rule="evenodd"/><path fill="#948065" d="m454 223-1 2c-2 1-3 3-5 2l2-3 4-1Z"/><path fill="#000" fill-rule="evenodd" d="m455 223-2 3-3 1-2 1a1 1 0 0 1 0-1l2-3 4-2a1 1 0 0 1 1 1Zm-1 0-4 1-2 3c2 1 3-1 5-2l1-2Z" clip-rule="evenodd"/><path fill="#5F4835" d="m466 242-1 1-2 1-3-1v-1h6Z"/><path fill="#000" fill-rule="evenodd" d="m466 243-2 2h-1c-2 0-2-1-3-2v-1h6v1Zm0-1h-6v1l3 1 2-1 1-1Z" clip-rule="evenodd"/><path fill="#5F4835" d="M464 240v1h-5v-1h5Z"/><path fill="#000" fill-rule="evenodd" d="M465 241h-1v1l-6-1a1 1 0 0 1 0-1h6a1 1 0 0 1 1 1Zm-1-1h-5v1h5v-1Z" clip-rule="evenodd"/><path fill="#7C6752" d="m466 244-3 2v-1l3-1Z"/><path fill="#000" fill-rule="evenodd" d="M467 244v1l-3 2a1 1 0 0 1-1-1v-1l3-2a1 1 0 0 1 1 1Zm-1 0-3 1v1l3-2Z" clip-rule="evenodd"/><path fill="#5F4835" d="m458 158 1-2-3-1c-2 0-2 1-3 3h5Z"/><path fill="#000" fill-rule="evenodd" d="M458 159h-4l-2-1 3-3h5v1l-2 3Zm0-1 1-2-3-1c-2 0-2 1-3 3h5Z" clip-rule="evenodd"/><path fill="#5F4835" d="m456 155 5-1 1-2-4-1-3 3 1 1Z"/><path fill="#000" fill-rule="evenodd" d="M456 155h-1a1 1 0 0 1 0-1l2-3h6v1l-1 2-3 1h-3Zm0 0 5-1 1-2-4-1-3 3 1 1Z" clip-rule="evenodd"/><path fill="#C0C0BF" fill-rule="evenodd" d="m449 167-2-1-2 3c-16 22-36 48-27 77 2-12 4-16 11-26h1c0-16 13-39 23-51l-4-2-6 9a269 269 0 0 0 6-9Zm-27 44 1-1v2c-2 4-3 7-3 12l-1 8c-1-6 0-15 3-21Z" clip-rule="evenodd"/><path fill="#000" fill-rule="evenodd" d="m449 166 4 2a1 1 0 0 1 0 1c-10 12-22 35-23 51v1c-8 9-9 14-12 25a1 1 0 0 1-1 0c-4-14-1-28 4-41 6-14 15-26 24-37l2-3h1l1 1Zm0 1-2-1-2 3c-16 22-36 48-27 77 2-12 4-16 11-26h1c0-16 13-39 23-51l-4-2-6 9a269 269 0 0 0 6-9Zm-27 44 1-1v2c-2 4-3 7-3 12l-1 8c-1-6 0-15 3-21Z" clip-rule="evenodd"/><path fill="#948065" fill-rule="evenodd" d="m468 146 1 3c3 6-2 15-8 16l-2 1c8 5 18-13 9-21l1-2c0-3-2-4-5-2h-1c0 3 3 4 5 5Z" clip-rule="evenodd"/><path fill="#000" fill-rule="evenodd" d="m467 146-2-2c-1 0-2-1-2-3l1-1 3-1 2 1 1 3-1 2c5 5 3 14 0 19-3 3-7 5-10 3v-2h2c3-1 5-3 7-7 1-3 2-6 1-9l-2-3Zm1 0 1 3c3 6-2 15-8 16l-2 1c8 5 18-13 9-21l1-2c0-3-2-4-5-2h-1c0 3 3 4 5 5Z" clip-rule="evenodd"/><path fill="#948065" d="M460 172v-2l-4-5c-3-2-10-7-13-6l-2 1 1 2 2-1h4c3 2 9 5 10 9l2 2Z"/><path fill="#000" fill-rule="evenodd" d="m459 172-2-2-3-4-7-4-2-1h-1l-1 1h-1l-2-2c1-1 1-2 3-2l5 1 8 6c2 1 4 3 4 5v2h-1Zm1 0v-2l-4-5c-3-2-10-7-13-6l-2 1 1 2 2-1h4c3 2 9 5 10 9l2 2Z" clip-rule="evenodd"/><path fill="#5F4835" d="M457 159h-1l-5 1 4 3 2-4Z"/><path fill="#000" fill-rule="evenodd" d="m458 160-3 3v1-1l-4-2v-2l5-1 1 1h1v1Zm-1-1h-1l-5 1 4 3 2-4Z" clip-rule="evenodd"/><path fill="#948065" d="m454 168-1-2c-2-1-3-3-5-3l2 4 4 1Z"/><path fill="#000" fill-rule="evenodd" d="m454 168-4-1-2-4h2l3 2c1 1 2 1 2 3a1 1 0 0 1-1 0Zm0 0-1-2c-2-1-3-3-5-3l2 4 4 1Z" clip-rule="evenodd"/><path fill="#5F4835" d="M466 148h-1l-2-2-3 2v1l6-1Z"/><path fill="#000" fill-rule="evenodd" d="M466 149h-6v-1a2 2 0 0 1 0-1l3-1h1l2 1v2Zm0-1h-1l-2-2-3 2v1l6-1Z" clip-rule="evenodd"/><path fill="#5F4835" d="M464 150h-5 5Z"/><path fill="#000" fill-rule="evenodd" d="M464 151h-6v-1a1 1 0 0 1 0-1h6l1 1a1 1 0 0 1-1 1Zm0-1h-5 5Z" clip-rule="evenodd"/><path fill="#7C6752" d="M466 147v-1l-3-1 3 2Z"/><path fill="#000" fill-rule="evenodd" d="m466 148-3-2v-1a1 1 0 0 1 1-1l3 2v1a1 1 0 0 1-1 1Zm0-1v-1l-3-1 3 2Z" clip-rule="evenodd"/><path fill="#724E40" fill-rule="evenodd" d="M281 94c3 1 20-3 21-2l-1 1 4-1 13 2v1l-1 2h-3l-7 3-1-3v-1c-8-3-16 8-14 15 0 2 6 3 7 2l1-2h4l1 3 5 2-8 3c-2 1-7 3-9 6l1 4v1c-4 1-6 0-9 4v4l-3 2c4 9 8 6 11 9-2 2-1 3 1 5l8 4-5 1-4 2h-3c2 2 2 1 2 3 1 3 9 5 12 7 0 2 1 2 3 3l-18-2h-10l-6-11-1-5-1 4c0 2 6 10 7 11l-11-1c-1-4-1-10 1-14h1l-3-2v-14 2c-2 2 0 12-2 12h-1c-2-2-6-2-9-3h-2l-1-1 1-1 5-2v1l-1 1 4-2 1-3-1-5c-2-1-8-3-8-5v-1c2-1 5 0 6 1l-1-4-2-2-3-1 5-3 8 1c2 2 0 6 0 10l1 3v-4l1-8c1-6 0-14-1-20l1-7c1-2 3-4 5-4l1 2h1l4-2 3-1Zm1 14c-3 5-5 15-7 20l2 8-1-3 3-12 3-13 2-3-2 3Zm11-5c-3 1-8 4-9 7l9-7Zm-19 49-1-12v-4h-1v2l-1 3 3 12v-1Zm5-55c-2 2-7 17-7 20v4l2-10c2-5 5-9 5-14Zm16 74c-3-2-11-9-15-9l15 9Zm-11-21-3-14h-1v1c0 5 1 9 4 14v-1Zm15-34-5 3c-3 1-10 1-12 5l4-2c4-1 12-2 13-6Zm-35-11 2 13-7-4-1-5c-1-2-4-1-6-1l-1-1v-1l-1-2 1-1v-2l-1-2-7-1 3-4-4-2c-2 1-5 2-7 1l1-1 1-1v-1l1-1h7c8 1 12 3 20 6l-1 1c-2 1-4 1-5 4v2c1 2 3 3 5 3Z" clip-rule="evenodd"/><path fill="#000" fill-rule="evenodd" d="m293 130 2 1h-1l-4 1-4 2a136 136 0 0 0 0 5l-2 2 2 3 4 2 4 2v2l-1 1 2 1 7 5a1 1 0 0 1 0 3h-4l-5 2v1l4 3c2 1 6 2 7 4l1 1 1 1 2 1a1 1 0 0 1-1 2l-18-1h-6l-4-1h-2l-11-2-1-1v-9l2-5-2-1-1 1h-1l-1-1-3-1-5-2h-2l-1-1-1-1v-1l1-1 6-2 1 1 1-1 1-2-1-4-5-3c-2 0-3-2-4-3v-1l2-1 3-1 2 1-1-1-1-1-1-1-3-1a1 1 0 0 1 0-3l6-2h7l2 1v-4l-1-1-7-4-1-1 1-3-1-1-2-1h-3l-2-1-1-1v-4l1-1v-1l-1-1h-6l-1-1v-3l2-1-2-1-4 1-3-1h-1v-3l1-1h1v-2h9c8 1 13 3 20 6a1 1 0 0 1 0 2l-1 1c-1 1-3 1-3 3v2l1 1 2 1h1l1-5v-1l3-3 3-1h1l1 1 3-1 3-1h4l13-2 4-1 2 1h2l13 1 2 2v1l-1 1v1l-1 1h-1l-3 1-5 2h-3l-1-1 1-2h-1v-1c-3-1-7 1-9 4s-4 7-3 10a10 10 0 0 0 5 1h1v-2h1l5-1v1l1 2v1l5 2a1 1 0 0 1 0 3l-8 2-6 3-2 2v4a1 1 0 0 0-1-1l-1-3c2-3 7-5 9-6l8-3-5-2-1-3h-4l-1 2c-1 1-7 0-7-2-2-7 6-18 14-15v1l1 3 7-3h3l1-2v-1l-13-2-4 1 1-1c-1-1-18 3-21 2l-3 1-4 2h-1l-1-2c-2 0-4 2-5 4l-1 7c1 6 2 14 1 20l-1 8v4l-1-3c0-4 2-8 0-10l-8-1-5 3 3 1 2 2 1 4c-1-1-4-2-6-1v1c0 2 6 4 8 5l1 5-1 3-4 2 1-1v-1l-5 2-1 1 1 1h2c3 1 7 1 9 3h1c2 0 0-10 2-12v-2 14l3 2h-1c-2 4-2 10-1 14l11 1c-1-1-7-9-7-11l1-4 1 5 6 11h10l18 2c-2-1-3-1-3-3-3-2-11-4-12-7 0-2 0-1-2-3h3l4-2 5-1-8-4c-2-2-3-3-1-5-3-3-7 0-11-9l3-2v-4c3-4 4-3 8-4Zm2-1h-1v-1h1v1Zm-13-21 2-3-2 3-3 13-3 12 1 3-2-8c2-5 4-15 7-20Zm-3-11c0 5-3 9-5 14l-2 10v-4c0-3 5-18 7-20Zm-5 55v1l-3-12 1-3v-2h1v4l1 12Zm10-2v1c-3-5-4-9-4-14v-1h1l3 14Zm11 21-15-9c4 0 12 7 15 9Zm4-55c-1 4-9 5-13 6l-4 2c2-4 9-4 12-5l5-3Zm-6-13-9 7c1-3 6-6 9-7Zm-29 2c-2 0-4-1-5-3v-2c1-3 3-3 5-4l1-1c-8-3-12-5-20-6h-7l-1 1v1l-1 1-1 1c2 1 5 0 7-1l4 2-3 4 7 1 1 2v2l-1 1 1 2v1l1 1c2 0 5-1 6 1l1 5 7 4-2-13Z" clip-rule="evenodd"/><path fill="#1A1A1A" fill-rule="evenodd" d="M639 81s-9 27-8 33v4l-8 5 9 1v6l2 3s5 24 3 45l-4 40-8 4 8 3s3 28 0 54c0 6 4 11 4 11l4 25-48-7-5-8-3 1-4-7-1 13s0 2-2 2l-2-1s-47 1-63 6l-32 9 6-44s7-4 6-10c2-5 16-10 15-14-2-4-17 0-17 0s1-32 4-46c2-15 2-43-1-46l8-3s-2-9-9-13c-7-3-10-68-14-74a558 558 0 0 0 66 13l4 7 9-7s23 3 37 2c13-1 44-7 44-7Z" clip-rule="evenodd"/><path fill="#000" fill-rule="evenodd" d="m631 119-6 4h7v1l1 6 2 3s5 24 2 45l-3 40h-1l-7 4 7 3h1s2 28 0 54a21 21 0 0 0 3 11l4 25a1 1 0 0 1 0 1l-48-7v-1l-6-7-1 1-1-1-3-5-1 11-1 1-1 1h-3c-3 0-47 1-63 6l-32 8a1 1 0 0 1-1 0l6-44 1-1 4-3c1-2 2-3 1-5v-1l4-4 7-5 4-4v-1l-1-1h-3c-4-1-11 1-11 1a1 1 0 0 1-1 0s1-32 3-47a176 176 0 0 0 0-46l7-2c0-2-3-9-9-12l-2-3-3-14c-3-15-5-35-6-48l-2-9a1 1 0 0 1 1-1 558 558 0 0 0 66 13l3 5 9-6s23 3 37 2a465 465 0 0 0 45-6l-7 23c-1 5-2 8-1 10v4l-1 1Zm-56 189a1 1 0 0 0 1 1l-1-1h1l2 1c2 0 2-2 2-2l1-13 4 7 3-1 5 8 48 7-4-25s-4-5-4-11c3-26 0-54 0-54l-8-3 8-4 4-40c2-21-3-45-3-45l-2-3v-6l-9-1 8-5v-4c-1-6 8-33 8-33s-31 6-44 7c-14 1-37-2-37-2l-9 7-4-7-16-3c-12-1-34-6-50-10 4 6 7 71 14 74 7 4 9 13 9 13l-8 3c3 3 3 31 1 46-3 14-4 46-4 46s15-4 17 0c1 4-13 9-15 14 1 6-6 10-6 10l-6 44 32-9c15-5 56-6 62-6Z" clip-rule="evenodd"/><path fill="#fff" fill-rule="evenodd" d="m567 204 1-2v-1l1-1h-3l-1-3 6-1-5-1-1-2 3-1h1l-1-1h-3v-1l2-1v-1h-2l-1-1h4c-2-6-15-4-14-9h5c6 1 9 3 13 7l4 4 1 12-4 6c-4 2-4 4-7 6l-11 2v-2c2-2 8-2 10-4l2-3c-1 0-2 1-3-1l3-1Zm-4-7-1 3-3-1c1 2 0 5-1 7l1 1-7 3v-1l-1-1v7c0 3-3 8-7 7-4-7-8-2-15-4l-4-3-3 1-5-2v1c2 2 5 2 7 1l7 4c2 0 10-2 10 0-2 3-8 3-11 3-5 1-10-1-14-3-12-8-15-29-7-41 4-5 9-8 15-9 3-1 17-1 17 3l-9 1c2 2 8 1 11 0l1-1 2-2c5 0 5 9 7 12 1 2 4 1 6 2l-1 2 2 1-1 1v1l1 2-1 2h1l1-2 2 1v3h-2l-2 1v1l4-1Zm-14-16-2-1v3l2-2Zm0 32-2-2v-1 3h2Zm-4-31-4-4h-6l-3 3-1 7 2 4h4c3-1 6-3 7-6l1-4Zm8 11-6-1-7 4 3 2c3 1 6 3 8 2l1-1v-1l-2-1c0-2 2-2 3-4Zm-8 15c-1-3-3-6-6-8l-5-1c-2 2-3 4-3 7s0 6 3 8l6 1 4-3 1-4Zm14-19h3l1 3-3-1-1-2Zm3 16-1 1h-2l1-1h2Zm57-60c0 5-8 10-10 14l-5 10-7 17a322 322 0 0 1-31 55l-9 12c-2 5-3 15-6 18-1 1-3 3-5 3s-3-3-5-5-4 1-6 1l-3-1-1-6c3-5 9-6 13-10 6-5 10-12 14-18a264 264 0 0 0 40-79l-1-10-2-7 2-4c4-3 8 4 11 5l7 1 4 4Zm-72 109-8 5h-1a11 11 0 0 0 9-5Zm-3 12h5-6l-1 1 2-1Zm69-121-1-1-3 8v1l4-5v-3Zm-6-2-5-1h-1c2 1 4 2 6 1Zm-47 101c-4 4-10 13-10 19l3-6c1-4 6-10 7-13Zm32-63-7 17-9 16-4 6c5-6 20-32 20-39Zm9-32-1-4c-1 1 0 3 1 5l-2 9v2c2-2 3-10 2-12Zm-18 43-1 3-2-3c-6-12-13-22-20-33-7-10-13-20-24-25l-4-4v-5l3-3 4 1c3 1 4-2 7-4 1-1 5 1 6 3 3 4 3 12 6 16 10 16 20 30 28 48l-2 6c-4-8-14-28-21-33l7 10 13 23Zm-29-46c-4-5-7-10-12-14l-1-6v8-1h1l12 13Zm-4-20h-5l1 1h3l1-1Zm67 119v1l-2 5c-2 2-6 2-9 1-2 2-4 6-7 6l-3-1c-4-3 0-9 0-13v-5l-3-15c-2-4-5-10-5-15v-2h1l7 15 3 9c0-6-7-20-10-25l4-7 6 16 7 18c3 5 9 7 11 12Zm-6 0c-1-4-4-6-7-8 2 3 6 5 6 9l-10 4c3-1 9-2 10-4l1-1Zm-12-4v-1l-1 8 1-4v-3Z" clip-rule="evenodd"/><path fill="#fff" d="M559 189h3l1 3-3-1-1-2Z"/><path fill="#070605" d="M631 302c-5-3-17-27-19-33h1l3 7 10 18 5 8ZM506 119l-3-5-14-24v-1l17 30ZM629 95l-12 15-7 9c1-4 15-22 19-24Z"/><path fill="#948676" fill-rule="evenodd" d="m476 329 2-3v-1l-10 9 4-1 4-4Z" clip-rule="evenodd"/><path fill="#000" fill-rule="evenodd" d="m477 329-5 5h-4a1 1 0 0 1 0-1 67 67 0 0 1 10-8h1v1l-1 1-1 2Zm-1 0 2-3v-1l-10 9 4-1 4-4Z" clip-rule="evenodd"/><path fill="#948676" fill-rule="evenodd" d="M476 68c1 1 2 1 2 3l-10-8h4l4 5Z" clip-rule="evenodd"/><path fill="#000" fill-rule="evenodd" d="m477 67 1 2 1 1v1h-1l-3-1-7-7a1 1 0 0 1 0-1h4v1l5 4Zm-1 1-4-5h-4l10 8c0-2-1-2-2-3Z" clip-rule="evenodd"/><path fill="#070605" d="M510 283a456 456 0 0 1 0 0Z"/><path fill="#948676" d="m657 331-1 1c-3-1-6-5-8-7l1-1c3 1 6 5 8 7Z"/><path fill="#000" fill-rule="evenodd" d="M647 325v-1h2l4 2 4 4v2l-1 1-4-3-5-4v-1Zm10 6c-2-2-5-6-8-7l-1 1c2 2 5 6 8 7l1-1Z" clip-rule="evenodd"/><path fill="#948676" d="m657 64-1-1c-3 1-6 5-8 7v1h1c3-1 6-5 8-7Z"/><path fill="#000" fill-rule="evenodd" d="m647 70 5-5 4-3 1 1v2l-4 4-4 2h-2v-1Zm10-6-1-1c-3 1-6 5-8 7v1h1c3-1 6-5 8-7Z" clip-rule="evenodd"/><path fill="#948676" d="M470 334h-1l-9 6c5 0 7-2 10-6Z"/><path fill="#000" fill-rule="evenodd" d="M471 335c-4 3-5 5-11 6h-1a1 1 0 0 1 0-1 32 32 0 0 1 10-6h1a1 1 0 0 1 1 1Zm-1-1h-1l-9 6c5 0 7-2 10-6Z" clip-rule="evenodd"/><path fill="#948676" d="M470 62h-1c-2 0-8-5-9-6 5 0 7 3 10 6Z"/><path fill="#000" fill-rule="evenodd" d="M470 63h-1l-4-2-6-5a1 1 0 0 1 0-1h1c6 1 7 3 11 6a1 1 0 0 1-1 2Zm0-1c-3-3-5-6-10-6 1 1 7 6 9 6h1Z" clip-rule="evenodd"/><path fill="#070605" d="M627 305c-7-3-14-9-19-14h1l9 7 9 7Z"/><path fill="#948676" d="m485 317-7 7 1 1 6-8Z"/><path fill="#000" fill-rule="evenodd" d="m486 318-4 5-3 3h-1v-1l-1-1 4-5 3-3h1l1 1v1Zm-1-1-7 7 1 1 6-8Z" clip-rule="evenodd"/><path fill="#948676" d="m485 79-7-7 1-1 6 8Z"/><path fill="#000" fill-rule="evenodd" d="m486 79-1 1h-1l-3-3-4-5 1-1 1-1 3 3 4 5v1Zm-1 0-6-8-1 1 7 7Z" clip-rule="evenodd"/><path fill="#948676" d="M641 316h-1l-6-6h1l6 6Z"/><path fill="#000" fill-rule="evenodd" d="M642 316h-3l-5-6a1 1 0 0 1 0-1h1l2 1 5 5a1 1 0 0 1 0 1Zm-1 0-6-6h-1l6 6h1Z" clip-rule="evenodd"/><path fill="#948676" d="M641 79h-1l-6 6h1l6-6Z"/><path fill="#000" fill-rule="evenodd" d="m642 80-5 5-2 1h-1a1 1 0 0 1 0-1l5-6h3a1 1 0 0 1 0 1Zm-1-1h-1l-6 6h1l6-6Z" clip-rule="evenodd"/><path fill="#948676" fill-rule="evenodd" d="m642 319-1-2 2 1 5 5-1 1-5-5Z" clip-rule="evenodd"/><path fill="#000" fill-rule="evenodd" d="m642 319-2-1v-1a1 1 0 0 1 1-1l1 1h1l5 6v1h-1l-2-1-3-4Zm0 0 5 5 1-1-5-5-2-1 1 2Z" clip-rule="evenodd"/><path fill="#948676" fill-rule="evenodd" d="m642 76-1 2 2-1 5-5-1-1-5 5Z" clip-rule="evenodd"/><path fill="#000" fill-rule="evenodd" d="m642 76 3-4 2-1h1v1a22 22 0 0 1-5 6h-1l-1 1a1 1 0 0 1-1-1v-1l2-1Zm0 0-1 2 2-1 5-5-1-1-5 5Z" clip-rule="evenodd"/><path fill="#6A6A66" d="m488 80-1 2-1 1-3-1 4-2v-1l1 1ZM637 308l-1 1h-2l-1 2-1-1v-2l2-1 3 1Z"/><path fill="#fff" d="m563 201-1 2h-3l1-2h3Z"/><path fill="#6A6A66" d="m488 315-1 2-1-1v-1h-2v-1h1l3 1ZM636 87l-2 1-2-1v-2l1-1v2l3 1Z"/><path fill="#fff" d="M568 201v1l-1 1h-2v-2h3ZM561 187a1 1 0 1 1-1 0 1 1 0 0 1 1 0Z"/><path fill="#303030" d="M490 85v1c-2 2-6 0-8 0-3-1-6-1-9 1h-4l-1-2 1-4c4-1 17-2 20 0l1 4Z"/><path fill="#000" fill-rule="evenodd" d="M492 84v2l-1 1v1h-4l-5-1c-3-1-6-1-9 1h-5l-1-3 1-5h1c3-1 10-2 15-1l6 1h1l1 4Zm-2 1-1-4c-3-2-16-1-20 0l-1 4 1 2h4c3-2 6-2 9-1 2 0 6 2 8 0v-1Z" clip-rule="evenodd"/><path fill="#303030" d="m483 87 1 9-9-1-1-8h9Z"/><path fill="#000" fill-rule="evenodd" d="M485 87v9a1 1 0 0 1-2 1h-6l-3-1-1-1v-8l1-2 10 1 1 1Zm-2 0h-9l1 8 9 1-1-9Z" clip-rule="evenodd"/><path fill="#494641" d="m482 78-2 1-4-1 3-1 3 1Z"/><path fill="#000" fill-rule="evenodd" d="m483 79-1 1h-4l-3-1a1 1 0 0 1 0-2l4-1 4 1a1 1 0 0 1 0 2Zm-1-1-3-1-3 1 4 1 2-1Z" clip-rule="evenodd"/><path fill="#303030" d="M490 132v-2c-2-1-6 0-8 1-3 1-6 1-9-1h-4l-1 2 1 4c4 0 17 1 20-1l1-3Z"/><path fill="#000" fill-rule="evenodd" d="m492 132-1 4h-1l-6 2-15-1-1-1a19 19 0 0 1-1-4l1-3v-1h5c3 2 6 2 9 1l5-1 4 1v1l1 1v1Zm-2 0v-2c-2-1-6 0-8 1-3 1-6 1-9-1h-4l-1 2 1 4c4 0 17 1 20-1l1-3Z" clip-rule="evenodd"/><path fill="#303030" d="m483 130 1-9-9 1-1 8h9Z"/><path fill="#000" fill-rule="evenodd" d="M484 131h-10l-1-1v-8l1-2h3l6-1a1 1 0 0 1 2 2v9l-1 1Zm-1-1 1-9-9 1-1 8h9Z" clip-rule="evenodd"/><path fill="#494641" d="M482 138h-6l3 1 3-1Z"/><path fill="#000" fill-rule="evenodd" d="m483 139-4 2-4-2a1 1 0 0 1 0-2l3-1h4l1 1a1 1 0 0 1 0 2Zm-1-1h-6l3 1 3-1Z" clip-rule="evenodd"/><path fill="#3C3C3C" d="M536 105c1 6 0 12-2 18l-36 1 2-11c0-7 0-13-2-20l36 2 2 10Z"/><path fill="#000" fill-rule="evenodd" d="M537 104c1 7 0 13-1 19l-2 1-36 2a1 1 0 0 1-2-2l3-11-2-20a1 1 0 0 1 1-2l36 3h1c2 4 2 7 2 10Zm-1 1-2-10-36-2c2 7 2 13 2 20l-2 11 36-1c2-6 3-12 2-18Z" clip-rule="evenodd"/><path fill="#3C3C3C" d="M574 107c1 5 0 9-2 14l-31 1c2-4 3-7 3-12l-3-15c10 1 21 0 31 2 2 3 2 6 2 10Z"/><path fill="#000" fill-rule="evenodd" d="M576 107c0 5-1 10-3 14l-1 1a2133 2133 0 0 1-32 0l3-12c0-5-1-9-3-14a1 1 0 0 1 1-2l31 1 1 1c2 4 3 7 3 11Zm-2 0c0-4 0-7-2-10-10-2-21-1-31-2a32 32 0 0 1 0 27l31-1c2-5 3-9 2-14Z" clip-rule="evenodd"/><path fill="#3C3C3C" d="M493 105c1 7 0 13-2 19l-13 1-12 1 1-8 1-7h3v3h4l1-3h1l2-2c0-2-2-2-3-4l-1-2-1-1c-3 0-2 2-4 3l-1 1-1-1-1-6-1-8 25 1 2 13Z"/><path fill="#000" fill-rule="evenodd" d="m477 109-1-2-1-1-1-1v-2l-1 1-2 2-1 1h-2l-1-2-1-6-1-7a1 1 0 0 1 1-2l25 1 2 1 2 13c0 7-1 13-3 20l-1 1-13 1h-12a1 1 0 0 1-1-2l1-7 1-7 1-1h4v3h2l1-2 1-1a4 4 0 0 0 1-1Zm16-4-2-13-25-1 1 8 1 6 1 1 1-1c2-1 1-3 4-3l1 1 1 2c1 2 3 2 3 4l-2 2h-1l-1 3h-4v-3h-3l-1 7-1 8 12-1 13-1c2-6 3-12 2-19Z" clip-rule="evenodd"/><path fill="#3C3C3C" d="m594 96 2 2c2 8 1 16-2 24-6-2-9-1-15-1a31 31 0 0 0 0-24c3 0 10 1 13-1h2Z"/><path fill="#000" fill-rule="evenodd" d="m595 94 2 3c3 9 2 17-1 26h-2l-15-1a1 1 0 0 1-1-2c3-6 2-15 0-21v-2a1 1 0 0 1 1-2l8 1 4-1 3-1h1Zm-1 2h-2c-3 2-10 1-13 1l1 1c2 7 2 16-1 23 6 0 9-1 15 1 3-8 4-16 2-24l-2-2Z" clip-rule="evenodd"/><path fill="#3C3C3C" d="M460 103c0 7 0 16-2 22l-4-1c-5-2-7-6-9-11l1-10c1-5 5-8 9-10l3-1c2 3 1 8 2 11Z"/><path fill="#000" fill-rule="evenodd" d="M461 103c0 7 1 16-2 23a1 1 0 0 1-1 1l-5-2c-5-2-7-6-9-11v-12a18 18 0 0 1 12-11h3l2 5v7Zm-1 0c-1-3 0-8-2-11l-3 1c-4 2-8 5-9 10l-1 10c2 5 4 9 9 11l4 1c2-6 2-15 2-22Z" clip-rule="evenodd"/><path fill="#9E8457" fill-rule="evenodd" d="M467 111v3c-1 3-1 12-3 13h-5l2-10V97c-1-1-2-6-1-7h4c2 4 2 10 3 15h-4v6h4Zm-3 10a1 1 0 1 0-2 2 1 1 0 0 0 2-2Zm0-27a1 1 0 1 0-3 1 1 1 0 0 0 3-1Z" clip-rule="evenodd"/><path fill="#000" fill-rule="evenodd" d="M468 111v3l-1 11-2 3-2 1-4-1a1 1 0 0 1-1-2l1-9V97l-1-5v-2l1-1 5-1 1 1c2 5 3 11 3 16l-1 1-1 1h-2v3h3a1 1 0 0 1 1 1Zm-1 0h-4v-6h4c-1-5-1-11-3-15h-4c-1 1 0 6 1 7v20l-2 10h5c2-1 2-10 3-13v-3Zm-3 10a1 1 0 1 1-2 2 1 1 0 0 1 2-2Zm-1 1Zm1-28a1 1 0 1 1-3 1 1 1 0 0 1 3-1Zm-1 1v-1 1Z" clip-rule="evenodd"/><path fill="#9E8457" fill-rule="evenodd" d="m543 106-1 10c0 3-1 6-3 8h-4v-2c2-3 2-6 2-10 0-6 1-13-3-18l5-1c3 4 3 9 4 13Zm-3 14a1 1 0 1 0-3 1 1 1 0 0 0 3-1Zm0-23a1 1 0 1 0-3 1 1 1 0 0 0 3-1Zm1 11a2 2 0 1 0-2 2 2 2 0 0 0 2-2Z" clip-rule="evenodd"/><path fill="#000" fill-rule="evenodd" d="M544 106a31 31 0 0 1-2 16l-3 3h-5l-1-1v-1l1-2c2-3 2-6 2-9 0-6 0-12-3-18a1 1 0 0 1 1-2h5l1 1c3 3 4 8 4 13Zm-1 0c-1-4-1-9-4-13l-5 1c4 5 3 12 3 18 0 4 0 7-2 10v2h4c2-2 3-5 3-8l1-10Zm-3 14a1 1 0 1 1-3 1 1 1 0 0 1 3-1Zm-2 1Zm2-24a1 1 0 1 1-3 1 1 1 0 0 1 3-1Zm-1 0h-1 1Zm2 11a2 2 0 1 1-2 2 2 2 0 0 1 2-2Zm-1 1Z" clip-rule="evenodd"/><path fill="#9E8457" fill-rule="evenodd" d="M499 110c0 5-1 11-3 15h-4c4-8 3-19 2-28l-2-6c1-1 4 0 4 1 2 4 3 10 3 15v3Zm-1-3a1 1 0 1 0-2 2 1 1 0 0 0 2-2Zm-1 12a1 1 0 1 0-2 2 1 1 0 0 0 2-2Zm0-23a1 1 0 1 0-2 2 1 1 0 0 0 2-2Z" clip-rule="evenodd"/><path fill="#000" fill-rule="evenodd" d="M500 110c1 5 0 11-3 16v1c-3 1-5 0-6-1l-1-1c4-9 4-19 2-28l-1-3v-4l4-1 3 2c2 4 2 11 2 16v3Zm-1 0v-3c0-5-1-11-3-15 0-1-3-2-4-1l2 6c1 9 2 20-2 28h4c2-4 3-10 3-15Zm-2 9a1 1 0 1 1-2 2 1 1 0 0 1 2-2Zm-1 1Zm2-13a1 1 0 1 1-2 2 1 1 0 0 1 2-2Zm-1 1Zm0-12a1 1 0 1 1-2 2 1 1 0 0 1 2-2Zm-1 1Z" clip-rule="evenodd"/><path fill="#9E8457" d="M580 106c1 6 0 11-4 17l-4-1c2-2 3-6 3-9 1-6 0-13-3-18h4c3 3 3 7 4 11Z"/><path fill="#000" fill-rule="evenodd" d="M582 106c0 6-1 12-4 17l-1 1h-5a1 1 0 0 1-1-2l3-9c1-6 0-12-3-17a1 1 0 0 1 1-2h5a29 29 0 0 1 5 12Zm-2 0c-1-4-1-8-4-11h-4c3 5 4 12 3 18 0 3-1 7-3 9l4 1c4-6 5-11 4-17Z" clip-rule="evenodd"/><path fill="#9E8457" d="M602 104v1c1 4 0 14-3 18l-2 1-1-1c-1-1 1-6 2-9 1-6 0-14-3-20h4c2 2 3 7 3 10Z"/><path fill="#000" fill-rule="evenodd" d="M604 104v1l-1 11c0 3-1 6-3 8l-3 1h-2l-1-1v-3l2-7c1-6 1-14-3-19a1 1 0 0 1 1-2h5l3 4 2 7Zm-2 0c0-3-1-8-3-10h-4c3 6 4 14 3 20-1 3-3 8-2 9l1 1 2-1c3-4 4-14 3-18v-1Z" clip-rule="evenodd"/><path fill="#303030" d="M530 82v1l-1 1c-1 1-5-1-7-1-4-1-7-1-10 1h-3l-1-2 1-4c4 0 17-2 20 1l1 3Z"/><path fill="#000" fill-rule="evenodd" d="M531 82v3h-1l-4 1-4-2-9 1-1 1-4-1-2-3 2-4 1-1 15-1 6 1v1l1 4Zm-1 0-1-3c-3-3-16-1-20-1l-1 4 1 2h3c3-2 6-2 10-1 2 0 6 2 7 1l1-1v-1Z" clip-rule="evenodd"/><path fill="#303030" d="M523 84v9l-9-1v-8h9Z"/><path fill="#000" fill-rule="evenodd" d="M525 84v9a1 1 0 0 1-2 1h-9l-1-2v-8l1-1h10l1 1Zm-2 0h-9v8l9 1v-9Z" clip-rule="evenodd"/><path fill="#9E8457" fill-rule="evenodd" d="M513 87v4h-4c-2-1-3-2-2-4h6Zm-5 1a1 1 0 1 0 2 1 1 1 0 0 0-2-1Z" clip-rule="evenodd"/><path fill="#000" fill-rule="evenodd" d="M515 87v4l-2 1h-4c-2 0-3-1-3-2l-1-4h1l7-1a1 1 0 0 1 2 2Zm-2 0h-6c-1 2 0 3 2 4h4v-4Zm-5 1a1 1 0 1 1 2 1 1 1 0 0 1-2-1Zm1 1h-1 1s0-1 0 0Z" clip-rule="evenodd"/><path fill="#9E8457" fill-rule="evenodd" d="M527 87c2 0 3 0 4 2s-1 2-3 2h-4l1-3 2-1Zm2 1a1 1 0 1 0 1 2 1 1 0 0 0-1-2Z" clip-rule="evenodd"/><path fill="#000" fill-rule="evenodd" d="M527 86c2 0 4 0 6 2v1l-1 2-1 1h-3l-4 1a1 1 0 0 1-1-2v-4h1l3-1Zm0 1-2 1-1 3h4c2 0 4 0 3-2s-2-2-4-2Zm2 1a1 1 0 1 1 1 2 1 1 0 0 1-1-2Zm0 1Z" clip-rule="evenodd"/><path fill="#494641" d="M522 76h-2l-4-1h2l4 1Z"/><path fill="#000" fill-rule="evenodd" d="M523 77h-3l-3 1-2-1a1 1 0 0 1 0-3l3-1c2 0 4 0 5 2a1 1 0 0 1 0 2Zm-1-1-4-1h-2l4 1h2Z" clip-rule="evenodd"/><path fill="#303030" d="M530 134v2l-1 3h-19l-2-1v-5h5v1c4 3 9 0 13 0h4Z"/><path fill="#000" fill-rule="evenodd" d="M531 134v2l-1 4-8 1h-12l-3-2v-5a1 1 0 0 1 1-2h6v1h5l7-1h4l1 2Zm-1 0h-4c-4 0-9 3-13 0v-1h-5v5l2 1h19l1-3v-2Z" clip-rule="evenodd"/><path fill="#303030" d="M523 124v7l-1 2c-2 2-6 1-8 0v-8l9-1Z"/><path fill="#000" fill-rule="evenodd" d="M525 124v7l-2 3-3 1h-6l-1-2v-8l1-2a367 367 0 0 0 11 1Zm-2 0-9 1v8c2 1 6 2 8 0l1-2v-7Z" clip-rule="evenodd"/><path fill="#785F33" d="M441 106v5l-3 1-3 1-2-2v-5l1-1c1-1 3 0 4 1h3Z"/><path fill="#000" fill-rule="evenodd" d="M443 106v4l-1 2-1 1h-2l-2 1-2 1-1-1a6 6 0 0 1-2-3v-6l2-2 5 1 2 1a1 1 0 0 1 2 1Zm-2 0h-3c-1-1-3-2-4-1l-1 1v5l2 2 3-1 3-1v-5Z" clip-rule="evenodd"/><path fill="#9E8457" d="M477 107v3h-13v-4l13 1Z"/><path fill="#000" fill-rule="evenodd" d="M479 106v3l-1 2h-2l-12 1a1 1 0 0 1-2-2v-4a1 1 0 0 1 2-1h13l2 1Zm-2 1-13-1v4h13v-3Z" clip-rule="evenodd"/><path fill="#3C3C3C" d="M605 108c0 5 0 10-3 14l1-5 1-7-2-13v-1l1 1c2 2 2 7 2 11Z"/><path fill="#000" fill-rule="evenodd" d="M606 108c1 5 0 10-3 15a1 1 0 0 1-3-1l1-5 1-7c0-5 0-8-2-13l1-1v-1h2l1 1c2 3 2 8 2 12Zm-1 0c0-4 0-9-2-11l-1-1v1a40 40 0 0 1 1 20l-1 5c3-4 3-9 3-14Z" clip-rule="evenodd"/><path fill="#9E8457" fill-rule="evenodd" d="M529 130h-5v-4h6l2 2c-1 2-2 2-3 2Zm-1-3a1 1 0 1 0 2 2 1 1 0 0 0-2-2Z" clip-rule="evenodd"/><path fill="#000" fill-rule="evenodd" d="M529 132h-5a1 1 0 0 1-1-2v-4a1 1 0 0 1 1-1h7l2 2v1l-1 3h-2l-1 1Zm0-2c1 0 2 0 3-2l-2-2h-6v4h5Zm-1-3a1 1 0 1 1 2 2 1 1 0 0 1-2-2Zm1 1Z" clip-rule="evenodd"/><path fill="#9E8457" fill-rule="evenodd" d="M513 127v3l-4 1c-2-1-3-2-2-4h6Zm-5 1a1 1 0 1 0 2 1 1 1 0 0 0-2-1Z" clip-rule="evenodd"/><path fill="#000" fill-rule="evenodd" d="M515 127v3l-2 2h-4c-2 0-3-1-3-2l-1-4 1-1h7a1 1 0 0 1 2 2Zm-2 0h-6c-1 2 0 3 2 4l4-1v-3Zm-5 1a1 1 0 1 1 2 1 1 1 0 0 1-2-1Zm1 0-1 1h1v-1Z" clip-rule="evenodd"/><path fill="#9E8457" d="M444 104v9h-1l-1-7 2-2Z"/><path fill="#000" fill-rule="evenodd" d="m445 104 1 7-1 3-1 1h-1l-2-2v-7c0-2 1-3 2-3a1 1 0 0 1 2 1Zm-1 0-2 2 1 7h1v-9Z" clip-rule="evenodd"/><path fill="#AA9673" d="M475 104v1h-4l1-1 1-1 2 1Z"/><path fill="#000" fill-rule="evenodd" d="m477 104-1 2-1 1-4-1-1-1v-2l3-1v-1l3 1 1 2Zm-2 0-2-1-1 1-1 1h4v-1Z" clip-rule="evenodd"/><path fill="#AA9673" d="M475 111v3h-3v-2l3-1Z"/><path fill="#000" fill-rule="evenodd" d="m477 111-1 3-1 1h-3l-1-1v-4l4-1a1 1 0 0 1 2 2Zm-2 0-3 1v2h3v-3Z" clip-rule="evenodd"/><path fill="#494641" d="m522 142-1 1-5-1h6Z"/><path fill="#000" fill-rule="evenodd" d="m523 143-2 1h-6v-3l1-1 6 1a1 1 0 0 1 1 2Zm-1-1h-6l5 1 1-1Z" clip-rule="evenodd"/><path fill="#303030" d="M490 262v2c-2 1-6-1-8-1-3-1-6-1-9 1h-4l-1-2 1-4c4-1 17-2 20 0l1 4Z"/><path fill="#000" fill-rule="evenodd" d="M492 262v1l-1 1v1h-4l-5-1c-3-1-6-1-9 1h-5l-1-3 1-4 1-1 15-1 6 1 1 1 1 4Zm-2 0-1-4c-3-2-16-1-20 0l-1 4 1 2h4c3-2 6-2 9-1 2 0 6 2 8 1v-2Z" clip-rule="evenodd"/><path fill="#303030" d="m483 264 1 9-9-1-1-8h9Z"/><path fill="#000" fill-rule="evenodd" d="M485 264v9a1 1 0 0 1-2 1h-6l-3-1-1-1v-8l1-1h10l1 1Zm-2 0h-9l1 8 9 1-1-9Z" clip-rule="evenodd"/><path fill="#494641" d="m482 255-2 1-4-1 3-1 3 1Z"/><path fill="#000" fill-rule="evenodd" d="m483 256-1 1h-4l-3-1a1 1 0 0 1 0-2l4-1 4 1a1 1 0 0 1 0 2Zm-1-1-3-1-3 1 4 1 2-1Z" clip-rule="evenodd"/><path fill="#303030" d="M490 309v-2c-2-1-6 1-8 1-3 1-6 1-9-1h-4l-1 2 1 4c4 0 17 1 20-1l1-3Z"/><path fill="#000" fill-rule="evenodd" d="m492 309-1 4-1 1-6 1-15-1-1-1a19 19 0 0 1-1-4l1-3 5-1v1l9 1 5-2 4 1v1l1 1v1Zm-2 0v-2c-2-1-6 1-8 1-3 1-6 1-9-1h-4l-1 2 1 4c4 0 17 1 20-1l1-3Z" clip-rule="evenodd"/><path fill="#303030" d="m483 307 1-9-9 1-1 8h9Z"/><path fill="#000" fill-rule="evenodd" d="M484 308h-10l-1-1v-8l1-2h9a1 1 0 0 1 2 1v9l-1 1Zm-1-1 1-9-9 1-1 8h9Z" clip-rule="evenodd"/><path fill="#494641" d="M482 315h-6l3 1 3-1Z"/><path fill="#000" fill-rule="evenodd" d="M483 316c-1 2-3 2-4 2l-4-1a1 1 0 0 1 0-3l3-1h2l2 1h1a1 1 0 0 1 0 2Zm-1-1h-6l3 1 3-1Z" clip-rule="evenodd"/><path fill="#3C3C3C" d="M536 282c1 6 0 12-2 18l-36 2 2-12c0-7 0-13-2-20l36 2 2 10Z"/><path fill="#000" fill-rule="evenodd" d="M537 282c1 6 0 12-1 18l-2 1-36 2a1 1 0 0 1-2-2c2-3 2-7 3-11l-2-20a1 1 0 0 1 1-1l36 2 1 1c2 3 2 6 2 10Zm-1 0-2-10-36-2c2 7 2 13 2 20l-2 12 36-2c2-6 3-12 2-18Z" clip-rule="evenodd"/><path fill="#3C3C3C" d="M574 284c1 5 0 10-2 14l-31 1c2-4 3-7 3-12l-3-15c10 1 21 0 31 2 2 3 2 7 2 10Z"/><path fill="#000" fill-rule="evenodd" d="M576 284c0 5-1 10-3 14l-1 1a2133 2133 0 0 1-32 0l3-12c0-5-1-9-3-14a1 1 0 0 1 1-2c10 1 21 0 31 2h1c2 4 3 7 3 11Zm-2 0c0-3 0-7-2-10-10-2-21-1-31-2a32 32 0 0 1 0 27l31-1c2-4 3-9 2-14Z" clip-rule="evenodd"/><path fill="#3C3C3C" d="M493 282c1 7 0 13-2 19l-13 1-12 1 1-7 1-7 3-1v4l4-1 1-2 1-1 2-2c0-2-2-2-3-3l-1-3-1-1c-3 0-2 2-4 3l-1 1-1-1-1-6-1-7c8-1 17 1 25 1l2 12Z"/><path fill="#000" fill-rule="evenodd" d="m477 286-1-1-1-2-1-1v-2l-1 1-2 2-1 1h-2l-1-2-1-6-1-7a1 1 0 0 1 1-2l25 1 2 1 2 13c0 7-1 13-3 20l-1 1-13 1h-12a1 1 0 0 1-1-1l1-8 1-7 1-1h3l1 1v2h2l1-2 1-1a4 4 0 0 0 1-1Zm16-4-2-12c-8 0-17-2-25-1l1 7 1 6 1 1 1-1c2-1 1-3 4-3l1 1 1 3c1 1 3 1 3 3l-2 2-1 1-1 2-4 1v-4l-3 1-1 7-1 7 12-1 13-1c2-6 3-12 2-19Z" clip-rule="evenodd"/><path fill="#3C3C3C" d="m594 273 2 2c2 8 1 16-2 24-6-2-9-1-15-1a31 31 0 0 0 0-24c3 0 10 1 13-1h2Z"/><path fill="#000" fill-rule="evenodd" d="M595 272c1 0 2 1 2 3 3 8 2 17-1 25l-2 1c-6-2-9-2-15-2a1 1 0 0 1-1-2c3-6 2-15 0-21v-1a1 1 0 0 1 1-2h8l4-1 3-1 1 1Zm-1 1h-2c-3 2-10 1-13 1l1 2c2 6 2 15-1 22 6 0 9-1 15 1 3-8 4-16 2-24l-2-2Z" clip-rule="evenodd"/><path fill="#3C3C3C" d="M460 280c0 7 0 16-2 22l-4-1c-5-2-7-6-9-11l1-10c1-4 5-8 9-10l3-1c2 3 1 8 2 11Z"/><path fill="#000" fill-rule="evenodd" d="M461 280c0 7 1 16-2 23a1 1 0 0 1-1 1l-5-2c-5-2-7-6-9-11v-11a18 18 0 0 1 12-12h3v1l2 4v7Zm-1 0c-1-3 0-8-2-11l-3 1c-4 2-8 6-9 10l-1 10c2 5 4 9 9 11l4 1c2-6 2-15 2-22Z" clip-rule="evenodd"/><path fill="#9E8457" fill-rule="evenodd" d="M467 288v3c-1 3-1 12-3 13h-5l2-10v-20c-1-1-2-5-1-6l4-1c2 4 2 10 3 15l-4 1v5h4Zm-3 11a1 1 0 1 0-2 1 1 1 0 0 0 2-1Zm0-28a1 1 0 1 0-3 1 1 1 0 0 0 3-1Z" clip-rule="evenodd"/><path fill="#000" fill-rule="evenodd" d="M468 288v3l-1 11-2 4h-6a1 1 0 0 1-1-2l1-10v-20l-1-5v-2l1-1 5-1 1 1c2 5 3 11 3 16l-1 2h-3v3h3a1 1 0 0 1 1 1Zm-1 0h-4v-5l4-1c-1-5-1-11-3-15l-4 1c-1 1 0 5 1 6v20l-2 10h5c2-1 2-10 3-13v-3Zm-3-17a1 1 0 1 1-3 1 1 1 0 0 1 3-1Zm-1 1c-1 0-1 0 0 0Zm1 27a1 1 0 1 1-2 1 1 1 0 0 1 2-1Zm-1 0v1-1Z" clip-rule="evenodd"/><path fill="#9E8457" fill-rule="evenodd" d="m543 283-1 10c0 3-1 6-3 8h-4v-2c2-3 2-6 2-10 0-6 1-13-3-18h5c3 3 3 8 4 12Zm-3 14a1 1 0 1 0-3 1 1 1 0 0 0 3-1Zm0-23a1 1 0 1 0-3 1 1 1 0 0 0 3-1Zm1 11a2 2 0 1 0-2 2 2 2 0 0 0 2-2Z" clip-rule="evenodd"/><path fill="#000" fill-rule="evenodd" d="M544 283a31 31 0 0 1-2 16l-3 3-5 1v-1l-1-1v-1l1-2c2-2 2-6 2-9 0-6 0-12-3-18a1 1 0 0 1 1-2h5l1 1c3 4 4 8 4 13Zm-1 0c-1-4-1-9-4-12h-5c4 5 3 12 3 18 0 4 0 7-2 10v2h4c2-2 3-5 3-8l1-10Zm-2 2a2 2 0 1 1-2 2 2 2 0 0 1 2-2Zm-1 1Zm0-12a1 1 0 1 1-2 1 1 1 0 0 1 2-1Zm-1 0h-1 1Zm1 23a1 1 0 1 1-3 1 1 1 0 0 1 3-1Zm-2 1h1-1Z" clip-rule="evenodd"/><path fill="#9E8457" fill-rule="evenodd" d="M499 287c0 5-1 11-3 15h-4c4-8 3-18 2-28l-2-5c1-2 4-1 4 0 2 4 3 11 3 15v3Zm-1-2a1 1 0 1 0-2 1 1 1 0 0 0 2-1Zm-1 12a1 1 0 1 0-2 1 1 1 0 0 0 2-1Zm0-24a1 1 0 1 0-2 2 1 1 0 0 0 2-2Z" clip-rule="evenodd"/><path fill="#000" fill-rule="evenodd" d="M500 287c1 5 0 11-3 16v1c-3 1-5 1-6-1l-1-1c4-8 4-19 2-27l-1-4v-3c1-1 2-2 4-1l3 1c2 4 2 11 2 16v3Zm-1 0v-3c0-4-1-11-3-15 0-1-3-2-4 0l2 5c1 10 2 20-2 28h4c2-4 3-10 3-15Zm-2 10a1 1 0 1 1-2 1 1 1 0 0 1 2-1Zm-1 0Zm2-12a1 1 0 1 1-2 1 1 1 0 0 1 2-1Zm-1 0Zm0-12a1 1 0 1 1-2 2 1 1 0 0 1 2-2Zm-1 1Z" clip-rule="evenodd"/><path fill="#9E8457" d="M580 283c1 6 0 12-4 17h-4c2-3 3-7 3-10 1-6 0-13-3-18h4c3 4 3 7 4 11Z"/><path fill="#000" fill-rule="evenodd" d="M582 283c0 6-1 12-4 17l-1 1h-5a1 1 0 0 1-1-2l3-9c1-6 0-12-3-17a1 1 0 0 1 1-2h5a29 29 0 0 1 5 12Zm-2 0c-1-4-1-7-4-11h-4c3 5 4 12 3 18 0 3-1 7-3 10h4c4-5 5-11 4-17Z" clip-rule="evenodd"/><path fill="#9E8457" d="M602 282c1 5 0 14-3 18l-2 1h-1c-1-2 1-7 2-9 1-7 0-15-3-21l4 1c2 1 3 7 3 10Z"/><path fill="#000" fill-rule="evenodd" d="M604 281v1l-1 12c0 2-1 5-3 7l-3 2-1-1h-1l-1-1v-3l2-7c1-6 1-14-3-19a1 1 0 0 1 1-2h5c2 1 3 3 3 5l2 6Zm-2 1c0-3-1-9-3-10l-4-1c3 6 4 14 3 21-1 2-3 7-2 9h1l2-1c3-4 4-13 3-18Z" clip-rule="evenodd"/><path fill="#303030" d="M530 259v1l-1 1c-1 1-5 0-7-1-4-1-7-1-10 1h-3l-1-2 1-4c4 0 17-1 20 1l1 3Z"/><path fill="#000" fill-rule="evenodd" d="M531 259v3h-1l-4 1-4-1h-9l-1 1-4-1-2-3 2-4 1-1 15-1 6 2 1 4Zm-1 0-1-3c-3-2-16-1-20-1l-1 4 1 2h3c3-2 6-2 10-1 2 1 6 2 7 1l1-1v-1Z" clip-rule="evenodd"/><path fill="#303030" d="M523 261v9l-9-1v-8h9Z"/><path fill="#000" fill-rule="evenodd" d="M525 261v9a1 1 0 0 1-2 2l-7-1h-2l-1-2v-8l1-1h10l1 1Zm-2 0h-9v8l9 1v-9Z" clip-rule="evenodd"/><path fill="#9E8457" fill-rule="evenodd" d="M513 264v4h-4c-2 0-3-2-2-4h6Zm-5 1a1 1 0 1 0 2 1 1 1 0 0 0-2-1Z" clip-rule="evenodd"/><path fill="#000" fill-rule="evenodd" d="M515 264v4l-2 1h-4l-3-1-1-4 1-1 7-1a1 1 0 0 1 2 2Zm-2 0h-6c-1 2 0 4 2 4h4v-4Zm-5 1a1 1 0 1 1 2 1 1 1 0 0 1-2-1Zm1 1h-1 1Z" clip-rule="evenodd"/><path fill="#9E8457" fill-rule="evenodd" d="M527 265c2 0 3-1 4 1s-1 2-3 2h-4l1-3h2Zm2 0a1 1 0 1 0 1 2 1 1 0 0 0-1-2Z" clip-rule="evenodd"/><path fill="#000" fill-rule="evenodd" d="M527 263c2 0 4 0 6 2v1l-1 2-1 1-3 1h-4a1 1 0 0 1-1-2v-4h1l3-1Zm0 2h-2l-1 3h4c2 0 4 0 3-2s-2-1-4-1Zm2 0a1 1 0 1 1 1 2 1 1 0 0 1-1-2Zm0 2Z" clip-rule="evenodd"/><path fill="#494641" d="M522 253h-6l2-1 4 1Z"/><path fill="#000" fill-rule="evenodd" d="m523 254-1 1h-5l-2-1a1 1 0 0 1 0-3l3-1 5 2a1 1 0 0 1 0 2Zm-1-1-4-1-2 1h6Z" clip-rule="evenodd"/><path fill="#303030" d="M530 311v2l-1 3c-3 2-16 2-19 1l-2-2v-4l5-1v1c4 3 9 0 13 0h4Z"/><path fill="#000" fill-rule="evenodd" d="M531 311v2l-1 4-8 2-12-1c-2 0-2-1-3-2v-5a1 1 0 0 1 1-2h6v1l5 1 7-2h4l1 2Zm-1 0h-4c-4 0-9 3-13 0v-1l-5 1v4l2 2c3 1 16 1 19-1l1-3v-2Z" clip-rule="evenodd"/><path fill="#303030" d="M523 301v7l-1 2c-2 2-6 1-8 0v-8l9-1Z"/><path fill="#000" fill-rule="evenodd" d="M525 301v7l-2 4h-9l-1-2v-8l1-1a362 362 0 0 0 11 0Zm-2 0-9 1v8c2 1 6 2 8 0l1-2v-7Z" clip-rule="evenodd"/><path fill="#785F33" d="M441 283v6h-3c-1 0-2 2-3 1l-2-2v-5l1-1 4 1h3Z"/><path fill="#000" fill-rule="evenodd" d="M443 283v5l-1 2h-3l-2 1-2 1-1-1a6 6 0 0 1-2-2v-7l2-1h5l2 1a1 1 0 0 1 2 1Zm-2 0h-3l-4-1-1 1v5l2 2c1 1 2-1 3-1h3v-6Z" clip-rule="evenodd"/><path fill="#9E8457" d="M477 284v3l-13 1v-5l13 1Z"/><path fill="#000" fill-rule="evenodd" d="M479 284v2l-1 2-2 1h-12a1 1 0 0 1-2-1v-5a1 1 0 0 1 2-1h13l2 2Zm-2 0-13-1v5l13-1v-3Z" clip-rule="evenodd"/><path fill="#3C3C3C" d="M605 285c0 5 0 10-3 14l1-4 1-8-2-13h1c2 3 2 7 2 11Z"/><path fill="#000" fill-rule="evenodd" d="M606 285c1 5 0 10-3 15a1 1 0 0 1-3-1l1-5 1-7c0-5 0-8-2-13l1-1v-1h2v1h1c2 3 2 8 2 12Zm-1 0c0-4 0-8-2-11h-1a40 40 0 0 1 1 21l-1 4c3-4 3-9 3-14Z" clip-rule="evenodd"/><path fill="#9E8457" fill-rule="evenodd" d="M529 307h-5v-4l4 1h2l2 1c-1 2-2 2-3 2Zm-1-3a1 1 0 1 0 2 2 1 1 0 0 0-2-2Z" clip-rule="evenodd"/><path fill="#000" fill-rule="evenodd" d="M529 309h-5a1 1 0 0 1-1-2v-4a1 1 0 0 1 1-1h7l2 2v1l-1 3-2 1h-1Zm0-2c1 0 2 0 3-2l-2-1h-2l-4-1v4h5Zm-1-3a1 1 0 1 1 2 2 1 1 0 0 1-2-2Zm1 2v-1 1Z" clip-rule="evenodd"/><path fill="#9E8457" fill-rule="evenodd" d="M513 304v4h-4c-2 0-3-2-2-4h6Zm-5 1a1 1 0 1 0 2 1 1 1 0 0 0-2-1Z" clip-rule="evenodd"/><path fill="#000" fill-rule="evenodd" d="M515 304v4l-2 1h-4c-2 0-3-1-3-2l-1-3 1-1 7-1a1 1 0 0 1 2 2Zm-2 0h-6c-1 2 0 4 2 4h4v-4Zm-5 1a1 1 0 1 1 2 1 1 1 0 0 1-2-1Zm1 1h-1 1Z" clip-rule="evenodd"/><path fill="#9E8457" d="M444 281v9h-1l-1-7 2-2Z"/><path fill="#000" fill-rule="evenodd" d="m445 281 1 7-1 3-1 1h-1l-2-1v-8c0-2 1-2 2-3a1 1 0 0 1 2 1Zm-1 0-2 2 1 7h1v-9Z" clip-rule="evenodd"/><path fill="#AA9673" d="M475 281v2l-4-1 1-1 1-1 2 1Z"/><path fill="#000" fill-rule="evenodd" d="m477 281-1 2-1 1h-4l-1-2v-1c1-2 1-2 3-2l3 1 1 1Zm-2 0-2-1-1 1-1 1 4 1v-2Z" clip-rule="evenodd"/><path fill="#AA9673" d="M475 288v3h-3v-2l3-1Z"/><path fill="#000" fill-rule="evenodd" d="m477 288-1 4h-4l-1-1v-3l4-1a1 1 0 0 1 2 1Zm-2 0-3 1v2h3v-3Z" clip-rule="evenodd"/><path fill="#494641" d="m522 319-1 1-5-1h6Z"/><path fill="#000" fill-rule="evenodd" d="m523 320-2 1h-6v-3h7a1 1 0 0 1 1 2Zm-1-1h-6l5 1 1-1Z" clip-rule="evenodd"/><path fill="#3D352E" fill-rule="evenodd" d="m119 75-3 2s-2 2-1 6l4 1s-3-3 0-9ZM119 320l-3-2s-2-2-1-6l4-1s-3 3 0 9ZM204 75l2 2s2 2 1 6h-4s3-2 1-8ZM204 320l2-1s2-3 1-6l-4-1s3 3 1 8Z" clip-rule="evenodd"/><path fill="#271B14" d="M200 184v1h-11l-21-1h32ZM179 187l-1 1h-11l-21-1h33ZM164 211h-33 1v-1l7 1h25ZM154 193l-1 1h-10l-22-1 1-1 7 1h25ZM170 205h-7l-12-1h4l15 1Z"/><path fill="#36352C" d="M179 263c0 9 1 18-1 28l-25-2-39-2v-55c22 1 42 3 64-1 2 11 1 21 1 32Z"/><path fill="#000" fill-rule="evenodd" d="M180 263c1 9 1 19-1 28l-1 1-25-1a541 541 0 0 0-40-4v-55a1 1 0 0 1 1-1c22 0 41 3 64-1l1 1c2 10 1 21 1 32Zm-1 0c0-11 1-21-1-32-22 4-42 2-64 1v55l39 2 25 2c2-10 1-19 1-28Z" clip-rule="evenodd"/><path fill="#050303" d="m120 239-1 12v14l1 20h-1c-1-13-2-24-1-36l1-10h1ZM151 241l-1 21 1 18h-1c0-6-1-36 1-39Z"/><path fill="#130C09" d="M132 252c1 4 1 28-1 30v-11l1-29v10Z"/><path fill="#36352C" d="m113 250-1 39-11 4c-4 1-9 2-13 1-11-2-14-11-23-13l-5-1v-5l-1-7v-13h4c7-1 11-9 15-14 8-12 22-8 34-10l1 19Z"/><path fill="#000" fill-rule="evenodd" d="M114 250v39l-1 1-12 5H88c-6-1-10-4-13-6-3-3-6-6-10-7h-5l-2-2v-25a1 1 0 0 1 1-2h4c3 0 5-2 8-5l6-8c4-6 10-8 16-9l19-2a1 1 0 0 1 2 2v19Zm-1 0-1-19c-12 2-26-2-34 10-4 5-8 13-15 14h-4v13l1 7v5l5 1c9 2 12 11 23 13 4 1 9 0 13-1l11-4 1-39Z" clip-rule="evenodd"/><path fill="#050303" d="M105 251c1 6 0 29-2 33a162 162 0 0 0 0-35l-1-10h1l2 12ZM94 260c0 7 0 18-2 24v-21c1-7-1-15-1-23h1c2 6 1 14 2 20ZM86 263l-1 23v-24c0-8-2-16-1-24l2 25Z"/><path fill="#36352C" d="M177 293c0 2-3 4-5 6-13 7-43 1-56-3l-2-3v-3c4-2 55 2 63 3Z"/><path fill="#000" fill-rule="evenodd" d="M179 293c-1 3-4 5-7 7-5 3-13 4-21 3a166 166 0 0 1-36-5l-2-5v-4h2l6-1 56 3a1 1 0 0 1 2 2Zm-2 0c-8-1-59-5-63-3v3l2 3c13 4 43 10 56 3 2-2 5-4 5-6Z" clip-rule="evenodd"/><path fill="#36352C" d="M177 229c-2 2-6 2-7 2-19 2-37 0-56-1v-5h1c4-2 9-2 13-2 9-1 18-3 28-2 8 1 16 2 21 8Z"/><path fill="#000" fill-rule="evenodd" d="m177 230-3 2h-4c-19 2-37 0-56-1l-1-1v-6h1l1-1 12-2c10-1 19-3 29-2 8 1 16 3 22 9a1 1 0 0 1-1 2Zm0-1c-5-6-13-7-21-8-10-1-19 1-28 2-4 0-9 0-13 2h-1v5c19 1 37 3 56 1 1 0 5 0 7-2Z" clip-rule="evenodd"/><path fill="#36352C" d="M86 223h1-5c-6 0-11 2-16 5-4 4-7 9-7 15-1 3-1 8 1 10h1c3 0 6-3 7-4l2-7c3-10 7-14 16-19Z"/><path fill="#000" fill-rule="evenodd" d="M86 225c-8 4-12 8-15 17l-1 7-1 1-4 3-4 2-2-1-2-5v-6c1-6 3-12 8-16 5-3 11-5 17-5l5-1a1 1 0 0 1 1 2v1h-1l-1 1Zm0-2h1-5c-6 0-11 2-16 5-4 4-7 9-7 15-1 3-1 8 1 10h1c3 0 6-3 7-4l2-7c3-10 7-14 16-19Z" clip-rule="evenodd"/><path fill="#36352C" d="m112 225-4-2c-7-3-17 0-24 3-8 4-12 11-14 19v3l7-9c8-10 22-9 35-10v-4Z"/><path fill="#000" fill-rule="evenodd" d="M113 225v4l-1 2-19 1c-6 1-11 3-15 8l-5 7-3 2a1 1 0 0 1-2-1l1-4c2-8 6-15 14-19 7-4 18-6 26-4l4 3v1Zm-1 0-4-2c-7-3-17 0-24 3-8 4-12 11-14 19v3l7-9c8-10 22-9 35-10v-4Z" clip-rule="evenodd"/><path fill="#36352C" d="M112 293v-1c-2-1-6 2-7 3l-7 1c-12 1-18-3-27-10l1 4 1 3c4 5 9 9 15 10s14 0 19-3c3-2 4-4 5-7Z"/><path fill="#000" fill-rule="evenodd" d="M113 293c-1 4-2 6-5 8-5 3-14 4-20 3s-12-5-16-10a17 17 0 0 1-1-4l-2-4a1 1 0 0 1 2-1c9 7 15 11 27 10l6-2 5-2 3-1 1 1a3 3 0 0 1 0 2Zm-1 0v-1c-2-1-6 2-7 3l-7 1c-12 1-18-3-27-10l1 4 1 3c4 5 9 9 15 10s14 0 19-3c3-2 4-4 5-7Z" clip-rule="evenodd"/><path fill="#36352C" d="m83 303-3-2-5-3c-3-3-5-7-5-12-3-3-6-4-10-4 0 5 0 11 3 15 5 5 13 5 20 6Z"/><path fill="#000" fill-rule="evenodd" d="M82 304c-4 0-8 0-12-2l-8-4c-3-4-4-11-4-16l2-1c5 0 7 1 11 4l1 1c0 4 1 8 4 11l4 3 2 1 2 1a1 1 0 0 1-2 2Zm1-1-3-2-5-3c-3-3-5-7-5-12-3-3-6-4-10-4 0 5 0 11 3 15 5 5 13 5 20 6Z" clip-rule="evenodd"/><path fill="#724E40" d="m140 302-10-2 5-2c-4 1-9 3-12 2v-1l1-1 5-4 3-1-3-2c3-1 4-3 5-6l-4-4 8-5c2-2 4-1 4-4l-2-2 6-2-2-1h1c2-1 4-1 5-3l-4-4 5-1c3-1 19-3 18-8l-4-3h6c3 0 8-1 8-4l1-1c2 1-1 9 1 11l-1 1-6 3-8 4-2 1 2-1c6-2 9-3 14-7 0 8-3 21 1 29 0 3-3 13-5 15l-14 4-19-1 19-3-9 1c-3 0-10 0-13 2Zm16-23 3 2c-5 3-2 7 2 8 2 1 4 1 6-1l5-6v-5c1-1 3-2 2-4-3-1-16 4-17 6h-1Zm-3 9c-2-1-5-3-7-2l-8 6 6 2 3-1c2-3 5-3 6-5Zm23-3-12 8c3-1 11-5 12-8Zm-31-7c-2 0-6 0-7 2l-1 5 2-1 2-2c1-1 3-2 3-4h1Zm8-10-4 1-1 1 5-2Zm7 2c-2-1-6 1-7 2l-2 3v1h4l5-5v-1Z"/><path fill="#000" fill-rule="evenodd" d="m182 255-1 18 1 10v1l-3 12-3 4a68 68 0 0 1-14 5l-15-1-5-1h-2l-10-1-1-1h-7v-1l-1-1 2-2v-1l3-1 2-2 1-1h-1a1 1 0 0 1 0-3c3 0 4-1 5-3l-2-3-1-1-1-1v-1l1-1 7-4 2-1 2-2-2-1a1 1 0 0 1 0-2l4-2v-1l1-1h3l1-1-1-2-2-1a1 1 0 0 1 0-3h5l16-4 1-2h1l-4-2a1 1 0 0 1 1-3h6l5-1 2-3 1-1h2v1h1v10l1 1-1 1Zm-42 47c3-2 10-2 13-2l9-1-19 3 19 1 14-4c2-2 5-12 5-15-4-8-1-21-1-29-5 4-8 5-14 7l-2 1 2-1 8-4 6-3 1-1c-2-2 1-10-1-11l-1 1c0 3-5 4-8 4h-6l4 3c1 5-15 7-18 8l-5 1 4 4c-1 2-3 2-5 3h-1l2 1-6 2 2 2c0 3-2 2-4 4l-8 5 4 4c-1 3-2 5-5 6l3 2-3 1-5 4-1 1v1c3 1 8-1 12-2l-5 2 10 2Zm20-32v1l-5 5h-4v-1l2-3c1-1 5-3 7-2Zm-2 1-4 2-2 2h2c2-1 4-2 4-4Zm-2 8h1c1-2 14-7 17-6 1 2-1 3-2 4v5l-5 6c-2 2-4 2-6 1-4-1-7-5-2-8l-3-2Zm2 0 1 1a1 1 0 0 1 0 2l-1 2v2l4 2 4-1c2-1 3-4 4-6l1-1v-4l1-1 1-1h-1l-5 1a44 44 0 0 0-9 4Zm18 6a210 210 0 0 1 0 0Zm-23 3c-1 2-4 2-6 5l-3 1-6-2 8-6c2-1 5 1 7 2Zm-2 0-2-1h-2l-7 5 2 1h2l2-1 4-3 1-1Zm2-20-5 2 1-1 4-1Zm-8 10h-1c0 2-2 3-3 4l-2 2-2 1 1-5c1-2 5-2 7-2Zm-5 2-1 1v1l-1 1 1-2 1-1Z" clip-rule="evenodd"/><path fill="#36352C" d="M179 132c0-10 1-19-1-28l-26 1-38 2v55c22 0 41-3 63 1 2-10 2-21 2-31Z"/><path fill="#000" fill-rule="evenodd" d="M180 132c0 10 1 21-1 32l-2 1c-22-4-41-2-63-1a1 1 0 0 1-2-2v-25l1-30 1-1 38-2 26-1 1 1c2 9 1 18 1 28Zm-1 0c0-10 1-19-1-28l-26 1-38 2v55c22 0 41-3 63 1 2-10 2-21 2-31Z" clip-rule="evenodd"/><path fill="#050303" d="M119 156v-46c-1 12-2 24-1 36l1 9v1ZM151 153l-1-20v-18 38h1Z"/><path fill="#130C09" d="M132 142c0-3 1-27-1-29v39l1-10Z"/><path fill="#36352C" d="M112 144v-38l-12-5H88c-11 2-14 10-23 13h-6v26h4c7 1 11 9 14 14 9 11 23 8 35 10v-20Z"/><path fill="#000" fill-rule="evenodd" d="M114 145a245 245 0 0 0-1 20h-1l-19-1c-6-1-12-3-17-9l-6-9-7-5h-4a1 1 0 0 1-1-1v-26l1-1h5l11-7c3-3 7-6 13-7l13 1 11 4 1 2 1 38v1Zm-2-1v-38l-12-5H88c-11 2-14 10-23 13h-6v26h4c7 1 11 9 14 14 9 11 23 8 35 10v-20Z" clip-rule="evenodd"/><path fill="#050303" d="M105 143c1-5 0-29-2-32v35l-1 9 1 1 2-13ZM93 134c1-7 1-17-1-24v21l-1 23c2-5 2-14 2-20ZM86 132c0-7 0-16-2-23l1 23-2 25c2-7 2-18 3-25Z"/><path fill="#36352C" d="M177 102c-1-3-3-5-6-6-12-7-42-2-55 2l-2 4v2c4 3 55-2 63-2Z"/><path fill="#000" fill-rule="evenodd" d="M177 103c-6 1-40 4-56 3h-6l-2-1v-4l2-4h1c8-2 22-5 34-6 9 0 17 1 22 4 3 1 5 4 6 6a1 1 0 0 1-1 2Zm0-1c-1-3-3-5-6-6-12-7-42-2-55 2l-2 4v2c4 3 55-2 63-2Z" clip-rule="evenodd"/><path fill="#36352C" d="m176 165-7-1c-18-2-37 0-55 1v4l1 1 12 2c10 1 19 3 29 2 7-1 15-3 20-9Z"/><path fill="#000" fill-rule="evenodd" d="M177 166c-5 6-13 8-21 9-10 1-19-1-29-2-4 0-9 0-12-2h-2v-7l1-1c18-1 37-3 55-1l5 1 3 1a1 1 0 0 1 0 2Zm-1-1-7-1c-18-2-37 0-55 1v4l1 1 12 2c10 1 19 3 29 2 7-1 15-3 20-9Z" clip-rule="evenodd"/><path fill="#36352C" d="M85 171h2v1h-6c-5-1-11-2-15-6-5-4-7-9-8-15 0-2 0-7 2-9l1-1c3 0 5 3 7 5l1 7c3 9 8 14 16 18Z"/><path fill="#000" fill-rule="evenodd" d="M86 170h1l1 1a1 1 0 0 1-1 2h-6c-5 0-11-2-16-6s-7-9-8-15v-7l2-4 2-1 4 1 4 4v1l2 6c3 10 7 13 15 18Zm-1 1c-8-4-13-9-16-18l-1-7c-2-2-4-5-7-5l-1 1c-2 2-2 7-2 9 1 6 3 11 8 15 4 4 10 5 15 6h6v-1h-2Z" clip-rule="evenodd"/><path fill="#36352C" d="m112 170-4 2c-8 2-18 0-24-4-8-4-12-10-14-18l-1-3 7 9c9 10 23 8 36 9v5Z"/><path fill="#000" fill-rule="evenodd" d="M113 170c-1 2-3 3-5 3-8 3-18 0-25-3-8-5-12-11-15-20v-3a1 1 0 0 1 2-1l2 2 5 7c4 5 10 7 16 7 6 2 13 1 19 2l1 1v5Zm-1 0v-5c-13-1-27 1-36-9l-7-9 1 3c2 8 6 14 14 18 6 4 16 6 24 4l4-2Z" clip-rule="evenodd"/><path fill="#36352C" d="m112 102-1 1-7-3-6-2c-12-1-19 3-28 11l2-4 1-4c3-5 9-8 15-9s14 0 19 3l5 7Z"/><path fill="#000" fill-rule="evenodd" d="M113 102v2h-4l-5-3-6-1c-12-1-18 3-27 10a1 1 0 0 1-2-2l1-4 2-4c3-5 9-8 16-10 6-1 14 0 19 4a11 11 0 0 1 6 8Zm-1 0-5-7c-5-3-13-4-19-3s-12 4-15 9l-1 4-2 4c9-8 16-12 28-11l6 2 7 3 1-1Z" clip-rule="evenodd"/><path fill="#36352C" d="m82 92-3 1-4 4c-4 3-5 7-5 12-4 3-6 3-10 3-1-4 0-10 3-14 4-5 13-6 19-6Z"/><path fill="#000" fill-rule="evenodd" d="m83 93-1 1-2 1-4 3c-3 3-4 6-5 11v1c-4 3-7 4-11 4l-2-2c0-5 0-11 4-15l7-5 13-2a1 1 0 0 1 1 3Zm-1-1c-6 0-15 1-19 6-3 4-4 10-3 14 4 0 6 0 10-3 0-5 1-9 5-12l4-4 3-1Z" clip-rule="evenodd"/><path fill="#724E40" d="M140 92c-4 2-6 2-10 2l4 3c-3-1-8-3-11-2h-1l1 2c3 0 4 2 6 4l3 1-4 2c4 1 5 2 6 5l-4 5 8 5c1 1 3 1 4 4l-3 1 6 3h-1v1c2 0 5 0 5 3 0 2-2 3-4 4h5c4 1 20 3 19 8l-4 3 6 1c3 0 7 1 8 4 2 0 0-8 2-10l-1-1-7-3-8-4-1-1h2l14 8c0-9-3-22 1-29-1-3-3-14-6-15l-13-5c-4 1-17 0-19 2 7 1 11 0 19 3l-9-1c-4-1-10 0-13-3Zm16 23 2-2c-4-2-1-7 3-8l5 1c3 2 4 4 5 7 2 2 2 2 1 4 1 1 3 3 1 4-3 2-15-3-17-5v-1Zm-3-8-7 2c-3-1-6-4-8-7l6-2 3 2c1 2 5 2 6 5Zm23 3-13-8c4 1 11 4 13 7v1Zm-32 6c-2 0-5 0-7-2v-4h2l1 3c2 1 4 1 4 3Zm9 10h-4l-1-1 5 1Zm7-1c-2 0-6-1-8-3l-1-2v-2h3c3 1 5 3 6 6v1Z"/><path fill="#000" fill-rule="evenodd" d="M182 139v10l-1 2v1h-1v1l-1-1h-1v-1l-3-2-4-1h-6a1 1 0 0 1-1-3l3-2v-1l-2-1c-4-3-12-4-15-4l-5-1a1 1 0 0 1 0-2l2-2 1-1-1-1-3-1-1-1v-1l-4-1a1 1 0 0 1 0-3l1-1-1-1-2-1-7-4-1-1v-1h-1l1-2 2-1 2-2c-1-2-2-3-5-4a1 1 0 0 1 0-2l1-1h-1l-2-2-3-2h-1l-1-2v-2h1v-1h6l1 1 1-1 10-2h1v1l1-1 5-1h15l3 1 11 4 3 4a73 73 0 0 1 3 13l-2 10 2 17Zm-42-47c-4 2-6 2-10 2l4 3c-3-1-8-3-11-2h-1l1 2c3 0 4 2 6 4l3 1-4 2c4 1 5 2 6 5l-4 5 8 5c1 1 3 1 4 4l-3 1 6 3h-1v1c2 0 5 0 5 3 0 2-2 3-4 4h5c4 1 20 3 19 8l-4 3 6 1c3 0 7 1 8 4 2 0 0-8 2-10l-1-1-7-3-8-4-1-1h2l14 8c0-9-3-22 1-29-1-3-3-14-6-15l-13-5c-4 1-17 0-19 2 7 1 11 0 19 3l-9-1c-4-1-10 0-13-3Zm13 35-4-1-1-1c2 0 4 0 5 2Zm7-2c-2 0-6-1-8-3l-1-2v-2h3c3 1 5 3 6 6v1Zm-2-2-4-3-2-1 1 2 5 2Zm-2-8 2-2c-4-2-1-7 3-8l5 1c3 2 4 4 5 7 2 2 2 2 1 4 1 1 3 3 1 4-3 2-15-3-17-5v-1Zm2 1h1a44 44 0 0 0 12 4h1l-1-2-1-2a9 9 0 0 0 1-1l-1-1-4-7a6 6 0 0 0-8 2l-1 2 2 1a1 1 0 0 1 0 3l-1 1Zm18-6-13-8c4 1 11 4 13 7v1Zm-23-3-7 2c-3-1-6-4-8-7l6-2 3 2c1 2 5 2 6 5Zm-2-1h-2l-4-3-1-1h-2l-2 1c2 2 4 4 6 4h2l3-1Zm-7 10c-2 0-5 0-7-2v-4h2l1 3c2 1 4 1 4 3Zm-6-4v1l1 1h1-1l-1-2ZM92 204H79s-1 6-10 7c-8 1-17-3-20-6-4 1-18 0-16 13 5 11 6 16 18 24l2-7s14 16 18 17l-1 4s-11 5-29 1v-3l4-3s-19-7-28-27c-8-18-14-26-17-27 3-3 11-8 16-25l-5-2v-2l3-4 4-1h4s13-17 25-20l-5-5v-1s19-5 30 2l-18 18h-1l-2-6s-12 7-15 17c2 5 3 7-1 10l-3 2 2 1s6-4 11 2l4 5 11 1 33 1v-2l4-1 7 3c2-1 10-9 13-5v4h3s2-10 15-9c12 3 17 7 17 18-2 9-13 28-31 10l-4-5v4l-3 1h-3l-6-7-1-1s-4 6-7 6l-5-2Zm39-14 2 8-2 5s5 4 9-4c1-5-1-6-2-8l-7-1Z" clip-rule="evenodd"/><path fill="url(#c)" fill-rule="evenodd" d="M48 252v-2l-6-3c-5-3-10-6-13-10l-10-14c-4-10-7-20-15-26 11-9 12-23 15-26h2l3 1h1l6 3c0 4-1 8 2 12l6 3 4 6 1 1 4 5 1 1c-5 0-12 1-16 5-2 2-2 5-2 8l1 6 4 9c5 6 10 11 16 15l2-7 14 13 1 1v1c-5 4-16 3-22 2l-4-1 5-3Zm22-113-14 12-3 4-1-7c-8 4-14 11-18 19l-6-3-4-1c6-10 15-15 25-20l-6-5c9-2 18-2 27 1Z" clip-rule="evenodd"/><path fill="#353333" d="M63 252v1l-8-2v-1l-6-3c-6-3-18-10-20-17 12 11 16 18 34 22ZM25 172l-2 5-4 6c0-3 3-8 5-11h1ZM16 190c-1 2-2 4-5 5l5-5ZM19 185l-2 4 1-4h1ZM43 196l1 1c-6 0-19-1-24 2h-2l-5-1h-1l-2-1v-1h1l3 1c5 1 18-1 24-1h5ZM27 225c-2 0-4-5-4-6l-6-13-3-6 4 4 7 17 2 4ZM32 159l4-5c7-6 20-14 29-14l-10 3c-9 4-15 10-23 16Z"/><path fill="#5C5D5B" fill-rule="evenodd" d="m53 197-1-1-3-5 26 1c5 0 16-1 20 1h1l1 4H82c4 1 10-1 14 1l-2 3-18 1H58l-5-4 6-1h-6Z" clip-rule="evenodd"/><path fill="#8A8B8B" d="m53 197-1-1-3-5 26 1h16l4 1h1l1 3H69l-16 1Z"/><path fill="#8A8B8B" fill-rule="evenodd" d="M136 207c3-2 7-4 8-7 0-3 0-8-4-12-2-1-6-2-8-1-3 1-6 4-9 2h-1v-2l3-2 4-3c3-1 7-1 11 1 4 1 7 5 8 9 1 3 2 6 0 9-1 6-9 10-9 10l-7 1c-5-1-8-4-11-8 3-3 8 2 11 3h4Z" clip-rule="evenodd"/><path fill="#5C5D5B" d="M125 185h11l4 3c-2-1-6-2-8-1-3 1-6 4-9 2h-1v-2l3-2Z"/><path fill="#888989" d="M113 193v-1h6c3 0 8 0 10 2l1 4-2 3c-4-1-12 2-15-1v-7Z"/><path fill="#646363" d="m130 198-2 3c-4-1-12 2-15-1v-7 3l7 1h10v1Z"/><path fill="#847D70" fill-rule="evenodd" d="M47 197c-2-1-4-3-5-6l5-1 3 6-3 1ZM22 165l5 1 2 1-1 1-3 1h-7l2-3 2-1ZM102 194h-2l-5-5h1c3 0 5 1 8 3l7 8 2 2c1 1 2 1 2 3l-1 1h-2v-2l-2-1-1-1-3-3v-2l-1 1-3-2v-2Z" clip-rule="evenodd"/><path fill="#847D70" d="m50 198 5 4v1h-3l-5-5h3Z"/><path fill="#706861" fill-rule="evenodd" d="M42 185c2 0 3 3 4 4h-4l-4-3 4-1Z" clip-rule="evenodd"/><path fill="#706861" d="M102 199c-1 1-3 5-6 5l-2-1 5-5 1-1 2 2Z"/><path fill="#847D70" fill-rule="evenodd" d="m32 172-5-2 1-1 1-1 5 1v3h-2Z" clip-rule="evenodd"/><path fill="#847D70" d="m61 206-2 2-6-3v-1c3-1 6 0 8 2Z"/><path fill="#706861" fill-rule="evenodd" d="m17 169-5-1 1-1c2-2 3-2 6-2l-2 4Z" clip-rule="evenodd"/><path fill="#706861" d="m67 205-2 3-5 1 1-2c2-2 4-2 6-2Z"/><path fill="#706861" fill-rule="evenodd" d="m73 208-7 1 5-4h1l1 3Z" clip-rule="evenodd"/><path fill="#706861" d="M41 184h-3l-2 1-2-1 1-1 2-1 4 2ZM111 191l-3 2-3-1 2-2c2-1 2 0 4 1ZM35 172h1l-1 4h-1l-1-1-1-2 3-1ZM114 188l-2 2-3-2 1-1 4 1ZM73 205l3-1 1 1-3 2-1-2ZM113 186c2 0 2 1 2 2h-1l-1-1v-1Z"/><defs><linearGradient id="a" x1="630.5" x2="634" y1="103.2" y2="87.3" gradientUnits="userSpaceOnUse"><stop stop-color="#C2AF83"/><stop offset="1" stop-color="#9A7945"/></linearGradient><linearGradient id="b" x1="634.8" x2="629.8" y1="307.5" y2="293.5" gradientUnits="userSpaceOnUse"><stop stop-color="#9A7945"/><stop offset="1" stop-color="#C2AF83"/></linearGradient><linearGradient id="c" x1="41.3" x2="20.1" y1="195.2" y2="213.8" gradientUnits="userSpaceOnUse"><stop stop-color="#615E5F"/><stop offset="1" stop-color="#7C8181"/></linearGradient></defs></svg>