<svg xmlns="http://www.w3.org/2000/svg" width="688" height="385" fill="none">
  <path fill="#060506" fill-rule="evenodd" d="m676 302 11-2v3l-14 8c0 9 3 14-7 15-5 6-8 12-12 19l-6 1c-8 4-17 4-26 4l-22 1a674 674 0 0 1-74 2l-15-5c-15-7-40-17-54-18h-13c0 6 0 15-8 16l-16 1h-28c-2 5 0 3 0 6-1 6-5 13-8 19-3 7-4 10-11 13h-1c-3-1-8-3-9-5-1-4 4-15 5-20 1-3 4-9 7-11 3-1 7 2 10 1l2-3h-11l-22 8c-5 2-4-5-4-8-25 0-51 2-77 1l-8-2-2-9-1 1-1 2c-3-4-7-3-11-4-2-1-6 3-8 4l-10 9c-9 2-15 9-24 11h-21l-8 1h-8l-12-1c-15-1-42-1-55-10l-5-5c-11 1-18 0-28-2-5-2-10-2-15-5s-7-6-13-8c-4-5-7-9-9-15l-3-5-1-8-2-3-1-11-2-19c6-7 9-12 18-16l10-3v-24l-1-15-2-1-1-19 1-17 2-1 1-13-1-27c-6-2-21-8-26-12l2-16c0-8 1-14 3-22 2-5 3-17 6-21 4-6 13-12 18-17 5-4 17-4 23-6l7-3 15 1 2-2c11-10 52-12 67-12 4 4 5 1 11 1h8c7 0 15-2 22 1l4-1 23 14 11 10 2-1 1 2 1-3h1l1 3 8-3v-2h2l1-5c11-5 26 0 37-5l2-1c3 1 6 2 7-1v-1l3 2h2l2-1v2l4-1 5 1 3-1c2 0 4 3 7 2l1-2 1 2h3v2h8l1-7c4-2 20 6 25 7l11 1-3-4c-2 0-7 3-9 1-5-3-8-12-10-17-3-11-5-14 6-18l8 3c3 4 12 23 13 28v5l2 1c8 1 42 0 46 3 4 4 4 10 4 15l13-1c28-2 61-23 73-24a949 949 0 0 0 88 4c9 0 31 0 37 8 2 3 5 11 9 13l4-2h1c-1 2-2 5-1 6l5 2v12l14 8v4l-15-4v5l3 8 2-1v2l-1 1c2 4 4 3 4 5l-2 1c-1 2 2 7 2 9h4l-2 2c-1 2 1 4 3 6l-3 1 3 8c1 4 0 6 2 9l-1 35-2 3v34l3 4v4l-6 3 5 11v9l-1 3-1 4-1 8-3 8c1 2 4 0 2 4l-4 2-2 8-1 13 3-1c0 2 0 2-2 3 0 2 2 6-2 5l-2 3v3l4-1ZM263 50l-7 2v1c-2 1-4-1-6 1l1 1 1 2h2c2 0 2-1 3-2h3v-1l1-1 1 1h1v-4Zm-7 10 6 6 3-3-2-5c-2 0-3 0-4 2v1l-2-1h-1Zm426 178-1-1h-1l-1 4h1l2-3Zm-6-122-2-2 1-1-1-2h-1v1l-1 5h4v-1Zm1 2h-5l-1 3 5-1 1-2Zm4 125h-2l-1 8-2 7c-2 3-4 3-4 6h4c3-7 5-14 5-21Zm1-113h-1v3l1-1v-2Zm2 19-1-9-2-1c-2 3 0 17 0 22 0 1-1 4 1 5h1l1-1-1-8-1-2 1-3c-1-1-2-1-2-3l2 1 1-1ZM257 329l1-2 1 2h2l2 5v-9c0-2 3-3 2-5-2-2-5-1-6 0l-6 7 4 2Zm421-203-1-4h-1l-4 1 3 4c2 2 2 6 3 8v-9ZM254 331l-3-1-1 1 3 1 1-1Zm417-57 1 2v-2c2-2 3-3 2-5l-1-1-1 4-1 2Zm11-42-1-6v9l1 1v-4ZM321 37h4-4Zm11 0h-5 5Zm341 68 2 2-1-5-1-1v4Zm10 63-1-1-1 2v3l2-3v-1Zm0-34-2 2v1h1l1-1v-2Z" clip-rule="evenodd"/>
  <path fill="#D54C38" fill-rule="evenodd" d="m76 190-1 1v19l-1 3-1 3 1 5-1 3 3-1v-33Z" clip-rule="evenodd"/>
  <path fill="#292929" fill-rule="evenodd" d="m606 237 21 1-11 6c-2 3-2 7-5 9l-1-1-1-8-3-5-5-1-51 2c-3 0-2 1-2 2l-1 39s-5 0-5 4c0 2 4 4 8 5-2 8-2 15-2 17l15-1-10 2c-6 1-16 3-19 1l3-23 1-12 2-19 2-11c0-4 1-5 5-5h4l55-2Z" clip-rule="evenodd"/>
  <path fill="url(#a)" fill-rule="evenodd" d="m348 47-6-6c-1 1-1 2-2 1l-1-3-2 1h-1c1-5-10-5-10-5l-6 1-1 2c-3-2-4 1-7-1v-1h-1l-12 1c-2 1-3 3-5 3l-3-1 1-1h1l11-4h7c3-1 2 2 6-1l1 2c3 0 11-2 13-1l6 2 3 1c2 1 1 2 2 3 4 2 5 2 7 5l1 2v1l-2-1Z" clip-rule="evenodd"/>
  <path fill="#060506" d="M318 34v1l-1-2h-1l2-1v2Z"/>
  <path fill="#77756D" fill-rule="evenodd" d="m230 65 12-3c4 0 13-4 17-5 6-3 13-4 19-8l4-2c2-1 2-4 5-2l-4 3c-2 1-1 1-1 2l-4 2v1h-3l-12 4c-2 0-6 1-8 3l-6 2-2 2-1-1-1 3-2-2-12 2-16 2-15 1 4-2c4-1 5 1 8-2h1l-1 1v1h1l1-2h1v1c1 1 10 0 12-1h3Z" clip-rule="evenodd"/>
  <path fill="url(#b)" fill-rule="evenodd" d="m252 51 5-2c8-3 17-5 25-6 2-1 3-1 3-3l2 2c2 0 1-2 2-2 2-1 4 2 7 2l3 1 11 2c3 3 16 4 20 5h3c4-2 2 0 4 1l6-2c10-1 13 6 17 7h1c1 1 0 4 2 4l5 1h-6c0 8-2 15-8 21-6 7-5 8-6 15h2l-3 2h1v3l2 1h-3c2 6 3 10 8 15l8 6 1-2v2l3 4h2l1 1h-2l-1 3-6 9-3 1c-3 3-9 7-11 11l-2 5h4l-2 1-1 1 1 1-1 2c1 2 2 1 3 2h-2c0 3 4 7 7 9 4 3 9 11 9 12l1 2c-1 2 2 8 1 11l-1 10 1 1-1 1 2 1h-3c0 2 2 2 1 3-2 2-3 2-6 2l1-1 2-1v-4l2-10c1-6 0-10-2-16l-5-7-5-3-5-7-2-3h-3l3-1-1-6-1-1 2 1c2-10 4-11 12-16 2-1 1-2 2-3 3-1 5-2 7-6s-1-3-2-7v-1 1h-1v-2l-13-9-3-12-2-1 2-1c-1-1-2-2-1-3l2-1-1-4c0-7 6-11 9-15 2-3 7-14 5-17h-2v-1l1-1-1-1v-2c-3 0-4-6-10-4h-1v-1h-9l-1 2-2-1c-3 2-1-1-5 1v-2l-10-1-1 1c-1-1-1-2-3-2l-6-1h-1l-1-1c-3-1-16-5-17-4v4l-3-3-1-1-11 3-1 1c-2-1-2-1-3 1l-3 2 1-3-19 5-3 1c-3-1-5 1-8 2-1 2 0 3-2 1h-8l-4 1v1h-5l-2 2v-2l-1 2h-1l-9 4-8 4-1 1h-2l-1 1-1-1-2 2v-2l-4 2h-3v2l-1-2-5-3-8-6-5-3h-5v-2h-2v-4l2 2h4l1 3c7 0 11 9 17 11l8-1h-7l-4-3h5v-1h1v1l6 2 2-1h4c4-2 17-6 20-9l4-1 2-2h1v1a106 106 0 0 0 25-5v-1l1 2Z" clip-rule="evenodd"/>
  <path fill="#6D6154" fill-rule="evenodd" d="m319 52 1-1 5 1c0 2 1 7 3 10 4 2 4-5 4-8 3-1 3 0 6 1l1-3 1 1c0 2 0 10 3 10 5-3 3-8 5-10h1v11h-82l-2-6 2-1h1c0 2 1 6 3 5 3-1 2-7 4-8h1v2h1l1-4 2-1c2 2 1 10 5 11 5-1 4-12 4-15l2 3 1-6 4 1c1 4-2 16 4 17 4-1 4-12 4-15l3 1 2 2 1-1c3 2-1 9 4 14 5-2 3-7 5-11Z" clip-rule="evenodd"/>
  <path fill="#5A5753" fill-rule="evenodd" d="m272 48-3 3v1l3-1v-3Z" clip-rule="evenodd"/>
  <path fill="#6A5645" d="M302 47v9l-2 5-2-2V45l4 2Z"/>
  <path fill="#5A5753" d="M287 46c1 4 1 11-1 14h-2l-1-11 4-3Z"/>
  <path fill="#6B6256" d="M317 50c0 3 0 8-2 10l-1 1-1-1V49l4 1Z"/>
  <path fill="#6B6256" fill-rule="evenodd" d="m243 56 5-1 3 3c-2 2-4 0-6-1l-2-1Z" clip-rule="evenodd"/>
  <path fill="#6B6256" d="m268 51-1 1-1 1h-2v-3l1-1h2l1 2Z"/>
  <path fill="#3F3E3E" fill-rule="evenodd" d="M213 104v-9l4-1v-7h22c-2 1-11 1-15 4-3 3-4 7-5 12l-1 31c0 9-2 19 5 27 6 6 13 8 21 8h7c8 1 15 2 22-2l15 2c16 2 34 5 48-5 3-2 3-5 5-6h1v6l-3 1c1 2 3 1 5 1l4 6h-56c-6 1-15-1-21-1l-23 1h-14l-9 1-12-1v-68ZM342 104c-9-22-36-16-55-13-4 0-12 1-15 5-4-7-8-7-15-9h65c12 0 13-1 23 4v4l-3 1 4 14 3 7-1 3-1 1-1-1-3-14-1-2Z" clip-rule="evenodd"/>
  <path fill="#6B675D" fill-rule="evenodd" d="M352 161v-13c4-1 5-5 8-5l4-4v48-1c0-4-8-12-12-14v-11ZM658 168v-20h15l-5 8-4 4-2 8-1 11-1 3 1 2c1 8 0 14 4 22l4 8-1 1 1 1v1h-11v-49Z" clip-rule="evenodd"/>
  <path fill="#6D6154" fill-rule="evenodd" d="M299 39h22l14-1v3h4c1 2 2 6 0 8l-1-2c-1 0-3 3-5 2l-1-7c-1-1-1-2-3-2-3 1-3 5-4 8l-4-1c-4 1-3-4-5-7-3-1-4 2-5 4-3 0-7 0-9-2v-2c-2 1-3 2-5 0l2-1Z" clip-rule="evenodd"/>
  <path fill="#68513F" fill-rule="evenodd" d="M207 53h16l1 1-3 1-3 1-3 2h-37l-3 1-4-1-4-2 1-1c1-2 13-1 16-1l23-1Z" clip-rule="evenodd"/>
  <path fill="#3F3E3E" fill-rule="evenodd" d="m250 63 9 7h-26l-6-3h5l11-2 2 3h1l1-4c1 1 2-1 3-1Z" clip-rule="evenodd"/>
  <path fill="#8C8A8A" fill-rule="evenodd" d="M676 192h-2l2-1 2-1 1 4-3-2Zm0 0v10c0 3 2 9-1 11l-1-6 1-11 1-4Zm-5 21c-8-9-9-19-9-30l-1-1 1-2c0-4 0-9 2-14 0 0 1-5 4-9l7-10 2-3 2-12 1-1c1 4-1 14-4 17l-7 10-3 4 1 1-2 7 2 2h-3v14h1l-1 2c-1 9 2 16 7 23l3-2c-3 3-1 5 2 5v1h-1c5 5 9 10 10 17v9h-1l-1-2v-1c1-6 1-9-3-14l-6-8-3 1 1-2h-2l1-2Zm6-26 2-9 6-13v-8h1v13l-1 2c-2 1-5 6-5 9l-2 6-1 1c-1 0-2-1-2-3l2 2Zm9-32v1h-1l-1-1v-4h1l1 4Zm0-5-1-1-1-11-3-19c4 11 4 13 5 24v7Zm-7-23s-2-4 0-6h1v8l-1-2Zm2-9v1l-4 2 2-3-1-1v-1l3-1v3Zm-1-5v1l-4 1 1-1 3-1Zm-8-17v-9l2 9 3-2-1 1-3 4-1-3Zm-7-34-1-1c1-1 0-2-1-3 1-2 2-3 4-3-2 3 1 2 0 5 3 4 2 5 3 10l-5 6h-1c0-3 8-8 1-14Zm-1 30-1-9-2-1 2-1v-3l-1-2 4 1c1 1-1 2-1 3l1 1-2 1 2 10c2 2 3 3 3 6l1 4v6h-1l-2-2c0-2 3-5 1-6 0 0-1-6-4-8Zm15 19v1h-1l-3-11 1-1h3l-2 1c-1 2 2 8 2 10Zm-7-6c1 4 6 5 5 7l-2-1c-4-3-3-2-4-7h1v1Zm4-8v1l-2 3v-1l2-3Zm0 94v-2h3l-1 1-2 1Zm-4 101-1-1h2c-1-5 0-12 1-17l2-6c-2 0-4 0-5-2l1-1h5c0-4 2-5 3-8 1-4 1-9 3-13 1 6-2 13-4 19v2h2l-3 3c-2 7-5 11-4 18v5l3-1-2 2v3c-3 0-3 4-3 4-2-1 0-5 0-7Zm12-49h-1l-1-1v-1l2 2Zm-11-9s2-3 2-8v-7c3 1 1 12 1 14 2 3 3 6 2 10l-1 3-1-4-3-8Z" clip-rule="evenodd"/>
  <path fill="#6B675D" d="m685 82-13-2 1-6 12 8Z"/>
  <path fill="#060506" d="m189 71 4-2v1l-2 2-2-1Z"/>
  <path fill="#5A5753" d="m330 42 1 7-3-1 1-6h1ZM330 54h1l-1 6h-1c-2-1-1-6-2-8h2l1 2Z"/>
  <path fill="#151211" d="m342 157 1 1h-2l1-1Z"/>
  <path fill="#6B675D" fill-rule="evenodd" d="M656 159v71h-50l-12 2c-7 0-65 2-68 1v-39c0-2-2-2-3-3l5-35 28 1h10l57 1h21l12 1Zm-66 3a2 2 0 1 0-4 0 2 2 0 0 0 4 0Zm-17-1a2 2 0 1 0-4 1 2 2 0 0 0 4-1Zm-13-2a2 2 0 1 0-4 2 2 2 0 0 0 4-2Zm-13 0a2 2 0 1 0-4 1 2 2 0 0 0 4-1Zm96 3a2 2 0 1 0-4 1 2 2 0 0 0 4-1Zm-26 0a2 2 0 1 0-4 1 2 2 0 0 0 4-1Zm-83-2a2 2 0 1 0-4 0 2 2 0 0 0 4 0Zm120 2a2 2 0 1 0-4 2 2 2 0 0 0 4-2Zm-49-1a2 2 0 1 0-4 2 2 2 0 0 0 4-2Zm25 1a2 2 0 1 0-4 1 2 2 0 0 0 4-1Zm-46-1a2 2 0 1 0-5 2 2 2 0 0 0 5-2Zm35 64a2 2 0 1 0-4 2 2 2 0 0 0 4-2Zm-29 2a2 2 0 1 0-4 2 2 2 0 0 0 4-2Zm14 0a2 2 0 1 0-5 0 2 2 0 0 0 5 0Zm-51 1a2 2 0 1 0-4 2 2 2 0 0 0 4-2Zm-22-43a2 2 0 1 0-5 0 2 2 0 0 0 5 0Zm34 43a2 2 0 1 0-5 1 2 2 0 0 0 5-1Zm15 0-3-2-2 1v2l2 1c1 1 2 0 2-1l1-1Zm-49 0a2 2 0 1 0-4 2 2 2 0 0 0 4-2Zm11 0a2 2 0 1 0-4 2 2 2 0 0 0 4-2Zm111-3a2 2 0 1 0-4 1 2 2 0 0 0 4-1Zm-9 0a2 2 0 1 0-4 2 2 2 0 0 0 4-2Zm-11-1a2 2 0 1 0-4 3 2 2 0 0 0 4-3Z" clip-rule="evenodd"/>
  <path fill="#594E42" d="M618 226a1 1 0 1 1-3 0 1 1 0 0 1 3 0Z"/>
  <path fill="#624937" d="M589 227a1 1 0 1 1-2 1 1 1 0 0 1 2-1Z"/>
  <path fill="#5C412F" d="M602 226a1 1 0 1 1-2 1 1 1 0 0 1 2-1Z"/>
  <path fill="#6A5645" d="M653 162a1 1 0 1 1-2 1 1 1 0 0 1 2-1Z"/>
  <path fill="#594E42" d="M553 229a1 1 0 1 1-3 0 1 1 0 0 1 3 0Z"/>
  <path fill="#6A5645" d="M589 161a1 1 0 1 1-2 1 1 1 0 0 1 2-1Z"/>
  <path fill="#5A5753" d="M546 159a1 1 0 1 1-2 2 1 1 0 0 1 2-2Z"/>
  <path fill="#594E42" d="M572 161a1 1 0 1 1-2 1 1 1 0 0 1 2-1ZM530 185a1 1 0 1 1-2 1 1 1 0 0 1 2-1ZM564 228a1 1 0 1 1-3 1 1 1 0 0 1 3-1Z"/>
  <path fill="#6A5645" d="M559 160a1 1 0 1 1-2 1 1 1 0 0 1 2-1ZM642 162a1 1 0 1 1-2 1 1 1 0 0 1 2-1ZM583 161a1 1 0 1 1-3 1 1 1 0 0 1 3-1Z"/>
  <path fill="#6B6256" d="M533 160a1 1 0 1 1-2 1 1 1 0 0 1 2-1Z"/>
  <path fill="#5A5753" d="M530 229a1 1 0 1 1-2 1 1 1 0 0 1 2-1Z"/>
  <path fill="#594E42" d="M541 228a1 1 0 1 1-2 2 1 1 0 0 1 2-2Z"/>
  <path fill="#6A5645" d="M652 225a1 1 0 1 1-2 1 1 1 0 0 1 2-1Z"/>
  <path fill="#594E42" d="M616 162a1 1 0 1 1-2 1 1 1 0 0 1 2-1ZM643 225a1 1 0 1 1-2 1 1 1 0 0 1 2-1ZM604 161a1 1 0 1 1-2 1 1 1 0 0 1 2-1Z"/>
  <path fill="#6A5645" d="M629 162a1 1 0 1 1-2 1 1 1 0 0 1 2-1Z"/>
  <path fill="#594E42" d="M632 225a1 1 0 1 1-2 1 1 1 0 0 1 2-1Z"/>
  <path fill="#6D6154" fill-rule="evenodd" d="M454 283h-39l-1-41 1-138v-2h42v12c0 5 5 1 8 3v151h-7l-1 10v5h-3Zm2-67c-1-1-1-2-3-2-4 0-29-1-31 1l-1 2v2h2l25 1c4-1 7 0 8-4Zm-32-10-4 1 2 4h32l2-2v-1c-4-5-26-2-32-2Zm32-22-2-1c-5-2-26-2-31-1l-2 1v3l2 1c5 2 23 1 28 1l4-1 1-3Zm0-16c-5-1-32-2-35 0v4l3 1c5 0 27 1 30-1l2-1v-3Zm0 8-4-1h-29l-2 1-1 3c3 2 29 1 35 1l1-4Zm0 15-8-2-26 1-1 2v2l2 1 25 1c2-1 5 0 7-2l1-3Zm0 8c-4-3-26-2-32-2l-3 2-1 2 4 2h31v-1l1-3Zm0-37v-2c-10-2-22-1-32 0-3 0-4 2-3 4 4 2 28 1 33 1l2-3Z" clip-rule="evenodd"/>
  <path fill="#6B675D" d="M455 208v1l-2 1a178 178 0 0 1-32-1l2-1c3-2 28-1 32 0ZM455 162l-1 1h-32v-1c4-2 28-1 33 0ZM455 216l-1 1c-5 2-27 1-32 1l1-2c2-2 29-1 32 0Z"/>
  <path fill="#6D6154" d="m455 192-1 1c-5 1-29 2-32 0v-1c4-2 29-1 33 0Z"/>
  <path fill="#77756D" d="M446 183c2 0 7 0 9 2-2 2-21 2-24 1-2 0-8 1-9-1v-1l24-1Z"/>
  <path fill="#68513F" d="m455 200-2 1h-32l2-2c4-1 28-1 32 1Z"/>
  <path fill="#6B675D" d="m455 177-1 1c-3 2-29 1-33 0l3-2c4 0 28-1 31 1Z"/>
  <path fill="#725F4E" d="m455 169-1 2h-32l1-2h32Z"/>
  <path fill="#6B675D" fill-rule="evenodd" d="M642 156v1h-4l-34-1h-37l-16-1 1-18 1-15-1-11V99l-2-25v-4l21 4 33 6 35 7 1 32 1 13 1 24Zm-4-17a2 2 0 1 0-4 1 2 2 0 0 0 4-1Zm0 13a2 2 0 1 0-5 2 2 2 0 0 0 5-2Zm-80-1a2 2 0 1 0-4 2 2 2 0 0 0 4-2Zm0-64a2 2 0 1 0-4 2 2 2 0 0 0 4-2Zm1 14a2 2 0 1 0-4 3 2 2 0 0 0 4-3Zm78 9a2 2 0 1 0-4 2 2 2 0 0 0 4-2Zm0 15a2 2 0 1 0-4 2 2 2 0 0 0 4-2Zm-78 12a2 2 0 1 0-5 2 2 2 0 0 0 5-2Zm-2-63a2 2 0 1 0-4 2 2 2 0 0 0 4-2Zm67 78a2 2 0 1 0-4 1 2 2 0 0 0 4-1Zm-48-2a2 2 0 1 0-4 2 2 2 0 0 0 4-2Zm31 1a2 2 0 1 0-4 2 2 2 0 0 0 4-2Zm-48-32a2 2 0 1 0-4 2 2 2 0 0 0 4-2Zm77-25a2 2 0 1 0-4 2 2 2 0 0 0 4-2Zm-45 55a2 2 0 1 0-3 3 2 2 0 0 0 3-3Z" clip-rule="evenodd"/>
  <path fill="#594E42" d="M637 153a1 1 0 1 1-3 1 1 1 0 0 1 3-1ZM636 125a1 1 0 1 1-2 1 1 1 0 0 1 2-1ZM558 138a1 1 0 1 1-3 0 1 1 0 0 1 3 0Z"/>
  <path fill="#624937" d="M556 74a1 1 0 1 1-2 1 1 1 0 0 1 2-1Z"/>
  <path fill="#594E42" d="M623 152a1 1 0 1 1-2 1 1 1 0 0 1 2-1Z"/>
  <path fill="#634B39" d="M557 151a1 1 0 1 1-2 1 1 1 0 0 1 2-1Z"/>
  <path fill="#594E42" d="M575 150a1 1 0 1 1-2 2 1 1 0 0 1 2-2ZM637 139a1 1 0 1 1-2 1 1 1 0 0 1 2-1Z"/>
  <path fill="#6A5645" d="M635 95a1 1 0 1 1-2 0 1 1 0 0 1 2 0ZM557 87a1 1 0 1 1-2 1 1 1 0 0 1 2-1ZM558 102a1 1 0 1 1-2 1 1 1 0 0 1 2-1ZM606 151a1 1 0 1 1-2 1 1 1 0 0 1 2-1Z"/>
  <path fill="#594E42" d="M590 150a1 1 0 1 1-2 1 1 1 0 0 1 2-1ZM636 111a1 1 0 1 1-2 1 1 1 0 0 1 2-1Z"/>
  <path fill="#6A5645" d="M558 120a1 1 0 1 1-2 0 1 1 0 0 1 2 0Z"/>
  <path fill="#6B675D" fill-rule="evenodd" d="M466 194c18 0 36 0 54-2 2 0 3 0 5 2v9c1 13-1 26 1 39v14l-1 1-11 2c-16 2-32 9-48 9v-74Zm8 3a2 2 0 1 0-4 2 2 2 0 0 0 4-2Zm13 0a2 2 0 1 0-4 2 2 2 0 0 0 4-2Zm36 23a2 2 0 1 0-4 1 2 2 0 0 0 4-1Zm1 17a2 2 0 1 0-4 2 2 2 0 0 0 4-2Zm-51 26a2 2 0 1 0-4 2 2 2 0 0 0 4-2Zm50-68a2 2 0 1 0-4 2 2 2 0 0 0 4-2Zm-24 63a2 2 0 1 0-4 1 2 2 0 0 0 4-1Zm1-62-1-1h-3l-1 3 2 1h2l1-3Zm25 57a2 2 0 1 0-4 2 2 2 0 0 0 4-2Zm-41 8a2 2 0 1 0-4 2 2 2 0 0 0 4-2Zm28-64a2 2 0 1 0-5 0 2 2 0 0 0 5 0Zm3 58a2 2 0 1 0-5 1 2 2 0 0 0 5-1Z" clip-rule="evenodd"/>
  <path fill="#6A5645" d="M524 253a1 1 0 1 1-2 1 1 1 0 0 1 2-1ZM499 197a1 1 0 1 1-3 0 1 1 0 0 1 3 0Z"/>
  <path fill="#634B39" d="M510 196a1 1 0 1 1-2 2 1 1 0 0 1 2-2Z"/>
  <path fill="#594E42" d="M513 255a1 1 0 1 1-2 1 1 1 0 0 1 2-1ZM483 261a1 1 0 1 1-2 2 1 1 0 0 1 2-2Z"/>
  <path fill="#6A5645" d="M522 196a1 1 0 1 1-2 1 1 1 0 0 1 2-1ZM498 258a1 1 0 1 1-2 1 1 1 0 0 1 2-1ZM473 197a1 1 0 1 1-2 1 1 1 0 0 1 2-1ZM486 197a1 1 0 1 1-2 1 1 1 0 0 1 2-1Z"/>
  <path fill="#594E42" d="M522 220a1 1 0 1 1-2 1 1 1 0 0 1 2-1ZM523 237a1 1 0 1 1-2 1 1 1 0 0 1 2-1Z"/>
  <path fill="#6A5645" d="M472 263a1 1 0 1 1-2 2 1 1 0 0 1 2-2Z"/>
  <path fill="#6B675D" fill-rule="evenodd" d="M527 149v7h-4l-1 1v2c1 2 3 0 4 1l-2 11h-2l-1 1v2l2 2c1 1-1 12-1 15l-33 2h-23v-67h32l16 2 11-2 2 23Zm-43-18a2 2 0 1 0-5 1 2 2 0 0 0 5-1Zm14 0a2 2 0 1 0-4 1 2 2 0 0 0 4-1Zm26 0a2 2 0 1 0-4 1 2 2 0 0 0 4-1Zm2 13a2 2 0 1 0-4 2 2 2 0 0 0 4-2Zm-14-12a2 2 0 1 0-5 0 2 2 0 0 0 5 0Zm-40-2c-1-1-2-2-4-1l-1 1v1l2 2 2-1 1-2Z" clip-rule="evenodd"/>
  <path fill="#6A5645" d="M523 131a1 1 0 1 1-2 1 1 1 0 0 1 2-1Z"/>
  <path fill="#594E42" d="M525 144a1 1 0 1 1-3 1 1 1 0 0 1 3-1ZM525 157a1 1 0 1 1-2 1 1 1 0 0 1 2-1ZM511 131a1 1 0 1 1-2 2 1 1 0 0 1 2-2ZM470 130a1 1 0 1 1-2 1 1 1 0 0 1 2-1ZM483 131a1 1 0 1 1-3 0 1 1 0 0 1 3 0ZM497 131v1l-1 1a1 1 0 1 1 1-2Z"/>
  <path fill="url(#c)" d="m337 232 1 16c0 12 0 23-2 35l-33-2-29-1v-54c15 1 50 3 62-1l1 7Z"/>
  <path fill="#151211" d="M279 269v7l-1-1c-1-5-1-37 1-42v36ZM291 235a133 133 0 0 1 0 38v-11c-2-6-8-9 0-13v-14Z"/>
  <path fill="#5A5753" d="M291 250v9l-1-1-2-4 1-2 2-2Z"/>
  <path fill="#151211" d="m310 233-1 22v18c-1-9-2-33 1-40Z"/>
  <path fill="#6B675D" fill-rule="evenodd" d="M514 64c6 14 6 28 9 43l2 18-15 1 1-2c0-2-1-3-3-3l-1 2 1 3-11-1h-31v-8h9v-17h-9a348 348 0 0 0-2-36l-1-5 7 1 44 4Zm-42 11-1-2-2-1c-1 2-2 2-1 4 2 1 3 1 4-1Zm1 45a2 2 0 1 0-4 3 2 2 0 0 0 4-3Zm39-54a2 2 0 1 0-4 2 2 2 0 0 0 4-2Zm10 55a2 2 0 1 0-4 2 2 2 0 0 0 4-2Zm-52-58a2 2 0 1 0-4 1 2 2 0 0 0 4-1Zm49 42a2 2 0 1 0-4 3 2 2 0 0 0 4-3Zm-2-14a2 2 0 1 0-4 2 2 2 0 0 0 4-2Zm-2-14a2 2 0 1 0-4 2 2 2 0 0 0 4-2Zm-35 47 3 1 1-3-1-2c-2 0-5 1-3 4Zm-8-38a2 2 0 1 0-4 2 2 2 0 0 0 4-2Z" clip-rule="evenodd"/>
  <path fill="#6A5645" d="m471 75-1 1-2-2 1-1 2 2Z"/>
  <path fill="#151211" d="M497 125h-4c-2-1-2-2-2-4h4v4h2Z"/>
  <path fill="#6A5645" d="M494 122a1 1 0 1 1-2 1 1 1 0 0 1 2-1Z"/>
  <path fill="#594E42" d="M483 121a1 1 0 0 1-1 2 1 1 0 1 1 1-2Z"/>
  <path fill="#6A5645" d="M521 122a1 1 0 1 1-2 1 1 1 0 0 1 2-1ZM472 121a1 1 0 1 1-2 1 1 1 0 0 1 2-1Z"/>
  <path fill="#634B39" d="M469 63a1 1 0 1 1-2 1 1 1 0 0 1 2-1Z"/>
  <path fill="#6A5645" d="M518 106a1 1 0 1 1-2 1 1 1 0 0 1 2-1Z"/>
  <path fill="#594E42" d="M472 87a1 1 0 1 1-3 0 1 1 0 0 1 3 0ZM514 77a1 1 0 1 1-2 2 1 1 0 0 1 2-2ZM511 66a1 1 0 1 1-2 2 1 1 0 0 1 2-2ZM516 91a1 1 0 1 1-2 2 1 1 0 0 1 2-2Z"/>
  <path fill="#6B6256" fill-rule="evenodd" d="m518 305 2 15-9 2a952 952 0 0 1-45 3l2-1-3-3v-6l2 2c2 0 3-1 3-3-1-3-2-2-4-1v-28h8c2-5 1-12 1-17 12-2 26-6 38-7l3 29 2 15Zm0 12a2 2 0 1 0-4 2 2 2 0 0 0 4-2Zm-4-22a2 2 0 1 0-4 2 2 2 0 0 0 4-2Zm2 11-2-2c-2-1-3 0-4 1 2 4 4 4 6 1Zm-3-25a2 2 0 1 0-4 2 2 2 0 0 0 4-2Zm-2-14a2 2 0 1 0-4 1 2 2 0 0 0 4-1Z" clip-rule="evenodd"/>
  <path fill="#634B39" d="M513 296a1 1 0 1 1-2 1 1 1 0 0 1 2-1ZM514 305a1 1 0 1 1-2 2 1 1 0 0 1 2-2Z"/>
  <path fill="#624937" d="M512 282a1 1 0 1 1-2 0 1 1 0 0 1 2 0Z"/>
  <path fill="#594E42" d="M510 267a1 1 0 1 1-2 1 1 1 0 0 1 2-1Z"/>
  <path fill="#634B39" d="M517 317a1 1 0 1 1-2 1 1 1 0 0 1 2-1Z"/>
  <path fill="url(#d)" d="M326 101a86 86 0 0 0-1 56c-19-1-32 0-51 1v-55l6 1 24-1 22-2Z"/>
  <path fill="#151211" d="m279 109-1 22 1 22c-2-6-2-41 0-45v1ZM292 113v22l-1 15v-40l1 3ZM310 144v4l-1 1c-2-5-1-27-1-33l1-5v13l1 20Z"/>
  <path fill="#5A5753" d="M271 235v46c-10 6-22 9-33 1-4-3-8-9-14-9l-4-1v-25l3 1c8-1 13-12 17-17 7-7 22-6 31-7v11Z"/>
  <path fill="#060506" d="M254 250c0 5 1 18-1 26l-1-12v-30l2 16ZM263 267l1-12-2-22 1-1c4 7 2 33 1 42l-1 2v-9Z"/>
  <path fill="#6B675D" fill-rule="evenodd" d="m557 32 19 1 39 2c7 0 32 0 38 6l10 18h-1l-12 1-14 1-76-2c0-5-2-8-3-12V32Zm16 22a2 2 0 1 0-4 2 2 2 0 0 0 4-2Z" clip-rule="evenodd"/>
  <path fill="#68513F" d="M572 55a1 1 0 1 1-2 1 1 1 0 0 1 2-1Z"/>
  <path fill="#5A5753" d="M271 115v44c-8 0-23 0-29-5l-8-10-9-8h-5v-25c10 1 14-7 21-11 7-3 15-4 22-1 3 1 5 3 8 3v13Z"/>
  <path fill="#060506" d="M246 119c1 9 0 24-2 32-1-5 0-10 1-16 1-11-1-22-1-32 2 5 2 11 2 16ZM246 250c1 8 0 23-2 32-1-5 0-11 1-16v-33l1 17ZM265 126c1 8 0 17-2 25-1-3 0-8 1-11v-7c0-9-2-18-1-27 2 6 2 13 2 20Z"/>
  <path fill="#060506" fill-rule="evenodd" d="m252 145 1-19-1-18c3 3 1 32 1 38l-1 3v-4Z" clip-rule="evenodd"/>
  <path fill="#6B6256" fill-rule="evenodd" d="m550 86 1 25 1 11-2 33h-22c0-16-2-37-5-54-2-14-2-23-8-37l34 5v4l1 13Zm-18 38a2 2 0 1 0-4 2 2 2 0 0 0 4-2Zm-7-55a2 2 0 1 0-5 1 2 2 0 0 0 5-1Zm5 31a2 2 0 1 0-5 2 2 2 0 0 0 5-2Zm5 49a2 2 0 1 0-4 2 2 2 0 0 0 4-2Zm-1-14a2 2 0 1 0-5 2 2 2 0 0 0 5-2Zm-2-24a2 2 0 1 0-5 2 2 2 0 0 0 5-2Zm-4-24a2 2 0 1 0-4 1 2 2 0 0 0 4-1Zm19 63c0-2-2-2-3-2-1 1-2 2-1 3a2 2 0 1 0 4-1Z" clip-rule="evenodd"/>
  <path fill="#594E42" d="M531 124a1 1 0 1 1-2 1 1 1 0 0 1 2-1Z"/>
  <path fill="#634B39" d="M546 150a1 1 0 1 1-2 1 1 1 0 0 1 2-1ZM533 135a1 1 0 1 1-2 2 1 1 0 0 1 2-2Z"/>
  <path fill="#594E42" d="M529 101a1 1 0 1 1-3 1 1 1 0 0 1 3-1ZM523 69a1 1 0 1 1-2 2 1 1 0 0 1 2-2Z"/>
  <path fill="#634B39" d="M534 150a1 1 0 1 1-2 1 1 1 0 0 1 2-1Z"/>
  <path fill="#594E42" d="m531 112-1 1-2-1 1-1 2 1ZM527 87a1 1 0 1 1-2 1 1 1 0 0 1 2-1Z"/>
  <path fill="#6D6154" d="m543 133-1 1-2-1 2-2 1 2Z"/>
  <path fill="#3F3E3E" d="M399 188v43l-1 14-2 12-1 12c-1 5-6 25-5 28h1c3-1 5-22 7-27v49l-1 5c-1 3-9 4-12 5V225l-8-10v-2c-1-6-2-39 1-42l17-1c-1 5-2 27-1 30l1 1c4-2 2-12 3-16l1 3Z"/>
  <path fill="#6D6154" fill-rule="evenodd" d="M465 91v10l-50-1V75l-2-8v-7l48-1c4 10 4 22 4 32Zm-43-28a2 2 0 1 0-4 1 2 2 0 0 0 4-1Zm1 10a2 2 0 1 0-4 2 2 2 0 0 0 4-2Zm40 12a2 2 0 1 0-4 1 2 2 0 0 0 4-1Zm-2-21a2 2 0 1 0-5 2 2 2 0 0 0 5-2Zm1 10a2 2 0 1 0-4 2 2 2 0 0 0 4-2Zm2 20a2 2 0 1 0-4 3 2 2 0 0 0 4-3Zm-42 1a2 2 0 1 0-4 2 2 2 0 0 0 4-2Zm0-10a2 2 0 1 0-4 2 2 2 0 0 0 4-2Z" clip-rule="evenodd"/>
  <path fill="#6A5645" d="M463 94a1 1 0 1 1-2 2 1 1 0 0 1 2-2Z"/>
  <path fill="#594E42" d="M422 74a1 1 0 1 1-2 1 1 1 0 0 1 2-1Z"/>
  <path fill="#6A5645" d="M462 85a1 1 0 1 1-2 1 1 1 0 0 1 2-1ZM460 65a1 1 0 1 1-3 0 1 1 0 0 1 3 0ZM421 85a1 1 0 1 1-2 2 1 1 0 0 1 2-2Z"/>
  <path fill="#594E42" d="M421 95a1 1 0 1 1-2 2 1 1 0 0 1 2-2Z"/>
  <path fill="#6A5645" d="M461 74a1 1 0 1 1-2 2 1 1 0 0 1 2-2Z"/>
  <path fill="#634B39" d="M421 63a1 1 0 1 1-2 2 1 1 0 0 1 2-2Z"/>
  <path fill="url(#e)" fill-rule="evenodd" d="m216 301 1 4h120c1-1 2-3 4-2v3c-2 0-3 1-3 2l3 1v5h-54c-4 0-3-2-6 0h-39l-2-1v-1l-3 2h-32l-1-2c-2 0-4 3-6 2l-1-2-2 2-17-1-10-2-13-1-8-1-15-3-2-2-1-8 8 1 3 3 14 1 17 2 6 1 21 2c3-2 4-4 5-7V177a1669 1669 0 0 1 0-78c0-5 1-13-4-16l-2-1-17 2c-14 1-27 1-40 3l-5 1c-1-3-2-8-1-9l18-2 44-3 12-2 4 1v2l-1 6 1 14v184l-1 25 1 1 1-5v-7h3v8Z" clip-rule="evenodd"/>
  <path fill="#6D6154" fill-rule="evenodd" d="M465 285v3c0 13 0 25-4 38l-8-1h-14c2-2 2-3 1-4-4-1-5 1-3 4h-24v-10l2-4v-26h50Zm-5 36a2 2 0 1 0-4 2 2 2 0 0 0 4-2Zm-12 3a2 2 0 1 0 2-3 2 2 0 0 0-2 3Zm8-36a2 2 0 1 0-5 1 2 2 0 0 0 5-1Zm-13-1a2 2 0 1 0-4 3 2 2 0 0 0 4-3Zm-14 34a2 2 0 1 0-4 1 2 2 0 0 0 4-1Zm-10-1a2 2 0 1 0-4 2 2 2 0 0 0 4-2Zm13-32c-1-1-1-2-3-2l-1 1-1 1 2 2 2-1 1-1Zm32-1a2 2 0 1 0-4 2 2 2 0 0 0 4-2Zm-42 0a2 2 0 1 0-4 1 2 2 0 0 0 4-1Z" clip-rule="evenodd"/>
  <path fill="#624937" d="M450 322a1 1 0 1 1-2 1 1 1 0 0 1 2-1ZM418 320a1 1 0 1 1-2 1 1 1 0 0 1 2-1Z"/>
  <path fill="#594E42" d="M459 321a1 1 0 1 1-2 2 1 1 0 0 1 2-2Z"/>
  <path fill="#624937" d="M428 321a1 1 0 1 1-2 1 1 1 0 0 1 2-1Z"/>
  <path fill="#594E42" d="M430 287a1 1 0 1 1-2 2 1 1 0 0 1 2-2Z"/>
  <path fill="#6A5645" d="M463 288a1 1 0 1 1-2 1 1 1 0 0 1 2-1Z"/>
  <path fill="#594E42" d="M421 287a1 1 0 1 1-2 1 1 1 0 0 1 2-1Z"/>
  <path fill="#6A5645" d="M454 288a1 1 0 1 1-1 1 1 1 0 0 1 1-1ZM442 288a1 1 0 1 1-2 1 1 1 0 0 1 2-1Z"/>
  <path fill="#6B6256" fill-rule="evenodd" d="m173 27 3-2h3c2 3-3 21-3 26v1h-15v-1h-2l-1 1-36 1H96l-1-1 2-3c0-4 3-10 6-13l9-5c12-5 42-7 56-6l5 2Zm1 20a2 2 0 1 0-5 2 2 2 0 0 0 5-2Zm-72 2a2 2 0 1 0-5 1 2 2 0 0 0 5-1Zm22 0a2 2 0 1 0-4 1 2 2 0 0 0 4-1Zm-10-1a2 2 0 1 0-4 2 2 2 0 0 0 4-2Zm61-15a2 2 0 0 0-4 0 2 2 0 1 0 4 0Z" clip-rule="evenodd"/>
  <path fill="#5C412F" d="M173 48a1 1 0 1 1-3 0 1 1 0 0 1 3 0Z"/>
  <path fill="#624937" d="M123 49v1a1 1 0 0 1-2 0 1 1 0 0 1 2-1ZM113 48a1 1 0 1 1-2 2 1 1 0 0 1 2-2Z"/>
  <path fill="#594E42" d="M174 34a1 1 0 1 1-2 1 1 1 0 0 1 2-1Z"/>
  <path fill="#634B39" d="M100 49a1 1 0 1 1-2 2 1 1 0 0 1 2-2Z"/>
  <path fill="#6B675D" d="M654 62v26l-1 1-13-3-29-6-81-16-40-4-7-1 23 1h25l79 2h44Z"/>
  <path fill="#6B6256" fill-rule="evenodd" d="m602 325-1 10c-1 1-2 1-2 3 1 1 1 2 3 2l-2 10h-3l-9 1-27 1h-35l1-26h28l47-1Zm-5 18a2 2 0 1 0-4 3 2 2 0 0 0 4-3Zm0-14a2 2 0 1 0-4 0 2 2 0 0 0 4 0Zm-65 13a2 2 0 1 0-4 2 2 2 0 0 0 4-2Zm1-12a2 2 0 1 0-5 1 2 2 0 0 0 5-1Z" clip-rule="evenodd"/>
  <path fill="#594E42" d="M596 344a1 1 0 0 1-1 2 1 1 0 0 1-1-3l2 1ZM596 328a1 1 0 1 1-2 2 1 1 0 0 1 2-2Z"/>
  <path fill="#6A5645" d="M531 342a1 1 0 1 1-2 2 1 1 0 0 1 2-2ZM532 330a1 1 0 1 1-3 0 1 1 0 0 1 3 0Z"/>
  <path fill="#6B675D" d="M654 296v27h-4l-93 1-45 1h-23l34-4 26-4 62-12 22-5 21-4Z"/>
  <path fill="#6B6256" fill-rule="evenodd" d="M298 191v10l-1 10c-2 1-6-1-9-1h-39c2-1 3-2 4-5v-21h3v-2l-3 1-2-10h26l12 1c2 0 5-2 7-1 3 0 1 2 2 4h2c1 2-3 6-3 7 0 5-2 3-3 5l1 2 2-1v-1l1 2Zm-40 16a2 2 0 1 0-3 1 2 2 0 0 0 3-1Zm6-33a2 2 0 1 0-1 3 2 2 0 0 0 1-3Zm12 1a2 2 0 1 0-3 1 2 2 0 0 0 3-1Zm21 6a2 2 0 1 0-3 1 2 2 0 0 0 3-1Zm-1-6a2 2 0 1 0-3 1 2 2 0 0 0 3-1Zm-42 16a2 2 0 1 0 3 1 2 2 0 0 0-3-1Zm31-16a2 2 0 1 0-3 1 2 2 0 0 0 3-1Zm12 23a2 2 0 1 0-3 2 2 2 0 0 0 3-2Zm-1 10a2 2 0 1 0-3 0 2 2 0 0 0 3 0Zm-17-1a2 2 0 1 0-3 1 2 2 0 0 0 3-1Zm-23-31a2 2 0 1 0-3 0 2 2 0 0 0 3 0Zm32 31a2 2 0 1 0-3 1 2 2 0 0 0 3-1Zm-31-7a2 2 0 1 0-2 1 2 2 0 0 0 2-1Zm12 7a2 2 0 1 0-3 1 2 2 0 0 0 3-1Z" clip-rule="evenodd"/>
  <path fill="#5A5753" fill-rule="evenodd" d="M346 178v29l-4 3h-43c-1-7 0-6 1-13 0-3-2-10-1-12 0-4 3-5 3-10h-3l8-1h35l4 4Zm-3 12a5 5 0 1 0-10 4 5 5 0 0 0 10-4Zm-38-12-1 25 1 3 1 1h8l29-1-17-1v-26l16-1h-37Z" clip-rule="evenodd"/>
  <path fill="#77756D" d="M325 179v27l-7-1 3-3v-4l-4-3h-5l-3 3c-1 3 0 5 2 8l-5-1v-26h5l-2 7 2 3 4 1c2 0 4-1 5-3l1-3c0-2-2-4-4-5h8Z"/>
  <path fill="#3F3E3E" d="M319 198v4l-5 2-3-2-1-2 1-2 3-2 5 2ZM318 183a4 4 0 1 1-7 3 4 4 0 0 1 7-3ZM341 190a3 3 0 0 1-4 5 3 3 0 1 1 4-5Z"/>
  <path fill="#6B6256" fill-rule="evenodd" d="m473 53 10-3 13-6 32-12h27l1 14 3 13-88-2-28 1h-20l14-2 28-1 8-2Zm81 1a2 2 0 1 0-4 2 2 2 0 0 0 4-2Zm-3-15a2 2 0 1 0-4 2 2 2 0 0 0 4-2Zm-12 15a2 2 0 1 0-4 1 2 2 0 0 0 4-1Zm-47-1a2 2 0 1 0-4 2 2 2 0 0 0 4-2Zm12 0a2 2 0 1 0-5 1 2 2 0 0 0 5-1Z" clip-rule="evenodd"/>
  <path fill="#624937" d="M553 54a1 1 0 0 1-1 2 1 1 0 1 1 1-2Z"/>
  <path fill="#634B39" d="M550 39a1 1 0 1 1-2 2 1 1 0 0 1 2-2Z"/>
  <path fill="#6A5645" d="M491 53a1 1 0 1 1-2 1 1 1 0 0 1 2-1Z"/>
  <path fill="#594E42" d="M538 54a1 1 0 1 1-2 1 1 1 0 0 1 2-1ZM502 53a1 1 0 1 1-1 1 1 1 0 0 1 1-1Z"/>
  <path fill="#6B675D" fill-rule="evenodd" d="M65 137v1l-5-3-28-11-4-3 1-15 1-12c0-5 2-9 3-14l1-4 16 7 9 1 6 2c-1 9-5 31-3 39l3 12Zm-32-20a2 2 0 1 0-4 2 2 2 0 0 0 4-2Zm30-25a2 2 0 1 0-5 2 2 2 0 0 0 5-2Z" clip-rule="evenodd"/>
  <path fill="#594E42" d="M61 92a1 1 0 1 1-2 2 1 1 0 0 1 2-2Z"/>
  <path fill="#634B39" d="M32 118a1 1 0 1 1-2 1 1 1 0 0 1 2-1Z"/>
  <path fill="#6D6154" d="M399 88v39l-1 22-2-1-1 7v14h-12c-4 0-4-2-4-5v-48l1-27c2-2 15-1 19-1Z"/>
  <path fill="url(#f)" fill-rule="evenodd" d="M98 343v1h-3c-10 1-29-2-37-6-5-3-9-7-14-9l-6-8-6-11 5-3 9-2 21-5 5 6 1 6c1 4 3 12 6 16 4 3 10 3 15 3l4 12Zm-30-39a2 2 0 1 0-4 2 2 2 0 0 0 4-2Zm-27 6a2 2 0 1 0-4 1 2 2 0 0 0 4-1Z" clip-rule="evenodd"/>
  <path fill="#060506" d="M69 323v2l-2 3h-3c-4-1-7-7-9-11l-1-3v-2h1l5 6c3 2 7 2 9 5Z"/>
  <path fill="#6B675D" d="M68 323v2l-2 2h-1c-4-1-7-6-8-9l-1-3 6 4 6 4Z"/>
  <path fill="#594E42" d="M40 310a1 1 0 1 1-2 1 1 1 0 0 1 2-1Z"/>
  <path fill="#634B39" d="M67 305a1 1 0 1 1-2 0 1 1 0 0 1 2 0ZM50 300a1 1 0 1 1-2 0 1 1 0 0 1 2 0Z"/>
  <path fill="url(#g)" fill-rule="evenodd" d="m65 245-1 10-2 19 2 18-2 1-1-3-2-1-2 2v2c-1 3-16 4-19 4l-7 2h-2v-6l-3-24 8-9c9-8 21-8 31-15Zm-4 27a2 2 0 1 0-5 1 2 2 0 0 0 5-1Zm-27 20a2 2 0 1 0-4 1 2 2 0 0 0 4-1Zm10-33a2 2 0 1 0-5 1 2 2 0 0 0 5-1Z" clip-rule="evenodd"/>
  <path fill="#6A5645" d="M59 272a1 1 0 1 1-2 1 1 1 0 0 1 2-1Z"/>
  <path fill="#68513F" d="M43 259a1 1 0 1 1-3 1 1 1 0 0 1 3-1Z"/>
  <path fill="#594E42" d="M33 292a1 1 0 1 1-2 1 1 1 0 0 1 2-1Z"/>
  <path fill="#6B675D" fill-rule="evenodd" d="m655 334 1 4-4 6c-3 1-7 3-11 3-6 2-12 1-19 2l-21 1 2-10v-1l-3-1c0-2 2-2 2-3l1-10 28-1h23l1 10Zm-47 7a2 2 0 1 0-4 2 2 2 0 0 0 4-2Zm45-1a2 2 0 1 0-4 2 2 2 0 0 0 4-2Zm-45-12a2 2 0 1 0-4 1 2 2 0 0 0 4-1Zm44-1a2 2 0 1 0-4 2 2 2 0 0 0 4-2Z" clip-rule="evenodd"/>
  <path fill="#68513F" d="M651 327a1 1 0 1 1-2 2 1 1 0 0 1 2-2Z"/>
  <path fill="#594E42" d="M652 341a1 1 0 1 1-3 0 1 1 0 0 1 3 0ZM607 328a1 1 0 0 1 0 1 1 1 0 1 1 0-1ZM607 341a1 1 0 1 1-2 1 1 1 0 0 1 2-1Z"/>
  <path fill="#828282" fill-rule="evenodd" d="M551 269v-10h57v17h-56l-1-7Zm53 1a2 2 0 1 0-5 1 2 2 0 0 0 5-1Zm-46 0a2 2 0 1 0-4 2 2 2 0 0 0 4-2Zm20 0a2 2 0 1 0-4 1 2 2 0 0 0 4-1Zm-10 0a2 2 0 1 0-5 2 2 2 0 0 0 5-2Zm22 0a2 2 0 1 0-4 1 2 2 0 0 0 4-1Zm17 7c-1 3-2 4-5 5l-1-1v-2c-3-1-6-2-8 0l1 2-4 1v-1l1-2c-2-2-6-1-8 0v3h-3v-3h-7v2l-4 1-1-1v-2l-4-1c-3 0-3 1-3 3h-12l2-4h56Z" clip-rule="evenodd"/>
  <path fill="#77756D" d="M607 277c-1 3-2 4-5 5l-1-1v-2c-3-1-6-2-8 0l1 2-4 1v-1l1-2c-2-2-6-1-8 0v3h-3v-3h-7v2l-4 1-1-1v-2l-4-1c-3 0-3 1-3 3h-12l2-4h56ZM602 270a1 1 0 1 1-2 1 1 1 0 0 1 2-1ZM557 270a1 1 0 1 1-2 1 1 1 0 0 1 2-1ZM577 270a1 1 0 1 1-2 1 1 1 0 0 1 2-1Z"/>
  <path fill="#6B675D" d="M567 270a1 1 0 1 1-3 1 1 1 0 0 1 3-1Z"/>
  <path fill="#828282" d="M589 270a1 1 0 1 1-2 1 1 1 0 0 1 2-1Z"/>
  <path fill="#3F3E3E" d="M383 225v77l-14-1v-33h3c0-2-2-3-3-3 0-3 1-3 2-5v-1l-2-1v-45h6c1 5 5 8 8 12ZM345 123c1 10-2 28-7 36-1 2-3 3-5 3l-3-1c-6-5-7-17-8-24-1-9 1-27 6-34 1-2 3-5 5-5 1-1 3 0 4 1 5 4 7 18 8 24Z"/>
  <path fill="#060506" d="M333 99c12 9 10 40 5 53 0 2-2 7-4 7h-2c-5 0-8-17-9-22l6-3v-5l-5-2c-1-7 1-16 5-23l3-4c1 3 4 9 6 10l-5-11Z"/>
  <path fill="#3F3E3E" d="m337 150-3 9h-2c3-4 1-5 5-9ZM336 124l-1 14-1 3-3 7-2 4h-1c-1-1 2-8 2-10v-25l-2-9 1-2 1 1 2 7 3 6 1 4Z"/>
  <path fill="#5A5753" d="M340 137c0 4-1 7-3 11l-3 2c-1 2-1 5-3 7l-2-2v-1l7-13 1-5 3 1ZM340 119v5l-3 2-1-7-4-10c0-2-2-3-1-5h1l2 5 5 5 1 5ZM329 118v8l-1 1h-1l-2-5 2-12 2 8ZM329 136c0 3 0 9-2 12l-2-10 4-2Z"/>
  <path fill="#3F3E3E" d="M340 127v7h-3v-5l3-2Z"/>
  <path fill="#6B675D" fill-rule="evenodd" d="M95 95v180l-3-3v-2l-2-4-1-2-1-2V140l2-12-1-10 3-2-4-2c0-1 2-3 1-5l-1-1V95h7Zm-3 3a1 1 0 1 0-2 0 1 1 0 0 0 2 0Zm0 3a1 1 0 1 0-2 1 1 1 0 0 0 2-1Z" clip-rule="evenodd"/>
  <path fill="#3F3E3E" fill-rule="evenodd" d="M213 286v-74l12-1h17l104 1-4 13v4l-2 2h3c1 1 2 6 5 8l-3 8-2 8c-3 2-1 3-2 4h-1l-1-25-1-11-5-5c-12-8-30-5-44-3l-16 2c-8-6-17-3-26-3-8 0-17 2-23 8-2 2-4 5-5 9l-1 17v26l2 13 6 6 5 2 12 1h5c4 1 8 0 12-1 6-1 9-3 12-8l4 3 6 2c11 2 23 4 34 3 8 0 19-2 22-11 2-4 1-11 1-16l1-6h2l2 17 2 7c1 2-1 5-2 7-3 2-7 4-10 4h-35l-50 1-32-1 1-4-5-2v-5Z" clip-rule="evenodd"/>
  <path fill="url(#h)" fill-rule="evenodd" d="M213 336v20l-5 2-11 1h-22c-1-9 1-18 1-28l19 1h18v4Zm-5 0a2 2 0 1 0 4-1 2 2 0 0 0-4 1Z" clip-rule="evenodd"/>
  <path fill="#634B39" d="M211 335v1a1 1 0 0 1-2 0 1 1 0 0 1 2-1Z"/>
  <path fill="#6B6256" fill-rule="evenodd" d="m175 331-1 19v10l-11-1-27-2v-26h26v1l7-1-1 4v1h4c1-2-1-2-1-4l4-1Zm-4 20a2 2 0 1 0-4 1 2 2 0 0 0 4-1Z" clip-rule="evenodd"/>
  <path fill="#594E42" d="M170 351a1 1 0 0 1-1 2l-1-1a1 1 0 0 1 2-1Z"/>
  <path fill="#6B675D" fill-rule="evenodd" d="m283 73 10-1h11v1l4-2h29l12-2v10l-7-1-1-4v2l-2 5h-1l-1-2v-6c-2 2-2 3-3 7l-118 1 2-9h33l16-1c5 7 3 3 1 0l7 2h8Z" clip-rule="evenodd"/>
  <path fill="url(#i)" fill-rule="evenodd" d="M656 122v35h-13c-1-11 0-22-2-34v-13l-1-22c5 0 9 1 13 3 4 10 3 20 3 31Zm-8-29a2 2 0 1 0-3 3 2 2 0 0 0 3-3Zm1 35a2 2 0 1 0-4 1 2 2 0 0 0 4-1Zm2 23a2 2 0 1 0-4 3 2 2 0 0 0 4-3Zm-3-46a2 2 0 1 0-4 2 2 2 0 0 0 4-2Z" clip-rule="evenodd"/>
  <path fill="#594E42" d="M648 128a1 1 0 0 1-1 2 1 1 0 1 1 1-2ZM647 94a1 1 0 1 1-2 1 1 1 0 0 1 2-1Z"/>
  <path fill="#624937" d="M650 152a1 1 0 1 1-2 1 1 1 0 0 1 2-1Z"/>
  <path fill="#6A5645" d="M647 105a1 1 0 1 1-2 1 1 1 0 0 1 2-1Z"/>
  <path fill="url(#j)" fill-rule="evenodd" d="m540 251-4 24-3 29-14 3v-5h2l2-1v-2l-2-1-3 2-1-10-1-13-2-16c3-1 10-1 12-3s1-5 1-7h13Zm-5 23a2 2 0 1 0-4 2 2 2 0 0 0 4-2Zm-3 22a2 2 0 1 0-4 1 2 2 0 0 0 4-1Zm6-42a2 2 0 1 0-4 3 2 2 0 0 0 4-3Z" clip-rule="evenodd"/>
  <path fill="#6A5645" d="M531 296a1 1 0 1 1-2 1 1 1 0 0 1 2-1Z"/>
  <path fill="#634B39" d="M534 274a1 1 0 1 1-2 1 1 1 0 0 1 2-1Z"/>
  <path fill="#6D6154" d="M537 255a1 1 0 1 1-2 1 1 1 0 0 1 2-1Z"/>
  <path fill="#6B6256" fill-rule="evenodd" d="m74 67-1 8c0 2-6 9-7 11-8-4-9-3-17-5l-15-6 2-6 1-5c4-7 12-13 19-17 4 8 12 13 18 20Zm-10-6-4-3-3 1c-3 3-3 13-3 17v2h1c2-2 2-5 3-7 2-4 6-6 6-10Zm2 19a2 2 0 1 0-5 1 2 2 0 0 0 5-1Zm-25-8a2 2 0 1 0-3 2 2 2 0 0 0 3-2Z" clip-rule="evenodd"/>
  <path fill="#6B675D" d="M63 61v1l-5 7-3 5v-1c0-4 0-11 3-13l2-1 3 2Z"/>
  <path fill="#624937" d="M65 80a1 1 0 1 1-3 1 1 1 0 0 1 3-1Z"/>
  <path fill="#594E42" d="M41 73a1 1 0 1 1-3 0 1 1 0 0 1 3 0Z"/>
  <path fill="#6D6154" fill-rule="evenodd" d="M525 331v21c-25-8-43-22-70-23l-32-2h91l11-1v5Zm-2-4a2 2 0 1 0-2 5 2 2 0 0 0 2-5Zm-27 3a2 2 0 1 0-4 1 2 2 0 0 0 4-1Zm-8 0a2 2 0 1 0-5 1 2 2 0 0 0 5-1Zm20 0a2 2 0 1 0-5 1 2 2 0 0 0 5-1Zm9-1a2 2 0 1 0-4 2 2 2 0 0 0 4-2Z" clip-rule="evenodd"/>
  <path fill="#594E42" d="M523 329a1 1 0 1 1-2 1 1 1 0 0 1 2-1Z"/>
  <path fill="#6B6256" d="M525 326v5l-1-4h-1l-2 1-7-1 11-1Z"/>
  <path fill="#634B39" d="M507 329a1 1 0 0 1-2 2l-1-1a1 1 0 0 1 3-1Z"/>
  <path fill="#6A5645" d="M516 330a1 1 0 1 1-2 0 1 1 0 0 1 2 0ZM495 330a1 1 0 1 1-2 1 1 1 0 0 1 2-1ZM487 330a1 1 0 1 1-3 1 1 1 0 0 1 3-1Z"/>
  <path fill="#6B6256" d="M501 334v2l-1 1h-3v-1l2-2h2Z"/>
  <path fill="#6B675D" fill-rule="evenodd" d="m86 256-3-3 2-5-3 3-3-5v-1h1c-1-1-3-1-3-3l-2-4-1-4 1-4 4-4v-63l-2-3-1-4 3-5 3-5c1-3 3-4 5-6v116l-1 3v-3ZM86 268l1 26H77l-2-1h-5l-2-1v-65l2 7 2 6c2 5 6 9 7 14l-2 1v1l4 2-1 1v2l3-1 3 8Zm-12 21-2-2-2 1 1 3h2l1-2Zm8 0a2 2 0 1 0-4 2 2 2 0 0 0 4-2Z" clip-rule="evenodd"/>
  <path fill="#6D6154" fill-rule="evenodd" d="M209 51v1h-31c-1-5 1-10 1-14l2-13h26l2 22-1-1h-3l-1 2 1 2 3-1h1v2Zm-22-3a2 2 0 1 0-5 0 2 2 0 0 0 5 0Zm19-20a2 2 0 1 0-4 2 2 2 0 0 0 4-2Zm-18 0a2 2 0 1 0-4 2 2 2 0 0 0 4-2Z" clip-rule="evenodd"/>
  <path fill="#634B39" d="M205 29a1 1 0 1 1-2 1 1 1 0 0 1 2-1ZM187 28a1 1 0 1 1-3 1 1 1 0 0 1 3-1Z"/>
  <path fill="#3F3E3E" d="M186 48v1a1 1 0 0 1-3 0l1-2 2 1Z"/>
  <path fill="#6B675D" fill-rule="evenodd" d="m233 173-1 12-3-1v2l1 1 2-1v9h-4l1 2c1 1 2 0 3-1l1 14h-10l-10 1v-34l1-1-1-2h7v3h2l1-2v-1l3 1 1-1 6-1Zm-1 34a2 2 0 1 0-3 1 2 2 0 0 0 3-1Zm-15 0a2 2 0 1 0-3 1 2 2 0 0 0 3-1Zm7-1a2 2 0 1 0-2 3 2 2 0 0 0 2-3Z" clip-rule="evenodd"/>
  <path fill="#151211" d="m216 174-1 3h-2l1-1-1-2h3Z"/>
  <path fill="#5A5753" d="m216 174-2 1-1-1h3Z"/>
  <path fill="#060506" d="M232 176a2 2 0 1 1-4 0 2 2 0 0 1 4 0Z"/>
  <path fill="url(#k)" fill-rule="evenodd" d="M658 270c14 14 12 34 14 53l-7 1h-10v-5l1-24 1-12 1-13Zm6 11a2 2 0 1 0-4 2 2 2 0 0 0 4-2Z" clip-rule="evenodd"/>
  <path fill="#6A5645" d="M663 282a1 1 0 1 1-2 1 1 1 0 0 1 2-1Z"/>
  <path fill="url(#l)" fill-rule="evenodd" d="m248 50-1 1-3-3v3c-10 2-24 1-33 1l-2-22-1-4 6-1 10 6c8 5 17 11 24 19Zm-31-4a2 2 0 1 0-5 2 2 2 0 0 0 5-2Zm13 0a2 2 0 1 0-4 3 2 2 0 0 0 4-3Zm-15-16a2 2 0 1 0-5 1 2 2 0 0 0 5-1Z" clip-rule="evenodd"/>
  <path fill="#6A5645" d="M216 46a1 1 0 1 1-2 2 1 1 0 0 1 2-2Z"/>
  <path fill="#5C412F" d="M214 30a1 1 0 1 1-3 0 1 1 0 0 1 3 0Z"/>
  <path fill="#594E42" d="M229 47a1 1 0 1 1-2 1 1 1 0 0 1 2-1Z"/>
  <path fill="#6B6256" fill-rule="evenodd" d="M84 111v5l-5-1c1 2 3 3 3 5l-2 2v1l3 1c1 2-3 13-4 16v1c0 3-2 7-5 11l-3-1 1 3h-2l-1 3h-1v-55h12l2 1-2 2v2l3 1 1 3Zm-9-6a2 2 0 1 0-3 2 2 2 0 0 0 3-2Z" clip-rule="evenodd"/>
  <path fill="#594E42" d="M74 105a1 1 0 1 1-2 1 1 1 0 0 1 2-1Z"/>
  <path fill="#6B675D" fill-rule="evenodd" d="m98 312-3-3c-9-9-7-25-7-37l2 2 2 7c3 1 1 6 2 7v2l-3 1 4 2 2 12c1 2 1 4 3 4l8 8-6 5h-5l-20-1-5-17-3-3-1-8 19 2c1 9 5 13 11 19l4 2-4-4Zm-6-25a1 1 0 0 0-2 1 1 1 0 1 0 2-1Zm0-4a1 1 0 1 0-2 1 1 1 0 0 0 2-1Z" clip-rule="evenodd"/>
  <path fill="#6D6154" fill-rule="evenodd" d="m272 321 47-1h22v3l-1 4c-3 0-3 1-5-1l-3 2c0-2 0-4-2-6-4 0-4 6-5 8-1 1-3 0-4-1l-3 4-1-8c0-2-2-3-3-3-4 2-2 11-3 13l-2-2v3l-5 1v-7l-2-8c-8-2-5 12-6 15l-5 1h-2c0-4 1-14-4-16-5 0-2 14-4 15l-1-1-2 1c-1-2-1 0-3-1-2-3 1-8-3-14h-2c-3 5-2 10-3 12-4 0-3-13 1-13h4Z" clip-rule="evenodd"/>
  <path fill="#6D6154" d="m302 322 4 2-2 2v4l-2-8Z"/>
  <path fill="url(#m)" d="M271 218v4l-4 1h-7c-6 0-9 1-15 3-8 2-16 23-24 20l-1-9c1-17 14-22 29-21-5 1-8 2-12 7l-5 9c3-1 4-5 5-7 4-8 15-10 22-10l9 1 3 2Z"/>
  <path fill="url(#n)" d="M271 166c-7 3-15 2-22 1-12-3-13-15-17-16l1 2c3 5 5 11 11 13l2 1h2-4c-16-1-24-8-24-25l1-4c7-3 16 17 22 19s9 3 15 3h6l7 1v5Z"/>
  <path fill="#6A5645" fill-rule="evenodd" d="m135 331-1 10c1 5 2 11 1 16h-5l-19-4 1-21v-1h23Zm-3 22-3-1-2 1-1 1 3 2 2-1 1-2Zm-13-3a2 2 0 1 0-4 2 2 2 0 0 0 4-2Zm0-19a2 2 0 0 0-3 3 2 2 0 1 0 3-3Zm13 2a2 2 0 1 0-3 2 2 2 0 0 0 3-2Z" clip-rule="evenodd"/>
  <path fill="#634B39" d="M119 333v2a1 1 0 1 1 0-2Z"/>
  <path fill="#5C412F" d="M131 334a1 1 0 1 1-2 0 1 1 0 0 1 2 0Z"/>
  <path fill="#634B39" d="M130 353a1 1 0 0 1-2 1 1 1 0 1 1 2-1ZM118 350a1 1 0 1 1-1 2 1 1 0 0 1 1-2Z"/>
  <path fill="#77756D" d="m336 285-5 5c-13 7-41 2-55-2h-1l-1-6c21-1 41 1 62 3ZM334 95l-1 1-6 3-34 2-16 1-3-1v-4l1-1c3-3 28-6 34-6 8-1 19 0 25 5Z"/>
  <path fill="#6B675D" fill-rule="evenodd" d="M99 76c-2 6-4 11-4 18l-7-1c1-16 5-14 13-25-5 3-12 10-13 16l-1 10v4l-1 2-2-2-2-10v-5l-2-1 2-5c1-4 1-10 4-13 3-2 6-2 9-2h5l5 6-6 8Z" clip-rule="evenodd"/>
  <path fill="#6B675D" d="M364 62v58l-1 2-8-5v-2h-2v-3l-1-12V87l1-2 1 1v-3l8-10c-1-2 1-8 1-11h1ZM442 47v8l-20 1v-2c1-3 1-9-1-11l-2-1-2 1c-2 3-2 8-1 12l-8-5-2-9-1-1-2 1c-2 1-2 5-2 7l-7-3-1-6h25c7 0 14 0 20 2l4 6Z"/>
  <path fill="#77756D" d="M335 223c-5 4-52 1-61 1v-6c14-2 28-4 41-3 7 0 15 2 20 8Z"/>
  <path fill="url(#o)" d="M442 330c1 14-2 15-15 15l-34 1 1-6 7-3c0 3 0 8 4 7l2-4 1-6 7-3c0 3 0 11 4 12 4-1 4-11 3-15l20 2Z"/>
  <path fill="#77756D" d="m331 164-6 3-13 2-38-4v-5l22-1h30l5 5Z"/>
  <path fill="#6B675D" fill-rule="evenodd" d="m637 292 2-1 2-8c2 2 0 7 0 9l-1 5-7 2-33 7-15 3-25 4c-13 3-26 6-39 7l-2-12 13-2c0 3 0 5 4 5l14-1 20-3 8-2c2 0 12 1 14-1l7 1h3c3-6 2-4 8-6 5-2 12-1 15-5l12-2Z" clip-rule="evenodd"/>
  <path fill="#6D6154" fill-rule="evenodd" d="M55 173v-39l4 2v112l-4 1v-76Z" clip-rule="evenodd"/>
  <path fill="#6D6154" d="M337 305c1-1 2-3 4-2v3l-4-1Z"/>
  <path fill="#77756D" d="m271 100-5-2-5-2c-8-2-17-1-24 4l-9 7c-2 2-4 2-7 2v-1c-1-1 0-2 1-3h-1c0-5 0-8 4-12 5-3 11-4 17-4-3 2-7 4-9 7v1c4-1 7-6 11-7 6-2 15-1 20 1 4 2 6 5 7 9Z"/>
  <path fill="#725F4E" fill-rule="evenodd" d="m247 335-9 7-6 6-4 1-13 7v-24h16c0 3-2 1-3 5l3 2 1-1v-5h3l3 2 1-1c2-1 6 0 8 1Zm-25 0a2 2 0 1 0-4 2 2 2 0 0 0 4-2Z" clip-rule="evenodd"/>
  <path fill="#634B39" d="M221 336a1 1 0 1 1-3 0 1 1 0 0 1 3 0Z"/>
  <path fill="#6B675D" fill-rule="evenodd" d="m655 87 1-26c5 0 9 0 11 5l-2 7c-3 4-3 1-4 1v3c2 2-1 4 0 6h1c0 5 3 13 5 17 1 2-1 5-2 7-3 4-3 6-7 9l-1-12v-7l-2-10Z" clip-rule="evenodd"/>
  <path fill="#5A5753" d="M413 282c0 4 1 29-1 31l-1-4V103l1-32 1 5v20l-1 69 1 117Z"/>
  <path fill="#3F3E3E" d="M399 63v23h-15v-7l1-24c5 2 11 3 14 8Z"/>
  <path fill="#77756D" fill-rule="evenodd" d="M263 293c-7 2-14 3-21 0-4-2-6-6-8-6h-1c0 2 7 6 9 7-10 0-20-1-21-13 0-2-1-5 1-6 4-2 10 4 13 7 7 6 16 7 25 6l7-3 4-2-3 7-5 3Z" clip-rule="evenodd"/>
  <path fill="#151211" d="M375 174v37h-5l-1-2-1-25v13l-1 13-1-1v-21c0-7-1-50 1-52v-1h1v44l1-2v-3h6Z"/>
  <path fill="#6A5645" d="m368 197-1 13-1-1v-21c0-7-1-50 1-52v-1h1v62Z"/>
  <path fill="#3F3E3E" d="M375 174v37h-5l-1-2c1-2 2-2 4-2v-29l-4-1v-3h6Z"/>
  <path fill="#6D6154" d="M352 177c4 2 8 7 9 11l-1 3h2c2 3 0 16-1 20l-3-2c1 3 2 4 1 7h-1v1l2 1c-1 3-6 7-8 12v-53ZM410 147v133l-1 34-1-4v-71a3415 3415 0 0 0 0-144V75l1-4 1 1v75Z"/>
  <path fill="#6B675D" fill-rule="evenodd" d="M607 231h41v21h-4c0-3 1-13-1-15-3-2-31-1-36-1l-25 1c-6 0-37 0-40 2-2 2-2 8-2 11h-13c1-7 0-9-1-16l56-1h13l12-2Z" clip-rule="evenodd"/>
  <path fill="#8C8A8A" fill-rule="evenodd" d="M256 332s-6-6-9-5h-1c-4-3-5-2-10-3l-2-1h-2l-1-1h-1l-4-1-7-2h-1l-15-2-1-1h1c6-2 25 3 31 5l3-4-2 5c5 1 14 2 18 5l4 3 1 1c2 0 3 1 3 3l-4-1h-1v-1Zm-120-17 2 2 1 1 6 3c7 4 9 5 17 5h5l3-2 1 2 4-3c3-2 13-6 17-6h4l1-3v3l1-1 2-1 1 2 2 1c5 0 10 1 14 3h2l11 7 3 1c3 0 3 0 4 2h1l12 1 3 1v1h1l6 2c-5 0-19-4-22-3l-2-1c-2-1-4 2-5-2h-1l-1-1c-5-1-4-2-8-4l-2-1c-2-3-8-3-11-4l-4-1-2 1-1-1-1-2-1 2h-3l-1-1-4 1h-1c-4 1-11 5-14 5l-4 1v3h-5c-2 0-2 2-3 2v-3l-8 1-7-3v2l-1-1-5-5v1l-2 1-2-3h-3l2-2-4-3c-4-4-5-9-7-14v-6h1c1 3 0 9 3 11l4 8 1 1Zm34 5-2 1-1-1-3 1-1-2h-3c-1 1-12-3-15-3l-7-1-1-1h-1l1-1c3-1 10 1 13 2l2 1 12 2 3-1v3l3-3 1 1h1c3 0 13-1 14-3h1v1l1 1c-4 0-7 2-11 3l-6-1-1 1 1 2h-1v-2Zm152 13c4-3 9-2 12-5h1l1 1 14-2 2-1-1 1h6l3-1 2 1 11 1c1 1 3 3 5 2v2c-2 1-4-2-6-2-4-2-4-1-9-1l-3-1h-3l-9 1c-9 0-17 2-26 5l-1 2 2 1c13-2 21 5 32 6v2l-4-1c-3 0-7-1-10-3h-1v1l-8-2v-1h-2c-4-1-5 1-8-1-3-3-4-1-7 0l2-4h3l2-1Zm-43 8-10-2-7-4-1 2v-3c3-1 5 2 7 3l6 1 8 1h2l2-2v2h4l14-1h3l3-1h2l3-2-2 4-3-1-3 2h-2l-13 1h-6l-1 1h-1c-1-2-3-1-5-1Z" clip-rule="evenodd"/>
  <path fill="url(#p)" d="m82 39-2 5c-1 5-3 12-2 15l-3 7c-6-6-16-14-19-21l5-1 8-2 13-3Z"/>
  <path fill="#6D6154" d="m163 328-1 1H82l-4-5h18l50 1 1 1c2 2 9 3 11 2h5Z"/>
  <path fill="#5A5753" d="m252 183-1 22-1 2-5 1c0-1 4-5 3-7l-2-5-5-1-4 2-1 4c0 4 4 6 7 8h-9v-34l1-1 5 1c0 3-3 4-4 7v3l5 4 4-1c2-1 3-3 4-6l-5-5 6-1 2 7Z"/>
  <path fill="#3F3E3E" d="M336 303h-78l1-1 7-3h69l1 4Z"/>
  <path fill="url(#q)" d="m672 239 1 20-15 1v-21h14Z"/>
  <path fill="#68513F" d="m150 54 1 1-6 1c-2 1-3 3-5 3h-17l-20 1H89l-9 1-1-1 5-4 21-1 22-1h23Z"/>
  <path fill="#6B675D" fill-rule="evenodd" d="m673 126-1 20-14 1v-21h15Zm-3 9-6-2-3 2-1 1c2 2 3 2 5 2l4-1 1-2Z" clip-rule="evenodd"/>
  <path fill="#77756D" fill-rule="evenodd" d="M593 250h15v4h-57l1-4h41Z" clip-rule="evenodd"/>
  <path fill="#6B675D" d="M673 168v23l-2 1v1h2v1l-1 16-1-1-4-6-1-4-1-11 2-2-2-1v-12l3-1-2-3v-1h7Z"/>
  <path fill="#6D6154" fill-rule="evenodd" d="M281 346c-7 1-9 0-15-2l-2-7 3 2c1 2 2 6 4 6 2-2 2-5 5-3h6l2 2 3-1h1v-1h10l1 2c4 0 2-2 5-3 2 1 0 1 2 3 0-2 2-4 5-4l2 4c2 1 3 0 4-2s2-2 4-2h1c5 0 3 1 6 4l1 1c2-1 3-4 3-5l8 2 2 2 7 1v1h-15l-34 1-19-1Z" clip-rule="evenodd"/>
  <path fill="#68513F" fill-rule="evenodd" d="M367 60h-1V35l32 14c2 1 1 4 1 6l-3-1-26-9c-6 6 0 9-3 15Zm0 0h-1 1Z" clip-rule="evenodd"/>
  <path fill="#6B675D" d="M364 273v53h-2l1-1-2-1v-2l1-2-1-2 1-10c0-6-3-7-2-14l-3 1-5-8c2-3 2-5 5-7l1 1 1-2 5-6Z"/>
  <path fill="#6D6154" fill-rule="evenodd" d="M673 223v6c-1 2-2 4-1 5v3h-14v-18h15v4Zm-3 5c-2-2-3-2-6-2l-3 1-1 2 5 2 4-2 1-1Z" clip-rule="evenodd"/>
  <path fill="#594E42" d="m668 228-1 1h-5v-1h6ZM668 136h-6 6Z"/>
  <path fill="#6B675D" d="M380 31v2l-2 1-4-2c-5-4-10-20-10-27l6-4c4 10 8 20 10 30Z"/>
  <path fill="#3F3E3E" d="m336 81-1 4h-68l-5-2-2-1h25l30-1h21Z"/>
  <path fill="#6B675D" d="m381 351-11 32-4-2-1-1-1-3c1-5 7-23 11-26h6Z"/>
  <path fill="#634B39" fill-rule="evenodd" d="m352 49 1-16c0-4 9 1 12 2l-1 18v6h-1c-2-2 0-5-1-5l-3 1-6-5-1-1Z" clip-rule="evenodd"/>
  <path fill="#3F3E3E" d="M382 82v4l-4 3-1 21h-8V83l13-1Z"/>
  <path fill="url(#r)" d="M364 265v3l-5 5-6 6-1-22v-12l3 2c2 2 8 11 8 14l-1 3 2 1Z"/>
  <path fill="#68513F" fill-rule="evenodd" d="M406 132v-2l1 4v78l-4 3 1-37c-1-14-1-33 2-46Z" clip-rule="evenodd"/>
  <path fill="url(#s)" fill-rule="evenodd" d="M86 38h14l-6 15c-6 0-13 2-15 5-1-4 4-18 5-19l2-1Z" clip-rule="evenodd"/>
  <path fill="#6B675D" d="M656 265c1 10 0 20-2 29l-7 2v-11l2-2v-3l-2-2-1-7 4-1c2-1 2-4 2-6l4 1Z"/>
  <path fill="#6D6154" d="M365 255h-1l-2-3v-4h-2l-8-9c2-3 2-7 5-9l3-5 4-8 1 38Z"/>
  <path fill="#6A5645" d="M402 79v57c-1 7 0 14-2 22V91c1-9 1-22-1-31l-2-1c-5-2-22-10-25-9l-3 1-1-1 3-3c4 1 26 8 29 11s2 18 2 21Z"/>
  <path fill="#6D6154" fill-rule="evenodd" d="M403 319v-19a4067 4067 0 0 1 3-72v-3l1 2v85l-2 7c0 4 0 8-3 10h-1l2-4v-6Z" clip-rule="evenodd"/>
  <path fill="#6D6154" d="M391 32v1c-1 1-4-2-8-1l-1-2-4-11-5-15-1-2 1-1 1 1c8 4 14 22 17 30ZM391 353v-1c-1-1-4 2-8 1l-1 2-4 11-6 15v2h2c8-4 14-22 17-30Z"/>
  <path fill="#6B675D" d="M129 89c-6 1-19 1-26 8l-4 5-3-2 1-11c4-3 8-5 13-6 0 0 16-4 17-3 0 3 0 7 2 9Z"/>
  <path fill="url(#t)" d="m348 67-5 1-4 1-33 1h-46l-9-8 3-1 7 7h35l19-1h33Z"/>
  <path fill="#3F3E3E" d="m348 67-5 1h-47l19-1h33ZM129 72l-2 6-13 2-12 3-4 2 4-9 5-6c1-1 4 3 5 1l1-2 3 2s0-3 3-1l10 2Z"/>
  <path fill="#6D6154" fill-rule="evenodd" d="m367 337 2 2 18-5 12-5v7l-9 4-24 9v-7c-3 2-5 3-9 3l-1-1v-1h3l1-2c0 1 0 2 2 2l4-3v-10h1v7Z" clip-rule="evenodd"/>
  <path fill="url(#u)" d="M656 232v32l-4-2v-3c-1-3 0-5-3-7l1-21 6 1Z"/>
  <path fill="#624937" fill-rule="evenodd" d="M110 340v12l-3-1-5-5c-3-3-4-7-6-11v-4h14v9Zm-8-7a2 2 0 1 0-3 2 2 2 0 0 0 3-2Z" clip-rule="evenodd"/>
  <path fill="#5C412F" d="M101 334v1a1 1 0 0 1-2-1 1 1 0 0 1 2 0Z"/>
  <path fill="#6A5645" fill-rule="evenodd" d="M183 330h-10l1-4c2-2 6-1 8-1l22 1h18l5 4h2l-5 1-41-1Z" clip-rule="evenodd"/>
  <path fill="#6D6154" d="M407 70v27l-1 22-1 1c-3-4-2-11-2-16V63l-2-8c7 5 2 9 6 15Z"/>
  <path fill="#3F3E3E" d="M377 111v39l-8-1v-6l3-2c2-3 1-14 1-18l1-1c2-1 2-3 2-4v-2c-2-2-3-1-5-1l-2-1 1-2 7-1Z"/>
  <path fill="#6B6256" fill-rule="evenodd" d="M369 64c0-2 2-1 4-3 3-3 2-6 2-9l9 3-1 9h-14Z" clip-rule="evenodd"/>
  <path fill="#6B6256" d="M402 279v33l-1 15-30 11-1-1-2-3v-1c2 0 2 1 3 2l10-3 14-5 4-3c2-4 1-10 1-14v-25c0-7-1-20 1-26l1 20Z"/>
  <path fill="#828282" fill-rule="evenodd" d="m609 260 1-6h9l1 4v6l-1 5h-10v-9Z" clip-rule="evenodd"/>
  <path fill="#6B6256" fill-rule="evenodd" d="M383 320v10l-4 1-1-2h-2c-2-3-1-9-7-6l1-3h13Z" clip-rule="evenodd"/>
  <path fill="#77756D" d="m81 100-1 1H68c0-7 0-13 2-19l1-2 3 1 2 3c1 1 0 2-1 4v2l3-1 3 11Z"/>
  <path fill="#6B675D" fill-rule="evenodd" d="m120 296-7 8c-5-1-10-3-13-7l-1-3h2l-2-5v-2h2c4 6 13 7 19 8h6v6l-1 1 1 1 1 3-9-1 8-7-6-2Z" clip-rule="evenodd"/>
  <path fill="#6B675D" d="M670 261v28l-3-10c-2-4-5-8-9-11v-7h12Z"/>
  <path fill="#828282" fill-rule="evenodd" d="m634 269-1 1-8-1v-16h8c2 2 3 12 1 16Z" clip-rule="evenodd"/>
  <path fill="#8C8A8A" fill-rule="evenodd" d="M162 63h1l2 1c2 0 4-3 6-2l-1 1 4 1 3 2-8-1v1h-2l-2 1-1-2-1 1h-1l-4-1c-5 1-13 7-18 6l-5-3h2l1-2 3 2c4 2 10-3 14-4h6l1-1Z" clip-rule="evenodd"/>
  <path fill="#3F3E3E" d="M99 300c7 3 13 6 29 7l2 6h-19l-11-5-1-8ZM377 169l-1 2c-1 2-5 1-7 1v-21l8 1v17Z"/>
  <path fill="#6B675D" d="m365 130-1 2-4 5-3 1c-2 3 0 3-5 5v-24l8 6-1 1 2 1 1 1 1 1-1 2h1l2-1Z"/>
  <path fill="#3F3E3E" d="m184 73-25 2-26 3-1-1v-1l1-4h49l2 1Z"/>
  <path fill="#6A5645" d="M669 109h1v16l-12-1v-7c4-2 9-10 9-10v-1l2 2h1l-1 1Z"/>
  <path fill="#151211" d="m670 108-1 1-2-2v-1l2 2h1Z"/>
  <path fill="#8C8A8A" fill-rule="evenodd" d="M85 116c-1-9-3-14-5-22l-1-6h-3c1-1 2 0 2-2l-1-3-1-2 2 2h2v5l6 20 2 1v1h-1v5l-2 1 5 1h-3l-1 6-5-1h3l1-1-2-1v-1l-1-2 2 1 1-1v-1Zm2 13 1-10v15c-2 6-13 19-13 22l1 3-1 1 2 2-4 1 1 7 1 13h2l-3 3 2 2-2 1v21l-1 3-1-4v-18l1-15c-1-4-2-9-1-12l1-4 1-5 6-11c2-5 2-16 4-20v-1h1v6l-2 6-1 7 3-6 2-7Zm-15 99h-1v-10c-2-2-2-4-2-6l-2-2 1-2c1-3-2-10-3-13l-1-3h2c3 3 3 14 5 18v3l1 7 1 7h3l-4 1 1 1 1 3-1 1-2-1 1-1-2-1 2-2Zm24 64h-2v-1h1v-6l-5-12-2-2-1-5-2-2-1-5h-3l2-2-4-2 2-1c-5-7-9-12-9-21h1l2 8 4 4-1 1 4 7 1-2v3l2 3-1 1 7 12 1 3c1 4 5 8 4 12l1 1h3l-2 1v3l1 1v1h-1l-1 5-1-4v-1ZM61 187h1c1-1-1-2-1-3l1-10c0-4 4-11 7-14v-1l-2-1h3c1-1 0-3 2-4h1l-2 7v1l-1-1c-2 1-5 8-5 10l-2 5c0 3-1 7 1 10v1l2 2-1 2h-1l-2 1h-1l2-1v-1l-2-2v-1l-1-1 1 1ZM90 60c0 1-5 3-7 7s-1 10-4 14l-1 1v-1c1-6 2-15 7-19 2-2 3-2 5-2Z" clip-rule="evenodd"/>
  <path fill="#6A5645" d="m135 321 4 1h1l-1 1h-16l-19-1c1-1 4-3 4-5l-2-4c4 2 10 1 15 1h10l5 4s-2 2-1 3Z"/>
  <path fill="#3F3E3E" d="m256 315-10 8-10-2 2-4h-1l-3 3-3-1-8-2-7-2h40Z"/>
  <path fill="#292929" d="m640 239-1 14-2-4h-2c-2 0-3 2-3 3h-8v-1l-1-1h-4c6-6 14-8 21-11Z"/>
  <path fill="#6B6256" d="M679 165v8c0 2-2 10-4 11v-16l-1-11 1-5 3-4 1 4v13Z"/>
  <path fill="#77756D" fill-rule="evenodd" d="m573 247-21-1v-3h56v4h-35Z" clip-rule="evenodd"/>
  <path fill="#3F3E3E" d="M623 273c2-3 6-3 8-2l1 2h-9ZM609 273c2-3 6-3 8-2l1 2h-9Z"/>
  <path fill="#6B675D" d="M357 300c1 6 2 9 1 15l-3 2h1c4 5-5 4-1 8v1h-2v-1l-1-1v-28c2-1 3 3 5 4Z"/>
  <path fill="url(#v)" d="m402 163-1 82-1 1v-58l1-21 1-4Z"/>
  <path fill="#5A5753" d="M102 62c6 0 31-2 35-1v1l-4 1v2l-1 1c-2 2-11 1-13 0l1-3-2 1-1-1h-2c-1 4-4 1-6 2v1l-3 1-4-5Z"/>
  <path fill="url(#w)" d="m341 315-1 1h-79c-2 2-6 8-10 9l-2-1 10-9h82Z"/>
  <path fill="#828282" d="M608 255v2h-57v-2h57ZM608 248v1h-57v-1h57Z"/>
  <path fill="#6D6154" fill-rule="evenodd" d="M62 200c0-3-1-5 1-7l1 7v26l2 1v19l-2-3-1 1-1 1v-45Z" clip-rule="evenodd"/>
  <path fill="#6B675D" d="M62 237v8-8Z"/>
  <path fill="#77756D" fill-rule="evenodd" d="m364 340-2 2-1-3c-2 0-3 3-5 3l-1-2h-1l-1 2-1-1v-11h8l-1-1h1c2 2 3 0 2 3l1 1h1v-3l1 2-1 8Z" clip-rule="evenodd"/>
  <path fill="#3F3E3E" d="M383 305v12h-14v-13l14 1Z"/>
  <path fill="#6B675D" d="M359 62c0 7-2 13-7 18V53l4 3h-1c0 2 1 2 2 3v4l2-1Z"/>
  <path fill="#6B675D" fill-rule="evenodd" d="m67 299-21 5-1-5v-1l7-1 12-3 3 5Zm-16 1a2 2 0 0 0-3-1l-1 2a2 2 0 0 0 4-1Zm-6 4-6 2c-3 0-5 2-7 3l-1-5v-4l13-2 1 6Z" clip-rule="evenodd"/>
  <path fill="#5A5753" d="M67 160h-2c-3 0-1 8-3 10l-1-23v-10l5 3v16l-1 1-1 1h1l2 2ZM209 60l-10 5h-10l-2-2-4 1h-4l-1-1-3-3h34Z"/>
  <path fill="#8C8A8A" fill-rule="evenodd" d="m349 240-4-7v-3h-2l1-1v-1l-1-3h4l-1 3 1 2h-2l4 7 12-20 1 1c-1 5-6 11-8 15l-3 6 8 9 2 1v3l5 8h3c-1 3-2 0-1 5l2 2-3-1-2 5-7 8v1l-1-1-7 9c-3 4-4 9-5 14l2 1c-2 1-2 1-2 3l-2 4 1 12c-2-1-2-2-2-5v-9h-3l3-1v-3l-1-2v-1h1l1 1 1-4c2-12 10-21 19-27l3-7h-2l1-2-1-1c-1-4-10-18-14-20l-1 3-3 11 1 1-1 1v4l2 2v1l-3-1 2 10v7l2 4-2 1-1-4c-1-2-3-17-2-20h-6l5-1v-1h-1l2-4c2-6 2-10 5-15Zm8 82c1-1 2-1 2-5h-3l3-1v-5c0-6-1-11-5-16l-2-1h1c-1-2-4-5-3-7l1 1 4 5c1 2 1 4 3 3l1 4c1 4 3 8 2 12l-1 6 1 1-3 7h-1l1-2-1-1-1 1-1-1h1l1-1Zm-7-113c1 4-2 5-4 9v6l-1 1-1-2c0-6 3-10 6-14Z" clip-rule="evenodd"/>
  <path fill="#292929" d="M617 274c-3 10 1 14 2 15-3 1-11 2-13 0l-1-6c2-1 4-3 5-8l7-1Z"/>
  <path fill="#3F3E3E" d="m383 66-1 14-13 1V67l14-1Z"/>
  <path fill="#5A5753" d="M67 85v3l-1 13v8l-1 1v1l1 1v20h-1l-2-8c-1-8 2-31 4-39Z"/>
  <path fill="#8C8A8A" fill-rule="evenodd" d="m158 55 2 1-1 1-8 1-11 4v1c-2 1-3 2-3 4h-2c-4 3-5 17-2 19v2l-3-1c-3-4 1-19 4-22v-2h1c3 0 8-4 10-6 2-1 4 0 6-2h7Z" clip-rule="evenodd"/>
  <path fill="#6A5645" d="m367 61 1 12v41l-1 12-1-2V62l1-1Z"/>
  <path fill="#060506" d="m569 289-1 2h-5v-2h6Z"/>
  <path fill="#5A5753" d="M66 290v5-1l-1-4c-3-11-1-22 0-33l1-8v41Z"/>
  <path fill="#3F3E3E" d="M348 66h-84 2l29-1h34l19 1Z"/>
  <path fill="#828282" fill-rule="evenodd" d="m640 263-1-10 9 1 1 10c0 2 0 4-2 5-2-2 0-3 0-5-2-2-4-1-7-1v6-6Z" clip-rule="evenodd"/>
  <path fill="#6D6154" d="m367 269 1 30v26l-1 1-1 1v-55l1-3ZM686 214v2c-1 2-3 3-5 3v-35l1-6 1 32 3 4Z"/>
  <path fill="#6B6256" fill-rule="evenodd" d="M470 269c2 0 4 0 3 3v11h-6v-13l3-1Z" clip-rule="evenodd"/>
  <path fill="#6D6154" d="M473 102v13h-6v-13h6Z"/>
  <path fill="#3F3E3E" d="M341 318v1a1465 1465 0 0 1-77-1h77Z"/>
  <path fill="#5A5753" d="M262 299c-7 6-20 4-29 4h1l2-1c8-4 17-3 26-3Z"/>
  <path fill="#151211" d="m72 208-1 5v-2l1-3Z"/>
  <path fill="#828282" fill-rule="evenodd" d="M574 291v-2h6l1 11h-7v-9Zm6-1h-5v1l4-1h1ZM584 291v-2h6c2 2 1 8 1 11h-7v-9Zm6-1h-5v1l4-1h1ZM594 291l1-2h6v11h-7v-9Zm6-1h-5v1l5-1ZM562 291v-2h6l1 11h-7v-9Zm6-1h-5l-1 1 5-1h1Z" clip-rule="evenodd"/>
  <path fill="#624937" d="M465 270v13h-6v-13h6ZM465 102v13h-6v-13h6Z"/>
  <path fill="#895C45" d="M639 238c-5 2-21 7-22 13l-1 2c-2 0-2 0-2-2l3-5c7-7 13-8 22-8Z"/>
  <path fill="#292929" fill-rule="evenodd" d="M624 287c-2-4-2-4 0-8v-5h4c1 4-1 7 3 10 2 2 4 5 3 7l-7 2v-1l-3-5Z" clip-rule="evenodd"/>
  <path fill="#5A5753" d="M349 175v23l1 8-3 4h-1v-1l1-1v-29l-2-4h4Z"/>
  <path fill="#6A5645" d="M367 212v47h-1v-46l1-1Z"/>
  <path fill="#6D6154" fill-rule="evenodd" d="m284 38-1 3c-1 2-6 1-9 2-1 1-1-2-3-3-3 0-2 3-4 5h-2l1-5c5-2 12-2 18-2h7l-2 1h-1l-1 1c-1 0-1-2-3-2Z" clip-rule="evenodd"/>
  <path fill="#895C45" fill-rule="evenodd" d="M555 288c-2 0-12 1-11-4 1-2 13-2 14-1 2 3-1 5-3 5Z" clip-rule="evenodd"/>
  <path fill="#6B6256" d="m671 74-2 20a30 30 0 0 1-3-10l1-1 1-1-1-2 1-2v-1l-1-1v-1l4-4v3Z"/>
  <path fill="#6D6154" d="m364 344 1 6c-3 0-11 4-13 3v-6l8-1 2 1v-1l2-2Z"/>
  <path fill="#5A5753" d="M83 63c-4 5-4 11-6 17l-4-1 1-3c2-2 1-3 1-5l2-8h6Z"/>
  <path fill="#3F3E3E" d="M164 312h-29l-3-4h1l15 2 16 2Z"/>
  <path fill="#151211" d="M340 341v1l-8-2v-1l8 2Z"/>
  <path fill="#594E42" d="M606 241v1l-54-1 1-1h51l2 1Z"/>
  <path fill="#3F3E3E" d="M53 175v34h-3l1-34h2ZM237 299h-1l-2 2c-6 3-11 2-17 2v-4h20Z"/>
  <path fill="#5A5753" d="M262 85h-21l-5-3h20l6 3Z"/>
  <path fill="#6B6256" d="M350 311v12c0 3-2 3-2 3l-3-4v-12l5 1Z"/>
  <path fill="#3F3E3E" d="m238 85-21 1v-3h5c6-1 10-1 16 2Z"/>
  <path fill="#6D6154" d="M408 316v16l-7 3c-1-5 3-4 5-8l1-10 1-1Z"/>
  <path fill="#3F3E3E" d="M246 181a4 4 0 1 1-7 3 4 4 0 0 1 7-3ZM247 201l-2 4-3 1-4-4 1-2c0-1 1-2 3-2h3l2 3Z"/>
  <path fill="#634B39" fill-rule="evenodd" d="M213 87V72l2-1h2l-2 7 1 9c0 2 1 5-1 7h-1c-2-2-1-5-1-7Z" clip-rule="evenodd"/>
  <path fill="#6A5645" d="M302 328c0 2 1 6-1 8l-1 1h-1l-1-4 1-7 1-2h1l1 4Z"/>
  <path fill="#77756D" d="M686 302c-3 3-10 6-14 8v-5l14-3Z"/>
  <path fill="#5A5753" d="m350 129-1 8-2 2v-5c0-3-1-9 1-11h1l1 6ZM421 333l-1 8-2 1v-1l-1-5v-5l4-5v7ZM287 332l1 2-5 5a53 53 0 0 1 1-13l1-2h1l1 8Z"/>
  <path fill="#6D6154" d="m664 326-5 7-2 3-1-3-1-7h9Z"/>
  <path fill="#5A5753" d="M421 48v6l-2 3-1-1-1-4 1-8 1-1c2 1 2 3 2 5Z"/>
  <path fill="#6D6154" d="M408 58c0 3 1 7-1 10-1-3 0-7-2-11l-3-4v-2h1l5 1v6Z"/>
  <path fill="#8C8A8A" fill-rule="evenodd" d="M116 65h2l-1 1c4 2 9 3 14 3l-1 1c-4 2-10-2-13-2l-2 1-3-1-1 1v1l-1-1-1-1 1-2h1l5-1Z" clip-rule="evenodd"/>
  <path fill="#6B675D" d="M622 263c1-6-1-8-1-12h2c2 5 1 16 0 21h-3c2-2 2-6 2-9Z"/>
  <path fill="#5A5753" d="m606 295-1 1v-5h1v4Z"/>
  <path fill="#6A5645" d="M273 328v8l-4-1v-4c0-2 0-6 2-7l2 4Z"/>
  <path fill="#3F3E3E" d="M350 268v3c0 3 1 9-1 11l-1-5c1-4-1-8-2-12h3l1 3ZM350 140v5c-4 3-5 5-6 9l-2 2 3-10 1-5 4-1Z"/>
  <path fill="#77756D" d="m416 57-1 1-3 1-2 12-1-5 1-13 6 4Z"/>
  <path fill="#6B675D" d="M673 161v6h-4l-2-1 1-2v-2l5-7v6Z"/>
  <path fill="#5A5753" d="M374 51v6l-2 4h-2l-1-6 2-4h3Z"/>
  <path fill="#77756D" d="M416 326v1c-1 2-4 4-6 4l-1-10 1-7 2 11 4 1Z"/>
  <path fill="#895C45" d="M557 293v6l-4 5-4 1 7-13 1 1Z"/>
  <path fill="#5A5753" fill-rule="evenodd" d="m162 67 1-1v2h6l1 1v-3l2 1c4 0 6 1 8 3h-31l1-1 4-1c2 0 5-2 8-1Z" clip-rule="evenodd"/>
  <path fill="#5A5753" d="m346 330-1 10-3-1v-9h4Z"/>
  <path fill="#6D6154" d="M341 331v8l-9-3 1-4 8-1ZM349 330v12l-2-2v-10h2Z"/>
  <path fill="#3F3E3E" d="M372 124c0 4 1 13-2 16l-1-3v-7c1-1 2 0 2-2l-2-1 1-4 2 1Z"/>
  <path fill="#5A5753" d="m78 221-1 4-2 1-1-1 3-1v-61h1v58Z"/>
  <path fill="#6B675D" d="M638 257v13l-2 3v-1c-1-1 1-5 1-6l-1-16h1l1 7Z"/>
  <path fill="#5A5753" d="M317 327v4c0 2-1 1-2 2l-2 2v-8l2-3 2 3Z"/>
  <path fill="#292929" d="m641 273-1 9-2 1-2-3-2-6 7-1Z"/>
  <path fill="#5A5753" d="M645 278v1l-2-1-1-11v-1h2c2 3 1 9 1 12Z"/>
  <path fill="#5A5753" fill-rule="evenodd" d="M645 296v-13h-2l-1 14 3-1ZM228 71c-9 0-8-1-16-2 7-1 11-2 17 1h2l-1 1h-2Z" clip-rule="evenodd"/>
  <path fill="#5A5753" d="M346 52c0 3 0 7-2 9h-1l-1-1-1-8h5Z"/>
  <path fill="#453B35" d="m555 290-6 10 2-10h4Z"/>
  <path fill="#5A5753" d="m346 87-1 1-7-3-1-2h7l2 4Z"/>
  <path fill="#6A5645" d="M679 204v3l-1 1c-2-2-1-7 0-9l-1-3 1-1c2 1 1 7 1 9Z"/>
  <path fill="#634B39" d="m124 298-7 6h-3c2-2 4-6 7-6h3Z"/>
  <path fill="#6B6256" fill-rule="evenodd" d="M674 132v-3h1v1c2 7 2 9 0 15l-1-13Z" clip-rule="evenodd"/>
  <path fill="#5A5753" d="m406 335-1 7-2 1-1-7 4-1Z"/>
  <path fill="#6B675D" fill-rule="evenodd" d="M558 288c1-1 1-2 3-2l1 1-2 2-1 13h-1v-14Z" clip-rule="evenodd"/>
  <path fill="url(#x)" d="m574 286-1 1c-3 3 0 10-2 15v-12l-4-4h7Z"/>
  <path fill="#5A5753" d="m406 46-1 3h-2l-1-2 1-3 1-2 1 1 1 3Z"/>
  <path fill="#3F3E3E" d="m643 237-1 15h-1v-14l2-1ZM374 117v3l-2 1-3-1v-2l2-2h2l1 1Z"/>
  <path fill="#6B6256" d="m677 249-3 8v-15l3 7Z"/>
  <path fill="#6A5645" fill-rule="evenodd" d="m344 82-3-1v-1h8c0 3 0 4-2 7l-3-5Z" clip-rule="evenodd"/>
  <path fill="#3F3E3E" d="M349 309c-3 1-3-2-3-2v-3l3 1v4Z"/>
  <path fill="#5A5753" d="m71 224-2 1h-4v-24 23h6Z"/>
  <path fill="#3F3E3E" fill-rule="evenodd" d="m210 71-23 2 4-1h3l1-1h1l1-1h11l2 1Z" clip-rule="evenodd"/>
  <path fill="#6D6154" d="M350 38v7l-3-4-4-3h7Z"/>
  <path fill="#5A5753" d="M346 47v1h-4v-5h1l3 4Z"/>
  <path fill="#3F3E3E" d="m347 297 1-1c2 0 2 6 1 7l-2-1v-5ZM341 297h2c0 2-4 5-6 5l-1-3 5-2ZM349 215v8l-2 1v-1c0-3 0-6 2-8Z"/>
  <path fill="#77756D" d="M567 287h-3l-1-4 1-1 2 1 1 4ZM589 285l-1 2h-2l-1-2v-2l2-1h1l1 3Z"/>
  <path fill="#5A5753" d="m604 286-1 13v-10l-3-3h4Z"/>
  <path fill="#5A5753" fill-rule="evenodd" d="M678 225v-2l1 2v11l-2-2 1-9Z" clip-rule="evenodd"/>
  <path fill="#77756D" d="M578 287h-4l1-4 3-1v5Z"/>
  <path fill="#3F3E3E" d="M350 249v4l-2 2h-1v-1l2-7 1 2Z"/>
  <path fill="#5A5753" d="M331 326v2l-2 2-2-1v-1l1-3 1-1 2 2ZM330 342v-1l-1-1h-1v3h1l1-1Z"/>
  <path fill="#6D6154" d="M322 336h4l-1-2-2 1-1 1Z"/>
  <path fill="#77756D" d="M599 285v2h-1c-3 1-2-1-2-1v-2l2-2 1 3Z"/>
  <path fill="#3F3E3E" d="M350 256v6l-1 1-1-1v-5l2-1Z"/>
  <path fill="#756A58" fill-rule="evenodd" d="m636 288-1-2 2-1h1v1l-2 2Zm2 0v2h-2v-2h2Z" clip-rule="evenodd"/>
  <path fill="#756A58" d="M638 288v2h-2v-2h2ZM625 290l-1 3h-2v-2l3-1Z"/>
  <path fill="#5A5753" fill-rule="evenodd" d="m388 38-2-5c2-1 4 3 5 4v7l-3-6ZM388 346l-2 5c2 1 4-2 5-4l1-6h-1l-3 5Z" clip-rule="evenodd"/>
  <path fill="url(#y)" d="m581 301-1 3-7-1-1-1 1-1 2 1h6v-1Z"/>
  <path fill="url(#z)" d="m591 301-1 3-7-1-1-1 2-1 1 1h6v-1Z"/>
  <path fill="url(#A)" d="m601 301-1 3-7-1v-1l1-1 1 1h6v-1Z"/>
  <path fill="url(#B)" d="m569 301-1 3-7-1-1-1 1-1 2 1h5l1-1Z"/>
  <path fill="#5A5753" d="M651 260v4l-1 5v-15l1 6ZM272 55v3l-1 3h-1l-1-5 3-1ZM374 327v1l-4-2v-2l1-1h1c2 1 2 3 2 4ZM388 39l-1 3-6-2-1-1h8Z"/>
  <path fill="#6B675D" d="m388 342-1 3h-7l8-3Z"/>
  <path fill="#3F3E3E" d="M350 151v5l-3 1v-1l1-4 2-1Z"/>
  <path fill="#6B6256" d="M316 46h-1l-1-1-1-2 1-1h2v4Z"/>
  <path fill="#5A5753" d="m679 208 1 5-1 1-2-1 2-5Z"/>
  <path fill="#77756D" d="m584 287-2 2-2-2h-1v-1l2-1 3 2ZM594 287l-2 2-1-2h-1v-1l2-1 2 2Z"/>
  <path fill="#756A58" fill-rule="evenodd" d="m635 283 2 1h-1l-2 1-1-1v-1h2ZM633 280l2 1v1l-3 1-1-1 1-1 1-1ZM632 277l2 2h-1l-2 1-1-1v-1l2-1ZM632 274l1 2-1 1h-2l-1-2h1l2-1ZM622 275l1 1-1 1-3-1v-1l1-1 2 1ZM621 278v2h-3v-2h3ZM620 281l1 2h-3l-1-1 1-1h2ZM621 284l1 2h-3l-1-1 1-1h2ZM622 287l2 2h-4v-2h2Z" clip-rule="evenodd"/>
  <path fill="#77756D" d="M648 281h-7l2-1 5 1Z"/>
  <path fill="#6B675D" d="m568 280-1 1h-6l2-2 5 1Z"/>
  <path fill="#292929" d="M612 297c-1 2-5 2-7 2v-1l7-1Z"/>
  <path fill="#77756D" d="M579 280v1l-6-1 2-1 4 1Z"/>
  <path fill="#6B675D" d="M600 280h-6l2-1 4 1Z"/>
  <path fill="#5A5753" d="M331 333v3h-4v-2l4-1ZM374 332v1h-2l-2-2h1c1-1 2 1 3 1ZM346 326h-1v1h-3v-1l2-2 2 2Z"/>
  <path fill="#3F3E3E" d="m559 304-4 1v-1l2-2 2 2Z"/>
  <path fill="#5A5753" d="m574 283-1 1h-6l1-1h6Z"/>
  <path fill="#6B675D" d="m590 279-1 1-5 1 1-1 5-1Z"/>
  <path fill="#5A5753" d="M646 265h-5l1-1c1-1 3 0 4 1ZM272 43v1h-2l-1-1 2-2 1 2ZM616 291c1 0 2 1 2 3l-1 1h-1l1-2-1-2ZM614 291c1 0 2 1 2 3l-2 2v-5ZM611 291c1 0 2 1 2 3l-1 2h-1l1-2-1-3ZM609 291c1 0 2 1 2 3l-1 2h-1v-5ZM607 291c1 0 2 1 1 3l-1 2v-5ZM618 291c1-1 3 0 3 2l-1 2h-1v-2l-1-2ZM316 340l-1 2-1 1-1-2 3-1Z"/>
  <path fill="#6A5645" d="M269 340v2l2 1v-2l-2-1Z"/>
  <path fill="#5A5753" d="M679 214v3h-1l-1-2 2-1Z"/>
  <path fill="#624937" d="m466 323-1 2h-1l1-3 1 1Z"/>
  <path fill="#594E42" d="M469 314a1 1 0 1 1-2 1 1 1 0 0 1 2-1Z"/>
  <path fill="#634B39" d="M232 336a1 1 0 1 1-3 1 1 1 0 0 1 3-1Z"/>
  <path fill="#5A5753" d="m584 283-1 1h-4l1-1h4ZM595 283l-1 1h-4v-1h5Z"/>
  <path fill="#594E42" d="M671 62v5-1l-1-2v-2h1ZM439 322a1 1 0 1 1-2 1 1 1 0 0 1 2-1Z"/>
  <path fill="#5A5753" d="M87 101v4h-1v-4h1ZM177 321h-1l-4 1v-1h5Z"/>
  <path fill="#594E42" d="M510 123a1 1 0 1 1-2 1 1 1 0 0 1 2-1Z"/>
  <path fill="#634B39" d="M208 47a1 1 0 1 1-3 1 1 1 0 0 1 3-1Z"/>
  <path fill="#6A5645" d="M524 173a1 1 0 1 1-2 1 1 1 0 0 1 2-1Z"/>
  <path fill="#634B39" d="M522 299a1 1 0 1 1-2 2 1 1 0 0 1 2-2Z"/>
  <path fill="#6A5645" d="M60 291v2a1 1 0 1 1 0-2Z"/>
  <path fill="#68513F" d="m171 334-1 1a1 1 0 1 1 1-1Z"/>
  <path fill="#5A5753" d="M603 283v1h-3l1-1h2ZM562 283v2h-2v-2h2ZM194 315v1h-5v-1h5Z"/>
  <path fill="#3F3E3E" d="M350 105v4-1l-1-3h1Z"/>
  <path fill="#6A5645" d="M301 341v1l-2 1v-1l2-1Z"/>
  <path fill="#5A5753" d="M579 301h-4 4ZM589 301h-4 4ZM599 301h-4 4ZM567 301h-4 4Z"/>
  <path fill="#6B675D" d="M169 329v1h-3v-1h3Z"/>
  <path fill="#3F3E3E" d="M350 95v1l-1-2v-1h1v2Z"/>
  <path fill="#5A5753" d="m65 162-1 2v-2h1Z"/>
  <path fill="#3F3E3E" d="M350 98v4-4Z"/>
  <path fill="#5A5753" d="M66 132v1l-1-1h1Z"/>
  <path fill="#3F3E3E" d="M244 87v1h-1v-1h1Z"/>
  <path fill="#624937" d="M578 228a1 1 0 1 1-2 1 1 1 0 0 1 2-1Z"/>
  <path fill="#77756D" fill-rule="evenodd" d="m550 276-2 3v-36s0-2 3-3l-1 36Z" clip-rule="evenodd"/>
  <path fill="#6A5645" fill-rule="evenodd" d="m250 329-2 2-9-1-5-2-6-2h15l3 2 4 1ZM238 325h-11l-7-4-2-1-3-1 5 1 6 2 2 1h3v1h2l5 1Z" clip-rule="evenodd"/>
  <path fill="#676B66" fill-rule="evenodd" d="m217 325-35-1h-2l11-4 4-1 1 1h4l2 1 2-1 3 1 4 1 5 1 1 2Z" clip-rule="evenodd"/>
  <path fill="#6D6154" fill-rule="evenodd" d="m184 315-18-2-16 1c5 1 11 3 18 2l1 1 1-1 2 1 12-2ZM139 316h5l15 4h3l1 2h4l1 1-1 2-15-2c-4-1-13-7-13-7Z" clip-rule="evenodd"/>
  <path fill="#6B6256" fill-rule="evenodd" d="M274 47v3l9-5-7 2h-2Z" clip-rule="evenodd"/>
  <path fill="#5A5753" fill-rule="evenodd" d="m247 60-5-3-2 1-7-1s-5 0-6 2l-7 2h-2l-5 2 3 1 1 1s8 0 13-2l10-2 7-1ZM167 61l-1-1h-4l-2-1s-15 2-18 5l-2 2s2 2 5 1 10-5 13-4h3l1-1h3l2-1ZM66 171v16l-1-1v-12l1-3Z" clip-rule="evenodd"/>
  <path fill="#3F3E3E" fill-rule="evenodd" d="m202 91-1-4-3-3-6 1-36 2-20 3s-28 3-32 10l-5 4h-2v171s3 12 14 15c10 3 26 5 26 5l5 3 51 6c4 0 7-1 8-5l1-6V91Z" clip-rule="evenodd"/>
  <path fill="url(#C)" d="M192 235v16l-1 34-33-2h-30v-55c15 1 50 3 63-1l1 8Z"/>
  <path fill="#000" fill-rule="evenodd" d="m193 235 1 16c0 11 0 23-2 34l-1 2-33-2a243 243 0 0 0-31-1l-1-1v-55a2 2 0 0 1 2-2 257 257 0 0 0 64 0v1l1 8Zm-1 0-1-8c-13 4-48 2-63 1v55h30l33 2 1-34v-16Z" clip-rule="evenodd"/>
  <path fill="#151211" d="M133 272v6c-1-5-2-37 0-42v36ZM145 238a134 134 0 0 1 0 38v-11c-2-6-7-9 0-14v-13Z"/>
  <path fill="#5A5753" d="M145 253v8l-1-1-2-3 1-3 2-1Z"/>
  <path fill="#151211" d="m164 236-1 21 1 17-1 2c0-9-2-33 1-40Z"/>
  <path fill="#5A5753" d="M125 238v45c-10 6-22 9-32 1-5-3-9-9-15-9h-3l-1-25h3c8 0 13-11 18-16 6-7 21-7 30-7v11Z"/>
  <path fill="#000" fill-rule="evenodd" d="M127 238a967 967 0 0 1-1 47c-11 6-23 9-34 1l-7-6c-2-2-5-3-7-3h-4l-1-2v-25a2 2 0 0 1 2-2h2c3 0 5-2 7-4 4-3 7-9 9-12 3-3 7-4 12-5 7-2 15-2 20-2a2 2 0 0 1 2 2v11Zm-2 0v-11c-9 0-24 0-30 7-5 5-10 16-18 16h-3l1 25h3c6 0 10 6 15 9 10 8 22 5 32-1v-45Z" clip-rule="evenodd"/>
  <path fill="#060506" d="M108 253c0 5 1 17-1 25v-25c-1-5-2-12-1-17l2 17ZM118 269v-12l-1-21v-1c4 7 2 32 1 41v2-9ZM101 252c0 9 0 24-3 32l1-16v-33l2 17Z"/>
  <path fill="url(#D)" d="M125 220v5h-11l-15 3c-8 2-16 23-24 20l-1-8c1-17 15-22 29-21-5 1-8 2-12 6l-4 10c2-1 4-6 5-8 4-7 14-9 22-9l8 1 3 1Z"/>
  <path fill="#000" fill-rule="evenodd" d="m104 217 10-1a39 39 0 0 1 8 1l4 2 1 1v5l-2 2h-10l-15 3c-2 0-4 2-5 4l-9 10-5 5c-2 1-4 2-7 1v-1l-1-3-1-6c1-8 3-13 7-16 6-6 15-8 25-7Zm21 3-3-1-8-1c-8 0-18 2-22 9-1 2-3 7-5 8l4-10c4-4 7-5 12-6-14-1-28 4-29 21l1 8c8 3 16-18 24-20l15-3h11v-5Z" clip-rule="evenodd"/>
  <path fill="#77756D" d="M190 287c-1 3-3 5-5 6-13 7-41 1-55-2l-1-1-1-5c21-1 41 1 62 2Z"/>
  <path fill="#000" fill-rule="evenodd" d="M192 288c-1 3-4 5-6 6-5 3-13 4-22 4a171 171 0 0 1-36-6l-2-4v-3l2-2c21-1 41 1 62 2a2 2 0 0 1 2 3Zm-2-1c-21-1-41-3-62-2l1 5 1 1c14 3 42 9 55 2 2-1 4-3 5-6Z" clip-rule="evenodd"/>
  <path fill="#77756D" d="m190 225-1 1c-5 3-52 1-61 0l1-5c13-2 27-4 40-4 7 1 16 3 21 8Z"/>
  <path fill="#000" fill-rule="evenodd" d="M191 226v1h-1l-2 1-6 1a533 533 0 0 1-56-3l1-6 1-1c14-2 28-4 41-3 8 0 17 2 22 8v2Zm-1-1c-5-5-14-7-21-8-13 0-27 2-40 4l-1 5c9 1 56 3 61 0l1-1Z" clip-rule="evenodd"/>
  <path fill="#77756D" fill-rule="evenodd" d="M117 295c-7 3-14 4-21 0l-8-6c-1 3 6 7 8 8-10-1-19-1-21-13 0-3-1-5 1-7 4-1 11 4 13 7 7 7 16 8 25 6l7-2 5-3-4 7-5 3Z" clip-rule="evenodd"/>
  <path fill="#000" fill-rule="evenodd" d="m97 298-1 1-10-1c-4-1-7-3-9-5s-3-5-4-9v-4c0-2 0-3 2-4v-1c2 0 5 0 7 2 4 1 7 4 9 6 6 6 15 7 23 5l6-2 5-2a2 2 0 0 1 2 2c-1 3-1 5-4 7v1a18 18 0 0 1-5 3c-7 2-14 3-21 1Zm20-3 5-3 4-7-5 3-7 2c-9 2-18 1-25-6-2-3-9-8-13-7-2 2-1 4-1 7 2 12 11 12 21 13-2-1-9-5-8-8l8 6c7 4 14 3 21 0Z" clip-rule="evenodd"/>
  <path fill="url(#E)" d="M192 150v-16l-1-34-33 2h-30v55c15-1 50-3 63 1l1-8Z"/>
  <path fill="#000" fill-rule="evenodd" d="m193 150-1 8a2 2 0 0 1-2 1 257 257 0 0 0-63-1l-1-1v-55a2 2 0 0 1 2-2h30l33-2 1 2c2 11 2 23 2 34l-1 16Zm-1 0v-16l-1-34-33 2h-30v55c15-1 50-3 63 1l1-8Z" clip-rule="evenodd"/>
  <path fill="#151211" d="M133 113v-6c-1 5-2 37 0 42v-36ZM145 147a134 134 0 0 0 0-38v11c-2 6-7 9 0 14v13Z"/>
  <path fill="#5A5753" d="M145 132v-8l-1 1-2 3 1 3 2 1Z"/>
  <path fill="#151211" d="m164 149-1-21 1-17-1-2c0 9-2 33 1 40Z"/>
  <path fill="#5A5753" d="M125 147v-45c-10-6-22-9-32-1-5 3-9 9-15 9h-3l-1 25h3c8 0 13 11 18 16 6 7 21 7 30 7v-11Z"/>
  <path fill="#000" fill-rule="evenodd" d="M127 147v11a2 2 0 0 1-2 2c-5 0-13 0-20-2-5-1-9-2-12-5-2-3-5-9-9-12-2-2-4-4-7-4h-2a2 2 0 0 1-2-2v-25l1-2h4c2 0 5-1 7-3l7-6c11-8 23-5 34 1l1 2v45Zm-2 0v-45c-10-6-22-9-32-1-5 3-9 9-15 9h-3l-1 25h3c8 0 13 11 18 16 6 7 21 7 30 7v-11Z" clip-rule="evenodd"/>
  <path fill="#060506" d="M108 132c0-5 1-17-1-25v25c-1 5-2 12-1 17l2-17ZM118 116v12l-1 21v1c4-7 2-32 1-41v-2 9ZM101 133c0-9 0-24-3-32l1 16v33l2-17Z"/>
  <path fill="url(#F)" d="M125 165v-5h-11l-15-3c-8-2-16-23-24-20l-1 8c1 17 15 22 29 21-5-1-8-2-12-6l-4-10c2 1 4 6 5 8 4 7 14 9 22 9l8-1 3-1Z"/>
  <path fill="#000" fill-rule="evenodd" d="M104 168c-10 1-19-1-25-7-4-3-6-8-7-16l1-6 1-3v-1c3-1 5 0 7 1l5 5 9 10c1 2 3 4 5 4l15 3h10l2 2v5l-1 1-4 2-8 1-10-1Zm21-3v-5h-11l-15-3c-8-2-16-23-24-20l-1 8c1 17 15 22 29 21-5-1-8-2-12-6l-4-10c2 1 4 6 5 8 4 7 14 9 22 9l8-1 3-1Z" clip-rule="evenodd"/>
  <path fill="#77756D" d="M190 98c-1-3-3-5-5-6-13-7-41-1-55 2l-1 1-1 5c21 1 41-1 62-2Z"/>
  <path fill="#000" fill-rule="evenodd" d="M190 100c-21 1-41 3-62 2l-2-2v-3l2-4a4 4 0 0 1 2-1c8-2 22-5 34-5 9 0 17 1 22 4 2 1 5 3 6 6a2 2 0 0 1-2 3Zm0-2c-1-3-3-5-5-6-13-7-41-1-55 2l-1 1-1 5c21 1 41-1 62-2Z" clip-rule="evenodd"/>
  <path fill="#77756D" d="m190 160-1-1c-5-3-52-1-61 0l1 5c13 2 27 4 40 4 7-1 16-3 21-8Z"/>
  <path fill="#000" fill-rule="evenodd" d="M191 161c-5 6-14 8-22 8-13 1-27-1-41-3l-1-1-1-6 2-2a533 533 0 0 1 62 1h1v3Zm-1-1-1-1c-5-3-52-1-61 0l1 5c13 2 27 4 40 4 7-1 16-3 21-8Z" clip-rule="evenodd"/>
  <path fill="#77756D" fill-rule="evenodd" d="M117 90c-7-3-14-4-21 0l-8 6c-1-3 6-7 8-8-10 1-19 1-21 13 0 3-1 5 1 7 4 1 11-4 13-7 7-7 16-8 25-6l7 2 5 3-4-7-5-3Z" clip-rule="evenodd"/>
  <path fill="#000" fill-rule="evenodd" d="M97 87a32 32 0 0 1 21 1 18 18 0 0 1 5 4c3 2 3 4 4 7a2 2 0 0 1-2 2l-5-2-6-2c-8-2-17-1-23 5-2 2-5 5-9 6-2 2-5 2-7 2v-1c-2-1-2-2-2-4v-4c1-4 2-7 4-9s5-4 9-5l10-1 1 1Zm20 3c-7-3-14-4-21 0l-8 6c-1-3 6-7 8-8-10 1-19 1-21 13 0 3-1 5 1 7 4 1 11-4 13-7 7-7 16-8 25-6l7 2 5 3-4-7-5-3Z" clip-rule="evenodd"/>
  <path fill="#060506" fill-rule="evenodd" d="M202 174h-5l-4 1-1-1-8 1-14-1h-25v2h-23l-2 1-6-1H96v35l24-3h3l4 1 2-1h15l-1 2h41l8 1h10v-37Z" clip-rule="evenodd"/>
  <path fill="#6B6256" fill-rule="evenodd" d="M146 175h33l-1 1v2h2a2 2 0 0 0 0-2h4l4-1h4l1 1v2h3l-1 1v2l-2 3-1 1v3h-1l-2 2v1h1l1 1 1-1 1-1v15l-1 5h-3l-6-1h-38c2-1 3-2 3-4l1-10v-10l1 1h1l1-1v-2h-3l-3-8Zm47 7-2-1h-1l-1 2 3 1 1-2Zm-19 24-2-1-1 2 1 1h2v-2Zm-14-31-2 1-1 2 2 1 2-2-1-2Zm32 32-1-1h-2l-1 2 2 1 2-2Zm0-30-3-2-1 3 1 1 2-1 1-1Zm-43 14v2l3 1 1-2-2-2-2 1Zm23-14-3-2-1 2 1 2 2-1 1-1Zm11 29-2-1-1 3h3v-2Zm-30-7-2-1-1 1v2h2l1-2Zm11 7-2-1-1 2 1 1h2v-2Zm-12-29-2-1h-1l-1 2 3 1 1-2Zm41 21-2-1-1 1v2h2l1-2Zm-39 8-2-1h-1l-1 2 3 1 1-2Z" clip-rule="evenodd"/>
  <path fill="#6B675D" fill-rule="evenodd" d="M127 196Zm0 0Zm-9-19h1l2 1 1-1h7c-2 3-2 5-2 9l-2-1h-1v3h3v6h-2l-2 1v1a2 2 0 0 0 1 0l1 1 2-1a139 139 0 0 1 1 12h-11l-20 1v-32h18v3l2-1h1v-2Zm9 28-2-1-1 2 1 1h2v-2Zm-15 0-2-1-1 2 1 1h2v-2Zm7 0-1-1-2 2 2 2 1-2v-1Z" clip-rule="evenodd"/>
  <path fill="#585751" fill-rule="evenodd" d="m147 185-1 18-1 2-4 1-1-1a4 4 0 0 0-2 1h-1v1h1-8l-1-5v-19a39 39 0 0 1 1-5l1-1h4l1 2 3-1 1-1h-1 6l2 8Zm-2 18a2 2 0 1 0-3 0 2 2 0 0 0 3 0Zm-11-23a2 2 0 1 0-3 0 2 2 0 0 0 3 0Zm10-1a2 2 0 1 0-3 0 2 2 0 0 0 3 0Zm-10 26a2 2 0 1 0-3 0 2 2 0 0 0 3 0Zm12-20a2 2 0 1 0-3 0 2 2 0 0 0 3 0Zm0 13a2 2 0 1 0-3 0 2 2 0 0 0 3 0Zm-13-13a2 2 0 1 0-3 1 2 2 0 0 0 3-1Zm0 7a2 2 0 1 0-3 0 2 2 0 0 0 3 0Z" clip-rule="evenodd"/>
  <path fill="#5A5753" fill-rule="evenodd" d="M195 175h1l5-1v36h-6v-8l1-5-1-8v-4l1-4 2-6h-3Z" clip-rule="evenodd"/>
  <path fill="#D54C38" fill-rule="evenodd" d="M70 164s0 7 2 12c1 5 0 12-1 15v15l-4-17-1-19 3-7h1v1ZM70 224v-5l-2-7-1-1 1-3v-2l-2-5v22h1l3 1ZM76 164v18l-1 1-1-19h2Z" clip-rule="evenodd"/>
  <path fill="#272727" stroke="#000" stroke-width="3" d="M29 252c-2 2-4 2-5 1h-1l-1-1-1 1h-3l-2-1-2-1h-2l-3-1-2-2-2-1-1-1-2-3v-1a58 58 0 0 1 0-8v-89l1-4 1-1v-1l1-2 7-4h4l1-1a6 6 0 0 1 3-1h1l1 1v-1h6l1 1h1l1-1h2l2 2h5a19 19 0 0 1 5 3l2 1v3c1 1 2 1 2 3l1 3v85l-1 11-1 3-1 1v1l-2 1a23 23 0 0 1-6 3h-2l-2 1h-1v1h-5v-1Z"/>
  <path fill="#323232" stroke="#000" stroke-width="1.5" d="m45 141-6-2a108 108 0 0 0 0-4 17 17 0 0 1 6 3v1a7 7 0 0 0 0 2ZM7 141v-3l5-3a4 4 0 0 1 1 0 14 14 0 0 0 0 2v2a40 40 0 0 1-6 2ZM13 249h-1l-2-1-2-1-1-2H6l1-2h1l3 1h2v5Zm-6-4ZM38 249l1-4 6-2v3l-1 1a21 21 0 0 1-5 2h-1ZM27 251h-3a2 2 0 0 0 0-1v-1a45 45 0 0 0 0-5h3v3a46 46 0 0 0 0 4ZM27 140h-3v-7h3v4a94 94 0 0 1 0 3ZM20 251h-1l-1-1v-5h2v6ZM31 251v-6h2v4l1 1h-1l-1 1h-1ZM18 139a101 101 0 0 0 0-5 4 4 0 0 1 2-1 3 3 0 0 0 0 1v5h-2ZM31 138v-5l1 1h1v5h-2v-1ZM45 196h-4l-4-1v-3a20 20 0 0 1 0-2v-1h1l4-1a27 27 0 0 1 3 0 33 33 0 0 1 0 4 93 93 0 0 1 0 4ZM7 209l-1-4 1-2h5l1 1v3l-1 1h-2l-3 1ZM7 219v-6l5 1a4 4 0 0 1 1 0v4l-6 1ZM7 229v-1a33 33 0 0 1 0-5l5 1h1v4l-6 1ZM7 240v-7l5 1v1h1v3l-1 1h-2l-3 1ZM7 161v-1a29 29 0 0 1 0-5l4 1h2v4l-6 1ZM45 209l-3-1-3-1-1-1 1-2a38 38 0 0 0 3-1 15 15 0 0 1 3 0v6ZM45 151l-6-2-1-1 1-2 6-2v7ZM45 171a63 63 0 0 1-6-1v-4l3-1a12 12 0 0 1 3 0v6ZM45 219l-3-1h-3v-4l6-1a109 109 0 0 1 0 6ZM7 181a27 27 0 0 1 0-6l5 1 1 1v3l-6 1ZM45 182a35 35 0 0 1-6-2 47 47 0 0 1 0-3l3-1 3-1v7ZM45 229a32 32 0 0 1-6-1l-1-2a13 13 0 0 1 1-2l6-1v6ZM7 151v-7l4 1 2 1v3l-6 1v1ZM45 239h-3l-3-1-1-1 1-2 3-1 3-1v6ZM7 171v-2l-1-2v-1l1-1 4 1h2v4l-6 1ZM45 161a80 80 0 0 1-6-1v-1a14 14 0 0 1 0-3h2l1-1h3v6ZM19 184h-1v-10h2v9a8 8 0 0 1 0 1h-1ZM32 184h-1v-10h2v9a11 11 0 0 1 0 1h-1ZM26 184h-2v-10h3v10h-1ZM20 169h-2v-9h2v9ZM33 210h-2v-9l1-1 1 1a8 8 0 0 1 0 1v8ZM18 210v-9l1-1 1 1v9h-2ZM31 169v-9h2v9a21 21 0 0 1-2 0ZM20 238h-2v-9h2v3a58 58 0 0 1 0 6ZM27 170h-3v-9h3v9ZM31 238v-4a107 107 0 0 1 0-4v-1a10 10 0 0 1 2 0v9h-2ZM20 154v1a17 17 0 0 1-2 0v-9h2v8ZM24 209v-8l3-1v9h-3ZM31 155v-9h2v9a25 25 0 0 1-2 0ZM18 196a331 331 0 0 0 1-9 4 4 0 0 1 1 0v9h-2ZM31 192a290 290 0 0 0 0-4v-1h2v9h-2v-4ZM24 192a142 142 0 0 1 0-4h1l1-1a5 5 0 0 1 1 0v8h-3v-3ZM18 224v-7a25 25 0 0 0 2 0v1a41 41 0 0 1 0 6h-2ZM31 224v-7h2v7h-2ZM27 154h-3v-8h3v8ZM27 237h-3v-7h3v7ZM27 223h-3v-7h3v7ZM7 196v-1a44 44 0 0 1 0-7h1a43 43 0 0 1 7 2v5h-3l-3 1a22 22 0 0 1-2 0Z"/>
  <defs>
    <linearGradient id="a" x1="317" x2="324.4" y1="40" y2="30" gradientUnits="userSpaceOnUse">
      <stop stop-color="#6F6E6D"/>
      <stop offset="1" stop-color="#8D8D8F"/>
    </linearGradient>
    <linearGradient id="b" x1="281.4" x2="280.8" y1="40" y2="52.5" gradientUnits="userSpaceOnUse">
      <stop stop-color="#6E6E6E"/>
      <stop offset="1" stop-color="#8C8A8A"/>
    </linearGradient>
    <linearGradient id="c" x1="272.7" x2="338.9" y1="249.1" y2="255.8" gradientUnits="userSpaceOnUse">
      <stop stop-color="#5C4A3C"/>
      <stop offset="1" stop-color="#565A59"/>
    </linearGradient>
    <linearGradient id="d" x1="269.4" x2="330.4" y1="147.1" y2="112.1" gradientUnits="userSpaceOnUse">
      <stop stop-color="#5F4D3B"/>
      <stop offset="1" stop-color="#545D60"/>
    </linearGradient>
    <linearGradient id="e" x1="249.4" x2="171.6" y1="254.7" y2="300.2" gradientUnits="userSpaceOnUse">
      <stop stop-color="#6A5B4D"/>
      <stop offset="1" stop-color="#6A6E6C"/>
    </linearGradient>
    <linearGradient id="f" x1="71.7" x2="62.4" y1="301.9" y2="338.6" gradientUnits="userSpaceOnUse">
      <stop stop-color="#665647"/>
      <stop offset="1" stop-color="#6D685E"/>
    </linearGradient>
    <linearGradient id="g" x1="25" x2="72.9" y1="290.6" y2="261" gradientUnits="userSpaceOnUse">
      <stop stop-color="#625548"/>
      <stop offset="1" stop-color="#727167"/>
    </linearGradient>
    <linearGradient id="h" x1="213.9" x2="174.1" y1="353" y2="340.6" gradientUnits="userSpaceOnUse">
      <stop stop-color="#685341"/>
      <stop offset="1" stop-color="#676C68"/>
    </linearGradient>
    <linearGradient id="i" x1="667.8" x2="627.9" y1="134.1" y2="112.7" gradientUnits="userSpaceOnUse">
      <stop stop-color="#674633"/>
      <stop offset="1" stop-color="#6D7B76"/>
    </linearGradient>
    <linearGradient id="j" x1="541.4" x2="517" y1="298.2" y2="258.2" gradientUnits="userSpaceOnUse">
      <stop stop-color="#725D4B"/>
      <stop offset="1" stop-color="#67685F"/>
    </linearGradient>
    <linearGradient id="k" x1="675.2" x2="654.3" y1="299.6" y2="295.6" gradientUnits="userSpaceOnUse">
      <stop stop-color="#725943"/>
      <stop offset="1" stop-color="#6F7069"/>
    </linearGradient>
    <linearGradient id="l" x1="207.6" x2="237.6" y1="27.6" y2="58.6" gradientUnits="userSpaceOnUse">
      <stop stop-color="#70523B"/>
      <stop offset="1" stop-color="#6E7977"/>
    </linearGradient>
    <linearGradient id="m" x1="243.7" x2="236.6" y1="238.1" y2="217.5" gradientUnits="userSpaceOnUse">
      <stop stop-color="#786C57"/>
      <stop offset="1" stop-color="#7C8178"/>
    </linearGradient>
    <linearGradient id="n" x1="266" x2="223.4" y1="146.4" y2="158.5" gradientUnits="userSpaceOnUse">
      <stop stop-color="#7C6E5C"/>
      <stop offset="1" stop-color="#7C7B6C"/>
    </linearGradient>
    <linearGradient id="o" x1="401.9" x2="436.3" y1="354.2" y2="324.4" gradientUnits="userSpaceOnUse">
      <stop stop-color="#716151"/>
      <stop offset="1" stop-color="#71736E"/>
    </linearGradient>
    <linearGradient id="p" x1="57" x2="79.7" y1="47.1" y2="52.6" gradientUnits="userSpaceOnUse">
      <stop stop-color="#755D49"/>
      <stop offset="1" stop-color="#6B685F"/>
    </linearGradient>
    <linearGradient id="q" x1="672.5" x2="658" y1="248.4" y2="249.4" gradientUnits="userSpaceOnUse">
      <stop stop-color="#6F5D4D"/>
      <stop offset="1" stop-color="#6A675E"/>
    </linearGradient>
    <linearGradient id="r" x1="362.5" x2="350.1" y1="259.1" y2="261.8" gradientUnits="userSpaceOnUse">
      <stop stop-color="#715B49"/>
      <stop offset="1" stop-color="#696557"/>
    </linearGradient>
    <linearGradient id="s" x1="99.7" x2="78.3" y1="44.7" y2="48.2" gradientUnits="userSpaceOnUse">
      <stop stop-color="#725A47"/>
      <stop offset="1" stop-color="#696B61"/>
    </linearGradient>
    <linearGradient id="t" x1="298" x2="298.2" y1="60.7" y2="69.6" gradientUnits="userSpaceOnUse">
      <stop stop-color="#6B5540"/>
      <stop offset="1" stop-color="#6B6962"/>
    </linearGradient>
    <linearGradient id="u" x1="661.9" x2="646" y1="240.8" y2="251.8" gradientUnits="userSpaceOnUse">
      <stop stop-color="#665B4F"/>
      <stop offset="1" stop-color="#6B6F6B"/>
    </linearGradient>
    <linearGradient id="v" x1="396.6" x2="405.8" y1="204.1" y2="205.2" gradientUnits="userSpaceOnUse">
      <stop stop-color="#6F5447"/>
      <stop offset="1" stop-color="#6D6A60"/>
    </linearGradient>
    <linearGradient id="w" x1="294.9" x2="295" y1="314.3" y2="323.4" gradientUnits="userSpaceOnUse">
      <stop stop-color="#484038"/>
      <stop offset="1" stop-color="#7E6A5A"/>
    </linearGradient>
    <linearGradient id="x" x1="575.5" x2="567.1" y1="297.9" y2="287.5" gradientUnits="userSpaceOnUse">
      <stop stop-color="#4C4948"/>
      <stop offset="1" stop-color="#757575"/>
    </linearGradient>
    <linearGradient id="y" x1="577" x2="576.8" y1="300.9" y2="303.3" gradientUnits="userSpaceOnUse">
      <stop stop-color="#575655"/>
      <stop offset="1" stop-color="#6D6D6B"/>
    </linearGradient>
    <linearGradient id="z" x1="587.1" x2="586.8" y1="300.9" y2="303.3" gradientUnits="userSpaceOnUse">
      <stop stop-color="#575655"/>
      <stop offset="1" stop-color="#6D6D6B"/>
    </linearGradient>
    <linearGradient id="A" x1="597.3" x2="597.1" y1="300.9" y2="303.3" gradientUnits="userSpaceOnUse">
      <stop stop-color="#575655"/>
      <stop offset="1" stop-color="#6D6D6B"/>
    </linearGradient>
    <linearGradient id="B" x1="564.8" x2="564.6" y1="300.9" y2="303.3" gradientUnits="userSpaceOnUse">
      <stop stop-color="#575655"/>
      <stop offset="1" stop-color="#6D6D6B"/>
    </linearGradient>
    <linearGradient id="C" x1="126.9" x2="193.2" y1="251.6" y2="258.3" gradientUnits="userSpaceOnUse">
      <stop stop-color="#5C4A3C"/>
      <stop offset="1" stop-color="#565A59"/>
    </linearGradient>
    <linearGradient id="D" x1="97.9" x2="90.8" y1="240.6" y2="220" gradientUnits="userSpaceOnUse">
      <stop stop-color="#786C57"/>
      <stop offset="1" stop-color="#7C8178"/>
    </linearGradient>
    <linearGradient id="E" x1="126.9" x2="193.2" y1="133.4" y2="126.7" gradientUnits="userSpaceOnUse">
      <stop stop-color="#5C4A3C"/>
      <stop offset="1" stop-color="#565A59"/>
    </linearGradient>
    <linearGradient id="F" x1="97.9" x2="90.8" y1="144.4" y2="165" gradientUnits="userSpaceOnUse">
      <stop stop-color="#786C57"/>
      <stop offset="1" stop-color="#7C8178"/>
    </linearGradient>
  </defs>
</svg>
