<svg xmlns="http://www.w3.org/2000/svg" width="681" height="390" fill="none"><path fill="#050303" fill-rule="evenodd" d="m365 35-7-15c-1-4-5-12-3-16 1-2 5-3 7-4h2c11 3 17 22 20 31 0 1-1 5 1 6 15 2 32-1 47 2 4 6 4 8 4 16l25-2c19-5 47-22 65-23l27 1 32 1 30 2 16 1c5 0 19 4 19 11l-2 2 6 3 5 9 8 1-1 57c3 0 9-1 11 3-1 3-6 3-8 3 5 6 7 8 4 16l3 10-1 5-1 9c2 1 3 1 3 4l4 3v4l-3 5v32l3 4v4c-3 3-6 3-6 7 1 7 4 10-1 16-1 8 1 12-3 19l-5 5c3-1 10-1 11 2-1 4-8 3-12 3 1 18 0 39 2 56l-8 2c-4 6-3 8-11 11v1l3 1v1l-6 7c-11 5-22 5-34 5a2934 2934 0 0 1-69 3c-10 1-20 2-30-2l-34-14c-8-3-16-7-24-6l-6-1-12-1c0 7 0 10-4 15-9 2-15 2-24 2h-24v6c-4 10-7 20-13 29-4 6-17 3-16-4 1-9 5-21 10-28 2-2 9 1 12-1v-1l-9-1-24 8c-3 1-3-6-3-7h-28l-29 1c-11 0-17 0-28-3-3-10-4-17 1-27-15 15-29 27-48 37-10 4-13 5-24 5-17 0-34 0-51-2l-22-2c-17-3-26-9-28-26-30-1-43 5-41-33h-3c-3-1-3-3-3-5 0-7-2-34 2-38l4-1v-12c-1-5 1-30-1-32l-2-1c-2 2-2-41 0-39h2l1-45-4 1-2-3c-1-4-1-36 1-39l2-1h2l1 1V77c0-12 1-23 16-23h25c1-5 3-13 7-17 14-13 49-11 67-13 12 0 30-2 41 1 15 5 33 18 46 29l12 13c-4-10-5-18-1-28 15-4 24-3 39-3l46 1c0-3 0-5 2-7 2-1 17 4 22 6 2 2 7 2 7 2h2l5-1-4-2h-2l-4 1-4-1Z" clip-rule="evenodd"/><path fill="#574C3C" fill-rule="evenodd" d="m620 346 15-1 13-1 1 1c-5 12-43 9-54 10l-49 3h-24c-3 0-23-6-25-8l1-1-24-8 2-1-5-1-11-3 6-4h20l30-1 102-2h25l7 1h6l-3 7-26 5-7 2-15 2-3 1h3l15-1Z" clip-rule="evenodd"/><path fill="#130C09" d="m585 332-1 1h-9l-35 2-14 1 14-2 27-1 18-1Z"/><path fill="#271B14" d="M523 340h-34 34ZM579 342v1h-32l10-1h22ZM563 348v1h-24l24-1ZM614 340v1h-24l24-1ZM580 352v1h-14l14-1Z"/><path fill="#574C3C" fill-rule="evenodd" d="M459 129v-8h3l2-2c5-2 11-2 16-3 3-1 3-11 1-12-5-2-11-1-17-2l-1-3h-4v-5h52-23l-26-1h-1c-3 0-3-1-3-4l1-4h58l-25-1h-33c-1-2-2-14-1-16-1-2-3-6-2-8 3-2 12 7 11 10l-1 3 3 1c3 0 8 0 9-3-1-3-6-6-8-11l32 4 25 3 76 15 9 2h-58l-20 1h74l11 1-2 12v1l1 1c5 3 9 4 10 0h9v-1h-8l2-8 14 7c4 3 5 7 5 12l-13 3-8 1h-4l-2 1h-15l-14 1 9 1 12 2c10 0 21 0 31 2 2 2 4 3 4 6v2H459Zm14 1h177v44l-47 1h47v54h-14l-11 1-9 1 22 1 12 1v6H459v-23l-1-1 1-20h-1l1-20v-28h3l20-3h15l-15-1-23-2v-11h14Z" clip-rule="evenodd"/><path fill="#271B14" d="M599 139c-3 2-36-1-41-1h-13c3-2 27 0 32 0l22 1Z"/><path fill="#130C09" d="M638 134h-1l-17 1-25 1 1-1c14 0 28-2 42-1Z"/><path fill="url(#a)" fill-rule="evenodd" d="m618 97 3-13 7 2 3 2-2 6-1 3-1 5-5-1-4-3v-1Zm8 0a2 2 0 1 0-4-1 2 2 0 0 0 4 1Z" clip-rule="evenodd"/><path fill="#7B7266" fill-rule="evenodd" d="M650 105c0-4-1-5-4-8l-13-7c-2-1 0-3-3-4l-5-2 6-1c3 2 2 4 7 7l9 5c3 2 8 6 6 10l-2 3-1-3Z" clip-rule="evenodd"/><path fill="#574C3C" d="m639 89 8 3v2l-8-5Z"/><path fill="#3D352E" d="m641 115-3 4-29-2h12l4-2h16Z"/><path fill="#473D34" fill-rule="evenodd" d="M655 133c-2 3 1 7-1 9l-2-1c-2-3-1-10-1-14l4 6Zm0 0 3 3-2 3v1l-1-7Z" clip-rule="evenodd"/><path fill="#515B5A" d="m650 117-1 3h-1c-3-2-3-2-4-5l5-1 1 3Z"/><path fill="#050303" d="M652 141h-1c-2-2 0-9-1-12v-2h1c0 4-1 11 1 14Z"/><path fill="#99836B" d="M629 82c-2 1-7 2-8 1l1-1c2-2 5 0 7 0Z"/><path fill="#4D4842" d="m654 113-3 4 1-7 2 3Z"/><path fill="#99836B" d="m621 81-1 2-1 1v-1l2-2Z"/><path fill="#3D352E" d="M645 118v1h-3l-1-1v-1l3-2 1 3Z"/><path fill="#515B5A" d="m650 111-1 1-11 2 12-3Z"/><path fill="#1B1511" d="M617 98v1a1389 1389 0 0 1 0-1Z"/><path fill="#3D352E" d="M462 84h-3c-1-2-2-14-1-16l4 16ZM459 85h2c1 2 2 7 1 8h-1c-3 0-3-1-3-4l1-4Z"/><path fill="#473D34" d="M463 129h-4v-8h3l1 8Z"/><path fill="#3D352E" d="M463 94v5h-4v-5h4Z"/><path fill="#050303" d="M638 107H485l13-1h27l113 1Z"/><path fill="#271B14" d="M554 82v1l-48-3v-1h3l17 1 28 2Z"/><path fill="#130C09" d="M530 195h119l-119 1v8c6 6-5 5-7 5v-4c3-2 2-6 2-9h-52l-14-1h-1 67v-7l-2-2v-4c2-1 11-2 9 3l-2 2v8Z"/><path fill="#99836B" d="M529 186v18h-2v-18h2ZM531 205l-1 3h-6v-3h7ZM531 185l-1-2-6-1v3h7Z"/><path fill="#1B1511" d="M650 151H466h184Z"/><path fill="#130C09" d="M461 174h123l-29 1h-96v-1h2Z"/><path fill="#3D352E" d="M462 151v1l-1 22h-2v-27h3v4Z"/><path fill="#130C09" d="M463 216h102-106 4Z"/><path fill="#3D352E" d="m463 216-2 1v22h-2v-23h4ZM473 196h-12v19l2 1h-4l-1-1 1-20 14 1Z"/><path fill="#130C09" d="M650 216h-78 78Z"/><path fill="#3D352E" d="M461 175v20h-3l1-20h2Z"/><path fill="#1B1511" d="m625 230-9 1-3-1h12Z"/><path fill="#292822" d="M341 288v8l-11 5h-90l9-1c7-1 10-2 14-8l2 2c2 2 8 2 11 3l12 2c11 1 26 2 36-3 3-2 5-5 6-9 2-6 1-20 1-28l-1-29-2-5c-2-4-8-6-12-7-17-5-28 0-43 0l-9 2c-2-2-4-2-7-3-6-1-24 0-31 1-6 2-11 5-14 11-2 2-2 5-3 8v24c0 9-1 20 2 29 0 3 2 5 5 7 5 3 12 3 17 4h6-32l-1-1v-86l135 1v3l-4 11c-1 5 1 10 4 15v24h-1v1c-2 2-3 7-3 11 0 3 2 5 4 8Z"/><path fill="#36352C" d="M329 259c0 9 1 19-1 28l-25-2-38-1v-55c22 0 41 3 63-1 2 10 1 21 1 31Z"/><path fill="#050303" d="m271 236-1 11v34c-1-12-2-24-1-36l1-9h1ZM301 238v38c-1-5-2-35 0-38Z"/><path fill="#130C09" d="m283 249-1 29v-39l1 10Z"/><path fill="#36352C" d="M262 247v38l-11 4c-4 1-8 2-12 1-11-2-14-11-23-13l-5-1v-25h4c6-1 10-9 14-14 8-11 21-7 33-9v19Z"/><path fill="#050303" d="M256 248c1 5 0 29-2 32a160 160 0 0 0 0-35l-1-9h1l2 12ZM245 257c0 7 0 17-2 23v-6l1-14c0-8-2-15-1-23 2 6 1 14 2 20ZM237 259c1 7 1 16-1 23v-23c0-8-2-16-1-24 2 6 2 17 2 24Z"/><path fill="#36352C" d="M327 289c0 2-3 4-5 6-12 6-42 1-55-3l-2-3v-2c4-3 54 1 62 2ZM327 226l-7 2c-19 2-37 0-55-1v-5h1c4-2 8-2 12-2 10-1 19-3 28-2 8 1 16 2 21 8ZM236 220h2-6c-5 0-10 2-14 5-5 4-7 9-8 15 0 2-1 7 1 9l2 1c2 0 5-3 7-5l1-7c3-9 7-13 15-18Z"/><path fill="#36352C" d="m262 222-4-2c-7-3-17 0-23 3-8 4-11 10-14 18v3l7-8c8-10 22-9 34-10v-4ZM262 289l-1-1-6 3-7 1c-11 1-18-3-26-10l1 4 2 4c3 4 8 8 14 9 5 1 13 0 18-3l5-7Z"/><path fill="#36352C" d="m233 299-3-2-4-3c-3-3-4-7-5-12-3-3-5-4-10-4 0 5 0 11 4 15 4 5 12 5 18 6Z"/><path fill="#B6A588" d="m291 298-10-2 4-2c-3 1-8 3-11 2l-1-1 1-1 6-4 2-1c-1-1-1-2-3-2 4-1 5-3 6-5l-4-5 7-5h1c1-1 3-1 4-4l-3-2 6-2h-1v-1c2 0 5 0 5-3 0-2-2-3-4-4h5c4-1 19-3 18-8l-4-3h6c3-1 8-1 8-5h1c2 1-1 8 1 10v1h-1l-6 4-8 3-2 1h2l14-7c0 8-3 21 1 28 0 3-3 13-5 15l-14 4-19-1 19-3-9 1c-3 0-10 0-12 2Zm16-23 2 2c-5 3-1 8 3 9l5-1c3-2 3-5 5-7 1-2 2-2 0-4 1-1 3-3 2-5-3-1-15 4-17 6Zm-4 9-6-2-8 6c1 1 4 3 6 2l2-1c2-3 5-3 6-5Zm23-3-12 8c3-1 11-5 12-8Zm-31-7-7 2v5l2-1 1-2 4-3v-1Zm9-10-4 1-1 1c2 0 4 0 5-2Zm6 2c-2 0-5 1-7 3l-2 2 1 2h3c2-1 4-3 5-6v-1Z"/><path fill="#000" fill-rule="evenodd" d="m332 252-1 17 1 10v1l-3 12-3 4a67 67 0 0 1-14 5l-14-1-5-1h-3l-9-1-1-1h-7l-1-1v-1l1-2 1-1 3-1 2-2 1-1h-1a1 1 0 0 1 0-3c2 0 3-1 4-3l-1-3-2-1-1-1 1-1 1-1 7-4 2-1 1-1-1-1a1 1 0 0 1 0-3l3-1 1-1 1-1 2-1 2-1-2-1-2-2a1 1 0 0 1 1-2l5-1c2 0 10-1 15-4l2-1-4-3a1 1 0 0 1 1-2l6-1 5-1 2-2 1-1h2v1h1v9l1 1v1l-1 1Zm-41 46c2-2 9-2 12-2l9-1-19 3 19 1 14-4c2-2 5-12 5-15-4-7-1-20-1-28l-14 7h-2l2-1 8-3 6-4h1v-1c-2-2 1-9-1-10h-1c0 4-5 4-8 5h-6l4 3c1 5-14 7-18 8h-5c2 1 4 2 4 4 0 3-3 3-5 3v1h1l-6 2 3 2c-1 3-3 3-4 4h-1l-7 5 4 5c-1 2-2 4-6 5 2 0 2 1 3 2l-2 1-6 4-1 1 1 1c3 1 8-1 11-2l-4 2 10 2Zm4-24v1l-4 3-1 2-2 1v-5l7-2Zm-4 2-2 1v2l1-2h1v-1Zm12 8c-1 2-4 2-6 5l-2 1c-2 1-5-1-6-2l8-6 6 2Zm-2 0h-2l-2-1-6 5 2 1h1l2-1 4-3 1-1Zm25-3a208 208 0 0 1 0 0Zm-16-15v1c-1 3-3 5-5 6h-3l-1-2 2-2c2-2 5-3 7-3Zm-1 1-5 3-1 1h2l4-4Zm-2 8c2-2 14-7 17-6 1 2-1 4-2 5 2 2 1 2 0 4-2 2-2 5-5 7l-5 1c-4-1-8-6-3-9l-2-2Zm2 0 1 1a1 1 0 0 1-1 3l-1 1 1 2 3 2c1 1 3 0 4-1 3-1 3-3 5-6v-1h1l-1-1v-2l2-2h-1l-5 1a43 43 0 0 0-8 3Zm-5-11c-1 2-3 2-5 2l1-1 4-1Z" clip-rule="evenodd"/><path fill="#574C3C" d="M650 239v23l-1 21h-84l-9 1h94l-1 1c-1 7-11 11-18 15-2-11-3-16-15-9 1 3 4 12 2 14H459l-1-4c0-3 0-4 4-4h26l23-1h-52v-5h2c2 0 2-1 2-2l19-3v-11l-18-4-2-1h-3v-21h3l8-1h1l12-1h13l-13-1-21-2c-2 0-3 0-4-2 0-3 2-2 4-2h17l65-1h106Z"/><path fill="#130C09" d="m462 261 132-1 37 1h18-190 3Z"/><path fill="#473D34" d="M462 249v12h-3v-12h3Z"/><path fill="#443C31" d="M477 305h-18l-1-4c0-3 0-4 4-4v7l15 1Z"/><path fill="#473D34" d="M462 261v9h-3v-9h3Z"/><path fill="#3D352E" d="M463 296h-4v-5h2v4l2 1Z"/><path fill="#473D34" d="M462 240v4c-2 0-3 0-4-2 0-3 2-2 4-2Z"/><path fill="#1B1511" d="m536 283-16 1h-36l1-1h51Z"/><path fill="#271B14" d="m558 274-9 1-25-1-28-1h8l18 1h36Z"/><path fill="#1B1511" d="M601 251h-1l-29 1c-9 0-18 2-27 1l14-1 12-1h31ZM647 271h-1l-43 1c1-1 38-2 44-1ZM638 256c-1 2-36-1-41-1l3-1 18 1 20 1Z"/><path fill="#3D352E" d="M600 273v1h-10c2-2 8-1 10-1Z"/><path fill="#574C3C" fill-rule="evenodd" d="M420 67h-15v-3l1-4h36l-2 3-2 4-4 1c-3 3 0 7 4 7s4-6 6-8c1-2 7-8 9-7 3 4 5 19 4 23l-3 1c-7 0-23-1-29 1h32v16l-18 3c-2 1 0 9 0 11l9 2 9 2v30l-3 1h-23l24 1h2v78h-3l-21 1 21-1h3v11h-27l23 1h4v26h-4l-26-1 26 1 4 1v3l-17 4c-2 3 0 6-2 8h-31v-22h48-2l-33-1-13 1-1-4 25-1 8-1h-7c-9 0-17 0-26 2v-18h20l-20-1 1-6h9-10v-80l22-1h-22l1-17 23 1h9c-8-1-23 0-32-2v-3a770 770 0 0 0 0-1v-22h25l-9-1h-16V79h25l-25-1-1-5-1-5 15-1Zm28 103-2-1h-30l-3 1v3l2 1h31l2-2v-2Zm0-8c-5-2-27-1-34-1l-2 4c3 2 30 2 34 1l2-1v-3Zm0 31-2-1h-27l-6 2-1 2c4 2 30 2 34 1l2-1v-3Zm0-7-3-2-32 1-1 3 1 1 17 1 18-1v-3Zm0 23-2-1h-30l-3 1-1 3 2 1a284 284 0 0 0 34-1v-3Zm0-30-1-2h-33l-2 3 3 1 32 1 1-3Zm0 39a113 113 0 0 0-35-1l-1 3c4 2 30 2 34 1l2-1v-2Zm0-17c-3-2-30-1-34 0l-1 2v1l2 1a307 307 0 0 0 32-1l1-3Z" clip-rule="evenodd"/><path fill="#3D352E" d="M457 268v3l-17 4h-3c3-4 11-4 15-6l1-2 4 1Z"/><path fill="#473D34" d="M440 275c-2 3 0 6-2 8h-2l1-8h3Z"/><path fill="#3D352E" d="M455 151h2v78h-3v-18c-1-20-1-40 1-60ZM442 60l-2 3-26 1h-9l1-4h36ZM457 241v26h-4v-6h2-2v-20h4ZM444 67c1-2 7-8 9-7 3 4 5 19 4 23l-3 1-3-19-7 2Z"/><path fill="#3D352E" fill-rule="evenodd" d="m437 102 17-3V88h2l-2-1v-2h3v16l-18 3c-2 1 0 9 0 11l9 2 9 2v30l-3 1 1-3v-1s0-25-3-26h-1l-3-1-10-2c-3-4-3-8-3-14l2-1Z" clip-rule="evenodd"/><path fill="#3D352E" d="M457 229v11h-4l1-11h3Z"/><path fill="#1B1511" d="m454 87 2 1h-2l-18 1 18-2Z"/><path fill="#3D352E" d="m447 210-2 2c-2 1-29 1-31-1l1-1c3-2 29-1 32 0ZM447 171l-1 1c-5 2-26 1-32 1v-1l1-1h32ZM446 218l-1 2c-4 2-26 1-32-1l1-1h1a177 177 0 0 1 31 0ZM446 163l-1 2h-31v-2h32ZM447 186l-1 2h-33l1-2c3-2 30-1 33 0ZM447 194l-1 2a186 186 0 0 1-33-1l1-1c3-1 30-2 33 0ZM447 178l-1 1-1 1h-32l3-2h31ZM447 202l-1 1c-4 2-28 2-32 0v-1h1c4-1 28-2 32 0Z"/><path fill="#130C09" d="M431 234v1h-18c2-2 15-1 18-1Z"/><path fill="#3D352E" d="m210 67-15 5h-8l-20-1-13 1h-28c-11 0-20-5-30-9l39-1h62c4 0 9 3 13 5ZM200 73s3 5 0 10h-10l-29-1h-13l-16 1h-13c-2-2-3-7-1-10h82ZM200 317s3-5 0-10h-10l-29 1h-13l-16-1h-13c-2 2-3 7-1 10h82Z"/><path fill="#574C3C" d="m117 77 1-4h82l1 4h-8l-31-1-15 1h-30ZM117 313l1 4h82l1-4h-8l-31 1-15-1h-30ZM656 58l1 1-8 1-23 1-55-1-24-1h-15l-35-1h-31l-6-4 6-1c11-5 23-2 34-2h3l19-1h-49l23-9 22 2 17-1 13 1-13-1c-9 0-18 1-26-1h-8l-3-1c8-3 18-8 26-8h21l40 2h10l17 1c9 0 30 1 36 9l1 2-13 1-13 1 10 2c4 1 19 1 21 3v2l2 3Z"/><path fill="#3D352E" d="m656 58 1 1-8 1-23 1-55-1-24-1h-15l-35-1h-31l-6-4 6-1c11-5 23-2 34-2h3l-7 1-5 1 22 1h15l54 3c11 1 20 0 32-1h16l8 1a632 632 0 0 0 18 1Z"/><path fill="#130C09" d="M582 57v1h-10l-47-4h-12 15l54 3ZM630 56l-1 1h-15v-1h16Z"/><path fill="#3D352E" d="m545 32-14 2-22 7h-8l-3-1c8-3 18-8 26-8h21Z"/><path fill="#473D34" d="M479 50v-1c7-1 15 1 21-1l14 2h-35Z"/><path fill="#271B14" d="M589 42h-1c-1 1-35-4-39-4l-23-1h7l24 1 32 4ZM579 48h-11l-21-1h8l24 1ZM198 182l-1 1h-10l-22-1 1-1 7 1h25ZM615 50c-4 1-19 0-23-1 1-1 20 1 23 1Z"/><path fill="#515B5A" fill-rule="evenodd" d="M375 265v42l-9-1h-5c5-4 6-8 0-12v-27c7-6 5-10 0-16v-14l5 7 9 16 1 1-1 4Zm2-3 9 14-1 4-2 8-1 7v5c3 0 5-14 6-17l1 3 2 3c0 11 1 28-1 38-3 4-8 5-13 7l-1-13v-55l1-2v-2Zm-12 62-3-5 1-1 12 1v4l-10 1Zm-1-8-1-8h8l4 1v8l-11-1Z" clip-rule="evenodd"/><path fill="#646D6B" d="m376 332-1 2v1l-8 3c0-4 0-10-2-13h10v2l1 5Z"/><path fill="#7A8583" d="m386 276-1 4c-2-3-8-12-8-15v-3l9 14Z"/><path fill="#7B7266" d="m364 325-2 4c-4 5-23 7-22 0l1-1 1 1h2c5 1 12 0 16-3l1-6c2 1 2 3 3 5Z"/><path fill="#7B7266" fill-rule="evenodd" d="M340 317v-3l3 1c7 3 18-2 20-1v1l-4 4c-4 2-10 2-15 1l-4-3Z" clip-rule="evenodd"/><path fill="#7B7266" d="M344 311h1c3 1 9 0 12-1l4-3 2 6h-3c-5 1-10 3-15 1-2 0-4-1-5-3h4Z"/><path fill="#574C3C" d="M356 321v6l-10 2-2-1v-7h12Z"/><path fill="#646D6B" fill-rule="evenodd" d="m364 329 1-3 1 4 1 8-4 1c-2-4-1-4-1-8l2-2Z" clip-rule="evenodd"/><path fill="#473D34" d="M360 321v3l-2 2v-5h2Z"/><path fill="#7B7266" fill-rule="evenodd" d="m357 249 2 2c5 4 9 10 2 14 0-4 0-6-3-9-3-4-9-7-13-10-4-4-7-10-7-16l3-9c2 4-2 10 2 16 3 5 9 9 14 12Z" clip-rule="evenodd"/><path fill="#050303" d="m356 262 1-6 1 1h-1v35l-1-1v-29Z"/><path fill="#7A8583" d="m376 261-1 3-7-12-7-12v-3l5 7 9 16 1 1Z"/><path fill="#36352C" d="M317 103c-6 10-5 24-5 36l1 9 3 10-29 1-17 1h-5v-55h26l26-2Z"/><path fill="#050303" d="m271 108-1 14v32c-2-10-2-27-1-38 0-2 0-6 2-8Z"/><path fill="#130C09" d="M283 122c0 10 1 20-1 30v-39l1 9Z"/><path fill="#050303" d="M301 112v39l-1-20v-18l1-1Z"/><path fill="#3D352E" d="M73 64c-6 7-6 17-6 26-4 2-7 4-9 8l-1 9-1 25v19l2 6c1 4 5 8 9 11v54c-4 2-8 6-10 11-2 8-1 17-1 25l1 27c1 3 1 6 3 8 1 3 4 4 7 6v4c1 8 1 16 4 23-3 0-13 1-16-1-2-3-3-24-4-29l1-37v-58l-1-73 1-19-1-12a238 238 0 0 1 4-32l18-1Z"/><path fill="#36352C" d="M262 121c2 14 0 27 0 40-9-1-20 1-28-4l-5-5c-3-4-6-9-10-12-3-2-5-3-8-3v-24c10 1 16-10 24-13 6-2 13-2 19 0l8 4v17Z"/><path fill="#050303" d="M256 125c1 11 1 21-3 31l2-18c0-11-2-21-1-31 2 6 2 12 2 18ZM245 119c0 9 1 27-3 35l1-11 1-15-1-21 2 12ZM237 122c1 5 0 26-2 29-1-3 1-13 1-16v-30l1 17ZM84 122c1 9 0 24-2 33-1-6 0-11 1-17v-33l1 17Z"/><path fill="#6E7162" fill-rule="evenodd" d="M371 100v-8c1-3 5-3 8-3h12v63l-3-2-1 8v13l-15-1c-2-2-1-23-1-27v-43Z" clip-rule="evenodd"/><path fill="#22201D" d="M361 180v-5c3 1 3 0 6 3v12l-2-3v-5l-2-2h-2Zm26-12v3l-15-1c-2-2-1-23-1-27l15 25v2l1-2Zm-21-15 3 1v19c-3 2-4 2-8 2v-23l5 1Z"/><path fill="#6E7162" d="M387 168v3l-15-1c-2-2-1-23-1-27l15 25v2l1-2Z"/><path fill="#515B5A" d="M369 154v19c-3 2-4 2-8 2v-23l5 1 3 1ZM361 180v-4c3 1 3-1 6 3v11l-2-3v-5l-2-2h-2ZM361 210v4c3 0 3 1 6-2v-12l-2 1v7l-2 2h-2Z"/><path fill="#8E958D" fill-rule="evenodd" d="m371 93 20 34v1l-1 6-1-2-18-31v-8Z" clip-rule="evenodd"/><path fill="#515B5A" fill-rule="evenodd" d="m361 97 1-1c2-1 2-2 3-5l4 6v14l-8 1V97Z" clip-rule="evenodd"/><path fill="#574C3C" fill-rule="evenodd" d="M255 52v-1c-1-2 1-9 2-11l9-2h36l39 1v19l-2 2v2l2 3h-83c-2-3-4-8-3-12l1-1h25l14-1h-23l-17 1Z" clip-rule="evenodd"/><path fill="#3D352E" d="m341 58-2 2v2l2 3h-83c-2-3-4-8-3-12l1-1h8l1 5h51c7 1 17 2 25 1Z"/><path fill="#130C09" d="M295 59c-2 2-27 1-32 1v-1h32Z"/><path fill="#3D352E" d="m257 40 9-2h23c-8 0-16-1-21 6l-3 6v1h7l-17 1v-1c-1-2 1-9 2-11Z"/><path fill="#271B14" d="M322 42h-43c5-2 36-1 43 0ZM300 44l-21 1 21-1Z"/><path fill="#574C3C" fill-rule="evenodd" d="M255 342v-9l3-8h82l-2 5 3 3v18l-54 1h-17l-13-2-1-8 6 1h30l-25-1h-12Z" clip-rule="evenodd"/><path fill="#3D352E" d="M258 325h82l-2 5-7 1-15 1h-50l-8-1-3 2 3-8Z"/><path fill="#271B14" d="m263 346 9 1h-10l1-1ZM329 337c-4 1-27-2-33-3 4-1 18 2 23 2l10 1ZM333 345h-1l-12 1h-17l30-1ZM299 336l-1 1h-29l30-1Z"/><path fill="#515B5A" fill-rule="evenodd" d="M368 208v-16c1-3-1-19 3-19l16-1v30h1c2-2 0-14 2-16l1 1v62l-3 15-1 6-1 6-9-14v-34l-9-11v-9Zm7 52-9-16-5-7v-22h6c0 5 5 9 8 13v32Z" clip-rule="evenodd"/><path fill="#7A8583" fill-rule="evenodd" d="M368 207v-16l23 39v16l-6-10-17-29ZM367 205l-6-9v-15l2 2 4 6v16Z" clip-rule="evenodd"/><path fill="#7B7266" fill-rule="evenodd" d="m652 267-1 1v-1c0-2 2-5 4-6l-4-8 5 6 6-7-4-8-7 8c0-3 4-6 7-9l-4-4c-1-1-1 1-2 1v-1l2-2 2 1 3 4 4-6 2-2-4-7-10 11v-3l2-1 7-8-4-7-4 5h-1l4-6-5-7 5 6 5-7-5-8-5 4 4-5-3-6 4 5 5-6-6-7-4 3 4-5-2-4 2 3 7-9-7-9-2 2h-1l3-4-3-6 4 5 5-7c-1-2-6-8-6-10h1c2 1 3 4 4 6h1l1 2c2-2 3-7 4-9l-5-7c-2 4-5 7-9 10v-8l3 4 5-8-11-15 4 2 4-6h1v1l-4 7 7 10 2-7 1-4 1 1-1 4-2 7 12 14 1-1 1 2v2l-7 11 5 8 2-7 1 1c1 2-1 5-2 7l2 5c1 3 2 8 0 11l-2 4 2 4c1 5 1 10-1 14l1 6c1 4-3 7-1 10v12c0 2-2 3-3 5v6c3 10-6 15-12 20l-9 11v-3l8-9-4-6-3 4Zm20-56-5-7-5 6 5 7 5-6Zm-8 41 4 9c3-5 5-9 2-15l-6 6Zm9-79-6-7-5 9 6 7 5-9Zm-1 19-4-7-6 9 5 7 5-9Zm-12 51 4 7 6-6-4-8-1 1-5 6Zm14-11-2-5-5 7 2 4 2 4c2-3 3-6 3-10Zm1-15-2-4-5 5 1 2 4 4 2-7Zm-3-64-5-6-5 9 5 7 5-10Zm0 73-5-6c-1 1-5 4-5 6v1l4 6 6-7Zm-6-62-5-7-6 7 1 1 5 9 5-10Zm1 19-5-7c-1 2-6 8-6 10l5 7 6-10Zm0 79-1-1-3-8-7 8 2 3 2 4 7-6Zm-1-60-5-7-5 6 5 7 5-6Zm9 2c1-4 0-6-2-10l-5 8 5 6 2-4Zm-6-20 4 7 1-3 1-7-1-6-5 9Zm-3 34-5-7-4 7 4 7c1-1 5-5 5-7Z" clip-rule="evenodd"/><path fill="#473D34" d="M670 250c0 4 0 6-2 9l-2-7 4-4v2Z"/><path fill="#473D34" fill-rule="evenodd" d="m658 119 4 5-2 9-6-8 4-6Z" clip-rule="evenodd"/><path fill="#574E43" d="m672 179-1 7-1-2 2-5Z"/><path fill="#3D352E" d="M667 188v8l-1 2-1-1-2-3 4-6Z"/><path fill="#473D34" d="m671 192-3 5v-9l3 4ZM673 196v11l-3-3-1-2c1-2 2-5 4-6ZM667 149l-1 11-1-2-2-2c1-2 2-6 4-7Z"/><path fill="#3D352E" d="M671 152c0 2-1 5-3 6v-9l3 3ZM672 174l-4 6v-11l2 2 2 3ZM666 183l-4 7v-12l2 2 2 3ZM667 170l-1 8-1-1-1-1v-3l3-3ZM661 180v10l-2-2-2-2c-1-1 0-2 1-3l3-3Z"/><path fill="#473D34" d="M671 210c0 2-2 4-3 5v-4l-1-5 4 4ZM667 206l-1 8-1-2-2-2 4-4Z"/><path fill="#3D352E" d="m662 199 3 3-3 4h-1l-4-5 4-5 1 3Z"/><path fill="#473D34" d="m667 222-1 8-2-2-1-2 4-4ZM670 225v2l-2 2v-7l2 3ZM673 230v1c0 2 0 7-2 9l-1-2-2-4 4-5 1 1ZM673 214l-1 9-3-4 4-5Z"/><path fill="#574C3C" d="M672 148v-7l-3 3 3 4ZM462 306h149c-19 5-41 8-60 12l-37 7-45 5 4-6 5-4c1-2-3-3-5-4-2 1-4 1-5 3-2 7-6 11-13 12l2-7 2-17c0-2 2-1 3-1Z"/><path fill="#443C31" d="m457 324 2-17c0-2 2-1 3-1 1 1-3 18-5 18Z"/><path fill="#574C3C" fill-rule="evenodd" d="m479 60-4-1h8l20 1h32c37 2 75 2 112 2v17l-11 1h11v10l-9-3-3-4-12-3h3l1-1-15-1-16 1-27-5-40-8 20-1h-16c-7 1-12-1-20-1l-34-4Z" clip-rule="evenodd"/><path fill="#3D352E" d="m577 70 10 2c8 2 17 3 25 6l-16 1-27-5-40-8 20-1h-1l15 3 14 2Z"/><path fill="#3D352E" fill-rule="evenodd" d="M647 85v5l-9-3-3-4-12-3h3l1-1 10 2 10 4Z" clip-rule="evenodd"/><path fill="#130C09" d="M614 67Z"/><path fill="#1B1511" d="m638 75-26 1v-1h26Z"/><path fill="#574C3C" fill-rule="evenodd" d="M647 322v5l-55 1-117 3 9-1 18-2a1026 1026 0 0 0 97-18l-1 1h28l9-4 3-4 9-3v11h-9 9v11h-21 21Z" clip-rule="evenodd"/><path fill="#3D352E" fill-rule="evenodd" d="m599 310 18-3 2 3h3l-24 1h19l-9 3-20 4-16 4h-11c-1 2-14 3-17 3h-15l-2-1 72-14Z" clip-rule="evenodd"/><path fill="#130C09" d="M572 322h-15 15Z"/><path fill="#3D352E" d="M647 300v10-6l-2 2c-4 2-15 5-19 5l9-4 3-4 9-3Z"/><path fill="#1B1511" d="M614 323h-30l-10-1 12 1h28Z"/><path fill="#271B14" d="M638 315h-27c4-2 22 0 27 0Z"/><path fill="#574C3C" fill-rule="evenodd" d="M195 336h34l11-1 1 1-1 1c-1 1-6 5-8 5v1c0 2-8 6-10 7l-3 1 1 1-3 1-7 4-4 2c-9 5-27 5-37 5v-1l-1-1v2h-1l-17-1-1-1-4-3v1l-1-1 1-1h4l-1-1 3-1-7-2v-1l3-4 3 2c1 1 3 3 5 3v-1l-2-1-2-2c-1-3 0-6 1-9 1-2 4-3 6-3 3 0 5 1 7 3l18-1 1 3 2 5 3 2 4-2c2-2 2-4 2-7v-5Z" clip-rule="evenodd"/><path fill="#130C09" fill-rule="evenodd" d="m150 363-1-1-4-3v1l-1-1 1-1h4l6-1-4-1-7-2v-1l3-4 3 2c1 1 3 3 5 3v-1l-2-1-2-2c-1-3 0-6 1-9 1-2 4-3 6-3 3 0 5 1 7 3l1 2v7l-2 2h-1l-1 1c3 1 6-3 8-3l2 1v2c-1 2-7 3-9 4l10 1-4 6v-1l-1-1v2h-1l1-1-2-2c-5-2-10-3-15 0l-1 2Z" clip-rule="evenodd"/><path fill="#C4BCB4" fill-rule="evenodd" d="m168 362-1-2-8-2-11-4h-2l-1-1 2-2c2 0 4 2 5 3l16 5h3l-2 4-1-1Zm-23-3h4c3 0 5-2 8-1-2 2-6 1-8 4l-4-3Zm10-8h-1c-3-1 0-5-1-7l-1 3-1-2 1-3 6-3 7 3 1 3-2 3 1 2c-2 2-3 0-4 4-4-2-4 3-6-3Zm8-3a2 2 0 1 0-4 0 2 2 0 0 0 4 0Zm1-4v3-3Zm-8 6 2-3h-3l-1 1 2 2Zm16 3h-1c-3 1-6 3-10 3h-1l1-1c2-1 5-1 6-3 2 0 2-1 3-2l2 3Z" clip-rule="evenodd"/><path fill="#443C31" d="M195 336h34l11-1 1 1-1 1c-1 1-6 5-8 5l-8 2h-6l-1-2v-1h-22v-5Z"/><path fill="#473D34" d="m217 342 7 2h-6l-1-2Z"/><path fill="#443C31" d="M232 343c0 2-8 6-10 7l-3 1h-5c-3-1-8 1-11-1 1-3 10-2 12-5l17-2Z"/><path fill="#3D352E" d="m210 357-4 2-14-1 16-2h2v1Z"/><path fill="#1B1511" d="m219 351 1 1-17 2-13 1h-7c11-1 21-1 31-4h5Z"/><path fill="#130C09" d="m232 343-17 2h-10l13-1h6l8-2v1Z"/><path fill="#473D34" d="m217 353-7 4v-1h-2l7-2 2-1Z"/><path fill="#574C3C" fill-rule="evenodd" d="M346 151c1-3 7-6 10-8v104c-3-2-11-7-12-11v-82l2-2c2 3-2 11 0 14 0-4 2-12 0-15Z" clip-rule="evenodd"/><path fill="#3D352E" fill-rule="evenodd" d="m360 250-2-2-1-12 1-21-1-73 3-2v110Z" clip-rule="evenodd"/><path fill="#271B14" d="M352 211v29l-1-3v-30l1 4ZM351 154l-2 18 2-18ZM350 178v6l-1 3v-8l1-1Z"/><path fill="#3D352E" fill-rule="evenodd" d="M336 179c4 7 4 21 2 28l-4 6h-48l3-4a48 48 0 0 0-2-32h48l1 2Zm-2 1h-38v30l37-1-15-1v-27c3 0 13 1 16-1Z" clip-rule="evenodd"/><path fill="#574C3C" fill-rule="evenodd" d="m301 189 2 3h6l2-2 2-4-4-5h8l-1 28h-7c2-2 3-3 3-5v-4c-1-2-3-2-5-3l-6 3-1 5c1 1 2 2 1 3l-4 1v-18l1-10 5 1-2 2v5Z" clip-rule="evenodd"/><path fill="#3D352E" d="M310 201v2l-2 3-3 1-3-3c-1-1 0-3 1-4l3-1 4 2ZM310 186a4 4 0 1 1-8 2 4 4 0 0 1 8-2Z"/><path fill="#574C3C" fill-rule="evenodd" d="m112 36-10 2-13 3c5-7 13-9 20-11 5-1 12-3 17-2h3a198 198 0 0 1 38-2h2v1l2 3-3 1h3l-7 2c2 1 8 1 9 3l-1 3-2 2-3-3-2 1c1 5 2 6-1 11-2 1-5 2-7 1-3 0-4-2-6-4l1 2-10 1h-16v-5h11-11l-3-4h-5l-2 1-1 1-4 2-1 1-23 4 2-7 11-4 13-2 4-1h-5Z" clip-rule="evenodd"/><path fill="#130C09" fill-rule="evenodd" d="M165 39c1 5 2 6-1 11-2 1-5 2-7 1-3 0-4-2-6-4l-1-2 1-3 1-3 4-4-3 1c-1 1-6 5-7 4l-2-3 1-2 9-2-9-2c0-2 1-3 2-3l1-2h21v1l2 3-3 1h3l-7 2c2 1 8 1 9 3l-1 3-2 2-3-3-4-2-1 1 3 2Z" clip-rule="evenodd"/><path fill="#3D352E" fill-rule="evenodd" d="M148 26h21l-3 2c-2 2-6 3-10 2-3-1-5-1-8-4l-1 2h-18l19-2Z" clip-rule="evenodd"/><path fill="#C4BCB4" d="m169 27 2 3-3 1c-4 1-5 2-8 0 4 0 6-1 9-4Z"/><path fill="#C4BCB4" fill-rule="evenodd" d="m165 44-1 4-6 3-5-2-2-5 2-1v-4h1l2-1-1-2 1-1 3 1 1-1 2 3 3 1v5Zm-2-3a2 2 0 1 0-3 2 2 2 0 0 0 3-2Zm-6 0a2 2 0 1 0-3 1 2 2 0 0 0 3-1Zm8 2h-1v2l1-2Z" clip-rule="evenodd"/><path fill="#C4BCB4" d="m172 36-1 3h-1l-2-1c-3-3-14-6-19-7h-3l1-2 2-1 1 1 9 3c4 1 8 4 13 4Z"/><path fill="#C4BCB4" d="M157 33c-1 2-5 3-7 4l-3 2h-1l-1-3 12-3Z"/><path fill="#443C31" fill-rule="evenodd" d="m110 46-23 4 2-7 11-4v6h11l4-2 1-1-1 12c-5 0-27 1-29-1v-1c3-4 26-4 27-6h-3ZM109 30c5-1 12-3 17-2-3 2-11 3-15 4-3 1-8 3-9 5v1l-13 3c5-7 13-9 20-11Z" clip-rule="evenodd"/><path fill="#3D352E" fill-rule="evenodd" d="m340 77-2 2-7 2c-3 1-3 3-4 5h-70l-9-4-22-10 2-2-1-4c0-2-2-3-3-4-5-1-8 2-12 4l-11-5h35l15 12h86l2 1 1 3Zm-15-1h-47l-1 2v3l1 1 2 1h35c3 0 6-1 8-4l2-3Z" clip-rule="evenodd"/><path fill="#292822" d="M323 77v1l-6 3a338 338 0 0 1-38 0v-3c4-2 37-1 44-1Z"/><path fill="#3D352E" fill-rule="evenodd" d="M339 313v4h-88l-15 12h-13l-1-1h1l5-4c1-2-1-4-1-6v-1c2-1 28-13 31-13l11-1h43l15 1 2 4 2 1 8 1v3Zm-62-5v5l2 1h44l1-1 1-1-5-5h-17a951 951 0 0 0-26 1Z" clip-rule="evenodd"/><path fill="#292822" d="M323 312h-1l-43 1-1-3 3-2h32c4 0 7 1 10 4Z"/><path fill="#574E43" d="M341 69v2l-2 1h-87l-15-13h-27l-44 1-84 1-18 1-9 1-2 6-2 17-1 13h-4l-1-3 1-21c0-5 1-13 6-16l5-2 25-1 84-1 47-1 21 1c9 1 16 13 19 14h88Z"/><path fill="#473D34" d="m113 177-1 24v-7c0-3 0-10-2-11l-1-1-2 3c-1 4-1 18 1 21l2 1 2-3h1v7H68v-33l17-1h28Z"/><path fill="#3D352E" d="m289 185-1 23h-44v-26c16-1 28-1 44 1l1 2Z"/><path fill="#574C3C" d="M336 124c1 5 0 15-1 20-1 6-2 14-6 18l-4 3-3-2c-7-5-7-14-8-22l1-25c1-6 3-13 8-16h5c6 6 7 16 8 24Z"/><path fill="#050303" d="M333 126c1 10 0 20-3 29-1 2-2 5-4 6 0-2 3-5 2-7-2 0-2 4-3 6l-2 1-4-4c-1-3-4-14-3-17l2-2c5-3 8-3 14-1v-8l-4 2h-8c-2 0-4-1-4-3-2-3 2-16 3-19 1-2 2-5 4-6h1l3 7 3 3-2-6-2-5 1 1c5 3 6 18 6 23Z"/><path fill="#292822" d="m331 124 1 1-2 2c-2 3-6 3-10 3l-2-2c-2-3 0-10 1-13s2-7 4-9c2 4 4 7 8 10v8ZM331 139l-2 12-4 1-2 7h-1l-2-4c-2-5-3-10-3-16l5-1c4-1 6 0 9 1Z"/><path fill="#574C3C" fill-rule="evenodd" d="M241 332c-3 2-7 3-11 3h-35l-45-1-69-1H60l-6-1-1 1c-7-6-8-15-8-24l-1-11v-7h5l1 5c0 8-1 25 5 31l7 1h28l38 1 109 2a352 352 0 0 0 15-13h87l2 1-1 1-3 1h-35l-50-1-11 12ZM405 323c-2-2 0-3 1-4l1-12v-1h50l-1 16-3 9c-11-6-8-12-14-16-3 1-7 1-6 5 0 2 3 3 5 4l4 6h-23l-14-1v-6c7 1 19 2 26 0h-26Z" clip-rule="evenodd"/><path fill="#473D34" d="m439 306 5 1v1h-36l-1-2h32Z"/><path fill="#3D352E" d="m457 306-1 16-2-15-12-1h15Z"/><path fill="#574C3C" fill-rule="evenodd" d="m204 38 15 2c5 1 10 3 15 7-5-1-33-2-34-1h-1v1h-4v-2l-3-4h-4c-2 0-3 2-4 4h-10l10 1-1 3-19 1c3-5 2-6 1-11l2-1 3 3 2-2 1-3c-1-2-7-2-9-3l7-2h-3l3-1-2-3v-1h28c3 1 13 5 14 7l-1 1h1c4 0 8 3 11 5l-18-1Z" clip-rule="evenodd"/><path fill="#A78A5A" fill-rule="evenodd" d="M194 53h-9v-7l2-4 3-1c2 1 4 1 4 9v3Zm-3-8a2 2 0 1 0-3 0 2 2 0 0 0 3 0ZM193 336h-8v7l2 4 3 1c2-1 4 0 4-9l-1-3Zm-2 8a2 2 0 1 1-3 0 2 2 0 0 1 3 0ZM124 336h-8v7l2 4 3 1c2-1 4 0 4-9l-1-3Zm-2 8-1 2-2-2 2-1 1 1ZM125 53h-9v-7l2-4 3-1c2 1 4 1 4 9v3Zm-3-8a2 2 0 1 0-3 0 2 2 0 0 0 3 0Z" clip-rule="evenodd"/><path fill="#1B1511" d="M199 32v1l-16-1h16Z"/><path fill="#574C3C" d="M457 289v13l-8-1-12 1h17v3h-47v-21a700 700 0 0 1 32 2l7 1 7 1 4 1Z"/><path fill="#473D34" d="M407 284a700 700 0 0 1 32 2l7 1c-5 1-34 0-38-2l-1-1Z"/><path fill="#3D352E" d="M457 289v13l-8-1h5l-1-13 4 1ZM210 323l-12 5h-26l-75-1a79 79 0 0 1 40-9h55c7 0 12 3 18 5Z"/><path fill="#574C3C" fill-rule="evenodd" d="M126 341h26c-1 3-2 6-1 9l2 2 2 1v1c-2 0-4-2-5-3l-3-2-3 4v1l7 2-3 1 1 1h-4l-1 1 1 1 3 3c-12 0-23-1-34-3l-5-6 1-1 21 1c-9-2-19-1-29-3-4 0-9-1-12-3l-3-7 17 3 9 1-9-2 1-1c2-2 7-2 10-2v5c1 1 1 3 3 3 1 1 2 2 4 1 2 0 3-2 4-4h12c-3-1-8 1-11-1l-1-3Z" clip-rule="evenodd"/><path fill="#3D352E" d="M104 344c-4 0-9 0-9 2-1 4 4 4 7 5-4 0-9-1-12-3l-3-7 17 3Z"/><path fill="#574E43" d="M49 239v50h-5c2-19 0-38 0-58l1-52v-26a1093 1093 0 0 1 2-53l1 1 1 2v136Z"/><path fill="#515B5A" fill-rule="evenodd" d="m363 73-1-1 2-4 1-4c-1-4-4-4-4-6s0-5 2-6h3l1 1 9 2c-1 3-2 9-1 11v4c-4 3-7 2-12 3Zm14-17c5 2 13 4 14 9v22l-15 1V76l1-20Zm-13 27h-1v-3l1-6 10-1v8l-10 2Z" clip-rule="evenodd"/><path fill="#646D6B" fill-rule="evenodd" d="m364 68 1-4c-1-4-4-4-4-6s0-5 2-6h3l1 1 9 2c-1 3-2 9-1 11v4c-4 3-7 2-12 3l-1-1 2-4Z" clip-rule="evenodd"/><path fill="#574C3C" fill-rule="evenodd" d="m660 61 5 2c1 12 0 29-5 41l-3 5-3-4c1-5-2-8-5-10V62l2-1h1l1 5v-5h6c0 4-2 35 0 36 0-5-1-33 1-36Zm-7 15c-2 2-1 9-1 11l1-11Z" clip-rule="evenodd"/><path fill="#473D34" d="m660 104-3 5-3-4c1-5-2-8-5-10V62l2-1-1 2v28c4 3 6 5 7 8l1 5h2Z"/><path fill="#574C3C" fill-rule="evenodd" d="m657 328-5 1-3-1v-33c5-5 7-7 3-14l4-4 2 4c6 10 7 34 8 46l-7 1h-1l-2-14-1-5c-1 2 1 15 2 18v1Z" clip-rule="evenodd"/><path fill="#292822" d="M200 215h3l1 1-1 90-87-1c-2 0-3-3-5-3l-42-1v-17l1-70 130 1ZM200 175h3l1-1V84l-87 1-6 3-42 1v17l1 69h130Z"/><path fill="#3D352E" fill-rule="evenodd" d="m652 329-3-1v-33c5-5 7-7 3-14l4-4 2 4c-2 7-2 12-6 18 0 8-2 17-1 24l1 4h5v1l-5 1Z" clip-rule="evenodd"/><path fill="#271B14" d="m661 305-1 11v-8l-1-11h1l1 8ZM663 326h-1v-6l1 6Z"/><path fill="#3D352E" d="M220 177h3v35h-17v-7l-1-28h15Z"/><path fill="#574C3C" d="M204 197v8h-20l-7-1h-1v1h28v7h-87v-35h28l4 1 2-1h52l1 19h-8l8 1Z"/><path fill="#3D352E" fill-rule="evenodd" d="M117 182v-5h28l4 1 2-1h52v8h-59l-9-3h-18Z" clip-rule="evenodd"/><path fill="#3D352E" d="M406 80v25l-1 60v85l1 50-1 17h-1l-1-7V172a3371 3371 0 0 1 0-82V77l2-5v1l1 7Z"/><path fill="#36352C" d="m325 97-6 4-17 1-30 1c-1 0-5 1-7-1v-4c5-4 28-7 34-7 9 0 19 0 26 6Z"/><path fill="#574C3C" fill-rule="evenodd" d="m398 347 1-5 1-3c1-1 6-4 8-3v4l1 7 2 2 2-2 1-1v-13c4 1 19 1 21 3h-1l-4 2h-4v1h4c3-1 4-2 5-1l-1 4h-5 5c1 1-1 4-1 5l-6 3-31 1h-11v-2h13v-1l8-1v-1l-8 1Zm-13 1 1-3 7-3 1 6h-9Z" clip-rule="evenodd"/><path fill="#3D352E" fill-rule="evenodd" d="M426 339h-12v-6c4 1 19 1 21 3h-1l-4 2h-4v1Z" clip-rule="evenodd"/><path fill="#3D352E" d="M400 339c1-1 6-4 8-3v4c-3 2-5 2-9 2l1-3Z"/><path fill="#473D34" d="m393 342 1 6h-9l1-3 7-3Z"/><path fill="#574E43" fill-rule="evenodd" d="m414 45-3-4c-3 2-3 6-3 6v8l-8-5-1-2v-1c0-2 0-5-3-6l-3 4-1 4-6-4-2-6h25l20 1c4 1 7 8 6 11h-1l1 4-21 2 1-5-1-6 11-1h-11Z" clip-rule="evenodd"/><path fill="#3D352E" d="M435 51h-1l1 4-21 2 1-5 6-1h14Z"/><path fill="#473D34" d="M408 47v8l-8-5-1-2v-1h9ZM393 45l-1 4-6-4h7Z"/><path fill="#36352C" d="m323 166-1 1-8 3c-12 3-23 1-35-1l-13-2h-1v-5l20-1h32c2 2 3 4 6 5Z"/><path fill="#3D352E" d="M112 84v2l-2 1H70l1-9v-4h21c6 3 15 6 20 10ZM112 307l-7 4-13 5H71l-1-3-1-10h27l15 1 1 3Z"/><path fill="#574C3C" fill-rule="evenodd" d="M351 102c2 0 4-2 5-3v35c-1 2-3 4-5 4v-36Zm-1 36-6 6v-37l6-5v36Z" clip-rule="evenodd"/><path fill="#130C09" d="m348 117-1 2v-13l1 11Z"/><path fill="#7B7266" fill-rule="evenodd" d="M361 96c-5 2-17 7-19 13v13c-8-14-2-19 10-25 3-2 8-4 9-7-1-4-13-4-16-3l-6 1c-1-2 1-4 3-5 8-2 17-1 23 7l-4 6Z" clip-rule="evenodd"/><path fill="#7B7266" d="m342 81-2-2v-1c9-7 18 1 22 0h1v1c-2 2 0 4-2 5l-2-3c-6-3-12-3-17 0Z"/><path fill="#574C3C" d="M342 81c5-2 10-2 15 0l3 3c-5-2-12-4-18-2h-1v-1h1Z"/><path fill="#292822" d="M242 182c1 5 2 24-1 28l-6 1 4-5v-3l-2-4-4-1c-2 0-4 1-5 3-1 1-2 2-1 4 0 4 4 5 7 7h-9l-1-3 1-32h6c0 2-2 3-3 5-1 1-2 3-1 5 0 2 1 3 2 3l6 2 3-3 1-5c-1-3-2-4-5-5h7l1 3Z"/><path fill="#7B7266" fill-rule="evenodd" d="m358 303 3-2c1-3-6-6-9-7-6-4-15-9-14-18l3-8c1 8-2 15 6 19l11 6 6 6-1 4c-2 3-8 4-12 5-3 0-8 0-11-2l-1-3 1-1 3 1h15Zm-11-10 8 4h1v5c-2 1-6 2-8 0l-1-3v-6Z" clip-rule="evenodd"/><path fill="#574C3C" fill-rule="evenodd" d="m347 293 8 4h1v5c-2 1-6 2-8 0l-1-3v-6Z" clip-rule="evenodd"/><path fill="#473D34" fill-rule="evenodd" d="M344 302v-11h1l1 2v6l1 3-2 1h-1v-1Z" clip-rule="evenodd"/><path fill="#4D4842" d="M399 319c-4 6 1 11-7 17 5-10 3-19 3-31 1-24-2-53 4-77v91Z"/><path fill="#3D352E" d="M201 72c2 0 5-1 7-3 4-1 11-6 15-5l3 3v2c0 2-2 3-4 4l-16 8-1-5-4-4Z"/><path fill="#574C3C" d="M201 72c2 0 5-1 7-3 4-1 11-6 15-5l3 3v2c0 2-2 3-4 4l-2-1v-4l-15 7v1l-4-4Z"/><path fill="#36352C" fill-rule="evenodd" d="M233 170c-5-1-11-2-15-6s-7-8-7-14c0-3-1-8 1-10h1c3 0 5 2 7 4l1 7c3 9 7 14 16 18h1v1h-5Z" clip-rule="evenodd"/><path fill="#36352C" d="m262 168-3 2c-8 2-17 0-24-4s-11-10-13-18l-1-3 7 9c8 10 22 8 34 9v5Z"/><path fill="#443C31" fill-rule="evenodd" d="M199 47c3 0 32 0 36 2l4 3 2 2-17-1h-29v-6h4Z" clip-rule="evenodd"/><path fill="#574C3C" d="M392 340a321 321 0 0 1-34 14v-21h1v9l2 2c4 0 25-8 30-10l1 6Z"/><path fill="#271B14" d="M375 344c-2 3-13 7-16 7 1-2 6-2 9-3l7-4ZM388 338v1l-10 4c1-2 7-4 10-5Z"/><path fill="#8E958D" d="m369 20 3 11v3h-6l-1-2-5-10-2-5-2-6V5c1-2 4-3 6-3l4 10 1 3 2 5Z"/><path fill="#7A8583" d="m366 12 1 3h-2l-9-4V5c1-2 4-3 6-3l4 10Z"/><path fill="#8E958D" d="m366 12 1 3h-2l-9-4V5c3 4 5 5 10 7Z"/><path fill="#7A8583" fill-rule="evenodd" d="m365 32-5-10 8 4c4 4 1 5 4 8h-6l-1-2Z" clip-rule="evenodd"/><path fill="#7A8583" d="m367 15 2 5c-3-2-6-4-10-4l-1 1-2-6 9 4h2Z"/><path fill="#4D4842" fill-rule="evenodd" d="M399 138v76l-4 4v-15c1-12-1-61 3-70l1 5Z" clip-rule="evenodd"/><path fill="#7A8583" d="m373 357-3 7-2 9-5 12-1 4-6-4 1-8 2-5c1-4 4-14 8-17l6 2Z"/><path fill="#7A8583" d="m368 373-5 12-1 4-6-4 1-8v1c4 0 7-6 11-5Z"/><path fill="#8E958D" d="m363 385-1 4-6-4h7ZM370 364l-2 9c-4-1-7 5-11 5v-1l2-5c1 0 10-6 11-8Z"/><path fill="#574C3C" fill-rule="evenodd" d="M358 41v-6l21 9 12 6 1 3-1 3-13-5c-5-1-14-7-18-4l-1 2c-1 4 2 7 1 9l-2-1V41Z" clip-rule="evenodd"/><path fill="#050303" d="M373 44h-1l-13-4 14 4Z"/><path fill="#574C3C" fill-rule="evenodd" d="M345 56h-1V42l1-10c3 1 0 20 2 22V34l1-1c2 0 4 0 5 2l-1 3v9h1v-5c0-3 0-5 2-8l1 1v22c-3-1-7-2-10-1h-1ZM344 352v-18h12l1 16v3l-2 2h-1l-1-3-1-6v10l-4 1v-16l-1 10c0 2 1 6-1 8h-1l-1-7Z" clip-rule="evenodd"/><path fill="#3D352E" d="M184 336v7l-1-3-18 1c-2-2-4-3-7-3-2 0-5 1-6 3h-26v-5h58Z"/><path fill="#36352C" d="m262 100-1 1-6-3-7-1c-11-2-18 3-26 10l1-4 2-4c3-4 8-8 14-9 5-1 13 0 18 3l5 7Z"/><path fill="#574E43" fill-rule="evenodd" d="m380 358 1-1h1c1 2-2 8-3 10-4 9-5 18-15 22l1-3 9-28 2-2h1v2h1c0 6-3 12-5 17l-3 7 1-1c4-6 6-15 8-22l1-1Z" clip-rule="evenodd"/><path fill="#3D352E" d="m377 358-2 5-8 22-2 1 9-28 2-2h1v2Z"/><path fill="#473D34" d="M394 296c0 9 1 29-2 36-6 4-14 6-21 8l-8 3-2-1-1-2 1-2 1 2 22-7 5-2 2-4 1-17v-42l1-9c2 12 1 25 1 37Z"/><path fill="#443C31" d="M253 86v1l-19-1c-4 0-16-6-19-8l2-1 7-4 12 5 17 8ZM252 304l-28 13-7-4-3-1c6-3 13-7 19-8h19Z"/><path fill="#A78A5A" fill-rule="evenodd" d="M457 272v16l-15-3-2-1v-8c1-2 14-3 17-4Zm-12 8a2 2 0 1 0-2 1 2 2 0 0 0 2-1Z" clip-rule="evenodd"/><path fill="#3D352E" d="M184 46v7l-38 1h-20v-4h16l10-1-1-2c2 2 3 4 6 4 2 1 5 0 7-1l19-1 1-3ZM116 317h1l-20 8-3 1h-3c-1-1-2-1-2-3v-2c1-3 18-10 23-12v2l4 6Z"/><path fill="#574C3C" d="M116 317h1l-20 8 3-3c5-3 10-3 16-5Z"/><path fill="#443C31" d="M91 65v-1h3c5 1 9 4 14 6l9 3-1 1c-2 1-4 3-4 5v2c-6-3-18-7-22-11l-1-1v-3l2-1Z"/><path fill="#574C3C" d="M91 65v-1h3c5 1 9 4 14 6l9 3-1 1-12-3-9-5-4-1Z"/><path fill="#A78A59" fill-rule="evenodd" d="m455 102 2 1v15l-17-3c-1-7-3-10 5-11l8-1 2-1Zm-10 8a2 2 0 1 0-3 0 2 2 0 0 0 3 0Z" clip-rule="evenodd"/><path fill="#A78A5A" fill-rule="evenodd" d="M481 277v8l-14 2-4 1v-15l9 1 8 2 1 1Zm-2 3a2 2 0 1 0-3 1 2 2 0 0 0 3-1Z" clip-rule="evenodd"/><path fill="#A78A59" fill-rule="evenodd" d="m480 105 1 1v8l-17 4v-4l-1-7v-4h4l13 2Zm-1 5a2 2 0 1 0-4 0 2 2 0 0 0 4 0Z" clip-rule="evenodd"/><path fill="#574C3C" fill-rule="evenodd" d="M367 9c-1-1-3-6-2-7l4 2 2 2c2 3 12 23 12 26l-1 1c-1-2-3-10-5-11l1 4 2 6-2-1-2 1c-3 0-8-19-9-22V9ZM356 67v2l-7-1-4 1 1-7c3 0 9-1 10 2v3Zm-1 3c3 1 7 2 8 4v2l-2 1c-7-2-9-5-16-2l-4 1-1-1v-1l4-4h11Z" clip-rule="evenodd"/><path fill="#7B7266" d="M355 70c3 1 7 2 8 4v2l-2 1c-7-2-9-5-16-2l-4 1-1-1v-1l4-4h11Z"/><path fill="#3D352E" fill-rule="evenodd" d="m206 309 16 8 4 3-1 4-4 3-11-5-9-5 4-2 1-6Z" clip-rule="evenodd"/><path fill="#574C3C" d="m222 317 4 3-1 4-4 3-11-5-9-5 4-2 16 8c0-2-1-4 1-6Z"/><path fill="#4D4842" d="M399 72c-1 17 1 34-1 51l-3-3V64l-3-9 5 4c0 4 0 9 2 13Z"/><path fill="#473D34" fill-rule="evenodd" d="M400 216V74l1-3 1 1v234l-1 13c-2-3-1-32-1-38v-65Z" clip-rule="evenodd"/><path fill="#36352C" d="m233 90-3 2-4 3c-3 3-4 7-5 12-3 3-5 4-10 3 0-4 0-10 4-14 4-5 12-6 18-6Z"/><path fill="#99836B" fill-rule="evenodd" d="M460 59c-8-3-13 1-17 8-1 2-2 5-4 6h-1c-2-4 7-14 10-16 8-5 18-1 23 7l2 5c1 1 2 1 1 2l-1 2c-2 0-3-1-3-3-4-7-4-6-10-11Z" clip-rule="evenodd"/><path fill="#574C3C" d="m288 209-4 4c-5 0-41 1-43-1l3-3h44Z"/><path fill="#473D34" d="M394 164v41c0 9 2 38-1 44-2-3-1-74-1-82l2-3Z"/><path fill="#3D352E" d="M115 336a200 200 0 0 1 0 4c-3 0-8 0-10 2l-1 1-18-4v-4l29 1Z"/><path fill="#574C3C" d="m287 182-23-2-20 1-1-3v-1h42l2 5Z"/><path fill="url(#b)" fill-rule="evenodd" d="m619 295-1-3c2-2 7-4 9-3v2l1 1 3 10-4 2-5 1c-2-1-2-3-2-5l-1-5Zm7-1-2-2c-2 0-3 0-3 2l3 2 2-2Z" clip-rule="evenodd"/><path fill="#0BC9FF" d="M42 268c1 6 1 28-1 33h-1c-2-2-1-5-2-8l1-27 1-5h1l1 7ZM42 95c1 5 1 31-1 34l-2-1V91l2-2 1 6Z"/><path fill="#3D352E" d="m90 317-1 1-2 4 2 5c-4-1-13 1-15-2l-4-7 20-1ZM89 63l-2 4 2 5H71v-1c0-3 2-6 4-8h14Z"/><path fill="#99836B" fill-rule="evenodd" d="M446 332c-3-2-9-10-9-15h2c2 1 3 6 5 8l7 6c5 3 9 0 13-3l5-7c1-3 1-4 4-4l1 1v2l-5 9c-7 6-15 10-23 3Z" clip-rule="evenodd"/><path fill="#7B7266" fill-rule="evenodd" d="M343 147c3-4 11-9 15-12 4-4 3-6 3-10 4 2 4 6 2 10l-7 7-11 8c-6 7-3 12-3 20-3-4-5-8-4-14l5-9Z" clip-rule="evenodd"/><path fill="#574C3C" fill-rule="evenodd" d="M347 88c1-1 7 0 9 1v4l-9 5V88Zm-1 11-2 1v-1l1-11h1v11Z" clip-rule="evenodd"/><path fill="#3D352E" fill-rule="evenodd" d="M392 66c-1-6 0-6-6-8l-23-8-2 2h-1v-2c2-4 5-3 8-2l24 10 2 7v54c1 4 0 37-2 40v-12a736 736 0 0 0 0-60V66Z" clip-rule="evenodd"/><path fill="#7B7266" d="M344 61h-1l-3 1v-1c1-8 33-4 21 10 0-5 1-6-4-9-4-1-9-2-13-1Z"/><path fill="#473D34" fill-rule="evenodd" d="m661 271 3-3v25c-3-6-3-11-7-17l3-5 1 6v-6Z" clip-rule="evenodd"/><path fill="#3D352E" d="M228 303c-1 2-13 7-16 7l-4-2-2-1 2-4h20Z"/><path fill="#7A8583" fill-rule="evenodd" d="m369 90 1 2-1 5-4-6c0-5-4-5-2-8h2l3 5 1 2Z" clip-rule="evenodd"/><path fill="#515B5A" fill-rule="evenodd" d="M369 83h5v5c-3 0-3 0-5 2l-1-2-3-5h4Z" clip-rule="evenodd"/><path fill="#292822" d="M341 177v36h-4v-1l1-1 2-7c0-5 1-21-3-26v-1h4Z"/><path fill="#3D352E" d="M110 353c-1 2 2 6 4 7-9-2-17-4-24-11l15 4h5Z"/><path fill="#574C3C" d="M339 323h-82v-1h10l18 1h54Z"/><path fill="#473D34" d="m627 79-1 1h-4l-4 1-2 2-17-3-3-1 16-1 15 1Z"/><path fill="#1B1511" d="m627 79-1 1h-8l-19-1v1l-3-1 16-1 15 1Z"/><path fill="#7B7266" fill-rule="evenodd" d="m656 114-4-4 1-4 6 8c5 6 15 15 14 22l-1 3-1-5c-4-8-10-13-15-20Z" clip-rule="evenodd"/><path fill="#473D34" d="M43 176v27l-1 9h-1l-1-34 3-2Z"/><path fill="#3D352E" d="m228 86-20 1v-5l4-3 12 5 4 2ZM338 67h-83 83Z"/><path fill="#473D34" d="m656 170 4 5-4 6v-11Z"/><path fill="#574C3C" fill-rule="evenodd" d="M655 181v-12l-1-2-3 3v9l3 3 1-1Z" clip-rule="evenodd"/><path fill="#3D352E" d="M360 98v31l-2 4V99l2-1ZM360 292v-31l-2-4v34l2 1Z"/><path fill="#7B7266" fill-rule="evenodd" d="m645 293 2-1c3-3 3-6 4-9v-1c3 3 3 5 1 8-3 4-10 8-14 10l-2 2c-5 5-3 5-12 4l9-3-1-2 3-3 10-5Z" clip-rule="evenodd"/><path fill="#3D352E" d="m342 89-1 2-11-5-1-1 2-3 2-1 6 1c1 1-1 3-1 5l1 2h3ZM446 334c-2 1-28-2-32-2l1-1c2-1 24 0 29 1l2 2Z"/><path fill="#292822" d="M341 301h-3c-1 3 1 5 1 7h-8l-2-3 12-6v2Z"/><path fill="#3D352E" d="M110 191v15h-1l-1-8v-12l1-3c2 2 1 5 1 8Z"/><path fill="#443C31" d="m447 56-3 2-28 1v-1l31-2Z"/><path fill="#473D34" d="M400 322v14c-2 1-4 3-7 3l-1-1c0-2 4-4 5-5l3-12v1Z"/><path fill="#3D352E" d="M223 329h-21l-1-1 11-4 8 4h2l1 1Z"/><path fill="#271B14" d="M223 329h-21l18-1h2l1 1Z"/><path fill="#443C31" d="m655 204 4 6-4 5-1-1-3-3v-4l4-3Z"/><path fill="#473D34" d="m655 204 4 6-4 5v-11Z"/><path fill="#292822" d="m238 203-2 5-2 1-4-3v-2l1-3 3-1 4 3Z"/><path fill="#473D34" d="M413 339v5l-2 3-1-1-1-4v-7l4-4v8Z"/><path fill="#3D352E" d="M342 125v14l-4 2v-17l4 1Z"/><path fill="#473D34" d="M413 47c0 3 1 8-1 10h-1l-2-3 1-8 1-3 1 1 1 3ZM664 109v10l-2-4-1-6c0-5 2-9 3-13v13Z"/><path fill="#292822" d="M237 184a4 4 0 1 1-7 3 4 4 0 0 1 7-3Z"/><path fill="#4D4842" d="M400 55v16l-2-12-5-7 1-1 6 2v2Z"/><path fill="#473D34" d="M660 251h1c0 2-4 5-5 6v-4l-1 3-2-2-1-1 1-1 5-6 2 5ZM408 331c-1 3-4 4-6 5a158 158 0 0 0 0-15v-1l2 10 4 1ZM408 58l-4 2-2 10v-4l-1-13 7 5Z"/><path fill="#3D352E" d="m659 194-4 4c-3-4-4-3-4-8l3-2 1 1 4 5Z"/><path fill="#473D34" fill-rule="evenodd" d="m664 234-5 7-4-5 4-5v4l1-4v-1l1-1 3 5ZM663 133l2-6 1 2v12l-3-4-1-1 1-3Zm6 0v1l-1 3-1-1v-5l2 2Z" clip-rule="evenodd"/><path fill="#3D352E" d="M475 247h-4l-12 1v-4l16 3ZM650 50l-1 1c-4-1-17-1-20-3h6l10-1v1l5 2ZM649 339h-1c-3 1-24 4-26 6l13-2h10v-1l4-3Z"/><path fill="#574C3C" fill-rule="evenodd" d="M673 271c-3 0-6 1-8-2 1-2 3-1 4-1h3l3 1c0 2-1 1-2 2Z" clip-rule="evenodd"/><path fill="#3D352E" d="m479 144-20 1h-1l1-2 20 1Z"/><path fill="#574C3C" d="M675 121v1h-7l-2-1v-1l1-1c2 0 6 0 8 2Z"/><path fill="#A78A5A" fill-rule="evenodd" d="m460 278 2-1v6l-3 1v-7l1 1ZM461 107h1v6h-4l1-6h2Z" clip-rule="evenodd"/><path fill="#3D352E" d="m398 340-1 7h-2l-1-6 4-1ZM398 48v2h-1l-3-1v-3l1-3h1c2 2 2 3 2 5Z"/><path fill="#574E43" d="M680 172c1 3 0 4-2 6h-1c0-2-2-7 0-8l3 2Z"/><path fill="#443C31" d="m656 243-3 4-2 1v-7h3l2 2Z"/><path fill="#A78A5A" fill-rule="evenodd" d="M462 276h-4c0-2 0-4 2-5h2l1 1-1 4Z" clip-rule="evenodd"/><path fill="#574C3C" d="M673 158v11l-1-1-3-4 4-6Z"/><path fill="#A78A5A" fill-rule="evenodd" d="m458 289 1-4 3-1v5h-4Z" clip-rule="evenodd"/><path fill="#A78A5A" d="M463 114v5h-4l-1-5h5ZM462 102v4h-4l1-5h1l2 1Z"/><path fill="#4D4842" fill-rule="evenodd" d="m380 37-3-5 5 4 2 7v1l-2-1-2-6Z" clip-rule="evenodd"/><path fill="#574E43" d="M678 215c4 2 2 6-1 6v-6h1Z"/><path fill="#7B7266" d="m670 134 1 2c-1 2-1 6-3 7h-1l3-9Z"/><path fill="#292822" fill-rule="evenodd" d="M381 349v-1c1-1 1-2 3-2 1 1 0 3-1 4l-1 2v2l-3 4 1-5 1-4Z" clip-rule="evenodd"/><path fill="#99836B" d="m629 307-4 2-4-1v-1h8Z"/><path fill="#3D352E" d="M647 296v1c-1 3-7 4-9 4l9-5Z"/><path fill="#473D34" d="m380 347-1 4h-6l7-4Z"/><path fill="#4D4842" d="M379 40v2l-5-2h-1l1-1 5 1Z"/><path fill="#473D34" d="M649 230v2l-16-1h-1v-1h17ZM360 66l-1 4-1-1v-5l2 2Z"/><path fill="#3D352E" d="m454 302 3 1v1l-1 1h-2v-3Z"/><path fill="#473D34" d="m437 68-1 5h-1l-1-3 3-2ZM437 322h-1 1l-2-1-1-3 2-1 1 5Z"/><path fill="#574C3C" d="M661 107v4l-1 2-1-1 2-5Z"/><path fill="#443C31" fill-rule="evenodd" d="m651 118 4-3v1l-1 3-2 2-1-3Z" clip-rule="evenodd"/><path fill="#473D34" fill-rule="evenodd" d="m664 145-4-5-4 5 5 7 3-7Z" clip-rule="evenodd"/><path fill="#443C31" d="m654 218-3 3v-6l3 3Z"/><path fill="#99836B" d="M621 309h-1l-2-2 1-1h1l1 3ZM637 303l-1 2-3 2c1-2 2-4 4-4ZM637 87l-1 1-2-4h1l2 3Z"/><path fill="#6D645B" d="m677 190-1 5-1-2c0-2 1-2 2-3Z"/><path fill="#473D34" d="m651 258 2 3-2 2v-5ZM653 201l-2 2v-5l2 3Z"/><path fill="#3D352E" d="m360 300-2 1-1-1 1-1 2 1ZM360 90l-1 1-1 1v-3l2 1Z"/><path fill="#574C3C" d="M477 70v1l-1 1-1-3v-1l2 2ZM477 319v1l-3 3 2-4h1Z"/><path fill="#473D34" fill-rule="evenodd" d="m659 156-4 5-4-4v-7l3-2 1 2v5l1-1v-3l3 5ZM665 164l-4-6-5 6 5 8 4-8Z" clip-rule="evenodd"/><path fill="#574C3C" fill-rule="evenodd" d="M651 161v5l2-2-2-3ZM651 183v4l1-2-1-2Z" clip-rule="evenodd"/><path fill="#473D34" fill-rule="evenodd" d="m665 218-4-5-3 5 3 5 4-5ZM656 221l2 5-6 7-1 1v-9h1l4-4ZM669 244l-3-7-5 6 3 6 5-5ZM663 255l-6 6 3 5 6-4-3-7ZM658 269l-3-5-3 4-1 1v7l7-7Z" clip-rule="evenodd"/><path fill="#515B5A" fill-rule="evenodd" d="M364 136c3-5 2-9-3-12v-11l8-1v40h-3c-3-1-5 0-5-4l1-4h-1v-5l3-3Z" clip-rule="evenodd"/><path fill="#8E958D" fill-rule="evenodd" d="M369 131v10l-4-7v-6l-2-3v-1l6 6v1Zm18 27v10l-1 2v-2l-15-25v-10l4 7 11 18 1-4v4Z" clip-rule="evenodd"/><path fill="#574C3C" fill-rule="evenodd" d="m351 288 5 3v-35c-1-1-3-4-5-4v36Zm-1-36-6-6v37l6 5v-36Z" clip-rule="evenodd"/><path fill="#3D352E" fill-rule="evenodd" d="m358 308-7 1-9-1 9 2c4 0 7-2 7-2Z" clip-rule="evenodd"/><path fill="#292822" fill-rule="evenodd" d="M342 141v4s-8 8-5 20l4 7v3H207l-1-87h29s-20 0-23 8c-3 9-2 14-2 14v42s1 11 10 15 18 4 18 4 16 3 25-1l2-1s25 5 41 4 23-6 27-14l5-15 4-3ZM247 88h82l13 5v8s-7 5-5 14l5 8v1l-4-2s-3-20-10-25-12-8-29-7c-18 1-38 6-38 6s-3-7-14-8Z" clip-rule="evenodd"/><path fill="#130C09" fill-rule="evenodd" d="M255 185v-1l3-3 1-1h1v5l1 5 1-3 2-7h1l4 3-3 3-2 5h1l1-2 2-2h9c2 2 3 4 3 7s-1 5-3 7l-2 1c-2 1-5 0-7-1l-2-2-1-1c-1 3 3 5 3 8l-1 2h-2c-2-1-3-7-4-10l-1 11-6-4 1-2 2-1c2-5 3-10 0-15l-2-2Z" clip-rule="evenodd"/><path fill="#C4BCB4" fill-rule="evenodd" d="M255 204h1l2-1 2-8 4-11v-3l3 2-3 5c-1 3-6 13-5 16v3l-4-3Zm4-23v4c0 3 2 5 1 8-2-2-1-6-4-8 0-2 2-3 3-4Zm8 10v-2c1-2 4 1 7 0l-3-1 1-1 4 1 3 5c0 3-1 5-3 7l-4 1-2-1h-2c-2-1 0-3-4-3l-1-1c3-4-2-3 4-5Zm3 8a2 2 0 1 0 0-4 2 2 0 0 0 0 4Zm4 1-3-1 3 1Zm-6-9v1l2 2 1-1v-2l-1-2-2 2Zm-3 16h-1l-2-10v-1l1 1 3 6 2 3-3 1Z" clip-rule="evenodd"/><path fill="#020101" fill-rule="evenodd" d="M297 48v-1c1-2 3-2 4-2 2-1 4 0 6 2l2 4v2c-3 2-6 1-8 2s-1 3-5 3l-2-1-1-3c-1-1-7-1-6-4 0-2 1-3 2-3l5-1 2 2v1l1-1Z" clip-rule="evenodd"/><path fill="#BFBAAA" fill-rule="evenodd" d="m308 51-2 2h-5c-2 0-3-2-4-4l2-2 6-1 3 5Zm-1-1-3-1c-2 0-3 1-3 2v1l3 1 2-1 1-2Z" clip-rule="evenodd"/><path fill="#847D70" d="m302 51 2-1h2l-1 1-2 1-1-1Z"/><path fill="#9B938B" d="M302 51h3l-2 1-1-1Z"/><path fill="#B2AFA8" d="m300 55-1 1-2 1 2-2h-2l-1 2h-1l-1-2 2-3 4 3Z"/><path fill="#B2AFA8" fill-rule="evenodd" d="m294 50-3-1-1 3h-1l-1-3 1-1 4-1 2 2-1 3h-2l2-2Z" clip-rule="evenodd"/><path fill="#847D70" d="m291 50 1 1h-2l1-1Z"/><path fill="#020101" fill-rule="evenodd" d="M104 344h1l4 2v6l-2 5h-3l-5-6c-1-1-3 1-5-4v-2l3-2c0-1-3-6 1-7h4l2 5v2l-2 1h2Z" clip-rule="evenodd"/><path fill="#BFBAAA" fill-rule="evenodd" d="m107 356-4-2-2-4c0-2 0-3 2-5h3c2 1 2 4 3 5l-2 6Zm-1-2v-4l-3-1h-1v3l2 2h2Z" clip-rule="evenodd"/><path fill="#847D70" d="m103 349 2 2 1 2h-2l-1-2v-2Z"/><path fill="#9B938B" d="M103 349c1 2 2 3 1 4l-1-2v-2Z"/><path fill="#B2AFA8" d="M99 350h-2l-1-2 2 1v-1l-1-1h-1l-1-1 1-2 4 1c1 1-1 4-1 5Z"/><path fill="#B2AFA8" fill-rule="evenodd" d="M100 342v-3h-3l2-2h2l2 4-1 2h-3l-1-2 2 1Z" clip-rule="evenodd"/><path fill="#847D70" d="m100 340-1 1h-1v-1l1-1 1 1Z"/><path fill="#020101" fill-rule="evenodd" d="M420 321v-1l4-2c3 0 4 0 6 2l3 4-1 2c-2 2-5 2-8 2-2 1-1 4-5 3l-2-1-1-3c-1-1-7-1-6-4 0-2 1-2 2-3l5-1 2 2v1l1 1v-2Z" clip-rule="evenodd"/><path fill="#BFBAAA" fill-rule="evenodd" d="m432 324-3 3h-5l-4-4 2-3 6-1 4 5Zm-2-1-3-1-3 2v1l3 1 2-1 1-2Z" clip-rule="evenodd"/><path fill="#847D70" d="m425 324 2-1h2l-1 2h-2l-1-1Z"/><path fill="#9B938B" d="m425 324 3 1h-2l-1-1Z"/><path fill="#B2AFA8" d="m424 328-2 2h-2l2-2h-2l-1 2h-1l-1-2 2-3 5 3Z"/><path fill="#B2AFA8" fill-rule="evenodd" d="M417 323h-3l-1 2h-1l-1-2 2-2h4l1 1-1 3-2 1v-1l2-2Z" clip-rule="evenodd"/><path fill="#847D70" d="M415 323v2l-1-1v-1h1Z"/><path fill="#020101" fill-rule="evenodd" d="M601 343v-1l4-2c3 0 4 0 6 2l3 4-1 2c-2 2-5 1-8 2-2 1-1 4-5 3l-2-1-1-3c-1-1-7-1-6-4 0-2 1-3 2-3l5-1 2 2v1h1v-1Z" clip-rule="evenodd"/><path fill="#BFBAAA" fill-rule="evenodd" d="m613 346-3 2-5 1c-2-1-3-3-3-5l1-2 6-1 4 5Zm-2-1-3-1-3 2v1l3 1 2-1 1-2Z" clip-rule="evenodd"/><path fill="#847D70" d="m606 346 2-1h2l-1 2h-2l-1-1Z"/><path fill="#9B938B" d="m606 346 3 1h-2l-1-1Z"/><path fill="#B2AFA8" d="m605 350-2 2h-2l2-2h-2l-1 2h-1l-1-2 2-3 5 3Z"/><path fill="#B2AFA8" fill-rule="evenodd" d="m598 345-2-1h-1l-1 3h-1l-1-3 2-1 4-1 1 2-1 3h-2l2-2Z" clip-rule="evenodd"/><path fill="#847D70" d="M596 345v2l-1-1v-1h1Z"/><path fill="#020101" fill-rule="evenodd" d="m500 54 1 2 4 2 5-2c1-1 3-3 3-5l-1-2-7-2c-2-1-1-3-6-2l-2 1v3c-1 1-7 0-7 4l3 3h5l1-1 1-2v1Z" clip-rule="evenodd"/><path fill="#BFBAAA" fill-rule="evenodd" d="m512 52-3-3h-4l-4 4 2 2c1 2 4 1 6 1l3-4Zm-2 1-3 1-2-2-1-1 3-2 3 2v2Z" clip-rule="evenodd"/><path fill="#847D70" d="m505 52 2 1 3-1-1-1-3-1-1 2Z"/><path fill="#9B938B" d="m505 52 4-1-3-1-1 2Z"/><path fill="#B2AFA8" d="m504 47-1-1h-3l2 1h-2l-1-1-1 2 2 3 4-4Z"/><path fill="#B2AFA8" fill-rule="evenodd" d="m497 52-2 1h-1l-1-2-1 2 1 2h4l2-2-1-2-3-1 2 2Z" clip-rule="evenodd"/><path fill="#847D70" d="m495 53 1-1-1-1h-1v2h1Z"/><path fill="#020101" fill-rule="evenodd" d="m656 310-1-1-2-4c0-2 0-4 2-5l4-3 2 1c2 2 1 5 2 7s3 1 3 6l-1 2-3 1c-1 0-1 6-4 6l-3-3-1-5 2-1 1-1h-1Z" clip-rule="evenodd"/><path fill="#BFBAAA" fill-rule="evenodd" d="m659 298 2 3v4c0 2-2 3-4 4l-2-2-1-6 5-3Zm-1 2-1 3 2 3h1l1-3-1-3h-2Z" clip-rule="evenodd"/><path fill="#847D70" d="m659 305-1-2v-3l1 1 1 3-1 1Z"/><path fill="#9B938B" d="M659 305v-4l1 3-1 1Z"/><path fill="#B2AFA8" d="m663 306 2 2v2l-2-2v2l2 1-2 2-3-3 3-4Z"/><path fill="#B2AFA8" fill-rule="evenodd" d="m658 313-1 2v1l3 1-3 1-1-1-1-4 2-2 3 1v3l-2-2Z" clip-rule="evenodd"/><path fill="#847D70" d="m658 315 1-1v2h-1v-1Z"/><path fill="#5F4835" d="m452 229 2 3-3 1-4-3 5-1Z"/><path fill="#000" fill-rule="evenodd" d="m453 229 1 3v1h-5l-3-3a1 1 0 0 1 1-1h6Zm-1 0-5 1 4 3 3-1-2-3Z" clip-rule="evenodd"/><path fill="#5F4835" d="m450 233 5 1 1 2h-4l-2-3Z"/><path fill="#000" fill-rule="evenodd" d="M450 233h6v1l1 1v1l-1 1h-4l-3-3v-1h1Zm0 0 2 3h4l-1-2-5-1Z" clip-rule="evenodd"/><path fill="#C0C0BF" fill-rule="evenodd" d="m443 221-1 1-3-3c-16-22-35-48-26-76 2 11 4 16 11 25 0 16 13 39 23 51l-4 2a265 265 0 0 1 0 0Zm-26-44 1 1v-1h-1l-3-12-1-9c0 7 1 16 4 21Z" clip-rule="evenodd"/><path fill="#000" fill-rule="evenodd" d="M444 222h-1l-1 1v-1c-2 0-2-1-3-2-8-11-17-23-23-36s-8-27-4-41a1 1 0 0 1 1 0 45 45 0 0 0 12 25 106 106 0 0 0 23 51l-1 1-3 2Zm-1-1a160 160 0 0 1-14-22l8 13c2 2 6 7 6 9l4-2c-10-12-23-35-23-51-7-9-9-14-11-25-9 28 10 54 26 76l3 3 1-1Zm-26-44c-3-5-4-14-4-21l1 9 3 12h1v1l-1-1Z" clip-rule="evenodd"/><path fill="#948065" fill-rule="evenodd" d="m462 242 1-3c3-6-1-15-8-17l-2-1c8-4 18 13 9 21l1 2c0 4-1 4-5 3v-1c0-2 2-3 4-4Z" clip-rule="evenodd"/><path fill="#000" fill-rule="evenodd" d="m461 241 2-2c1-3 0-7-1-10-2-3-4-5-7-6l-2-1v-1c3-2 7 0 10 3 3 5 5 13 0 18l1 2-1 4h-2a8 8 0 0 1-3-1h-1v-1l2-3 2-2Zm1 1c-2 1-4 2-4 4v1c4 1 5 1 5-3l-1-2c9-8-1-25-9-21l2 1c7 2 11 11 8 17l-1 3Z" clip-rule="evenodd"/><path fill="#948065" d="M454 216v2c0 2-2 4-4 5-3 2-9 7-13 6l-2-1 2-2 2 1h3c3-2 9-6 10-9l2-2Z"/><path fill="#000" fill-rule="evenodd" d="m454 216 1 1v1l-4 5-8 5-6 2-2-2v-1l2-1c0-1 0-1 0 0l2 1h1l2-1 7-4 3-4c0-1 0-2 2-2Zm0 0-2 2c-1 3-7 7-10 9h-3l-2-1-2 2 2 1c4 1 10-4 13-6 2-1 4-3 4-5v-2Z" clip-rule="evenodd"/><path fill="#5F4835" d="m451 228-1 1-4-1v-1l3-2 2 3Z"/><path fill="#000" fill-rule="evenodd" d="M452 229h-7v-2l4-3a1 1 0 0 1 1 0l2 4v1Zm-1-1-2-3-3 2v1l4 1 1-1Z" clip-rule="evenodd"/><path fill="#948065" d="m449 220-2 2c-1 1-3 3-5 3l3-4 4-1Z"/><path fill="#000" fill-rule="evenodd" d="m449 220-2 3-2 2h-3a1 1 0 0 1 0-1l2-3 5-2a1 1 0 0 1 0 1Zm0 0-4 1-3 4c2 0 4-2 5-3l2-2Z" clip-rule="evenodd"/><path fill="#5F4835" d="m460 239-1 1-2 1-2-1v-1h5Z"/><path fill="#000" fill-rule="evenodd" d="m460 240-2 1-1 1-3-2v-2l6 1v1Zm0-1h-5v1l2 1 2-1 1-1Z" clip-rule="evenodd"/><path fill="#5F4835" d="M458 237v1h-5v-1h5Z"/><path fill="#000" fill-rule="evenodd" d="M459 238h-7v-1h6a1 1 0 0 1 1 1Zm-1-1h-5v1h5v-1Z" clip-rule="evenodd"/><path fill="#7C6752" d="M460 241c0 1-1 2-3 2l1-1 2-1Z"/><path fill="#000" fill-rule="evenodd" d="M461 241v1l-3 2a1 1 0 0 1-1-1v-1l3-2a1 1 0 0 1 1 1Zm-1 0-2 1-1 1c2 0 3-1 3-2Z" clip-rule="evenodd"/><path fill="#5F4835" d="m452 156 2-2-3-1c-3 0-3 1-4 3h5Z"/><path fill="#000" fill-rule="evenodd" d="M452 157h-4l-1-1a1 1 0 0 1-1 0l3-3h5v1l-1 3h-1Zm0-1 2-2-3-1c-3 0-3 1-4 3h5Z" clip-rule="evenodd"/><path fill="#5F4835" d="m450 153 5-1 1-2-4-1-2 3v1Z"/><path fill="#000" fill-rule="evenodd" d="M450 153h-1a1 1 0 0 1 0-1l3-3h5v1l-1 2-2 1h-4Zm0 0 5-1 1-2-4-1-2 3v1Z" clip-rule="evenodd"/><path fill="#C0C0BF" fill-rule="evenodd" d="m443 165-1-1-3 2c-16 22-35 48-26 77 2-12 4-16 11-25v-1c0-16 13-38 23-51l-4-1-6 9a266 266 0 0 0 6-9Zm-26 43h1l-1 1-3 12-1 8c0-6 1-15 4-21Z" clip-rule="evenodd"/><path fill="#000" fill-rule="evenodd" d="m444 164 3 2a1 1 0 0 1 1 1c-10 12-23 35-23 50v1h-1c-7 9-9 14-11 25a1 1 0 0 1-1 0c-4-14-2-28 4-41s15-25 23-36l3-3h1l1 1Zm-1 1-1-1-3 2c-16 22-35 48-26 77 2-12 4-16 11-25v-1c0-16 13-38 23-51l-4-1-6 9a265 265 0 0 0 6-9Zm-26 43h1l-1 1-3 12-1 8c0-6 1-15 4-21Z" clip-rule="evenodd"/><path fill="#948065" fill-rule="evenodd" d="m462 144 1 3c3 6-1 15-8 16l-2 1c8 5 18-12 9-20l1-3c0-3-1-4-5-2v1c0 2 2 3 4 4Z" clip-rule="evenodd"/><path fill="#000" fill-rule="evenodd" d="m461 144-2-1-2-3v-1h1l3-1h2l1 3-1 2c5 6 3 14 0 18s-7 6-10 4v-2h2c3-1 5-4 7-7 1-3 2-6 1-9l-2-3Zm1 0 1 3c3 6-1 15-8 16l-2 1c8 5 18-12 9-20l1-3c0-3-1-4-5-2v1c0 2 2 3 4 4Z" clip-rule="evenodd"/><path fill="#948065" d="M454 169v-1c0-2-2-4-4-5-3-2-9-7-13-6l-2 1 2 2 2-1h3c3 2 9 5 10 9l2 1Z"/><path fill="#000" fill-rule="evenodd" d="m454 170-2-2-3-4-7-4-2-1h-1l-2 1c-2 0-2-1-2-2l2-2 6 1 8 6 4 5v1l-1 1Zm0-1v-1c0-2-2-4-4-5-3-2-9-7-13-6l-2 1 2 2 2-1h3c3 2 9 5 10 9l2 1Z" clip-rule="evenodd"/><path fill="#5F4835" d="M451 157h-1l-4 1 3 3 2-4Z"/><path fill="#000" fill-rule="evenodd" d="m452 158-2 3-1 1v-1l-4-2v-2l5-1 1 1h1v1Zm-1-1h-1l-4 1 3 3 2-4Z" clip-rule="evenodd"/><path fill="#948065" d="m449 166-2-3-5-2 3 3 4 2Z"/><path fill="#000" fill-rule="evenodd" d="m449 166-5-1-2-4h3l2 2c1 1 2 1 2 3Zm0 0-2-3-5-2 3 3 4 2Z" clip-rule="evenodd"/><path fill="#5F4835" d="M460 146h-1l-2-2-2 2v1l5-1Z"/><path fill="#000" fill-rule="evenodd" d="M460 147h-6v-1l3-2h1l2 2v1Zm0-1h-1l-2-2-2 2v1l5-1Z" clip-rule="evenodd"/><path fill="#5F4835" d="M458 148h-5v1l5-1Z"/><path fill="#000" fill-rule="evenodd" d="M458 149h-5l-1-1a1 1 0 0 1 1 0l5-1v1h1a1 1 0 0 1-1 1Zm0-1h-5v1l5-1Z" clip-rule="evenodd"/><path fill="#7C6752" d="M460 145c0-1-1-2-3-2l1 1 2 1Z"/><path fill="#000" fill-rule="evenodd" d="m460 146-3-2v-1a1 1 0 0 1 1-1l3 2v1a1 1 0 0 1-1 1Zm0-1c0-1-1-2-3-2l1 1 2 1Z" clip-rule="evenodd"/><path fill="#724E40" fill-rule="evenodd" d="M277 93c3 1 20-3 21-2v1l3-1 13 1v1l-1 3h-3c-2 1-6 3-7 2l-1-2v-2c-8-2-16 9-14 16l8 2 1-2 4-1c0 1-1 2 1 4l4 2-7 2c-3 2-8 4-9 6v5c-4 2-6 0-9 4v4l-2 2c3 9 8 6 10 9-2 2-1 3 1 5l8 4-4 1-5 2h-2l1 3c2 3 9 5 12 6 0 2 1 3 3 4l-18-2h-9l-7-11-1-5v4l6 11-11-1c0-4-1-11 2-14l-3-2 1-3v-10l-1 1c-1 2 0 12-2 12l-9-3h-2l-1-1 1-1 5-2v1l-1 1 4-2 1-3-1-5c-2-1-8-2-9-5l1-1 6 1-1-4-2-2-3-1 5-2h8c2 2 0 6 0 10l1 3v-4l1-8c0-6 0-14-2-19 2-3 2-4 2-7 1-2 3-4 5-4l1 2h1l3-3h3Zm1 14-6 19 1 8v-3c-1-4 1-8 2-12l3-12 2-3-2 3Zm11-5-8 6v1l8-7Zm-18 48-2-12v-4l-1 2v3l3 12v-1Zm5-54c-3 2-7 16-8 20v3l3-9 5-14Zm16 73-15-10-1 1 15 9h1Zm-11-21-4-14v1c0 5 1 9 3 14h1v-1Zm15-34-6 3c-3 2-10 2-12 5l4-2c4-1 12-1 14-6Zm-35-10 1 13-7-4v-6h-6l-2-1 1-2-2-1 2-1v-2l-1-2-7-1v-1l3-3-4-2c-2 1-5 2-7 1l1-1 1-1v-2h8c7 1 12 3 19 6h-1l-4 4v3l5 3Z" clip-rule="evenodd"/><path fill="#000" fill-rule="evenodd" d="m290 128 1 1-5 1-4 3a133 133 0 0 0 0 4l-2 2 3 3c1 2 3 2 4 2l3 2v2l-1 1 1 1 1 1 7 4a1 1 0 0 1 0 3h-4l-4 2h-1l1 1 3 3 8 3v1l1 1 2 1a1 1 0 0 1-1 3l-18-2-6 1-4-1v-1h-1l-11-1-1-1v-9l1-5h-1v-1h-1v1h-2v-1l-4-1-4-1-2-1-1-1-1-1v-1l1-1 5-2 2 1 1-1 1-1-1-5-6-2c-1-1-3-2-3-4v-1l2-1h4v-1h-1l-1-2-3-1a1 1 0 0 1 0-2l6-3h6l3 1v-4h-2l-6-4-1-2v-4h-5l-3-2v-2l-1-2 2-1v-1l-1-1-2-1-4 1-1-1v-3l2-2h-2l-4 1-3-1-1-1v-1l1-1v-1h1v-2h9c8 1 12 3 20 6a1 1 0 0 1 0 2l-1 1c-2 0-3 1-4 3v1l1 1 3 2h1v-6h1c0-1 1-3 3-3l3-1 2 1 2-2 4-1h4l12-1 5-1 1 1 3-1 12 2 2 1v1l-1 1v2l-1 1h-1l-3 1-5 2h-3v-3h-1v-2c-3 0-6 2-9 4-2 3-4 7-3 10a10 10 0 0 0 5 2h1v-2h1c2-1 3-2 5-1l1 1v3l5 2a1 1 0 0 1 0 2l-8 3-6 2-2 3v1l1 3a1 1 0 0 0-1-1 1 1 0 0 0-1-1v-3c1-2 6-4 9-6l7-2-4-2c-2-2-1-3-1-4l-4 1-1 2-8-2c-2-7 6-18 14-16v2l1 2c1 1 5-1 7-2h3l1-3v-1l-13-1-3 1v-1c-1-1-18 3-21 2h-3l-3 3h-1l-1-2c-2 0-4 2-5 4 0 3 0 4-2 7 2 5 2 13 2 19l-1 8v4l-1-3c0-4 2-8 0-10h-8l-5 2 3 1 2 2 1 4-6-1-1 1c1 3 7 4 9 5l1 5-1 3-4 2 1-1v-1l-5 2-1 1 1 1h2l9 3c2 0 1-10 2-12l1-1v10l-1 3 3 2c-3 3-2 10-2 14l11 1-6-11v-4l1 5 7 11h9l18 2c-2-1-3-2-3-4-3-1-10-3-12-6l-1-3h2l5-2 4-1-8-4c-2-2-3-3-1-5-2-3-7 0-10-9l2-2v-4c3-3 5-3 8-4h1Zm2-1-2 1v-1h2Zm-14-20 2-3-2 3-3 12c-1 4-3 8-2 12v3l-1-8 6-19Zm-2-11-5 14-3 9v-3c1-4 5-18 8-20Zm-5 54v1l-3-12v-3l1-2v4l2 12Zm10-2v1h-1c-2-5-3-9-3-14v-1l4 14Zm11 21h-1l-15-9 1-1 15 10Zm4-55c-2 5-10 5-14 6l-4 2c2-3 9-3 12-5l6-3Zm-7-12-8 7v-1l8-6Zm-28 2-5-3v-3l4-4h1c-7-3-12-5-19-6h-8v2l-1 1-1 1c2 1 5 0 7-1l4 2-3 3v1l7 1 1 2v2l-2 1 2 1-1 2 2 1h6v6l7 4-1-13Z" clip-rule="evenodd"/><path fill="#1A1A1A" fill-rule="evenodd" d="M631 80s-9 27-8 32v4l-8 6 9 1v6l2 3s5 23 3 43l-4 40-8 5 8 3s3 27 0 52c0 7 4 12 4 12l4 24-47-7-6-8-2 1-4-7-1 13s0 2-3 2l-2-1s-45 1-62 6l-31 9 6-44s7-3 6-9c2-5 16-11 14-15-1-3-16 0-16 0s1-31 4-45c2-14 1-42-1-45l8-3s-2-9-9-13c-8-3-11-67-14-73 16 4 37 9 49 10l16 3 4 6 9-7s23 4 36 3c14-1 44-7 44-7Z" clip-rule="evenodd"/><path fill="#000" fill-rule="evenodd" d="m623 117-6 4 7 1v1l1 6 2 2v1s5 23 2 43a1348 1348 0 0 0-4 40l-7 4 7 3 1 1s2 27 0 52a20 20 0 0 0 3 12l4 24a1 1 0 0 1 0 1l-48-7-5-8-2 1h-1l-3-5-1 10v1l-1 1h-4c-2 0-46 1-61 6l-32 8a1 1 0 0 1-1-1l6-43 5-4c1-1 2-3 1-5l4-4 7-6 3-3v-1l-1-1-2-1-12 2-1-1s1-31 4-45a173 173 0 0 0 0-46l7-2c-1-2-3-9-9-12l-2-3-4-14-5-47-2-9a1 1 0 0 1 0-1 551 551 0 0 0 66 13l3 5 9-6s23 3 36 2c14-1 44-7 44-7a1 1 0 0 1 1 1l-7 23c-1 4-2 8-1 9v5h-1Zm-55 187a1 1 0 0 0 0 1v-1l2 1c3 0 3-2 3-2l1-13 4 7 2-1 6 8 47 7-4-24s-4-5-4-12c3-25 0-52 0-52l-8-3 8-5 4-40c2-20-3-43-3-43l-2-3v-6l-9-1 8-6v-4c-1-5 8-32 8-32s-30 6-44 7c-13 1-36-3-36-3l-9 7-4-6-16-3c-12-1-33-6-49-10 3 6 6 70 14 73 7 4 9 13 9 13l-8 3c2 3 3 31 1 45-3 14-4 45-4 45s15-3 16 0c2 4-12 10-14 15 1 6-6 9-6 9l-6 44 31-9c15-5 56-6 62-6Z" clip-rule="evenodd"/><path fill="#fff" fill-rule="evenodd" d="m560 202 1-2v-1l1-1v-1h-3l-1-2 6-1-5-1-1-3h3l1-1h-1l-3-1 2-2v-1h-3l1-1 2 1c-1-6-14-4-13-10l5 1c6 0 9 2 13 7l4 4v11c0 3-1 4-3 6-4 2-4 5-7 7l-11 1v-2c2-2 8-2 10-4l2-3h-3v-1h3Zm-4-8-1 4-3-2v1l-1 6v1l-6 4v-2h-1v6c0 3-3 8-6 7-5-7-9-2-15-4l-5-2h-2l-6-1c2 2 5 2 8 2l7 3c2 0 9-2 9 0-2 3-8 3-11 3-5 1-9 0-14-3-12-8-14-28-6-40 3-5 8-9 14-10 3 0 17 0 17 4l-9 1c3 2 8 1 11 0l1-1 2-2c5 0 5 9 7 11 1 2 4 1 6 3l-1 1 1 2v2l1 2-1 1 2-1h2v3h-3l-1 2 4-1Zm-14-16h-1l-1 3 2-3Zm0 32-2-2 1 3 1-1Zm-4-30-4-4h-6l-3 3-1 7 3 4h4l6-6 1-4Zm8 11c-2-2-4-2-6-1s-6 2-6 4l3 2 7 2 1-1v-2l-2-1 3-3Zm-8 14c-1-3-3-6-6-7l-4-2c-3 3-4 4-4 8 0 2 1 5 3 7l6 1c2 0 3-1 4-3l1-4Zm14-18h3v2l-2-1-1-1Zm3 15-1 1h-2l1-1h2Zm56-59c0 5-7 10-10 14l-5 10-6 17a318 318 0 0 1-31 54l-9 12c-2 5-3 15-6 18l-5 2c-2 0-3-2-5-4s-4 1-6 1l-3-2-1-5c3-5 9-6 13-10 6-5 10-12 14-18a261 261 0 0 0 39-78v-9c-1-3-3-5-2-8 0-1 0-3 2-3 4-4 7 3 10 5h7l4 4Zm-71 108-8 4-1 1a11 11 0 0 0 9-5Zm-3 12h5v-1h-1l-5 1-1 1 2-1Zm68-120-1-1c-1 4 0 5-3 8v1l4-5v-3Zm-5-2-6-1 5 2 1-1Zm-47 100c-4 4-10 13-10 18 2-1 2-4 3-6l7-12Zm32-62-8 16c-2 6-6 11-9 16l-3 6c5-6 20-31 20-38Zm9-32-1-4h-1l1 5-1 9v2l2-12Zm-18 43-1 2-2-2c-6-12-13-23-20-33-7-9-13-20-23-25-3-1-3-1-5-4l1-5 2-2c2-1 3 0 4 1 3 0 4-3 7-4 1-1 5 1 6 2 3 5 3 12 6 17 9 15 20 29 28 46l-3 6c-4-8-14-27-20-32l7 10 13 23Zm-29-46c-4-5-7-10-12-13l-1-7v9h1l-1-1h1c3 1 11 12 12 12Zm-4-20-5 1h4l1-1Zm66 118v1c0 2 0 4-2 5-2 2-6 1-8 1l-8 6-3-1c-3-3 0-10 1-13v-5l-4-15c-1-4-5-10-5-14l1-3 7 16 3 8c0-6-7-19-9-25l3-6 6 15c2 6 4 13 8 18 3 5 8 7 10 12Zm-6-1c-1-3-4-5-6-7 1 3 5 5 5 9l-9 4c2-1 9-2 10-4v-2Zm-11-3-1-1-1 8h1l1-4v-3Z" clip-rule="evenodd"/><path fill="#fff" d="M552 187h3v2l-2-1-1-1Z"/><path fill="#070605" d="M623 298v1-1c-5-2-17-27-18-32v-1l3 8 10 17 5 8ZM500 117l-1 1-3-5-13-25 17 29ZM621 93l-12 16-7 9c1-4 15-22 19-25Z"/><path fill="#948676" fill-rule="evenodd" d="M470 324c1-1 2-1 2-3l-10 8h4l4-5Z" clip-rule="evenodd"/><path fill="#000" fill-rule="evenodd" d="m471 325-5 4v1h-4a1 1 0 0 1 0-1 66 66 0 0 1 10-8c0-1 0 0 0 0h1v1l-1 1-1 2Zm-1-1c1-1 2-1 2-3l-10 8h4l4-5Z" clip-rule="evenodd"/><path fill="#948676" fill-rule="evenodd" d="M470 67c1 1 2 1 2 3l-10-8h4l4 5Z" clip-rule="evenodd"/><path fill="#000" fill-rule="evenodd" d="m471 66 1 2 1 2h-1v1l-3-2-7-7a1 1 0 0 1 0-1h4v1l5 4Zm-1 1-4-5h-4l10 8c0-2-1-2-2-3Z" clip-rule="evenodd"/><path fill="#070605" d="m504 279-1 1a451 451 0 0 1 0 0Z"/><path fill="#948676" d="m649 327-1 1h-1c-3-1-6-5-8-7l1-1h1l8 7Z"/><path fill="#000" fill-rule="evenodd" d="M639 321v-1h2l3 2 5 4v2h-2l-4-2-4-5Zm10 6-8-7h-1l-1 1c2 2 5 6 8 7h1l1-1Z" clip-rule="evenodd"/><path fill="#948676" d="m649 63-1-1h-1c-3 1-6 5-8 7l1 1h1l8-7Z"/><path fill="#000" fill-rule="evenodd" d="m639 69 4-5 4-2h2v2l-5 4-3 2h-2v-1Zm10-6-1-1h-1c-3 1-6 5-8 7l1 1h1l8-7Z" clip-rule="evenodd"/><path fill="#948676" d="M464 330h-1c-2 0-8 5-9 6 6-1 7-3 10-6Z"/><path fill="#000" fill-rule="evenodd" d="M465 331c-4 3-5 5-10 6h-1a1 1 0 0 1-1-1 32 32 0 0 1 10-7h1a1 1 0 0 1 1 2Zm-1-1h-1c-2 0-8 5-9 6 6-1 7-3 10-6Z" clip-rule="evenodd"/><path fill="#948676" d="M464 61h-1c-2 0-8-5-9-6 6 1 7 3 10 6Z"/><path fill="#000" fill-rule="evenodd" d="M464 62h-1l-4-2-6-4a1 1 0 0 1 1-1v-1h1c5 1 6 3 10 7a1 1 0 0 1-1 1Zm0-1c-3-3-4-5-10-6 1 1 7 6 9 6h1Z" clip-rule="evenodd"/><path fill="#070605" d="M619 301c-7-3-13-9-18-14l9 7 9 7Z"/><path fill="#948676" d="M479 313h-1l-6 7 1 1 6-8Z"/><path fill="#000" fill-rule="evenodd" d="m480 314-4 5-3 3h-1v-1l-1-1 4-5 3-3h1l1 1v1Zm-1-1h-1l-6 7 1 1 6-8Z" clip-rule="evenodd"/><path fill="#948676" d="M479 78h-1l-6-7 1-1 6 8Z"/><path fill="#000" fill-rule="evenodd" d="m480 78-1 1h-1l-3-3-4-4v-1l1-1h1l3 2 4 5v1Zm-1 0-6-8-1 1 6 7h1Z" clip-rule="evenodd"/><path fill="#948676" d="M633 312h-1c-3-1-5-4-6-6h1l6 6Z"/><path fill="#000" fill-rule="evenodd" d="M633 312h-2l-5-6a1 1 0 0 1 0-1h1l2 1 5 5a1 1 0 0 1-1 1Zm0 0-6-6h-1c1 2 3 5 6 6h1Z" clip-rule="evenodd"/><path fill="#948676" d="M633 78h-1c-3 1-5 4-6 6h1l6-6Z"/><path fill="#000" fill-rule="evenodd" d="m634 79-5 5-2 1h-1a1 1 0 0 1 0-1l5-6h2a1 1 0 0 1 1 1Zm-1-1h-1c-3 1-5 4-6 6h1l6-6Z" clip-rule="evenodd"/><path fill="#948676" fill-rule="evenodd" d="m634 315-1-2 2 1c1 1 4 3 4 5v1l-5-5Z" clip-rule="evenodd"/><path fill="#000" fill-rule="evenodd" d="m633 315-1-1v-1a1 1 0 0 1 1-1l1 1h1l5 6v1h-1l-2-1-4-4Zm1 0 5 5v-1c0-2-3-4-4-5l-2-1 1 2Z" clip-rule="evenodd"/><path fill="#948676" fill-rule="evenodd" d="m634 75-1 2 2-1c1-1 4-3 4-5v-1l-5 5Z" clip-rule="evenodd"/><path fill="#000" fill-rule="evenodd" d="m633 75 4-4 2-1h1v1a22 22 0 0 1-5 6h-1l-1 1a1 1 0 0 1-1-1v-1l1-1Zm1 0-1 2 2-1c1-1 4-3 4-5v-1l-5 5Z" clip-rule="evenodd"/><path fill="#6A6A66" d="m482 79-1 2-1 1-3-1 4-2v-1l1 1ZM629 305h-3l-1 2-1-1v-2l2-1 3 2Z"/><path fill="#fff" d="m556 198-2 3-2-1 1-1 3-1Z"/><path fill="#6A6A66" d="m482 311-1 2-1-1v-1h-2v-1h1l3 1ZM628 86l-2 1-2-1v-2l1-1v2l3 1Z"/><path fill="#fff" d="M561 199v1h-3v-1h3ZM554 184a1 1 0 1 1-1 1 1 1 0 0 1 1-1Z"/><path fill="#303030" d="M484 83v2c-2 2-6 0-8 0-3-1-6-1-9 1h-4l-1-2 1-4c4-1 17-2 20 0l1 3Z"/><path fill="#000" fill-rule="evenodd" d="M485 83v3h-1l-3 1-5-1c-3-1-6-1-9 1h-5l-1-3 1-5h1c3-1 10-2 15-1l6 1 1 4Zm-1 0-1-3c-3-2-16-1-20 0l-1 4 1 2h4c3-2 6-2 9-1 2 0 6 2 8 0v-2Z" clip-rule="evenodd"/><path fill="#303030" d="M477 86v8h-8l-1-8h9Z"/><path fill="#000" fill-rule="evenodd" d="M479 86v8a1 1 0 0 1-2 2h-6l-3-1-1-1v-8l1-2c3 0 7-1 10 1l1 1Zm-2 0h-9l1 8h8v-8Z" clip-rule="evenodd"/><path fill="#494641" d="m476 77-2 1-4-1 3-1 3 1Z"/><path fill="#000" fill-rule="evenodd" d="m477 78-1 1h-4l-3-1a1 1 0 0 1 0-2l4-1 4 1a1 1 0 0 1 0 2Zm-1-1-3-1-3 1 4 1 2-1Z" clip-rule="evenodd"/><path fill="#303030" d="M484 130v-2c-2-1-6 1-8 1-3 1-6 1-9-1h-4l-1 2 1 4c4 1 17 2 20-1l1-3Z"/><path fill="#000" fill-rule="evenodd" d="m485 130-1 4v1l-6 1-15-1-1-1a19 19 0 0 1-1-4l1-3h5c3 2 6 2 9 1l5-1h3l1 1v2Zm-1 0v-2c-2-1-6 1-8 1-3 1-6 1-9-1h-4l-1 2 1 4c4 1 17 2 20-1l1-3Z" clip-rule="evenodd"/><path fill="#303030" d="M477 128v-9l-8 1-1 8h9Z"/><path fill="#000" fill-rule="evenodd" d="M478 129h-10l-1-1v-8l1-1 3-1h6a1 1 0 0 1 2 1v9l-1 1Zm-1-1v-9l-8 1-1 8h9Z" clip-rule="evenodd"/><path fill="#494641" d="M476 136h-2l-4 1h3l3-1Z"/><path fill="#000" fill-rule="evenodd" d="M477 137c-1 2-3 2-4 2l-4-1a1 1 0 0 1 0-2l3-1h5a1 1 0 0 1 0 2Zm-1-1h-2l-4 1h3l3-1Z" clip-rule="evenodd"/><path fill="#3C3C3C" d="M529 103c1 6 0 12-2 18l-36 2 3-11c0-7 0-14-2-20l35 2c2 3 2 6 2 9Z"/><path fill="#000" fill-rule="evenodd" d="M531 103c0 6 0 13-2 18l-2 1-36 2a1 1 0 0 1-1-2l2-10c1-7 0-13-2-20a1 1 0 0 1 2-2l35 2 2 1 2 10Zm-2 0c0-3 0-6-2-9l-35-2c2 6 2 13 2 20l-3 11 36-2c2-6 3-12 2-18Z" clip-rule="evenodd"/><path fill="#3C3C3C" d="m567 106-2 13-31 2 3-12c0-6 0-10-3-15 10 1 21 0 31 2l2 10Z"/><path fill="#000" fill-rule="evenodd" d="M568 106c1 5 0 9-2 14l-1 1a2094 2094 0 0 1-32-1l3-11c0-5-1-10-3-14a1 1 0 0 1 1-2l31 1 1 1c2 4 2 7 2 11Zm-1 0-2-10c-10-2-21-1-31-2a32 32 0 0 1 0 27l31-2 2-13Z" clip-rule="evenodd"/><path fill="#3C3C3C" d="M487 104c0 6 0 12-2 19l-13 1h-12l2-7v-7h3v3h4l1-3h1l2-3c0-2-2-2-3-3l-1-2-1-1c-2 0-2 2-4 3l-1 1-1-2v-5l-2-8 25 1 2 13Z"/><path fill="#000" fill-rule="evenodd" d="m471 107-1-1-1-1-1-2v-1l-1 1-2 2-1 1h-2l-1-2-1-6-1-7a1 1 0 0 1 1-2l25 1 1 1 2 13c1 6 0 13-2 19l-1 1-13 1h-12a1 1 0 0 1-1-1l1-7 1-8h1l3-1 1 1v2l1 1h1l1-2 1-1a4 4 0 0 0 1-1v-1Zm16-3-2-13-25-1 2 8v5l1 2 1-1c2-1 2-3 4-3l1 1 1 2c1 1 3 1 3 3l-2 3h-1l-1 3h-4v-3h-3v7l-2 7h12l13-1c2-7 2-13 2-19Z" clip-rule="evenodd"/><path fill="#3C3C3C" d="m586 94 2 3c3 8 2 16-1 24-6-2-9-2-15-2a31 31 0 0 0 0-23l12-1 2-1Z"/><path fill="#000" fill-rule="evenodd" d="m587 93 2 3c3 9 2 17-1 25l-1 1c-7-2-9-2-15-1a1 1 0 0 1-2-2c3-6 3-15 1-21v-2a1 1 0 0 1 1-2h12l2-1h1Zm-1 1-2 1-12 1v1c3 7 3 16 0 22 6 0 9 0 15 2 3-8 4-16 1-24l-2-3Z" clip-rule="evenodd"/><path fill="#3C3C3C" d="M454 102c0 7 0 15-2 22l-4-2c-4-2-7-6-8-10v-10c2-5 5-8 9-10l3-1c2 2 2 8 2 11Z"/><path fill="#000" fill-rule="evenodd" d="M455 102c1 7 1 15-1 22a1 1 0 0 1-2 1l-4-1c-5-3-8-7-10-12l1-11a18 18 0 0 1 12-11h2l2 5v7Zm-1 0c0-3 0-9-2-11l-3 1c-4 2-7 5-9 10v10c1 4 4 8 8 10l4 2c2-7 2-15 2-22Z" clip-rule="evenodd"/><path fill="#9E8457" fill-rule="evenodd" d="M461 110v3c-1 2-1 11-3 13l-5-1 2-10V96c0-2-2-6-1-7h4c2 4 3 10 3 15h-4v6h4Zm-3 10a1 1 0 1 0-2 2 1 1 0 0 0 2-2Zm0-27a1 1 0 1 0-2 1 1 1 0 0 0 2-1Z" clip-rule="evenodd"/><path fill="#000" fill-rule="evenodd" d="M462 110v3l-1 10-2 4h-6a1 1 0 0 1-1-2l2-10-1-19-1-5v-2l1-1 5-1 1 1c3 5 3 11 3 16v1l-2 1h-2v2h3a1 1 0 0 1 1 2Zm-1 0h-4v-6h4c0-5-1-11-3-15h-4c-1 1 1 5 1 7v19l-2 10 5 1c2-2 2-11 3-13v-3Zm-3 10a1 1 0 1 1-2 2 1 1 0 0 1 2-2Zm-1 1Zm1-28a1 1 0 1 1-2 1 1 1 0 0 1 2-1Zm-1 0Z" clip-rule="evenodd"/><path fill="#9E8457" fill-rule="evenodd" d="m536 105-1 10c0 2-1 6-3 7h-4l1-2 1-9c1-6 1-13-3-19h5c3 4 4 8 4 13Zm-3 14a1 1 0 1 0-3 1 1 1 0 0 0 3-1Zm0-24a1 1 0 1 0-2 2 1 1 0 0 0 2-2Zm1 11a2 2 0 1 0-2 2 2 2 0 0 0 2-2ZM493 109l-3 15h-5c5-9 4-19 2-28l-1-6c1-1 4 0 4 1 2 4 3 10 3 14v4Zm-1-3a1 1 0 1 0-3 2 1 1 0 0 0 3-2Zm-1 12a1 1 0 1 0-3 1 1 1 0 0 0 3-1Zm0-23a1 1 0 1 0-3 1 1 1 0 0 0 3-1Z" clip-rule="evenodd"/><path fill="#000" fill-rule="evenodd" d="M494 109c0 5-1 11-3 15l-1 1h-5l-1-2c4-8 3-18 2-27l-1-3-1-3 1-1 3-1 3 2c2 4 3 11 3 15v4Zm-1 0v-4c0-4-1-10-3-14 0-1-3-2-4-1l1 6c2 9 3 19-2 28h5l3-15Zm-2 9a1 1 0 1 1-3 1 1 1 0 0 1 3-1Zm-2 1Zm3-13a1 1 0 1 1-3 2 1 1 0 0 1 3-2Zm-2 1Zm1-12a1 1 0 1 1-3 1 1 1 0 0 1 3-1Zm-1 1h-1 1Z" clip-rule="evenodd"/><path fill="#9E8457" d="M573 104c0 6 0 12-4 17h-4c2-3 2-6 3-10 1-6 0-12-3-17h4l4 10Z"/><path fill="#000" fill-rule="evenodd" d="M574 104c1 7 0 12-4 18h-5a1 1 0 0 1-1-2l3-9c0-5 0-12-4-16a1 1 0 0 1 2-3h4l1 1a28 28 0 0 1 4 11Zm-1 0-4-10h-4c3 5 4 11 3 17-1 4-1 7-3 10h4c4-5 4-11 4-17Z" clip-rule="evenodd"/><path fill="#9E8457" d="M595 103c0 5 0 15-3 18l-3 1h-1l2-9c1-6 0-14-3-20h4c3 2 3 7 4 10Z"/><path fill="#000" fill-rule="evenodd" d="m596 103-1 12-2 7-4 2h-1l-1-1v-4l2-6c1-6 0-14-3-19a1 1 0 0 1 1-2l3-1 2 1 3 4 1 7Zm-1 0c-1-3-1-8-4-10h-4c3 6 4 14 3 20l-2 9h1l3-1c3-3 3-13 3-18Z" clip-rule="evenodd"/><path fill="#303030" d="M523 81v2c-2 1-6-1-8-1-3-1-6-1-9 1h-4l-1-2 1-4c5 0 17-2 20 1l1 3Z"/><path fill="#000" fill-rule="evenodd" d="M525 81v1l-1 1v1h-4l-5-1-9 1h-5l-1-3 1-4 1-1 15-1 6 1v1l2 4Zm-2 0-1-3c-3-3-15-1-20-1l-1 4 1 2h4c3-2 6-2 9-1 2 0 6 2 8 1v-2Z" clip-rule="evenodd"/><path fill="#303030" d="m516 83 1 9-9-1v-8h8Z"/><path fill="#000" fill-rule="evenodd" d="M518 83v9a1 1 0 0 1-2 1h-6l-3-1-1-1v-8l1-1h10l1 1Zm-2 0h-8v8l9 1-1-9Z" clip-rule="evenodd"/><path fill="#9E8457" fill-rule="evenodd" d="M507 86v3h-4c-3 0-4-1-3-3h7Zm-6 1a1 1 0 1 0 2 1 1 1 0 0 0-2-1Z" clip-rule="evenodd"/><path fill="#000" fill-rule="evenodd" d="M508 86v3l-1 2h-4l-4-2v-4l1-1h7a1 1 0 0 1 1 2Zm-1 0h-7c-1 2 0 3 3 3h4v-3Zm-6 1a1 1 0 1 1 2 1 1 1 0 0 1-2-1Zm1 0v1-1Z" clip-rule="evenodd"/><path fill="#9E8457" fill-rule="evenodd" d="M520 86c2 0 3 0 5 2 0 2-2 2-4 2h-3v-3l2-1Zm2 1a1 1 0 1 0 1 2 1 1 0 0 0-1-2Z" clip-rule="evenodd"/><path fill="#000" fill-rule="evenodd" d="M520 85c3 0 4 0 6 2v1l-1 2-1 1h-6a1 1 0 0 1-2-1v-2l1-2v-1h3Zm0 1-2 1v3h3c2 0 4 0 4-2-2-2-3-2-5-2Zm2 1a1 1 0 1 1 1 2 1 1 0 0 1-1-2Zm0 1h1-1Z" clip-rule="evenodd"/><path fill="#494641" d="M515 75h-6l3-1 3 1Z"/><path fill="#000" fill-rule="evenodd" d="M516 76h-3l-2 1-3-1a1 1 0 0 1 1-3l3-1c1 0 3 0 4 2a1 1 0 0 1 0 2Zm-1-1-3-1-3 1h6Z" clip-rule="evenodd"/><path fill="#303030" d="M523 132v5c-4 2-16 2-20 1l-1-2v-4h5c3 3 8 0 12 0h4Z"/><path fill="#000" fill-rule="evenodd" d="M525 132v2l-1 4h-1l-7 2-13-1-2-2v-1l-1-4a1 1 0 0 1 2-2h4l1 1h1l5 1 6-1h4l2 1Zm-2 0h-4c-4 0-9 3-12 0h-5v4l1 2c4 1 16 1 20-1v-5Z" clip-rule="evenodd"/><path fill="#303030" d="M517 123v6l-1 3h-8v-9h9Z"/><path fill="#000" fill-rule="evenodd" d="M518 123v6l-2 4-2 1-7-1-1-1v-9l2-1a357 357 0 0 0 10 1Zm-1 0h-9v9h8l1-3v-6Z" clip-rule="evenodd"/><path fill="#785F33" d="m436 105-1 5h-2l-4 2-1-2v-6h4l4 1Z"/><path fill="#000" fill-rule="evenodd" d="M437 105v4l-1 2h-1l-2 1-2 1h-3a6 6 0 0 1-2-3v-6l2-2 5 1h3a1 1 0 0 1 1 2Zm-1 0-4-1h-4v6l1 2 4-2h2l1-5Z" clip-rule="evenodd"/><path fill="#9E8457" d="M471 105v3l-13 1v-4h13Z"/><path fill="#000" fill-rule="evenodd" d="M473 105v3l-1 1v1h-14a1 1 0 0 1-2-1v-4a1 1 0 0 1 2-1h13l2 1Zm-2 0h-13v4l13-1v-3Z" clip-rule="evenodd"/><path fill="#3C3C3C" d="M597 106c0 5 0 10-3 14l1-4 1-7c0-6 0-8-2-14h1c2 3 2 8 2 11Z"/><path fill="#000" fill-rule="evenodd" d="M598 106c1 6 0 11-3 15a1 1 0 0 1-2-1l1-4 1-7-2-13v-2h3v1c2 3 2 8 2 11Zm-1 0c0-3 0-8-2-11h-1a39 39 0 0 1 1 21l-1 4c3-4 3-9 3-14Z" clip-rule="evenodd"/><path fill="#9E8457" fill-rule="evenodd" d="m522 128-4 1v-4h6l1 1c0 3-1 2-3 2Zm0-2a1 1 0 1 0 1 2 1 1 0 0 0-1-2Z" clip-rule="evenodd"/><path fill="#000" fill-rule="evenodd" d="M522 130h-4a1 1 0 0 1-2-1v-4a1 1 0 0 1 2-2h6v1c1 0 2 0 2 2l-1 3-1 1h-2Zm0-2c2 0 3 1 3-2l-1-1h-6v4l4-1Zm0-2a1 1 0 1 1 1 2 1 1 0 0 1-1-2Zm1 1h-1 1Z" clip-rule="evenodd"/><path fill="#9E8457" fill-rule="evenodd" d="M507 125v4h-4c-3 0-4-2-3-4h7Zm-6 2a1 1 0 1 0 2 1 1 1 0 0 0-2-1Z" clip-rule="evenodd"/><path fill="#000" fill-rule="evenodd" d="M508 125v4l-1 1h-4l-4-1v-4l1-1h7a1 1 0 0 1 1 1Zm-1 0h-7c-1 2 0 4 3 4h4v-4Zm-6 2a1 1 0 1 1 2 1 1 1 0 0 1-2-1Zm1 0Z" clip-rule="evenodd"/><path fill="#9E8457" d="M438 102v10h-1v-7l1-3Z"/><path fill="#000" fill-rule="evenodd" d="M440 102v7l-1 3-1 1h-1l-1-1-1-8 3-3a1 1 0 0 1 2 1Zm-2 0-1 3v7h1v-10Z" clip-rule="evenodd"/><path fill="#AA9673" d="M469 102v2h-4l1-1 1-1h2Z"/><path fill="#000" fill-rule="evenodd" d="m471 102-1 3h-5l-1-1v-2l3-2 3 1 1 1Zm-2 0h-2l-1 1-1 1h4v-2Z" clip-rule="evenodd"/><path fill="#AA9673" d="M469 109v3h-3v-2l3-1Z"/><path fill="#000" fill-rule="evenodd" d="m471 110-1 3h-1l-3 1-1-2v-3l4-1a1 1 0 0 1 2 2Zm-2-1-3 1v2h3v-3Z" clip-rule="evenodd"/><path fill="#494641" d="m515 140-1 1-5-1h6Z"/><path fill="#000" fill-rule="evenodd" d="m516 141-1 1h-6l-1-2v-1h7a1 1 0 0 1 1 2Zm-1-1h-6l5 1 1-1Z" clip-rule="evenodd"/><path fill="#303030" d="M484 258v2c-2 2-6 0-8-1-3 0-6 0-9 2h-4l-1-2 1-4c4-1 17-2 20 0l1 3Z"/><path fill="#000" fill-rule="evenodd" d="M485 258v3h-1l-3 1-5-1c-3-1-6-1-9 1h-5l-1-3v-1l1-4 1-1h15l6 1 1 4Zm-1 0-1-3c-3-2-16-1-20 0l-1 4 1 2h4c3-2 6-2 9-2 2 1 6 3 8 1v-2Z" clip-rule="evenodd"/><path fill="#303030" d="M477 261v8h-8l-1-8h9Z"/><path fill="#000" fill-rule="evenodd" d="M479 261v8a1 1 0 0 1-2 2h-6l-3-1-1-1v-8l1-2h10l1 2Zm-2 0h-9l1 8h8v-8Z" clip-rule="evenodd"/><path fill="#494641" d="m476 252-2 1-4-1 3-1 3 1Z"/><path fill="#000" fill-rule="evenodd" d="m477 253-1 1h-4l-3-1a1 1 0 0 1 0-2l4-1 4 1a1 1 0 0 1 0 2Zm-1-1-3-1-3 1 4 1 2-1Z" clip-rule="evenodd"/><path fill="#303030" d="M484 305v-2c-2-1-6 1-8 1-3 1-6 1-9-1h-4l-1 2 1 4c4 0 17 2 20-1l1-3Z"/><path fill="#000" fill-rule="evenodd" d="m485 305-1 4v1l-6 1-15-1-1-1a19 19 0 0 1-1-4l1-3h5l9 1 5-1h3l1 1v2Zm-1 0v-2c-2-1-6 1-8 1-3 1-6 1-9-1h-4l-1 2 1 4c4 0 17 2 20-1l1-3Z" clip-rule="evenodd"/><path fill="#303030" d="M477 303v-9l-8 1-1 8h9Z"/><path fill="#000" fill-rule="evenodd" d="M478 304h-10l-1-1v-8l1-1 3-1h6a1 1 0 0 1 2 1v9l-1 1Zm-1-1v-9l-8 1-1 8h9Z" clip-rule="evenodd"/><path fill="#494641" d="M476 311h-6l3 1 3-1Z"/><path fill="#000" fill-rule="evenodd" d="M477 312c-1 2-3 2-4 2l-4-1a1 1 0 0 1 0-3l3-1 2 1h3a1 1 0 0 1 0 2Zm-1-1h-6l3 1 3-1Z" clip-rule="evenodd"/><path fill="#3C3C3C" d="M529 278c1 6 0 12-2 18l-36 2 3-11c0-7 0-14-2-20l35 2c2 3 2 6 2 9Z"/><path fill="#000" fill-rule="evenodd" d="M531 278c0 6 0 12-2 18l-2 1-36 2a1 1 0 0 1-1-2l2-11c1-6 0-12-2-19a1 1 0 0 1 2-2l35 2 2 1 2 10Zm-2 0c0-3 0-6-2-9l-35-2c2 6 2 13 2 20l-3 11 36-2c2-6 3-12 2-18Z" clip-rule="evenodd"/><path fill="#3C3C3C" d="m567 281-2 13-31 2 3-12c0-6 0-10-3-15l31 1 2 11Z"/><path fill="#000" fill-rule="evenodd" d="M568 281c1 5 0 9-2 14h-1a2109 2109 0 0 1-32 0l3-11c0-6-1-10-3-14a1 1 0 0 1 1-2l31 1 1 1c2 3 2 7 2 11Zm-1 0-2-11-31-1a32 32 0 0 1 0 27l31-2 2-13Z" clip-rule="evenodd"/><path fill="#3C3C3C" d="M487 279c0 6 0 12-2 19h-13l-12 1 2-7v-7h3v3h4l1-3h1l2-3c0-2-2-2-3-3l-1-2-1-2-4 4h-1l-1-1v-5l-2-8 25 1 2 13Z"/><path fill="#000" fill-rule="evenodd" d="m471 282-1-1-1-1-1-2v-1l-1 1-2 2-1 1h-1l-1-1-1-1-1-6-1-7a1 1 0 0 1 1-2l25 1 1 1 2 12c1 7 0 13-2 20l-1 1-13 1h-12a1 1 0 0 1-1-1l1-7 1-8h1l3-1 1 1v2l1 1 1-1 1-1 1-1v-1a4 4 0 0 0 1-1Zm16-3-2-13-25-1 2 8v5l1 1h1l4-4 1 2 1 2c1 1 3 1 3 3l-2 3h-1l-1 3h-4v-3h-3v7l-2 7 12-1h13c2-7 2-13 2-19Z" clip-rule="evenodd"/><path fill="#3C3C3C" d="m586 269 2 2c3 9 2 17-1 24l-15-1a31 31 0 0 0 0-23l12-1 2-1Z"/><path fill="#000" fill-rule="evenodd" d="m587 268 2 3c3 9 2 17-1 25l-1 1c-7-2-9-2-15-1a1 1 0 0 1-2-2c3-7 3-15 1-21v-2a1 1 0 0 1 1-2h12l2-1h1Zm-1 1-2 1-12 1v1c3 7 3 16 0 22l15 1c3-7 4-15 1-24l-2-2Z" clip-rule="evenodd"/><path fill="#3C3C3C" d="M454 277c0 7 0 15-2 22l-4-2c-4-2-7-6-8-10v-11c2-4 5-7 9-9l3-1c2 2 2 8 2 11Z"/><path fill="#000" fill-rule="evenodd" d="M455 277c1 7 1 15-1 22a1 1 0 0 1-2 1l-4-2c-5-2-8-6-10-11l1-11a18 18 0 0 1 12-11h2l2 5v7Zm-1 0c0-3 0-9-2-11l-3 1c-4 2-7 5-9 9v11c1 4 4 8 8 10l4 2c2-7 2-15 2-22Z" clip-rule="evenodd"/><path fill="#9E8457" fill-rule="evenodd" d="M461 285v3c-1 2-1 11-3 12h-5l2-10v-19c0-2-2-6-1-7l4-1c2 5 3 11 3 16h-4v6h4Zm-3 10a1 1 0 1 0-2 2 1 1 0 0 0 2-2Zm0-27a1 1 0 1 0-2 1 1 1 0 0 0 2-1Z" clip-rule="evenodd"/><path fill="#000" fill-rule="evenodd" d="M462 285v3l-1 10-2 4h-6a1 1 0 0 1-1-2l2-10-1-19-1-5v-2l1-1 5-1 1 1c3 5 3 11 3 16v1h-4v3h3a1 1 0 0 1 1 2Zm-1 0h-4v-6h4c0-5-1-11-3-16l-4 1c-1 1 1 5 1 7v19l-2 10h5c2-1 2-10 3-12v-3Zm-3-17a1 1 0 1 1-2 1 1 1 0 0 1 2-1Zm-1 0Zm1 27a1 1 0 1 1-2 2 1 1 0 0 1 2-2Zm-1 1Z" clip-rule="evenodd"/><path fill="#9E8457" fill-rule="evenodd" d="m536 280-1 10c0 2-1 6-3 7h-4l1-2 1-9c1-7 1-13-3-19h5c3 4 4 8 4 13Zm-3 14a1 1 0 1 0-3 0 1 1 0 0 0 3 0Zm0-24a1 1 0 1 0-2 1 1 1 0 0 0 2-1Zm1 11a2 2 0 1 0-2 2 2 2 0 0 0 2-2Z" clip-rule="evenodd"/><path fill="#000" fill-rule="evenodd" d="M537 280a31 31 0 0 1-2 15l-2 3-5 1-1-1-1-1 1-1v-1c2-3 2-6 2-9 0-6 1-13-3-18a1 1 0 0 1 1-2h6c3 4 4 9 4 14Zm-1 0c0-5-1-9-4-13h-5c4 6 4 12 3 19l-1 9-1 2h4c2-1 3-5 3-7l1-10Zm-2 1a2 2 0 1 1-2 2 2 2 0 0 1 2-2Zm-1 1Zm0-12a1 1 0 1 1-2 1 1 1 0 0 1 2-1Zm-1 1Zm1 23a1 1 0 1 1-3 0 1 1 0 0 1 3 0Zm-1 0h-1 1Z" clip-rule="evenodd"/><path fill="#9E8457" fill-rule="evenodd" d="M493 283c0 5-1 11-3 16h-5c5-9 4-19 2-28l-1-6c1-1 4 0 4 1 2 3 3 10 3 14v3Zm-1-2a1 1 0 1 0-3 2 1 1 0 0 0 3-2Zm-1 12a1 1 0 1 0-3 1 1 1 0 0 0 3-1Zm0-23a1 1 0 1 0-3 1 1 1 0 0 0 3-1Z" clip-rule="evenodd"/><path fill="#000" fill-rule="evenodd" d="M494 283c0 6-1 11-3 16l-1 1h-5l-1-2c4-8 3-18 2-27l-1-3-1-3 1-1 3-1c2 0 3 1 3 2 2 4 3 11 3 15v3Zm-1 0v-3c0-4-1-11-3-14 0-1-3-2-4-1l1 6c2 9 3 19-2 28h5c2-5 3-11 3-16Zm-2 10a1 1 0 1 1-3 1 1 1 0 0 1 3-1Zm-2 1Zm3-13a1 1 0 1 1-3 2 1 1 0 0 1 3-2Zm-2 1Zm1-12a1 1 0 1 1-3 1 1 1 0 0 1 3-1Zm-1 0h-1 1Z" clip-rule="evenodd"/><path fill="#9E8457" d="M573 279c0 6 0 12-4 17h-4c2-3 2-6 3-10 1-6 0-12-3-17h4l4 10Z"/><path fill="#000" fill-rule="evenodd" d="M574 279c1 7 0 12-4 18h-5a1 1 0 0 1-1-2l3-9c0-6 0-12-4-16a1 1 0 0 1 2-3h4l1 1a28 28 0 0 1 4 11Zm-1 0-4-10h-4c3 5 4 11 3 17-1 4-1 7-3 10h4c4-5 4-11 4-17Z" clip-rule="evenodd"/><path fill="#9E8457" d="M595 278c0 5 0 14-3 18l-3 1h-1l2-9c1-6 0-15-3-20h4c3 2 3 7 4 10Z"/><path fill="#000" fill-rule="evenodd" d="m596 278-1 12-2 7-4 2h-1l-1-1v-4l2-6c1-6 0-14-3-19a1 1 0 0 1 1-2l3-1 2 1 3 4 1 7Zm-1 0c-1-3-1-8-4-10h-4c3 5 4 14 3 20l-2 9h1l3-1c3-4 3-13 3-18Z" clip-rule="evenodd"/><path fill="#303030" d="M523 256v2c-2 1-6-1-8-1-3-1-6-1-9 1h-4l-1-2 1-4c5-1 17-2 20 1l1 3Z"/><path fill="#000" fill-rule="evenodd" d="M525 256v1l-1 1v1h-4l-5-1c-3-1-6-1-9 1h-5l-1-3 1-4 1-1 15-1 6 1v1l2 4Zm-2 0-1-3c-3-3-15-2-20-1l-1 4 1 2h4c3-2 6-2 9-1 2 0 6 2 8 1v-2Z" clip-rule="evenodd"/><path fill="#303030" d="m516 258 1 9-9-1v-8h8Z"/><path fill="#000" fill-rule="evenodd" d="M518 258v9a1 1 0 0 1-2 1h-6l-3-1-1-1v-8l1-1h10l1 1Zm-2 0h-8v8l9 1-1-9Z" clip-rule="evenodd"/><path fill="#9E8457" fill-rule="evenodd" d="M507 261v3h-4c-3 0-4-1-3-3h7Zm-6 1a1 1 0 1 0 2 1 1 1 0 0 0-2-1Z" clip-rule="evenodd"/><path fill="#000" fill-rule="evenodd" d="M508 261v3l-1 2h-4l-4-2v-4l1-1h7a1 1 0 0 1 1 2Zm-1 0h-7c-1 2 0 3 3 3h4v-3Zm-6 1a1 1 0 1 1 2 1 1 1 0 0 1-2-1Zm1 0v1-1Z" clip-rule="evenodd"/><path fill="#9E8457" fill-rule="evenodd" d="M520 261c2 0 3 0 5 2 0 2-2 2-4 2h-3v-3l2-1Zm2 1a1 1 0 1 0 1 2 1 1 0 0 0-1-2Z" clip-rule="evenodd"/><path fill="#000" fill-rule="evenodd" d="M520 260c3 0 4 0 6 2v1l-1 2-1 1h-6a1 1 0 0 1-2-1v-2l1-2v-1h3Zm0 1-2 1v3h3c2 0 4 0 4-2-2-2-3-2-5-2Zm2 1a1 1 0 1 1 1 2 1 1 0 0 1-1-2Zm0 1h1-1Z" clip-rule="evenodd"/><path fill="#494641" d="M515 250h-2l-4-1h3l3 1Z"/><path fill="#000" fill-rule="evenodd" d="M516 251h-5l-3-1a1 1 0 0 1 1-2l3-1c1 0 3 0 4 2a1 1 0 0 1 0 2Zm-1-1-3-1h-3l4 1h2Z" clip-rule="evenodd"/><path fill="#303030" d="M523 307v5c-4 2-16 2-20 1l-1-2v-4l4-1 1 1c3 3 8 0 12 0h4Z"/><path fill="#000" fill-rule="evenodd" d="M525 307v2l-1 4h-1l-7 2-13-1-2-2v-1l-1-4a1 1 0 0 1 2-2h5v1h1l5 1 6-2h4l2 2Zm-2 0h-4c-4 0-9 3-12 0l-1-1-4 1v4l1 2c4 1 16 1 20-1v-5Z" clip-rule="evenodd"/><path fill="#303030" d="M517 298v6l-1 3c-2 1-6 0-8-1v-8h9Z"/><path fill="#000" fill-rule="evenodd" d="M518 298v6l-2 4h-9l-1-1v-9l2-1a357 357 0 0 0 10 1Zm-1 0h-9v8c2 1 6 2 8 1l1-3v-6Z" clip-rule="evenodd"/><path fill="#785F33" d="m436 280-1 5h-2l-4 2-1-2v-7l4 1 4 1Z"/><path fill="#000" fill-rule="evenodd" d="M437 280v4l-1 2h-3l-2 2h-3a6 6 0 0 1-2-3v-6l2-2 5 1h3a1 1 0 0 1 1 2Zm-1 0-4-1-4-1v7l1 2 4-2h2l1-5Z" clip-rule="evenodd"/><path fill="#9E8457" d="M471 280v3l-13 1v-4h13Z"/><path fill="#000" fill-rule="evenodd" d="M473 280v3l-1 1v1h-14a1 1 0 0 1-2-1v-4a1 1 0 0 1 2-2l13 1 2 1Zm-2 0h-13v4l13-1v-3Z" clip-rule="evenodd"/><path fill="#3C3C3C" d="M597 281c0 5 0 10-3 14l1-4 1-7c0-6 0-8-2-14h1c2 3 2 8 2 11Z"/><path fill="#000" fill-rule="evenodd" d="M598 281c1 6 0 11-3 15a1 1 0 0 1-2-1l1-4 1-7-2-13v-2h3v1c2 2 2 8 2 11Zm-1 0c0-3 0-8-2-11h-1a39 39 0 0 1 1 21l-1 4c3-4 3-9 3-14Z" clip-rule="evenodd"/><path fill="#9E8457" fill-rule="evenodd" d="M522 303h-4v-3h6l1 1c0 3-1 2-3 2Zm0-2a1 1 0 1 0 1 2 1 1 0 0 0-1-2Z" clip-rule="evenodd"/><path fill="#000" fill-rule="evenodd" d="M522 305h-4a1 1 0 0 1-2-2v-3a1 1 0 0 1 2-2h6v1c1 0 2 0 2 2l-1 3-1 1h-2Zm0-2c2 0 3 1 3-2l-1-1h-6v3h4Zm0-2a1 1 0 1 1 1 2 1 1 0 0 1-1-2Zm1 1v-1h-1l1 1Z" clip-rule="evenodd"/><path fill="#9E8457" fill-rule="evenodd" d="M507 300v4h-4c-3 0-4-2-3-4h7Zm-6 1a1 1 0 1 0 2 1 1 1 0 0 0-2-1Z" clip-rule="evenodd"/><path fill="#000" fill-rule="evenodd" d="M508 300v4l-1 1h-4l-4-1v-4l1-1h7a1 1 0 0 1 1 1Zm-1 0h-7c-1 2 0 4 3 4h4v-4Zm-6 1a1 1 0 1 1 2 1 1 1 0 0 1-2-1Zm1 1Z" clip-rule="evenodd"/><path fill="#9E8457" d="M438 277v10h-1v-8l1-2Z"/><path fill="#000" fill-rule="evenodd" d="M440 277v7l-1 3-1 1h-1l-1-1-1-8 3-3a1 1 0 0 1 2 1Zm-2 0-1 2v8h1v-10Z" clip-rule="evenodd"/><path fill="#AA9673" d="M469 277v2h-4l1-1 1-2 2 1Z"/><path fill="#000" fill-rule="evenodd" d="m471 277-1 3h-5l-1-2v-1l3-2 3 1 1 1Zm-2 0-2-1-1 2-1 1h4v-2Z" clip-rule="evenodd"/><path fill="#AA9673" d="M469 284v3h-3v-2l3-1Z"/><path fill="#000" fill-rule="evenodd" d="m471 284-1 4h-4l-1-1v-3l4-1a1 1 0 0 1 2 1Zm-2 0-3 1v2h3v-3Z" clip-rule="evenodd"/><path fill="#494641" d="m515 315-1 1-5-1h6Z"/><path fill="#000" fill-rule="evenodd" d="m516 316-1 1h-6l-1-2v-1l1-1 6 1a1 1 0 0 1 1 2Zm-1-1h-6l5 1 1-1Z" clip-rule="evenodd"/><path fill="#3D352E" fill-rule="evenodd" d="m117 74-2 2s-3 2-2 6l5 1s-3-3-1-9ZM117 316l-2-2s-3-2-2-6l5-1s-3 3-1 9ZM201 74l2 2s2 2 2 5l-4 1s2-2 0-8ZM201 316l2-1 2-6-4-1s2 3 0 8Z" clip-rule="evenodd"/><path fill="#271B14" d="M198 182h-1l-10 1-21-1v-1l8 1h24ZM177 185h-33l1-1 7 1h25ZM162 208v1h-11l-21-1h32ZM152 191h-11l-21-1h8l24 1ZM168 202h-1l-6 1-12-1v-1l4 1h15Z"/><path fill="#36352C" d="M177 259c0 10 1 19-1 28l-25-2-38-1v-55c21 1 41 3 63-1l1 31Z"/><path fill="#000" fill-rule="evenodd" d="M178 259c0 10 1 19-1 28l-1 1-25-1a534 534 0 0 0-40-3v-55a1 1 0 0 1 2-1c21 0 41 3 62-1l2 1c2 10 1 21 1 31Zm-1 0-1-31c-22 4-42 2-63 1v55l38 1 25 2c2-9 1-18 1-28Z" clip-rule="evenodd"/><path fill="#050303" d="M118 236v12l-1 14c0 3 2 17 1 19h-1v-36l1-9ZM149 238v38h-1c0-5-1-35 1-38Z"/><path fill="#130C09" d="m131 249-1 29v-39l1 10Z"/><path fill="#36352C" d="M111 247v38l-12 5H87c-11-2-14-10-23-13h-5v-25l3-1c7-1 11-8 15-13 8-12 22-8 34-10v19Z"/><path fill="#000" fill-rule="evenodd" d="m113 247-1 38-1 2-11 4H87c-6-1-10-3-13-6l-10-7h-5l-1-1v-5l-1-8v-12a1 1 0 0 1 2-2h3c3 0 6-3 8-5l6-8c4-6 10-8 16-9l19-2a1 1 0 0 1 1 2l1 19Zm-2 0v-19c-12 2-26-2-34 10-4 5-8 12-15 13l-3 1v25h5c9 3 12 11 23 13h12l12-5v-38Z" clip-rule="evenodd"/><path fill="#050303" d="M104 248c0 5 0 29-2 32v-34l-1-10h1l2 12ZM92 257c1 7 1 17-1 24v-21l-1-23h1l1 20ZM85 259c0 8 0 16-2 23l1-23c0-8-2-16-1-24l2 24Z"/><path fill="#36352C" d="m175 289-5 6c-13 7-42 1-55-2l-2-4v-2c3-3 54 2 62 2Z"/><path fill="#000" fill-rule="evenodd" d="M176 289c-1 3-3 6-6 7-5 3-13 4-21 3a164 164 0 0 1-35-5l-3-4 1-4 2-1h6c15-1 49 2 55 3a1 1 0 0 1 1 1Zm-1 0c-8 0-59-5-62-2v2l2 4c13 3 42 9 55 2l5-6Z" clip-rule="evenodd"/><path fill="#36352C" d="M174 226c-1 2-5 2-7 2-18 2-36 0-54-1v-5h1l12-2c9-1 19-3 28-2 7 1 15 2 20 8Z"/><path fill="#000" fill-rule="evenodd" d="m175 228-3 1h-4c-19 2-37 0-55 0l-2-2 1-5v-1h1c4-2 9-2 13-2 9-2 19-3 28-2 8 0 16 2 21 9a1 1 0 0 1 0 2Zm-1-2c-5-6-13-7-20-8-9-1-19 1-28 2l-12 2h-1v5c18 1 36 3 54 1 2 0 6 0 7-2Z" clip-rule="evenodd"/><path fill="#36352C" d="m85 221 1-1h-5c-6 0-11 2-15 5-5 4-8 9-8 15 0 3-1 7 1 9l2 1c2 0 5-3 6-4l2-7c3-10 7-14 16-18Z"/><path fill="#000" fill-rule="evenodd" d="M85 222c-8 4-12 8-15 17l-1 7-1 1-4 3-3 2-3-2-2-4 1-6c0-6 3-12 8-16 4-3 10-5 16-5h5a1 1 0 0 1 1 1v1l-1 1h-1Zm0-1 1-1h-5c-6 0-11 2-15 5-5 4-8 9-8 15 0 3-1 7 1 9l2 1c2 0 5-3 6-4l2-7c3-10 7-14 16-18Z" clip-rule="evenodd"/><path fill="#36352C" d="m110 222-3-2c-8-2-18 0-24 3-8 4-12 11-14 18v3l7-8c8-10 22-9 34-10v-4Z"/><path fill="#000" fill-rule="evenodd" d="M112 222v4l-1 2-19 1c-6 1-11 3-15 8l-5 6-3 3a1 1 0 0 1-2-1l1-4c2-8 6-15 14-19 7-3 17-6 25-3l5 2v1Zm-2 0-3-2c-8-2-18 0-24 3-8 4-12 11-14 18v3l7-8c8-10 22-9 34-10v-4Z" clip-rule="evenodd"/><path fill="#36352C" d="M110 289v-1l-7 3-6 2c-12 1-18-4-27-11l1 4 2 4c3 5 8 8 14 9s14 0 19-3c2-2 4-4 4-7Z"/><path fill="#000" fill-rule="evenodd" d="M112 289c-1 4-3 6-6 8-5 3-13 5-19 3-6-1-12-4-16-10a17 17 0 0 1-1-3l-2-4a1 1 0 0 1 3-2c8 7 14 11 26 10l6-1 5-3 2-1 2 1a3 3 0 0 1 0 2Zm-2 0v-1l-7 3-6 2c-12 1-18-4-27-11l1 4 2 4c3 5 8 8 14 9s14 0 19-3c2-2 4-4 4-7Z" clip-rule="evenodd"/><path fill="#36352C" d="m82 299-3-2-4-3c-4-3-5-7-6-12-3-3-6-3-10-3 0 4 0 10 3 14 5 5 13 6 20 6Z"/><path fill="#000" fill-rule="evenodd" d="m81 301-12-2-8-5c-3-4-3-10-3-15l1-2c5 0 7 1 11 4l1 1c0 4 1 8 4 11l4 3 2 1 2 1a1 1 0 0 1-2 3Zm1-2-3-2-4-3c-4-3-5-7-6-12-3-3-6-3-10-3 0 4 0 10 3 14 5 5 13 6 20 6Z" clip-rule="evenodd"/><path fill="#724E40" d="m139 298-11-2 5-2c-3 1-8 3-12 2l1-2c3-1 3-2 5-4l3-1-3-2c3-1 4-2 6-5l-5-5 8-5c2-1 4 0 5-3l-3-2 6-2-1-1v-1c2 0 4 0 5-3l-4-4h5c3-1 19-3 18-8l-4-3h6c3 0 7-1 8-5 2 1 0 8 2 10v1h-1l-7 4-7 3-2 1h2l14-7c0 8-3 21 1 28-1 3-3 14-6 15-1 1-12 5-13 4l-19-1c8-1 12 0 19-3l-9 1c-3 0-10 0-12 2Zm15-22 3 2c-5 2-2 7 2 8l6-1 4-7c2-2 2-2 1-4 1-1 3-3 2-4-4-2-16 3-17 5l-1 1Zm-3 8-7-2-8 6 6 3 3-2 6-5Zm23-3-12 8c3-1 11-4 12-7v-1Zm-31-6c-2 0-6 0-7 2l-1 4h2l2-3 4-3Zm8-10h-4v1l4-1Zm7 1-7 3-2 2v2h4l5-5v-2Z"/><path fill="#000" fill-rule="evenodd" d="m180 252-2 17 2 10v1l-3 12-3 4a67 67 0 0 1-14 5l-15-1-5-1h-1l-1 1c-4-2-6-2-10-2l-1-1h-7v-2l1-2h1l2-2 3-2-1-1a1 1 0 0 1 1-3c2 0 3-1 4-3l-2-2-1-1-1-2 1-1v-1l7-4 2-1 2-1-2-1a1 1 0 0 1 0-3l4-1v-1l1-1h3l1-1-1-2-2-1a1 1 0 0 1 1-3l4-1c3 0 11-1 15-3l2-2h1l-4-3a1 1 0 0 1 1-2l6-1 4-1c2 0 3-1 3-2v-1h3v1l1 2v10Zm-41 46c2-2 9-2 12-2l9-1c-7 3-11 2-19 3l19 1c1 1 12-3 13-4 3-1 5-12 6-15-4-7-1-20-1-28l-14 7h-2l2-1 7-3 7-4h1v-1c-2-2 0-9-2-10-1 4-5 5-8 5h-6l4 3c1 5-15 7-18 8h-5l4 4c-1 3-3 3-5 3v1l1 1-6 2 3 2c-1 3-3 2-5 3l-8 5 5 5c-2 3-3 4-6 5l3 2-3 1c-2 2-2 3-5 4l-1 2c4 1 9-1 12-2l-5 2 11 2Zm19-32v2l-5 5h-4v-2l2-2 7-3Zm-2 2-4 2-2 2 2-1c2 0 4-2 4-3Zm-2 8 1-1c1-2 13-7 17-5 1 1-1 3-2 4 1 2 1 2-1 4l-4 7-6 1c-4-1-7-6-2-8l-3-2Zm2-1 1 2a1 1 0 0 1 0 2l-1 1v2l4 2h4l4-7 1-1v-3l1-2h1-1l-5 1a43 43 0 0 0-9 3Zm18 6v1c-1 3-9 6-12 7l12-8Zm-23 3-6 5-3 2-6-3 8-6 7 2Zm-2 1-2-1h-2c-2 0-5 2-6 4l1 1h2l2-1 4-3h1Zm2-20-4 1v-1h4Zm-8 10-4 3-2 3h-2l1-4c1-2 5-2 7-2Zm-4 2h-2v2l1-2h1Z" clip-rule="evenodd"/><path fill="#36352C" d="M177 130c0-9 0-18-2-27l-24 1-39 2v54c22 0 41-3 63 1 2-10 1-20 2-31Z"/><path fill="#000" fill-rule="evenodd" d="M178 130c0 11 1 21-1 31l-2 2c-22-4-41-2-63-1a1 1 0 0 1-1-2v-54l1-2 38-1 25-2 2 1c2 10 1 19 1 28Zm-1 0c0-9 0-18-2-27l-24 1-39 2v54c22 0 41-3 63 1 2-10 1-20 2-31Z" clip-rule="evenodd"/><path fill="#050303" d="m118 154-1-12v-14l1-19h-1l-1 35 1 9 1 1ZM149 151l-1-20v-18 39l1-1Z"/><path fill="#130C09" d="M130 141v-1c1-3 1-27-1-29l1 11v29-10Z"/><path fill="#36352C" d="M111 143c1-13-1-26-1-39l-11-4-12-1c-11 2-14 11-23 14h-5v5l-1 7v13h4c7 1 11 9 15 14 8 11 22 8 34 10v-19Z"/><path fill="#000" fill-rule="evenodd" d="M112 143a241 241 0 0 0-1 20h-1l-18-1c-6-1-12-3-17-9-1-3-3-6-6-8-2-3-4-5-7-5l-4-1a1 1 0 0 1-1-1v-25l2-1 5-1c4-1 7-4 10-6 3-3 7-6 13-7 4-1 8 0 12 1l12 4 1 1v39Zm-1 0c1-13-1-26-1-39l-11-4-12-1c-11 2-14 11-23 14h-5v5l-1 7v13h4c7 1 11 9 15 14 8 11 22 8 34 10v-19Z" clip-rule="evenodd"/><path fill="#050303" d="M104 141c0-5 0-28-2-32v35l-1 10c2-3 2-10 3-13ZM92 133c1-7 1-17-1-24v21l-1 22c2-5 2-13 2-19ZM85 130c0-7 0-15-2-23l1 24-2 24c2-7 2-17 3-25Z"/><path fill="#36352C" d="M175 101c-1-3-3-5-6-6-12-7-41-2-55 2l-1 3v3c3 3 54-2 62-2Z"/><path fill="#000" fill-rule="evenodd" d="m175 102-55 3h-7l-1-1-1-1v-3l3-4c8-3 22-5 34-6 9 0 17 1 22 4 3 1 5 3 6 6a1 1 0 0 1-1 2Zm0-1c-1-3-3-5-6-6-12-7-41-2-55 2l-1 3v3c3 3 54-2 62-2Z" clip-rule="evenodd"/><path fill="#36352C" d="m174 163-7-1c-18-2-36 0-54 0v5l1 1 12 2c9 1 18 3 28 2 7-1 15-3 20-9Z"/><path fill="#000" fill-rule="evenodd" d="M175 164c-5 6-13 8-21 9-10 1-19-1-28-2l-13-2-1-1h-1v-6l1-1c19-1 37-3 55-1l5 1 3 1a1 1 0 0 1 0 2Zm-1-1-7-1c-18-2-36 0-54 0v5l1 1 12 2c9 1 18 3 28 2 7-1 15-3 20-9Z" clip-rule="evenodd"/><path fill="#36352C" d="M84 169h2v1l-6-1c-5 0-11-2-15-5-4-4-7-9-7-14-1-3-1-8 1-10l1-1 7 5 1 7c3 9 8 13 16 18Z"/><path fill="#000" fill-rule="evenodd" d="M85 168h1l1 1a1 1 0 0 1-1 2h-6c-5 0-11-2-16-6s-7-9-8-15v-7l2-4 2-1 4 1 4 4 1 1 1 7c3 8 7 12 15 17Zm-1 1c-8-5-13-9-16-18l-1-7-7-5-1 1c-2 2-2 7-1 10 0 5 3 10 7 14 4 3 10 5 15 5l6 1v-1h-2Z" clip-rule="evenodd"/><path fill="#36352C" d="m110 168-4 2c-7 2-17 0-23-4-8-4-12-10-14-18l-1-3 7 9c9 10 23 8 35 9v5Z"/><path fill="#000" fill-rule="evenodd" d="M111 168c-1 2-2 3-4 3-8 2-18 0-25-4-8-4-12-10-15-18v-4a1 1 0 0 1 2-1l3 2 4 7c4 5 10 6 16 7l18 2 1 1 1 5h-1Zm-1 0v-5c-12-1-26 1-35-9l-7-9 1 3c2 8 6 14 14 18 6 4 16 6 23 4l4-2Z" clip-rule="evenodd"/><path fill="#36352C" d="M110 101v1l-7-3-6-2c-12-1-19 3-28 10l2-4 1-3c3-5 9-8 15-9 5-2 14 0 18 3 3 2 5 4 5 7Z"/><path fill="#000" fill-rule="evenodd" d="m112 100-1 2-1 1-2-1-5-2-7-2c-11-1-17 3-26 10a1 1 0 0 1-2-1l1-4 2-4c4-5 9-9 15-10s15 0 20 4a11 11 0 0 1 6 7Zm-2 1c0-3-2-5-5-7-4-3-13-5-18-3-6 1-12 4-15 9l-1 3-2 4c9-7 16-11 28-10l6 2 7 3v-1Z" clip-rule="evenodd"/><path fill="#36352C" d="m81 90-3 2-4 3c-3 4-5 8-5 12-3 3-6 4-10 4 0-5 0-11 3-14 4-6 13-6 19-7Z"/><path fill="#000" fill-rule="evenodd" d="m82 91-1 1-2 1-4 3c-3 3-4 7-5 12v1c-4 3-6 3-11 3l-2-1c0-5 1-11 4-15l7-5 13-2a1 1 0 0 1 1 2Zm-1-1c-6 1-15 1-19 7-3 3-3 9-3 14 4 0 7-1 10-4 0-4 2-8 5-12l4-3 3-2Z" clip-rule="evenodd"/><path fill="#724E40" d="M138 91c-4 2-6 2-10 2l5 3c-4-1-8-3-12-2l1 2c2 0 3 2 5 3l3 2-3 2c3 0 4 2 5 5l-4 4 8 5c2 2 4 1 4 4l-2 2 6 2-2 1h1c2 1 4 1 5 3l-5 4 5 1c4 0 20 3 19 7l-4 3 6 1c3 0 7 1 8 4 2 0 0-8 2-10l-2-1-6-3-8-4-1-1 1 1c7 2 9 3 15 7 0-8-3-21 1-28-1-3-4-14-6-16l-13-4-19 1v1c7 1 11 0 19 3l-9-1c-4-1-10-1-13-3Zm16 23 2-2c-4-2-1-7 3-8 2-1 4 0 5 1 3 2 4 4 5 7 1 2 2 2 0 4 2 1 4 2 2 4-3 1-15-4-17-6Zm-3-8c-2 1-5 2-7 1-2 0-6-4-8-6l6-2 3 2c1 2 5 2 6 5Zm23 2-13-8c3 1 11 5 13 8Zm-32 7c-1 0-5 0-6-2l-1-4h2l2 3c1 0 3 1 3 3Zm9 10-4-1-1-1 5 2Zm7-2c-2 1-6-1-8-2l-1-3v-1h4l5 5v1Z"/><path fill="#000" fill-rule="evenodd" d="m179 137 1 2v1l-1 2v8h-1v1l-2-1v-1l-3-2-4-1h-7a1 1 0 0 1 0-3l3-2v-1l-2-1-15-4h-5a1 1 0 0 1 0-3l2-1 1-2-1-1h-3l-1-1v-1l-4-2a1 1 0 0 1 0-2l2-1-2-1-2-1v-1l-7-4-1-1 1-2 1-1 2-2-4-4a1 1 0 0 1-1-2l1-1-1-1-2-1c-1-1-1-2-3-2l-2-3 1-1 1-1h7l10-2h1l1 1v-1l5-1h18l11 4 2 4a72 72 0 0 1 4 13c-2 3-2 6-2 10l1 17Zm-41-46c-4 2-6 2-10 2l5 3c-4-1-8-3-12-2l1 2c2 0 3 2 5 3l3 2-3 2c3 0 4 2 5 5l-4 4 8 5c2 2 4 1 4 4l-2 2 6 2-2 1h1c2 1 4 1 5 3l-5 4 5 1c4 0 20 3 19 7l-4 3 6 1c3 0 7 1 8 4 2 0 0-8 2-10l-2-1-6-3-8-4-1-1 1 1c7 2 9 3 15 7 0-8-3-21 1-28-1-3-4-14-6-16l-13-4-19 1v1c7 1 11 0 19 3l-9-1c-4-1-10-1-13-3Zm13 34-4-1-1-1 5 2Zm7-2c-2 1-6-1-8-2l-1-3v-1h4l5 5v1Zm-2-1-4-4h-2l1 2 5 2Zm-2-8 2-2c-4-2-1-7 3-8 2-1 4 0 5 1 3 2 4 4 5 7 1 2 2 2 0 4 2 1 4 2 2 4-3 1-15-4-17-6Zm2 0 1 1a43 43 0 0 0 12 4h1v-1l-2-1v-2a9 9 0 0 0 1-1v-1l-1-1-4-6a6 6 0 0 0-8 1l-1 2 2 2a1 1 0 0 1 0 2l-1 1Zm18-6-13-8c3 1 11 5 13 8Zm-23-2c-2 1-5 2-7 1-2 0-6-4-8-6l6-2 3 2c1 2 5 2 6 5Zm-2-1-2-1-3-2-2-2-2 1-2 1 6 4h2l3-1Zm-7 10c-1 0-5 0-6-2l-1-4h2l2 3c1 0 3 1 3 3Zm-6-4h1v1l1 1-1-1-1-1ZM91 201H78s-1 6-10 7c-8 1-17-2-20-5-4 0-17-1-15 12 5 11 5 16 17 24l2-7s14 16 18 17l-1 3s-11 6-28 1l-1-2 5-3s-19-7-28-27c-8-18-14-26-17-27 3-2 10-7 16-25l-5-1-1-2 4-4 4-1h4s12-17 24-20l-5-4 1-2s18-5 29 2l-18 18h-1l-2-6s-11 7-15 17c3 5 4 7 0 10l-3 1 1 2s6-4 11 2l4 5 11 1 33 1v-2l3-1 8 3c1-2 9-9 12-5l1 4h3s1-10 14-10c12 4 17 8 17 18-2 9-12 28-30 10l-4-4-1 4-2 1h-4l-5-7-2-1s-4 5-6 5c-3 0-5-2-5-2Zm39-13 1 7c0 4-2 5-2 5s5 4 9-4c1-4 0-6-2-7-1-2-6-1-6-1Z" clip-rule="evenodd"/><path fill="url(#c)" fill-rule="evenodd" d="m47 248 1-1-7-3c-4-3-9-6-12-10l-10-14c-4-9-7-19-16-26 11-8 13-22 16-25h4l2 1 6 3c-1 4-1 8 2 11l6 3 4 7 1 1 3 4 1 1c-5 1-12 1-16 5-2 2-2 5-2 8l1 6 5 9c4 6 9 11 16 15l1-7 14 13 2 1-1 1c-4 3-16 2-22 2l-4-1 5-4Zm22-110-13 12-3 3-1-7c-8 4-14 11-19 19l-5-3-5-1c7-9 16-15 26-20l-6-5c9-2 17-2 26 2Z" clip-rule="evenodd"/><path fill="#353333" d="M62 249v1l-7-2-1-1-6-3c-6-3-18-10-20-17 13 11 17 18 34 22ZM25 170l-3 5-3 6 4-12 2 1ZM16 188c-1 2-2 4-5 5v-1c1-1 3-4 5-4ZM19 183l-2 4 1-4h1ZM43 194l1 1c-6 0-20-1-24 1l-2 1c-2-1-4-2-6-1l-2-2 1-1 2 2 25-1h5ZM26 222l-4-6-5-13-3-6 3 5 8 17 1 3ZM32 157l4-5c6-6 19-14 28-14v1c-3 1-7 1-10 3-9 3-15 9-22 15Z"/><path fill="#5C5D5B" fill-rule="evenodd" d="M53 194h-1l-1-1-3-5 26 1 20 1h1v4H81c4 2 10 0 14 1-1 1-1 3-3 3-5 2-11 1-17 1l-17 1-5-5 5-1h-5Z" clip-rule="evenodd"/><path fill="#8A8B8B" d="m52 194-1-1-3-5 26 1h16l4 1h1v3l-27 1H52Z"/><path fill="#8A8B8B" fill-rule="evenodd" d="M134 204c3-1 7-3 8-6 0-3 0-8-3-12-3-1-6-3-9-2-3 2-6 4-9 3h-1l1-2 2-2 4-3h11c4 2 7 6 8 10 1 2 2 6 0 9-1 5-9 10-9 10h-7c-4-1-8-4-10-8 2-2 8 2 10 3h4Z" clip-rule="evenodd"/><path fill="#5C5D5B" d="M123 183c4 0 8-2 11 0 2 0 4 1 5 3-3-1-6-3-9-2-3 2-6 4-9 3h-1l1-2 2-2Z"/><path fill="#888989" d="m111 190 6-1c3 0 8 0 11 2v4l-1 3h-1c-4 0-11 2-14-1-2-1-1-5-1-7Z"/><path fill="#646363" d="m128 195-1 3h-1c-4 0-11 2-14-1-2-1-1-5-1-7l1 4h7l3 1h6Z"/><path fill="#847D70" fill-rule="evenodd" d="m47 194-5-5v-1h4l3 6h-2ZM22 163l5 1 1 1v1l-4 1h-6l2-3 2-1ZM101 192l-2-1c-2-1-5-2-5-4l1-1 7 4 8 8 2 1 1 3v2h-2l-1-1 1-1v-1h-3v-2l-4-3 1-2-1 1-3-1v-2Z" clip-rule="evenodd"/><path fill="#847D70" d="M49 195c2 0 4 3 5 4v1h-2c-3 0-4-2-5-4v-1h2Z"/><path fill="#706861" fill-rule="evenodd" d="m41 182 5 5h-4l-4-3v-1l3-1Z" clip-rule="evenodd"/><path fill="#706861" d="m101 196-6 6-2-1 4-5 2-2 2 2Z"/><path fill="#847D70" fill-rule="evenodd" d="m31 170-4-2v-1l2-1 4 1 1 2-3 1Z" clip-rule="evenodd"/><path fill="#847D70" d="m60 203-2 2-5-2-1-1 1-1c2-1 5 1 7 2Z"/><path fill="#706861" fill-rule="evenodd" d="m17 167-5-1 1-1c2-2 3-2 6-2l-2 4Z" clip-rule="evenodd"/><path fill="#706861" d="m66 203-2 3h-5l1-2 6-1Z"/><path fill="#706861" fill-rule="evenodd" d="m72 205-6 2 4-5h1l1 3Z" clip-rule="evenodd"/><path fill="#706861" d="m41 181-3 1h-2l-2-1 3-2 4 2ZM109 188l-2 3c-2 0-2-1-3-2l2-2 3 1ZM34 170h1v3l-1 1-1-1-1-2 2-1ZM112 186l-1 1-4-1 2-1 3 1ZM72 202l3-1 1 1-3 3-1-3ZM112 183c1 1 2 1 2 3h-1l-2-1 1-2Z"/><defs><linearGradient id="a" x1="622.5" x2="625.9" y1="101.9" y2="86.2" gradientUnits="userSpaceOnUse"><stop stop-color="#C2AF83"/><stop offset="1" stop-color="#9A7945"/></linearGradient><linearGradient id="b" x1="626.8" x2="621.8" y1="303.6" y2="289.8" gradientUnits="userSpaceOnUse"><stop stop-color="#9A7945"/><stop offset="1" stop-color="#C2AF83"/></linearGradient><linearGradient id="c" x1="40.8" x2="19.9" y1="192.7" y2="211.1" gradientUnits="userSpaceOnUse"><stop stop-color="#615E5F"/><stop offset="1" stop-color="#7C8181"/></linearGradient></defs></svg>