<svg xmlns="http://www.w3.org/2000/svg" width="300" height="550" fill="none"><g fill-rule="evenodd" clip-path="url(#a)" clip-rule="evenodd"><path fill="#090806" d="m288.9 345.2 2.5 3.4c2 4.3 2.3 4 6.2 16.5.3 1.1 2.7 9.4 1.6 14.6-1.2 5.8-4.7 2.6-6 2-4.5-3.5-6.3-5.3-6-9 0-1.8-1-1-3.2-3.7-1.2-1.4-1.5-2.5-2.3-.8-1.5 3-2 2.4-3.2 4.1l-1.4 4.3c-4.3 9.6-5.6 8.3-6.9 9.8-1.6 2 .8 2 1.7 6.6.5 3 .3 3 1.7 5.4 1.5 2 1.4 2.8 3.7 2.4 4-.8 14.8 16.2 15.1 18.5.7 4.5 0 4.5-3.8 56.5-1.8 25.2-4.9 28.4-3.7 46.6 0 1.4.3 23.2-.8 26.1-2.1 5.5-5.7-7.5-14.8-24.8-6.3-11.8-4.2-13-10-37.5 0-.2-7-25.8-4.9-39.6 0-.1.7-4.8-.5-1.6-.6 1.5-1.9 4.8-8.7 18.4l-7.4 15c-1.2 2.3-1.3 2.3-1.3 5 0 .5 0 .4-1 3.8a85.4 85.4 0 0 0-17.7 30.6c-1 2.6 1.3 4.6-.3 8.5-.6 1.5-1.3 2.4-1.6 3.2l-2.4 4.6c-.6 1-1.3 2.5-2.4 4-3.4 4.8-3.4-.3-4-.6-.3-.2-.7-.3-1-.2l-4.1.6c-2-.2-7.4.1-13.2-4.7-1.3-1.1-1.4-.6-17.3-11l-1.3-.8-.2-.2-3.6-2.3-1-.6-1.7-1c-4.4-2.2-13.1-6.7-17.8-9.8-6-4-6.2-3.7-12.1-7.7l-5.8-4.6-1.2-1-2.9-2.3c-.2 0-3.4-2.3-3.4-2.3-5.2-4.5-32.5-25-37-32.9-1.3-2-1.6 0-6.9 1-2.6.3.2 5.7-5 9.2-1.3 2.2-10.9 1.2-11.7-4.4-3.1-8.2.7-10.2.7-15.8.1-25 3.2-28.9 5.5-44.3 3-19.6 5.8-33 6.5-38.5 3.9-29.4 7.8-39.5 6.8-43.1-.6-2.5-3 2.2-5.3-1.4-3.5-5.1 0-8.4-1.6-13.2-.6-1.8 1.4-7.5 3.3-9.7 1.5-1.7 1.4-1.7 2.6-3.7 4.8-8.4 5-8.3 10.8-15.6 2.4-3.2 4.1-2 4.4-5.3.5-8.9 23.1-19.9 24.7-20.1 1.8-.3 1.9-.5 3-2.5 1-2 2.3.9 6.6-.9 5.6-2.3 5.6-1.8 6.1-2 5-2.4 5.2-2.7 5.5-3.1 9.3-13.9 9.6-16 8.4-26.2-.6-5.2-.4-5.8-5.6-10.4-5.8-5.1-14.4-1.8-14.6-1.1-3.2 9.3-9.6 11.5-16.4 15.4-4.9 2.8-5.1 2.8-10.2.8-7.4-3-9.7-1.6-16.3-9.2-7-8.1-19.2-3.3-23.8-11.9-4.6-8.5-4.4-20.8-14-30.3-5.5-5.2-6.9-3.3-9.9-9.7-2.6-5.5-11.5-4.3-8.4-12.2.3-.6 4.7-5.5 13.7-2.3 5.5 2 5.4 2.3 10.6 5.3 10.3 7.4 11.2 6.8 12.1 6.3 2.2-1.3 4.6 2.9 14.3 1.5 5.3-.7 5.8-1.3 8.4 2.4 2.3 3 15.7 1.7 21.6 4.3.4.2 4.7 2.2 5.1 1.5.2-.3 2.4-3.6 2.2-3.9-.7-1.3-6.1-1.2-6.5-3.5-.2-1 .1-4.9 2-5.2 2.2-.4 9.8.4 10.7.4 3.2.3 6.4 8.8 4.8 14.1-.2.5.2 4 1.4 2 2-3.2 3-2.1 3.4-3.9.7-3.1.1-3.5 2.8-7 .5-.7 1-2.6 1-2.8v-.7c0-.2.3 0 .4-.3 5.8.6 7.4.8 12.6-3.6 3.2-2.3 3.1-2.3 6-5 5.3-4 5.4-3.7 9.9-8.8 3.1-3.6 5.8-4 6.5-5.6 2.4-5.8 2.6-5.8 2.5-6.3 0-.5-.4-.6-5 1.8-1.7.8-1.4-.8-6.1-4l-1-.6-.8-.4c-.8-.4-4.3-1.5-3.4-5 1.5-5.8.3-10.6 1.7-16.2 1.9-7.6 1-7.8.8-15.7 1.1-4.3 0-7.5 2.7-6.4.8.4 8 4.3 8.8 5 5.3 5.2-4.6-10-9.4-19-10-18.4-15.4-20.2-12.3-23.3 3.3-3 9.2 2.5 9.8 3 1.8 1.7 1.8 1.7 3.4 3.5 5.8 8.4 6.7 7.7 10.5 17.8 6.6 17.3 11.4 22.7 11 25.1-.3 2.6.7 2 2.8 2.7 7.5 2.4 5.1 7.4 7.3 7.4 12.5.5 19.3-3.2 20.9-4l3.2-1.8c10.8-7 10.9-7.7 11-9 3-29 .7-30.2 1.6-35.5 3.2-18.3 4.7-21 5.6-22.6 1.2-2.3-.4-1.7-.5-1.6-.2.2-2.8 6.5-4.7 3.7a7 7 0 0 1 .8-7.4c3.5-4.5 6.7-1.7 6.9-2 .9-.9-1.3-4 4.3-8.3.2-.1 3.6-2.7.8-2.1-.6.1-2.4 2-4.6 4-1.9-1-2.2-5.8-1.3-6.8.3-.2 9.3-6.2 12-6 3 .4 3.6 2.5 5 1.8 5.1-2.5 5.2-1.6 10.7-2 4.9-.3 9-2.7 9.7-3.2 5-3 6.7 17.4-3.2 17-11.8-.4-14.4-2.3-15 5.2-1.3 5.2-1.9 5-2.4 11.1-.5 6-.4 5.9-1.7 11.6a530.8 530.8 0 0 0-4.4 30.9c.6 1.5 7-6 11-.6 2.9 4-.8 10 5.7 17.8 4.1 4.9 8.2 6 4.3 10.5-6.5 4-3.9-2.6-3.9-2.6 0-2.7-7.8-5.9-8.8-15.8 0-1 .4-8.5-4.7-5.1-3.5 2.3-3.6 2.4-3.8 2.8-.6 1-.6 3.6-.6 4-.6 6.3-1.3 6.4 0 12.4 1.3 5.5 1.3 5.5 2.9 11 2 7.8 2.5 8.4 2.7 8.8 1.5 4 1 4.4 7.8 15.3 5.5 9.2 5.7 9.8 4.6 12.2-1.9 4.2 2.5 6.3 3 6.5 4.4 2.1 5 6.5 11.1 8.5 2.7.8 5.4 1.1 7.7 4.2 1.3 2.6-.4 2.6-.4 5.7 0 7.2 1.3 7 1.3 16.9 0 .3-.3 12.6-1.2 22.7 0 .4-.6 10-.6 15.1-.2 11-2.9 36-2.5 37.7v1.5c-.2 1.4-.3 5-.3 5.1a54.7 54.7 0 0 1-.8 8.7 661.6 661.6 0 0 0-.3 11c.3 1.3.8 1.8 3 3.8 2 4.5-2 10.4-1.4 30.7.7 17.1.2 17.6 1 18 .2 0 2.3 2.2 2.4 2.3ZM207.5 108c-2 .3-2.7.7-7.4.4-3.6 0-5.8-1-6.2 1.5-1.7 10.9-9 13.7-8.5 15.7.1.6 3.7.1 4 0 2-.2 4 2 16.7 1.3 1.3-.1.9-3 4.7-4 7.8-2 12.2-.5 15.7-.3 1.3.1.7-6 1-9.8 1.4-15 1.6-15 1.6-16.3 0-1.3-2 1-3.7 2.1-8.3 5.3-8 7.2-18 9.4Zm46.3 156.4c-1.5 1-7 6.5-7.8 8.2-.6 1.3-2.1 9.7.4 10.3 5.8 1.3 13.5 3.9 14 1.2 0-1 1.2-14 1-14.5-.1-.4-4.3-5.5-7.6-5.2ZM242 273l.3-1.1c0-.8-1 .2-3.7 2.5-1.4 1.2-4.6 3.4-3 4 5.2 1.7 5.2 1.9 5.7 2 .4 0 .4-.3.7-7.4Zm30.4 209.6c-7-9.8-7.6-10-8-9.1-.6 1.1 2 16 2.1 17.5 3.6 15.7 3.6 15.7 9.6 30.1 3 7 3 7.3 3.5 7 .1-.1.1-.4.3-.5-1.4-22-1.1-22-.7-32.6.2-4-.8-3.6-3-6.6l-3.8-5.8Z"/><path fill="#544F4A" d="M242.7 316.7c2.2 1.7 2.4 1.2 4.6 2.9 1.1.9 0 3 1.9 4 6.3 3.4-7 3-10.9 6.9-2.1 2.1-3.1.7-8.6 2.2-2.5.6-2.5.2-5 1-2.4.7-1.2 3.7-3.1 7.2-1.6 2.8-3.1 31.9-3.3 34.7l-1.8 29c-1.6 23-1 33.1-3.2 49.6-1.5 18.3-5.2 27.8-4.7 29 .7 1.3 1.6 3 1.8 19.4 0 3.6-2.2 3.5-2.4 3.6h-1c-3.7-4-2.4-16.7-6-20.4-5.1-5-10-4.1-11-7-1.6-4.2-2.8-3-8.4-3.6-9-1-13-2.5-31.5-7-14.3-3.4-36.3-10.2-54.5-12.1-4.7-.5-4.6-1.3-9.3-1.7-1.8-.2-3.5-1.2-5-.2-5.8 3.6-8.9 1-10.4 3.3-2.7 4.1-8.5-.4-8.7-3.3-1.6-23.7 2.4-33.3 6.9-61.8 3-19 4-20.7 6.6-41.3 1.1-9 4.7-20.3 5.2-31.5.4-6.7.8-7 1.2-6.7 1 .5 1 .6 6.1 4.3 2.3 1.7 7.6 3 8.7 3.3 13 4.2 23.6 2.6 45 9.4 3 1 13.5 3.6 14.7 3.9 9.6 2.4 16 2.1 23.1 4 1 .3 1.1-.2 13.5 2.3 0 0 2 .4 1.4 1.1 0 0-1.1.5-1.8 1.3-.8 1-1.5 4.8-.4 7.4.7 1.6-.4 1.1-2.5.7-18.1-3.4-17.7-6.2-37.9-9.5-20.3-3.4-41.6-8.4-49-9.1-1.7-.2 1.6-6.8-.9-6.9-1.2 0 1.1 3.8-2.4 7.2l-8.4 8.2c-6.7 5.7-8.4 5.2-10.5 6.6-.3.2-.5.6-.9.7-.2 0-.4-.3-.6-.2.5-9.2 6.3-22.7 3.7-24.8-1.2-1 0 2.6-1 5.5-5.2 18.6-3.8 19.1-3 20 1.8 1.7 2.4-1.1 3.4.2 0 .2-3.6 24-4.6 28.2-4.4 20-7.3 48.3-6 51.2 4.3 9.8 7.2 6.4 12.8 15 1.1 1.7 1.3 1.9 20.7 6 15 3.3 15.1 2.2 30 5.8 14.4 3.5 29 5.2 37.6 8.6.5.2 12.5 3.4 14.3 3.6 5 .3 18.2-5.8 18.5-4.6.8 3.7-1.3 12.4-1.6 13.4 0 .5-1.6 6.8.2 6.6.5 0-.3-.6 1.6-7.8.3-1 .4-1.7 1.4-14.5 1.3-15.7 3.2-47 5-72.8l.4-9.9c.1-3-2.2-1.5-3.5-5.8-.8-2.7-2.4-1.5-2.7-2.9-2-8.1-5.4-4.7-6.7-8.2-.2-.5.1-2.6-1.8-5L196 353c-.5-.6-6.6-8.2 1-11.1 3.2-1.3 3.3-1 5.8-3.7.6-.6 2.3-2.6 9.4-2.6 2.7 0 6 1.1 6 .5.3-4.6-.3-4.6 1.2-12.3.2-1 0-7.9 2.5-9.4 2.7-1.6-.6 5.1 1.9 5l1.4-.2c0 .2-.3.3-.3.5-.6 3 4.5.7 11.9-1 4.5-1 4.7-.5 6-2Z"/><path fill="#474443" d="M119.3 408.3c-1.6 1.4-2.1 2.3-4.7 5.2-6.3 7-10.5 6-17.5 18.7-3.1 5.7 5 12 5 13.9 0 .8-.4.3-3.3-.3-1-.3-12.3-2.7-13.2-4-5.4-8.5-8-5.4-12.5-14.5-.3-.6-.1-.7 2.3-8.5.5-1.8 3.8-12.6 7.5-21 4.9-11.2 3.5-12 9.7-28.7 1.4-3.8-.5-6.4 1.5-11 9.3-22 7.4-23.4 9-24.4a297 297 0 0 1 15.2 2.6c15.7 3.6 19 3.3 19 4.9 0 10.4-2 14-4.1 18.2-2 3.7-18.3 24.7-32.2 51.6-1.3 2.5-1.2-4.5-7.3-4-9.3.8-9 14-9.2 15.8-.3 5-2 6.1-3 8-2.2 4.1.6 5 2.5 3 4.7-5 4.2-12.2 4.3-12.8.9-9.5 8-13.8 9.8-1.2 1 7.6 3.4 2.8 3.4 2.4.5-5.8-1.5-6.3 1-10.6 5.2-.7 18.3-16.9 17.8-11-.3 3.5-1.6 6.7-1.5 7 0 .3.4.4.5.7Z"/><path fill="#272724" d="m178 254.2-1.4 2c-3 4 1.2 8.6.5 10.5-4 10 8.6 2.4 9.1 2.3 2.1-.7.7 4 6.6 7.3 4.6 2.6 5.7-4.8 11-2.4.2 0 .1.2 3 12.6.7 3 7 30 4.3 39-2.8 8.8-3.4 8.9-4 8.9-7.2.5-6.4 7.7-11.1 5-3.7-2.1-49-7.7-49.4-10.4 0-.4 0-.9 3.6-.3 3.8.7 2.1-5.5 11-7 2.9-.4 8.8-4.3 8.9-6.1.1-3 1-2.6 8.9-12 7.2-8.6 7.3-9 11.9-9.5 5-.7 11.2-5.7 11.8-7.7 4-13.5-13.9-3.7-15.1-3.9-6.1-.8-16.4 6.7-18 6.2-1.4-.5.1-6.7.1-6.9.7-4.3-1.8-3.4-4.5-12.4-2.6-8.7-9.4-1-12.6-3.6-4-3.3-4.4-1.7-7-1.8-1.9 0-11.9-.2-22.3 4.8A144.6 144.6 0 0 0 104 279c-3.3 2.3-6.6 12.3-6 8 .9-5.2 3.4-7.6 4.8-9.5 1.8-2.2.5-3 .8-3.8.2-.5 9.7-6.8 10.6-7.4 3-2 4.8-.7 6.8-2.6 2.3-2.1 2.4-2.6 5.1-1.8 2.7.9 3-2.8 3.9-4.4 1.2-2.4 3.4.3 5-4.8.3-1 1.2 0 2.3-.4 6.9-2.2 20.7-8.4 21.2-8.5 1.4-.4 0 5 1 8.2 1.5 4.4 3.5-1.3 4.1-.7 2 1.8 4-1.9 4.2.8.6 9.8 7 3.1 10.2 2.1Z"/><path fill="#4D403D" d="M257.5 392.9c0 .2.3.4.3.7l-1.1 3.6c-5.2 17.5-15.5 47.6-16 51.8.1 2 .7 1.6 1.6 3.1-2.5 1-8.3-4-11.1 3.4-2.1 5.5 3.8 5.8 3.5 7.5 0 .5-7.5 16.5-7.9 16.6-.4.2-9-8-9.2 3.8 0 4.7 2 5.3 4.2 7 1.5 2 .3 2.3-1.2 4.3-1.3 1.8-1 2.5-3 2.9-4 .7-.9 4.5-1.7 6.2-3.3 7-3 7.2-6.4 14-2.7 5.2-2.3 5.4-3.1 7.4l-5.4 1.3c-6.5 1.5-9.4-6.5-15.2-6.5-3.2 0-3.5-.2-5 2-.8 1.2-.8-.8-14-8-15.7-8.5-15.8-13.4-39.7-26.8-16.3-9.2-22.2-18.7-35.7-28.2-1-.7-.3-2 .5-2l19 3.1v.5c-.2 1.4-1 7.7 7.9 13.9 2.5 1.7 11.6 2.6 20.7 12.3 6.5 6.8 9.5 2.4 9.6 4.1 0 1-.4.8-.4 1.8 0 .8 0 1.2 8 6.2 5.6 3.4 6.5.9 11.4 5.7 3.8 3.8 4 3.4 8.4 6.3 3.5 2.3 3.8 8.5 8.3 7.4 2.1-.5 1.8-2 9.5-17.3 6-11.7 6.6-14 7-11.8l.6 2.9c1.1 6.7 3 18.5 5 14.1h1.1c1 2.1 1.6 1.3 3-.8 1.5-4.7-.4-21.2-.7-22-1.2-4.2 2.2-6.7 3.1-19.3.6-7 .9-7 2-8 .3-.4 2.3-3.4 3-6 1-4.7 1.4-4.4 3.9-8.1 2.3-3.5 2.4-10.7 4.3-12.6 6.4-6.2 5.9-6.9 9.8-15.8 2.7-6.2 5.2-7.2 4.2-10.6-.2-.8-2.2-3.2 1.2-4.4 4.2-1.6 3.6-3.3 6.4-4.2 2.8-1 4 .8 7.8-.9l1.5-.6Z"/><path fill="#444240" d="M278 2.4c-1.3 1.8-1.1 2-3 2.9-.3.1 0 .4-2.9 2.4 0 .1-.1-.3-1.7.4-.3.1-.6.6-1 .8-4.1 2-6.4-3.2-11 1.3s-2.3 6.5-5.8 12.3l-1 1.7c-.2-3.4-.1-12-1.6-9.9-.3.5 0 .6.2 8.2-1.8.3-2.3-1-3.8 1.2-1.2 1.7 2.5 2.8-1 11-1.9 4.1-2.3 4-2.2 8.8 0 1.2.6 1 .6 2.3-.3 5.2-4.1 8.3-2.2 17.5.5 2.6-2.1 10-2.3 14-.3 10.6 1 10.2 1.2 10.5v.6c-3.2 34.8 7 40.4 4.7 66.9-.8 9.4 1 8.9 2.3 11 .9 1.5-2.1 12.6 4.4 12.4.1 0 2-1.2-.5-1.5-2.4-.4-2.5-2.9-2.5-3.2 0-6.8.8-8-1.6-10-2.7-2.2 1.6-13.4-2-32-5.8-29.2-5-32.2-1.3-60.6.5-4 1.2-6 3.6-11.7 2.5-6 2.2-6.3 3.8-8.1l.2.5c-3.2 21-3.2 22-3.3 24-.6 15.7-3.5 23.7-1.4 36.1 3.2 19.3 9.3 26.6 7 45.5-.7 5 1 4.5 2.2 9.3 1.4 5.3 2.8 5.6 1.4 8.8-2.3 4.9-1.4 5.4-.3 9.3.5 1.5-2.3-.2-3.8-1.5-.2-.2-2.2-2-3.4 1.4-2.4 6.6 2.8 11.5 2.8 12.3 0 1.2-5-1.8-5.4-2-2.8-1.6-2.7-8.3-5.6-5-3.1 3.6-4.2-.5-8.7-7.8-3.2-5.2.5-7.3 1.2-8 3.8-4.6-5.8-41.7-5.8-51.9 0-21.3 5.6-42.5 4.3-62.8.1-10.2 1-10 3.5-22.7 1.2-6.3 4.8-9.6 1.7-10.5-3-.9-5 8.5-5.2 3.5-.2-4.5 4.1-9 7-4 3 4.8-.7-5.6 3.8-9.3 5.5-4.4 2.7-6 2.3-6.1-2.2-.1-5.2 4.3-5.5 3.6-1.3-2.7-.1-3.6 0-3.7.5-.3 8.4-5.1 10.1-5.1 2.6 0 4 1.4 2.8 1.8-2 .7-1 1.7-1 1.7 1.7.3 6.3-4 9.8-4 4.4 0 4.4.4 8.7-.7 5.6-1.5 5.5-3 7.3-2Z"/><path fill="#61534B" d="M283.6 541.6c-.3 0-.4.5-.7.5l-.3-.6c-5.4-12.5-12.1-24.2-16-39.5-9.3-37.7-4.2-53.4-3.3-57.7 1.4-7.2.9-12.8 1-13.4.6-4 2.4-6 2.8-7 .8-1.7 6.5-15.1 9.8-20.9.7-1.2 2-2 11.3 11.2 4.8 6.8 3.2 7.8 2.5 16.7-.3 2.8-2.2 24.1-2.7 34.4-1.3 26.4-5.2 38.8-4.5 56 .4 11.5-.8 11.5 0 20.3Zm-11.2-59c-7-9.8-7.6-10-8-9.1-.6 1.1 2 16 2.1 17.5 3.6 15.7 3.6 15.7 9.6 30.1 3 7 3 7.3 3.5 7 .1-.1.1-.4.3-.5-1.4-22-1.1-22-.7-32.6.2-4-.8-3.6-3-6.6l-3.8-5.8Z"/><path fill="#292825" d="m274.1 329.5-.8.1v1.2c-.4 2.5-.8 2.2-1.6 4.5-2 6 2.2 12.4 3.9 14 2.5 2.2 1.8 2.8 2.8 6.4.3 1.3.7 2.7-6.8 13.8-5.9 8.7-6.7 12-7.1 9-.3-1.9-2-10.4-3.4-12.2-2.9-3.8-1.8 2-1.7 2.2.4 2.2.1 2.2-1 3.2-3.3 3.3-4 3-9.3 6.2h-1l1.5-2.3c4.6-9.8 7.2-10.3 8.2-14 1.5-5.7-4.2-.2-6.3-.8-6-1.8-5.7 5.3-8.4 3.1-3.1-2.4-3.3-.3-7 4.5-2.9 3.7-3.8-3.5-6.8-2.6-3 .9-6.1 4.5-6.6 5-4.2 5 3 9.2-2.7 14.2-1.3 1-.6-.9 0-12.3.6-13.9.8-13.8 2.1-27.4.4-4 1-3.8 2-7.6 1-4.7 3.6-2.4 4.3-1.2 1.2 2.4 3.1 3.2 4 3.8 5.5 3.6 6.7-1.2 8.4 1.5 3.6 6.2 2.7 7.6 2.7 10.5 0 4.2 2.7 6.7 5.2 6.5 7.1-.7 6.3-5.5 9.2-11.7 1.5-3.1 2.6-2.4 3.1-6 .3-1.7 6-2.9 2.8-10.3-1-2.2-.8-2.2-1-4.7-.3-2.9-3.4-1.7-2.4-5.8 1-3.9.5-4.2-1.9-7.2-1-1.4-1-3.7-1.2-4.4l-1-3c-.6-1.8 5.7-.9 7.6-1.4 3.2-.8 3.8.6 4.6-1.6 5.4-15.3 4.6-16.4 5.7-16.4.1 0-1.2 15.3-.5 24l2.4 16.7c-.6.6-.8.3-1.2 1.2l-.8 1.3Z"/><path fill="#282725" d="M163.1 398.3c-.6-.2-8-3-8.2-1.2-.1 2.7 4.3-1.3 8.7 4.7 3.7 5.2 7.4 6.2 6.5 8.2-1.6 3.7-5.6 11.5-2.2 14.8 2.8 2.8 2.6 3.4 6.7 4.5 4 1 .3-5.5 1.4-8.3 1.7-4.5 6.7-4 6.3-2.9-5.8 17-7 20.4-7.7 22.1-2.7 7-6-.8-12-3.8-3.7-1.8-3.7-2-6-6-3.5-6-14.6-4.2-13.4-17 .4-5.3 10.6-20.7 13.7-28 .8-2 2.6 2 6.1-1.3 2.6-2.4 2.9-1.6 6.1-1.5 8.7.4 8-10.1 9.1-6.4 2 7 4.4 4.8 7.4 11.2 5 10.5 3.5 17.6 12.6 13.2 2.6-1.3 3.4 5.8 10.2 8.4.9.4 1.1.7.5 9.7-.6 8.6-.5 8.8-1 9l-2.3 1.4c-.1-.4.3 0 .2-.4 0 0-.1.1-.6-.7-.5-.9-.7-9.7-2.8-12.8-5.5-7.8-8.9-6.4-10.6-6.6-.7 0-4.4-2.3-6.3-4.7-2.1-2.6-2.6-1.6-5.2-3.5-4.4-3-4.3-3.6-9.3-3.4-6.7.2-7-.4-7.9 1.3Z"/><path fill="#585854" d="M270 154.8c1.4 1.2 4.2 4.2 4.5 4.6 5.5 6 14.5 4.6 13.1 8.8-1.3 4.3-.4 7 .1 11.1 1.6 12-1 34.9-1 39.5-.7 30.8-2.8 37-2.9 45-.3 25-3.3 26.6.9 30.3 2 1.9 1.5 2.5.7 9.8-3.5 28.3 1.7 39-1.6 37.3-1.4-.8-4-1.9-3.7-3.5 1-5.8 1-5.8.4-11.6-.9-8.9 1-21.3-.5-23.2-1.3-1.4-1.2-1.5-1.2-3.6 0-28.4 2-46 2.5-56 .5-12.7-.6-19.3 1.5-22.7.6-1 4-6.4-.1-15-5.2-10.8-30.7-12.5-24-29.3 1.8-4.5-.6-6.1-1.1-8.2l-1-3.4c0-1.3.6-.3 1.7 0 5 1.7 8.7-1.6 9.2-2 4.1-2.5 2.3-5 2.5-7.9Z"/><path fill="#3E3F40" d="M175.5 163.9c0-.3.3-.7-.5-1.4-6-5.2-6.9-4.2-8.9-8.8-3.1-7.1-13.9 20-13.5 22.6.7 5 3.7 8.6 3.7 8.8 0 .6-1.2 1.3-4.8-5.8-3.3-6.4.2-7.3 4.6-20.5 3.5-10.5 3.7-10.4 7.4-15.1 4.8-6.1 7.8-7 8.4-7.5 7-5.2 10-6.2 11.5-7.2 7-4.7-4.2 7.9-6.6 10.3-3.5 3.6.4 3 1.1 3 3.8 0-3 2-2.1 4.8a24 24 0 0 0 4 5.1c7 5.7 7 5.6 13.3 12.5 2.1 2.3-2 2.8-2.1 6.4-.6 9.9-7 7.7-8.1 12.2a44.5 44.5 0 0 1-8.3 15c-3.8 3-8.4-7-15.2-11.6-3-2-5.6-9-5.6-11 0-1.9 7-16.9 7.6-17.9 1.7-3.2 2.8-5.4 4-1.8.5 1.8 7.8 7.5 10.1 7.9Z"/><path fill="#292825" d="M222.9 284c0-1.7 1.3-1.3 5.4 0 3 .9 4.1.7 4.8 3 1.1 3.5 7.2 4.6 6.8 7.6-.3 2-.1 2-.4 4.2-.2 2.2-3.1-5.1-5.6-5.2-2.5-.2.7.8 2.4 4.4 3.3 6.5 7.5 1 10 3.2 3 2.8 2.9 3.5 7.9 4.7 2.4.5 1.3 5.6 3.3 8.4 1.8 2.5 2.4 2.6 1.6 5.8-1.4 5 1.3 4 2.1 5.9.2.4-.6.8 1.6 6 2.4 5.8-2.8 5.6-3.1 8.6-.5 3.8-2.9 3.5-4.5 9.4-3 11.2-10.3 7.4-10.4 2.3 0-6.2 0-6.4-2.9-11.5-2-3.8-6 1.7-11.6-4-4-4.1 5.6-2 8.3-4.7 4.8-4.5 15.5-2.3 13.3-8.4-.8-2-2.2-.7-2.7-3.5-.6-3-2.8-2-6.1-5.2-1.8-1.6-19 4-18.9 1.7 0-2.4.2-2.7-1.2-4.3-1.1-1.2 3.9-3.7 2.8-11.3-.4-2.7-3.6-4.2-1.7-7.7 2.5-4.6 2.1-5.6-1.2-9.4Z"/><path fill="#594D46" d="M233.5 186c5.3 9.9 7.2 7.6 8.9 5.7 2-2.4.5 3.9 7.3 6.5 3 1.2 3.3.5 5.6 3.5 1.3 1.7 3.1 2.7 1.2 2.7-1 0-4.3 0-11 5.4-1.5 1.2-4.6 5.3-5.2 5.3-6.5-.7-6.9-3.5-12.6.6-.1.1-6.2 3.7-6.8 3.9-4.7 1.1-23.4-1.6-25 2.1-.4.7-.7 3.2-1.4 3.4-4.3 1-4.6.1-8 3.5-1 1-50 24.5-50.5 21.6-.8-3.5.4-3.2 3-4.6 32.7-16.3 54.6-34 61.6-34.7 5-.5 23.5.5 25.4-.9 5-4 1.6-10.9 4.3-16.7 1.5-3.2 1.4-3.2 2.4-6.7l.8-.6Z"/><path fill="#52433D" d="M157.6 187.5c4.2.9 7.5 8.5 14.8 13.1 1.2.8-1.2 1.2-2.3 20.6 0 .3-.1 1.1-2.4-.5-1.2-.8-5-1-5.6 1-.2.8 0 .9-1.8 10 0 .6-3.3 2.4-3.6 2.5-12.4 7-18.2 11.5-14.3 6.9 8.5-10.3 7.8-19.3 6.2-28.6-.6-3.6-7-9.2-10.5-9.8-2.1-.3-3.3 0-2.4-.8 4.6-4.5 15.6.2 13.4-13.9 0 0-5.3-24.9-9.7-27.1-.3-.2-3-.6-2-1.9 1-1.6 3.8 3.5 15.7-6.9 5.3-4.6 5.7-5 5.7-4.3 0 1-.8.5-4 10.5-3.4 11.2-8.3 14-4.6 21.5 2.3 4.4 3 7.2 7.4 7.7Z"/><path fill="#52524E" d="M163.1 398.3c.9-1.7 1.2-1.1 7.9-1.3 5-.2 5 .4 9.3 3.4 2.6 1.9 3 .9 5.2 3.5 1.9 2.4 5.6 4.6 6.3 4.7 1.7.2 5.1-1.2 10.6 6.6 2 3 2.3 12 2.8 12.8.5.8.6.6.6.7.1.3-.3 0-.2.4-7.1 6-13.9 4.5-12.3 10.5.9 3.2-.4 3-1.4 7.7-3 13.7-4 13.9-2.8 16.7.1.2.2 0 .3.2.5.7 0 1 0 1-3.3.7-3.2-.4-15.2-3-1.8-.5.3-1.7.4-1.7 1.3-.8 9.2-7.6 7.4-11.5-1.2-2.4-2.7-2.1-1.6-5.8 1-3.3 1.8-4.5.8-6l-.3-1c4.5-11.4 9.3-15.6 6.7-19.3-1.4-2-4.3-1.2-7.4-1-4 .2-7 5-5.7 8.7 0 .1 2.4 3.9-1.2 2.6-.4-.2-2.5-.9-5-4-2-2.6 3.1-12.3 3.6-13.2.9-1.8-3.2-4.6-4-5.5-2.4-2.2-4.5-5.7-4.8-6.2Z"/><path fill="#292926" d="M275.2 256.7c-.8 15.1-.1 19.2-1.6 16.3-.8-1.7-5.7-7.7-5.7-9.3 0-13.3 4.5-21.1-1.8-24.8-3.4-2-3 2.4-5 2-2.8-.7-3.4-.6-4.4-2.5-.7-1.4-1.3-4.1-3.4-4.4-7.9-1-13.5-.7-12-2.9 6.3-9-1.6-12.9 1-15.7 12.6-13.9 17.7-9 26.2-5.2 7.7 3.4 9 9.5 8.3 20.3-.2 2 0 2-1.6 26.2Z"/><path fill="#454541" d="M221.9 281.6c-1.1-.4-6.7-1.6-5.9-4.4.5-1.8 3.6-.2 4.8-3 4.3-9.5 3-18.8 2.9-20.4-.3-2.1 1.7-3.3 2-4.6 1.8-11 1-12.5 3-12.3l25.5 4.1c7.8 1.3 8.8 3 9.6 0 .5-2.3 5 .2 4.4 6.4l-1.7 14.9c-1 1-6.3-11.1-11-10.8-4.7.4-20.2 13-21.4 14.8-6 8.5-8.1 8.2-6.5 11 1.3 2.3 3.3.9 7.7 2.6 3.7 1.4 3.6 1.4 7.3 2.5h1c.5 1 1.3 2.5 12 4.4 0 0 5 .3 5.5-.4 1.3-1.8.9-16.4 2.3-15.6 2.4 1.5-1 11.3.9 18.6l-.4 1.2c-19-5-19.1-3.7-30-6.6-3.1-.8-7.8-3.1-12-2.4Z"/><path fill="#646056" d="M133 267.4c4.7-1 4.7-1.1 7-1.4.5-.1 5.8-1 3.1 1-3 2.1-5.3 5.2-7.8 8.2-7.2 8.6-7.7 7.8-11.9 11.4-3.3 2.8-1.6 10-4 20.7-.2 1-1.4.4-2 1.3-1.4 2 2.5 6 2.5 6.5-.1.6-.3.4-2.4 2-2.2 1.4-2.6 4.8-4.3 3.6-6.8-4.5-10.3-5.6-14.8-10.5-2-2.3-7-11.9-3.7-10.4 2.8 1.3 2.2-1 4.4-4.2 2-2.8-2-3.8 0-6.6 3.7-5.6 2.8-7 8-10 14-8 23.8-11 26-11.6Z"/><path fill="#292825" d="M255.2 363.4c-3.8 5.5-3.8 5.5-7 11.5-1.8 3.2-7.8 8.8-1.9 6 9.5-4.6 9.3-5.2 12.9-8 1.3-1 .7.9 1.4 11.4.3 4.2.3 5.2-4.6 7.4-5.2 2.4-6-1.3-10.5 2.7-3.8 3.4-4.6 1.6-8.2 5.4-6.3 6.6-7 .5-9.9 0-4.5-.6-9.7 6.9-9.6 3.7 0-1.2.6-14.7 1.3-15.7 1.2-1.8 6-2.9 4.5-9.3-.2-.5-1.4-3.6-.4-5.8.3-.6 5.4-5.7 6.9-5 2.1.8 3.2 6.7 7 2 3-4 3.1-5.8 5.2-4.3 4.2 3 3.9-4.1 9-3 1.5.3 4-1.1 4.3-1.3 2.3-1.3-.3 2.2-.4 2.3Z"/><path fill="#282825" d="M151.3 386.3c-.3-.1-.4-.6-.7-.8-.1-.1-2 1-3.2.4-1-.5-5.1-.3-5.6-.2-1.3 0-1 1.3-1 1.3-1.8 4-4.2-1-6.2 1.6-2.8 3.5-.8 6.2-8.4 11-3.4 2.3-4.2 6.3-7 8.7 0-.3-.4-.4-.4-.7-.1-.3 1.2-3.5 1.5-7 .5-5.9-12.6 10.3-17.9 11 1.4-3.7 16.2-28.6 18.8-32.3 14.9-21.4 16.9-21.2 17.3-38.1 0-1 1.6-.7 5.2 0 1 .1.6.7 0 1.8-3.2 5.2.6 8.1-1.4 9.4-3.6 2.3-1.8 4.9.8 8.7 3 4.3 1 7.9 4.3 7.8 5 0 .4 4.4 2.5 10 1.8 5 2.6 4.3 2.7 4.8 0 .5-1.2 2.4-1.3 2.6Z"/><path fill="#424242" d="M190.8 176.8c1.7-3.7 1.4-3.9 1.5-5.7.1-2.2 5.2-3.6 1.8-7.6-13-15.2-20.6-15-14.9-18.9 4-2.7-1.7-3.7-1-4.5 5.1-5 9.1-12.6 10.8-12.9 2.3-.2 3.3 1.2 7.9 1.5 7.7.6 11.5-1.5 9.7 2.2-.5.8-2 7.2 9.2 4 3.7-1 3.7 3 12.1 1.5 3.3-.6 0 1.2 0 1.2-9.7 3-16 8.1-20 3.8-2.5-2.9-10-11-9.7-5.9 0 1.4 3.4 5 7 19.8.4 1.9-.9.7-1 .7-4.7-4.2-14.6-18.2-17-13-1 1.9.2 7.4 3.2 10 4.1 3.4 15.2 10.8 7.3 16.7-2.5 1.8-3 1.5-2.9 2.6.1 1.5 11.8-4.2 4.8-12.8-6.5-8.1-10.2-6.8-11.3-14.1-.6-3.2 5.2.2 7.9 3.8 4.3 5.5 4.3 5.5 9.4 9.8.4.3.6.5 3.6 6.4 3.4 6.9-4 2.6-11.8 12.7-1.6 2-2.6 3.5-3.2 2.2-1-2.3-1.9-6-2.5-2.8l-.9-.7Z"/><path fill="#282826" d="M199 488c-7.6 16.7-8.4 16-12.5 26.1-1.1 2.8-3.7 4.3-5.5.2-3-6.4-6-4.7-10.8-9.6-5.5-5.7-6-4.9-9-5.5-2.3-.5-11.1-5.7-11-7.1.4-5.5 7.4 9.4 13.5-1.6 4.3-7.8 6.3-4.4 9.1-7.1 3.6-3.5 4.1-7 5.6-7l8.8 1c1.9.3.5 2.7 3.6 4.4 3.5 1.9 8.8 3.6 8.6 5 0 .4-.3.7-.4 1.1Z"/><path fill="#54443D" d="M232 174.6c-3 3.6-.8 5-1.6 5.7l-7.7.4c-9.4.5-9.5-2.2-9.9-7.9-.3-5.6-4.9-11.1-6.1-16.3a66 66 0 0 0-6.7-19.8c-2.8-5.3 7.3 7.3 9.3 7.7 7.3 1.5 19.7-7.2 20.2-5.3l3.9 23.2c1.3 11.1-.2 11-1.4 12.3Z"/><path fill="#4E4E49" d="M280 221.3c1 1.9.3 2 .3 8-.2 21.3-2.9 49.9-2.8 57.7.2 13.3-1.1 14.1 1.5 17.1.8.9 0 13.4 0 14.4-.4 9.4 1.8 9.6-.1 18.7-1.3 6.3 7.6 1.9 14 17.5 3.7 9.4 11 37.7-3 22-2.6-3-.6-4-1.5-5.7-1.6-3-6 0-10.7-25.1-2.2-11.8 1-15 .1-18.7-1-4.3-.8-4.3-1.5-8.7-3.5-22 0-32.8-.5-39.6-.3-4.1 0-4 .2-8.2 1.2-34.4 2.7-43.5 2.4-46.6-1.1-11.3-5-14-15.4-18.2-8-3.2-7-7.3-11-12.3-2.7-3.6-1-9.6.3-9 4.5 2.2-1.9 12 14 17.7 15.8 5.7 12.4 14.8 13.7 19Z"/><path fill="#292927" d="M217.7 209c-7.4.1-7.4-.4-14.8 0-7 .4-7 1.5-23.7 12-3.3 2-3.4 2.5-5 1.4-1.5-1-3 0-2.9-1.8.9-10.9 2.8-19.2 2.8-19.8 0-1 .6-.4 1.4-1.3 2-2.2 2-2.1 3.5-4.9 1-1.7 12.7-.8 12.3 1.5-.1.7-1.3 7 3.3 7.5 12 1 4.3-20.6 9.2-15 2 2.2 2.3 3.7 5.5 1.5 4.2-2.8 5-3 7.4.8 2 3 5.2 3.4 5 5.8-1.5 11.8-3.2 12.2-4 12.3Z"/><path fill="#050302" d="M283.1 488c.6 11-1 13.4-.8 33.2.2 10.6.6 14.7-1.7 11.7l-.6-1a149.7 149.7 0 0 1-12.2-30c-.1-.3-5.1-17.5-5.1-41.3 0-.3 0-4.3.8-4.3.9 0 9.4 11.8 11.8 16.2 4.1 7.4 9.6 12 8.6 14.6-3.4-3-19.4-30.6-20-27-.3 2 2 3.3 5 7.5 3.7 5.1 5.6 8.6 14.2 20.4Zm-10.7-5.4c-7-9.8-7.6-10-8-9.1-.6 1.1 2 16 2.1 17.5 3.6 15.7 3.6 15.7 9.6 30.1 3 7 3 7.3 3.5 7 .1-.1.1-.4.3-.5-1.4-22-1.1-22-.7-32.6.2-4-.8-3.6-3-6.6l-3.8-5.8Z"/><path fill="#3F3F41" d="M123.8 202.2a50.9 50.9 0 0 1-7.4-2.1c-.6-.3-1.4-.7-4.2-9.2-1-3.2 3.4 4 4.5-.1 1-3.6.8-3.7 4.8-8.6 3.3-4 7-.8 7.3-5.9.3-6 5-6 5.1-8.1 0-.6.4-5.7 2.4-6.4 4.4-1.5 7 9.8 10.1 20.4 3.6 12.5 1 13.7-4 15.1-7.7 2.2-8 4-13 5.8-2.8 1-2.8 0-5.6-1Z"/><path fill="#272824" d="M122.5 407c0 5-4.2 6.8-1.5 6.5 10.3-1.2 10.3-1.6 12-1 1.2.5 2.3 3.2 2.4 3.5-1.9 3.6-5.5 9.5-6 10.3-11.1 18.3-10.9 18.5-11.8 20.1-1.3 2-.9 3.2-2.5 3-10.3-1.6-10.5-2-11-2.9-3-5.5-3.8-4.6-6-9.9-1-2.2 1.2-9.1 14.3-18.8 2.8-2 5.6-6.5 6.4-7 .2-.3 2.5-2.1 2.7-2.5.5-.8.5-.6 1-1.2Z"/><path fill="#464646" d="M199.2 272.5c-3.1 2-6.2 5.7-10.4-3.4-2.6-5.7-10.7 4.6-11 .4 0-.6 1.4-4 .4-5.6-4.3-7.4 3-8.2 1.2-10.8-1.8-2.8-9.7 7-10.3-.5-.3-4-1.4-3.4-3.7-2.7-1.7.5-.4-7.3-2.6-4-.9 1.1-1.3 8.4-2.2 5.4 0 0-.8-8 .7-9 3.2-1.7 11.9-5.4 13-5.8 3.3-1.5 3.2 2 7.4 4.2 7.8 4.2 8 4.8 9.8 8.3 2.2 4.5 7.1 3 7.8 5.3.4 1.4 4.6 17 4 17.5-.3.3-.5-1.5-4.1.7Z"/><path fill="#535350" d="M179.7 361c.8.1 6.2.6 9.8 3 2.2 1.4 1.8 2.2 5 4 3.1 1.6 2.3 4.2 5.2 8 5.2 6.6 5.9 5.5 11.1 7.7.7 3.3-.3 9.2-1 22.2 0 3.4-1.7 2.2-5.4-1.5a50 50 0 0 1-3.7-5c-.3-.8 7.5-5.6 3.6-7-3.3-1.2-8.5 9-11.4 0-2.8-8.5-2.2-9.1-7.5-15.3-4.7-5.5-3.6-10.2-6.6-10.8 0 0-.3-.1-.4 0v1c2.9 3 1.5 5.8 6.2 11 5.3 5.9 4.8 7.2 7.3 15.3 3.2 10.2 11.9-2.3 12 .6 0 .8-5.8 4.7-6 4.8-6.9 3.4-7-1.4-8.5-6-3.8-11.9-8-11.6-9.5-15.8a28.3 28.3 0 0 1-2.4-10.4c0-.9 0-.8-.6-1.4 1.3-3.1 1.7-2.9 2.2-3.4l.6-1Z"/><path fill="#4C4B48" d="M67.9 183.8C78.5 195 85.5 202 94.3 207c7.1 4 7-1.8 8.5-6.3 2-6.2 1.1-11.2 2.2-11.9 4.1-2.4 4.5-1.7 4.8-1.3 2.6 4.6 1.5 13 8.5 15 3.6 1 8.8 1.4 7.6 4-2.3 4.8-4.2 7-18.3 14.7-2.8 1.6 1.5-4.2-.7-7.4-1.7-2.7-11.7-3-12.7-3-1.9 0-1.9-3.1-4.7-5-9-6.3-9.6-4.2-17-5.7-5.2-1-5.3-1.9-9.5-10.8-3.5-7.5-2.8-8-6-13.2-1.5-2.4 1.4-.3 1.6-.3 5 3.5 5 3.4 9.3 8Z"/><path fill="#52534F" d="M178.3 292c-6.2 1.2-8 .8-17.3 10.5-.2.1-1.8 1.8-2.5 1.7-2.2-.3-2.3.2-4.1-1.4 9-9.7 10.5-8.8 10-11-1.3-5.5-.7-8.1-5-6.9-2.7.9-2.9-1-5.6.3-5.8 2.5-5 4.7-5.5 7-1.7 8-3.7 10.1-4.3 12.2-1.7 6.2-.7 13-2.6 12.1-2.8-1.5-3-1-3.2-1.1-.3-.3.2-3.1.3-3.4 3.6-17.3 0-18.7 7.2-34.2 4.5-9.6 6-9.7 6.8-9.8 6.9-.6 6.8-1 7.4-1 5.9-.2 3.3 4.3 7.1 10.5 3.2 5.2.1 6 .5 9.5.5 6.4 7 1.4 9.5.1 1.7-.8 11.1-4.7 7.7-1.4-4.2 4.1-3.6 5.2-6.4 6.3Z"/><path fill="#644B44" d="M208.6 537c-.3-3.2-1.5-1.4-4.4-1-2.3.4.7-2 .9-2.2 2.8-2.3-.2-5.2 5.8-15.9 3.7-6.4 2.7-7 6.3-13.6 1.1-2-1.7-4.5.5-5s2-1 5.5-5.5c2.6-3.4-2.7-6.3-3-6.6-2.2-1.7-1-6.6-.6-7.3 1.6-3.1 5.2.5 6 1.1 2.3 2 2.2-2 5.5-2.1 3.1-.1 2.1-2.1 9-14.4 2-3.6-.4-3.3-4-3.8-7.3-.8-2.8-9.4 1.5-7.8 6.8 2.6 7.7.5 15.9-17.2.8-1.7 2.9-7.3 3.1-3.6.5 5.8-4.3 13.4-4.6 14-14.8 31-16.8 32-17 37.3 0 3.8-10.3 14-13.4 21.7-5 11.8-6 11.8-5 16.8 1 5.1-7.4 16.6-7.4 16.6-.8.6-.5-.4-.6-1.5Z"/><path fill="#272724" d="M171 351.1c3.8 2.6 5 7.7 8.3 9.8l-.2 1c-.5.6-.9.4-2.2 3.5-2.3 3.7 1.6 5.5-.3 9-3.2 6-3.5 7-10.7 6.2-2.9-.3-3.7 3.8-6 3-5.2-1.4-6.5.4-8.7-5.7-1.8-5 2.8-9.7-3-10.8-1.9-.4-2-.7-2.3-3.2-.2-2.8-5-6.9-1.3-5.1 4 1.8 5.8 0 7.8 7.5 1 3.9 8.4.7 7.3-10-.4-3.3.8-2.7 3.4-3.6 3.8-1.4 3.9-.8 7.9-1.6Z"/><path fill="#3F3A34" d="M179.2 108.7c.2-1 2.3-13.3 5.2-12.3 4.3 1.4 6.6 1.7 8.1 5.5 1 2.8-6.3-.7-7.3 3.9-2.5 11.5-4.7 10-8.5 17-1.2 2.3-1.3 2.4-3 2.6-2.2.3-2 .7-4.6 2-.7.2-2.5-1.6-2.7-1.8-3-2.9-7.8-3.3-7.2-5.9 2-9 .1-9.5 2.4-18.6 1-4-.2-13.3.6-18 .2-.7.6-.7 7.3 3.2 3.8 2.1 6.4 4 2.3 14.2-2 5-6 9.2 2.9 12.1 4.2 1.4 4-.7 4.5-3.9Z"/><path fill="#5E4F47" d="M212.3 280.5c4.4 17.5 7 36.9 5.8 42.6-2 9.4-.2 11.6-2.3 11.1-4.9-1-6.6.6-5.8-1.7 3-9.1 6-12.7-2.2-47.8-5-21-4.7-21.1-10.4-42l-3.8-15.1c0-1.4 2-.2 2.7-2.4.8-3 .8-3.5 3.8-3.8 2-.2 3-.9 2.6 1.5-1.1 7.3-.8 7.4 1.5 23.3 1.3 9.2 2 10.8 8.1 34.3Z"/><path fill="#52433C" d="M87 200.3c-2.1-.7-1.7-1.6-3.4-3-17-15-16-18-23.7-22.5-3.6-2.1-4.2-1.8-5.4-6.7-1.4-5.5-6.8-3.9-9.6-8.2-4.9-7.6-7.3-3.6-11-8.8-2.3-3-.4-3.6-.2-3.6 10.2-3 17.1 6.2 29.9 12.1 1.9 1 9 16.4 15.5 22.3 2 1.9 2.8.2 3 1.4 2.2 8.6 2.4 8.5 4.8 17Z"/><path fill="#424343" d="M103 189.4c1.1 1.5-2.2 16.8-4.2 17-2 .4-9.6-3.6-10.4-5.8-1-2.5-6.8-21.4-5.8-24.9s1.6-8.6 8-8.3c3.7.2 5.1 6.6 13 11.6 3.7 2.5-3.7.9-4.2 6-.4 3.5-.4 11 3.5 4.4Z"/><path fill="#53544F" d="M218.2 406c7.3-4 7.8-6.4 10.6-3 3.5 4.2 8.3-1 8.9-1.6 1.2-1.2 2.5 2.6 1 4.9-7.4 11.7-4.7 14.5-12 20.9-4.4 3.8-3 10.1-5.4 13.6-2.8 3.9-2.8 4-4.3 8.9-1.4 4.4-2.2 4.8-2.5 5-.1-2.7 1.4-2.5 2.3-33.7.5-14 .6-14.2 1.4-15Z"/><path fill="#080100" d="M274.7 467.5c-1-3.8.2-3.6 1.3-6.2 2.5-6.1-2.4-25.8-4.7-26.7-.7-.2-2.8.4-2-6.6 1-7.4 6.5-.3 6.9-3 .8-5.4 0-5.8 2.7-10 1.4-2.2.7-3.6 1.7-3.5.4 0 3.3 4.8 3.9 6.2 1 2.2 1 12 0 14.9-2.2 7-.7 7.2 0 15.8 1 13.4-.8 13.3-3.3 15.4-2 1.7-1.9 11.3-6.5 3.7Z"/><path fill="#464646" d="M149.2 326.9c-2.6.3-2.6.2-5 1.6-2.5 1.4-6.5-5.6-6.6-7.1-.5-8.2 4.7-.4 7.9-3 2-1.7 2.5-.3 4.5-2 4.7-3.4 7.9-3.7 14-5.6 11.3-3.5 10-12.8 22.7-25 3-3 17.4-9.3 15-.5-.8 2.5-8.2 6.4-9 6.7-3.3 1.2-4.3-1.4-11.4 6.4-10.7 11.9-11.7 13.6-12.5 15-.6 1 .4 1.5-.4 2.4a17.6 17.6 0 0 1-9 4.6c-7.5 1.6-6 6.9-10.2 6.5Z"/><path fill="#493D37" d="M205.4 528.8c-.4 4.5-1.6 3.6-4 7-.8 1-7.2-.4-10.9-3.2-.7-.6-7.4-5.6-9.8-6.4-1.8-.6-13.3-8.7-24-14.4-5-2.6-15.9-7.2-52.4-37-5.5-4.6-20.2-17.6-19.8-18.8.1-.3 5 0 4.6 1.1-.2.8-.8 1.5 2 3.4 14.5 10.6 18.8 18.8 37.7 29.4 20.9 11.6 19.3 15.4 40.2 26.9 2.4 1.3 11.7 7.7 12.5 7.8.6 0-.1-2.9 2.4-2.9 7.8 0 6.7 5 14.3 6.5 4 .8 7.1-3.3 7.2.6Z"/><path fill="#3E3F3C" d="M270.3 517.2c6.8 17.9 11.5 25 12.8 26.9.3.4.3 6-1.6 1.6-1-2.5-14-28-15-32-1.3-4.8-3.3-17.7-8.2-38.5-7.7-32.8 2.5-40.1-1-45.3-1.2-1.8-.4-2 1.5-4.9 6.3-9.5 6.5-9.4 10.8-19.6 1.4-3.6 1.8-3.9 5-3.3 1.7.3.5 1.3-.4 3.3-8 16-7.5 16.4-8.2 17.8-.2.3-3 3.8-3 8.9.2 14.8-4.2 19.7-3 35.5 2 29 8.8 46 10.3 49.6Z"/><path fill="#5F453C" d="m232.5 184.4-.5 1.1c-1.3 2.5-.9 2.7-2 5.3-2.4 5.4-2.1 5.6-2 11.7 0 2.3-1.3 5.8-3.4 6.3l-4.4.6c-.6-.3 5.5-13.3 1-16.5-2.6-2-2.5-2-4.5-4.9-3.3-4.6-9 2.7-10.5 1-5-5.8-7.2-4.2-9.3-7-.8-1 4.1-6.5 6.4-7.6 7-3.3 6.8-4.2 7.4-4.1.8 0 1 4.4 1 4.8.3 9.8 10.8 7.2 16.1 6.8 4-.2 3.7 1 4.7 2.5Z"/><path fill="#282724" d="M177.5 294.6c-2.2 3.7-2.2 3.7-4.6 7-7.4 10.9-10 6.1-21 11.5-2.3 1.2-2 2.5-4.5 2.5-1.6 0-3.7 2.8-3.7 1.1.3-12.7 4.4-15.4 6.3-25.7.6-3 1.2-2.5 3.4-3.9 3-1.8 3.3.3 6.5-.6 2.1-.6 2.3 1.5 3 5.2.3 1.2-6.8 6.4-9.4 9.5-1.8 2.3.3 2.1.4 2.2l.5-.6c1.8 1.6 1.9 1 4.1 1.4.7.1 2.3-1.6 2.5-1.7l.7 1c.2 0 3-2.2 4-3.4 5.3-5.8 6-4.2 10.4-6 1-.5 1 .2 1.4.5Z"/><path fill="#282824" d="M171 351.1c1.3-1.7 1.5-2.2 1.6-2.4.5-1.4.9-.3 10.4 2.2 6.6 1.6 14.3.9 15.2 9.5.6 5 5.1 1 7 8.8.5 2.2 2.4 1.9 2.7 3 1 3.3 1.8 2.4 2.8 4 .7 1.1.2 6.9.1 7.5-5.2-2.2-5.9-1-11-7.7-3-3.8-2.2-6.4-5.2-8-3.3-1.8-2.9-2.6-5.1-4-3.6-2.4-9-2.9-9.8-3h-.4c-3.3-2.2-4.5-7.3-8.3-9.9Z"/><path fill="#4C4C49" d="M71.5 201.6c7.8 1 15.2.8 20 9 1.9 3.3 2.8.6 11.5 3.2.7.2 4.5 0 2.9 5.1-1.1 3.5-2.2 2-9.9-.6-11.1-3.8-9.2-9.2-17-11.4-13-3.6-15.3-1.8-18.4-10.3-6.9-19.4-5.7-23.5-19.5-32.6-2.4-1.6-2.7-5-4.3-6.3-5.3-4.2-9.1-4.6-6.7-8.6 1.7-2.9.9 1.7 3.2 3.7 5.2 4.5 7.6 3.5 9.4 6.3 5.8 9 9.3 4.7 10.3 8.5 2.8 11 12.8 31.7 14.8 32.8 1.6.8 1.6.6 3.7 1.2Z"/><path fill="#464742" d="M242 269.3c-7.7 6.9-9.6 8.8-12.8 7.8-2.1-.6 1.4-3.3 3.2-6 6-8.7 7.1-7 14.8-13.3 10.3-8.5 11.6-3 15 1.7 3.8 5 12.8 16 12.3 19.4-.9 6.4-1.8 6-4 13.4-3 10-3.1 10.2-3.8 10.3-1 .1-3-.9 1.7-16.2 2.9-9.4 1.2-11.6-5.2-17.7-9.7-9.1-11.4-8.3-21.1.6Z"/><path fill="#4C4C47" d="M247.4 100.6v-.3c1.3.2 0 1.5 5 17.7 4.4 13.6 14.7 24.6 13.7 27.4-2.6 7 2 6.6 2.7 11.1.3 1.9 1 3.6-4.9 6.5-2.6 1.3-9.4.4-8.8-4.2 2.6-21.5-4.1-28.5-7-47.1a70 70 0 0 1-.7-11Z"/><path fill="#414243" d="M87.3 163.4c5.5 3.3 16.3 1.8 21.3 4 3.4 1.7 9.4 2.6 4 7.6-5.3 5.1-6 4.7-6.4 4.3-10.9-8-10.7-13.6-17-13.6-4.8 0-6.3 4.7-6.5 5.4-1.6 5-2 5-1.3 8.1 0 .2.6 3.3-1 2-1.1-1-3.4-2.8-11.9-16.8-.5-.9-3.4-5.5-1.6-5 7.8 2.4 7.8 2.2 15.7 1.2 2.8-.3 2.8.2 4.7 2.8Z"/><path fill="#424243" d="M182.9 94.6c-7.4 11-3.3 17.8-6.8 16.8-6.2-1.7-6.4-3.5-5-6.6 4.3-8.9 4.5-9.7 3.4-22.3a33 33 0 0 0-7.9-17.8c-4.6-5.3-5.7-7-9.4-10.3a56 56 0 0 1-6.3-8c-.7-2 3.8-6.2 13.8 7.9 4.8 6.8 5 6.6 8.2 14.8 6.4 16.5 11.2 22.3 10.5 24.5l-.5 1Z"/><path fill="#646157" d="M107.2 181.1c12-7.2 8.3-11.7 8.6-13 .6-2.6 1-2.2 3-3.3 2.3-1.3-2.2-3-3.7-3.8-2.4-1.3-4-.1-3.4-3.4.2-1.3.7-1.2 11.2-.6 2.4.1 4.4 9 4 10.5-1 3.2-.1 3.2.5 6.5 1.3 6-3.3 2.3-7.5 7.9-2.7 3.6-3.3 3.2-4.4 7.8-.7 3.3-4.3-6-7.5-4.3-2.4 1.4-2.4 1.6-5 2.1-1.4.3-2.3 4-2.5 1.7-.7-6.8 1.5-6 6.7-8Z"/><path fill="#444544" d="M73.7 411.7c.8-6.8 1-12.4 2-14 5.5-7.8 12.5-40.3 15.7-46 3.5-6.4 1.4-7.2 2.5-11 .7-2.6 5.8-6.4 6.4-6.8 2.2-1.6.5 2.3-.6 5.5-5.7 17.8-7.8 17-7.8 24 0 5-.5 4.8-2.1 9.4-3.3 9-2.4 9.4-11 31.9-6.2 16.2-5 17-5.9 18-.5.6-.8-.4.8-11Z"/><path fill="#646157" d="M136.4 305.2c-1.4 2.4-1.2 2.8-5.6 5.3-1.8 1 .1-2.7-1.9-3.4-2.3-.7-4.3 4-4.3 1.5.5-15.6 2-17.1 3-18 4.7-4.7 5.3-3.7 12-12.7 4.1-5.5 11.6-11.8 6.9-4.3-7.9 12.7-6.9 25-8.1 27.8l-2 3.8Z"/><path fill="#2B2A28" d="M278.6 465.8c-.6 2.4-1.1 3.4-2.4 1.6-2.4-3.3 1.5-3.5 1.6-9.7a57 57 0 0 0-4.4-23.2c-.8-2.2-2.7-1-2.7-3-.2-9 3.6-3.5 5.2-3.6 3-.4-.6-5 4.3-12.5 1.2-1.8 3.5 2.9 3.6 6.8.4 10.3-1 10-1.7 14.6-.4 3 3.2 21.7.3 24-2.6 1.9-2.7 1.8-3.8 5Z"/><path fill="#282825" d="M189 464c1.6-2.5.7-3 2-7.4 4-13.8 3-14.9 4.5-15.2 6.8-1.5 11.2-7 12-7 .8 0 .3.6.1 3.5-.6 7.3-1.2 20.5-1.5 21.6-.5 1.4-15.2 4.9-16.7 5.8 0-.2.5-.4 0-1l-.3-.3Z"/><path fill="#5C5D58" d="M152 391.9c-7.7 14.2-15 24-6.4 32.6 2.5 2.5 7.8 2.9 10.4 7.8 3.5 6.7 5.4 3.7 10.8 9 4.6 4.6 6.4 6 9-.6 5-12.5 7.4-26.2 10.6-22.9 2.3 2.5-3.9 10-5.1 13.8-1.8 5.3-2.2 5-4 10.3-1.9 5-4.9 7.5-10.2 16.8 0 .1-3 2.9-1-.9 4.5-8.6 7.5-10.2 4-11.7-8.1-3.3-8-3.6-15.7-10.6-10-9.1-13.2-6.5-16.1-21.5-.8-4.1.6-3.8 9.4-19.3 6-10.7 7.8-11.6 8-9.8 0 .8-1.5 3-3.7 7Z"/><path fill="#272724" d="M145.5 342.9c1-1.7 1.3-1 7.4-.1 5.6.8 18.3 4.2 18.4 4.8.6 2.6-4.2 1.5-12 4.6-3 1.2 1.1 7.7-2.4 12-3.8 4.9-3.6-.5-4-1.4-3.4-6.6-10.7-5.4-11-7-.6-2.5 3-1.5 2.1-6.4-.5-3.5-.2-3.6 1.5-6.5Z"/><path fill="#494949" d="M99.8 272.7c-1.9 0-6 1.2-3.5-3.6 3.5-6.7 8.8-7.7 18.3-14 4.2-2.8 5.7.2 7.5-4.1.7-1.6 1.7.7 5.8-.9 4.9-1.7 4.9-2.2 6.1-1.7 1.3.6-.7 5.7-1.8 6-3 1.2-3 1.6-4.4 5.1-1 2.7-3-2-6.7 2-1.6 1.6-1.7 1.5-3.8 1.7-1.2 0-5 2.4-9.1 5.4-4 3-4 3.3-8.4 4Z"/><path fill="#52534F" d="M146.8 393.5c-3.6 6.4-3.5 6.4-6.7 11.4-5 7.9-3 9-3.5 9.6-.3.6-.8 1-1.2 1.5-.1-.3-1.2-3-2.4-3.4-1.7-.7-1.7-.3-12 .9-2.7.3 1.4-1.5 1.5-6.4.2-.6 1.4-3.9 4.2-5.6 10-6.4 6.7-11.9 9.5-12.2.6 0 10.3 3.5 10.5 3.7v.5Z"/><path fill="#414141" d="M259.8 302.9c-6.3.7-8.6 2-11.6-1.9-3.6-4.5-7.5.7-7.5-3 0-3.6 1.9-4.6-.5-6.6s-9.8-6.5-3.5-5.2c2.2.5 27.5 5.8 28 6.2 1.2 1.2-1.6 5.6 0 9.4 1 2.3-.8 1-5 1Z"/><path fill="#5F473E" d="M278 2.4c.3.8 2.2 6.2-.4 11-3.8 7-20.2-5.5-20.7 8.5 0 1.3-1.6.8-2.7 15.2 0 .4-1.2 10.6-2.7 11.8-2.5 2-7 16.6-5.6 9.7 2.1-10.7 5.5-18.7 5.6-34.4l1.1-1.7c3.5-5.8 1.2-7.8 5.7-12.3 4.7-4.5 7 .7 11.1-1.3.4-.2.7-.7 1-.8 1.6-.7 1.6-.3 1.7-.4 2.8-2 2.6-2.3 2.9-2.4 1.9-.9 1.7-1.1 3-3Z"/><path fill="#52524F" d="m150.5 434-1.4 1.4-.8 1-.5.3c-1.8 2-1.6 4-6.8 11.8-3 4.2-.3 5.1.1 4.6.2-.2-.2-.5 0-.6 0 .6.2 1.1.3 1.7-2.2.2-6.5-1.7-14-2.8-1.7-.3-.1-1.5 6-12.5 6.9-12.6 7.2-13.4 8-12.6 3.9 4.8 4.3 3.9 9.1 7.7Z"/><path fill="#53534F" d="M173.8 475.6c1.5.6 3-.4 2 1.2-5.3 9-7.7 5.2-10.8 9-3.2 4-3.8 10.5-11.5 4.9-1.9-1.4-2.6-1-2.4-3.8 0-1.8 5-6.1 8.9-13.3.9-1.7 1.3-.7 13.8 2Z"/><path fill="#5F4C42" d="m190.8 176.8 1 .7c.9 4.4 2.8 5 3.2 5 .3.1 5.6 4.1 5.6 4.3.2.6-.3.6 0 8.7.1 7.8-9.4 8.2-8.2 2.4.2-.6 2.7-4.7-5.7-5.7-3-.3-6.3.5-6.2-.8.1-.6 1 0 3.5-7.5.8-2.4 4.7-3.2 6.8-7Z"/><path fill="#464646" d="M97.4 319c-1.6-.1-8.1-2.2-10-4.2-1.2-1.3-7-5.8-7.2-2.2-.4 5.4-.1 5.9-.8 5.9-1.2 0-1.2-.1-2.3.4-2.3 1.2-3.6-3.6-3.3-6.3.5-3.5.9-3.5 0-7-.4-1.5 1.7-7.4 2.8-7.5 5.2-.7 5.6-.3 6 .1 3.4 3.7 3.1 8 14.3 19.8.4.3.2.4.5 1Z"/><path fill="#433730" d="m98.3 274.3 1.1.7c1-1 1-1.2 2.2-1 4 1-5.7 5.2-4.6 15.3.4 3.4 2 3.6.4 6.4-1.2 2-1 3.5-2.7 2.4-1.9-1.2-1.8 1.5-3.3 1-3.7-1-3.2 2.6-3.7 3.6-1 2.1-1.3-4.7-6-6.8 9-16.4 15.3-18.5 16.6-21.6Z"/><path fill="#353532" d="M139.4 327.1c-1 .4-1 .1-2.7-.4-8-2.5-18.8-3.8-20.7-4.2-1.3-.3.7-3.8 6-6.1 4.7-2-2.4-2.3-3.4-5.4-1-3 1.8.7 5.2 1.8 1.7.6 3-4.6 4.6-4 1 .4-1.4 5.6 2.3 3.6 5.9-3.3 5.5-4 7-7.2 1.8-3.4-.2 5.3-.3 5.8-1.3 5.7-.6 5.8-.8 6.3-1.3 5.2.3 7 2.8 9.8Z"/><path fill="#4E4E4C" d="m136.2 417.4 1-1c.5 0 .1.5 2.6 7.6.2.6-6 11.4-6.6 12.3-8 13.9-7.9 14.6-9 14.4-6.4-.8-6.6-1-6.5-1.7l7.3-12.6c.8-1.5 6.5-11.3 11.2-19Z"/><path fill="#3A3632" d="M261.1 390.2c.3 3-1.8 5.5-3.5 16.3-2.2 14.8-4.6 18-3.4 22.1.5 1.8.3 2-2.7 8.2-4.2 9.2-5.5 13.5-9.2 15.3-1-1.5-1.5-1.2-1.6-3 2.7-2.6 2-3.3 3.3-7.1.4-1.2 3-8.8 4.7-14.5 9.7-32.1 10.3-32 10-35.2.6-.3.8-.4 1.9-1.8l.5-.3Z"/><path fill="#61473F" d="M250.2 22.5c.1 20.4-4.1 23.8-7.3 46.6-.2 1.5-1.5 11.2-2.4 19.3v-.6c-.1-.3-1.5.1-1.2-10.5.2-4 2.8-11.4 2.3-14-1.9-9.2 2-12.3 2.2-17.5 0-1.3-.6-1-.6-2.3-.1-4.8.3-4.7 2.1-8.8 3.6-8.2-.1-9.3 1-11 1.6-2.2 2-1 3.9-1.2Z"/><path fill="#52534F" d="m162.2 458.5-11.5-2.2c-1-.1-1.4-.3-.8-1.3 4.6-7.7 4.3-8 7.3-14 .8-1.6 1.6 3.3 11.9 6.4 2.2.7-.8 4-1.6 5.3-3 4.5-2.5 6.2-5.3 5.8Z"/><path fill="#292925" d="M92.3 341.9s.1 5-1 7.3c-4.2 8-3.1 8.7-6 17.5-3.1 9-2.1 9.5-5.1 17.5-3.5 9.3-3.4 9.6-4 9.6-1 0 2-13 2.3-14.1 3-13 2.6-16.1 5.5-31.5.2-1.1.5-.8 3.2-2.5 3.4-2.2 3.8-3.6 5-3.8Z"/><path fill="#51514D" d="M208.5 131c0-.2 1.2-1.3.8-1.9 0-.1-1.4-.6-1.2-1.7.5-3.2 4.9-3 5-3 1-.4 4.5-1.9 13.7-.2.6 0 .6.3 1.7 9.6.1 1-.6 1.2-.7 1.2-4.9 1.6-7.2-3.1-13.8-1.2-5.1 1.5-7.9-1-5.5-2.9Z"/><path fill="#474644" d="m229 92 .7-.1c-.3 2.8-1 2.3-8.3 7.6-14.4 10.6-18.2 6.3-29.2 7.4-3 .3-3.2 1-8.2 14.7-.5 1.3-.3 1.4.5 2.4-1 1.4-2.6.2-2 1.6.5 1.2.8 1.3.4 1.6-4.3 3.1-5.2 2.2-8.3 5.2-1 .8-1-.3-.9-.4 2.9-7 6.7-12 7.4-12.9.5-.7 3.4-5 4.7-10.3.4-1.7-.4-4.5 5-4.2 8.5.4 20.2 2.2 37.4-11.8l.7-.7Z"/><path fill="#424241" d="M147.8 483.7c-1.7 1.5-2.5 1.4-4.2 1.3-.8-2.5-5.7-4.7-9.2-8-7.8-7.2-13.3-3.6-14.1-10.6-.3-2.8-.6-4.1 1.7-3.6 8 2 8 2.1 8.9 3.5 6.5 12 12.3 6.5 16.9 17.4Z"/><path fill="#3B3C3B" d="M281.5 220s-.6.5-.8-.6c-.5-5.6 1-13-14.4-18.8-4.3-1.6-9.4-3.6-10.7-11.5-.8-4.9 4.6 1.1 4.9 1.4 8 9 23.8 8.4 22.9 25.4-.1 2-1.8 4-1.9 4.2Z"/><path fill="#454641" d="M150.5 434c2.4 2 2.3 2 4.6 4.2 1.7 1.5 1 2 0 4.3s-6.5 12.4-6.8 12.9c0 0 0 .7-7-1.2 0-.6-.2-1.1-.3-1.7 0-3.2 3.8-6 7.3-14.6.3-.7 0-.6-.5-1.2l.5-.3.8-1 1.4-1.4Z"/><path fill="#60605B" d="M147.8 483.7c7-4 9.2-14 10.8-11.5.2.3.4.7-2.2 4.5-4.4 6.6-6 5.5-6.6 11.4-.1 1.3-4.2 1.6-6 .3-7.7-5-7.7-10.1-21.8-14-4.8-1.3-11.1-9.3-10-13.1.4-1.5 7.1 0 7 1.7-.3 9.2 2.9 9.1 6.6 10.5 10 3.8 14.6 12 18 11.5 1.7 0 2.5.2 4.2-1.3Z"/><path fill="#6E4C43" d="m272.2 399.5-.5.9c-4.1 1.8-1.4 5.2-12.6 21.6 0 0-4.5 7.1-4 3.7.3-1.8.9-1.6 4.3-22.1.6-3.5 2.6-11.6 3.1-11.7 0 0 2.7.6 2.2 2.3-2.6 8.5-2 8.7-4.2 17.5-.3 1.4.6 1.8 1.4.4 2.9-5.2 4.5-16.1 10.3-12.6Z"/><path fill="#605E57" d="M133 467.2c-.1-.2-1.4-2.3 0-1.8 3 1.1 22.5 5.8 22.6 5.9.7.4.8 1.3-5.5 9-1.9 2.4-2.1.1-2.4-.3-3-5.6-9-4.6-14.8-12.8Z"/><path fill="#704840" d="M271.3 372.6c7.9-12.4 7.3-13.9 8.3-13.4.3.2.2.3 1.7 4.8 1 3.6-3 6.1-3.5 6.4-1.8 1 0 2.8-4.8 10.9-2 3.3-2.6 2.3-3.8 3.8-1 1.2-1 3.6-2.8 1.3-2.2-2.8-1-4.7 4.9-13.8Z"/><path fill="#53504B" d="M123.5 306.2c-.1 3.8.5 4.6-.6 4.5-2.4 0-2-3.5-1.9-3.9 1-7.5 1.2-7.5 1.4-15.1.1-4.8 6-5.5 11-11.9 5.3-6.8 11.8-14.2 14.4-14.5 1 0 3.8 1.3 2.4 2-10.7 5.3-9 8.4-18 17.4-2.6 2.7-5 4-6.3 5.5-2 2.6-1.8 6.2-2.4 16Z"/><path fill="#464646" d="M188.6 243.1c-8.8-5.7-8.7-5.8-10-7-1.5-1.4.1-2 3.5-3.7 4.8-2.2 4.8-3 7-2 2 .7 1 2.6 2 4.6 1.7 3.6.5 3.8-.8 7.7-.6 2.1-1.2.7-1.7.4Z"/><path fill="#404040" d="M96.1 309.7c9.6 11.5 23.4 13.5 13.8 12-8.1-1.5-9-.5-11.1-3.7-1-1.3-2.7-2-8.2-10.1-.3-.5-2.9-4.4-1-6.9 2-2.6 4.3 5 6.5 8.7Z"/><path fill="#292A26" d="M180.9 436.2c0 .4.2.7.3 1-2.9 7-3.6 8.6-1.2 11.5 3.8 4.4-8.9 12.3-9 12.3-2.8-.8-2.8-1.2-2.7-1.5 0-.3 5-8.4 5.4-8.8 4.6-6.3 3.6-7.2 7.2-14.5Z"/><path fill="#413C38" d="M262.9 405.3c1.3-5.3 1.5-5.1 3-10.4 1.3-4.5-3.2-3.3-3.6-6-.2-1.4.3-1.5-1.6-18-.6-6 1.1.6 1.1.7 2.9 12.7 1 14.7 6.3 17.9.5.2 2.8 1.6 3 7 0 1.5-2.8-1-5.7 4.2-1.4 2.5-.5 3.3-2.4 5.2l-.1-.6Z"/><path fill="#5C544E" d="M98.3 274.3c-1.3 3.1-7.6 5.2-16.6 21.6l-2.8.5c-.6 0-1-1 3.7-8.3 10.7-16.7 15.5-13.8 15.7-13.8Z"/><path fill="#020202" d="M109.9 388.3c-3.5 6-11.3 22.2-8.3 13.5l6-12.2c5.6-10.2 7.6-8.4 13.6-21.4 5.7-12.2 8-11 10.1-24.6 0-.2.8-4.9 1.5-2 .2 1-1.2 11.2-4.4 15.9-6 9-5 12.3-13.6 23.7-2.7 3.6-2.8 3.5-5 7.1Z"/><path fill="#050505" d="m90.3 176.9-.4-4.7c0-1.8 1-1.5 1-.6 1 7.7.1 8.3 5 16.6 3 5 3.7 13.4.6 14-7.3 1.7-8-6.8-8.1-7.9-1-8.5-2-8.2-2.1-15-.2-7-.6-7-.3-7.4 2-2.3 1 6.6 2.1 12.6 2.3 12.1 1.1 16.4 7.5 16.4 2.9 0 1.7-7.2 0-10.5-3.4-6.4-4-6.1-5.3-13.5Z"/><path fill="#070100" d="M258.7 392.3c.3 3.1-.3 3-10 35.2-1.7 5.7-4.3 13.3-4.7 14.5-1.4 3.8-.6 4.5-3.3 7 .5-4.2 10.8-34.3 16-51.8l1.1-3.6c0-.3-.3-.5-.3-.7l1.2-.6Z"/><path fill="#454441" d="M261.8 88.2c4.3 10.3 13 12 7 15-1.4.7-1.2-.2-1.2-.3.4-1.9 1-2.4-1.4-5.2-6-7-6.3-7.3-7-15.2-.8-10-9.6-.6-10-1.8-.7-2.6 10.8-10 11.5-1.1.3 4.4.1 4.4 1 8.6Z"/><path fill="#424241" d="M192.2 247.4c-2.9-5.4 2.5-7.3.8-11.6-.9-2.3-.8-2.3-1.3-4.7-.6-2.4-3.6-2.4-1.7-3.3 2.6-1 2.6.5 3.2 3.3 4 17.9 6.1 20.6 4.6 20.4-3.4-.5-5.3-3.6-5.6-4Z"/><path fill="#393839" d="M264.3 468.4c6.7 8.2 6.7 8.1 12.7 17 .3.4 1.8 2.6 3.6 3.6 1.3.8 1.6.8 1.5 2.5-.6 15.5-.8 15.4-.8 30.9-.6-1-1-1.9-1.3-14.6-.1-10.2 1.8-15.4-.8-18-3.5-3.4-4.5-7-8.7-12-6.5-7.7-6.5-7.9-6.5-8.9l.3-.5Z"/><path fill="#020202" d="M83.3 337c0-.4.2-4.5 1.6-5.7.3-.3 2-1.7 3.8-1.5 10.4 1.3-3.2 15.2-5.4 7.3Z"/><path fill="#6C6964" d="M100 422.5c-1-1.7-.6-1.9-.9-4.4-.6-5.3-3.3-7.1-4.5-7.4-8.1-1.7-7.6 14.6-8.5 17.2-.7 2.3-3.1 5-3.5 5.2-2 1 .8-3.1 1-3.3 4-5.8.3-17.3 7.8-20.6 8.4-3.8 9.9 10 8.7 13.3Z"/><path fill="#060302" d="M216.5 404.7c.5.2.7-.2 1.2.6l.5.8c-.8.7-1 .8-1.4 15-1 31-2.4 31-2.3 33.6l-1.2-.5c2.1-16.5 1.6-26.6 3.2-49.5Z"/><path fill="#0A0302" d="M157.3 188.5c-.3 4.6 2.6 5.8 3 12.9.3 8.7 1.3 12.8-2.8 28.5-.2 1.1-1.3.7-1-1.2.2-1 6.3-21.6.3-35.6 0 0-1.2-2-.5-4.5h1Z"/><path fill="#5F453C" d="M162.5 227c.6-3.7.7-7.7 5.6-4 1.2 1 8.1.2 5.2 1.7-10.3 5.5-10.1 6.3-11.1 6.2-1-.1-.3-.7.3-4Z"/><path fill="#444342" d="M276.1 327c2 5.7-2.7 6.5.6 20 1.2 5-7.4-7.1-3-12.7 1.2-1.7 1-1.9.7-4.1l-.3-.7.8-1.3c.4-.9.6-.6 1.2-1.2Z"/><path fill="#3B3936" d="M172.9 82.4c-6.8-12.7-19.2-31.5-9-18.9 2.4 3 7.5 8.1 9.5 19.1l-.5-.2Z"/><path fill="#565654" d="M205.7 433.9c-6.2 5.3-12.4 7.8-11.2 3.4.6-2 2.6 0 11.7-6.8 1.3-.9 2.1-1.4 2 .4-.2 1-.2 1.3-2.5 3Z"/><path fill="#3B3B39" d="m284 487-.9 1c-8.6-11.8-10.5-15.3-14.1-20.4-3-4.2-5.4-5.5-5-7.5.5-3.6 16.5 24 20 27Z"/><path fill="#090201" d="M217.1 357.5c-.6 12.3-.5 17.2-2.1 16.7-.7-.3.4-.8.5-12 .1-8.8 2.6-22.8 3.7-19.4.4 1.1-.8 1-2.1 14.7Z"/><path fill="#070402" d="M177.3 117.1c0 .2.4.7-.5 1.3-3 2.2-3.2 2.2-6.9 0-8.6-5.6-9.4-7.5-6.8-11.4 2-2.7 3.6-11 3.8-7 0 3-3.2 8.3-3.6 8.9-2 3.3 9 9.3 10 9.8 1.7 1 1.4-1.8 4-1.6Z"/><path fill="#373632" d="M238 462.7c.9.1 1.5 0 1 1-.4.9-.6.8-6.1 12-.1.3-.9 1.8-2.7 1.6-1.4-.2 2.5-5.6 5.6-13.7.5-1.3.9-.7 2.2-.9Z"/><path fill="#646158" d="M245.9 322.8c-7.2 1.5-7.2 1.4-14.4 2.4-1.8.3-1.7.5-3.4 1.2-2.5.8-2.4-.2-2.8-.5 1.6-2.7 3.5-1.1 14.6-3.9.5-.1 6.6-2 6.7-.5l-.7 1.3Z"/><path fill="#403D37" d="m185 123.5-.2-1.4c5.2-13.6 5.6-14.3 7.5-13.5.7.3-.3 4.9-1.2 6.3-.4.8-1.5 2.6-6.1 8.6Z"/><path fill="#2D2D2B" d="M264.3 289.4c.2 0 .4.4.6.4.7 0-.5-17.8 1.4-15.3 2.5 3.2 3 3.8.5 12.6 0 .3-1.1 4.1-1.4 4.1l-1.5-.6.4-1.2Z"/><path fill="#020301" d="M275 177c2.8 7.6 4.3 7 5.2 16.8.3 4-1.1.2-1.1 0-1.2-6.8-1-7-4-13-2-4-5-17.6-3-14.9.1.2 2 8 2.9 11Z"/><path fill="#565655" d="M74 459.5c-1.3 10.8-16 9.1-13.8-6.4.7-5.3.8 2 .8 2.3.2 11.5 11.2 12.4 11.5 3.5 0-.9.8-.8.9-.8.8 0 .5.5.7 1.4Z"/><path fill="#060605" d="M178.3 292c-.1 1.5-.2 1.4-.8 2.6-.5-.3-.3-1-1.4-.5-4.4 1.8-5.1.2-10.4 6-1 1.2-3.8 3.4-4 3.3l-.7-1c9.4-9.6 11.1-9.2 17.3-10.4Z"/><path fill="#353534" d="M264.3 464.3c5 5 5.8 8 15.6 21 0 .1 3 5-.2 1.4-2.2-2.4-10.7-15.2-14.5-19.5-1-1.2-1.5-1.3-.9-2.9Z"/><path fill="#040504" d="M67.4 447.2c0 1.7.4 5.7-.5 5.6a64 64 0 0 1 0-20.7c.7-1.4 4.3-5 3.7-2.4-.3 1-3.3 2.4-3.2 5.9 0 1.4.2 1.4 0 11.6Z"/><path fill="#030304" d="m79.3 347.6-.4.7c-.7-.9-2-1.4 3.2-20 .8-2.9-.3-6.4.9-5.5 2.6 2.1-3.2 15.6-3.7 24.8Z"/><path fill="#292828" d="M90.5 332c3.2 2.9-5.9 9-5.7 4 0-2.7 1-3.7 1.2-4 1.2-1 4.1-.1 4.5 0Z"/><path fill="#646158" d="M242.7 316.7c-1.3 1.4-1.5 1-6 2-7.4 1.6-12.5 4-12 1l.4-.6c9-1.2 9-1.6 16.2-3 .6 0 .6.1 1.4.6Z"/><path fill="#484846" d="M242.6 282.4c.6-10.9.5-10.9.8-11.8.3-1.2 7.4-6.5 8-7 3.8-2.9-3.2 4.1-3.5 4.4-5.6 5.6-3 8-4.4 14.4h-.9Z"/><path fill="#020202" d="M169.4 186.8c-2 8-7.9-2.2-3.5-4 2.8-1.3 3.4 3.5 3.5 4Z"/><path fill="#030304" d="M174.2 176.6c-4.4-.8-3.4-7.4.9-5.3 1.5.7 3.3 4.3-.9 5.3Z"/><path fill="#010100" d="M147.8 436.7c.5.6.8.5.5 1.2-3.5 8.6-7.4 11.4-7.3 14.6-.1.1.3.4.1.6-.4.5-3-.4-.1-4.6 5.2-7.8 5-9.7 6.8-11.8Z"/><path fill="#4B4B49" d="M67.9 463.2c-4.9-.2-6.2-6.1-5.2-5.3 2.6 2 2.4 2.7 5.2 3 2.1.4 3.7-3 3.2-.3-.4 2-3 2.5-3.2 2.6Z"/><path fill="#020202" d="M187.5 108.3c.2 3.7-6.4 17.8-5.9 13.3.1-.6 3.1-6.2 4-9 .9-2.7.5-3 1.9-4.3Z"/><path fill="#282827" d="M250 237.6c9.8 2.7-8 0-8.8 0-1-.2-.9-1.2 0-1.2 2 0 8.1 1 8.8 1.2Z"/><path fill="#010101" d="m242.1 169.8 1.1-1.5c1.2-1.4 1.8 0 1.2.9-4.2 6.5-7 4.7-5.8 3.9 2-1.4 2-1.3 3.5-3.3Z"/><path fill="#020203" d="M159.1 175.8c-1.5 4.4-4.4-1-2.1-2 1.7-.9 2 1.7 2.1 2Z"/><path fill="#424243" d="M165.7 186.9c0-.3-.4-3.2 1-2.8 1.7.4 1.6 6.8-1 2.8Z"/><path fill="#020304" d="M181 90.7c0 .3 1.5 18.8-.7 3.4-.8-5.3-.4-5.5 0-5.5.3 0 .7 2 .8 2Z"/><path fill="#484848" d="M172.9 174c0-1.9.5-2 1.8-1.3 1.6 1-.2 4-1.8 1.3Z"/><path fill="#030302" d="M173.7 107.7c2.4 1.6-.2 1.5-.3 1.4-2-1.1.2-1.4.3-1.4Z"/><path fill="#37322E" d="M232.5 184.4c.6.7.5.7 1 1.6l-.8.6-.7-1 .5-1.2Z"/><path fill="#262523" d="M181.2 318c0 .2.3.2.4.4.3.6-.6 1.2-.8.6-.1-.6 0-.6.4-1Z"/><path fill="#323232" d="M158 175.7c-.2 0-.2.3-.3.3-1 0-.6-.7-.6-.8.3-.7.5-.2.8.5Z"/><path fill="#191816" d="m274.1 329.5-.8 1.3v-1.2l.8-.1Z"/><path fill="#414242" d="m219.5 493.8-.4 1.2c-1.1-.2.3-1.1.4-1.2Z"/><path fill="#222221" d="m178.8 366.3-.4 1v-1c.1-.1.3 0 .4 0Z"/><path fill="#5F5F5B" d="M179.3 361h.4l-.6 1 .2-1Z"/><path fill="#2D2C28" d="m229 92 .7-.8c.3.2-.3.5 0 .7l-.8.2Z"/><path fill="#383332" d="M272.2 399.5c0 .2.3.3.3.5l-.8.4.5-1Z"/><path fill="#151514" d="M216.7 221.3c.3 0 .2 0 .5-.2.4 0 0 .2 0 .7l-.5-.5Z"/><path fill="#161616" d="M248.1 377.9h1l-.8.5c-.1-.1 0-.4-.2-.5Z"/><path fill="#1B1212" d="M262.9 405.3v.6c0-.2-.3.1-.4 0l.4-.6Z"/><path fill="#151513" d="m251.4 51.6.2.5-.2-.5Z"/><path fill="#202120" d="m261.1 390.2-.5.3.4-.7.1.4Z"/><path fill="#4D403D" d="m165.5 518.3-1.8-1 .5.2 1.3.8Z"/><path fill="#585854" d="m285 272.5-.2.8.1-.8Z"/></g><defs><clipPath id="a"><path fill="#fff" d="M0 0h300v550H0z"/></clipPath></defs></svg>