<svg width="120" height="120" viewBox="0 0 120 120" fill="none" xmlns="http://www.w3.org/2000/svg">
<path fill-rule="evenodd" clip-rule="evenodd" d="M10.0469 56.0703C11.4261 53.6816 18.9124 47.0971 20.5242 48.0277C22.0857 48.9291 20.1768 58.7339 18.7977 61.1226C14.5349 68.5059 5.78413 63.4537 10.0469 56.0703Z" fill="#798C60" fill-opacity="0.55" stroke="#48472E" stroke-width="1.8024" stroke-linejoin="round"/>
<path fill-rule="evenodd" clip-rule="evenodd" d="M11.6162 73.3328C14.0049 71.9537 23.7806 69.9946 24.7111 71.6063C25.6126 73.1679 19.0572 80.7045 16.6685 82.0836C9.28516 86.3464 4.23291 77.5956 11.6162 73.3328Z" fill="#798C60" stroke="#48472E" stroke-width="1.8024" stroke-linejoin="round"/>
<path fill-rule="evenodd" clip-rule="evenodd" d="M54.6847 100.215C57.2766 101.158 65.0611 107.387 64.4245 109.136C63.8078 110.831 53.8206 110.653 51.2287 109.71C43.2174 106.794 46.6733 97.2988 54.6847 100.215Z" fill="#798C60" fill-opacity="0.55" stroke="#48472E" stroke-width="1.8024" stroke-linejoin="round"/>
<path fill-rule="evenodd" clip-rule="evenodd" d="M61.7051 62.6536C60.0201 60.4699 56.7765 51.0422 58.25 49.9053C59.6775 48.8038 68.0201 54.2972 69.705 56.481C74.9131 63.2308 66.9131 69.4035 61.7051 62.6536Z" fill="#798C60" stroke="#48472E" stroke-width="1.8024" stroke-linejoin="round"/>
<path fill-rule="evenodd" clip-rule="evenodd" d="M49.6807 79.8999C49.6806 77.1417 52.8718 67.6962 54.7329 67.6962C56.536 67.6962 59.7852 77.1417 59.7852 79.8999C59.7852 88.4255 49.6806 88.4254 49.6807 79.8999Z" fill="#798C60" fill-opacity="0.55" stroke="#48472E" stroke-width="1.8024" stroke-linejoin="round"/>
<path d="M49.2463 58.351C42.0351 49.4489 38.5219 49.1595 31.3333 48.0482C24.6254 54.6759 24.8914 65.5634 30.3546 68.6258C40.2243 66.2951 45.9285 66.3004 49.2463 58.351Z" fill="#798C60" stroke="#48472E" stroke-width="2.21345" stroke-linejoin="round"/>
<path d="M40.2436 74.6976C29.412 78.4291 27.9385 81.6315 24.4355 88.0065C28.3693 96.5766 38.6912 100.05 43.4375 95.9641C44.6229 85.8925 46.5788 80.5341 40.2436 74.6976Z" fill="#798C60" stroke="#48472E" stroke-width="2.21345" stroke-linejoin="round"/>
<path d="M76.8107 42.2164C74.6265 53.4627 76.6631 56.3399 80.4326 62.5611C89.8214 63.4394 97.9907 56.2373 96.825 50.0837C88.6955 44.0213 85.0329 39.6482 76.8107 42.2164Z" fill="#798C60" stroke="#48472E" stroke-width="2.21345" stroke-linejoin="round"/>
<path d="M68.381 81.9525C66.1968 93.1988 68.2334 96.0761 72.0029 102.297C81.3917 103.176 89.561 95.9735 88.3953 89.8199C80.2658 83.7575 76.6032 79.3844 68.381 81.9525Z" fill="#798C60" stroke="#48472E" stroke-width="2.21345" stroke-linejoin="round"/>
<path d="M52.0919 11.927C53.3164 12.6699 54.1871 13.8773 54.5032 15.2741L54.5035 15.2755C54.8136 16.652 54.5575 18.1431 54.0909 19.428C53.8117 20.1965 53.4381 20.9421 53.0079 21.6097C54.3442 21.4216 55.7399 21.4944 57.0778 21.9392C58.4253 22.3872 59.9947 23.4246 60.7145 24.9488L60.7736 25.0785C61.3197 26.3367 61.2444 27.7407 60.8923 28.8886L60.8157 29.1225L60.8149 29.1237C60.3692 30.3929 59.6008 31.265 58.68 32.0023L58.6785 32.0038C58.6346 32.0393 58.2753 32.3689 57.8788 32.5498L57.8778 32.5504C56.1984 33.3166 54.4028 33.4037 52.7195 33.1055C52.9437 33.4803 53.1287 33.8784 53.27 34.2934L53.3194 34.4433L53.3207 34.4471C53.974 36.558 53.0348 38.4362 52.3242 39.7493C51.5435 41.1934 50.2082 42.3891 48.5837 42.9129L48.4258 42.9616C46.5519 43.5098 44.512 43.1748 42.8919 42.2863C39.9708 40.6845 38.6846 37.7548 38.7591 34.7416C38.3762 35.0204 37.9654 35.281 37.5143 35.5094L37.5141 35.5087C35.5271 36.5288 33.2106 36.6999 31.0949 35.98L31.0948 35.9793C29.3627 35.3914 27.8657 34.1884 27.0368 32.4628C26.2356 30.7946 26.396 28.8002 26.9423 27.2934C27.6272 25.4043 28.9078 24.2682 30.4614 23.6997C31.073 23.4758 31.7155 23.3445 32.3653 23.2786C31.1232 22.0266 30.3237 20.2919 30.1363 18.6031C29.935 16.7892 30.3301 14.6807 31.5975 13.1131C32.5115 11.9825 33.9372 10.9923 35.594 10.8407L35.8036 10.8262C36.845 10.7787 37.8004 11.0854 38.5682 11.4188C39.6409 11.8848 40.4421 12.5407 41.1539 13.3738C41.618 13.9092 42.0138 14.4981 42.3357 15.1271C43.1089 13.4465 44.4731 11.9907 46.3207 11.2927C48.1834 10.589 50.0234 10.9227 51.5924 11.6424L51.6372 11.6628L51.6809 11.6868C51.8195 11.7637 51.9567 11.8434 52.0924 11.9261L52.0919 11.927Z" fill="#C86241" stroke="#48472E" stroke-width="2.59998"/>
<path d="M45.9713 20.5867C49.1199 21.9932 50.4577 25.7754 48.9584 29.0339C47.4596 32.2927 43.692 33.794 40.5433 32.3869C37.3944 30.981 36.0575 27.1986 37.5564 23.9401C39.0553 20.6815 42.8227 19.1802 45.9713 20.5867Z" fill="#8A4D33"/>
<path d="M45.4444 22.0611C47.7748 23.1787 48.6872 26.0642 47.4825 28.508C46.2777 30.952 43.4121 32.0303 41.0796 30.9169C38.744 29.8023 37.8278 26.9134 39.0339 24.4664C40.2401 22.0195 43.1111 20.9422 45.4444 22.0611Z" fill="#EAC970"/>
<path d="M44.0684 24.8672C44.338 24.9991 44.587 25.18 44.8372 25.3454C45.1052 25.8064 45.2579 26.284 45.232 26.8142C45.2086 27.2918 45.0099 27.75 44.6327 28.0495C44.0976 28.4749 43.5204 28.4647 42.8669 28.3781C42.7353 28.3066 42.6068 28.2298 42.4817 28.1478C42.0811 27.8825 41.7604 27.4497 41.6734 26.981C41.5415 26.2722 41.8316 25.7804 42.216 25.2365C42.858 24.8838 43.3332 24.7892 44.0684 24.8672Z" fill="#8A4D33"/>
<path d="M92.0723 34.4541C92.606 36.6996 89.8822 38.2237 88.2394 36.6446C86.6375 35.1051 85.5592 34.167 84.6374 33.1312C83.6571 32.0299 82.8122 30.7882 81.4419 28.5269C80.9736 27.7537 80.5286 26.9593 80.1036 26.2027C80.0381 26.3551 79.971 26.5099 79.9036 26.6678C79.5563 27.482 79.1836 28.3566 78.7913 29.2199C78.0208 30.9161 77.1057 32.7228 76.0207 34.098L75.6073 34.6225L74.9624 34.7926L74.758 34.8461L73.4114 35.2032L72.6099 34.0629C72.2651 33.5705 72.1381 33.0453 72.0838 32.6839C72.026 32.3006 72.0241 31.9262 72.0386 31.6159C72.0683 30.9991 72.1758 30.3979 72.2322 30.0829C72.6686 27.6451 73.5813 25.1056 74.1771 23.0433C74.5706 21.6824 74.9979 19.6988 75.637 18.0635C75.8798 17.4404 76.1995 16.873 76.6819 16.3219L76.8044 16.1832L76.9482 16.0687C78.1466 15.1234 79.2821 14.7876 80.4171 14.5182L80.5894 14.4774L80.7661 14.4675C81.3777 14.4329 84.1013 14.1077 86.9535 13.8069C88.3375 13.6606 89.7216 13.5245 90.8098 13.4435C91.3498 13.4033 91.8441 13.3736 92.2408 13.3662C92.4351 13.3627 92.6397 13.3644 92.829 13.3763C92.914 13.3822 93.3414 13.4 93.7598 13.5912C93.9471 13.6771 94.4064 13.8885 94.773 14.358C95.0839 14.7552 95.2121 15.222 95.2205 15.2478L95.4487 15.9368L95.1827 16.6107C94.757 17.6882 93.7647 18.262 93.2079 18.5426C92.5392 18.8789 91.7646 19.1381 91.0719 19.3437C90.3762 19.5498 89.6387 19.736 89.0803 19.8852C88.4417 20.056 88.1138 20.1595 87.9906 20.2156L87.9887 20.2161C87.9476 20.2348 87.9386 20.2407 87.8505 20.2834L87.5967 20.4043L87.3193 20.4504C86.5159 20.5849 85.9668 20.7393 85.1278 20.924C85.7375 21.7936 86.3927 22.6711 87.0731 23.6108C88.8186 26.0223 89.8235 27.5045 90.5054 29.0443C91.1834 30.5747 91.5172 32.1151 92.0723 34.4541Z" fill="#FFE59F" stroke="#48472E" stroke-width="2" stroke-linejoin="round"/>
<path d="M85.9165 77.2501C83.9674 76.014 84.8552 73.0217 87.1338 73.0067C89.3555 72.9918 90.7825 72.9115 92.1656 73.0103C93.6363 73.1152 95.1078 73.4151 97.6673 74.079C98.5422 74.3062 99.4153 74.5646 100.248 74.8101C100.188 74.6552 100.128 74.4976 100.066 74.3374C99.7471 73.5118 99.4038 72.6253 99.0825 71.7331C98.451 69.9805 97.8459 68.0477 97.6637 66.3055L97.5938 65.6413L97.9371 65.0695L98.0462 64.8885L98.7617 63.6932L100.131 63.9508C100.722 64.0629 101.179 64.3506 101.471 64.5716C101.779 64.8058 102.042 65.0727 102.248 65.3051C102.657 65.7677 103 66.2734 103.179 66.5384C104.567 68.5893 105.685 71.0452 106.698 72.9383C107.365 74.1878 108.443 75.9068 109.126 77.5242C109.387 78.14 109.554 78.7696 109.593 79.501L109.602 79.6857L109.579 79.8681C109.38 81.3814 108.801 82.4143 108.176 83.3992L108.081 83.5486L107.961 83.679C107.547 84.1305 105.823 86.2638 103.99 88.4693C103.1 89.5398 102.204 90.6031 101.481 91.4203C101.122 91.8259 100.789 92.192 100.51 92.4742C100.373 92.6122 100.225 92.7538 100.081 92.8774C100.016 92.9324 99.6975 93.2179 99.2644 93.3728C99.0703 93.442 98.5938 93.6111 98.0035 93.5306C97.5036 93.4629 97.0862 93.218 97.0621 93.2053L96.4179 92.871L96.1383 92.2026C95.6914 91.1338 96.0019 90.0303 96.205 89.4409C96.4493 88.7333 96.8233 88.0072 97.1762 87.3766C97.5307 86.7436 97.9291 86.0955 98.2251 85.5991C98.5633 85.0311 98.726 84.7282 98.7751 84.6021L98.7762 84.6004C98.7925 84.5584 98.7948 84.5478 98.8282 84.4557L98.9256 84.192L99.0922 83.9654C99.5739 83.3085 99.8595 82.8148 100.332 82.0971C99.2882 81.8996 98.2065 81.7282 97.0635 81.5298C94.1305 81.0201 92.3764 80.6595 90.8135 80.0322C89.26 79.4089 87.9462 78.5384 85.9165 77.2501Z" fill="#FFE59F" stroke="#48472E" stroke-width="2" stroke-linejoin="round"/>
</svg>
