<svg width="125" height="125" viewBox="0 0 125 125" fill="none" xmlns="http://www.w3.org/2000/svg">
<g clip-path="url(#clip0_3032_140)">
<path d="M54.812 43.0934C52.3632 40.9752 52.3761 37.5479 54.6583 35.5482C60.7639 30.1991 75.1573 29.0531 82.8257 29.0498C91.0712 29.0009 99.2416 30.6398 106.831 33.8671C107.74 34.2587 110.18 35.3653 110.879 35.8983C111.979 36.592 113.216 37.3968 114.13 38.3322C115.346 39.21 116.36 40.6348 117.078 41.9409C119.677 44.1522 120.73 49.0379 117.164 50.8737C115.73 51.612 114.493 51.3798 113.092 50.7362C110.038 49.3357 106.99 47.7952 103.745 46.8724C101.863 46.3382 99.7525 46.0571 97.8036 45.7109C85.6932 43.5889 73.299 43.6767 61.221 45.9701C59.4173 46.3037 58.2359 46.3665 56.58 45.2349C56.0107 44.8454 54.9266 43.8045 54.812 43.0934Z" fill="#361A0D"/>
<path d="M54.8124 43.0934C57.6419 44.1083 59.7501 42.8508 62.5556 42.3801C74.8016 40.3249 87.7971 40.1111 99.7399 43.8923C101.961 44.5897 104.145 45.3048 106.214 46.3792C108.799 47.7219 111.692 50.1664 114.712 48.6339C117.341 47.2995 117.495 44.4974 117.079 41.9409C119.677 44.1523 120.731 49.0379 117.165 50.8738C115.731 51.6121 114.493 51.3799 113.092 50.7363C110.039 49.3357 106.99 47.7953 103.746 46.8725C101.863 46.3383 99.7529 46.0572 97.804 45.711C85.6936 43.589 73.2994 43.6767 61.2214 45.9702C59.4178 46.3038 58.2363 46.3665 56.5804 45.2349C56.0111 44.8455 54.9271 43.8046 54.8124 43.0934Z" fill="#C5A062"/>
<path d="M56.9562 37.6316C60.656 34.8302 64.537 34.3984 69.0169 33.6276C81.3742 31.5097 94.9757 31.6659 106.501 37.1064C109.329 38.4411 115.717 41.7992 113.74 45.7147C112.569 46.2687 112.122 45.9651 111.032 45.4386C108.514 44.2219 105.941 42.5189 103.293 41.6255C98.6961 40.076 93.974 38.9388 89.1511 38.3407C82.2308 37.4806 75.2336 37.4462 68.3064 38.2384C66.2777 38.4563 64.2605 38.773 62.2629 39.1864C60.4102 39.5751 54.6095 41.674 56.9562 37.6316Z" fill="#F2D8A6"/>
<path d="M30.4021 52.2487C29.5699 49.1197 31.5095 46.2939 34.5214 45.9254C42.5787 44.94 55.1212 52.0932 61.4617 56.4062C68.305 61.0064 74.1363 66.9593 78.5929 73.898C79.1243 74.7335 80.5181 77.0213 80.7966 77.8556C81.3153 79.048 81.8849 80.4095 82.114 81.697C82.6247 83.1067 82.6613 84.8553 82.5197 86.339C83.4235 89.6295 81.5444 94.2607 77.5635 93.7713C75.9628 93.5746 75.0702 92.686 74.2747 91.3657C72.5388 88.4895 70.8857 85.5003 68.7234 82.9118C67.468 81.4108 65.8817 79.9907 64.4657 78.6078C55.6494 70.038 45.3551 63.1352 34.0806 58.2336C32.4021 57.4942 31.3901 56.8811 30.6582 55.0138C30.4068 54.3715 30.0966 52.901 30.4021 52.2487Z" fill="#361A0D"/>
<path d="M30.4018 52.2488C32.1695 54.6801 34.6198 54.8271 37.2037 56.0169C48.4829 61.2101 59.3453 68.3471 67.0891 78.194C68.5322 80.0203 69.9356 81.8408 71.0414 83.8934C72.4224 86.4581 73.4376 90.1066 76.7964 90.5394C79.7208 90.9162 81.4248 88.6866 82.5195 86.3391C83.4232 89.6296 81.5442 94.2608 77.5633 93.7714C75.9626 93.5747 75.07 92.6861 74.2745 91.3658C72.5386 88.4896 70.8855 85.5004 68.7232 82.9119C67.4678 81.4109 65.8815 79.9908 64.4654 78.6078C55.6492 70.0381 45.3549 63.1353 34.0804 58.2337C32.4018 57.4943 31.3899 56.8812 30.658 55.0139C30.4066 54.3716 30.0963 52.9011 30.4018 52.2488Z" fill="#C5A062"/>
<path d="M35.2481 48.9406C39.8829 48.7071 43.334 50.5344 47.4708 52.4185C58.8773 57.6225 70.0324 65.4064 76.497 76.3897C78.0833 79.0845 81.4739 85.4555 77.6362 87.5795C76.357 87.3787 76.1581 86.8761 75.5535 85.8274C74.1565 83.4043 72.9887 80.5489 71.3021 78.3198C68.3745 74.452 65.1112 70.8544 61.4612 67.6457C56.225 63.0401 50.4604 59.0737 44.2886 55.83C42.4891 54.8683 40.6434 53.9948 38.7596 53.2123C37.0094 52.4909 31.0333 50.9612 35.2481 48.9406Z" fill="#D2B98A"/>
<path d="M23.1101 69.9571C22.2779 66.828 24.2175 64.0023 27.2294 63.6338C35.2867 62.6484 47.8292 69.8016 54.1697 74.1146C61.013 78.7147 66.8443 84.6676 71.3009 91.6064C71.8323 92.4418 73.2261 94.7297 73.5046 95.564C74.0233 96.7564 74.5929 98.1179 74.822 99.4054C75.3327 100.815 75.3693 102.564 75.2277 104.047C76.1315 107.338 74.2524 111.969 70.2715 111.48C68.6709 111.283 67.7783 110.394 66.9827 109.074C65.2468 106.198 63.5937 103.209 61.4314 100.62C60.1761 99.1192 58.5897 97.6991 57.1737 96.3161C48.3575 87.7464 38.0631 80.8436 26.7887 75.9419C25.1101 75.2026 24.0981 74.5895 23.3662 72.7222C23.1148 72.0799 22.8046 70.6094 23.1101 69.9571Z" fill="#361A0D"/>
<path d="M23.1103 69.9571C24.878 72.3884 27.3283 72.5354 29.9122 73.7253C41.1914 78.9184 52.0538 86.0554 59.7976 95.9023C61.2407 97.7286 62.6441 99.5491 63.7499 101.602C65.1309 104.166 66.1461 107.815 69.5049 108.248C72.4293 108.625 74.1333 106.395 75.228 104.047C76.1317 107.338 74.2526 111.969 70.2717 111.48C68.6711 111.283 67.7785 110.394 66.983 109.074C65.2471 106.198 63.594 103.209 61.4317 100.62C60.1763 99.1192 58.59 97.6991 57.1739 96.3162C48.3577 87.7464 38.0634 80.8436 26.7889 75.942C25.1103 75.2026 24.0984 74.5895 23.3665 72.7222C23.1151 72.0799 22.8048 70.6094 23.1103 69.9571Z" fill="#C5A062"/>
<path d="M27.9561 66.6489C32.5909 66.4155 36.042 68.2427 40.1788 70.1269C51.5853 75.3309 62.7404 83.1148 69.205 94.0981C70.7913 96.7929 74.1819 103.164 70.3442 105.288C69.065 105.087 68.8661 104.584 68.2615 103.536C66.8645 101.113 65.6967 98.2573 64.0101 96.0282C61.0825 92.1604 57.8192 88.5628 54.1692 85.3541C48.933 80.7485 43.1685 76.7821 36.9966 73.5383C35.1971 72.5767 33.3514 71.7032 31.4676 70.9207C29.7174 70.1993 23.7413 68.6696 27.9561 66.6489Z" fill="#F2D8A6"/>
<path d="M97.5918 66.8343C96.2534 61.6266 100.388 60.7005 104.435 61.8908C106.44 62.4807 108.763 62.69 110.573 63.7878C111.493 64.3511 111.605 65.7986 111.596 66.7579C112.218 66.5251 111.675 66.3728 112.219 66.5816C114.097 69.5851 111.415 73.6953 110.585 76.7451C109.185 81.8894 107.516 86.973 106.177 92.1342C105.296 95.3191 103.985 98.717 103.269 102.011C103.001 103.542 102.664 105.15 102.512 106.695C102.22 109.671 103.695 113.377 100.63 115.406C99.4996 116.154 96.1038 116.196 95.7822 114.66L96.0473 114.333C95.1799 114.023 94.4215 113.505 93.6742 112.98C93.7466 113.306 93.7753 113.2 93.6893 113.476C92.0204 114.116 89.0171 113.088 88.0417 111.588C82.9813 108.885 90.397 101.639 91.9183 98.6422C94.9774 92.6164 97.2705 86.0175 98.7314 79.4152C99.2507 77.0712 99.0853 75.2435 99.0177 72.8981C98.6299 70.8254 98.1105 68.8764 97.5918 66.8343Z" fill="#361A0D"/>
<path d="M111.597 66.758C112.218 66.5252 111.675 66.3729 112.22 66.5817C114.097 69.5851 111.416 73.6954 110.586 76.7451C109.185 81.8895 107.517 86.9731 106.177 92.1342C105.297 95.3191 103.986 98.7171 103.269 102.011C103.002 103.542 102.665 105.15 102.513 106.695C102.221 109.671 103.696 113.377 100.63 115.406C99.5001 116.155 96.1043 116.196 95.7827 114.66L96.0478 114.333L96.1624 114.346L96.3525 114.363C97.5043 114.481 98.812 114.31 99.7673 113.606C101.838 112.037 100.986 109.039 100.881 106.845C100.775 104.621 101.303 102.427 101.685 100.252C102.271 96.9197 103.507 93.6965 104.443 90.4463C105.905 85.3744 107.378 80.3068 108.847 75.2365C109.107 74.3353 109.409 73.4052 109.709 72.5162C110.662 70.1834 111.241 69.3124 111.597 66.758Z" fill="#C5A062"/>
<path d="M99.8265 64.0809C101.344 63.1327 107.317 64.9372 109.12 65.4723C109.63 68.6552 107.95 70.2708 107.169 73.137C106.303 76.3159 105.381 79.4716 104.476 82.6394C102.719 88.7941 100.285 95.1241 99.0725 101.4C98.8155 102.787 98.6825 104.192 98.6736 105.602C98.6725 107.576 99.3619 110.232 98.5005 111.746C96.4108 113.181 94.4555 110.781 93.2189 109.315C92.078 109.66 89.5199 110.7 88.6665 109.282C88.4002 108.841 88.6567 107.943 88.8993 107.517C90.2881 105.073 91.9705 102.778 93.4525 100.386C94.8857 98.0516 96.4393 94.5881 97.3483 91.9923C98.9637 87.378 101.287 80.9223 101.396 76.0915C101.429 74.6469 101.322 73.2032 101.073 71.7807C100.694 69.6568 99.2841 65.7713 99.8265 64.0809Z" fill="#F2D8A6"/>
<path d="M35.0981 103.578C32.4585 99.0056 37.299 96.5792 40.6687 94.638C46.1342 91.4909 49.8051 94.654 53.2653 98.8656C57.4125 103.912 62.8444 108.663 61.0233 115.911L61.3663 116.033C62.0045 117.957 60.4505 122.916 57.6005 122.757C52.3555 122.465 35.1719 107.938 35.0981 103.578Z" fill="#361A0D"/>
<path d="M35.0977 103.578C38.9783 107.341 51.5143 119.636 56.6092 119.691C57.7379 119.704 58.8193 119.238 59.5847 118.409C60.2664 117.671 60.6421 116.827 61.0228 115.911L61.3659 116.033C62.0041 117.957 60.45 122.916 57.6001 122.757C52.3551 122.465 35.1715 107.938 35.0977 103.578Z" fill="#C5A062"/>
<path d="M43.8827 96.786C44.9278 96.7001 45.8333 96.6444 46.8047 97.1011C48.7442 98.0144 54.6645 105.485 56.0966 107.593C56.8139 108.649 57.4737 109.769 57.909 110.974C58.3235 112.119 58.6457 113.76 58.0581 114.905C57.777 115.454 57.2209 115.887 56.6238 116.04C55.4023 116.352 54.1814 115.449 53.183 114.867C48.4575 111.858 44.177 107.52 39.9594 103.866C37.1347 101.421 36.7651 100.667 40.1799 98.584C41.4857 97.7884 42.4325 97.3031 43.8827 96.786Z" fill="#F2D8A6"/>
<path d="M10.6836 97.9906C8.03398 95.3382 9.83557 91.203 12.3024 89.2841C16.3229 86.1561 20.4881 82.0161 24.5794 79.1171C29.1846 75.8554 30.5655 81.9763 30.219 85.5928C32.9084 90.9039 22.581 99.8012 18.3582 101.615C16.8165 102.277 15.5749 102.668 13.9177 101.976C12.4096 101.349 10.1072 100.075 9.99214 98.2674C10.2606 98.1385 10.4012 98.0876 10.6836 97.9906Z" fill="#361A0D"/>
<path d="M30.2195 85.5926C32.9089 90.9036 22.5815 99.801 18.3588 101.615C16.817 102.277 15.5755 102.668 13.9182 101.976C12.4102 101.349 10.1077 100.075 9.99268 98.2672C10.2611 98.1383 10.4017 98.0874 10.6842 97.9904C13.9842 99.9665 15.8364 99.688 19.0751 97.6658C20.7171 96.6411 22.1962 95.3985 23.6391 94.1129C26.6614 91.4192 29.0294 89.5942 30.2195 85.5926Z" fill="#C5A062"/>
<path d="M26.1413 82.035C29.1765 82.4424 26.0624 87.8855 24.6135 89.0613C21.471 91.6134 18.1809 96.1066 13.7991 96.1416C10.0599 94.5203 16.0508 90.21 17.4492 89.1377C20.4108 86.8656 23.2084 84.3262 26.1413 82.035Z" fill="#F2D8A6"/>
<path d="M95.7703 23.5371C92.3921 19.4766 98.6281 11.2937 101.326 8.08443C104.827 3.91896 111.587 7.378 111.383 13.1457C111.632 17.238 111.514 17.973 108.806 21.195C106.024 24.5029 101.463 30.6811 96.7709 26.3819C96.142 25.7948 95.2467 24.6763 95.4839 23.7503L95.7703 23.5371Z" fill="#361A0D"/>
<path d="M95.7703 23.5371C100.205 27.1696 103.46 23.273 106.379 19.849C107.997 17.9508 110.177 15.3096 111.383 13.1458C111.632 17.238 111.514 17.9731 108.806 21.1951C106.024 24.5029 101.463 30.6811 96.7709 26.382C96.142 25.7949 95.2466 24.6764 95.4839 23.7504L95.7703 23.5371Z" fill="#C5A062"/>
<path d="M104.603 9.62948C105.474 9.54515 107.06 9.85064 107.521 10.5825C109.194 13.2412 104.894 16.5968 103.553 18.6287C102.919 19.5897 101.62 20.7496 100.846 21.2715C99.2051 22.0861 97.1505 22.1577 97.8933 19.7615C98.7768 16.9087 102.183 11.1665 104.603 9.62948Z" fill="#F2D8A6"/>
<path d="M73.9331 38.6387C75.7974 39.2391 78.9043 40.5667 81.7836 42.1283C83.2273 42.9114 84.6425 43.7692 85.8309 44.6409C86.8216 45.3677 87.7373 46.1636 88.3615 46.9934C90.3771 47.656 91.7668 48.6904 92.4281 50.2967C93.0845 51.8914 92.8839 53.7643 92.4848 55.6803C92.2078 57.6095 91.2352 60.2467 90.2269 61.8634L89.7839 62.5736L88.955 62.4658C88.6651 62.4282 88.0726 62.3143 87.5463 62.2183C87.677 62.5195 87.8338 62.8828 87.965 63.2539C88.1029 63.6439 88.2363 64.1053 88.2784 64.583C88.3208 65.0629 88.2782 65.6476 87.9713 66.2033L87.7716 66.5638L87.401 66.7444C87.107 66.8874 86.7929 66.9535 86.5632 66.9907C86.3153 67.0308 86.0568 67.0536 85.8284 67.069C85.2932 67.1051 84.998 67.1057 84.7755 67.1386C83.6917 67.2982 82.6631 67.7765 81.6155 68.4546C80.5452 69.1475 79.5721 69.9649 78.4848 70.8055L78.4845 70.8064C78.2536 70.9848 78.0246 71.1815 77.697 71.4462C77.4094 71.6785 77.0534 71.9553 76.7083 72.1568L76.5604 72.2438L76.3942 72.2889L72.7391 73.2842L72.6369 73.312L72.5308 73.3231L69.9061 73.5934L68.6503 73.7231L68.482 72.4724C68.4296 72.0827 68.2292 71.5152 67.9233 70.6802C67.6451 69.9206 67.2992 68.9854 67.1177 68.0745C66.8265 66.6111 66.6903 64.8172 66.4986 63.3228C66.3724 62.3393 66.2194 61.4432 65.9987 60.6624C65.3597 61.1466 64.6901 61.7954 63.9851 62.5551C62.9354 63.6861 61.7172 65.1742 60.682 66.1603C60.0002 66.8098 59.377 67.2956 58.787 67.7372C58.1877 68.1857 57.6625 68.5613 57.0806 69.0454L57.0048 69.1093L56.6778 69.3839L56.2526 69.4116L55.1407 69.486L54.3454 69.5387L53.9369 68.855L51.118 64.1355C50.9868 63.9406 50.8988 63.7428 50.8476 63.613C50.7747 63.4281 50.7135 63.2316 50.663 63.0595C50.5329 62.6159 50.5051 62.463 50.4372 62.2508C49.6414 59.7655 49.3613 58.4787 48.7897 57.2936C48.2775 56.2316 47.5229 55.2765 45.7242 53.7913L44.9135 53.1212L45.3971 52.1882C46.0145 50.997 46.6936 50.4012 47.367 49.8948C47.549 49.7579 47.7186 49.6316 47.8853 49.5062C47.3193 49.2366 46.6709 48.933 46.2987 48.7197L45.5616 48.2968L45.6522 47.4511C45.7308 46.7163 46.0001 45.5753 46.2893 44.5326C46.5745 43.504 46.9178 42.4358 47.1933 41.7859C47.4795 41.0431 47.8484 40.0607 48.346 39.1527C48.8416 38.2483 49.5355 37.2797 50.5488 36.6572C51.5622 36.0348 52.5072 35.989 53.281 36.0583C53.6122 36.0879 54.0083 36.1516 54.2256 36.1795C54.4863 36.213 54.6672 36.2228 54.8195 36.211C56.1509 36.0824 57.6167 35.9188 59.0635 35.9121L59.0647 35.9114C63.72 35.8902 69.7395 37.2883 73.9331 38.6387Z" fill="#F2D8A6" stroke="#361A0D" stroke-width="2.60417"/>
<path d="M34.0226 8.53387C33.5871 9.17502 33.1224 9.7826 32.674 10.3608C32.2185 10.9482 31.7852 11.4978 31.3746 12.0661C29.5964 14.5277 28.437 17.5038 28.965 20.2648L28.9641 20.2645C29.6204 23.6956 31.9987 26.0667 35.0806 28.2038C38.2948 30.4326 41.2027 31.6344 44.991 33.0254C46.6032 33.6174 48.8824 34.397 50.5212 35.1284L52.1072 35.8367L50.9836 37.1604C50.4094 37.8367 49.7313 38.6345 49.3866 39.2184C48.9043 40.0352 48.3047 41.2874 47.8028 42.5851C47.2925 43.9045 46.9331 45.1453 46.8574 45.9698L46.8541 46.0056L46.8489 46.0409L46.6619 47.309L46.4199 48.9502L44.883 48.3252C41.4521 46.9301 36.0721 44.6064 31.1959 41.689C28.7577 40.2302 26.4124 38.6039 24.4904 36.8476C22.6131 35.132 21.064 33.2221 20.2766 31.1498C19.7641 30.265 19.3896 29.0658 19.1286 27.9678C18.8471 26.7835 18.6599 25.57 18.5749 24.6851L18.5696 24.6249L18.5689 24.5632C18.5605 19.6401 19.6602 14.8036 23.482 11.0498C25.7347 8.83713 29.2968 6.43883 32.9669 6.50033L35.3763 6.54044L34.0226 8.53387Z" fill="#F2D8A6" stroke="#361A0D" stroke-width="2.60417"/>
</g>
<defs>
<clipPath id="clip0_3032_140">
<rect width="125" height="125" fill="white"/>
</clipPath>
</defs>
</svg>
