<svg width="111" height="125" viewBox="0 0 111 125" fill="none" xmlns="http://www.w3.org/2000/svg">
<g clip-path="url(#clip0_3030_59)">
<path opacity="0.6" d="M74.4302 16.4827C77.5732 16.2841 80.7505 17.1391 83.4568 18.75C86.1631 20.3608 88.4033 22.7072 90.0315 25.403C93.2881 30.7945 94.0464 37.4015 93.3581 43.6625C92.6123 50.4464 90.2865 56.9563 89.1265 63.6817C88.5464 67.0444 88.2596 70.4799 88.6182 73.8734C88.9767 77.2668 90.0018 80.6267 91.8885 83.4702C94.3601 87.1953 98.1274 89.8181 101.506 92.7454C103.196 94.2091 104.813 95.7772 106.118 97.5926C107.422 99.4078 108.407 101.488 108.726 103.7C109.026 105.787 108.717 107.961 107.833 109.875C106.949 111.79 105.493 113.438 103.695 114.54C101.252 116.037 98.2731 116.49 95.4177 116.253C92.5622 116.016 89.8007 115.13 87.1237 114.109C84.4469 113.087 81.82 111.922 79.0787 111.088C76.3375 110.255 73.4454 109.757 70.6026 110.115C67.513 110.503 64.6281 111.882 61.9913 113.539C59.3547 115.196 56.911 117.143 54.2946 118.832C51.6783 120.521 48.8354 121.967 45.762 122.468C44.2252 122.719 42.6422 122.727 41.1172 122.414C39.592 122.1 38.1261 121.458 36.909 120.487C35.6109 119.452 34.6167 118.057 33.9744 116.526C33.332 114.995 33.0346 113.33 33.013 111.669C32.9694 108.348 34.0085 105.104 35.3235 102.054C36.6383 99.0042 38.2396 96.0783 39.4184 92.9735C40.5972 89.8685 41.3485 86.5114 40.8666 83.2254C40.251 79.0287 37.6538 75.3159 34.4032 72.5912C31.1526 69.8664 27.2696 68.0164 23.3742 66.338C19.4789 64.6595 15.5017 63.1114 11.8919 60.8841C8.28211 58.6569 5.00941 55.6658 3.22107 51.8197C2.01314 49.2218 1.52722 46.3198 1.6046 43.4559C1.68198 40.5919 2.30945 37.7612 3.2419 35.0522C5.10682 29.6341 8.16069 24.7203 10.7416 19.6044C12.3315 16.4528 13.7547 13.1996 15.7168 10.2653C17.6791 7.33103 20.2584 4.68658 23.5187 3.33364C25.5549 2.48869 27.7971 2.17782 29.9963 2.33195C32.1955 2.48608 34.3518 3.09785 36.3515 4.02584C40.351 5.88182 43.671 8.95476 46.5237 12.3166C47.7281 13.7356 48.8643 15.2172 50.1773 16.5364C51.4903 17.8556 53.0033 19.0205 54.751 19.6608C56.3365 20.2416 58.0632 20.3692 59.7444 20.2119C61.4256 20.0546 63.0693 19.6203 64.6769 19.1044C67.8925 18.0726 71.0599 16.6954 74.4302 16.4827Z" fill="#629794" stroke="#447B7C" stroke-width="2.47525"/>
<path opacity="0.6" d="M23.01 83.1412C25.3964 83.1412 27.3309 81.2066 27.3309 78.8202C27.3309 76.4338 25.3964 74.4991 23.01 74.4991C20.6235 74.4991 18.689 76.4338 18.689 78.8202C18.689 81.2066 20.6235 83.1412 23.01 83.1412Z" fill="#629794" stroke="#447B7C" stroke-width="2.47525" stroke-linecap="round"/>
<path opacity="0.6" d="M69.4867 11.8676C67.8081 13.0885 65.9828 14.1297 64.013 14.7843C62.0432 15.4389 59.9216 15.6969 57.8738 15.3578C55.826 15.0186 53.8583 14.0594 52.4515 12.5332C51.0447 11.007 50.239 8.9003 50.4342 6.83384C50.5821 5.26808 51.3165 3.74373 52.5265 2.73919C53.1316 2.23691 53.8483 1.86716 54.612 1.68014C55.3759 1.49313 56.1859 1.49048 56.9473 1.68745C58.0153 1.96371 58.9421 2.61028 59.8649 3.21472C60.7875 3.81917 61.7694 4.4068 62.8645 4.5383C63.6075 4.62749 64.3623 4.49948 65.0792 4.28524C65.7963 4.071 66.4844 3.77165 67.1844 3.50728C67.8846 3.2429 68.605 3.01159 69.3502 2.94232C70.0952 2.87304 70.8724 2.97506 71.5238 3.34366C72.284 3.77353 72.8221 4.5481 73.039 5.39391C73.2561 6.23971 73.167 7.14821 72.8675 7.96845C72.2685 9.60889 70.8991 10.8404 69.4867 11.8676Z" fill="#629794" stroke="#447B7C" stroke-width="2.47525"/>
<path fill-rule="evenodd" clip-rule="evenodd" d="M62.5977 81.0418L69.0661 78.0221L74.9462 73.2765L80.2389 67.0926L103.025 75.5771L101.849 81.4732L96.1158 90.5331L88.9122 99.018L84.7961 101.463L75.8286 95.9979L76.2696 92.4027L74.0642 89.0953L67.449 85.0684L62.5977 81.0418Z" fill="#AA6A2E" stroke="#352719" stroke-width="3.09406" stroke-miterlimit="10" stroke-linecap="square"/>
<path fill-rule="evenodd" clip-rule="evenodd" d="M41.521 29.9313L42.4288 36.4247L47.1615 37.6197L51.2574 43.2311L55.7365 47.8888L62.5812 44.0167L66.5089 37.9223L65.6492 29.5576L62.968 23.5148L57.1013 26.8337L48.373 29.0053L41.521 29.9313Z" fill="#AA6A2E" stroke="#352719" stroke-width="3.09406" stroke-miterlimit="10" stroke-linecap="square"/>
<path fill-rule="evenodd" clip-rule="evenodd" d="M20.6119 28.6918L26.7269 31.0572L26.8106 35.9377L31.3393 41.2059L34.8523 46.6296L29.5205 52.4103L22.6907 54.8438L14.7428 52.0982L9.4712 48.109L14.0412 43.1543L18.147 35.1518L20.6119 28.6918Z" fill="#AA6A2E" stroke="#352719" stroke-width="3.09406" stroke-miterlimit="10" stroke-linecap="square"/>
<path fill-rule="evenodd" clip-rule="evenodd" d="M48.2933 99.6101L50.257 76.0452L44.0091 75.3308L37.2251 72.4749L27.2275 96.2182L35.4397 98.5391L48.2933 99.6101Z" fill="#BC7E3F" stroke="#352719" stroke-width="3.09406" stroke-miterlimit="10" stroke-linecap="square"/>
<path fill-rule="evenodd" clip-rule="evenodd" d="M101.115 33.0218L93.0711 25.6169L89.4083 30.8504L84.6272 36.0292L88.3853 50.4291L93.7338 43.8849L101.115 33.0218Z" fill="#814E1E" stroke="#352719" stroke-width="3.09406" stroke-miterlimit="10" stroke-linecap="square"/>
<path d="M75.8291 95.998C83.1853 89.5633 92.3591 81.5527 95.8095 72.8902Z" fill="#AA6A2E"/>
<path d="M75.8291 95.998C83.1853 89.5633 92.3591 81.5527 95.8095 72.8902" stroke="#352719" stroke-width="3.09406" stroke-miterlimit="10" stroke-linecap="round" stroke-linejoin="round"/>
<path d="M47.1616 37.6197C52.592 36.7584 60.9318 34.3971 65.6494 29.5576Z" fill="#AA6A2E"/>
<path d="M47.1616 37.6197C52.592 36.7584 60.9318 34.3971 65.6494 29.5576" stroke="#352719" stroke-width="3.09406" stroke-miterlimit="10" stroke-linecap="round" stroke-linejoin="round"/>
<path d="M26.8109 35.9378C24.7332 41.0284 20.5313 48.6094 14.7431 52.0983Z" fill="#AA6A2E"/>
<path d="M26.8109 35.9378C24.7332 41.0284 20.5313 48.6094 14.7431 52.0983" stroke="#352719" stroke-width="3.09406" stroke-miterlimit="10" stroke-linecap="round" stroke-linejoin="round"/>
</g>
<defs>
<clipPath id="clip0_3030_59">
<rect width="110.149" height="125" fill="white"/>
</clipPath>
</defs>
</svg>
