<svg width="125" height="125" viewBox="0 0 125 125" fill="none" xmlns="http://www.w3.org/2000/svg">
<g clip-path="url(#clip0_3094_3122)">
<path d="M54.812 43.0934C52.3632 40.9752 52.3761 37.5479 54.6583 35.5482C60.7639 30.1991 75.1573 29.0531 82.8257 29.0498C91.0712 29.0009 99.2416 30.6398 106.831 33.8671C107.74 34.2587 110.18 35.3653 110.879 35.8983C111.979 36.592 113.216 37.3968 114.13 38.3322C115.346 39.21 116.36 40.6348 117.078 41.9409C119.677 44.1522 120.73 49.0379 117.164 50.8737C115.73 51.612 114.493 51.3798 113.092 50.7362C110.038 49.3357 106.99 47.7952 103.745 46.8724C101.863 46.3382 99.7525 46.0571 97.8036 45.7109C85.6932 43.5889 73.299 43.6767 61.221 45.9701C59.4174 46.3037 58.2359 46.3665 56.58 45.2349C56.0107 44.8454 54.9266 43.8045 54.812 43.0934Z" fill="#361A0D"/>
<path d="M54.8124 43.0934C57.6419 44.1083 59.7501 42.8508 62.5556 42.3801C74.8016 40.3249 87.7971 40.1111 99.7399 43.8923C101.961 44.5897 104.145 45.3048 106.214 46.3792C108.799 47.7219 111.692 50.1664 114.712 48.6339C117.341 47.2995 117.495 44.4974 117.079 41.9409C119.677 44.1523 120.731 49.0379 117.165 50.8738C115.731 51.6121 114.493 51.3799 113.092 50.7363C110.039 49.3357 106.99 47.7953 103.746 46.8725C101.863 46.3383 99.7529 46.0572 97.804 45.711C85.6936 43.589 73.2994 43.6767 61.2214 45.9702C59.4178 46.3038 58.2363 46.3665 56.5804 45.2349C56.0111 44.8455 54.9271 43.8046 54.8124 43.0934Z" fill="#C5A062"/>
<path d="M56.9562 37.6316C60.656 34.8302 64.537 34.3984 69.0169 33.6276C81.3742 31.5097 94.9757 31.6659 106.501 37.1064C109.329 38.4411 115.717 41.7992 113.74 45.7147C112.569 46.2687 112.122 45.9651 111.032 45.4386C108.514 44.2219 105.941 42.5189 103.293 41.6255C98.6961 40.076 93.974 38.9388 89.1511 38.3407C82.2308 37.4806 75.2336 37.4462 68.3064 38.2384C66.2777 38.4563 64.2605 38.773 62.2629 39.1864C60.4102 39.5751 54.6095 41.674 56.9562 37.6316Z" fill="#F2D8A6"/>
<path d="M30.4021 52.2487C29.5699 49.1197 31.5095 46.2939 34.5214 45.9254C42.5787 44.94 55.1212 52.0932 61.4617 56.4062C68.305 61.0064 74.1363 66.9593 78.5929 73.898C79.1243 74.7335 80.5181 77.0213 80.7966 77.8557C81.3153 79.048 81.8849 80.4095 82.114 81.697C82.6247 83.1067 82.6613 84.8553 82.5197 86.339C83.4235 89.6295 81.5444 94.2607 77.5635 93.7713C75.9629 93.5746 75.0702 92.686 74.2747 91.3657C72.5388 88.4895 70.8857 85.5004 68.7234 82.9118C67.468 81.4108 65.8817 79.9907 64.4657 78.6078C55.6494 70.038 45.3551 63.1352 34.0807 58.2336C32.4021 57.4942 31.3901 56.8811 30.6582 55.0138C30.4068 54.3715 30.0966 52.901 30.4021 52.2487Z" fill="#361A0D"/>
<path d="M30.4018 52.2488C32.1695 54.6801 34.6198 54.8271 37.2037 56.0169C48.4829 61.2101 59.3453 68.3471 67.0891 78.194C68.5322 80.0203 69.9356 81.8408 71.0414 83.8934C72.4224 86.4581 73.4376 90.1066 76.7964 90.5394C79.7208 90.9162 81.4248 88.6866 82.5195 86.3391C83.4232 89.6296 81.5442 94.2608 77.5633 93.7714C75.9626 93.5747 75.07 92.6861 74.2745 91.3658C72.5386 88.4896 70.8855 85.5004 68.7232 82.9119C67.4678 81.4109 65.8815 79.9908 64.4654 78.6078C55.6492 70.0381 45.3549 63.1353 34.0804 58.2337C32.4018 57.4943 31.3899 56.8812 30.658 55.0139C30.4066 54.3716 30.0963 52.9011 30.4018 52.2488Z" fill="#C5A062"/>
<path d="M35.2481 48.9406C39.8829 48.7071 43.334 50.5344 47.4708 52.4185C58.8773 57.6225 70.0324 65.4064 76.497 76.3897C78.0833 79.0845 81.4739 85.4555 77.6362 87.5795C76.357 87.3787 76.1581 86.8761 75.5535 85.8274C74.1565 83.4043 72.9887 80.5489 71.3021 78.3198C68.3745 74.452 65.1112 70.8544 61.4612 67.6457C56.225 63.0401 50.4604 59.0737 44.2886 55.83C42.4891 54.8683 40.6434 53.9948 38.7596 53.2123C37.0094 52.4909 31.0333 50.9612 35.2481 48.9406Z" fill="#D2B98A"/>
<path d="M23.1101 69.957C22.2779 66.828 24.2175 64.0022 27.2294 63.6337C35.2867 62.6483 47.8292 69.8016 54.1697 74.1145C61.013 78.7147 66.8443 84.6676 71.3009 91.6063C71.8323 92.4418 73.2261 94.7296 73.5046 95.564C74.0233 96.7563 74.5929 98.1178 74.822 99.4053C75.3327 100.815 75.3693 102.564 75.2277 104.047C76.1315 107.338 74.2524 111.969 70.2715 111.48C68.6709 111.283 67.7783 110.394 66.9827 109.074C65.2468 106.198 63.5937 103.209 61.4314 100.62C60.1761 99.1191 58.5897 97.699 57.1737 96.3161C48.3575 87.7463 38.0631 80.8435 26.7887 75.9419C25.1101 75.2025 24.0981 74.5895 23.3662 72.7222C23.1148 72.0798 22.8046 70.6093 23.1101 69.957Z" fill="#361A0D"/>
<path d="M23.1103 69.957C24.878 72.3884 27.3283 72.5354 29.9122 73.7252C41.1914 78.9184 52.0538 86.0553 59.7976 95.9023C61.2407 97.7285 62.6441 99.549 63.7499 101.602C65.1309 104.166 66.1461 107.815 69.5049 108.248C72.4293 108.624 74.1333 106.395 75.228 104.047C76.1317 107.338 74.2526 111.969 70.2717 111.48C68.6711 111.283 67.7785 110.394 66.983 109.074C65.2471 106.198 63.594 103.209 61.4317 100.62C60.1763 99.1191 58.59 97.6991 57.1739 96.3161C48.3577 87.7463 38.0634 80.8436 26.7889 75.9419C25.1103 75.2025 24.0984 74.5895 23.3665 72.7222C23.1151 72.0799 22.8048 70.6094 23.1103 69.957Z" fill="#C5A062"/>
<path d="M27.9561 66.6489C32.5909 66.4155 36.042 68.2427 40.1788 70.1268C51.5853 75.3308 62.7404 83.1147 69.205 94.098C70.7913 96.7928 74.1819 103.164 70.3442 105.288C69.065 105.087 68.8661 104.584 68.2615 103.536C66.8645 101.113 65.6967 98.2572 64.0101 96.0281C61.0825 92.1604 57.8192 88.5628 54.1692 85.354C48.933 80.7485 43.1685 76.782 36.9966 73.5383C35.1971 72.5766 33.3514 71.7031 31.4676 70.9206C29.7174 70.1992 23.7413 68.6696 27.9561 66.6489Z" fill="#F2D8A6"/>
<path d="M97.5918 66.8343C96.2534 61.6266 100.388 60.7005 104.435 61.8908C106.44 62.4807 108.763 62.69 110.573 63.7878C111.493 64.3511 111.605 65.7986 111.596 66.7579C112.218 66.5251 111.675 66.3728 112.219 66.5816C114.097 69.5851 111.415 73.6953 110.585 76.7451C109.185 81.8894 107.516 86.973 106.177 92.1342C105.296 95.3191 103.985 98.717 103.269 102.011C103.001 103.542 102.664 105.15 102.512 106.695C102.22 109.671 103.695 113.377 100.63 115.406C99.4996 116.154 96.1038 116.196 95.7822 114.66L96.0473 114.333C95.1799 114.023 94.4215 113.505 93.6742 112.98C93.7466 113.306 93.7753 113.2 93.6893 113.476C92.0204 114.116 89.0171 113.088 88.0417 111.588C82.9813 108.885 90.397 101.639 91.9183 98.6422C94.9774 92.6164 97.2705 86.0175 98.7314 79.4152C99.2507 77.0712 99.0853 75.2435 99.0177 72.8981C98.6299 70.8254 98.1105 68.8764 97.5918 66.8343Z" fill="#361A0D"/>
<path d="M111.597 66.758C112.218 66.5252 111.675 66.3729 112.22 66.5817C114.097 69.5851 111.416 73.6954 110.586 76.7451C109.185 81.8895 107.517 86.9731 106.177 92.1342C105.297 95.3191 103.986 98.7171 103.269 102.011C103.002 103.542 102.665 105.15 102.513 106.695C102.221 109.671 103.696 113.377 100.63 115.406C99.5001 116.155 96.1043 116.196 95.7827 114.66L96.0478 114.333L96.1624 114.346L96.3525 114.363C97.5043 114.481 98.812 114.31 99.7673 113.606C101.838 112.037 100.986 109.039 100.881 106.845C100.775 104.621 101.303 102.427 101.685 100.252C102.271 96.9197 103.507 93.6965 104.443 90.4463C105.905 85.3744 107.378 80.3068 108.847 75.2365C109.107 74.3353 109.409 73.4052 109.709 72.5162C110.662 70.1834 111.241 69.3124 111.597 66.758Z" fill="#C5A062"/>
<path d="M99.8265 64.0809C101.344 63.1327 107.317 64.9372 109.12 65.4723C109.63 68.6552 107.95 70.2708 107.169 73.137C106.303 76.3159 105.381 79.4716 104.476 82.6394C102.719 88.7941 100.285 95.1241 99.0725 101.4C98.8155 102.787 98.6825 104.192 98.6736 105.602C98.6725 107.576 99.3619 110.232 98.5005 111.746C96.4108 113.181 94.4555 110.781 93.2189 109.315C92.078 109.66 89.5199 110.7 88.6665 109.282C88.4002 108.841 88.6567 107.943 88.8993 107.517C90.2881 105.073 91.9705 102.778 93.4525 100.386C94.8857 98.0516 96.4393 94.5881 97.3483 91.9923C98.9637 87.378 101.287 80.9223 101.396 76.0915C101.429 74.6469 101.322 73.2032 101.073 71.7807C100.694 69.6568 99.2841 65.7713 99.8265 64.0809Z" fill="#F2D8A6"/>
<path d="M35.0981 103.578C32.4585 99.0056 37.299 96.5792 40.6687 94.6381C46.1342 91.4909 49.8051 94.654 53.2653 98.8656C57.4125 103.913 62.8444 108.664 61.0233 115.911L61.3663 116.033C62.0045 117.957 60.4505 122.916 57.6005 122.757C52.3555 122.465 35.1719 107.938 35.0981 103.578Z" fill="#361A0D"/>
<path d="M35.0977 103.578C38.9783 107.341 51.5143 119.636 56.6092 119.691C57.7379 119.704 58.8193 119.238 59.5847 118.409C60.2664 117.671 60.6421 116.827 61.0228 115.911L61.3659 116.033C62.0041 117.957 60.45 122.916 57.6001 122.757C52.3551 122.465 35.1715 107.938 35.0977 103.578Z" fill="#C5A062"/>
<path d="M43.8827 96.7861C44.9278 96.7002 45.8333 96.6445 46.8047 97.1011C48.7442 98.0144 54.6645 105.485 56.0966 107.593C56.8139 108.649 57.4737 109.769 57.909 110.974C58.3235 112.119 58.6457 113.76 58.0581 114.905C57.777 115.454 57.2209 115.887 56.6238 116.04C55.4023 116.352 54.1814 115.45 53.183 114.867C48.4575 111.858 44.177 107.52 39.9594 103.866C37.1347 101.421 36.7651 100.667 40.1799 98.584C41.4857 97.7885 42.4325 97.3032 43.8827 96.7861Z" fill="#F2D8A6"/>
<path d="M10.6836 97.9906C8.03398 95.3383 9.83557 91.203 12.3024 89.2842C16.3229 86.1561 20.4881 82.0161 24.5794 79.1172C29.1846 75.8554 30.5655 81.9763 30.219 85.5929C32.9084 90.9039 22.581 99.8013 18.3582 101.615C16.8165 102.277 15.5749 102.668 13.9177 101.976C12.4096 101.349 10.1072 100.075 9.99214 98.2675C10.2606 98.1386 10.4012 98.0877 10.6836 97.9906Z" fill="#361A0D"/>
<path d="M30.2195 85.5925C32.9089 90.9036 22.5815 99.8009 18.3588 101.615C16.817 102.277 15.5755 102.668 13.9182 101.976C12.4102 101.349 10.1077 100.075 9.99268 98.2671C10.2611 98.1383 10.4017 98.0873 10.6842 97.9903C13.9842 99.9664 15.8364 99.688 19.0751 97.6657C20.7171 96.641 22.1962 95.3984 23.6391 94.1128C26.6614 91.4191 29.0294 89.5941 30.2195 85.5925Z" fill="#C5A062"/>
<path d="M26.1413 82.035C29.1765 82.4424 26.0624 87.8855 24.6135 89.0613C21.471 91.6134 18.1809 96.1066 13.7991 96.1416C10.0599 94.5203 16.0508 90.21 17.4492 89.1377C20.4108 86.8656 23.2084 84.3262 26.1413 82.035Z" fill="#F2D8A6"/>
<path d="M95.7703 23.5371C92.3921 19.4766 98.6281 11.2937 101.326 8.08443C104.827 3.91896 111.587 7.378 111.383 13.1457C111.632 17.238 111.514 17.973 108.806 21.195C106.024 24.5029 101.463 30.6811 96.7709 26.3819C96.142 25.7948 95.2467 24.6763 95.4839 23.7503L95.7703 23.5371Z" fill="#361A0D"/>
<path d="M95.7703 23.5371C100.205 27.1696 103.46 23.273 106.379 19.849C107.997 17.9508 110.177 15.3096 111.383 13.1458C111.632 17.238 111.514 17.9731 108.806 21.1951C106.024 24.5029 101.463 30.6811 96.7709 26.382C96.142 25.7949 95.2466 24.6764 95.4839 23.7504L95.7703 23.5371Z" fill="#C5A062"/>
<path d="M104.603 9.62948C105.474 9.54515 107.06 9.85064 107.521 10.5825C109.194 13.2412 104.894 16.5968 103.553 18.6287C102.919 19.5897 101.62 20.7496 100.846 21.2715C99.2051 22.0861 97.1505 22.1577 97.8933 19.7615C98.7768 16.9087 102.183 11.1665 104.603 9.62948Z" fill="#F2D8A6"/>
<path d="M80.4912 34.8582C82.3555 35.4587 85.4624 36.7863 88.3417 38.3479C89.7854 39.1309 91.2006 39.9887 92.389 40.8605C93.3797 41.5872 94.2954 42.3832 94.9196 43.213C96.9352 43.8755 98.3249 44.91 98.9862 46.5163C99.6426 48.1109 99.442 49.9838 99.0429 51.8999C98.7659 53.829 97.7933 56.4663 96.7851 58.0829L96.342 58.7931L95.5131 58.6853C95.2232 58.6477 94.6307 58.5338 94.1044 58.4379C94.2351 58.7391 94.3919 59.1024 94.5231 59.4735C94.6611 59.8635 94.7944 60.3248 94.8365 60.8025C94.8789 61.2825 94.8363 61.8672 94.5294 62.4228L94.3298 62.7834L93.9591 62.964C93.6651 63.1069 93.351 63.1731 93.1213 63.2102C92.8734 63.2504 92.6149 63.2731 92.3865 63.2885C91.8513 63.3246 91.5561 63.3253 91.3336 63.3581C90.2498 63.5178 89.2212 63.996 88.1736 64.6742C87.1034 65.367 86.1302 66.1844 85.0429 67.0251L85.0426 67.026C84.8118 67.2044 84.5828 67.4011 84.2551 67.6657C83.9675 67.898 83.6115 68.1748 83.2664 68.3764L83.1185 68.4633L82.9523 68.5085L79.2973 69.5038L79.195 69.5315L79.0889 69.5426L76.4642 69.8129L75.2084 69.9426L75.0401 68.6919C74.9878 68.3023 74.7873 67.7348 74.4814 66.8997C74.2032 66.1401 73.8573 65.2049 73.6758 64.2941C73.3846 62.8306 73.2484 61.0368 73.0567 59.5424C72.9305 58.5588 72.7775 57.6628 72.5568 56.882C71.9178 57.3662 71.2482 58.0149 70.5432 58.7746C69.4935 59.9057 68.2753 61.3937 67.2401 62.3798C66.5583 63.0294 65.9351 63.5151 65.3451 63.9567C64.7458 64.4053 64.2206 64.7808 63.6387 65.2649L63.5629 65.3288L63.2359 65.6034L62.8107 65.6312L61.6988 65.7055L60.9035 65.7582L60.4951 65.0745L57.6761 60.355C57.5449 60.1602 57.4569 59.9623 57.4057 59.8325C57.3328 59.6476 57.2716 59.4511 57.2211 59.2791C57.091 58.8354 57.0632 58.6825 56.9953 58.4704C56.1995 55.985 55.9194 54.6982 55.3478 53.5131C54.8356 52.4512 54.081 51.496 52.2823 50.0108L51.4716 49.3407L51.9552 48.4077C52.5727 47.2166 53.2517 46.6207 53.9251 46.1144C54.1071 45.9775 54.2767 45.8512 54.4434 45.7257C53.8775 45.4562 53.229 45.1525 52.8568 44.9392L52.1197 44.5163L52.2103 43.6706C52.2889 42.9359 52.5582 41.7948 52.8474 40.7521C53.1326 39.7235 53.4759 38.6553 53.7514 38.0054C54.0376 37.2627 54.4065 36.2803 54.9041 35.3722C55.3998 34.4678 56.0936 33.4992 57.107 32.8767C58.1203 32.2543 59.0653 32.2086 59.8391 32.2778C60.1703 32.3074 60.5664 32.3712 60.7837 32.3991C61.0444 32.4325 61.2254 32.4424 61.3776 32.4305C62.709 32.302 64.1748 32.1384 65.6216 32.1316L65.6228 32.131C70.2781 32.1097 76.2977 33.5078 80.4912 34.8582Z" fill="#F2D8A6" stroke="#361A0D" stroke-width="2.60417"/>
<path d="M40.7946 70.0012C40.7924 70.0012 40.7847 70.0014 40.776 70.0012C40.7669 70.0009 40.7536 70.0008 40.7378 70C40.7143 69.9989 40.6945 69.9959 40.6814 69.9949C40.6784 69.9947 40.6755 69.9952 40.6725 69.995C40.6685 69.9946 40.6649 69.9951 40.6627 69.9949L40.6579 69.9944L40.6625 69.9241L40.6377 69.9264C39.4831 70.0101 38.2319 70.1871 36.826 70.1977C34.9876 70.2113 32.636 69.9206 30.3852 69.3991C28.1963 68.892 25.9567 68.1318 24.3312 67.1247C21.467 65.8378 18.3767 63.1047 16.4609 60.9018L16.4311 60.8681L16.4044 60.8338C15.9957 60.304 15.5825 59.7779 15.1648 59.2555L15.0308 59.0869L14.9677 58.9337C14.9643 58.9277 14.9602 58.9202 14.9553 58.9118C14.9255 58.8597 14.8817 58.7868 14.8246 58.6934C14.7107 58.5072 14.5623 58.2718 14.4039 58.0215C14.1082 57.554 13.7378 56.9755 13.591 56.7131L13.5912 56.7121C12.6935 55.1067 12.1807 53.7637 11.5653 52.1742L11.547 52.1251L11.5307 52.0752C11.1803 50.9398 10.8852 49.7876 10.6461 48.6238L10.6455 48.6198L10.5998 48.3968L10.5833 48.3126L10.5758 48.2273C10.5464 47.884 10.4957 47.5072 10.4369 47.0818C10.3804 46.6726 10.3157 46.2163 10.2725 45.7715L10.2068 45.0229C10.0766 43.275 10.1073 41.5183 10.2983 39.775L10.3005 39.7546C10.5266 37.9189 10.9772 36.341 11.4188 34.7145L11.4689 34.5313L11.5501 34.3888C11.5467 34.3933 11.5704 34.3421 11.6269 34.1957C11.6867 34.0405 11.7588 33.8448 11.8347 33.6337C11.974 33.246 12.1474 32.7469 12.2395 32.5192C12.5398 31.7766 12.8028 31.2623 13.1419 30.6058L13.1432 30.603C17.4469 22.3192 24.6501 15.9098 33.3781 12.5992L34.1012 12.3323C35.7461 11.7551 37.1129 11.4743 38.4593 11.0551L38.628 11.0026L38.7571 10.9615L38.8925 10.9446C39.4085 10.8802 39.9685 10.7831 40.5795 10.6754C41.1763 10.5702 41.822 10.4551 42.452 10.3702L42.475 10.3668L42.4969 10.3642C43.0675 10.3045 44.4629 10.1555 45.8251 10.0763C46.5038 10.0368 47.2044 10.0134 47.8053 10.0301C48.1048 10.0385 48.4066 10.0573 48.6822 10.0961C48.8932 10.1258 49.1968 10.1803 49.4933 10.3081L49.6195 10.3669L50.3325 10.7324L50.4256 11.5282L50.4384 11.6377L50.5656 12.7278L49.5643 13.1789C48.418 13.6951 47.1345 14.0667 46.1631 14.4177C39.4265 16.8522 32.9883 20.6684 28.2364 25.9261C27.4514 26.7947 26.3279 28.1511 25.8636 29.0082L25.8121 29.1029L25.7479 29.1883C23.6836 31.9669 22.235 35.6533 21.7271 39.4487C21.2187 43.2475 21.6685 47.0313 23.2477 50.0571C23.7181 50.9585 24.2175 51.7901 24.7978 52.4733L25.0521 52.757L25.2609 52.9789L25.2807 53.0331C25.5792 53.3744 26.2054 53.9661 26.957 54.5778C27.3701 54.9141 27.7836 55.2259 28.1437 55.4698C28.5323 55.7328 28.7668 55.8531 28.8467 55.8824L28.944 55.9184L29.0351 55.9665C32.2039 57.6478 35.8141 58.3111 39.3736 57.8663L39.3766 57.8656C39.5974 57.8385 39.9768 57.7961 40.3468 57.7393C40.5315 57.7109 40.6922 57.6818 40.8136 57.655C40.8553 57.6458 40.8851 57.636 40.9056 57.6305L41.0968 57.5332L41.3913 57.508C42.1779 57.4399 43.2691 57.0524 44.4762 56.4513C45.6493 55.8671 46.7965 55.151 47.6552 54.558C48.0416 54.2912 48.31 54.0686 48.5891 53.8473C48.8223 53.6623 49.2014 53.3568 49.6653 53.1842C50.2343 52.9726 50.7868 52.9977 51.3147 53.1546C51.6597 53.2571 52.0154 53.4227 52.3786 53.6178L52.7437 53.8211L52.8936 53.907L53.0195 54.0237C53.6865 54.6431 54.2378 55.2536 54.6801 55.9793C55.1201 56.7013 55.4116 57.4711 55.6424 58.3714L55.7586 58.7886C56.0412 59.8201 56.3429 61.2365 55.433 62.7531L55.3478 62.8962L55.2327 63.0164C53.1665 65.1834 49.5546 67.1034 47.0256 68.1508C46.846 68.2251 46.4066 68.3815 46.1027 68.4944C45.928 68.5592 45.7692 68.6194 45.6457 68.6701C45.5987 68.6893 45.5627 68.7046 45.5366 68.7163L45.378 68.8299L45.1172 68.899C43.7638 69.2573 42.4589 69.6415 40.9291 69.8841L40.9299 70.004L40.8053 70.0024L40.7946 70.0012Z" fill="#F2D8A6" stroke="#361A0D" stroke-width="3"/>
<path d="M54.1681 62.0001C54.8296 60.8976 54.5339 59.9383 54.2173 58.7881C53.6327 59.1371 53.0695 59.9464 52.5134 60.4025C51.3917 61.3227 50.2145 62.1708 48.982 62.9385C42.9437 66.5141 34.581 67.359 27.7443 66.1484C27.0435 66.0243 25.5651 65.5181 24.9628 65.5948L24.9901 65.6836L25.0608 65.8197C27.9093 67.6286 33.4451 68.742 36.8359 68.7168C38.6259 68.6477 42.7154 68.3011 44.7538 67.4672C44.9343 67.3258 46.1699 66.9089 46.4724 66.7837C48.9448 65.7598 52.3216 63.9367 54.1681 62.0001Z" fill="#D7B180"/>
</g>
<defs>
<clipPath id="clip0_3094_3122">
<rect width="125" height="125" fill="white"/>
</clipPath>
</defs>
</svg>
