<svg width="220" height="220" viewBox="0 0 220 220" fill="none" xmlns="http://www.w3.org/2000/svg">
<g clip-path="url(#clip0_3060_1315)">
<path d="M160.265 110.726C160.232 112.512 159.651 114.288 159.44 116.023C159.225 117.793 158.717 119.509 158.329 121.215C157.934 122.948 157.129 124.534 156.564 126.193C155.992 127.871 155.888 129.731 155.153 131.323C154.413 132.929 153.269 134.322 152.371 135.828C151.47 137.343 150.593 138.87 149.544 140.276C148.496 141.682 147.151 142.831 145.963 144.119C144.776 145.407 143.807 146.925 142.491 148.081C141.176 149.237 140.072 150.735 138.645 151.747C137.222 152.758 135.726 153.791 134.201 154.647C132.684 155.5 130.654 155.344 129.046 156.036C127.451 156.72 125.86 157.346 124.187 157.863C122.534 158.372 120.825 158.514 119.105 158.851C117.412 159.182 115.763 159.592 114.014 159.743C112.298 159.891 110.603 159.915 108.844 159.882C107.085 159.849 105.31 160.433 103.601 160.22C101.859 160.003 100.191 159.362 98.5115 158.968C96.8154 158.58 95.1415 158.101 93.4969 157.533C91.8433 156.953 90.3319 156.084 88.7632 155.337C87.1824 154.585 85.3624 154.287 83.8787 153.377C82.3863 152.461 81.2457 151.009 79.8608 149.945C78.4759 148.88 77.0407 147.88 75.7719 146.676C74.5031 145.471 73.0835 144.388 71.9447 143.053C70.8059 141.718 70.0051 140.105 69.0084 138.655C68.0117 137.206 66.9284 135.818 66.0825 134.27C65.2419 132.731 64.3891 131.171 63.7079 129.54C63.0319 127.921 62.2467 126.3 61.7371 124.602C61.2344 122.924 60.5289 121.223 60.1979 119.478C59.872 117.758 60.4076 115.871 60.2585 114.096C60.1129 112.354 60.2325 110.607 60.2655 108.82C60.2984 107.033 59.5617 105.197 59.7715 103.464C59.9864 101.694 61.1113 100.087 61.5013 98.3797C61.8965 96.6464 62.6332 95.069 63.1983 93.4102C63.7703 91.7324 64.3423 90.1204 65.0772 88.5292C65.8173 86.9241 66.1259 85.1128 67.022 83.6048C67.9233 82.0898 69.1072 80.776 70.1559 79.3702C71.2045 77.9645 71.7072 76.044 72.8945 74.7561C74.0819 73.4682 76.2589 73.2117 77.5728 72.0556C78.8867 70.8994 79.7273 69.1644 81.1539 68.1504C82.5804 67.1364 84.052 66.1674 85.5773 65.3094C87.094 64.4566 88.7199 63.7737 90.3267 63.0821C91.9213 62.3974 93.4016 61.2396 95.0743 60.723C96.7279 60.2134 98.5877 60.3261 100.309 59.9898C102.002 59.6588 103.786 59.9898 105.535 59.8408C107.251 59.6934 108.939 59.7247 110.699 59.7576C112.458 59.7905 114.136 59.917 115.843 60.1302C117.585 60.3469 119.419 59.865 121.1 60.2585C122.808 60.6589 124.518 61.1131 126.151 61.6868C127.805 62.2675 129.302 63.2485 130.869 63.9956C132.45 64.7478 133.778 65.9161 135.263 66.8261C136.756 67.7413 138.137 68.7345 139.52 69.7988C140.904 70.863 142.294 71.8718 143.563 73.0765C144.831 74.2812 145.809 75.7112 146.949 77.0441C148.09 78.377 149.175 79.6788 150.173 81.1261C151.172 82.5734 152.543 83.7469 153.389 85.2948C154.229 86.834 154.845 88.4858 155.526 90.1169C156.202 91.7358 157.308 93.2196 157.816 94.9182C158.318 96.5961 158.422 98.4144 158.753 100.16C159.079 101.879 159.618 103.609 159.767 105.386C159.913 107.128 160.3 108.936 160.267 110.721L160.265 110.726Z" fill="#684924"/>
<path d="M153.333 110C153.333 133.903 133.902 153.333 110 153.333C102.928 153.333 96.2718 151.635 90.3785 148.619C89.3212 148.099 88.2985 147.527 87.3105 146.903C74.9345 139.276 66.6665 125.583 66.6665 110C66.6665 86.0973 86.0972 66.6666 110 66.6666C118.164 66.6666 125.791 68.92 132.291 72.8546L137.785 76.772C147.284 84.728 153.333 96.6706 153.333 110Z" fill="#E5AD6A"/>
<path d="M144.703 118.237C144.6 118.237 144.497 118.228 144.396 118.209L126.503 115.008C126.05 114.927 125.648 114.67 125.385 114.293C125.122 113.916 125.02 113.45 125.101 112.997C125.181 112.544 125.438 112.142 125.816 111.879C126.193 111.616 126.659 111.514 127.111 111.595L145.005 114.796C145.43 114.873 145.811 115.106 146.073 115.45C146.336 115.793 146.46 116.223 146.422 116.653C146.385 117.084 146.187 117.485 145.869 117.777C145.551 118.07 145.135 118.235 144.703 118.237Z" fill="#AE834E"/>
<path d="M90.3785 148.619L85.7505 154.235C85.0918 153.992 84.4678 153.732 83.8785 153.368C83.4625 153.108 83.0638 152.813 82.6825 152.484L87.3105 146.903C88.2985 147.527 89.3212 148.099 90.3785 148.619Z" fill="#392812"/>
<path d="M92.2678 146.348L90.3785 148.619C89.3212 148.099 88.2985 147.527 87.3105 146.903L89.5985 144.129C90.2052 143.401 91.2972 143.297 92.0425 143.904C92.7705 144.511 92.8745 145.603 92.2678 146.348ZM123.346 142.691C120.382 141.945 118.094 139.259 117.193 136.295C116.292 133.244 116.604 129.951 117.349 126.865C120.07 128.235 122.306 130.592 123.433 133.4C124.629 136.364 124.56 139.779 123.346 142.691Z" fill="#AE834E"/>
<path d="M144.684 74.2586V74.276L140.385 75.1426C139.779 75.264 139.224 75.5413 138.756 75.94L137.785 76.772L132.291 72.8546L134.735 66.4933C134.908 66.6146 135.081 66.7186 135.255 66.8226C136.763 67.7413 138.132 68.7293 139.519 69.804C140.905 70.8613 142.292 71.8666 143.557 73.08C143.956 73.4613 144.32 73.86 144.684 74.2586Z" fill="#392812"/>
<path d="M137.785 76.7719L129.743 83.6706L128.755 84.5199C128.373 84.8319 127.819 84.4506 128.009 83.9999L128.495 82.7519L132.291 72.8546L137.785 76.7719ZM84.6065 104.401L77.0665 108.336H66.7012C66.8225 104.956 67.3425 101.663 68.2092 98.5253L77.8985 102.668L84.6065 104.401Z" fill="#AE834E"/>
<path d="M11.2347 39.3169C10.3308 39.8655 10.5261 41.2007 11.5315 41.5297C24.4634 45.7666 30.3278 48.8455 32.9384 54.79C33.9013 56.9841 36.6452 58.1372 38.5683 56.7085L43.8673 52.7718C45.2385 51.7538 45.5729 49.8301 44.5532 48.4601C35.8554 36.7795 25.0354 30.946 11.2347 39.3169Z" fill="#879D4A"/>
<path d="M27.9 26.5481C26.8351 26.7713 26.6003 28.1478 27.4946 28.7673C36.5661 35.0508 40.6546 38.9832 41.3363 43.9818C41.6685 46.4224 43.8875 48.5837 46.2421 47.8609L51.6245 46.2077C53.2504 45.7086 54.2124 44.0141 53.6953 42.3933C50.0135 30.8514 42.5572 23.4767 27.9 26.5481Z" fill="#879D4A"/>
<path d="M71.8292 43.5589C71.6702 44.5539 70.445 44.9032 69.7016 44.2236C62.534 37.667 54.584 35.5502 50.811 37.6039L56.2916 27.8854C56.7799 27.0203 57.6424 26.4091 58.6361 26.3783C65.7466 26.1535 73.8249 31.044 71.8292 43.5589Z" fill="#879D4A"/>
<path d="M41.9419 19.6881C41.0067 20.063 40.9364 21.3348 41.764 21.91C49.7429 27.4508 53.5648 34.7361 52.396 38.8698L60.6624 31.3763C61.3982 30.7089 61.8037 29.7326 61.614 28.7567C60.2613 21.7724 53.7065 14.9755 41.9419 19.6881ZM60.3115 78.5142C59.9767 79.5175 58.6305 79.6214 58.0878 78.714C51.0969 67.0386 46.7978 62 40.4233 60.7681C38.07 60.3137 36.3394 57.8929 37.3076 55.7016L39.975 49.663C40.6652 48.1011 42.4673 47.3497 44.0289 48.0413C57.3433 53.9417 65.4244 63.2045 60.3115 78.5142Z" fill="#879D4A"/>
<path d="M68.2034 59.4499C68.1369 60.5359 66.8096 60.9679 66.0669 60.1729C58.5348 52.1084 54.0516 48.6323 49.0068 48.6831C46.5441 48.7075 44.0832 46.8245 44.4577 44.3903L45.3136 38.8252C45.572 37.144 47.1085 35.9466 48.7872 36.2235C60.7414 38.1938 69.1192 44.5028 68.2034 59.4499Z" fill="#879D4A"/>
<path d="M64.0749 21.7581C65.2263 20.8179 66.7533 22.2679 65.8857 23.4749C53.4839 40.7397 45.3544 53.1424 34.3399 73.7673C33.3961 75.5352 31.0748 76.0281 29.5088 74.7773L22.6036 69.2621C21.9541 68.7441 21.5332 67.9924 21.431 67.1679C21.3288 66.3434 21.5534 65.5117 22.0567 64.8508C35.811 46.8472 46.3993 36.2073 64.0749 21.7581Z" fill="#5F6F2D"/>
<path d="M134.455 189.082C134.139 189.487 134.458 190.06 134.972 190.035C141.577 189.725 144.773 190.109 146.986 192.358C147.802 193.188 149.248 193.237 149.874 192.256L151.6 189.552C152.047 188.853 151.867 187.921 151.167 187.475C145.198 183.674 139.275 182.895 134.455 189.082Z" fill="#879D4A"/>
<path d="M139.816 180.402C139.371 180.688 139.503 181.354 140.016 181.48C145.222 182.766 147.758 183.845 148.932 185.998C149.504 187.049 150.886 187.647 151.83 186.911L153.989 185.23C154.641 184.723 154.785 183.787 154.27 183.14C150.603 178.535 145.942 176.474 139.816 180.402Z" fill="#879D4A"/>
<path d="M162.707 180.535C162.807 181.015 162.311 181.385 161.856 181.205C157.467 179.466 153.491 179.879 152.132 181.464L152.942 176.103C153.014 175.625 153.3 175.199 153.746 175.013C156.936 173.682 161.45 174.507 162.707 180.535Z" fill="#879D4A"/>
<path d="M145.008 174.86C144.648 175.192 144.836 175.782 145.311 175.9C149.892 177.037 152.887 179.685 153.071 181.764L155.53 176.933C155.749 176.502 155.764 175.989 155.509 175.578C153.688 172.64 149.536 170.686 145.008 174.86ZM163.518 198.401C163.539 198.914 162.946 199.194 162.542 198.876C157.35 194.782 154.526 193.237 151.418 193.779C150.271 193.979 149.067 193.179 149.128 192.017L149.295 188.813C149.339 187.984 150.027 187.332 150.856 187.376C157.923 187.754 163.194 190.564 163.518 198.401Z" fill="#879D4A"/>
<path d="M163.807 188.379C163.964 188.883 163.436 189.309 162.961 189.076C158.147 186.716 155.51 185.912 153.228 186.807C152.114 187.244 150.67 186.814 150.42 185.644L149.847 182.968C149.673 182.16 150.164 181.351 150.975 181.186C156.744 180.015 161.639 181.432 163.807 188.379Z" fill="#879D4A"/>
<path d="M155.417 171.975C155.778 171.349 156.722 171.743 156.536 172.441C153.888 182.426 152.34 189.463 150.902 200.734C150.779 201.7 149.81 202.325 148.883 202.028L144.794 200.716C144.409 200.593 144.088 200.325 143.899 199.968C143.71 199.611 143.668 199.195 143.783 198.808C146.918 188.254 149.887 181.592 155.417 171.975Z" fill="#5F6F2D"/>
<path d="M175.484 185.279C175.987 185.932 177.004 185.664 177.172 184.857C179.328 174.473 181.203 169.664 185.58 167.125C187.195 166.189 187.849 163.963 186.576 162.598L183.066 158.837C182.158 157.863 180.64 157.772 179.667 158.68C171.377 166.432 167.801 175.319 175.484 185.279Z" fill="#879D4A"/>
<path d="M164.146 173.483C164.411 174.289 165.498 174.351 165.9 173.604C169.977 166.032 172.667 162.524 176.479 161.561C178.34 161.092 179.821 159.185 179.056 157.425L177.308 153.4C176.78 152.184 175.384 151.586 174.174 152.128C165.555 155.983 160.492 162.399 164.146 173.483Z" fill="#879D4A"/>
<path d="M173.499 137.983C174.284 138.019 174.661 138.938 174.199 139.573C169.745 145.694 168.797 152.035 170.715 154.778L162.712 151.379C162 151.076 161.451 150.461 161.341 149.694C160.549 144.207 163.633 137.526 173.499 137.983Z" fill="#879D4A"/>
<path d="M157.612 163.205C157.983 163.897 158.974 163.841 159.348 163.15C162.945 156.489 168.255 152.895 171.558 153.441L165.036 147.69C164.455 147.179 163.663 146.949 162.924 147.181C157.633 148.836 152.939 154.504 157.612 163.205ZM201.572 143.863C202.379 144.035 202.576 145.068 201.921 145.567C193.486 151.997 189.958 155.765 189.558 160.809C189.411 162.671 187.687 164.221 185.906 163.662L180.997 162.122C179.727 161.723 178.989 160.393 179.388 159.123C182.8 148.298 189.271 141.234 201.572 143.863Z" fill="#879D4A"/>
<path d="M186.122 139.409C186.968 139.366 187.418 140.356 186.867 141C181.277 147.535 178.975 151.31 179.453 155.212C179.686 157.117 178.441 159.187 176.524 159.109L172.139 158.93C170.815 158.876 169.754 157.79 169.822 156.466C170.309 147.036 174.466 139.999 186.122 139.409Z" fill="#879D4A"/>
<path d="M157.29 145.884C156.462 145.074 157.452 143.765 158.462 144.332C172.911 152.436 183.224 157.653 200.155 164.389C201.606 164.967 202.19 166.722 201.357 168.043L197.687 173.871C197.342 174.419 196.796 174.81 196.167 174.961C195.537 175.112 194.873 175.01 194.318 174.678C179.178 165.591 170.017 158.317 157.29 145.884Z" fill="#5F6F2D"/>
<path d="M172.691 71.7164C173.677 72.0978 174.616 71.1283 174.263 70.131C169.728 57.3005 168.589 50.7757 171.705 45.0801C172.856 42.9784 172.095 40.1009 169.79 39.4492L163.437 37.6533C161.794 37.1882 160.066 38.0972 159.603 39.7411C155.657 53.7595 157.638 65.8911 172.691 71.7164Z" fill="#879D4A"/>
<path d="M152.405 66.3054C153.232 67.0128 154.466 66.3589 154.411 65.2723C153.853 54.2513 154.474 48.6126 158.018 45.0223C159.749 43.2699 160.107 40.1931 158.097 38.7688L153.503 35.5134C152.116 34.5298 150.186 34.8017 149.218 36.2004C142.321 46.1604 141.028 56.5677 152.405 66.3054Z" fill="#879D4A"/>
<path d="M139.076 21.123C139.961 20.6418 140.985 21.3993 140.9 22.4029C140.08 32.0823 143.254 39.6722 147.183 41.4082L136.14 42.9966C135.156 43.1377 134.146 42.8274 133.515 42.0589C128.998 36.5629 127.943 27.1787 139.076 21.123Z" fill="#879D4A"/>
<path d="M138.402 59.367C139.27 59.8791 140.32 59.1588 140.271 58.1521C139.792 48.4499 143.231 40.9764 147.219 39.3799L136.238 37.4036C135.261 37.228 134.24 37.5025 133.582 38.2483C128.875 43.5819 127.49 52.9224 138.402 59.367ZM173.797 8.91726C174.796 8.57023 175.7 9.5734 175.312 10.557C170.328 23.22 168.96 29.7005 171.874 35.5023C172.95 37.644 172.088 40.4922 169.761 41.0624L163.349 42.6341C161.691 43.0404 159.996 42.0712 159.591 40.412C156.141 26.2633 158.548 14.2089 173.797 8.91726Z" fill="#879D4A"/>
<path d="M153.877 14.2985C154.778 13.6885 155.931 14.4764 155.754 15.5499C153.961 26.4382 153.943 32.1111 157.062 36.0768C158.584 38.013 158.594 41.1116 156.437 42.3003L151.506 45.0182C150.016 45.8393 148.13 45.3527 147.325 43.8538C141.591 33.181 141.477 22.694 153.877 14.2985Z" fill="#879D4A"/>
<path d="M126.536 40.5694C125.089 40.231 125.306 38.1364 126.791 38.0872C148.037 37.377 162.823 36.2491 185.884 32.3895C187.861 32.0584 189.668 33.5966 189.633 35.6005L189.477 44.4365C189.463 45.2672 189.124 46.0593 188.533 46.6434C187.943 47.2275 187.147 47.5571 186.316 47.5616C163.66 47.6512 148.769 45.7554 126.536 40.5694Z" fill="#5F6F2D"/>
<path d="M23.7777 191.189C23.8917 192.271 25.2372 192.645 25.9443 191.818C33.1157 183.431 37.4426 179.762 42.4846 179.591C44.9463 179.508 47.3215 177.52 46.8413 175.104L45.7428 169.582C45.4112 167.914 43.823 166.785 42.1582 167.135C30.3023 169.626 22.2091 176.296 23.7777 191.189Z" fill="#879D4A"/>
<path d="M18.3777 176.524C18.6558 177.492 19.9139 177.691 20.57 176.926C26.8918 169.551 34.5273 166.488 38.521 168.07L31.905 159.086C31.3156 158.286 30.3855 157.784 29.3953 157.873C22.3098 158.51 14.883 164.342 18.3777 176.524ZM78.764 164.217C79.7281 164.652 79.6949 166.002 78.7371 166.45C66.4127 172.22 60.9639 175.986 59.0917 182.202C58.4008 184.497 55.8169 185.973 53.7352 184.788L47.9984 181.522C46.5145 180.677 45.9499 178.808 46.7963 177.324C54.0171 164.677 64.052 157.578 78.764 164.217Z" fill="#879D4A"/>
<path d="M60.5987 154.432C61.6723 154.608 61.9674 155.972 61.1012 156.631C52.3141 163.306 48.4011 167.413 47.9398 172.437C47.7142 174.89 45.5913 177.147 43.2076 176.527L37.7581 175.111C36.1117 174.683 35.0765 173.033 35.5222 171.391C38.6952 159.699 45.8216 152.004 60.5987 154.432Z" fill="#879D4A"/>
<path d="M22.6825 154.715C21.864 153.474 23.4614 152.102 24.5741 153.088C40.4916 167.177 52.0055 176.523 71.4066 189.573C73.0696 190.692 73.3244 193.051 71.9212 194.482L65.7339 200.792C65.1527 201.385 64.3621 201.728 63.5315 201.746C62.701 201.764 61.8963 201.456 61.2898 200.888C44.7746 185.379 35.2638 173.765 22.6825 154.715Z" fill="#5F6F2D"/>
</g>
<defs>
<clipPath id="clip0_3060_1315">
<rect width="220" height="220" fill="white"/>
</clipPath>
</defs>
</svg>
