<svg width="160" height="140" viewBox="0 0 160 140" fill="none" xmlns="http://www.w3.org/2000/svg">
<path d="M42.2061 11.0586C43.9333 10.1737 46.5271 10.1561 48.4766 11.9609C49.7104 13.1035 50.7594 14.3475 51.7383 15.5537C52.7353 16.7822 53.6404 17.9448 54.6641 19.0586C58.8567 23.4413 62.7921 28.0522 66.7539 32.4824C70.493 36.6636 74.2874 40.7221 78.4658 44.4404L79.3066 45.1797L79.332 45.2012L79.3555 45.2236C80.5495 46.3533 83.369 49.3027 85.0312 52.0732C85.517 52.8828 85.8104 53.7504 85.7061 54.6289C85.5954 55.5607 85.0721 56.2293 84.4795 56.6553C83.4216 57.4154 81.977 57.5458 81.126 57.5264L80.5205 57.5117L80.0889 57.0869C77.693 54.7272 75.2552 52.2408 72.7949 50.1172C71.4501 48.9564 70.1624 47.5256 69.0039 46.3447C67.7923 45.1097 66.6603 44.0766 65.4453 43.4023C64.4904 42.8724 63.0916 42.685 61.3584 42.7109C59.5627 42.7378 57.9885 42.9552 56.2715 43.0449H56.2686C54.6273 43.1281 52.9825 43.1295 51.3408 43.0488V43.0479C47.5123 42.8637 43.6941 42.4153 39.5312 41.0947C37.6511 40.4982 34.4813 39.3333 31.8926 37.5635C29.3825 35.8475 26.8526 33.1463 27.6035 29.4736L27.6602 29.2578C27.8176 28.7711 28.1357 28.4003 28.3438 28.1934C28.5948 27.9437 29.0263 27.5957 29.5771 27.46H29.5781C31.611 26.9596 33.3763 27.63 34.7822 28.4492C35.4841 28.8582 36.1461 29.3331 36.7373 29.7656C37.1977 30.1025 37.6067 30.407 37.999 30.6758L38.3867 30.9326L38.3975 30.9395C40.3365 32.1949 42.2804 32.6045 44.834 33.5088C48.9174 34.9549 52.54 35.7141 56.2764 34.6055C55.7939 33.2184 54.8368 31.8267 53.5996 30.3594C52.8123 29.4256 51.9781 28.5329 51.1338 27.5996C50.3089 26.6878 49.4807 25.7431 48.8008 24.7881C46.4345 21.4643 44.055 19.4587 41.1641 16.5596C40.2675 15.6604 39.8634 14.498 40.2031 13.3223C40.5126 12.2519 41.3477 11.4983 42.2061 11.0586Z" fill="#76A04E" stroke="#074221" stroke-width="3.05556"/>
<path d="M146.376 108.365C146.519 106.53 145.585 104.249 143.288 103.201C141.777 102.512 140.241 102.027 138.752 101.589C137.242 101.145 135.808 100.755 134.375 100.236C128.719 98.0576 122.958 96.2062 117.334 94.2543C112.032 92.4143 106.812 90.472 101.756 88.0422L100.747 87.5493L100.723 87.5371L100.698 87.5263C99.2044 86.8636 95.4232 85.4109 92.2631 84.95C91.3627 84.8187 90.5184 84.8854 89.8213 85.2787C89.0859 85.6937 88.7091 86.3605 88.558 87.0128C88.285 88.1921 88.6915 89.5056 89.03 90.2668L89.2311 90.7204L89.6878 90.9117C92.7819 92.2104 96.0294 93.5065 98.9479 94.9638C100.524 95.7505 102.316 96.3788 103.868 96.9993C105.478 97.6428 106.9 98.301 108.024 99.1889C108.941 99.9131 109.675 101.189 110.323 102.808C110.99 104.474 111.412 106.056 111.978 107.641L111.979 107.643C112.532 109.181 113.161 110.691 113.864 112.166L113.865 112.166C115.504 115.615 117.378 118.943 120.179 122.251C121.449 123.749 123.725 126.2 126.321 127.885C128.852 129.527 132.18 130.736 135.131 128.728C135.564 128.434 135.807 127.97 135.926 127.678C136.051 127.371 136.187 126.893 136.111 126.404L136.111 126.403C135.805 124.437 134.572 123.123 133.3 122.16C132.664 121.68 131.981 121.259 131.354 120.88C130.87 120.588 130.427 120.324 130.021 120.062L129.627 119.798L129.619 119.792C127.677 118.462 126.51 116.778 124.718 114.8C121.729 111.499 119.552 108.323 119.2 104.223C120.794 104.062 122.584 104.433 124.536 105.047C125.707 105.416 126.861 105.844 128.042 106.261C129.2 106.671 130.378 107.067 131.504 107.322C135.513 108.232 138.316 109.67 142.084 111.212C143.185 111.662 144.302 111.582 145.162 110.891C145.952 110.256 146.305 109.278 146.376 108.365Z" fill="#76A04E" stroke="#074221" stroke-width="2.5"/>
<path d="M60.2035 122.193C58.4156 121.755 56.5411 120.155 56.2628 117.646C56.0798 115.995 56.0999 114.384 56.1489 112.834C56.1987 111.26 56.2766 109.776 56.231 108.253C55.9287 102.2 55.97 96.1485 55.8732 90.1956C55.7819 84.584 55.5676 79.0191 54.8392 73.457L54.6862 72.3444L54.6822 72.3177L54.6796 72.2909C54.5169 70.6646 54.3183 66.6189 54.8679 63.473C55.0245 62.5766 55.3516 61.7954 55.9431 61.2561C56.5671 60.6872 57.3182 60.5375 57.985 60.5978C59.1906 60.7069 60.3113 61.5036 60.9286 62.0629L61.2967 62.3957L61.3358 62.8893C61.6027 66.2342 61.8192 69.7241 62.2917 72.9518C62.5467 74.6945 62.5836 76.5933 62.6879 78.2618C62.7962 79.9924 62.9772 81.5488 63.4694 82.8939C63.8709 83.9911 64.8539 85.0874 66.1892 86.2084C67.5637 87.3624 68.9345 88.2574 70.263 89.291L70.2645 89.2923C71.5528 90.2978 72.7906 91.3671 73.9725 92.496L73.9719 92.4968C76.7365 95.1319 79.3122 97.9509 81.5789 101.646C82.6058 103.32 84.2228 106.248 85.0118 109.24C85.7808 112.158 85.8896 115.697 83.0606 117.873C82.6455 118.193 82.1291 118.278 81.8141 118.3C81.4839 118.323 80.9876 118.303 80.5463 118.078L80.5455 118.077C78.7736 117.172 77.9103 115.59 77.3937 114.081C77.1358 113.327 76.9497 112.547 76.7857 111.833C76.6589 111.281 76.5473 110.778 76.4245 110.311L76.2974 109.855L76.294 109.845C75.6372 107.585 74.4023 105.949 73.0831 103.63C70.8816 99.7585 68.545 96.6983 64.7601 95.0827C64.1092 96.5467 63.9017 98.363 63.8754 100.409C63.8596 101.637 63.9057 102.867 63.9333 104.119C63.9604 105.348 63.9686 106.59 63.8595 107.74C63.471 111.832 63.9614 114.944 64.2486 119.005C64.3325 120.192 63.9078 121.228 62.9825 121.829C62.1323 122.381 61.0927 122.41 60.2035 122.193Z" fill="#3B7441" stroke="#074221" stroke-width="2.5"/>
<path d="M27.4805 50.8057C28.1145 50.6919 28.7903 50.7667 29.416 50.9082C30.6741 51.1927 32.114 51.8368 33.4434 52.542C34.7916 53.2572 36.107 54.0793 37.1367 54.7744C37.6523 55.1225 38.1026 55.4433 38.4551 55.708C38.7811 55.9529 39.0902 56.1987 39.2695 56.3838H39.2686C42.9174 60.1472 46.2351 62.8654 49.918 64.7578C53.5916 66.6455 57.6982 67.7466 62.9658 68.1787L63.2646 68.2031C71.3477 68.8666 77.0289 69.3206 84.708 66.21L84.7812 66.1797L84.8574 66.1602C86.6583 65.6834 88.0885 65.5357 89.1855 65.7363C90.3611 65.9513 91.2413 66.5983 91.5889 67.6475C91.8911 68.5606 91.6983 69.5315 91.4355 70.2871C91.1602 71.0786 90.7332 71.8468 90.3076 72.4688L90.1416 72.7109L89.8857 72.8535C85.5649 75.2725 84.7182 76.407 81.123 79.8828L71.4023 89.3613L71.3994 89.3643C70.1834 90.5428 68.0891 92.3318 66.2549 94.0059C65.3155 94.8632 64.4227 95.7091 63.6826 96.4814C62.9275 97.2694 62.3911 97.9202 62.1123 98.3936L62.1006 98.4131C60.894 100.381 60.0686 102.559 59.2402 104.871C58.4248 107.147 57.5994 109.576 56.4053 111.844C56.2054 112.223 56.0118 112.624 55.8174 113.034L55.2275 114.288C54.513 115.79 53.7845 117.223 52.9443 118.684L52.9414 118.688C50.3912 123.079 47.8482 126.002 44.1973 129.325L43.4521 129.995C42.8702 130.514 40.7965 132.262 38.6221 133.337C37.5564 133.864 36.2893 134.321 35.0889 134.241C34.4596 134.199 33.8193 134.008 33.2578 133.578C32.697 133.149 32.3004 132.549 32.0488 131.832C31.6895 130.808 32.1051 129.795 32.5186 129.092C32.9641 128.334 33.6176 127.578 34.2842 126.901C35.6197 125.545 37.243 124.274 37.957 123.683L39.4971 122.407C41.087 121.085 42.7904 119.639 44.2959 118.187L44.2979 118.185C46.2355 116.325 47.9685 114.262 49.4658 112.035C51.531 108.959 53.2586 105.35 52.9512 101.923C52.9298 101.922 52.9064 101.921 52.8809 101.922C52.4131 101.932 51.7997 102.107 51.4336 102.25H51.4326C48.6008 103.354 45.8726 104.623 42.9893 105.853C40.1384 107.069 37.1978 108.218 34.0986 108.998V108.999C31.4904 109.655 28.115 110.648 24.7734 111.157C21.4389 111.666 17.8866 111.74 14.8994 110.395C14.4661 110.2 14.0134 109.827 13.6787 109.456C13.5006 109.259 13.318 109.021 13.1738 108.755C13.0361 108.501 12.8888 108.138 12.8848 107.715L12.8838 107.631L12.8945 107.547C13.0641 106.202 13.8082 105.19 14.7422 104.456C15.656 103.738 16.7947 103.247 17.9102 102.895C20.1167 102.197 22.6491 101.926 23.8691 101.724L25.7012 101.432C29.8713 100.794 33.3682 100.426 37.5 99.5762H37.501C39.5265 99.1599 41.2296 98.2984 43.3887 97.4512C51.7837 93.9821 59.7341 89.0195 66.5615 83.0332V83.0322C68.4049 81.4164 70.4264 79.1719 72.2686 77.0283C71.596 77.0245 70.8881 76.995 70.1641 76.9453C68.0404 76.7995 65.606 76.4823 63.1758 76.124C58.2327 75.3953 53.4203 74.5218 50.8018 74.4316C45.9482 74.2647 42.6926 75.0382 37.709 75.8096C29.3424 77.1025 20.2926 77.3648 11.8955 75.3643L11.8809 75.3613L11.8652 75.3574C10.5402 75.0071 8.86868 74.5019 7.3252 73.749C5.80251 73.0063 4.25626 71.9512 3.35547 70.4199C2.88862 69.6262 2.6767 68.7955 2.77246 67.9805C2.86852 67.1636 3.26012 66.4797 3.79102 65.9648C4.82024 64.9668 6.39948 64.5537 7.86719 64.7373H7.86816C10.4902 65.0665 13.0489 65.949 15.376 66.7617C21.1609 68.7831 26.9417 69.58 32.9766 68.7305L32.9863 68.7295C34.9007 68.4753 37.4694 68.1162 39.1611 67.4678L39.4873 67.334C39.6475 67.2635 39.7386 67.1922 39.8018 67.126C39.669 66.9947 39.5012 66.8404 39.2871 66.667C38.7788 66.2554 38.1185 65.8005 37.3379 65.2969C35.8425 64.3321 33.7929 63.124 31.9873 61.9121C30.15 60.679 28.316 59.2856 27.0596 57.7549C25.7989 56.219 24.956 54.3306 25.5996 52.248L25.6426 52.1055L25.7188 51.9785C26.138 51.2732 26.8092 50.9262 27.4805 50.8057Z" fill="#76A04E" stroke="#074221" stroke-width="2.5"/>
<path d="M105.657 8.02539C106.386 8.12788 106.993 8.50994 107.429 8.89062C108.17 9.53817 108.739 10.4541 109.188 11.4912C109.64 12.5364 109.997 13.7663 110.283 15.1035C110.856 17.7768 111.168 20.986 111.351 24.2334C111.533 27.4863 111.587 30.8173 111.635 33.7354C111.683 36.6751 111.725 39.1595 111.877 40.7832C112.397 46.0754 113.38 51.3124 114.818 56.4346L115.134 57.4756C116.798 62.7132 119.726 68.3617 122.689 72.9326C123.129 73.6099 123.646 74.2634 124.2 74.9521C124.369 75.1613 124.539 75.376 124.712 75.5928C125.231 73.8612 125.822 72.1155 126.58 70.4492C127.172 69.1484 128.202 67.4276 129.049 65.8574C129.942 64.2004 130.644 62.6935 130.811 61.582C131.102 59.6325 130.608 57.3025 129.797 54.8633C129.396 53.6577 128.93 52.458 128.469 51.2969C128.012 50.1461 127.553 49.0179 127.189 47.998L127.182 47.9746L127.175 47.9512C126.194 44.7102 125.404 41.0948 125.461 37.5996V37.5879L125.462 37.5771C125.483 37.0224 125.59 36.227 125.99 35.5938C126.203 35.2572 126.523 34.9284 126.986 34.7461C127.453 34.5624 127.955 34.5714 128.448 34.7139C129.695 35.0743 130.443 35.9034 130.927 36.7988C131.382 37.6412 131.652 38.6463 131.886 39.3799C132.232 40.4653 132.482 41.578 132.718 42.6504C132.897 43.465 133.067 44.2542 133.266 45.0244L133.476 45.7891L133.477 45.793C133.969 47.5054 134.654 49.1565 135.517 50.7178C136.061 51.0176 136.426 51.1569 136.669 51.2021C136.796 51.2259 136.863 51.2197 136.89 51.2148C136.91 51.2111 136.92 51.2056 136.936 51.1943C136.988 51.1547 137.108 51.0245 137.273 50.6348C137.435 50.2541 137.585 49.7632 137.783 49.1143L137.799 49.0605C138.826 45.6877 138.996 42.2454 138.926 38.7002C138.857 35.2164 138.544 31.4891 138.66 27.876L138.687 27.4736C138.781 26.4589 139.113 24.9451 139.714 23.7148C140.054 23.0176 140.539 22.2884 141.229 21.8418C141.995 21.3455 142.919 21.263 143.863 21.7354L143.885 21.7461L143.905 21.7578C144.633 22.1657 145.081 22.8466 145.364 23.5322C145.649 24.2215 145.804 25.0065 145.891 25.7637C146.064 27.2726 145.986 28.8915 145.962 29.8164C145.682 41.1884 142.895 52.361 137.802 62.5508L137.803 62.5518C133.202 71.9547 129.233 76.9615 131.195 87.3838L131.864 89.2852L131.876 89.3184L131.885 89.3516C132.055 89.9718 132.2 90.957 132.11 91.9951C132.021 93.0267 131.687 94.2403 130.768 95.1523C130.285 95.6314 129.727 95.9117 129.129 95.9824C128.544 96.0514 128.007 95.9105 127.563 95.7012C126.703 95.2952 126.029 94.5577 125.66 94.0264L125.58 93.9111L125.535 93.7783C125.347 93.2234 125.035 92.4132 124.722 91.5693C124.443 90.8179 124.158 90.0219 124.001 89.4502C123.552 88.6274 123.191 87.588 122.863 86.6426C122.503 85.6007 122.172 84.6463 121.775 83.9082C118.634 78.06 115.372 72.1606 112.358 66.2129L112.005 65.5127C111.188 63.8782 110.426 62.2168 109.722 60.5312C109.004 58.8392 108.364 57.1153 107.519 55.665C105.273 51.8113 101.554 49.6438 97.4121 47.5566C93.3517 45.5107 88.8184 43.5225 85.5576 39.9785C82.1884 36.3168 78.805 31.6789 79.0088 26.1426L79.0176 25.9062L79.1309 25.7002C79.7654 24.5378 80.6739 23.6855 81.8604 23.5566C83.0304 23.4296 84.1006 24.0481 84.9697 24.9609C85.9769 26.0188 86.7177 27.4849 87.333 28.873C87.9006 30.1537 88.3483 31.3306 88.8369 32.3496L89.0498 32.7764L89.0518 32.7812C89.8583 34.3623 90.8423 35.8483 91.9844 37.2109L92.4678 37.7695C94.917 40.5114 97.8172 42.4553 101.388 43.4297L101.694 43.5059C102.409 43.6692 103.132 43.7286 103.907 43.7568C104.449 43.7766 105.054 43.7823 105.675 43.8047C105.767 37.257 105.207 30.0971 104.334 23.665V23.6631L103.271 15.7295V15.7285C103.172 15.0209 103.037 14.366 102.906 13.5498C102.784 12.783 102.681 11.9566 102.709 11.1445V11.1436C102.722 10.7658 102.776 10.2946 102.928 9.83496C103.077 9.38147 103.351 8.85401 103.859 8.4834C104.384 8.10113 104.986 7.93122 105.657 8.02539Z" fill="#76A04E" stroke="#074221" stroke-width="2"/>
<path d="M86.3188 58.2213C87.3785 56.5848 88.8606 54.9956 89.9607 53.6485C91.0483 52.3167 92.3039 50.549 93.6866 49.1924C95.1107 47.7951 96.8743 46.6088 99.1601 46.5033C101.473 46.3967 103.254 47.5808 104.704 48.8624C105.429 49.5024 106.134 50.2255 106.789 50.876C107.462 51.5443 108.101 52.1552 108.762 52.662C109.467 53.202 110.251 53.6901 111.09 54.1934C111.91 54.6855 112.801 55.2033 113.626 55.7617C115.281 56.8829 116.899 58.3152 117.592 60.5482C118.28 62.7675 118.561 65.3425 118.202 67.7492C117.842 70.1549 116.823 72.5005 114.807 74.0714C112.681 75.7271 110.193 75.4185 108.054 74.8837C107.001 74.6202 105.83 74.2433 104.837 73.9646C103.787 73.6701 102.814 73.4468 101.899 73.3879C100.515 73.2988 99.2488 73.524 97.6436 73.6316C96.1348 73.7327 94.4544 73.7017 92.8187 72.866C91.119 71.9975 89.2769 70.9051 87.7789 69.5135C86.2757 68.1171 85.0495 66.3524 84.7358 64.1459C84.413 61.8748 85.2282 59.9055 86.3188 58.2213Z" fill="#FFE761" stroke="#074221" stroke-width="2.45744"/>
<path fill-rule="evenodd" clip-rule="evenodd" d="M95.2342 56.9897C96.611 55.3039 97.9387 53.1472 100.122 53.0414C102.266 52.9376 103.573 55.1934 105.283 56.503C107.076 57.8766 109.547 58.6164 110.21 60.7699C110.958 63.1991 110.797 66.3851 108.803 67.9414C106.87 69.4507 104.171 67.5574 101.711 67.4046C99.962 67.296 98.2241 67.9845 96.6593 67.1869C94.7101 66.1933 92.6091 64.7707 92.3072 62.611C92.0021 60.4277 93.8456 58.6902 95.2342 56.9897Z" fill="#FFAC22"/>
<path d="M25.9092 71.2174C27.3106 71.6562 28.763 72.4114 29.9626 72.9379C31.1485 73.4583 32.6847 74.0122 33.9481 74.7417C35.2495 75.4932 36.4666 76.5342 37.0044 78.1717C37.5482 79.8281 37.0479 81.3593 36.4107 82.6704C36.0923 83.3254 35.7105 83.9834 35.3706 84.5902C35.0215 85.2135 34.7073 85.7999 34.473 86.3821C34.2234 87.0024 34.027 87.6701 33.831 88.3802C33.6394 89.0746 33.4433 89.826 33.2044 90.5371C32.7249 91.9648 32.0124 93.428 30.5319 94.3813C29.0603 95.3287 27.2481 96.0516 25.4291 96.2766C23.6108 96.5014 21.7031 96.2352 20.1562 95.0888C18.5258 93.8805 18.2466 92.0134 18.2032 90.3536C18.1817 89.5358 18.2192 88.6096 18.2211 87.8327C18.223 87.0118 18.1897 86.2605 18.0477 85.5844C17.833 84.5619 17.4139 83.6887 17.0118 82.5454C16.634 81.471 16.3172 80.245 16.5936 78.8893C16.8808 77.4808 17.301 75.9237 18.0084 74.5559C18.7184 73.1833 19.7521 71.9372 21.2901 71.2643C22.8731 70.5717 24.4668 70.7658 25.9092 71.2174Z" fill="#FFE761" stroke="#074221" stroke-width="1.85101"/>
<path d="M101.169 108.254C101.79 109.276 102.273 110.517 102.724 111.484C103.17 112.439 103.811 113.603 104.191 114.728C104.584 115.887 104.77 117.176 104.219 118.467C103.662 119.772 102.533 120.44 101.439 120.9C100.893 121.129 100.305 121.327 99.7717 121.515C99.2236 121.709 98.7165 121.898 98.2607 122.128C97.7747 122.373 97.2956 122.677 96.7943 123.006C96.3041 123.328 95.781 123.682 95.2531 123.989C94.1929 124.605 92.9708 125.116 91.5533 124.904C90.1445 124.693 88.6481 124.162 87.4148 123.323C86.1821 122.484 85.1587 121.296 84.8283 119.764C84.4802 118.15 85.3119 116.858 86.1768 115.819C86.6029 115.307 87.1234 114.761 87.5418 114.287C87.984 113.786 88.3671 113.308 88.6434 112.818C89.0614 112.078 89.2743 111.319 89.6425 110.403C89.9885 109.543 90.4534 108.624 91.3506 107.943C92.2829 107.236 93.3766 106.509 94.544 106.053C95.7155 105.595 97.0164 105.387 98.3184 105.802C99.6586 106.229 100.529 107.204 101.169 108.254Z" fill="#FFE761" stroke="#074221" stroke-width="1.50666"/>
</svg>
