<svg width="220" height="220" viewBox="0 0 220 220" fill="none" xmlns="http://www.w3.org/2000/svg">
<path d="M98.8284 170.926C129.52 177.966 149.36 173.64 155.443 170.597C154.85 172.423 152.853 177.34 149.608 182.395C127.317 189.151 99.915 186.811 89.0001 184.797L98.8284 170.926Z" fill="#C5A062" stroke="#745B3C" stroke-width="3" stroke-linejoin="round"/>
<path d="M160.265 110.726C160.232 112.512 159.651 114.288 159.44 116.023C159.225 117.793 158.717 119.509 158.329 121.215C157.934 122.948 157.129 124.534 156.564 126.193C155.992 127.871 155.888 129.731 155.153 131.323C154.413 132.929 153.269 134.322 152.371 135.828C151.47 137.343 150.593 138.87 149.544 140.276C148.496 141.682 147.151 142.831 145.963 144.119C144.776 145.407 143.807 146.925 142.491 148.081C141.176 149.237 140.072 150.735 138.645 151.747C137.222 152.758 135.726 153.791 134.201 154.647C132.684 155.5 130.654 155.344 129.046 156.036C127.451 156.72 125.86 157.346 124.187 157.863C122.534 158.372 120.825 158.514 119.105 158.851C117.412 159.182 115.763 159.592 114.014 159.743C112.298 159.891 110.603 159.915 108.844 159.882C107.085 159.849 105.31 160.433 103.601 160.22C101.859 160.003 100.191 159.362 98.5115 158.968C96.8155 158.58 95.1415 158.101 93.497 157.533C91.8434 156.953 90.3319 156.084 88.7633 155.337C87.1825 154.585 85.3625 154.287 83.8787 153.377C82.3863 152.461 81.2458 151.009 79.8609 149.945C78.4759 148.88 77.0407 147.88 75.7719 146.676C74.5031 145.471 73.0835 144.388 71.9447 143.053C70.8059 141.718 70.0051 140.105 69.0085 138.655C68.0118 137.206 66.9285 135.818 66.0826 134.27C65.2419 132.731 64.3891 131.171 63.7079 129.54C63.0319 127.921 62.2467 126.3 61.7371 124.602C61.2345 122.924 60.529 121.223 60.1979 119.478C59.8721 117.758 60.4077 115.871 60.2586 114.096C60.113 112.354 60.2326 110.607 60.2655 108.82C60.2985 107.033 59.5618 105.197 59.7715 103.464C59.9865 101.694 61.1114 100.087 61.5014 98.3797C61.8966 96.6464 62.6333 95.069 63.1983 93.4102C63.7703 91.7324 64.3423 90.1204 65.0773 88.5292C65.8174 86.9241 66.1259 85.1128 67.0221 83.6048C67.9234 82.0898 69.1073 80.776 70.1559 79.3702C71.2046 77.9645 71.7073 76.044 72.8946 74.7561C74.0819 73.4682 76.259 73.2117 77.5729 72.0556C78.8867 70.8994 79.7274 69.1644 81.1539 68.1504C82.5805 67.1364 84.0521 66.1674 85.5774 65.3094C87.0941 64.4566 88.7199 63.7737 90.3267 63.0821C91.9214 62.3974 93.4017 61.2396 95.0743 60.723C96.7279 60.2134 98.5878 60.3261 100.309 59.9898C102.002 59.6588 103.786 59.9898 105.535 59.8408C107.251 59.6934 108.939 59.7247 110.699 59.7576C112.458 59.7905 114.136 59.917 115.843 60.1302C117.585 60.3469 119.419 59.865 121.1 60.2585C122.808 60.6589 124.518 61.1131 126.151 61.6868C127.805 62.2675 129.302 63.2485 130.869 63.9956C132.45 64.7478 133.778 65.9161 135.263 66.8261C136.756 67.7413 138.137 68.7345 139.52 69.7988C140.904 70.863 142.294 71.8718 143.563 73.0765C144.831 74.2812 145.809 75.7112 146.95 77.0441C148.09 78.377 149.175 79.6788 150.174 81.1261C151.172 82.5734 152.543 83.7469 153.389 85.2948C154.23 86.834 154.845 88.4858 155.526 90.1169C156.202 91.7358 157.308 93.2196 157.816 94.9182C158.318 96.5961 158.422 98.4144 158.754 100.16C159.079 101.879 159.618 103.609 159.768 105.386C159.913 107.128 160.3 108.936 160.267 110.721L160.265 110.726Z" fill="#684924"/>
<path d="M153.333 110C153.333 133.903 133.902 153.333 110 153.333C102.928 153.333 96.2718 151.635 90.3785 148.619C89.3212 148.099 88.2985 147.527 87.3105 146.903C74.9345 139.276 66.6665 125.583 66.6665 110C66.6665 86.0973 86.0972 66.6666 110 66.6666C118.164 66.6666 125.791 68.92 132.291 72.8546L137.785 76.772C147.284 84.728 153.333 96.6706 153.333 110Z" fill="#E5AD6A"/>
<path d="M144.703 118.237C144.6 118.237 144.497 118.228 144.396 118.209L126.503 115.008C126.05 114.927 125.648 114.67 125.385 114.293C125.122 113.916 125.02 113.45 125.101 112.997C125.181 112.544 125.438 112.142 125.816 111.879C126.193 111.616 126.659 111.514 127.111 111.595L145.005 114.796C145.43 114.873 145.811 115.106 146.073 115.45C146.336 115.793 146.46 116.223 146.422 116.653C146.385 117.084 146.187 117.485 145.869 117.777C145.551 118.07 145.135 118.235 144.703 118.237Z" fill="#AE834E"/>
<path d="M90.3786 148.619L85.7506 154.235C85.092 153.992 84.468 153.732 83.8786 153.368C83.4626 153.108 83.064 152.813 82.6826 152.484L87.3106 146.903C88.2986 147.527 89.3213 148.099 90.3786 148.619Z" fill="#392812"/>
<path d="M92.2679 146.348L90.3785 148.619C89.3212 148.099 88.2985 147.527 87.3105 146.903L89.5985 144.129C90.2052 143.401 91.2972 143.297 92.0425 143.904C92.7705 144.511 92.8745 145.603 92.2679 146.348ZM123.347 142.691C120.383 141.945 118.095 139.259 117.193 136.295C116.292 133.244 116.604 129.951 117.349 126.865C120.071 128.235 122.307 130.592 123.433 133.4C124.629 136.364 124.56 139.779 123.347 142.691Z" fill="#AE834E"/>
<path d="M144.684 74.2586V74.276L140.385 75.1426C139.779 75.264 139.224 75.5413 138.756 75.94L137.785 76.772L132.291 72.8546L134.735 66.4933C134.908 66.6146 135.081 66.7186 135.255 66.8226C136.763 67.7413 138.132 68.7293 139.519 69.804C140.905 70.8613 142.292 71.8666 143.557 73.08C143.956 73.4613 144.32 73.86 144.684 74.2586Z" fill="#392812"/>
<path d="M137.785 76.7719L129.743 83.6706L128.755 84.5199C128.373 84.8319 127.819 84.4506 128.009 83.9999L128.495 82.7519L132.291 72.8546L137.785 76.7719ZM84.6065 104.401L77.0665 108.336H66.7012C66.8225 104.956 67.3425 101.663 68.2092 98.5253L77.8985 102.668L84.6065 104.401Z" fill="#AE834E"/>
<path d="M182.763 115.182C170.3 72.9153 155.083 53.147 149.033 48.5462C150.857 47.6929 156.004 45.8699 161.999 45.4043C180.625 66.002 194.935 100.381 199.762 114.996L182.763 115.182Z" fill="#C5A062" stroke="#745B3C" stroke-width="3" stroke-linejoin="round"/>
<g opacity="0.9">
<path d="M40.5261 161.943C41.3499 157.215 43.5781 150.782 47.3801 147.544C48.6752 146.441 50.4645 147.128 51.1221 148.6C52.9376 152.665 52.9422 159.238 52.0013 163.424C54.8563 160.777 57.3309 158.779 60.8049 157.159C73.7015 151.148 70.0042 161.507 64.416 167.421C63.4443 168.449 62.4449 169.308 61.2961 170.157C61.1052 170.299 60.9112 170.439 60.7187 170.578C63.8 170.753 77.0277 174.674 71.3532 180.179C68.7585 182.696 60.1335 182.661 56.3515 182.347C59.5022 186.006 61.8089 191.005 61.5425 195.913C61.3393 199.648 57.9931 199.507 55.4261 198.036C50.9942 195.496 47.4725 191.573 45.369 186.932C44.3958 189.016 43.3641 191.349 41.8842 193.172C39.8747 195.648 32.4539 202.639 30.4182 196.611C30.1564 195.837 29.9824 193.785 30.0532 192.953C30.3212 192.264 30.4628 189.739 30.4798 188.92C30.6984 188.514 31.2004 186.981 31.3667 186.489C31.878 184.98 32.2784 184.14 33.0622 182.773C33.3517 182.568 33.8106 181.407 35.4598 180.342C33.3578 180.349 30.1302 180.735 28.4933 180.667C25.1209 180.018 22.574 179.728 19.4202 178.118C16.9888 176.877 14.2046 173.208 17.5246 171.389C21.3713 169.281 28.3994 168.553 32.7172 169.128C32.0705 168.273 31.4191 167.449 30.7277 166.639C28.096 163.552 25.7723 158.876 25.9094 154.748C25.9648 153.072 27.7126 152.412 29.1678 152.791C33.9415 154.036 37.8574 157.74 40.4429 161.811L40.5261 161.943Z" fill="#245561"/>
<path d="M44.2691 176.285C44.3939 176.964 44.2183 177.345 44.2168 177.982C44.2076 180.75 44.1336 182.838 43.2159 185.516C41.5605 190.347 37.2826 194.811 32.7153 197.017C31.0738 187.543 36.3972 180.774 44.2691 176.285Z" fill="#739FA4"/>
<path d="M55.0533 172.498C60.4368 172.192 66.3607 173.93 70.3275 177.666C67.548 178.988 65.192 179.335 62.1784 179.547C57.5756 179.848 49.9085 179.593 46.9088 175.463C46.7579 174.559 47.6757 174.533 48.4148 174.142C50.6846 172.941 52.5217 172.638 55.0533 172.498Z" fill="#739FA4"/>
<path d="M49.0738 149.948C50.4489 151.768 50.0393 160.839 49.4464 163.137C48.7026 166.031 46.844 172.284 44.2462 173.992L43.9305 173.918C40.301 168.044 43.9105 154.156 49.0738 149.948Z" fill="#739FA4"/>
<path d="M46.2622 178.213C53.8985 181.554 59.5884 187.97 58.6522 196.746C52.337 194.197 45.4476 185.362 46.2622 178.213Z" fill="#739FA4"/>
<path d="M28.1173 171.572C33.6671 170.874 37.8017 171.999 42.2012 175.25C38.758 176.867 37.3305 177.31 33.587 177.648C29.9898 177.9 26.5589 177.778 23.182 176.353C22.0517 175.876 20.2269 175.371 19.537 174.339C19.4754 172.47 26.6698 171.681 28.1173 171.572Z" fill="#739FA4"/>
<path d="M65.8724 158.141C66.2528 158.1 66.8364 158.006 67.1043 158.26C66.8718 159.094 66.5407 159.603 66.1681 160.36C63.7643 165.235 59.428 169.469 53.7873 169.95C52.965 170.02 51.981 170.207 51.1402 170.329L50.0762 170.547C50.2594 170.096 50.7291 168.844 50.9647 168.474C53.8027 164.022 60.9617 159.493 65.8724 158.141Z" fill="#739FA4"/>
<path d="M28.082 155.006C32.3075 156.028 38.6796 161.966 40.0255 166.233C40.3273 167.19 40.5167 170.028 40.6476 171.195C34.3201 169.197 29.1892 161.282 28.082 155.006Z" fill="#739FA4"/>
<circle cx="44.3334" cy="175.642" r="4.92766" fill="#ACEB7C" stroke="#245561" stroke-width="2.46383"/>
</g>
<g opacity="0.9">
<path d="M149.526 29.943C150.35 25.2149 152.578 18.7821 156.38 15.5436C157.675 14.4409 159.465 15.1278 160.122 16.6004C161.938 20.6651 161.942 27.2375 161.001 31.4244C163.856 28.7768 166.331 26.7788 169.805 25.1595C182.702 19.148 179.004 29.5067 173.416 35.4209C172.444 36.449 171.445 37.3084 170.296 38.1569C170.105 38.2986 169.911 38.439 169.719 38.5783C172.8 38.7532 186.028 42.6738 180.353 48.1787C177.758 50.6963 169.134 50.6607 165.352 50.3474C168.502 54.0057 170.809 59.0047 170.543 63.9129C170.339 67.6484 166.993 67.507 164.426 66.0361C159.994 63.4956 156.473 59.5733 154.369 54.9319C153.396 57.0159 152.364 59.3485 150.884 61.1722C148.875 63.6476 141.454 70.6392 139.418 64.6113C139.156 63.8368 138.982 61.7851 139.053 60.9534C139.321 60.264 139.463 57.7389 139.48 56.9201C139.698 56.5143 140.2 54.9811 140.367 54.4891C140.878 52.9803 141.278 52.1404 142.062 50.7725C142.352 50.5677 142.811 49.4066 144.46 48.342C142.358 48.3486 139.13 48.7354 137.493 48.6666C134.121 48.0184 131.574 47.7278 128.42 46.118C125.989 44.8767 123.205 41.2079 126.525 39.3885C130.371 37.2812 137.399 36.5528 141.717 37.1283C141.07 36.2735 140.419 35.4487 139.728 34.6389C137.096 31.5522 134.772 26.876 134.909 22.7475C134.965 21.0718 136.713 20.4121 138.168 20.7912C142.941 22.0359 146.857 25.7401 149.443 29.8109L149.526 29.943Z" fill="#245561"/>
<path d="M153.269 44.285C153.394 44.9643 153.218 45.3451 153.217 45.9822C153.208 48.7498 153.134 50.8381 152.216 53.5159C150.56 58.3469 146.283 62.811 141.715 65.0169C140.074 55.5432 145.397 48.7738 153.269 44.285Z" fill="#739FA4"/>
<path d="M164.053 40.498C169.437 40.1919 175.361 41.9301 179.327 45.6659C176.548 46.9882 174.192 47.3345 171.178 47.5466C166.576 47.8483 158.909 47.5932 155.909 43.4629C155.758 42.5587 156.676 42.5331 157.415 42.1422C159.685 40.9414 161.522 40.6385 164.053 40.498Z" fill="#739FA4"/>
<path d="M158.074 17.9479C159.449 19.7683 159.039 28.8394 158.446 31.1374C157.703 34.0308 155.844 40.2837 153.246 41.9918L152.931 41.9182C149.301 36.0439 152.91 22.1559 158.074 17.9479Z" fill="#739FA4"/>
<path d="M155.262 46.2129C162.899 49.5535 168.588 55.9698 167.652 64.7465C161.337 62.1965 154.448 53.3615 155.262 46.2129Z" fill="#739FA4"/>
<path d="M137.117 39.572C142.667 38.874 146.802 39.9995 151.201 43.2502C147.758 44.8671 146.33 45.3099 142.587 45.6481C138.99 45.8997 135.559 45.7779 132.182 44.3526C131.052 43.8758 129.227 43.3712 128.537 42.3389C128.475 40.4701 135.67 39.6815 137.117 39.572Z" fill="#739FA4"/>
<path d="M174.872 26.1407C175.253 26.1003 175.836 26.0056 176.104 26.2599C175.872 27.0942 175.541 27.6034 175.168 28.3597C172.764 33.235 168.428 37.4691 162.787 37.9501C161.965 38.0202 160.981 38.2065 160.14 38.3292L159.076 38.5467C159.259 38.0961 159.729 36.8442 159.965 36.4741C162.803 32.0221 169.962 27.4927 174.872 26.1407Z" fill="#739FA4"/>
<path d="M137.082 23.0056C141.308 24.0281 147.68 29.9656 149.025 34.233C149.327 35.1905 149.517 38.0282 149.648 39.1948C143.32 37.1974 138.189 29.2821 137.082 23.0056Z" fill="#739FA4"/>
<circle cx="153.333" cy="43.6422" r="4.92766" fill="#ACEB7C" stroke="#245561" stroke-width="2.46383"/>
</g>
<g opacity="0.9">
<path d="M48.0218 33.4281C50.909 28.7026 56.0257 22.7426 61.4782 20.8775C63.3353 20.2426 64.9648 21.7379 65.0466 23.597C65.2731 28.7286 62.4937 35.7845 59.7102 39.8794C63.8959 38.2474 67.3983 37.1514 71.8128 36.8852C88.2009 35.8969 79.8444 45.4482 71.3412 49.4281C69.8628 50.12 68.4261 50.6189 66.8337 51.0429C66.5687 51.1141 66.301 51.1826 66.0354 51.2505C69.2684 52.7436 81.8042 62.5553 73.3818 66.0595C69.5304 67.6623 60.2887 63.9702 56.3624 62.0316C58.194 67.2927 58.552 73.6352 56.1867 78.7901C54.386 82.7132 50.8546 81.1438 48.7227 78.4777C45.0425 73.8735 42.9244 68.1719 42.6331 62.2994C40.7057 64.1237 38.6102 66.1901 36.2494 67.5205C33.0439 69.3259 22.1175 73.6859 22.4864 66.3539C22.5335 65.4119 23.216 63.1361 23.6443 62.2735C24.224 61.6471 25.4457 58.997 25.8108 58.1254C26.2174 57.7826 27.4057 56.3496 27.7926 55.8921C28.9805 54.4893 29.766 53.7576 31.1868 52.6215C31.5842 52.5243 32.5687 51.4726 34.7898 51.0286C32.531 50.1452 28.9031 49.193 27.1754 48.4257C23.8306 46.3014 21.2201 44.9105 18.5173 41.8467C16.4336 39.4844 14.9997 34.3673 19.3337 33.8211C24.355 33.189 32.2065 35.3847 36.5969 37.8316C36.2649 36.6402 35.9152 35.479 35.5162 34.317C33.9994 29.8892 33.4866 23.886 35.3827 19.5132C36.1521 17.7382 38.3074 17.7706 39.7086 18.794C44.3046 22.1522 46.9382 27.7868 47.9885 33.251L48.0218 33.4281Z" fill="#245561"/>
<path d="M45.9631 50.4065C45.8092 51.1884 45.4594 51.5227 45.1879 52.2058C44.0055 55.1723 43.0415 57.3822 40.922 59.8675C37.0987 64.351 30.6163 67.3299 24.7798 67.7625C27.0315 56.8993 35.6128 51.8893 45.9631 50.4065Z" fill="#739FA4"/>
<path d="M59.1415 50.9107C65.049 52.8628 70.6706 57.238 73.3453 62.928C69.802 63.1697 67.1266 62.5432 63.8024 61.4941C58.7347 59.8679 50.6139 56.3461 49.1442 50.6424C49.3653 49.608 50.3612 49.9694 51.3201 49.8629C54.2649 49.5357 56.3649 49.9889 59.1415 50.9107Z" fill="#739FA4"/>
<path d="M62.2773 24.1754C62.9819 26.7118 58.6994 36.2739 57.0896 38.489C55.0655 41.2794 50.4217 47.2029 46.91 47.9356L46.6024 47.7228C45.1955 39.8806 54.9531 26.5044 62.2773 24.1754Z" fill="#739FA4"/>
<path d="M47.2855 53.32C54.0661 60.1405 57.4546 69.4373 52.7315 78.4603C47.0341 73.0482 43.3828 60.6473 47.2855 53.32Z" fill="#739FA4"/>
<path d="M30.6248 38.5055C36.8769 40.1075 40.8375 43.0671 44.1822 48.4197C39.8017 48.6964 38.0821 48.567 33.9211 47.344C29.9538 46.0901 26.3231 44.5059 23.3026 41.5455C22.2915 40.555 20.5468 39.2403 20.2437 37.8401C20.9693 35.8083 29.0249 38.0098 30.6248 38.5055Z" fill="#739FA4"/>
<path d="M76.8359 40.0851C77.2612 40.2029 77.9277 40.3485 78.1076 40.7349C77.5045 41.5318 76.9335 41.9381 76.2131 42.5919C71.5679 46.806 65.1201 49.5132 58.8624 47.6399C57.9502 47.3667 56.8152 47.1498 55.8608 46.9254L54.6267 46.7079C55.0142 46.302 56.0487 45.1573 56.4583 44.86C61.3903 41.2841 70.9926 39.4558 76.8359 40.0851Z" fill="#739FA4"/>
<path d="M37.6052 20.7106C41.7071 23.5981 46.0306 32.6701 45.6672 37.8202C45.5855 38.9758 44.5866 42.1016 44.2328 43.4091C38.288 38.5848 36.1345 27.9159 37.6052 20.7106Z" fill="#739FA4"/>
<circle cx="46.3046" cy="49.7439" r="5.68577" transform="rotate(21.5406 46.3046 49.7439)" fill="#ACEB7C" stroke="#245561" stroke-width="2.84288"/>
</g>
<g opacity="0.9">
<path d="M157.947 162.186C157.267 157.435 157.394 150.628 160.007 146.372C160.897 144.922 162.811 145.022 163.892 146.218C166.877 149.521 168.916 155.769 169.317 160.042C171.212 156.64 172.947 153.974 175.749 151.359C186.151 141.65 185.842 152.645 182.359 159.998C181.754 161.277 181.07 162.403 180.24 163.566C180.102 163.76 179.961 163.953 179.821 164.145C182.805 163.358 196.597 162.99 192.906 169.982C191.218 173.179 183.006 175.815 179.312 176.688C183.441 179.191 187.182 183.231 188.448 187.98C189.412 191.595 186.186 192.497 183.29 191.893C178.289 190.849 173.726 188.21 170.289 184.448C170.009 186.731 169.75 189.268 168.907 191.46C167.763 194.436 162.871 203.382 159.069 198.28C158.581 197.625 157.78 195.728 157.59 194.915C157.631 194.177 156.984 191.732 156.747 190.948C156.829 190.494 156.832 188.881 156.838 188.362C156.857 186.769 156.977 185.846 157.299 184.303C157.511 184.018 157.588 182.772 158.826 181.249C156.83 181.906 153.88 183.273 152.303 183.715C148.895 184.143 146.383 184.655 142.886 184.101C140.19 183.673 136.407 181.046 139 178.289C142.006 175.094 148.463 172.225 152.747 171.436C151.867 170.823 150.992 170.241 150.084 169.685C146.626 167.564 142.969 163.837 141.821 159.869C141.355 158.259 142.813 157.09 144.314 157C149.238 156.706 154.109 159.016 157.827 162.086L157.947 162.186Z" fill="#245561"/>
<path d="M165.947 174.664C166.276 175.272 166.227 175.688 166.422 176.294C167.271 178.929 167.847 180.937 167.803 183.768C167.725 188.874 165.039 194.443 161.379 197.955C156.885 189.455 159.851 181.37 165.947 174.664Z" fill="#739FA4"/>
<path d="M175.029 167.725C180.053 165.767 186.224 165.586 191.152 167.91C188.919 170.028 186.786 171.086 183.986 172.221C179.703 173.933 172.333 176.064 168.202 173.065C167.779 172.252 168.644 171.944 169.225 171.343C171.012 169.499 172.665 168.642 175.029 167.725Z" fill="#739FA4"/>
<path d="M162.362 148.134C164.233 149.439 166.652 158.191 166.799 160.56C166.988 163.541 167.157 170.063 165.215 172.491L164.892 172.519C159.622 168.057 158.755 153.734 162.362 148.134Z" fill="#739FA4"/>
<path d="M168.439 175.88C176.734 176.693 184.131 181.032 185.958 189.668C179.164 189.198 169.877 182.93 168.439 175.88Z" fill="#739FA4"/>
<path d="M149.129 175.184C154.19 172.802 158.47 172.592 163.66 174.321C160.887 176.924 159.666 177.787 156.212 179.268C152.869 180.621 149.569 181.567 145.917 181.257C144.694 181.154 142.803 181.239 141.827 180.471C141.19 178.713 147.787 175.736 149.129 175.184Z" fill="#739FA4"/>
<path d="M180.871 150.723C181.22 150.567 181.746 150.296 182.079 150.455C182.117 151.32 181.959 151.907 181.839 152.742C181.063 158.122 178.251 163.49 173.036 165.694C172.276 166.015 171.398 166.497 170.636 166.874L169.692 167.41C169.727 166.925 169.786 165.589 169.895 165.164C171.215 160.052 176.62 153.529 180.871 150.723Z" fill="#739FA4"/>
<path d="M143.967 159.442C148.301 159.106 156.199 162.779 158.8 166.42C159.383 167.237 160.442 169.877 160.927 170.946C154.292 171.005 146.963 165.067 143.967 159.442Z" fill="#739FA4"/>
<circle cx="165.809" cy="174.033" r="4.92766" transform="rotate(-18.0351 165.809 174.033)" fill="#ACEB7C" stroke="#245561" stroke-width="2.46383"/>
</g>
<g opacity="0.9">
<path d="M179.48 68.271C179.101 65.6192 179.172 61.8199 180.63 59.444C181.127 58.635 182.195 58.6903 182.799 59.3583C184.465 61.2019 185.603 64.6895 185.827 67.0742C186.885 65.1757 187.853 63.6876 189.417 62.2277C195.223 56.8085 195.051 62.9453 193.107 67.05C192.769 67.7636 192.387 68.3925 191.924 69.0413C191.847 69.1495 191.768 69.2576 191.69 69.3647C193.356 68.9251 201.054 68.72 198.993 72.6224C198.051 74.407 193.467 75.8786 191.406 76.3659C193.71 77.7631 195.799 80.0177 196.505 82.6688C197.043 84.6865 195.243 85.1898 193.626 84.8527C190.835 84.2702 188.288 82.797 186.369 80.6971C186.213 81.9713 186.068 83.3877 185.598 84.6113C184.959 86.2724 182.229 91.2656 180.107 88.4181C179.834 88.0523 179.387 86.9934 179.281 86.5397C179.304 86.1275 178.943 84.7628 178.81 84.3253C178.856 84.0722 178.858 83.1716 178.861 82.8818C178.872 81.9926 178.939 81.4777 179.119 80.6162C179.237 80.4575 179.28 79.7619 179.971 78.9119C178.857 79.2786 177.21 80.0417 176.33 80.288C174.428 80.5268 173.026 80.8127 171.074 80.5033C169.569 80.2647 167.457 78.7986 168.905 77.2592C170.582 75.476 174.186 73.8749 176.578 73.4341C176.087 73.0922 175.598 72.767 175.091 72.4567C173.161 71.2732 171.12 69.1928 170.479 66.9779C170.219 66.079 171.033 65.4268 171.87 65.3765C174.619 65.2122 177.338 66.5015 179.413 68.2153L179.48 68.271Z" fill="#245561"/>
<path d="M183.946 75.2363C184.129 75.5753 184.102 75.8077 184.211 76.1461C184.684 77.6167 185.006 78.7378 184.982 80.3177C184.938 83.1678 183.439 86.2764 181.396 88.2365C178.888 83.4919 180.543 78.9791 183.946 75.2363Z" fill="#739FA4"/>
<path d="M189.015 71.3627C191.819 70.2699 195.264 70.1688 198.015 71.466C196.768 72.6482 195.577 73.2391 194.014 73.8725C191.624 74.828 187.51 76.0176 185.204 74.3438C184.968 73.89 185.451 73.7178 185.775 73.3826C186.773 72.353 187.695 71.8747 189.015 71.3627Z" fill="#739FA4"/>
<path d="M181.945 60.4274C182.989 61.156 184.339 66.0413 184.422 67.3634C184.527 69.0276 184.621 72.6676 183.537 74.0231L183.357 74.0385C180.416 71.548 179.931 63.5531 181.945 60.4274Z" fill="#739FA4"/>
<path d="M185.336 75.9151C189.967 76.3685 194.095 78.7907 195.115 83.6107C191.323 83.3487 186.139 79.8501 185.336 75.9151Z" fill="#739FA4"/>
<path d="M174.558 75.526C177.383 74.1964 179.772 74.0793 182.669 75.0444C181.121 76.4975 180.44 76.9793 178.511 77.8057C176.646 78.5609 174.804 79.0891 172.765 78.9162C172.083 78.8585 171.027 78.906 170.482 78.4773C170.127 77.4961 173.809 75.8342 174.558 75.526Z" fill="#739FA4"/>
<path d="M192.276 61.8729C192.471 61.7858 192.764 61.6346 192.95 61.7233C192.971 62.2063 192.884 62.5338 192.816 62.9995C192.383 66.0025 190.813 68.9992 187.903 70.2292C187.478 70.4085 186.988 70.6775 186.563 70.8879L186.036 71.1872C186.055 70.9164 186.088 70.1708 186.149 69.9336C186.886 67.0803 189.903 63.4391 192.276 61.8729Z" fill="#739FA4"/>
<path d="M171.677 66.7394C174.096 66.5519 178.504 68.6021 179.956 70.6344C180.282 71.0904 180.873 72.5638 181.144 73.1604C177.44 73.1937 173.349 69.8793 171.677 66.7394Z" fill="#739FA4"/>
<circle cx="183.869" cy="74.884" r="2.75051" transform="rotate(-18.0351 183.869 74.884)" fill="#ACEB7C" stroke="#245561" stroke-width="1.37526"/>
</g>
</svg>
