<svg width="225" height="179" viewBox="0 0 225 179" fill="none" xmlns="http://www.w3.org/2000/svg">
<path d="M29.4482 63.707C29.8874 63.6538 30.2925 63.6567 30.8115 63.7715L33.2832 64.3184L32.5322 66.7363C31.3349 70.5896 30.2428 74.2753 29.5615 78.0615L29.2139 79.9941L27.25 79.9775C24.5104 79.9539 22.8631 80.08 21.3467 81.0938C19.2217 82.5146 18.4826 84.7036 18.2178 87.4014C18.0306 89.3091 17.975 91.6958 18.3477 93.9238C18.7266 96.1892 19.4963 97.9868 20.6963 99.0811C22.2028 100.455 24.0265 100.928 26.8379 101.132L27.4131 101.169L29.2412 101.274L29.5693 103.075C30.233 106.708 31.7085 110.311 33.1768 114.172L34.5186 117.7L30.7627 117.316C28.0004 117.034 25.2165 116.684 22.4346 116.108L22.4141 116.104L22.3936 116.1C18.8433 115.298 14.6918 114.287 11.3467 112.175C5.91666 108.746 3.86291 103.56 3.16504 98.6133C2.59404 94.566 2.40962 89.1807 3.20996 83.9453C4.00234 78.7623 5.81258 73.3837 9.52637 69.7295C12.1429 67.1549 15.6598 65.8181 19.1221 65.0371C22.592 64.2544 26.3032 63.9705 29.4482 63.7061V63.707Z" fill="#3C3550" stroke="#0B100E" stroke-width="4.65698"/>
<path d="M195.552 63.707C195.113 63.6538 194.708 63.6567 194.188 63.7715L191.717 64.3184L192.468 66.7363C193.665 70.5896 194.757 74.2753 195.438 78.0615L195.786 79.9941L197.75 79.9775C200.49 79.9539 202.137 80.08 203.653 81.0938C205.778 82.5146 206.517 84.7036 206.782 87.4014C206.969 89.3091 207.025 91.6958 206.652 93.9238C206.273 96.1892 205.504 97.9868 204.304 99.0811C202.797 100.455 200.973 100.928 198.162 101.132L197.587 101.169L195.759 101.274L195.431 103.075C194.767 106.708 193.291 110.311 191.823 114.172L190.481 117.7L194.237 117.316C197 117.034 199.784 116.684 202.565 116.108L202.586 116.104L202.606 116.1C206.157 115.298 210.308 114.287 213.653 112.175C219.083 108.746 221.137 103.56 221.835 98.6133C222.406 94.566 222.59 89.1807 221.79 83.9453C220.998 78.7623 219.187 73.3837 215.474 69.7295C212.857 67.1549 209.34 65.8181 205.878 65.0371C202.408 64.2544 198.697 63.9705 195.552 63.7061V63.707Z" fill="#3C3550" stroke="#0B100E" stroke-width="4.65698"/>
<circle cx="112.794" cy="89.6169" r="89" fill="#0B100E"/>
<path d="M111.307 36.4933C111.398 36.4862 111.49 36.4804 111.582 36.4758C126.543 35.8401 141.147 41.1607 152.192 51.2717C162.315 60.8426 168.3 73.9896 168.87 87.9097C169.244 98.7058 165.683 110.912 159.602 119.823C157.811 122.451 155.61 124.84 153.441 127.155C144.151 137.075 129.763 143.622 116.191 144.068L114.255 144.137C100.106 144.565 86.5324 139.771 76.2034 130.012C65.2819 119.692 58.7954 107.393 58.403 92.2197C58.0036 77.6937 63.3688 63.6001 73.3267 53.0171C83.5825 42.254 96.5349 36.8579 111.307 36.4933Z" fill="#65CB11"/>
<path d="M108.137 47.3097C110.575 47.2098 113.018 47.2557 115.452 47.4475C123.22 48.068 130.791 50.3219 137.356 54.5455C139.44 55.8866 141.476 57.3944 143.079 59.3055C143.587 59.9103 144.478 61.0736 144.318 61.8899C144.262 62.1766 144.154 62.3659 143.919 62.542C141.998 63.9808 135.621 62.4125 133.231 62.114C129.572 61.657 124.6 61.3574 121.551 63.8341C120.306 64.8514 119.526 66.3305 119.391 67.933C119.257 69.7125 120.071 72.2453 121.25 73.5749C125.342 78.1885 131.933 80.5694 137.517 82.9487C141.01 84.4366 144.575 86.028 147.295 88.7608C149.285 90.7608 150.23 93.1553 150.187 95.9673C150.163 97.6794 149.751 99.3131 149.116 100.897C147.305 105.41 143.37 107.61 139.562 110.213C138.485 110.948 137.38 111.688 136.453 112.612C134.618 114.438 134.485 116.17 134.466 118.635C134.454 120.313 133.843 121.283 132.667 122.429C131.271 123.789 129.59 124.777 127.845 125.619C121.749 128.56 115.534 128.814 108.913 128.73C107.587 128.59 106.268 128.534 104.946 128.328C100.121 127.57 94.7827 125.762 90.9042 122.707C89.4256 121.543 87.9042 119.956 87.7259 117.994C87.6781 117.469 87.7371 116.94 88.094 116.528C89.598 114.791 95.7102 116.351 97.8855 116.655C98.8876 116.8 99.9007 116.854 100.912 116.817C103.912 116.718 107.591 115.723 109.691 113.439C110.624 112.424 111.36 111.125 111.266 109.708C111.109 107.338 109.031 105.636 107.345 104.21C104.879 102.126 102.124 100.526 99.2897 99.0045C95.074 96.74 89.6566 93.8931 84.7179 95.3987C82.1872 96.1701 80.2015 98.1024 77.4738 98.2816C75.9052 98.3836 74.7132 98.0676 73.5355 97.0224C69.633 93.5622 68.3989 88.5562 68.0782 83.5616C67.5565 75.4378 71.3938 67.7422 76.6638 61.7979C82.0606 55.7104 91.124 50.4973 99.0193 48.5311C101.996 47.7898 105.081 47.4968 108.137 47.3097Z" fill="#AAFA1E"/>
<path d="M44.5881 137.423C43.7086 136.102 42.9769 134.648 42.2177 133.254C37.2369 124.108 33.3769 113.735 31.5163 103.476C27.8853 83.4562 32.818 58.4292 44.4645 41.6604C56.6847 24.0654 75.7675 10.8717 96.9733 7.08893C113.669 4.01055 130.9 5.91325 146.522 12.5599C150.091 14.0541 153.996 15.7749 157.179 17.9928C157.302 19.8132 157.062 21.4178 156.167 23.024C154.426 26.1491 151.598 27.3955 148.323 28.3245C146.742 27.1918 145.156 25.9293 143.445 25.0029C136.506 21.243 125.768 19.3008 117.938 18.7623C99.7412 17.511 81.4803 22.4129 67.6139 34.5274C63.4965 38.1248 60.0153 42.3141 56.7705 46.7017C54.6443 49.5767 52.5123 52.501 50.7303 55.6063C46.118 63.6432 43.6526 73.0475 43.0323 82.2588C42.3163 92.8903 43.6809 103.962 47.648 113.891C48.2321 115.353 48.9474 117.525 50.0226 118.657C50.2077 118.853 50.441 119.014 50.7175 119.003C51.0747 118.987 51.2765 118.864 51.4967 118.585C51.7263 118.295 51.7855 117.857 51.759 117.5C51.6612 116.181 50.7486 114.723 50.2669 113.498C49.8983 112.558 49.6067 111.581 49.311 110.618C47.6834 105.313 46.5694 100.091 46.0412 94.5601C44.1739 75.0075 50.6535 58.9304 63.0002 44.0267C70.734 34.6909 81.9899 27.8638 93.6099 24.5906C95.7706 23.9819 98.0901 23.3263 100.328 23.1183C104.087 22.3461 107.881 22.3556 111.698 22.3552C114.085 22.3551 116.506 22.2843 118.89 22.4061C123.725 22.6532 130.507 23.6121 134.934 25.5116C134.948 27.0482 134.65 31.1953 135.147 32.38C135.463 32.5955 135.515 32.5738 135.903 32.5665C136.316 32.3685 136.508 32.162 136.676 31.7292C137.288 30.1445 137.072 27.5795 137.048 25.8677C139.866 27.0512 144.74 28.9766 146.995 30.9345L147.084 31.0484C145.886 34.1113 144.522 37.12 143.262 40.1598C139.53 37.8621 135.157 36.2507 130.967 35.0166C125.626 33.4437 120.235 32.8571 114.683 32.7468C103.481 32.524 94.465 34.1266 84.5594 39.5528C71.4633 46.6558 61.7144 58.6577 57.4465 72.9316C53.4517 86.2288 54.1447 100.495 59.4098 113.342C60.5507 116.122 61.947 118.746 63.3946 121.375C62.2124 123.28 60.8021 124.865 59.9379 126.979C59.4972 128.056 59.383 129.255 58.9729 130.348C58.9586 130.387 58.9435 130.424 58.929 130.462C57.1522 131.23 55.3123 131.569 53.3844 131.615C52.6592 131.631 51.8961 131.574 51.1775 131.666C48.3408 132.028 46.2405 135.356 44.5881 137.423Z" fill="#564769"/>
<path d="M159.429 19.7968C163.328 22.5188 167.191 25.1444 170.774 28.2846C184.444 40.2668 191.954 55.6317 195.124 73.3951C196.072 78.7179 196.717 84.1907 196.656 89.6058C196.476 105.402 190.86 125.692 181.773 138.683C173.563 150.418 159.151 160.447 146.333 166.569C143.135 168.097 139.741 169.368 136.454 170.693C134.672 170.662 132.308 171.57 130.483 171.891C126.958 172.521 123.402 172.965 119.831 173.222C109.236 174.086 96.6005 172.248 86.6338 168.558C84.7342 167.855 82.8053 167.127 80.953 166.304C78.6031 165.262 76.3235 164.126 73.9065 163.239C73.8628 163.205 73.8195 163.17 73.7753 163.137C71.8678 161.703 69.1745 160.729 67.0912 159.324C59.84 154.437 51.0514 146.398 46.0819 139.184C47.7579 136.883 49.5567 134.031 52.6142 133.592C54.9753 133.252 56.9544 133.537 59.3159 132.726C61.0308 136.397 64.2602 139.291 67.2443 141.94C68.2181 142.804 69.4558 143.701 70.1793 144.786C70.4182 145.145 70.5387 145.665 70.6664 146.076C73.1379 147.953 75.9338 149.526 78.5698 151.169C77.7973 153.984 76.9545 157.831 78.5272 160.521C78.8772 161.12 79.4726 161.834 80.2011 161.961C80.4601 162.007 80.5939 161.974 80.8354 161.891C81.0555 161.636 81.0961 161.586 81.1579 161.258C80.8878 160.369 80.3118 159.622 80.027 158.754C79.488 157.114 80.0123 153.901 80.5175 152.259C98.2385 160.95 118.678 162.279 137.376 155.955C142.07 154.337 146.705 152.205 150.82 149.406C152.298 148.401 153.679 147.25 155.116 146.186C156.829 144.92 158.566 143.697 160.208 142.335C167.407 136.433 173.242 129.041 177.315 120.669C186.046 102.745 186.455 83.8776 179.992 65.1626C178.366 60.4538 173.708 49.8918 170.104 46.7438C168.719 45.5331 167.014 44.8492 165.515 43.8151C164.597 43.1814 163.842 42.3377 163.095 41.5169C158.86 36.8612 158.447 33.9158 152.277 30.9573C151.619 30.6409 150.942 30.3677 150.249 30.1395C153.572 29.0346 156.568 26.9636 158.155 23.7718C158.79 22.494 159.166 21.1948 159.429 19.7968Z" fill="#564769"/>
<path d="M148.939 32.2806C151.878 33.7946 155.073 35.419 157.156 38.0656C158.454 39.7151 159.616 41.5489 161.091 43.0467C162.943 44.924 165.158 46.2387 167.19 47.879C169.951 50.1088 172.005 54.6741 173.5 57.8777C180.208 72.251 183.311 88.1912 179.843 103.874C179.119 107.147 178.037 110.307 176.89 113.453C173.921 121.598 169.509 129.112 163.335 135.244C161.394 137.172 159.261 138.92 157.182 140.697C152.449 144.742 147.997 148.02 142.321 150.651C128.655 156.827 113.366 158.452 98.707 155.287C94.717 154.437 90.8249 153.17 86.9978 151.769C85.4511 151.179 83.9234 150.527 82.3907 149.9C83.8713 147.198 84.9577 144.249 86.3091 141.474C87.8967 142.151 89.4355 142.918 91.0544 143.524C101.563 147.455 112.648 148.701 123.721 146.716C138.469 144.075 153.148 135.486 161.758 123.074C170.708 110.396 174.117 94.6223 171.203 79.3782C169.188 68.3382 164.006 57.6107 155.919 49.7299C152.632 46.527 149.014 43.9029 145.256 41.2994C146.167 38.2591 147.698 35.212 148.939 32.2806Z" fill="#564769"/>
<path d="M64.8052 123.37C65.7613 124.03 68.6608 127.743 69.6878 128.864C74.0573 133.632 78.7943 137.272 84.4123 140.461C83.0109 143.224 81.7811 146.126 80.5888 148.985C78.0819 147.846 74.5517 145.492 72.4223 143.755C71.1328 142.704 69.9568 141.471 68.7527 140.32C66.4485 138.117 63.7092 135.796 61.9681 133.108C61.5631 132.483 61.291 131.87 61.2287 131.121C61.0069 128.458 63.1896 125.315 64.8052 123.37Z" fill="#3C3550"/>
<path d="M134.376 103.203C132.187 102.812 130.041 102.172 128.11 101.131C126.178 100.09 124.464 98.6353 123.291 96.7915C122.118 94.9477 121.51 92.7029 121.763 90.4702C122.016 88.2375 123.171 86.0379 125.002 84.6458C126.389 83.5909 128.157 83.0226 129.837 83.2119C130.677 83.3066 131.488 83.5871 132.182 84.0405C132.876 84.4941 133.452 85.1212 133.831 85.8597C134.361 86.8955 134.488 88.0983 134.647 89.2666C134.805 90.4347 135.019 91.6362 135.688 92.585C136.141 93.2287 136.78 93.7193 137.464 94.116C138.147 94.5129 138.88 94.8237 139.592 95.1699C140.305 95.5162 141.005 95.9029 141.589 96.4299C142.174 96.9568 142.641 97.6366 142.8 98.4179C142.987 99.3294 142.734 100.326 142.195 101.126C141.656 101.927 140.849 102.536 139.965 102.916C138.197 103.677 136.218 103.533 134.376 103.203Z" fill="#65CB11"/>
<path d="M93.7761 112.804C97.3061 112.804 100.168 110.53 100.168 107.724C100.168 104.919 97.3061 102.645 93.7761 102.645C90.2459 102.645 87.3843 104.919 87.3843 107.724C87.3843 110.53 90.2459 112.804 93.7761 112.804Z" fill="#AAFA1E"/>
<path d="M135.622 77.2903C139.152 77.2903 142.013 75.016 142.013 72.2107C142.013 69.4053 139.152 67.131 135.622 67.131C132.091 67.131 129.23 69.4053 129.23 72.2107C129.23 75.016 132.091 77.2903 135.622 77.2903Z" fill="#AAFA1E"/>
<path d="M85.847 103.602C87.3221 103.602 88.5179 102.674 88.5179 101.53C88.5179 100.386 87.3221 99.4583 85.847 99.4583C84.3717 99.4583 83.1759 100.386 83.1759 101.53C83.1759 102.674 84.3717 103.602 85.847 103.602Z" fill="#AAFA1E"/>
<path d="M145.648 79.3623C147.123 79.3623 148.319 78.4346 148.319 77.2903C148.319 76.1461 147.123 75.2184 145.648 75.2184C144.173 75.2184 142.977 76.1461 142.977 77.2903C142.977 78.4346 144.173 79.3623 145.648 79.3623Z" fill="#AAFA1E"/>
<path d="M129.094 96.732C126.201 94.3005 125.327 91.9012 125.656 89.7013C125.964 87.64 127.314 86.0675 127.954 85.2765C130.037 82.7002 132.787 80.4334 135.535 78.3243C138.154 76.315 140.74 74.4708 142.957 72.5521L143.395 72.1673C159.686 57.6412 174.094 44.1886 189.057 28.3526L189.368 28.0249L189.816 27.9701C192.141 27.6886 194.179 29.2038 195.382 30.8576C196.006 31.7148 196.48 32.7 196.708 33.6945C196.933 34.6801 196.933 35.7698 196.475 36.7426L196.346 37.0145L196.109 37.1976C194.672 38.3108 192.265 40.6982 189.788 43.2518C187.362 45.7537 184.867 48.4176 183.392 49.9112L183.383 49.9202C168.182 65.0017 153.981 81.0636 140.838 98.0287L140.825 98.0446L140.811 98.0612C140.086 98.9343 138.952 99.2685 137.946 99.3834C136.895 99.5033 135.717 99.4159 134.598 99.2116C133.473 99.0061 132.347 98.6715 131.39 98.2562C130.527 97.8814 129.653 97.377 129.094 96.732Z" fill="url(#paint0_linear_3602_3674)" stroke="black" stroke-width="2.5"/>
<ellipse cx="4.43752" cy="2.11908" rx="4.43752" ry="2.11908" transform="matrix(-0.63749 -0.770458 0.756465 -0.654035 193.724 37.5941)" fill="#C1B06E"/>
<defs>
<linearGradient id="paint0_linear_3602_3674" x1="130.024" y1="95.972" x2="194.224" y2="31.3161" gradientUnits="userSpaceOnUse">
<stop stop-color="#65CB11"/>
<stop offset="0.24517" stop-color="#7A6F46"/>
<stop offset="1" stop-color="#7A6F46"/>
</linearGradient>
</defs>
</svg>
