<svg width="410" height="434" viewBox="0 0 410 434" fill="none" xmlns="http://www.w3.org/2000/svg">
<g clip-path="url(#clip0_3676_5083)">
<path d="M229.863 127.082L154.469 181.574L108.189 129.321L88.7805 59.8998L76.0906 121.856L107.442 217.404L147.005 233.826L198.511 284.586L201.497 377.894L264.946 430.147L231.355 374.908L251.51 284.586L218.666 233.826H251.51L314.213 259.953L334.368 303.994V252.488L308.241 217.404L207.469 188.292L244.792 153.208L293.312 127.082H229.863Z" fill="#5B3E24"/>
<path d="M321.651 242.117C320.713 242.222 319.906 242.85 318.933 242.827C317.667 242.983 316.113 242.693 315.102 243.725C314.074 244.831 314.417 246.459 314.167 247.823C314.091 248.765 313.166 249.473 312.235 249.323C310.717 249.293 309.111 248.758 307.667 249.484C306.726 249.913 305.541 250.612 305.573 251.79C305.688 252.855 306.044 255.407 306.832 255.814C309.85 257.1 311.193 258.67 314.213 259.953C318.125 268.464 323.749 276.657 327.674 285.161C328.212 286.103 333.103 284.957 333.166 283.729L332.371 253.419C332.187 252.508 331.05 249.714 330.581 248.94C328.247 245.856 327.051 243.936 324.601 240.944C324.393 240.718 321.954 242.115 321.651 242.117Z" fill="#FF8C01" fill-opacity="0.3" stroke="#FF8C01" stroke-opacity="0.65" stroke-width="4"/>
<path d="M217.978 365.364C215.667 365.344 214.143 367.377 212.878 369.036C211.527 370.916 209.664 372.53 207.33 372.985C206.47 373.241 203.949 372.542 203.78 373.734C203.82 374.746 202.93 377.114 204.018 377.669C216.591 387.983 230.128 401.056 242.78 411.273C243.66 411.833 248.327 414.045 249.431 414.112C250.374 414.154 250.539 410.262 249.918 409.493C243.505 398.696 237.864 385.649 231.355 374.908C231.568 373.594 230.617 372.505 230.595 371.174C230.274 369.984 226.681 370.768 225.79 370.519C223.514 370.142 222.371 367.946 220.769 366.556C220.022 365.82 219.055 365.3 217.978 365.364Z" fill="#FF8C01" fill-opacity="0.3" stroke="#FF8C01" stroke-opacity="0.65" stroke-width="4"/>
<path d="M228.199 129.663C228.984 130.397 229.061 132.309 228.41 133.182C228.29 134.099 229.018 134.942 228.838 135.888C228.886 137.675 227.522 139.054 226.055 139.853C224.871 140.566 223.327 141.528 223.51 143.132C223.592 144.247 224.759 144.849 225.78 144.737C227.033 144.913 228.593 144.308 229.555 145.406C230.736 147.002 229.694 148.991 229.789 150.762C229.822 152.134 231.027 153.1 232.285 153.376C233.87 153.813 235.438 154.215 236.983 154.76C237.815 154.611 240.429 156.498 241.095 156.024C242.395 154.905 244.6 152.93 245.984 151.932C256.204 146.389 266.573 139.697 276.736 134.051C277.425 133.616 277.337 130.32 276.898 129.264C276.084 128.806 272.179 128.154 271.265 128.04L230.823 129.579C228.702 129.545 227.04 128.58 228.199 129.663Z" fill="#FF8C01" fill-opacity="0.3" stroke="#FF8C01" stroke-opacity="0.65" stroke-width="4"/>
<path d="M93.114 58.6883L84.3718 58.9969L71.4421 122.124L103.809 220.768L144.469 237.647L194.071 286.528L197.065 380.073L262.087 433.62L268.792 427.809L236.143 374.12L256.313 283.725L226.938 238.327H250.61L310.854 263.429L330.276 305.866L338.868 303.995V250.997L310.946 213.501L216.305 186.161L247.444 156.891L295.446 131.044L293.311 122.581H228.407L227.227 123.434L155.135 175.54L112.243 127.112L93.114 58.6883ZM89.4558 79.0301L104.134 131.53L153.803 187.608L231.321 131.581H275.466L242.139 149.526L198.632 190.423L305.538 221.307L329.868 253.979V283.349L317.571 256.477L252.411 229.327H210.393L246.708 285.446L226.569 375.698L247.296 409.78L205.93 375.716L202.952 282.643L149.54 230.007L111.075 214.04L80.739 121.589L89.4558 79.0301Z" fill="#312114"/>
<path d="M203.4 188.32L271.063 192.854L322.835 167.519L405.448 192.853L336.122 199.049L289.789 231.406L217.577 233.97L267.623 314.43L331.751 336.421L361.967 406.081L306.586 360.175L234.177 346.001L185.075 270.403C167.857 306.719 154.305 327.238 154.305 327.238L76.098 356.977L23.2258 405.443L55.1701 338.252L121.259 297.497C121.259 297.497 137.684 270.245 147.162 236.585L103.635 210.478H58.4739L4.5 147.692L58.4739 176.332L114.651 170.823L151.494 183.104L158.6 140.859L181.139 90.4139L164.218 4.49641L210.481 94.8195L203.4 188.32Z" fill="#6D4A2C"/>
<path d="M174.652 31.02C173.621 30.9791 170.248 32.2307 170.639 32.9963C174.395 50.255 176.072 67.5903 179.762 84.8594C179.728 86.13 181.572 89.2366 181.139 90.4139C175.8 101.58 172.439 110.334 167.097 121.504C166.896 122.616 168.069 123.382 168.611 124.268C171.306 127.81 173.198 131.76 174.341 135.911C175.402 139.272 176.459 142.973 179.585 145.283C181.842 147.08 185.344 147.689 187.994 146.246C191.155 144.549 192.237 141.103 193.573 138.254C194.535 135.951 196.23 133.628 198.951 132.863C200.624 132.32 202.412 132.67 204.029 133.194C204.948 133.515 205.988 132.821 205.86 131.925C206.994 118.01 208.168 104.088 209.323 90.171C208.905 88.7165 207.868 87.4582 207.198 86.0837C196.951 67.9276 187.806 49.6925 177.559 31.5364C177.163 30.9475 175.326 31.0353 174.652 31.02Z" fill="#FF8C01" fill-opacity="0.3" stroke="#FF8C01" stroke-opacity="0.65" stroke-width="4.19924"/>
<path d="M232.263 230.694C229.897 227.875 228.629 224.157 228.779 220.48C228.93 216.802 230.497 213.201 233.086 210.584C236.047 207.591 240.32 205.944 244.524 206.175C248.728 206.407 252.795 208.512 255.41 211.811C258.026 215.111 259.147 219.55 258.413 223.696C257.678 227.842 255.1 231.626 251.51 233.826" fill="#FF8C01" fill-opacity="0.3"/>
<path d="M232.263 230.694C229.897 227.875 228.629 224.157 228.779 220.48C228.93 216.802 230.497 213.201 233.086 210.584C236.047 207.591 240.32 205.944 244.524 206.175C248.728 206.407 252.795 208.512 255.41 211.811C258.026 215.111 259.147 219.55 258.413 223.696C257.678 227.842 255.1 231.626 251.51 233.826" stroke="#FF8C01" stroke-opacity="0.65" stroke-width="4"/>
<path d="M125.623 295.646C124.073 295.873 123.663 297.749 122.855 298.835C122.185 300.024 121.51 301.258 120.192 301.82C98.8262 315.302 76.6536 324.954 55.17 338.252C53.9192 340.024 53.8323 345.665 52.8056 347.586C46.9774 359.95 40.9723 372.235 35.359 384.698C34.8188 385.842 35.8441 391.815 36.9814 391.261C39.618 389.482 44.1107 386.786 46.5234 384.72C55.759 376.347 65.2754 366.644 74.6033 358.378C99.1703 348.886 121.446 338.813 146.028 329.356C147.168 328.79 149.323 328.564 150.225 327.623C150.768 326.362 148.455 323.097 147.788 322.224C145.567 320.132 145.028 316.952 144.943 314.07C144.815 311.461 144.564 308.237 142.041 306.772C139.636 305.46 137.056 307.053 134.948 308.184C133.408 309.137 130.964 309.651 129.776 307.88C128.271 305.863 128.91 303.205 128.572 300.875C128.429 299.031 128.018 296.775 126.296 295.76C126.083 295.675 125.852 295.635 125.623 295.646Z" fill="#FF8C01" fill-opacity="0.3" stroke="#FF8C01" stroke-opacity="0.65" stroke-width="4"/>
<path d="M74.7519 174.786C72.1002 175.351 69.7238 177.099 68.3949 179.463C67.066 181.826 66.8069 184.764 67.7017 187.324C68.5966 189.883 70.6304 192.02 73.1423 193.04C75.6542 194.061 78.6022 193.947 81.0282 192.737C82.2853 192.11 83.3887 191.215 84.6066 190.514C85.2155 190.164 85.8564 189.862 86.5341 189.677C87.2119 189.493 87.9293 189.429 88.6203 189.555C89.3093 189.681 89.9543 189.991 90.5352 190.383C91.116 190.774 91.6378 191.246 92.1503 191.723C93.1752 192.678 94.2251 193.695 95.5639 194.107C96.261 194.321 97.0094 194.358 97.7285 194.236C98.4477 194.114 99.1375 193.836 99.7535 193.445C100.985 192.663 101.902 191.447 102.494 190.114C103.677 187.446 103.603 184.422 103.806 181.511C103.907 180.056 104.084 178.595 104.528 177.206C104.972 175.816 105.696 174.492 106.768 173.502C107.839 172.512 109.28 171.88 110.737 171.947C111.466 171.98 112.189 172.187 112.813 172.565C113.436 172.943 113.958 173.494 114.281 174.148C114.576 174.747 114.701 175.421 114.705 176.089C114.709 176.758 114.596 177.422 114.435 178.07C114.111 179.367 113.594 180.618 113.405 181.941C113.18 183.517 113.443 185.159 114.149 186.585C114.854 188.012 115.999 189.217 117.388 189.995C118.777 190.773 120.403 191.119 121.988 190.975C123.573 190.831 125.11 190.198 126.336 189.183C127.562 188.168 128.471 186.776 128.909 185.245C129.346 183.715 129.309 182.053 128.804 180.543C128.299 179.034 127.328 177.684 126.058 176.724C124.789 175.765 123.225 175.2 121.635 175.127" fill="#FF8C01" fill-opacity="0.3"/>
<path d="M74.7519 174.786C72.1002 175.351 69.7238 177.099 68.3949 179.463C67.066 181.826 66.8069 184.764 67.7017 187.324C68.5966 189.883 70.6304 192.02 73.1423 193.04C75.6542 194.061 78.6022 193.947 81.0282 192.737C82.2853 192.11 83.3887 191.215 84.6066 190.514C85.2155 190.164 85.8564 189.862 86.5341 189.677C87.2119 189.493 87.9293 189.429 88.6203 189.555C89.3093 189.681 89.9543 189.991 90.5352 190.383C91.116 190.774 91.6378 191.246 92.1503 191.723C93.1752 192.678 94.2251 193.695 95.5639 194.107C96.261 194.321 97.0094 194.358 97.7285 194.236C98.4477 194.114 99.1375 193.836 99.7535 193.445C100.985 192.663 101.902 191.447 102.494 190.114C103.677 187.446 103.603 184.422 103.806 181.511C103.907 180.056 104.084 178.595 104.528 177.206C104.972 175.816 105.696 174.492 106.768 173.502C107.839 172.512 109.28 171.88 110.737 171.947C111.466 171.98 112.189 172.187 112.813 172.565C113.436 172.943 113.958 173.494 114.281 174.148C114.576 174.747 114.701 175.421 114.705 176.089C114.709 176.758 114.596 177.422 114.435 178.07C114.111 179.367 113.594 180.618 113.405 181.941C113.18 183.517 113.443 185.159 114.149 186.585C114.854 188.012 115.999 189.217 117.388 189.995C118.777 190.773 120.403 191.119 121.988 190.975C123.573 190.831 125.11 190.198 126.336 189.183C127.562 188.168 128.471 186.776 128.909 185.245C129.346 183.715 129.309 182.053 128.804 180.543C128.299 179.034 127.328 177.684 126.058 176.724C124.789 175.765 123.225 175.2 121.635 175.127" stroke="#FF8C01" stroke-opacity="0.65" stroke-width="4"/>
<path d="M143.707 248.766C143.994 245.224 146.13 241.883 149.225 240.135C152.32 238.388 156.284 238.284 159.465 239.868C162.647 241.452 164.954 244.677 165.425 248.2C165.897 251.723 164.518 255.441 161.865 257.806C160.909 258.657 159.806 259.339 158.904 260.247C158.453 260.701 158.053 261.213 157.779 261.791C157.504 262.369 157.36 263.017 157.426 263.654C157.482 264.198 157.69 264.721 157.993 265.175C158.297 265.63 158.694 266.018 159.134 266.342C160.015 266.989 161.057 267.375 162.085 267.746C163.114 268.116 164.159 268.487 165.058 269.109C165.507 269.42 165.917 269.794 166.239 270.235C166.562 270.677 166.795 271.188 166.881 271.728C166.968 272.268 166.906 272.826 166.742 273.347C166.578 273.869 166.313 274.355 165.998 274.801C165.366 275.694 164.536 276.423 163.767 277.2C161.761 279.224 160.079 281.655 157.615 283.087C156.384 283.803 154.958 284.242 153.538 284.131C152.828 284.076 152.126 283.883 151.5 283.543C150.874 283.202 150.326 282.713 149.939 282.115C149.521 281.468 149.3 280.714 149.152 279.958C149.005 279.203 148.924 278.435 148.76 277.682C148.595 276.93 148.339 276.183 147.879 275.566C147.649 275.257 147.369 274.984 147.045 274.777C146.72 274.57 146.35 274.431 145.967 274.392C145.403 274.334 144.831 274.493 144.339 274.773C143.846 275.052 143.427 275.446 143.057 275.875C142.317 276.732 141.748 277.744 140.893 278.487C140.05 279.219 138.95 279.649 137.834 279.682C136.719 279.714 135.595 279.35 134.711 278.669C133.826 277.988 133.187 276.995 132.934 275.907C132.681 274.82 132.816 273.647 133.308 272.645" fill="#FF8C01" fill-opacity="0.3"/>
<path d="M143.707 248.766C143.994 245.224 146.13 241.883 149.225 240.135C152.32 238.388 156.284 238.284 159.465 239.868C162.647 241.452 164.954 244.677 165.425 248.2C165.897 251.723 164.518 255.441 161.865 257.806C160.909 258.657 159.806 259.339 158.904 260.247C158.453 260.701 158.053 261.213 157.779 261.791C157.504 262.369 157.36 263.017 157.426 263.654C157.482 264.198 157.69 264.721 157.993 265.175C158.297 265.63 158.694 266.018 159.134 266.342C160.015 266.989 161.057 267.375 162.085 267.746C163.114 268.116 164.159 268.487 165.058 269.109C165.507 269.42 165.917 269.794 166.239 270.235C166.562 270.677 166.795 271.188 166.881 271.728C166.968 272.268 166.906 272.826 166.742 273.347C166.578 273.869 166.313 274.355 165.998 274.801C165.366 275.694 164.536 276.423 163.767 277.2C161.761 279.224 160.079 281.655 157.615 283.087C156.384 283.803 154.958 284.242 153.538 284.131C152.828 284.076 152.126 283.883 151.5 283.543C150.874 283.202 150.326 282.713 149.939 282.115C149.521 281.468 149.3 280.714 149.152 279.958C149.005 279.203 148.924 278.435 148.76 277.682C148.595 276.93 148.339 276.183 147.879 275.566C147.649 275.257 147.369 274.984 147.045 274.777C146.72 274.57 146.35 274.431 145.967 274.392C145.403 274.334 144.831 274.493 144.339 274.773C143.846 275.052 143.427 275.446 143.057 275.875C142.317 276.732 141.748 277.744 140.893 278.487C140.05 279.219 138.95 279.649 137.834 279.682C136.719 279.714 135.595 279.35 134.711 278.669C133.826 277.988 133.187 276.995 132.934 275.907C132.681 274.82 132.816 273.647 133.308 272.645" stroke="#FF8C01" stroke-opacity="0.65" stroke-width="4"/>
<path d="M164.86 0.0457719C164.149 -0.0564597 163.423 0.0131392 162.744 0.248746C162.065 0.484353 161.453 0.879117 160.958 1.40001C160.463 1.92091 160.099 2.55279 159.899 3.2428C159.698 3.9328 159.665 4.66087 159.803 5.36608L176.448 89.8817L154.493 139.022C154.337 139.37 154.226 139.736 154.163 140.112L147.93 177.173L116.075 166.554C115.475 166.354 114.84 166.283 114.212 166.345L59.3854 171.722L6.60999 143.716C5.6834 143.224 4.61414 143.071 3.587 143.284C2.55986 143.497 1.63935 144.062 0.984543 144.882C0.329733 145.701 -0.0182454 146.724 0.000737534 147.773C0.0197205 148.821 0.404472 149.831 1.08851 150.626L55.0612 213.411C55.4834 213.903 56.0069 214.297 56.5958 214.568C57.1847 214.839 57.8251 214.979 58.4733 214.979H102.389L141.813 238.626C132.888 268.492 119.288 291.955 117.917 294.272L52.8073 334.423C52.0691 334.878 51.4783 335.538 51.1061 336.321L19.1627 403.511C18.7154 404.453 18.6096 405.522 18.8633 406.534C19.1171 407.546 19.7146 408.439 20.5538 409.059C21.3929 409.679 22.4215 409.989 23.4635 409.934C24.5056 409.88 25.4963 409.465 26.2662 408.761L78.5026 360.876L155.905 331.444C156.787 331.109 157.541 330.505 158.061 329.718C158.061 329.718 170.058 311.181 185.587 279.454L230.403 348.452C230.732 348.958 231.159 349.392 231.659 349.73C232.158 350.068 232.721 350.301 233.313 350.417L304.596 364.37L359.096 409.546C359.875 410.191 360.849 410.555 361.86 410.579C362.871 410.603 363.861 410.286 364.669 409.679C365.478 409.072 366.059 408.21 366.318 407.232C366.577 406.254 366.499 405.218 366.096 404.29L335.88 334.63C335.63 334.056 335.264 333.54 334.804 333.116C334.345 332.692 333.802 332.368 333.21 332.165L270.598 310.692L225.505 238.192L289.948 235.903C290.815 235.873 291.654 235.593 292.366 235.097L337.715 203.425L405.848 197.335C406.888 197.242 407.862 196.79 408.605 196.058C409.349 195.326 409.814 194.358 409.923 193.32C410.031 192.282 409.776 191.239 409.2 190.369C408.624 189.499 407.764 188.856 406.766 188.55L324.155 163.218C323.062 162.882 321.883 162.975 320.856 163.477L270.165 188.284L208.231 184.134L214.969 95.1591C215.032 94.333 214.865 93.5057 214.487 92.7684L168.223 2.44421C167.895 1.80493 167.418 1.25359 166.833 0.836314C166.248 0.419038 165.571 0.147964 164.86 0.0457719ZM174.829 35.0809L205.899 95.743L198.913 187.981C198.868 188.574 198.941 189.169 199.128 189.733C199.315 190.297 199.611 190.819 200.001 191.268C200.39 191.717 200.864 192.084 201.396 192.349C201.928 192.613 202.507 192.77 203.1 192.809L270.762 197.345C271.548 197.397 272.334 197.242 273.042 196.895L323.215 172.343L382.153 190.417L335.721 194.567C334.939 194.637 334.189 194.909 333.546 195.358L288.301 226.956L217.417 229.472C216.628 229.5 215.861 229.735 215.192 230.153C214.523 230.571 213.976 231.158 213.605 231.854C213.234 232.551 213.053 233.332 213.08 234.121C213.106 234.909 213.34 235.677 213.756 236.347L263.801 316.806C264.348 317.686 265.183 318.35 266.163 318.686L328.413 340.034L350.348 390.604L309.458 356.71C308.878 356.23 308.188 355.903 307.45 355.759L236.913 341.95L188.848 267.952C188.412 267.281 187.804 266.738 187.088 266.38C186.372 266.021 185.574 265.86 184.775 265.914C183.976 265.967 183.206 266.233 182.544 266.683C181.882 267.133 181.352 267.752 181.008 268.475C164.588 303.108 152.273 322.031 151.258 323.583L74.4987 352.77C73.9663 352.973 73.4772 353.274 73.0573 353.659L37.2018 386.526L58.6627 341.386L123.622 301.327C124.232 300.951 124.744 300.434 125.114 299.819C125.114 299.819 141.82 272.161 151.493 237.806C151.761 236.855 151.709 235.843 151.344 234.924C150.98 234.006 150.324 233.234 149.477 232.725L105.95 206.62C105.251 206.201 104.451 205.979 103.635 205.979H60.5397L23.4635 162.849L56.3639 180.307C57.1455 180.722 58.0321 180.898 58.9127 180.811L114.137 175.395L150.071 187.374C150.687 187.579 151.341 187.649 151.987 187.578C152.633 187.507 153.256 187.296 153.813 186.962C154.37 186.627 154.848 186.175 155.213 185.638C155.579 185.101 155.825 184.491 155.932 183.85L162.942 142.171L185.249 92.2489C185.628 91.4005 185.735 90.4555 185.555 89.5438L174.829 35.0809Z" fill="#312114"/>
<path d="M174.415 194.73C175.321 195.892 176.554 196.779 177.905 197.365C179.257 197.95 180.725 198.242 182.195 198.321C185.137 198.48 188.052 197.81 190.927 197.168C193.802 196.527 196.736 195.906 199.67 196.164C201.138 196.293 202.594 196.647 203.914 197.3C205.234 197.954 206.415 198.915 207.239 200.135C208.588 202.131 208.899 204.7 208.496 207.075C208.092 209.45 207.033 211.664 205.821 213.746C204.372 216.239 202.679 218.614 201.627 221.298C201.101 222.64 200.741 224.057 200.681 225.497C200.622 226.938 200.872 228.404 201.514 229.695C202.318 231.311 203.677 232.567 204.806 233.975C205.371 234.679 205.885 235.433 206.229 236.268C206.574 237.102 206.743 238.023 206.606 238.915C206.457 239.878 205.949 240.772 205.235 241.434C204.52 242.096 203.605 242.529 202.649 242.716C200.737 243.09 198.733 242.485 197.087 241.443C195.44 240.401 194.098 238.95 192.818 237.481C191.538 236.011 190.289 234.496 188.77 233.275C186.47 231.426 183.649 230.337 180.796 229.581C177.943 228.824 175.017 228.373 172.158 227.641C169.299 226.908 166.465 225.868 164.119 224.077C162.946 223.181 161.906 222.102 161.117 220.855C160.327 219.609 159.792 218.192 159.633 216.725C159.33 213.94 160.373 211.2 161.474 208.623C162.575 206.047 163.775 203.412 163.809 200.611C163.837 198.399 163.13 196.244 162.289 194.198C161.448 192.152 160.462 190.154 159.882 188.019C159.303 185.884 159.156 183.55 159.991 181.501C160.408 180.477 161.07 179.544 161.944 178.866C162.818 178.187 163.907 177.773 165.013 177.768C165.88 177.764 166.741 178.009 167.5 178.428C168.26 178.847 168.919 179.437 169.457 180.117C170.534 181.476 171.119 183.163 171.491 184.857C171.862 186.551 172.04 188.283 172.407 189.978C172.774 191.673 173.349 193.362 174.415 194.73Z" fill="#FF8C01" fill-opacity="0.3" stroke="#FF8C01" stroke-opacity="0.65" stroke-width="4"/>
<path d="M221.212 278.031C224.306 278.415 227.255 279.693 229.788 281.511C232.32 283.329 234.447 285.674 236.201 288.251C237.578 290.274 238.748 292.482 239.241 294.879C239.734 297.275 239.498 299.885 238.225 301.974C237.638 302.936 236.838 303.775 235.872 304.355C234.907 304.935 233.774 305.25 232.649 305.192C231.315 305.123 230.044 304.538 228.994 303.712C227.945 302.887 227.101 301.829 226.354 300.722C224.861 298.508 223.673 296.005 221.605 294.315C219.898 292.919 217.749 292.213 215.757 291.267C214.761 290.795 213.789 290.253 212.945 289.543C212.101 288.834 211.385 287.948 210.992 286.918C210.506 285.648 210.538 284.203 211.002 282.925C211.466 281.647 212.347 280.537 213.436 279.724C214.525 278.91 215.817 278.387 217.152 278.127C218.486 277.866 219.863 277.864 221.212 278.031Z" fill="#FF8C01" fill-opacity="0.3" stroke="#FF8C01" stroke-opacity="0.65" stroke-width="4"/>
<path d="M101.315 134.63C100.849 134.375 100.308 134.263 99.7772 134.29C99.2461 134.317 98.7251 134.481 98.2633 134.745C97.3398 135.273 96.6748 136.183 96.2941 137.176C95.9133 138.169 95.7962 139.245 95.7808 140.309C95.7653 141.372 95.8481 142.435 95.8516 143.498C95.8574 145.302 95.6352 147.098 95.542 148.9C95.4489 150.702 95.4891 152.536 96.0048 154.265C96.5206 155.994 97.5576 157.621 99.1023 158.553C99.8746 159.019 100.763 159.301 101.665 159.324C102.566 159.346 103.479 159.104 104.228 158.6C105.317 157.869 105.981 156.666 106.573 155.495C107.165 154.324 107.754 153.1 108.76 152.258C109.46 151.672 110.315 151.311 111.098 150.844C111.49 150.61 111.868 150.347 112.189 150.023C112.51 149.7 112.775 149.312 112.914 148.878C113.066 148.405 113.063 147.888 112.935 147.408C112.808 146.927 112.559 146.484 112.239 146.104C111.598 145.344 110.695 144.852 109.77 144.489C108.845 144.125 107.879 143.872 106.962 143.49C106.044 143.109 105.157 142.579 104.561 141.784C104.159 141.246 103.907 140.609 103.73 139.961C103.552 139.313 103.444 138.648 103.302 137.992C103.159 137.335 102.979 136.68 102.668 136.085C102.357 135.49 101.905 134.953 101.315 134.63Z" fill="#FF8C01" fill-opacity="0.3" stroke="#FF8C01" stroke-opacity="0.65" stroke-width="4"/>
<path d="M267.256 328.819C268.438 327.912 269.856 327.333 271.323 327.076C272.79 326.819 274.304 326.879 275.764 327.175C278.683 327.766 281.34 329.274 283.758 331.013C286.177 332.751 288.41 334.738 290.841 336.458C293.273 338.179 295.956 339.649 298.887 340.175C300.022 340.379 301.19 340.441 302.286 340.799C302.834 340.978 303.362 341.233 303.811 341.594C304.26 341.956 304.628 342.429 304.818 342.973C305.012 343.529 305.013 344.146 304.851 344.712C304.688 345.278 304.366 345.793 303.949 346.209C303.115 347.041 301.936 347.456 300.763 347.568C298.457 347.788 296.188 346.932 294.1 345.929C292.012 344.926 289.97 343.748 287.708 343.248C284.549 342.55 281.274 343.235 278.074 343.708C276.474 343.945 274.857 344.128 273.241 344.057C271.626 343.986 270.002 343.65 268.57 342.898C266.412 341.764 264.779 339.667 264.229 337.292C263.68 334.916 264.23 332.306 265.709 330.368C266.153 329.786 266.675 329.264 267.256 328.819Z" fill="#FF8C01" fill-opacity="0.3" stroke="#FF8C01" stroke-opacity="0.65" stroke-width="4"/>
<path d="M297.573 193.036C300.387 192.026 302.786 190.114 304.94 188.041C307.095 185.968 309.065 183.7 311.345 181.766C313.624 179.831 316.284 178.215 319.236 177.746C320.713 177.512 322.245 177.574 323.674 178.012C325.104 178.45 326.426 179.272 327.387 180.417C328.322 181.531 328.898 182.939 329.03 184.388C329.162 185.837 328.851 187.321 328.163 188.603C327.436 189.955 326.31 191.065 325.036 191.922C323.762 192.779 322.341 193.395 320.895 193.91C318.003 194.941 314.937 195.607 312.32 197.212C309.661 198.843 307.653 201.33 305.794 203.834C303.935 206.338 302.142 208.942 299.753 210.948C298.189 212.261 296.381 213.298 294.428 213.896C292.475 214.494 290.375 214.646 288.372 214.245C286.369 213.843 284.47 212.879 283.026 211.434C281.583 209.988 280.612 208.058 280.402 206.026C280.142 203.504 281.066 200.929 282.688 198.979C284.31 197.03 286.586 195.683 289.014 194.947C291.814 194.098 294.818 194.025 297.573 193.036Z" fill="#FF8C01" fill-opacity="0.3" stroke="#FF8C01" stroke-opacity="0.65" stroke-width="4"/>
</g>
<defs>
<clipPath id="clip0_3676_5083">
<rect width="409.947" height="433.62" fill="white"/>
</clipPath>
</defs>
</svg>
