<svg width="313" height="388" viewBox="0 0 313 388" fill="none" xmlns="http://www.w3.org/2000/svg">
<g clip-path="url(#clip0_3676_5061)">
<path d="M239.156 165.244C239.156 165.244 204.556 160.644 191.756 160.644L158.956 146.044L141.656 44.0445L66.056 3.94447L114.356 51.3445L117.056 88.6445L128.856 178.744L96.956 195.144L50.656 183.444L2.35596 213.444L43.356 206.144L78.856 221.644L138.956 216.144L182.656 221.644L208.156 246.244L236.356 297.244L220.856 330.044L255.456 299.044L248.156 248.944L199.856 192.444L232.656 183.344L271.856 196.044C262.256 187.444 239.156 165.244 239.156 165.244Z" fill="#5B3E24" stroke="#312114" stroke-width="8.93"/>
<path fill-rule="evenodd" clip-rule="evenodd" d="M80.4848 192.188C80.4848 192.188 71.8236 195.349 71.1682 199.175C70.4966 203.096 79.0573 205.335 77.7879 209.105C76.3529 213.367 65.0389 213.518 65.0389 213.518L41.5022 206.776L6.44238 213.641L49.1026 182.994L80.4848 192.188Z" fill="#AAFA1E" fill-opacity="0.4" stroke="#65CB11" stroke-opacity="0.65" stroke-width="4" stroke-linecap="round" stroke-linejoin="round"/>
<path fill-rule="evenodd" clip-rule="evenodd" d="M113.549 50.9903C113.549 50.9903 118.095 68.0104 124.124 66.4197C126.76 65.7242 122.853 60.1606 124.818 58.2716C126.653 56.5076 129.971 58.52 132.446 57.9248C136.519 56.9452 143.888 52.7239 143.888 52.7239L139.554 42.4954L81.4768 14.4105L113.549 50.9903Z" fill="#AAFA1E" fill-opacity="0.4" stroke="#65CB11" stroke-opacity="0.65" stroke-width="4" stroke-linecap="round" stroke-linejoin="round"/>
<path fill-rule="evenodd" clip-rule="evenodd" d="M220.111 267.089C220.111 267.089 226.913 263.913 230.531 264.024C233.051 264.101 235.148 266.97 237.641 266.598C240.066 266.237 241.075 262.276 243.525 262.185C245.949 262.095 249.655 266.108 249.655 266.108L255.784 296.755L227.099 324.459L235.802 294.793L220.111 267.089Z" fill="#AAFA1E" fill-opacity="0.4" stroke="#65CB11" stroke-opacity="0.65" stroke-width="4" stroke-linecap="round" stroke-linejoin="round"/>
<path d="M239.156 165.244C239.156 165.244 204.556 160.644 191.756 160.644L158.956 146.044L141.656 44.0445L66.056 3.94447L114.356 51.3445L117.056 88.6445L128.856 178.744L96.956 195.144L50.656 183.444L2.35596 213.444L43.356 206.144L78.856 221.644L138.956 216.144L182.656 221.644L208.156 246.244L236.356 297.244L220.856 330.044L255.456 299.044L248.156 248.944L199.856 192.444L232.656 183.344L271.856 196.044C262.256 187.444 239.156 165.244 239.156 165.244Z" stroke="#312114" stroke-width="8.93"/>
<path d="M139.403 218.738L109.703 238.738L76.7026 292.438L10.9026 301.138L66.3026 266.238L85.0026 211.338L128.603 180.738L88.7026 113.338L36.0026 93.9379L12.3026 35.8379L57.2026 74.8379L116.803 87.8379L159.303 149.538C174.203 119.838 186.703 102.238 186.703 102.238L235.803 79.4379L270.403 36.6379L246.703 105.838L203.903 135.838L186.703 179.738L221.603 210.938L279.203 227.338L308.303 286.538L257.803 250.138L209.003 242.838L182.103 223.938L184.403 268.338L169.303 324.338L182.103 383.538L141.103 323.538L148.403 279.838L139.403 218.738Z" fill="#6D4A2C" stroke="#312114" stroke-width="8.93" stroke-miterlimit="16" stroke-linejoin="round"/>
<path fill-rule="evenodd" clip-rule="evenodd" d="M242.879 247.585C242.879 247.585 234.466 241.386 235.597 237.357C236.311 234.814 242.061 236.747 242.879 234.236C243.649 231.871 239.129 230.308 239.065 227.822C238.968 224.1 243.225 218.113 244.265 217.94C245.306 217.766 278.938 225.915 278.938 225.915L304.943 281.218L258.135 251.052L242.879 247.585Z" fill="#AAFA1E" fill-opacity="0.4" stroke="#65CB11" stroke-opacity="0.65" stroke-width="4" stroke-linecap="round" stroke-linejoin="round"/>
<path fill-rule="evenodd" clip-rule="evenodd" d="M147.355 288.672C147.355 288.672 154.812 291.133 156.717 294.22C159.759 299.15 158.582 305.8 157.93 311.556C157.461 315.698 157.619 321.011 154.29 323.518C151.288 325.778 141.182 322.834 141.182 322.834L147.355 288.672Z" fill="#AAFA1E" fill-opacity="0.4" stroke="#65CB11" stroke-opacity="0.65" stroke-width="4" stroke-linecap="round" stroke-linejoin="round"/>
<path fill-rule="evenodd" clip-rule="evenodd" d="M195.226 191.33C195.226 191.33 193.856 200.666 194.368 205.305C194.82 209.405 195.127 214.054 197.801 217.196C199.968 219.743 203.661 220.55 206.872 221.486C210.312 222.49 214.372 224.515 217.537 222.835C220.733 221.138 222.44 213.15 222.44 213.15L195.226 191.33Z" fill="#AAFA1E" fill-opacity="0.4" stroke="#65CB11" stroke-opacity="0.65" stroke-width="4" stroke-linecap="round" stroke-linejoin="round"/>
<path fill-rule="evenodd" clip-rule="evenodd" d="M231.757 82.2276C231.757 82.2276 230.232 88.8679 232.125 91.1765C233.991 93.4526 239.439 90.6037 240.706 93.2604C242.555 97.1373 234.021 100.773 235.189 104.906C236.065 108.004 243.28 110.177 243.28 110.177L248.674 104.171L263.507 51.7035L231.757 82.2276Z" fill="#AAFA1E" fill-opacity="0.4" stroke="#65CB11" stroke-opacity="0.65" stroke-width="4" stroke-linecap="round" stroke-linejoin="round"/>
<path fill-rule="evenodd" clip-rule="evenodd" d="M187.258 171.593C187.258 171.593 181.452 170.691 179.658 168.651C177.963 166.724 178.061 163.729 177.819 161.174C177.599 158.851 177.853 156.494 178.187 154.186C178.841 149.654 178.128 144.053 181.374 140.824C183.545 138.664 187.982 140.716 190.323 138.74C193.71 135.882 193.757 126.742 195.471 126.481C201.454 125.572 205.524 130.403 210.488 132.549L203.685 136.288L187.258 171.593Z" fill="#AAFA1E" fill-opacity="0.4" stroke="#65CB11" stroke-opacity="0.65" stroke-width="4" stroke-linecap="round" stroke-linejoin="round"/>
<path fill-rule="evenodd" clip-rule="evenodd" d="M136 115.308C131.156 111.438 123.851 107.687 118.143 110.107C114.835 111.51 113.169 116.05 113.116 119.642C113.045 124.371 117.609 127.99 119.357 132.385C120.866 136.181 122.356 140.052 122.997 144.087C123.333 146.199 121.723 148.851 123.084 150.501C125.431 153.347 130.266 152.244 133.919 152.755C137.075 153.196 140.738 155.115 143.454 153.448C147.781 150.793 149.624 144.475 149.349 139.406C148.851 130.237 143.173 121.041 136 115.308Z" fill="#AAFA1E" fill-opacity="0.4" stroke="#65CB11" stroke-opacity="0.65" stroke-width="4" stroke-linecap="round" stroke-linejoin="round"/>
<path fill-rule="evenodd" clip-rule="evenodd" d="M115.054 87.8666C115.054 87.8666 104.912 90.4153 103.041 94.6089C100.448 100.421 111.371 108.427 107.209 113.242C102.572 118.605 86.0013 111.648 86.0013 111.648L35.9858 94.7315L12.6943 39.3222L56.703 72.7884L115.054 87.8666Z" fill="#AAFA1E" fill-opacity="0.4" stroke="#65CB11" stroke-opacity="0.65" stroke-width="4" stroke-linecap="round" stroke-linejoin="round"/>
<path fill-rule="evenodd" clip-rule="evenodd" d="M77.0525 228.229C77.0525 228.229 88.3836 225.001 92.1307 228.351C94.6774 230.628 90.7558 236.311 93.3566 238.526C94.9133 239.852 97.706 237.274 99.4859 238.281C102.001 239.703 103.654 245.881 103.654 245.881L77.4203 292.096L18.5786 298.839L66.8778 265.495L77.0525 228.229Z" fill="#AAFA1E" fill-opacity="0.4" stroke="#65CB11" stroke-opacity="0.65" stroke-width="4" stroke-linecap="round" stroke-linejoin="round"/>
<path fill-rule="evenodd" clip-rule="evenodd" d="M166.909 239.752C163.52 240.967 159.655 243.184 158.573 246.617C156.736 252.441 161.249 258.583 163.476 264.269C164.583 267.094 165.199 270.565 167.644 272.36C171.121 274.912 181.087 274.826 181.087 274.826L184.806 239.752C184.806 239.752 172.524 237.737 166.909 239.752Z" fill="#AAFA1E" fill-opacity="0.4" stroke="#65CB11" stroke-opacity="0.65" stroke-width="4" stroke-linecap="round" stroke-linejoin="round"/>
<path d="M139.403 218.738L109.703 238.738L76.7026 292.438L10.9026 301.138L66.3026 266.238L85.0026 211.338L128.603 180.738L88.7026 113.338L36.0026 93.9379L12.3026 35.8379L57.2026 74.8379L116.803 87.8379L159.303 149.538C174.203 119.838 186.703 102.238 186.703 102.238L235.803 79.4379L270.403 36.6379L246.703 105.838L203.903 135.838L186.703 179.738L221.603 210.938L279.203 227.338L308.303 286.538L257.803 250.138L209.003 242.838L182.103 223.938L184.403 268.338L169.303 324.338L182.103 383.538L141.103 323.538L148.403 279.838L139.403 218.738Z" stroke="#312114" stroke-width="8.93" stroke-miterlimit="16" stroke-linejoin="round"/>
<path fill-rule="evenodd" clip-rule="evenodd" d="M168.257 279.715C166.898 278.541 164.417 276.891 163.108 278.121C161.975 279.187 163.526 281.261 164.212 282.657C165.019 284.301 165.858 286.541 167.644 286.948C168.838 287.219 170.548 286.509 170.954 285.354C171.645 283.388 169.834 281.077 168.257 279.715Z" fill="#AAFA1E" fill-opacity="0.4" stroke="#65CB11" stroke-opacity="0.65" stroke-width="4" stroke-linecap="round" stroke-linejoin="round"/>
<path fill-rule="evenodd" clip-rule="evenodd" d="M205.375 170.33C211.136 171.419 221.189 169.333 222.307 175.088C222.869 177.983 218.046 179.408 215.305 180.496C211.794 181.89 207.081 183.832 204.027 181.608C202.471 180.476 203.488 177.766 202.801 175.969C201.944 173.73 197.939 171.727 199.246 169.717C200.365 167.996 203.357 169.949 205.375 170.33Z" fill="#AAFA1E" fill-opacity="0.4" stroke="#65CB11" stroke-opacity="0.65" stroke-width="4" stroke-linecap="round" stroke-linejoin="round"/>
<path fill-rule="evenodd" clip-rule="evenodd" d="M226.118 102.577C224.869 97.8376 214.854 97.1368 211.53 100.738C209.492 102.947 215.043 107.068 213.369 109.564C211.378 112.533 203.314 107.985 202.827 111.526C202.41 114.549 209.368 115.875 209.14 116.552C208.67 117.944 217.808 116.282 220.724 114.591C222.563 113.524 225.226 111.609 224.647 109.564C224.136 107.761 219.641 109.459 219.376 107.603C218.979 104.828 226.832 105.288 226.118 102.577Z" fill="#AAFA1E" fill-opacity="0.4" stroke="#65CB11" stroke-opacity="0.65" stroke-width="4" stroke-linecap="round" stroke-linejoin="round"/>
<path fill-rule="evenodd" clip-rule="evenodd" d="M133.81 73.2788C129.561 74.2792 126.04 79.2226 125.719 83.5761C125.381 88.1758 128.436 93.5739 132.584 95.5896C134.591 96.5644 137.867 96.3943 139.204 94.6089C140.985 92.2315 138.112 88.7499 137.978 85.7826C137.823 82.3498 140.236 78.432 138.468 75.4853C137.584 74.012 135.483 72.885 133.81 73.2788Z" fill="#AAFA1E" fill-opacity="0.4" stroke="#65CB11" stroke-opacity="0.65" stroke-width="4" stroke-linecap="round" stroke-linejoin="round"/>
<path fill-rule="evenodd" clip-rule="evenodd" d="M125.229 202.485C118.281 203.492 108.931 201.346 104.635 206.898C102.282 209.939 102.695 215.442 105.125 218.422C108.107 222.077 114.556 223.798 118.855 221.854C121.452 220.679 120.704 216.21 122.777 214.254C128.632 208.73 142.625 211.745 144.843 204.447C146.224 199.904 138.245 202.071 134.791 201.75C131.608 201.454 128.393 202.027 125.229 202.485Z" fill="#AAFA1E" fill-opacity="0.4" stroke="#65CB11" stroke-opacity="0.65" stroke-width="4" stroke-linecap="round" stroke-linejoin="round"/>
</g>
<defs>
<clipPath id="clip0_3676_5061">
<rect width="312.767" height="388.001" fill="white"/>
</clipPath>
</defs>
</svg>
