<svg width="280" height="275" viewBox="0 0 280 275" fill="none" xmlns="http://www.w3.org/2000/svg">
<path d="M162.842 1.29516C166.325 0.0392755 169.314 2.06476 170.733 3.01028C172.766 4.36511 174.514 5.76649 177.766 7.756C179.326 8.71011 181.132 9.81495 182.342 12.0986C182.861 13.0797 183.197 14.1298 183.476 15.1414C183.755 16.1559 184.053 17.4315 184.408 18.9126C186.517 27.7126 187.672 31.994 188.427 34.1804C188.655 34.843 188.812 35.2031 188.896 35.3793C188.926 35.4014 188.965 35.4298 189.013 35.4643C189.118 35.5398 189.255 35.6377 189.422 35.7562C189.756 35.993 190.196 36.3014 190.708 36.6562C191.732 37.3666 193.026 38.2516 194.319 39.1093C195.096 39.6249 195.856 40.1182 196.546 40.5545C197.388 39.2982 198.349 37.788 199.446 36.1111C200.678 34.2288 202.063 32.1751 203.374 30.5635C204.022 29.7661 204.768 28.9325 205.567 28.2559C206.178 27.7393 207.636 26.5856 209.633 26.5259H209.636C210.832 26.4911 212.516 26.6443 214.114 27.8721C215.413 28.8703 216.196 30.2612 216.727 31.2865C217.304 32.4037 217.978 33.9205 218.793 35.7308C219.635 37.5997 220.706 39.9623 222.156 42.969C223.539 45.8379 224.323 48.1367 224.085 50.8242C223.982 51.9861 223.697 53.0763 223.458 53.9722C223.202 54.9347 222.928 55.9159 222.644 57.2333C220.871 65.465 220.042 68.8912 219.54 71.2487C219.435 71.7383 219.369 72.0813 219.326 72.3302C220.209 74.6013 222.221 78.7321 224.274 83.3448C225.305 85.6607 226.314 88.0389 227.037 90.087C227.398 91.1076 227.719 92.1373 227.933 93.0904C228.117 93.9116 228.35 95.1965 228.135 96.4944C228.036 97.0963 227.91 97.5463 227.451 99.0009L227.448 99.0088L227.447 99.0158L226.835 100.932L226.686 101.465L226.682 101.48L226.677 101.494C225.785 104.602 221.746 118.135 218.747 127.937C220.219 127.18 221.766 126.434 223.253 125.808C225.133 125.017 227.387 124.21 229.386 124.062C234.1 123.714 238.105 125.863 241.19 128.468C244.284 131.08 246.91 134.523 249.035 137.743C251.175 140.986 252.973 144.269 254.279 146.601C254.808 147.546 255.228 148.282 255.564 148.833C256.504 148.993 257.609 149.146 258.86 149.306C260.703 149.543 262.845 149.795 264.817 150.105C266.762 150.41 268.849 150.814 270.6 151.433C271.477 151.744 272.465 152.175 273.361 152.804C274.191 153.388 275.209 154.331 275.786 155.761L275.896 156.053L275.902 156.071L275.907 156.089C276.001 156.367 276.128 156.911 276.183 157.137C276.281 157.548 276.415 158.116 276.571 158.791C276.882 160.139 277.284 161.935 277.668 163.776C278.05 165.604 278.425 167.534 278.673 169.134C278.796 169.926 278.9 170.713 278.951 171.4C278.977 171.74 278.995 172.129 278.984 172.52C278.976 172.813 278.949 173.516 278.686 174.278L278.686 174.281C278.356 175.235 277.803 175.947 277.433 176.365C277.009 176.845 276.521 177.278 276.012 177.651C275.027 178.372 273.639 179.1 271.993 179.35C270.242 179.617 268.123 179.331 266.271 177.846C264.523 176.443 263.552 174.399 263.04 172.226C262.455 169.742 262.053 167.83 261.754 166.361C261.607 165.638 261.493 165.064 261.399 164.594C260.56 164.448 259.826 164.32 259.184 164.209C259.254 165.142 259.319 166.203 259.358 167.37C259.519 172.169 259.246 178.767 257.222 186.789C256.849 188.265 256.634 189.276 256.383 190.328C256.16 191.264 255.889 192.332 255.444 193.333C254.337 195.827 252.523 197.115 250.491 198.314C250.654 198.218 248.169 199.942 245.812 200.868C244.591 201.347 242.833 201.871 240.937 201.71C238.832 201.531 236.705 200.496 235.347 198.296L235.219 198.078C234.634 197.06 234.241 195.869 234.242 194.553C234.244 193.232 234.643 192.09 235.178 191.178C236.146 189.529 237.664 188.465 238.57 187.876C239.084 187.542 239.603 187.239 240.018 186.997C240.328 186.816 240.571 186.672 240.781 186.545C241.61 183.122 241.987 181.414 242.139 180.503C242.142 180.483 242.144 180.463 242.147 180.445C242.095 180.321 242.035 180.176 241.965 180.012C241.938 180.096 241.91 180.181 241.878 180.266L241.875 180.276C241.549 181.145 241 181.797 240.814 182.016C240.504 182.383 240.134 182.758 239.725 183.114C238.942 183.794 237.752 184.632 236.251 185.108C234.669 185.61 232.561 185.745 230.467 184.62C228.463 183.544 227.153 181.676 226.295 179.602C225.014 176.504 223.852 173.985 222.873 171.831C221.939 169.775 221.057 167.814 220.551 166.137C220.071 164.543 219.574 162.126 220.742 159.752C221.927 157.345 224.188 156.256 225.902 155.659C226.078 155.598 226.251 155.54 226.42 155.482C226.287 155.39 226.121 155.274 225.914 155.131L225.826 155.07L225.74 155.005C225.72 154.99 225.701 154.975 225.682 154.96C222.848 156.917 221.556 157.99 221.001 158.523L214.847 162.942C214.706 163.047 214.564 163.154 214.419 163.261C212.54 164.658 210.223 166.392 207.648 168.477L206.53 169.392C205.881 169.928 205.301 170.375 204.989 170.623C204.815 170.762 204.709 170.849 204.635 170.914C204.6 170.944 204.578 170.965 204.565 170.978C204.514 171.063 204.361 171.356 204.066 172.14C204.027 172.272 204.005 172.347 203.982 172.428C203.979 172.438 203.975 172.447 203.973 172.454C203.979 172.424 203.978 172.418 203.972 172.462C203.963 172.531 203.95 172.641 203.927 172.864L203.859 173.506L203.613 174.102C201.89 178.278 199.745 185.943 199.417 187.12L199.368 187.296L199.305 187.467C199.173 187.822 199.112 187.984 199.043 188.172C198.986 188.328 198.968 188.387 198.958 188.419C198.94 188.48 198.91 188.585 198.781 189.253L198.681 189.772L198.463 190.253L198.462 190.255C198.462 190.255 198.461 190.258 198.461 190.26C198.459 190.264 198.456 190.27 198.453 190.277C198.446 190.293 198.437 190.314 198.426 190.341C198.404 190.397 198.375 190.47 198.34 190.56C198.269 190.743 198.183 190.976 198.081 191.26C197.878 191.827 197.631 192.55 197.354 193.386C196.8 195.057 196.148 197.126 195.527 199.203C194.905 201.286 194.327 203.335 193.916 204.981C193.71 205.807 193.556 206.487 193.461 206.995C193.405 207.288 193.384 207.45 193.376 207.513C193.421 208.442 193.726 212.286 197.285 217.454C197.344 217.509 197.412 217.574 197.49 217.648L197.915 218.054L198.221 218.556C198.378 218.814 198.496 219.013 198.574 219.144C198.658 219.287 198.678 219.318 198.686 219.329C198.689 219.333 198.696 219.343 198.709 219.36C198.751 219.413 198.827 219.506 198.983 219.688L199.13 219.861L199.26 220.048C199.644 220.602 200.045 221.114 200.468 221.647C200.749 222.001 201.142 222.489 201.488 222.978C202.324 223.869 203.206 224.921 203.928 225.762C204.708 226.67 205.341 227.378 205.859 227.875L206.074 228.075L206.598 228.545L206.665 228.658C206.731 228.725 206.806 228.801 206.89 228.884C207.295 229.288 207.881 229.869 208.601 230.581C210.041 232.005 212.012 233.947 214.143 236.027C218.443 240.225 223.274 244.87 225.756 247.044L225.736 247.025C225.638 246.906 229.196 249.476 231.321 251.999C232.513 253.413 233.878 255.438 234.305 257.903C234.786 260.685 233.974 263.487 231.735 265.784C231.373 266.155 230.521 267.048 229.059 267.704C227.658 268.332 226.038 268.603 224.15 268.58C220.508 268.536 215.038 267.379 206.268 264.289C204.323 263.603 198.684 261.164 197.497 260.569L195.737 259.686L195.681 259.49C195.088 259.137 194.36 258.704 193.57 258.241C191.535 257.049 189.195 255.706 187.716 254.935L187.369 254.754L187.059 254.517C186.521 254.104 181.663 250.441 179.447 248.721C179.032 248.491 178.71 248.259 178.516 248.112C178.168 247.848 177.915 247.615 177.847 247.552L177.817 247.525L177.788 247.497C177.776 247.485 177.765 247.476 177.755 247.466C177.654 247.408 177.515 247.328 177.344 247.225L176.931 246.974L176.58 246.641C175.301 245.426 174.279 244.415 173.482 243.634C173.093 243.253 172.776 242.945 172.511 242.693C171.593 243.143 170.494 243.696 169.254 244.307C167.616 245.113 165.7 246.03 164.064 246.639L163.383 246.88C158.608 248.464 144.587 253.296 123.568 248.975C120.677 248.381 117.544 247.313 117.078 247.155C115.611 246.657 113.986 245.935 112.783 245.41C112.137 245.128 111.604 244.9 111.163 244.726C110.664 244.531 110.529 244.506 110.613 244.522C109.859 244.374 109.211 244.13 108.681 243.882C108.679 243.885 108.678 243.887 108.677 243.889C108.622 243.959 108.551 244.055 108.408 244.244L108.223 244.492L108.004 244.711C107.529 245.189 104.512 248.234 103.584 249.365L103.38 249.615L103.14 249.832C102.819 250.126 102.732 250.21 102.664 250.278C102.625 250.319 102.578 250.367 102.487 250.462C102.403 250.552 102.276 250.685 102.118 250.851L101.864 251.116L101.82 251.15C101.67 251.315 101.463 251.539 101.163 251.833C100.44 252.543 99.2256 253.626 96.9293 255.486L96.0082 256.404L95.6656 256.637C95.4763 256.766 95.3785 256.833 95.3071 256.883C95.2902 256.895 95.2782 256.904 95.2703 256.909C95.2622 256.917 95.2489 256.929 95.2291 256.947C95.1598 257.011 95.0725 257.094 94.9022 257.255L94.7646 257.384L94.6174 257.502C94.4942 257.6 93.0408 258.697 91.6183 259.756C90.884 260.302 90.1172 260.869 89.4808 261.33C88.9555 261.711 88.2506 262.218 87.8121 262.472L87.8095 262.473C87.6991 262.536 87.5918 262.592 87.4905 262.643C87.3019 262.852 87.0758 263.069 86.8034 263.275L86.352 263.615L85.8297 263.832C85.8496 263.824 85.7644 263.861 85.5037 263.996C85.2683 264.118 84.9676 264.279 84.5931 264.482C83.9057 264.856 82.8344 265.448 81.7728 266.023C79.5533 267.226 76.7057 268.722 73.7301 270.053C70.7976 271.364 67.5249 272.613 64.4858 273.208C61.7509 273.743 57.7395 274.05 54.7095 271.578C52.8204 270.036 51.5989 268.112 51.1802 265.929C50.7776 263.83 51.2034 261.94 51.7666 260.521C52.8428 257.809 54.8048 255.883 55.1048 255.582L57.3203 253.348C58.4479 252.205 59.8621 250.76 61.2536 249.309C62.6498 247.853 63.9908 246.424 64.9897 245.3C65.2381 245.02 65.4536 244.769 65.6383 244.552L65.6181 244.247L68.4962 240.826L80.743 224.638L85.5676 213.932L84.4678 202.654L79.5722 185.608L79.5652 185.582L79.5573 185.556L76.9272 175.971C76.9142 175.949 76.9008 175.925 76.8869 175.902C76.6752 175.54 76.3648 175.014 75.9754 174.368C75.1951 173.074 74.1056 171.311 72.8659 169.431C70.2495 165.463 67.4047 161.661 65.4858 160.117C65.4576 160.097 65.1301 159.853 64.5059 159.444C63.8655 159.024 62.9854 158.479 61.9381 157.901C59.8078 156.727 57.1519 155.512 54.4974 154.874L54.1188 154.783C53.9726 154.909 53.7772 155.1 53.5386 155.383L53.5272 155.396C53.886 155.523 54.2658 155.659 54.6683 155.804C56.2183 156.363 58.3615 157.47 59.3641 159.954C60.2617 162.178 59.7577 164.415 59.3194 165.884C58.8404 167.488 58.0316 169.402 57.1214 171.507C56.1744 173.696 55.0297 176.286 53.7104 179.508C52.7929 181.749 51.2889 183.626 49.1286 184.627C46.9704 185.628 44.7497 185.476 42.978 184.789C41.2586 184.123 39.7615 182.889 38.8063 181.323C38.5185 180.851 38.2638 180.314 38.0719 179.729C38.0107 179.906 37.9602 180.062 37.922 180.197C37.9143 180.224 37.909 180.25 37.9027 180.274C38.4677 183.559 38.8222 185.395 39.0666 186.438C39.1027 186.457 39.14 186.476 39.177 186.496C39.975 186.924 41.1034 187.579 42.1603 188.423C43.111 189.182 44.567 190.529 45.2514 192.488C45.628 193.565 45.7717 194.837 45.4451 196.18C45.1237 197.501 44.4221 198.585 43.5976 199.437C42.8792 200.179 41.8643 200.981 40.454 201.408C39.0558 201.832 37.705 201.755 36.5215 201.495C34.4011 201.029 31.9419 199.753 29.0774 198.097C28.0864 197.525 27.0302 196.83 26.1283 195.842C25.1604 194.783 24.6017 193.646 24.2125 192.515C23.8645 191.503 23.5977 190.314 23.3334 189.151C23.0512 187.91 22.7138 186.417 22.2046 184.493C20.7568 179.021 20.6968 172.581 20.826 167.777C20.8592 166.544 20.9103 165.276 20.9584 164.161C20.9172 164.168 20.876 164.174 20.8348 164.18C20.0243 164.303 19.2463 164.435 18.5702 164.563C18.3596 165.671 18.0891 167.192 17.7841 168.645C17.4698 170.142 17.0702 171.816 16.5492 173.278C16.2884 174.009 15.9551 174.808 15.5203 175.553C15.1171 176.244 14.4305 177.233 13.3197 177.964L13.317 177.966C12.292 178.639 11.0209 178.969 10.063 179.112C8.99175 179.272 7.49681 179.323 5.95701 178.838C4.29127 178.312 2.53562 177.123 1.57675 174.96C0.690041 172.96 0.76836 170.755 1.25774 168.67L1.43127 167.917C1.82062 166.182 2.11558 164.602 2.37953 163.147C2.6703 161.545 2.94972 159.936 3.27609 158.585C3.59208 157.277 4.06202 155.703 4.96492 154.343C6.00693 152.774 7.57639 151.566 9.6896 151.16C15.1921 150.103 19.4411 149.505 22.1547 149.057C23.2151 148.883 23.9694 148.742 24.5034 148.62C24.6378 148.376 24.7988 148.086 24.9855 147.739C25.4975 146.79 26.1535 145.559 26.9074 144.207C28.415 141.503 30.3948 138.164 32.7478 135.025C35.0676 131.93 37.9455 128.761 41.3304 126.641C44.8092 124.461 49.1205 123.231 53.7963 124.736C55.4327 125.263 57.2442 126.06 59.0039 126.93L58.6235 125.863C57.4305 122.48 52.9069 110.47 51.5659 106.494C51.4198 106.207 50.075 103.142 49.4616 100.335C49.1527 98.9209 48.7585 96.5139 49.5598 94.3156C50.03 93.0256 50.9726 91.6556 52.6132 90.8319C53.6889 90.2919 54.7939 90.1245 55.8068 90.1475C55.5095 87.9836 55.1911 85.3728 54.855 82.2055C54.5951 79.7531 54.5729 77.7542 55.6105 75.3713C56.0325 74.402 56.5975 73.4407 57.1643 72.4993C57.7692 71.4948 58.4639 70.3737 59.3615 68.8272C61.8467 64.5456 64.1969 60.8254 65.7434 58.2534C66.5505 56.9112 67.1254 55.9059 67.4883 55.1729C67.5767 54.9945 67.6407 54.8538 67.6873 54.7469C67.5718 52.2816 67.0821 47.1903 66.6409 42.1285C66.4103 39.4841 66.1978 36.89 66.0835 34.8649C66.0268 33.8604 65.9902 32.9251 65.9932 32.1656C65.9947 31.7922 66.0061 31.3809 66.0432 30.9877C66.0593 30.8166 66.1267 29.8831 66.5927 28.9614L66.5953 28.9553C67.3175 27.5318 69.0671 25.1401 70.9896 22.5216C73.0596 19.7021 75.6968 16.1461 78.6274 11.9925L78.8588 11.6779C80.051 10.1184 81.8043 8.77552 84.1654 8.62627C86.4731 8.4804 88.2582 9.56665 89.2836 10.3633C90.3616 11.2009 91.2388 12.2185 91.8418 12.9653C92.1563 13.3548 92.4453 13.7335 92.6683 14.0249C92.7917 14.1863 92.8887 14.3118 92.9671 14.4123L93.1555 14.648L93.1731 14.6691C96.7028 18.9234 98.8712 21.5747 100.293 23.2464C101.073 21.9062 102.16 19.9898 103.939 16.9994C106.35 12.9441 107.673 10.7404 108.485 9.53159C108.874 8.95128 109.338 8.30202 109.915 7.75775C110.685 7.03122 111.419 6.71616 111.7 6.59126C113.403 5.83619 115.173 5.86107 116.775 6.48784C118.138 7.02089 119.219 7.9275 119.993 8.65519C120.805 9.4188 121.655 10.3566 122.491 11.2879C123.366 12.2618 124.3 13.3166 125.411 14.4982C130.053 19.4357 132.733 22.5539 134.202 24.1666C134.46 24.4503 134.673 24.6757 134.849 24.859C140.701 24.6429 143.578 24.3599 145.019 24.0834C145.159 24.0566 145.274 24.0298 145.367 24.008C147.087 21.8535 150.319 17.1091 153.565 12.4071C155.228 9.99842 156.863 7.64827 158.181 5.86034C158.835 4.97357 159.458 4.16004 159.994 3.52561C160.258 3.2141 160.558 2.87514 160.872 2.57208C161.005 2.44273 161.745 1.69315 162.837 1.29779L162.842 1.29516ZM206.341 228.335C206.335 228.329 206.332 228.325 206.331 228.324C206.329 228.321 206.326 228.32 206.324 228.318C206.329 228.323 206.335 228.329 206.341 228.335ZM197.027 217.211C197.024 217.208 197.021 217.205 197.019 217.203L197.003 217.189C197.01 217.195 197.018 217.203 197.027 217.211Z" fill="#1A1A1A"/>
<path fill-rule="evenodd" clip-rule="evenodd" d="M89.7201 17.5345C99.3088 29.0915 99.4403 29.5754 100.928 29.2197C102.605 28.8187 102.832 27.64 107.796 19.2921C112.691 11.0611 112.764 11.0286 113.52 10.6933C115.712 9.7213 117.518 12.6526 122.142 17.5708C131.391 27.4082 132.309 29.4386 133.83 29.3882C147.095 28.9489 147.761 28.1508 148.522 27.2401C152.122 22.9304 162.939 6.03102 164.364 5.51668C166.55 4.72836 168.839 7.55528 175.424 11.5836C178.608 13.5308 178.573 13.8165 180.045 19.9577C184.243 37.4793 184.86 37.9482 186.128 38.9128C186.984 39.5636 196.667 46.3258 197.631 46.2082C199.25 46.01 206.821 31.0961 209.768 31.0105C212.467 30.932 212.217 32.6845 218.114 44.9173C220.68 50.2393 219.505 50.4984 218.258 56.2878C214.851 72.1011 214.481 72.1519 214.959 73.4674C216.669 78.1692 224.24 92.5394 223.708 95.7627C223.655 96.0828 223.628 96.25 222.536 99.6452C221.023 100.565 220.111 102.523 212.555 114.189C202.872 129.142 203.509 129.684 202.17 130.454C201.363 130.96 201.317 131.398 199.536 133.201C198.429 134.294 197.505 135.719 195.164 137.855C193.83 139.072 190.791 136.287 186.21 134.217C183.645 133.059 183.198 134.187 177.148 140.22C177.12 140.248 156.804 160.888 156.79 160.899C155.925 161.61 155.133 162.262 142.826 161.953C139.127 161.86 139.203 160.67 134.457 155.353C129.374 149.66 129.246 149.824 124.16 144.147C122.373 142.153 122.101 142.441 116.23 141.819C110.203 141.181 110.243 141.079 106.833 140.676C104.775 140.433 104.254 141.652 102.768 143.349C101.196 145.145 100.733 144.891 100.263 146.997C100.012 147.303 99.8932 147.094 99.6603 147.377C99.6164 147.43 99.4133 147.676 99.3068 148.159C99.2779 148.291 99.4548 148.43 99.4004 148.554C99.301 148.781 99.2571 148.741 97.8505 149.765C97.4634 150.046 97.4481 149.957 96.9957 150.174C96.2137 149.608 89.4567 144.722 87.29 143.004C84.0759 140.631 83.7142 140.476 83.3647 140.326C78.607 136.745 57.163 104.326 56.3458 104.385C56.093 104.403 56.0022 104.838 55.7493 104.857C55.7348 104.815 50.4996 93.6932 56.3223 94.6953C58.8765 95.135 62.0343 102.718 62.2676 100.496C62.4265 98.9851 61.1677 99.1715 59.3172 81.7317C58.8577 77.3969 59.5552 77.4325 63.2425 71.0794C68.1877 62.5596 72.2402 56.8733 72.1928 55.1396C72.0625 50.3698 69.9709 32.2209 70.5975 30.9855C71.6163 28.9774 76.3709 22.9742 82.2943 14.579C85.1303 10.5592 88.2798 15.8203 89.7201 17.5345Z" fill="#31211B"/>
<path fill-rule="evenodd" clip-rule="evenodd" d="M107.22 134.185C100.55 130.005 99.2373 128.963 95.829 125.52C65.4399 94.8239 89.5413 46.7733 145.178 49.3356C169.272 50.4448 184.119 64.3387 187.868 69.5806C188.701 70.7464 200.931 84.8161 195.116 106.304C192.312 116.667 183.751 126.285 180.308 128.895C168.874 137.565 163.216 139.142 154.586 141.176C139.453 144.743 131.424 141.404 128.796 142.188C125.511 140.571 124.437 136.004 121.328 135.538C110.636 133.939 108.351 134.103 107.22 134.185Z" fill="#AA7B53"/>
<path fill-rule="evenodd" clip-rule="evenodd" d="M102.389 100.892C102.261 100.056 101.333 93.9758 102.212 90.3285C108.05 66.0963 138.763 60.2396 156.204 67.8648C168.909 73.4198 170.998 79.3143 173.561 83.3872C175.877 87.0681 177.795 97.5363 174.125 105.551C166.4 122.42 150.673 125.504 147.166 126.39C136.295 129.135 108.696 126.023 102.389 100.892Z" fill="#6D4A2C"/>
<path d="M180.888 244.253C180.95 244.311 181.408 244.732 181.853 244.909C183.835 246.462 189.134 250.453 189.789 250.956C192.969 252.613 199.502 256.535 199.509 256.557C200.538 257.074 206.005 259.438 207.76 260.056C225.096 266.165 227.354 263.849 228.522 262.651L228.522 262.651C233.567 257.477 223.7 251.208 222.8 250.42C217.617 245.881 203.111 231.473 203.078 231.416C201.47 229.973 199.575 227.448 197.988 225.806C197.501 225.05 196.522 223.974 195.572 222.603C194.893 221.809 194.951 221.811 194.39 220.891C193.893 220.415 193.887 220.426 193.853 220.378C189.163 213.755 188.935 208.663 188.885 207.564L188.885 207.563C188.781 205.246 193.405 190.545 194.376 188.402C194.626 187.106 194.644 187.134 195.095 185.913L195.098 185.904C195.413 184.774 197.624 176.853 199.465 172.39C199.558 171.508 199.567 171.539 199.812 170.703C200.909 167.746 201.233 167.947 203.671 165.933C209.902 160.786 214.853 157.557 216.012 156.314L224.685 150.21C227.122 147.611 228.906 147.106 233.465 141.038C233.6 140.858 236.067 137.575 236.053 139.952C236.05 140.474 233.572 145.385 229.697 149.312C229.559 149.452 228.678 150.344 228.472 151.444C229.515 152.167 229.537 152.181 229.557 152.198L229.559 152.2C229.917 151.941 232.73 149.45 232.855 149.335C233.308 148.916 234.56 146.248 236.029 146.922C237.222 147.47 233.929 150.799 230.544 153.196C231.933 154.971 232.057 154.837 233.4 156.657C234.555 158.222 232.654 158.059 227.377 159.897C221.814 161.834 225.173 165.149 230.441 177.886C232.945 183.939 237.407 179.414 237.674 178.699C238.477 176.542 232.495 165.892 232.659 164.549C232.765 163.678 236.971 162.823 237.151 162.824C239.048 162.836 245.897 177.425 246.562 179.423C246.802 180.144 246.897 180.431 244.86 188.772C244.394 190.678 236.989 192.152 239.11 195.844C241.221 199.521 247.465 194.889 248.211 194.45C251.863 192.294 251.357 191.692 252.871 185.691C256.674 170.622 253.873 161.028 254.474 159.515C254.762 158.789 255.092 158.949 264.196 160.526C265.692 160.785 265.121 161.482 267.408 171.198C268.919 177.614 273.983 174.153 274.444 172.816C274.965 171.302 271.732 157.745 271.654 157.517C270.574 154.389 258.806 154.226 253.18 152.938C251.08 152.457 242.062 127.625 229.716 128.537C224.842 128.897 212.597 136.593 212.581 136.605C211.183 137.731 211.336 136.533 211.369 136.44C212.928 132.029 222.156 101.139 222.535 99.6452C221.023 100.565 220.11 102.523 212.555 114.189C202.872 129.142 203.509 129.684 202.17 130.454C202.356 130.691 202.7 130.77 202.886 131.007C203.291 131.527 194.881 161.959 193.77 162.379C193.581 162.45 191.747 162.939 193.092 159.954C193.514 159.018 196.334 148.078 196.601 147.042C198.269 140.569 197.763 140.471 199.889 134.095C199.913 134.022 199.864 134.03 199.536 133.201C198.429 134.294 197.505 135.719 195.164 137.855C193.83 139.072 190.791 136.287 186.21 134.217C183.645 133.059 183.197 134.187 177.148 140.22C177.12 140.248 156.804 160.888 156.79 160.899L156.79 160.899C155.925 161.61 155.132 162.262 142.825 161.953C139.126 161.86 139.203 160.67 134.456 155.353C129.374 149.66 129.246 149.823 124.16 144.147C122.372 142.153 122.1 142.441 116.23 141.819C110.203 141.181 110.243 141.079 106.832 140.676C104.775 140.433 104.254 141.651 102.768 143.349C101.195 145.145 100.733 144.891 100.263 146.997C100.147 148.917 101.818 152.672 102.401 155.229C103.212 158.784 103.489 158.687 104.322 162.226C104.497 162.971 103.881 163.516 103.453 162.545C99.9524 154.6 99.1262 155.036 96.9954 150.174L96.9893 150.169C96.1788 149.583 89.4509 144.717 87.2897 143.004C86.0975 143.774 86.802 144.071 87.0737 145.459C87.186 146.033 87.561 145.928 89.0436 152.504C90.4596 158.785 93.6267 170.118 90.4991 167.201C89.9441 166.683 88.3438 158.004 85.9426 150.148C84.4177 145.159 82.6298 141.201 82.8917 140.753C82.9989 140.57 83.2576 140.509 83.3645 140.326C78.6067 136.745 57.1628 104.326 56.3456 104.385C56.0927 104.403 56.0019 104.838 55.7491 104.857C56.9921 108.598 61.5385 120.638 62.8548 124.37C66.7824 135.503 68.0885 137.399 66.5233 136.401C65.4497 135.715 57.4959 130.641 52.4211 129.007C40.1549 125.058 30.037 148.504 27.7079 152.033C26.8852 153.28 21.3928 153.481 10.5367 155.566C7.33516 156.182 7.64357 161.102 5.62674 169.694C4.15393 175.969 9.83733 174.884 10.853 174.216C13.1332 172.715 14.0264 162.795 14.8088 161.035C15.1555 160.254 25.2088 159.001 25.381 159.145C26.1893 159.82 24.0014 173.74 26.5427 183.345C28.6687 191.38 27.9247 192.249 31.3231 194.213C37.1811 197.599 38.8813 197.858 40.3737 196.316C43.495 193.091 36.0911 190.019 35.7533 189.783C35.129 189.347 34.8684 189.165 33.3987 180.567C32.886 177.567 41.5932 163.578 41.6386 163.515C41.8848 163.176 42.6324 162.144 46.8684 163.953C47.9326 164.408 47.1596 164.842 42.36 176.729C41.1588 179.704 47.1326 183.732 49.5581 177.807C54.9225 164.704 57.5632 161.618 53.1452 160.024C46.8183 157.741 46.724 158.099 46.1768 157.898C45.6747 157.714 45.3404 157.066 50.1037 152.495C49.4121 151.839 49.4485 151.806 48.5561 151.517C48.1083 151.373 44.2093 150.111 44.0222 147.777C43.7588 144.498 49.3678 150.308 49.9784 148.535C50.0626 148.291 41.9197 139.402 44.5623 138.977C45.7886 138.78 51.1404 148.139 54.6074 149.331C55.0176 149.472 55.1922 149.872 55.5467 150.511C61.9284 152.046 67.735 156.168 68.2986 156.622C73.3981 160.725 81.1014 174.224 81.1014 174.224L83.8846 184.369L88.8944 201.811L90.15 214.687L84.6267 226.944L72.0094 243.619L70.218 245.749C70.2212 245.795 70.218 245.836 70.2082 245.873C69.881 247.134 59.2724 257.759 58.2798 258.753C57.7495 259.284 52.8074 264.233 57.5467 268.101C62.9722 272.528 81.5425 260.758 84.1034 259.691C84.3058 259.538 84.3132 259.205 84.5152 259.053C84.8212 258.822 85.2345 258.778 85.5668 258.587C86.3191 258.152 91.7449 254.054 91.8193 253.994C92.4471 253.4 92.4267 253.414 93.1383 252.929L93.9281 252.144C98.6729 248.312 98.4502 248.07 98.8733 247.752C99.4886 247.108 99.4608 247.115 100.116 246.518C101.216 245.178 104.435 241.937 104.821 241.548L104.821 241.548C105.351 240.843 105.336 240.862 105.972 240.267C108.418 236.997 109.126 239.657 111.48 240.12C112.84 240.387 116.029 242.06 118.521 242.906C118.989 243.065 121.884 244.048 124.471 244.58C144.355 248.667 157.484 244.109 161.97 242.621C164.822 241.675 169.824 238.917 172.274 237.846C173.784 237.186 174.682 238.647 179.671 243.387C180.328 243.786 180.332 243.722 180.888 244.253L180.888 244.253Z" fill="#6D4A2C"/>
<path fill-rule="evenodd" clip-rule="evenodd" d="M148.669 124.192C112.908 132.35 87.9727 95.5743 115.16 74.0365C126.115 65.3576 157.453 59.7104 171.469 83.2438C175.798 90.5134 177.851 108.314 158.952 119.782C158.187 120.246 153.886 122.855 148.669 124.192Z" fill="#AA7B53"/>
<path fill-rule="evenodd" clip-rule="evenodd" d="M163.915 41.9527C166.462 42.7661 166.462 42.7422 166.682 42.8161C180.534 48.3136 183.907 51.5235 186.432 53.3949C188.395 54.8503 200.063 63.4999 205.705 77.0846C216.883 104 200.949 127.357 192.484 133.614C191.663 134.22 186.289 130.49 183.47 129.102C183.478 129.066 183.304 128.587 183.991 127.898C188.79 123.079 189.536 121.777 192.758 116.403C199.177 105.696 201.586 88.3966 192.682 73.4232C174.757 43.2761 124.481 39.084 97.1846 61.9573C71.2897 83.6565 77.1802 118.49 106.097 135.663C104.859 137.932 104.637 137.763 103.282 139.94C102.203 141.675 102.066 142.27 101.594 142.959C100.006 145.28 96.6828 142.041 89.7305 137.031C82.1426 131.563 75.9265 121.481 74.3966 118.042C57.2192 79.4339 89.8585 55.4112 90.0385 55.2255C91.5164 54.0757 91.4659 54.0769 92.8926 52.9223C93.4808 52.5385 93.4613 52.576 94.0315 52.179C114.092 38.2109 140.613 34.8063 163.915 41.9527Z" fill="#AA7B53"/>
<path fill-rule="evenodd" clip-rule="evenodd" d="M120.398 104.841C117.195 99.4475 118.759 93.7112 119.737 91.8766C127.662 77.0057 148.217 80.4837 153.613 90.4305C163.834 109.27 133.15 123.453 120.398 104.841Z" fill="#6D4A2C"/>
<g filter="url(#filter0_d_3692_5176)">
<path fill-rule="evenodd" clip-rule="evenodd" d="M175.787 202.978C176.131 202.726 179.53 200.138 179.612 200.107C183.315 198.726 173.357 214.7 166.997 220.317C166.181 221.037 165.499 219.709 164.854 218.824C162.945 216.206 162.31 218.457 156.868 225.108C154.807 227.625 154.171 225.322 152.559 224.505C150.83 223.628 144.85 229.714 139.978 232.389C138.134 233.4 135.576 231.004 127.847 225.315C125.663 223.707 125.387 224.509 123.603 225.871C121.041 227.827 116.505 218.093 114.613 217.489C112.462 216.801 112.751 222.168 110.172 219.459C104.096 213.078 100.319 208.094 97.9515 202.051C95.5805 195.999 100.168 203.544 119.366 213.787C121.768 215.068 122.833 213.886 129.138 211.483C132.167 210.329 131.903 212.047 137.696 217.771C139.948 219.996 142.545 214.371 146.023 211.544C148.035 209.908 155.248 215.298 158.004 214.023C164.977 210.799 174.431 203.96 175.787 202.978Z" fill="#FFD193"/>
<path d="M97.6533 198.546C98.0575 198.563 98.4091 198.726 98.6094 198.827C98.8491 198.949 99.1069 199.109 99.3691 199.283C99.8941 199.633 100.569 200.131 101.372 200.727C104.605 203.124 110.489 207.524 120 212.599C120.483 212.856 120.81 212.944 121.1 212.961C121.403 212.979 121.779 212.927 122.376 212.734C122.987 212.538 123.727 212.231 124.769 211.795C125.792 211.366 127.059 210.834 128.658 210.225L128.967 210.112C129.688 209.863 130.422 209.713 131.176 209.849C132.06 210.007 132.73 210.514 133.315 211.079C133.885 211.629 134.55 212.415 135.35 213.32C136.175 214.255 137.223 215.411 138.643 216.814C138.774 216.943 138.825 216.939 138.8 216.935C138.777 216.93 138.808 216.947 138.936 216.894C139.257 216.758 139.732 216.375 140.41 215.64C141.077 214.916 141.735 214.09 142.552 213.144C143.332 212.239 144.209 211.283 145.174 210.499L145.387 210.344C145.893 210.013 146.459 209.902 146.963 209.887C147.534 209.87 148.128 209.973 148.688 210.115C149.801 210.399 151.072 210.921 152.245 211.402C153.467 211.903 154.608 212.371 155.608 212.646C156.679 212.939 157.223 212.901 157.438 212.802L158.087 212.495C164.848 209.226 173.659 202.856 174.998 201.888C175.182 201.752 176.087 201.065 176.986 200.386C177.438 200.045 177.883 199.708 178.222 199.455C178.39 199.329 178.536 199.22 178.644 199.142C178.696 199.103 178.746 199.067 178.786 199.039C178.805 199.026 178.83 199.008 178.856 198.991C178.869 198.983 178.892 198.968 178.919 198.952C178.924 198.949 179.018 198.892 179.141 198.846H179.142C179.472 198.723 180.007 198.58 180.572 198.767C181.271 198.997 181.602 199.573 181.709 200.059C181.802 200.482 181.753 200.907 181.688 201.236C181.619 201.59 181.503 201.97 181.36 202.357C180.799 203.882 179.642 206.02 178.22 208.3C175.372 212.864 171.211 218.39 167.888 221.325C167.433 221.727 166.826 221.966 166.149 221.833C165.572 221.72 165.157 221.372 164.91 221.125C164.647 220.862 164.42 220.556 164.245 220.307C164.033 220.005 163.929 219.84 163.766 219.616C163.61 219.403 163.492 219.273 163.414 219.193C163.346 219.247 163.253 219.329 163.133 219.447C162.671 219.905 162.08 220.648 161.208 221.775C160.357 222.875 159.284 224.28 157.909 225.96C157.336 226.66 156.712 227.221 155.979 227.467C155.142 227.747 154.412 227.54 153.863 227.218C153.399 226.945 152.971 226.527 152.714 226.291C152.459 226.058 152.263 225.895 152.08 225.78C152.074 225.782 152.067 225.783 152.06 225.785C151.88 225.832 151.598 225.947 151.202 226.167C150.413 226.605 149.42 227.315 148.257 228.19C146.005 229.885 143.172 232.17 140.625 233.568V233.569C139.794 234.025 138.914 234.051 138.033 233.808C137.21 233.58 136.335 233.106 135.39 232.496C133.507 231.283 130.852 229.198 127.049 226.398C126.539 226.023 126.236 225.863 126.059 225.799C126.019 225.785 125.991 225.777 125.974 225.773C125.967 225.772 125.962 225.771 125.958 225.771C125.923 225.782 125.815 225.831 125.538 226.046C125.399 226.154 125.251 226.276 125.06 226.433C124.874 226.584 124.661 226.756 124.42 226.94C123.761 227.443 123.001 227.569 122.276 227.413C121.615 227.271 121.03 226.909 120.547 226.525C119.581 225.759 118.625 224.579 117.778 223.445C117.345 222.865 116.919 222.266 116.518 221.703C116.112 221.135 115.734 220.606 115.382 220.141C115.026 219.671 114.722 219.3 114.47 219.039C114.404 218.972 114.349 218.919 114.305 218.879C114.149 219.095 114.013 219.386 113.725 219.895C113.585 220.142 113.399 220.451 113.162 220.725C112.926 220.999 112.562 221.329 112.04 221.486C110.877 221.837 109.894 221.12 109.196 220.388C103.076 213.961 99.1604 208.825 96.6982 202.542C96.4082 201.802 96.1701 201.139 96.0791 200.638C96.041 200.428 95.9725 199.982 96.1436 199.531C96.2468 199.259 96.4459 198.964 96.7812 198.763C97.1016 198.57 97.4245 198.537 97.6533 198.546Z" stroke="#312114" stroke-width="2.69231"/>
</g>
<path fill-rule="evenodd" clip-rule="evenodd" d="M122.814 105.211C122.291 104.482 118.851 99.6948 120.793 94.1919C125.474 80.9289 144.011 81.3197 150.575 89.22C162.994 104.168 137.74 121.636 122.814 105.211Z" fill="#AA7B53"/>
<g filter="url(#filter1_d_3692_5176)">
<path fill-rule="evenodd" clip-rule="evenodd" d="M177.738 184.251C179.298 183.423 181.979 181.899 183.145 181.764C183.256 181.751 184.42 181.617 184.304 182.55C184.104 184.158 174.978 194.433 174.106 195.415C171.405 198.456 171.068 198.294 152.196 202.745C147.264 203.909 147.767 201.669 148.068 201.499C163.038 193.062 162.714 192.569 177.738 184.251Z" fill="#FFD193"/>
<path d="M183.121 180.414C183.33 180.398 183.747 180.387 184.173 180.506C184.473 180.59 184.906 180.774 185.24 181.192C185.556 181.588 185.675 182.058 185.656 182.519L185.64 182.716C185.6 183.036 185.477 183.329 185.382 183.528C185.275 183.752 185.138 183.991 184.989 184.233C184.689 184.717 184.287 185.289 183.828 185.905C182.909 187.139 181.703 188.628 180.49 190.08C178.061 192.99 175.55 195.816 175.113 196.309C174.433 197.074 173.811 197.746 172.955 198.329C172.099 198.914 171.078 199.365 169.628 199.832C166.779 200.75 161.888 201.843 152.505 204.056C151.197 204.365 150.155 204.471 149.325 204.408C148.499 204.344 147.766 204.101 147.237 203.592C146.685 203.061 146.517 202.397 146.548 201.852C146.563 201.589 146.624 201.335 146.723 201.11C146.792 200.951 146.983 200.566 147.407 200.326C154.874 196.119 158.521 193.894 162.186 191.679C165.865 189.455 169.556 187.243 177.086 183.074L177.096 183.068L177.107 183.062C177.855 182.665 178.959 182.054 179.991 181.541C180.513 181.283 181.042 181.036 181.531 180.842C181.994 180.658 182.516 180.482 182.99 180.427L183.121 180.414Z" stroke="#312114" stroke-width="2.69231"/>
</g>
<g filter="url(#filter2_d_3692_5176)">
<path fill-rule="evenodd" clip-rule="evenodd" d="M95.8434 186.088C95.6599 185.867 94.9636 185.032 93.6344 183.259C92.7597 182.092 93.782 181.379 95.0673 181.826C97.0646 182.519 98.7937 183.119 118.075 194.821C129.411 201.701 130.541 201.628 129.757 202.336C128.219 203.724 127.838 203.375 108.811 198.821C105.966 198.14 105.198 197.429 95.8434 186.088Z" fill="#FFD193"/>
<path d="M92.6548 180.924C93.4778 180.204 94.6396 180.251 95.5093 180.553L95.5083 180.554C97.6705 181.305 99.5364 181.995 118.773 193.67C124.427 197.101 127.508 198.783 129.137 199.729C129.541 199.964 129.877 200.165 130.14 200.341C130.381 200.501 130.661 200.703 130.875 200.951C131.117 201.23 131.433 201.768 131.243 202.453C131.104 202.95 130.744 203.259 130.659 203.336L130.658 203.335C130.211 203.738 129.664 204.186 128.732 204.341C127.931 204.474 126.941 204.374 125.603 204.132C122.888 203.64 117.966 202.396 108.498 200.13V200.129C107.747 199.949 107.028 199.745 106.252 199.319C105.486 198.898 104.732 198.3 103.827 197.414C102.046 195.671 99.4614 192.589 94.8091 186.949L94.1138 186.092C93.7435 185.624 93.2293 184.963 92.5571 184.066C92.2342 183.635 91.982 183.11 91.9634 182.522C91.9435 181.891 92.201 181.32 92.6548 180.924Z" stroke="#312114" stroke-width="2.69231"/>
</g>
<path fill-rule="evenodd" clip-rule="evenodd" d="M169.128 176.307C168.88 178.127 169.017 182.646 164.772 182.757C164.027 182.776 162.149 181.772 162.593 179.862C162.737 179.242 164.396 163.691 168.287 163.489C173.957 163.193 170.923 166.765 169.738 172.765C169.682 173.047 169.692 173.027 169.128 176.307Z" fill="#31211B"/>
<path fill-rule="evenodd" clip-rule="evenodd" d="M116.463 165.125C118.65 167.353 121.075 180.173 119.728 181.759C118.524 183.176 114.562 182.739 113.975 178.632C113.605 176.045 113.309 173.587 113.256 173.148C112.8 169.37 109.594 163.214 115.034 164.234C115.167 164.259 115.36 164.295 116.463 165.125Z" fill="#31211B"/>
<path fill-rule="evenodd" clip-rule="evenodd" d="M202.17 130.454C202.356 130.691 202.7 130.77 202.886 131.007C203.292 131.527 194.881 161.959 193.77 162.379C193.582 162.45 191.747 162.939 193.092 159.954C193.514 159.018 196.334 148.078 196.601 147.042C198.27 140.569 197.763 140.471 199.889 134.095C199.913 134.022 199.864 134.03 199.536 133.201C201.317 131.398 201.363 130.96 202.17 130.454Z" fill="#31211B"/>
<path fill-rule="evenodd" clip-rule="evenodd" d="M83.3645 140.326C83.714 140.476 84.0756 140.631 87.2898 143.004C86.0976 143.774 86.8021 144.071 87.0737 145.459C87.186 146.033 87.561 145.928 89.0436 152.504C90.4596 158.785 93.6268 170.118 90.4992 167.201C89.9442 166.683 88.3438 158.004 85.9426 150.148C84.4177 145.159 82.6299 141.201 82.8917 140.753C82.9989 140.57 83.2576 140.509 83.3645 140.326Z" fill="#31211B"/>
<path fill-rule="evenodd" clip-rule="evenodd" d="M55.5469 150.511C55.1407 150.289 52.9626 149.095 50.1039 152.495C49.4123 151.839 49.4487 151.806 48.5563 151.517C48.1085 151.373 44.2095 150.111 44.0224 147.777C43.759 144.498 49.368 150.308 49.9786 148.535C50.0628 148.291 41.9199 139.402 44.5625 138.977C45.7888 138.78 51.1407 148.139 54.6076 149.331C55.0178 149.472 55.1924 149.872 55.5469 150.511Z" fill="#31211B"/>
<path fill-rule="evenodd" clip-rule="evenodd" d="M100.263 146.997C100.147 148.917 101.818 152.672 102.401 155.229C103.212 158.784 103.489 158.687 104.322 162.226C104.497 162.971 103.881 163.516 103.453 162.545C99.9526 154.6 99.1263 155.036 96.9956 150.174C97.4481 149.957 97.4633 150.046 97.8504 149.765C99.2571 148.741 99.3009 148.781 99.4003 148.554C99.4547 148.43 99.2778 148.291 99.3068 148.159C99.4132 147.676 99.6164 147.43 99.6602 147.377C99.8931 147.094 100.012 147.303 100.263 146.997Z" fill="#31211B"/>
<path fill-rule="evenodd" clip-rule="evenodd" d="M224.685 150.21C227.122 147.611 228.906 147.106 233.465 141.038C233.6 140.858 236.067 137.575 236.053 139.952C236.05 140.474 233.573 145.385 229.697 149.312C229.559 149.452 228.679 150.344 228.472 151.444C226.283 149.764 225.835 149.912 224.685 150.21Z" fill="#31211B"/>
<path fill-rule="evenodd" clip-rule="evenodd" d="M92.8928 52.9224C91.4661 54.0769 91.5166 54.0757 90.0387 55.2256C88.6133 52.5843 88.8309 47.7555 89.3691 47.4874C91.2501 46.5502 91.207 50.4464 92.8928 52.9224Z" fill="#312114"/>
<path fill-rule="evenodd" clip-rule="evenodd" d="M163.915 41.9528C164.119 36.9372 166.21 33.7264 167.043 37.1666C167.24 37.9803 167.146 42.1552 167.126 42.242C167.072 42.4777 166.736 42.5804 166.683 42.8161C166.463 42.7422 166.462 42.7661 163.915 41.9528Z" fill="#312114"/>
<path fill-rule="evenodd" clip-rule="evenodd" d="M229.559 152.2C229.917 151.941 232.73 149.45 232.855 149.335C233.308 148.916 234.56 146.248 236.029 146.922C237.222 147.47 233.929 150.799 230.544 153.196C230.061 152.67 230.078 152.697 229.559 152.2Z" fill="#31211B"/>
<path fill-rule="evenodd" clip-rule="evenodd" d="M93.5527 234.982C94.0212 234.809 94.3547 234.277 94.1524 234.761C94.1324 234.808 94.1077 234.777 93.5527 234.982Z" fill="#E9A671"/>
<path fill-rule="evenodd" clip-rule="evenodd" d="M130.346 144.434L140.566 156.549C141.448 157.594 142.757 158.18 144.124 158.141L153.118 157.885C154.292 157.851 155.406 157.359 156.221 156.513L178.7 133.189L130.346 144.434Z" fill="#AA7B53"/>
<path fill-rule="evenodd" clip-rule="evenodd" d="M183.47 129.102C181.641 129.256 181.679 130.317 179.727 132.2C178.469 133.524 178.48 133.519 178.368 133.63C169.035 142.878 153.729 144.566 147.034 144.806C135.547 145.217 131.61 144.862 130.346 144.435C129.885 144.278 129.436 143.267 128.796 142.188C131.424 141.404 139.453 144.743 154.586 141.176C163.216 139.142 168.873 137.565 180.308 128.895C183.751 126.285 192.312 116.667 195.116 106.304C200.931 84.8161 188.701 70.7464 187.868 69.5805C184.119 64.3387 169.272 50.4448 145.178 49.3356C89.5412 46.7733 65.4397 94.8239 95.8289 125.52C99.2371 128.963 100.55 130.005 107.22 134.185C106.737 135.011 106.724 134.973 106.097 135.663C77.1803 118.49 71.2899 83.6565 97.1847 61.9573C124.481 39.084 174.757 43.2761 192.683 73.4232C201.586 88.3966 199.177 105.696 192.758 116.403C189.537 121.777 188.79 123.079 183.991 127.898C183.304 128.587 183.478 129.066 183.47 129.102Z" fill="#6D4A2C"/>
<defs>
<filter id="filter0_d_3692_5176" x="81.225" y="183.737" width="115.343" height="65.0309" filterUnits="userSpaceOnUse" color-interpolation-filters="sRGB">
<feFlood flood-opacity="0" result="BackgroundImageFix"/>
<feColorMatrix in="SourceAlpha" type="matrix" values="0 0 0 0 0 0 0 0 0 0 0 0 0 0 0 0 0 0 127 0" result="hardAlpha"/>
<feOffset/>
<feGaussianBlur stdDeviation="6.73077"/>
<feComposite in2="hardAlpha" operator="out"/>
<feColorMatrix type="matrix" values="0 0 0 0 1 0 0 0 0 0.710559 0 0 0 0 0.318096 0 0 0 1 0"/>
<feBlend mode="normal" in2="BackgroundImageFix" result="effect1_dropShadow_3692_5176"/>
<feBlend mode="normal" in="SourceGraphic" in2="effect1_dropShadow_3692_5176" result="shape"/>
</filter>
<filter id="filter1_d_3692_5176" x="131.737" y="165.596" width="68.7285" height="53.6362" filterUnits="userSpaceOnUse" color-interpolation-filters="sRGB">
<feFlood flood-opacity="0" result="BackgroundImageFix"/>
<feColorMatrix in="SourceAlpha" type="matrix" values="0 0 0 0 0 0 0 0 0 0 0 0 0 0 0 0 0 0 127 0" result="hardAlpha"/>
<feOffset/>
<feGaussianBlur stdDeviation="6.73077"/>
<feComposite in2="hardAlpha" operator="out"/>
<feColorMatrix type="matrix" values="0 0 0 0 1 0 0 0 0 0.710559 0 0 0 0 0.318096 0 0 0 1 0"/>
<feBlend mode="normal" in2="BackgroundImageFix" result="effect1_dropShadow_3692_5176"/>
<feBlend mode="normal" in="SourceGraphic" in2="effect1_dropShadow_3692_5176" result="shape"/>
</filter>
<filter id="filter2_d_3692_5176" x="77.1542" y="165.539" width="68.9558" height="53.668" filterUnits="userSpaceOnUse" color-interpolation-filters="sRGB">
<feFlood flood-opacity="0" result="BackgroundImageFix"/>
<feColorMatrix in="SourceAlpha" type="matrix" values="0 0 0 0 0 0 0 0 0 0 0 0 0 0 0 0 0 0 127 0" result="hardAlpha"/>
<feOffset/>
<feGaussianBlur stdDeviation="6.73077"/>
<feComposite in2="hardAlpha" operator="out"/>
<feColorMatrix type="matrix" values="0 0 0 0 1 0 0 0 0 0.710559 0 0 0 0 0.318096 0 0 0 1 0"/>
<feBlend mode="normal" in2="BackgroundImageFix" result="effect1_dropShadow_3692_5176"/>
<feBlend mode="normal" in="SourceGraphic" in2="effect1_dropShadow_3692_5176" result="shape"/>
</filter>
</defs>
</svg>
