<?xml version="1.0" encoding="utf-8"?>
<svg viewBox="0 0 280 275" xmlns="http://www.w3.org/2000/svg">
  <defs>
    <radialGradient id="paint0_radial_3692_5176" cx="0" cy="0" r="1" gradientUnits="userSpaceOnUse" gradientTransform="translate(110 192.308) rotate(90) scale(44)">
      <stop stop-color="#FFD193"/>
      <stop offset="1" stop-color="#FFD193" stop-opacity="0"/>
    </radialGradient>
    <radialGradient id="paint1_radial_3692_5176" cx="0" cy="0" r="1" gradientUnits="userSpaceOnUse" gradientTransform="translate(170 192.308) rotate(90) scale(44)">
      <stop stop-color="#FFD193"/>
      <stop offset="1" stop-color="#FFD193" stop-opacity="0"/>
    </radialGradient>
  </defs>
  <path d="M 163.105 1.799 C 166.588 0.543 169.577 2.569 170.996 3.515 C 173.029 4.869 174.777 6.271 178.029 8.26 C 179.589 9.214 181.395 10.319 182.605 12.603 C 183.124 13.584 183.46 14.634 183.739 15.646 C 184.018 16.66 184.316 17.936 184.671 19.417 C 186.78 28.217 187.935 32.498 188.69 34.685 C 188.918 35.347 189.075 35.707 189.159 35.884 C 189.189 35.906 189.228 35.934 189.276 35.969 C 189.381 36.044 189.518 36.142 189.685 36.26 C 190.019 36.497 190.459 36.806 190.971 37.16 C 191.995 37.871 193.289 38.756 194.582 39.614 C 195.359 40.129 196.119 40.622 196.809 41.059 C 197.651 39.802 198.612 38.292 199.709 36.615 C 200.941 34.733 202.326 32.679 203.637 31.068 C 204.285 30.27 205.031 29.437 205.83 28.76 C 206.441 28.244 207.899 27.09 209.896 27.03 L 209.899 27.03 C 211.095 26.995 212.779 27.149 214.377 28.376 C 215.676 29.375 216.459 30.765 216.99 31.791 C 217.567 32.908 218.241 34.425 219.056 36.235 C 219.898 38.104 220.969 40.467 222.419 43.473 C 223.802 46.342 224.586 48.641 224.348 51.328 C 224.245 52.49 223.96 53.581 223.721 54.476 C 223.465 55.439 223.191 56.42 222.907 57.738 C 221.134 65.969 220.305 69.395 219.803 71.753 C 219.698 72.243 219.632 72.586 219.589 72.834 C 220.472 75.106 222.484 79.236 224.537 83.849 C 225.568 86.165 226.577 88.543 227.3 90.591 C 227.661 91.612 227.982 92.642 228.196 93.595 C 228.38 94.416 228.613 95.701 228.398 96.999 C 228.299 97.601 228.173 98.051 227.714 99.505 L 227.711 99.513 L 227.71 99.52 L 227.098 101.436 L 226.949 101.969 L 226.945 101.984 L 226.94 101.998 C 226.048 105.106 222.009 118.639 219.01 128.441 C 220.482 127.684 222.029 126.938 223.516 126.312 C 225.396 125.521 227.65 124.714 229.649 124.566 C 234.363 124.218 238.368 126.367 241.453 128.972 C 244.547 131.584 247.173 135.027 249.298 138.247 C 251.438 141.49 253.236 144.773 254.542 147.105 C 255.071 148.05 255.491 148.786 255.827 149.337 C 256.767 149.497 257.872 149.65 259.123 149.81 C 260.966 150.047 263.108 150.299 265.08 150.609 C 267.025 150.914 269.112 151.318 270.863 151.937 C 271.74 152.248 272.728 152.679 273.624 153.308 C 274.454 153.892 275.472 154.835 276.049 156.265 L 276.159 156.557 L 276.165 156.575 L 276.17 156.593 C 276.264 156.871 276.391 157.415 276.446 157.641 C 276.544 158.052 276.678 158.62 276.834 159.295 C 277.145 160.643 277.547 162.439 277.931 164.28 C 278.313 166.108 278.688 168.038 278.936 169.638 C 279.059 170.43 279.163 171.217 279.214 171.904 C 279.24 172.244 279.258 172.633 279.247 173.024 C 279.239 173.317 279.212 174.02 278.949 174.782 L 278.949 174.785 C 278.619 175.739 278.066 176.451 277.696 176.869 C 277.272 177.349 276.784 177.782 276.275 178.155 C 275.29 178.876 273.902 179.604 272.256 179.854 C 270.505 180.121 268.386 179.835 266.534 178.35 C 264.786 176.947 263.815 174.903 263.303 172.73 C 262.718 170.246 262.316 168.334 262.017 166.865 C 261.87 166.142 261.756 165.568 261.662 165.098 C 260.823 164.952 260.089 164.824 259.447 164.713 C 259.517 165.646 259.582 166.707 259.621 167.874 C 259.782 172.673 259.509 179.271 257.485 187.293 C 257.112 188.769 256.897 189.78 256.646 190.832 C 256.423 191.768 256.152 192.836 255.707 193.837 C 254.6 196.331 252.786 197.619 250.754 198.818 C 250.917 198.722 248.432 200.446 246.075 201.372 C 244.854 201.851 243.096 202.375 241.2 202.214 C 239.095 202.035 236.968 201 235.61 198.8 L 235.482 198.582 C 234.897 197.564 234.504 196.373 234.505 195.057 C 234.507 193.736 234.906 192.594 235.441 191.682 C 236.409 190.033 237.927 188.969 238.833 188.38 C 239.347 188.046 239.866 187.743 240.281 187.501 C 240.591 187.32 240.834 187.176 241.044 187.049 C 241.873 183.626 242.25 181.918 242.402 181.007 C 242.405 180.987 242.407 180.967 242.41 180.949 C 242.358 180.825 242.298 180.68 242.228 180.516 C 242.201 180.6 242.173 180.685 242.141 180.77 L 242.138 180.78 C 241.812 181.649 241.263 182.301 241.077 182.52 C 240.767 182.887 240.397 183.262 239.988 183.618 C 239.205 184.298 238.015 185.136 236.514 185.612 C 234.932 186.114 232.824 186.249 230.73 185.124 C 228.726 184.048 227.416 182.18 226.558 180.106 C 225.277 177.008 224.115 174.489 223.136 172.335 C 222.202 170.279 221.32 168.318 220.814 166.641 C 220.334 165.047 219.837 162.63 221.005 160.256 C 222.19 157.849 224.451 156.76 226.165 156.163 C 226.341 156.102 226.514 156.044 226.683 155.986 C 226.55 155.894 226.384 155.778 226.177 155.635 L 226.089 155.574 L 226.003 155.509 C 225.983 155.494 225.964 155.479 225.945 155.464 C 223.111 157.421 221.819 158.494 221.264 159.027 L 215.11 163.446 C 214.969 163.551 214.827 163.658 214.682 163.765 C 212.803 165.162 210.486 166.896 207.911 168.981 L 206.793 169.896 C 206.144 170.432 205.564 170.879 205.252 171.127 C 205.078 171.266 204.972 171.353 204.898 171.418 C 204.863 171.448 204.841 171.469 204.828 171.482 C 204.777 171.567 204.624 171.86 204.329 172.644 C 204.29 172.776 204.268 172.851 204.245 172.932 C 204.242 172.942 204.238 172.951 204.236 172.958 C 204.242 172.928 204.241 172.922 204.235 172.966 C 204.226 173.035 204.213 173.145 204.19 173.368 L 204.122 174.01 L 203.876 174.606 C 202.153 178.782 200.008 186.447 199.68 187.624 L 199.631 187.8 L 199.568 187.971 C 199.436 188.326 199.375 188.488 199.306 188.676 C 199.249 188.832 199.231 188.891 199.221 188.923 C 199.203 188.984 199.173 189.089 199.044 189.757 L 198.944 190.276 L 198.726 190.757 L 198.725 190.759 C 198.725 190.759 198.724 190.762 198.724 190.764 C 198.722 190.768 198.719 190.774 198.716 190.781 C 198.709 190.797 198.7 190.818 198.689 190.845 C 198.667 190.901 198.638 190.974 198.603 191.064 C 198.532 191.247 198.446 191.48 198.344 191.764 C 198.141 192.331 197.894 193.054 197.617 193.89 C 197.063 195.561 196.411 197.63 195.79 199.707 C 195.168 201.79 194.59 203.839 194.179 205.485 C 193.973 206.311 193.819 206.991 193.724 207.499 C 193.668 207.792 193.647 207.954 193.639 208.017 C 193.684 208.946 193.989 212.79 197.548 217.958 C 197.607 218.013 197.675 218.078 197.753 218.152 L 198.178 218.558 L 198.484 219.06 C 198.641 219.318 198.759 219.517 198.837 219.648 C 198.921 219.791 198.941 219.822 198.949 219.833 C 198.952 219.837 198.959 219.847 198.972 219.864 C 199.014 219.917 199.09 220.01 199.246 220.192 L 199.393 220.365 L 199.523 220.552 C 199.907 221.106 200.308 221.618 200.731 222.151 C 201.012 222.505 201.405 222.993 201.751 223.482 C 202.587 224.373 203.469 225.425 204.191 226.266 C 204.971 227.174 205.604 227.882 206.122 228.379 L 206.337 228.579 L 206.861 229.049 L 206.928 229.162 C 206.994 229.229 207.069 229.305 207.153 229.388 C 207.558 229.792 208.144 230.373 208.864 231.085 C 210.304 232.509 212.275 234.451 214.406 236.531 C 218.706 240.729 223.537 245.374 226.019 247.548 L 225.999 247.529 C 225.901 247.41 229.459 249.98 231.584 252.503 C 232.776 253.917 234.141 255.942 234.568 258.407 C 235.049 261.189 234.237 263.991 231.998 266.288 C 231.636 266.659 230.784 267.552 229.322 268.208 C 227.921 268.836 226.301 269.107 224.413 269.084 C 220.771 269.04 215.301 267.883 206.531 264.793 C 204.586 264.107 198.947 261.668 197.76 261.073 L 196 260.19 L 195.944 259.994 C 195.351 259.641 194.623 259.208 193.833 258.745 C 191.798 257.553 189.458 256.21 187.979 255.439 L 187.632 255.258 L 187.322 255.021 C 186.784 254.608 181.926 250.945 179.71 249.225 C 179.295 248.995 178.973 248.763 178.779 248.616 C 178.431 248.352 178.178 248.119 178.11 248.056 L 178.08 248.029 L 178.051 248.001 C 178.039 247.989 178.028 247.98 178.018 247.97 C 177.917 247.912 177.778 247.832 177.607 247.729 L 177.194 247.478 L 176.843 247.145 C 175.564 245.93 174.542 244.919 173.745 244.138 C 173.356 243.757 173.039 243.449 172.774 243.197 C 171.856 243.647 170.757 244.2 169.517 244.811 C 167.879 245.617 165.963 246.534 164.327 247.143 L 163.646 247.384 C 158.871 248.968 144.85 253.8 123.831 249.479 C 120.94 248.885 117.807 247.817 117.341 247.659 C 115.874 247.161 114.249 246.439 113.046 245.914 C 112.4 245.632 111.867 245.404 111.426 245.23 C 110.927 245.035 110.792 245.01 110.876 245.026 C 110.122 244.878 109.474 244.634 108.944 244.386 C 108.942 244.389 108.941 244.391 108.94 244.393 C 108.885 244.463 108.814 244.559 108.671 244.748 L 108.486 244.996 L 108.267 245.215 C 107.792 245.693 104.775 248.738 103.847 249.869 L 103.643 250.119 L 103.403 250.336 C 103.082 250.63 102.995 250.714 102.927 250.782 C 102.888 250.823 102.841 250.871 102.75 250.966 C 102.666 251.056 102.539 251.189 102.381 251.355 L 102.127 251.62 L 102.083 251.654 C 101.933 251.819 101.726 252.043 101.426 252.337 C 100.703 253.047 99.489 254.13 97.192 255.99 L 96.271 256.908 L 95.929 257.141 C 95.739 257.27 95.642 257.337 95.57 257.387 C 95.553 257.399 95.541 257.408 95.533 257.413 C 95.525 257.421 95.512 257.433 95.492 257.451 C 95.423 257.515 95.336 257.598 95.165 257.759 L 95.028 257.888 L 94.88 258.006 C 94.757 258.104 93.304 259.201 91.881 260.26 C 91.147 260.806 90.38 261.373 89.744 261.834 C 89.219 262.215 88.514 262.722 88.075 262.976 L 88.073 262.977 C 87.962 263.04 87.855 263.096 87.754 263.147 C 87.565 263.356 87.339 263.573 87.066 263.779 L 86.615 264.119 L 86.093 264.336 C 86.113 264.328 86.027 264.365 85.767 264.5 C 85.531 264.622 85.231 264.783 84.856 264.986 C 84.169 265.36 83.097 265.952 82.036 266.527 C 79.816 267.73 76.969 269.226 73.993 270.557 C 71.061 271.868 67.788 273.117 64.749 273.712 C 62.014 274.247 58.003 274.554 54.973 272.082 C 53.083 270.54 51.862 268.616 51.443 266.433 C 51.041 264.334 51.466 262.444 52.03 261.025 C 53.106 258.313 55.068 256.387 55.368 256.086 L 57.583 253.852 C 58.711 252.709 60.125 251.264 61.517 249.813 C 62.913 248.357 64.254 246.928 65.253 245.804 C 65.501 245.524 65.717 245.273 65.901 245.056 L 65.881 244.751 L 68.759 241.33 L 81.006 225.142 L 85.831 214.436 L 84.731 203.158 L 79.835 186.112 L 79.828 186.086 L 79.82 186.06 L 77.19 176.475 C 77.177 176.453 77.164 176.429 77.15 176.406 C 76.938 176.044 76.628 175.518 76.238 174.872 C 75.458 173.578 74.369 171.815 73.129 169.935 C 70.513 165.967 67.668 162.165 65.749 160.621 C 65.721 160.601 65.393 160.357 64.769 159.948 C 64.129 159.528 63.248 158.983 62.201 158.405 C 60.071 157.231 57.415 156.016 54.76 155.378 L 54.382 155.287 C 54.236 155.413 54.04 155.604 53.802 155.887 L 53.79 155.9 C 54.149 156.027 54.529 156.163 54.931 156.308 C 56.481 156.867 58.625 157.974 59.627 160.458 C 60.525 162.682 60.021 164.919 59.582 166.388 C 59.103 167.992 58.295 169.906 57.384 172.011 C 56.437 174.2 55.293 176.79 53.973 180.012 C 53.056 182.253 51.552 184.13 49.392 185.131 C 47.233 186.132 45.013 185.98 43.241 185.293 C 41.522 184.627 40.025 183.393 39.069 181.827 C 38.782 181.355 38.527 180.818 38.335 180.233 C 38.274 180.41 38.223 180.566 38.185 180.701 C 38.177 180.728 38.172 180.754 38.166 180.778 C 38.731 184.063 39.085 185.899 39.33 186.942 C 39.366 186.961 39.403 186.98 39.44 187 C 40.238 187.428 41.366 188.083 42.423 188.927 C 43.374 189.686 44.83 191.033 45.514 192.992 C 45.891 194.069 46.035 195.341 45.708 196.684 C 45.387 198.005 44.685 199.089 43.861 199.941 C 43.142 200.683 42.127 201.485 40.717 201.912 C 39.319 202.336 37.968 202.259 36.785 201.999 C 34.664 201.533 32.205 200.257 29.34 198.601 C 28.349 198.029 27.293 197.334 26.391 196.346 C 25.423 195.287 24.865 194.15 24.476 193.019 C 24.128 192.007 23.861 190.818 23.596 189.655 C 23.314 188.414 22.977 186.921 22.468 184.997 C 21.02 179.525 20.96 173.085 21.089 168.281 C 21.122 167.048 21.173 165.78 21.221 164.665 C 21.18 164.672 21.139 164.678 21.098 164.684 C 20.287 164.807 19.509 164.939 18.833 165.067 C 18.623 166.175 18.352 167.696 18.047 169.149 C 17.733 170.646 17.333 172.32 16.812 173.782 C 16.551 174.513 16.218 175.312 15.783 176.057 C 15.38 176.748 14.694 177.737 13.583 178.468 L 13.58 178.47 C 12.555 179.143 11.284 179.473 10.326 179.616 C 9.255 179.776 7.76 179.827 6.22 179.342 C 4.554 178.816 2.799 177.627 1.84 175.464 C 0.953 173.464 1.031 171.259 1.521 169.174 L 1.694 168.421 C 2.084 166.686 2.379 165.106 2.643 163.651 C 2.933 162.049 3.213 160.44 3.539 159.089 C 3.855 157.781 4.325 156.207 5.228 154.847 C 6.27 153.278 7.839 152.07 9.953 151.664 C 15.455 150.607 19.704 150.009 22.418 149.561 C 23.478 149.387 24.232 149.246 24.766 149.124 C 24.901 148.88 25.062 148.59 25.249 148.243 C 25.761 147.294 26.417 146.063 27.17 144.711 C 28.678 142.007 30.658 138.668 33.011 135.529 C 35.331 132.434 38.209 129.265 41.593 127.145 C 45.072 124.965 49.384 123.735 54.059 125.24 C 55.696 125.767 57.507 126.564 59.267 127.434 L 58.887 126.367 C 57.694 122.984 53.17 110.974 51.829 106.998 C 51.683 106.711 50.338 103.646 49.725 100.839 C 49.416 99.425 49.022 97.018 49.823 94.82 C 50.293 93.53 51.236 92.16 52.876 91.336 C 53.952 90.796 55.057 90.629 56.07 90.652 C 55.773 88.488 55.454 85.877 55.118 82.71 C 54.858 80.257 54.836 78.258 55.874 75.876 C 56.296 74.906 56.861 73.945 57.427 73.004 C 58.032 71.999 58.727 70.878 59.625 69.331 C 62.11 65.05 64.46 61.33 66.006 58.758 C 66.814 57.415 67.388 56.41 67.751 55.677 C 67.84 55.499 67.904 55.358 67.95 55.251 C 67.835 52.786 67.345 47.695 66.904 42.633 C 66.673 39.988 66.461 37.394 66.347 35.369 C 66.29 34.365 66.253 33.429 66.256 32.67 C 66.258 32.296 66.269 31.885 66.306 31.492 C 66.322 31.321 66.39 30.387 66.856 29.466 L 66.858 29.46 C 67.581 28.036 69.33 25.644 71.253 23.026 C 73.323 20.206 75.96 16.65 78.89 12.497 L 79.122 12.182 C 80.314 10.623 82.067 9.28 84.428 9.13 C 86.736 8.985 88.521 10.071 89.547 10.868 C 90.625 11.705 91.502 12.723 92.105 13.47 C 92.419 13.859 92.708 14.238 92.931 14.529 C 93.055 14.691 93.152 14.816 93.23 14.917 L 93.419 15.152 L 93.436 15.173 C 96.966 19.428 99.134 22.079 100.556 23.751 C 101.336 22.41 102.423 20.494 104.202 17.504 C 106.613 13.448 107.936 11.245 108.748 10.036 C 109.137 9.456 109.601 8.806 110.178 8.262 C 110.948 7.535 111.682 7.22 111.963 7.095 C 113.666 6.34 115.436 6.365 117.038 6.992 C 118.401 7.525 119.482 8.432 120.256 9.159 C 121.068 9.923 121.918 10.861 122.754 11.792 C 123.629 12.766 124.563 13.821 125.674 15.002 C 130.316 19.94 132.996 23.058 134.465 24.671 C 134.723 24.955 134.936 25.18 135.112 25.363 C 140.964 25.147 143.841 24.864 145.282 24.588 C 145.422 24.561 145.537 24.534 145.63 24.512 C 147.35 22.358 150.582 17.613 153.828 12.911 C 155.491 10.503 157.126 8.152 158.444 6.365 C 159.098 5.478 159.721 4.664 160.257 4.03 C 160.521 3.718 160.821 3.379 161.135 3.076 C 161.268 2.947 162.008 2.197 163.1 1.802 L 163.105 1.799 Z M 206.604 228.839 C 206.598 228.833 206.595 228.829 206.594 228.828 C 206.592 228.825 206.589 228.824 206.587 228.822 C 206.592 228.827 206.598 228.833 206.604 228.839 Z M 197.29 217.715 C 197.287 217.712 197.284 217.709 197.282 217.707 L 197.266 217.693 C 197.273 217.699 197.281 217.707 197.29 217.715 Z" fill="#1A1A1A"/>
  <path fill-rule="evenodd" clip-rule="evenodd" d="M 89.983 18.039 C 99.572 29.596 99.703 30.08 101.191 29.724 C 102.868 29.323 103.095 28.144 108.059 19.796 C 112.954 11.565 113.027 11.533 113.783 11.198 C 115.975 10.226 117.781 13.157 122.405 18.075 C 131.654 27.912 132.572 29.943 134.093 29.892 C 147.358 29.453 148.024 28.655 148.785 27.744 C 152.385 23.435 163.202 6.535 164.627 6.021 C 166.813 5.233 169.102 8.06 175.687 12.088 C 178.871 14.035 178.836 14.321 180.308 20.462 C 184.506 37.984 185.123 38.452 186.391 39.417 C 187.247 40.068 196.93 46.83 197.894 46.712 C 199.513 46.514 207.084 31.6 210.031 31.515 C 212.73 31.436 212.48 33.189 218.377 45.422 C 220.943 50.744 219.768 51.003 218.521 56.792 C 215.114 72.605 214.744 72.656 215.222 73.972 C 216.932 78.673 224.503 93.044 223.971 96.267 C 223.918 96.587 223.891 96.754 222.799 100.149 C 221.286 101.069 220.374 103.027 212.818 114.693 C 203.135 129.646 203.772 130.188 202.433 130.958 C 201.626 131.464 201.58 131.902 199.799 133.705 C 198.692 134.798 197.768 136.223 195.427 138.359 C 194.093 139.576 191.054 136.791 186.473 134.721 C 183.908 133.563 183.461 134.691 177.411 140.724 C 177.383 140.752 157.067 161.392 157.053 161.403 C 156.188 162.114 155.396 162.766 143.089 162.457 C 139.39 162.364 139.466 161.174 134.72 155.857 C 129.637 150.164 129.509 150.328 124.423 144.651 C 122.636 142.657 122.364 142.945 116.493 142.323 C 110.466 141.685 110.506 141.583 107.096 141.18 C 105.038 140.937 104.517 142.156 103.031 143.853 C 101.459 145.649 100.996 145.395 100.526 147.501 C 100.275 147.807 100.156 147.598 99.923 147.881 C 99.879 147.934 99.676 148.18 99.57 148.663 C 99.541 148.795 99.718 148.934 99.663 149.058 C 99.564 149.285 99.52 149.245 98.114 150.269 C 97.726 150.55 97.711 150.461 97.259 150.678 C 96.477 150.112 89.72 145.226 87.553 143.508 C 84.339 141.135 83.977 140.98 83.628 140.83 C 78.87 137.249 57.426 104.83 56.609 104.889 C 56.356 104.907 56.265 105.342 56.012 105.361 C 55.998 105.319 50.763 94.197 56.585 95.2 C 59.14 95.639 62.297 103.222 62.531 101 C 62.69 99.489 61.431 99.676 59.58 82.236 C 59.121 77.901 59.818 77.937 63.506 71.584 C 68.451 63.064 72.503 57.378 72.456 55.644 C 72.326 50.874 70.234 32.725 70.861 31.49 C 71.879 29.482 76.634 23.478 82.557 15.083 C 85.393 11.063 88.543 16.325 89.983 18.039 Z" fill="#31211B"/>
  <path fill-rule="evenodd" clip-rule="evenodd" d="M 107.483 134.689 C 100.813 130.509 99.5 129.467 96.092 126.024 C 65.703 95.328 89.804 47.278 145.441 49.84 C 169.535 50.949 184.382 64.843 188.131 70.085 C 188.964 71.251 201.194 85.32 195.379 106.808 C 192.575 117.171 184.014 126.789 180.571 129.399 C 169.137 138.069 163.479 139.646 154.849 141.68 C 139.716 145.247 131.687 141.908 129.059 142.692 C 125.774 141.075 124.7 136.508 121.591 136.042 C 110.899 134.443 108.614 134.607 107.483 134.689 Z" fill="#AA7B53"/>
  <path fill-rule="evenodd" clip-rule="evenodd" d="M 102.652 101.396 C 102.524 100.56 101.596 94.48 102.475 90.833 C 108.313 66.601 139.026 60.744 156.467 68.369 C 169.172 73.924 171.261 79.819 173.824 83.891 C 176.14 87.572 178.058 98.041 174.388 106.055 C 166.663 122.924 150.936 126.008 147.429 126.894 C 136.558 129.639 108.959 126.527 102.652 101.396 Z" fill="#6D4A2C"/>
  <path d="M 181.151 244.757 C 181.213 244.815 181.671 245.236 182.116 245.413 C 184.098 246.966 189.397 250.957 190.052 251.46 C 193.232 253.117 199.765 257.039 199.772 257.061 C 200.801 257.578 206.268 259.942 208.023 260.56 C 225.359 266.669 227.617 264.353 228.785 263.155 C 233.83 257.981 223.963 251.712 223.063 250.924 C 217.88 246.385 203.374 231.977 203.341 231.92 C 201.733 230.477 199.838 227.952 198.251 226.31 C 197.764 225.554 196.785 224.478 195.835 223.107 C 195.156 222.313 195.214 222.315 194.653 221.395 C 194.156 220.919 194.15 220.93 194.116 220.882 C 189.426 214.259 189.198 209.167 189.148 208.068 L 189.148 208.067 C 189.044 205.75 193.668 191.049 194.639 188.906 C 194.889 187.61 194.907 187.638 195.358 186.417 L 195.361 186.408 C 195.676 185.278 197.887 177.357 199.728 172.894 C 199.821 172.012 199.83 172.043 200.075 171.207 C 201.172 168.25 201.496 168.451 203.934 166.437 C 210.165 161.29 215.116 158.061 216.275 156.818 L 224.948 150.714 C 227.385 148.115 229.169 147.61 233.728 141.542 C 233.863 141.362 236.33 138.079 236.316 140.456 C 236.313 140.978 233.835 145.889 229.96 149.816 C 229.822 149.956 228.941 150.848 228.735 151.948 C 229.778 152.671 229.8 152.685 229.82 152.702 L 229.822 152.704 C 230.18 152.445 232.993 149.954 233.118 149.839 C 233.571 149.42 234.823 146.752 236.292 147.426 C 237.485 147.974 234.192 151.303 230.807 153.7 C 232.196 155.475 232.32 155.341 233.663 157.161 C 234.818 158.726 232.917 158.563 227.64 160.401 C 222.077 162.338 225.436 165.653 230.704 178.39 C 233.208 184.443 237.67 179.918 237.937 179.203 C 238.74 177.046 232.758 166.396 232.922 165.053 C 233.028 164.182 237.234 163.327 237.414 163.328 C 239.311 163.34 246.16 177.929 246.825 179.927 C 247.065 180.648 247.16 180.935 245.123 189.276 C 244.657 191.182 237.252 192.656 239.373 196.348 C 241.484 200.025 247.728 195.393 248.474 194.954 C 252.126 192.798 251.62 192.196 253.134 186.195 C 256.937 171.126 254.136 161.532 254.737 160.019 C 255.025 159.293 255.355 159.453 264.459 161.03 C 265.955 161.289 265.384 161.986 267.671 171.702 C 269.182 178.118 274.246 174.657 274.707 173.32 C 275.228 171.806 271.995 158.249 271.917 158.021 C 270.837 154.893 259.069 154.73 253.443 153.442 C 251.343 152.961 242.325 128.129 229.979 129.041 C 225.105 129.401 212.86 137.097 212.844 137.109 C 211.446 138.235 211.599 137.037 211.632 136.944 C 213.191 132.533 222.419 101.643 222.798 100.149 C 221.286 101.069 220.373 103.027 212.818 114.693 C 203.135 129.646 203.772 130.188 202.433 130.958 C 202.619 131.195 202.963 131.274 203.149 131.511 C 203.554 132.031 195.144 162.463 194.033 162.883 C 193.844 162.954 192.01 163.443 193.355 160.458 C 193.777 159.522 196.597 148.582 196.864 147.546 C 198.532 141.073 198.026 140.975 200.152 134.599 C 200.176 134.526 200.127 134.534 199.799 133.705 C 198.692 134.798 197.768 136.223 195.427 138.359 C 194.093 139.576 191.054 136.791 186.473 134.721 C 183.908 133.563 183.46 134.691 177.411 140.724 C 177.383 140.752 157.067 161.392 157.053 161.403 C 156.188 162.114 155.395 162.766 143.088 162.457 C 139.389 162.364 139.466 161.174 134.719 155.857 C 129.637 150.164 129.509 150.327 124.423 144.651 C 122.635 142.657 122.363 142.945 116.493 142.323 C 110.466 141.685 110.506 141.583 107.095 141.18 C 105.038 140.937 104.517 142.155 103.031 143.853 C 101.458 145.649 100.996 145.395 100.526 147.501 C 100.41 149.421 102.081 153.176 102.664 155.733 C 103.475 159.288 103.752 159.191 104.585 162.73 C 104.76 163.475 104.144 164.02 103.716 163.049 C 100.215 155.104 99.389 155.54 97.258 150.678 L 97.252 150.673 C 96.442 150.087 89.714 145.221 87.553 143.508 C 86.361 144.278 87.065 144.575 87.337 145.963 C 87.449 146.537 87.824 146.432 89.307 153.008 C 90.723 159.289 93.89 170.622 90.762 167.705 C 90.207 167.187 88.607 158.508 86.206 150.652 C 84.681 145.663 82.893 141.705 83.155 141.257 C 83.262 141.074 83.521 141.013 83.628 140.83 C 78.87 137.249 57.426 104.83 56.609 104.889 C 56.356 104.907 56.265 105.342 56.012 105.361 C 57.255 109.102 61.802 121.142 63.118 124.874 C 67.045 136.007 68.352 137.903 66.786 136.905 C 65.713 136.219 57.759 131.145 52.684 129.511 C 40.418 125.562 30.3 149.008 27.971 152.537 C 27.148 153.784 21.656 153.985 10.8 156.07 C 7.598 156.686 7.907 161.606 5.89 170.198 C 4.417 176.473 10.1 175.388 11.116 174.72 C 13.396 173.219 14.289 163.299 15.072 161.539 C 15.419 160.758 25.472 159.505 25.644 159.649 C 26.452 160.324 24.264 174.244 26.806 183.849 C 28.932 191.884 28.188 192.753 31.586 194.717 C 37.444 198.103 39.144 198.362 40.637 196.82 C 43.758 193.595 36.354 190.523 36.016 190.287 C 35.392 189.851 35.131 189.669 33.662 181.071 C 33.149 178.071 41.856 164.082 41.902 164.019 C 42.148 163.68 42.895 162.648 47.131 164.457 C 48.196 164.912 47.423 165.346 42.623 177.233 C 41.422 180.208 47.396 184.236 49.821 178.311 C 55.186 165.208 57.826 162.122 53.408 160.528 C 47.081 158.245 46.987 158.603 46.44 158.402 C 45.938 158.218 45.603 157.57 50.367 152.999 C 49.675 152.343 49.712 152.31 48.819 152.021 C 48.371 151.877 44.472 150.615 44.285 148.281 C 44.022 145.002 49.631 150.812 50.241 149.039 C 50.326 148.795 42.183 139.906 44.825 139.481 C 46.052 139.284 51.403 148.643 54.87 149.835 C 55.281 149.976 55.455 150.376 55.81 151.015 C 62.191 152.55 67.998 156.672 68.562 157.126 C 73.661 161.229 81.364 174.728 81.364 174.728 L 84.148 184.873 L 89.157 202.315 L 90.413 215.191 L 84.89 227.448 L 72.272 244.123 L 70.481 246.253 C 70.484 246.299 70.481 246.34 70.471 246.377 C 70.144 247.638 59.535 258.263 58.543 259.257 C 58.013 259.788 53.07 264.737 57.81 268.605 C 63.235 273.032 81.806 261.262 84.366 260.195 C 84.569 260.042 84.576 259.709 84.778 259.557 C 85.084 259.326 85.498 259.282 85.83 259.091 C 86.582 258.656 92.008 254.558 92.082 254.498 C 92.71 253.904 92.69 253.918 93.401 253.433 L 94.191 252.648 C 98.936 248.816 98.713 248.574 99.136 248.256 C 99.752 247.612 99.724 247.619 100.379 247.022 C 101.479 245.682 104.698 242.441 105.084 242.052 C 105.614 241.347 105.599 241.366 106.235 240.771 C 108.681 237.501 109.389 240.161 111.743 240.624 C 113.103 240.891 116.292 242.564 118.784 243.41 C 119.252 243.569 122.147 244.552 124.734 245.084 C 144.618 249.171 157.747 244.613 162.233 243.125 C 165.085 242.179 170.087 239.421 172.537 238.35 C 174.047 237.69 174.945 239.151 179.934 243.891 C 180.591 244.29 180.595 244.226 181.151 244.757 Z" fill="#6D4A2C"/>
  <path fill-rule="evenodd" clip-rule="evenodd" d="M 148.932 124.696 C 113.171 132.854 88.236 96.079 115.423 74.541 C 126.378 65.862 157.716 60.215 171.732 83.748 C 176.061 91.018 178.114 108.818 159.215 120.286 C 158.45 120.75 154.149 123.359 148.932 124.696 Z" fill="#AA7B53"/>
  <path fill-rule="evenodd" clip-rule="evenodd" d="M 164.178 42.457 C 166.725 43.27 166.725 43.246 166.945 43.32 C 180.797 48.818 184.17 52.028 186.695 53.899 C 188.658 55.355 200.326 64.004 205.968 77.589 C 217.146 104.504 201.212 127.861 192.747 134.118 C 191.926 134.724 186.552 130.994 183.733 129.606 C 183.741 129.57 183.567 129.091 184.254 128.402 C 189.053 123.583 189.799 122.281 193.021 116.907 C 199.44 106.2 201.849 88.901 192.945 73.927 C 175.02 43.78 124.744 39.588 97.448 62.462 C 71.553 84.161 77.443 118.994 106.36 136.167 C 105.122 138.436 104.9 138.267 103.545 140.444 C 102.466 142.179 102.329 142.774 101.857 143.463 C 100.269 145.784 96.946 142.545 89.994 137.535 C 82.406 132.067 76.19 121.985 74.66 118.546 C 57.482 79.938 90.122 55.915 90.302 55.73 C 91.779 54.58 91.729 54.581 93.156 53.427 C 93.744 53.043 93.724 53.08 94.295 52.683 C 114.355 38.715 140.876 35.311 164.178 42.457 Z" fill="#AA7B53"/>
  <path fill-rule="evenodd" clip-rule="evenodd" d="M 120.661 105.345 C 117.458 99.952 119.022 94.215 120 92.381 C 127.925 77.51 148.48 80.988 153.876 90.935 C 164.097 109.774 133.413 123.957 120.661 105.345 Z" fill="#6D4A2C"/>
  <path d="M 97.916 199.05 C 98.321 199.067 98.672 199.23 98.872 199.331 C 99.112 199.453 99.37 199.613 99.632 199.787 C 100.157 200.137 100.832 200.635 101.635 201.231 C 104.868 203.628 110.752 208.028 120.263 213.103 C 120.746 213.36 121.073 213.448 121.363 213.465 C 121.666 213.483 122.042 213.431 122.639 213.238 C 123.25 213.042 123.99 212.735 125.032 212.299 C 126.055 211.87 127.322 211.338 128.921 210.729 L 129.23 210.616 C 129.951 210.367 130.685 210.217 131.439 210.353 C 132.323 210.511 132.993 211.018 133.578 211.583 C 134.148 212.133 134.813 212.919 135.613 213.824 C 136.438 214.759 137.486 215.915 138.906 217.318 C 139.037 217.447 139.088 217.443 139.063 217.439 C 139.04 217.434 139.071 217.451 139.199 217.398 C 139.52 217.262 139.995 216.879 140.673 216.144 C 141.34 215.42 141.998 214.594 142.815 213.648 C 143.595 212.743 144.472 211.787 145.437 211.003 L 145.65 210.848 C 146.156 210.517 146.722 210.406 147.226 210.391 C 147.797 210.374 148.391 210.477 148.951 210.619 C 150.064 210.903 151.335 211.425 152.508 211.906 C 153.73 212.407 154.871 212.875 155.871 213.15 C 156.942 213.443 157.486 213.405 157.701 213.306 L 158.35 212.999 C 165.111 209.73 173.922 203.36 175.261 202.392 C 175.445 202.256 176.35 201.569 177.249 200.89 C 177.701 200.549 178.146 200.212 178.485 199.959 C 178.653 199.833 178.799 199.724 178.907 199.646 C 178.959 199.607 179.009 199.571 179.049 199.543 C 179.068 199.53 179.093 199.512 179.119 199.495 C 179.132 199.487 179.155 199.472 179.182 199.456 C 179.187 199.453 179.281 199.396 179.404 199.35 L 179.405 199.35 C 179.735 199.227 180.27 199.084 180.835 199.271 C 181.534 199.501 181.865 200.077 181.972 200.563 C 182.065 200.986 182.016 201.411 181.951 201.74 C 181.882 202.094 181.766 202.474 181.623 202.861 C 181.062 204.386 179.905 206.524 178.483 208.804 C 175.635 213.368 171.474 218.894 168.151 221.829 C 167.696 222.231 167.089 222.47 166.412 222.337 C 165.835 222.224 165.42 221.876 165.173 221.629 C 164.91 221.366 164.683 221.06 164.508 220.811 C 164.296 220.509 164.192 220.344 164.029 220.12 C 163.873 219.907 163.755 219.777 163.677 219.697 C 163.609 219.751 163.516 219.833 163.396 219.951 C 162.934 220.409 162.343 221.152 161.471 222.279 C 160.62 223.379 159.547 224.784 158.172 226.464 C 157.599 227.164 156.975 227.725 156.242 227.971 C 155.405 228.251 154.675 228.044 154.126 227.722 C 153.662 227.449 153.234 227.031 152.977 226.795 C 152.722 226.562 152.526 226.399 152.343 226.284 C 152.337 226.286 152.33 226.287 152.323 226.289 C 152.143 226.336 151.861 226.451 151.465 226.671 C 150.676 227.109 149.683 227.819 148.52 228.694 C 146.268 230.389 143.435 232.674 140.888 234.072 L 140.888 234.073 C 140.057 234.529 139.177 234.555 138.296 234.312 C 137.473 234.084 136.598 233.61 135.653 233 C 133.77 231.787 131.115 229.702 127.312 226.902 C 126.802 226.527 126.499 226.367 126.322 226.303 C 126.282 226.289 126.254 226.281 126.237 226.277 C 126.23 226.276 126.225 226.275 126.221 226.275 C 126.186 226.286 126.078 226.335 125.801 226.55 C 125.662 226.658 125.514 226.78 125.323 226.937 C 125.137 227.088 124.924 227.26 124.683 227.444 C 124.024 227.947 123.264 228.073 122.539 227.917 C 121.878 227.775 121.293 227.413 120.81 227.029 C 119.844 226.263 118.888 225.083 118.041 223.949 C 117.608 223.369 117.182 222.77 116.781 222.207 C 116.375 221.639 115.997 221.11 115.645 220.645 C 115.289 220.175 114.985 219.804 114.733 219.543 C 114.667 219.476 114.612 219.423 114.568 219.383 C 114.412 219.599 114.276 219.89 113.988 220.399 C 113.848 220.646 113.662 220.955 113.425 221.229 C 113.189 221.503 112.825 221.833 112.303 221.99 C 111.14 222.341 110.157 221.624 109.459 220.892 C 103.339 214.465 99.423 209.329 96.961 203.046 C 96.671 202.306 96.433 201.643 96.342 201.142 C 96.304 200.932 96.236 200.486 96.407 200.035 C 96.51 199.763 96.709 199.468 97.044 199.267 C 97.365 199.074 97.688 199.041 97.916 199.05 Z" fill="#FFD193" stroke="#312114" stroke-width="2.69231"/>
  <path fill-rule="evenodd" clip-rule="evenodd" d="M 123.077 105.715 C 122.554 104.986 119.114 100.199 121.056 94.696 C 125.737 81.433 144.274 81.824 150.838 89.724 C 163.257 104.672 138.003 122.14 123.077 105.715 Z" fill="#AA7B53"/>
  <path d="M 183.384 180.918 C 183.593 180.902 184.01 180.891 184.436 181.01 C 184.736 181.094 185.169 181.278 185.503 181.696 C 185.819 182.092 185.938 182.562 185.919 183.023 L 185.903 183.22 C 185.863 183.54 185.74 183.833 185.645 184.032 C 185.538 184.256 185.401 184.495 185.252 184.737 C 184.952 185.221 184.55 185.793 184.091 186.409 C 183.172 187.643 181.966 189.132 180.753 190.584 C 178.324 193.494 175.813 196.32 175.376 196.813 C 174.696 197.578 174.074 198.25 173.218 198.833 C 172.362 199.418 171.341 199.869 169.891 200.336 C 167.042 201.254 162.151 202.347 152.768 204.56 C 151.46 204.869 150.418 204.975 149.588 204.912 C 148.762 204.848 148.029 204.605 147.5 204.096 C 146.948 203.565 146.78 202.901 146.811 202.356 C 146.826 202.093 146.887 201.839 146.986 201.614 C 147.055 201.455 147.246 201.07 147.67 200.83 C 155.137 196.623 158.784 194.398 162.449 192.183 C 166.128 189.959 169.819 187.747 177.349 183.578 L 177.359 183.572 L 177.37 183.566 C 178.118 183.169 179.222 182.558 180.254 182.045 C 180.776 181.787 181.305 181.54 181.794 181.346 C 182.257 181.162 182.779 180.986 183.253 180.931 L 183.384 180.918 Z" fill="#FFD193" stroke="#312114" stroke-width="2.69231"/>
  <path d="M 92.918 181.428 C 93.741 180.708 94.903 180.755 95.772 181.057 L 95.771 181.058 C 97.934 181.809 99.799 182.499 119.036 194.174 C 124.69 197.605 127.771 199.287 129.4 200.233 C 129.804 200.468 130.14 200.669 130.403 200.845 C 130.644 201.005 130.924 201.207 131.138 201.455 C 131.38 201.734 131.696 202.272 131.506 202.957 C 131.367 203.454 131.007 203.763 130.922 203.84 L 130.921 203.839 C 130.474 204.242 129.927 204.69 128.995 204.845 C 128.194 204.978 127.204 204.878 125.866 204.636 C 123.151 204.144 118.229 202.9 108.761 200.634 L 108.761 200.633 C 108.01 200.453 107.291 200.249 106.515 199.823 C 105.749 199.402 104.995 198.804 104.09 197.918 C 102.309 196.175 99.724 193.093 95.072 187.453 L 94.377 186.596 C 94.007 186.128 93.492 185.467 92.82 184.57 C 92.497 184.139 92.245 183.614 92.226 183.026 C 92.207 182.395 92.464 181.824 92.918 181.428 Z" fill="#FFD193" stroke="#312114" stroke-width="2.69231"/>
  <path fill-rule="evenodd" clip-rule="evenodd" d="M 169.391 176.811 C 169.143 178.631 169.28 183.15 165.035 183.261 C 164.29 183.28 162.412 182.276 162.856 180.366 C 163 179.746 164.659 164.195 168.55 163.993 C 174.22 163.697 171.186 167.269 170.001 173.269 C 169.945 173.551 169.955 173.531 169.391 176.811 Z" fill="#31211B"/>
  <path fill-rule="evenodd" clip-rule="evenodd" d="M 116.726 165.629 C 118.913 167.857 121.338 180.677 119.991 182.263 C 118.787 183.68 114.825 183.243 114.238 179.136 C 113.868 176.549 113.572 174.091 113.519 173.652 C 113.063 169.874 109.857 163.718 115.297 164.738 C 115.43 164.763 115.623 164.799 116.726 165.629 Z" fill="#31211B"/>
  <path fill-rule="evenodd" clip-rule="evenodd" d="M 202.433 130.958 C 202.619 131.195 202.963 131.274 203.149 131.511 C 203.555 132.031 195.144 162.463 194.033 162.883 C 193.845 162.954 192.01 163.443 193.355 160.458 C 193.777 159.522 196.597 148.582 196.864 147.546 C 198.533 141.073 198.026 140.975 200.152 134.599 C 200.176 134.526 200.127 134.534 199.799 133.705 C 201.58 131.902 201.626 131.464 202.433 130.958 Z" fill="#31211B"/>
  <path fill-rule="evenodd" clip-rule="evenodd" d="M 83.628 140.83 C 83.977 140.98 84.339 141.135 87.553 143.508 C 86.361 144.278 87.065 144.575 87.337 145.963 C 87.449 146.537 87.824 146.432 89.307 153.008 C 90.723 159.289 93.89 170.622 90.762 167.705 C 90.207 167.187 88.607 158.508 86.206 150.652 C 84.681 145.663 82.893 141.705 83.155 141.257 C 83.262 141.074 83.521 141.013 83.628 140.83 Z" fill="#31211B"/>
  <path fill-rule="evenodd" clip-rule="evenodd" d="M 55.81 151.015 C 55.404 150.793 53.226 149.599 50.367 152.999 C 49.675 152.343 49.712 152.31 48.819 152.021 C 48.372 151.877 44.473 150.615 44.285 148.281 C 44.022 145.002 49.631 150.812 50.242 149.039 C 50.326 148.795 42.183 139.906 44.826 139.481 C 46.052 139.284 51.404 148.643 54.871 149.835 C 55.281 149.976 55.455 150.376 55.81 151.015 Z" fill="#31211B"/>
  <path fill-rule="evenodd" clip-rule="evenodd" d="M 100.526 147.501 C 100.41 149.421 102.081 153.176 102.664 155.733 C 103.475 159.288 103.752 159.191 104.585 162.73 C 104.76 163.475 104.144 164.02 103.716 163.049 C 100.216 155.104 99.389 155.54 97.259 150.678 C 97.711 150.461 97.726 150.55 98.113 150.269 C 99.52 149.245 99.564 149.285 99.663 149.058 C 99.718 148.934 99.541 148.795 99.57 148.663 C 99.676 148.18 99.879 147.934 99.923 147.881 C 100.156 147.598 100.275 147.807 100.526 147.501 Z" fill="#31211B"/>
  <path fill-rule="evenodd" clip-rule="evenodd" d="M 224.948 150.714 C 227.385 148.115 229.169 147.61 233.728 141.542 C 233.863 141.362 236.33 138.079 236.316 140.456 C 236.313 140.978 233.836 145.889 229.96 149.816 C 229.822 149.956 228.942 150.848 228.735 151.948 C 226.546 150.268 226.098 150.416 224.948 150.714 Z" fill="#31211B"/>
  <path fill-rule="evenodd" clip-rule="evenodd" d="M 93.156 53.427 C 91.729 54.581 91.78 54.58 90.302 55.73 C 88.876 53.089 89.094 48.26 89.632 47.992 C 91.513 47.054 91.47 50.951 93.156 53.427 Z" fill="#312114"/>
  <path fill-rule="evenodd" clip-rule="evenodd" d="M 164.178 42.457 C 164.382 37.441 166.473 34.231 167.306 37.671 C 167.503 38.485 167.409 42.659 167.389 42.746 C 167.335 42.982 166.999 43.085 166.946 43.32 C 166.726 43.246 166.725 43.27 164.178 42.457 Z" fill="#312114"/>
  <path fill-rule="evenodd" clip-rule="evenodd" d="M 229.822 152.704 C 230.18 152.445 232.993 149.954 233.118 149.839 C 233.571 149.42 234.823 146.752 236.292 147.426 C 237.485 147.974 234.192 151.303 230.807 153.7 C 230.324 153.174 230.341 153.201 229.822 152.704 Z" fill="#31211B"/>
  <path fill-rule="evenodd" clip-rule="evenodd" d="M 93.816 235.486 C 94.284 235.313 94.618 234.781 94.415 235.265 C 94.395 235.312 94.371 235.281 93.816 235.486 Z" fill="#E9A671"/>
  <path fill-rule="evenodd" clip-rule="evenodd" d="M 130.609 144.938 L 140.829 157.053 C 141.711 158.098 143.02 158.684 144.387 158.645 L 153.381 158.389 C 154.555 158.355 155.669 157.863 156.484 157.017 L 178.963 133.693 L 130.609 144.938 Z" fill="#AA7B53"/>
  <path fill-rule="evenodd" clip-rule="evenodd" d="M 183.733 129.606 C 181.904 129.76 181.942 130.821 179.99 132.704 C 178.732 134.028 178.743 134.023 178.631 134.134 C 169.298 143.382 153.992 145.07 147.297 145.31 C 135.81 145.721 131.873 145.366 130.609 144.939 C 130.148 144.782 129.699 143.771 129.059 142.692 C 131.687 141.908 139.716 145.247 154.849 141.68 C 163.479 139.646 169.136 138.069 180.571 129.399 C 184.014 126.789 192.575 117.171 195.379 106.808 C 201.194 85.32 188.964 71.251 188.131 70.085 C 184.382 64.843 169.535 50.949 145.441 49.84 C 89.804 47.278 65.703 95.328 96.092 126.024 C 99.5 129.467 100.813 130.509 107.483 134.689 C 107 135.515 106.987 135.477 106.36 136.167 C 77.443 118.994 71.553 84.161 97.448 62.462 C 124.744 39.588 175.02 43.78 192.946 73.927 C 201.849 88.901 199.44 106.2 193.021 116.907 C 189.8 122.281 189.053 123.583 184.254 128.402 C 183.567 129.091 183.741 129.57 183.733 129.606 Z" fill="#6D4A2C"/>
  <g style="mix-blend-mode:color-dodge" transform="matrix(1, 0, 0, 1, 0.2634599804878235, 0.5047460198402405)">
    <title>Leye</title>
    <circle cx="110" cy="192.308" r="44" fill="url(#paint0_radial_3692_5176)"/>
    <animate attributeName="opacity" values="0;1;0" begin="0s" dur="2s" fill="freeze" repeatCount="indefinite" keyTimes="0; 0.497982; 1" calcMode="spline" keySplines="0 0 0.58 1; 0 0 1 1"/>
  </g>
  <g style="mix-blend-mode:color-dodge" transform="matrix(1, 0, 0, 1, 0.2634599804878235, 0.5047460198402405)">
    <title>Reye</title>
    <circle cx="170" cy="192.308" r="44" fill="url(#paint1_radial_3692_5176)"/>
    <animate attributeName="opacity" values="0;1;0" begin="0s" dur="2s" fill="freeze" keyTimes="0; 0.5; 1" calcMode="spline" keySplines="0 0 0.58 1; 0 0 1 1" repeatCount="indefinite"/>
  </g>
</svg>