<svg width="287" height="186" viewBox="0 0 287 186" fill="none" xmlns="http://www.w3.org/2000/svg">
<g clip-path="url(#clip0_3709_14696)">
<path d="M118.882 146.983H164.296L158.207 174.204C157.744 176.273 156.59 178.123 154.935 179.449C153.28 180.775 151.223 181.497 149.102 181.497H133.622C131.509 181.497 129.46 180.771 127.819 179.439C126.177 178.107 125.044 176.252 124.609 174.184L118.882 146.983Z" fill="#808080" stroke="#262626" stroke-width="5.00001" stroke-linecap="square" stroke-linejoin="round"/>
<path d="M266.693 19.423H19.3467V165.809H266.693V19.423Z" fill="#966236" stroke="#22160C" stroke-width="6.99999" stroke-linecap="round" stroke-linejoin="round"/>
<path d="M0 0L0.000529134 185.232H286.04L286.039 0H0ZM47.5496 45.0631H243.462L243.463 141.412H47.55L47.5496 45.0631Z" fill="#71264A" fill-opacity="0.9"/>
<path d="M244.754 38.8648H40.4805V145.357H244.754V38.8648Z" fill="#A87E5A" stroke="#463120" stroke-width="6.99999" stroke-linecap="round" stroke-linejoin="round"/>
<path d="M46.5938 59.1151H240.048Z" fill="#A87E5A"/>
<path d="M46.5938 59.1151H240.048" stroke="#47321F" stroke-width="6.99999" stroke-linecap="square" stroke-linejoin="round"/>
<path d="M46.3774 81.3143H239.832Z" fill="#A87E5A"/>
<path d="M46.3774 81.3143H239.832" stroke="#47321F" stroke-width="6.99999" stroke-linecap="square" stroke-linejoin="round"/>
<path d="M46.0928 103.154H239.547Z" fill="#A87E5A"/>
<path d="M46.0928 103.154H239.547" stroke="#47321F" stroke-width="6.99999" stroke-linecap="square" stroke-linejoin="round"/>
<path d="M45.6641 124.146H239.118Z" fill="#A87E5A"/>
<path d="M45.6641 124.146H239.118" stroke="#47321F" stroke-width="6.99999" stroke-linecap="square" stroke-linejoin="round"/>
<path d="M45.5249 48.0828H35.9208L31.1187 39.3411L35.9208 30.5994H45.525L50.327 39.3411L45.5249 48.0828Z" fill="#808080" stroke="#262626" stroke-width="5" stroke-linecap="square" stroke-linejoin="round"/>
<path d="M45.6817 154.194H36.2796L31.5786 145.636L36.2796 137.079H45.6817L50.3827 145.636L45.6817 154.194Z" fill="#808080" stroke="#262626" stroke-width="5" stroke-linecap="square" stroke-linejoin="round"/>
<path d="M249.172 154.984H239.336L234.418 146.031L239.336 137.078H249.172L254.09 146.031L249.172 154.984Z" fill="#808080" stroke="#262626" stroke-width="5" stroke-linecap="square" stroke-linejoin="round"/>
<path d="M250.959 49.1756H240.754L235.652 39.8877L240.754 30.5999H250.959L256.061 39.8877L250.959 49.1756Z" fill="#808080" stroke="#262626" stroke-width="5" stroke-linecap="square" stroke-linejoin="round"/>
<path fill-rule="evenodd" clip-rule="evenodd" d="M161.448 139.719C174.923 138.257 193.178 130.439 199.754 125.828C206.33 121.218 203.029 114.868 200.903 112.054C198.778 109.24 186.209 111.263 187.002 108.945C187.795 106.628 203.042 101.9 205.66 98.1506C208.278 94.4015 209.654 88.5623 202.711 86.4504C195.769 84.3385 167.393 85.6499 164.006 85.4792C160.619 85.3086 174.774 85.8928 182.389 85.4266C190.005 84.9604 207.317 86.8457 209.699 82.6818C212.081 78.518 202.239 67.1469 196.683 60.4433C191.127 53.7397 182.835 43.464 176.361 42.46C169.887 41.4559 163.661 53.759 157.838 54.4189C152.016 55.0788 149.057 43.1549 141.425 46.4192C133.792 49.6836 122.468 67.5489 112.043 74.0048C101.619 80.4607 84.5571 81.0256 78.8776 85.1547C73.198 89.2839 74.9991 95.7778 77.9659 98.7798C80.9327 101.782 95.7769 101.217 96.6784 103.167C97.5798 105.116 85.0314 106.772 83.3747 110.476C81.7179 114.18 80.8161 121.369 86.7377 125.39C92.6593 129.41 106.453 132.211 118.904 134.6C131.356 136.988 147.973 141.18 161.448 139.719Z" fill="#A87E5A"/>
<path fill-rule="evenodd" clip-rule="evenodd" d="M148.646 77.9555L174.621 50.701L200.596 77.9555H148.646Z" fill="#47321F"/>
<path fill-rule="evenodd" clip-rule="evenodd" d="M121.763 77.038L141.98 56.0973L162.197 77.038H121.763Z" fill="#47321F"/>
<path d="M157.975 131.658C146.879 129.133 93.5297 121.969 91.4021 116.51C89.2745 111.051 145.864 103.065 145.21 98.9026C144.555 94.7401 80.0153 96.5498 87.4768 91.5347C94.9384 86.5196 172.895 72.5992 189.979 68.8121" stroke="#463120" stroke-width="3.08784" stroke-miterlimit="10" stroke-linejoin="round"/>
<path d="M193.513 119.579C185.561 118.418 145.244 117.118 145.801 112.614C146.357 108.111 198.59 96.5146 196.854 92.5572C195.118 88.5997 136.576 92.8027 135.384 88.8698C134.193 84.9368 180.652 72.2778 189.705 68.9594" stroke="#463120" stroke-width="3.08784" stroke-miterlimit="10" stroke-linejoin="round"/>
<path d="M155.591 131.181L160.16 132.121L193.651 119.586L190.017 119.279" stroke="#463120" stroke-width="3.08784" stroke-miterlimit="10" stroke-linejoin="round"/>
<path fill-rule="evenodd" clip-rule="evenodd" d="M160.198 132.943C155.427 132.375 136.603 129.333 126.96 127.374C117.317 125.415 108.086 122.889 102.342 121.187C96.597 119.486 92.2874 118.971 92.4924 117.167C92.6974 115.362 96.7496 112.525 103.572 110.36C110.394 108.194 126.602 106.029 133.424 104.173C140.246 102.317 144.298 100.46 144.503 99.223C144.708 97.9854 142.246 97.521 134.654 96.7479C127.063 95.9747 106.802 95.3572 98.9546 94.5841C91.1068 93.8109 87.5679 93.0886 87.5679 92.109C87.5679 91.1294 91.6197 90.6142 98.9546 88.7066C106.289 86.7989 122.088 82.9832 131.577 80.6631C141.066 78.3429 149.786 75.8627 155.89 74.7855C161.994 73.7084 168.764 73.3755 168.199 74.2002C167.635 75.0249 157.583 77.7283 152.505 79.7335C147.427 81.7387 140.194 84.3753 137.732 86.2315C135.269 88.0876 134.962 90.2518 137.732 90.8703C140.501 91.4889 147.375 89.8396 154.35 89.943C161.326 90.0464 172.867 91.1813 179.586 91.4908C186.306 91.8002 192.41 91.1298 194.667 91.7999C196.924 92.47 197.488 93.6553 193.128 95.5114C188.767 97.3676 175.38 100.771 168.507 102.937C161.634 105.102 155.625 106.933 151.888 108.505C148.151 110.078 145.777 111.238 146.085 112.372C146.393 113.506 148.1 114.305 153.735 115.31C159.371 116.315 173.638 117.733 179.896 118.403C186.154 119.074 191.129 118.456 191.282 119.333C191.436 120.209 184.973 121.91 180.818 123.663C176.664 125.415 170.56 128.663 166.354 129.849C162.148 131.035 156.609 130.263 155.583 130.779C154.557 131.294 164.968 133.51 160.198 132.943Z" fill="#47321F"/>
</g>
<defs>
<clipPath id="clip0_3709_14696">
<rect width="286.04" height="185.232" fill="white"/>
</clipPath>
</defs>
</svg>
