<svg width="349" height="347" viewBox="0 0 349 347" fill="none" xmlns="http://www.w3.org/2000/svg">
<g clip-path="url(#clip0_3709_14741)">
<path fill-rule="evenodd" clip-rule="evenodd" d="M209.797 25.3318C201.421 24.6354 192.9 25.0273 184.438 26.5742L131.755 36.0909C131.736 36.0963 131.717 36.1017 131.698 36.1071C106.305 40.8229 83.7183 55.3754 69.1568 76.8537L41.9058 116.472C41.8895 116.493 41.8733 116.515 41.8571 116.537C28.0591 136.871 22.2308 161.903 26.2503 186.385L33.2255 230.445C33.2282 230.464 33.231 230.483 33.2338 230.502C39.043 266.083 64.1298 295.569 98.3 306.855L98.3249 306.863C98.3291 306.865 98.3333 306.869 98.3416 306.872L126.884 316.38C126.948 316.402 127.014 316.424 127.079 316.445C146.668 322.612 167.872 322.636 187.224 316.429C187.24 316.424 187.257 316.418 187.273 316.413L254.588 294.505C254.604 294.499 254.621 294.494 254.637 294.489C293.108 281.785 319.706 246.429 321.164 205.801V205.784L323.064 154.043C323.066 154.019 323.069 153.994 323.072 153.97C323.797 130.045 315.834 106.411 300.1 88.1163L275.391 58.9733C258.708 39.2821 234.925 27.421 209.797 25.3318ZM207.759 49.8301C226.506 51.4022 244.281 60.2567 256.65 74.8562L281.416 104.072C281.435 104.094 281.454 104.116 281.473 104.137C293.044 117.593 299.054 135.238 298.509 153.223L298.517 153.142L296.609 204.899C296.609 204.902 296.609 204.905 296.609 204.908C295.52 235.394 275.764 261.639 246.93 271.159L179.72 293.035C165.417 297.623 149.152 297.639 134.451 293.01L106.071 283.55C106.06 283.545 106.049 283.54 106.038 283.534C80.5388 275.125 61.8288 253.183 57.4802 226.547L50.5051 182.472C50.4996 182.45 50.4941 182.428 50.4885 182.407C47.5228 164.343 51.857 145.559 62.1894 130.333L89.4485 90.7066C89.4648 90.6823 89.4811 90.6579 89.4972 90.6335C100.325 74.6624 117.089 63.8233 136.123 60.2725L188.83 50.7476C188.838 50.7449 188.847 50.7421 188.855 50.7393C195.157 49.5874 201.509 49.3061 207.759 49.8301Z" stroke="#AC4275" stroke-width="49.9999" stroke-miterlimit="10" stroke-linecap="round" stroke-linejoin="round"/>
<path d="M45.6719 230.114L38.0518 183.44C34.8767 162.802 39.3218 141.53 51.387 124.384L79.9627 82.7907C92.3454 64.6928 111.396 52.31 132.669 48.4999L188.233 38.3397C216.808 33.2596 246.019 43.7373 265.069 65.6453L291.74 96.761C304.758 112.319 311.743 132.004 311.108 152.325L309.203 206.936C307.933 241.227 285.707 271.072 253.004 281.868L182.835 304.728C166.325 310.126 148.544 310.126 131.716 304.728L100.601 294.568C71.7075 285.043 50.4345 260.277 45.6719 230.114Z" fill="#585A66"/>
<path d="M308.568 235.194L311.743 127.877C312.06 121.844 310.155 115.811 306.663 111.049L274.912 67.8679C260.624 48.5 233.636 63.4228 237.446 88.1884C237.446 88.5059 235.541 75.4881 238.081 91.9985C238.399 93.2685 238.399 94.221 238.399 95.4911L242.209 197.411C242.526 202.173 243.796 206.936 246.336 210.746L270.149 248.847C281.58 267.897 307.615 258.69 308.568 235.194Z" fill="#3F414A"/>
<path fill-rule="evenodd" clip-rule="evenodd" d="M40.2417 158.675L54.2119 245.037C57.7045 265.992 72.6274 283.455 92.9478 290.44L98.9805 292.345C117.078 298.378 131.366 276.47 118.983 262.182L107.553 248.847C105.331 246.307 103.743 243.132 103.426 239.957L92.9478 183.758C92.6302 181.853 92.6302 180.265 92.6302 178.36L97.3928 128.194C99.2979 108.826 74.2148 99.6186 63.102 115.811L43.0991 145.022C40.5591 148.832 39.2892 153.912 40.2417 158.675Z" fill="#707381"/>
<path fill-rule="evenodd" clip-rule="evenodd" d="M130.764 304.728L102.188 295.203C72.3423 285.36 50.4343 259.642 45.3542 228.526L38.3691 184.393C34.8765 163.12 39.9566 141.212 52.0218 123.432L79.3275 83.7432C92.0277 65.0103 111.713 52.31 133.939 48.1825L186.645 38.6572C216.173 33.2596 246.654 44.0549 266.022 66.9154L290.787 96.126C304.44 112.001 311.425 132.639 310.79 153.595L308.885 205.348C307.615 240.909 284.437 271.707 250.781 282.82L183.47 304.728C166.642 310.126 147.909 310.126 130.764 304.728Z" stroke="#71264A" stroke-width="24.5669" stroke-miterlimit="10" stroke-linecap="round" stroke-linejoin="round"/>
</g>
<defs>
<clipPath id="clip0_3709_14741">
<rect width="348.118" height="346.093" fill="white"/>
</clipPath>
</defs>
</svg>
