<svg width="334" height="328" viewBox="0 0 334 328" fill="none" xmlns="http://www.w3.org/2000/svg">
<g clip-path="url(#clip0_3709_14720)">
<path fill-rule="evenodd" clip-rule="evenodd" d="M188.998 25C180.969 25 172.935 26.0189 165.076 28.0532C165.022 28.0664 164.968 28.08 164.914 28.0939L113.067 42.304C84.1749 50.2223 58.714 68.846 42.7959 94.9546L38.8171 101.402C38.8129 101.409 38.8135 101.419 38.8087 101.426C22.9665 126.631 20.6288 157.873 32.3289 185.323C32.3399 185.35 32.351 185.377 32.3622 185.404L55.7399 239.2C55.7455 239.211 55.751 239.222 55.7566 239.233C68.0813 267.358 93.6009 287.659 123.056 293.54C123.172 293.563 123.288 293.585 123.405 293.605L171.184 301.725C171.219 301.731 171.254 301.736 171.289 301.742C189.33 304.647 207.654 302.289 224.516 294.742C224.573 294.716 224.63 294.689 224.687 294.661L239.887 287.581L239.904 287.572C262.798 277.017 279.846 257.605 288.014 234.304C288.025 234.275 288.037 234.245 288.048 234.215L303.281 189.595C309.163 172.564 309.744 154.25 305.067 136.742C305.064 136.733 305.062 136.725 305.059 136.717L294.397 97.1886V97.1802C286.136 65.9658 261.537 41.4708 230.46 32.6898C230.392 32.6703 230.325 32.6513 230.257 32.6329L212.977 28.0695C212.958 28.064 212.939 28.0586 212.92 28.0533C205.061 26.019 197.027 25 188.998 25ZM188.998 49.5551C194.947 49.5551 200.892 50.3188 206.757 51.8369L223.793 56.3354C246.584 62.7821 264.674 80.9039 270.645 103.472C270.651 103.491 270.656 103.51 270.662 103.529L281.34 143.115C284.787 156.043 284.345 169.18 280.065 181.571C280.06 181.585 280.054 181.598 280.048 181.612L264.832 226.175C258.77 243.467 246.35 257.55 229.607 265.265C229.59 265.273 229.574 265.282 229.558 265.29L214.479 272.314C201.863 277.96 188.672 279.654 175.202 277.486H175.194L127.87 269.448C106.507 265.182 87.3022 249.982 78.2725 229.407L78.2642 229.391C78.2618 229.387 78.2601 229.378 78.2559 229.374L54.927 175.692C46.2987 155.449 48.0189 132.917 59.6123 114.483C59.6314 114.451 59.6503 114.418 59.6692 114.386L63.7374 107.792C63.7485 107.773 63.7596 107.754 63.7706 107.735C76.317 87.157 96.6017 72.289 119.556 65.9982L171.24 51.8368C177.105 50.3188 183.049 49.5551 188.998 49.5551Z" stroke="#AC4275" stroke-width="49.9999" stroke-miterlimit="10" stroke-linecap="round" stroke-linejoin="round"/>
<path d="M64.4709 228.21L46.1722 186.09C34.4814 158.687 36.5146 127.732 52.2718 102.358L56.8464 95.2537C69.0455 75.9699 87.8525 61.7608 109.709 55.6712L165.113 40.4472C180.871 35.88 197.644 35.88 213.401 40.4472L221.026 42.4771C252.032 51.104 276.43 75.4624 284.563 106.925L292.187 136.359C296.762 153.612 296.254 172.389 290.154 189.135L277.955 225.165C269.822 248.509 252.54 267.793 230.175 277.942L223.059 281.494C206.285 289.106 187.478 291.644 169.688 288.599L132.074 282.002C102.593 276.42 76.67 256.628 64.4709 228.21Z" fill="#585A66"/>
<path d="M52.2717 141.941L41.5974 143.971C31.4315 146 39.0559 184.06 55.3214 210.956L78.1947 248.509C84.2943 258.658 90.3938 265.255 94.9684 265.763L106.659 267.793C115.3 269.315 122.925 262.21 122.416 253.584C121.908 235.315 116.317 208.926 101.068 192.18L61.9292 148.538C58.8795 143.971 54.8131 141.941 52.2717 141.941Z" fill="#3F414A"/>
<path fill-rule="evenodd" clip-rule="evenodd" d="M244.407 57.7011L180.362 41.4621C155.455 35.3725 130.549 49.5816 125.466 72.9251L118.35 107.433C115.3 121.135 120.383 134.836 131.057 144.478L185.445 192.18C191.036 197.255 198.661 200.807 206.285 202.329L243.899 209.941C275.921 216.538 303.878 189.135 295.745 160.21L274.397 86.6267C271.347 72.4176 259.656 61.7608 244.407 57.7011Z" fill="#707381"/>
<path fill-rule="evenodd" clip-rule="evenodd" d="M67.0123 234.3L43.6307 180.508C33.4648 156.657 35.4979 129.761 49.222 107.94L53.2883 101.343C67.5205 77.9998 90.3939 61.2533 116.317 54.1488L168.163 39.9397C181.887 36.3874 196.119 36.3874 209.843 39.9397L227.125 44.5069C254.065 52.1189 275.413 73.4326 282.53 100.328L293.204 139.911C297.27 155.135 296.762 170.866 291.679 185.583L276.43 230.24C269.314 250.539 254.573 267.285 234.75 276.42L219.501 283.524C204.76 290.121 189.003 292.151 173.246 289.614L125.466 281.494C100.051 276.42 77.6865 258.658 67.0123 234.3Z" stroke="#71264A" stroke-width="24.5669" stroke-miterlimit="10" stroke-linecap="round" stroke-linejoin="round"/>
</g>
<defs>
<clipPath id="clip0_3709_14720">
<rect width="333.175" height="327.936" fill="white"/>
</clipPath>
</defs>
</svg>
