<svg width="357" height="330" viewBox="0 0 357 330" fill="none" xmlns="http://www.w3.org/2000/svg">
<g clip-path="url(#clip0_3709_14748)">
<path fill-rule="evenodd" clip-rule="evenodd" d="M211.59 25.8312C207.057 24.6631 202.556 24.6495 197.964 25.8453L88.0474 54.4672C81.4053 56.1971 75.8418 60.3251 72.2 65.8932L29.4838 131.199C24.4985 138.821 23.5611 148.68 27.4115 157.067L79.9782 271.576C83.7488 279.789 92.0119 285.253 100.538 286.628L207.765 303.924C212.179 304.635 217.665 304.358 222.697 302.163L284.227 275.323C290.752 272.477 296.117 266.847 298.634 259.901L330.293 172.524C332.208 167.239 332.348 161.337 330.868 156.074L304.879 63.6293C302.271 54.35 294.733 47.2573 285.668 44.9218L211.59 25.8312ZM204.153 49.6129C204.328 49.5673 205.222 49.5662 205.459 49.6271L279.536 68.7107C280.573 68.9779 280.98 69.383 281.232 70.2791L307.214 162.723C307.42 163.455 307.399 163.587 307.192 164.157L275.533 251.534C275.219 252.4 274.996 252.546 274.405 252.804L212.874 279.645C212.515 279.802 212.699 279.838 211.675 279.673L104.448 262.378C102.343 262.039 102.555 261.873 102.305 261.328L49.7383 146.819C49.4686 146.232 49.4092 145.617 50.0435 144.648L92.7598 79.3418C93.105 78.814 93.7281 78.3741 94.2359 78.2418L204.153 49.6129Z" stroke="#AC4275" stroke-width="50" stroke-miterlimit="10" stroke-linecap="round" stroke-linejoin="round"/>
<path d="M91.1412 266.451L38.5717 151.941C36.4809 147.468 36.7796 142.101 39.7665 137.926L82.4792 72.6191C84.57 69.6371 87.5569 67.2514 91.1412 66.3568L201.059 37.7293C203.449 37.1329 206.137 37.1329 208.526 37.7293L282.602 56.8143C287.679 58.0071 291.562 61.8838 293.056 66.9532L319.042 159.396C319.938 162.378 319.639 165.36 318.743 168.342L287.082 255.716C285.588 259.593 282.9 262.575 279.316 264.066L217.786 290.904C215.098 292.097 212.409 292.395 209.721 291.799L102.491 274.503C97.115 274.205 92.9333 270.925 91.1412 266.451Z" fill="#585A66"/>
<path d="M115.036 221.721L89.0503 220.23C77.4014 219.634 69.6355 232.158 75.6093 242.297L90.8425 267.644C92.9333 271.223 96.8163 273.907 100.998 274.503L155.061 283.151C170.294 285.537 178.359 266.153 166.112 256.909L122.802 224.703C120.711 222.914 117.725 222.019 115.036 221.721Z" fill="#3F414A"/>
<path fill-rule="evenodd" clip-rule="evenodd" d="M276.628 55.6215L230.331 43.6934C216.292 40.1149 202.254 48.7628 199.566 63.0766L194.488 88.1257C192.696 96.7736 195.683 106.018 202.254 111.982L238.395 144.188C241.681 147.17 245.863 149.257 250.044 150.152L279.913 156.414C298.432 160.291 314.263 142.995 309.185 125.103L294.549 72.9173C292.16 64.2694 285.29 57.7089 276.628 55.6215Z" fill="#707381"/>
<path fill-rule="evenodd" clip-rule="evenodd" d="M91.141 266.451L38.5715 151.941C36.5115 147.454 36.9565 142.222 39.7663 137.926L82.479 72.6191C84.4724 69.5711 87.566 67.2879 91.141 66.3569L201.059 37.7293C203.442 37.1086 206.141 37.1148 208.526 37.7293L282.601 56.8143C287.652 58.1157 291.625 61.8656 293.056 66.9533L319.042 159.396C319.884 162.394 319.804 165.415 318.743 168.342L287.082 255.716C285.666 259.622 282.874 262.514 279.316 264.066L217.786 290.904C215.09 292.08 212.439 292.237 209.721 291.799L102.491 274.503C97.1752 273.646 93.1514 270.831 91.141 266.451Z" stroke="#71264A" stroke-width="24.5669" stroke-miterlimit="10" stroke-linecap="round" stroke-linejoin="round"/>
<path fill-rule="evenodd" clip-rule="evenodd" d="M108.655 56.5651C128.988 51.4175 149.227 45.8172 169.7 41.6673C176.15 40.3599 188.17 37.8225 190.412 43.8474C194.358 54.4538 184.201 65.1208 178.421 74.3698C171.477 85.4796 162.233 95.8739 157.346 107.799C153.148 118.041 150.205 128.806 147.172 139.775C145.48 145.891 145.143 152.701 137.361 155.036C126.891 158.177 116.969 163.762 108.655 170.661C99.8747 177.947 91.6244 187.246 79.9496 189.192C73.8145 190.215 76.0724 179.126 75.5893 174.658C74.6121 165.619 74.6049 156.406 79.2229 148.132C83.3419 140.752 88.6876 133.131 90.1237 124.514C91.2587 117.704 84.4251 112.535 80.313 107.436C75.3103 101.232 77.2162 93.6639 77.0427 86.7241C76.8518 79.0872 76.4039 69.4401 84.31 64.9224C91.6683 60.7176 100.282 58.6848 108.655 56.5651Z" fill="#5F9C37" stroke="#567041" stroke-width="9.44882"/>
<path fill-rule="evenodd" clip-rule="evenodd" d="M229.858 90.0315C238.748 88.8525 247.55 87.7276 256.417 89.0749C263.29 90.1193 270.151 90.582 276.582 93.8579C284.395 98.3715 267.985 110.335 265.031 111.269C259.16 112.826 252.724 114.318 247.217 116.996C242.88 119.105 246.735 131.097 245.432 135.803C238.042 151.79 226.196 152.225 212.901 150.839C208.474 150.839 208.835 145.013 209.201 142.166C210.806 129.679 211.86 116.755 214.611 104.381C215.797 99.0465 219.79 93.9423 225.431 90.9881C226.384 90.4892 227.907 90.2902 229.858 90.0315Z" fill="#5F9C37" stroke="#567041" stroke-width="9.44882"/>
<path fill-rule="evenodd" clip-rule="evenodd" d="M280.889 156.489C288.881 155.74 300.014 156.92 303.417 164.483C306.577 171.505 303.446 179.497 301.237 186.285C293.269 210.76 282.466 234.311 270.715 257.504C268.657 261.565 266.053 268.593 259.087 266.225C247.881 262.415 237.859 257.028 228.202 250.964C222.227 247.212 215.29 243.284 211.487 237.156C208.638 232.566 219.36 232.89 223.478 232.432C229.256 231.79 234.543 229.791 236.922 225.165C241.087 217.067 244.724 206.19 238.012 198.639C233.059 193.067 224.359 192.088 218.027 188.102C214.521 185.895 204.951 182.89 208.58 179.381C216.052 172.158 227.832 170.613 238.376 169.207C249.634 167.706 259.833 162.706 269.625 157.943C273.278 156.166 277.253 156.83 280.889 156.489Z" fill="#5F9C37" stroke="#567041" stroke-width="9.44882"/>
<path fill-rule="evenodd" clip-rule="evenodd" d="M160.616 284.756C150.376 277.076 139.549 269.835 127.187 265.861C119.2 263.294 110.488 264.185 101.751 265.135C93.7714 266.002 84.478 263.958 80.6764 256.777C77.935 251.599 79.401 244.972 83.9466 240.426C87.7662 236.606 93.043 234.393 98.1177 233.885C103.948 233.302 108.564 228.173 110.472 222.621C112.565 216.532 116.502 223.749 118.829 225.528C122.713 228.498 124.951 234.098 130.094 235.339C135.497 236.643 141.669 235.505 147.172 237.156C152.575 238.777 158.733 240.81 160.616 246.603C163.457 255.345 161.852 265.658 167.52 273.129C169.854 276.206 173.507 280.544 170.063 284.393C167.322 287.456 163.494 286.914 160.616 284.756Z" fill="#5F9C37" stroke="#567041" stroke-width="9.44882"/>
</g>
<defs>
<clipPath id="clip0_3709_14748">
<rect width="356.913" height="329.321" fill="white"/>
</clipPath>
</defs>
</svg>
