<svg width="339" height="324" viewBox="0 0 339 324" fill="none" xmlns="http://www.w3.org/2000/svg">
<g clip-path="url(#clip0_3709_14734)">
<path d="M199.532 25.1465L108.238 29.8562H108.205C87.22 31.0281 67.9383 42.7969 57.4542 61.5326L32.6229 105.803L32.5897 105.86C26.0568 117.8 23.842 131.576 25.5658 144.861L25.5742 144.934L37.7624 230.714C41.8067 256.849 61.5851 278.135 87.4898 282.87L161.407 297.445L161.537 297.47C174.697 299.77 188.201 298.016 200.318 292.216L200.375 292.192L279.172 253.524L279.278 253.475C301.785 241.873 315.827 217.82 313.496 192.047L304.604 93.6962V93.6879C302.272 68.4717 284.791 47.4101 261.001 39.8276L260.92 39.8031L220.425 27.4931L220.262 27.4523C214.076 25.7564 206.852 24.5329 199.142 25.1787L199.532 25.1465ZM201.188 49.6611C204.71 49.3661 209.649 50.0213 213.758 51.147H213.767L253.539 63.2378L253.547 63.2461C268.132 67.8994 278.73 80.7029 280.14 95.9457L289.032 194.255C290.445 209.882 282.028 224.405 268.033 231.624L268.025 231.632L189.699 270.065C182.169 273.665 174.149 274.728 165.793 273.272H165.768L91.9973 258.713L91.908 258.705C76.6294 255.912 64.5814 243.246 62.0667 227.044L62.0584 227.028L49.927 141.694V141.67C48.8485 133.319 50.3806 124.524 54.1413 117.651L78.8913 73.5341V73.5258C85.2572 62.1497 96.8616 55.0969 109.577 54.3868L200.993 49.6772L201.188 49.6611Z" stroke="#AC4275" stroke-width="49.9999" stroke-miterlimit="10"/>
<path d="M49.9182 228.909L37.7487 143.279C36.3445 132.457 38.2168 121.165 43.3654 111.755L68.1724 67.5283C76.5974 52.4724 92.0434 43.0624 108.893 42.1214L200.165 37.4164C205.781 36.9459 211.866 37.8869 217.015 39.2984L257.268 51.5314C276.458 57.6478 290.5 74.5858 292.372 94.8172L301.265 193.151C303.137 213.853 291.904 233.144 273.65 242.554L195.016 281.135C185.187 285.84 174.421 287.251 163.656 285.369L89.7031 270.784C69.1085 267.02 53.1946 250.082 49.9182 228.909Z" fill="#585A66" stroke="#33334B" stroke-width="18.7087" stroke-miterlimit="10"/>
<path d="M126.68 277.841L173.017 286.781C177.698 287.722 182.378 287.251 186.591 284.899L268.969 244.436C290.5 234.085 303.137 211.501 301.265 187.976L299.861 171.979C297.989 147.984 264.288 144.22 257.268 167.274C256.331 170.097 254.927 172.92 252.587 175.743L222.163 209.619C218.887 213.383 213.738 216.206 208.59 216.676L154.763 223.734C152.891 224.204 151.019 224.675 149.146 225.145L121.999 235.967C102.809 244.436 105.617 274.077 126.68 277.841Z" fill="#3F414A"/>
<path fill-rule="evenodd" clip-rule="evenodd" d="M148.211 40.7099L100.001 43.0624C88.2993 43.5329 78.002 50.1199 72.3853 60.0003L37.7491 121.636C35.8768 124.929 35.4088 128.223 35.8768 131.987L42.4297 178.566C44.7699 195.974 70.045 197.386 74.2575 179.977L76.5978 170.097C78.9381 159.276 83.6187 148.925 90.1715 139.515L114.51 104.698C120.595 96.2287 128.084 88.7007 136.977 83.0548L157.572 69.8808C171.613 60.9413 164.593 39.7689 148.211 40.7099Z" fill="#707381"/>
<path d="M199.532 25.1465L108.238 29.8562H108.205C87.22 31.0281 67.9383 42.7969 57.4542 61.5326L32.6229 105.803L32.5897 105.86C26.0568 117.8 23.842 131.576 25.5658 144.861L25.5742 144.934L37.7624 230.714C41.8067 256.849 61.5851 278.135 87.4898 282.87L161.407 297.445L161.537 297.47C174.697 299.77 188.201 298.016 200.318 292.216L200.375 292.192L279.172 253.524L279.278 253.475C301.785 241.873 315.827 217.82 313.496 192.047L304.604 93.6962V93.6879C302.272 68.4717 284.791 47.4101 261.001 39.8276L260.92 39.8031L220.425 27.4931L220.262 27.4523C214.076 25.7564 206.852 24.5329 199.142 25.1787L199.532 25.1465ZM201.188 49.6611C204.71 49.3661 209.649 50.0213 213.758 51.147H213.767L253.539 63.2378L253.547 63.2461C268.132 67.8994 278.73 80.7029 280.14 95.9457L289.032 194.255C290.445 209.882 282.028 224.405 268.033 231.624L268.025 231.632L189.699 270.065C182.169 273.665 174.149 274.728 165.793 273.272H165.768L91.9973 258.713L91.908 258.705C76.6294 255.912 64.5814 243.246 62.0667 227.044L62.0584 227.028L49.927 141.694V141.67C48.8485 133.319 50.3806 124.524 54.1413 117.651L78.8913 73.5341V73.5258C85.2572 62.1497 96.8616 55.0969 109.577 54.3868L200.993 49.6772L201.188 49.6611Z" fill="#71264A"/>
</g>
<defs>
<clipPath id="clip0_3709_14734">
<rect width="338.747" height="323.443" fill="white"/>
</clipPath>
</defs>
</svg>
