<svg width="348" height="338" viewBox="0 0 348 338" fill="none" xmlns="http://www.w3.org/2000/svg">
<g clip-path="url(#clip0_3709_14727)">
<path fill-rule="evenodd" clip-rule="evenodd" d="M171.696 25.0795C161.13 25.5491 150.654 28.0901 140.816 32.6068L86.5734 57.1944C86.4808 57.2366 86.3888 57.2799 86.2973 57.3243C69.9541 65.2261 56.121 77.907 47.4996 94.0596C47.4912 94.0731 47.4829 94.0867 47.4746 94.1003L34.7261 118.217C34.7249 118.219 34.7273 118.223 34.7261 118.225L34.7012 118.266C21.855 142.372 21.8654 171.198 34.1652 195.244C34.1813 195.271 34.1975 195.299 34.2139 195.326L68.8867 261.886C68.8922 261.899 68.8977 261.913 68.9033 261.927C80.0715 283.183 99.6482 299.121 122.821 305.044C122.88 305.058 122.94 305.072 122.999 305.085L145.809 310.558L145.695 310.525C158.669 313.766 172.437 313.766 185.41 310.525L243.81 295.942C243.848 295.931 243.886 295.92 243.924 295.909C270.535 288.996 292.067 269.625 301.641 243.584C301.641 243.581 301.641 243.578 301.641 243.575L316.623 202.756L316.639 202.699C323.098 185.991 323.625 167.815 318.799 151.169L305.637 103.982C298.637 77.6188 278.747 56.7448 253.149 47.6858L203.105 29.9597C192.914 26.2081 182.262 24.6099 171.696 25.0795ZM172.76 49.5778C180.102 49.2495 187.472 50.3816 194.619 53.0126C194.665 53.0318 194.711 53.0507 194.757 53.0694L244.947 70.8442C263.149 77.2856 277.023 91.9777 281.886 110.292C281.899 110.34 281.913 110.389 281.927 110.438L295.163 157.851C295.174 157.892 295.185 157.932 295.196 157.973C298.563 169.56 298.183 182.354 293.718 193.88C293.691 193.947 293.664 194.015 293.637 194.083L278.583 235.113C271.73 253.746 256.758 267.194 237.747 272.133L179.461 286.692C170.535 288.922 160.576 288.922 151.65 286.692C151.614 286.684 151.579 286.676 151.544 286.668L128.905 281.235C112.84 277.129 98.6539 265.716 90.6596 250.501L56.0437 184.062L56.0354 184.054C47.3608 167.088 47.3747 146.698 56.4008 129.788C56.4092 129.774 56.4175 129.76 56.4258 129.747L69.1744 105.622L69.1827 105.614L69.1993 105.581C75.1756 94.4075 85.0524 85.2277 96.9699 79.459C96.9782 79.4549 96.9866 79.447 96.9949 79.4428L151.01 54.9527C151.029 54.9445 151.048 54.9364 151.067 54.9281C158.11 51.6946 165.418 49.906 172.76 49.5778Z" stroke="#AC4275" stroke-width="49.9999" stroke-miterlimit="10" stroke-linecap="round" stroke-linejoin="round"/>
<path d="M77.9556 252.566L47.8432 194.212C35.5245 170.961 35.9807 142.696 48.2994 119.445L56.9682 102.577C65.1806 87.0771 78.4119 74.3121 94.8369 67.0178L142.743 45.135C161.449 36.4731 183.349 35.5613 202.968 42.3997L244.943 56.9882C269.58 65.6502 288.743 85.7094 295.586 111.239L306.993 151.358C311.555 167.77 311.099 185.094 305.168 200.594L292.849 233.874C283.724 258.948 262.736 278.096 236.73 284.478L185.174 297.243C172.399 300.435 159.624 300.435 146.849 297.243L130.88 293.596C108.068 288.125 88.9056 273.081 77.9556 252.566Z" fill="#585A66"/>
<path d="M139.093 46.9585L73.8496 76.5915C71.1121 77.9592 68.8309 79.7827 67.4621 82.5181L31.4185 149.99C29.1372 154.093 29.1372 158.652 31.4185 162.755L57.8809 213.815C65.1809 227.492 85.712 221.109 83.4308 205.609L81.6059 192.844C80.6933 185.55 81.1495 178.255 83.4308 171.417L90.2746 148.167C93.4683 137.225 100.312 127.651 109.437 120.813L136.356 100.298C141.374 96.6507 145.481 91.18 147.762 85.7093L156.887 65.1942C162.362 53.341 150.499 41.4878 139.093 46.9585Z" fill="#3F414A"/>
<path fill-rule="evenodd" clip-rule="evenodd" d="M223.956 210.624L199.774 220.198C195.668 221.565 192.474 224.301 189.737 227.492L178.787 240.713C174.225 246.183 172.4 253.478 173.768 260.772L174.681 266.699C177.418 279.463 189.281 288.125 202.512 285.846L263.649 276.272C272.318 274.905 279.618 268.978 282.812 260.772L310.643 183.726C312.468 178.711 312.468 173.697 311.099 168.682C305.624 149.534 281.443 144.519 268.668 160.02L233.537 203.33C231.256 206.521 227.606 208.8 223.956 210.624Z" fill="#707381"/>
<path fill-rule="evenodd" clip-rule="evenodd" d="M79.7811 256.213L45.1062 189.653C34.6124 169.138 34.6124 144.519 45.5624 124.004L58.3374 99.842C65.6374 86.1653 77.4998 75.2239 91.6435 68.3855L145.937 43.7673C162.818 36.0172 181.525 35.1054 198.862 41.4879L249.049 59.2677C270.949 67.0178 287.831 84.7976 293.762 107.136L306.993 154.549C311.099 168.682 310.643 184.182 305.168 198.315L290.112 239.345C281.899 261.684 263.649 278.096 240.837 284.022L182.437 298.611C171.487 301.346 159.625 301.346 148.675 298.611L125.862 293.14C106.244 288.125 89.3623 274.449 79.7811 256.213Z" stroke="#71264A" stroke-width="24.5669" stroke-miterlimit="10" stroke-linecap="round" stroke-linejoin="round"/>
</g>
<defs>
<clipPath id="clip0_3709_14727">
<rect width="347.016" height="337.967" fill="white"/>
</clipPath>
</defs>
</svg>
