<svg width="140" height="140" viewBox="0 0 140 140" fill="none" xmlns="http://www.w3.org/2000/svg">
<g clip-path="url(#clip0_3674_4961)">
<path d="M33.0859 130.959C33.0859 133.407 34.0582 135.754 35.7889 137.485C37.5196 139.216 39.8669 140.188 42.3145 140.188C38.9091 136.783 41.3201 130.959 46.1374 130.959H93.8626C98.6799 130.959 101.091 136.783 97.6855 140.188C100.133 140.188 102.48 139.216 104.211 137.485C105.942 135.754 106.914 133.407 106.914 130.959C106.914 128.512 105.942 126.165 104.211 124.434C102.48 122.703 100.133 121.731 97.6855 121.731H42.3145C39.8669 121.731 37.5196 122.703 35.7889 124.434C34.0582 126.165 33.0859 128.512 33.0859 130.959ZM33.0859 110.195C33.0859 112.643 34.0582 114.99 35.7889 116.721C37.5196 118.452 39.8669 119.424 42.3145 119.424C38.9091 116.019 41.3201 110.195 46.1374 110.195H93.8626C98.6799 110.195 101.091 116.019 97.6855 119.424C100.133 119.424 102.48 118.452 104.211 116.721C105.942 114.99 106.914 112.643 106.914 110.195C106.914 107.748 105.942 105.4 104.211 103.67C102.48 101.939 100.133 100.967 97.6855 100.967H42.3145C39.8669 100.967 37.5196 101.939 35.7889 103.67C34.0582 105.4 33.0859 107.748 33.0859 110.195Z" fill="#D0D8DA"/>
<path d="M9.38028 106.206L18.0043 77.238C17.29 76.8549 16.664 76.326 16.167 75.6856C15.67 75.0452 15.3131 74.3076 15.1193 73.5204C14.9255 72.7333 14.8992 71.9143 15.0421 71.1164C15.1849 70.3184 15.4938 69.5594 15.9487 68.8885C16.4667 68.1114 17.1691 67.4748 17.9933 67.0356C18.8174 66.5964 19.7375 66.3681 20.6714 66.3714C22.291 66.3852 23.6591 66.9943 24.6604 67.9448C25.1732 68.4343 25.7949 68.795 26.4744 68.9971C27.1539 69.1993 27.8717 69.2372 28.5687 69.1076C30.0282 68.8459 31.5325 69.1557 32.77 69.9728C33.554 70.4804 34.1998 71.1746 34.6496 71.9932C35.0993 72.8118 35.339 73.7292 35.347 74.6632C35.3611 75.4737 35.2047 76.278 34.888 77.0242C34.5712 77.7703 34.1013 78.4416 33.5086 78.9945C32.9159 79.5475 32.2136 79.9697 31.4472 80.2338C30.6809 80.498 29.8676 80.5982 29.0601 80.5279L20.436 109.496C21.1504 109.879 21.7764 110.408 22.2734 111.049C22.7703 111.689 23.1273 112.427 23.3211 113.214C23.5149 114.001 23.5412 114.82 23.3983 115.618C23.2554 116.416 22.9466 117.175 22.4917 117.846C21.9737 118.623 21.2712 119.259 20.4471 119.699C19.623 120.138 18.7029 120.366 17.769 120.363C16.2867 120.369 14.8587 119.806 13.78 118.789C13.2672 118.3 12.6454 117.939 11.9659 117.737C11.2865 117.535 10.5687 117.497 9.8717 117.627C8.41213 117.888 6.90782 117.578 5.67042 116.761C4.88682 116.253 4.24132 115.559 3.79161 114.74C3.34191 113.922 3.10201 113.005 3.09335 112.071C3.07968 111.261 3.23632 110.456 3.55314 109.71C3.86997 108.964 4.33992 108.293 4.93256 107.74C5.52521 107.188 6.22735 106.765 6.99352 106.501C7.75969 106.237 8.57282 106.136 9.38028 106.206Z" fill="#E9F1F2"/>
<path d="M7.06388 112.502C10.2039 112.502 12.9932 110.493 13.9853 107.514L22.7039 81.3562C23.4307 79.1783 25.1402 77.4687 27.3182 76.7419C29.4961 76.0152 31.2057 74.3056 31.9324 72.1277C32.1862 71.364 32.3223 70.575 32.4054 69.7836C32.5277 69.8505 32.6522 69.8967 32.7722 69.9728C33.5562 70.4804 34.2021 71.1747 34.6518 71.9932C35.1016 72.8118 35.3412 73.7292 35.3493 74.6632C35.3633 75.4737 35.2069 76.278 34.8902 77.0242C34.5735 77.7703 34.1036 78.4416 33.5108 78.9945C32.9181 79.5475 32.2158 79.9697 31.4495 80.2338C30.6832 80.498 29.8699 80.5982 29.0624 80.5279L20.4383 109.496C21.1527 109.879 21.7786 110.408 22.2756 111.049C22.7726 111.689 23.1296 112.427 23.3233 113.214C23.5171 114.001 23.5434 114.82 23.4006 115.618C23.2577 116.416 22.9488 117.175 22.494 117.846C21.976 118.623 21.2735 119.259 20.4494 119.699C19.6252 120.138 18.7051 120.366 17.7713 120.363C16.289 120.369 14.8609 119.806 13.7822 118.789C13.2694 118.3 12.6477 117.939 11.9682 117.737C11.2887 117.535 10.5709 117.497 9.87396 117.627C8.4144 117.888 6.91009 117.578 5.67268 116.761C4.95557 116.29 4.35545 115.662 3.91805 114.924C3.48064 114.186 3.2175 113.358 3.14868 112.502H7.06388Z" fill="#D0D8DA"/>
<path d="M3.35381 129.194C3.62797 128.302 4.11952 127.491 4.78435 126.835C5.44917 126.179 6.26647 125.698 7.16288 125.436C8.58215 125.008 10.1116 125.141 11.4357 125.808C12.0666 126.131 12.7653 126.299 13.474 126.299C14.1828 126.299 14.8815 126.131 15.5124 125.808C16.8366 125.141 18.3659 125.008 19.7852 125.436C21.5847 125.953 23.0613 127.402 23.5943 129.194C23.839 129.967 23.9186 130.783 23.8279 131.589C23.7372 132.394 23.4783 133.172 23.0678 133.871C22.6573 134.57 22.1045 135.175 21.4452 135.647C20.7859 136.119 20.0349 136.447 19.2407 136.61V140.188H7.70737V136.612C6.91329 136.448 6.1624 136.12 5.50329 135.648C4.84418 135.176 4.29155 134.57 3.88116 133.871C3.47078 133.172 3.21178 132.395 3.12094 131.589C3.0301 130.783 3.10943 129.968 3.35381 129.194Z" fill="#E9F1F2"/>
<path d="M4.31132 133.267C7.17578 133.261 9.99051 132.518 12.4839 131.108C14.9774 129.698 17.0653 127.669 18.5463 125.217C19.6928 125.288 20.7905 125.706 21.6929 126.417C22.5953 127.127 23.2594 128.096 23.5966 129.195C23.8414 129.967 23.921 130.783 23.8303 131.589C23.7396 132.394 23.4806 133.172 23.0701 133.871C22.6597 134.57 22.1069 135.175 21.4476 135.647C20.7883 136.119 20.0372 136.447 19.2431 136.61V140.188H7.70741V136.612C6.80562 136.423 5.96226 136.021 5.2481 135.439C4.53394 134.857 3.9698 134.112 3.60303 133.267H4.31132ZM33.0858 89.4312C33.0858 91.8787 34.0581 94.226 35.7888 95.9567C37.5195 97.6874 39.8668 98.6597 42.3143 98.6597C38.909 95.2543 41.32 89.4312 46.1373 89.4312H93.8625C98.6798 89.4312 101.091 95.2543 97.6854 98.6597C100.133 98.6597 102.48 97.6874 104.211 95.9567C105.942 94.226 106.914 91.8787 106.914 89.4312C106.914 86.9836 105.942 84.6363 104.211 82.9056C102.48 81.1749 100.133 80.2026 97.6854 80.2026H42.3143C39.8668 80.2026 37.5195 81.1749 35.7888 82.9056C34.0581 84.6363 33.0858 86.9836 33.0858 89.4312Z" fill="#D0D8DA"/>
<path d="M105.947 91.7383C104.885 91.7385 103.85 91.4043 102.988 90.7832C102.126 90.162 101.482 89.2854 101.146 88.2776C100.81 87.27 100.166 86.3935 99.3042 85.7725C98.4425 85.1514 97.4073 84.8171 96.3451 84.8169H88.9046C87.643 84.8145 86.428 84.3394 85.4995 83.4852C84.5709 82.631 83.9963 81.4597 83.8889 80.2026H56.1111C55.8804 82.7843 53.7371 84.8169 51.0954 84.8169H43.6549C41.477 84.8169 39.5413 86.2104 38.8538 88.2776C38.5178 89.2852 37.8734 90.1616 37.0117 90.7827C36.15 91.4038 35.1148 91.7381 34.0526 91.7383H33.4136C33.9204 93.7157 35.07 95.4685 36.6816 96.7214C38.2932 97.9743 40.2755 98.6561 42.3168 98.6597C38.9115 95.2543 41.3224 89.4312 46.1397 89.4312H93.865C98.6823 89.4312 101.093 95.2543 97.6879 98.6597C101.984 98.6597 105.56 95.7112 106.591 91.7383H105.947ZM105.947 112.502C104.885 112.503 103.85 112.168 102.988 111.547C102.126 110.926 101.482 110.05 101.146 109.042C100.81 108.034 100.166 107.158 99.3042 106.537C98.4425 105.916 97.4073 105.581 96.3451 105.581H88.9046C87.643 105.579 86.428 105.104 85.4995 104.249C84.5709 103.395 83.9963 102.224 83.8889 100.967H56.1111C55.8804 103.548 53.7371 105.581 51.0954 105.581H43.6549C41.477 105.581 39.5413 106.975 38.8538 109.042C38.5178 110.049 37.8734 110.926 37.0117 111.547C36.15 112.168 35.1148 112.502 34.0526 112.502H33.4136C33.9204 114.48 35.07 116.233 36.6816 117.486C38.2932 118.738 40.2755 119.42 42.3168 119.424C38.9115 116.019 41.3224 110.195 46.1397 110.195H93.865C98.6823 110.195 101.093 116.019 97.6879 119.424C101.984 119.424 105.56 116.475 106.591 112.502H105.947ZM105.947 133.267C104.885 133.267 103.85 132.933 102.988 132.311C102.126 131.69 101.482 130.814 101.146 129.806C100.81 128.798 100.166 127.922 99.3042 127.301C98.4425 126.68 97.4073 126.345 96.3451 126.345H88.9046C87.643 126.343 86.428 125.868 85.4995 125.013C84.5709 124.159 83.9963 122.988 83.8889 121.731H56.1111C55.8804 124.313 53.7371 126.345 51.0954 126.345H43.6549C41.477 126.345 39.5413 127.739 38.8538 129.806C38.5178 130.814 37.8734 131.69 37.0117 132.311C36.15 132.932 35.1148 133.266 34.0526 133.267H33.4136C33.9204 135.244 35.07 136.997 36.6816 138.25C38.2932 139.503 40.2755 140.184 42.3168 140.188C38.9115 136.783 41.3224 130.959 46.1397 130.959H93.865C98.6823 130.959 101.093 136.783 97.6879 140.188C101.984 140.188 105.56 137.239 106.591 133.267H105.947Z" fill="#B8BEBF"/>
<path d="M74.6143 66.3599C91.1788 66.3599 104.607 52.9317 104.607 36.3672C104.607 19.8027 91.1788 6.37451 74.6143 6.37451C58.0498 6.37451 44.6216 19.8027 44.6216 36.3672C44.6216 52.9317 58.0498 66.3599 74.6143 66.3599Z" fill="#E9F1F2"/>
<path d="M44.6216 36.3672C44.6216 52.9323 58.0491 66.3598 74.6143 66.3598C89.7029 66.3598 102.154 55.2049 104.259 40.6999C101.615 38.9119 99.7574 36.171 98.8991 33.0403C95.7799 21.6454 86.1245 12.9567 74.2036 11.2817C71.6265 10.9195 69.4071 9.33452 68.0966 7.10583C54.6714 10.0843 44.6216 22.0422 44.6216 36.3672Z" fill="#D0D8DA"/>
<path d="M79.2285 27.1387H56.1572C53.9288 27.1384 51.7333 27.6771 49.758 28.7087C47.7827 29.7403 46.0862 31.2344 44.8131 33.0634C44.6931 34.1477 44.6216 35.2482 44.6216 36.3672C44.6216 50.4568 54.3507 62.2463 67.4506 65.4624C67.5937 65.0148 67.6929 64.5488 67.6929 64.0527C67.6929 64.5972 67.8036 65.114 67.9766 65.5985C70.1154 66.083 72.3302 66.3599 74.6143 66.3599C75.1933 66.3599 75.7586 66.3068 76.3285 66.2722C76.6953 65.6124 76.9214 64.8625 76.9214 64.0527C76.9214 64.8395 77.1359 65.5662 77.482 66.2145C80.4637 65.9348 83.386 65.206 86.1499 64.0527V52.9578C88.2538 51.7452 90.0012 49.9999 91.2162 47.8975C92.4313 45.7951 93.0711 43.4097 93.0713 40.9814C93.0713 37.3101 91.6129 33.7892 89.0168 31.1931C86.4208 28.5971 82.8998 27.1387 79.2285 27.1387Z" fill="#B8BEBF"/>
<path d="M51.543 27.1387C47.8716 27.1387 44.3507 28.5971 41.7546 31.1931C39.1586 33.7892 37.7002 37.3101 37.7002 40.9814C37.7004 43.4097 38.3402 45.7951 39.5553 47.8975C40.7703 49.9999 42.5177 51.7452 44.6216 52.9578V64.0527C44.6216 65.2765 45.1077 66.4502 45.9731 67.3155C46.8384 68.1808 48.0121 68.667 49.2358 68.667C50.4596 68.667 51.6333 68.1808 52.4986 67.3155C53.364 66.4502 53.8501 65.2765 53.8501 64.0527C53.8501 65.2765 54.3362 66.4502 55.2016 67.3155C56.0669 68.1808 57.2406 68.667 58.4644 68.667C59.6881 68.667 60.8618 68.1808 61.7271 67.3155C62.5925 66.4502 63.0786 65.2765 63.0786 64.0527C63.0786 65.2765 63.5648 66.4502 64.4301 67.3155C65.2954 68.1808 66.4691 68.667 67.6929 68.667C68.9166 68.667 70.0903 68.1808 70.9556 67.3155C71.821 66.4502 72.3071 65.2765 72.3071 64.0527C72.3071 65.2765 72.7933 66.4502 73.6586 67.3155C74.524 68.1808 75.6976 68.667 76.9214 68.667C78.1452 68.667 79.3188 68.1808 80.1842 67.3155C81.0495 66.4502 81.5356 65.2765 81.5356 64.0527V52.9578C83.6395 51.7452 85.3869 49.9999 86.602 47.8975C87.817 45.7951 88.4568 43.4097 88.457 40.9814C88.457 37.3101 86.9986 33.7892 84.4026 31.1931C81.8066 28.5971 78.2856 27.1387 74.6143 27.1387H51.543Z" fill="#D0D8DA"/>
<path d="M48.6719 48.125C52.5983 48.125 55.7812 44.942 55.7812 41.0156C55.7812 37.0892 52.5983 33.9062 48.6719 33.9062C44.7455 33.9062 41.5625 37.0892 41.5625 41.0156C41.5625 44.942 44.7455 48.125 48.6719 48.125Z" fill="#93999A"/>
<path d="M76.0156 48.125C79.942 48.125 83.125 44.942 83.125 41.0156C83.125 37.0892 79.942 33.9062 76.0156 33.9062C72.0892 33.9062 68.9062 37.0892 68.9062 41.0156C68.9062 44.942 72.0892 48.125 76.0156 48.125Z" fill="#93999A"/>
<path d="M49.2358 61.7456V59.4385C49.2358 58.2147 48.7497 57.041 47.8844 56.1757C47.019 55.3104 45.8454 54.8242 44.6216 54.8242V64.0527C44.6216 65.2765 45.1077 66.4502 45.9731 67.3155C46.8384 68.1808 48.0121 68.667 49.2358 68.667C50.9639 68.667 52.452 67.7049 53.2433 66.2976C52.1368 66.1542 51.1201 65.6134 50.3827 64.7759C49.6454 63.9384 49.2378 62.8614 49.2358 61.7456ZM58.4644 61.7456V59.4385C58.4644 58.2147 57.9782 57.041 57.1129 56.1757C56.2475 55.3104 55.0739 54.8242 53.8501 54.8242V64.0527C53.8501 65.2765 54.3362 66.4502 55.2016 67.3155C56.0669 68.1808 57.2406 68.667 58.4644 68.667C60.1924 68.667 61.6805 67.7049 62.4718 66.2976C61.3653 66.1542 60.3486 65.6134 59.6113 64.7759C58.8739 63.9384 58.4663 62.8614 58.4644 61.7456ZM67.6929 61.7456V59.4385C67.6929 58.2147 67.2067 57.041 66.3414 56.1757C65.476 55.3104 64.3024 54.8242 63.0786 54.8242V64.0527C63.0786 65.2765 63.5648 66.4502 64.4301 67.3155C65.2954 68.1808 66.4691 68.667 67.6929 68.667C69.4209 68.667 70.909 67.7049 71.7004 66.2976C70.5938 66.1542 69.5771 65.6134 68.8398 64.7759C68.1025 63.9384 67.6948 62.8614 67.6929 61.7456ZM76.9214 61.7456V59.4385C76.9214 58.2147 76.4352 57.041 75.5699 56.1757C74.7046 55.3104 73.5309 54.8242 72.3071 54.8242V64.0527C72.3071 65.2765 72.7933 66.4502 73.6586 67.3155C74.524 68.1808 75.6976 68.667 76.9214 68.667C78.6494 68.667 80.1375 67.7049 80.9289 66.2976C79.8223 66.1542 78.8056 65.6134 78.0683 64.7759C77.331 63.9384 76.9233 62.8614 76.9214 61.7456Z" fill="#B8BEBF"/>
<path d="M48.125 44.8438C51.7494 44.8438 54.6875 42.3953 54.6875 39.375C54.6875 36.3547 51.7494 33.9062 48.125 33.9062C44.5006 33.9062 41.5625 36.3547 41.5625 39.375C41.5625 42.3953 44.5006 44.8438 48.125 44.8438Z" fill="#656B76"/>
<path d="M75.4688 44.8438C79.0931 44.8438 82.0312 42.3953 82.0312 39.375C82.0312 36.3547 79.0931 33.9062 75.4688 33.9062C71.8444 33.9062 68.9062 36.3547 68.9062 39.375C68.9062 42.3953 71.8444 44.8438 75.4688 44.8438Z" fill="#656B76"/>
<path d="M80.1215 80.7448C79.8474 79.852 79.3558 79.0412 78.691 78.3852C78.0262 77.7292 77.2089 77.2486 76.3124 76.9865C74.8932 76.5584 73.3637 76.6913 72.0396 77.3579C71.4087 77.6809 70.7101 77.8493 70.0013 77.8493C69.2925 77.8493 68.5939 77.6809 67.9629 77.3579C66.6388 76.6916 65.1094 76.5586 63.6901 76.9865C61.8906 77.5033 60.414 78.9521 59.8811 80.7448C59.6363 81.5177 59.5567 82.3333 59.6474 83.139C59.7381 83.9446 59.9971 84.7221 60.4075 85.4213C60.818 86.1204 61.3708 86.7254 62.0301 87.1972C62.6894 87.669 63.4404 87.997 64.2346 88.1599V96.3525H75.7703V88.1622C76.5641 87.9984 77.3148 87.6698 77.9736 87.1975C78.6325 86.7253 79.1848 86.1201 79.595 85.4209C80.0051 84.7217 80.2639 83.9442 80.3546 83.1387C80.4453 82.3332 80.3659 81.5176 80.1215 80.7448Z" fill="#E9F1F2"/>
<path d="M76.9215 87.124C70.9553 87.124 66.1034 82.5767 65.5058 76.7697C64.8932 76.7503 64.281 76.8234 63.6901 76.9865C61.8906 77.5033 60.414 78.9522 59.8811 80.7448C59.6363 81.5177 59.5567 82.3334 59.6474 83.139C59.7381 83.9446 59.9971 84.7222 60.4075 85.4213C60.818 86.1204 61.3708 86.7255 62.0301 87.1973C62.6894 87.6691 63.4404 87.997 64.2346 88.1599V96.3526H75.7703V88.1623C76.7196 87.9602 77.6018 87.5195 78.3335 86.8818C77.8783 87.0354 77.4019 87.1171 76.9215 87.124Z" fill="#D0D8DA"/>
<path d="M80.1215 96.8947C79.8474 96.0019 79.3558 95.1911 78.691 94.5351C78.0262 93.8791 77.2089 93.3985 76.3124 93.1364C74.8932 92.7083 73.3637 92.8412 72.0396 93.5078C71.4087 93.8308 70.7101 93.9992 70.0013 93.9992C69.2925 93.9992 68.5939 93.8308 67.9629 93.5078C66.6388 92.8415 65.1094 92.7085 63.6901 93.1364C61.8906 93.6532 60.414 95.102 59.8811 96.8947C59.6363 97.6676 59.5567 98.4832 59.6474 99.2889C59.7381 100.094 59.9971 100.872 60.4075 101.571C60.818 102.27 61.3708 102.875 62.0301 103.347C62.6894 103.819 63.4404 104.147 64.2346 104.31V112.502H75.7703V104.312C76.5641 104.148 77.3148 103.82 77.9736 103.347C78.6325 102.875 79.1848 102.27 79.595 101.571C80.0051 100.872 80.2639 100.094 80.3546 99.2886C80.4453 98.4831 80.3659 97.6675 80.1215 96.8947Z" fill="#E9F1F2"/>
<path d="M76.9215 103.274C70.9553 103.274 66.1034 98.7266 65.5058 92.9196C64.8932 92.9002 64.281 92.9733 63.6901 93.1364C61.8906 93.6532 60.414 95.1021 59.8811 96.8947C59.6363 97.6676 59.5567 98.4833 59.6474 99.2889C59.7381 100.095 59.9971 100.872 60.4075 101.571C60.818 102.27 61.3708 102.875 62.0301 103.347C62.6894 103.819 63.4404 104.147 64.2346 104.31V112.502H75.7703V104.312C76.7196 104.11 77.6018 103.669 78.3335 103.032C77.8783 103.185 77.4019 103.267 76.9215 103.274Z" fill="#D0D8DA"/>
<path d="M80.1215 113.045C79.8474 112.152 79.3558 111.341 78.691 110.685C78.0262 110.029 77.2089 109.548 76.3124 109.286C74.8932 108.858 73.3637 108.991 72.0396 109.658C71.4087 109.981 70.7101 110.149 70.0013 110.149C69.2925 110.149 68.5939 109.981 67.9629 109.658C66.6388 108.991 65.1094 108.858 63.6901 109.286C61.8906 109.803 60.414 111.252 59.8811 113.045C59.6363 113.817 59.5567 114.633 59.6474 115.439C59.7381 116.244 59.9971 117.022 60.4075 117.721C60.818 118.42 61.3708 119.025 62.0301 119.497C62.6894 119.969 63.4404 120.297 64.2346 120.46V128.652H75.7703V120.462C76.5641 120.298 77.3148 119.97 77.9736 119.497C78.6325 119.025 79.1848 118.42 79.595 117.721C80.0051 117.022 80.2639 116.244 80.3546 115.439C80.4453 114.633 80.3659 113.817 80.1215 113.045Z" fill="#E9F1F2"/>
<path d="M76.9215 119.424C70.9553 119.424 66.1034 114.877 65.5058 109.069C64.8932 109.05 64.281 109.123 63.6901 109.286C61.8906 109.803 60.414 111.252 59.8811 113.045C59.6363 113.818 59.5567 114.633 59.6474 115.439C59.7381 116.244 59.9971 117.022 60.4075 117.721C60.818 118.42 61.3708 119.025 62.0301 119.497C62.6894 119.969 63.4404 120.297 64.2346 120.46V128.652H75.7703V120.462C76.7196 120.26 77.6018 119.819 78.3335 119.182C77.8783 119.335 77.4019 119.417 76.9215 119.424Z" fill="#D0D8DA"/>
<path d="M80.1215 129.194C79.8474 128.302 79.3558 127.491 78.691 126.835C78.0262 126.179 77.2089 125.698 76.3124 125.436C74.8932 125.008 73.3637 125.141 72.0396 125.808C71.4087 126.131 70.7101 126.299 70.0013 126.299C69.2925 126.299 68.5939 126.131 67.9629 125.808C66.6388 125.141 65.1094 125.008 63.6901 125.436C61.8906 125.953 60.414 127.402 59.8811 129.194C59.6363 129.967 59.5567 130.783 59.6474 131.589C59.7381 132.394 59.9971 133.172 60.4075 133.871C60.818 134.57 61.3708 135.175 62.0301 135.647C62.6894 136.119 63.4404 136.447 64.2346 136.61V140.188H75.7703V136.612C76.5641 136.448 77.3148 136.119 77.9736 135.647C78.6325 135.175 79.1848 134.57 79.595 133.871C80.0051 133.171 80.2639 132.394 80.3546 131.588C80.4453 130.783 80.3659 129.967 80.1215 129.194Z" fill="#E9F1F2"/>
<path d="M76.9215 135.574C70.9553 135.574 66.1034 131.026 65.5058 125.219C64.8932 125.2 64.281 125.273 63.6901 125.436C61.8906 125.953 60.414 127.402 59.8811 129.195C59.6363 129.967 59.5567 130.783 59.6474 131.589C59.7381 132.394 59.9971 133.172 60.4075 133.871C60.818 134.57 61.3708 135.175 62.0301 135.647C62.6894 136.119 63.4404 136.447 64.2346 136.61V140.188H75.7703V136.612C76.7196 136.41 77.6018 135.969 78.3335 135.332C77.8783 135.485 77.4019 135.567 76.9215 135.574Z" fill="#D0D8DA"/>
<path d="M130.62 106.206L121.996 77.238C122.71 76.8549 123.336 76.326 123.833 75.6856C124.33 75.0452 124.687 74.3076 124.881 73.5205C125.074 72.7334 125.101 71.9143 124.958 71.1164C124.815 70.3185 124.506 69.5594 124.051 68.8885C123.533 68.1114 122.831 67.4749 122.007 67.0356C121.183 66.5964 120.262 66.3682 119.329 66.3714C117.846 66.3649 116.418 66.9282 115.34 67.9449C114.827 68.4343 114.205 68.795 113.526 68.9972C112.846 69.1993 112.128 69.2372 111.431 69.1076C109.972 68.8459 108.467 69.1557 107.23 69.9728C106.446 70.4804 105.8 71.1747 105.35 71.9933C104.901 72.8118 104.661 73.7292 104.653 74.6632C104.639 75.4737 104.795 76.278 105.112 77.0242C105.429 77.7703 105.899 78.4416 106.491 78.9946C107.084 79.5475 107.786 79.9697 108.553 80.2338C109.319 80.498 110.132 80.5982 110.94 80.5279L119.564 109.496C118.85 109.879 118.224 110.408 117.727 111.049C117.23 111.689 116.873 112.427 116.679 113.214C116.485 114.001 116.459 114.82 116.602 115.618C116.745 116.416 117.053 117.175 117.508 117.846C118.026 118.623 118.729 119.259 119.553 119.699C120.377 120.138 121.297 120.366 122.231 120.363C123.713 120.369 125.141 119.806 126.22 118.789C126.733 118.3 127.355 117.939 128.034 117.737C128.714 117.535 129.431 117.497 130.128 117.627C131.487 117.876 132.966 117.636 134.33 116.761C135.113 116.253 135.759 115.559 136.208 114.741C136.658 113.922 136.898 113.005 136.907 112.071C136.92 111.261 136.764 110.456 136.447 109.71C136.13 108.964 135.66 108.293 135.067 107.741C134.475 107.188 133.773 106.765 133.006 106.501C132.24 106.237 131.427 106.136 130.62 106.206Z" fill="#E9F1F2"/>
<path d="M132.936 112.502C131.405 112.503 129.912 112.021 128.67 111.126C127.428 110.23 126.499 108.967 126.015 107.514L117.296 81.3562C116.569 79.1783 114.86 77.4687 112.682 76.7419C110.504 76.0152 108.794 74.3056 108.067 72.1277C107.825 71.3657 107.667 70.5798 107.594 69.7836C107.472 69.8505 107.348 69.8967 107.228 69.9728C106.444 70.4804 105.798 71.1747 105.348 71.9932C104.898 72.8118 104.659 73.7292 104.651 74.6632C104.636 75.4737 104.793 76.278 105.11 77.0242C105.426 77.7703 105.896 78.4416 106.489 78.9945C107.082 79.5475 107.784 79.9697 108.55 80.2338C109.317 80.498 110.13 80.5982 110.937 80.5279L119.561 109.496C118.847 109.879 118.221 110.408 117.724 111.049C117.227 111.689 116.87 112.427 116.676 113.214C116.483 114.001 116.456 114.82 116.599 115.618C116.742 116.416 117.051 117.175 117.506 117.846C118.024 118.623 118.726 119.259 119.55 119.699C120.375 120.138 121.295 120.366 122.229 120.363C123.711 120.369 125.139 119.806 126.218 118.789C126.73 118.3 127.352 117.939 128.032 117.737C128.711 117.535 129.429 117.497 130.126 117.627C131.485 117.876 132.964 117.636 134.327 116.761C135.044 116.29 135.644 115.662 136.081 114.924C136.518 114.186 136.78 113.357 136.849 112.502H132.936Z" fill="#D0D8DA"/>
<path d="M136.646 129.194C136.372 128.302 135.88 127.491 135.216 126.835C134.551 126.179 133.733 125.698 132.837 125.436C131.418 125.008 129.888 125.141 128.564 125.808C127.933 126.131 127.235 126.299 126.526 126.299C125.817 126.299 125.118 126.131 124.488 125.808C123.163 125.141 121.634 125.008 120.215 125.436C118.415 125.953 116.939 127.402 116.406 129.194C116.161 129.967 116.081 130.783 116.172 131.589C116.262 132.394 116.521 133.172 116.931 133.871C117.341 134.57 117.894 135.176 118.553 135.648C119.212 136.12 119.963 136.448 120.757 136.612V140.188H132.293V136.612C133.087 136.448 133.838 136.12 134.497 135.648C135.156 135.176 135.708 134.57 136.119 133.871C136.529 133.172 136.788 132.395 136.879 131.589C136.97 130.783 136.89 129.968 136.646 129.194Z" fill="#E9F1F2"/>
<path d="M135.688 133.267C132.824 133.261 130.009 132.518 127.516 131.108C125.022 129.698 122.934 127.669 121.453 125.217C120.307 125.288 119.209 125.706 118.307 126.417C117.404 127.127 116.74 128.096 116.403 129.195C116.159 129.968 116.079 130.783 116.17 131.589C116.261 132.395 116.52 133.172 116.93 133.871C117.341 134.571 117.894 135.176 118.553 135.648C119.212 136.12 119.963 136.448 120.757 136.612V140.188H132.292V136.612C133.194 136.424 134.038 136.022 134.753 135.44C135.467 134.858 136.031 134.112 136.397 133.267H135.688Z" fill="#D0D8DA"/>
</g>
<defs>
<clipPath id="clip0_3674_4961">
<rect width="140" height="140" fill="white"/>
</clipPath>
</defs>
</svg>
