<svg width="230" height="232" viewBox="0 0 230 232" fill="none" xmlns="http://www.w3.org/2000/svg">
<path d="M84.3941 74.0506C86.5667 73.0744 87.2334 72.5363 89.5372 73.3149C90.99 74.1634 91.1467 74.6328 91.9052 76.139C94.3424 76.1071 95.4353 76.2019 97.8277 76.4519C101.901 76.8773 106.403 78.2309 110.374 77.1176C111.091 75.9461 111.481 75.0988 112.78 74.5381C113.256 74.3867 114.638 73.9472 115.07 73.915C116.887 73.7801 124.161 74.0231 125.276 75.5247C125.836 75.9631 125.907 76.0331 126.297 76.6265L126.348 76.6827C126.721 77.3511 126.848 77.8619 126.901 78.6271C126.967 78.9642 126.955 79.0754 127.165 79.3438C128.025 79.2586 130.909 78.1564 131.947 77.8404C133.989 77.2189 135.97 76.7561 138.015 76.1963C140.797 75.6709 144.002 74.8942 146.783 74.629C153.229 74.0139 167.224 73.8676 169.346 81.6628C169.631 81.8471 170.673 83.233 171.138 83.6418C173.064 85.3341 174.114 87.6053 173.691 90.1877C173.319 92.0221 171.807 94.4109 170.297 95.4474C168.623 96.5963 166.635 96.5174 164.736 96.0769C161.626 95.3566 156.663 93.4604 155.653 98.1148C154.998 101.13 158.307 102.908 158.607 105.673C158.757 107.744 158.836 110.49 158.308 112.488C157.928 113.927 157.313 115.68 157.255 117.134C157.14 120.476 158.415 123.576 158.248 126.956C158.124 129.492 157.561 131.491 156.445 133.754C155.564 135.541 155.26 136.668 155.217 138.653C155.198 139.583 154.701 141.007 154.662 141.991C154.434 145.818 153.624 149.123 150.474 151.644C149.096 152.746 147.297 153.265 146.126 154.633C144.957 155.999 144.6 157.632 143.844 159.126C142.202 162.371 139.462 163.513 135.953 163.053C131.27 162.439 127.834 159.561 125.08 155.901C124.208 154.744 123.069 153.28 122.342 152.07C121.582 151.533 119.864 148.505 119.02 147.461C118.242 147.956 115.928 149.371 115.472 150.062C113.31 153.334 111.4 156.86 109.407 160.244C109.086 160.789 108.121 162.484 108.032 163.022C113.404 160.367 118.659 158.007 124.678 160.049C127.607 161.043 131.197 163.612 132.3 166.608C132.974 168.005 133.229 168.724 133.579 170.237C135.062 170.526 136.964 173.113 137.733 174.274C140.89 179.039 139.462 185.723 134.314 188.442C132.039 189.643 130.101 189.911 127.803 190.841C126.468 191.451 124.433 196.858 123.558 198.34C120.755 203.146 116.181 209.631 109.668 208.228C105.953 207.358 101.858 202.964 99.1982 200.495L99.2573 200.29L99.0131 200.23C99.5467 200.149 99.4061 200.382 99.9471 200.336C99.2884 199.775 98.4546 199.286 97.6746 198.59C96.4274 197.479 95.4993 196.427 94.3757 195.196C94.1583 195.638 94.0842 196.138 93.8472 196.628C92.4009 199.663 89.8871 202.058 86.7865 203.356C84.5103 204.295 81.9564 204.303 79.6744 203.377C76.649 202.127 73.0656 199.197 71.4861 196.279C69.8976 194.77 68.1878 193.292 67.2908 191.254C65.8149 188.576 65.6184 185.372 65.2432 182.356C65.1438 182.114 65.0411 181.414 64.9894 181.125C64.7462 180.881 64.7474 180.903 64.6176 180.587C63.9736 179.187 63.378 178.574 62.5406 177.334C62.2146 177.173 62.1595 176.936 62.0005 176.596C60.198 175.05 58.3287 173.338 57.1945 171.255C55.2428 167.77 55.9001 163.462 57.441 159.961C59.0134 156.253 63.2866 152.57 67.1437 151.469C68.5667 151.073 69.6404 151.038 71.0854 151.191C75.2892 151.331 81.3451 155.4 84.1526 158.351C85.2469 159.502 86.136 160.774 87.194 161.849L87.3132 161.969C87.6985 161.134 88.4498 160.005 88.955 159.202C87.8258 154.869 89.1631 152.433 92.1761 149.42L91.7271 148.682C90.5739 147.121 90.6126 145.068 90.8319 143.252L90.7376 143.213C86.362 145.13 81.9073 148.333 77.0455 147.595C74.1537 147.157 69.2772 144.285 67.6136 141.943C66.5528 140.546 64.4333 138.436 63.8146 136.991C62.5976 134.694 62.6145 132.381 63.7197 130.056C64.1447 129.058 65.0484 127.853 65.6817 126.956C65.4911 126.529 65.3089 126.099 65.1353 125.666C63.3629 121.527 63.739 118.021 65.7464 114.113C66.6304 112.594 67.5888 111.172 68.8295 109.924C68.5489 108.61 68.3916 106.246 68.7511 104.941C68.9156 103.643 69.2696 102.688 69.8755 101.55C70.4604 99.7349 72.9426 97.5395 74.3633 96.4041C74.0457 95.5968 73.9813 95.4384 73.8693 94.5602C73.6447 92.1164 73.8879 90.3946 75.0311 88.2254C75.8122 86.0459 78.9913 84.0823 80.9078 83.0831C80.2621 79.1791 81.1357 76.4133 84.3941 74.0506Z" fill="#2B2B2B"/>
<path d="M133.58 170.237C135.062 170.526 136.965 173.113 137.734 174.274C140.89 179.039 139.463 185.723 134.315 188.442C132.039 189.643 130.101 189.911 127.803 190.841C126.469 191.451 124.433 196.858 123.558 198.34C120.755 203.146 116.181 209.631 109.668 208.228C105.954 207.358 101.858 202.964 99.1985 200.495L99.2576 200.29L99.0134 200.23C99.547 200.149 99.4064 200.382 99.9474 200.337C100.434 200.624 102.278 201.734 102.719 201.841C103.12 201.694 104.541 202.151 104.961 202.368C105.978 202.892 110.001 201.71 110.372 201.838C111.055 201.545 113.015 200.239 113.433 199.655C114.097 199.179 114.403 198.79 114.94 198.184C115.317 197.832 115.697 197.233 115.976 196.789C118.173 193.292 119.231 188.027 123.045 185.928C124.096 185.35 125.423 184.942 126.548 184.436C130.34 182.732 132.831 178.929 133.63 174.935C133.772 174.215 133.951 172.187 133.67 171.565L133.58 170.237Z" fill="#121A31"/>
<path d="M102.719 201.841C103.12 201.694 104.541 202.151 104.961 202.368C105.978 202.892 110.001 201.71 110.372 201.838C107.905 203.213 105.207 202.993 102.719 201.841Z" fill="#2B2B2B"/>
<path d="M71.867 142.544C72.7257 143.039 76.2669 142.607 77.1873 142.184C79.3942 141.172 81.5527 139.524 83.5542 138.132C87.4784 135.401 91.302 132.528 95.2649 129.854C94.4978 132.346 94.2036 133.887 94.195 136.531C94.2817 139.195 92.8093 138.826 92.1453 140.621C91.5507 141.635 91.2681 142.162 90.8322 143.252L90.7378 143.213C86.3622 145.13 81.9075 148.333 77.0457 147.595C74.1539 147.157 69.2774 144.285 67.6138 141.943L67.5839 141.535L67.7113 141.405L68.2802 141.551C69.5225 142.012 70.5476 142.344 71.867 142.544Z" fill="#121A31"/>
<path d="M108.599 140.695C110.22 138.812 110.748 137.827 111.34 135.374C113.855 140.415 116.391 142.762 119.02 147.461C118.242 147.956 115.928 149.371 115.472 150.062C113.31 153.334 111.4 156.86 109.407 160.244C109.086 160.789 108.121 162.484 108.032 163.022C107.731 163.356 104.328 165.083 103.86 165.207C102.968 164.008 107.389 156.628 105.831 152.443C110.489 149.085 109.424 145.592 108.599 140.695Z" fill="#121A31"/>
<path d="M89.4536 189.856C89.9909 190.072 90.4866 190.274 91.0371 190.459C91.2903 191.003 91.8954 191.753 92.2695 192.258C92.9698 193.335 93.6033 194.181 94.376 195.196C94.1586 195.638 94.0845 196.138 93.8475 196.628C92.4012 199.663 89.8875 202.058 86.7868 203.356C84.5106 204.295 81.9567 204.303 79.6747 203.377C76.6493 202.127 73.0659 199.197 71.4865 196.279L73.0958 196.955C74.2962 197.498 74.9373 197.786 76.2513 197.954C76.7312 198.109 78.1679 198.114 78.5895 197.93C79.5352 197.905 80.7323 197.593 81.6353 197.33C81.6524 197.326 81.6695 197.322 81.6865 197.318C85.97 195.401 87.5793 193.909 89.4536 189.856Z" fill="#121A31"/>
<path d="M65.7465 114.113C65.8605 115.046 65.6037 115.177 65.2492 115.997C64.7542 117.142 64.4121 118.322 64.3548 119.571C64.1033 121.22 65.3116 125.03 65.1353 125.666C63.363 121.527 63.739 118.021 65.7465 114.113Z" fill="#2B2B2B"/>
<path d="M57.441 159.961C57.4792 160.066 57.5174 160.173 57.5556 160.279C57.0166 162.053 56.4881 163.831 56.2764 165.679C56.2033 166.319 56.3348 167.008 56.4232 167.64C56.5237 168.358 56.7067 169.042 56.8914 169.742C57.013 170.203 57.235 170.717 57.2451 171.182L57.1945 171.255C55.2428 167.77 55.9001 163.462 57.441 159.961Z" fill="#2B2B2B"/>
<path d="M65.2434 182.356L65.5398 182.456C66.1054 183.84 65.9481 187.623 66.7692 189.211C66.9139 189.491 67.3631 190.986 67.291 191.254C65.8151 188.576 65.6186 185.372 65.2434 182.356Z" fill="#2B2B2B"/>
<path d="M62.0008 176.596C63.6087 177.296 65.1564 179.301 64.9896 181.125C64.7465 180.881 64.7476 180.903 64.6178 180.587C63.9738 179.187 63.3782 178.574 62.5409 177.334C62.2149 177.173 62.1597 176.936 62.0008 176.596Z" fill="#2B2B2B"/>
<path d="M92.145 140.621C92.1215 141.14 91.7879 141.892 91.5659 142.355C90.5575 144.457 91.1203 146.156 91.6951 148.27C91.7522 148.481 91.7334 148.407 91.7271 148.682C90.5738 147.121 90.6125 145.068 90.8319 143.252C91.2678 142.162 91.5504 141.635 92.145 140.621Z" fill="#2B2B2B"/>
<path d="M63.7199 130.056C63.9706 130.75 63.2088 132.014 63.1911 133.138C63.1705 134.44 63.8961 135.983 63.8148 136.991C62.5978 134.694 62.6146 132.381 63.7199 130.056Z" fill="#2B2B2B"/>
<path d="M95.2648 129.854C95.479 130.453 94.9714 132.16 94.8563 132.873C94.6234 134.32 94.4518 135.533 94.4856 137L94.4097 137.09C94.3279 136.896 94.2654 136.731 94.1948 136.531C94.2035 133.887 94.4977 132.346 95.2648 129.854Z" fill="#2B2B2B"/>
<path d="M75.0311 88.2254C75.2007 88.7107 74.7592 89.6544 74.5822 90.2197C74.1353 91.6475 74.1717 93.1387 73.8693 94.5602C73.6446 92.1164 73.8879 90.3946 75.0311 88.2254Z" fill="#2B2B2B"/>
<path d="M133.67 171.565C133.295 171.181 133.057 169.611 132.869 168.984C132.658 168.282 132.24 167.349 132.109 166.687L132.3 166.608C132.974 168.005 133.229 168.724 133.579 170.237L133.67 171.565Z" fill="#2B2B2B"/>
<path d="M67.144 151.469C68.5669 151.073 69.6406 151.038 71.0857 151.191C70.3849 151.612 67.9419 151.75 67.144 151.469Z" fill="#2B2B2B"/>
<path d="M155.621 86.5132C156.424 86.1698 158.932 87.1033 159.846 87.3095C159.97 87.3374 160.123 87.5429 160.2 87.6381C158.863 87.429 156.959 86.8677 155.621 86.5132Z" fill="#2B2B2B"/>
<path d="M69.8758 101.55C70.0659 102.155 69.311 104.01 69.0451 104.822L68.7515 104.941C68.9159 103.643 69.2699 102.687 69.8758 101.55Z" fill="#2B2B2B"/>
<path d="M127.379 155.354C127.976 155.18 130.006 155.921 130.748 156.13L130.86 156.344C129.56 156.246 128.561 155.857 127.379 155.354Z" fill="#2B2B2B"/>
<path d="M68.2802 141.551C68.8461 141.339 71.4742 142.037 71.8669 142.544C70.5475 142.344 69.5224 142.012 68.2802 141.551Z" fill="#2B2B2B"/>
<path d="M73.0958 196.955C73.683 196.796 75.5249 197.493 76.1799 197.738L76.2512 197.954C74.9372 197.786 74.2962 197.498 73.0958 196.955Z" fill="#2B2B2B"/>
<path d="M78.5894 197.93L78.7052 197.698C79.4673 197.502 81.0205 197.019 81.6351 197.33C80.7322 197.593 79.535 197.905 78.5894 197.93Z" fill="#2B2B2B"/>
<path d="M91.0372 190.459L91.2938 190.426C91.7399 190.85 92.2107 191.367 92.3633 191.983L92.2697 192.258C91.8956 191.753 91.2904 191.003 91.0372 190.459Z" fill="#2B2B2B"/>
<path d="M113.433 199.655L113.464 199.348C113.785 198.886 114.178 198.258 114.672 198.006L114.94 198.184C114.403 198.79 114.097 199.179 113.433 199.655Z" fill="#2B2B2B"/>
<path d="M169.346 81.6635C169.631 81.8483 170.673 83.2333 171.138 83.642C173.064 85.3343 174.115 87.6056 173.692 90.1879C173.32 92.0223 171.807 94.4113 170.297 95.4477C168.623 96.5966 166.635 96.5181 164.736 96.0775C161.626 95.3573 156.664 93.4607 155.654 98.1147C154.999 101.13 158.307 102.909 158.608 105.673C158.757 107.744 158.837 110.491 158.309 112.489C157.928 113.928 157.313 115.681 157.255 117.134C157.14 120.476 158.415 123.576 158.248 126.956C158.124 129.492 157.56 131.491 156.445 133.754C155.564 135.541 155.26 136.668 155.217 138.654C155.198 139.583 154.701 141.007 154.662 141.991C154.435 145.818 153.624 149.123 150.474 151.644C149.097 152.746 147.297 153.265 146.126 154.633C144.958 155.999 144.6 157.632 143.844 159.126C142.202 162.371 139.463 163.513 135.953 163.053C131.27 162.439 127.835 159.561 125.08 155.901C124.208 154.744 123.07 153.28 122.342 152.07C122.265 151.487 121.376 150.945 121.179 150.208L121.245 150.149C123.222 151.89 124.262 154.223 127.379 155.355C128.56 155.858 129.56 156.247 130.861 156.345C131.015 156.412 131.043 156.44 131.203 156.447C133.475 156.532 135.712 156.564 137.563 155.094C140.11 153.07 140.387 151.552 140.806 148.642C143.862 146.469 146.519 145.118 148.223 141.31C148.906 139.785 149.831 135.497 149.255 134.073C149.249 133.174 149.041 132.61 148.706 131.81C148.488 131.245 147.847 130.514 147.449 130.024C150.146 127.731 152.437 125.343 153.324 121.799C153.945 119.173 153.448 116.161 152.189 113.803C152.077 113.314 151.224 112.35 150.887 111.95C152.259 110.335 153.626 108.396 154.191 106.332C154.181 106.317 154.173 106.299 154.165 106.278C154.173 106.299 154.181 106.317 154.191 106.332C154.945 103.492 154.359 101.548 153.151 99.0141C152.775 97.6672 151.073 96.9083 150.203 96.2035L150.274 95.8783C151.114 93.5081 151.751 91.856 151.063 89.434L150.907 88.9389L150.865 88.8119C150.591 88.1181 149.467 86.5826 149.069 86.0199C151.463 85.8977 153.295 86.0907 155.62 86.5131C156.959 86.8676 158.862 87.429 160.199 87.6381C160.801 87.8913 163.458 88.3711 164.133 88.3588C168.099 88.286 169.365 84.9644 169.346 81.6635Z" fill="#121A31"/>
<path d="M126.901 78.6271C126.454 78.5092 126.222 77.1064 126.348 76.6827C126.721 77.351 126.848 77.8618 126.901 78.6271Z" fill="#2B2B2B"/>
<path d="M126.298 76.6266C125.866 76.5594 125.376 75.9535 125.276 75.5247C125.837 75.9631 125.907 76.0331 126.298 76.6266Z" fill="#2B2B2B"/>
<path d="M112.296 179.661C112.146 178.741 111.721 177.811 111.18 177.051C110.148 175.601 108.872 174.756 107.116 174.503C105.708 174.299 104.27 174.531 103.079 175.339C99.9909 177.435 97.6984 183.946 94.0563 186.537C93.3305 187.053 92.3806 187.603 91.4539 187.396C88.2676 186.688 88.0296 175.674 86.146 173.099C85.1849 171.785 83.5242 170.943 81.9329 170.709C80.4536 170.492 79.2678 170.733 78.062 171.639C76.4272 172.869 75.4016 174.89 75.1709 176.906C74.8308 179.877 76.1108 183.304 77.9676 185.593C79.7025 187.732 81.2501 188.162 83.9144 187.648C84.4851 187.537 85.1718 187.361 85.7481 187.456C86.1072 187.513 86.3061 187.679 86.4932 187.977C86.758 188.398 86.7832 188.978 86.6661 189.451C86.1896 191.371 83.6202 192.796 82.0428 193.736C80.0514 194.923 78.1139 195.393 75.8247 194.789C74.3889 194.411 73.0686 193.583 72.006 192.553C67.1425 187.844 70.1858 182.188 67.3879 177.443C65.6201 174.446 62.0502 173.377 60.316 170.311C59.1062 168.172 58.9971 165.531 59.6565 163.196C60.5698 159.962 62.8896 157.222 65.8186 155.606C71.3409 152.56 77.9445 156.797 81.8283 160.701C83.4909 162.372 85.879 166.215 88.0903 166.846C89.8401 166.504 89.5223 161.591 91.3947 162.108C94.5225 162.973 97.1257 163.557 100.371 163.906C100.805 164.011 100.987 164.004 101.268 164.346C101.573 165.201 100.829 166.52 100.656 167.38C100.571 167.801 100.603 168.302 100.632 168.729C101.272 169.094 101.763 169.174 102.468 168.899C109.165 166.286 117.374 159.919 124.794 163.763C127.376 165.122 129.31 167.456 130.164 170.246C130.917 172.714 130.656 175.38 129.438 177.654C128.053 180.228 125.798 181.943 123.04 182.733C115.24 184.973 116.14 197.015 108.338 199.437C103.816 200.839 97.4591 194.583 95.8141 190.772C95.6947 190.49 95.7697 190.372 95.8504 190.117C96.125 189.928 96.385 189.874 96.7127 189.945C100.609 190.774 104.825 191.592 108.34 189.157C110.281 187.814 112.218 185.324 112.397 182.888C112.072 182.008 111.881 180.485 112.296 179.661Z" fill="#FDEDCC"/>
<path d="M100.37 163.906C100.804 164.011 100.986 164.004 101.268 164.346C101.572 165.201 100.829 166.52 100.655 167.38C100.57 167.801 100.602 168.302 100.632 168.729C99.7997 168.857 96.5147 170.897 94.95 170.885C94.4307 170.88 93.3941 171.094 92.9033 170.707C93.1962 169.768 98.0227 166.376 98.9628 165.555C99.4208 165.155 100.487 165.071 101.106 165.272L101.11 164.564C100.85 164.27 100.673 164.145 100.37 163.906Z" fill="#9E978D"/>
<path d="M112.397 182.888C112.071 182.008 111.881 180.485 112.295 179.661C112.576 180.697 112.59 181.835 112.397 182.888Z" fill="#2B2B2B"/>
<path d="M68.9902 159.239C71.4036 159.121 72.8903 160.239 73.8932 162.315C73.7707 162.786 73.6018 163.465 73.3492 163.876C71.8959 166.241 70.4594 168.555 69.2491 171.06C69.2993 172.095 69.3798 172.23 69.19 173.291L68.8781 173.383C67.7275 172.848 65.281 168.506 64.8558 167.33C63.3419 163.142 65.2568 160.603 68.9902 159.239Z" fill="#9E978D"/>
<path d="M120.707 165.673C118.294 165.555 116.807 166.673 115.804 168.749C115.927 169.22 116.096 169.899 116.348 170.309C117.802 172.674 119.238 174.989 120.448 177.493C120.398 178.529 120.318 178.663 120.508 179.725L120.819 179.817C121.97 179.281 124.417 174.94 124.842 173.764C126.356 169.576 124.441 167.036 120.707 165.673Z" fill="#9E978D"/>
<path d="M101.339 127.924C98.5326 127.162 99.7981 122.191 99.9408 119.928C100.358 113.311 102.221 107.108 104.228 100.838C104.614 99.6308 105.396 98.4935 105.748 97.2673C106.38 94.2057 106.243 91.6855 107.987 88.8773C108.948 87.2775 108.744 85.7406 111.305 85.7386C113.866 85.7366 116.661 86.1708 119.202 86.471C120.093 86.5762 120.75 87.5462 120.684 88.3535C120.829 91.0896 118.372 92.8523 117.718 95.1939C117.092 98.3843 115.683 101.381 114.855 104.446C113.706 108.695 112.215 112.719 110.723 116.855C109.782 119.465 110.128 124.792 108.351 126.705C106.151 128.482 103.963 128.522 101.339 127.924Z" fill="#FDEDCC"/>
<path d="M69.8409 113.539C69.9422 113.552 70.0435 113.565 70.1447 113.577C71.3805 113.91 71.1044 116.962 71.3482 117.986C72.2886 121.936 75.1801 124.923 78.9796 126.31C85.687 128.758 90.6984 123.305 96.0709 120.372C96.3882 120.2 96.8009 120.006 97.1493 120.129C97.4982 121.158 96.5812 124.169 95.8758 124.942C92.1197 129.056 86.3853 132.363 81.9438 135.646C80.4916 136.613 79.1019 137.873 77.6571 138.777C73.5815 141.324 66.1173 138.848 66.2588 133.415C66.2818 132.535 66.2787 131.223 66.9211 130.589C67.6072 130.449 68.1143 131.259 68.6174 131.739C69.6199 132.707 70.8281 133.437 72.1519 133.873C74.0714 134.494 76.9857 134.107 77.5852 131.863C77.5557 131.627 77.4177 131.182 77.1944 131.085C76.293 130.691 75.0991 130.512 74.1572 130.24C68.875 128.709 65.978 122.466 67.4956 117.335C67.9672 115.74 68.555 114.619 69.8409 113.539Z" fill="#FDEDCC"/>
<path d="M112.041 125.069C112.772 125.399 113.639 126.28 114.162 126.878C118.658 132.023 122.006 138.906 129.002 141.153C133.798 142.692 139.583 141.001 142.463 136.708C143.246 135.542 144.251 133.372 145.466 132.74C146.264 132.714 146.44 133.303 146.522 134.023C147.267 140.605 142.89 145.446 136.611 146.388C135.621 146.379 126.73 145.019 127.52 147.126C128.679 150.21 135.498 149.435 137.986 149.264C137.891 149.722 137.754 150.172 137.579 150.607C136.28 153.878 132.279 154.024 129.468 152.846C126.599 151.644 124.067 149.157 122.323 146.635C121.281 145.396 120.061 142.799 119.001 141.716C116.431 139.093 115.035 136.981 113.476 133.615C112.774 132.099 111.734 130.638 111.047 128.978C111.449 127.657 111.626 126.349 112.041 125.069Z" fill="#FDEDCC"/>
<path d="M149.176 77.5813C150.151 77.4665 151.435 77.5088 152.427 77.5019C156.415 77.4742 160.199 77.8931 163.812 79.6716C166.833 81.1583 167.294 85.2875 163.326 85.3164C161.644 85.3286 159.438 84.3484 157.741 84.1153C151.29 82.4617 146.643 82.935 140.136 84.6482C138 85.0763 126.028 88.4372 124.87 88.0466C124.574 87.8043 124.407 87.5648 124.364 87.1818C124.235 85.9976 125.108 84.1344 125.891 83.2536C127.853 81.0468 139.369 78.8025 142.564 78.3005C144.76 77.9557 146.961 77.7437 149.176 77.5813Z" fill="#FDEDCC"/>
<path d="M115.116 115.289C116.093 115.516 117.604 117.26 118.497 118.096C125.677 124.805 139.071 128.793 146.463 120.34C147.187 119.514 147.642 117.783 148.628 117.021C149.279 116.519 149.937 117.395 150.236 117.918C150.904 119.373 150.523 121.044 150.048 122.5C149.672 123.379 149.175 124.198 148.568 124.936C145.94 128.19 141.557 129.904 137.559 130.26C130.539 130.884 123.672 128.776 118.046 124.585C117.086 123.917 116.074 123.234 115.155 122.515C113.319 121.081 113.683 116.92 115.116 115.289Z" fill="#FDEDCC"/>
<path d="M149.255 99.9869C150.559 100.554 151.21 101.708 151.375 103.057C152.115 109.131 144.75 113.343 139.879 114.212C132.286 115.566 124.871 113.133 118.741 109.044C116.422 107.087 117.25 103.775 119.755 102.393C123.261 106.038 126.602 107.914 131.705 108.776C136.717 109.519 143.652 108.715 146.871 104.328C147.829 103.023 147.913 100.902 149.255 99.9869Z" fill="#FDEDCC"/>
<path d="M118.987 104.732C119.192 104.92 119.101 104.815 119.201 105.107C119.074 105.691 118.765 106.115 118.457 106.634C117.998 105.978 118.603 105.304 118.987 104.732Z" fill="#FDEDCC"/>
<path d="M75.2341 99.7149L75.5282 99.8301C76.0509 100.793 75.7624 102.536 75.9378 103.719C77.2525 112.581 88.2497 115.791 95.7296 112.899C96.3002 112.678 97.8148 112.187 98.3535 112.576C98.4616 112.904 98.5222 113.066 98.3715 113.442C97.5493 115.495 97.222 116.13 95.365 117.11C92.6548 118.369 87.6909 118.881 84.7362 118.405C80.3909 117.688 76.1195 115.88 73.3709 112.332C70.4738 108.592 71.4159 102.481 75.2341 99.7149Z" fill="#FDEDCC"/>
<path d="M81.7356 85.6545C82.1876 85.8159 81.9932 85.6894 82.3194 86.0777C82.8109 87.8542 80.317 89.9822 82.6257 93.4766C86.0479 98.6563 91.4808 100.429 97.4945 100.02C98.2142 99.9713 100.899 99.7091 101.373 99.8332C101.699 100.742 100.557 102.589 100.119 103.401C99.5942 104.375 98.6658 104.663 97.6679 104.902C91.8977 105.812 83.1684 102.704 79.1647 98.4332C75.15 94.1511 76.8228 88.3169 81.7356 85.6545Z" fill="#FDEDCC"/>
<path d="M146.004 87.6865C146.78 87.9618 147.432 88.3128 147.725 89.127C149.318 93.5644 147.418 95.9766 143.422 97.5793C137.711 99.8698 128.279 101.033 122.488 98.6425C121.159 97.9763 121.048 97.4009 120.534 96.0249C121.269 95.2041 121.985 94.3291 122.694 93.483C127.654 95.7893 133.632 95.2013 138.734 93.6081C142.236 92.5145 144.336 90.9518 146.004 87.6865Z" fill="#FDEDCC"/>
<path d="M86.8134 76.0293C88.553 75.9194 88.6378 76.7788 89.2568 78.2613C90.7923 81.9397 94.4402 83.5462 97.803 85.137C99.475 85.9278 103.42 86.8078 104.605 87.9269C104.727 88.6078 103.475 91.8197 103.153 92.3571C102.717 92.5504 102.735 92.4588 102.168 92.3738C99.1339 91.4983 96.1471 90.4654 93.2201 89.2793C89.5093 87.7413 82.0394 83.9787 84.2567 78.3889C84.7175 77.2273 85.6634 76.4939 86.8134 76.0293Z" fill="#FDEDCC"/>
<path d="M97.4806 139.76C99.3174 139.771 104.087 140.867 105.934 141.486C106.239 141.616 106.57 142.122 106.634 142.428C107.178 145.054 106.611 149.436 103.654 150.316C101.411 150.113 98.2796 149.754 96.2222 148.946C92.5602 147.508 94.153 140.91 97.4806 139.76Z" fill="#FDEDCC"/>
<path d="M119.274 112.828C120.11 113.304 121.055 113.901 121.956 114.195C122.691 114.153 123.526 114.511 124.193 114.796C128.179 116.498 132.261 117.4 136.61 117.411C137.177 117.413 137.744 117.463 138.305 117.584C138.721 117.597 139.44 117.527 139.833 117.416C139.901 117.026 144.42 115.991 144.837 116.022L144.881 116.153C144.948 116.71 144.812 117.534 144.522 118.006C139.15 126.735 121.783 121.176 119.274 112.828Z" fill="#121A31"/>
<path d="M121.956 114.195C122.691 114.153 123.526 114.511 124.193 114.796C128.179 116.498 132.261 117.4 136.61 117.411C137.177 117.413 137.744 117.463 138.305 117.584C131.803 117.929 127.836 116.763 121.956 114.195Z" fill="#2B2B2B"/>
<path d="M139.833 117.416C139.901 117.026 144.42 115.991 144.837 116.022L144.881 116.153C143.23 116.721 141.581 117.224 139.833 117.416Z" fill="#2B2B2B"/>
<path d="M121.164 130.061C121.568 130.216 122.01 130.353 122.425 130.49C123.268 130.071 124.065 130.829 124.837 131.124C126.204 131.647 127.601 132.054 129.033 132.349C129.847 132.544 131.655 132.72 132.129 133.092L132.447 133.189C133.354 132.851 136.459 132.793 137.361 133.197C137.434 133.194 137.667 133.127 137.748 133.107C138.24 132.616 141.494 131.969 142.145 132.253L142.18 132.449L141.986 132.548L141.881 132.782C140.64 135.553 139.255 137.406 136.354 138.488C129.831 140.923 123.337 136.047 121.164 130.061Z" fill="#121A31"/>
<path d="M122.425 130.49C123.268 130.071 124.065 130.829 124.838 131.124C126.205 131.647 127.601 132.054 129.033 132.349C129.848 132.544 131.656 132.72 132.13 133.092C128.599 133.083 125.602 131.612 122.425 130.49Z" fill="#2B2B2B"/>
<path d="M137.749 133.107C138.24 132.616 141.495 131.969 142.145 132.253L142.181 132.449L141.986 132.548C141.491 132.285 138.808 133.047 137.749 133.107Z" fill="#2B2B2B"/>
<path d="M132.447 133.189C133.354 132.851 136.459 132.793 137.362 133.197C135.543 133.268 134.254 133.267 132.447 133.189Z" fill="#2B2B2B"/>
<path d="M106.065 177.572C107.074 177.555 108.483 178.251 109.032 179.044C110.861 181.731 109.437 185.053 107.044 186.842C105.153 188.256 103.787 188.336 101.576 188.07C100.166 187.846 98.7662 187.566 97.3798 187.227C97.73 186.586 98.6474 185.508 99.1406 184.863C101.356 181.969 102.667 179.14 106.065 177.572Z" fill="#121A31"/>
<path d="M94.5943 152.045C95.8232 152.009 101.808 153.368 102.898 153.821C104.017 155.49 102.583 160.382 100.132 160.881C98.7018 160.736 92.6004 159.481 91.5348 158.193C91.1786 157.763 91.4211 156.133 91.6495 155.545C92.3708 153.689 92.8217 152.927 94.5943 152.045Z" fill="#FDEDCC"/>
<path d="M84.2791 87.9625C86.7811 88.7548 89.4924 91.1461 92.4288 92.1552C92.512 92.1237 92.5951 92.0921 92.6783 92.0606C94.3178 92.7007 98.255 93.8013 99.6549 94.4267L99.7444 94.6783L99.9679 94.7611C100.874 95.0878 102.356 95.0977 102.831 95.7517C102.605 96.2966 101.944 96.6548 101.376 96.8571C98.0324 98.0481 93.8509 97.8645 90.5415 96.6561C89.8567 96.4059 88.4401 95.3991 87.8977 95.204C87.7525 95.2615 87.7046 95.2453 87.5398 95.2556C86.3578 94.5962 83.9601 91.8254 84.4311 90.4408C84.4719 89.7532 84.3441 88.686 84.2791 87.9625Z" fill="#121A31"/>
<path d="M92.429 92.1552C92.5121 92.1236 92.5952 92.0921 92.6784 92.0605C94.3179 92.7006 98.2551 93.8012 99.655 94.4266L99.7445 94.6782C97.6551 94.1695 94.3633 93.0337 92.429 92.1552Z" fill="#2B2B2B"/>
<path d="M87.8981 95.204C87.753 95.2615 87.705 95.2453 87.5403 95.2556C86.3582 94.5962 83.9606 91.8253 84.4316 90.4408C85.1352 92.5898 86.0258 93.8872 87.8981 95.204Z" fill="#2B2B2B"/>
<path d="M78.6503 102.803L78.6713 102.404C79.0488 102.468 81.9314 104.452 83.1289 104.87C83.6009 104.7 85.8248 105.641 86.5034 105.887C88.889 106.728 91.3551 107.321 93.8624 107.655C94.7057 107.771 97.4546 107.866 97.9897 108.195L98.1214 108.168C98.4951 108.096 98.6272 108.036 98.9882 108.159L99.1117 108.36C98.621 109.98 95.7972 110.353 94.4589 110.662C90.8638 111.492 87.4392 111.601 84.0766 109.884C83.6352 109.659 81.9987 108.528 81.6798 108.453C81.2185 108.352 80.7866 108.022 80.7407 107.536L79.7178 105.793L79.5868 105.908C79.1545 105.495 78.5321 103.53 78.5073 102.911L78.6503 102.803Z" fill="#121A31"/>
<path d="M83.1287 104.869C83.6006 104.699 85.8245 105.641 86.5031 105.887C88.8887 106.728 91.3548 107.321 93.8622 107.655C94.7054 107.771 97.4543 107.865 97.9894 108.195C93.1341 108.31 87.5416 106.881 83.1287 104.869Z" fill="#2B2B2B"/>
<path d="M79.7178 105.793L79.5868 105.908C79.1545 105.495 78.5321 103.53 78.5073 102.911L78.6503 102.803C78.9878 103.78 79.3316 104.841 79.7178 105.793Z" fill="#2B2B2B"/>
<path d="M80.7404 107.536C81.1858 107.886 81.2991 108.022 81.6794 108.453C81.2181 108.352 80.7862 108.022 80.7404 107.536Z" fill="#2B2B2B"/>
<path d="M98.9527 130.442C100.223 130.409 102.757 130.931 104.076 131.108C105.152 131.252 106.667 131.409 107.676 131.623C109.046 132.565 108.137 136.834 107.323 138.068C106.994 138.565 106.822 138.579 106.296 138.692C104.619 138.357 102.588 137.437 100.988 136.761C100.238 136.936 98.6626 137.375 97.9536 137.178C97.6979 137.109 97.4821 136.937 97.357 136.704C96.8682 135.807 97.2549 133.419 97.5531 132.443C97.8691 131.409 98.0383 130.946 98.9527 130.442Z" fill="#FDEDCC"/>
<path d="M81.0433 173.944C85.1738 173.762 84.9758 176.814 85.477 180.003C85.7295 181.609 85.8782 183.189 86.226 184.785C85.1897 185.018 84.1015 185.224 83.0571 185.437C81.2029 185.519 79.6869 183.823 79.0786 182.227C77.7951 178.859 77.0902 175.548 81.0433 173.944Z" fill="#121A31"/>
<path d="M145.945 100.105C145.658 102.318 143.612 104.508 141.596 105.316C135.741 107.662 127.791 106.015 123.009 102.178C125.558 102.699 132.889 103.44 135.422 102.767L135.651 102.697C137.918 102.489 141.015 101.651 143.194 100.937H143.195C144.13 100.7 145.019 100.37 145.945 100.105Z" fill="#121A31"/>
<path d="M115.108 77.1968C116.806 77.0694 123.31 76.7327 123.909 78.8985C124.364 80.5406 123.172 82.4205 121.487 83.0289C119.034 83.4164 115.15 83.0159 112.874 81.9422C112.153 79.6171 112.233 77.4846 115.108 77.1968Z" fill="#FDEDCC"/>
<path d="M96.5305 79.2459C97.202 78.8926 100.094 79.1911 100.474 79.7917C102.41 80.4473 107.807 81.0229 109.757 80.5375L109.901 82.6442C108.849 83.1897 106.869 84.3281 105.823 84.592C102.882 83.9019 96.3165 81.5976 94.3195 79.3486C95.3106 79.1509 95.5543 79.1671 96.5305 79.2459Z" fill="#121A31"/>
<path d="M96.5304 79.2459C97.2019 78.8926 100.093 79.1911 100.474 79.7917C99.8464 79.7799 97.2867 79.3574 96.5304 79.2459Z" fill="#2B2B2B"/>
<path d="M143.201 86.9678L143.497 87.0596C144.061 89.0941 137.78 91.3386 136.308 91.6856C134.615 92.085 127.59 92.528 126.47 91.4668C126.986 90.6012 130.343 90.4357 131.226 89.9043C131.251 89.8773 131.283 89.8492 131.323 89.8204H131.324C131.284 89.8493 131.251 89.8771 131.226 89.9043C133.15 89.5656 135.453 88.8171 137.372 88.3379C139.323 87.8504 141.25 87.4381 143.201 86.9678Z" fill="#121A31"/>
<path d="M74.0342 117.326C75.8003 118.359 76.8494 119.253 78.8279 120.053C79.4735 119.777 79.6289 120.045 80.2656 120.289C82.0491 120.975 84.0536 121.307 85.961 121.396C86.8681 121.44 88.0396 121.377 88.8326 121.628L88.9562 121.69C88.6472 122.285 85.8829 123.601 85.1235 123.754C79.8189 124.826 75.7225 122.126 74.0342 117.326Z" fill="#121A31"/>
<path d="M78.8278 120.053C79.4734 119.777 79.6288 120.045 80.2655 120.289C82.0489 120.975 84.0535 121.307 85.9609 121.396C86.868 121.44 88.0394 121.377 88.8325 121.628C85.2363 122.082 82.1351 121.393 78.8278 120.053Z" fill="#2B2B2B"/>
<path d="M94.3038 47.9721C93.599 47.3173 93.0139 46.5446 92.5746 45.6885C90.9714 42.6068 91.4014 39.348 93.1214 36.3956C94.0918 34.7299 94.7503 34.6234 95.2606 32.4566C96.2495 28.1829 96.3788 23.7442 97.7322 19.5437C101.705 7.21361 113.716 0.128881 126.314 0.170963C131.223 0.187361 135.345 0.0215583 140.163 1.71178C149.621 5.02946 156.157 11.3277 160.612 20.1042C161.462 20.5091 162.063 21.4183 162.711 22.0857C166.851 26.4197 169.43 32.0898 169.187 38.1338C168.865 46.1504 165.204 53.3459 162.136 60.3782C158.603 68.4772 155.991 69.2872 147.56 71.4892C146.017 71.8921 138.921 75.0322 138.015 76.1963C135.971 76.7561 133.989 77.2189 131.947 77.8403C130.909 78.1564 128.026 79.2586 127.165 79.3438C126.955 79.0754 126.968 78.9642 126.901 78.6271C126.848 77.8618 126.721 77.351 126.348 76.6827L126.298 76.6265C125.907 76.033 125.837 75.963 125.276 75.5246C124.162 74.023 116.887 73.78 115.07 73.915C114.638 73.9472 113.256 74.3867 112.78 74.5381C112.196 73.7926 105.967 69.4808 105.7 68.4L106.258 68.641L106.507 68.4579C105.179 67.6189 104.652 66.554 103.614 65.6236C99.9743 62.3621 98.6087 61.3599 100.316 56.2734L100.109 56.1915L99.791 56.3593C98.4996 55.1947 94.2517 49.6276 93.8224 48.1238C94.0258 48.0478 94.098 48.0275 94.3038 47.9721Z" fill="#2B2B2B"/>
<path d="M160.612 20.1043C161.463 20.5092 162.063 21.4184 162.712 22.0858C166.851 26.4198 169.43 32.0898 169.187 38.1339C168.865 46.1505 165.205 53.346 162.136 60.3783C158.603 68.4773 155.991 69.2873 147.56 71.4893C146.017 71.8921 138.921 75.0323 138.015 76.1963C135.971 76.7561 133.989 77.2189 131.947 77.8404C130.909 78.1564 128.026 79.2587 127.165 79.3439C126.955 79.0755 126.968 78.9643 126.901 78.6271C126.848 77.8619 126.721 77.3511 126.348 76.6828L126.298 76.6266C125.907 76.0331 125.837 75.9631 125.276 75.5247C124.162 74.0231 116.887 73.7801 115.07 73.9151C114.638 73.9472 113.256 74.3868 112.781 74.5382C112.196 73.7927 105.967 69.4809 105.7 68.4L106.258 68.641L106.507 68.458C107.518 68.8135 108.681 69.4778 109.655 69.755C110.811 70.0841 112.244 70.1861 113.424 70.5281C114.35 70.7965 115.353 71.5688 116.268 71.6995C118.305 71.99 120.427 72.1259 122.485 72.3613L123.786 71.7808C126.055 72.3407 128.836 73.0341 131.07 72.6848C135.763 71.9512 134.791 67.9414 136.624 65.0009C136.84 64.7266 137.402 64.2123 137.744 64.1823C141.277 63.8713 144.878 65.017 148.21 63.1801C150.213 62.0757 151.292 60.7182 152.329 58.7253C153.184 57.0815 153.521 55.0618 154.332 53.5018C157.566 47.2748 161.415 41.2008 162.091 34.0339C162.263 32.2033 162.472 29.9199 162.201 28.0828L162.018 26.0889C161.68 23.7138 161.288 22.3724 160.612 20.1043Z" fill="#121A31"/>
<path d="M94.3038 47.9722C95.6746 49.0534 100.394 52.689 101.01 54.2379C100.962 54.9256 100.595 55.622 100.316 56.2735L100.109 56.1916L99.7909 56.3593C98.4995 55.1947 94.2516 49.6277 93.8224 48.1238C94.0257 48.0478 94.0979 48.0276 94.3038 47.9722Z" fill="#121A31"/>
<path d="M162.201 28.0828L162.117 28.8489L162.042 28.8357C161.824 27.9695 161.741 26.949 162.018 26.0889L162.201 28.0828Z" fill="#2B2B2B"/>
<path d="M124.655 3.31899C126.221 3.14578 130.712 3.26022 132.247 3.41974C140.806 4.30929 147.76 8.23138 153.177 14.8453C157.936 20.6556 159.976 26.3152 159.126 33.8299C158.618 38.3307 156.758 42.7383 154.803 46.803C153.995 48.4806 152.496 50.5815 151.748 52.2028C150.216 55.5264 150.062 59.1732 146.054 60.8436C142.658 62.2593 138.462 59.855 135.433 61.9125C132.892 63.6381 133.362 67.5715 131.432 69.3886C130.555 70.0573 128.523 69.9552 127.528 69.8394C124.243 69.4577 128.082 64.8135 125.294 64.5467C122.566 64.2856 123.727 67.9707 122.336 69.1311C121.819 69.5612 120.795 69.3656 120.172 69.2972C119.741 69.2578 118.177 69.1584 117.743 68.9604C115.285 67.8391 120.374 61.5068 117.342 61.1614C115.303 60.9292 115.105 66.1841 113.83 66.9927C112.878 67.5965 109.967 66.8662 109.322 65.9004C107.956 63.9212 111.327 59.5461 109.812 57.9649C109.586 57.7288 109.268 57.6018 108.941 57.6167C106.83 57.7146 107.466 62.9054 105.232 63.0466C104.761 62.909 104.616 62.8165 104.267 62.4586C100.901 59.0052 104.516 56.347 104.569 52.1461C102.324 48.2957 95.245 47.5733 94.8703 42.1168C94.6288 38.5986 97.5636 36.864 98.2602 34.009C100.045 26.6961 99.3307 18.8259 104.858 12.8722C110.485 6.63957 116.349 3.9827 124.655 3.31899Z" fill="#FDEDCC"/>
<path d="M136.135 33.9768C141.457 33.2035 146.392 36.9059 147.14 42.2316C147.887 47.5572 144.16 52.4745 138.831 53.1949C133.538 53.9103 128.662 50.2151 127.921 44.9268C127.18 39.6383 130.85 34.7446 136.135 33.9768Z" fill="#2B2B2B"/>
<path d="M110.571 26.1731C115.631 25.4314 120.342 28.9111 121.118 33.9654C121.896 39.0195 118.451 43.7543 113.402 44.5678C108.302 45.3895 103.509 41.9008 102.724 36.7955C101.938 31.6904 105.461 26.9223 110.571 26.1731Z" fill="#2B2B2B"/>
<path d="M121.812 45.1349C123.488 45.2867 124.044 46.6499 124.495 48.0968C125.333 50.7938 125.881 55.822 121.755 55.8035C120.709 55.7989 119.799 55.793 118.747 55.6962C111.914 54.6444 116.154 46.2923 121.812 45.1349Z" fill="#2B2B2B"/>
<path d="M31.4149 43.0468C31.3176 40.2614 31.0325 37.549 33.1344 35.361C34.3033 34.1443 35.7673 33.6208 37.4316 33.6038C39.6501 33.6017 41.7758 34.4942 43.3279 36.0794C44.7345 37.4964 45.2926 38.6769 45.7677 40.5771C56.8468 42.9104 67.7032 50.4532 78.5274 53.9465C82.001 55.0676 86.643 56.2859 88.0865 60.0502C88.5334 61.2292 88.5063 61.8233 88.3376 63.0831C88.889 64.0723 88.5117 64.3108 89.1579 65.1475C90.4347 66.8011 91.3375 67.7069 91.173 69.9209C91.0548 71.5139 90.1214 72.0407 89.9536 73.0665L89.5372 73.3149C87.2334 72.5363 86.5667 73.0744 84.3941 74.0506C80.6267 72.5571 76.7061 71.524 72.9391 70.1002L60.8091 65.5588C57.7046 64.3837 54.6508 63.1008 51.4082 62.3225C46.6224 61.1921 44.8727 64.5274 43.4978 68.3605C41.7224 73.3101 40.9078 78.3689 39.4808 83.4028C38.7773 86.035 37.7661 88.5737 37.1192 91.2162C36.6274 93.2255 37.0702 95.5023 37.0955 97.5428C37.1146 99.0832 36.4557 100.592 35.929 102.015C35.7164 102.59 35.4681 103.359 35.2084 103.884C37.5708 106.359 40.7499 109.945 42.0804 113.079L42.3605 113.698L42.5653 113.316C42.7726 113.349 42.7512 113.303 42.857 113.484C43.2379 114.136 44.6091 115.131 44.9123 115.594C46.7735 118.554 48.4247 122.329 48.3959 125.879C48.3883 126.823 47.7476 127.777 47.0414 128.372C44.05 130.893 40.0886 128.719 38.2383 125.918C37.9177 125.433 37.3957 124.733 37.1948 124.169L36.5344 123.855C34.9713 126.471 35.1111 132.905 34.6471 136.09C34.3441 138.084 33.7529 140.023 32.8921 141.846C30.4959 146.839 26.2416 143.676 24.0298 140.483L23.5712 140.201C23.0251 139.93 22.3016 139.017 21.913 138.538C20.0205 139.889 19.5014 142.86 16.0846 142.315C14.2348 142.02 12.0286 140.793 10.9307 139.314C10.7773 139.108 10.6315 138.896 10.4937 138.679C10.1297 138.292 9.78186 137.849 9.44334 137.437C8.65586 138.258 4.27136 135.234 3.88371 134.266C3.09836 133.964 2.82004 133.857 2.21915 133.267C1.81554 133.053 1.53697 132.584 1.31933 132.202C1.26832 132.105 1.21868 132.009 1.17056 131.909C-0.352051 128.788 0.452182 125.585 1.53307 122.492C1.91607 120.774 4.52744 116.856 5.36343 114.74C6.21148 112.019 7.92605 107.673 9.30475 105.206C9.48858 104.584 10.4164 103.413 10.8007 102.848C13.0983 99.4716 13.7987 98.2795 17.2639 96.1045C16.6771 95.4699 16.4553 95.2458 15.9988 94.5058C14.7431 92.5394 15.1318 90.4283 15.9787 88.4266C16.4728 87.0593 18.1122 84.9051 18.9085 83.547C19.3181 82.8484 19.6183 82.246 19.9921 81.5255C21.2492 78.4342 22.295 74.0512 23.2005 70.698C24.7253 65.0662 26.2072 59.4229 27.6458 53.7684C28.2655 51.2844 28.5934 47.584 29.687 45.5013C30.0604 44.7265 30.8694 43.7608 31.4149 43.0468Z" fill="#2B2B2B"/>
<path d="M41.9882 54.6102C43.2419 53.9913 48.3309 55.7369 49.8812 56.2641C54.3947 57.7993 58.7158 59.8747 63.0616 61.8179C65.6997 62.9975 68.3847 64.0781 71.0389 65.222C73.6906 66.3647 77.5279 68.242 80.3328 68.7518C82.689 69.1801 84.6274 67.5464 85.4962 67.6891C86.5967 67.0033 87.8842 64.5695 88.1112 63.3198L88.3376 63.0832C88.8889 64.0724 88.5117 64.3109 89.1578 65.1476C90.4346 66.8012 91.3375 67.707 91.173 69.921C91.0547 71.5139 90.1214 72.0408 89.9536 73.0665L89.5372 73.315C87.2334 72.5364 86.5667 73.0745 84.3941 74.0507C80.6267 72.5571 76.7061 71.5241 72.9391 70.1003L60.8091 65.5589C57.7046 64.3837 54.6508 63.1009 51.4081 62.3226C46.6224 61.1922 44.8727 64.5275 43.4977 68.3606C41.7223 73.3102 40.9077 78.369 39.4808 83.4029C38.7772 86.0351 37.7661 88.5738 37.1192 91.2162C36.6274 93.2256 37.0702 95.5024 37.0955 97.5429C37.1146 99.0833 36.4556 100.592 35.929 102.015C35.7164 102.59 35.4681 103.359 35.2084 103.884C34.1339 103.064 33.9468 102.785 32.6128 102.629C32.6413 101.555 32.5036 101.126 32.0034 100.157C31.3497 98.8565 30.5403 98.222 29.4418 97.3564C31.1174 95.9496 31.6502 95.4482 32.196 93.2535C33.0394 89.8634 31.1261 87.0351 32.0707 83.7381C34.489 75.2989 36.0497 66.6057 39.1129 58.3661C39.5104 57.2968 40.0024 55.4946 40.7265 54.6668C41.1519 54.44 41.4943 54.5496 41.9882 54.6102Z" fill="#121A31"/>
<path d="M41.9885 54.6102C43.2421 53.9913 48.3312 55.7369 49.8814 56.2641C54.3949 57.7993 58.716 59.8747 63.0618 61.8179C65.6999 62.9975 68.3849 64.0781 71.0392 65.222C73.6909 66.3647 77.5281 68.242 80.333 68.7518C82.6892 69.1801 84.6277 67.5464 85.4965 67.6891C84.0998 68.79 82.0677 69.3912 80.3036 69.0085C77.0949 68.312 73.9806 66.7657 70.9562 65.5099C68.1491 64.3444 65.3553 63.1444 62.5644 61.9423C55.2877 58.602 49.8331 56.0043 41.9885 54.6102Z" fill="#2B2B2B"/>
<path d="M30.3139 115.784C30.8516 116.253 31.25 116.793 31.764 117.269C32.3613 118.638 33.0885 119.838 33.68 121.146C34.1874 121.821 35.3615 123.4 36.1879 123.492L36.5345 123.855C34.9713 126.471 35.1112 132.905 34.6471 136.09C34.3442 138.084 33.753 140.023 32.8921 141.846C30.496 146.839 26.2417 143.676 24.0299 140.483L23.5712 140.201C24.7946 139.76 26.5464 141.58 28.6295 139.141C29.3632 136.227 29.6021 133.18 29.7072 130.182C29.7469 129.051 29.2368 125.815 29.6673 125.013C29.5361 124.403 29.4141 124.053 29.2145 123.469C29.2348 122.285 29.6956 119.393 29.8817 118.092C30.0013 117.888 30.227 116.208 30.3139 115.784Z" fill="#121A31"/>
<path d="M29.6673 125.013C30.2849 127.78 29.9947 136.669 28.7354 139.5C28.3912 140.274 26.7963 140.695 25.9785 140.953L24.0299 140.483L23.5712 140.201C24.7946 139.76 26.5464 141.58 28.6295 139.141C29.3632 136.227 29.6021 133.18 29.7072 130.182C29.7469 129.051 29.2368 125.815 29.6673 125.013Z" fill="#2B2B2B"/>
<path d="M42.3606 113.698L42.5655 113.316C42.7728 113.349 42.7514 113.303 42.8572 113.484C43.2381 114.136 44.6093 115.13 44.9125 115.594C46.7737 118.553 48.4249 122.329 48.3961 125.879C48.3885 126.823 47.7478 127.777 47.0416 128.372C44.0502 130.893 40.0888 128.719 38.2385 125.918C37.9178 125.433 37.3959 124.733 37.1949 124.169C37.9187 124.241 38.4903 124.305 39.2239 124.295C39.889 124.234 40.5251 123.993 41.063 123.599C42.3427 122.654 43.0012 120.692 43.2696 119.173C43.442 116.668 43.3005 116.011 42.3606 113.698Z" fill="#121A31"/>
<path d="M19.324 125.781C19.6598 124.977 19.3397 124.037 20.0818 123.543C21.1251 123.952 20.7627 128.27 20.9149 129.442C20.9213 131.947 20.7522 136.208 21.9396 138.435L21.9131 138.538C20.0206 139.889 19.5015 142.86 16.0847 142.315C14.2349 142.02 12.0287 140.793 10.9308 139.314C10.7774 139.108 10.6316 138.896 10.4938 138.679L11.2292 138.807C12.4205 138.944 13.3302 139.088 14.4445 138.616C14.9987 138.462 15.942 137.889 16.2186 137.386C16.1298 136.781 16.8016 135.234 17.0266 134.593C17.5917 132.986 18.0731 131.437 18.4616 129.778C18.6966 128.776 18.7164 126.5 19.324 125.781Z" fill="#121A31"/>
<path d="M16.2189 137.386C16.13 136.781 16.8018 135.234 17.0268 134.593C17.5919 132.986 18.0733 131.437 18.4618 129.778C18.6968 128.776 18.7166 126.5 19.3242 125.781C19.1332 128.385 17.6804 135.33 16.2189 137.386Z" fill="#2B2B2B"/>
<path d="M6.49472 133.612C8.00925 132.746 8.35128 131.643 8.92151 130.086C9.17156 132.106 8.76896 133.053 8.96059 134.416C8.98371 135.317 8.96662 135.87 9.19091 136.745L9.44348 137.437C8.656 138.258 4.2715 135.234 3.88385 134.266C5.04202 134.22 5.47339 134.062 6.49472 133.612Z" fill="#121A31"/>
<path d="M29.687 45.5013C29.8763 46.0368 29.1616 47.8652 29.0226 48.6243C27.7643 55.4961 25.7857 62.2379 24.0066 68.993C22.94 73.043 21.8913 77.3141 20.4702 81.2446C20.1707 81.4951 20.3066 81.4715 19.9921 81.5255C21.2492 78.4342 22.295 74.0512 23.2005 70.698C24.7253 65.0662 26.2072 59.4229 27.6458 53.7684C28.2655 51.2845 28.5934 47.584 29.687 45.5013Z" fill="#2B2B2B"/>
<path d="M9.30496 105.206C9.33977 105.319 9.37457 105.432 9.40938 105.544C8.65783 107.566 7.64053 109.48 6.8494 111.487C6.46766 112.455 6.12009 113.436 5.81626 114.431C5.78547 114.531 5.59297 114.712 5.53115 114.772L5.36365 114.74C6.2117 112.019 7.92627 107.673 9.30496 105.206Z" fill="#2B2B2B"/>
<path d="M20.915 129.442C20.9297 128.693 20.9276 127.289 21.076 126.594C21.4117 129.947 20.8378 133.246 21.6698 136.545C21.7861 137.006 22.0043 137.992 21.9398 138.435C20.7523 136.208 20.9214 131.947 20.915 129.442Z" fill="#2B2B2B"/>
<path d="M1.53307 122.492C1.7825 122.998 1.32863 124.679 1.06325 125.061C-0.054964 126.671 1.48218 131.528 1.31933 132.202C1.26832 132.106 1.21868 132.009 1.17056 131.91C-0.352051 128.788 0.452182 125.585 1.53307 122.492Z" fill="#2B2B2B"/>
<path d="M15.9788 88.4266C16.2868 89.5622 14.8511 91.1142 16.0703 94.3392L15.9989 94.5058C14.7433 92.5394 15.1319 90.4283 15.9788 88.4266Z" fill="#2B2B2B"/>
<path d="M31.7643 117.269C32.068 117.306 32.1416 117.243 32.3427 117.57C32.6949 118.143 33.8495 120.2 33.9087 120.783L33.6803 121.146C33.0888 119.838 32.3616 118.638 31.7643 117.269Z" fill="#2B2B2B"/>
<path d="M43.2697 119.173C43.0119 118.154 43.0923 117.106 42.8862 116.098C42.6833 115.107 42.2224 114.199 41.9039 113.168L42.0807 113.079L42.3608 113.698C43.3007 116.011 43.4421 116.668 43.2697 119.173Z" fill="#2B2B2B"/>
<path d="M29.2146 123.469C28.807 122.306 29.3075 119.427 29.6393 118.212L29.8817 118.092C29.6956 119.393 29.2348 122.286 29.2146 123.469Z" fill="#2B2B2B"/>
<path d="M2.21954 133.267C2.78839 133.487 3.4957 133.851 4.07673 133.929C4.96625 134.047 5.71918 133.328 6.49498 133.612C5.47365 134.062 5.04227 134.22 3.8841 134.266C3.09876 133.964 2.82043 133.857 2.21954 133.267Z" fill="#2B2B2B"/>
<path d="M88.0867 60.0503C88.5335 61.2293 88.5065 61.8234 88.3378 63.0832L88.1115 63.3198L88.0001 63.133C88.1126 62.2044 87.9216 60.4389 88.0867 60.0503Z" fill="#2B2B2B"/>
<path d="M11.2294 138.807C11.5573 138.567 14.0863 138.43 14.4446 138.616C13.3303 139.088 12.4206 138.944 11.2294 138.807Z" fill="#2B2B2B"/>
<path d="M36.1879 123.492C36.5845 123.497 38.8381 124.126 39.2238 124.295C38.4902 124.305 37.9186 124.241 37.1948 124.169L36.5345 123.855L36.1879 123.492Z" fill="#2B2B2B"/>
<path d="M32.6129 102.629C32.3552 102.185 31.8473 100.629 32.0035 100.157C32.5037 101.126 32.6415 101.555 32.6129 102.629Z" fill="#2B2B2B"/>
<path d="M8.96082 134.416L9.06134 134.213C9.29594 134.859 9.36543 135.761 9.36505 136.446L9.19114 136.745C8.96685 135.87 8.98394 135.317 8.96082 134.416Z" fill="#2B2B2B"/>
<path d="M36.4908 36.9666C37.8641 36.8078 39.1897 36.9448 40.3185 37.7396C44.2437 40.5037 40.2347 42.6303 40.4946 44.1656C42.0629 44.201 44.3023 43.5127 45.8249 43.912C54.7276 46.2468 62.7269 50.9985 71.1157 54.6123C73.1342 55.5012 75.195 56.2906 77.2907 56.9778C78.8625 57.4969 80.5175 57.9033 82.0412 58.549C83.2975 59.0814 84.6452 59.9116 85.1468 61.2385C85.4576 62.061 85.3966 62.9571 85.0209 63.7478C84.3599 65.1389 82.8492 66.0489 81.313 66.0034C78.9881 65.9344 73.9163 63.4587 71.5696 62.4438C66.0348 60.0498 44.1785 50.0156 39.75 51.6369C39.7131 51.6505 39.6767 51.6653 39.64 51.6794C36.5662 54.7004 34.9869 61.2643 33.8322 65.3785C32.6203 69.6877 31.4597 74.0113 30.3505 78.3482C29.8885 80.1409 28.9305 82.8009 28.6913 84.4059C28.3759 86.8564 29.3881 89.7869 28.9096 92.2242C28.2238 95.7178 24.7088 95.1923 22.1483 94.5115C21.0154 94.2103 19.2527 93.743 18.7132 92.5881C17.5506 90.0999 21.0927 86.9928 21.9656 84.8275C23.4286 81.8002 24.0113 79.2637 24.8841 76.0416L27.3216 66.9642C28.5016 62.5648 29.7862 58.1948 30.9413 53.7884C31.5073 51.4389 31.4134 48.9904 32.506 46.7834C33.1284 45.5263 34.4663 45.9975 35.1068 45.0188C35.2121 44.8579 34.8341 43.4485 34.7457 43.1293C34.0982 40.7936 34.3141 38.3225 36.4908 36.9666Z" fill="#FDEDCC"/>
<path d="M21.384 106.295C20.5638 106.08 19.8275 105.538 19.0358 105.265C17.7682 104.821 15.4196 104.771 14.8188 103.331C14.2299 101.76 16.6926 100.376 17.781 99.7407C19.4759 98.7523 21.2008 98.6986 23.0847 98.7449C25.7425 98.8103 28.2835 98.8929 29.1445 101.916C29.3093 103.178 28.9754 104.235 28.2051 105.243C27.5921 106.048 26.8035 106.703 25.8993 107.157C24.4108 107.008 22.8147 106.743 21.384 106.295Z" fill="#FDEDCC"/>
<path d="M21.3843 106.295C23.5273 105.191 27.252 107.084 28.0417 102.875C28.1334 102.387 28.6908 102.091 29.1448 101.916C29.3097 103.178 28.9758 104.235 28.2054 105.243C27.5925 106.048 26.8039 106.703 25.8996 107.157C24.4111 107.008 22.8151 106.743 21.3843 106.295Z" fill="#9E978D"/>
<path d="M31.9057 106.798C34.0675 106.821 36.6213 110.735 37.6614 112.45C38.9157 114.517 42.1804 119.831 38.0729 120.749C36.88 120.501 36.6571 120.164 36.2318 119.057C34.8542 115.472 32.0596 113.027 29.8801 110.055C29.0728 108.954 30.7072 107.288 31.9057 106.798Z" fill="#FDEDCC"/>
<path d="M14.0021 122.875C14.5867 123.041 16.5906 123.413 16.591 124.02C16.5934 126.898 15.7778 132.532 14.3521 134.942C13.6343 135.391 13.1056 135.665 12.3681 135.144C11.9668 134.323 12.0947 130.966 12.2673 129.991C12.6361 127.91 12.3235 124.266 14.0021 122.875Z" fill="#FDEDCC"/>
<path d="M25.5422 124.569C26.2154 124.512 26.1241 124.414 26.6153 124.684C27.8948 126.48 27.0307 135.85 25.6168 137.621C23.6685 136.937 23.7666 132.833 23.769 131.145C23.7708 129.919 23.6333 125.745 24.0979 124.934C24.5512 124.628 24.9865 124.637 25.5422 124.569Z" fill="#FDEDCC"/>
<path d="M25.2926 110.345C26.919 110.53 27.0449 110.798 27.2242 112.569C27.3879 114.186 27.4012 115.976 27.3602 117.605C27.3236 119.057 27.384 120.774 25.8804 121.426C24.5558 121.361 24.0143 120.651 23.9132 119.312C23.7151 116.691 23.7511 113.713 24.2704 111.124C24.3445 110.754 24.9745 110.479 25.2926 110.345Z" fill="#FDEDCC"/>
<path d="M18.5783 108.785C22.1043 109.072 20.0396 112.214 19.4071 114.348C19.0017 115.715 17.922 119.795 16.9131 120.562C15.8474 120.741 15.182 120.736 14.8321 119.588C14.9113 119.133 15.2715 117.908 15.461 117.522C16.4543 115.505 17.3055 110.29 18.5783 108.785Z" fill="#FDEDCC"/>
<path d="M10.5789 110.397C10.9407 109.013 11.7522 106.7 13.3675 106.493C13.9093 107.187 14.081 107.449 14.3952 108.296C14.0856 109.811 13.3917 111.398 12.7956 112.803C12.3479 113.859 10.318 119.855 8.63002 117.547C7.88086 116.523 9.97881 111.521 10.5789 110.397Z" fill="#FDEDCC"/>
<path d="M6.11529 120.608C6.90717 120.681 8.47824 120.879 8.94443 121.575C8.93865 122.978 6.39148 128.566 5.58854 129.844C5.30167 130.223 5.17526 130.43 4.72994 130.589C1.58126 130.511 5.11758 121.946 6.11529 120.608Z" fill="#FDEDCC"/>
<path d="M191.37 52.6603C189.022 49.7055 183.331 49.7464 180.538 52.0332C179.106 53.2056 178.85 54.7148 178.014 56.1861C175.573 56.5101 173.476 56.8432 171.827 58.9669C171.706 59.1245 171.489 59.4625 171.425 59.6518C171.031 60.4633 170.76 61.1719 170.671 62.0852C169.35 63.5206 167.806 65.8177 167.854 67.8307C167.897 70.6755 169.096 73.3811 171.175 75.3241C175.073 78.9254 176.677 77.4618 180.659 79.4319C182.792 80.488 186.454 83.9627 188.432 85.6443C193.498 89.9539 200.823 95.3101 203.704 101.46C202.413 102.221 200.675 103.543 199.427 104.425C195.104 107.481 191.07 110.69 187.38 114.496C183.534 114.261 180.002 114.752 176.176 115.069C174.691 115.192 172.121 115.279 170.764 115.664C169.915 115.901 169.131 116.325 168.468 116.907C167.468 117.769 166.959 118.655 166.736 119.941L166.694 120.445C165.881 121.182 164.647 123.785 164.391 124.789C163.111 129.808 166.324 128.73 167.861 131.558C168.226 132.228 167.462 134.973 168.448 136.515C169.514 138.183 172.096 138.386 174.097 138.897C175.433 141.643 177.041 145.101 180.675 145.036C184.64 144.979 187.641 141.777 190.651 139.601C193.01 137.833 195.218 135.985 197.531 134.147C204.466 128.638 209.596 121.052 215.281 114.328C216.264 113.142 216.981 111.759 217.935 110.553C219.148 109.014 220.903 107.392 222.046 105.852C222.904 104.694 226.363 100.428 226.325 99.2216C227.189 98.3967 227.714 97.6733 228.103 96.5408C228.326 95.9151 228.457 95.2599 228.493 94.5964C228.584 92.6968 227.832 91.3354 226.621 89.9749C224.847 87.8745 222.252 87.82 220.392 86.7389C218.378 85.3972 216.266 83.8092 214.434 82.2394C208.201 76.8989 202.338 71.0281 197.105 64.7018C196.415 63.8679 195.704 62.8176 194.981 62.0431L194.839 61.8942C194.15 60.878 193.456 59.9048 192.895 58.8103C192.887 58.5063 192.779 58.0565 192.719 57.743C192.438 55.9391 192.448 54.1873 191.37 52.6603Z" fill="#2B2B2B"/>
<path d="M170.671 62.0853C169.35 63.5207 167.806 65.8178 167.854 67.8308C167.897 70.6755 169.096 73.3812 171.175 75.3242C175.073 78.9255 176.677 77.4618 180.659 79.432C182.792 80.488 186.454 83.9627 188.432 85.6444C193.498 89.954 200.823 95.3102 203.704 101.46C205.373 100.305 208.346 98.6071 210.187 97.6755C207.849 92.4093 204.823 90.4755 200.796 86.6162C197.52 83.4317 194.185 80.3085 190.792 77.2487C188.766 75.414 186.343 73.2541 184.037 71.7604C183.319 71.2945 182.167 71.2642 181.305 71.2148L180.037 71.2383C177.409 71.2728 172.759 68.4153 171.553 66.0345C170.897 64.703 170.765 63.5355 170.671 62.0853Z" fill="#121A31"/>
<path d="M226.325 99.2217C225.386 99.8558 224.551 100.467 223.466 100.822C222.517 101.17 222.147 101.359 221.124 101.237L220.95 101.576C220.414 102.058 220.632 103.132 220.459 103.987C220.203 105.251 218.572 106.121 218.496 107.162C218.299 107.548 216.311 109.618 215.957 109.855C215.575 110.264 215.241 110.653 214.803 111.005C214.36 111.716 212.035 114.071 211.353 114.853C209.754 116.708 208.167 118.573 206.589 120.447C205.497 121.75 203.794 123.839 202.534 124.931C201.651 125.655 200.978 126.169 199.953 126.703C199.746 126.836 199.481 127.02 199.272 127.137L199.1 127.111C198.873 128.009 199.027 128.13 198.57 129.02C198.119 129.603 195.887 131.749 195.33 132.073C192.276 134.364 188.131 137.683 184.565 138.95L184.433 139.017C183.483 139.304 183.057 139.406 182.064 139.523C180.771 139.555 179.269 139.13 178.29 138.283C176.803 136.999 176.758 135.744 176.607 133.979C174.356 133.47 172.097 133.579 170.611 131.408C170.728 130.62 170.087 129.763 170.028 128.947C169.946 127.824 170.636 127.383 170.211 126.272L170.136 126.074C169.046 125.274 168.019 124.46 167.428 123.233C167.128 122.337 166.915 121.368 166.694 120.445C165.881 121.182 164.647 123.785 164.391 124.789C163.111 129.808 166.324 128.73 167.861 131.558C168.226 132.229 167.462 134.974 168.448 136.515C169.514 138.183 172.096 138.386 174.097 138.897C175.433 141.643 177.041 145.101 180.675 145.036C184.64 144.979 187.641 141.777 190.651 139.601C193.01 137.833 195.218 135.985 197.531 134.147C204.467 128.638 209.596 121.052 215.281 114.329C216.264 113.142 216.981 111.759 217.935 110.553C219.149 109.014 220.903 107.392 222.046 105.852C222.904 104.694 226.363 100.428 226.325 99.2217Z" fill="#121A31"/>
<path d="M199.272 127.136L199.1 127.111C198.873 128.009 199.027 128.13 198.57 129.02C199.471 128.255 199.374 128.305 199.272 127.136Z" fill="#2B2B2B"/>
<path d="M171.424 59.6519C171.03 60.4634 170.76 61.172 170.671 62.0854C170.765 63.5356 170.897 64.7031 171.553 66.0346C171.789 65.3524 170.51 61.9958 171.261 60.9018C171.507 60.5436 171.595 60.0605 171.424 59.6519Z" fill="#2B2B2B"/>
<path d="M191.37 52.6603C191.288 52.9651 192.393 56.7379 192.457 57.3818C192.461 57.4234 192.668 57.6779 192.719 57.743C192.438 55.9391 192.448 54.1873 191.37 52.6603Z" fill="#2B2B2B"/>
<path d="M192.895 58.8105C192.676 59.81 193.987 61.4153 194.84 61.8944C194.15 60.8781 193.456 59.905 192.895 58.8105Z" fill="#2B2B2B"/>
<path d="M202.534 124.931C201.937 124.895 200.623 125.855 200.169 126.264C200.084 126.339 200.001 126.418 199.919 126.497C199.919 126.677 199.887 126.615 199.953 126.703C200.977 126.169 201.65 125.655 202.534 124.931Z" fill="#2B2B2B"/>
<path d="M181.305 71.2147L181.126 70.9632C180.646 70.8094 180.407 70.9196 180.037 71.2383L181.305 71.2147Z" fill="#2B2B2B"/>
<path d="M184.815 53.7916C179.45 55.0798 182.585 59.7866 179.748 59.9341C176.642 60.0954 172.573 59.6685 174.492 64.6616C175.186 66.4679 178.564 67.6783 180.406 67.9084C185.45 67.8182 187.978 70.8727 191.509 74.0294C194.896 77.0609 198.222 80.1605 201.483 83.3274C204.343 86.0828 207.406 88.7778 209.946 91.8373C211.017 93.1259 211.516 94.7892 212.265 96.2564C212.676 97.0627 213.817 97.4225 214.628 97.6252C215.426 97.6947 217.357 97.8175 218.204 98.0601C221.321 98.9531 225.097 97.5168 225.177 93.8814C225.216 92.0734 223.055 91.0513 221.508 90.6263C220.273 90.2863 218.773 89.6279 217.681 88.7805C211.219 83.7754 205.199 78.2248 199.685 72.1911C197.228 69.5557 194.79 66.9433 192.676 64.019C191.15 61.9079 189.863 59.9689 189.49 57.3473C189.079 54.4589 187.682 53.5544 184.815 53.7916Z" fill="#FDEDCC"/>
<path d="M213.155 100.341C212.976 100.349 212.8 100.364 212.624 100.397C208.39 101.205 191.873 113.747 189.389 117.355C189.076 117.809 189.057 118.126 189.163 118.668C189.238 119.044 189.351 119.361 189.653 119.618C190.402 120.252 191.754 120.676 192.633 121.186C193.716 121.814 194.729 122.587 195.762 123.295C196.627 123.802 197.037 123.992 197.967 124.336C198.352 124.167 198.727 123.969 199.083 123.745C199.998 123.173 200.841 122.378 201.581 121.599C203.246 119.844 204.639 117.83 206.23 116.007C207.38 114.688 217.82 103.722 217.982 102.761C218.041 102.405 218 102.179 217.783 101.883C217.067 100.91 214.327 100.574 213.155 100.341Z" fill="#FDEDCC"/>
<path d="M172.903 118.546C171.828 118.627 170.792 118.878 170.253 119.914C169.985 120.431 169.949 121.037 170.153 121.582C171.536 125.266 179.204 122.151 181.577 121.145C182.11 120.924 186.628 119.805 184.616 117.816C184.121 117.328 180.074 117.986 179.018 118.063C177.109 118.203 174.867 118.322 172.903 118.546Z" fill="#FDEDCC"/>
<path d="M191.373 126.717C190.04 127.197 187.943 129.21 186.627 130.037C185.344 130.842 180.132 134.087 180.083 135.446C180.491 136.93 182.541 136.56 183.62 136.268C186.06 135.286 194.147 129.921 195.349 127.831C194.029 127.041 192.87 126.835 191.373 126.717Z" fill="#9E978D"/>
<path d="M186.257 122.604C185.031 123.014 183.829 123.652 182.667 124.173C180.001 125.371 177.397 126.164 174.516 126.631C173.409 126.811 172.88 127.344 172.906 128.493C172.984 128.996 173.277 129.673 173.702 129.924C176.619 131.642 187.819 126.791 188.532 124.046C188.422 123.586 188.543 123.772 188.122 123.493C187.4 123.013 187.078 122.878 186.257 122.604Z" fill="#9E978D"/>
<path d="M186.256 122.604C185.03 123.014 183.828 123.652 182.666 124.173C180 125.371 177.397 126.164 174.515 126.632C173.409 126.811 172.88 127.344 172.905 128.493C174.378 128.672 182.924 125.018 184.753 124.533C185.136 124.431 187.939 123.64 188.121 123.493C187.399 123.013 187.077 122.878 186.256 122.604Z" fill="#FDEDCC"/>
<path d="M22.9952 166.363C23.813 165.207 24.9201 163.561 26.1445 162.847C29.3442 160.984 33.6556 161.313 35.6824 164.76C36.3712 165.98 36.5534 166.691 36.8923 168.057C38.2871 169.483 38.9148 172.322 39.6996 174.199C40.1321 175.234 40.9376 177.431 40.8715 178.487C42.8458 180.968 45.0014 183.34 47.0128 185.791C48.9839 188.191 50.9191 190.647 52.8604 193.075C55.0179 195.788 57.1926 198.486 59.3843 201.171C60.2394 202.218 62.2266 204.739 63.0972 205.539C65.9183 208.131 69.4316 206.373 71.8762 210.33C72.534 211.427 72.7825 212.142 73.1397 213.373L73.4183 213.01C74.3231 213.147 75.7478 215.096 76.3282 215.773C77.3331 216.946 77.6194 218.495 77.419 220.01C77.0325 222.934 74.3804 224.638 72.4493 226.539C71.1663 228.017 70.256 229.387 68.6074 230.534C67.1902 231.52 66.0365 231.963 64.2439 231.792C62.5468 231.63 58.8927 228.696 58.5673 227.081L58.1313 226.839C56.8703 226.105 56.0499 225.151 55.4311 223.832C54.2862 221.374 54.4819 219.06 54.0492 216.368C52.4832 212.227 51.1681 211.007 48.3615 207.582C48.4206 207.99 48.4475 207.871 48.3659 208.248C48.0249 208.128 47.9323 207.843 47.6723 207.475C46.5173 206.468 45.4147 205.253 44.255 204.301C41.1601 201.759 38.4653 199.031 35.7156 196.141C34.6285 195.053 32.7501 194.055 31.704 193.004C27.5581 188.844 20.2785 184.759 17.261 179.882L16.7812 179.529C13.55 177.473 13.2942 171.383 16.01 168.832C18.116 166.853 20.2309 166.402 22.9952 166.363Z" fill="#2B2B2B"/>
<path d="M73.1397 213.373L73.4182 213.01C74.3231 213.147 75.7478 215.096 76.3282 215.773C77.333 216.946 77.6194 218.495 77.419 220.01C77.0325 222.934 74.3804 224.638 72.4493 226.539C71.1662 228.017 70.256 229.387 68.6074 230.534C67.1901 231.52 66.0365 231.963 64.2439 231.792C62.5468 231.63 58.8927 228.696 58.5673 227.081C60.0077 227.356 60.5607 227.435 61.9387 226.894C64.3862 225.956 66.3594 223.925 67.6716 221.727C69.0022 219.498 69.476 221.076 71.3512 219.697C72.5616 218.808 73.0866 216.781 73.2305 215.318C73.2536 214.632 73.1953 214.053 73.1397 213.373Z" fill="#121A31"/>
<path d="M17.2612 179.882C19.0383 180.472 19.9524 180.95 21.8382 180.522C23.3229 180.409 26.7652 184.493 27.9485 185.608C29.4463 187.022 30.9153 188.669 32.4818 190.021C35.4682 192.753 38.7263 196.679 41.4597 199.728C42.5201 200.911 44.731 203.302 45.6001 204.455C46.1929 205.126 46.7897 205.795 47.39 206.46L48.3617 207.582C48.4208 207.99 48.4477 207.871 48.3661 208.248C48.0251 208.128 47.9325 207.843 47.6725 207.475C46.5175 206.468 45.4149 205.253 44.2552 204.301C41.1603 201.759 38.4655 199.031 35.7158 196.141C34.6287 195.053 32.7503 194.055 31.7042 193.004C27.5583 188.844 20.2787 184.759 17.2612 179.882Z" fill="#121A31"/>
<path d="M36.8925 168.057C38.2872 169.483 38.9149 172.322 39.6997 174.199C40.1322 175.234 40.9377 177.431 40.8716 178.487C40.0636 177.74 38.0511 175.224 37.4678 174.28C36.9146 172.499 36.9509 169.955 36.8925 168.057Z" fill="#121A31"/>
<path d="M32.4815 190.021L33.0917 189.95C36.6133 193.681 40.0491 197.492 43.3962 201.381C44.2806 202.393 47.1953 205.326 47.3898 206.46C46.7894 205.795 46.1927 205.127 45.5998 204.456C44.7308 203.302 42.5199 200.911 41.4595 199.728C38.7261 196.679 35.468 192.753 32.4815 190.021Z" fill="#2B2B2B"/>
<path d="M35.6823 164.76C36.3711 165.98 36.5533 166.691 36.8922 168.057C36.9506 169.955 36.9143 172.499 37.4676 174.281C37.3408 174.176 37.1925 174.024 37.071 173.907C36.4558 172.139 36.8157 169.756 36.4823 167.856C36.3158 166.906 35.5082 165.477 35.6823 164.76Z" fill="#2B2B2B"/>
<path d="M54.0493 216.368L54.3166 216.467C54.7225 217.745 54.6954 219.457 54.9331 220.815C55.038 221.414 55.5697 223.388 55.4311 223.832C54.2862 221.374 54.4819 219.06 54.0493 216.368Z" fill="#2B2B2B"/>
<path d="M73.2304 215.318C72.9662 214.686 72.8038 213.789 72.6182 213.092C72.4094 212.306 71.7228 211.032 71.8761 210.33C72.5339 211.427 72.7824 212.142 73.1396 213.373C73.1953 214.053 73.2536 214.632 73.2304 215.318Z" fill="#2B2B2B"/>
<path d="M16.7813 179.529C18.2522 179.831 19.6254 180.441 21.1289 180.357C21.4987 180.336 21.546 180.331 21.8382 180.522C19.9524 180.95 19.0382 180.472 17.2612 179.882L16.7813 179.529Z" fill="#2B2B2B"/>
<path d="M58.1315 226.838C58.2006 226.832 62.0228 226.923 61.939 226.894C60.561 227.435 60.0079 227.356 58.5676 227.081L58.1315 226.838Z" fill="#2B2B2B"/>
<path d="M29.7049 165.001C33.5245 164.533 33.686 168.487 33.63 171.23C33.5321 176.035 35.0912 177.21 38.0187 180.611C42.7593 186.038 47.3849 191.564 51.8924 197.186L56.8855 203.462C58.0575 204.934 59.5886 206.857 60.937 208.116C62.8971 209.947 64.8472 209.986 67.2144 210.721C68.1254 211.085 69.0081 211.671 69.3469 212.594C70.8158 216.599 67.9717 216.477 66.0225 218.372C63.7111 220.619 63.358 222.73 59.9432 224.006C59.1795 223.653 58.9578 223.495 58.3396 222.928C57.3885 221.195 57.7653 216.545 56.4359 214.024C53.1284 207.754 48.018 202.677 43.2662 197.492C39.1914 193.003 35.0682 188.56 30.8972 184.161C29.0995 182.255 26.8492 179.649 24.8478 177.941C23.2422 176.927 20.9999 178.029 19.362 177.284C17.5476 176.458 17.0512 173.866 17.7815 172.119C18.8977 169.45 23.6513 170.621 24.7816 169.653C27.1972 167.584 25.9333 166.303 29.7049 165.001Z" fill="#FDEDCC"/>
<path d="M195.437 190.147C195.354 188.385 193.594 183.712 192.33 182.548C190.749 180.548 188.962 179.43 186.338 179.365C185.066 179.363 182.996 180.473 181.961 181.179L166.044 187.254C162.802 188.422 159.56 189.397 156.295 190.652C153.887 191.579 151.142 192.821 148.669 193.422C147.832 193.625 146.405 193.009 145.818 192.959C145.224 192.798 144.574 192.606 143.975 192.492C141.967 192.127 140.566 192.314 138.866 193.505L138.729 193.602C135.524 193.9 131.853 194.955 130.645 198.422C129.805 200.834 130.592 203.723 131.674 205.933C133.552 209.768 139.328 212.811 143.386 210.578C143.647 210.434 143.72 210.381 144.021 210.318C149.599 211.363 150.287 207.889 154.315 205.654C160.023 202.487 166.507 199.841 172.795 198.113C177.02 197.087 186.174 195.481 188.985 197.267C193.359 196.97 195.642 194.494 195.437 190.147Z" fill="#2B2B2B"/>
<path d="M144.477 210.557C144.169 210.616 144.096 210.667 143.831 210.807C139.71 212.981 133.756 209.858 131.779 205.999C130.641 203.775 129.794 200.876 130.62 198.478C131.807 195.03 135.549 194.028 138.823 193.775C136.923 196.37 137.2 199.573 138.162 202.577C138.862 204.76 140.106 207.604 141.97 209.106C142.566 209.586 143.761 210.177 144.477 210.557Z" fill="#121A31"/>
<path d="M142.195 195.328C144.919 195.27 147.284 196.96 149.922 196.539C151.164 196.341 153.353 195.081 154.603 194.485C156.156 193.729 157.747 193.057 159.371 192.472C163.684 190.968 168.025 189.545 172.392 188.206C175.072 187.389 177.801 186.607 180.462 185.682C182.581 184.945 184.334 182.714 186.582 182.617C187.415 182.58 188.546 183.121 189.074 183.734C190.393 185.335 192.348 188.693 192.241 190.847C191.98 196.065 186.869 193.331 184.018 193.12C181.781 192.955 179.034 193.506 176.905 193.884C170.305 195.058 164.198 197.293 158.149 200.124C156.341 200.984 154.279 201.734 152.54 202.719C149.739 204.307 148.63 207.294 144.937 207.157C144.263 207.023 144.172 206.915 143.62 206.508C141.463 204.577 140.348 201.438 140.051 198.618C139.868 196.87 140.481 195.706 142.195 195.328Z" fill="#FDEDCC"/>
<path d="M145.803 205.293C146.247 205.327 146.245 205.301 146.638 205.501C146.974 206.319 145.435 206.307 145.334 207.25L145.583 207.458C144.86 207.301 144.759 207.189 144.157 206.758C141.792 204.732 140.5 201.515 140.093 198.648C139.84 196.87 140.457 195.709 142.275 195.382C142.274 197.256 141.835 198.994 142.636 200.974C142.971 201.803 145.205 205.016 145.803 205.293Z" fill="#9E978D"/>
</svg>
