<svg width="184" height="182" viewBox="0 0 184 182" fill="none" xmlns="http://www.w3.org/2000/svg">
<g clip-path="url(#clip0_3629_4028)">
<path d="M2 48.5714H182V80.7143L178.786 100H5.21429L2 80.7143V48.5714Z" fill="#D3E1FF" stroke="#4F5E7E" stroke-width="4"/>
<path d="M2 80.7143H153.071L159.5 83.9286L167.536 80.7143H182L178.786 100H5.21429L2 80.7143Z" fill="#95A3C1" stroke="#4F5E7E" stroke-width="4"/>
<path d="M159.5 84L155.5 94" stroke="#4F5E7E" stroke-width="4"/>
<path d="M92 2C49.3952 2 14.8572 13.5127 14.8572 27.7143V47H169.143V27.7143C169.143 13.5127 134.605 2 92 2Z" fill="#D3E1FF" stroke="#4F5E7E" stroke-width="4"/>
<path d="M92 23.8571C49.3952 23.8571 14.8572 35.3698 14.8572 49.5714V68.8571H169.143V49.5714C169.143 35.3698 134.605 23.8571 92 23.8571Z" fill="#95A3C1" stroke="#4F5E7E" stroke-width="4"/>
<rect x="8.42859" y="93.5714" width="167.143" height="57.8571" fill="#D3E1FF" stroke="#4F5E7E" stroke-width="4"/>
<path d="M8.42859 151.429H175.571L172.357 164.286H11.6429L8.42859 151.429Z" fill="#7F8CA8" stroke="#4F5E7E" stroke-width="4"/>
<path d="M165 104V135.995L164.34 136.591L157.885 142.412L157.314 142.927H156.547L27.001 143H26.2041L25.626 142.453L19.626 136.777L19 136.186V104H165Z" fill="#7F8CA8" stroke="#4F5E7E" stroke-width="4"/>
<path d="M165 102V128.308L164.17 128.906L157.716 133.563L157.192 133.941H156.546L27.001 134H26.3291L25.793 133.595L19.793 129.055L19 128.454V102H165Z" fill="#D3E1FF" stroke="#4F5E7E" stroke-width="4"/>
<rect x="30" y="109" width="5" height="17" fill="#95A3C1"/>
<rect x="39" y="109" width="18" height="17" fill="#95A3C1"/>
<rect x="61" y="109" width="8" height="17" fill="#95A3C1"/>
<rect x="73" y="109" width="18" height="17" fill="#95A3C1"/>
<rect x="95" y="109" width="4" height="17" fill="#95A3C1"/>
<rect x="103" y="109" width="4" height="17" fill="#95A3C1"/>
<rect x="120" y="109" width="5" height="17" fill="#95A3C1"/>
<rect x="129" y="109" width="18" height="17" fill="#95A3C1"/>
<rect x="151" y="109" width="5" height="17" fill="#95A3C1"/>
<path d="M62.5 151.5L64.5 166" stroke="#4F5E7E" stroke-width="4"/>
<path d="M39 152L48.5 164.5" stroke="#4F5E7E" stroke-width="4"/>
<path d="M-2.23076 148C-17.015 148 -29 164.565 -29 185H203C203 171.639 194.261 160.808 183.481 160.808C177.731 160.808 172.563 163.889 168.991 168.792C164.523 167.331 159.387 166.5 153.923 166.5C148.495 166.5 143.391 167.321 138.944 168.764C131.608 159.728 118.332 153.692 103.173 153.692C90.4428 153.692 79.042 157.951 71.3705 164.667C68.3218 162.225 64.6886 160.808 60.7885 160.808C55.0398 160.808 49.8715 163.888 46.2994 168.789C41.7213 162.214 34.4273 157.962 26.2115 157.962C23.0768 157.962 20.0769 158.583 17.3103 159.714C12.4257 152.505 5.47853 148 -2.23076 148Z" fill="#1F2B4D"/>
<path d="M-2.00001 148C5.72126 148 12.6792 152.551 17.5714 159.831C20.3423 158.689 23.3469 158.061 26.4865 158.061C34.715 158.061 42.0203 162.357 46.6055 168.997C50.1832 164.047 55.3595 160.936 61.1171 160.936C65.0233 160.936 68.6622 162.367 71.7155 164.834C79.399 158.051 90.8176 153.749 103.568 153.749C118.75 153.749 132.046 159.845 139.394 168.972C143.848 167.515 148.96 166.685 154.396 166.685C159.869 166.685 165.013 167.525 169.487 169C173.065 164.048 178.242 159.731 184 159.731" stroke="#151E33" stroke-width="4"/>
<ellipse cx="103.5" cy="164" rx="13.5" ry="4" fill="#31416E"/>
<ellipse cx="29.6361" cy="167.736" rx="7.10154" ry="3" transform="rotate(15 29.6361 167.736)" fill="#31416E" fill-opacity="0.65"/>
</g>
<defs>
<clipPath id="clip0_3629_4028">
<rect width="184" height="182" fill="white"/>
</clipPath>
</defs>
</svg>
