<svg width="163" height="292" viewBox="0 0 163 292" fill="none" xmlns="http://www.w3.org/2000/svg">
<path d="M126.879 2.5L127.531 4.00781L159.531 78.0059L159.818 78.667L159.707 79.3799L127.707 286.756L127.38 288.875H35.0178L34.6907 286.756L2.69067 79.3799L2.58032 78.667L2.86646 78.0059L34.8665 4.00781L35.5188 2.5H126.879Z" fill="#4F4F4F" stroke="#262626" stroke-width="5"/>
<path d="M3.16138 80L17.6614 80.5M144.661 80H159.661M37.1614 3L45.6614 17.5M125.161 4L117.161 17M35.6614 288.5L48.1614 273.5M125.161 288.5L114.161 274" stroke="#262626" stroke-width="5"/>
<path d="M113.409 15C116.6 15 119.485 16.896 120.752 19.8247L145.998 78.2058C146.596 79.5886 146.791 81.1122 146.562 82.6012L117.708 269.595C117.106 273.496 113.748 276.375 109.801 276.375H52.5968C48.6496 276.375 45.2923 273.496 44.6904 269.595L15.8353 82.6012C15.6055 81.1122 15.8009 79.5886 16.3989 78.2058L41.6453 19.8247C42.9118 16.896 45.7974 15 48.9881 15H113.409Z" fill="#808080" stroke="#262626" stroke-width="5"/>
<path d="M57.2283 268.998C59.9897 268.998 62.2283 266.76 62.2283 263.998C62.2283 261.237 59.9897 258.998 57.2283 258.998C54.4668 258.998 52.2283 261.237 52.2283 263.998C52.2283 266.76 54.4668 268.998 57.2283 268.998Z" fill="#AAFA1E" stroke="#2E2E2E" stroke-width="3" stroke-linecap="round" stroke-linejoin="round"/>
<path d="M53.2283 32.9983C55.9897 32.9983 58.2283 30.7597 58.2283 27.9983C58.2283 25.2369 55.9897 22.9983 53.2283 22.9983C50.4668 22.9983 48.2283 25.2369 48.2283 27.9983C48.2283 30.7597 50.4668 32.9983 53.2283 32.9983Z" fill="#AAFA1E" stroke="#2E2E2E" stroke-width="3" stroke-linecap="round" stroke-linejoin="round"/>
<path d="M110.228 32.9983C112.99 32.9983 115.228 30.7597 115.228 27.9983C115.228 25.2369 112.99 22.9983 110.228 22.9983C107.467 22.9983 105.228 25.2369 105.228 27.9983C105.228 30.7597 107.467 32.9983 110.228 32.9983Z" fill="#AAFA1E" stroke="#2E2E2E" stroke-width="3" stroke-linecap="round" stroke-linejoin="round"/>
<path d="M106.228 268.998C108.99 268.998 111.228 266.76 111.228 263.998C111.228 261.237 108.99 258.998 106.228 258.998C103.467 258.998 101.228 261.237 101.228 263.998C101.228 266.76 103.467 268.998 106.228 268.998Z" fill="#AAFA1E" stroke="#2E2E2E" stroke-width="3" stroke-linecap="round" stroke-linejoin="round"/>
</svg>
