<svg width="164" height="292" viewBox="0 0 164 292" fill="none" xmlns="http://www.w3.org/2000/svg">
<path d="M127.718 2.5L128.37 4.00781L160.37 78.0059L160.656 78.667L160.546 79.3799L128.546 286.756L128.219 288.875H35.8564L35.5293 286.756L3.5293 79.3799L3.41895 78.667L3.70508 78.0059L35.7051 4.00781L36.3574 2.5H127.718Z" fill="#4F4F4F" stroke="#262626" stroke-width="5"/>
<path d="M4 80L18.5 80.5M145.5 80H160.5M38 3L46.5 17.5M126 4L118 17M36.5 288.5L49 273.5M126 288.5L115 274" stroke="#262626" stroke-width="5"/>
<path d="M114.247 15C117.438 15 120.324 16.896 121.59 19.8247L146.837 78.2058C147.435 79.5886 147.63 81.1122 147.4 82.6012L118.546 269.595C117.944 273.496 114.587 276.375 110.64 276.375H53.4354C49.4882 276.375 46.1309 273.496 45.529 269.595L16.6739 82.6012C16.4442 81.1122 16.6395 79.5886 17.2375 78.2058L42.4839 19.8247C43.7504 16.896 46.636 15 49.8268 15H114.247Z" fill="#808080" stroke="#262626" stroke-width="5"/>
<path d="M58.0669 268.998C60.8283 268.998 63.0669 266.76 63.0669 263.998C63.0669 261.237 60.8283 258.998 58.0669 258.998C55.3055 258.998 53.0669 261.237 53.0669 263.998C53.0669 266.76 55.3055 268.998 58.0669 268.998Z" fill="#AAFA1E" stroke="#2E2E2E" stroke-width="3" stroke-linecap="round" stroke-linejoin="round"/>
<path d="M54.0669 32.9983C56.8283 32.9983 59.0669 30.7597 59.0669 27.9983C59.0669 25.2369 56.8283 22.9983 54.0669 22.9983C51.3055 22.9983 49.0669 25.2369 49.0669 27.9983C49.0669 30.7597 51.3055 32.9983 54.0669 32.9983Z" fill="#AAFA1E" stroke="#2E2E2E" stroke-width="3" stroke-linecap="round" stroke-linejoin="round"/>
<path d="M111.067 32.9983C113.828 32.9983 116.067 30.7597 116.067 27.9983C116.067 25.2369 113.828 22.9983 111.067 22.9983C108.305 22.9983 106.067 25.2369 106.067 27.9983C106.067 30.7597 108.305 32.9983 111.067 32.9983Z" fill="#AAFA1E" stroke="#2E2E2E" stroke-width="3" stroke-linecap="round" stroke-linejoin="round"/>
<path d="M107.067 268.998C109.828 268.998 112.067 266.76 112.067 263.998C112.067 261.237 109.828 258.998 107.067 258.998C104.305 258.998 102.067 261.237 102.067 263.998C102.067 266.76 104.305 268.998 107.067 268.998Z" fill="#AAFA1E" stroke="#2E2E2E" stroke-width="3" stroke-linecap="round" stroke-linejoin="round"/>
<g style="mix-blend-mode:overlay">
<path d="M128 191.5L33.5 172.5L42.5 234.5L119.5 248.5L128 191.5Z" fill="#E4E4E4" fill-opacity="0.45"/>
</g>
<g style="mix-blend-mode:overlay">
<path d="M133 160.5L28 139L31 160L130.5 179L133 160.5Z" fill="#E4E4E4" fill-opacity="0.45"/>
</g>
<path d="M85.5 51.5C87.8246 51.5 89.75 53.3729 89.75 55.7334V74.0332H108.25C110.575 74.0332 112.5 75.9061 112.5 78.2666V85.2002C112.5 87.5606 110.575 89.4336 108.25 89.4336H89.75V130.267C89.75 132.627 87.8246 134.5 85.5 134.5H78.5C76.1754 134.5 74.25 132.627 74.25 130.267V89.4336H55.75C53.4255 89.4336 51.5001 87.5606 51.5 85.2002V78.2666C51.5 75.9061 53.4254 74.0332 55.75 74.0332H74.25V55.7334C74.25 53.3729 76.1754 51.5 78.5 51.5H85.5Z" fill="#B2B2B2" stroke="#4F4F4F" stroke-width="5"/>
</svg>
