<svg width="185" height="185" viewBox="0 0 185 185" fill="none" xmlns="http://www.w3.org/2000/svg">
<g clip-path="url(#clip0_3709_13028)">
<path d="M155.249 29.9509H29.9509V155.249H155.249V29.9509Z" fill="#674B24"/>
<path d="M61.4126 30.2549V155.331" stroke="#342612" stroke-width="7.41411"/>
<path d="M126.785 30.2549V155.331" stroke="#342612" stroke-width="7.41411"/>
<path d="M94.0986 30.2549V155.331" stroke="#342612" stroke-width="7.41411"/>
<path d="M6.8116 157.804L160.586 4.02811L181.556 24.9985L27.7818 178.774L6.8116 157.804Z" fill="#9E7437" stroke="#3F2E16" stroke-width="7.41411" stroke-linejoin="bevel"/>
<path d="M4.00146 4.00146V181.584H181.584V4.00146H4.00146ZM33.9626 33.9626H151.623V151.623H33.9626V33.9626Z" fill="#9E7437"/>
<path d="M19.4004 25.5315C22.7866 25.5315 25.5316 22.7865 25.5316 19.4004C25.5316 16.0142 22.7866 13.2692 19.4004 13.2692C16.0143 13.2692 13.2693 16.0142 13.2693 19.4004C13.2693 22.7865 16.0143 25.5315 19.4004 25.5315Z" fill="#808080" stroke="#2E2E2E" stroke-width="3.70705" stroke-linecap="round" stroke-linejoin="round"/>
<path d="M166.185 25.5315C169.571 25.5315 172.316 22.7865 172.316 19.4004C172.316 16.0142 169.571 13.2692 166.185 13.2692C162.799 13.2692 160.054 16.0142 160.054 19.4004C160.054 22.7865 162.799 25.5315 166.185 25.5315Z" fill="#808080" stroke="#2E2E2E" stroke-width="3.70705" stroke-linecap="round" stroke-linejoin="round"/>
<path d="M19.4004 172.316C22.7866 172.316 25.5316 169.571 25.5316 166.185C25.5316 162.799 22.7866 160.054 19.4004 160.054C16.0143 160.054 13.2693 162.799 13.2693 166.185C13.2693 169.571 16.0143 172.316 19.4004 172.316Z" fill="#808080" stroke="#2E2E2E" stroke-width="3.70705" stroke-linecap="round" stroke-linejoin="round"/>
<path d="M166.185 172.316C169.571 172.316 172.316 169.571 172.316 166.185C172.316 162.799 169.571 160.054 166.185 160.054C162.799 160.054 160.054 162.799 160.054 166.185C160.054 169.571 162.799 172.316 166.185 172.316Z" fill="#808080" stroke="#2E2E2E" stroke-width="3.70705" stroke-linecap="round" stroke-linejoin="round"/>
<path d="M151.624 33.9614H33.9614V151.624H151.624V33.9614Z" stroke="#3F2E16" stroke-width="7.41411"/>
<path d="M181.586 4H4V181.586H181.586V4Z" stroke="#3F2E16" stroke-width="7.41411" stroke-linecap="round" stroke-linejoin="round"/>
<path d="M151.625 33.9614H181.281" stroke="#3F2E16" stroke-width="7.41411"/>
<path d="M151.625 151.624H181.281" stroke="#3F2E16" stroke-width="7.41411"/>
<path d="M4.30493 151.624H33.9614" stroke="#3F2E16" stroke-width="7.41411"/>
<path d="M4.30493 33.9614H33.9614" stroke="#3F2E16" stroke-width="7.41411"/>
<g clip-path="url(#clip1_3709_13028)">
<path d="M183.848 48.2168L183.837 48.3008L183.831 48.3125C183.826 48.345 183.819 48.3895 183.811 48.4463C183.79 48.5834 183.76 48.7866 183.721 49.0527C183.644 49.5847 183.533 50.3662 183.394 51.3721C183.116 53.3839 182.725 56.2925 182.264 59.8984C181.342 67.1105 180.141 77.1111 178.999 88.3027C176.787 109.996 174.806 136.135 175.528 155.129L175.606 156.944C175.69 157.65 175.526 158.324 175.109 158.832C174.688 159.345 174.051 159.638 173.293 159.649L171.275 159.853C164.229 160.596 141.578 163.266 119.284 168.832C119.174 168.894 119.067 168.921 119.002 168.932C118.937 168.943 118.874 168.945 118.826 168.946C107.389 171.849 96.0596 175.55 87.0696 180.122L80.3743 184.074C79.7582 184.485 79.1057 184.571 78.5168 184.409C77.9349 184.249 77.4514 183.858 77.1321 183.379C76.8127 182.9 76.6369 182.302 76.7083 181.701C76.7813 181.087 77.1098 180.504 77.7317 180.081L77.7405 180.075C79.528 178.909 81.3981 177.74 83.4172 176.64C83.4426 168.552 86.1028 158.221 89.1497 149.04C92.1209 140.087 95.4781 132.177 97.1731 128.411C84.4983 121.767 73.5983 114.777 68.0901 108.135L68.0891 108.136C67.5995 107.548 67.4309 106.895 67.5247 106.281C67.6165 105.679 67.9539 105.156 68.3997 104.791C69.2918 104.06 70.7396 103.888 71.761 105.063L71.7698 105.072L71.7776 105.082C73.0978 106.769 74.9095 108.468 77.0305 110.185C82.1199 99.7748 91.6726 89.358 100.714 80.9922C109.658 72.7163 118.144 66.4081 121.416 64.042C120.732 61.6587 120.193 59.4846 119.803 57.3799L119.801 57.3711C119.677 56.6274 119.869 55.9878 120.265 55.5146C120.652 55.0522 121.208 54.7787 121.776 54.6924C122.343 54.606 122.957 54.7019 123.47 55.0234C123.991 55.35 124.378 55.8913 124.504 56.6289L124.76 57.9102C124.992 59.0208 125.26 60.1732 125.559 61.3906C133.136 57.3763 144.429 55.2265 154.76 54.083C164.985 52.9513 174.343 52.7988 178.39 52.8252C178.607 51.2125 178.786 49.9435 178.916 49.0508C178.987 48.5655 179.044 48.1902 179.081 47.9336C179.1 47.8048 179.114 47.7067 179.123 47.6387C179.128 47.6044 179.132 47.5796 179.134 47.5635V47.5537L179.138 47.5215C179.237 46.7772 179.607 46.2219 180.121 45.8828C180.625 45.5508 181.237 45.4449 181.806 45.5254C182.375 45.6059 182.936 45.8771 183.333 46.3408C183.738 46.8137 183.946 47.4574 183.848 48.2168ZM146.954 118.565C137.623 102.013 127.929 83.3182 122.875 68.8428C118.858 71.7753 110.725 77.9906 102.458 85.7959C93.9007 93.8752 85.245 103.616 80.8254 113.146C86.2091 116.99 92.8842 120.913 100.112 124.688C101 124.656 101.946 125.081 102.456 125.864C110.061 129.741 118.361 133.539 126.444 136.955C131 131.135 139.681 123.309 146.954 118.565ZM123.878 140.966C116.276 137.77 108.612 134.209 101.383 130.568C99.7842 134.214 96.7663 141.393 94.0188 149.52C91.2462 157.721 88.7623 166.846 88.2629 174.27C96.6121 170.417 106.333 167.313 116.199 164.736C116.997 157.871 120.509 147.288 123.878 140.966ZM162.613 156.089C154.325 153.137 141.723 148.484 128.274 142.808C125.406 147.969 122.294 157.097 121.156 163.5C137.061 159.68 152.739 157.356 162.613 156.089ZM177.773 57.5479C173.432 57.5597 164.34 57.718 154.588 58.8262C144.536 59.9685 133.868 62.1129 126.961 66.0869C129.498 73.8244 133.599 83.0555 138.403 92.5518C143.807 88.0557 151.558 84.9445 158.665 82.8506C165.693 80.7801 172.151 79.6886 175.217 79.2432C176.142 70.6419 177.064 63.0837 177.773 57.5479ZM167.602 152.788C163.537 146.441 156.647 135.374 149.313 122.672C142.945 126.897 135.441 133.632 131.053 138.897C145.972 145.098 159.844 150.096 167.602 152.788ZM174.625 84.1543C171.14 84.684 165.011 85.8132 158.62 87.7891C151.945 89.8528 145.052 92.8191 140.561 96.9287C143.911 103.378 147.552 109.899 151.059 116.21C158.582 112.506 168.062 111.278 172.216 110.911C172.92 101.667 173.771 92.5088 174.625 84.1543ZM171.899 115.731C167.745 116.172 159.739 117.298 153.417 120.317C160.199 131.949 166.552 142.267 170.626 148.804C170.549 138.704 171.082 127.226 171.899 115.731Z" fill="#C9C9C9" stroke="#C9C9C9"/>
</g>
<g clip-path="url(#clip2_3709_13028)">
<path d="M110.359 84.7053L113.572 77.4037L117.66 75.0671L124.378 74.7751L131.972 77.6957L138.105 83.245L140.734 89.9625L138.689 96.68L133.724 102.813L124.962 105.15L118.537 101.645L113.279 94.6356L110.359 84.7053Z" fill="#5D5360"/>
<path d="M126.888 75.4851C124.82 74.8413 122.656 74.5611 120.492 74.657C117.858 74.7023 115.335 75.7296 113.418 77.5378C112.974 77.9819 112.579 78.4726 112.238 79.0003C113.927 77.9515 115.862 77.3651 117.85 77.3C120.013 77.2041 122.177 77.4843 124.245 78.1281C127.794 79.2002 131.031 81.1133 133.681 83.7047C139.475 89.499 139.136 96.442 134.923 101.686C135.412 101.297 135.88 100.882 136.324 100.443C141.68 95.0871 142.649 87.3873 136.324 81.0618C133.674 78.4703 130.437 76.5572 126.888 75.4851Z" fill="#4B3F4E"/>
<path d="M120.493 74.6568C114.584 74.9783 110.859 78.6961 110.538 84.6119C101.246 84.0807 95.6164 72.434 101.966 66.0848C108.268 59.7822 119.958 65.3069 120.493 74.6568Z" fill="#5D5360"/>
<path d="M113.506 64.5345C109.13 62.4166 103.61 63.2121 100.802 67.5642C106.897 63.6288 115.599 67.7721 117.511 75.1574C118.481 74.8746 119.482 74.7072 120.492 74.657C120.325 72.5033 119.59 70.4324 118.363 68.6546C117.136 66.8767 115.46 65.4552 113.506 64.5345Z" fill="#4B3F4E"/>
<path d="M92.1515 68.2521C91.5034 69.8658 91.2003 71.5974 91.2617 73.3353C89.3287 73.7208 87.3395 73.7298 85.4031 73.3618C85.1506 72.5422 85.0704 71.6793 85.1674 70.8273C85.2644 69.9752 85.5367 69.1524 85.967 68.4106C87.5143 68.7545 89.1192 68.7454 90.6626 68.3842C91.148 68.2617 91.6511 68.2168 92.1515 68.2521Z" fill="#D87AF2"/>
<path d="M80.5577 65.8557C82.1558 67.0874 84.0006 67.9595 85.9669 68.4106C85.5366 69.1524 85.2644 69.9752 85.1674 70.8272C85.0704 71.6793 85.1506 72.5422 85.4031 73.3617C82.5478 72.823 79.8608 71.6154 77.5623 69.8378C77.0471 69.436 76.7102 68.848 76.6243 68.2002C76.5384 67.5525 76.7104 66.897 77.1032 66.3748C77.496 65.8527 78.0781 65.5057 78.7243 65.4086C79.3704 65.3115 80.0288 65.4721 80.5577 65.8557ZM99.4548 70.9566C99.1564 72.6259 99.2652 74.3425 99.772 75.9606C96.923 75.8089 94.1747 74.8562 91.8431 73.212C91.6517 73.2636 91.4576 73.3048 91.2617 73.3353C91.2003 71.5973 91.5034 69.8658 92.1515 68.252C92.1832 68.2591 92.2158 68.2635 92.2484 68.2608L92.2572 68.2696C93.0721 68.3269 93.8588 68.5886 94.5477 69.0273C96.005 70.0547 97.6881 70.7164 99.4548 70.9566Z" fill="#4B3F4E"/>
<path d="M86.522 80.3832C86.2906 82.0722 86.5094 83.7923 87.1564 85.3696C85.6412 85.9684 84.2627 86.8674 83.1038 88.0126C81.7582 86.9823 80.7045 85.6189 80.0468 84.0569C81.8591 82.3073 84.083 81.0426 86.5132 80.3797C86.5165 80.3797 86.5197 80.3809 86.522 80.3832Z" fill="#D87AF2"/>
<path d="M80.0468 84.0569C80.7045 85.6188 81.7582 86.9822 83.1038 88.0125C82.0202 89.0048 81.0483 90.1126 80.2054 91.3162C80.0234 91.6008 79.7854 91.8454 79.506 92.0352C79.2265 92.225 78.9113 92.356 78.5797 92.4202C78.248 92.4844 77.9068 92.4805 77.5766 92.4087C77.2465 92.337 76.9345 92.1988 76.6594 92.0027C76.3843 91.8065 76.152 91.5565 75.9766 91.2678C75.8012 90.9791 75.6863 90.6578 75.6389 90.3233C75.5915 89.9888 75.6126 89.6482 75.701 89.3221C75.7894 88.9961 75.9431 88.6914 76.1529 88.4266C77.2769 86.8238 78.5837 85.3574 80.0468 84.0569ZM102.847 81.0615C103.067 81.2818 103.305 81.502 103.543 81.7046C101.763 82.4975 93.3409 85.9686 87.1828 85.3607C87.174 85.3695 87.1652 85.3607 87.1564 85.3695C86.5095 83.7923 86.2906 82.0721 86.5221 80.3832C86.7908 80.3259 87.0691 80.3171 87.3414 80.3567C91.1472 80.9029 97.182 78.9207 100.415 77.6257C101.021 78.9028 101.844 80.0652 102.847 81.0615Z" fill="#4B3F4E"/>
<path d="M96.5389 94.7168C96.4574 94.7834 96.3721 94.8452 96.2834 94.9018C96.0782 96.3726 96.031 97.8611 96.1425 99.342C95.3176 99.6164 94.4443 99.7143 93.5792 99.6293C92.7141 99.5443 91.8765 99.2783 91.1209 98.8486C91.0563 97.2794 91.1359 95.7076 91.3587 94.153C91.4979 93.2633 91.872 92.427 92.4423 91.7302C93.6872 92.8817 95.0624 93.8834 96.5389 94.7168Z" fill="#D87AF2"/>
<path d="M96.1425 99.3419C96.3101 101.785 96.9504 104.173 98.0278 106.372C98.175 106.665 98.2631 106.984 98.287 107.31C98.3109 107.637 98.2701 107.965 98.167 108.276C98.0639 108.587 97.9005 108.875 97.6861 109.122C97.4718 109.37 97.2107 109.573 96.9178 109.72C96.6251 109.867 96.3063 109.955 95.9796 109.979C95.6529 110.003 95.3247 109.962 95.0137 109.859C94.7028 109.756 94.4152 109.593 94.1675 109.378C93.9198 109.164 93.7167 108.903 93.57 108.61C92.0733 105.566 91.2386 102.239 91.1209 98.8486C91.8765 99.2783 92.7141 99.5442 93.5792 99.6292C94.4444 99.7142 95.3177 99.6163 96.1425 99.3419ZM108.406 84.2771C104.685 88.0151 100.721 91.5038 96.5389 94.7168C95.0623 93.8834 93.6875 92.8812 92.4424 91.7302C92.7393 91.3752 93.0837 91.0607 93.4643 90.7964C97.0764 88.0477 100.507 85.07 103.737 81.8808C105.099 83.0112 106.693 83.8292 108.406 84.2771Z" fill="#4B3F4E"/>
<path d="M107.859 95.7299C108.309 97.0074 108.899 98.7253 109.507 100.637C108.816 101.191 107.995 101.558 107.122 101.703C106.249 101.848 105.353 101.766 104.52 101.465C103.983 99.8001 103.463 98.3817 103.128 97.4655C102.806 96.6041 102.739 95.6682 102.935 94.7697C104.471 95.4926 106.164 95.8226 107.859 95.7299ZM114.872 112.24C114.228 113.826 113.071 115.15 111.586 116.001C110.003 114.766 108.6 113.316 107.419 111.693C109 111.109 110.452 110.22 111.692 109.077C112.601 110.273 113.671 111.337 114.872 112.24Z" fill="#D87AF2"/>
<path d="M119.03 114.671C119.404 114.832 119.733 115.082 119.988 115.4C120.243 115.717 120.416 116.092 120.493 116.492C120.569 116.892 120.547 117.304 120.427 117.693C120.307 118.082 120.094 118.436 119.806 118.724C119.451 119.074 119.001 119.311 118.511 119.405C118.022 119.499 117.516 119.446 117.057 119.252C115.096 118.418 113.256 117.324 111.586 116.001C113.071 115.15 114.228 113.826 114.872 112.24C116.15 113.222 117.548 114.04 119.03 114.671ZM111.692 109.077C110.452 110.22 109 111.109 107.419 111.693C107.225 111.412 107.119 111.235 107.102 111.2C106.926 110.916 106.811 110.598 106.767 110.266C106.256 107.277 105.505 104.334 104.52 101.465C105.353 101.766 106.249 101.848 107.122 101.703C107.995 101.558 108.816 101.191 109.507 100.637C110.4 103.366 111.104 106.154 111.612 108.98C111.633 109.016 111.66 109.049 111.692 109.077ZM110.538 84.612C110.442 86.7758 110.722 88.9399 111.366 91.0079C110.454 92.7514 109.267 94.3363 107.851 95.7036C107.859 95.7124 107.851 95.7212 107.859 95.73C106.164 95.8226 104.471 95.4927 102.935 94.7697C103.148 93.7311 103.681 92.7853 104.459 92.0651C106.475 89.8723 107.932 87.225 108.705 84.3477C109.308 84.4886 109.921 84.5767 110.538 84.612Z" fill="#4B3F4E"/>
<path d="M109.243 49.5223C109.611 51.4586 109.602 53.4478 109.216 55.3808C107.478 55.3194 105.747 55.6225 104.133 56.2706C104.098 55.7702 104.143 55.2672 104.265 54.7817C104.626 53.2383 104.635 51.6334 104.291 50.0861C105.033 49.6558 105.856 49.3836 106.708 49.2865C107.56 49.1895 108.423 49.2697 109.243 49.5223Z" fill="#D87AF2"/>
<path d="M104.133 56.2706C105.747 55.6224 107.478 55.3193 109.216 55.3808C109.185 55.5772 109.144 55.7702 109.093 55.9622C110.737 58.2938 111.69 61.0421 111.841 63.8911C110.223 63.3843 108.507 63.2755 106.838 63.5739C106.597 61.8071 105.936 60.1241 104.908 58.6668C104.469 57.9779 104.208 57.1912 104.15 56.3763L104.142 56.3675C104.144 56.3349 104.141 56.3022 104.133 56.2706ZM105.719 41.6814C107.496 43.9799 108.704 46.6669 109.243 49.5222C108.423 49.2697 107.56 49.1894 106.708 49.2865C105.856 49.3835 105.033 49.6557 104.291 50.086C103.839 48.12 102.968 46.2748 101.737 44.6768C101.533 44.4159 101.384 44.117 101.297 43.7977C101.21 43.4784 101.188 43.1451 101.231 42.8171C101.275 42.4891 101.383 42.1731 101.55 41.8874C101.717 41.6017 101.939 41.3522 102.204 41.1533C102.468 40.9544 102.77 40.8102 103.09 40.729C103.411 40.6478 103.745 40.6313 104.072 40.6805C104.399 40.7296 104.713 40.8435 104.996 41.0153C105.279 41.1872 105.524 41.4136 105.719 41.6814Z" fill="#4B3F4E"/>
<path d="M123.893 47.223C122.748 48.3818 121.849 49.7603 121.25 51.2755C119.673 50.6286 117.953 50.4098 116.264 50.6412C116.262 50.6388 116.26 50.6357 116.26 50.6324C116.26 50.6291 116.262 50.6259 116.264 50.6236C116.928 48.1973 118.191 45.9764 119.938 44.1659C121.5 44.8237 122.863 45.8773 123.893 47.223Z" fill="#D87AF2"/>
<path d="M121.25 51.2755C121.242 51.2843 121.25 51.2932 121.242 51.302C121.849 57.46 118.378 65.8823 117.585 67.6619C116.462 66.3424 115.072 65.2764 113.506 64.5344C114.802 61.3011 116.784 55.2664 116.238 51.4605C116.198 51.1883 116.207 50.9099 116.264 50.6412C117.953 50.4098 119.673 50.6286 121.25 51.2755ZM127.778 40.8535C127.971 41.1187 128.108 41.4195 128.183 41.7383C128.257 42.0572 128.268 42.3877 128.214 42.7107C128.16 43.0337 128.042 43.3427 127.868 43.6197C127.693 43.8968 127.465 44.1364 127.197 44.3246C125.993 45.1675 124.886 46.1394 123.893 47.223C122.863 45.8774 121.5 44.8237 119.938 44.166C121.238 42.7028 122.705 41.3961 124.307 40.272C124.845 39.8897 125.512 39.7362 126.163 39.8452C126.814 39.9542 127.395 40.3168 127.778 40.8535Z" fill="#4B3F4E"/>
<path d="M134.729 55.2401C135.159 55.9958 135.425 56.8333 135.51 57.6985C135.595 58.5636 135.497 59.4369 135.223 60.2617C133.742 60.1502 132.253 60.1975 130.782 60.4027C130.726 60.4914 130.664 60.5767 130.597 60.6582C129.764 59.1816 128.762 57.8064 127.611 56.5616C128.309 55.9907 129.144 55.6172 130.034 55.478C131.588 55.2552 133.16 55.1756 134.729 55.2401Z" fill="#D87AF2"/>
<path d="M127.611 56.5613C128.762 57.8065 129.764 59.1812 130.598 60.6579C127.385 64.84 123.896 68.8044 120.158 72.5248C119.71 70.812 118.892 69.2182 117.762 67.8556C120.951 64.6259 123.929 61.1953 126.677 57.5833C126.942 57.2027 127.256 56.8582 127.611 56.5613ZM145.601 61.0368C145.454 61.3297 145.251 61.5907 145.003 61.8051C144.756 62.0195 144.468 62.1829 144.157 62.286C143.846 62.3891 143.518 62.4298 143.191 62.406C142.865 62.3821 142.546 62.294 142.253 62.1468C140.054 61.0694 137.666 60.4291 135.223 60.2615C135.497 59.4367 135.595 58.5633 135.51 57.6982C135.425 56.8331 135.159 55.9955 134.73 55.2399C138.12 55.3575 141.447 56.1922 144.491 57.689C144.784 57.8357 145.045 58.0387 145.259 58.2865C145.474 58.5342 145.637 58.8218 145.74 59.1327C145.843 59.4436 145.884 59.7719 145.86 60.0986C145.836 60.4253 145.748 60.7441 145.601 61.0368Z" fill="#4B3F4E"/>
<path d="M137.346 68.6396C137.647 69.4721 137.729 70.3679 137.584 71.2411C137.439 72.1143 137.072 72.9356 136.518 73.626C134.606 73.0181 132.888 72.4279 131.611 71.9786C131.703 70.2828 131.373 68.5906 130.65 67.0539C131.549 66.8582 132.485 66.9255 133.346 67.2477C134.262 67.5824 135.681 68.1022 137.346 68.6396Z" fill="#D87AF2"/>
<path d="M130.65 67.054C131.373 68.5907 131.703 70.2829 131.611 71.9787C131.602 71.9699 131.593 71.9787 131.584 71.9699C130.218 73.3858 128.632 74.5727 126.889 75.485C124.821 74.8412 122.657 74.561 120.493 74.6569C120.457 74.0402 120.369 73.427 120.228 72.8244C123.105 72.0509 125.753 70.5941 127.946 68.5781C128.666 67.8002 129.612 67.2663 130.65 67.054Z" fill="#4B3F4E"/>
<path d="M151.882 75.7051C151.031 77.1901 149.706 78.347 148.121 78.9912C147.218 77.7895 146.154 76.72 144.958 75.8108C146.101 74.5711 146.99 73.1195 147.574 71.5381C149.197 72.7197 150.647 74.1222 151.882 75.7051Z" fill="#D87AF2"/>
<path d="M151.882 75.7051C153.205 77.3755 154.299 79.2155 155.133 81.176C155.327 81.6351 155.38 82.1413 155.286 82.6306C155.192 83.12 154.955 83.5704 154.605 83.9247C154.317 84.2129 153.963 84.4262 153.574 84.5459C153.185 84.6657 152.773 84.6884 152.373 84.6119C151.973 84.5354 151.598 84.3621 151.281 84.1072C150.963 83.8522 150.713 83.5234 150.552 83.1495C149.921 81.6668 149.103 80.2695 148.121 78.9912C149.707 78.347 151.031 77.1901 151.882 75.7051ZM144.861 75.7316C142.035 75.2231 139.247 74.5196 136.518 73.626C137.072 72.9356 137.439 72.1143 137.584 71.2411C137.729 70.3679 137.647 69.472 137.346 68.6396C140.215 69.624 143.158 70.3753 146.147 70.8861C146.479 70.9302 146.797 71.0456 147.081 71.2209C147.116 71.2385 147.293 71.3442 147.574 71.5381C146.99 73.1196 146.101 74.5712 144.958 75.8108C144.93 75.7793 144.897 75.7525 144.861 75.7316Z" fill="#4B3F4E"/>
<path d="M101.965 66.085C100.646 67.4112 99.7691 69.1129 99.4545 70.9568C97.6878 70.7166 96.0047 70.0549 94.5475 69.0275C93.8588 68.5884 93.0715 68.328 92.2569 68.2698L92.2481 68.261C91.2526 66.6841 90.7945 64.9221 92.2745 63.442C94.9175 60.7991 101.084 65.204 101.965 66.085ZM104.141 56.3677L104.15 56.3765C104.208 57.1912 104.469 57.9784 104.908 58.6671C105.935 60.1244 106.597 61.8074 106.837 63.5742C104.993 63.8888 103.292 64.7658 101.965 66.085C101.084 65.204 96.6794 59.0371 99.3224 56.3942C100.802 54.9141 102.564 55.3722 104.141 56.3677Z" fill="#5D5360"/>
<path d="M129.845 54.2478C129.004 54.3777 128.197 54.6782 127.475 55.1309C126.754 55.5835 126.132 56.1788 125.648 56.8802C124.12 58.9655 122.471 60.9605 120.711 62.855C121.992 59.2017 122.6 55.3464 122.505 51.4762C123.696 48.9654 125.571 46.8422 127.913 45.3454C128.316 45.0623 128.657 44.7022 128.919 44.286C129.181 43.8698 129.358 43.4058 129.44 42.9208C129.521 42.4358 129.505 41.9395 129.393 41.4606C129.282 40.9817 129.076 40.5297 128.788 40.1309C128.213 39.3257 127.341 38.7818 126.365 38.6185C125.388 38.4551 124.387 38.6857 123.581 39.2596C116.378 44.4045 115.153 49.7909 115.046 50.3529C114.956 50.7761 114.941 51.2117 115.001 51.6401C115.396 54.3852 114.288 58.7875 112.951 62.4841C112.595 60.0819 111.732 57.7829 110.421 55.7393C110.908 53.1514 110.83 50.4886 110.191 47.9339C109.553 45.3791 108.369 42.9927 106.721 40.9387C106.278 40.3475 105.671 39.9004 104.975 39.6539C104.279 39.4073 103.526 39.3724 102.811 39.5534C102.095 39.7344 101.449 40.1233 100.954 40.671C100.459 41.2188 100.137 41.9008 100.029 42.6311C99.9561 43.1212 99.981 43.6209 100.103 44.1012C100.224 44.5816 100.44 45.033 100.738 45.4291C101.782 46.6659 102.533 48.1233 102.934 49.6918C103.335 51.2603 103.376 52.8992 103.053 54.4856C102.269 54.1833 101.413 54.1195 100.592 54.3022C99.7717 54.485 99.0236 54.9062 98.4419 55.5129C96.6799 57.2748 97.1169 59.916 98.1071 62.226C95.7972 61.2358 93.156 60.7988 91.394 62.5608C90.7874 63.1429 90.3664 63.8914 90.184 64.7122C90.0015 65.5329 90.0657 66.3893 90.3685 67.1736C88.7806 67.4976 87.1399 67.4574 85.5698 67.0561C83.9996 66.6548 82.5409 65.9028 81.3032 64.8566C80.9074 64.56 80.4567 64.3449 79.9771 64.2238C79.4976 64.1026 78.9988 64.0779 78.5096 64.1509C78.0269 64.2197 77.5626 64.3836 77.1437 64.6331C76.7248 64.8826 76.3596 65.2128 76.0693 65.6046C75.4749 66.3976 75.2198 67.3942 75.3601 68.3753C75.4269 68.8615 75.59 69.3294 75.8399 69.7518C76.0898 70.1741 76.4214 70.5424 76.8154 70.835C78.8699 72.4839 81.2568 73.6688 83.8123 74.3083C86.3679 74.9477 89.0315 75.0266 91.6204 74.5395C93.6642 75.8509 95.9632 76.7133 98.3652 77.0697C94.6677 78.4062 90.2637 79.5136 87.5036 79.1215C87.0947 79.0642 86.6789 79.0776 86.2746 79.1612C85.6817 79.2731 80.2901 80.5011 75.1469 87.7023C74.8397 88.1002 74.6159 88.5559 74.489 89.0422C74.362 89.5285 74.3344 90.0354 74.4078 90.5327C74.4813 91.0299 74.6542 91.5072 74.9164 91.936C75.1786 92.3649 75.5245 92.7364 75.9336 93.0285C76.3426 93.3205 76.8064 93.5271 77.2971 93.6358C77.7879 93.7444 78.2955 93.753 78.7896 93.661C79.2837 93.569 79.7542 93.3783 80.1729 93.1003C80.5917 92.8223 80.95 92.4626 81.2265 92.0429C82.7225 89.6978 84.8492 87.8213 87.3617 86.6284C91.2319 86.7233 95.0872 86.1156 98.7405 84.8347C96.8457 86.5947 94.8504 88.2434 92.7648 89.7726C92.0627 90.2566 91.467 90.879 91.0143 91.6017C90.5616 92.3244 90.2615 93.132 90.1324 93.9749C89.3662 99.1586 90.1785 104.453 92.4635 109.168C92.9091 110.053 93.6871 110.726 94.6272 111.038C95.5673 111.351 96.593 111.279 97.4798 110.837C97.8366 110.656 98.1617 110.419 98.4419 110.134C98.9981 109.579 99.3651 108.862 99.4909 108.087C99.6166 107.311 99.4946 106.515 99.1423 105.813C97.6285 102.638 97.0422 99.0994 97.4508 95.6056C100.226 93.5177 102.877 91.2703 105.392 88.8767C104.903 89.7092 104.305 90.4748 103.613 91.1505C102.698 91.9838 102.053 93.071 101.759 94.2731C101.465 95.4752 101.537 96.7375 101.964 97.8988C103.526 101.961 104.721 106.154 105.535 110.429C105.601 110.918 105.765 111.388 106.02 111.811C108.623 115.646 112.294 118.632 116.577 120.402C117.487 120.788 118.514 120.799 119.432 120.431C120.35 120.064 121.086 119.349 121.479 118.441C121.673 117.99 121.777 117.505 121.784 117.013C121.791 116.522 121.701 116.034 121.519 115.578C121.337 115.121 121.067 114.705 120.724 114.353C120.381 114.001 119.973 113.72 119.521 113.527C116.895 112.424 114.583 110.688 112.792 108.473C111.944 104.245 110.773 100.088 109.289 96.0391C109.939 95.3575 110.534 94.6261 111.07 93.8516C112.249 96.6341 113.943 99.1693 116.062 101.324C120.77 106.032 126.681 107.228 132.001 104.93C132.133 106.138 132.65 107.272 133.476 108.163C134.302 109.054 135.393 109.656 136.588 109.879C136.747 109.923 136.913 109.935 137.077 109.915C137.241 109.894 137.399 109.841 137.542 109.759C137.685 109.676 137.81 109.566 137.911 109.435C138.011 109.304 138.084 109.154 138.126 108.994C138.167 108.834 138.177 108.668 138.154 108.504C138.131 108.341 138.076 108.184 137.991 108.042C137.907 107.9 137.795 107.776 137.662 107.678C137.53 107.579 137.379 107.508 137.218 107.469C136.779 107.401 136.357 107.246 135.979 107.013C135.6 106.779 135.272 106.473 135.014 106.11C134.756 105.748 134.574 105.338 134.477 104.904C134.38 104.47 134.371 104.02 134.451 103.583C136.434 102.261 138.136 100.559 139.459 98.5754C139.896 98.4957 140.345 98.5044 140.779 98.6011C141.214 98.6978 141.624 98.8805 141.986 99.1385C142.348 99.3965 142.655 99.7244 142.889 100.103C143.122 100.482 143.277 100.903 143.345 101.343C143.384 101.503 143.455 101.654 143.554 101.786C143.652 101.919 143.776 102.031 143.918 102.115C144.06 102.2 144.217 102.255 144.38 102.278C144.544 102.301 144.71 102.292 144.87 102.25C145.03 102.208 145.18 102.135 145.311 102.035C145.442 101.934 145.552 101.809 145.634 101.666C145.717 101.523 145.77 101.365 145.791 101.201C145.811 101.037 145.799 100.871 145.755 100.712C145.533 99.5171 144.933 98.4255 144.042 97.5985C143.152 96.7716 142.019 96.2532 140.811 96.1201C143.113 90.7963 141.913 84.8885 137.205 80.1805C135.051 78.0606 132.515 76.3668 129.732 75.1879C130.505 74.6523 131.236 74.0576 131.916 73.4092C135.965 74.8925 140.122 76.0635 144.35 76.912C146.564 78.7031 148.3 81.0139 149.403 83.641C149.598 84.0948 149.881 84.5054 150.235 84.8493C150.59 85.1931 151.009 85.4633 151.468 85.6443C151.928 85.8252 152.419 85.9134 152.912 85.9035C153.406 85.8937 153.893 85.7862 154.345 85.5871C154.769 85.3959 155.154 85.1298 155.483 84.8012C156.011 84.2719 156.369 83.5966 156.51 82.8623C156.651 82.128 156.569 81.3683 156.275 80.6809C154.596 76.6769 151.874 73.1961 148.394 70.6006C148.382 70.5892 148.366 70.5821 148.354 70.5716C147.972 70.3002 147.74 70.1619 147.74 70.1619C147.308 69.8909 146.823 69.7152 146.317 69.6465C142.04 68.8319 137.844 67.6366 133.779 66.075C132.619 65.6486 131.358 65.5777 130.158 65.8715C128.957 66.1653 127.872 66.8103 127.04 67.7242C126.362 68.4131 125.597 69.0107 124.765 69.502C127.155 66.9903 129.398 64.343 131.483 61.5732C134.978 61.1649 138.516 61.7512 141.692 63.2647C142.579 63.7094 143.607 63.7836 144.548 63.4708C145.49 63.1581 146.269 62.484 146.714 61.597C147.158 60.7099 147.233 59.6825 146.92 58.7408C146.607 57.799 145.933 57.0201 145.046 56.5753C140.328 54.289 135.031 53.4779 129.845 54.2478ZM133.927 56.474C134.249 57.2675 134.357 58.1313 134.241 58.9796C133.201 58.9492 132.161 58.9928 131.127 59.1099C130.637 58.3391 130.101 57.5991 129.52 56.8934C129.746 56.8088 129.979 56.7471 130.216 56.7084C131.446 56.5375 132.686 56.4592 133.927 56.474ZM127.584 58.4527C128.141 59.1293 128.654 59.8429 129.114 60.5891C126.474 63.9483 123.652 67.1613 120.662 70.2148C120.311 69.4201 119.887 68.6625 119.39 67.9506C122.317 64.9587 125.053 61.7866 127.584 58.4527ZM92.978 69.6738C93.2934 69.7672 93.5947 69.9029 93.874 70.0747C95.1611 70.9372 96.5848 71.5803 98.0842 71.9767C98.0252 72.8339 98.0586 73.6938 98.1829 74.5422C96.1613 74.1315 94.2405 73.3262 92.5305 72.1723C92.5842 71.3252 92.7343 70.4869 92.978 69.6738ZM109.418 83.2155C107.257 82.8053 105.272 81.7467 103.728 80.1805C99.8418 76.2944 99.4471 70.3654 102.847 66.9657C106.247 63.566 112.176 63.9606 116.062 67.8467C117.628 69.3911 118.686 71.3759 119.097 73.537C116.629 73.8337 114.325 74.9292 112.538 76.6565C110.81 78.4441 109.715 80.7474 109.418 83.2155ZM105.952 57.9946C105.779 57.7153 105.645 57.414 105.552 57.0995C106.365 56.8555 107.203 56.7049 108.051 56.652C109.205 58.3605 110.011 60.2797 110.423 62.3C109.574 62.1752 108.714 62.1421 107.858 62.2013C107.46 60.7031 106.816 59.2814 105.952 57.9946ZM122.216 47.2439C121.57 48.0262 121.008 48.875 120.541 49.7759C119.713 49.546 118.868 49.398 118.012 49.3336C118.599 48.0278 119.358 46.8065 120.269 45.7022C120.988 46.1216 121.644 46.6396 122.216 47.2439ZM126.759 41.5783C126.857 41.7101 126.926 41.86 126.964 42.0192C127.002 42.1784 127.008 42.3436 126.981 42.5051C126.953 42.6658 126.894 42.8194 126.806 42.957C126.718 43.0945 126.604 43.2134 126.47 43.3068C125.571 43.9494 124.718 44.6541 123.917 45.4159C123.327 44.8174 122.673 44.2851 121.967 43.8284C122.922 42.9021 123.946 42.0503 125.031 41.2806C125.301 41.0916 125.635 41.0172 125.959 41.0736C126.284 41.1301 126.573 41.3128 126.763 41.5819L126.759 41.5783ZM117.513 51.7784C118.371 51.8149 119.221 51.9594 120.043 52.2083C120.208 56.4265 118.551 61.8912 117.145 65.4645C116.499 64.8967 115.8 64.3912 115.059 63.9545C116.076 61.2516 117.885 55.7261 117.516 51.7819L117.513 51.7784ZM102.732 43.935C102.53 43.6654 102.444 43.3262 102.495 42.9932C102.517 42.8338 102.57 42.6803 102.652 42.542C102.734 42.4038 102.844 42.2836 102.974 42.1889C103.243 41.9862 103.583 41.8999 103.916 41.951C104.24 41.9977 104.529 42.1712 104.722 42.4346C106.003 44.1106 106.977 45.9994 107.601 48.0139C106.757 47.9943 105.916 48.1201 105.114 48.3857C104.568 46.7823 103.763 45.2794 102.732 43.935ZM105.67 50.8199C106.458 50.5193 107.309 50.4265 108.142 50.5503C108.297 51.7481 108.302 52.9606 108.157 54.1597C107.294 54.2012 106.436 54.3239 105.595 54.5262C105.815 53.3023 105.84 52.0516 105.67 50.8199ZM100.204 57.2748C100.732 56.7463 101.482 56.3489 102.998 57.1515C103.142 57.9301 103.433 58.674 103.857 59.3425C104.541 60.3575 105.062 61.4731 105.402 62.6489C104.22 63.0014 103.111 63.5633 102.127 64.3078C100.792 62.4216 98.8383 58.6404 100.204 57.2748ZM93.156 64.3227C94.5215 62.9572 98.3027 64.9112 100.189 66.2459C99.4444 67.2282 98.8815 68.3391 98.53 69.5205C97.3538 69.1809 96.2379 68.6595 95.2228 67.9753C94.5554 67.5534 93.8135 67.2631 93.037 67.1199C92.2336 65.6063 92.6274 64.8513 93.156 64.3227ZM77.8268 68.0229C77.7801 67.6907 77.8682 67.3542 78.0709 67.0864C78.1668 66.9581 78.2872 66.85 78.4251 66.7683C78.563 66.6867 78.7156 66.6331 78.8743 66.6107C79.0386 66.5851 79.2063 66.5927 79.3676 66.6329C79.5289 66.6731 79.6805 66.7453 79.8134 66.845C81.1587 67.8731 82.6608 68.6757 84.2633 69.2228C83.9973 70.0239 83.8716 70.865 83.8915 71.7089C81.8765 71.0858 79.9872 70.1121 78.3105 68.8325C78.1801 68.7365 78.0702 68.6154 77.9871 68.4764C77.9041 68.3374 77.8496 68.1832 77.8268 68.0229ZM86.4305 72.2586C86.306 71.4255 86.3986 70.5744 86.6992 69.7875C87.9304 69.9587 89.1809 69.9349 90.4046 69.717C90.2032 70.5591 90.0819 71.4184 90.0426 72.2833C88.8419 72.4273 87.6279 72.4208 86.4288 72.2639L86.4305 72.2586ZM85.6588 84.6594C84.7558 85.1272 83.9056 85.6902 83.1215 86.3386C82.5154 85.7642 81.9939 85.1052 81.5737 84.3837C82.6784 83.4727 83.9003 82.7159 85.206 82.1292C85.2735 82.9875 85.4255 83.8371 85.6597 84.6656L85.6588 84.6594ZM79.1879 90.5981C79.0944 90.7317 78.9751 90.8452 78.8371 90.9321C78.6991 91.019 78.5452 91.0775 78.3843 91.1042C78.2234 91.1309 78.0588 91.1252 77.9002 91.0874C77.7415 91.0497 77.592 90.9807 77.4603 90.8844C77.3263 90.7907 77.2122 90.6712 77.1249 90.533C77.0375 90.3947 76.9785 90.2404 76.9513 90.0791C76.9242 89.9178 76.9294 89.7527 76.9668 89.5935C77.0041 89.4342 77.0727 89.284 77.1687 89.1515C77.9382 88.0675 78.7897 87.044 79.7157 86.0901C80.1738 86.7949 80.705 87.4495 81.3032 88.0406C80.539 88.8424 79.8322 89.6971 79.1879 90.5981ZM88.0859 84.1669C87.837 83.3452 87.6929 82.4954 87.6569 81.6376C91.6222 81.9979 97.1354 80.1919 99.8356 79.1832C100.273 79.9243 100.778 80.6225 101.346 81.2685C97.7776 82.6754 92.3129 84.3308 88.0903 84.1678L88.0859 84.1669ZM103.827 83.508C104.539 84.0048 105.297 84.4312 106.091 84.7801C103.037 87.7729 99.8211 90.5969 96.4588 93.2393C95.7153 92.775 95.0031 92.2623 94.3268 91.7046C97.6629 89.1736 100.837 86.4363 103.832 83.5088L103.827 83.508ZM92.5913 94.337C92.6283 94.0992 92.6908 93.8657 92.7754 93.6402C93.4819 94.2199 94.2211 94.7564 94.9919 95.2453C94.8748 96.2787 94.8312 97.3191 94.8616 98.3587C94.0133 98.4744 93.1496 98.3663 92.356 98.0451C92.3405 96.8049 92.4191 95.5653 92.5913 94.337ZM96.9142 106.929C97.1962 107.546 96.9557 108.276 96.3619 108.605C96.2158 108.68 96.0565 108.724 95.8932 108.737C95.7299 108.749 95.5657 108.729 95.4101 108.678C95.2544 108.627 95.1104 108.546 94.9862 108.439C94.862 108.332 94.7601 108.202 94.6862 108.056C93.5499 105.751 92.8212 103.268 92.5322 100.714C93.3639 100.912 94.2255 100.958 95.0739 100.851C95.3498 102.964 95.9721 105.018 96.9142 106.929ZM104.297 97.0302C104.235 96.8671 104.185 96.6995 104.148 96.5289C105.065 96.8029 106.014 96.9536 106.972 96.9773C107.304 97.9332 107.655 98.9719 108.01 100.069C107.237 100.475 106.347 100.601 105.491 100.426C105.112 99.2872 104.714 98.1546 104.296 97.0293L104.297 97.0302ZM113.328 112.591C112.893 113.309 112.321 113.935 111.644 114.431C110.836 113.739 110.083 112.985 109.39 112.177C110.133 111.78 110.842 111.324 111.51 110.812C112.075 111.446 112.682 112.04 113.328 112.591ZM119.202 116.497C119.326 116.797 119.324 117.133 119.201 117.433C119.137 117.586 119.044 117.725 118.926 117.842C118.808 117.959 118.668 118.052 118.515 118.115C118.361 118.177 118.197 118.209 118.031 118.208C117.865 118.207 117.701 118.173 117.548 118.108C116.193 117.526 114.897 116.816 113.678 115.987C113.846 115.84 114.024 115.699 114.177 115.546C114.617 115.107 115.006 114.62 115.337 114.095C116.354 114.764 117.428 115.341 118.546 115.82C118.845 115.951 119.081 116.194 119.202 116.497ZM110.276 108.628C109.572 109.198 108.81 109.694 108.003 110.107L107.994 110.097C107.605 107.701 107.043 105.336 106.313 103.021C107.157 103.002 107.988 102.817 108.758 102.471C109.376 104.494 109.883 106.548 110.279 108.626L110.276 108.628ZM107.276 94.5106C106.333 94.5084 105.396 94.35 104.505 94.0419C104.712 93.6428 104.985 93.2798 105.314 92.9724C107.103 91.1382 108.459 88.927 109.283 86.5007C109.373 87.9707 109.619 89.427 110.017 90.8448C109.274 92.1838 108.353 93.4161 107.279 94.5079L107.276 94.5106ZM135.443 99.5621C130.091 104.914 123.176 104.914 117.824 99.5621C112.12 93.8587 109.338 83.3802 114.3 78.4185C119.261 73.4568 129.74 76.2389 135.443 81.9424C140.795 87.2944 140.795 94.2102 135.443 99.5621ZM148.061 73.5044C148.869 74.1968 149.624 74.9509 150.316 75.7597C149.819 76.4385 149.192 77.0122 148.471 77.4476C147.921 76.8001 147.327 76.1922 146.693 75.6258C147.206 74.9571 147.664 74.2476 148.061 73.5044ZM153.333 83.3124C153.183 83.3776 153.021 83.4126 152.857 83.4152C152.694 83.4179 152.531 83.3881 152.378 83.3277C152.226 83.2673 152.087 83.1775 151.969 83.0632C151.852 82.949 151.758 82.8128 151.693 82.6622C151.216 81.5434 150.638 80.4703 149.968 79.4537C150.494 79.1234 150.982 78.7354 151.423 78.2969C151.576 78.1436 151.718 77.9648 151.864 77.7974C152.691 79.0143 153.4 80.3076 153.98 81.6596C154.102 81.9657 154.103 82.3068 153.983 82.6138C153.863 82.9207 153.631 83.1704 153.333 83.3124ZM145.983 72.1247C145.569 72.9335 145.072 73.6982 144.5 74.4047C142.423 74.0082 140.369 73.5009 138.346 72.885C138.69 72.1141 138.876 71.2824 138.895 70.4385C141.212 71.1698 143.582 71.7318 145.981 72.1203L145.983 72.1247ZM136.301 69.6157C136.476 70.4732 136.348 71.3647 135.94 72.1388C134.907 71.8033 133.877 71.4562 132.851 71.0975C132.828 70.14 132.677 69.1899 132.403 68.2722C132.574 68.3092 132.742 68.3594 132.905 68.422C133.698 68.7109 134.897 69.1452 136.301 69.6157ZM128.856 69.4298C129.163 69.1056 129.522 68.8343 129.919 68.6281C130.226 69.5205 130.385 70.4575 130.387 71.4014C129.297 72.4767 128.065 73.3976 126.725 74.1387C125.307 73.7403 123.85 73.4943 122.379 73.4048C124.803 72.5703 127.014 71.2133 128.856 69.4298ZM144.554 59.5249C144.657 59.8394 144.631 60.183 144.48 60.4799C144.321 60.765 144.061 60.9801 143.751 61.0824C143.441 61.1847 143.103 61.1668 142.806 61.0322C140.893 60.0876 138.837 59.4643 136.722 59.1875C136.829 58.342 136.786 57.484 136.593 56.6538C139.147 56.9426 141.631 57.6723 143.935 58.8104C144.08 58.883 144.21 58.9834 144.316 59.106C144.422 59.2286 144.503 59.3709 144.554 59.5249Z" fill="black"/>
</g>
</g>
<defs>
<clipPath id="clip0_3709_13028">
<rect width="185" height="185" fill="white"/>
</clipPath>
<clipPath id="clip1_3709_13028">
<rect width="140" height="138" fill="white" transform="matrix(0 1 -1 0 185 45)"/>
</clipPath>
<clipPath id="clip2_3709_13028">
<rect width="76" height="76" fill="white" transform="translate(61 79.7401) rotate(-45)"/>
</clipPath>
</defs>
</svg>
