<svg width="164" height="292" viewBox="0 0 164 292" fill="none" xmlns="http://www.w3.org/2000/svg">
<path d="M126.879 2.5L127.531 4.00781L159.531 78.0059L159.818 78.667L159.707 79.3799L127.707 286.756L127.38 288.875H35.0178L34.6907 286.756L2.69067 79.3799L2.58032 78.667L2.86646 78.0059L34.8665 4.00781L35.5188 2.5H126.879Z" fill="#674B24" stroke="#342612" stroke-width="5"/>
<path d="M113.738 22.5L114.39 24.0078L138.886 80.6543L139.172 81.3154L139.062 82.0273L110.557 266.756L110.23 268.875H52.1682L51.8411 266.756L23.3352 82.0273L23.2249 81.3154L23.511 80.6543L48.0081 24.0078L48.6604 22.5H113.738Z" fill="url(#paint0_linear_3702_5255)" stroke="#342612" stroke-width="5"/>
<path d="M126.879 2.5L127.531 4.00781L159.531 78.0059L159.818 78.667L159.707 79.3799L127.707 286.756L127.38 288.875H35.0178L34.6907 286.756L2.69067 79.3799L2.58032 78.667L2.86646 78.0059L34.8665 4.00781L35.5188 2.5H126.879Z" fill="#9E7437" stroke="#342612" stroke-width="5"/>
<path d="M118.665 15L146.913 80.3223L116.661 276.375H45.7366L15.4836 80.3223L43.7317 15H118.665Z" fill="#674B24" stroke="#3F2E16" stroke-width="5"/>
<path d="M81.2283 15.9983V276.498" stroke="#3F2E16" stroke-width="5"/>
<path d="M57.2283 15.9983V276.498" stroke="#3F2E16" stroke-width="5"/>
<path d="M105.228 15.9983V276.498" stroke="#3F2E16" stroke-width="5"/>
<path d="M18.2327 80.6639L33.6899 44.0978L32.9424 184.185L18.2327 80.6639Z" fill="#65CB11"/>
<path d="M129.228 38.4983V195.498" stroke="#3F2E16" stroke-width="5"/>
<path d="M85.228 46.4983C87.7133 46.4983 89.728 48.513 89.728 50.9983V72.4983H111.228C113.713 72.4983 115.728 74.513 115.728 76.9983V84.9983C115.728 87.4836 113.713 89.4983 111.228 89.4983H89.728V136.998C89.728 139.484 87.7133 141.498 85.228 141.498H77.228C74.7427 141.498 72.728 139.484 72.728 136.998V89.4983H51.228C48.7427 89.4983 46.728 87.4836 46.728 84.9983V76.9983L46.7339 76.7669C46.8543 74.3891 48.8204 72.4983 51.228 72.4983H72.728V50.9983C72.728 48.513 74.7427 46.4983 77.228 46.4983H85.228Z" fill="#9E7437" stroke="#3F2E16" stroke-width="5"/>
<path d="M33.2283 38.4983V195.498" stroke="#3F2E16" stroke-width="5"/>
<path d="M68.7588 215.132L81.025 244.793L81.4226 171.587L68.7588 215.132Z" fill="#65CB11" stroke="#3F2E16" stroke-width="5"/>
<defs>
<linearGradient id="paint0_linear_3702_5255" x1="54.6614" y1="56.4983" x2="69.6614" y2="161.998" gradientUnits="userSpaceOnUse">
<stop stop-color="#AAFA1E"/>
<stop offset="1" stop-color="#65CB11"/>
</linearGradient>
</defs>
</svg>
