<svg width="227" height="309" viewBox="0 0 227 309" fill="none" xmlns="http://www.w3.org/2000/svg">
<path d="M127.384 19.6172L128.037 21.1251L160.037 95.1231L160.323 95.7842L160.212 96.4971L128.212 303.873L127.885 305.992H35.5229L35.1958 303.873L3.1958 96.4971L3.08545 95.7842L3.37158 95.1231L35.3716 21.1251L36.0239 19.6172H127.384Z" fill="#674B24" stroke="#342612" stroke-width="5"/>
<path d="M114.243 39.6172L114.895 41.1251L139.391 97.7715L139.677 98.4327L139.567 99.1446L111.062 283.873L110.735 285.992H52.6733L52.3462 283.873L23.8403 99.1446L23.73 98.4327L24.0161 97.7715L48.5132 41.1251L49.1655 39.6172H114.243Z" fill="url(#paint0_linear_3666_4778)" stroke="#342612" stroke-width="5"/>
<path d="M216.149 32.3508L216.304 33.9864L223.871 114.251L223.939 114.968L223.613 115.612L129.097 302.95L128.131 304.864L40.2892 276.323L40.6329 274.206L74.2818 67.0916L74.3971 66.3795L74.8736 65.8391L128.174 5.35132L129.26 4.11889L216.149 32.3508Z" fill="#9E7437" stroke="#342612" stroke-width="5"/>
<path d="M204.475 41.7008L211.154 112.555L121.799 289.664L54.346 267.747L86.1573 71.9411L133.209 18.545L204.475 41.7008Z" fill="#674B24" stroke="#3F2E16" stroke-width="5"/>
<path d="M168.562 31.0815L88.0626 278.832" stroke="#3F2E16" stroke-width="5"/>
<path d="M145.736 23.6651L65.2372 271.415" stroke="#3F2E16" stroke-width="5"/>
<path d="M191.387 38.4979L110.888 286.248" stroke="#3F2E16" stroke-width="5"/>
<path d="M88.6663 73.1154L114.667 43.1155L70.6663 176.115L88.6663 73.1154Z" fill="#65CB11"/>
<path d="M207.259 67.3131L158.744 216.629" stroke="#3F2E16" stroke-width="5"/>
<path d="M162.941 61.3248C165.304 62.0928 166.598 64.6315 165.83 66.9951L159.186 87.4428L179.634 94.0867C181.997 94.8547 183.291 97.3934 182.523 99.757L180.051 107.365C179.307 109.655 176.901 110.941 174.602 110.321L174.38 110.255L153.933 103.611L139.254 148.786C138.486 151.15 135.948 152.443 133.584 151.675L125.975 149.203C123.612 148.435 122.318 145.896 123.086 143.533L137.765 98.3575L117.317 91.7137C114.953 90.9457 113.66 88.407 114.428 86.0433L116.9 78.4349L116.977 78.2166C117.826 75.9924 120.28 74.8017 122.57 75.5457L143.018 82.1896L149.662 61.7418L149.739 61.5235C150.588 59.2994 153.042 58.1087 155.332 58.8527L162.941 61.3248Z" fill="#9E7437" stroke="#3F2E16" stroke-width="5"/>
<path d="M115.958 37.6475L67.4421 186.963" stroke="#3F2E16" stroke-width="5"/>
<path d="M36.6665 20.6155L50.6665 41.6155" stroke="#342612" stroke-width="5"/>
<path d="M4.1665 96.1155L24.1665 98.6155" stroke="#342612" stroke-width="5"/>
<path d="M37.1665 304.616L53.1665 285.616" stroke="#342612" stroke-width="5"/>
<path d="M95.1665 216.616L97.6665 248.616L120.667 179.116L95.1665 216.616Z" fill="#65CB11" stroke="#3F2E16" stroke-width="5"/>
<defs>
<linearGradient id="paint0_linear_3666_4778" x1="55.1665" y1="73.6155" x2="70.1665" y2="179.116" gradientUnits="userSpaceOnUse">
<stop stop-color="#AAFA1E"/>
<stop offset="1" stop-color="#65CB11"/>
</linearGradient>
</defs>
</svg>
