<svg width="96" height="96" viewBox="0 0 96 96" fill="none" xmlns="http://www.w3.org/2000/svg">
<g clip-path="url(#clip0_1509_46536)">
<rect width="96" height="96" rx="48" fill="url(#paint0_linear_1509_46536)"/>
<path d="M151.705 15.8265C156.996 14.1629 166.977 -1.02115 167.04 -12.72C140.56 7.53862 85.1443 15.8265 85.1443 15.8265C79.4606 23.1456 70.9514 28.4362 58.2234 30.7039C56.3428 27.3836 54.23 22.7064 55.2028 19.7718C55.5789 18.6426 56.3823 17.8921 57.6592 17.4623H57.6709L63.2872 18.3266C63.4822 18.9726 63.4892 19.6835 63.0109 20.3086C62.8623 20.5037 62.8739 20.7756 63.0272 20.9661C63.134 21.0869 63.2802 21.1566 63.4358 21.1566C63.5147 21.1566 63.5937 21.1404 63.675 21.0986C63.7748 21.0498 66.0826 19.8485 66.0826 15.8591C66.0826 11.8696 62.0079 9.06283 56.7677 8.97686L56.7723 8.98151C56.1687 8.48428 53.8562 6.85783 49.15 6.85783C46.206 6.85783 44.0258 8.04979 42.0988 9.09769C39.7004 10.4105 37.8012 11.4444 35.0963 10.0945C34.9315 10.0108 34.7365 10.0201 34.5786 10.1154C34.4253 10.2106 34.3301 10.3803 34.3301 10.5661C34.3301 10.6614 34.3673 12.7479 37.1998 14.4231C36.6542 15.09 35.7859 16.3354 35.4051 17.855C35.3517 18.0664 35.4376 18.2895 35.6118 18.4172C35.7929 18.545 36.0297 18.545 36.2108 18.4172C36.3965 18.2964 36.7448 18.0896 37.1372 17.8921C37.1372 17.8921 34.7248 20.3016 33.7381 29.9093C23.0882 27.3255 15.7142 22.3927 10.6156 15.8265C10.6156 15.8265 -44.8003 7.53862 -71.28 -12.72C-71.215 -1.02115 -61.2337 14.1652 -55.9424 15.8265C-43.4537 19.7533 -30.6189 22.5624 -17.3965 24.1145L-60.3468 21.4541C-58.4105 27.0165 -54.7862 32.328 -49.5065 37.3909C-46.7738 40.0118 -43.1379 41.4803 -39.3557 41.5314C-29.27 41.6685 -19.3212 41.3084 -9.53266 40.3836L-46.0331 47.0335C-40.9508 53.3789 -34.8724 58.5557 -26.4769 61.007C-23.6026 61.8458 -20.5518 61.8736 -17.6681 61.0627C-10.4265 59.0274 -3.28711 56.0719 3.76177 52.252L-17.6078 69.6457C-12.2863 72.197 -6.13359 73.8188 1.04066 74.3044C3.74088 74.4856 6.40858 73.6189 8.49585 71.8949L16.5408 65.2474L5.29414 80.2874C9.35259 80.7219 13.3971 80.8171 17.4277 80.5406C19.1504 80.4221 20.6898 79.4207 21.507 77.8988L25.9462 69.6457L22.1641 82.0254C26.1924 81.5467 30.1486 80.5894 34.0353 79.2162L28.9065 88.1594L36.8353 96.7075L42.461 90.2134L40.2832 100.423L47.9821 108.72L55.6811 100.423L53.5033 90.2134L59.1289 96.7075L67.0578 88.1594L61.9824 79.3092C65.7854 80.6336 69.6535 81.556 73.5912 82.0254L69.8091 69.6457L74.2483 77.8988C75.0679 79.4207 76.6072 80.4221 78.3276 80.5406C82.3559 80.8171 86.4004 80.7219 90.4612 80.2874L79.2145 65.2474L87.2594 71.8949C89.3467 73.6189 92.0144 74.4856 94.7146 74.3044C101.889 73.8211 108.042 72.1993 113.363 69.6457L91.9935 52.252C99.0401 56.0742 106.182 59.0297 113.423 61.0627C116.305 61.8736 119.358 61.8458 122.232 61.007C130.625 58.5557 136.704 53.3789 141.788 47.0335L105.288 40.3836C115.077 41.3084 125.023 41.6685 135.111 41.5314C138.893 41.4803 142.531 40.0118 145.262 37.3909C150.542 32.328 154.166 27.0165 156.102 21.4541L113.161 24.1145C126.381 22.5624 139.216 19.7533 151.705 15.8265Z" fill="white" fill-opacity="0.2"/>
<g filter="url(#filter0_d_1509_46536)">
<path d="M111.572 28.734C114.812 27.7171 120.923 18.4363 120.961 11.2858C104.748 23.6682 70.8179 28.734 70.8179 28.734C67.3379 33.2075 62.1278 36.4412 54.3346 37.8273C53.1832 35.7979 51.8895 32.9391 52.4852 31.1454C52.7155 30.4552 53.2073 29.9965 53.9892 29.7338H53.9963L57.4351 30.2621C57.5545 30.6569 57.5588 31.0915 57.2659 31.4735C57.175 31.5928 57.1821 31.7589 57.2759 31.8754C57.3413 31.9492 57.4308 31.9918 57.5261 31.9918C57.5744 31.9918 57.6228 31.9819 57.6725 31.9563C57.7337 31.9265 59.1467 31.1923 59.1467 28.7539C59.1467 26.3154 56.6518 24.5999 53.4433 24.5473L53.4461 24.5502C53.0765 24.2462 51.6606 23.2521 48.7791 23.2521C46.9765 23.2521 45.6417 23.9807 44.4617 24.6212C42.9932 25.4236 41.8304 26.0555 40.1742 25.2304C40.0733 25.1793 39.9539 25.185 39.8572 25.2432C39.7634 25.3014 39.7051 25.4051 39.7051 25.5187C39.7051 25.5769 39.7279 26.8522 41.4622 27.8762C41.1281 28.2838 40.5965 29.045 40.3633 29.9738C40.3306 30.103 40.3832 30.2394 40.4898 30.3175C40.6007 30.3956 40.7457 30.3956 40.8566 30.3175C40.9703 30.2436 41.1836 30.1172 41.4238 29.9965C41.4238 29.9965 39.9468 31.4692 39.3426 37.3416C32.8218 35.7624 28.3069 32.7474 25.1851 28.734C25.1851 28.734 -8.74531 23.6682 -24.9585 11.2858C-24.9187 18.4363 -18.8073 27.7185 -15.5675 28.734C-7.92079 31.1341 -0.0622718 32.851 8.03365 33.7997L-18.2642 32.1736C-17.0786 35.5735 -14.8595 38.82 -11.6269 41.9146C-9.95365 43.5165 -7.72745 44.4141 -5.41169 44.4453C0.763668 44.5291 6.85515 44.309 12.8486 43.7437L-9.50017 47.8083C-6.38832 51.6867 -2.66661 54.8509 2.47383 56.3492C4.23376 56.8618 6.10172 56.8789 7.86732 56.3833C12.3012 55.1392 16.6726 53.3327 20.9885 50.998L7.90428 61.6294C11.1626 63.1887 14.9298 64.18 19.3224 64.4768C20.9757 64.5876 22.6091 64.0578 23.8872 63.0041L28.8129 58.941L21.9268 68.1337C24.4117 68.3993 26.8881 68.4575 29.356 68.2885C30.4108 68.2161 31.3533 67.604 31.8537 66.6738L34.5718 61.6294L32.256 69.196C34.7225 68.9035 37.1448 68.3184 39.5246 67.479L36.3843 72.9453L41.239 78.1701L44.6835 74.2007L43.3501 80.4409L48.064 85.5123L52.778 80.4409L51.4446 74.2007L54.8891 78.1701L59.7438 72.9453L56.6362 67.5358C58.9647 68.3453 61.3331 68.9091 63.7441 69.196L61.4283 61.6294L64.1464 66.6738C64.6482 67.604 65.5907 68.2161 66.6441 68.2885C69.1106 68.4575 71.587 68.3993 74.0733 68.1337L67.1872 58.941L72.113 63.0041C73.391 64.0578 75.0244 64.5876 76.6777 64.4768C81.0704 64.1814 84.8376 63.1901 88.0958 61.6294L75.0116 50.998C79.3261 53.3341 83.6989 55.1406 88.1328 56.3833C89.897 56.8789 91.7664 56.8618 93.5263 56.3492C98.6653 54.8509 102.387 51.6867 105.5 47.8083L83.1516 43.7437C89.145 44.309 95.235 44.5291 101.412 44.4453C103.728 44.4141 105.955 43.5165 107.627 41.9146C110.86 38.82 113.079 35.5735 114.264 32.1736L87.9722 33.7997C96.0667 32.851 103.925 31.1341 111.572 28.734Z" fill="url(#paint1_radial_1509_46536)"/>
<path d="M38.2095 60.2375C40.7158 60.8141 44.0707 61.3438 47.9374 61.3438C51.9491 61.3438 55.4235 60.7573 57.7691 60.2177L47.8123 66.0602L38.2095 60.2375Z" fill="#FFD23A"/>
<path d="M56.1301 60.851L47.8152 65.7293L39.779 60.8567C42.0564 61.2885 44.8341 61.6279 47.9375 61.6279C51.0934 61.6279 53.9195 61.2672 56.1301 60.851ZM59.5689 59.4919H59.475C56.4769 60.3327 52.4041 61.0598 47.9389 61.0598C43.4737 61.0598 39.4321 60.3327 36.4326 59.4919L36.4553 59.5047C36.5051 59.536 36.6373 59.6226 36.8534 59.7462L47.811 66.3897L58.9249 59.8683C59.3499 59.6411 59.5689 59.4919 59.5689 59.4919Z" fill="url(#paint2_linear_1509_46536)"/>
<path d="M48 55.9999C38.1712 55.9999 28.7006 53.8029 20.6118 49.646C12.894 45.6795 6.90059 40.1934 3.24854 33.7557H20.0133C27.5107 40.6918 37.4447 44.5107 48 44.5107C58.5553 44.5107 68.4893 40.6918 75.9867 33.7557H92.7529C89.0994 40.1934 83.106 45.6809 75.3882 49.646C67.2994 53.8029 57.8288 55.9999 48 55.9999Z" fill="#FFD23A"/>
<path d="M92.2596 34.0397C90.5253 36.988 88.2735 39.7531 85.554 42.2682C82.5929 45.0063 79.1285 47.405 75.2575 49.3932C67.2099 53.5287 57.7834 55.7158 48 55.7158C38.2167 55.7158 28.7902 53.5302 20.7426 49.3932C16.8716 47.4035 13.4072 45.0063 10.4461 42.2682C7.72657 39.7531 5.47478 36.988 3.74187 34.0397H19.9024C27.4425 40.9759 37.4121 44.7947 48 44.7947C58.588 44.7947 68.5561 40.9759 76.0962 34.0397H92.2596ZM93.2363 33.4717H75.8745C68.731 40.1181 58.8794 44.2266 48 44.2266C37.1221 44.2266 27.2691 40.1181 20.1256 33.4717H2.76524C10.1049 46.861 27.5932 56.2839 48 56.2839C68.4069 56.2839 85.8952 46.861 93.2363 33.4717Z" fill="url(#paint3_linear_1509_46536)"/>
<path d="M11.8079 38.4678C12.4576 38.4906 13.103 38.4991 13.7413 38.4934C14.027 39.5259 14.5999 40.4007 15.4187 41.0682C15.9461 41.4971 16.3399 41.5823 16.5318 41.3352C16.5361 41.3295 16.5404 41.3252 16.5446 41.3195C16.7209 41.0937 16.5944 40.777 15.794 39.8411C14.5573 38.367 13.7782 37.0264 14.7975 35.9726C14.8018 35.9683 14.806 35.9627 14.8117 35.9584C15.74 35.0026 17.2568 35.1816 18.7452 36.4185C19.8171 37.3047 20.4654 38.1895 20.8307 39.2092C20.2535 39.3668 19.6707 39.5131 19.0807 39.6494C18.7339 38.82 18.242 38.1199 17.6592 37.6356C17.2242 37.2749 16.8844 37.2437 16.7181 37.4368C16.7138 37.4425 16.7095 37.4467 16.7053 37.4524C16.502 37.6882 16.62 38.0191 17.4004 38.9308C18.7154 40.4461 19.4333 41.5666 18.6713 42.6602C18.6671 42.6659 18.6642 42.6715 18.66 42.6772C17.8397 43.8645 16.1011 43.7296 14.3156 42.2739C13.0092 41.2073 12.0993 39.8383 11.8079 38.4678Z" fill="black"/>
<path d="M20.0631 42.5238C20.8051 41.4231 21.5458 40.3211 22.2878 39.2205C22.9105 39.6408 23.5417 40.0427 24.1814 40.429C23.5019 41.5538 22.8224 42.6786 22.1428 43.8033C21.6112 44.6753 21.9012 45.428 22.7769 45.9194C23.654 46.4094 24.4259 46.2901 24.8851 45.3996C25.4992 44.218 26.1119 43.0379 26.726 41.8563C27.3828 42.1971 28.0467 42.5209 28.7162 42.8277C28.1689 44.0192 27.6216 45.2093 27.0757 46.4008C26.1389 48.4927 24.1814 48.7342 21.8884 47.4532C19.5854 46.1537 18.8021 44.3515 20.0631 42.5238Z" fill="black"/>
<path d="M29.8933 43.3474C31.0291 43.8288 32.1806 44.2634 33.3435 44.6497C34.4822 45.0261 35.1773 45.5117 35.5626 46.121C35.9009 46.6323 36.0004 47.2202 35.8284 47.8976C35.827 47.9047 35.8256 47.9104 35.8227 47.9175C35.5555 48.977 34.7281 49.5053 33.588 49.5635C34.0074 50.5448 34.4637 51.5219 34.9541 52.4933C34.0273 52.2632 33.1061 52.0062 32.1906 51.725C31.8252 50.8644 31.4869 49.9995 31.1741 49.1346C30.8443 49.021 30.5145 48.9031 30.1861 48.781C29.9374 49.4527 29.6886 50.1245 29.4398 50.7948C28.6594 50.5065 27.8832 50.1997 27.1141 49.8731C28.0424 47.6988 28.9678 45.5231 29.8933 43.3474ZM32.1678 47.8451C32.9298 48.0979 33.4458 47.9133 33.5965 47.419C33.5979 47.4119 33.6008 47.4063 33.6022 47.3992C33.7671 46.8552 33.406 46.4633 32.6967 46.2261C32.2332 46.0713 31.7726 45.9094 31.3135 45.7404C31.1159 46.273 30.9197 46.8041 30.7221 47.3367C31.2026 47.5142 31.6845 47.6832 32.1678 47.8451Z" fill="black"/>
<path d="M36.6672 45.6112C37.4433 45.8043 38.2238 45.9776 39.0085 46.1296C39.2957 47.7088 39.6425 49.288 40.0463 50.8644C40.9106 49.484 41.7195 48.0837 42.4715 46.665C43.2477 46.7544 44.0267 46.824 44.8072 46.8737C43.6144 49.1829 42.2611 51.4453 40.7499 53.6465C39.9922 53.5457 39.236 53.4292 38.4811 53.2957C37.7092 50.7409 37.105 48.1746 36.6672 45.6112Z" fill="black"/>
<path d="M48.5345 46.9604C49.3306 46.9462 50.1253 46.9121 50.9199 46.8567C51.6066 48.3082 52.3501 49.7439 53.149 51.1627C53.6238 49.6062 54.0417 48.0454 54.4 46.4804C55.1747 46.3668 55.9467 46.2333 56.7143 46.0785C56.1585 48.6178 55.4377 51.1528 54.5492 53.6679C53.7915 53.7659 53.031 53.8482 52.269 53.9136C50.8631 51.6456 49.6178 49.3222 48.5345 46.9604Z" fill="black"/>
<path d="M56.8679 51.2578C57.6654 51.113 58.4586 50.9482 59.249 50.765C59.3983 51.4069 59.549 52.0474 59.6982 52.6893C58.8766 52.8796 58.052 53.0515 57.2233 53.202C57.1053 52.553 56.9873 51.9054 56.8679 51.2578Z" fill="black"/>
<path d="M59.2149 45.5062C61.215 44.9878 63.1868 44.3317 65.1144 43.5378C65.3334 44.069 65.5523 44.5987 65.7712 45.1299C64.4634 45.6681 63.1356 46.1453 61.7936 46.5614C61.913 46.9448 62.0324 47.3283 62.1519 47.7117C63.3972 47.3254 64.6283 46.888 65.8451 46.3995C66.0484 46.9036 66.2517 47.4078 66.455 47.912C65.1983 48.4175 63.9246 48.8692 62.6366 49.2682C62.8882 50.0749 63.1384 50.8801 63.3901 51.6868C62.5982 51.9325 61.8007 52.1597 61.0004 52.367C60.4062 50.0806 59.8105 47.7927 59.2149 45.5062Z" fill="black"/>
<path d="M67.5197 46.8439C66.9895 45.6268 66.4592 44.4097 65.929 43.1927C66.6028 42.9001 67.271 42.5891 67.9334 42.2625C68.5163 43.4398 69.0991 44.6171 69.682 45.7958C70.1312 46.7133 70.9145 46.8766 71.7987 46.4051C72.6815 45.9322 73.0014 45.2136 72.4967 44.3487C71.8314 43.1955 71.1661 42.0437 70.5008 40.8906C71.1448 40.5185 71.7831 40.1294 72.4128 39.7246C73.1222 40.8267 73.833 41.9273 74.5424 43.0293C75.8047 44.9423 74.9233 46.7417 72.6119 47.9815C70.2847 49.2142 68.3869 48.8875 67.5197 46.8439Z" fill="black"/>
<path d="M73.5075 38.9947C74.0776 38.6042 74.6405 38.198 75.1963 37.7777C76.834 38.1071 78.5257 38.3443 80.2643 38.4806C79.4398 37.5419 78.6153 36.6032 77.7907 35.663C78.3537 35.1688 78.9081 34.659 79.4511 34.1321C81.0973 35.8292 82.7435 37.5263 84.3897 39.2234C83.8325 39.7616 83.2681 40.2857 82.6938 40.7955C80.823 40.7217 79.0005 40.5356 77.2349 40.2487C78.0196 41.2812 78.8043 42.3137 79.589 43.3461C78.9095 43.8631 78.2201 44.3616 77.5206 44.8416C76.1829 42.8945 74.8452 40.9446 73.5075 38.9947Z" fill="black"/>
<path d="M48.4279 25.0713L50.9939 24.6041C51.1702 24.5714 51.3493 24.6353 51.4701 24.7731L52.3771 25.8041L48.4279 25.0713Z" fill="#EAD481"/>
<path d="M47.6916 50.1203C47.7001 51.1159 47.7086 52.1114 47.7171 53.1055C47.7171 53.1765 47.666 53.2333 47.602 53.2333C47.5622 53.2333 47.5238 53.2333 47.484 53.2333C47.484 53.4038 47.4854 53.5728 47.4854 53.7432H47.4869C47.6162 53.7432 47.7228 53.8568 47.7243 53.9988C47.7257 54.1394 47.6205 54.2544 47.4897 54.2544C47.3319 54.2544 47.1727 54.2544 47.0149 54.2544C46.5401 54.2544 46.0653 54.2544 45.5905 54.2544C45.4597 54.2544 45.3573 54.1408 45.363 54.0002C45.3687 53.8596 45.4782 53.746 45.6061 53.746C45.6118 53.5756 45.6175 53.4066 45.6232 53.2362C45.5848 53.2362 45.5464 53.2362 45.508 53.2362C45.444 53.2362 45.3943 53.1794 45.3957 53.1084C45.4327 52.1142 45.4696 51.1201 45.508 50.1246C45.5123 50.0152 45.5308 49.9059 45.5649 49.8022C45.6303 49.5991 45.6942 49.3975 45.7568 49.1944C45.7682 48.855 45.7795 48.5141 45.7909 48.1747C45.7909 48.1747 45.7909 48.1747 45.7923 48.1747C45.7923 48.1747 45.7923 48.1747 45.7923 48.1733C45.8307 47.0102 46.0738 46.3711 46.496 45.3273C46.5259 45.2534 46.5756 45.208 46.6282 45.1923C46.7121 45.1668 46.8045 45.2108 46.8471 45.3258C47.2381 46.3668 47.4641 47.0045 47.4684 48.169C47.4698 48.5084 47.4712 48.8493 47.4726 49.1887C47.5295 49.3918 47.5878 49.5934 47.6475 49.7965C47.6745 49.9016 47.6916 50.011 47.6916 50.1203Z" fill="black"/>
</g>
</g>
<defs>
<filter id="filter0_d_1509_46536" x="-26.8785" y="9.84577" width="149.76" height="78.0666" filterUnits="userSpaceOnUse" color-interpolation-filters="sRGB">
<feFlood flood-opacity="0" result="BackgroundImageFix"/>
<feColorMatrix in="SourceAlpha" type="matrix" values="0 0 0 0 0 0 0 0 0 0 0 0 0 0 0 0 0 0 127 0" result="hardAlpha"/>
<feOffset dy="0.48"/>
<feGaussianBlur stdDeviation="0.96"/>
<feComposite in2="hardAlpha" operator="out"/>
<feColorMatrix type="matrix" values="0 0 0 0 0 0 0 0 0 0 0 0 0 0 0 0 0 0 0.4 0"/>
<feBlend mode="normal" in2="BackgroundImageFix" result="effect1_dropShadow_1509_46536"/>
<feBlend mode="normal" in="SourceGraphic" in2="effect1_dropShadow_1509_46536" result="shape"/>
</filter>
<linearGradient id="paint0_linear_1509_46536" x1="48" y1="0" x2="48" y2="96" gradientUnits="userSpaceOnUse">
<stop stop-color="#EAD481"/>
<stop offset="1" stop-color="#FFD23A"/>
</linearGradient>
<radialGradient id="paint1_radial_1509_46536" cx="0" cy="0" r="1" gradientUnits="userSpaceOnUse" gradientTransform="translate(47.1709 35.9214) rotate(89.0405) scale(49.5979 134.692)">
<stop/>
<stop offset="0.910049" stop-color="#1A1A1A"/>
</radialGradient>
<linearGradient id="paint2_linear_1509_46536" x1="36.4326" y1="62.9408" x2="59.5689" y2="62.9408" gradientUnits="userSpaceOnUse">
<stop stop-color="#C89A00"/>
<stop offset="1" stop-color="#FFF2C4"/>
</linearGradient>
<linearGradient id="paint3_linear_1509_46536" x1="2.76524" y1="44.8778" x2="93.2363" y2="44.8778" gradientUnits="userSpaceOnUse">
<stop stop-color="#C89A00"/>
<stop offset="1" stop-color="#FFF2C4"/>
</linearGradient>
<clipPath id="clip0_1509_46536">
<rect width="96" height="96" rx="48" fill="white"/>
</clipPath>
</defs>
</svg>
