<svg width="121" height="120" viewBox="0 0 121 120" fill="none" xmlns="http://www.w3.org/2000/svg">
<g clip-path="url(#clip0_1923_2281)">
<rect x="0.599976" width="120" height="120" rx="12" fill="url(#paint0_linear_1923_2281)"/>
<rect x="0.599548" y="-0.000137329" width="120" height="120" fill="url(#paint1_radial_1923_2281)" fill-opacity="0.25"/>
<g opacity="0.25">
<path d="M74.9128 51.4929C75.0297 51.479 75.1482 51.505 75.2488 51.5662C75.6129 51.7873 75.9844 51.997 76.362 52.1961C76.4254 52.2287 76.4817 52.2739 76.5271 52.3289C76.5725 52.3839 76.6057 52.4479 76.6257 52.5164C76.6457 52.5848 76.6519 52.6566 76.6433 52.7273C76.6347 52.7981 76.6118 52.8668 76.5759 52.9285C71.9474 60.7388 63.2874 72.6177 52.2068 75.3621C49.4202 76.052 42.8381 75.436 44.6101 67.7302C46.4993 59.5143 52.863 54.1763 55.8923 52.0408C55.9766 51.9818 56.0787 51.9528 56.1814 51.9588L56.2566 51.9695C56.3312 51.9865 56.4009 52.0226 56.4587 52.074C56.5356 52.1423 56.5872 52.2345 56.6052 52.3357C56.6232 52.4371 56.6061 52.5419 56.5574 52.6326C55.435 54.7067 53.6984 58.451 53.4245 62.1785C53.266 64.3383 55.2074 66.6172 57.5124 65.6521C62.2798 63.6556 66.5836 59.6895 74.6042 51.6433C74.6876 51.5602 74.796 51.5069 74.9128 51.4929Z" fill="url(#paint2_radial_1923_2281)"/>
<path d="M75.9704 17.5359C79.9444 14.9895 84.7267 14.0203 89.3787 14.8181C94.0305 15.616 98.2167 18.1233 101.115 21.8484C104.013 25.5735 105.415 30.2476 105.045 34.9529C104.721 39.0624 103.066 42.9363 100.357 46.0007C106.36 49.168 112.066 51.759 115.434 52.9148C115.869 53.064 116.339 53.0766 116.781 52.9519C117.223 52.8272 117.617 52.5708 117.91 52.2166C118.202 51.8623 118.38 51.4272 118.419 50.9695C118.458 50.5117 118.355 50.0526 118.127 49.6541C116.601 47.0692 114.896 44.5946 113.023 42.2488C112.956 42.1635 112.921 42.0565 112.926 41.948C112.93 41.8396 112.972 41.736 113.046 41.656C113.119 41.5761 113.218 41.5251 113.326 41.5115C113.434 41.498 113.544 41.5233 113.635 41.5828C119.312 45.3423 124.302 50.0493 128.386 55.4978C130.95 58.916 127.58 63.6457 123.525 62.2976C105.817 56.4088 94.7984 45.7171 90.9548 41.49C90.8968 41.426 90.8642 41.343 90.862 41.2566C90.8599 41.17 90.8891 41.0852 90.9441 41.0183C90.999 40.9517 91.0758 40.907 91.1609 40.8923C91.2462 40.8777 91.3348 40.8945 91.4089 40.9392C92.4394 41.5679 93.4936 42.1903 94.5583 42.8045C96.2446 41.2901 97.4948 39.3429 98.1658 37.1658C98.9293 34.6879 98.9058 32.0343 98.0994 29.5701C97.2929 27.1057 95.7427 24.9512 93.6619 23.4041C91.581 21.857 89.0714 20.993 86.4792 20.9304C84.1058 20.8696 81.7643 21.4868 79.7292 22.7097C79.4707 22.8658 79.1628 22.9187 78.8669 22.8582C78.571 22.7975 78.3079 22.6278 78.1316 22.3826C77.3842 21.3399 76.5257 20.1015 75.696 18.8103C75.5637 18.6049 75.5187 18.3548 75.5701 18.116C75.6215 17.8773 75.7654 17.6686 75.9704 17.5359Z" fill="url(#paint3_radial_1923_2281)"/>
<path d="M54.4304 3.85133C53.2572 1.22466 56.196 -1.34264 58.6374 0.17848C62.2816 2.44966 66.7379 5.79394 70.3464 10.2351C70.4155 10.3204 70.4512 10.4281 70.448 10.5379C70.4447 10.6475 70.4028 10.7527 70.3288 10.8338C70.2549 10.9148 70.1536 10.966 70.0447 10.9793C69.936 10.9924 69.8262 10.9667 69.7351 10.906C68.6 10.1472 67.4336 9.43515 66.24 8.77223C66.0035 8.64008 65.7294 8.58976 65.4617 8.63063C65.1938 8.6716 64.9467 8.80095 64.7605 8.99782C64.5743 9.1947 64.4593 9.44877 64.4333 9.71852C64.4075 9.98803 64.4719 10.2584 64.6169 10.4871C70.0899 19.049 76.4777 26.9908 83.6677 34.1716C83.7486 34.2506 83.7982 34.3568 83.8064 34.4695C83.8145 34.5823 83.7805 34.6942 83.7117 34.7839C83.6428 34.8737 83.5434 34.9354 83.4324 34.9568C83.3214 34.9781 83.2063 34.9578 83.1091 34.9002C80.9764 33.6299 77.9099 31.64 74.487 28.9148C73.976 30.224 73.6867 31.6157 73.6365 33.032C73.5566 35.2831 74.0839 37.5142 75.1638 39.491C76.2438 41.4678 77.8367 43.1174 79.7742 44.2664C81.7114 45.4152 83.9223 46.0216 86.1745 46.0213C86.2497 46.0213 86.3243 46.0154 86.3992 46.0154L87.6433 46.9597C89.0879 48.0485 91.091 49.5288 93.2468 51.033C89.371 52.5942 85.0873 52.8294 81.0642 51.7009C77.0409 50.5723 73.504 48.1431 71.0056 44.7937C68.5074 41.4444 67.1878 37.3623 67.2527 33.1843C67.2997 30.1617 68.0691 27.2117 69.4763 24.573C63.9822 19.3921 58.2966 12.5064 54.4304 3.85133Z" fill="url(#paint4_radial_1923_2281)"/>
<path d="M61.3376 44.1961C62.2101 43.024 63.7269 42.677 64.7263 43.4207C65.7256 44.1645 65.829 45.7172 64.9568 46.8894C64.0843 48.0616 62.5666 48.4096 61.5671 47.6658C60.5677 46.9219 60.4652 45.3683 61.3376 44.1961Z" fill="url(#paint5_radial_1923_2281)"/>
<path d="M45.2038 9.93825C45.5301 9.84363 45.8785 9.8577 46.196 9.97828C46.5134 10.0989 46.7834 10.319 46.9646 10.6062C50.0528 15.5015 55.5009 23.13 62.7253 29.28C63.0085 29.5211 63.194 29.8574 63.2478 30.2254C63.3015 30.5932 63.2196 30.9681 63.0173 31.28C62.806 31.6066 62.4787 31.841 62.1013 31.9353C61.7238 32.0296 61.3243 31.9768 60.9841 31.7879C58.3268 30.3173 51.963 26.1513 45.8845 17.3298C44.6989 15.5969 44.0676 13.5447 44.074 11.4451C44.0733 11.1054 44.1837 10.7745 44.3874 10.5027C44.5912 10.2309 44.8776 10.0329 45.2038 9.93825Z" fill="url(#paint6_radial_1923_2281)"/>
<path d="M118.906 -7.46117C121.718 -8.04029 126.067 -6.65066 123.912 0.95387C122.131 7.23349 115.229 14.1947 111.749 17.3992C111.665 17.4761 111.557 17.521 111.444 17.5261C111.331 17.5312 111.219 17.4958 111.129 17.4265C111.039 17.3572 110.976 17.2582 110.952 17.1472C110.928 17.0364 110.945 16.9203 110.998 16.8201C112.67 13.6334 114.4 9.87196 115.342 5.5359C115.801 3.42102 114.841 1.49233 112.486 2.32985C107.422 4.13132 101.925 7.91859 94.03 13.8504C93.0484 13.4571 92.0383 13.1379 91.0085 12.8972C97.6847 5.23491 108.492 -5.31415 118.906 -7.46117Z" fill="url(#paint7_radial_1923_2281)"/>
<path d="M63.3425 -2.03832C61.8349 -3.16774 63.0911 -5.51162 64.8796 -4.92015C71.5395 -2.71737 75.3942 5.75522 76.905 9.8484C76.9418 9.94855 76.9426 10.0584 76.907 10.1589C76.8712 10.2598 76.8007 10.3455 76.7087 10.4002C76.6168 10.4546 76.5086 10.4756 76.4031 10.4588C76.2974 10.4419 76.2011 10.3879 76.1306 10.3074C73.6297 7.44676 68.416 1.76075 63.3425 -2.03832Z" fill="url(#paint8_radial_1923_2281)"/>
</g>
</g>
<rect x="1.59998" y="1" width="118" height="118" rx="11" stroke="url(#paint9_linear_1923_2281)" stroke-width="2"/>
<defs>
<linearGradient id="paint0_linear_1923_2281" x1="60.6" y1="0" x2="60.6" y2="120" gradientUnits="userSpaceOnUse">
<stop stop-color="#1A1A1A"/>
<stop offset="1"/>
</linearGradient>
<radialGradient id="paint1_radial_1923_2281" cx="0" cy="0" r="1" gradientUnits="userSpaceOnUse" gradientTransform="translate(121 2.13384e-06) rotate(135) scale(169.706)">
<stop stop-color="#979797"/>
<stop offset="0.8" stop-color="#979797" stop-opacity="0"/>
</radialGradient>
<radialGradient id="paint2_radial_1923_2281" cx="0" cy="0" r="1" gradientUnits="userSpaceOnUse" gradientTransform="translate(129.6 -8.00002) rotate(135.674) scale(120.216 108.104)">
<stop stop-color="#C3BFBF"/>
<stop offset="1" stop-color="#979797" stop-opacity="0"/>
</radialGradient>
<radialGradient id="paint3_radial_1923_2281" cx="0" cy="0" r="1" gradientUnits="userSpaceOnUse" gradientTransform="translate(129.6 -8.00002) rotate(135.674) scale(120.216 108.104)">
<stop stop-color="#C3BFBF"/>
<stop offset="1" stop-color="#979797" stop-opacity="0"/>
</radialGradient>
<radialGradient id="paint4_radial_1923_2281" cx="0" cy="0" r="1" gradientUnits="userSpaceOnUse" gradientTransform="translate(129.6 -8.00002) rotate(135.674) scale(120.216 108.104)">
<stop stop-color="#C3BFBF"/>
<stop offset="1" stop-color="#979797" stop-opacity="0"/>
</radialGradient>
<radialGradient id="paint5_radial_1923_2281" cx="0" cy="0" r="1" gradientUnits="userSpaceOnUse" gradientTransform="translate(129.6 -8.00002) rotate(135.674) scale(120.216 108.104)">
<stop stop-color="#C3BFBF"/>
<stop offset="1" stop-color="#979797" stop-opacity="0"/>
</radialGradient>
<radialGradient id="paint6_radial_1923_2281" cx="0" cy="0" r="1" gradientUnits="userSpaceOnUse" gradientTransform="translate(129.6 -8.00002) rotate(135.674) scale(120.216 108.104)">
<stop stop-color="#C3BFBF"/>
<stop offset="1" stop-color="#979797" stop-opacity="0"/>
</radialGradient>
<radialGradient id="paint7_radial_1923_2281" cx="0" cy="0" r="1" gradientUnits="userSpaceOnUse" gradientTransform="translate(129.6 -8.00002) rotate(135.674) scale(120.216 108.104)">
<stop stop-color="#C3BFBF"/>
<stop offset="1" stop-color="#979797" stop-opacity="0"/>
</radialGradient>
<radialGradient id="paint8_radial_1923_2281" cx="0" cy="0" r="1" gradientUnits="userSpaceOnUse" gradientTransform="translate(129.6 -8.00002) rotate(135.674) scale(120.216 108.104)">
<stop stop-color="#C3BFBF"/>
<stop offset="1" stop-color="#979797" stop-opacity="0"/>
</radialGradient>
<linearGradient id="paint9_linear_1923_2281" x1="121" y1="0" x2="1" y2="120" gradientUnits="userSpaceOnUse">
<stop stop-color="#979797"/>
<stop offset="1" stop-color="#979797" stop-opacity="0"/>
</linearGradient>
<clipPath id="clip0_1923_2281">
<rect x="0.599976" width="120" height="120" rx="12" fill="white"/>
</clipPath>
</defs>
</svg>
