<svg width="25" height="24" viewBox="0 0 25 24" fill="none" xmlns="http://www.w3.org/2000/svg">
<path d="M12.4 12.0004C13.673 12.0004 14.8939 11.4947 15.7941 10.5945C16.6943 9.69433 17.2 8.47343 17.2 7.20039C17.2 5.92735 16.6943 4.70645 15.7941 3.80628C14.8939 2.9061 13.673 2.40039 12.4 2.40039C11.127 2.40039 9.90606 2.9061 9.00589 3.80628C8.10571 4.70645 7.6 5.92735 7.6 7.20039C7.6 8.47343 8.10571 9.69433 9.00589 10.5945C9.90606 11.4947 11.127 12.0004 12.4 12.0004ZM10.6863 13.8004C6.9925 13.8004 4 16.7929 4 20.4866C4 21.1016 4.49875 21.6004 5.11375 21.6004H19.6863C20.3013 21.6004 20.8 21.1016 20.8 20.4866C20.8 16.7929 17.8075 13.8004 14.1138 13.8004H10.6863Z" fill="#3AC4FF"/>
</svg>
