<svg width="46" height="46" viewBox="0 0 46 46" fill="none" xmlns="http://www.w3.org/2000/svg">
<mask id="path-1-inside-1_515_328" fill="white">
<path d="M0.735107 10.1429C0.735107 4.81726 5.05236 0.5 10.378 0.5H36.0922C41.4179 0.5 45.7351 4.81725 45.7351 10.1429V35.8571C45.7351 41.1827 41.4179 45.5 36.0923 45.5H10.378C5.05236 45.5 0.735107 41.1827 0.735107 35.8571V10.1429Z"/>
</mask>
<path d="M0.735107 10.1429C0.735107 4.81726 5.05236 0.5 10.378 0.5H36.0922C41.4179 0.5 45.7351 4.81725 45.7351 10.1429V35.8571C45.7351 41.1827 41.4179 45.5 36.0923 45.5H10.378C5.05236 45.5 0.735107 41.1827 0.735107 35.8571V10.1429Z" fill="#6666FF"/>
<path d="M0.735107 0.5H45.7351H0.735107ZM45.7351 35.8571C45.7351 42.9579 39.9788 48.7143 32.878 48.7143H13.5922C6.49145 48.7143 0.735107 42.9579 0.735107 35.8571V35.8571C0.735107 39.4075 5.05236 42.2857 10.378 42.2857H36.0923C41.4179 42.2857 45.7351 39.4075 45.7351 35.8571V35.8571ZM0.735107 45.5V0.5V45.5ZM45.7351 0.5V45.5V0.5Z" fill="#4444B5" mask="url(#path-1-inside-1_515_328)"/>
<g clip-path="url(#clip0_515_328)">
<path d="M33.8171 13.2919C31.8374 12.3832 29.7481 11.7352 27.6017 11.3641C27.5822 11.3605 27.562 11.3631 27.5441 11.3716C27.5262 11.38 27.5113 11.394 27.5018 11.4113C27.2333 11.8888 26.936 12.5115 26.7278 13.001C24.3808 12.6496 22.0458 12.6496 19.7469 13.001C19.5386 12.5007 19.2305 11.8888 18.9609 11.4113C18.9509 11.3943 18.9361 11.3807 18.9182 11.3723C18.9004 11.3639 18.8805 11.361 18.861 11.3641C16.6801 11.7397 14.593 12.3977 12.6456 13.2919C12.6286 13.2991 12.6143 13.3114 12.6046 13.327C8.64597 19.2412 7.56148 25.0101 8.09347 30.7074C8.09585 30.7353 8.11154 30.7619 8.13319 30.7789C10.745 32.697 13.2751 33.8614 15.7581 34.6333C15.7774 34.639 15.798 34.6388 15.8171 34.6325C15.8363 34.6262 15.853 34.6142 15.8652 34.5981C16.4525 33.796 16.9761 32.9503 17.425 32.0609C17.4515 32.0088 17.4262 31.947 17.372 31.9264C16.5415 31.6114 15.7508 31.2272 14.9901 30.7911C14.9299 30.756 14.9251 30.6699 14.9805 30.6287C15.141 30.5087 15.2987 30.3851 15.4535 30.2579C15.4671 30.2467 15.4835 30.2395 15.501 30.2372C15.5184 30.2348 15.5362 30.2374 15.5522 30.2445C20.5496 32.5262 25.9598 32.5262 30.8982 30.2445C30.9143 30.2369 30.9322 30.234 30.9499 30.2361C30.9676 30.2383 30.9843 30.2454 30.9981 30.2566C31.1531 30.3845 31.3112 30.5086 31.4724 30.6286C31.5277 30.6698 31.5241 30.7559 31.464 30.791C30.7033 31.2357 29.9125 31.6113 29.0808 31.9251C29.068 31.93 29.0564 31.9376 29.0467 31.9473C29.037 31.957 29.0295 31.9686 29.0246 31.9814C29.0197 31.9942 29.0176 32.0079 29.0184 32.0216C29.0192 32.0353 29.0228 32.0486 29.0291 32.0608C29.4877 32.949 30.0113 33.7947 30.5877 34.5969C30.6118 34.6308 30.6551 34.6454 30.6948 34.6332C33.1899 33.8614 35.7199 32.6969 38.3318 30.7789C38.343 30.7706 38.3524 30.7601 38.3592 30.748C38.3661 30.7359 38.3702 30.7225 38.3715 30.7086C39.0082 24.1219 37.3051 18.4003 33.8567 13.3282C33.8483 13.3118 33.8342 13.2989 33.8171 13.2919ZM18.1714 27.2383C16.6668 27.2383 15.4271 25.8571 15.4271 24.1607C15.4271 22.4643 16.6428 21.083 18.1714 21.083C19.7119 21.083 20.9397 22.4764 20.9156 24.1607C20.9156 25.8571 19.6999 27.2383 18.1714 27.2383ZM28.3178 27.2383C26.8133 27.2383 25.5736 25.8571 25.5736 24.1607C25.5736 22.4643 26.7892 21.083 28.3178 21.083C29.8584 21.083 31.0861 22.4764 31.0621 24.1607C31.0621 25.8571 29.8585 27.2383 28.3178 27.2383Z" fill="white"/>
</g>
<defs>
<clipPath id="clip0_515_328">
<rect width="30.5357" height="30.5357" fill="white" transform="translate(7.96729 7.73214)"/>
</clipPath>
</defs>
</svg>
