<svg width="46" height="46" viewBox="0 0 46 46" fill="none" xmlns="http://www.w3.org/2000/svg">
<mask id="path-1-inside-1_515_324" fill="white">
<path d="M0.467285 10.1429C0.467285 4.81726 4.78454 0.5 10.1101 0.5H35.8244C41.15 0.5 45.4673 4.81725 45.4673 10.1429V35.8571C45.4673 41.1827 41.15 45.5 35.8244 45.5H10.1101C4.78454 45.5 0.467285 41.1827 0.467285 35.8571V10.1429Z"/>
</mask>
<path d="M0.467285 10.1429C0.467285 4.81726 4.78454 0.5 10.1101 0.5H35.8244C41.15 0.5 45.4673 4.81725 45.4673 10.1429V35.8571C45.4673 41.1827 41.15 45.5 35.8244 45.5H10.1101C4.78454 45.5 0.467285 41.1827 0.467285 35.8571V10.1429Z" fill="#008AFF"/>
<path d="M0.467285 0.5H45.4673H0.467285ZM45.4673 35.8571C45.4673 42.9579 39.7109 48.7143 32.6101 48.7143H13.3244C6.22362 48.7143 0.467285 42.9579 0.467285 35.8571V35.8571C0.467285 39.4075 4.78454 42.2857 10.1101 42.2857H35.8244C41.15 42.2857 45.4673 39.4075 45.4673 35.8571V35.8571ZM0.467285 45.5V0.5V45.5ZM45.4673 0.5V45.5V0.5Z" fill="#005CAA" mask="url(#path-1-inside-1_515_324)"/>
<path d="M11.832 21.6983C19.6957 18.2389 29.8714 14.0213 31.2765 13.4374C34.9609 11.9097 36.0915 12.2022 35.5279 15.5862C35.1229 18.0184 33.9551 26.07 33.0236 31.0819C32.4712 34.0542 31.2315 34.4063 29.283 33.1204C28.3459 32.5017 23.6152 29.373 22.5881 28.6384C21.651 27.969 20.3584 27.1635 21.9795 25.5773C22.5566 25.0125 26.3377 21.4013 29.2841 18.591C29.67 18.222 29.1851 17.6157 28.7396 17.9115C24.7684 20.5452 19.2626 24.2003 18.5617 24.6762C17.5031 25.395 16.4861 25.7247 14.6613 25.2004C13.2821 24.8044 11.9355 24.3319 11.4112 24.1519C9.39185 23.4589 9.8711 22.5612 11.832 21.6983Z" fill="white"/>
</svg>
