<svg width="45" height="45" viewBox="0 0 45 45" fill="none" xmlns="http://www.w3.org/2000/svg">
<mask id="path-1-inside-1_515_320" fill="white">
<path d="M0 9.64286C0 4.31726 4.31725 0 9.64286 0H35.3571C40.6827 0 45 4.31725 45 9.64286V35.3571C45 40.6827 40.6827 45 35.3571 45H9.64286C4.31726 45 0 40.6827 0 35.3571V9.64286Z"/>
</mask>
<path d="M0 9.64286C0 4.31726 4.31725 0 9.64286 0H35.3571C40.6827 0 45 4.31725 45 9.64286V35.3571C45 40.6827 40.6827 45 35.3571 45H9.64286C4.31726 45 0 40.6827 0 35.3571V9.64286Z" fill="#1E1E1E"/>
<path d="M0 0H45H0ZM45 35.3571C45 42.4579 39.2437 48.2143 32.1429 48.2143H12.8571C5.75634 48.2143 0 42.4579 0 35.3571C0 38.9075 4.31725 41.7857 9.64286 41.7857H35.3571C40.6827 41.7857 45 38.9075 45 35.3571ZM0 45V0V45ZM45 0V45V0Z" fill="#111111" mask="url(#path-1-inside-1_515_320)"/>
<path d="M25.0614 19.8506L34.0358 9.64285H31.9092L24.1166 18.5061L17.8928 9.64285H10.7144L20.126 23.0456L10.7144 33.75H12.8411L21.0702 24.3901L27.643 33.75H34.8215L25.0608 19.8506H25.0614ZM13.6074 11.2094H16.874L31.9101 32.2547H28.6435L13.6074 11.2094Z" fill="white"/>
</svg>
