<svg width="46" height="46" viewBox="0 0 46 46" fill="none" xmlns="http://www.w3.org/2000/svg">
<mask id="path-1-inside-1_515_320" fill="white">
<path d="M0.931519 10.1429C0.931519 4.81726 5.24877 0.5 10.5744 0.5H36.2887C41.6143 0.5 45.9315 4.81725 45.9315 10.1429V35.8571C45.9315 41.1827 41.6143 45.5 36.2887 45.5H10.5744C5.24877 45.5 0.931519 41.1827 0.931519 35.8571V10.1429Z"/>
</mask>
<path d="M0.931519 10.1429C0.931519 4.81726 5.24877 0.5 10.5744 0.5H36.2887C41.6143 0.5 45.9315 4.81725 45.9315 10.1429V35.8571C45.9315 41.1827 41.6143 45.5 36.2887 45.5H10.5744C5.24877 45.5 0.931519 41.1827 0.931519 35.8571V10.1429Z" fill="#3D3E48"/>
<path d="M0.931519 0.5H45.9315H0.931519ZM45.9315 35.8571C45.9315 42.9579 40.1752 48.7143 33.0744 48.7143H13.7887C6.68786 48.7143 0.931519 42.9579 0.931519 35.8571V35.8571C0.931519 39.4075 5.24877 42.2857 10.5744 42.2857H36.2887C41.6143 42.2857 45.9315 39.4075 45.9315 35.8571V35.8571ZM0.931519 45.5V0.5V45.5ZM45.9315 0.5V45.5V0.5Z" fill="#2D2E37" mask="url(#path-1-inside-1_515_320)"/>
<path d="M25.9929 20.3506L34.9673 10.1429H32.8407L25.0482 19.0061L18.8243 10.1429H11.6459L21.0575 23.5456L11.6459 34.25H13.7726L22.0017 24.8901L28.5746 34.25H35.753L25.9923 20.3506H25.9929ZM14.5389 11.7095H17.8055L32.8416 32.7547H29.575L14.5389 11.7095Z" fill="white"/>
</svg>
