<svg width="188" height="188" viewBox="0 0 188 188" fill="none" xmlns="http://www.w3.org/2000/svg">
<mask id="mask0_2984_114" style="mask-type:luminance" maskUnits="userSpaceOnUse" x="0" y="0" width="188" height="188">
<path d="M187.64 0H0V187.447H187.64V0Z" fill="white"/>
</mask>
<g mask="url(#mask0_2984_114)">
<path d="M94.2239 94.021C79.4867 120.488 65.3259 149.478 59.613 168.991C80.6107 189.45 114.73 187.836 123.987 170.731C116.213 140.241 102.516 109.947 94.2239 94.021Z" fill="#798C60" stroke="#48472E" stroke-width="5" stroke-linejoin="round"/>
<path d="M94.1559 94.1449C64.9772 102.465 34.8383 113.661 16.9695 123.429C17.3157 152.71 42.1643 174.954 60.8324 169.388C76.9452 142.342 88.7311 111.257 94.1559 94.1449Z" fill="#798C60" stroke="#48472E" stroke-width="5" stroke-linejoin="round"/>
<path d="M93.5252 93.6613C66.9976 78.96 38.1627 65.0473 18.6052 59.349C-1.90287 80.2996 -0.508428 114.127 16.6353 123.361C47.1969 115.602 77.5617 101.935 93.5252 93.6613Z" fill="#798C60" stroke="#48472E" stroke-width="5" stroke-linejoin="round"/>
<path d="M94.2695 93.8287C85.9325 64.7181 75.365 34.6387 65.5754 16.8119C36.2265 17.1596 13.2775 41.9632 18.8543 60.5877C45.9622 76.6612 77.1186 88.4176 94.2695 93.8287Z" fill="#798C60" stroke="#48472E" stroke-width="5" stroke-linejoin="round"/>
<path d="M93.6786 93.8682C108.416 67.4009 122.779 37.5402 128.492 18.0275C107.495 -2.43143 73.1723 0.0535116 63.9153 17.1583C71.6901 47.6486 85.387 77.9421 93.6786 93.8682Z" fill="#798C60" stroke="#48472E" stroke-width="5" stroke-linejoin="round"/>
<path d="M93.7029 93.0896C122.882 84.7697 153.47 74.4341 171.338 64.6658C170.992 35.3847 145.695 12.2811 127.026 17.8464C110.914 44.8928 99.1278 75.9778 93.7029 93.0896Z" fill="#798C60" stroke="#48472E" stroke-width="5" stroke-linejoin="round"/>
<path d="M94.3298 93.3565C120.857 108.058 149.254 121.761 168.812 127.459C189.32 106.509 188.364 72.8907 171.22 63.6565C140.658 71.4155 110.293 85.0829 94.3298 93.3565Z" fill="#798C60" stroke="#48472E" stroke-width="5" stroke-linejoin="round"/>
<path d="M94.02 93.1815C102.357 122.292 114.243 153.217 124.033 171.044C153.382 170.696 175.012 145.047 169.435 126.423C142.327 110.349 111.171 98.5926 94.02 93.1815Z" fill="#798C60" stroke="#48472E" stroke-width="5" stroke-linejoin="round"/>
<path d="M94.3994 62.6964C97.1533 62.6509 99.8074 63.7238 101.753 65.673L101.755 65.6749C103.67 67.5974 104.781 70.2864 105.338 72.8556C105.671 74.3923 105.827 75.9884 105.811 77.5157C107.793 75.8404 110.139 74.5289 112.772 73.882C115.424 73.2304 119.041 73.3107 121.774 75.0538L122.003 75.2042C124.181 76.6924 125.497 79.0544 126.1 81.2833L126.215 81.7423V81.7452C126.79 84.2674 126.433 86.4739 125.69 88.6173L125.689 88.6212C125.654 88.724 125.407 89.6284 124.947 90.3292L124.946 90.3312C122.998 93.2988 120.165 95.2802 117.12 96.5197C117.869 96.8999 118.578 97.3583 119.233 97.8888L119.467 98.0822L119.473 98.087C122.699 100.853 123.095 104.872 123.284 107.737C123.493 110.887 122.545 114.201 120.438 116.718L120.231 116.959C117.743 119.771 114.08 121.316 110.533 121.53C104.138 121.916 99.0431 118.466 96.0771 113.486C95.7395 114.332 95.3379 115.177 94.8379 116.011L94.8369 116.01C92.6484 119.706 89.0537 122.358 84.873 123.354L84.8721 123.353C81.451 124.171 77.7821 123.747 74.665 121.788C71.652 119.894 69.8697 116.484 69.2148 113.472C68.3939 109.696 69.3139 106.535 71.2598 104.018C72.0258 103.027 72.9367 102.155 73.9268 101.382C70.6225 100.617 67.5441 98.6132 65.5088 96.0568C63.3226 93.3111 61.8054 89.4748 62.2617 85.6251C62.5908 82.8487 63.8965 79.7765 66.4375 77.8322L66.7637 77.5939C68.4098 76.4495 70.2789 75.9697 71.8701 75.7257C74.0932 75.385 76.0691 75.6314 78.0811 76.2579C79.3849 76.6538 80.6324 77.2066 81.8008 77.9005C81.3372 74.3733 82.0657 70.6064 84.3574 67.5773C86.6677 64.5236 90.0041 63.1814 93.2949 62.7452L93.3887 62.7325L93.4844 62.7267C93.7888 62.7097 94.0937 62.6989 94.3994 62.6945V62.6964Z" fill="#C86241" stroke="#48472E" stroke-width="5"/>
<path d="M93.3129 83.0601C99.878 82.123 105.93 86.9075 106.829 93.7467C107.729 100.586 103.136 106.889 96.5695 107.825C90.0046 108.764 83.9535 103.978 83.0541 97.1393C82.1548 90.3005 86.7477 83.9971 93.3129 83.0601Z" fill="#8A4D33"/>
<path d="M93.9645 85.9998C98.9022 85.4308 103.343 89.1918 103.887 94.4033C104.43 99.6152 100.872 104.306 95.9348 104.884C90.9918 105.463 86.5408 101.7 85.9965 96.4823C85.4523 91.2643 89.021 86.5695 93.9645 85.9998Z" fill="#EAC970"/>
<path d="M94.6004 91.9764C95.1744 91.9149 95.7649 91.9543 96.3417 91.9671C97.25 92.4428 97.9879 93.0636 98.4889 93.9529C98.9404 94.7541 99.0863 95.7034 98.7794 96.5772C98.3444 97.8178 97.3946 98.3927 96.2425 98.9213C95.9549 98.9398 95.6672 98.9464 95.3795 98.9411C94.4558 98.9199 93.4904 98.5441 92.8685 97.8705C91.9277 96.8522 91.8959 95.7545 91.9642 94.4755C92.6477 93.2437 93.3241 92.6028 94.6004 91.9764Z" fill="#8A4D33"/>
<path d="M130.713 4.64983C132.404 3.07879 135.072 4.69712 134.508 6.90524C133.959 9.05717 133.674 10.4577 133.227 11.7705C132.752 13.1666 132.088 14.5137 130.796 16.8208C130.355 17.6094 129.884 18.388 129.434 19.1312C129.599 19.1127 129.767 19.0952 129.938 19.0759C130.817 18.9761 131.762 18.869 132.707 18.7849C134.562 18.6199 136.585 18.5252 138.316 18.791L138.976 18.892L139.443 19.3692L139.59 19.5204L140.565 20.5165L139.967 21.7754C139.71 22.3185 139.315 22.6878 139.027 22.9137C138.722 23.1527 138.398 23.3382 138.12 23.4785C137.569 23.7572 136.993 23.9605 136.691 24.0668C134.355 24.8887 131.696 25.346 129.608 25.8444C128.23 26.1734 126.293 26.7797 124.556 27.0298C123.894 27.1251 123.243 27.127 122.525 26.9789L122.344 26.9413L122.173 26.8723C120.76 26.2958 119.908 25.4738 119.115 24.6188L118.994 24.4892L118.898 24.3405C118.567 23.8255 116.941 21.6156 115.273 19.2826C114.463 18.1505 113.662 17.0131 113.056 16.1073C112.754 15.6573 112.485 15.2408 112.283 14.9C112.184 14.7323 112.084 14.5535 112.002 14.3828C111.965 14.3064 111.77 13.9252 111.73 13.4673C111.712 13.2627 111.67 12.7577 111.897 12.2074C112.09 11.7415 112.433 11.3994 112.451 11.3799L112.937 10.8416L113.655 10.7413C114.803 10.5799 115.791 11.16 116.31 11.5067C116.932 11.9224 117.54 12.4686 118.06 12.9693C118.582 13.4731 119.108 14.023 119.512 14.4353C119.976 14.9076 120.228 15.1416 120.338 15.2203L120.339 15.2219C120.375 15.2483 120.385 15.2533 120.465 15.3097L120.696 15.4706L120.872 15.6887C121.386 16.3222 121.791 16.7228 122.365 17.3624C122.821 16.4032 123.262 15.4003 123.744 14.3457C124.981 11.6378 125.776 10.0327 126.779 8.67996C127.776 7.3356 128.952 6.28641 130.713 4.64983Z" fill="#EAC970" stroke="#48472E" stroke-width="4"/>
<path d="M56.3426 5.29414C56.2165 2.98968 59.1673 1.97384 60.5039 3.81967C61.8066 5.61852 62.701 6.73321 63.4242 7.91645C64.1933 9.17489 64.8042 10.5466 65.7511 13.0155C66.0748 13.8593 66.372 14.7194 66.6559 15.5402C66.7471 15.4016 66.841 15.2614 66.9352 15.1182C67.4213 14.378 67.9432 13.5833 68.4828 12.8035C69.5428 11.2718 70.7643 9.65601 72.0758 8.4957L72.5756 8.05291L73.2407 7.99972L73.4512 7.98322L74.8404 7.87093L75.4258 9.13567C75.6785 9.68099 75.71 10.2205 75.6994 10.5864C75.6882 10.9735 75.6231 11.3417 75.5535 11.6445C75.4153 12.2463 75.2031 12.8193 75.0916 13.1194C74.2291 15.4406 72.8791 17.7776 71.9266 19.7014C71.2982 20.971 70.5253 22.8474 69.6066 24.3425C69.2562 24.9125 68.8411 25.4142 68.2681 25.8713L68.1236 25.9861L67.9612 26.0733C66.614 26.791 65.4375 26.9197 64.2726 26.9828L64.0958 26.9927L63.92 26.9714C63.3123 26.8966 60.5737 26.7326 57.7135 26.5224C56.3254 26.4204 54.9388 26.3086 53.8545 26.1955C53.3159 26.1392 52.8233 26.0799 52.4325 26.0169C52.2401 25.9858 52.0388 25.9482 51.8548 25.9026C51.7723 25.8821 51.3547 25.7881 50.9772 25.5259C50.8085 25.4086 50.3933 25.1181 50.1157 24.5914C49.8807 24.1454 49.8373 23.6627 49.834 23.6363L49.7314 22.9181L50.1135 22.3021C50.7235 21.3168 51.8013 20.9284 52.3997 20.7514C53.1171 20.5393 53.9261 20.421 54.6433 20.342C55.3648 20.2625 56.1237 20.2103 56.6995 20.163C57.3591 20.1087 57.7001 20.0647 57.8308 20.0308L57.8327 20.0309C57.8765 20.0196 57.8864 20.0156 57.9812 19.9898L58.2523 19.9156L58.5329 19.9194C59.3483 19.9299 59.9153 19.8748 60.7742 19.8425C60.3288 18.8783 59.8396 17.8983 59.3373 16.8532C58.0474 14.1699 57.3218 12.5326 56.9238 10.896C56.5284 9.26959 56.474 7.69473 56.3426 5.29414Z" fill="#EAC970" stroke="#48472E" stroke-width="4"/>
<path d="M5.37735 56.3934C3.6865 54.8225 5.10466 52.0426 7.34821 52.4428C9.53465 52.8329 10.9523 53.014 12.2943 53.3634C13.7216 53.735 15.1137 54.298 17.5094 55.4172C18.3283 55.7998 19.1393 56.2123 19.9135 56.6059C19.8829 56.4428 19.8532 56.2768 19.8215 56.1083C19.6574 55.238 19.4812 54.3037 19.3281 53.3679C19.0273 51.5296 18.7845 49.5187 18.9225 47.773L18.9748 47.1073L19.4165 46.6073L19.5565 46.4493L20.4783 45.4038L21.7777 45.9075C22.3382 46.1245 22.7355 46.4909 22.982 46.7615C23.2427 47.048 23.4515 47.3581 23.6117 47.6244C23.9301 48.1533 24.1752 48.713 24.3033 49.0064C25.2944 51.2758 25.9457 53.895 26.5959 55.9407C27.0252 57.2907 27.7719 59.1777 28.1489 60.8915C28.2925 61.545 28.3421 62.1943 28.2471 62.921L28.2228 63.1041L28.1665 63.2796C27.6953 64.7315 26.938 65.641 26.1435 66.4953L26.0232 66.6252L25.8819 66.7318C25.3927 67.0999 23.3079 68.8835 21.1037 70.7183C20.034 71.6087 18.9584 72.4909 18.0996 73.1624C17.6729 73.496 17.2773 73.7952 16.9523 74.0213C16.7922 74.1325 16.6212 74.2453 16.4572 74.3402C16.3836 74.3827 16.0178 74.6051 15.5641 74.6784C15.3613 74.7111 14.8607 74.7904 14.2952 74.6041C13.8165 74.4463 13.45 74.1291 13.4292 74.1124L12.8568 73.6667L12.704 72.9582C12.4589 71.8255 12.9649 70.7977 13.2727 70.2548C13.6416 69.604 14.1416 68.9572 14.6029 68.4023C15.067 67.8441 15.5768 67.2797 15.9584 66.8458C16.3953 66.3487 16.6102 66.0803 16.6806 65.9652L16.6821 65.9639C16.7058 65.9254 16.7101 65.9156 16.7604 65.8312L16.904 65.5896L17.1086 65.3975C17.7026 64.8389 18.0725 64.4056 18.6682 63.7859C17.6782 63.4013 16.6456 63.0358 15.5584 62.6324C12.767 61.597 11.108 60.9225 9.68529 60.0211C8.27139 59.1252 7.13875 58.0297 5.37735 56.3934Z" fill="#EAC970" stroke="#48472E" stroke-width="4"/>
<path d="M4.76949 130.647C2.46306 130.565 1.71804 127.534 3.6771 126.37C5.5863 125.235 6.77726 124.445 8.02101 123.832C9.3438 123.179 10.7651 122.695 13.3095 121.975C14.1791 121.729 15.0625 121.511 15.9056 121.302C15.7758 121.199 15.6447 121.092 15.5105 120.986C14.8173 120.435 14.0731 119.843 13.3452 119.235C11.9155 118.041 10.4167 116.679 9.37971 115.268L8.9839 114.73L8.99103 114.063L8.99362 113.852L9.00734 112.458L10.3198 111.989C10.8857 111.787 11.4259 111.804 11.7893 111.848C12.1738 111.894 12.5346 111.992 12.8299 112.089C13.4167 112.281 13.9682 112.544 14.257 112.682C16.4908 113.751 18.6963 115.306 20.5261 116.429C21.7337 117.169 23.5326 118.109 24.9385 119.159C25.4746 119.559 25.9367 120.018 26.3401 120.63L26.4414 120.784L26.5135 120.954C27.1066 122.36 27.1284 123.544 27.086 124.71L27.0799 124.887L27.0428 125.06C26.9134 125.658 26.5026 128.371 26.0348 131.2C25.8078 132.573 25.5711 133.944 25.3605 135.014C25.2558 135.545 25.1522 136.03 25.0541 136.414C25.0058 136.603 24.9502 136.8 24.8881 136.979C24.8603 137.059 24.7289 137.467 24.4336 137.819C24.3016 137.976 23.9747 138.364 23.4251 138.592C22.9597 138.786 22.475 138.786 22.4484 138.787L21.7239 138.824L21.145 138.388C20.2188 137.691 19.9295 136.583 19.8073 135.971C19.6608 135.237 19.6161 134.421 19.6022 133.699C19.5883 132.974 19.6049 132.213 19.6097 131.635C19.6153 130.974 19.6023 130.63 19.5803 130.497L19.5806 130.495C19.5733 130.45 19.5703 130.44 19.5531 130.343L19.5037 130.067L19.5328 129.787C19.617 128.976 19.6134 128.407 19.6588 127.548C18.6584 127.905 17.6381 128.303 16.5519 128.709C13.763 129.751 12.0668 130.326 10.401 130.575C8.74546 130.821 7.17213 130.733 4.76949 130.647Z" fill="#EAC970" stroke="#48472E" stroke-width="4"/>
<path d="M56.197 181.497C54.4368 182.99 51.8446 181.252 52.5082 179.072C53.1548 176.948 53.5028 175.561 54.0089 174.27C54.5472 172.897 55.2713 171.582 56.6668 169.336C57.1438 168.567 57.6496 167.812 58.1323 167.089C57.9667 167.1 57.7983 167.11 57.6272 167.122C56.7437 167.181 55.7951 167.245 54.8477 167.286C52.9867 167.367 50.9612 167.37 49.2442 167.025L48.5895 166.895L48.1453 166.396L48.005 166.239L47.0763 165.199L47.7306 163.969C48.0125 163.438 48.4234 163.087 48.7214 162.875C49.0367 162.65 49.3694 162.479 49.6528 162.352C50.2158 162.099 50.8007 161.922 51.1072 161.829C53.4781 161.114 56.156 160.778 58.2645 160.375C59.6558 160.109 61.6181 159.592 63.3645 159.421C64.0304 159.356 64.681 159.383 65.3914 159.563L65.5701 159.61L65.7377 159.686C67.1236 160.327 67.9368 161.186 68.6908 162.076L68.8055 162.212L68.8946 162.365C69.2022 162.893 70.7258 165.175 72.2862 167.582C73.0434 168.749 73.7919 169.922 74.3567 170.854C74.6373 171.317 74.8876 171.746 75.0734 172.095C75.165 172.267 75.2566 172.451 75.3313 172.625C75.3649 172.703 75.5422 173.093 75.5613 173.552C75.5697 173.757 75.589 174.263 75.337 174.802C75.1235 175.26 74.7651 175.586 74.746 175.605L74.2356 176.12L73.514 176.188C72.3601 176.297 71.3997 175.672 70.897 175.302C70.2947 174.858 69.7117 174.285 69.2155 173.762C68.7163 173.235 68.2163 172.661 67.8307 172.231C67.389 171.738 67.148 171.493 67.042 171.41L67.0409 171.407C67.0054 171.38 66.9963 171.375 66.9185 171.315L66.6956 171.143L66.5291 170.917C66.0449 170.261 65.6585 169.843 65.1139 169.178C64.6146 170.115 64.1291 171.097 63.5997 172.128C62.2404 174.777 61.374 176.345 60.3102 177.651C59.2529 178.948 58.0307 179.943 56.197 181.497Z" fill="#EAC970" stroke="#48472E" stroke-width="4"/>
<path d="M131.957 182.949C132.025 185.256 129.049 186.197 127.76 184.318C126.503 182.486 125.637 181.349 124.944 180.148C124.207 178.871 123.631 177.484 122.747 174.992C122.445 174.14 122.17 173.272 121.907 172.445C121.812 172.581 121.715 172.719 121.617 172.86C121.112 173.587 120.57 174.368 120.011 175.134C118.913 176.639 117.651 178.223 116.31 179.35L115.799 179.78L115.133 179.816L114.922 179.827L113.531 179.904L112.977 178.625C112.739 178.073 112.721 177.533 112.741 177.168C112.762 176.781 112.836 176.414 112.913 176.113C113.067 175.515 113.294 174.948 113.413 174.651C114.334 172.352 115.742 170.05 116.743 168.151C117.404 166.898 118.224 165.042 119.181 163.57C119.545 163.009 119.973 162.518 120.557 162.076L120.705 161.965L120.869 161.882C122.234 161.199 123.414 161.1 124.58 161.066L124.757 161.061L124.932 161.087C125.538 161.177 128.271 161.41 131.125 161.693C132.51 161.83 133.893 161.977 134.975 162.118C135.512 162.188 136.002 162.259 136.392 162.332C136.583 162.368 136.783 162.411 136.966 162.461C137.048 162.484 137.463 162.588 137.834 162.86C138 162.982 138.407 163.282 138.671 163.816C138.895 164.268 138.926 164.751 138.929 164.778L139.013 165.499L138.616 166.105C137.981 167.074 136.893 167.435 136.291 167.597C135.568 167.791 134.757 167.888 134.037 167.949C133.314 168.01 132.554 168.043 131.977 168.076C131.317 168.114 130.975 168.149 130.843 168.179H130.841C130.797 168.189 130.787 168.193 130.692 168.217L130.419 168.284L130.138 168.273C129.324 168.242 128.755 168.282 127.896 168.293C128.317 169.268 128.781 170.26 129.257 171.318C130.478 174.033 131.162 175.688 131.518 177.334C131.872 178.97 131.887 180.546 131.957 182.949Z" fill="#EAC970" stroke="#48472E" stroke-width="4"/>
<path d="M181.728 131.085C183.382 132.693 181.902 135.441 179.667 134.989C177.491 134.549 176.078 134.337 174.743 133.957C173.326 133.552 171.946 132.958 169.577 131.784C168.767 131.383 167.965 130.952 167.201 130.541C167.227 130.704 167.253 130.872 167.281 131.04C167.425 131.914 167.58 132.852 167.712 133.792C167.971 135.636 168.167 137.652 167.99 139.394L167.923 140.059L167.469 140.549L167.326 140.703L166.381 141.727L165.093 141.194C164.538 140.964 164.149 140.589 163.909 140.313C163.654 140.021 163.453 139.706 163.299 139.436C162.992 138.899 162.76 138.335 162.639 138.039C161.7 135.747 161.108 133.113 160.505 131.054C160.107 129.694 159.404 127.79 159.065 126.068C158.937 125.412 158.901 124.762 159.014 124.038L159.042 123.855L159.102 123.681C159.606 122.24 160.384 121.348 161.198 120.513L161.321 120.385L161.465 120.282C161.962 119.925 164.087 118.189 166.333 116.406C167.423 115.54 168.518 114.681 169.392 114.03C169.825 113.707 170.228 113.416 170.558 113.198C170.72 113.09 170.895 112.981 171.06 112.89C171.135 112.849 171.506 112.636 171.961 112.572C172.165 112.545 172.666 112.476 173.228 112.676C173.703 112.844 174.062 113.169 174.083 113.186L174.645 113.645L174.781 114.358C175 115.495 174.471 116.511 174.151 117.047C173.767 117.69 173.253 118.324 172.779 118.868C172.303 119.417 171.78 119.969 171.389 120.394C170.94 120.881 170.72 121.144 170.646 121.258L170.644 121.259C170.62 121.297 170.616 121.306 170.563 121.39L170.414 121.628L170.205 121.816C169.599 122.361 169.219 122.785 168.61 123.391C169.591 123.798 170.614 124.188 171.692 124.616C174.459 125.714 176.102 126.426 177.504 127.36C178.898 128.288 180.004 129.409 181.728 131.085Z" fill="#EAC970" stroke="#48472E" stroke-width="4"/>
<path d="M182.463 58.0338C184.771 58.0869 185.555 61.1077 183.611 62.297C181.716 63.4561 180.535 64.2614 179.299 64.8905C177.985 65.5596 176.57 66.0622 174.035 66.8147C173.169 67.0719 172.288 67.3014 171.448 67.5208C171.579 67.6224 171.711 67.727 171.847 67.8319C172.547 68.3741 173.299 68.9561 174.034 69.5546C175.479 70.7302 176.995 72.0735 178.05 73.471L178.453 74.0037L178.455 74.6709V74.8821L178.459 76.2758L177.152 76.7612C176.589 76.9709 176.049 76.9604 175.685 76.9214C175.3 76.8802 174.938 76.7867 174.641 76.6939C174.052 76.5094 173.497 76.2533 173.207 76.1189C170.959 75.0788 168.734 73.5516 166.89 72.4526C165.673 71.7275 163.862 70.8114 162.443 69.7794C161.902 69.3858 161.434 68.933 161.023 68.3263L160.92 68.1733L160.845 68.0047C160.234 66.6057 160.197 65.4228 160.225 64.2565L160.229 64.0795L160.263 63.9059C160.385 63.3059 160.761 60.5883 161.193 57.7529C161.402 56.377 161.621 55.0032 161.818 53.931C161.916 53.3984 162.013 52.9119 162.107 52.5271C162.153 52.3377 162.206 52.1399 162.265 51.96C162.292 51.8794 162.418 51.4703 162.709 51.1143C162.839 50.9553 163.161 50.5638 163.708 50.328C164.171 50.1283 164.655 50.1225 164.682 50.1212L165.406 50.0747L165.99 50.5034C166.925 51.1881 167.229 52.2928 167.359 52.9031C167.515 53.6348 167.57 54.4505 167.593 55.1717C167.616 55.8972 167.609 56.6579 167.612 57.2356C167.615 57.8974 167.632 58.2408 167.656 58.3737L167.655 58.3756C167.663 58.4202 167.667 58.4303 167.685 58.5269L167.738 58.8029L167.712 59.0824C167.639 59.8945 167.649 60.4641 167.615 61.3229C168.611 60.9537 169.626 60.542 170.707 60.1223C173.482 59.0446 175.171 58.4482 176.833 58.1785C178.486 57.9105 180.06 57.9785 182.463 58.0338Z" fill="#EAC970" stroke="#48472E" stroke-width="4"/>
</g>
</svg>
