<svg width="207" height="250" viewBox="0 0 207 250" fill="none" xmlns="http://www.w3.org/2000/svg">
<path d="M123.884 89.1434C122.694 86.3316 123.389 83.6004 126.441 82.5215C129.526 81.4762 133.311 82.9879 136.066 84.3681C147.337 90.0132 156.546 100.051 162.742 110.897C163.541 112.296 165.15 115.203 165.587 116.692C165.949 117.446 166.773 119.097 166.946 119.839C168.42 122.911 169.573 128.058 169.131 131.5C170.181 132.972 168.579 137.204 167.147 138.178C166.104 138.887 164.706 138.753 163.529 138.706C161.8 137.7 160.27 135.9 160.108 133.84C159.102 131.822 158.833 129.376 158.198 127.129C158.098 127.452 158.15 127.337 157.934 127.609C157.3 127.402 157.018 125.532 156.661 124.918C155.613 123.12 154.936 121.111 153.844 119.323C148.926 111.272 141.59 104.369 134.11 98.6914C132.908 97.7656 131.664 96.8958 130.384 96.0822C127.434 94.2393 124.182 93.0034 123.884 89.1434Z" fill="#361A0D"/>
<path d="M123.883 89.1432C126.011 91.0452 128.177 91.6979 130.505 93.1346C133.862 95.2064 137.036 97.7905 139.939 100.448C146.587 106.416 152.031 113.6 155.978 121.613C156.653 122.997 157.899 125.727 158.198 127.129C158.097 127.452 158.149 127.337 157.933 127.608C157.3 127.402 157.018 125.532 156.66 124.918C155.612 123.119 154.936 121.111 153.843 119.323C148.926 111.272 141.59 104.369 134.109 98.6913C132.907 97.7654 131.664 96.8957 130.384 96.082C127.433 94.2392 124.182 93.0032 123.883 89.1432Z" fill="#C5A062"/>
<path d="M166.946 119.838L166.764 119.868C166.331 119.009 165.527 117.618 165.587 116.692C165.949 117.446 166.773 119.097 166.946 119.838Z" fill="#361A0D"/>
<path d="M128.537 85.0002C129.876 85.0564 131.716 85.5704 132.937 86.1426C146.877 92.6695 158.932 106.705 164.351 121.049C165.354 123.703 166.999 129.29 165.838 132.123C165.53 132.874 164.952 133.137 164.241 133.407C161.595 132.517 162.048 129.472 161.185 126.817C158.932 119.875 155.616 114.33 151.319 108.538C146.654 102.284 141.043 96.7982 134.687 92.2752C133.24 91.2534 131.802 90.3571 130.177 89.4726C129.086 88.8775 125.77 87.8424 126.531 86.0035C126.79 85.3812 127.936 85.1386 128.537 85.0002Z" fill="#F2D8A6"/>
<path d="M160.107 133.84C163.746 138.184 167.464 136.291 169.131 131.499C170.181 132.972 168.579 137.204 167.147 138.178C166.104 138.887 164.706 138.753 163.529 138.706C161.8 137.7 160.27 135.9 160.107 133.84Z" fill="#C5A062"/>
<path d="M81.9125 89.1434C83.1027 86.3316 82.4072 83.6004 79.355 82.5215C76.2702 81.4762 72.4856 82.9879 69.7302 84.3681C58.4589 90.0132 49.2505 100.051 43.0545 110.897C42.2556 112.296 40.6461 115.203 40.209 116.692C39.8472 117.446 39.0232 119.097 38.8505 119.839C37.3768 122.911 36.2235 128.058 36.665 131.5C35.6151 132.972 37.2173 137.204 38.6497 138.178C39.6922 138.887 41.0906 138.753 42.2674 138.706C43.9966 137.7 45.5264 135.9 45.6888 133.84C46.6944 131.822 46.9632 129.376 47.5981 127.129C47.6986 127.452 47.6469 127.337 47.8625 127.609C48.496 127.402 48.778 125.532 49.1353 124.918C50.1838 123.12 50.8601 121.111 51.9528 119.323C56.87 111.272 64.206 104.369 71.6867 98.6914C72.8887 97.7656 74.132 96.8958 75.4123 96.0822C78.3626 94.2393 81.6142 93.0034 81.9125 89.1434Z" fill="#361A0D"/>
<path d="M81.9131 89.1432C79.7852 91.0452 77.619 91.6979 75.2918 93.1346C71.9339 95.2064 68.7606 97.7905 65.8575 100.448C59.2096 106.416 53.7652 113.6 49.8181 121.613C49.1433 122.997 47.897 125.727 47.5987 127.129C47.6991 127.452 47.6475 127.337 47.8631 127.608C48.4965 127.402 48.7786 125.532 49.1359 124.918C50.1843 123.119 50.8606 121.111 51.9534 119.323C56.8706 111.272 64.2066 104.369 71.6873 98.6913C72.8893 97.7654 74.1326 96.8957 75.4129 96.082C78.3632 94.2392 81.6148 93.0032 81.9131 89.1432Z" fill="#C5A062"/>
<path d="M38.8511 119.838L39.0328 119.868C39.4654 119.009 40.2702 117.618 40.2097 116.692C39.8479 117.446 39.0239 119.097 38.8511 119.838Z" fill="#361A0D"/>
<path d="M77.2601 85.0002C75.9208 85.0564 74.0809 85.5704 72.8597 86.1426C58.9201 92.6695 46.8648 106.705 41.4455 121.049C40.4428 123.703 38.7978 129.29 39.9585 132.123C40.2671 132.874 40.8445 133.137 41.5562 133.407C44.2024 132.517 43.749 129.472 44.6114 126.817C46.8648 119.875 50.1813 114.33 54.4784 108.538C59.1431 102.284 64.7544 96.7982 71.1099 92.2752C72.557 91.2534 73.9952 90.3571 75.6195 89.4726C76.7108 88.8775 80.0273 87.8424 79.2654 86.0035C79.007 85.3812 77.8611 85.1386 77.2601 85.0002Z" fill="#F2D8A6"/>
<path d="M45.689 133.84C42.0505 138.184 38.3323 136.291 36.6652 131.499C35.6153 132.972 37.2174 137.204 38.6498 138.178C39.6923 138.887 41.0907 138.753 42.2676 138.706C43.9967 137.7 45.5265 135.9 45.689 133.84Z" fill="#C5A062"/>
<path d="M123.804 54.7725C122.434 52.0978 123.638 49.1536 126.298 48.2276C133.412 45.7508 146.194 49.7748 152.793 52.441C159.904 55.269 166.363 59.5228 171.768 64.9409C172.414 65.5943 174.128 67.3956 174.545 68.0977C175.249 69.0773 176.034 70.2004 176.494 71.3232C177.235 72.5015 177.611 74.0803 177.774 75.4539C179.241 78.261 178.446 82.8309 174.739 83.1691C173.249 83.3052 172.264 82.6745 171.283 81.6333C169.144 79.3655 167.057 76.979 164.587 75.0559C163.154 73.9411 161.436 72.9647 159.88 71.9885C150.199 65.9476 139.506 61.7091 128.316 59.4782C126.648 59.1374 125.61 58.7801 124.579 57.2302C124.225 56.697 123.655 55.4242 123.804 54.7725Z" fill="#361A0D"/>
<path d="M123.804 54.7725C125.885 56.6305 128.136 56.2825 130.714 56.854C141.965 59.3483 153.219 63.6877 162.178 71.0977C163.846 72.4707 165.476 73.8462 166.883 75.4908C168.639 77.5457 170.277 80.6557 173.408 80.3883C176.135 80.1555 177.243 77.7983 177.774 75.454C179.241 78.2611 178.446 82.8309 174.739 83.1691C173.249 83.3052 172.264 82.6746 171.283 81.6334C169.144 79.3656 167.057 76.9791 164.587 75.056C163.154 73.9412 161.436 72.9648 159.88 71.9886C150.199 65.9476 139.506 61.7091 128.316 59.4783C126.648 59.1374 125.61 58.7802 124.579 57.2303C124.225 56.6971 123.655 55.4242 123.804 54.7725Z" fill="#C5A062"/>
<path d="M174.544 68.0978C175.249 69.0774 176.033 70.2004 176.494 71.3232C175.7 70.7766 174.71 69.0457 174.544 68.0978Z" fill="#361A0D"/>
<path d="M127.549 50.8197C131.708 49.6973 135.197 50.6766 139.319 51.5729C150.688 54.052 162.335 58.9206 170.357 67.6128C172.325 69.7454 176.652 74.858 173.589 77.5385C172.389 77.6077 172.11 77.1909 171.355 76.3585C169.612 74.4351 167.992 72.0747 166.024 70.3841C162.609 67.4511 158.942 64.8291 155.001 62.6358C149.347 59.4871 143.339 57.022 137.103 55.2924C135.282 54.7737 133.436 54.344 131.574 54.0044C129.845 53.6939 124.123 53.4806 127.549 50.8197Z" fill="#F2D8A6"/>
<path d="M81.3335 53.8057C82.7031 51.1311 81.499 48.1869 78.8395 47.2609C71.7248 44.7841 58.9428 48.808 52.3443 51.4743C45.2334 54.3023 38.7746 58.5561 33.3689 63.9742C32.7228 64.6276 31.0091 66.4289 30.5926 67.131C29.8878 68.1106 29.1037 69.2336 28.6429 70.3564C27.9026 71.5347 27.5259 73.1136 27.3628 74.4872C25.8966 77.2943 26.6911 81.8641 30.3981 82.2023C31.8885 82.3384 32.8728 81.7078 33.8538 80.6666C35.9934 78.3988 38.0801 76.0123 40.55 74.0892C41.9836 72.9744 43.7014 71.998 45.2576 71.0218C54.938 64.9809 65.6316 60.7423 76.821 58.5115C78.4888 58.1706 79.5271 57.8134 80.5579 56.2635C80.9121 55.7303 81.4824 54.4574 81.3335 53.8057Z" fill="#361A0D"/>
<path d="M81.3336 53.8058C79.2525 55.6638 77.0012 55.3157 74.4237 55.8872C63.1726 58.3815 51.9178 62.7209 42.9592 70.131C41.2914 71.5039 39.6608 72.8795 38.2545 74.5241C36.498 76.579 34.8604 79.6889 31.7288 79.4215C29.0022 79.1887 27.8946 76.8316 27.3629 74.4872C25.8967 77.2943 26.6912 81.8641 30.3982 82.2024C31.8887 82.3385 32.8729 81.7078 33.8539 80.6666C35.9935 78.3988 38.0802 76.0123 40.5501 74.0892C41.9837 72.9744 43.7015 71.998 45.2577 71.0218C54.9381 64.9809 65.6317 60.7424 76.8211 58.5115C78.4889 58.1707 79.5272 57.8134 80.558 56.2635C80.9122 55.7303 81.4825 54.4575 81.3336 53.8058Z" fill="#C5A062"/>
<path d="M30.593 67.131C29.8883 68.1106 29.1041 69.2337 28.6433 70.3565C29.4371 69.8098 30.427 68.079 30.593 67.131Z" fill="#361A0D"/>
<path d="M77.5878 49.853C73.4296 48.7306 69.9404 49.7099 65.8179 50.6061C54.4493 53.0853 42.8019 57.9539 34.7803 66.646C32.812 68.7787 28.4848 73.8913 31.5485 76.5718C32.7482 76.641 33.0274 76.2242 33.7818 75.3918C35.525 73.4684 37.1453 71.1079 39.113 69.4174C42.5284 66.4844 46.1952 63.8624 50.1363 61.669C55.7907 58.5204 61.7986 56.0553 68.034 54.3257C69.8552 53.807 71.7009 53.3773 73.5634 53.0377C75.2926 52.7272 81.0137 52.5139 77.5878 49.853Z" fill="#F2D8A6"/>
<path d="M124.074 107.196C121.866 103.281 124.924 99.3241 128.997 100.894C134.577 103.045 140.434 108.797 144.087 113.56C148.567 119.404 153.297 131.273 152.607 138.686C153.788 141.636 152.681 147.501 149.394 148.91C148.332 149.366 147.126 149.351 146.076 148.87C144.388 148.086 143.659 146.422 143.347 144.691C142.615 143.285 142.406 142.693 142.17 141.126L141.924 137.974C141.777 137.309 141.708 136.536 141.608 135.852C141.15 132.702 140.147 129.725 139.017 126.754C138.8 127.048 138.843 127.038 138.774 127.401L138.617 127.537L138.626 127.534C134.796 120.857 130.487 116.099 125.283 110.563C124.444 109.672 123.919 108.438 124.074 107.196Z" fill="#361A0D"/>
<path d="M124.074 107.196C128.681 112.305 133.353 116.258 136.76 122.437C137.581 123.926 138.363 125.095 139.018 126.754C138.801 127.048 138.843 127.038 138.774 127.401L138.617 127.537L138.626 127.534C134.796 120.857 130.487 116.099 125.283 110.563C124.445 109.672 123.919 108.438 124.074 107.196Z" fill="#C5A062"/>
<path d="M152.607 138.686C153.789 141.636 152.681 147.501 149.394 148.91C148.332 149.366 147.126 149.351 146.076 148.87C144.388 148.086 143.659 146.422 143.347 144.691C144.202 145.477 145.339 146.346 146.513 146.437C150.942 146.778 152.2 141.891 152.607 138.686Z" fill="#C5A062"/>
<path d="M141.924 137.974L142.082 137.707C142.535 138.179 142.507 140.511 142.17 141.127L141.924 137.974Z" fill="#361A0D"/>
<path d="M126.818 103.575C128.457 103.775 129.757 104.439 131.126 105.325C140.235 111.328 146.604 120.687 148.846 131.363C149.537 134.634 150.271 139.879 148.342 142.842C144.766 145.564 144.828 137.494 144.613 135.785C144.442 134.48 144.188 133.186 143.854 131.912C143.137 129.148 142.142 126.463 140.882 123.898C137.969 117.916 133.782 112.928 128.971 108.382C127.706 107.187 125.526 105.297 126.818 103.575Z" fill="#F2D8A6"/>
<path d="M81.7548 107.196C83.9624 103.281 80.9043 99.3241 76.8317 100.894C71.2514 103.045 65.3951 108.797 61.7418 113.56C57.2617 119.404 52.532 131.273 53.2216 138.686C52.0402 141.636 53.1477 147.501 56.4347 148.91C57.4965 149.366 58.7029 149.351 59.7528 148.87C61.4406 148.086 62.1701 146.422 62.4816 144.691C63.2141 143.285 63.4223 142.693 63.6585 141.126L63.9051 137.974C64.0513 137.309 64.1207 136.536 64.2211 135.852C64.6789 132.702 65.6815 129.725 66.8112 126.754C67.0282 127.048 66.9854 127.038 67.0548 127.401L67.2113 127.537L67.2025 127.534C71.0329 120.857 75.3418 116.099 80.5455 110.563C81.3842 109.672 81.9099 108.438 81.7548 107.196Z" fill="#361A0D"/>
<path d="M81.7547 107.196C77.1475 112.305 72.4754 116.258 69.0688 122.437C68.2478 123.926 67.4652 125.095 66.811 126.754C67.0281 127.048 66.9853 127.038 67.0547 127.401L67.2112 127.537L67.2023 127.534C71.0327 120.857 75.3416 116.099 80.5453 110.563C81.3841 109.672 81.9097 108.438 81.7547 107.196Z" fill="#C5A062"/>
<path d="M53.2214 138.686C52.0401 141.636 53.1475 147.501 56.4346 148.91C57.4963 149.366 58.7027 149.351 59.7526 148.87C61.4404 148.086 62.1699 146.422 62.4814 144.691C61.6265 145.477 60.4894 146.346 59.3155 146.437C54.887 146.778 53.6289 141.891 53.2214 138.686Z" fill="#C5A062"/>
<path d="M63.9048 137.974L63.7468 137.707C63.2935 138.179 63.3215 140.511 63.6582 141.127L63.9048 137.974Z" fill="#361A0D"/>
<path d="M79.0102 103.575C77.3711 103.775 76.0717 104.439 74.7028 105.325C65.5934 111.328 59.2246 120.687 56.983 131.363C56.292 134.634 55.5581 139.879 57.4866 142.842C61.063 145.564 61.001 137.494 61.2151 135.785C61.3864 134.48 61.6404 133.186 61.9741 131.912C62.6918 129.148 63.687 126.463 64.9466 123.898C67.86 117.916 72.0463 112.928 76.8573 108.382C78.1228 107.187 80.3023 105.297 79.0102 103.575Z" fill="#F2D8A6"/>
<path d="M127.183 38.1239C122.985 36.5182 122.815 31.5197 126.953 30.1299C132.622 28.2261 140.801 28.9181 146.654 30.2552C153.831 31.8958 165.047 38.0174 169.245 44.1652C172.037 45.6833 174.927 50.9061 173.295 54.0881C172.768 55.1169 171.83 55.8753 170.714 56.1745C168.914 56.6476 167.291 55.8316 165.947 54.6979C164.486 54.0827 163.948 53.7596 162.766 52.704L160.565 50.4338C160.028 50.0154 159.481 49.4639 158.968 49.0015C156.605 46.8683 153.934 45.2159 151.169 43.6489C151.189 44.0137 151.215 43.9784 151.394 44.3024L151.36 44.5069L151.365 44.4989C144.155 41.8013 137.801 40.8871 130.262 39.9446C129.048 39.7942 127.856 39.179 127.183 38.1239Z" fill="#361A0D"/>
<path d="M127.183 38.1239C133.99 39.1184 140.11 39.1811 146.675 41.7648C148.258 42.3882 149.606 42.7883 151.169 43.6489C151.189 44.0137 151.215 43.9784 151.394 44.3024L151.36 44.5069L151.365 44.4989C144.155 41.8013 137.801 40.8871 130.262 39.9446C129.048 39.7942 127.856 39.179 127.183 38.1239Z" fill="#C5A062"/>
<path d="M169.245 44.1651C172.038 45.6832 174.927 50.906 173.295 54.088C172.769 55.1168 171.83 55.8751 170.715 56.1744C168.915 56.6475 167.291 55.8315 165.947 54.6977C167.107 54.7571 168.537 54.7013 169.498 54.0217C173.126 51.4588 170.977 46.8936 169.245 44.1651Z" fill="#C5A062"/>
<path d="M160.565 50.4335L160.516 50.1269C161.167 50.2015 162.633 52.0147 162.766 52.7037L160.565 50.4335Z" fill="#361A0D"/>
<path d="M126.986 33.5845C128.375 32.6922 129.8 32.3748 131.419 32.1836C142.264 30.9933 153.139 34.1362 161.677 40.9266C164.296 43.0042 168.208 46.5746 168.614 50.0871C167.596 54.4645 162.495 48.2111 161.24 47.0322C160.275 46.1364 159.254 45.3024 158.184 44.5341C155.868 42.8635 153.389 41.4314 150.782 40.2601C144.722 37.5129 138.316 36.3431 131.711 35.9119C129.974 35.7994 127.09 35.7347 126.986 33.5845Z" fill="#F2D8A6"/>
<path d="M120.863 24.6306C116.887 24.3108 115.494 20.0965 118.671 17.8801C123.024 14.8436 130.163 13.3915 135.481 13.0695C142.003 12.6751 153.082 15.0893 158.193 19.2771C160.949 19.873 164.714 23.5998 164.118 26.7171C163.927 27.7246 163.317 28.6047 162.441 29.138C161.027 29.9902 159.44 29.7005 158.013 29.0704C156.615 28.9112 156.076 28.7703 154.806 28.1662L152.365 26.7823C151.803 26.5599 151.2 26.2267 150.647 25.9611C148.103 24.734 145.415 23.9935 142.669 23.3493C142.777 23.6548 142.791 23.6182 143.024 23.8496L143.046 24.0322L143.048 24.0242C136.235 23.5264 130.595 24.3336 123.94 25.4127C122.868 25.5875 121.699 25.3613 120.863 24.6306Z" fill="#361A0D"/>
<path d="M120.863 24.6305C126.908 23.7784 132.136 22.3044 138.372 22.8662C139.875 23.002 141.123 23.0063 142.669 23.3492C142.777 23.6548 142.791 23.6181 143.024 23.8495L143.046 24.0321L143.048 24.0241C136.234 23.5263 130.595 24.3335 123.94 25.4126C122.868 25.5875 121.699 25.3612 120.863 24.6305Z" fill="#C5A062"/>
<path d="M158.193 19.2769C160.95 19.8728 164.714 23.5996 164.118 26.7169C163.927 27.7244 163.317 28.6045 162.442 29.1378C161.027 29.99 159.44 29.7003 158.013 29.0702C159.015 28.8313 160.219 28.4268 160.869 27.608C163.318 24.5199 160.349 21.1684 158.193 19.2769Z" fill="#C5A062"/>
<path d="M152.365 26.7819L152.247 26.533C152.82 26.4341 154.521 27.6124 154.807 28.1658L152.365 26.7819Z" fill="#361A0D"/>
<path d="M119.562 20.8138C120.523 19.7071 121.657 19.0812 122.988 18.5142C131.926 14.7939 141.973 14.756 150.939 18.408C153.688 19.5236 157.91 21.588 159.133 24.478C159.359 28.46 153.454 24.4076 152.091 23.7168C151.045 23.1947 149.968 22.7393 148.865 22.352C146.475 21.5074 144.006 20.9066 141.494 20.5596C135.647 19.7326 129.9 20.3353 124.167 21.6167C122.66 21.9544 120.187 22.6191 119.562 20.8138Z" fill="#F2D8A6"/>
<path d="M81.651 24.6306C85.6266 24.3108 87.0192 20.0965 83.8425 17.8801C79.4892 14.8436 72.3508 13.3915 67.0329 13.0695C60.5104 12.6751 49.4312 15.0893 44.321 19.2771C41.5642 19.873 37.7998 23.5998 38.3956 26.7171C38.5871 27.7246 39.197 28.6047 40.0723 29.138C41.4871 29.9902 43.0734 29.7005 44.5012 29.0704C45.8989 28.9112 46.4378 28.7703 47.7075 28.1662L50.149 26.7823C50.7104 26.5599 51.314 26.2267 51.8667 25.9611C54.4109 24.734 57.0985 23.9935 59.8447 23.3493C59.7364 23.6548 59.7227 23.6182 59.49 23.8496L59.4678 24.0322L59.4655 24.0242C66.2791 23.5264 71.9182 24.3336 78.574 25.4127C79.6455 25.5875 80.8145 25.3613 81.651 24.6306Z" fill="#361A0D"/>
<path d="M81.6511 24.6305C75.6054 23.7784 70.3779 22.3044 64.1419 22.8662C62.6383 23.002 61.3905 23.0063 59.8448 23.3492C59.7365 23.6548 59.7228 23.6181 59.4901 23.8495L59.4679 24.0321L59.4656 24.0241C66.2792 23.5263 71.9183 24.3335 78.5741 25.4126C79.6456 25.5875 80.8146 25.3612 81.6511 24.6305Z" fill="#C5A062"/>
<path d="M44.3207 19.2769C41.564 19.8728 37.7995 23.5996 38.3953 26.7169C38.5869 27.7244 39.1967 28.6045 40.0721 29.1378C41.4869 29.99 43.0732 29.7003 44.5009 29.0702C43.4986 28.8313 42.2943 28.4268 41.6451 27.608C39.1954 24.5199 42.165 21.1684 44.3207 19.2769Z" fill="#C5A062"/>
<path d="M50.1486 26.7819L50.2668 26.533C49.6941 26.4341 47.9929 27.6124 47.7072 28.1658L50.1486 26.7819Z" fill="#361A0D"/>
<path d="M82.9516 20.8138C81.9911 19.7071 80.8571 19.0812 79.5257 18.5142C70.5875 14.7939 60.541 14.756 51.5749 18.408C48.8259 19.5236 44.6034 21.588 43.3809 24.478C43.1548 28.46 49.06 24.4076 50.4231 23.7168C51.4683 23.1947 52.5459 22.7393 53.649 22.352C56.0386 21.5074 58.5075 20.9066 61.0196 20.5596C66.8663 19.7326 72.614 20.3353 78.347 21.6167C79.8541 21.9544 82.3266 22.6191 82.9516 20.8138Z" fill="#F2D8A6"/>
<path d="M77.9543 37.1571C82.1518 35.5514 82.3221 30.553 78.1847 29.1632C72.5151 27.2593 64.336 27.9514 58.4836 29.2885C51.3057 30.9291 40.0907 37.0507 35.892 43.1985C33.0999 44.7165 30.2104 49.9394 31.8426 53.1214C32.3689 54.1501 33.3073 54.9085 34.4229 55.2077C36.2228 55.6809 37.8463 54.8649 39.1904 53.7311C40.6513 53.116 41.1895 52.7929 42.371 51.7373L44.5724 49.4671C45.109 49.0487 45.6561 48.4972 46.1696 48.0348C48.5318 45.9016 51.2032 44.2491 53.9687 42.6822C53.9483 43.047 53.9219 43.0117 53.7436 43.3357L53.7775 43.5401L53.7725 43.5322C60.9824 40.8346 67.3359 39.9204 74.875 38.9779C76.0889 38.8274 77.2813 38.2123 77.9543 37.1571Z" fill="#361A0D"/>
<path d="M77.9543 37.1571C71.1469 38.1516 65.0272 38.2144 58.462 40.7981C56.8792 41.4215 55.5313 41.8215 53.9686 42.6822C53.9483 43.0469 53.9219 43.0116 53.7436 43.3356L53.7774 43.5401L53.7725 43.5322C60.9824 40.8346 67.3359 39.9203 74.8749 38.9779C76.0889 38.8274 77.2813 38.2122 77.9543 37.1571Z" fill="#C5A062"/>
<path d="M35.8917 43.1984C33.0997 44.7164 30.2101 49.9393 31.8423 53.1212C32.3687 54.15 33.3071 54.9084 34.4226 55.2076C36.2225 55.6807 37.846 54.8648 39.1902 53.731C38.0306 53.7904 36.6002 53.7346 35.6388 53.0549C32.0112 50.492 34.1601 45.9269 35.8917 43.1984Z" fill="#C5A062"/>
<path d="M44.5721 49.4667L44.621 49.1601C43.9705 49.2347 42.5044 51.048 42.3707 51.7369L44.5721 49.4667Z" fill="#361A0D"/>
<path d="M78.151 32.6178C76.7617 31.7255 75.3371 31.408 73.7178 31.2169C62.8737 30.0266 51.9982 33.1694 43.4604 39.9599C40.8413 42.0374 36.9297 45.6079 36.5237 49.1203C37.5411 53.4978 42.6423 47.2444 43.8973 46.0655C44.862 45.1697 45.8829 44.3357 46.953 43.5674C49.2693 41.8968 51.7486 40.4647 54.355 39.2934C60.415 36.5462 66.8211 35.3764 73.4265 34.9451C75.1631 34.8327 78.0473 34.768 78.151 32.6178Z" fill="#F2D8A6"/>
<path d="M124.218 72.7167C122.554 70.8209 122.324 67.4209 124.397 66.0125C128.711 63.0831 136.245 66.1803 140.368 67.7907C152.242 72.4291 162.615 80.3098 170.018 90.6858C173.327 95.3573 176.491 100.466 176.896 106.307C177.5 107.938 177.693 109.919 176.909 111.52C176.359 112.66 175.355 113.515 174.144 113.875C171.277 114.726 169.771 112.68 168.534 110.506L168.599 110.237L168.991 110.087C167.252 108.572 165.826 104.97 164.696 102.752C164.59 103.087 164.592 103.123 164.622 103.461L164.65 103.744L164.503 103.88C163.406 101.145 160.22 97.5346 158.014 95.6033C156.067 93.8987 153.975 91.6001 151.889 90.1009C146.493 86.2185 140.751 82.7434 134.71 79.9578C131.968 78.688 128.885 78.0148 126.332 76.5526C125.24 75.927 124.423 73.9924 124.218 72.7167Z" fill="#361A0D"/>
<path d="M124.218 72.7168C125.514 73.577 126.793 74.1402 128.287 74.5919C140.934 78.4125 152.171 86.3778 160.455 96.6111C161.907 98.403 163.76 100.672 164.696 102.752C164.59 103.087 164.592 103.123 164.622 103.462L164.65 103.744L164.503 103.88C163.406 101.145 160.22 97.5347 158.014 95.6034C156.067 93.8989 153.975 91.6002 151.89 90.101C146.493 86.2187 140.751 82.7436 134.71 79.958C131.968 78.6881 128.885 78.0149 126.333 76.5528C125.24 75.9271 124.423 73.9926 124.218 72.7168Z" fill="#C5A062"/>
<path d="M176.897 106.307C177.501 107.938 177.694 109.919 176.909 111.52C176.359 112.66 175.356 113.515 174.144 113.875C171.277 114.727 169.771 112.68 168.535 110.506L168.599 110.237L168.992 110.087C171.549 111.944 174.802 111.467 176.25 108.47C176.598 107.749 176.725 107.085 176.897 106.307Z" fill="#C5A062"/>
<path d="M126.235 68.6592C128.06 66.4938 135.038 69.0898 136.989 69.8034C145.434 72.892 153.364 77.3124 159.933 83.4888C165.474 88.9095 170.704 95.2565 173.253 102.67C173.656 103.953 174.3 106.529 173.151 107.547C170.937 109.508 169.599 105.93 168.881 104.404C165.374 96.9417 159.754 90.7002 153.551 85.3622C152.97 84.8632 151.379 83.4886 150.656 83.0446L150.524 82.9688L149.981 82.5429C149.433 82.1255 148.87 81.7312 148.307 81.3297L148.176 81.2197C143.333 77.2796 135.652 73.7335 129.648 71.9121C128.499 71.5637 124.878 70.8775 126.235 68.6592Z" fill="#F2D8A6"/>
<path d="M80.919 71.7499C82.5835 69.8541 82.8134 66.4541 80.7398 65.0458C76.4262 62.1163 68.8925 65.2136 64.7692 66.824C52.8952 71.4623 42.5224 79.3431 35.1188 89.7191C31.8107 94.3906 28.6467 99.4992 28.2409 105.34C27.6368 106.971 27.4437 108.952 28.2284 110.554C28.7783 111.693 29.7818 112.548 30.9933 112.908C33.8604 113.76 35.3667 111.713 36.6027 109.54L36.5384 109.27L36.1461 109.121C37.885 107.605 39.3112 104.003 40.4416 101.785C40.5476 102.121 40.5457 102.156 40.5156 102.495L40.4873 102.777L40.634 102.913C41.731 100.178 44.9173 96.5679 47.1232 94.6366C49.0699 92.932 51.1623 90.6333 53.2478 89.1341C58.6445 85.2518 64.3863 81.7767 70.4269 78.9911C73.1695 77.7212 76.2519 77.048 78.8048 75.5859C79.8968 74.9602 80.714 73.0257 80.919 71.7499Z" fill="#361A0D"/>
<path d="M80.9189 71.7501C79.6233 72.6103 78.3446 73.1735 76.8502 73.6251C64.2031 77.4458 52.9661 85.4111 44.6819 95.6444C43.23 97.4363 41.3771 99.7052 40.4415 101.786C40.5475 102.121 40.5456 102.156 40.5155 102.495L40.4872 102.777L40.6339 102.914C41.7309 100.179 44.9172 96.568 47.1231 94.6367C49.0699 92.9322 51.1623 90.6335 53.2477 89.1343C58.6445 85.252 64.3863 81.7769 70.4268 78.9913C73.1694 77.7214 76.2519 77.0482 78.8047 75.5861C79.8967 74.9604 80.7139 73.0259 80.9189 71.7501Z" fill="#C5A062"/>
<path d="M28.2406 105.34C27.6365 106.971 27.4433 108.952 28.228 110.554C28.778 111.693 29.7815 112.548 30.993 112.908C33.86 113.76 35.3663 111.713 36.6024 109.54L36.5381 109.27L36.1457 109.121C33.5879 110.977 30.3355 110.5 28.8869 107.504C28.5388 106.782 28.4125 106.118 28.2406 105.34Z" fill="#C5A062"/>
<path d="M78.9025 67.6925C77.0776 65.5271 70.0996 68.1231 68.1481 68.8367C59.7036 71.9253 51.7729 76.3456 45.2041 82.5221C39.6633 87.9428 34.4329 94.2898 31.8837 101.703C31.4809 102.987 30.8372 105.562 31.9866 106.58C34.2002 108.541 35.5385 104.964 36.2563 103.438C39.763 95.9749 45.3833 89.7335 51.5865 84.3955C52.1667 83.8965 53.7584 82.5219 54.4813 82.0779L54.6134 82.0021L55.1564 81.5762C55.7044 81.1588 56.2675 80.7645 56.8301 80.363L56.9615 80.253C61.8043 76.3129 69.4848 72.7668 75.4897 70.9454C76.6379 70.597 80.2596 69.9108 78.9025 67.6925Z" fill="#F2D8A6"/>
<path d="M112.864 44.4664C116.375 45.4189 119.272 45.9829 120.186 50.029C121.325 45.1235 118.995 42.2898 115.126 39.5832C114.894 39.4222 113.84 39.2066 113.527 39.1372C113.101 39.1091 113.289 39.0545 112.945 39.3011C112.573 40.5193 112.799 43.1035 112.864 44.4664Z" fill="#C5A062"/>
<path d="M119.553 100.551L120.272 100.844L120.393 100.719C120.192 98.2874 119.209 95.4774 117.233 94.0436C116.494 93.5075 114.163 91.4491 113.54 91.0755C113.159 91.0652 113.334 91.0135 113.015 91.2438C112.615 92.4694 112.868 95.8598 113.004 97.2065C116.144 97.6229 117.426 98.0881 119.553 100.551Z" fill="#C5A062"/>
<path d="M120.127 67.0311C120.489 65.6017 120.555 64.1133 120.325 62.6558C118.937 60.9606 117.243 59.4544 115.489 58.1506C115.002 57.7888 113.333 56.6089 112.991 56.2531C112.895 58.1476 112.97 60.2873 112.999 62.2069C116.549 62.7991 118.339 63.7677 120.127 67.0311Z" fill="#C5A062"/>
<path d="M110.101 25.4443C110.569 25.7721 111.926 26.7334 112.388 26.9342C116.001 28.4994 117.494 28.5319 119.688 32.0375C120.871 29.7266 117.103 24.9983 115.034 23.8598C114.656 23.6516 112.602 22.5471 112.423 22.3773C111.571 23.3386 110.796 24.3634 110.101 25.4443Z" fill="#C5A062"/>
<path d="M94.4775 25.4443C94.0094 25.7721 92.617 27.0966 92.1548 27.2975C88.5414 28.8627 87.084 28.5319 84.8897 32.0375C83.7069 29.7266 87.4753 24.9983 89.5441 23.8598C89.9221 23.6516 91.9761 22.5471 92.1548 22.3773C93.0068 23.3386 93.782 24.3634 94.4775 25.4443Z" fill="#C5A062"/>
<path d="M112.994 79.1693C113.362 79.2505 113.727 79.342 114.09 79.4424C116.753 80.2088 118.877 81.433 120.224 83.8945C121.413 81.2779 119.474 77.858 117.244 76.4729C116.056 75.7346 114.727 74.884 113.501 74.218L113.409 73.9774L113.271 73.998C112.916 74.5134 113 78.3098 112.994 79.1693Z" fill="#C5A062"/>
<path d="M85.7226 100.548C87.6165 98.2135 89.3658 97.8015 92.1786 97.3231C92.2102 95.3222 92.2721 93.3214 92.3646 91.322C91.5613 94.1734 85.2207 94.0021 85.7226 100.548Z" fill="#C5A062"/>
<path d="M85.6313 47.4832C87.8819 45.2431 89.2717 44.871 92.348 44.5993C92.2808 43.889 92.136 39.5034 92.0338 39.2539C91.6577 39.0575 91.4969 39.0929 91.0685 39.0767L91.8461 39.3292C92.085 39.8268 91.9651 40.2506 91.9343 40.8634L91.8228 40.8073C91.7735 40.4573 91.8068 40.5725 91.6484 40.2388C87.6067 42.25 86.2768 42.8067 85.6313 47.4832Z" fill="#C5A062"/>
<path d="M85.7909 82.2007C87.6591 80.0419 89.4754 79.8026 92.1561 79.1012L92.204 76.0077C91.6815 75.6695 91.3285 75.7182 90.7134 75.8319C89.1959 76.114 87.8521 76.9867 86.9762 78.2581C86.2659 79.2902 85.5561 80.9278 85.7909 82.2007Z" fill="#C5A062"/>
<path d="M85.7402 65.0686C87.8266 62.9969 89.1616 62.5244 92.0573 62.3176C91.9695 60.7391 91.8258 58.945 91.8691 57.3812C91.7812 57.6337 91.7436 57.7179 91.634 57.9556C91.0559 57.9571 90.402 58.434 89.9339 58.7604C87.7337 60.3005 86.1527 62.3959 85.7402 65.0686Z" fill="#C5A062"/>
<path d="M95.4453 95.5959C100.473 95.0579 103.88 95.1681 108.961 95.6349C109.028 95.6446 109.071 95.6526 109.128 95.6623C109.159 95.6677 109.362 95.7069 109.595 95.6994C109.863 95.6907 110.073 95.6277 110.168 95.5978L110.419 95.5139L111.122 95.2814L111.428 94.6066C111.681 94.0477 111.776 93.3724 111.824 92.8322C111.877 92.2429 111.888 91.5907 111.883 90.966C111.879 90.4898 111.861 89.9906 111.843 89.5226C112.871 89.4946 114.162 89.4005 115.299 89.1164C116.29 88.8685 117.61 88.3782 118.373 87.2531C119.278 85.9174 119.007 84.3647 118.181 82.966L118.18 82.965C117.667 82.098 116.74 81.7088 116.149 81.5139C115.47 81.2897 114.694 81.1559 113.972 81.0695C113.264 80.985 112.523 80.9379 111.863 80.9074C111.863 80.3431 111.853 79.7903 111.843 79.2258L111.817 77.8058L110.414 77.5851C106.343 76.9454 99.8819 77.1061 95.9307 77.4318C95.8924 77.4308 95.8627 77.4298 95.8184 77.4279C95.8087 77.4275 95.521 77.4041 95.2051 77.4885C94.8815 77.5749 94.6437 77.7418 94.6279 77.7521C94.5685 77.7908 94.5445 77.808 94.4805 77.8469L93.9561 78.1652L93.7568 78.7453C93.5213 79.4331 93.4944 80.3171 93.4932 80.9338C92.6577 80.9315 91.678 80.9687 90.7441 81.1144C89.8457 81.2546 88.8102 81.5185 87.9619 82.0695C87.0355 82.6713 86.2769 83.6719 86.3057 85.0822C86.3321 86.3748 87.0033 87.3306 87.8232 87.9621C88.5971 88.5579 89.5509 88.9124 90.416 89.1389C91.4282 89.4038 92.5126 89.5391 93.4453 89.6115C93.4435 91.1121 93.5259 92.6365 93.5742 93.9748L93.6406 95.7892L95.4453 95.5959Z" fill="#F2D8A6" stroke="#361A0D" stroke-width="3.38361"/>
<path d="M111.187 77.3102C111.441 77.0056 111.533 76.6803 111.558 76.5953C111.6 76.4531 111.626 76.3153 111.643 76.2067C111.679 75.9852 111.702 75.7321 111.719 75.4869C111.754 74.9886 111.77 74.3727 111.779 73.7731C111.784 73.4137 111.782 73.0369 111.783 72.6803C112.829 72.6557 114.166 72.5609 115.333 72.2565C116.329 71.9965 117.679 71.4715 118.402 70.2565C119.237 68.8529 118.848 67.2814 117.957 65.8805L117.958 65.8795C117.416 65.0284 116.485 64.6759 115.889 64.5065C115.21 64.3134 114.443 64.2191 113.734 64.1696C113.085 64.1242 112.408 64.1153 111.794 64.1168C111.801 63.232 111.79 62.3519 111.788 61.5631L111.783 60.0631L110.292 59.8883C104.836 59.2496 100.404 59.2719 95.0229 59.7946L93.5659 59.9362L93.4966 61.399C93.4552 62.2799 93.4578 63.2054 93.4702 64.1002C92.909 64.0879 92.2909 64.0829 91.6968 64.108C90.9929 64.1378 90.2287 64.2074 89.5464 64.3707C88.9505 64.5134 88.0232 64.8127 87.4341 65.5865V65.5875C86.4772 66.8454 85.8936 68.3364 86.5317 69.7936C87.1082 71.1096 88.4213 71.7228 89.3892 72.0319C90.6687 72.4405 92.2012 72.5832 93.4634 72.6119C93.4547 73.778 93.4915 74.8941 93.5464 76.0983L93.6196 77.7135L95.2378 77.7125C96.3232 77.7117 97.4373 77.637 98.4829 77.567C99.5503 77.4956 100.548 77.4288 101.497 77.4274C104.146 77.426 106.993 77.6835 109.749 77.9117L110.625 77.985L111.187 77.3102Z" fill="#F2D8A6" stroke="#361A0D" stroke-width="3.38361"/>
<path d="M95.3452 43.617C96.4349 43.5704 97.5363 43.4605 98.5747 43.3631C99.6322 43.2639 100.639 43.1761 101.63 43.1561L101.629 43.1551C104.364 43.1023 107.045 43.3434 109.921 43.533L111.656 43.6483L111.723 41.9109C111.78 40.4489 111.832 39.1145 111.825 37.6951C113.397 37.63 115.163 37.3429 116.629 36.5174C117.519 36.0174 118.243 35.1818 118.468 34.119C118.705 33.0023 118.334 31.8841 117.487 31.0477L117.486 31.0467C116.384 29.9602 114.95 29.4994 113.709 29.2733C113.103 29.1627 112.48 29.1001 111.895 29.0584C111.895 28.9796 111.897 28.9019 111.895 28.827C111.886 28.4582 111.859 28.0403 111.785 27.6395C111.717 27.2762 111.578 26.7297 111.217 26.2567L110.755 25.6522L109.997 25.5955C105.051 25.2291 100.085 25.2258 95.1392 25.5877L93.7085 25.6932L93.5776 27.1219C93.5235 27.7167 93.5008 28.3598 93.4897 28.9871C91.9135 28.969 90.5235 29.2243 89.395 29.6922C88.007 30.2677 86.6631 31.3377 86.4097 32.9227C86.1243 34.7085 87.3431 36.0422 88.8149 36.7586C89.9692 37.3203 91.5157 37.6604 93.4399 37.7479C93.4548 39.1742 93.5021 40.5999 93.5835 42.0233L93.6792 43.6883L95.3452 43.617Z" fill="#F2D8A6" stroke="#361A0D" stroke-width="3.38361"/>
<path d="M95.3931 59.9764C100.675 59.2337 104.304 59.5367 109.729 60.0477L110.791 60.1473L111.339 59.2332C111.556 58.8723 111.628 58.4746 111.657 58.3084C111.698 58.0733 111.725 57.8139 111.744 57.5623C111.782 57.055 111.797 56.4513 111.802 55.869C111.805 55.5343 111.804 55.1914 111.801 54.8641C112.287 54.8723 112.79 54.8653 113.286 54.8241C114.478 54.7246 115.8 54.4217 116.989 53.5711C117.788 52.9988 118.493 52.1433 118.686 51.0497C118.88 49.9521 118.507 48.9088 117.745 48.0907L117.587 47.9305C116.405 46.7852 114.939 46.3681 113.642 46.2118C113.049 46.1403 112.435 46.12 111.853 46.119C111.858 45.6922 111.862 45.2766 111.868 44.8954L111.892 43.3202L110.323 43.1844C109.235 43.0898 105.795 42.8634 102.44 42.7938C100.765 42.759 99.0744 42.7623 97.6958 42.8456C97.0098 42.887 96.3618 42.9507 95.8149 43.0487C95.3615 43.13 94.6636 43.2817 94.1353 43.6756L93.4507 44.1864L93.4546 45.0399L93.4595 46.1883C92.7987 46.1656 92.09 46.1623 91.4038 46.2303C90.0664 46.3628 88.5727 46.7699 87.3442 47.9325L87.1968 48.0789C86.4823 48.8223 86.0737 49.786 86.2173 50.8504C86.3605 51.911 87.0095 52.7392 87.7212 53.3084L87.9634 53.494C89.759 54.8101 91.7302 54.9755 93.4507 54.909C93.4293 56.116 93.4602 57.3618 93.4663 58.3123L93.478 60.2459L95.3931 59.9764Z" fill="#F2D8A6" stroke="#361A0D" stroke-width="3.38361"/>
<path d="M111.71 109.266L111.727 107.594C112.336 107.57 112.975 107.526 113.602 107.43C114.858 107.238 116.207 106.829 117.404 105.896H117.405C118.133 105.333 118.778 104.487 118.943 103.44C119.124 102.292 118.681 101.184 117.726 100.39H117.725C116.45 99.3309 114.904 99.0324 113.58 98.9672C113.002 98.9388 112.405 98.9559 111.838 98.9877C111.849 98.3647 111.849 97.7494 111.848 97.1069L111.844 95.6606L110.416 95.4389C108.801 95.1875 106.198 95.0232 103.681 94.9594C101.204 94.8967 98.6611 94.9295 97.085 95.0971C96.3835 95.1402 95.5323 95.26 94.9561 95.3286L93.4443 95.5082L93.4639 97.0297C93.472 97.6732 93.4776 98.3169 93.4814 98.9604C92.9636 98.955 92.4248 98.9599 91.9014 98.9995C90.7045 99.09 89.3746 99.355 88.1523 100.119V100.12C87.3094 100.636 86.5692 101.477 86.3594 102.566C86.1289 103.762 86.6069 104.906 87.5762 105.706L87.8037 105.886C89.5588 107.224 91.6123 107.574 93.4463 107.629C93.4412 108.165 93.4457 108.679 93.4443 109.123L93.4395 110.864L95.1787 110.82C96.2551 110.793 97.3331 110.722 98.3711 110.653C99.4212 110.583 100.433 110.517 101.436 110.493L102.27 110.482C104.195 110.481 106.004 110.637 108.046 110.826V110.825C108.69 110.89 109.396 110.911 109.935 110.938L111.691 111.026L111.71 109.266Z" fill="#F2D8A6" stroke="#361A0D" stroke-width="3.38361"/>
<path d="M108.029 25.4177C109.62 24.3503 110.794 23.2205 111.504 21.9704C112.24 20.6734 112.424 19.3373 112.174 18.0222C111.934 16.7619 111.313 15.6022 110.582 14.5544C109.848 13.5013 108.928 12.4566 107.99 11.4382L107.985 11.4333L107.98 11.4274L107.482 10.8981L107.483 10.8972C106.908 10.2809 106.33 9.59333 105.352 8.95575C105.222 8.84091 105.079 8.71499 104.925 8.60419C104.722 8.45822 104.518 8.34787 104.317 8.23895L104.132 8.13837L103.927 8.08661C102.535 7.73465 101.155 8.27601 100.111 8.88055C99.0062 9.52054 97.9116 10.4447 96.9365 11.4138C95.0137 13.3248 93.2505 15.7211 92.583 17.2048L92.4189 17.57L92.4355 17.9704C92.5006 19.507 92.7977 20.9421 93.5254 22.2233C94.2619 23.52 95.3623 24.5241 96.8086 25.32L97.2031 25.5368L97.6533 25.529C99.281 25.501 100.802 25.543 102.341 25.5934C103.871 25.6436 105.432 25.7025 107.084 25.7048L107.601 25.7057L108.029 25.4177Z" fill="#F2D8A6" stroke="#361A0D" stroke-width="3.38361"/>
<path d="M103.5 120.626C104.221 120.135 104.86 119.558 105.353 119.144C105.88 118.702 106.348 118.346 106.913 118.063H106.914C106.98 118.029 107.158 117.963 107.506 117.869C107.855 117.775 108.18 117.702 108.613 117.593C108.997 117.496 109.449 117.374 109.848 117.218C110.05 117.139 110.283 117.034 110.508 116.893C110.721 116.76 111.026 116.534 111.261 116.175L112.005 115.04L111.549 114.571C111.828 113.555 111.715 112.546 111.7 112.059L111.653 110.537L110.134 110.425C104.987 110.042 100.351 109.825 95.0835 110.46L93.6343 110.635L93.5942 112.094L93.5337 114.298L93.4692 114.878L93.4204 115.315L93.5913 115.72C93.8786 116.404 94.4389 116.759 94.7534 116.924C95.105 117.109 95.4802 117.227 95.7788 117.306C96.0889 117.388 96.4017 117.451 96.6528 117.499C96.9335 117.553 97.1034 117.583 97.2349 117.614H97.2358C98.2426 117.851 98.8976 118.151 99.4429 118.531C100.011 118.928 100.542 119.468 101.251 120.315L102.235 121.488L103.5 120.626Z" fill="#F2D8A6" stroke="#361A0D" stroke-width="3.38361"/>
<path d="M203.45 107.18C204.058 108.821 204.463 109.412 205.043 111.343C206.769 117.061 206.32 123.216 203.783 128.623C192.52 153.215 167.458 153.896 144.416 159.036C144.062 159.115 144.283 159.01 144.01 159.173C143.418 156.61 143.211 154.737 141.832 152.407C141.315 151.531 140.723 150.701 140.23 149.855C141.302 149.614 142.579 149.478 143.682 149.353C165.36 146.893 192.834 145.099 201.594 121.026C203.348 116.205 203.772 112.287 203.45 107.18Z" fill="#C5A062"/>
<path d="M144.617 165.723C144.484 165.019 144.55 164.221 144.394 163.411C144.45 169.535 143.917 177.657 139.395 182.248C136.822 184.861 133.861 185.252 131.851 189.064C128.758 194.934 130.416 200.08 129.053 206.123C128.034 210.637 124.174 213.079 122.542 217.37C121.962 218.863 121.535 220.412 121.268 221.99C120.045 229.617 121.407 239.889 112.451 243.594L102.066 239.753L90.4653 241.203C90.3041 241.203 89.7885 242.266 89.0151 246.52C92.8821 249.904 98.1992 247.97 103.033 247.003C105.353 248.937 110.278 249.098 112.451 248.937L112.851 248.884C113.567 248.789 114.251 248.534 114.862 248.15C117.592 246.439 120.216 244.942 121.534 241.689C123.529 236.766 123.365 231.101 124.824 225.999C126.302 220.832 130.725 216.903 132.448 211.769C134.049 207.256 133.26 201.392 134.968 197.481C136.85 194.303 139.74 191.722 141.807 188.62C144.607 184.42 145.159 181.269 145.249 176.277C145.311 172.751 145.286 169.245 144.617 165.723Z" fill="#C5A062"/>
<path d="M60.4518 158.162C57.9761 157.377 52.4892 156.796 49.6344 156.262C36.4309 153.792 20.7384 150.556 11.3875 140.143C10.4977 139.145 9.68393 138.082 8.95299 136.963C8.22175 135.841 5.12832 129.982 5.18384 128.99C5.32413 129.076 5.25103 129.023 5.41819 129.181L5.55655 129.313L5.77923 129.047C7.04989 130.957 8.84327 133.359 10.5534 134.903C18.0357 141.66 28.5178 144.394 38.1617 146.315C44.3325 147.544 50.3136 148.089 56.5226 148.859C59.053 149.173 61.9452 149.41 64.4014 149.892C62.3204 153.022 61.3403 154.456 60.4518 158.162Z" fill="#C5A062"/>
<path d="M61.018 174.319C63.0038 180.207 64.4008 181.544 69.1315 185.273C73.7878 188.943 74.433 195.765 74.3458 201.379C74.2501 200.934 74.2208 200.44 74.177 199.981C70.5746 197.646 65.8516 192.277 63.8975 188.429C62.1666 185.021 60.3664 178.255 60.6013 174.494L60.8617 174.5L61.018 174.319Z" fill="#C5A062"/>
<path d="M114.17 16.7861C115.102 12.0904 111.828 9.93003 108.943 6.7198C106.276 3.75321 102.914 2.67674 99.714 5.5562C96.988 7.86716 93.4232 11.0597 92.3984 14.5948C95.3703 12.8198 99.1658 4.95372 104.345 6.74637C107.938 7.98971 112.412 13.5788 114.17 16.7861Z" fill="#C5A062"/>
<path d="M85.285 237.307C87.1237 240.671 88.041 241.705 91.5173 243.446C91.631 245.051 91.6662 246.136 91.6562 247.744C88.4294 248.288 84.6619 240.162 85.285 237.307Z" fill="#C5A062"/>
<path d="M76.8434 210.714C79.2101 213.386 80.9177 215.577 81.969 219.013C81.7841 219.292 81.8018 219.403 81.7272 219.734C81.1042 219.366 76.429 211.868 76.3301 210.775C76.5641 210.76 76.4779 210.77 76.6967 210.738L76.8434 210.714Z" fill="#C5A062"/>
<path d="M68.7134 170.63L69.6801 161.446L74.0305 163.38L78.8642 169.18L74.0305 175.464L68.7134 170.63Z" fill="#361A0D"/>
<path d="M136.386 170.63L135.419 161.446L131.069 163.38L126.235 169.18L131.069 175.464L136.386 170.63Z" fill="#361A0D"/>
<path d="M103.482 117.416C106.861 117.421 112.702 117.969 118.298 119.027C121.102 119.557 123.886 120.221 126.295 121.027C128.389 121.727 130.335 122.577 131.757 123.622C135.457 123.618 138.188 124.563 140.026 126.742C141.857 128.912 142.51 131.998 142.865 135.414C143.415 138.689 143.207 143.498 142.413 146.641L142.147 147.696L141.078 147.891C140.464 148.004 139.05 148.16 137.977 148.312C137.837 148.332 137.702 148.353 137.569 148.373C137.742 148.583 137.952 148.825 138.203 149.112C138.596 149.56 139.066 150.095 139.493 150.657C139.917 151.214 140.352 151.866 140.649 152.574C140.948 153.284 141.152 154.157 140.968 155.094L140.864 155.62L140.478 155.99C140.336 156.125 140.179 156.242 140.023 156.35L140.428 156.229L140.948 156.412C140.946 156.411 140.948 156.412 140.961 156.415C140.98 156.421 140.987 156.423 141.025 156.434C141.072 156.448 141.21 156.488 141.358 156.553C141.517 156.623 141.754 156.75 141.98 156.978C142.161 157.16 142.297 157.368 142.391 157.59L142.47 157.817L142.471 157.82C142.974 159.602 143.144 162.237 143.152 164.68C143.161 167.162 143.002 169.665 142.764 171.271V171.272C142.543 172.749 142.176 174.202 141.666 175.606C140.321 179.331 138.619 181.052 136.755 182.461C134.967 183.813 133.44 184.642 131.739 186.882C129.232 190.184 128.639 194.89 128.635 199.404C128.633 201.214 128.44 203.753 127.828 205.693V205.694C127.16 207.806 125.913 209.515 124.801 210.998C123.64 212.546 122.627 213.848 121.985 215.382L121.986 215.383C121.313 216.994 120.903 218.317 120.547 220.039V220.04C120.507 220.232 120.391 220.902 120.252 221.651C120.186 222.006 120.117 222.367 120.056 222.66C120.025 222.804 119.995 222.947 119.965 223.068C119.961 223.084 119.951 223.116 119.939 223.16C119.858 224.24 119.75 225.896 119.611 227.491C119.471 229.106 119.284 230.821 119.026 231.994C118.931 232.849 118.786 233.407 118.608 234.122L118.586 234.212L118.553 234.301C117.966 235.885 117.557 237.13 116.406 238.736C115.773 239.677 115.447 239.982 114.73 240.683L114.688 240.724L114.643 240.762C112.711 242.405 110.608 242.678 108.658 242.258C106.821 241.863 105.116 240.855 103.767 239.995L103.703 239.955L103.645 239.909C103.29 239.636 102.972 239.312 102.688 238.974C102.232 239.374 101.782 239.675 101.465 239.922C101.121 240.19 100.761 240.277 100.637 240.306C100.553 240.326 100.479 240.339 100.433 240.346C100.339 240.361 100.396 240.351 100.348 240.359L100.1 240.401C99.3027 241.048 98.3822 241.617 97.0811 241.911C94.2365 242.764 90.9379 242.306 88.624 240.01L88.5615 239.948L88.5049 239.879C86.8105 237.804 86.0936 236.223 85.3887 233.772L85.377 233.733L85.3682 233.693C85.141 232.731 84.9984 231.808 84.8545 230.929L84.8438 230.862L84.8379 230.794L84.7852 230.153C84.7128 229.705 84.6491 228.958 84.6035 228.335C84.5476 227.571 84.5009 226.783 84.4805 226.397C84.2681 222.38 83.8807 219.796 82.3779 216.182C81.6505 214.433 80.5805 213.054 79.3848 211.441C78.224 209.875 76.9571 208.101 76.2666 205.791L76.2637 205.784C75.6701 203.765 75.6003 201.189 75.6113 199.401C75.6555 192.236 73.5131 186.19 67.751 182.207C65.9267 180.947 64.4948 178.887 63.4824 176.799C62.459 174.689 61.7714 172.359 61.5518 170.368C61.432 169.282 61.1739 166.688 61.1152 164.122C61.086 162.844 61.105 161.526 61.2256 160.387C61.2859 159.817 61.3751 159.256 61.5098 158.749C61.6385 158.265 61.8389 157.711 62.1855 157.241L62.4258 156.915L62.7861 156.734C63.394 156.428 64.0269 156.382 64.5703 156.434L63.5811 156.039L63.8096 154.692C64.1821 152.496 64.9441 151.224 65.7637 150.066C66.1771 149.482 66.5687 148.964 66.9482 148.359C66.7668 148.333 66.5797 148.306 66.3887 148.28C65.2073 148.118 63.795 147.94 63.0059 147.772L61.9248 147.541L61.7021 146.459C61.4517 145.246 61.2927 143.245 61.2178 141.359C61.1438 139.497 61.1461 137.563 61.2549 136.375H61.2539C61.3348 134.976 61.425 133.18 61.7607 131.445C62.0948 129.718 62.7056 127.853 63.9639 126.388C65.2086 124.939 66.6246 124.404 67.876 124.122C68.4306 123.998 69.0788 123.9 69.4893 123.825C69.9624 123.737 70.3208 123.649 70.6279 123.521C72.7857 122.592 75.1028 121.552 77.4717 120.781C85.1199 118.29 95.8096 117.406 103.482 117.416ZM136.465 157.945H136.464C134.642 158.839 133.124 160.252 131.715 161.974C130.283 163.723 129.075 165.64 127.731 167.593V167.594C127.439 168.019 127.146 168.495 126.755 169.09C126.634 169.274 126.503 169.465 126.368 169.659C128.717 171.608 129.353 173.926 129.963 176.083C131.906 175.389 133.211 173.89 134.037 171.92C135.073 169.451 135.286 166.348 134.9 163.653V163.652C134.756 162.666 134.586 161.682 134.394 160.703L134.213 159.784L134.896 159.142C135.377 158.692 136.001 158.252 136.671 157.853C136.597 157.885 136.528 157.914 136.465 157.945ZM68.793 158.388C69.1691 158.675 69.4982 158.957 69.749 159.206L70.3848 159.84L70.2158 160.723C70.0928 161.366 69.8802 162.18 69.7373 162.798C69.5999 163.393 69.5085 163.89 69.4766 164.286C69.6552 165.092 69.7317 166.108 69.7354 167.036C69.7388 167.93 69.6755 168.933 69.4932 169.748C69.7543 171.609 70.6541 173.319 72.0391 174.584L72.3369 174.843L72.3438 174.848C73.0144 175.409 73.6484 175.821 74.2705 176.059C74.6024 174.977 75.0553 173.807 75.6777 172.739C76.3228 171.632 77.2196 170.521 78.4434 169.789C78.3856 169.706 78.328 169.626 78.2744 169.547C77.8554 168.929 77.6824 168.621 77.46 168.309C74.8501 164.654 73.6426 162.584 72.0225 160.878C71.1635 159.974 70.1894 159.185 68.793 158.388Z" fill="#F2D8A6" stroke="#361A0D" stroke-width="3.38361"/>
<path d="M62.943 136.473C63.1081 133.615 63.2853 129.774 65.2469 127.491C67.1014 125.332 69.3818 125.872 71.278 125.083C73.48 124.136 75.7131 123.133 77.9957 122.389C85.3958 119.98 95.8789 119.098 103.48 119.108C109.985 119.117 126.418 121.243 131.182 125.322C138.686 125.107 140.479 128.8 141.185 135.613C141.712 138.651 141.517 143.281 140.773 146.227C139.612 146.44 135.739 146.765 135.091 147.255C135.297 147.783 135.571 148.52 135.894 148.973C136.954 150.464 139.701 152.772 139.308 154.767C138.62 155.425 136.632 155.977 135.718 156.426C131.474 158.51 128.923 162.875 126.337 166.635C125.733 167.512 124.967 168.84 124.285 169.599C124.378 170.145 124.643 170.297 125.048 170.768C122.696 170.751 120.445 171.543 118.735 173.203C116.851 175.033 116.06 177.691 115.346 180.137C115.256 180.448 114.846 182.041 114.744 182.245L114.407 182.277C114.524 182.119 115.596 178.342 115.561 178.045C115.032 178.369 115.155 178.414 114.683 178.344C114.314 177.964 114.332 177.749 114.291 177.195C114.041 178.259 113.354 182.545 112.906 183.051C113.21 180.378 114.019 177.7 114.512 175.054C113.659 173.259 111.206 170.811 109.833 168.337C107.396 163.947 105.527 157.617 102.116 154.187C98.483 157.313 96.4467 164.331 94.1176 168.6C92.6669 171.259 91.2443 172.826 89.7417 175.188L89.6425 175.346C90.2728 177.081 90.8031 178.524 91.1172 180.34L90.6859 180.417C90.7371 179.856 90.3944 177.866 90.0667 177.424C89.8483 178.034 90.0197 177.781 89.5288 178.208C89.1986 178.158 89.2941 178.108 89.075 178.221C89.1631 178.76 89.6741 181.04 89.8688 181.442L89.5853 181.52C88.9936 180.11 88.7264 177.786 87.8328 176.062C86.8588 173.907 84.8921 172.317 82.7387 171.43C82.0439 171.143 81.2805 171.009 80.6057 170.729L80.7795 170.551C80.5437 170.13 80.5414 170.165 80.595 169.688C80.0632 169.338 79.2596 167.918 78.8368 167.326C73.8456 160.336 73.3813 158.132 65.477 154.974C66.1091 151.247 67.9583 150.834 69.4744 147.125C68.5952 146.776 64.7753 146.42 63.3584 146.118C62.9181 143.984 62.7363 138.597 62.943 136.473Z" fill="#F2D8A6"/>
<path d="M88.6564 173.018C90.2572 171.667 91.5269 170.183 92.6376 168.401C94.5456 165.34 95.8379 161.098 97.5349 157.767C98.4566 155.957 100.337 154.221 100.75 152.228C101.434 148.941 100.315 135.479 101.325 133.913C101.542 133.575 101.694 133.575 102.053 133.529C102.265 133.626 102.73 133.836 102.738 134.109C102.885 139.52 102.503 145.355 102.909 150.735C103.135 153.743 105.063 154.82 106.099 157.034C109.191 163.646 110.391 167.815 115.474 173.348C117.726 171.401 121.101 169.065 124.285 169.599C124.378 170.145 124.644 170.297 125.048 170.768C122.696 170.751 120.446 171.543 118.736 173.203C116.852 175.033 116.06 177.691 115.347 180.137C115.257 180.448 114.846 182.041 114.744 182.245L114.408 182.277C114.524 182.119 115.596 178.342 115.561 178.045C115.032 178.369 115.155 178.414 114.684 178.344C114.315 177.964 114.332 177.749 114.291 177.195C114.041 178.259 113.355 182.545 112.906 183.051C113.21 180.378 114.019 177.7 114.513 175.054C113.659 173.259 111.206 170.811 109.833 168.337C107.397 163.947 105.527 157.617 102.116 154.187C98.4834 157.313 96.4471 164.331 94.1179 168.6C92.6673 171.259 91.2447 172.826 89.742 175.188L89.6428 175.346C90.2732 177.081 90.8035 178.524 91.1175 180.34L90.6862 180.417C90.7374 179.856 90.3947 177.866 90.067 177.424C89.8486 178.034 90.0201 177.781 89.5291 178.208C89.1989 178.158 89.2945 178.108 89.0753 178.221C89.1635 178.76 89.6744 181.04 89.8692 181.442L89.5857 181.52C88.994 180.11 88.7267 177.786 87.8332 176.062C86.8592 173.907 84.8924 172.317 82.739 171.43C82.0443 171.143 81.2808 171.009 80.606 170.729L80.7798 170.551C80.544 170.13 80.5418 170.165 80.5954 169.688C84.0329 169.502 85.9521 171.428 88.6564 173.018Z" fill="#D7B180"/>
<path d="M141.185 135.613C141.713 138.651 141.518 143.281 140.773 146.227C139.613 146.44 135.74 146.765 135.091 147.255C134.617 146.033 133.925 146.162 133.387 143.662C137.023 141.667 139.083 139.89 140.708 135.976C140.812 135.727 140.84 135.803 141.185 135.613Z" fill="#D7B180"/>
<path d="M62.943 136.473C63.8151 137.376 64.284 138.991 65.2937 140.191C67.0533 142.281 69.2886 142.941 71.1764 144.611C70.6835 145.644 70.3833 146.387 69.4744 147.125C68.5952 146.776 64.7753 146.42 63.3584 146.118C62.9181 143.984 62.7363 138.597 62.943 136.473Z" fill="#D7B180"/>
<path d="M102.116 154.187C105.527 157.617 107.397 163.947 109.833 168.337C111.207 170.811 113.659 173.259 114.513 175.054C114.02 177.7 113.21 180.378 112.906 183.051C112.454 185.454 111.895 188.401 111.446 190.767C110.632 195.05 109.282 207.343 105.963 209.902C103.786 210.225 103.444 203.499 103.308 202.106C102.781 200.241 102.24 195.41 102.178 193.403C101.915 195.216 101.812 197.115 101.676 198.947C101.688 199.805 101.695 200.063 101.523 200.895C101.509 202.922 101.214 204.224 100.51 206.11C99.2871 211.37 97.3658 211.103 95.6285 206.33C93.7814 201.255 93.4165 195.33 92.6364 189.945C92.1581 186.739 91.6519 183.537 91.1178 180.34C90.8037 178.524 90.2734 177.081 89.6431 175.346L89.7423 175.188C91.2449 172.826 92.6675 171.259 94.1182 168.6C96.4473 164.331 98.4836 157.313 102.116 154.187Z" fill="#F2D8A6"/>
<path d="M112.906 183.051C113.355 182.545 114.042 178.259 114.291 177.195C114.333 177.75 114.315 177.964 114.684 178.344C115.155 178.414 115.033 178.369 115.561 178.045C115.597 178.342 114.525 182.12 114.408 182.278L114.745 182.245C114.108 186.589 111.995 194.673 112.384 198.904C113.197 207.769 114.144 216.118 113.292 225.119C112.977 228.443 112.98 232.278 110.33 234.822C109.952 235.187 109.783 235.256 109.29 235.227C108.665 234.689 108.05 232.922 107.838 232.104C105.934 224.706 104.653 217.029 102.081 209.81C100.265 214.472 98.8574 220.009 97.5918 224.877C96.6346 228.561 96.8412 231.797 94.979 235.475C93.7385 234.58 92.2717 232.907 91.8423 231.324C89.9338 224.286 90.6139 214.951 90.8841 207.659C90.9779 205.131 91.8559 202.747 91.7921 199.948C91.6483 193.643 90.6637 187.673 89.586 181.52L89.8695 181.442C89.6748 181.041 89.1638 178.76 89.0757 178.221C89.2948 178.108 89.1993 178.158 89.5295 178.208C90.0204 177.781 89.849 178.034 90.0674 177.424C90.3951 177.866 90.7378 179.856 90.6866 180.417L91.1179 180.34C91.652 183.537 92.1582 186.739 92.6365 189.945C93.4166 195.33 93.7815 201.255 95.6286 206.329C97.3659 211.103 99.2872 211.37 100.51 206.11C101.214 204.224 101.51 202.922 101.523 200.895C101.696 200.063 101.688 199.805 101.676 198.947C101.812 197.115 101.916 195.216 102.178 193.403C102.24 195.41 102.781 200.241 103.308 202.106C103.444 203.498 103.787 210.225 105.963 209.902C109.283 207.343 110.632 195.049 111.446 190.767C111.895 188.4 112.454 185.454 112.906 183.051Z" fill="#361A0D"/>
<path d="M136.054 160.377C137.075 159.419 139.073 158.405 140.389 158.008C140.606 158.084 140.789 158.092 140.842 158.279C141.715 161.368 141.535 168.028 141.09 171.023C140.887 172.389 140.547 173.731 140.076 175.029C137.641 181.774 134.16 180.897 130.392 185.859C127.526 189.633 126.947 194.834 126.943 199.402C126.941 201.144 126.751 203.484 126.215 205.184C125.073 208.795 121.906 211.19 120.425 214.731C119.71 216.442 119.268 217.869 118.89 219.697C118.802 220.124 118.381 222.607 118.266 222.848L118.131 222.805C117.774 223.064 117.866 223.139 117.727 223.696L117.573 223.707C117.787 217.547 117.544 214.985 120.55 209.045C121.475 207.221 122.78 205.591 123.049 203.544C123.791 198.502 122.324 192.596 123.945 187.692C125.305 183.579 127.814 182.882 128.803 178.1C135.723 177.114 137.411 169.247 136.575 163.413C136.426 162.397 136.251 161.384 136.054 160.377Z" fill="#D7B180"/>
<path d="M67.7708 164.431C68.1201 165.697 68.1475 168.39 67.7741 169.645C67.4841 167.669 67.5651 166.411 67.7708 164.431Z" fill="#361A0D"/>
<path d="M86.4669 229.966C86.4555 229.557 86.4545 229.239 86.4672 228.832L86.6738 228.651L87.0499 228.734L87.1597 229.865L87.1048 230.472L86.9595 230.474L86.9232 230.425C86.6519 230.502 86.7356 230.578 86.5239 230.655L86.4669 229.966Z" fill="#E3B47B"/>
<path d="M99.7266 238.309C99.6158 236.867 99.5184 233.916 99.8846 232.492C100.007 232.02 100.422 231.931 100.809 231.767C100.828 232.926 101.197 235.072 101.163 235.668C101.696 236.061 101.583 236.12 102.061 236.058L102.377 235.677L102.693 235.977C102.387 237.257 101.462 237.78 100.425 238.588C100.338 238.656 100.18 238.672 100.066 238.691L99.7472 238.465L99.7266 238.309Z" fill="#D7B180"/>
<path d="M20.4678 87.8658C20.0908 89.1458 19.6473 90.3902 19.21 91.5904C18.7675 92.8047 18.336 93.9628 17.9521 95.1392C16.2831 100.254 15.8957 106.01 18.3564 110.524C21.3902 116.088 26.7974 118.825 33.1084 120.751C39.7171 122.767 45.2555 123.218 52.3135 123.512C55.3354 123.638 59.5064 123.719 62.5967 124.059L64.8389 124.305L63.9736 126.389C63.3871 127.801 62.6616 129.545 62.3857 130.76C62.0104 132.414 61.6756 134.849 61.5312 137.3C61.3942 139.627 61.4382 141.813 61.7178 143.308L61.7773 143.597L61.7871 143.643L61.7949 143.689L62.1592 145.898L62.5107 148.024L60.3623 147.861C53.9188 147.37 43.7634 146.375 34.1387 144.132C29.3263 143.011 24.598 141.566 20.5117 139.691C16.5013 137.851 12.9854 135.54 10.6504 132.599C9.37767 131.462 8.13817 129.703 7.1123 128.005C6.0267 126.209 5.07965 124.315 4.47656 122.912L4.44531 122.838L4.4209 122.762C1.80704 114.655 1.09296 106.2 5.34863 98.1089C7.8923 93.2726 12.4427 87.5557 18.3555 85.7691L21.3525 84.8628L20.4678 87.8658Z" fill="#F2D8A6" stroke="#361A0D" stroke-width="3.38361"/>
<path d="M10.8311 128.949C20.9449 139.488 36.2614 140.664 49.939 142.772C53.2487 143.282 56.8552 143.258 60.1254 143.964L60.4901 146.174C47.6535 145.196 20.2813 142.227 11.8866 131.435C11.5642 130.497 11.2513 129.842 10.8311 128.949Z" fill="#D7B180"/>
<path d="M6.03125 122.243C6.26427 122.313 6.66769 122.376 6.78346 122.573C8.06135 124.749 9.43951 126.848 10.8315 128.95C11.2518 129.842 11.5647 130.497 11.887 131.435C9.67577 129.543 7.17816 124.912 6.03125 122.243Z" fill="#E3B47B"/>
<path d="M185.443 85.6586C190.304 86.9225 194.538 90.8814 197.482 95.4301C200.342 99.8494 202.186 105.131 202.164 109.723L202.156 110.165C202.014 114.663 201.266 119.28 199.005 123.479C198.517 124.775 197.597 126.259 196.981 127.23L196.98 127.231C191.612 135.688 183.546 140.263 174.801 142.971C166.102 145.665 156.543 146.563 148.108 147.544C146.851 147.691 145.658 147.791 144.396 147.846L142.554 147.926L142.632 146.084C142.64 145.908 142.653 145.403 142.671 145.041C142.687 144.742 142.715 144.324 142.783 143.953C143.116 136.951 142.794 132.511 139.874 126.423L138.862 124.315L141.181 124.014C143.859 123.667 147.065 123.638 149.594 123.547C158.755 123.22 167.765 122.793 175.841 119.09C180.137 117.12 183.769 114.361 185.811 110.333L185.816 110.323L185.822 110.312C188.507 105.2 187.67 99.3858 185.602 93.6625C184.975 91.9329 184.024 89.7908 183.403 87.8002L182.496 84.892L185.443 85.6586Z" fill="#F2D8A6" stroke="#361A0D" stroke-width="3.38361"/>
<path d="M144.469 144.145C145.554 143.646 153.248 143.152 155.059 142.877C168.404 140.88 183.241 138.833 192.556 127.947C194.208 126.016 196.09 123.923 197.298 121.712L197.374 121.905L197.337 121.73L197.417 121.751C197.413 122.158 197.427 122.385 197.46 122.783C197.06 123.901 196.206 125.293 195.552 126.324C185.391 142.334 164.922 143.884 147.912 145.864C146.69 146.006 145.538 146.104 144.323 146.156C144.345 145.637 144.354 144.603 144.469 144.145Z" fill="#D7B180"/>
<path d="M15.7301 204.404C13.2804 200.16 17.7728 197.908 20.9 196.107C25.9724 193.186 29.3794 196.121 32.5906 200.03C36.4395 204.714 41.4808 209.123 39.7906 215.849L40.109 215.963C40.7013 217.748 39.259 222.351 36.6141 222.203C31.7463 221.932 15.7986 208.45 15.7301 204.404Z" fill="#361A0D"/>
<path d="M15.73 204.404C19.3315 207.896 30.9659 219.306 35.6943 219.358C36.7418 219.37 37.7455 218.937 38.4558 218.168C39.0885 217.483 39.4371 216.7 39.7905 215.849L40.1089 215.963C40.7011 217.748 39.2589 222.351 36.6139 222.203C31.7462 221.932 15.7985 208.45 15.73 204.404Z" fill="#C5A062"/>
<path d="M23.883 198.1C24.853 198.02 25.6933 197.969 26.5948 198.392C28.3949 199.24 33.8893 206.173 35.2185 208.13C35.8841 209.11 36.4965 210.15 36.9005 211.267C37.2852 212.331 37.5842 213.853 37.0389 214.916C36.7779 215.426 36.2619 215.827 35.7077 215.969C34.574 216.258 33.441 215.421 32.5144 214.881C28.1288 212.088 24.1561 208.062 20.2418 204.671C17.6204 202.402 17.2773 201.702 20.4465 199.769C21.6584 199.03 22.5371 198.58 23.883 198.1Z" fill="#F2D8A6"/>
<path d="M174.277 160.237C174.543 153.202 180.077 153.584 184.711 156.589C187.007 158.078 189.843 159.208 191.705 161.262C192.649 162.312 192.249 164.171 191.88 165.371C192.746 165.311 192.122 164.917 192.727 165.383C193.962 169.853 189.062 174.009 186.881 177.526C183.203 183.458 179.211 189.215 175.602 195.191C173.308 198.859 170.393 202.633 168.264 206.499C167.357 208.319 166.334 210.212 165.566 212.094C164.088 215.719 164.555 220.921 159.951 222.322C158.253 222.839 153.976 221.623 154.146 219.576L154.601 219.265C153.628 218.551 152.87 217.618 152.128 216.68C152.098 217.116 152.173 216.995 151.962 217.309C149.629 217.488 146.244 215.076 145.58 212.83C140.24 207.548 152.251 201.225 155.279 198.033C161.368 191.614 166.71 184.189 171.009 176.45C172.536 173.702 173.011 171.347 173.802 168.379C174.09 165.633 174.166 162.993 174.277 160.237Z" fill="#361A0D"/>
<path d="M191.879 165.371C192.746 165.311 192.121 164.917 192.727 165.383C193.961 169.853 189.061 174.009 186.881 177.526C183.202 183.458 179.21 189.215 175.601 195.191C173.307 198.859 170.393 202.633 168.264 206.499C167.357 208.319 166.333 210.212 165.566 212.095C164.088 215.719 164.555 220.921 159.95 222.322C158.252 222.839 153.976 221.623 154.146 219.576L154.6 219.265L154.739 219.324L154.972 219.416C156.373 219.994 158.078 220.268 159.539 219.741C162.724 218.545 162.774 214.465 163.462 211.672C164.159 208.842 165.641 206.287 166.934 203.699C168.913 199.737 171.667 196.154 174.056 192.425C177.785 186.607 181.526 180.798 185.262 174.983C185.926 173.95 186.651 172.895 187.36 171.892C189.427 169.32 190.478 168.444 191.879 165.371Z" fill="#C5A062"/>
<path d="M145.581 212.83C147.982 214.364 148.35 214.742 151.245 214.837C151.412 215.181 152.03 216.391 152.129 216.68C152.098 217.116 152.173 216.994 151.962 217.309C149.629 217.488 146.245 215.076 145.581 212.83Z" fill="#C5A062"/>
<path d="M178.109 157.617C180.368 156.994 187.188 161.488 189.252 162.833C188.703 167.018 185.991 168.418 183.94 171.723C181.667 175.389 179.331 179.004 177.013 182.641C172.51 189.708 167.091 196.743 163.226 204.165C162.385 205.81 161.694 207.523 161.156 209.289C160.417 211.766 160.291 215.356 158.644 216.935C155.486 217.954 153.929 214.213 152.925 211.911C151.364 211.918 147.766 212.268 147.224 210.17C147.055 209.517 147.712 208.486 148.176 208.042C150.831 205.493 153.799 203.242 156.552 200.794C159.223 198.4 162.465 194.634 164.576 191.716C168.326 186.529 173.652 179.295 175.593 173.274C176.174 171.474 176.578 169.622 176.797 167.744C177.115 164.938 176.797 159.535 178.109 157.617Z" fill="#F2D8A6"/>
<path d="M140.009 220.195C141.169 215.434 145.973 216.91 149.479 217.768C155.164 219.16 155.599 223.636 155.22 228.681C154.767 234.726 155.366 241.397 149.497 245.092L149.649 245.394C148.844 247.094 144.621 249.426 142.811 247.492C139.479 243.932 137.263 223.168 140.009 220.195Z" fill="#361A0D"/>
<path d="M140.008 220.195C140.2 225.208 140.729 241.495 144.111 244.799C144.861 245.531 145.885 245.912 146.93 245.846C147.861 245.788 148.654 245.463 149.497 245.092L149.649 245.394C148.843 247.094 144.621 249.425 142.811 247.491C139.479 243.932 137.263 223.167 140.008 220.195Z" fill="#C5A062"/>
<path d="M150.258 221.27C151.014 221.882 151.657 222.425 152.016 223.354C152.732 225.211 151.915 234.019 151.524 236.352C151.328 237.521 151.053 238.695 150.573 239.783C150.116 240.817 149.281 242.124 148.152 242.516C147.611 242.704 146.961 242.638 146.462 242.358C145.443 241.784 145.202 240.396 144.905 239.365C143.664 234.316 143.573 228.66 143.086 223.505C142.758 220.053 142.994 219.31 146.62 220.102C148.007 220.405 148.953 220.687 150.258 221.27Z" fill="#F2D8A6"/>
<path d="M6.6061 193.356C4.14704 190.895 5.81905 187.057 8.10844 185.276C11.8398 182.373 15.7054 178.531 19.5024 175.84C23.7764 172.813 25.058 178.494 24.7364 181.85C27.2324 186.779 17.6477 195.037 13.7287 196.72C12.2978 197.335 11.1456 197.698 9.60754 197.055C8.20797 196.474 6.07111 195.291 5.96435 193.613C6.21346 193.494 6.34399 193.447 6.6061 193.356Z" fill="#361A0D"/>
<path d="M24.7369 181.85C27.2329 186.779 17.6482 195.037 13.7292 196.72C12.2983 197.334 11.1461 197.698 9.60803 197.055C8.20846 196.473 6.07161 195.291 5.96484 193.613C6.21395 193.494 6.34449 193.446 6.60659 193.356C9.66931 195.19 11.3883 194.932 14.394 193.055C15.9179 192.104 17.2906 190.951 18.6298 189.758C21.4347 187.258 23.6324 185.564 24.7369 181.85Z" fill="#C5A062"/>
<path d="M20.9522 178.549C23.769 178.927 20.8789 183.978 19.5343 185.069C16.6178 187.438 13.5644 191.608 9.49767 191.64C6.0274 190.136 11.5874 186.136 12.8852 185.14C15.6339 183.032 18.2303 180.675 20.9522 178.549Z" fill="#F2D8A6"/>
<path d="M37.7932 173.623C34.658 169.855 40.4454 162.26 42.9492 159.282C46.1984 155.416 52.4727 158.626 52.2831 163.979C52.5143 167.777 52.4046 168.459 49.8911 171.449C47.3097 174.519 43.0762 180.253 38.7218 176.263C38.1381 175.718 37.3072 174.68 37.5274 173.821L37.7932 173.623Z" fill="#361A0D"/>
<path d="M37.7933 173.623C41.9088 176.994 44.9299 173.378 47.6385 170.2C49.1403 168.439 51.1637 165.987 52.2832 163.979C52.5144 167.777 52.4047 168.459 49.8911 171.45C47.3098 174.52 43.0763 180.253 38.7219 176.263C38.1382 175.719 37.3073 174.681 37.5275 173.821L37.7933 173.623Z" fill="#C5A062"/>
<path d="M45.9907 160.716C46.7993 160.638 48.2711 160.921 48.6988 161.6C50.2511 164.068 46.2604 167.182 45.0164 169.068C44.4275 169.96 43.2218 171.036 42.5034 171.52C40.9808 172.276 39.074 172.343 39.7633 170.119C40.5833 167.471 43.7445 162.142 45.9907 160.716Z" fill="#F2D8A6"/>
<path d="M63.5472 158.244C64.8531 157.587 67.5898 159.444 68.5545 160.405C68.3228 161.615 67.8055 163.219 67.7715 164.43C68.1207 165.697 68.1481 168.39 67.7747 169.645C68.0411 172.184 69.2918 174.518 71.2586 176.146C72.4751 177.163 73.8741 177.997 75.5026 177.987C74.7802 179.897 78.9433 184.763 79.5207 186.877C80.6054 190.849 80.3198 194.901 80.1849 198.971C80.1342 200.372 79.8665 202.835 80.2102 204.105C81.2461 207.932 84.5914 210.423 85.6842 214.433C86.7015 218.164 86.6431 221.348 86.8197 225.146C86.8557 225.922 86.8986 228.127 87.0498 228.734L87.1597 229.865C87.2735 231.079 87.6358 232.348 87.7432 233.223L87.761 233.393L87.8496 233.695C88.04 234.338 88.1353 234.581 88.4821 235.311C88.9775 236.352 90.4597 237.739 90.6108 238.647C92.0945 239.655 92.8442 239.59 94.6251 239.699C95.5777 238.849 96.1377 238.037 97.2422 237.216C99.0238 235.612 99.5804 228.198 99.8078 225.642C100.558 226.306 101.168 227.136 101.672 227.603L101.772 227.691L101.843 227.77C103.298 229.458 102.915 233.743 104.795 236.551C107.893 239.014 110.109 241.313 113.786 237.964C114.626 236.848 114.78 236.844 115.519 235.541C115.564 235.359 116.15 233.939 116.292 233.465C116.367 233.102 116.617 231.704 116.801 231.476L117.073 231.563L117.123 231.728L117.353 231.732C117.272 232.504 117.151 232.971 116.967 233.713C116.367 235.332 116.028 236.359 115.031 237.75C114.477 238.579 114.253 238.783 113.547 239.474C110.599 241.981 107.364 240.283 104.676 238.568C103.835 237.92 103.274 236.887 102.693 235.977C102.388 237.257 101.462 237.78 100.425 238.588C100.338 238.655 100.18 238.672 100.066 238.691L99.7473 238.465C98.7831 239.345 97.9825 239.99 96.6431 240.277C94.2615 241.008 91.6195 240.599 89.8157 238.809C88.2933 236.944 87.6691 235.581 87.0144 233.304C86.8038 232.412 86.6719 231.557 86.5241 230.655L86.467 229.965C86.353 229.412 86.2101 227.062 86.1702 226.308C85.9518 222.176 85.5421 219.385 83.9402 215.533C82.293 211.572 79.0823 209.304 77.8871 205.307C77.3706 203.55 77.2923 201.198 77.3034 199.411C77.3497 191.888 75.0794 185.215 68.7126 180.815C65.7385 178.76 63.625 173.738 63.2328 170.182C62.9973 168.048 62.2269 160.035 63.5472 158.244Z" fill="#D7B180"/>
<path d="M102.02 187.728C103.622 188.236 103.304 192.058 103.316 193.415C103.315 194.761 103.356 196.396 103.291 197.719C103.3 199.159 103.275 200.677 103.307 202.106C102.78 200.24 102.239 195.41 102.177 193.403C101.915 195.216 101.811 197.115 101.676 198.947C101.687 199.805 101.695 200.063 101.522 200.895C101.509 202.922 101.213 204.223 100.509 206.11C100.496 204.737 100.605 202.702 100.732 201.321C100.769 200.225 100.823 199.353 100.934 198.262C100.947 196.568 100.584 188.544 102.02 187.728Z" fill="#D7B180"/>
</svg>
