<svg width="218" height="186" viewBox="0 0 218 186" fill="none" xmlns="http://www.w3.org/2000/svg">
<path d="M106.84 0.535271C128.272 -0.100267 148.211 7.89061 164.568 21.4555C169.789 25.7852 174.676 30.5774 178.659 36.0915C181.002 39.3318 183.067 42.7648 184.831 46.3533C185.541 47.7868 186.719 51.3543 187.85 52.3007C188.864 53.1495 192.766 53.1101 194.258 53.327C199.72 54.1211 205.442 55.6821 209.605 59.5036C216.005 65.3761 217.43 74.9732 217.803 83.2392C218.256 93.3337 217.598 106.856 209.455 114.054C205.386 117.65 199.726 119.505 194.467 120.467C192.142 120.893 188.875 120.796 187.295 122.821C186.252 124.16 185.606 126.957 185.015 128.588C184.418 130.201 183.798 131.806 183.153 133.402C178.973 143.734 173.511 153.05 165.941 161.3C151.136 177.436 133.418 184.564 111.729 185.496C103.752 185.554 95.836 184.952 88.0852 182.952C70.6396 178.453 55.4779 166.968 45.2992 152.221C42.965 148.839 40.9618 145.273 39.1122 141.609C38.0512 139.537 37.0527 137.435 36.118 135.304C35.2686 133.356 31.3227 123.162 30.636 122.434C30.2072 121.981 29.6513 121.703 29.0564 121.533C27.9611 121.216 26.7533 121.148 25.6274 120.955C22.8592 120.482 20.0561 119.982 17.3755 119.132C14.0355 118.072 10.6952 116.385 8.13486 113.96C1.37551 107.559 0.537265 96.2589 0.369183 87.4817C0.251357 82.6068 0.733119 77.7361 1.80341 72.9788C2.52972 69.7386 3.4585 66.4901 5.15351 63.6083C8.90205 57.235 16.2674 54.4625 23.2662 53.4911C24.7695 53.2824 28.7139 53.3918 29.808 52.4396C30.0909 52.1932 30.3532 51.8832 30.5296 51.5511C31.0046 50.6572 31.3451 49.6656 31.7724 48.7448C32.6928 46.7964 33.6913 44.8861 34.7654 43.0183C38.26 37.0021 42.5757 31.7666 47.3858 26.7582C62.894 10.4109 84.31 0.964974 106.84 0.535271ZM192.975 97.5622C194.181 97.258 195.119 96.9574 196.072 96.117C198.562 93.1148 198.627 87.4448 198.293 83.764C198.116 81.819 197.68 78.9162 196.078 77.6032C195.245 76.9201 194.332 76.7718 193.284 76.7751C194.168 83.7704 193.773 90.578 192.975 97.5622ZM22.0168 96.634C22.9242 97.27 23.7176 97.5069 24.8064 97.6572C23.9833 93.0716 23.6625 88.4101 23.8497 83.755C23.8941 82.6102 24.4882 77.3826 24.3271 76.9055L24.2724 76.8747C23.1556 77.0027 22.2243 77.1969 21.4754 78.1114C19.2155 80.8711 19.32 87.5776 19.7555 91.018C20.0136 93.0571 20.4808 95.1576 22.0168 96.634Z" fill="#352719"/>
<path d="M106.76 35.1671C106.848 35.1603 106.937 35.1546 107.026 35.1502C121.482 34.5359 135.594 39.6772 146.267 49.4474C156.049 58.6956 161.832 71.3995 162.382 84.8504C162.744 95.2826 159.303 107.077 153.428 115.688C151.696 118.227 149.569 120.536 147.474 122.773C138.497 132.358 124.594 138.685 111.479 139.116L109.609 139.182C95.9371 139.596 82.8207 134.963 72.8399 125.534C62.2865 115.562 56.0187 103.677 55.6395 89.0151C55.2535 74.9788 60.4379 61.3602 70.0602 51.134C79.9703 40.7337 92.486 35.5194 106.76 35.1671Z" fill="#447B7C"/>
<path d="M103.697 45.6189C106.053 45.5224 108.413 45.5668 110.765 45.752C118.271 46.3516 125.587 48.5296 131.931 52.6108C133.944 53.9067 135.913 55.3636 137.461 57.2104C137.952 57.7948 138.813 58.9188 138.659 59.7077C138.605 59.9847 138.5 60.1675 138.273 60.3378C136.416 61.728 130.254 60.2126 127.945 59.9242C124.409 59.4826 119.604 59.1931 116.659 61.5863C115.455 62.5693 114.701 63.9986 114.572 65.547C114.442 67.2665 115.228 69.714 116.368 70.9987C120.322 75.4569 126.691 77.7575 132.087 80.0565C135.462 81.4944 138.906 83.0321 141.535 85.6727C143.458 87.6053 144.371 89.9192 144.33 92.6364C144.306 94.2907 143.908 95.8694 143.295 97.3999C141.544 101.761 137.742 103.886 134.062 106.402C133.022 107.112 131.955 107.827 131.059 108.72C129.285 110.485 129.157 112.158 129.139 114.54C129.127 116.162 128.536 117.098 127.4 118.206C126.051 119.52 124.427 120.475 122.74 121.288C116.85 124.131 110.845 124.376 104.447 124.294C103.166 124.16 101.891 124.105 100.614 123.906C95.9506 123.174 90.7927 121.427 87.0449 118.475C85.6162 117.35 84.146 115.817 83.9737 113.921C83.9276 113.413 83.9845 112.902 84.3295 112.504C85.7827 110.826 91.6889 112.333 93.7909 112.627C94.7592 112.767 95.7382 112.819 96.7157 112.783C99.6145 112.687 103.169 111.727 105.198 109.519C106.1 108.538 106.811 107.283 106.721 105.913C106.569 103.624 104.561 101.979 102.931 100.602C100.549 98.5878 97.8864 97.0416 95.1478 95.5712C91.0742 93.383 85.8393 90.6321 81.0672 92.0869C78.6218 92.8323 76.703 94.6995 74.0672 94.8726C72.5515 94.9712 71.3997 94.6659 70.2617 93.6559C66.4908 90.3123 65.2982 85.4751 64.9884 80.6488C64.4843 72.7988 68.1922 65.3627 73.2845 59.6187C78.4994 53.7364 87.2573 48.699 94.8864 46.7991C97.7625 46.0828 100.744 45.7997 103.697 45.6189Z" fill="#629794"/>
<path d="M42.2902 132.695C41.4404 131.418 40.7333 130.014 39.9996 128.666C35.1868 119.829 31.4569 109.805 29.659 99.8923C26.1504 80.547 30.9168 56.3636 42.1708 40.16C53.9791 23.1581 72.4186 10.4091 92.9096 6.75389C109.042 3.77927 125.693 5.61784 140.788 12.0404C144.237 13.4843 148.01 15.1471 151.086 17.2902C151.205 19.0493 150.973 20.5997 150.108 22.1518C148.426 25.1716 145.693 26.376 142.529 27.2736C141.001 26.1792 139.468 24.9592 137.815 24.0641C131.109 20.4308 120.733 18.5541 113.167 18.0338C95.5842 16.8246 77.9388 21.5614 64.5399 33.2675C60.5612 36.7436 57.1974 40.7917 54.0619 45.0314C52.0074 47.8094 49.9473 50.6352 48.2253 53.6358C43.7685 61.4019 41.3863 70.4891 40.7868 79.3899C40.095 89.6631 41.4136 100.361 45.247 109.956C45.8113 111.368 46.5026 113.468 47.5415 114.562C47.7204 114.75 47.9458 114.907 48.213 114.896C48.5581 114.88 48.7531 114.761 48.966 114.492C49.1878 114.212 49.245 113.789 49.2194 113.443C49.1249 112.169 48.243 110.76 47.7776 109.576C47.4214 108.668 47.1397 107.724 46.8539 106.794C45.2811 101.667 44.2047 96.6208 43.6943 91.2766C41.8899 72.3831 48.1512 56.8479 60.0816 42.4466C67.5548 33.4254 78.4313 26.8285 89.6596 23.6656C91.7474 23.0775 93.9888 22.444 96.1515 22.2429C99.7833 21.4968 103.45 21.5059 107.138 21.5056C109.445 21.5054 111.783 21.437 114.087 21.5547C118.759 21.7935 125.313 22.7201 129.591 24.5556C129.604 26.0404 129.317 30.0477 129.796 31.1924C130.102 31.4006 130.152 31.3797 130.527 31.3726C130.927 31.1813 131.112 30.9818 131.274 30.5636C131.866 29.0323 131.656 26.5538 131.633 24.8997C134.357 26.0433 139.066 27.9037 141.245 29.7957L141.331 29.9057C140.173 32.8654 138.856 35.7727 137.638 38.7101C134.032 36.4898 129.806 34.9327 125.758 33.7402C120.596 32.2203 115.387 31.6535 110.022 31.5468C99.1975 31.3316 90.4858 32.8802 80.9142 38.1234C68.2594 44.987 58.8392 56.5843 54.7151 70.3772C50.855 83.2261 51.5247 97.0116 56.6122 109.425C57.7148 112.111 59.064 114.647 60.4627 117.187C59.3204 119.028 57.9576 120.56 57.1226 122.603C56.6968 123.644 56.5864 124.802 56.1901 125.858C56.1763 125.896 56.1617 125.932 56.1477 125.968C54.4308 126.711 52.6529 127.038 50.79 127.082C50.0893 127.098 49.3519 127.043 48.6574 127.132C45.9164 127.482 43.8869 130.698 42.2902 132.695Z" fill="#BC7E3F"/>
<path d="M96.1515 22.2428C99.7833 21.4967 103.45 21.5058 107.138 21.5055C109.445 21.5054 111.783 21.4369 114.087 21.5546C118.759 21.7934 125.313 22.72 129.591 24.5555C129.604 26.0403 129.317 30.0476 129.796 31.1923C130.102 31.4006 130.152 31.3796 130.527 31.3725C130.927 31.1813 131.112 30.9817 131.274 30.5635C131.866 29.0323 131.656 26.5537 131.634 24.8996C134.357 26.0432 139.066 27.9037 141.245 29.7956C139.605 29.326 137.986 27.9896 136.436 27.2367C135.062 26.5703 133.567 26.1916 132.172 25.5685C132.188 26.9697 131.939 28.3305 131.696 29.7069C131.579 30.3722 131.403 31.2128 130.762 31.5756C130.441 31.7568 130.192 31.7103 129.855 31.6476C128.693 30.7796 129.956 26.6658 129.414 25.1857C129.265 24.7785 129.037 24.7142 128.67 24.5561L128.589 24.3584C128.381 24.3962 128.219 24.4395 128.01 24.37C127.198 24.0988 124.915 23.7971 124.405 23.3422C123.976 22.9585 122.507 22.8857 121.885 22.7847C120.701 22.5921 119.523 22.2717 118.337 22.1233C114.76 21.6762 111.228 21.6953 107.636 21.6935C106.194 21.6928 104.724 21.6014 103.285 21.6784C101.363 21.781 97.8406 22.5653 96.1515 22.2428Z" fill="#AA6A2E"/>
<path d="M153.259 19.0334C157.027 21.6636 160.761 24.2007 164.222 27.2351C177.432 38.8134 184.689 53.6604 187.751 70.825C188.667 75.9684 189.291 81.2568 189.232 86.4893C189.058 101.753 183.631 121.359 174.85 133.913C166.917 145.252 152.991 154.942 140.605 160.859C137.515 162.335 134.235 163.563 131.059 164.843C129.337 164.813 127.053 165.691 125.289 166.001C121.883 166.609 118.447 167.039 114.996 167.287C104.758 168.122 92.549 166.346 82.9183 162.78C81.0827 162.101 79.2188 161.397 77.4289 160.603C75.1583 159.595 72.9555 158.497 70.6199 157.64C70.5777 157.608 70.5359 157.574 70.4932 157.542C68.6499 156.156 66.0474 155.215 64.0344 153.858C57.0276 149.135 48.5353 141.367 43.7333 134.396C45.3528 132.173 47.0909 129.417 50.0454 128.993C52.3269 128.665 54.2392 128.94 56.5212 128.156C58.1782 131.703 61.2988 134.499 64.1823 137.059C65.1233 137.895 66.3193 138.762 67.0184 139.81C67.2493 140.156 67.3656 140.659 67.4891 141.056C69.8773 142.87 72.579 144.39 75.126 145.978C74.3796 148.697 73.5652 152.415 75.0849 155.014C75.4231 155.593 75.9984 156.283 76.7024 156.405C76.9527 156.45 77.0819 156.419 77.3153 156.338C77.528 156.092 77.5672 156.043 77.6269 155.726C77.3659 154.868 76.8094 154.145 76.5342 153.307C76.0133 151.722 76.52 148.617 77.0081 147.031C94.1318 155.429 113.883 156.713 131.95 150.602C136.486 149.039 140.965 146.978 144.941 144.274C146.369 143.303 147.703 142.191 149.092 141.163C150.748 139.939 152.426 138.757 154.012 137.441C160.968 131.738 166.607 124.595 170.542 116.506C178.979 99.1853 179.375 80.9542 173.13 62.8701C171.558 58.3199 167.057 48.1139 163.575 45.0721C162.237 43.9021 160.589 43.2414 159.141 42.2421C158.254 41.6298 157.524 40.8145 156.803 40.0213C152.71 35.5226 152.311 32.6765 146.348 29.8178C145.712 29.512 145.058 29.248 144.389 29.0275C147.6 27.9598 150.495 25.9586 152.028 22.8744C152.643 21.6397 153.006 20.3842 153.259 19.0334Z" fill="#BC7E3F"/>
<path d="M143.124 31.0964C145.964 32.5594 149.051 34.129 151.064 36.6864C152.318 38.2803 153.441 40.0523 154.867 41.4996C156.656 43.3136 158.796 44.584 160.759 46.169C163.427 48.3236 165.412 52.735 166.857 55.8307C173.339 69.7195 176.338 85.1223 172.987 100.277C172.287 103.439 171.241 106.493 170.133 109.532C167.264 117.403 163 124.663 157.035 130.589C155.159 132.452 153.098 134.141 151.089 135.858C146.516 139.767 142.214 142.935 136.729 145.476C123.524 151.445 108.75 153.015 94.5853 149.956C90.7297 149.135 86.9688 147.911 83.2707 146.557C81.7762 145.987 80.3 145.357 78.819 144.751C80.2496 142.14 81.2994 139.291 82.6053 136.609C84.1393 137.263 85.6263 138.004 87.1906 138.59C97.3454 142.389 108.056 143.592 118.756 141.675C133.007 139.122 147.191 130.823 155.511 118.83C164.159 106.578 167.454 91.3367 164.638 76.6064C162.69 65.9386 157.683 55.5727 149.869 47.9575C146.692 44.8626 143.196 42.3269 139.565 39.8112C140.445 36.8734 141.925 33.9289 143.124 31.0964Z" fill="#AA6A2E"/>
<path d="M131.059 164.843C131.025 165.269 130.985 165.611 131.287 165.959C131.459 166.156 131.68 166.231 131.94 166.245C134.166 166.364 138.478 164.241 140.657 163.347C152.217 158.608 160.819 153.277 169.742 144.519C171.26 143.029 172.721 141.518 174.154 139.945C175.231 138.762 176.275 137.486 177.456 136.407L177.576 136.3C176.543 137.992 175.669 139.781 174.705 141.511C173.504 143.64 172.244 145.734 170.926 147.792C163.995 158.577 154.335 167.337 142.927 173.184C125.959 181.91 103.477 183.195 85.3986 177.359C70.336 172.497 58.1552 162.194 48.8789 149.574C46.9041 146.887 44.5092 143.588 43.0015 140.641C42.1689 139.352 41.5306 137.987 40.8832 136.6C41.8895 137.713 42.8437 138.875 43.8095 140.023L43.8846 140.09C45.5024 141.554 46.9447 143.285 48.5158 144.813C54.4976 150.628 60.687 156.001 68.2602 159.615C69.3279 160.124 71.3853 161.223 72.6022 161.112C72.7997 161.094 72.9441 160.979 73.096 160.866C73.2337 160.603 73.3457 160.455 73.2591 160.143C72.9364 158.987 70.9996 158.853 70.6199 157.64C72.9555 158.497 75.1582 159.595 77.4289 160.603C79.2188 161.397 81.0827 162.101 82.9183 162.78C92.5489 166.346 104.758 168.122 114.996 167.287C118.447 167.039 121.883 166.609 125.289 166.001C127.053 165.691 129.337 164.813 131.059 164.843Z" fill="#AA6A2E"/>
<path d="M40.8832 136.6C41.8895 137.713 42.8437 138.874 43.8095 140.023L43.6433 140.082C43.1416 139.752 42.7755 139.284 42.3825 138.836C42.6388 139.331 43.0084 139.89 43.0902 140.445L43.0015 140.641C42.1689 139.352 41.5306 137.987 40.8832 136.6Z" fill="#BC7E3F"/>
<path d="M188.409 57.5897C189.681 57.8129 190.999 57.8957 192.283 58.0522C196.07 58.5141 199.802 59.3067 203.203 61.1093C207.787 63.5396 209.853 67.7378 211.309 72.5173C213.186 78.6813 213.385 85.3213 213.105 91.7082C213.014 93.7978 212.935 95.8766 212.537 97.9361C212.046 100.478 211.216 103.01 209.977 105.288C206.996 110.764 202.691 112.904 196.94 114.611C194.03 115.401 191.103 115.873 188.125 116.319C189.606 111.763 190.598 107.122 191.716 102.47C194.358 102.214 196.907 101.663 198.88 99.7528C202.259 96.4814 202.64 91.0987 202.703 86.6617C202.765 82.3135 202.192 77.1759 198.971 73.917C196.826 71.7468 194.345 71.5634 191.449 71.5407C190.644 66.7991 189.663 62.2295 188.409 57.5897Z" fill="#BC7E3F"/>
<path d="M28.4016 57.8839C28.65 57.8384 28.7893 57.8382 29.0328 57.906C27.8949 62.5183 26.8211 67.0695 26.1478 71.7817C23.5676 71.7536 21.3595 71.8474 19.295 73.5856C16.456 75.976 15.628 79.6355 15.3524 83.1712C14.9754 88.0117 15.0894 95.6457 18.4164 99.4666C20.5387 101.904 23.0819 102.462 26.1564 102.685C26.8323 107.344 28.3315 111.948 29.6893 116.444C27.0952 116.11 24.5375 115.704 22.0042 115.044C18.5958 114.075 15.0184 112.946 12.2092 110.712C7.78849 107.196 6.05717 101.887 5.44929 96.4609C4.4141 87.2201 4.78778 71.8093 10.851 64.296C14.9685 59.1937 22.342 58.5256 28.4016 57.8839Z" fill="#BC7E3F"/>
<path d="M61.8262 119.116C62.7501 119.753 65.5518 123.341 66.5442 124.424C70.7664 129.031 75.3437 132.549 80.7724 135.631C79.4182 138.3 78.2299 141.105 77.0778 143.866C74.6554 142.766 71.2441 140.492 69.1865 138.813C67.9406 137.797 66.8041 136.606 65.6407 135.494C63.4141 133.366 60.7671 131.122 59.0847 128.525C58.6934 127.922 58.4305 127.329 58.3702 126.605C58.156 124.032 60.265 120.995 61.8262 119.116Z" fill="#814E1E"/>
</svg>
