<svg width="226" height="178" viewBox="0 0 226 178" fill="none" xmlns="http://www.w3.org/2000/svg">
<path d="M195.207 56.7873C196.459 57.007 197.566 57.062 199.094 57.2482C203.129 57.7402 207.318 58.6063 211.205 60.6662C216.783 63.6234 219.167 68.7197 220.73 73.8508L220.731 73.8517C222.788 80.6091 222.982 87.7942 222.688 94.4924C222.601 96.481 222.521 98.6548 222.14 100.84L222.06 101.277C221.55 103.92 220.702 106.595 219.43 109.066L219.169 109.557C215.654 116.015 210.491 118.484 204.295 120.323L204.243 120.339C201.088 121.195 197.941 121.7 194.855 122.162L191.132 122.72L192.295 119.14C193.791 114.538 194.787 109.874 195.962 104.983L196.351 103.369L198.002 103.209C200.62 102.955 202.573 102.443 204.02 101.042H204.021C205.333 99.7722 206.15 98.0084 206.635 95.8771C207.122 93.7384 207.236 91.402 207.268 89.1349V89.134C207.332 84.682 206.688 80.2548 204.079 77.6144C202.579 76.0974 200.901 75.8702 197.932 75.8469L195.982 75.8322L195.655 73.9084C194.832 69.0677 193.833 64.4117 192.556 59.6887L191.601 56.1555L195.207 56.7873Z" fill="#814E1E" stroke="#352719" stroke-width="4.65698"/>
<path d="M29.6099 57.0255C29.9567 57.0354 30.2521 57.0979 30.4937 57.1652L32.6714 57.7716L32.1294 59.966C30.9527 64.735 29.8668 69.3468 29.188 74.0978L28.8999 76.1183L26.8579 76.0968C24.205 76.068 22.7178 76.2154 21.2915 77.4162C19.1102 79.2528 18.3081 82.2026 18.0327 85.7365C17.8448 88.1487 17.7855 91.1999 18.1675 94.0763C18.5584 97.0198 19.3679 99.431 20.6382 100.89L20.938 101.215C22.3534 102.663 24.0171 103.158 26.5132 103.383L27.061 103.428L28.9282 103.564L29.1968 105.415C29.8648 110.021 31.347 114.58 32.7769 119.316L33.8169 122.758L30.2505 122.298C27.5276 121.947 24.7691 121.512 22.0083 120.793L21.9829 120.786L21.9585 120.779C18.4565 119.784 14.3251 118.516 11.0093 115.879C5.72724 111.679 3.80706 105.442 3.14893 99.5675C2.59687 94.6395 2.41843 88.0777 3.19092 81.714C3.95429 75.4256 5.6876 68.9617 9.24072 64.5587C11.7838 61.4076 15.2616 59.722 18.7446 58.7326C22.19 57.7539 25.87 57.3989 28.9448 57.0734C29.1251 57.0456 29.3516 57.0182 29.6099 57.0255Z" fill="#814E1E" stroke="#352719" stroke-width="4.65698"/>
<circle cx="111.794" cy="89" r="89" fill="#352719"/>
<path d="M110.307 35.8764C110.398 35.8693 110.49 35.8635 110.582 35.8589C125.543 35.2232 140.147 40.5438 151.192 50.6548C161.315 60.2257 167.3 73.3727 167.87 87.2929C168.244 98.0889 164.683 110.295 158.603 119.206C156.811 121.834 154.61 124.223 152.441 126.539C143.152 136.458 128.763 143.005 115.191 143.452L113.255 143.52C99.1065 143.948 85.5325 139.154 75.2035 129.395C64.2821 119.076 57.7956 106.776 57.4031 91.6028C57.0037 77.0769 62.3689 62.9832 72.3269 52.4003C82.5827 41.6372 95.535 36.241 110.307 35.8764Z" fill="#447B7C"/>
<path d="M107.137 46.6929C109.575 46.5929 112.018 46.6389 114.452 46.8306C122.22 47.4511 129.791 49.705 136.356 53.9286C138.44 55.2697 140.476 56.7775 142.079 58.6886C142.587 59.2934 143.478 60.4567 143.318 61.273C143.262 61.5597 143.154 61.749 142.919 61.9251C140.998 63.3639 134.621 61.7956 132.231 61.4971C128.572 61.0401 123.6 60.7405 120.551 63.2172C119.306 64.2345 118.526 65.7136 118.391 67.3161C118.257 69.0956 119.071 71.6284 120.25 72.958C124.342 77.5716 130.933 79.9525 136.517 82.3318C140.01 83.8197 143.575 85.4111 146.295 88.1439C148.285 90.1439 149.23 92.5384 149.187 95.3504C149.163 97.0625 148.751 98.6962 148.116 100.28C146.305 104.793 142.37 106.993 138.562 109.596C137.485 110.331 136.38 111.071 135.453 111.995C133.618 113.821 133.485 115.553 133.466 118.018C133.454 119.697 132.843 120.666 131.667 121.812C130.271 123.172 128.59 124.16 126.845 125.002C120.749 127.943 114.534 128.197 107.913 128.113C106.587 127.973 105.268 127.917 103.946 127.711C99.1205 126.953 93.7827 125.145 89.9042 122.09C88.4256 120.926 86.9042 119.339 86.7259 117.377C86.6781 116.852 86.7371 116.323 87.094 115.912C88.598 114.175 94.7102 115.734 96.8855 116.038C97.8876 116.183 98.9007 116.238 99.9124 116.2C102.912 116.101 106.591 115.107 108.691 112.822C109.624 111.807 110.36 110.508 110.266 109.091C110.109 106.722 108.031 105.019 106.345 103.594C103.879 101.509 101.124 99.9093 98.2897 98.3876C94.074 96.1231 88.6566 93.2763 83.7179 94.7818C81.1872 95.5532 79.2015 97.4855 76.4738 97.6647C74.9052 97.7667 73.7132 97.4507 72.5355 96.4055C68.633 92.9453 67.3989 87.9393 67.0782 82.9447C66.5565 74.8209 70.3938 67.1253 75.6638 61.181C81.0606 55.0935 90.124 49.8804 98.0193 47.9142C100.996 47.1729 104.081 46.8799 107.137 46.6929Z" fill="#629794"/>
<path d="M43.5879 136.806C42.7085 135.485 41.9768 134.032 41.2175 132.637C36.2368 123.492 32.3768 113.118 30.5162 102.859C26.8852 82.8393 31.8179 57.8123 43.4644 41.0435C55.6846 23.4485 74.7674 10.2548 95.9731 6.47206C112.669 3.39367 129.9 5.29637 145.522 11.943C149.091 13.4372 152.996 15.158 156.179 17.3759C156.302 19.1963 156.062 20.8009 155.167 22.4071C153.426 25.5323 150.598 26.7786 147.323 27.7076C145.742 26.575 144.155 25.3124 142.445 24.3861C135.505 20.6261 124.768 18.684 116.938 18.1454C98.7411 16.8941 80.4802 21.7961 66.6138 33.9105C62.4964 37.5079 59.0152 41.6973 55.7703 46.0848C53.6442 48.9598 51.5122 51.8841 49.7302 54.9894C45.1179 63.0263 42.6525 72.4306 42.0321 81.6419C41.3162 92.2735 42.6808 103.345 46.6479 113.274C47.232 114.736 47.9473 116.908 49.0224 118.041C49.2076 118.236 49.4409 118.398 49.7173 118.386C50.0746 118.37 50.2764 118.247 50.4966 117.968C50.7262 117.678 50.7854 117.24 50.7589 116.883C50.6611 115.564 49.7484 114.106 49.2668 112.881C48.8981 111.941 48.6066 110.964 48.3108 110.001C46.6833 104.696 45.5693 99.4739 45.0411 93.9432C43.1737 74.3907 49.6534 58.3135 62 43.4098C69.7339 34.074 80.9898 27.247 92.6098 23.9737C94.7705 23.365 97.09 22.7095 99.3281 22.5014C103.087 21.7292 106.881 21.7387 110.698 21.7383C113.085 21.7382 115.505 21.6674 117.889 21.7892C122.725 22.0363 129.507 22.9953 133.934 24.8947C133.948 26.4314 133.65 30.5784 134.147 31.7631C134.463 31.9786 134.515 31.9569 134.903 31.9496C135.316 31.7516 135.508 31.5451 135.676 31.1123C136.288 29.5277 136.072 26.9627 136.048 25.2508C138.866 26.4344 143.74 28.3597 145.994 30.3176L146.084 30.4315C144.886 33.4944 143.522 36.5032 142.262 39.543C138.53 37.2452 134.157 35.6338 129.967 34.3998C124.626 32.8268 119.234 32.2402 113.683 32.1299C102.48 31.9072 93.4649 33.5098 83.5593 38.9359C70.4631 46.0389 60.7142 58.0408 56.4463 72.3148C52.4516 85.6119 53.1446 99.8783 58.4096 112.725C59.5506 115.505 60.9469 118.129 62.3945 120.758C61.2123 122.663 59.8019 124.248 58.9378 126.362C58.4971 127.44 58.3829 128.638 57.9728 129.731C57.9585 129.77 57.9434 129.807 57.9289 129.845C56.1521 130.614 54.3122 130.952 52.3843 130.998C51.6591 131.014 50.896 130.957 50.1773 131.049C47.3407 131.411 45.2404 134.74 43.5879 136.806Z" fill="#BC7E3F"/>
<path d="M99.3286 22.5013C103.087 21.7291 106.881 21.7386 110.698 21.7382C113.086 21.7381 115.506 21.6673 117.89 21.7891C122.725 22.0362 129.507 22.9952 133.934 24.8946C133.948 26.4313 133.651 30.5783 134.147 31.763C134.463 31.9785 134.515 31.9568 134.904 31.9495C135.317 31.7515 135.508 31.545 135.676 31.1122C136.289 29.5276 136.072 26.9626 136.048 25.2507C138.867 26.4343 143.74 28.3596 145.995 30.3175C144.298 29.8315 142.623 28.4486 141.018 27.6694C139.597 26.9797 138.049 26.5878 136.606 25.943C136.622 27.3931 136.364 28.8013 136.113 30.2257C135.992 30.9143 135.81 31.7841 135.146 32.1596C134.814 32.3471 134.557 32.299 134.208 32.2342C133.005 31.3358 134.313 27.0785 133.752 25.5469C133.597 25.1254 133.361 25.0589 132.981 24.8952L132.898 24.6907C132.683 24.7298 132.515 24.7746 132.298 24.7026C131.458 24.4221 129.096 24.1098 128.568 23.6391C128.124 23.2419 126.603 23.1666 125.96 23.0621C124.734 22.8628 123.515 22.5312 122.288 22.3776C118.587 21.9149 114.931 21.9347 111.213 21.9328C109.721 21.9321 108.2 21.8375 106.711 21.9171C104.722 22.0234 101.077 22.835 99.3286 22.5013Z" fill="#AA6A2E"/>
<path d="M158.429 19.18C162.328 21.9019 166.192 24.5275 169.774 27.6677C183.444 39.6499 190.955 55.0148 194.124 72.7782C195.072 78.1011 195.718 83.5739 195.657 88.9889C195.476 104.785 189.86 125.075 180.773 138.067C172.563 149.801 158.151 159.83 145.333 165.953C142.135 167.481 138.741 168.751 135.454 170.076C133.672 170.045 131.308 170.953 129.483 171.274C125.958 171.904 122.402 172.348 118.831 172.606C108.236 173.469 95.6006 171.631 85.634 167.941C83.7344 167.238 81.8054 166.51 79.9531 165.688C77.6032 164.645 75.3237 163.509 72.9066 162.622C72.8629 162.588 72.8196 162.553 72.7754 162.52C70.8679 161.086 68.1746 160.112 66.0913 158.707C58.8401 153.82 50.0515 145.781 45.082 138.567C46.758 136.266 48.5568 133.414 51.6143 132.975C53.9754 132.635 55.9545 132.92 58.3161 132.109C60.0309 135.78 63.2603 138.674 66.2444 141.323C67.2183 142.188 68.4559 143.085 69.1794 144.17C69.4183 144.528 69.5388 145.048 69.6666 145.459C72.138 147.336 74.934 148.909 77.5699 150.553C76.7975 153.367 75.9546 157.214 77.5273 159.904C77.8773 160.503 78.4727 161.217 79.2012 161.344C79.4603 161.39 79.594 161.358 79.8355 161.274C80.0556 161.019 80.0962 160.969 80.158 160.641C79.8879 159.753 79.312 159.005 79.0271 158.137C78.4881 156.498 79.0125 153.284 79.5176 151.643C97.2387 160.334 117.678 161.662 136.376 155.338C141.07 153.72 145.705 151.588 149.82 148.789C151.298 147.784 152.679 146.633 154.116 145.569C155.83 144.303 157.566 143.08 159.208 141.718C166.407 135.816 172.242 128.424 176.315 120.052C185.046 102.128 185.455 83.2607 178.992 64.5458C177.366 59.8369 172.708 49.2749 169.104 46.1269C167.72 44.9162 166.014 44.2323 164.516 43.1982C163.597 42.5646 162.842 41.7208 162.096 40.9C157.86 36.2443 157.447 33.2989 151.277 30.3405C150.619 30.0241 149.942 29.7508 149.249 29.5226C152.572 28.4177 155.568 26.3467 157.155 23.155C157.79 21.8771 158.166 20.5779 158.429 19.18Z" fill="#BC7E3F"/>
<path d="M147.939 31.6638C150.878 33.1778 154.073 34.8021 156.156 37.4487C157.454 39.0982 158.616 40.932 160.091 42.4298C161.943 44.3071 164.158 45.6218 166.189 47.2621C168.95 49.4919 171.005 54.0572 172.5 57.2609C179.208 71.6341 182.311 87.5743 178.843 103.258C178.119 106.53 177.037 109.69 175.89 112.836C172.921 120.981 168.509 128.495 162.335 134.628C160.394 136.555 158.261 138.303 156.182 140.08C151.449 144.125 146.997 147.403 141.321 150.034C127.655 156.21 112.366 157.835 97.7069 154.67C93.7169 153.82 89.8247 152.553 85.9977 151.152C84.451 150.563 82.9233 149.911 81.3906 149.283C82.8712 146.581 83.9576 143.632 85.309 140.857C86.8965 141.534 88.4354 142.301 90.0543 142.907C100.563 146.839 111.648 148.084 122.72 146.099C137.469 143.458 152.148 134.869 160.758 122.458C169.708 109.779 173.117 94.0054 170.203 78.7613C168.188 67.7214 163.005 56.9938 154.919 49.113C151.632 45.9101 148.013 43.286 144.256 40.6825C145.167 37.6422 146.698 34.5951 147.939 31.6638Z" fill="#AA6A2E"/>
<path d="M63.8051 122.754C64.7612 123.413 67.6606 127.126 68.6876 128.247C73.0572 133.015 77.7942 136.656 83.4122 139.845C82.0108 142.607 80.781 145.51 79.5887 148.368C77.0818 147.229 73.5515 144.875 71.4221 143.138C70.1327 142.087 68.9567 140.854 67.7526 139.703C65.4484 137.5 62.7091 135.179 60.968 132.491C60.563 131.866 60.2909 131.253 60.2285 130.504C60.0068 127.841 62.1895 124.698 63.8051 122.754Z" fill="#814E1E"/>
</svg>
