<svg width="571" height="588" viewBox="0 0 571 588" fill="none" xmlns="http://www.w3.org/2000/svg">
<path opacity="0.9" d="M141.297 335.893C113.111 358.03 83.616 387.692 75.4923 424.501C73.2071 434.858 72.794 448.523 74.4347 461.792C76.003 474.473 79.4803 487.038 85.2015 496.087L84.9097 496.494L85.4758 497.584C86.4406 499.442 88.3087 501.215 90.2612 502.511C92.2036 503.8 94.5991 504.864 96.7923 504.924L98.178 504.963L98.3282 504.593C98.9652 504.624 99.6034 504.636 100.243 504.625C104.495 504.593 109.735 502.61 115.163 499.757C120.661 496.866 126.626 492.934 132.408 488.7C143.968 480.236 154.978 470.439 160.347 465.005L160.94 464.405L160.924 463.562C160.889 461.692 160.437 459.29 159.869 456.799C159.296 454.287 158.554 451.48 157.892 448.823C157.221 446.128 156.625 443.562 156.296 441.386C155.951 439.104 155.967 437.638 156.21 436.925C156.244 436.823 156.275 436.769 156.291 436.746C156.38 436.718 156.698 436.672 157.387 436.843C158.81 437.196 160.735 438.18 163.006 439.456C165.159 440.667 167.592 442.123 169.723 443.108C170.799 443.606 171.903 444.035 172.95 444.259C173.967 444.476 175.188 444.556 176.319 444.048L176.319 444.046C178.437 443.095 180.331 440.916 181.819 438.933C183.336 436.909 184.806 434.547 185.787 433.119C209.881 398.04 226.539 358.309 246.67 321.414C251.094 313.307 254.962 305.078 259.654 297.394L260.391 296.187L259.5 295.09C256.348 291.208 253.259 287.273 250.237 283.287L249.47 282.277L248.229 282.539C236.524 285.013 227.378 288.534 216.552 293.18C197.539 301.342 178.003 309.679 160.323 320.939L160.322 320.938C156.893 323.123 153.657 325.713 150.538 328.31C147.388 330.933 144.395 333.533 141.32 335.874L141.309 335.883L141.297 335.893Z" fill="#668A51" stroke="#32411A" stroke-width="4"/>
<path d="M130.851 406.92C113.838 432.004 97.1001 466.852 92.6862 497.233C92.466 498.747 92.2362 499.641 93.6707 500.458C94.8653 500.295 95.6553 496.003 96.0266 494.677C99.5014 481.939 104.261 469.583 110.228 457.804C112.91 452.577 115.44 446.837 118.237 441.748C134.741 411.714 156.618 380.593 180.033 355.837C193.453 340.829 209.511 327.839 225.114 315.192C228.947 312.086 245.893 299.835 246.325 296.639L245.86 296.268C242.145 296.7 235.667 301.676 232.108 303.815C199.731 323.267 172.964 351.004 149.565 380.343C142.884 388.72 137.007 398.13 130.851 406.92Z" fill="#38663D"/>
<path opacity="0.9" d="M257.97 296.068C263.122 297.453 265.915 298.033 271.066 298.763C276.512 298.665 279.949 298.608 285.263 297.842L287.061 297.583L287.49 299.348C289.796 308.797 292.876 318.646 296.046 328.561C299.208 338.452 302.464 348.421 305.083 358.016L305.084 358.021C311.043 380.046 314.487 402.673 315.348 425.477C315.465 428.347 315.86 442.098 315.63 455.359C315.515 461.983 315.243 468.538 314.694 473.567C314.421 476.07 314.071 478.276 313.61 479.948C313.382 480.778 313.103 481.566 312.743 482.217C312.417 482.807 311.837 483.63 310.844 483.985L310.164 484.229L309.486 483.981C307.96 483.425 306.103 482.22 304.273 480.961C302.337 479.628 300.35 478.175 298.259 476.795C296.185 475.427 294.199 474.263 292.438 473.575C291.076 473.044 290.067 472.882 289.342 472.956C289.316 473.125 289.298 473.362 289.309 473.688C289.338 474.55 289.558 475.71 289.98 477.143C290.822 479.994 292.347 483.541 294.13 487.203C297.69 494.514 302.097 501.927 303.611 504.597L303.994 505.271L303.822 506.027C302.67 511.092 299.808 518.642 297.718 523.286C294.698 529.991 288.982 545.693 281.803 559.056C278.197 565.767 274.124 572.092 269.679 576.575C265.266 581.025 260.13 584.005 254.491 583.124L254.379 583.106L254.27 583.076C252.162 582.496 250.132 581.662 248.227 580.591L248.209 580.581C243.759 578.019 239.145 572.501 234.713 565.748C230.228 558.915 225.748 550.529 221.637 541.902C213.422 524.664 206.578 506.243 204.07 496.919C192.957 455.603 201.591 405.673 215.704 366.404C220.18 353.95 227.039 342.15 234.321 330.721C241.648 319.222 249.331 308.201 255.714 297.009L256.479 295.668L257.97 296.068Z" fill="#668A51" stroke="#32411A" stroke-width="4"/>
<path opacity="0.8" d="M257.451 298C262.731 299.418 265.607 300.013 270.942 300.765L271.019 300.833C273.451 304.679 268.013 329.924 267.055 335.813L263.145 361.26C253.79 424.53 249.306 487.96 255.533 551.805C255.93 555.872 260.073 577.891 258.725 580.099L256.94 580.632C255.947 581.018 255.87 581.004 254.8 581.148C252.848 580.611 250.97 579.839 249.206 578.848C233.172 569.616 210.937 514.747 206.002 496.399C195.039 455.647 203.537 406.172 217.586 367.081C226.383 342.604 244.625 320.49 257.451 298Z" fill="url(#paint0_linear_3033_255)"/>
<path d="M271.019 300.833C273.451 304.679 268.013 329.924 267.055 335.813L263.145 361.26C253.79 424.53 249.306 487.96 255.533 551.805C255.93 555.872 260.073 577.891 258.725 580.099L256.94 580.632C255.866 574.606 253.873 568.669 252.699 562.623C244.64 521.094 245.415 476.613 248.633 434.647C251.466 395.364 257.037 356.328 265.304 317.821C266.278 313.408 268.209 305.783 270.067 301.442C270.384 301.237 270.701 301.035 271.019 300.833Z" fill="#38663D"/>
<path opacity="0.8" d="M310.324 293.405C334.522 311.729 359.411 329.476 382.056 350L383.342 351.183C395.649 362.659 404.356 375.491 413.792 388.705L415.757 391.444L417.387 393.724C434.159 417.36 448.577 443.535 452.213 473.105L452.402 474.7C453.345 482.873 454.151 493.959 453.782 504.868C453.392 516.415 451.679 528.124 447.135 535.899L447.066 536.017L446.982 536.123C446.171 537.159 445.333 538.041 444.292 538.74C443.241 539.446 442.086 539.898 440.721 540.218H440.72C438.176 540.813 435.093 540.592 431.951 539.977C428.769 539.354 425.334 538.287 421.995 537.032C415.746 534.683 409.655 531.604 405.929 529.3L405.216 528.85C360.452 499.988 332.416 448.571 315.378 399.95C311.078 387.676 308.067 375.6 304.344 363.485C298.892 345.752 292.308 327.339 288.053 309.105L287.665 307.447L289.241 306.801C291.725 305.782 294.077 304.508 296.596 303.191L298.835 301.693C302.321 298.99 304.545 296.854 307.678 293.61L308.91 292.335L310.324 293.405Z" fill="#7F9C51" stroke="#32411A" stroke-width="4"/>
<path opacity="0.9" d="M309.117 295C333.377 313.372 358.154 331.036 380.713 351.482C394.375 363.862 403.518 377.882 414.134 392.614C431.528 416.751 446.536 443.326 450.228 473.35C452.251 489.797 453.96 520.258 445.408 534.89C444.366 534.21 444.424 534.138 443.915 533.041C443.146 531.318 439.075 525.908 437.803 524.038C433.292 517.39 428.691 510.879 424.825 503.807C414.113 484.222 404.406 464.275 393.51 444.786C378.953 418.959 363.076 393.899 345.945 369.703C330.917 348.262 313.96 327.395 298.446 306.269C298.241 305.992 298.008 305.404 297.622 304.912L300.008 303.316C303.627 300.513 305.931 298.298 309.117 295Z" fill="#668A51"/>
<path d="M297.622 304.912L300.008 303.316C311.971 314.571 324.057 331.542 334.256 344.417C339.55 351.099 345.552 358.424 350.515 365.284C372.951 396.667 393.226 429.542 411.201 463.677C421.554 483.34 430.906 504.193 441.86 523.607C443.016 525.651 446.167 529.739 446.198 532.005C445.524 533.208 445.415 533.096 443.915 533.041C443.146 531.318 439.075 525.908 437.803 524.038C433.292 517.39 428.691 510.879 424.825 503.807C414.113 484.222 404.406 464.275 393.51 444.786C378.953 418.959 363.076 393.899 345.945 369.703C330.917 348.262 313.96 327.396 298.446 306.269C298.241 305.992 298.008 305.404 297.622 304.912Z" fill="#38663D"/>
<path opacity="0.9" d="M312.947 269C320.672 269.111 328.496 269.532 336.196 270.13C366.73 272.5 399.636 273.06 429.701 281.044C462.317 289.707 496.828 302.414 521.483 327.01L521.486 327.013C531.189 336.732 537.672 350.031 543.178 362.097L543.874 362.221L544.304 363.2C546.306 367.763 548.638 374.73 550.324 381.733C551.995 388.673 553.108 395.949 552.479 401.011L552.341 402.125L551.607 402.455C551.287 407.392 550.274 412.066 546.983 416.807C546.63 417.346 546.356 417.77 546.02 418.155C545.675 418.549 545.279 418.887 544.774 419.327L544.729 419.367L544.681 419.404C543.101 420.62 541.208 421.969 539.006 422.729L539.005 422.728C536.619 423.552 533.831 423.708 531.225 423.615C528.592 423.521 525.966 423.164 523.855 422.861C518.659 422.119 504.018 418.868 490.068 415.121C483.079 413.244 476.21 411.228 470.74 409.321C468.008 408.369 465.591 407.431 463.669 406.54C461.83 405.688 460.178 404.761 459.228 403.752V403.751C457.161 401.555 455.688 398.593 454.468 396.375L454.467 396.373C451.568 391.092 449.002 385.702 446.496 380.298V380.296C444.849 376.736 443.532 373.262 441.608 370.294L441.607 370.292C441.25 369.74 440.849 369.157 440.41 368.676C440.079 368.313 439.811 368.102 439.617 367.991C439.552 368.071 439.471 368.184 439.38 368.343C439.156 368.732 438.93 369.28 438.714 370.001C438.28 371.447 437.964 373.31 437.693 375.353C437.559 376.364 437.44 377.394 437.322 378.418C437.205 379.435 437.088 380.45 436.964 381.402C436.723 383.241 436.427 385.083 435.932 386.368C435.674 387.037 435.346 387.692 434.808 388.27C434.268 388.848 433.638 389.216 432.996 389.515L432.497 389.746L431.95 389.689C430.805 389.572 429.426 388.921 428.219 388.267C426.913 387.559 425.45 386.642 424.027 385.704C422.599 384.763 421.178 383.778 419.957 382.929C418.715 382.065 417.717 381.368 417.078 380.958C382.831 359.003 353.946 329.903 323.9 303.301C321.196 300.906 318.276 298.629 315.313 296.307C312.371 294 309.388 291.649 306.655 289.168L305.739 288.336L306.075 287.145C306.785 284.627 307.696 282.442 308.669 280.183C308.955 278.799 309.576 277.292 309.954 276.284C310.306 275.163 310.472 274.627 310.584 274.083C310.694 273.548 310.761 272.965 310.853 271.761V271.753L310.854 271.745L310.901 271.175L310.923 270.86L311.056 268.973L312.947 269Z" fill="#668A51" stroke="#32411A" stroke-width="4"/>
<path opacity="0.8" d="M312.918 271C320.592 271.11 328.371 271.528 336.041 272.124C366.751 274.508 399.355 275.055 429.187 282.977C461.733 291.621 495.807 304.22 520.071 328.426C529.741 338.112 536.18 351.535 541.796 363.884L542.473 364.004C546.366 372.873 551.657 391.409 550.495 400.764L550.108 400.938C550.064 399.913 550.149 397.599 549.76 396.915C549.726 403.96 549.452 409.743 545.34 415.666C544.547 416.876 544.554 416.866 543.46 417.82C539.786 413.41 538.146 409.534 534.82 405.077C526.969 394.601 518.137 384.901 508.443 376.1C481.267 351.008 443.417 331.547 409.821 316.723C394.96 310.034 379.846 303.912 364.516 298.375C350.492 293.347 335.904 289.147 321.709 284.56C318.045 283.377 314.282 281.732 310.591 280.777C310.813 279.537 311.401 278.132 311.849 276.929C312.553 274.685 312.662 274.334 312.847 271.913L312.895 271.342L312.918 271Z" fill="#7F9C51"/>
<path d="M311.849 276.929C313.564 278.412 323.935 280.27 327.185 281.204C341.018 285.178 356.022 289.157 369.571 293.857C391.747 301.701 413.403 310.943 434.407 321.529C470.767 339.777 506.782 361.375 532.482 393.764C536.734 399.127 544.253 409.049 545.34 415.666C544.547 416.876 544.554 416.866 543.46 417.82C539.786 413.41 538.146 409.534 534.82 405.077C526.969 394.601 518.137 384.901 508.443 376.1C481.267 351.009 443.417 331.547 409.821 316.723C394.96 310.034 379.846 303.912 364.516 298.375C350.492 293.347 335.904 289.147 321.709 284.56C318.045 283.377 314.282 281.732 310.591 280.777C310.813 279.537 311.401 278.132 311.849 276.929Z" fill="#38663D"/>
<path opacity="0.9" d="M398.775 189.522C432.543 177.512 473.372 168.412 508.832 181.198C518.809 184.796 530.584 191.744 540.926 200.216C550.811 208.313 559.578 217.963 564.174 227.632L564.674 227.603L565.293 228.663C566.349 230.471 566.85 232.997 566.903 235.34C566.956 237.671 566.576 240.264 565.456 242.15L564.749 243.343L564.356 243.272C564.043 243.828 563.712 244.374 563.361 244.908C561.064 248.486 556.589 251.858 551.278 254.924C545.898 258.029 539.388 260.972 532.722 263.601C519.392 268.856 505.23 272.933 497.769 274.571L496.944 274.752L496.24 274.288C494.678 273.26 492.888 271.595 491.086 269.785C489.268 267.959 487.29 265.833 485.397 263.854C483.477 261.848 481.625 259.974 479.962 258.534C478.216 257.023 476.968 256.255 476.235 256.079C476.131 256.054 476.069 256.051 476.041 256.052C475.97 256.113 475.762 256.357 475.538 257.031C475.077 258.423 474.88 260.575 474.747 263.177C474.621 265.644 474.552 268.479 474.248 270.807C474.094 271.982 473.868 273.144 473.498 274.149C473.139 275.125 472.554 276.2 471.521 276.885L471.52 276.884C469.584 278.167 466.73 278.605 464.259 278.804C461.738 279.006 458.956 278.988 457.225 279.055C414.7 280.695 372.212 273.564 330.268 270.885C321.051 270.296 312.028 269.173 303.025 269.037L301.612 269.016L301.16 267.677C299.561 262.938 297.883 258.226 296.127 253.542L295.682 252.354L296.566 251.445C304.908 242.87 312.769 237.017 322.479 230.344C339.531 218.627 357.012 206.561 375.973 197.624V197.623C379.65 195.89 383.569 194.537 387.43 193.287C391.33 192.025 395.126 190.882 398.747 189.532L398.761 189.527L398.775 189.522Z" fill="#668A51" stroke="#32411A" stroke-width="4"/>
<path d="M464.407 218.616C494.701 217.626 533.102 222.081 561.146 234.572C562.544 235.194 563.422 235.477 563.347 237.127C562.571 238.049 558.521 236.426 557.202 236.032C544.576 232.168 531.587 229.594 518.442 228.35C512.59 227.827 506.387 226.901 500.59 226.548C466.383 224.465 428.389 226.345 394.954 232.924C375.099 236.256 355.542 242.897 336.517 249.337C331.845 250.919 312.438 258.705 309.505 257.364L309.44 256.773C311.788 253.863 319.455 251.043 323.163 249.175C356.898 232.187 394.643 224.366 431.943 220.248C442.594 219.072 453.688 219.128 464.407 218.616Z" fill="#38663D"/>
<path opacity="0.9" d="M425.549 63.1806C434.777 62.7102 446.455 63.0805 457.613 65.2236C468.378 67.291 478.905 71.0544 486.22 77.5293L486.918 78.164L486.981 78.2236L487.04 78.289C490.473 82.1181 491.263 86.0356 490.687 89.9424C490.142 93.6377 488.35 97.3616 486.854 100.789L486.854 100.79C484.634 105.868 481.616 110.603 478.642 115.095L477.372 117.005C465.307 135.147 450.529 151.175 434.244 165.486L434.243 165.485C431.716 167.759 428.268 169.638 424.285 169.145L423.896 169.091C417.958 168.132 411.968 165.831 406.561 163.895C405.423 163.487 403.049 163.042 401.092 163.221C400.105 163.311 399.478 163.539 399.158 163.775C398.991 163.898 398.86 164.037 398.851 164.408L398.854 164.583V164.584C399.01 167.131 400.332 170.014 402.149 173.223C403.866 176.255 406.095 179.676 407.417 182.739L407.847 183.736L407.246 184.64C405.771 186.857 403.491 188.822 401.22 190.525C398.99 192.197 396.409 193.866 394.541 195.192C385.65 201.578 376.557 207.674 367.268 213.466H367.267C347.25 225.938 326.541 237.943 307.588 251.766L305.759 253.109C304.546 254.006 303.374 255.07 302.082 256.219C300.824 257.337 299.461 258.529 297.994 259.523L296.753 260.365L295.598 259.409C292.656 256.976 290.904 255.506 287.672 253.828V253.827C287.167 253.565 286.107 253.071 284.985 252.53C284.444 252.269 283.9 252.003 283.443 251.768C283.127 251.605 282.767 251.412 282.475 251.228L282.269 251.142L281.384 250.769L281.122 249.845C280.992 249.387 280.993 248.91 281.005 248.589C281.019 248.218 281.063 247.803 281.123 247.37C281.244 246.501 281.451 245.428 281.71 244.239C282.23 241.855 282.992 238.873 283.8 235.868C285.413 229.871 287.259 223.613 287.792 221.709L288.669 218.605C297.798 186.568 309.232 155.462 329.905 128.474C350.624 101.43 376.712 70.8393 413.188 64.8935H413.189C417.055 64.265 421.37 63.3935 425.549 63.1806Z" fill="url(#paint1_linear_3033_255)" stroke="#32411A" stroke-width="4"/>
<path opacity="0.8" d="M283.419 249.456L283.046 249.299C282.404 247.032 288.625 226.153 289.718 222.248C298.978 189.183 310.39 157.239 331.493 129.69C352.264 102.578 377.916 72.6698 413.51 66.8678C417.485 66.2215 421.618 65.3834 425.651 65.178C443.869 64.2493 471.694 66.6518 485.551 79.624L485.366 80.5985C482.707 80.929 479.518 80.9635 476.709 81.2288C470.262 81.8262 463.888 83.0188 457.664 84.791C438.397 90.365 421.901 100.115 405.546 111.562C363.352 141.098 331.821 181.632 303.226 223.889C297.354 232.57 291.998 241.238 285.49 249.455L285.008 249.39C284.079 249.269 284.144 249.138 283.419 249.456Z" fill="#7F9C51"/>
<path d="M386.366 127.91C408.243 109.615 438.669 89.8223 465.246 80.8658C466.571 80.4192 467.352 80.0743 468.075 81.0998C467.938 82.1026 464.184 83.5036 463.025 84.0401C451.89 89.1197 441.096 95.1791 430.813 102.122C426.25 105.23 421.238 108.305 416.795 111.483C390.582 130.237 363.444 153.562 341.886 177.02C328.813 190.608 317.52 205.992 306.525 220.945C303.825 224.617 293.182 240.595 290.387 241.51L290.06 241.196C290.419 238.092 294.744 231.933 296.599 228.653C313.469 198.824 337.62 172.108 363.191 147.856C370.492 140.931 378.701 134.479 386.366 127.91Z" fill="#38663D"/>
<path opacity="0.9" d="M119.387 239C140.421 238.982 157.697 241.634 178.129 245.549C192.679 248.337 206.985 251.524 221.315 255.353C225.858 256.563 230.391 257.815 234.91 259.108L239.426 260.416L239.433 260.418L239.44 260.42C243.603 261.674 247.159 262.953 251.2 263.977L252.834 264.391L252.703 266.071C252.539 268.179 252.397 270.288 252.278 272.398C252.281 272.856 252.277 273.832 252.282 274.56C252.289 275.488 252.312 276.185 252.345 276.41L252.563 277.905L251.187 278.524C245.175 281.227 239.455 284.378 233.441 287.429L233.44 287.43C224.602 291.91 215.839 296.538 207.059 301.175C198.283 305.809 189.49 310.451 180.616 314.947C164.855 322.934 148.378 329.465 132.47 336.652C130.797 337.408 125.781 339.848 121.041 341.927C118.64 342.98 116.216 343.983 114.181 344.694C113.165 345.049 112.208 345.345 111.377 345.536C110.622 345.71 109.708 345.863 108.908 345.73C107.603 345.514 106.849 344.533 106.45 343.825C106.024 343.068 105.726 342.141 105.499 341.215C105.04 339.343 104.749 336.937 104.504 334.583C104.252 332.166 104.049 329.794 103.773 327.777C103.637 326.777 103.489 325.922 103.323 325.242C103.147 324.518 102.989 324.171 102.917 324.061L102.914 324.057C102.844 323.949 102.767 323.867 102.707 323.821C102.698 323.814 102.69 323.81 102.684 323.806C102.566 323.798 102.274 323.827 101.73 324.23C101.117 324.686 100.396 325.466 99.5801 326.596C97.9532 328.849 96.2597 332.057 94.5215 335.56C92.8172 338.994 91.066 342.721 89.4014 345.763C88.564 347.293 87.7153 348.711 86.8662 349.884C86.0411 351.023 85.1035 352.087 84.0469 352.747C82.3694 353.795 80.3567 354.308 78.5186 354.618C76.7116 354.923 74.7273 355.078 73.3164 355.249L73.3154 355.248C57.2338 357.217 38.2456 357.632 22.1621 354.081V354.082C19.9399 353.592 17.0214 352.904 14.3184 351.778C11.7373 350.703 9.0693 349.115 7.46875 346.642L7.31738 346.399C5.33924 343.129 4.38591 338.823 4.09766 334.636C3.80751 330.421 4.17616 326.106 5.01758 322.684L5.32324 321.479C11.9371 296.219 30.8452 272.098 53.0898 258.836C67.1344 250.463 83.7171 243.086 100.048 240.136C106.521 238.966 113.089 239.005 119.387 239Z" fill="url(#paint2_linear_3033_255)" stroke="#32411A" stroke-width="4"/>
<path d="M250.366 276.7C248.593 276.409 244.241 276.335 242.13 276.131C233.517 275.297 224.558 275.089 215.921 274.896C161.409 273.678 105.962 282.33 57.6715 308.826C50.2097 312.866 42.8064 317.217 35.4666 321.442C31.5202 323.715 22.248 331.313 18.5385 331.658C18.7883 331.227 19.0118 330.824 19.1499 330.342C20.9416 324.067 32.1895 316.773 37.6473 313.259C88.8324 280.318 154.782 266.312 215.131 268.886C226.868 269.387 238.773 269.825 250.278 272.339C250.288 273.27 250.251 275.914 250.366 276.7Z" fill="#38663D"/>
<path opacity="0.9" d="M322.674 5.3125C324.734 4.92243 327.944 4.90157 330.979 5.23047C332.541 5.39969 334.122 5.66777 335.542 6.05273C336.843 6.40539 338.138 6.88956 339.163 7.57324L339.365 7.71289L339.431 7.75977L339.491 7.8125C342.103 10.0295 343.786 13.2038 344.962 16.3955C346.144 19.6032 346.888 23.0398 347.493 25.9238L347.696 26.916C349.772 37.3118 351.059 51.9493 348.64 62.3936C348.3 63.8573 347.252 65.2384 346.204 66.3828C345.099 67.5893 343.72 68.8183 342.354 69.9707C341.044 71.0767 339.506 72.3089 338.385 73.2461C337.156 74.2731 336.263 75.0782 335.784 75.6543V75.6553C334.11 77.6685 331.207 80.7059 328.676 84.0918C327.434 85.7528 326.38 87.3763 325.708 88.832C325.179 89.9776 324.97 90.8429 324.958 91.458C325.26 91.6492 325.67 91.7619 326.278 91.7646C327.237 91.769 328.43 91.4984 329.844 91.0645C331.08 90.6851 332.809 90.0656 334.088 89.708C335.298 89.3697 336.828 89.0289 338.212 89.3252L338.487 89.3936L339.386 89.6465L339.769 90.498C340.104 91.2446 340.096 92.0873 340.062 92.6279C340.022 93.2555 339.91 93.9284 339.778 94.5488C339.517 95.7857 339.13 97.031 338.875 97.707L338.876 97.708C333.963 110.735 329.608 124.003 325.206 137.306C321.084 149.763 316.923 162.249 312.243 174.52L311.3 176.971C305.468 192.007 298.082 206.737 291.753 221.322L291.754 221.323C289.799 225.832 287.932 230.377 286.153 234.957L286.152 234.96C285.109 237.636 283.707 241.85 282.206 244.595L281.966 245.034L281.546 245.309C280.66 245.889 279.769 246.067 278.991 246.111C278.409 246.144 277.615 246.097 277.181 246.085C274.681 246.332 272.191 246.667 269.714 247.089L268.236 247.34L267.58 245.993C245.167 199.99 227.687 150.712 234.487 98.7061C235.224 87.5103 236.465 78.4349 242.418 68.1787C259.79 38.2509 285.581 9.96868 322.674 5.3125Z" fill="url(#paint3_linear_3033_255)" stroke="#32411A" stroke-width="4"/>
<path d="M326.71 15.0478C327.879 14.0497 328.829 13.0442 330.384 13.1016C332.148 14.9924 329.29 17.4277 327.896 18.6544C297.9 46.3294 287.454 85.2662 282.276 124.476C281.955 126.901 281.059 137.929 280.601 138.999C280.393 140.827 280.174 142.622 280.034 144.458C280.071 145.302 279.477 150.635 279.367 151.86C278.793 157.809 278.322 163.768 277.949 169.733C276.756 190.961 276.068 212.143 275.323 233.383C275.222 236.262 275.367 237.937 274.449 240.768C271.876 238.905 272.316 231.877 272.076 228.957C270.752 212.927 271.554 197.049 272.333 180.968C273.039 164.806 274.155 148.665 275.68 132.559C280.543 85.6904 288.524 46.1123 326.71 15.0478Z" fill="#38663D"/>
<path opacity="0.9" d="M59.8174 133.237C64.7779 132.814 75.2083 133.02 80.1367 133.359C106.231 135.154 132.234 148.742 153.97 161.48C158.11 163.907 163.141 167.694 167.056 170.314L167.073 170.326L167.091 170.339C169.5 172.026 172.096 173.577 174.78 175.258C177.428 176.915 180.125 178.677 182.554 180.7C191.342 188.022 199.747 195.937 207.993 203.87L216.194 211.789L216.244 211.836L216.29 211.887C217.821 213.581 219.697 215.241 221.675 217.012C223.611 218.745 225.644 220.585 227.292 222.521C230.782 226.624 234.699 230.604 238.668 234.631C242.617 238.638 246.622 242.695 250.188 246.875L251.16 248.015L250.341 249.268C248.045 252.778 247.047 254.728 245.657 258.65L245.065 260.32L243.337 259.934C242.563 259.761 241.801 259.624 241.019 259.494L238.576 259.094C221.745 256.228 205.081 253.073 188.306 250.299L184.948 249.749C173.268 247.852 161.688 245.568 150.132 243.401L150.131 243.4C124.122 238.516 97.0747 233.756 72.1758 223.747C71.0878 223.31 70.0674 222.924 69.1113 222.562C68.1648 222.205 67.2649 221.865 66.46 221.533C64.9429 220.907 63.3777 220.165 62.3838 219.046C61.836 218.429 61.4332 217.672 61.3096 216.766C61.1894 215.884 61.3554 215.023 61.667 214.217C62.2638 212.672 63.5442 210.951 65.3398 208.952H65.3408C66.5101 207.651 68.7763 205.057 70.4492 202.413C71.2915 201.082 71.912 199.847 72.2002 198.831C72.3664 198.245 72.3865 197.86 72.3594 197.613C71.2049 197.229 69.4456 197.198 67.0283 197.631C64.2675 198.125 61.0587 199.142 57.7217 200.348C54.3266 201.574 51.1079 202.877 47.9668 204.042C44.9674 205.154 42.0954 206.12 39.9111 206.401L39.3398 206.475L38.8164 206.232C32.5794 203.348 24.4 197.193 17.5928 190.096C14.1755 186.533 11.0547 182.682 8.67578 178.821C6.30918 174.98 4.60385 171.012 4.16211 167.234C3.37652 160.515 5.49309 154.993 9.3623 150.571C13.1777 146.211 18.6528 142.961 24.6035 140.527C36.4856 135.667 50.8851 133.814 59.8174 133.238V133.237Z" fill="url(#paint4_linear_3033_255)" stroke="#32411A" stroke-width="4"/>
<path d="M245.452 248.5C243.494 248.119 236.568 241.957 234.154 240.217C223.881 232.811 212.967 224.597 202.347 217.782C184.86 206.71 166.688 196.758 147.942 187.988C115.542 172.765 81.0138 159.602 44.6327 159.443C38.6106 159.419 27.6575 159.615 22.4894 162.463C22.0838 163.669 22.0872 163.659 22.0225 164.934C27.0708 165.078 30.6441 164.104 35.5358 163.98C47.0522 163.712 58.5656 164.545 69.9257 166.462C102.063 171.611 136.112 187.206 164.638 202.38C177.348 209.02 189.803 216.145 201.971 223.736C213.077 230.701 223.917 238.506 234.811 245.83C237.622 247.721 240.807 249.429 243.475 251.463C244.212 250.634 244.864 249.463 245.452 248.5Z" fill="#38663D"/>
<path opacity="0.9" d="M121.865 40.9238C126.246 37.156 131.612 36.5715 136.68 37.2393C141.722 37.9036 146.753 39.8429 150.744 41.4404H150.745C172.811 50.1824 189.313 67.6403 203.231 85.708C204.372 87.1883 205.439 88.9463 206.425 90.5371C207.444 92.1823 208.38 93.6577 209.341 94.7988C216.167 102.909 220.885 111.79 225.628 120.784L227.669 124.644V124.645C230.165 129.34 233.341 134.562 235.518 139.853L235.939 140.911L235.953 140.947L235.966 140.984C239.073 150.119 241.39 160.402 243.912 169.526L244.279 170.841C245.889 176.518 247.698 182.009 249.445 187.695L250.247 190.335L250.248 190.34L256.832 212.533L256.833 212.535C257.179 213.706 257.892 216.221 258.647 218.701C259.024 219.935 259.402 221.134 259.741 222.12C259.841 222.411 259.934 222.672 260.019 222.901L260.595 222.852L261.186 224.124C261.605 225.028 262.342 226.945 262.92 228.836C263.21 229.786 263.476 230.779 263.639 231.669C263.72 232.114 263.783 232.566 263.804 232.995C263.814 233.203 263.816 233.44 263.797 233.689C263.956 234.141 264.152 234.624 264.371 235.149C264.647 235.809 264.971 236.56 265.234 237.279C265.498 237.999 265.748 238.805 265.848 239.617C265.948 240.434 265.915 241.398 265.463 242.326L265.188 242.893L264.637 243.198C263.93 243.591 263.446 243.839 262.704 244.169C261.958 244.548 260.97 245.086 259.987 245.474C259.032 245.919 257.997 246.572 256.875 247.226L255.885 247.803L254.887 247.24C248.076 243.402 240.077 236.924 234.11 232.269V232.268C217.451 219.27 202.338 204.871 186.95 190.743C169.419 174.648 154.593 164.288 139.485 144.89V144.889C130.63 133.642 123.958 120.837 119.815 107.135L119.812 107.127L119.811 107.12C117.332 98.6871 115.359 86.5048 115.044 74.4961C114.731 62.5637 116.043 50.419 120.44 42.3047L120.62 41.9717L120.91 41.7275L121.865 40.9238Z" fill="#668A51" stroke="#32411A" stroke-width="4"/>
<path d="M122.198 43.2574C122.868 44.4052 123.024 44.2733 123.77 45.1558C135.425 58.937 146.766 76.4709 156.343 91.3948L180.061 127.893C187.13 139.105 194.279 150.268 201.508 161.378C204.808 166.345 208.333 171.276 211.774 176.16C223.711 193.103 234.667 210.708 246.574 227.661C250.341 233.023 254.461 239.151 259.174 243.647C258.097 244.145 256.908 244.892 255.868 245.498C249.224 241.753 241.38 235.403 235.341 230.691C218.762 217.757 203.729 203.433 188.302 189.27C170.572 172.991 156.035 162.884 141.063 143.66C132.359 132.607 125.801 120.022 121.73 106.556C116.879 90.0563 113.926 58.5228 122.198 43.2574Z" fill="url(#paint5_linear_3033_255)"/>
<path d="M122.198 43.2574L123.153 42.4535C125.325 42.3428 125.973 42.9307 127.548 44.3409C133.774 49.9153 140.412 58.7408 145.342 65.5775C165.22 93.1471 182.831 122.406 201.853 150.559L239.453 205.643C245.105 214.093 258.738 233.444 261.826 242.373C260.958 242.811 260.074 243.301 259.174 243.647C254.461 239.151 250.341 233.023 246.574 227.661C234.667 210.708 223.711 193.103 211.774 176.16C208.333 171.276 204.808 166.345 201.508 161.378C194.279 150.268 187.13 139.105 180.061 127.893L156.343 91.3947C146.767 76.4709 135.425 58.937 123.77 45.1558C123.024 44.2733 122.868 44.4052 122.198 43.2574Z" fill="#38663D"/>
<mask id="path-26-inside-1_3033_255" fill="white">
<path d="M262.509 238.285C274.633 234.751 283.591 236.768 294.623 242.103L294.624 242.104C296.172 243.08 298.702 244.454 300.024 245.479C307.249 251.073 312.342 259.014 315.027 267.664L315.279 268.504C317.372 279.517 315.721 285.671 310.641 295.238L310.139 296.175C309.718 296.523 308.05 298.917 307.609 299.48C292.092 319.335 261.416 320.784 244.511 301.883C242.066 299.149 240.656 295.977 238.674 293.103L238.425 292.747C236.69 288.622 235.661 285.228 234.996 280.827C235.038 280.372 235.017 280.259 234.959 279.971L234.89 279.604L234.832 278.058C234.622 270.63 235.59 267.554 238.247 260.104C245.904 247.929 248.914 243.72 262.509 238.285ZM234.768 281.634C234.736 281.842 234.716 282.069 234.708 282.311C234.716 282.069 234.736 281.842 234.768 281.634Z"/>
</mask>
<path d="M262.509 238.285C274.633 234.751 283.591 236.768 294.623 242.103L294.624 242.104C296.172 243.08 298.702 244.454 300.024 245.479C307.249 251.073 312.342 259.014 315.027 267.664L315.279 268.504C317.372 279.517 315.721 285.671 310.641 295.238L310.139 296.175C309.718 296.523 308.05 298.917 307.609 299.48C292.092 319.335 261.416 320.784 244.511 301.883C242.066 299.149 240.656 295.977 238.674 293.103L238.425 292.747C236.69 288.622 235.661 285.228 234.996 280.827C235.038 280.372 235.017 280.259 234.959 279.971L234.89 279.604L234.832 278.058C234.622 270.63 235.59 267.554 238.247 260.104C245.904 247.929 248.914 243.72 262.509 238.285ZM234.768 281.634C234.736 281.842 234.716 282.069 234.708 282.311C234.716 282.069 234.736 281.842 234.768 281.634Z" fill="#93662B"/>
<path d="M262.509 238.285L261.669 235.405L261.53 235.446L261.395 235.499L262.509 238.285ZM294.623 242.103L296.744 239.981L296.386 239.622L295.929 239.402L294.623 242.103ZM294.624 242.104L292.503 244.225L292.74 244.462L293.023 244.641L294.624 242.104ZM300.024 245.479L298.188 247.85L298.188 247.85L300.024 245.479ZM315.027 267.664L317.901 266.802L317.897 266.788L317.892 266.775L315.027 267.664ZM315.279 268.504L318.227 267.944L318.198 267.791L318.153 267.642L315.279 268.504ZM310.641 295.238L313.285 296.655L313.29 296.645L310.641 295.238ZM310.139 296.175L312.054 298.484L312.506 298.109L312.783 297.592L310.139 296.175ZM307.609 299.48L305.246 297.633L305.246 297.633L307.609 299.48ZM244.511 301.883L242.274 303.883L242.275 303.883L244.511 301.883ZM238.674 293.103L241.144 291.4L241.137 291.39L241.131 291.381L238.674 293.103ZM238.425 292.747L235.659 293.91L235.784 294.206L235.968 294.468L238.425 292.747ZM234.996 280.827L232.008 280.555L231.976 280.916L232.03 281.275L234.996 280.827ZM234.959 279.971L232.011 280.529L232.014 280.544L232.017 280.56L234.959 279.971ZM234.89 279.604L231.892 279.716L231.9 279.941L231.942 280.163L234.89 279.604ZM234.832 278.058L231.833 278.142L231.834 278.156L231.834 278.169L234.832 278.058ZM238.247 260.104L235.708 258.507L235.532 258.786L235.421 259.097L238.247 260.104ZM234.768 281.634L237.734 282.084L231.802 281.183L234.768 281.634ZM234.708 282.311L231.71 282.212L237.706 282.409L234.708 282.311ZM262.509 238.285L263.348 241.165C274.541 237.903 282.714 239.677 293.317 244.803L294.623 242.103L295.929 239.402C284.468 233.86 274.726 231.599 261.669 235.405L262.509 238.285ZM294.623 242.103L292.502 244.224L292.503 244.225L294.624 242.104L296.745 239.982L296.744 239.981L294.623 242.103ZM294.624 242.104L293.023 244.641C293.834 245.152 294.946 245.795 295.867 246.347C296.87 246.948 297.687 247.463 298.188 247.85L300.024 245.479L301.861 243.107C301.039 242.47 299.93 241.786 298.95 241.199C297.889 240.564 296.962 240.031 296.225 239.566L294.624 242.104ZM300.024 245.479L298.188 247.85C304.867 253.023 309.636 260.417 312.162 268.554L315.027 267.664L317.892 266.775C315.048 257.612 309.631 249.124 301.861 243.107L300.024 245.479ZM315.027 267.664L312.154 268.526L312.406 269.366L315.279 268.504L318.153 267.642L317.901 266.802L315.027 267.664ZM315.279 268.504L312.332 269.064C313.33 274.315 313.399 278.21 312.703 281.85C312 285.525 310.48 289.144 307.991 293.831L310.641 295.238L313.29 296.645C315.882 291.765 317.727 287.524 318.596 282.977C319.473 278.394 319.321 273.706 318.227 267.944L315.279 268.504ZM310.641 295.238L307.996 293.821L307.495 294.758L310.139 296.175L312.783 297.592L313.285 296.655L310.641 295.238ZM310.139 296.175L308.224 293.866C307.968 294.077 307.76 294.314 307.662 294.427C307.532 294.577 307.398 294.742 307.272 294.902C307.019 295.224 306.734 295.605 306.466 295.968C305.878 296.767 305.434 297.392 305.246 297.633L307.609 299.48L309.973 301.328C310.226 301.005 310.837 300.151 311.297 299.526C311.554 299.177 311.793 298.859 311.984 298.616C312.081 298.494 312.15 298.41 312.193 298.36C312.268 298.274 312.204 298.359 312.054 298.484L310.139 296.175ZM307.609 299.48L305.246 297.633C290.849 316.054 262.374 317.355 246.747 299.883L244.511 301.883L242.275 303.883C260.459 324.214 293.335 322.617 309.973 301.328L307.609 299.48ZM244.511 301.883L246.747 299.883C245.712 298.725 244.862 297.438 243.984 295.99C243.148 294.611 242.201 292.933 241.144 291.4L238.674 293.103L236.204 294.806C237.129 296.146 237.878 297.491 238.853 299.101C239.787 300.641 240.865 302.306 242.274 303.883L244.511 301.883ZM238.674 293.103L241.131 291.381L240.882 291.026L238.425 292.747L235.968 294.468L236.217 294.824L238.674 293.103ZM238.425 292.747L241.19 291.584C239.537 287.652 238.585 284.498 237.962 280.379L234.996 280.827L232.03 281.275C232.737 285.957 233.843 289.591 235.659 293.91L238.425 292.747ZM234.996 280.827L237.984 281.1C238.009 280.823 238.03 280.504 238.009 280.157C237.988 279.801 237.926 279.508 237.901 279.382L234.959 279.971L232.017 280.56C232.021 280.577 232.024 280.591 232.026 280.604C232.029 280.617 232.03 280.626 232.032 280.633C232.033 280.64 232.034 280.644 232.034 280.645C232.034 280.646 232.034 280.645 232.033 280.641C232.032 280.633 232.029 280.616 232.027 280.592C232.025 280.58 232.024 280.568 232.023 280.555C232.022 280.542 232.021 280.528 232.02 280.515C232.019 280.489 232.018 280.467 232.018 280.451C232.018 280.436 232.018 280.428 232.018 280.429C232.018 280.431 232.018 280.442 232.016 280.463C232.015 280.485 232.012 280.514 232.008 280.555L234.996 280.827ZM234.959 279.971L237.907 279.413L237.837 279.046L234.89 279.604L231.942 280.163L232.011 280.529L234.959 279.971ZM234.89 279.604L237.888 279.493L237.83 277.946L234.832 278.058L231.834 278.169L231.892 279.716L234.89 279.604ZM234.832 278.058L237.831 277.973C237.73 274.416 237.915 272.036 238.401 269.701C238.9 267.306 239.734 264.865 241.073 261.112L238.247 260.104L235.421 259.097C234.103 262.793 233.124 265.615 232.527 268.477C231.918 271.4 231.724 274.272 231.833 278.142L234.832 278.058ZM238.247 260.104L240.787 261.702C244.653 255.554 247.13 251.789 250.222 248.837C253.241 245.956 256.998 243.719 263.622 241.071L262.509 238.285L261.395 235.499C254.424 238.286 249.879 240.871 246.08 244.497C242.355 248.052 239.498 252.48 235.708 258.507L238.247 260.104ZM234.768 281.634L231.802 281.183C231.75 281.524 231.721 281.869 231.71 282.212L234.708 282.311L237.706 282.409C237.711 282.269 237.722 282.161 237.734 282.084L234.768 281.634ZM234.708 282.311L237.706 282.409C237.711 282.269 237.722 282.161 237.734 282.084L234.768 281.634L231.802 281.183C231.75 281.524 231.721 281.869 231.71 282.212L234.708 282.311Z" fill="#32411A" mask="url(#path-26-inside-1_3033_255)"/>
<defs>
<linearGradient id="paint0_linear_3033_255" x1="299.442" y1="429.356" x2="196.226" y2="453.825" gradientUnits="userSpaceOnUse">
<stop stop-color="#658954"/>
<stop offset="1" stop-color="#8BA452"/>
</linearGradient>
<linearGradient id="paint1_linear_3033_255" x1="367.084" y1="143.34" x2="404.552" y2="187.134" gradientUnits="userSpaceOnUse">
<stop stop-color="#507949"/>
<stop offset="1" stop-color="#709156"/>
</linearGradient>
<linearGradient id="paint2_linear_3033_255" x1="109.538" y1="239.177" x2="138.148" y2="334.605" gradientUnits="userSpaceOnUse">
<stop stop-color="#5E8451"/>
<stop offset="1" stop-color="#7C9953"/>
</linearGradient>
<linearGradient id="paint3_linear_3033_255" x1="329.581" y1="132.564" x2="232.63" y2="109.925" gradientUnits="userSpaceOnUse">
<stop stop-color="#5C8251"/>
<stop offset="1" stop-color="#8BA553"/>
</linearGradient>
<linearGradient id="paint4_linear_3033_255" x1="108.533" y1="239.939" x2="148.833" y2="160.837" gradientUnits="userSpaceOnUse">
<stop stop-color="#93AB4C"/>
<stop offset="1" stop-color="#527B51"/>
</linearGradient>
<linearGradient id="paint5_linear_3033_255" x1="138.006" y1="159.773" x2="225.07" y2="133.82" gradientUnits="userSpaceOnUse">
<stop stop-color="#92A94C"/>
<stop offset="1" stop-color="#698D57"/>
</linearGradient>
</defs>
</svg>
