<svg width="848" height="846" viewBox="0 0 848 846" fill="none" xmlns="http://www.w3.org/2000/svg">
<path d="M476.277 62.9035C477.372 47.9755 484.733 11.513 495.633 1.39249C496.543 0.547494 497.302 0.2205 498.537 0C500.242 0.269 501.167 0.970495 502.172 2.32249C509.697 12.4555 515.187 53.402 516.087 67.195C517.762 56.1225 538.942 16.0515 547.997 8.9775C549.412 7.8725 550.482 7.38499 552.307 7.55299C554.497 8.65349 555.362 10.2335 556.162 12.514C561.242 26.944 561.178 56.036 558.318 71.3525L558.742 70.8845C562.797 66.3505 566.267 61.2985 570.102 56.5775C577.702 47.215 586.403 38.803 596.018 31.524C598.988 29.303 603.043 26.1275 606.828 25.794C608.333 25.6615 608.988 26.1165 610.018 27.0535C612.478 33.8845 603.342 67.3045 600.792 75.6235C599.017 81.3925 596.822 86.9935 594.842 92.6895C602.747 83.155 636.853 58.708 649.198 57.805C650.463 57.7125 651.263 57.9185 652.383 58.5505C653.418 59.919 653.507 61.1075 653.292 62.7535C651.622 75.689 631.083 112.523 621.888 122.275C621.793 122.376 621.702 122.48 621.612 122.582C633.047 115.329 669.987 94.176 681.847 96.5305C682.637 96.6875 683.247 97.0775 683.907 97.5125C684.857 99.1775 684.927 100.218 684.367 102.058C680.182 115.838 659.727 138.703 649.352 149.141C655.237 148.951 673.083 147.544 677.708 150.909C678.413 151.422 679.082 152.47 679.592 153.159C660.477 184.379 625.227 205.905 591.872 219.017C605.282 228.353 615.972 244.695 618.872 260.829C619.342 263.439 619.553 266.488 618.008 268.808C616.858 270.536 614.972 271.487 612.967 271.848C603.042 273.632 591.377 267.306 583.117 262.601C587.592 273.361 592.992 290.4 588.087 301.903C587.377 303.569 586.267 304.879 584.482 305.426C580.887 306.526 575.047 303.216 572.047 301.257C561.332 294.256 555.077 282.846 546.182 274.032C547.297 287.677 545.732 307.426 536.222 318.244C534.262 320.471 531.888 322.163 529.312 323.602C516.163 312.151 507.597 285.975 506.422 269.099C506.292 267.277 506.362 265.445 506.438 263.622L485.032 319.668C481.697 328.179 476.947 337.195 474.688 346.012C483.682 352.846 492.973 362.434 496.828 373.309L497.633 372.916C505.253 369.273 514.163 366.696 522.143 363.863C535.908 358.976 549.627 353.832 563.717 349.934C575.652 346.635 587.603 343.545 599.513 340.134C605.023 338.556 612.607 337.136 617.477 334.113C621.107 331.86 623.142 326.808 624.557 322.928C629.757 308.652 631.642 293.188 636.157 278.65C647.672 241.555 675.423 206.438 710.953 189.725C715.413 187.629 720.018 186.114 724.758 184.801C726.328 185.67 728.377 186.49 729.247 188.107C731.477 200.029 720.062 220.528 716.688 232.31C730.533 220.864 744.242 210.003 760.982 203.01C764.117 201.7 768.337 199.807 771.782 200.227C772.897 200.363 773.847 200.793 774.532 201.693C775.282 202.672 774.958 204.455 774.688 205.566C772.098 216.331 755.547 241.862 748.487 250.832C762.842 241.321 778.847 234.574 795.682 230.94C799.457 230.098 804.047 228.885 807.902 229.537C809.327 229.778 809.863 230.199 810.823 231.237C811.588 235.417 806.832 241.394 804.552 244.682C798.542 253.231 791.968 261.372 784.878 269.048C779.808 274.488 773.597 279.844 769.492 286.033C788.762 279.936 812.178 276.054 832.138 280.033C834.513 280.507 837.477 280.91 839.647 282.042C840.857 282.673 841.742 283.387 842.042 284.796C842.562 287.234 840.877 289.718 839.342 291.421C829.777 302.063 805.098 315.341 791.753 320.807C802.863 321.704 839.303 326.885 846.003 334.999C846.848 336.022 847.253 337.249 847.008 338.58C846.303 342.414 840.913 345.227 837.768 346.924C826.873 352.8 813.988 356.915 801.953 359.706C796.518 360.966 790.922 361.811 785.552 363.264C797.472 367.185 835.797 378.454 841.222 389.79C841.767 390.935 841.918 392.239 841.333 393.409C839.243 397.588 829.957 399.101 825.807 399.978C812.372 402.816 799.443 401.817 785.893 401.954C794.353 406.909 821.033 425.251 823.328 434.477C823.588 435.532 823.423 435.812 823.193 436.827C820.778 439.472 817.563 439.827 814.128 439.992C795.658 440.877 775.588 435.802 758.073 430.287C762.963 434.767 775.463 449.517 775.328 456.167C775.298 457.752 774.078 459.397 772.753 460.197C766.873 463.757 753.018 459.547 746.943 457.767C711.018 447.262 685.007 426.932 655.772 404.928C643.847 420.164 633.767 441.992 627.927 460.477C626.102 466.252 625.147 472.362 623.247 478.057C640.297 472.307 656.922 467.747 674.807 465.497C710.902 460.952 757.422 467.057 790.117 483.412C795.452 486.077 816.073 497.182 817.443 502.272C817.768 503.467 817.447 504.437 816.772 505.427C815.432 507.397 811.242 508.592 809.057 509.352C800.367 512.287 791.447 514.507 782.397 516.002C777.162 516.822 771.828 517.242 766.628 518.232C771.648 520.812 776.887 522.907 781.932 525.432C792.212 530.567 801.872 536.857 810.727 544.177C813.527 546.497 817.667 549.607 818.777 553.207C819.052 554.102 818.818 554.842 818.583 555.707C816.108 558.962 811.627 559.577 807.787 560.107C789.622 562.617 767.497 560.897 749.462 557.617C754.062 560.527 758.792 563.342 763.157 566.592C774.262 574.852 800.967 597.312 803.717 610.882C803.837 611.477 803.822 612.022 803.802 612.627C802.417 614.292 800.228 614.652 798.138 614.877C784.083 616.397 765.457 611.597 751.997 607.237C746.957 605.602 742.007 603.477 736.932 602.022C741.187 606.802 745.783 611.267 749.758 616.297C756.308 624.577 772.247 649.042 771.677 659.742C771.617 660.822 771.238 661.532 770.693 662.437C768.768 663.962 766.957 664.152 764.542 663.837C751.512 662.142 735.537 653.297 724.112 646.597C719.447 643.862 714.957 640.602 709.897 638.652C718.012 654.842 724.733 670.222 727.393 688.342C727.873 691.612 728.678 695.942 727.643 699.142C727.308 700.167 726.683 701.172 725.698 701.682C723.298 702.917 719.812 701.512 717.612 700.477C704.227 694.187 675.812 666.832 667.867 654.407C667.762 654.247 667.652 654.097 667.542 653.937C673.087 670.482 673.867 689.932 672.907 707.242C672.712 710.687 672.827 715.087 671.222 718.192C670.542 719.512 669.347 720.617 667.862 720.922C665.087 721.492 662.167 719.357 660.167 717.717C647.737 707.517 627.842 676.322 623.102 660.772C620.772 672.972 619.377 688.602 613.242 699.437C617.527 702.152 621.032 706.542 624.357 710.347C636.502 724.242 649.322 740.912 653.537 759.212C654.167 761.957 655.372 767.752 653.732 770.162C652.842 771.467 651.067 771.832 649.602 771.907C633.377 772.732 604.987 751.477 591.487 742.387C600.322 758.172 607.832 774.107 611.787 791.852C612.672 795.822 613.953 800.957 612.818 804.962C612.398 806.442 611.498 807.762 610.073 808.442C607.328 809.747 603.882 808.527 601.337 807.337C586.777 800.512 573.738 788.002 563.008 776.232C559.463 772.342 556.218 768.082 552.508 764.372C553.848 771.772 555.692 778.977 556.622 786.457C557.772 795.747 559.052 825.377 553.592 833.552C552.972 834.477 551.932 835.432 550.772 835.522C546.067 835.892 540.147 830.927 536.922 827.757C524.152 815.207 514.068 794.577 508.143 777.702C506.803 784.627 505.852 791.577 504.222 798.452C501.812 808.607 495.058 831.652 486.583 837.587C485.328 838.462 483.742 839.007 482.312 839.542C471.023 829.407 469.043 805.577 468.253 790.857C467.788 782.167 467.938 773.442 468.018 764.742C456.438 783.487 450.438 794.597 434.008 810.412C431.193 813.127 427.402 817.157 423.477 818.042C422.052 818.367 421.417 818.157 420.147 817.497C416.447 813.202 417.597 803.307 417.982 797.992C419.522 776.747 424.597 753.807 433.087 734.302C424.757 743.312 411.272 755.367 400.265 760.587C401.218 777.497 403.031 823.732 391.79 836.287C390.5 837.727 388.403 839.467 386.378 839.612C384.036 839.782 382.228 838.752 380.552 837.197C369.242 826.687 362.513 803.547 359.766 788.712C357.691 801.147 347.021 837.347 337.387 844.532C336.091 845.502 334.643 846.037 333.009 845.617C330.486 844.972 328.902 842.462 327.879 840.252C320.308 823.897 320.371 795.187 320.931 777.157C314.645 791.172 297.225 829.812 283.867 835.587C282.922 835.992 281.728 836.197 280.764 835.787C278.987 835.032 278.386 833.452 277.802 831.732C272.646 816.552 276.218 792.442 279.677 777.012C281.194 770.242 283.339 763.647 284.779 756.857C277.085 767.462 247.18 802.902 234.514 804.687C233.171 804.877 231.864 804.717 230.76 803.862C228.878 802.402 228.466 799.627 228.479 797.397C228.519 790.502 230.755 782.612 232.744 776.052C244.326 737.832 269.293 705.717 294.204 675.307C303.993 663.357 319.455 646.367 325.589 632.592C328 627.177 329.199 621.317 330.611 615.582C333.562 603.602 335.907 591.672 338.514 579.627C341.935 564.092 346.471 548.827 352.087 533.942C354.358 527.787 356.395 520.747 359.867 515.167C345.552 503.497 336.287 491.277 330.394 473.672C324.519 476.717 318.418 479.777 312.862 483.367C289.611 498.392 261.353 523.167 247.934 547.577C251.714 556.742 255.586 565.897 258.852 575.262C273.538 617.362 272.332 662.637 252.629 702.922C249.821 708.662 242.126 723.372 235.787 725.232C234.796 725.522 234.08 725.512 233.173 724.942C224.635 719.567 222.445 696.612 220.596 687.087C212.195 706.272 203.71 724.797 189.706 740.692C187.649 743.027 184.241 746.977 180.836 746.792C179.541 746.722 178.631 746.027 177.915 744.997C172.499 737.222 174.951 694.237 177.247 683.717C168.13 697.587 149.152 721.977 134.882 730.347C132.908 731.502 130.181 732.662 127.885 731.777C126.593 731.282 125.692 730.172 125.151 728.942C123.731 725.707 124.061 721.522 124.256 718.067C125.23 700.777 130.322 684.907 136.048 668.737C124.846 678.087 96.5705 700.932 82.443 702.567C80.741 702.767 79.6365 702.582 78.2545 701.487C77.608 700.442 77.2445 699.617 77.1895 698.367C76.653 686.212 94.289 652.122 102.938 643.032C88.1115 649.887 66.805 657.857 50.3455 657.567C47.9135 657.527 44.2475 657.342 42.623 655.217C41.8435 654.192 41.7905 653.027 41.983 651.812C43.8905 639.767 72.575 615.897 82.146 608.382C68.747 610.327 45.8015 613.627 33.369 608.727C31.3365 607.927 30.2035 607.077 29.3025 605.087C29.2005 603.742 29.341 602.867 29.931 601.672C36.89 587.622 73.5565 564.427 88.6975 559.197C77.4355 558.847 44.5605 554.292 36.0445 548.177C34.6185 547.152 34.2055 546.237 33.872 544.552C34.5285 541.902 36.457 540.302 38.6255 538.792C47.0895 532.912 57.1875 528.527 66.802 524.842C116.91 505.642 166.705 513.777 217.729 523.152C228.029 516.812 237.842 502.167 245.882 492.947C251.459 486.552 258.248 480.067 264.84 474.722C275.291 466.247 286.361 457.977 298.118 451.402C305.503 447.272 320.603 441.342 326.213 436.442C323.333 428.277 325.478 417.017 328.26 409.055C328.618 407.769 328.768 406.787 328.77 405.431C324.909 401.82 275.65 395.387 265.298 392.96C270.663 397.202 274.801 403.019 278.194 408.909C282.068 415.635 288.228 429.767 285.741 437.592C285.151 439.447 283.823 440.907 282.07 441.727C273.326 445.837 258.637 439.127 250.284 436.032C253.698 444.677 253.604 453.802 252.316 462.872C251.761 466.782 251.087 474.697 247.355 476.957C245.831 477.877 244.353 477.972 242.687 477.447C233.095 474.427 223.948 457.172 219.298 448.952C213.328 461.057 209.437 474.252 198.197 482.887C196.096 484.497 193.463 485.882 190.728 485.427C188.722 485.097 187.128 483.737 186.024 482.087C180.528 473.877 180.112 452.472 181.121 442.852C181.74 436.952 183.244 430.992 184.397 425.16L183.898 425.882C178.246 433.982 169.824 441.327 162.088 447.387C138.102 466.177 109.602 480.747 79.3505 485.912C74.0785 486.812 59.4695 488.822 55.352 484.882C54.384 483.957 54.248 482.912 54.4445 481.657C55.727 473.462 75.4135 455.747 82.4215 450.512C66.9495 454.602 52.4985 457.902 36.384 458.092C32.6985 458.137 28.844 458.292 25.207 457.667C22.8145 457.257 19.8795 456.397 18.616 454.107C17.878 452.772 18.0315 451.302 18.5825 449.937C22.3475 440.587 43.137 427.212 52.236 422.201C56.781 419.698 61.609 417.669 66.3515 415.572C48.5565 414.346 29.562 414.085 12.57 408.196C9.138 407.006 2.461 404.883 1.153 401.129C0.718 399.88 1.0475 398.722 1.6385 397.602C6.3725 388.639 37.4885 378.957 47.8805 376.253C54.903 374.427 62.0095 373.223 69.06 371.561C50.3755 366.348 32.979 360.77 15.4705 352.24C11.3915 350.252 6.80199 348.284 3.26649 345.428C1.37549 343.9 0.22 342.541 0 340.087C0.2455 339.152 0.531497 338.52 1.2075 337.833C8.5775 330.337 37.8845 326.746 48.3 326.112C54.6395 325.726 60.964 325.882 67.308 326.029C51.052 316.898 29.4555 301.753 18.346 286.922C17.0315 285.167 15.8405 283.465 16.1605 281.174C16.8725 279.972 17.5585 279.426 18.8705 278.986C31.5605 274.728 76.392 283.528 88.9795 289.928C85.338 286.147 81.3825 282.695 77.796 278.839C69.6635 270.095 46.7765 243.036 44.6395 232.848C44.3065 231.259 44.5875 230.418 45.4875 229.119C46.392 228.521 47.108 228.103 48.2035 227.974C51.71 227.561 55.9045 228.786 59.2855 229.672C80.2635 235.167 103.109 246.709 120.366 259.793C114.233 249.959 93.878 213.157 93.139 202.917C93.052 201.71 93.085 201.217 93.9515 200.318C102.333 198.404 120.335 207.887 127.556 212.037C153.397 226.889 178.803 249.905 193.157 276.29C201.556 291.73 207.101 308.784 211.632 325.697C213.527 320.415 215.363 315.054 217.545 309.882C219.968 304.136 227.77 288.639 233.916 286.6C235.183 286.179 236.22 286.268 237.352 286.997C244.844 291.824 252.341 318.47 254.65 327.874C260.431 319.133 272.247 302.348 282.48 298.808C283.878 298.324 285.407 298.187 286.697 299.061C288.03 299.966 288.624 301.486 289.029 302.974C294.107 321.648 280.773 347.806 272.099 363.822C276.403 364.197 280.713 365.123 285.007 365.674C294.589 366.903 304.185 368.013 313.71 369.643C318.379 370.442 334.836 374.33 338.283 373.986C339.839 373.831 340.7 372.094 341.605 370.973C346.861 362.602 364.051 348.643 373.146 345.32C368.846 336.555 365.784 326.972 362.046 317.938C357.796 307.668 337.191 259.068 329.048 253.792C327.571 252.835 325.629 253.02 323.963 253.292C319.434 254.03 315.025 256.001 310.59 257.197C303.949 258.987 296.825 260.174 290.008 261.111C253.065 266.187 207.4 262.186 176.882 238.975C173.544 236.436 169.312 233.684 168.694 229.238C168.988 228.306 169.006 227.907 169.714 227.183C175.152 221.628 197.849 219.584 205.607 219.508C197.142 215.392 188.316 211.969 179.864 207.792C167.42 201.642 145.755 189.224 139.447 176.686C140.532 175.944 141.646 175.144 142.815 174.539C152.73 169.409 185.579 173.171 196.795 176.247C182.003 165.702 165.34 153.763 153.74 139.723C152.403 138.105 150.838 136.298 151.053 134.116C152.158 133.099 153.182 132.445 154.61 131.938C169.982 126.475 204.117 139.465 218.637 146.264C211.656 138.976 181.46 97.249 182.386 88.6735C182.517 87.4545 182.82 86.9915 183.717 86.178C185.149 84.88 187.275 84.718 189.111 84.8925C207.671 86.659 245.087 114.586 257.115 128.707C251.759 116.93 231.829 57.9075 235.079 48.129C235.424 47.0905 236.335 45.9305 237.346 45.4765C238.8 44.823 240.704 45.2635 242.109 45.86C255.956 51.7405 276.901 75.7815 282.647 89.6295C282.09 82.4915 280.249 75.335 279.022 68.2725C277.261 58.042 276.206 47.7025 275.865 37.327C275.768 33.828 275.531 29.0705 276.688 25.7295C277.128 24.459 278.082 23.3905 279.358 22.915C280.634 22.44 282.225 22.851 283.427 23.381C295.543 28.7245 310.858 61.1125 315.79 73.2315C315.839 60.739 315.738 35.1785 320.677 24.1455C321.5 22.3065 322.765 20.1665 324.882 19.6655C326.217 19.3495 327.492 19.7915 328.621 20.486C341.425 28.3625 354.128 68.9215 357.909 83.8615C360.429 71.26 364.721 50.577 371.845 40.1515C373.091 38.329 374.935 36.4425 377.249 36.194C378.637 36.045 379.933 36.637 381.024 37.4395C386.206 41.2555 390.577 53.3355 392.69 59.326C408.665 104.607 401.975 151.681 385.602 195.75C382.939 202.739 380.021 209.627 376.854 216.403C374.49 221.561 364.334 237.952 365.196 242.809C365.959 247.108 372.96 258.671 375.379 263.617C384.365 281.99 392.418 300.305 399.191 319.622C401.089 325.035 403.51 330.533 404.515 336.194C410.917 337.694 417.583 337.923 424.018 339.39C427.878 340.25 431.708 341.208 435.513 342.264C445.433 315.425 457.107 289.298 467.157 262.544C465.432 256.022 463.362 249.382 462.672 242.652C450.702 249.377 440.362 254.654 426.532 256.496C423.402 256.913 419.847 257.492 416.757 256.617C414.937 256.101 413.432 255.061 412.592 253.312C410.672 249.313 412.227 243.598 413.772 239.666C417.097 231.188 424.987 221.542 432.402 216.336C424.427 218.214 403.111 224.178 396.563 219.951C395.949 219.554 395.579 218.905 395.413 218.193C394.453 214.087 400.045 207.5 402.548 204.55C412.312 193.039 425.468 182.625 438.253 174.62C443.078 171.6 448.253 169.111 453.003 165.996C439.448 136.129 435.427 64.08 446.857 33.5335C447.677 31.3405 448.702 29.2455 450.917 28.2345C453.512 28.2205 455.402 29.8625 457.162 31.605C465.602 39.9575 470.932 52.406 476.277 62.9035ZM502.117 491.042C499.802 493.977 497.652 497.227 494.802 499.977C492.647 503.987 488.302 507.477 484.302 511.977C480.302 515.977 470.302 521.477 470.302 521.477C470.302 521.477 470.302 521.977 478.878 544.697C480.713 550.997 483.312 557.017 485.057 563.367C489.837 580.742 494.642 606.437 503.587 621.667C513.147 626.237 524.763 625.842 535.078 627.567C547.833 629.692 560.057 633.042 572.032 637.952C568.827 620.342 571.762 592.907 577.807 575.932C570.337 585.892 552.127 605.037 540.982 609.567C539.277 610.257 537.147 610.477 535.482 609.522C533.752 608.532 532.897 606.877 532.427 605.002C529.167 591.882 537.357 569.337 544.087 558.302C530.692 563.477 517.933 570.362 503.458 572.142C500.888 567.857 500.563 564.737 501.768 559.857C507.978 534.682 535.202 509.842 556.647 496.872C545.427 487.572 523.317 478.357 509.542 473.597C507.577 479.582 505.462 485.662 502.117 491.042ZM515.888 402.059C516.828 405.61 517.683 409.183 518.453 412.774C519.318 417.748 520.952 424.326 519.997 429.382C519.917 433.427 520.263 438.152 519.393 442.087C522.458 443.282 525.692 444.117 528.782 445.292C546.742 452.152 570.698 461.822 584.812 475.077C584.168 444.632 597.753 415.191 618.638 393.512C621.978 390.045 631.027 382.757 632.557 378.724C633.002 377.539 632.982 376.289 632.417 375.133C631.687 373.64 629.922 372.876 628.402 372.476C610.192 367.674 549.832 388.735 530.682 396.073C525.882 397.914 520.308 399.461 515.888 402.059ZM439.802 530.977C439.047 531.687 433.302 531.977 427.802 532.477C423.802 532.977 416.481 532.902 411.802 532.477C400.802 531.477 401.302 530.477 393.302 528.977C378.802 569.642 370.024 627.707 371.449 641.237C372.648 652.622 383.955 678.682 388.233 690.857C392.115 701.907 394.98 713.327 397.94 724.652C412.263 697.342 433.527 675.582 455.042 653.917C458.672 650.257 469.643 641.772 471.562 638.382C472.683 636.402 471.332 633.052 470.688 630.992C465.602 614.752 444.412 547.367 439.802 530.977Z" fill="#48472E"/>
<path d="M470.638 440.527C472.493 437.602 473.178 433.282 473.998 429.962C480.968 434.352 489.493 437.412 497.088 440.592C525.623 452.542 556.568 461.017 581.013 480.742C583.748 482.947 587.438 484.977 588.913 488.167C590.268 491.092 597.498 493.007 600.528 494.272C607.923 492.057 614.983 488.887 622.173 486.107C629.878 483.127 637.988 480.512 645.993 478.462C693.513 466.317 754.458 471.637 797.773 495.212C801.523 497.252 805.033 499.562 808.163 502.477C796.433 505.802 784.928 508.272 772.808 509.642C757.788 511.342 742.643 511.652 727.618 513.377C742.743 515.592 778.953 530.802 792.103 538.877C798.713 542.922 804.753 547.822 810.078 553.457C781.633 554.492 753.163 552.372 725.188 547.132L725.018 548.297C727.948 552.117 737.383 557.587 741.723 560.747C762.858 576.157 780.418 588.002 796.473 609.302C784.318 607.107 772.113 605.177 760.218 601.822C751.413 599.337 742.958 595.887 734.248 593.122C726.898 590.787 717.773 584.767 710.208 585.072L712.843 587.832C728.483 603.357 745.278 619.597 756.398 638.797C759.953 644.937 762.713 651.587 765.333 658.167C757.378 655.087 749.638 651.882 742.093 647.872C734.028 643.592 725.938 639.007 718.263 634.047C711.978 629.982 705.643 625.117 698.968 621.767C696.973 620.767 695.383 620.122 693.143 620.067L691.988 620.652C692.043 621.512 704.988 643.682 706.533 647.022C713.978 663.102 718.488 679.207 721.593 696.622C707.218 685.747 693.453 673.617 681.423 660.162L665.558 642.247C661.658 637.767 657.863 632.532 653.163 628.892C654.413 639.452 658.768 650.272 661.373 660.622C665.793 678.207 667.023 697.427 666.768 715.517C650.818 700.572 638.428 679.172 630.423 658.957C627.663 651.982 624.953 641.337 620.528 635.487C617.078 656.202 612.938 676.522 607.958 696.917C603.163 692.672 597.198 688.492 593.428 683.347C588.848 677.092 586.408 668.142 584.053 660.777C577.153 639.212 576.618 614.022 580.563 591.732C583.703 574.012 598.863 536.902 593.598 521.267L593.183 523.282L592.763 523.537C591.538 519.437 589.383 515.392 588.278 511.542L589.218 511.227L589.398 510.862C586.948 508.297 583.598 506.737 580.843 504.512C577.718 501.992 574.863 499.227 571.603 496.847C567.423 493.802 562.788 491.257 558.338 488.642C542.118 479.107 525.928 471.992 507.878 466.682C504.068 465.557 501.053 467.357 497.618 466.432C485.828 463.267 474.678 458.522 463.318 454.142L463.103 453.407C463.358 453.047 463.608 452.682 463.873 452.327C466.578 448.667 468.848 444.707 470.638 440.527Z" fill="url(#paint0_linear_2958_7279)"/>
<path d="M614.427 524.427C613.717 523.597 612.097 522.232 612.147 521.177C620.257 526.587 628.747 531.232 636.927 536.472C645.937 542.252 654.707 548.877 663.287 555.262C670.807 560.867 678.262 566.952 685.562 572.857C688.668 575.367 691.558 578.342 694.833 580.622C697.208 582.272 706.912 588.072 709.217 588.762C709.427 588.822 710.938 588.727 711.062 588.702C711.683 588.577 712.322 588.192 712.842 587.832C728.482 603.357 745.277 619.597 756.397 638.797C759.952 644.937 762.713 651.587 765.333 658.167C757.378 655.087 749.637 651.882 742.092 647.872C734.027 643.592 725.938 639.007 718.263 634.047C711.978 629.982 705.642 625.117 698.967 621.767C696.972 620.767 695.383 620.122 693.143 620.067L691.987 620.652C692.042 621.512 704.987 643.682 706.532 647.022C713.977 663.102 718.487 679.207 721.592 696.622C707.217 685.747 693.452 673.617 681.422 660.162L665.557 642.247C661.657 637.767 657.862 632.532 653.162 628.892C654.412 639.452 658.767 650.272 661.372 660.622C665.792 678.207 667.023 697.427 666.768 715.517C650.818 700.572 638.427 679.172 630.422 658.957C627.662 651.982 624.952 641.337 620.527 635.487C620.602 635.452 620.693 635.437 620.753 635.377C622.353 633.817 621.537 627.577 621.302 625.387C620.517 618.132 618.792 610.947 617.467 603.772C614.917 589.962 612.552 576.162 610.282 562.312C609.607 558.187 608.432 554.142 607.847 549.997C607.182 545.312 607.057 540.337 606.907 535.607C610.037 541.827 612.258 548.512 615.328 554.802C620.368 565.142 626.162 575.052 630.688 585.667C635.573 597.127 639.592 609.477 645.342 620.497C646.807 623.302 649.042 626.677 651.432 628.767C652.442 629.647 652.907 629.897 654.232 629.822L654.513 629.172C654.063 628.427 653.717 627.787 653.432 626.957C651.942 622.607 649.258 618.657 647.628 614.332C645.923 609.797 644.708 605.102 643.013 600.567C641.288 595.967 639.032 591.552 637.157 587.012C632.222 575.092 627.377 563.352 621.307 551.957C620.277 550.017 610.207 530.687 610.157 530.287C610.112 529.922 610.268 529.557 610.323 529.192C614.668 530.157 641.958 561.572 645.828 566.552C651.263 573.547 679.077 612.032 683.902 614.372L684.552 613.987C684.597 613.792 684.662 613.602 684.682 613.407C684.812 612.137 684.233 610.787 683.583 609.712C682.058 607.207 679.807 604.932 678.027 602.587L665.578 586.132C656.253 573.927 647.653 561.352 637.503 549.787C630.128 541.377 621.532 534.132 614.217 525.667L614.427 524.427Z" fill="#819458"/>
<path d="M610.323 529.192C614.668 530.157 641.958 561.572 645.828 566.552C651.263 573.547 679.077 612.032 683.902 614.372L684.552 613.987C684.597 613.792 684.662 613.602 684.682 613.407C684.812 612.137 684.233 610.787 683.583 609.712C682.058 607.207 679.807 604.932 678.027 602.587L665.578 586.132C656.253 573.927 647.653 561.352 637.503 549.787C630.128 541.377 621.532 534.132 614.217 525.667L614.427 524.427C621.182 532.127 628.977 538.702 635.732 546.312C645.547 557.372 653.933 569.182 662.763 580.992C672.323 593.777 681.947 605.777 689.927 619.662C686.117 617.752 683.257 615.662 680.402 612.482C666.822 597.352 655.848 579.862 642.753 564.347C637.293 557.872 631.312 551.802 625.672 545.477C623.527 543.072 621.677 540.422 619.552 538.022C616.732 534.842 612.548 532.867 610.323 529.192Z" fill="#98A462"/>
<path d="M710.208 585.072C704.713 582.212 695.898 572.782 690.593 568.487C676.028 556.462 660.893 545.147 645.238 534.577C639.008 530.392 632.453 526.707 626.173 522.592C622.123 519.937 618.303 515.772 613.783 514.182C612.803 513.837 612.633 513.802 611.853 513.052C614.113 512.912 616.313 513.572 618.538 513.912C629.488 515.567 639.053 519.277 649.588 522.137C661.263 525.307 672.518 527.702 683.868 532.097C692.608 535.482 715.838 546.712 723.373 546.832C724.113 546.847 724.493 546.887 725.188 547.132L725.018 548.297C727.948 552.117 737.383 557.587 741.723 560.747C762.858 576.157 780.418 588.002 796.473 609.302C784.318 607.107 772.113 605.177 760.218 601.822C751.413 599.337 742.958 595.887 734.248 593.122C726.898 590.787 717.773 584.767 710.208 585.072Z" fill="#819458"/>
<path d="M445.672 466.637C448.237 470.452 452.767 487.607 454.637 493.467C463.302 520.617 472.282 547.662 480.537 574.937C482.457 581.267 483.592 587.882 485.252 594.292C486.987 601.012 489.322 607.607 491.697 614.127C493.047 617.842 494.362 621.922 496.547 625.237C498.452 628.132 504.447 630.837 507.732 631.877C528.257 632.352 556.402 637.372 574.082 647.622C577.102 658.032 582.027 675.157 588.022 683.922C593.937 692.587 603.097 698.732 610.477 706.047C621.047 716.527 648.647 749.862 647.342 765.277C646.572 766.102 646.942 766.022 645.967 766.102C639.892 766.587 611.817 748.582 606.062 744.542C598.692 739.377 591.432 732.517 583.507 728.362C582.177 727.667 580.747 727.772 579.297 727.757L576.672 727.717L577.602 729.612C588.967 746.477 604.652 783.012 606.767 803.192C600.242 799.237 593.827 795.702 587.837 790.907C575.757 781.232 565.547 768.827 555.432 757.187C550.747 751.797 545.467 746.332 541.612 740.332C540.452 747.957 545.432 762.382 546.872 770.507C550.307 789.857 551.342 810.827 547.837 830.187L547.057 829.522C532.777 817.232 510.632 775.837 509.342 756.952L509.307 756.327L508.387 755.972C507.042 756.482 506.077 757.277 505.542 758.632C503.832 762.987 503.292 768.562 502.267 773.162C499.882 783.907 491.187 825.257 484.522 831.357C483.917 831.907 483.707 831.667 482.977 831.557C480.957 829.142 480.397 824.497 479.677 821.437C473.477 795.092 474.922 769.917 475.707 743.222C475.047 742.092 475.072 742.067 473.842 741.632C471.687 742.772 464.177 757.667 462.187 761.012C451.192 779.477 439.762 796.307 423.652 810.787C423.592 785.117 433.432 752.832 441.057 728.417C442.757 722.962 445.037 717.677 446.572 712.172L446.722 711.612L447.192 711.272C450.562 703.322 455.117 695.687 459.212 688.077C463.612 679.897 467.772 671.592 472.037 663.342C474.752 658.092 478.552 652.347 480.042 646.647C480.252 645.852 480.122 646.232 480.422 645.412C480.472 645.282 480.522 645.157 480.572 645.032L479.647 644.612C478.492 644.887 477.682 645.032 476.497 644.852C476.162 644.807 475.832 644.747 475.502 644.697C476.362 643.567 477.192 642.417 478.002 641.252C478.997 639.802 479.962 638.002 479.747 636.187C478.962 629.667 473.127 615.027 470.962 607.922C461.722 577.662 453.147 547.432 442.082 517.752C439.062 509.822 435.867 501.962 432.497 494.177C429.852 487.942 426.507 481.382 425.222 474.687C426.142 473.357 427.497 473.267 429.007 472.762C434.797 472.047 440.327 468.847 445.672 466.637Z" fill="url(#paint1_linear_2958_7279)"/>
<path d="M502.018 641.582C503.878 641.132 506.048 640.937 507.343 639.457C506.753 636.992 503.868 636.007 502.783 633.677C502.268 632.572 502.458 631.772 502.848 630.687C504.238 631.492 505.258 631.977 506.853 632.222L507.733 631.877C528.258 632.352 556.403 637.372 574.083 647.622C577.103 658.032 582.028 675.157 588.023 683.922C593.938 692.587 603.098 698.732 610.478 706.047C621.048 716.527 648.648 749.862 647.343 765.277C646.573 766.102 646.943 766.022 645.968 766.102C639.893 766.587 611.818 748.582 606.063 744.542C598.693 739.377 591.433 732.517 583.508 728.362C582.178 727.667 580.748 727.772 579.298 727.757L576.673 727.717C571.448 722.427 568.023 715.652 563.283 709.977C555.353 700.477 546.918 691.457 538.703 682.212C531.198 673.767 524.028 664.887 515.928 656.997C513.838 654.962 511.468 653.197 509.308 651.227C512.013 651.972 514.693 652.707 517.268 653.837C525.958 657.647 578.083 685.687 582.508 684.412C582.788 682.812 581.778 681.142 581.143 679.707C562.818 669.802 544.158 660.532 525.193 651.917C517.583 648.382 509.358 645.552 502.018 641.582Z" fill="#819458"/>
<path d="M502.438 652.562C508.193 657.807 514.417 663.377 519.722 669.057C525.577 675.327 530.852 682.142 536.667 688.452C543.802 696.187 551.418 703.477 558.203 711.552C560.693 714.517 562.453 718.042 564.708 721.187C567.523 725.102 570.913 728.722 574.078 732.362C574.653 731.227 575.282 729.382 576.432 728.872L577.342 730.487L577.602 729.612C588.967 746.477 604.653 783.012 606.768 803.192C600.243 799.237 593.827 795.702 587.837 790.907C575.757 781.232 565.547 768.827 555.432 757.187C550.747 751.797 545.467 746.332 541.612 740.332C541.727 740.162 541.817 739.972 541.867 739.772C542.187 738.467 541.647 737.002 541.212 735.782C538.217 727.417 533.912 719.262 530.297 711.132C526.397 702.367 522.993 693.347 518.833 684.702C513.633 673.892 507.977 663.207 502.438 652.562Z" fill="#819458"/>
<path d="M508.472 741.147C509.807 741.552 510.927 741.782 512.037 742.662C512.032 744.097 511.262 745.102 510.542 746.287C510.132 746.662 509.502 746.727 508.972 746.877C508.127 746.312 507.988 746.017 507.763 744.987C507.418 743.417 507.712 742.472 508.472 741.147Z" fill="#819458"/>
<path d="M373.25 428.067L374.051 428.942C374.858 427.467 373.869 425.642 373.714 423.97C373.6 422.729 373.558 422.589 374.308 421.656C374.382 425.343 376.502 431.467 378.546 434.582C379.285 437.377 381.352 439.812 381.985 442.442C381.343 443.767 381.527 444.432 381.756 445.827C381.584 447.212 381.555 448.492 380.429 449.472C379.875 449.952 379.16 450.282 378.526 450.642C378.375 450.727 378.229 450.822 378.078 450.907C376.453 451.827 372.444 453.312 370.615 452.877C370.43 452.837 370.262 452.737 370.086 452.667C362.192 454.182 354.58 457.292 347.044 460.017C340.425 462.407 333.624 464.577 327.177 467.407C303.598 477.752 283.849 493.852 265.934 512.072C258.881 519.242 251.023 527.217 245.379 535.557C241.924 540.657 240.687 546.407 239.777 552.402L237.307 551.757C236.372 552.307 235.856 552.922 235.632 554.012C235.381 555.242 235.672 556.487 235.33 557.727C234.341 561.317 233.14 564.547 232.529 568.267C229.112 589.077 228.353 610.192 226.414 631.137C225.889 636.802 224.923 642.417 224.243 648.067C223.107 646.507 221.973 646.527 220.753 645.392C219.542 644.267 219.864 641.972 219.804 640.417C221.157 620.712 222.625 601.102 224.884 581.477C225.373 577.227 225.917 572.947 226.683 568.742C227.318 565.252 228.534 561.642 228.504 558.102L228.067 557.827C224.961 559.357 213.029 591.217 211.254 596.492C208.046 606.022 204.367 615.432 201.271 624.972C198.213 634.392 195.794 644.177 192.277 653.422C191.407 655.712 190.162 659.567 188.361 661.222C187.106 660.922 185.935 660.627 184.741 660.122L184.839 658.602C181.397 660.562 176.143 673.137 173.317 677.017C160.239 694.982 147.381 711.177 130.796 726.077C130.775 720.642 130.905 715.357 131.754 709.972C134.834 690.447 145.828 659.752 155.977 642.497L157.098 639.997C156.742 639.947 156.373 639.742 156.028 639.847C154.11 640.432 147.667 648.012 145.777 649.762C127.154 667.012 106.81 684.437 84.1248 696.132C87.4708 684.217 92.3208 672.777 98.5578 662.082C103.263 653.897 108.546 645.737 113.751 637.857C115.747 634.832 118.254 632.157 120.032 628.987C120.677 627.837 121.313 626.582 121.391 625.247C121.436 624.477 121.379 624.672 120.798 624.097C102.443 636.817 81.5958 645.497 59.6363 649.557C56.8273 650.067 53.9863 650.892 51.1338 651.052L50.8493 650.257C54.8113 637.827 88.4243 610.117 99.8453 601.937C104.295 598.752 110.154 596.767 113.922 592.767L113.847 591.617C106.533 592.437 99.3078 594.942 92.2353 596.927C75.0233 601.757 54.7333 606.212 36.8608 602.667C51.7128 586.952 70.6263 575.052 89.7838 565.302C96.1798 562.047 105.703 558.687 111.085 554.097L110.986 553.492C106.2 552.122 99.6083 552.997 94.5173 552.612C78.6243 551.407 58.6568 549.022 43.7793 543.487L42.9693 543.182C46.5953 541.032 50.6593 539.377 54.4873 537.582C90.0788 520.922 131.521 517.182 170.192 522.707C186.993 525.102 206.773 530.177 223.494 529.897C233.193 524.022 247.83 500.592 257.89 490.867C266.334 482.702 276.433 474.417 286.208 467.962C300.212 458.717 358.565 427.752 373.25 428.067Z" fill="url(#paint2_linear_2958_7279)"/>
<path d="M113.848 591.617L114.636 591.337C117.703 590.277 121.856 588.907 125.009 588.382L124.643 590.052L125.204 590.192C135.205 583.797 145.355 577.642 155.644 571.722C161.421 568.332 167.218 564.627 173.242 561.712C185.472 555.792 198.583 551.142 211.382 546.602C211.247 546.712 211.112 546.822 210.975 546.927C205.873 550.932 199.876 553.832 194.551 557.552C187.192 562.692 180.09 569.032 173.199 574.812C162.935 583.262 152.871 591.952 143.016 600.877C136.122 607.062 129.036 614.847 121.151 619.637L123.521 619.037C123.278 620.377 121.801 621.672 120.899 622.722C123.241 623.262 125.135 622.152 127.092 620.962C133.182 617.257 137.954 611.832 143.411 607.347C159.85 593.837 175.924 579.992 192.632 566.787C199.935 561.012 208.25 553.642 216.637 549.602C203.561 569.777 189.25 589.137 176.097 609.272C173.002 614.107 170.007 619.007 167.113 623.962C164.06 629.277 161.496 635.657 157.099 639.997C156.742 639.947 156.373 639.742 156.028 639.847C154.11 640.432 147.667 648.012 145.778 649.762C127.154 667.012 106.81 684.437 84.1251 696.132C87.4711 684.217 92.3211 672.777 98.5581 662.082C103.264 653.897 108.546 645.737 113.751 637.857C115.747 634.832 118.255 632.157 120.033 628.987C120.677 627.837 121.313 626.582 121.392 625.247C121.437 624.477 121.379 624.672 120.798 624.097C102.443 636.817 81.5961 645.497 59.6366 649.557C56.8276 650.067 53.9866 650.892 51.1341 651.052L50.8496 650.257C54.8116 637.827 88.4246 610.117 99.8456 601.937C104.295 598.752 110.154 596.767 113.923 592.767L113.848 591.617Z" fill="#819458"/>
<path d="M222.4 554.752C217.893 562.037 215.297 570.327 212.116 578.242C203.494 599.697 196.033 621.097 189.402 643.247C187.997 647.942 186.024 652.372 185.336 657.247C185.203 658.197 185.339 657.792 184.84 658.602C181.398 660.562 176.144 673.137 173.318 677.017C160.24 694.982 147.381 711.177 130.797 726.077C130.775 720.642 130.905 715.357 131.755 709.972C134.834 690.447 145.828 659.752 155.977 642.497C158.17 642.407 159.802 640.832 161.242 639.302C165.72 634.547 169.456 628.692 173.287 623.402C185.053 607.152 195.519 590.117 207.195 573.797C211.95 567.152 216.434 560.402 222.4 554.752Z" fill="#819458"/>
<path d="M373.25 428.067L374.051 428.942C374.858 427.467 373.869 425.642 373.714 423.97C373.6 422.729 373.558 422.589 374.308 421.656C374.382 425.343 376.502 431.467 378.546 434.582C379.285 437.377 381.352 439.812 381.985 442.442C381.343 443.767 381.527 444.432 381.756 445.827C381.584 447.212 381.555 448.492 380.429 449.472C379.875 449.952 379.16 450.282 378.526 450.642C378.375 450.727 378.229 450.822 378.078 450.907C376.453 451.827 372.444 453.312 370.615 452.877C370.43 452.837 370.262 452.737 370.086 452.667C372.59 451.862 376.08 451.177 377.872 449.147C378.951 447.922 379.232 446.707 378.928 445.087C378.022 440.257 373.909 436.692 373.284 428.577C373.271 428.407 373.262 428.237 373.25 428.067Z" fill="#48472E"/>
<path d="M374.308 421.657C374.49 409.526 376.547 399.985 385.622 391.207C390.745 386.253 403.803 377.805 411.188 378.219C412.163 378.274 413.128 378.46 414.088 378.596C419.018 379.292 424.003 378.306 428.988 378.627C441.713 379.445 456.348 387.721 463.963 397.919C468.728 404.296 471.413 421.716 470.618 429.622C471.893 430.062 472.683 430.042 473.998 429.962C473.178 433.282 472.493 437.602 470.638 440.527C468.848 444.707 466.578 448.667 463.873 452.327C463.608 452.682 463.358 453.047 463.103 453.407L463.318 454.142C461.803 455.357 461.753 456.692 461.323 458.537C459.803 458.387 458.683 458.047 457.413 459.162C456.588 459.887 455.873 460.847 455.173 461.692C454.003 461.882 452.463 461.782 451.748 462.877C451.573 463.142 451.428 463.677 451.333 463.987C451.158 462.547 451.253 462.172 450.303 461.112C447.958 462.352 446.563 464.092 444.483 465.522L445.673 466.637C440.328 468.847 434.798 472.047 429.008 472.762C426.723 471.462 425.018 473.377 422.633 472.617L421.528 470.347C420.188 469.392 416.193 469.897 414.418 469.777C407.671 470.687 398.859 467.802 393.57 463.542C393.193 463.237 392.845 462.902 392.487 462.577C391.551 461.727 390.492 461.032 389.454 460.312C383.411 470.142 377.651 480.507 372.486 490.822C368.439 498.907 365.148 507.792 359.867 515.167C345.552 503.497 336.288 491.277 330.394 473.672L331.626 472.677C333.307 471.277 335.616 470.407 337.583 469.452C342.857 467.222 348.205 464.942 353.658 463.182C361.169 460.757 368.892 458.807 376.215 455.832C379.574 454.467 382.5 452.582 385.741 451.012C384.296 449.352 383.022 447.622 381.756 445.827C381.527 444.432 381.344 443.767 381.986 442.442C381.353 439.812 379.285 437.377 378.546 434.582C376.502 431.467 374.383 425.343 374.308 421.657Z" fill="#785428"/>
<path d="M383.081 434.642C383.046 434.482 383.013 434.327 382.976 434.172C382.652 432.807 382.237 431.732 381.604 430.482C378.2 423.768 378.918 413.964 381.275 406.986C384.046 398.78 391.613 391.766 399.29 388.073C409.862 382.989 425.502 381.692 436.617 385.652C447.147 389.402 455.947 396.695 460.717 406.881C464.957 415.94 466.302 428.607 462.832 438.117C460.912 443.392 457.252 447.247 453.387 451.162C447.097 459.262 437.322 463.832 427.317 465.137C420.057 466.087 410.082 466.007 403.365 462.682C396.503 460.432 391.302 455.352 385.74 451.012C384.295 449.352 383.022 447.622 381.756 445.827C381.527 444.432 381.343 443.767 381.985 442.442C387.155 450.972 397.032 457.947 406.217 461.572C411.822 463.017 417.797 463.382 423.562 463.022C434.267 462.357 445.517 457.212 452.617 449.097C456.852 443.202 460.507 437.842 461.837 430.537C463.602 420.852 460.587 410.088 454.902 402.156C449.282 394.313 439.402 388.072 429.862 386.537C416.872 384.485 403.593 387.666 392.939 395.383C386.915 399.816 383.464 406.092 382.367 413.417C380.297 427.232 387.176 439.112 395.036 449.697C389.719 445.077 386.358 440.917 383.081 434.642Z" fill="#48472E"/>
<path d="M468.333 441.427L469.522 440.352L470.638 440.527C468.848 444.707 466.577 448.667 463.872 452.327C463.607 452.682 463.357 453.047 463.102 453.407L463.318 454.142C461.803 455.357 461.753 456.692 461.323 458.537C459.803 458.387 458.682 458.047 457.412 459.162C456.587 459.887 455.872 460.847 455.172 461.692C454.002 461.882 452.462 461.782 451.747 462.877C451.572 463.142 451.428 463.677 451.333 463.987C451.158 462.547 451.252 462.172 450.302 461.112C452.447 459.537 467.128 443.747 468.333 441.427Z" fill="#48472E"/>
<path d="M414.417 469.777C416.877 468.827 421.917 469.532 424.747 469.312C429.862 468.912 439.802 467.257 444.482 465.522L445.672 466.637C440.327 468.847 434.798 472.047 429.008 472.762C426.723 471.462 425.018 473.377 422.633 472.617L421.527 470.347C420.187 469.392 416.192 469.897 414.417 469.777Z" fill="#48472E"/>
<path d="M468.333 441.427C469.773 437.752 469.242 433.387 470.617 429.622C471.892 430.062 472.682 430.042 473.997 429.962C473.177 433.282 472.493 437.602 470.638 440.527L469.522 440.352L468.333 441.427Z" fill="#48472E"/>
<path d="M224.243 648.067C224.923 642.417 225.889 636.802 226.414 631.137C228.353 610.192 229.112 589.077 232.529 568.267C233.14 564.547 234.341 561.317 235.33 557.727C235.672 556.487 235.381 555.242 235.632 554.012C235.856 552.922 236.372 552.307 237.307 551.757L239.777 552.402C243.955 558.127 246.458 565.697 248.842 572.362C258.323 598.887 263.112 625.687 258.704 653.822C255.506 674.222 247.369 701.302 234.452 717.652C226.518 697.422 227.022 676.467 224.928 655.227C221.804 661.162 220.038 667.772 217.516 673.972C208.914 695.132 197.91 721.707 182.081 738.552C179.788 721.527 181.501 702.897 183.057 685.822C183.826 677.377 184.895 668.592 184.741 660.122C185.935 660.627 187.106 660.922 188.361 661.222C190.162 659.567 191.407 655.712 192.277 653.422C195.794 644.177 198.213 634.392 201.271 624.972C204.367 615.432 208.046 606.022 211.254 596.492C213.029 591.217 224.961 559.357 228.067 557.827L228.504 558.102C228.534 561.642 227.318 565.252 226.683 568.742C225.917 572.947 225.373 577.227 224.884 581.477C222.625 601.102 221.157 620.712 219.804 640.417C219.864 641.972 219.542 644.267 220.753 645.392C221.973 646.527 223.107 646.507 224.243 648.067Z" fill="#819458"/>
<path d="M219.805 640.417C219.864 641.972 219.542 644.267 220.753 645.392C221.974 646.527 223.107 646.507 224.243 648.067C222.826 649.117 221.03 649.727 219.416 650.437C219.204 647.117 218.981 643.667 219.805 640.417Z" fill="#98A462"/>
<path d="M451.333 463.987C451.428 463.677 451.572 463.142 451.747 462.877C452.462 461.782 454.002 461.882 455.172 461.692C454.592 464.252 454.372 465.577 452.107 467.107L451.333 463.987Z" fill="#634C2D"/>
<path d="M475.502 644.697C475.832 644.747 476.162 644.807 476.497 644.852C477.682 645.032 478.492 644.887 479.647 644.612L480.572 645.032C480.522 645.157 480.472 645.282 480.422 645.412C480.122 646.232 480.252 645.852 480.042 646.647C478.552 652.347 474.752 658.092 472.037 663.342C467.772 671.592 463.612 679.897 459.212 688.077C455.117 695.687 450.562 703.322 447.192 711.272L446.722 711.612C441.757 715.012 437.462 720.772 433.222 725.102C423.262 735.272 412.332 744.662 399.911 751.672C398.981 747.717 398.173 743.312 398.252 739.242C398.34 734.722 401.84 732.992 403.862 729.292C415.922 707.212 430.602 688.302 448.527 670.657C452.592 666.652 457.037 663.037 461.137 659.072C466.007 654.367 470.637 649.412 475.502 644.697Z" fill="#819458"/>
<path d="M373.146 345.321C376.841 353.117 388.561 378.21 388.175 385.287C387.01 386.987 383.894 388.022 382.019 388.898C374.124 385.506 365.913 383.047 357.645 380.744C353.937 379.711 350.026 378.939 346.407 377.642C344.971 377.128 343.806 376.671 342.682 375.632C342.19 374.394 342.057 373.518 341.954 372.197C341.899 371.493 341.928 371.755 341.605 370.973C346.861 362.602 364.051 348.644 373.146 345.321Z" fill="#785428"/>
<path d="M328.261 409.056C328.465 408.923 328.674 408.796 328.873 408.656C331.503 406.813 330.06 404.361 334.412 404.749C343.035 405.517 360.242 412.451 368.634 416.371C368.679 418.694 368.688 420.721 369.538 422.929C366.585 425.396 353.15 428.512 348.524 430.187C342.701 432.297 334.278 438.052 328.336 438.027C327.533 437.537 327.341 437.357 326.806 436.642L326.213 436.442C323.334 428.277 325.478 417.018 328.261 409.056Z" fill="#785428"/>
<path d="M496.828 373.309C495.203 374.929 491.753 376.234 489.663 377.243C487.748 378.169 459.193 389.321 459.023 389.321C458.778 389.32 458.563 389.159 458.333 389.078C457.033 385.126 467.508 359.792 469.998 354.705C470.903 352.853 474.238 347.905 474.618 346.483C474.663 346.329 474.668 346.169 474.688 346.012C483.683 352.846 492.973 362.434 496.828 373.309Z" fill="#785428"/>
<path d="M416.397 375.061C414.112 368.704 412.222 362.206 410.077 355.8C408.717 351.745 406.773 347.659 405.86 343.488C405.55 342.07 405.396 340.555 405.799 339.146C410.677 336.907 417.867 340.671 423.457 339.515C423.647 339.477 423.832 339.432 424.017 339.39C427.877 340.25 431.707 341.208 435.512 342.264C435.732 342.921 435.942 343.55 436.057 344.233C436.667 347.783 428.912 372.621 426.702 375.864C423.247 378.138 422.967 375.622 420.112 375.063C419.087 374.862 417.477 375.061 416.397 375.061Z" fill="#785428"/>
<path d="M326.51 26.7616C341.163 42.6331 351.574 91.8211 358.663 113.823C363.593 98.9086 365.414 83.6196 369.249 68.4701C371.429 59.8581 375.389 51.8561 377.755 43.3126C398.996 83.1696 395.854 130.141 383.065 172.122C379.403 184.141 375.376 196.13 370.234 207.608C365.152 218.953 358.909 229.784 355.169 241.69C362.392 256.952 370.852 271.588 377.776 287.024C385.571 304.402 391.174 322.362 397.665 340.2C402.065 352.294 407.305 364.124 411.348 376.347C405.42 377.827 399.935 379.627 394.412 382.247C392.728 375.852 389.83 369.834 387.559 363.633C383.915 353.68 380.725 343.586 376.879 333.703C371.603 320.147 344.084 253.958 335.297 248.512C331.861 246.383 327.898 245.789 323.917 246.087C315.245 246.736 305.486 250.245 296.64 251.611C263.322 256.755 225.378 256.227 194.644 241.005C190.186 238.797 181.393 234.958 178.502 231.028L178.749 230.239C183.995 227.505 207.607 225.273 214.696 224.233C220.713 223.326 226.707 222.28 232.675 221.097C227.401 215.98 209.774 212.043 202.251 209.31C197.057 207.383 191.948 205.233 186.938 202.867C173.234 196.397 160.658 188.429 148.749 179.081C161.145 178.378 173.582 179.028 185.838 181.02C198.118 183.007 209.569 185.776 222.098 186.051C212.641 179.348 203.591 172.179 194.37 165.168C182.663 156.266 169.628 147.062 159.534 136.391C180.755 137.267 200.568 145.462 219.592 154.35C226.376 157.519 232.962 160.986 239.924 163.765C235.906 155.374 229.395 148.097 223.715 140.763C211.763 125.33 197.055 107.559 188.283 90.1936C203.688 95.5921 220.595 106.635 233.108 117.145C240.036 122.964 246.464 129.389 253.183 135.444C258.52 140.253 264.484 144.457 269.486 149.606L268.421 145.659C266.781 132.974 258.564 112.023 254.417 99.3766C249.491 84.3576 245.58 69.1726 242.139 53.7531C249.697 58.8806 256.085 65.1256 261.831 72.2126C265.948 77.2911 289.419 113.858 292.393 114.986L285.254 57.2816C284.084 48.2966 283.382 39.0676 281.585 30.1921C289.269 39.1051 295.691 47.8211 301.084 58.3526C303.8 63.6581 318.137 99.0701 319.166 99.7171C319.389 99.4686 319.61 99.2176 319.836 98.9716C320.503 98.2441 320.999 97.9051 321.943 97.5681C323.02 94.5701 321.808 90.1116 321.913 86.8796C322.429 70.8791 322.195 41.3491 326.51 26.7616Z" fill="url(#paint3_linear_2958_7279)"/>
<path d="M188.283 90.1936C203.688 95.5921 220.595 106.635 233.108 117.145C240.036 122.964 246.464 129.389 253.183 135.444C258.52 140.253 264.484 144.457 269.486 149.606C270.401 156.243 308.052 204.955 314.913 213.64C306.243 207.302 253.413 167.256 246.299 167.677C245.966 168.535 245.925 168.164 246.301 168.972C248.275 173.207 253.988 177.801 257.682 180.619C262.383 184.204 268.097 186.782 273.07 190.07C286.786 199.141 300.464 209.238 312.588 220.348C314.206 221.831 317.626 224.235 318.23 226.253C314.684 227.169 308.849 223.282 305.857 221.508C301.069 218.671 293.51 212.553 288.513 211.082C288.243 211.075 287.972 211.075 287.702 211.06C281.109 210.698 264.378 199.691 257.889 196.362C254.162 194.45 250.262 192.972 246.552 191.062C243.441 189.461 239.639 186.762 236.336 185.828C235.003 185.451 233.334 185.68 231.851 185.393C230.379 185.109 228.463 184.419 227.004 184.87C227.218 186.215 227.989 187.334 229.073 188.141C232.271 190.522 236.842 191.971 240.496 193.66C247.545 196.919 254.481 200.416 261.535 203.656C267.619 206.45 276.188 209.612 281.523 213.456L281.387 214.038L316.271 232.741C312.274 232.856 307.093 233.61 303.217 232.808C292.961 230.684 283.262 226.961 273.345 223.775C267.28 221.826 260.959 220.364 254.793 218.748C250.029 217.499 244.643 215.734 239.693 215.704C237.879 215.693 236.119 216.571 234.808 217.761L234.308 219.967L232.797 220.119L232.675 221.097C227.401 215.98 209.774 212.043 202.251 209.31C197.057 207.383 191.948 205.233 186.938 202.867C173.234 196.397 160.658 188.429 148.749 179.081C161.145 178.378 173.582 179.028 185.838 181.02C198.118 183.007 209.569 185.776 222.098 186.051C212.641 179.348 203.591 172.179 194.37 165.168C182.663 156.266 169.628 147.062 159.534 136.391C180.755 137.267 200.568 145.462 219.592 154.35C226.376 157.519 232.962 160.986 239.924 163.765C235.906 155.374 229.395 148.097 223.715 140.763C211.763 125.33 197.055 107.559 188.283 90.1936Z" fill="#819458"/>
<path d="M230.943 182.798C237.493 184.821 243.768 188.585 249.931 191.622L288.513 211.082C288.243 211.075 287.971 211.075 287.701 211.06C281.109 210.698 264.377 199.691 257.889 196.362C254.161 194.45 250.262 192.972 246.551 191.062C243.44 189.461 239.638 186.762 236.335 185.828C235.003 185.451 233.334 185.68 231.85 185.393C230.378 185.109 228.462 184.419 227.004 184.87C227.218 186.215 227.988 187.334 229.072 188.141C232.27 190.522 236.842 191.971 240.496 193.66C247.545 196.919 254.48 200.416 261.534 203.656C267.619 206.45 276.187 209.612 281.522 213.456L281.387 214.038C277.339 212.517 273.371 210.137 269.454 208.266L245.706 196.975C239.941 194.224 230.429 190.716 225.291 187.453C224.198 186.759 223.676 186.323 223.417 185.059C225.057 183.682 228.8 183.3 230.943 182.798Z" fill="#98A462"/>
<path d="M242.139 53.7531C249.697 58.8806 256.085 65.1256 261.831 72.2126C265.948 77.2911 289.419 113.858 292.392 114.986L292.609 118.055C293.089 124.743 297.029 132.882 299.394 139.168C302.971 148.676 306.466 158.269 310.348 167.655C315.24 179.484 320.659 191.048 325.344 202.98C328.694 211.513 330.851 220.437 333.556 229.172C329.618 224.168 325.27 219.462 321.574 214.282L289.492 169.144C285.175 163.143 279.157 151.67 273.533 147.299C272.316 146.353 269.919 146.211 268.421 145.659C266.78 132.974 258.564 112.023 254.416 99.3766C249.49 84.3576 245.579 69.1726 242.139 53.7531Z" fill="#819458"/>
<path d="M463.093 392.404C471.423 390.178 479.643 386.79 487.813 384.024C502.518 379.153 517.183 374.168 531.808 369.068C540.033 366.179 548.128 362.967 556.423 360.253C575.998 353.843 596.643 350.595 616.068 343.562C619.268 342.402 623.518 340.809 625.808 338.231C634.158 328.827 637.873 304.592 641.353 291.807C643.973 282.188 646.878 272.428 651.173 263.414C662.193 240.306 677.003 221.545 697.533 206.246C705.723 200.144 713.668 195.181 723.323 191.716C720.603 201.12 717.213 210.552 713.758 219.711C711.778 224.965 698.713 253.91 698.813 257.733C705.423 252.9 710.773 246.233 716.913 240.82C732.338 227.101 749.458 215.415 767.853 206.049C755.663 226.134 743.988 246.411 730.573 265.731C730.898 266.906 730.573 266.427 731.558 267.161C730.503 268.414 729.288 269.538 728.328 270.86C728.958 270.799 729.193 270.811 729.848 270.545C734.548 268.637 739.638 264.641 743.978 261.946C752.883 256.417 761.918 250.901 771.368 246.351C781.263 241.588 792.403 237.763 803.138 235.356C795.653 244.711 788.328 254.38 780.263 263.242C774.928 269.059 769.353 274.653 763.553 280.009C759.468 283.765 754.883 287.383 751.223 291.548C750.318 292.578 749.808 293.279 749.643 294.671L750.528 296.232C756.433 294.537 762.463 293.492 768.458 292.197C790.463 287.442 813.648 282.789 836.208 286.224C811.413 303.601 793.178 312.015 764.873 322.094C764.993 323.059 764.788 322.976 765.443 323.552C766.183 324.206 766.853 324.472 767.798 324.685C772.918 325.843 778.593 326.003 783.818 326.677C796.968 328.371 810.613 329.904 823.593 332.455C829.213 333.559 834.663 335.028 839.853 337.472L839.808 338.189C828.063 347.14 791.338 354.231 776.233 356.274C771.138 356.964 765.843 356.91 760.813 357.767C759.558 357.981 758.608 358.236 757.613 359.081L757.543 359.988L759.058 361.206L760.123 361.504C765.333 363.093 770.353 365.256 775.548 366.915C789.848 371.485 823.523 380.501 834.083 390.992C819.163 395.108 797.778 396.065 782.338 394.265C773.158 393.195 764.418 389.161 755.378 388.292C754.113 388.17 753.538 388.167 752.493 388.884C752.643 390.03 752.378 389.617 753.243 390.296C756.878 393.146 762.113 395.185 766.163 397.563C778.898 405.042 805.663 420.909 813.708 432.357C813.863 432.577 814.018 432.787 814.168 433.002C814.263 433.132 814.348 433.267 814.438 433.397C803.183 433.717 792.408 431.912 781.493 429.342C772.068 427.122 762.358 424.35 753.183 421.252C747.093 419.195 741.033 416.448 734.768 414.981C732.938 414.552 731.518 414.356 729.678 414.774L729.468 415.41C743.593 425.788 760.213 437.182 767.503 453.702L767.413 454.287C744.573 451.697 717.293 439.912 698.328 427.072C688.188 420.209 678.428 412.438 668.753 404.929C661.833 399.561 654.473 393.289 646.573 389.432C643.248 387.811 639.903 387.003 636.288 386.353L636.243 385.536C637.178 384.366 637.998 383.089 638.848 381.852C639.058 378.528 639.418 375.208 638.388 371.989C638.293 371.736 638.213 371.478 638.108 371.231C636.623 367.828 632.868 366 629.518 364.92C611.723 359.186 530.858 386.765 510.063 395.493C497.448 400.787 485.668 407.864 473.448 413.967C471.058 406.414 466.813 399.365 463.093 392.404Z" fill="url(#paint4_linear_2958_7279)"/>
<path d="M646.157 357.231C668.352 356.393 690.582 357.063 712.687 359.236C724.487 360.44 736.662 362.976 748.477 363.35C752.007 363.461 757.072 363.335 760.122 361.503C765.332 363.092 770.352 365.256 775.547 366.915C789.847 371.485 823.522 380.501 834.082 390.992C819.162 395.108 797.777 396.065 782.337 394.265C773.157 393.195 764.417 389.161 755.377 388.292C754.112 388.17 753.537 388.167 752.492 388.884C752.642 390.03 752.377 389.617 753.242 390.296C756.877 393.146 762.112 395.185 766.162 397.563C778.897 405.042 805.662 420.909 813.707 432.357C813.862 432.577 814.017 432.787 814.167 433.002C814.262 433.132 814.347 433.267 814.437 433.397C803.182 433.717 792.407 431.912 781.492 429.342C772.067 427.122 762.357 424.349 753.182 421.252C747.092 419.195 741.032 416.448 734.767 414.981C732.937 414.552 731.517 414.356 729.677 414.774L729.467 415.41C743.592 425.788 760.212 437.182 767.502 453.702L767.412 454.287C744.572 451.697 717.292 439.912 698.327 427.072C688.187 420.209 678.427 412.438 668.752 404.929C661.832 399.561 654.472 393.289 646.572 389.432C643.247 387.811 639.902 387.003 636.287 386.353L636.242 385.536C637.177 384.366 637.997 383.089 638.847 381.852C639.057 378.528 639.417 375.208 638.387 371.989C640.942 371.177 643.517 371.853 645.882 371.145C645.622 370.472 645.407 369.853 645.222 369.151C648.317 370.382 650.507 372.95 653.377 374.563C656.932 376.561 660.667 378.213 664.207 380.288C672.532 385.167 680.457 390.655 688.752 395.566C696.917 400.397 705.562 404.562 713.897 409.097C716.957 410.76 721.372 414.489 724.847 414.817C725.772 414.905 725.407 414.95 726.177 414.26L726.042 411.882C724.612 410.032 722.432 407.994 720.337 406.909C718.027 405.71 716.117 403.93 713.852 402.647L691.602 389.928C677.522 381.768 663.077 374.511 650.132 364.552C672.707 369.389 695.117 376.063 717.337 382.304C724.662 384.361 737.742 389.715 744.587 389.717C745.962 389.717 746.562 389.598 747.547 388.653L747.542 387.516C744.237 383.323 734.262 381.76 729.157 380.111C710.112 373.959 690.917 368.651 671.522 363.645C663.272 361.516 654.587 360.264 646.557 357.379L646.157 357.231Z" fill="#819458"/>
<path d="M750.527 296.232C756.432 294.537 762.463 293.492 768.458 292.197C790.463 287.442 813.648 282.789 836.208 286.224C811.413 303.601 793.177 312.015 764.872 322.094C764.992 323.059 764.788 322.976 765.443 323.552C766.183 324.206 766.852 324.472 767.797 324.685C772.917 325.843 778.593 326.003 783.818 326.677C796.968 328.371 810.612 329.904 823.592 332.455C829.212 333.559 834.662 335.028 839.852 337.472L839.807 338.189C828.062 347.14 791.337 354.231 776.232 356.274C771.137 356.964 765.843 356.91 760.812 357.767C759.558 357.981 758.607 358.236 757.612 359.081L757.542 359.988L759.057 361.206C754.362 361.278 749.722 359.095 745.097 358.162C737.977 356.77 730.807 355.65 723.602 354.803C699.272 352.079 674.722 351.913 650.292 350.72C657.722 349.658 664.842 347.36 672.117 345.584C682.897 343.061 693.698 340.621 704.518 338.263C719.688 334.988 735.817 334.587 750.722 330.326C755.182 329.05 759.482 327.09 763.747 325.276C753.952 326.175 744.003 326.441 734.258 327.642C726.033 328.655 717.837 330.415 709.667 331.795C701.437 333.184 693.033 334.188 684.893 336.033C677.993 337.598 671.208 339.702 664.318 341.343C656.893 343.112 649.217 344.138 641.927 346.399C650.357 340.155 660.573 334.955 670.318 331.072C675.193 329.129 680.233 327.596 685.068 325.561C697.378 320.384 709.468 314.605 721.828 309.564C730.173 306.162 743.787 301.699 750.527 296.232Z" fill="#819458"/>
<path d="M728.328 270.86C728.958 270.799 729.192 270.811 729.847 270.545C734.547 268.637 739.637 264.641 743.977 261.946C752.882 256.417 761.917 250.901 771.367 246.351C781.262 241.588 792.403 237.763 803.138 235.356C795.653 244.711 788.328 254.38 780.263 263.242C774.928 269.059 769.352 274.653 763.552 280.009C759.467 283.765 754.882 287.383 751.222 291.548C750.317 292.578 749.808 293.279 749.643 294.671C747.608 294.738 745.888 294.013 743.812 294.537C738.963 295.76 734.168 297.948 729.518 299.798C716.368 305.029 703.757 311.099 690.842 316.812C684.452 319.636 677.728 321.567 671.253 324.168C663.583 327.252 656.207 331.235 648.907 335.099C654.612 330.452 660.592 326.127 666.352 321.546C670.812 317.997 675.057 314.159 679.587 310.704C687.942 304.325 696.478 298.367 704.643 291.695C712.238 285.484 719.728 275.023 728.328 270.86Z" fill="#819458"/>
<path d="M698.812 257.733C705.422 252.9 710.772 246.233 716.912 240.82C732.337 227.101 749.457 215.415 767.852 206.049C755.662 226.134 743.987 246.411 730.572 265.731C730.897 266.906 730.572 266.427 731.557 267.161C731.272 267.125 730.982 267.044 730.692 267.055C730.422 267.065 730.167 267.169 729.902 267.222C727.342 267.734 726.672 266.978 724.662 265.63C710.847 279.656 694.842 291.206 679.477 303.479C672.417 309.117 665.797 315.237 658.937 321.102C654.327 325.041 649.667 328.747 645.327 332.998C649.487 325.788 653.502 318.46 658.247 311.608C666.907 299.107 677.802 287.443 688.062 276.227C690.107 273.988 700.092 262.957 700.187 260.53L699.157 261.214C698.232 260.015 699.167 259.234 698.812 257.733Z" fill="#819458"/>
<path d="M481.503 94.288C483.198 86.835 483.058 78.5055 483.633 70.877C485.273 49.1725 488.393 26.912 498.403 7.31104C505.623 35.43 509.988 64.2045 511.433 93.199C513.083 89.727 514.968 86.34 516.748 82.932C525.768 60.199 535.903 36.0725 550.243 16.16C554.873 32.285 553.388 58.118 551.493 74.956C550.838 80.779 548.913 87.4785 549.158 93.243L552.163 89.798C564.233 75.281 586.818 43.988 603.268 35.548C600.478 46.3985 598.268 57.411 595.393 68.2285C593.333 75.964 590.838 83.636 588.423 91.269C587.108 95.44 586.053 100.682 583.998 104.501L582.733 108.476C588.013 107.217 592.663 102.744 596.953 99.531C603.333 94.7825 609.668 89.9675 615.953 85.0875C625.508 77.647 634.848 69.3785 646.313 65.0915C643.378 69.9205 641.243 75.1445 638.678 80.1685C635.618 86.1695 632.288 92.058 629.018 97.951C625.593 104.131 622.168 110.409 618.363 116.363C615.643 120.619 612.478 124.625 609.888 128.959C608.093 131.96 607.853 136.027 606.573 137.801C607.383 138.38 607.018 138.35 607.928 138.206C612.088 137.55 619.388 132.075 623.388 129.686C638.308 120.768 661.398 105.971 677.688 102.917C670.388 114.774 660.758 127.295 650.693 136.93C645.888 141.532 626.698 155.62 625.903 160.609C628.938 159.614 632.548 159.325 635.713 158.812C647.588 156.886 659.308 155.101 671.383 155.506C666.798 160.754 661.683 165.48 656.603 170.239C629.978 195.186 601.293 208.854 566.228 217.86C553.108 221.229 538.703 222.721 526.338 228.317C522.403 230.1 511.848 235.565 510.353 239.503L511.968 240.417L511.353 241.134C510.728 241.229 509.913 241.296 509.298 241.501C507.138 242.225 506.388 243.98 505.458 245.931C500.738 255.773 497.683 266.754 493.638 276.923C485.248 298.029 476.268 318.977 468.288 340.24C465.123 348.662 461.883 357.09 458.818 365.546C456.643 371.548 454.933 378.026 451.818 383.606L451.453 384.246C445.223 380.96 438.448 378.545 431.653 376.728C436.173 364.72 439.723 352.36 444.308 340.388C454.363 314.12 465.503 288.394 474.863 261.856C476.723 256.583 479.223 251.382 481.748 246.388C484.343 241.253 489.223 235.241 489.813 229.472C490.278 224.951 490.473 219.872 489.103 215.491C486.778 208.075 477.093 194.832 472.788 187.347C468.518 179.916 464.873 171.14 461.708 163.169C447.083 126.279 443.883 75.1755 452.803 36.6145C460.263 44.6605 479.188 83.6525 481.503 94.288Z" fill="url(#paint5_linear_2958_7279)"/>
<path d="M582.732 108.476C588.012 107.217 592.663 102.744 596.953 99.5311C603.333 94.7826 609.668 89.9676 615.953 85.0876C625.508 77.6471 634.847 69.3786 646.312 65.0916C643.378 69.9206 641.242 75.1445 638.677 80.1685C635.617 86.1695 632.288 92.058 629.018 97.951C625.593 104.131 622.167 110.409 618.362 116.363C615.642 120.619 612.478 124.625 609.888 128.959C608.093 131.96 607.853 136.027 606.573 137.801C607.383 138.38 607.017 138.35 607.927 138.206C612.087 137.55 619.388 132.075 623.388 129.686C638.308 120.768 661.397 105.971 677.688 102.917C670.387 114.774 660.758 127.295 650.693 136.93C645.888 141.532 626.697 155.62 625.902 160.609C623.052 163.171 615.307 165.203 611.477 167.146C587.952 179.085 563.953 190.365 540.818 203.021C535.508 205.927 529.972 207.806 524.982 211.294C529.017 206.963 533.677 203.258 537.927 199.142C542.192 195.009 546.068 190.512 550.443 186.48C558.218 179.308 603.347 140.386 605.682 133.758C606.097 132.587 606.238 131.886 605.638 130.769C603.738 130.408 601.677 131.954 600.212 133.022C591.572 139.328 584.127 147.772 576.237 154.987C566.982 163.446 556.962 171.306 548.147 180.2C541.222 187.184 535.277 195.081 528.352 202.009C527.177 203.184 525.262 205.369 523.647 205.51C523.647 203.061 525.838 199.315 527.083 197.249C529.788 192.759 533.527 189 536.312 184.557C549.193 164.027 561.673 143.343 574.018 122.495C576.638 118.066 581.327 113.373 582.732 108.476Z" fill="#819458"/>
<path d="M516.748 82.932C525.768 60.199 535.903 36.0725 550.243 16.16C554.873 32.285 553.388 58.118 551.493 74.956C550.838 80.779 548.913 87.4785 549.158 93.243L548.713 93.607L547.403 93.1215C541.723 97.169 526.208 155.171 523.833 164.565C522.698 169.072 522.078 173.797 520.778 178.245C519.473 182.702 517.183 186.987 515.523 191.335C513.363 197.014 511.933 202.814 509.048 208.207C511.853 197.641 512.103 184.193 512.953 173.196L516.798 128.715C516.968 126.904 517.568 125.106 517.823 123.288C519.438 111.591 522.268 98.897 521.983 87.1135C521.648 87.7385 521.298 88.3585 520.968 88.9865C520.618 89.6545 520.293 90.335 519.903 90.9825C518.983 92.5155 517.903 93.4415 516.163 93.8975C514.763 93.597 514.343 93.205 513.398 92.1485C513.458 89.722 516.253 85.655 517.403 83.314L516.748 82.932Z" fill="#819458"/>
<path d="M552.162 89.7981C564.232 75.2811 586.817 43.9881 603.267 35.5481C600.477 46.3986 598.267 57.4111 595.392 68.2286C593.332 75.9641 590.837 83.6361 588.422 91.2691C587.107 95.4401 586.052 100.682 583.997 104.501L583.297 104.489C582.962 104.229 582.582 103.91 582.192 103.739C581.047 103.234 580.512 103.246 579.377 103.544C576.592 106.656 574.962 111.317 572.537 114.868C566.317 123.982 559.772 132.964 554.007 142.373C547.157 153.554 541.112 165.24 534.317 176.462C531.407 181.203 528.437 185.906 525.407 190.569C523.812 193.012 521.622 195.614 520.457 198.247C520.372 198.444 520.292 198.644 520.207 198.842L519.732 198.853C527.892 177.468 532.547 154.884 538.917 132.925C541.392 124.38 544.077 115.627 547.077 107.253C548.667 102.803 550.747 98.5106 552.232 94.0236C552.667 92.7191 552.512 91.6361 552.267 90.3031C552.232 90.1341 552.197 89.9661 552.162 89.7981Z" fill="#819458"/>
<path d="M568.607 206.036C569.152 205.881 568.802 205.936 569.667 206.067C567.812 208.599 547.677 216.884 543.612 217.654L541.127 216.818C549.512 212.414 559.662 209.284 568.607 206.036Z" fill="#98A462"/>
<path d="M100.094 206.732C134.991 218.531 171.186 253.583 187.358 286.35C191.812 295.374 196.289 304.69 199.662 314.182C201.993 320.742 203.63 327.516 205.658 334.169C207.474 340.129 209.899 346.592 210.124 352.849C210.495 353.737 210.594 354.489 211.388 355.059C213.728 356.74 215.651 359.198 218.239 360.425C230.497 366.234 244.602 367.353 257.846 369.333C270.535 371.231 283.233 373.245 295.947 374.956C323.15 378.618 354.323 381.588 379.14 393.957C375.394 399.28 372.729 405.322 369.839 411.139C358.845 405.789 346.728 401.579 334.874 398.551C315.52 393.606 295.486 391.514 275.82 388.223C262.208 385.946 248.666 382.483 234.972 380.874C230.615 380.362 219.121 379.43 215.249 380.828C214.454 381.114 213.938 382.384 213.644 383.153C213.426 383.722 213.189 384.326 212.751 384.77C211.473 386.062 209.358 387.075 207.861 388.182C204.593 390.59 201.564 393.307 198.815 396.294C192.893 402.668 188.779 410.318 183.176 416.876C167.488 435.237 140.21 455.922 118.032 465.672C99.8609 473.657 81.6359 478.467 61.9924 481.102C69.3419 469.727 83.5794 457.667 94.2929 449.297C99.7269 445.052 114.104 436.507 117.176 431.212C113.282 431.112 93.9054 439.612 88.3479 441.382C68.7714 447.607 46.6624 451.942 26.0804 451.137L26.2294 450.942C32.7369 442.462 45.8259 433.132 55.2559 427.947C63.7744 423.263 73.2774 419.466 82.1359 415.364C86.7259 413.238 94.3164 410.539 97.5704 406.738L97.3739 406.033C91.8124 404.129 79.4539 407.132 73.0349 407.587C57.6444 408.678 23.5259 407.251 10.2634 399.615C10.0944 399.518 9.92788 399.416 9.76038 399.316C13.8404 396.464 18.3814 394.445 22.8924 392.386C46.7509 381.495 72.8134 376.304 98.8314 373.865C88.9279 368.263 77.7869 366.406 66.9384 363.372C47.4069 357.91 25.4869 351.16 8.21338 340.329C27.7684 333.295 48.2439 332.722 68.7649 332.999C74.9789 333.083 91.5759 336.426 96.2764 333.774L96.2404 333.684C89.5569 328.723 81.0354 325.042 73.7414 320.944C56.4094 311.208 39.4474 299.3 25.8249 284.761C55.0744 285.547 82.2324 295.196 109.985 303.461C105.932 297.869 100.837 293.116 96.1784 288.038C87.9594 278.937 79.9014 269.692 72.0074 260.308C65.1034 252.14 57.5969 244.289 52.7439 234.662C83.6789 242.048 108.707 260.536 134.46 278.192C127.675 260.967 120.297 244.554 111.816 228.091C108.059 220.8 104.529 213.66 100.094 206.732Z" fill="url(#paint6_linear_2958_7279)"/>
<path d="M100.094 206.732C134.991 218.531 171.186 253.583 187.358 286.35C191.812 295.374 196.289 304.69 199.662 314.182C201.993 320.742 203.63 327.516 205.658 334.169C207.474 340.129 209.899 346.592 210.124 352.849L209.573 352.583C209.263 353.66 209.364 354.119 209.517 355.191L209.584 355.636C206.705 355.401 201.224 351.324 199.361 349.191C194.244 343.334 191.319 335.522 186.996 329.061C182.893 322.928 177.507 317.638 172.762 312.006C164.498 302.196 157.035 290.627 146.495 283.038C142.927 280.468 137.659 279.45 133.529 277.902C138.535 283.189 144.303 287.784 149.42 292.985C156.416 300.096 162.131 307.866 168.453 315.519C175.456 323.998 183.895 332.704 188.893 342.584C191.046 346.841 191.996 351.212 192.925 355.851C179.424 347.093 168.315 335.356 155.802 325.264C150.795 321.227 145.116 318.063 139.656 314.679C131.874 309.855 119.983 300.561 110.318 301.578L109.814 302.244C112.084 306.482 125.428 312.031 130.059 314.732C145.927 323.985 159.349 334.794 173.206 346.745C175.137 348.41 180.554 352.107 181.383 354.439C182.945 358.838 189.628 359.887 193.403 363.9L193.958 364.494C192.516 363.65 190.515 362.185 188.878 361.87C187.008 361.51 185.606 362.718 183.517 361.978C173.977 358.6 164.192 355.011 154.842 351.15C142.706 346.137 130.896 340.644 118.219 337.083C114.466 336.029 99.3965 331.914 96.2405 333.684C89.557 328.723 81.0354 325.042 73.7414 320.944C56.4094 311.208 39.4475 299.3 25.825 284.761C55.0745 285.547 82.2324 295.196 109.985 303.461C105.932 297.869 100.837 293.116 96.1785 288.038C87.9595 278.937 79.9015 269.692 72.0075 260.308C65.1035 252.14 57.597 244.289 52.7439 234.662C83.6789 242.048 108.707 260.536 134.46 278.192C127.675 260.967 120.297 244.554 111.816 228.091C108.059 220.8 104.529 213.66 100.094 206.732Z" fill="#819458"/>
<path d="M8.21338 340.329C27.7684 333.295 48.2439 332.722 68.7649 332.998C74.9789 333.082 91.5759 336.426 96.2764 333.773C110.675 342.422 127.647 346.517 143.337 352.464C152.3 355.861 160.818 360.267 169.754 363.647C177.202 366.465 185.002 368.287 192.092 371.992C182.154 371.871 172.244 371.018 162.303 370.943C152.104 370.866 141.765 371.591 131.574 372.053C124.081 372.383 116.595 372.841 109.117 373.427C105.028 373.784 100.478 374.957 96.4084 374.619C96.6614 374.716 96.9239 374.79 97.1669 374.91C97.3384 374.994 97.4854 375.122 97.6449 375.228C97.2864 376.506 96.5739 377.242 95.7204 378.21C96.1454 379.241 96.1494 379.246 97.1584 379.61C103.279 381.816 128.149 378.278 136.647 377.787C153.887 376.791 172.594 374.947 189.7 377.726L188.812 378.052C176.295 382.582 162.83 385.155 149.956 388.588C134.732 392.575 119.819 397.668 105.336 403.825C103.153 404.73 101.036 404.773 99.0694 406.25L98.8614 406.998C101.455 408.195 103.717 408.269 106.543 407.887C113.824 406.904 120.976 404.258 127.966 402.066C132.583 400.618 137.29 399.475 141.887 397.957C157.625 392.76 173.48 386.512 190.013 384.496C176.558 391.595 162.759 399.148 150.152 407.702C144.003 411.875 138.351 416.802 132.125 420.876C128.235 423.421 118.812 425.759 117.598 430.217C117.533 430.452 117.495 430.697 117.443 430.932L117.176 431.212C113.282 431.112 93.9054 439.612 88.3479 441.382C68.7714 447.607 46.6624 451.942 26.0804 451.137L26.2294 450.942C32.7369 442.462 45.8259 433.132 55.2559 427.947C63.7744 423.263 73.2774 419.465 82.1359 415.363C86.7259 413.238 94.3164 410.539 97.5704 406.737L97.3739 406.032C91.8124 404.129 79.4539 407.131 73.0349 407.586C57.6444 408.678 23.5259 407.251 10.2634 399.614C10.0944 399.517 9.92788 399.415 9.76038 399.315C13.8404 396.463 18.3814 394.444 22.8924 392.385C46.7509 381.495 72.8134 376.304 98.8314 373.864C88.9279 368.262 77.7869 366.405 66.9384 363.371C47.4069 357.909 25.4869 351.16 8.21338 340.329Z" fill="#819458"/>
<path d="M391.93 465.002C398.965 468.337 405.591 470.977 413.307 472.357C408.834 481.012 403.62 489.397 399.483 498.202C387.304 524.127 377.644 552.847 371.687 580.842C369.555 590.862 368.181 601.112 366.508 611.222C364.568 622.942 361.103 639.142 364.762 650.442C369.55 665.237 374.756 679.992 379.781 694.712C382.978 704.077 386.362 713.192 388.651 722.842C390.782 731.817 391.144 741.047 391.733 750.227C393.438 776.787 394.783 809.117 386.107 834.627C375.739 824.172 368.647 798.572 365.645 783.932C364.112 776.452 364.21 768.162 359.764 761.787C359.346 761.182 359.211 760.657 358.483 760.557C358.464 760.722 358.446 760.887 358.425 761.057C358.138 763.302 357.49 765.317 356.78 767.457C356.091 772.702 354.6 778.132 353.435 783.312C349.042 802.867 343.778 821.932 334.336 839.732C328.261 821.142 327.83 801.967 327.701 782.607C327.649 774.757 328.431 765.752 327.16 758.032C326.886 756.367 326.002 754.707 325.509 753.072L324.995 750.057C323.334 754.497 321 758.742 319.103 763.092C311.448 780.662 296.676 816.517 283.012 828.887C279.248 806.417 287.721 770.417 293.217 747.997C294.661 742.102 298.469 735.122 297.63 729.032C290.844 735.152 285.196 743.837 279.559 751.072C266.439 767.912 252.632 784.842 235.616 797.902C242.022 750.422 273.332 713.447 302.699 677.697C312.766 665.442 323.248 654.047 330.773 639.927C338.367 625.672 342.368 598.332 345.829 581.807C347.646 573.132 349.993 564.512 352.426 555.987C357.882 536.872 366.492 518.432 374.851 500.437C380.387 488.517 385.825 476.647 391.93 465.002Z" fill="url(#paint7_linear_2958_7279)"/>
<path d="M297.63 729.032C297.777 728.957 297.926 728.882 298.072 728.802C306.295 724.212 323.892 685.377 329.41 675.082C332.391 669.522 335.717 664.377 339.186 659.117C340.589 656.987 341.589 653.927 343.478 652.242C344.277 659.772 339.267 669.792 337.365 677.082C334.802 686.912 333.451 696.757 331.287 706.617C329.065 716.742 320.585 740.682 324.995 750.057C323.334 754.497 321 758.742 319.103 763.092C311.448 780.662 296.676 816.517 283.012 828.887C279.248 806.417 287.721 770.417 293.217 747.997C294.661 742.102 298.469 735.122 297.63 729.032Z" fill="#819458"/>
<path d="M325.51 753.072C325.647 752.992 325.786 752.917 325.922 752.837C327.984 751.617 328.84 750.467 329.396 748.127C330.793 742.252 330.199 735.857 331.288 729.857C332.151 725.107 334.029 720.267 335.155 715.512C336.989 707.767 337.908 699.892 339.605 692.142C340.734 686.982 342.737 681.957 344.06 676.827C345.082 672.862 347.948 656.072 349.427 654.062C350.395 654.512 350.133 654.187 350.539 655.162C353.414 662.057 352.403 700.892 352.609 710.742C352.831 721.342 353.647 731.962 353.607 742.562C353.591 746.587 352.477 761.567 353.297 764.462C353.665 765.757 355.711 766.782 356.781 767.457C356.091 772.702 354.6 778.132 353.436 783.312C349.042 802.867 343.778 821.932 334.337 839.732C328.261 821.142 327.83 801.967 327.701 782.607C327.649 774.757 328.431 765.752 327.161 758.032C326.887 756.367 326.002 754.707 325.51 753.072Z" fill="#819458"/>
<path d="M334.562 650.177C335.149 650.012 334.776 650.052 335.678 650.342L335.964 651.482C335.561 653.087 335.275 653.762 334.154 654.982L333.368 654.747C333.062 654.367 332.833 653.887 332.588 653.462L333.231 652.032L333.119 651.267L333.255 651.622C332.761 651.187 332.48 650.952 331.828 650.777C331.671 650.732 331.511 650.707 331.352 650.672L334.562 650.177Z" fill="#98A462"/>
<path d="M588.133 220.235C588.708 220.147 588.658 220.077 589.318 220.682C591.268 222.469 593.158 226.317 594.838 228.589C605.223 242.647 610.868 249.541 612.268 267.419C601.708 264.615 592.413 260.352 583.423 254.075C579.498 251.334 574.943 246.639 570.448 245.103C569.318 244.718 569.128 244.733 568.103 245.216C568.258 245.441 568.413 245.663 568.568 245.889C576.213 257.31 586.368 285.678 583.683 299.435L583.538 300.14C579.553 298.676 575.763 296.921 572.378 294.322C565.508 289.046 554.038 272.701 547.908 264.976C545.318 261.389 542.793 258.587 539.308 255.852C541.483 275.561 541.698 300.252 530.623 317.432C514.518 295.172 516.278 273.616 509.613 248.743C510.733 245.42 512.748 242.384 514.258 239.214C518.553 237.075 522.418 233.929 526.903 232.181C532.488 230.003 538.813 228.865 544.658 227.513C551.783 225.863 558.888 223.753 566.098 222.521C573.318 221.287 580.833 220.95 588.133 220.235Z" fill="#667343"/>
<path d="M222.675 385.192C235.803 384.494 248.03 388.366 260.023 393.335C265.023 401.149 270.467 408.235 274.692 416.587C276.892 420.936 281.518 430.032 279.891 434.917C274.358 439.947 251.89 427.702 243.837 428.192C242.896 428.932 242.946 428.922 243.058 430.182C243.463 434.717 245.006 439.337 245.634 443.892C246.174 447.817 246.97 468.502 245.165 471.382C244.778 472.002 244.315 471.887 243.66 472.012C238.262 469.532 232.1 456.867 229.356 451.517C226.769 446.867 221.084 432.617 217.211 430.382C216.02 429.697 215.8 429.822 214.599 430.242C212.987 433.707 212.85 443.722 210.951 449.122C208.532 456.002 201.105 474.037 193.884 476.867C192.692 477.337 192.09 477.217 190.956 476.732C189.374 474.712 188.955 471.397 188.466 468.917C186.018 456.512 187.97 444.027 189.882 431.727C190.441 428.127 191.847 423.162 191.261 419.6L190.177 418.881C190.109 416.048 203.24 398.056 205.78 395.122C210.666 389.479 215.018 385.647 222.675 385.192Z" fill="#667343"/>
<path d="M562.232 502.022C568.972 501.052 573.882 512.272 583.607 514.327C585.262 516.687 587.192 519.132 588.487 521.712C591.397 527.527 588.907 548.477 586.442 554.572C581.732 566.222 549.467 598.297 537.307 603.822C537.012 594.272 539.762 584.667 543.292 575.867C546.332 568.732 553.502 556.877 554.872 550.127C554.402 549.462 554.282 549.107 553.512 548.732C552.102 548.047 550.777 548.147 549.322 548.572C543.672 550.232 538.242 553.917 532.717 556.152C524.692 559.397 516.097 561.612 507.787 564.007C508.292 561.827 508.817 559.652 509.587 557.547C517.542 535.932 541.192 511.632 562.232 502.022Z" fill="#667343"/>
<path d="M459.457 171.486L460.922 172.327C462.347 175.27 463.077 178.576 464.632 181.426C469.467 190.311 485.627 214.599 486.612 221.996C487.417 228.048 475.052 246.743 471.042 251.816C470.167 247.362 468.932 237.857 465.617 234.731C461.842 235.444 457.217 238.211 453.687 239.863C440.512 246.029 432.877 248.417 418.422 249.277C419.157 246.567 420.062 243.988 421.052 241.364C425.357 234.086 430.467 226.748 436.842 221.112C439.857 218.448 446.317 214.705 448.367 211.58C449.132 210.412 449.022 209.915 448.917 208.607C447.687 207.371 446.722 207.167 444.992 207.265C441.257 207.478 437.082 208.859 433.412 209.734C423.327 212.142 412.657 215.049 402.234 214.955C415.907 196.959 437.732 178.55 459.457 171.486Z" fill="#667343"/>
<path d="M636.242 385.536L636.287 386.353C636.312 386.552 636.317 386.755 636.362 386.95C637.567 392.231 651.592 396.804 648.772 401.679C646.947 404.837 644.527 407.681 642.817 410.893C641.577 413.217 640.662 415.737 639.447 418.087C633.952 428.717 628.772 438.797 624.422 449.972C620.912 458.992 618.592 473.477 611.827 480.137L610.393 481.937L610.667 482.587C611.587 482.772 612.507 482.952 613.437 483.102C612.977 483.927 612.597 484.217 611.797 484.707C609.562 486.172 607.717 487.602 604.902 487.522C602.402 488.072 600.197 488.527 597.612 488.362C595.712 482.607 591.607 479.132 591.037 472.727C590.457 466.127 591.917 459.592 593.522 453.232C598.977 431.682 607.222 416.638 621.617 399.84C625.857 394.892 631.607 391.249 635.722 386.193C635.897 385.976 636.067 385.755 636.242 385.536Z" fill="#667343"/>
<path d="M235.012 292.818C235.909 296.534 237.735 300.118 239.206 303.651C241.915 310.155 244.446 316.486 246.071 323.358C246.749 326.228 248.147 336.338 250.473 337.822C257.564 336.284 267.675 320.755 272.662 315.112C275.817 311.541 279.194 308.288 282.78 305.157C283.406 318.547 280.72 328.843 275.624 341.113C272.867 349.142 268.181 356.675 264.118 364.112C256.375 362.922 248.768 363.526 241.007 361.775C233.286 360.034 223.159 357.708 218.691 350.672C218.648 345.271 217.344 339.865 217.519 334.473C217.961 320.808 226.737 303.448 235.012 292.818Z" fill="#667343"/>
<path d="M418.078 474.672C418.223 474.747 418.378 474.807 418.508 474.897C418.518 474.902 419.773 475.882 419.803 475.922C421.488 478.377 422.353 483.247 423.483 486.187C428.698 499.747 437.273 516.812 439.978 530.782C431.833 532.147 423.408 532.962 415.148 532.957C407.98 532.737 400.221 530.837 393.392 528.697C399.697 510.217 408.722 491.772 418.078 474.672Z" fill="#785428"/>
<path d="M510.412 440.222C504.577 438.422 476.272 426.727 473.432 423.049C472.752 422.169 472.922 422.595 473.097 421.403C477.907 416.405 499.002 407.193 506.272 403.888C507.822 403.184 508.852 402.932 510.577 402.818C512.202 402.711 513.697 402.514 515.292 402.185L515.887 402.06C516.827 405.61 517.682 409.183 518.452 412.774C519.317 417.749 520.952 424.326 519.997 429.382C519.917 433.427 520.262 438.152 519.392 442.087C517.662 441.447 515.757 441.537 513.932 441.287C512.697 441.047 511.582 440.652 510.412 440.222Z" fill="#785428"/>
<path d="M457.412 459.162C456.587 459.887 455.872 460.847 455.172 461.692C454.002 461.882 452.462 461.782 451.747 462.877C451.572 463.142 451.428 463.677 451.333 463.987L452.107 467.107C454.567 476.972 458.188 486.477 461.378 496.122C465.278 507.927 466.302 512.477 470.302 522.477C470.302 522.477 483.236 513.977 487.302 509.477C491.369 504.977 502.117 491.042 502.117 491.042C505.802 483.477 506.517 478.177 507.417 474.212C499.602 474.067 486.402 469.602 479.092 466.462C473.112 463.892 467.493 460.662 461.323 458.537C459.803 458.387 458.682 458.047 457.412 459.162Z" fill="#785428"/>
<defs>
<linearGradient id="paint0_linear_2958_7279" x1="745.213" y1="629.647" x2="484.848" y2="418.473" gradientUnits="userSpaceOnUse">
<stop stop-color="#758D51"/>
<stop offset="1" stop-color="#B1AD6D"/>
</linearGradient>
<linearGradient id="paint1_linear_2958_7279" x1="405.435" y1="798.067" x2="554.557" y2="527.747" gradientUnits="userSpaceOnUse">
<stop stop-color="#6A7D47"/>
<stop offset="1" stop-color="#AEA866"/>
</linearGradient>
<linearGradient id="paint2_linear_2958_7279" x1="122.697" y1="448.142" x2="280.517" y2="576.787" gradientUnits="userSpaceOnUse">
<stop stop-color="#768C54"/>
<stop offset="1" stop-color="#B3B16E"/>
</linearGradient>
<linearGradient id="paint3_linear_2958_7279" x1="237.844" y1="56.7636" x2="399.95" y2="380.165" gradientUnits="userSpaceOnUse">
<stop stop-color="#7A9656"/>
<stop offset="1" stop-color="#B6B272"/>
</linearGradient>
<linearGradient id="paint4_linear_2958_7279" x1="594.358" y1="206.838" x2="618.253" y2="425.666" gradientUnits="userSpaceOnUse">
<stop stop-color="#80975B"/>
<stop offset="1" stop-color="#BAB571"/>
</linearGradient>
<linearGradient id="paint5_linear_2958_7279" x1="567.793" y1="16.4885" x2="533.063" y2="389.77" gradientUnits="userSpaceOnUse">
<stop stop-color="#7F9C5B"/>
<stop offset="1" stop-color="#B2AD6E"/>
</linearGradient>
<linearGradient id="paint6_linear_2958_7279" x1="198.11" y1="515.272" x2="252.664" y2="310.592" gradientUnits="userSpaceOnUse">
<stop stop-color="#798D55"/>
<stop offset="1" stop-color="#BDB975"/>
</linearGradient>
<linearGradient id="paint7_linear_2958_7279" x1="352.082" y1="837.062" x2="302.632" y2="478.782" gradientUnits="userSpaceOnUse">
<stop stop-color="#778D51"/>
<stop offset="1" stop-color="#B4B06F"/>
</linearGradient>
</defs>
</svg>
