<svg width="771" height="750" viewBox="0 0 771 750" fill="none" xmlns="http://www.w3.org/2000/svg">
<path opacity="0.9" d="M155.88 428.551C157.572 428.525 161.14 428.529 164.65 428.604C168.073 428.676 171.713 428.819 173.384 429.112C174.285 429.269 175.011 429.935 175.247 430.819L175.419 431.461H175.418C175.712 432.535 175.96 433.387 176.314 434.079C176.646 434.729 176.978 435.046 177.343 435.213H177.342C179.294 436.101 182.33 436.614 186.172 436.755C189.957 436.895 194.289 436.668 198.678 436.238C207.456 435.376 216.266 433.716 221.004 432.673C222.047 432.443 223.114 432.947 223.599 433.899C224.084 434.85 223.865 436.01 223.067 436.719C217.254 441.885 210.315 447.56 204.299 454.002C198.551 460.159 193.907 466.757 192.053 473.832C193.01 475.231 193.655 476.043 194.785 477.31C200.942 477.31 209.562 475.157 218.519 472.201C227.865 469.117 237.238 465.281 243.959 462.53L244.633 462.253C245.642 461.84 246.803 462.177 247.435 463.066C248.067 463.954 248.003 465.16 247.282 465.978C237.46 477.106 228.833 488.313 223.839 502.425C223.113 504.479 222.136 508.118 221.742 511.444C221.544 513.115 221.509 514.576 221.668 515.668C221.805 516.619 222.033 516.933 222.089 517.001C222.158 517.019 222.452 517.082 223.138 516.966C224.005 516.819 225.154 516.445 226.555 515.829C229.345 514.605 232.734 512.612 236.17 510.362C243.019 505.874 249.717 500.59 251.539 499.101C252.263 498.509 253.27 498.404 254.101 498.833C254.932 499.263 255.428 500.144 255.365 501.077C254.929 507.48 254.645 513.918 254.362 520.385C254.08 526.843 253.799 533.332 253.372 539.79C252.521 552.661 250.893 566.054 249.153 578.764C249.085 579.257 248.863 579.716 248.517 580.074C244.576 584.161 241.745 586.576 239.055 589.081C236.373 591.579 233.67 594.308 229.76 599.209C229.098 600.04 227.959 600.321 226.986 599.896C226.013 599.47 225.446 598.444 225.605 597.394C225.876 595.607 226.148 593.821 226.42 592.034C224.565 598.546 222.67 605.133 220.328 611.892L219.824 613.329C218.982 615.702 215.999 621.721 212.997 627.556C209.956 633.465 206.756 639.452 205.374 641.888C204.885 642.749 203.909 643.211 202.933 643.042C201.958 642.873 201.193 642.11 201.022 641.135L200.967 640.825C200.278 636.899 198.862 628.877 198.851 624.804C198.814 610.476 198.091 590.417 199.016 573.742C198.636 574.481 198.212 575.313 197.737 576.261C185.332 601.016 176.952 623.511 161.627 646.968C161.058 647.838 159.985 648.23 158.99 647.933C157.995 647.635 157.313 646.719 157.315 645.68C157.385 613.419 162.094 593.356 170.394 567.173C168.878 569.095 167.358 570.996 165.94 572.846C155.253 586.991 143.887 600.514 131.89 613.359L129.482 615.919C126.376 619.197 122.252 624.062 118.377 626.921C117.62 627.479 116.603 627.531 115.793 627.054C114.982 626.576 114.535 625.661 114.657 624.728C118.12 598.213 129.488 570.439 143.236 547.589C136.387 553.645 129.384 559.445 121.89 565.716C107.338 577.895 96.8507 586.215 81.3297 596.772C80.4858 597.346 79.3679 597.309 78.5641 596.68C77.7603 596.051 77.4549 594.974 77.8092 594.017C86.3239 571.016 106.183 540.96 123.757 522.93C115.914 527.033 107.687 531.344 99.4303 535.259C86.3883 541.443 72.9376 546.809 60.0416 549.125C59.1605 549.283 58.2661 548.927 57.736 548.205C57.2059 547.484 57.1325 546.524 57.5465 545.731C62.8777 535.511 74.3245 523.4 86.5846 512.679C95.8089 504.612 105.66 497.189 114.037 491.796C97.3274 496.52 80.2768 500.096 63.0348 501.603H63.0338C61.982 501.694 59.2228 501.99 56.6071 501.945C55.3071 501.922 53.8988 501.815 52.6813 501.502C51.619 501.229 49.9367 500.612 49.1871 498.978C48.882 498.312 48.9047 497.542 49.2487 496.896C49.8238 495.816 51.0075 494.636 52.1461 493.611C53.3745 492.504 54.8749 491.296 56.3873 490.141C59.4121 487.83 62.6123 485.628 64.0699 484.688L69.1373 481.402C84.2088 471.599 95.5406 464.079 109.11 458.64C103.013 459.107 96.5614 459.392 90.1246 459.409C76.4244 459.447 62.5799 458.291 52.3336 455.074C51.4389 454.794 50.7971 454.007 50.7018 453.074C50.6065 452.142 51.0757 451.241 51.8951 450.785C82.0725 433.993 122.709 429.058 155.88 428.551Z" fill="url(#paint0_linear_3139_7239)" stroke="#48472E" stroke-width="4.69343" stroke-linejoin="round"/>
<path opacity="0.9" d="M403.782 411.674C404.664 411.555 405.537 411.946 406.037 412.683C408.25 415.944 411.394 421.86 413.333 425.267C413.761 426.017 413.741 426.942 413.283 427.674C400.093 448.726 390.129 471.973 383.778 496.506C383.318 498.326 382.613 501.964 381.822 506.064C381.049 510.067 380.202 514.454 379.461 517.729L377.737 532.279C377.709 532.512 377.647 532.736 377.555 532.945C377.085 536.647 377.024 541.003 377.552 545.204C378.111 549.649 379.304 553.729 381.195 556.675L381.376 556.946C382.277 558.234 383.05 558.485 383.585 558.515C384.318 558.555 385.35 558.219 386.661 557.27C389.273 555.377 391.804 551.915 393.193 549.53L393.194 549.528C395.245 546.013 397.095 542.442 399.064 538.802C401.016 535.193 403.061 531.563 405.429 528.097C406.01 527.246 407.078 526.873 408.062 527.179C409.046 527.484 409.716 528.396 409.713 529.426C409.692 538.36 410.256 552.586 411.96 566.365C412.813 573.254 413.946 579.992 415.421 585.88C416.858 591.613 418.584 596.387 420.594 599.706C421.317 600.272 421.588 600.506 421.943 600.722C422.128 600.834 422.342 600.939 422.765 601.041C423.467 600.78 424.331 600.153 425.313 598.989C426.448 597.644 427.539 595.818 428.528 593.751C430.507 589.614 431.897 584.896 432.408 582.138L432.444 581.975C432.653 581.171 433.273 580.532 434.081 580.306C434.942 580.064 435.866 580.333 436.463 580.999L436.91 581.498L436.934 581.526C441.944 587.303 447.338 598.776 451.568 610.415C455.814 622.1 459.076 634.484 459.59 642.292C459.651 643.214 459.165 644.085 458.349 644.519C457.533 644.952 456.539 644.866 455.809 644.299C452.686 641.872 445.116 635.102 437.813 628.258C434.232 624.902 430.644 621.462 427.634 618.459C429.328 622.994 430.811 627.598 432.298 631.943L432.299 631.945C438.432 649.898 443.157 665.711 444.63 685.218C444.704 686.2 444.157 687.124 443.259 687.531C442.361 687.938 441.305 687.741 440.615 687.037C427.738 673.902 415.546 653.248 405.773 635.602C407.918 645.065 410.014 655.78 411.302 666.489C413.105 681.476 413.368 696.732 409.788 708.583C409.548 709.377 408.906 709.985 408.101 710.183C407.296 710.381 406.445 710.139 405.865 709.547C399.755 703.316 393.296 692.51 387.865 681.294C382.748 670.728 378.422 659.542 376.083 650.988C375.631 677.046 372.432 706.899 366.981 728.334C366.747 729.255 365.98 729.943 365.04 730.078C364.099 730.213 363.169 729.767 362.686 728.949C356.657 718.744 352.248 700.784 349.314 682.729C347.109 669.16 345.703 655.299 345.102 644.186C342.614 655.237 339.399 668.471 335.592 681.282C332.68 691.085 329.409 700.688 325.838 708.9C322.29 717.06 318.356 724.063 314.035 728.486C313.429 729.107 312.529 729.342 311.697 729.099C310.864 728.855 310.234 728.172 310.058 727.322C308.97 722.065 308.715 714.515 308.962 705.953C309.212 697.343 309.977 687.538 310.999 677.685C312.449 663.698 314.425 649.557 316.202 638.505C315.688 639.7 315.173 640.904 314.657 642.107C312.238 647.752 309.799 653.392 307.517 657.742L307.518 657.743C303.47 665.462 297.86 676.621 291.648 687.157C285.474 697.628 278.515 707.824 271.662 713.462C270.95 714.047 269.961 714.162 269.134 713.755C268.307 713.348 267.796 712.494 267.826 711.573C268.74 683.399 277.602 651.976 288.126 626.53L288.231 626.311C288.869 625.131 289.575 623.246 290.359 621.034C285.421 626.947 280.2 632.523 274.9 637.986H274.899L274.683 638.209C263.4 649.833 248.339 665.361 235.023 674.729C234.173 675.327 233.03 675.295 232.215 674.649C231.4 674.004 231.108 672.898 231.496 671.934L231.777 671.234C232.828 668.571 233.563 665.95 234.337 663.177C235.105 660.427 235.911 657.53 237.088 654.509L237.913 652.43C245.707 633.071 256.838 613.905 269.565 597.736C258.529 605.7 247.326 613.386 235.96 620.789C235.955 620.793 235.949 620.797 235.943 620.801C230.627 624.195 220.865 630.548 214.84 632.881C213.948 633.226 212.934 632.995 212.28 632.297C211.626 631.599 211.461 630.573 211.864 629.705C214.485 624.055 217.502 616.928 220.723 611.44C240.919 577.042 272.306 551.907 305.409 534.31C313.624 529.941 324.887 523.636 335.521 516.364C346.207 509.057 356.038 500.921 361.587 492.936L361.658 492.839C376.232 473.996 385.189 451.024 394.44 428.27V428.269C395.539 425.567 397.052 422.931 398.412 420.482C399.807 417.97 401.062 415.619 401.874 413.242C402.161 412.4 402.9 411.793 403.782 411.674Z" fill="url(#paint1_linear_3139_7239)" stroke="#48472E" stroke-width="4.69343" stroke-linejoin="round"/>
<path opacity="0.9" d="M213.395 366.981C202.141 375.181 189.266 381.355 178.117 384.276L177.044 384.55L172.946 385.543C163.909 387.708 158.394 388.897 153.375 390.964C147.783 393.266 142.79 396.683 134.397 404.094C132.578 405.699 129.58 407.482 126.162 409.246C122.689 411.039 118.596 412.907 114.452 414.661C106.191 418.159 97.5509 421.28 93.0169 422.489C92.189 422.71 91.3068 422.462 90.7152 421.842C90.1236 421.222 89.9168 420.329 90.1763 419.512C95.4672 402.86 108.533 385.069 122.326 374.488C105.32 377.329 88.7277 378.427 69.2456 378.377L66.971 378.366L66.9696 378.366C62.1814 378.33 53.5432 378.576 48.6436 378.07C47.7365 377.976 46.9658 377.366 46.6672 376.504C46.3687 375.642 46.5964 374.686 47.2509 374.051C64.726 357.102 92.1052 346.324 120.252 340.085C117.509 339.775 114.392 339.366 111.038 338.874C102.231 337.582 91.539 335.69 81.0773 333.424C70.6297 331.161 60.3443 328.512 52.3821 325.697C48.4091 324.292 44.9311 322.816 42.2785 321.287C40.9514 320.522 39.7711 319.71 38.8248 318.842C37.8928 317.988 37.0665 316.972 36.6367 315.774C36.4478 315.247 36.4536 314.67 36.6524 314.147C37.3965 312.19 39.0504 311.134 40.4057 310.531C41.7599 309.927 43.2923 309.576 44.2539 309.328L45.218 309.084C65.4771 304.067 86.5373 305.908 107.431 306.677L107.432 306.677C110.893 306.805 114.074 306.916 117.106 307.042C106.82 303.793 96.6372 299.587 86.5045 294.255L79.5185 290.598C63.621 282.28 50.3369 275.097 35.4129 261.257C34.7695 260.66 34.5129 259.754 34.7473 258.909C34.9818 258.063 35.6688 257.419 36.5275 257.239C50.933 254.219 70.4302 258.279 89.5282 263.858C99.146 266.668 108.797 269.907 117.807 272.928C120.56 273.851 123.25 274.752 125.863 275.615C97.1705 259.881 66.9968 234.172 47.8222 208.146C47.2577 207.38 47.2122 206.349 47.7064 205.536C48.2006 204.722 49.1366 204.288 50.0765 204.436C60.8491 206.133 77.522 213.282 93.8464 221.305C106.704 227.625 119.552 234.595 129.505 240.15C122.563 233.263 115.553 225.492 109.148 217.361C96.4557 201.247 85.884 183.401 83.188 168.012C83.035 167.138 83.3874 166.252 84.0993 165.723C84.8111 165.194 85.7606 165.111 86.5531 165.509C98.2512 171.388 113.193 182.362 127.367 194.356C136.023 201.68 144.45 209.437 151.747 216.73C151.204 215.892 150.724 215.147 150.372 214.578L150.058 214.056C136.327 190.653 122.909 165.548 116.381 139.645C116.143 138.702 116.513 137.709 117.31 137.15C118.107 136.592 119.166 136.583 119.972 137.128C120.398 137.417 120.826 137.713 121.25 138.017L122.265 138.748C143.55 154.238 162.261 177.617 178.14 198.377C179.855 200.62 184.086 205.805 187.584 210.318C187.163 209.08 186.775 207.862 186.433 206.673L186.12 205.548C184.951 201.163 181.911 190.169 179.56 179.554C178.386 174.251 177.37 168.982 176.848 164.643C176.587 162.477 176.442 160.483 176.474 158.803C176.505 157.223 176.691 155.553 177.368 154.3C177.705 153.676 178.306 153.237 179.003 153.107C180.862 152.76 182.706 153.634 184.059 154.48C185.536 155.403 187.052 156.697 188.448 158.052C191.243 160.765 193.863 164.022 195.162 165.938C211.372 189.85 225.715 219.622 234.425 249.681C243.125 279.704 246.274 310.247 239.824 335.593L239.785 335.731C239.771 335.777 239.754 335.822 239.737 335.866C235.115 347.752 224.986 358.535 213.395 366.981Z" fill="url(#paint2_linear_3139_7239)" stroke="#48472E" stroke-width="4.69343" stroke-linejoin="round"/>
<path d="M380.055 319.891C400.962 313.906 424.254 319.798 436.767 343.269C444.784 358.307 448.367 371.767 444.505 389.272L444.502 389.284C444.217 390.547 443.91 391.822 443.569 393.09V393.092C440.992 402.648 435.871 411.189 428.817 417.631L428.809 417.639C418.701 426.788 404.23 431.865 390.203 431.711C376.15 431.557 362.244 426.135 353.635 413.902V413.901C343.45 399.435 334.436 388.052 336.407 367.959L336.415 367.878L336.428 367.797C340.478 343.605 359.258 325.844 380.055 319.891Z" fill="#9D7030" stroke="#242A1D" stroke-width="4.79839"/>
<path opacity="0.9" d="M697.187 233.049C698.162 233.021 699.053 233.599 699.425 234.501C699.797 235.403 699.573 236.441 698.861 237.108L697.587 238.3L697.582 238.305C684.283 250.692 668.265 263.207 654.615 274.626C653.085 275.905 651.387 277.432 649.54 279.072C651.958 278.082 654.368 277.229 656.744 276.584C665.414 272.733 680.23 268.542 695.069 265.402C709.988 262.245 725.294 260.071 734.704 260.445C735.603 260.481 736.403 261.028 736.762 261.853C737.121 262.678 736.977 263.636 736.391 264.319C725.496 277.007 713.541 283.63 700.079 291.185C695.432 293.793 691.3 296.297 686.796 298.618L684.128 300.275C684.805 300.241 685.5 300.197 686.211 300.143C688.744 299.951 691.581 299.648 694.077 299.547L695.478 299.499C702.673 299.287 712.706 299.567 722.539 300.754C732.929 302.007 743.493 304.314 750.161 308.383C750.901 308.835 751.332 309.657 751.282 310.522C751.232 311.387 750.709 312.155 749.922 312.518C740.445 316.89 725.541 321.832 710.543 325.824C701.166 328.32 691.662 330.467 683.342 331.874C687.185 332.447 690.958 333.161 694.359 334.083C699.577 335.497 705.527 337.522 711.035 339.411L716.353 341.226L716.363 341.23C722.719 343.407 732.74 346.898 742.401 351.024C751.957 355.105 761.535 359.957 766.734 364.945C767.375 365.56 767.614 366.484 767.351 367.333C767.088 368.181 766.368 368.809 765.491 368.954C751.054 371.342 727.256 370.452 712.638 369.111C703.733 368.847 694.849 368.162 686.011 367.064H685.413C688.944 368.697 692.407 370.529 695.804 372.418C702.337 376.05 708.491 379.803 714.741 382.999C714.751 383.004 714.762 383.009 714.772 383.014C716.611 383.988 718.45 385.017 720.262 386.235C733.231 393.149 752.265 405.651 761.974 417.527C762.576 418.263 762.674 419.291 762.222 420.128C761.77 420.964 760.857 421.446 759.911 421.346C748.374 420.134 729.84 416.332 718.615 411.809C717.666 411.678 716.238 411.322 714.76 410.921C712.934 410.424 710.72 409.772 708.505 409.095C704.125 407.757 699.649 406.297 698.032 405.723C690.618 403.321 682.945 401.003 675.368 398.605C697.544 413.941 718.834 437.358 730.928 459.602C731.401 460.473 731.276 461.547 730.616 462.286C729.957 463.025 728.905 463.27 727.987 462.899C709.732 455.518 692.027 446.616 675.037 436.273C675.032 436.27 675.026 436.267 675.021 436.263C667.314 431.487 659.863 426.537 652.324 421.73C659.38 429.628 666.953 439.56 673.806 449.88C683.803 464.937 692.466 481.119 695.716 493.305C695.946 494.169 695.666 495.088 694.993 495.676C694.321 496.265 693.372 496.42 692.547 496.077C689.63 494.863 686.557 492.8 683.726 490.696C680.992 488.664 677.986 486.202 675.847 484.577V484.576C660.996 473.291 647.633 460.479 634.69 446.96L632.107 444.247C629.685 441.691 627.08 439.259 624.408 436.676C623.931 436.215 623.453 435.749 622.976 435.279C626.331 443.293 629.567 452.334 632.567 459.5L633.183 460.952C636.295 468.191 639.822 475.115 643.157 482.54C646.657 490.332 649.803 498.393 651.457 506.963C651.636 507.887 651.244 508.828 650.463 509.354C649.682 509.88 648.662 509.888 647.873 509.375C643.206 506.339 636.586 502.22 632.178 498.595L632.177 498.594C625.402 493.015 615.129 482.128 606.806 471.252C606.82 472.06 606.416 472.833 605.713 473.277C604.871 473.808 603.785 473.75 603.004 473.131C590.647 463.336 570.5 452.282 556.423 445.134C555.558 444.695 555.052 443.768 555.151 442.802C555.25 441.837 555.932 441.032 556.868 440.777C562.188 439.329 567.703 438.303 572.697 437.101C577.816 435.869 582.768 434.378 587.66 431.887V431.886C588.233 431.595 589.079 431.22 589.927 430.832C590.814 430.426 591.798 429.964 592.784 429.45C594.49 428.56 595.982 427.615 596.957 426.682C596.926 426.254 596.855 425.803 596.73 425.328C596.632 425.211 596.545 425.085 596.471 424.95C596.281 424.602 595.854 423.876 595.407 423.181C595.185 422.836 594.974 422.522 594.796 422.279C594.666 422.102 594.596 422.018 594.577 421.995C593.935 421.452 592.731 420.766 591.033 420.029C589.36 419.302 587.38 418.598 585.363 417.981C581.226 416.716 577.322 415.936 575.716 415.937C575.691 415.937 575.666 415.937 575.641 415.936C575.042 415.918 574.279 415.929 573.652 415.84C572.973 415.744 572.374 415.539 571.687 415.234C565.863 414.44 560.097 413.343 554.406 412.31C553.887 412.216 553.415 411.95 553.066 411.555C548.272 406.133 543.133 401.088 537.686 396.462L537.68 396.457C532.958 392.42 527.178 387.962 522.696 383.274C521.985 382.531 521.841 381.411 522.34 380.512C522.84 379.613 523.867 379.144 524.873 379.355C527.843 379.977 534.162 381.067 539.882 382.341C542.799 382.991 545.703 383.718 548.176 384.508C550.175 385.148 552.104 385.894 553.528 386.784C554.065 386.758 554.703 386.73 555.288 386.719C556.12 386.704 557.133 386.715 558.006 386.87C569.969 387.556 574.183 390.111 586.13 387.505C586.78 386.847 587.338 386.265 587.737 385.627C588.18 384.917 588.2 384.497 588.052 384.107H588.051C587.045 381.516 584.869 379.049 582.09 376.782C579.334 374.534 576.184 372.638 573.494 371.126C564.517 366.079 555.987 361.012 547.285 355.303C546.41 354.729 546.021 353.645 546.331 352.645L546.796 351.148L546.857 350.976C547.192 350.133 547.989 349.553 548.906 349.502C557.018 349.05 568.286 347.8 579.171 345.367C589.75 343.003 599.659 339.585 606.034 334.915C606.031 334.877 606.026 334.814 606.01 334.706C606.008 334.693 606.006 334.68 606.004 334.668C603.982 331.9 600.269 329.248 597.303 328.253C590.726 326.044 583.618 324.566 576.34 323.181C569.113 321.807 561.679 320.518 554.684 318.697C553.725 318.447 553.026 317.622 552.938 316.634C552.85 315.647 553.391 314.711 554.291 314.296C558.268 312.459 563.045 310.7 568.055 308.88C573.1 307.047 578.416 305.14 583.611 302.974C594.055 298.62 603.557 293.391 609.027 286.156C609.042 286.124 609.066 286.07 609.093 285.992C609.154 285.817 609.213 285.588 609.254 285.343C609.289 285.132 609.301 284.949 609.302 284.81C609.195 284.704 608.975 284.5 608.565 284.206C607.925 283.746 607.08 283.244 606.138 282.731C605.205 282.223 604.229 281.734 603.341 281.296C602.484 280.872 601.648 280.468 601.096 280.172C600.373 279.785 599.905 279.049 599.861 278.23C599.816 277.411 600.202 276.628 600.879 276.166C602.814 274.843 604.486 273.523 606.303 272.14C608.078 270.79 609.948 269.416 612.159 268.095C623.107 260.565 637.779 252.03 652.948 245.27C668.091 238.522 683.957 233.439 697.187 233.049Z" fill="#819458" stroke="#48472E" stroke-width="4.69343" stroke-linejoin="round"/>
<path opacity="0.9" d="M516.308 19.0759C516.856 18.2943 517.831 17.9178 518.772 18.1423C519.776 18.3819 520.506 19.249 520.57 20.279C521.888 41.4227 522.459 60.7743 521.657 82.0534C521.49 86.5105 521.659 92.2314 521.651 98.1432C521.648 100.383 521.618 102.647 521.53 104.84C525.962 94.1452 531.697 81.4916 537.96 69.2643C546.447 52.695 556.022 36.6674 564.73 27.4225C565.467 26.6403 566.641 26.4585 567.58 26.9811C568.519 27.5038 568.983 28.5972 568.706 29.6354C565.976 39.8813 564.138 50.4752 561.739 61.1393L561.738 61.1452C558.477 75.4791 554.829 89.7041 550.791 103.802C549.626 107.93 548.508 112.126 547.339 116.32C554.029 107.359 564.713 95.2134 575.859 83.8806C588.944 70.5765 603.001 58.0469 612.214 53.1432C613.113 52.6648 614.218 52.8204 614.949 53.529C615.681 54.2376 615.872 55.3369 615.422 56.2507C604.113 79.2284 592.846 105.289 578.274 127.364C587.568 120.816 599.497 113.084 611.827 106.539C625.237 99.42 639.367 93.5705 651.18 92.3405C652.073 92.2476 652.941 92.6728 653.415 93.4352C653.889 94.1976 653.887 95.1635 653.409 95.9235C651.332 99.2271 647.781 103.354 644.188 107.227C640.564 111.133 636.774 114.911 634.14 117.532C621.637 130.205 608.602 142.243 595.078 153.609L595.079 153.61L592.52 155.837C611.451 148.148 628.319 144.01 649.937 139.444L649.991 139.432L652.868 138.82C659.736 137.374 667.597 135.882 674.545 135.986C675.521 136.001 676.385 136.618 676.717 137.536C677.048 138.453 676.777 139.48 676.036 140.115C671.357 144.122 665.447 148.147 660.704 151.714V151.715C643.136 164.924 625.548 175.793 606.941 186.043C609.215 185.761 611.468 185.511 613.778 185.253C634.968 182.88 664.413 179.871 685.672 185.608C686.613 185.862 687.299 186.671 687.396 187.64C687.492 188.61 686.979 189.539 686.107 189.973C662.992 201.494 637.628 209.515 612.848 214.739C609.635 215.416 606.297 216.183 602.893 216.913C609.557 217.885 622.658 220.286 635.321 223.212C642.592 224.891 649.779 226.757 655.56 228.644C658.447 229.587 661.029 230.55 663.114 231.514C664.994 232.384 666.719 233.365 667.843 234.495L668.06 234.723L668.061 234.724C668.129 234.8 668.35 235.036 668.442 235.145C668.587 235.315 668.93 235.734 669.07 236.377C669.179 236.875 669.113 237.348 669.11 237.379C669.097 237.512 669.085 237.625 669.077 237.811C669.052 238.43 668.784 239.014 668.33 239.435C667.243 240.446 665.637 241.254 663.914 241.932C662.132 242.634 659.98 243.289 657.609 243.902C652.864 245.128 647.056 246.229 641.189 247.182C632.387 248.612 623.328 249.729 617.331 250.443L612.478 251.019C610.84 251.218 607.38 251.278 604.059 251.294C600.67 251.309 597.213 251.277 595.48 251.266C594.54 251.26 593.694 250.694 593.331 249.827C592.968 248.96 593.157 247.959 593.812 247.285C595.175 245.88 596.828 244.241 598.094 242.443C599.239 240.816 599.786 239.441 599.772 238.328C599.381 237.879 598.661 237.414 597.419 237.041C595.912 236.587 593.976 236.373 591.837 236.338C587.571 236.267 583.024 236.908 580.591 237.258C574.482 238.139 568.54 240.012 562.547 242.222C556.677 244.387 550.464 246.997 544.42 249.077C543.449 249.411 542.374 249.075 541.766 248.248C541.158 247.42 541.159 246.293 541.768 245.466C545.054 241.005 553.887 228.803 561.284 216.46C564.988 210.279 568.284 204.14 570.351 198.961C571.385 196.368 572.078 194.096 572.38 192.229C572.608 190.821 572.585 189.804 572.436 189.103C572.048 188.999 571.432 188.939 570.486 189.049C569.014 189.219 567.12 189.758 564.87 190.654C560.386 192.439 554.929 195.457 549.393 198.926C538.312 205.87 527.351 214.34 523.944 217.535C523.103 218.324 521.812 218.385 520.9 217.677C519.989 216.97 519.727 215.705 520.282 214.694C522.523 210.612 527.911 199.477 531.967 188.364C533.997 182.802 535.657 177.341 536.441 172.818C536.834 170.555 536.991 168.609 536.897 167.049C536.823 165.81 536.596 164.961 536.322 164.404C535.914 164.286 535.26 164.263 534.211 164.563C532.788 164.971 531.005 165.875 528.914 167.268C524.75 170.042 519.864 174.416 514.981 179.298C505.242 189.034 495.888 200.406 492.932 203.961C492.246 204.785 491.089 205.039 490.121 204.58C489.153 204.12 488.619 203.062 488.824 202.01C490.007 195.952 491.716 188.851 493.177 182.006C494.657 175.07 495.911 168.278 496.291 162.478C496.6 157.778 496.585 154.147 496.33 151.409C496.071 148.629 495.579 146.955 495.07 146.031C494.614 145.203 494.301 145.21 494.216 145.205C493.912 145.185 493.223 145.328 492.072 146.118C489.805 147.673 487.042 150.826 484.233 154.688C481.472 158.486 478.827 162.742 476.772 166.281C476.27 167.146 475.275 167.597 474.294 167.406C473.313 167.215 472.56 166.422 472.42 165.432C471.343 157.84 470.951 149.707 470.253 142.287L470.108 140.812C467.363 113.717 466.361 87.8151 469.133 60.5427L469.437 57.4059C470.134 49.9462 470.783 41.6024 472.189 34.277L472.232 34.0944C472.48 33.1959 473.241 32.522 474.177 32.3942C475.174 32.2581 476.148 32.7738 476.596 33.6755C480.554 41.6431 485.215 59.3816 488.872 77.1374C490.727 86.1409 492.35 95.2872 493.504 103.336C493.682 102.072 493.857 100.846 494.017 99.6696C497.376 74.9084 503.354 41.1406 516.203 19.237L516.308 19.0759Z" fill="#819458" stroke="#48472E" stroke-width="4.69343" stroke-linejoin="round"/>
<path opacity="0.9" d="M562.621 489.068C563.351 488.175 564.624 487.945 565.621 488.526L565.622 488.527L566.004 488.753L566.649 489.112L566.667 489.123C569.493 490.737 574.12 492.654 578.906 494.529C583.587 496.364 588.428 498.16 591.374 499.453H591.375C596.244 501.593 611.461 508.751 626.031 516.023C633.319 519.66 640.472 523.339 646.104 526.443C648.918 527.993 651.378 529.413 653.294 530.622C654.895 531.633 656.318 532.616 657.206 533.478C660.115 535.001 665.185 538.351 669.793 541.936C672.212 543.818 674.564 545.81 676.453 547.689C678.259 549.485 679.924 551.445 680.599 553.26C680.802 553.806 680.795 554.408 680.579 554.948L680.269 555.724C680.009 556.376 679.47 556.877 678.802 557.09C677.529 557.495 675.794 557.647 674.053 557.691C672.249 557.736 670.201 557.667 668.179 557.532C664.288 557.273 660.272 556.75 658.084 556.23C653.476 555.788 644.588 553.565 636.005 551.049C631.472 549.72 626.915 548.276 622.992 546.919C628.856 551.679 636.72 558.092 644.342 564.661C654.053 573.032 663.619 581.864 668.071 587.91C671.446 591.463 673.254 593.814 675.605 598.438C675.987 599.189 675.937 600.088 675.473 600.792C675.01 601.496 674.204 601.897 673.363 601.843C668.432 601.526 664.233 601.226 659.164 599.835C659.124 599.824 659.085 599.813 659.046 599.8C652.16 597.513 644.986 595.326 638.066 592.562V592.561C624.629 587.188 611.524 580.561 598.75 573.39C602.566 576.622 606.184 579.758 609.315 582.504C613.17 585.884 620.614 594.718 627.378 603.717C630.784 608.249 634.068 612.889 636.691 616.993C639.188 620.899 641.211 624.512 642.093 627.124C645.575 633.165 646.409 636.033 648.071 642.908C648.285 643.793 647.967 644.722 647.258 645.291C646.548 645.86 645.573 645.968 644.757 645.568C644.128 645.26 642.631 644.536 641.194 643.777C640.477 643.399 639.743 642.995 639.123 642.614C638.708 642.36 638.165 642.011 637.724 641.615C622.638 632.663 608.217 622.445 594.599 611.054V611.053C592.18 609.054 589.852 606.944 587.571 604.856C585.273 602.752 583.03 600.68 580.725 598.699L580.724 598.698C580.331 598.36 579.936 598.028 579.541 597.698C590.566 611.876 599.89 626.719 606.208 645.078H606.209C607.129 647.748 609.157 653.423 609.841 656.413C612.692 665.099 614.868 675.897 614.902 685.247C614.905 686.178 614.358 687.023 613.508 687.401C612.657 687.778 611.663 687.617 610.975 686.99C606.156 682.601 603.645 679.61 600.057 674.057C600 674.002 599.949 673.955 599.912 673.917C599.753 673.758 599.578 673.568 599.395 673.365C599.028 672.957 598.575 672.428 598.073 671.828C597.066 670.624 595.811 669.074 594.553 667.503C591.992 664.304 589.509 661.134 588.791 660.242V660.241C577.813 646.61 566.839 632.91 556.308 618.791C556.388 619.044 556.469 619.3 556.549 619.559C557.688 623.259 558.908 627.662 560.04 632.082C562.242 640.687 564.189 649.676 564.455 653.62C567.66 669.118 567.815 689.598 567.286 705.095C567.251 706.126 566.546 707.012 565.551 707.28C564.555 707.548 563.501 707.135 562.953 706.262C558.511 699.181 552.347 685.127 549.26 677.294C548.407 675.997 547.394 673.961 546.355 671.687C545.222 669.205 543.979 666.265 542.763 663.312C540.305 657.336 538.002 651.414 536.808 648.69C534.216 642.78 531.846 637.295 529.607 631.799C529.68 633.676 529.735 635.748 529.768 637.947C529.865 644.26 529.811 651.813 529.633 659.255C529.454 666.696 529.15 674.049 528.743 679.962C528.539 682.916 528.308 685.533 528.052 687.631C527.828 689.456 527.565 691.066 527.227 692.164C526.887 696.693 526.191 702.24 524.888 706.703L524.889 706.704L524.556 707.862C524.225 709.014 523.079 709.732 521.898 709.526L521.283 709.419C520.568 709.294 519.95 708.845 519.611 708.203C514.923 699.331 511.242 687.478 508.269 675.522C505.289 663.536 502.979 651.268 501.092 641.529C500.586 638.929 500.084 636.481 499.593 634.071C499.519 634.584 499.447 635.104 499.368 635.63C498.413 642 497.027 649.463 495.481 656.909C492.402 671.741 488.639 686.742 486.333 692.938C486.015 693.792 485.23 694.385 484.321 694.458C483.412 694.531 482.543 694.07 482.093 693.277C476.028 682.595 472.298 664.174 470.139 645.723C467.967 627.155 467.341 608.113 467.694 595.882C468.211 577.7 470.425 566.901 468.892 547.254C468.807 546.165 469.485 545.162 470.526 544.833C471.568 544.505 472.698 544.939 473.253 545.879C477.139 552.468 483.078 562.777 489.43 572.472C492.605 577.316 495.861 581.973 498.992 585.908C502.146 589.872 505.079 592.982 507.594 594.836L507.595 594.837C508.839 595.754 509.758 595.938 510.197 595.787L510.207 595.784C510.479 595.692 510.898 595.356 511.312 594.419C511.751 593.424 512.077 591.878 512.22 589.754C512.362 587.662 512.318 585.164 512.116 582.359C511.712 576.752 510.689 570.098 509.386 563.357C506.781 549.87 503.102 536.27 501.211 530.445C500.856 529.353 501.344 528.164 502.364 527.636C503.384 527.108 504.637 527.397 505.324 528.318C506.965 530.519 518.799 543.92 530.642 554.062C536.611 559.172 542.303 563.208 546.559 564.718C548.707 565.48 550.017 565.426 550.741 565.097C551.312 564.837 552.095 564.131 552.463 561.862C552.6 561.017 552.538 559.671 552.177 557.793C551.822 555.956 551.215 553.777 550.396 551.345C548.759 546.483 546.331 540.768 543.591 535.022C538.083 523.471 531.481 512.136 527.783 507.558C527.096 506.707 527.087 505.495 527.761 504.635C528.436 503.775 529.615 503.494 530.604 503.958L532.168 504.691C535.139 506.077 539.472 508.752 544.265 511.678C549.132 514.648 554.607 517.963 560.054 520.783C565.528 523.617 570.821 525.872 575.326 526.809C579.605 527.699 582.614 527.294 584.531 525.765C584.632 525.339 584.66 524.735 584.524 523.895C584.343 522.774 583.901 521.413 583.199 519.845C581.795 516.708 579.507 513.073 576.875 509.405C571.623 502.089 565.271 495.012 562.687 492.116C561.919 491.255 561.89 489.962 562.621 489.068Z" fill="url(#paint3_linear_3139_7239)" stroke="#48472E" stroke-width="4.69343" stroke-linejoin="round"/>
<g opacity="0.9">
<mask id="path-8-outside-1_3139_7239" maskUnits="userSpaceOnUse" x="184.592" y="7.89682" width="433" height="493" fill="black">
<rect fill="white" x="184.592" y="7.89682" width="433" height="493"/>
<path d="M322.755 48.336C320.959 42.3593 312.262 16.9505 309.033 12.8968L308.384 13.135C305.549 22.3451 307.637 53.9863 308.638 64.3262C308.724 69.3345 309.88 76.3178 310.531 81.4627C312.183 94.5267 313.375 105.871 317.297 118.111L314.636 113.77C313.901 111.385 313.166 109.036 312.256 106.983C304.535 89.5624 292.299 65.1701 279.809 51.2364C274.576 43.4551 268.537 35.2847 261.036 30.0004L260.537 29.6406C262.611 38.0683 265.8 47.3843 268.355 55.7386C269.293 58.8056 272.083 67.7982 273.166 70.2268C277.084 83.9357 281.963 97.078 286.609 110.492C289.109 117.71 292.723 123.199 296.724 128.76L290.97 122.668C288.072 118.572 285.186 114.574 283.116 112.326C269.008 97.0095 246.888 73.6593 229.291 63.201L228.456 62.7126C235.53 90.2467 259.56 125.861 277.019 147.027C278.668 149.026 281.622 151.877 284.734 154.772L279.408 151.536C274.01 147.139 268.503 143.16 261.734 138.878C242.785 126.892 220.881 110.049 199.575 103.619L198.561 103.321C213.23 126.398 227.474 143.155 248.815 159.234C260.628 168.134 266.436 171.276 280.242 176.431C281.473 176.89 282.739 177.408 284.032 177.964L273.368 174.927C271.044 173.993 268.715 173.071 266.382 172.162C263.536 171.024 255.677 167.456 253.248 166.797C236.708 162.314 205.813 152.767 189.592 155.981C196.604 163.635 203.878 166.769 212.604 171.81C227.909 180.65 245.474 191.035 262.285 195.953C263.918 196.431 265.66 196.85 267.471 197.239L269.019 198.673C253.284 196.325 199.45 197.827 189.916 204.498L189.945 205.176C201.078 213.037 244.517 222.253 258.594 225.353C279.059 229.861 315.913 228.316 336.721 223.506C337.273 223.379 337.826 223.245 338.376 223.105C339.687 231.941 349.642 251.757 353.151 260.808C362.443 284.771 370.358 307.099 374.861 332.749C377.242 346.308 383.236 360.962 380.777 375.292C374.457 373.903 370.632 376.507 369.509 377.982L382.703 386.899C376.853 388.907 368.167 390.769 361.78 392.139L361.07 392.291C365.292 394.499 370.709 396.118 375.225 397.795C379.995 399.621 384.717 401.593 389.384 403.705L388.676 403.937C381.473 406.259 373.764 407.241 366.452 408.998C360.949 410.319 349.325 410.137 346.415 415.817C346.527 416.673 346.331 416.757 346.894 417.153C349.862 419.244 381.127 415.853 386.036 414.505C378.8 434.98 372.781 456.107 365.357 476.535C363.196 482.485 361.101 490.028 358.566 495.595C366.214 488.211 376.375 463.2 381.634 452.683C385.983 443.982 389.234 431.27 393.81 422.363C396.067 417.359 397.761 411.193 400.089 406.337C400.582 406.739 401.07 407.141 401.563 407.544C409.476 408.945 419.004 410.079 426.697 410.978C428.546 410.122 435.488 406.089 437.539 404.828C429.527 400.806 417.273 396.654 408.346 397.652L407.848 397.375C407.656 395.708 410.58 390.269 411.565 388.766C413.184 387.192 415.484 385.907 417.417 384.742C428.747 377.912 439.476 370.351 450.196 362.43C447.066 358.862 440.054 352.71 436.304 349.013C434.149 351.742 429.564 356.596 427.931 359.279C422.613 368.022 415.761 375.069 409.941 383.176C408.674 383.113 406.529 385.206 405.215 386.223C403.882 387.09 403.459 387.893 401.948 387.218C400.446 387.533 400.479 388.354 398.353 388.79L398.105 388.238C398.827 387.331 399.325 386.782 400.122 385.948C405.299 375.298 417.207 362.002 424.233 351.987C426.688 348.492 432.179 340.832 434.835 337.906L435.262 338.525C439.802 344.955 448.488 352.551 453.994 357.917C477.715 381.036 519.857 416.883 552.903 412.846C541.33 399.221 522.495 383.792 508.241 373.273C505.546 371.282 497.319 366.812 489.623 363.051L495.816 364.858C503.235 368.158 510.669 371.406 518.139 374.343C525.348 377.179 534.795 379.039 542.455 380.776C559.469 384.633 574.869 388.872 592.45 387.677C581.266 376.494 553.195 361.186 538.823 355.137C533.716 352.989 524.541 351.109 515.019 349.683L523.377 349.097C528.768 349.354 534.143 349.422 539.475 349.196C561.374 348.269 588.31 346.171 608.567 336.788C588.686 327.956 565.5 325.939 544.436 321.705C538.329 320.478 533.251 321.328 527.274 322.572L534.496 319.594C546.773 316.658 558.917 313.061 570.883 308.806C588.291 302.801 597.472 299.171 612.683 287.821C590.868 279.058 556.216 285.391 533.81 290.628C530.557 291.388 525.897 293.833 522.532 294.975C522.299 295.054 522.066 295.136 521.833 295.216L530.126 290.064C542.105 283.645 555.805 273.858 566.415 265.897C571.236 262.265 575.929 258.439 580.486 254.426C585.199 250.24 593.652 241.885 598.547 239.505C572.545 235.786 526.014 259.896 503.969 274.113L503.65 273.466C510.16 268.366 522.143 261.637 527.127 256.838C541.63 242.881 562.079 211.353 569.776 192.406C548.233 198.384 517.477 225.531 501.473 242.162C499.032 244.698 488.354 256.855 487.26 257.545C490.302 251.128 498.807 242.866 503.04 236.935C515.163 219.966 531.633 186.565 535.308 166.341C508.628 183.634 489.173 212.274 475.451 242.177L477.263 235.172C477.301 235.081 477.339 234.991 477.377 234.901C480.69 226.891 484.051 210.352 485.989 201.302C489.875 183.149 493.996 166.514 493.884 147.735C493.48 148.126 493.081 148.519 492.686 148.915C486.008 155.591 483.515 160.571 478.62 168.39C467.338 186.411 459.176 206.077 453.203 226.72L453.991 216.648C457.556 194.418 456.736 166.414 453.717 145.793C432.559 169.374 425.535 206.465 423.377 240.243L422.667 238.411C422.649 238.243 422.628 238.078 422.604 237.916C420.098 221.162 418.774 204.285 416.188 187.548C415.458 182.845 414.797 177.697 414.594 172.901L414.559 171.947C413.236 173.065 411.04 174.889 410.073 176.287C405.168 183.378 402.578 198.459 401.503 207.232C398.893 228.479 402.225 252.903 406.895 273.678C408.401 280.393 410.486 286.951 412.579 294.229C415.569 304.55 423.313 316.712 422.895 327.658C422.877 328.183 414.869 340.384 413.649 342.296C406.21 353.962 401.925 365.307 396.471 377.982C394.607 376.08 394.483 376.095 392.149 376.382L392.083 376.39C391.369 371.63 390.332 366.697 389.403 361.921C382.444 326.135 374.217 290.156 363.119 255.612C361.235 249.747 359.149 244.121 357.444 238.204C355.811 232.537 355.588 226.989 353.877 221.364C357.395 215.192 374.948 199.357 380.997 194.325C410.764 169.561 434.846 138.111 448.955 99.6249L449.62 97.7869C433.582 105.693 419.891 118.748 407.078 131.611L407.073 123.433C414.062 105.863 423.524 87.6783 428.898 69.4274C429.879 66.5242 430.94 63.5734 431.738 60.6115C426.284 63.7831 420.061 70.6191 416.09 75.7167C404.694 86.6885 389.924 111.179 381.612 125.168C381.306 125.683 380.954 126.359 380.572 127.143L382.17 116.026C384.156 108.113 385.75 100.124 386.987 93.9302L387.052 93.6037C388.534 86.1857 391.379 76.836 392.393 69.5869C395.551 58.5886 397.86 37.3735 396.79 26.0245C392.092 31.2119 388.333 37.7808 385.132 44.1408C375.03 59.3097 365.362 94.2464 363.547 114.121L362.88 106.691C363.041 102.159 362.996 97.7106 362.56 93.4492C361.715 85.1991 357.51 24.7792 352.726 21.5423C350.795 23.4642 347.831 34.1184 347.077 37.4519C342.349 58.3793 339.9 83.0991 340.023 104.628L336.336 95.943C332.439 80.1281 324.623 52.3746 322.755 48.336Z"/>
</mask>
<path d="M322.755 48.336C320.959 42.3593 312.262 16.9505 309.033 12.8968L308.384 13.135C305.549 22.3451 307.637 53.9863 308.638 64.3262C308.724 69.3345 309.88 76.3178 310.531 81.4627C312.183 94.5267 313.375 105.871 317.297 118.111L314.636 113.77C313.901 111.385 313.166 109.036 312.256 106.983C304.535 89.5624 292.299 65.1701 279.809 51.2364C274.576 43.4551 268.537 35.2847 261.036 30.0004L260.537 29.6406C262.611 38.0683 265.8 47.3843 268.355 55.7386C269.293 58.8056 272.083 67.7982 273.166 70.2268C277.084 83.9357 281.963 97.078 286.609 110.492C289.109 117.71 292.723 123.199 296.724 128.76L290.97 122.668C288.072 118.572 285.186 114.574 283.116 112.326C269.008 97.0095 246.888 73.6593 229.291 63.201L228.456 62.7126C235.53 90.2467 259.56 125.861 277.019 147.027C278.668 149.026 281.622 151.877 284.734 154.772L279.408 151.536C274.01 147.139 268.503 143.16 261.734 138.878C242.785 126.892 220.881 110.049 199.575 103.619L198.561 103.321C213.23 126.398 227.474 143.155 248.815 159.234C260.628 168.134 266.436 171.276 280.242 176.431C281.473 176.89 282.739 177.408 284.032 177.964L273.368 174.927C271.044 173.993 268.715 173.071 266.382 172.162C263.536 171.024 255.677 167.456 253.248 166.797C236.708 162.314 205.813 152.767 189.592 155.981C196.604 163.635 203.878 166.769 212.604 171.81C227.909 180.65 245.474 191.035 262.285 195.953C263.918 196.431 265.66 196.85 267.471 197.239L269.019 198.673C253.284 196.325 199.45 197.827 189.916 204.498L189.945 205.176C201.078 213.037 244.517 222.253 258.594 225.353C279.059 229.861 315.913 228.316 336.721 223.506C337.273 223.379 337.826 223.245 338.376 223.105C339.687 231.941 349.642 251.757 353.151 260.808C362.443 284.771 370.358 307.099 374.861 332.749C377.242 346.308 383.236 360.962 380.777 375.292C374.457 373.903 370.632 376.507 369.509 377.982L382.703 386.899C376.853 388.907 368.167 390.769 361.78 392.139L361.07 392.291C365.292 394.499 370.709 396.118 375.225 397.795C379.995 399.621 384.717 401.593 389.384 403.705L388.676 403.937C381.473 406.259 373.764 407.241 366.452 408.998C360.949 410.319 349.325 410.137 346.415 415.817C346.527 416.673 346.331 416.757 346.894 417.153C349.862 419.244 381.127 415.853 386.036 414.505C378.8 434.98 372.781 456.107 365.357 476.535C363.196 482.485 361.101 490.028 358.566 495.595C366.214 488.211 376.375 463.2 381.634 452.683C385.983 443.982 389.234 431.27 393.81 422.363C396.067 417.359 397.761 411.193 400.089 406.337C400.582 406.739 401.07 407.141 401.563 407.544C409.476 408.945 419.004 410.079 426.697 410.978C428.546 410.122 435.488 406.089 437.539 404.828C429.527 400.806 417.273 396.654 408.346 397.652L407.848 397.375C407.656 395.708 410.58 390.269 411.565 388.766C413.184 387.192 415.484 385.907 417.417 384.742C428.747 377.912 439.476 370.351 450.196 362.43C447.066 358.862 440.054 352.71 436.304 349.013C434.149 351.742 429.564 356.596 427.931 359.279C422.613 368.022 415.761 375.069 409.941 383.176C408.674 383.113 406.529 385.206 405.215 386.223C403.882 387.09 403.459 387.893 401.948 387.218C400.446 387.533 400.479 388.354 398.353 388.79L398.105 388.238C398.827 387.331 399.325 386.782 400.122 385.948C405.299 375.298 417.207 362.002 424.233 351.987C426.688 348.492 432.179 340.832 434.835 337.906L435.262 338.525C439.802 344.955 448.488 352.551 453.994 357.917C477.715 381.036 519.857 416.883 552.903 412.846C541.33 399.221 522.495 383.792 508.241 373.273C505.546 371.282 497.319 366.812 489.623 363.051L495.816 364.858C503.235 368.158 510.669 371.406 518.139 374.343C525.348 377.179 534.795 379.039 542.455 380.776C559.469 384.633 574.869 388.872 592.45 387.677C581.266 376.494 553.195 361.186 538.823 355.137C533.716 352.989 524.541 351.109 515.019 349.683L523.377 349.097C528.768 349.354 534.143 349.422 539.475 349.196C561.374 348.269 588.31 346.171 608.567 336.788C588.686 327.956 565.5 325.939 544.436 321.705C538.329 320.478 533.251 321.328 527.274 322.572L534.496 319.594C546.773 316.658 558.917 313.061 570.883 308.806C588.291 302.801 597.472 299.171 612.683 287.821C590.868 279.058 556.216 285.391 533.81 290.628C530.557 291.388 525.897 293.833 522.532 294.975C522.299 295.054 522.066 295.136 521.833 295.216L530.126 290.064C542.105 283.645 555.805 273.858 566.415 265.897C571.236 262.265 575.929 258.439 580.486 254.426C585.199 250.24 593.652 241.885 598.547 239.505C572.545 235.786 526.014 259.896 503.969 274.113L503.65 273.466C510.16 268.366 522.143 261.637 527.127 256.838C541.63 242.881 562.079 211.353 569.776 192.406C548.233 198.384 517.477 225.531 501.473 242.162C499.032 244.698 488.354 256.855 487.26 257.545C490.302 251.128 498.807 242.866 503.04 236.935C515.163 219.966 531.633 186.565 535.308 166.341C508.628 183.634 489.173 212.274 475.451 242.177L477.263 235.172C477.301 235.081 477.339 234.991 477.377 234.901C480.69 226.891 484.051 210.352 485.989 201.302C489.875 183.149 493.996 166.514 493.884 147.735C493.48 148.126 493.081 148.519 492.686 148.915C486.008 155.591 483.515 160.571 478.62 168.39C467.338 186.411 459.176 206.077 453.203 226.72L453.991 216.648C457.556 194.418 456.736 166.414 453.717 145.793C432.559 169.374 425.535 206.465 423.377 240.243L422.667 238.411C422.649 238.243 422.628 238.078 422.604 237.916C420.098 221.162 418.774 204.285 416.188 187.548C415.458 182.845 414.797 177.697 414.594 172.901L414.559 171.947C413.236 173.065 411.04 174.889 410.073 176.287C405.168 183.378 402.578 198.459 401.503 207.232C398.893 228.479 402.225 252.903 406.895 273.678C408.401 280.393 410.486 286.951 412.579 294.229C415.569 304.55 423.313 316.712 422.895 327.658C422.877 328.183 414.869 340.384 413.649 342.296C406.21 353.962 401.925 365.307 396.471 377.982C394.607 376.08 394.483 376.095 392.149 376.382L392.083 376.39C391.369 371.63 390.332 366.697 389.403 361.921C382.444 326.135 374.217 290.156 363.119 255.612C361.235 249.747 359.149 244.121 357.444 238.204C355.811 232.537 355.588 226.989 353.877 221.364C357.395 215.192 374.948 199.357 380.997 194.325C410.764 169.561 434.846 138.111 448.955 99.6249L449.62 97.7869C433.582 105.693 419.891 118.748 407.078 131.611L407.073 123.433C414.062 105.863 423.524 87.6783 428.898 69.4274C429.879 66.5242 430.94 63.5734 431.738 60.6115C426.284 63.7831 420.061 70.6191 416.09 75.7167C404.694 86.6885 389.924 111.179 381.612 125.168C381.306 125.683 380.954 126.359 380.572 127.143L382.17 116.026C384.156 108.113 385.75 100.124 386.987 93.9302L387.052 93.6037C388.534 86.1857 391.379 76.836 392.393 69.5869C395.551 58.5886 397.86 37.3735 396.79 26.0245C392.092 31.2119 388.333 37.7808 385.132 44.1408C375.03 59.3097 365.362 94.2464 363.547 114.121L362.88 106.691C363.041 102.159 362.996 97.7106 362.56 93.4492C361.715 85.1991 357.51 24.7792 352.726 21.5423C350.795 23.4642 347.831 34.1184 347.077 37.4519C342.349 58.3793 339.9 83.0991 340.023 104.628L336.336 95.943C332.439 80.1281 324.623 52.3746 322.755 48.336Z" fill="url(#paint4_linear_3139_7239)"/>
<path d="M322.755 48.336C320.959 42.3593 312.262 16.9505 309.033 12.8968L308.384 13.135C305.549 22.3451 307.637 53.9863 308.638 64.3262C308.724 69.3345 309.88 76.3178 310.531 81.4627C312.183 94.5267 313.375 105.871 317.297 118.111L314.636 113.77C313.901 111.385 313.166 109.036 312.256 106.983C304.535 89.5624 292.299 65.1701 279.809 51.2364C274.576 43.4551 268.537 35.2847 261.036 30.0004L260.537 29.6406C262.611 38.0683 265.8 47.3843 268.355 55.7386C269.293 58.8056 272.083 67.7982 273.166 70.2268C277.084 83.9357 281.963 97.078 286.609 110.492C289.109 117.71 292.723 123.199 296.724 128.76L290.97 122.668C288.072 118.572 285.186 114.574 283.116 112.326C269.008 97.0095 246.888 73.6593 229.291 63.201L228.456 62.7126C235.53 90.2467 259.56 125.861 277.019 147.027C278.668 149.026 281.622 151.877 284.734 154.772L279.408 151.536C274.01 147.139 268.503 143.16 261.734 138.878C242.785 126.892 220.881 110.049 199.575 103.619L198.561 103.321C213.23 126.398 227.474 143.155 248.815 159.234C260.628 168.134 266.436 171.276 280.242 176.431C281.473 176.89 282.739 177.408 284.032 177.964L273.368 174.927C271.044 173.993 268.715 173.071 266.382 172.162C263.536 171.024 255.677 167.456 253.248 166.797C236.708 162.314 205.813 152.767 189.592 155.981C196.604 163.635 203.878 166.769 212.604 171.81C227.909 180.65 245.474 191.035 262.285 195.953C263.918 196.431 265.66 196.85 267.471 197.239L269.019 198.673C253.284 196.325 199.45 197.827 189.916 204.498L189.945 205.176C201.078 213.037 244.517 222.253 258.594 225.353C279.059 229.861 315.913 228.316 336.721 223.506C337.273 223.379 337.826 223.245 338.376 223.105C339.687 231.941 349.642 251.757 353.151 260.808C362.443 284.771 370.358 307.099 374.861 332.749C377.242 346.308 383.236 360.962 380.777 375.292C374.457 373.903 370.632 376.507 369.509 377.982L382.703 386.899C376.853 388.907 368.167 390.769 361.78 392.139L361.07 392.291C365.292 394.499 370.709 396.118 375.225 397.795C379.995 399.621 384.717 401.593 389.384 403.705L388.676 403.937C381.473 406.259 373.764 407.241 366.452 408.998C360.949 410.319 349.325 410.137 346.415 415.817C346.527 416.673 346.331 416.757 346.894 417.153C349.862 419.244 381.127 415.853 386.036 414.505C378.8 434.98 372.781 456.107 365.357 476.535C363.196 482.485 361.101 490.028 358.566 495.595C366.214 488.211 376.375 463.2 381.634 452.683C385.983 443.982 389.234 431.27 393.81 422.363C396.067 417.359 397.761 411.193 400.089 406.337C400.582 406.739 401.07 407.141 401.563 407.544C409.476 408.945 419.004 410.079 426.697 410.978C428.546 410.122 435.488 406.089 437.539 404.828C429.527 400.806 417.273 396.654 408.346 397.652L407.848 397.375C407.656 395.708 410.58 390.269 411.565 388.766C413.184 387.192 415.484 385.907 417.417 384.742C428.747 377.912 439.476 370.351 450.196 362.43C447.066 358.862 440.054 352.71 436.304 349.013C434.149 351.742 429.564 356.596 427.931 359.279C422.613 368.022 415.761 375.069 409.941 383.176C408.674 383.113 406.529 385.206 405.215 386.223C403.882 387.09 403.459 387.893 401.948 387.218C400.446 387.533 400.479 388.354 398.353 388.79L398.105 388.238C398.827 387.331 399.325 386.782 400.122 385.948C405.299 375.298 417.207 362.002 424.233 351.987C426.688 348.492 432.179 340.832 434.835 337.906L435.262 338.525C439.802 344.955 448.488 352.551 453.994 357.917C477.715 381.036 519.857 416.883 552.903 412.846C541.33 399.221 522.495 383.792 508.241 373.273C505.546 371.282 497.319 366.812 489.623 363.051L495.816 364.858C503.235 368.158 510.669 371.406 518.139 374.343C525.348 377.179 534.795 379.039 542.455 380.776C559.469 384.633 574.869 388.872 592.45 387.677C581.266 376.494 553.195 361.186 538.823 355.137C533.716 352.989 524.541 351.109 515.019 349.683L523.377 349.097C528.768 349.354 534.143 349.422 539.475 349.196C561.374 348.269 588.31 346.171 608.567 336.788C588.686 327.956 565.5 325.939 544.436 321.705C538.329 320.478 533.251 321.328 527.274 322.572L534.496 319.594C546.773 316.658 558.917 313.061 570.883 308.806C588.291 302.801 597.472 299.171 612.683 287.821C590.868 279.058 556.216 285.391 533.81 290.628C530.557 291.388 525.897 293.833 522.532 294.975C522.299 295.054 522.066 295.136 521.833 295.216L530.126 290.064C542.105 283.645 555.805 273.858 566.415 265.897C571.236 262.265 575.929 258.439 580.486 254.426C585.199 250.24 593.652 241.885 598.547 239.505C572.545 235.786 526.014 259.896 503.969 274.113L503.65 273.466C510.16 268.366 522.143 261.637 527.127 256.838C541.63 242.881 562.079 211.353 569.776 192.406C548.233 198.384 517.477 225.531 501.473 242.162C499.032 244.698 488.354 256.855 487.26 257.545C490.302 251.128 498.807 242.866 503.04 236.935C515.163 219.966 531.633 186.565 535.308 166.341C508.628 183.634 489.173 212.274 475.451 242.177L477.263 235.172C477.301 235.081 477.339 234.991 477.377 234.901C480.69 226.891 484.051 210.352 485.989 201.302C489.875 183.149 493.996 166.514 493.884 147.735C493.48 148.126 493.081 148.519 492.686 148.915C486.008 155.591 483.515 160.571 478.62 168.39C467.338 186.411 459.176 206.077 453.203 226.72L453.991 216.648C457.556 194.418 456.736 166.414 453.717 145.793C432.559 169.374 425.535 206.465 423.377 240.243L422.667 238.411C422.649 238.243 422.628 238.078 422.604 237.916C420.098 221.162 418.774 204.285 416.188 187.548C415.458 182.845 414.797 177.697 414.594 172.901L414.559 171.947C413.236 173.065 411.04 174.889 410.073 176.287C405.168 183.378 402.578 198.459 401.503 207.232C398.893 228.479 402.225 252.903 406.895 273.678C408.401 280.393 410.486 286.951 412.579 294.229C415.569 304.55 423.313 316.712 422.895 327.658C422.877 328.183 414.869 340.384 413.649 342.296C406.21 353.962 401.925 365.307 396.471 377.982C394.607 376.08 394.483 376.095 392.149 376.382L392.083 376.39C391.369 371.63 390.332 366.697 389.403 361.921C382.444 326.135 374.217 290.156 363.119 255.612C361.235 249.747 359.149 244.121 357.444 238.204C355.811 232.537 355.588 226.989 353.877 221.364C357.395 215.192 374.948 199.357 380.997 194.325C410.764 169.561 434.846 138.111 448.955 99.6249L449.62 97.7869C433.582 105.693 419.891 118.748 407.078 131.611L407.073 123.433C414.062 105.863 423.524 87.6783 428.898 69.4274C429.879 66.5242 430.94 63.5734 431.738 60.6115C426.284 63.7831 420.061 70.6191 416.09 75.7167C404.694 86.6885 389.924 111.179 381.612 125.168C381.306 125.683 380.954 126.359 380.572 127.143L382.17 116.026C384.156 108.113 385.75 100.124 386.987 93.9302L387.052 93.6037C388.534 86.1857 391.379 76.836 392.393 69.5869C395.551 58.5886 397.86 37.3735 396.79 26.0245C392.092 31.2119 388.333 37.7808 385.132 44.1408C375.03 59.3097 365.362 94.2464 363.547 114.121L362.88 106.691C363.041 102.159 362.996 97.7106 362.56 93.4492C361.715 85.1991 357.51 24.7792 352.726 21.5423C350.795 23.4642 347.831 34.1184 347.077 37.4519C342.349 58.3793 339.9 83.0991 340.023 104.628L336.336 95.943C332.439 80.1281 324.623 52.3746 322.755 48.336Z" stroke="#48472E" stroke-width="9.38686" stroke-linejoin="round" mask="url(#path-8-outside-1_3139_7239)"/>
</g>
<path opacity="0.9" d="M475.469 401.864C489.437 401.901 503.521 404.289 514.057 408.104C524.749 411.975 530.479 414.365 536.359 415.638C542.109 416.882 548.027 417.048 558.894 416.182C561.217 415.997 564.573 416.279 568.272 416.789C572.025 417.307 576.308 418.085 580.57 418.968C589.067 420.728 597.641 422.937 601.888 424.39C602.741 424.681 603.351 425.435 603.459 426.329C603.566 427.224 603.152 428.102 602.393 428.587C589.031 437.134 569.307 442.699 552.718 443.297C567.124 449.766 580.383 457.2 595.148 466.738L596.928 467.894V467.895C600.663 470.332 607.595 474.526 611.157 477.35C611.899 477.938 612.215 478.914 611.958 479.825C611.701 480.737 610.921 481.405 609.981 481.519C586.97 484.309 559.864 478.198 534.557 468.588C536.131 469.885 537.825 471.316 539.597 472.848C545.772 478.183 553.083 484.883 559.998 491.725C566.902 498.555 573.464 505.578 578.108 511.549C580.423 514.526 582.323 517.319 583.545 519.747C584.155 520.962 584.634 522.158 584.891 523.291C585.144 524.406 585.224 525.643 584.827 526.819C584.642 527.364 584.263 527.822 583.762 528.107C582.085 529.059 580.242 528.953 578.862 528.691C577.47 528.426 576.08 527.899 575.175 527.582V527.583C555.983 520.877 540.267 508.785 524.044 497.534V497.533C521.793 495.972 519.694 494.521 517.694 493.126C523.449 500.173 528.647 507.764 533.241 516.02C542.454 532.57 550.109 545.064 554.417 564.648C554.603 565.496 554.306 566.377 553.644 566.94C552.983 567.502 552.064 567.653 551.258 567.332C538.21 562.144 525.22 549.499 513.418 536.004C507.478 529.212 501.76 522.108 496.425 515.484C495.052 513.78 493.706 512.11 492.388 510.485C505.457 535.648 514.036 567.91 514.108 595.061C514.111 595.984 513.571 596.823 512.729 597.204C511.888 597.585 510.901 597.437 510.209 596.826C502.693 590.194 493.692 576.819 485.49 563.058C479.109 552.352 473.101 541.217 468.504 532.42C469.927 540.491 470.915 549.15 471.255 557.754C471.947 575.286 469.975 593.031 463.163 605.105C462.75 605.837 461.976 606.292 461.135 606.298C460.295 606.304 459.515 605.86 459.092 605.134C453.26 595.134 447.829 579.993 443.599 564.57C441.059 555.307 438.934 545.862 437.404 537.257C437.34 538.191 437.281 538.978 437.222 539.479V539.48C434.53 562.525 430.605 586.648 420.782 607.847C420.389 608.694 419.531 609.228 418.597 609.206C417.664 609.184 416.832 608.61 416.479 607.745C416.309 607.327 416.14 606.9 415.979 606.469V606.468C407.812 584.767 406.548 558.691 406.023 536.046C405.97 533.746 405.649 528.252 405.495 523.453C405.011 524.791 404.502 526.081 403.962 527.296V527.297C402.357 530.9 398.41 540.013 394.138 548.517C392.004 552.765 389.761 556.919 387.661 560.187C386.613 561.818 385.568 563.278 384.562 564.434C383.609 565.529 382.484 566.595 381.235 567.114C380.655 567.356 380.002 567.354 379.423 567.11C377.752 566.405 376.759 564.823 376.15 563.487C375.499 562.056 375.043 560.355 374.722 558.695C374.081 555.372 373.895 551.763 373.98 549.743C375.02 525.039 380.913 497.247 391.402 472.109C401.882 446.993 417.033 424.331 436.724 410.117L436.837 410.041C436.875 410.017 436.913 409.994 436.953 409.972C447.41 404.132 461.537 401.828 475.469 401.864Z" fill="url(#paint5_linear_3139_7239)" stroke="#48472E" stroke-width="4.69343" stroke-linejoin="round"/>
<path opacity="0.9" d="M261.535 233.426C263.862 232.288 266.45 232.812 268.64 233.731C270.892 234.676 273.238 236.25 275.462 238.009C279.925 241.54 284.342 246.182 287.188 249.269C313.458 277.758 337.359 307.81 346.236 348.638L346.647 350.59L346.684 350.839C347.305 357.423 348.516 362.017 349.724 365.048C350.819 367.798 351.835 369.072 352.262 369.48L352.407 369.604L352.596 369.749C353.89 370.862 355.256 371.687 356.724 372.539C358.047 373.308 359.54 374.148 360.903 375.21C366.121 377.421 370.094 378.935 374.66 383.672C375.276 384.312 375.479 385.245 375.183 386.082C374.888 386.92 374.144 387.518 373.263 387.629C369.379 388.118 366.164 388.902 363.079 389.716C360.172 390.483 357.281 391.304 354.158 391.864C353.834 392.074 353.65 392.199 353.523 392.299C353.513 392.307 353.504 392.314 353.497 392.32C353.488 392.346 353.478 392.386 353.462 392.44C356.297 393.49 359.212 394.403 362.221 395.341C365.883 396.483 369.68 397.664 373.457 399.161C374.429 399.547 375.029 400.529 374.928 401.57C374.827 402.61 374.049 403.459 373.021 403.651C369.547 404.298 365.857 404.846 362.011 405.616C358.344 406.349 354.923 407.216 352.243 408.366C351.038 409.296 349.343 410.663 347.932 411.537C347.865 411.579 347.794 411.618 347.723 411.653L347.605 411.708C346.489 412.616 345.297 413.714 344.824 415.794C344.793 415.933 344.749 416.069 344.693 416.2C342.554 421.187 340.565 426.29 338.572 431.389C336.833 435.839 335.09 440.286 333.259 444.596L332.468 446.435C323.325 467.417 311.219 486.72 296.585 503.652C290.703 510.547 281.134 520.737 273.665 526.168C272.89 526.732 271.851 526.767 271.039 526.258C270.227 525.749 269.806 524.799 269.975 523.856C273.644 503.414 279.23 484.21 288.166 465.924C283.367 470.165 278.117 474.456 274.125 477.999C258.179 492.153 243.61 503.786 225.749 515.35C224.958 515.862 223.938 515.851 223.158 515.324C222.378 514.796 221.99 513.852 222.171 512.928C226.338 491.664 241.101 470.659 255.597 454.687C254.758 455.131 253.894 455.596 253.015 456.072C249.942 457.732 246.693 459.509 243.908 460.786L243.906 460.787C226.667 468.68 212.683 472.641 194.884 476.938C194.05 477.139 193.172 476.87 192.596 476.235C192.019 475.6 191.835 474.7 192.115 473.889C195.492 464.133 202.966 456.676 209.154 450.456L209.53 450.078C218.498 441.059 225.529 434.718 231.684 430.026C214.602 433.952 193.145 435.917 177.43 435.114C176.605 435.071 175.863 434.599 175.476 433.869C175.09 433.14 175.115 432.261 175.542 431.555C178.225 427.124 182.792 422.578 188.247 418.25C193.734 413.897 200.261 409.652 207.015 405.853C216.539 400.495 226.676 395.932 235.137 393.202C229.734 393.061 216.428 392.462 203.549 391.159C196.775 390.475 190.059 389.591 184.653 388.465C181.954 387.903 179.52 387.269 177.544 386.545C175.663 385.857 173.84 384.965 172.724 383.704C172.108 383.009 171.961 382.017 172.347 381.173L172.638 380.536L172.712 380.388C172.898 380.048 173.166 379.759 173.492 379.546C192.242 367.343 211.145 362.729 231.778 360.899C222.096 358.085 211.122 354.666 200.766 349.969C189.91 345.046 179.571 338.652 172.06 329.933C171.486 329.266 171.333 328.333 171.665 327.517C171.997 326.701 172.758 326.14 173.636 326.064C180.414 325.476 188.146 326.155 194.533 326.353C212.685 326.914 225.569 326.357 240.934 329.874C223.022 318.42 206.681 308.314 192.813 280.328C192.44 279.575 192.498 278.68 192.966 277.982C193.433 277.283 194.238 276.888 195.077 276.946C205.288 277.648 216.656 281.513 227.503 286.332C238.357 291.155 248.881 297.021 257.453 301.883L258.6 302.45C253.732 298.074 249.453 293.78 245.532 289.101C237.987 280.097 231.832 269.769 225.239 254.887C224.837 253.978 225.05 252.914 225.772 252.231C226.494 251.548 227.568 251.395 228.453 251.847C230.629 252.96 232.85 253.947 235.164 254.992C237.457 256.027 239.826 257.111 242.185 258.381L245.288 260.066C256.476 266.192 268.333 273.29 278.971 281.448C270.734 267.043 268.188 256.808 260.308 236.833C260.151 236.435 260.107 236.001 260.179 235.578C260.207 235.412 260.226 235.297 260.253 235.141C260.379 234.396 260.857 233.758 261.535 233.426Z" fill="url(#paint6_linear_3139_7239)" stroke="#48472E" stroke-width="4.69343" stroke-linejoin="round"/>
<path d="M383.584 338.559C397.683 334.563 413.5 338.493 421.986 354.253C427.346 364.208 429.788 373.224 427.179 384.932L427.176 384.943C426.986 385.777 426.781 386.623 426.551 387.467V387.469C424.808 393.87 421.342 399.597 416.56 403.921L416.552 403.929C409.707 410.063 399.946 413.444 390.499 413.342C381.029 413.239 371.564 409.617 365.687 401.348V401.347C358.989 391.927 352.816 384.228 354.154 370.722L354.162 370.64L354.175 370.558C356.913 354.366 369.59 342.525 383.584 338.559Z" fill="#C38A34" stroke="#48472E" stroke-width="4.79839"/>
<defs>
<linearGradient id="paint0_linear_3139_7239" x1="162.529" y1="504.843" x2="268.384" y2="431.711" gradientUnits="userSpaceOnUse">
<stop stop-color="#819458"/>
<stop offset="1" stop-color="#BDB975"/>
</linearGradient>
<linearGradient id="paint1_linear_3139_7239" x1="362.734" y1="610.316" x2="400.741" y2="439.591" gradientUnits="userSpaceOnUse">
<stop stop-color="#819458"/>
<stop offset="1" stop-color="#BDB975"/>
</linearGradient>
<linearGradient id="paint2_linear_3139_7239" x1="172.206" y1="295.503" x2="259.866" y2="315.778" gradientUnits="userSpaceOnUse">
<stop stop-color="#819458"/>
<stop offset="1" stop-color="#BDB975"/>
</linearGradient>
<linearGradient id="paint3_linear_3139_7239" x1="574.493" y1="581.865" x2="477.416" y2="481.245" gradientUnits="userSpaceOnUse">
<stop stop-color="#819458"/>
<stop offset="1" stop-color="#667343"/>
</linearGradient>
<linearGradient id="paint4_linear_3139_7239" x1="441.318" y1="134.352" x2="355.74" y2="372.479" gradientUnits="userSpaceOnUse">
<stop stop-color="#819458"/>
<stop offset="1" stop-color="#BDB975"/>
</linearGradient>
<linearGradient id="paint5_linear_3139_7239" x1="466.663" y1="472.182" x2="417.946" y2="407.624" gradientUnits="userSpaceOnUse">
<stop stop-color="#819458"/>
<stop offset="1" stop-color="#BDB975"/>
</linearGradient>
<linearGradient id="paint6_linear_3139_7239" x1="257.805" y1="379.305" x2="360.122" y2="379.305" gradientUnits="userSpaceOnUse">
<stop stop-color="#819458"/>
<stop offset="1" stop-color="#BDB975"/>
</linearGradient>
</defs>
</svg>
