<svg width="423" height="451" viewBox="0 0 423 451" fill="none" xmlns="http://www.w3.org/2000/svg">
<g clip-path="url(#clip0_3044_1230)">
<path d="M299.134 205.343C299.134 205.343 256.198 199.694 240.379 199.694L199.703 181.616L178.235 55.0674L84.4537 5.35156L144.338 64.1065L147.728 110.432L162.417 222.292L122.87 242.63L65.2454 227.941L5.36084 265.228L56.2063 256.188L100.272 275.397L174.845 268.617L229.08 275.397L260.717 305.904L295.744 369.178L293.593 413.21L319.472 371.438L310.433 309.294L250.548 239.24L291.224 227.941L339.81 243.76C327.758 232.838 299.134 205.343 299.134 205.343Z" fill="#5B3E24" stroke="#312114" stroke-width="9.00601" stroke-linecap="round" stroke-linejoin="round"/>
<path d="M299.134 205.343C299.134 205.343 256.198 199.694 240.379 199.694L199.703 181.616L178.235 55.0674L84.4537 5.35156L144.338 64.1065L147.728 110.432L162.417 222.292L122.87 242.63L65.2454 227.941L5.36084 265.228L56.2063 256.188L100.272 275.397L174.845 268.617L229.08 275.397L260.717 305.904L295.744 369.178L293.593 413.21L319.472 371.438L310.433 309.294L250.548 239.24L291.224 227.941L339.81 243.76C327.758 232.838 299.134 205.343 299.134 205.343Z" stroke="#312114" stroke-width="9.00601" stroke-linecap="round" stroke-linejoin="round"/>
<path d="M216.23 201.302L253.128 176.463L320.033 161.768L417.623 178.624L318.772 204.295L270.886 233.59L223.032 238.469L218.923 321.735L229.742 375.061L241.559 446.348L198.369 383.772L185.58 339.115L184.438 248.876L145.734 312.342L104.118 326.351L61.1823 389.507L61.2428 331.277L107.647 278.913L162.416 222.292L126.777 200.084L76.896 203.985L6.62549 117.076L87.7909 172.082L129.783 171.311L172.907 182.212L216.411 139.673L225.969 84.3926L307.191 14.2995L262.671 92.2233L257.82 140.595L216.23 201.302Z" fill="#6D4A2C" stroke="#312114" stroke-width="9.00601" stroke-miterlimit="16" stroke-linejoin="round"/>
<path d="M216.23 201.302L253.128 176.463L320.033 161.768L417.623 178.624L318.772 204.295L270.886 233.59L223.032 238.469L218.923 321.735L229.742 375.061L241.559 446.348L198.369 383.772L185.58 339.115L184.438 248.876L145.734 312.342L104.118 326.351L61.1823 389.507L61.2428 331.277L107.647 278.913L162.416 222.292L126.777 200.084L76.896 203.985L6.62549 117.076L87.7909 172.082L129.783 171.311L172.907 182.212L216.411 139.673L225.969 84.3926L307.191 14.2995L262.671 92.2233L257.82 140.595L216.23 201.302Z" stroke="#312114" stroke-width="9.00601" stroke-miterlimit="16" stroke-linejoin="round"/>
</g>
<defs>
<clipPath id="clip0_3044_1230">
<rect width="421.265" height="450" fill="white" transform="translate(0.859375 0.849945)"/>
</clipPath>
</defs>
</svg>
