<svg width="324" height="320" viewBox="0 0 324 320" fill="none" xmlns="http://www.w3.org/2000/svg">
<path d="M159.427 1.48898C159.902 1.57496 160.366 1.84181 160.787 2.16086C161.215 2.48502 161.639 2.89481 162.038 3.32101C162.814 4.15101 163.592 5.15817 164.065 5.69992C165.012 6.77812 165.956 7.85879 166.896 8.94211L169.708 12.1999L169.709 12.2019C174.196 17.4796 178.354 22.813 182.337 28.4841C188.164 36.7773 190.149 44.6425 191.137 54.3806C192.522 53.5546 194.108 52.3915 195.443 51.5095L195.445 51.5075C197.923 49.8919 200.505 48.4392 203.171 47.1589L203.177 47.156C206.733 45.5139 210.375 44.0657 214.088 42.8171C216.421 42.0337 223.839 39.8718 231.181 37.989C234.854 37.0472 238.517 36.1728 241.521 35.5749C243.023 35.2761 244.367 35.0446 245.469 34.9089C246.418 34.7919 247.227 34.7405 247.809 34.7927L248.045 34.822L248.219 34.8493L248.336 34.9821C248.417 35.0737 248.472 35.1813 248.51 35.2693C248.55 35.3637 248.587 35.4713 248.62 35.5857C248.686 35.8148 248.75 36.1048 248.81 36.4392C248.932 37.1098 249.051 38.0019 249.168 39.0398C249.4 41.1179 249.624 43.8153 249.829 46.57C250.24 52.1002 250.574 57.8341 250.756 59.3874C252.805 76.9584 247.123 95.2602 236.031 109.052C236.707 108.642 237.385 108.235 238.067 107.834L238.07 107.832C251.857 99.8584 268.232 97.6312 283.649 101.632H283.65C295.589 104.763 306.789 110.751 317.377 116.969L319.486 118.216L320.274 118.676C320.564 118.846 320.869 119.032 321.159 119.228C321.732 119.616 322.326 120.095 322.656 120.659L322.751 120.821L322.714 121.006C322.67 121.225 322.543 121.496 322.393 121.776C322.235 122.071 322.021 122.428 321.761 122.833C321.242 123.644 320.527 124.675 319.679 125.849C317.983 128.2 315.743 131.145 313.452 134.094C308.873 139.988 304.068 145.925 302.961 147.181L302.96 147.18C300.49 149.994 297.855 152.658 295.065 155.155L295.063 155.157C290.577 159.137 284.554 163.275 278.134 166.331C272.723 168.906 266.997 170.727 261.651 171.016C261.657 171.018 261.663 171.021 261.67 171.023C262.595 171.336 263.535 171.661 264.458 172.054H264.457C270.988 174.833 277.012 179.42 281.708 184.711L282.158 185.224L282.76 185.935C285.736 189.519 288.213 193.542 290.415 197.602C291.526 199.653 295.351 208.063 298.82 216.254C300.556 220.354 302.209 224.41 303.392 227.602C303.984 229.197 304.46 230.585 304.772 231.656C304.928 232.191 305.046 232.657 305.115 233.035C305.18 233.389 305.219 233.741 305.159 234.007L305.158 234.006C305.091 234.306 304.976 234.546 304.766 234.738C304.587 234.902 304.356 235.008 304.179 235.096L304.178 235.097C303.607 235.38 302.769 235.611 301.834 235.807C300.888 236.006 299.801 236.176 298.709 236.325C297.615 236.474 296.509 236.602 295.521 236.714C294.53 236.826 293.665 236.922 293.045 237.009C285.151 238.111 276.048 239.454 266.993 239.862C258.568 240.242 250.148 239.815 242.746 237.62C243.425 238.442 244.071 239.266 244.706 240.157L245.121 240.751L245.122 240.754C247.795 244.714 249.98 248.985 251.631 253.467L251.882 254.161C257.05 268.668 254.798 279.746 252.823 294.421C252.343 298.052 251.893 301.686 251.473 305.323L251.472 305.326C251.398 305.947 251.283 307.536 251.068 309.026C250.959 309.783 250.82 310.549 250.64 311.206C250.466 311.842 250.233 312.453 249.894 312.836L249.893 312.837C249.764 312.982 249.594 313.038 249.495 313.063C249.38 313.093 249.257 313.106 249.14 313.112C248.906 313.124 248.63 313.106 248.365 313.079C247.839 313.024 247.27 312.916 247 312.834C237.77 310.038 228.071 307.613 218.974 304.066C209.864 300.513 201.3 295.815 194.295 288.435H194.294C192.237 286.269 190.437 283.964 188.689 281.664C187.156 279.645 185.668 277.635 184.074 275.7L183.384 274.876C183.349 274.835 183.238 274.736 183.018 274.574C182.811 274.421 182.541 274.235 182.223 274.025C181.588 273.605 180.778 273.099 179.938 272.58C178.274 271.551 176.463 270.456 175.722 269.927C168.274 264.605 163.663 258.897 158.944 251.455C158.313 257.661 157.734 260.936 155.834 267.382L155.831 267.391L155.828 267.4C146.764 294.261 126.461 305.169 103.084 317.929C102.347 318.333 101.359 318.732 100.36 318.387L100.245 318.348L100.162 318.259C99.5314 317.592 98.8541 316.293 98.2712 315.029C97.6779 313.742 97.1427 312.402 96.8132 311.606C89.2493 293.338 81.1598 273.816 86.4314 253.53C87.434 249.672 88.6763 245.622 90.5603 241.977C82.2309 249.301 70.8585 255.307 60.3298 257.336C45.5619 260.181 30.4161 258.866 16.1492 254.301C14.8706 253.892 13.1776 253.418 11.5964 252.887C10.0005 252.352 8.40856 251.725 7.23218 250.957L6.95483 250.776L7.01733 250.45C7.66971 247.059 9.3023 241.697 10.2664 238.317C12.7332 229.673 15.0694 221.352 19.2625 213.279C26.2895 199.751 37.004 190.557 51.2634 185.235C52.6775 184.708 54.0485 184.361 55.406 184.044C55.9737 183.911 56.5365 183.782 57.1013 183.649C54.0522 183.197 51.4359 182.647 48.1521 181.551C31.1867 175.894 19.8342 162.06 9.7644 148.227C7.9718 145.765 3.70522 139.73 2.44214 137.195L2.27808 136.865L2.54761 136.614C3.83925 135.407 6.36322 133.93 8.90894 132.558C10.192 131.867 11.4972 131.194 12.6794 130.586C13.8645 129.976 14.9214 129.434 15.7175 129.002C27.2962 122.709 39.451 116.026 52.8601 114.405C54.3818 114.221 56.5652 113.984 58.3699 114.053C46.7422 99.4693 42.3521 81.6307 42.6882 63.1804C42.7015 62.4541 42.7141 59.4032 42.8943 56.4802C42.9843 55.0204 43.1166 53.5744 43.3162 52.4568C43.4155 51.9006 43.5351 51.4034 43.6833 51.0202C43.7574 50.829 43.8459 50.6469 43.9548 50.4958C44.0609 50.3487 44.2157 50.1906 44.4353 50.115L44.6169 50.0593C45.0596 49.9382 45.6386 49.8749 46.2595 49.8425C46.9825 49.8047 47.8112 49.8071 48.6433 49.8279C50.2771 49.8686 52.0531 49.987 52.9832 50.0183C66.3129 50.4666 81.1654 50.9178 93.656 56.4841L94.2693 56.7605C106.79 62.5102 116.598 72.8782 121.651 85.6862C122.652 84.0025 123.435 82.6017 123.189 80.6609C122.913 78.4816 122.484 76.2401 122.31 73.9841C121.893 69.0877 121.877 64.1653 122.264 59.2663V59.2644C123.123 48.8548 125.85 37.529 132.389 29.0437C138.193 21.5127 145.573 14.9562 152.103 8.1843C154.279 5.92898 156.617 3.63221 159.02 1.59836L159.198 1.44797L159.427 1.48898Z" fill="#404249" stroke="#404249" stroke-width="0.987654"/>
<path d="M170.149 101.375C171.556 86.0519 179.056 68.0011 191.128 58.1594C202.655 48.7609 215.56 44.8289 229.748 41.3124C235.186 39.9394 240.661 38.7147 246.166 37.6398C246.727 44.0243 247.215 50.4152 247.629 56.8108C247.978 62.2038 248.468 69.1037 247.82 74.4249C246.077 88.7532 239.288 101.001 229.977 111.789C225.149 117.385 219.168 122.531 213.365 127.051C210.351 127.196 207.742 127.421 204.786 128.219C197.471 130.193 188.385 135.573 183.347 141.151L183.216 141.299C183.014 140.389 182.731 138.935 182.456 138.101C180.426 133.114 177.803 130.468 172.059 130.36C175.121 121.167 174.874 114.092 171.924 105.113C171.343 103.846 170.786 102.614 170.149 101.375Z" fill="#B0BEB9"/>
<path d="M171.924 105.113C175.211 106.011 178.802 110.313 180.41 113.198C184.101 119.817 185.371 128.073 183.826 135.494C183.619 136.49 183.172 137.397 182.456 138.101C180.426 133.114 177.803 130.468 172.059 130.36C175.121 121.167 174.874 114.092 171.924 105.113Z" fill="#8AA49A"/>
<path d="M6.02686 137.56C10.2775 135.132 14.7877 132.789 19.0677 130.474C32.5241 123.197 45.3338 116.475 61.0731 116.947C76.3656 117.407 89.3979 124.979 100.842 134.56C103.147 136.489 106.545 139.068 108.566 141.17C114.842 145.653 120.568 149.701 127.81 152.65C127.348 158.406 129.004 161.057 131.936 165.981C128.05 165.883 124.414 165.735 120.514 165.763C111.875 165.544 103.895 165.723 95.8564 169.363C90.0639 171.987 87.2919 175.228 83.5844 180.161C74.0358 181.595 62.1712 182.296 52.8307 179.941C36.1091 175.727 24.306 162.986 14.4358 149.604C11.6975 145.892 8.38379 141.49 6.02686 137.56Z" fill="#B0BEB9"/>
<path d="M108.566 141.17C114.842 145.653 120.568 149.701 127.811 152.65C127.349 158.406 129.005 161.057 131.937 165.981C128.05 165.884 124.414 165.735 120.514 165.763L120.975 165.501C120.892 165.322 118.962 163.969 118.374 163.429C112.02 157.574 108.921 149.704 108.566 141.17Z" fill="#8AA49A"/>
<path d="M136.531 217.487C136.875 215.718 137.93 214.808 139.053 213.465C143.757 207.847 148.002 200.49 148.742 193.102C150.449 194.325 151.981 195.193 153.63 196.321C153.192 198.593 152.945 200.391 152.792 202.712C151.999 214.735 151.196 226.771 154.595 238.511C155.432 241.403 156.664 244.212 156.291 247.237C155.577 264.595 149.575 280.769 136.556 292.694C126.27 302.115 113.671 308.53 101.715 315.443C93.3703 296.866 83.9021 275.072 89.2071 254.539C90.7203 246.734 95.3729 237.693 100.288 231.486C101.638 229.781 103.474 228.067 104.951 226.285C107.013 225.942 109.619 226.044 111.707 225.932C119.254 225.531 126.876 223.649 133.08 219.179C133.668 218.755 135.636 217.131 136.195 217.091L136.531 217.487Z" fill="#B0BEB9"/>
<path d="M104.951 226.285C107.013 225.942 109.62 226.044 111.707 225.932C119.254 225.531 126.876 223.649 133.08 219.179C133.668 218.755 135.637 217.131 136.196 217.091C134.3 222.801 132.23 227.654 130.272 233.212L126.9 242.659C126.536 243.684 125.475 246.853 125.02 247.629C124.702 247.863 124.546 248.066 124.315 248.256C123.162 249.215 121.326 249.534 119.931 250.071C111.173 252.908 101.597 254.773 92.3713 254.801C91.6863 254.803 89.8557 254.686 89.2073 254.539C90.7204 246.734 95.3731 237.694 100.288 231.486C101.638 229.781 103.474 228.067 104.951 226.285Z" fill="#8AA49A"/>
<path d="M136.531 217.487C136.875 215.718 137.93 214.808 139.053 213.465C143.757 207.847 148.002 200.49 148.742 193.102C150.449 194.325 151.981 195.193 153.63 196.321C153.192 198.593 152.945 200.391 152.792 202.712C151.999 214.735 151.195 226.771 154.595 238.511C155.432 241.403 156.664 244.212 156.291 247.237C156.251 246.994 156.168 246.67 156.114 246.423C154.948 245.221 152.778 242.825 151.971 241.369C148.807 235.661 147.414 229.248 146.255 222.95C143.878 226.588 131.298 244.956 127.664 245.979L127.234 245.152C128.575 240.809 130.602 235.57 132.138 231.173C133.692 226.641 135.156 222.076 136.531 217.487Z" fill="#8AA49A"/>
<path d="M240.444 167.758C242.769 168.306 245.18 169.252 247.422 169.791C252.219 170.944 255.968 171.895 260.562 173.713C277.442 180.344 285.238 191.887 292.057 207.857C295.541 216.016 299.237 224.476 302.085 232.897C292.219 233.83 281.937 235.729 271.89 236.635C252 238.426 235.546 234.847 218.766 224.052C215.415 216.562 213.056 212.828 207.297 206.881C204.076 203.608 200.54 200.705 197.013 197.774C193.944 195.223 190.857 192.548 187.641 190.195C189.689 186.789 190.529 184.73 191.373 180.891C197.578 184.515 199.952 184.975 207.358 185.259C208.247 185.293 209.972 185.678 211.061 185.717C212.459 185.768 215.289 186.951 216.787 187.473C223.491 189.799 230.111 192.371 236.628 195.184C250.826 201.25 266.073 210.181 279.228 218.158L279.205 217.434C265.992 208.738 252.145 201.043 237.784 194.409C231.633 191.444 225.094 189.304 218.768 186.748C216.952 186.013 215.131 185.271 213.296 184.585C215.524 183.771 217.811 183.342 220.194 182.379C228.638 178.965 234.092 174.029 240.444 167.758Z" fill="#B0BEB9"/>
<path d="M191.373 180.891C197.578 184.515 199.952 184.975 207.358 185.259C208.247 185.293 209.972 185.677 211.061 185.717C212.459 185.768 215.289 186.951 216.787 187.473C223.491 189.799 230.111 192.371 236.628 195.184C235.74 196.38 233.954 197.561 232.724 198.456C227.557 202.22 220.831 205.726 214.428 206.675C212.244 206.984 210.033 207.063 207.832 206.915L207.297 206.881C204.076 203.608 200.54 200.705 197.013 197.774C193.944 195.223 190.857 192.548 187.641 190.195C189.689 186.789 190.529 184.73 191.373 180.891Z" fill="#8AA49A"/>
<path d="M240.444 167.758C242.769 168.306 245.18 169.252 247.422 169.791C252.218 170.944 255.967 171.895 260.562 173.713C257.36 177.277 252.748 180.951 249.176 184.233C245.455 187.652 241.735 191.293 237.784 194.409C231.633 191.444 225.094 189.304 218.768 186.748C216.952 186.013 215.13 185.271 213.295 184.585C215.524 183.771 217.811 183.342 220.194 182.379C228.638 178.965 234.092 174.029 240.444 167.758Z" fill="#8AA49A"/>
<path d="M279.205 217.434C281.664 219.043 284.523 220.806 286.897 222.475C284.148 221.33 281.784 219.561 279.228 218.158L279.205 217.434Z" fill="#404249"/>
<path d="M186.373 192.117C189.014 194.161 192.091 196.807 194.675 198.98C206.79 208.154 216.922 218.423 219.102 234.188C220.484 244.199 219.188 253.61 215.664 263.011C212.666 271.01 211.106 277.253 210.002 285.718C201.96 280.183 196 277.903 187.522 273.597C170.132 264.765 158.506 251.655 155.387 231.934C154.199 224.429 153.97 215.84 154.724 208.171C154.603 205.507 155.227 199.616 155.526 197.015C158.335 198.245 161.172 199.266 164.363 200.43C166.752 201.18 173.203 204.62 175.454 203.915C178.133 203.075 184.907 194.353 186.373 192.117Z" fill="#B0BEB9"/>
<path d="M186.373 192.117C189.014 194.161 192.091 196.807 194.675 198.98C194.348 200.472 194.261 201.95 193.916 203.439C192.479 209.635 190.118 213.704 186.895 219.009C185.459 219.077 183.916 219.133 182.483 218.97C180.947 216.343 179.989 213.668 178.156 210.92C178.63 212.779 180.326 216.844 181.079 218.798C174.179 218.248 160.564 212.169 154.724 208.171C154.603 205.507 155.227 199.616 155.526 197.015C158.335 198.245 161.172 199.266 164.364 200.43C166.752 201.18 173.203 204.62 175.454 203.915C178.133 203.075 184.907 194.353 186.373 192.117Z" fill="#8AA49A"/>
<path d="M31.906 200.688C42.4622 190.642 53.5865 185.96 68.0842 184.638C72.7355 184.214 77.5518 184.34 82.141 183.321C78.6935 187.362 76.9175 197.139 76.3791 202.416C76.0242 206.564 75.6668 210.494 74.7324 214.563C74.0504 217.532 72.8577 220.445 72.4327 223.434C72.1624 225.335 73.7929 226.479 75.5698 226.409C79.542 226.253 83.5863 226.309 87.5472 226.013C92.0235 225.776 97.1968 226.151 101.721 226.336C100.476 227.647 99.3397 228.932 98.1679 230.309C93.1399 236.22 86.453 242.181 79.8234 246.205C58.2861 259.844 33.2767 257.751 10.2605 249.249C14.9734 232.23 18.9164 213.346 31.906 200.688Z" fill="#8AA7A6"/>
<path d="M31.9058 200.688C42.4619 190.642 53.5863 185.96 68.0839 184.638C72.7352 184.214 77.5516 184.34 82.1407 183.321C78.6932 187.362 76.9173 197.139 76.3789 202.416C69.6302 204.56 58.2591 205.368 51.0947 204.914C47.2093 204.667 34.1704 203.301 31.9058 200.688Z" fill="#6C918F"/>
<path d="M87.5471 226.013C92.0234 225.776 97.1967 226.151 101.721 226.336C100.476 227.647 99.3396 228.932 98.1679 230.309C93.1398 236.22 86.4529 242.181 79.8233 246.205L79.4827 245.745C79.3834 241.65 85.1568 229.836 87.5471 226.013Z" fill="#6C918F"/>
<path d="M46.082 52.5504C48.7926 52.8486 51.8982 52.8416 54.6675 52.9422C69.6638 53.4863 85.8445 54.272 98.9483 62.5449C106.836 67.551 113.205 74.6178 117.368 82.9815C118.322 84.8667 119.535 87.5023 120.004 89.5605C114.344 99.582 111.323 105.493 111.377 117.262C109.779 114.912 106.73 111.363 104.905 109.183C98.0268 100.967 90.4497 93.2512 82.5724 85.992C79.0725 82.7668 75.0783 78.9114 71.3265 76.0063L70.6609 76.292C83.4149 87.9527 95.8899 99.7184 106.885 113.046C107.524 113.821 108.163 114.549 108.866 115.268C105.351 116.84 101.664 121.713 100.305 125.298C99.874 126.434 99.4482 129.534 99.1165 130.109C87.9059 121.378 77.0083 116.381 62.8226 114.575C62.3368 114.14 61.8892 113.689 61.4608 113.2C50.0214 100.131 45.7 82.4897 45.6454 65.4578C45.6316 61.1267 45.8639 56.8793 46.082 52.5504Z" fill="#8AA7A6"/>
<path d="M70.661 76.2921C68.0873 73.7852 62.5707 69.628 60.53 67.1737C63.7809 69.4376 68.2234 73.3909 71.3266 76.0063L70.661 76.2921Z" fill="#404249"/>
<path d="M247.967 106.482C252.571 104.941 257.486 103.442 262.309 102.836C283.099 100.225 301.94 111.635 319.272 121.334C317.763 123.609 316.026 125.736 314.406 127.931C301.852 144.947 287.741 162.898 265.8 167.391C256.883 169.216 251.043 168.51 242.683 165.337C245.718 161.841 256.124 151.514 257.69 147.762C256.648 146.611 254.722 145.58 253.4 144.675C247.812 140.85 242.581 136.812 236.809 133.242C234.853 132.299 232.952 131.266 230.933 130.454C226.496 128.67 221.66 127.992 217.186 126.795C220.385 124.186 223.559 121.224 226.609 118.768C233.084 113.642 240.281 109.502 247.967 106.482Z" fill="#8AA7A6"/>
<path d="M217.186 126.795C220.385 124.186 223.559 121.224 226.609 118.768C233.084 113.642 240.281 109.502 247.967 106.482C247.816 111.078 244.698 120.274 242.485 124.542C240.863 127.609 238.962 130.52 236.809 133.242C234.853 132.299 232.952 131.266 230.933 130.454C226.496 128.67 221.66 127.992 217.186 126.795Z" fill="#6C918F"/>
<path d="M306.683 122.785C307.757 122.588 310.99 122.433 311.896 122.881L311.909 122.944C311.435 122.968 310.986 123.021 310.521 122.962C307.469 123.153 304.432 123.429 301.39 123.629L301.084 123.395L301.231 123.042L306.683 122.785Z" fill="#404249"/>
<path d="M306.684 122.785C307.757 122.588 310.99 122.433 311.896 122.881L311.909 122.944C311.435 122.968 310.986 123.021 310.521 122.962C309.666 122.818 307.644 122.811 306.684 122.785Z" fill="#63646F"/>
<path d="M159.405 5.03812C159.51 5.11837 159.65 5.22048 159.733 5.3126C163.046 8.94191 166.441 12.854 169.555 16.6346C181.156 30.7185 187.869 38.6007 188.23 57.5999C178.129 67.1109 172.163 79.5419 169.354 92.9686C169.005 94.6307 168.643 96.4379 168.103 98.0345C164.733 93.3305 161.53 90.4374 156.864 87.0693C150.091 82.2227 141.814 78.8552 135.088 73.8671C133.867 72.9622 131.698 70.9516 130.195 71.158C129.089 72.1039 126.847 77.1931 125.861 78.9607C125.276 74.6559 124.946 71.4029 124.874 67.0043C124.75 56.5713 126.921 42.0235 132.959 33.2211C139.671 23.4356 151.034 13.6733 159.405 5.03812Z" fill="#8AA7A6"/>
<path d="M156.868 25.5908L156.95 25.6758C157.403 27.2339 155.051 57.9121 154.797 61.7722C154.422 67.6186 154.109 73.4689 153.854 79.3217C153.293 78.7232 153.618 72.6373 153.654 71.6146C153.926 62.1333 154.458 52.6613 155.247 43.2091L156.274 31.8962C156.457 30.0566 156.898 27.3568 156.868 25.5908Z" fill="#404249"/>
<path d="M145.841 191.913C146.243 192.188 146.297 192.631 146.239 193.075C144.532 206.17 134.144 219.391 120.999 222.349C109.257 224.989 96.8781 223.617 84.9294 223.917C81.759 223.996 78.0741 224.259 74.9825 224.067C74.2916 222.952 75.7528 219.457 76.1377 218.088C76.6096 216.373 77.0156 214.642 77.3547 212.896C78.1969 208.405 78.3267 203.751 78.9876 199.221C80.1664 191.135 83.7218 182.19 89.5579 176.345C99.4679 166.415 114.692 167.999 127.699 168.027C129.697 168.152 131.387 168.229 133.398 168.238C136.419 171.916 138.459 173.918 143.035 175.766C143.025 179.519 143.062 189.362 145.841 191.913Z" fill="#B0BEB9"/>
<path d="M127.699 168.027C129.697 168.152 131.387 168.229 133.398 168.238C136.419 171.916 138.459 173.918 143.035 175.766C143.025 179.519 143.062 189.362 145.841 191.913C145.444 191.811 145.515 191.84 145.175 191.634C140.516 188.827 136.761 185.764 133.127 181.682C134.813 180.282 137.283 178.948 138.757 177.417C136.673 178.438 134.624 179.949 132.686 181.267C129.797 177.428 127.841 172.88 127.699 168.027Z" fill="#8AA49A"/>
<path d="M138.757 177.417C137.283 178.948 134.812 180.282 133.127 181.682C124.55 188.095 115.247 194.095 106.409 200.168C104.153 201.717 101.412 203.605 99.0195 204.893C100.355 203.083 129.329 183.372 132.686 181.267C134.624 179.949 136.673 178.438 138.757 177.417Z" fill="#404249"/>
<path d="M129.145 148.941C122.886 144.609 117.477 133.976 115.411 126.857C110.64 110.42 115.853 100.937 124.013 87.1193C126.659 82.6379 128.679 78.0403 131.109 73.622C144.1 83.691 161.272 88.3205 168.794 103.514C173.169 112.351 172.707 121.511 169.578 130.665C168.659 130.76 167.739 130.877 166.824 131.014C161.622 131.803 156.943 132.912 154.224 137.877C153.558 139.092 153.222 140.9 152.678 141.64L152.325 141.636L151.795 140.959C151.505 141.236 151.658 141.187 151.389 141.218C150.691 141.268 148.465 140.404 147.417 140.311C140.535 139.697 134.2 145.122 129.145 148.941Z" fill="#B0BEB9"/>
<path d="M210.579 129.482C219.454 128.301 230.467 131.691 237.839 136.474C243.585 140.203 248.935 144.537 254.636 148.351C250.026 154.504 244.687 159.895 239.416 165.443C233.289 171.893 228.201 176.509 219.863 180.082C210.946 183.498 199.732 184.773 191.814 178.374C190.553 169.616 186.921 166.064 178.263 164.695C185.228 157.758 184.679 153.547 183.849 144.427C185.224 142.033 187.592 140.111 189.741 138.429C195.949 133.573 202.671 130.242 210.579 129.482Z" fill="#B0BEB9"/>
<path d="M220.002 227.458C225.645 230.936 229.951 232.539 235.814 234.994C239.559 236.563 244.885 245.691 246.733 249.287C247.822 251.478 249.073 255.133 249.798 257.437C253.552 269.511 252.128 278.063 250.446 290.282C249.581 296.556 248.573 303.801 248.102 310.118C237.347 307.471 226.794 304.063 216.521 299.922C203.931 294.815 196.105 287.564 188.425 276.664C192.162 278.708 196.627 280.132 200.368 282.353C202.243 283.466 204.063 284.418 205.884 285.652C207.156 286.511 210.025 289.007 211.393 288.628C212.305 287.601 212.344 284.644 212.521 283.235C212.84 280.778 213.288 278.34 213.868 275.931C214.989 271.302 217.05 265.762 218.62 261.189C218.757 260.432 218.748 260.455 219.115 259.778C220.027 256.817 220.665 253.643 221.283 250.609C222.208 243.528 222.156 234.31 220.002 227.458Z" fill="#8AA7A6"/>
<path d="M220.002 227.458C225.644 230.936 229.951 232.539 235.814 234.994C239.559 236.563 244.885 245.691 246.733 249.287C247.822 251.478 249.072 255.133 249.798 257.437C247.95 259.33 226.085 255.225 223.664 252.388C223.67 252.394 221.116 250.515 221.283 250.609C222.208 243.528 222.155 234.31 220.002 227.458Z" fill="#6C918F"/>
<path d="M218.62 261.189C219.254 262.22 219.901 263.216 220.424 264.309L220.415 264.62C220.388 265.571 220.549 266.087 220.413 267.148C219.908 271.08 219.239 274.983 218.725 278.915C218.141 283.154 217.655 287.407 217.271 291.671C217.167 292.893 216.76 299.003 216.521 299.922C203.931 294.815 196.105 287.564 188.425 276.664C192.162 278.708 196.627 280.132 200.368 282.353C202.243 283.466 204.063 284.418 205.884 285.652C207.156 286.511 210.025 289.007 211.393 288.628C212.305 287.601 212.344 284.644 212.521 283.235C212.84 280.778 213.288 278.34 213.868 275.931C214.989 271.302 217.05 265.762 218.62 261.189Z" fill="#6C918F"/>
<path d="M174.474 167.775C184.5 163.728 193.147 175.634 187.807 184.918C184.425 190.798 180.469 197.533 174.874 201.655C173.917 202.357 168.538 199.633 167.342 199.345C161.006 196.732 152.026 193.889 146.944 189.246C145.319 183.577 145.186 182.243 145.293 176.471C152.295 177.908 155.195 178.029 161.445 174.773C163.565 173.692 166.628 171.119 168.301 169.455C170.14 169.109 172.621 168.321 174.474 167.775Z" fill="#B0BEB9"/>
<path d="M168.301 169.455C170.139 169.109 172.62 168.321 174.474 167.775C173.662 169.438 172.526 171.002 171.671 172.632C170.75 174.387 169.8 177.865 168.206 178.92C166.922 179.772 161.995 176.041 161.445 174.774C163.564 173.692 166.628 171.119 168.301 169.455Z" fill="#8AA49A"/>
<path d="M171.601 132.688C178.577 131.964 180.425 137.889 181.301 143.455C182.317 149.91 183.257 156.762 178.135 161.797C175.9 163.994 174.435 164.103 171.517 164.098C172.044 159.961 172.136 157.059 170.411 153.171C168.461 149.576 165.923 152.51 164.437 154.562C163.207 152.343 160.888 149.209 157.889 149.937C156.189 150.348 155.3 151.875 154.42 153.254C154.172 148.84 154.223 141.115 157.103 137.473C160.228 133.521 166.89 133.155 171.601 132.688Z" fill="#B0BEB9"/>
<path d="M144.519 142.646C154.163 141.504 151.559 147.701 152.217 154.091C152.346 155.344 153.388 158.708 153.223 159.704C151.261 160.428 142.57 152.752 147.244 165.721C148.961 170.486 151.398 172.895 156.033 174.809C154.03 175.047 152.268 174.996 150.262 174.979C145.659 174.461 141.625 173.564 138.217 170.167C134.524 166.486 127.231 156.296 130.81 151.031C133.042 147.747 140.523 143.418 144.519 142.646Z" fill="#B0BEB9"/>
<path d="M108.866 115.268C112.767 118.769 111.483 120.61 112.707 125.256C115.082 134.271 119.415 143.288 126.56 149.474C123.94 148.04 121.095 146.639 118.595 145.069C111.708 140.74 105.42 135.284 99.1167 130.109C99.4485 129.534 99.8742 126.434 100.305 125.298C101.664 121.713 105.351 116.84 108.866 115.268Z" fill="#6C918F"/>
<path d="M158.308 151.745C161.892 152.414 163.348 156.285 164.813 159.216C165.42 157.841 166.967 153.625 168.8 154.371C169.071 154.697 169.301 155.015 169.393 155.434C170.35 159.767 170.271 162.395 168.293 166.238C167.074 168.005 165.661 169.252 164.028 170.608C162.698 165.367 161.924 164.414 156.95 162.136C154.914 158.367 155.206 154.812 158.308 151.745Z" fill="#81B3FF"/>
<path d="M147.859 160.403C151.301 161.142 157.466 164.009 160.273 166.3C161.784 167.534 162.958 170.465 161.257 172.108C154.712 175.776 149.683 169.256 148.385 163.534C148.145 162.479 148 161.473 147.859 160.403Z" fill="#81E6FF"/>
<path d="M230.734 57.886C228.685 60.7327 226.081 63.892 223.852 66.6402C217.526 74.5306 210.999 82.0423 204.894 90.135C199.779 96.9153 195.43 103.888 190.664 110.812C188.882 113.625 187.124 116.686 185.344 119.419C185.951 117.313 188.993 112.237 190.248 110.174C190.551 109.364 193.701 104.507 194.216 103.728C200.883 93.4764 208.237 83.6885 216.228 74.4323C218.044 72.2868 221.343 68.1576 223.261 66.2461C224.304 65.0202 229.806 58.3636 230.734 57.886Z" fill="#404249"/>
<path d="M28.9985 142.306C31.0326 142.452 32.6958 142.658 34.7046 142.935C48.8364 144.254 63.5189 147.73 77.312 151.094C79.6312 151.66 87.9022 153.596 89.6899 154.35C92.5737 155.024 100.677 156.964 103.185 157.932C101.122 157.834 91.8856 155.467 89.3696 154.85C88.205 154.742 83.6963 153.608 82.4351 153.318L67.5591 149.917C56.3959 147.411 45.4911 145.501 34.271 143.442C33.467 143.266 29.3463 142.63 28.9985 142.306Z" fill="#404249"/>
<path d="M75.6404 209.516C73.4791 211.121 68.6492 213.724 66.1804 215.135C59.6877 219.186 52.8555 222.877 46.197 226.676C40.1723 230.112 34.2018 233.848 28.1873 237.251L28.1775 236.636C28.9308 235.96 34.0416 232.855 35.0945 232.2C41.8549 228.014 48.7314 224.02 55.7156 220.22C58.8025 218.517 62.4952 216.368 65.5876 214.867C68.8404 213.053 72.2594 211.046 75.6404 209.516Z" fill="#404249"/>
<path d="M108.773 296.401L109.02 296.456C109.002 296.495 108.985 296.535 108.966 296.573L108.773 296.401Z" fill="#404249"/>
<path d="M109.09 296.306L109.112 296.328L109.038 296.459L109.02 296.456C109.043 296.406 109.068 296.357 109.09 296.306Z" fill="#404249"/>
<path d="M136.196 217.091L136.531 217.487C135.157 222.076 133.692 226.641 132.138 231.173C130.602 235.57 128.575 240.809 127.234 245.152C126.947 245.877 126.666 246.605 126.39 247.335C123.624 254.643 121.212 262.177 118.521 269.522C118.109 270.645 117.641 271.935 117.31 273.073C116.643 274.58 116.103 276.562 115.43 277.894C113.815 282.76 111.445 288.777 110.062 293.528C109.791 294.409 109.479 295.444 109.09 296.306L108.842 296.056C109.146 295.118 109.427 294.234 109.792 293.315C111.472 287.829 113.336 282.246 115.116 276.785C115.922 273.345 117.357 269.899 118.426 266.513C119.001 264.663 119.696 262.723 120.333 260.888C120.773 260.033 121.64 257.428 121.995 256.429C123.06 253.517 124.069 250.583 125.02 247.629C125.475 246.853 126.535 243.685 126.9 242.66L130.272 233.211C132.23 227.654 134.3 222.801 136.196 217.091Z" fill="#404249"/>
<path d="M178.155 210.92C179.988 213.668 180.947 216.343 182.482 218.969C187.833 230.371 193.377 241.746 198.29 253.338C199.37 256.052 202.433 261.906 203 264.415C202.376 263.654 198.245 254.736 197.52 253.177C196.683 252.254 192.802 243.375 192.038 241.833C188.297 234.282 184.952 226.291 181.079 218.799C180.326 216.845 178.63 212.779 178.155 210.92Z" fill="#404249"/>
<path d="M219.115 259.778C220.224 262.018 221.988 264.744 223.322 266.922C225.801 270.895 228.189 274.923 230.486 279.005C233.809 284.928 236.982 290.942 240.277 296.878C238.96 295.725 231.237 281.965 229.741 279.54C229.342 279.083 227.496 275.822 226.988 274.985C224.812 271.408 222.736 267.811 220.424 264.309C219.9 263.216 219.254 262.22 218.619 261.189C218.757 260.432 218.747 260.454 219.115 259.778Z" fill="#404249"/>
<path d="M301.231 123.042L301.085 123.395L301.389 123.629L301.137 123.685C299.977 123.93 297.226 124.173 295.919 124.356C291.722 124.911 287.539 125.591 283.384 126.397C277.188 127.629 271.032 129.066 264.932 130.707C259.872 132.056 255.025 133.556 249.901 134.869C247.786 135.58 245.459 136.35 243.293 136.838C245.282 135.858 247.565 135.14 249.67 134.409C251.035 133.894 252.538 133.48 253.902 132.936L254.477 132.693C256.531 132.114 258.908 131.285 260.954 130.62C261.762 130.456 262.753 130.161 263.553 129.923C276.013 126.225 288.304 124.174 301.231 123.042Z" fill="#404249"/>
<path d="M137.909 102.766L137.953 102.765L138.054 102.97C138.31 103.517 138.678 104.494 138.871 104.964C141.269 110.541 143.826 116.345 145.882 122.049C148.104 128.214 149.897 134.685 151.795 140.958C151.505 141.236 151.658 141.187 151.388 141.218C150.559 137.926 149.064 133.819 147.95 130.493C145.182 121.992 142.071 113.606 138.623 105.357C138.308 104.638 137.857 103.599 137.728 102.774L137.898 102.767L137.699 102.515C137.698 102.501 137.697 102.487 137.696 102.474L137.909 102.766Z" fill="#404249"/>
<path d="M137.696 102.511L137.699 102.515C137.705 102.598 137.714 102.685 137.728 102.774L137.723 102.775L137.696 102.511Z" fill="#404249"/>
<path d="M225.338 151.616C227.47 151.25 232.133 151.358 234.186 151.753C233.237 151.79 231.741 151.9 230.839 151.798C229.554 151.879 227.762 152.034 226.502 152.036C223.088 152.443 219.599 152.649 216.116 153.07C210.385 153.789 204.695 154.814 199.074 156.14C195.888 156.758 192.753 157.775 189.558 158.506C192.181 157.203 196.441 156.116 199.376 155.257C206.15 153.288 217.302 151.624 224.371 151.668L225.338 151.616Z" fill="#404249"/>
</svg>
