<svg width="399" height="412" viewBox="0 0 399 412" fill="none" xmlns="http://www.w3.org/2000/svg">
<g filter="url(#filter0_d_3094_3119)">
<path d="M172.111 141.448L172.619 141.451L173.808 141.459L174.712 142.23C176.541 143.791 178.06 145.353 178.707 147.56C179.295 149.565 179.011 151.734 178.766 153.817L178.626 155.011L177.743 155.827C175.672 157.743 173.205 158.841 170.924 159.609C168.849 160.307 166.127 160.952 164.459 161.448L164.448 161.451C159.978 162.765 155.587 164.327 151.299 166.139C141.572 170.359 131.469 175.303 122.792 181.056L122.784 181.061C119.648 183.128 116.65 185.4 113.811 187.86L113.805 187.866L113.798 187.871C113.008 188.548 112.224 189.331 111.047 190.411C109.974 191.395 108.694 192.505 107.309 193.406C105.947 194.291 104.235 195.14 102.305 195.307C100.218 195.488 98.1717 194.845 96.415 193.26L96.4141 193.259C92.5276 189.751 93.4939 184.936 94.9414 181.767C96.4428 178.48 99.0152 175.486 100.964 173.788L101.742 173.117C109.901 166.156 121.647 158.427 134.037 152.361C146.758 146.133 160.57 141.452 172.09 141.448H172.111ZM166.649 97.1841C170.072 96.8695 174.616 97.1253 177.5 100.818L177.774 101.186L178.186 101.767L178.317 102.466C178.676 104.377 179.027 106.43 178.685 108.479C178.311 110.71 177.202 112.571 175.442 114.411L174.96 114.915L174.312 115.177C172.191 116.037 169.9 116.658 167.75 117.192C165.519 117.746 163.519 118.191 161.615 118.744C136.512 126.035 112.436 139.053 95.2334 158.603C93.0059 161.135 89.705 165.529 88.5566 168.169L88.5557 168.17C88.0044 169.437 87.364 170.948 86.6514 172.305C85.9543 173.633 85.0311 175.131 83.7705 176.248C82.4022 177.459 80.4993 178.319 78.2031 177.887C76.1356 177.498 74.3148 176.155 72.6777 174.409L72.665 174.394L72.6523 174.38L72.376 174.079L71.6836 173.323L71.5488 172.306L71.3408 170.731L71.3398 170.719L71.3379 170.709C71.1598 169.283 71.0717 168.118 71.1475 166.356V166.344L71.1484 166.334L71.1699 165.899L71.1855 165.587L71.2598 165.285C74.8158 150.781 85.4006 138.095 97.8701 127.925C110.39 117.714 125.16 109.752 137.72 104.775C143.791 102.37 150.595 100.766 156.412 99.0474L156.634 98.982L156.861 98.9488C158.103 98.7662 159.521 98.4411 161.257 98.0747C162.914 97.7249 164.79 97.355 166.649 97.1841ZM172.519 54.1714L172.855 54.1792L174.137 54.2242L174.942 55.0298C176.373 55.9221 177.545 56.9552 178.328 58.3843C179.037 59.6779 179.276 61.039 179.413 62.2242L179.467 62.7202L179.468 62.732L179.469 62.7427L179.582 63.9322L179.646 64.606L179.438 65.2486C179.127 66.2042 178.598 67.6601 177.82 69.021C177.125 70.2381 175.837 72.0958 173.707 72.8345L173.703 72.8355C170.681 73.8796 167.718 74.667 164.844 75.4107C161.939 76.1622 159.146 76.8651 156.285 77.7652C128.643 86.4645 102.206 102.081 86.3926 126.318C85.2885 128.01 84.5473 129.993 83.4785 132.503C82.4874 134.832 81.222 137.571 79.1016 139.784L79.0889 139.796C77.4454 141.492 75.3666 141.453 74.1387 141.242C73.0234 141.05 71.7576 140.547 71.3281 140.401L70.1348 139.994L69.5273 138.889C69.1261 138.16 68.8126 137.674 68.5488 137.283C68.3252 136.951 67.9562 136.434 67.6709 135.942C67.4622 135.582 67.283 135.216 67.1221 134.823L66.3887 135.016C66.381 134.987 66.3535 134.886 66.3301 134.789L66.3291 134.786L66.3213 134.754L67.0283 134.584C66.6908 133.693 66.4341 132.647 66.1592 131.211L66.0615 130.701L66.1279 130.186L66.1826 129.757L66.1836 129.745L66.1855 129.732C67.5327 119.796 73.6773 111.141 79.0508 104.137V104.136C94.7086 83.7359 116.103 73.2116 138.015 63.1958L138.353 63.0406L138.718 62.9663C139.201 62.8677 140.446 62.4683 142.014 61.9234C142.748 61.6681 143.493 61.4034 144.166 61.1626C144.83 60.9252 145.443 60.7046 145.884 60.5513H145.885C148.867 59.5155 153.905 57.8893 158.973 56.5435C163.736 55.2786 168.986 54.13 172.519 54.1714ZM167.951 18.0786C171.132 17.7167 174.36 17.9969 176.565 20.3013C178.67 22.5005 178.928 25.6388 178.808 28.3951L178.807 28.4107L178.806 28.4273L178.778 28.9478L178.742 29.6206L178.442 30.2232C177.692 31.7324 176.842 33.1739 175.518 34.3452C174.165 35.5416 172.583 36.2277 170.762 36.7486C168.468 37.4043 166.151 37.8961 163.939 38.355C161.693 38.8211 159.569 39.2503 157.484 39.7954C133.123 46.1649 110.46 58.1638 93.9385 77.0757L93.9395 77.0767C91.3996 79.9865 88.3781 84.5385 86.4814 88.2085C85.8735 90.0291 84.6335 92.0256 83.2832 93.7564C81.8114 95.6429 79.9501 97.5481 78.0098 98.9068C77.0401 99.5857 75.9445 100.202 74.7832 100.574C73.6296 100.943 72.1834 101.138 70.7051 100.646C67.4371 99.5594 66.413 96.1808 66.2266 93.0445C65.8801 87.2077 68.6793 80.8438 71.8955 75.4165C75.1885 69.8598 79.2934 64.6784 82.2939 61.0679L82.3018 61.0591C82.3841 60.9608 82.4096 60.9223 82.4795 60.8228C82.5236 60.7599 82.6001 60.6517 82.6963 60.5269C82.796 60.3975 82.9041 60.2673 83.0293 60.1275L83.0303 60.1265C83.4141 59.6981 84.7081 58.4515 85.916 57.2701C87.2321 55.9828 88.6305 54.5987 89.4824 53.6704L89.8652 53.2515L90.3682 52.9878C90.2775 53.0354 90.3633 52.9968 90.7021 52.7251C90.9863 52.4973 91.3287 52.2041 91.7021 51.8745C92.3576 51.2962 93.2887 50.4406 93.7471 50.0533H93.748C99.2517 45.4043 105.227 40.8899 111.446 37.0786C113.258 35.9682 115.173 34.9764 117.009 34.0493C118.882 33.1035 120.641 32.2399 122.323 31.315L122.435 31.2534L122.551 31.2017C130.145 27.7671 135.278 25.9192 142.457 23.5855L142.465 23.5835L145.649 22.5572L145.868 22.4859L146.096 22.4468C146.55 22.3685 146.767 22.298 147.23 22.1324L147.237 22.1304L147.844 21.9146L148.021 21.8521L148.205 21.8101C154.616 20.3408 161.175 18.8497 167.951 18.0786Z" fill="#F2D8A6" stroke="#361A0D" stroke-width="6.51219"/>
<path d="M226.69 141.448L226.183 141.451L224.994 141.459L224.09 142.23C222.26 143.791 220.742 145.353 220.095 147.56C219.507 149.565 219.791 151.734 220.036 153.817L220.176 155.011L221.059 155.827C223.13 157.743 225.596 158.841 227.878 159.609C229.953 160.307 232.675 160.952 234.343 161.448L234.354 161.451C238.824 162.765 243.215 164.327 247.503 166.139C257.229 170.359 267.333 175.303 276.01 181.056L276.018 181.061C279.154 183.128 282.152 185.4 284.991 187.86L284.997 187.866L285.004 187.871C285.794 188.548 286.578 189.331 287.755 190.411C288.828 191.395 290.108 192.505 291.493 193.406C292.854 194.291 294.567 195.14 296.497 195.307C298.583 195.488 300.63 194.845 302.387 193.26L302.388 193.259C306.274 189.751 305.308 184.936 303.86 181.767C302.359 178.48 299.787 175.486 297.838 173.788L297.06 173.117C288.9 166.156 277.155 158.427 264.765 152.361C252.044 146.133 238.231 141.452 226.712 141.448H226.69ZM232.152 97.1841C228.73 96.8695 224.186 97.1253 221.302 100.818L221.027 101.186L220.616 101.767L220.484 102.466C220.126 104.377 219.774 106.43 220.117 108.479C220.49 110.71 221.599 112.571 223.359 114.411L223.842 114.915L224.489 115.177C226.611 116.037 228.902 116.658 231.052 117.192C233.283 117.746 235.282 118.191 237.187 118.744C262.29 126.035 286.366 139.053 303.568 158.603C305.796 161.135 309.097 165.529 310.245 168.169L310.246 168.17C310.797 169.437 311.438 170.948 312.15 172.305C312.847 173.633 313.771 175.131 315.031 176.248C316.4 177.459 318.302 178.319 320.599 177.887C322.666 177.498 324.487 176.155 326.124 174.409L326.137 174.394L326.149 174.38L326.426 174.079L327.118 173.323L327.253 172.306L327.461 170.731L327.462 170.719L327.464 170.709C327.642 169.283 327.73 168.118 327.654 166.356V166.344L327.653 166.334L327.632 165.899L327.616 165.587L327.542 165.285C323.986 150.781 313.401 138.095 300.932 127.925C288.411 117.714 273.642 109.752 261.082 104.775C255.01 102.37 248.207 100.766 242.39 99.0474L242.168 98.982L241.94 98.9488C240.699 98.7662 239.28 98.4411 237.545 98.0747C235.888 97.7249 234.012 97.355 232.152 97.1841ZM226.283 54.1714L225.946 54.1792L224.665 54.2242L223.859 55.0298C222.428 55.9221 221.257 56.9552 220.474 58.3843C219.765 59.6779 219.526 61.039 219.389 62.2242L219.335 62.7202L219.334 62.732L219.333 62.7427L219.22 63.9322L219.155 64.606L219.364 65.2486C219.675 66.2042 220.204 67.6601 220.981 69.021C221.677 70.2381 222.965 72.0958 225.095 72.8345L225.099 72.8355C228.12 73.8796 231.084 74.667 233.958 75.4107C236.862 76.1622 239.656 76.8651 242.517 77.7652C270.159 86.4645 296.595 102.081 312.409 126.318C313.513 128.01 314.254 129.993 315.323 132.503C316.314 134.832 317.58 137.571 319.7 139.784L319.713 139.796C321.356 141.492 323.435 141.453 324.663 141.242C325.778 141.05 327.044 140.547 327.474 140.401L328.667 139.994L329.274 138.889C329.676 138.16 329.989 137.674 330.253 137.283C330.477 136.951 330.846 136.434 331.131 135.942C331.34 135.582 331.519 135.216 331.68 134.823L332.413 135.016C332.421 134.987 332.448 134.886 332.472 134.789L332.473 134.786L332.48 134.754L331.773 134.584C332.111 133.693 332.368 132.647 332.643 131.211L332.74 130.701L332.674 130.186L332.619 129.757L332.618 129.745L332.616 129.732C331.269 119.796 325.124 111.141 319.751 104.137V104.136C304.093 83.7359 282.699 73.2116 260.787 63.1958L260.449 63.0406L260.084 62.9663C259.6 62.8677 258.356 62.4683 256.788 61.9234C256.053 61.6681 255.309 61.4034 254.636 61.1626C253.972 60.9252 253.359 60.7046 252.918 60.5513H252.917C249.935 59.5155 244.897 57.8893 239.829 56.5435C235.066 55.2786 229.816 54.13 226.283 54.1714ZM230.851 18.0786C227.67 17.7167 224.442 17.9969 222.236 20.3013C220.131 22.5005 219.873 25.6388 219.994 28.3951L219.995 28.4107L219.996 28.4273L220.023 28.9478L220.06 29.6206L220.359 30.2232C221.11 31.7324 221.96 33.1739 223.284 34.3452C224.637 35.5416 226.219 36.2277 228.04 36.7486C230.334 37.4043 232.651 37.8961 234.862 38.355C237.109 38.8211 239.232 39.2503 241.317 39.7954C265.679 46.1649 288.341 58.1638 304.863 77.0757L304.862 77.0767C307.402 79.9865 310.424 84.5385 312.32 88.2085C312.928 90.0291 314.168 92.0256 315.519 93.7564C316.99 95.6429 318.852 97.5481 320.792 98.9068C321.762 99.5857 322.857 100.202 324.019 100.574C325.172 100.943 326.618 101.138 328.097 100.646C331.365 99.5594 332.389 96.1808 332.575 93.0445C332.922 87.2077 330.122 80.8438 326.906 75.4165C323.613 69.8598 319.508 64.6784 316.508 61.0679L316.5 61.0591C316.418 60.9608 316.392 60.9223 316.322 60.8228C316.278 60.7599 316.202 60.6517 316.105 60.5269C316.006 60.3975 315.898 60.2673 315.772 60.1275L315.771 60.1265C315.388 59.6981 314.094 58.4515 312.886 57.2701C311.57 55.9828 310.171 54.5987 309.319 53.6704L308.937 53.2515L308.434 52.9878C308.524 53.0354 308.438 52.9968 308.1 52.7251C307.815 52.4973 307.473 52.2041 307.1 51.8745C306.444 51.2962 305.513 50.4406 305.055 50.0533H305.054C299.55 45.4043 293.575 40.8899 287.355 37.0786C285.543 35.9682 283.629 34.9764 281.793 34.0493C279.92 33.1035 278.16 32.2399 276.479 31.315L276.367 31.2534L276.251 31.2017C268.657 27.7671 263.524 25.9192 256.345 23.5855L256.337 23.5835L253.152 22.5572L252.934 22.4859L252.706 22.4468C252.252 22.3685 252.035 22.298 251.571 22.1324L251.564 22.1304L250.958 21.9146L250.78 21.8521L250.597 21.8101C244.186 20.3408 237.627 18.8497 230.851 18.0786Z" fill="#F2D8A6" stroke="#361A0D" stroke-width="6.51219"/>
<path d="M203 33.3323C206.447 33.3214 210.233 33.1123 213.579 32.0218L214.242 31.7913L214.273 31.7796L214.551 31.6741L214.937 31.5276L215.274 31.2884C218.831 28.7702 220.24 24.9972 220.66 21.4583C221.076 17.9549 220.576 14.3315 219.992 11.4769L219.796 10.5189L219.133 9.85675C218.605 9.29971 218.436 8.92355 217.598 7.81281C216.875 6.85433 215.835 5.67452 214.146 4.87335L214.145 4.87238C213.299 4.47217 212.179 4.30922 211.411 4.2132C210.471 4.09571 209.325 4.00572 208.074 3.93683C205.563 3.79857 202.459 3.73728 199.381 3.74445C196.301 3.75162 193.2 3.82697 190.691 3.9671C189.441 4.03696 188.302 4.12501 187.372 4.2337C186.59 4.32512 185.539 4.47028 184.755 4.7923V4.79327C181.778 6.01305 180.34 8.33481 179.399 10.3304L179.393 10.3441L179.386 10.3587L179.226 10.7064L179.031 11.1302L178.963 11.5901C178.382 15.5165 178.449 19.0554 178.598 22.7132L178.622 23.304L178.853 23.8489C179.477 25.3254 180.069 26.7343 180.704 27.9085C181.355 29.1129 182.169 30.3026 183.361 31.2513C185.81 33.1992 188.962 33.4238 192.701 33.2581H192.703C195.809 33.1185 199.018 33.345 203 33.3323ZM209.14 59.2943C211.118 59.2961 213.064 59.0171 214.872 58.1693C216.604 57.3568 218.008 56.1174 219.152 54.4993L219.378 54.1702L219.39 54.1526L219.4 54.1351L219.574 53.8665L219.918 53.3353L220.038 52.7142C220.762 48.957 220.928 45.9328 220.16 42.0423L220.156 42.0228L220.152 42.0042L220.008 41.3157L219.916 40.8782L219.709 40.4818C218.966 39.0546 218.058 37.3679 216.615 36.1253C214.996 34.7314 213.052 34.1518 210.762 34.0901C207.935 34.0125 204.844 34.1117 201.931 34.1751C198.958 34.2398 196.136 34.2677 193.615 34.0804L193.614 34.0814C188.851 33.6552 184.281 34.0105 181.256 36.8919C178.119 39.8797 177.745 44.4764 178.449 49.514C178.708 51.3697 179.263 53.6966 180.643 55.6263C182.155 57.7421 184.516 59.1637 187.71 59.1761H187.712C194.747 59.1986 202.054 59.2813 209.137 59.2943H209.14ZM188.546 87.9446C190.599 88.1311 192.958 87.9509 194.357 87.9271H194.356C200.281 87.8299 206.63 87.9414 212.859 87.3441C212.915 87.346 212.967 87.3486 213.013 87.3499L214.107 87.3821L214.998 86.7474L215.253 86.5657L215.296 86.5345C218.87 83.8975 220.389 79.9997 220.856 76.2689C221.321 72.5589 220.799 68.7114 220 65.5677L219.835 64.9202L219.429 64.389C219.178 64.0621 218.322 62.8156 217.169 62.0443L217.168 62.0452C216.534 61.6216 215.837 61.4345 215.481 61.347C215.026 61.235 214.52 61.1487 214.01 61.0784C212.982 60.937 211.703 60.8298 210.295 60.7474C207.466 60.5818 203.896 60.5026 200.312 60.4837C193.251 60.4465 185.68 60.6396 183.513 60.9271L182.174 61.1048L181.354 62.178C178.926 65.3545 178.141 68.9604 178.192 72.5218V72.5374L178.193 72.553C178.229 74.0322 178.175 76.3277 178.488 78.4085C178.816 80.5863 179.601 83.0956 181.675 85.0862C183.779 87.1064 186.354 87.7455 188.546 87.9446ZM200.458 138.936C203.184 138.964 205.949 138.89 208.424 138.635C210.824 138.388 213.249 137.943 215.115 137.076L215.549 136.875L215.906 136.557L216.215 136.284L216.229 136.271L216.244 136.257C218.165 134.508 219.248 132.792 219.808 130.709C220.272 128.98 220.357 126.871 220.542 125.045L220.594 124.538L220.488 124.041C219.999 121.732 219.537 119.779 218.916 118.271C218.253 116.659 217.262 115.191 215.528 114.286C213.992 113.485 212.259 113.352 210.747 113.31C209.349 113.271 207.022 113.32 204.855 113.289C203.824 113.275 202.679 113.253 201.461 113.231C204.228 113.195 206.932 113.11 209.234 112.968C211.759 112.813 214.193 112.576 215.598 112.15L216.51 111.873L217.128 111.149C221.352 106.203 221.493 100.534 220.234 95.1995L220.146 94.8284L219.976 94.4876C219.707 93.9523 219.136 92.8544 218.39 91.8382C218.018 91.3326 217.526 90.7392 216.92 90.2327C216.351 89.7572 215.383 89.1063 214.088 89.0003H214.087C204.534 88.2225 194.323 88.3208 184.833 88.9105L184.831 88.9114C183.498 88.9951 182.526 89.6735 181.972 90.1634C181.388 90.6794 180.933 91.2795 180.603 91.7757C179.938 92.7733 179.441 93.8645 179.199 94.4056L179.009 94.8323L178.945 95.2952C178.509 98.5149 178.484 100.814 178.553 103.693V103.701L178.586 104.94L178.6 105.473L178.783 105.974L178.994 106.548L178.999 106.561C179.274 107.303 179.714 108.438 180.312 109.454C180.613 109.966 181.019 110.563 181.555 111.092C182.084 111.614 182.905 112.233 184.034 112.466H184.035C185.956 112.862 189.581 113.09 193.628 113.19C190.551 113.239 187.523 113.395 185.036 113.778C181.956 114.251 180.467 117.049 179.806 118.882C179.042 120.999 178.718 123.557 178.771 125.992C178.823 128.417 179.254 131.034 180.258 133.212C181.243 135.35 183.122 137.709 186.291 138.06H186.292C189.478 138.412 195.004 138.88 200.458 138.936ZM201.573 166.76C206.066 166.746 211.483 165.748 215.532 163.06C217.604 161.685 219.424 159.792 220.453 157.27C221.492 154.723 221.601 151.833 220.746 148.707L220.739 148.68L220.731 148.654L220.588 148.163L220.459 147.72L220.212 147.33C217.784 143.504 215.275 141.334 211.895 140.451C210.347 140.046 208.772 139.955 207.244 139.943C205.878 139.932 203.888 139.997 202.266 140.002C197.93 140.016 192.139 139.607 187.241 140.201V140.201C183.008 140.715 180.15 142.95 178.723 146.189C177.415 149.155 177.46 152.602 177.943 155.58L178.027 156.099L178.271 156.565C180.986 161.77 185.367 163.943 189.701 165.164L188.663 166.203L196.059 166.525L201.422 166.757L201.498 166.76H201.573Z" fill="#F2D8A6" stroke="#361A0D" stroke-width="6.51219"/>
<path d="M142.929 304.751C144.008 304.558 145.246 304.461 146.54 304.744C147.874 305.035 149.115 305.694 150.24 306.779C150.691 307.213 150.893 307.705 150.981 307.95C151.085 308.238 151.144 308.516 151.18 308.739C151.252 309.188 151.271 309.66 151.265 310.073C151.258 310.492 151.223 310.939 151.153 311.349C151.119 311.553 151.07 311.789 150.995 312.028C150.935 312.222 150.797 312.62 150.504 313.01C150.345 313.221 150.236 313.45 150.194 314.277C150.171 314.74 150.174 315.219 150.162 315.945C150.152 316.604 150.127 317.373 150.053 318.256C149.925 324.889 149.926 330.47 148.749 337.373C148.497 338.852 147.548 342.212 146.715 345.197C146.283 346.742 145.867 348.239 145.547 349.466C145.216 350.733 145.048 351.497 145.016 351.758L145.012 351.835L144.971 352.549L144.559 353.133L143.534 354.587L142.808 355.617L141.548 355.646C141.457 355.648 141.385 355.651 141.304 355.654C141.242 355.656 141.116 355.662 140.99 355.66C140.676 355.655 140.043 355.611 139.399 355.169C139.166 355.008 139.002 354.841 138.935 354.772C138.876 354.712 138.791 354.619 138.776 354.603C138.716 354.538 138.629 354.447 138.473 354.306L138.068 353.943L137.852 353.444C136.791 351.002 134.421 347.821 131.48 345.001C128.705 342.338 125.722 340.287 123.271 339.443L122.788 339.291L122.526 339.219L121.639 338.977L121.119 338.218C120.944 337.962 120.667 337.514 120.505 336.938C120.335 336.337 120.25 335.432 120.724 334.502H120.723C123.445 329.147 125.439 324.25 125.396 318.678C125.368 315.187 125.432 313.455 123.949 311.311L121.933 308.397L125.354 307.475C127.241 306.967 129.455 306.714 131.514 306.537C133.684 306.35 135.591 306.25 137.308 306.056C138.129 305.964 138.963 305.758 139.911 305.499C140.798 305.257 141.882 304.938 142.929 304.751Z" fill="#D7B180" stroke="#361A0D" stroke-width="5"/>
<path d="M254.603 304.751C253.523 304.558 252.286 304.461 250.991 304.744C249.657 305.035 248.416 305.694 247.291 306.779C246.841 307.213 246.638 307.705 246.55 307.95C246.446 308.238 246.388 308.516 246.352 308.739C246.279 309.188 246.26 309.66 246.267 310.073C246.273 310.492 246.309 310.939 246.378 311.349C246.412 311.553 246.462 311.789 246.536 312.028C246.597 312.222 246.734 312.62 247.027 313.01C247.186 313.221 247.296 313.45 247.337 314.277C247.36 314.74 247.358 315.219 247.369 315.945C247.38 316.604 247.404 317.373 247.479 318.256C247.606 324.889 247.606 330.47 248.782 337.373C249.035 338.852 249.983 342.212 250.816 345.197C251.248 346.742 251.664 348.239 251.984 349.466C252.315 350.733 252.483 351.497 252.516 351.758L252.52 351.835L252.561 352.549L252.973 353.133L253.997 354.587L254.724 355.617L255.983 355.646C256.075 355.648 256.147 355.651 256.228 355.654C256.289 355.656 256.416 355.662 256.541 355.66C256.855 355.655 257.489 355.611 258.132 355.169C258.365 355.008 258.529 354.841 258.597 354.772C258.655 354.712 258.74 354.619 258.755 354.603C258.815 354.538 258.902 354.447 259.059 354.306L259.463 353.943L259.68 353.444C260.741 351.002 263.11 347.821 266.051 345.001C268.826 342.338 271.809 340.287 274.26 339.443L274.743 339.291L275.005 339.219L275.893 338.977L276.412 338.218C276.587 337.962 276.864 337.514 277.026 336.938C277.196 336.337 277.281 335.432 276.808 334.502H276.809C274.086 329.147 272.092 324.25 272.136 318.678C272.163 315.187 272.099 313.455 273.582 311.311L275.599 308.397L272.177 307.475C270.29 306.967 268.077 306.714 266.018 306.537C263.847 306.35 261.94 306.25 260.224 306.056C259.402 305.964 258.568 305.758 257.62 305.499C256.733 305.257 255.65 304.938 254.603 304.751Z" fill="#D7B180" stroke="#361A0D" stroke-width="5"/>
<path d="M208.327 156.089L208.387 156.091C214.458 156.342 220.503 157.039 226.474 158.175L226.473 158.176C227.566 158.383 228.991 158.722 230.273 159.021C231.283 159.256 232.193 159.463 232.901 159.598L233.538 159.707L233.808 159.747L234.063 159.845C242.379 163.012 246.672 165.246 253.95 170.749L254.081 170.848L254.197 170.962C255.722 172.464 257.414 174.086 258.976 175.759L259.637 176.48L259.711 176.562L259.778 176.651C260.104 177.084 260.96 178.249 261.878 179.464C262.326 180.057 262.759 180.623 263.104 181.058C263.278 181.277 263.417 181.446 263.517 181.563C263.536 181.584 263.552 181.602 263.565 181.616L263.751 181.764L263.969 182.082C266.745 186.149 268.658 190.162 270.456 193.942C272.157 197.52 273.748 200.873 275.906 204.144L276.345 204.797L276.375 204.841L276.404 204.886C276.733 205.413 277.385 206.455 278.057 207.438C278.394 207.931 278.718 208.382 278.994 208.732C279.24 209.044 279.361 209.161 279.368 209.172L279.334 209.151L279.669 209.393L279.909 209.73C282.712 213.681 284.889 216.922 286.362 220.46C287.767 223.837 288.489 227.375 288.684 231.963L288.715 232.896L288.716 232.906V232.915L288.734 233.865L288.735 233.907L288.734 233.949C288.676 237.852 288.703 241.342 288.211 245.447L287.563 250.867L283.882 246.835C282.896 245.755 282.117 244.862 281.196 244.016L281.056 243.888L280.938 243.74C278.529 240.741 274.073 236.15 271.123 233.8C269.072 232.167 266.791 230.504 264.38 228.721C261.99 226.953 259.494 225.083 257.103 223.096C252.353 219.148 247.808 214.569 245.229 209.055H245.228C244.064 206.565 243.244 203.264 242.567 200.184C242.01 197.65 241.549 195.273 241.068 193.249C241.041 193.874 241.028 194.533 241.029 195.201C241.03 197.353 241.162 199.406 241.318 200.554L241.385 200.989L241.407 201.104L241.417 201.221C242.161 209.741 245.573 217.537 252.417 222.338L252.722 222.553L252.952 222.846C253.181 223.14 253.843 223.723 254.855 224.488C255.807 225.207 256.771 225.872 257.513 226.406C262.98 230.339 268.178 233.544 273.075 239.005H273.076C274.313 240.386 276.801 243.957 279 247.088C280.137 248.706 281.232 250.26 282.13 251.482C282.58 252.094 282.966 252.603 283.274 252.986C283.45 253.204 283.571 253.344 283.644 253.426L283.727 253.519L284.009 253.755L284.211 254.062C288.263 260.229 291.664 265.097 293.253 270.29C294.914 275.714 294.581 281.303 291.94 288.986L291.935 288.999L291.687 289.707L291.619 289.904L291.519 290.085C289.355 294.025 287.44 297.165 284.948 299.819C282.419 302.51 279.403 304.59 275.159 306.622L274.404 306.984L273.583 306.818C270.891 306.272 267.725 306.343 264.374 306.113H264.363L264.351 306.112C260.886 305.841 257.443 305.334 254.046 304.598C253.836 304.957 253.599 305.403 253.346 305.928C252.794 307.077 252.318 308.286 252.056 309.03L251.966 309.283L251.825 309.513C250.784 311.198 250.159 314.086 250.05 318.022C249.944 321.869 250.336 326.366 251.021 330.98C252.391 340.209 254.886 349.596 256.595 354.589V354.59C257.103 356.075 257.7 357.333 258.309 358.585C258.896 359.794 259.553 361.109 260.006 362.488C261.005 365.526 260.963 368.689 258.964 373.053L258.884 373.23L258.777 373.392L258.453 373.879L258.454 373.88C257.668 375.072 256.661 376.901 255.426 379.145C254.218 381.342 252.831 383.863 251.349 386.285C249.873 388.698 248.253 391.096 246.558 393.032C245.022 394.787 243.188 396.442 241.104 397.181L240.684 397.317C238.943 397.821 237.394 397.252 236.366 396.712C235.538 396.277 234.691 395.656 234.136 395.254L233.97 395.198L233.57 394.82C228.784 390.292 224.338 383.379 221.456 377.307C220.642 377.523 219.842 377.707 219.074 377.782C217.44 377.943 215.93 377.665 214.074 376.906L213.804 376.797L213.567 376.628C212.719 376.023 211.099 375.252 209.253 374.601C207.404 373.948 205.692 373.544 204.716 373.49L204.48 373.477L204.251 373.419C201.697 372.783 197.926 372.914 195.094 373.484L195.093 373.483C193.806 373.743 191.699 374.208 189.692 374.802C188.686 375.099 187.745 375.418 186.963 375.745C186.14 376.09 185.664 376.375 185.46 376.547L184.652 377.229L183.599 377.123C182.803 377.044 182.041 376.85 181.407 376.671C180.665 376.462 180.257 376.323 179.673 376.17C179.247 376.058 178.95 376.006 178.745 375.985C178.634 376.258 178.524 376.575 178.421 376.906C178.299 377.298 178.198 377.671 178.127 377.948C178.092 378.085 178.065 378.196 178.047 378.271C178.039 378.307 178.033 378.335 178.029 378.353C178.027 378.362 178.025 378.368 178.024 378.371C178.024 378.373 178.024 378.374 178.024 378.374L177.929 378.799L177.695 379.168L177.694 379.169V379.17C177.693 379.171 177.693 379.172 177.692 379.173C177.69 379.176 177.688 379.179 177.685 379.183C177.68 379.191 177.672 379.204 177.662 379.22C177.641 379.252 177.611 379.299 177.573 379.359C177.495 379.479 177.382 379.654 177.237 379.876C176.946 380.32 176.527 380.955 176.006 381.721C174.967 383.251 173.517 385.321 171.883 387.465C170.255 389.601 168.412 391.854 166.585 393.731C165.372 394.978 164.034 396.198 162.673 397.079L162.802 398.093L160.314 398.402L159.678 398.481L159.672 398.433L158.666 397.814C154.981 395.544 152.3 392.191 150.098 388.797C148.993 387.093 147.977 385.327 147.014 383.641C146.04 381.934 145.126 380.32 144.179 378.818L144.157 378.781L144.135 378.745L143.871 378.292L143.799 378.168L143.741 378.037C142.721 375.718 141.046 373.711 139.161 371.288L138.441 370.363L138.692 369.217L140.268 362.023L140.333 361.727L140.467 361.455C140.631 361.122 140.904 360.356 141.24 359.271C141.558 358.241 141.884 357.084 142.164 356.073L142.636 354.363L142.639 354.35L142.643 354.336C145.965 342.79 148.025 332.145 148.004 320.293L147.997 319.143C147.946 315.281 147.994 311.925 146.628 309.311L146.344 308.767V308.56L145.534 306.153C144.589 305.446 143.359 305.128 141.744 305.092C140.274 305.059 138.801 305.251 137.2 305.457L135.55 305.659C133.773 305.86 131.545 305.988 129.625 306.154C127.595 306.329 125.762 306.555 124.336 306.939L123.512 307.16L122.723 306.831C116.884 304.394 111.87 299.321 108.538 293.52C105.206 287.72 103.363 280.856 104.276 274.622C104.73 271.525 106.067 267.961 107.829 264.341C109.606 260.687 111.889 256.828 114.352 253.108C119.262 245.693 125.019 238.634 129.183 234.678C131.703 232.284 134.326 230.379 136.864 228.676C139.482 226.919 141.794 225.51 144.131 223.851C148.609 220.671 152.395 217.085 154.858 210.812L155.1 210.173L155.114 210.138L155.128 210.103C155.921 208.193 157.007 203.779 157.571 199.275C157.85 197.049 157.987 194.904 157.917 193.125C157.91 192.959 157.899 192.799 157.889 192.645C157.729 193.338 157.585 194.023 157.401 194.798C156.128 200.161 154.88 205.428 152.467 210.755L152.38 210.948L152.261 211.124C144.381 222.782 136.073 226.888 126.133 234.722C124.694 235.857 123.269 237.406 121.609 239.189C120.022 240.893 118.232 242.795 116.25 244.286L116.25 244.287L115.771 244.654L112.767 246.948L111.832 243.285C111.767 243.033 111.48 241.88 111.221 240.859C111.088 240.331 110.957 239.823 110.855 239.436C110.805 239.248 110.765 239.099 110.736 238.995L110.61 238.734L110.572 238.268C110.365 235.713 110.44 233.618 110.406 231.315L110.405 231.252L110.407 231.189C110.526 227.814 111.156 223.866 112.605 220.553C114.087 217.164 116.268 214.061 118.413 211.186C120.614 208.235 122.735 205.573 124.432 202.783C125.779 200.571 126.985 198.289 128.194 195.949C129.392 193.631 130.606 191.23 131.92 188.892L132.425 188.01C137.734 178.879 145.992 169.353 155.697 164.331C159.407 162.412 162.586 161.249 166.143 159.746L166.285 159.687L166.432 159.645C173.332 157.684 180.027 156.326 187.361 156.102L187.406 156.1L187.452 156.101C194.39 156.141 201.328 156.137 208.266 156.089H208.327Z" fill="#F2D8A6" stroke="#361A0D" stroke-width="5"/>
<path d="M170.36 267.55C169.061 266.973 166.915 265.273 168.264 263.825C172.632 259.132 179.571 255.221 185.294 252.617C193.514 248.878 201.924 248.5 210.214 252.127C214.594 253.945 225.046 259.205 227.263 264.028C227.677 264.934 226.765 266.475 226.247 267.291L225.857 267.108C214.32 261.612 204.673 252.229 190.481 257.105C182.437 259.868 176.963 264.517 170.36 267.55Z" fill="#D7B180"/>
<path d="M184.384 279.543C184.655 277.049 184.926 276.47 186.908 274.645C192.191 269.781 200.963 268.861 207.209 272.356C209.364 273.561 211.083 275.165 213.07 276.524L213.714 278.756C213.35 278.96 212.894 279.211 212.356 279.509C207.036 279.444 202.315 276.497 196.652 277.113C192.699 277.543 187.956 280.266 184.384 279.543Z" fill="#D7B180"/>
<path d="M128.171 256.289C131.622 249.708 138.73 247.757 145.697 250.643C149.356 252.16 151.69 259.969 152.313 263.777C153.436 269.031 154.012 275.624 151.947 280.733C151.133 284.235 147.911 288.558 144.845 290.329C137.689 294.46 122.315 295.261 122.71 283.308C122.782 281.146 122.506 277.676 123.029 275.586C123.267 268.92 125.206 262.237 128.171 256.289Z" fill="#361A0D"/>
<path d="M257.395 249.545C260.528 249.497 264.966 249.421 267.199 251.921C273.269 259.203 275.538 271.281 275.844 280.493C276.173 290.487 272.728 292.763 263.767 292.767C259.717 292.585 256.099 291.782 252.58 289.285C242.261 281.969 243.583 262.527 250.024 253.14C251.766 250.6 254.439 249.882 257.395 249.545Z" fill="#361A0D"/>
<path d="M195.161 290.687C195.132 288.986 195.568 286.112 198.121 286.736C201.458 287.552 201.478 290.484 201.25 293.351C201.413 312.117 201.413 330.885 201.243 349.651C201.38 353.168 202.233 356.606 198.502 358.232C196.984 357.856 196.701 357.892 195.623 356.858C194.939 354.526 195.109 352.365 195.164 349.957C194.939 342.655 195.105 334.453 195.105 327.084L195.161 290.687Z" fill="#D7B180"/>
<path d="M97.7705 386.14C97.7901 386.139 97.8078 386.137 97.8203 386.136L97.8193 386.135C97.8907 386.129 97.9967 386.122 98.1143 386.109L98.0723 385.749C102.168 384.619 105.622 383.179 109.391 381.735L109.811 381.574L110.131 381.29C110.182 381.26 110.332 381.171 110.626 381.012C110.995 380.812 111.455 380.578 111.944 380.334C112.85 379.883 113.98 379.339 114.436 379.09C121.334 375.323 130.874 368.818 135.919 362.242L136.088 362.021L136.204 361.769C138.023 357.835 136.969 354.515 135.871 351.703L135.406 350.529C134.502 348.109 133.499 346.147 132.143 344.379C130.782 342.607 129.146 341.134 127.108 339.614L126.879 339.442L126.616 339.327C125.127 338.674 123.84 338.184 122.698 337.974C121.44 337.743 120.261 337.834 119.112 338.408C118.131 338.898 117.33 339.68 116.687 340.314C115.973 341.016 115.214 341.796 114.125 342.736C111.787 344.752 108.631 347.229 105.339 349.336C101.993 351.478 98.7309 353.088 96.1348 353.597L95.6504 353.692L95.2383 353.963C95.3201 353.909 95.2191 353.98 94.748 354.139C94.3522 354.272 93.8547 354.416 93.3135 354.56C92.2296 354.848 91.1131 355.099 90.5039 355.242L90.498 355.243C80.0063 357.717 69.0065 356.895 58.998 352.891L58.8379 352.828L58.6709 352.786L58.4746 352.73C57.9734 352.572 57.165 352.221 56.0938 351.653C54.9205 351.03 53.585 350.23 52.2568 349.368C49.7287 347.726 47.4822 346.021 46.4473 345.004L46.3936 344.897L46.0068 344.567L45.5586 344.174C43.3363 342.172 41.4114 339.634 39.6289 336.962H39.6299C33.8758 328.336 31.3508 317.167 31.6445 305.782C31.9382 294.403 35.0444 283.017 40.3066 274.071L40.3975 273.917L40.4648 273.752C41.6308 270.909 44.5733 266.489 46.5625 263.747C58.8478 246.814 76.4879 233.641 95.3506 224.436C98.213 223.039 101.574 221.678 104.646 219.877L106.225 218.952L105.818 217.166L105.747 216.855L105.451 215.553L104.204 215.076L103.931 214.982C103.285 214.783 102.593 214.724 102.021 214.705C101.309 214.682 100.507 214.717 99.6787 214.783C98.0186 214.915 96.0671 215.191 94.1445 215.512C90.2904 216.155 86.3543 217.009 84.7227 217.36L84.6865 217.368L84.6504 217.376C82.9039 217.806 81.116 218.326 79.418 218.818C77.697 219.316 76.0688 219.784 74.5488 220.142L74.3281 220.194L74.1201 220.285L73.6396 220.495C69.0907 222.466 65.0222 223.661 59.6104 226.457C35.871 238.501 17.3999 258.868 7.72656 283.668L7.72461 283.674C6.95408 285.663 6.3848 287.161 5.77441 289.308C5.59293 289.946 5.26274 291.365 4.96973 292.575C4.81602 293.209 4.66632 293.813 4.53613 294.3C4.39281 294.837 4.3177 295.059 4.31348 295.073L4.18652 295.364L4.13672 295.676C3.36308 300.537 2.57941 305.085 2.5 310.288V310.322C2.48935 316 3.07523 321.663 4.24609 327.219L4.24512 327.22C4.49914 328.45 4.81743 329.711 5.11133 330.889C5.41113 332.091 5.68572 333.207 5.8877 334.242L5.91602 334.382L5.95898 334.518L6.1582 335.148L6.16016 335.155C7.19224 338.378 8.38067 341.55 9.71973 344.66L9.75391 344.741L9.79395 344.818C12.0668 349.219 13.9073 352.82 16.9082 357.049C17.3745 357.706 18.5688 359.196 19.5957 360.489C20.1296 361.161 20.6376 361.803 21.0332 362.317C21.4994 362.922 21.6412 363.137 21.6143 363.087L21.7852 363.403L22.0381 363.658C23.4114 365.041 24.7726 366.437 26.1221 367.844L26.1729 367.898L26.2266 367.948C32.365 373.641 41.9549 380.407 50.2803 383.084C55.0216 385.385 61.5345 386.86 67.9668 387.638C74.5071 388.429 81.2259 388.533 86.3457 387.943H86.3467C90.328 387.484 93.6535 386.626 97.1309 385.995L97.2236 385.978L97.3154 385.953C97.3693 385.939 97.4229 385.924 97.4766 385.91L97.4844 386.155C97.4889 386.155 97.4937 386.155 97.5039 386.155C97.5129 386.154 97.5265 386.154 97.541 386.154C97.5702 386.153 97.6136 386.151 97.6641 386.148C97.6922 386.146 97.7164 386.144 97.7334 386.143C97.7375 386.143 97.7414 386.142 97.7451 386.142C97.7474 386.142 97.7497 386.141 97.752 386.141M97.7705 386.14H97.7686C97.7649 386.14 97.7578 386.14 97.749 386.141H97.752M97.7705 386.14C97.7645 386.14 97.7583 386.141 97.752 386.141M97.7705 386.14H97.7725C97.7695 386.14 97.7621 386.14 97.752 386.141" fill="#F2D8A6" stroke="#361A0D" stroke-width="5"/>
<path d="M134.001 360.767C135.566 357.384 134.416 354.711 133.146 351.494C131.569 352.681 130.197 355.188 128.736 356.676C125.788 359.676 122.658 362.486 119.344 365.081C103.048 377.262 79.2051 382.292 59.123 380.925C57.0645 380.784 52.6458 379.784 50.9335 380.192L51.0399 380.44L51.286 380.81C60.0578 385.14 76.3601 386.632 86.1262 385.506C91.2643 384.752 102.945 382.484 108.561 379.448C109.038 378.984 112.47 377.399 113.303 376.944C120.112 373.225 129.279 366.922 134.001 360.767Z" fill="#D7B180"/>
<path d="M300.73 386.14C300.711 386.139 300.693 386.137 300.681 386.136L300.682 386.135C300.61 386.129 300.504 386.122 300.387 386.109L300.429 385.749C296.333 384.619 292.879 383.179 289.11 381.735L288.69 381.574L288.37 381.29C288.319 381.26 288.169 381.171 287.875 381.012C287.506 380.812 287.046 380.578 286.557 380.334C285.651 379.883 284.521 379.339 284.065 379.09C277.167 375.323 267.627 368.818 262.582 362.242L262.413 362.021L262.297 361.769C260.478 357.835 261.532 354.515 262.63 351.703L263.095 350.529C263.999 348.109 265.002 346.147 266.358 344.379C267.719 342.607 269.355 341.134 271.393 339.614L271.622 339.442L271.885 339.327C273.374 338.674 274.661 338.184 275.803 337.974C277.061 337.743 278.24 337.834 279.389 338.408C280.37 338.898 281.171 339.68 281.814 340.314C282.528 341.016 283.287 341.796 284.376 342.736C286.714 344.752 289.87 347.229 293.162 349.336C296.508 351.478 299.77 353.088 302.366 353.597L302.851 353.692L303.263 353.963C303.181 353.909 303.282 353.98 303.753 354.139C304.149 354.272 304.646 354.416 305.188 354.56C306.271 354.848 307.388 355.099 307.997 355.242L308.003 355.243C318.495 357.717 329.494 356.895 339.503 352.891L339.663 352.828L339.83 352.786L340.026 352.73C340.528 352.572 341.336 352.221 342.407 351.653C343.58 351.03 344.916 350.23 346.244 349.368C348.772 347.726 351.019 346.021 352.054 345.004L352.107 344.897L352.494 344.567L352.942 344.174C355.165 342.172 357.09 339.634 358.872 336.962H358.871C364.625 328.336 367.15 317.167 366.856 305.782C366.563 294.403 363.457 283.017 358.194 274.071L358.104 273.917L358.036 273.752C356.87 270.909 353.928 266.489 351.938 263.747C339.653 246.814 322.013 233.641 303.15 224.436C300.288 223.039 296.927 221.678 293.855 219.877L292.276 218.952L292.683 217.166L292.754 216.855L293.05 215.553L294.297 215.076L294.57 214.982C295.216 214.783 295.908 214.724 296.48 214.705C297.192 214.682 297.994 214.717 298.822 214.783C300.482 214.915 302.434 215.191 304.356 215.512C308.211 216.155 312.147 217.009 313.778 217.36L313.814 217.368L313.851 217.376C315.597 217.806 317.385 218.326 319.083 218.818C320.804 219.316 322.432 219.784 323.952 220.142L324.173 220.194L324.381 220.285L324.861 220.495C329.41 222.466 333.479 223.661 338.891 226.457C362.63 238.501 381.101 258.868 390.774 283.668L390.776 283.674C391.547 285.663 392.116 287.161 392.727 289.308C392.908 289.946 393.238 291.365 393.531 292.575C393.685 293.209 393.835 293.813 393.965 294.3C394.108 294.837 394.183 295.059 394.188 295.073L394.314 295.364L394.364 295.676C395.138 300.537 395.922 305.085 396.001 310.288V310.322C396.012 316 395.426 321.663 394.255 327.219L394.256 327.22C394.002 328.45 393.684 329.711 393.39 330.889C393.09 332.091 392.815 333.207 392.613 334.242L392.585 334.382L392.542 334.518L392.343 335.148L392.341 335.155C391.309 338.378 390.12 341.55 388.781 344.66L388.747 344.741L388.707 344.818C386.434 349.219 384.594 352.82 381.593 357.049C381.126 357.706 379.932 359.196 378.905 360.489C378.371 361.161 377.863 361.803 377.468 362.317C377.002 362.922 376.86 363.137 376.887 363.087L376.716 363.403L376.463 363.658C375.09 365.041 373.728 366.437 372.379 367.844L372.328 367.898L372.274 367.948C366.136 373.641 356.546 380.407 348.221 383.084C343.479 385.385 336.966 386.86 330.534 387.638C323.994 388.429 317.275 388.533 312.155 387.943H312.154C308.173 387.484 304.847 386.626 301.37 385.995L301.277 385.978L301.186 385.953C301.132 385.939 301.078 385.924 301.024 385.91L301.017 386.155C301.012 386.155 301.007 386.155 300.997 386.155C300.988 386.154 300.975 386.154 300.96 386.154C300.931 386.153 300.887 386.151 300.837 386.148C300.809 386.146 300.785 386.144 300.768 386.143C300.763 386.143 300.76 386.142 300.756 386.142C300.754 386.142 300.751 386.141 300.749 386.141M300.73 386.14H300.732C300.736 386.14 300.743 386.14 300.752 386.141H300.749M300.73 386.14C300.736 386.14 300.743 386.141 300.749 386.141M300.73 386.14H300.729C300.731 386.14 300.739 386.14 300.749 386.141" fill="#F2D8A6" stroke="#361A0D" stroke-width="5"/>
<path d="M264.5 360.767C262.935 357.384 264.085 354.711 265.355 351.494C266.932 352.681 268.304 355.188 269.765 356.676C272.713 359.676 275.843 362.486 279.157 365.081C295.453 377.262 319.296 382.292 339.378 380.925C341.436 380.784 345.855 379.784 347.567 380.192L347.461 380.44L347.215 380.81C338.443 385.14 322.141 386.632 312.375 385.506C307.237 384.752 295.556 382.484 289.94 379.448C289.463 378.984 286.031 377.399 285.198 376.944C278.389 373.225 269.222 366.922 264.5 360.767Z" fill="#D7B180"/>
</g>
<defs>
<filter id="filter0_d_3094_3119" x="0" y="0" width="398.501" height="411.236" filterUnits="userSpaceOnUse" color-interpolation-filters="sRGB">
<feFlood flood-opacity="0" result="BackgroundImageFix"/>
<feColorMatrix in="SourceAlpha" type="matrix" values="0 0 0 0 0 0 0 0 0 0 0 0 0 0 0 0 0 0 127 0" result="hardAlpha"/>
<feOffset dy="10"/>
<feComposite in2="hardAlpha" operator="out"/>
<feColorMatrix type="matrix" values="0 0 0 0 0.772549 0 0 0 0 0.627451 0 0 0 0 0.384314 0 0 0 1 0"/>
<feBlend mode="normal" in2="BackgroundImageFix" result="effect1_dropShadow_3094_3119"/>
<feBlend mode="normal" in="SourceGraphic" in2="effect1_dropShadow_3094_3119" result="shape"/>
</filter>
</defs>
</svg>
