<svg width="808" height="797" viewBox="0 0 808 797" fill="none" xmlns="http://www.w3.org/2000/svg">
<path opacity="0.85" d="M426.22 3.43457C436.557 4.20913 447.293 9.18283 454.903 15.9805C460.664 21.1254 465.051 28.709 468.447 37.3779C471.854 46.0767 474.339 56.0668 476.185 66.2227C479.876 86.5291 481.065 107.81 481.829 121.324L481.868 122.018L481.553 122.637C479.27 127.12 476.69 131.451 473.443 135.479L473.444 135.479C472.272 136.935 470.975 138.377 469.685 139.791C468.379 141.222 467.087 142.616 465.848 144.051C463.36 146.931 461.285 149.75 460.123 152.7C459.956 153.126 459.865 153.43 459.819 153.662C460.388 153.751 461.14 153.808 462.095 153.799C463.804 153.782 465.831 153.57 467.964 153.255C470.087 152.942 472.249 152.538 474.222 152.156C476.16 151.782 477.983 151.415 479.309 151.205L482.889 150.638L482.242 154.205C479.844 167.43 477.616 180.926 474.617 194.16L474.618 194.161C467.856 225.061 456.676 254.825 441.422 282.535L441.416 282.547C432.425 298.684 421.965 314.036 411.981 329.342L411.217 330.513L409.819 330.509C405.566 330.497 401.407 330.664 397.158 330.993L395.92 331.089L395.076 330.18C391.772 326.626 388.997 322.601 386.317 318.928L386.307 318.916L386.298 318.903C374.093 301.744 361.168 281.688 352.107 262.457C339.005 234.653 330.543 200.639 328.59 170.002C327.434 151.87 328.375 133.6 328.423 115.734L328.433 112.256L331.756 113.284C334.637 114.175 338.934 115.696 343.361 116.877C345.548 117.46 347.67 117.932 349.536 118.178C351.048 118.377 352.244 118.403 353.117 118.297C353.124 118.259 353.134 118.216 353.141 118.167V118.044C353.127 117.851 353.053 117.44 352.754 116.748C352.378 115.878 351.756 114.811 350.894 113.566C349.172 111.08 346.707 108.182 343.994 105.175C341.248 102.13 338.469 99.207 335.911 96.4053C333.458 93.7173 331.226 91.1603 329.992 89.2148L329.987 89.2041L329.662 88.6875L329.236 88.0088L329.272 87.207C329.678 78.0191 332.974 68.3574 336.768 60.3828C348.198 36.3609 367.388 17.6896 392.891 8.80762C397.955 7.04394 402.277 6.21438 406.655 6.50098C410.254 6.73669 413.744 7.71803 417.575 9.35352C417.878 8.65975 418.227 7.94895 418.636 7.31543L418.64 7.30859C420.501 4.4442 423.738 3.88991 425.449 3.49414L425.829 3.40527L426.22 3.43457Z" fill="#73923D" stroke="#445C1B" stroke-width="5.1449"/>
<path d="M406.816 28.3062C407.622 28.557 407.725 28.6106 408.356 29.2481C409.363 33.7872 407.395 60.0691 407.237 67.0438C406.919 80.7713 406.032 94.4679 405.637 108.188C404.746 140.736 404.162 173.29 403.888 205.849C403.978 229.457 403.841 253.066 403.476 276.671C403.344 286.921 403.914 297.736 402.923 307.928L402.044 308.448C399.909 299.676 400.317 289.445 400.119 280.425C399.772 265.106 399.631 249.784 399.686 234.462C399.545 189.433 400.218 144.405 401.697 99.4001C402.353 81.6755 403.121 63.9822 404.814 46.321C405.389 40.3371 405.757 34.2254 406.816 28.3062Z" fill="#5B6B2C"/>
<path opacity="0.85" d="M456.601 396.126C480.536 395.521 505.234 395.755 529.125 399.352L531.071 399.655C571.928 406.207 612.088 425.234 644.575 450.358L644.576 450.359C650.73 455.123 658.346 460.49 663.384 467.322L664.848 469.308L662.925 470.854C660.224 473.024 657.221 474.755 654.582 476.393C652.935 477.415 651.391 478.423 649.976 479.532C653.261 481.034 656.607 481.767 660.676 482.331H660.675C664.304 482.832 668.656 483.225 672.625 484.707H672.626C677.544 486.541 682.311 490.415 686.499 494.482C690.712 498.574 694.624 503.155 697.677 506.545C726.501 538.543 740.404 575.756 738.007 618.977V618.979C737.833 622.077 737.557 626.322 736.641 630.366C735.771 634.209 734.227 638.331 731.213 641.04L730.916 641.297C725.348 645.981 716.959 647.686 708.905 648.22C700.743 648.762 692.329 648.129 686.313 647.678L686.249 647.672C679.781 647.022 671.98 646.543 665.311 643.937H665.31C661.996 642.641 659.215 640.603 657.059 637.677L657.057 637.674C654.704 634.468 653.331 630.461 652.056 627.436L652.055 627.433C649.344 620.981 646.404 614.556 642.26 609.336C641.173 611.379 640.588 613.842 640.253 616.652C640.015 618.643 639.913 620.702 639.809 622.824C639.707 624.908 639.602 627.072 639.345 629.108L638.874 632.852L635.561 631.044C621.847 623.56 608.137 616.018 595.402 606.502C587.691 600.745 580.565 594.371 573.455 588.166L570.407 585.519C569.315 584.577 568.095 583.611 566.785 582.577C565.491 581.555 564.115 580.47 562.785 579.34C560.152 577.104 557.489 574.521 555.767 571.516L555.766 571.515C555.082 570.32 554.44 568.38 553.862 566.355C553.258 564.241 552.647 561.739 552.075 559.234C550.933 554.23 549.917 549.053 549.435 546.74V546.739C548.555 542.538 547.322 536.227 545.683 530.14C544.666 526.362 543.537 522.864 542.326 520.079C541.485 523.608 540.869 527.508 540.35 531.542C539.562 537.67 538.977 544.315 538.126 549.759L537.338 554.802L533.753 551.168C528.01 545.347 521.679 539.619 516.128 533.16V533.159C495.718 509.42 479.062 479.633 465.624 451.708L464.431 449.21C458.521 436.732 453.332 424.383 447.113 412.235L446.377 410.796L447.353 409.508C450.138 405.835 452.169 401.882 454.371 397.536L455.065 396.165L456.601 396.126Z" fill="#73923D" stroke="#445C1B" stroke-width="5.1449"/>
<path d="M472.328 417.095C474.21 417.266 476.354 418.325 478.086 419.08C492.933 425.524 508.248 436.118 521.839 445.036C584.11 485.762 639.859 535.68 687.192 593.093C693.207 600.309 707.849 616.683 711.064 624.799C710.43 624.769 709.988 624.687 709.409 624.396C707.741 623.555 663.611 571.317 657.66 565.002C633.265 539.033 607.159 514.728 579.526 492.236C565.138 480.733 550.102 470.091 535.096 459.412C521.423 449.696 507.489 440.358 493.306 431.406C487.351 427.607 481.044 424.268 475.243 420.237C473.94 419.333 472.894 418.634 472.328 417.095Z" fill="#5B6B2C"/>
<path opacity="0.85" d="M318.266 395.855C329.86 394.695 342.387 395.814 353.633 396.582L355.334 396.698L355.89 398.309C357.423 402.757 359.463 406.915 361.692 411.249L362.326 412.481L361.646 413.688C355.537 424.534 349.979 435.689 344.378 446.907C338.786 458.104 333.152 469.363 326.928 480.307C316.345 499.124 304.332 517.1 290.998 534.08L290.993 534.087L290.988 534.092C280.398 547.4 268.688 560.033 257.442 572.58L255.452 574.801L253.548 572.505C250.748 569.131 248.359 565.28 246.081 562.083C244.454 559.799 242.791 557.702 240.856 555.879C240.116 558.556 239.581 561.236 239.291 564.013C239.12 565.654 239.072 567.519 239.043 569.58C239.014 571.603 239.003 573.816 238.893 575.997C238.677 580.291 238.064 584.999 235.778 588.713C233.878 591.803 230.895 594.429 227.95 596.657C226.457 597.786 224.92 598.852 223.468 599.846C221.998 600.853 220.64 601.772 219.424 602.656C213.507 606.96 205.187 613.127 196.59 618.685C188.052 624.205 178.964 629.31 171.512 631.325L169.06 631.988L168.366 629.545C167.559 626.702 166.739 623.73 166.223 620.648L166.124 620.031C165.746 617.567 165.634 614.214 165.388 611.608C165.213 609.758 164.965 608.124 164.576 606.766C161.947 608.9 160.077 612.528 158.449 617.088C157.488 619.781 156.688 622.554 155.82 625.337C154.973 628.051 154.062 630.773 152.918 633.071C149.678 639.582 144.271 641.94 138.655 643.929L138.656 643.93C134.689 645.366 129.964 646.115 126.201 646.838H126.2C121.195 647.798 112.317 649.119 103.594 649.438C99.2336 649.598 94.8398 649.511 90.954 648.979C87.1363 648.456 83.494 647.465 80.8906 645.593C77.65 643.264 75.6555 639.534 74.3671 635.913C73.2245 632.701 72.5439 629.306 72.0986 626.453L71.9218 625.265C71.0017 618.82 70.9658 612.168 71.166 605.832L71.2353 604.054C72.9679 566.825 91.9574 536.193 114.241 508.32L116.656 505.284C122.557 497.856 130.227 488.326 137.566 483.051C140.511 480.935 143.884 479.091 147.297 477.79L147.299 477.789C148.563 477.308 150.688 476.685 153.033 476.008C155.436 475.315 158.181 474.533 160.837 473.706C163.504 472.875 166 472.023 167.911 471.201C168.87 470.788 169.611 470.412 170.129 470.086C170.268 469.998 170.375 469.923 170.455 469.863C169.056 468.837 167.106 468.111 164.666 467.421C162.039 466.677 158.646 465.936 155.991 464.696L155.98 464.692L155.971 464.686L155.37 464.399L152.298 462.93L154.551 460.377L155.205 459.635L155.209 459.63C166.978 446.357 182.593 435.299 197.862 426.874L197.863 426.873C238.523 404.447 272.42 398.621 318.266 395.855Z" fill="#73923D" stroke="#445C1B" stroke-width="5.1449"/>
<path d="M336.472 416.211L338.259 416.314L338.662 416.82C336.835 420.267 318.887 430.399 314.611 433.082C296.116 444.929 278.125 457.538 260.683 470.885C221.784 500.759 181.888 536.401 148.002 571.948C129.813 591.031 113.035 611.31 95.1004 630.587C94.3339 631.127 94.7772 630.985 93.7452 630.921L93.3207 629.943C93.4142 629.425 93.5038 628.992 93.7302 628.516C95.0284 625.776 106.637 612.665 109.382 609.312C134.054 579.15 161.843 551.449 190.423 525.013C227.983 490.277 267.554 457.058 311.452 430.566C318.657 426.218 328.878 418.925 336.472 416.211Z" fill="#5B6B2C"/>
<path opacity="0.8" d="M599.487 49.4185C611.622 48.6828 624.894 49.9136 636.708 52.7154C639.486 53.3737 643.447 54.0578 646.909 55.2632C650.427 56.4878 654.09 58.4451 656.227 62.0943C660.162 68.8126 664.019 80.8066 666.411 92.7486C667.615 98.7585 668.467 104.846 668.767 110.36C669.064 115.829 668.829 120.917 667.745 124.835C666.896 127.907 664.539 130.169 661.927 131.876C659.282 133.603 656.016 134.992 652.755 136.185C649.505 137.374 646.024 138.447 643.065 139.436C641.82 139.852 640.672 140.254 639.636 140.646C641.605 141.205 644.924 141.744 648.688 142.253C652.905 142.824 657.547 143.345 660.333 143.824L663.637 144.391L662.234 147.436C657.024 158.748 649.188 169.526 642.483 179.659L641.157 181.676C636.111 189.428 630.873 199.016 624.258 206.263L623.773 206.794L623.083 206.997C620.495 207.758 617.843 208.25 615.305 208.694C613.047 209.089 610.897 209.443 608.807 209.913L607.914 210.122C601.94 211.579 593.799 214.148 585.903 217.264C577.969 220.397 570.485 224.004 565.701 227.491L565.7 227.492C564.103 228.655 563.454 229.268 563.06 229.876C562.684 230.453 562.399 231.246 562.094 233.092L560.577 242.253L557.163 233.619C556.683 232.405 556.406 231.537 555.959 230.534C555.702 229.957 555.445 229.478 555.173 229.085C555.124 229.095 555.065 229.105 554.997 229.122L554.995 229.123C551.219 230.052 547.15 232.11 543.075 234.658C539.015 237.197 535.12 240.11 531.637 242.67L531.638 242.671C501.367 264.923 472.097 294.206 453.012 326.527L452.999 326.548L452.985 326.57C449.599 332.059 446.701 337.706 443.953 343.606L442.509 346.709L439.931 344.459C432.312 337.811 423.821 334.912 414.016 330.787L411.102 329.56L412.895 326.957C427.202 306.181 441.436 284.342 452.037 261.647C464.132 235.755 473.021 203.877 478.092 175.685L478.325 174.45C478.586 173.117 478.922 171.509 479.282 169.78C479.767 167.454 480.302 164.872 480.782 162.315C481.263 159.754 481.683 157.253 481.941 155.089C482.091 153.831 482.174 152.755 482.198 151.882C481.764 151.846 481.247 151.835 480.647 151.853C479.037 151.901 477.077 152.147 474.985 152.487C472.901 152.826 470.791 153.238 468.852 153.601C466.975 153.952 465.166 154.276 463.862 154.379H463.855L463.848 154.38L463.261 154.423L458.26 154.793L460.877 150.515C462.845 147.3 465.334 144.335 467.828 141.555C470.384 138.707 472.848 136.152 475.086 133.47C494.25 110.499 517.293 81.6795 542.573 64.5953L545.504 62.6148L546.485 66.0123C548.029 71.3568 549.814 77.0968 552.265 81.8306L552.764 82.7642L552.765 82.7652C553.258 83.658 553.56 84.1582 553.888 84.5201C553.917 84.5525 553.947 84.5835 553.978 84.6138C554.054 84.4889 554.148 84.3145 554.263 84.063C555.207 81.9833 555.498 79.6682 556.166 76.7877C557.614 70.5037 559.363 62.8418 563.306 56.8443L563.31 56.8375L563.315 56.8306C563.373 56.7426 563.62 56.3822 563.633 56.3629L564.035 55.7652L564.689 55.4634C575.051 50.6738 588.944 50.1718 599.459 49.4205L599.474 49.4195L599.487 49.4185Z" fill="url(#paint0_linear_2947_6830)" stroke="#32411A" stroke-width="5.1449"/>
<path opacity="0.8" d="M197.468 50.7834C201.746 50.31 209.993 50.3878 217.907 51.0872C221.907 51.4406 225.899 51.9596 229.325 52.6682C232.649 53.356 235.782 54.2868 237.8 55.6282C238.823 56.3079 239.761 57.3912 240.581 58.4934C241.441 59.6478 242.338 61.054 243.246 62.5833C245.058 65.6375 247.032 69.3923 248.954 73.01C250.897 76.67 252.787 80.1895 254.493 82.9143C255.346 84.2778 256.112 85.375 256.776 86.1653C257.226 86.7006 257.54 86.9804 257.713 87.1184C257.976 86.5285 258.269 85.6785 258.559 84.5393C259.002 82.7979 259.367 80.6891 259.668 78.4709C260.273 74.0259 260.589 69.4216 260.819 66.8108L261.238 62.0452L264.982 65.0217C284.815 80.7918 300.52 99.6372 315.588 119.504C318.956 123.944 323.206 128.766 326.436 133.896L327.068 134.926L327.4 135.482L327.429 136.129C327.937 147.451 327.726 158.14 328.639 169.185C331.32 201.63 338.492 234.694 352.876 263.867C363.712 285.845 379.447 308.225 393.833 328.415L395.824 331.208L392.584 332.337C383.369 335.548 376.655 340.175 368.683 346.257L366.699 347.771L365.125 345.833C361.082 340.852 357.396 335.557 353.737 330.478L353.732 330.471L353.728 330.465C349.623 324.698 345.738 318.777 341.874 312.921C338.001 307.05 334.145 301.238 330.054 295.613C304.414 260.354 273.024 233.849 232.066 218.388L232.057 218.385C223.172 214.996 214.128 212.037 204.957 209.518L204.948 209.515C202.83 208.925 200.672 208.458 198.388 207.932C196.142 207.414 193.809 206.844 191.527 206.069C190.47 205.709 189.577 205.284 188.737 204.69C187.918 204.11 187.24 203.432 186.565 202.693C181.85 197.526 177.981 190.969 174.222 185.694C167.727 176.576 159.228 166.636 154.086 156.002L152.664 153.062L155.857 152.368C157.918 151.921 159.974 151.701 161.886 151.519C163.844 151.332 165.613 151.187 167.328 150.902C169.696 150.507 171.777 149.87 173.613 148.603C172.48 147.864 171.285 147.191 170.028 146.537C168.93 145.967 167.813 145.422 166.651 144.853C165.5 144.289 164.309 143.704 163.123 143.074C159.009 140.89 154.836 138.195 151.203 135.193C144.575 129.716 142.454 122.669 141.75 114.991V114.99C140.17 97.7266 144.959 77.6981 156.37 64.0237C163.637 55.3142 172.42 54.0097 181.95 52.6477C187.081 51.9143 192.244 51.2322 197.468 50.7834Z" fill="url(#paint1_linear_2947_6830)" stroke="#32411A" stroke-width="5.1449"/>
<path opacity="0.8" d="M613.036 335.867C617.577 337.338 621.515 340.012 625.102 342.467C628.797 344.996 632.126 347.294 635.82 348.613C637.396 349.176 639.988 349.403 643.407 349.259C646.75 349.117 650.606 348.635 654.536 347.98C662.393 346.671 670.343 344.703 674.707 343.536C677.506 342.787 680.244 341.879 683.263 340.985C686.203 340.115 689.279 339.303 692.387 338.888C695.263 338.505 698.335 339.238 700.975 340.058C702.325 340.478 703.668 340.958 704.889 341.386C706.137 341.825 707.253 342.208 708.259 342.488C731.125 348.846 754.448 355.2 773.976 370.6L775.77 372.014L774.577 373.963C771.88 378.369 769.268 381.541 765.594 384.325C780.051 390.11 794.691 398.853 801.628 414.287H801.629C806.262 424.603 806.526 437.085 802.481 447.59C796.384 463.431 785.756 474.915 770.337 481.873L769.451 482.272L768.522 481.987C765.662 481.107 762.788 480.095 759.984 478.72L759.981 478.719C758.735 478.107 757.122 477.174 755.435 476.201C753.71 475.206 751.842 474.129 749.975 473.147C748.1 472.161 746.298 471.311 744.716 470.752C743.501 470.322 742.593 470.132 741.967 470.094C741.746 470.357 741.624 470.706 741.589 471.253C741.526 472.235 741.777 473.548 742.262 475.256C742.687 476.754 743.387 478.837 743.798 480.521C744.217 482.24 744.568 484.345 744.018 486.274L743.841 486.891L743.396 487.354C741.742 489.07 740.007 489.615 738.265 490.023L738.266 490.024C731.776 491.552 720.335 492.072 709.166 491.761C698.011 491.452 686.587 490.299 680.164 488.26V488.261C678.23 487.649 676.47 486.495 675.16 485.67C668.937 483.279 662.093 482.556 654.994 481.371L648.901 480.353L653.915 476.745C655.208 475.815 656.547 475.003 657.83 474.25C659.144 473.479 660.356 472.793 661.555 472.039C663.216 470.988 664.185 470.138 664.608 469.135C664.416 468.667 664.036 468.087 663.396 467.38C662.514 466.405 661.559 465.611 660.515 464.629C643.317 448.525 623.854 435.027 602.749 424.561L602.738 424.556L602.728 424.551C553.224 399.438 513.492 394.901 458.271 396.574L455.272 396.665L455.64 393.687C456.656 385.454 456.794 378.518 455.604 370.351L455.197 367.562L458.012 367.412C477.914 366.346 497.781 366.2 517.545 365.925C537.333 365.649 557.036 365.243 576.728 363.667C587.421 362.811 598.087 362.566 607.956 359.84C610.367 359.173 611.425 358.633 612.166 357.224C613.235 355.19 613.283 352.304 612.619 348.843C611.965 345.431 610.747 342.033 609.797 339.109L608.239 334.313L613.036 335.867Z" fill="url(#paint2_linear_2947_6830)" stroke="#32411A" stroke-width="5.1449"/>
<path opacity="0.8" d="M447.726 413.528C448.367 413.943 448.868 414.525 449.227 415.003C449.616 415.519 449.991 416.117 450.344 416.735C451.049 417.974 451.765 419.471 452.425 420.948C453.089 422.434 453.721 423.954 454.255 425.251C454.802 426.58 455.221 427.616 455.497 428.23C473.923 469.267 494.26 510.843 526.005 542.66L526.602 543.275C527.212 543.918 527.855 544.635 528.494 545.346C529.366 546.316 530.258 547.306 531.171 548.24C532.972 550.084 534.532 551.359 535.761 551.855L536.002 551.944L536.005 551.945C536.22 552.017 536.419 552.042 536.561 552.037C536.583 552.036 536.601 552.031 536.616 552.029C536.667 551.955 536.755 551.82 536.866 551.591C537.111 551.085 537.372 550.358 537.633 549.41C538.153 547.52 538.59 545.067 538.955 542.446C539.692 537.15 540.065 531.768 540.334 529.336L545.323 528.783C548.511 538.076 550.244 548.039 552.094 557.345V557.346C552.837 561.086 553.266 564.522 554.239 567.755L554.441 568.399L554.442 568.401C554.595 568.868 555.004 569.644 555.786 570.744C556.543 571.808 557.55 573.039 558.761 574.395C561.182 577.107 564.305 580.197 567.595 583.275C574.168 589.426 581.263 595.396 584.386 597.955H584.385C586.966 600.07 589.624 602.06 592.346 604.153C594.706 605.969 597.091 607.843 599.389 609.86L600.368 610.734L600.9 611.217L601.105 611.905C610.689 644.081 616.798 667.288 610.847 701.694C609.347 710.359 606.221 720.969 601.587 730.739C596.974 740.463 590.737 749.633 582.868 755.1C575.535 760.196 568.911 759.881 561.258 758.454L561.166 758.436L561.076 758.413C554.934 756.8 547.741 754.487 540.973 751.343C534.234 748.211 527.743 744.176 523.168 739.037L522.739 738.556L522.588 737.929C521.754 734.469 521.528 729.954 521.165 726.079C520.779 721.966 520.242 718.521 519.048 716.262C518.743 716.457 518.387 716.733 517.983 717.117C517.163 717.897 516.315 718.951 515.461 720.171C514.614 721.381 513.81 722.683 513.06 723.932C512.335 725.142 511.617 726.379 511.022 727.3L509.119 730.249L506.88 727.545C497.193 715.844 489.202 702.54 482.329 689.19C480.643 685.915 479.15 682.429 477.671 679.28C476.752 677.325 475.811 675.439 474.77 673.636L473.027 676.566L470.694 673.878C465.697 668.118 460.799 661.25 457.186 654.463L454.144 648.747L460.279 650.816C466.248 652.83 471.922 654.81 477.785 655.747C479.464 641.888 480.789 627.786 480.676 613.951V613.949C480.634 608.403 480.117 602.853 479.722 597.134C476.88 556.031 466.407 516.159 445.878 480.401C436.709 464.434 425.67 449.87 414.197 435.291L411.762 432.196L415.574 431.21C427.498 428.123 435.211 422.205 444.611 413.773L446.075 412.461L447.726 413.528Z" fill="url(#paint3_linear_2947_6830)" stroke="#32411A" stroke-width="5.1449"/>
<path opacity="0.8" d="M165.093 335.133L165.388 335.448L166.052 336.157L166.081 337.129C166.141 339.115 165.772 341.108 165.378 342.876C164.957 344.763 164.54 346.281 164.288 347.828C163.978 349.732 164.158 351.199 164.806 352.017C165.298 352.639 166.163 353.326 167.443 354.036C168.7 354.733 170.209 355.372 171.841 355.963C175.219 357.186 178.503 358.005 181.148 358.85V358.851C208.319 367.53 234.508 370.011 263.081 369.994C269.686 369.99 276.134 370.154 282.573 369.883C287.299 369.684 292.025 369.383 296.788 369.089C301.541 368.796 306.328 368.509 311.124 368.344C318.665 368.084 326.272 368.214 333.699 368.217C339.606 368.219 345.83 368.054 351.938 368.492L354.631 368.686L354.309 371.365C353.353 379.313 353.629 386.19 354.806 394.146L355.283 397.368L352.037 397.084C320.285 394.309 275.54 398.066 244.979 407.215C233.441 410.672 222.259 415.452 211.088 420.366L211.089 420.367C193.885 427.938 173.776 441.536 160.319 454.604H160.318C158.901 455.979 157.485 457.26 156.199 458.696C154.926 460.118 153.994 461.47 153.531 462.794L153.53 462.793C153.434 463.069 153.368 463.399 153.359 463.676C153.356 463.778 153.363 463.851 153.369 463.895C153.694 464.334 154.575 464.895 156.319 465.401C158.094 465.917 159.795 466.139 161.452 466.49H161.451C162.642 466.709 163.796 466.965 165.073 467.43L169.323 468.976L165.822 471.839C165.167 472.375 164.411 472.629 163.892 472.769C163.332 472.919 162.745 473.011 162.252 473.078C161.213 473.22 160.635 473.27 160.244 473.363L160.088 473.406C155.606 474.824 150.942 476.455 146.683 478.278L146.682 478.279C144.236 479.326 141.973 480.84 139.443 482.506C137.145 484.02 134.626 485.657 131.826 486.804L131.263 487.026C128.713 487.995 124.512 488.62 119.793 489.009C114.979 489.406 109.33 489.577 103.702 489.526C98.0752 489.474 92.4248 489.2 87.6094 488.696C82.8964 488.203 78.6737 487.463 76.1094 486.352L75.4902 486.083L75.082 485.545C74.3028 484.517 74.2854 483.301 74.3262 482.611C74.3733 481.814 74.5566 480.956 74.7734 480.14C75.2066 478.509 75.9278 476.506 76.5938 474.583C77.2831 472.593 77.9442 470.607 78.3682 468.791C78.6875 467.424 78.8257 466.324 78.8105 465.494C78.7988 465.497 78.7867 465.501 78.7744 465.504C78.3185 465.635 77.7013 465.91 76.918 466.371C75.3497 467.294 73.5 468.729 71.5117 470.395C70.5293 471.218 69.5387 472.074 68.5537 472.928C67.5749 473.776 66.5971 474.626 65.665 475.411C63.9782 476.831 62.2387 478.218 60.748 479.03L60.4531 479.185C54.9096 481.975 49.4435 481.188 44.3906 479.549L44.3896 479.548C37.029 477.156 29.2208 472.2 22.4766 466.257C15.73 460.312 9.8475 453.202 6.46875 446.329C1.53201 436.287 3.35408 424.275 6.64746 414.801C19.1844 378.732 52.7148 359.451 85.7676 347.493C89.9965 345.963 94.6498 344.727 99.0029 343.453C103.426 342.159 107.611 340.807 111.251 339.007L111.873 338.695L112.881 338.191L113.936 338.59C123.312 342.138 133.27 345.731 142.895 347.09C149.367 344.19 155.509 339.226 161.722 334.796L163.555 333.489L165.093 335.133Z" fill="url(#paint4_linear_2947_6830)" stroke="#32411A" stroke-width="5.1449"/>
<path opacity="0.8" d="M363.908 414.581C365.151 415.643 366.293 416.806 367.352 417.896C368.437 419.011 369.428 420.042 370.473 420.985L371.198 421.623C374.856 424.768 378.966 427.221 383.38 429.814L385.642 431.144L384.268 433.379C380.74 439.119 376.879 444.631 373.193 450.081C369.485 455.564 365.922 461.028 362.856 466.826C344.411 501.711 333.003 537.721 329.711 577.079V577.08C329.483 579.808 329.04 583.251 328.84 586.862C328.637 590.509 328.743 593.624 329.382 595.463L329.475 595.71C329.548 595.879 329.604 595.96 329.638 596.002C329.696 595.983 329.762 595.963 329.835 595.936C330.323 595.752 330.948 595.445 331.701 595.006C333.204 594.131 334.979 592.872 336.808 591.468C340.521 588.619 343.991 585.547 345.755 584.115L349.671 587.275C346.886 592.777 343.819 598.137 340.486 603.323C336.933 608.904 332.985 613.983 330.918 619.554C330.177 621.553 329.739 624.505 329.581 628.16C329.424 631.77 329.546 635.872 329.817 640.067C330.361 648.475 331.483 656.999 332.08 662.449L332.175 663.256C332.275 664.074 332.394 664.93 332.518 665.833C332.682 667.022 332.852 668.282 332.979 669.55C333.232 672.059 333.343 674.781 332.856 677.33C332.572 678.822 331.856 680.693 330.931 682.714C329.984 684.781 328.741 687.172 327.297 689.751C324.406 694.913 320.652 700.935 316.708 706.823C312.763 712.712 308.603 718.502 304.896 723.198C301.271 727.789 297.859 731.622 295.435 733.307L292.91 735.063L291.629 732.267C291.127 731.172 290.53 729.975 289.845 728.895C289.408 728.206 288.969 727.622 288.542 727.159C288.309 727.595 288.076 728.095 287.848 728.66C287.307 729.996 286.838 731.548 286.38 733.231C285.51 736.423 284.629 740.364 283.336 743.138L283.335 743.139C281.593 746.872 277.753 749.587 274.103 751.534C270.352 753.536 266.252 755.007 263.389 756.005H263.388C258.82 757.593 252.928 759.389 246.96 760.212C241.046 761.028 234.706 760.942 229.462 758.413L229.325 758.348L229.197 758.266C221.425 753.315 215.324 746.042 211.099 738.068C208.838 733.8 205.077 725.113 202.542 716.348C201.274 711.964 200.285 707.463 199.969 703.431C199.66 699.499 199.95 695.553 201.708 692.642C203.392 689.853 205.835 686.972 207.724 684.455C209.733 681.781 211.292 679.319 211.934 676.823L211.935 676.823C211.971 676.686 211.99 676.577 212.004 676.491C211.754 676.517 211.473 676.555 211.161 676.609C210.043 676.801 208.712 677.149 207.268 677.567C206.554 677.774 205.831 677.992 205.107 678.211C204.389 678.429 203.666 678.648 202.975 678.849C201.633 679.24 200.253 679.61 199.123 679.762L199.103 679.765L199.084 679.767C198.976 679.78 198.869 679.791 198.781 679.8C198.688 679.81 198.612 679.819 198.539 679.827L196.048 680.121L195.69 677.638C195.047 673.158 195.24 668.743 195.619 664.478C196.965 649.357 201.316 635.995 206.167 622.099C206.523 621.078 206.866 619.978 207.251 618.774C207.629 617.59 208.041 616.33 208.51 615.084C209.436 612.625 210.66 610.008 212.525 607.944H212.526C215.189 604.997 218.655 602.504 221.992 600.233C225.424 597.896 228.688 595.81 231.399 593.517H231.4C233.553 591.697 235.432 589.845 236.568 587.733C238.223 584.655 238.936 580.186 239.262 575.125C239.422 572.637 239.486 570.111 239.553 567.642C239.619 565.199 239.688 562.791 239.868 560.646L240.391 554.391L244.408 559.214C247.545 562.982 249.769 567.282 251.996 571.088C252.611 572.137 253.081 573.007 253.671 573.757C253.926 574.082 254.156 574.315 254.359 574.483C255.035 574.086 255.884 573.465 256.887 572.589C258.328 571.331 259.891 569.733 261.46 568.015C263.023 566.303 264.555 564.512 265.936 562.88C267.298 561.272 268.55 559.773 269.493 558.727L269.501 558.719L269.508 558.711C293.457 532.573 314.047 503.545 330.799 472.307C335.772 462.933 340.349 453.353 345.062 443.736C349.765 434.142 354.591 424.538 360.015 415.241L361.566 412.581L363.908 414.581Z" fill="url(#paint5_linear_2947_6830)" stroke="#32411A" stroke-width="5.1449"/>
<path d="M636.099 68.4881C636.133 68.66 636.193 68.8285 636.202 69.0034C636.249 69.9715 635.207 71.2471 634.628 71.9352C630.778 76.515 625.878 80.6296 621.543 84.7738C613.586 92.3476 605.693 99.992 597.872 107.707C563.419 141.843 528.266 182.178 499.759 221.46C493.028 230.737 486.297 240.235 480.337 250.024C475.514 257.941 466.639 277.666 460.739 282.973C460.632 282.425 460.641 281.93 460.761 281.375C461.451 278.149 463.406 274.966 464.727 271.963C467.342 266.008 469.726 260.124 472.899 254.415C483.33 235.648 496.569 218.131 509.697 201.182C538.719 163.61 570.493 128.246 604.754 95.3831C614.589 86.0909 624.562 75.6614 636.099 68.4881Z" fill="#4C542C"/>
<path d="M175.431 67.9165C175.97 68.0053 176.482 68.0841 176.991 68.2891C181.492 70.0984 198.383 87.6107 202.84 91.9792C236.851 124.772 267.604 160.784 294.669 199.508C301.045 208.66 307.427 217.779 313.213 227.32C319.028 236.91 323.853 246.838 329.189 256.676C335.224 267.805 341.65 278.717 346.746 290.328C346.473 290.222 346.188 290.144 345.928 290.011C339.306 286.619 315.285 238.61 308.605 227.812C303.053 218.839 296.958 210.158 290.904 201.52C267.253 167.768 241.095 137.098 212.526 107.417C205.632 100.192 198.618 93.0815 191.489 86.0883C186.768 81.4334 181.422 76.8082 177.284 71.6251C176.299 70.3908 175.813 69.4458 175.431 67.9165Z" fill="#4C542C"/>
<path d="M540.151 385.549C556.19 384.83 572.576 386.896 588.517 388.534C618.696 391.509 648.712 395.988 678.446 401.951C693.799 405.133 708.955 409.056 724.154 412.906C744.515 418.063 765.373 423.504 785.104 430.729C783.264 430.861 781.502 430.716 779.671 430.57C773.013 429.747 766.282 427.86 759.786 426.205L733.723 419.47C708.157 412.829 682.647 406.5 656.631 401.81C630.95 397.175 604.788 394.161 578.823 391.64L551.748 389.045C545.428 388.431 538.993 387.976 532.772 386.676C535.246 386.085 537.617 385.757 540.151 385.549Z" fill="#4C542C"/>
<path d="M482.352 517.373C484.131 518.059 485.297 519.611 486.331 521.142C489.285 525.511 491.45 530.63 493.954 535.282C498.481 543.702 503.348 551.865 507.704 560.402C515.768 576.227 524.034 591.974 531.091 608.284C540.091 629.065 547.062 650.45 553.746 672.063C557.759 685.028 561.896 697.878 565.275 711.027C567.363 719.169 572.281 735.29 570.724 743.097C570.313 742.763 570.386 742.861 570.025 742.373C569.301 741.395 568.954 739.933 568.636 738.762C567.251 733.708 566.295 728.533 564.975 723.456C562.137 712.948 559.101 702.491 555.868 692.098C549.206 670.978 542.787 649.567 534.924 628.867C527.267 608.691 517.788 588.514 507.682 569.431C503.901 562.292 481.469 522.042 482.352 517.373Z" fill="#4C542C"/>
<path d="M243.798 385.984C246.821 385.851 254.579 385.404 257.122 387.035L256.903 387.685C255.636 388.326 254.454 388.567 253.051 388.769C246.638 389.693 239.808 389.659 233.317 390.202C218.361 391.471 203.416 392.868 188.484 394.393C179.529 395.34 170.562 396.721 161.66 398.08C133.261 402.556 105.129 408.592 77.3926 416.16C66.8927 419.062 56.3663 422.064 45.9315 425.189C39.801 427.028 33.7797 429.181 27.5848 430.806C23.0993 432.032 18.6284 432.975 13.9864 433.348C25.7764 427.496 42.3661 422.728 55.2147 418.754C116.359 399.576 179.768 388.557 243.798 385.984Z" fill="#4C542C"/>
<path d="M321.512 519.731C322.43 520.096 323.326 520.327 323.916 521.172C322.448 524.756 320.068 528.156 318.122 531.522C315.272 536.482 312.518 541.494 309.86 546.562C299.891 564.852 290.798 583.605 282.611 602.757C270.023 631.984 259.207 661.945 250.222 692.476C245.161 709.329 241.317 726.608 235.736 743.273L235.089 744.07L234.523 743.68C234.493 743.436 234.456 743.187 234.432 742.943C233.861 737.03 236.91 727.941 238.18 722.029C240.946 709.158 244.788 696.527 248.56 683.922C262.456 636.542 281.293 590.757 304.762 547.317C309.797 538.133 314.852 527.835 321.512 519.731Z" fill="#4C542C"/>
<path d="M342.67 394.832C370.867 393.848 394.532 415.882 395.561 444.076C396.595 472.269 374.597 495.975 346.408 497.049C318.148 498.128 294.378 476.07 293.346 447.811C292.313 419.552 314.41 395.818 342.67 394.832Z" fill="#5D4C26" stroke="#1A200F" stroke-width="5.1449"/>
<path d="M322.09 297.078C350.287 296.095 373.952 318.129 374.982 346.323C376.016 374.516 354.017 398.222 325.828 399.296C297.569 400.375 273.799 378.317 272.766 350.058C271.734 321.799 293.83 298.065 322.09 297.078Z" fill="#5D4C26" stroke="#1A200F" stroke-width="5.1449"/>
<path d="M412.983 249.059C441.181 248.076 464.845 270.11 465.875 298.304C466.909 326.497 444.91 350.203 416.722 351.277C388.462 352.356 364.692 330.298 363.659 302.039C362.627 273.78 384.724 250.046 412.983 249.059Z" fill="#5D4C26" stroke="#1A200F" stroke-width="5.1449"/>
<path d="M440.423 411.981C468.62 410.998 492.285 433.032 493.315 461.225C494.348 489.419 472.35 513.124 444.161 514.199C415.902 515.278 392.132 493.22 391.099 464.961C390.066 436.701 412.163 412.968 440.423 411.981Z" fill="#5D4C26" stroke="#1A200F" stroke-width="5.1449"/>
<path d="M485.012 322.803C513.209 321.819 536.874 343.853 537.904 372.047C538.938 400.24 516.939 423.946 488.75 425.021C460.491 426.1 436.721 404.042 435.688 375.782C434.655 347.523 456.752 323.789 485.012 322.803Z" fill="#5D4C26" stroke="#1A200F" stroke-width="5.1449"/>
<path opacity="0.85" d="M114.596 198.615C119.014 198.36 125.934 198.062 132.783 198.129C139.533 198.195 146.552 198.614 150.982 199.921C156.176 201.454 161.951 205.982 167.053 210.641C172.227 215.366 177.187 220.694 180.579 224.106C181.594 225.127 182.724 226.41 183.638 227.379C184.63 228.432 185.556 229.327 186.501 230.004C186.675 230.129 186.824 230.221 186.975 230.292C187.071 229.999 187.146 229.53 187.132 228.775C187.099 227.083 186.61 224.861 185.926 222.283C185.278 219.841 184.443 217.042 183.952 214.642C183.702 213.42 183.514 212.183 183.485 211.029C183.457 209.903 183.572 208.639 184.106 207.495L184.618 206.401L185.787 206.095C187.742 205.585 189.511 205.86 190.846 206.047C206.094 208.183 223.349 214.474 237.365 220.257C278.359 237.17 306.733 262.299 332.321 297.877C338.582 306.583 344.392 316.113 350.327 324.768V324.769C355.27 331.978 360.651 338.901 365.965 346.01L367.109 347.542L365.973 349.079C361.557 355.049 358.138 360.974 355.306 367.809L354.529 369.683L352.526 369.365C344.14 368.032 333.077 368.755 323.905 368.864C312.198 369.002 300.5 369.39 288.767 369.773C277.042 370.155 265.284 370.533 253.503 370.651L253.442 370.652L253.381 370.649C223.079 369.508 194.349 365.942 166.006 353.522L164.394 352.815L164.469 351.056C164.659 346.593 165.646 342.325 166.51 338.36C167.081 335.738 167.6 333.232 167.891 330.74C164.839 332.374 161.479 334.718 157.938 337.322C153.082 340.89 147.895 344.933 143.294 347.47L142.377 347.976L141.367 347.698C132.026 345.117 122.239 342.097 113.184 338.371H113.183C97.0681 331.741 80.113 323.213 67.1143 310.814L66.498 310.221C64.2065 307.992 61.0927 305.065 59.5498 301.356L59.3193 300.8L59.3584 300.199C59.4344 299.044 59.8979 298.007 60.417 297.156C60.9465 296.289 61.6371 295.45 62.3779 294.659C63.8533 293.085 65.7711 291.451 67.6357 289.903C69.5518 288.311 71.4205 286.803 73.001 285.353C74.0759 284.367 74.885 283.518 75.4365 282.814C74.5238 282.878 73.4215 283.03 72.1504 283.265C69.0948 283.831 65.3461 284.82 61.4395 285.938C57.3942 287.095 53.7236 288.226 50.0693 289.279C46.6471 290.264 43.4999 291.103 41.4316 291.354L40.3408 291.486L39.4902 290.788C33.435 285.821 28.8765 278.388 25.6523 270.571C22.4163 262.724 20.4366 254.279 19.665 247.057C18.906 239.955 19.5716 231.56 24.8281 225.275C28.487 220.9 33.8531 217.924 38.3047 215.598C61.7692 203.335 89.16 200.545 114.549 198.617L114.572 198.615L114.596 198.615Z" fill="#73923D" stroke="#445C1B" stroke-width="5.1449"/>
<path d="M39.0283 242.307C51.1343 241.236 64.2705 243.332 76.2718 244.932C110.338 249.154 143.995 256.191 176.899 265.972C192.39 270.636 207.539 276.677 222.513 282.762C258.831 297.521 293.459 314.226 326.301 335.747C330.8 338.695 341.147 344.402 343.662 349.082C336.846 347.336 324.589 338.572 318.145 334.691C308.617 328.845 298.897 323.319 289.001 318.121C254.504 300.145 218.706 284.783 181.91 272.165C150.247 261.557 116.435 254.807 83.4181 250.041C76.9951 249.114 41.9986 245.374 39.3336 243.766L39.0283 242.307Z" fill="#5B6B2C"/>
<path opacity="0.85" d="M665.776 201.127C666.71 201.659 667.105 202.516 667.257 203.128C667.402 203.712 667.387 204.273 667.347 204.689C667.266 205.532 667.008 206.485 666.717 207.388C666.124 209.229 665.158 211.565 664.236 213.819C663.287 216.138 662.366 218.412 661.759 220.312C661.601 220.808 661.472 221.256 661.371 221.654C661.955 221.463 662.656 221.158 663.466 220.734C665.271 219.788 667.366 218.388 669.542 216.804C671.708 215.227 673.871 213.529 675.827 212.003C677.735 210.515 679.527 209.126 680.827 208.29C682.816 207.01 685.245 205.571 687.913 204.849H687.914C692.427 203.629 697.613 203.62 701.736 203.483C715.83 203.014 729.501 203.492 743.507 206.648H743.506C749.935 208.095 759.963 211.657 769.218 216.248C773.856 218.549 778.364 221.139 782.163 223.894C785.924 226.621 789.172 229.638 791.085 232.846C793.483 236.862 793.78 242.716 793.41 247.983C793.031 253.399 791.892 258.84 790.875 262.495H790.874C786.638 277.711 775.38 295.212 761.047 303.161L761.046 303.162C760.153 303.657 758.871 304.351 757.517 304.889C756.241 305.396 754.523 305.924 752.86 305.733C751.093 305.529 749.201 304.736 747.449 303.849C745.651 302.938 743.727 301.78 741.867 300.656C739.973 299.511 738.137 298.394 736.396 297.469C734.882 296.665 733.561 296.074 732.454 295.743C732.34 297.09 732.449 298.78 732.714 300.725C732.896 302.062 733.134 303.414 733.369 304.749C733.6 306.058 733.832 307.378 733.978 308.548L734.104 309.628C734.375 312.256 734.392 315.585 732.024 318.422C730.211 320.593 727.771 322.311 725.386 323.718C723.008 325.121 720.442 326.349 718.418 327.384C694.141 339.803 665.832 347.978 638.672 350.397L637.947 350.461L637.297 350.137C635.805 349.394 633.393 347.902 630.697 346.227C627.939 344.513 624.76 342.529 621.587 340.683C618.402 338.83 615.303 337.165 612.71 336.071C611.412 335.524 610.314 335.151 609.444 334.959C609.208 334.907 609.002 334.872 608.823 334.849C608.834 335.043 608.853 335.281 608.894 335.568C609.127 337.223 609.784 339.472 610.579 342.123C611.344 344.671 612.216 347.532 612.719 350.112C612.972 351.411 613.148 352.721 613.157 353.95C613.167 355.158 613.017 356.462 612.477 357.641L612.478 357.642C612.351 357.919 612.153 358.291 612.101 358.394L611.606 359.373L610.557 359.693C601.797 362.373 592.129 362.876 583.537 363.646C573.711 364.526 563.751 365.502 553.766 365.863C539.671 366.373 525.35 366.065 511.403 366.246H511.398C493.293 366.445 475.196 367.154 457.13 368.37L455.368 368.488L454.625 366.887C451.259 359.642 447.657 353.483 442.839 347.198L441.833 345.887L442.609 344.427C447.886 334.49 452.848 324.528 459.474 315.029L459.481 315.021L459.487 315.012C479.261 287.175 503.375 262.695 530.912 242.507L530.921 242.5C537.111 238.003 543.983 232.933 551.593 229.947L554.059 228.98L554.954 231.473C555.836 233.929 557.222 236.213 558.736 238.78L559.624 240.308C559.889 240.752 560.141 241.143 560.431 241.511C560.507 241.608 560.583 241.697 560.656 241.778C561.19 240.505 561.566 238.964 561.85 237.217C562.041 236.04 562.183 234.831 562.319 233.608C562.451 232.407 562.581 231.162 562.74 230.016L562.877 229.032L563.64 228.397C567.92 224.825 573.66 222.404 578.2 220.37L580.279 219.452C601.547 210.19 616.493 207.76 639.369 204.32L642.424 203.851C649.583 202.731 656.949 201.477 664.267 200.801L665.072 200.727L665.776 201.127Z" fill="#73923D" stroke="#445C1B" stroke-width="5.1449"/>
<path d="M765.695 243.206C765.785 243.195 765.875 243.18 765.965 243.173C767.851 243.018 773.236 242.486 774.6 243.661C772.044 245.312 768.464 245.804 765.506 246.37C755.156 248.352 744.549 249.326 734.126 250.926C713.843 254.039 693.456 257.48 673.296 261.298C658.784 264.13 644.378 267.478 630.101 271.335C599.094 279.985 565.575 292.017 536.421 305.775C513.912 316.396 492.457 328.561 471.059 341.243C469.391 342.203 467.835 343.283 465.901 343.555L465.447 343.107C465.683 342.623 465.901 342.198 466.249 341.783C470.437 336.784 487.261 327.604 493.757 323.624C513.123 311.758 533.668 302.073 554.591 293.3C580.032 282.494 606.168 273.406 632.828 266.095C658.325 259.336 684.298 254.777 710.314 250.599C728.647 247.655 747.164 244.575 765.695 243.206Z" fill="#5B6B2C"/>
<path opacity="0.85" d="M387.277 430.836C395.481 433.39 402.781 433.595 411.504 432.873L412.966 432.751L413.815 433.947C418.484 440.525 423.622 446.507 428.667 453.137C471.31 509.178 487.772 585.004 478.367 654.051L477.937 657.208L474.942 656.123C473.05 655.437 468.336 653.729 463.715 652.365C461.398 651.681 459.169 651.103 457.364 650.781C456.623 650.648 455.995 650.569 455.488 650.535C455.611 651.47 456.035 652.765 456.857 654.41C457.87 656.439 459.326 658.69 460.971 660.958C464.26 665.492 468.102 669.816 470.175 672.202L470.846 672.974L470.804 673.996C469.535 704.787 465.875 735.384 448.268 762.245L447.419 763.521C438.41 776.865 425.532 790.239 408.371 793.523L408.147 793.566L407.917 793.568C407.143 793.577 406.352 793.573 405.553 793.545H405.546C399.342 793.315 392.234 789.62 386.069 785.372C379.801 781.053 374.034 775.828 370.408 771.917L369.512 770.948C360.321 760.889 353.009 749.259 347.927 736.613V736.612C342.875 724.176 338.005 702.248 334.515 680.243C331.021 658.208 328.852 635.72 329.326 622.107L329.349 621.425L329.706 620.845C332.104 616.957 337.878 608.468 342.951 599.668C345.469 595.299 347.736 590.983 349.24 587.296C349.992 585.452 350.528 583.829 350.818 582.477C350.974 581.746 351.043 581.157 351.058 580.694C350.326 581.051 349.517 581.526 348.636 582.117C346.937 583.256 345.128 584.719 343.288 586.32C341.446 587.922 339.636 589.603 337.895 591.196C336.183 592.761 334.514 594.262 333.049 595.394L328.969 598.547L328.904 593.392C328.329 548.34 343.788 498.955 365.887 460.224C371.488 450.409 378.416 441.115 384.349 431.9L385.409 430.254L387.277 430.836Z" fill="#73923D" stroke="#445C1B" stroke-width="5.1449"/>
<path d="M398.769 440.393C398.906 440.491 399.061 440.573 399.185 440.693C400.214 441.687 400.231 443.497 400.317 444.86C400.707 451.107 399.999 457.718 399.699 463.978C399.112 476.351 398.409 488.708 398.023 501.094C396.012 560.222 396.557 619.409 399.656 678.494C400.715 698.379 402.268 718.234 404.313 738.042C404.986 745.181 405.483 752.324 406.113 759.462C406.469 763.484 407.254 767.883 407.005 771.896C406.949 772.826 407.031 773.049 406.293 773.666L405.552 773.053C402.229 760.705 401.5 747.063 399.978 734.368C394.972 692.523 393.519 648.439 392.791 606.268C392.022 561.619 392.021 516.696 395.403 472.141C396.192 461.744 396.244 450.549 398.769 440.393Z" fill="#5B6B2C"/>
<path d="M404.409 331.378C432.606 330.394 456.271 352.428 457.3 380.622C458.334 408.815 436.336 432.521 408.147 433.596C379.887 434.675 356.117 412.617 355.084 384.357C354.052 356.098 376.149 332.364 404.409 331.378Z" fill="#816A37" stroke="#1A200F" stroke-width="5.1449"/>
<defs>
<linearGradient id="paint0_linear_2947_6830" x1="448.383" y1="346.419" x2="621.68" y2="43.4919" gradientUnits="userSpaceOnUse">
<stop stop-color="#486038"/>
<stop offset="1" stop-color="#608241"/>
</linearGradient>
<linearGradient id="paint1_linear_2947_6830" x1="308.482" y1="360.418" x2="214.197" y2="44.7694" gradientUnits="userSpaceOnUse">
<stop stop-color="#475F38"/>
<stop offset="1" stop-color="#5F8141"/>
</linearGradient>
<linearGradient id="paint2_linear_2947_6830" x1="460.186" y1="364.391" x2="801.529" y2="437.953" gradientUnits="userSpaceOnUse">
<stop stop-color="#475F38"/>
<stop offset="1" stop-color="#5D7F40"/>
</linearGradient>
<linearGradient id="paint3_linear_2947_6830" x1="410.688" y1="438.013" x2="595.527" y2="743.303" gradientUnits="userSpaceOnUse">
<stop stop-color="#475E39"/>
<stop offset="1" stop-color="#608240"/>
</linearGradient>
<linearGradient id="paint4_linear_2947_6830" x1="350.3" y1="371.462" x2="6.18374" y2="433.644" gradientUnits="userSpaceOnUse">
<stop stop-color="#475F39"/>
<stop offset="1" stop-color="#5C7D40"/>
</linearGradient>
<linearGradient id="paint5_linear_2947_6830" x1="351.388" y1="414.136" x2="232.252" y2="756.019" gradientUnits="userSpaceOnUse">
<stop stop-color="#465E38"/>
<stop offset="1" stop-color="#5E8040"/>
</linearGradient>
</defs>
</svg>
