<svg width="835" height="823" viewBox="0 0 835 823" fill="none" xmlns="http://www.w3.org/2000/svg">
<path opacity="0.85" d="M561.514 51.3732C570.946 55.6753 579.298 64.0551 584.087 73.0654C587.714 79.8856 589.207 88.5184 589.395 97.8267C589.583 107.167 588.459 117.4 586.679 127.568C583.119 147.897 576.874 168.276 572.917 181.221L572.714 181.885L572.203 182.357C568.51 185.773 564.592 188.945 560.152 191.601L560.153 191.602C558.55 192.562 556.834 193.467 555.135 194.347C553.414 195.238 551.72 196.1 550.061 197.017C546.73 198.859 543.808 200.786 541.698 203.153C541.394 203.495 541.203 203.748 541.08 203.95C541.583 204.231 542.269 204.544 543.168 204.865C544.778 205.44 546.753 205.942 548.863 206.385C550.964 206.825 553.131 207.194 555.115 207.519C557.063 207.837 558.9 208.124 560.217 208.386L563.772 209.091L561.932 212.215C555.107 223.794 548.348 235.686 540.958 247.067L540.958 247.068C523.926 273.722 503.141 297.782 479.245 318.506L479.235 318.515C465.217 330.546 450.094 341.333 435.431 352.241L434.31 353.075L432.999 352.588C429.013 351.106 425.053 349.825 420.952 348.663L419.758 348.325L419.28 347.18C417.409 342.703 416.198 337.967 414.953 333.593L414.948 333.579L414.944 333.564C409.427 313.242 404.237 289.954 402.386 268.775C399.71 238.155 403.535 203.314 412.299 173.893C417.486 156.48 424.687 139.663 430.912 122.917L432.124 119.656L434.887 121.77C437.281 123.603 440.787 126.516 444.532 129.155C446.383 130.459 448.211 131.636 449.877 132.512C451.226 133.221 452.34 133.659 453.196 133.862C453.215 133.829 453.239 133.792 453.263 133.748L453.305 133.633C453.359 133.447 453.432 133.036 453.391 132.283C453.339 131.337 453.124 130.12 452.746 128.654C451.99 125.726 450.679 122.154 449.174 118.394C447.651 114.588 446.054 110.884 444.623 107.37C443.251 104 442.041 100.829 441.557 98.5766L441.555 98.5645L441.43 97.9677L441.264 97.1833L441.575 96.4435C445.134 87.9631 451.568 80.0375 457.886 73.8675C476.919 55.2815 501.383 44.4 528.384 44.887C533.746 44.9838 538.088 45.7002 542.096 47.4832C545.392 48.9494 548.327 51.0772 551.355 53.9366C551.88 53.3905 552.454 52.8445 553.056 52.3914L553.062 52.3864C555.799 50.3425 559.028 50.9421 560.77 51.1623L561.158 51.2106L561.514 51.3732Z" fill="#B3B84B" stroke="#445C1B" stroke-width="5.1449"/>
<path d="M534.706 67.9985C535.376 68.5126 535.454 68.5985 535.824 69.4147C535.2 74.0221 524.263 98.0012 521.702 104.491C516.656 117.261 511.086 129.805 505.971 142.542C493.877 172.773 482.07 203.116 470.551 233.57C462.47 255.753 454.176 277.857 445.669 299.88C441.999 309.451 438.794 319.795 434.34 329.016L433.335 329.2C434.366 320.23 438.286 310.772 441.221 302.24C446.194 287.747 451.36 273.321 456.712 258.964C472.154 216.666 488.359 174.649 505.313 132.934C512.059 116.53 518.899 100.194 526.596 84.209C529.205 78.7931 531.665 73.1861 534.706 67.9985Z" fill="#5B6B2C"/>
<path opacity="0.85" d="M454.199 430.337C476.865 438.047 499.958 446.809 521.131 458.447L522.852 459.404C558.921 479.684 590.022 511.426 611.814 546.236L611.814 546.237C615.941 552.836 621.23 560.506 623.594 568.658L624.282 571.029L621.942 571.814C618.657 572.916 615.241 573.501 612.198 574.126C610.299 574.515 608.502 574.926 606.791 575.478C609.354 578.023 612.24 579.868 615.862 581.804L615.861 581.804C619.093 583.53 623.041 585.404 626.252 588.166L626.253 588.167C630.233 591.589 633.366 596.873 635.889 602.137C638.427 607.434 640.512 613.086 642.205 617.323C658.183 657.314 658.357 697.039 641.158 736.764L641.157 736.766C639.923 739.613 638.196 743.5 635.938 746.977C633.792 750.283 630.917 753.616 627.152 755.115L626.785 755.254C619.941 757.723 611.48 756.421 603.738 754.137C595.893 751.822 588.217 748.318 582.728 745.814L582.67 745.786C576.826 742.939 569.673 739.791 564.316 735.04L564.315 735.04C561.654 732.677 559.75 729.804 558.739 726.312L558.738 726.309C557.639 722.487 557.737 718.252 557.587 714.973L557.587 714.97C557.274 707.978 556.738 700.933 554.656 694.602C552.929 696.142 551.528 698.251 550.242 700.772C549.33 702.558 548.522 704.455 547.691 706.409C546.874 708.329 546.027 710.323 545.082 712.145L543.345 715.495L540.862 712.653C530.582 700.887 520.327 689.068 511.67 675.736C506.426 667.666 501.944 659.221 497.419 650.94L495.475 647.402C494.776 646.141 493.965 644.812 493.094 643.389C492.233 641.983 491.318 640.489 490.46 638.969C488.763 635.96 487.158 632.615 486.582 629.2L486.581 629.199C486.353 627.841 486.421 625.799 486.579 623.699C486.744 621.506 487.035 618.948 487.365 616.399C488.025 611.309 488.862 606.101 489.21 603.763L489.21 603.762C489.838 599.517 490.863 593.168 491.431 586.89C491.783 582.993 491.933 579.32 491.761 576.288C489.751 579.31 487.824 582.756 485.942 586.362C483.084 591.838 480.236 597.871 477.554 602.685L475.07 607.144L472.964 602.494C469.589 595.046 465.63 587.482 462.655 579.501L462.656 579.5C451.716 550.167 446.39 516.458 443.44 485.609L443.185 482.853C441.956 469.1 441.358 455.718 439.725 442.169L439.531 440.565L440.893 439.694C444.777 437.211 448.05 434.204 451.619 430.887L452.744 429.841L454.199 430.337Z" fill="#8E923D" stroke="#445C1B" stroke-width="5.1449"/>
<path d="M461.703 455.45C463.409 456.262 465.054 457.997 466.419 459.304C478.121 470.486 488.826 485.723 498.494 498.791C542.835 558.542 577.878 624.661 602.432 694.902C605.58 703.753 613.655 724.18 613.865 732.907C613.28 732.66 612.894 732.431 612.452 731.957C611.177 730.592 587.838 666.314 584.439 658.33C570.531 625.527 554.443 593.692 536.295 563.031C526.773 547.261 516.346 532.076 505.96 516.865C496.492 503.02 486.647 489.439 476.436 476.134C472.162 470.51 467.4 465.195 463.351 459.407C462.441 458.108 461.701 457.09 461.703 455.45Z" fill="#5B6B2C"/>
<path opacity="0.85" d="M324.495 382.235C335.775 385.157 347.142 390.539 357.428 395.15L358.984 395.847L358.948 397.551C358.848 402.255 359.324 406.861 359.917 411.699L360.086 413.075L359.03 413.972C349.547 422.035 340.474 430.58 331.338 439.168C322.219 447.74 313.038 456.355 303.413 464.471C286.974 478.466 269.486 491.178 251.102 502.498L251.095 502.502L251.088 502.506C236.549 511.33 221.192 519.132 206.301 527.016L203.665 528.412L202.673 525.599C201.213 521.464 200.304 517.024 199.272 513.237C198.535 510.532 197.7 507.988 196.515 505.609C194.894 507.865 193.466 510.194 192.233 512.7C191.505 514.18 190.815 515.914 190.075 517.837C189.348 519.725 188.572 521.798 187.715 523.806C186.027 527.761 183.824 531.966 180.394 534.66C177.542 536.902 173.836 538.335 170.302 539.406C168.511 539.949 166.699 540.417 164.993 540.848C163.265 541.285 161.673 541.677 160.227 542.086C153.186 544.078 143.247 546.987 133.258 549.228C123.337 551.454 113.045 553.101 105.356 552.414L102.826 552.188L103.02 549.655C103.246 546.709 103.504 543.636 104.086 540.567L104.207 539.953C104.704 537.511 105.759 534.326 106.429 531.796C106.905 529.999 107.238 528.38 107.342 526.972C104.137 528.065 101.128 530.822 98.0237 534.537C96.1899 536.732 94.4808 539.058 92.704 541.368C90.9706 543.622 89.1736 545.86 87.3056 547.621C82.0132 552.61 76.1247 552.952 70.1676 552.876L70.1682 552.877C65.9497 552.852 61.2568 551.921 57.4763 551.297L57.4754 551.297C52.4465 550.467 43.6602 548.635 35.3647 545.918C31.2185 544.56 27.1258 542.959 23.6639 541.116C20.2625 539.305 17.1878 537.115 15.3926 534.458C13.1579 531.151 12.5765 526.962 12.62 523.119C12.6587 519.71 13.1945 516.289 13.7634 513.458L14.0083 512.283C15.3741 505.917 17.6413 499.663 20.0207 493.787L20.7005 492.143C35.2026 457.812 63.615 435.638 94.1641 417.192L97.4802 415.179C105.586 410.251 116.079 403.962 124.789 401.551C128.285 400.584 132.087 400.02 135.739 399.979L135.741 399.979C137.094 399.965 139.303 400.116 141.738 400.292C144.233 400.472 147.078 400.688 149.856 400.831C152.645 400.974 155.283 401.038 157.36 400.927C158.402 400.872 159.228 400.775 159.827 400.648C159.988 400.613 160.114 400.58 160.21 400.552C159.252 399.105 157.673 397.75 155.623 396.258C153.415 394.651 150.487 392.783 148.426 390.701L148.417 390.694L148.41 390.685L147.946 390.208L145.571 387.767L148.568 386.15L149.438 385.681L149.444 385.678C165.077 377.294 183.553 372.319 200.794 369.695L200.796 369.695C246.703 362.716 280.522 368.974 324.495 382.235Z" fill="#B3B84B" stroke="#445C1B" stroke-width="5.1449"/>
<path d="M334.537 407.632L336.178 408.347L336.381 408.961C333.475 411.563 313.131 414.862 308.19 415.901C286.74 420.619 265.497 426.227 244.516 432.718C197.684 447.294 147.923 466.937 103.834 488.57C80.1675 500.184 57.4109 513.409 33.916 525.292C33.0098 525.534 33.4747 525.555 32.5287 525.137L32.4685 524.073C32.7357 523.619 32.9695 523.244 33.3465 522.875C35.5122 520.754 50.9395 512.467 54.6745 510.271C88.2555 490.504 123.91 474.124 159.871 459.205C207.127 439.603 255.745 422.121 306.096 412.447C314.361 410.86 326.473 407.552 334.537 407.632Z" fill="#5B6B2C"/>
<path opacity="0.8" d="M708.184 154.448C719.823 157.954 731.851 163.7 741.967 170.415C744.345 171.993 747.825 174.005 750.657 176.334C753.534 178.699 756.294 181.803 757.037 185.966C758.405 193.631 757.876 206.218 755.99 218.251C755.041 224.306 753.735 230.313 752.109 235.59C750.496 240.824 748.516 245.517 746.144 248.818C744.284 251.406 741.291 252.715 738.25 253.412C735.171 254.117 731.625 254.292 728.153 254.283C724.693 254.274 721.055 254.077 717.936 253.982C716.625 253.942 715.408 253.921 714.301 253.931C715.955 255.137 718.883 256.79 722.238 258.57C725.997 260.564 730.173 262.659 732.622 264.071L735.525 265.746L733.156 268.118C724.355 276.93 713.275 284.332 703.478 291.521L701.537 292.955C694.122 298.483 685.891 305.668 677.177 310.18L676.538 310.509L675.821 310.461C673.129 310.28 670.471 309.825 667.936 309.364C665.68 308.953 663.541 308.542 661.417 308.26L660.507 308.147C654.398 307.448 645.87 307.042 637.385 307.236C628.856 307.43 620.586 308.227 614.892 309.844L614.891 309.844C612.99 310.384 612.169 310.734 611.589 311.168C611.037 311.58 610.495 312.225 609.57 313.852L604.978 321.923L604.762 312.64C604.731 311.336 604.771 310.425 604.699 309.329C604.657 308.699 604.581 308.161 604.462 307.698C604.413 307.69 604.354 307.679 604.285 307.672L604.282 307.672C600.418 307.238 595.888 307.761 591.184 308.743C586.495 309.721 581.834 311.107 577.68 312.305L577.68 312.306C541.582 322.714 503.99 340.066 474.904 363.791L474.884 363.807L474.864 363.822C469.788 367.802 465.116 372.097 460.497 376.683L458.069 379.095L456.428 376.092C451.579 367.219 444.614 361.563 436.841 354.3L434.531 352.142L437.114 350.319C457.724 335.774 478.633 320.206 496.43 302.579C516.733 282.467 536.099 255.631 550.608 230.934L551.254 229.855C551.96 228.695 552.831 227.303 553.768 225.805C555.027 223.79 556.422 221.552 557.757 219.319C559.094 217.082 560.353 214.881 561.343 212.94C561.919 211.812 562.37 210.831 562.694 210.02C562.299 209.836 561.817 209.647 561.248 209.456C559.721 208.944 557.797 208.497 555.717 208.093C553.644 207.689 551.522 207.347 549.577 207.017C547.694 206.697 545.885 206.375 544.626 206.021L544.619 206.019L544.612 206.017L544.046 205.855L539.226 204.471L543.161 201.363C546.12 199.027 549.48 197.106 552.783 195.36C556.165 193.572 559.362 192.027 562.389 190.285C588.315 175.359 619.904 156.289 649.533 149.003L652.968 148.158L652.714 151.685C652.313 157.234 652.003 163.237 652.665 168.526L652.81 169.575L652.811 169.576C652.965 170.584 653.075 171.158 653.258 171.611C653.274 171.652 653.292 171.691 653.31 171.73C653.424 171.639 653.573 171.508 653.768 171.312C655.372 169.687 656.447 167.616 658.07 165.144C661.601 159.748 665.893 153.164 671.667 148.901L671.673 148.896L671.68 148.891C671.765 148.829 672.121 148.576 672.14 148.562L672.724 148.141L673.442 148.084C684.821 147.174 698.03 151.508 708.156 154.44L708.17 154.444L708.184 154.448Z" fill="#5B6B2C" stroke="#32411A" stroke-width="5.1449"/>
<path opacity="0.8" d="M330.504 16.6805C334.682 17.7157 342.393 20.6411 349.576 24.0346C353.207 25.7498 356.774 27.6177 359.743 29.4673C362.624 31.2625 365.241 33.2192 366.671 35.176C367.396 36.1676 367.901 37.5083 368.29 38.8264C368.697 40.2068 369.053 41.8365 369.375 43.5852C370.019 47.0778 370.573 51.2836 371.125 55.3427C371.683 59.4491 372.239 63.4051 372.896 66.5515C373.225 68.126 373.564 69.4205 373.914 70.3916C374.151 71.0494 374.349 71.4206 374.464 71.6101C374.915 71.1477 375.484 70.4514 376.149 69.4827C377.167 68.0019 378.239 66.1495 379.289 64.1726C381.394 60.211 383.283 56.0002 384.402 53.63L386.443 49.3034L388.927 53.3912C402.082 75.0479 410.299 98.1621 417.566 122.014C419.189 127.346 421.51 133.34 422.766 139.27L423.003 140.455L423.122 141.091L422.925 141.709C419.486 152.508 415.591 162.464 412.628 173.143C403.921 204.513 399.215 238.016 402.621 270.365C405.187 294.734 412.21 321.175 418.725 345.095L419.626 348.404L416.196 348.343C406.439 348.168 398.539 350.187 388.955 353.137L386.57 353.87L385.764 351.508C383.693 345.436 382.066 339.193 380.389 333.162L380.387 333.153L380.385 333.147C378.528 326.316 376.931 319.417 375.331 312.586C373.728 305.737 372.12 298.95 370.227 292.257C358.365 250.307 338.08 214.581 304.997 185.907L304.989 185.901C297.824 179.648 290.363 173.744 282.629 168.208L282.621 168.202C280.839 166.916 278.975 165.732 277.014 164.448C275.085 163.185 273.093 161.844 271.221 160.327C270.353 159.624 269.662 158.917 269.08 158.068C268.512 157.241 268.11 156.37 267.733 155.443C265.096 148.964 263.733 141.474 262.031 135.224C259.09 124.422 254.554 112.157 253.408 100.401L253.091 97.1499L256.326 97.6035C258.414 97.8966 260.419 98.4013 262.277 98.8917C264.178 99.3937 265.888 99.8694 267.596 100.195C269.955 100.644 272.128 100.766 274.288 100.212C273.481 99.1269 272.592 98.0816 271.639 97.0337C270.806 96.1185 269.947 95.2211 269.053 94.2851C268.168 93.3581 267.253 92.3973 266.358 91.3965C263.254 87.924 260.27 83.952 257.899 79.878C253.575 72.4468 254.022 65.1008 256.018 57.6543L256.018 57.6534C260.506 40.9084 271.927 23.7725 287.363 14.8886C297.194 9.23021 305.886 11.0442 315.299 13.0622C320.367 14.1489 325.447 15.2946 330.504 16.6805Z" fill="#5B6B2C" stroke="#32411A" stroke-width="5.1449"/>
<path opacity="0.8" d="M621.821 427.903C625.573 430.853 628.343 434.725 630.859 438.268C633.452 441.92 635.78 445.227 638.79 447.743C640.074 448.816 642.427 449.926 645.686 450.973C648.872 451.996 652.656 452.877 656.57 453.622C664.394 455.111 672.535 456.015 677.033 456.429C679.918 456.694 682.802 456.789 685.943 456.995C689.003 457.195 692.17 457.497 695.229 458.183C698.061 458.818 700.69 460.568 702.882 462.251C704.004 463.112 705.098 464.027 706.096 464.851C707.115 465.694 708.03 466.44 708.877 467.05C728.132 480.925 747.819 494.953 760.814 516.157L762.008 518.105L760.216 519.52C756.161 522.722 752.613 524.795 748.203 526.136C759.767 536.564 770.479 549.831 771.65 566.712L771.651 566.712C772.43 577.994 768.36 589.797 760.931 598.254C749.732 611.009 735.787 618.108 718.914 619.304L717.945 619.372L717.171 618.783C714.792 616.968 712.446 615.025 710.29 612.765L710.287 612.763C709.33 611.757 708.139 610.324 706.893 608.828C705.619 607.297 704.239 605.641 702.826 604.074C701.408 602.5 700.012 601.079 698.721 600.007C697.729 599.184 696.943 598.692 696.369 598.439C696.07 598.61 695.836 598.895 695.613 599.396C695.214 600.296 694.996 601.614 694.86 603.385C694.741 604.938 694.677 607.134 694.48 608.856C694.279 610.614 693.88 612.71 692.697 614.33L692.317 614.848L691.739 615.129C689.594 616.167 687.778 616.078 686.002 615.858L686.003 615.859C679.384 615.048 668.47 611.579 658.098 607.425C647.738 603.276 637.419 598.243 632.097 594.109L632.097 594.11C630.494 592.866 629.242 591.175 628.298 589.947C623.286 585.552 617.114 582.506 610.864 578.939L605.498 575.876L611.451 574.225C612.985 573.8 614.523 573.501 615.988 573.238C617.487 572.969 618.862 572.745 620.247 572.452C622.169 572.04 623.372 571.578 624.116 570.783C624.097 570.278 623.941 569.602 623.586 568.717C623.095 567.497 622.474 566.422 621.834 565.139C611.267 544.082 597.674 524.684 581.492 507.565L581.484 507.557L581.475 507.548C543.713 466.863 508.002 448.863 455.611 431.334L452.765 430.382L454.141 427.715C457.941 420.342 460.47 413.881 462.178 405.807L462.761 403.05L465.454 403.882C484.496 409.765 503.188 416.5 521.827 423.078C540.489 429.663 559.117 436.097 578.138 441.429C588.468 444.324 598.561 447.783 608.763 448.639C611.255 448.847 612.435 448.707 613.618 447.641C615.324 446.102 616.368 443.41 616.942 439.934C617.508 436.507 617.54 432.897 617.66 429.825L617.858 424.786L621.821 427.903Z" fill="#5B6B2C" stroke="#32411A" stroke-width="5.1449"/>
<path opacity="0.8" d="M439.853 443.595C440.311 444.205 440.579 444.925 440.751 445.498C440.938 446.116 441.083 446.807 441.199 447.509C441.433 448.915 441.586 450.568 441.695 452.182C441.804 453.806 441.872 455.45 441.924 456.852C441.977 458.288 442.012 459.405 442.059 460.077C445.154 504.954 449.856 550.999 468.637 591.831L468.985 592.615C469.335 593.429 469.69 594.324 470.043 595.212C470.526 596.424 471.02 597.661 471.554 598.854C472.606 601.207 473.629 602.943 474.61 603.833L474.806 604L474.808 604.002C474.986 604.144 475.163 604.236 475.299 604.281C475.319 604.287 475.337 604.288 475.353 604.292C475.426 604.24 475.556 604.144 475.739 603.967C476.143 603.578 476.639 602.986 477.212 602.186C478.354 600.593 479.613 598.442 480.862 596.11C483.385 591.395 485.597 586.474 486.69 584.285L491.562 585.492C491.34 595.314 489.519 605.262 488.036 614.633L488.036 614.634C487.439 618.4 486.654 621.773 486.449 625.143L486.416 625.817L486.416 625.819C486.397 626.31 486.513 627.18 486.866 628.482C487.208 629.742 487.727 631.246 488.394 632.937C489.728 636.319 491.59 640.299 493.612 644.324C497.652 652.369 502.245 660.425 504.289 663.906L504.288 663.905C505.979 666.782 507.784 669.569 509.614 672.475C511.201 674.994 512.79 677.578 514.249 680.265L514.865 681.424L515.198 682.061L515.152 682.778C513.016 716.283 510.721 740.17 493.236 770.394C488.833 778.006 482.23 786.88 474.502 794.444C466.811 801.972 457.787 808.42 448.513 810.827C439.87 813.072 433.764 810.486 427.076 806.5L426.996 806.451L426.92 806.398C421.716 802.76 415.766 798.103 410.503 792.811C405.263 787.542 400.569 781.511 398.053 775.107L397.817 774.507L397.892 773.866C398.307 770.332 399.656 766.017 400.656 762.256C401.717 758.263 402.404 754.845 402.065 752.312C401.712 752.39 401.282 752.526 400.77 752.746C399.73 753.195 398.57 753.89 397.347 754.739C396.134 755.582 394.929 756.525 393.794 757.439C392.695 758.322 391.593 759.234 390.717 759.893L387.911 762.002L386.745 758.69C381.703 744.361 378.807 729.114 376.976 714.211C376.526 710.555 376.331 706.768 376.033 703.302C375.847 701.15 375.616 699.054 375.263 697.002L372.614 699.149L371.355 695.82C368.658 688.687 366.438 680.549 365.396 672.931L364.519 666.516L369.559 670.579C374.463 674.533 379.102 678.353 384.279 681.261C390.648 668.837 396.768 656.064 401.448 643.044L401.448 643.042C403.327 637.824 404.762 632.438 406.369 626.935C417.919 587.385 421.883 546.352 414.989 505.701C411.908 487.548 406.588 470.065 400.866 452.417L399.651 448.671L403.569 449.064C415.825 450.292 425.109 447.407 436.845 442.747L438.673 442.022L439.853 443.595Z" fill="#5B6B2C" stroke="#32411A" stroke-width="5.1449"/>
<path opacity="0.8" d="M201.778 272.282L201.946 272.68L202.323 273.575L202.015 274.497C201.384 276.382 200.349 278.124 199.367 279.646C198.32 281.271 197.404 282.551 196.632 283.916C195.683 285.595 195.344 287.034 195.669 288.025C195.916 288.779 196.49 289.723 197.445 290.832C198.383 291.92 199.578 293.042 200.905 294.161C203.651 296.476 206.45 298.381 208.64 300.089L208.639 300.09C231.131 317.631 254.846 329.017 281.661 338.884C287.859 341.164 293.853 343.548 299.989 345.521C304.492 346.969 309.03 348.321 313.601 349.693C318.162 351.061 322.752 352.448 327.31 353.952C334.475 356.316 341.567 359.07 348.535 361.641C354.077 363.686 359.974 365.684 365.554 368.208L368.013 369.321L366.784 371.723C363.138 378.85 361.019 385.398 359.371 393.27L358.704 396.459L355.757 395.069C326.924 381.483 283.642 369.532 251.802 367.546C239.781 366.799 227.636 367.417 215.454 368.164L215.455 368.165C196.694 369.319 173.123 375.122 155.977 382.729L155.976 382.728C154.171 383.528 152.399 384.241 150.696 385.144C149.01 386.037 147.667 386.983 146.775 388.066L146.775 388.064C146.589 388.29 146.413 388.576 146.309 388.834C146.271 388.929 146.252 388.999 146.243 389.042C146.396 389.566 147.028 390.398 148.49 391.476C149.976 392.573 151.495 393.371 152.929 394.273L152.928 394.273C153.97 394.89 154.964 395.53 156.002 396.407L159.455 399.328L155.179 400.803C154.379 401.08 153.581 401.057 153.046 401.008C152.469 400.955 151.886 400.839 151.401 400.731C150.377 400.505 149.817 400.352 149.418 400.304L149.257 400.291C144.561 400.071 139.621 399.987 134.994 400.226L134.993 400.226C132.336 400.362 129.688 401 126.739 401.688C124.059 402.313 121.129 402.979 118.106 403.086L117.5 403.1C114.773 403.128 110.615 402.261 106.052 400.993C101.398 399.7 96.0384 397.907 90.776 395.913C85.5141 393.918 80.3072 391.707 75.9632 389.569C71.7116 387.476 68.0057 385.321 65.9839 383.391L65.4959 382.925L65.299 382.279C64.9235 381.045 65.3276 379.898 65.6044 379.265C65.9243 378.533 66.3933 377.791 66.879 377.101C67.8493 375.721 69.219 374.09 70.5088 372.516C71.844 370.887 73.1514 369.252 74.177 367.696C74.9497 366.523 75.4595 365.539 75.7324 364.755C75.7203 364.754 75.7079 364.753 75.6951 364.752C75.2221 364.717 74.5478 364.762 73.6533 364.923C71.8625 365.247 69.6307 365.954 67.1891 366.829C65.9827 367.261 64.7571 367.722 63.5375 368.182C62.3257 368.64 61.1142 369.1 59.9682 369.513C57.8943 370.263 55.7825 370.962 54.1029 371.209L53.7728 371.251C47.6062 371.952 42.7499 369.323 38.5757 366.038L38.5751 366.036C32.496 361.246 26.8839 353.895 22.6115 345.986C18.3376 338.075 15.2773 329.369 14.4842 321.752C13.3256 310.622 19.1896 299.982 25.5567 292.231C49.795 262.725 87.9249 256.231 123.074 256.443C127.571 256.471 132.364 256.92 136.889 257.23C141.487 257.546 145.882 257.725 149.919 257.295L150.611 257.218L151.731 257.093L152.582 257.832C160.152 264.404 168.254 271.219 176.814 275.824C183.89 275.341 191.37 272.808 198.731 270.8L200.903 270.208L201.778 272.282Z" fill="#5B6B2C" stroke="#32411A" stroke-width="5.1449"/>
<path opacity="0.8" d="M360.844 415.592C361.642 417.018 362.312 418.505 362.929 419.893C363.561 421.315 364.134 422.625 364.788 423.871L365.248 424.721C367.593 428.937 370.6 432.659 373.845 436.619L375.508 438.65L373.446 440.272C368.15 444.437 362.621 448.274 357.277 452.113C351.902 455.974 346.668 459.869 341.786 464.249C312.414 490.601 289.255 520.443 272.553 556.233L272.553 556.234C271.395 558.714 269.789 561.792 268.352 565.11C266.901 568.463 265.922 571.422 265.886 573.369L265.888 573.633C265.898 573.817 265.922 573.912 265.939 573.963C266.001 573.965 266.07 573.969 266.148 573.969C266.669 573.965 267.362 573.893 268.22 573.742C269.933 573.44 272.034 572.873 274.236 572.189C278.705 570.799 283.023 569.117 285.173 568.384L287.755 572.703C283.239 576.903 278.508 580.871 273.586 584.584C268.322 588.591 262.861 591.992 258.995 596.504C257.608 598.123 256.177 600.741 254.764 604.117C253.368 607.449 252.064 611.341 250.867 615.37C248.469 623.447 246.574 631.833 245.249 637.154L245.059 637.943C244.87 638.746 244.686 639.59 244.49 640.48C244.232 641.652 243.955 642.894 243.637 644.127C243.006 646.569 242.168 649.161 240.83 651.385C240.047 652.685 238.728 654.194 237.161 655.77C235.559 657.382 233.565 659.195 231.318 661.116C226.821 664.96 221.215 669.312 215.478 673.472C209.739 677.633 203.834 681.627 198.732 684.75C193.743 687.805 189.215 690.221 186.358 690.964L183.381 691.738L183.146 688.671C183.054 687.47 182.908 686.141 182.638 684.89C182.467 684.093 182.257 683.393 182.016 682.811C181.647 683.14 181.256 683.528 180.846 683.979C179.877 685.046 178.9 686.339 177.888 687.76C175.967 690.455 173.778 693.847 171.605 696.003L171.604 696.003C168.678 698.904 164.137 700.123 160.038 700.688C155.826 701.269 151.47 701.231 148.438 701.177L148.438 701.176C143.602 701.087 137.454 700.734 131.569 699.442C125.737 698.162 119.819 695.888 115.773 691.702L115.667 691.593L115.575 691.472C109.995 684.139 106.787 675.205 105.581 666.261C104.935 661.474 104.41 652.023 105.064 642.922C105.39 638.37 106.019 633.805 107.117 629.912C108.187 626.116 109.824 622.514 112.48 620.39C115.025 618.356 118.313 616.498 120.957 614.79C123.766 612.975 126.081 611.204 127.547 609.085L127.548 609.085C127.628 608.969 127.684 608.874 127.727 608.798C127.484 608.735 127.207 608.674 126.895 608.616C125.78 608.41 124.411 608.276 122.912 608.169C122.17 608.116 121.416 608.071 120.661 608.026C119.912 607.982 119.157 607.937 118.44 607.887C117.046 607.79 115.623 607.66 114.51 607.411L114.49 607.407L114.471 607.402C114.365 607.377 114.262 607.351 114.176 607.329C114.085 607.306 114.011 607.288 113.939 607.271L111.5 606.685L112.024 604.231C112.969 599.805 114.678 595.73 116.508 591.859C123.001 578.137 131.705 567.104 141.063 555.744C141.751 554.909 142.452 553.996 143.23 552.998C143.994 552.019 144.816 550.979 145.687 549.972C147.407 547.985 149.461 545.953 151.925 544.661L151.926 544.661C155.443 542.818 159.558 541.678 163.475 540.7C167.503 539.695 171.287 538.867 174.624 537.653L174.625 537.653C177.275 536.69 179.678 535.602 181.474 534.013C184.092 531.698 186.306 527.752 188.362 523.116C189.373 520.837 190.307 518.489 191.224 516.195C192.13 513.926 193.029 511.69 193.939 509.74L196.594 504.052L198.694 509.967C200.335 514.587 200.934 519.391 201.707 523.732C201.921 524.929 202.062 525.908 202.355 526.816C202.482 527.209 202.617 527.507 202.75 527.735C203.521 527.596 204.533 527.307 205.777 526.832C207.564 526.15 209.584 525.191 211.65 524.122C213.709 523.056 215.765 521.906 217.626 520.852C219.459 519.815 221.153 518.841 222.4 518.186L222.41 518.181L222.419 518.176C253.93 501.934 283.289 481.82 309.812 458.303C317.72 451.228 325.328 443.822 333.077 436.429C340.807 429.054 348.658 421.712 356.962 414.865L359.338 412.906L360.844 415.592Z" fill="#5B6B2C" stroke="#32411A" stroke-width="5.1449"/>
<path d="M735.94 185.003C735.913 185.176 735.911 185.355 735.858 185.522C735.568 186.447 734.149 187.284 733.368 187.729C728.171 190.695 722.15 192.86 716.65 195.249C706.564 199.603 696.514 204.046 686.508 208.58C642.374 228.693 595.44 254.38 555.106 281.378C545.581 287.754 535.98 294.338 527.003 301.461C519.739 307.221 504.59 322.659 497.219 325.598C497.308 325.047 497.487 324.585 497.792 324.106C499.555 321.318 502.49 319.008 504.768 316.647C509.281 311.964 513.553 307.268 518.505 303.008C534.783 289.007 553.264 277.151 571.444 265.789C611.67 240.573 653.714 218.382 697.227 199.397C709.669 194.08 722.633 187.743 735.94 185.003Z" fill="#4C542C"/>
<path d="M303.901 25.1339C304.376 25.4036 304.829 25.6547 305.236 26.0231C308.834 29.2777 318.625 51.5513 321.296 57.1916C341.865 99.7242 358.265 144.15 370.265 189.845C373.083 200.637 375.917 211.401 378.046 222.354C380.185 233.364 381.279 244.348 382.882 255.425C384.696 267.954 386.951 280.415 387.716 293.072C387.497 292.878 387.256 292.707 387.058 292.491C382.019 287.018 376.085 233.664 373.552 221.223C371.447 210.883 368.73 200.63 366.038 190.43C355.52 150.582 341.585 112.757 325.045 75.0272C321.075 65.8633 316.954 56.7658 312.683 47.7383C309.863 41.7377 306.447 35.549 304.357 29.2547C303.86 27.7558 303.731 26.701 303.901 25.1339Z" fill="#4C542C"/>
<path d="M536.25 449.31C551.548 454.183 566.209 461.789 580.599 468.839C607.886 482.069 634.501 496.653 660.336 512.532C673.642 520.827 686.506 529.75 699.435 538.62C716.755 550.501 734.444 562.821 750.458 576.424C748.687 575.912 747.084 575.166 745.416 574.396C739.454 571.32 733.79 567.222 728.268 563.423L706.143 548.088C684.452 533.015 662.705 518.254 639.917 504.854C617.424 491.623 593.919 479.746 570.429 468.401L545.922 456.601C540.205 453.839 534.324 451.187 528.937 447.815C531.463 448.116 533.801 448.628 536.25 449.31Z" fill="#4C542C"/>
<path d="M436.424 553.007C437.857 554.266 438.414 556.125 438.854 557.919C440.115 563.04 440.376 568.592 441.116 573.823C442.452 583.289 444.194 592.632 445.329 602.148C447.422 619.785 449.731 637.42 450.712 655.164C451.968 677.775 451.113 700.252 449.909 722.843C449.19 736.396 448.628 749.883 447.249 763.389C446.393 771.751 445.431 788.577 441.27 795.365C441 794.909 441.034 795.026 440.865 794.443C440.523 793.275 440.703 791.783 440.81 790.576C441.259 785.354 442.152 780.167 442.669 774.948C443.64 764.106 444.409 753.245 444.97 742.375C446.024 720.254 447.407 697.945 447.189 675.803C446.983 654.223 445.067 632.013 442.186 610.613C441.107 602.607 433.981 557.082 436.424 553.007Z" fill="#4C542C"/>
<path d="M258.037 347.217C260.92 348.138 268.354 350.401 270.176 352.811L269.745 353.346C268.335 353.509 267.142 353.326 265.756 353.031C259.419 351.679 253.023 349.285 246.745 347.549C232.273 343.568 217.767 339.709 203.229 335.975C194.499 333.767 185.608 331.961 176.786 330.157C148.591 324.534 120.107 320.468 91.4656 317.975C80.6098 317.067 69.695 316.242 58.8232 315.566C52.4349 315.171 46.0408 315.108 39.6663 314.49C35.0335 314.089 30.5123 313.428 26.0278 312.172C39.1143 310.759 56.3291 312.023 69.7593 312.738C133.763 315.892 197.07 327.485 258.037 347.217Z" fill="#4C542C"/>
<path d="M284.696 499.589C285.431 500.248 286.192 500.776 286.453 501.772C283.836 504.627 280.427 506.994 277.437 509.479C273.047 513.148 268.729 516.898 264.483 520.733C248.803 534.447 233.784 548.897 219.479 564.036C197.559 587.105 177.048 611.476 158.058 637.014C147.48 651.078 137.897 665.96 126.896 679.666L126.014 680.191L125.617 679.629C125.673 679.389 125.725 679.143 125.787 678.905C127.296 673.16 133.301 665.687 136.538 660.579C143.585 649.459 151.557 638.936 159.457 628.414C188.882 588.764 222.393 552.32 259.438 519.678C267.339 512.803 275.644 504.888 284.696 499.589Z" fill="#4C542C"/>
<path opacity="0.85" d="M201.616 126.724C205.85 128.014 212.445 130.127 218.849 132.559C225.159 134.956 231.6 137.776 235.305 140.535C239.648 143.77 243.501 150.016 246.676 156.152C249.896 162.375 252.707 169.089 254.71 173.464C255.309 174.773 255.926 176.368 256.448 177.593C257.015 178.925 257.573 180.085 258.226 181.047C258.346 181.224 258.454 181.362 258.571 181.481C258.763 181.239 258.996 180.825 259.243 180.111C259.798 178.513 260.107 176.259 260.357 173.604C260.593 171.088 260.778 168.173 261.148 165.751C261.336 164.518 261.588 163.293 261.96 162.199C262.323 161.133 262.868 159.987 263.765 159.099L264.623 158.249L265.826 158.366C267.836 158.564 269.401 159.434 270.589 160.071C284.158 167.349 298.171 179.22 309.322 189.494C341.937 219.542 359.867 252.933 371.571 295.166C374.435 305.5 376.59 316.451 379.165 326.625L379.165 326.626C381.309 335.099 383.963 343.456 386.49 351.965L387.034 353.798L385.436 354.847C379.229 358.921 373.971 363.298 368.949 368.731L367.573 370.221L365.804 369.23C358.395 365.079 347.765 361.93 339.122 358.86C328.09 354.941 316.98 351.259 305.838 347.56C294.705 343.864 283.541 340.151 272.447 336.187L272.39 336.167L272.333 336.143C244.296 324.592 218.573 311.309 196.275 289.852L195.006 288.631L195.685 287.007C197.408 282.886 199.81 279.222 201.992 275.8C203.434 273.538 204.789 271.366 205.922 269.129C202.494 269.606 198.531 270.644 194.307 271.861C188.517 273.53 182.252 275.53 177.058 276.318L176.022 276.476L175.171 275.866C167.299 270.213 159.161 263.994 151.953 257.367L151.952 257.367C139.125 245.572 126.166 231.706 118.258 215.576L117.885 214.807C116.506 211.923 114.597 208.099 114.432 204.085L114.408 203.484L114.652 202.934C115.123 201.876 115.917 201.063 116.698 200.445C117.495 199.815 118.433 199.266 119.401 198.781C121.33 197.814 123.695 196.944 125.98 196.136C128.328 195.305 130.603 194.536 132.588 193.723C133.937 193.169 134.99 192.652 135.751 192.183C134.873 191.927 133.786 191.688 132.512 191.469C129.449 190.943 125.589 190.575 121.537 190.273C117.342 189.959 113.506 189.751 109.714 189.475C106.162 189.216 102.919 188.914 100.891 188.434L99.8221 188.181L99.2652 187.232C95.3019 180.477 93.5955 171.926 93.2741 163.476C92.9516 154.995 94.0152 146.386 95.7891 139.343C97.5335 132.416 101.062 124.77 108.167 120.691C113.114 117.851 119.178 116.915 124.159 116.272C150.417 112.882 177.082 119.738 201.571 126.711L201.593 126.717L201.616 126.724Z" fill="#8E923D" stroke="#445C1B" stroke-width="5.1449"/>
<path d="M115.6 141.584C127.329 144.766 138.93 151.276 149.637 156.928C180.141 172.671 209.287 190.916 236.776 211.474C249.698 221.207 261.823 232.116 273.768 243.004C302.74 269.413 329.452 297.065 352.825 328.616C356.026 332.938 363.76 341.872 364.501 347.133C358.71 343.137 350.241 330.675 345.537 324.805C338.619 316.024 331.411 307.477 323.923 299.177C297.772 270.379 269.497 243.584 239.336 219.018C213.296 198.113 183.907 180.085 154.575 164.193C148.869 161.102 117.326 145.489 115.382 143.058L115.6 141.584Z" fill="#5B6B2C"/>
<path opacity="0.85" d="M717.908 319.72C718.601 320.543 718.675 321.483 718.606 322.11C718.541 322.708 718.332 323.229 718.151 323.605C717.783 324.369 717.211 325.174 716.626 325.92C715.433 327.442 713.719 329.3 712.073 331.097C710.381 332.944 708.73 334.759 707.504 336.332C707.184 336.742 706.908 337.118 706.676 337.457C707.29 337.479 708.053 337.436 708.96 337.318C710.98 337.055 713.43 336.466 716.02 335.732C718.598 335.002 721.215 334.157 723.578 333.402C725.883 332.665 728.045 331.982 729.554 331.647C731.862 331.134 734.64 330.624 737.393 330.869L737.393 330.869C742.05 331.286 746.919 333.071 750.834 334.368C764.221 338.803 776.883 343.98 788.933 351.785L788.932 351.785C794.464 355.367 802.64 362.178 809.736 369.686C813.293 373.449 816.626 377.438 819.238 381.337C821.824 385.197 823.827 389.151 824.513 392.823C825.374 397.42 823.628 403.015 821.46 407.829C819.23 412.78 816.28 417.492 814.061 420.57L814.06 420.569C804.823 433.381 788.207 445.907 772.009 448.409L772.008 448.41C770.999 448.565 769.555 448.772 768.099 448.809C766.726 448.843 764.932 448.745 763.437 447.99C761.85 447.188 760.349 445.789 759.013 444.351C757.641 442.874 756.235 441.123 754.879 439.425C753.498 437.695 752.162 436.012 750.848 434.542C749.706 433.264 748.671 432.252 747.746 431.559C747.173 432.783 746.691 434.407 746.267 436.323C745.976 437.64 745.731 438.992 745.49 440.326C745.254 441.633 745.015 442.952 744.747 444.101L744.492 445.158C743.837 447.718 742.702 450.847 739.498 452.689C737.047 454.1 734.164 454.867 731.439 455.363C728.722 455.856 725.89 456.121 723.633 456.392C696.559 459.648 667.17 457.528 640.849 450.403L640.147 450.213L639.649 449.683C638.506 448.47 636.759 446.236 634.809 443.732C632.814 441.17 630.518 438.209 628.179 435.379C625.831 432.539 623.499 429.905 621.444 427.982C620.415 427.019 619.515 426.289 618.764 425.809C618.561 425.679 618.38 425.574 618.22 425.491C618.164 425.676 618.099 425.906 618.038 426.189C617.684 427.824 617.523 430.161 617.352 432.923C617.188 435.578 617.017 438.564 616.596 441.16C616.384 442.465 616.097 443.755 615.68 444.912C615.271 446.048 614.68 447.221 613.765 448.139L613.766 448.141C613.55 448.357 613.236 448.637 613.152 448.716L612.349 449.464L611.254 449.401C602.108 448.886 592.863 446.014 584.535 443.764C575.01 441.191 565.328 438.663 555.834 435.548C542.433 431.151 529.102 425.908 515.953 421.255L515.948 421.253C498.892 415.178 481.667 409.584 464.295 404.476L462.601 403.978L462.458 402.218C461.805 394.256 460.556 387.231 458.209 379.668L457.719 378.09L458.951 376.988C467.34 369.489 475.441 361.859 484.944 355.238L484.953 355.232L484.962 355.226C513.143 335.947 544.236 321.318 577.057 311.901L577.067 311.897C584.43 309.819 592.632 307.438 600.805 307.269L603.453 307.214L603.431 309.863C603.409 312.473 603.92 315.095 604.451 318.027L604.757 319.768C604.852 320.277 604.953 320.73 605.098 321.176C605.136 321.293 605.176 321.403 605.217 321.505C606.158 320.494 607.043 319.178 607.914 317.638C608.501 316.599 609.053 315.514 609.602 314.413C610.142 313.333 610.694 312.209 611.241 311.189L611.709 310.313L612.645 309.981C617.896 308.11 624.119 307.823 629.083 307.486L631.351 307.344C654.51 306.009 669.373 308.898 692.027 313.583L695.056 314.199C702.161 315.625 709.505 316.995 716.606 318.892L717.387 319.101L717.908 319.72Z" fill="#B3B84B" stroke="#445C1B" stroke-width="5.1449"/>
<path d="M797.106 393.762C797.195 393.782 797.284 393.8 797.371 393.824C799.195 394.331 804.432 395.694 805.304 397.269C802.336 397.934 798.807 397.157 795.835 396.665C785.438 394.945 775.149 392.19 764.816 390.086C744.708 385.992 724.389 382.169 704.153 378.779C689.557 376.417 674.882 374.575 660.152 373.256C628.067 370.648 592.456 370.344 560.342 373.169C535.549 375.349 511.211 379.343 486.747 383.841C484.85 384.165 483.016 384.64 481.108 384.226L480.837 383.648C481.225 383.277 481.577 382.953 482.047 382.683C487.706 379.442 506.667 376.648 514.138 375.16C536.413 370.724 559.04 368.743 581.706 367.749C609.314 366.409 636.981 366.921 664.523 369.282C690.785 371.759 716.731 376.466 742.587 381.544C760.806 385.122 779.246 388.637 797.106 393.762Z" fill="#5B6B2C"/>
<path opacity="0.85" d="M377.148 438.927C383.962 444.161 390.741 446.878 399.176 449.217L400.589 449.609L400.972 451.024C403.078 458.811 405.83 466.201 408.271 474.167C428.898 541.498 418.118 618.338 385.411 679.871L383.917 682.683L381.482 680.63C379.943 679.332 376.111 676.098 372.248 673.221C370.31 671.778 368.419 670.465 366.836 669.538C366.187 669.157 365.625 668.865 365.161 668.658C364.953 669.578 364.903 670.94 365.105 672.767C365.354 675.022 365.942 677.638 366.701 680.334C368.219 685.726 370.328 691.112 371.448 694.068L371.81 695.024L371.417 695.968C359.577 724.42 345.56 751.863 319.749 770.976L318.512 771.88C305.443 781.285 288.734 789.379 271.497 786.525L271.271 786.487L271.055 786.41C270.325 786.15 269.584 785.873 268.845 785.571L268.838 785.569C263.097 783.206 257.706 777.281 253.39 771.163C249.002 764.942 245.399 758.046 243.349 753.121L242.844 751.902C237.699 739.286 234.861 725.845 234.467 712.221L234.467 712.22C234.028 698.804 237.042 676.546 241.379 654.691C245.722 632.808 251.465 610.958 256.618 598.349L256.876 597.717L257.412 597.296C261.006 594.478 269.36 588.51 277.163 582.007C281.037 578.779 284.656 575.513 287.343 572.574C288.687 571.104 289.751 569.766 290.49 568.598C290.89 567.967 291.158 567.438 291.333 567.008C290.522 567.09 289.599 567.256 288.568 567.505C286.579 567.987 284.377 568.734 282.096 569.599C279.814 570.465 277.534 571.417 275.35 572.309C273.202 573.186 271.117 574.016 269.351 574.572L264.432 576.12L266.154 571.26C281.197 528.79 312.782 487.799 346.914 459.103C355.563 451.831 365.279 445.506 374.033 438.912L375.596 437.735L377.148 438.927Z" fill="#8E923D" stroke="#445C1B" stroke-width="5.1449"/>
<path d="M384.625 451.868C384.72 452.008 384.837 452.138 384.912 452.294C385.533 453.583 384.924 455.286 384.532 456.595C382.738 462.591 379.788 468.55 377.341 474.319C372.51 485.726 367.577 497.077 362.93 508.565C340.593 563.348 320.632 619.071 303.105 675.581C297.221 694.605 291.81 713.772 286.878 733.064C285.04 739.995 283.036 746.869 281.159 753.785C280.102 757.682 279.316 762.08 277.695 765.76C277.321 766.613 277.32 766.851 276.415 767.175L275.931 766.343C277.084 753.608 281.119 740.556 284.081 728.118C293.857 687.124 307.741 645.259 321.645 605.439C336.366 563.279 351.903 521.128 370.487 480.493C374.823 471.01 378.743 460.525 384.625 451.868Z" fill="#5B6B2C"/>
<path d="M427.622 351.532C454.42 360.362 469.003 389.221 460.217 416.031C451.436 442.842 422.596 457.475 395.775 448.734C368.887 439.972 354.213 411.054 363.018 384.182C371.824 357.31 400.766 342.683 427.622 351.532Z" fill="#746E35" stroke="#1A200F" stroke-width="5.1449"/>
</svg>
