<svg width="63" height="64" viewBox="0 0 63 64" fill="none" xmlns="http://www.w3.org/2000/svg">
<circle cx="30" cy="35" r="20" fill="#A88F33" fill-opacity="0.4"/>
<path d="M50.773 45.3947C50.9763 45.395 51.1762 45.3434 51.354 45.2449C51.5318 45.1464 51.6815 45.0041 51.789 44.8316C54.1053 41.121 55.3294 36.842 55.3294 32.4569C55.3294 31.7962 54.7939 31.2605 54.1331 31.2605C53.4722 31.2605 52.9367 31.7962 52.9367 32.4569C52.9367 36.3934 51.8378 40.2344 49.7591 43.5646C49.5912 43.8338 49.537 44.1586 49.6085 44.4677C49.68 44.7768 49.8714 45.0449 50.1405 45.2129C50.3301 45.3318 50.5493 45.3948 50.773 45.3947ZM16.8481 31.4578C16.5853 31.5558 16.3653 31.7431 16.2265 31.9868C16.0877 32.2305 16.0389 32.5152 16.0886 32.7912C16.1383 33.0673 16.2834 33.3171 16.4986 33.497C16.7137 33.677 16.9853 33.7756 17.2657 33.7757C17.4044 33.7757 17.5455 33.7515 17.683 33.7003C20.3158 32.7199 22.1772 31.1318 23.2251 28.9804L26.931 30.0743C27.0411 30.107 27.1553 30.1236 27.2701 30.1236C27.5578 30.1236 27.8358 30.0199 28.0533 29.8316C28.2707 29.6432 28.4131 29.3828 28.4541 29.0981C28.4952 28.8134 28.4323 28.5234 28.277 28.2812C28.1216 28.0391 27.8842 27.861 27.6083 27.7797L23.9801 26.7086C24.6472 23.2984 23.4317 20.1394 23.3696 19.9818C23.2534 19.6872 23.0251 19.4508 22.7349 19.3244C22.4446 19.198 22.116 19.1919 21.8212 19.3075C21.2067 19.5477 20.9035 20.2413 21.1423 20.8561C21.1568 20.8932 22.5709 24.6125 21.1618 27.7519C20.4106 29.4248 18.9593 30.6717 16.8481 31.4578Z" fill="#A88F33"/>
<path d="M1.76476 23.2338L4.43012 24.5133C3.69921 27.0364 3.30633 29.7014 3.30633 32.4567C3.30633 33.5349 3.36838 34.5987 3.4853 35.6462L0.909916 36.2814C0.601842 36.3574 0.336569 36.5527 0.172455 36.8242C0.00834151 37.0958 -0.0411705 37.4214 0.0348116 37.7295C0.110794 38.0376 0.306045 38.3029 0.577614 38.467C0.849183 38.6311 1.17482 38.6806 1.4829 38.6046L3.85155 38.0203C4.812 42.8698 7.00247 47.2813 10.0835 50.9164C9.00822 51.3369 7.82398 51.6602 6.52631 51.8215C6.21486 51.8646 5.93292 52.0287 5.74146 52.2781C5.54999 52.5275 5.46439 52.8422 5.50317 53.1542C5.54195 53.4663 5.70199 53.7505 5.94868 53.9455C6.19537 54.1404 6.50888 54.2304 6.82142 54.196C8.54991 53.9828 10.2364 53.5104 11.8242 52.7947C14.9409 55.8711 18.7588 58.238 23.0136 59.6322C22.1043 60.5304 21.008 61.2162 19.7215 61.677C19.4228 61.784 19.1788 62.0053 19.0433 62.2922C18.9077 62.5791 18.8917 62.9081 18.9987 63.2068C19.0516 63.3548 19.1331 63.4909 19.2387 63.6073C19.3442 63.7237 19.4716 63.8182 19.6137 63.8854C19.7558 63.9525 19.9097 63.991 20.0667 63.9986C20.2236 64.0062 20.3806 63.9828 20.5285 63.9297C22.5875 63.1921 24.2847 61.9798 25.583 60.343C27.6548 60.8115 29.7723 61.0475 31.8964 61.0468C36.6882 61.0468 41.2073 59.86 45.1783 57.7678C45.4865 58.9306 45.695 60.1382 45.802 61.3893C45.8141 61.5468 45.8573 61.7003 45.9291 61.841C46.0008 61.9817 46.0998 62.1069 46.2201 62.2092C46.3405 62.3115 46.4799 62.3889 46.6304 62.437C46.7808 62.4852 46.9393 62.503 47.0967 62.4896C47.2541 62.4761 47.4073 62.4316 47.5474 62.3587C47.6875 62.2857 47.8118 62.1857 47.913 62.0645C48.0143 61.9433 48.0906 61.8032 48.1374 61.6523C48.1843 61.5015 48.2008 61.3428 48.186 61.1856C48.0488 59.5797 47.7521 58.0251 47.3037 56.5307C48.8324 55.5485 50.2647 54.4238 51.5814 53.1716L53.2851 54.8831C53.3961 54.9949 53.5282 55.0836 53.6737 55.144C53.8193 55.2045 53.9753 55.2355 54.1329 55.2353C54.3693 55.2353 54.6004 55.1653 54.7971 55.034C54.9937 54.9028 55.1471 54.7163 55.2378 54.498C55.3285 54.2796 55.3525 54.0393 55.3067 53.8074C55.261 53.5755 55.1475 53.3623 54.9807 53.1948L53.2447 51.4509C54.3435 50.2175 55.3341 48.8917 56.2053 47.4882L57.7967 48.4279C57.9319 48.5079 58.0816 48.5604 58.2372 48.5824C58.3928 48.6045 58.5512 48.5957 58.7034 48.5565C58.8555 48.5173 58.9985 48.4485 59.1241 48.3541C59.2496 48.2596 59.3554 48.1414 59.4352 48.006C59.5151 47.8707 59.5676 47.721 59.5896 47.5655C59.6116 47.4099 59.6028 47.2516 59.5636 47.0994C59.5244 46.9473 59.4557 46.8044 59.3612 46.6788C59.2668 46.5532 59.1486 46.4475 59.0133 46.3676L57.3822 45.4045C59.1955 41.8498 60.285 37.8678 60.4595 33.6534H61.7064C62.3673 33.6534 62.9028 33.1178 62.9028 32.457C62.9028 31.7963 62.3673 31.2607 61.7064 31.2607H60.4619C60.2932 27.12 59.2487 23.1376 57.3936 19.5029L59.0133 18.5464C59.2832 18.3835 59.4779 18.1206 59.5551 17.8149C59.6322 17.5092 59.5856 17.1854 59.4253 16.9139C59.265 16.6424 59.004 16.4452 58.699 16.3651C58.3941 16.285 58.0699 16.3285 57.7968 16.4861L56.217 17.419C55.7632 16.6879 55.2771 15.9774 54.7603 15.2894C54.2098 14.5581 53.6241 13.8538 53.0053 13.1792C53.7052 11.1945 53.982 9.90754 54.0064 9.79061C54.0714 9.48028 54.0104 9.15686 53.8369 8.89147C53.6634 8.62608 53.3917 8.44044 53.0814 8.37539C52.4353 8.23948 51.8013 8.65342 51.6646 9.29946C51.6601 9.32052 51.4987 10.0643 51.1069 11.2936C49.2922 9.65037 47.2768 8.24353 45.1088 7.1066C46.8059 5.78118 48.2404 5.19113 48.2584 5.18379C48.5524 5.06569 48.7875 4.8358 48.9122 4.54456C49.0369 4.25333 49.041 3.92452 48.9236 3.63026C48.806 3.33556 48.5762 3.09964 48.2847 2.97438C47.9932 2.84913 47.6638 2.84481 47.3691 2.96237C47.2697 3.00193 45.0641 3.89682 42.7136 5.98935C41.9061 5.65691 41.0833 5.36255 40.2481 5.10722C40.0974 5.05957 39.9386 5.04229 39.7812 5.05637C39.6237 5.07044 39.4705 5.1156 39.3306 5.18923C39.1906 5.26286 39.0667 5.3635 38.9659 5.48534C38.8651 5.60717 38.7894 5.74778 38.7433 5.89903C38.6972 6.05028 38.6815 6.20917 38.6972 6.36652C38.7128 6.52387 38.7595 6.67655 38.8346 6.81574C38.9096 6.95492 39.0115 7.07785 39.1344 7.17742C39.2572 7.27698 39.3986 7.35121 39.5503 7.3958C40.0058 7.53474 40.4573 7.68739 40.9042 7.8517C38.9234 10.2183 37.0301 13.7685 37.0301 18.6959C37.0301 19.3566 37.5656 19.8923 38.2264 19.8923C38.8873 19.8923 39.4228 19.3566 39.4228 18.6959C39.4228 14.8626 40.7015 11.5496 43.2236 8.83527C45.8085 10.0841 48.1739 11.7438 50.2276 13.7496C49.4948 15.6004 48.6303 17.3964 47.6408 19.1236C47.5114 19.0515 47.3803 18.9825 47.2476 18.9167C45.1423 17.8744 43.1049 17.8624 43.0193 17.8624C42.3603 17.8624 41.8277 18.3954 41.8253 19.0543C41.8229 19.7133 42.3558 20.2502 43.0148 20.2552C43.0311 20.2552 44.6471 20.2769 46.2563 21.0963C46.3008 21.119 46.3425 21.1442 46.386 21.1676C46.2157 21.4279 46.0423 21.6862 45.8658 21.9424C44.3576 24.1244 42.6653 26.0927 40.8085 27.8333C33.5679 27.2289 31.5135 21.0126 31.4284 20.7436C31.3817 20.5936 31.306 20.4542 31.2056 20.3334C31.1051 20.2127 30.9818 20.1129 30.8428 20.0397C30.7037 19.9666 30.5516 19.9216 30.3952 19.9072C30.2387 19.8929 30.081 19.9095 29.931 19.9561C29.7809 20.0027 29.6416 20.0784 29.5208 20.1789C29.4 20.2794 29.3002 20.4026 29.2271 20.5417C29.154 20.6807 29.1089 20.8328 29.0946 20.9893C29.0802 21.1457 29.0968 21.3034 29.1434 21.4535C29.1699 21.5394 29.8142 23.5833 31.5942 25.6767C32.9214 27.2372 35.1097 29.0743 38.4242 29.8727C37.8121 30.3493 37.1835 30.8045 36.5397 31.2374C32.0543 34.249 26.8311 36.1546 21.015 36.9013C20.8592 36.9213 20.7088 36.9718 20.5725 37.0499C20.4362 37.1281 20.3166 37.2323 20.2206 37.3566C20.1245 37.4809 20.0539 37.623 20.0128 37.7746C19.9717 37.9262 19.9608 38.0845 19.9808 38.2403C20.0009 38.3961 20.0514 38.5465 20.1295 38.6828C20.2076 38.8191 20.3118 38.9387 20.4361 39.0348C20.5605 39.1308 20.7025 39.2014 20.8541 39.2426C21.0057 39.2837 21.164 39.2946 21.3198 39.2746C27.5293 38.4773 33.1157 36.4303 37.9238 33.1902C41.7706 30.5979 45.1234 27.2447 47.8893 23.2235C48.0071 23.0515 48.1236 22.8787 48.2388 22.705C49.0279 23.7129 49.479 25.0057 49.5802 26.5763C49.6055 26.8892 49.7528 27.1796 49.9902 27.3849C50.2277 27.5902 50.5363 27.694 50.8496 27.6738C51.1629 27.6537 51.4557 27.5112 51.6649 27.2772C51.8741 27.0431 51.9829 26.7363 51.968 26.4227C51.7912 23.6797 50.7816 21.8291 49.5637 20.5835C50.4854 19.0059 51.3074 17.3722 52.0249 15.6919C52.308 16.03 52.5824 16.3754 52.8478 16.7276C56.2797 21.2909 58.0937 26.7301 58.0937 32.4569C58.0937 41.5136 53.4735 49.5111 46.4669 54.2177C45.4093 51.735 43.899 49.4519 41.9623 47.422C43.1279 46.3793 43.9966 45.2737 44.6304 44.2866C46.3077 41.674 46.7369 39.3288 46.7543 39.2302C46.8693 38.581 46.4371 37.9629 45.7881 37.846C45.1392 37.7295 44.5178 38.161 44.3989 38.8096C44.3952 38.8297 44.0122 40.8536 42.5658 43.0728C41.8945 44.1028 41.1126 45.0009 40.2279 45.7706C40.0642 45.6285 39.8988 45.4885 39.7316 45.3506C35.9806 42.2596 32.4099 41.0251 32.2596 40.9741C31.6352 40.7613 30.9565 41.0958 30.7432 41.7205C30.53 42.3451 30.8637 43.0248 31.488 43.239C31.5212 43.2504 34.8136 44.3997 38.2092 47.1974C37.0425 47.8588 35.7468 48.3526 34.322 48.6699C34.0188 48.7452 33.7572 48.936 33.5928 49.2016C33.4285 49.4672 33.3745 49.7865 33.4424 50.0914C33.5102 50.3963 33.6946 50.6625 33.9561 50.8333C34.2176 51.0041 34.5356 51.0658 34.842 51.0054C36.9168 50.5433 38.6316 49.7794 40.0448 48.8762C41.9778 50.8411 43.4375 53.0421 44.4136 55.4651C40.6924 57.4977 36.4269 58.6542 31.8964 58.6542C30.2345 58.6543 28.5764 58.4964 26.9444 58.1827C27.3435 57.3744 27.6733 56.4983 27.9295 55.5566C29.24 55.7794 30.5669 55.8911 31.8962 55.8904C32.5571 55.8904 33.0926 55.3548 33.0926 54.694C33.0926 54.0333 32.5571 53.4977 31.8962 53.4977C30.7105 53.4977 29.5434 53.3996 28.398 53.2082C28.7561 50.5166 28.469 48.3967 28.4545 48.2925C28.3628 47.6388 27.7587 47.1826 27.1055 47.2745C26.4516 47.3651 25.9949 47.969 26.0847 48.623C26.0876 48.6446 26.3226 50.4177 26.0533 52.6741C24.805 52.3119 23.5931 51.8341 22.4334 51.2471C22.1503 51.1039 21.8218 51.079 21.5203 51.178C21.2189 51.277 20.9691 51.4917 20.8259 51.7748C20.6827 52.058 20.6579 52.3864 20.7568 52.6879C20.8558 52.9894 21.0705 53.2392 21.3536 53.3823C22.7092 54.0686 24.1285 54.6208 25.5915 55.0309C25.3267 55.9789 24.9772 56.8355 24.5473 57.6036C20.5731 56.4403 16.988 54.3584 14.0373 51.6042C17.8264 49.2139 19.729 46.091 19.8456 45.8955C20.0076 45.6234 20.0551 45.2981 19.9776 44.991C19.9 44.684 19.7038 44.4202 19.432 44.2577C18.8658 43.9187 18.1317 44.103 17.7917 44.6681C17.7655 44.7114 15.924 47.7018 12.3096 49.8331C8.1998 45.2056 5.69938 39.1183 5.69938 32.457C5.69938 30.0726 6.02144 27.7622 6.62122 25.5652L9.42855 26.9127C9.58983 26.9904 9.76652 27.0308 9.94554 27.0309C10.2167 27.0309 10.4798 26.9389 10.6918 26.7698C10.9038 26.6007 11.052 26.3646 11.1123 26.1002C11.1726 25.8358 11.1413 25.5588 11.0235 25.3145C10.9057 25.0703 10.7085 24.8733 10.4641 24.7558L7.36441 23.2678C7.97552 21.6425 8.7472 20.0822 9.66798 18.6101C11.0846 21.3584 13.3609 23.3772 16.3854 24.5323C16.5321 24.5885 16.6885 24.6153 16.8456 24.611C17.0027 24.6067 17.1575 24.5715 17.3009 24.5073C17.4444 24.4432 17.5738 24.3513 17.6817 24.2371C17.7897 24.1229 17.874 23.9885 17.93 23.8416C18.0431 23.5452 18.0339 23.2159 17.9044 22.9263C17.7748 22.6366 17.5355 22.4103 17.2391 22.2971C14.3408 21.1903 12.3415 19.1826 11.2703 16.3241C14.2887 12.4735 18.3602 9.48705 23.0469 7.79969C23.4786 8.57111 23.8333 9.42101 24.1061 10.3518C21.9852 11.1014 19.9703 12.1612 18.1128 13.5164C17.8593 13.7045 17.6905 13.9851 17.643 14.2972C17.5956 14.6092 17.6733 14.9273 17.8593 15.1823C18.0454 15.4372 18.3246 15.6083 18.6362 15.6583C18.9478 15.7084 19.2666 15.6332 19.523 15.4493C21.0989 14.2995 22.8009 13.3863 24.5904 12.7214C24.7531 14.0487 24.6937 14.9672 24.6928 14.9811C24.681 15.1451 24.7032 15.3098 24.7579 15.4648C24.8127 15.6199 24.8988 15.762 25.0109 15.8823C25.123 16.0025 25.2587 16.0984 25.4095 16.1639C25.5603 16.2294 25.723 16.2632 25.8874 16.263C26.1893 16.2627 26.4799 16.1482 26.701 15.9426C26.922 15.737 27.0572 15.4554 27.0793 15.1543C27.0847 15.0813 27.1725 13.8007 26.9099 12.0119C28.5424 11.6154 30.2165 11.4156 31.8965 11.4167C32.5574 11.4167 33.0929 10.8811 33.0929 10.2203C33.0929 9.55963 32.5574 9.02398 31.8965 9.02398C30.0233 9.02398 28.1814 9.24299 26.3983 9.67209C26.1278 8.75057 25.7863 7.88488 25.3741 7.08171C27.5051 6.53445 29.6966 6.25822 31.8967 6.25957C32.7152 6.25957 33.5292 6.29689 34.3165 6.37075C34.9749 6.43312 35.5576 5.94899 35.6193 5.29131C35.634 5.13488 35.6177 4.9771 35.5714 4.82697C35.5251 4.67684 35.4497 4.53731 35.3494 4.41633C35.2492 4.29535 35.1261 4.19531 34.9872 4.12191C34.8483 4.04851 34.6963 4.00319 34.5399 3.98854C34.0585 3.94401 33.576 3.91204 33.0929 3.89267V1.19637C33.0929 0.535655 32.5574 0 31.8965 0C31.2357 0 30.7002 0.535655 30.7002 1.19637V3.89363C28.4376 3.98581 26.1942 4.34765 24.0174 4.97148C22.8338 3.47346 21.3375 2.28666 19.5594 1.46228C18.9603 1.18409 18.2488 1.44506 17.9708 2.04436C17.8374 2.33224 17.8238 2.66132 17.9329 2.95923C18.0421 3.25715 18.2652 3.49949 18.553 3.63298C19.7242 4.17597 20.7334 4.8989 21.5805 5.7933C17.3145 7.44956 13.5421 10.1013 10.5487 13.462C10.215 11.1238 10.4973 9.26214 10.5038 9.22034C10.5516 8.90851 10.4742 8.59044 10.2886 8.33536C10.103 8.08028 9.82416 7.90883 9.51276 7.85834C9.20136 7.80784 8.88263 7.88238 8.62591 8.06573C8.3692 8.24908 8.1953 8.52641 8.14205 8.83735C8.12243 8.95746 7.67164 11.8181 8.42982 15.161C8.48549 15.4062 8.54706 15.6469 8.61262 15.8844C7.21187 17.8466 6.06519 19.9782 5.19994 22.2284L2.80082 21.0767C2.51474 20.9394 2.18584 20.9213 1.88645 21.0265C1.58706 21.1317 1.34172 21.3515 1.20438 21.6375C1.13636 21.7792 1.09689 21.9328 1.08824 22.0896C1.07958 22.2465 1.10191 22.4035 1.15395 22.5518C1.20599 22.7 1.28671 22.8365 1.39152 22.9535C1.49632 23.0706 1.62315 23.1658 1.76476 23.2338Z" fill="#A88F33"/>
</svg>
