<svg width="178" height="178" viewBox="0 0 178 178" fill="none" xmlns="http://www.w3.org/2000/svg">
<circle cx="89" cy="89" r="89" fill="#292A2A"/>
<path d="M87.5418 3.74707C87.3783 3.79895 87.2139 3.85427 87.0526 3.91211C86.0552 4.27178 85.2495 5.0692 84.8279 6.03906C84.3665 7.11615 84.3576 8.33375 84.8045 9.41699C85.3553 10.7447 86.3915 11.5174 87.6619 12.0752C85.3269 11.7888 82.6534 12.1296 80.3123 12.3633C71.9323 13.241 63.7694 15.571 56.1883 19.248C54.1021 20.2555 52.1311 21.4838 50.0633 22.5205C48.6064 23.477 47.1595 24.449 45.7234 25.4365C28.9144 38.0478 17.525 53.9256 14.5096 75.04C13.6961 80.736 13.5261 86.3449 13.8602 92.0811C13.9824 94.1799 14.093 96.3025 14.6043 98.3516C15.0174 100.263 15.4113 102.179 15.7859 104.1C17.7083 111.038 20.2504 117.696 23.8631 123.944C24.7553 125.488 25.8409 126.9 26.8592 128.359C33.443 137.958 42.1537 145.906 52.3123 151.587C54.5455 152.856 56.9241 153.726 59.2684 154.751C61.9005 155.9 64.4817 157.045 67.2205 157.935C72.2092 159.539 77.3782 160.516 82.6082 160.844C84.2758 160.964 85.964 161.13 87.6356 161.158C94.8478 161.281 102.014 159.913 108.929 157.974C112.479 156.978 116.102 155.48 119.474 154.012C123.672 152.185 127.686 150.2 131.512 147.666C141.268 141.2 149.16 131.59 154.836 121.431C155.961 119.416 156.846 117.26 157.986 115.258C159.171 112.646 159.868 109.796 160.782 107.085L161.034 106.174C166.209 87.0216 163.515 67.269 153.826 49.9521C151.859 46.4372 149.461 43.2128 146.902 40.1123C137.015 27.8843 123.583 19.0181 108.453 14.7324C104.146 13.5652 99.7527 12.7398 95.3152 12.2656C93.8761 12.1028 92.3762 12.2212 90.9598 11.9932C92.1283 11.298 93.0086 10.1879 93.3162 8.84961C93.5805 7.6971 93.3239 6.61009 92.6697 5.63672C92.1845 4.91714 91.5844 4.39342 90.8924 3.87988C95.5648 4.25366 100.097 4.64761 104.703 5.55957C123.602 9.34942 140.65 19.4539 153.046 34.2139C167.468 51.2096 174.456 73.2872 172.442 95.4854C172.072 100.415 171.215 105.297 169.883 110.058C169.595 111.095 169.324 112.199 168.936 113.217L168.763 113.647L168.577 114.338C168.126 115.944 167.559 117.517 166.883 119.043C166.475 120.488 165.685 121.97 165.054 123.33C160.99 132.081 154.956 140.655 148.212 147.553C138.233 157.761 124.213 166.078 110.436 169.883C104.179 171.645 97.7083 172.54 91.2068 172.544C87.1615 172.586 83.1042 172.619 79.0789 172.163C61.1619 170.13 42.7657 161.636 29.8719 148.964C15.7618 135.097 6.73521 117.868 4.45001 98.1328C4.12772 95.3485 3.85277 92.549 3.82989 89.7441C3.48937 67.122 12.2391 45.3083 28.118 29.1914C30.6685 26.5983 33.4017 24.2773 36.2332 22.001C51.3845 9.82104 68.1 3.92145 87.5418 3.74707Z" fill="#515658"/>
<path d="M86.1468 25.5873C87.6978 25.5227 89.252 25.5089 90.8041 25.5457C91.4236 25.5838 92.0442 25.6355 92.6637 25.6413C94.3111 25.6735 103.341 26.6289 104.234 27.5024C105.341 27.5197 106.307 28.1878 107.355 28.28C112.68 30.201 118.669 32.7166 123.162 36.2445C123.575 36.4784 124.353 36.8909 124.627 37.2826C128.999 39.9512 134.402 45.8575 137.563 49.9199C138.042 50.535 139.051 51.5905 139.205 52.3297C139.227 52.4343 139.223 52.4646 139.225 52.5614C139.786 52.8406 141.708 55.8957 142.061 56.6199C142.919 57.8756 143.563 59.4118 144.236 60.7747C149.959 72.3682 151.35 86.4046 148.969 99.0399C148.507 101.491 147.359 106.434 146.192 108.506C145.271 111.311 143.822 114.307 142.211 116.781C141.668 118.135 140.164 120.786 139.2 121.829C138.136 124.193 132.329 130.196 130.136 131.792C129.566 132.343 128.923 132.827 128.306 133.323C122.216 138.326 114.856 142.402 107.344 144.806C106.433 145.125 105.471 145.359 104.547 145.652C104.557 143.852 104.545 142.051 104.512 140.252L104.343 142.19C104.333 143.35 104.304 144.512 104.369 145.671C101.539 146.421 98.7345 147.043 95.8329 147.442C95.0834 147.513 94.3339 147.594 93.5855 147.682C91.689 147.852 89.7957 147.847 87.8938 147.834L86.2833 147.826C81.2235 147.638 76.2158 146.736 71.4086 145.146L71.1958 145.095C70.3327 144.696 69.3756 144.414 68.4839 144.074C64.7597 142.606 61.2332 141.001 57.7732 138.985C57.2435 138.691 56.7355 138.4 56.248 138.039C53.0682 136.328 48.1272 132.357 45.5516 129.787C44.9709 129.24 44.4096 128.672 43.8689 128.085C41.1072 125.502 38.5637 122.386 36.5455 119.192C35.4349 118.039 34.2978 116.042 33.7422 114.549C32.4351 112.532 31.375 109.964 30.6168 107.692L30.5707 107.581C26.033 96.5585 26.1675 80.4302 29.5641 69.0957C30.624 65.5587 32.2478 62.3581 33.6616 58.9751C34.2756 57.5192 35.1944 55.6883 36.1728 54.4477L36.5761 54.0661C36.6042 53.996 36.6394 53.9021 36.6753 53.8323C37.5063 52.214 39.1721 50.4681 40.3392 49.0421C46.697 41.2733 54.3024 35.0205 63.511 30.9384C65.1278 30.2217 66.7919 29.4751 68.4801 28.9464C68.4879 28.9459 68.4962 28.9478 68.5035 28.9451C69.4819 28.5857 70.3563 28.137 71.4025 27.987C73.0983 27.4511 74.9384 26.9256 76.7033 26.7004C78.2427 26.0016 84.2152 25.6635 86.1468 25.5873Z" fill="#CB8D51"/>
<path d="M104.235 27.5023C105.342 27.5196 106.308 28.1877 107.356 28.2799C112.681 30.2009 118.67 32.7165 123.163 36.2445C123.576 36.4783 124.354 36.8908 124.628 37.2825C129 39.9511 134.403 45.8574 137.564 49.9198C138.043 50.5349 139.052 51.5904 139.206 52.3296C139.228 52.4342 139.224 52.4646 139.226 52.5613C139.787 52.8405 141.709 55.8957 142.062 56.6198C142.92 57.8755 143.564 59.4117 144.237 60.7747C149.96 72.3681 151.351 86.4045 148.97 99.0398C148.508 101.491 147.36 106.434 146.193 108.506C145.272 111.311 143.823 114.307 142.212 116.781C141.669 118.135 140.165 120.786 139.201 121.829C138.137 124.193 132.33 130.196 130.137 131.792C129.567 132.343 128.924 132.827 128.307 133.323C122.217 138.326 114.857 142.402 107.345 144.806C106.434 145.125 105.472 145.359 104.548 145.652C104.558 143.851 104.546 142.051 104.513 140.252L104.344 142.19C104.235 140.392 104.356 138.516 104.373 136.712L104.424 126.683C104.434 118.662 104.183 110.613 104.357 102.597C104.229 86.3364 104.215 70.0753 104.315 53.8147C104.071 51.5757 104.249 49.163 104.25 46.9031L104.229 33.317C104.216 31.3788 104.218 29.4405 104.235 27.5023Z" fill="#CB8D51"/>
<path d="M104.235 27.5023C105.342 27.5196 106.308 28.1877 107.356 28.2799C107.098 29.985 107.274 32.3621 107.259 34.1407L107.257 66.7148C107.256 72.2083 107.394 77.7407 107.24 83.2302C107.389 86.939 107.261 90.6903 107.277 94.4042C107.359 101.204 107.393 108.003 107.378 114.803L107.394 133.922C107.396 137.542 107.477 141.188 107.345 144.806C106.434 145.125 105.472 145.359 104.548 145.652C104.558 143.851 104.546 142.051 104.513 140.252L104.344 142.19C104.235 140.392 104.356 138.516 104.373 136.712L104.424 126.683C104.434 118.662 104.183 110.613 104.357 102.597C104.229 86.3364 104.215 70.0753 104.315 53.8147C104.071 51.5757 104.249 49.163 104.25 46.9031L104.229 33.317C104.216 31.3788 104.218 29.4405 104.235 27.5023Z" fill="#80532E"/>
<path d="M104.235 27.5023C105.342 27.5196 106.308 28.1877 107.356 28.2799C107.098 29.985 107.274 32.3621 107.259 34.1407L107.257 66.7148C107.256 72.2083 107.394 77.7407 107.24 83.2302C106.776 82.0647 107.017 73.4659 107.013 71.3971L106.986 45.5274C106.994 41.6927 107.126 37.8789 107.073 34.041L104.475 33.324C104.692 35.963 104.566 38.6855 104.569 41.3355C104.572 44.8371 104.659 48.3614 104.545 51.8605L104.466 51.2636L104.404 51.2698C104.358 52.1067 104.425 52.9903 104.315 53.8147C104.071 51.5757 104.249 49.163 104.25 46.9031L104.229 33.317C104.216 31.3788 104.218 29.4405 104.235 27.5023Z" fill="#4A290F"/>
<path d="M104.315 53.8148C104.425 52.9903 104.358 52.1067 104.404 51.2698L104.466 51.2637L104.545 51.8606L104.55 86.7815C104.569 94.9664 104.719 103.169 104.492 111.351C104.481 109.368 104.681 104.116 104.357 102.597C104.229 86.3364 104.215 70.0754 104.315 53.8148Z" fill="#26160C"/>
<path d="M142.062 56.6199C142.92 57.8756 143.564 59.4117 144.237 60.7747C149.96 72.3682 151.35 86.4046 148.97 99.0399C148.507 101.491 147.359 106.434 146.193 108.506C145.272 111.311 143.823 114.307 142.211 116.781C141.934 115.324 142.147 111.67 142.144 109.984C142.138 105.409 142.099 100.833 142.026 96.2585C142.007 93.7165 142.166 91.0932 141.929 88.5664L142.044 65.2809C141.945 62.412 142.096 59.4979 142.062 56.6199Z" fill="#CB8D51"/>
<path d="M142.062 56.6199C142.92 57.8756 143.564 59.4117 144.237 60.7747C149.96 72.3682 151.351 86.4046 148.97 99.0399C148.508 101.491 147.36 106.434 146.193 108.506C146.162 108.497 146.131 108.478 146.099 108.48C146.032 108.484 145.968 108.509 145.902 108.524C145.648 108.43 145.805 107.701 145.836 107.423C146.247 103.994 146.609 100.558 146.921 97.1185C147.676 88.0379 147.057 79.0076 144.098 70.3376C143.524 68.6533 142.925 66.8306 142.044 65.2809C141.945 62.412 142.096 59.4979 142.062 56.6199Z" fill="#96734A"/>
<path d="M139.225 52.5613C139.786 52.8405 141.709 55.8957 142.062 56.6198C142.095 59.4978 141.945 62.412 142.043 65.2808L141.929 88.5663C142.166 91.0932 142.007 93.7164 142.026 96.2584C142.099 100.833 142.138 105.409 142.144 109.984C142.147 111.67 141.934 115.324 142.211 116.781C141.669 118.135 140.164 120.786 139.2 121.829C139.182 121.438 139.195 121.06 139.218 120.67L139.171 81.2005L139.204 67.793C139.207 65.4673 139.262 63.1258 139.178 60.8026C139.15 58.0764 139.093 55.2831 139.225 52.5613Z" fill="#80532E"/>
<path d="M139.225 52.5613C139.786 52.8405 141.709 55.8957 142.062 56.6198C142.095 59.4978 141.945 62.412 142.043 65.2808L141.929 88.5663L141.918 88.6952C141.847 89.6321 141.854 90.5766 141.842 91.5156L141.787 74.0438C141.78 70.9893 141.636 67.8979 141.762 64.8485C140.99 63.5961 140.239 62.3253 139.445 61.0873C139.599 62.978 139.44 64.9692 139.436 66.8737L139.428 79.3637L139.418 104.974C139.418 109.856 139.498 114.746 139.442 119.627C139.436 120.041 139.435 120.311 139.218 120.67L139.171 81.2005L139.204 67.793C139.207 65.4673 139.262 63.1258 139.178 60.8026C139.15 58.0764 139.093 55.2831 139.225 52.5613Z" fill="#4A290F"/>
<path d="M124.627 37.2825C128.999 39.9511 134.402 45.8574 137.563 49.9198C138.042 50.5349 139.052 51.5904 139.205 52.3296C139.227 52.4342 139.224 52.4645 139.225 52.5613C139.093 55.2831 139.15 58.0763 139.177 60.8026C139.073 60.4524 139.062 60.0635 139.029 59.6998C138.991 59.7409 138.951 59.7799 138.915 59.8234C138.883 59.8639 138.855 59.9085 138.826 59.9511C138.275 59.5838 137.846 58.5829 137.459 58.0282C136.385 56.49 135.2 54.9974 133.991 53.5633C131.121 50.1579 127.884 47.339 124.705 44.2467C124.602 42.6648 124.989 38.8702 124.732 37.7465C124.719 37.6873 124.702 37.629 124.689 37.5697C124.666 37.4743 124.648 37.3781 124.627 37.2825Z" fill="#AA713B"/>
<path d="M107.355 28.2799C112.681 30.201 118.669 32.7166 123.163 36.2445C122.745 38.1441 122.885 40.4118 122.852 42.3653C118.749 38.2691 112.903 35.3228 107.259 34.1407C107.274 32.3622 107.097 29.985 107.355 28.2799Z" fill="#96734A"/>
<path d="M128.306 133.323C127.818 131.922 128.156 126.228 128.143 124.479C128.089 117.202 127.879 109.891 128.082 102.617C128.135 100.677 128.183 98.6401 128.521 96.7274C128.603 96.2595 128.872 95.5912 129.303 95.3388C129.457 95.2489 129.421 95.2847 129.607 95.3529C129.947 95.8349 129.949 96.5595 129.981 97.1357C130.156 100.306 129.994 103.552 129.99 106.732L130.005 124.79C130.006 126.228 129.76 130.485 130.087 131.632C130.102 131.686 130.119 131.739 130.137 131.792C129.566 132.343 128.924 132.827 128.306 133.323Z" fill="#AA713B"/>
<path d="M123.163 36.2445C123.575 36.4783 124.353 36.8909 124.627 37.2825C124.648 37.3782 124.666 37.4744 124.689 37.5698C124.702 37.629 124.719 37.6874 124.732 37.7465C124.989 38.8702 124.602 42.6648 124.705 44.2468C124.488 47.2767 124.578 50.3736 124.587 53.4124C124.816 54.4965 124.66 55.9109 124.66 57.0352C124.656 60.1999 124.937 63.6331 124.247 66.7334L123.408 66.2274C122.516 63.7552 122.818 58.3013 122.812 55.5564L122.85 43.3453L122.852 42.3654C122.884 40.4118 122.745 38.1441 123.163 36.2445Z" fill="#AA713B"/>
<path d="M123.163 36.2445C123.575 36.4783 124.353 36.8909 124.627 37.2825C124.648 37.3782 124.666 37.4744 124.689 37.5698C124.702 37.629 124.719 37.6874 124.732 37.7465C124.989 38.8702 124.602 42.6648 124.705 44.2468C124.488 47.2767 124.578 50.3736 124.587 53.4124C124.401 52.2979 124.489 50.9863 124.489 49.8554C124.499 47.936 124.49 46.0167 124.462 44.0974C124.154 43.8074 123.79 43.3569 123.393 43.2067C123.176 43.1245 123.048 43.2551 122.85 43.3453L122.852 42.3654C122.884 40.4118 122.745 38.1441 123.163 36.2445Z" fill="#80532E"/>
<path d="M119.375 109.271C119.379 109.32 119.387 109.37 119.389 109.42C119.454 110.589 119.342 115.084 118.719 115.803L118.498 115.671C118.418 115.45 118.335 115.234 118.227 115.025C117.947 114.487 117.705 113.97 117.669 113.355C117.541 111.132 117.721 108.863 117.74 106.634C117.763 102.383 117.764 98.1332 117.742 93.8821L117.501 79.2207C117.453 76.299 117.349 73.3279 117.502 70.4099C117.543 69.6135 117.524 68.9004 118.076 68.2732C118.372 68.2224 118.364 68.2409 118.62 68.4044C118.882 68.9911 118.965 69.6193 119.028 70.2541C119.374 73.737 119.26 77.3688 119.359 80.8711C119.573 88.3844 119.856 96.0288 119.481 103.536C119.494 105.448 119.458 107.36 119.375 109.271Z" fill="#AA713B"/>
<path d="M119.48 103.536C119.493 105.448 119.458 107.36 119.374 109.271C119.199 108.276 119.054 104.324 119.48 103.536Z" fill="#96734A"/>
<path d="M68.4801 28.9463C68.47 30.942 68.47 32.9376 68.4801 34.9332L68.4517 96.5151L68.4751 126.426C68.4824 131.936 68.3431 137.483 68.4937 142.989C68.4894 143.351 68.4796 143.712 68.4839 144.073C64.7597 142.606 61.2332 141.001 57.7732 138.985C57.2435 138.691 56.7355 138.4 56.248 138.038C53.0682 136.328 48.1272 132.357 45.5516 129.786C44.9709 129.24 44.4096 128.672 43.8689 128.085C41.1072 125.502 38.5637 122.386 36.5455 119.192C35.4349 118.039 34.2978 116.042 33.7422 114.549C32.4351 112.532 31.375 109.964 30.6168 107.691L30.5707 107.581C26.033 96.5584 26.1675 80.4301 29.5641 69.0956C30.624 65.5586 32.2478 62.358 33.6616 58.975C34.2756 57.5191 35.1944 55.6883 36.1728 54.4476L36.5761 54.066C36.6042 53.9959 36.6394 53.902 36.6753 53.8322C37.5063 52.2139 39.1721 50.468 40.3392 49.042C46.697 41.2732 54.3024 35.0205 63.511 30.9383C65.1278 30.2216 66.7919 29.4751 68.4801 28.9463Z" fill="#CB8D51"/>
<path d="M33.6616 58.975C33.7722 60.3546 33.7011 61.7755 33.6983 63.1597C33.6952 64.7149 33.7413 66.2851 33.6948 67.8387L33.6979 69.0705C33.4038 70.5311 33.6082 72.7319 33.6107 74.2758C33.6156 77.2171 33.5498 80.1775 33.6305 83.1161C33.6031 85.4872 33.5954 87.8591 33.6072 90.23C33.607 96.475 33.7858 102.718 33.7225 108.964C33.7126 110.317 33.7096 111.671 33.7135 113.024C33.7142 113.51 33.7894 114.075 33.7422 114.549C32.4351 112.532 31.375 109.964 30.6168 107.691L30.5707 107.581C26.033 96.5584 26.1675 80.4301 29.5641 69.0956C30.624 65.5586 32.2478 62.358 33.6616 58.975Z" fill="#96734A"/>
<path d="M30.6169 107.692C30.7665 107.423 30.8427 107.188 30.8601 106.881C31.0066 104.292 30.6574 101.548 30.4655 98.9565C30.2309 95.7852 30.0952 92.6421 30.1545 89.4621C30.244 84.6688 30.8511 79.7779 31.7339 75.0723C31.9408 73.9695 32.1593 72.8593 32.4568 71.7768C32.7714 70.6329 33.1879 69.486 33.3701 68.3124C33.5786 66.9694 33.4169 65.6513 33.438 64.3041C33.4441 63.9154 33.5218 63.5379 33.5233 63.1473C33.4504 63.2754 33.5954 67.2643 33.6703 67.7038C33.678 67.7488 33.6867 67.7938 33.6949 67.8388L33.698 69.0706C33.4039 70.5312 33.6083 72.732 33.6108 74.2758C33.6156 77.2172 33.5499 80.1776 33.6306 83.1162C33.6032 85.4873 33.5955 87.8592 33.6073 90.23C33.6071 96.4751 33.7859 102.718 33.7225 108.964C33.7127 110.317 33.7097 111.671 33.7136 113.024C33.7143 113.51 33.7895 114.075 33.7423 114.549C32.4352 112.532 31.3751 109.964 30.6169 107.692Z" fill="#CB8D51"/>
<path d="M68.4809 28.9463C68.4707 30.942 68.4707 32.9376 68.4809 34.9332C64.1236 36.5046 59.035 38.8673 55.4342 41.8317C53.5392 43.3919 51.8018 45.2647 49.8292 46.7069L49.7826 46.6841C49.1141 47.0964 48.5006 47.5327 47.9213 48.066L47.844 48.1217C43.1233 51.7732 39.8314 57.4096 36.7752 62.4313C36.6307 62.6688 36.5923 62.8701 36.5433 63.1387C36.5179 60.1212 36.5674 57.0857 36.5768 54.066C36.605 53.9959 36.6402 53.902 36.676 53.8322C37.5071 52.2139 39.1728 50.468 40.3399 49.042C46.6977 41.2732 54.3031 35.0205 63.5118 30.9383C65.1285 30.2216 66.7927 29.4751 68.4809 28.9463Z" fill="#96734A"/>
<path d="M49.7419 39.8564C49.7435 42.1324 49.7568 44.4083 49.782 46.6841C49.1135 47.0964 48.5 47.5327 47.9207 48.066C47.5968 46.866 47.6801 42.966 47.76 41.5947C48.3839 40.9769 49.0696 40.4201 49.7419 39.8564Z" fill="#80532E"/>
<path d="M36.1736 54.4476L36.5769 54.066C36.5674 57.0857 36.5179 60.1213 36.5434 63.1387L36.5508 92.9215C36.695 94.1378 36.624 95.4353 36.6304 96.6635L36.6465 103.383L36.6396 112.942C36.6354 115.02 36.6822 117.12 36.5463 119.192C35.4357 118.039 34.2986 116.042 33.743 114.549C33.7902 114.075 33.715 113.51 33.7143 113.024C33.7104 111.671 33.7134 110.317 33.7233 108.964C33.7866 102.718 33.6078 96.4751 33.608 90.23C33.5962 87.8591 33.6039 85.4873 33.6313 83.1162C33.5506 80.1775 33.6164 77.2171 33.6115 74.2758C33.609 72.732 33.4046 70.5311 33.6987 69.0706L33.6956 67.8388C33.7421 66.2851 33.696 64.715 33.6991 63.1597C33.7019 61.7756 33.773 60.3547 33.6624 58.975C34.2764 57.5191 35.1952 55.6883 36.1736 54.4476Z" fill="#80532E"/>
<path d="M36.1734 54.4476L36.5766 54.066C36.5672 57.0857 36.5177 60.1213 36.5431 63.1387L36.5505 92.9215C36.4577 92.9583 36.5155 92.9464 36.3737 92.9139C36.2394 91.7875 36.3133 90.5885 36.3125 89.4523L36.305 83.4707C36.3758 76.8121 36.3455 70.1528 36.214 63.4951C35.2728 64.5243 34.4051 66.3188 34.0326 67.6585C33.899 68.1391 34.0074 68.6569 33.6984 69.0706L33.6954 67.8388C33.7418 66.2851 33.6957 64.715 33.6988 63.1597C33.7016 61.7756 33.7727 60.3547 33.6621 58.975C34.2761 57.5191 35.1949 55.6883 36.1734 54.4476Z" fill="#4A290F"/>
<path d="M56.2486 138.039C56.2669 138.003 56.2894 137.969 56.3033 137.932C56.5807 137.187 56.0702 127.728 56.0357 126.05C55.8183 116.442 55.8452 106.83 56.1166 97.2235L56.3159 88.4819C56.3686 86.7526 56.3587 84.9777 56.6024 83.2639C56.6716 82.7773 56.7037 82.2534 57.0659 81.89C57.3258 81.8049 57.362 81.7777 57.6203 81.8541C58.0073 82.1872 58.0083 82.8052 58.0415 83.2848C58.1801 85.2825 58.0817 87.3507 58.0819 89.3549C58.0826 94.9371 57.8868 100.516 57.8873 106.097L58.074 133.031C58.0822 134.918 58.2739 136.8 58.2448 138.687C58.0903 138.804 57.9474 138.9 57.7738 138.985C57.2441 138.691 56.7361 138.4 56.2486 138.039Z" fill="#AA713B"/>
<path d="M49.7823 46.6842L49.8289 46.707C49.8563 56.1602 50.143 65.5818 49.8805 75.0368C49.7818 78.5915 49.7914 82.2621 49.332 85.7897C48.9382 85.3048 48.5339 84.8567 48.3942 84.2292C47.8374 81.7288 48.1244 76.2295 48.1198 73.4044C48.1411 67.2829 48.098 61.1613 47.9905 55.0407L47.9125 50.5444C47.9029 49.7813 47.9906 48.8664 47.8438 48.1218L47.921 48.0661C48.5003 47.5328 49.1138 47.0965 49.7823 46.6842Z" fill="#AA713B"/>
<path d="M92.419 29.0438L92.4657 29.0666C92.4931 38.5199 92.7798 47.9414 92.5172 57.3964C92.4186 60.9511 92.4281 64.6217 91.9687 68.1493C91.5749 67.6644 91.1706 67.2164 91.0309 66.5888C90.4741 64.0884 90.7611 58.5891 90.7565 55.764C90.7778 49.6425 90.7347 43.5209 90.6272 37.4003L90.5492 32.9041C90.5396 32.1409 90.6273 31.226 90.4805 30.4814L90.5577 30.4257C91.137 29.8924 91.7505 29.4562 92.419 29.0438Z" fill="#AA713B"/>
<path d="M43.8691 128.085C43.8904 122.028 44.1512 116.014 44.3814 109.963C44.4614 107.859 44.2963 105.695 44.4818 103.605C44.531 103.052 44.6041 102.438 44.8662 101.944L45.0584 101.817C45.4261 101.988 45.6732 102.404 45.8085 102.774C46.0611 103.464 46.0943 104.247 46.1293 104.976C46.2672 107.849 46.1227 128.76 45.6418 129.635C45.6134 129.686 45.5818 129.736 45.5518 129.787C44.9711 129.24 44.4098 128.672 43.8691 128.085Z" fill="#AA713B"/>
<path d="M68.4806 28.9462C68.4884 28.9458 68.4966 28.9476 68.504 28.9449C69.4823 28.5855 70.3567 28.1368 71.403 27.9868C71.4153 29.9367 71.4087 31.8867 71.383 33.8366C71.1554 38.0699 71.4962 42.3336 71.3091 46.5643C71.4813 47.9797 71.373 49.4974 71.3627 50.9255L71.3097 58.9903C71.3213 67.823 71.4789 76.659 71.3799 85.4938C71.4027 90.4389 71.389 95.3843 71.3386 100.33L71.3983 124.512L71.4194 137.573C71.4341 140.075 71.5987 142.652 71.409 145.146L71.1962 145.095C70.3331 144.696 69.3761 144.413 68.4844 144.073C68.48 143.712 68.4898 143.351 68.4941 142.989C68.3436 137.483 68.4828 131.936 68.4755 126.426L68.4521 96.515L68.4806 34.9331C68.4704 32.9375 68.4704 30.9419 68.4806 28.9462Z" fill="#80532E"/>
<path d="M68.4806 28.9462C68.4884 28.9458 68.4966 28.9476 68.504 28.9449C69.4823 28.5855 70.3567 28.1368 71.403 27.9868C71.4153 29.9367 71.4087 31.8867 71.383 33.8366C71.1554 38.0699 71.4962 42.3336 71.3091 46.5643C71.0892 45.1663 71.1925 43.6398 71.1997 42.2248C71.2135 39.5189 71.2827 36.7939 71.0797 34.0942L68.7251 34.8424L68.6406 109.107L68.6584 135.624C68.6496 137.846 68.7347 140.065 68.6959 142.286C68.6908 142.575 68.666 142.756 68.4941 142.989C68.3436 137.483 68.4828 131.936 68.4755 126.426L68.4521 96.515L68.4806 34.9331C68.4704 32.9375 68.4704 30.9419 68.4806 28.9462Z" fill="#4A290F"/>
<path d="M90.8043 25.5457C89.2522 25.5089 87.698 25.5227 86.147 25.5873C84.2154 25.6635 78.2429 26.0016 76.7035 26.7004C74.9386 26.9256 73.0985 27.4511 71.4027 27.987C71.4151 29.9369 71.4085 31.8868 71.3828 33.8367L71.7908 33.7225C75.7538 32.4951 80.264 31.7348 84.4087 31.5185C86.5142 31.4086 88.6284 31.4767 90.735 31.5148L91.7957 31.5102H92.5578C92.3315 29.5753 92.9401 27.5537 92.664 25.6413C92.0444 25.6355 91.4238 25.5838 90.8043 25.5457Z" fill="#96734A"/>
<path d="M90.8043 25.5457C91.4238 25.5838 92.0444 25.6354 92.664 25.6413C92.9401 27.5537 92.3315 29.5753 92.5578 31.5101C92.0444 31.4747 91.4379 31.3911 90.9473 31.5584L90.8444 31.7713C90.7047 29.8899 90.7144 27.7742 90.9354 25.9026L90.8043 25.5457Z" fill="#80532E"/>
<path d="M71.4027 27.9869C73.0985 27.451 74.9386 26.9255 76.7035 26.7003C76.1364 27.2945 72.7987 27.8586 71.7497 28.2018C71.6975 30.0403 71.6561 31.886 71.7908 33.7224L71.3828 33.8367C71.4085 31.8868 71.4151 29.9368 71.4027 27.9869Z" fill="#AA713B"/>
<path d="M86.1475 25.5873C87.6984 25.5227 89.2527 25.5089 90.8047 25.5457L90.9358 25.9027C89.7011 25.8502 87.1125 26.1748 86.1475 25.5873Z" fill="#AA713B"/>
<path d="M92.6646 25.6412C94.3119 25.6734 103.342 26.6288 104.235 27.5023C104.218 29.4405 104.216 31.3788 104.229 33.317C100.336 32.5062 96.5139 31.9032 92.5584 31.5101C92.3321 29.5752 92.9407 27.5536 92.6646 25.6412Z" fill="#96734A"/>
<path d="M87.0153 112.078C87.025 110.854 86.8582 108.348 87.6023 107.38L87.7929 107.441C88.0648 108.159 88.3258 108.727 88.381 109.509C88.5533 111.954 88.4395 114.474 88.4352 116.926C88.4255 123.071 88.2305 129.198 88.1309 135.341L88.0323 144.137C88.0106 145.316 88.1114 146.683 87.8947 147.834L86.2842 147.826C85.9965 141.122 86.3264 134.42 86.5041 127.72L86.6221 121.962C86.647 121.076 86.6135 120.134 86.7543 119.261C86.8019 116.865 86.8886 114.471 87.0153 112.078Z" fill="#AA713B"/>
<path d="M87.0149 112.078L87.1644 112.036C87.2846 112.999 87.1611 118.696 86.9012 119.382L86.7983 119.374L86.7539 119.261C86.8016 116.865 86.8882 114.471 87.0149 112.078Z" fill="#96734A"/>
<path d="M93.5859 147.682C93.7322 146.632 93.613 145.411 93.6173 144.342C93.6293 141.482 93.5762 134.607 94.4394 132.16C94.551 131.844 94.643 131.643 94.9463 131.495L95.1293 131.609C95.3817 132.059 95.4564 132.535 95.5084 133.041C95.7315 135.235 95.5593 137.622 95.5615 139.831C95.5637 141.991 95.7824 145.101 95.4434 147.187C95.438 147.22 95.4315 147.252 95.4261 147.285C95.5669 147.456 95.6221 147.414 95.8333 147.442C95.0838 147.513 94.3344 147.594 93.5859 147.682Z" fill="#AA713B"/>
<path d="M77.1632 112.97C72.541 108.337 71.4763 101.233 74.5368 95.4478C77.5974 89.6627 84.0694 86.546 90.5011 87.76C96.9315 88.9741 101.822 94.2359 102.563 100.739L102.769 101.05C102.967 100.706 102.798 100.069 103.035 99.8783C104.335 101.12 104.756 104.121 104.797 105.861C104.906 110.347 103.335 114.291 100.218 117.526C97.6846 120.156 94.5589 121.732 90.8776 121.786C87.0671 121.843 83.0338 120.602 80.2879 117.869C79.1125 116.7 77.1942 114.71 77.1632 112.97Z" fill="#292A2A"/>
<path d="M102.563 100.739L102.769 101.05C102.967 100.706 102.798 100.069 103.035 99.8783C104.335 101.12 104.756 104.121 104.797 105.86C104.906 110.347 103.335 114.291 100.218 117.526C97.6844 120.156 94.5587 121.732 90.8775 121.786C87.067 121.843 83.0337 120.602 80.2878 117.869C79.1124 116.7 77.1941 114.71 77.1631 112.97C81.648 117.467 88.4863 118.633 94.2078 115.877C99.9292 113.122 103.282 107.048 102.563 100.739Z" fill="#80532E"/>
<path d="M87.6267 91.4855C90.069 91.6164 92.1661 92.316 94.0813 93.8699C96.1982 95.5863 97.3235 98.0091 97.5806 100.695C97.8832 103.855 97.4002 107.047 95.3088 109.539C93.3851 111.832 91.1928 112.723 88.2461 112.963C85.595 112.751 83.1581 112.447 81.0651 110.626C79.0897 108.907 78.0047 106.263 77.8239 103.688C77.6078 100.612 78.313 97.408 80.3876 95.0463C82.3441 92.8189 84.6848 91.6749 87.6267 91.4855Z" fill="#80532E"/>
<path d="M14.604 98.3521C15.0171 100.264 15.411 102.18 15.7857 104.1C17.7081 111.038 20.2502 117.696 23.8629 123.944C24.7552 125.488 25.8408 126.9 26.8592 128.359C33.443 137.957 42.1533 145.906 52.312 151.587C54.5453 152.856 56.9236 153.726 59.2679 154.751C61.9002 155.9 64.4811 157.046 67.22 157.935C72.2088 159.539 77.3777 160.516 82.6078 160.844C84.2756 160.964 85.9639 161.13 87.6355 161.158C94.8478 161.28 102.013 159.914 108.928 157.974C112.478 156.978 116.101 155.481 119.474 154.012C123.672 152.185 127.686 150.201 131.511 147.666C141.268 141.2 149.16 131.59 154.836 121.43C155.961 119.416 156.846 117.261 157.986 115.258C159.171 112.647 159.868 109.796 160.782 107.085C161.138 107.867 160.623 109.135 160.378 109.932L160.249 110.608L159.961 111.691C158.663 115.3 157.568 119.018 155.944 122.501C152.016 130.776 146.394 138.133 139.441 144.094C138.25 145.128 137.019 146.35 135.695 147.195C135.231 147.274 134.92 147.625 134.509 147.826C133.121 148.509 132.42 148.183 131.402 149.622C131.289 149.781 131.169 150.017 131.017 150.138C130.981 150.153 130.943 150.165 130.906 150.181C129.927 150.635 128.849 151.651 127.944 152.291C126.645 153.207 125.222 154.042 123.819 154.787C115.676 159.071 106.839 161.882 97.7158 163.091C95.5583 163.373 93.0932 163.662 90.9216 163.413C90.7126 163.289 90.4938 163.181 90.2663 163.093L90.2642 163.038C90.1071 162.808 89.9598 162.755 89.6901 162.702C88.3146 162.431 86.9358 162.641 85.7848 163.429C84.9353 163.486 84.0639 163.451 83.2129 163.41C72.0685 162.872 60.9247 158.924 51.341 153.352C49.76 152.433 47.5826 151.416 46.3623 150.04C46.2541 149.918 46.1859 149.839 46.0519 149.735C46.0166 149.707 45.979 149.682 45.9425 149.656C45.177 148.293 43.7435 147.441 42.1806 147.42L42.3197 147.376L42.2909 147.307C40.1501 146.48 33.2239 139.546 31.4439 137.574C26.8334 132.463 22.6922 125.448 19.9641 119.161C19.2913 117.612 18.7386 115.996 18.1562 114.41C17.0353 111.356 16.3138 109.324 15.6345 106.106C15.3749 104.877 14.8273 103.262 14.8877 102.016C14.5531 101.281 14.3352 99.7167 14.5012 98.9066C14.5393 98.7203 14.5744 98.5394 14.604 98.3521Z" fill="#3D3D3D"/>
<path d="M90.9216 163.413C93.0152 164.657 93.7539 167.33 92.5961 169.471C91.4383 171.612 88.7966 172.458 86.6109 171.388C84.4243 170.317 83.4728 167.712 84.4546 165.484C85.4365 163.256 88.0016 162.201 90.2664 163.093C90.4938 163.181 90.7126 163.289 90.9216 163.413Z" fill="#292A2A"/>
<path d="M86.585 166.315C86.9424 165.865 87.2792 165.532 87.8305 165.336C88.554 165.078 89.2623 165.193 89.9349 165.527C89.871 165.534 89.8071 165.541 89.7432 165.548C88.3666 165.68 88.2085 165.381 86.9142 166.202C86.729 166.32 86.807 166.285 86.585 166.315Z" fill="#5F6263"/>
<path d="M131.018 150.138C131.169 150.017 131.289 149.781 131.402 149.622C132.42 148.183 133.121 148.509 134.509 147.826C134.92 147.625 135.231 147.274 135.695 147.195C135.51 147.354 134.992 147.707 134.974 147.926C136.405 148.326 137.67 148.771 138.478 150.127C139.076 151.13 139.146 152.441 138.855 153.552C138.536 154.769 137.755 155.804 136.65 156.408C135.613 156.973 134.414 157.103 133.29 156.723C132.182 156.337 131.273 155.525 130.765 154.467C130.246 153.411 130.19 152.216 130.571 151.106C130.686 150.77 130.854 150.452 131.018 150.138Z" fill="#292A2A"/>
<path d="M45.9423 149.656C46.914 151.385 46.6023 153.553 45.1825 154.938C43.7626 156.324 41.5888 156.583 39.8832 155.569C38.1776 154.556 37.3657 152.523 37.904 150.613C38.4423 148.704 40.1965 147.394 42.1804 147.42C43.7433 147.441 45.1767 148.293 45.9423 149.656Z" fill="#292A2A"/>
<path d="M45.498 25.2588C44.8926 25.4246 44.1792 25.554 43.5503 25.5628C42.6083 25.5759 41.4753 25.0349 40.849 24.342C40.1469 23.5654 39.8663 22.4711 39.9541 21.4424C40.0674 20.1178 40.7978 18.9705 41.817 18.1461C42.7586 17.3845 43.9484 16.9014 45.1738 17.0509C46.2031 17.1764 47.1633 17.7558 47.7854 18.583C48.6136 19.6847 48.5977 20.8017 48.4007 22.0911C48.5554 22.5962 48.2709 23.0769 48.0643 23.5462C48.569 23.2142 49.4375 22.4922 50.0634 22.5206C48.6066 23.4771 47.16 24.4492 45.7239 25.4367L45.498 25.2588Z" fill="#292A2A"/>
<path d="M48.3997 22.0911C48.5545 22.5962 48.27 23.0769 48.0633 23.5462C48.5681 23.2142 49.4366 22.4922 50.0625 22.5206C48.6056 23.4771 47.1591 24.4492 45.723 25.4367L45.4971 25.2588C46.8323 24.455 47.7905 23.5501 48.3997 22.0911Z" fill="#5F6263"/>
<path d="M160.249 110.608C161.448 110.113 162.076 108.98 163.471 108.722L163.582 108.847C164.845 108.902 165.956 109.081 166.87 110.047C167.497 110.711 167.901 111.514 168.213 112.365C168.286 113.724 168.261 114.927 167.291 116.002C166.531 116.845 165.542 117.24 164.521 117.655C164.147 117.647 163.761 117.646 163.394 117.574C162.362 117.371 161.378 116.714 160.796 115.84C159.993 114.634 159.991 113.36 160.257 111.994C160.241 111.832 160.211 111.676 160.183 111.516L159.961 111.691L160.249 110.608Z" fill="#292A2A"/>
<path d="M160.249 110.608C161.448 110.113 162.076 108.98 163.471 108.722L163.582 108.847C162.09 109.544 160.942 110.042 160.344 111.721C160.312 111.811 160.285 111.903 160.257 111.994C160.241 111.832 160.211 111.676 160.183 111.516L159.961 111.691L160.249 110.608Z" fill="#5F6263"/>
<path d="M168.213 112.365L168.385 112.338C168.344 113.018 168.315 113.7 168.378 114.38L168.62 113.706L168.763 113.647C168.285 115.494 167.656 117.3 166.883 119.043C166.75 118.183 167.525 116.734 167.781 115.859C167.13 116.531 166.43 117.128 165.561 117.501C165.203 117.655 164.886 117.799 164.521 117.655C165.542 117.24 166.531 116.845 167.291 116.002C168.26 114.926 168.285 113.724 168.213 112.365Z" fill="#5F6263"/>
<path d="M12.4715 110.214C14.7598 109.674 17.0524 111.093 17.5889 113.382C18.1254 115.672 16.7022 117.961 14.4121 118.494C12.1273 119.026 9.84371 117.607 9.30845 115.323C8.77319 113.039 10.1885 110.753 12.4715 110.214Z" fill="#292A2A"/>
<path d="M12.5623 57.8221C13.516 57.7663 14.3298 57.7772 15.1837 58.2872C16.0663 58.8143 16.6711 59.7207 16.8929 60.7174C17.1682 61.9539 16.8469 63.2677 16.1734 64.3244C15.5522 65.2994 14.6663 65.9167 13.5422 66.1725C12.6355 66.3421 11.6518 66.1552 10.8558 65.6909C9.93237 65.1488 9.26822 64.2554 9.015 63.215C8.72874 62.0667 8.95499 60.8785 9.58405 59.8837C10.2952 58.759 11.288 58.1324 12.5623 57.8221Z" fill="#292A2A"/>
<path d="M163.361 57.7105C164.085 57.6528 164.868 57.8175 165.527 58.1171C166.674 58.6388 167.492 59.6254 167.882 60.8151C168.24 61.9041 168.243 63.1124 167.706 64.1441C167.084 65.3404 166.088 65.9044 164.864 66.3165C163.94 66.3345 163.162 66.2706 162.337 65.8171C161.227 65.2064 160.381 64.0984 160.037 62.8822C159.73 61.7904 159.849 60.6014 160.436 59.6227C161.113 58.4947 162.134 58.0062 163.361 57.7105Z" fill="#292A2A"/>
<path d="M163.245 60.1216C163.168 60.5103 162.776 60.7874 162.494 61.0488C162.468 61.691 162.334 62.5342 162.813 63.0449C163.326 63.5924 164.116 63.5494 164.591 63.9554C164.315 63.9792 164.012 64.0062 163.739 63.9451C163.18 63.8204 162.661 63.4068 162.372 62.9195C162.1 62.4623 162.008 61.9317 162.139 61.4144C162.298 60.7831 162.703 60.4357 163.245 60.1216Z" fill="#5F6263"/>
<path d="M133.948 18.939C134.813 18.8846 135.524 18.9219 136.33 19.2717C137.581 19.8151 138.729 20.8435 139.213 22.1365C139.572 23.0941 139.573 24.1758 139.133 25.1085C138.626 26.1876 137.751 26.7501 136.68 27.158C135.663 27.2185 134.672 27.2324 133.722 26.7916C132.585 26.2641 131.783 25.1424 131.397 23.9753C131.036 22.8862 131.089 21.6683 131.648 20.6545C132.161 19.7243 132.951 19.2217 133.948 18.939Z" fill="#292A2A"/>
<path d="M66.1738 147.185C68.1922 147.846 70.1453 148.704 72.2017 149.255C84.7179 152.608 98.2071 152.248 110.272 147.302C111.047 149.32 111.714 151.392 112.392 153.444C111.747 153.748 111.055 153.983 110.389 154.24C95.533 159.388 78.2189 159.399 63.6953 153.146C64.4735 151.14 65.2999 149.152 66.1738 147.185Z" fill="#80532E"/>
<path d="M83.069 15.702C86.0032 15.5616 88.9063 15.5407 91.8393 15.6971C93.0394 15.5915 94.3781 15.7722 95.5803 15.8912C99.7946 16.2856 103.968 17.0337 108.056 18.1275C109.711 18.5743 111.315 19.2067 112.976 19.621L113.117 19.6551C112.184 21.5921 111.14 23.7012 110.62 25.7837C110.501 25.7292 110.381 25.6759 110.26 25.624C107.519 24.443 104.396 23.7027 101.467 23.1336C97.3685 22.3371 93.1585 21.8162 88.9767 21.7856C81.7223 21.7325 72.5196 23.388 65.801 26.0618C65.2834 23.9943 64.4638 21.9708 63.8584 19.9215C68.0667 17.8835 78.3872 15.7473 83.069 15.702Z" fill="#80532E"/>
<path d="M153.606 87.6836C154.989 87.4117 158.543 87.5612 160.042 87.6868C159.936 103.25 154.526 118.311 144.705 130.385C143.172 129.075 141.43 127.854 140.006 126.442C140.895 125.15 141.85 123.916 142.706 122.6C147.209 115.676 150.865 107.982 152.357 99.8044C152.703 97.9112 153.009 95.9595 153.184 94.0435C153.276 93.0351 153.224 90.9783 153.465 90.1281C153.497 89.3613 153.371 88.4093 153.606 87.6836Z" fill="#80532E"/>
<path d="M17.2785 87.6229C19.3835 87.6078 21.5257 87.5103 23.6246 87.6587C23.8342 90.1303 23.8694 92.6062 24.1445 95.0757C25.0008 103.261 27.6228 111.162 31.83 118.234C33.2603 120.612 34.9507 122.803 36.4512 125.128C35.7453 125.819 34.9248 126.425 34.1606 127.052C33.2911 127.777 32.3871 128.461 31.4895 129.151C30.6514 128.165 29.9333 126.999 29.185 125.94C22.8384 116.961 19.0756 106.801 17.7456 95.9031C17.4172 93.2106 17.1352 90.3274 17.2785 87.6229Z" fill="#80532E"/>
<path d="M144.888 43.7046C144.955 43.7313 145.026 43.7494 145.089 43.785C145.688 44.126 147.726 47.2912 148.199 47.9811C155.452 58.6938 159.549 71.2277 160.024 84.1553L155.427 84.1803L153.51 84.1636C152.897 70.8614 148.505 58.2695 140.216 47.7841C141.495 46.2113 143.274 44.9201 144.888 43.7046Z" fill="#80532E"/>
<path d="M31.9381 43.8147C31.9921 43.8417 32.0457 43.8692 32.1001 43.8955C33.5919 44.619 35.2108 46.5631 36.5486 47.6816C35.1839 49.9236 33.4399 51.9578 32.0704 54.2668C26.7704 63.2031 23.6732 73.7664 23.6437 84.1634L21.894 84.1842L17.3027 84.1719C17.6306 72.5786 20.646 61.3556 26.5853 51.362C28.1402 48.7457 29.9046 46.0842 31.9381 43.8147Z" fill="#80532E"/>
<path d="M38.3456 127.633C38.6114 127.723 38.7997 127.925 38.9983 128.115C41.5609 130.571 43.8466 133.252 46.615 135.511C51.9455 139.858 57.1942 142.763 63.3772 145.672C62.6773 147.793 61.6211 149.806 60.8363 151.901L59.3253 151.185C51.1347 147.255 44.1748 142.689 37.7684 136.197C36.3085 134.718 34.7398 133.164 33.5713 131.44C35.1371 130.14 36.7289 128.87 38.3456 127.633Z" fill="#80532E"/>
<path d="M115.799 20.9263C117.163 21.3477 118.554 22.1239 119.832 22.7624C127.856 26.7726 137.478 34.0126 142.948 41.1512C141.844 42.2367 140.553 43.1834 139.389 44.2149C138.963 44.5682 138.575 44.992 138.179 45.3802C136.677 43.8498 135.332 42.1735 133.81 40.6504C127.561 34.3942 121.488 30.3584 113.407 26.8153C114.006 24.7846 114.939 22.8567 115.799 20.9263Z" fill="#80532E"/>
<path d="M137.874 128.944C139.648 130.014 141.203 131.536 142.769 132.884C136.638 140.824 126.4 147.484 117.376 151.617L115.342 152.498C114.543 150.48 113.9 148.345 113.268 146.271C114.612 145.636 116.022 145.156 117.356 144.492C126.079 140.155 131.185 135.891 137.874 128.944Z" fill="#80532E"/>
<path d="M60.7204 21.0853L60.8118 21.1072C61.3609 21.5578 62.8236 26.2518 63.1215 27.2063C61.9689 27.9075 60.6467 28.3747 59.4273 28.9545C57.7971 29.7298 56.1992 30.6241 54.6371 31.5291C50.4593 33.9498 46.5264 37.1247 43.1209 40.539C41.5334 42.1306 40.0602 43.828 38.475 45.4218L37.5726 44.5067C36.4273 43.43 35.261 42.376 34.0742 41.3453C35.3305 39.6469 36.815 38.1056 38.2918 36.601C44.656 30.1172 52.3057 24.5744 60.7204 21.0853Z" fill="#80532E"/>
<path d="M86.5845 166.315C86.9419 165.865 87.2787 165.532 87.83 165.336C88.5535 165.078 89.2618 165.193 89.9344 165.527C90.4272 165.862 90.8301 166.241 90.9634 166.846C91.0879 167.412 90.8897 168.011 90.5648 168.474C90.1424 169.075 89.4774 169.503 88.7463 169.602C88.1788 169.679 87.6264 169.549 87.1736 169.192C86.7339 168.846 86.2888 168.174 86.2422 167.607C86.2054 167.146 86.2953 166.681 86.5845 166.315Z" fill="#A2A8A9"/>
<path d="M134.382 150.453C134.837 150.428 135.214 150.428 135.633 150.628C136.147 150.872 136.53 151.283 136.703 151.827C136.884 152.398 136.803 153.018 136.511 153.535C136.114 154.239 135.533 154.524 134.782 154.723C134.44 154.723 134.104 154.684 133.785 154.558C133.245 154.344 132.799 153.962 132.586 153.415C132.376 152.881 132.414 152.29 132.66 151.776C133.022 151.023 133.627 150.719 134.382 150.453Z" fill="#A2A8A9"/>
<path d="M41.568 149.675C41.9293 149.652 42.2852 149.645 42.6336 149.758C43.2656 149.963 43.8313 150.401 44.1289 151.002C44.3663 151.483 44.4225 152.058 44.229 152.564C43.973 153.232 43.4647 153.576 42.8307 153.845C42.6078 153.855 42.3947 153.863 42.1729 153.831C41.4739 153.731 40.7509 153.413 40.3433 152.814C40.062 152.405 39.9652 151.896 40.0761 151.41C40.2683 150.559 40.8864 150.127 41.568 149.675Z" fill="#A2A8A9"/>
<path d="M44.4108 19.3969C44.771 19.3767 45.0525 19.398 45.3896 19.5389C45.7937 19.7078 46.1358 19.9701 46.2785 20.3981C46.4341 20.8655 46.3333 21.4044 46.11 21.8317C45.6896 22.6364 45.0583 23.0107 44.2156 23.2768C43.9016 23.267 43.591 23.2583 43.291 23.1553C42.8563 23.0061 42.4102 22.7182 42.2234 22.2822C42.044 21.8635 42.0839 21.3923 42.2779 20.9858C42.7013 20.0982 43.5257 19.7026 44.4108 19.3969Z" fill="#A2A8A9"/>
<path d="M163.914 111.112C164.224 111.089 164.514 111.077 164.815 111.171C165.278 111.318 165.66 111.651 165.867 112.091C166.12 112.626 166.109 113.245 165.914 113.796C165.649 114.549 165.168 114.918 164.463 115.24C164.237 115.25 164 115.249 163.776 115.217C163.298 115.147 162.804 114.84 162.539 114.433C162.261 114.002 162.212 113.45 162.328 112.959C162.547 112.036 163.127 111.564 163.914 111.112Z" fill="#A2A8A9"/>
<path d="M12.8185 112.206C13.1087 112.192 13.3954 112.178 13.6779 112.259C14.3005 112.437 14.8199 112.931 15.102 113.504C15.3833 114.077 15.4301 114.732 15.1869 115.325C14.9663 115.863 14.518 116.188 14.0021 116.416C13.7717 116.421 13.5333 116.419 13.3057 116.376C12.7357 116.266 12.1683 115.858 11.8527 115.376C11.5284 114.878 11.4281 114.266 11.5761 113.69C11.756 112.961 12.2089 112.59 12.8185 112.206Z" fill="#A2A8A9"/>
<path d="M12.5868 59.9082C12.8828 59.8895 13.1787 59.8709 13.4722 59.9275C13.9411 60.0179 14.4063 60.3254 14.6495 60.7394C14.8937 61.1546 14.928 61.6608 14.807 62.1206C14.5834 62.9712 14.0129 63.5053 13.2754 63.9366C12.9942 63.9747 12.7086 63.9643 12.4309 63.906C11.976 63.8134 11.5628 63.6184 11.3081 63.2157C11.0104 62.7449 11.0106 62.1437 11.1592 61.6222C11.396 60.7918 11.86 60.3344 12.5868 59.9082Z" fill="#A2A8A9"/>
<path d="M163.244 60.1215C163.624 59.9049 163.952 59.828 164.373 59.9567C164.963 60.1374 165.452 60.6471 165.717 61.1917C165.975 61.7209 166.06 62.3395 165.842 62.8977C165.647 63.397 165.259 63.7007 164.77 63.8883C164.711 63.9114 164.65 63.933 164.591 63.9553C164.314 63.9792 164.011 64.0061 163.738 63.9451C163.179 63.8204 162.661 63.4068 162.371 62.9195C162.099 62.4623 162.007 61.9317 162.138 61.4143C162.298 60.7831 162.703 60.4356 163.244 60.1215Z" fill="#A2A8A9"/>
<path d="M134.311 21.1177C134.486 21.113 134.665 21.1142 134.84 21.1319C135.631 21.2116 136.478 21.7566 136.954 22.3815C137.247 22.765 137.432 23.2527 137.335 23.7379C137.217 24.3268 136.795 24.669 136.321 24.9849C135.895 25.0124 135.467 25.0391 135.055 24.9073C134.353 24.6825 133.688 24.1436 133.365 23.4765C133.172 23.079 133.112 22.652 133.264 22.231C133.454 21.7117 133.829 21.3625 134.311 21.1177Z" fill="#A2A8A9"/>
<path d="M87.9342 6.07551C88.3913 6.04767 88.8906 5.98767 89.3455 6.0454C89.9401 6.121 90.5683 6.48719 90.9279 6.96548C91.2051 7.33427 91.3492 7.80758 91.2495 8.26594C91.0892 9.00385 90.5531 9.50814 89.9412 9.88884C89.4051 9.96791 88.8819 10.0496 88.349 9.89382C87.7577 9.72075 87.2053 9.26975 86.9226 8.72333C86.6973 8.28934 86.615 7.78657 86.7829 7.31911C86.9973 6.72417 87.3829 6.35765 87.9342 6.07551Z" fill="#A2A8A9"/>
</svg>
