<svg width="179" height="186" viewBox="0 0 179 186" fill="none" xmlns="http://www.w3.org/2000/svg">
<path d="M6.79922 122.806C3.922 115.503 1.96215 107.873 0.964521 100.089C0.265496 94.2078 -0.0262869 88.1349 0.388536 82.2235C1.56693 65.4314 8.16023 47.9978 18.6146 34.7672C32.8753 16.7195 53.453 3.86229 76.4911 1.18273C100.5 -1.78439 124.696 4.99747 143.664 20.0107C162.838 35.1742 173.983 56.9223 176.811 81.0379C177.638 84.0144 177.897 88.0851 178.13 91.2055C179.395 108.143 176.182 125.108 167.802 139.969C155.957 160.647 136.474 175.852 113.54 182.319C91.1061 188.551 67.1119 185.55 46.9053 173.983C28.0994 163.31 16.1684 146.9 8.28911 127.053C7.65843 126.004 6.96081 124.026 6.79922 122.806Z" fill="#292A2A"/>
<path d="M176.811 81.0378C177.638 84.0144 177.897 88.0851 178.13 91.2054C179.395 108.143 176.181 125.108 167.802 139.969C155.957 160.646 136.474 175.852 113.54 182.319C91.106 188.551 67.1119 185.55 46.9053 173.983C28.0994 163.31 16.1683 146.9 8.28909 127.053C7.65841 126.004 6.96079 124.026 6.79919 122.806C7.24543 123.289 10.0345 129.41 10.7264 130.64C11.1549 131.013 11.8196 132.444 12.1453 132.988C14.8073 137.494 17.8343 141.775 21.1959 145.787C36.1505 163.661 57.5999 174.852 80.8148 176.895C100.11 178.64 117.936 174.584 134.419 164.34C138.159 162.053 141.728 159.499 145.1 156.699C162.235 142.363 173.975 121.229 176.421 98.969C176.884 94.7515 177.024 90.6043 176.985 86.367C176.969 84.6608 176.63 82.8146 176.799 81.1375C176.802 81.1042 176.806 81.0711 176.811 81.0378Z" fill="#80532E"/>
<path d="M86.3448 26.0873C87.8958 26.0227 89.45 26.0089 91.0021 26.0457C91.6216 26.0838 92.2422 26.1355 92.8617 26.1413C94.5091 26.1735 103.539 27.1289 104.432 28.0024C105.539 28.0197 106.505 28.6878 107.553 28.78C112.878 30.701 118.867 33.2166 123.36 36.7445C123.773 36.9784 124.551 37.3909 124.825 37.7826C129.197 40.4512 134.6 46.3575 137.761 50.4199C138.24 51.035 139.249 52.0905 139.403 52.8297C139.425 52.9343 139.421 52.9646 139.423 53.0614C139.984 53.3406 141.906 56.3957 142.259 57.1199C143.117 58.3756 143.761 59.9118 144.434 61.2747C150.157 72.8682 151.548 86.9046 149.167 99.5399C148.705 101.991 147.557 106.934 146.39 109.006C145.469 111.811 144.02 114.807 142.409 117.281C141.866 118.635 140.362 121.286 139.398 122.329C138.334 124.693 132.527 130.696 130.334 132.292C129.764 132.843 129.121 133.327 128.504 133.823C122.414 138.826 115.054 142.902 107.542 145.306C106.631 145.625 105.669 145.859 104.745 146.152C104.755 144.352 104.743 142.551 104.71 140.752L104.541 142.69C104.531 143.85 104.502 145.012 104.567 146.171C101.737 146.921 98.9324 147.543 96.0309 147.942C95.2814 148.013 94.5319 148.094 93.7835 148.182C91.887 148.352 89.9937 148.347 88.0918 148.334L86.4813 148.326C81.4215 148.138 76.4138 147.236 71.6066 145.646L71.3938 145.595C70.5307 145.196 69.5736 144.914 68.6819 144.574C64.9577 143.106 61.4312 141.501 57.9712 139.485C57.4415 139.191 56.9335 138.9 56.446 138.539C53.2662 136.828 48.3252 132.857 45.7496 130.287C45.1689 129.74 44.6076 129.172 44.0669 128.585C41.3052 126.002 38.7616 122.886 36.7435 119.692C35.6329 118.539 34.4958 116.542 33.9402 115.049C32.6331 113.032 31.573 110.464 30.8148 108.192L30.7687 108.081C26.231 97.0585 26.3655 80.9302 29.7621 69.5957C30.822 66.0587 32.4458 62.8581 33.8596 59.4751C34.4736 58.0192 35.3924 56.1883 36.3708 54.9477L36.7741 54.5661C36.8022 54.496 36.8374 54.4021 36.8733 54.3323C37.7043 52.714 39.3701 50.9681 40.5372 49.5421C46.895 41.7733 54.5004 35.5205 63.709 31.4384C65.3258 30.7217 66.9899 29.9751 68.6781 29.4464C68.6859 29.4459 68.6942 29.4478 68.7015 29.4451C69.6799 29.0857 70.5543 28.637 71.6005 28.487C73.2963 27.9511 75.1364 27.4256 76.9013 27.2004C78.4407 26.5016 84.4132 26.1635 86.3448 26.0873Z" fill="#CB8D51"/>
<path d="M104.432 28.0023C105.539 28.0196 106.505 28.6877 107.553 28.7799C112.878 30.7009 118.867 33.2165 123.36 36.7445C123.773 36.9783 124.551 37.3908 124.825 37.7825C129.197 40.4511 134.6 46.3574 137.761 50.4198C138.24 51.0349 139.249 52.0904 139.403 52.8296C139.425 52.9342 139.421 52.9646 139.423 53.0613C139.984 53.3405 141.906 56.3957 142.259 57.1198C143.117 58.3755 143.761 59.9117 144.434 61.2747C150.157 72.8681 151.548 86.9045 149.167 99.5398C148.705 101.991 147.557 106.934 146.39 109.006C145.469 111.811 144.02 114.807 142.409 117.281C141.866 118.635 140.362 121.286 139.398 122.329C138.334 124.693 132.527 130.696 130.334 132.292C129.764 132.843 129.121 133.327 128.504 133.823C122.414 138.826 115.054 142.902 107.542 145.306C106.631 145.625 105.669 145.859 104.745 146.152C104.755 144.351 104.743 142.551 104.71 140.752L104.541 142.69C104.432 140.892 104.553 139.016 104.57 137.212L104.621 127.183C104.631 119.162 104.38 111.113 104.554 103.097C104.426 86.8364 104.412 70.5753 104.512 54.3147C104.268 52.0757 104.446 49.663 104.448 47.4031L104.426 33.817C104.413 31.8788 104.415 29.9405 104.432 28.0023Z" fill="#CB8D51"/>
<path d="M104.432 28.0023C105.539 28.0196 106.505 28.6877 107.553 28.7799C107.295 30.485 107.471 32.8621 107.456 34.6407L107.454 67.2148C107.453 72.7083 107.591 78.2407 107.437 83.7302C107.586 87.439 107.459 91.1903 107.474 94.9042C107.556 101.704 107.59 108.503 107.575 115.303L107.591 134.422C107.593 138.042 107.674 141.688 107.542 145.306C106.631 145.625 105.669 145.859 104.745 146.152C104.755 144.351 104.743 142.551 104.71 140.752L104.541 142.69C104.432 140.892 104.553 139.016 104.57 137.212L104.621 127.183C104.631 119.162 104.38 111.113 104.554 103.097C104.426 86.8364 104.412 70.5753 104.512 54.3147C104.268 52.0757 104.446 49.663 104.448 47.4031L104.426 33.817C104.413 31.8788 104.415 29.9405 104.432 28.0023Z" fill="#80532E"/>
<path d="M104.432 28.0023C105.539 28.0196 106.505 28.6877 107.553 28.7799C107.295 30.485 107.471 32.8621 107.456 34.6407L107.454 67.2148C107.453 72.7083 107.591 78.2407 107.437 83.7302C106.973 82.5647 107.214 73.9659 107.21 71.8971L107.183 46.0274C107.191 42.1927 107.323 38.3789 107.27 34.541L104.672 33.824C104.889 36.463 104.763 39.1855 104.766 41.8355C104.769 45.3371 104.856 48.8614 104.742 52.3605L104.663 51.7636L104.601 51.7698C104.555 52.6067 104.622 53.4903 104.512 54.3147C104.268 52.0757 104.446 49.663 104.448 47.4031L104.426 33.817C104.413 31.8788 104.415 29.9405 104.432 28.0023Z" fill="#4A290F"/>
<path d="M104.512 54.3148C104.622 53.4903 104.555 52.6067 104.601 51.7698L104.663 51.7637L104.742 52.3606L104.748 87.2815C104.766 95.4664 104.916 103.669 104.689 111.851C104.678 109.868 104.879 104.616 104.554 103.097C104.426 86.8364 104.412 70.5754 104.512 54.3148Z" fill="#26160C"/>
<path d="M142.259 57.1199C143.117 58.3756 143.761 59.9117 144.434 61.2747C150.157 72.8682 151.548 86.9046 149.167 99.5399C148.705 101.991 147.557 106.934 146.39 109.006C145.469 111.811 144.02 114.807 142.409 117.281C142.131 115.824 142.345 112.17 142.342 110.484C142.335 105.909 142.296 101.333 142.223 96.7585C142.204 94.2165 142.363 91.5932 142.126 89.0664L142.241 65.7809C142.142 62.912 142.293 59.9979 142.259 57.1199Z" fill="#CB8D51"/>
<path d="M142.259 57.1199C143.117 58.3756 143.761 59.9117 144.434 61.2747C150.157 72.8682 151.548 86.9046 149.167 99.5399C148.705 101.991 147.557 106.934 146.39 109.006C146.359 108.997 146.328 108.978 146.296 108.98C146.229 108.984 146.165 109.009 146.099 109.024C145.845 108.93 146.002 108.201 146.033 107.923C146.444 104.494 146.806 101.058 147.118 97.6185C147.873 88.5379 147.254 79.5076 144.295 70.8376C143.721 69.1533 143.122 67.3306 142.241 65.7809C142.142 62.912 142.293 59.9979 142.259 57.1199Z" fill="#96734A"/>
<path d="M139.423 53.0613C139.984 53.3405 141.906 56.3957 142.259 57.1198C142.293 59.9978 142.142 62.912 142.241 65.7808L142.126 89.0663C142.363 91.5932 142.204 94.2164 142.223 96.7584C142.296 101.333 142.335 105.909 142.341 110.484C142.345 112.17 142.131 115.824 142.409 117.281C141.866 118.635 140.362 121.286 139.398 122.329C139.379 121.938 139.392 121.56 139.415 121.17L139.368 81.7005L139.401 68.293C139.404 65.9673 139.459 63.6258 139.375 61.3026C139.348 58.5764 139.29 55.7831 139.423 53.0613Z" fill="#80532E"/>
<path d="M139.423 53.0613C139.984 53.3405 141.906 56.3957 142.259 57.1198C142.293 59.9978 142.142 62.912 142.241 65.7808L142.126 89.0663L142.115 89.1952C142.045 90.1321 142.051 91.0766 142.039 92.0156L141.984 74.5438C141.978 71.4893 141.834 68.3979 141.959 65.3485C141.187 64.0961 140.436 62.8253 139.642 61.5873C139.796 63.478 139.637 65.4692 139.634 67.3737L139.625 79.8637L139.615 105.474C139.615 110.356 139.696 115.246 139.639 120.127C139.634 120.541 139.633 120.811 139.415 121.17L139.368 81.7005L139.401 68.293C139.404 65.9673 139.459 63.6258 139.375 61.3026C139.348 58.5764 139.29 55.7831 139.423 53.0613Z" fill="#4A290F"/>
<path d="M124.825 37.7825C129.197 40.4511 134.6 46.3574 137.761 50.4198C138.24 51.0349 139.249 52.0904 139.403 52.8296C139.425 52.9342 139.421 52.9645 139.423 53.0613C139.29 55.7831 139.348 58.5763 139.375 61.3026C139.271 60.9524 139.26 60.5635 139.227 60.1998C139.189 60.2409 139.149 60.2799 139.113 60.3234C139.08 60.3639 139.053 60.4085 139.024 60.4511C138.473 60.0838 138.044 59.0829 137.657 58.5282C136.583 56.99 135.398 55.4974 134.189 54.0633C131.319 50.6579 128.082 47.839 124.903 44.7467C124.8 43.1648 125.186 39.3702 124.93 38.2465C124.917 38.1873 124.899 38.129 124.886 38.0697C124.864 37.9743 124.845 37.8781 124.825 37.7825Z" fill="#AA713B"/>
<path d="M107.553 28.7799C112.878 30.701 118.867 33.2166 123.36 36.7445C122.942 38.6441 123.082 40.9118 123.05 42.8653C118.947 38.7691 113.1 35.8228 107.456 34.6407C107.471 32.8622 107.295 30.485 107.553 28.7799Z" fill="#96734A"/>
<path d="M128.504 133.823C128.015 132.422 128.353 126.728 128.34 124.979C128.286 117.702 128.076 110.391 128.28 103.117C128.333 101.177 128.38 99.1401 128.718 97.2274C128.801 96.7595 129.069 96.0912 129.5 95.8388C129.654 95.7489 129.618 95.7847 129.805 95.8529C130.145 96.3349 130.147 97.0595 130.178 97.6357C130.354 100.806 130.191 104.052 130.187 107.232L130.202 125.29C130.203 126.728 129.957 130.985 130.285 132.132C130.3 132.186 130.317 132.239 130.334 132.292C129.764 132.843 129.121 133.327 128.504 133.823Z" fill="#AA713B"/>
<path d="M123.36 36.7445C123.773 36.9783 124.551 37.3909 124.825 37.7825C124.845 37.8782 124.864 37.9744 124.886 38.0698C124.899 38.129 124.917 38.1874 124.93 38.2465C125.186 39.3702 124.8 43.1648 124.903 44.7468C124.686 47.7767 124.776 50.8736 124.785 53.9124C125.013 54.9965 124.857 56.4109 124.857 57.5352C124.854 60.6999 125.135 64.1331 124.445 67.2334L123.605 66.7274C122.714 64.2552 123.016 58.8013 123.009 56.0564L123.047 43.8453L123.05 42.8654C123.082 40.9118 122.942 38.6441 123.36 36.7445Z" fill="#AA713B"/>
<path d="M123.36 36.7445C123.773 36.9783 124.551 37.3909 124.825 37.7825C124.845 37.8782 124.864 37.9744 124.886 38.0698C124.899 38.129 124.917 38.1874 124.93 38.2465C125.186 39.3702 124.8 43.1648 124.903 44.7468C124.686 47.7767 124.776 50.8736 124.785 53.9124C124.598 52.7979 124.687 51.4863 124.687 50.3554C124.697 48.436 124.688 46.5167 124.66 44.5974C124.351 44.3074 123.987 43.8569 123.591 43.7067C123.373 43.6245 123.246 43.7551 123.047 43.8453L123.05 42.8654C123.082 40.9118 122.942 38.6441 123.36 36.7445Z" fill="#80532E"/>
<path d="M119.572 109.771C119.576 109.82 119.584 109.87 119.586 109.92C119.651 111.089 119.539 115.584 118.916 116.303L118.696 116.171C118.615 115.95 118.532 115.734 118.424 115.525C118.144 114.987 117.902 114.47 117.866 113.855C117.738 111.632 117.918 109.363 117.937 107.134C117.96 102.883 117.961 98.6332 117.94 94.3821L117.698 79.7207C117.65 76.799 117.546 73.8279 117.699 70.9099C117.74 70.1135 117.721 69.4004 118.273 68.7732C118.569 68.7224 118.561 68.7409 118.817 68.9044C119.079 69.4911 119.162 70.1193 119.225 70.7541C119.571 74.237 119.457 77.8688 119.557 81.3711C119.77 88.8844 120.053 96.5288 119.678 104.036C119.691 105.948 119.655 107.86 119.572 109.771Z" fill="#AA713B"/>
<path d="M119.678 104.036C119.691 105.948 119.655 107.86 119.572 109.771C119.396 108.776 119.251 104.824 119.678 104.036Z" fill="#96734A"/>
<path d="M68.6781 29.4463C68.668 31.442 68.668 33.4376 68.6781 35.4332L68.6497 97.0151L68.6731 126.926C68.6804 132.436 68.5411 137.983 68.6917 143.489C68.6874 143.851 68.6776 144.212 68.6819 144.573C64.9577 143.106 61.4312 141.501 57.9712 139.485C57.4415 139.191 56.9335 138.9 56.446 138.538C53.2662 136.828 48.3252 132.857 45.7496 130.286C45.1689 129.74 44.6076 129.172 44.0669 128.585C41.3052 126.002 38.7616 122.886 36.7435 119.692C35.6329 118.539 34.4958 116.542 33.9402 115.049C32.6331 113.032 31.573 110.464 30.8148 108.191L30.7687 108.081C26.231 97.0584 26.3655 80.9301 29.7621 69.5956C30.822 66.0586 32.4458 62.858 33.8596 59.475C34.4736 58.0191 35.3924 56.1883 36.3708 54.9476L36.7741 54.566C36.8022 54.4959 36.8374 54.402 36.8733 54.3322C37.7043 52.7139 39.3701 50.968 40.5372 49.542C46.895 41.7732 54.5004 35.5205 63.709 31.4383C65.3258 30.7216 66.9899 29.9751 68.6781 29.4463Z" fill="#CB8D51"/>
<path d="M33.8596 59.475C33.9702 60.8546 33.8991 62.2755 33.8963 63.6597C33.8932 65.2149 33.9393 66.7851 33.8928 68.3387L33.8959 69.5705C33.6018 71.0311 33.8062 73.2319 33.8087 74.7758C33.8136 77.7171 33.7478 80.6775 33.8285 83.6161C33.8011 85.9872 33.7934 88.3591 33.8052 90.73C33.805 96.975 33.9838 103.218 33.9205 109.464C33.9106 110.817 33.9076 112.171 33.9115 113.524C33.9122 114.01 33.9874 114.575 33.9402 115.049C32.6331 113.032 31.573 110.464 30.8148 108.191L30.7687 108.081C26.231 97.0584 26.3655 80.9301 29.7621 69.5956C30.822 66.0586 32.4458 62.858 33.8596 59.475Z" fill="#96734A"/>
<path d="M30.8148 108.192C30.9644 107.923 31.0407 107.688 31.058 107.381C31.2045 104.792 30.8553 102.048 30.6634 99.4565C30.4288 96.2852 30.2931 93.1421 30.3525 89.9621C30.4419 85.1688 31.049 80.2779 31.9318 75.5723C32.1387 74.4695 32.3573 73.3593 32.6548 72.2768C32.9693 71.1329 33.3859 69.986 33.568 68.8124C33.7765 67.4694 33.6148 66.1513 33.636 64.8041C33.642 64.4154 33.7198 64.0379 33.7212 63.6473C33.6483 63.7754 33.7933 67.7643 33.8683 68.2038C33.876 68.2488 33.8846 68.2938 33.8929 68.3388L33.8959 69.5706C33.6018 71.0312 33.8062 73.232 33.8087 74.7758C33.8136 77.7172 33.7478 80.6776 33.8285 83.6162C33.8011 85.9873 33.7934 88.3592 33.8052 90.73C33.805 96.9751 33.9838 103.218 33.9205 109.464C33.9106 110.817 33.9076 112.171 33.9115 113.524C33.9122 114.01 33.9874 114.575 33.9402 115.049C32.6331 113.032 31.573 110.464 30.8148 108.192Z" fill="#CB8D51"/>
<path d="M68.6781 29.4463C68.6679 31.442 68.6679 33.4376 68.6781 35.4332C64.3209 37.0046 59.2323 39.3673 55.6315 42.3317C53.7365 43.8919 51.999 45.7647 50.0265 47.2069L49.9798 47.1841C49.3113 47.5964 48.6979 48.0327 48.1185 48.566L48.0413 48.6217C43.3206 52.2732 40.0286 57.9096 36.9725 62.9313C36.828 63.1688 36.7896 63.3701 36.7406 63.6387C36.7151 60.6212 36.7646 57.5857 36.7741 54.566C36.8022 54.4959 36.8374 54.402 36.8733 54.3322C37.7043 52.7139 39.3701 50.968 40.5371 49.542C46.895 41.7732 54.5004 35.5205 63.709 31.4383C65.3258 30.7216 66.9899 29.9751 68.6781 29.4463Z" fill="#96734A"/>
<path d="M49.9397 40.3564C49.9413 42.6324 49.9547 44.9083 49.9798 47.1841C49.3113 47.5964 48.6978 48.0327 48.1185 48.566C47.7947 47.366 47.8779 43.466 47.9578 42.0947C48.5817 41.4769 49.2674 40.9201 49.9397 40.3564Z" fill="#80532E"/>
<path d="M36.3708 54.9476L36.7741 54.566C36.7646 57.5857 36.7152 60.6213 36.7406 63.6387L36.748 93.4215C36.8922 94.6378 36.8212 95.9353 36.8276 97.1635L36.8437 103.883L36.8368 113.442C36.8326 115.52 36.8795 117.62 36.7435 119.692C35.6329 118.539 34.4958 116.542 33.9402 115.049C33.9874 114.575 33.9122 114.01 33.9115 113.524C33.9076 112.171 33.9106 110.817 33.9205 109.464C33.9838 103.218 33.805 96.9751 33.8052 90.73C33.7934 88.3591 33.8011 85.9873 33.8285 83.6162C33.7478 80.6775 33.8136 77.7171 33.8087 74.7758C33.8062 73.232 33.6018 71.0311 33.8959 69.5706L33.8928 68.3388C33.9393 66.7851 33.8932 65.215 33.8963 63.6597C33.8991 62.2756 33.9702 60.8547 33.8596 59.475C34.4736 58.0191 35.3924 56.1883 36.3708 54.9476Z" fill="#80532E"/>
<path d="M36.3708 54.9476L36.774 54.566C36.7646 57.5857 36.7151 60.6213 36.7406 63.6387L36.7479 93.4215C36.6551 93.4583 36.713 93.4464 36.5712 93.4139C36.4369 92.2875 36.5107 91.0885 36.51 89.9523L36.5024 83.9707C36.5732 77.3121 36.5429 70.6528 36.4114 63.9951C35.4702 65.0243 34.6026 66.8188 34.2301 68.1585C34.0964 68.6391 34.2048 69.1569 33.8958 69.5706L33.8928 68.3388C33.9393 66.7851 33.8931 65.215 33.8963 63.6597C33.8991 62.2756 33.9701 60.8547 33.8596 59.475C34.4736 58.0191 35.3923 56.1883 36.3708 54.9476Z" fill="#4A290F"/>
<path d="M56.446 138.539C56.4643 138.503 56.4868 138.469 56.5006 138.432C56.7781 137.687 56.2676 128.228 56.2331 126.55C56.0156 116.942 56.0426 107.33 56.314 97.7235L56.5133 88.9819C56.566 87.2526 56.5561 85.4777 56.7998 83.7639C56.869 83.2773 56.9011 82.7534 57.2633 82.39C57.5232 82.3049 57.5594 82.2777 57.8177 82.3541C58.2047 82.6872 58.2056 83.3052 58.2389 83.7848C58.3775 85.7825 58.2791 87.8507 58.2793 89.8549C58.2799 95.4371 58.0842 101.016 58.0847 106.597L58.2714 133.531C58.2796 135.418 58.4713 137.3 58.4422 139.187C58.2876 139.304 58.1448 139.4 57.9712 139.485C57.4415 139.191 56.9335 138.9 56.446 138.539Z" fill="#AA713B"/>
<path d="M49.9798 47.1842L50.0265 47.207C50.0539 56.6602 50.3406 66.0818 50.078 75.5368C49.9793 79.0915 49.9889 82.7621 49.5295 86.2897C49.1357 85.8048 48.7314 85.3567 48.5917 84.7292C48.0349 82.2288 48.3219 76.7295 48.3173 73.9044C48.3386 67.7829 48.2955 61.6613 48.188 55.5407L48.11 51.0444C48.1004 50.2813 48.1881 49.3664 48.0413 48.6218L48.1185 48.5661C48.6978 48.0328 49.3113 47.5965 49.9798 47.1842Z" fill="#AA713B"/>
<path d="M92.6164 29.5438L92.6631 29.5666C92.6905 39.0199 92.9772 48.4414 92.7147 57.8964C92.616 61.4511 92.6255 65.1217 92.1662 68.6493C91.7724 68.1644 91.3681 67.7164 91.2283 67.0888C90.6715 64.5884 90.9585 59.0891 90.954 56.264C90.9752 50.1425 90.9321 44.0209 90.8247 37.9003L90.7467 33.4041C90.7371 32.6409 90.8248 31.726 90.6779 30.9814L90.7551 30.9257C91.3345 30.3924 91.9479 29.9562 92.6164 29.5438Z" fill="#AA713B"/>
<path d="M44.0669 128.585C44.0881 122.528 44.3489 116.514 44.5792 110.463C44.6591 108.359 44.4941 106.195 44.6796 104.105C44.7288 103.552 44.8019 102.938 45.064 102.444L45.2561 102.317C45.6238 102.488 45.871 102.904 46.0063 103.274C46.2588 103.964 46.2921 104.747 46.3271 105.476C46.465 108.349 46.3205 129.26 45.8396 130.135C45.8112 130.186 45.7796 130.236 45.7496 130.287C45.1688 129.74 44.6076 129.172 44.0669 128.585Z" fill="#AA713B"/>
<path d="M68.6781 29.4462C68.6859 29.4458 68.6942 29.4476 68.7015 29.4449C69.6799 29.0855 70.5543 28.6368 71.6005 28.4868C71.6129 30.4367 71.6063 32.3867 71.5806 34.3366C71.3529 38.5699 71.6938 42.8336 71.5066 47.0643C71.6788 48.4797 71.5705 49.9974 71.5602 51.4255L71.5073 59.4903C71.5189 68.323 71.6765 77.159 71.5775 85.9938C71.6003 90.9389 71.5866 95.8843 71.5362 100.83L71.5959 125.012L71.617 138.073C71.6317 140.575 71.7962 143.152 71.6066 145.646L71.3938 145.595C70.5307 145.196 69.5736 144.913 68.6819 144.573C68.6776 144.212 68.6874 143.851 68.6917 143.489C68.5411 137.983 68.6804 132.436 68.6731 126.926L68.6497 97.015L68.6781 35.4331C68.668 33.4375 68.668 31.4419 68.6781 29.4462Z" fill="#80532E"/>
<path d="M68.6781 29.4462C68.6859 29.4458 68.6942 29.4476 68.7015 29.4449C69.6799 29.0855 70.5543 28.6368 71.6005 28.4868C71.6129 30.4367 71.6063 32.3867 71.5806 34.3366C71.3529 38.5699 71.6938 42.8336 71.5066 47.0643C71.2868 45.6663 71.3901 44.1398 71.3972 42.7248C71.4111 40.0189 71.4803 37.2939 71.2772 34.5942L68.9227 35.3424L68.8382 109.607L68.856 136.124C68.8472 138.346 68.9322 140.565 68.8935 142.786C68.8884 143.075 68.8636 143.256 68.6917 143.489C68.5411 137.983 68.6804 132.436 68.6731 126.926L68.6497 97.015L68.6781 35.4331C68.668 33.4375 68.668 31.4419 68.6781 29.4462Z" fill="#4A290F"/>
<path d="M91.0021 26.0457C89.45 26.0089 87.8958 26.0227 86.3448 26.0873C84.4132 26.1635 78.4406 26.5016 76.9012 27.2004C75.1363 27.4256 73.2963 27.9511 71.6005 28.487C71.6128 30.4369 71.6062 32.3868 71.5806 34.3367L71.9886 34.2225C75.9516 32.9951 80.4618 32.2348 84.6064 32.0185C86.7119 31.9086 88.8261 31.9767 90.9327 32.0148L91.9935 32.0102H92.7556C92.5292 30.0753 93.1379 28.0537 92.8617 26.1413C92.2422 26.1355 91.6216 26.0838 91.0021 26.0457Z" fill="#96734A"/>
<path d="M91.002 26.0457C91.6216 26.0838 92.2422 26.1354 92.8617 26.1413C93.1379 28.0537 92.5292 30.0753 92.7556 32.0101C92.2422 31.9747 91.6357 31.8911 91.145 32.0584L91.0421 32.2713C90.9024 30.3899 90.9122 28.2742 91.1331 26.4026L91.002 26.0457Z" fill="#80532E"/>
<path d="M71.6005 28.4869C73.2963 27.951 75.1363 27.4255 76.9012 27.2003C76.3341 27.7945 72.9965 28.3586 71.9474 28.7018C71.8952 30.5403 71.8538 32.386 71.9886 34.2224L71.5806 34.3367C71.6062 32.3868 71.6128 30.4368 71.6005 28.4869Z" fill="#AA713B"/>
<path d="M86.3448 26.0873C87.8958 26.0227 89.45 26.0089 91.0021 26.0457L91.1331 26.4027C89.8984 26.3502 87.3098 26.6748 86.3448 26.0873Z" fill="#AA713B"/>
<path d="M92.8618 26.1412C94.5091 26.1734 103.539 27.1288 104.432 28.0023C104.415 29.9405 104.413 31.8788 104.426 33.817C100.533 33.0062 96.7111 32.4032 92.7556 32.0101C92.5293 30.0752 93.1379 28.0536 92.8618 26.1412Z" fill="#96734A"/>
<path d="M87.2124 112.578C87.2221 111.354 87.0553 108.848 87.7994 107.88L87.99 107.941C88.2619 108.659 88.5229 109.227 88.5781 110.009C88.7503 112.454 88.6366 114.974 88.6323 117.426C88.6225 123.571 88.4276 129.698 88.3279 135.841L88.2294 144.637C88.2077 145.816 88.3084 147.183 88.0918 148.334L86.4813 148.326C86.1936 141.622 86.5235 134.92 86.7011 128.22L86.8192 122.462C86.8441 121.576 86.8105 120.634 86.9513 119.761C86.999 117.365 87.0856 114.971 87.2124 112.578Z" fill="#AA713B"/>
<path d="M87.2123 112.578L87.3618 112.536C87.482 113.499 87.3585 119.196 87.0986 119.882L86.9957 119.874L86.9513 119.761C86.9989 117.365 87.0856 114.971 87.2123 112.578Z" fill="#96734A"/>
<path d="M93.7834 148.182C93.9297 147.132 93.8105 145.911 93.8148 144.842C93.8268 141.982 93.7737 135.107 94.6369 132.66C94.7485 132.344 94.8405 132.143 95.1438 131.995L95.3268 132.109C95.5792 132.559 95.6539 133.035 95.7059 133.541C95.929 135.735 95.7568 138.122 95.759 140.331C95.7612 142.491 95.98 145.601 95.6409 147.687C95.6355 147.72 95.629 147.752 95.6236 147.785C95.7644 147.956 95.8197 147.914 96.0309 147.942C95.2814 148.013 94.5319 148.094 93.7834 148.182Z" fill="#AA713B"/>
<path d="M79.9095 120.503C76.3859 116.971 75.5742 111.556 77.9073 107.146C80.2405 102.735 85.1743 100.36 90.0773 101.285C94.9793 102.211 98.7073 106.222 99.2727 111.179L99.4297 111.416C99.5803 111.154 99.4514 110.668 99.6323 110.523C100.623 111.47 100.944 113.757 100.975 115.083C101.059 118.504 99.8608 121.51 97.4845 123.977C95.5534 125.981 93.1706 127.183 90.3643 127.224C87.4595 127.267 84.3848 126.322 82.2915 124.238C81.3955 123.346 79.9331 121.83 79.9095 120.503Z" fill="#292A2A"/>
<path d="M99.2726 111.179L99.4297 111.416C99.5802 111.154 99.4514 110.668 99.6322 110.523C100.623 111.47 100.944 113.757 100.975 115.083C101.059 118.504 99.8608 121.51 97.4845 123.977C95.5533 125.981 93.1705 127.183 90.3643 127.224C87.4594 127.267 84.3847 126.322 82.2915 124.238C81.3954 123.346 79.933 121.83 79.9094 120.503C83.3284 123.931 88.5414 124.82 92.903 122.719C97.2646 120.619 99.8207 115.989 99.2726 111.179Z" fill="#AA713B"/>
<path d="M87.8862 104.125C89.748 104.225 91.3467 104.758 92.8067 105.943C94.4205 107.251 95.2783 109.098 95.4743 111.146C95.705 113.555 95.3368 115.988 93.7425 117.887C92.276 119.636 90.6048 120.315 88.3584 120.498C86.3374 120.336 84.4797 120.105 82.8842 118.716C81.3783 117.405 80.5511 115.39 80.4133 113.427C80.2486 111.083 80.7861 108.64 82.3677 106.839C83.8592 105.141 85.6436 104.269 87.8862 104.125Z" fill="#80532E"/>
<path d="M87.7387 4.24707C87.5752 4.29895 87.4116 4.35386 87.2503 4.4117C86.2527 4.77128 85.4465 5.56865 85.0248 6.53867C84.5633 7.6158 84.5551 8.8334 85.002 9.91671C85.5527 11.2446 86.5885 12.0171 87.859 12.5749C85.5239 12.2886 82.8508 12.6294 80.5097 12.8631C72.1296 13.7409 63.9664 16.0705 56.3852 19.7476C54.299 20.7551 52.3283 21.9838 50.2605 23.0205C48.8036 23.977 47.357 24.9491 45.921 25.9366C29.1119 38.5479 17.722 54.4253 14.7066 75.5398C13.8931 81.2358 13.7233 86.8447 14.0573 92.581C14.1796 94.68 14.29 96.8028 14.8015 98.852C15.2146 100.764 15.6085 102.68 15.9831 104.6C17.9055 111.538 20.4476 118.196 24.0604 124.444C24.9526 125.988 26.0383 127.4 27.0566 128.859C33.6405 138.457 42.3508 146.406 52.5095 152.087C54.7427 153.356 57.1211 154.226 59.4654 155.251C62.0976 156.4 64.6785 157.546 67.4174 158.435C72.4062 160.039 77.5752 161.016 82.8053 161.344C84.473 161.464 86.1613 161.63 87.833 161.658C95.0452 161.78 102.211 160.414 109.125 158.474C112.676 157.478 116.299 155.981 119.671 154.512C123.869 152.685 127.883 150.7 131.709 148.166C141.465 141.7 149.358 132.09 155.033 121.93C156.158 119.916 157.043 117.761 158.184 115.758C159.369 113.147 160.065 110.296 160.979 107.585C161.336 108.367 160.82 109.635 160.575 110.432L160.446 111.108C161.645 110.613 162.274 109.48 163.669 109.222L163.779 109.347C165.042 109.402 166.153 109.581 167.067 110.547C167.694 111.211 168.098 112.014 168.41 112.865L168.583 112.838C168.541 113.518 168.512 114.2 168.576 114.88L168.818 114.206L168.961 114.147C168.483 115.994 167.854 117.8 167.08 119.543C166.673 120.988 165.882 122.47 165.251 123.83C161.187 132.582 155.153 141.154 148.409 148.052C138.43 158.26 124.411 166.577 110.634 170.382C104.376 172.145 97.9057 173.039 91.4039 173.043C87.3586 173.086 83.302 173.119 79.2767 172.663C61.3595 170.63 42.9635 162.136 30.0695 149.464C15.9594 135.597 6.93209 118.368 4.64689 98.6332C4.32456 95.8486 4.04989 93.0488 4.02704 90.2437C3.68651 67.6215 12.4359 45.8082 28.3148 29.6913C30.8654 27.0982 33.5991 24.7776 36.4307 22.5013C51.582 10.3213 68.2969 4.42145 87.7387 4.24707Z" fill="#515658"/>
<path d="M14.8015 98.8521C15.2146 100.764 15.6085 102.68 15.9831 104.6C17.9055 111.538 20.4476 118.196 24.0604 124.444C24.9526 125.988 26.0383 127.4 27.0566 128.859C33.6405 138.457 42.3508 146.406 52.5095 152.087C54.7427 153.356 57.1211 154.226 59.4654 155.251C62.0976 156.4 64.6785 157.546 67.4174 158.435C72.4062 160.039 77.5751 161.016 82.8053 161.344C84.473 161.464 86.1613 161.63 87.833 161.658C95.0452 161.78 102.211 160.414 109.125 158.474C112.676 157.478 116.299 155.981 119.671 154.512C123.869 152.685 127.883 150.701 131.709 148.166C141.465 141.7 149.358 132.09 155.033 121.93C156.158 119.916 157.043 117.761 158.184 115.758C159.369 113.147 160.065 110.296 160.979 107.585C161.336 108.367 160.82 109.635 160.575 110.432L160.446 111.108L160.158 112.191C158.861 115.8 157.766 119.518 156.141 123.001C152.214 131.276 146.592 138.633 139.638 144.594C138.448 145.628 137.216 146.85 135.893 147.695C135.428 147.774 135.117 148.125 134.707 148.326C133.318 149.009 132.618 148.683 131.599 150.122C131.487 150.281 131.367 150.517 131.215 150.638C131.178 150.653 131.14 150.665 131.103 150.681C130.124 151.135 129.047 152.151 128.141 152.791C126.843 153.707 125.419 154.542 124.017 155.287C115.873 159.571 107.036 162.382 97.9133 163.591C95.7557 163.873 93.2906 164.162 91.1191 163.913C90.91 163.789 90.6912 163.681 90.4638 163.593L90.4616 163.538C90.3046 163.308 90.1573 163.255 89.8876 163.202C88.5121 162.931 87.1333 163.141 85.9823 163.929C85.1327 163.986 84.2614 163.951 83.4104 163.91C72.266 163.372 61.1222 159.424 51.5385 153.852C49.9574 152.933 47.7801 151.916 46.5598 150.54C46.4516 150.418 46.3833 150.339 46.2493 150.235C46.214 150.207 46.1765 150.182 46.14 150.156C45.3744 148.793 43.941 147.941 42.3781 147.92L42.5171 147.876L42.4883 147.807C40.3475 146.98 33.4214 140.046 31.6413 138.074C27.0308 132.963 22.8897 125.948 20.1616 119.661C19.4888 118.112 18.9361 116.496 18.3537 114.91C17.2328 111.856 16.5112 109.824 15.8319 106.606C15.5723 105.377 15.0247 103.762 15.0851 102.516C14.7506 101.781 14.5327 100.217 14.6987 99.4066C14.7367 99.2203 14.7718 99.0394 14.8015 98.8521Z" fill="#3D3D3D"/>
<path d="M91.1191 163.913C93.2127 165.157 93.9513 167.83 92.7935 169.971C91.6357 172.112 88.9941 172.958 86.8084 171.888C84.6217 170.817 83.6702 168.212 84.6521 165.984C85.634 163.756 88.1991 162.701 90.4638 163.593C90.6912 163.681 90.91 163.789 91.1191 163.913Z" fill="#292A2A"/>
<path d="M86.7823 166.815C87.1398 166.365 87.4766 166.032 88.0279 165.836C88.7514 165.578 89.4597 165.693 90.1323 166.027C90.0684 166.034 90.0045 166.041 89.9406 166.048C88.564 166.18 88.4059 165.881 87.1116 166.702C86.9264 166.82 87.0044 166.785 86.7823 166.815Z" fill="#5F6263"/>
<path d="M131.215 150.638C131.367 150.517 131.487 150.281 131.599 150.122C132.618 148.683 133.318 149.009 134.707 148.326C135.117 148.125 135.428 147.774 135.893 147.695C135.708 147.854 135.19 148.207 135.171 148.426C136.602 148.826 137.867 149.271 138.675 150.627C139.273 151.63 139.344 152.941 139.052 154.052C138.734 155.269 137.953 156.304 136.847 156.908C135.81 157.473 134.612 157.603 133.487 157.223C132.379 156.837 131.471 156.025 130.963 154.967C130.444 153.911 130.387 152.716 130.769 151.606C130.884 151.27 131.051 150.952 131.215 150.638Z" fill="#292A2A"/>
<path d="M46.14 150.156C47.1117 151.885 46.8 154.053 45.3802 155.438C43.9603 156.824 41.7865 157.083 40.0808 156.069C38.3753 155.056 37.5634 153.023 38.1017 151.113C38.64 149.204 40.3942 147.894 42.3781 147.92C43.941 147.941 45.3744 148.793 46.14 150.156Z" fill="#292A2A"/>
<path d="M45.695 25.7588C45.0897 25.9246 44.3762 26.054 43.7473 26.0628C42.8053 26.0759 41.6723 25.5349 41.0461 24.842C40.3439 24.0654 40.0633 22.9711 40.1511 21.9424C40.2644 20.6178 40.9948 19.4705 42.014 18.6461C42.9557 17.8845 44.1454 17.4014 45.3708 17.5509C46.4001 17.6764 47.3604 18.2558 47.9824 19.083C48.8106 20.1847 48.7947 21.3017 48.5977 22.5911C48.7525 23.0962 48.4679 23.5769 48.2613 24.0462C48.766 23.7142 49.6345 22.9922 50.2604 23.0206C48.8036 23.9771 47.357 24.9492 45.9209 25.9367L45.695 25.7588Z" fill="#292A2A"/>
<path d="M48.5977 22.5911C48.7525 23.0962 48.4679 23.5769 48.2613 24.0462C48.766 23.7142 49.6345 22.9922 50.2604 23.0206C48.8036 23.9771 47.357 24.9492 45.9209 25.9367L45.695 25.7588C47.0302 24.955 47.9884 24.0501 48.5977 22.5911Z" fill="#5F6263"/>
<path d="M160.446 111.108C161.645 110.613 162.274 109.48 163.669 109.222L163.779 109.347C165.042 109.402 166.153 109.581 167.067 110.547C167.694 111.211 168.098 112.014 168.41 112.865C168.483 114.224 168.458 115.427 167.489 116.502C166.728 117.345 165.739 117.74 164.718 118.155C164.344 118.147 163.959 118.146 163.592 118.074C162.559 117.871 161.575 117.214 160.993 116.34C160.191 115.134 160.189 113.86 160.454 112.494C160.439 112.332 160.408 112.176 160.38 112.016L160.158 112.191L160.446 111.108Z" fill="#292A2A"/>
<path d="M160.446 111.108C161.645 110.613 162.274 109.48 163.669 109.222L163.779 109.347C162.288 110.044 161.14 110.542 160.542 112.221C160.509 112.311 160.482 112.403 160.454 112.494C160.439 112.332 160.408 112.176 160.38 112.016L160.158 112.191L160.446 111.108Z" fill="#5F6263"/>
<path d="M168.41 112.865L168.583 112.838C168.541 113.518 168.512 114.2 168.576 114.88L168.818 114.206L168.961 114.147C168.483 115.994 167.854 117.8 167.08 119.543C166.947 118.683 167.723 117.234 167.978 116.359C167.327 117.031 166.628 117.628 165.759 118.001C165.4 118.155 165.083 118.299 164.718 118.155C165.739 117.74 166.728 117.345 167.489 116.502C168.458 115.426 168.483 114.224 168.41 112.865Z" fill="#5F6263"/>
<path d="M12.669 110.714C14.9573 110.174 17.2499 111.593 17.7864 113.882C18.3229 116.172 16.8998 118.461 14.6096 118.994C12.3248 119.526 10.0412 118.107 9.50596 115.823C8.9707 113.539 10.386 111.253 12.669 110.714Z" fill="#292A2A"/>
<path d="M12.76 58.3221C13.7136 58.2663 14.5274 58.2772 15.3814 58.7872C16.264 59.3143 16.8688 60.2207 17.0906 61.2174C17.3658 62.4539 17.0445 63.7677 16.3711 64.8244C15.7498 65.7994 14.864 66.4167 13.7398 66.6725C12.8332 66.8421 11.8494 66.6552 11.0534 66.1909C10.13 65.6488 9.46585 64.7554 9.21263 63.715C8.92637 62.5667 9.15263 61.3785 9.78168 60.3837C10.4928 59.259 11.4856 58.6324 12.76 58.3221Z" fill="#292A2A"/>
<path d="M91.0898 4.38C95.7623 4.75378 100.294 5.14737 104.9 6.05933C123.799 9.84916 140.847 19.9541 153.243 34.7141C167.665 51.7098 174.653 73.7869 172.64 95.9851C172.269 100.915 171.413 105.797 170.08 110.558C169.751 111.744 169.445 113.016 168.961 114.147L168.818 114.206L168.576 114.88C168.512 114.2 168.541 113.518 168.583 112.838L168.41 112.865C168.098 112.014 167.694 111.211 167.067 110.547C166.153 109.581 165.042 109.402 163.779 109.347L163.669 109.222C162.274 109.48 161.645 110.613 160.446 111.108L160.575 110.432C160.82 109.635 161.336 108.367 160.979 107.585C166.49 88.149 163.867 68.0442 154.024 50.4526C152.057 46.9374 149.659 43.7126 147.1 40.612C137.212 28.3838 123.781 19.5178 108.65 15.2321C104.342 14.0649 99.9506 13.2402 95.5132 12.766C94.0737 12.6031 92.5737 12.7211 91.157 12.493C92.3256 11.7977 93.2062 10.6878 93.5138 9.34942C93.7781 8.19691 93.5214 7.11047 92.8672 6.1371C92.382 5.41738 91.7819 4.8936 91.0898 4.38Z" fill="#515658"/>
<path d="M163.559 58.2105C164.283 58.1528 165.066 58.3175 165.724 58.6171C166.871 59.1388 167.69 60.1254 168.08 61.3151C168.437 62.4041 168.441 63.6124 167.903 64.6441C167.282 65.8404 166.285 66.4044 165.061 66.8165C164.138 66.8345 163.36 66.7706 162.535 66.3171C161.424 65.7064 160.578 64.5984 160.235 63.3822C159.928 62.2904 160.047 61.1014 160.634 60.1227C161.311 58.9947 162.332 58.5062 163.559 58.2105Z" fill="#292A2A"/>
<path d="M163.442 60.6216C163.365 61.0103 162.973 61.2874 162.692 61.5488C162.666 62.191 162.531 63.0342 163.01 63.5449C163.523 64.0924 164.313 64.0494 164.788 64.4554C164.512 64.4792 164.209 64.5062 163.936 64.4451C163.377 64.3204 162.858 63.9068 162.569 63.4195C162.297 62.9623 162.205 62.4317 162.336 61.9144C162.496 61.2831 162.901 60.9357 163.442 60.6216Z" fill="#5F6263"/>
<path d="M134.146 19.439C135.01 19.3846 135.722 19.4219 136.528 19.7717C137.778 20.3151 138.927 21.3435 139.411 22.6365C139.769 23.5941 139.77 24.6758 139.331 25.6085C138.824 26.6876 137.949 27.2501 136.877 27.658C135.86 27.7185 134.869 27.7324 133.919 27.2916C132.782 26.7641 131.981 25.6424 131.594 24.4753C131.233 23.3862 131.286 22.1683 131.845 21.1545C132.359 20.2243 133.148 19.7217 134.146 19.439Z" fill="#292A2A"/>
<path d="M66.3717 147.685C68.3901 148.346 70.3432 149.204 72.3995 149.755C84.9158 153.108 98.405 152.748 110.47 147.802C111.245 149.82 111.912 151.892 112.59 153.944C111.945 154.248 111.253 154.483 110.586 154.74C95.7309 159.888 78.4167 159.899 63.8932 153.646C64.6714 151.64 65.4978 149.652 66.3717 147.685Z" fill="#80532E"/>
<path d="M83.2661 16.202C86.2003 16.0616 89.1034 16.0407 92.0364 16.1971C93.2365 16.0915 94.5752 16.2722 95.7774 16.3912C99.9917 16.7856 104.165 17.5337 108.254 18.6275C109.908 19.0743 111.513 19.7067 113.173 20.121L113.314 20.1551C112.381 22.0921 111.337 24.2012 110.817 26.2837C110.698 26.2292 110.578 26.1759 110.458 26.124C107.716 24.943 104.593 24.2027 101.664 23.6336C97.5656 22.8371 93.3556 22.3162 89.1738 22.2856C81.9194 22.2325 72.7168 23.888 65.9982 26.5618C65.4806 24.4943 64.661 22.4708 64.0555 20.4215C68.2639 18.3835 78.5844 16.2473 83.2661 16.202Z" fill="#80532E"/>
<path d="M153.804 88.1836C155.187 87.9117 158.741 88.0612 160.24 88.1868C160.133 103.75 154.723 118.811 144.903 130.885C143.369 129.575 141.628 128.354 140.203 126.942C141.093 125.65 142.048 124.416 142.904 123.1C147.407 116.176 151.063 108.482 152.555 100.304C152.901 98.4112 153.207 96.4595 153.381 94.5435C153.473 93.5351 153.421 91.4783 153.663 90.6281C153.694 89.8613 153.569 88.9093 153.804 88.1836Z" fill="#80532E"/>
<path d="M17.4761 88.1229C19.581 88.1078 21.7233 88.0103 23.8222 88.1587C24.0318 90.6303 24.067 93.1062 24.3421 95.5757C25.1984 103.761 27.8204 111.662 32.0276 118.734C33.4579 121.112 35.1483 123.303 36.6488 125.628C35.9429 126.319 35.1224 126.925 34.3581 127.552C33.4886 128.277 32.5847 128.961 31.687 129.651C30.8489 128.665 30.1309 127.499 29.3825 126.44C23.036 117.461 19.2731 107.301 17.9432 96.4031C17.6148 93.7106 17.3328 90.8274 17.4761 88.1229Z" fill="#80532E"/>
<path d="M145.086 44.2046C145.153 44.2313 145.224 44.2494 145.286 44.285C145.885 44.626 147.924 47.7912 148.397 48.4811C155.649 59.1938 159.747 71.7277 160.222 84.6553L155.624 84.6803L153.707 84.6636C153.094 71.3614 148.702 58.7695 140.414 48.2841C141.693 46.7113 143.472 45.4201 145.086 44.2046Z" fill="#80532E"/>
<path d="M32.1359 44.3147C32.1899 44.3417 32.2435 44.3692 32.2979 44.3955C33.7897 45.119 35.4086 47.0631 36.7465 48.1816C35.3817 50.4236 33.6377 52.4578 32.2682 54.7668C26.9682 63.7031 23.8711 74.2664 23.8415 84.6634L22.0919 84.6842L17.5005 84.6719C17.8284 73.0786 20.8438 61.8556 26.7831 51.862C28.338 49.2457 30.1024 46.5842 32.1359 44.3147Z" fill="#80532E"/>
<path d="M38.5428 128.133C38.8086 128.223 38.9969 128.425 39.1955 128.615C41.7581 131.071 44.0439 133.752 46.8122 136.011C52.1427 140.358 57.3914 143.263 63.5744 146.172C62.8745 148.293 61.8183 150.306 61.0335 152.401L59.5225 151.685C51.3319 147.755 44.372 143.189 37.9656 136.697C36.5057 135.218 34.937 133.664 33.7685 131.94C35.3343 130.64 36.9261 129.37 38.5428 128.133Z" fill="#80532E"/>
<path d="M115.996 21.4263C117.361 21.8477 118.752 22.6239 120.03 23.2624C128.053 27.2726 137.676 34.5126 143.146 41.6512C142.041 42.7367 140.75 43.6834 139.587 44.7149C139.16 45.0682 138.773 45.492 138.376 45.8802C136.875 44.3498 135.53 42.6735 134.008 41.1504C127.759 34.8942 121.686 30.8584 113.605 27.3153C114.204 25.2846 115.136 23.3567 115.996 21.4263Z" fill="#80532E"/>
<path d="M138.072 129.444C139.846 130.514 141.4 132.036 142.966 133.384C136.836 141.324 126.598 147.984 117.573 152.117L115.539 152.998C114.741 150.98 114.098 148.845 113.465 146.771C114.809 146.136 116.22 145.656 117.554 144.992C126.277 140.655 131.383 136.391 138.072 129.444Z" fill="#80532E"/>
<path d="M60.9181 21.5853L61.0095 21.6072C61.5586 22.0578 63.0213 26.7518 63.3192 27.7063C62.1666 28.4075 60.8444 28.8747 59.625 29.4545C57.9948 30.2298 56.3969 31.1241 54.8348 32.0291C50.657 34.4498 46.7241 37.6247 43.3186 41.039C41.7311 42.6306 40.2579 44.328 38.6727 45.9218L37.7703 45.0067C36.625 43.93 35.4587 42.876 34.2719 41.8453C35.5282 40.1469 37.0127 38.6056 38.4895 37.101C44.8537 30.6172 52.5034 25.0744 60.9181 21.5853Z" fill="#80532E"/>
<path d="M86.7823 166.815C87.1397 166.365 87.4766 166.032 88.0279 165.836C88.7514 165.578 89.4597 165.693 90.1323 166.027C90.6251 166.362 91.028 166.741 91.1612 167.346C91.2858 167.912 91.0876 168.511 90.7627 168.974C90.3403 169.575 89.6752 170.003 88.9442 170.102C88.3766 170.179 87.8243 170.049 87.3715 169.692C86.9318 169.346 86.4866 168.674 86.4401 168.107C86.4032 167.646 86.4931 167.181 86.7823 166.815Z" fill="#A2A8A9"/>
<path d="M134.58 150.953C135.035 150.928 135.412 150.928 135.831 151.128C136.344 151.372 136.728 151.783 136.901 152.327C137.082 152.898 137.001 153.518 136.708 154.035C136.312 154.739 135.73 155.024 134.98 155.224C134.637 155.224 134.302 155.185 133.982 155.058C133.443 154.844 132.997 154.462 132.783 153.915C132.574 153.381 132.612 152.79 132.858 152.276C133.22 151.523 133.825 151.219 134.58 150.953Z" fill="#A2A8A9"/>
<path d="M41.7659 150.175C42.1272 150.152 42.4831 150.145 42.8315 150.258C43.4635 150.463 44.0292 150.901 44.3269 151.502C44.5643 151.983 44.6205 152.558 44.4269 153.064C44.1709 153.732 43.6626 154.076 43.0287 154.345C42.8058 154.355 42.5926 154.363 42.3708 154.331C41.6719 154.231 40.9488 153.913 40.5413 153.314C40.26 152.905 40.1631 152.396 40.274 151.91C40.4662 151.059 41.0843 150.627 41.7659 150.175Z" fill="#A2A8A9"/>
<path d="M44.6085 19.8969C44.9687 19.8767 45.2502 19.898 45.5873 20.0389C45.9914 20.2078 46.3335 20.4701 46.4762 20.8981C46.6318 21.3655 46.531 21.9044 46.3077 22.3317C45.8873 23.1364 45.256 23.5107 44.4133 23.7768C44.0993 23.767 43.7887 23.7583 43.4887 23.6553C43.054 23.5061 42.6079 23.2182 42.4211 22.7822C42.2417 22.3635 42.2816 21.8923 42.4756 21.4858C42.899 20.5982 43.7234 20.2026 44.6085 19.8969Z" fill="#A2A8A9"/>
<path d="M164.112 111.612C164.421 111.589 164.712 111.577 165.013 111.671C165.476 111.818 165.857 112.151 166.064 112.591C166.318 113.126 166.307 113.744 166.112 114.296C165.847 115.048 165.366 115.418 164.661 115.739C164.434 115.75 164.198 115.749 163.974 115.717C163.495 115.647 163.001 115.34 162.737 114.933C162.459 114.502 162.41 113.95 162.526 113.459C162.745 112.536 163.325 112.063 164.112 111.612Z" fill="#A2A8A9"/>
<path d="M13.0164 112.706C13.3065 112.692 13.5932 112.678 13.8757 112.759C14.4984 112.936 15.0177 113.431 15.2998 114.004C15.5811 114.577 15.6279 115.232 15.3847 115.825C15.1641 116.363 14.7158 116.688 14.2 116.916C13.9695 116.921 13.7311 116.919 13.5035 116.876C12.9335 116.766 12.3661 116.358 12.0505 115.876C11.7262 115.378 11.6259 114.766 11.774 114.19C11.9539 113.461 12.4067 113.09 13.0164 112.706Z" fill="#A2A8A9"/>
<path d="M12.7847 60.4082C13.0807 60.3895 13.3766 60.371 13.6701 60.4275C14.139 60.518 14.6041 60.8254 14.8474 61.2394C15.0915 61.6547 15.1259 62.1608 15.0049 62.6207C14.7812 63.4712 14.2108 64.0053 13.4733 64.4367C13.1921 64.4747 12.9065 64.4643 12.6288 64.406C12.1739 64.3134 11.7607 64.1185 11.506 63.7158C11.2082 63.245 11.2085 62.6437 11.357 62.1222C11.5939 61.2918 12.0579 60.8344 12.7847 60.4082Z" fill="#A2A8A9"/>
<path d="M163.442 60.6216C163.822 60.405 164.149 60.3281 164.571 60.4568C165.161 60.6374 165.65 61.1471 165.915 61.6918C166.173 62.221 166.258 62.8395 166.039 63.3978C165.844 63.8971 165.457 64.2008 164.968 64.3884C164.909 64.4114 164.848 64.4331 164.788 64.4554C164.512 64.4792 164.209 64.5062 163.936 64.4451C163.377 64.3204 162.858 63.9068 162.569 63.4195C162.297 62.9624 162.205 62.4318 162.336 61.9144C162.496 61.2832 162.901 60.9357 163.442 60.6216Z" fill="#A2A8A9"/>
<path d="M134.509 21.6177C134.684 21.613 134.863 21.6142 135.038 21.632C135.829 21.7116 136.676 22.2566 137.152 22.8815C137.445 23.2651 137.63 23.7528 137.533 24.2379C137.415 24.8269 136.993 25.169 136.519 25.485C136.093 25.5125 135.665 25.5391 135.253 25.4073C134.551 25.1826 133.886 24.6436 133.563 23.9765C133.37 23.579 133.31 23.152 133.462 22.731C133.652 22.2118 134.027 21.8626 134.509 21.6177Z" fill="#A2A8A9"/>
<path d="M88.1319 6.57557C88.589 6.54773 89.0883 6.48773 89.5432 6.54546C90.1378 6.62106 90.766 6.98725 91.1256 7.46554C91.4028 7.83433 91.5469 8.30764 91.4472 8.766C91.2869 9.50391 90.7508 10.0082 90.1389 10.3889C89.6027 10.468 89.0796 10.5496 88.5467 10.3939C87.9554 10.2208 87.403 9.76981 87.1203 9.22339C86.895 8.7894 86.8127 8.28663 86.9806 7.81917C87.195 7.22423 87.5806 6.85771 88.1319 6.57557Z" fill="#A2A8A9"/>
</svg>
