<svg width="42" height="40" viewBox="0 0 42 40" fill="none" xmlns="http://www.w3.org/2000/svg">
<path d="M13.8965 2.86401C15.5003 2.73218 17.2521 2.59581 19.126 3.36011L19.5029 3.52515L19.5039 3.52612C20.0903 3.80234 20.7174 4.26556 21.3232 4.7771C21.9499 5.30627 22.6398 5.96087 23.3604 6.69116C24.8026 8.15305 26.4271 9.97772 28.0098 11.8464C30.7736 15.1098 33.4717 18.5814 34.9238 20.6062L35.4668 21.3806L35.9199 22.0613C36.9694 23.6685 37.9501 25.4138 38.6338 27.3054L38.7725 27.7048C39.0906 28.6622 39.3662 29.7906 39.4639 30.9451C39.5741 32.2479 39.4699 33.7235 38.8027 35.0242L38.8018 35.0232C38.1293 36.3356 36.844 37.3276 35.4463 37.6853L35.4453 37.6863C33.9539 38.067 32.5636 37.6775 31.46 37.1863C30.3957 36.7126 29.3171 36.0016 28.6074 35.5876L28.5811 35.572L28.5557 35.5564C21.1203 30.8222 14.2788 24.0797 7.82227 18.3787L6.53613 17.2537C5.37407 16.2476 4.37655 15.3421 3.66504 14.5017C2.96956 13.6801 2.35181 12.6986 2.32324 11.5417C2.29317 10.3224 2.91847 9.33401 3.72656 8.52515C4.52586 7.72513 5.67767 6.9249 7.10645 6.05347V6.05249C9.33111 4.69714 10.9908 3.84487 13.5059 2.948L13.6953 2.88062L13.8965 2.86401Z" fill="#F2D8A6" stroke="#361A0D" stroke-width="3.07692"/>
</svg>
