<svg width="47" height="37" viewBox="0 0 47 37" fill="none" xmlns="http://www.w3.org/2000/svg">
<path d="M43.5518 2.64966C44.0134 2.64212 44.4289 2.93029 44.583 3.36548C44.7368 3.80039 44.5955 4.285 44.2324 4.56958C38.1938 9.29795 36.0184 13.8369 31.6406 20.2805L31.6328 20.2913C28.1758 25.2422 23.8404 29.4592 18.3223 32.2512L18.3232 32.2522C17.4025 32.7183 16.326 33.1351 15.292 33.5237C14.2353 33.9208 13.2246 34.2879 12.3486 34.676C12.2538 34.718 12.1536 34.7468 12.0508 34.76C5.9695 35.542 3.23777 32.5486 2.68848 30.4241L2.59863 30.1194C1.73236 26.9852 2.75239 24.3326 3.9834 21.5129C5.54577 17.9341 8.18654 14.5104 11.0986 11.9309C15.5812 7.83185 22.1626 6.3143 27.5205 4.98755L28.5156 4.74536C33.4828 3.55833 38.3419 2.73479 43.5518 2.64966Z" fill="#66927C" stroke="#241A12" stroke-width="2.14925" stroke-linejoin="round"/>
<path d="M12.2889 7.88998L11.5272 9.98457C11.3417 10.4949 11.9438 10.927 12.3679 10.5878L13.32 9.82609C13.4685 9.70728 13.5431 9.51881 13.5162 9.33053L13.3258 7.99761C13.2467 7.44407 12.48 7.36448 12.2889 7.88998Z" fill="#241A12"/>
<path d="M3.66368 17.8371L3.52036 20.0612C3.48544 20.6031 4.18466 20.8489 4.49646 20.4043L5.19657 19.4061C5.30578 19.2504 5.32453 19.0485 5.24589 18.8754L4.6891 17.6494C4.45787 17.1403 3.69963 17.2791 3.66368 17.8371Z" fill="#241A12"/>
<path d="M26.2457 29.8779L22.1562 30.5424L24.5359 28.5037C24.6803 28.38 24.8794 28.3418 25.0594 28.4033L26.3334 28.8391C26.8624 29.0201 26.7976 29.7882 26.2457 29.8779Z" fill="#241A12"/>
<path d="M35.3855 18.9514L32.0598 21.4222L33.2353 18.5175C33.3067 18.3412 33.4659 18.2157 33.654 18.1876L34.9857 17.9887C35.5387 17.906 35.8344 18.6179 35.3855 18.9514Z" fill="#241A12"/>
<path d="M41.8736 9.41247L38.2209 11.3677L39.8105 8.66728C39.907 8.50338 40.083 8.40269 40.2731 8.40253L41.6196 8.40144C42.1788 8.40099 42.3666 9.14858 41.8736 9.41247Z" fill="#241A12"/>
<path d="M24.7437 3.48748L23.0631 4.95134C22.6536 5.30799 22.9712 5.97762 23.5065 5.88614L24.7083 5.68073C24.8958 5.64868 25.0524 5.51992 25.12 5.34216L25.5988 4.08372C25.7976 3.56111 25.1653 3.12023 24.7437 3.48748Z" fill="#241A12"/>
<path d="M37.7497 1.31089L35.7205 2.23284C35.2261 2.45746 35.3389 3.18997 35.878 3.25542L37.0884 3.40237C37.2772 3.42529 37.464 3.3467 37.5797 3.19571L38.3985 2.12681C38.7385 1.68292 38.2587 1.07959 37.7497 1.31089Z" fill="#241A12"/>
</svg>
