<svg width="66" height="67" viewBox="0 0 66 67" fill="none" xmlns="http://www.w3.org/2000/svg">
<path d="M1.16468 49.3474C0.80074 50.3403 1.78657 51.2616 2.7775 50.8913C15.5262 46.1314 22.0299 44.8774 27.7795 47.893C29.9012 49.0065 32.7648 48.195 33.3759 45.8785L35.0596 39.4955C35.4956 37.8444 34.5564 36.1326 32.9046 35.6984C18.8189 31.9997 6.72401 34.1942 1.16468 49.3474Z" fill="#79975E" stroke="#443725" stroke-width="2"/>
<path d="M6.21766 28.97C5.5249 29.809 6.20042 31.0311 7.28586 30.957C18.2953 30.2055 23.9441 30.7265 27.5962 34.2069C29.3789 35.9066 32.4615 36.2105 33.8502 34.1763L37.0242 29.5255C37.9832 28.1208 37.6773 26.1964 36.2618 25.2527C26.182 18.532 15.7535 17.4229 6.21766 28.97Z" fill="#79975E" stroke="#443725" stroke-width="2"/>
<path d="M51.1584 14.8466C51.6551 15.7233 50.9158 16.7608 49.9108 16.6938C40.2185 16.0438 32.6856 19.3512 31.0191 23.3105L29.2365 12.2965C29.0781 11.3158 29.3705 10.3 30.1278 9.65572C35.5435 5.04263 44.9076 3.82247 51.1584 14.8466Z" fill="#79975E" stroke="#443725" stroke-width="2"/>
<path d="M12.9084 14.8466C12.4117 15.7233 13.1504 16.7608 14.156 16.6938C23.8483 16.0438 31.3812 19.3512 33.0477 23.3105L34.8303 12.2965C34.9887 11.3158 34.6962 10.3 33.939 9.65572C28.5233 5.04263 19.1599 3.82247 12.9084 14.8466ZM63.9736 49.3474C64.3381 50.3403 63.351 51.2616 62.3607 50.8913C49.612 46.1314 43.1083 44.8774 37.3587 47.893C35.2364 49.0065 32.3734 48.195 31.7624 45.8785L30.078 39.4955C29.6426 37.8444 30.5818 36.1326 32.2336 35.6984C46.3193 31.9997 58.4142 34.1942 63.9736 49.3474Z" fill="#79975E" stroke="#443725" stroke-width="2"/>
<path d="M58.2425 29.526C58.8682 30.4161 58.1007 31.582 57.0243 31.4243C46.1061 29.8236 40.4337 29.9053 36.5236 33.0933C34.6145 34.6493 31.5166 34.7138 30.29 32.578L27.4858 27.6955C26.6385 26.2206 27.0918 24.3262 28.5763 23.4949C39.1465 17.5741 49.6299 17.2753 58.2425 29.526Z" fill="#79975E" stroke="#443725" stroke-width="2"/>
<path d="M31.4942 2.65148C31.8071 1.19827 33.9051 1.37833 33.9805 2.86282C35.0646 24.0926 36.4527 38.857 40.7178 61.8465C41.0837 63.8169 39.5775 65.6506 37.5733 65.6506H28.7359C27.9051 65.6512 27.1072 65.3265 26.5128 64.7461C25.9184 64.1656 25.5748 63.3756 25.5556 62.545C25.0672 39.894 26.7004 24.9724 31.4942 2.65148Z" fill="#5A774F" stroke="#443725" stroke-width="2"/>
</svg>
