<svg width="63" height="63" viewBox="0 0 63 63" fill="none" xmlns="http://www.w3.org/2000/svg">
<path d="M24.3076 2.71582C33.5101 1.72761 42.3905 4.22252 47.8896 8.42773L47.9688 8.48828L48.0391 8.55859C52.4741 12.9936 54.7784 17.5176 57.3379 22.5771C57.9999 23.8858 59.0781 26.0048 59.8594 28.1855C60.2506 29.2777 60.5833 30.4292 60.748 31.5361C60.9102 32.6258 60.9285 33.7913 60.5771 34.8467L60.4531 35.2188L60.1631 35.4834C59.4386 36.142 58.526 36.4371 57.6396 36.5498C56.7518 36.6627 55.7779 36.6073 54.7939 36.4658C52.8296 36.1833 50.5519 35.5135 48.3291 34.793C46.045 34.0526 43.8626 33.2742 41.8574 32.6709C40.4249 32.2399 39.246 31.9554 38.3535 31.8418C38.4859 32.9582 38.7311 34.1067 39.0049 35.3252C39.3107 36.6861 39.6583 38.1527 39.8594 39.6123C40.0373 40.9054 40.2397 44.7206 40.2646 48.3828C40.2772 50.2264 40.2452 52.0763 40.1377 53.5908C40.0841 54.3459 40.0099 55.0461 39.9062 55.6328C39.814 56.1552 39.6648 56.799 39.3604 57.2861L39.3613 57.2871C39.2183 57.5162 39.0307 57.7356 38.7832 57.915C38.5342 58.0955 38.2839 58.1919 38.0732 58.2471C37.8839 58.2966 37.7058 58.317 37.627 58.3262C37.5227 58.3383 37.491 58.3422 37.457 58.3486L36.9863 58.4385L36.5498 58.2383C35.4331 57.7252 34.4148 56.7638 33.5312 55.7266C32.6258 54.6635 31.7546 53.3903 30.958 52.0996C29.367 49.5217 27.9832 46.7222 27.165 45.127H27.1641C26.7463 44.3699 26.2221 43.2696 25.6602 42.0811C25.0765 40.8467 24.4341 39.479 23.7686 38.1582C23.1008 36.8331 22.4288 35.594 21.7949 34.6172C21.2889 33.8374 20.8885 33.3573 20.6162 33.1045C20.5543 33.3654 20.4897 33.6682 20.4277 34.0156C20.2718 34.8907 20.138 35.9127 19.9932 37.0186C19.7136 39.1527 19.3894 41.669 18.75 43.4873C17.9998 45.6205 16.4776 49.4749 14.5732 53.0342C13.6218 54.8124 12.5531 56.5573 11.4141 57.9873C10.3029 59.3822 8.9983 60.6391 7.53125 61.2148C7.04685 61.4057 6.54117 61.5332 5.97266 61.4922C5.43931 61.4536 4.98067 61.2731 4.61621 61.1172L4.2627 60.9658L4.02539 60.6631C3.35611 59.8088 2.98936 58.7633 2.75098 57.8516C2.51518 56.9497 2.35629 55.9602 2.22363 55.2881C0.678903 47.4603 1.9192 39.6214 3.07129 32.208C3.41785 29.9781 3.99636 27.2022 4.56445 24.4785L4.58887 24.3613L4.63086 24.251L7.05762 17.8809L7.06836 17.8525L7.08105 17.8242C7.60973 16.5907 8.7527 14.8675 9.87695 13.3154C11.0268 11.728 12.2615 10.1783 13.0645 9.25098C16.0951 5.75087 19.0732 3.04283 24.3076 2.71582Z" fill="#819458" stroke="#3A3921" stroke-width="3"/>
</svg>
