<svg width="66" height="67" viewBox="0 0 66 67" fill="none" xmlns="http://www.w3.org/2000/svg">
<path d="M1.16462 49.3474C0.800679 50.3403 1.78651 51.2616 2.77744 50.8913C15.5262 46.1314 22.0298 44.8774 27.7794 47.893C29.9011 49.0065 32.7648 48.195 33.3758 45.8785L35.0595 39.4955C35.4956 37.8444 34.5564 36.1326 32.9046 35.6984C18.8189 31.9997 6.72395 34.1942 1.16462 49.3474Z" fill="#879D4A" stroke="#3B4A1E" stroke-width="2"/>
<path d="M6.2176 28.97C5.52484 29.809 6.20036 31.0311 7.2858 30.957C18.2953 30.2055 23.944 30.7265 27.5962 34.2069C29.3788 35.9066 32.4614 36.2105 33.8502 34.1763L37.0241 29.5255C37.9831 28.1208 37.6773 26.1964 36.2617 25.2527C26.1819 18.532 15.7534 17.4229 6.2176 28.97Z" fill="#879D4A" stroke="#3B4A1E" stroke-width="2"/>
<path d="M51.1583 14.8466C51.6551 15.7233 50.9157 16.7608 49.9107 16.6938C40.2184 16.0438 32.6855 19.3512 31.0191 23.3105L29.2364 12.2965C29.0781 11.3158 29.3705 10.3 30.1277 9.65572C35.5434 5.04263 44.9075 3.82247 51.1583 14.8466Z" fill="#879D4A" stroke="#3B4A1E" stroke-width="2"/>
<path d="M12.9083 14.8466C12.4115 15.7233 13.1503 16.7608 14.1559 16.6938C23.8482 16.0438 31.3811 19.3512 33.0475 23.3105L34.8302 12.2965C34.9885 11.3158 34.6961 10.3 33.9389 9.65572C28.5232 5.04263 19.1597 3.82247 12.9083 14.8466ZM63.9734 49.3474C64.338 50.3403 63.3509 51.2616 62.3606 50.8913C49.6119 46.1314 43.1082 44.8774 37.3586 47.893C35.2363 49.0065 32.3733 48.195 31.7623 45.8785L30.0779 39.4955C29.6425 37.8444 30.5817 36.1326 32.2335 35.6984C46.3192 31.9997 58.4141 34.1942 63.9734 49.3474Z" fill="#879D4A" stroke="#3B4A1E" stroke-width="2"/>
<path d="M58.2424 29.526C58.8682 30.4161 58.1007 31.582 57.0242 31.4243C46.106 29.8236 40.4337 29.9053 36.5236 33.0933C34.6145 34.6493 31.5165 34.7138 30.29 32.578L27.4857 27.6955C26.6385 26.2206 27.0918 24.3262 28.5763 23.4949C39.1465 17.5741 49.6298 17.2753 58.2424 29.526Z" fill="#879D4A" stroke="#3B4A1E" stroke-width="2"/>
<path d="M31.4941 2.65148C31.8069 1.19827 33.905 1.37833 33.9804 2.86282C35.0645 24.0926 36.4526 38.857 40.7177 61.8465C41.0836 63.8169 39.5774 65.6506 37.5731 65.6506H28.7358C27.905 65.6512 27.107 65.3265 26.5126 64.7461C25.9182 64.1656 25.5747 63.3756 25.5555 62.545C25.067 39.894 26.7003 24.9724 31.4941 2.65148Z" fill="#5F6F2D" stroke="#3B4A1E" stroke-width="2"/>
</svg>
