<svg width="60" height="48" viewBox="0 0 60 48" fill="none" xmlns="http://www.w3.org/2000/svg">
<path d="M16.2422 45.7352C17.8149 46.5408 20.1817 46.5565 21.96 44.91C23.1299 43.8266 24.127 42.6445 25.0654 41.4881C26.0177 40.3147 26.8932 39.1889 27.8828 38.1121C31.9055 33.9075 35.6779 29.4883 39.4883 25.2274C43.0799 21.2111 46.7309 17.3064 50.7539 13.7264L51.5635 13.0145L51.583 12.9979L51.6016 12.9803C52.7413 11.902 55.4275 9.08975 57.0049 6.46075C57.4543 5.71167 57.7068 4.9387 57.6162 4.1756C57.5205 3.37096 57.0706 2.79093 56.5488 2.41583C55.605 1.73741 54.2898 1.61143 53.4902 1.6297L53.0146 1.64044L52.6758 1.97443C50.3808 4.23473 48.0316 6.63143 45.6611 8.67755C44.3812 9.78232 43.161 11.1383 42.0371 12.284C40.8716 13.472 39.7627 14.4879 38.5605 15.1551C37.5798 15.6994 36.1775 15.8774 34.5039 15.8524C32.781 15.8266 31.2231 15.6154 29.6094 15.5311H29.6084C28.0417 15.4517 26.4714 15.4502 24.9043 15.5272V15.5281C21.2418 15.7043 17.6007 16.1329 13.6338 17.3914C11.8365 17.9617 8.82368 19.0712 6.37109 20.7479C3.98022 22.3824 1.67789 24.883 2.36426 28.2401C2.46499 28.7325 2.78604 29.119 3.00098 29.3328C3.2263 29.557 3.59966 29.8538 4.06152 29.9676L4.40625 30.0408C6.1174 30.3478 7.61892 29.7695 8.85938 29.0467C9.52007 28.6617 10.1455 28.2128 10.7129 27.7977C11.1519 27.4765 11.5495 27.1812 11.9326 26.9188L12.3115 26.6678L12.3193 26.6629C14.216 25.4348 16.14 25.0238 18.5547 24.1688C22.585 22.7414 26.2041 21.9871 29.9668 23.1922C29.5196 24.6641 28.529 26.1132 27.2627 27.6151C26.5029 28.5161 25.6962 29.3797 24.8896 30.2713C24.0982 31.1462 23.3118 32.0431 22.6689 32.9461C20.3804 36.1606 18.0688 38.1116 15.3096 40.8787C14.5032 41.6874 14.161 42.7068 14.4551 43.7244C14.7253 44.6593 15.4601 45.3345 16.2422 45.7352Z" fill="#76A14D" stroke="#074221" stroke-width="2.4"/>
</svg>
