<svg width="62" height="56" viewBox="0 0 62 56" fill="none" xmlns="http://www.w3.org/2000/svg">
<path d="M26.4388 16.0925C27.326 11.0007 29.7256 4.07307 33.8201 0.585395C35.2148 -0.602148 37.1418 0.137637 37.8499 1.72352C39.8051 6.10089 39.81 13.1789 38.7968 17.6878C41.8714 14.8366 44.5363 12.6849 48.2776 10.941C62.1662 4.46709 58.1845 15.6226 52.1664 21.9917C51.12 23.099 50.0437 24.0245 48.8066 24.9382C48.6009 25.0908 48.392 25.242 48.1847 25.392C51.5031 25.5804 65.7483 29.8025 59.6373 35.7309C56.8429 38.4422 47.5545 38.4039 43.4816 38.0664C46.8746 42.0061 49.3588 47.3896 49.0719 52.6754C48.853 56.6983 45.2494 56.546 42.485 54.962C37.7122 52.226 33.9196 48.0021 31.6543 43.0036C30.6062 45.2479 29.4951 47.7599 27.9015 49.7239C25.7373 52.3897 17.7457 59.9191 15.5534 53.4275C15.2715 52.5935 15.0841 50.3839 15.1604 49.4883C15.4489 48.7458 15.6015 46.0265 15.6197 45.1447C15.8552 44.7077 16.3958 43.0565 16.5749 42.5267C17.1255 40.9018 17.5567 39.9974 18.4008 38.5243C18.7125 38.3037 19.2067 37.0533 20.9828 35.9067C18.7192 35.9139 15.2433 36.3304 13.4805 36.2563C9.84868 35.5583 7.10577 35.2454 3.70947 33.5117C1.09094 32.1749 -1.90737 28.2239 1.66803 26.2646C5.81059 23.9951 13.3793 23.2107 18.0293 23.8305C17.3328 22.9099 16.6313 22.0217 15.8867 21.1496C13.0526 17.8254 10.5502 12.7895 10.6978 8.34348C10.7575 6.53886 12.6397 5.82843 14.2068 6.23672C19.3477 7.57716 23.5649 11.5663 26.3492 15.9502L26.4388 16.0925Z" fill="#245561"/>
<path d="M30.4699 31.5377C30.6042 32.2692 30.4152 32.6793 30.4135 33.3654C30.4035 36.3459 30.3239 38.5948 29.3356 41.4787C27.5528 46.6813 22.9459 51.4888 18.0273 53.8644C16.2595 43.6619 21.9924 36.3718 30.4699 31.5377Z" fill="#739FA4"/>
<path d="M42.0836 27.4594C47.8812 27.1297 54.2609 29.0017 58.5328 33.0248C55.5395 34.4489 53.0022 34.8218 49.7568 35.0502C44.8 35.375 36.5431 35.1004 33.3126 30.6524C33.1501 29.6786 34.1385 29.6511 34.9345 29.23C37.3789 27.9368 39.3573 27.6107 42.0836 27.4594Z" fill="#739FA4"/>
<path d="M35.6441 3.17468C37.125 5.13518 36.6839 14.904 36.0454 17.3788C35.2444 20.4948 33.2428 27.2287 30.4452 29.0681L30.1052 28.9889C26.1965 22.6628 30.0836 7.70645 35.6441 3.17468Z" fill="#739FA4"/>
<path d="M32.6164 33.6139C40.8401 37.2115 46.9677 44.1214 45.9594 53.5731C39.1585 50.8271 31.7391 41.3124 32.6164 33.6139Z" fill="#739FA4"/>
<path d="M13.0757 26.4621C19.0524 25.7104 23.505 26.9225 28.2429 30.4233C24.5349 32.1645 22.9976 32.6415 18.9662 33.0056C15.0923 33.2766 11.3975 33.1454 7.7607 31.6105C6.54347 31.097 4.57832 30.5536 3.83538 29.4418C3.76905 27.4293 11.5168 26.58 13.0757 26.4621Z" fill="#739FA4"/>
<path d="M53.735 11.9976C54.1446 11.9542 54.7731 11.8522 55.0617 12.126C54.8112 13.0245 54.4547 13.5729 54.0534 14.3873C51.4647 19.6376 46.7948 24.1974 40.7203 24.7155C39.8347 24.791 38.775 24.9916 37.8696 25.1238L36.7236 25.3579C36.921 24.8727 37.4268 23.5245 37.6805 23.126C40.7368 18.3315 48.4465 13.4537 53.735 11.9976Z" fill="#739FA4"/>
<path d="M13.0376 8.62146C17.5881 9.7226 24.4504 16.1169 25.8998 20.7125C26.2248 21.7436 26.4288 24.7996 26.5697 26.056C19.7556 23.905 14.2299 15.3807 13.0376 8.62146Z" fill="#739FA4"/>
<circle cx="30.5391" cy="30.8454" r="5.30671" fill="#ACEB7C" stroke="#245561" stroke-width="2.65336"/>
</svg>
