<svg width="84" height="84" viewBox="0 0 84 84" fill="none" xmlns="http://www.w3.org/2000/svg">
<g clip-path="url(#clip0_305_162)">
<path d="M0.000366211 41.9989C0.000366211 65.1949 18.8044 83.9989 42.0003 83.9989C65.1962 83.9989 84.0002 65.1949 84.0002 41.9989C84.0002 18.803 65.1962 -0.000976562 42.0003 -0.000976562C18.8044 -0.000976562 0.000366211 18.803 0.000366211 41.9989Z" fill="#FFFF00"/>
<path d="M32.6759 10.5686C31.4189 10.6049 30.7439 12.7094 29.8545 13.0012C28.586 13.4174 24.892 9.27716 25.8228 17.8774C24.1044 18.9198 23.2413 19.9385 23.4603 20.6657C23.6809 21.3742 24.9133 21.7351 26.8471 21.6576C27.5285 24.0467 29.7237 25.7883 32.3382 25.7883C35.4978 25.7883 38.0371 23.2492 38.0371 20.0893C38.0371 19.4893 37.9441 18.9121 37.7741 18.3699C39.5507 17.3094 40.449 16.2674 40.2247 15.527C39.9817 14.7506 38.525 14.396 36.2882 14.5688C34.6503 11.4757 33.5289 10.544 32.6759 10.5686ZM67.8758 12.788C67.5372 12.8154 67.3909 13.0198 67.3909 13.0198C65.9602 16.3449 66.119 19.3633 65.5133 23.7589C65.5133 23.7589 65.5118 23.7728 65.5498 23.8325C65.5876 23.8922 65.7816 24.1332 65.8539 24.2948C65.9263 24.4563 65.8074 24.8865 65.7844 24.9981C65.7615 25.1097 65.2585 26.1197 65.1651 26.2257C65.0717 26.3318 64.7445 27.0704 64.7445 27.0704L64.1206 27.0641L64.0308 27.8502L64.014 27.8491L66.2989 30.0859C66.35 29.7838 66.4085 29.494 66.4483 29.4631C66.5313 29.3989 67.2981 29.4806 67.406 29.4608C67.5138 29.4409 67.7727 29.0935 67.808 28.6428C67.8434 28.192 67.6579 27.6675 67.5022 27.4853C67.3464 27.303 66.7879 27.202 66.7879 27.202C66.7879 27.202 66.854 26.3559 67.2838 25.9361C67.7135 25.5163 69.3051 25.4726 69.3051 25.4726C69.3051 25.4726 69.519 24.9218 69.6063 24.5318C69.6936 24.1418 68.976 23.1785 69.0113 22.7277C69.0286 22.5076 69.1006 20.3734 70.747 18.3701C72.2375 16.5566 72.5824 14.051 72.5824 14.051C72.5824 14.051 71.8138 13.7077 70.4185 13.4282C69.0233 13.1487 68.4835 12.824 68.0328 12.7886C67.9765 12.7842 67.9242 12.7842 67.8758 12.788ZM44.5807 18.2731C43.9538 18.279 43.3318 18.3572 42.7077 18.4742C41.8672 18.6317 40.7109 18.9441 39.4861 19.3947C39.5082 19.6235 39.5203 19.8549 39.5203 20.0894C39.5203 24.0492 36.2981 27.2714 32.3382 27.2714C30.5583 27.2714 28.9259 26.6194 27.6664 25.5433C26.2981 26.4821 25.2703 27.8352 25.2703 27.8352L23.7102 32.5993C23.721 32.6215 23.7344 32.6425 23.7449 32.6647C24.5353 34.3321 25.3863 35.7365 25.6249 35.7879C25.8634 35.8392 26.9169 35.211 27.966 34.3957C28.1545 34.2492 28.305 34.1393 28.4741 34.0116L29.9604 30.5325L33.6202 28.8444L41.7176 42.6171L34.4967 55.7645L35.8222 57.8031L39.5937 60.0458L48.9257 46.4911L50.8567 53.2039L59.292 61.3002L56.5731 42.616C56.363 41.1718 56.019 39.487 55.3565 38.3607C49.3826 28.2077 47.5228 24.6438 47.5228 24.6438L56.4359 28.6191L64.2795 36.2989C66.8256 38.7917 69.9746 35.3881 67.4414 32.8848L58.967 24.5109L47.7903 18.9985C46.6859 18.4538 45.6274 18.2629 44.5827 18.2726L44.5807 18.2731ZM62.9238 36.4945L60.731 57.2518L60.3544 57.2558L60.348 57.425L60.6893 57.648L60.6817 57.7176L60.6823 57.7164C60.6823 57.7164 60.7567 57.8787 61.133 57.9203C61.4636 57.9568 61.5652 57.8276 61.5652 57.8276L62.8253 46.4893C62.8253 46.4893 63.259 46.5375 63.415 46.5356C63.5711 46.5339 63.6369 46.4273 63.689 46.3039C63.7 46.2781 63.7007 45.5637 63.9915 44.5149C64.4186 42.974 64.9922 40.628 65.332 38.298C64.8098 38.1238 64.237 37.7669 63.6131 37.1625L62.9238 36.4945ZM22.9778 42.5812C21.731 42.5763 20.1436 43.2367 18.0361 44.4976C17.1314 45.0393 14.7665 46.4289 12.7765 47.5825C10.7863 48.7363 9.03962 49.8549 8.9008 50.0736C8.76193 50.2924 8.64611 50.925 8.64358 51.478C8.63814 52.6096 9.83472 53.7938 10.9772 53.7912C10.9911 53.7912 11.011 53.7871 11.0264 53.786C11.6438 50.4449 14.5873 47.9064 18.1023 47.9064C21.8854 47.9064 24.9928 50.8487 25.263 54.5641C26.6829 56.3856 25.0921 58.4038 23.4254 60.1687L16.4014 67.0622L9.24362 61.5035C6.03477 59.0126 3.06946 62.9865 6.03329 65.4293L13.2311 71.3617C16.2296 73.8331 17.4146 73.8783 20.627 70.7186L24.4116 67.2639C28.171 69.2624 35.2187 74.5207 37.4938 74.5207H77.6414C81.6007 74.5207 81.9214 68.6903 77.6414 68.6844L61.9668 68.6628C53.6949 68.6514 46.9284 68.5921 46.9284 68.4948C46.9284 68.0023 49.5578 62.9672 49.8152 62.9672C49.9799 62.9672 51.1922 64.0351 52.5144 65.3402L54.9175 67.7132H63.7464L51.245 55.7424C50.1949 54.7406 47.5206 54.353 45.7501 56.9312L41.7677 62.7299C41.2738 62.6401 35.6152 59.2662 34.7375 58.5377C34.4616 58.3088 33.6586 57.1103 32.9479 55.878C32.2371 54.6457 30.7068 52.2183 29.5563 50.4798C28.406 48.741 26.7505 46.1192 25.8782 44.6562C25.1321 43.2568 24.226 42.5866 22.9792 42.5817L22.9778 42.5812ZM18.102 49.3895C14.9424 49.3895 12.3885 51.9313 12.3885 55.0891C12.3885 58.2466 14.9422 60.7881 18.102 60.7881C19.4228 60.7881 20.6316 60.3401 21.5953 59.5929C22.0103 59.323 22.373 58.9821 22.6711 58.5883C23.1183 58.0494 23.4343 57.3981 23.5726 56.6829C23.7185 56.1771 23.8008 55.6435 23.8008 55.0892C23.8008 51.9296 21.2618 49.3895 18.102 49.3895Z" fill="black"/>
<path d="M22.0723 32.5556C22.0571 32.5502 22.0524 32.5543 22.041 32.5578C21.8459 32.6199 21.5109 33.8022 21.2328 35.4539L20.7659 38.2521L17.2321 37.1821C14.8809 36.4726 13.7255 36.2357 13.8011 36.4741C14.08 37.3513 17.9066 42.061 18.4508 42.1974C20.6427 42.0586 21.9787 40.3082 24.1412 40.8678C25.5621 41.2355 26.7446 43.9058 27.8652 44.8379C30.7144 44.4402 33.4043 43.5015 33.4477 43.3287C33.4783 43.2066 32.4234 42.7303 31.1031 42.272L28.7011 41.4453L29.3865 38.6303C29.7618 37.0836 30.0287 35.5392 29.9838 35.1921C29.8871 34.4449 29.7145 34.5172 27.1699 36.4944C26.2786 37.1871 25.3838 37.7211 25.1811 37.6774C24.9784 37.6338 24.2554 36.4407 23.5839 35.0241C22.9543 33.696 22.3012 32.6353 22.0723 32.5556Z" fill="#FF0000"/>
</g>
<defs>
<clipPath id="clip0_305_162">
<rect width="84" height="84" fill="white"/>
</clipPath>
</defs>
</svg>
