<svg width="84" height="85" viewBox="0 0 84 85" fill="none" xmlns="http://www.w3.org/2000/svg">
<g clip-path="url(#clip0_2306_17375)">
<mask id="mask0_2306_17375" style="mask-type:alpha" maskUnits="userSpaceOnUse" x="0" y="-10" width="100" height="134">
<path d="M8.48778 94.3717C7.15699 93.181 7.77763 91.4242 8.2543 90.6946L4.23213 84.677L0.448093 46.7061L2.14438 4.6903L51.9893 -9.27148L99.094 52.3169L91.7869 94.3717L59.2964 123.431L47.9458 122.172L21.1523 104.573L17.5352 106.929C5.93285 110.768 5.59163 106.445 5.60674 104.888C5.62185 103.332 7.23743 101.809 8.04333 101.243L13.3509 98.0128L13.0405 95.8309C12.0774 95.8407 9.81856 95.5625 8.48778 94.3717Z" fill="black"/>
</mask>
<g mask="url(#mask0_2306_17375)">
<path d="M18.8091 83.4788C16.4073 76.7957 18.0148 71.1384 23.6876 66.5166C24.6286 65.75 24.9846 64.9995 24.8485 63.8699C23.94 56.329 23.18 48.7694 21.6895 41.3052C21.5037 40.3744 20.942 40.3025 20.2137 40.1844C17.9028 39.8099 15.6128 39.4966 13.7272 37.8264C10.613 35.068 10.1889 32.1689 12.6506 28.84C12.9943 28.3752 13.3286 27.8574 13.7895 27.5296C18.1875 24.4023 20.0552 19.7514 21.7226 14.9728C22.6217 12.396 23.5772 9.85065 25.9195 8.12844C26.4795 7.71669 26.3876 7.18921 26.3796 6.58789C26.3297 2.85144 28.5849 0.413793 32.668 1.40386C33.8695 1.69521 35.1491 1.91227 36.1016 2.67713C37.5352 3.82832 39.0052 3.77018 40.7134 3.51572C46.1715 2.70268 51.5886 2.95588 56.8891 4.61409C57.0007 4.64901 57.129 4.74725 57.2185 4.71948C61.769 3.30664 63.8298 7.07009 66.5115 9.22968C69.4958 11.633 72.1262 14.4504 73.6589 18.0838C76.2669 24.2663 80.6 29.1597 86.0149 33.0849C95.5924 40.0278 101.446 49.2853 104.425 60.4836C105.553 64.7252 106.74 68.973 106.72 73.3586C106.675 83.0022 103.181 91.3401 96.1421 98.1329C92.9169 101.245 89.3962 104.02 85.5486 106.388C82.3294 108.37 78.7033 109.407 75.2253 110.778C73.652 111.399 72.8372 112.295 72.4523 113.942C71.14 119.559 70.304 125.235 69.7762 130.967C69.4489 134.522 68.628 137.886 65.8005 140.479C64.5062 141.665 63.0169 142.26 61.3334 142.159C59.3477 142.04 57.359 141.74 55.4621 141.1C53.7247 140.514 52.6749 138.835 52.8549 137.038C53.0486 135.103 53.7134 133.309 54.9044 131.772C57.1956 128.816 57.9117 125.297 58.5879 121.807C59.0009 119.675 58.8865 117.448 59.0678 115.269C59.1804 113.915 58.6087 113.52 57.2529 113.429C52.2745 113.096 47.2788 113.35 42.3037 112.902C40.2406 112.716 38.2497 112.269 36.2644 111.761C35.5836 111.588 35.046 111.489 34.5732 112.155C31.5737 116.386 28.0606 120.156 23.9935 123.424C23.9159 123.486 23.9067 123.63 23.8565 123.759C24.2148 124.845 25.288 124.811 26.1367 125.089C28.6981 125.928 29.1884 127.149 27.7513 129.35C26.6904 130.975 25.3619 132.359 23.5579 133.194C21.344 134.219 19.0501 132.87 18.8519 130.477C18.6822 128.429 16.7602 126.956 14.6628 127.215C13.8514 127.315 13.0211 127.363 12.2055 127.321C8.46959 127.128 6.39324 123.917 7.95579 120.595C8.42545 119.597 8.18341 119.077 7.55551 118.341C0.713231 110.319 -7.28111 103.426 -14.9183 96.1831C-17.2399 93.9814 -19.5397 91.7575 -21.8616 89.5562C-22.3143 89.127 -22.6626 88.563 -23.4827 88.3022C-23.4644 90.7317 -24.5153 92.5043 -26.7577 93.5119C-28.8168 94.437 -31.0083 94.1685 -33.4746 94.1504C-32.8727 97.0979 -33.2427 100.006 -32.9693 102.902C-32.5479 107.367 -32.1579 111.835 -31.731 116.3C-31.6029 117.64 -32.1695 118.359 -33.5236 118.557C-40.4861 119.572 -47.4407 120.305 -54.5225 120.352C-61.6147 120.4 -68.7215 120.25 -75.8148 120.636C-80.4692 120.889 -85.0649 120.227 -89.6569 119.604C-90.8738 119.439 -91.4576 118.75 -91.5087 117.49C-91.6931 112.947 -90.6795 108.564 -89.6872 104.189C-87.4413 94.2862 -84.6129 84.5526 -80.5869 75.1848C-77.7887 68.674 -72.9998 63.9035 -66.9429 60.27C-66.2296 59.8421 -65.8317 59.5058 -65.8676 58.5672C-65.9365 56.7678 -64.7671 55.8445 -62.899 56.1497C-61.988 56.2986 -61.002 56.5488 -60.2612 57.0524C-58.3448 58.3553 -56.2738 58.0938 -53.8549 58.0014C-54.7488 56.8154 -55.536 55.8854 -56.5206 55.0817C-58.9085 53.1325 -61.3332 51.2175 -63.6061 49.144C-66.0119 46.9493 -66.6888 44.1831 -65.7338 41.0829C-64.8874 38.3354 -62.7461 37.0507 -60.072 36.4858C-57.3559 35.9121 -55.2572 37.1237 -53.5024 38.9837C-50.9113 41.7304 -48.4314 44.5785 -45.829 47.3146C-39.5016 53.9674 -33.1556 60.6057 -27.233 67.6113C-21.649 74.2165 -15.9985 80.7605 -10.0252 87.0315C-5.17632 92.122 -0.316815 97.203 4.51727 102.307C6.18645 104.07 7.79316 105.889 9.45646 107.713C12.6919 105.467 16.4687 105.812 19.9989 105.163C21.2603 104.932 22.5615 104.903 23.846 104.798C25.9371 104.629 26.1985 104.311 26.0159 101.959C23.5449 102.406 21.086 102.862 18.6223 103.291C16.5395 103.655 14.439 103.848 12.3214 103.874C11.2973 103.886 10.3446 103.671 9.44808 103.188C6.91904 101.825 6.61538 99.4346 8.74799 97.54C10.731 95.7782 13.1586 94.9691 15.7161 94.4349C18.6292 93.8264 21.5375 93.196 24.7033 92.5206C22.4008 89.6099 19.8281 87.0932 18.8091 83.4788ZM24.063 111.048C23.2729 112.062 22.2661 112.853 21.3146 113.71C18.2243 116.495 14.3961 118.258 11.1858 120.864C10.4094 121.494 9.28993 122.051 9.78741 123.354C10.3048 124.709 11.3673 125.256 12.84 125.175C15.6061 125.025 18.1374 124.192 20.4233 122.686C25.2542 119.505 29.3365 115.564 32.5838 110.823C37.2286 104.043 39.7641 96.511 40.7313 88.4349C40.9906 86.2692 41.593 85.9752 43.372 87.2625C46.3205 89.396 48.4033 92.2209 49.9339 95.4607C50.2225 96.0718 50.3122 97.0182 51.1058 97.0531C53.2538 97.1472 55.3588 97.5616 57.6623 97.9723C57.4759 94.4792 56.5486 91.3899 55.9082 88.2523C55.6998 87.2312 55.0337 85.7061 56.3815 85.3929C57.6689 85.0937 57.8662 86.7359 58.1406 87.7371C59.2974 91.958 60.3395 96.1977 60.746 100.575C61.3852 107.459 61.8647 114.348 61.6328 121.261C61.5268 124.421 60.6224 127.366 58.6158 129.947C57.4706 131.42 56.7371 133.143 56.2424 134.929C55.7763 136.612 56.5257 137.701 58.2073 138.152C60.3851 138.736 62.1776 137.794 64.0884 136.999C65.7296 136.317 66.5293 135.234 66.9253 133.618C67.3895 131.723 67.9786 129.91 67.3069 127.896C66.5822 125.723 68.2469 123.81 68.4039 121.802C68.9068 115.372 71.2325 109.626 74.2485 104.025C77.3306 98.3008 79.0889 92.2875 77.673 85.7305C77.2961 83.9853 76.9068 82.2426 76.5034 80.5033C76.3608 79.8883 76.3559 79.2657 77.0115 79.0262C77.7348 78.7618 78.0324 79.3774 78.282 79.9143C78.4036 80.1758 78.4994 80.4491 78.6015 80.719C82.0424 89.8136 80.2151 98.3681 75.8381 106.661C75.4862 107.328 74.8161 107.884 74.9517 108.872C80.8068 107.225 85.9794 104.676 90.3752 100.703C89.1026 98.9873 89.1893 95.1655 91.0687 93.0185C92.9928 90.8205 93.9672 88.1934 93.6585 85.1921C93.5294 83.9364 93.7082 82.6508 93.588 81.3934C93.0198 75.4449 92.6097 69.5281 89.2918 64.1426C87.2327 60.8002 86.4801 56.8262 85.9946 52.9206C85.7192 50.7051 87.3412 49.5181 89.4328 50.2204C90.3212 50.5187 91.1824 51.0024 92.0921 51.1111C94.3904 51.3857 96.5731 52.8854 99.1124 51.8475C98.0555 49.0873 96.476 46.7272 94.5068 44.6694C89.6479 39.5918 84.1563 35.1419 79.3883 29.9572C76.9252 27.2788 74.7403 24.4681 73.1459 21.2413C71.5978 18.108 69.8214 15.1471 67.2697 12.6953C66.6801 12.1287 65.9707 11.5745 65.0744 11.9752C64.2523 12.3428 64.526 13.1772 64.5116 13.8275C64.4668 15.8454 64.285 17.8458 63.841 19.8161C63.7244 20.3335 63.4345 20.8645 62.7735 20.7324C62.0034 20.5785 61.9887 19.9605 62.1638 19.3604C62.773 17.2714 62.5179 15.1274 62.5999 13.006C62.6252 12.3535 62.662 11.6501 62.0252 11.1263C61.4834 11.7026 61.7536 12.3013 61.7504 12.8385C61.7404 14.4884 61.3491 16.0309 60.5735 17.4868C60.1912 18.2043 59.6655 18.8162 58.7719 18.448C55.9712 17.2942 53.451 15.7382 51.9552 13.0252C51.2248 11.7006 51.5504 10.5794 53.0446 9.90771C53.9838 9.48545 54.9004 9.01442 55.8187 8.56934C55.4434 7.62528 54.8739 7.87398 54.3161 8.09602C53.5014 8.42036 52.6941 8.76304 51.8741 9.07376C51.2884 9.29572 50.5695 9.73427 50.1823 8.92393C49.7259 7.96882 50.7015 7.84328 51.2564 7.49554C51.7715 7.17273 52.5138 7.14793 52.7477 6.4691C52.3899 5.52427 51.6097 5.37442 50.7574 5.25963C44.2898 4.38861 38.0276 5.36861 31.8104 7.09475C27.7311 8.22731 25.1142 10.7251 23.7348 14.585C22.7914 17.2252 22.7914 17.2229 24.9218 18.9525C25.1924 19.1722 25.4605 19.4023 25.6903 19.6614C26.0729 20.0925 26.5488 20.5397 26.1913 21.1795C25.8684 21.7575 25.2621 21.8222 24.6562 21.8152C23.49 21.8018 22.3793 21.4291 21.1587 21.1307C19.9914 24.1631 17.6077 26.1817 15.5709 28.4155C16.1781 29.2263 16.9774 29.2888 17.6791 29.5372C19.1128 30.0445 20.6013 30.4495 21.7928 31.4448C23.0932 32.531 23.0969 33.5837 21.7228 34.5614C20.9725 35.0953 20.0778 35.4327 19.2514 35.8647C18.6912 36.1575 17.9106 36.3808 18.0938 37.1723C18.2626 37.9014 19.0417 37.9413 19.6811 38.0039C25.1249 38.5365 30.0072 37.0406 34.4668 34.0362C34.9566 33.7063 35.4573 33.3949 35.2349 32.6579C35.0961 32.1979 35.3449 31.7346 35.7846 31.7542C37.0808 31.812 37.7191 32.9226 38.5751 33.6627C38.8496 33.9001 38.8078 34.3103 38.5256 34.5969C38.2442 34.8827 37.8745 34.8786 37.547 34.7187C36.9861 34.4448 36.5306 34.6136 36.0863 34.9516C32.772 37.4729 28.8699 38.7621 24.9517 39.9842C23.7771 40.3505 23.5758 40.8527 23.8726 41.9912C25.6957 48.983 26.3764 56.1321 26.8315 63.3141C27.1225 67.9059 27.5366 72.4905 27.9139 77.0768C28.4566 83.6729 28.9717 90.2685 28.8852 96.8956C28.818 102.037 27.6919 106.817 24.063 111.048ZM-48.7692 117.638C-44.6194 117.314 -40.4616 117.065 -36.3228 116.639C-33.8554 116.385 -33.7791 116.254 -33.9692 113.852C-34.4871 107.307 -35.0535 100.766 -35.9996 94.2624C-36.128 93.3797 -36.4927 92.8044 -37.2718 92.349C-40.6335 90.384 -43.2263 87.7213 -44.8972 84.208C-45.8376 82.2308 -47.2311 80.6226 -49.2892 79.6587C-50.7209 81.0656 -50.8346 81.0323 -51.8089 78.7722C-52.087 78.1271 -52.8542 77.4301 -52.0388 76.7635C-51.3397 76.1921 -50.563 76.6786 -49.9182 77.0617C-47.0116 78.7888 -44.5145 80.876 -43.0618 84.0296C-41.3629 87.7177 -38.38 90.1667 -34.6654 91.7898C-32.7244 92.638 -30.7095 92.4435 -28.674 92.2381C-28.6944 91.3008 -29.3524 90.9968 -29.758 90.5471C-30.6529 89.5549 -31.6282 88.6294 -32.2412 87.4245C-33.2943 85.3543 -32.7429 84.1886 -30.4884 83.5803C-30.0179 83.4533 -29.4209 83.5544 -28.998 82.9267C-29.9108 81.9723 -30.7959 80.9831 -31.7487 80.0611C-37.8494 74.1578 -43.9517 68.256 -49.7428 62.0557C-51.2668 60.424 -52.2023 60.0712 -54.6705 60.4339C-54.03 60.9871 -53.3897 61.4896 -52.8133 62.0548C-52.3798 62.4799 -51.62 62.983 -52.1785 63.6267C-52.848 64.3982 -53.4189 63.6385 -53.93 63.1946C-55.9205 61.4661 -58.1078 60.0196 -60.4931 58.8779C-61.3682 58.459 -62.462 57.7072 -63.2723 58.3533C-64.2687 59.1478 -63.6686 60.4248 -63.2845 61.421C-62.6622 63.0346 -61.8756 64.5869 -61.1755 66.1724C-60.9108 66.7718 -60.2979 67.4962 -61.2865 67.9315C-62.2252 68.3448 -62.4405 67.4517 -62.7795 66.8793C-63.6516 65.4068 -64.1606 63.7248 -65.2902 62.4617C-65.5361 62.4853 -65.6658 62.4664 -65.7626 62.5131C-66.0248 62.6397 -66.2932 62.7683 -66.5239 62.9414C-70.9322 66.2491 -74.8699 69.884 -77.5066 74.8615C-83.577 86.3205 -86.6746 98.5891 -88.4615 111.262C-88.8469 113.995 -87.8875 115.503 -85.2541 116.329C-84.5305 116.556 -83.6815 116.601 -83.1591 117.173C-81.9101 118.539 -80.2937 118.657 -78.627 118.568C-71.5884 118.193 -64.5449 118.186 -57.501 118.288C-54.6737 118.328 -51.8779 118.079 -48.7692 117.638ZM5.74257 106.21C1.18546 101.406 -3.37593 96.6056 -7.92744 91.7965C-11.9177 87.5804 -16.1223 83.5353 -19.8309 79.0922C-26.1934 71.4696 -32.6423 63.931 -39.4966 56.7315C-44.9021 51.0538 -50.8852 45.9261 -56.052 40.0177C-56.9404 39.0018 -58.1352 38.6128 -59.456 38.7997C-60.5716 41.266 -61.2903 43.7289 -61.5762 46.3273C-61.6467 46.9682 -61.6464 47.408 -61.1576 47.8529C-59.0096 49.8079 -57.1455 52.0401 -54.8714 53.8804C-51.505 56.6046 -48.9316 60.0875 -45.9051 63.1376C-38.5368 70.5637 -31.1892 78.0117 -23.5522 85.1754C-20.1247 88.3906 -16.6631 91.5708 -13.1648 94.8152C-11.9883 93.1143 -10.9283 94.0778 -10.121 94.9383C-8.21208 96.9729 -6.21079 98.8984 -4.1107 100.742C-2.81214 101.882 -2.30602 103.551 -1.64078 105.082C-1.41025 105.613 -1.25502 106.162 -0.830166 106.59C2.64861 110.097 5.89885 113.819 9.53411 117.181C10.1534 117.754 10.6903 117.871 11.3996 117.475C12.1506 117.054 13.0492 116.876 13.7715 116.039C11.4541 112.598 8.53219 109.61 5.74257 106.21ZM49.9668 99.0554C46.8529 99.4412 44.3533 101.275 41.5656 102.435C38.2965 103.796 37.8261 106.818 36.5268 109.358C37.0957 109.807 37.5494 109.899 38.0217 109.94C41.9246 110.275 45.8254 110.636 49.731 110.938C52.2964 111.136 54.8685 111.252 57.4378 111.402C58.5084 111.464 59.1011 111.101 58.9822 109.914C58.7016 107.112 58.4703 104.305 58.2252 101.5C58.1344 100.46 57.6163 99.8666 56.5473 99.5885C54.4829 99.0514 52.4066 98.8354 49.9668 99.0554ZM22.703 70.35C21.6445 71.5189 20.701 72.7406 20.4199 74.348C19.7479 78.1895 20.2809 81.7489 22.6944 84.9753C23.4183 85.9432 24.1609 86.5461 25.618 86.3655C25.6728 80.5675 25.5245 74.7957 24.4453 68.7826C23.7277 69.4136 23.2968 69.7923 22.703 70.35ZM41.5167 95.9647C41.1125 97.6136 40.7084 99.2626 40.2257 101.232C43.1855 99.7229 45.8225 98.3086 48.7725 97.3436C47.5415 93.9603 45.712 91.2934 42.8082 88.985C42.3556 91.4243 41.9611 93.5504 41.5167 95.9647ZM15.9641 110.321C17.6033 110.335 19.224 110.191 20.8531 109.977C23.101 109.682 23.7811 109.177 24.4663 106.7C22.8111 106.811 21.1912 106.856 19.5879 107.04C17.0936 107.327 14.5833 107.556 12.1624 108.272C11.6503 108.423 11.1122 108.676 11.1355 109.293C11.1611 109.972 11.8039 110.051 12.3062 110.104C13.4076 110.22 14.518 110.254 15.9641 110.321ZM20.1484 96.7976C18.3102 97.984 18.4657 98.3079 21.6204 99.8697C21.7353 100.335 21.0301 100.178 21.0651 100.709C22.0464 100.477 23.1936 100.497 23.9022 99.9595C24.7215 99.3385 26.0611 99.7757 26.4284 98.8649C26.9254 97.6321 27.0142 96.0478 25.9235 95.1696C24.9018 94.3469 23.5285 94.9318 22.6014 95.7923C21.9447 96.4018 21.2091 96.5717 20.1484 96.7976ZM28.7817 4.62601C28.6556 5.14412 28.1299 5.59066 28.4815 6.26774C30.5519 5.67783 32.5926 5.09637 34.8052 4.46593C31.8928 2.74032 30.2055 2.76115 28.7817 4.62601ZM14.0298 113.422C14.5202 114.047 14.8857 114.781 15.6487 115.233C17.5025 114.498 19.0344 113.314 20.7859 111.854C18.5072 112.172 16.5662 112.547 14.5844 112.523C14.1579 112.518 13.511 112.442 14.0298 113.422ZM23.1193 125.851C22.264 124.915 21.3897 124.61 20.2064 125.923C22.411 126.419 23.9718 128.331 26.5816 127.538C25.513 126.653 24.1605 126.849 23.1193 125.851Z" fill="black"/>
<path d="M25.0576 11.3302C26.3835 10.1388 27.7095 8.94737 29.3062 7.77306C30.8289 7.52726 32.1147 7.36761 33.3263 6.98301C37.7735 5.57141 42.3212 4.89769 46.9845 5.12134C49.017 5.21882 51.0394 5.52003 53.0664 5.72872C53.0662 5.88107 53.0661 6.03343 53.0659 6.18578C52.168 6.57791 51.2359 6.91182 50.3891 7.391C50.0535 7.58093 49.6622 8.15198 49.7348 8.44498C49.8348 8.84906 50.2923 9.26998 50.7043 9.4681C51.0939 9.65538 51.6225 9.56404 52.0923 9.5983C52.0947 9.60136 52.101 9.60593 52.1025 9.73262C52.1085 10.0282 52.1129 10.197 52.0884 10.4349C51.9987 10.5912 51.9154 10.6446 51.6848 10.6992C50.4489 12.7798 51.6235 14.8624 54.2194 15.4712C54.2123 15.4799 54.2183 15.4584 54.2682 15.5323C54.4183 15.6701 54.5185 15.734 54.6055 15.7968C54.5923 15.7957 54.6044 15.7725 54.6181 15.8952C55.0865 16.2943 55.5413 16.5707 55.9859 16.8537C55.9757 16.8604 55.9839 16.8377 56.005 16.9575C57.3252 18.6654 58.7858 19.1233 59.8687 18.2332C59.8929 18.192 59.9896 18.1879 60.0845 18.14C60.2456 17.9715 60.3118 17.8509 60.3605 17.7217C60.3431 17.7132 60.3531 17.6763 60.4657 17.6544C61.0045 17.0619 61.4307 16.4914 61.8569 15.9209C62.015 15.9493 62.173 15.9777 62.3311 16.0061C62.1566 16.8868 62.0963 17.8104 61.7747 18.636C61.4685 19.4218 61.1036 20.0472 62.281 20.3327C62.281 20.3327 62.3053 20.3363 62.3446 20.457C63.6411 21.5225 64.063 20.5094 64.2779 19.6559C64.5641 18.5191 64.598 17.3211 64.7478 15.9899C64.7554 14.2898 64.7554 12.7493 64.7554 10.9629C66.094 11.7105 67.0003 12.2167 67.9066 12.7228C69.4636 15.0051 71.3733 17.1313 72.5074 19.6006C75.2297 25.5282 79.7023 30.0401 84.2191 34.5556C88.3195 38.6547 92.6127 42.5792 96.5419 46.8291C100.025 50.5966 101.119 55.5796 102.624 60.2899C104.442 65.9814 105.946 71.8208 104.878 77.7831C103.514 85.399 100.552 92.3773 94.3138 97.5602C91.7659 99.6772 89.3362 102.019 86.5089 103.703C82.7304 105.953 78.6174 107.662 74.6481 109.603C74.495 109.435 74.3418 109.268 74.1886 109.1C74.5145 108.499 74.8197 107.886 75.1692 107.299C79.4967 100.025 81.3271 92.2949 79.5151 83.9347C79.2125 82.5386 78.6635 81.1849 78.1223 79.8532C77.9684 79.4744 77.4401 79.2422 77.0835 78.9428C76.9384 79.3921 76.6103 79.87 76.6779 80.2861C77.12 83.0092 77.7394 85.7065 78.1275 88.436C78.8477 93.5005 77.1612 98.0953 75.0249 102.577C74.3043 104.088 73.6819 105.656 72.8374 107.098C69.6956 112.462 69.0226 118.353 68.5778 124.375C68.3132 127.958 67.7375 131.598 66.678 135.027C65.2241 139.733 60.7703 140.959 56.3175 138.639C55.7796 138.359 55.3173 137.041 55.5254 136.439C56.3232 134.13 57.4086 131.916 58.6002 129.559C59.1483 128.953 59.4829 128.455 59.8175 127.957C59.8175 127.957 59.7738 127.915 59.8952 127.822C60.7946 125.938 61.5725 124.147 62.4195 122.24C63.0184 117.913 63.7767 113.715 64.0265 109.488C64.4403 102.487 63.1382 95.6287 61.5317 88.8363C60.8416 85.9184 60.5064 82.9662 61.8394 80.2134C63.1082 77.5931 64.5398 74.9836 66.3217 72.6842C68.4753 69.9052 71.0921 67.4743 73.4693 64.8586C74.5192 63.7034 75.5482 62.5141 76.4287 61.2355C76.73 60.7981 76.7097 59.9838 76.5133 59.4579C76.4308 59.237 75.4584 59.1471 74.9787 59.2874C70.5488 60.5833 66.1717 62.0657 61.7092 63.237C59.0747 63.9285 56.3237 64.2484 53.603 64.5278C52.9325 64.5966 51.8456 64.0273 51.5308 63.4477C50.971 62.4175 52.0459 61.9993 52.8396 61.6143C55.2029 60.468 57.6142 59.4063 59.9139 58.1482C61.2826 57.3993 62.4766 56.343 63.7491 55.4249C63.6654 55.2062 63.5817 54.9875 63.498 54.7689C62.4601 54.7689 61.3854 54.5958 60.3911 54.7999C56.785 55.5402 53.2179 56.4637 49.6101 57.1945C48.389 57.4419 46.8301 57.7072 46.2228 56.2062C45.6805 54.866 46.147 53.5927 47.5407 52.82C47.5917 52.7917 47.6587 52.7693 47.686 52.7251C47.9398 52.3129 48.3475 51.9036 48.3671 51.4782C48.3769 51.2672 47.6891 50.9806 47.2827 50.804C45.9065 50.2058 44.3965 49.8134 43.1731 49.0009C42.4163 48.4983 41.5109 47.2097 41.7026 46.5726C41.9779 45.658 43.0661 44.7541 44.0297 44.3051C47.1882 42.8333 50.4862 41.6503 53.6493 40.1872C55.008 39.5587 56.2279 38.5874 57.402 37.6417C59.068 36.2997 59.4116 34.4875 58.5352 32.5441C57.5551 30.3708 55.6105 29.3853 53.4358 29.028C48.9594 28.2924 46.0118 26.1982 45.3349 21.5272C45.0398 19.4915 43.6137 18.2693 41.5637 17.9404C38.9082 17.5143 36.2312 17.2165 33.5631 16.8661C29.8128 16.3736 26.3999 15.3839 25.0576 11.3302Z" fill="#E09038"/>
<path d="M24.9723 11.4243C26.4 15.384 29.8129 16.3736 33.5631 16.8661C36.2313 17.2165 38.9082 17.5144 41.5638 17.9404C43.6137 18.2694 45.0399 19.4916 45.3349 21.5273C46.0119 26.1983 48.9595 28.2925 53.4359 29.028C55.6105 29.3853 57.5551 30.3709 58.5352 32.5442C59.4116 34.4876 59.0681 36.2998 57.402 37.6417C56.2279 38.5874 55.008 39.5588 53.6493 40.1872C50.4862 41.6503 47.1882 42.8334 44.0297 44.3052C43.0662 44.7541 41.9779 45.658 41.7027 46.5726C41.5109 47.2098 42.4164 48.4983 43.1731 49.0009C44.3965 49.8134 45.9066 50.2058 47.2828 50.804C47.6891 50.9807 48.3769 51.2673 48.3672 51.4782C48.3476 51.9036 47.9399 52.3129 47.686 52.7251C47.6588 52.7694 47.5918 52.7918 47.5408 52.82C46.147 53.5928 45.6806 54.866 46.2229 56.2063C46.8302 57.7072 48.3891 57.4419 49.6101 57.1946C53.2179 56.4637 56.7851 55.5402 60.3911 54.8C61.3854 54.5958 62.4602 54.7689 63.498 54.7689C63.5817 54.9876 63.6654 55.2062 63.7491 55.4249C62.4766 56.343 61.2826 57.3994 59.9139 58.1482C57.6143 59.4064 55.203 60.468 52.8396 61.6144C52.0459 61.9994 50.9711 62.4175 51.5308 63.4477C51.8457 64.0274 52.9325 64.5966 53.603 64.5278C56.3238 64.2485 59.0748 63.9285 61.7092 63.237C66.1717 62.0657 70.5488 60.5834 74.9787 59.2875C75.4585 59.1471 76.4308 59.237 76.5133 59.4579C76.7098 59.9839 76.73 60.7982 76.4288 61.2356C75.5482 62.5141 74.5192 63.7034 73.4694 64.8586C71.0921 67.4743 68.4754 69.9052 66.3218 72.6842C64.5398 74.9837 63.1082 77.5931 61.8394 80.2135C60.5065 82.9663 60.8417 85.9185 61.5318 88.8363C63.1382 95.6287 64.4403 102.487 64.0266 109.488C63.7768 113.715 63.0184 117.913 62.3314 122.12C62.1026 121.378 61.9866 120.643 61.9666 119.905C61.7968 113.66 62.0036 107.38 61.3732 101.181C60.8709 96.2418 59.3774 91.3969 58.2539 86.5257C58.1245 85.9648 57.6152 85.4194 57.1392 85.0388C56.9531 84.8901 56.3731 85.2157 55.9726 85.3252C55.9726 85.3252 55.9707 85.3245 55.8505 85.3716C55.6455 86.1069 55.3961 86.8213 55.5048 87.4787C55.9415 90.1212 56.5119 92.7421 56.9864 95.379C57.2421 96.8001 56.5555 97.2596 55.1629 96.9889C54.3656 96.8339 53.5329 96.7052 52.7301 96.7601C51.398 96.8512 50.7236 96.2486 50.1819 95.1226C49.7567 94.2388 49.0257 93.4966 48.4306 92.6915C48.4306 92.6915 48.4945 92.6511 48.4788 92.5513C47.8626 91.7268 47.2621 91.0021 46.6615 90.2775C46.6615 90.2775 46.7195 90.2421 46.7083 90.1434C45.8467 88.4579 44.7995 87.0989 42.8202 86.8185C42.8202 86.8185 42.8484 86.8072 42.8162 86.7085C42.0182 85.257 40.9337 85.8403 40.7254 86.7071C40.2686 88.6079 40.2539 90.6111 40.0587 92.5725C40.0385 92.8415 40.0183 93.1106 39.8205 93.5463C39.1417 95.3846 38.7464 97.0956 38.1199 98.7207C36.1724 103.772 33.8549 108.642 30.4736 112.962C30.1732 113.345 30.0793 113.885 29.8895 114.352C29.8895 114.352 29.8971 114.369 29.7703 114.39C28.7195 115.476 27.7956 116.541 26.8717 117.606C26.8717 117.606 26.8528 117.606 26.7272 117.603C25.9391 118.251 25.2766 118.904 24.6141 119.556C24.6141 119.556 24.6104 119.557 24.4834 119.562C23.856 120.026 23.3556 120.485 22.8551 120.944C22.8551 120.944 22.8479 120.939 22.7231 120.946C21.7408 121.615 20.8833 122.277 20.0257 122.939C17.6696 123.713 15.3461 124.621 12.9387 125.183C12.1546 125.366 10.995 124.844 10.285 124.296C9.17494 123.441 8.92762 122.272 10.2747 121.29C12.2922 119.821 14.2538 118.254 16.3876 116.966C20.9765 114.195 24.7696 110.701 27.0829 105.889C27.7892 104.42 27.931 102.689 28.3944 101.057C28.4927 101.248 28.5278 101.46 28.563 101.673C28.7515 101.67 28.9399 101.667 29.1283 101.665C29.1283 96.2746 29.1918 90.8832 29.0832 85.4952C29.0564 84.1648 28.4701 82.8454 28.141 81.5209C27.7743 77.0121 27.4076 72.5032 27.0602 67.7473C27.0739 67.4382 27.0682 67.3761 27.0625 67.314C26.9924 66.7175 26.9223 66.121 26.971 65.3564C27.0011 64.8699 26.9123 64.5515 26.8235 64.2331C26.7818 63.9739 26.7401 63.7146 26.7991 63.205C26.6402 60.7358 26.3806 58.5169 26.121 56.2981C26.0793 56.0336 26.0376 55.7692 26.0924 55.2536C26.0219 52.8741 25.9419 50.7344 25.6508 48.6227C25.5064 47.575 24.9739 46.5788 24.6169 45.5593C24.5949 45.5039 24.5728 45.4485 24.7104 45.2959C25.2158 45.1539 25.5733 45.1504 25.9052 45.058C30.5472 43.7667 34.325 40.9499 38.1173 38.2172C39.3587 37.3227 39.7819 35.8717 38.6349 34.4374C38.6349 34.4374 38.6634 34.4502 38.7433 34.3804C38.9049 33.1127 37.0835 31.1218 35.9386 31.2041C35.7884 31.2149 35.6606 31.5244 35.5225 31.6956C35.5225 31.6956 35.5219 31.7205 35.3959 31.7654C34.8358 32.4439 34.5443 33.2964 33.9431 33.6733C31.2357 35.3707 28.4202 36.8889 25.1534 37.3095C23.3228 37.5452 21.4897 37.7629 19.6577 37.9887C19.5995 37.9993 19.5412 38.0099 19.3263 37.8774C18.5901 37.6265 18.0106 37.5187 17.431 37.411C17.431 37.411 17.5236 37.3862 17.503 37.2857C17.5116 36.8706 17.5408 36.556 17.57 36.2413C17.7258 36.1628 17.8816 36.0842 18.2733 36.0519C19.8717 35.4504 21.3158 34.9226 22.5629 34.1055C23.208 33.6828 23.5187 32.7464 22.5262 32.0898C22.4794 32.046 22.4326 32.0023 22.4893 31.868C22.9664 31.6293 23.4706 31.5857 23.6936 31.3172C25.9464 28.6051 29.2029 27.3288 32.0874 25.5119C32.7807 25.0753 33.6717 24.0379 33.5437 23.4831C33.3924 22.8276 32.2799 22.0227 31.5045 21.9311C27.9331 21.5089 24.4214 21.429 21.4698 24.156C20.3579 25.1834 19.2775 26.6455 17.3469 26.3568C18.6678 24.5499 19.9887 22.7431 21.3529 20.877C22.4122 21.0518 23.7058 21.3032 25.0115 21.4552C25.356 21.4953 25.9797 21.3019 26.0474 21.0863C26.1581 20.7338 26.0606 20.1221 25.8003 19.8887C24.8206 19.0099 23.7398 18.2398 22.4257 17.2182C23.177 15.4781 24.0319 13.4983 24.9723 11.4243ZM33.3728 21.7294C36.0031 22.2723 38.6257 22.3589 41.0983 21.1819C41.6789 20.9056 42.008 20.1204 42.4529 19.5693C41.8762 19.2387 41.3357 18.7284 40.7167 18.6088C38.1557 18.1139 35.7084 18.6585 33.3699 19.6955C32.3133 20.1641 32.077 20.8307 33.3728 21.7294Z" fill="#F2BA60"/>
<path d="M17.3566 26.3643C19.2775 26.6455 20.3579 25.1833 21.4698 24.156C24.4214 21.429 27.9331 21.5088 31.5045 21.931C32.2799 22.0227 33.3924 22.8276 33.5436 23.4831C33.6717 24.0379 32.7807 25.0752 32.0874 25.5119C29.2029 27.3287 25.9464 28.6051 23.6936 31.3172C23.4706 31.5857 22.9664 31.6293 22.4527 31.7798C20.2023 30.9096 18.0918 30.0369 15.8817 28.9431C15.7705 28.4268 15.7589 28.1316 15.7472 27.8364C15.7472 27.8364 15.7554 27.8795 15.8617 27.8794C16.4424 27.3757 16.9168 26.8723 17.3911 26.3689C17.3911 26.3689 17.3664 26.3719 17.3566 26.3643Z" fill="#E0923B"/>
<path d="M38.5035 34.4645C39.7819 35.8716 39.3587 37.3227 38.1173 38.2171C34.3249 40.9498 30.5472 43.7667 25.9052 45.058C25.5733 45.1503 25.2157 45.1539 24.7279 45.2084C24.5858 45.218 24.61 45.198 24.5795 45.2103C24.549 45.2226 24.5611 45.1092 24.5611 45.1092C24.0879 43.4663 23.6146 41.8234 23.2223 40.4614C26.7828 39.0117 30.2109 37.6298 33.6235 36.212C34.1542 35.9915 34.6735 35.6699 35.0947 35.2858C36.0551 34.4098 37.1116 34.0901 38.5035 34.4645Z" fill="#DA8F3B"/>
<path d="M24.7897 70.7736C24.9455 71.3733 25.1012 71.9731 25.1778 72.8575C25.2888 75.5875 25.479 78.033 25.6693 80.4784C25.7612 81.0761 25.8531 81.6739 25.8631 82.5499C25.7411 84.0242 25.6588 85.2207 25.6749 86.4159C25.6869 87.3019 25.3709 87.7107 24.4426 87.5412C24.4426 87.5412 24.4688 87.5233 24.4457 87.4454C24.3255 87.2853 24.2284 87.2031 24.1313 87.1209C24.1313 87.1209 24.1678 87.1255 24.1661 87.0215C23.8098 86.518 23.455 86.1186 23.1003 85.7191C23.1003 85.7191 23.1356 85.7244 23.1296 85.6228C22.8787 85.2434 22.6338 84.9657 22.3888 84.688C22.3888 84.688 22.424 84.6922 22.4177 84.5766C21.5602 81.7656 19.9314 79.2276 20.4058 76.255C20.6699 74.6003 21.2186 72.9894 21.6391 71.3589C21.6391 71.3589 21.6759 71.393 21.7724 71.3656C22.5636 70.7938 23.2582 70.2493 23.9848 69.6798C24.2745 70.0735 24.5321 70.4235 24.7897 70.7736Z" fill="#DA8F3B"/>
<path d="M62.2792 20.1885C61.1036 20.0472 61.4686 19.4218 61.7747 18.6361C62.0964 17.8105 62.1567 16.8869 62.3311 16.0062C62.1731 15.9778 62.015 15.9494 61.857 15.921C61.4308 16.4915 61.0045 17.062 60.4981 17.531C61.4882 15.1843 61.9331 12.8732 61.2262 10.4265C60.7013 8.60958 59.8646 7.95571 58.0587 8.41708C56.0426 8.93215 54.0949 9.7052 52.1174 10.366C52.113 10.1971 52.1085 10.0282 52.1271 9.71885C52.1501 9.57831 52.1516 9.51051 52.1516 9.51051L52.09 9.59532C51.6226 9.56412 51.0939 9.65546 50.7044 9.46818C50.2924 9.27006 49.8349 8.84913 49.7348 8.44506C49.6623 8.15205 50.0536 7.58101 50.3892 7.39108C51.2359 6.9119 52.168 6.57799 53.0659 6.18586C53.0661 6.03351 53.0663 5.88115 53.0665 5.7288C51.0395 5.52011 49.0171 5.2189 46.9845 5.12142C42.3212 4.89777 37.7735 5.57149 33.3264 6.98309C32.1147 7.36768 30.8289 7.52734 29.4222 7.76266C31.0378 7.1598 32.7841 6.49559 34.5831 6.02522C41.1416 4.31041 47.7693 4.03375 54.4474 5.29773C54.612 5.32888 54.7616 5.43631 55.3474 5.70504C53.8036 6.41097 52.5117 6.94448 51.2842 7.59477C50.8677 7.81539 50.6134 8.33082 50.2851 8.71153C50.7623 8.74817 51.3063 8.94842 51.7049 8.79197C53.118 8.23727 54.4639 7.51923 55.8701 6.9453C56.7844 6.57215 57.7398 6.22131 58.7106 6.07099C61.1669 5.69068 62.4384 6.46518 62.5236 8.89591C62.6535 12.6048 62.3797 16.3274 62.2792 20.1885Z" fill="#C98943"/>
<path d="M56.1121 85.2894C56.3731 85.2156 56.9531 84.89 57.1391 85.0388C57.6151 85.4194 58.1245 85.9647 58.2538 86.5256C59.3774 91.3968 60.8709 96.2418 61.3732 101.181C62.0036 107.38 61.7968 113.66 61.9665 119.905C61.9866 120.643 62.1026 121.378 62.2623 122.235C61.5725 124.147 60.7946 125.938 59.9157 127.799C61.2914 124.522 61.5969 120.994 61.4921 117.403C61.2423 108.833 61.1364 100.251 59.0968 91.8436C58.7171 90.2788 58.4044 88.6845 57.8441 87.1816C57.5701 86.4467 56.7982 85.8906 56.1121 85.2894Z" fill="#E8B563"/>
<path d="M32.0419 2.79294C33.1862 3.22652 34.205 3.62417 35.7436 4.2247C32.9268 5.06243 30.6037 5.75334 28.2785 6.44504C27.8622 3.98176 29.3101 2.51436 32.0419 2.79294Z" fill="#E8B563"/>
<path d="M19.7919 38.0436C21.4897 37.7629 23.3228 37.5453 25.1534 37.3095C28.4203 36.8889 31.2357 35.3707 33.9431 33.6733C34.5443 33.2964 34.8358 32.444 35.3833 31.7648C35.7412 33.0762 35.0471 33.8425 33.9073 34.512C29.5921 37.0465 25.0578 38.6696 19.7919 38.0436Z" fill="#E8B563"/>
<path d="M21.5387 71.4187C21.2186 72.9894 20.6699 74.6003 20.4058 76.2549C19.9313 79.2275 21.5601 81.7655 22.4133 84.5934C19.3441 80.9239 18.9079 75.0082 21.5387 71.4187Z" fill="#CE8948"/>
<path d="M28.118 81.6755C28.4701 82.8453 29.0565 84.1648 29.0833 85.4951C29.1919 90.8832 29.1284 96.2745 29.1284 101.665C28.9399 101.667 28.7515 101.67 28.5631 101.673C28.5279 101.46 28.4927 101.248 28.4478 100.929C28.5407 97.8691 28.7178 94.9145 28.7228 91.9596C28.7269 89.5191 28.5275 87.0781 28.4399 84.402C28.4346 83.9995 28.4078 83.8323 28.3809 83.6651C28.2856 83.0535 28.1903 82.4419 28.118 81.6755Z" fill="#F2BA61"/>
<path d="M24.5977 45.7052C24.9739 46.5788 25.5064 47.575 25.6509 48.6227C25.942 50.7345 26.0219 52.8742 26.1136 55.1205C25.5516 52.1094 25.065 48.9803 24.5977 45.7052Z" fill="#E8B563"/>
<path d="M24.4794 87.6502C25.3708 87.7106 25.6869 87.3018 25.6749 86.4159C25.6587 85.2206 25.741 84.0241 25.842 82.7015C25.9028 84.8282 25.9028 87.0816 25.9028 89.6041C25.3698 88.8949 24.9431 88.327 24.4794 87.6502Z" fill="#CE8948"/>
<path d="M25.699 80.331C25.4789 78.033 25.2887 75.5876 25.1669 73.0187C25.3998 75.3247 25.5643 77.7541 25.699 80.331Z" fill="#CE8948"/>
<path d="M67.8692 12.6146C67.0004 12.2166 66.0941 11.7105 64.7554 10.9629C64.7554 12.7492 64.7554 14.2897 64.6771 15.8846C64.5349 15.6059 64.471 15.2728 64.4071 14.9398C64.3795 13.9837 64.3519 13.0277 64.3616 11.8735C64.4028 11.6008 64.3989 11.5266 64.3871 11.4528C64.3346 11.0294 64.2821 10.6061 64.2296 10.1827C64.3517 10.0812 64.4738 9.97969 64.5959 9.87817C65.6745 10.7543 66.7531 11.6304 67.8692 12.6146Z" fill="#CE8948"/>
<path d="M64.3335 15.0662C64.471 15.2729 64.5349 15.606 64.6695 16.0442C64.598 17.3211 64.5642 18.5191 64.278 19.6559C64.0631 20.5094 63.6411 21.5225 62.341 20.4685C63.4004 20.8016 63.6378 20.0715 63.7526 19.2787C63.9492 17.9205 64.0936 16.555 64.3335 15.0662Z" fill="#C98943"/>
<path d="M26.0983 56.4507C26.3806 58.5169 26.6402 60.7358 26.8244 63.0749C26.5246 60.9979 26.3001 58.8006 26.0983 56.4507Z" fill="#E8B563"/>
<path d="M22.5234 32.2276C23.5187 32.7464 23.2079 33.6828 22.5629 34.1055C21.3157 34.9226 19.8717 35.4504 18.4055 36.0423C19.3391 35.4806 20.4847 35.1094 21.3754 34.4208C21.9503 33.9763 22.1518 33.0666 22.5234 32.2276Z" fill="#E8B563"/>
<path d="M24.7987 70.6632C24.5321 70.4234 24.2745 70.0734 23.9848 69.6797C23.2582 70.2492 22.5636 70.7937 21.7479 71.3594C22.5036 70.362 23.3804 69.3432 24.4875 68.0568C24.6288 69.1583 24.7183 69.8556 24.7987 70.6632Z" fill="#CE8948"/>
<path d="M35.6539 31.6792C35.6606 31.5245 35.7884 31.2149 35.9386 31.2041C37.0835 31.1218 38.9049 33.1127 38.7362 34.3942C38.4562 32.7935 37.0573 32.2903 35.6539 31.6792Z" fill="#E8B563"/>
<path d="M17.464 36.2305C17.5408 36.556 17.5116 36.8706 17.456 37.3011C16.969 37.309 16.5085 37.2011 16.048 37.0932C16.0444 36.957 16.0409 36.8209 16.0373 36.6847C16.4776 36.5297 16.9178 36.3747 17.464 36.2305Z" fill="#E8B563"/>
<path d="M17.5305 37.4817C18.0106 37.5187 18.5901 37.6265 19.2475 37.8371C18.7602 37.8107 18.1951 37.6816 17.5305 37.4817Z" fill="#E8B563"/>
<path d="M17.2818 26.4025C16.9168 26.8724 16.4424 27.3758 15.8395 27.8818C16.1981 27.4016 16.6852 26.9188 17.2818 26.4025Z" fill="#F2BA60"/>
<path d="M15.6378 27.8779C15.7589 28.1317 15.7705 28.4269 15.7784 28.8696C15.464 28.8529 15.1535 28.6888 14.8429 28.5246C15.0714 28.3229 15.2999 28.1212 15.6378 27.8779Z" fill="#F2BA60"/>
<path d="M26.795 64.3644C26.9123 64.5515 27.0011 64.87 27.0064 65.2322C26.8707 65.0159 26.8185 64.7558 26.795 64.3644Z" fill="#E8B563"/>
<path d="M22.4124 84.7963C22.6337 84.9657 22.8786 85.2434 23.1248 85.6397C22.8961 85.4737 22.6661 85.1891 22.4124 84.7963Z" fill="#CE8948"/>
<path d="M28.3516 83.7488C28.4077 83.8323 28.4346 83.9995 28.4593 84.251C28.4122 84.1677 28.3673 84.0001 28.3516 83.7488Z" fill="#F2BA60"/>
<path d="M64.3579 11.506C64.3989 11.5266 64.4028 11.6009 64.3929 11.7316C64.3278 11.7213 64.3084 11.6451 64.3579 11.506Z" fill="#C98943"/>
<path d="M27.0266 67.3548C27.0682 67.376 27.0739 67.4381 27.0782 67.5936C26.9925 67.6096 26.9638 67.5124 27.0266 67.3548Z" fill="#E8B563"/>
<path d="M24.5438 45.1405C24.5613 45.1092 24.5491 45.223 24.5909 45.2218C24.6327 45.2206 24.5263 45.1719 24.5438 45.1405Z" fill="#E8B563"/>
<path d="M52.0884 10.4349C54.0948 9.70507 56.0425 8.93203 58.0587 8.41696C59.8646 7.95559 60.7013 8.60946 61.2262 10.4264C61.9331 12.8731 61.4882 15.1841 60.3855 17.5528C60.3531 17.6763 60.3431 17.7131 60.2703 17.7753C60.1282 17.9543 60.059 18.071 59.9897 18.1878C59.9897 18.1878 59.8929 18.192 59.7329 18.2353C58.3765 17.7984 57.1802 17.318 55.9839 16.8377C55.9839 16.8377 55.9757 16.8603 55.9313 16.7567C55.4594 16.3595 55.0319 16.066 54.6044 15.7724C54.6044 15.7724 54.5924 15.7956 54.5725 15.7079C54.4412 15.5662 54.3298 15.5123 54.2184 15.4583C54.2184 15.4583 54.2123 15.4799 54.1588 15.3716C52.6305 14.0712 51.4436 12.7408 51.8096 10.6641C51.9154 10.6446 51.9987 10.5912 52.0884 10.4349Z" fill="#090502"/>
<path d="M51.6848 10.6992C51.4436 12.7409 52.6305 14.0713 54.166 15.3629C51.6235 14.8624 50.449 12.7798 51.6848 10.6992Z" fill="#C98943"/>
<path d="M56.0051 16.9575C57.1803 17.3181 58.3766 17.7984 59.7088 18.2765C58.7859 19.1233 57.3253 18.6654 56.0051 16.9575Z" fill="#C98943"/>
<path d="M54.6181 15.8952C55.0319 16.066 55.4595 16.3596 55.9416 16.7501C55.5414 16.5707 55.0866 16.2943 54.6181 15.8952Z" fill="#C98943"/>
<path d="M54.2683 15.5323C54.3298 15.5123 54.4412 15.5663 54.5857 15.7091C54.5186 15.7341 54.4184 15.6702 54.2683 15.5323Z" fill="#C98943"/>
<path d="M60.0845 18.1401C60.0589 18.0711 60.1282 17.9543 60.2877 17.7839C60.3118 17.8509 60.2456 17.9716 60.0845 18.1401Z" fill="#C98943"/>
<path d="M33.2509 21.6669C32.0769 20.8307 32.3133 20.1641 33.3699 19.6955C35.7083 18.6585 38.1556 18.1138 40.7167 18.6088C41.3357 18.7284 41.8762 19.2387 42.4528 19.5693C42.008 20.1204 41.6789 20.9055 41.0983 21.1819C38.6257 22.3589 36.003 22.2723 33.2509 21.6669Z" fill="#090502"/>
<path d="M52.0924 9.59875C52.0901 9.59568 52.1519 9.5105 52.1519 9.5105C52.1519 9.5105 52.1504 9.57859 52.1258 9.5925C52.1011 9.60641 52.0948 9.60182 52.0924 9.59875Z" fill="#E09038"/>
</g>
<path d="M44.3813 62.7151C44.5595 62.615 44.6588 62.4141 44.6229 62.211C45.2322 61.8568 45.7581 61.3758 46.1652 60.8006C46.5722 60.2253 46.8509 59.5693 46.9822 58.8769C46.9946 58.8145 46.9944 58.7502 46.9817 58.6879C46.9691 58.6255 46.9441 58.5663 46.9083 58.5136C46.8725 58.461 46.8266 58.416 46.7733 58.3813C46.72 58.3466 46.6603 58.3228 46.5977 58.3114C46.3336 58.2586 46.0763 58.4366 46.0321 58.6959C45.8169 59.8437 45.0716 60.8427 44.07 61.405L44.0615 61.4098C43.6795 61.6243 43.5312 62.0759 43.6985 62.4732C43.8017 62.7167 44.0906 62.8336 44.3341 62.7304C44.3558 62.7294 44.3728 62.7198 44.3813 62.7151Z" fill="black"/>
<path d="M49.3979 66.2619C49.454 66.2313 49.503 66.1894 49.5419 66.1387C49.5807 66.0881 49.6085 66.0298 49.6235 65.9678L51.63 58.824C51.6636 58.7047 51.6525 58.5658 51.5906 58.4554C51.5286 58.3451 51.4242 58.2586 51.2965 58.2298L43.5165 56.0447C43.2514 55.9702 42.9883 56.1179 42.9138 56.383L41.5588 61.2074C41.3466 61.9628 41.4409 62.7472 41.8259 63.413C42.2023 64.0836 42.8229 64.5724 43.5603 64.7724L49.0209 66.3061C49.1487 66.3349 49.2791 66.3286 49.3979 66.2619ZM50.5635 59.0321L48.8213 65.2348L43.8246 63.8314C43.3343 63.6937 42.9225 63.3778 42.6699 62.9279C42.4173 62.4781 42.3573 61.9536 42.4903 61.4547L43.715 57.0942L50.5635 59.0321Z" fill="black"/>
<path d="M6.57425 40.1346L5.71432 43.1962L8.24578 43.9073L7.67431 40.4436L6.57425 40.1346Z" fill="#343434"/>
<path d="M8.48407 44.3317C8.51803 44.3126 8.54349 44.2983 8.57268 44.2707C8.63301 44.2154 8.6786 44.1459 8.70533 44.0685C8.73206 43.9912 8.73908 43.9083 8.72576 43.8276L8.15428 40.3639C8.14056 40.2724 8.10001 40.1871 8.03776 40.1187C7.97551 40.0503 7.89438 40.0019 7.80461 39.9797L6.71304 39.6659C6.46122 39.5952 6.1811 39.7525 6.11037 40.0043L5.25045 43.0659C5.17599 43.331 5.32372 43.5941 5.5888 43.6686L8.10701 44.3759C8.23955 44.4131 8.36524 44.3984 8.48407 44.3317ZM7.23919 40.8218L7.63388 43.2349L6.3085 42.8626L6.90785 40.7288L7.23919 40.8218Z" fill="black"/>
<path d="M57.3413 63.1307L71.8062 72.7488C72.0589 72.9176 72.3479 73.024 72.6497 73.0595C72.9515 73.095 73.2574 73.0585 73.5423 72.953C73.8272 72.8474 74.0831 72.6759 74.289 72.4525C74.4949 72.229 74.6449 71.9599 74.7267 71.6673L77.1948 62.8801C77.2646 62.6319 77.284 62.3723 77.2516 62.1165C77.2193 61.8607 77.136 61.6141 77.0066 61.3911C76.8773 61.1681 76.7045 60.9733 76.4985 60.8183C76.2925 60.6632 76.0576 60.5511 75.8075 60.4885L59.251 56.3315L57.3413 63.1307Z" fill="#F15A24"/>
<path d="M74.0616 73.2465C74.6133 72.9367 75.0204 72.429 75.1906 71.7976L77.6587 63.0104C77.8374 62.3742 77.7579 61.7155 77.4253 61.1431C77.0928 60.5707 76.5681 60.1731 75.9197 60.0124L59.3548 55.8602C59.0992 55.8027 58.8446 55.9457 58.7654 56.2023L56.8557 63.0014C56.7998 63.2003 56.8802 63.423 57.0557 63.5367L71.5206 73.1548C72.1645 73.5859 72.9667 73.6825 73.6945 73.4079C73.8361 73.3619 73.9512 73.3084 74.0616 73.2465ZM59.5931 56.9209L75.6904 60.9561C76.07 61.0556 76.3907 61.2886 76.5813 61.6281C76.7804 61.9629 76.8257 62.3617 76.7262 62.7413L74.2581 71.5285C74.1315 71.9792 73.8041 72.3305 73.3717 72.495C72.9394 72.6596 72.4617 72.6041 72.0701 72.3439L57.902 62.9164L59.5931 56.9209Z" fill="black"/>
<path d="M47.2989 72.3858C47.4048 73.2307 48.179 73.8342 49.0323 73.7235L51.9778 73.3425C52.8141 73.2414 53.4092 72.4719 53.3033 71.6271L52.8359 67.9711C52.7057 66.9836 53.0729 66.0071 53.8121 65.3353L53.8413 65.3078C54.5768 64.6493 54.9392 63.6643 54.8091 62.6768L53.9465 55.8712L47.3535 56.7148L49.1261 70.5897L48.6451 70.6476C47.7965 70.7668 47.193 71.541 47.2989 72.3858Z" fill="#F15A24"/>
<path d="M52.7704 73.6009C53.4664 73.2102 53.895 72.4225 53.7853 71.591L53.3179 67.9349C53.2664 67.5284 53.3134 67.1154 53.455 66.7308C53.5966 66.3462 53.8287 66.0014 54.1316 65.7254C55.0082 64.9206 55.4371 63.7756 55.2911 62.6407L54.4286 55.835C54.3896 55.5667 54.1495 55.3777 53.8812 55.4167L47.2882 56.2603C47.0283 56.2946 46.8308 56.5394 46.8699 56.8078L48.576 70.2064C48.0345 70.276 47.564 70.5514 47.2274 70.9859C46.8909 71.4205 46.7505 71.9458 46.82 72.4873C46.9649 73.6005 47.9792 74.393 49.0924 74.2481L52.0426 73.8756C52.3051 73.8063 52.5581 73.7201 52.7704 73.6009ZM53.5198 56.4234L54.3244 62.7481C54.4292 63.5711 54.1247 64.4008 53.5107 64.9576C52.6341 65.7624 52.2052 66.9074 52.3512 68.0423L52.8186 71.6984C52.8939 72.2701 52.4878 72.7995 51.9114 72.8663L48.9612 73.2389C48.7531 73.2656 48.5417 73.2299 48.354 73.1361C48.1663 73.0424 48.0107 72.8949 47.9071 72.7124C47.8035 72.53 47.7565 72.3208 47.7721 72.1116C47.7877 71.9024 47.8652 71.7025 47.9948 71.5375C48.1682 71.3137 48.4225 71.1669 48.7031 71.1287L49.1841 71.0708C49.4524 71.0317 49.6414 70.7917 49.6024 70.5233L47.8962 57.1246L53.5198 56.4234Z" fill="black"/>
<path d="M28.4395 72.1007C35.3202 68.9856 40.6444 62.6808 42.5064 55.3391L35.584 53.5878C34.2759 58.7543 30.5752 63.1986 25.7766 65.4686C25.0907 65.7978 24.7395 66.5643 25.0131 67.2703L26.5392 71.281C26.8281 72.0342 27.7016 72.4368 28.4395 72.1007Z" fill="#232323"/>
<path d="M30.5796 71.5578C36.6911 68.1266 41.2599 62.2459 42.974 55.4561C43.0399 55.1958 42.8789 54.929 42.6186 54.863L35.6963 53.1117C35.436 53.0458 35.1691 53.2067 35.1032 53.4671C33.8312 58.4792 30.2643 62.8039 25.5505 65.0261C24.6307 65.4756 24.1833 66.5082 24.5373 67.437L26.0634 71.4476C26.2528 71.9441 26.647 72.3479 27.1453 72.5594C27.6256 72.7586 28.1569 72.7506 28.6306 72.5404C29.3006 72.2424 29.9515 71.9105 30.5796 71.5578ZM41.9085 55.6859C39.9779 62.6866 34.8979 68.6311 28.2352 71.6572C28.1236 71.7069 28.0031 71.7332 27.881 71.7346C27.7589 71.7359 27.6378 71.7123 27.5252 71.6651C27.276 71.5594 27.0747 71.3599 26.98 71.1116L25.4539 67.101C25.2798 66.6517 25.495 66.1402 25.9724 65.9168C30.7918 63.6241 34.4796 59.2762 35.9176 54.182L41.9085 55.6859Z" fill="black"/>
<path d="M57.3412 63.1307L59.251 56.3315L57.8689 53.8699C57.6211 53.4285 57.1998 53.0957 56.7095 52.958L34.6022 46.7486L32.3611 54.7274L57.3412 63.1307Z" fill="#343434"/>
<path d="M57.5795 63.5552C57.6356 63.5246 57.6846 63.4826 57.7234 63.432C57.7623 63.3813 57.7901 63.3231 57.8051 63.2611L59.7148 56.4619C59.7498 56.3385 59.7356 56.2065 59.6754 56.0933L58.2934 53.6317C57.9836 53.08 57.4494 52.6654 56.8398 52.4942L34.7325 46.2848C34.4806 46.2141 34.2005 46.3713 34.1298 46.6232L31.8935 54.6104C31.8228 54.8622 31.9573 55.1216 32.2054 55.2056L57.1844 63.5872C57.3085 63.6292 57.4474 63.6182 57.571 63.5599L57.5795 63.5552ZM58.7265 56.3916L57.0103 62.5016L32.9611 54.4241L34.9405 47.3513L56.5707 53.4267C56.9418 53.5309 57.2502 53.782 57.4361 54.113L58.718 56.3964L58.7265 56.3916Z" fill="black"/>
<path d="M56.1537 55.7261C56.2097 55.6955 56.2587 55.6536 56.2976 55.6029C56.3364 55.5523 56.3643 55.494 56.3793 55.432C56.4537 55.1669 56.306 54.9038 56.0409 54.8293L35.7627 49.1337C35.4976 49.0592 35.2344 49.2069 35.16 49.472C35.0855 49.7371 35.2333 50.0002 35.4983 50.0747L55.7766 55.7703C55.9176 55.8028 56.0518 55.7833 56.1537 55.7261ZM55.5655 57.8202C55.6215 57.7896 55.6706 57.7477 55.7094 57.697C55.7483 57.6463 55.7761 57.5881 55.7911 57.5261C55.8655 57.261 55.7178 56.9979 55.4527 56.9234L35.1745 51.2278C34.9094 51.1533 34.6463 51.301 34.5718 51.5661C34.4974 51.8312 34.6451 52.0943 34.9102 52.1688L55.1884 57.8644C55.321 57.9017 55.4551 57.8821 55.5655 57.8202ZM54.9736 59.9275C55.0296 59.897 55.0786 59.855 55.1175 59.8044C55.1564 59.7537 55.1842 59.6955 55.1992 59.6334C55.2736 59.3683 55.1259 59.1052 54.8608 59.0308L34.5826 53.3351C34.3175 53.2607 34.0544 53.4084 33.9799 53.6735C33.9055 53.9385 34.0532 54.2017 34.3183 54.2761L54.5965 59.9718C54.7375 60.0042 54.8717 59.9847 54.9736 59.9275Z" fill="black"/>
<path d="M32.366 54.7359L29.0955 52.4303C28.3737 51.9201 27.5664 51.5361 26.7182 51.2978L1.41674 44.1913L2.13044 41.6248L14.3107 45.0459C14.8806 45.206 15.4984 45.0935 15.9781 44.7349L17.5858 43.5421C18.0654 43.1835 18.6833 43.071 19.2532 43.2311L34.4022 47.4861L32.366 54.7359Z" fill="#494949"/>
<path d="M32.6042 55.1603C32.6603 55.1297 32.7093 55.0877 32.7481 55.0371C32.787 54.9864 32.8148 54.9282 32.8298 54.8662L34.8661 47.6163C34.9406 47.3513 34.7928 47.0881 34.5278 47.0137L19.392 42.7624C18.6762 42.5614 17.8988 42.7077 17.2965 43.1462L15.6888 44.3391C15.3355 44.6045 14.8688 44.6879 14.4446 44.5688L2.26444 41.1476C2.14109 41.1127 2.00902 41.1269 1.89587 41.1871C1.78552 41.2491 1.699 41.3535 1.67026 41.4812L0.95179 44.0392C0.877337 44.3043 1.02507 44.5674 1.29014 44.6419L26.5794 51.7664C27.3794 51.9983 28.1326 52.3457 28.8184 52.8314L32.0888 55.1371C32.2197 55.231 32.3862 55.2492 32.5363 55.1984L32.6042 55.1603ZM33.7996 47.8244L32.0797 53.9476L29.3774 52.0375C28.6015 51.4907 27.7497 51.087 26.8484 50.8339L2.01089 43.8577L2.46878 42.2274L14.1851 45.5183C14.9008 45.7193 15.6783 45.573 16.2805 45.1345L17.8882 43.9416C18.2416 43.6762 18.7083 43.5928 19.1324 43.7119L33.7996 47.8244Z" fill="black"/>
<path d="M23.11 44.3144L34.4022 47.4861L32.3659 54.7359L29.0955 52.4303C28.3737 51.9201 27.5664 51.5361 26.7182 51.2978L21.5624 49.8497L23.11 44.3144Z" fill="#F15A24"/>
<path d="M32.6042 55.1603C32.6603 55.1297 32.7093 55.0878 32.7482 55.0371C32.787 54.9864 32.8148 54.9282 32.8298 54.8662L34.8661 47.6164C34.8996 47.4971 34.8886 47.3581 34.8266 47.2478C34.7647 47.1374 34.6603 47.0509 34.5325 47.0222L23.2403 43.8505C22.9752 43.776 22.7121 43.9238 22.6377 44.1888L21.0853 49.7157C21.0109 49.9807 21.1586 50.2439 21.4237 50.3183L26.5794 51.7664C27.3794 51.9983 28.1326 52.3457 28.8184 52.8314L32.0888 55.1371C32.2197 55.231 32.3862 55.2492 32.5363 55.1984L32.6042 55.1603ZM33.7996 47.8244L32.0797 53.9477L29.3774 52.0376C28.6015 51.4907 27.7497 51.0871 26.8485 50.8339L22.1566 49.5161L23.4484 44.917L33.7996 47.8244Z" fill="black"/>
<path d="M30.8246 45.4087L30.1582 47.7811C30.0577 48.139 30.2674 48.5125 30.6253 48.613L37.0401 50.4148C37.3979 50.5153 37.7714 50.3056 37.8719 49.9477L38.5383 47.5753C38.5864 47.4031 38.5642 47.2188 38.4767 47.0629C38.3891 46.9069 38.2433 46.7921 38.0712 46.7435L31.6564 44.9417C31.2986 44.8412 30.9251 45.0509 30.8246 45.4087Z" fill="#494949"/>
<path d="M37.7811 50.7803C38.0527 50.6278 38.2502 50.3829 38.3273 50.0829L38.9937 47.7104C39.0841 47.4141 39.043 47.1023 38.8905 46.8306C38.738 46.559 38.4931 46.3616 38.1931 46.2844L31.7782 44.4827C31.1686 44.3114 30.5235 44.6736 30.3522 45.2833L29.6859 47.6557C29.5146 48.2654 29.8768 48.9105 30.4912 49.0902L36.9061 50.892C37.2061 50.9691 37.518 50.928 37.7811 50.7803ZM31.3835 45.4299C31.4259 45.4061 31.4779 45.3993 31.5309 45.4141L37.9457 47.2159C38.012 47.2345 38.0491 47.2807 38.0634 47.3061C38.0777 47.3316 38.0978 47.3873 38.0744 47.4451L37.408 49.8175C37.3708 49.95 37.3114 49.9834 37.1789 49.9462L30.764 48.1444C30.6665 48.1099 30.6093 48.008 30.6354 47.9152L31.3017 45.5428C31.3057 45.519 31.3152 45.4964 31.3294 45.4768C31.3435 45.4572 31.3621 45.4412 31.3835 45.4299Z" fill="black"/>
<path opacity="0.1" d="M16.3654 44.4505C16.7734 44.7796 17.2303 45.0366 17.7387 45.1866C19.1892 45.6225 20.8091 45.048 22.2362 45.5418C23.8838 46.0903 25.006 47.9499 26.7441 48.0234C28.0321 48.0706 29.4291 47.1188 30.5092 47.8297C31.1256 48.2316 31.3524 49.0532 31.8955 49.5632C32.4434 50.0817 33.2467 50.2001 33.9777 50.4483C36.2684 51.2276 37.8361 53.5626 38.0956 55.9734C38.3588 58.371 37.4696 60.8238 36.0421 62.7751C34.9916 64.2246 33.6516 65.4569 32.6551 66.943C31.9516 67.9966 31.423 69.2423 31.3785 70.4953C36.0664 67.5508 39.7697 63.0714 41.6951 57.871L47.746 59.8994L49.1128 70.586L48.6233 70.6487C47.7785 70.7546 47.175 71.5288 47.2941 72.3774C47.3915 73.2269 48.1743 73.8257 49.0191 73.7198L51.9873 73.3595C52.8189 73.2499 53.4139 72.4804 53.308 71.6356L52.8444 67.9663C52.7142 66.9788 53.0814 66.0024 53.8121 65.3354L53.8413 65.3078C54.5683 64.654 54.9307 63.6691 54.8091 62.6768L54.7495 62.2526L57.345 63.1174L71.8099 72.7356C72.0626 72.9043 72.3516 73.0108 72.6534 73.0462C72.9552 73.0817 73.2611 73.0452 73.546 72.9397C73.8309 72.8342 74.0868 72.6627 74.2927 72.4392C74.4986 72.2157 74.6486 71.9467 74.7304 71.6541L77.1985 62.8668C77.4889 61.833 76.8572 60.7476 75.8075 60.4885L59.251 56.3315L57.869 53.8699C57.6259 53.437 57.1999 53.0957 56.7095 52.958L38.459 47.8319L38.5298 47.5801C38.554 47.4957 38.5612 47.4073 38.5511 47.3201C38.5409 47.2328 38.5135 47.1485 38.4705 47.0719C38.4275 46.9953 38.3698 46.928 38.3006 46.8739C38.2314 46.8198 38.1522 46.78 38.0675 46.7567L31.6659 44.9587C31.3081 44.8582 30.9431 45.0631 30.8426 45.421L30.5671 46.4017L19.2749 43.23C18.705 43.07 18.0871 43.1824 17.599 43.5458L16.3654 44.4505Z" fill="white"/>
<path opacity="0.1" d="M34.3204 45.69C35.1298 46.7538 36.0421 47.7822 36.9343 48.7549C38.6646 50.6637 40.6033 52.6453 43.1297 53.0689C44.4573 53.306 45.9114 53.0924 47.0764 53.7557C48.5743 54.6339 49.0573 56.7072 50.5758 57.5627C51.5436 58.1133 52.7564 58.0465 53.7917 58.4588C55.8177 59.2638 56.7305 61.6651 58.5335 62.9079C59.8176 63.7834 61.4724 64.0265 62.6833 65.0101C63.5184 65.7022 64.0135 66.6635 64.2337 67.712L71.8194 72.7525C72.0721 72.9213 72.3612 73.0277 72.6629 73.0632C72.9647 73.0987 73.2706 73.0622 73.5555 72.9567C73.8405 72.8511 74.0963 72.6796 74.3022 72.4562C74.5081 72.2327 74.6581 71.9636 74.74 71.671L77.2081 62.8838C77.4889 61.833 76.8572 60.7476 75.8075 60.4885L59.251 56.3315L57.869 53.8699C57.6259 53.437 57.1999 53.0957 56.7095 52.958L38.459 47.8319L38.5298 47.5801C38.554 47.4957 38.5612 47.4073 38.5511 47.3201C38.5409 47.2328 38.5135 47.1485 38.4705 47.0719C38.4275 46.9953 38.3698 46.928 38.3006 46.8739C38.2314 46.8198 38.1522 46.78 38.0675 46.7567L34.3204 45.69Z" fill="white"/>
<path d="M34.6479 55.2226C33.6048 54.1696 32.0556 53.7616 30.3447 54.0115C28.6341 54.2613 26.796 55.1678 25.2557 56.6932C23.7153 58.2189 22.7907 60.0487 22.5244 61.757C22.2582 63.4653 22.6513 65.0184 23.6942 66.0716C24.7373 67.1247 26.2871 67.5333 27.998 67.2834C29.7087 67.0336 31.5468 66.1259 33.0871 64.6003C34.6272 63.0748 35.552 61.246 35.8184 59.5379C36.0846 57.8295 35.691 56.2758 34.6479 55.2226Z" fill="#F2BA60" stroke="black" stroke-width="0.933333"/>
<path d="M29.6687 60.9525L33.2643 64.0927M28.1231 64.0927L30.5002 66.1657M32.953 59.4069L35.4063 61.2595" stroke="black" stroke-width="0.933333" stroke-linecap="round" stroke-linejoin="round"/>
<path d="M78.2013 79.868C73.9237 73.8976 64.4288 72.0941 59.73 71.9386C52.9248 71.7134 51.1749 75.297 51.9526 79.4016C52.7304 83.5063 56.4894 89.1968 58.2717 91.529L73.8265 92.4619C77.0671 90.7516 82.4788 85.8384 78.2013 79.868Z" fill="#E09038" stroke="black" stroke-width="0.933333"/>
<circle cx="8.56195" cy="8.56195" r="8.09529" transform="matrix(-0.952748 -0.303763 -0.303763 0.952748 63.9645 69.6635)" fill="#F2BA60" stroke="black" stroke-width="0.933333"/>
</g>
<defs>
<clipPath id="clip0_2306_17375">
<rect width="84" height="84" fill="white" transform="translate(0.00457764 0.927734)"/>
</clipPath>
</defs>
</svg>
