<svg width="84" height="84" viewBox="0 0 84 84" fill="none" xmlns="http://www.w3.org/2000/svg">
<g clip-path="url(#clip0_305_12)">
<path d="M28.525 5.76246C31.5439 4.32336 35.0621 4.06975 38.4061 4.02317C41.6715 3.97769 44.9692 4.51778 48.0983 5.45211C50.1733 6.07168 52.1902 6.98334 53.9926 8.18361C56.5408 9.88049 59.0455 11.853 60.7686 14.3835C63.0462 17.7285 63.7882 21.8962 65.1116 25.7205C66.362 29.3337 67.8544 32.9094 68.5068 36.6768C69.3781 41.7076 69.2198 46.8747 69.1571 51.98C69.1251 54.5825 69.2863 57.251 68.6339 59.7706C67.7522 63.1754 66.3816 66.6061 64.1426 69.3184C61.6324 72.3592 57.9586 74.2467 54.5864 76.2901C51.0157 78.4537 47.42 80.8726 43.3592 81.8427C41.3313 82.3271 39.1543 82.2857 37.1048 81.9032C35.2339 81.554 33.4649 80.714 31.7999 79.7922C30.1338 78.8697 28.4543 77.8405 27.1923 76.4144C24.8666 73.7862 23.8592 70.2344 22.0472 67.2291C20.5013 64.665 18.5816 62.3274 17.1659 59.6892C16.7618 58.9363 16.3618 58.1646 16.1429 57.3387C15.8594 56.2692 15.9812 55.1278 15.7861 54.0389C15.2869 51.2535 14.2438 48.5863 13.7108 45.8072C13.5157 44.7903 13.4435 43.7535 13.3016 42.7278C13.0099 40.618 12.4387 38.5326 12.3928 36.4032C12.3018 32.1728 12.3037 27.7815 13.6559 23.772C15.0206 19.7255 17.6006 16.1137 20.3619 12.8561C22.6929 10.1063 25.2709 7.31364 28.525 5.76246Z" fill="url(#paint0_linear_305_12)" stroke="black" stroke-width="0.201316"/>
<path d="M18.627 27.7638C18.627 27.7638 22.1345 26.9338 23.922 26.7459C25.388 26.5919 26.9086 26.998 28.3434 26.6597C29.7335 26.3319 30.8688 25.3024 32.2133 24.8208C32.5677 24.6938 33.3089 24.5476 33.3089 24.5476" stroke="black" stroke-width="0.201316"/>
<path d="M31.4855 27.7403C34.1444 26.0581 36.9992 25.3415 39.9168 24.9338" stroke="black" stroke-width="0.201316"/>
<path d="M19.6132 29.8869L22.4898 29.3281" stroke="black" stroke-width="0.201316"/>
<path d="M34.5767 42.6602C35.4268 44.06 36.4846 45.302 38.2099 46.0361" stroke="black" stroke-width="0.201316"/>
<path d="M36.8331 43.1458C37.8089 45.4172 39.7487 46.7431 41.7228 48.0184" stroke="black" stroke-width="0.201316"/>
<path d="M39.337 43.4396C40.9749 45.4448 42.5085 45.4295 43.9251 43.1462" stroke="black" stroke-width="0.201316"/>
<path d="M35.9927 41.813C35.9927 41.813 37.523 42.1013 38.298 42.1529C38.9821 42.1985 39.6848 42.2714 40.3547 42.1253C40.9378 41.9982 41.9923 41.4019 41.9923 41.4019" stroke="black" stroke-width="0.201316"/>
<path d="M24.351 45.1484C24.0172 48.1088 18.9941 58.0215 17.6008 45.6905C19.6946 46.9011 22.0582 45.7102 24.351 45.1484Z" fill="url(#paint1_linear_305_12)"/>
<path d="M35.5696 48.7444C38.7064 53.4152 43.3737 57.6667 43.2645 63.227" stroke="black" stroke-width="0.201316"/>
<path d="M25.4758 51.5469C24.6046 57.6413 26.1089 63.4942 27.386 69.3702" stroke="black" stroke-width="0.201316"/>
<path d="M55.4807 47.1386C55.4807 47.1386 53.2384 46.9942 52.3618 47.5713C51.4726 48.1568 51.0025 49.2807 50.7084 50.3039C50.372 51.474 50.5142 52.7461 50.651 53.956C50.7122 54.4968 51.0407 55.5418 51.0407 55.5418L52.6361 55.4701C52.6361 55.4701 52.9366 53.2978 53.3471 52.2933C53.788 51.2145 54.7992 50.4205 55.1919 49.3231C55.4393 48.6315 55.4807 47.1386 55.4807 47.1386Z" fill="url(#paint2_linear_305_12)"/>
<path d="M25.7456 40.0377L26.6869 41.5629C26.6869 41.5629 26.8504 43.6511 26.7958 44.6939C26.7246 46.0539 26.4676 47.3991 26.2282 48.7397C26.0034 49.9988 25.5627 51.2191 25.4134 52.4894C25.2896 53.5426 25.2653 54.6131 25.3498 55.6701C25.3994 56.2903 25.3851 56.9605 25.683 57.5067C26.0268 58.137 26.6383 58.6123 27.2564 58.9775C27.5357 59.1424 28.1814 59.2794 28.1814 59.2794L28.3824 58.413C28.3824 58.413 27.0295 57.5285 26.7546 56.8211C26.6138 56.4588 26.5763 55.9605 26.8189 55.6569C27.0524 55.3645 27.528 55.2956 27.8983 55.349C28.6218 55.4533 29.3032 55.9442 29.7512 56.5218C30.0061 56.8505 30.1353 57.7091 30.1353 57.7091L31.06 57.8025C31.06 57.8025 31.104 57.3204 31.1319 57.0799C31.1828 56.6409 31.1941 56.193 31.3057 55.7653C31.4351 55.2695 31.5771 54.7545 31.8745 54.3373C32.2081 53.8693 32.6538 53.4415 33.1805 53.2117C33.6377 53.0123 34.189 52.905 34.6676 53.0455C35.1103 53.1755 35.4629 53.551 35.7418 53.9186C36.1461 54.4514 36.3728 55.1116 36.5415 55.7588C36.6299 56.0979 36.6463 56.8049 36.6463 56.8049C36.6463 56.8049 37.3132 56.5855 37.5496 56.3438C37.8009 56.0869 37.9413 55.7239 38.0185 55.3728C38.135 54.8432 38.0714 54.2825 37.9909 53.7461C37.8604 52.8767 37.5667 52.0358 37.26 51.2118C36.8865 50.2089 36.4449 49.2264 35.9155 48.2964C35.4234 47.4321 34.7503 46.6824 34.2233 45.8389C33.4852 44.6576 32.8834 43.3958 32.169 42.2C31.7913 41.5676 30.9894 40.3312 30.9894 40.3312L31.3119 38.8369" stroke="black" stroke-width="0.201316"/>
<path d="M28.1157 58.2216C27.7105 58.1038 27.391 57.7576 27.1328 57.4238C26.9036 57.1276 26.6679 56.776 26.6665 56.4015C26.6651 56.0375 26.8091 55.6064 27.112 55.4047C27.4227 55.1978 27.8723 55.276 28.2315 55.3773C28.6925 55.5074 29.0989 55.8196 29.4378 56.1582C29.702 56.4221 30.0367 56.7247 30.0475 57.0979C30.0581 57.467 29.8069 57.8566 29.4989 58.0603C29.1117 58.3164 28.5614 58.3511 28.1157 58.2216Z" fill="black" stroke="black" stroke-width="0.201316"/>
<path d="M31.9632 54.1558C32.2587 53.8014 32.6342 53.4968 33.052 53.3008C33.4954 53.0927 34.0142 52.8701 34.4886 52.9919C35.1219 53.1545 35.612 53.7304 35.9705 54.2772C36.3902 54.9173 36.8103 55.7176 36.6588 56.4678C36.6076 56.7212 36.3753 56.9204 36.1575 57.0596C35.5247 57.4641 34.727 57.5392 33.9856 57.6596C33.1233 57.7995 32.13 58.2247 31.3684 57.7968C31.2251 57.7163 31.1677 57.5237 31.1343 57.3628C31.0431 56.9241 31.1686 56.4643 31.2482 56.0233C31.3151 55.6532 31.4127 55.286 31.5518 54.9365C31.6605 54.6631 31.7748 54.3817 31.9632 54.1558Z" fill="black" stroke="black" stroke-width="0.201316"/>
<path d="M29.1045 69.9775C29.1045 69.9775 29.4829 68.6579 29.8307 68.0749C30.2845 67.3141 30.8843 66.6281 31.5651 66.0614C32.3022 65.4479 33.1275 64.8747 34.0495 64.6106C34.9072 64.3649 35.835 64.5934 36.7251 64.5321C38.0711 64.4395 39.4303 64.3804 40.7491 64.0953C41.376 63.9598 42.5772 63.4941 42.5772 63.4941L42.3173 64.5923C42.3173 64.5923 41.925 65.5193 41.5597 65.8411C41.0731 66.2699 40.4072 66.4591 39.7823 66.633C39.2311 66.7863 38.6483 66.7877 38.0789 66.8446C37.2648 66.9259 36.4271 66.8395 35.6313 67.03C34.901 67.2046 34.2525 67.6261 33.5511 67.8942C32.9863 68.1101 32.4349 68.3919 31.8387 68.4931C31.5841 68.5364 31.3086 68.4109 31.0638 68.4931C30.2871 68.7541 29.1045 69.9775 29.1045 69.9775Z" fill="#030303" stroke="black" stroke-width="0.201316"/>
<g filter="url(#filter0_f_305_12)">
<path d="M15.0476 38.7927C15.0476 38.7927 14.159 36.7905 13.9864 35.721C13.8045 34.5946 13.9938 33.4387 14.0293 32.2982C14.076 30.7931 13.8718 29.2429 14.2533 27.7862C14.5492 26.6565 15.047 25.5291 15.817 24.6512C16.3292 24.0672 17.0126 23.5958 17.7488 23.3481C19.0984 22.8939 20.5938 23.0083 22.0141 23.1101C23.6833 23.2299 25.2768 24.3233 26.9356 24.1022C28.4864 23.8955 29.8146 22.8442 31.1332 22.0021C32.4432 21.1655 33.3676 19.745 34.7801 19.0962C36.6671 18.2295 38.8274 17.7944 40.8995 17.9297C42.184 18.0136 43.446 18.5067 44.5666 19.1399C45.5193 19.6782 46.5124 20.33 47.0563 21.2795C47.8308 22.6315 47.4294 24.3905 47.8907 25.8788C48.2782 27.1288 48.6337 28.478 49.4978 29.4609C50.2622 30.3303 51.4966 30.6324 52.4584 31.2767C53.6836 32.0975 55.1302 32.7178 56.0325 33.8843C56.9778 35.1063 57.1912 36.749 57.7355 38.1949C57.9635 38.8004 58.23 39.3953 58.39 40.0222C58.8311 41.7512 59.084 43.5314 59.2202 45.3106C59.2751 46.029 59.2137 47.4722 59.2137 47.4722C59.2137 47.4722 60.4925 46.285 60.9339 45.546C61.408 44.752 61.6283 43.8278 61.8794 42.9379C62.138 42.0214 61.9997 40.9766 62.4533 40.1392C63.0938 38.9568 64.1388 37.9426 65.3209 37.3016C66.1617 36.8456 68.1252 36.693 68.1252 36.693L69.0824 36.6371L68.8139 33.7357L68.4256 29.3246L67.695 24.6869C67.695 24.6869 66.835 20.5931 66.2061 18.6019C65.632 16.7845 65.057 14.9393 64.1283 13.2748C63.3016 11.7932 62.1715 10.4958 61.0639 9.21047C59.5744 7.48179 58.1485 5.61773 56.2671 4.32651C54.2338 2.93103 51.877 1.95722 49.4777 1.38726C46.6723 0.720861 43.7252 0.914151 40.842 0.88674C38.835 0.867661 36.806 0.796284 34.8253 1.1208C31.6619 1.63909 28.5879 2.67458 25.599 3.83304C24.2218 4.3668 22.8161 4.91362 21.6161 5.77469C19.8712 7.0267 18.386 8.64665 17.087 10.3568C15.946 11.8589 15.0851 13.5642 14.2769 15.2686C13.0851 17.7819 11.8187 20.3298 11.2913 23.0609C10.8783 25.1997 11.1693 27.4168 11.1894 29.595C11.2104 31.8867 11.0815 34.2002 11.4229 36.4664C11.7936 38.9266 13.3787 43.6696 13.3787 43.6696C13.2769 41.8024 13.9036 40.2026 15.0476 38.7927Z" fill="#444444"/>
<path d="M15.0476 38.7927C15.0476 38.7927 14.159 36.7905 13.9864 35.721C13.8045 34.5946 13.9938 33.4387 14.0293 32.2982C14.076 30.7931 13.8718 29.2429 14.2533 27.7862C14.5492 26.6565 15.047 25.5291 15.817 24.6512C16.3292 24.0672 17.0126 23.5958 17.7488 23.3481C19.0984 22.8939 20.5938 23.0083 22.0141 23.1101C23.6833 23.2299 25.2768 24.3233 26.9356 24.1022C28.4864 23.8955 29.8146 22.8442 31.1332 22.0021C32.4432 21.1655 33.3676 19.745 34.7801 19.0962C36.6671 18.2295 38.8274 17.7944 40.8995 17.9297C42.184 18.0136 43.446 18.5067 44.5666 19.1399C45.5193 19.6782 46.5124 20.33 47.0563 21.2795C47.8308 22.6315 47.4294 24.3905 47.8907 25.8788C48.2782 27.1288 48.6337 28.478 49.4978 29.4609C50.2622 30.3303 51.4966 30.6324 52.4584 31.2767C53.6836 32.0975 55.1302 32.7178 56.0325 33.8843C56.9778 35.1063 57.1912 36.749 57.7355 38.1949C57.9635 38.8004 58.23 39.3953 58.39 40.0222C58.8311 41.7512 59.084 43.5314 59.2202 45.3106C59.2751 46.029 59.2137 47.4722 59.2137 47.4722C59.2137 47.4722 60.4925 46.285 60.9339 45.546C61.408 44.752 61.6283 43.8278 61.8794 42.9379C62.138 42.0214 61.9997 40.9766 62.4533 40.1392C63.0938 38.9568 64.1388 37.9426 65.3209 37.3016C66.1617 36.8456 68.1252 36.693 68.1252 36.693L69.0824 36.6371L68.8139 33.7357L68.4256 29.3246L67.695 24.6869C67.695 24.6869 66.835 20.5931 66.2061 18.6019C65.632 16.7845 65.057 14.9393 64.1283 13.2748C63.3016 11.7932 62.1715 10.4958 61.0639 9.21047C59.5744 7.48179 58.1485 5.61773 56.2671 4.32651C54.2338 2.93103 51.877 1.95722 49.4777 1.38726C46.6723 0.720861 43.7252 0.914151 40.842 0.88674C38.835 0.867661 36.806 0.796284 34.8253 1.1208C31.6619 1.63909 28.5879 2.67458 25.599 3.83304C24.2218 4.3668 22.8161 4.91362 21.6161 5.77469C19.8712 7.0267 18.386 8.64665 17.087 10.3568C15.946 11.8589 15.0851 13.5642 14.2769 15.2686C13.0851 17.7819 11.8187 20.3298 11.2913 23.0609C10.8783 25.1997 11.1693 27.4168 11.1894 29.595C11.2104 31.8867 11.0815 34.2002 11.4229 36.4664C11.7936 38.9266 13.3787 43.6696 13.3787 43.6696C13.2769 41.8024 13.9036 40.2026 15.0476 38.7927Z" stroke="black" stroke-width="0.201316"/>
</g>
<path d="M61.7142 46.4193C61.7142 46.4193 60.8538 44.7062 60.8983 43.7894C60.9715 42.2787 61.7727 40.8341 62.6557 39.6062C63.373 38.6089 64.3149 37.703 65.4225 37.1718C66.1505 36.8227 67.0017 36.7245 67.8084 36.7557C68.5661 36.7849 69.3686 36.9178 70.0126 37.318C70.7908 37.8016 71.4478 38.5598 71.8012 39.4051C72.3119 40.6267 72.2519 42.0449 72.1322 43.3635C71.9777 45.0662 71.1831 46.6499 70.7919 48.3142C70.4128 49.9266 69.8174 53.1869 69.8174 53.1869C69.8174 53.1869 69.8285 54.2921 69.5773 54.7588C69.264 55.3409 68.6951 55.7888 68.1057 56.0882C67.6985 56.295 67.2201 56.3378 66.7643 56.3674C65.9646 56.4192 64.3671 56.1853 64.3671 56.1853C64.3671 56.1853 64.0365 54.9276 63.9594 54.2841C63.7949 52.9099 63.9512 51.5137 63.8471 50.1337C63.7948 49.4412 63.9151 48.6799 63.5901 48.0662C63.2008 47.3308 61.7142 46.4193 61.7142 46.4193Z" fill="url(#paint3_linear_305_12)" stroke="black" stroke-width="0.201316"/>
<path d="M65.9414 41.8105C65.7824 42.0144 65.7488 42.361 65.5073 42.4533C65.2654 42.5458 64.9213 42.4612 64.7539 42.2637C64.5787 42.0569 64.6874 41.4534 64.6874 41.4534C64.6874 41.4534 65.0898 40.9437 65.3071 40.7028C65.5906 40.3885 65.8905 40.0887 66.1982 39.798C66.5124 39.5013 66.8059 39.1716 67.1723 38.9424C67.4894 38.744 67.8357 38.552 68.2073 38.5082C68.554 38.4673 68.9292 38.5199 69.2408 38.6774C69.7229 38.921 70.1057 39.3567 70.4003 39.8095C70.6498 40.1931 70.8134 40.6433 70.879 41.0962C70.9771 41.774 70.8075 42.4645 70.7379 43.1458C70.6434 44.0726 70.513 44.9959 70.3629 45.9153C70.2872 46.3789 70.1898 46.8387 70.0979 47.2993C69.9791 47.8949 69.9528 48.5193 69.7275 49.0833C69.4544 49.7672 69.0465 50.4054 68.5627 50.9605C68.2258 51.347 67.8488 51.7376 67.3788 51.9424C66.8873 52.1565 65.7839 52.1497 65.7839 52.1497L66.8158 51.6824C66.8158 51.6824 67.5717 51.2819 67.8621 50.9779C68.2389 50.5836 68.4942 50.08 68.7133 49.5806C69.1012 48.6963 69.3295 47.7442 69.5132 46.7962C69.6279 46.2039 69.6836 45.5991 69.6993 44.996C69.7115 44.5252 69.7442 44.0412 69.6272 43.585C69.4438 42.8707 69.0895 42.195 68.662 41.5941C68.4901 41.3525 68.2877 41.1172 68.0332 40.9652C67.8357 40.8472 67.6012 40.7464 67.372 40.7671C67.0327 40.7977 66.7315 41.0233 66.4614 41.2308C66.2556 41.389 66.1011 41.6059 65.9414 41.8105Z" fill="#944826"/>
<path d="M64.734 43.064C65.0217 43.1323 65.3516 43.0646 65.609 43.2102C65.9225 43.3876 66.1714 43.7 66.3106 44.0323C66.4912 44.4636 66.2489 44.9997 66.4321 45.43C66.5241 45.6462 66.697 45.8357 66.8959 45.9608C67.1129 46.0973 67.4686 45.9729 67.6371 46.1661C67.8902 46.4563 67.812 46.9265 67.7911 47.311C67.7663 47.7683 67.6183 48.2146 67.4613 48.6449C67.3397 48.9779 67.2306 49.3373 66.9915 49.599C66.6892 49.9299 66.2282 50.0692 65.8436 50.2993C65.5715 50.4621 65.327 50.6903 65.0231 50.7807C64.8167 50.8421 64.5559 50.9325 64.3779 50.8113C64.2623 50.7325 64.1932 50.5446 64.243 50.4138C64.3305 50.1841 64.6698 50.1698 64.8846 50.0503C65.1303 49.9135 65.399 49.8134 65.6247 49.6458C65.8744 49.4604 66.1735 49.28 66.2897 48.9917C66.4727 48.5375 66.3798 47.9953 66.2494 47.5234C66.2067 47.3685 66.1285 47.2152 66.0135 47.103C65.7967 46.8916 65.4977 46.7738 65.2103 46.6785C64.9116 46.5794 64.5426 46.7031 64.2774 46.5337C63.9672 46.3355 63.8551 45.9299 63.665 45.6147C63.4869 45.3193 63.323 45.015 63.1712 44.7051C63.0406 44.4386 62.8281 44.1862 62.8131 43.8897C62.8013 43.6547 62.8755 43.3952 63.0303 43.2179C63.1741 43.053 63.4107 42.991 63.6217 42.9334C63.797 42.8855 63.9841 42.8676 64.1647 42.8872C64.3623 42.9086 64.5407 43.0181 64.734 43.064Z" fill="#944826"/>
<path d="M64.5088 43.6929C64.3042 43.8179 64.3177 44.1538 64.3413 44.3923C64.3741 44.7236 64.5671 45.0276 64.7599 45.2989C64.8828 45.472 65.0165 45.8079 65.2181 45.7413C65.4186 45.6749 65.3186 45.3273 65.3218 45.1161C65.3254 44.8505 65.2892 44.5814 65.2146 44.3265C65.1608 44.1428 65.1208 43.9271 64.9729 43.8057C64.8498 43.7047 64.6446 43.6098 64.5088 43.6929Z" fill="#010101" stroke="black" stroke-width="0.201316"/>
<path d="M34.6554 41.4415C34.6554 41.4415 34.9065 40.4029 35.2168 39.9855C35.4335 39.6939 35.7543 39.4832 36.0773 39.317C36.4136 39.144 36.7917 39.0563 37.1645 38.9926C37.6771 38.9049 38.2033 38.8937 38.7228 38.9165C39.2924 38.9415 39.8573 39.0428 40.4174 39.1495C40.9621 39.2532 41.4963 39.4067 42.0334 39.5444C42.7115 39.7183 44.0616 40.0891 44.0616 40.0891C44.0616 40.0891 42.9987 40.2349 42.4662 40.3004C42.1895 40.3344 41.8978 40.3018 41.635 40.3946C41.3419 40.4984 41.129 40.7619 40.8486 40.8964C40.3988 41.1121 39.9277 41.3286 39.4311 41.3764C38.8859 41.429 38.3445 41.2365 37.8027 41.1561C37.3213 41.0846 36.848 40.9191 36.3613 40.923C36.1039 40.9251 35.8483 40.9871 35.601 41.0584C35.2742 41.1525 34.6554 41.4415 34.6554 41.4415Z" fill="#A6A6A6" stroke="black" stroke-width="0.201316"/>
<path d="M24.9328 43.7055C24.9328 43.7055 24.2063 42.8154 23.7595 42.4615C23.4151 42.1887 23.0509 41.8816 22.6191 41.8007C22.169 41.7163 21.6969 41.8697 21.2618 42.0121C20.677 42.2036 20.1512 42.5463 19.6229 42.8617C19.0663 43.194 18.4609 43.4855 18.0158 43.9567C17.772 44.2147 17.6162 44.5471 17.4672 44.8691C17.2286 45.3847 16.9222 46.4841 16.9222 46.4841C16.9222 46.4841 17.3777 45.8997 17.6758 45.6886C17.9632 45.4851 18.2993 45.3447 18.6408 45.2581C19.1017 45.1413 19.5875 45.1527 20.063 45.1483C20.3369 45.1454 20.6126 45.2374 20.8834 45.1963C21.2091 45.1468 21.4997 44.9634 21.8082 44.848C22.2228 44.6931 22.6343 44.5294 23.053 44.3862C23.3945 44.2694 23.7474 44.1864 24.0863 44.0622C24.3738 43.9569 24.9328 43.7055 24.9328 43.7055Z" fill="#A6A6A6" stroke="black" stroke-width="0.201316"/>
<path d="M20.5933 42.3054C20.5933 42.3054 20.3403 42.6542 20.3167 42.8592C20.2951 43.0461 20.3683 43.2376 20.4473 43.4085C20.5681 43.67 20.7291 43.9309 20.9582 44.1055C21.1136 44.2238 21.3137 44.2791 21.5058 44.3141C21.7664 44.3615 22.0471 44.3887 22.3003 44.3112C22.5687 44.2291 22.7847 44.023 22.9997 43.8426C23.1797 43.6916 23.3917 43.5486 23.4878 43.3343C23.6216 43.0359 23.5641 42.3562 23.5641 42.3562C22.9085 41.7353 21.9298 41.6975 20.5933 42.3054Z" fill="black" stroke="black" stroke-width="0.201316"/>
<path d="M38.4401 38.9314C38.4401 38.9314 38.2297 39.2553 38.2375 39.4366C38.2489 39.701 38.4303 39.9385 38.5952 40.1455C38.7719 40.3672 38.993 40.5682 39.2497 40.6885C39.4473 40.7811 39.6751 40.8149 39.8931 40.8081C40.1943 40.7989 40.511 40.7425 40.77 40.5884C40.9869 40.4594 41.1967 40.2682 41.2821 40.0307C41.3565 39.8238 41.2476 39.3719 41.2476 39.3719C40.3306 39.1346 39.4023 38.9519 38.4401 38.9314Z" fill="black" stroke="black" stroke-width="0.201316"/>
<path d="M32.9667 32.2901C32.7263 32.6022 32.4043 32.9666 32.458 33.3568C32.5187 33.7986 33.3385 34.3639 33.3385 34.3639C33.3385 34.3639 34.6385 33.7555 35.3018 33.4822C36.332 33.0576 37.3217 32.4136 38.4308 32.3054C39.4623 32.2048 40.5145 32.4891 41.4977 32.817C42.6714 33.2084 44.7926 34.5259 44.7926 34.5259L44.3697 32.4398L45.839 32.4211C45.839 32.4211 45.5141 31.6499 45.2348 31.3498C44.6099 30.6784 43.7895 30.1783 42.9412 29.8296C41.9027 29.4028 40.7592 29.1875 39.6365 29.1785C38.5286 29.1697 37.3955 29.3604 36.3656 29.7688C35.6917 30.036 35.1237 30.5213 34.5421 30.9542C33.9898 31.3653 33.3868 31.7446 32.9667 32.2901Z" fill="#565656"/>
<path d="M24.1675 35.1988L23.2074 36.9015C23.2074 36.9015 22.3205 36.3506 21.8367 36.1628C21.3172 35.9613 20.7724 35.7614 20.2152 35.756C19.3023 35.7472 18.3674 35.972 17.5463 36.3711C16.3349 36.9598 14.3999 38.9062 14.3999 38.9062C14.3999 38.9062 14.3799 38.5222 14.432 38.3408C14.57 37.8602 14.8421 37.4167 15.1545 37.0264C15.3931 36.7284 15.7136 36.5051 16.0131 36.2684C16.5789 35.8214 17.1229 35.3164 17.7811 35.0219C18.4891 34.7052 19.2753 34.5623 20.0482 34.4976C20.6939 34.4436 21.349 34.5109 21.9886 34.6148C22.7308 34.7354 24.1675 35.1988 24.1675 35.1988Z" fill="#565656"/>
<path d="M32.104 60.2791C31.9429 59.8063 31.7615 59.3342 31.6833 58.8409C31.5589 58.057 31.5586 57.2529 31.6117 56.461C31.6379 56.0699 31.6634 55.6669 31.8037 55.301C31.9264 54.9812 32.1214 54.6838 32.3568 54.435C32.6121 54.1652 32.9352 53.962 33.2612 53.7842C33.4977 53.6553 33.746 53.5224 34.0132 53.4887C34.214 53.4633 34.434 53.4745 34.6158 53.5634C34.8953 53.7003 35.0845 53.9785 35.275 54.2246C35.5106 54.5291 35.7273 54.8586 35.862 55.2193C35.9966 55.5799 36.016 55.974 36.0701 56.3551C36.1392 56.841 36.1194 57.3393 36.2187 57.8199C36.2497 57.9701 36.3575 58.2586 36.3575 58.2586C36.3575 58.2586 36.7362 58.3405 36.8788 58.4604C37.0859 58.6347 37.2081 58.9006 37.2973 59.1562C37.4401 59.5654 37.4657 60.4456 37.4657 60.4456L38.0488 59.9505L38.9325 59.0109L39.4282 58.5498L44.0394 58.5839L45.9674 56.5596L48.6272 56.3265C48.6272 56.3265 49.3485 56.91 49.7384 57.1597C50.132 57.4119 50.5402 57.6477 50.9719 57.8271C51.7019 58.1306 52.4588 58.4116 53.2433 58.5099C54.1958 58.6292 55.1628 58.3228 56.1206 58.3869C56.4879 58.4115 57.2079 58.5808 57.2079 58.5808C57.2079 58.5808 57.7866 59.8891 58.0389 60.558C58.3515 61.3868 58.7517 62.2016 58.8833 63.0776C59.0425 64.1371 58.8732 65.2216 58.8027 66.2907C58.7345 67.3263 58.5266 68.3501 58.4715 69.3865C58.4438 69.9067 58.3162 70.4522 58.4718 70.9494C58.5644 71.245 58.7372 71.5515 59.0015 71.7129C59.2221 71.8476 59.5191 71.8764 59.7701 71.8148C60.5887 71.6139 61.0993 70.7654 61.8382 70.3599C62.5887 69.9481 63.4242 69.7148 64.2129 69.3817C64.9814 69.0572 65.6943 68.5636 66.5098 68.3876C67.4557 68.1835 68.4525 68.2171 69.4124 68.3396C70.3395 68.458 71.3311 68.579 72.1145 69.0889C72.6785 69.4561 73.192 70.0081 73.3952 70.6496C73.5509 71.1409 73.2816 72.1914 73.2816 72.1914C73.2816 72.1914 71.8113 72.7118 71.0661 72.9408C70.3651 73.1563 69.6349 73.2771 68.9458 73.528C67.7001 73.9816 66.475 74.5153 65.3276 75.1796C65.0142 75.3611 64.7183 75.5752 64.4444 75.8121C63.8194 76.3525 63.1967 76.9192 62.7255 77.5978C62.5182 77.8963 62.4505 78.2752 62.2536 78.5807C62.0225 78.9393 61.4317 79.5619 61.4317 79.5619C61.4317 79.5619 60.3169 79.724 59.7654 79.8369C58.8377 80.0267 57.5021 82.8301 56.5681 82.9865C55.9013 83.0982 55.2221 83.1153 54.5484 83.1723C52.2256 83.369 49.9052 83.619 47.5759 83.7115C45.1844 83.8064 42.7858 83.8543 40.3958 83.7274C38.8741 83.6466 37.1494 84.031 35.8511 83.2332C34.6711 82.5081 34.3941 78.6111 34.0222 77.2769C33.8503 76.66 34.0863 75.3568 34.0863 75.3568C34.0863 75.3568 33.3712 74.2684 33.0842 73.6857C32.8814 73.2739 32.6652 72.8553 32.5796 72.4043C32.4629 71.7896 32.6554 71.1483 32.5796 70.5272C32.5099 69.9565 32.1895 69.4274 32.1646 68.8529C32.1422 68.338 32.3149 67.8331 32.4053 67.3257C32.5055 66.7629 32.675 66.2117 32.7394 65.6438C32.8071 65.0463 32.8098 64.4418 32.793 63.8407C32.7716 63.0706 32.7706 62.2882 32.5958 61.5379C32.4936 61.0992 32.2494 60.7055 32.104 60.2791Z" fill="url(#paint4_linear_305_12)" stroke="black" stroke-width="0.201316"/>
</g>
<defs>
<filter id="filter0_f_305_12" x="10.1171" y="-0.0872271" width="59.9284" height="48.653" filterUnits="userSpaceOnUse" color-interpolation-filters="sRGB">
<feFlood flood-opacity="0" result="BackgroundImageFix"/>
<feBlend mode="normal" in="SourceGraphic" in2="BackgroundImageFix" result="shape"/>
<feGaussianBlur stdDeviation="0.42667" result="effect1_foregroundBlur_305_12"/>
</filter>
<linearGradient id="paint0_linear_305_12" x1="57.4792" y1="54.1183" x2="82.9075" y2="65.6282" gradientUnits="userSpaceOnUse">
<stop stop-color="#C5845E"/>
<stop offset="1" stop-color="#955835"/>
</linearGradient>
<linearGradient id="paint1_linear_305_12" x1="19.6873" y1="51.9378" x2="21.0495" y2="46.0524" gradientUnits="userSpaceOnUse">
<stop stop-color="#C5845E"/>
<stop offset="1" stop-color="#955835"/>
</linearGradient>
<linearGradient id="paint2_linear_305_12" x1="53.3818" y1="51.0348" x2="51.5154" y2="49.8801" gradientUnits="userSpaceOnUse">
<stop stop-color="#C5845E"/>
<stop offset="1" stop-color="#955835"/>
</linearGradient>
<linearGradient id="paint3_linear_305_12" x1="60.8015" y1="46.5626" x2="72.0748" y2="57.6338" gradientUnits="userSpaceOnUse">
<stop stop-color="#C5845E"/>
<stop offset="1" stop-color="#955835"/>
</linearGradient>
<linearGradient id="paint4_linear_305_12" x1="53.2975" y1="79.2819" x2="74.1692" y2="59.7132" gradientUnits="userSpaceOnUse">
<stop stop-color="#C5845E"/>
<stop offset="1" stop-color="#955835"/>
</linearGradient>
<clipPath id="clip0_305_12">
<rect width="84" height="84" fill="white"/>
</clipPath>
</defs>
</svg>
