<svg width="84" height="84" viewBox="0 0 84 84" fill="none" xmlns="http://www.w3.org/2000/svg">
<g clip-path="url(#clip0_305_50)">
<path d="M37.006 29.6118L45.8312 17.0229C33.3328 13.1543 20.6328 10.1914 6.76623 12.4793L-0.111694 32.3368C4.19051 33.4687 8.65138 33.9685 11.958 39.0844C11.2844 49.8085 9.18405 60.1047 11.6985 71.7884L28.9594 72.3076C29.5064 64.0412 33.8707 57.259 40.6398 51.4132L37.006 29.6118Z" fill="#DA6400" stroke="#955100" stroke-width="0.680176" stroke-linejoin="round"/>
<path d="M36.1734 39.5574C35.4999 50.2824 30.4748 60.1061 32.9891 71.7911L47.6805 72.3103C48.2275 64.0439 47.1763 51.5997 53.9454 45.7539L36.1734 39.5574Z" fill="#DA6400" stroke="#955100" stroke-width="0.680176"/>
<path d="M59.7183 34.6727C59.7183 45.2809 51.1186 53.8802 40.5109 53.8802C29.9027 53.8802 21.3035 45.2805 21.3035 34.6727C21.3035 24.0646 29.9031 15.4653 40.5109 15.4653C51.119 15.4653 59.7183 24.065 59.7183 34.6727Z" fill="#DA6400" stroke="#955100" stroke-width="0.680176"/>
<path d="M68.1123 26.2269C57.5669 29.7417 40.2635 32.1393 40.7042 44.2548C41.2233 53.2907 47.295 59.6002 52.4494 65.0297C55.9287 73.2447 62.3641 72.4725 65.6273 68.3936C73.2662 70.6108 74.7248 63.0109 73.8897 59.1613C79.0349 59.4857 82.6127 52.9636 79.8755 47.7295C83.6321 44.0278 85.0768 36.7037 79.8088 33.0754C85.1948 21.9696 73.9404 18.6897 68.1126 26.2257L68.1123 26.2269Z" fill="#DDDDDD" fill-opacity="0.66667" stroke="#4B4B4B" stroke-width="0.680176"/>
<path d="M67.7716 43.7742C67.7716 43.7742 52.8977 40.5746 48.9149 40.9601C46.0884 40.0607 40.9263 41.4111 40.9263 41.4111" stroke="#4B4B4B" stroke-width="0.680176" stroke-linejoin="round"/>
<path d="M61.3477 52.1239C61.3477 52.1239 49.0018 48.9909 47.589 46.8068C44.1201 45.0081 41.0551 41.2822 41.0551 41.2822" stroke="#4B4B4B" stroke-width="0.680176" stroke-linejoin="round"/>
<path d="M59.2071 60.0034C59.2071 60.0034 47.1427 52.7931 45.8583 50.352C42.1324 46.7547 41.3125 41.4109 41.3125 41.4109" stroke="#4B4B4B" stroke-width="0.680176" stroke-linejoin="round"/>
<path d="M71.5031 33.6453C71.5031 33.6453 53.6178 34.5172 49.635 35.9305C46.68 36.5729 41.0544 41.4105 41.0544 41.4105" stroke="#4B4B4B" stroke-width="0.680176" stroke-linejoin="round"/>
<path d="M75.3534 28.3403C70.6707 30.045 70.236 36.2908 75.6506 37.5143" stroke="#4B4B4B" stroke-width="0.680176" stroke-linecap="round" stroke-linejoin="round"/>
<path d="M72.5693 39.4551C67.6283 40.1018 65.8471 46.1042 70.8667 48.4746" stroke="#4B4B4B" stroke-width="0.680176" stroke-linecap="round" stroke-linejoin="round"/>
<path d="M66.9688 48.9365C62.0161 48.3855 58.8542 53.7894 63.1632 57.2892" stroke="#4B4B4B" stroke-width="0.680176" stroke-linecap="round" stroke-linejoin="round"/>
<path d="M64.6434 58.4466C59.8919 56.9447 55.7411 61.6321 59.2887 65.9017" stroke="#4B4B4B" stroke-width="0.680176" stroke-linecap="round" stroke-linejoin="round"/>
<path d="M68.0031 55.4531C71.3561 59.1395 68.8368 64.8714 63.4741 63.4369" stroke="#4B4B4B" stroke-width="0.680176" stroke-linecap="round" stroke-linejoin="round"/>
<path d="M76.647 34.6912C80.5317 37.8124 78.9328 43.8658 73.4125 43.2812" stroke="#4B4B4B" stroke-width="0.680176" stroke-linecap="round" stroke-linejoin="round"/>
<path d="M75.4754 45.4202C78.4656 49.4066 75.4169 54.8751 70.2135 52.941" stroke="#4B4B4B" stroke-width="0.680176" stroke-linecap="round" stroke-linejoin="round"/>
<path d="M48.6868 39.9938C48.6868 50.6019 40.0872 59.2012 29.4794 59.2012C18.8712 59.2012 10.272 50.6016 10.272 39.9938C10.272 29.3856 18.8716 20.7864 29.4794 20.7864C40.0875 20.7864 48.6868 29.386 48.6868 39.9938Z" fill="#DA6400" stroke="#955100" stroke-width="0.680176"/>
<path d="M37.006 29.6119L44.9227 18.4506C32.4244 14.5821 21.2751 10.9258 7.40849 13.2137L1.28601 31.7042C5.58821 32.8378 13.2278 34.0741 16.535 39.19C15.8615 49.9151 9.18443 60.1062 11.6989 71.7899L28.9598 72.3091C29.5068 64.0427 30.1075 54.5355 36.8765 48.6884L37.006 29.6119Z" fill="#DA6400"/>
</g>
<defs>
<clipPath id="clip0_305_50">
<rect width="84" height="84" fill="white"/>
</clipPath>
</defs>
</svg>
