<svg width="84" height="84" viewBox="0 0 84 84" fill="none" xmlns="http://www.w3.org/2000/svg">
<g clip-path="url(#clip0_1483_1527)">
<path d="M36.2933 68.1526H44.4634L47.8299 67.3725L57.1085 66.962L63.4722 62.9385L64.129 60.5983L70.5748 51.2376L75.132 41.0558L73.9824 32.7215L67.0851 22.4576L61.0499 18.4341L53.6598 17.1203L51.4018 15.9708L50.1701 13.22L44.4634 4.76255L34.4047 3.40771L25.9472 6.69217L20.8563 9.52502L15.478 14.698L12.8094 21.6775L11.8651 34.8153L9.60706 42.5338V48.569L14.3695 53.1262L26.1525 64.8681L36.2933 68.1526Z" fill="white"/>
<path d="M27 21L26 19.5V18L28 17L29.5 18L30.5 19.5L29 21H27Z" fill="#F89A9A"/>
<path d="M42 17.5L41.5 15.5L43.5 14.5L44.5 15V17L43 17.5H42Z" fill="#F89A9A"/>
<path d="M35.1379 82.9108C37.0679 79.6509 37.7771 78.5405 38.7843 77.2016C39.8359 75.8038 39.9838 75.6463 41.5635 74.2396C42.4812 73.4224 43.4895 72.5165 43.8043 72.2264L44.3766 71.6989L44.2313 70.5203C44.1513 69.8721 44.0649 69.2198 44.0391 69.0707L43.9922 68.7997L41.0256 68.8537C37.8855 68.9109 35.9759 68.8308 35.103 68.6051C34.832 68.5351 34.2778 68.3159 33.8713 68.1179C33.4648 67.92 32.4857 67.5647 31.6953 67.3284C28.3541 66.3293 26.0824 65.4105 25.0745 64.6507C24.2632 64.0398 20.2759 60.1601 14.7801 54.6331C11.7318 51.5671 9.09516 48.8845 8.92108 48.6719C8.7429 48.4537 8.60866 48.203 8.61392 48.0981C8.61906 47.9956 8.62091 47.2651 8.61804 46.4748C8.60931 44.0755 8.82883 42.8435 9.85431 39.5364C11.0165 35.7884 11.0337 35.6695 11.3304 29.3135C11.458 26.5806 11.9767 22.399 12.4503 20.2854C12.8911 18.3177 13.2527 17.4793 14.7394 14.9779C16.4833 12.0439 17.2785 11.2451 20.8154 8.87457C21.5379 8.39027 22.5725 7.7223 23.1145 7.39024C23.6564 7.05815 24.2107 6.68618 24.3462 6.56363C24.8357 6.12087 25.4102 5.95864 25.7826 6.15798C25.9008 6.22125 26.2867 6.11108 27.481 5.67302C30.3207 4.63152 31.1731 4.27081 32.0457 3.74176C33.6009 2.80002 34.0508 2.66684 35.6372 2.67784C37.1681 2.68851 39.1187 2.95186 41.4261 3.45943C44.0907 4.04555 44.7905 4.39714 45.793 5.65312C46.5654 6.62088 46.765 6.92716 47.4595 8.21204C48.162 9.51137 48.2768 9.68586 49.4455 11.2307C51.0495 13.3509 51.6485 14.3835 51.7793 15.2531C51.8307 15.5957 51.8376 15.6021 52.1549 15.6021C52.5313 15.6021 52.8355 15.742 53.4411 16.1938C54.3519 16.8733 54.9905 17.0411 57.4377 17.2437C60.4001 17.4891 62.483 18.1368 64.1616 19.3346C65.5968 20.3587 68.2849 22.9646 69.6118 24.6181C71.6835 27.1997 74.1583 31.6478 75.0802 34.4468C75.5698 35.9334 75.7191 36.8096 75.7656 38.4703C75.8631 41.9514 75.1835 44.2078 72.5803 49.0462C71.7344 50.6185 71.2499 51.4337 70.423 52.6755C69.7392 53.7024 67.0341 57.5712 65.8599 59.2014C65.0511 60.3244 64.8782 60.6526 64.5829 61.625C64.0776 63.2891 63.6848 63.6888 61.6368 64.6228C60.738 65.0326 60.5933 65.1321 59.7602 65.912C58.4999 67.092 57.7589 67.4371 56.0008 67.6625C55.6169 67.7118 53.7324 67.7856 51.8131 67.8267C48.1659 67.9046 47.4661 67.9646 47.1814 68.2232C46.9139 68.4663 46.7131 68.5466 46.1101 68.6516L45.5509 68.749L45.5908 69.7167C45.6262 70.5783 45.6548 70.7257 45.8507 71.0602L46.0709 71.4358L46.7865 71.3868L47.5022 71.3377L49.8223 72.7222C51.0983 73.4837 52.3726 74.2362 52.6541 74.3947C53.23 74.7188 53.3325 74.9161 53.003 75.0662C52.792 75.1623 52.8001 75.1685 53.264 75.2637C53.9819 75.411 54.5725 75.7075 55.3104 76.291C55.6758 76.5799 56.1377 76.9307 56.3368 77.0704C56.5358 77.2101 57.6964 78.2039 58.9157 79.2786C60.1351 80.3535 61.8256 81.8419 62.6723 82.5863C63.5191 83.3306 64.2119 83.9535 64.2119 83.9704C64.2119 83.9873 63.4773 84.0011 62.5795 84.0011H60.9472L59.5303 82.4615C57.3986 80.1452 55.3499 78.2882 52.7285 76.2964L50.9737 74.9572L48.6689 73.8922C47.4012 73.3067 46.3492 72.8424 46.3312 72.8604C46.3045 72.8871 47.1743 82.0134 47.3511 83.5628L47.4004 83.9939H46.3757H45.351L45.3 82.4132C45.2719 81.5438 45.2039 79.2714 45.1488 77.3634C45.0938 75.4553 45.0174 73.8942 44.979 73.8942C44.9406 73.8942 44.4603 74.2544 43.9115 74.6948C43.1678 75.2914 42.5986 75.8538 41.6765 76.9025C40.5696 78.1629 40.2461 78.6088 38.5924 81.1485L36.7449 83.99L35.6191 83.9909L34.4934 83.9917L35.1375 82.9037L35.1379 82.9108ZM45.0767 67.4106C46.0457 67.3369 46.1913 67.3055 46.4378 67.1175C46.5896 67.0017 46.891 66.8534 47.1075 66.7879C47.6345 66.6286 49.499 66.5141 51.6068 66.5116C53.6575 66.5091 55.8241 66.3836 56.6015 66.2222C57.5371 66.028 57.9664 65.7775 58.9235 64.8673C59.7662 64.0659 59.8505 64.0094 61.1226 63.3932C62.9017 62.5316 62.9283 62.504 63.38 61.0499C63.6936 60.0402 64.0039 59.4866 65.1337 57.9203C67.9412 54.0284 69.8202 51.259 70.6987 49.7185C71.5443 48.2356 73.1128 45.0997 73.4709 44.176C74.6563 41.1179 74.7937 37.8083 73.8536 34.9565C72.8584 31.9376 70.2047 27.2939 68.0717 24.8387C66.6942 23.2532 64.3039 21.0248 63.1515 20.2516C61.9383 19.4376 60.2782 18.8905 58.408 18.6882C57.7835 18.6206 56.7251 18.5067 56.0561 18.4351C54.462 18.2644 53.7439 18.0368 52.9086 17.4375C52.5562 17.1846 52.2188 16.9589 52.1589 16.9359C52.0971 16.9122 51.7539 17.183 51.3662 17.5614C50.5815 18.3274 50.3947 18.3841 49.9897 17.9791C49.6674 17.6568 49.7152 17.3576 50.1674 16.8671C50.569 16.4314 50.6215 16.2353 50.497 15.6358C50.3011 14.692 49.9931 14.1707 48.3064 11.9277C47.28 10.5613 47.0706 10.2345 45.9498 8.23921C45.3011 7.08473 44.3642 5.89854 43.874 5.61124C42.7491 4.95205 38.0154 4.01696 35.6777 3.99233C34.4501 3.97937 33.9978 4.10534 32.9269 4.75836C31.7546 5.47332 31.4884 5.59212 28.757 6.61933C27.3698 7.14105 26.1055 7.61855 25.9475 7.68038C25.7894 7.74224 25.5086 7.79447 25.3235 7.79646C24.9259 7.80071 24.2631 8.17815 21.9018 9.74472C19.1351 11.5803 18.177 12.361 17.2774 13.5132C16.7361 14.2063 15.2513 16.6382 14.6995 17.7356C13.9152 19.2948 13.433 21.5371 12.9424 25.9056C12.6918 28.1375 12.6669 28.4849 12.5604 31.2429C12.4009 35.3678 12.221 36.4434 11.081 40.083C10.1046 43.2006 9.97837 43.8977 9.98009 46.1636L9.9814 47.8642L10.7546 48.668C13.8903 51.9279 23.4186 61.4125 24.688 62.5382L25.1939 62.9866L25.3931 62.7874C25.6645 62.516 26.2545 62.4047 27.4209 62.4047C28.6832 62.4047 29.9254 62.5348 30.573 62.7348C31.182 62.9229 32.4614 63.6987 32.501 63.9038C32.5441 64.1278 32.2935 64.0856 30.9295 63.6393C28.8491 62.9586 28.1906 62.8692 26.6891 63.0641C26.3517 63.1079 25.9126 63.1499 25.7133 63.1574L25.351 63.1711L25.6288 63.4042C26.0373 63.7471 27.2676 64.3982 28.2057 64.768C29.1543 65.142 30.4967 65.5876 32.4753 66.1853C33.2429 66.4172 34.0927 66.7301 34.3638 66.8805C35.0034 67.2355 35.6436 67.4149 36.5709 67.4992C37.5125 67.5847 43.6257 67.521 45.0776 67.4106L45.0767 67.4106ZM39.4545 66.289C37.9222 66.1545 37.2364 65.8899 36.5785 65.1793C35.8982 64.4445 35.8944 64.1006 36.5654 63.9917C36.8506 63.9455 36.8741 63.9588 36.9884 64.2323C37.1485 64.6156 37.7903 65.1576 38.3212 65.3578C38.8565 65.5597 40.9149 65.7184 42.082 65.6478C42.687 65.6112 43.155 65.5204 43.8599 65.3029C45.1555 64.9033 45.3958 65.0201 44.7403 65.7312C44.2215 66.2941 43.9461 66.3481 41.6771 66.3315C40.6353 66.3239 39.6352 66.3048 39.4545 66.289ZM50.4427 65.6524C50.0398 65.5264 49.5453 65.2351 49.4907 65.0915C49.4381 64.9534 49.5483 64.6798 49.7108 64.545C49.828 64.4477 49.8838 64.4756 50.1515 64.7656C50.5063 65.1499 50.9096 65.2502 51.7752 65.1693C52.3096 65.1194 52.5758 65.0246 53.2078 64.659C53.5554 64.458 53.6215 64.4483 54.3236 64.4961C55.221 64.5572 55.9998 64.4061 56.6234 64.0499C56.9482 63.8644 57.1526 63.6487 57.5413 63.0812C58.145 62.1998 58.2129 62.1392 58.5601 62.1726C59.1677 62.2309 58.8707 62.8033 57.5777 64.0663C56.697 64.9266 56.4574 65.0451 55.7354 64.9776C55.27 64.9342 55.0798 64.9682 54.1054 65.269C53.4988 65.4564 52.7807 65.6456 52.5097 65.6896C51.8345 65.7992 50.8557 65.7815 50.4424 65.6523L50.4427 65.6524ZM46.8848 64.5382C46.8096 64.3978 46.8407 64.3323 47.091 64.1029C47.3465 63.8689 47.396 63.7609 47.4623 63.2922C47.5373 62.763 48.2231 60.913 48.7766 59.7475L49.0439 59.1845L48.9931 58.0642C48.9267 56.6002 48.6977 55.4628 48.3245 54.7435C48.1652 54.4355 48.0346 54.08 48.0346 53.9527C48.0346 53.6906 48.2185 53.4946 48.3993 53.5639C48.5891 53.6368 48.9151 54.1839 49.2324 54.9624C49.5877 55.8337 49.6663 56.5032 49.5999 58.0933L49.5519 59.2429L49.1725 60.0229C48.6238 61.1507 48.2296 62.2597 48.0871 63.0757C47.9439 63.8963 47.8139 64.1874 47.4565 64.4882C47.1498 64.7462 47.0028 64.759 46.8845 64.538L46.8848 64.5382ZM28.6158 61.8235C28.2815 61.7243 27.2267 60.815 26.8607 60.3105L26.563 59.9001L26.9282 60.1668C27.1408 60.3221 27.398 60.4359 27.544 60.4393C27.9468 60.4486 28.1084 60.55 28.3326 60.9342C28.5379 61.2862 28.5562 61.2968 29.0312 61.3367C29.4689 61.3736 29.5219 61.3979 29.5467 61.5738C29.562 61.6816 29.525 61.8011 29.4646 61.8394C29.327 61.9266 28.9383 61.9193 28.6158 61.8235ZM26.9457 58.9152C26.7498 58.8025 26.214 58.4212 25.7551 58.0678C25.2961 57.7147 24.5694 57.1933 24.1408 56.9092C23.2249 56.3036 22.7782 55.8944 22.2958 55.2191C21.4761 54.0716 21.2565 53.4409 21.511 52.9654C21.684 52.6419 21.8071 52.7911 22.0667 53.6391C22.2445 54.2202 22.416 54.5989 22.6196 54.8602C22.9893 55.3348 24.4281 56.4925 25.8241 57.4385C27.3173 58.4505 27.6038 58.6902 27.5735 58.9019C27.5382 59.1481 27.358 59.1518 26.9458 58.9148L26.9457 58.9152ZM22.983 57.7923C22.7842 57.6493 22.1933 57.1597 21.6697 56.7043C21.1461 56.2489 20.4931 55.6827 20.2187 55.446C19.8814 55.1552 19.6444 54.8625 19.4874 54.5428C19.2602 54.0802 19.2545 54.0346 19.2273 52.4546C19.211 51.5076 19.2379 50.5911 19.2925 50.2393C19.3973 49.5642 19.7609 48.7482 19.9755 48.7068C20.1466 48.6739 20.1577 48.9474 20.0382 50.2517C19.8153 52.6859 19.7772 53.7599 19.9031 54.0612C20.0852 54.4969 20.6668 55.0781 22.1375 56.294C23.4698 57.3955 23.78 57.7219 23.698 57.9357C23.6262 58.1227 23.371 58.0715 22.983 57.7923ZM29.1678 54.8042C28.9143 54.6267 28.9395 54.4338 29.256 54.127C29.5956 53.7979 29.6864 53.7985 29.8894 54.1314C30.0953 54.4691 30.0941 54.4875 29.8512 54.7304C29.6181 54.9635 29.4249 54.9843 29.1678 54.8042ZM35.4384 53.0802C35.2452 52.6366 35.0879 52.4387 34.5412 51.9512C33.2422 50.7929 32.9309 50.4745 32.5299 49.8945C32.0539 49.2059 30.7355 46.9158 30.123 45.7135C29.7275 44.9371 29.6104 44.7899 28.5806 43.774C27.9676 43.1694 27.4018 42.5782 27.323 42.4602C27.1577 42.2125 27.134 41.7897 27.2773 41.6463C27.5405 41.3832 27.6814 41.5148 28.8428 43.1079C29.1885 43.5821 29.6792 44.1507 29.9332 44.3714C30.3441 44.7284 30.4616 44.9105 30.9964 46.0191C31.647 47.3676 32.2298 48.2101 34.0378 50.4158C35.2789 51.9299 35.8552 52.7317 35.9224 53.0379C35.9735 53.2706 35.8605 53.6181 35.7337 53.6181C35.7002 53.6181 35.5673 53.3761 35.4384 53.0802ZM48.6124 52.6123C48.2309 51.9472 48.2657 51.7847 48.9254 51.1508C49.7734 50.3357 50.1928 50.221 50.2968 50.7758C50.3696 51.1638 50.3037 51.237 49.8817 51.237C49.5442 51.237 49.5037 51.262 49.2502 51.627C49.011 51.9716 48.9803 52.0768 48.987 52.5303C48.9912 52.8125 48.9643 53.0435 48.9271 53.0435C48.89 53.0435 48.7484 52.8494 48.6124 52.6123ZM20.6091 51.5227C20.4955 51.3858 20.5262 50.7696 20.738 48.9381C20.8748 47.7546 20.8899 46.9011 20.7792 46.61C20.7367 46.4981 20.5335 46.2907 20.3276 46.1491C19.9902 45.9167 19.9532 45.8592 19.9532 45.5686C19.9532 45.3117 19.9967 45.2174 20.1668 45.106C20.4358 44.9298 20.5619 44.9999 20.9172 45.5233C21.3811 46.2066 21.5136 46.8091 21.5117 48.2274C21.51 49.5272 21.3519 51.0422 21.1781 51.4237C21.0636 51.6751 20.777 51.7248 20.609 51.5224L20.6091 51.5227ZM43.7153 50.6556C43.4145 50.3548 43.0449 50.2574 42.1639 50.2466C41.8027 50.2422 41.3408 50.2136 41.1375 50.183C40.6672 50.1124 40.6186 49.9116 40.977 49.5203L41.2323 49.2414L42.1086 49.2901C43.2121 49.3514 43.7013 49.4997 44.332 49.964C44.7098 50.2421 44.8325 50.3822 44.8325 50.535C44.8325 50.9744 44.1118 51.0522 43.7153 50.6556ZM34.821 49.5597C34.7679 49.4958 34.7172 49.2833 34.7083 49.0875C34.6926 48.7434 34.7007 48.7308 34.9541 48.7063C35.4164 48.6615 35.8432 49.3216 35.5096 49.5655C35.3122 49.7099 34.943 49.7067 34.821 49.5597ZM43.6332 48.9909C43.3785 48.7719 43.4017 48.6071 43.7162 48.401C43.9083 48.2752 43.9387 48.276 44.1722 48.414C44.4593 48.5835 44.5 48.8412 44.2722 49.0473C44.0671 49.233 43.8972 49.218 43.6332 48.9909ZM57.4681 48.5469C57.4192 48.4209 57.3976 48.0487 57.4193 47.7052C57.4524 47.1831 57.5711 46.7894 58.1992 45.1187C58.6068 44.0348 59.1255 42.7416 59.3521 42.2448C59.6304 41.6346 59.8078 41.1019 59.8992 40.6026C60.122 39.3855 60.7896 38.1381 62.8084 35.1672C63.9889 33.4299 64.2089 32.9718 64.2676 32.1282C64.2921 31.7762 64.3641 31.4051 64.4277 31.3035C64.6842 30.8932 65.0991 31.216 65.1744 31.8845C65.2452 32.5124 64.4695 34.138 63.2674 35.8812C62.5567 36.9117 61.3345 38.9794 60.9599 39.785C60.812 40.1031 60.6487 40.6204 60.597 40.9346C60.5027 41.5078 60.2322 42.1281 58.7014 45.2829L58.1037 46.5146L58.0987 47.4318C58.0941 48.2859 58.08 48.3635 57.8947 48.5608C57.6429 48.8289 57.577 48.8267 57.4682 48.5469L57.4681 48.5469ZM12.522 48.445C12.494 48.3998 12.7413 48.0722 13.0714 47.717C13.4015 47.3618 13.7376 46.9743 13.8184 46.8558C13.8991 46.7374 14.3241 46.3523 14.7627 46C15.2013 45.6477 15.7039 45.1669 15.8795 44.9316C16.0924 44.6466 16.2582 44.5038 16.3763 44.5038C16.6038 44.5038 16.7507 44.6522 16.7507 44.8821C16.7507 45.0781 16.5159 45.2884 15.1614 46.3055C14.7163 46.6398 13.9972 47.2764 13.5634 47.7202C12.8008 48.5005 12.6299 48.6195 12.522 48.445ZM54.5285 45.9516C54.3249 45.6221 54.3086 45.3613 54.4875 45.2926C54.8876 45.1391 55.5893 45.3655 55.5893 45.6482C55.5893 45.8515 55.1363 46.2281 54.8917 46.2281C54.762 46.2281 54.6439 46.1382 54.5285 45.9516ZM11.7214 44.7437C11.536 44.6358 11.5423 44.467 11.7485 44.0113C11.9833 43.4927 12.2494 43.2431 13.0415 42.7985C13.7542 42.3984 13.9699 42.1928 14.3748 41.5274C14.5914 41.1715 14.6396 41.1374 14.926 41.1374C15.2657 41.1374 15.4369 41.2515 15.4369 41.478C15.4369 41.6961 14.0845 43.0784 13.8158 43.135C13.4864 43.2045 12.4621 44.0078 12.307 44.3182C12.1568 44.6189 11.993 44.8336 11.9166 44.8299C11.8882 44.829 11.8004 44.7897 11.7214 44.7437ZM61.7634 44.5635C61.6113 44.3803 61.5519 43.6473 61.6805 43.5406C61.9016 43.3571 62.8155 43.9466 62.8155 44.2727C62.8155 44.3614 62.1767 44.6638 61.9839 44.6664C61.9104 44.6674 61.8112 44.6211 61.7634 44.5635ZM38.9725 43.7444C38.8256 43.1962 39.0021 42.9438 39.5324 42.9438C39.9064 42.9438 40.0082 43.0161 40.1464 43.3796C40.2244 43.5848 40.2086 43.619 39.9664 43.7666C39.8155 43.8586 39.5542 43.9287 39.3614 43.9289C39.0787 43.9291 39.0138 43.8983 38.9725 43.7444ZM29.285 43.2863C29.1005 43.0825 29.1144 42.9467 29.3493 42.6564C29.5145 42.4523 29.5742 42.4256 29.6978 42.5003C29.7799 42.55 29.9016 42.6865 29.9682 42.8038C30.0806 43.0018 30.0751 43.0321 29.8923 43.2268C29.6596 43.4745 29.4719 43.4929 29.285 43.2863ZM12.5359 41.493C12.4272 41.3843 12.4849 41.1624 12.6659 40.993C12.8783 40.7944 13.8578 40.3147 14.0413 40.3194C14.1736 40.3229 13.557 40.9254 13.0231 41.3145C12.6866 41.5596 12.6251 41.5822 12.5359 41.493ZM40.6451 41.3099C40.355 41.2299 40.3125 40.7958 40.5767 40.6107C40.8699 40.4054 41.1159 40.4455 41.2589 40.7219C41.5372 41.2601 41.2974 41.4898 40.6451 41.3099ZM48.8628 41.0204C48.6207 40.7627 48.6907 40.5372 49.0962 40.2689C49.4521 40.0334 49.6223 40.0664 49.7594 40.3974C49.8859 40.7028 49.8155 40.9039 49.5211 41.0778C49.2024 41.2661 49.0839 41.2557 48.8628 41.0204ZM28.8539 41.0737C28.6325 40.9259 28.5833 40.6712 28.6666 40.1031C28.763 39.4458 28.7286 39.0371 28.4505 37.534C28.3391 36.9325 28.2237 35.9841 28.1939 35.4263L28.1396 34.4122L27.6682 33.9274C27.159 33.4038 26.5484 32.5434 26.6289 32.4628C26.6814 32.4103 27.414 32.9193 27.5887 33.1298C27.6453 33.1981 27.7286 33.2539 27.7736 33.2539C27.8187 33.2539 27.7245 33.094 27.5643 32.8985C27.0156 32.2289 26.9048 31.9249 26.951 31.2158C26.9736 30.869 26.9756 30.5391 26.9555 30.4827C26.8931 30.3078 26.7683 30.3702 26.7683 30.5771C26.7683 30.7869 26.6001 30.8981 26.3994 30.8211C25.958 30.6517 25.9127 28.0886 26.3252 26.6181C26.43 26.2447 26.4894 26.1638 26.7341 26.0616C26.9615 25.9666 27.1788 25.6945 27.1788 25.5049C27.1788 25.4937 26.9617 25.5002 26.6963 25.5194C26.0617 25.5653 25.1618 25.4085 24.7544 25.181C24.3413 24.9503 23.8498 24.2517 23.9854 24.0882C24.085 23.9683 24.4502 23.9389 24.6018 24.0387C24.6522 24.0719 24.7766 24.2653 24.8782 24.4686C25.2306 25.1731 25.3 25.197 26.6282 25.0716C27.2334 25.0144 27.2874 24.9699 27.365 24.4629L27.41 24.1698L26.9043 24.0675C26.439 23.9734 26.356 23.9211 25.8632 23.4123C25.2355 22.7643 24.7833 21.9866 24.9419 21.828C25.1512 21.6187 25.4769 21.8545 25.9242 22.5394C26.3788 23.2354 26.8006 23.6776 26.9595 23.6248C27.0124 23.6072 27.0745 23.4851 27.0975 23.3533C27.1357 23.1347 27.1065 23.0987 26.7625 22.9393C26.3865 22.7644 26.0293 22.4064 26.0293 22.2036C26.0293 21.9696 26.2252 22.0042 26.7112 22.324C27.2108 22.6528 27.2209 22.6555 27.2733 22.4754C27.3778 22.1165 27.3457 22.0015 27.1173 21.9162C26.5532 21.7055 26.1534 21.4631 25.7265 21.073C25.0479 20.4528 25.02 20.3468 25.2136 19.123C25.3838 18.0472 25.4817 17.7077 25.6938 17.4587C25.8761 17.2447 26.9898 16.6977 27.5738 16.5353L28.0621 16.3996L28.7085 16.7327C29.064 16.916 29.547 17.1702 29.7819 17.2976C30.3763 17.62 30.4595 17.5196 30.213 16.7772C29.8652 15.7295 29.4337 15.5174 27.9609 15.6707C27.3533 15.734 27.2037 15.7777 27.1092 15.92C26.9834 16.1095 26.6041 16.1573 26.6041 15.9837C26.6041 15.8447 26.8986 15.5749 27.2364 15.4042C27.4256 15.3086 27.7264 15.2714 28.3107 15.2714C28.757 15.2714 29.1467 15.2469 29.1766 15.217C29.2066 15.187 29.1111 15.0857 28.9645 14.9917L28.6979 14.8209L28.9726 14.794C29.3097 14.7611 29.7581 15.0507 30.2097 15.5933C30.6412 16.1117 30.7914 16.4344 30.7937 16.848C30.7948 17.0421 30.8332 17.3634 30.879 17.5619C30.9519 17.8783 30.9418 17.9445 30.7975 18.0981C30.6414 18.2642 30.6391 18.2968 30.7529 18.7225C30.9346 19.4026 31.124 20.5551 31.1374 21.0621C31.1465 21.4105 31.1082 21.5698 30.9705 21.7561C30.7792 22.0148 30.7319 22.333 30.8847 22.333C31.1253 22.333 31.5187 21.7399 31.779 20.9851C32.0751 20.1258 32.2717 19.8594 32.5004 20.0076C32.7447 20.1658 32.6414 20.5647 32.148 21.3675C31.1373 23.0122 30.2823 24.0034 29.129 24.8676C28.8763 25.057 28.739 25.2217 28.739 25.3356C28.739 25.4466 28.5426 25.6926 28.2053 26.0037C27.7358 26.4368 27.6716 26.5322 27.6716 26.7958C27.6716 26.9606 27.6949 27.0954 27.7234 27.0954C27.8791 27.0954 29.3882 26.1503 30.2106 25.5376C30.7335 25.1481 31.6685 24.4871 32.2885 24.0687C32.9084 23.6502 33.4902 23.2031 33.5813 23.0752C33.7016 22.9062 33.7553 22.677 33.7772 22.2388C33.8053 21.6752 33.8203 21.6332 34.0034 21.6067C34.2762 21.5672 34.3875 21.4584 34.6159 21.0075C34.8972 20.4525 35.3079 20.0917 35.3079 20.3997C35.3079 20.4654 35.0308 21.0792 34.6921 21.7636C33.9973 23.1677 33.9258 23.5115 34.2988 23.6534C34.4674 23.7174 34.6045 23.7063 34.8636 23.6073C35.3327 23.4281 35.5061 23.221 35.4445 22.9131C35.4066 22.724 35.4436 22.6104 35.6053 22.4182C35.8403 22.1389 36.0067 22.1087 36.275 22.2966C36.5891 22.5166 36.5086 22.7877 35.9689 23.3274C35.2195 24.0768 34.6164 24.2501 34.1434 23.8521C34.0092 23.7392 33.8156 23.6468 33.7132 23.6468C33.3967 23.6468 32.2 24.4854 30.2581 26.068C29.8065 26.4361 29.1471 26.9543 28.7928 27.2196C28.2013 27.6625 28.1638 27.7075 28.3335 27.7703C28.4506 27.8136 28.6762 27.7928 28.9493 27.7134C29.5742 27.5317 29.7946 27.5586 30.2954 27.8777C30.5417 28.0346 30.7871 28.1629 30.8407 28.1629C30.8944 28.1629 30.9969 28.0163 31.0687 27.837C31.1626 27.6023 31.2906 27.4644 31.5259 27.3443C31.9965 27.1043 32.0924 27.1386 31.8052 27.4445C31.318 27.9633 31.3797 28.2607 31.9583 28.1831C32.2498 28.144 32.2899 28.1566 32.245 28.2735C32.2013 28.3875 32.2527 28.4093 32.5662 28.4093C32.9549 28.4093 33.19 28.2466 33.5151 27.7524L33.6502 27.5471L33.9659 27.8477C34.5101 28.3658 35.1424 28.4115 35.145 27.9331C35.147 27.577 35.3268 27.3008 35.5568 27.3008C35.7551 27.3008 35.759 27.3131 35.7321 27.8517C35.7058 28.3768 35.7139 28.405 35.904 28.4527C36.0137 28.4802 36.2293 28.4703 36.3832 28.4306C36.6557 28.3603 36.6635 28.3466 36.6875 27.893C36.7068 27.5268 36.7497 27.4012 36.8887 27.3038C37.1264 27.1373 37.1937 27.2562 37.1953 27.845C37.1967 28.3534 37.3105 28.5215 37.6232 28.4772C37.7805 28.4548 37.8194 28.389 37.8535 28.0872C37.8761 27.8875 37.9315 27.7144 37.9767 27.7026C38.0218 27.6908 38.1709 27.8357 38.308 28.0247C38.6761 28.5321 38.9687 28.5285 40.559 27.9974C41.6375 27.6373 41.9364 27.5709 42.6674 27.5295C43.7077 27.4706 43.749 27.3876 43.0265 26.8081C42.5307 26.4104 42.4294 26.2272 42.6572 26.1398C42.8991 26.0469 43.2187 26.2073 43.6923 26.6591C44.1366 27.0828 44.1953 27.1139 44.4692 27.0694C44.7717 27.0203 44.9971 26.8866 44.9971 26.7563C44.9971 26.7163 44.72 26.5465 44.3813 26.3789C43.7361 26.0596 43.6429 25.918 43.9156 25.6713C44.163 25.4474 44.4441 25.5108 44.9516 25.9049C45.4699 26.3073 45.7389 26.3621 46.1508 26.1491C46.4535 25.9925 46.459 25.8818 46.1672 25.8161C45.4183 25.6474 45.3256 25.6077 45.3256 25.456C45.3256 25.2947 45.6389 25.0025 45.9011 24.9193C45.9844 24.8929 46.1891 24.9283 46.356 24.998C46.7277 25.1533 46.7215 25.1533 46.7215 24.9991C46.7215 24.7672 46.9615 24.7779 47.5095 25.0344C47.8115 25.1757 48.1867 25.2882 48.3524 25.2872C48.668 25.2853 49.3491 25.0185 49.3491 24.8968C49.3491 24.7848 49.0188 24.5172 48.569 24.2649C48.3432 24.1382 48.0938 23.9786 48.0148 23.9101C47.7154 23.6507 47.9023 23.3393 48.4659 23.1583C48.7396 23.0704 48.8208 23.0814 49.2049 23.2579C49.6526 23.4637 50.1702 23.8523 50.1702 23.9825C50.1702 24.096 49.6856 24.0705 49.2329 23.9332C49.0109 23.8658 48.814 23.826 48.7953 23.8447C48.7767 23.8634 48.9393 23.9829 49.1567 24.1103C49.6994 24.4284 50.3033 24.4301 50.8355 24.1153C51.0434 23.9923 51.2798 23.8185 51.3607 23.729C51.5042 23.5705 51.5004 23.5631 51.2112 23.4423C51.048 23.3741 50.7655 23.3184 50.5834 23.3184C50.2092 23.3184 50.147 23.1901 50.4629 23.07C50.7957 22.9434 51.0126 22.9745 51.3374 23.1952C51.7051 23.445 51.9672 23.4551 52.253 23.2303C52.5974 22.9593 52.611 22.9725 51.6277 22.6225C51.1968 22.4691 51.1205 22.2834 51.454 22.1997C51.6054 22.1617 51.8032 22.2106 52.1127 22.3624C52.7498 22.6748 52.9956 22.6491 53.6234 22.2044C53.9145 21.9982 54.2063 21.7986 54.2719 21.7608C54.4336 21.6676 54.2692 21.4689 53.8707 21.276C53.6031 21.1464 53.3443 21.1395 50.8681 21.1959C48.4729 21.2504 48.0156 21.2828 46.9268 21.4753C45.8457 21.6665 45.4065 21.6982 43.3342 21.7347C42.0357 21.7577 40.845 21.7524 40.6885 21.723C40.5319 21.6936 40.2957 21.5787 40.1637 21.4676C40.0316 21.3565 39.8959 21.2656 39.8621 21.2656C39.8283 21.2656 39.8248 21.5259 39.8543 21.844C39.9232 22.5848 39.8454 22.7436 39.4135 22.7436C39.236 22.7436 38.9601 22.6813 38.8005 22.6052C38.5284 22.4754 38.4923 22.4754 38.2202 22.6052C38.0606 22.6813 37.8985 22.7436 37.86 22.7436C37.774 22.7436 37.525 22.233 37.525 22.0566C37.525 21.893 37.9999 21.3477 38.1423 21.3477C38.2015 21.3477 38.3636 21.5324 38.5026 21.7582C38.7567 22.1713 38.9546 22.2665 39.1508 22.0703C39.3445 21.8766 39.2176 20.6611 38.9884 20.5158C38.9287 20.4779 38.7302 20.4464 38.5473 20.4457C38.1906 20.4444 38.0177 20.3332 38.0177 20.1051C38.0177 19.9264 38.2613 19.8472 38.7934 19.8526C39.3853 19.8587 39.5983 19.9657 40.1163 20.5176C40.7994 21.245 40.9711 21.308 42.2464 21.2982C43.5006 21.2885 45.4347 21.0817 46.5482 20.8382C47.1603 20.7044 47.7205 20.6574 49.0456 20.6288L50.7539 20.5919L50.7289 20.2955C50.7059 20.0229 50.6752 19.9908 50.3454 19.8958C50.1482 19.8389 49.233 19.7286 48.3117 19.6506L46.6366 19.5087L46.5041 19.6979C46.4312 19.8019 46.2483 19.9385 46.0976 20.0015C45.5579 20.227 42.3256 20.0971 41.6389 19.8224C41.1563 19.6293 40.9732 19.1307 41.3848 19.1307C41.4701 19.1307 41.8467 19.2404 42.2216 19.3745C43.0392 19.6669 43.739 19.7861 44.6429 19.7869C45.3229 19.7876 45.8261 19.6736 45.688 19.5503C45.5167 19.3972 44.8543 19.2777 44.6837 19.369C44.3526 19.5462 43.6079 19.4068 43.1672 19.0853C42.9935 18.9585 43.004 18.955 43.4046 19.0067C43.7023 19.045 43.9126 19.0236 44.1303 18.9326C44.5008 18.7778 44.4771 18.5969 44.0864 18.5969C43.8146 18.5969 43.8065 18.5874 43.8065 18.2685C43.8065 17.9782 43.7824 17.9372 43.5987 17.9158C43.4272 17.8958 43.377 17.9377 43.3113 18.1558C43.2482 18.3655 43.1223 18.4787 42.7015 18.7042L42.1713 18.9883L41.9428 18.7146C41.6821 18.4023 41.2812 17.4852 41.098 16.7818C40.9431 16.1871 40.938 15.4334 41.0865 15.0781C41.2481 14.6914 41.675 14.233 42.1139 13.9751C42.4541 13.775 42.5721 13.7524 43.2727 13.7526C44.1965 13.7529 44.6236 13.8788 44.7897 14.1999C44.9597 14.5287 45.0779 15.3603 45.0786 16.233C45.0791 16.9076 45.0988 17.0077 45.261 17.1588L45.4428 17.3282L45.2852 17.6209C45.1985 17.7819 45.0362 17.9855 44.9244 18.0734C44.7397 18.2187 44.733 18.2449 44.8505 18.3623C44.9679 18.4798 45.031 18.461 45.5474 18.1542C45.8596 17.9687 46.1777 17.8169 46.2541 17.8169C46.512 17.8169 46.3953 18.0922 45.9715 18.4839L45.55 18.8734L45.992 18.9982C47.0131 19.2866 48.336 19.3706 48.647 19.1668C48.9164 18.9903 50.3656 18.8885 52.6334 18.8869C55.169 18.8851 55.5577 18.962 56.703 19.6921C56.9316 19.8379 57.2641 19.9768 57.442 20.0008C58.0728 20.0861 58.1611 20.1294 58.6487 20.5923C59.7244 21.6137 60.2873 22.746 60.4003 24.1164C60.4571 24.8059 60.4558 24.8113 59.756 26.6628C59.2765 27.9371 59.0408 28.1367 59.0408 27.2679C59.0408 26.8758 59.0996 26.6765 59.3791 26.1198C59.6299 25.6202 59.7502 25.2453 59.8443 24.6697C59.9619 23.95 59.9607 23.856 59.8284 23.38C59.6706 22.8124 59.052 21.8238 58.4053 21.1059L58.0029 20.6591L57.6688 20.9275C57.3438 21.1887 56.7236 21.9158 56.3301 22.497C55.8738 23.1708 54.0164 25.6993 53.9454 25.7432C53.9028 25.7695 53.8679 25.8962 53.8679 26.0246C53.8679 26.2085 53.8172 26.2757 53.6293 26.3412C53.498 26.3869 53.3686 26.494 53.3416 26.5791C53.3146 26.6641 53.3451 27.1087 53.4094 27.5669C53.4737 28.0252 53.5065 28.476 53.4822 28.5688C53.4037 28.869 53.5978 28.7487 54.0382 28.2242C54.6291 27.5204 55.0553 26.8476 55.7944 25.4517C56.6979 23.7454 56.7758 23.7101 56.2458 25.247C55.6553 26.9596 55.1239 27.81 53.6711 29.3667C53.1408 29.935 53.0379 30.092 52.9961 30.3973C52.9405 30.803 53.1477 31.7463 53.3333 31.9326C53.4876 32.0874 53.533 32.0469 54.5671 30.8312C55.6506 29.5575 55.7504 29.4041 56.1613 28.3817C56.5069 27.5218 56.7054 27.2444 57.05 27.14C57.3317 27.0545 57.3627 27.2744 57.1514 27.8576C56.618 29.3292 55.5155 31.0318 54.4106 32.0902C54.1121 32.3762 53.8678 32.6543 53.8678 32.708C53.8678 32.7618 53.7084 33.0856 53.5135 33.4275C53.3186 33.7695 53.1163 34.1565 53.0639 34.2877C52.9111 34.6703 52.8016 35.5338 52.801 36.3625C52.8005 36.9966 52.8311 37.1862 52.9759 37.4438C53.1896 37.8239 53.151 37.9477 52.7611 38.1327C52.2269 38.3862 52.1961 38.3237 52.2489 37.0903C52.3044 35.7912 52.4838 34.7238 52.8073 33.7667C52.9385 33.3785 53.0343 33.0494 53.0202 33.0353C53.0061 33.0213 52.3604 33.1385 51.5853 33.2958C50.0021 33.6172 49.3758 33.6585 49.2946 33.4468C49.184 33.1586 49.579 33.0174 51.1991 32.7662C52.3797 32.5832 52.8506 32.468 52.9275 32.3436C52.9653 32.2825 52.5367 30.8582 52.4138 30.6362C52.3817 30.5783 51.0349 31.4726 50.419 31.9608C49.5351 32.6614 49.199 32.8366 48.3018 33.0644C47.7388 33.2074 47.0932 33.4707 46.1082 33.9591C44.329 34.8412 43.4417 35.0987 42.2079 35.0909C41.1786 35.0844 41.2579 35.104 38.1023 34.0763C36.7249 33.6277 34.9513 33.0572 34.161 32.8086C32.7864 32.3761 32.3545 32.1869 32.3545 32.0172C32.3545 31.9746 32.4418 31.9398 32.5485 31.9398C32.8789 31.9398 35.0007 32.5679 37.4044 33.3772C41.0608 34.6084 41.5816 34.6738 41.1903 33.8532C41.0846 33.6315 41.0747 33.5381 41.1476 33.4502C41.2994 33.2673 41.462 33.3171 41.5114 33.5615C41.6332 34.1642 41.6559 34.191 42.2085 34.3844C42.6416 34.536 42.8724 34.5655 43.4395 34.5416C44.2691 34.5067 44.5705 34.3904 46.4368 33.3857C47.2995 32.9212 47.9442 32.6339 48.3937 32.5136C49.2 32.298 49.4212 32.1692 50.0045 31.5762C50.3538 31.221 50.5648 31.0835 50.965 30.9504C51.3517 30.8217 51.6251 30.6483 52.0774 30.2451C52.8927 29.5182 52.9264 29.4236 52.7974 28.2242C52.7403 27.6936 52.6773 27.2594 52.6576 27.2594C52.6378 27.2594 52.3754 27.4828 52.0745 27.7559C51.5078 28.2702 50.7689 28.6781 50.2325 28.7729C50.0622 28.803 49.4813 28.8794 48.9416 28.9426C47.9341 29.0617 47.627 29.1553 47.627 29.345C47.627 29.4046 47.7591 29.6265 47.9206 29.838C48.1462 30.1335 48.225 30.3262 48.2604 30.6692C48.2994 31.0469 48.284 31.1243 48.1608 31.1716C47.9187 31.2645 47.7712 31.0957 47.572 30.4981C47.1428 29.2105 46.9888 29.0678 46.2382 29.2625C45.8119 29.3731 45.41 29.5946 45.41 29.7189C45.41 29.7595 45.6157 29.9685 45.8671 30.1833C46.3769 30.6188 46.5595 30.908 46.5595 31.2794C46.5595 31.702 46.3203 31.5842 45.5708 30.7926C44.9824 30.171 44.8288 30.0518 44.616 30.0518C44.4766 30.0518 44.3216 30.1012 44.2714 30.1616C44.1662 30.2885 44.3132 30.4441 44.9316 30.8603C45.415 31.1856 45.5884 31.3581 45.529 31.4543C45.4219 31.6276 45.0984 31.5016 44.4606 31.0382C44.0884 30.7678 43.6855 30.5092 43.5651 30.4634C43.1963 30.3232 42.5887 30.37 41.8267 30.5974C40.8494 30.889 40.4201 30.8807 39.716 30.5567C39.0952 30.271 39.0191 30.2579 38.7353 30.3872C38.4184 30.5316 38.26 30.8998 38.1991 31.633C38.1387 32.3599 38.0222 32.5057 37.7328 32.2164C37.6141 32.0977 37.5963 31.9649 37.6273 31.4288C37.6627 30.8173 37.6803 30.7681 37.9692 30.4723C38.2311 30.2041 38.2567 30.1462 38.1518 30.0591C38.0847 30.0034 37.9272 29.9698 37.8018 29.9843C37.6169 30.0058 37.5029 30.1272 37.1988 30.6266C36.8763 31.1564 36.7884 31.246 36.5702 31.2674C36.1222 31.3115 36.1852 31.0971 36.8076 30.4597C37.3505 29.9038 37.3793 29.8563 37.2374 29.7525C36.9613 29.5506 36.5575 29.614 36.2961 29.9003L36.0595 30.1593L34.1453 30.1105C33.0926 30.0842 31.9537 30.0234 31.6154 29.9766C31.2767 29.9294 30.5485 29.8554 29.9972 29.8122C29.4458 29.769 28.91 29.6894 28.8065 29.6354C28.7031 29.5813 28.4498 29.381 28.2438 29.1902C28.0378 28.9994 27.7893 28.8005 27.6916 28.7482C27.4942 28.6426 27.4685 28.6968 27.4031 29.3547C27.3762 29.6263 27.4127 29.7329 27.614 29.9706C28.1832 30.6422 29.1322 31.5589 29.3985 31.6943C29.5565 31.7746 30.145 31.976 30.7062 32.1419C31.2673 32.3079 31.7939 32.4797 31.8763 32.5238C32.0611 32.6227 32.0685 32.7891 31.8946 32.9335C31.7336 33.0671 31.1559 32.9311 29.9198 32.4685C29.0463 32.1416 28.4482 31.7945 27.7885 31.2317C27.5578 31.0349 27.3471 30.8738 27.3202 30.8738C27.1799 30.8738 27.5407 31.6653 27.885 32.1127C28.2856 32.6334 28.4953 33.1891 28.4953 33.7303C28.4953 33.9428 28.6137 34.1585 29.0153 34.6772C29.3013 35.0466 29.5621 35.3951 29.5949 35.4515C29.7199 35.6667 29.4958 35.5385 29.0454 35.137L28.5773 34.7199L28.5774 34.9933C28.5775 35.1437 28.6742 35.6547 28.7924 36.1289C28.9506 36.7635 29.0211 37.3096 29.0597 38.1974C29.1114 39.3864 29.1156 39.4073 29.3509 39.6529C29.5855 39.8978 29.5879 39.9098 29.4914 40.3412C29.3446 40.9969 29.1231 41.2529 28.8565 41.0748L28.8539 41.0737ZM41.0967 29.8056C41.1247 29.7603 41.1232 29.56 41.0932 29.3605C41.0389 28.9983 41.0384 28.9978 40.7393 29.0367C40.0218 29.1301 39.9216 29.16 39.8739 29.2947C39.8463 29.3726 39.8028 29.4807 39.7773 29.5349C39.6834 29.734 40.977 29.9994 41.0967 29.8056ZM41.9559 29.5649C42.0027 29.477 42.0413 29.2734 42.0413 29.1116C42.0413 28.8337 42.0287 28.82 41.8155 28.8651C41.6913 28.8913 41.5065 28.9297 41.4049 28.9503C41.1778 28.9964 41.1729 29.1115 41.3835 29.4568C41.5675 29.7586 41.8264 29.8074 41.9563 29.5648L41.9559 29.5649ZM43.8646 29.1822C44.3293 29.065 44.7557 28.9312 44.8121 28.8848C44.9563 28.7663 44.9491 28.2971 44.804 28.3528C44.7431 28.3761 44.1704 28.4801 43.5313 28.5837C42.8133 28.7002 42.3693 28.8086 42.3693 28.8674C42.3693 29.0371 42.7053 29.3953 42.8646 29.3953C42.9498 29.3953 43.3999 29.2994 43.8646 29.1822ZM27.1688 28.7286C27.1756 28.6361 27.0859 28.5806 26.874 28.5462C26.428 28.4739 26.3852 28.6346 26.7506 29.0096L27.0554 29.3224L27.1072 29.092C27.1358 28.9652 27.1635 28.8017 27.1688 28.7286ZM46.5085 28.3773C46.8419 28.238 46.9158 28.1314 46.8529 27.8808L46.8048 27.6895L46.2088 27.9222C45.8809 28.0503 45.5439 28.1758 45.4598 28.2013C45.3346 28.2392 45.3252 28.2699 45.4082 28.3699C45.5379 28.5261 46.1425 28.5302 46.5085 28.3773ZM47.7918 27.9963C47.926 27.862 47.9482 27.7686 47.904 27.5241C47.8738 27.3565 47.8366 27.2051 47.8214 27.1877C47.7802 27.1404 47.3626 27.3286 47.1529 27.489L46.9688 27.6299L47.1312 27.8967C47.3194 28.2061 47.5476 28.2405 47.7918 27.9963ZM49.8174 27.8123C49.9468 27.6829 49.9462 27.6547 49.8081 27.3646C49.727 27.1944 49.5328 26.8808 49.3765 26.6678L49.0924 26.2804L48.5226 26.6593C48.2098 26.867 47.9536 27.0542 47.9536 27.0739C47.9536 27.1306 48.2885 27.6058 48.4802 27.8213C48.6327 27.9927 48.708 28.0103 49.1658 27.9816C49.5036 27.9604 49.7274 27.902 49.8181 27.8112L49.8174 27.8123ZM50.6594 27.4673C50.9911 27.2957 51.2382 26.9525 51.2382 26.6643C51.2382 26.5281 51.1079 26.2046 50.9449 25.9363C50.6791 25.4987 50.6308 25.4581 50.4317 25.5042C50.2143 25.5544 49.5139 25.9222 49.5139 25.9861C49.5139 26.0896 50.1172 27.3195 50.2281 27.4421C50.3876 27.6183 50.3694 27.6173 50.6603 27.4668L50.6594 27.4673ZM27.164 27.2645C27.1845 27.2029 27.1537 27.1721 27.0921 27.1926C27.0329 27.2124 26.9682 27.2771 26.9484 27.3363C26.9279 27.3979 26.9587 27.4287 27.0203 27.4082C27.0796 27.3884 27.1442 27.3238 27.164 27.2645ZM52.2868 26.2567C52.4347 26.1672 52.6108 25.9874 52.6781 25.8571C52.7894 25.6419 52.7855 25.5776 52.6357 25.1514C52.5451 24.8935 52.4351 24.6467 52.3914 24.6029C52.3402 24.5517 52.1084 24.66 51.7388 24.9079L51.1657 25.2924L51.2909 25.7217C51.3598 25.9577 51.4704 26.2358 51.5368 26.3397C51.6722 26.5514 51.8287 26.5341 52.2868 26.2567ZM28.0853 25.3034C27.9161 25.2468 27.7544 25.3658 27.7544 25.5473V25.7284L27.9645 25.531C28.0801 25.4224 28.1343 25.3201 28.085 25.3036L28.0853 25.3034ZM53.4019 24.7758C53.6066 24.3441 53.8657 23.9343 54.2675 23.4066L54.482 23.1249L53.8251 23.4699C53.4638 23.6596 53.0046 23.9565 52.8047 24.1297L52.441 24.4445L52.6644 24.8257C52.966 25.3403 53.1397 25.3286 53.4019 24.7758ZM29.0041 24.5886C29.2972 24.3956 29.8072 23.7888 29.8072 23.6345C29.8072 23.5116 29.5661 23.5592 29.1681 23.7607C28.9551 23.8685 28.6274 24.0026 28.4399 24.0586C28.1754 24.1378 28.0894 24.2087 28.0557 24.3758C28.0318 24.4942 27.9849 24.6616 27.9516 24.7478C27.8954 24.8931 27.9204 24.9005 28.2921 24.8496C28.5127 24.8193 28.8333 24.7019 29.0045 24.5886L29.0041 24.5886ZM27.7939 23.4315C27.9593 23.0357 27.953 23.006 27.7129 23.0519C27.536 23.0858 27.5077 23.1351 27.5077 23.41C27.5077 23.81 27.6319 23.8193 27.7939 23.4315ZM29.1471 23.4841C29.2882 23.4086 29.6106 23.0568 30.1278 22.4143C30.3004 22.1999 30.4495 21.8893 30.5165 21.6045C30.6428 21.068 30.661 20.5266 30.5528 20.5266C30.5115 20.5266 30.3289 20.8384 30.1469 21.2196C29.9542 21.6232 29.7284 21.9701 29.6061 22.0502C29.4907 22.1258 29.3962 22.2594 29.3962 22.347C29.3962 22.4607 29.2697 22.5622 28.9541 22.7018C28.5626 22.8749 28.4976 22.9395 28.3865 23.2656C28.3175 23.4681 28.2781 23.6509 28.2989 23.6717C28.3468 23.7196 28.9607 23.5838 29.1471 23.4841ZM27.9435 22.6674C28.0641 22.6216 28.1657 22.4991 28.1991 22.3595C28.2295 22.232 28.273 22.065 28.2958 21.9882C28.3374 21.8478 28.0711 21.5119 27.9182 21.5119C27.873 21.5119 27.8361 21.6069 27.8361 21.723C27.8361 21.8392 27.7806 21.9896 27.7129 22.0573C27.579 22.1912 27.5417 22.7436 27.6665 22.7436C27.7087 22.7436 27.8334 22.7093 27.9435 22.6674ZM54.8883 21.1778C54.8624 21.1357 54.7833 21.1013 54.7127 21.1013C54.6083 21.1013 54.6033 21.1242 54.6858 21.2236C54.7918 21.3513 54.9706 21.3109 54.8883 21.1778ZM56.4148 20.4773L56.587 20.3048L56.3443 20.062C56.2107 19.9285 55.9407 19.7711 55.7442 19.7122C55.3714 19.6005 53.3551 19.4687 51.9259 19.4627L51.0948 19.4591L51.1649 19.8341C51.2034 20.0403 51.2594 20.2487 51.2893 20.297C51.3254 20.3555 51.6215 20.3686 52.1735 20.3362C52.9263 20.2919 53.0489 20.3058 53.496 20.4864C53.9445 20.6676 54.0896 20.6838 55.1156 20.6676C56.1379 20.6514 56.2585 20.6337 56.4148 20.4773ZM29.2802 20.2395C29.6903 19.9992 29.8545 19.624 29.7729 19.1136C29.6639 18.4322 29.4354 18.2355 28.1758 17.739C27.668 17.5389 27.4452 17.5276 27.2627 17.6928C27.1884 17.76 26.9822 17.8651 26.8046 17.9264C26.2577 18.115 26.3038 18.6583 26.896 19.0054C27.3109 19.2486 27.4259 19.4618 27.4259 19.9881V20.3422L27.7748 20.3074C28.0512 20.2798 28.5069 20.3319 28.8966 20.4355C28.9153 20.4404 29.0879 20.3522 29.2802 20.2395ZM28.3636 19.9076C28.2553 19.6483 28.2563 19.5875 28.3736 19.3403C28.6708 18.714 28.9498 18.6707 29.2613 19.2024C29.404 19.446 29.405 19.475 29.2774 19.6698C29.1487 19.8662 28.6933 20.1971 28.5508 20.1978C28.5146 20.198 28.4304 20.0674 28.3636 19.9076ZM42.7545 16.8438C42.8531 16.7919 43.0528 16.7494 43.1983 16.7494C43.4451 16.7494 43.4541 16.7398 43.3326 16.6056C43.0101 16.2493 43.0164 15.8808 43.3492 15.623C43.5364 15.478 43.5942 15.4939 43.6965 15.7185C43.9026 16.1708 44.2794 15.9749 44.2022 15.4556C44.0937 14.7252 43.7992 14.6231 42.9333 15.0156C42.646 15.1459 42.3454 15.2744 42.2653 15.3011C42.1853 15.3279 42.0959 15.4119 42.0668 15.4878C41.9533 15.7836 42.3835 17.2323 42.5218 17.02C42.5511 16.975 42.6558 16.8957 42.7545 16.8438ZM44.2095 16.6171C44.2514 16.508 44.2205 16.4946 44.0335 16.5408C43.6864 16.6266 43.6105 16.7494 43.9048 16.7494C44.0626 16.7494 44.178 16.6993 44.2095 16.6171ZM19.1409 40.1018C18.9373 39.8429 18.9451 39.7596 19.3053 38.361C19.8441 36.2689 20.2132 36.2677 20.042 38.3585C19.9021 40.0682 19.5897 40.6724 19.1409 40.1018ZM57.8967 38.641C57.7355 38.4468 58.0442 37.8278 58.3695 37.6931C58.7167 37.5493 58.855 37.6226 58.9233 37.9868C59.0135 38.4675 58.8369 38.7084 58.3721 38.7388C58.1169 38.7555 57.9659 38.7245 57.8967 38.641ZM73.0126 38.5505C72.8432 38.3353 72.6152 37.4912 72.5274 36.7546C72.4812 36.3674 72.4851 36.3578 72.6534 36.4479C72.749 36.499 72.9391 36.7037 73.076 36.9026C73.6546 37.7435 73.595 39.291 73.0126 38.5505ZM18.3731 38.0932C18.2589 38.0258 18.2295 37.8954 18.2299 37.4582C18.2307 36.4846 18.4619 35.9888 19.0274 35.7479C19.1727 35.686 19.3113 35.6353 19.3353 35.6353C19.4451 35.6353 19.3576 35.9911 19.1261 36.4857C18.9644 36.8313 18.8534 37.2263 18.8182 37.5818C18.7606 38.1635 18.6696 38.2681 18.3731 38.0932ZM34.9802 37.7655C33.4554 37.1384 32.6944 36.7121 32.1029 36.1542C31.4971 35.5827 31.3185 35.3465 31.4369 35.2733C31.4754 35.2495 32.2422 35.6584 33.1409 36.1821C35.4039 37.5006 35.7012 37.6149 36.0022 37.2821C36.1792 37.0865 36.8967 36.9818 37.2178 37.1047C37.4964 37.2114 37.5165 37.4728 37.2588 37.6389C37.0775 37.7557 36.4513 37.9125 35.8834 37.9831C35.6862 38.0076 35.4028 37.9394 34.9802 37.7655ZM15.9656 37.1817C15.6717 36.5306 15.3707 36.221 14.4526 35.6274C13.9557 35.3063 13.5492 35.0074 13.5492 34.9631C13.5492 34.8574 14.0524 34.942 14.9451 35.1977C16.0933 35.5268 16.4135 35.7509 16.5401 36.3141C16.583 36.505 16.5576 36.5539 16.381 36.6211C16.1827 36.6964 16.1739 36.7242 16.2254 37.1124C16.2927 37.6197 16.1769 37.651 15.9656 37.1825V37.1817ZM58.1504 35.5266C57.9344 35.2967 57.924 35.1272 58.1155 34.959C58.3804 34.7264 58.6131 34.7082 58.9174 34.8963C59.2746 35.1171 59.277 35.2417 58.9289 35.5072C58.5886 35.7668 58.3809 35.7719 58.1504 35.5266ZM16.1167 34.8943C16.0161 34.8539 15.748 34.6739 15.5209 34.4944C15.2018 34.2422 14.8659 34.0917 14.0412 33.8317C13.1444 33.5484 12.9742 33.4688 12.9742 33.3325C12.9742 33.0812 13.4845 32.8654 13.7986 32.984C13.9323 33.0341 14.0417 33.0571 14.0417 33.0357C14.0417 33.014 13.8752 32.7919 13.6717 32.5421C13.4682 32.2923 13.2774 31.9908 13.2476 31.8722C13.1859 31.6263 13.3513 30.5446 13.4686 30.4273C13.5871 30.3089 13.6249 30.3844 13.8691 31.2272C14.1289 32.1237 14.481 32.7605 15.0714 33.4016C15.4646 33.8285 15.5117 33.8544 16.0157 33.9215C16.4286 33.9764 16.5869 34.0384 16.7303 34.2015C16.9721 34.4766 17.0554 34.809 16.9062 34.9035C16.7621 34.9948 16.3551 34.9899 16.1168 34.894L16.1167 34.8943ZM25.1679 34.3376C24.013 33.6988 23.0036 32.8416 22.7823 32.3118C22.5808 31.8295 22.6341 31.1867 22.9553 30.2261C23.3795 28.9574 23.7695 28.1872 24.0851 27.9947C24.4428 27.7766 24.5521 27.7929 24.5521 28.0642C24.5521 28.3564 23.9935 30.0093 23.6585 30.7084C23.2704 31.5182 23.3293 32.0301 23.8674 32.5232C23.9956 32.6408 24.4797 33.003 24.9431 33.3282C25.8748 33.9821 26.1125 34.2462 25.9477 34.4449C25.8028 34.6194 25.6359 34.5964 25.1679 34.3375L25.1679 34.3376ZM55.4555 32.4732C55.4013 32.3319 55.5359 32.1094 55.9309 31.687C56.2283 31.3691 56.9435 31.0436 57.069 31.169C57.1743 31.2743 56.8457 31.9027 56.4857 32.2841C56.2351 32.5497 56.1385 32.597 55.8467 32.597C55.6162 32.597 55.4874 32.5563 55.4555 32.4732ZM39.7591 27.6943C39.6643 27.6138 39.2651 26.9382 38.8721 26.1931C38.2587 25.0302 38.1579 24.7829 38.1604 24.4476C38.1633 24.0571 38.2986 23.7726 38.4399 23.86C38.5447 23.9247 39.0384 24.9207 39.3318 25.6594C39.4671 26 39.7093 26.5399 39.8701 26.8592C40.1541 27.4231 40.2062 27.7505 40.0217 27.8112C39.972 27.8275 39.8539 27.7749 39.7591 27.6944L39.7591 27.6943ZM40.4519 25.803C40.3467 25.4292 40.3237 25.1569 40.3888 25.0557C40.4397 24.9768 40.4988 25.0579 40.594 25.3372C40.6675 25.5531 40.7277 25.7785 40.7277 25.8382C40.7277 25.999 40.4989 25.9699 40.4519 25.803ZM15.6526 25.4927C15.3518 25.1918 15.5597 24.9174 16.7098 24.0974C17.6382 23.4356 18.125 23.198 18.2835 23.3295C18.4379 23.4576 18.3693 23.889 18.171 24.0367C18.0953 24.0932 17.9202 24.1414 17.7821 24.144C17.2431 24.1539 16.9953 24.3188 16.5551 24.9605C16.112 25.6064 15.8945 25.7347 15.6525 25.4927L15.6526 25.4927ZM35.9555 24.4523C35.9361 24.212 35.985 23.844 36.0535 23.7158C36.1728 23.4925 36.6815 23.2184 36.8671 23.2773C37.1208 23.3578 37.3149 23.788 37.2056 24.0278C37.0906 24.2803 36.8882 24.275 36.7704 24.0164C36.6373 23.7242 36.4854 23.7618 36.2955 24.134C36.1166 24.4848 35.9693 24.6226 35.9555 24.4523ZM38.7974 23.4309C37.9423 23.1632 38.0247 23.031 39.1012 22.9436C39.8715 22.8811 40.2344 22.9317 40.2344 23.1017C40.2344 23.4597 39.4578 23.6375 38.7974 23.4309ZM36.4777 21.3756C36.2764 21.2944 36.3696 21.0374 36.6337 20.9453C36.9389 20.8389 37.1962 20.8282 37.1962 20.922C37.1962 21.0167 36.7513 21.4313 36.658 21.4235C36.6153 21.4199 36.5342 21.3984 36.4777 21.3756ZM22.2084 20.6294C22.4157 19.799 23.3705 19.2073 24.1767 19.4097C24.4406 19.4759 24.4578 19.7576 24.2167 20.0641C24.0719 20.2482 23.9829 20.2804 23.6203 20.2804C23.2692 20.2804 23.1188 20.3311 22.7673 20.5678C22.2447 20.9198 22.1329 20.9321 22.2084 20.6294ZM36.2413 18.4822C35.2962 18.0352 34.7994 17.3632 35.0575 16.881C35.1541 16.7005 35.1269 16.6431 34.7013 16.1271C33.9846 15.2583 34.1309 15.2258 35.0411 16.0518C35.584 16.5444 35.6276 16.6439 35.4318 16.9428C35.317 17.1181 35.3259 17.1452 35.5755 17.3799C35.7219 17.5175 36.045 17.7775 36.2934 17.9576C36.8886 18.3891 36.9857 18.507 36.8433 18.6251C36.7616 18.6929 36.6114 18.6572 36.2413 18.4822ZM20.6097 17.8557C20.6097 17.7865 20.6651 17.5972 20.7329 17.4351C20.9542 16.9053 20.875 16.4476 20.3117 15.0008C20.1569 14.6034 20.0519 14.2434 20.0782 14.2008C20.1479 14.088 20.7133 14.3995 21.0902 14.7584C21.5127 15.1607 21.6167 15.5605 21.5816 16.648C21.5542 17.4953 21.5517 17.5047 21.2858 17.7421C20.996 18.0007 20.6101 18.0656 20.6101 17.8554L20.6097 17.8557ZM39.9897 17.2033C39.8229 17.0024 39.9127 15.1467 40.1085 14.7459C40.3473 14.2573 40.8037 13.8228 41.1787 13.7269C42.1126 13.4884 42.3009 13.5353 41.7201 13.8617C41.3142 14.0898 40.9134 14.5441 40.7078 15.009C40.5817 15.294 40.5496 15.5433 40.5562 16.1872C40.5608 16.6364 40.5259 17.076 40.4787 17.1642C40.3771 17.3541 40.1311 17.3738 39.9897 17.2033ZM38.6241 16.7884C38.5147 16.6215 38.4989 16.472 38.5437 16.0288C38.7846 13.6484 39.813 12.3906 41.9957 11.8069C42.3318 11.717 42.389 11.7236 42.5941 11.8762C42.8377 12.0574 42.9375 12.3826 42.7795 12.4802C42.7263 12.5131 42.4621 12.4845 42.1923 12.4165C41.8012 12.318 41.6381 12.3121 41.3865 12.3875C40.9266 12.5253 40.2911 13.1408 39.8198 13.905C39.2652 14.8043 39.1353 15.2715 39.2088 16.1018C39.2503 16.57 39.2381 16.7873 39.1656 16.8747C39.0131 17.0584 38.7763 17.0207 38.6241 16.7884ZM23.8341 15.8832C23.6679 15.5346 23.7154 15.4303 24.2159 15.046C24.5935 14.7561 25.1067 14.6817 25.2808 14.8916C25.355 14.981 25.2817 15.0738 24.9226 15.345C24.6742 15.5325 24.4141 15.796 24.3445 15.9305C24.1766 16.2553 24.0039 16.2393 23.8341 15.8832ZM45.7415 15.7983C45.3964 15.5079 45.4126 15.2633 45.7968 14.9622C45.9661 14.8295 46.1906 14.6757 46.2956 14.6206C46.4783 14.5248 46.4823 14.5288 46.388 14.7114C46.3337 14.8164 46.1984 15.0243 46.0871 15.1732C45.8939 15.432 45.881 15.6824 46.0608 15.6824C46.1073 15.6824 46.2917 15.5501 46.4707 15.3885C46.7081 15.1739 46.8413 15.1088 46.9636 15.1477C47.0557 15.1769 47.1311 15.2284 47.1311 15.262C47.1311 15.4294 46.3103 16.0109 46.074 16.0109C46.03 16.0109 45.8804 15.9152 45.7415 15.7983ZM31.8326 13.9549C31.7053 13.9173 31.4083 13.7379 31.1726 13.556C30.9369 13.3742 30.5237 13.1238 30.2545 12.9996C29.803 12.7913 29.6598 12.77 28.4081 12.725C27.6618 12.6982 27.0053 12.6479 26.9493 12.6133C26.7697 12.5023 26.9186 12.4167 27.445 12.328C28.6232 12.1296 29.0865 12.1274 30.1951 12.3148C31.1528 12.4768 31.3494 12.4863 31.9834 12.402C32.9057 12.2792 33.3294 12.1142 34.5276 11.4111C35.5527 10.8096 35.7984 10.7055 36.0054 10.7849C36.2434 10.8762 36.1242 11.0874 35.6289 11.4521C34.6236 12.1921 33.9049 12.5838 33.0653 12.8494C32.6051 12.995 32.2385 13.1469 32.2506 13.1869C32.2934 13.3281 32.7256 13.3848 33.0907 13.2972C33.4443 13.2123 34.7144 12.5777 35.7593 11.964C36.0647 11.7846 36.6895 11.2346 37.4031 10.517C38.0362 9.88036 38.609 9.36 38.6758 9.36074C38.7427 9.36139 38.8527 9.39698 38.9204 9.43974C39.0279 9.50772 39.0238 9.55387 38.8874 9.80698C38.6655 10.2191 36.286 12.5311 35.56 13.0399C34.8976 13.5042 34.5019 13.6501 33.4242 13.8273C32.3209 14.0087 32.0806 14.028 31.8328 13.9549L31.8326 13.9549ZM25.8617 12.1065C25.6099 11.8031 26.5978 10.8854 27.4479 10.6329C27.9736 10.4767 28.4405 10.4774 30.3143 10.637C32.083 10.7876 32.4143 10.7572 32.8125 10.4075C33.0617 10.1888 33.1334 10.1642 33.3223 10.2327C33.5999 10.3334 33.5865 10.6241 33.2906 10.9195L33.0849 11.1248L30.5884 11.101C27.7418 11.0739 27.87 11.0501 26.9731 11.7706C26.375 12.2511 26.0606 12.3462 25.8617 12.1065ZM46.1441 11.0933C45.6103 10.7579 45.2226 10.2943 45.2891 10.0709C45.365 9.81603 45.5613 9.52337 45.6564 9.52337C45.7011 9.52337 45.8631 9.7195 46.0164 9.95922C46.1698 10.1989 46.4274 10.4853 46.5889 10.5956C46.949 10.8415 46.9892 10.9336 46.8332 11.1562C46.6753 11.3817 46.5909 11.374 46.1441 11.0933ZM34.6181 10.6252C34.5141 10.3542 34.579 10.1905 34.9221 9.85798C35.2995 9.49227 37.1984 8.08019 37.4985 7.94216C37.7297 7.83581 37.9348 7.91576 37.9348 8.11219C37.9348 8.29773 37.7801 8.43926 37.2369 8.7505C37.0111 8.87988 36.4137 9.38383 35.9094 9.87042C35.0127 10.7356 34.725 10.9038 34.6181 10.6252Z" fill="black"/>
</g>
<defs>
<clipPath id="clip0_1483_1527">
<rect width="84" height="84" fill="white"/>
</clipPath>
</defs>
</svg>
