<svg width="84" height="84" viewBox="0 0 84 84" fill="none" xmlns="http://www.w3.org/2000/svg">
<g clip-path="url(#clip0_306_206)">
<path d="M9.1208 26.2054C1.60375 26.0675 13.9255 32.7295 6.27009 33.9411C2.92501 35.831 2.18241 39.21 0.966187 42.6999C1.45433 46.8611 7.40056 44.7011 4.04658 48.6745C7.64877 53.1366 0.737796 62.6461 10.2031 61.4501C17.2452 56.6483 10.9371 72.8159 17.8246 67.6948C23.6412 63.0698 24.0206 76.3731 29.8859 69.6004C33.7034 65.5872 36.3298 72.4871 38.7133 66.6692C41.426 61.6707 46.9363 63.4084 49.1174 58.9613C55.0563 57.2373 54.9366 50.173 52.1915 45.6527C61.2109 43.4936 48.7782 36.1075 54.1936 33.1373C54.6087 29.2347 45.8234 32.651 46.4571 26.4509C46.627 20.3697 37.8112 25.0189 40.4893 18.5419C37.1735 15.8119 29.9171 21.9998 24.6756 19.8773C21.2855 19.823 20.1393 21.1701 17.3943 18.8089C13.3957 20.2751 14.326 26.2993 8.94705 26.3793" fill="#FFDE57"/>
<path d="M9.1208 26.2054C1.60375 26.0675 13.9255 32.7295 6.27009 33.9411C2.92501 35.831 2.18241 39.21 0.966187 42.6999C1.45433 46.8611 7.40056 44.7011 4.04658 48.6745C7.64877 53.1366 0.737796 62.6461 10.2031 61.4501C17.2452 56.6483 10.9371 72.8159 17.8246 67.6948C23.6412 63.0698 24.0206 76.3731 29.8859 69.6004C33.7034 65.5872 36.3298 72.4871 38.7133 66.6692C41.426 61.6707 46.9363 63.4084 49.1174 58.9613C55.0563 57.2373 54.9366 50.173 52.1915 45.6527C61.2109 43.4936 48.7782 36.1075 54.1936 33.1373C54.6087 29.2347 45.8234 32.651 46.4571 26.4509C46.627 20.3697 37.8112 25.0189 40.4893 18.5419C37.1735 15.8119 29.9171 21.9998 24.6756 19.8773C21.2855 19.823 20.1393 21.1701 17.3943 18.8089C13.3957 20.2751 14.326 26.2993 8.94705 26.3793" stroke="black" stroke-width="1.56902"/>
<path d="M3.38694 20.9926C6.90096 21.6939 10.2725 23.0142 13.5874 24.359C16.656 25.7735 20.0901 26.8457 22.3537 29.5042C23.5782 30.9648 19.9323 29.6183 19.1794 29.5014C14.3111 28.4936 9.76092 26.339 5.66343 23.5575C4.22566 23.0917 2.81254 22.0247 2.15052 21.1649C0.814041 21.6273 -1.4061 20.2819 1.23098 20.7758C3.25018 21.2575 4.6107 23.2268 6.93517 23.4194C9.50506 24.7947 12.2689 25.83 14.9483 26.9188C16.2621 27.826 18.351 28.5047 19.5592 28.7843C17.2272 28.5709 15.2448 27.157 12.9361 26.8029C10.7457 26.1799 9.05032 24.6055 6.8457 24.0348C4.72036 23.3285 2.52685 22.8363 0.432631 22.0352C3.3678 22.9292 6.02828 24.4991 8.99549 25.2738C11.9936 26.4337 15.0007 27.5577 18.0188 28.6554C18.9745 29.2955 21.7155 30.2611 21.5203 30.8637C17.0966 29.3875 13.0228 27.0396 8.6417 25.4449C7.68074 24.7374 4.6383 23.8946 5.00506 23.3896C5.89454 23.8005 7.48215 24.2785 7.61311 24.2215C9.90924 25.2703 12.1952 26.368 14.5119 27.3562C16.2372 27.6077 18.3682 29.2431 20.3001 29.8816C22.0787 30.9292 23.9247 31.9258 25.773 32.8337L25.7603 32.9082L25.6264 32.9815" stroke="black" stroke-width="1.17676"/>
<path d="M36.5731 13C34.3855 14.3004 33.4464 16.8315 32.2961 18.9709C31.7831 20.7097 31.2845 22.4305 30.4916 24.0768C30.0249 24.8478 29.0342 28.4233 29.2215 25.8003C29.1772 23.5864 31.0178 21.936 31.3739 19.7957C32.0905 17.7794 33.3588 16.0134 35.0413 14.7013C32.0743 16.8486 30.6458 20.3134 29.1739 23.5251C28.4398 24.0386 27.467 27.5706 28.7359 25.9891C29.5511 23.1483 29.6554 20.037 31.3873 17.5303C32.1968 16.459 33.6531 14.4555 34.5692 14.3562C31.8389 16.8622 29.7249 19.9798 28.0052 23.2441C27.6371 24.3876 26.835 26.1874 27.7124 27.2479" stroke="black" stroke-width="1.17676"/>
<path d="M59.4589 21.7602H57.067V24.6683H59.2687V25.2802H57.067V28.8199H56.1561V21.158H59.4589L59.4589 21.7602Z" fill="black"/>
<path d="M64.02 21.7602H61.6281V24.6683H63.8298V25.2802H61.6281V28.8199H60.7172V21.158H64.02L64.02 21.7602Z" fill="black"/>
<path d="M68.581 21.7602H66.1892V24.6683H68.3909V25.2802H66.1892V28.8199H65.2783V21.158H68.5811L68.581 21.7602Z" fill="black"/>
<path d="M73.1423 21.7602H70.7505V24.6683H72.9522V25.2802H70.7505V28.8199H69.8396V21.158H73.1424L73.1423 21.7602Z" fill="black"/>
<path d="M77.7034 21.7602H75.3116V24.6683H77.5133V25.2802H75.3116V28.8199H74.4007V21.158H77.7035L77.7034 21.7602Z" fill="black"/>
<path d="M59.4589 34.2934H57.067V37.2015H59.2687V37.8134H57.067V41.3531H56.1561V33.6912H59.4589L59.4589 34.2934Z" fill="black"/>
<path d="M64.02 34.2934H61.6281V37.2015H63.8298V37.8134H61.6281V41.3531H60.7172V33.6912H64.02L64.02 34.2934Z" fill="black"/>
<path d="M68.581 34.2934H66.1892V37.2015H68.3909V37.8134H66.1892V41.3531H65.2783V33.6912H68.5811L68.581 34.2934Z" fill="black"/>
<path d="M73.1423 34.2934H70.7505V37.2015H72.9522V37.8134H70.7505V41.3531H69.8396V33.6912H73.1424L73.1423 34.2934Z" fill="black"/>
<path d="M77.7034 34.2934H75.3116V37.2015H77.5133V37.8134H75.3116V41.3531H74.4007V33.6912H77.7035L77.7034 34.2934Z" fill="black"/>
<path d="M59.4589 46.8263H57.067V49.7344H59.2687V50.3464H57.067V53.886H56.1561V46.2241H59.4589L59.4589 46.8263Z" fill="black"/>
<path d="M64.02 46.8263H61.6281V49.7344H63.8298V50.3464H61.6281V53.886H60.7172V46.2241H64.02L64.02 46.8263Z" fill="black"/>
<path d="M69.5318 53.3425C69.5317 53.5024 69.4629 53.633 69.3253 53.7342C69.1877 53.8353 69.0119 53.8859 68.7978 53.8859H66.0061C65.7921 53.8859 65.6173 53.8353 65.4819 53.7342C65.3465 53.633 65.2787 53.5024 65.2787 53.3425V46.2241H66.1896V53.2837H68.6208V46.2241H69.5317L69.5318 53.3425Z" fill="black"/>
<path d="M75.4295 53.3425C75.4295 53.5024 75.3606 53.633 75.223 53.7342C75.0854 53.8353 74.9096 53.8859 74.6955 53.8859H71.9038C71.6898 53.8859 71.515 53.8353 71.3796 53.7342C71.2442 53.633 71.1765 53.5024 71.1765 53.3425V46.2241H72.0873V53.2837H74.5185V46.2241H75.4294L75.4295 53.3425Z" fill="black"/>
<path d="M81.327 53.3425C81.327 53.5024 81.2582 53.633 81.1206 53.7342C80.983 53.8353 80.8072 53.8859 80.5931 53.8859H77.8014C77.5874 53.8859 77.4126 53.8353 77.2772 53.7342C77.1417 53.633 77.074 53.5024 77.074 53.3425V46.2241H77.9849V53.2837H80.4161V46.2241H81.327L81.327 53.3425Z" fill="black"/>
<path d="M60.4096 65.8755C60.4096 66.0354 60.3408 66.1659 60.2031 66.2671C60.0655 66.3683 59.8897 66.4189 59.6756 66.4189H56.8839C56.6699 66.4189 56.4951 66.3683 56.3597 66.2671C56.2243 66.1659 56.1566 66.0354 56.1566 65.8755V58.7571H57.0674V65.8167H59.4986V58.7571H60.4095L60.4096 65.8755Z" fill="black"/>
<path d="M66.3071 65.8755C66.3071 66.0354 66.2383 66.1659 66.1007 66.2671C65.963 66.3683 65.7872 66.4189 65.5731 66.4189H62.7815C62.5674 66.4189 62.3926 66.3683 62.2572 66.2671C62.1218 66.1659 62.0541 66.0354 62.0541 65.8755V58.7571H62.9649V65.8167H65.3961V58.7571H66.307L66.3071 65.8755Z" fill="black"/>
<path d="M72.2048 65.8755C72.2048 66.0354 72.136 66.1659 71.9984 66.2671C71.8608 66.3683 71.6849 66.4189 71.4708 66.4189H68.6792C68.4651 66.4189 68.2904 66.3683 68.1549 66.2671C68.0195 66.1659 67.9518 66.0354 67.9518 65.8755V58.7571H68.8627V65.8167H71.2938V58.7571H72.2047L72.2048 65.8755Z" fill="black"/>
<path d="M78.1024 65.8755C78.1024 66.0354 78.0336 66.1659 77.896 66.2671C77.7583 66.3683 77.5825 66.4189 77.3684 66.4189H74.5767C74.3627 66.4189 74.1879 66.3683 74.0525 66.2671C73.9171 66.1659 73.8494 66.0354 73.8494 65.8755V58.7571H74.7602V65.8167H77.1914V58.7571H78.1023L78.1024 65.8755Z" fill="black"/>
<path d="M84 65.8755C84 66.0354 83.9312 66.1659 83.7936 66.2671C83.656 66.3683 83.4801 66.4189 83.2661 66.4189H80.4744C80.2603 66.4189 80.0856 66.3683 79.9501 66.2671C79.8147 66.1659 79.747 66.0354 79.747 65.8755V58.7571H80.6579V65.8167H83.0891V58.7571H83.9999L84 65.8755Z" fill="black"/>
<path d="M23.63 39.2854C25.0925 43.2598 23.1655 47.6268 19.3264 49.0395C15.4871 50.4522 11.1894 48.3754 9.72701 44.4011C8.26457 40.4266 10.1915 36.0596 14.0306 34.647C17.8699 33.2343 22.1677 35.3111 23.63 39.2854Z" stroke="black" stroke-width="0.784507"/>
<path d="M19.9323 37.0852L11.2805 40.2687C9.95677 40.7558 9.27852 42.2237 9.7656 43.5475L10.3691 45.1876C10.8562 46.5114 12.3241 47.1896 13.6479 46.7025L22.2997 43.519C23.6234 43.032 24.3017 41.564 23.8146 40.2403L23.2111 38.6001C22.724 37.2764 21.2561 36.5981 19.9323 37.0852Z" fill="white" stroke="black" stroke-width="0.700546"/>
<path d="M16.4344 41.9335C17.0309 43.5545 16.1273 45.3791 14.4162 46.0087C12.7051 46.6383 10.8344 45.8347 10.2379 44.2135C9.6414 42.5925 10.5449 40.7679 12.2561 40.1383C13.9672 39.5087 15.8379 40.3124 16.4344 41.9335Z" fill="black" stroke="black" stroke-width="1.17676"/>
<path d="M29.8102 36.6202C28.3252 32.654 30.2274 28.2762 34.0585 26.8418C37.8897 25.4074 42.1991 27.4598 43.684 31.4258C45.1689 35.3919 43.2668 39.7698 39.4357 41.2041C35.6045 42.6385 31.295 40.5861 29.8102 36.6202Z" stroke="black" stroke-width="0.784507"/>
<path d="M33.5203 38.7996L42.1539 35.5671C43.4749 35.0726 44.1448 33.6008 43.6502 32.2798L43.0374 30.6431C42.5429 29.3222 41.0711 28.6522 39.7501 29.1468L31.1165 32.3792C29.7955 32.8738 29.1256 34.3456 29.6202 35.6666L30.2329 37.3032C30.7275 38.6242 32.1993 39.2941 33.5203 38.7996Z" fill="white" stroke="black" stroke-width="0.700546"/>
<path d="M36.9906 33.9312C36.385 32.3136 37.2782 30.4839 38.9858 29.8446C40.6933 29.2053 42.5685 29.9984 43.1742 31.6161C43.7798 33.2337 42.8866 35.0634 41.179 35.7027C39.4716 36.342 37.5963 35.549 36.9906 33.9312Z" fill="black" stroke="black" stroke-width="1.17676"/>
<path d="M48.9095 52.9628L25.9742 68.6006C25.9742 68.6006 17.7053 55.8865 28.9279 46.8822C40.1506 37.8772 47.8677 53.8323 47.8677 53.8323L48.9103 52.9635L48.9095 52.9628Z" fill="#871944" stroke="black" stroke-width="0.784508"/>
<path d="M33.6207 62.5187L44.3933 55.3949C44.3933 55.3949 39.6588 50.442 35.5321 55.0474C31.4053 59.6528 33.6207 62.5187 33.6207 62.5187Z" fill="#F5BFD7"/>
</g>
<defs>
<clipPath id="clip0_306_206">
<rect width="84" height="84" fill="white"/>
</clipPath>
</defs>
</svg>
