<svg width="84" height="84" viewBox="0 0 84 84" fill="none" xmlns="http://www.w3.org/2000/svg">
<path d="M16.5264 14.6203L21.3378 10.2378L21.988 9.71878L29.47 6.29982L38.85 5.31982L47.81 7.41982L54.7576 9.71878L60.3492 13.64L67.8914 21.9437L72.1176 29.5555L74.9785 41.4344L76.1488 51.6987L75.8887 60.9828L74.1982 66.5186L69.5169 70.8434L60.1542 77.0136L54.3675 78.2822L47.8006 78.7435H41.9489L30.7656 76.3793L20.5576 70.7858L14.6409 64.385L11.1299 57.9842L8.26904 49.0462L7.55383 40.9154L7.87893 34.457L8.72417 29.1518L9.69946 25.5189L11.2599 21.9437L16.5264 14.6203Z" fill="white"/>
<path d="M24.3693 65.3853C24.681 65.3564 25.1912 65.3564 25.503 65.3853C25.8148 65.4142 25.5597 65.4379 24.9361 65.4379C24.3126 65.4379 24.0575 65.4142 24.3693 65.3853ZM32.0033 65.3884C32.1904 65.3564 32.4965 65.3564 32.6836 65.3884C32.8706 65.4203 32.7176 65.4465 32.3434 65.4465C31.9693 65.4465 31.8162 65.4203 32.0033 65.3884ZM35.329 65.3833C36.0149 65.3585 37.1373 65.3585 37.8233 65.3833C38.5092 65.4081 37.948 65.4285 36.5762 65.4285C35.2043 65.4285 34.643 65.4081 35.329 65.3833ZM42.1368 65.3846C42.576 65.3575 43.2563 65.3577 43.6485 65.3846C44.0406 65.4121 43.6812 65.4344 42.8497 65.434C42.0183 65.434 41.6975 65.4112 42.1368 65.384V65.3846ZM46.5155 65.3891C46.7026 65.3571 47.0087 65.3571 47.1958 65.3891C47.3829 65.421 47.2298 65.4471 46.8557 65.4471C46.4815 65.4471 46.3285 65.421 46.5155 65.3891ZM51.3529 65.3891C51.54 65.3571 51.8461 65.3571 52.0332 65.3891C52.2203 65.421 52.0672 65.4471 51.6931 65.4471C51.3189 65.4471 51.1659 65.421 51.3529 65.3891ZM56.795 65.3833C58.645 65.362 61.672 65.362 63.522 65.3833C65.372 65.4046 63.8584 65.4221 60.1585 65.4221C56.4587 65.4221 54.945 65.4046 56.795 65.3833ZM71.139 65.3834L74.3343 65.3444L74.4053 65.015C74.4443 64.8338 74.4906 64.1565 74.5081 63.5098C74.5307 62.6772 74.6072 62.2682 74.7701 62.1086C74.9193 61.9623 75.0289 61.4913 75.0821 60.7674C75.1272 60.1537 75.2402 59.5669 75.3331 59.4634C75.5827 59.1856 75.5668 50.4292 75.3156 49.7974C75.213 49.5393 75.0962 48.5826 75.0561 47.6713C75.0149 46.7371 74.9087 45.9351 74.8126 45.8324C74.7188 45.7322 74.6734 45.5727 74.7116 45.4781C74.7498 45.3834 74.7239 45.2071 74.654 45.0863C74.5841 44.9655 74.5208 44.1812 74.5134 43.3434C74.4993 41.7643 74.3017 40.1402 74.0672 39.675C73.9929 39.5275 73.9001 39.1655 73.8611 38.8705C73.8221 38.5756 73.6708 38.0024 73.5248 37.5969C73.3789 37.1913 73.2307 36.4396 73.1956 35.9264C73.1605 35.4131 73.0358 34.8718 72.9186 34.7234C72.8014 34.575 72.7045 34.3312 72.7032 34.1817C72.702 34.0322 72.6029 33.6686 72.4831 33.3736C72.3633 33.0787 72.2623 32.6506 72.2586 32.4224C72.2549 32.1918 72.1249 31.9054 71.966 31.7779C71.7877 31.6348 71.6413 31.2735 71.5772 30.8186C71.5206 30.4172 71.4172 30.0888 71.3474 30.0888C71.2775 30.0888 71.1744 29.8475 71.1182 29.5526C71.062 29.2576 70.954 29.0163 70.8782 29.0163C70.8023 29.0163 70.7399 28.9107 70.7393 28.7817C70.7387 28.6526 70.6032 28.366 70.438 28.1448C70.2728 27.9236 70.1372 27.605 70.1366 27.4367C70.136 27.2685 70.0418 27.0989 69.9271 27.0599C69.8106 27.0203 69.6751 26.698 69.62 26.3292C69.553 25.8814 69.4296 25.6258 69.2361 25.534C69.0792 25.4595 68.9049 25.213 68.8487 24.9863C68.7926 24.7595 68.6514 24.412 68.535 24.2142C68.4187 24.0164 68.323 23.7611 68.3225 23.6468C68.3213 23.3663 68.0199 23.1172 67.682 23.1172C67.5297 23.1172 67.3689 23.0116 67.3246 22.8826C67.1418 22.3495 66.743 21.7672 66.1887 21.224C65.8652 20.907 65.6006 20.5396 65.6006 20.4076C65.6006 20.2585 65.4882 20.1677 65.3036 20.1677C65.1402 20.1677 64.9337 20.047 64.8447 19.8995C64.6911 19.6449 64.7298 19.6314 65.6097 19.6314C66.7347 19.6314 67.3485 19.9076 67.4754 20.4711C67.5244 20.688 67.7348 20.9844 67.943 21.1296C68.1512 21.2749 68.3216 21.4748 68.3216 21.574C68.3216 21.6731 68.3726 21.7743 68.435 21.7988C68.4973 21.8234 68.7139 22.115 68.9162 22.4468C69.1185 22.7787 69.4076 23.129 69.5586 23.2253C69.7097 23.3217 69.8333 23.5364 69.8333 23.7025C69.8333 23.8686 69.9331 24.1216 70.0552 24.2647C70.1773 24.4078 70.2793 24.6305 70.282 24.7596C70.2846 24.8886 70.4398 25.1295 70.6269 25.2948C71.003 25.6273 71.3362 26.3037 71.453 26.9718C71.4949 27.2114 71.5867 27.4075 71.657 27.4075C71.7273 27.4075 71.8322 27.6315 71.89 27.9052C71.9479 28.1789 72.1226 28.4956 72.2783 28.609C72.4526 28.7361 72.6155 29.1143 72.7026 29.5945C72.7803 30.023 72.9451 30.5536 73.0687 30.7735C73.1924 30.9934 73.3392 31.4428 73.3949 31.7723C73.4506 32.1017 73.6244 32.5158 73.7811 32.6925C73.9937 32.9322 74.066 33.2345 74.066 33.8832C74.066 34.4973 74.1271 34.7735 74.2739 34.8235C74.4194 34.873 74.5151 35.2886 74.5928 36.208C74.6642 37.0527 74.7767 37.5711 74.9079 37.6599C75.038 37.7479 75.123 38.1304 75.1423 38.7149C75.1607 39.2693 75.2527 39.7028 75.3752 39.8114C75.6306 40.0379 75.6399 40.5451 75.3887 40.5505C75.2838 40.5527 75.3175 40.6154 75.4643 40.6912C75.6979 40.8119 75.7288 41.0666 75.7288 42.8709C75.7288 45.0084 76.2221 49.178 76.5267 49.6151C76.6905 49.8501 76.6735 59.8516 76.509 60.0302C76.4291 60.1169 76.3278 60.7308 76.2838 61.3945C76.2399 62.0582 76.1357 62.933 76.0522 63.3385C75.6774 65.1599 75.6714 65.319 75.9748 65.3881C76.1305 65.4235 74.3873 65.4457 72.1008 65.4374C68.3648 65.4238 68.2674 65.4184 71.139 65.3834ZM50.7932 60.3275C50.6859 60.213 50.4058 60.1192 50.1707 60.1192C49.9237 60.1192 49.6774 60.0201 49.5873 59.8846C49.4539 59.6838 49.4105 59.6782 49.2867 59.8457C49.1617 60.0148 49.103 60.0103 48.8563 59.8122C48.6992 59.6861 48.3589 59.5829 48.1002 59.5829C47.8414 59.5829 47.5913 59.5278 47.5444 59.4605C47.4975 59.3932 47.179 59.2962 46.8368 59.2449C46.432 59.1842 46.1904 59.0702 46.1457 58.9187C46.0843 58.7103 44.814 58.1082 44.4359 58.1082C44.3535 58.1082 44.2861 58.0151 44.2861 57.9014C44.2861 57.6242 43.8286 57.2103 43.4547 57.1492C43.2868 57.1218 43.1322 56.9748 43.1069 56.8186C43.0819 56.6639 42.8798 56.4533 42.6579 56.3507C42.436 56.2481 42.0823 55.989 41.872 55.775C41.6616 55.5609 41.276 55.1845 41.0151 54.9385C40.7541 54.6925 40.5011 54.4001 40.4529 54.2887C40.4047 54.1772 40.2696 54.086 40.1526 54.086C40.0357 54.086 39.899 53.904 39.8488 53.6816C39.7887 53.4148 39.628 53.2335 39.3764 53.1487C39.1668 53.078 38.9952 52.9518 38.9952 52.8684C38.9952 52.7849 38.9053 52.7472 38.7954 52.7846C38.6855 52.822 38.5149 52.738 38.4162 52.5979C38.2793 52.4034 38.06 52.3431 37.4898 52.3431C36.9378 52.3431 36.7025 52.2819 36.5886 52.1085C36.4615 51.9149 36.4306 51.9559 36.4121 52.3431C36.3997 52.6012 36.4071 52.8727 36.4286 52.9464C36.4501 53.0202 36.4632 53.2917 36.4577 53.5498C36.4523 53.8078 36.5472 54.1559 36.6687 54.3232C36.8722 54.6034 36.8634 54.636 36.5576 54.7364C36.2749 54.8291 36.2629 54.8579 36.4767 54.9307C36.7307 55.0171 36.84 55.6949 36.6 55.6949C36.4368 55.6949 36.0636 55.3162 35.8261 54.9096C35.6926 54.681 35.6872 54.553 35.8067 54.447C36.0386 54.2414 36.0121 54.086 35.7451 54.086C35.4736 54.086 35.4228 53.2158 35.6859 53.0715C35.793 53.0128 35.7107 52.877 35.4578 52.6949C35.0805 52.4234 35.0727 52.3923 35.2902 52.0261C35.4301 51.7908 35.5183 51.2822 35.5183 50.7123C35.5183 50.1708 35.6081 49.6285 35.7333 49.4139C35.8515 49.2111 35.993 48.7767 36.0478 48.4485C36.1025 48.1203 36.2439 47.7565 36.3619 47.6401C36.48 47.5237 36.5765 47.3621 36.5765 47.2811C36.5765 47.2001 36.7466 47.0152 36.9545 46.8702C37.2141 46.689 37.3324 46.4749 37.3324 46.1859C37.3324 45.9357 37.4242 45.734 37.5591 45.6881C37.6838 45.6456 37.7859 45.5269 37.7859 45.4241C37.7859 45.3214 37.8709 45.2371 37.9748 45.2367C38.3227 45.2355 39.7963 43.872 39.9665 43.3939C40.0255 43.228 40.1713 43.0923 40.2904 43.0923C40.4095 43.0923 40.507 43.0018 40.507 42.8912C40.507 42.7794 40.6413 42.6901 40.8093 42.6901C41.0522 42.6901 41.1116 42.6007 41.1116 42.2352C41.1116 41.6659 41.4286 41.5383 41.8514 41.9375C42.2574 42.3208 42.2652 42.7707 41.8675 42.863C41.69 42.9042 41.5652 43.0459 41.5652 43.2062C41.5652 43.3564 41.4202 43.5694 41.2429 43.6794C41.0464 43.8016 40.9561 43.9614 41.0114 44.0893C41.0683 44.2208 41.0194 44.2989 40.8801 44.2989C40.7361 44.2989 40.6581 44.4351 40.6581 44.6868C40.6581 45.143 40.3125 45.3139 39.9822 45.021C39.8017 44.8609 39.7511 44.8556 39.7511 44.9969C39.7511 45.0964 39.6151 45.2811 39.4488 45.4074C39.2825 45.5337 39.1464 45.7281 39.1464 45.8394C39.1464 45.9507 39.0457 46.0418 38.9226 46.0418C38.7994 46.0418 38.6583 46.1845 38.609 46.3588C38.5597 46.5331 38.2539 46.8498 37.9294 47.0626C37.605 47.2754 37.338 47.5231 37.336 47.613C37.334 47.7029 37.2052 48.0046 37.0497 48.2834C36.8477 48.6457 36.7759 49.036 36.7981 49.6516L36.8291 50.5129L37.5721 50.5645C37.9807 50.5929 38.3905 50.703 38.4828 50.8092C38.6635 51.0171 39.9023 51.0846 39.9023 50.8866C39.9023 50.8228 40.2254 50.6641 40.6203 50.5338C41.0153 50.4034 41.403 50.2444 41.482 50.1804C41.561 50.1163 41.8182 50.0639 42.0536 50.0639C42.2891 50.0639 42.5196 49.9762 42.566 49.869C42.6124 49.7618 42.9524 49.5444 43.3216 49.3858C43.7898 49.1848 44.0571 48.9613 44.2052 48.6471C44.4074 48.2179 44.5634 48.1377 45.42 48.0227C45.5862 48.0004 45.7223 47.8948 45.7223 47.788C45.7223 47.6813 45.9264 47.5064 46.1758 47.3994C46.4252 47.2925 46.7474 47.1544 46.8918 47.0926C47.0362 47.0308 47.3083 46.9784 47.4965 46.976C47.9319 46.9706 48.3678 46.6803 48.3678 46.3957C48.3678 46.2675 48.49 46.1759 48.6612 46.1759C48.8225 46.1759 48.9924 46.1216 49.0386 46.0553C49.0848 45.9889 49.4579 45.8634 49.8675 45.7762C50.2772 45.689 50.6494 45.5321 50.6947 45.4275C50.8185 45.1415 54.7506 45.1514 55.0192 45.4385C55.1227 45.5491 55.4201 45.6405 55.6801 45.6416C55.9402 45.6426 56.323 45.7305 56.5309 45.8369C56.7387 45.9433 57.0789 46.0966 57.2867 46.1776C57.4946 46.2587 57.8899 46.5479 58.1651 46.8202C58.4404 47.0926 58.7465 47.3182 58.8454 47.3215C58.9443 47.3249 59.0096 47.3966 58.9905 47.4809C58.9714 47.5651 59.1925 47.8321 59.4818 48.0741C59.7711 48.3161 60.0078 48.6214 60.0078 48.7527C60.0078 48.884 60.0928 48.9924 60.1967 48.9937C60.4784 48.9971 61.0042 49.5448 61.1175 49.9529C61.1885 50.2087 61.3684 50.3555 61.7461 50.4661C62.1068 50.5717 62.2753 50.703 62.2753 50.8787C62.2753 51.0205 62.3377 51.1365 62.4141 51.1365C62.4904 51.1365 62.6504 51.1697 62.7696 51.2102C63.0313 51.2993 63.3329 50.1303 63.2384 49.3936C63.2052 49.1355 63.1531 48.5872 63.1226 48.1752C63.052 47.2229 62.9161 46.8462 62.643 46.8462C62.5239 46.8462 62.4264 46.7237 62.4264 46.5739C62.4264 46.4241 62.3248 46.2669 62.2006 46.2246C62.0763 46.1824 62.0097 46.0975 62.0525 46.0361C62.0953 45.9747 61.9486 45.8151 61.7266 45.6814C61.5045 45.5478 61.1357 45.2726 60.907 45.0698C60.6782 44.867 60.3483 44.7011 60.1738 44.7011C59.9926 44.7011 59.8566 44.6149 59.8566 44.5C59.8566 44.3894 59.7885 44.2989 59.7054 44.2989C59.6223 44.2989 59.5542 44.2386 59.5542 44.1648C59.5542 43.9708 60.1196 43.9997 60.21 44.1983C60.2555 44.2984 60.291 44.2715 60.2981 44.1313C60.3047 44.0023 60.225 43.8875 60.1211 43.8763C60.0172 43.865 59.8533 43.8491 59.7568 43.8409C59.4896 43.8182 58.9459 43.34 59.0376 43.2084C59.1505 43.0464 60.0077 43.0623 60.0077 43.2263C60.0077 43.3001 60.113 43.3604 60.2417 43.3604C60.5401 43.3604 61.2171 44.0022 61.2171 44.2851C61.2171 44.4059 61.4989 44.6204 61.8596 44.7743C62.2905 44.958 62.5183 45.148 62.5514 45.3511C62.5797 45.5244 62.7589 45.7074 62.9704 45.7787C63.2103 45.8596 63.372 46.0452 63.4312 46.3077C63.4814 46.5302 63.5819 46.7122 63.6547 46.7122C63.7274 46.7122 63.7862 47.7227 63.7852 48.9578C63.7834 51.3497 64.0559 54.4882 64.2654 54.4882C64.4755 54.4882 64.4068 55.6468 64.1726 56.0527C64.0522 56.2615 63.9182 56.5378 63.875 56.6669C63.8318 56.7959 63.7263 56.9015 63.6405 56.9015C63.447 56.9015 63.4413 56.5646 63.6252 55.9957C63.712 55.7275 63.712 55.5608 63.6252 55.5608C63.5479 55.5608 63.4846 55.2665 63.4846 54.9069C63.4846 54.4892 63.4027 54.1926 63.2579 54.086C63.1169 53.9822 63.0311 53.6875 63.0311 53.3066C63.0311 52.7392 63.0148 52.7133 62.8092 52.9543C62.6871 53.0974 62.5827 53.4257 62.5771 53.6838C62.5715 53.9419 62.4697 54.3039 62.3509 54.4882C62.232 54.6726 62.1324 55.0234 62.1295 55.2678C62.1256 55.5889 62.0038 55.802 61.6904 56.0358C61.3988 56.2534 61.2246 56.5377 61.1586 56.9037C61.1047 57.2031 60.9597 57.4823 60.8365 57.5243C60.7132 57.5662 60.6124 57.7147 60.6124 57.8543C60.6124 57.9939 60.4764 58.2288 60.3101 58.3763C60.1438 58.5237 60.0077 58.7335 60.0077 58.8424C60.0077 59.0544 59.0713 59.5084 58.3402 59.6509C58.0953 59.6986 57.8561 59.7933 57.8086 59.8614C57.7612 59.9294 57.4033 59.9899 57.0133 59.9957C56.2396 60.0073 54.4298 60.2695 54.1878 60.4052C54.1046 60.4518 53.3507 60.5002 52.5124 60.5129C51.2958 60.5312 50.9487 60.4939 50.7932 60.3275ZM51.6934 59.2924C51.6934 59.231 51.6294 59.1807 51.5511 59.1807C51.4729 59.1807 51.3739 59.231 51.331 59.2924C51.2882 59.3539 51.3522 59.4042 51.4733 59.4042C51.5943 59.4042 51.6934 59.3539 51.6934 59.2924ZM54.1121 59.3148C54.2368 59.2433 54.2642 59.1839 54.173 59.1828C54.0818 59.1817 53.9457 59.0606 53.8707 58.9139C53.7426 58.6634 53.7184 58.6717 53.4767 59.0479C53.2242 59.441 53.2257 59.4488 53.5522 59.4468C53.7354 59.4457 53.9874 59.3863 54.1121 59.3148ZM55.8782 58.7534C55.8299 58.6464 55.7941 58.6782 55.7869 58.8344C55.7803 58.9757 55.816 59.0549 55.8663 59.0103C55.9165 58.9658 55.9219 58.8502 55.8782 58.7534ZM36.2746 53.818C36.2746 53.7442 36.2446 53.6839 36.2079 53.6839C36.1713 53.6839 36.0992 53.7442 36.0479 53.818C35.9965 53.8917 36.0265 53.952 36.1145 53.952C36.2026 53.952 36.2746 53.8917 36.2746 53.818ZM42.0438 53.4235C42.0125 53.1438 41.8242 52.8201 41.5525 52.5792C41.3102 52.3643 41.112 52.0674 41.112 51.9195C41.112 51.3911 40.7335 51.768 40.6863 52.3433C40.6515 52.7681 40.7035 52.9582 40.8784 53.045C41.0104 53.1105 41.0852 53.2116 41.0448 53.2696C40.9246 53.4421 41.572 53.9708 41.8438 53.922C42.0309 53.8884 42.0817 53.7619 42.0438 53.4235ZM61.7593 52.9734C61.8798 52.9128 61.9656 52.6794 61.9565 52.4371L61.9405 52.008L61.7762 52.3767C61.6858 52.5795 61.5304 52.7454 61.4307 52.7454C61.1932 52.7454 61.0243 53.3597 61.1603 53.7288C61.2556 53.9875 61.2824 53.9681 61.4066 53.5498C61.4832 53.2917 61.642 53.0323 61.7593 52.9734ZM43.356 52.8664C43.9309 52.6886 43.9499 52.5766 43.4541 52.2885C43.2463 52.1677 43.0762 51.9475 43.0762 51.7991C43.0762 51.4063 42.6324 50.8684 42.3083 50.8684C41.9061 50.8684 41.6054 51.4037 41.9 51.5952C42.0225 51.6747 42.2178 51.9812 42.3341 52.2761C42.5029 52.7044 42.7094 52.9906 42.8647 53.0115C42.873 53.0126 43.0941 52.9473 43.356 52.8664ZM60.4607 52.6113C60.4607 52.5376 60.4307 52.4773 60.3941 52.4773C60.3574 52.4773 60.2854 52.5376 60.234 52.6113C60.1826 52.6851 60.2126 52.7454 60.3007 52.7454C60.3887 52.7454 60.4607 52.6851 60.4607 52.6113ZM59.7095 51.7918C59.8253 51.4148 60.0076 51.0766 60.1148 51.0401C60.2219 51.0036 60.3096 50.8306 60.3096 50.6555C60.3096 50.4278 60.202 50.3133 59.9317 50.2531C59.6952 50.2005 59.5537 50.0741 59.5537 49.9154C59.5537 49.7759 59.4857 49.6618 59.4026 49.6618C59.3194 49.6618 59.2514 49.8729 59.2514 50.131C59.2514 50.3891 59.2454 50.6154 59.238 50.6338C59.0874 51.0109 59.0112 51.9344 59.1114 52.1682C59.3154 52.644 59.4796 52.5406 59.7095 51.7918ZM61.2166 51.4478C61.2166 51.4241 61.1622 51.4047 61.0958 51.4047C60.9746 51.4047 60.6067 52.1863 60.6179 52.4197C60.6231 52.5273 61.2166 51.5639 61.2166 51.4478ZM58.1946 51.4382C58.1966 50.0439 58.3545 49.1255 58.5922 49.1255C58.7054 49.1255 58.7979 49.0048 58.7979 48.8574C58.7979 48.7099 58.7469 48.5964 58.6846 48.6051C58.3672 48.6495 58.1933 48.5677 58.1933 48.3739C58.1933 48.2555 58.0232 47.9794 57.8153 47.7603L57.4374 47.362L57.4107 48.7465C57.396 49.508 57.3692 50.3813 57.3512 50.6871C57.3332 50.9929 57.4122 51.385 57.5267 51.5585C57.6412 51.732 57.778 51.9796 57.8305 52.1086C58.0322 52.6034 58.1933 52.3068 58.1946 51.4382ZM44.7965 50.8072C44.7472 50.6934 44.6122 50.6003 44.4964 50.6003C44.3805 50.6003 44.2858 50.5098 44.2858 50.3992C44.2858 50.1541 44.1219 50.1429 43.796 50.3657C43.5112 50.5603 43.454 50.8174 43.604 51.2278C43.717 51.537 44.0691 51.7246 44.2994 51.5983C44.3751 51.5569 44.4425 51.6019 44.4493 51.6984C44.4561 51.795 44.5571 51.6805 44.6738 51.444C44.7905 51.2076 44.8457 50.921 44.7965 50.8072ZM46.5305 50.3229C46.6908 50.1704 46.7895 49.9359 46.75 49.8018C46.7105 49.6677 46.7521 49.5175 46.8424 49.4679C46.9328 49.4184 47.0068 49.1702 47.0068 48.9165C47.0068 48.5064 46.9621 48.4552 46.6045 48.4552C46.3524 48.4552 46.0563 48.5995 45.8109 48.842C45.5956 49.0548 45.2834 49.2517 45.1172 49.2796C44.9509 49.3075 44.8318 49.3747 44.8526 49.429C44.8734 49.4833 44.8904 49.6484 44.8904 49.7959C44.8904 49.9433 44.9773 50.064 45.0836 50.064C45.1898 50.064 45.3932 50.1847 45.5356 50.3321C45.8662 50.6746 46.164 50.6719 46.5305 50.3229ZM56.1527 50.2316C56.2124 50.0288 56.345 49.2963 56.4473 48.6038L56.6332 47.3448L56.1672 46.8944C55.8371 46.5755 55.5684 46.4438 55.2465 46.4433C54.9965 46.4428 54.6084 46.3575 54.384 46.2537C53.7497 45.9602 53.6686 46.184 53.7039 48.1301C53.7316 49.6623 53.7715 49.9047 54.037 50.154C54.3733 50.47 54.6841 50.5619 55.4937 50.5848C55.9735 50.5983 56.0581 50.5529 56.1527 50.2316ZM49.3376 50.3848C49.5379 50.3167 49.5767 50.0327 49.5767 48.6343V46.9651L49.2407 47.1738C49.0559 47.2886 48.813 47.3825 48.7008 47.3825C48.5887 47.3825 48.3943 47.4736 48.2688 47.5849C48.1433 47.6961 47.9859 47.7572 47.9189 47.7205C47.852 47.6838 47.7638 47.8091 47.7228 47.999C47.6184 48.4835 47.7782 50.0712 47.9234 49.9917C47.9893 49.9556 48.0867 50.0475 48.1399 50.1961C48.2381 50.4704 48.8177 50.5618 49.3376 50.3848ZM52.4511 50.1603C53.0259 49.75 53.2248 49.2412 53.2916 48.0106C53.3283 47.3334 53.3174 46.6092 53.2673 46.4014C53.1803 46.0405 53.1408 46.0248 52.3969 46.0554C51.9682 46.0731 51.4834 46.1677 51.3193 46.2658C51.1553 46.3639 50.8622 46.4441 50.668 46.4441C50.4737 46.4441 50.3542 46.5008 50.4024 46.57C50.4507 46.6392 50.3786 46.7512 50.2422 46.8188C50.0453 46.9166 50.0145 47.0628 50.0924 47.5309C50.1463 47.8549 50.2397 48.5225 50.2999 49.0144C50.3602 49.5063 50.4432 49.9319 50.4844 49.9601C51.0022 50.3145 52.0811 50.4243 52.4511 50.1603ZM58.1934 42.8321C58.1934 42.7627 58.2614 42.6687 58.3445 42.6231C58.4277 42.5775 58.4957 42.6343 58.4957 42.7493C58.4957 42.8642 58.4277 42.9583 58.3445 42.9583C58.2614 42.9583 58.1934 42.9015 58.1934 42.8321ZM64.6936 39.6065C64.5689 39.535 64.2833 39.4756 64.0589 39.4745C63.8346 39.4734 63.4675 39.3216 63.2432 39.1373C63.019 38.9529 62.7434 38.8021 62.6308 38.8021C62.5182 38.8021 62.4261 38.7101 62.4261 38.5977C62.4261 38.4786 62.2402 38.3602 61.9813 38.3143C61.5297 38.2342 60.7632 37.409 60.7632 37.0029C60.7632 36.8951 60.6952 36.7696 60.6121 36.724C60.5289 36.6784 60.4609 36.5281 60.4609 36.39C60.4609 36.2518 60.3248 36.1005 60.1586 36.0537C59.9923 36.0068 59.8562 35.8821 59.8562 35.7765C59.8562 35.6708 59.7882 35.5844 59.705 35.5844C59.6219 35.5844 59.5539 35.4841 59.5539 35.3616C59.5539 35.0624 58.8586 34.0249 58.5988 33.9364C58.3512 33.8521 57.9656 32.7191 58.1127 32.508C58.1708 32.4246 58.1285 32.3761 58.0156 32.3969C57.7732 32.4415 57.6496 31.6215 57.8633 31.3859C57.9425 31.2985 58.0553 31.0278 58.1141 30.7842C58.1739 30.5362 58.298 30.365 58.3961 30.3951C58.5695 30.4483 58.6051 30.8427 58.4832 31.3612C58.4423 31.535 58.4999 31.6293 58.6469 31.6293C58.7819 31.6293 58.893 31.4801 58.9215 31.2606C58.9478 31.0578 59.0207 30.8919 59.0835 30.8919C59.1463 30.8919 59.3514 30.5903 59.5393 30.2216C59.7271 29.8529 59.9678 29.5512 60.0742 29.5512C60.1805 29.5512 60.5199 29.34 60.8284 29.082C61.137 28.8239 61.4876 28.6127 61.6075 28.6127C61.7274 28.6127 61.9436 28.5528 62.088 28.4796C62.2324 28.4064 62.6226 28.262 62.9552 28.1587C63.2877 28.0554 63.7782 27.8918 64.0451 27.7952C64.5597 27.6089 64.4741 27.5865 65.9786 28.3002C66.8504 28.7137 67.2897 28.8808 67.5051 28.8808C67.7749 28.8808 69.0776 30.0696 69.0776 30.3159C69.0776 30.4152 69.2491 30.5542 69.4588 30.6249C69.7028 30.7072 69.8709 30.8908 69.926 31.1352C69.9734 31.3452 70.176 31.6262 70.3763 31.7596C70.5765 31.8929 70.7404 32.0841 70.7404 32.1844C70.7404 32.2847 70.7924 32.3667 70.8559 32.3667C71.0026 32.3667 71.4947 33.3645 71.5011 33.6748C71.5037 33.8034 71.6057 34.0256 71.7278 34.1688C72.1099 34.6169 71.9734 35.4504 71.5179 35.4502C71.3813 35.4502 71.0021 35.239 70.6752 34.981C70.3483 34.723 69.9628 34.5119 69.8185 34.5119C69.6743 34.5119 69.5336 34.455 69.5058 34.3854C69.4781 34.3159 69.1153 34.1811 68.6996 34.086C68.2839 33.9908 67.9098 33.8806 67.8682 33.841C67.6474 33.6307 66.8604 33.4393 66.2167 33.4393C65.7729 33.4393 65.4171 33.3652 65.3096 33.2504C65.176 33.1075 64.5867 33.0503 62.8953 33.0158C61.6647 32.9906 60.5625 32.9088 60.4459 32.8339C60.0702 32.5924 59.6332 32.6782 59.5811 33.0036C59.5488 33.2051 59.6105 33.3052 59.7672 33.3052C60.0174 33.3052 60.2499 33.8701 60.0925 34.0959C59.9424 34.3113 60.1701 34.9141 60.4016 34.9141C60.5173 34.9141 60.612 34.9981 60.612 35.1008C60.612 35.2036 60.7073 35.32 60.8237 35.3597C60.9401 35.3993 61.081 35.6712 61.1367 35.9639C61.1925 36.2566 61.3702 36.6077 61.5316 36.7441C61.9543 37.1014 62.1475 37.2769 62.6131 37.7263C62.8407 37.9461 63.1929 38.1628 63.3958 38.2079C63.5987 38.2531 63.8015 38.3751 63.8464 38.479C63.8954 38.5923 64.1422 38.6681 64.4621 38.6681C64.7557 38.6681 65.0044 38.7284 65.0148 38.8021C65.051 39.0587 65.0833 39.1391 65.2711 39.439C65.4357 39.7018 65.4253 39.7404 65.1902 39.7386C65.0417 39.7375 64.8183 39.678 64.6936 39.6065ZM66.3733 32.6013C66.3825 32.5092 66.3785 32.3038 66.3644 32.1449C66.3502 31.986 66.4107 31.8166 66.4988 31.7683C66.5868 31.72 66.6589 31.5379 66.6589 31.3636C66.6589 31.1892 66.8255 30.8709 67.0292 30.6563C67.4312 30.2325 67.411 29.6853 66.9933 29.6853C66.864 29.6853 66.6366 29.5877 66.4879 29.4683C66.3393 29.349 65.9088 29.2205 65.5312 29.1828C65.0885 29.1385 64.8448 29.0489 64.8448 28.9305C64.8448 28.7009 64.4788 28.6916 64.2132 28.9144C64.1033 29.0066 63.7073 29.101 63.3331 29.1243C62.959 29.1476 62.4815 29.2748 62.272 29.4071C62.0626 29.5394 61.7429 29.6893 61.5617 29.7403C61.3805 29.7914 61.1863 29.9657 61.1302 30.1279C61.0155 30.4592 60.6584 30.7972 60.292 30.9212C60.1575 30.9667 60.0139 31.1598 59.9728 31.3502C59.9318 31.5406 59.9058 31.6979 59.915 31.6999C59.9243 31.7018 60.7482 31.7394 61.7458 31.7835C62.7436 31.8275 63.653 31.9297 63.7667 32.0106C63.8804 32.0915 64.3018 32.1706 64.7032 32.1865C65.4602 32.2164 66.0542 32.4156 66.0542 32.6396C66.0542 32.8321 66.3538 32.7962 66.3733 32.6013ZM70.3687 39.0304C70.1396 38.7203 70.183 38.2658 70.4416 38.2658C70.573 38.2658 71.3544 36.8499 71.5877 36.1891C71.7373 35.7652 72.034 35.6376 72.3935 35.8425C72.579 35.9482 72.5809 36.0454 72.4071 36.5127C72.2952 36.8133 72.1465 37.0592 72.0767 37.0592C72.0069 37.0592 71.9497 37.1566 71.9497 37.2756C71.9497 37.4686 71.7966 37.7713 71.1112 38.9327C70.8429 39.3872 70.6509 39.4124 70.3687 39.0304ZM29.3746 38.0647C29.3268 37.9541 29.1629 37.8636 29.0104 37.8636C28.8579 37.8636 28.6908 37.8028 28.639 37.7285C28.4915 37.5168 27.3357 37.0592 26.9485 37.0592C26.7563 37.0592 26.599 36.9989 26.599 36.9251C26.599 36.8514 26.5075 36.791 26.3956 36.791C26.1255 36.791 25.692 36.3557 25.692 36.0845C25.692 35.6896 25.9931 35.6948 26.7407 36.1028C27.1476 36.3248 27.7336 36.5486 28.043 36.6001C28.3524 36.6516 28.7323 36.8061 28.8872 36.9435C29.0421 37.0809 29.307 37.1932 29.4759 37.1932C29.6448 37.1932 29.8222 37.2837 29.87 37.3944C29.9179 37.505 30.0518 37.5955 30.1676 37.5955C30.5195 37.5955 30.4095 38.093 30.0381 38.1813C29.5413 38.2994 29.4708 38.287 29.3746 38.0647ZM23.6848 36.0388C23.4964 35.8717 23.559 34.78 23.757 34.78C23.8981 34.78 23.8981 34.7442 23.757 34.6191C23.491 34.3832 23.5247 33.7074 23.8023 33.7074C23.927 33.7074 24.0121 33.632 23.9913 33.5398C23.9687 33.4395 24.1507 33.3554 24.4448 33.3302C24.8836 33.2927 24.9361 33.3249 24.9361 33.6319C24.9361 33.8862 25.0147 33.9755 25.2384 33.9755C25.4904 33.9755 25.5408 33.8862 25.5408 33.4393C25.5408 33.1443 25.6118 32.903 25.6986 32.903C25.7853 32.903 25.84 32.8276 25.8201 32.7354C25.7625 32.4692 26.0054 31.9425 26.3255 31.6396C26.4873 31.4865 26.6587 31.1901 26.7064 30.9809C26.7541 30.7718 26.8855 30.5693 26.9984 30.5309C27.1113 30.4924 27.2036 30.3533 27.2036 30.2216C27.2036 30.0899 27.3057 29.9474 27.4304 29.9049C27.5551 29.8625 27.6571 29.7526 27.6571 29.6607C27.6571 29.4983 27.8945 29.2513 28.7531 28.5202C28.9818 28.3255 29.1688 28.0234 29.1688 27.849C29.1688 27.6638 29.279 27.5015 29.4334 27.4592C29.5789 27.4194 29.8 27.329 29.9247 27.2584C30.0494 27.1879 30.2642 27.0962 30.402 27.0546C30.5398 27.0131 30.6865 26.864 30.728 26.7233C30.7811 26.5432 30.9379 26.4676 31.2585 26.4676C31.5087 26.4676 31.7383 26.4016 31.7686 26.3209C31.9015 25.9675 34.7305 25.8171 36.1982 26.0855C36.6139 26.1615 37.1751 26.2225 37.4454 26.2211C37.7156 26.2197 37.9366 26.281 37.9366 26.3574C37.9366 26.4338 38.0217 26.4685 38.1256 26.4345C38.2295 26.4006 38.5187 26.4845 38.7681 26.6209C39.0175 26.7574 39.4087 26.9354 39.6373 27.0166C39.8659 27.0978 40.053 27.2488 40.053 27.3522C40.053 27.4556 40.1428 27.5401 40.2525 27.5401C40.5279 27.5401 41.0833 28.1322 41.2023 28.5528C41.2724 28.8004 41.3474 28.8591 41.4629 28.7566C41.7283 28.5213 42.1916 28.592 42.2768 28.8809C42.3202 29.0283 42.4473 29.149 42.5591 29.149C42.7482 29.149 42.9125 29.5469 43.1474 30.5732C43.2585 31.0592 42.8871 31.3087 42.6315 30.9198C42.4982 30.717 42.4804 30.7241 42.4763 30.9815C42.4652 31.6827 42.4243 31.6963 40.325 31.6963C38.5296 31.6963 38.3554 31.6747 38.2874 31.4438C38.1978 31.1397 37.5804 31.0295 35.9547 31.0274C34.3972 31.0254 33.4015 31.1576 33.4015 31.3662C33.4015 31.4739 33.0699 31.57 32.4945 31.6293C31.9956 31.6806 31.5875 31.7705 31.5875 31.829C31.5875 31.8875 31.4004 31.9742 31.1717 32.0216C30.4356 32.1742 29.9246 32.395 29.9246 32.5605C29.9246 32.6492 29.6015 32.8135 29.2065 32.9255C28.8116 33.0376 28.5055 33.199 28.5263 33.2842C28.5471 33.3695 28.394 33.4392 28.1862 33.4392C27.9783 33.4392 27.8082 33.5055 27.8082 33.5865C27.8082 33.8506 26.8785 34.5118 26.5073 34.5118C26.1224 34.5118 26.0308 34.7587 26.3204 35.0156C26.4529 35.1331 26.4484 35.2209 26.3019 35.3776C26.0823 35.6122 25.6059 35.6523 25.4636 35.4481C25.4114 35.3731 25.3108 35.3435 25.2401 35.3823C25.1694 35.421 25.0022 35.3557 24.8684 35.2371C24.6739 35.0646 24.5807 35.0542 24.4027 35.1852C24.2803 35.2753 24.1802 35.4206 24.1802 35.5081C24.1802 35.7504 23.8086 36.1485 23.6848 36.0388ZM27.6571 32.5523C27.7818 32.4571 28.0236 32.2675 28.1945 32.1309C28.3654 31.9944 28.9024 31.7824 29.3879 31.66C29.8734 31.5375 30.3994 31.3146 30.557 31.1646C30.7145 31.0147 30.9204 30.892 31.0146 30.892C31.1087 30.892 31.3056 30.7957 31.4521 30.6781C31.6213 30.5424 32.0597 30.4507 32.6525 30.4271C33.1662 30.4067 33.6323 30.3243 33.6883 30.2439C33.7474 30.159 34.4201 30.0817 35.2964 30.0592L36.8028 30.0205L36.8157 29.3625C36.8253 28.8768 36.9074 28.648 37.1295 28.4885C37.295 28.3697 37.5489 28.112 37.6938 27.9159C37.9493 27.5701 37.9473 27.5547 37.6287 27.4035C37.3217 27.2578 36.9501 27.2038 35.9335 27.1571C35.6743 27.1452 35.5178 27.0623 35.5178 26.9369C35.5178 26.6433 33.2808 26.6433 33.1538 26.9369C33.1009 27.0592 32.8722 27.138 32.5701 27.138C32.2828 27.138 32.0389 27.2175 31.9918 27.3264C31.9469 27.4301 31.7138 27.5532 31.4737 27.6C30.9928 27.6936 29.9246 28.538 29.9246 28.8244C29.9246 28.9241 29.7716 29.0772 29.5845 29.1647C29.0856 29.3982 28.6176 29.8805 28.5055 30.2766C28.4514 30.4676 28.331 30.6238 28.2378 30.6238C28.0079 30.6238 27.6678 31.0395 27.6619 31.3277C27.6593 31.4568 27.6057 31.5623 27.5429 31.5623C27.4801 31.5623 27.3541 31.7584 27.2629 31.9981C27.1717 32.2377 27.0455 32.5401 26.9824 32.6699C26.8899 32.8602 26.9223 32.8885 27.149 32.8157C27.3037 32.766 27.5324 32.6475 27.6571 32.5523ZM42.4252 30.1236C42.3869 29.9931 42.353 30.0674 42.3499 30.2886C42.3468 30.5098 42.3782 30.6166 42.4196 30.5258C42.461 30.435 42.4636 30.254 42.4252 30.1236ZM42.1693 29.358C42.1693 29.1568 41.8979 28.9428 41.7777 29.0494C41.6723 29.1429 41.8811 29.5512 42.0343 29.5512C42.1085 29.5512 42.1693 29.4643 42.1693 29.358ZM40.2419 36.0319C40.138 35.9947 40.0529 35.8859 40.0529 35.79C40.0529 35.6942 39.9037 35.5811 39.7213 35.5388C39.3972 35.4637 39.3961 35.4556 39.6691 35.188C39.8228 35.0374 40.0418 34.9141 40.1557 34.9141C40.3482 34.9141 40.6865 34.3775 40.719 34.0205C40.7268 33.9346 40.8863 33.7079 41.0733 33.5168C41.2604 33.3256 41.4135 33.0861 41.4135 32.9847C41.4135 32.8832 41.5515 32.7682 41.7201 32.7291C41.8888 32.69 42.0114 32.6075 41.9925 32.5459C41.9341 32.3549 42.182 31.8305 42.3307 31.8305C42.4082 31.8305 42.4716 31.7482 42.4716 31.6477C42.4716 31.4905 42.7322 31.4563 43.2519 31.5452C43.4424 31.5778 43.2792 31.9952 43.0272 32.1203C42.8879 32.1895 42.774 32.389 42.774 32.5637C42.774 32.7384 42.6754 33.0521 42.555 33.2609C42.4345 33.4696 42.3006 33.746 42.2574 33.8751C42.2142 34.0041 42.0332 34.1097 41.8553 34.1097C41.584 34.1097 41.5475 34.1649 41.6287 34.4518C41.696 34.6898 41.6327 34.8985 41.4204 35.1379C41.2525 35.3271 41.1495 35.531 41.1913 35.591C41.2331 35.6511 41.115 35.7948 40.9288 35.9105C40.5707 36.133 40.5395 36.1385 40.2419 36.0319ZM59.0624 23.6414C58.9169 23.5662 58.7979 23.4237 58.7979 23.3246C58.7979 23.2256 58.6917 23.1084 58.5619 23.0642C58.2671 22.9639 58.3119 21.9571 58.6089 22.0098C58.7129 22.0282 58.7979 21.9437 58.7979 21.8221C58.7979 21.7004 58.985 21.2702 59.2136 20.866C59.5529 20.2663 59.7497 20.0852 60.2843 19.8806C61.1135 19.5634 63.1984 19.5258 63.4766 19.8231C63.5759 19.9293 63.8008 20.0348 63.9762 20.0577C64.3681 20.1088 64.5842 20.7214 64.3791 21.1998C64.2569 21.4849 64.1703 21.5231 63.8215 21.4456C62.5855 21.1709 62.4283 21.1882 61.9638 21.6497C61.7191 21.8927 61.5189 22.1712 61.5189 22.2685C61.5189 22.3659 61.4509 22.4455 61.3677 22.4455C61.2846 22.4455 61.2166 22.5272 61.2166 22.627C61.2166 22.881 60.4439 23.593 60.2171 23.548C60.1142 23.5276 59.9869 23.5729 59.9341 23.6486C59.813 23.8224 59.4063 23.819 59.0624 23.6414ZM37.7657 17.1844C39.2657 17.1844 42.1388 19.6434 42.2258 19.9317C42.4185 20.5694 42.3334 21.127 42.0327 21.1968C41.8741 21.2336 41.7104 21.3787 41.669 21.5194C41.6124 21.7112 41.4577 21.7752 41.0503 21.7752C40.7515 21.7752 40.5071 21.7079 40.5071 21.6257C40.5071 21.5434 40.0465 21.3865 39.9634 21.0344C39.8561 20.5802 37.5506 18.4591 35.9872 18.3407C32.9266 17.3827 30.6884 18.1267 28.6202 19.2224L26.332 19.8982C26.1005 19.9665 25.9366 20.1663 25.85 20.1663C25.7634 20.1663 25.6925 20.2471 25.6925 20.3459C25.6925 20.4446 25.4525 20.7191 25.1591 20.9559C24.8658 21.1926 24.6657 21.4436 24.7145 21.5137C24.7634 21.5838 24.7398 21.6411 24.6621 21.6411C24.5844 21.6411 24.4274 21.8086 24.3131 22.0133C24.18 22.2515 24.01 22.3686 23.8407 22.3386C23.6225 22.3 23.5761 22.1446 23.5761 21.4525C23.5761 20.9909 23.6271 20.568 23.6895 20.5127C23.7519 20.4574 23.8029 20.3719 23.8029 20.3227C23.8029 20.2736 23.9559 20.0976 24.143 19.9317C24.4326 19.6748 27.3204 16.9727 27.7423 17.7032C30.9845 16.5936 34.2003 15.234 37.7657 17.1844ZM34.2483 20.0678C34.0296 19.8737 34.187 19.6301 34.5311 19.6301C34.7917 19.6301 34.8794 19.6876 34.8218 19.8208C34.7275 20.0387 34.3829 20.1871 34.2483 20.0678Z" fill="#E6E6E6"/>
<path d="M74.4591 65.1842C74.5198 65.0183 74.5891 64.7015 74.6129 64.4803C74.8167 62.5919 75.0701 61.5924 75.3894 61.4173C75.7506 61.2193 75.7378 50.4931 75.3736 48.2578C75.2415 47.4466 75.0961 46.4512 75.0504 46.0456C75.0048 45.64 74.9053 45.1272 74.8294 44.906C74.7536 44.6848 74.6538 43.6893 74.6077 42.6938C74.5259 40.9267 74.292 39.4247 73.8457 37.8003C73.7242 37.3578 73.559 36.7545 73.4786 36.4596C73.3982 36.1646 73.2211 35.3803 73.0851 34.7166C72.9491 34.053 72.7401 33.3348 72.6208 33.1207C72.5015 32.9066 72.4038 32.5678 72.4038 32.3678C72.4038 32.1679 72.2773 31.8604 72.1227 31.6846C71.9682 31.5087 71.7939 31.0779 71.7354 30.7273C71.677 30.3766 71.5318 29.9241 71.4128 29.7217C71.2937 29.5194 71.1959 29.2539 71.1954 29.1318C71.1945 28.9142 71.1064 28.7372 70.1539 27.0391C69.8948 26.5772 69.6828 26.0713 69.6828 25.9149C69.6828 25.7585 69.5127 25.4908 69.3049 25.3199C69.097 25.1491 68.9248 24.8707 68.9222 24.7012C68.9195 24.5318 68.8175 24.2761 68.6954 24.1329C68.5733 23.9898 68.4735 23.7303 68.4735 23.5563C68.4735 23.3214 68.3371 23.1894 67.9444 23.0438C67.6062 22.9185 67.4153 22.757 67.4153 22.5962C67.4153 22.4578 67.0921 21.9669 66.6972 21.5053C66.3023 21.0438 65.907 20.5583 65.8189 20.4266C65.7307 20.2948 65.4926 20.0645 65.2898 19.9148L64.921 19.6426L65.6379 19.6381C66.5106 19.6327 66.9963 19.9571 67.3518 20.7829C67.4867 21.0962 67.7092 21.3785 67.8463 21.4104C67.9833 21.4423 68.1962 21.6438 68.3194 21.8582C68.631 22.4007 69.2724 23.2938 69.4658 23.4547C69.5546 23.5285 69.7445 23.9339 69.888 24.3557C70.0315 24.7775 70.2354 25.1999 70.3412 25.2942C70.5811 25.5083 71.3448 26.9291 71.3478 27.1669C71.3524 27.5315 71.8084 28.4907 72.1003 28.7495C72.3212 28.9454 72.4038 29.1966 72.4038 29.6726C72.4038 30.0773 72.4865 30.3874 72.6208 30.4863C72.7402 30.5741 72.8802 30.8379 72.9319 31.0725C72.9837 31.307 73.08 31.6196 73.1458 31.7671C73.485 32.5265 73.6599 33.0309 73.7735 33.577C73.8425 33.9089 74.0732 34.8742 74.2863 35.7222C74.6264 37.076 74.7971 38.0467 75.0812 40.2414C75.1214 40.5517 75.2497 40.8759 75.3663 40.9617C75.5304 41.0825 75.5786 41.5607 75.5795 43.0789C75.5808 44.9492 75.8119 47.1025 76.2148 48.9952C76.452 50.1096 76.4668 58.6329 76.2352 60.7934C76.0939 62.1116 75.6534 64.7799 75.4881 65.3183C75.4591 65.4129 75.1996 65.4859 74.8926 65.4859C74.3965 65.4859 74.3584 65.4593 74.4591 65.1842ZM51.693 60.2477C50.4801 60.0977 49.9686 59.9696 49.8448 59.7847C49.7845 59.6946 49.3176 59.579 48.8073 59.5278C48.2969 59.4766 47.7681 59.3817 47.6321 59.3171C47.496 59.2524 47.1905 59.1629 46.953 59.1182C46.7011 59.0708 46.4892 58.9279 46.4441 58.775C46.4016 58.6308 46.2887 58.5129 46.1933 58.5129C45.9282 58.5129 44.8437 57.9856 44.5876 57.7322C44.4626 57.6086 44.1054 57.3384 43.7939 57.1319C43.4824 56.9253 43.2275 56.6784 43.2275 56.5832C43.2275 56.488 42.9891 56.2961 42.6976 56.1569C42.4061 56.0177 42.1314 55.8026 42.0871 55.6789C42.0429 55.5553 41.9072 55.4202 41.7857 55.3789C41.6641 55.3375 41.5645 55.2263 41.5642 55.1319C41.5639 55.0374 41.3601 54.8394 41.1112 54.6919C40.8622 54.5444 40.6583 54.3505 40.6581 54.2609C40.6578 54.1713 40.5224 54.0338 40.3571 53.9554C40.1918 53.8769 40.0165 53.6712 39.9676 53.4982C39.9186 53.3253 39.7137 53.1171 39.5123 53.0357C39.3108 52.9543 39.146 52.8261 39.146 52.7508C39.146 52.6754 39.0172 52.6138 38.8598 52.6138C38.7024 52.6138 38.5345 52.5233 38.4866 52.4127C38.425 52.2702 38.1741 52.2116 37.6249 52.2116C36.9773 52.2116 36.8372 52.1676 36.7711 51.9435C36.6701 51.601 36.2738 51.5923 36.2738 51.9325C36.2738 52.3634 36.1044 52.6138 35.813 52.6138C35.4113 52.6138 35.2998 52.3654 35.5787 52.092C35.756 51.9183 35.8203 51.5805 35.8203 50.8225C35.8203 50.2078 35.912 49.5949 36.047 49.3085C36.1717 49.0437 36.2738 48.6214 36.2738 48.3701C36.2738 48.0874 36.3603 47.8835 36.5005 47.8358C36.6252 47.7934 36.7273 47.6549 36.7273 47.5282C36.7273 47.4015 36.8973 47.1561 37.1052 46.9829C37.3373 46.7895 37.4831 46.5202 37.4831 46.285C37.4831 46.0682 37.5815 45.8684 37.7099 45.8247C37.8346 45.7823 37.9366 45.6853 37.9366 45.6091C37.9366 45.4235 38.4083 45.1155 38.7005 45.1102C38.9181 45.1062 40.2042 43.645 40.2042 43.4018C40.2042 43.3422 40.3493 43.2131 40.5268 43.1148C40.7958 42.9658 40.8707 42.966 40.9779 43.116C41.1535 43.3617 41.1439 43.5308 40.96 43.43C40.875 43.3834 40.8088 43.4902 40.8088 43.6738C40.8088 44.0271 40.4987 44.3342 40.2039 44.2727C40.1032 44.2516 39.8853 44.4607 39.7197 44.7372C39.5541 45.0137 39.3573 45.24 39.2823 45.24C39.2073 45.24 39.146 45.3271 39.146 45.4335C39.146 45.5399 39.0201 45.7058 38.8661 45.8022C38.7122 45.8985 38.479 46.1584 38.3478 46.3796C38.2166 46.6008 37.9005 46.9025 37.6454 47.0499C37.3904 47.1974 37.1815 47.3956 37.1812 47.4904C37.1809 47.5851 37.0618 47.8237 36.9164 48.0205C36.727 48.2769 36.649 48.6653 36.6412 49.3901C36.6276 50.6677 36.658 50.7367 37.2347 50.7378C37.4961 50.7382 37.9047 50.8287 38.1429 50.9389C38.628 51.1633 40.053 51.2127 40.053 51.0051C40.053 50.9314 40.1214 50.8711 40.205 50.8711C40.2885 50.8711 40.7094 50.7202 41.1403 50.5359C41.5711 50.3515 42.0771 50.2007 42.2647 50.2007C42.4523 50.2007 42.6977 50.0843 42.8101 49.942C42.9224 49.7998 43.1984 49.6424 43.4233 49.5923C43.6482 49.5423 43.8323 49.4575 43.8323 49.4041C43.8323 49.3506 44.0939 49.0555 44.4137 48.7482C44.8112 48.3664 45.1204 48.1897 45.391 48.1897C45.6241 48.1897 45.8496 48.0857 45.9394 47.9369C46.124 47.631 47.1894 47.1188 47.6539 47.1126C48.0199 47.1078 48.6697 46.6911 48.6697 46.4613C48.6697 46.3824 48.8522 46.2771 49.0753 46.2275C49.2984 46.1778 49.6556 46.0564 49.869 45.9576C50.0824 45.8588 50.359 45.7757 50.4837 45.7729C50.6084 45.7701 50.8425 45.6793 51.0039 45.571C51.4327 45.2834 54.6463 45.287 54.771 45.5753C54.8254 45.701 55.0563 45.7764 55.3872 45.7764C55.8882 45.7764 56.942 46.1623 57.4374 46.5273C57.7137 46.7308 58.8718 47.7606 59.4404 48.3083C59.669 48.5285 59.8582 48.788 59.8609 48.8849C59.8675 49.1291 60.1809 49.4622 60.5057 49.5703C60.6551 49.6201 60.8466 49.8369 60.9312 50.0521C61.0225 50.2845 61.2633 50.5089 61.5237 50.6046C61.765 50.6932 61.9998 50.8703 62.0455 50.998C62.1528 51.2978 62.7905 51.6003 63.096 51.4963C63.2349 51.4491 63.333 51.2567 63.333 51.0316C63.333 50.8204 63.384 50.6023 63.4463 50.5469C63.5087 50.4916 63.6396 51.1301 63.7373 51.9658C63.9632 53.899 63.9766 54.625 63.7865 54.625C63.7033 54.625 63.6353 54.5164 63.6353 54.3836C63.6353 54.2509 63.5716 54.085 63.4937 54.0149C63.4158 53.9449 63.3307 53.6166 63.3047 53.2854C63.2698 52.8414 63.1886 52.6717 62.9954 52.6392C62.6532 52.5816 62.3562 53.1931 62.1115 54.4591C62.0079 54.9946 61.8323 55.4997 61.7211 55.5816C61.6099 55.6634 61.5189 55.807 61.5189 55.9007C61.5189 55.9944 61.4233 56.1036 61.3064 56.1434C61.1896 56.1831 61.0457 56.4158 60.9866 56.6605C60.864 57.1687 60.4758 57.8455 60.1932 58.0435C60.0876 58.1176 59.948 58.3544 59.8831 58.5699C59.8181 58.7854 59.6664 59.0022 59.5459 59.0517C59.4255 59.1012 59.1569 59.2218 58.9491 59.3198C58.7412 59.4178 58.0269 59.5238 57.3618 59.5553C56.6194 59.5905 56.0917 59.6801 55.9951 59.7874C55.8736 59.9224 52.7075 60.4592 52.5576 60.3703C52.5393 60.3594 52.1503 60.3042 51.693 60.2477ZM52.0585 59.4693C52.103 59.4055 52.0115 59.2505 51.8551 59.125C51.6111 58.9291 51.5206 58.9219 51.2162 59.0736C51.0212 59.1708 50.8378 59.2614 50.8087 59.2749C50.7796 59.2885 50.8006 59.3639 50.8554 59.4425C50.9745 59.6134 51.943 59.635 52.0585 59.4693ZM54.5162 59.4056C54.5439 59.381 54.4593 59.1701 54.3281 58.9369C54.0526 58.4471 53.5071 58.3464 53.5071 58.7853C53.5071 58.9351 53.405 59.0924 53.2803 59.1348C53.1556 59.1772 53.0536 59.3042 53.0536 59.417C53.0536 59.5839 53.1847 59.606 53.7597 59.5361C54.148 59.4889 54.4885 59.4302 54.5162 59.4056ZM55.6919 59.2958C56.1087 59.1274 56.2466 58.5129 55.8676 58.5129C55.6521 58.5129 55.1699 59.0656 55.1699 59.3126C55.1699 59.4881 55.2201 59.4865 55.6919 59.2958ZM42.2364 53.4809C42.1339 52.8748 42.1345 52.8736 42.5015 53.0219C42.7416 53.1189 43.0499 53.1293 43.3887 53.0519C44.0594 52.8985 44.168 52.4591 43.6148 52.1376C43.4018 52.0139 43.2276 51.8109 43.2276 51.6866C43.2276 51.5624 43.1426 51.2983 43.0386 51.0998C42.8771 50.7912 42.7565 50.7388 42.2072 50.7379L41.5647 50.7368V51.2433C41.5647 51.5839 41.6638 51.825 41.8671 51.9794C42.0333 52.1057 42.1694 52.3246 42.1694 52.4659C42.1694 52.6568 42.0917 52.7048 41.8671 52.6527C41.6997 52.6138 41.5647 52.4698 41.5647 52.33C41.5647 52.1912 41.498 52.0775 41.4164 52.0775C41.3349 52.0775 41.2255 51.9267 41.1733 51.7423C41.0612 51.3462 41.0561 51.3452 40.5768 51.6237C40.2858 51.7928 40.2042 51.9552 40.2042 52.3653C40.2042 52.7035 40.2833 52.9173 40.4264 52.966C40.5486 53.0076 40.7314 53.2448 40.8327 53.4931C41.0225 53.9586 41.1861 54.0464 41.9141 54.073C42.3343 54.0884 42.3379 54.0817 42.2364 53.4809ZM61.5195 53.8369C61.5195 53.6984 61.6203 53.5109 61.7436 53.4202C62.0733 53.1776 62.2947 52.3602 62.1126 52.0584C61.8812 51.6749 61.5195 51.7486 61.5195 52.1794C61.5195 52.4041 61.4008 52.6151 61.2171 52.7168C60.9877 52.8439 60.9148 53.0294 60.9148 53.4864C60.9148 53.9992 60.9597 54.0886 61.2171 54.0886C61.4121 54.0886 61.5195 53.9992 61.5195 53.8369ZM60.8033 52.5803C61.4411 51.8027 61.5407 51.4658 61.2111 51.2013C60.9348 50.9795 60.9159 50.985 60.7675 51.3312C60.6822 51.5301 60.6125 51.7411 60.6125 51.8001C60.6125 51.8591 60.4699 52.0681 60.2957 52.2645C59.9902 52.6089 59.9913 53.0161 60.2977 53.0161C60.3792 53.0161 60.6067 52.82 60.8033 52.5803ZM59.9282 51.8536C59.9817 51.5368 60.1147 51.2314 60.2236 51.1748C60.5613 50.9996 60.6457 50.5173 60.3801 50.2817C60.2466 50.1634 60.0742 50.0665 59.997 50.0665C59.9198 50.0665 59.8566 49.9825 59.8566 49.8797C59.8566 49.7211 59.7254 49.6364 59.2519 49.4895C59.2104 49.4766 59.1083 49.9782 59.0252 50.6042C58.9106 51.467 58.8191 51.7424 58.6473 51.7424C58.3137 51.7424 58.3795 49.3976 58.7178 49.2298C58.9746 49.1023 59.038 48.5918 58.797 48.5918C58.7131 48.5918 58.4352 48.2901 58.1794 47.9214C57.8027 47.3785 57.635 47.2511 57.297 47.2511C57.0245 47.2511 56.6904 47.0881 56.3348 46.7818C55.9338 46.4364 55.6573 46.3126 55.2871 46.3126C55.0105 46.3126 54.6499 46.2312 54.4859 46.1318C54.0455 45.8649 51.7124 45.8477 51.1513 46.1072C50.9091 46.2192 50.6282 46.3113 50.5272 46.3117C50.4262 46.3121 50.2707 46.4332 50.1818 46.5807C50.0928 46.7282 49.8653 46.8488 49.6762 46.8488C49.4872 46.8488 49.2005 46.9374 49.0391 47.0457C48.8777 47.154 48.6266 47.2444 48.4811 47.2468C48.3356 47.2491 48.2166 47.3114 48.2166 47.3851C48.2166 47.4589 48.0805 47.5192 47.9142 47.5192C47.7184 47.5192 47.6119 47.6086 47.6119 47.773C47.6119 48.0574 47.3309 48.1896 46.7259 48.1896C46.4724 48.1896 46.1196 48.356 45.7934 48.6295C45.5049 48.8715 45.0853 49.1402 44.8612 49.2267C44.4661 49.3791 44.4605 49.3962 44.6797 49.7859C44.9051 50.1865 45.7057 50.871 45.949 50.871C46.2498 50.871 46.9801 50.1701 47.0655 49.7994C47.1166 49.5776 47.2001 49.2152 47.2511 48.994C47.4044 48.3293 47.6117 48.5397 47.6145 49.3627C47.6169 50.0688 47.6558 50.1575 48.0776 50.4188C48.4722 50.6632 48.6225 50.685 49.1273 50.5714L49.7166 50.4388L49.7602 49.3477C49.7542 46.7029 49.8946 47.0879 50.1818 49.2233C50.2884 50.0164 50.3022 50.1472 50.6353 50.296C51.0964 50.502 52.2101 50.52 52.6147 50.3279C52.7778 50.2505 53.0254 49.9344 53.1648 49.6254L53.5659 46.1423L53.5801 49.6658C53.7148 50.1661 53.8371 50.3092 54.3053 50.5135C54.8884 50.768 55.8005 50.8927 56.0421 50.751C56.313 50.5922 56.6673 49.6635 56.6673 48.9002C56.6673 48.2985 56.771 47.4674 56.9762 47.3699C57.2229 47.2527 57.0126 47.6635 57.1078 49.6358L57.2112 51.7786L57.6197 52.1411C58.0278 52.5034 58.3449 52.5015 58.3449 52.1368C58.3449 51.7962 58.7829 51.9303 59.0247 52.3451C59.2275 52.6928 59.2971 52.7253 59.5448 52.5881C59.7187 52.4918 59.8689 52.204 59.9282 51.8538V51.8536ZM39.9028 52.1446C39.9028 51.8557 39.835 51.8095 39.4115 51.8101L38.9202 51.8108L39.3737 52.1404C39.9336 52.5475 39.9028 52.5472 39.9028 52.1446ZM44.7402 51.8258C44.7402 51.6874 44.8422 51.499 44.967 51.4072C45.2885 51.1705 45.2538 51.0341 44.7402 50.5153C44.4908 50.2633 44.2845 49.9839 44.2819 49.8942C44.2787 49.7857 44.2144 49.7985 44.0895 49.9324C43.9863 50.043 43.7673 50.2003 43.603 50.282C43.4386 50.3636 43.2819 50.5305 43.2548 50.6529C43.1864 50.961 43.5635 51.6753 43.7945 51.6753C43.8989 51.6753 43.9844 51.7312 43.9844 51.7996C43.9844 51.9071 44.2305 52.0076 44.6268 52.062C44.6892 52.0706 44.7402 51.9643 44.7402 51.8258ZM63.9417 55.4629C63.9434 55.1946 63.9807 55.1456 64.0789 55.2831C64.1531 55.3871 64.1788 55.553 64.136 55.6518C64.0133 55.9353 63.9392 55.8633 63.9417 55.4629ZM35.9709 53.2762C35.9709 53.1244 36.0389 53.0374 36.1221 53.083C36.2052 53.1286 36.2732 53.2528 36.2732 53.3591C36.2732 53.4653 36.2052 53.5523 36.1221 53.5523C36.0389 53.5523 35.9709 53.428 35.9709 53.2762ZM63.3143 47.9548C63.3045 47.6045 63.3018 47.2799 63.3083 47.2334C63.3149 47.1869 63.1869 47.0418 63.0239 46.9109C62.8609 46.7801 62.7276 46.6248 62.7276 46.5658C62.7276 46.2954 61.9128 45.435 61.5171 45.2874C61.0785 45.1239 60.5316 44.2772 60.6699 43.9757C60.7061 43.8968 60.8247 44.0282 60.9334 44.2679C61.0421 44.5075 61.2181 44.7036 61.3246 44.7036C61.4311 44.7036 61.5182 44.7496 61.5182 44.8059C61.5182 44.8621 61.6713 44.9677 61.8584 45.0405C62.0454 45.1133 62.2204 45.3096 62.2471 45.4767C62.2789 45.6754 62.4751 45.8471 62.814 45.9726C63.1583 46.1002 63.3323 46.2543 63.3323 46.4318C63.3323 46.5786 63.4003 46.7361 63.4834 46.7817C63.5666 46.8273 63.6346 47.2531 63.6346 47.7281C63.6346 48.7195 63.3417 48.9269 63.3143 47.9548ZM60.1576 43.631C60.1576 43.5573 60.2257 43.497 60.3088 43.497C60.3919 43.497 60.46 43.5573 60.46 43.631C60.46 43.7048 60.3919 43.7651 60.3088 43.7651C60.2257 43.7651 60.1576 43.7048 60.1576 43.631ZM59.4983 43.4299C59.4458 43.3086 59.4975 43.2288 59.6286 43.2288C59.7596 43.2288 59.8113 43.3086 59.7588 43.4299C59.7109 43.5405 59.6523 43.631 59.6286 43.631C59.6048 43.631 59.5462 43.5405 59.4983 43.4299ZM41.1131 43.0612C41.1162 42.8369 41.3768 42.4815 41.4745 42.5682C41.5916 42.6721 41.3977 43.2288 41.2443 43.2288C41.1709 43.2288 41.1118 43.1534 41.1131 43.0612ZM63.406 39.0151C63.1753 38.8255 62.906 38.6704 62.8074 38.6704C62.5782 38.6704 62.1878 38.0326 62.3364 37.9008C62.3982 37.846 62.515 37.9062 62.5961 38.0346C62.6771 38.1631 62.8609 38.2681 63.0046 38.2681C63.3488 38.2681 64.1473 39.0744 63.9641 39.2369C63.88 39.3115 63.6603 39.2241 63.406 39.0151ZM64.5141 39.2491C64.6232 39.2104 64.7536 39.2152 64.8038 39.2597C64.8541 39.3043 64.7648 39.3359 64.6054 39.3301C64.4293 39.3237 64.3935 39.2919 64.5141 39.2491ZM70.5893 38.8026C70.5893 38.5209 70.8332 38.0726 71.1561 37.761C71.2601 37.6607 71.3451 37.4916 71.3451 37.3853C71.3451 37.279 71.4051 37.0872 71.4785 36.9591C71.5518 36.8311 71.6725 36.5453 71.7467 36.3241C71.8208 36.1029 71.9479 35.9403 72.029 35.9627C72.2211 36.0158 72.1567 36.7098 71.9541 36.7697C71.8686 36.795 71.7986 36.9097 71.7986 37.0245C71.7986 37.1393 71.6533 37.5113 71.4757 37.8513C71.2981 38.1912 71.0826 38.605 70.9967 38.7709C70.8028 39.1455 70.5893 39.1621 70.5893 38.8026ZM29.0178 37.6754C28.1877 37.2656 27.4108 36.9521 27.0426 36.8783C26.5974 36.7892 25.9943 36.3649 25.9943 36.1408C25.9943 35.8903 26.3117 35.9673 26.8871 36.3572C27.1859 36.5597 27.4758 36.7256 27.5312 36.7259C27.5866 36.7261 27.683 36.7716 27.7454 36.8269C27.8077 36.8822 28.0481 36.9274 28.2796 36.9274C28.511 36.9274 28.7548 37.0064 28.8212 37.1029C28.8877 37.1994 29.1632 37.3575 29.4334 37.4543C29.7036 37.5511 29.9247 37.6833 29.9247 37.7481C29.9247 37.9249 29.4452 37.8864 29.0178 37.6754ZM61.2636 37.4919C61.0922 37.2862 60.9041 36.925 60.8457 36.6891C60.7873 36.4533 60.5743 36.1451 60.3725 36.0043C60.1707 35.8635 59.9633 35.5611 59.9117 35.3323C59.8601 35.1035 59.7584 34.9164 59.6856 34.9164C59.6129 34.9164 59.5534 34.8607 59.5534 34.7928C59.5534 34.7248 59.2412 34.2572 58.8598 33.7537L58.1662 32.8383L58.5773 32.7941C59.2396 32.723 60.2397 33.8409 59.6667 34.0119C59.526 34.0539 59.5206 34.1166 59.6459 34.2577C59.7384 34.3619 59.8593 34.6151 59.9146 34.8203C59.972 35.0334 60.1772 35.2591 60.3926 35.3461C60.6011 35.4303 60.8084 35.6533 60.856 35.8443C61.0301 36.5442 61.0836 36.6351 61.5984 37.1051C61.887 37.3688 62.1232 37.6478 62.1232 37.7252C62.1232 38.0071 61.5674 37.8563 61.2636 37.4919ZM23.6513 35.5324C23.5604 35.2374 23.5917 35.1036 23.7803 34.9813C23.9173 34.8925 24.0293 34.754 24.0293 34.6736C24.0293 34.5933 24.1409 34.4721 24.2773 34.4044C24.4193 34.334 24.4775 34.2127 24.4135 34.1209C24.3303 34.0016 24.2318 34.0165 24.0293 34.179C23.8238 34.3439 23.7291 34.3576 23.6433 34.2344C23.5117 34.0456 23.959 33.7098 24.3421 33.7098C24.4824 33.7098 24.6905 33.8254 24.8045 33.9667C24.9646 34.1651 25.0896 34.1966 25.3521 34.1051C25.6139 34.0139 25.6922 33.8793 25.6922 33.5209C25.6922 33.2648 25.7602 33.0179 25.8434 32.9724C25.9265 32.9268 25.9945 32.7719 25.9945 32.6281C25.9945 32.4844 26.1986 32.1169 26.4481 31.8115C26.6975 31.5061 26.9016 31.152 26.9016 31.0247C26.9016 30.8973 27.0081 30.7146 27.1383 30.6188C27.2685 30.523 27.467 30.2867 27.5795 30.0938C27.692 29.9008 28.0942 29.444 28.4732 29.0785C28.8522 28.713 29.2355 28.2632 29.325 28.0788C29.4819 27.7558 30.3163 27.1867 31.3294 26.7117C31.5962 26.5866 31.9149 26.4056 32.0376 26.3095C32.333 26.078 36.2185 26.0645 36.7424 26.2931C36.9421 26.3803 37.4225 26.4887 37.8101 26.5342C38.1977 26.5797 38.5502 26.6988 38.5935 26.7989C38.6368 26.899 38.8639 27.0185 39.0982 27.0644C39.652 27.173 40.7679 28.0928 41.0359 28.6615C41.1513 28.9065 41.4501 29.301 41.6999 29.5381C42.0762 29.8955 42.1618 30.1 42.1996 30.7334L42.2452 31.4976L40.3762 31.5209C38.6708 31.5421 38.5008 31.5224 38.4338 31.2955C38.3757 31.0985 38.154 31.0272 37.3658 30.9524C35.8876 30.812 33.4354 30.9597 33.1265 31.2078C32.9869 31.3198 32.8387 31.4108 32.7971 31.41C32.5769 31.4059 31.7547 31.6134 31.3382 31.7783C31.0762 31.882 30.743 31.9668 30.5979 31.9668C30.4527 31.9668 30.0481 32.1745 29.6988 32.4284C29.3495 32.6823 28.8856 32.9297 28.668 32.9781C28.3247 33.0545 27.8673 33.3635 26.8889 34.1803C26.7572 34.2902 26.5417 34.3801 26.4099 34.3801C25.7281 34.3801 25.4974 34.6922 25.9567 34.9931C26.1494 35.1194 26.1762 35.2071 26.0553 35.316C25.8833 35.4709 25.1225 35.2611 24.9148 35.0015C24.7041 34.7382 24.0752 35.0439 23.923 35.4837L23.7713 35.9219L23.6513 35.5324ZM26.8491 33.3076C27.059 33.0864 27.3194 32.9054 27.4278 32.9054C27.5363 32.9054 27.6641 32.8149 27.712 32.7043C27.7598 32.5937 27.9008 32.5032 28.0252 32.5032C28.1496 32.5032 28.3193 32.3906 28.4024 32.2529C28.4954 32.0987 28.7993 31.9678 29.1943 31.9118C29.8598 31.8174 30.8318 31.3661 30.8318 31.1515C30.8318 31.0838 30.9322 31.0284 31.0549 31.0284C31.1776 31.0284 31.5007 30.9079 31.773 30.7607C32.2122 30.5232 32.5361 30.493 34.6488 30.4926L37.0297 30.4921V29.6377C37.0297 28.7957 37.0397 28.7751 37.716 28.2223L38.4023 27.6613L38.0561 27.4053C37.8657 27.2645 37.491 27.1473 37.2233 27.1448C36.9557 27.1424 36.4606 27.0127 36.1232 26.8568C35.5905 26.6105 35.3163 26.5803 34.04 26.6275C32.6709 26.6781 32.5246 26.7114 31.905 27.1122C31.5392 27.3489 31.1592 27.5426 31.0607 27.5426C30.8268 27.5426 28.5793 29.6457 28.3627 30.0674C28.2708 30.2463 28.0024 30.5761 27.7663 30.8002C27.5302 31.0243 27.2986 31.3786 27.2515 31.5873C27.2044 31.7961 27.1139 31.9669 27.0504 31.9669C26.9869 31.9669 26.8903 32.1781 26.8357 32.4362C26.7811 32.6943 26.6715 32.9054 26.5921 32.9054C26.5128 32.9054 26.4478 33.0261 26.4478 33.1736C26.4478 33.3211 26.3798 33.4417 26.2967 33.4417C26.2135 33.4417 26.1455 33.5021 26.1455 33.5758C26.1455 33.8313 26.4692 33.7079 26.8489 33.3077L26.8491 33.3076ZM41.5055 30.6822C41.4551 30.5656 41.4138 30.4147 41.4138 30.347C41.4138 30.2793 41.3458 30.2239 41.2626 30.2239C41.1795 30.2239 41.1114 30.3748 41.1114 30.5591C41.1114 30.7776 41.196 30.8943 41.3544 30.8943C41.5138 30.8943 41.5658 30.8214 41.5055 30.6822ZM70.8474 34.8494C70.5478 34.5913 70.2109 34.3802 70.0986 34.3802C69.9864 34.3802 69.83 34.3303 69.751 34.2694C69.672 34.2085 69.3013 34.0776 68.9272 33.9785C68.553 33.8794 68.1738 33.7211 68.0846 33.6267C67.8554 33.3843 64.2255 32.9233 62.4599 32.9123C61.8223 32.9083 61.1225 32.8175 60.797 32.6967C60.4119 32.5537 60.0158 32.5146 59.5389 32.5725C59.0022 32.6377 58.7859 32.6065 58.5941 32.4364C58.2649 32.1445 58.2799 32.056 58.6851 31.8981C58.8756 31.8239 59.0582 31.6075 59.1008 31.4055C59.1426 31.2073 59.3197 30.9005 59.4943 30.7237C59.6689 30.5469 59.8573 30.2414 59.9129 30.0449C59.9685 29.8484 60.1125 29.6877 60.2328 29.6877C60.3532 29.6877 60.6816 29.4837 60.9627 29.2344C61.3519 28.8892 61.8456 28.676 63.0333 28.34L64.5927 27.8987L65.3617 28.2366C65.7846 28.4225 66.5048 28.7166 66.9621 28.8902C67.8063 29.2108 68.625 29.8295 68.625 30.147C68.625 30.243 68.8971 30.4888 69.2296 30.6932C69.6436 30.9476 69.8343 31.1638 69.8343 31.3787C69.8343 31.5655 69.9873 31.7814 70.2122 31.9122C70.4201 32.0329 70.5902 32.245 70.5902 32.3834C70.5902 32.5217 70.726 32.7102 70.8921 32.8022C71.0957 32.9149 71.2252 33.1783 71.2899 33.6107C71.3427 33.9635 71.4449 34.2845 71.5171 34.324C71.6863 34.4168 71.6893 35.3186 71.5204 35.3186C71.45 35.3186 71.1472 35.1075 70.8476 34.8494L70.8474 34.8494ZM70.642 33.6034C70.548 33.2847 70.2877 33.1954 70.2877 33.4819C70.2877 33.6515 70.6035 34.0107 70.6873 33.9363C70.7103 33.9159 70.6899 33.7661 70.642 33.6034ZM66.5544 32.4026C66.7904 31.3189 66.9758 30.9378 67.4324 30.5972C67.8413 30.2923 67.8796 30.2192 67.668 30.1471C67.5291 30.0999 67.4154 29.9821 67.4154 29.8853C67.4154 29.6529 66.5675 29.2044 65.9037 29.0856C65.6127 29.0336 65.2197 28.904 65.0305 28.7976C64.6745 28.5976 63.714 28.663 63.55 28.8984C63.5044 28.9638 63.2968 29.0173 63.0886 29.0173C62.4379 29.0173 61.1063 29.6804 60.9091 30.1027C60.8113 30.312 60.6019 30.5196 60.4436 30.5641C60.0465 30.6759 59.4855 31.711 59.7433 31.8562C59.8474 31.9148 60.7278 31.9637 61.6998 31.9648C62.7123 31.966 63.507 32.0241 63.5605 32.1009C63.6119 32.1747 63.9229 32.235 64.2517 32.235C64.5805 32.235 65.0017 32.3047 65.1876 32.3899C65.3736 32.4751 65.6277 32.5922 65.7524 32.6502C66.2029 32.8594 66.473 32.7761 66.5544 32.4026ZM41.2744 34.7042C41.2816 34.548 41.3174 34.5162 41.3657 34.6232C41.4094 34.72 41.404 34.8356 41.3538 34.8802C41.3035 34.9247 41.2678 34.8455 41.2744 34.7042ZM40.9601 33.9612C40.9601 33.8829 41.0961 33.7873 41.2624 33.7487C41.4729 33.6999 41.5648 33.5658 41.5648 33.3076C41.5648 33.0549 41.657 32.9153 41.8543 32.8695C42.014 32.8325 42.1665 32.6602 42.1944 32.4852C42.2222 32.3108 42.313 32.1812 42.3962 32.1974C42.6506 32.2468 42.6577 32.8938 42.4063 33.1167C42.276 33.2323 42.1694 33.442 42.1694 33.5828C42.1694 33.7531 42.0303 33.8658 41.7537 33.9196C41.5251 33.964 41.253 34.0236 41.149 34.052C41.0451 34.0804 40.9601 34.0396 40.9601 33.9612ZM57.95 31.9101C57.8954 31.784 57.9278 31.6124 58.022 31.5289C58.1162 31.4454 58.1932 31.272 58.1932 31.1436C58.1932 31.0152 58.25 30.8791 58.3195 30.841C58.4612 30.7633 58.2946 31.9218 58.145 32.0544C58.0923 32.1012 58.0045 32.0362 57.95 31.9101ZM42.694 31.8261C42.5503 31.62 42.7471 31.487 42.9411 31.6591C43.0497 31.7554 43.0523 31.8304 42.949 31.8869C42.8644 31.9333 42.7496 31.906 42.694 31.8261ZM42.5719 30.1305C42.4893 29.6791 42.5376 29.423 42.6786 29.5649C42.8183 29.7054 42.9244 30.6263 42.8009 30.6263C42.7249 30.6263 42.6218 30.4032 42.5719 30.1305ZM58.9965 23.2858C58.9449 23.1568 58.8056 22.9507 58.687 22.8279C58.4986 22.6329 58.51 22.5396 58.7766 22.0905C58.9444 21.8078 59.191 21.3502 59.3246 21.0737C59.4582 20.7972 59.6244 20.5709 59.6939 20.5709C59.7635 20.5709 59.8559 20.4502 59.8994 20.3028C59.9456 20.1461 60.1056 20.0346 60.2842 20.0346C60.4523 20.0346 60.6919 19.9441 60.8166 19.8335C60.9752 19.6929 61.3631 19.6324 62.107 19.6324C63.016 19.6324 63.1942 19.6714 63.3325 19.9006C63.4215 20.048 63.6267 20.1687 63.7884 20.1687C63.9736 20.1687 64.1166 20.289 64.1744 20.4933C64.3047 20.9535 64.1858 21.3189 63.9282 21.25C63.8084 21.218 63.3818 21.1666 62.9802 21.1358C62.3656 21.0887 62.1986 21.1287 61.9259 21.3883C61.6084 21.6906 61.1659 22.3169 60.9878 22.716C60.8523 23.0198 59.9108 23.5205 59.4751 23.5205C59.2451 23.5205 59.0525 23.426 58.9965 23.2858ZM23.576 21.4585C23.576 21.1003 23.6644 20.8065 23.8028 20.7047C23.9275 20.6129 24.0296 20.4879 24.0296 20.427C24.0296 20.3661 24.1904 20.1623 24.387 19.9742C24.6802 19.6936 24.8831 19.6321 25.5152 19.6321H26.2859L25.3845 20.4415C24.8887 20.8867 24.4831 21.2998 24.4831 21.3595C24.4831 21.5339 23.9344 22.0454 23.7473 22.0454C23.6458 22.0454 23.576 21.8062 23.576 21.4585ZM40.2636 21.0286C39.8571 20.6906 39.5394 20.3646 39.5575 20.3041C39.5756 20.2436 39.4906 20.1206 39.3686 20.0307C38.9402 19.7155 39.1576 19.6321 40.4081 19.6321C41.4383 19.6321 41.7155 19.677 41.9198 19.8773C42.2397 20.1907 42.2611 21.1069 41.9486 21.1069C41.8268 21.1069 41.6543 21.2275 41.5653 21.375C41.3251 21.7732 41.0809 21.7082 40.2636 21.0286Z" fill="#1A1A1A"/>
<path d="M51.3574 60.0573C50.7153 59.9593 50.0812 59.7826 49.9483 59.6648C49.8154 59.5469 49.4775 59.4505 49.1973 59.4505C48.9171 59.4505 48.6508 59.3972 48.6054 59.3321C48.56 59.2669 48.1643 59.1739 47.726 59.1254C46.8386 59.027 46.6495 58.9489 46.5151 58.6252C46.4644 58.5031 46.2143 58.3625 45.9593 58.3128C45.7042 58.2632 45.4955 58.167 45.4955 58.0991C45.4955 58.0312 45.3951 57.9757 45.2724 57.9757C45.1497 57.9757 44.8327 57.7645 44.5679 57.5064C44.3031 57.2483 44.002 57.0372 43.8989 57.0372C43.7957 57.0372 43.5703 56.8251 43.3978 56.5659C43.2253 56.3066 42.9059 56.0344 42.688 55.9609C42.47 55.8875 42.2563 55.7074 42.2131 55.5608C42.1699 55.4142 42.0404 55.2943 41.9254 55.2943C41.8104 55.2943 41.7163 55.201 41.7163 55.0869C41.7163 54.9729 41.5155 54.7774 41.27 54.6524C41.0246 54.5275 40.7857 54.2907 40.7391 54.1263C40.6926 53.9618 40.5193 53.763 40.354 53.6846C40.1887 53.6061 40.0534 53.4686 40.0534 53.3791C40.0534 53.1959 39.0975 52.4788 38.8534 52.4788C38.7665 52.4788 38.6105 52.3581 38.5066 52.2107C38.3919 52.0478 38.1541 51.9425 37.9007 51.9425C37.6712 51.9425 37.4835 51.8829 37.4835 51.81C37.4835 51.7372 37.3645 51.688 37.219 51.7007C37.0735 51.7134 36.7334 51.6465 36.4631 51.5519C35.9827 51.3838 35.9719 51.3618 35.9742 50.5552C35.9754 50.1015 36.0424 49.6398 36.123 49.5292C36.2533 49.3505 36.2717 49.3505 36.2884 49.5292C36.2988 49.6398 36.3263 49.9338 36.3496 50.1825C36.3952 50.6711 36.6159 50.8647 37.1308 50.8679C37.311 50.869 37.4832 50.9361 37.5136 51.017C37.545 51.1006 38.1278 51.195 38.8624 51.2357C40.0303 51.3003 40.184 51.2806 40.4449 51.0324C40.6037 50.8813 40.9045 50.7196 41.1133 50.6732C41.4853 50.5905 41.4916 50.6017 41.4266 51.2321C41.3901 51.586 41.3305 51.7548 41.2941 51.6073C41.1994 51.2241 40.9156 51.1067 40.7006 51.3617C40.5812 51.5032 40.1856 51.6087 39.5789 51.6609C38.9775 51.7125 38.6167 51.8081 38.5721 51.9276C38.5338 52.0301 38.5705 52.0766 38.6536 52.0311C38.7367 51.9855 39.0006 52.0977 39.2401 52.2804C39.4796 52.4631 39.7606 52.6126 39.8645 52.6127C39.9684 52.6128 40.0535 52.7335 40.0535 52.881C40.0535 53.0289 40.1542 53.1491 40.2782 53.1491C40.4018 53.1491 40.5985 53.3521 40.7154 53.6002C40.8539 53.8941 41.0653 54.0819 41.3221 54.1391C41.5389 54.1873 41.7163 54.286 41.7163 54.3583C41.7163 54.4307 41.8541 54.4898 42.0224 54.4898C42.4226 54.4898 42.6878 53.9087 42.46 53.5311C42.2401 53.1667 42.4417 53.0156 42.7113 53.3426C42.9067 53.5796 42.9424 53.5834 43.1146 53.3853C43.2186 53.2659 43.4737 53.1487 43.6815 53.1251C43.9818 53.0909 44.0689 52.9956 44.1056 52.6608C44.1432 52.3179 44.2065 52.2523 44.446 52.3078C44.6792 52.3619 44.7597 52.2894 44.8344 51.9582C44.8863 51.7283 45.0222 51.5403 45.1365 51.5403C45.3381 51.5403 45.4063 51.3836 45.3557 51.0375C45.3232 50.8162 45.4915 50.8253 45.786 51.0607C45.9952 51.228 46.0852 51.2035 46.5159 50.8615C46.8555 50.5919 47.0072 50.3518 47.0072 50.0838C47.0072 49.8706 47.1093 49.621 47.234 49.5292C47.4268 49.3873 47.4607 49.4214 47.4607 49.7576C47.4607 50.1608 47.9351 50.6794 48.3677 50.7492C48.4925 50.7693 48.8836 50.739 49.237 50.682C49.8469 50.5835 49.8794 50.5547 49.8794 50.1128C49.8794 49.8367 49.9409 49.6812 50.0306 49.7303C50.1137 49.7759 50.1818 49.9318 50.1818 50.0767C50.1818 50.4003 50.7259 50.6024 51.5899 50.6C52.5051 50.5973 52.8149 50.4938 53.0836 50.1011L53.3223 49.7523L53.556 50.1531C53.7187 50.4322 53.9765 50.6036 54.4045 50.7173C54.7426 50.8072 55.0192 50.9386 55.0192 51.0094C55.0192 51.0801 55.2466 51.1381 55.5245 51.1381C55.968 51.1381 56.0691 51.0683 56.3503 50.5683C56.5265 50.2549 56.7313 49.7873 56.8055 49.5292C56.9155 49.1461 56.9447 49.29 56.9649 50.3132C56.9893 51.5546 57.0771 51.8564 57.5588 52.3552C57.8542 52.6612 58.3449 52.6965 58.3449 52.4117C58.3449 52.0944 58.7388 52.177 59.0162 52.5524C59.197 52.7971 59.3523 52.8707 59.5627 52.8115C59.7243 52.766 59.8566 52.7891 59.8566 52.8628C59.8566 53.0915 60.4606 53.1823 60.7196 52.9925C60.9402 52.8309 60.9434 52.8423 60.7539 53.1122C60.5886 53.3476 60.5835 53.4451 60.7296 53.5747C60.8315 53.6651 60.9148 53.9079 60.9148 54.1144C60.9148 54.641 61.2596 54.5877 61.5684 54.0134C61.8777 53.4381 62.2037 53.5222 62.0493 54.1373C61.9914 54.368 61.9208 54.7064 61.8924 54.8892C61.864 55.072 61.7685 55.2429 61.6801 55.269C61.5918 55.2952 61.5195 55.4228 61.5195 55.5527C61.5195 55.6826 61.3834 55.8981 61.2171 56.0316C61.0508 56.165 60.9148 56.4246 60.9148 56.6083C60.9148 56.7921 60.6817 57.1948 60.3967 57.5032C60.1117 57.8116 59.8188 58.2685 59.7458 58.5186C59.6388 58.8847 59.5191 58.9902 59.131 59.0606C58.866 59.1087 58.5637 59.2105 58.4592 59.2868C58.2484 59.4408 57.6822 59.5011 56.7342 59.4706L56.1062 59.4504L56.1873 58.9141C56.2669 58.3877 56.2597 58.3778 55.797 58.3778C55.3985 58.3778 55.2904 58.4526 55.0978 58.8613C54.8172 59.457 54.9175 59.6256 55.487 59.5146C55.8438 59.4451 55.9091 59.4681 55.8359 59.6372C55.7486 59.8389 55.5527 59.8859 54.1123 60.0503C53.7381 60.093 53.2279 60.1521 52.9785 60.1817C52.7291 60.2112 51.9995 60.1553 51.3574 60.0573ZM52.2519 59.4981C52.3084 59.3675 52.2448 59.2112 52.096 59.1146C51.9577 59.025 51.8446 58.8527 51.8446 58.7318C51.8446 58.6014 51.7217 58.512 51.5423 58.512C51.3407 58.512 51.24 58.6013 51.24 58.7801C51.24 58.9315 51.1392 59.0483 51.0085 59.0483C50.6926 59.0483 50.5415 59.4496 50.8022 59.596C51.1766 59.8062 52.1469 59.7407 52.2519 59.4981ZM54.1063 59.6325C54.6631 59.5337 54.8816 59.2077 54.5134 59.025C54.3759 58.9567 54.2633 58.7832 54.2633 58.6394C54.2633 58.4382 54.1587 58.3779 53.8098 58.3779C53.4548 58.3779 53.3563 58.437 53.3563 58.6502C53.3563 58.8 53.2543 58.9573 53.1296 58.9998C53.0048 59.0422 52.9028 59.2213 52.9028 59.3978C52.9028 59.7466 53.1697 59.7986 54.1063 59.6325ZM63.3335 53.1491C63.3335 52.5357 63.3034 52.4788 62.9798 52.4788C62.7485 52.4788 62.5661 52.3619 62.4526 52.1409C62.3571 51.9551 62.1081 51.7454 61.8992 51.675C61.6903 51.6045 61.5194 51.4818 61.5194 51.4022C61.5194 51.3227 61.3157 51.0648 61.0666 50.8291C60.8176 50.5935 60.6135 50.3252 60.6131 50.2331C60.6127 50.1409 60.4764 50.0655 60.3101 50.0655C60.1421 50.0655 60.0078 49.9761 60.0078 49.8644C60.0078 49.508 60.5312 49.6485 60.7366 50.06C60.8455 50.2782 61.1682 50.5848 61.4538 50.7413C61.7393 50.8978 61.973 51.077 61.973 51.1394C61.973 51.3844 62.4703 51.6743 62.8908 51.6743C63.2984 51.6743 63.3349 51.6345 63.3514 51.1716C63.3613 50.895 63.4522 51.2721 63.5534 52.0095C63.7156 53.1913 63.6637 53.8195 63.4037 53.8195C63.3651 53.8195 63.3335 53.5178 63.3335 53.1491ZM61.0659 52.4788C61.0659 52.405 61.138 52.3447 61.226 52.3447C61.3141 52.3447 61.3441 52.405 61.2927 52.4788C61.2413 52.5525 61.1693 52.6128 61.1326 52.6128C61.0959 52.6128 61.0659 52.5525 61.0659 52.4788ZM35.984 51.9984C35.9912 51.8422 36.027 51.8104 36.0753 51.9173C36.119 52.0141 36.1136 52.1298 36.0634 52.1743C36.0131 52.2189 35.9774 52.1397 35.984 51.9984ZM43.6061 51.9425C43.5547 51.8687 43.6227 51.8084 43.7572 51.8084C43.8918 51.8084 43.9598 51.8687 43.9084 51.9425C43.857 52.0162 43.789 52.0766 43.7572 52.0766C43.7255 52.0766 43.6575 52.0162 43.6061 51.9425ZM60.085 51.8062C60.1372 51.7313 60.2433 51.7047 60.3207 51.7471C60.5303 51.862 60.4913 51.9425 60.2257 51.9425C60.0961 51.9425 60.0328 51.8812 60.085 51.8062ZM58.4962 50.8699C58.4962 50.3419 58.5481 50.1996 58.7406 50.1996C58.9203 50.1996 58.9608 50.2795 58.8938 50.5012C58.8437 50.6671 58.8018 50.9688 58.8006 51.1716C58.7994 51.3744 58.7305 51.5403 58.6474 51.5403C58.5643 51.5403 58.4962 51.2386 58.4962 50.8699ZM42.3 50.3535C42.6627 50.2207 43.0232 50.0111 43.1011 49.8877C43.179 49.7643 43.3584 49.6622 43.4998 49.661C43.7478 49.6587 44.4371 49.12 44.4371 48.9285C44.4371 48.7087 45.1532 48.3315 45.5708 48.3313C46.0044 48.3312 46.0111 48.3395 45.722 48.5233C45.5557 48.6291 45.3375 48.778 45.2371 48.8543C45.1367 48.9305 44.9852 48.9929 44.9004 48.9929C44.8157 48.9929 44.6353 49.1432 44.4996 49.3269C44.3639 49.5106 44.1922 49.6277 44.1182 49.5872C44.0441 49.5466 43.9835 49.6089 43.9835 49.7257C43.9835 49.8425 43.8117 49.996 43.6018 50.0668C43.3918 50.1376 43.1869 50.2718 43.1464 50.3651C43.1043 50.4622 42.7669 50.5476 42.3567 50.5648L41.6404 50.5949L42.3 50.3535ZM59.3276 49.1834C59.1614 49.0716 59.0456 48.8674 59.0705 48.7295C59.0985 48.5743 59.0007 48.4465 58.8137 48.3939C58.6476 48.3471 58.4643 48.1762 58.4065 48.0141C58.1961 47.4246 57.833 47.1245 57.3247 47.1202C57.0544 47.1178 56.8334 47.0597 56.8334 46.9909C56.8334 46.9221 56.7046 46.8296 56.5473 46.7854C56.39 46.7411 56.2263 46.5862 56.1836 46.4411C56.1205 46.2272 55.9748 46.1774 55.4114 46.1774C55.0295 46.1774 54.717 46.1171 54.717 46.0434C54.717 45.7763 55.8886 45.9095 56.5876 46.2559C56.9722 46.4466 57.2869 46.6578 57.2869 46.7252C57.2869 46.7926 57.3777 46.8478 57.4888 46.8478C57.6713 46.8478 58.0349 47.164 59.262 48.3896C59.6792 48.8063 59.9698 49.3983 59.7535 49.3909C59.6856 49.3885 59.4939 49.2952 59.3276 49.1834ZM36.4361 48.364C36.4303 48.2025 36.4935 48.033 36.5767 47.9874C36.7555 47.8894 36.7555 48.0206 36.5767 48.3896C36.4514 48.6481 36.4464 48.6472 36.4361 48.364ZM63.3457 48.2444C63.353 48.0882 63.3888 48.0564 63.437 48.1634C63.4807 48.2602 63.4753 48.3758 63.4251 48.4203C63.3749 48.4649 63.3392 48.3857 63.3457 48.2444ZM46.0988 47.9239C46.0988 47.8516 46.2859 47.7511 46.5146 47.7006C46.7432 47.6501 47.0107 47.5132 47.1091 47.3964C47.2452 47.2347 47.3304 47.2212 47.4663 47.3399C47.6768 47.5239 47.5339 47.7873 47.2237 47.7873C47.1039 47.7873 47.0059 47.8477 47.0059 47.9214C47.0059 47.9951 46.8018 48.0555 46.5523 48.0555C46.3029 48.0555 46.0988 47.9963 46.0988 47.9239ZM56.9074 47.9214C56.9588 47.8477 57.0309 47.7873 57.0675 47.7873C57.1042 47.7873 57.1342 47.8477 57.1342 47.9214C57.1342 47.9951 57.0621 48.0555 56.9741 48.0555C56.886 48.0555 56.856 47.9951 56.9074 47.9214ZM63.3616 47.184C63.3647 46.9628 63.3985 46.8885 63.4369 47.019C63.4752 47.1494 63.4727 47.3304 63.4313 47.4212C63.3899 47.5119 63.3585 47.4052 63.3616 47.184ZM48.6687 46.7148C48.9481 46.4935 49.2835 46.3106 49.414 46.3083C49.5445 46.3059 49.7834 46.2154 49.9447 46.1072C50.2747 45.8858 51.1586 45.8338 51.0118 46.0444C50.9604 46.1181 50.7864 46.1785 50.625 46.1785C50.4636 46.1785 50.2024 46.293 50.0446 46.433C49.8868 46.5729 49.5475 46.7284 49.2905 46.7785C49.0336 46.8285 48.7845 46.9251 48.7371 46.9932C48.6897 47.0613 48.5406 47.117 48.4058 47.117C48.2383 47.117 48.3214 46.9898 48.6687 46.7148ZM37.6334 46.4095C37.6334 46.0449 38.419 45.24 38.7748 45.24C38.942 45.24 38.9955 45.3111 38.9345 45.4521C38.884 45.5687 38.8427 45.6894 38.8427 45.7202C38.8427 45.751 38.7534 45.7763 38.6442 45.7763C38.535 45.7763 38.3522 45.9874 38.2381 46.2455C38.0044 46.7737 37.6334 46.8743 37.6334 46.4095ZM62.8302 46.3979C62.6866 46.2035 62.6303 46.0444 62.7052 46.0444C62.9141 46.0444 63.2166 46.4182 63.1503 46.5945C63.1179 46.6808 62.9739 46.5923 62.8302 46.3979ZM52.2968 45.7772C50.9036 45.6948 51.1041 45.5191 52.6191 45.4948C54.2959 45.4679 54.5644 45.4934 54.5644 45.6796C54.5644 45.8668 54.1296 45.8855 52.2968 45.7772ZM40.2033 43.7661C40.2033 43.6924 40.2753 43.632 40.3633 43.632C40.4514 43.632 40.4814 43.6924 40.43 43.7661C40.3786 43.8398 40.3066 43.9002 40.2699 43.9002C40.2332 43.9002 40.2033 43.8398 40.2033 43.7661ZM62.803 38.5373C62.7516 38.4636 62.8497 38.4033 63.0209 38.4033C63.1921 38.4033 63.3321 38.4636 63.3321 38.5373C63.3321 38.6111 63.2341 38.6714 63.1143 38.6714C62.9945 38.6714 62.8544 38.6111 62.803 38.5373ZM61.5875 37.5899C61.4247 37.3565 61.6101 37.307 61.8174 37.5286C61.9366 37.656 61.9481 37.7329 61.8479 37.7329C61.7594 37.7329 61.6423 37.6686 61.5875 37.5899ZM28.9879 37.5073C29.097 37.4685 29.2274 37.4733 29.2776 37.5178C29.3278 37.5624 29.2385 37.5941 29.0792 37.5883C28.9031 37.5818 28.8673 37.5501 28.9879 37.5073ZM71.5072 37.2525C71.5144 37.0963 71.5502 37.0646 71.5985 37.1715C71.6422 37.2683 71.6368 37.3839 71.5866 37.4285C71.5363 37.473 71.5006 37.3938 71.5072 37.2525ZM28.4119 37.1975C28.2757 37.1194 28.257 37.0668 28.3652 37.0655C28.4642 37.0644 28.5873 37.1238 28.6386 37.1975C28.7546 37.364 28.7023 37.364 28.4119 37.1975ZM61.1657 37.2422C61.1103 37.1931 61.0649 37.0905 61.0649 37.0143C61.0649 36.9303 61.1353 36.9382 61.2438 37.0344C61.3422 37.1217 61.3875 37.2242 61.3446 37.2623C61.3016 37.3004 61.2211 37.2914 61.1657 37.2422ZM26.5223 36.5276C26.4709 36.4539 26.5009 36.3936 26.589 36.3936C26.677 36.3936 26.749 36.4539 26.749 36.5276C26.749 36.6014 26.719 36.6617 26.6824 36.6617C26.6457 36.6617 26.5737 36.6014 26.5223 36.5276ZM71.7974 36.2595C71.7974 36.1857 71.8654 36.1254 71.9486 36.1254C72.0317 36.1254 72.0997 36.1857 72.0997 36.2595C72.0997 36.3332 72.0317 36.3936 71.9486 36.3936C71.8654 36.3936 71.7974 36.3332 71.7974 36.2595ZM23.7378 35.2428C23.745 35.0866 23.7808 35.0548 23.8291 35.1618C23.8728 35.2586 23.8674 35.3742 23.8172 35.4188C23.7669 35.4633 23.7312 35.3841 23.7378 35.2428ZM25.3164 35.0465C24.9047 34.8134 24.6709 34.5156 24.6434 34.1893C24.6376 34.1199 24.7179 34.1663 24.8218 34.2924C24.9951 34.5026 25.0392 34.5041 25.3509 34.3104C25.5669 34.1762 25.691 33.9612 25.691 33.721C25.691 33.513 25.793 33.2677 25.9177 33.1759C26.0425 33.0841 26.1464 32.8806 26.1487 32.7237C26.151 32.5668 26.3551 32.2015 26.6022 31.9118C26.8493 31.6222 27.0515 31.2753 27.0515 31.1409C27.0515 31.0066 27.1809 30.782 27.3389 30.6418C27.497 30.5016 27.6717 30.2602 27.7271 30.1053C27.7825 29.9505 27.9593 29.7614 28.1199 29.6852C28.2806 29.6089 28.4132 29.4732 28.4147 29.3837C28.4181 29.1668 29.1507 28.5575 29.2752 28.6679C29.3289 28.7156 29.1526 28.9457 28.8833 29.1792C28.614 29.4126 28.3535 29.782 28.3044 29.9999C28.2536 30.225 28.0965 30.4236 27.9406 30.4598C27.7897 30.4948 27.6254 30.6376 27.5754 30.7771C27.5255 30.9166 27.4266 31.0307 27.3557 31.0307C27.2847 31.0307 27.1819 31.2117 27.1271 31.433C27.0723 31.6542 26.9649 31.8352 26.8883 31.8352C26.8118 31.8352 26.7492 31.9616 26.7492 32.1161C26.7492 32.3995 26.3294 33.1721 26.0918 33.326C25.9261 33.4334 26.0223 33.8773 26.2242 33.9369C26.3096 33.9621 26.7042 33.7107 27.1011 33.3782C27.4979 33.0457 27.9134 32.7737 28.0244 32.7737C28.1353 32.7737 28.3354 32.6256 28.4691 32.4447C28.6177 32.2437 28.9209 32.0811 29.2494 32.0264C29.8386 31.9284 30.1858 32.0676 29.6576 32.1901C29.4769 32.232 29.2915 32.3713 29.2456 32.4995C29.1997 32.6278 28.895 32.8037 28.5684 32.8905C28.2419 32.9773 27.8424 33.1975 27.6806 33.3798C27.5189 33.5622 26.971 33.8942 26.4632 34.1177C25.7998 34.4096 25.5398 34.5985 25.5398 34.7884C25.5398 34.9341 25.6417 35.0529 25.7666 35.0529C25.8913 35.0529 25.9933 35.1132 25.9933 35.1869C25.9933 35.3739 25.8375 35.3415 25.3164 35.0465ZM70.915 34.7175C70.5831 34.4191 70.0668 34.1657 69.4035 33.9757C68.8495 33.8169 68.3512 33.6225 68.2963 33.5437C68.125 33.2979 64.1371 32.7764 62.4152 32.7747C61.7169 32.774 61.2275 32.6898 60.7624 32.4905C60.2082 32.253 60.0172 32.2304 59.5772 32.3502C59.2228 32.4467 58.9606 32.4493 58.7691 32.3584C58.4609 32.2122 58.5308 31.9692 58.881 31.9692C59.0172 31.9692 59.0998 31.8311 59.1014 31.6005C59.103 31.3844 59.2593 31.1012 59.4794 30.9161C59.7601 30.6799 59.8547 30.6517 59.8547 30.8044C59.8547 30.9166 59.7882 31.0285 59.7069 31.0531C59.6257 31.0776 59.5165 31.2877 59.4644 31.5198C59.3782 31.9033 59.4094 31.9495 59.8064 32.0268C60.0466 32.0736 60.4449 32.1083 60.6914 32.104C61.5787 32.0882 64.6238 32.3752 64.9567 32.5059C65.1437 32.5794 65.4567 32.7053 65.6522 32.7856C65.8476 32.8659 66.1694 32.9112 66.3673 32.8861C66.6844 32.8461 66.7464 32.7358 66.8898 31.9578C67.0589 31.0407 67.3971 30.5633 67.9415 30.4737C68.4484 30.3901 67.0579 29.2264 66.2038 29.0194C65.8297 28.9287 65.3132 28.7624 65.0561 28.6498C64.6362 28.466 64.5053 28.4664 63.7712 28.6536C63.3216 28.7682 62.6816 28.9257 62.349 29.0037C61.7291 29.149 61.0211 29.6397 60.5997 30.2163C60.441 30.4334 60.2786 30.513 60.1109 30.456C59.7563 30.3353 59.9392 30.0195 60.5485 29.7007C60.8321 29.5523 61.0641 29.3701 61.0641 29.2957C61.0641 29.02 62.9438 28.4126 64.2895 28.2535C64.8623 28.1857 64.9987 28.2272 66.8607 29.0355C67.1803 29.1743 67.5067 29.2878 67.586 29.2878C67.8001 29.2878 68.4715 29.9682 68.4715 30.1853C68.4715 30.4056 69.2172 31.0203 69.4919 31.0265C69.5958 31.0288 69.6809 31.1819 69.6809 31.3668C69.6809 31.5581 69.8436 31.8283 70.0588 31.9943C70.2666 32.1546 70.4367 32.3622 70.4367 32.4557C70.4367 32.5492 70.6068 32.7885 70.8146 32.9874C71.0517 33.2142 71.1925 33.5067 71.1925 33.7719C71.1925 34.0045 71.2723 34.2655 71.3698 34.352C71.5459 34.5082 71.6539 35.1943 71.4999 35.1787C71.4556 35.1742 71.1923 34.9667 70.915 34.7175ZM71.0412 33.9626C71.0412 33.6188 70.4011 32.9077 70.0917 32.9077C69.8426 32.9077 69.8117 32.9435 69.9528 33.0686C70.0526 33.1571 70.1342 33.3653 70.1342 33.5312C70.1342 33.8265 70.4761 34.1022 70.8523 34.1103C70.9562 34.1125 71.0412 34.0461 71.0412 33.9626ZM59.1284 33.9722C59.0291 33.8312 58.9478 33.6309 58.9478 33.5272C58.9478 33.4235 58.8458 33.3039 58.721 33.2615C58.5963 33.219 58.4943 33.1221 58.4943 33.046C58.4943 32.789 58.889 32.9056 59.2741 33.2764C59.5991 33.5894 59.6307 33.6892 59.483 33.9369C59.314 34.2202 59.3037 34.2213 59.1284 33.9722ZM41.7152 33.4584C41.7152 33.2346 41.8127 33.0373 41.9456 32.9921C42.0723 32.949 42.2381 32.7766 42.3139 32.6091C42.3898 32.4415 42.4562 32.3909 42.4615 32.4967C42.4714 32.6951 41.8878 33.8463 41.7773 33.8463C41.7432 33.8463 41.7152 33.6717 41.7152 33.4584ZM30.3775 31.7011C30.3775 31.6274 30.4762 31.567 30.5968 31.567C30.7174 31.567 30.8781 31.4686 30.9541 31.3482C31.2713 30.8456 33.1354 30.5134 35.7062 30.5014L37.1801 30.4945V29.6699C37.1801 28.8618 37.1943 28.8335 37.887 28.2532L38.5938 27.661L38.1658 27.3348C37.8745 27.1128 37.5539 27.0086 37.1619 27.0086C36.7478 27.0086 36.5422 26.936 36.4299 26.7499C36.288 26.5146 36.0941 26.491 34.292 26.4896C33.2019 26.4888 32.2772 26.4589 32.237 26.4232C31.9307 26.1516 36.2239 26.1641 36.61 26.436C36.7157 26.5104 37.1356 26.603 37.5431 26.6417C38.0015 26.6853 38.3358 26.7942 38.4199 26.9274C38.4946 27.0458 38.6633 27.1427 38.7949 27.1427C39.1863 27.1427 40.0117 27.6607 40.1006 27.9621C40.146 28.1162 40.2484 28.2065 40.328 28.1629C40.5695 28.0305 41.0088 28.7383 40.8143 28.9462C40.6865 29.0827 40.7358 29.1422 41.0309 29.2079C41.241 29.2547 41.4129 29.3521 41.4129 29.4245C41.4129 29.4968 41.5514 29.6788 41.7206 29.8288C41.9393 30.0228 42.0376 30.3038 42.0607 30.8009L42.0932 31.5L41.4885 31.4864C38.8625 31.4275 38.565 31.3957 38.4975 31.1669C38.3267 30.5877 33.0149 30.6517 32.4183 31.2401C32.2783 31.3783 30.8141 31.8352 30.5114 31.8352C30.4378 31.8352 30.3775 31.7748 30.3775 31.7011ZM41.6123 30.5968C41.575 30.1113 40.941 29.3503 40.7827 29.6012C40.7189 29.7023 40.7428 29.9899 40.8359 30.2403C40.929 30.4907 41.0287 30.7755 41.0574 30.8731C41.0861 30.9707 41.2289 31.0287 41.3746 31.0019C41.5562 30.9685 41.631 30.8411 41.6123 30.5968ZM29.867 27.8465C30.1947 27.57 30.6137 27.2683 30.7981 27.1762C30.9825 27.084 31.2663 26.9354 31.4288 26.8461C31.5913 26.7567 31.7734 26.7272 31.8335 26.7804C31.9663 26.8982 31.3749 27.4098 31.1019 27.4134C30.9945 27.4148 30.6352 27.626 30.3036 27.8826C29.4912 28.5113 29.116 28.4802 29.867 27.8465ZM59.0442 23.087C58.8684 22.5053 58.9527 22.0971 59.3984 21.3717C59.6457 20.9694 59.8917 20.5346 59.9452 20.4055C59.9986 20.2765 60.1613 20.1709 60.3067 20.1709C60.452 20.1709 60.7439 20.0503 60.9553 19.9028C61.2205 19.7178 61.5686 19.6346 62.0778 19.6346C62.7205 19.6346 62.8979 19.7006 63.4522 20.1454C64.3802 20.8903 64.3118 21.0677 63.1226 21.0005C62.2674 20.9522 62.1161 20.9818 61.8044 21.2583C61.4346 21.5863 60.9141 22.4027 60.9141 22.6548C60.9141 22.8361 59.7785 23.3887 59.4057 23.3887C59.2531 23.3887 59.0956 23.2573 59.0442 23.087ZM38.142 17.7448C38.9891 17.6403 41.4708 19.6858 41.7155 19.9028C42.0875 20.2327 42.13 20.9754 41.7769 20.9754C41.6444 20.9754 41.5005 21.0961 41.457 21.2435C41.4135 21.391 41.3178 21.5117 41.2444 21.5117C41.1709 21.5117 40.9748 21.391 40.8085 21.2435C40.6422 21.0961 40.444 20.9754 40.368 20.9754C40.2919 20.9754 40.1411 20.5806 39.7647 20.305C38.6993 19.5251 38.3173 18.6947 36.0408 18.0043C33.7642 17.5218 32.2251 17.7868 30.7122 18.0784C28.2179 18.8541 26.9448 19.6299 25.1425 20.4056C24.5558 20.6582 24.3348 21.2243 24.3335 21.2827C24.3323 21.341 24.1952 21.5183 24.0289 21.6766L23.7266 21.9645V21.4355C23.7266 21.0025 23.8431 20.7911 24.369 20.2698C24.8746 19.7688 27.7855 17.7064 28.1543 17.7071C31.3411 16.7404 34.5211 15.7264 38.1422 17.7449L38.142 17.7448ZM28.3055 76.4423C47.5735 80.7581 45.4964 79.2743 54.6195 78.3787C62.4456 77.8222 67.1712 72.479 72.9442 68.8015C73.402 68.8015 75.4344 65.0921 75.5302 63.9906C75.5831 63.3827 75.7168 62.7315 75.8274 62.5436C75.943 62.347 76.0288 61.7682 76.0294 61.1812C76.0299 60.6197 76.1026 59.8355 76.191 59.4382C76.3627 58.6666 76.4431 50.3355 76.2811 50.103C76.0247 49.735 75.5433 46.0087 75.4713 43.8342C75.4228 42.3694 75.3254 41.3485 75.2234 41.2367C75.0585 41.056 74.9544 40.502 74.675 38.3181C74.5982 37.7177 74.4342 36.8731 74.3106 36.4411C74.187 36.0092 74.0394 35.3685 73.9825 35.0173C73.9256 34.6661 73.8189 34.3458 73.7454 34.3055C73.6718 34.2652 73.6116 34.0013 73.6116 33.7192C73.6116 33.437 73.51 33.0333 73.3858 32.8221C73.2616 32.6109 73.1595 32.3361 73.1591 32.2114C73.1586 32.0867 73.0901 31.9474 73.007 31.9018C72.9238 31.8562 72.8534 31.6566 72.8504 31.4582C72.8475 31.2597 72.7479 30.9465 72.629 30.7622C72.5102 30.5778 72.4106 30.1914 72.4076 29.9034C72.4042 29.5688 72.2751 29.23 72.0499 28.9649C71.8562 28.7367 71.5773 28.2182 71.4304 27.8126C71.2834 27.4071 71.0336 26.8339 70.8753 26.539C70.7169 26.244 70.5875 25.9254 70.5878 25.8309C70.5881 25.7364 70.4862 25.6244 70.3615 25.5819C70.2368 25.5395 70.1347 25.4281 70.1347 25.3344C70.1347 25.2407 70.0475 25.0998 69.9408 25.0213C69.8341 24.9428 69.7297 24.6792 69.7088 24.4356C69.672 24.0075 69.0075 22.9862 68.7657 22.9862C68.7004 22.9862 68.6046 22.8147 68.5527 22.6051C68.5008 22.3955 68.1893 21.9681 67.8604 21.6554C67.5316 21.3426 67.2625 21.0038 67.2625 20.9025C67.2625 20.8011 67.001 20.4744 66.6812 20.1763C66.2319 19.7574 65.9871 19.6344 65.6027 19.6344L59.675 12.4414C54.9035 8.54957 46.5209 6.54052 38.9921 4.8999C21.7921 6.29383 18.3817 10.7895 10.0357 23.2434C5.06386 40.6954 4.9207 63.4874 28.3059 76.4413L28.3055 76.4423ZM10.726 23.5434C16.187 14.0334 24.7232 4.35119 38.1889 5.91311C43.9185 6.78781 55.7048 9.36985 58.9867 13.2508L65.1065 19.6284L65.5048 19.9063C65.7239 20.0591 65.9031 20.2374 65.9031 20.3024C65.9031 20.3674 66.0562 20.5626 66.2433 20.7362C66.4303 20.9097 66.6854 21.1913 66.8101 21.362C66.9349 21.5327 67.1228 21.7519 67.2279 21.8492C67.3329 21.9465 67.4605 22.2106 67.5113 22.4361C67.5714 22.7027 67.6947 22.8461 67.8638 22.8461C68.2653 22.8461 68.5465 23.2285 68.9205 24.2832C69.1545 24.9429 69.3545 25.2766 69.5486 25.3313C69.7521 25.3886 69.8335 25.5383 69.8335 25.8553C69.8335 26.0994 69.9244 26.3659 70.0354 26.4476C70.1464 26.5293 70.3287 26.8535 70.4405 27.1679C70.5523 27.4824 70.6996 27.8061 70.7677 27.8874C70.9934 28.1566 71.6771 29.8752 71.7916 30.4613C71.8536 30.7783 72.0506 31.2133 72.2294 31.4278C72.4095 31.6439 72.5546 32.0177 72.5546 32.2658C72.5546 32.5121 72.6149 32.7709 72.6887 32.841C72.859 33.0027 73.2781 34.5067 73.397 35.3827C73.4469 35.7508 73.5758 36.2632 73.6835 36.5212C73.7911 36.7793 73.9289 37.3223 73.9896 37.7279C74.0504 38.1334 74.1504 38.5256 74.2119 38.5993C74.3746 38.7943 74.6713 40.8783 74.6711 41.8237C74.671 42.2699 74.7497 42.7047 74.8459 42.7901C74.9672 42.8977 74.9732 42.9984 74.8654 43.1185C74.7582 43.2381 74.7729 43.6869 74.913 44.5654C75.0246 45.2659 75.1555 46.2313 75.2039 46.7106C75.2522 47.1899 75.3586 47.944 75.4404 48.3864C75.5221 48.8289 75.6255 49.5227 75.6703 49.9283C75.715 50.3338 75.8141 50.8768 75.8907 51.1349C76.0842 51.7878 76.0719 58.1912 75.8765 58.5149C75.7913 58.6561 75.6994 59.3611 75.6724 60.0814C75.6333 61.1199 75.5558 61.4961 75.2982 61.8981C75.0791 62.2397 74.9733 62.6351 74.9733 63.1114C74.9733 63.5 74.9132 63.8752 74.8398 63.9453C74.7664 64.0153 73.151 66.8664 73.1118 67.2536C68.8794 70.0988 61.478 77.4499 56.5936 77.5977C48.2468 78.4828 39.4026 79.505 28.8949 74.914C6.75918 66.8161 4.64736 35.343 10.7259 23.5435L10.726 23.5434Z" fill="black"/>
</svg>
