<svg width="84" height="84" viewBox="0 0 84 84" fill="none" xmlns="http://www.w3.org/2000/svg">
<path d="M13.1011 63.6503V59.9224H18.791V63.6503H13.1011Z" fill="#999999"/>
<path d="M8.88257 61.4921V58.3528H18.6928V61.4921H8.88257Z" fill="#999999"/>
<path d="M6.82251 59.9223V54.0361H10.9428V59.9223H6.82251Z" fill="#999999"/>
<path d="M4.46814 59.0393V54.5266H6.92071V59.0393H4.46814Z" fill="black"/>
<path d="M6.62634 54.5266V52.1721H10.8448V54.5266H6.62634Z" fill="black"/>
<path d="M10.8447 59.0393V54.5266H13.1992V59.0393H10.8447Z" fill="black"/>
<path d="M10.8447 59.0394V56.3906H19.4778V59.0394H10.8447Z" fill="black"/>
<path d="M13.4935 65.6124V63.4541H20.0664V65.6124H13.4935Z" fill="black"/>
<path d="M8.78455 63.4541V61.0996H13.5916V63.4541H8.78455Z" fill="black"/>
<path d="M6.72437 61.2958V58.8433H8.88263V61.2958H6.72437Z" fill="black"/>
<path d="M4.46814 59.0393V54.4285H6.8226V59.0393H4.46814Z" fill="black"/>
<path d="M51.2191 77.2169V73.6416H56.1024V77.2169H51.2191Z" fill="#999999"/>
<path d="M55.9281 78.6121V72.2463H57.8466V78.6121H55.9281Z" fill="black"/>
<path d="M51.2191 78.8738V76.9553H57.8465V78.8738H51.2191Z" fill="black"/>
<path d="M49.0391 76.9551V72.1589H51.1319V76.9551H49.0391Z" fill="black"/>
<path d="M62.3047 77.2169V73.6416H67.188V77.2169H62.3047Z" fill="#999999"/>
<path d="M67.0137 78.6121V72.2463H68.9321V78.6121H67.0137Z" fill="black"/>
<path d="M62.3047 78.8738V76.9553H68.9321V78.8738H62.3047Z" fill="black"/>
<path d="M60.1246 76.9551V72.1589H62.2175V76.9551H60.1246Z" fill="black"/>
<path d="M28.9498 77.2169V73.6416H33.8332V77.2169H28.9498Z" fill="#999999"/>
<path d="M33.6588 78.6121V72.2463H35.5773V78.6121H33.6588Z" fill="black"/>
<path d="M28.9498 78.8738V76.9553H35.5772V78.8738H28.9498Z" fill="black"/>
<path d="M26.7698 76.9551V72.1589H28.8626V76.9551H26.7698Z" fill="black"/>
<path d="M17.5157 76.9922V71.7927H22.4209V76.9922H17.5157Z" fill="#999999"/>
<path d="M22.0868 72.446L21.7598 69.3721H60.6738V72.446H22.0868Z" fill="#FFCC99"/>
<path d="M19.9869 72.0778V69.8354H22.005V72.0778H19.9869Z" fill="black"/>
<path d="M19.1437 68.8489V64.8594H21.1711L20.3863 69.5029L19.1437 68.8489Z" fill="#FFCC99"/>
<path d="M19.9939 70.0917L20.1247 64.7942H62.7667V70.0917H19.9939Z" fill="#FFCC99"/>
<path d="M21.7809 43.8242L21.9771 35.7517H60.5735L61.022 43.8242H21.7809Z" fill="#FFCC99"/>
<path d="M19.8748 43.5999V38.2183H62.7036V43.5999H19.8748Z" fill="#FFCC99"/>
<path d="M18.7537 65.4631V39.1155H63.2643V65.4631H18.7537Z" fill="#FFCC99"/>
<path d="M17.7446 69.7233V38.5547H19.8749V69.7233H17.7446Z" fill="black"/>
<path d="M22.0518 74.7686V72.1899H60.6855V74.7686H22.0518Z" fill="black"/>
<path d="M60.5735 72.1899V69.9475H62.7037V72.1899H60.5735Z" fill="black"/>
<path d="M62.7036 69.9475V38.6667H64.8339V69.9475H62.7036Z" fill="black"/>
<path d="M60.5735 38.5546V36.4243H62.5916V38.5546H60.5735Z" fill="black"/>
<path d="M21.7809 36.2004V33.958H60.6856V36.2004H21.7809Z" fill="black"/>
<path d="M19.8748 38.5547V36.5366H22.005V38.5547H19.8748Z" fill="black"/>
<path d="M21.9265 65.719V43.0464H60.3828V65.719H21.9265Z" fill="#FF99FF"/>
<path d="M24.281 68.2478V40.7791H58.1155V68.2478H24.281Z" fill="#FF99FF"/>
<path d="M24.281 68.2478V40.7791H58.1155V68.2478H24.281Z" fill="#FF99FF"/>
<path d="M26.5482 69.8176V38.0759H55.761V69.8176H26.5482Z" fill="#FF99FF"/>
<path d="M26.5858 45.5181V42.9893H29.0275V45.5181H26.5858Z" fill="#FF3399"/>
<path d="M37.7477 43.0765V40.5476H40.1894V43.0765H37.7477Z" fill="#FF3399"/>
<path d="M44.5496 43.2508V40.7219H46.9912V43.2508H44.5496Z" fill="#FF3399"/>
<path d="M53.4441 47.8726V45.3438H55.8857V47.8726H53.4441Z" fill="#FF3399"/>
<path d="M35.6549 52.0584V49.5295H38.0966V52.0584H35.6549Z" fill="#FF3399"/>
<path d="M37.835 58.9473V56.4185H40.2766V58.9473H37.835Z" fill="#FF3399"/>
<path d="M28.6786 56.2442V53.7153H31.1202V56.2442H28.6786Z" fill="#FF3399"/>
<path d="M24.3186 61.3018V58.7729H26.7603V61.3018H24.3186Z" fill="#FF3399"/>
<path d="M33.3876 65.4004V62.8716H35.8292V65.4004H33.3876Z" fill="#FF3399"/>
<path d="M26.9346 67.8421V65.3132H29.3762V67.8421H26.9346Z" fill="#FF3399"/>
<path d="M49.7777 72.3383V68.9312H72.4815V72.3383H49.7777Z" fill="#999999"/>
<path d="M47.8156 70.0526V67.9224H75.6767V70.0526H47.8156Z" fill="#999999"/>
<path d="M70.3512 50.8244V47.4048H74.8359V50.8244H70.3512Z" fill="#999999"/>
<path d="M68.0527 53.9074V49.3667H74.8919V53.9074H68.0527Z" fill="#999999"/>
<path d="M65.8665 55.7575V51.7773H75.1162V55.7575H65.8665Z" fill="#999999"/>
<path d="M54.2064 58.112V53.2349H77.1681V58.112H54.2064Z" fill="#999999"/>
<path d="M52.7487 58.8406V51.3848H56.897V58.8406H52.7487Z" fill="#999999"/>
<path d="M51.3473 59.2891V48.8062H54.7108V59.2891H51.3473Z" fill="#999999"/>
<path d="M48.2642 60.4104V46.9563H52.3565V60.4104H48.2642Z" fill="#999999"/>
<path d="M45.4612 67.4736L45.5173 67.0251H47.2551V68.1463L46.3996 67.8676L45.4612 67.4736Z" fill="#999999"/>
<path d="M45.8536 68.5388L45.698 67.0275L46.2461 66.3525H77.1905V68.5949L45.8536 68.5388Z" fill="#999999"/>
<path d="M44.9174 67.4344V56.3945H78.3508V67.4344H44.9174Z" fill="#999999"/>
<path d="M43.5099 67.9535V56.4036H45.797V67.9535H43.5099Z" fill="black"/>
<path d="M45.7971 56.5181V47.3696H48.313V56.5181H45.7971Z" fill="black"/>
<path d="M48.1985 47.3696V45.4255H52.544V47.3696H48.1985Z" fill="black"/>
<path d="M52.3153 49.6051V47.1409H54.7153V49.6051H52.3153Z" fill="black"/>
<path d="M54.7167 52.188V49.5422H57.045V52.188H54.7167Z" fill="black"/>
<path d="M56.6608 54.1166V51.9438H66.0379V54.1166H56.6608Z" fill="black"/>
<path d="M65.8092 52.0581V49.5422H68.1501V52.0581H65.8092Z" fill="black"/>
<path d="M68.0537 49.5424V47.3696H70.3834V49.5424H68.0537Z" fill="black"/>
<path d="M70.3834 47.5983V45.4255H74.9576V47.5983H70.3834Z" fill="black"/>
<path d="M74.729 56.518V47.1409H77.3398V56.518H74.729Z" fill="black"/>
<path d="M77.2448 67.8391V56.1748H79.5318V67.8391H77.2448Z" fill="black"/>
<path d="M74.8433 70.1264V67.6106H77.3591V70.1264H74.8433Z" fill="black"/>
<path d="M45.813 70.1794V67.825H48.0694V70.1794H45.813Z" fill="black"/>
<path d="M48.0693 72.1414V69.885H50.0314V72.1414H48.0693Z" fill="black"/>
<path d="M72.0609 72.3789V69.8674H74.7293V72.3789H72.0609Z" fill="black"/>
<path d="M50.0859 74.5761V72.0647H72.061V74.5761H50.0859Z" fill="black"/>
<path d="M52.4124 63.1572V58.7847H56.7289V63.1572H52.4124Z" fill="black"/>
<path d="M68.0527 63.1572V58.7847H72.3693V63.1572H68.0527Z" fill="black"/>
<path d="M52.4124 61.3634V58.7847H54.8229V61.3634H52.4124Z" fill="white"/>
<path d="M68.0527 61.3634V58.7847H70.4633V61.3634H68.0527Z" fill="white"/>
<path d="M54.7108 69.7162V65.2876H56.6729V69.7162H54.7108Z" fill="black"/>
<path d="M61.606 69.7162V65.2876H63.568V69.7162H61.606Z" fill="black"/>
<path d="M68.3331 69.7162V65.2876H70.2952V69.7162H68.3331Z" fill="black"/>
<path d="M54.7108 69.8845V67.8103H70.4633V69.8845H54.7108Z" fill="black"/>
<path d="M48.1193 67.9299V63.064H52.3573V67.9299H48.1193Z" fill="#FF9999"/>
<path d="M72.6056 67.9299V63.064H77.2099V67.9299H72.6056Z" fill="#FF9999"/>
<path d="M63.6587 63.0639V61.0757H65.7516V63.0639H63.6587Z" fill="black"/>
<path d="M15.3574 78.9543V71.989H17.7119V78.9543H15.3574Z" fill="black"/>
<path d="M15.4556 78.9543V76.5999H22.2247V78.9543H15.4556Z" fill="black"/>
<path d="M22.1265 76.5998V71.989H24.2847V76.5998H22.1265Z" fill="black"/>
<path d="M17.6138 72.3814V70.2231H22.1265V72.3814H17.6138Z" fill="black"/>
<path d="M17.6138 71.6945V68.7515H19.772V71.6945H17.6138Z" fill="black"/>
<mask id="path-97-outside-1_1484_12000" maskUnits="userSpaceOnUse" x="14.1915" y="8.70215" width="56" height="18" fill="black">
<rect fill="white" x="14.1915" y="8.70215" width="56" height="18"/>
<path d="M15.1915 23.4894H16.7234V25.0213H15.1915V23.4894ZM15.1915 21.9575H16.7234V23.4894H15.1915V21.9575ZM15.1915 20.4256H16.7234V21.9575H15.1915V20.4256ZM15.1915 18.8936H16.7234V20.4256H15.1915V18.8936ZM15.1915 17.3617H16.7234V18.8936H15.1915V17.3617ZM15.1915 15.8298H16.7234V17.3617H15.1915V15.8298ZM16.7234 15.8298H18.2554V17.3617H16.7234V15.8298ZM16.7234 14.2979H18.2554V15.8298H16.7234V14.2979ZM16.7234 12.766H18.2554V14.2979H16.7234V12.766ZM16.7234 11.2341H18.2554V12.766H16.7234V11.2341ZM15.1915 11.2341H16.7234V12.766H15.1915V11.2341ZM15.1915 9.70215H16.7234V11.2341H15.1915V9.70215ZM15.1915 12.766H16.7234V14.2979H15.1915V12.766ZM15.1915 14.2979H16.7234V15.8298H15.1915V14.2979ZM16.7234 9.70215H18.2554V11.2341H16.7234V9.70215ZM16.7234 17.3617H18.2554V18.8936H16.7234V17.3617ZM16.7234 18.8936H18.2554V20.4256H16.7234V18.8936ZM16.7234 20.4256H18.2554V21.9575H16.7234V20.4256ZM16.7234 21.9575H18.2554V23.4894H16.7234V21.9575ZM16.7234 23.4894H18.2554V25.0213H16.7234V23.4894ZM18.2554 12.766H19.7873V14.2979H18.2554V12.766ZM18.2554 14.2979H19.7873V15.8298H18.2554V14.2979ZM19.7873 14.2979H21.3192V15.8298H19.7873V14.2979ZM19.7873 15.8298H21.3192V17.3617H19.7873V15.8298ZM21.3192 15.8298H22.8511V17.3617H21.3192V15.8298ZM21.3192 17.3617H22.8511V18.8936H21.3192V17.3617ZM22.8511 15.8298H24.383V17.3617H22.8511V15.8298ZM22.8511 14.2979H24.383V15.8298H22.8511V14.2979ZM24.383 14.2979H25.9149V15.8298H24.383V14.2979ZM24.383 12.766H25.9149V14.2979H24.383V12.766ZM25.9149 9.70215H27.4468V11.2341H25.9149V9.70215ZM25.9149 11.2341H27.4468V12.766H25.9149V11.2341ZM25.9149 12.766H27.4468V14.2979H25.9149V12.766ZM25.9149 14.2979H27.4468V15.8298H25.9149V14.2979ZM25.9149 15.8298H27.4468V17.3617H25.9149V15.8298ZM25.9149 17.3617H27.4468V18.8936H25.9149V17.3617ZM25.9149 18.8936H27.4468V20.4256H25.9149V18.8936ZM25.9149 20.4256H27.4468V21.9575H25.9149V20.4256ZM25.9149 21.9575H27.4468V23.4894H25.9149V21.9575ZM25.9149 23.4894H27.4468V25.0213H25.9149V23.4894ZM27.4468 23.4894H28.9788V25.0213H27.4468V23.4894ZM27.4468 21.9575H28.9788V23.4894H27.4468V21.9575ZM27.4468 20.4256H28.9788V21.9575H27.4468V20.4256ZM27.4468 18.8936H28.9788V20.4256H27.4468V18.8936ZM27.4468 17.3617H28.9788V18.8936H27.4468V17.3617ZM27.4468 15.8298H28.9788V17.3617H27.4468V15.8298ZM27.4468 14.2979H28.9788V15.8298H27.4468V14.2979ZM27.4468 12.766H28.9788V14.2979H27.4468V12.766ZM27.4468 11.2341H28.9788V12.766H27.4468V11.2341ZM27.4468 9.70215H28.9788V11.2341H27.4468V9.70215ZM18.2554 11.2341H19.7873V12.766H18.2554V11.2341ZM19.7873 12.766H21.3192V14.2979H19.7873V12.766ZM21.3192 14.2979H22.8511V15.8298H21.3192V14.2979ZM22.8511 12.766H24.383V14.2979H22.8511V12.766ZM24.383 11.2341H25.9149V12.766H24.383V11.2341Z"/>
<path d="M30.5226 9.70215H32.0546V11.2341H30.5226V9.70215ZM32.0546 9.70215H33.5865V11.2341H32.0546V9.70215ZM32.0546 11.2341H33.5865V12.766H32.0546V11.2341ZM32.0546 12.766H33.5865V14.2979H32.0546V12.766ZM32.0546 14.2979H33.5865V15.8298H32.0546V14.2979ZM30.5226 14.2979H32.0546V15.8298H30.5226V14.2979ZM30.5226 12.766H32.0546V14.2979H30.5226V12.766ZM30.5226 11.2341H32.0546V12.766H30.5226V11.2341ZM30.5226 15.8298H32.0546V17.3617H30.5226V15.8298ZM30.5226 17.3617H32.0546V18.8936H30.5226V17.3617ZM30.5226 18.8936H32.0546V20.4256H30.5226V18.8936ZM32.0546 17.3617H33.5865V18.8936H32.0546V17.3617ZM32.0546 15.8298H33.5865V17.3617H32.0546V15.8298ZM32.0546 18.8936H33.5865V20.4256H32.0546V18.8936ZM32.0546 20.4256H33.5865V21.9575H32.0546V20.4256ZM30.5226 21.9575H32.0546V23.4894H30.5226V21.9575ZM30.5226 20.4256H32.0546V21.9575H30.5226V20.4256ZM30.5226 23.4894H32.0546V25.0213H30.5226V23.4894ZM32.0546 23.4894H33.5865V25.0213H32.0546V23.4894ZM32.0546 21.9575H33.5865V23.4894H32.0546V21.9575ZM33.5865 23.4894H35.1184V25.0213H33.5865V23.4894ZM35.1184 23.4894H36.6503V25.0213H35.1184V23.4894ZM36.6503 23.4894H38.1822V25.0213H36.6503V23.4894ZM36.6503 21.9575H38.1822V23.4894H36.6503V21.9575ZM35.1184 21.9575H36.6503V23.4894H35.1184V21.9575ZM33.5865 21.9575H35.1184V23.4894H33.5865V21.9575ZM33.5865 9.70215H35.1184V11.2341H33.5865V9.70215ZM35.1184 9.70215H36.6503V11.2341H35.1184V9.70215ZM36.6503 9.70215H38.1822V11.2341H36.6503V9.70215ZM38.1822 9.70215H39.7141V11.2341H38.1822V9.70215ZM36.6503 11.2341H38.1822V12.766H36.6503V11.2341ZM35.1184 11.2341H36.6503V12.766H35.1184V11.2341ZM33.5865 11.2341H35.1184V12.766H33.5865V11.2341ZM33.5865 17.3617H35.1184V18.8936H33.5865V17.3617ZM35.1184 15.8298H36.6503V17.3617H35.1184V15.8298ZM33.5865 15.8298H35.1184V17.3617H33.5865V15.8298ZM35.1184 17.3617H36.6503V18.8936H35.1184V17.3617ZM38.1822 11.2341H39.7141V12.766H38.1822V11.2341ZM38.1822 21.9575H39.7141V23.4894H38.1822V21.9575ZM38.1822 23.4894H39.7141V25.0213H38.1822V23.4894ZM36.6503 15.8298H38.1822V17.3617H36.6503V15.8298ZM36.6503 17.3617H38.1822V18.8936H36.6503V17.3617Z"/>
<path d="M44.3099 9.70215H45.8418V11.2341H44.3099V9.70215ZM42.778 9.70215H44.3099V11.2341H42.778V9.70215ZM42.778 11.2341H44.3099V12.766H42.778V11.2341ZM44.3099 11.2341H45.8418V12.766H44.3099V11.2341ZM45.8418 11.2341H47.3737V12.766H45.8418V11.2341ZM45.8418 9.70215H47.3737V11.2341H45.8418V9.70215ZM47.3737 9.70215H48.9056V11.2341H47.3737V9.70215ZM48.9056 9.70215H50.4375V11.2341H48.9056V9.70215ZM48.9056 11.2341H50.4375V12.766H48.9056V11.2341ZM47.3737 11.2341H48.9056V12.766H47.3737V11.2341ZM47.3737 12.766H48.9056V14.2979H47.3737V12.766ZM48.9056 12.766H50.4375V14.2979H48.9056V12.766ZM50.4375 11.2341H51.9695V12.766H50.4375V11.2341ZM50.4375 12.766H51.9695V14.2979H50.4375V12.766ZM50.4375 14.2979H51.9695V15.8298H50.4375V14.2979ZM50.4375 15.8298H51.9695V17.3617H50.4375V15.8298ZM50.4375 17.3617H51.9695V18.8936H50.4375V17.3617ZM50.4375 18.8936H51.9695V20.4256H50.4375V18.8936ZM50.4375 20.4256H51.9695V21.9575H50.4375V20.4256ZM50.4375 21.9575H51.9695V23.4894H50.4375V21.9575ZM48.9056 21.9575H50.4375V23.4894H48.9056V21.9575ZM48.9056 20.4256H50.4375V21.9575H48.9056V20.4256ZM48.9056 18.8936H50.4375V20.4256H48.9056V18.8936ZM48.9056 17.3617H50.4375V18.8936H48.9056V17.3617ZM48.9056 15.8298H50.4375V17.3617H48.9056V15.8298ZM48.9056 14.2979H50.4375V15.8298H48.9056V14.2979ZM47.3737 20.4256H48.9056V21.9575H47.3737V20.4256ZM47.3737 21.9575H48.9056V23.4894H47.3737V21.9575ZM48.9056 23.4894H50.4375V25.0213H48.9056V23.4894ZM47.3737 23.4894H48.9056V25.0213H47.3737V23.4894ZM45.8418 23.4894H47.3737V25.0213H45.8418V23.4894ZM45.8418 21.9575H47.3737V23.4894H45.8418V21.9575ZM44.3099 23.4894H45.8418V25.0213H44.3099V23.4894ZM42.778 23.4894H44.3099V25.0213H42.778V23.4894ZM42.778 21.9575H44.3099V23.4894H42.778V21.9575ZM44.3099 21.9575H45.8418V23.4894H44.3099V21.9575ZM44.3099 20.4256H45.8418V21.9575H44.3099V20.4256ZM42.778 20.4256H44.3099V21.9575H42.778V20.4256ZM41.246 21.9575H42.778V23.4894H41.246V21.9575ZM41.246 20.4256H42.778V21.9575H41.246V20.4256ZM41.246 18.8936H42.778V20.4256H41.246V18.8936ZM41.246 17.3617H42.778V18.8936H41.246V17.3617ZM41.246 15.8298H42.778V17.3617H41.246V15.8298ZM41.246 14.2979H42.778V15.8298H41.246V14.2979ZM41.246 12.766H42.778V14.2979H41.246V12.766ZM42.778 12.766H44.3099V14.2979H42.778V12.766ZM41.246 11.2341H42.778V12.766H41.246V11.2341ZM44.3099 12.766H45.8418V14.2979H44.3099V12.766ZM42.778 14.2979H44.3099V15.8298H42.778V14.2979ZM42.778 15.8298H44.3099V17.3617H42.778V15.8298ZM42.778 17.3617H44.3099V18.8936H42.778V17.3617ZM42.778 18.8936H44.3099V20.4256H42.778V18.8936Z"/>
<path d="M56.5692 23.4894H58.1011V25.0213H56.5692V23.4894ZM56.5692 21.9575H58.1011V23.4894H56.5692V21.9575ZM56.5692 20.4256H58.1011V21.9575H56.5692V20.4256ZM55.0373 21.9575H56.5692V23.4894H55.0373V21.9575ZM55.0373 20.4256H56.5692V21.9575H55.0373V20.4256ZM53.5054 20.4256H55.0373V21.9575H53.5054V20.4256ZM55.0373 18.8936H56.5692V20.4256H55.0373V18.8936ZM58.1011 20.4256H59.633V21.9575H58.1011V20.4256ZM58.1011 21.9575H59.633V23.4894H58.1011V21.9575ZM59.633 20.4256H61.1649V21.9575H59.633V20.4256ZM53.5054 18.8936H55.0373V20.4256H53.5054V18.8936ZM55.0373 17.3617H56.5692V18.8936H55.0373V17.3617ZM53.5054 17.3617H55.0373V18.8936H53.5054V17.3617ZM53.5054 15.8298H55.0373V17.3617H53.5054V15.8298ZM55.0373 15.8298H56.5692V17.3617H55.0373V15.8298ZM55.0373 14.2979H56.5692V15.8298H55.0373V14.2979ZM53.5054 14.2979H55.0373V15.8298H53.5054V14.2979ZM53.5054 12.766H55.0373V14.2979H53.5054V12.766ZM55.0373 12.766H56.5692V14.2979H55.0373V12.766ZM53.5054 9.70215H55.0373V11.2341H53.5054V9.70215ZM55.0373 9.70215H56.5692V11.2341H55.0373V9.70215ZM55.0373 11.2341H56.5692V12.766H55.0373V11.2341ZM53.5054 11.2341H55.0373V12.766H53.5054V11.2341ZM64.2288 23.4894H65.7607V25.0213H64.2288V23.4894ZM64.2288 21.9575H65.7607V23.4894H64.2288V21.9575ZM64.2288 20.4256H65.7607V21.9575H64.2288V20.4256ZM62.6968 21.9575H64.2288V23.4894H62.6968V21.9575ZM62.6968 20.4256H64.2288V21.9575H62.6968V20.4256ZM61.1649 20.4256H62.6968V21.9575H61.1649V20.4256ZM61.1649 18.8936H62.6968V20.4256H61.1649V18.8936ZM65.7607 20.4256H67.2926V21.9575H65.7607V20.4256ZM65.7607 21.9575H67.2926V23.4894H65.7607V21.9575ZM65.7607 18.8936H67.2926V20.4256H65.7607V18.8936ZM67.2926 20.4256H68.8245V21.9575H67.2926V20.4256ZM67.2926 18.8936H68.8245V20.4256H67.2926V18.8936ZM59.633 18.8936H61.1649V20.4256H59.633V18.8936ZM65.7607 9.70215H67.2926V11.2341H65.7607V9.70215ZM67.2926 9.70215H68.8245V11.2341H67.2926V9.70215ZM67.2926 11.2341H68.8245V12.766H67.2926V11.2341ZM67.2926 12.766H68.8245V14.2979H67.2926V12.766ZM67.2926 14.2979H68.8245V15.8298H67.2926V14.2979ZM67.2926 15.8298H68.8245V17.3617H67.2926V15.8298ZM65.7607 15.8298H67.2926V17.3617H65.7607V15.8298ZM65.7607 17.3617H67.2926V18.8936H65.7607V17.3617ZM65.7607 14.2979H67.2926V15.8298H65.7607V14.2979ZM65.7607 12.766H67.2926V14.2979H65.7607V12.766ZM65.7607 11.2341H67.2926V12.766H65.7607V11.2341ZM67.2926 17.3617H68.8245V18.8936H67.2926V17.3617ZM61.1649 17.3617H62.6968V18.8936H61.1649V17.3617ZM59.633 17.3617H61.1649V18.8936H59.633V17.3617ZM59.633 15.8298H61.1649V17.3617H59.633V15.8298ZM61.1649 15.8298H62.6968V17.3617H61.1649V15.8298ZM61.1649 14.2979H62.6968V15.8298H61.1649V14.2979ZM59.633 14.2979H61.1649V15.8298H59.633V14.2979ZM59.633 12.766H61.1649V14.2979H59.633V12.766ZM61.1649 12.766H62.6968V14.2979H61.1649V12.766ZM59.633 9.70215H61.1649V11.2341H59.633V9.70215ZM61.1649 9.70215H62.6968V11.2341H61.1649V9.70215ZM61.1649 11.2341H62.6968V12.766H61.1649V11.2341ZM59.633 11.2341H61.1649V12.766H59.633V11.2341Z"/>
</mask>
<path d="M15.1915 23.4894H16.7234V25.0213H15.1915V23.4894ZM15.1915 21.9575H16.7234V23.4894H15.1915V21.9575ZM15.1915 20.4256H16.7234V21.9575H15.1915V20.4256ZM15.1915 18.8936H16.7234V20.4256H15.1915V18.8936ZM15.1915 17.3617H16.7234V18.8936H15.1915V17.3617ZM15.1915 15.8298H16.7234V17.3617H15.1915V15.8298ZM16.7234 15.8298H18.2554V17.3617H16.7234V15.8298ZM16.7234 14.2979H18.2554V15.8298H16.7234V14.2979ZM16.7234 12.766H18.2554V14.2979H16.7234V12.766ZM16.7234 11.2341H18.2554V12.766H16.7234V11.2341ZM15.1915 11.2341H16.7234V12.766H15.1915V11.2341ZM15.1915 9.70215H16.7234V11.2341H15.1915V9.70215ZM15.1915 12.766H16.7234V14.2979H15.1915V12.766ZM15.1915 14.2979H16.7234V15.8298H15.1915V14.2979ZM16.7234 9.70215H18.2554V11.2341H16.7234V9.70215ZM16.7234 17.3617H18.2554V18.8936H16.7234V17.3617ZM16.7234 18.8936H18.2554V20.4256H16.7234V18.8936ZM16.7234 20.4256H18.2554V21.9575H16.7234V20.4256ZM16.7234 21.9575H18.2554V23.4894H16.7234V21.9575ZM16.7234 23.4894H18.2554V25.0213H16.7234V23.4894ZM18.2554 12.766H19.7873V14.2979H18.2554V12.766ZM18.2554 14.2979H19.7873V15.8298H18.2554V14.2979ZM19.7873 14.2979H21.3192V15.8298H19.7873V14.2979ZM19.7873 15.8298H21.3192V17.3617H19.7873V15.8298ZM21.3192 15.8298H22.8511V17.3617H21.3192V15.8298ZM21.3192 17.3617H22.8511V18.8936H21.3192V17.3617ZM22.8511 15.8298H24.383V17.3617H22.8511V15.8298ZM22.8511 14.2979H24.383V15.8298H22.8511V14.2979ZM24.383 14.2979H25.9149V15.8298H24.383V14.2979ZM24.383 12.766H25.9149V14.2979H24.383V12.766ZM25.9149 9.70215H27.4468V11.2341H25.9149V9.70215ZM25.9149 11.2341H27.4468V12.766H25.9149V11.2341ZM25.9149 12.766H27.4468V14.2979H25.9149V12.766ZM25.9149 14.2979H27.4468V15.8298H25.9149V14.2979ZM25.9149 15.8298H27.4468V17.3617H25.9149V15.8298ZM25.9149 17.3617H27.4468V18.8936H25.9149V17.3617ZM25.9149 18.8936H27.4468V20.4256H25.9149V18.8936ZM25.9149 20.4256H27.4468V21.9575H25.9149V20.4256ZM25.9149 21.9575H27.4468V23.4894H25.9149V21.9575ZM25.9149 23.4894H27.4468V25.0213H25.9149V23.4894ZM27.4468 23.4894H28.9788V25.0213H27.4468V23.4894ZM27.4468 21.9575H28.9788V23.4894H27.4468V21.9575ZM27.4468 20.4256H28.9788V21.9575H27.4468V20.4256ZM27.4468 18.8936H28.9788V20.4256H27.4468V18.8936ZM27.4468 17.3617H28.9788V18.8936H27.4468V17.3617ZM27.4468 15.8298H28.9788V17.3617H27.4468V15.8298ZM27.4468 14.2979H28.9788V15.8298H27.4468V14.2979ZM27.4468 12.766H28.9788V14.2979H27.4468V12.766ZM27.4468 11.2341H28.9788V12.766H27.4468V11.2341ZM27.4468 9.70215H28.9788V11.2341H27.4468V9.70215ZM18.2554 11.2341H19.7873V12.766H18.2554V11.2341ZM19.7873 12.766H21.3192V14.2979H19.7873V12.766ZM21.3192 14.2979H22.8511V15.8298H21.3192V14.2979ZM22.8511 12.766H24.383V14.2979H22.8511V12.766ZM24.383 11.2341H25.9149V12.766H24.383V11.2341Z" fill="#FF99FF"/>
<path d="M30.5226 9.70215H32.0546V11.2341H30.5226V9.70215ZM32.0546 9.70215H33.5865V11.2341H32.0546V9.70215ZM32.0546 11.2341H33.5865V12.766H32.0546V11.2341ZM32.0546 12.766H33.5865V14.2979H32.0546V12.766ZM32.0546 14.2979H33.5865V15.8298H32.0546V14.2979ZM30.5226 14.2979H32.0546V15.8298H30.5226V14.2979ZM30.5226 12.766H32.0546V14.2979H30.5226V12.766ZM30.5226 11.2341H32.0546V12.766H30.5226V11.2341ZM30.5226 15.8298H32.0546V17.3617H30.5226V15.8298ZM30.5226 17.3617H32.0546V18.8936H30.5226V17.3617ZM30.5226 18.8936H32.0546V20.4256H30.5226V18.8936ZM32.0546 17.3617H33.5865V18.8936H32.0546V17.3617ZM32.0546 15.8298H33.5865V17.3617H32.0546V15.8298ZM32.0546 18.8936H33.5865V20.4256H32.0546V18.8936ZM32.0546 20.4256H33.5865V21.9575H32.0546V20.4256ZM30.5226 21.9575H32.0546V23.4894H30.5226V21.9575ZM30.5226 20.4256H32.0546V21.9575H30.5226V20.4256ZM30.5226 23.4894H32.0546V25.0213H30.5226V23.4894ZM32.0546 23.4894H33.5865V25.0213H32.0546V23.4894ZM32.0546 21.9575H33.5865V23.4894H32.0546V21.9575ZM33.5865 23.4894H35.1184V25.0213H33.5865V23.4894ZM35.1184 23.4894H36.6503V25.0213H35.1184V23.4894ZM36.6503 23.4894H38.1822V25.0213H36.6503V23.4894ZM36.6503 21.9575H38.1822V23.4894H36.6503V21.9575ZM35.1184 21.9575H36.6503V23.4894H35.1184V21.9575ZM33.5865 21.9575H35.1184V23.4894H33.5865V21.9575ZM33.5865 9.70215H35.1184V11.2341H33.5865V9.70215ZM35.1184 9.70215H36.6503V11.2341H35.1184V9.70215ZM36.6503 9.70215H38.1822V11.2341H36.6503V9.70215ZM38.1822 9.70215H39.7141V11.2341H38.1822V9.70215ZM36.6503 11.2341H38.1822V12.766H36.6503V11.2341ZM35.1184 11.2341H36.6503V12.766H35.1184V11.2341ZM33.5865 11.2341H35.1184V12.766H33.5865V11.2341ZM33.5865 17.3617H35.1184V18.8936H33.5865V17.3617ZM35.1184 15.8298H36.6503V17.3617H35.1184V15.8298ZM33.5865 15.8298H35.1184V17.3617H33.5865V15.8298ZM35.1184 17.3617H36.6503V18.8936H35.1184V17.3617ZM38.1822 11.2341H39.7141V12.766H38.1822V11.2341ZM38.1822 21.9575H39.7141V23.4894H38.1822V21.9575ZM38.1822 23.4894H39.7141V25.0213H38.1822V23.4894ZM36.6503 15.8298H38.1822V17.3617H36.6503V15.8298ZM36.6503 17.3617H38.1822V18.8936H36.6503V17.3617Z" fill="#FF99FF"/>
<path d="M44.3099 9.70215H45.8418V11.2341H44.3099V9.70215ZM42.778 9.70215H44.3099V11.2341H42.778V9.70215ZM42.778 11.2341H44.3099V12.766H42.778V11.2341ZM44.3099 11.2341H45.8418V12.766H44.3099V11.2341ZM45.8418 11.2341H47.3737V12.766H45.8418V11.2341ZM45.8418 9.70215H47.3737V11.2341H45.8418V9.70215ZM47.3737 9.70215H48.9056V11.2341H47.3737V9.70215ZM48.9056 9.70215H50.4375V11.2341H48.9056V9.70215ZM48.9056 11.2341H50.4375V12.766H48.9056V11.2341ZM47.3737 11.2341H48.9056V12.766H47.3737V11.2341ZM47.3737 12.766H48.9056V14.2979H47.3737V12.766ZM48.9056 12.766H50.4375V14.2979H48.9056V12.766ZM50.4375 11.2341H51.9695V12.766H50.4375V11.2341ZM50.4375 12.766H51.9695V14.2979H50.4375V12.766ZM50.4375 14.2979H51.9695V15.8298H50.4375V14.2979ZM50.4375 15.8298H51.9695V17.3617H50.4375V15.8298ZM50.4375 17.3617H51.9695V18.8936H50.4375V17.3617ZM50.4375 18.8936H51.9695V20.4256H50.4375V18.8936ZM50.4375 20.4256H51.9695V21.9575H50.4375V20.4256ZM50.4375 21.9575H51.9695V23.4894H50.4375V21.9575ZM48.9056 21.9575H50.4375V23.4894H48.9056V21.9575ZM48.9056 20.4256H50.4375V21.9575H48.9056V20.4256ZM48.9056 18.8936H50.4375V20.4256H48.9056V18.8936ZM48.9056 17.3617H50.4375V18.8936H48.9056V17.3617ZM48.9056 15.8298H50.4375V17.3617H48.9056V15.8298ZM48.9056 14.2979H50.4375V15.8298H48.9056V14.2979ZM47.3737 20.4256H48.9056V21.9575H47.3737V20.4256ZM47.3737 21.9575H48.9056V23.4894H47.3737V21.9575ZM48.9056 23.4894H50.4375V25.0213H48.9056V23.4894ZM47.3737 23.4894H48.9056V25.0213H47.3737V23.4894ZM45.8418 23.4894H47.3737V25.0213H45.8418V23.4894ZM45.8418 21.9575H47.3737V23.4894H45.8418V21.9575ZM44.3099 23.4894H45.8418V25.0213H44.3099V23.4894ZM42.778 23.4894H44.3099V25.0213H42.778V23.4894ZM42.778 21.9575H44.3099V23.4894H42.778V21.9575ZM44.3099 21.9575H45.8418V23.4894H44.3099V21.9575ZM44.3099 20.4256H45.8418V21.9575H44.3099V20.4256ZM42.778 20.4256H44.3099V21.9575H42.778V20.4256ZM41.246 21.9575H42.778V23.4894H41.246V21.9575ZM41.246 20.4256H42.778V21.9575H41.246V20.4256ZM41.246 18.8936H42.778V20.4256H41.246V18.8936ZM41.246 17.3617H42.778V18.8936H41.246V17.3617ZM41.246 15.8298H42.778V17.3617H41.246V15.8298ZM41.246 14.2979H42.778V15.8298H41.246V14.2979ZM41.246 12.766H42.778V14.2979H41.246V12.766ZM42.778 12.766H44.3099V14.2979H42.778V12.766ZM41.246 11.2341H42.778V12.766H41.246V11.2341ZM44.3099 12.766H45.8418V14.2979H44.3099V12.766ZM42.778 14.2979H44.3099V15.8298H42.778V14.2979ZM42.778 15.8298H44.3099V17.3617H42.778V15.8298ZM42.778 17.3617H44.3099V18.8936H42.778V17.3617ZM42.778 18.8936H44.3099V20.4256H42.778V18.8936Z" fill="#FF99FF"/>
<path d="M56.5692 23.4894H58.1011V25.0213H56.5692V23.4894ZM56.5692 21.9575H58.1011V23.4894H56.5692V21.9575ZM56.5692 20.4256H58.1011V21.9575H56.5692V20.4256ZM55.0373 21.9575H56.5692V23.4894H55.0373V21.9575ZM55.0373 20.4256H56.5692V21.9575H55.0373V20.4256ZM53.5054 20.4256H55.0373V21.9575H53.5054V20.4256ZM55.0373 18.8936H56.5692V20.4256H55.0373V18.8936ZM58.1011 20.4256H59.633V21.9575H58.1011V20.4256ZM58.1011 21.9575H59.633V23.4894H58.1011V21.9575ZM59.633 20.4256H61.1649V21.9575H59.633V20.4256ZM53.5054 18.8936H55.0373V20.4256H53.5054V18.8936ZM55.0373 17.3617H56.5692V18.8936H55.0373V17.3617ZM53.5054 17.3617H55.0373V18.8936H53.5054V17.3617ZM53.5054 15.8298H55.0373V17.3617H53.5054V15.8298ZM55.0373 15.8298H56.5692V17.3617H55.0373V15.8298ZM55.0373 14.2979H56.5692V15.8298H55.0373V14.2979ZM53.5054 14.2979H55.0373V15.8298H53.5054V14.2979ZM53.5054 12.766H55.0373V14.2979H53.5054V12.766ZM55.0373 12.766H56.5692V14.2979H55.0373V12.766ZM53.5054 9.70215H55.0373V11.2341H53.5054V9.70215ZM55.0373 9.70215H56.5692V11.2341H55.0373V9.70215ZM55.0373 11.2341H56.5692V12.766H55.0373V11.2341ZM53.5054 11.2341H55.0373V12.766H53.5054V11.2341ZM64.2288 23.4894H65.7607V25.0213H64.2288V23.4894ZM64.2288 21.9575H65.7607V23.4894H64.2288V21.9575ZM64.2288 20.4256H65.7607V21.9575H64.2288V20.4256ZM62.6968 21.9575H64.2288V23.4894H62.6968V21.9575ZM62.6968 20.4256H64.2288V21.9575H62.6968V20.4256ZM61.1649 20.4256H62.6968V21.9575H61.1649V20.4256ZM61.1649 18.8936H62.6968V20.4256H61.1649V18.8936ZM65.7607 20.4256H67.2926V21.9575H65.7607V20.4256ZM65.7607 21.9575H67.2926V23.4894H65.7607V21.9575ZM65.7607 18.8936H67.2926V20.4256H65.7607V18.8936ZM67.2926 20.4256H68.8245V21.9575H67.2926V20.4256ZM67.2926 18.8936H68.8245V20.4256H67.2926V18.8936ZM59.633 18.8936H61.1649V20.4256H59.633V18.8936ZM65.7607 9.70215H67.2926V11.2341H65.7607V9.70215ZM67.2926 9.70215H68.8245V11.2341H67.2926V9.70215ZM67.2926 11.2341H68.8245V12.766H67.2926V11.2341ZM67.2926 12.766H68.8245V14.2979H67.2926V12.766ZM67.2926 14.2979H68.8245V15.8298H67.2926V14.2979ZM67.2926 15.8298H68.8245V17.3617H67.2926V15.8298ZM65.7607 15.8298H67.2926V17.3617H65.7607V15.8298ZM65.7607 17.3617H67.2926V18.8936H65.7607V17.3617ZM65.7607 14.2979H67.2926V15.8298H65.7607V14.2979ZM65.7607 12.766H67.2926V14.2979H65.7607V12.766ZM65.7607 11.2341H67.2926V12.766H65.7607V11.2341ZM67.2926 17.3617H68.8245V18.8936H67.2926V17.3617ZM61.1649 17.3617H62.6968V18.8936H61.1649V17.3617ZM59.633 17.3617H61.1649V18.8936H59.633V17.3617ZM59.633 15.8298H61.1649V17.3617H59.633V15.8298ZM61.1649 15.8298H62.6968V17.3617H61.1649V15.8298ZM61.1649 14.2979H62.6968V15.8298H61.1649V14.2979ZM59.633 14.2979H61.1649V15.8298H59.633V14.2979ZM59.633 12.766H61.1649V14.2979H59.633V12.766ZM61.1649 12.766H62.6968V14.2979H61.1649V12.766ZM59.633 9.70215H61.1649V11.2341H59.633V9.70215ZM61.1649 9.70215H62.6968V11.2341H61.1649V9.70215ZM61.1649 11.2341H62.6968V12.766H61.1649V11.2341ZM59.633 11.2341H61.1649V12.766H59.633V11.2341Z" fill="#FF99FF"/>
<path d="M18.2554 15.8298V16.2766H18.7022V15.8298H18.2554ZM18.2554 11.2341H18.7022V10.7873H18.2554V11.2341ZM19.7873 12.766H20.2341V12.3192H19.7873V12.766ZM19.7873 15.8298H19.3405V16.2766H19.7873V15.8298ZM21.3192 14.2979H21.766V13.8511H21.3192V14.2979ZM21.3192 17.3617H20.8724V17.8085H21.3192V17.3617ZM22.8511 17.3617V17.8085H23.2979V17.3617H22.8511ZM24.383 15.8298V16.2766H24.8298V15.8298H24.383ZM22.8511 14.2979V13.8511H22.4043V14.2979H22.8511ZM25.9149 15.8298H25.4681V16.2766H25.9149V15.8298ZM24.383 12.766V12.3192H23.9362V12.766H24.383ZM25.9149 11.2341V10.7873H25.4681V11.2341H25.9149ZM33.5865 12.766V13.2128H34.0333V12.766H33.5865ZM33.5865 15.8298H34.0333V15.383H33.5865V15.8298ZM33.5865 18.8936V19.3404H34.0333V18.8936H33.5865ZM33.5865 21.9575H34.0333V21.5107H33.5865V21.9575ZM42.778 11.2341V10.7873H42.3312V11.2341H42.778ZM45.8418 12.766V13.2128H46.2886V12.766H45.8418ZM47.3737 12.766H46.9269V13.2128H47.3737V12.766ZM50.4375 11.2341H50.8843V10.7873H50.4375V11.2341ZM48.9056 14.2979H48.4588V14.7447H48.9056V14.2979ZM50.4375 23.4894V23.9362H50.8843V23.4894H50.4375ZM48.9056 20.4256V19.9787H48.4588V20.4256H48.9056ZM47.3737 21.9575V21.5107H46.9269V21.9575H47.3737ZM45.8418 21.9575H46.2886V21.5107H45.8418V21.9575ZM42.778 23.4894H42.3312V23.9362H42.778V23.4894ZM44.3099 20.4256H44.7567V19.9787H44.3099V20.4256ZM44.3099 14.2979V14.7447H44.7567V14.2979H44.3099ZM56.5692 23.4894H56.1224V23.9362H56.5692V23.4894ZM58.1011 23.4894V23.9362H58.5479V23.4894H58.1011ZM56.5692 20.4256H57.016V19.9787H56.5692V20.4256ZM55.0373 21.9575H54.5905V22.4043H55.0373V21.9575ZM59.633 20.4256V19.9787H59.1862V20.4256H59.633ZM59.633 21.9575V22.4043H60.0798V21.9575H59.633ZM64.2288 23.4894H63.782V23.9362H64.2288V23.4894ZM65.7607 23.4894V23.9362H66.2075V23.4894H65.7607ZM65.7607 20.4256V19.9787H65.3139V20.4256H65.7607ZM62.6968 21.9575H62.25V22.4043H62.6968V21.9575ZM62.6968 20.4256H63.1437V19.9787H62.6968V20.4256ZM67.2926 21.9575V22.4043H67.7394V21.9575H67.2926ZM15.1915 23.4894V23.9362H16.7234V23.4894V23.0426H15.1915V23.4894ZM16.7234 23.4894H16.2766V25.0213H16.7234H17.1703V23.4894H16.7234ZM15.1915 21.9575V22.4043H16.7234V21.9575V21.5107H15.1915V21.9575ZM16.7234 21.9575H16.2766V23.4894H16.7234H17.1703V21.9575H16.7234ZM15.1915 20.4256V20.8724H16.7234V20.4256V19.9787H15.1915V20.4256ZM16.7234 20.4256H16.2766V21.9575H16.7234H17.1703V20.4256H16.7234ZM15.1915 18.8936V19.3404H16.7234V18.8936V18.4468H15.1915V18.8936ZM16.7234 18.8936H16.2766V20.4256H16.7234H17.1703V18.8936H16.7234ZM15.1915 17.3617V17.8085H16.7234V17.3617V16.9149H15.1915V17.3617ZM16.7234 17.3617H16.2766V18.8936H16.7234H17.1703V17.3617H16.7234ZM15.1915 15.8298V16.2766H16.7234V15.8298V15.383H15.1915V15.8298ZM16.7234 15.8298H16.2766V17.3617H16.7234H17.1703V15.8298H16.7234ZM16.7234 15.8298V16.2766H18.2554V15.8298V15.383H16.7234V15.8298ZM18.2554 17.3617V16.9149H16.7234V17.3617V17.8085H18.2554V17.3617ZM16.7234 14.2979V14.7447H18.2554V14.2979V13.8511H16.7234V14.2979ZM18.2554 14.2979H17.8085V15.8298H18.2554H18.7022V14.2979H18.2554ZM16.7234 15.8298H17.1703V14.2979H16.7234H16.2766V15.8298H16.7234ZM16.7234 12.766V13.2128H18.2554V12.766V12.3192H16.7234V12.766ZM18.2554 12.766H17.8085V14.2979H18.2554H18.7022V12.766H18.2554ZM16.7234 14.2979H17.1703V12.766H16.7234H16.2766V14.2979H16.7234ZM16.7234 11.2341V11.6809H18.2554V11.2341V10.7873H16.7234V11.2341ZM18.2554 11.2341H17.8085V12.766H18.2554H18.7022V11.2341H18.2554ZM16.7234 12.766H17.1703V11.2341H16.7234H16.2766V12.766H16.7234ZM15.1915 11.2341V11.6809H16.7234V11.2341V10.7873H15.1915V11.2341ZM16.7234 12.766V12.3192H15.1915V12.766V13.2128H16.7234V12.766ZM16.7234 9.70215H16.2766V11.2341H16.7234H17.1703V9.70215H16.7234ZM16.7234 14.2979V13.8511H15.1915V14.2979V14.7447H16.7234V14.2979ZM18.2554 18.8936V18.4468H16.7234V18.8936V19.3404H18.2554V18.8936ZM18.2554 20.4256V19.9787H16.7234V20.4256V20.8724H18.2554V20.4256ZM18.2554 21.9575V21.5107H16.7234V21.9575V22.4043H18.2554V21.9575ZM18.2554 23.4894V23.0426H16.7234V23.4894V23.9362H18.2554V23.4894ZM18.2554 12.766V13.2128H19.7873V12.766V12.3192H18.2554V12.766ZM19.7873 12.766H19.3405V14.2979H19.7873H20.2341V12.766H19.7873ZM19.7873 14.2979V13.8511H18.2554V14.2979V14.7447H19.7873V14.2979ZM19.7873 14.2979H19.3405V15.8298H19.7873H20.2341V14.2979H19.7873ZM19.7873 14.2979V14.7447H21.3192V14.2979V13.8511H19.7873V14.2979ZM21.3192 14.2979H20.8724V15.8298H21.3192H21.766V14.2979H21.3192ZM21.3192 15.8298V15.383H19.7873V15.8298V16.2766H21.3192V15.8298ZM21.3192 15.8298H20.8724V17.3617H21.3192H21.766V15.8298H21.3192ZM21.3192 15.8298V16.2766H22.8511V15.8298V15.383H21.3192V15.8298ZM22.8511 15.8298H22.4043V17.3617H22.8511H23.2979V15.8298H22.8511ZM22.8511 17.3617V16.9149H21.3192V17.3617V17.8085H22.8511V17.3617ZM22.8511 15.8298V16.2766H24.383V15.8298V15.383H22.8511V15.8298ZM22.8511 14.2979V14.7447H24.383V14.2979V13.8511H22.8511V14.2979ZM24.383 14.2979H23.9362V15.8298H24.383H24.8298V14.2979H24.383ZM22.8511 15.8298H23.2979V14.2979H22.8511H22.4043V15.8298H22.8511ZM24.383 14.2979V14.7447H25.9149V14.2979V13.8511H24.383V14.2979ZM25.9149 14.2979H25.4681V15.8298H25.9149H26.3617V14.2979H25.9149ZM24.383 12.766V13.2128H25.9149V12.766V12.3192H24.383V12.766ZM25.9149 12.766H25.4681V14.2979H25.9149H26.3617V12.766H25.9149ZM24.383 14.2979H24.8298V12.766H24.383H23.9362V14.2979H24.383ZM27.4468 9.70215H27V11.2341H27.4468H27.8937V9.70215H27.4468ZM27.4468 11.2341V10.7873H25.9149V11.2341V11.6809H27.4468V11.2341ZM27.4468 11.2341H27V12.766H27.4468H27.8937V11.2341H27.4468ZM27.4468 12.766V12.3192H25.9149V12.766V13.2128H27.4468V12.766ZM25.9149 12.766H26.3617V11.2341H25.9149H25.4681V12.766H25.9149ZM27.4468 12.766H27V14.2979H27.4468H27.8937V12.766H27.4468ZM27.4468 14.2979V13.8511H25.9149V14.2979V14.7447H27.4468V14.2979ZM27.4468 14.2979H27V15.8298H27.4468H27.8937V14.2979H27.4468ZM27.4468 15.8298V15.383H25.9149V15.8298V16.2766H27.4468V15.8298ZM27.4468 15.8298H27V17.3617H27.4468H27.8937V15.8298H27.4468ZM27.4468 17.3617V16.9149H25.9149V17.3617V17.8085H27.4468V17.3617ZM27.4468 17.3617H27V18.8936H27.4468H27.8937V17.3617H27.4468ZM27.4468 18.8936V18.4468H25.9149V18.8936V19.3404H27.4468V18.8936ZM27.4468 18.8936H27V20.4256H27.4468H27.8937V18.8936H27.4468ZM27.4468 20.4256V19.9787H25.9149V20.4256V20.8724H27.4468V20.4256ZM27.4468 20.4256H27V21.9575H27.4468H27.8937V20.4256H27.4468ZM27.4468 21.9575V21.5107H25.9149V21.9575V22.4043H27.4468V21.9575ZM27.4468 21.9575H27V23.4894H27.4468H27.8937V21.9575H27.4468ZM27.4468 23.4894V23.0426H25.9149V23.4894V23.9362H27.4468V23.4894ZM27.4468 23.4894H27V25.0213H27.4468H27.8937V23.4894H27.4468ZM27.4468 23.4894V23.9362H28.9788V23.4894V23.0426H27.4468V23.4894ZM27.4468 21.9575V22.4043H28.9788V21.9575V21.5107H27.4468V21.9575ZM27.4468 20.4256V20.8724H28.9788V20.4256V19.9787H27.4468V20.4256ZM27.4468 18.8936V19.3404H28.9788V18.8936V18.4468H27.4468V18.8936ZM27.4468 17.3617V17.8085H28.9788V17.3617V16.9149H27.4468V17.3617ZM27.4468 15.8298V16.2766H28.9788V15.8298V15.383H27.4468V15.8298ZM27.4468 14.2979V14.7447H28.9788V14.2979V13.8511H27.4468V14.2979ZM27.4468 12.766V13.2128H28.9788V12.766V12.3192H27.4468V12.766ZM27.4468 11.2341V11.6809H28.9788V11.2341V10.7873H27.4468V11.2341ZM32.0546 9.70215H31.6078V11.2341H32.0546H32.5014V9.70215H32.0546ZM32.0546 11.2341V10.7873H30.5226V11.2341V11.6809H32.0546V11.2341ZM33.5865 9.70215H33.1397V11.2341H33.5865H34.0333V9.70215H33.5865ZM33.5865 11.2341V10.7873H32.0546V11.2341V11.6809H33.5865V11.2341ZM33.5865 11.2341H33.1397V12.766H33.5865H34.0333V11.2341H33.5865ZM33.5865 12.766V12.3192H32.0546V12.766V13.2128H33.5865V12.766ZM32.0546 12.766H32.5014V11.2341H32.0546H31.6078V12.766H32.0546ZM33.5865 14.2979V13.8511H32.0546V14.2979V14.7447H33.5865V14.2979ZM32.0546 14.2979H32.5014V12.766H32.0546H31.6078V14.2979H32.0546ZM33.5865 15.8298V15.383H32.0546V15.8298V16.2766H33.5865V15.8298ZM32.0546 15.8298H32.5014V14.2979H32.0546H31.6078V15.8298H32.0546ZM30.5226 14.2979V14.7447H32.0546V14.2979V13.8511H30.5226V14.2979ZM32.0546 15.8298V15.383H30.5226V15.8298V16.2766H32.0546V15.8298ZM30.5226 12.766V13.2128H32.0546V12.766V12.3192H30.5226V12.766ZM32.0546 15.8298H31.6078V17.3617H32.0546H32.5014V15.8298H32.0546ZM32.0546 17.3617V16.9149H30.5226V17.3617V17.8085H32.0546V17.3617ZM32.0546 17.3617H31.6078V18.8936H32.0546H32.5014V17.3617H32.0546ZM32.0546 18.8936V18.4468H30.5226V18.8936V19.3404H32.0546V18.8936ZM32.0546 18.8936H31.6078V20.4256H32.0546H32.5014V18.8936H32.0546ZM32.0546 20.4256V19.9787H30.5226V20.4256V20.8724H32.0546V20.4256ZM32.0546 17.3617V17.8085H33.5865V17.3617V16.9149H32.0546V17.3617ZM33.5865 17.3617H33.1397V18.8936H33.5865H34.0333V17.3617H33.5865ZM33.5865 18.8936V18.4468H32.0546V18.8936V19.3404H33.5865V18.8936ZM33.5865 15.8298H33.1397V17.3617H33.5865H34.0333V15.8298H33.5865ZM33.5865 20.4256V19.9787H32.0546V20.4256V20.8724H33.5865V20.4256ZM33.5865 21.9575V21.5107H32.0546V21.9575V22.4043H33.5865V21.9575ZM32.0546 21.9575H32.5014V20.4256H32.0546H31.6078V21.9575H32.0546ZM30.5226 21.9575V22.4043H32.0546V21.9575V21.5107H30.5226V21.9575ZM32.0546 21.9575H31.6078V23.4894H32.0546H32.5014V21.9575H32.0546ZM32.0546 23.4894V23.0426H30.5226V23.4894V23.9362H32.0546V23.4894ZM32.0546 23.4894H31.6078V25.0213H32.0546H32.5014V23.4894H32.0546ZM32.0546 23.4894V23.9362H33.5865V23.4894V23.0426H32.0546V23.4894ZM33.5865 23.4894H33.1397V25.0213H33.5865H34.0333V23.4894H33.5865ZM33.5865 21.9575H33.1397V23.4894H33.5865H34.0333V21.9575H33.5865ZM33.5865 23.4894V23.9362H35.1184V23.4894V23.0426H33.5865V23.4894ZM35.1184 23.4894H34.6716V25.0213H35.1184H35.5652V23.4894H35.1184ZM35.1184 23.4894V23.9362H36.6503V23.4894V23.0426H35.1184V23.4894ZM36.6503 23.4894H36.2035V25.0213H36.6503H37.0971V23.4894H36.6503ZM36.6503 23.4894V23.9362H38.1822V23.4894V23.0426H36.6503V23.4894ZM38.1822 23.4894H37.7354V25.0213H38.1822H38.629V23.4894H38.1822ZM38.1822 21.9575H37.7354V23.4894H38.1822H38.629V21.9575H38.1822ZM36.6503 23.4894H37.0971V21.9575H36.6503H36.2035V23.4894H36.6503ZM35.1184 23.4894H35.5652V21.9575H35.1184H34.6716V23.4894H35.1184ZM35.1184 9.70215H34.6716V11.2341H35.1184H35.5652V9.70215H35.1184ZM35.1184 11.2341V10.7873H33.5865V11.2341V11.6809H35.1184V11.2341ZM36.6503 9.70215H36.2035V11.2341H36.6503H37.0971V9.70215H36.6503ZM36.6503 11.2341V10.7873H35.1184V11.2341V11.6809H36.6503V11.2341ZM38.1822 9.70215H37.7354V11.2341H38.1822H38.629V9.70215H38.1822ZM38.1822 11.2341V10.7873H36.6503V11.2341V11.6809H38.1822V11.2341ZM39.7141 11.2341V10.7873H38.1822V11.2341V11.6809H39.7141V11.2341ZM38.1822 11.2341H37.7354V12.766H38.1822H38.629V11.2341H38.1822ZM36.6503 12.766H37.0971V11.2341H36.6503H36.2035V12.766H36.6503ZM35.1184 12.766H35.5652V11.2341H35.1184H34.6716V12.766H35.1184ZM33.5865 17.3617V17.8085H35.1184V17.3617V16.9149H33.5865V17.3617ZM35.1184 17.3617H34.6716V18.8936H35.1184H35.5652V17.3617H35.1184ZM36.6503 15.8298H36.2035V17.3617H36.6503H37.0971V15.8298H36.6503ZM36.6503 17.3617V16.9149H35.1184V17.3617V17.8085H36.6503V17.3617ZM35.1184 17.3617H35.5652V15.8298H35.1184H34.6716V17.3617H35.1184ZM36.6503 17.3617H36.2035V18.8936H36.6503H37.0971V17.3617H36.6503ZM39.7141 23.4894V23.0426H38.1822V23.4894V23.9362H39.7141V23.4894ZM38.1822 17.3617V16.9149H36.6503V17.3617V17.8085H38.1822V17.3617ZM45.8418 9.70215H45.395V11.2341H45.8418H46.2886V9.70215H45.8418ZM45.8418 11.2341V10.7873H44.3099V11.2341V11.6809H45.8418V11.2341ZM44.3099 11.2341H44.7567V9.70215H44.3099H43.8631V11.2341H44.3099ZM44.3099 11.2341V10.7873H42.778V11.2341V11.6809H44.3099V11.2341ZM44.3099 11.2341H43.8631V12.766H44.3099H44.7567V11.2341H44.3099ZM44.3099 12.766V12.3192H42.778V12.766V13.2128H44.3099V12.766ZM42.778 12.766H43.2248V11.2341H42.778H42.3312V12.766H42.778ZM45.8418 11.2341H45.395V12.766H45.8418H46.2886V11.2341H45.8418ZM45.8418 12.766V12.3192H44.3099V12.766V13.2128H45.8418V12.766ZM45.8418 11.2341V11.6809H47.3737V11.2341V10.7873H45.8418V11.2341ZM47.3737 11.2341H46.9269V12.766H47.3737H47.8205V11.2341H47.3737ZM47.3737 9.70215H46.9269V11.2341H47.3737H47.8205V9.70215H47.3737ZM48.9056 9.70215H48.4588V11.2341H48.9056H49.3524V9.70215H48.9056ZM48.9056 11.2341V10.7873H47.3737V11.2341V11.6809H48.9056V11.2341ZM50.4375 11.2341V10.7873H48.9056V11.2341V11.6809H50.4375V11.2341ZM50.4375 11.2341H49.9907V12.766H50.4375H50.8843V11.2341H50.4375ZM50.4375 12.766V12.3192H48.9056V12.766V13.2128H50.4375V12.766ZM48.9056 12.766H49.3524V11.2341H48.9056H48.4588V12.766H48.9056ZM48.9056 12.766V12.3192H47.3737V12.766V13.2128H48.9056V12.766ZM48.9056 12.766H48.4588V14.2979H48.9056H49.3524V12.766H48.9056ZM50.4375 12.766H49.9907V14.2979H50.4375H50.8843V12.766H50.4375ZM50.4375 14.2979V13.8511H48.9056V14.2979V14.7447H50.4375V14.2979ZM51.9695 12.766V12.3192H50.4375V12.766V13.2128H51.9695V12.766ZM51.9695 14.2979V13.8511H50.4375V14.2979V14.7447H51.9695V14.2979ZM51.9695 15.8298V15.383H50.4375V15.8298V16.2766H51.9695V15.8298ZM50.4375 15.8298H50.8843V14.2979H50.4375H49.9907V15.8298H50.4375ZM51.9695 17.3617V16.9149H50.4375V17.3617V17.8085H51.9695V17.3617ZM50.4375 17.3617H50.8843V15.8298H50.4375H49.9907V17.3617H50.4375ZM51.9695 18.8936V18.4468H50.4375V18.8936V19.3404H51.9695V18.8936ZM50.4375 18.8936H50.8843V17.3617H50.4375H49.9907V18.8936H50.4375ZM51.9695 20.4256V19.9787H50.4375V20.4256V20.8724H51.9695V20.4256ZM50.4375 20.4256H50.8843V18.8936H50.4375H49.9907V20.4256H50.4375ZM51.9695 21.9575V21.5107H50.4375V21.9575V22.4043H51.9695V21.9575ZM50.4375 21.9575H50.8843V20.4256H50.4375H49.9907V21.9575H50.4375ZM50.4375 23.4894H50.8843V21.9575H50.4375H49.9907V23.4894H50.4375ZM48.9056 21.9575V22.4043H50.4375V21.9575V21.5107H48.9056V21.9575ZM50.4375 23.4894V23.0426H48.9056V23.4894V23.9362H50.4375V23.4894ZM48.9056 23.4894H49.3524V21.9575H48.9056H48.4588V23.4894H48.9056ZM48.9056 20.4256V20.8724H50.4375V20.4256V19.9787H48.9056V20.4256ZM48.9056 21.9575H49.3524V20.4256H48.9056H48.4588V21.9575H48.9056ZM48.9056 18.8936V19.3404H50.4375V18.8936V18.4468H48.9056V18.8936ZM48.9056 17.3617V17.8085H50.4375V17.3617V16.9149H48.9056V17.3617ZM48.9056 15.8298V16.2766H50.4375V15.8298V15.383H48.9056V15.8298ZM48.9056 21.9575V21.5107H47.3737V21.9575V22.4043H48.9056V21.9575ZM48.9056 23.4894V23.0426H47.3737V23.4894V23.9362H48.9056V23.4894ZM47.3737 23.4894H47.8205V21.9575H47.3737H46.9269V23.4894H47.3737ZM48.9056 25.0213H49.3524V23.4894H48.9056H48.4588V25.0213H48.9056ZM47.3737 25.0213H47.8205V23.4894H47.3737H46.9269V25.0213H47.3737ZM45.8418 23.4894V23.9362H47.3737V23.4894V23.0426H45.8418V23.4894ZM45.8418 25.0213H46.2886V23.4894H45.8418H45.395V25.0213H45.8418ZM45.8418 23.4894H46.2886V21.9575H45.8418H45.395V23.4894H45.8418ZM44.3099 23.4894V23.9362H45.8418V23.4894V23.0426H44.3099V23.4894ZM44.3099 25.0213H44.7567V23.4894H44.3099H43.8631V25.0213H44.3099ZM42.778 23.4894V23.9362H44.3099V23.4894V23.0426H42.778V23.4894ZM42.778 21.9575V22.4043H44.3099V21.9575V21.5107H42.778V21.9575ZM44.3099 21.9575H43.8631V23.4894H44.3099H44.7567V21.9575H44.3099ZM42.778 23.4894H43.2248V21.9575H42.778H42.3312V23.4894H42.778ZM44.3099 21.9575V22.4043H45.8418V21.9575V21.5107H44.3099V21.9575ZM44.3099 21.9575H44.7567V20.4256H44.3099H43.8631V21.9575H44.3099ZM42.778 20.4256V20.8724H44.3099V20.4256V19.9787H42.778V20.4256ZM42.778 21.9575H43.2248V20.4256H42.778H42.3312V21.9575H42.778ZM41.246 21.9575V22.4043H42.778V21.9575V21.5107H41.246V21.9575ZM41.246 20.4256V20.8724H42.778V20.4256V19.9787H41.246V20.4256ZM41.246 18.8936V19.3404H42.778V18.8936V18.4468H41.246V18.8936ZM42.778 18.8936H42.3312V20.4256H42.778H43.2248V18.8936H42.778ZM41.246 17.3617V17.8085H42.778V17.3617V16.9149H41.246V17.3617ZM42.778 17.3617H42.3312V18.8936H42.778H43.2248V17.3617H42.778ZM41.246 15.8298V16.2766H42.778V15.8298V15.383H41.246V15.8298ZM42.778 15.8298H42.3312V17.3617H42.778H43.2248V15.8298H42.778ZM41.246 14.2979V14.7447H42.778V14.2979V13.8511H41.246V14.2979ZM42.778 14.2979H42.3312V15.8298H42.778H43.2248V14.2979H42.778ZM41.246 12.766V13.2128H42.778V12.766V12.3192H41.246V12.766ZM42.778 12.766H42.3312V14.2979H42.778H43.2248V12.766H42.778ZM44.3099 12.766H43.8631V14.2979H44.3099H44.7567V12.766H44.3099ZM44.3099 14.2979V13.8511H42.778V14.2979V14.7447H44.3099V14.2979ZM44.3099 15.8298V15.383H42.778V15.8298V16.2766H44.3099V15.8298ZM44.3099 17.3617V16.9149H42.778V17.3617V17.8085H44.3099V17.3617ZM44.3099 18.8936V18.4468H42.778V18.8936V19.3404H44.3099V18.8936ZM56.5692 23.4894V23.9362H58.1011V23.4894V23.0426H56.5692V23.4894ZM56.5692 21.9575V22.4043H58.1011V21.9575V21.5107H56.5692V21.9575ZM58.1011 21.9575H57.6543V23.4894H58.1011H58.5479V21.9575H58.1011ZM56.5692 23.4894H57.016V21.9575H56.5692H56.1224V23.4894H56.5692ZM58.1011 20.4256H57.6543V21.9575H58.1011H58.5479V20.4256H58.1011ZM56.5692 21.9575H57.016V20.4256H56.5692H56.1224V21.9575H56.5692ZM55.0373 21.9575V22.4043H56.5692V21.9575V21.5107H55.0373V21.9575ZM55.0373 20.4256V20.8724H56.5692V20.4256V19.9787H55.0373V20.4256ZM55.0373 21.9575H55.4841V20.4256H55.0373H54.5905V21.9575H55.0373ZM53.5054 20.4256V20.8724H55.0373V20.4256V19.9787H53.5054V20.4256ZM55.0373 18.8936V19.3404H56.5692V18.8936V18.4468H55.0373V18.8936ZM55.0373 20.4256H55.4841V18.8936H55.0373H54.5905V20.4256H55.0373ZM59.633 20.4256H59.1862V21.9575H59.633H60.0798V20.4256H59.633ZM59.633 21.9575V21.5107H58.1011V21.9575V22.4043H59.633V21.9575ZM59.633 20.4256V20.8724H61.1649V20.4256V19.9787H59.633V20.4256ZM61.1649 20.4256H60.7181V21.9575H61.1649H61.6117V20.4256H61.1649ZM53.5054 18.8936V19.3404H55.0373V18.8936V18.4468H53.5054V18.8936ZM55.0373 17.3617V17.8085H56.5692V17.3617V16.9149H55.0373V17.3617ZM55.0373 18.8936H55.4841V17.3617H55.0373H54.5905V18.8936H55.0373ZM53.5054 17.3617V17.8085H55.0373V17.3617V16.9149H53.5054V17.3617ZM53.5054 15.8298V16.2766H55.0373V15.8298V15.383H53.5054V15.8298ZM55.0373 15.8298H54.5905V17.3617H55.0373H55.4841V15.8298H55.0373ZM55.0373 15.8298V16.2766H56.5692V15.8298V15.383H55.0373V15.8298ZM55.0373 14.2979V14.7447H56.5692V14.2979V13.8511H55.0373V14.2979ZM55.0373 15.8298H55.4841V14.2979H55.0373H54.5905V15.8298H55.0373ZM53.5054 14.2979V14.7447H55.0373V14.2979V13.8511H53.5054V14.2979ZM53.5054 12.766V13.2128H55.0373V12.766V12.3192H53.5054V12.766ZM55.0373 12.766H54.5905V14.2979H55.0373H55.4841V12.766H55.0373ZM55.0373 12.766V13.2128H56.5692V12.766V12.3192H55.0373V12.766ZM55.0373 9.70215H54.5905V11.2341H55.0373H55.4841V9.70215H55.0373ZM55.0373 11.2341V10.7873H53.5054V11.2341V11.6809H55.0373V11.2341ZM56.5692 11.2341V10.7873H55.0373V11.2341V11.6809H56.5692V11.2341ZM55.0373 12.766H55.4841V11.2341H55.0373H54.5905V12.766H55.0373ZM64.2288 23.4894V23.9362H65.7607V23.4894V23.0426H64.2288V23.4894ZM64.2288 21.9575V22.4043H65.7607V21.9575V21.5107H64.2288V21.9575ZM65.7607 21.9575H65.3139V23.4894H65.7607H66.2075V21.9575H65.7607ZM64.2288 23.4894H64.6756V21.9575H64.2288H63.782V23.4894H64.2288ZM65.7607 20.4256H65.3139V21.9575H65.7607H66.2075V20.4256H65.7607ZM64.2288 21.9575H64.6756V20.4256H64.2288H63.782V21.9575H64.2288ZM62.6968 21.9575V22.4043H64.2288V21.9575V21.5107H62.6968V21.9575ZM62.6968 21.9575H63.1437V20.4256H62.6968H62.25V21.9575H62.6968ZM61.1649 20.4256V20.8724H62.6968V20.4256V19.9787H61.1649V20.4256ZM61.1649 18.8936V19.3404H62.6968V18.8936V18.4468H61.1649V18.8936ZM61.1649 20.4256H61.6117V18.8936H61.1649H60.7181V20.4256H61.1649ZM65.7607 20.4256V20.8724H67.2926V20.4256V19.9787H65.7607V20.4256ZM67.2926 20.4256H66.8458V21.9575H67.2926H67.7394V20.4256H67.2926ZM67.2926 21.9575V21.5107H65.7607V21.9575V22.4043H67.2926V21.9575ZM65.7607 18.8936V19.3404H67.2926V18.8936V18.4468H65.7607V18.8936ZM67.2926 18.8936H66.8458V20.4256H67.2926H67.7394V18.8936H67.2926ZM67.2926 20.4256V20.8724H68.8245V20.4256V19.9787H67.2926V20.4256ZM67.2926 18.8936V19.3404H68.8245V18.8936V18.4468H67.2926V18.8936ZM59.633 18.8936V19.3404H61.1649V18.8936V18.4468H59.633V18.8936ZM67.2926 9.70215H66.8458V11.2341H67.2926H67.7394V9.70215H67.2926ZM67.2926 11.2341V10.7873H65.7607V11.2341V11.6809H67.2926V11.2341ZM68.8245 11.2341V10.7873H67.2926V11.2341V11.6809H68.8245V11.2341ZM68.8245 12.766V12.3192H67.2926V12.766V13.2128H68.8245V12.766ZM67.2926 12.766H67.7394V11.2341H67.2926H66.8458V12.766H67.2926ZM68.8245 14.2979V13.8511H67.2926V14.2979V14.7447H68.8245V14.2979ZM67.2926 14.2979H67.7394V12.766H67.2926H66.8458V14.2979H67.2926ZM68.8245 15.8298V15.383H67.2926V15.8298V16.2766H68.8245V15.8298ZM67.2926 15.8298H67.7394V14.2979H67.2926H66.8458V15.8298H67.2926ZM68.8245 17.3617V16.9149H67.2926V17.3617V17.8085H68.8245V17.3617ZM67.2926 17.3617H67.7394V15.8298H67.2926H66.8458V17.3617H67.2926ZM65.7607 15.8298V16.2766H67.2926V15.8298V15.383H65.7607V15.8298ZM67.2926 17.3617V16.9149H65.7607V17.3617V17.8085H67.2926V17.3617ZM67.2926 17.3617H66.8458V18.8936H67.2926H67.7394V17.3617H67.2926ZM65.7607 14.2979V14.7447H67.2926V14.2979V13.8511H65.7607V14.2979ZM65.7607 12.766V13.2128H67.2926V12.766V12.3192H65.7607V12.766ZM61.1649 17.3617V17.8085H62.6968V17.3617V16.9149H61.1649V17.3617ZM61.1649 18.8936H61.6117V17.3617H61.1649H60.7181V18.8936H61.1649ZM59.633 17.3617V17.8085H61.1649V17.3617V16.9149H59.633V17.3617ZM59.633 15.8298V16.2766H61.1649V15.8298V15.383H59.633V15.8298ZM61.1649 15.8298H60.7181V17.3617H61.1649H61.6117V15.8298H61.1649ZM61.1649 15.8298V16.2766H62.6968V15.8298V15.383H61.1649V15.8298ZM61.1649 14.2979V14.7447H62.6968V14.2979V13.8511H61.1649V14.2979ZM61.1649 15.8298H61.6117V14.2979H61.1649H60.7181V15.8298H61.1649ZM59.633 14.2979V14.7447H61.1649V14.2979V13.8511H59.633V14.2979ZM59.633 12.766V13.2128H61.1649V12.766V12.3192H59.633V12.766ZM61.1649 12.766H60.7181V14.2979H61.1649H61.6117V12.766H61.1649ZM61.1649 12.766V13.2128H62.6968V12.766V12.3192H61.1649V12.766ZM61.1649 9.70215H60.7181V11.2341H61.1649H61.6117V9.70215H61.1649ZM61.1649 11.2341V10.7873H59.633V11.2341V11.6809H61.1649V11.2341ZM62.6968 11.2341V10.7873H61.1649V11.2341V11.6809H62.6968V11.2341ZM61.1649 12.766H61.6117V11.2341H61.1649H60.7181V12.766H61.1649ZM15.1915 25.0213H14.2979V25.9149H15.1915V25.0213ZM18.2554 15.8298V14.9362H17.3617V15.8298H18.2554ZM18.2554 11.2341H17.3617V12.1277H18.2554V11.2341ZM15.1915 9.70215V8.80853H14.2979V9.70215H15.1915ZM18.2554 9.70215H19.149V8.80853H18.2554V9.70215ZM18.2554 25.0213V25.9149H19.149V25.0213H18.2554ZM19.7873 12.766H18.8937V13.6596H19.7873V12.766ZM19.7873 15.8298H20.6809V14.9362H19.7873V15.8298ZM21.3192 14.2979H20.4256V15.1915H21.3192V14.2979ZM21.3192 17.3617H22.2128V16.4681H21.3192V17.3617ZM19.7873 17.3617H18.8937V18.2553H19.7873V17.3617ZM22.8511 17.3617V16.4681H21.9575V17.3617H22.8511ZM22.8511 18.8936V19.7873H23.7447V18.8936H22.8511ZM21.3192 18.8936H20.4256V19.7873H21.3192V18.8936ZM24.383 15.8298V14.9362H23.4894V15.8298H24.383ZM24.383 17.3617V18.2553H25.2766V17.3617H24.383ZM22.8511 14.2979V15.1915H23.7447V14.2979H22.8511ZM25.9149 15.8298H26.8085V14.9362H25.9149V15.8298ZM24.383 12.766V13.6596H25.2766V12.766H24.383ZM25.9149 9.70215V8.80853H25.0213V9.70215H25.9149ZM25.9149 11.2341V12.1277H26.8085V11.2341H25.9149ZM25.9149 25.0213H25.0213V25.9149H25.9149V25.0213ZM28.9788 25.0213V25.9149H29.8724V25.0213H28.9788ZM28.9788 9.70215H29.8724V8.80853H28.9788V9.70215ZM19.7873 11.2341H20.6809V10.3404H19.7873V11.2341ZM21.3192 12.766H22.2128V11.8724H21.3192V12.766ZM22.8511 12.766V11.8724H21.9575V12.766H22.8511ZM24.383 11.2341V10.3404H23.4894V11.2341H24.383ZM30.5226 9.70215V8.80853H29.629V9.70215H30.5226ZM33.5865 12.766V11.8724H32.6929V12.766H33.5865ZM33.5865 15.8298H32.6929V16.7234H33.5865V15.8298ZM33.5865 18.8936V18H32.6929V18.8936H33.5865ZM33.5865 21.9575H32.6929V22.8511H33.5865V21.9575ZM30.5226 25.0213H29.629V25.9149H30.5226V25.0213ZM39.7141 9.70215H40.6077V8.80853H39.7141V9.70215ZM39.7141 12.766V13.6596H40.6077V12.766H39.7141ZM39.7141 21.9575H40.6077V21.0638H39.7141V21.9575ZM39.7141 25.0213V25.9149H40.6077V25.0213H39.7141ZM38.1822 15.8298H39.0758V14.9362H38.1822V15.8298ZM38.1822 18.8936V19.7873H39.0758V18.8936H38.1822ZM42.778 9.70215V8.80853H41.8843V9.70215H42.778ZM42.778 11.2341V12.1277H43.6716V11.2341H42.778ZM45.8418 12.766V11.8724H44.9482V12.766H45.8418ZM47.3737 12.766H48.2673V11.8724H47.3737V12.766ZM50.4375 9.70215H51.3312V8.80853H50.4375V9.70215ZM50.4375 11.2341H49.5439V12.1277H50.4375V11.2341ZM48.9056 14.2979H49.7992V13.4043H48.9056V14.2979ZM47.3737 14.2979H46.4801V15.1915H47.3737V14.2979ZM51.9695 11.2341H52.8631V10.3404H51.9695V11.2341ZM51.9695 23.4894V24.383H52.8631V23.4894H51.9695ZM50.4375 23.4894V22.5958H49.5439V23.4894H50.4375ZM48.9056 20.4256V21.3192H49.7992V20.4256H48.9056ZM47.3737 20.4256V19.5319H46.4801V20.4256H47.3737ZM47.3737 21.9575V22.8511H48.2673V21.9575H47.3737ZM50.4375 25.0213V25.9149H51.3312V25.0213H50.4375ZM45.8418 21.9575H44.9482V22.8511H45.8418V21.9575ZM42.778 23.4894H43.6716V22.5958H42.778V23.4894ZM42.778 25.0213H41.8843V25.9149H42.778V25.0213ZM44.3099 20.4256H43.4163V21.3192H44.3099V20.4256ZM45.8418 20.4256H46.7354V19.5319H45.8418V20.4256ZM41.246 23.4894H40.3524V24.383H41.246V23.4894ZM44.3099 14.2979V13.4043H43.4163V14.2979H44.3099ZM41.246 11.2341V10.3404H40.3524V11.2341H41.246ZM45.8418 14.2979V15.1915H46.7354V14.2979H45.8418ZM56.5692 23.4894H57.4628V22.5958H56.5692V23.4894ZM58.1011 23.4894V22.5958H57.2075V23.4894H58.1011ZM58.1011 25.0213V25.9149H58.9947V25.0213H58.1011ZM56.5692 25.0213H55.6756V25.9149H56.5692V25.0213ZM56.5692 20.4256H55.6756V21.3192H56.5692V20.4256ZM55.0373 21.9575H55.9309V21.0638H55.0373V21.9575ZM55.0373 23.4894H54.1437V24.383H55.0373V23.4894ZM53.5054 21.9575H52.6117V22.8511H53.5054V21.9575ZM59.633 20.4256V21.3192H60.5266V20.4256H59.633ZM59.633 21.9575V21.0638H58.7394V21.9575H59.633ZM59.633 23.4894V24.383H60.5266V23.4894H59.633ZM53.5054 9.70215V8.80853H52.6117V9.70215H53.5054ZM56.5692 9.70215H57.4628V8.80853H56.5692V9.70215ZM64.2288 23.4894H65.1224V22.5958H64.2288V23.4894ZM65.7607 23.4894V22.5958H64.8671V23.4894H65.7607ZM65.7607 25.0213V25.9149H66.6543V25.0213H65.7607ZM64.2288 25.0213H63.3351V25.9149H64.2288V25.0213ZM65.7607 20.4256V21.3192H66.6543V20.4256H65.7607ZM62.6968 21.9575H63.5905V21.0638H62.6968V21.9575ZM62.6968 23.4894H61.8032V24.383H62.6968V23.4894ZM62.6968 20.4256H61.8032V21.3192H62.6968V20.4256ZM67.2926 21.9575V21.0638H66.399V21.9575H67.2926ZM67.2926 23.4894V24.383H68.1862V23.4894H67.2926ZM68.8245 21.9575V22.8511H69.7181V21.9575H68.8245ZM65.7607 9.70215V8.80853H64.8671V9.70215H65.7607ZM68.8245 9.70215H69.7181V8.80853H68.8245V9.70215ZM59.633 9.70215V8.80853H58.7394V9.70215H59.633ZM62.6968 9.70215H63.5905V8.80853H62.6968V9.70215ZM16.7234 25.0213V24.1277H15.1915V25.0213V25.9149H16.7234V25.0213ZM15.1915 25.0213H16.0851V23.4894H15.1915H14.2979V25.0213H15.1915ZM15.1915 23.4894H16.0851V21.9575H15.1915H14.2979V23.4894H15.1915ZM15.1915 21.9575H16.0851V20.4256H15.1915H14.2979V21.9575H15.1915ZM15.1915 20.4256H16.0851V18.8936H15.1915H14.2979V20.4256H15.1915ZM15.1915 18.8936H16.0851V17.3617H15.1915H14.2979V18.8936H15.1915ZM15.1915 17.3617H16.0851V15.8298H15.1915H14.2979V17.3617H15.1915ZM18.2554 15.8298H17.3617V17.3617H18.2554H19.149V15.8298H18.2554ZM15.1915 12.766H16.0851V11.2341H15.1915H14.2979V12.766H15.1915ZM15.1915 9.70215V10.5958H16.7234V9.70215V8.80853H15.1915V9.70215ZM15.1915 11.2341H16.0851V9.70215H15.1915H14.2979V11.2341H15.1915ZM15.1915 14.2979H16.0851V12.766H15.1915H14.2979V14.2979H15.1915ZM15.1915 15.8298H16.0851V14.2979H15.1915H14.2979V15.8298H15.1915ZM16.7234 9.70215V10.5958H18.2554V9.70215V8.80853H16.7234V9.70215ZM18.2554 9.70215H17.3617V11.2341H18.2554H19.149V9.70215H18.2554ZM18.2554 17.3617H17.3617V18.8936H18.2554H19.149V17.3617H18.2554ZM18.2554 18.8936H17.3617V20.4256H18.2554H19.149V18.8936H18.2554ZM18.2554 20.4256H17.3617V21.9575H18.2554H19.149V20.4256H18.2554ZM18.2554 21.9575H17.3617V23.4894H18.2554H19.149V21.9575H18.2554ZM18.2554 23.4894H17.3617V25.0213H18.2554H19.149V23.4894H18.2554ZM18.2554 25.0213V24.1277H16.7234V25.0213V25.9149H18.2554V25.0213ZM19.7873 15.8298V14.9362H18.2554V15.8298V16.7234H19.7873V15.8298ZM21.3192 17.3617V16.4681H19.7873V17.3617V18.2553H21.3192V17.3617ZM19.7873 17.3617H20.6809V15.8298H19.7873H18.8937V17.3617H19.7873ZM22.8511 17.3617H21.9575V18.8936H22.8511H23.7447V17.3617H22.8511ZM22.8511 18.8936V18H21.3192V18.8936V19.7873H22.8511V18.8936ZM21.3192 18.8936H22.2128V17.3617H21.3192H20.4256V18.8936H21.3192ZM24.383 15.8298H23.4894V17.3617H24.383H25.2766V15.8298H24.383ZM24.383 17.3617V16.4681H22.8511V17.3617V18.2553H24.383V17.3617ZM25.9149 15.8298V14.9362H24.383V15.8298V16.7234H25.9149V15.8298ZM25.9149 9.70215V10.5958H27.4468V9.70215V8.80853H25.9149V9.70215ZM25.9149 11.2341H26.8085V9.70215H25.9149H25.0213V11.2341H25.9149ZM25.9149 17.3617H26.8085V15.8298H25.9149H25.0213V17.3617H25.9149ZM25.9149 18.8936H26.8085V17.3617H25.9149H25.0213V18.8936H25.9149ZM25.9149 20.4256H26.8085V18.8936H25.9149H25.0213V20.4256H25.9149ZM25.9149 21.9575H26.8085V20.4256H25.9149H25.0213V21.9575H25.9149ZM25.9149 23.4894H26.8085V21.9575H25.9149H25.0213V23.4894H25.9149ZM27.4468 25.0213V24.1277H25.9149V25.0213V25.9149H27.4468V25.0213ZM25.9149 25.0213H26.8085V23.4894H25.9149H25.0213V25.0213H25.9149ZM28.9788 23.4894H28.0851V25.0213H28.9788H29.8724V23.4894H28.9788ZM28.9788 25.0213V24.1277H27.4468V25.0213V25.9149H28.9788V25.0213ZM28.9788 21.9575H28.0851V23.4894H28.9788H29.8724V21.9575H28.9788ZM28.9788 20.4256H28.0851V21.9575H28.9788H29.8724V20.4256H28.9788ZM28.9788 18.8936H28.0851V20.4256H28.9788H29.8724V18.8936H28.9788ZM28.9788 17.3617H28.0851V18.8936H28.9788H29.8724V17.3617H28.9788ZM28.9788 15.8298H28.0851V17.3617H28.9788H29.8724V15.8298H28.9788ZM28.9788 14.2979H28.0851V15.8298H28.9788H29.8724V14.2979H28.9788ZM28.9788 12.766H28.0851V14.2979H28.9788H29.8724V12.766H28.9788ZM28.9788 11.2341H28.0851V12.766H28.9788H29.8724V11.2341H28.9788ZM27.4468 9.70215V10.5958H28.9788V9.70215V8.80853H27.4468V9.70215ZM28.9788 9.70215H28.0851V11.2341H28.9788H29.8724V9.70215H28.9788ZM18.2554 11.2341V12.1277H19.7873V11.2341V10.3404H18.2554V11.2341ZM19.7873 11.2341H18.8937V12.766H19.7873H20.6809V11.2341H19.7873ZM19.7873 12.766V13.6596H21.3192V12.766V11.8724H19.7873V12.766ZM21.3192 12.766H20.4256V14.2979H21.3192H22.2128V12.766H21.3192ZM21.3192 14.2979V15.1915H22.8511V14.2979V13.4043H21.3192V14.2979ZM22.8511 12.766V13.6596H24.383V12.766V11.8724H22.8511V12.766ZM22.8511 14.2979H23.7447V12.766H22.8511H21.9575V14.2979H22.8511ZM24.383 11.2341V12.1277H25.9149V11.2341V10.3404H24.383V11.2341ZM24.383 12.766H25.2766V11.2341H24.383H23.4894V12.766H24.383ZM30.5226 9.70215V10.5958H32.0546V9.70215V8.80853H30.5226V9.70215ZM30.5226 11.2341H31.4163V9.70215H30.5226H29.629V11.2341H30.5226ZM32.0546 9.70215V10.5958H33.5865V9.70215V8.80853H32.0546V9.70215ZM33.5865 12.766H32.6929V14.2979H33.5865H34.4801V12.766H33.5865ZM33.5865 14.2979H32.6929V15.8298H33.5865H34.4801V14.2979H33.5865ZM30.5226 15.8298H31.4163V14.2979H30.5226H29.629V15.8298H30.5226ZM30.5226 14.2979H31.4163V12.766H30.5226H29.629V14.2979H30.5226ZM30.5226 12.766H31.4163V11.2341H30.5226H29.629V12.766H30.5226ZM30.5226 17.3617H31.4163V15.8298H30.5226H29.629V17.3617H30.5226ZM30.5226 18.8936H31.4163V17.3617H30.5226H29.629V18.8936H30.5226ZM30.5226 20.4256H31.4163V18.8936H30.5226H29.629V20.4256H30.5226ZM33.5865 18.8936H32.6929V20.4256H33.5865H34.4801V18.8936H33.5865ZM33.5865 20.4256H32.6929V21.9575H33.5865H34.4801V20.4256H33.5865ZM30.5226 23.4894H31.4163V21.9575H30.5226H29.629V23.4894H30.5226ZM30.5226 21.9575H31.4163V20.4256H30.5226H29.629V21.9575H30.5226ZM32.0546 25.0213V24.1277H30.5226V25.0213V25.9149H32.0546V25.0213ZM30.5226 25.0213H31.4163V23.4894H30.5226H29.629V25.0213H30.5226ZM33.5865 25.0213V24.1277H32.0546V25.0213V25.9149H33.5865V25.0213ZM35.1184 25.0213V24.1277H33.5865V25.0213V25.9149H35.1184V25.0213ZM36.6503 25.0213V24.1277H35.1184V25.0213V25.9149H36.6503V25.0213ZM38.1822 25.0213V24.1277H36.6503V25.0213V25.9149H38.1822V25.0213ZM36.6503 21.9575V22.8511H38.1822V21.9575V21.0638H36.6503V21.9575ZM35.1184 21.9575V22.8511H36.6503V21.9575V21.0638H35.1184V21.9575ZM33.5865 21.9575V22.8511H35.1184V21.9575V21.0638H33.5865V21.9575ZM33.5865 9.70215V10.5958H35.1184V9.70215V8.80853H33.5865V9.70215ZM35.1184 9.70215V10.5958H36.6503V9.70215V8.80853H35.1184V9.70215ZM36.6503 9.70215V10.5958H38.1822V9.70215V8.80853H36.6503V9.70215ZM38.1822 9.70215V10.5958H39.7141V9.70215V8.80853H38.1822V9.70215ZM39.7141 9.70215H38.8205V11.2341H39.7141H40.6077V9.70215H39.7141ZM38.1822 12.766V11.8724H36.6503V12.766V13.6596H38.1822V12.766ZM36.6503 12.766V11.8724H35.1184V12.766V13.6596H36.6503V12.766ZM35.1184 12.766V11.8724H33.5865V12.766V13.6596H35.1184V12.766ZM35.1184 18.8936V18H33.5865V18.8936V19.7873H35.1184V18.8936ZM35.1184 15.8298V16.7234H36.6503V15.8298V14.9362H35.1184V15.8298ZM33.5865 15.8298V16.7234H35.1184V15.8298V14.9362H33.5865V15.8298ZM36.6503 18.8936V18H35.1184V18.8936V19.7873H36.6503V18.8936ZM39.7141 11.2341H38.8205V12.766H39.7141H40.6077V11.2341H39.7141ZM39.7141 12.766V11.8724H38.1822V12.766V13.6596H39.7141V12.766ZM38.1822 21.9575V22.8511H39.7141V21.9575V21.0638H38.1822V21.9575ZM39.7141 21.9575H38.8205V23.4894H39.7141H40.6077V21.9575H39.7141ZM39.7141 23.4894H38.8205V25.0213H39.7141H40.6077V23.4894H39.7141ZM39.7141 25.0213V24.1277H38.1822V25.0213V25.9149H39.7141V25.0213ZM36.6503 15.8298V16.7234H38.1822V15.8298V14.9362H36.6503V15.8298ZM38.1822 15.8298H37.2886V17.3617H38.1822H39.0758V15.8298H38.1822ZM38.1822 17.3617H37.2886V18.8936H38.1822H39.0758V17.3617H38.1822ZM38.1822 18.8936V18H36.6503V18.8936V19.7873H38.1822V18.8936ZM44.3099 9.70215V10.5958H45.8418V9.70215V8.80853H44.3099V9.70215ZM42.778 9.70215V10.5958H44.3099V9.70215V8.80853H42.778V9.70215ZM42.778 11.2341H43.6716V9.70215H42.778H41.8843V11.2341H42.778ZM47.3737 12.766V11.8724H45.8418V12.766V13.6596H47.3737V12.766ZM45.8418 9.70215V10.5958H47.3737V9.70215V8.80853H45.8418V9.70215ZM47.3737 9.70215V10.5958H48.9056V9.70215V8.80853H47.3737V9.70215ZM48.9056 9.70215V10.5958H50.4375V9.70215V8.80853H48.9056V9.70215ZM50.4375 9.70215H49.5439V11.2341H50.4375H51.3312V9.70215H50.4375ZM48.9056 14.2979V13.4043H47.3737V14.2979V15.1915H48.9056V14.2979ZM47.3737 14.2979H48.2673V12.766H47.3737H46.4801V14.2979H47.3737ZM50.4375 11.2341V12.1277H51.9695V11.2341V10.3404H50.4375V11.2341ZM51.9695 11.2341H51.0758V12.766H51.9695H52.8631V11.2341H51.9695ZM51.9695 12.766H51.0758V14.2979H51.9695H52.8631V12.766H51.9695ZM51.9695 14.2979H51.0758V15.8298H51.9695H52.8631V14.2979H51.9695ZM51.9695 15.8298H51.0758V17.3617H51.9695H52.8631V15.8298H51.9695ZM51.9695 17.3617H51.0758V18.8936H51.9695H52.8631V17.3617H51.9695ZM51.9695 18.8936H51.0758V20.4256H51.9695H52.8631V18.8936H51.9695ZM51.9695 20.4256H51.0758V21.9575H51.9695H52.8631V20.4256H51.9695ZM51.9695 21.9575H51.0758V23.4894H51.9695H52.8631V21.9575H51.9695ZM51.9695 23.4894V22.5958H50.4375V23.4894V24.383H51.9695V23.4894ZM48.9056 20.4256H49.7992V18.8936H48.9056H48.012V20.4256H48.9056ZM48.9056 18.8936H49.7992V17.3617H48.9056H48.012V18.8936H48.9056ZM48.9056 17.3617H49.7992V15.8298H48.9056H48.012V17.3617H48.9056ZM48.9056 15.8298H49.7992V14.2979H48.9056H48.012V15.8298H48.9056ZM47.3737 20.4256V21.3192H48.9056V20.4256V19.5319H47.3737V20.4256ZM47.3737 21.9575H48.2673V20.4256H47.3737H46.4801V21.9575H47.3737ZM50.4375 23.4894H49.5439V25.0213H50.4375H51.3312V23.4894H50.4375ZM50.4375 25.0213V24.1277H48.9056V25.0213V25.9149H50.4375V25.0213ZM48.9056 25.0213V24.1277H47.3737V25.0213V25.9149H48.9056V25.0213ZM47.3737 25.0213V24.1277H45.8418V25.0213V25.9149H47.3737V25.0213ZM45.8418 21.9575V22.8511H47.3737V21.9575V21.0638H45.8418V21.9575ZM45.8418 25.0213V24.1277H44.3099V25.0213V25.9149H45.8418V25.0213ZM44.3099 25.0213V24.1277H42.778V25.0213V25.9149H44.3099V25.0213ZM42.778 25.0213H43.6716V23.4894H42.778H41.8843V25.0213H42.778ZM44.3099 20.4256V21.3192H45.8418V20.4256V19.5319H44.3099V20.4256ZM45.8418 20.4256H44.9482V21.9575H45.8418H46.7354V20.4256H45.8418ZM42.778 23.4894V22.5958H41.246V23.4894V24.383H42.778V23.4894ZM41.246 23.4894H42.1397V21.9575H41.246H40.3524V23.4894H41.246ZM41.246 21.9575H42.1397V20.4256H41.246H40.3524V21.9575H41.246ZM41.246 20.4256H42.1397V18.8936H41.246H40.3524V20.4256H41.246ZM41.246 18.8936H42.1397V17.3617H41.246H40.3524V18.8936H41.246ZM41.246 17.3617H42.1397V15.8298H41.246H40.3524V17.3617H41.246ZM41.246 15.8298H42.1397V14.2979H41.246H40.3524V15.8298H41.246ZM41.246 14.2979H42.1397V12.766H41.246H40.3524V14.2979H41.246ZM41.246 11.2341V12.1277H42.778V11.2341V10.3404H41.246V11.2341ZM41.246 12.766H42.1397V11.2341H41.246H40.3524V12.766H41.246ZM45.8418 12.766H44.9482V14.2979H45.8418H46.7354V12.766H45.8418ZM45.8418 14.2979V13.4043H44.3099V14.2979V15.1915H45.8418V14.2979ZM44.3099 14.2979H43.4163V15.8298H44.3099H45.2035V14.2979H44.3099ZM44.3099 15.8298H43.4163V17.3617H44.3099H45.2035V15.8298H44.3099ZM44.3099 17.3617H43.4163V18.8936H44.3099H45.2035V17.3617H44.3099ZM44.3099 18.8936H43.4163V20.4256H44.3099H45.2035V18.8936H44.3099ZM58.1011 23.4894H57.2075V25.0213H58.1011H58.9947V23.4894H58.1011ZM58.1011 25.0213V24.1277H56.5692V25.0213V25.9149H58.1011V25.0213ZM56.5692 25.0213H57.4628V23.4894H56.5692H55.6756V25.0213H56.5692ZM56.5692 20.4256V21.3192H58.1011V20.4256V19.5319H56.5692V20.4256ZM56.5692 23.4894V22.5958H55.0373V23.4894V24.383H56.5692V23.4894ZM55.0373 23.4894H55.9309V21.9575H55.0373H54.1437V23.4894H55.0373ZM55.0373 21.9575V21.0638H53.5054V21.9575V22.8511H55.0373V21.9575ZM53.5054 21.9575H54.399V20.4256H53.5054H52.6117V21.9575H53.5054ZM56.5692 18.8936H55.6756V20.4256H56.5692H57.4628V18.8936H56.5692ZM58.1011 20.4256V21.3192H59.633V20.4256V19.5319H58.1011V20.4256ZM59.633 21.9575H58.7394V23.4894H59.633H60.5266V21.9575H59.633ZM59.633 23.4894V22.5958H58.1011V23.4894V24.383H59.633V23.4894ZM61.1649 21.9575V21.0638H59.633V21.9575V22.8511H61.1649V21.9575ZM53.5054 20.4256H54.399V18.8936H53.5054H52.6117V20.4256H53.5054ZM56.5692 17.3617H55.6756V18.8936H56.5692H57.4628V17.3617H56.5692ZM53.5054 18.8936H54.399V17.3617H53.5054H52.6117V18.8936H53.5054ZM53.5054 17.3617H54.399V15.8298H53.5054H52.6117V17.3617H53.5054ZM56.5692 15.8298H55.6756V17.3617H56.5692H57.4628V15.8298H56.5692ZM56.5692 14.2979H55.6756V15.8298H56.5692H57.4628V14.2979H56.5692ZM53.5054 15.8298H54.399V14.2979H53.5054H52.6117V15.8298H53.5054ZM53.5054 14.2979H54.399V12.766H53.5054H52.6117V14.2979H53.5054ZM56.5692 12.766H55.6756V14.2979H56.5692H57.4628V12.766H56.5692ZM53.5054 9.70215V10.5958H55.0373V9.70215V8.80853H53.5054V9.70215ZM53.5054 11.2341H54.399V9.70215H53.5054H52.6117V11.2341H53.5054ZM55.0373 9.70215V10.5958H56.5692V9.70215V8.80853H55.0373V9.70215ZM56.5692 9.70215H55.6756V11.2341H56.5692H57.4628V9.70215H56.5692ZM56.5692 11.2341H55.6756V12.766H56.5692H57.4628V11.2341H56.5692ZM53.5054 12.766H54.399V11.2341H53.5054H52.6117V12.766H53.5054ZM65.7607 23.4894H64.8671V25.0213H65.7607H66.6543V23.4894H65.7607ZM65.7607 25.0213V24.1277H64.2288V25.0213V25.9149H65.7607V25.0213ZM64.2288 25.0213H65.1224V23.4894H64.2288H63.3351V25.0213H64.2288ZM64.2288 20.4256V21.3192H65.7607V20.4256V19.5319H64.2288V20.4256ZM64.2288 23.4894V22.5958H62.6968V23.4894V24.383H64.2288V23.4894ZM62.6968 23.4894H63.5905V21.9575H62.6968H61.8032V23.4894H62.6968ZM62.6968 20.4256V21.3192H64.2288V20.4256V19.5319H62.6968V20.4256ZM62.6968 21.9575V21.0638H61.1649V21.9575V22.8511H62.6968V21.9575ZM62.6968 18.8936H61.8032V20.4256H62.6968H63.5905V18.8936H62.6968ZM67.2926 21.9575H66.399V23.4894H67.2926H68.1862V21.9575H67.2926ZM67.2926 23.4894V22.5958H65.7607V23.4894V24.383H67.2926V23.4894ZM65.7607 20.4256H66.6543V18.8936H65.7607H64.8671V20.4256H65.7607ZM68.8245 20.4256H67.9309V21.9575H68.8245H69.7181V20.4256H68.8245ZM68.8245 21.9575V21.0638H67.2926V21.9575V22.8511H68.8245V21.9575ZM68.8245 18.8936H67.9309V20.4256H68.8245H69.7181V18.8936H68.8245ZM59.633 20.4256H60.5266V18.8936H59.633H58.7394V20.4256H59.633ZM65.7607 9.70215V10.5958H67.2926V9.70215V8.80853H65.7607V9.70215ZM65.7607 11.2341H66.6543V9.70215H65.7607H64.8671V11.2341H65.7607ZM67.2926 9.70215V10.5958H68.8245V9.70215V8.80853H67.2926V9.70215ZM68.8245 9.70215H67.9309V11.2341H68.8245H69.7181V9.70215H68.8245ZM68.8245 11.2341H67.9309V12.766H68.8245H69.7181V11.2341H68.8245ZM68.8245 12.766H67.9309V14.2979H68.8245H69.7181V12.766H68.8245ZM68.8245 14.2979H67.9309V15.8298H68.8245H69.7181V14.2979H68.8245ZM68.8245 15.8298H67.9309V17.3617H68.8245H69.7181V15.8298H68.8245ZM65.7607 17.3617H66.6543V15.8298H65.7607H64.8671V17.3617H65.7607ZM65.7607 18.8936H66.6543V17.3617H65.7607H64.8671V18.8936H65.7607ZM65.7607 15.8298H66.6543V14.2979H65.7607H64.8671V15.8298H65.7607ZM65.7607 14.2979H66.6543V12.766H65.7607H64.8671V14.2979H65.7607ZM65.7607 12.766H66.6543V11.2341H65.7607H64.8671V12.766H65.7607ZM68.8245 17.3617H67.9309V18.8936H68.8245H69.7181V17.3617H68.8245ZM62.6968 17.3617H61.8032V18.8936H62.6968H63.5905V17.3617H62.6968ZM59.633 18.8936H60.5266V17.3617H59.633H58.7394V18.8936H59.633ZM59.633 17.3617H60.5266V15.8298H59.633H58.7394V17.3617H59.633ZM62.6968 15.8298H61.8032V17.3617H62.6968H63.5905V15.8298H62.6968ZM62.6968 14.2979H61.8032V15.8298H62.6968H63.5905V14.2979H62.6968ZM59.633 15.8298H60.5266V14.2979H59.633H58.7394V15.8298H59.633ZM59.633 14.2979H60.5266V12.766H59.633H58.7394V14.2979H59.633ZM62.6968 12.766H61.8032V14.2979H62.6968H63.5905V12.766H62.6968ZM59.633 9.70215V10.5958H61.1649V9.70215V8.80853H59.633V9.70215ZM59.633 11.2341H60.5266V9.70215H59.633H58.7394V11.2341H59.633ZM61.1649 9.70215V10.5958H62.6968V9.70215V8.80853H61.1649V9.70215ZM62.6968 9.70215H61.8032V11.2341H62.6968H63.5905V9.70215H62.6968ZM62.6968 11.2341H61.8032V12.766H62.6968H63.5905V11.2341H62.6968ZM59.633 12.766H60.5266V11.2341H59.633H58.7394V12.766H59.633Z" fill="black" mask="url(#path-97-outside-1_1484_12000)"/>
</svg>
