<svg width="84" height="84" viewBox="0 0 84 84" fill="none" xmlns="http://www.w3.org/2000/svg">
<path d="M4.5 76.5L2 82H42L48 72L54 63.5L61 63L68 60L73.5 57L78.5 51.5L80.5 44.5L82 35.5L81.5 29L79.5 21.5L75.5 14.5L71 10.5L61 5L53 2.5H44.5L34 6L28.5 10L26 13.5L21 28.5V41L24 51L27 54L24.5 56.5L14 65L9.5 70.5L4.5 76.5Z" fill="white"/>
<path d="M1.59992 81.1392C1.74229 80.4734 1.98391 79.761 2.13687 79.5562C2.28983 79.3513 2.51657 78.7567 2.64073 78.2348C2.76489 77.7129 3.95709 76.2045 5.2901 74.8825C6.6231 73.5606 7.71796 72.3442 7.72306 72.1793C7.73907 71.6615 10.7196 67.4554 11.9535 66.2092C12.6024 65.554 14.0551 64.2967 15.1819 63.4152C19.034 60.4017 25.5674 54.6008 25.5893 54.1744C25.6014 53.9402 25.3598 53.6522 25.0525 53.5342C24.7452 53.4163 24.4938 53.1544 24.4938 52.9522C24.4938 52.75 24.0859 51.9836 23.5874 51.249C22.3512 49.4272 21.6574 47.1736 20.7777 42.1221C19.6292 35.5265 19.7477 30.362 21.169 25.0716C22.2858 20.9148 24.169 15.5628 25.6079 12.4558C26.8897 9.68811 34.9574 3.76672 37.4563 3.75959C38.1323 3.75765 39.1504 3.51559 39.7188 3.22165C41.761 2.16554 47.1669 1.41642 50.8896 1.6737C56.231 2.0428 59.9463 3.41633 69.012 8.3737C70.2267 9.038 74.5209 12.4252 75.4327 13.4384C78.1052 16.4081 80.6728 21.8758 82.0224 27.4713C83.1147 31.9999 82.1383 43.3289 80.1338 49.3844C79.6099 50.9668 76.9571 55.1404 76.2852 55.439C76.1676 55.4912 75.2153 56.3293 74.1688 57.3014C72.7237 58.6436 71.1492 59.5436 67.6221 61.0429C61.6101 63.5984 59.8876 64.0971 57.0727 64.0971C55.484 64.0971 54.6129 64.27 54.2997 64.6474C53.8155 65.2308 54.4238 65.8877 57.6833 68.3015L59.0856 69.3399L59.2034 68.1152C59.3676 66.4074 60.3216 66.5142 60.7409 68.2874C60.9397 69.128 61.292 69.6842 61.6257 69.6842C62.0662 69.6842 62.1284 69.378 61.9284 68.1944C61.7299 67.0194 61.7921 66.7045 62.2226 66.7045C63.0814 66.7045 63.7653 67.7921 63.6725 69.0103C63.5584 70.5076 64.3999 70.2123 64.8152 68.6093C65.1647 67.2605 65.9562 67.2199 66.1497 68.5408C66.342 69.8543 65.9051 71.1023 65.1874 71.29C64.6974 71.4181 64.7436 71.471 65.3739 71.5035C65.8348 71.5273 66.2119 71.3791 66.2119 71.1742C66.2119 70.9694 66.4634 70.8018 66.7707 70.8018C67.439 70.8018 67.5115 71.9606 66.8824 72.5897C66.1836 73.2885 64.1771 73.115 63.0926 72.2618C62.5508 71.8357 61.9469 71.5424 61.7506 71.61C61.3132 71.7607 61.6005 72.1701 63.0912 73.5204L64.242 74.5628L65.9652 73.6466C68.6271 72.2313 72.6185 69.4886 73.7624 68.2888C74.7934 67.2074 74.7937 67.2058 74.0417 66.5253C73.6278 66.1507 73.2891 65.6134 73.2891 65.3315C73.2891 64.4841 74.3957 64.3191 75.0108 65.0748C75.3234 65.459 75.4752 65.5673 75.3481 65.3155C75.221 65.0637 75.2974 64.5206 75.5178 64.1087C75.8588 63.4716 76.0282 63.4282 76.6525 63.8181C77.0562 64.0702 77.4062 64.697 77.4305 65.2111C77.4705 66.0608 77.4963 66.0442 77.7135 65.0284C78.0703 63.3597 79.0626 63.5653 79.0626 65.308C79.0626 66.0764 79.0925 66.705 79.1291 66.7048C79.1657 66.7047 79.4577 66.4425 79.778 66.1221C80.4137 65.4865 81.1112 65.6977 81.1112 66.5258C81.1112 66.813 80.734 67.4042 80.2731 67.8396C79.582 68.4923 79.1447 68.5923 77.7795 68.41C76.3061 68.2133 75.9988 68.3084 74.9859 69.2747C72.6679 71.486 65.4283 76.0165 64.2125 76.0165C63.8932 76.0165 62.5272 74.9831 61.177 73.72L58.7219 71.4234L56.3137 72.2736C54.9892 72.7411 52.7775 73.1977 51.3987 73.2882C47.0297 73.5749 47.54 73.0539 43.3465 81.5076C43.1018 82.0007 42.5889 82.344 42.094 82.3457C40.9978 82.3495 41.0321 82.1008 42.4301 79.9073C44.0088 77.4303 45.4048 74.23 45.0122 73.9873C44.7179 73.8054 44.1776 73.9314 41.0462 74.9121C39.9375 75.2593 39.7789 75.1445 35.459 70.8668C33.0137 68.4454 30.091 65.4076 28.9643 64.1162C27.8376 62.8249 26.4516 61.3178 25.8842 60.7671C25.3168 60.2165 24.9676 59.651 25.1082 59.5104C25.7723 58.8462 26.7789 59.445 28.5922 61.5829C29.6782 62.8632 32.7614 66.0567 35.4437 68.6795C39.2603 72.4111 40.4833 73.4023 41.0678 73.2373C41.4786 73.1213 42.569 72.9341 43.4909 72.8212C46.7082 72.4272 46.7978 72.3703 48.5815 69.5819C49.5284 68.1017 50.7817 66.3077 51.3667 65.5952C51.9517 64.8827 52.4303 64.1704 52.4303 64.0121C52.4303 63.854 51.5504 63.7239 50.4748 63.7231C43.9212 63.7184 36.4226 61.2435 29.9257 56.9412C28.4468 55.9618 27.4656 55.549 26.9459 55.6874C26.5197 55.8009 25.2492 56.7497 24.1225 57.7957C22.9957 58.8418 21.3196 60.3093 20.3977 61.0569C13.4637 66.6798 12.3779 67.7352 10.3467 70.8258C9.1934 72.5806 7.48009 74.7752 6.53916 75.7027C4.81328 77.4042 3.57603 79.4402 3.12328 81.3241C2.95352 82.0304 2.63887 82.3484 2.10965 82.3484C1.43903 82.3484 1.37486 82.1956 1.60104 81.1378L1.59992 81.1392ZM55.4601 70.9352L57.5593 70.3149L55.2766 68.3241C54.0211 67.2291 52.8732 66.3332 52.7256 66.3332C52.3894 66.3332 49.4498 70.6323 49.4498 71.124C49.4498 71.323 49.2403 71.5851 48.9842 71.7064C47.9948 72.1752 53.471 71.523 55.4601 70.9352ZM63.7902 61.2233C66.247 60.218 66.3907 60.094 66.2791 59.0757C66.2139 58.4813 65.9924 57.6807 65.7868 57.2965C65.4407 56.6498 65.347 56.6414 64.5216 57.1822C63.3134 57.9738 62.4276 57.9233 58.1838 56.8207C55.7774 56.1954 54.4192 56.0002 54.1749 56.2445C53.9428 56.4766 53.5657 56.4856 53.1606 56.2688C52.6685 56.0055 52.5276 56.0663 52.5658 56.5255C52.5934 56.8565 52.4064 57.2013 52.1503 57.2916C51.4782 57.5287 51.569 56.0728 52.27 55.3717C53.1084 54.5334 55.0902 54.4836 56.1544 55.2741C56.4617 55.5024 56.2103 55.137 55.5957 54.462L54.4783 53.235L55.5026 53.698C56.0659 53.9527 56.5269 54.2749 56.5269 54.414C56.5269 55.0283 61.2572 56.6384 63.0806 56.6448C64.6873 56.6504 65.6485 55.4865 65.5989 53.5954C65.5404 51.3606 63.7902 50.5623 63.7902 52.7704C63.7902 53.6554 63.6187 53.8717 62.859 53.9446L61.9278 54.034L62.7898 53.6684C63.2639 53.4673 63.5474 53.1337 63.4197 52.9271C63.0902 52.394 62.1163 52.4605 62.1022 53.0171C62.0953 53.2888 61.8725 53.1951 61.5671 52.7919C61.2793 52.412 60.8252 52.1741 60.5579 52.2631C60.2907 52.3522 59.8383 52.1913 59.5526 51.9056C59.2144 51.5674 58.9061 51.5132 58.6691 51.7501C58.1453 52.274 58.6691 52.923 59.6218 52.9296C60.0706 52.9326 60.6893 53.1138 60.9966 53.3318C61.4166 53.6299 61.1772 53.6854 60.032 53.5558C59.112 53.4516 57.6695 52.8262 56.3903 51.9768L54.2719 50.5702L53.5225 51.3746C53.1103 51.817 52.7141 52.179 52.642 52.179C52.5699 52.179 52.9686 51.0476 53.528 49.6648C54.7948 46.5332 55.1795 44.7295 54.5807 44.7295C54.2506 44.7295 54.2529 44.6196 54.59 44.2825C55.1542 43.7183 55.174 42.4946 54.6189 42.4946C53.6421 42.4946 55.1328 41.4656 57.0574 40.8114C58.7253 40.2444 59.2656 40.2 60.0647 40.5641C60.6004 40.8081 60.9355 41.1747 60.8095 41.3787C60.6801 41.588 60.9955 41.7496 61.5334 41.7496C62.6555 41.7496 62.8106 40.8626 61.8702 39.8234C61.4813 39.3937 61.4173 39.1423 61.697 39.1423C62.0106 39.1423 62.0339 38.9435 61.7767 38.4628C61.396 37.7515 59.1202 36.9053 57.6011 36.9103C56.5743 36.9136 55.5169 38.6537 56.1543 39.2911C56.685 39.8218 56.6149 40.2597 55.9992 40.2597C55.709 40.2597 55.387 40.4692 55.2837 40.7253C54.8118 41.8946 55.0999 39.0576 55.5957 37.6523C55.903 36.7814 56.1597 35.5451 56.1663 34.9051C56.1728 34.265 56.4107 33.4344 56.6951 33.0592C57.0892 32.5392 57.1204 32.1142 56.8264 31.271C56.6143 30.6626 56.5439 30.0616 56.6701 29.9355C56.7962 29.8094 56.8994 29.9017 56.8994 30.1407C56.8994 30.3797 57.2346 30.5753 57.6443 30.5753C58.0541 30.5753 58.3893 30.701 58.3893 30.8546C58.3892 31.0083 58.9314 31.118 59.5941 31.0984C60.4643 31.0727 60.9102 31.2797 61.199 31.8433C61.419 32.2727 61.8759 32.6017 62.2144 32.5746C62.5529 32.5475 62.7945 32.7151 62.7513 32.9471C62.7081 33.1791 62.9534 33.3225 63.2964 33.2659C63.6543 33.2068 64.0221 33.4846 64.1596 33.9177C64.2913 34.3329 64.589 34.6725 64.821 34.6725C65.1213 34.6725 65.114 34.5437 64.7959 34.2256C64.0352 33.4648 64.3046 33.027 65.0939 33.7413C66.1393 34.6874 66.0359 34.9155 64.4443 35.1738C63.2571 35.3665 62.9142 35.2538 62.137 34.4157C61.5917 33.8276 61.1656 33.6071 61.0786 33.868C60.9986 34.1082 60.7449 34.1884 60.515 34.0463C59.8744 33.6504 58.3494 33.5616 58.5793 33.9336C58.6912 34.1146 58.4326 34.4501 58.0047 34.6791C56.8293 35.3081 57.3355 35.9734 59.0087 35.9988C60.7146 36.0247 62.8591 37.3413 62.8591 38.363C62.8591 39.2006 64.3478 39.8873 66.1639 39.8873C67.9295 39.8873 69.135 38.7066 69.4369 36.6815C69.6418 35.3063 69.6224 35.2698 69.0615 35.9762C68.4888 36.6974 68.4695 36.6833 68.4581 35.5326C68.4515 34.8789 68.2759 34.2387 68.0677 34.1101C67.8595 33.9814 67.7784 33.7316 67.8875 33.5551C67.9966 33.3786 67.9156 33.1288 67.7074 33.0001C67.4992 32.8715 67.3288 32.9716 67.3288 33.2227C67.3288 34.2048 66.8804 33.1634 66.764 31.911C66.6962 31.1812 66.2876 29.6406 65.8561 28.4873C65.4246 27.334 65.1691 26.033 65.2883 25.5962C65.4893 24.8594 65.4669 24.8491 64.979 25.4538C64.2668 26.3365 64.1309 26.2783 64.1481 25.0982C64.1611 24.2076 63.9792 24.0539 62.5797 23.7727C61.7091 23.5977 60.9967 23.2855 60.9967 23.0788C60.9967 22.8542 61.3335 22.8164 61.8348 22.9848C62.7684 23.2985 65.4664 23.4285 65.4664 23.1598C65.4664 22.7769 63.816 21.2635 63.3985 21.2635C63.152 21.2635 62.7445 21.0156 62.4931 20.7126C62.1536 20.3035 61.8541 20.259 61.3301 20.5394C60.5949 20.9329 60.2874 20.3982 60.9967 19.9598C61.6962 19.5275 61.37 18.62 60.0194 17.2409C59.2771 16.4828 58.2452 15.1959 57.7264 14.381C56.6347 12.6664 56.0228 12.0016 54.7591 11.1575C54.2585 10.8231 54.012 10.4487 54.2113 10.3255C54.6007 10.0849 58.0169 12.9081 58.0169 13.4704C58.0169 13.8059 58.6977 14.6583 60.7725 16.9206C61.3661 17.5679 61.717 17.8616 61.5523 17.5733C61.3295 17.1833 61.4347 17.0942 61.9628 17.2255C62.4689 17.3512 63.1009 16.8951 64.1628 15.6377C65.8775 13.6072 67.9222 12.3961 68.5595 13.0332C68.8556 13.3293 68.8299 13.4415 68.4661 13.4415C67.8827 13.4415 64.7947 15.8661 63.9766 16.9665C62.9871 18.2975 62.8563 19.7708 63.6568 20.5712C64.0525 20.9669 64.4958 21.2239 64.642 21.1422C64.7882 21.0606 65.8716 20.6963 67.0495 20.3327C68.2861 19.951 69.1912 19.457 69.1912 19.1639C69.1912 18.8847 69.3768 18.6562 69.6036 18.6562C69.8303 18.6562 69.9302 18.8657 69.8255 19.1218C69.1055 20.883 69.1059 20.891 69.9083 20.891C71.6952 20.891 74.7784 22.8222 74.7784 23.9415C74.7784 24.1853 74.2763 23.8712 73.6626 23.2435C72.5055 22.06 71.2223 21.636 68.7976 21.636C67.0017 21.636 65.8258 23.078 65.8652 25.2321C65.8959 26.9158 66.3495 28.2763 66.6942 27.7187C66.8255 27.5062 66.7335 26.804 66.4897 26.1582C66.0851 25.0863 66.1327 24.8977 67.036 23.9945C67.7937 23.2367 68.4932 22.9662 70.0223 22.8394C71.778 22.6938 72.1634 22.7951 73.2126 23.6779C74.3657 24.6483 74.7991 25.7333 74.0335 25.7333C73.8286 25.7333 73.661 25.5078 73.661 25.2323C73.661 23.9605 70.4424 22.6316 69.2732 23.4207C68.8885 23.6803 68.8977 23.9379 69.3206 24.7531C69.7259 25.5342 69.8949 25.6333 70.0651 25.1897C70.3277 24.5054 72.1986 24.4199 72.8416 25.0629C73.6041 25.8254 73.3616 27.0704 72.3618 27.5259C71.0843 28.108 70.403 27.7508 69.5311 26.0417C69.1209 25.2375 68.5244 24.4795 68.2057 24.3573C67.5885 24.1204 66.9679 24.8105 66.9679 25.7334C66.9679 26.1689 67.0355 26.1855 67.2744 25.8089C67.521 25.42 67.6695 25.4324 68.0343 25.8719C68.3998 26.3123 68.3573 26.4941 67.8152 26.8094C67.4453 27.0246 67.3206 27.2057 67.5381 27.212C67.7555 27.2182 68.3089 27.5731 68.7678 28.0007C69.2593 28.4586 69.85 28.683 70.2051 28.5468C70.5366 28.4196 70.9389 28.5275 71.0991 28.7867C71.4676 29.3829 73.2533 28.1412 73.9349 26.8149L74.395 25.9196L74.4004 26.8738C74.4074 28.0926 72.6283 29.4581 71.0331 29.4581C70.3906 29.4581 69.3793 29.1123 68.7857 28.6896C67.7774 27.9716 66.9563 27.9756 66.9563 28.6984C66.9563 29.2389 69.5353 30.5622 71.0658 30.8069C71.8711 30.9357 72.4427 31.1822 72.3361 31.3548C72.0603 31.8011 69.9652 31.3533 68.5395 30.5434C67.8737 30.1652 67.3289 29.9134 67.3289 29.9839C67.3289 30.4363 68.6486 33.1361 69.2326 33.8787C70.1758 35.0776 70.1842 37.977 69.2481 39.1853C68.8696 39.6739 68.4474 40.5345 68.3098 41.098C68.1706 41.6681 67.8033 42.1223 67.4815 42.1223C66.9675 42.1223 66.9653 42.1843 67.462 42.681C67.7693 42.9883 68.2841 43.2397 68.6061 43.2397C68.928 43.2397 69.2038 43.3654 69.2191 43.5191C69.2343 43.6727 69.3186 44.1858 69.4064 44.6592C69.5113 45.2242 69.424 45.4321 69.1526 45.2644C68.8703 45.0899 68.8235 45.2749 69.0051 45.8471C69.1864 46.4181 69.1397 46.6041 68.8588 46.4304C68.5782 46.257 68.4381 46.8072 68.4202 48.153C68.4059 49.2407 68.248 50.4658 68.0695 50.8755C67.7529 51.6021 67.7388 51.6001 67.497 50.7958C67.2851 50.0909 67.1737 50.0464 66.7303 50.4898C65.9329 51.2872 66.0716 52.5517 66.9565 52.5517C67.3663 52.5517 67.7015 52.7036 67.7015 52.8893C67.7015 53.075 67.3663 53.1393 66.9565 53.0321C66.3035 52.8614 66.2116 53.0207 66.2116 54.3234C66.2116 55.6696 67.4603 59.2564 67.929 59.2564C68.9314 59.2564 72.464 56.9998 74.4499 55.0909C78.1533 51.531 78.749 50.0977 80.382 40.8191C82.1575 30.7293 80.4552 22.6367 75.0594 15.515C71.9533 11.4158 65.2378 7.22311 57.4588 4.5262C52.3439 2.75301 45.5821 2.68747 41.1338 4.36805C40.279 4.69107 38.4529 5.26367 37.0758 5.6405C34.6423 6.30643 32.386 7.69632 29.3364 10.4082C28.6194 11.0458 27.9277 11.5702 27.7992 11.5734C27.2129 11.5884 24.0216 20.1259 22.592 25.5045C21.0191 31.4221 21.1626 37.5737 23.0705 46.0174C23.8912 49.6488 26.5153 53.6701 28.0644 53.6701C28.3339 53.6701 28.6884 53.8889 28.8522 54.1563C29.8576 55.797 36.9968 59.6417 41.0696 60.7354C41.9131 60.9619 43.112 60.7196 43.0252 60.3401C42.9739 60.1161 43.2673 59.739 43.677 59.502C44.0867 59.265 44.5058 58.9872 44.6082 58.8848C44.7106 58.7824 45.1297 58.5157 45.5394 58.2921C45.9491 58.0686 46.7872 57.1988 47.4018 56.3593C48.8054 54.4422 49.2621 54.3697 48.5056 56.1843C48.1853 56.9526 46.9852 58.4415 45.8385 59.493L43.7536 61.4048L46.3226 61.8306C49.8298 62.4118 52.2709 62.5425 57.0861 62.4068C60.5777 62.3084 61.5688 62.1336 63.7906 61.2243L63.7902 61.2233ZM51.3124 61.0966C51.3124 60.8796 51.48 60.8057 51.6849 60.9323C51.8898 61.0589 52.0574 61.2365 52.0574 61.3268C52.0574 61.4171 51.8898 61.491 51.6849 61.491C51.48 61.491 51.3124 61.3135 51.3124 61.0966ZM49.8225 59.8269C49.8225 58.546 51.0547 55.2134 51.9185 54.1577C52.3899 53.5816 52.7816 53.3079 52.789 53.5493C52.7963 53.7908 52.5909 54.2098 52.3324 54.4805C51.5138 55.3379 50.8358 57.1729 51.2826 57.3217C51.8774 57.52 51.7848 57.8587 50.7537 59.2562C50.0515 60.208 49.8225 60.3483 49.8225 59.8269ZM68.4464 51.2479C68.4464 50.9407 68.614 50.6892 68.8188 50.6892C69.0237 50.6892 69.1913 50.9407 69.1913 51.2479C69.1913 51.5552 69.0237 51.8067 68.8188 51.8067C68.614 51.8067 68.4464 51.5552 68.4464 51.2479ZM39.3946 48.6741C39.3946 48.3336 39.6554 48.2184 40.1396 48.345C40.5493 48.4522 40.8845 48.6879 40.8845 48.8689C40.8845 49.0498 40.5493 49.1979 40.1396 49.1979C39.7298 49.1979 39.3946 48.9622 39.3946 48.6741ZM45.2139 42.2924C44.8685 41.3922 44.9433 41.1136 45.3599 41.7483C45.686 42.245 45.7703 42.245 46.1192 41.7483C46.4473 41.2813 46.4932 41.3067 46.3986 41.9037C46.2521 42.8283 45.5127 43.0709 45.2139 42.2924ZM33.5284 41.4808C33.2724 41.389 33.0629 41.0763 33.0629 40.7861C33.0629 40.1154 33.3476 40.1175 34.0235 40.7934C34.5918 41.3617 34.3053 41.7595 33.5284 41.4808ZM39.6121 39.9359C39.4517 39.6763 39.421 39.3633 39.5439 39.2403C39.8773 38.907 40.2408 39.3973 40.0607 39.9374C39.9345 40.3159 39.8468 40.3156 39.6121 39.9359ZM66.2847 35.6031C66.2923 34.9885 66.3758 34.7822 66.4702 35.1446C66.5647 35.507 66.5585 36.0098 66.4564 36.262C66.3544 36.5142 66.2771 36.2177 66.2847 35.6031ZM67.3295 35.2306C67.3295 34.9233 67.4971 34.6719 67.702 34.6719C67.9069 34.6719 68.0745 34.9233 68.0745 35.2306C68.0745 35.5379 67.9069 35.7894 67.702 35.7894C67.4971 35.7894 67.3295 35.5379 67.3295 35.2306ZM61.572 32.0904C61.4542 31.8997 61.5281 31.6383 61.7363 31.5097C61.9445 31.381 62.1148 31.537 62.1148 31.8564C62.1148 32.5107 61.8913 32.607 61.572 32.0904ZM48.2499 30.544L47.4015 29.8185L48.4307 30.052C49.0028 30.1818 49.6841 30.0993 49.9649 29.8663C50.2427 29.6358 50.8691 29.5111 51.3569 29.5892C51.8677 29.6711 53.0869 29.2659 54.232 28.6338C56.712 27.2646 57.1303 27.5226 54.9789 29.0945C52.1751 31.143 49.5991 31.6979 48.2499 30.544ZM43.9977 29.6436C43.6763 28.8062 44.1255 27.9636 44.8756 27.9968C45.2658 28.0141 45.3474 28.1036 45.0735 28.2141C44.2586 28.5429 44.5187 29.5359 45.3506 29.2718C45.9206 29.0909 46.0412 29.1716 45.8694 29.6192C45.5844 30.362 44.28 30.379 43.9977 29.6436ZM45.1319 26.8116C44.778 26.4205 44.5991 25.9898 44.7344 25.8545C44.8697 25.7191 44.983 25.8459 44.9861 26.1361C44.991 26.5843 45.043 26.5829 45.3319 26.1262C45.6093 25.6879 45.852 25.6707 46.6474 26.0331C47.1839 26.2775 48.7077 26.4775 50.0337 26.4775C52.6347 26.4775 54.7272 25.5294 55.9364 23.8028C56.8466 22.5034 56.6571 21.5719 55.0024 19.2097C54.1638 18.0125 53.2063 16.6188 52.8746 16.1126C52.295 15.228 52.3 15.2083 53.0026 15.6059C53.4046 15.8334 54.3068 16.5339 55.0075 17.1626C55.7081 17.7912 57.0955 18.7486 58.0907 19.2902C59.9304 20.2916 59.9375 20.8723 58.1102 20.8847C57.6493 20.8878 57.2721 21.058 57.2721 21.2629C57.2721 21.4678 58.1201 21.6354 59.1565 21.6354C60.3504 21.6354 60.9542 21.7755 60.8045 22.0177C60.6745 22.228 60.3713 22.3758 60.1306 22.3461C59.89 22.3164 59.1903 22.317 58.5757 22.3475C57.546 22.3986 57.5167 22.436 58.2032 22.8242C58.6129 23.0559 59.0717 23.4511 59.2227 23.7025C59.3738 23.9539 59.9604 24.2751 60.5264 24.4164C61.0924 24.5576 61.8777 24.9535 62.2713 25.296C62.6651 25.6386 62.8718 25.7209 62.7308 25.479C62.5899 25.2371 62.6399 24.9369 62.8422 24.8119C63.3788 24.4803 63.7369 26.3063 63.2914 27.1024C62.9461 27.7194 62.8758 27.6874 62.5195 26.7502C62.1419 25.757 60.865 24.9877 59.5943 24.9877C59.1207 24.9877 59.0847 25.087 59.4323 25.4346C59.6782 25.6805 59.8793 26.1287 59.8793 26.4307C59.8793 26.8321 59.636 26.7513 58.975 26.1304C58.4776 25.6631 58.1604 25.0473 58.2699 24.7618C58.5875 23.9341 57.2589 24.1438 56.4776 25.0447C56.095 25.4858 55.7795 25.6953 55.7764 25.5103C55.7734 25.3253 55.6475 25.3531 55.497 25.5721C54.8986 26.4427 51.7729 27.3044 48.8231 27.4118C46.21 27.507 45.6834 27.4214 45.1317 26.8117L45.1319 26.8116ZM47.1065 24.972C44.6556 23.6477 44.2894 20.342 46.4685 19.2151C49.5983 17.5966 53.7321 19.5844 53.4789 22.586C53.2604 25.1764 49.8488 26.4539 47.1065 24.972ZM49.8795 24.5185C49.9506 24.6873 50.5116 24.7308 51.1262 24.6151L52.2436 24.4049L51.2503 23.7425C50.4042 23.1783 50.1385 23.1525 49.4568 23.5683C48.7498 23.9995 48.5726 23.9539 47.9359 23.1771C47.1126 22.1726 47.0139 21.2406 47.6622 20.5923C48.7226 19.5319 50.9928 20.6995 50.7264 22.1683C50.6161 22.7764 50.8466 23.0672 51.6919 23.3862L52.8023 23.8053V22.3563C52.8023 20.7899 52.0747 20.0462 49.9449 19.4354C47.4846 18.7298 44.6938 21.1977 45.7403 23.1533C46.2176 24.045 47.4895 24.7323 48.1754 24.4691C48.4667 24.3573 48.705 24.4487 48.705 24.6722C48.705 24.9528 48.8668 24.9444 49.2275 24.645C49.5149 24.4065 49.8082 24.3495 49.8794 24.5183L49.8795 24.5185ZM62.673 22.7527C62.5464 22.5479 62.7041 22.3803 63.0235 22.3803C63.3429 22.3803 63.6042 22.5479 63.6042 22.7527C63.6042 22.9576 63.4465 23.1252 63.2537 23.1252C63.0609 23.1252 62.7996 22.9576 62.673 22.7527ZM54.6589 21.7905C54.6508 20.7937 52.1434 18.1437 50.5112 17.407C49.7632 17.0694 48.6318 16.7931 47.9969 16.7931C47.3621 16.7931 46.8426 16.6255 46.8426 16.4206C46.8426 15.8658 49.2883 15.9706 50.7682 16.5889C53.0555 17.5446 55.8125 21.3566 54.8864 22.2827C54.7645 22.4046 54.6621 22.1832 54.6589 21.7905ZM60.709 15.955C60.4814 15.4941 60.1859 14.5609 60.0522 13.8813C59.9185 13.2017 59.5746 12.1961 59.2879 11.6464C59.0011 11.0969 58.7635 10.3958 58.7598 10.0885C58.756 9.78124 58.3523 8.8291 57.8625 7.97261C56.7762 6.07276 57.044 5.60168 58.3676 7.0842C59.5124 8.3665 60.4801 10.9824 60.8222 13.7198C60.9566 14.7951 61.2185 15.7688 61.4042 15.8835C61.8273 16.145 61.8473 16.7931 61.4322 16.7931C61.262 16.7931 60.9365 16.416 60.709 15.955ZM62.4867 13.5153C62.4867 13.3514 62.6962 13.0062 62.9523 12.7483C63.3257 12.372 63.2804 12.3316 62.7231 12.5439C62.0218 12.811 62.0279 12.5126 62.7639 10.554C62.8601 10.298 62.7534 10.0884 62.5266 10.0884C62.2998 10.0884 62.1117 9.62749 62.1085 9.06412C62.1046 8.34784 62.0065 8.19179 61.7826 8.54517C61.2397 9.40192 60.9112 8.3342 61.4289 7.39564C61.8309 6.66683 61.9143 6.64001 62.0321 7.2017C62.1073 7.56021 62.3847 7.85354 62.6486 7.85354C62.9598 7.85354 63.0657 8.18149 62.9499 8.78687C62.7165 10.0083 63.3793 10.7575 64.9549 11.053C65.9066 11.2315 66.1346 11.4084 65.8519 11.749C65.6435 12.0001 65.5833 12.3158 65.7181 12.4506C65.8529 12.5854 65.4271 12.6957 64.772 12.6957C64.0567 12.6957 63.4951 12.919 63.3664 13.2544C63.1425 13.8378 62.4867 14.0323 62.4867 13.5153ZM64.3491 11.5784C63.6196 11.107 63.1266 11.107 63.4179 11.5784C63.5445 11.7833 63.9315 11.9483 64.278 11.9452C64.8208 11.9403 64.8306 11.8896 64.3491 11.5784ZM49.8238 10.0877C49.8238 9.88287 50.0752 9.71526 50.3825 9.71526C50.6898 9.71526 50.9412 9.88288 50.9412 10.0877C50.9412 10.2926 50.6898 10.4602 50.3825 10.4602C50.0752 10.4602 49.8238 10.2926 49.8238 10.0877ZM46.2957 8.24166C45.9864 7.74115 46.4755 5.98968 46.9246 5.98968C47.1359 5.98968 47.196 6.39258 47.0634 6.92087C46.888 7.61949 46.9765 7.85207 47.4175 7.85207C47.7407 7.85207 47.9017 8.01969 47.775 8.22454C47.4829 8.69729 46.5838 8.70769 46.2957 8.24166ZM58.0185 51.6297C58.0185 51.2965 57.8001 51.1665 57.4598 51.2971C57.106 51.4329 56.9011 51.2919 56.9011 50.9129C56.9011 50.5837 56.6497 50.3143 56.3424 50.3143C55.5302 50.3143 55.6579 50.8807 56.6217 51.5531C57.6872 52.2963 58.0185 52.3144 58.0185 51.6297ZM60.6259 50.9351C60.6259 50.633 60.1936 50.4385 59.5222 50.4385C58.5374 50.4385 58.4872 50.4907 59.0566 50.9233C59.8884 51.5553 60.6259 51.5608 60.6259 50.9351ZM62.0304 50.7567C62.1115 50.5134 61.9125 50.3144 61.5881 50.3144C61.2638 50.3144 60.9984 50.5797 60.9984 50.9041C60.9984 51.5619 61.8002 51.4473 62.0304 50.7567ZM55.0388 49.7337C55.0388 49.4143 54.8711 49.2565 54.6663 49.3832C54.4614 49.5098 54.2938 49.7711 54.2938 49.9638C54.2938 50.1566 54.4614 50.3143 54.6663 50.3143C54.8711 50.3143 55.0388 50.053 55.0388 49.7337ZM66.6767 48.73C67.3828 47.8042 67.5587 47.2106 67.4216 46.2157C67.2374 44.8781 65.9689 43.1141 65.4304 43.4468C65.2644 43.5495 64.514 43.3767 63.763 43.0629C62.1249 42.3785 60.5669 42.3279 59.9556 42.9393C59.7073 43.1876 59.5086 43.2207 59.5086 43.0138C59.5086 42.8089 59.7097 42.4402 59.9556 42.1943C60.2014 41.9485 60.2609 41.7474 60.0877 41.7474C59.4759 41.7474 55.4113 46.3407 55.4113 47.0321C55.4113 47.6422 55.5201 47.6757 56.2494 47.2899C56.7104 47.0461 57.7462 46.286 58.5513 45.6007C59.3564 44.9155 60.3941 44.3548 60.8573 44.3548C61.3205 44.3548 61.8135 44.1703 61.9528 43.9448C62.3529 43.2975 64.1585 43.8468 65.385 44.9888C66.3066 45.8469 66.471 46.2447 66.3164 47.2415C66.2131 47.9073 65.9996 48.452 65.8419 48.452C65.6841 48.452 65.4674 48.7872 65.3603 49.1969C65.0718 50.3003 65.63 50.1022 66.6767 48.73ZM57.6462 44.5409C57.9013 44.2336 58.3614 43.9822 58.6687 43.9822C59.1231 43.9822 59.1408 44.0865 58.7637 44.5409C58.5087 44.8482 58.0486 45.0996 57.7413 45.0996C57.2869 45.0996 57.2691 44.9953 57.6462 44.5409ZM56.3426 48.8244C56.4692 48.6195 56.3115 48.4519 55.9921 48.4519C55.6727 48.4519 55.4114 48.6195 55.4114 48.8244C55.4114 49.0292 55.5691 49.1969 55.7619 49.1969C55.9546 49.1969 56.2159 49.0292 56.3426 48.8244ZM63.401 48.1213C63.2064 47.9394 62.67 47.6767 62.2091 47.5375C61.5285 47.3319 61.371 47.429 61.371 48.0543C61.371 48.8968 61.95 49.1025 62.2278 48.3588C62.3438 48.0481 62.4945 48.1184 62.6808 48.5701C62.8785 49.0497 63.0756 49.1311 63.3573 48.8494C63.6074 48.5994 63.6236 48.3292 63.401 48.1213ZM65.0104 48.7545C64.7802 48.0639 63.9784 47.9493 63.9784 48.6071C63.9784 48.9314 64.2438 49.1968 64.5681 49.1968C64.8925 49.1968 65.0915 48.9978 65.0104 48.7545ZM57.4601 48.0794C57.5867 47.8745 57.5128 47.7069 57.2958 47.7069C57.0789 47.7069 56.9013 47.8746 56.9013 48.0794C56.9013 48.2843 56.9753 48.4519 57.0656 48.4519C57.1559 48.4519 57.3334 48.2843 57.4601 48.0794ZM60.8962 47.7069C60.9271 47.2972 60.7951 46.962 60.603 46.962C60.4109 46.962 60.2537 47.0321 60.2537 47.1177C60.2537 47.2034 60.1519 47.5387 60.0276 47.8627C59.888 48.2263 60.0003 48.4519 60.3208 48.4519C60.6064 48.4519 60.8653 48.1167 60.8962 47.7069ZM59.1362 47.3345C59.1362 46.9206 58.8879 46.5895 58.5775 46.5895C58.0105 46.5895 57.8135 47.3774 58.2671 47.8311C58.7394 48.3033 59.1362 48.0765 59.1362 47.3345ZM64.25 47.1094C64.1263 46.9856 63.805 46.9724 63.5361 47.08C63.239 47.1989 63.3273 47.2872 63.7612 47.3051C64.1538 47.3212 64.3738 47.2332 64.25 47.1094ZM61.5727 46.2418C61.2661 45.7457 59.8813 45.7158 59.8813 46.2053C59.8813 46.4038 60.1157 46.4761 60.4023 46.3662C60.6889 46.2562 61.0409 46.3564 61.1845 46.5889C61.3282 46.8213 61.5296 46.9277 61.632 46.8253C61.7344 46.7229 61.7078 46.4603 61.5727 46.2418ZM65.6547 46.217C65.5281 46.0122 65.0992 45.8445 64.7015 45.8445C64.3039 45.8445 63.9785 46.0122 63.9785 46.217C63.9785 46.4219 64.4075 46.5895 64.9317 46.5895C65.4723 46.5895 65.7853 46.4283 65.6547 46.217ZM63.2336 45.8844C63.2336 45.5 62.3266 45.0996 61.4558 45.0996C60.961 45.0996 60.9825 45.195 61.5794 45.6465C62.3952 46.2635 63.2336 46.3841 63.2336 45.8844ZM65.8928 42.1073C64.8665 41.2523 63.6061 41.1414 63.6061 41.9062C63.6061 42.4705 64.3196 42.7587 65.841 42.8091L66.7722 42.8399L65.8928 42.1073ZM59.1364 32.8078C59.1364 32.6029 58.9588 32.4353 58.7419 32.4353C58.5249 32.4353 58.451 32.6029 58.5776 32.8078C58.7043 33.0126 58.8818 33.1802 58.9721 33.1802C59.0624 33.1802 59.1364 33.0126 59.1364 32.8078ZM62.3706 18.2111C62.2517 17.914 62.1634 18.0023 62.1455 18.4362C62.1294 18.8288 62.2174 19.0488 62.3412 18.9251C62.4649 18.8013 62.4782 18.48 62.3706 18.2111Z" fill="#B9B9B9"/>
<path d="M1.39954 82.1648C1.39954 82.0632 1.75398 80.9317 2.18718 79.6506C2.78841 77.8725 3.48623 76.7921 5.13537 75.0863C6.32372 73.8571 8.0839 71.6781 9.0469 70.2441C11.2857 66.9102 12.1067 66.0338 15.7399 63.0984C17.3788 61.7744 20.3296 59.2498 22.2973 57.4885L25.8748 54.286L24.4404 52.3944C23.6514 51.3541 22.6678 49.4897 22.2547 48.2513C20.4573 42.8642 19.4211 31.6083 20.4215 28.3383C20.6405 27.6226 21.1463 25.6962 21.5456 24.0572C22.2889 21.0065 23.8174 16.74 25.4962 13.0302C26.2429 11.3799 27.0139 10.4836 29.1767 8.75113C32.8548 5.80498 36.3154 3.75719 37.6159 3.75719C38.2035 3.75719 39.1369 3.52763 39.6902 3.24706C40.2434 2.96648 42.3981 2.45596 44.4785 2.11258C50.9007 1.05246 57.3229 2.22466 63.7893 5.63746C69.529 8.66646 70.0433 8.99584 73.8267 12.0664C75.2386 13.2122 77.9639 16.8688 79.1569 19.2175C81.0639 22.9725 82.5994 29.2493 82.5994 33.2901C82.5994 36.164 81.0778 45.9275 80.1365 49.0922C79.4159 51.5152 77.9562 53.6055 75.0245 56.4121C72.878 58.4671 71.5716 59.2296 65.6516 61.882C62.9103 63.1102 58.8651 64.0848 56.4784 64.0922C53.1973 64.1022 53.1015 64.7077 56.002 67.1075C59.346 69.8743 59.3797 69.887 59.1969 68.3211C59.0674 67.2115 59.1484 67.0267 59.7167 67.1361C60.1118 67.2122 60.5195 67.7656 60.7035 68.4758C61.1574 70.2275 62.2863 70.1518 62.0002 68.389C61.758 66.8967 62.2286 66.3957 63.0762 67.2434C63.4893 67.6565 63.5873 68.1648 63.4095 68.9739C63.1799 70.0194 63.2344 70.1087 64.0323 69.9958C64.6707 69.9054 64.9385 69.5955 65.0246 68.8477C65.2021 67.3052 66.2104 67.5248 66.2104 69.106C66.2104 70.009 65.9655 70.5601 65.3826 70.9683C64.5867 71.5258 64.5839 71.5482 65.3081 71.5482C65.7224 71.5482 66.2571 71.3525 66.4962 71.1134C67.1258 70.4838 67.5504 71.7624 66.9515 72.4841C66.3668 73.1886 64.2048 73.2043 63.6271 72.5083C63.3852 72.2169 62.6927 71.806 62.0882 71.5953C61.0717 71.2409 61.0176 71.2656 61.3698 71.9237C61.5793 72.3151 62.3434 73.0874 63.0677 73.6399L64.3848 74.6444L65.9494 73.7736C66.8099 73.2946 67.933 72.6167 68.4452 72.2672C68.9573 71.9176 70.3521 71.0018 71.5449 70.2322C72.7376 69.4625 73.9767 68.4309 74.2986 67.9397C74.8447 67.1063 74.8305 66.997 74.0856 66.303C73.1879 65.4667 73.0878 65.0108 73.7164 64.6223C73.9523 64.4765 74.348 64.6342 74.5955 64.9728C75.2331 65.8447 75.5223 65.7377 75.5223 64.6299C75.5223 63.2092 76.7208 63.6141 77.2706 65.2205L77.7151 66.5196L77.7362 65.3091C77.7532 64.3292 77.9082 64.0986 78.5497 64.0986C79.2726 64.0986 79.3202 64.2367 79.091 65.6697L78.8398 67.2408L79.7408 66.3944C80.5792 65.6067 80.6597 65.5946 80.8993 66.2189C81.0789 66.6871 80.8619 67.1435 80.1812 67.7291C79.106 68.6539 78.112 68.7843 76.9361 68.155C76.2743 67.8008 76.038 67.9025 75.284 68.866C73.9891 70.5204 65.3679 76.0178 64.068 76.0178C63.9004 76.0178 62.6973 74.9972 61.3946 73.7498C59.6343 72.0644 58.8244 71.528 58.2415 71.6617C57.8101 71.7607 56.1314 72.1946 54.511 72.626C52.8905 73.0574 50.6901 73.4104 49.6213 73.4104C48.5189 73.4104 47.5123 73.6119 47.2953 73.876C47.0849 74.1321 46.03 76.0759 44.9511 78.1957C43.8722 80.3155 42.7722 82.1331 42.5068 82.235C41.2892 82.7022 41.3636 81.9661 42.7772 79.5554C44.5105 76.5999 45.5453 74.2247 45.2351 73.9145C45.0637 73.7431 41.815 74.4285 40.3234 74.9507C39.9667 75.0756 31.4982 66.8308 26.9753 61.9546C25.3467 60.1989 24.9525 59.5717 25.3761 59.4092C26.1908 59.0966 26.8638 59.5798 28.8051 61.8713C31.1918 64.6887 32.4173 65.9776 36.5694 70.0379L40.1676 73.5565L41.8339 73.1108C42.7504 72.8657 44.1688 72.6651 44.9856 72.6651C46.3831 72.6651 46.5685 72.5275 48.1223 70.3371C49.0305 69.0567 50.3003 67.2764 50.9441 66.3809C52.7506 63.8682 52.7474 63.7259 50.8859 63.7233C48.0882 63.7196 42.302 62.6823 39.3929 61.663C36.48 60.6425 31.103 57.9144 30.888 57.3481C30.8197 57.1681 30.6177 57.0209 30.439 57.0209C30.2603 57.0209 29.4936 56.5999 28.7353 56.0853C27.4265 55.1972 27.3074 55.1801 26.3907 55.7505C25.8595 56.0809 25.1735 56.6277 24.8662 56.9655C24.3342 57.5503 19.4359 61.7984 17.9304 62.9806C16.579 64.0419 13.132 66.8895 12.7472 67.2624C12.535 67.4682 11.4916 68.9775 10.4287 70.6164C9.36575 72.2553 7.58318 74.518 6.46738 75.6448C5.01009 77.1165 4.19435 78.3475 3.57125 80.016C2.96376 81.6425 2.50841 82.3402 2.05194 82.344C1.69344 82.347 1.40011 82.2664 1.40011 82.1647L1.39954 82.1648ZM55.9116 70.9521L57.7185 70.3346L56.8428 69.5406C56.3611 69.1038 55.2507 68.1863 54.3752 67.5015C52.4843 66.0226 52.4032 66.0629 50.1988 69.5787L48.6598 72.0332L51.3822 71.8014C52.8795 71.6739 54.9177 71.2918 55.9116 70.9521ZM63.2944 61.6476C64.2514 61.28 65.3936 60.7085 65.8325 60.3774C66.5733 59.8186 66.5989 59.6503 66.1899 58.0258C65.9476 57.0635 65.6016 56.2762 65.421 56.2762C65.2405 56.2762 65.0928 56.4373 65.0928 56.6343C65.0928 56.8313 64.4477 57.1661 63.6593 57.3784C62.4933 57.6924 61.6763 57.6142 59.2827 56.9595C57.664 56.5168 55.4596 56.1191 54.384 56.0756C52.6922 56.0074 52.4285 56.0909 52.4285 56.6952C52.4285 57.0793 52.3028 57.3947 52.1491 57.3961C51.9955 57.3976 51.4685 57.988 50.978 58.7082C50.4875 59.4284 50.0184 59.9499 49.9355 59.867C49.5989 59.5303 50.3107 57.7662 50.7832 57.7662C51.063 57.7662 51.5711 57.2214 51.9122 56.5556C52.2534 55.8898 52.7186 55.2219 52.9461 55.0714C53.6415 54.6113 55.0133 54.7544 55.9802 55.3879C57.1991 56.1866 57.1468 55.7919 55.8778 54.6152C54.51 53.3469 55.0238 53.4185 56.9805 54.7689C58.7267 55.974 62.4988 56.9131 64.0397 56.5263C65.1803 56.2401 65.9582 54.6252 65.6839 53.1129C65.4436 51.7879 64.9403 51.2699 64.1774 51.5626C63.7394 51.7307 63.65 52.0598 63.8351 52.8226L64.0857 53.8551L63.2931 52.9239C62.6221 52.1356 62.4444 52.0782 62.1351 52.5496C61.8194 53.0308 61.6995 53.0105 61.2532 52.4001C60.8942 51.9092 60.6552 51.8254 60.4698 52.1254C60.276 52.4389 60.0482 52.4025 59.6379 51.9922C59.0106 51.3648 58.388 51.5616 58.388 52.3872C58.388 53.0864 57.8571 53.072 57.2635 52.3567C56.8699 51.8824 56.8929 51.8279 57.4041 52.0241C57.8245 52.1854 58.0155 52.0592 58.0155 51.6203C58.0155 51.2258 57.8161 51.0584 57.4935 51.1822C57.1723 51.3054 56.8905 51.0725 56.7608 50.5766C56.5978 49.9534 56.4495 49.8712 56.1066 50.2141C55.7638 50.557 55.7821 50.8074 56.1876 51.3187C56.6884 51.9503 56.6667 51.951 55.7007 51.3345C54.4326 50.5251 53.6925 50.5144 53.3906 51.3011C53.2614 51.6377 53.0737 51.8311 52.9735 51.7308C52.8732 51.6306 53.1875 50.6428 53.6719 49.5358C54.1562 48.4288 54.6644 47.0621 54.8012 46.4987C54.938 45.9354 55.2143 45.4744 55.4153 45.4744C55.6162 45.4744 55.7806 45.2969 55.7806 45.08C55.7806 44.863 55.6481 44.7674 55.4861 44.8676C55.3241 44.9677 55.1741 44.5166 55.1527 43.8652C55.1314 43.2138 55.0544 42.4504 54.9817 42.1687C54.903 41.864 55.3021 41.5201 55.9669 41.3197C56.5815 41.1344 57.6195 40.8128 58.2736 40.6049C59.1418 40.3289 59.6623 40.3514 60.2014 40.6881C60.8833 41.1139 60.8921 41.1843 60.3158 41.6069C59.7825 41.9979 59.8813 42.0551 60.9953 42.0001C62.4122 41.9303 63.0301 41.1494 62.3461 40.2933C62.1153 40.0045 61.9265 39.334 61.9265 38.8034C61.9265 37.9982 61.6955 37.7815 60.5298 37.4936C59.7616 37.3038 59.1331 37.03 59.1331 36.8851C59.1331 36.7402 58.605 36.6631 57.9594 36.7139C56.5567 36.8243 55.4288 38.4556 56.1523 39.3275C56.4792 39.7214 56.4011 39.9278 55.8048 40.2469C54.7962 40.7867 54.7936 40.2103 55.791 37.2494C56.2064 36.0163 56.451 34.8532 56.3345 34.6648C56.218 34.4763 56.3861 33.8128 56.708 33.1904C57.1394 32.3561 57.1923 31.8702 56.9094 31.3416C56.3795 30.3513 56.4199 30.2451 57.2448 30.4608C57.7025 30.5805 57.8851 30.8545 57.7471 31.2143C57.5603 31.7011 57.6544 31.7131 58.4247 31.3009C58.9167 31.0375 59.3192 30.8099 59.3192 30.795C59.3192 30.7801 60.0947 31.3248 61.0424 32.0055C62.6099 33.1312 63.8891 34.8831 63.458 35.3141C63.3631 35.4091 62.9166 35.0626 62.4658 34.5441C61.8114 33.7915 61.3896 33.6343 60.3733 33.7644C59.3196 33.8994 59.1193 33.8152 59.2099 33.2758C59.2794 32.8618 59.0815 32.6241 58.6674 32.6241C58.3089 32.6241 58.0299 32.773 58.0474 32.955C58.0649 33.1369 57.9231 33.3883 57.7323 33.5137C57.5415 33.639 57.2754 34.1911 57.141 34.7405C56.8702 35.8476 57.2699 36.0903 59.3863 36.1037C60.8716 36.1132 62.4277 37.1069 62.7084 38.2252C63.1197 39.8642 66.5116 40.5236 68.1898 39.2908C68.7193 38.9019 69.2698 38.0809 69.4133 37.4663C69.5568 36.8517 69.7461 36.5561 69.8339 36.8095C69.9218 37.0628 69.5614 38.1838 69.0331 39.3006C68.5048 40.4174 68.0725 41.5091 68.0725 41.7267C68.0725 41.9442 67.8006 42.1222 67.4682 42.1222C66.9732 42.1222 66.9478 42.2233 67.3276 42.6809C67.5826 42.9882 68.0016 43.2396 68.2588 43.2396C69.0724 43.2396 69.6401 44.2014 69.094 44.6546C68.8169 44.8846 68.5693 46.1004 68.5042 47.5507C68.4352 49.0877 68.187 50.2554 67.8598 50.5827C67.3985 51.0439 67.3259 51.0244 67.3152 50.4364C67.3043 49.8396 67.2169 49.8609 66.5889 50.6142C65.8004 51.56 65.9533 52.5278 66.9018 52.5948C67.427 52.6319 67.4213 52.6622 66.862 52.8083C65.895 53.061 65.8561 55.5131 66.7906 57.3045C67.0834 57.8658 67.324 58.5345 67.3253 58.7906C67.3327 60.3082 71.831 57.8652 75.002 54.6215C78.3666 51.1796 78.922 49.8235 80.4256 41.3775C81.0811 37.6951 81.0791 28.6767 80.4222 26.4786C78.8373 21.1735 76.7326 17.0138 74.1427 14.0676C71.6709 11.2562 63.9676 6.73176 58.1708 4.68692C52.1829 2.57462 44.8045 2.57643 39.7643 4.69151C38.6373 5.16437 37.045 5.67466 36.2257 5.82554C35.4066 5.97637 34.2841 6.45273 33.7313 6.8841C27.621 11.6524 27.5283 11.7428 26.6301 13.8029C24.7316 18.1568 23.3625 21.9495 22.7893 24.4436C22.4614 25.8701 22.0402 27.4223 21.8533 27.8928C21.3861 29.0688 21.425 37.5781 21.9113 40.5901C22.4486 43.9172 23.7068 48.784 24.3526 50.0331C25.2151 51.7012 27.1267 53.6698 27.8841 53.6698C28.2726 53.6698 28.5904 53.8294 28.5904 54.0244C28.5904 54.3751 31.2602 56.3588 33.0602 57.3453C37.2198 59.6251 40.0777 60.7669 41.916 60.8834C42.779 60.9381 43.0821 60.8204 42.952 60.4813C42.8508 60.2177 42.9826 60.002 43.2448 60.002C43.5071 60.002 44.0706 59.6768 44.4971 59.2794C44.9237 58.8821 45.3404 58.6247 45.4233 58.7075C45.5061 58.7903 46.2283 58.0319 47.0281 57.0222C47.828 56.0124 48.537 55.2408 48.6038 55.3076C49.0038 55.7076 47.6888 57.6675 45.9086 59.3244C44.7719 60.3824 43.9776 61.3839 44.1437 61.55C45.2938 62.7001 60.3543 62.7776 63.295 61.6486L63.2944 61.6476ZM50.5665 56.6696C50.5665 56.4768 50.7322 56.2167 50.9347 56.0915C51.1458 55.961 51.2083 56.1106 51.0811 56.442C50.8335 57.0873 50.5665 57.2054 50.5665 56.6696ZM51.3114 55.2654C51.3114 55.0515 51.6047 54.6464 51.9633 54.3652C52.5662 53.8924 52.5741 53.9099 52.0687 54.599C51.7681 55.0087 51.4748 55.4138 51.4168 55.4992C51.3589 55.5845 51.3114 55.4793 51.3114 55.2654ZM62.4159 53.7858C62.6848 53.6782 63.006 53.6915 63.1298 53.8152C63.2536 53.939 63.0336 54.027 62.6409 54.0108C62.207 53.993 62.1187 53.9047 62.4159 53.7858ZM59.7137 53.33C59.5988 53.1443 59.8404 53.08 60.2504 53.1872C61.1201 53.4147 61.2301 53.6678 60.4591 53.6678C60.1639 53.6678 59.8284 53.5158 59.7137 53.33ZM68.4454 51.4329C68.4454 51.2281 68.6229 51.0604 68.8398 51.0604C69.0568 51.0604 69.1307 51.2281 69.0041 51.4329C68.8775 51.6378 68.7 51.8054 68.6096 51.8054C68.5193 51.8054 68.4454 51.6378 68.4454 51.4329ZM39.6528 48.9507C39.1655 48.4634 39.4166 48.1545 40.1452 48.3451C40.5527 48.4516 40.7942 48.6873 40.682 48.8689C40.4399 49.2607 39.9979 49.2958 39.6528 48.9507ZM45.9228 42.122C46.0494 41.9172 46.2269 41.7496 46.3173 41.7496C46.4076 41.7496 46.4815 41.9172 46.4815 42.122C46.4815 42.3269 46.304 42.4945 46.0871 42.4945C45.8701 42.4945 45.7962 42.3269 45.9228 42.122ZM33.2583 41.0046C32.9669 40.5332 33.46 40.5332 34.1895 41.0046C34.671 41.3158 34.6611 41.3665 34.1183 41.3714C33.7719 41.3745 33.3849 41.2095 33.2583 41.0046ZM39.5904 39.5147C39.7171 39.3099 39.8946 39.1422 39.9849 39.1422C40.0752 39.1422 40.1492 39.3099 40.1492 39.5147C40.1492 39.7196 39.9716 39.8872 39.7547 39.8872C39.5377 39.8872 39.4638 39.7196 39.5904 39.5147ZM66.2517 35.5726C66.2696 35.1387 66.3578 35.0505 66.4767 35.3476C66.5843 35.6165 66.5711 35.9377 66.4473 36.0615C66.3236 36.1853 66.2355 35.9653 66.2517 35.5726ZM68.3058 34.6203C68.0061 32.7459 67.7173 32.1992 67.345 32.8016C67.149 33.1188 67.0044 33.0716 66.8371 32.6358C66.688 32.2472 66.7512 32.1178 67.0115 32.2787C67.4378 32.5422 67.2375 31.4722 66.5881 30.0165C65.5335 27.653 65.1847 26.4395 65.3634 25.7564C65.4778 25.3191 65.3851 24.9881 65.1484 24.9881C64.9196 24.9881 64.7325 24.7367 64.7325 24.4294C64.7325 24.1221 64.5649 23.8707 64.36 23.8707C64.1551 23.8707 63.9875 23.6918 63.9875 23.4731C63.9875 23.245 64.3051 23.1763 64.7325 23.312C65.1422 23.442 65.4774 23.3987 65.4774 23.2157C65.4774 22.8015 63.8677 21.2634 63.4342 21.2634C63.2586 21.2634 62.8116 20.9888 62.4409 20.6533C61.8912 20.1559 61.6622 20.1299 61.201 20.5126C60.8133 20.8344 60.6353 20.8506 60.6353 20.564C60.6353 20.3341 60.8029 20.1459 61.0078 20.1459C61.8193 20.1459 61.3321 18.3016 60.2536 17.2908C59.6339 16.71 58.527 15.297 57.7938 14.1506C57.0606 13.0043 55.9637 11.7727 55.3562 11.4139C54.7487 11.055 54.3327 10.6804 54.4318 10.5813C54.835 10.1781 56.1386 11.2914 57.6503 13.3301C59.9781 16.4693 61.4778 17.9835 61.7781 17.4976C61.9632 17.1981 62.1013 17.1984 62.2869 17.4988C62.427 17.7256 62.3642 17.9111 62.1472 17.9111C61.4626 17.9111 61.7139 18.5305 62.9633 19.9228L64.1739 21.2717L66.4087 20.6538C67.6379 20.3139 68.8531 19.7772 69.1092 19.461C69.5131 18.9623 69.5747 18.9597 69.5747 19.4416C69.5747 19.7471 69.3874 20.1844 69.1584 20.4134C68.8515 20.7202 69.17 20.9253 70.3689 21.193L71.9959 21.5561L69.4816 21.596C68.0988 21.618 66.9674 21.7916 66.9674 21.9818C66.9674 22.172 66.7307 22.5643 66.4415 22.8536C65.3678 23.9272 65.9081 28.809 67.0243 28.1191C67.3048 27.9457 67.3534 28.0172 67.1637 28.3242C66.9821 28.6181 67.2124 29.0954 67.7756 29.5923C68.2723 30.0306 68.4573 30.2395 68.1866 30.0567C67.9158 29.8738 67.6139 29.8048 67.5154 29.9032C67.2156 30.203 68.1442 32.5754 68.8814 33.393C69.7026 34.3037 69.7695 35.1648 69.0645 35.7498C68.6507 36.0933 68.5073 35.8798 68.3059 34.6204L68.3058 34.6203ZM63.7016 34.3003C63.4575 33.9094 63.4028 33.4999 63.5802 33.3903C63.7576 33.2807 63.9989 33.5589 64.1165 34.0086C64.3963 35.0783 64.2512 35.1803 63.7016 34.3003ZM65.1049 34.4643C65.1049 34.1449 65.2752 33.9888 65.4834 34.1175C65.6916 34.2462 65.7656 34.5075 65.6477 34.6982C65.3284 35.2149 65.1049 35.1185 65.1049 34.4643ZM57.8453 33.9215C57.974 33.7132 58.2353 33.6393 58.426 33.7572C58.9426 34.0765 58.8463 34.3 58.192 34.3C57.8726 34.3 57.7166 34.1297 57.8453 33.9215ZM48.5668 30.8716C47.7223 30.399 47.8268 29.8623 48.7178 30.0953C49.1287 30.2027 49.6734 30.1201 49.9284 29.9117C50.1834 29.7033 50.8678 29.5866 51.4494 29.6523C52.1187 29.728 53.2123 29.3624 54.4292 28.6559C56.0405 27.7205 56.2002 27.68 55.4161 28.4057C54.9016 28.8819 54.1982 29.4941 53.8532 29.766C52.9161 30.5046 49.2726 31.2666 48.5668 30.8716ZM44.0807 29.4914C43.7977 29.0335 44.2338 27.9679 44.7041 27.9679C44.9327 27.9679 44.9098 28.1758 44.6462 28.4935C44.1617 29.0772 44.7122 29.6741 45.3636 29.2716C45.5685 29.145 45.7361 29.2189 45.7361 29.4358C45.7361 29.9175 44.3723 29.9633 44.0807 29.4914ZM70.0323 29.0155C70.1133 28.7722 70.3788 28.5068 70.6222 28.4257C70.8944 28.3349 70.9777 28.5052 70.8385 28.868C70.5787 29.545 69.8088 29.6859 70.0323 29.0155ZM68.3135 28.3075C65.8747 26.3891 65.8643 24.2934 68.2887 23.2804C69.6948 22.6929 72.0289 22.577 72.3393 23.0792C72.4501 23.2585 71.8113 23.3229 70.9199 23.2224C69.2247 23.0314 68.3814 23.5716 69.1599 24.3501C69.3879 24.5781 69.5745 24.9307 69.5745 25.1338C69.5745 25.3368 69.3539 25.2013 69.0842 24.8325C68.382 23.8721 67.1534 24.2113 67.1534 25.3656C67.1534 25.9707 67.3366 26.2522 67.682 26.1776C68.0915 26.0892 68.1145 26.1794 67.784 26.5776C67.3147 27.1431 67.845 27.9678 68.6779 27.9678C68.9223 27.9678 69.2188 28.2193 69.3367 28.5266C69.6186 29.2611 69.4913 29.2338 68.3136 28.3074L68.3135 28.3075ZM72.1818 28.955C72.1818 28.869 72.6215 28.5105 73.1588 28.1584C73.6962 27.8062 74.0221 27.7023 73.8831 27.9273C73.6173 28.3573 72.1818 29.2245 72.1818 28.955ZM45.4481 27.1554C44.8038 26.5111 45.6119 25.6377 46.4415 26.0818C46.9917 26.3762 50.011 26.5953 52.2962 26.5065C52.7283 26.4898 53.8597 25.7913 54.8104 24.9545C56.8612 23.1494 57.0688 21.8399 55.6078 19.9246C55.0957 19.2531 54.6766 18.5249 54.6766 18.3064C54.6766 18.0878 54.5452 17.909 54.3845 17.909C54.2238 17.909 53.7768 17.3748 53.3911 16.7219C52.6982 15.549 52.716 15.5547 54.8938 17.2166C56.1059 18.1415 57.639 19.2126 58.3007 19.5969C59.5768 20.3379 59.3478 20.8722 57.7496 20.8831C57.2886 20.8862 56.9115 21.0564 56.9115 21.2612C56.9115 21.4661 57.7915 21.6517 58.867 21.6736L60.8226 21.7135L59.2321 22.0695C57.7186 22.4082 57.3646 23.1172 58.7028 23.1293C59.2028 23.1338 59.2275 23.2017 58.8225 23.4582C58.4519 23.6929 58.7067 23.9097 59.7537 24.2505C61.1446 24.7031 62.9658 25.7309 62.3768 25.7309C62.2186 25.7309 61.6366 25.4993 61.0834 25.2163C59.7303 24.5239 56.9116 24.0699 56.9116 24.5443C56.9116 24.7472 56.4507 25.1044 55.8873 25.3382C55.3239 25.5719 54.2729 26.0744 53.5518 26.4547C51.8067 27.3749 47.8914 27.7088 46.9766 27.0154C46.0816 26.3371 45.7102 26.3442 45.9751 27.0346C46.2327 27.7059 46.0424 27.7495 45.4482 27.1552L45.4481 27.1554ZM70.1965 27.3452C69.7918 26.9404 69.9133 25.5424 70.3951 25.0606C71.6436 23.8121 74.0575 25.6737 72.9386 27.022C72.462 27.5962 70.66 27.8086 70.1965 27.3452ZM58.8664 25.919C58.3083 25.2851 58.2743 24.9863 58.7602 24.9863C58.9579 24.9863 59.299 25.3215 59.5183 25.7312C59.9753 26.5851 59.5586 26.7052 58.8664 25.919ZM48.2508 25.4744C47.8923 25.3808 47.599 25.1645 47.599 24.9938C47.599 24.8231 47.9514 24.7757 48.3821 24.8883C48.8409 25.0083 49.3013 24.8781 49.4938 24.5741C49.7641 24.1473 49.8235 24.1448 49.8282 24.5605C49.8315 24.8559 50.0661 24.9768 50.3926 24.8515C50.6999 24.7336 50.9513 24.7816 50.9513 24.9581C50.9513 25.5949 49.658 25.8422 48.2508 25.4744ZM62.8701 25.1725C62.8701 24.8652 62.936 24.6138 63.0165 24.6138C63.097 24.6138 63.2594 24.8652 63.3773 25.1725C63.4952 25.4798 63.4293 25.7312 63.2309 25.7312C63.0325 25.7312 62.8701 25.4798 62.8701 25.1725ZM73.8429 25.3339C73.7079 25.1154 73.6773 24.8568 73.7749 24.7592C73.8726 24.6615 74.0517 24.8403 74.173 25.1564C74.4249 25.8128 74.2102 25.9282 73.8429 25.3339ZM51.9446 24.3655C51.4922 23.913 51.6872 23.5163 52.255 23.7341C52.5623 23.852 52.8137 23.763 52.8137 23.5362C52.8137 23.3094 52.9827 23.1239 53.1893 23.1239C53.412 23.1239 53.3755 23.4272 53.0997 23.8688C52.6072 24.6575 52.3481 24.7689 51.9446 24.3655ZM45.5351 23.844C45.4001 23.6255 45.3695 23.3669 45.4671 23.2693C45.5648 23.1716 45.7439 23.3504 45.8652 23.6665C46.1171 24.3229 45.9024 24.4383 45.5351 23.844ZM47.5915 22.7373C46.6817 21.0374 48.4613 19.4605 49.8606 20.7269C50.2556 21.0844 50.5789 21.6526 50.5789 21.9896C50.5789 23.505 48.3068 24.0737 47.5915 22.7373ZM61.8531 23.2289C62.42 23.1433 62.7872 22.917 62.6692 22.726C62.5512 22.5351 62.6223 22.3789 62.8271 22.3789C63.032 22.3789 63.2924 22.529 63.4057 22.7124C63.6609 23.1253 62.7102 23.5152 61.6301 23.4405C61.0288 23.399 61.0856 23.345 61.8531 23.2289ZM45.0154 21.9646C44.949 19.6823 47.7767 18.0889 50.321 18.9749C51.5028 19.3864 51.5021 19.387 49.9959 19.2149C47.9565 18.9819 46.1097 19.9901 45.5033 21.6673C45.0758 22.85 45.0418 22.8708 45.0154 21.9646ZM53.2247 22.5036C53.201 22.2643 53.0731 21.7614 52.9405 21.3862C52.7534 20.8568 52.803 20.7993 53.1616 21.1299C53.4159 21.3642 53.5438 21.8671 53.4459 22.2473C53.348 22.6276 53.2485 22.7429 53.2247 22.5036ZM54.6714 21.782C54.6714 19.9129 50.7207 16.7928 48.3541 16.7928C47.7313 16.7928 47.2217 16.6252 47.2217 16.4204C47.2217 15.7929 49.4042 16.006 50.9253 16.782C53.1783 17.9314 55.7262 21.4493 54.9023 22.2732C54.7753 22.4002 54.6714 22.1792 54.6714 21.782ZM72.3671 22.0118C72.2366 21.8007 72.3861 21.7382 72.7176 21.8654C73.3629 22.113 73.4809 22.38 72.9451 22.38C72.7524 22.38 72.4922 22.2143 72.3671 22.0118ZM62.862 17.9252C63.2568 16.5484 66.6138 13.0681 67.5469 13.0681C67.934 13.0681 68.0766 13.1967 67.876 13.365C67.6814 13.5283 66.5584 14.4632 65.3805 15.4424C64.1762 16.4436 63.2387 17.5268 63.2387 17.9172C63.2387 18.299 63.0819 18.7083 62.8902 18.8268C62.6767 18.9587 62.6657 18.6093 62.862 17.9252ZM60.748 15.5823C60.538 15.1214 59.9675 13.4871 59.4801 11.9507C58.9928 10.4142 58.2982 8.60727 57.9365 7.93527C57.0437 6.27629 57.1093 6.07436 58.2063 7.10495C59.3056 8.13764 60.5212 11.194 60.6571 13.2665C60.7103 14.0793 60.9816 15.1214 61.2599 15.5823C61.5381 16.0433 61.6227 16.4204 61.4477 16.4204C61.2727 16.4204 60.9579 16.0433 60.748 15.5823ZM62.4938 13.4983C62.4938 13.3252 62.8044 12.9025 63.184 12.5589C63.7099 12.0829 64.0868 12.0192 64.767 12.2913L65.6598 12.6484L64.6238 12.672C64.054 12.685 63.4914 12.9471 63.3734 13.2543C63.1458 13.8476 62.4938 14.0285 62.4938 13.4983ZM62.5732 11.4502L62.9687 10.1616L64.1017 10.8506C64.7249 11.2295 65.4141 11.4399 65.6335 11.318C65.8528 11.1961 65.8314 11.3135 65.5858 11.5789C65.2217 11.9724 64.9686 11.9495 64.2139 11.455C63.33 10.8759 63.2832 10.8846 63.1704 11.6498C63.1055 12.0905 62.8556 12.5158 62.6151 12.5949C62.2862 12.7031 62.2759 12.4191 62.5732 11.4502ZM62.127 9.08593C62.1238 8.63708 62.2889 8.16625 62.4938 8.03964C62.968 7.74655 62.968 8.60949 62.4938 9.34333C62.2002 9.79755 62.1316 9.7494 62.127 9.08593ZM46.2502 8.06874C46.1384 7.77746 46.2556 7.14935 46.5106 6.67292C46.8042 6.12423 47.0324 5.98162 47.1332 6.28386C47.2206 6.54628 47.0882 7.00678 46.8389 7.30719C46.4723 7.74896 46.5012 7.85338 46.99 7.85338C47.3223 7.85338 47.5943 8.021 47.5943 8.22586C47.5943 8.79789 46.4801 8.66765 46.2502 8.06874ZM61.269 7.8476C61.4788 7.04545 62.1204 6.44894 62.1204 7.056C62.1204 7.69126 61.6793 8.5984 61.3705 8.5984C61.2067 8.5984 61.161 8.26051 61.269 7.8476ZM62.4928 51.0602C61.6465 50.2139 61.0056 50.0942 60.9972 50.7808C60.9934 51.0734 60.8897 51.1063 60.7178 50.8693C60.5673 50.6619 59.9664 50.4691 59.3824 50.4408C57.8863 50.3684 58.7079 51.0949 60.5184 51.4454C63.13 51.951 63.3422 51.9096 62.4928 51.0602ZM66.0052 49.9006C65.893 49.7189 65.9405 49.5703 66.1109 49.5703C66.2812 49.5703 66.7143 49.0251 67.0731 48.3587C68.2312 46.2083 67.0034 43.2382 64.9564 43.2382C64.4677 43.2382 63.5878 42.9878 63.0009 42.6818C61.7332 42.0206 60.7704 41.9652 60.4195 42.533C60.2417 42.8207 60.0639 42.7925 59.8308 42.4399C59.5768 42.0553 58.9646 42.4933 57.2701 44.2724C53.9797 47.7267 54.4139 49.0857 57.8894 46.2108C59.7713 44.654 61.4535 43.9887 63.517 43.9852C64.3204 43.9837 64.7276 44.1626 64.7276 44.5168C64.7276 44.8103 65.0628 45.1568 65.4725 45.2868C66.4385 45.5934 66.4522 47.0925 65.5068 49.036C64.7473 50.5974 64.8335 51.3726 65.6878 50.6636C65.9746 50.4255 66.1174 50.0822 66.0052 49.9005L66.0052 49.9006ZM57.6505 44.7957C57.6505 44.3456 58.3572 43.8208 58.6155 44.0791C58.7093 44.1728 58.5305 44.4615 58.2183 44.7207C57.8643 45.0145 57.6505 45.0427 57.6505 44.7957ZM55.1788 49.7588C55.0613 49.4527 54.8151 49.2949 54.6317 49.4083C54.1058 49.7333 54.2429 50.3154 54.8453 50.3154C55.1776 50.3154 55.3085 50.0969 55.1788 49.7588ZM63.9827 49.9429C63.9827 49.738 63.8151 49.5704 63.6102 49.5704C63.4054 49.5704 63.2377 49.738 63.2377 49.9429C63.2377 50.1477 63.4054 50.3154 63.6102 50.3154C63.8151 50.3154 63.9827 50.1477 63.9827 49.9429ZM56.5332 48.8254C56.5332 48.6206 56.188 48.453 55.7662 48.453C55.3444 48.453 55.1029 48.6206 55.2295 48.8254C55.3561 49.0303 55.7012 49.1979 55.9964 49.1979C56.2916 49.1979 56.5332 49.0303 56.5332 48.8254ZM62.7971 48.6557C63.165 49.2833 63.2758 49.3068 63.5977 48.8254C63.8484 48.4505 63.9731 48.4199 63.977 48.7323C63.9799 48.9884 64.2464 49.1979 64.5687 49.1979C64.9279 49.1979 65.1046 48.9456 65.0251 48.5461C64.9389 48.1123 64.6182 47.9332 64.0666 48.0108C63.6107 48.0749 63.2377 47.9393 63.2377 47.7094C63.2377 47.4796 63.072 47.394 62.8695 47.5191C62.6584 47.6496 62.5959 47.5001 62.7231 47.1686C62.8622 46.8062 62.7387 46.5906 62.392 46.5906C62.0879 46.5906 61.6304 46.3392 61.3753 46.0319C61.055 45.6458 61.0409 45.4732 61.3297 45.4732C61.5597 45.4732 61.7478 45.6212 61.7478 45.8022C61.7478 46.1899 63.1019 46.6022 63.3992 46.305C63.7453 45.9589 62.8139 45.1007 62.0922 45.1007C61.1922 45.1007 59.5129 45.8777 59.5129 46.2942C59.5129 46.4752 59.7224 46.5977 59.9785 46.5665C60.2346 46.5353 60.8119 46.6289 61.2614 46.7744C61.9068 46.9834 61.9851 47.1402 61.6339 47.5198C61.2757 47.9069 61.1309 47.8468 60.8906 47.2114C60.6423 46.555 60.5336 46.5148 60.2445 46.9721C59.6848 47.8571 59.8312 48.453 60.6084 48.453C61.006 48.453 61.454 48.6514 61.6038 48.8939C61.7911 49.1968 61.9535 49.1146 62.1232 48.631C62.3631 47.9469 62.3819 47.9476 62.7971 48.6557ZM57.4644 48.0805C57.591 47.8756 57.5171 47.708 57.3001 47.708C57.0831 47.708 56.9056 47.8756 56.9056 48.0805C56.9056 48.2853 56.9796 48.453 57.0699 48.453C57.1602 48.453 57.3377 48.2853 57.4644 48.0805ZM59.2881 47.8606C59.5708 47.1239 59.265 46.5906 58.5598 46.5906C58.2646 46.5906 58.0231 46.8978 58.0231 47.2734C58.0231 48.4798 58.8952 48.8847 59.2881 47.8606ZM65.7563 46.8183C65.8539 45.6399 64.629 45.2983 63.7579 46.2608C62.9685 47.1331 63.3822 47.6572 64.3722 47.0389C64.9737 46.6632 65.1002 46.6819 65.1002 47.1461C65.1002 48.0693 65.6766 47.7813 65.7563 46.8183ZM56.0888 43.4146C55.9741 43.2999 55.7658 43.5067 55.626 43.874C55.4238 44.4049 55.4666 44.4476 55.8345 44.0825C56.089 43.8298 56.2035 43.5293 56.0888 43.4146ZM66.0334 42.123C65.3081 41.3215 63.8111 41.1219 63.4087 41.7731C63.0592 42.3386 63.4069 42.5748 65.003 42.8558C66.7433 43.1622 66.8835 43.0624 66.0334 42.123Z" fill="#4D4D4D"/>
<path d="M1.7753 81.3248C1.95301 80.7614 2.31597 79.635 2.58188 78.8218C2.86239 77.9639 3.91376 76.4783 5.08615 75.2832C6.1976 74.1503 8.13779 71.7149 9.39757 69.8711C11.24 67.1746 12.5307 65.8266 15.9949 62.9802C18.3636 61.0341 21.1581 58.6601 22.2048 57.7047C23.2516 56.7493 24.5564 55.6149 25.1046 55.1838L26.1011 54.3999L25.3478 53.5685C23.3154 51.3251 21.8447 47.7165 21.0618 43.0526C20.3871 39.0332 20.4834 28.2658 21.2185 25.546C21.5507 24.3167 22.0011 22.6176 22.2194 21.77C22.4377 20.9224 23.0222 19.2463 23.5182 18.0453C24.0143 16.8442 24.7933 14.8932 25.2493 13.7097C25.9004 12.02 26.5681 11.1353 28.359 9.58973C32.9189 5.65466 36.4642 3.51316 37.6598 3.97191C37.9587 4.0866 38.8644 3.84316 39.6724 3.43093C43.3225 1.56877 52.638 1.45853 57.831 3.21608C64.2554 5.39052 72.8057 10.5036 75.3377 13.6846C81.8587 21.8793 83.5356 30.1964 81.289 43.2005C80.1042 50.0581 79.0277 52.4272 75.5712 55.7835C73.871 57.4342 72.1755 58.6294 70.123 59.6236C62.8658 63.1391 61.5069 63.5836 56.9911 63.9185C53.0634 64.2098 52.9527 64.7038 56.2099 67.403C57.7165 68.6515 59.0969 69.6756 59.2773 69.6787C59.4578 69.6817 59.5102 69.0977 59.3939 68.3807C59.085 66.4774 60.1096 66.6515 60.6319 68.591C61.1308 70.4436 61.9462 70.3423 61.8866 68.4351C61.8584 67.5326 62.0102 67.077 62.3391 67.077C62.9416 67.077 63.569 68.2008 63.3335 68.8586C63.2394 69.1214 63.2596 69.5896 63.3783 69.8989C63.7266 70.8065 65.0951 69.858 65.0951 68.709C65.0951 67.3561 65.999 67.7907 66.1404 69.2116C66.2247 70.0586 66.0361 70.5107 65.4179 70.9436C64.4181 71.6439 64.711 72.151 65.7837 71.5769C66.6588 71.1085 67.3325 71.0546 67.3243 71.4536C67.297 72.7887 64.866 73.3609 63.5587 72.34C62.4737 71.4927 60.9979 70.9961 60.9979 71.4782C60.9979 71.8583 63.8192 74.5265 64.2211 74.5265C64.7406 74.5265 68.4407 72.5624 68.8498 72.0694C69.0884 71.7819 69.4434 71.5467 69.6388 71.5467C70.178 71.5467 74.435 68.1828 74.6696 67.5713C74.7827 67.2765 74.5242 66.7083 74.0952 66.3085C73.6496 65.8934 73.4092 65.3365 73.5346 65.0096C73.7319 64.4956 73.8187 64.4958 74.3893 65.0122C75.2424 65.7842 75.4512 65.7385 75.5917 64.7489C75.773 63.4723 76.7731 63.7492 77.2728 65.2145C77.5255 65.9556 77.7465 66.2369 77.7849 65.8664C77.8221 65.5079 77.8734 65.005 77.8991 64.7489C77.9247 64.4929 78.197 64.2833 78.5043 64.2833C78.9211 64.2833 79.0353 64.6383 78.9538 65.6802C78.8356 67.1913 79.0952 67.4301 79.8036 66.4614C80.445 65.5841 81.2348 66.151 80.7176 67.1174C80.1381 68.2002 78.613 68.6776 77.2505 68.2027C76.2206 67.8437 76.0159 67.9185 74.9083 69.0588C73.4937 70.5153 69.4151 73.3124 66.3715 74.9134C63.8849 76.2214 63.7355 76.1714 60.7107 73.0169L58.9036 71.1322L56.8249 71.9099C55.0724 72.5656 50.1167 73.3963 47.8973 73.4063C47.4759 73.4082 46.58 74.8058 45.124 77.7322C43.1706 81.6588 42.3259 82.797 41.7743 82.2455C41.6669 82.1381 42.5339 80.2318 43.7009 78.0091C46.1328 73.3774 46.0904 73.2808 42.0807 74.3199L39.8444 74.8993L34.6807 69.7776C27.5203 62.6755 24.5063 59.2551 25.4087 59.2551C26.0576 59.2551 27.4986 60.2328 27.6767 60.794C27.7955 61.1684 30.6566 64.2334 34.0345 67.6049L40.1763 73.7349L41.927 73.2036C42.8898 72.9114 44.3796 72.6705 45.2374 72.6683C46.7388 72.6644 46.8506 72.5799 48.2172 70.4136C48.9982 69.1757 50.3668 67.2062 51.2583 66.037L52.8795 63.9111L48.7291 63.4495C40.6975 62.5562 36.8138 61.1717 30.0011 56.7734C28.6248 55.8849 27.3497 55.158 27.1675 55.158C26.9851 55.158 25.1717 56.6247 23.1376 58.4172C21.1036 60.2098 17.8875 62.9254 15.9907 64.452C13.257 66.6521 12.0438 67.9649 10.1391 70.7842C8.81754 72.7403 7.05227 75.0111 6.21627 75.8306C4.58173 77.4328 2.89151 80.3616 2.89151 81.5916C2.89151 82.0915 2.64711 82.3489 2.17255 82.3489C1.55823 82.3489 1.50062 82.1999 1.7767 81.3246L1.7753 81.3248ZM54.8511 71.3362C57.5887 70.5613 58.0176 70.21 57.0545 69.5312C56.6274 69.2302 55.564 68.3874 54.6912 67.6583C53.8185 66.9291 52.8933 66.3325 52.6351 66.3325C52.2731 66.3325 48.7052 71.5265 48.7052 72.0534C48.7052 72.3331 53.1695 71.812 54.8511 71.3361V71.3362ZM61.3694 62.1844C63.3991 61.7527 66.584 60.3653 66.584 59.9127C66.584 59.1656 65.7325 56.2766 65.5155 56.2875C65.3862 56.294 64.955 56.5454 64.5573 56.8462C63.5662 57.5959 61.8874 57.5324 58.3325 56.611C56.6731 56.1809 54.8677 55.9184 54.3207 56.0278C53.7736 56.1373 53.0825 56.0702 52.7849 55.8787C52.3137 55.5757 52.316 55.4832 52.8024 55.1639C53.6308 54.6201 54.9456 54.7085 55.9652 55.3766C56.4611 55.7015 57.0227 55.8711 57.2132 55.7534C57.4036 55.6357 58.84 55.8669 60.4051 56.2672C63.4531 57.0467 64.7123 56.8901 65.4116 55.6445C65.7688 55.0081 65.802 55.012 66.0296 55.7169C66.1618 56.1267 66.5084 56.9068 66.7996 57.4505C67.0908 57.9943 67.3291 58.7067 67.3291 59.0335C67.3291 59.7774 67.2822 59.7812 69.4278 58.8615C73.0626 57.3035 76.8909 53.4892 78.5228 49.8002C79.6739 47.1978 81.169 38.091 81.1901 33.5544C81.2099 29.2807 80.2961 24.7445 78.6787 21.0868C77.81 19.1227 74.9401 14.6658 73.8274 13.5532C71.1807 10.9066 61.6258 5.53039 57.0859 4.13298C51.9338 2.54734 43.9301 2.78707 39.6731 4.65451C38.5974 5.12641 37.0487 5.63521 36.2314 5.78518C34.7214 6.06231 32.5624 7.4487 29.0776 10.3788C27.3088 11.8659 26.9982 12.3794 25.4621 16.3547C21.9072 25.5548 21.3891 28.0741 21.6167 35.0566C21.8674 42.7471 22.5917 46.587 24.4957 50.3188C25.3026 51.9004 27.0101 53.6679 27.731 53.6679C27.979 53.6679 28.3159 53.8889 28.4797 54.1591C29.6533 56.0942 39.7287 61.1175 42.4368 61.1175C42.9345 61.1175 43.5008 61.2727 43.6955 61.4624C44.0123 61.7713 48.6514 62.3946 53.175 62.7362C55.3413 62.8998 59.239 62.6372 61.3696 62.1841L61.3694 62.1844ZM43.3534 60.559C43.2247 60.2236 43.3508 60.0003 43.6694 60.0003C43.9611 60.0003 45.1291 59.093 46.265 57.984C47.4009 56.875 48.3303 56.1387 48.3303 56.3479C48.3303 56.7593 44.2016 61.1113 43.8073 61.1153C43.6756 61.1168 43.4713 60.8663 43.3534 60.559ZM50.1193 59.025C50.3501 58.591 50.4544 58.1514 50.3511 58.048C50.2477 57.9447 50.505 57.7707 50.9229 57.6614C51.942 57.3949 51.8704 57.762 50.6847 58.8829C49.819 59.7013 49.7504 59.7185 50.1193 59.025ZM65.6293 52.4186C65.4363 51.9792 64.9013 51.5661 64.4404 51.5006C63.7842 51.4074 63.5959 51.5691 63.5729 52.2456C63.5567 52.7208 63.459 52.9001 63.3556 52.644C63.1275 52.0785 62.1124 52.0205 62.1124 52.5728C62.1124 52.7898 61.9448 52.8637 61.7399 52.7371C60.9218 52.2315 61.3692 51.5371 62.3917 51.7255L63.416 51.9143L62.6751 51.022C62.2675 50.5313 61.8944 50.064 61.846 49.9836C61.7976 49.9031 61.5174 50.037 61.2234 50.281C60.9197 50.533 60.598 50.5776 60.4785 50.3843C60.2082 49.947 58.4158 50.1388 57.8938 50.6608C57.3288 51.2259 56.8977 51.1573 56.8977 50.5022C56.8977 49.8613 56.3128 49.7557 55.9564 50.3323C55.8243 50.5461 55.9401 50.9921 56.2138 51.3233C56.662 51.8657 56.6328 51.8766 55.92 51.4327C54.9083 50.8028 54.8414 49.1985 55.8269 49.1985C56.211 49.1985 56.5252 49.0408 56.5252 48.848C56.5252 48.1153 55.8318 48.1196 54.8929 48.8582C53.8034 49.7151 53.7552 49.582 54.4766 47.7086C54.7757 46.9318 54.9901 46.6847 55.007 47.0972C55.03 47.6604 55.2232 47.7422 56.0438 47.5363C56.5985 47.3971 57.4784 46.852 57.9993 46.3252C58.5202 45.7983 59.6168 45.0596 60.4362 44.6837C62.0262 43.9544 64.9258 43.7216 64.5345 44.3548C64.4085 44.5588 64.7338 44.9209 65.2575 45.1595C65.96 45.4796 66.2097 45.8765 66.2097 46.673C66.2097 47.2667 66.0578 47.6587 65.8722 47.544C65.6866 47.4293 65.6181 47.0165 65.72 46.6267C65.9095 45.9021 64.7168 45.2015 64.0234 45.63C63.8416 45.7423 63.177 45.5769 62.5463 45.2623C61.5043 44.7425 61.3135 44.747 60.4525 45.3111C59.4821 45.9469 59.2558 46.4331 59.8276 46.6532C60.005 46.7215 60.0168 47.1126 59.8538 47.5223C59.5729 48.2285 59.5561 48.2237 59.5313 47.4292C59.5134 46.8569 59.2758 46.5911 58.7821 46.5911C56.8456 46.5911 57.9537 48.4038 59.9754 48.5432C61.1959 48.6273 61.2949 48.6998 60.7422 49.1054C60.1749 49.5217 60.1716 49.5709 60.711 49.5709C61.0428 49.5709 61.5764 49.3088 61.8968 48.9885C62.4251 48.4601 62.5184 48.4918 62.9 49.3294C63.1314 49.8372 63.5936 50.3318 63.9271 50.4283C64.2607 50.5249 64.8185 50.7214 65.1667 50.865C65.6473 51.0633 65.9252 50.8265 66.3195 49.883C66.6054 49.1992 67.0977 48.4254 67.4136 48.1635C67.8769 47.7793 67.9199 47.3838 67.636 46.1203C67.2117 44.232 66.4659 43.3339 65.1463 43.1223C64.6044 43.0354 64.7896 43.0102 65.5578 43.0662C66.3261 43.1222 66.9546 43.0241 66.9546 42.8481C66.9546 42.6722 67.5136 42.8977 68.1969 43.3492C69.2375 44.0368 69.3494 44.2364 68.8863 44.5783C68.4817 44.8768 68.3513 45.64 68.4003 47.4207C68.4509 49.2612 68.334 49.9062 67.9212 50.0646C67.6209 50.1798 67.3076 50.074 67.2249 49.8294C67.1423 49.5849 66.7975 49.9188 66.4587 50.5715C65.9173 51.6144 65.9089 51.8243 66.3891 52.3046C66.8176 52.7331 66.8324 52.8905 66.4578 53.0343C66.1951 53.1351 65.8223 52.8581 65.6293 52.4186ZM57.6427 48.0812C57.6427 47.8763 57.4751 47.7087 57.2702 47.7087C57.0654 47.7087 56.8977 47.8763 56.8977 48.0812C56.8977 48.286 57.0654 48.4537 57.2702 48.4537C57.4751 48.4537 57.6427 48.286 57.6427 48.0812ZM59.6914 51.8059C59.5648 51.6011 59.7324 51.4335 60.0639 51.4335C60.3953 51.4335 60.563 51.6011 60.4363 51.8059C60.3097 52.0108 60.1421 52.1784 60.0639 52.1784C59.9856 52.1784 59.818 52.0108 59.6914 51.8059ZM58.0152 51.4335C58.0152 51.2286 58.1927 51.061 58.4097 51.061C58.6266 51.061 58.7005 51.2286 58.5739 51.4335C58.4473 51.6383 58.2698 51.8059 58.1794 51.8059C58.0891 51.8059 58.0152 51.6383 58.0152 51.4335ZM53.5454 50.3277C53.5454 50.1293 53.7969 50.0634 54.1042 50.1813C54.4114 50.2993 54.6629 50.4616 54.6629 50.5421C54.6629 50.6226 54.4114 50.6885 54.1042 50.6885C53.7969 50.6885 53.5454 50.5261 53.5454 50.3277ZM63.8586 49.7625C63.2476 49.3157 63.2713 49.2796 64.1418 49.3299C65.0701 49.3836 65.3754 49.7245 64.8087 50.0748C64.6528 50.1711 64.2253 50.0306 63.8586 49.7625ZM39.4022 48.4642C39.4022 48.2658 39.6537 48.1999 39.961 48.3179C40.2683 48.4358 40.5197 48.5981 40.5197 48.6786C40.5197 48.7592 40.2683 48.825 39.961 48.825C39.6537 48.825 39.4022 48.6627 39.4022 48.4642ZM63.613 47.7162C63.613 47.5544 63.9482 47.3343 64.3579 47.2272C64.7677 47.1201 65.1029 47.1648 65.1029 47.3266C65.1029 47.4883 64.7677 47.7084 64.3579 47.8155C63.9482 47.9227 63.613 47.878 63.613 47.7162ZM55.791 44.7747C55.791 44.3392 55.6286 43.9828 55.4302 43.9828C55.2317 43.9828 55.1667 43.7293 55.2856 43.4194C55.4045 43.1095 55.3073 42.6216 55.0696 42.3351C54.8319 42.0487 54.7712 41.7377 54.9348 41.644C55.7869 41.1562 59.2107 40.6017 59.9404 40.8333L60.7808 41.1001L59.8689 41.8204C59.3673 42.2165 58.2446 43.2215 57.374 44.0535C55.9859 45.3802 55.791 45.469 55.791 44.7747ZM56.3497 43.6104C56.4763 43.4056 56.4024 43.2379 56.1854 43.2379C55.9685 43.2379 55.791 43.4056 55.791 43.6104C55.791 43.8153 55.8649 43.9829 55.9552 43.9829C56.0455 43.9829 56.2231 43.8153 56.3497 43.6104ZM57.6534 44.5815C57.6534 44.5009 57.9135 44.3353 58.2314 44.2133C58.5629 44.0861 58.7124 44.1485 58.5819 44.3596C58.3632 44.7136 57.6534 44.8831 57.6534 44.5815ZM60.5469 42.0577C60.7633 41.8413 61.1603 41.7375 61.429 41.8271C61.708 41.92 61.5391 42.0889 61.0355 42.2206C60.4159 42.3826 60.2705 42.3341 60.5469 42.0577ZM62.7026 40.9097C62.7141 40.0391 62.5465 39.0217 62.3302 38.6489C61.7954 37.7273 59.1331 36.55 57.8131 36.6516C56.5726 36.7469 55.6711 38.1019 55.9782 39.4101C56.1258 40.039 56.0371 40.1862 55.6092 40.022C54.925 39.7595 54.9243 39.8952 55.6186 38.2334C55.9336 37.4796 56.2893 36.1602 56.409 35.3012C56.5288 34.4423 56.7739 33.3515 56.9538 32.8772C57.1527 32.353 57.1349 31.7417 56.9084 31.3186C56.3111 30.2025 56.4769 30.0191 57.2634 30.9259C57.6635 31.3872 58.2046 31.6935 58.4659 31.6064C58.7271 31.5193 59.2738 31.7582 59.6808 32.1374C60.0878 32.5165 60.6254 32.7481 60.8756 32.6521C61.4655 32.4258 63.2404 33.8215 63.2404 34.5116C63.2404 34.804 63.0728 35.0433 62.868 35.0433C62.6631 35.0433 62.4955 34.8322 62.4955 34.5742C62.4955 33.9473 61.103 33.075 60.9301 33.5935C60.8586 33.808 60.3659 33.6366 59.8205 33.2076C59.2809 32.7832 58.6936 32.4359 58.5154 32.4359C57.8604 32.4359 57.0583 33.791 57.0762 34.8672C57.0933 35.8953 57.2144 35.9899 58.7708 36.1914C61.355 36.5258 62.0245 36.8768 62.6691 38.2352C63.6288 40.2577 66.77 40.7865 68.5483 39.225C68.9068 38.9102 69.2133 38.3852 69.2295 38.0585C69.2501 37.6418 69.3172 37.6099 69.454 37.9515C69.5612 38.2194 69.4029 38.7223 69.1021 39.0689C68.8013 39.4156 68.4439 40.1674 68.3078 40.7397C68.012 41.9836 66.6717 42.6249 65.9261 41.8794C65.2242 41.1775 63.2405 41.218 63.2405 41.9342C63.2405 42.2415 63.1148 42.4928 62.9611 42.4927C62.8075 42.4926 62.6911 41.7802 62.7026 40.9097ZM33.4426 40.981C33.4426 40.764 33.6102 40.6901 33.8151 40.8167C34.02 40.9434 34.1876 41.1209 34.1876 41.2112C34.1876 41.3015 34.02 41.3755 33.8151 41.3755C33.6102 41.3755 33.4426 41.1979 33.4426 40.981ZM66.2499 35.571C66.2678 35.1371 66.3561 35.0488 66.475 35.346C66.5826 35.6148 66.5693 35.9361 66.4456 36.0599C66.3218 36.1836 66.2338 35.9636 66.2499 35.571ZM68.3436 34.5956C68.0824 32.6488 68.216 32.4694 69.0167 33.6913C69.5646 34.5275 69.574 34.7294 69.0969 35.4105C68.5822 36.1454 68.5462 36.1066 68.3436 34.5956ZM67.1735 32.3273C67.2832 32.0414 67.0299 30.937 66.6106 29.873C65.6228 27.3671 65.6404 26.6919 66.6505 28.3387C67.5216 29.7588 67.9241 32.2599 67.3397 32.6211C67.1386 32.7454 67.0638 32.6132 67.1735 32.3273ZM48.4445 30.7121C48.1884 30.6026 47.9789 30.3388 47.9789 30.1259C47.9789 29.8922 48.2002 29.9226 48.5376 30.2026C48.9361 30.5333 49.2329 30.5529 49.5728 30.2707C49.835 30.0532 50.5709 29.8901 51.2083 29.9082C51.8457 29.9263 52.95 29.5809 53.6624 29.1406C55.5382 27.9814 55.8241 28.1583 54.105 29.4144C52.6744 30.4597 49.5364 31.1791 48.4445 30.7121ZM44.254 29.5374C44.254 29.3765 44.5893 29.2448 44.999 29.2448C45.4087 29.2448 45.7439 29.3765 45.7439 29.5374C45.7439 29.6984 45.4087 29.8301 44.999 29.8301C44.5893 29.8301 44.254 29.6984 44.254 29.5374ZM70.3573 28.8679C70.3752 28.4339 70.4634 28.3457 70.5823 28.6428C70.6899 28.9117 70.6767 29.233 70.5529 29.3567C70.4291 29.4805 70.3411 29.2605 70.3573 28.8679ZM46.76 26.7773C45.3506 26.0252 45.4831 26.0165 48.9133 26.6359L51.5207 27.1066L49.7399 27.2619C48.5212 27.3681 47.5805 27.2151 46.76 26.7773ZM70.1841 27.007C69.8455 26.1246 69.9014 25.8436 70.5433 25.2016C71.3115 24.4335 71.667 24.463 72.5739 25.3698C73.1724 25.9683 73.2463 26.2748 72.9333 26.8597C72.4475 27.7673 70.5156 27.8708 70.1841 27.007ZM66.7457 26.391C66.3523 25.2312 66.5265 24.6171 67.4732 23.8265C68.4468 23.0135 69.5666 22.8296 68.774 23.6129C68.5032 23.8804 67.9884 24.2104 67.6299 24.3462C66.8893 24.6266 66.7318 26.3346 67.4253 26.5658C67.7511 26.6744 67.7584 26.7854 67.4521 26.9747C67.2055 27.1271 66.9135 26.8857 66.7457 26.391ZM54.2238 25.7358C55.8406 24.75 56.9646 22.8717 56.6612 21.6627C56.5321 21.1484 56.0349 20.3053 55.5562 19.789C55.0776 19.2729 54.686 18.7119 54.686 18.5425C54.686 18.3731 54.2336 17.6171 53.6806 16.8626L52.6752 15.4906L53.96 16.6678C54.6666 17.3152 56.2322 18.4345 57.439 19.1553L59.6332 20.4657L58.277 20.7201C56.1118 21.1263 56.7612 22.0891 58.9931 21.7816C60.0376 21.6377 60.0281 21.6551 58.7833 22.1685C57.5848 22.6627 57.5455 22.7261 58.2968 22.9543C58.9413 23.15 59.02 23.3034 58.6693 23.6797C58.4247 23.9421 57.8512 24.1161 57.3951 24.0663C56.8512 24.0069 56.4867 24.224 56.3367 24.6966C56.2109 25.0931 56.017 25.3265 55.9058 25.2154C55.7947 25.1042 55.2845 25.343 54.7722 25.746C54.2598 26.149 53.6537 26.4781 53.4252 26.4774C53.1968 26.4766 53.5561 26.1428 54.2238 25.7358ZM58.9695 25.7338C58.5987 25.324 58.4486 24.9888 58.6359 24.9888C58.8233 24.9888 59.1859 25.324 59.4418 25.7338C59.6977 26.1435 59.8477 26.4787 59.7753 26.4787C59.7029 26.4787 59.3403 26.1435 58.9695 25.7338ZM49.4713 25.0005C49.4713 24.8021 49.7227 24.7362 50.03 24.8541C50.3373 24.972 50.5887 25.1344 50.5887 25.2149C50.5887 25.2954 50.3373 25.3613 50.03 25.3613C49.7227 25.3613 49.4713 25.1989 49.4713 25.0005ZM59.0625 24.3696C59.3186 24.2663 59.7376 24.2663 59.9937 24.3696C60.2498 24.473 60.0403 24.5575 59.5281 24.5575C59.016 24.5575 58.8065 24.473 59.0625 24.3696ZM65.1308 23.8423C65.7059 22.7677 65.401 22.2172 63.7015 21.2621C62.8008 20.7558 61.9937 19.9142 61.6105 19.0815L60.9863 17.7254L62.1157 19.0291C62.7368 19.7461 63.4349 20.5571 63.6669 20.8313C64.1786 21.4359 66.1248 21.141 68.1817 20.1472C68.9536 19.7743 69.5851 19.6117 69.5851 19.7858C69.5851 19.96 69.4175 20.2061 69.2126 20.3327C68.4812 20.7848 68.8616 21.1131 70.2229 21.2048C72.532 21.3603 72.0975 21.6364 69.5437 21.6364C66.9651 21.6364 65.8604 22.308 65.8604 23.8755C65.8604 24.2931 65.611 24.6162 65.2886 24.6162C64.825 24.6162 64.7952 24.4696 65.131 23.8421L65.1308 23.8423ZM47.8664 22.8333C47.1158 22.0039 47.4207 20.6289 48.4259 20.3098C49.2173 20.0587 50.5882 21.197 50.5882 22.1052C50.5882 23.4568 48.8511 23.9215 47.8664 22.8333ZM71.6357 23.1307C71.5052 22.9196 71.6548 22.8571 71.9862 22.9843C72.6315 23.2319 72.7496 23.4989 72.2138 23.4989C72.021 23.4989 71.7609 23.3332 71.6357 23.1307ZM45.2484 20.9598C45.5083 19.9652 46.9886 18.8682 47.6903 19.15C48.0006 19.2747 47.9491 19.3522 47.543 19.3713C47.1993 19.3875 46.4917 19.9454 45.9706 20.6112C45.1702 21.6338 45.0581 21.6879 45.2484 20.9598ZM52.8421 18.8615C51.8304 17.7845 49.9207 16.8222 48.5743 16.7107C47.5034 16.6221 47.2295 16.0462 48.261 16.052C49.2618 16.0576 52.5513 17.7083 53.3492 18.6052C54.3502 19.7305 53.8812 19.9676 52.8421 18.8615ZM62.8807 17.7465C62.8807 17.4513 63.0327 17.1159 63.2184 17.0011C63.4042 16.8863 63.4684 17.1278 63.3612 17.5378C63.1338 18.4075 62.8807 18.5175 62.8807 17.7465ZM58.4098 15.1172C58.1425 14.7952 58.1063 14.5585 58.3243 14.5585C58.5324 14.5585 58.799 14.8099 58.917 15.1172C59.0349 15.4245 59.0733 15.6759 59.0024 15.6759C58.9315 15.6759 58.6648 15.4245 58.4098 15.1172ZM60.4405 14.6516C60.2585 13.7979 59.2727 11.0011 57.8477 7.29523C57.5612 6.55028 57.5612 6.55028 58.303 7.29523C59.2779 8.27443 60.5434 11.6847 60.7562 13.9067C60.9433 15.8599 60.7801 16.2448 60.4405 14.6516ZM65.0983 15.1026C65.7916 14.1693 67.0677 13.0876 67.488 13.0768C67.9708 13.0645 67.0168 14.1085 65.7062 15.0269C64.6569 15.7621 64.6034 15.7688 65.0983 15.1026ZM56.5233 12.4167C56.2141 12.0582 55.5483 11.4643 55.0437 11.0968C54.1615 10.4544 54.174 10.4544 55.3698 11.0968C56.3652 11.6316 57.7004 13.0686 57.202 13.0686C57.1379 13.0686 56.8325 12.7752 56.5233 12.4167ZM63.8379 12.2795C63.9933 12.0281 65.4868 12.2722 65.4868 12.5491C65.4868 12.6253 65.0799 12.654 64.5825 12.6129C64.0851 12.5717 63.75 12.4217 63.8379 12.2795ZM62.7172 11.8419C62.8571 11.4746 63.0653 11.2679 63.18 11.3825C63.2947 11.4972 63.18 11.7978 62.9257 12.0504C62.5578 12.4156 62.5151 12.3728 62.7172 11.8419ZM62.1345 9.17954C62.1345 8.88434 62.2865 8.54887 62.4723 8.43407C62.658 8.31926 62.7223 8.56079 62.6151 8.9708C62.3876 9.84053 62.1345 9.95047 62.1345 9.17954ZM46.3359 7.98745C46.1316 7.45517 46.1867 7.44153 46.7616 7.88205C47.1248 8.16036 47.4918 8.43548 47.5772 8.49346C47.6625 8.55143 47.4709 8.59886 47.1514 8.59886C46.8319 8.59886 46.4649 8.32372 46.3359 7.98745ZM61.3954 8.15524C61.3923 7.80882 61.5573 7.4218 61.7622 7.29519C62.2336 7.00384 62.2336 7.49693 61.7622 8.22638C61.451 8.70788 61.4003 8.69804 61.3954 8.15524ZM46.483 6.73701C46.483 6.53215 46.6605 6.36453 46.8775 6.36453C47.0944 6.36453 47.1683 6.53215 47.0417 6.73701C46.9151 6.94186 46.7376 7.10948 46.6473 7.10948C46.5569 7.10948 46.483 6.94186 46.483 6.73701Z" fill="#333333"/>
<path d="M1.77196 81.824C1.77196 80.2612 3.50304 76.9955 5.19824 75.3605C6.2042 74.3902 7.92447 72.2554 9.02092 70.6166C11.6384 66.7045 12.1955 66.1008 15.8574 63.208C17.561 61.8623 20.6237 59.2918 22.6636 57.4956C25.5037 54.9948 26.2566 54.1424 25.8783 53.8563C24.9596 53.1613 23.0991 50.1406 22.4965 48.3653C20.4224 42.2553 19.7786 31.5186 21.17 26.2463C21.5958 24.6327 22.0401 22.8934 22.1572 22.3813C22.43 21.1881 25.4427 13.3568 26.1697 11.9509C26.474 11.3624 27.9392 9.93919 29.4258 8.78819C30.9124 7.63719 32.4458 6.4348 32.8334 6.11607C33.9648 5.18575 37.2051 3.79924 37.7549 4.01022C38.0324 4.11668 38.9752 3.86188 39.85 3.44399C43.8583 1.52931 52.4059 1.53022 58.132 3.44578C62.7587 4.99327 70.5668 9.34905 73.8605 12.2206C76.2664 14.3176 79.3936 19.7012 80.9527 24.4301C82.2972 28.508 82.6057 35.3134 81.6827 40.5367C79.8959 50.6511 79.4766 51.6607 75.3805 55.7162C72.5399 58.5283 72.0579 58.8403 67.4748 60.8319C61.9189 63.2463 60.2592 63.7043 57.0175 63.7171C55.4045 63.7234 54.536 63.9062 54.1141 64.3281C53.783 64.6592 53.5615 65.0594 53.6219 65.2174C53.7652 65.5926 59.2448 70.0573 59.5627 70.0578C59.6969 70.0581 59.7167 69.3878 59.6068 68.5684C59.4756 67.5902 59.5517 67.0785 59.8285 67.0785C60.0603 67.0785 60.25 67.322 60.25 67.6197C60.25 68.5208 61.0845 70.0583 61.5736 70.0583C62.2137 70.0583 62.5291 69.0604 62.2457 67.9315C62.0667 67.218 62.1363 67.0239 62.5254 67.152C62.8303 67.2524 63.0907 67.9624 63.1581 68.8768C63.2693 70.3853 63.6652 70.7364 64.589 70.1458C64.8245 69.9953 65.0759 69.4531 65.1478 68.9409C65.3202 67.7118 65.9928 67.7458 66.1371 68.9908C66.2178 69.6877 65.9714 70.1917 65.2865 70.7304C64.1259 71.6433 64.712 72.2501 66.0583 71.5296C67.1142 70.9645 67.6323 71.2904 66.962 72.098C66.368 72.8138 64.0381 72.8377 63.2591 72.136C62.9357 71.8447 62.1682 71.4816 61.5536 71.3293C60.4935 71.0664 60.4648 71.0888 60.9949 71.7658C62.0186 73.0734 63.7816 74.5163 64.3472 74.5095C65.6123 74.4943 71.6802 70.7843 73.9914 68.6128L75.2549 67.4257L74.457 66.5763C74.0181 66.1091 73.659 65.5282 73.659 65.2853C73.659 64.6527 74.3874 64.7395 74.6417 65.4024C74.9789 66.2809 75.9905 66.1075 75.7087 65.2195C75.5792 64.8116 75.5829 64.3006 75.7167 64.084C76.1326 63.4112 77.0113 64.4635 77.0113 65.6342C77.0113 66.2237 77.1609 66.706 77.3439 66.706C77.7474 66.706 78.1287 65.7863 78.1287 64.8132C78.1287 64.4202 78.3139 64.0987 78.5403 64.0987C78.7959 64.0987 78.898 64.6635 78.8098 65.5886C78.7096 66.6398 78.8113 67.0785 79.1549 67.0785C79.4228 67.0785 79.7385 66.8271 79.8564 66.5198C80.1229 65.8252 80.736 65.785 80.736 66.462C80.736 67.8482 77.7601 68.7957 76.7086 67.7442C76.3547 67.3903 76.021 67.5788 75.1671 68.6147C73.9853 70.0485 69.0533 73.4876 65.9532 75.0396L64.0209 76.007L61.448 73.4896L58.8752 70.9722L56.7079 71.8117C55.5159 72.2734 52.9503 72.8139 51.0067 73.0127C49.0631 73.2116 47.3461 73.5081 47.1912 73.6717C47.0362 73.8353 45.9439 75.8549 44.7637 78.1596C43.5835 80.4643 42.4 82.35 42.1337 82.35C41.5419 82.35 41.7946 81.5851 43.0532 79.5658C43.8968 78.2123 45.7234 74.3768 45.7234 73.9587C45.7234 73.5963 43.5579 73.8026 41.7612 74.3362L39.8987 74.8893L34.8336 69.7733C29.2491 64.1329 25.2373 59.9436 25.2373 59.7526C25.2373 59.6846 25.5463 59.6289 25.9239 59.6289C26.3016 59.6289 27.3444 60.5089 28.2414 61.5844C30.7604 64.605 33.688 67.6302 37.1798 70.8214L40.3691 73.7361L41.8358 73.3493C42.6424 73.1366 44.1274 72.8538 45.1355 72.721C46.7662 72.506 47.1027 72.2943 48.1838 70.8032C48.8521 69.8813 49.41 68.9886 49.4236 68.8194C49.4372 68.6502 50.2203 67.5086 51.1638 66.2824C52.1073 65.0562 52.7872 63.9611 52.6748 63.8487C52.5624 63.7363 51.4133 63.5677 50.1213 63.4742C46.9498 63.2446 41.2086 62.2853 40.7188 61.9032C40.5009 61.7331 39.8318 61.4764 39.232 61.3326C37.4252 60.8997 33.5113 58.9396 30.2411 56.8299L27.1569 54.8403L25.7565 56.0241C24.9863 56.6751 23.9258 57.6035 23.4 58.0872C22.0817 59.2996 18.0737 62.6789 14.0033 66.01C13.0942 66.754 11.3588 68.8492 10.1466 70.6659C8.93463 72.4827 7.25301 74.5872 6.40965 75.3424C5.04043 76.5687 2.51601 80.8398 2.51601 81.93C2.51601 82.1609 2.34839 82.3499 2.14354 82.3499C1.93868 82.3499 1.77106 82.1134 1.77106 81.8243L1.77196 81.824ZM55.3808 71.2736C56.4922 70.9122 57.4473 70.449 57.5031 70.2441C57.6312 69.774 53.744 66.5564 52.8727 66.4112C52.2625 66.3096 50.0096 69.0759 48.7185 71.5121L48.2438 72.4078L50.802 72.1692C52.2089 72.038 54.2694 71.635 55.3808 71.2736ZM61.4661 62.2407C64.232 61.5437 65.5192 61.0454 66.4515 60.3102C66.7682 60.0605 66.7048 59.3985 66.2063 57.7523C65.8365 56.5307 65.5981 55.5312 65.6766 55.5312C65.8838 55.5312 67.3279 58.7708 67.3279 59.2356C67.3279 59.8282 67.7345 59.7285 70.211 58.5289C73.1778 57.0917 76.9564 53.3427 78.2994 50.5039C79.5345 47.8932 81.4821 37.3323 81.4821 33.2451C81.4821 29.7435 80.0184 23.6892 78.3487 20.284C75.2975 14.0621 71.818 10.9468 63.0447 6.58159C56.103 3.12757 50.3802 2.09214 44.4118 3.21043C42.6109 3.54788 40.8706 3.97227 40.5444 4.1535C39.2527 4.87124 37.0199 5.61928 36.1692 5.61928C35.1172 5.61928 30.12 9.03312 28.1672 11.0859C26.4779 12.8617 23.7821 19.5467 22.1857 25.9191C21.1546 30.0347 21.0823 30.743 21.2728 34.8585C21.514 40.0693 22.6256 46.5756 23.6694 48.8846C24.6289 51.0078 26.6049 53.668 27.2225 53.668C27.4916 53.668 28.2504 54.1489 28.9088 54.7366C29.5671 55.3244 31.5554 56.6234 33.3274 57.6234C38.0209 60.2721 41.8521 61.54 43.3847 60.9519C43.9355 60.7405 43.9491 60.6552 43.4796 60.3583C43.0211 60.0683 43.0393 60.0106 43.5915 60.0059C43.9546 60.0029 45.0022 59.3084 45.9196 58.4628C46.8369 57.6172 47.5874 57.0932 47.5874 57.2982C47.5874 57.5032 46.6655 58.4751 45.5388 59.458C44.412 60.4409 43.4902 61.3683 43.4902 61.5188C43.4902 61.812 45.7001 62.1701 50.1947 62.6053C55.2877 63.0984 58.4694 62.9952 61.4668 62.2399L61.4661 62.2407ZM50.7528 58.1386C50.8794 57.9337 51.0569 57.7661 51.1473 57.7661C51.2376 57.7661 51.3115 57.9337 51.3115 58.1386C51.3115 58.3435 51.134 58.5111 50.9171 58.5111C50.7001 58.5111 50.6262 58.3435 50.7528 58.1386ZM59.8785 56.9574C59.1615 56.7594 58.0723 56.5 57.4581 56.381C56.5111 56.1974 56.4517 56.1258 57.0668 55.91C57.4658 55.7701 58.8064 55.9747 60.0459 56.3647C61.4025 56.7916 62.8185 56.9935 63.6033 56.8718C64.5134 56.7307 64.7383 56.7773 64.3482 57.026C63.657 57.4667 61.6093 57.4352 59.8785 56.9574ZM52.8667 55.3063C53.2936 54.8794 53.7935 54.7813 54.6184 54.9625C56.5436 55.3854 56.3317 55.9037 54.2335 55.9037C52.4311 55.9037 52.3185 55.8545 52.8667 55.3063ZM62.6881 51.0873C62.3709 50.5741 62.9851 50.322 63.9426 50.5725C64.5736 50.7375 64.6596 50.8711 64.2866 51.1075C63.6289 51.5244 62.953 51.5159 62.6881 51.0873ZM56.8988 50.4725C56.8988 50.0474 56.6759 49.9155 56.1779 50.0457C55.7611 50.1547 55.3732 50.0159 55.2584 49.7167C55.1303 49.383 55.3202 49.1992 55.793 49.1992C56.1963 49.1992 56.5263 49.0315 56.5263 48.8267C56.5263 48.6218 56.7777 48.4542 57.085 48.4542C57.3923 48.4542 57.6437 48.2965 57.6437 48.1038C57.6437 47.9111 58.0926 47.9863 58.6413 48.271C59.19 48.5557 59.7576 48.7152 59.9027 48.6256C60.0477 48.5359 60.2507 48.7851 60.3538 49.1792C60.5857 50.0658 62.1105 49.8042 62.1192 48.8764C62.1241 48.3506 62.1726 48.3434 62.4762 48.8236C62.9952 49.6446 62.432 49.9815 60.3954 50.0681C59.3942 50.1106 58.1978 50.3574 57.7369 50.6166C57.0159 51.022 56.8988 51.0018 56.8988 50.4725ZM53.5465 50.3283C53.5465 50.1298 53.7979 50.064 54.1052 50.1819C54.4125 50.2998 54.6639 50.4622 54.6639 50.5427C54.6639 50.6232 54.4125 50.6891 54.1052 50.6891C53.7979 50.6891 53.5465 50.5267 53.5465 50.3283ZM66.211 50.0018C66.211 49.7652 66.3786 49.5716 66.5835 49.5716C66.7883 49.5716 66.956 49.3407 66.956 49.0585C66.956 48.7763 67.1878 48.353 67.4712 48.1178C67.87 47.7869 68.0383 47.8255 68.2161 48.2889C68.531 49.1096 68.5107 49.1992 68.0096 49.1992C67.7697 49.1992 67.2668 49.4766 66.8922 49.8156C66.4846 50.1844 66.211 50.2592 66.211 50.0018ZM54.3863 48.0901C54.6603 47.3644 54.8999 47.1382 55.0822 47.4331C55.2993 47.7845 55.629 47.7846 56.5876 47.4339C57.695 47.0286 57.7442 47.0382 57.0918 47.5322C56.6942 47.8333 56.0836 48.0797 55.735 48.0797C55.3863 48.0797 55.0046 48.3311 54.8867 48.6384C54.7687 48.9457 54.5139 49.1971 54.3204 49.1971C54.1145 49.1971 54.1418 48.7383 54.3864 48.0903L54.3863 48.0901ZM64.2634 47.4526C64.5323 47.345 64.8535 47.3582 64.9773 47.482C65.1011 47.6058 64.8811 47.6938 64.4884 47.6776C64.0545 47.6598 63.9663 47.5715 64.2634 47.4526ZM67.8644 46.869C67.7708 46.6129 67.6426 46.0426 67.5794 45.6016C67.5163 45.1607 67.2365 44.525 66.9577 44.1891C66.6061 43.7655 66.5697 43.4593 66.8388 43.1901C67.1079 42.921 67.393 43.0393 67.769 43.576C68.0672 44.0017 68.4445 44.2254 68.6075 44.073C68.7705 43.9207 68.7095 44.1697 68.472 44.6265C68.2344 45.0832 68.146 45.8793 68.2756 46.3957C68.5138 47.3445 68.1791 47.7297 67.8644 46.869ZM58.1874 46.1368C58.5971 45.9002 59.1538 45.4863 59.4245 45.217C59.9969 44.6475 60.6085 44.574 60.6085 45.0746C60.6085 45.2657 60.2733 45.5284 59.8635 45.6584C59.4538 45.7885 59.1186 46.0512 59.1186 46.2423C59.1186 46.4333 58.7414 46.5845 58.2805 46.5783C57.4646 46.5673 57.4622 46.5556 58.1874 46.1368ZM65.0782 45.8311C64.5661 45.6623 63.4185 45.3127 62.5279 45.0542C61.1217 44.646 61.0132 44.5455 61.7028 44.2904C62.526 43.9859 66.1956 45.3124 66.1956 45.9145C66.1956 46.0809 66.1537 46.1993 66.1025 46.1775C66.0513 46.1557 65.5904 45.9998 65.0782 45.8311ZM55.9061 44.5961C55.9539 44.2703 56.1096 43.8872 56.2521 43.7447C56.7136 43.2832 56.5266 42.8823 55.9525 43.1026C55.6452 43.2205 55.3687 43.1315 55.3379 42.9047C55.1903 41.8154 55.2356 41.5592 55.58 41.5352C55.7849 41.521 56.6731 41.3028 57.5538 41.0503C58.4345 40.7979 59.4967 40.6998 59.9142 40.8323C60.6558 41.0676 60.6532 41.0864 59.8028 41.651C59.324 41.9688 58.7586 42.4138 58.5464 42.6399C57.0755 44.2066 55.8276 45.1312 55.9061 44.5961ZM65.3808 42.9828C65.6497 42.8752 65.9709 42.8885 66.0947 43.0122C66.2185 43.136 65.9985 43.224 65.6058 43.2079C65.1719 43.19 65.0837 43.1017 65.3808 42.9828ZM62.9101 40.7078C62.9412 39.8287 63.0772 39.2884 63.2124 39.5071C63.3476 39.7258 64.3281 40.0078 65.3913 40.1337C66.9385 40.3169 67.4697 40.2311 68.0523 39.7039C68.7708 39.0536 68.7728 39.0641 68.2017 40.518C67.594 42.065 67.056 42.2548 65.5706 41.4465C64.735 40.9918 63.61 41.2036 63.1277 41.9065C62.9769 42.1263 62.8789 41.5869 62.91 40.7077L62.9101 40.7078ZM61.8606 37.8364C61.7427 37.5292 61.4226 37.2777 61.1493 37.2777C60.876 37.2777 60.5488 37.1101 60.4222 36.9052C59.9864 36.2001 60.9412 36.5344 61.9844 37.4522C62.5592 37.9579 62.8147 38.3769 62.5522 38.3834C62.2897 38.3899 61.9785 38.1437 61.8606 37.8364ZM56.5113 35.2717C56.5113 34.5781 56.7557 33.5394 57.0546 32.9634C57.4431 32.2144 57.4855 31.7807 57.2034 31.4408C56.8273 30.9876 58.1183 31.4686 59.9718 32.4722C60.3386 32.6708 60.7995 32.7339 60.9961 32.6125C61.1926 32.491 61.3534 32.5691 61.3534 32.7861C61.3534 33.003 61.533 33.1805 61.7525 33.1805C62.2926 33.1805 63.2158 34.1381 63.2158 34.6983C63.2158 34.9477 62.8048 34.7082 62.3024 34.1662C61.8 33.6241 61.1487 33.1806 60.855 33.1806C60.5614 33.1806 59.8568 32.9397 59.2894 32.6453C58.3357 32.1505 58.2113 32.1716 57.6432 32.9247C56.6874 34.1919 56.7268 35.7487 57.7249 36.1499C58.5253 36.4718 58.5175 36.4866 57.5355 36.5093C56.6151 36.5305 56.5113 36.4049 56.5113 35.2717ZM68.4186 34.2765C67.8551 33.2237 68.1553 33.0045 68.9532 33.8862C69.3495 34.3241 69.451 34.6861 69.2179 34.8301C69.01 34.9587 68.6503 34.7095 68.4186 34.2765ZM49.5661 30.4066C50.1508 30.0905 50.772 29.9201 50.9465 30.028C51.121 30.1358 51.8783 29.9673 52.6294 29.6535C54.4498 28.8929 54.7075 28.9428 53.3453 29.7922C52.7307 30.1754 51.3897 30.5997 50.3655 30.7352C48.5273 30.9782 48.5168 30.974 49.5661 30.4066ZM44.4989 29.5812C44.755 29.4779 45.174 29.4779 45.4301 29.5812C45.6862 29.6845 45.4767 29.7691 44.9645 29.7691C44.4524 29.7691 44.2428 29.6845 44.4989 29.5812ZM66.2399 28.9656C65.6302 27.4319 65.7352 26.8571 66.3943 28.121C66.706 28.7186 66.8925 29.3891 66.8089 29.6108C66.7252 29.8326 66.4692 29.5423 66.2399 28.9656ZM70.3125 27.0581C69.6417 26.2499 70.4572 24.9857 71.6494 24.9857C72.3621 24.9857 72.5505 25.1337 72.3855 25.5637C72.2583 25.8952 72.3207 26.0447 72.5319 25.9142C72.9483 25.6569 73.0098 26.1287 72.674 27.0038C72.3917 27.7394 70.9063 27.7735 70.3125 27.0581ZM46.8262 26.8481C46.3876 26.5647 46.4677 26.4953 47.1986 26.5254C47.7108 26.5465 48.6327 26.6917 49.2472 26.8481C50.3236 27.122 50.31 27.1338 48.8747 27.1708C48.0553 27.1919 47.1334 27.0467 46.8262 26.8481ZM56.1228 23.9913C56.7346 23.1476 56.9101 22.5369 56.7379 21.8509C56.495 20.8829 54.4074 17.5835 53.717 17.0763C53.5121 16.9258 53.488 16.8001 53.6634 16.7969C53.8388 16.7938 54.6172 17.2941 55.3931 17.9087C56.1691 18.5232 56.921 19.0261 57.0641 19.0261C57.2072 19.0261 57.7504 19.3613 58.2712 19.771L59.2183 20.516H58.0507C56.652 20.516 56.4375 21.4784 57.7211 21.9943C58.4669 22.2941 58.4792 22.3338 57.8328 22.3548C56.9713 22.3828 57.4538 22.9644 58.5591 23.2302C59.2324 23.3922 59.2234 23.4136 58.466 23.4526C58.0051 23.4764 57.6279 23.6733 57.6279 23.8903C57.6279 24.1073 57.4498 24.1746 57.232 24.0401C57.0142 23.9055 56.4829 24.1051 56.0513 24.4837C55.3308 25.1157 55.3368 25.0754 56.1228 23.9913ZM65.0776 24.2627C65.0776 24.07 65.2433 23.8098 65.4458 23.6847C65.657 23.5542 65.7194 23.7037 65.5922 24.0352C65.3446 24.6804 65.0776 24.7985 65.0776 24.2627ZM68.0574 23.9049C68.0574 23.5181 68.7659 22.9582 68.9758 23.1791C69.0439 23.2509 68.8651 23.5257 68.5785 23.7898C68.2919 24.054 68.0574 24.1058 68.0574 23.9049ZM47.8082 22.7086C46.7408 21.1846 48.3666 19.6391 49.763 20.8502C50.73 21.6888 50.751 22.0838 49.8714 22.8798C48.9672 23.6981 48.4726 23.6571 47.8082 22.7086ZM65.0873 22.2019C64.7095 21.7467 64.8135 21.5801 65.6936 21.2306C66.2778 20.9986 67.0468 20.6592 67.4026 20.4764C68.3431 19.993 68.8044 20.0675 68.8044 20.7027C68.8044 21.01 68.553 21.2614 68.2457 21.2614C67.9384 21.2614 67.3517 21.5966 66.942 22.0064C66.0531 22.8952 65.6941 22.9331 65.0873 22.2019ZM70.2011 21.3872C70.4572 21.2839 70.8762 21.2839 71.1323 21.3872C71.3884 21.4905 71.1789 21.5751 70.6667 21.5751C70.1546 21.5751 69.9451 21.4905 70.2011 21.3872ZM45.3384 20.5531C45.3384 20.1663 46.047 19.6064 46.2568 19.8273C46.325 19.899 46.1462 20.1739 45.8596 20.438C45.5729 20.7022 45.3384 20.754 45.3384 20.5531ZM62.2112 20.0599C61.6467 19.3313 61.3083 18.2086 61.7321 18.4705C61.9347 18.5956 62.1004 18.9256 62.1004 19.2037C62.1004 19.4819 62.3099 19.7843 62.5659 19.8757C62.822 19.9672 62.9297 20.1528 62.8053 20.2882C62.6808 20.4237 62.4135 20.3209 62.2112 20.0599ZM51.1122 17.5113C50.4976 17.1177 50.1624 16.7958 50.3673 16.7961C50.5721 16.7963 51.2426 17.1296 51.8572 17.5366C52.4717 17.9436 52.807 18.2655 52.6021 18.2519C52.3972 18.2382 51.7268 17.905 51.1122 17.5113ZM65.6296 14.5922C66.3356 13.7838 67.6824 12.8684 67.6824 13.197C67.6824 13.2823 67.0538 13.822 66.2856 14.3963C65.1417 15.2515 65.0229 15.287 65.6296 14.5922ZM59.3662 10.9305C58.9919 9.95505 58.4472 8.71205 58.1556 8.1683C57.4828 6.91339 57.479 6.53614 58.146 7.2031C58.893 7.95006 60.3219 11.4105 60.1729 12.1112C60.1035 12.4373 59.7404 11.906 59.3662 10.9305Z" fill="black"/>
</svg>
