<svg width="84" height="84" viewBox="0 0 84 84" fill="none" xmlns="http://www.w3.org/2000/svg">
<path d="M80.1139 41.9955C80.1139 47.0007 79.128 51.9568 77.2126 56.581C75.2972 61.2052 72.4898 65.4068 68.9506 68.9461C65.4114 72.4853 61.2097 75.2927 56.5855 77.2081C51.9614 79.1235 47.0052 80.1094 42 80.1094C36.9948 80.1094 32.0386 79.1235 27.4144 77.2081C22.7902 75.2927 18.5886 72.4853 15.0494 68.9461C11.5102 65.4068 8.70275 61.2052 6.78735 56.581C4.87195 51.9568 3.88611 47.0007 3.88611 41.9955C3.88611 36.9903 4.87195 32.0341 6.78735 27.4099C8.70275 22.7857 11.5102 18.5841 15.0494 15.0449C18.5886 11.5057 22.7902 8.69824 27.4144 6.78284C32.0386 4.86744 36.9948 3.88159 42 3.88159C47.0052 3.88159 51.9614 4.86744 56.5855 6.78284C61.2097 8.69824 65.4114 11.5057 68.9506 15.0449C72.4898 18.5841 75.2972 22.7857 77.2126 27.4099C79.128 32.0341 80.1139 36.9903 80.1139 41.9955Z" fill="#FF8C00" stroke="#2B0000" stroke-width="1.8991"/>
<path d="M29.4948 25.8076C29.4948 27.869 29.0696 29.8459 28.3128 31.3034C27.5559 32.761 26.5295 33.5799 25.4592 33.5799C24.3889 33.5799 23.3624 32.761 22.6056 31.3034C21.8488 29.8459 21.4236 27.869 21.4236 25.8076C21.4236 23.7463 21.8488 21.7694 22.6056 20.3118C23.3624 18.8543 24.3889 18.0354 25.4592 18.0354C26.5295 18.0354 27.5559 18.8543 28.3128 20.3118C29.0696 21.7694 29.4948 23.7463 29.4948 25.8076Z" fill="#D45500"/>
<path d="M29.2954 24.9564C29.2954 26.7403 28.9332 28.4511 28.2885 29.7124C27.6438 30.9738 26.7694 31.6824 25.8576 31.6824C24.9459 31.6824 24.0715 30.9738 23.4268 29.7124C22.7821 28.4511 22.4199 26.7403 22.4199 24.9564C22.4199 23.1726 22.7821 21.4618 23.4268 20.2005C24.0715 18.9391 24.9459 18.2305 25.8576 18.2305C26.7694 18.2305 27.6438 18.9391 28.2885 20.2005C28.9332 21.4618 29.2954 23.1726 29.2954 24.9564Z" fill="black" stroke="black" stroke-width="0.633033"/>
<path d="M61.9777 25.8076C61.9777 27.869 61.5525 29.8459 60.7957 31.3034C60.0389 32.761 59.0124 33.5799 57.9421 33.5799C56.8718 33.5799 55.8453 32.761 55.0885 31.3034C54.3317 29.8459 53.9065 27.869 53.9065 25.8076C53.9065 23.7463 54.3317 21.7694 55.0885 20.3118C55.8453 18.8543 56.8718 18.0354 57.9421 18.0354C59.0124 18.0354 60.0389 18.8543 60.7957 20.3118C61.5525 21.7694 61.9777 23.7463 61.9777 25.8076Z" fill="#D45500"/>
<path d="M61.58 24.9564C61.58 26.7403 61.2178 28.4511 60.5731 29.7124C59.9285 30.9738 59.0541 31.6824 58.1423 31.6824C57.2306 31.6824 56.3562 30.9738 55.7115 29.7124C55.0668 28.4511 54.7046 26.7403 54.7046 24.9564C54.7046 23.1726 55.0668 21.4618 55.7115 20.2005C56.3562 18.9391 57.2306 18.2305 58.1423 18.2305C59.0541 18.2305 59.9285 18.9391 60.5731 20.2005C61.2178 21.4618 61.58 23.1726 61.58 24.9564Z" fill="black" stroke="black" stroke-width="0.633033"/>
<path d="M30.9036 5.521C15.2662 10.2731 3.88611 24.8111 3.88611 41.9997C3.88611 59.9058 16.2359 74.9241 32.8825 79.0105C15.6494 65.8904 8.73688 23.6871 30.9036 5.521Z" fill="#D45500"/>
<path d="M76.2277 39.1556C76.2277 46.75 74.0823 73.754 41.5516 74.7286C13.0893 75.5807 7.77222 48.5436 7.77222 40.9492C7.77222 33.3548 10.1699 42.7772 42.1494 41.846C73.2294 40.9411 76.2277 31.5612 76.2277 39.1556Z" fill="#2B0000" stroke="#2B0000" stroke-width="1.26607"/>
<path d="M74.9573 36.2083C72.3187 36.1656 64.4872 41.2002 42.1495 41.8507C24.0019 42.3791 15.3849 39.5697 11.3236 38.4315C10.6665 40.4296 9.94411 42.6148 11.062 44.5222C12.5505 46.1113 15.0539 46.2467 17.0968 45.9889C19.2062 45.7435 20.5008 43.9196 20.8335 41.9625C20.7907 44.654 21.7146 47.7448 24.6264 48.3334C27.6808 49.1026 30.0786 45.9273 30.3527 43.1861C30.8548 41.4569 29.876 45.8453 30.689 46.5117C32.2502 49.0061 35.6097 48.292 38.0128 47.7635C40.4885 47.6451 39.4786 42.6 39.9092 42.8685C40.3438 44.9998 40.3716 48.4418 43.1694 48.735C45.1187 48.9143 47.3493 49.1057 48.9424 47.6514C51.0162 46.1399 49.837 43.301 51.0442 41.3923C51.835 43.8143 51.653 47.0762 53.9588 48.8471C56.6768 50.8817 60.1838 47.7595 60.0684 44.8208C60.3634 44.0233 60.3404 40.1302 60.4234 42.775C60.6938 45.718 64.2165 48.7533 66.9813 46.6425C68.4818 45.941 69.2073 43.6006 69.3915 41.9717C69.7849 44.0213 71.2569 46.1938 73.3709 44.9424C75.7265 43.2212 75.3762 39.9891 75.6502 37.4129C75.6526 37.0805 75.6446 36.7456 75.6409 36.4133C75.4658 36.2799 75.2425 36.2124 74.959 36.2078L74.9573 36.2083Z" fill="white"/>
<path d="M24.8114 65.2645C26.0838 63.9874 26.7824 62.4509 28.0175 61.1566C29.2629 59.3193 31.4079 57.8047 34.0678 57.1907C36.2495 56.5831 38.7043 56.2651 40.9863 56.7084C42.9827 57.459 43.3272 59.2703 44.2824 60.6191C44.9993 61.766 45.7696 63.0231 45.4289 64.3204C44.538 64.9356 44.4979 63.0719 44.5922 62.5971C44.6735 61.3602 44.3581 60.107 44.613 58.8811C45.5031 57.0289 48.6169 56.3943 50.9755 56.8456C52.8025 57.2434 54.3609 58.1469 55.7593 59.0761C57.065 60.2311 57.9215 61.6223 59.1492 62.8197C60.1853 64.145 60.9929 65.715 60.6659 67.2681C60.0449 68.7599 57.8444 69.3775 56.0029 69.7331C52.7753 70.219 49.4709 69.8327 46.2093 69.9584C40.8703 69.9634 35.5317 69.9517 30.1928 69.9578C27.8008 68.7917 27.6109 66.0804 24.812 65.2649L24.8114 65.2645Z" fill="#AA0000"/>
<path d="M69.3165 56.8435C67.5987 56.9307 65.9687 58.5607 66.6261 60.552C66.4276 63.7279 64.1206 60.5793 62.4972 60.524C59.5759 60.3679 60.5644 65.3808 57.2659 64.9987C54.518 63.3314 52.5601 66.3999 53.0435 68.9315C53.0369 71.862 50.6206 68.6436 50.4091 67.3808C49.2506 64.6404 44.8687 64.4606 43.543 67.1379C43.9497 69.0084 41.7093 71.1188 40.1892 69.2211C40.3496 66.4673 36.9778 65.225 35.1448 67.2967C34.024 69.9102 33.6241 66.0149 32.5104 65.2509C30.0975 62.8925 29.2204 67.0961 27.2884 67.25C27.0036 64.9141 27.9604 62.0435 25.9805 60.2344C24.003 58.7668 21.7949 60.2923 20.7958 62.2615C20.896 61.1329 20.8377 59.7962 20.4222 59.0946C19.1973 56.2508 14.356 58.0113 14.7517 60.8975C14.5991 61.097 14.4546 61.3035 14.322 61.5141C19.2559 68.8992 27.6371 75.149 41.553 74.7325C58.6964 74.2193 67.4019 66.4724 71.8019 58.1511C71.7101 58.0288 71.6135 57.9125 71.5123 57.7961C70.9042 57.0861 70.0979 56.8036 69.317 56.8432L69.3165 56.8435Z" fill="white"/>
<path d="M76.2277 39.1556C76.2277 46.75 74.0823 73.754 41.5516 74.7286C13.0893 75.5807 7.77222 48.5436 7.77222 40.9492C7.77222 33.3548 10.1699 42.7772 42.1494 41.846C73.2294 40.9411 76.2277 31.5612 76.2277 39.1556Z" stroke="#2B0000" stroke-width="1.26607"/>
<path d="M80.1139 41.9955C80.1139 47.0007 79.128 51.9568 77.2126 56.581C75.2972 61.2052 72.4898 65.4068 68.9506 68.9461C65.4114 72.4853 61.2097 75.2927 56.5855 77.2081C51.9614 79.1235 47.0052 80.1094 42 80.1094C36.9948 80.1094 32.0386 79.1235 27.4144 77.2081C22.7902 75.2927 18.5886 72.4853 15.0494 68.9461C11.5102 65.4068 8.70275 61.2052 6.78735 56.581C4.87195 51.9568 3.88611 47.0007 3.88611 41.9955C3.88611 36.9903 4.87195 32.0341 6.78735 27.4099C8.70275 22.7857 11.5102 18.5841 15.0494 15.0449C18.5886 11.5057 22.7902 8.69824 27.4144 6.78284C32.0386 4.86744 36.9948 3.88159 42 3.88159C47.0052 3.88159 51.9614 4.86744 56.5855 6.78284C61.2097 8.69824 65.4114 11.5057 68.9506 15.0449C72.4898 18.5841 75.2972 22.7857 77.2126 27.4099C79.128 32.0341 80.1139 36.9903 80.1139 41.9955Z" stroke="#2B0000" stroke-width="1.8991"/>
</svg>
