<svg width="85" height="93" viewBox="0 0 85 93" fill="none" xmlns="http://www.w3.org/2000/svg">
<path d="M0.55323 39.4908C12.0709 32.012 45.202 17.1264 83.2306 27.8712C65.8185 44.5233 18.9648 48.4177 0.55323 39.4908Z" fill="#9B7840"/>
<g clip-path="url(#clip0_2306_17102)">
<path d="M11.694 40.4432L13.5178 35.4584L17.6515 28.4068L35.7669 20.7473L47.0738 20.7473L59.475 20.7473L68.8366 24.3947L72.2408 31.0816L75.5235 34.4858L77.2256 38.8627L77.2256 43.7259L75.5235 50.6559L80.0219 73.0266L80.0219 75.3366L75.5235 80.6861L68.8366 82.9962L59.475 83.8472L46.5875 81.6588L30.2958 76.7956L20.2047 70.4734L14.4904 63.3002L10.4783 59.6528L7.6819 55.1544L6.5877 50.048L7.6819 45.9143L11.694 40.4432Z" fill="white"/>
<path d="M65.9223 84.2183C65.0561 84.3325 63.9903 84.4555 63.5536 84.4916C62.7313 84.5595 62.3708 84.5293 56.6184 83.911C54.0733 83.6375 51.3997 83.4403 50.1959 83.4373C49.7366 83.4361 49.2299 83.387 48.8503 83.3068C47.8659 83.0988 45.0915 82.2316 42.6565 81.3709C39.1268 80.1232 36.877 79.3748 34.9565 78.8096C32.1482 77.983 29.5808 76.9711 26.6704 75.5434C24.8531 74.652 23.8821 74.0722 22.2489 72.9032C19.3208 70.8074 17.6263 69.0851 16.02 66.5722C14.7132 64.528 13.4548 63.0954 11.8746 61.8527C11.0638 61.2151 10.0265 60.2698 9.34939 59.5515C8.5969 58.7532 7.65522 57.4682 7.23433 56.6652C6.30307 54.889 5.61902 52.2075 5.65917 50.4905C5.70135 48.6876 6.39678 46.9542 8.27618 43.9678C8.5348 43.5568 8.7582 43.2049 8.77258 43.1858C8.86752 43.0597 9.47842 42.0678 9.8927 41.3671C11.0064 39.4834 11.6073 37.9931 12.2125 35.6144C13.0471 32.3339 14.0424 29.9091 15.4787 27.656C16.2312 26.4758 16.7243 25.9106 18.2437 24.4867L19.0921 23.6916L28.6935 22.1635C33.9743 21.3231 38.6223 20.5943 39.0226 20.5438C39.4228 20.4935 40.5279 20.3551 41.4785 20.2363C51.2757 19.0123 57.4616 19.05 61.9873 20.3618C64.556 21.1063 67.4132 22.6228 68.8833 24.022C69.7072 24.8062 70.2888 25.7791 70.4219 26.596C70.6542 28.0209 71.3268 29.4918 72.1494 30.3739C72.6635 30.9251 73.0133 31.1855 73.8061 31.607C75.2082 32.3525 76.0796 33.2973 76.7411 34.7895C77.2886 36.0246 77.7388 37.8498 78.042 40.0641C78.4117 42.7641 78.3835 42.9873 77.0772 47.6891L76.4031 50.1155L77.4525 56.315C78.0296 59.7247 78.5734 62.8731 78.661 63.3115C78.7485 63.7498 78.9182 64.6138 79.0379 65.2313C79.481 67.5159 79.7017 68.5425 80.4717 71.9009L80.9062 73.7956L80.4661 74.9804C79.4884 77.6125 78.7793 78.762 77.2943 80.1219C76.3155 81.0183 74.7128 82.0952 73.6098 82.5978C72.2422 83.221 70.1714 83.6577 65.9223 84.2183ZM70.451 81.6319C72.6684 81.0505 73.4378 80.7308 74.7009 79.8659C76.3684 78.7242 77.536 77.3647 78.2771 75.7019C78.5153 75.1676 78.8733 73.9989 78.9642 73.4591C79.0658 72.8558 78.9703 71.9393 78.6909 70.8355C77.8366 67.4604 77.4501 65.4813 75.9916 57.0109L74.7153 49.5988L75.4192 47.0624C76.625 42.7177 76.6947 42.2732 76.4884 40.2473C76.3179 38.5722 75.8772 36.8069 75.394 35.8632C75.1224 35.3327 74.6316 34.6767 74.2043 34.2731C73.9996 34.0796 73.3059 33.548 72.6628 33.0918C70.429 31.5069 69.6295 30.3553 69.0989 27.9584C68.8028 26.6207 68.4482 25.9739 67.5955 25.2163C66.2291 24.0022 62.8809 22.4084 60.5536 21.8641C58.5624 21.3984 56.9478 21.4437 53.7481 22.0549C51.229 22.5361 48.5091 22.9662 47.2936 23.0756C45.89 23.2019 45.3442 23.2322 42.9704 23.3162C40.2327 23.413 38.7623 23.5052 37.1821 23.6789C34.6878 23.953 32.6117 24.5368 30.7165 25.4968C27.7164 27.0166 23.4127 30.4249 20.9202 33.255C20.0046 34.2946 19.3001 34.9559 19.1906 34.8783C18.9364 34.6983 21.0722 32.289 23.6993 29.7924C25.8028 27.7934 27.263 26.7133 29.2676 25.6738C33.0042 23.736 37.0248 22.8175 41.3873 22.9048C43.5489 22.9481 47.0572 22.6538 50.7268 22.1214C52.7409 21.8292 53.7672 21.6134 53.8805 21.4584C53.9484 21.3654 53.5438 21.2373 53.0471 21.1944C51.5115 21.0619 47.3198 21.3314 43.1 21.834C42.6827 21.8836 42.0951 21.9514 41.7942 21.9845C41.1809 22.0519 39.6603 22.251 37.0988 22.5991C36.1499 22.728 31.9278 23.4005 27.7164 24.0934L20.0594 25.3533L19.1225 26.2247C18.0443 27.2277 17.7768 27.5199 17.1756 28.3524C15.732 30.3511 14.6532 32.9633 13.7643 36.6119C13.37 38.2304 12.8371 40.0041 12.5607 40.6181C12.4548 40.8533 12.226 41.2827 12.0523 41.5724C11.8786 41.862 11.748 42.1061 11.7621 42.1147C11.7903 42.1321 14.8813 41.7011 15.8333 41.547C16.1622 41.4939 16.4175 41.469 16.4008 41.4919C16.3841 41.5148 15.7621 41.6988 15.0186 41.9009C12.8757 42.4833 11.4527 43.0061 10.7993 43.4509C9.67722 44.2148 7.5122 48.5683 7.3493 50.3883C7.1694 52.3988 7.94499 54.827 9.43153 56.9073C10.6362 58.5932 11.9337 59.5872 13.4774 60.0071C14.0636 60.1666 14.8164 60.5216 14.8371 60.6482C14.8556 60.7622 14.5877 60.7836 13.9687 60.7175C13.7361 60.6927 13.5302 60.6936 13.5113 60.7195C13.4675 60.7794 13.725 61.0534 14.4174 61.6837C15.3341 62.5182 16.5814 64.094 17.5284 65.614C19.2877 68.4379 22.6572 71.4347 26.0607 73.2027C28.4967 74.4682 33.1895 76.3774 34.9866 76.8343C36.1934 77.141 39.7259 78.3154 42.9681 79.4879C44.6115 80.0821 47.3506 80.9322 48.5079 81.2071C49.1069 81.3494 49.5431 81.4065 50.215 81.4305C52.2036 81.5016 54.1342 81.6832 59.8878 82.3405C63.4026 82.7421 63.6024 82.7566 64.5558 82.6809C65.4964 82.6062 69.3532 81.9197 70.451 81.6319ZM66.5528 76.3152C61.867 77.0078 58.4965 77.3958 56.44 77.4793C50.3759 77.7255 42.798 77.0244 37.4358 75.7207C35.457 75.2397 31.7665 73.9855 28.6908 72.7488C26.7486 71.9678 25.2293 71.2534 25.2059 71.1099C25.1665 70.8681 26.5705 71.3127 29.61 72.5045C32.9811 73.8262 33.8963 74.1577 35.6902 74.7061C39.4695 75.8615 42.8463 76.3942 48.9027 76.7902C54.8052 77.1762 56.9682 77.0983 63.7584 76.2548C65.0594 76.0932 66.4242 75.9255 66.7915 75.8821C67.8035 75.7626 69.9255 75.4934 70.0956 75.4629C70.1879 75.4463 70.7114 74.9996 71.4535 74.3038C74.7648 71.1996 74.8912 71.0179 74.833 69.4488C74.8187 69.0624 74.8176 68.7317 74.8306 68.7139C74.8737 68.6549 75.2305 70.4364 75.2298 70.7074C75.2289 71.0547 75.0646 71.5136 74.832 71.8187C74.5944 72.1303 73.7363 72.9713 72.112 74.4842L70.8229 75.6849L70.1984 75.7768C69.8549 75.8273 68.2144 76.0696 66.5528 76.3152ZM60.1034 74.7101C58.2982 74.9764 54.3873 75.4288 51.9046 75.6584C48.6285 75.9615 47.1911 75.8566 43.5758 75.051C40.7461 74.4204 36.8899 73.292 33.0443 71.9693C31.4414 71.418 29.6186 70.7015 29.2894 70.4936C29.0107 70.3174 29.0082 70.3133 29.1629 70.2856C29.4441 70.2353 31.2718 70.7762 33.9983 71.7166C36.6089 72.6171 39.7368 73.5567 42.2345 74.1908C42.5687 74.2756 44.0137 74.6141 45.4455 74.9431L48.0491 75.5411L48.7788 75.4625C49.1802 75.4192 49.9874 75.3325 50.5727 75.2698C52.7813 75.033 57.2211 74.5477 58.5368 74.3993C59.2887 74.3144 60.8805 74.0871 62.0743 73.894C64.4595 73.5082 65.488 73.2609 66.5469 72.8185C68.0758 72.1798 68.8496 71.5361 70.1096 69.8549C70.8309 68.8925 71.1943 68.492 71.3728 68.4629C71.4641 68.4481 71.4766 68.4742 71.4566 68.6381C71.3536 69.4796 69.7888 71.3402 68.2687 72.4284C67.4496 73.0149 66.5053 73.4058 64.9452 73.8043C63.98 74.0509 61.773 74.4637 60.1034 74.7101ZM53.2157 73.0728L52.7882 73.1076L53.2332 72.9881C53.8072 72.834 59.524 71.9015 60.1822 71.8545L60.6841 71.8188L60.2986 71.9211C59.8273 72.0462 53.8111 73.0245 53.2157 73.0728ZM53.161 71.0293C52.9767 71.0471 52.2573 71.1257 51.5624 71.2041C47.0723 71.7103 43.2447 71.6203 40.0596 70.9339C36.8126 70.2341 32.6294 68.2885 29.3101 65.9343C26.7813 64.1408 25.1681 62.603 22.4261 59.3717C20.9724 57.6586 20.0839 56.6869 19.6161 56.2985C19.2301 55.978 19.1339 55.767 19.1746 55.3301C19.2148 54.8985 19.0085 54.3076 18.6366 53.7893C18.2047 53.1871 17.91 53.0989 16.8828 53.2639C15.715 53.4516 14.9284 53.2968 14.8176 52.8577C14.7719 52.676 14.7893 52.6205 14.9398 52.4681C15.0363 52.3703 15.3701 52.1452 15.6815 51.9678C16.4366 51.5377 17.1299 51.0278 17.4497 50.6673C17.9343 50.1209 18.1079 49.6283 18.1932 48.557C18.2922 47.314 18.7497 46.5767 19.2167 46.9076C19.3378 46.9934 19.5104 47.301 19.6888 47.7488C20.1558 48.9213 24.074 50.3469 30.9169 51.8339C34.6754 52.6507 40.1316 53.6121 42.5866 53.8901C45.5567 54.2265 48.4365 54.3105 51.3687 54.1464C52.6247 54.0762 56.5235 53.4606 57.5218 53.175C60.7164 52.2609 62.7852 51.182 64.7075 49.4273C66.5608 47.7357 67.1203 46.4038 67.0014 43.9678C66.9851 43.6351 66.9841 43.078 66.9992 42.7296C67.0359 41.8801 67.2063 41.5237 67.5621 41.5525C67.8613 41.5768 68.1363 42.0016 68.4288 42.8918C68.6195 43.4723 68.8899 43.912 69.2063 44.156C69.5411 44.4143 69.7305 44.7043 70.0579 45.4601C71.3585 48.4626 72.5945 55.2918 72.5714 59.3477C72.5469 63.6766 71.1561 65.8761 67.3834 67.5521C65.6487 68.3228 62.9134 69.152 59.7181 69.8759C58.6908 70.1086 53.8162 70.9662 53.161 71.0293ZM55.612 68.6391C55.6188 68.462 55.624 68.1525 55.6235 67.9515C55.623 67.7504 55.629 67.015 55.6369 66.3174C55.657 64.549 55.5716 64.1298 55.1648 63.9996C54.9527 63.9317 54.4093 63.9373 53.3795 64.0179C52.3249 64.1004 51.1214 64.1066 50.4223 64.033C49.9127 63.9794 49.8252 63.9844 49.7624 64.0702C49.6392 64.2388 49.6463 64.9705 49.7838 66.2819C49.9684 68.0423 50.2826 69.3915 50.5385 69.522C50.763 69.6365 52.047 69.5181 54.1407 69.1899L55.5996 68.9612L55.612 68.6391ZM59.6405 68.1479C60.0671 67.9398 60.2211 67.6949 60.5235 66.7431C60.733 66.0836 61.3044 63.6667 61.2825 63.5324C61.2699 63.4553 60.0342 63.5743 58.9065 63.7612C57.5128 63.9922 57.4809 64.0234 57.3636 65.2732C57.3134 65.8088 57.2575 68.4495 57.2919 68.6608C57.2953 68.6815 57.7502 68.6111 58.3029 68.5044C59.0225 68.3654 59.4022 68.2642 59.6405 68.1479ZM63.4387 67.0401C63.7282 66.9153 64.1293 66.7673 64.3301 66.7112C64.5308 66.6551 64.7091 66.5762 64.7262 66.5359C64.7433 66.4956 64.7251 66.2485 64.6858 65.9867C64.5835 65.3066 64.6524 64.9253 65.3247 62.4489C65.3659 62.2972 65.3878 62.1534 65.3734 62.1292C65.3589 62.1051 65.0514 62.226 64.69 62.3978C64.3286 62.5696 63.8613 62.7693 63.6516 62.8415C63.2049 62.9952 63.141 63.0745 62.9538 63.7086C62.8222 64.1541 62.4069 67.0144 62.4423 67.2314C62.4762 67.4397 62.5396 67.4276 63.4387 67.0401ZM48.2853 69.6065C48.4463 69.4849 48.5028 69.075 48.4548 68.3771C48.4018 67.6078 47.9416 63.8783 47.8957 63.8458C47.8783 63.8335 47.3267 63.7617 46.67 63.6863C44.456 63.4322 43.3209 63.2258 40.7462 62.6091C40.3225 62.5076 39.968 62.4259 39.968 62.4259C39.968 62.4259 40.0137 62.8661 40.0792 63.4025C40.2386 64.7069 40.1886 65.2361 39.7848 66.5211C39.1352 68.5887 39.3336 68.89 41.6189 69.3069C44.3609 69.8071 47.8143 69.9623 48.2853 69.6065ZM67.0537 65.6055C67.2457 65.493 67.5929 65.3394 67.8253 65.2641C68.0808 65.1813 68.3739 65.0324 68.5666 64.8874C68.8893 64.6446 69.5154 63.9283 69.4981 63.8218C69.4922 63.7857 69.3323 63.8051 69.0745 63.8733C68.7428 63.9609 68.6275 63.9684 68.4958 63.9109C68.155 63.7621 68.0737 63.2683 68.1858 62.0297C68.2701 61.0981 68.1857 60.813 67.9016 61.0697C67.5234 61.4115 67.0011 62.7516 66.6699 64.2307C66.2808 65.9677 66.3026 66.0456 67.0537 65.6055ZM70.1503 63.0941C70.4216 62.4048 70.937 59.9359 70.9473 59.2765C70.9621 58.3214 70.0187 61.4254 69.875 62.804C69.8018 63.507 69.9332 63.6454 70.1503 63.0941ZM37.8756 67.1294C38.5412 64.4915 38.6024 63.1289 38.084 62.4844C37.8239 62.161 37.653 62.0934 36.7285 61.9486C35.528 61.7606 34.4314 61.4653 31.9724 60.6679L30.299 60.1253L30.4162 61.0538C30.5751 62.3128 30.5152 62.8724 30.1253 63.7725C29.8731 64.3548 30.2914 64.6666 33.8333 66.5365C34.727 67.0083 35.9004 67.6306 36.441 67.9194C36.9815 68.2081 37.4517 68.4409 37.4858 68.4366C37.5199 68.4323 37.6953 67.8441 37.8756 67.1294ZM28.6199 62.7959C28.7205 62.7034 28.835 62.527 28.8744 62.4039C29.0204 61.9483 28.6304 60.3565 28.2315 59.7798C27.8597 59.2421 27.109 58.8657 25.2068 58.2634C24.0453 57.8956 23.5285 57.7652 23.4824 57.8284C23.3504 58.0089 26.8439 61.7671 28.0463 62.7383C28.2104 62.8708 28.3654 62.9758 28.3909 62.9717C28.4163 62.9675 28.5193 62.8884 28.6199 62.7959ZM48.6421 59.0459C48.5659 58.7146 48.4192 58.087 48.3162 57.6512C48.2131 57.2153 48.1009 56.7198 48.0667 56.5501C48.0325 56.3803 47.9851 56.2201 47.9614 56.194C47.9376 56.1679 47.7779 56.1396 47.6063 56.1311C47.4348 56.1226 46.6892 56.0754 45.9495 56.0262C40.9158 55.6915 40.5509 55.6903 40.4401 56.0074C40.3852 56.1647 40.2649 57.8498 40.2678 58.4213C40.2715 59.1572 40.4561 59.4797 40.9648 59.6394C41.3047 59.7461 42.7032 59.9252 43.5607 59.9718C44.7183 60.0347 45.9884 59.9894 47.1904 59.8423C47.8077 59.7668 48.4181 59.6921 48.5468 59.6765L48.7809 59.648L48.6421 59.0459ZM55.5618 58.4362C55.537 58.286 55.0059 56.7915 54.8022 56.2983C54.6716 55.9822 54.5957 55.8707 54.4951 55.847C54.3309 55.8083 53.1098 55.8278 51.4354 55.896C50.7423 55.9242 50.0709 55.9479 49.9435 55.9486L49.7117 55.95L49.9932 57.6773L50.2748 59.4046L52.9269 58.9723C55.4126 58.5672 55.5779 58.5336 55.5618 58.4362ZM60.6089 57.5111C61.4167 57.2574 62.1833 56.9337 62.3902 56.7589C62.6586 56.5322 62.6296 56.3868 62.0539 55.0731C61.5873 54.0082 61.5192 53.8848 61.4137 53.9115C61.2422 53.9548 56.4252 55.5504 56.4082 55.5696C56.3753 55.6064 56.9231 57.6094 57.0037 57.747C57.1115 57.931 57.2879 58.0752 57.4595 58.1194C57.6509 58.1687 59.8956 57.7352 60.6089 57.5111ZM65.1274 56.1913C65.2223 56.1474 65.4395 56.0703 65.6099 56.0201C65.9507 55.9196 66.0528 55.7881 66.154 55.3193C66.3866 54.2414 66.2322 52.7933 65.7886 51.8933C65.5343 51.3775 65.3586 51.4096 64.4062 52.1463C63.2596 53.0333 63.204 53.1833 63.6267 54.2535C63.7798 54.6409 63.9769 55.2289 64.0649 55.5601C64.2827 56.3804 64.4207 56.5348 64.7781 56.3583C64.8752 56.3103 65.0324 56.2351 65.1274 56.1913ZM68.6883 54.2327C68.7827 54.1634 68.9717 53.9643 69.1081 53.7901C69.3355 53.4999 69.3524 53.4508 69.3111 53.1997C69.2497 52.8264 68.9594 52.1602 68.4652 51.258C67.8236 50.0867 67.303 49.3784 67.1937 49.528C67.0617 49.7085 67.2815 51.2069 67.6571 52.6868C68.0948 54.4116 68.2096 54.5837 68.6883 54.2327ZM38.4822 58.8542C38.5353 58.7596 38.5851 58.5252 38.5927 58.3332C38.6003 58.1412 38.6313 57.4863 38.6616 56.8779C38.726 55.5829 38.7062 55.518 38.1811 55.2945C37.8473 55.1526 36.9376 54.9401 36.0982 54.808C34.4931 54.5555 32.4413 54.2082 31.1984 53.9785C29.6149 53.686 29.0492 53.6645 28.9691 53.8937C28.8914 54.116 28.9515 54.5848 29.1003 54.9183C29.3859 55.5584 30.2743 56.5493 31.1819 57.2401C31.8446 57.7445 32.1625 57.8861 32.6857 57.9099C33.478 57.946 34.1121 58.0779 36.1009 58.6202C38.0384 59.1487 38.302 59.1746 38.4822 58.8542ZM27.7209 56.7013C27.7886 56.4243 27.6325 55.4027 27.3316 54.1525C27.2229 53.7008 27.1263 53.2861 27.117 53.2308C27.0991 53.1243 26.9934 53.0813 24.2997 52.0837C20.3017 50.6032 19.3851 50.4989 19.5864 51.5475C19.668 51.9726 20.2308 53.0622 20.7174 53.737C21.2751 54.5105 22.1731 55.0796 23.8743 55.7374C25.2792 56.2806 27.4032 56.9714 27.5857 56.9446C27.6289 56.9382 27.6898 56.8287 27.7209 56.7013ZM69.2128 48.3468C69.0588 47.9987 68.6046 47.3811 68.49 47.364C68.4197 47.3534 68.4173 47.3986 68.4784 47.5816C68.7068 48.265 69.1444 48.8735 69.277 48.6919C69.3168 48.6376 69.2989 48.5414 69.2128 48.3468ZM15.1822 58.9047C14.9962 58.8718 14.4665 58.7233 14.0049 58.5746C11.1204 57.6455 10.4684 56.6382 9.5647 51.7143C9.1864 49.6532 9.06541 48.5047 9.14887 47.7668C9.24725 46.897 9.832 45.4044 10.3817 44.6202C10.8827 43.9053 11.589 43.4002 12.5849 43.0443C12.9754 42.9047 16.5849 42.2781 17.5493 42.1824L18.0365 42.1341L17.1752 42.3547C16.7015 42.476 16.2073 42.6045 16.077 42.6402C15.9467 42.676 15.2794 42.8527 14.5942 43.0331C11.435 43.8643 11.1028 44.0882 10.3027 45.9246C9.90117 46.8463 9.65233 47.6637 9.58994 48.2658C9.54416 48.7079 9.5684 48.9639 9.81254 50.6161C10.3214 54.0601 10.8489 55.6875 11.7782 56.6806C12.3138 57.2529 12.7333 57.5012 13.9669 57.9761C15.3234 58.4983 15.7589 58.7201 15.7889 58.9042C15.798 58.9605 15.4988 58.9607 15.1822 58.9047ZM52.7522 52.838C52.2592 52.8373 51.7495 52.7165 51.512 52.5441C51.2598 52.3611 50.9665 51.8842 50.9161 51.575C50.8967 51.4559 50.9173 51.2384 50.962 51.0915C51.1058 50.6185 51.4844 50.4909 51.9958 50.7432C52.7066 51.0937 53.0173 51.0692 53.6276 50.6144C54.2831 50.1258 55.1641 48.7031 55.5767 47.4672C55.7764 46.8685 55.7342 46.4523 55.4263 45.9858C55.0745 45.4529 54.6823 45.2155 54.1486 45.2125C53.4314 45.2084 52.4374 44.1574 51.9435 42.8808C51.847 42.6314 51.6667 41.9449 51.543 41.3552C51.2254 39.8425 51.1821 39.789 49.8615 39.2796C49.1422 39.0021 48.665 38.6969 48.5546 38.4435C48.4472 38.1971 48.5026 38.0014 48.725 37.8411C48.9812 37.6566 49.1474 37.5949 49.7889 37.4459C50.741 37.2247 51.292 36.8738 51.9958 36.0402C53.259 34.5441 54.2171 33.8902 55.9844 33.3177C56.9701 32.9983 59.47 32.5907 60.1638 32.6362C61.0217 32.6924 61.4993 32.8627 62.3072 33.4005C62.8692 33.7745 63.1761 34.1035 63.2315 34.3915C63.3988 35.2594 62.295 35.874 58.8751 36.8169C55.0678 37.8667 53.0794 38.8896 52.9725 39.8535C52.9386 40.16 53.025 40.7008 53.224 41.4279C53.5708 42.6944 53.8102 42.9685 55.1367 43.6179C56.693 44.3799 57.7835 45.0344 58.9926 45.9323C60.2514 46.8672 60.713 47.1121 61.2532 47.1316C61.7656 47.15 62.3478 47.3312 62.9198 47.6501C63.3556 47.8931 63.8019 48.2519 63.8221 48.3755C63.8433 48.506 63.4176 48.4431 62.8686 48.2347C62.0487 47.9233 60.526 47.473 60.0289 47.3948C59.3332 47.2854 59.1744 47.3665 58.8948 47.974C58.6809 48.4388 58.536 48.5067 58.1805 48.3087C57.7646 48.0771 57.6196 48.1397 57.1193 48.7675C56.8344 49.1249 56.439 49.7091 56.0189 50.3933C55.578 51.1113 54.878 52.0363 54.6097 52.2556C54.1397 52.6397 53.5034 52.8392 52.7522 52.838ZM59.5001 34.6355C59.7503 34.573 59.9517 34.5015 59.9476 34.4765C59.9358 34.4036 59.4573 34.4218 58.8714 34.5173C58.2431 34.6198 57.7065 34.7728 57.7184 34.8461C57.7325 34.932 58.8339 34.8018 59.5001 34.6355ZM41.4174 52.7744C41.0393 52.6357 40.547 52.3722 40.3745 52.2161C40.1013 51.9689 39.7535 51.3921 39.5842 50.905C39.2828 50.0385 39.2303 48.8326 39.4629 48.1218C39.7365 47.2857 40.4397 46.7597 41.6261 46.5037C43.1607 46.1725 44.048 46.5415 43.6829 47.3592C43.5825 47.584 43.2823 47.77 42.6607 47.9929C41.1298 48.5418 40.8187 48.8404 40.9485 49.6371C41.0297 50.135 41.2857 50.5527 41.7139 50.886C42.1237 51.2048 42.2973 51.4552 42.3528 51.8072C42.3957 52.0791 42.3057 52.5007 42.1633 52.6955C42.0418 52.8617 41.7421 52.8934 41.4174 52.7744ZM14.3475 56.7328C14.1234 56.642 13.73 56.3124 13.4771 56.0036C12.9082 55.3091 12.2545 53.5388 12.0085 52.0265C11.7015 50.1397 11.939 48.4531 12.7174 46.9927C12.9814 46.4974 13.5791 45.6982 13.9659 45.3236C15.1211 44.2042 17.9002 43.4303 19.9237 43.6644C20.2652 43.704 20.8459 43.8578 21.5404 44.0928C23.4461 44.7376 25.2366 45.1396 26.5713 45.2225C27.7153 45.2935 28.6542 44.9933 29.8908 44.161C30.7086 43.6105 31.2696 43.0644 31.8684 42.2359C32.474 41.3979 32.6609 41.2521 33.0775 41.2929C33.4483 41.3293 33.5846 41.4669 33.6448 41.866C33.8028 42.9132 32.3435 44.9222 30.7241 45.8869C28.9764 46.9283 26.8325 47.2277 24.2228 46.795C22.7579 46.5522 20.5422 45.927 20.0306 45.6122C19.7246 45.4239 19.4629 45.3705 18.886 45.3787C18.0579 45.3904 16.8139 45.7346 15.9452 46.1923C15.1813 46.5947 14.8297 46.9548 14.3965 47.7784C14.0345 48.4665 13.7992 49.0748 13.6609 49.6807C13.3225 51.1628 13.3705 51.7325 13.9491 53.1015C14.677 54.8241 14.8388 55.2685 14.9372 55.8161C15.0211 56.2834 15.0209 56.3857 14.9356 56.5479C14.8136 56.78 14.6167 56.8419 14.3475 56.7328ZM71.8628 47.2085C71.8326 47.0233 72.4286 46.4539 73.6831 45.4694C75.295 44.2044 75.4094 43.9915 75.5125 42.061C75.5815 40.7709 75.5382 39.9899 75.3502 39.1308C74.9538 37.3202 74.3066 36.3971 73.0248 35.8141C72.6234 35.6315 72.0814 35.3002 71.4926 34.8776C70.6001 34.2369 70.2817 34.0774 69.8418 34.0509C69.7216 34.0437 68.5243 34.2149 67.1813 34.4314C64.8647 34.8049 64.726 34.821 64.4789 34.7456C63.7343 34.5185 64.3779 33.974 65.2946 34.0556C65.8715 34.1069 66.8915 34.017 68.2572 33.7945C70.2352 33.4721 70.4843 33.513 71.8 34.3753C72.7104 34.972 73.4481 35.4003 73.8084 35.5415C74.2646 35.7203 75.4741 37.5988 75.7859 38.6129C76.069 39.5334 76.0868 42.191 75.821 43.8395C75.7425 44.3262 75.6868 44.4848 75.5142 44.7125C75.0253 45.3576 72.8559 46.9493 72.092 47.2231C71.9204 47.2847 71.8748 47.282 71.8628 47.2085ZM43.8514 51.6891C43.4698 51.6608 43.1784 51.2358 43.0722 50.5527C42.984 49.9849 42.9935 49.8915 43.1647 49.6366C43.3983 49.2889 43.7444 49.1591 44.9545 48.9655C46.1909 48.7677 46.8701 48.7733 47.6613 48.9877C48.557 49.2305 48.8436 49.7587 48.2724 50.1141C48.1891 50.1659 47.4713 50.3301 46.5964 50.4973C45.6911 50.6704 44.9735 50.8352 44.8392 50.901C44.7137 50.9624 44.5331 51.1281 44.4354 51.2713C44.2824 51.4959 44.0603 51.714 43.9969 51.7021C43.9858 51.7001 43.9203 51.6942 43.8514 51.6891ZM72.1898 44.4386C72.0993 44.3358 72.3 43.8905 72.7402 43.2175C73.5041 42.0499 73.5613 41.8641 73.4137 41.0317C73.304 40.4126 72.9598 39.2331 72.6519 38.4206C72.2833 37.448 71.9837 37.1629 70.9437 36.7947C70.2433 36.5468 69.6573 36.1949 69.6899 36.0418C69.7024 35.9831 69.7635 35.9268 69.8257 35.9166C70.0045 35.8875 70.6433 36.0088 71.2143 36.1803C72.1197 36.4522 72.5398 36.838 72.918 37.7448C73.3733 38.8362 73.976 41.3843 73.9352 42.0445C73.91 42.4522 73.661 43.0234 73.2722 43.5659C72.8304 44.1822 72.3237 44.5907 72.1898 44.4386ZM32.7959 50.0598C32.459 50.0444 32.4103 50.0134 32.5316 49.892C32.6947 49.7287 33.4789 49.5164 35.0927 49.1987C37.1919 48.7853 37.9182 48.5054 38.1708 48.0124C38.2618 47.8348 38.2605 47.8258 38.1009 47.5293C37.907 47.169 37.9197 47.03 38.1501 46.9937C38.3516 46.962 38.4355 46.9946 38.5552 47.1514C38.7925 47.462 38.698 48.224 38.3724 48.625C38.1384 48.9132 37.9722 48.9951 37.0542 49.2741C36.2567 49.5165 33.2098 50.0787 32.7959 50.0598ZM62.2781 42.8771C61.366 42.8611 61.0058 42.7838 60.5419 42.5046C60.0463 42.2063 59.6632 41.5646 59.7313 41.147C59.8394 40.4837 60.2379 40.4224 61.6257 40.8555C62.6244 41.1672 62.797 41.1081 63.6895 40.1479C65.2743 38.4432 65.5991 38.2257 67.0202 37.9188C68.6371 37.5694 70.2967 37.7461 71.1378 38.3572C71.7035 38.7683 71.8926 39.39 71.5881 39.8379C71.3343 40.2111 70.7771 40.2081 70.0018 39.8294C68.7181 39.2024 67.1023 39.3865 66.1733 40.2655C65.8318 40.5886 65.6153 40.9957 65.474 41.5806C65.3476 42.1042 65.1752 42.3714 64.8752 42.5084C64.5144 42.6732 62.9906 42.8895 62.2781 42.8771ZM40.5504 42.0691C39.6836 41.7446 37.9759 41.144 37.531 41.0072C34.7241 40.1444 31.792 40.3217 28.7662 41.5371C27.1774 42.1753 26.0925 42.3112 25.4163 41.9567C24.772 41.6189 24.7167 40.6689 25.2713 39.4661C26.2227 37.4026 28.6741 35.8307 32.306 34.9551C34.7741 34.3601 36.9084 34.454 38.9658 35.2482C40.2472 35.7428 42.1558 36.8607 42.6913 37.4305C43.2362 38.0103 43.4132 38.6934 43.1996 39.3925C43.0173 39.9889 41.8424 41.4805 41.177 41.9602C40.8517 42.1947 40.875 42.1907 40.5504 42.0691ZM41.1149 39.3587C41.2406 39.1868 41.2869 39.0581 41.267 38.936C41.2099 38.5861 40.2616 37.8531 39.3131 37.4258C37.7585 36.7254 35.2461 36.0668 35.0663 36.3125C35.0064 36.3945 34.9138 38.0482 34.955 38.301C35.0028 38.5941 35.1889 38.6986 35.6371 38.6839C36.3033 38.6621 36.8997 38.7872 38.653 39.3167C39.9759 39.7163 40.2547 39.7662 40.6454 39.674C40.8827 39.618 40.9665 39.5618 41.1149 39.3587ZM27.8259 39.9537C28.4354 39.6517 28.7849 39.2451 28.5834 39.0722C28.4651 38.9707 27.9458 39.0565 27.6119 39.2326C27.1783 39.4614 26.7425 40.0707 26.8915 40.2399C26.9539 40.3107 27.3506 40.1892 27.8259 39.9537ZM23.2692 43.0377C23.2435 43.0195 23.2101 42.9285 23.195 42.8355C23.1532 42.5792 23.4262 42.3649 23.8225 42.3429C23.9891 42.3337 24.1696 42.3574 24.2236 42.3957C24.3078 42.4553 24.2966 42.4914 24.1447 42.6497C23.863 42.9432 23.4157 43.1415 23.2692 43.0377ZM21.715 42.0765C21.3328 42.0392 21.0428 41.9365 20.7994 41.7524C20.4678 41.5016 20.6726 41.2867 21.5583 40.9564C22.2023 40.7162 23.9447 40.1544 23.9762 40.1768C23.9905 40.1869 23.5927 40.4596 23.0924 40.7828C22.1972 41.3611 21.8773 41.6139 21.9634 41.6749C21.9875 41.6919 22.3187 41.7296 22.6995 41.7586C23.0803 41.7876 23.4147 41.8276 23.4427 41.8474C23.5384 41.9152 22.0644 42.1106 21.715 42.0765ZM51.2103 34.0974C50.7307 31.5158 50.8021 30.0744 51.4324 29.6121C51.6098 29.4819 51.7741 29.5011 51.7992 29.6549C51.8092 29.7161 51.7325 30.0205 51.6287 30.3315C51.3828 31.0683 51.306 31.9736 51.3547 33.5615C51.3756 34.2449 51.3836 34.8165 51.3724 34.8318C51.3612 34.8472 51.2883 34.5167 51.2103 34.0974ZM23.7482 36.73C23.6871 36.3546 24.6779 34.812 25.9345 33.3258C27.0336 32.0261 27.8424 31.3849 29.3877 30.5882C30.6655 29.9294 31.7982 29.5236 33.4323 29.1391C33.6945 29.0774 34.1032 28.9797 34.3405 28.922C35.094 28.7387 38.2135 28.254 38.8623 28.2193C39.8531 28.1665 40.3391 28.2734 39.9305 28.4545C39.72 28.5477 38.4346 28.76 36.7176 28.9849C34.2461 29.3087 32.0452 29.9248 30.0901 30.8402C28.1436 31.7516 27.0334 32.7484 25.1779 35.2509C24.4672 36.2094 23.95 36.8095 23.8158 36.8314C23.7885 36.8358 23.7581 36.7902 23.7482 36.73ZM41.0297 33.1788C40.7436 31.9039 40.3333 31.1723 39.278 30.0548C38.7163 29.46 38.5692 29.2491 38.6244 29.1179C38.6752 28.9975 39.1244 29.1873 39.5354 29.5029C40.0053 29.8638 40.4926 30.5246 40.7845 31.1968C41.022 31.7438 41.1427 32.401 41.1818 33.3608L41.2065 33.9664L41.0297 33.1788ZM62.5357 30.2002C62.4487 30.0719 62.2522 29.7119 62.099 29.4003C61.6246 28.4354 61.0747 27.9653 59.6977 27.3475C58.7351 26.9156 57.9222 26.6715 57.3416 26.64C56.9384 26.6181 56.6915 26.646 55.9788 26.7937C54.2953 27.1428 51.901 27.8538 50.6758 28.3686C49.8837 28.7013 49.6623 28.7568 49.5413 28.653C49.1986 28.359 50.3286 27.8094 52.66 27.1365C55.4692 26.3255 56.7895 26.0479 57.5359 26.1111C58.0346 26.1534 59.2287 26.5152 60.0283 26.8663C61.137 27.3532 62.0279 28.0706 62.445 28.8127C62.7265 29.3134 62.9337 30.3944 62.7538 30.4238C62.7209 30.4291 62.6227 30.3285 62.5357 30.2002ZM21.5613 36.4274C21.5935 36.0525 22.6416 34.2897 23.3482 33.4221C25.4296 30.8662 28.3882 28.6313 31.195 27.4949C32.9136 26.7992 34.4815 26.37 36.7533 25.9735C39.1698 25.5517 40.2497 25.4719 42.3478 25.5601C44.6707 25.6577 46.0874 25.5508 49.1938 25.0434C51.8217 24.6141 52.611 24.4403 55.2567 23.7083C58.0067 22.9475 59.6053 22.7341 60.4025 23.0215C60.7325 23.1405 60.9938 23.411 61.0375 23.679C61.0703 23.8803 61.066 23.8853 60.8689 23.879C60.7578 23.8754 60.4659 23.7832 60.2203 23.6741C59.9747 23.565 59.5934 23.4462 59.3729 23.4102C59.0028 23.3498 58.8911 23.3606 57.9227 23.5511C57.3456 23.6646 56.5546 23.8516 56.165 23.9665C54.7223 24.3921 52.7329 24.8681 50.9583 25.2121C49.9545 25.4068 49.1135 25.558 49.0892 25.5482C49.0651 25.5384 48.5859 25.6006 48.0244 25.6864C46.1147 25.9783 44.0261 26.0964 41.9907 26.0276C38.722 25.9172 35.7088 26.3822 32.8162 27.4434C28.7305 28.9422 25.4985 31.3126 23.4003 34.3492C22.7421 35.3017 21.9443 36.3068 21.7052 36.4848L21.5461 36.6032L21.5613 36.4274Z" fill="black"/>
<path d="M20.2198 71.6377C10.8385 61.1526 9.01871 42.1075 9.28149 33.8955C9.87276 33.5342 11.8042 32.5553 14.7999 31.5305C12.1984 51.0815 20.4169 68.5171 24.8514 74.7911C23.9973 74.2983 21.8753 72.9779 20.2198 71.6377Z" fill="#494949"/>
<path d="M14.7151 32.5623L9.3047 34.8456C9.20542 36.6722 9.34607 38.6841 9.42881 39.4618C10.4712 39.1888 12.9034 38.5534 14.2932 38.196C14.3329 35.2377 14.591 33.2076 14.7151 32.5623Z" fill="black" fill-opacity="0.5"/>
</g>
<mask id="mask0_2306_17102" style="mask-type:alpha" maskUnits="userSpaceOnUse" x="0" y="-7" width="84" height="47">
<path d="M0.422392 39.6144L36.117 -6.08397L83.4417 28.1652C78.3787 26.2377 62.7349 23.1584 40.6634 26.2608C18.5919 29.3632 4.63961 36.4559 0.422392 39.6144Z" fill="black"/>
</mask>
<g mask="url(#mask0_2306_17102)">
<path d="M70.3239 20.3751L70.3234 20.3752L70.3242 20.3756L70.3235 20.3759L70.3234 20.3752L66.9016 20.0968C66.9016 20.0968 44.4149 29.847 32.4075 28.643C20.4002 27.4389 13.3359 25.8827 13.3359 25.8827L10.6379 28.7518L0.411374 39.6256C29.8741 48.374 57.4484 44.4981 83.1342 27.9979L70.3239 20.3751Z" fill="#E8B86B"/>
<path d="M64.0043 16.6154L64.0139 16.621L64.0143 16.6206L37.826 1.0373C37.6216 0.915731 37.382 0.867507 37.1465 0.9006C36.9111 0.933693 36.694 1.04612 36.5311 1.21931L15.6866 23.3832L16.3018 24.6437L37.2787 25.8457L65.3429 18.5291L64.0043 16.6154Z" fill="#E8B86B"/>
<path d="M37.1525 0.941926L72.3218 34.1407L72.3221 34.1423C53.3718 43.5357 33.4362 46.3311 12.5119 42.5272L37.1525 0.941926Z" fill="#FBCE85"/>
<path d="M34.8988 4.74559L12.512 42.5272C33.4363 46.331 53.3718 43.5356 72.3221 34.1423L72.3219 34.1406L66.8058 28.9336L46.933 31.3673C35.6293 32.7516 27.2194 21.156 32.0461 10.8415L34.8988 4.74559Z" fill="#FBC773"/>
<path d="M55.0441 40.2044L55.246 40.7456C47.2379 42.9968 39.062 44.1392 30.7198 44.1709L30.7778 43.6153L37.1524 0.941873L55.0441 40.2044Z" fill="#E8B86B"/>
<path d="M33.4779 25.5415L30.7781 43.6156L30.7201 44.1712C39.0623 44.1395 47.2382 42.9971 55.2462 40.7459L55.0444 40.2047L50.8015 30.8939L46.9329 31.3676C41.3048 32.0569 36.3947 29.5278 33.4779 25.5415ZM36.5314 1.21942L0.411486 39.6257C4.48126 40.8342 8.51463 41.8006 12.5122 42.5271L34.8893 4.76203L34.9017 4.7392L34.9019 4.73934L36.5448 1.22842L36.5759 1.17492L36.5314 1.21942Z" fill="#D7AB64"/>
<path d="M64.0045 16.6152L70.3241 20.3754C51.4132 29.7343 31.5196 32.5255 10.6445 28.7454L15.6853 23.3832L15.687 23.3829C32.4373 25.4339 48.543 23.1769 64.0045 16.6152Z" fill="#FBC773"/>
<path d="M32.4812 23.9832C26.9569 24.2765 21.3592 24.0777 15.6871 23.3833L12.6325 26.6309L10.6446 28.7456C20.1091 30.4594 29.3717 30.8225 38.4326 29.835C35.9083 28.5012 33.8461 26.4429 32.4812 23.9832Z" fill="#E8B86B"/>
</g>
<defs>
<clipPath id="clip0_2306_17102">
<rect width="73.2668" height="67.3262" fill="white" transform="translate(1.61575 26.5413) rotate(-9.25755)"/>
</clipPath>
</defs>
</svg>
