<svg width="84" height="84" viewBox="0 0 84 84" fill="none" xmlns="http://www.w3.org/2000/svg">
<g clip-path="url(#clip0_1484_1873)">
<path d="M15.3523 75.3554L8.66409 70.7794L11.4299 77.5678L7.65833 75.5066L11.7316 80.586L8.26171 79.0269C8.26171 79.0269 10.27 82.6676 12.0333 83.5024C13.1242 84.019 14.4649 83.7605 15.6539 83.5527C17.4359 83.2414 18.9369 81.4265 20.733 81.6418C22.0624 81.8011 22.7759 83.499 24.0519 83.9046C24.9786 84.1993 26.0347 84.2258 26.9685 83.9549C27.7008 83.7425 28.1301 82.8383 28.8795 82.6977C29.8231 82.5207 30.7651 83.5375 31.6955 83.3011C32.5942 83.0728 32.8809 81.5236 33.8076 81.4907C35.0171 81.448 35.5619 83.3157 36.7242 83.653C37.386 83.8451 38.144 83.7525 38.786 83.5022C39.9421 83.0514 40.4947 81.4728 41.7026 81.189C42.253 81.0596 42.8159 81.3945 43.362 81.541C44.1454 81.7511 44.8791 82.4498 45.6753 82.2953C46.7498 82.0867 47.1562 80.544 48.1896 80.1832C48.7754 79.9787 49.4413 80.1142 50.0502 80.2335C51.9659 80.6087 53.5834 82.4201 55.5315 82.2952C56.4594 82.2357 57.0804 81.1521 57.9956 80.9878C58.9943 80.8085 60.0261 81.1539 61.0129 81.3901C62.3431 81.7084 63.5332 82.9565 64.885 82.7479C65.7962 82.6072 66.178 81.023 67.0977 81.0884C68.0908 81.159 68.3269 82.7402 69.2098 83.2005C70.1458 83.6883 71.4017 84.2604 72.3276 83.7536C73.3626 83.1872 73.1487 81.5356 73.6854 80.485C74.3119 79.2587 75.5096 78.2998 75.8477 76.9649C76.0745 76.0699 75.8391 75.1114 75.6969 74.1991C75.4408 72.5561 74.4396 69.3715 74.4396 69.3715L74.3893 74.4505C74.3893 74.4505 72.8971 72.7596 72.4784 71.7351C72.0478 70.6815 72.5672 69.3057 71.9252 68.3659C70.1448 65.7595 63.7787 63.5383 63.7787 63.5383L15.3523 75.3554Z" fill="black" stroke="black" stroke-width="0.124924"/>
<path d="M15.6275 18.9899C14.0092 18.1929 20.9452 18.3491 21.4636 16.5714C22.0495 14.5564 17.7123 13.7344 18.2915 13.1035C25.4 5.35375 43.7597 -9.10668 66.8731 11.9936L67.133 15.9799L69.0395 18.4064L70.946 25.0792L70.8593 41.3718L69.3861 45.3581L71.0326 47.2646V71.7896" stroke="black" stroke-width="1.6365" stroke-miterlimit="36" stroke-linecap="square"/>
<path d="M14.598 79.5291L13.3911 40.3056L17.3638 39.7021L13.8437 37.5398L13.894 25.0685C13.894 25.0685 14.8609 22.3778 15.0031 22.2355C15.1453 22.0933 14.8253 19.0352 14.8253 19.0352L19.2701 18.6441L17.7055 13.7015C39.1312 -7.71421 58.322 3.69658 66.4196 12.6357L66.5618 16.156L68.6952 18.2894L70.6865 24.8677L70.5087 41.2239L69.0153 45.2776L70.7221 46.9488L70.5088 76.3559L66.7752 80.0895L14.598 79.5291Z" fill="#E5E5E5" stroke="black" stroke-width="0.749543" stroke-linejoin="bevel"/>
<path d="M50.2373 3.08447L60.8616 12.9495L62.1691 16.5701L65.5886 24.5155L65.8903 42.7194L64.4975 45.7633L66.1067 48.4788L66.2073 80.0595" stroke="black" stroke-width="1.6365"/>
<path d="M48.0549 2.11719C48.0549 2.11719 46.3947 5.30862 44.4689 6.21082C41.5373 6.8113 37.9641 6.38171 34.5121 6.51254C33.232 6.56106 31.4198 6.3467 30.2377 7.01541C28.9587 7.73893 28.0754 10.3344 28.0754 10.3344C28.0754 10.3344 29.8753 7.97408 31.1932 7.46801C32.7269 6.87916 36.1213 7.5183 36.1213 7.5183L32.7018 11.3401C32.7018 11.3401 30.9394 14.0808 30.3886 14.2065C29.5109 14.4066 26.6241 13.9111 25.561 13.8545C24.3722 14.4264 23.0467 15.4636 23.0467 15.4636L26.3657 14.659L28.4777 15.363C28.4777 15.363 26.4964 17.2099 25.8628 18.3803C25.2819 19.4535 24.8571 21.9004 24.8571 21.9004C24.8571 21.9004 25.938 19.4149 26.6675 18.2797C27.3893 17.1565 29.1818 15.1619 29.1818 15.1619C29.1818 15.1619 30.4478 15.2296 30.9922 14.9607C31.9915 14.4673 33.3054 12.547 33.3054 12.547C33.3054 12.547 33.4847 15.0557 34.0095 16.1676C34.7514 17.7398 37.3284 20.1906 37.3284 20.1906L37.9319 22.906L38.0325 19.1848L40.3457 19.2854L36.2222 17.7768C34.7172 16.3598 34.2092 14.029 34.3112 11.1388C34.3112 11.1388 36.7396 10.2718 37.4291 9.0771C37.6642 8.66953 37.9319 7.92049 37.9319 7.92049C37.9319 7.92049 43.3574 7.86949 45.3744 7.31704C46.9388 6.21144 50.609 2.70561 50.609 2.70561L48.0549 2.11719Z" fill="black" stroke="black" stroke-width="0.124924"/>
<path d="M26.9728 25.4085C25.2495 25.4214 23.6116 25.5842 23.6116 25.5842C19.9658 25.4462 21.0967 27.8845 22.3858 27.9109L25.3878 27.9733L25.5713 36.1832C25.5034 37.2463 27.1277 38.7535 27.8394 36.9796L28.0853 33.673C30.4716 34.267 31.4617 36.0106 32.4966 37.7174C33.6659 38.3873 34.9123 39.1813 34.7023 36.3667L32.1296 32.8141C34.1235 30.7621 34.2266 26.5863 29.8303 25.6154C29.0711 25.4478 28.0066 25.4008 26.9726 25.4085H26.9728ZM29.0145 28.0593C29.7196 28.0462 30.5025 28.6969 30.9938 30.2728C29.8201 30.4014 28.6463 30.6132 27.4725 30.2728C27.5192 28.9412 28.2154 28.0741 29.0145 28.0593Z" fill="black"/>
<path d="M40.1248 25.8894C41.2764 26.1486 41.6968 27.6426 42.1775 29.3823L42.1162 37.1032C41.3196 37.4479 40.5231 37.4518 39.7264 37.1032L39.7877 28.7696C39.7555 28.3658 39.0166 27.8947 39.0218 26.9619C39.0238 26.6126 39.3474 25.7145 40.1248 25.8894Z" fill="black"/>
<path d="M47.9987 25.642C44.2179 25.6022 45.4445 28.4503 45.5471 28.4645C46.4251 28.5861 48.1278 28.5405 48.1236 28.5856C47.8698 31.3877 48.3606 35.2928 48.4281 37.0414C48.4798 38.3782 50.7145 38.6787 50.8173 37.5918C50.8841 36.8854 50.8173 33.6099 50.8173 33.6099L53.2689 33.1805C56.88 32.3491 56.6073 25.7339 53.8194 25.7045L47.9987 25.642ZM50.8095 28.2615C54.8149 28.2216 54.2899 31.2334 50.423 31.4003C50.0669 30.4586 50.2031 29.3762 50.4113 28.2733C50.5499 28.2655 50.6803 28.2628 50.8095 28.2615Z" fill="black"/>
<path d="M15.5716 79.7177C15.7016 79.501 18.0847 73.9548 18.0847 73.9548L18.6047 76.9879L20.1212 75.818L20.3812 79.7609L15.5716 79.7177Z" fill="black" stroke="black" stroke-width="0.124924"/>
<path d="M37.3664 79.6741C37.4964 79.2841 38.753 74.5178 38.753 74.5178L39.8795 80.0641L37.3664 79.6741Z" fill="black" stroke="black" stroke-width="0.124924"/>
<path d="M46.6795 79.7354L51.766 71.7178L52.5949 78.1321L55.1971 75.1486L56.2782 77.6193L57.8371 78.0107L62.4897 78.4942L65.7679 75.1852L66.175 80.1792L46.6795 79.7354Z" fill="black" stroke="black" stroke-width="0.124924"/>
<path d="M28.4844 80.4548L29.7941 72.1304L32.1241 79.9349L28.4844 80.4548Z" fill="black" stroke="black" stroke-width="0.124924"/>
</g>
<defs>
<clipPath id="clip0_1484_1873">
<rect width="84" height="84" fill="white"/>
</clipPath>
</defs>
</svg>
