<svg width="84" height="84" viewBox="0 0 84 84" fill="none" xmlns="http://www.w3.org/2000/svg">
<path d="M38.8491 75.2587L43.6686 75.5239L46.9268 75.2587L50.1172 74.1981L54.5295 72.1299L60.3672 68.1527L66.4764 60.8875L71.0244 51.6072L72.2463 41.9027L68.5128 27.8496L63.1503 16.7663L61.4533 14.6451L53.7149 9.6072L51.0676 8.65265H43.3971L33.9617 8.33447L31.8574 8.97084H29.7531L22.0826 10.986L17.4667 14.2739L13.1902 18.5693V19.842L11.4254 25.6224L12.3757 31.2966V41.3723L13.1902 48.2663L16.72 52.8269L16.177 56.486L18.2813 61.0466L27.2415 70.539L33.0792 73.4026L38.8491 75.2587Z" fill="white"/>
<path d="M38.9305 47.054C38.9305 47.054 38.9305 45.8782 39.5217 46.1301C40.113 46.3821 41.8904 48.1774 41.8904 48.1774L38.9294 47.0542L38.9305 47.054Z" fill="black"/>
<path d="M29.0403 51.5371C29.0403 51.5371 27.8964 54.4098 27.1825 55.1171C26.4685 55.8244 26.0582 55.8733 25.7792 56.9447C25.5002 58.0162 25.7077 61.164 26.0839 61.7519C26.4601 62.3399 27.3454 63.0118 27.3454 63.0118C27.3454 63.0118 26.335 58.4798 26.6394 57.6382C26.9439 56.7967 27.4674 56.3617 28.0812 55.495C28.6962 54.6285 29.0424 51.5378 29.0424 51.5378L29.0403 51.5371Z" fill="#E2E2E2"/>
<path d="M38.7078 37.2508C38.7078 37.2508 38.9844 42.1827 39.522 42.7706C40.0595 43.3586 42.8253 44.6291 42.6934 44.4084C42.5615 44.1876 43.3841 43.5402 43.845 43.7014C44.3059 43.8625 44.0291 43.4714 43.845 43.0159C43.6609 42.5606 44.4804 43.1905 44.4804 43.1905C44.4804 43.1905 44.4487 42.7495 44.5924 42.3821C44.736 42.0146 44.6285 41.5107 45.1929 41.1747C45.7576 40.8385 38.7089 37.2505 38.7089 37.2505L38.7078 37.2508Z" fill="#E2E2E2"/>
<path d="M39.6256 50.7289C40.1123 51.6308 41.9399 51.9038 42.8537 52.0717C43.7675 52.2397 44.2434 52.0087 43.8442 51.1689C43.4451 50.3289 42.5682 48.7257 41.6712 47.9773C39.9888 46.5738 37.8224 46.8783 39.1856 47.6413C42.0476 49.2436 40.4098 49.741 39.9385 50.245C39.4674 50.7488 39.1851 49.912 39.6249 50.7286L39.6256 50.7289Z" fill="#C7C7C7"/>
<path d="M29.9187 50.8563C29.9187 50.8563 30.4204 49.505 30.7429 49.2737C31.0654 49.0424 30.7598 50.2097 31.1729 50.659C32.0999 51.6676 34.0127 51.3369 34.4965 51.7358C34.9802 52.1347 33.6484 52.5218 32.869 52.4588C32.0896 52.3958 30.1334 52.0876 29.9189 50.8562L29.9187 50.8563Z" fill="#8F8F8E"/>
<path d="M37.748 56.1667C37.748 56.1667 39.9471 53.0173 40.4105 55.4528C40.624 56.5752 42.8971 57.0447 41.8882 57.4512C41.4504 57.6277 39.4142 56.7662 39.0739 56.9447C37.2125 57.9207 35.3428 57.7236 35.5262 57.5437C35.8507 57.2266 37.4228 56.4396 37.7486 56.1671L37.748 56.1667Z" fill="#C7C7C7"/>
<path d="M31.7298 59.9033C31.7298 59.9033 34.773 59.904 35.382 61.1635C35.9911 62.4229 39.8574 63.0388 41.4362 62.087C43.0149 61.1352 44.0577 60.4982 46.1879 59.725C48.3183 58.9517 48.6527 57.7825 45.9053 58.1991C43.1579 58.6157 34.0714 58.2384 33.2974 58.7285C32.5249 59.2196 29.9061 59.6979 31.7307 59.9037L31.7298 59.9033Z" fill="#C7C7C7"/>
<path d="M30.402 66.182C31.6923 66.4272 38.4835 69.2263 42.6937 68.5826C46.9039 67.9389 49.1081 66.6785 50.3983 65.6149C51.6883 64.5513 53.5516 63.3752 52.5483 65.6149C51.5451 67.8546 49.0006 73.5657 41.0274 72.3899C33.0541 71.2142 31.6922 69.7597 30.9756 68.4432C30.2575 67.1259 29.1103 65.937 30.4014 66.182H30.402Z" fill="#C7C7C7"/>
<path d="M38.7147 34.54C38.7147 34.54 38.7807 37.2811 38.7084 37.9815C38.6362 38.6819 43.5167 41.9873 45.8818 41.4834C48.2469 40.9795 49.9683 40.2088 50.0035 39.6423C50.0386 39.0758 51.7783 36.3557 48.3553 35.8772C46.6787 35.6431 43.6611 34.2047 42.048 34.0924C40.4352 33.98 38.5902 31.3487 38.7151 34.54H38.7147Z" fill="#C7C7C7"/>
<path d="M22.5713 41.5388C22.5713 41.5388 17.3749 39.2035 18.2081 37.1013C18.9756 35.165 26.3687 34.0099 27.0236 33.7002C27.6785 33.3905 27.3816 34.3203 27.7273 35.8769C28.1079 37.5912 27.8033 42.7705 26.5312 42.7705C25.2591 42.7705 23.8391 42.2561 22.5711 41.5391L22.5713 41.5388Z" fill="#C7C7C7"/>
<path d="M18.6119 38.739C18.6119 38.739 16.3543 37.1432 17.5368 35.8834C18.7192 34.6236 20.6367 34.8336 22.5719 34.2457C24.507 33.6578 25.1697 32.44 25.9222 32.188C26.6747 31.9361 27.6423 32.188 27.6423 32.188V30.3403C27.6423 30.3403 28.8248 30.4243 28.6098 31.3481C28.3948 32.272 27.8573 33.6998 26.6747 34.1197C25.4921 34.5396 23.0195 35.6314 21.5144 35.7994C20.0094 35.9674 18.7192 36.4713 18.9343 37.4792C19.1492 38.487 19.1492 38.739 19.1492 38.739H18.6112H18.6119Z" fill="black"/>
<path d="M37.2647 31.3486C37.2647 31.3486 38.716 32.9444 38.716 33.6163C38.716 34.2882 39.4685 33.9523 41.7262 34.5402C43.9839 35.1281 46.8865 35.548 47.3166 35.8C47.7465 36.052 50.0508 39.7238 50.3196 38.4498C50.4369 37.8941 50.8643 37.0598 50.0042 36.052C49.1442 35.0441 48.4992 33.8683 46.6716 33.8683C44.844 33.8683 40.8663 33.6163 39.6837 32.6925C38.4999 31.7698 37.2644 31.3498 37.2644 31.3498L37.2647 31.3486Z" fill="black"/>
<path d="M34.8523 28.9526C34.8523 28.9526 34.9521 29.8371 35.7046 30.3411C36.4571 30.845 38.5913 32.09 38.5913 32.09C38.5913 32.09 35.3774 30.9571 34.737 30.0051C34.2619 29.2966 34.8524 28.953 34.8524 28.953L34.8523 28.9526Z" fill="black"/>
<path d="M33.4472 41.1751C33.4472 41.1751 33.9847 42.183 33.4472 43.2748L32.9097 44.3667C32.9097 44.3667 33.0023 43.1174 33.298 42.666C33.5939 42.2142 33.4473 41.1748 33.4473 41.1748L33.4472 41.1751Z" fill="black"/>
<path d="M46.5807 49.4011C46.8599 49.8976 47.1278 50.3966 47.4214 50.8864C47.7008 51.3801 47.9928 51.8699 48.3108 52.3463C48.6346 52.8132 48.9531 53.3099 49.3867 53.6738C49.4399 53.7167 49.4954 53.7564 49.5487 53.7843C49.6126 53.8174 49.689 53.8532 49.7687 53.9008C49.9217 53.9905 50.0553 54.0806 50.1862 54.1773C50.4459 54.369 50.688 54.5698 50.9146 54.7806C51.3668 55.2022 51.7796 55.6464 52.156 56.1092C52.5289 56.5736 52.8763 57.0548 53.1227 57.5742C53.2471 57.8333 53.3512 58.1 53.4123 58.3765C53.4742 58.658 53.4608 58.9326 53.4662 59.202C53.4525 59.7446 53.4553 60.2914 53.3364 60.8279C53.3616 60.2865 53.3166 59.7466 53.2616 59.2079C53.2298 58.9379 53.2272 58.6666 53.1504 58.4162C53.0752 58.1616 52.9587 57.9123 52.8217 57.6702C52.2583 56.7053 51.4785 55.8061 50.5856 55.001C50.3597 54.8018 50.1339 54.602 49.8897 54.4222C49.7697 54.3317 49.6408 54.2448 49.5174 54.171C49.4606 54.1352 49.3883 54.1008 49.3084 54.0588C49.2185 54.0102 49.1467 53.9566 49.08 53.9022C48.823 53.6811 48.6416 53.4429 48.4652 53.2028C48.2911 52.9622 48.1349 52.7168 47.9915 52.4678C47.4142 51.473 46.9383 50.4524 46.5464 49.4101L46.5831 49.4017L46.5807 49.4011Z" fill="black"/>
<path d="M25.9219 61.1634C25.7557 60.7406 25.6956 60.2921 25.7213 59.8442C25.7363 59.6197 25.7801 59.3956 25.8681 59.1776C25.9637 58.9561 26.0887 58.7579 26.2192 58.5584C26.7393 57.7661 27.3799 57.0372 27.8971 56.2636C28.1443 55.88 28.4096 55.4779 28.459 55.087C28.5024 54.6385 28.5919 54.2032 28.6786 53.7659C28.8707 52.8949 29.0816 52.0274 29.3539 51.1689C29.2544 52.0498 29.1101 52.9245 28.9876 53.7998C28.9215 54.236 28.8559 54.675 28.8155 55.1061C28.7602 55.6011 28.4655 55.9967 28.204 56.3918C27.6519 57.1726 27.0185 57.9046 26.4424 58.6542C25.8138 59.3775 25.7391 60.3013 25.9224 61.1646L25.9219 61.1634Z" fill="black"/>
<path d="M25.7794 56.5443L26.7911 55.2619C27.1252 54.8367 27.4591 54.4092 27.7351 53.9732C27.8023 53.8643 27.8668 53.7545 27.9141 53.6458C27.9378 53.591 27.9561 53.5395 27.9705 53.4864L28.0251 53.2996C28.0996 53.0506 28.1918 52.8081 28.2941 52.5683C28.4977 52.0887 28.7426 51.6208 29.0406 51.1692C28.9369 51.6705 28.8003 52.1615 28.6531 52.6475L28.4376 53.3732L28.3907 53.5543C28.3708 53.6239 28.3442 53.6928 28.3144 53.7563C28.255 53.885 28.1826 54.0024 28.1079 54.1182C27.8027 54.5779 27.4293 54.9918 27.0406 55.3957C26.6469 55.7966 26.2274 56.1816 25.7794 56.5443Z" fill="black"/>
<path d="M35.7021 51.1957C34.9961 51.2174 34.2832 51.1213 33.6078 50.8843C33.274 50.7616 32.9437 50.5983 32.6798 50.3598C32.4095 50.1281 32.2214 49.8129 32.184 49.4894C32.1032 48.8732 32.3474 48.2834 32.7251 47.7969C33.1161 47.3139 33.624 46.9015 34.2464 46.627L34.2629 46.6415C33.8799 47.1024 33.5273 47.5515 33.2743 48.021C33.0137 48.4835 32.8632 48.9714 32.8977 49.4343C32.9232 49.6486 33.0222 49.8486 33.1938 50.0304C33.3689 50.2089 33.6044 50.3706 33.8736 50.5061C34.4138 50.7801 35.0531 50.9757 35.7098 51.1432L35.7017 51.1973L35.7021 51.1957Z" fill="black"/>
<path d="M31.727 48.2726C31.727 48.2726 31.0133 48.8756 31.1536 49.9537C31.2794 50.9212 31.5091 51.0055 32.372 51.3414C33.2351 51.6774 32.8678 51.8414 32.8678 51.8414C32.8678 51.8414 30.3476 52.7675 29.9175 50.857C29.4874 48.9464 31.2914 47.2891 31.7258 48.2733L31.727 48.2726Z" fill="black"/>
<path d="M37.7481 50.7492C37.7481 50.7492 38.2856 49.4894 39.0381 49.4054C39.7906 49.3214 40.6506 50.3292 40.6506 50.0773C40.6506 49.8253 41.2956 49.9093 41.2956 49.9093C41.2956 49.9093 41.0806 51.5891 40.7582 51.5051C40.4357 51.4211 41.1881 51.6731 40.4357 51.4211C39.6832 51.1692 39.5219 50.4684 39.5219 50.4684L37.7489 50.7474L37.7481 50.7492Z" fill="black"/>
<path d="M37.6938 66.7485C37.6938 66.7485 39.6289 68.5963 42.0477 68.3862C44.4666 68.1763 45.8105 67.6303 46.7781 66.7485C47.7456 65.8667 48.1218 66.2446 48.0681 66.3706C48.0143 66.4966 47.6482 66.6226 48.0731 66.6226C48.498 66.6226 49.3043 67.0005 47.3692 67.7564C45.4342 68.5122 41.2951 70.192 38.07 68.7222C34.8448 67.2524 35.6511 66.2446 36.3499 66.7064C37.049 67.1678 37.6939 66.7478 37.6939 66.7478L37.6938 66.7485Z" fill="black"/>
<path d="M42.854 57.8882C41.2952 58.0142 38.4462 58.0562 37.4249 58.098C36.4037 58.14 35.2423 57.9753 33.2979 58.4341C30.5088 59.0918 29.9176 59.9363 29.9176 59.9363C29.9176 59.9363 34.2535 58.5599 34.8448 58.9379C35.436 59.3159 37.3174 59.8618 38.5 59.6938C39.6826 59.5258 42.8002 59.8579 43.6065 59.2929C44.4128 58.7281 45.2191 58.5181 46.2404 58.5601C47.2617 58.6021 47.5304 58.5547 47.5304 58.5547C47.5304 58.5547 44.4147 57.7614 42.8562 57.8876L42.854 57.8882ZM36.404 59.3157C35.974 59.3157 35.3827 58.8957 35.3827 58.8957C35.3827 58.8957 35.3827 58.8957 35.6513 58.6438C35.9201 58.3918 35.6513 58.6438 36.1888 58.8957C36.7264 59.1482 36.8337 59.3157 36.4033 59.3157H36.404ZM37.1561 58.9276L36.669 58.7471C36.1819 58.5667 37.4249 58.4338 37.7475 58.5395C38.0699 58.645 39.145 58.3917 39.5213 58.7277C39.8987 59.0639 37.1564 58.9271 37.1564 58.9271L37.1561 58.9276ZM42.6395 58.3824C42.4244 58.4766 41.2957 58.5402 41.2957 58.5402C41.2957 58.5402 39.3606 58.3085 40.1131 58.2246C40.8652 58.1408 42.8541 58.2882 42.6396 58.3826L42.6395 58.3824Z" fill="black"/>
<path d="M36.1895 58.8956C35.652 58.6437 35.9208 58.3917 35.652 58.6437L35.3833 58.8956C35.3833 58.8956 35.9746 59.3156 36.4047 59.3156C36.8348 59.3156 36.7278 59.148 36.1902 58.8956H36.1895Z" fill="#E2E2E2"/>
<path d="M37.7481 58.5392C37.4255 58.4336 36.1825 58.5665 36.6696 58.7469L37.1567 58.9273C37.1567 58.9273 39.8981 59.0634 39.5218 58.7275C39.1444 58.3913 38.0691 58.6447 37.7474 58.5387L37.7481 58.5392Z" fill="#E2E2E2"/>
<path d="M40.113 58.2243C39.3605 58.3082 41.2956 58.5399 41.2956 58.5399C41.2956 58.5399 42.4243 58.4762 42.6394 58.3821C42.8539 58.2877 40.865 58.1403 40.1129 58.2241L40.113 58.2243Z" fill="#E2E2E2"/>
<path d="M35.383 57.2167C35.383 57.2167 36.4514 57.4044 37.1569 57.3827C37.4526 57.3738 37.6847 57.3282 37.7481 57.2167C37.9631 56.8388 38.4469 56.9647 38.4469 56.9647C38.4469 56.9647 38.1211 57.6786 36.0263 57.6366C33.9301 57.5931 35.3814 57.2155 35.3814 57.2155L35.383 57.2167Z" fill="black"/>
<path d="M41.7259 57.4681C41.7259 57.4681 39.2532 57.0921 40.1133 56.9441C40.9733 56.7961 44.1449 56.6302 43.8223 56.9441C43.4998 57.2581 42.9408 57.552 42.656 57.4681C42.3709 57.3843 41.7259 57.4681 41.7259 57.4681Z" fill="black"/>
<path d="M27.4098 63.3469C27.4098 63.3469 27.3258 52.2944 26.8903 54.0664C26.4548 55.8383 26.6754 62.4651 26.8903 62.885C27.1048 63.305 27.4102 63.3464 27.4102 63.3464L27.4098 63.3469Z" fill="black"/>
<path d="M40.113 42.7703C40.4091 42.7919 40.6953 42.852 40.9771 42.9242C41.2572 43.0003 41.5306 43.097 41.7835 43.2273C42.0306 43.3569 42.2841 43.5209 42.4042 43.7584C42.5126 43.9703 42.6154 44.1849 42.699 44.4057L42.6873 44.4104C42.5244 44.2182 42.3799 44.019 42.2413 43.8178C42.1091 43.6388 41.8901 43.5009 41.6543 43.3822C41.417 43.2645 41.1623 43.1621 40.9034 43.0633C40.6455 42.9636 40.3794 42.8735 40.1133 42.7716L40.113 42.7703Z" fill="black"/>
<path d="M44.5741 42.7702C44.1027 42.5242 43.6581 42.2545 43.2167 41.9821C42.7736 41.711 42.3477 41.425 41.924 41.137C41.5045 40.8449 41.0851 40.553 40.6844 40.2446C40.2801 39.9392 39.8804 39.6301 39.5049 39.2991L39.5376 39.2703C40.0043 39.5202 40.4468 39.7919 40.8845 40.0675C41.3257 40.3402 41.7486 40.6289 42.1712 40.918C42.5898 41.211 43.0056 41.5059 43.4048 41.8156C43.8052 42.1232 44.203 42.4339 44.5737 42.7691L44.5741 42.7702Z" fill="black"/>
<path d="M41.0538 41.0181C41.5046 41.5469 41.8765 42.101 42.2893 42.6329C42.4992 42.8951 42.7141 43.1602 42.9785 43.3737C43.0457 43.4248 43.1176 43.4718 43.1926 43.5013C43.256 43.5256 43.3754 43.5459 43.4649 43.5712C43.6574 43.6197 43.851 43.665 44.0419 43.7188L44.0314 43.7543C43.8297 43.7365 43.6305 43.71 43.4303 43.687C43.3251 43.6722 43.2424 43.6715 43.1176 43.6384C43.0074 43.6047 42.9167 43.5548 42.8324 43.5026C42.5018 43.2881 42.2631 43.0237 42.0371 42.7576C41.5932 42.2215 41.2282 41.6509 40.9992 41.0378L41.0535 41.0187L41.0538 41.0181Z" fill="black"/>
<path d="M40.4225 38.3507C40.4225 38.3507 40.3457 39.5605 41.4859 39.9845C42.6263 40.4083 44.4808 40.6603 45.193 40.2719C45.9052 39.8834 46.94 39.0015 46.2816 38.4857C46.1632 38.3929 44.7765 38.9281 43.7686 38.6656C42.7607 38.403 40.4494 37.7594 40.4897 38.1337C40.5291 38.5092 40.4219 38.3511 40.4219 38.3511L40.4225 38.3507Z" fill="white"/>
<path d="M20.6006 39.075C20.869 39.2318 21.0961 39.4185 21.3265 39.6029C21.5444 39.7961 21.7658 39.9871 21.9445 40.2088C21.6754 40.0527 21.4485 39.8657 21.2186 39.681C21.0014 39.488 20.781 39.297 20.6014 39.0754L20.6006 39.075Z" fill="black"/>
<path d="M19.2031 39.2852C19.4385 39.5866 19.6291 39.9 19.8368 40.2064C19.9352 40.3616 20.0501 40.5092 20.161 40.6578C20.2821 40.7976 20.393 40.959 20.6006 41.028C20.3659 41.0017 20.2069 40.8409 20.0673 40.709C19.9226 40.5712 19.8136 40.4153 19.7009 40.2632C19.5894 40.11 19.5013 39.9475 19.411 39.7872C19.3307 39.6217 19.2536 39.4573 19.2031 39.2844V39.2852Z" fill="black"/>
<path d="M41.8222 40.0507C41.8222 40.0507 42.8843 40.6081 43.3829 40.5451C43.8816 40.4821 44.1258 40.741 44.6885 40.3197C45.1185 39.9979 45.1932 38.0669 44.4405 38.0039C43.688 37.9408 41.9948 37.9829 41.6722 38.4343C41.3491 38.8861 41.66 39.673 41.8215 40.0506L41.8222 40.0507Z" fill="#090909"/>
<path d="M23.5569 41.0276C23.5569 41.0276 23.8256 41.0066 24.6857 40.7546C25.5457 40.5027 27.409 39.6418 27.409 39.6418C27.409 39.6418 27.7497 41.2795 26.997 42.3819C26.2445 43.4843 25.2769 43.9462 25.2769 43.9462C25.2769 43.9462 26.0107 42.5554 26.1369 42.3819C27.7164 40.2123 26.352 41.794 26.352 41.794C26.352 41.794 24.5697 42.6444 23.9289 42.7703C23.288 42.8963 22.9148 42.7703 22.9148 42.7703C22.9148 42.7703 24.7394 41.9725 24.9545 41.5526C25.1694 41.1326 25.5457 41.0277 25.5457 41.0277C25.5457 41.0277 24.2267 42.0523 24.2019 41.6506C24.1789 41.2497 23.5584 41.0281 23.5584 41.0281L23.5569 41.0276Z" fill="black"/>
<path d="M41.8602 36.7661C41.8602 36.7661 43.6076 36.8164 44.0377 36.8374C44.4677 36.8584 46.002 38.0682 46.1632 38.2362C46.3245 38.4042 45.704 38.6765 45.4083 38.7185C45.1128 38.7605 42.0488 38.5506 41.4038 38.3826C40.7588 38.2146 40.8172 38.0657 40.705 37.9207C40.3912 37.5152 40.7535 36.8922 40.7535 36.8922" fill="#CFCECE"/>
<path d="M47.5676 38.9637C47.066 38.6838 46.6716 38.6278 45.2741 36.948C43.8765 35.2683 41.6548 36.3322 40.7948 36.5002C39.9347 36.6682 39.5223 38.9637 39.5223 38.9637C41.2959 40.3636 42.3295 40.5106 43.2849 40.6159C44.4807 40.7477 44.575 40.7314 45.4174 40.3075C46.2707 39.878 48.356 39.2856 48.356 39.2856C48.356 39.2856 48.0668 39.2431 47.5658 38.9642L47.5676 38.9637ZM46.0525 39.4526C45.7031 39.5995 44.5176 40.7543 43.4574 40.4394C42.3973 40.1244 41.5104 40.1244 41.1609 39.6835C40.8115 39.2426 40.7577 38.9486 40.7577 38.9486C40.7577 38.9486 40.6502 37.3738 41.4027 37.1429C42.1552 36.9119 43.9022 36.513 44.8966 37.3109C45.8918 38.1096 46.4036 39.307 46.0533 39.4534L46.0525 39.4526Z" fill="black"/>
<path d="M23.4497 40.3488C23.4497 40.3488 20.5738 38.1537 21.2726 37.8059C21.9714 37.4581 24.5595 35.7574 25.2006 35.8834C25.8416 36.0094 26.7823 36.6183 27.1047 37.1222C27.4272 37.626 28.0824 39.2638 27.4861 39.4737C26.8898 39.6836 25.2667 40.2853 24.8561 40.4475C24.3212 40.6607 23.8882 40.4825 23.4497 40.3499V40.3488Z" fill="black"/>
<path d="M22.3392 38.6413C22.3392 38.6413 24.3642 36.5974 24.9911 36.5554C25.6181 36.5134 27.2129 37.9133 27.2129 38.193C27.2129 38.4728 26.6575 39.6759 25.6899 39.9987C24.7223 40.3216 23.952 40.2089 23.3248 39.8448C22.699 39.4821 22.1966 39.0483 22.3405 38.6421L22.3392 38.6413Z" fill="white"/>
<path d="M23.4321 39.9426C23.4321 39.9426 23.0199 39.131 23.2349 38.7389C23.4498 38.3469 25.1698 38.0561 25.4567 38.2645C25.7435 38.4728 26.1557 39.7326 25.6898 39.9987C25.2238 40.2648 23.8068 40.3211 23.4307 39.9425L23.4321 39.9426Z" fill="#010101"/>
<path d="M22.5713 38.4112C22.5713 38.4112 23.3761 37.6947 23.4755 37.5733C25.2 35.4635 26.1304 37.2553 26.6679 37.5352C27.2053 37.8151 27.4276 38.4663 26.961 38.529C26.6817 38.5665 23.3595 38.6687 23.0907 38.5988C22.8219 38.5288 22.5707 38.4111 22.5707 38.4111L22.5713 38.4112Z" fill="#CFCECE"/>
<path d="M50.4675 51.1691C50.4675 51.1691 51.2571 46.4097 51.9023 45.6259C52.5473 44.8421 54.6259 42.7706 54.4824 41.4827C54.3389 40.1946 53.6939 39.075 53.6939 39.075C53.6939 39.075 51.6022 42.6182 51.6291 43.5892C51.6371 43.878 50.9181 44.5337 50.675 44.6811C48.6656 45.8976 45.488 46.4658 44.574 46.6338C43.6599 46.8018 49.6928 47.9776 49.9732 49.0695C50.2543 50.1608 50.1158 53.0552 50.4674 51.1684L50.4675 51.1691Z" fill="#C7C7C7"/>
<path d="M22.3133 51.8415C22.3133 51.8415 22.1586 49.882 19.4352 47.6422C16.7118 45.4025 16.2816 45.8506 16.4251 43.1069C16.5685 40.3632 16.7835 39.6633 16.7835 39.6633C16.7835 39.6633 19.7901 43.3033 19.9011 43.7367C20.2954 45.2765 23.5656 47.4811 25.0399 47.5876C25.2349 47.6019 25.3449 47.7904 25.3813 47.8663C25.5972 48.3153 23.4258 49.5335 23.1719 50.4689C22.8773 51.5603 21.6093 54.3592 22.3139 51.8403L22.3133 51.8415Z" fill="#C7C7C7"/>
<path d="M25.1997 47.6426C24.716 47.5383 24.247 47.4014 23.7853 47.2506C23.3247 47.0973 22.8741 46.9252 22.4361 46.7285C22.0056 46.5226 21.5664 46.3174 21.2105 45.9914C20.8994 45.6512 20.6837 45.3266 20.4525 44.9648C20.8747 45.188 21.2179 45.5073 21.521 45.7764C21.8407 46.0225 22.2469 46.2435 22.6562 46.4469C23.0663 46.6543 23.4913 46.8492 23.9175 47.0454L25.2006 47.6412V47.6433L25.1997 47.6426Z" fill="black"/>
<path d="M23.8801 47.6417C23.3784 47.5354 22.9058 47.353 22.4688 47.1254C22.0325 46.897 21.6343 46.6087 21.3331 46.2537C21.1796 46.0778 21.0679 45.878 20.9879 45.6717C20.9293 45.4774 20.8428 45.316 20.7383 45.1349C20.5255 44.7844 20.2633 44.4433 19.9962 44.0962C20.3987 44.3538 20.7464 44.6612 21.028 45.0115C21.1695 45.1815 21.2883 45.3889 21.369 45.5797C21.441 45.7552 21.5538 45.9193 21.6786 46.0794C21.9375 46.3959 22.2828 46.6744 22.6584 46.9317C23.0385 47.1863 23.4485 47.4196 23.8816 47.6413L23.8801 47.6417Z" fill="black"/>
<path d="M44.4804 46.6351C45.2298 46.4884 45.967 46.3162 46.6959 46.1283C47.4207 45.9309 48.1439 45.7317 48.8416 45.4858C49.5442 45.2428 50.219 44.9845 50.7429 44.5624C51.2704 44.1569 51.6492 43.6132 51.7352 43.0169L51.7605 43.0161C51.8146 43.6309 51.4667 44.2431 50.9398 44.7077C50.4072 45.1782 49.6702 45.4763 48.9589 45.6982C48.2406 45.9301 47.5093 46.1375 46.758 46.2883C46.0086 46.4463 45.2483 46.5715 44.4799 46.6362L44.4804 46.6351Z" fill="black"/>
<path d="M49.9733 59.5405C49.9733 59.5405 48.1061 57.3008 48.6066 57.3848C49.1072 57.4688 49.9315 59.0533 50.2541 58.611C50.5765 58.1688 50.72 57.8135 50.5765 57.2912C50.433 56.769 50.6311 55.0351 50.7547 54.8953C50.8785 54.7556 53.1925 57.6304 53.1925 58.112C53.1925 58.5936 53.0824 60.2964 52.8329 59.5405C52.5833 58.7847 51.6516 58.286 51.7232 58.9552C51.7947 59.6244 52.3325 61.1634 51.8665 61.1637C51.4006 61.1641 50.5408 61.2192 50.3615 60.8278C50.1823 60.4364 50.9708 60.4504 51.0066 60.3313C51.0423 60.2122 51.6156 59.8763 51.1856 59.5404C50.7556 59.2044 50.5765 59.8257 50.3615 59.7251C50.147 59.6254 49.9732 59.5416 49.9732 59.5416L49.9733 59.5405Z" fill="black"/>
<path d="M28.4307 62.5506C28.4307 62.5506 27.9648 61.3601 28.1083 60.6321C28.2517 59.9041 28.4306 58.533 29.0399 58.7286C29.6492 58.9242 30.9391 59.4898 30.3659 59.725C29.7926 59.9603 29.434 60.1844 29.5774 60.4642C29.7208 60.7441 30.0072 63.0399 29.5774 62.7319C29.1476 62.4239 28.6457 62.1157 28.6816 62.3399C28.7183 62.5647 28.4318 62.5509 28.4318 62.5509L28.4307 62.5506Z" fill="black"/>
<path d="M26.2979 56.9443C26.2979 56.9443 27.4435 56.024 28.0802 54.552C28.7168 53.0798 28.8664 52.363 28.8781 51.9461C28.8897 51.5291 28.8777 50.7912 29.2944 51.0643C29.7112 51.3372 28.4393 56.2734 27.6777 56.7659C26.9162 57.2583 26.4054 57.2425 26.0829 57.6915C25.7604 58.1402 25.9126 60.7228 25.9216 61.1637C25.9306 61.6047 25.2441 60.1559 25.3814 59.316C25.5185 58.4761 25.2585 58.1603 25.7782 57.5522L26.2982 56.9434L26.2979 56.9443Z" fill="black"/>
<path d="M15.6626 33.5269C15.6626 33.5269 14.7531 36.9477 15.8793 37.2144C17.0053 37.4812 14.7276 37.4677 14.5781 36.4045C14.4284 35.3409 14.0077 34.3812 14.8351 33.954C15.6626 33.5268 15.6626 33.5266 15.6626 33.5266V33.5269Z" fill="black"/>
<path d="M51.2278 36.3037C51.2278 36.3037 51.9534 36.0729 52.5581 35.7369C53.1629 35.4009 53.6467 34.96 53.1629 34.5401C52.1953 33.7002 52.294 33.1123 52.294 33.1123C52.294 33.1123 54.0229 33.2802 54.1305 33.9522L54.2379 34.6241L54.7755 32.6924C54.7755 32.6924 56.4956 34.6241 54.7755 35.6319C53.0554 36.6397 52.0878 37.0596 52.0878 37.0596L51.9534 36.0729L51.2271 36.303L51.2278 36.3037Z" fill="black"/>
<path d="M11.861 31.4791C11.9173 33.7913 11.9498 36.1046 11.9551 38.4175C11.9624 41.592 11.6306 44.6768 12.5613 47.8027C13.1013 49.6167 14.6024 51.2616 15.7108 52.8938C16.0684 53.4204 15.7773 54.7264 15.7773 55.3698C15.7773 56.0675 15.5859 56.8953 15.9369 57.5511C17.6405 60.7334 19.5904 63.9928 22.4455 66.6519C23.4695 67.6056 24.4936 68.5593 25.5173 69.5131C26.0548 70.0138 26.6656 70.8739 27.3873 71.225C29.4638 72.2358 31.4719 73.1138 33.68 73.9353C37.7495 75.4496 41.984 76.0549 46.4829 75.6406C47.4544 75.551 48.5179 75.0192 49.4062 74.7316C50.2964 74.4431 51.5013 74.2312 52.2682 73.7571C54.4185 72.4277 56.569 71.0988 58.7194 69.7693C60.3806 68.7424 61.2268 67.9725 62.4318 66.5962C63.7133 65.133 65.3208 63.6842 66.2506 62.0597C67.2129 60.3782 68.2235 58.7093 69.1312 57.0096C69.9209 55.531 71.1843 53.9325 71.4568 52.3356C71.8604 49.9679 72.2636 47.6004 72.6672 45.2331C72.8788 43.993 73.1708 42.9484 72.8733 41.7325C71.9552 37.9813 71.3926 34.0513 69.9849 30.3914C68.8463 27.4305 67.6845 24.4483 66.1587 21.5931C65.1343 19.6758 64.0567 17.7786 63.0715 15.8485C62.7658 15.2492 62.529 15.0382 61.9337 14.5858C59.5555 12.7784 57.0797 11.0105 54.3562 9.52391C52.0932 8.28841 50.2171 8.38387 47.5588 8.33041C43.9211 8.25691 40.2836 8.16379 36.6466 8.07024C35.7609 8.04723 34.8755 8.02432 33.99 8.00067C33.7615 7.99473 33.5552 8.02824 33.3494 8.10673C33.0417 8.22414 32.7342 8.34165 32.4266 8.45874C32.1005 8.58305 31.1632 8.73471 31.8158 8.76515C30.982 8.72612 30.0374 8.55526 29.2288 8.76685C27.7714 9.14803 26.3137 9.52932 24.8562 9.9105C23.9358 10.1513 22.9565 10.3426 22.0637 10.6424C21.2236 10.9249 20.4503 11.7329 19.7909 12.2014C18.0408 13.4441 16.2499 14.5406 14.9262 16.0701C14.2547 16.846 13.5833 17.6218 12.9118 18.3975C12.3241 19.0766 12.2833 20.4708 12.0507 21.2639C11.5767 22.8777 11 24.3652 11 26.0262C11 27.9323 11.3706 29.5632 11.8516 31.4418C11.8573 31.4545 11.8605 31.4672 11.8638 31.4799C11.9545 31.8343 13.2049 31.5901 13.1099 31.2188C12.6112 29.2707 12.251 27.5838 12.251 25.6042C12.251 23.9808 12.9186 22.455 13.3815 20.8776C13.5919 20.1604 13.6727 18.9025 14.1691 18.3287C14.9976 17.3714 15.8262 16.4145 16.6547 15.4572C17.8851 14.0356 20.3742 12.6833 22.1218 11.4422C22.4199 11.2303 23.1981 10.9065 22.4342 11.1063C22.8276 11.0034 23.2212 10.9007 23.6146 10.7976C25.2253 10.3763 26.8362 9.95473 28.447 9.53356C29.7669 9.18812 29.5888 9.25993 31.1036 9.33078C31.4294 9.34626 31.7059 9.35379 32.0078 9.23861C32.3154 9.1212 32.6231 9.00368 32.9306 8.88659C33.2915 8.74882 34.2693 8.59758 33.4678 8.57626C39.1811 8.72877 44.9049 8.94662 50.6225 8.96105C52.0013 8.96465 53.6603 10.1494 54.6651 10.7498C56.2011 11.6671 57.6454 12.6805 59.0658 13.7038C59.8769 14.2884 60.6741 14.8855 61.4577 15.4927C62.3946 16.2183 62.9214 18.2196 63.4515 19.2081C65.8914 23.7588 68.3035 28.3991 69.4942 33.2643C70.1141 35.7973 70.734 38.3305 71.3538 40.8638C71.724 42.3763 71.8151 43.0418 71.5612 44.5306C71.1418 46.9915 70.7223 49.452 70.303 51.9129C70.0225 53.5583 69.0146 55.0113 68.1977 56.5405C67.285 58.2496 66.2151 60.0573 65.2046 61.8231C64.282 63.4349 62.7723 64.8466 61.5002 66.299C60.0973 67.9009 59.3416 68.586 57.4216 69.7727C56.129 70.5719 54.8361 71.3707 53.5437 72.17C53.0306 72.4869 52.5175 72.8041 52.0044 73.1215C51.8353 73.226 50.9695 73.6371 51.463 73.4771C50.2342 73.8753 49.0055 74.2733 47.7768 74.6716C47.3022 74.8251 46.828 74.979 46.3536 75.1326C46.8175 74.9824 46.874 75.0702 46.5045 75.0702H45.3763H40.8722C40.0113 75.0702 38.9203 74.6536 37.9282 74.3823C35.7427 73.7845 33.5366 73.2515 31.5469 72.2829C30.506 71.7764 29.4654 71.2698 28.4245 70.7633C27.7601 70.4401 26.9738 69.4032 26.4214 68.8887C25.1259 67.682 23.8301 66.4754 22.5345 65.2687C21.3053 64.1237 20.4693 62.5092 19.5061 61.2192C18.5669 59.9611 17.917 58.6553 17.1866 57.291C16.5621 56.1243 17.0293 54.2169 17.0293 52.9256C17.0293 52.4988 16.5813 52.0751 16.3324 51.7087C15.7224 50.8108 15.1126 49.9124 14.5026 49.0146C13.2213 47.1278 12.977 44.5817 13.1268 42.5013C13.3969 38.7558 13.2016 34.9682 13.1103 31.2186C13.1016 30.8941 11.8539 31.0903 11.8636 31.4827L11.861 31.4791Z" fill="black"/>
<path d="M49.0909 26.5409C48.7129 26.8857 48.2413 27.1551 47.7657 27.4094C47.5179 27.534 47.3015 27.6613 47.0155 27.7683C46.7332 27.8601 46.442 27.9054 46.1523 27.9396C44.9891 28.0596 43.8299 28.0062 42.6781 27.9484C41.5256 27.8857 40.3791 27.7755 39.2409 27.6272C38.1017 27.4805 36.968 27.3126 35.8416 27.0856C35.5484 27.0236 35.3015 26.9694 35.0267 26.9353C34.7537 26.8978 34.4747 26.872 34.1949 26.8464C33.6341 26.7981 33.0659 26.771 32.4967 26.7519C31.3575 26.7162 30.2126 26.7162 29.068 26.7309C26.7791 26.7732 24.4839 26.8267 22.1955 26.9363L22.2109 26.6926C23.0901 26.8235 23.9724 26.9583 24.859 27.0597C25.3023 27.1092 25.7476 27.1555 26.1928 27.1683C26.6326 27.1738 27.0877 27.126 27.5342 27.1076C27.0862 27.1519 26.6519 27.2303 26.1925 27.2468C25.7382 27.254 25.2876 27.2277 24.8381 27.1982C23.9394 27.1339 23.0451 27.0493 22.154 26.9347L20.9486 26.7802L22.1696 26.691C24.4604 26.5237 26.7532 26.3784 29.056 26.3327C30.2071 26.3069 31.3598 26.2956 32.5158 26.3207C33.6634 26.3554 34.8524 26.3846 35.9864 26.6638C38.1811 27.1234 40.4546 27.3954 42.7173 27.6188C43.8501 27.716 44.9959 27.7894 46.1204 27.7264C46.4 27.7084 46.68 27.6781 46.9351 27.6096C47.1751 27.5365 47.4364 27.4092 47.6796 27.3029C48.1667 27.0732 48.6615 26.8393 49.0709 26.5286L49.0954 26.5435L49.0909 26.5409Z" fill="black"/>
<path d="M23.69 23.7833C25.5583 24.0516 27.4286 24.3071 29.3032 24.5125C30.2398 24.6044 31.1851 24.694 32.1146 24.6828C33.0742 24.6339 34.0376 24.7281 34.9782 24.8268C36.867 25.0309 38.7262 25.349 40.5921 25.5955C41.0561 25.6516 41.5305 25.7137 41.9815 25.7143C42.4051 25.6855 42.8799 25.5584 43.3259 25.4581C44.2297 25.2402 45.1268 24.9964 46.0179 24.7448H46.0181L46.0922 24.8679C45.7039 25.0181 45.323 25.1789 44.9493 25.3495C44.566 25.5065 44.2176 25.712 43.8538 25.8963C43.485 26.0734 43.1054 26.2362 42.7302 26.4046C42.3522 26.5693 41.9714 26.73 41.5863 26.8845H41.5861L41.5542 26.8967L41.5341 26.8954L40.4591 26.834V26.792L41.5341 26.7306L41.4821 26.7411C41.8494 26.562 42.221 26.3884 42.5957 26.2192C42.9729 26.0535 43.3461 25.8819 43.7298 25.725C44.1185 25.5751 44.5227 25.4468 44.8918 25.2697C45.2706 25.106 45.6421 24.9328 46.0062 24.7491L46.0804 24.8721L46.0802 24.8724C45.1933 25.1411 44.3034 25.4009 43.3992 25.6368C43.1729 25.6955 42.9457 25.7523 42.7153 25.8048C42.4804 25.852 42.263 25.9173 41.9888 25.9245C41.4891 25.9272 41.0216 25.8668 40.5481 25.814C38.6652 25.5834 36.8082 25.2783 34.9352 25.0674C33.9972 24.9686 33.0632 24.8757 32.1239 24.923C31.1525 24.9377 30.2065 24.8365 29.2641 24.7268C27.3802 24.5034 25.523 24.1776 23.6865 23.7957L23.6892 23.783L23.69 23.7833Z" fill="black"/>
<path d="M30.3531 22.1097L32.6744 22.9171C33.4468 23.1845 34.2253 23.4531 35.0033 23.6929C35.7643 23.9259 36.6025 23.9974 37.4147 23.9354C37.8202 23.9029 38.2236 23.837 38.5948 23.7265C38.7763 23.6759 38.9539 23.5995 39.1491 23.5247L39.7172 23.3033L39.8463 23.2744L39.8935 23.2978L40.8887 23.7896L39.7338 23.6095L39.9097 23.6039H39.9095L39.342 23.8263C39.1574 23.8971 38.9629 23.9811 38.7456 24.0432C38.3219 24.1619 37.8858 24.2203 37.4491 24.2465C36.5761 24.2947 35.6873 24.1999 34.8779 23.9322C34.0978 23.6543 33.349 23.3506 32.5936 23.0481C31.8388 22.7458 31.0921 22.4329 30.3522 22.1084L30.3531 22.1097Z" fill="black"/>
<ellipse cx="61.2839" cy="49.4549" rx="6.22645" ry="9.21574" transform="rotate(14.0998 61.2839 49.4549)" fill="#D9D9D9"/>
</svg>
