<svg width="84" height="84" viewBox="0 0 84 84" fill="none" xmlns="http://www.w3.org/2000/svg">
<g clip-path="url(#clip0_1483_115)">
<path d="M0.482788 54.7332C0.758018 62.4161 2.94654 68.2528 7.5102 71.7505L14.5376 68.099L7.648 55.2843L0.482788 54.7332Z" fill="black"/>
<path d="M7.64115 65.1456C6.27707 65.6652 4.92898 66.229 3.54892 66.7045C2.52394 67.0577 1.48482 67.3755 0.431032 67.6302C-0.466889 67.8472 -1.39011 67.9422 -2.29712 68.1173C-3.74491 68.3969 -5.18766 68.7019 -6.63293 68.9942L-5.22014 60.1277L3.84122 56.6201" fill="#BC8C75"/>
<path d="M60.5606 37.095C48.8333 40.1016 33.9664 34.8549 25.6168 42.1016C24.6363 42.02 23.861 42.1771 22.9867 42.3957C21.2886 41.226 20.1606 42.2009 19.8685 43.9537C17.72 45.0882 15.2867 46.0248 13.2442 46.8758L5.15567 50.7741L-0.396545 53.2103L-0.300634 55.8404L3.10956 59.3486L5.64375 64.4149L7.29983 69.4811L7.59183 71.7233C8.40378 71.3336 9.16587 70.8138 10.028 70.5532C10.5884 70.3838 11.2235 70.6307 11.7821 70.4552C12.3932 70.2631 12.8186 69.6436 13.4382 69.4811C14.8332 69.1152 16.3196 69.2144 17.7265 68.8971C19.6414 68.4653 21.493 67.7932 23.3767 67.2411C24.0263 68.5402 24.6753 69.8381 25.3248 71.1372C25.1949 71.9816 24.6723 72.8583 24.9348 73.6714C26.0791 77.2166 27.6865 80.5909 29.1996 84H90.4531C89.8923 82.8897 89.3147 81.7902 88.6009 80.7752C88.3231 80.3803 87.5464 80.5655 87.2922 80.155C86.8845 79.4963 87.0555 78.6179 86.8105 77.883C86.4558 76.8188 85.8886 75.8341 85.4998 74.7818C85.107 73.7191 84.6236 72.6666 84.4682 71.5443C84.4084 71.1127 84.7439 70.7172 84.8817 70.3038C86.7648 71.6588 88.613 73.0614 90.5298 74.3684C91.6461 75.1295 92.7115 76.023 93.9741 76.504C94.7041 76.7821 95.6336 76.9515 96.3165 76.5722C97.4387 75.9487 98.2975 74.8619 98.9359 73.7481C99.4153 72.9118 99.5461 71.888 99.5561 70.9241C99.5694 69.6477 99.3351 68.3672 99.0041 67.1345C98.6646 65.87 97.9309 64.7381 97.5569 63.4834C97.216 62.3396 97.0981 61.1401 96.8685 59.9688C95.3298 58.7517 93.7885 57.5376 92.2519 56.3178C90.78 55.1492 89.2891 54.005 87.8443 52.8032C86.8311 51.9604 85.8692 51.0585 84.8817 50.1858C84.7098 48.6865 83.8034 48.9454 82.6075 48.9454C82.0149 45.9643 80.0185 45.7817 77.716 45.4329C76.9116 42.5273 75.0257 40.3781 72.6178 39.2306C68.7218 37.3741 64.528 37.5201 60.5606 37.095Z" fill="#68121E"/>
<path d="M-8.47372 68.8225C-8.98394 68.6319 -9.33406 68.1439 -9.81719 67.8924C-11.1404 67.5176 -11.4163 67.2992 -12.0219 66.0322C-12.5148 65.0561 -11.9709 64.3528 -11.9185 63.5519C-12.2247 61.1924 -10.2815 60.5093 -8.92154 58.6258C-7.76256 54.9504 -5.76504 52.727 -2.85867 50.565C-1.45311 49.5178 0.201335 48.839 1.61958 47.8091C3.10308 46.7318 4.40217 45.4206 5.82226 44.261C6.34346 43.8354 6.9494 43.5144 7.44132 43.0553C7.64865 42.8618 8.10826 42.4629 8.3276 42.2832C8.82563 41.8749 9.23507 41.7146 9.78624 41.3816C11.612 43.1155 13.1942 44.8007 15.0199 46.5345C14.3539 47.1776 13.7062 47.8401 13.0219 48.4636C11.7652 49.6088 10.3663 50.6041 9.19817 51.8396C7.37299 53.77 5.70677 55.8479 4.0654 57.9369C3.17791 59.0664 2.2977 60.2187 1.61958 61.485C1.26449 63.2623 1.15741 63.4303 -0.0339247 64.6887C-2.03883 67.0524 -5.21561 70.0215 -8.47372 68.8225Z" fill="#BC8C75"/>
<path d="M16.6045 45.6043C16.2999 46.1128 15.7191 46.4478 15.1577 46.6378C14.8203 46.7519 14.4415 46.7284 14.0898 46.6722C13.5589 46.5875 13.0704 46.3276 12.5741 46.1211C12.1757 45.9553 11.7776 45.7837 11.4029 45.5699C11.1013 45.3978 10.5417 44.9843 10.5417 44.9843C9.36386 44.1834 8.99649 43.5353 8.95704 42.194L8.37142 40.5405L8.09583 39.8171C7.75138 39.1679 7.94257 38.6155 8.06139 37.9224C7.54238 36.756 7.1914 36.0348 8.19918 35.4077C8.19918 35.4077 9.19784 34.7005 9.74934 34.4431C10.3844 34.1468 11.0749 33.9859 11.7473 33.7886C12.6239 33.5315 13.4881 33.1561 14.3998 33.0997C15.1049 33.056 15.7953 33.3469 16.5012 33.3753C17.1904 33.403 17.8791 33.2384 18.5681 33.2719C19.1942 33.3023 19.8683 33.2657 20.4283 33.5475C20.7619 33.7154 21.0939 33.9884 21.2206 34.3398C21.3457 34.687 21.2844 35.1131 21.1172 35.4421C20.7241 36.216 20.0427 36.0424 19.4434 36.2186L19.5181 37.1136L20.3762 37.1298C20.192 37.3623 19.6682 37.6075 18.947 37.888C18.6407 39.3413 18.0555 39.8692 17.1557 41.0227L16.7079 42.0906C16.7079 42.0906 16.8583 43.1912 16.8457 43.7441C16.8313 44.3692 16.9258 45.068 16.6045 45.6043Z" fill="#BC8C75"/>
<path d="M20.0497 30.929L18.6366 31.2401L18.9819 32.6873L19.0565 33.2884C19.5323 33.3043 20.0128 33.3389 20.4291 33.5484C20.7627 33.7163 21.0932 33.9878 21.2198 34.3391C21.345 34.6863 21.2847 35.1142 21.1175 35.4432C20.7243 36.217 20.0436 36.0428 19.4444 36.219L19.4955 36.8435L19.5296 37.1142L19.9517 37.1227L23.4258 37.0609L24.5618 35.8545L24.1483 33.8575L23.4258 33.3417L23.1487 32.4444L23.4258 32.2376L23.219 31.6536L22.1853 31.6195L21.3925 31.1016L20.0497 30.929Z" fill="#E6E6E6"/>
<path d="M44.9209 61.3471C40.8954 58.1131 38.1077 54.9622 35.8955 50.8059C33.788 50.1948 32.3292 49.5468 31.0038 48.0501C30.0777 47.0043 29.7178 45.5698 29.0747 44.3297C28.05 42.6509 27.6515 40.9791 27.2145 39.2314C26.1826 36.5495 26.1183 34.5147 26.7323 31.9973C26.5975 31.6318 26.7273 31.3231 26.8356 30.9983C26.4467 30.0694 26.714 29.1946 27.0079 28.3285C27.4787 26.497 27.9494 24.6656 28.4202 22.8341C30.3034 21.1806 32.1866 19.527 34.0697 17.8735C38.6169 18.0917 43.164 18.3099 47.7112 18.528C49.5943 23.8905 51.4775 29.2529 53.3607 34.6153L55.2864 44.8793C53.5582 51.3704 50.7092 58.0204 44.9209 61.3471Z" fill="#BC8C75"/>
<path d="M26.8844 28.6566C25.9626 26.0869 26.1041 23.8377 27.3228 21.5927C27.4296 19.1833 31.7067 13.9197 35.1663 13.2133C39.4698 10.7449 48.2882 10.3624 49.8788 15.9415C50.8044 16.1526 51.7945 16.1752 52.6557 16.5748C53.8568 17.1322 55.1555 17.7219 55.9684 18.7671C56.9386 20.0144 57.2713 21.6525 57.771 23.1516C58.3128 24.7771 58.6776 26.4568 59.0863 28.1208C59.3598 29.2343 59.6831 30.3434 59.8171 31.4822C59.88 32.0166 59.7197 32.554 59.6709 33.0899C61.1134 33.2946 61.6314 32.7807 62.7401 32.1155C62.4965 33.2036 62.1771 34.2773 62.0094 35.3796C61.8353 36.5235 61.9785 37.7114 61.7171 38.8385C61.5016 39.767 61.1829 40.7177 60.5966 41.4692C59.9912 42.2451 59.0683 42.713 58.2581 43.2717C57.6529 43.6892 57.0344 44.1037 56.3582 44.3922C55.8039 44.6287 55.201 44.9149 54.6044 44.8307C53.7472 44.7097 52.9325 44.2953 52.2172 43.8076C51.4772 43.3031 50.9406 42.5508 50.3173 41.9077C49.9174 41.4951 49.5378 41.0632 49.1481 40.641C49.3429 40.4624 49.5066 40.2421 49.7327 40.1051C50.05 39.9128 50.4488 39.8751 50.7557 39.6667C51.3182 39.2847 51.9092 38.8971 52.3147 38.3513C52.7739 37.7331 53.1343 37.0109 53.289 36.2565C53.404 35.6961 53.391 35.0404 53.0941 34.5514C52.9697 34.3464 52.6187 34.712 52.4608 34.8924C52.1491 35.2487 52.0698 35.7806 51.7301 36.1103C51.4898 36.3435 51.0955 36.3347 50.8044 36.5001C50.3776 36.7426 49.9925 37.0522 49.5865 37.3283C49.5703 37.1659 49.4783 36.9931 49.5378 36.8411C49.6349 36.5931 49.9325 36.4575 50.025 36.2078C50.1039 35.9946 50.1094 35.7368 50.025 35.5257C49.9647 35.375 49.7651 35.3309 49.6352 35.2334C48.5355 36.3558 48.1036 36.6394 46.7122 36.9872C45.5193 33.6781 44.8246 30.5844 43.8379 27.4874C43.5792 26.6754 43.1802 25.9285 42.7418 25.1977C42.7786 22.9364 42.4658 22.1862 41.4995 20.7158C39.1646 20.8616 36.8473 20.7562 34.6791 20.667C32.5606 21.3014 31.1817 22.3298 29.8074 23.7849C29.076 25.1238 28.1346 26.3201 27.2741 27.4387C27.2764 27.8447 27.07 28.2507 26.8844 28.6566Z" fill="black"/>
<path d="M29.0036 36.9142C28.6655 36.5249 28.5992 36.1835 28.5408 35.6963C28.6707 35.948 28.7133 36.2696 28.9305 36.4514C29.1015 36.5945 29.3802 36.4928 29.5882 36.5732C29.7458 36.6341 29.8642 36.7681 30.0023 36.8655C29.8237 36.8899 29.645 36.9142 29.4664 36.9386C28.673 38.5198 28.753 39.1799 29.3811 41.6756C28.3881 39.573 28.5235 39.0932 29.0036 36.9142Z" fill="black"/>
<path d="M33.242 33.6987C33.926 34.8644 34.7294 35.6828 33.8753 36.2564C33.6192 36.4966 33.3492 36.5798 33.0227 36.6705C32.2535 35.9554 31.3949 36.5985 31.6099 37.0115C31.6988 37.1822 32.467 37.1485 33.1202 36.7923L33.9484 36.4512L34.4355 36.4269C35.7088 37.2052 35.7969 40.3115 35.7366 41.5314C35.969 39.4865 36.0413 37.2141 34.5817 36.2077C34.5506 34.8772 34.2416 34.4926 33.242 33.6987Z" fill="black"/>
<path d="M26.9734 28.7937C27.1112 28.719 27.2301 28.5674 27.3868 28.5698C27.6409 28.5736 27.8812 28.7004 28.1102 28.8109C28.5386 29.0176 28.9343 29.2864 29.3503 29.5171C29.6176 29.6653 29.8755 29.8356 30.1598 29.9477C30.289 29.9986 30.4368 30.0255 30.5732 29.9994C30.7195 29.9713 30.8821 29.9133 30.9694 29.7927C31.0928 29.622 31.0957 29.3908 31.1588 29.1898C31.0268 29.3678 30.9495 29.6045 30.7627 29.7238C30.6464 29.798 30.4684 29.7762 30.3493 29.7065C30.0756 29.5465 29.9141 29.2339 29.6431 29.0693C29.1603 28.7758 28.6436 28.5321 28.1102 28.3458C27.9093 28.2757 27.6708 28.2334 27.4729 28.3114C27.2576 28.3962 27.1399 28.6329 26.9734 28.7937Z" fill="black"/>
<path d="M32.5367 29.6205C32.7607 29.8329 32.938 30.109 33.2085 30.2578C33.4177 30.3728 33.6898 30.4588 33.9147 30.3783C34.2056 30.2742 34.369 29.9593 34.6036 29.7583C34.8113 29.5803 34.9898 29.3498 35.2409 29.2415C35.631 29.0734 36.0812 29.0921 36.4811 28.9487C36.697 28.8713 36.8417 28.632 37.0667 28.587C37.4664 28.5071 37.8862 28.5281 38.2896 28.587C38.6417 28.6385 38.9671 28.8052 39.3058 28.9143C38.9556 28.7306 38.6338 28.4773 38.2551 28.3631C37.8399 28.2379 37.3939 28.1559 36.9633 28.2081C36.6086 28.2511 36.3258 28.5427 35.9816 28.6387C35.7207 28.7114 35.4187 28.5959 35.172 28.7076C34.7871 28.8819 34.466 29.1785 34.1558 29.4655C34.0015 29.6082 33.9797 29.8834 33.7941 29.9822C33.5858 30.0931 33.3147 30.0991 33.0879 30.0339C32.8672 29.9704 32.7205 29.7583 32.5367 29.6205Z" fill="black"/>
<path d="M34.2247 31.3945C34.4888 31.3601 34.7559 31.3434 35.017 31.2912C35.3024 31.2341 35.5726 31.1065 35.861 31.0673C36.1683 31.0255 36.4811 31.0565 36.7911 31.05C37.3136 31.0392 37.841 30.9431 38.3585 31.0156C38.7186 31.066 39.036 31.2797 39.3747 31.4117C39.0302 31.3543 38.6899 31.2605 38.3413 31.2395C37.5446 31.1915 36.7443 31.1665 35.9471 31.2051C35.6703 31.2184 35.4131 31.3642 35.1376 31.3945C34.8351 31.4278 34.529 31.3945 34.2247 31.3945Z" fill="black"/>
<path d="M36.8428 32.6864C37.2158 32.627 37.5418 32.3888 37.9107 32.3074C38.2766 32.2268 38.657 32.2385 39.0302 32.2041C38.6628 32.296 38.2906 32.3706 37.9279 32.4797C37.5836 32.5833 37.27 32.8118 36.9117 32.8414C36.4844 32.8767 36.0619 32.7266 35.6371 32.6692C36.039 32.6749 36.4458 32.7495 36.8428 32.6864Z" fill="black"/>
<path d="M26.9734 30.9468C27.8388 30.7654 28.6936 31.0076 29.5398 31.1879C28.6891 31.055 27.8333 30.9764 26.9734 30.9468Z" fill="black"/>
<path d="M27.1284 31.8767C28.0597 32.2681 28.9888 32.1607 29.9532 31.9973C28.6478 32.3918 28.3251 32.449 27.1284 31.8767Z" fill="black"/>
<path d="M31.5033 44.0025C31.896 44.0946 32.3068 44.1366 32.709 44.1059C33.07 44.0783 33.4095 43.9221 33.7597 43.8303C33.6276 44.1231 33.6328 44.5335 33.3635 44.7087C33.0744 44.8968 32.6698 44.82 32.3301 44.7604C31.9982 44.7021 31.6749 44.5591 31.4 44.3642C31.1396 44.1796 30.9751 43.8877 30.7627 43.6494C31.0096 43.7671 31.2371 43.9401 31.5033 44.0025Z" fill="black"/>
<path d="M29.6948 41.2811C29.7464 40.8907 29.7393 40.4879 29.8498 40.1099C29.8933 39.961 29.9875 39.7482 30.1426 39.7482C30.3623 39.7482 30.51 39.9893 30.6938 40.1099C30.9579 39.9491 31.177 39.6194 31.4861 39.6276C32.1106 39.6442 32.703 39.933 33.2774 40.1788C33.7835 40.3953 34.2304 40.7299 34.707 41.0055C34.6668 41.3615 34.7248 41.743 34.5864 42.0734C34.4329 42.4399 34.2068 42.8217 33.863 43.0207C33.3978 43.2901 32.8312 43.4446 32.2956 43.3997C31.7494 43.3539 31.2257 43.0812 30.7799 42.7624C30.4145 42.501 30.2014 42.0741 29.9359 41.7117C29.8387 41.579 29.7751 41.4246 29.6948 41.2811Z" fill="#934B44"/>
<path d="M30.4698 41.3673C30.8112 41.3473 31.1025 41.2942 31.3999 41.1951C32.2338 41.4941 33.1025 41.359 33.9147 41.4018C33.8515 41.5395 33.8419 41.7185 33.7252 41.8151C33.458 42.0364 33.1514 42.2416 32.8123 42.3146C32.458 42.391 32.083 42.3149 31.7272 42.2457C31.4561 42.193 31.1785 42.1111 30.9521 41.9529C30.7448 41.8081 30.6306 41.5625 30.4698 41.3673Z" fill="black"/>
<path d="M31.3992 41.1958C31.3477 41.213 31.2972 41.2282 31.2458 41.2427V41.6263C31.5578 41.848 31.8283 41.7769 32.1921 41.7457C32.6188 41.88 33.0175 41.8935 33.4155 41.6945L33.4219 41.394C32.7566 41.3971 32.0668 41.4352 31.3992 41.1958Z" fill="#ECECEC"/>
</g>
<defs>
<clipPath id="clip0_1483_115">
<rect width="84" height="84" fill="white"/>
</clipPath>
</defs>
</svg>
