<svg width="84" height="85" viewBox="0 0 84 85" fill="none" xmlns="http://www.w3.org/2000/svg">
<path d="M29.0659 16.2021C27.9976 12.285 25.3566 8.93168 24.1696 7.74468L25.0598 5.51904C26.5436 7.15117 29.8672 11.5728 31.2916 16.2021H29.0659Z" fill="#BD21E4" stroke="black" stroke-width="0.890253" stroke-linecap="round" stroke-linejoin="round"/>
<circle cx="21.9439" cy="4.18369" r="3.56101" fill="#BD21E4" stroke="black" stroke-width="0.890253"/>
<path d="M23.2793 4.62882C23.9915 2.13611 21.7956 1.21618 20.6086 1.06781L22.8342 0.622681L24.1696 1.51293L25.0598 2.84831L25.5049 4.62882L24.1696 6.85445L22.0046 7.72043C21.9805 7.73717 21.9603 7.74471 21.9439 7.74471L22.0046 7.72043C22.1996 7.58501 22.6454 6.84736 23.2793 4.62882Z" fill="black" fill-opacity="0.3"/>
<path d="M24.1696 7.74471L25.5049 5.51907L25.9501 6.85445L25.5049 9.52521L24.1696 7.74471Z" fill="black" fill-opacity="0.3"/>
<path d="M63.5384 18.507C65.1319 14.7726 68.2063 11.8116 69.5444 10.7979L68.9666 8.4715C67.2737 9.88561 63.3772 13.8116 61.3336 18.2029L63.5384 18.507Z" fill="#BD21E4" stroke="black" stroke-width="0.890253" stroke-linecap="round" stroke-linejoin="round"/>
<circle cx="4.00614" cy="4.00614" r="3.56101" transform="matrix(-0.891268 -0.453476 -0.453476 0.891268 75.7783 6.61591)" fill="#BD21E4" stroke="black" stroke-width="0.890253"/>
<path d="M68.4004 8.35583C68.4116 6.76333 71.0732 5.72029 72.4026 5.39783L71.6091 4.99412L69.6185 4.98016L67.8228 5.56478L66.6116 7.94514L67.1963 9.74088L68.5813 10.945C68.5164 10.7455 68.3892 9.94832 68.4004 8.35583Z" fill="black" fill-opacity="0.3"/>
<path d="M64.3843 13.3044L66.5698 13.917L68.3795 11.3418L66.9944 10.1376L64.3843 13.3044Z" fill="black" fill-opacity="0.3"/>
<path d="M3.69373 30.4462C3.69373 20.4754 12.5963 16.4989 17.0475 15.757C44.2002 9.52525 64.2309 16.6473 75.3591 21.9888C84.2616 26.262 77.8815 54.6314 73.5786 68.282C71.8949 73.6235 69.1273 81.1906 61.1151 82.526C43.5413 85.455 26.8403 83.8614 24.6147 82.526C19.7183 81.6358 14.8219 79.8553 10.8158 71.843C7.25474 62.9404 4.13885 42.9097 3.69373 30.4462Z" fill="#BD21E4" stroke="black" stroke-width="0.890253" stroke-linecap="round" stroke-linejoin="round"/>
<path d="M8.59016 26.44C5.38525 29.645 6.36452 49.1415 7.25478 58.4892C6.06778 50.1801 2.35836 30.8913 5.02916 24.6595C10.7354 15.0029 19.0386 15.3015 32.0729 14.0312C32.2575 14.0108 32.4422 13.9926 32.627 13.9765C32.4414 13.9951 32.2567 14.0133 32.0729 14.0312C22.0374 15.1389 12.524 22.5062 8.59016 26.44Z" fill="white" fill-opacity="0.5"/>
<path d="M71.7981 39.7938C73.2225 27.3303 69.4241 20.6534 67.3468 18.8729L73.1335 21.0985L76.6945 22.879L78.9201 26.44L79.8104 32.2267L79.3652 40.2389L78.0299 50.922L74.0237 66.9465L71.353 74.0686L68.6822 78.5198C68.2371 78.965 66.3676 80.3894 62.4504 82.526C68.6822 78.965 70.0176 55.3732 71.7981 39.7938Z" fill="black" fill-opacity="0.35"/>
<path d="M6.21843 48.7999C5.83821 46.5953 5.62094 44.3762 6.08444 42.1571C6.42121 40.5498 6.91005 39.0004 8.09415 37.7732C8.22813 37.632 8.35125 37.48 8.48161 37.3352C8.61559 37.1904 8.73871 37.0383 8.85096 36.8827L11.4835 35.5288C12.215 35.308 12.8704 35.1088 13.6018 34.888C13.1311 33.8491 12.6748 32.8499 12.2186 31.8508C12.2186 31.8508 11.7804 30.2182 11.6863 28.4371C11.5704 24.8062 12.9863 23.2315 13.0261 23.188L11.6247 23.5355C11.3749 23.5681 11.1685 23.6116 10.9657 23.6152C10.7339 23.6188 10.542 23.5283 10.4515 23.2894C10.2922 22.8767 10.4117 22.3518 10.7665 22.0948C11.0997 21.8522 11.4437 21.6205 11.8094 21.4323C12.7183 20.9617 13.7105 20.7662 14.7099 20.5852C15.9592 20.3608 17.241 20.2304 18.407 19.6911L29.2703 18.8729C29.6578 19.7816 30.0018 20.6721 30.411 21.5337C30.7441 22.236 31.3018 22.6486 32.1201 22.7029C33.746 22.8115 35.3683 22.9998 36.9941 23.0613C39.2247 23.1446 41.4517 22.9853 43.628 22.464C44.7397 22.1998 45.8224 21.7871 46.9159 21.4395C46.9521 21.4287 46.9847 21.3961 47.0934 21.3201L47.9335 21.7762C48.0711 21.9065 48.1399 21.9898 48.2268 22.0549C48.8786 22.5256 49.505 23.0468 50.1966 23.4414C50.9281 23.8577 51.7284 24.1618 52.5033 24.5057C53.4774 24.9401 54.4514 25.3745 55.2626 26.0877C55.2807 26.1022 55.2988 26.113 55.3133 26.1311C55.8311 26.7936 56.5481 27.2063 57.2216 27.6769C58.3803 28.4914 59.3073 29.5448 60.2235 30.6127C60.9513 31.4598 61.6755 32.3142 62.4504 33.2192C62.1028 33.0671 61.8167 32.9368 61.5234 32.821C60.2561 32.3142 58.9416 32.0571 57.5728 32.097C57.428 32.1006 57.2397 32.0065 57.1347 31.8979C56.0918 30.7865 55.0743 29.6571 54.035 28.5457C52.0905 26.475 49.7223 25.103 47.0282 24.2342C46.0976 23.9338 45.1995 23.5428 44.287 23.1953C44.2399 23.1772 44.1892 23.1663 44.0842 23.1337C44.182 23.7564 44.2689 24.3392 44.3667 24.9618C43.8271 24.8424 43.3383 24.6976 42.835 24.6324C41.133 24.4116 39.4275 24.2016 37.722 24.0243C36.6393 23.912 35.5529 23.8288 34.4702 23.7962C32.7212 23.7419 31.0954 23.2206 29.4985 22.5726C28.26 22.073 27.0252 21.5119 25.6818 21.3925C24.7693 21.3128 23.8423 21.3961 22.9262 21.4323C22.5206 21.4468 22.1187 21.5264 21.7131 21.5771C21.6986 21.6097 21.6805 21.6386 21.666 21.6712C21.9376 21.9572 22.1838 22.2685 22.4844 22.5219C23.6902 23.5355 24.9938 24.4442 26.1127 25.5483C27.9341 27.3511 28.872 29.5629 28.5787 32.1838C28.4483 33.3604 28.0355 34.4428 27.3837 35.4274C26.8551 36.2274 26.0476 36.6039 25.1459 36.7524C24.2877 36.8935 23.4186 36.9515 22.5568 37.0456C22.4373 37.0601 22.3214 37.0745 22.1404 37.0963C22.2526 37.3352 22.3396 37.5488 22.4482 37.7515C23.2014 39.1452 24.3782 40.0864 25.7398 40.8177C27.8617 41.9544 30.1249 42.5662 32.5329 42.7073C34.0393 42.7978 35.5385 43.015 37.0376 43.1816C37.2259 43.2033 37.4106 43.2648 37.617 43.3807C37.4866 43.4422 37.3635 43.5363 37.2259 43.5617C36.6537 43.6739 36.0707 43.873 35.5022 43.844C33.5396 43.7499 31.5552 43.8259 29.6324 43.3264C28.1695 42.9463 26.7319 42.4865 25.2835 42.0593C25.1604 42.0231 25.0373 41.9906 24.8417 41.9326C25.0228 42.2874 25.1785 42.5806 25.3197 42.8775C25.7108 43.692 26.0982 44.5029 26.4821 45.321C27.1556 46.7365 27.1085 48.1917 26.6559 49.647C26.359 50.6027 25.9643 51.5222 25.6601 52.4742C25.0155 54.4978 24.8091 56.5938 24.6498 58.7007C24.4832 60.851 24.6715 62.9579 25.2473 65.0286C25.9136 67.425 26.0584 69.8613 25.9027 72.3302C25.852 73.1339 25.8448 73.9375 25.8194 74.7412C25.8158 74.8244 25.8303 74.9113 25.8375 75.0525C26.3879 74.6289 26.8949 74.2307 27.4091 73.8398C29.216 72.4714 31.0809 71.179 33.2354 70.4188C34.2349 70.0677 35.285 69.8396 36.3278 69.6477C37.3128 69.4631 38.2253 69.8577 39.1378 70.274C38.754 70.3537 38.3738 70.4442 37.9899 70.5093C36.9507 70.6903 35.9078 70.846 34.8722 71.0342C33.3694 71.3094 32.0658 72.0732 30.7586 72.8081C29.082 73.7529 27.5213 74.8461 26.2359 76.3014C25.5116 77.1268 24.9105 78.0318 24.5231 79.0563C24.2913 79.6753 24.1791 80.345 23.998 81.04L21.351 82.0392C19.8048 82.622 18.226 83.0456 16.5567 83.0311C16.3539 83.0275 16.1475 83.0238 15.9157 83.0202C15.9157 83.0202 11.8166 82.9913 9.30722 81.3297C8.31142 80.5151 7.4315 79.5775 6.70366 78.4662C5.86356 77.1847 5.24073 75.7982 5.219 74.2452C5.18641 72.1709 5.19728 70.093 5.2878 68.0224C5.37109 66.111 5.57749 64.2068 5.73682 62.299C5.802 61.5099 5.82011 60.7026 6.00116 59.9388C6.19308 59.1206 6.51898 58.3279 6.84488 57.5459C7.32286 56.3947 7.46408 55.2399 7.20699 54.0091C6.83764 52.2896 6.51898 50.5447 6.21843 48.7999ZM24.1646 35.3623C25.508 35.1595 26.3155 34.3957 26.7718 33.1938C27.257 31.9196 27.2317 30.6489 26.6487 29.3928C25.6022 27.1447 24.0342 25.389 21.8543 24.1872C21.141 23.7926 20.3805 23.6007 19.5694 23.6478C18.6497 23.6985 17.7335 23.7853 16.716 23.8614C16.9115 24.0496 17.0383 24.1727 17.1686 24.2958C17.9653 25.056 18.7148 25.8524 19.2761 26.8117C19.4282 27.0723 19.4173 27.2425 19.1964 27.4524C18.4541 28.1656 17.6176 28.6434 16.5494 28.5602C15.6007 28.4842 15.0068 28.0063 14.8258 27.0687C14.7135 26.4895 14.7425 25.885 14.7208 25.2877C14.7135 25.1211 14.7497 24.951 14.7751 24.6831C14.2355 25.132 13.9096 25.6062 13.6851 26.1492C13.3339 26.9927 13.2687 27.8724 13.3447 28.7738C13.4498 30.0082 13.7431 31.1992 14.2138 32.3359C14.4021 32.7884 14.6954 33.2083 14.9996 33.5993C15.311 34.0047 15.76 34.2437 16.267 34.3523C17.4981 34.6165 18.7329 34.8699 19.9641 35.1342C21.351 35.4383 22.7342 35.5795 24.1646 35.3623ZM8.822 56.4237C8.68439 57.6002 8.29332 58.708 7.88775 59.8085C7.32648 61.3289 6.97886 62.8783 6.88833 64.5073C6.80504 66.0024 6.5914 67.4902 6.43932 68.9853C6.19308 71.4071 6.48639 73.7456 7.46408 76.0009C8.42368 78.2092 9.97712 79.7766 12.2077 80.678C14.2645 81.507 16.372 81.7098 18.5374 81.2029C21.2786 80.5586 23.0276 78.8644 23.7518 76.1602C24.0523 75.0416 24.2153 73.8868 24.4398 72.7465C24.4036 72.7429 24.3637 72.7393 24.3275 72.732C24.7331 70.1546 24.2334 67.6676 23.6685 65.177C23.3752 63.8883 23.0964 62.585 22.9407 61.2746C22.7487 59.6383 22.9732 57.9984 23.1833 56.3694C23.3136 55.3667 23.4042 54.3567 23.6142 53.372C23.7626 52.6661 24.0668 51.9891 24.3348 51.3122C24.7947 50.1502 24.925 48.9809 24.7005 47.7356C24.2624 45.3283 23.6757 42.9788 22.5315 40.7959C21.829 39.4565 20.9201 38.2764 19.8048 37.2447C19.0697 36.5641 18.226 36.213 17.2483 36.0754C13.5005 35.5433 9.39051 37.9687 8.22451 41.4946C7.5872 43.4169 7.44236 45.4188 7.73567 47.4243C7.98914 49.1764 8.32952 50.914 8.60835 52.6625C8.80027 53.9078 8.97046 55.1567 8.822 56.4237Z" fill="black"/>
<path d="M7.72845 47.4243C7.43514 45.4152 7.5836 43.4169 8.2173 41.4946C9.38329 37.9687 13.4932 35.5433 17.2411 36.0754C18.2188 36.213 19.0625 36.5641 19.7976 37.2447C20.9129 38.2764 21.8181 39.4565 22.5243 40.796C23.6685 42.9752 24.2551 45.3283 24.6933 47.7356C24.9178 48.9809 24.7874 50.1502 24.3276 51.3122C24.0596 51.9892 23.759 52.6661 23.607 53.372C23.3969 54.3567 23.3064 55.3667 23.1761 56.3694C22.966 57.9984 22.7415 59.6383 22.9334 61.2746C23.0891 62.5851 23.368 63.8883 23.6613 65.177C24.2262 67.6676 24.7259 70.1582 24.3203 72.7321C24.3601 72.7357 24.3964 72.7393 24.4326 72.7465C24.2081 73.8832 24.0451 75.0416 23.7446 76.1602C23.0203 78.8644 21.2714 80.5622 18.5302 81.203C16.3648 81.7098 14.2573 81.5107 12.2005 80.6781C9.96991 79.7767 8.41646 78.2092 7.45687 76.001C6.47917 73.7457 6.18948 71.4071 6.4321 68.9853C6.58418 67.4938 6.79783 66.006 6.88112 64.5073C6.97164 62.8819 7.31927 61.3289 7.88054 59.8085C8.2861 58.708 8.67718 57.6002 8.81478 56.4237C8.96324 55.1567 8.79305 53.9078 8.59389 52.6625C8.32231 50.914 7.98193 49.1728 7.72845 47.4243ZM9.33984 50.5158C9.73092 51.9855 10.1329 53.4517 10.4913 54.9323C10.8064 56.2282 10.8317 57.5351 10.7412 58.8781C10.6181 60.6918 9.99164 62.328 9.31811 63.9679C8.75322 65.3471 8.6301 66.7843 8.6989 68.2541C8.81116 70.6976 9.37243 73.0108 10.5022 75.2009C11.3025 76.7503 12.559 77.5576 14.2175 77.8544C16.6146 78.2816 19.2182 77.1739 20.4964 75.1864C20.9961 74.4118 21.2134 73.5321 21.3908 72.6488C21.5647 71.7764 21.6878 70.8931 21.8326 70.0134C22.0028 67.6024 21.8471 65.206 21.6371 62.8131C21.5067 61.2855 21.3003 59.7578 21.3184 58.2337C21.3365 56.5866 21.5502 54.9395 21.7312 53.2996C21.9521 51.3122 22.2346 49.3284 22.1187 47.3193C21.9847 44.9916 21.3329 42.8341 19.9605 40.9227C19.0625 39.6701 17.8965 38.8773 16.3249 38.7868C14.6411 38.6891 13.1311 39.1199 11.9253 40.3543C11.6935 40.5932 11.4654 40.8647 11.3314 41.1652C10.5964 42.7979 9.84317 44.4305 9.37967 46.1681C8.99583 47.6125 8.95238 49.0605 9.33984 50.5158Z" fill="#FF30DE"/>
<path d="M14.7715 24.6867C14.2319 25.1356 13.906 25.6099 13.6815 26.1529C13.3303 26.9963 13.2651 27.876 13.3412 28.7774C13.4462 30.0118 13.7395 31.2028 14.2102 32.3395C14.3985 32.792 14.6918 33.212 14.996 33.6029C15.3074 34.0084 15.7564 34.2473 16.2634 34.3559C17.4945 34.6165 18.7293 34.8736 19.9605 35.1378C21.351 35.4383 22.7343 35.5795 24.1646 35.3623C25.508 35.1596 26.3155 34.3957 26.7718 33.1939C27.257 31.9196 27.2317 30.649 26.6487 29.3928C25.6022 27.1448 24.0343 25.389 21.8544 24.1872C21.141 23.7926 20.3806 23.6007 19.5694 23.6478C18.6497 23.6985 17.7335 23.7854 16.716 23.8614C16.9116 24.0496 17.0383 24.1727 17.1687 24.2958C17.9653 25.056 18.7149 25.8524 19.2761 26.8117C19.4282 27.0724 19.4174 27.2425 19.1965 27.4525C18.4541 28.1656 17.6177 28.6435 16.5494 28.5602C15.6007 28.4842 15.0069 28.0063 14.8258 27.0687C14.7135 26.4895 14.7425 25.885 14.7208 25.2877C14.7135 25.1212 14.7461 24.951 14.7715 24.6867Z" fill="white"/>
<path d="M28.8032 24.0714C29.4188 24.0895 30.0417 24.0641 30.6536 24.1365C31.5698 24.2451 32.475 24.4659 33.3912 24.5564C34.4811 24.665 35.5819 24.6831 36.6755 24.7519C38.6671 24.8786 40.6044 25.3347 42.5562 25.7112C43.3745 25.8705 44.2038 25.9791 45.033 26.0732C45.8405 26.1637 46.6625 26.1529 47.4664 26.2723C48.6034 26.4389 49.6789 26.8226 50.5045 27.6552C51.5437 28.7086 52.4852 29.8489 53.1913 31.163C53.6295 31.9812 53.9373 32.85 53.854 33.7839C53.7997 34.3885 53.8793 34.946 54.1002 35.4962C54.169 35.6664 54.2451 35.8401 54.2776 36.0211C54.3501 36.4483 54.5963 36.604 55.02 36.6112C55.5233 36.6257 56.0266 36.6981 56.5372 36.7451C56.53 36.8356 56.5336 36.8718 56.5227 36.9008C56.4213 37.1289 56.3199 37.3569 56.2186 37.585C56.0303 38.0085 56.0339 38.0049 56.4213 38.2257C57.2288 38.6855 57.982 39.214 58.6121 39.9055C58.7026 40.0032 58.7751 40.1118 58.8583 40.2168C58.8402 40.2457 58.8221 40.2747 58.8004 40.3073C57.1021 39.862 55.4002 39.4131 53.6077 38.9425C54.3283 40.3471 55.02 41.6612 55.1974 43.178C54.7448 42.7689 54.3465 42.3128 53.9047 41.9001C53.4376 41.4693 52.9704 41.0096 52.4273 40.6946C51.8443 40.3543 51.1816 40.2313 50.5805 40.7598C50.461 40.8648 50.3053 40.9335 50.1641 41.0132C48.0494 42.1933 45.7753 42.53 43.389 42.32C42.0492 42.2042 40.8687 41.7951 39.844 40.8792C38.305 39.5036 37.139 37.9325 36.8457 35.8365C36.5995 34.0482 36.9362 32.3359 37.5735 30.6635C38.0732 29.3494 38.6743 28.1258 40.0323 27.4778C40.1192 27.438 40.2024 27.3728 40.2604 27.2968C40.4451 27.0724 40.6478 26.8552 40.7854 26.6018C40.9846 26.2253 40.9303 26.1637 40.5211 26.0443C39.0401 25.6063 37.512 25.4795 35.9803 25.3782C34.2457 25.2623 32.504 25.2153 30.8021 24.8135C30.1213 24.6542 29.455 24.4189 28.7815 24.2162C28.7779 24.1691 28.7924 24.122 28.8032 24.0714ZM39.9997 29.4399C39.2936 30.3992 38.9278 31.4961 38.7033 32.6472C38.6019 33.1685 38.5331 33.7007 38.4498 34.2256C37.7618 38.1208 41.6255 41.1399 45.1127 40.7598C46.5647 40.6005 48.0059 40.4014 49.3566 39.8149C50.7761 39.1995 51.8877 38.2692 52.3078 36.7198C52.6301 35.5288 52.5576 34.327 52.2209 33.1432C51.6705 31.2065 50.5696 29.6679 48.8641 28.5711C48.2449 28.1729 47.5424 28.0136 46.8399 27.8796C44.899 27.5104 43.0124 27.6552 41.1874 28.4661C40.6949 28.6833 40.3147 29.0091 39.9997 29.4399Z" fill="black"/>
<path d="M27.9124 44.1807C28.4701 44.8287 29.0748 45.2595 29.7338 45.6179C30.755 46.1753 31.863 46.4903 32.9964 46.7111C34.1045 46.9283 35.2198 47.1021 36.3315 47.3012C36.498 47.3301 36.6646 47.3772 36.8239 47.4749C33.7822 48.2424 30.831 47.6704 27.8617 46.8704C28.3289 47.3482 28.7851 47.8406 29.2703 48.3003C29.7338 48.742 30.3277 48.8831 30.9433 48.9447C32.9458 49.1438 34.9374 49.0424 36.9109 48.6768C37.5952 48.5501 38.2688 48.38 38.9495 48.2496C39.3116 48.1809 39.4673 47.9528 39.5072 47.627C39.5651 47.1093 39.6013 46.588 39.6484 46.0704C39.6701 45.8423 39.5253 45.8676 39.3768 45.8676C38.3883 45.8495 37.3925 45.9147 36.4184 45.7844C34.8142 45.5744 33.2246 45.2595 31.6385 44.9518C30.5088 44.7346 29.3898 44.4631 28.2673 44.2169C28.1804 44.1952 28.0971 44.1952 27.9124 44.1807Z" fill="black"/>
<path d="M39.6629 64.1199C39.1415 63.6276 38.5766 63.3742 37.9718 63.2077C37.3707 63.0412 36.7624 62.9108 36.0635 62.7443C36.6139 62.4439 37.1209 62.3896 37.6206 62.357C38.334 62.3099 39.0509 62.3172 39.7679 62.281C40.4233 62.2484 41.0534 62.1217 41.7016 61.6909C41.1693 61.5569 40.7203 61.4085 40.2604 61.3289C37.4251 60.851 34.8867 61.6619 32.5293 63.186C31.0012 64.1742 29.6976 65.4123 28.5823 66.8495C28.5244 66.9219 28.4773 67.0051 28.4628 67.1572C29.1617 66.911 29.8823 66.701 30.5595 66.4042C31.682 65.9119 32.8009 65.3978 33.8872 64.8258C34.9301 64.2792 36.0273 64.0548 37.1824 64.0693C37.9103 64.0765 38.6381 64.1163 39.3623 64.138C39.4384 64.1417 39.5072 64.1308 39.6629 64.1199Z" fill="black"/>
<path d="M26.6161 71.2333C27.5141 71.3202 28.2637 71.0777 28.9517 70.665C29.5456 70.3066 30.1286 69.9193 30.6609 69.4776C32.3591 68.0658 34.224 67.016 36.4293 66.6214C36.976 66.5237 37.5011 66.2883 38.0913 66.1001C36.7189 65.4847 34.7599 65.5933 33.326 66.3463C30.9469 67.5988 28.7634 69.1229 26.8297 70.998C26.7682 71.056 26.7175 71.1211 26.6161 71.2333Z" fill="black"/>
<path d="M39.4275 50.809C38.8952 50.8162 38.4426 50.8199 37.9935 50.8307C34.6549 50.9212 31.3271 50.7728 28.0066 50.4217C27.8581 50.4072 27.5865 50.4217 27.572 50.476C27.5068 50.6968 27.5141 50.9429 27.5177 51.1782C27.5177 51.2108 27.6589 51.2615 27.7386 51.2687C30.4544 51.5221 33.1702 51.7792 35.8861 52.0181C36.4365 52.0652 36.9941 52.0471 37.5481 52.0507C37.6749 52.0507 37.8125 52.0326 37.932 51.9891C38.5295 51.7683 38.9495 51.323 39.4275 50.809Z" fill="black"/>
<path d="M10.4914 54.9322C10.1329 53.4553 9.7273 51.9855 9.33984 50.5158C8.95238 49.0605 8.99583 47.6125 9.37967 46.1645C9.84317 44.4232 10.5964 42.7942 11.3314 41.1616C11.4654 40.8611 11.6936 40.5896 11.9253 40.3507C13.1347 39.1126 14.6447 38.6855 16.3249 38.7832C17.8929 38.8737 19.0589 39.6665 19.9605 40.919C21.3329 42.834 21.9847 44.988 22.1187 47.3157C22.2346 49.3248 21.9521 51.3086 21.7312 53.296C21.5502 54.9359 21.3402 56.583 21.3184 58.2301C21.3003 59.7542 21.5031 61.2854 21.6371 62.8095C21.8435 65.2059 21.9992 67.5988 21.8326 70.0098C21.6878 70.8894 21.5647 71.7727 21.3908 72.6452C21.2134 73.5284 20.9961 74.4081 20.4964 75.1828C19.2182 77.1702 16.6146 78.2743 14.2175 77.8508C12.5554 77.5539 11.2989 76.7467 10.5022 75.1973C9.37243 73.0072 8.81116 70.6939 8.6989 68.2504C8.63372 66.7807 8.75322 65.3435 9.31811 63.9643C9.98802 62.3244 10.6181 60.6917 10.7412 58.8745C10.8317 57.5351 10.8064 56.2282 10.4914 54.9322ZM11.9289 44.1373C11.5306 44.8323 11.183 45.4441 10.8136 46.0921C11.3821 46.2043 11.9 46.3093 12.5011 46.4287C12.3055 45.6541 12.1317 44.9445 11.9289 44.1373ZM17.7987 40.9263C17.7408 40.8032 17.6068 40.6729 17.4801 40.6294C16.1692 40.2059 14.8874 40.2385 13.6743 40.9444C12.8668 41.415 12.4431 42.1462 12.3779 43.0802C12.3743 43.1345 12.3779 43.1888 12.3816 43.2431C12.3816 43.2612 12.3997 43.2793 12.4286 43.3264C14.4564 42.8268 16.5241 42.6748 18.7293 42.9535C18.3962 42.2222 18.1101 41.567 17.7987 40.9263ZM13.4244 46.3925L14.9489 46.5337C14.7823 45.5455 14.623 44.5861 14.4637 43.6268C14.4311 43.6232 14.3949 43.616 14.3623 43.6123C14.0509 44.5246 13.7467 45.4369 13.4244 46.3925ZM15.4957 46.6785C16.401 46.6279 17.1976 46.5844 18.1101 46.5337C17.5706 45.4296 17.06 44.387 16.5494 43.3445C16.4987 43.3481 16.448 43.3481 16.3937 43.3517C16.1004 44.4377 15.8071 45.5237 15.4957 46.6785ZM18.9647 43.9671C18.9502 43.9961 18.9285 44.0214 18.9249 44.0504C18.838 44.9662 18.7547 45.8821 18.6642 46.8559C19.2001 46.9392 19.8048 47.0297 20.4313 47.1238C20.6051 46.0233 19.9062 44.5427 18.9647 43.9671ZM20.3806 67.244C20.3407 66.368 20.2611 65.4919 20.1778 64.6159C20.1669 64.5145 20.0402 64.3371 19.9641 64.3371C18.9032 64.3227 17.8277 64.2249 16.7812 64.3589C15.2386 64.5616 14.0002 65.4232 12.9754 66.5743C12.4866 67.1246 12.0448 67.711 11.527 68.3445C14.4999 68.8875 17.4076 69.159 20.3769 69.3509C20.3842 68.6269 20.4132 67.9355 20.3806 67.244ZM13.4932 69.9301L13.142 73.7167C13.7177 73.3981 14.1487 73.0977 14.2247 72.4461C14.3007 71.7908 14.4673 71.1465 14.5904 70.4948C14.6122 70.3899 14.6122 70.2849 14.623 70.1473C14.2247 70.0713 13.8445 69.9989 13.4932 69.9301ZM15.6804 70.1292L15.4704 72.37C15.8614 72.3773 16.2308 72.3918 16.5965 72.3773C16.6689 72.3736 16.7848 72.2723 16.8029 72.1999C16.9405 71.5664 17.06 70.9256 17.1904 70.2668L15.6804 70.1292ZM20.4602 70.5926L18.0957 70.3718C18.1753 71.3709 18.255 72.3809 18.3346 73.3873C18.3709 73.3945 18.4071 73.3981 18.4397 73.4054C19.2834 72.6198 19.9714 71.7257 20.4602 70.5926ZM11.5885 74.4371C12.9139 76.2688 15.9556 76.8335 17.8494 75.5991C18.3491 75.2733 18.7728 74.7955 18.9466 74.3357C18.2658 74.0642 17.5923 73.7529 16.8934 73.5357C16.6074 73.4452 16.2235 73.4778 15.9411 73.5936C14.5542 74.1656 13.1166 74.3611 11.632 74.2561C11.603 74.2525 11.5704 74.2633 11.5053 74.2706C11.5378 74.3357 11.556 74.39 11.5885 74.4371ZM11.259 72.9058C12.1643 71.9754 12.3635 70.8387 12.5517 69.6441L10.4081 69.445C10.571 70.5962 10.8607 71.7257 11.259 72.9058ZM11.6537 62.357C11.1757 63.671 10.7557 65.0105 10.3791 66.3571C10.2234 66.9146 10.2524 67.5228 10.198 68.1092C10.227 68.1201 10.2524 68.1309 10.2777 68.1382C10.5203 67.8631 10.7557 67.5807 11.0019 67.3128C11.6863 66.5707 12.3417 65.796 13.0696 65.0973C14.384 63.8412 16.0135 63.338 17.7987 63.2765C18.5374 63.2511 19.2761 63.2475 20.0547 63.2366C20.0438 63.1063 20.0366 62.9832 20.0221 62.8602C19.6672 60.2501 19.7034 57.6328 19.9424 55.0191C20.1379 52.8652 20.3661 50.7149 20.5833 48.561C20.5978 48.4343 20.6087 48.3039 20.6232 48.1229L10.7448 47.2034C10.7412 47.8188 10.705 48.38 10.7376 48.9338C10.8317 50.5085 11.3206 52.0036 11.7515 53.5059C12.0991 54.7187 12.4141 55.9386 12.4902 57.2056C12.588 58.9903 12.2584 60.6881 11.6537 62.357Z" fill="black"/>
<path d="M38.4498 34.2255C38.5331 33.7006 38.6019 33.1721 38.7033 32.6472C38.9278 31.496 39.2935 30.3992 39.9996 29.4398C40.3147 29.0091 40.6985 28.6833 41.191 28.4624C43.016 27.6552 44.9026 27.5104 46.8435 27.876C47.546 28.0099 48.2485 28.1692 48.8677 28.5674C50.5732 29.6607 51.674 31.2028 52.2244 33.1395C52.5612 34.3233 52.6336 35.5251 52.3113 36.7161C51.8913 38.2691 50.7796 39.1959 49.3602 39.8113C48.0059 40.4014 46.5683 40.6005 45.1162 40.7561C41.6291 41.1398 37.7618 38.1207 38.4498 34.2255ZM44.631 35.5469C45.2719 37.165 46.3003 38.3886 48.0783 38.8013C48.2883 38.852 48.5092 38.8628 48.7265 38.8628C49.5195 38.8556 49.8925 38.5624 50.1387 37.7515C50.2075 37.5234 50.2401 37.2845 50.2872 37.0528C50.3053 37.0492 50.3234 37.0456 50.3415 37.0383C50.2401 36.1985 50.1423 35.3586 50.0301 34.5224C50.0192 34.45 49.9214 34.3595 49.8454 34.3342C48.8206 34.0047 47.7814 33.802 46.6986 33.9902C45.8803 34.1314 45.2068 34.5152 44.7251 35.203C44.6672 35.2971 44.5948 35.4564 44.631 35.5469Z" fill="white"/>
<path d="M11.5342 68.3482C14.5071 68.8912 17.4149 69.1627 20.3842 69.3545C20.3842 68.6269 20.4131 67.9355 20.3805 67.2477C20.3407 66.3716 20.261 65.4956 20.1778 64.6195C20.1669 64.5182 20.0402 64.3408 19.9641 64.3408C18.9031 64.3263 17.8277 64.2286 16.7812 64.3625C15.2386 64.5652 14.0002 65.4268 12.979 66.578C12.4938 67.1246 12.0484 67.7147 11.5342 68.3482Z" fill="#FF0059"/>
<path d="M18.9466 74.3357C18.2658 74.0642 17.5959 73.7529 16.8934 73.5357C16.6074 73.4452 16.2235 73.4778 15.9411 73.5936C14.5542 74.1656 13.1166 74.3611 11.632 74.2561C11.603 74.2525 11.5704 74.2633 11.5052 74.2706C11.5378 74.3357 11.5559 74.39 11.5885 74.4371C12.9139 76.2688 15.9556 76.8336 17.8494 75.5991C18.3455 75.2733 18.7728 74.7919 18.9466 74.3357Z" fill="#7B1594"/>
<path d="M18.7293 42.9571C18.3962 42.2222 18.1065 41.5706 17.7987 40.9299C17.7408 40.8068 17.6068 40.6765 17.4801 40.633C16.1692 40.2095 14.8874 40.2421 13.6743 40.948C12.8668 41.4186 12.4431 42.1498 12.3816 43.0838C12.3779 43.1381 12.3816 43.1924 12.3852 43.2467C12.3852 43.2648 12.4033 43.2829 12.4322 43.33C14.4601 42.8268 16.5241 42.6784 18.7293 42.9571Z" fill="#7B1594"/>
<path d="M11.259 72.9058C12.1643 71.9755 12.3635 70.8388 12.5518 69.6441C11.8348 69.579 11.1395 69.5138 10.4081 69.445C10.571 70.5962 10.8607 71.7257 11.259 72.9058Z" fill="white"/>
<path d="M15.4957 46.6785C16.4009 46.6279 17.1976 46.5844 18.1065 46.5337C17.5669 45.4296 17.0564 44.3871 16.5458 43.3445C16.4951 43.3481 16.4444 43.3481 16.3901 43.3517C16.1004 44.4377 15.8071 45.5238 15.4957 46.6785Z" fill="white"/>
<path d="M20.4602 70.5926C19.6636 70.5202 18.9249 70.4514 18.0956 70.3718C18.1753 71.3745 18.255 72.3809 18.3346 73.3873C18.3708 73.3945 18.407 73.3981 18.4396 73.4054C19.2833 72.6198 19.9714 71.7257 20.4602 70.5926Z" fill="white"/>
<path d="M20.424 47.1238C20.605 46.0233 19.9062 44.5427 18.9611 43.9671C18.9466 43.9961 18.9212 44.0214 18.9212 44.0504C18.8343 44.9663 18.7511 45.8821 18.6605 46.8559C19.1964 46.9356 19.8012 47.0261 20.424 47.1238Z" fill="white"/>
<path d="M14.623 70.151C14.2247 70.0749 13.8481 69.9989 13.4932 69.9301C13.3737 71.1972 13.2615 72.428 13.142 73.7167C13.7177 73.3982 14.1487 73.0977 14.2247 72.4461C14.3007 71.7909 14.4673 71.1465 14.5904 70.4949C14.6085 70.3935 14.6085 70.2849 14.623 70.151Z" fill="white"/>
<path d="M15.4704 72.37C15.8651 72.3773 16.2308 72.3917 16.5965 72.3809C16.6689 72.3773 16.7848 72.2759 16.7993 72.2035C16.9369 71.57 17.06 70.9292 17.1868 70.2704C16.6762 70.2233 16.191 70.1763 15.6768 70.1292C15.608 70.8822 15.5428 71.6026 15.4704 72.37Z" fill="white"/>
<path d="M13.4244 46.3925C13.9531 46.4432 14.4239 46.4867 14.9489 46.5337C14.7823 45.5454 14.623 44.5861 14.4637 43.6268C14.4311 43.6232 14.3949 43.616 14.3623 43.6123C14.0509 44.5246 13.7467 45.4368 13.4244 46.3925Z" fill="white"/>
<path d="M12.501 46.4288C12.3091 45.6541 12.1317 44.9445 11.9289 44.1373C11.5306 44.8323 11.183 45.4441 10.8136 46.0921C11.3821 46.2043 11.8999 46.3093 12.501 46.4288Z" fill="white"/>
<path d="M50.3415 37.0383C50.2401 36.1985 50.1423 35.3586 50.0301 34.5224C50.0192 34.45 49.9214 34.3595 49.8454 34.3342C48.8206 34.0047 47.7814 33.802 46.7023 33.9903C45.8839 34.1314 45.2104 34.5152 44.7288 35.203C44.6636 35.2971 44.5912 35.46 44.6274 35.5469C45.2683 37.165 46.2967 38.385 48.0747 38.8013C48.2847 38.852 48.5056 38.8629 48.7229 38.8629C49.5159 38.8556 49.8889 38.5624 50.1387 37.7515C50.2075 37.5234 50.2401 37.2845 50.2872 37.0528C50.3089 37.0456 50.327 37.042 50.3415 37.0383Z" fill="black"/>
<path d="M65.0027 51.8616C63.2359 50.0783 60.3347 50.0658 58.5515 51.8323L44.6657 65.5911C42.8824 67.3578 42.869 70.259 44.6355 72.0423C46.4021 73.8256 49.3034 73.8389 51.0866 72.0725L64.9734 58.3128C66.7558 56.5463 66.77 53.6443 65.0027 51.8616Z" fill="#E4B498" stroke="black"/>
<path d="M58.4574 62.8298L55.6633 65.5979C55.122 66.1347 54.2399 66.1302 53.7037 65.5888L51.1729 63.0348C50.6361 62.4934 50.6406 61.6113 51.182 61.0751L53.976 58.307C54.5173 57.7702 55.3995 57.7748 55.9356 58.3161L58.4664 60.8701C59.0025 61.4108 58.9987 62.293 58.4574 62.8298Z" fill="#EBCAB3"/>
<path d="M59.5853 59.9835C59.3242 59.9835 59.1125 59.7718 59.1125 59.5107C59.1125 59.2496 59.3242 59.038 59.5853 59.038C59.8464 59.038 60.058 59.2496 60.058 59.5107C60.058 59.7718 59.8464 59.9835 59.5853 59.9835Z" fill="#CB8565"/>
<path d="M58.4451 58.8322C58.184 58.8322 57.9723 58.6206 57.9723 58.3595C57.9723 58.0984 58.184 57.8867 58.4451 57.8867C58.7062 57.8867 58.9178 58.0984 58.9178 58.3595C58.9178 58.6206 58.7062 58.8322 58.4451 58.8322Z" fill="#CB8565"/>
<path d="M57.3048 57.6816C57.0437 57.6816 56.8321 57.4699 56.8321 57.2088C56.8321 56.9477 57.0437 56.7361 57.3048 56.7361C57.5659 56.7361 57.7776 56.9477 57.7776 57.2088C57.7776 57.4699 57.5659 57.6816 57.3048 57.6816Z" fill="#CB8565"/>
<path d="M59.8841 58.2883C59.623 58.2883 59.4113 58.0766 59.4113 57.8155C59.4113 57.5544 59.623 57.3427 59.8841 57.3427C60.1452 57.3427 60.3568 57.5544 60.3568 57.8155C60.3568 58.0766 60.1452 58.2883 59.8841 58.2883Z" fill="#CB8565"/>
<path d="M58.7438 57.1378C58.4827 57.1378 58.2711 56.9261 58.2711 56.665C58.2711 56.4039 58.4827 56.1922 58.7438 56.1922C59.0049 56.1922 59.2166 56.4039 59.2166 56.665C59.2166 56.9261 59.0049 57.1378 58.7438 57.1378Z" fill="#CB8565"/>
<path d="M61.4596 58.126C61.1985 58.126 60.9868 57.9143 60.9868 57.6532C60.9868 57.3921 61.1985 57.1805 61.4596 57.1805C61.7207 57.1805 61.9323 57.3921 61.9323 57.6532C61.9323 57.9143 61.7207 58.126 61.4596 58.126Z" fill="#CB8565"/>
<path d="M60.3193 56.9754C60.0582 56.9754 59.8466 56.7637 59.8466 56.5026C59.8466 56.2415 60.0582 56.0299 60.3193 56.0299C60.5805 56.0299 60.7921 56.2415 60.7921 56.5026C60.7921 56.7637 60.5805 56.9754 60.3193 56.9754Z" fill="#CB8565"/>
<path d="M59.1791 55.8249C58.918 55.8249 58.7064 55.6132 58.7064 55.3521C58.7064 55.091 58.918 54.8793 59.1791 54.8793C59.4402 54.8793 59.6519 55.091 59.6519 55.3521C59.6519 55.6132 59.4402 55.8249 59.1791 55.8249Z" fill="#CB8565"/>
<path d="M62.0947 55.6256C62.2784 55.8113 62.2771 56.1107 62.0915 56.2944C61.9059 56.4781 61.6065 56.4768 61.4228 56.2912C61.2391 56.1056 61.2404 55.8061 61.426 55.6224C61.6109 55.4387 61.9104 55.44 62.0947 55.6256ZM60.9545 54.475C61.1382 54.6607 61.1369 54.9601 60.9513 55.1438C60.7656 55.3275 60.4662 55.3262 60.2825 55.1406C60.0988 54.9549 60.1001 54.6555 60.2857 54.4718C60.4707 54.2881 60.7702 54.2894 60.9545 54.475Z" fill="#CB8565"/>
<path d="M52.4671 67.0363C52.206 67.0363 51.9943 66.8247 51.9943 66.5636C51.9943 66.3025 52.206 66.0908 52.4671 66.0908C52.7282 66.0908 52.9398 66.3025 52.9398 66.5636C52.9398 66.8247 52.7282 67.0363 52.4671 67.0363Z" fill="#CB8565"/>
<path d="M51.3268 65.8857C51.0657 65.8857 50.8541 65.6741 50.8541 65.4129C50.8541 65.1518 51.0657 64.9402 51.3268 64.9402C51.5879 64.9402 51.7996 65.1518 51.7996 65.4129C51.7996 65.6741 51.5879 65.8857 51.3268 65.8857Z" fill="#CB8565"/>
<path d="M50.1866 64.7352C49.9255 64.7352 49.7138 64.5235 49.7138 64.2624C49.7138 64.0013 49.9255 63.7896 50.1866 63.7896C50.4477 63.7896 50.6594 64.0013 50.6594 64.2624C50.6594 64.5235 50.4477 64.7352 50.1866 64.7352Z" fill="#CB8565"/>
<path d="M50.7694 67.3196C50.5083 67.3196 50.2966 67.108 50.2966 66.8468C50.2966 66.5857 50.5083 66.3741 50.7694 66.3741C51.0305 66.3741 51.2421 66.5857 51.2421 66.8468C51.2421 67.108 51.0305 67.3196 50.7694 67.3196Z" fill="#CB8565"/>
<path d="M49.6291 66.1691C49.368 66.1691 49.1564 65.9574 49.1564 65.6963C49.1564 65.4352 49.368 65.2235 49.6291 65.2235C49.8902 65.2235 50.1019 65.4352 50.1019 65.6963C50.1019 65.9574 49.8902 66.1691 49.6291 66.1691Z" fill="#CB8565"/>
<path d="M50.5927 68.8938C50.3316 68.8938 50.12 68.6821 50.12 68.421C50.12 68.1599 50.3316 67.9483 50.5927 67.9483C50.8538 67.9483 51.0655 68.1599 51.0655 68.421C51.0655 68.6821 50.8538 68.8938 50.5927 68.8938Z" fill="#CB8565"/>
<path d="M49.4526 67.7426C49.1915 67.7426 48.9798 67.5309 48.9798 67.2698C48.9798 67.0087 49.1915 66.797 49.4526 66.797C49.7137 66.797 49.9254 67.0087 49.9254 67.2698C49.9254 67.5309 49.7137 67.7426 49.4526 67.7426Z" fill="#CB8565"/>
<path d="M48.3124 66.592C48.0513 66.592 47.8396 66.3803 47.8396 66.1192C47.8396 65.8581 48.0513 65.6465 48.3124 65.6465C48.5735 65.6465 48.7851 65.8581 48.7851 66.1192C48.7851 66.3803 48.5735 66.592 48.3124 66.592Z" fill="#CB8565"/>
<path d="M48.895 69.1771C48.6339 69.1771 48.4223 68.9654 48.4223 68.7043C48.4223 68.4432 48.6339 68.2315 48.895 68.2315C49.1561 68.2315 49.3678 68.4432 49.3678 68.7043C49.3678 68.9654 49.1561 69.1771 48.895 69.1771Z" fill="#CB8565"/>
<path d="M47.7548 68.0258C47.4937 68.0258 47.282 67.8142 47.282 67.5531C47.282 67.292 47.4937 67.0803 47.7548 67.0803C48.0159 67.0803 48.2276 67.292 48.2276 67.5531C48.2276 67.8142 48.0159 68.0258 47.7548 68.0258Z" fill="#CB8565"/>
<path d="M61.3011 51.0427C61.9738 51.2219 62.6082 51.5744 63.1308 52.1015C64.7031 53.6886 64.6914 56.273 63.1043 57.8453L49.2178 71.6044C48.5465 72.2693 47.6967 72.6502 46.8203 72.7485C48.1707 73.1081 49.6751 72.766 50.7344 71.7163L64.6215 57.9578C66.2087 56.3855 66.2203 53.8011 64.6481 52.214C63.7407 51.2982 62.4963 50.9082 61.3011 51.0427Z" fill="black" fill-opacity="0.2"/>
<path d="M46.9196 0.708213C49.5326 0.76864 51.5546 1.43406 53.1104 2.45522C54.6643 3.4752 55.726 4.83218 56.4477 6.23645C57.8835 9.0303 57.9926 12.0461 57.9676 13.1279C57.9625 13.3516 57.9988 13.6212 58.0551 13.9495C58.1086 14.2615 58.1821 14.6336 58.2273 14.9967C58.3173 15.7212 58.3236 16.5905 57.778 17.318C56.43 19.1153 53.0741 21.2154 48.0219 20.5954C45.1294 20.2405 43.3174 18.1432 42.3548 17.07C41.4323 16.0416 40.0259 14.6913 37.6992 14.537L37.4709 14.5258L33.2064 14.4273L33.2165 13.988L32.7181 13.9159L32.7296 13.416L32.839 13.4185L33.1857 12.1518L33.2433 11.9402L33.4381 11.8392L34.9359 11.065L34.9639 9.85437C34.9786 9.21724 35.1908 6.87403 36.8039 4.70899C38.4406 2.51247 41.4583 0.582011 46.9196 0.708213Z" fill="#5A8264" stroke="black"/>
<path d="M57.4953 13.5868C57.4953 13.5868 57.2919 14.5489 56.1203 16.0253C55.8873 16.3189 55.2274 17.0913 53.89 17.7216C52.6101 18.3249 51.1426 18.6118 49.5285 18.5745L49.528 18.5745C49.1186 18.565 48.6964 18.5339 48.2731 18.482C46.2236 18.2304 44.8566 16.7051 43.952 15.6957L43.8952 15.6324C43.1293 14.7785 41.0947 12.5102 37.5381 12.3974L33.6672 12.2868L33.218 13.9271L37.4871 14.0257C40.1622 14.1105 41.7501 15.6476 42.7268 16.7366C43.7035 17.8255 45.4004 19.7704 48.0827 20.0995C52.9675 20.6989 56.1433 18.664 57.3778 17.018C58.1117 16.0394 57.6224 14.658 57.4953 13.5868L57.4953 13.5868Z" fill="#466E50"/>
<path d="M50.1238 10.9394L44.9796 10.8205C44.4422 10.8081 43.9083 10.9136 43.4136 11.1301C42.9189 11.3465 42.4748 11.6689 42.1111 12.0755L41.0285 13.3057C42.4923 14.0685 43.4289 15.1125 43.8952 15.6324L43.952 15.6957C44.8565 16.7051 46.2235 18.2304 48.273 18.4819C48.6963 18.5339 49.1185 18.565 49.5279 18.5745L49.5284 18.5745C51.1425 18.6118 52.61 18.3248 53.89 17.7216C54.2667 17.544 54.5896 17.3552 54.8644 17.169L53.4939 13.4053C52.9699 11.9516 51.6342 10.9742 50.1237 10.9393L50.1238 10.9394Z" fill="#6E9678"/>
</svg>
