<svg width="84" height="85" viewBox="0 0 84 85" fill="none" xmlns="http://www.w3.org/2000/svg">
<path d="M29.0659 16.2021C27.9976 12.285 25.3566 8.93174 24.1696 7.74474L25.0598 5.5191C26.5436 7.15123 29.8672 11.5728 31.2916 16.2021H29.0659Z" fill="#BD21E4" stroke="black" stroke-width="0.890253" stroke-linecap="round" stroke-linejoin="round"/>
<circle cx="21.9439" cy="4.18375" r="3.56101" fill="#BD21E4" stroke="black" stroke-width="0.890253"/>
<path d="M23.2793 4.62888C23.9915 2.13617 21.7955 1.21624 20.6085 1.06787L22.8342 0.622742L24.1695 1.51299L25.0598 2.84837L25.5049 4.62888L24.1695 6.85451L22.0046 7.72049C21.9805 7.73723 21.9602 7.74477 21.9439 7.74477L22.0046 7.72049C22.1996 7.58507 22.6454 6.84742 23.2793 4.62888Z" fill="black" fill-opacity="0.3"/>
<path d="M24.1695 7.74477L25.5049 5.51913L25.95 6.85451L25.5049 9.52527L24.1695 7.74477Z" fill="black" fill-opacity="0.3"/>
<path d="M59.9548 16.3262C60.2281 12.2753 58.8306 8.24202 58.0978 6.73178L59.6677 4.92036C60.5352 6.94836 62.2277 12.2145 62.0578 17.055L59.9548 16.3262Z" fill="#BD21E4" stroke="black" stroke-width="0.890253" stroke-linecap="round" stroke-linejoin="round"/>
<circle cx="58.4443" cy="4.18375" r="3.56101" fill="#BD21E4" stroke="black" stroke-width="0.890253"/>
<path d="M60.2248 5.07401C60.937 3.6496 59.0378 1.51299 57.9991 0.622742H58.8894L60.6699 1.51299L62.0053 2.84837V5.51913L60.6699 6.85451L58.8894 7.29964C59.0378 7.15126 59.5126 6.49841 60.2248 5.07401Z" fill="black" fill-opacity="0.3"/>
<path d="M61.5602 11.3058L59.3345 10.8607L58.8894 7.74477L60.6699 7.29964L61.5602 11.3058Z" fill="black" fill-opacity="0.3"/>
<path d="M3.69373 30.4462C3.69373 20.4754 12.5963 16.4989 17.0475 15.757C44.2002 9.52525 64.2309 16.6473 75.3591 21.9888C84.2616 26.262 77.8815 54.6314 73.5786 68.282C71.8949 73.6235 69.1273 81.1906 61.1151 82.526C43.5413 85.455 26.8403 83.8614 24.6147 82.526C19.7183 81.6358 14.8219 79.8553 10.8158 71.843C7.25474 62.9404 4.13885 42.9097 3.69373 30.4462Z" fill="#BD21E4" stroke="black" stroke-width="0.890253" stroke-linecap="round" stroke-linejoin="round"/>
<path d="M8.59016 26.4401C5.38525 29.645 6.36452 49.1416 7.25478 58.4892C6.06778 50.1802 2.35836 30.8914 5.02916 24.6596C10.7354 15.003 19.0386 15.3015 32.0729 14.0313C32.2575 14.0109 32.4422 13.9926 32.627 13.9766C32.4414 13.9951 32.2567 14.0133 32.0729 14.0313C22.0374 15.1389 12.524 22.5063 8.59016 26.4401Z" fill="white" fill-opacity="0.5"/>
<path d="M45.9808 58.0441C40.9954 59.4685 27.5822 60.7148 21.4988 61.16C18.3829 61.4069 18.8281 63.8307 19.2732 65.6112C19.7183 67.3917 22.3891 77.6296 26.8403 80.3004C32.1819 83.8614 53.5479 82.9712 55.7736 77.6296C57.5541 71.2198 54.1414 62.7921 52.2126 59.3795C51.1739 58.4892 48.4735 56.9758 45.9808 58.0441Z" fill="black"/>
<path d="M23.2793 73.1784L24.6147 76.2943L25.5049 75.8491L26.3952 74.5138L26.8403 74.0686L26.3952 73.6235L28.1757 70.9527L27.2854 70.0625L30.8464 69.6174L26.8403 67.8369L26.3952 70.0625L24.1696 70.5076L25.5049 72.7332L25.0598 73.1784L23.7244 72.7332L23.2793 73.1784Z" fill="#B072BF"/>
<path d="M22.8342 63.3856L21.0536 61.6051L26.8403 60.7148L44.6454 58.4892L48.2064 57.5989L51.7674 58.9343L52.2125 59.8246L51.3223 61.16L49.5417 60.2697L48.2064 61.16L40.6392 62.9405L33.5172 63.8307L25.5049 64.2758L22.8342 63.3856Z" fill="white"/>
<path d="M14.8219 34.4524L9.4804 31.3365L8.59015 35.7878L10.3707 41.1293L14.8219 44.2452L19.7183 45.5805L22.8342 45.1354L25.9501 43.3549L21.4988 39.7939L14.8219 34.4524Z" fill="white"/>
<path d="M46.4259 42.9097L41.0844 44.6902V45.5805L43.31 46.9159L48.2064 48.6964L53.1028 49.1415L57.1089 48.2513L60.6699 46.4707L62.0053 42.0195V38.0133L61.115 34.0072L58.8894 34.8975L56.6638 36.2328L51.3223 39.7938L46.4259 42.9097Z" fill="white"/>
<path d="M26.3952 36.2329C27.4635 38.7256 26.5436 42.0195 25.9501 43.3549L26.8403 44.6903C26.9887 45.2838 27.9086 45.3134 30.4013 40.6841C33.5172 34.8975 26.3952 30.8913 25.9501 31.3365C25.5049 31.7816 25.0598 33.117 26.3952 36.2329Z" fill="black" fill-opacity="0.3"/>
<path d="M49.5418 45.1354C47.4052 45.4915 46.871 43.5032 46.871 42.4646L50.432 40.6841L53.5479 38.4585C53.6963 38.9036 53.904 40.239 53.5479 42.0195C52.6577 45.1354 52.2125 44.6902 49.5418 45.1354Z" fill="url(#paint0_linear_2104_132)"/>
<path d="M16.6024 42.0195C14.8219 41.3073 14.9703 37.2715 15.267 35.3426L20.6085 39.3487L19.7183 41.1292C19.4215 41.7227 18.3829 42.7317 16.6024 42.0195Z" fill="url(#paint1_linear_2104_132)"/>
<path d="M40.7997 45.0895C40.7794 45.0548 40.7505 45.0241 40.7139 45.0059C40.6773 44.9876 40.6365 44.9832 40.5988 44.9939C40.5611 45.0047 40.5288 45.03 40.5074 45.0649C40.4859 45.0997 40.4776 45.141 40.4787 45.1812C40.4873 45.3453 40.5169 45.5042 40.5575 45.6581C40.7252 46.2755 41.0653 46.8206 41.4765 47.2746C42.9399 48.8613 44.861 49.8655 46.831 50.5026C46.9703 50.5471 47.112 50.5905 47.2562 50.6327C47.2971 50.6446 47.3416 50.6423 47.3807 50.6242C47.4198 50.6061 47.4502 50.5739 47.4655 50.5343C47.4807 50.4947 47.4797 50.4505 47.4628 50.4108C47.4459 50.3712 47.4144 50.3397 47.376 50.3211C47.2429 50.2566 47.1124 50.192 46.9845 50.1272C45.173 49.2075 43.4569 48.1114 42.1351 46.6756C41.7637 46.2649 41.3831 45.863 41.0392 45.4274C40.9544 45.3185 40.872 45.2067 40.7997 45.0895Z" fill="black"/>
<path d="M25.6297 43.9109C25.6503 43.8756 25.6617 43.8343 25.6578 43.7929C25.6539 43.7515 25.6353 43.7138 25.6053 43.6871C25.5753 43.6604 25.5356 43.6464 25.4941 43.6474C25.4525 43.6483 25.4128 43.6645 25.3802 43.6891C25.2341 43.7975 25.0841 43.9041 24.933 44.0099C24.333 44.4266 23.7322 44.8294 23.1409 45.247C21.0644 46.7015 18.728 47.7984 16.2273 48.4086C16.0479 48.4521 15.8703 48.4927 15.6886 48.5311C15.6466 48.54 15.6085 48.5636 15.5829 48.5986C15.5573 48.6336 15.5463 48.6768 15.5523 48.7192C15.5584 48.7616 15.5811 48.8 15.6154 48.8264C15.6498 48.8529 15.693 48.8648 15.7358 48.8616C15.9248 48.8471 16.1102 48.8295 16.2981 48.8079C18.9213 48.5066 21.4722 47.506 23.6535 45.9748C24.2762 45.5354 24.8422 45.0079 25.3058 44.3925C25.4227 44.237 25.5321 44.0764 25.6297 43.9109Z" fill="black"/>
<path d="M40.6392 45.1354C43.6067 47.6578 52.2125 51.8123 59.7797 46.9159C63.7858 44.2451 62.0053 35.7877 61.115 34.0072" stroke="black" stroke-width="0.890253" stroke-linecap="round" stroke-linejoin="round"/>
<path d="M37.2307 36.3006C37.2465 36.2603 37.247 36.2152 37.231 36.1746C37.215 36.134 37.1839 36.1014 37.1444 36.0838C37.1049 36.0663 37.0599 36.0651 37.0191 36.0804C36.9782 36.0957 36.9451 36.1264 36.9257 36.1651C36.5668 36.8874 36.2547 37.6312 35.9827 38.3935C35.6051 39.5548 35.1588 40.7109 35.3779 42.1107C35.8381 43.8971 37.2893 45.4245 39.3038 45.5788C39.6478 45.5782 39.9744 45.539 40.2921 45.4906C45.0503 44.5847 49.1443 42.0262 52.8994 39.226C56.9716 36.3248 61.7959 32.4069 66.8014 34.2412C66.8372 34.2571 66.9253 34.2632 66.9634 34.2542C67.3823 34.156 67.6586 33.7737 67.7658 33.4393C67.8813 33.1005 67.9099 32.7587 67.9157 32.43C67.9215 31.769 67.8257 31.1289 67.7011 30.4997C67.54 29.7062 67.3246 28.9293 67.06 28.1678C67.0455 28.1263 67.0154 28.092 66.976 28.0724C66.9365 28.0528 66.891 28.0496 66.8493 28.0634C66.8076 28.0773 66.7732 28.1072 66.7533 28.1466C66.7335 28.1859 66.7301 28.2315 66.7433 28.2734C66.979 29.0258 67.1681 29.7977 67.3024 30.5739C67.4062 31.1885 67.4793 31.8121 67.4569 32.4179C67.4387 33.0018 67.2795 33.6812 66.8399 33.7602L67.002 33.7732C61.5468 31.6814 56.5688 35.7288 52.4159 38.5813C48.6994 41.2945 44.6097 43.7707 40.1555 44.6109C39.8676 44.6554 39.5656 44.69 39.3038 44.6919C37.93 44.6337 36.5061 43.3567 36.1077 41.9283C35.8864 40.9343 36.1987 39.6822 36.4923 38.5536C36.7011 37.7938 36.9467 37.037 37.2307 36.3006Z" fill="black"/>
<path d="M26.9862 33.481C26.9634 33.4443 26.9277 33.4167 26.8856 33.4051C26.8436 33.3935 26.7989 33.3987 26.7611 33.4197C26.7234 33.4406 26.6954 33.4759 26.683 33.5177C26.6707 33.5595 26.6752 33.6044 26.6944 33.6432C27.0363 34.3349 27.3814 35.0249 27.7297 35.7131C28.0718 36.3889 28.4171 37.0629 28.7654 37.7352L28.7252 37.5228C28.5388 38.6452 28.309 39.7711 28.0203 40.8655C27.8745 41.4101 27.7123 41.9543 27.5093 42.458C27.4076 42.7079 27.2924 42.954 27.1629 43.147C27.0986 43.2433 27.0283 43.3231 26.9793 43.3587C26.9206 43.3947 26.9683 43.3677 26.981 43.3777C26.982 43.3781 26.9779 43.3767 26.9706 43.3735C20.8151 39.1889 15.2968 33.6341 8.19808 30.1275L8.39726 30.2444C6.72557 28.3648 5.8263 25.3281 7.85839 23.4827C8.20041 23.1308 8.53882 22.7823 8.87922 22.4316C9.41673 21.8778 9.95337 21.3242 10.4886 20.7715C10.5192 20.7399 10.5365 20.6976 10.5364 20.6536C10.5362 20.6096 10.5187 20.5674 10.4877 20.5364C10.4567 20.5053 10.4145 20.4878 10.3705 20.4877C10.3264 20.4876 10.2841 20.5049 10.2526 20.5354C9.69982 21.0707 9.14628 21.6073 8.59245 22.1448C8.24171 22.4852 7.8932 22.8236 7.5413 23.1657C5.22622 25.1072 6.17306 28.7004 7.89267 30.6481C7.92937 30.693 8.03456 30.756 8.09185 30.7649C14.6012 34.2135 20.1263 39.7896 26.6201 44.1919C26.6455 44.2027 26.6713 44.2129 26.6995 44.2223C26.9906 44.3326 27.3453 44.2103 27.5126 44.0703C27.6973 43.9278 27.8022 43.7842 27.9006 43.6389C28.0882 43.3518 28.2125 43.0659 28.3244 42.7813C28.5434 42.2127 28.6985 41.6402 28.8339 41.0691C29.1001 39.9243 29.2828 38.7724 29.4067 37.6137C29.412 37.5622 29.3929 37.4458 29.3664 37.4013C28.9796 36.7504 28.5897 36.1011 28.1967 35.4537C27.7964 34.7943 27.3929 34.1368 26.9862 33.481Z" fill="black"/>
<path d="M9.48037 31.3365C8.73849 34.0072 8.14501 39.5268 11.706 42.0195C16.1573 45.1354 18.828 46.0257 21.4988 45.5805C23.6354 45.2244 25.3566 43.9484 25.9501 43.3549" stroke="black" stroke-width="0.890253" stroke-linecap="round" stroke-linejoin="round"/>
<path d="M21.0536 61.16L22.389 63.3856L23.7244 63.8307L29.5111 64.2758L39.3038 63.3856L48.2064 61.16L49.5417 60.2697L51.3223 61.16L52.2125 59.3795" stroke="black" stroke-width="0.890253" stroke-linecap="round" stroke-linejoin="round"/>
<path d="M25.0598 75.404L23.2793 76.2942L25.0598 78.965L29.5111 81.6358L36.6331 82.526L45.5356 82.0809L52.2125 80.3004L54.8833 78.965L55.7735 77.6296L54.4382 76.2942H53.1028L51.7674 77.6296L50.432 76.7394L47.7613 78.5199L42.4197 79.4101H37.5233L32.627 78.5199L28.6208 76.2942L26.8403 74.0686L25.0598 75.404Z" fill="white"/>
<path d="M23.2793 76.2942L25.0598 75.404L25.9501 74.5137L26.8403 74.0686L28.6208 76.2942L32.627 78.5199L37.5233 79.4101H42.4197L47.7613 78.5199L50.432 76.7394L51.7674 77.6296L53.1028 76.2942H54.4382L55.7735 77.6296" stroke="black" stroke-width="0.890253" stroke-linecap="round" stroke-linejoin="round"/>
<path d="M45.9808 58.0441C40.9954 59.4685 27.5822 60.7148 21.4988 61.16C18.3829 61.4069 18.8281 63.8307 19.2732 65.6112C19.7183 67.3917 22.3891 77.6296 26.8403 80.3004C32.1819 83.8614 53.5479 82.9712 55.7736 77.6296C57.5541 71.2198 54.1414 62.7921 52.2126 59.3795C51.1739 58.4892 48.4735 56.9758 45.9808 58.0441Z" stroke="black" stroke-width="0.890253" stroke-linecap="round" stroke-linejoin="round"/>
<path d="M62.0053 36.678L61.1151 34.0073C62.1537 33.5621 64.498 32.6719 65.5663 32.6719C66.9017 32.6719 68.6822 33.117 68.2371 34.8975C67.881 36.3219 63.9342 36.678 62.0053 36.678Z" fill="black" fill-opacity="0.3"/>
<path d="M71.7981 39.7939C73.2225 27.3303 69.4241 20.6534 67.3468 18.8729L73.1335 21.0986L76.6945 22.8791L78.9201 26.4401L79.8104 32.2267L79.3652 40.239L78.0299 50.922L74.0237 66.9466L71.353 74.0686L68.6822 78.5199C68.2371 78.965 66.3676 80.3894 62.4504 82.526C68.6822 78.965 70.0176 55.3733 71.7981 39.7939Z" fill="black" fill-opacity="0.35"/>
<path d="M34.2428 39.7664C34.25 39.8052 34.2641 39.8436 34.2892 39.8743C34.3142 39.905 34.3476 39.9255 34.3845 39.9317C34.4214 39.9378 34.4597 39.9293 34.4933 39.9083C34.5269 39.8874 34.5528 39.8556 34.5721 39.8213C34.6251 39.7291 34.6771 39.6379 34.7273 39.5444C34.9278 39.1761 35.0917 38.8023 35.2096 38.4156C35.6275 37.0587 36.1076 35.7147 36.6583 34.3767C36.6979 34.2809 36.7374 34.1861 36.778 34.09C36.7944 34.0513 36.7983 34.0075 36.7862 33.9666C36.7742 33.9257 36.7474 33.8914 36.7111 33.8707C36.6749 33.8499 36.6317 33.8443 36.5903 33.8547C36.5489 33.865 36.5132 33.8907 36.4882 33.9244C36.4252 34.0097 36.3639 34.0945 36.3031 34.181C35.4541 35.39 34.7953 36.7347 34.3583 38.1552C34.2346 38.5606 34.1782 38.9917 34.2049 39.433C34.2115 39.5449 34.2238 39.6551 34.2428 39.7664Z" fill="black"/>
<path d="M56.9645 26.3282C58.4936 25.6878 60.1855 25.9788 61.5388 26.836C63.3183 27.9634 64.2327 29.8726 64.8502 31.7057L65.0987 32.484L65.0993 32.4893C65.2025 32.845 65.148 33.1822 64.9711 33.4507C64.8008 33.7089 64.5375 33.8746 64.2677 33.9477C63.9979 34.0207 63.6888 34.0104 63.412 33.8772C63.1286 33.7407 62.9092 33.4881 62.8109 33.1399L62.8107 33.1408C62.3372 31.6252 61.7676 30.0599 60.6468 29.1347L60.4686 29C59.5671 28.3577 58.5288 28.1812 57.5701 28.649L57.5694 28.6478C57.0413 28.9112 56.5523 29.2739 56.0168 29.6613C55.4931 30.0402 54.9268 30.442 54.2925 30.7199L54.2918 30.7187C53.8863 30.8999 53.4283 30.7775 53.1441 30.5385C52.993 30.4115 52.8602 30.2264 52.8183 29.9922C52.7747 29.7483 52.8402 29.5049 52.993 29.2949L53.1758 29.0578C54.1241 27.8865 55.6328 26.8684 56.9645 26.3282ZM69.8378 19.5704C70.0948 19.5433 70.3383 19.6065 70.5278 19.7684C70.7092 19.9235 70.7986 20.1324 70.8307 20.3248C70.8911 20.6878 70.769 21.1399 70.4288 21.402L70.4199 21.4087C69.8474 21.8275 69.1969 22.1189 68.5939 22.3864C67.9756 22.6606 67.4068 22.9105 66.9126 23.2543C66.0132 23.8969 65.7017 24.966 65.8756 26.0903C66.0847 27.3472 66.9301 28.5013 67.8594 29.5346L68.2614 29.9699L68.2684 29.9778C68.7923 30.5593 68.5986 31.2835 68.205 31.6785C68.0059 31.8783 67.7296 32.0279 67.4171 32.0457C67.0915 32.0642 66.7722 31.9359 66.5189 31.6625L66.5186 31.6634C65.0571 30.1027 63.483 28.1572 63.4071 25.7534L63.4073 25.7525C63.3542 24.1055 63.9736 22.5039 65.3438 21.4721L65.345 21.4714C66.566 20.5598 68.292 19.7454 69.8338 19.5703L69.8378 19.5704ZM54.4574 15.4836C54.6707 15.4456 54.8834 15.4911 55.0738 15.6053L55.1544 15.6593L55.3918 15.8411C56.5633 16.7895 57.581 18.299 58.1212 19.6308L58.23 19.9188C58.7228 21.3697 58.4171 22.9362 57.6133 24.205C56.325 26.2386 54.0157 27.1419 51.9656 27.764L51.9601 27.7655C51.6013 27.8696 51.2616 27.8104 50.9926 27.6296C50.7346 27.4562 50.569 27.1901 50.4948 26.9179C50.4206 26.6455 50.4289 26.3336 50.5588 26.0525C50.6938 25.7605 50.9488 25.5291 51.3073 25.425C52.7882 24.9693 54.3808 24.384 55.3166 23.3096C56.0652 22.3691 56.2991 21.257 55.8007 20.2354L55.8009 20.2344C55.5375 19.7067 55.1752 19.2182 54.788 18.6831C54.4091 18.1593 54.0074 17.5931 53.7295 16.9588L53.7297 16.9578C53.5488 16.5525 53.6721 16.0945 53.9108 15.8103C54.0379 15.6592 54.2232 15.5255 54.4574 15.4836ZM67.3171 16.1602C67.9018 15.6332 68.6223 15.836 69.0122 16.2373C69.2086 16.4395 69.3528 16.7161 69.371 17.026C69.3899 17.3483 69.2694 17.6695 69.0013 17.9268L68.9981 17.931C67.4373 19.3926 65.4914 20.9654 63.0874 21.0414C61.4402 21.0947 59.8388 20.476 58.8068 19.1058L58.8051 19.1043C57.8935 17.8833 57.0791 16.1574 56.9041 14.6156L56.9039 14.6125C56.8765 14.3539 56.9419 14.1111 57.1 13.922C57.2516 13.7407 57.4566 13.6459 57.648 13.6088C58.0041 13.5399 58.4674 13.6463 58.7266 14.0019C59.1452 14.5741 59.4368 15.225 59.7064 15.8275C59.9828 16.4451 60.2377 17.015 60.5908 17.5112C61.234 18.415 62.3073 18.7272 63.4351 18.5514C64.8697 18.3109 66.1703 17.243 67.3101 16.1674L67.3171 16.1602Z" fill="url(#paint2_linear_2104_132)" stroke="black" stroke-width="0.890253"/>
<path d="M1.29418 76.5109C-1.79794 66.2771 12.0493 67.5904 16.2827 69.0686C20.5161 70.5469 23.3444 66.8098 25.7943 65.982C28.2443 65.1543 31.255 68.4118 34.0462 69.286C36.8375 70.1603 43.0412 67.7096 43.0412 67.7096C43.0412 67.7096 39.904 73.6177 35.4426 74.2881C30.9812 74.9584 27.9879 78.1511 24.8342 78.7156C21.6805 79.28 19.6637 77.7582 14.8309 80.9765C9.99813 84.1949 3.80469 84.8197 1.29418 76.5109Z" fill="url(#paint3_linear_2104_132)"/>
<path d="M40.2727 69.9202C40.2727 69.9202 35.5549 73.3221 31.9097 70.5293C28.2645 67.7366 26.8411 67.1994 23.5442 69.9889C20.2474 72.7785 18.5124 73.4065 13.0481 71.6249C7.58364 69.8433 1.57307 72.028 3.90206 77.4132C6.23112 82.7983 12.8801 77.6388 17.2332 76.3517C21.5861 75.0647 21.6584 79.4299 25.512 76.1255C29.3655 72.8212 30.7505 73.1534 33.5241 73.3138C36.2979 73.4742 40.2727 69.9202 40.2727 69.9202Z" fill="url(#paint4_linear_2104_132)"/>
<path d="M35.4635 72.0057C35.4635 72.0057 33.5225 72.7339 30.6669 70.7538C27.8113 68.7738 26.3643 69.3695 23.1236 71.9036C19.8829 74.4379 17.0683 74.6964 13.8112 73.0654C10.5541 71.4346 3.23189 74.0538 5.07884 77.8037C6.92591 81.5536 14.2498 74.333 18.3676 75.2444C22.4853 76.1559 23.2497 76.6135 25.3397 74.9756C27.4298 73.3378 29.9616 72.041 32.366 72.6076C34.7704 73.1742 35.4635 72.0057 35.4635 72.0057Z" fill="url(#paint5_linear_2104_132)"/>
<defs>
<linearGradient id="paint0_linear_2104_132" x1="34.4151" y1="37.4439" x2="34.4151" y2="45.1775" gradientUnits="userSpaceOnUse">
<stop stop-color="#FE9F02"/>
<stop offset="1" stop-color="#FF0833"/>
</linearGradient>
<linearGradient id="paint1_linear_2104_132" x1="34.4151" y1="37.4439" x2="34.4151" y2="45.1775" gradientUnits="userSpaceOnUse">
<stop stop-color="#FE9F02"/>
<stop offset="1" stop-color="#FF0833"/>
</linearGradient>
<linearGradient id="paint2_linear_2104_132" x1="63.1944" y1="14.9453" x2="58.5861" y2="32.1437" gradientUnits="userSpaceOnUse">
<stop stop-color="#FEDC02"/>
<stop offset="1" stop-color="#FF3700"/>
</linearGradient>
<linearGradient id="paint3_linear_2104_132" x1="-0.503843" y1="74.7687" x2="52.7226" y2="74.035" gradientUnits="userSpaceOnUse">
<stop stop-color="#FF3300"/>
<stop offset="1" stop-color="#FFD12E"/>
</linearGradient>
<linearGradient id="paint4_linear_2104_132" x1="42.0104" y1="87.4178" x2="13.8161" y2="68.5832" gradientUnits="userSpaceOnUse">
<stop stop-color="#FF3300"/>
<stop offset="1" stop-color="#FFD12E"/>
</linearGradient>
<linearGradient id="paint5_linear_2104_132" x1="34.8429" y1="72.0757" x2="7.92821" y2="75.5548" gradientUnits="userSpaceOnUse">
<stop stop-color="#FFD12E"/>
<stop offset="1" stop-color="white"/>
</linearGradient>
</defs>
</svg>
