<svg width="85" height="84" viewBox="0 0 85 84" fill="none" xmlns="http://www.w3.org/2000/svg">
<path d="M7.46627 24.5964C4.8661 20.2087 0.960817 10.0208 6.14102 4.37064C10.98 -0.907336 9.71695 6.0622 8.65427 11.1124C9.43306 8.61829 11.7904 7.10932 13.0977 7.68033C15.1192 9.45274 12.1784 13.3072 11.0936 15.4065C11.8902 14.049 13.826 13.4336 14.7151 14.2131C16.8708 16.1032 11.7546 20.5796 15.3264 28.1289L7.46627 24.5964Z" fill="url(#paint0_linear_2168_6379)"/>
<path d="M8.65427 11.1124C8.58678 11.4331 8.52009 11.7461 8.45583 12.0478L8.43463 12.1473C8.47642 11.7869 8.55164 11.4411 8.65427 11.1124C9.43306 8.61829 11.7904 7.10932 13.0977 7.68033C15.1192 9.45274 12.1784 13.3072 11.0936 15.4065C11.0216 15.5459 10.9577 15.6776 10.9041 15.8004C10.9564 15.6631 11.0202 15.5317 11.0936 15.4065C12.1784 13.3072 15.1192 9.45274 13.0977 7.68033C11.7904 7.10932 9.43306 8.61829 8.65427 11.1124Z" fill="url(#paint1_linear_2168_6379)"/>
<path d="M7.46627 24.5964C4.8661 20.2087 0.960817 10.0208 6.14102 4.37064C11.3212 -1.27957 9.50845 7.10617 8.43463 12.1473C8.79348 9.05214 11.6182 7.03407 13.0977 7.68033C15.2534 9.57042 11.766 13.8283 10.9041 15.8004C11.5244 14.1744 13.744 13.3617 14.7151 14.2131C16.8708 16.1032 11.7546 20.5796 15.3264 28.1289" stroke="black" stroke-width="1.7912" stroke-linecap="round" stroke-linejoin="round"/>
<path d="M74.693 4.65422L69.9916 9.75476L60.8194 4.98743L49.9174 2.33382L37.5755 2.0334L26.2107 5.33791L14.023 14.8509L6.30934 27.0675L2.29822 37.7821L1.6297 51.2505L5.33228 64.4685L11.0918 72.3793L20.6568 78.4376L33.7701 82.1927H45.392L60.5623 78.9383L72.4414 71.1276L79.2294 61.2642L82.4691 54.3547L84.0119 44.8418L83.1633 32.8755L81.5549 27.1677V24.8408L83.1633 22.2961L81.193 21.4599H79.6631L83.9615 13.2205L82.6183 11.6511L78.1183 13.2205L81.5437 3.86954L79.6631 2.69248L74.693 4.65422Z" fill="url(#paint2_linear_2168_6379)"/>
<path d="M21.7845 68.1862L6.82859 67.2035L6.0028 64.8808L6.82859 60.4141L5.26876 57.1981L1.87384 52.9994V47.282L11.141 50.23H20.0412L34.5384 48.2646L41.6035 47.282L54.4491 42.6366L58.8533 37.8125L63.5328 37.0085L68.8546 37.8125L72.3413 43.1726L74.5434 46.1206L83.26 51.838L82.7095 54.3394L79.6816 60.4141H73.3505H72.3413L66.9277 63.4515L62.2483 72.6529L61.239 78.817L58.8533 79.5317L50.779 81.4077L49.3109 79.5317L37.5663 72.0276L34.5384 70.7769L31.0518 70.0622L21.7845 68.1862Z" fill="white" stroke="black" stroke-width="1.56279"/>
<path d="M80.712 10.8457C83.7241 10.1471 85.4473 11.7428 84.4556 14.5769C83.7516 16.589 82.54 18.4328 81.5558 20.3499C83.545 21.2783 84.0368 21.9465 82.9648 23.8158C81.3176 26.6881 83.2126 29.0659 83.7299 31.589C86.8281 46.6995 83.7456 60.2473 72.6622 71.4768C67.193 77.0182 60.0539 80.1124 52.3751 81.883C39.1465 84.9333 26.6317 83.01 15.1884 75.9967C6.93676 70.9396 2.60305 63.2373 1.31357 53.8096C-0.508325 40.4894 3.35334 28.6154 11.0189 17.822C17.4583 8.75525 26.4018 3.06633 37.6812 1.47424C41.3146 0.961358 45.1213 1.62954 48.8495 1.7319C53.4356 1.85782 57.7982 2.98088 61.9567 4.7554C64.6124 5.88861 67.1088 7.37581 69.7782 8.75687C71.9259 5.74212 74.7957 3.21999 78.9125 2.28976C81.5188 1.70085 82.7256 2.75544 82.0351 5.29602C81.5871 6.94401 80.9451 8.54201 80.2577 10.3793C80.3209 10.6794 80.5164 10.7626 80.712 10.8457ZM80.8713 17.9566C80.9424 17.8388 81.0135 17.721 81.2849 17.4201C81.8001 16.3334 82.3715 15.2671 82.7999 14.1488C82.9512 13.7541 82.7529 13.2324 82.7142 12.7687C82.2951 12.8051 81.8401 12.7512 81.4628 12.8931C79.5124 13.6266 77.582 14.4103 75.4887 15.2381C76.0299 14.214 76.4843 13.3541 77.0518 12.2802C77.2173 12.0274 77.3828 11.7746 77.544 11.4872C77.544 11.4872 77.5111 11.5011 77.7003 11.4165C77.7673 11.3 77.8342 11.1835 77.7765 11.0434C77.7765 11.0434 77.8967 11.0835 78.107 10.9615C78.181 10.7389 78.2551 10.5163 78.278 10.2705C78.278 10.2705 78.299 10.3214 78.517 10.2046C78.5893 9.98118 78.6615 9.75773 78.6981 9.49831C78.6981 9.49831 78.6972 9.54833 78.9394 9.3946C79.4907 7.72304 80.042 6.05149 80.7543 3.89207C75.3087 4.34705 72.6409 7.34542 70.2364 10.9697C69.8763 11.0103 69.5162 11.051 69.1659 10.8161C68.7842 10.5672 68.4025 10.3182 67.899 9.83322C66.5376 9.03587 65.1761 8.23855 63.6302 7.22092C62.866 6.87976 62.1018 6.53862 61.3058 6.22349C61.3058 6.22349 61.3053 6.18301 61.1057 5.99894C60.075 5.62696 59.0442 5.25499 57.8299 4.81897C57.8299 4.81897 57.6377 4.8518 57.4677 4.79043C57.4677 4.79043 57.2867 4.80152 57.1282 4.62765C56.9046 4.57676 56.681 4.52588 56.2174 4.41555C56.0526 4.41328 55.8878 4.41102 55.5494 4.19946C55.1923 4.16485 54.8351 4.13024 54.2322 4.03208C54.0647 4.00713 53.8971 3.98218 53.5498 3.73576C53.0697 3.72438 52.5897 3.71299 51.8642 3.63157C51.6948 3.61551 51.5254 3.59945 51.1455 3.37466C50.5462 3.35639 49.9469 3.33815 49.028 3.26328C48.4874 3.2441 47.9468 3.22491 47.1479 3.0078C45.7766 2.98402 44.4053 2.96022 42.6788 2.87995C41.4794 2.89866 40.28 2.91738 38.8529 2.89379C38.6331 2.94751 38.4133 3.00123 37.8707 3.10363C37.2217 3.17593 36.5727 3.24822 35.6911 3.28473C35.4972 3.39211 35.3032 3.49946 34.8516 3.61666C34.6829 3.64618 34.5141 3.67568 34.1074 3.66065C33.9069 3.7563 33.7064 3.85195 33.2562 3.98587C33.0918 4.02073 32.9273 4.05563 32.5058 4.07539C32.3784 4.1808 32.251 4.2862 31.9374 4.38009C31.8149 4.40277 31.6953 4.43572 31.3456 4.45926C31.2383 4.56382 31.1309 4.66838 30.7373 4.77693C29.9475 5.04214 29.1305 5.24863 28.3724 5.5822C23.8286 7.58162 19.744 10.214 16.559 14.0083C16.559 14.0083 16.4619 13.902 16.1993 13.9692C15.772 14.5064 15.3447 15.0436 14.7226 15.7393C13.7063 17.0376 12.6901 18.3359 11.6839 19.6515C11.6839 19.6515 11.7009 19.6625 11.4821 19.7609C11.3349 20.0326 11.1877 20.3042 10.9894 20.6312C10.9894 20.6312 11.022 20.6984 10.7739 20.8502C10.6564 21 10.5389 21.1497 10.2758 21.3876C10.2165 21.5416 10.1571 21.6957 10.0542 21.9035C10.0542 21.9035 10.0164 21.9612 9.81717 22.1209C8.05502 26.1861 6.26315 30.2394 4.53783 34.3194C2.10401 40.0749 2.51796 46.1193 2.6839 52.4242C2.94877 53.4722 3.21363 54.5203 3.5398 55.878C4.51048 58.8168 5.13925 61.9192 6.52239 64.6607C9.48478 70.5326 14.4118 74.5657 20.5118 77.2049C22.5061 78.0678 24.6254 78.6569 26.891 79.5796C27.273 79.6425 27.6551 79.7054 28.0314 79.7409C28.0314 79.7409 28.0048 79.7514 28.1571 79.9723C28.5149 80.0251 28.8727 80.078 29.3085 80.1891C29.3085 80.1891 29.3891 80.1345 29.6077 80.3669C30.1367 80.4224 30.6658 80.4778 31.1897 80.507C31.1897 80.507 31.1656 80.5198 31.349 80.7685C33.5191 81.0427 35.6891 81.3168 38.2323 81.629C43.011 82.1021 47.7428 81.4268 52.3093 80.3362C61.6073 78.1155 69.6924 73.7855 75.4445 66.0128C80.3096 59.4389 82.867 52.131 83.0178 43.723C83.1362 43.1224 83.4137 42.5044 83.3468 41.924C82.953 38.5074 82.4791 35.0995 82.0148 31.39C81.8257 30.659 81.7609 29.8679 81.4246 29.208C80.3078 27.0173 79.6443 24.8757 82.0295 22.4527C80.3964 22.4527 79.3282 22.4527 78.1599 22.251C78.0379 22.1635 77.9159 22.0759 77.8049 21.7334C78.6316 20.6281 79.4583 19.5227 80.4561 18.3443C80.5657 18.2773 80.6441 18.1851 80.8713 17.9566Z" fill="#0F0F0F"/>
<path d="M12.2804 54.8028C12.0336 54.5453 11.7868 54.2878 11.2861 53.7653C13.4554 53.566 15.3 53.2939 17.1511 53.2429C30.5322 52.874 43.7272 51.3977 56.4603 47.1142C59.1627 46.2052 61.6008 44.8683 63.392 42.6211C63.7079 42.2246 63.894 41.7301 64.3471 40.9027C61.9789 40.9027 60.0618 40.9027 57.9899 40.9027C59.2691 39.0929 61.9447 38.4267 64.4756 39.0865C67.2621 39.8129 68.5266 41.2271 68.9095 44.183C67.9257 43.3925 66.9387 42.4608 66.2932 41.8513C63.6628 44.2226 61.2792 46.3714 58.6326 48.7573C58.8677 50.8953 58.3338 53.4411 56.1151 55.2785C54.3207 56.7644 52.2764 57.9798 50.3247 56.006C48.5729 57.6086 47.1443 59.4027 45.281 60.4918C43.1483 61.7385 41.0523 60.7567 39.3383 58.8821C37.2202 61.1815 34.6847 62.1385 31.827 60.77C29.6363 59.721 28.0549 57.9237 27.1358 55.6543C26.8593 54.9717 26.7379 54.0175 25.2196 54.7109C20.6775 54.7829 16.4789 54.7928 12.2804 54.8028ZM39.7741 53.8511C39.8577 54.5467 39.9434 55.242 40.0243 55.9378C40.3177 58.46 42.1994 59.5664 44.6082 58.6317C47.9693 57.3274 49.0269 54.6841 47.5523 51.3499C46.0207 51.6023 44.4701 51.7487 42.9867 52.1377C41.8522 52.4352 40.8025 53.0394 39.7741 53.8511ZM32.356 58.9916C36.6606 60.4747 38.9539 58.2913 38.2468 53.0824C35.0002 53.5335 31.7561 53.9843 27.8286 54.5301C29.5211 56.2669 30.7941 57.5733 32.356 58.9916ZM50.8227 54.4158C52.5351 55.1415 54.1685 54.999 55.5122 53.7247C56.9136 52.3958 57.2915 50.7256 56.783 48.6999C54.1417 49.5186 51.6106 50.3031 48.7596 51.1868C49.4366 52.3853 49.9812 53.3494 50.8227 54.4158Z" fill="#080808"/>
<path d="M7.8598 33.609C9.42273 31.2027 10.9857 28.7963 12.7377 26.2118C13.0491 25.886 13.1714 25.7384 13.2937 25.5907C14.0068 25.1732 14.7199 24.7556 15.5079 24.2346C17.2423 23.7132 18.8809 23.1662 20.5662 22.9079C22.9905 22.5365 25.2957 23.0283 27.5262 24.4548C27.6903 24.5217 27.7825 24.5471 27.8324 24.6364C27.9969 24.7997 28.1114 24.8737 28.243 24.9729C28.26 24.9982 28.301 25.0436 28.327 25.106C28.4085 25.2468 28.4842 25.2949 28.603 25.3449C28.6257 25.3772 28.6936 25.419 28.7251 25.4857C28.8208 25.635 28.9056 25.684 29.0296 25.7176C29.0484 25.7356 29.0841 25.7733 29.1106 25.8435C29.1948 26.003 29.2764 26.0597 29.3877 26.0883C29.3936 26.0925 29.4008 26.1049 29.4008 26.1049C33.2088 30.5648 33.5142 35.2015 30.1653 40.0834C28.8186 41.5163 27.6135 42.729 26.4084 43.9417C26.4084 43.9417 26.4077 43.9724 26.2884 43.9705C26.0601 44.1013 25.9512 44.234 25.8423 44.3666C24.9353 44.8194 24.0282 45.2722 22.8984 45.8243C22.4771 46.0487 22.2784 46.1737 22.0797 46.2987C22.0797 46.2987 22.1146 46.3096 21.9664 46.3078C21.4471 46.4314 21.0758 46.5568 20.7045 46.6822C20.7045 46.6822 20.6326 46.6214 20.4099 46.6539C18.5924 46.6794 16.9976 46.6724 15.4028 46.6654C15.4028 46.6654 15.4127 46.6909 15.354 46.5663C14.9255 46.3849 14.5558 46.3282 14.186 46.2714C14.186 46.2714 14.1148 46.2298 14.0229 46.1372C13.7599 45.9906 13.5888 45.9365 13.4176 45.8825C13.4176 45.8825 13.2704 45.8136 13.1043 45.6939C9.49047 43.9144 8.34437 40.883 7.86452 37.2946C7.87817 35.9505 7.86898 34.7797 7.8598 33.609ZM26.5286 41.5989C27.2257 40.9225 27.9836 40.2951 28.6094 39.561C31.2371 36.4791 31.7038 33.0499 30.0136 29.4277C28.4287 26.0314 25.5735 24.3564 21.7797 24.4295C13.731 24.5848 8.52072 30.563 9.77274 38.447C10.4158 42.4964 12.3527 45.4722 18.2863 45.1616C21.3998 44.9987 24.0212 43.7626 26.5286 41.5989Z" fill="#0D0D0D"/>
<path d="M45.8021 37.8864L45.6215 37.8661C45.6215 37.8661 45.4585 37.9445 45.276 38.0599C44.8083 38.217 44.5232 38.2588 44.238 38.3007C44.4147 37.8192 44.4866 36.9942 44.7838 36.9084C48.567 35.8155 52.3962 34.9031 56.3545 36.0057C56.85 36.1437 57.239 36.6442 57.7796 37.0681C56.9046 37.2767 55.93 37.446 54.949 37.4967C53.9826 37.5466 53.0097 37.4765 51.685 37.4671C49.4875 37.6122 47.6448 37.7493 45.8021 37.8864Z" fill="#080808"/>
<path d="M40.3447 41.2585C37.6321 39.3353 35.609 37.0297 35.6975 33.3897C35.9548 33.0708 36.1918 32.8839 36.257 32.8324C37.2575 34.7831 38.2289 36.6769 39.3376 38.5859C40.1527 39.2439 40.8306 39.8866 41.6343 40.56C41.8801 40.687 41.906 40.8033 41.6803 41.0836C41.1095 41.2442 40.6962 41.2607 40.2829 41.2771C40.2829 41.2771 40.3324 41.2795 40.3447 41.2585Z" fill="#0F0F0F"/>
<path d="M60.1615 19.842C57.8896 19.6983 55.7734 19.5464 53.3106 19.3744C51.6135 19.7546 50.263 20.1549 48.9125 20.5552C48.9125 20.5552 48.9427 20.5532 48.8004 20.5625C47.8229 21.0774 46.9877 21.5828 46.1525 22.0883C46.1525 22.0883 46.1899 22.0834 46.0522 22.0913C45.7979 22.2252 45.6813 22.3514 45.5646 22.4775C45.3912 22.5071 45.2178 22.5367 44.8732 22.6956C44.5396 23.0973 44.3771 23.3698 44.2147 23.6423C43.6919 23.7768 43.1692 23.9114 42.6464 24.0459C42.5469 23.9072 42.4474 23.7684 42.3479 23.6296C42.9806 22.8692 43.6134 22.1087 44.3127 21.2332C44.3792 21.1182 44.3859 21.1044 44.4993 21.0742C44.9084 20.8393 45.2041 20.6347 45.4998 20.43C45.4998 20.43 45.5731 20.3836 45.6855 20.3103C45.9085 20.1568 45.9717 20.05 45.9875 19.9166C49.581 16.7823 55.2834 15.9046 59.3503 17.8598C60.4122 18.3704 60.7493 19.0585 60.1615 19.842Z" fill="#080808"/>
<path d="M59.7346 28.8722C59.0885 29.2716 58.3613 29.7867 57.6712 29.7432C50.5528 29.2938 45.131 32.3629 40.4797 37.4017C40.3462 37.1607 40.3333 36.8809 40.3769 36.3626C40.4952 35.7984 40.557 35.4728 40.6187 35.1472C41.927 33.8767 43.2353 32.6063 44.5694 31.203C44.5953 31.0702 44.6303 31.0632 44.6303 31.0632C48.3691 29.9928 52.0749 28.7826 55.8666 27.9368C57.0124 27.6813 58.396 28.4364 59.7346 28.8722Z" fill="#080808"/>
<path d="M26.849 17.4834C26.849 17.4834 26.9798 17.5518 27.0538 17.5564C27.5276 17.8088 27.9273 18.0566 28.533 18.4174C29.4047 19.0436 30.0703 19.557 30.736 20.0704C30.5972 20.4008 30.4583 20.7313 30.2743 21.1616C30.2292 21.2615 30.1179 21.2211 30.0663 21.2498C28.4283 20.5243 26.8418 19.77 25.0732 18.8507C22.5108 17.8018 20.2567 18.0719 18.1172 19.3888C18.1172 19.3888 18.1564 19.3955 18.0384 19.3971C17.7263 19.5272 17.5322 19.6556 17.3381 19.784C17.3381 19.784 17.3675 19.7929 17.2324 19.7877C16.8753 19.9995 16.6532 20.2165 16.4311 20.4335C16.4311 20.4335 16.492 20.4683 16.3988 20.4633C16.3055 20.4582 16.1997 20.5744 16.1997 20.5744C15.3753 20.7172 14.5509 20.86 13.5945 20.8886C13.4625 20.7743 13.5166 20.6053 13.5166 20.6053C13.5166 20.6053 13.4916 20.5993 13.4993 20.6094C14.9813 19.5904 16.3607 18.3848 17.952 17.5729C20.4144 16.3164 23.0863 16.5282 25.8948 17.1377C26.0653 17.1426 26.1153 17.1834 26.2258 17.2819C26.5072 17.4147 26.6781 17.449 26.849 17.4834Z" fill="#0D0D0D"/>
<path d="M39.7446 53.6792C40.8024 53.0394 41.8522 52.4352 42.9867 52.1377C44.4701 51.7487 46.0207 51.6023 47.5523 51.3499C49.0269 54.6841 47.9693 57.3274 44.6081 58.6316C42.1994 59.5664 40.3177 58.4599 40.0243 55.9378C39.9433 55.242 39.8576 54.5466 39.7446 53.6792Z" fill="#FAFAFA"/>
<path d="M32.2115 58.9356C30.7941 57.5733 29.5211 56.267 27.8286 54.5301C31.756 53.9843 35.0001 53.5335 38.2468 53.0824C38.9539 58.2913 36.6606 60.4747 32.2115 58.9356Z" fill="#FAFAFA"/>
<path d="M50.6743 54.3646C49.9812 53.3494 49.4366 52.3853 48.7597 51.1868C51.6106 50.3032 54.1418 49.5186 56.7831 48.6999C57.2915 50.7256 56.9137 52.3958 55.5123 53.7247C54.1685 54.999 52.5352 55.1415 50.6743 54.3646Z" fill="#FAFAFA"/>
<path d="M26.4276 41.6954C24.0213 43.7626 21.3998 44.9987 18.2863 45.1616C12.3528 45.4722 10.4158 42.4964 9.77277 38.447C8.52075 30.563 13.731 24.5848 21.7798 24.4296C25.5735 24.3564 28.4287 26.0314 30.0136 29.4277C31.7038 33.05 31.2371 36.4791 28.6094 39.5611C27.9836 40.2951 27.2258 40.9225 26.4276 41.6954ZM12.5715 31.8677C12.3127 32.4471 11.9901 33.0079 11.8061 33.609C11.0203 36.1759 11.4736 37.8837 13.1993 38.8235C14.5739 39.572 16.0238 39.8688 17.4264 38.9313C19.0072 37.8748 19.83 35.3655 19.3593 33.4797C18.9868 31.9875 18.3292 30.6607 16.7145 30.2463C15.154 29.8458 13.7422 30.2852 12.5715 31.8677Z" fill="#FAFAFA"/>
<path d="M12.6299 31.0353C14.2151 28.9041 16.2741 28.2632 18.5499 28.8473C20.9048 29.4517 21.8639 31.3867 22.4071 33.563C23.0936 36.3133 21.8936 39.973 19.5882 41.5138C17.5426 42.881 15.4279 42.4483 13.4233 41.3566C10.9064 39.9859 10.2453 37.4952 11.3914 33.7517C11.6598 32.875 12.1302 32.057 12.6299 31.0353ZM17.2855 32.4964C17.4121 33.6293 17.5388 34.7622 17.6655 35.895C18.5876 35.664 19.8656 35.7041 20.3307 35.1251C20.7871 34.557 20.7808 33.0378 20.3066 32.5293C19.8391 32.0282 18.5304 32.271 17.2855 32.4964Z" fill="#080808"/>
<path d="M17.0318 32.3935C17.0321 32.1904 17.1916 32.0243 17.394 32.0076C18.5823 31.9097 19.8847 31.73 20.3792 32.2473C20.9319 32.8256 20.9393 34.5537 20.4073 35.1998C19.9351 35.7733 18.7444 35.8128 17.7349 35.987C17.5031 36.027 17.2769 35.8689 17.2506 35.6352C17.1338 34.598 17.0301 33.5478 17.0318 32.3935Z" fill="#FAFAFA"/>
<path d="M13.0388 37.3688C13.0371 37.1657 13.1967 36.9993 13.3991 36.9817C14.1431 36.9171 14.9257 36.8286 15.2329 37.1487C15.5953 37.5264 15.6001 38.655 15.2513 39.077C15.0311 39.3435 14.5723 39.4334 14.0876 39.5041C13.6225 39.5719 13.1642 39.2368 13.1189 38.7689C13.0753 38.3188 13.043 37.8577 13.0388 37.3688Z" fill="#FAFAFA"/>
<path d="M18.1552 37.3345C18.1501 37.1315 18.31 36.9637 18.5123 36.946C18.928 36.9096 19.3377 36.8826 19.5087 37.0617C19.7327 37.2962 19.7356 37.9968 19.5201 38.2587C19.4368 38.36 19.2983 38.4202 19.1347 38.4617C18.6786 38.5775 18.2068 38.201 18.1743 37.7316C18.1654 37.6018 18.1587 37.4698 18.1552 37.3345Z" fill="#FAFAFA"/>
<defs>
<linearGradient id="paint0_linear_2168_6379" x1="3.16791" y1="7.91341" x2="14.5095" y2="6.33438" gradientUnits="userSpaceOnUse">
<stop stop-color="#BDFF00"/>
<stop offset="1" stop-color="#00D4FF"/>
</linearGradient>
<linearGradient id="paint1_linear_2168_6379" x1="3.16791" y1="7.91341" x2="14.5095" y2="6.33438" gradientUnits="userSpaceOnUse">
<stop stop-color="#BDFF00"/>
<stop offset="1" stop-color="#00D4FF"/>
</linearGradient>
<linearGradient id="paint2_linear_2168_6379" x1="5.53055" y1="15.3278" x2="89.5599" y2="23.0678" gradientUnits="userSpaceOnUse">
<stop stop-color="#BDFF00"/>
<stop offset="1" stop-color="#00D4FF"/>
</linearGradient>
</defs>
</svg>
