<svg width="85" height="84" viewBox="0 0 85 84" fill="none" xmlns="http://www.w3.org/2000/svg">
<path d="M5.2753 24.9282C2.65371 20.4805 -1.27564 10.1581 3.97971 4.44982C8.88884 -0.88239 7.59489 6.17033 6.50803 11.2805C7.30182 8.75733 9.69101 7.23505 11.0127 7.81606C13.0545 9.6149 10.0697 13.5103 8.96707 15.6331C9.77629 14.2607 11.7368 13.642 12.6349 14.4332C14.8123 16.3514 9.62434 20.8715 13.2221 28.522L5.2753 24.9282Z" fill="url(#paint0_linear_2168_6353)"/>
<path d="M5.2753 24.9282C2.65371 20.4805 -1.27564 10.1581 3.97971 4.44982C9.23505 -1.25844 7.38153 7.22672 6.28341 12.3276C6.65356 9.19508 9.51683 7.15848 11.0127 7.81606C13.1901 9.73433 9.65112 14.0369 8.77436 16.0314C9.4058 14.3867 11.654 13.569 12.6349 14.4332C14.8123 16.3514 9.62434 20.8715 13.2221 28.522" stroke="black" stroke-width="1.81278" stroke-linecap="round" stroke-linejoin="round"/>
<path d="M77.4499 6.8148L74.9415 10.9715L76.6282 11.7509L77.4499 12.92L73.1682 17.12L79.1366 24.0046L83.1156 36.4748V47.9924L78.7906 61.2853L73.0385 69.8152L62.3559 77.0029L43.456 81.7225L21.7017 82.2854L12.8356 78.605L10.1541 73.6689L10.7164 69.5122L4.35872 61.5451L1.46102 50.5904V37.1243L7.08342 22.7056L18.4147 11.1014L33.9412 4.90964L50.7219 4.47665L62.2694 7.68079L68.5406 2.65808H71.222L70.4435 5.73233L75.8497 3.17767L77.9257 3.69725L77.4499 6.8148Z" fill="url(#paint1_linear_2168_6353)"/>
<path d="M22.2508 69.0205L4.24709 60.1227L3.60103 57.4369L6.45968 52.9935L3.60103 45.624L1.07222 40.3035L2.17169 35.1116L24.4912 43.4565H31.9676H36.5855L59.9798 40.3035L66.4725 38.6193L70.4366 41.0446L75.084 45.0192L83.2171 48.0508L81.1667 54.6527L67.8394 58.8295L63.3022 61.6166L53.891 74.6751L51.3573 79.6701L44.5164 81.3432L38.0375 77.3856L22.2508 69.0205Z" fill="white" stroke="black" stroke-width="1.57009"/>
<path d="M26.1263 83.0743C21.3623 83.0293 16.9384 82.2845 13.1794 79.4563C10.3895 77.3572 9.08258 74.5401 9.70163 70.93C9.80776 70.3111 9.38921 69.4212 8.92951 68.9142C5.02112 64.6034 2.40416 59.6344 1.37247 53.912C0.808307 50.7828 0.179897 47.5876 0.243753 44.4357C0.545782 29.5276 9.10727 12.0397 26.7795 6.2821C34.3182 3.82598 41.9663 2.57991 49.8215 3.68218C53.8301 4.2447 57.7401 5.51277 62.1486 6.5709C63.3686 5.56056 65.1221 4.08488 66.9057 2.64659C67.3972 2.25021 67.9504 1.90425 68.5235 1.63998C71.0234 0.487259 72.34 1.36385 72.1994 4.05266C73.298 3.6484 74.395 3.23958 75.4959 2.84162C76.61 2.43891 77.857 2.52827 78.3112 3.57142C78.7197 4.50965 78.7203 5.84112 78.3929 6.83069C77.9843 8.06555 77.0555 9.12789 76.466 10.0797C77.1359 10.8871 78.2582 11.6376 78.2715 12.4073C78.2883 13.3792 77.5387 14.4778 76.8645 15.3159C76.2114 16.1276 75.2347 16.6783 74.3108 17.415C77.7432 20.7194 80.4691 24.4578 81.9786 28.9823C85.925 40.8105 84.6186 52.2321 78.7316 63.0321C73.4134 72.7886 64.4275 77.7696 54.0064 80.3291C46.7442 82.1129 39.3689 83.35 31.8294 83.1152C29.9892 83.0579 28.1463 83.0859 26.1263 83.0743ZM72.9092 11.011C72.9092 11.011 72.9277 11.0783 73.1285 10.9992C73.2084 10.883 73.2884 10.7668 73.3089 10.6234C73.3089 10.6234 73.312 10.6888 73.5529 10.5768C73.6204 10.4196 73.688 10.2624 73.7344 10.0271C73.7344 10.0271 73.6547 10.0408 73.9092 9.93776C73.9733 9.77778 74.0375 9.6178 74.0814 9.52118C74.0814 9.52118 74.1458 9.53737 74.3244 9.43444C74.3705 9.30463 74.4166 9.17481 74.4196 9.04223C74.4196 9.04223 74.4307 9.08403 74.68 8.98915C76.0748 7.86405 76.8896 6.44553 77.0037 4.2893C73.5069 4.67173 71.4186 6.97005 69.0953 9.10069C69.0953 9.10069 69.015 9.19134 68.8046 9.29995C68.1769 9.72075 67.5492 10.1416 66.4776 10.86C67.0252 9.68889 67.3487 8.99727 67.8992 8.17974C68.3822 7.30159 68.909 6.44385 69.3298 5.53677C69.5434 5.07645 69.5656 4.52718 69.6743 4.01812C69.0446 4.08659 68.2584 3.93996 67.8146 4.26378C66.4734 5.24251 65.1207 6.27863 64.0422 7.52609C62.7331 9.04018 61.3975 9.12055 59.7626 7.9897C59.5107 7.91308 59.2588 7.83646 58.8493 7.52748C58.1258 7.36773 57.4023 7.20798 56.5542 6.85365C56.3346 6.81673 56.1149 6.77982 55.653 6.6816C55.4875 6.66278 55.322 6.64397 55.0329 6.4268C54.8066 6.40315 54.5804 6.37951 54.0553 6.29853C53.65 6.28236 53.2447 6.26619 52.6818 6.0415C52.3403 6.0182 51.9989 5.9949 51.4085 5.91146C51.238 5.90691 51.0674 5.90235 50.7009 5.68045C50.1208 5.64822 49.5407 5.61599 48.6708 5.52528C48.2821 5.46781 47.8934 5.41035 47.2365 5.21408C46.527 5.20925 45.8176 5.20442 44.7806 5.14053C44.1168 5.15998 43.453 5.17943 42.5049 5.15838C42.0794 5.27124 41.6539 5.38409 40.8842 5.51024C39.8496 5.53701 38.8151 5.56377 37.4814 5.55947C36.5354 5.77407 35.5894 5.98866 34.4025 6.2431C34.2444 6.28156 34.0862 6.32001 33.6209 6.31217C31.8751 6.81202 30.1294 7.31187 28.2528 7.79056C28.2528 7.79056 28.1496 7.87374 27.9111 7.86354C27.7189 7.98522 27.5267 8.10691 27.1588 8.22582C27.1588 8.22582 26.9935 8.28559 26.7159 8.26873C26.227 8.50286 25.7382 8.737 25.1435 8.9384C25.1435 8.9384 25.0696 9.02104 24.8115 9.03543C24.6838 9.14358 24.5561 9.25173 24.3536 9.33517C24.3536 9.33517 24.3019 9.39461 24.0442 9.42081C23.916 9.52986 23.7878 9.63892 23.5842 9.72106C23.5842 9.72106 23.5311 9.78114 23.2716 9.80692C23.1424 9.91516 23.0132 10.0234 22.8122 10.1071C22.8122 10.1071 22.7615 10.1635 22.5011 10.1898C22.3717 10.2989 22.2423 10.408 22.0414 10.4931C22.0414 10.4931 21.991 10.5492 21.7274 10.5741C21.595 10.6811 21.4625 10.788 21.2662 10.8795C21.2662 10.8795 21.2222 10.9284 20.9886 10.9633C20.8785 11.071 20.7685 11.1787 20.402 11.3053C19.1136 12.1756 17.8253 13.046 16.2908 13.9556C16.1034 14.0941 15.9159 14.2326 15.5034 14.4872C13.9887 16.1069 12.474 17.7266 10.7538 19.4849C9.53249 21.556 8.3112 23.627 7.06212 25.7689C7.06212 25.7689 7.03408 25.8396 6.85049 26.0014C6.26781 27.3818 5.68513 28.7621 4.90394 30.3192C2.27251 35.7709 1.64244 41.5735 1.97231 47.5235C2.01753 48.3393 2.45975 49.133 2.73926 50.2585C3.01096 51.5514 3.28267 52.8444 3.52289 54.4267C3.68641 55.2435 3.84994 56.0604 4.01322 57.1847C4.31663 57.8652 4.62004 58.5457 4.90794 59.1914C4.90794 59.1914 4.90854 59.2295 4.83745 59.4893C5.01103 59.7792 5.18461 60.0691 5.31899 60.3568C5.31899 60.3568 5.30884 60.3948 5.32816 60.6492C5.57027 60.9529 5.81238 61.2566 6.12007 61.5619C6.12007 61.5619 6.12823 61.4968 6.01558 61.784C6.19437 62.0095 6.37317 62.2349 6.45438 62.7117C7.94154 65.0642 8.98583 67.8849 12.4561 68.1829C12.2516 68.8419 12.0854 69.3775 11.9311 69.9538C11.9311 69.9538 11.9271 69.9132 11.6324 70.0044C10.9688 71.7154 10.6185 73.4069 11.9168 74.9775C11.9168 74.9775 11.8994 75.0043 11.8484 75.2606C12.0108 75.5538 12.1731 75.847 12.433 76.3865C14.8394 79.5551 18.2846 80.6154 22.3494 81.1462C23.0586 81.1672 23.7678 81.1881 24.4991 81.1807C24.4991 81.1807 24.471 81.1582 24.7119 81.4238C28.9707 81.4595 33.2304 81.5553 37.4878 81.4942C38.7556 81.476 40.0172 81.0179 41.6112 80.7629C42.6523 80.6244 43.6934 80.4859 45.0428 80.3868C45.7141 80.2585 46.3854 80.1303 47.0326 79.9898C47.0326 79.9898 47.0286 80.0166 47.3577 80.0259C48.0901 79.8896 48.8226 79.7533 49.6409 79.6621C49.6409 79.6621 49.7209 79.6073 49.996 79.6013C50.2991 79.4791 50.6022 79.3569 50.8866 79.2154C50.8866 79.2154 50.8866 79.2423 51.1856 79.319C51.7352 79.162 52.2849 79.0049 52.8151 78.8299C52.8151 78.8299 52.8107 78.8559 53.1172 78.8676C53.5927 78.7324 54.0681 78.5971 54.6464 78.4961C54.6464 78.4961 54.7382 78.4386 55.0242 78.444C55.3667 78.3226 55.7091 78.2011 56.1751 78.1004C56.1751 78.1004 56.2859 78.0421 56.5286 78.0447C56.7129 77.9259 56.8971 77.807 57.0642 77.7313C57.0642 77.7313 57.1064 77.7506 57.3783 77.7304C57.9233 77.4729 58.4684 77.2153 59.0236 76.9826C59.0236 76.9826 59.0504 76.9843 59.3262 76.9664C59.9148 76.7022 60.5034 76.438 61.185 76.2007C61.185 76.2007 61.2728 76.16 61.5203 76.1198C61.6389 76.0055 61.7575 75.8911 61.9595 75.8152C61.9595 75.8152 62.0423 75.7756 62.2931 75.7334C62.4131 75.618 62.533 75.5026 62.7285 75.4362C62.7285 75.4362 62.8094 75.3968 63.0496 75.379C63.2446 75.2533 63.4396 75.1276 63.6025 74.9932C63.6025 74.9932 63.6139 75.0245 63.8483 75.0041C64.0345 74.8762 64.2208 74.7484 64.3788 74.5975C64.3788 74.5975 64.3847 74.6334 64.6293 74.5849C64.7419 74.4665 64.8544 74.3481 65.1343 74.2677C65.2808 74.194 65.4273 74.1202 65.8192 73.9379C66.2472 73.6567 66.6751 73.3755 67.0741 73.0522C67.0741 73.0522 67.1009 73.092 67.3132 73.054C67.3716 72.9326 67.43 72.8113 67.4848 72.6685C67.4848 72.6685 67.4688 72.6831 67.7235 72.6781C67.8336 72.5527 67.9438 72.4274 68.1215 72.3603C68.1215 72.3603 68.2018 72.3211 68.4265 72.2762C68.4953 72.1544 68.564 72.0325 68.6286 71.9295C68.6286 71.9295 68.6476 71.9322 68.8694 71.9156C68.9238 71.7902 68.9783 71.6648 69.0302 71.5198C69.0302 71.5198 69.011 71.5244 69.2704 71.5346C69.3792 71.4045 69.4879 71.2745 69.6566 71.2085C69.6566 71.2085 69.7346 71.1685 69.9807 71.1056C70.103 70.991 70.2253 70.8763 70.4597 70.7348C70.5317 70.6909 70.5694 70.6268 70.7786 70.407C70.8332 70.2634 70.8879 70.1198 70.9365 69.9982C70.9365 69.9982 70.9588 70.0026 71.1799 69.9894C71.2361 69.8632 71.2922 69.737 71.2979 69.6005C71.2979 69.6005 71.3459 69.6203 71.5689 69.6052C71.6222 69.4783 71.6755 69.3514 71.7145 69.2317C71.7145 69.2317 71.7335 69.2324 71.9589 69.2283C72.0113 69.0992 72.0637 68.9702 72.1134 68.8209C72.1134 68.8209 72.0932 68.8241 72.3526 68.8342C72.4595 68.7027 72.5664 68.5713 72.8681 68.3723C73.1341 68.0628 73.4 67.7534 73.8899 67.2808C73.9453 67.0267 74.0007 66.7725 74.0124 66.4923C74.0124 66.4923 74.0436 66.5324 74.2668 66.5251C74.32 66.3961 74.3732 66.2671 74.3815 66.1164C74.3815 66.1164 74.4254 66.1434 74.6457 66.133C74.7056 66.0072 74.7655 65.8814 74.7961 65.7452C74.7961 65.7452 74.8217 65.7509 75.0394 65.6496C75.0964 65.4267 75.1534 65.2038 75.1627 64.9468C75.1627 64.9468 75.2012 64.991 75.424 64.9843C75.4793 64.8564 75.5346 64.7285 75.5901 64.5626C75.5901 64.5626 75.6044 64.5978 75.8398 64.5199C75.8924 64.2893 75.945 64.0587 75.9765 63.7996C75.9765 63.7996 75.9677 63.8341 76.1878 63.8179C76.2418 63.6899 76.2957 63.5619 76.3488 63.4097C76.3488 63.4097 76.3388 63.4311 76.593 63.4093C76.6619 63.2621 76.7308 63.1149 76.8105 62.8787C76.8105 62.8787 76.7265 62.8472 76.9518 62.7224C77.0065 62.5693 77.0611 62.4161 77.1158 62.279C77.1158 62.279 77.1316 62.2768 77.3488 62.176C77.4054 61.954 77.4619 61.732 77.5295 61.4948C77.5295 61.4948 77.5383 61.5113 77.7821 61.45C77.8286 61.2158 77.8751 60.9816 77.8925 60.6915C77.8925 60.6915 77.9283 60.7454 78.178 60.6871C78.2232 60.4501 78.2685 60.213 78.2827 59.9593C78.2827 59.9593 78.3088 59.9724 78.5505 59.9046C78.5985 59.6706 78.6466 59.4366 78.6873 59.1974C78.6873 59.1974 78.6806 59.1915 78.9435 59.1047C79.0076 58.8402 79.0717 58.5756 79.1287 58.2289C79.1287 58.2289 79.0473 58.216 79.3063 58.0794C79.3556 57.8056 79.4049 57.5317 79.4489 57.2423C79.4489 57.2423 79.4356 57.252 79.6996 57.1331C80.523 53.1828 81.3464 49.2324 82.2536 44.9722C82.0857 41.9886 81.9178 39.0049 81.7907 35.7605C81.7723 35.5861 81.7539 35.4116 81.8102 34.9879C81.7854 34.8179 81.7606 34.648 81.7203 34.1716C80.634 31.1888 79.5477 28.206 78.4074 25.003C77.9135 24.2788 77.4195 23.5547 76.7662 22.6074C75.7984 21.5376 74.8306 20.4677 73.7241 19.1737C73.5712 19.1046 73.4183 19.0354 73.3157 19.0052C73.3157 19.0052 73.349 18.951 73.2615 18.7572C73.1349 18.695 73.0083 18.6327 72.8758 18.6244C72.8758 18.6244 72.9293 18.6157 72.8538 18.4156C72.7478 18.3288 72.6418 18.2419 72.5229 18.2087C72.5229 18.2087 72.5758 18.1935 72.493 17.995C72.3721 17.923 72.2511 17.8511 72.1352 17.8319C72.1352 17.8319 72.1803 17.8042 72.1113 17.5619C72.1401 17.3186 72.1688 17.0753 72.0721 16.7562C72.0721 16.7562 72.1923 16.8402 72.3642 16.7762C72.4766 16.7101 72.5472 16.6133 72.5734 16.4577C72.5734 16.4577 72.5693 16.4794 72.7571 16.4002C72.8317 16.2895 72.9063 16.1788 72.9243 16.0421C72.9243 16.0421 72.9586 16.0942 73.1463 16.017C73.2211 15.9074 73.2959 15.7978 73.3097 15.6603C73.3097 15.6603 73.3498 15.7141 73.5342 15.6432C73.6118 15.5402 73.6894 15.4373 73.773 15.2994C73.773 15.2994 73.8003 15.322 74.0292 15.2017C74.7015 14.4037 75.3738 13.6056 76.0461 12.8076C75.1075 12.9703 74.1689 13.133 73.0578 13.1165C72.913 12.579 72.7681 12.0416 72.6093 11.4484C72.6093 11.4484 72.5595 11.4769 72.7604 11.3928C72.8329 11.2691 72.9055 11.1455 72.9092 11.011Z" fill="#0D0D0D"/>
<path d="M21.3833 66.4608C18.4304 65.2761 16.0488 63.5579 14.3216 60.8334C14.4455 60.5351 14.5171 60.4632 14.6885 60.4677C15.3742 61.0384 15.9599 61.5327 16.5601 62.0886C16.6181 62.2331 16.6866 62.2767 16.8529 62.3861C17.0806 62.5542 17.2353 62.6172 17.4271 62.6988C17.4641 62.7175 17.5195 62.6558 17.5872 62.7763C17.826 62.9574 17.9972 63.0179 18.2065 63.0929C18.2445 63.1073 18.2911 63.0406 18.3605 63.1688C18.6109 63.3646 18.7918 63.432 19.0517 63.6034C23.418 64.867 27.7053 66.0267 31.9927 67.1865C36.4788 67.9488 40.8384 67.7527 45.2462 66.3203C48.1341 65.3819 51.2756 65.2256 54.3926 65.1477C52.7216 65.6201 51.0505 66.0924 49.2754 66.6776C49.1713 66.7904 49.0599 66.7974 48.8773 66.8178C48.3837 66.9637 48.0726 67.0893 47.7615 67.2149C47.7615 67.2149 47.7953 67.2265 47.6437 67.212C47.0894 67.3448 46.6868 67.4923 46.2841 67.6398C44.3182 68.0222 42.3522 68.4046 40.0473 68.7981C36.3365 68.655 32.9646 68.5008 29.5927 68.3466C29.5927 68.3466 29.5384 68.3456 29.4479 68.2449C28.9564 68.1058 28.5554 68.0676 28.1544 68.0294C28.1544 68.0294 28.0568 67.9689 27.8896 67.8821C27.2072 67.7312 26.6922 67.6671 26.1771 67.603C26.1771 67.603 26.1103 67.5699 25.9887 67.464C25.4164 67.3057 24.9657 67.2533 24.515 67.2009C23.5209 66.9586 22.5268 66.7163 21.3833 66.4608Z" fill="#080808"/>
<path d="M14.322 53.7618C13.5905 53.3755 12.8614 52.9843 12.1266 52.6042C11.429 52.2433 10.7255 51.8939 9.85111 51.3549C9.55009 51.0566 9.42255 50.9429 9.295 50.8292C9.00028 49.9723 8.70556 49.1154 8.49569 47.9842C9.25603 47.2825 9.94199 46.4762 10.6052 46.4945C13.2464 46.5676 15.8806 46.8978 18.6768 47.1643C19.8857 47.3087 20.9352 47.4216 21.9847 47.5345C22.2689 47.5584 22.5532 47.5823 23.0628 47.7401C23.8804 47.8867 24.4728 47.8993 25.0651 47.912C25.8648 48.0616 26.6644 48.2113 27.7608 48.3548C28.3444 48.3316 28.6312 48.3147 28.918 48.2977C33.6203 48.2056 38.3295 48.2391 43.0225 47.9797C46.4776 47.7886 49.9938 47.5483 53.3335 46.7237C57.2198 45.7641 60.9569 44.1798 64.7227 42.77C65.2813 42.5609 65.642 41.8218 66.3587 41.039C67.1973 41.8388 68.1585 42.7556 69.2426 43.7177C69.3732 43.9264 69.381 44.0897 69.4152 44.3733C69.4234 45.9243 69.4052 47.3551 69.3425 49.0972C69.2364 49.6801 69.1746 49.9518 69.1129 50.2236C68.7431 51.0723 68.4051 51.9369 67.9931 52.7645C67.6932 53.3668 67.2955 53.9203 66.809 54.5106C66.6765 54.5255 66.6883 54.5353 66.6883 54.5353C66.8473 53.3365 67.0063 52.1377 67.1652 50.9389C66.954 50.8029 66.7428 50.6668 66.5316 50.5307C61.9229 55.7576 56.6054 59.9133 49.6993 62.1435C49.2106 62.3628 48.9737 62.4868 48.7368 62.6108C48.7368 62.6108 48.7105 62.5498 48.5079 62.5754C47.6785 62.7329 47.0518 62.8649 46.425 62.9969C46.425 62.9969 46.3945 62.9349 46.1816 62.9557C43.7592 63.1252 41.5497 63.274 39.3402 63.4228C38.4181 63.4082 37.4961 63.3937 36.2241 63.3827C33.1521 63.2431 30.4303 63.1 27.7084 62.9569C27.5826 62.9111 27.4568 62.8654 27.2457 62.7706C26.9805 62.695 26.8005 62.6684 26.6206 62.6418C26.4632 62.6162 26.3058 62.5905 26.0107 62.5687C25.8729 62.5726 25.8773 62.6112 25.7782 62.5019C25.0935 62.352 24.5078 62.3115 23.7845 62.213C22.5847 61.7993 21.3081 61.7031 20.5029 61.0363C18.5647 59.4313 15.9097 58.6033 14.8182 55.9098C14.7008 55.6001 14.5992 55.4053 14.4872 55.0647C14.4252 54.5332 14.3736 54.1475 14.322 53.7618ZM46.0981 49.5122C43.7795 49.7992 41.4609 50.0862 38.853 50.409C39.0576 51.9705 39.2494 53.4341 39.4751 55.1571C43.1111 54.7993 46.4437 54.4714 50.0306 54.1184C49.814 53.1074 49.561 52.3893 49.5311 51.662C49.4983 50.8643 49.6714 50.0582 49.7745 49.0655C48.5423 49.2306 47.4936 49.3711 46.0981 49.5122ZM41.2294 59.8082C41.2802 60.817 41.724 61.2859 42.8057 61.1197C44.6748 60.8327 46.5753 60.7211 48.4266 60.3538C52.9789 59.4509 51.9222 59.0154 51.3583 55.9309C51.3416 55.8396 51.1776 55.7752 51.2237 55.8124C47.7832 56.2339 44.4711 56.6397 41.0108 57.0636C41.05 57.8609 41.0901 58.6757 41.2294 59.8082ZM59.0831 47.202C56.3969 47.8983 53.7107 48.5946 50.9791 49.3026C51.0447 50.2952 50.9295 51.1799 51.2061 51.9174C51.4334 52.5236 52.1488 53.4122 52.6084 53.3891C55.4234 53.2475 58.1962 52.7787 60.7748 51.0753C60.2921 49.7751 59.8338 48.5407 59.0831 47.202ZM31.1702 58.4124C31.2993 59.4055 31.4285 60.3986 31.5545 61.3677C34.2288 61.3677 36.8212 61.3677 39.5527 61.3677C39.346 59.8203 39.1557 58.3948 38.9579 56.9138C36.3412 56.7436 33.7588 56.5756 31.0323 56.3983C31.0323 57.115 31.0323 57.6085 31.1702 58.4124ZM34.5113 50.283C33.183 50.283 31.8547 50.283 30.4601 50.283C30.3727 51.3991 30.1895 52.3579 30.2728 53.2928C30.311 53.7205 30.8374 54.4088 31.2051 54.4527C33.3904 54.7136 35.594 54.8204 37.7535 54.9762C37.7535 53.2931 37.7535 51.8649 37.7535 50.2838C36.7751 50.2838 35.8321 50.2838 34.5113 50.283ZM23.4311 57.4037C23.7046 58.3439 23.744 59.8996 24.295 60.1096C25.9976 60.7584 27.8952 60.8942 29.7244 61.2306C29.6268 59.7183 29.6607 58.4961 29.4186 57.3314C29.3178 56.8468 28.6877 56.2291 28.1956 56.1149C26.6857 55.7644 25.1261 55.6283 23.389 55.3808C23.389 55.9474 23.389 56.4986 23.4311 57.4037ZM26.6872 49.8982C25.5031 49.8304 24.319 49.7627 22.9095 49.6821C22.9095 50.3942 22.7648 51.2388 22.9555 51.9991C23.1067 52.6021 23.5848 53.4702 24.0639 53.5798C25.64 53.9403 27.2825 54.0093 28.8943 54.1896C29.2639 51.1679 28.9548 50.4992 26.6872 49.8982ZM63.8198 45.3125C62.8479 45.7293 61.8759 46.1461 60.7762 46.6177C61.2972 48.011 61.7769 49.2936 62.2523 50.5649C65.4176 49.5245 66.5249 47.1992 66.8409 44.0552C65.816 44.511 64.9648 44.8894 63.8198 45.3125ZM16.7732 54.4198C17.0685 57.1673 18.6322 58.5681 22.006 59.0754C21.8591 57.7079 21.7139 56.357 21.5731 55.0473C19.9204 54.7441 18.4547 54.4753 16.7732 54.4198ZM18.8594 52.5714C19.7099 52.709 20.5603 52.8466 21.601 53.015C21.5039 51.8285 21.4174 50.7717 21.3153 49.5247C19.8431 49.3482 18.3844 49.1733 16.9193 48.9977C16.4681 50.825 16.6777 52.072 18.8594 52.5714ZM57.1248 56.3373C58.2623 55.5857 59.3999 54.8342 60.5375 54.0826C60.475 53.9523 60.4125 53.822 60.35 53.6918C57.8954 54.2634 55.4408 54.8351 52.8499 55.4385C53.0216 56.5164 53.1635 57.4076 53.3341 58.4791C54.6655 57.7197 55.7689 57.0903 57.1248 56.3373ZM12.7988 50.4475C13.3625 50.6694 13.9262 50.8913 14.6497 51.1761C14.7359 50.1163 14.804 49.2802 14.8729 48.4332C13.1587 48.2613 11.7308 48.118 10.3029 47.9748C10.2033 48.2676 10.1037 48.5604 10.0041 48.8531C10.8484 49.3366 11.6928 49.82 12.7988 50.4475Z" fill="#080808"/>
<path d="M58.9877 29.8841C58.9877 29.8841 59.0469 29.9311 59.1648 30.0275C59.5544 30.1935 59.8259 30.263 60.0974 30.3326C60.0974 30.3326 60.0992 30.2825 60.1494 30.3955C60.6609 30.7061 61.1223 30.9038 61.5837 31.1015C61.5837 31.1015 61.6438 31.0828 61.6577 31.1657C61.8077 31.3109 61.9438 31.3732 62.0799 31.4355C62.4225 31.704 62.8627 31.9087 63.088 32.2539C63.5976 33.0347 64.2979 33.8713 64.3361 34.7118C64.3589 35.2129 63.2744 35.7645 62.4062 36.3473C61.771 36.5254 61.4173 36.6495 61.0635 36.7736C61.0635 36.7736 61.1092 36.7576 60.9004 36.7266C55.9916 36.7207 51.2916 36.7314 46.5921 36.7878C45.9448 36.7956 45.3002 37.03 44.5015 37.159C43.4453 37.3119 42.5419 37.4653 41.5017 37.5913C40.8291 37.2712 40.2932 36.9786 39.7379 36.597C39.6742 36.381 39.5862 36.3047 39.4333 36.2835C39.4121 36.2881 39.4286 36.3282 39.3981 36.2236C39.243 36.0501 39.1183 35.9812 38.9971 35.9463C39.0006 35.9803 39.064 35.9551 39.04 35.8035C38.207 34.0539 38.414 32.5908 39.7304 31.3859C40.4539 30.7237 41.3149 30.2123 42.2502 29.5687C43.2024 29.2321 44.0285 28.6991 44.8325 28.7307C49.0361 28.896 53.234 29.2046 57.4339 29.4633C57.4339 29.4633 57.5659 29.5083 57.7238 29.6131C58.2504 29.7734 58.619 29.8288 58.9877 29.8841ZM52.7331 34.1204C50.9674 33.4452 50.5521 31.9923 50.7026 29.6999C47.5672 30.4288 44.6887 31.0005 41.8721 31.7931C40.4366 32.197 39.9089 33.4722 40.3799 34.8736C40.861 36.3051 42.0231 36.0864 43.2411 35.8389C44.7881 35.5246 46.3771 35.2954 47.9523 35.2663C52.0511 35.1907 56.1526 35.2706 60.2522 35.2239C61.0564 35.2148 61.8572 34.9158 62.6596 34.7505C62.6954 34.5412 62.7312 34.3319 62.767 34.1225C61.5703 33.294 60.3736 32.4655 59.2012 31.6539C56.7053 34.3954 55.7749 34.7699 52.7331 34.1204Z" fill="#080808"/>
<path d="M53.7699 19.1482C55.6293 19.6577 57.3396 20.1166 59.2418 20.7095C59.6443 20.9394 59.8549 21.0352 60.0655 21.131C60.273 21.322 60.4805 21.5131 60.7876 21.7439C60.893 21.8847 60.9142 21.9822 61.0424 22.2973C60.7963 22.5314 60.4261 22.6403 60.1281 22.538C59.4978 22.3216 58.9053 21.9949 58.2538 21.6071C58.0927 21.408 57.975 21.3152 57.7636 21.1105C56.5956 20.7921 55.5215 20.5855 54.3522 20.3178C54.0335 20.2598 53.8099 20.263 53.4278 20.2355C52.3404 20.0987 51.4113 19.9925 50.3173 19.8557C49.37 19.8311 48.5877 19.8372 47.6606 19.8162C47.2236 19.812 46.9314 19.8348 46.4773 19.8448C45.3955 19.9496 44.4755 20.0673 43.4265 20.1763C43.1269 20.1883 42.9563 20.2091 42.6229 20.2067C41.8033 20.1999 41.1464 20.2163 40.3584 20.2089C40.0521 20.2116 39.8771 20.2382 39.5514 20.2424C38.6037 20.3597 37.8067 20.4992 36.8472 20.614C36.028 20.598 35.3712 20.6067 34.7144 20.6154C34.2959 20.5952 33.8774 20.5751 33.1264 20.5683C30.9915 20.5868 29.1891 20.592 27.3868 20.5971C25.9006 20.6559 24.4148 20.734 22.9281 20.7684C21.0765 20.8113 19.2241 20.8182 17.372 20.8406C17.4139 20.6596 17.4557 20.4787 17.7399 20.2575C18.1756 20.113 18.3689 20.0088 18.5621 19.9046C19.7533 19.6916 20.9445 19.4786 22.4188 19.1683C23.4876 19.0485 24.2733 19.0261 25.059 19.0036C25.7278 19.0205 26.3966 19.0375 27.3203 19.045C27.5752 19.0356 27.7563 18.9993 27.7563 18.9993C27.9333 19.0205 28.1103 19.0416 28.5969 19.055C30.9634 19.0344 33.0202 19.0215 35.0771 19.0086C35.3725 19.0285 35.6678 19.0483 36.2666 19.0585C37.0997 19.0354 37.6294 19.0219 38.1592 19.0085C39.0988 18.9224 40.0384 18.8362 41.2992 18.711C44.8319 18.6936 48.0434 18.7153 51.2549 18.737C52.0435 18.8571 52.8321 18.9773 53.7699 19.1482Z" fill="#0D0D0D"/>
<path d="M24.5189 28.6496C27.0626 29.1689 29.6498 29.0581 31.7719 31.079C34.0446 33.1349 34.1075 35.3252 33.0467 37.7155C33.0467 37.7155 32.9725 37.7257 32.829 37.763C32.4557 37.8668 32.2259 37.9333 31.8194 37.9782C30.0949 37.8733 28.547 37.7901 26.9992 37.7068C26.3211 37.6469 25.6431 37.5869 24.6389 37.5386C20.7945 37.3844 17.2761 37.2185 13.7128 36.9388C11.8099 35.8343 12.0795 34.0791 12.0878 32.4178C14.5037 28.8271 20.1678 27.4264 24.5189 28.6496ZM28.8702 34.0016C24.2761 35.3948 21.5679 34.0226 22.2747 29.8304C19.6185 29.9343 17.0824 30.4748 14.9586 32.0559C14.2931 32.5513 13.7955 33.7838 13.8862 34.6053C13.9459 35.1462 15.1589 35.8722 15.9193 35.9597C17.6623 36.1603 19.4474 35.9531 21.2098 36.0332C24.804 36.1967 28.3945 36.4405 32.4675 36.6794C32.0488 35.1381 31.6761 33.7659 31.2101 32.0503C30.1633 32.9215 29.6331 33.3627 28.8702 34.0016Z" fill="#0D0D0D"/>
<path d="M53.1894 23.6648C53.1894 23.6648 53.1159 23.6012 52.9721 23.4945C49.4103 23.2235 45.993 23.0387 42.5735 22.9154C42.0001 22.8947 41.4172 23.1404 40.8386 23.263C40.8386 23.263 40.8623 23.2787 40.6896 23.2561C36.8918 23.3794 33.266 23.511 29.6422 23.6837C28.9733 23.7155 28.3124 23.9138 27.6478 24.0353C27.6478 24.0353 27.5015 24.0044 27.3038 24.0378C26.8774 24.1886 26.6487 24.3059 26.4201 24.4233C26.4201 24.4233 26.3103 24.3678 26.1211 24.4038C25.5887 24.5608 25.2454 24.6818 24.9022 24.8029C24.9022 24.8029 24.7771 24.7634 24.5916 24.7985C24.0877 24.9557 23.7693 25.0778 23.4509 25.1999C23.4509 25.1999 23.2852 25.1739 23.076 25.1929C22.5569 25.3336 22.247 25.4554 21.9372 25.5771C21.9372 25.5771 21.9848 25.5875 21.8461 25.5828C21.2739 25.7097 20.8404 25.8414 20.4068 25.9731C20.4068 25.9731 20.4413 25.9795 20.3062 25.9763C19.9486 26.0971 19.7261 26.2211 19.5036 26.345C17.8877 26.9661 16.2721 27.5878 14.6537 28.2022C14.6267 28.2125 14.5284 28.132 14.5296 28.0961C14.5314 28.0413 14.5911 27.9884 14.7755 27.7786C15.012 27.4899 15.0992 27.3573 15.1864 27.2247C15.1864 27.2247 15.1163 27.2432 15.2447 27.2312C15.5445 27.0717 15.716 26.9244 15.8874 26.777C16.0021 26.7943 16.1018 26.7635 16.3411 26.551C16.6118 26.2831 16.7281 26.1487 16.8444 26.0142C16.8444 26.0142 16.9105 26.0607 17.0503 26.0243C17.2864 25.8857 17.3825 25.7836 17.4786 25.6814C17.4786 25.6814 17.4259 25.6738 17.5249 25.674C17.7618 25.6576 17.8465 25.5818 17.878 25.4466C17.878 25.4466 17.9315 25.4771 17.9623 25.4795C20.8644 24.6089 23.7387 23.7457 26.6029 22.8499C26.9491 22.7416 27.2404 22.4574 27.8509 22.15C30.584 22.0639 33.0234 22.0826 35.4627 22.1012C35.8812 22.1175 36.2997 22.1338 37.0318 22.1308C38.6462 21.973 39.947 21.8344 41.3919 21.7249C41.8279 21.7333 42.1198 21.7125 42.5906 21.7151C46.3658 21.9061 49.9621 22.0736 53.6132 22.3427C53.8936 22.4462 54.119 22.4482 54.4885 22.4805C55.6785 23.0953 56.7244 23.6797 58.1984 24.5033C57.1569 24.3966 56.6041 24.3399 56.0512 24.2833C56.0512 24.2833 55.9318 24.2989 55.9076 24.2317C55.6319 24.1334 55.3805 24.1022 55.129 24.071C55.129 24.071 55.0407 23.9875 54.8824 23.8945C54.2125 23.7559 53.701 23.7104 53.1894 23.6648Z" fill="#0D0D0D"/>
<path d="M46.2715 49.5119C47.4936 49.3711 48.5423 49.2306 49.7745 49.0656C49.6714 50.0582 49.4983 50.8644 49.5311 51.6621C49.561 52.3894 49.814 53.1075 50.0306 54.1184C46.4437 54.4714 43.1111 54.7993 39.4751 55.1571C39.2494 53.4342 39.0576 51.9706 38.853 50.4091C41.4609 50.0863 43.7795 49.7993 46.2715 49.5119Z" fill="#FAFAFA"/>
<path d="M41.1798 59.6493C41.09 58.6757 41.05 57.8609 41.0108 57.0636C44.4711 56.6397 47.7832 56.2339 51.2237 55.8124C51.1776 55.7752 51.3416 55.8396 51.3583 55.9309C51.9221 59.0155 52.9789 59.4509 48.4266 60.3538C46.5753 60.7211 44.6748 60.8327 42.8057 61.1198C41.724 61.2859 41.2802 60.817 41.1798 59.6493Z" fill="#FAFAFA"/>
<path d="M59.2294 47.2542C59.8339 48.5408 60.2921 49.7751 60.7748 51.0754C58.1962 52.7787 55.4234 53.2476 52.6084 53.3892C52.1488 53.4123 51.4334 52.5236 51.2061 51.9174C50.9295 51.18 51.0447 50.2953 50.9791 49.3027C53.7107 48.5946 56.3969 47.8984 59.2294 47.2542Z" fill="#FAFAFA"/>
<path d="M31.1012 58.2572C31.0323 57.6085 31.0323 57.115 31.0323 56.3983C33.7588 56.5756 36.3412 56.7436 38.9579 56.9138C39.1557 58.3948 39.346 59.8203 39.5527 61.3677C36.8212 61.3677 34.2288 61.3677 31.5545 61.3677C31.4285 60.3986 31.2993 59.4055 31.1012 58.2572Z" fill="#FAFAFA"/>
<path d="M34.7003 50.2834C35.8322 50.2838 36.7751 50.2838 37.7535 50.2838C37.7535 51.8649 37.7535 53.2932 37.7535 54.9762C35.5941 54.8204 33.3904 54.7136 31.2051 54.4528C30.8375 54.4089 30.311 53.7205 30.2729 53.2929C30.1895 52.3579 30.3728 51.3992 30.4602 50.2831C31.8547 50.2831 33.183 50.2831 34.7003 50.2834Z" fill="#FAFAFA"/>
<path d="M23.4101 57.2268C23.3891 56.4986 23.3891 55.9474 23.3891 55.3808C25.1262 55.6283 26.6857 55.7644 28.1957 56.1149C28.6877 56.2291 29.3179 56.8468 29.4186 57.3314C29.6608 58.4961 29.6268 59.7183 29.7245 61.2306C27.8952 60.8942 25.9976 60.7584 24.2951 60.1096C23.744 59.8996 23.7046 58.3439 23.4101 57.2268Z" fill="#FAFAFA"/>
<path d="M26.8565 49.9021C28.9548 50.4993 29.2639 51.1679 28.8944 54.1897C27.2825 54.0093 25.64 53.9403 24.0639 53.5798C23.5848 53.4702 23.1067 52.6021 22.9555 51.9991C22.7648 51.2388 22.9095 50.3942 22.9095 49.6821C24.319 49.7627 25.5031 49.8305 26.8565 49.9021Z" fill="#FAFAFA"/>
<path d="M63.9668 45.2902C64.9649 44.8895 65.816 44.511 66.8409 44.0553C66.525 47.1992 65.4176 49.5246 62.2524 50.565C61.7769 49.2936 61.2973 48.011 60.7762 46.6177C61.8759 46.1461 62.8479 45.7293 63.9668 45.2902Z" fill="#FAFAFA"/>
<path d="M16.8811 54.3131C18.4547 54.4753 19.9205 54.7441 21.5731 55.0473C21.7139 56.357 21.8591 57.708 22.0061 59.0755C18.6323 58.5681 17.0685 57.1673 16.8811 54.3131Z" fill="#FAFAFA"/>
<path d="M18.714 52.5046C16.6777 52.072 16.4681 50.825 16.9194 48.9977C18.3845 49.1734 19.8432 49.3483 21.3154 49.5248C21.4174 50.7718 21.5039 51.8285 21.6011 53.0151C20.5604 52.8467 19.7099 52.7091 18.714 52.5046Z" fill="#FAFAFA"/>
<path d="M56.9985 56.3992C55.7689 57.0903 54.6655 57.7197 53.3341 58.4791C53.1635 57.4077 53.0216 56.5165 52.8499 55.4385C55.4408 54.8351 57.8954 54.2635 60.35 53.6918C60.4125 53.8221 60.475 53.9524 60.5375 54.0826C59.3999 54.8342 58.2623 55.5858 56.9985 56.3992Z" fill="#FAFAFA"/>
<path d="M12.6679 50.3755C11.6928 49.82 10.8484 49.3366 10.0041 48.8532C10.1037 48.5604 10.2033 48.2676 10.3029 47.9749C11.7308 48.1181 13.1587 48.2613 14.8729 48.4332C14.8039 49.2803 14.7359 50.1164 14.6497 51.1762C13.9262 50.8913 13.3625 50.6694 12.6679 50.3755Z" fill="#FAFAFA"/>
<path d="M52.8729 34.1859C55.7748 34.7699 56.7053 34.3954 59.2011 31.6539C60.3735 32.4655 61.5703 33.294 62.767 34.1225C62.7312 34.3318 62.6953 34.5411 62.6595 34.7504C61.8572 34.9158 61.0563 35.2148 60.2522 35.2239C56.1525 35.2706 52.0511 35.1906 47.9523 35.2663C46.377 35.2954 44.7881 35.5246 43.2411 35.8389C42.023 36.0864 40.861 36.3051 40.3799 34.8736C39.9088 33.4722 40.4365 32.197 41.8721 31.793C44.6886 31.0005 47.5671 30.4287 50.7026 29.6999C50.5521 31.9923 50.9674 33.4452 52.8729 34.1859Z" fill="#FAFAFA"/>
<path d="M28.9865 33.9028C29.633 33.3627 30.1633 32.9215 31.2101 32.0503C31.6761 33.7659 32.0488 35.1381 32.4675 36.6794C28.3945 36.4405 24.804 36.1967 21.2098 36.0332C19.4473 35.9531 17.6622 36.1603 15.9193 35.9597C15.1589 35.8722 13.9459 35.1462 13.8862 34.6053C13.7954 33.7838 14.2931 32.5513 14.9586 32.0559C17.0824 30.4748 19.6184 29.9343 22.2747 29.8304C21.5679 34.0226 24.276 35.3948 28.9865 33.9028Z" fill="#FAFAFA"/>
<defs>
<linearGradient id="paint0_linear_2168_6353" x1="10.2978" y1="9.24993" x2="8.13136" y2="25.735" gradientUnits="userSpaceOnUse">
<stop stop-color="#49C0EB"/>
<stop offset="1" stop-color="#BD21E4"/>
</linearGradient>
<linearGradient id="paint1_linear_2168_6353" x1="5.32741" y1="15.8643" x2="88.6177" y2="23.5192" gradientUnits="userSpaceOnUse">
<stop stop-color="#00D4FF"/>
<stop offset="1" stop-color="#FF00D6"/>
</linearGradient>
</defs>
</svg>
