<svg width="84" height="84" viewBox="0 0 84 84" fill="none" xmlns="http://www.w3.org/2000/svg">
<path d="M61.8331 60.599C67.4413 56.9106 73.7828 53.4555 75.3324 52.6219C75.4171 52.6893 75.5069 52.7496 75.6009 52.8023L76.2092 53.1381C76.5465 53.3509 76.825 53.6497 77.018 54.0057C77.211 54.3617 77.312 54.7631 77.3113 55.171C77.3105 55.5936 77.1889 56.0066 76.9618 56.3582C76.7346 56.7098 76.412 56.9845 76.0343 57.1477L57.5523 65.1364C52.3714 67.3759 49.514 65.4023 48.4826 64.3893C48.2994 64.2086 48.1483 63.9962 48.036 63.7617C50.4137 64.5922 55.669 64.653 61.8331 60.599Z" fill="#DAE6F1"/>
<path d="M75.3324 52.6219C75.4171 52.6893 75.5069 52.7496 75.6009 52.8023L76.2092 53.1381C76.5465 53.3509 76.825 53.6497 77.018 54.0057C77.211 54.3617 77.312 54.7631 77.3113 55.171C77.3105 55.5936 77.1889 56.0066 76.9618 56.3582C76.7346 56.7098 76.412 56.9845 76.0343 57.1477L72.3147 58.7555L66.9223 57.4111C70.8107 55.0758 74.247 53.2058 75.3324 52.6219Z" fill="#DAE6F1"/>
<path d="M60.0862 49.692C60.6389 48.8391 61.8596 48.8763 62.3737 49.7546C62.8145 50.5079 63.0894 51.3728 63.2418 51.962C62.939 51.8375 62.6437 51.6947 62.3573 51.5342C62.1673 51.428 61.9485 51.3899 61.7353 51.4261C61.522 51.4622 61.3265 51.5705 61.1794 51.734L56.2799 57.1621C56.1038 57.3572 55.8816 57.5017 55.635 57.5814C55.3884 57.661 55.126 57.6731 54.8736 57.6164C54.6919 57.5763 54.5046 57.5716 54.3212 57.6025C56.4217 55.2187 58.8334 51.6253 60.0862 49.692Z" fill="#DAE6F1"/>
<path d="M48.0681 61.8577C48.2118 61.5908 48.4399 61.3813 48.7094 61.2555C50.6636 60.3436 52.6723 58.7317 53.6098 57.9321C53.7835 57.7841 53.9875 57.6787 54.2064 57.624C54.4253 57.5693 54.6534 57.5666 54.8735 57.6162C55.126 57.6729 55.3884 57.6608 55.6349 57.5811C55.8815 57.5015 56.1037 57.357 56.2798 57.1619L61.1793 51.7337C61.3264 51.5703 61.5219 51.4619 61.7352 51.4258C61.9484 51.3896 62.1673 51.4277 62.3573 51.534C63.3404 52.0851 65.3122 52.9218 67.1852 52.1122C69.1203 51.2759 69.5869 48.8796 69.6983 47.6665C69.7185 47.4441 69.7969 47.2315 69.9251 47.0515C70.0533 46.8715 70.2265 46.7308 70.4261 46.6445C70.8354 46.4675 71.3046 46.5416 71.6489 46.8305C73.4686 48.3577 74.2932 50.4549 74.6251 51.5805C74.7485 51.9991 74.9988 52.3607 75.3324 52.6219C73.7828 53.4555 67.4413 56.9106 61.833 60.5989C55.6689 64.6529 50.4136 64.592 48.036 63.7617C47.8756 63.4285 47.7968 63.0566 47.827 62.6793C47.8496 62.3908 47.9318 62.1107 48.0681 61.8577Z" fill="url(#paint0_linear_2072_1400)"/>
<path d="M48.0681 61.8577C48.2118 61.5908 48.4399 61.3813 48.7094 61.2555C50.6636 60.3436 52.6723 58.7317 53.6098 57.9321C53.7835 57.7841 53.9875 57.6787 54.2064 57.624C54.4253 57.5693 54.6534 57.5666 54.8735 57.6162C55.1287 57.6734 55.394 57.6602 55.6428 57.578C56.0323 58.5526 57.2872 60.709 60.864 61.2054C55.122 64.6418 50.288 64.5481 48.036 63.7617C47.8756 63.4285 47.7968 63.0566 47.827 62.6793C47.8496 62.3908 47.9318 62.1107 48.0681 61.8577Z" fill="url(#paint1_linear_2072_1400)"/>
<path d="M48.0681 61.8577C48.2118 61.5908 48.4399 61.3813 48.7094 61.2555C48.778 61.2235 48.8467 61.1904 48.9154 61.1568C49.2301 61.6708 49.8973 62.3208 51.2514 62.2679C53.286 62.1884 55.5928 62.053 56.5549 63.2334C52.7597 64.5428 49.6961 64.3415 48.0361 63.7617C47.8758 63.4285 47.7969 63.0566 47.8272 62.6793C47.8497 62.3908 47.9318 62.1107 48.0681 61.8577Z" fill="#40CAED"/>
<path d="M69.6983 47.6665C69.7185 47.4441 69.7969 47.2315 69.9251 47.0515C70.0533 46.8715 70.2265 46.7308 70.4261 46.6445C70.8354 46.4675 71.3046 46.5416 71.6489 46.8305C71.8386 46.9908 72.021 47.1601 72.1955 47.3378C71.9095 48.513 71.0037 50.4957 68.1389 51.4829C69.2849 50.4053 69.6081 48.6485 69.6983 47.6665Z" fill="#DAE6F1"/>
<path d="M64.8921 52.4088C65.381 52.4697 65.8967 52.4653 66.4161 52.3557C64.1172 55.7474 65.6995 56.9828 66.9033 57.4225C65.5498 58.2355 64.1421 59.1049 62.7597 59.9958C60.8506 57.6081 63.8324 53.669 64.8921 52.4088Z" fill="url(#paint2_linear_2072_1400)"/>
<path d="M47.9105 63.5008C47.9437 63.4838 47.9799 63.4737 48.0169 63.471C48.0538 63.4684 48.091 63.4734 48.1261 63.4856C48.1613 63.4978 48.1937 63.517 48.2217 63.5422C48.2496 63.5673 48.2725 63.5979 48.289 63.6322C48.3865 63.8362 48.5179 64.0211 48.6773 64.1782C51.5351 66.985 55.7599 65.5954 57.4434 64.8677L75.9252 56.8791C76.2519 56.7384 76.5311 56.5011 76.7275 56.1971C76.9239 55.8931 77.0287 55.5359 77.0289 55.1705C77.0302 54.4502 76.6626 53.7691 76.0686 53.391L75.4678 53.0593C75.3606 52.9994 75.2582 52.9307 75.1616 52.854C75.1321 52.8309 75.1073 52.8019 75.0886 52.7689C75.0699 52.7358 75.0577 52.6993 75.0526 52.6614C75.0476 52.6235 75.0499 52.5849 75.0593 52.5479C75.0687 52.5109 75.0851 52.4762 75.1076 52.4457C75.13 52.4152 75.158 52.3896 75.19 52.3703C75.222 52.351 75.2574 52.3384 75.2942 52.3332C75.3309 52.3281 75.3683 52.3304 75.4041 52.3401C75.44 52.3498 75.4736 52.3668 75.5032 52.3899C75.5847 52.4539 75.6603 52.5047 75.734 52.5455L76.3423 52.8813C76.3471 52.8839 76.3518 52.8867 76.3564 52.8896C77.1212 53.3722 77.5951 54.2466 77.5935 55.1717C77.5933 55.6518 77.4555 56.1211 77.1974 56.5205C76.9394 56.92 76.5726 57.2317 76.1433 57.4165L57.6613 65.4052C55.3797 66.3915 53.5297 66.5762 52.0771 66.3847C50.1169 66.1264 48.8809 65.1828 48.2879 64.6004C48.0807 64.3964 47.9099 64.1564 47.7832 63.8913C47.7667 63.8571 47.7569 63.8198 47.7544 63.7816C47.7519 63.7434 47.7567 63.7051 47.7685 63.6688C47.7803 63.6326 47.7989 63.5991 47.8233 63.5702C47.8477 63.5414 47.8773 63.5178 47.9105 63.5008ZM58.5924 50.8804C58.6133 50.8488 58.64 50.8217 58.6711 50.8008C58.7021 50.7799 58.7368 50.7655 58.7733 50.7584C58.8097 50.7514 58.8471 50.7518 58.8834 50.7597C58.9197 50.7676 58.9541 50.7827 58.9847 50.8043L61.1195 52.3113C61.1501 52.3329 61.1763 52.3605 61.1965 52.3926C61.2168 52.4246 61.2307 52.4605 61.2376 52.4981C61.2444 52.5357 61.244 52.5743 61.2364 52.6118C61.2287 52.6492 61.214 52.6847 61.1931 52.7163C61.1722 52.7479 61.1454 52.7749 61.1143 52.7958C61.0833 52.8167 61.0486 52.8311 61.0121 52.8382C60.9757 52.8452 60.9383 52.8448 60.902 52.8369C60.8657 52.829 60.8313 52.8139 60.8007 52.7922L58.6659 51.2853C58.6041 51.2416 58.5617 51.1745 58.5479 51.0985C58.5341 51.0226 58.5501 50.9441 58.5924 50.8804ZM55.1501 55.625C55.1924 55.5612 55.2574 55.5174 55.331 55.5031C55.4046 55.4888 55.4807 55.5053 55.5425 55.549L57.1129 56.6575C57.1435 56.6791 57.1697 56.7067 57.19 56.7388C57.2102 56.7708 57.2242 56.8067 57.231 56.8443C57.2378 56.8819 57.2374 56.9205 57.2298 56.958C57.2222 56.9954 57.2074 57.0309 57.1865 57.0625C57.1656 57.0941 57.1388 57.1211 57.1078 57.142C57.0767 57.1629 57.042 57.1773 57.0056 57.1844C56.9691 57.1914 56.9317 57.191 56.8954 57.1831C56.8591 57.1752 56.8247 57.1601 56.7941 57.1385L55.2236 56.0299C55.1619 55.9863 55.1194 55.9191 55.1056 55.8431C55.0918 55.7672 55.1078 55.6887 55.1501 55.625ZM56.0336 54.4551C56.0759 54.3913 56.141 54.3475 56.2146 54.3332C56.2881 54.319 56.3642 54.3355 56.426 54.3791L58.1146 55.571C58.1452 55.5926 58.1713 55.6202 58.1916 55.6523C58.2119 55.6843 58.2258 55.7202 58.2326 55.7578C58.2395 55.7954 58.2391 55.834 58.2314 55.8714C58.2238 55.9089 58.2091 55.9444 58.1882 55.976C58.1672 56.0076 58.1405 56.0346 58.1094 56.0555C58.0784 56.0764 58.0436 56.0908 58.0072 56.0978C57.9708 56.1049 57.9333 56.1045 57.897 56.0966C57.8608 56.0887 57.8263 56.0735 57.7957 56.0519L56.1072 54.86C56.0454 54.8164 56.003 54.7492 55.9892 54.6733C55.9754 54.5973 55.9914 54.5189 56.0336 54.4551ZM56.9011 53.2738C56.9433 53.21 57.0084 53.1662 57.082 53.1519C57.1556 53.1377 57.2316 53.1542 57.2934 53.1978L59.1161 54.4845C59.1467 54.5061 59.1729 54.5337 59.1931 54.5657C59.2134 54.5978 59.2273 54.6336 59.2342 54.6712C59.241 54.7088 59.2406 54.7475 59.2329 54.7849C59.2253 54.8223 59.2106 54.8579 59.1897 54.8894C59.1687 54.921 59.142 54.948 59.1109 54.969C59.0799 54.9899 59.0452 55.0042 59.0087 55.0113C58.9723 55.0184 58.9349 55.0179 58.8986 55.0101C58.8623 55.0022 58.8279 54.987 58.7973 54.9654L56.9746 53.6787C56.9128 53.6351 56.8704 53.5679 56.8566 53.492C56.8428 53.416 56.8588 53.3376 56.9011 53.2738ZM57.7443 52.0755C57.7865 52.0117 57.8516 51.9679 57.9252 51.9536C57.9988 51.9393 58.0748 51.9558 58.1366 51.9995L60.1177 53.3979C60.1795 53.4416 60.222 53.5087 60.2358 53.5847C60.2496 53.6606 60.2336 53.7391 60.1913 53.8029C60.149 53.8667 60.0839 53.9105 60.0104 53.9248C59.9368 53.939 59.8607 53.9225 59.7989 53.8789L57.8178 52.4804C57.7561 52.4368 57.7136 52.3696 57.6998 52.2936C57.686 52.2177 57.702 52.1392 57.7443 52.0755ZM56.4378 58.8913L63.0873 51.7418C63.1129 51.7139 63.1436 51.6915 63.1776 51.6759C63.2117 51.6602 63.2483 51.6517 63.2856 51.6508C63.3228 51.6499 63.3598 51.6566 63.3945 51.6705C63.4293 51.6844 63.461 51.7052 63.4878 51.7319C63.5147 51.7585 63.5362 51.7903 63.5511 51.8255C63.566 51.8607 63.574 51.8987 63.5746 51.9371C63.5753 51.9755 63.5685 52.0137 63.5548 52.0494C63.5411 52.0851 63.5207 52.1177 63.4947 52.1453L56.8452 59.2947C56.8147 59.3276 56.7771 59.3526 56.7355 59.3678C56.6939 59.3829 56.6494 59.3878 56.6056 59.3819C56.5537 59.3751 56.5047 59.3535 56.4641 59.3196C56.4234 59.2857 56.3926 59.2408 56.3752 59.1899C56.3578 59.1391 56.3545 59.0842 56.3655 59.0314C56.3766 58.9787 56.4016 58.9302 56.4378 58.8913Z" fill="black"/>
<path d="M66.7045 57.3569C66.7223 57.2819 66.7681 57.2172 66.832 57.1769C66.8958 57.1367 66.9725 57.1242 67.0453 57.1422L72.308 58.4542C72.3808 58.4723 72.4437 58.5196 72.4827 58.5855C72.5218 58.6514 72.5338 58.7307 72.5163 58.8058C72.4987 58.8809 72.4529 58.9458 72.389 58.9861C72.3252 59.0264 72.2484 59.0388 72.1756 59.0207L66.9128 57.7086C66.8768 57.6997 66.8428 57.6835 66.8128 57.6609C66.7828 57.6384 66.7574 57.61 66.7381 57.5773C66.7187 57.5447 66.7058 57.5084 66.7 57.4706C66.6943 57.4328 66.6958 57.3941 66.7045 57.3569ZM54.1778 57.3316C56.253 54.9591 58.6233 51.4254 59.8515 49.5299C60.0035 49.2939 60.2111 49.1015 60.4548 48.9708C60.6984 48.8401 60.9702 48.7754 61.2448 48.7826C61.8099 48.796 62.3222 49.1032 62.6153 49.604C63.048 50.3434 63.3243 51.1826 63.4801 51.7565C63.4988 51.8305 63.4887 51.9091 63.4518 51.9753C63.415 52.0416 63.3543 52.0903 63.283 52.1109C63.2117 52.1315 63.1354 52.1224 63.0706 52.0854C63.0058 52.0485 62.9576 51.9868 62.9364 51.9135C62.7902 51.3745 62.532 50.5885 62.1322 49.9053C62.0385 49.7441 61.9068 49.61 61.7494 49.5156C61.592 49.4212 61.4139 49.3694 61.2319 49.3652C60.86 49.3564 60.528 49.5345 60.3209 49.8539C59.0843 51.7624 56.6962 55.3224 54.5971 57.7222C54.5665 57.7571 54.5283 57.7839 54.4855 57.8002C54.4427 57.8166 54.3968 57.8219 54.3515 57.8159C54.3004 57.8091 54.252 57.788 54.2117 57.7549C54.1713 57.7218 54.1405 57.6779 54.1226 57.628C54.1047 57.5781 54.1004 57.5241 54.1101 57.4719C54.1199 57.4196 54.1433 57.3711 54.1778 57.3316Z" fill="black"/>
<path d="M47.8213 61.7163C47.991 61.401 48.2651 61.1431 48.593 60.99C50.4918 60.1041 52.4385 58.5532 53.4298 57.7076C53.8508 57.3488 54.3977 57.2121 54.9335 57.3315C55.1381 57.3768 55.3506 57.3668 55.5504 57.3022C55.7501 57.2377 55.9302 57.121 56.0733 56.9634L60.9728 51.5352C61.1626 51.3246 61.4148 51.185 61.6898 51.1384C61.9648 51.0919 62.247 51.141 62.492 51.278C63.4502 51.8151 65.3197 52.6027 67.0762 51.8435C67.8365 51.5148 69.1517 50.5317 69.4172 47.6389C69.4421 47.3639 69.539 47.101 69.6975 46.8785C69.856 46.656 70.0702 46.4822 70.3171 46.3756C70.821 46.1579 71.3995 46.2454 71.8271 46.6044C73.707 48.1824 74.5562 50.3463 74.8952 51.4957C75.0001 51.8513 75.2103 52.1605 75.5032 52.3898C75.541 52.4195 75.571 52.4586 75.5903 52.5035C75.6095 52.5484 75.6176 52.5975 75.6136 52.6464C75.6096 52.6953 75.5937 52.7424 75.5673 52.7833C75.541 52.8242 75.5051 52.8576 75.463 52.8803C73.6993 53.8292 67.5147 57.208 61.9849 60.8448C57.0717 64.0761 52.5685 64.808 49.5934 64.416C48.9749 64.3345 48.422 64.2043 47.9456 64.0379C47.8749 64.0132 47.8165 63.9605 47.7833 63.8915C47.5945 63.4992 47.5123 63.0717 47.5457 62.6554C47.5714 62.3256 47.6654 62.0054 47.8213 61.7163ZM48.2406 63.5235C49.2235 63.8317 54.4444 65.1128 61.6813 60.3533C66.9045 56.9181 72.7069 53.714 74.8455 52.5559C74.6199 52.3003 74.4523 51.9961 74.355 51.6653C74.0348 50.5794 73.2343 48.5366 71.4708 47.0565C71.2051 46.8334 70.8466 46.7785 70.5352 46.9131C70.3826 46.979 70.2503 47.0864 70.1524 47.224C70.0545 47.3615 69.9947 47.524 69.9794 47.6939C69.686 50.8891 68.1712 52.002 67.2943 52.381C65.3205 53.2341 63.2696 52.3769 62.2227 51.79C62.0876 51.7147 61.9322 51.6878 61.7808 51.7135C61.6293 51.7392 61.4904 51.8162 61.386 51.9323L56.4865 57.3604C56.2766 57.5919 56.0122 57.7634 55.719 57.8581C55.4258 57.9528 55.1139 57.9675 54.8136 57.9009C54.6353 57.8602 54.4504 57.862 54.2729 57.9064C54.0955 57.9507 53.9302 58.0363 53.7897 58.1566C52.7765 59.0207 50.7845 60.6069 48.8259 61.5209C48.6076 61.6226 48.4261 61.7925 48.3149 61.9992C48.1981 62.2159 48.1276 62.456 48.1083 62.7032C48.0865 62.9762 48.1321 63.2575 48.2406 63.5235Z" fill="black"/>
<path d="M55.5644 57.3951C55.6331 57.3642 55.7108 57.3627 55.7805 57.3909C55.8502 57.4192 55.9062 57.4748 55.9361 57.5457C56.3831 58.6031 57.6171 60.4463 60.8595 60.9108C60.9338 60.921 61.001 60.9612 61.0465 61.0226C61.092 61.0839 61.1121 61.1614 61.1022 61.238C61.0923 61.3146 61.0534 61.3841 60.9939 61.431C60.9344 61.478 60.8593 61.4986 60.7851 61.4885L60.782 61.488C59.2273 61.2653 57.9329 60.7127 56.935 59.8456C56.0956 59.1163 55.6471 58.319 55.4187 57.7786C55.3888 57.7078 55.3873 57.6276 55.4146 57.5557C55.4419 57.4838 55.4958 57.426 55.5644 57.3951ZM48.7872 60.9584C48.8495 60.9157 48.9258 60.9003 48.9992 60.9156C49.0726 60.9309 49.1371 60.9757 49.1785 61.04C49.4696 61.4927 50.0636 62.0226 51.2406 61.9766L51.4519 61.9683C53.4307 61.8896 55.674 61.8002 56.7163 62.9815C56.7553 63.0256 56.7803 63.0809 56.7878 63.1401C56.7953 63.1992 56.785 63.2594 56.7583 63.3123C56.7316 63.3652 56.6898 63.4084 56.6386 63.436C56.5873 63.4636 56.5291 63.4743 56.4718 63.4666C56.4053 63.4579 56.344 63.425 56.2989 63.3738C55.4333 62.3928 53.3295 62.4765 51.4738 62.5505L51.262 62.5589C49.8232 62.6151 49.079 61.9391 48.7081 61.3622C48.6667 61.2979 48.6517 61.2191 48.6666 61.1434C48.6814 61.0677 48.7248 61.0011 48.7872 60.9584ZM68.1073 51.1864C70.6289 50.2969 71.5569 48.6285 71.8914 47.3854C71.9114 47.3109 71.9593 47.2477 72.0245 47.2097C72.0896 47.1717 72.1668 47.1619 72.239 47.1826C72.3111 47.2033 72.3723 47.2527 72.4092 47.32C72.446 47.3872 72.4555 47.4669 72.4355 47.5413C72.1319 48.6696 71.1897 50.7149 68.2898 51.7379C68.2548 51.7502 68.2177 51.7554 68.1807 51.7529C68.1437 51.7505 68.1075 51.7406 68.0742 51.7237C68.0409 51.7069 68.0112 51.6834 67.9867 51.6547C67.9622 51.626 67.9434 51.5926 67.9314 51.5564C67.9194 51.5201 67.9144 51.4818 67.9168 51.4437C67.9191 51.4055 67.9288 51.3681 67.9451 51.3338C67.9614 51.2994 67.9842 51.2687 68.012 51.2434C68.0398 51.2182 68.0722 51.1988 68.1073 51.1864ZM64.6063 52.3048C64.6304 52.2757 64.6598 52.2518 64.6929 52.2345C64.7259 52.2171 64.762 52.2067 64.7989 52.2037C64.8359 52.2008 64.8731 52.2053 64.9083 52.2172C64.9436 52.2291 64.9762 52.248 65.0044 52.2729C65.0325 52.2977 65.0557 52.3281 65.0725 52.3622C65.0893 52.3963 65.0994 52.4335 65.1023 52.4717C65.1052 52.5098 65.1007 52.5482 65.0892 52.5846C65.0777 52.6209 65.0594 52.6546 65.0353 52.6837C64.1302 53.7747 61.302 57.5062 62.904 59.7138C62.9265 59.7444 62.943 59.7793 62.9524 59.8165C62.9619 59.8537 62.9641 59.8924 62.9589 59.9305C62.9538 59.9686 62.9414 60.0053 62.9224 60.0384C62.9035 60.0715 62.8784 60.1004 62.8486 60.1234C62.8187 60.1465 62.7848 60.1632 62.7487 60.1727C62.7126 60.1821 62.675 60.1841 62.6381 60.1785C62.6013 60.1729 62.5659 60.1598 62.5339 60.14C62.502 60.1202 62.4742 60.0941 62.4521 60.0631C60.6489 57.5785 63.358 53.8098 64.6063 52.3048ZM66.1261 52.2759C66.1693 52.2142 66.2342 52.1724 66.3068 52.1594C66.3795 52.1464 66.4542 52.1632 66.515 52.2063C66.5758 52.2494 66.6178 52.3154 66.6321 52.3901C66.6464 52.4647 66.6319 52.5422 66.5915 52.6059C65.6921 53.9568 65.3586 55.0517 65.6002 55.86C65.7644 56.4099 66.1992 56.8297 66.8924 57.1076C66.961 57.1364 67.016 57.1919 67.0453 57.2621C67.0747 57.3323 67.0761 57.4117 67.0492 57.483C67.0224 57.5543 66.9695 57.6118 66.9019 57.6432C66.8343 57.6746 66.7575 57.6773 66.688 57.6507C65.838 57.31 65.2753 56.7501 65.0606 56.0317C64.7658 55.0447 65.1242 53.781 66.1261 52.2759Z" fill="black"/>
<g filter="url(#filter0_d_2072_1400)">
<mask id="path-13-outside-1_2072_1400" maskUnits="userSpaceOnUse" x="10.2824" y="15.9013" width="69.0022" height="20.9043" fill="black">
<rect fill="white" x="10.2824" y="15.9013" width="69.0022" height="20.9043"/>
<path d="M19.2332 24.7615C20.5006 24.9358 21.5633 25.1973 22.4213 25.5459C23.2915 25.8787 23.9944 26.4016 24.53 27.1147C25.0656 27.8278 25.3918 28.7944 25.5087 30.0146C25.5982 30.9495 25.4473 31.8131 25.0559 32.6054C24.6782 33.3978 24.0655 34.0316 23.2177 34.507C22.3684 34.9665 21.3184 35.1963 20.0677 35.1963C18.7758 35.1963 17.6558 34.9111 16.7079 34.3406C15.7599 33.7701 15.022 33.0254 14.4942 32.1063C13.9663 31.1872 13.6508 30.1889 13.5476 29.1113H16.2689C16.3813 29.9987 16.7046 30.791 17.2387 31.4883C17.7727 32.1855 18.6308 32.5341 19.8127 32.5341C20.5549 32.5341 21.1482 32.4153 21.5927 32.1776C22.0495 31.924 22.3574 31.623 22.5164 31.2744C22.6876 30.9099 22.7566 30.5533 22.7232 30.2047C22.664 29.5867 22.3894 29.0876 21.8994 28.7073C21.408 28.3111 20.5629 28.0259 19.3642 27.8516C17.9839 27.6456 16.8754 27.3366 16.0388 26.9246C15.2144 26.4967 14.5993 25.9579 14.1935 25.3082C13.7862 24.6427 13.5355 23.8187 13.4414 22.8362C13.3579 21.9647 13.5011 21.1644 13.8711 20.4355C14.2411 19.7066 14.8187 19.1361 15.6038 18.7241C16.4012 18.2963 17.3565 18.0823 18.4698 18.0823C19.6655 18.0823 20.6854 18.328 21.5296 18.8192C22.3738 19.3104 23.027 19.9601 23.4892 20.7683C23.9514 21.5764 24.235 22.4559 24.3398 23.4067H21.6804C21.6151 22.7253 21.3368 22.1152 20.8454 21.5764C20.3525 21.0218 19.6318 20.7445 18.6835 20.7445C17.7352 20.7445 17.0746 20.9505 16.7018 21.3625C16.3289 21.7745 16.1653 22.2182 16.2108 22.6936C16.3201 23.8345 17.3275 24.5238 19.2332 24.7615Z"/>
<path d="M30.1683 22.2657C31.2678 22.2657 32.2571 22.551 33.1364 23.1214C34.0157 23.6919 34.7222 24.4684 35.2561 25.4508C35.79 26.4333 36.1147 27.5267 36.23 28.731C36.3453 29.9353 36.2302 31.0287 35.8845 32.0112C35.5388 32.9937 34.9809 33.7701 34.211 34.3406C33.441 34.9111 32.5062 35.1963 31.4067 35.1963C30.3072 35.1963 29.3179 34.9111 28.4386 34.3406C27.5593 33.7701 26.8528 32.9937 26.3189 32.0112C25.785 31.0287 25.4603 29.9353 25.345 28.731C25.2296 27.5267 25.3448 26.4333 25.6905 25.4508C26.0362 24.4684 26.5941 23.6919 27.364 23.1214C28.134 22.551 29.0688 22.2657 30.1683 22.2657ZM31.1426 32.4391C32.0085 32.4391 32.6554 32.0904 33.0834 31.3932C33.5236 30.6801 33.6929 29.7927 33.5912 28.731C33.4895 27.6693 33.151 26.7899 32.5757 26.0926C32.0127 25.3795 31.2982 25.023 30.4323 25.023C29.5665 25.023 28.9135 25.3795 28.4732 26.0926C28.0452 26.7899 27.8821 27.6693 27.9838 28.731C28.0855 29.7927 28.4178 30.6801 28.9809 31.3932C29.5562 32.0904 30.2768 32.4391 31.1426 32.4391Z"/>
<path d="M47.8264 22.2657C48.8847 22.2657 49.7809 22.654 50.5149 23.4304C51.2627 24.2069 51.7201 25.4667 51.8871 27.2098L52.6338 35.0061H49.995L49.2938 27.6852C49.2028 26.7344 49.0001 26.053 48.6857 25.641C48.3851 25.229 47.9187 25.023 47.2865 25.023C46.6955 25.023 46.2403 25.3637 45.9207 26.0451C45.5996 26.7106 45.4915 27.5901 45.5962 28.6835L46.2018 35.0061H43.563L42.8891 27.9704C42.7889 26.9246 42.6137 26.1719 42.3636 25.7123C42.1134 25.2528 41.6722 25.023 41.04 25.023C40.614 25.023 40.2466 25.2052 39.9379 25.5697C39.6414 25.9183 39.4281 26.4175 39.2979 27.0672C39.1662 27.701 39.1383 28.4141 39.2142 29.2064L39.7697 35.0061H37.1309L35.9289 22.4559H38.5677L38.636 23.169C38.6633 23.4542 38.6586 23.6919 38.6218 23.8821C38.585 24.0722 38.5207 24.3337 38.4289 24.6665C38.3861 24.7932 38.3685 24.8962 38.3761 24.9755C38.3852 25.0705 38.4401 25.1418 38.5408 25.1894L38.6256 25.2132C38.708 25.2132 38.7661 25.1735 38.7997 25.0943C38.8319 24.9992 38.8472 24.9438 38.8457 24.9279C39.0538 24.0881 39.3902 23.4384 39.8547 22.9788C40.3177 22.5034 40.8996 22.2657 41.6005 22.2657C42.2877 22.2657 42.8801 22.4955 43.3777 22.9551C43.8737 23.3988 44.233 23.993 44.4555 24.7378C44.5119 24.8962 44.6226 24.9755 44.7875 24.9755C44.9249 24.9755 45.0143 24.9042 45.0556 24.7615C45.2821 23.9692 45.636 23.3591 46.1172 22.9313C46.6108 22.4876 47.1805 22.2657 47.8264 22.2657Z"/>
<path d="M58.5021 22.2657C59.7115 22.2657 60.71 22.7174 61.4974 23.6206C62.2848 24.5238 62.762 25.847 62.929 27.5901L63.6393 35.0061H61.0005L60.3904 28.6359C60.2598 27.2732 60.0115 26.3303 59.6453 25.8074C59.2791 25.2845 58.7387 25.023 58.024 25.023C57.5155 25.023 57.0542 25.229 56.6401 25.641C56.2398 26.053 55.9378 26.6314 55.7343 27.3762C55.5307 28.1209 55.4737 28.9608 55.5633 29.8957L56.0528 35.0061H53.414L52.2119 22.4559H54.8507L54.9258 23.2403C54.9608 23.6048 54.9629 23.9138 54.9322 24.1673C54.9015 24.4208 54.8441 24.6823 54.7599 24.9517C54.7094 25.1418 54.6872 25.2686 54.6933 25.332C54.7069 25.4746 54.7695 25.5538 54.8809 25.5697H54.9428C55.039 25.5697 55.1124 25.4746 55.1629 25.2845C55.3909 24.508 55.7914 23.8108 56.3644 23.1928C56.9374 22.5748 57.65 22.2657 58.5021 22.2657Z"/>
<path d="M62.7832 17.8922H65.422L65.7134 20.9347H63.0746L62.7832 17.8922ZM63.2203 22.4559H65.8591L67.0611 35.0061H64.4224L63.2203 22.4559Z"/>
<path d="M67.1933 31.5596C67.0688 30.2602 67.3343 29.3015 67.9898 28.6835C68.6575 28.0496 69.5854 27.6931 70.7735 27.6139L71.8204 27.5663C72.7519 27.5346 73.4117 27.4633 73.7996 27.3524C74.1875 27.2415 74.3542 26.9721 74.2994 26.5442C74.2341 26.0055 74.0343 25.5697 73.7001 25.2369C73.3658 24.9042 72.7795 24.7378 71.9412 24.7378C71.0891 24.7378 70.501 24.9121 70.1771 25.2607C69.8516 25.5935 69.6757 26.053 69.6494 26.6393H67.0519C67.0879 25.1498 67.5527 24.0485 68.4465 23.3354C69.3403 22.6223 70.4537 22.2657 71.7869 22.2657C73.2437 22.2657 74.4376 22.6778 75.3686 23.5018C76.2997 24.3258 76.8714 25.847 77.0839 28.0655L77.7487 35.0061H75.1099L75.0257 34.1267C74.9801 33.6513 75.0392 33.1918 75.2029 32.7481C75.2427 32.5896 75.2588 32.4707 75.2512 32.3915C75.2421 32.2964 75.2016 32.2331 75.1299 32.2014L75.0451 32.1776C74.9627 32.1776 74.9054 32.2251 74.8733 32.3202C74.8396 32.3994 74.8236 32.447 74.8251 32.4628C74.3537 34.2851 73.1903 35.1963 71.3349 35.1963C70.6614 35.1963 70.014 35.0378 69.3927 34.7209C68.7851 34.404 68.2829 33.9682 67.8862 33.4136C67.4895 32.859 67.2585 32.241 67.1933 31.5596ZM74.4907 28.5409C74.2492 28.8895 73.9085 29.1351 73.4686 29.2777C73.041 29.4045 72.3583 29.5233 71.4206 29.6343C70.8372 29.7135 70.408 29.8957 70.1329 30.181C69.8701 30.4503 69.7645 30.8544 69.8161 31.3932C69.8601 31.8527 70.047 32.2251 70.3767 32.5104C70.7201 32.7956 71.1392 32.9382 71.634 32.9382C71.8126 32.9382 71.9493 32.9303 72.044 32.9144C72.8427 32.7877 73.4775 32.3836 73.9482 31.7022C74.4327 31.0208 74.6135 29.967 74.4907 28.5409Z"/>
</mask>
<path d="M19.2332 24.7615C20.5006 24.9358 21.5633 25.1973 22.4213 25.5459C23.2915 25.8787 23.9944 26.4016 24.53 27.1147C25.0656 27.8278 25.3918 28.7944 25.5087 30.0146C25.5982 30.9495 25.4473 31.8131 25.0559 32.6054C24.6782 33.3978 24.0655 34.0316 23.2177 34.507C22.3684 34.9665 21.3184 35.1963 20.0677 35.1963C18.7758 35.1963 17.6558 34.9111 16.7079 34.3406C15.7599 33.7701 15.022 33.0254 14.4942 32.1063C13.9663 31.1872 13.6508 30.1889 13.5476 29.1113H16.2689C16.3813 29.9987 16.7046 30.791 17.2387 31.4883C17.7727 32.1855 18.6308 32.5341 19.8127 32.5341C20.5549 32.5341 21.1482 32.4153 21.5927 32.1776C22.0495 31.924 22.3574 31.623 22.5164 31.2744C22.6876 30.9099 22.7566 30.5533 22.7232 30.2047C22.664 29.5867 22.3894 29.0876 21.8994 28.7073C21.408 28.3111 20.5629 28.0259 19.3642 27.8516C17.9839 27.6456 16.8754 27.3366 16.0388 26.9246C15.2144 26.4967 14.5993 25.9579 14.1935 25.3082C13.7862 24.6427 13.5355 23.8187 13.4414 22.8362C13.3579 21.9647 13.5011 21.1644 13.8711 20.4355C14.2411 19.7066 14.8187 19.1361 15.6038 18.7241C16.4012 18.2963 17.3565 18.0823 18.4698 18.0823C19.6655 18.0823 20.6854 18.328 21.5296 18.8192C22.3738 19.3104 23.027 19.9601 23.4892 20.7683C23.9514 21.5764 24.235 22.4559 24.3398 23.4067H21.6804C21.6151 22.7253 21.3368 22.1152 20.8454 21.5764C20.3525 21.0218 19.6318 20.7445 18.6835 20.7445C17.7352 20.7445 17.0746 20.9505 16.7018 21.3625C16.3289 21.7745 16.1653 22.2182 16.2108 22.6936C16.3201 23.8345 17.3275 24.5238 19.2332 24.7615Z" fill="url(#paint3_linear_2072_1400)"/>
<path d="M30.1683 22.2657C31.2678 22.2657 32.2571 22.551 33.1364 23.1214C34.0157 23.6919 34.7222 24.4684 35.2561 25.4508C35.79 26.4333 36.1147 27.5267 36.23 28.731C36.3453 29.9353 36.2302 31.0287 35.8845 32.0112C35.5388 32.9937 34.9809 33.7701 34.211 34.3406C33.441 34.9111 32.5062 35.1963 31.4067 35.1963C30.3072 35.1963 29.3179 34.9111 28.4386 34.3406C27.5593 33.7701 26.8528 32.9937 26.3189 32.0112C25.785 31.0287 25.4603 29.9353 25.345 28.731C25.2296 27.5267 25.3448 26.4333 25.6905 25.4508C26.0362 24.4684 26.5941 23.6919 27.364 23.1214C28.134 22.551 29.0688 22.2657 30.1683 22.2657ZM31.1426 32.4391C32.0085 32.4391 32.6554 32.0904 33.0834 31.3932C33.5236 30.6801 33.6929 29.7927 33.5912 28.731C33.4895 27.6693 33.151 26.7899 32.5757 26.0926C32.0127 25.3795 31.2982 25.023 30.4323 25.023C29.5665 25.023 28.9135 25.3795 28.4732 26.0926C28.0452 26.7899 27.8821 27.6693 27.9838 28.731C28.0855 29.7927 28.4178 30.6801 28.9809 31.3932C29.5562 32.0904 30.2768 32.4391 31.1426 32.4391Z" fill="url(#paint4_linear_2072_1400)"/>
<path d="M47.8264 22.2657C48.8847 22.2657 49.7809 22.654 50.5149 23.4304C51.2627 24.2069 51.7201 25.4667 51.8871 27.2098L52.6338 35.0061H49.995L49.2938 27.6852C49.2028 26.7344 49.0001 26.053 48.6857 25.641C48.3851 25.229 47.9187 25.023 47.2865 25.023C46.6955 25.023 46.2403 25.3637 45.9207 26.0451C45.5996 26.7106 45.4915 27.5901 45.5962 28.6835L46.2018 35.0061H43.563L42.8891 27.9704C42.7889 26.9246 42.6137 26.1719 42.3636 25.7123C42.1134 25.2528 41.6722 25.023 41.04 25.023C40.614 25.023 40.2466 25.2052 39.9379 25.5697C39.6414 25.9183 39.4281 26.4175 39.2979 27.0672C39.1662 27.701 39.1383 28.4141 39.2142 29.2064L39.7697 35.0061H37.1309L35.9289 22.4559H38.5677L38.636 23.169C38.6633 23.4542 38.6586 23.6919 38.6218 23.8821C38.585 24.0722 38.5207 24.3337 38.4289 24.6665C38.3861 24.7932 38.3685 24.8962 38.3761 24.9755C38.3852 25.0705 38.4401 25.1418 38.5408 25.1894L38.6256 25.2132C38.708 25.2132 38.7661 25.1735 38.7997 25.0943C38.8319 24.9992 38.8472 24.9438 38.8457 24.9279C39.0538 24.0881 39.3902 23.4384 39.8547 22.9788C40.3177 22.5034 40.8996 22.2657 41.6005 22.2657C42.2877 22.2657 42.8801 22.4955 43.3777 22.9551C43.8737 23.3988 44.233 23.993 44.4555 24.7378C44.5119 24.8962 44.6226 24.9755 44.7875 24.9755C44.9249 24.9755 45.0143 24.9042 45.0556 24.7615C45.2821 23.9692 45.636 23.3591 46.1172 22.9313C46.6108 22.4876 47.1805 22.2657 47.8264 22.2657Z" fill="url(#paint5_linear_2072_1400)"/>
<path d="M58.5021 22.2657C59.7115 22.2657 60.71 22.7174 61.4974 23.6206C62.2848 24.5238 62.762 25.847 62.929 27.5901L63.6393 35.0061H61.0005L60.3904 28.6359C60.2598 27.2732 60.0115 26.3303 59.6453 25.8074C59.2791 25.2845 58.7387 25.023 58.024 25.023C57.5155 25.023 57.0542 25.229 56.6401 25.641C56.2398 26.053 55.9378 26.6314 55.7343 27.3762C55.5307 28.1209 55.4737 28.9608 55.5633 29.8957L56.0528 35.0061H53.414L52.2119 22.4559H54.8507L54.9258 23.2403C54.9608 23.6048 54.9629 23.9138 54.9322 24.1673C54.9015 24.4208 54.8441 24.6823 54.7599 24.9517C54.7094 25.1418 54.6872 25.2686 54.6933 25.332C54.7069 25.4746 54.7695 25.5538 54.8809 25.5697H54.9428C55.039 25.5697 55.1124 25.4746 55.1629 25.2845C55.3909 24.508 55.7914 23.8108 56.3644 23.1928C56.9374 22.5748 57.65 22.2657 58.5021 22.2657Z" fill="url(#paint6_linear_2072_1400)"/>
<path d="M62.7832 17.8922H65.422L65.7134 20.9347H63.0746L62.7832 17.8922ZM63.2203 22.4559H65.8591L67.0611 35.0061H64.4224L63.2203 22.4559Z" fill="url(#paint7_linear_2072_1400)"/>
<path d="M67.1933 31.5596C67.0688 30.2602 67.3343 29.3015 67.9898 28.6835C68.6575 28.0496 69.5854 27.6931 70.7735 27.6139L71.8204 27.5663C72.7519 27.5346 73.4117 27.4633 73.7996 27.3524C74.1875 27.2415 74.3542 26.9721 74.2994 26.5442C74.2341 26.0055 74.0343 25.5697 73.7001 25.2369C73.3658 24.9042 72.7795 24.7378 71.9412 24.7378C71.0891 24.7378 70.501 24.9121 70.1771 25.2607C69.8516 25.5935 69.6757 26.053 69.6494 26.6393H67.0519C67.0879 25.1498 67.5527 24.0485 68.4465 23.3354C69.3403 22.6223 70.4537 22.2657 71.7869 22.2657C73.2437 22.2657 74.4376 22.6778 75.3686 23.5018C76.2997 24.3258 76.8714 25.847 77.0839 28.0655L77.7487 35.0061H75.1099L75.0257 34.1267C74.9801 33.6513 75.0392 33.1918 75.2029 32.7481C75.2427 32.5896 75.2588 32.4707 75.2512 32.3915C75.2421 32.2964 75.2016 32.2331 75.1299 32.2014L75.0451 32.1776C74.9627 32.1776 74.9054 32.2251 74.8733 32.3202C74.8396 32.3994 74.8236 32.447 74.8251 32.4628C74.3537 34.2851 73.1903 35.1963 71.3349 35.1963C70.6614 35.1963 70.014 35.0378 69.3927 34.7209C68.7851 34.404 68.2829 33.9682 67.8862 33.4136C67.4895 32.859 67.2585 32.241 67.1933 31.5596ZM74.4907 28.5409C74.2492 28.8895 73.9085 29.1351 73.4686 29.2777C73.041 29.4045 72.3583 29.5233 71.4206 29.6343C70.8372 29.7135 70.408 29.8957 70.1329 30.181C69.8701 30.4503 69.7645 30.8544 69.8161 31.3932C69.8601 31.8527 70.047 32.2251 70.3767 32.5104C70.7201 32.7956 71.1392 32.9382 71.634 32.9382C71.8126 32.9382 71.9493 32.9303 72.044 32.9144C72.8427 32.7877 73.4775 32.3836 73.9482 31.7022C74.4327 31.0208 74.6135 29.967 74.4907 28.5409Z" fill="url(#paint8_linear_2072_1400)"/>
<path d="M19.2332 24.7615C20.5006 24.9358 21.5633 25.1973 22.4213 25.5459C23.2915 25.8787 23.9944 26.4016 24.53 27.1147C25.0656 27.8278 25.3918 28.7944 25.5087 30.0146C25.5982 30.9495 25.4473 31.8131 25.0559 32.6054C24.6782 33.3978 24.0655 34.0316 23.2177 34.507C22.3684 34.9665 21.3184 35.1963 20.0677 35.1963C18.7758 35.1963 17.6558 34.9111 16.7079 34.3406C15.7599 33.7701 15.022 33.0254 14.4942 32.1063C13.9663 31.1872 13.6508 30.1889 13.5476 29.1113H16.2689C16.3813 29.9987 16.7046 30.791 17.2387 31.4883C17.7727 32.1855 18.6308 32.5341 19.8127 32.5341C20.5549 32.5341 21.1482 32.4153 21.5927 32.1776C22.0495 31.924 22.3574 31.623 22.5164 31.2744C22.6876 30.9099 22.7566 30.5533 22.7232 30.2047C22.664 29.5867 22.3894 29.0876 21.8994 28.7073C21.408 28.3111 20.5629 28.0259 19.3642 27.8516C17.9839 27.6456 16.8754 27.3366 16.0388 26.9246C15.2144 26.4967 14.5993 25.9579 14.1935 25.3082C13.7862 24.6427 13.5355 23.8187 13.4414 22.8362C13.3579 21.9647 13.5011 21.1644 13.8711 20.4355C14.2411 19.7066 14.8187 19.1361 15.6038 18.7241C16.4012 18.2963 17.3565 18.0823 18.4698 18.0823C19.6655 18.0823 20.6854 18.328 21.5296 18.8192C22.3738 19.3104 23.027 19.9601 23.4892 20.7683C23.9514 21.5764 24.235 22.4559 24.3398 23.4067H21.6804C21.6151 22.7253 21.3368 22.1152 20.8454 21.5764C20.3525 21.0218 19.6318 20.7445 18.6835 20.7445C17.7352 20.7445 17.0746 20.9505 16.7018 21.3625C16.3289 21.7745 16.1653 22.2182 16.2108 22.6936C16.3201 23.8345 17.3275 24.5238 19.2332 24.7615Z" stroke="black" stroke-width="2.31724" mask="url(#path-13-outside-1_2072_1400)"/>
<path d="M30.1683 22.2657C31.2678 22.2657 32.2571 22.551 33.1364 23.1214C34.0157 23.6919 34.7222 24.4684 35.2561 25.4508C35.79 26.4333 36.1147 27.5267 36.23 28.731C36.3453 29.9353 36.2302 31.0287 35.8845 32.0112C35.5388 32.9937 34.9809 33.7701 34.211 34.3406C33.441 34.9111 32.5062 35.1963 31.4067 35.1963C30.3072 35.1963 29.3179 34.9111 28.4386 34.3406C27.5593 33.7701 26.8528 32.9937 26.3189 32.0112C25.785 31.0287 25.4603 29.9353 25.345 28.731C25.2296 27.5267 25.3448 26.4333 25.6905 25.4508C26.0362 24.4684 26.5941 23.6919 27.364 23.1214C28.134 22.551 29.0688 22.2657 30.1683 22.2657ZM31.1426 32.4391C32.0085 32.4391 32.6554 32.0904 33.0834 31.3932C33.5236 30.6801 33.6929 29.7927 33.5912 28.731C33.4895 27.6693 33.151 26.7899 32.5757 26.0926C32.0127 25.3795 31.2982 25.023 30.4323 25.023C29.5665 25.023 28.9135 25.3795 28.4732 26.0926C28.0452 26.7899 27.8821 27.6693 27.9838 28.731C28.0855 29.7927 28.4178 30.6801 28.9809 31.3932C29.5562 32.0904 30.2768 32.4391 31.1426 32.4391Z" stroke="black" stroke-width="2.31724" mask="url(#path-13-outside-1_2072_1400)"/>
<path d="M47.8264 22.2657C48.8847 22.2657 49.7809 22.654 50.5149 23.4304C51.2627 24.2069 51.7201 25.4667 51.8871 27.2098L52.6338 35.0061H49.995L49.2938 27.6852C49.2028 26.7344 49.0001 26.053 48.6857 25.641C48.3851 25.229 47.9187 25.023 47.2865 25.023C46.6955 25.023 46.2403 25.3637 45.9207 26.0451C45.5996 26.7106 45.4915 27.5901 45.5962 28.6835L46.2018 35.0061H43.563L42.8891 27.9704C42.7889 26.9246 42.6137 26.1719 42.3636 25.7123C42.1134 25.2528 41.6722 25.023 41.04 25.023C40.614 25.023 40.2466 25.2052 39.9379 25.5697C39.6414 25.9183 39.4281 26.4175 39.2979 27.0672C39.1662 27.701 39.1383 28.4141 39.2142 29.2064L39.7697 35.0061H37.1309L35.9289 22.4559H38.5677L38.636 23.169C38.6633 23.4542 38.6586 23.6919 38.6218 23.8821C38.585 24.0722 38.5207 24.3337 38.4289 24.6665C38.3861 24.7932 38.3685 24.8962 38.3761 24.9755C38.3852 25.0705 38.4401 25.1418 38.5408 25.1894L38.6256 25.2132C38.708 25.2132 38.7661 25.1735 38.7997 25.0943C38.8319 24.9992 38.8472 24.9438 38.8457 24.9279C39.0538 24.0881 39.3902 23.4384 39.8547 22.9788C40.3177 22.5034 40.8996 22.2657 41.6005 22.2657C42.2877 22.2657 42.8801 22.4955 43.3777 22.9551C43.8737 23.3988 44.233 23.993 44.4555 24.7378C44.5119 24.8962 44.6226 24.9755 44.7875 24.9755C44.9249 24.9755 45.0143 24.9042 45.0556 24.7615C45.2821 23.9692 45.636 23.3591 46.1172 22.9313C46.6108 22.4876 47.1805 22.2657 47.8264 22.2657Z" stroke="black" stroke-width="2.31724" mask="url(#path-13-outside-1_2072_1400)"/>
<path d="M58.5021 22.2657C59.7115 22.2657 60.71 22.7174 61.4974 23.6206C62.2848 24.5238 62.762 25.847 62.929 27.5901L63.6393 35.0061H61.0005L60.3904 28.6359C60.2598 27.2732 60.0115 26.3303 59.6453 25.8074C59.2791 25.2845 58.7387 25.023 58.024 25.023C57.5155 25.023 57.0542 25.229 56.6401 25.641C56.2398 26.053 55.9378 26.6314 55.7343 27.3762C55.5307 28.1209 55.4737 28.9608 55.5633 29.8957L56.0528 35.0061H53.414L52.2119 22.4559H54.8507L54.9258 23.2403C54.9608 23.6048 54.9629 23.9138 54.9322 24.1673C54.9015 24.4208 54.8441 24.6823 54.7599 24.9517C54.7094 25.1418 54.6872 25.2686 54.6933 25.332C54.7069 25.4746 54.7695 25.5538 54.8809 25.5697H54.9428C55.039 25.5697 55.1124 25.4746 55.1629 25.2845C55.3909 24.508 55.7914 23.8108 56.3644 23.1928C56.9374 22.5748 57.65 22.2657 58.5021 22.2657Z" stroke="black" stroke-width="2.31724" mask="url(#path-13-outside-1_2072_1400)"/>
<path d="M62.7832 17.8922H65.422L65.7134 20.9347H63.0746L62.7832 17.8922ZM63.2203 22.4559H65.8591L67.0611 35.0061H64.4224L63.2203 22.4559Z" stroke="black" stroke-width="2.31724" mask="url(#path-13-outside-1_2072_1400)"/>
<path d="M67.1933 31.5596C67.0688 30.2602 67.3343 29.3015 67.9898 28.6835C68.6575 28.0496 69.5854 27.6931 70.7735 27.6139L71.8204 27.5663C72.7519 27.5346 73.4117 27.4633 73.7996 27.3524C74.1875 27.2415 74.3542 26.9721 74.2994 26.5442C74.2341 26.0055 74.0343 25.5697 73.7001 25.2369C73.3658 24.9042 72.7795 24.7378 71.9412 24.7378C71.0891 24.7378 70.501 24.9121 70.1771 25.2607C69.8516 25.5935 69.6757 26.053 69.6494 26.6393H67.0519C67.0879 25.1498 67.5527 24.0485 68.4465 23.3354C69.3403 22.6223 70.4537 22.2657 71.7869 22.2657C73.2437 22.2657 74.4376 22.6778 75.3686 23.5018C76.2997 24.3258 76.8714 25.847 77.0839 28.0655L77.7487 35.0061H75.1099L75.0257 34.1267C74.9801 33.6513 75.0392 33.1918 75.2029 32.7481C75.2427 32.5896 75.2588 32.4707 75.2512 32.3915C75.2421 32.2964 75.2016 32.2331 75.1299 32.2014L75.0451 32.1776C74.9627 32.1776 74.9054 32.2251 74.8733 32.3202C74.8396 32.3994 74.8236 32.447 74.8251 32.4628C74.3537 34.2851 73.1903 35.1963 71.3349 35.1963C70.6614 35.1963 70.014 35.0378 69.3927 34.7209C68.7851 34.404 68.2829 33.9682 67.8862 33.4136C67.4895 32.859 67.2585 32.241 67.1933 31.5596ZM74.4907 28.5409C74.2492 28.8895 73.9085 29.1351 73.4686 29.2777C73.041 29.4045 72.3583 29.5233 71.4206 29.6343C70.8372 29.7135 70.408 29.8957 70.1329 30.181C69.8701 30.4503 69.7645 30.8544 69.8161 31.3932C69.8601 31.8527 70.047 32.2251 70.3767 32.5104C70.7201 32.7956 71.1392 32.9382 71.634 32.9382C71.8126 32.9382 71.9493 32.9303 72.044 32.9144C72.8427 32.7877 73.4775 32.3836 73.9482 31.7022C74.4327 31.0208 74.6135 29.967 74.4907 28.5409Z" stroke="black" stroke-width="2.31724" mask="url(#path-13-outside-1_2072_1400)"/>
</g>
<g filter="url(#filter1_d_2072_1400)">
<mask id="path-14-outside-2_2072_1400" maskUnits="userSpaceOnUse" x="22.5897" y="32.5227" width="61.3836" height="24.8861" fill="black">
<rect fill="white" x="22.5897" y="32.5227" width="61.3836" height="24.8861"/>
<path d="M31.5406 41.3829C32.8079 41.5572 33.8706 41.8187 34.7286 42.1673C35.5989 42.5001 36.3018 43.023 36.8374 43.7361C37.373 44.4492 37.6992 45.4158 37.8161 46.636C37.9056 47.5709 37.7547 48.4345 37.3633 49.2268C36.9856 50.0191 36.3729 50.653 35.5251 51.1284C34.6758 51.5879 33.6257 51.8177 32.3751 51.8177C31.0832 51.8177 29.9632 51.5325 29.0152 50.962C28.0673 50.3915 27.3294 49.6468 26.8015 48.7277C26.2737 47.8086 25.9582 46.8103 25.855 45.7327H28.5762C28.6887 46.6201 29.012 47.4124 29.5461 48.1097C30.0801 48.8069 30.9381 49.1555 32.1201 49.1555C32.8623 49.1555 33.4556 49.0367 33.9001 48.799C34.3569 48.5454 34.6647 48.2444 34.8238 47.8957C34.995 47.5313 35.0639 47.1747 35.0305 46.8261C34.9714 46.2081 34.6968 45.709 34.2068 45.3287C33.7153 44.9325 32.8703 44.6473 31.6716 44.473C30.2912 44.267 29.1828 43.958 28.3462 43.5459C27.5218 43.1181 26.9067 42.5793 26.5009 41.9296C26.0936 41.2641 25.8428 40.4401 25.7487 39.4576C25.6653 38.5861 25.8085 37.7858 26.1785 37.0569C26.5485 36.328 27.126 35.7575 27.9112 35.3455C28.7086 34.9177 29.6639 34.7037 30.7771 34.7037C31.9729 34.7037 32.9928 34.9493 33.837 35.4406C34.6812 35.9318 35.3344 36.5815 35.7966 37.3897C36.2588 38.1978 36.5423 39.0773 36.6471 40.0281H33.9877C33.9225 39.3467 33.6441 38.7366 33.1527 38.1978C32.6598 37.6432 31.9392 37.3659 30.9909 37.3659C30.0426 37.3659 29.382 37.5719 29.0091 37.9839C28.6363 38.3959 28.4726 38.8396 28.5182 39.315C28.6275 40.4559 29.6349 41.1452 31.5406 41.3829Z"/>
<path d="M40.3954 39.5527C40.4363 39.9805 40.3819 40.4163 40.232 40.86C40.2228 40.9075 40.2021 40.9789 40.17 41.0739C40.1516 41.169 40.1454 41.2482 40.1515 41.3116C40.1591 41.3909 40.1995 41.4542 40.2728 41.5018L40.3575 41.5255C40.4538 41.5255 40.5179 41.478 40.55 41.3829C40.5822 41.2879 40.6043 41.2324 40.6166 41.2165C40.9056 40.5035 41.3121 39.9409 41.8362 39.5289C42.3724 39.1011 43.0391 38.8871 43.8363 38.8871C44.7571 38.8871 45.6022 39.1724 46.3715 39.7428C47.1545 40.3133 47.7924 41.0898 48.285 42.0722C48.7777 43.0547 49.0817 44.1481 49.1971 45.3524C49.3124 46.5567 49.2179 47.6501 48.9134 48.6326C48.6089 49.6151 48.1198 50.3915 47.446 50.962C46.786 51.5325 45.9956 51.8177 45.0747 51.8177C44.2913 51.8177 43.5844 51.6117 42.954 51.1997C42.3358 50.7718 41.82 50.1935 41.4066 49.4645C41.405 49.4487 41.3722 49.3932 41.3082 49.2981C41.2578 49.2031 41.18 49.1793 41.0746 49.2268C40.9829 49.2744 40.9416 49.3457 40.9507 49.4408C40.9614 49.5517 41.0071 49.6705 41.088 49.7973C41.3229 50.241 41.4601 50.6688 41.4995 51.0808L41.989 56.1913H39.3502L37.711 39.0773H40.3498L40.3954 39.5527ZM44.1922 49.0604C45.0718 49.0604 45.7118 48.7118 46.1123 48.0146C46.5113 47.3015 46.66 46.4141 46.5583 45.3524C46.4566 44.2907 46.1387 43.4113 45.6047 42.714C45.0691 42.0009 44.3615 41.6444 43.4819 41.6444C42.9184 41.6444 42.4327 41.8108 42.0248 42.1436C41.6168 42.4763 41.3165 42.9279 41.1237 43.4984C40.9447 44.0689 40.8871 44.6869 40.9509 45.3524C41.0146 46.018 41.1906 46.636 41.4789 47.2064C41.7809 47.7769 42.1678 48.2285 42.6394 48.5613C43.1111 48.8941 43.6287 49.0604 44.1922 49.0604Z"/>
<path d="M59.8643 45.186C59.8886 45.4396 59.8976 45.7486 59.8913 46.113H51.9749C52.1622 47.0638 52.5359 47.8086 53.096 48.3474C53.6561 48.8861 54.3485 49.1555 55.1731 49.1555C56.2863 49.1555 56.9609 48.5217 57.1968 47.254H59.8769C59.7615 48.6326 59.3318 49.7418 58.5876 50.5817C57.8556 51.4057 56.7956 51.8177 55.4075 51.8177C54.2667 51.8177 53.2575 51.5404 52.3798 50.9858C51.502 50.4312 50.8038 49.6705 50.2852 48.7039C49.765 47.7214 49.445 46.6043 49.3251 45.3524C49.2007 44.053 49.312 42.92 49.6593 41.9534C50.005 40.9709 50.5582 40.2182 51.319 39.6953C52.092 39.1565 53.0283 38.8871 54.1278 38.8871C55.0211 38.8871 55.8738 39.109 56.686 39.5527C57.5104 39.9805 58.2086 40.6698 58.7807 41.6206C59.365 42.5556 59.7262 43.744 59.8643 45.186ZM57.114 44.0213C56.9831 43.229 56.688 42.5872 56.2287 42.096C55.7693 41.6048 55.1754 41.3592 54.447 41.3592C52.8802 41.3592 52.0238 42.2466 51.8776 44.0213H57.114Z"/>
<path d="M70.4499 45.186C70.4742 45.4396 70.4832 45.7486 70.4769 46.113H62.5605C62.7478 47.0638 63.1215 47.8086 63.6816 48.3474C64.2417 48.8861 64.9341 49.1555 65.7587 49.1555C66.8719 49.1555 67.5465 48.5217 67.7824 47.254H70.4625C70.3471 48.6326 69.9174 49.7418 69.1732 50.5817C68.4412 51.4057 67.3812 51.8177 65.9931 51.8177C64.8523 51.8177 63.8431 51.5404 62.9654 50.9858C62.0876 50.4312 61.3894 49.6705 60.8708 48.7039C60.3506 47.7214 60.0306 46.6043 59.9107 45.3524C59.7863 44.053 59.8976 42.92 60.2449 41.9534C60.5906 40.9709 61.1438 40.2182 61.9046 39.6953C62.6776 39.1565 63.6139 38.8871 64.7134 38.8871C65.6067 38.8871 66.4595 39.109 67.2716 39.5527C68.096 39.9805 68.7942 40.6698 69.3663 41.6206C69.9506 42.5556 70.3118 43.744 70.4499 45.186ZM67.6996 44.0213C67.5687 43.229 67.2736 42.5872 66.8143 42.096C66.3549 41.6048 65.761 41.3592 65.0326 41.3592C63.4658 41.3592 62.6094 42.2466 62.4632 44.0213H67.6996Z"/>
<path d="M82.0629 51.6275H79.4241L79.3717 51.0808C79.3323 50.6688 79.3875 50.241 79.5374 49.7973C79.594 49.6705 79.617 49.5517 79.6063 49.4408C79.5972 49.3457 79.5423 49.2744 79.4415 49.2268L79.3774 49.2031C79.295 49.2031 79.2369 49.2427 79.2033 49.3219C79.1834 49.4011 79.1673 49.4487 79.1551 49.4645C78.7988 50.1935 78.3663 50.7718 77.8576 51.1997C77.3473 51.6117 76.7073 51.8177 75.9377 51.8177C75.0168 51.8177 74.1649 51.5325 73.3818 50.962C72.6125 50.3915 71.9815 49.6151 71.4889 48.6326C70.9962 47.6501 70.6922 46.5567 70.5768 45.3524C70.4615 44.1481 70.5561 43.0547 70.8605 42.0722C71.165 41.0898 71.6472 40.3133 72.3073 39.7428C72.9811 39.1724 73.7784 38.8871 74.6992 38.8871C75.5101 38.8871 76.2246 39.1011 76.8428 39.5289C77.4733 39.9409 77.9807 40.5035 78.3651 41.2165C78.5008 41.4859 78.6336 41.581 78.7635 41.5018C78.8276 41.4542 78.8552 41.3829 78.8461 41.2879C78.837 41.1928 78.7821 41.0502 78.6814 40.86C78.4465 40.4163 78.3086 39.9805 78.2676 39.5527L77.7849 34.5136H80.4237L82.0629 51.6275ZM76.292 49.0604C76.8555 49.0604 77.3412 48.8941 77.7492 48.5613C78.1571 48.2285 78.4506 47.7769 78.6296 47.2064C78.8223 46.636 78.8868 46.018 78.8231 45.3524C78.7593 44.6869 78.5764 44.0689 78.2744 43.4984C77.9861 42.9279 77.6061 42.4763 77.1345 42.1436C76.6628 41.8108 76.1452 41.6444 75.5817 41.6444C74.7021 41.6444 74.0628 42.0009 73.6639 42.714C73.2634 43.4113 73.1139 44.2907 73.2156 45.3524C73.3173 46.4141 73.636 47.3015 74.1715 48.0146C74.7056 48.7118 75.4124 49.0604 76.292 49.0604Z"/>
</mask>
<path d="M31.5406 41.3829C32.8079 41.5572 33.8706 41.8187 34.7286 42.1673C35.5989 42.5001 36.3018 43.023 36.8374 43.7361C37.373 44.4492 37.6992 45.4158 37.8161 46.636C37.9056 47.5709 37.7547 48.4345 37.3633 49.2268C36.9856 50.0191 36.3729 50.653 35.5251 51.1284C34.6758 51.5879 33.6257 51.8177 32.3751 51.8177C31.0832 51.8177 29.9632 51.5325 29.0152 50.962C28.0673 50.3915 27.3294 49.6468 26.8015 48.7277C26.2737 47.8086 25.9582 46.8103 25.855 45.7327H28.5762C28.6887 46.6201 29.012 47.4124 29.5461 48.1097C30.0801 48.8069 30.9381 49.1555 32.1201 49.1555C32.8623 49.1555 33.4556 49.0367 33.9001 48.799C34.3569 48.5454 34.6647 48.2444 34.8238 47.8957C34.995 47.5313 35.0639 47.1747 35.0305 46.8261C34.9714 46.2081 34.6968 45.709 34.2068 45.3287C33.7153 44.9325 32.8703 44.6473 31.6716 44.473C30.2912 44.267 29.1828 43.958 28.3462 43.5459C27.5218 43.1181 26.9067 42.5793 26.5009 41.9296C26.0936 41.2641 25.8428 40.4401 25.7487 39.4576C25.6653 38.5861 25.8085 37.7858 26.1785 37.0569C26.5485 36.328 27.126 35.7575 27.9112 35.3455C28.7086 34.9177 29.6639 34.7037 30.7771 34.7037C31.9729 34.7037 32.9928 34.9493 33.837 35.4406C34.6812 35.9318 35.3344 36.5815 35.7966 37.3897C36.2588 38.1978 36.5423 39.0773 36.6471 40.0281H33.9877C33.9225 39.3467 33.6441 38.7366 33.1527 38.1978C32.6598 37.6432 31.9392 37.3659 30.9909 37.3659C30.0426 37.3659 29.382 37.5719 29.0091 37.9839C28.6363 38.3959 28.4726 38.8396 28.5182 39.315C28.6275 40.4559 29.6349 41.1452 31.5406 41.3829Z" fill="white"/>
<path d="M40.3954 39.5527C40.4363 39.9805 40.3819 40.4163 40.232 40.86C40.2228 40.9075 40.2021 40.9789 40.17 41.0739C40.1516 41.169 40.1454 41.2482 40.1515 41.3116C40.1591 41.3909 40.1995 41.4542 40.2728 41.5018L40.3575 41.5255C40.4538 41.5255 40.5179 41.478 40.55 41.3829C40.5822 41.2879 40.6043 41.2324 40.6166 41.2165C40.9056 40.5035 41.3121 39.9409 41.8362 39.5289C42.3724 39.1011 43.0391 38.8871 43.8363 38.8871C44.7571 38.8871 45.6022 39.1724 46.3715 39.7428C47.1545 40.3133 47.7924 41.0898 48.285 42.0722C48.7777 43.0547 49.0817 44.1481 49.1971 45.3524C49.3124 46.5567 49.2179 47.6501 48.9134 48.6326C48.6089 49.6151 48.1198 50.3915 47.446 50.962C46.786 51.5325 45.9956 51.8177 45.0747 51.8177C44.2913 51.8177 43.5844 51.6117 42.954 51.1997C42.3358 50.7718 41.82 50.1935 41.4066 49.4645C41.405 49.4487 41.3722 49.3932 41.3082 49.2981C41.2578 49.2031 41.18 49.1793 41.0746 49.2268C40.9829 49.2744 40.9416 49.3457 40.9507 49.4408C40.9614 49.5517 41.0071 49.6705 41.088 49.7973C41.3229 50.241 41.4601 50.6688 41.4995 51.0808L41.989 56.1913H39.3502L37.711 39.0773H40.3498L40.3954 39.5527ZM44.1922 49.0604C45.0718 49.0604 45.7118 48.7118 46.1123 48.0146C46.5113 47.3015 46.66 46.4141 46.5583 45.3524C46.4566 44.2907 46.1387 43.4113 45.6047 42.714C45.0691 42.0009 44.3615 41.6444 43.4819 41.6444C42.9184 41.6444 42.4327 41.8108 42.0248 42.1436C41.6168 42.4763 41.3165 42.9279 41.1237 43.4984C40.9447 44.0689 40.8871 44.6869 40.9509 45.3524C41.0146 46.018 41.1906 46.636 41.4789 47.2064C41.7809 47.7769 42.1678 48.2285 42.6394 48.5613C43.1111 48.8941 43.6287 49.0604 44.1922 49.0604Z" fill="white"/>
<path d="M59.8643 45.186C59.8886 45.4396 59.8976 45.7486 59.8913 46.113H51.9749C52.1622 47.0638 52.5359 47.8086 53.096 48.3474C53.6561 48.8861 54.3485 49.1555 55.1731 49.1555C56.2863 49.1555 56.9609 48.5217 57.1968 47.254H59.8769C59.7615 48.6326 59.3318 49.7418 58.5876 50.5817C57.8556 51.4057 56.7956 51.8177 55.4075 51.8177C54.2667 51.8177 53.2575 51.5404 52.3798 50.9858C51.502 50.4312 50.8038 49.6705 50.2852 48.7039C49.765 47.7214 49.445 46.6043 49.3251 45.3524C49.2007 44.053 49.312 42.92 49.6593 41.9534C50.005 40.9709 50.5582 40.2182 51.319 39.6953C52.092 39.1565 53.0283 38.8871 54.1278 38.8871C55.0211 38.8871 55.8738 39.109 56.686 39.5527C57.5104 39.9805 58.2086 40.6698 58.7807 41.6206C59.365 42.5556 59.7262 43.744 59.8643 45.186ZM57.114 44.0213C56.9831 43.229 56.688 42.5872 56.2287 42.096C55.7693 41.6048 55.1754 41.3592 54.447 41.3592C52.8802 41.3592 52.0238 42.2466 51.8776 44.0213H57.114Z" fill="white"/>
<path d="M70.4499 45.186C70.4742 45.4396 70.4832 45.7486 70.4769 46.113H62.5605C62.7478 47.0638 63.1215 47.8086 63.6816 48.3474C64.2417 48.8861 64.9341 49.1555 65.7587 49.1555C66.8719 49.1555 67.5465 48.5217 67.7824 47.254H70.4625C70.3471 48.6326 69.9174 49.7418 69.1732 50.5817C68.4412 51.4057 67.3812 51.8177 65.9931 51.8177C64.8523 51.8177 63.8431 51.5404 62.9654 50.9858C62.0876 50.4312 61.3894 49.6705 60.8708 48.7039C60.3506 47.7214 60.0306 46.6043 59.9107 45.3524C59.7863 44.053 59.8976 42.92 60.2449 41.9534C60.5906 40.9709 61.1438 40.2182 61.9046 39.6953C62.6776 39.1565 63.6139 38.8871 64.7134 38.8871C65.6067 38.8871 66.4595 39.109 67.2716 39.5527C68.096 39.9805 68.7942 40.6698 69.3663 41.6206C69.9506 42.5556 70.3118 43.744 70.4499 45.186ZM67.6996 44.0213C67.5687 43.229 67.2736 42.5872 66.8143 42.096C66.3549 41.6048 65.761 41.3592 65.0326 41.3592C63.4658 41.3592 62.6094 42.2466 62.4632 44.0213H67.6996Z" fill="white"/>
<path d="M82.0629 51.6275H79.4241L79.3717 51.0808C79.3323 50.6688 79.3875 50.241 79.5374 49.7973C79.594 49.6705 79.617 49.5517 79.6063 49.4408C79.5972 49.3457 79.5423 49.2744 79.4415 49.2268L79.3774 49.2031C79.295 49.2031 79.2369 49.2427 79.2033 49.3219C79.1834 49.4011 79.1673 49.4487 79.1551 49.4645C78.7988 50.1935 78.3663 50.7718 77.8576 51.1997C77.3473 51.6117 76.7073 51.8177 75.9377 51.8177C75.0168 51.8177 74.1649 51.5325 73.3818 50.962C72.6125 50.3915 71.9815 49.6151 71.4889 48.6326C70.9962 47.6501 70.6922 46.5567 70.5768 45.3524C70.4615 44.1481 70.5561 43.0547 70.8605 42.0722C71.165 41.0898 71.6472 40.3133 72.3073 39.7428C72.9811 39.1724 73.7784 38.8871 74.6992 38.8871C75.5101 38.8871 76.2246 39.1011 76.8428 39.5289C77.4733 39.9409 77.9807 40.5035 78.3651 41.2165C78.5008 41.4859 78.6336 41.581 78.7635 41.5018C78.8276 41.4542 78.8552 41.3829 78.8461 41.2879C78.837 41.1928 78.7821 41.0502 78.6814 40.86C78.4465 40.4163 78.3086 39.9805 78.2676 39.5527L77.7849 34.5136H80.4237L82.0629 51.6275ZM76.292 49.0604C76.8555 49.0604 77.3412 48.8941 77.7492 48.5613C78.1571 48.2285 78.4506 47.7769 78.6296 47.2064C78.8223 46.636 78.8868 46.018 78.8231 45.3524C78.7593 44.6869 78.5764 44.0689 78.2744 43.4984C77.9861 42.9279 77.6061 42.4763 77.1345 42.1436C76.6628 41.8108 76.1452 41.6444 75.5817 41.6444C74.7021 41.6444 74.0628 42.0009 73.6639 42.714C73.2634 43.4113 73.1139 44.2907 73.2156 45.3524C73.3173 46.4141 73.636 47.3015 74.1715 48.0146C74.7056 48.7118 75.4124 49.0604 76.292 49.0604Z" fill="white"/>
<path d="M31.5406 41.3829C32.8079 41.5572 33.8706 41.8187 34.7286 42.1673C35.5989 42.5001 36.3018 43.023 36.8374 43.7361C37.373 44.4492 37.6992 45.4158 37.8161 46.636C37.9056 47.5709 37.7547 48.4345 37.3633 49.2268C36.9856 50.0191 36.3729 50.653 35.5251 51.1284C34.6758 51.5879 33.6257 51.8177 32.3751 51.8177C31.0832 51.8177 29.9632 51.5325 29.0152 50.962C28.0673 50.3915 27.3294 49.6468 26.8015 48.7277C26.2737 47.8086 25.9582 46.8103 25.855 45.7327H28.5762C28.6887 46.6201 29.012 47.4124 29.5461 48.1097C30.0801 48.8069 30.9381 49.1555 32.1201 49.1555C32.8623 49.1555 33.4556 49.0367 33.9001 48.799C34.3569 48.5454 34.6647 48.2444 34.8238 47.8957C34.995 47.5313 35.0639 47.1747 35.0305 46.8261C34.9714 46.2081 34.6968 45.709 34.2068 45.3287C33.7153 44.9325 32.8703 44.6473 31.6716 44.473C30.2912 44.267 29.1828 43.958 28.3462 43.5459C27.5218 43.1181 26.9067 42.5793 26.5009 41.9296C26.0936 41.2641 25.8428 40.4401 25.7487 39.4576C25.6653 38.5861 25.8085 37.7858 26.1785 37.0569C26.5485 36.328 27.126 35.7575 27.9112 35.3455C28.7086 34.9177 29.6639 34.7037 30.7771 34.7037C31.9729 34.7037 32.9928 34.9493 33.837 35.4406C34.6812 35.9318 35.3344 36.5815 35.7966 37.3897C36.2588 38.1978 36.5423 39.0773 36.6471 40.0281H33.9877C33.9225 39.3467 33.6441 38.7366 33.1527 38.1978C32.6598 37.6432 31.9392 37.3659 30.9909 37.3659C30.0426 37.3659 29.382 37.5719 29.0091 37.9839C28.6363 38.3959 28.4726 38.8396 28.5182 39.315C28.6275 40.4559 29.6349 41.1452 31.5406 41.3829Z" stroke="black" stroke-width="2.31724" mask="url(#path-14-outside-2_2072_1400)"/>
<path d="M40.3954 39.5527C40.4363 39.9805 40.3819 40.4163 40.232 40.86C40.2228 40.9075 40.2021 40.9789 40.17 41.0739C40.1516 41.169 40.1454 41.2482 40.1515 41.3116C40.1591 41.3909 40.1995 41.4542 40.2728 41.5018L40.3575 41.5255C40.4538 41.5255 40.5179 41.478 40.55 41.3829C40.5822 41.2879 40.6043 41.2324 40.6166 41.2165C40.9056 40.5035 41.3121 39.9409 41.8362 39.5289C42.3724 39.1011 43.0391 38.8871 43.8363 38.8871C44.7571 38.8871 45.6022 39.1724 46.3715 39.7428C47.1545 40.3133 47.7924 41.0898 48.285 42.0722C48.7777 43.0547 49.0817 44.1481 49.1971 45.3524C49.3124 46.5567 49.2179 47.6501 48.9134 48.6326C48.6089 49.6151 48.1198 50.3915 47.446 50.962C46.786 51.5325 45.9956 51.8177 45.0747 51.8177C44.2913 51.8177 43.5844 51.6117 42.954 51.1997C42.3358 50.7718 41.82 50.1935 41.4066 49.4645C41.405 49.4487 41.3722 49.3932 41.3082 49.2981C41.2578 49.2031 41.18 49.1793 41.0746 49.2268C40.9829 49.2744 40.9416 49.3457 40.9507 49.4408C40.9614 49.5517 41.0071 49.6705 41.088 49.7973C41.3229 50.241 41.4601 50.6688 41.4995 51.0808L41.989 56.1913H39.3502L37.711 39.0773H40.3498L40.3954 39.5527ZM44.1922 49.0604C45.0718 49.0604 45.7118 48.7118 46.1123 48.0146C46.5113 47.3015 46.66 46.4141 46.5583 45.3524C46.4566 44.2907 46.1387 43.4113 45.6047 42.714C45.0691 42.0009 44.3615 41.6444 43.4819 41.6444C42.9184 41.6444 42.4327 41.8108 42.0248 42.1436C41.6168 42.4763 41.3165 42.9279 41.1237 43.4984C40.9447 44.0689 40.8871 44.6869 40.9509 45.3524C41.0146 46.018 41.1906 46.636 41.4789 47.2064C41.7809 47.7769 42.1678 48.2285 42.6394 48.5613C43.1111 48.8941 43.6287 49.0604 44.1922 49.0604Z" stroke="black" stroke-width="2.31724" mask="url(#path-14-outside-2_2072_1400)"/>
<path d="M59.8643 45.186C59.8886 45.4396 59.8976 45.7486 59.8913 46.113H51.9749C52.1622 47.0638 52.5359 47.8086 53.096 48.3474C53.6561 48.8861 54.3485 49.1555 55.1731 49.1555C56.2863 49.1555 56.9609 48.5217 57.1968 47.254H59.8769C59.7615 48.6326 59.3318 49.7418 58.5876 50.5817C57.8556 51.4057 56.7956 51.8177 55.4075 51.8177C54.2667 51.8177 53.2575 51.5404 52.3798 50.9858C51.502 50.4312 50.8038 49.6705 50.2852 48.7039C49.765 47.7214 49.445 46.6043 49.3251 45.3524C49.2007 44.053 49.312 42.92 49.6593 41.9534C50.005 40.9709 50.5582 40.2182 51.319 39.6953C52.092 39.1565 53.0283 38.8871 54.1278 38.8871C55.0211 38.8871 55.8738 39.109 56.686 39.5527C57.5104 39.9805 58.2086 40.6698 58.7807 41.6206C59.365 42.5556 59.7262 43.744 59.8643 45.186ZM57.114 44.0213C56.9831 43.229 56.688 42.5872 56.2287 42.096C55.7693 41.6048 55.1754 41.3592 54.447 41.3592C52.8802 41.3592 52.0238 42.2466 51.8776 44.0213H57.114Z" stroke="black" stroke-width="2.31724" mask="url(#path-14-outside-2_2072_1400)"/>
<path d="M70.4499 45.186C70.4742 45.4396 70.4832 45.7486 70.4769 46.113H62.5605C62.7478 47.0638 63.1215 47.8086 63.6816 48.3474C64.2417 48.8861 64.9341 49.1555 65.7587 49.1555C66.8719 49.1555 67.5465 48.5217 67.7824 47.254H70.4625C70.3471 48.6326 69.9174 49.7418 69.1732 50.5817C68.4412 51.4057 67.3812 51.8177 65.9931 51.8177C64.8523 51.8177 63.8431 51.5404 62.9654 50.9858C62.0876 50.4312 61.3894 49.6705 60.8708 48.7039C60.3506 47.7214 60.0306 46.6043 59.9107 45.3524C59.7863 44.053 59.8976 42.92 60.2449 41.9534C60.5906 40.9709 61.1438 40.2182 61.9046 39.6953C62.6776 39.1565 63.6139 38.8871 64.7134 38.8871C65.6067 38.8871 66.4595 39.109 67.2716 39.5527C68.096 39.9805 68.7942 40.6698 69.3663 41.6206C69.9506 42.5556 70.3118 43.744 70.4499 45.186ZM67.6996 44.0213C67.5687 43.229 67.2736 42.5872 66.8143 42.096C66.3549 41.6048 65.761 41.3592 65.0326 41.3592C63.4658 41.3592 62.6094 42.2466 62.4632 44.0213H67.6996Z" stroke="black" stroke-width="2.31724" mask="url(#path-14-outside-2_2072_1400)"/>
<path d="M82.0629 51.6275H79.4241L79.3717 51.0808C79.3323 50.6688 79.3875 50.241 79.5374 49.7973C79.594 49.6705 79.617 49.5517 79.6063 49.4408C79.5972 49.3457 79.5423 49.2744 79.4415 49.2268L79.3774 49.2031C79.295 49.2031 79.2369 49.2427 79.2033 49.3219C79.1834 49.4011 79.1673 49.4487 79.1551 49.4645C78.7988 50.1935 78.3663 50.7718 77.8576 51.1997C77.3473 51.6117 76.7073 51.8177 75.9377 51.8177C75.0168 51.8177 74.1649 51.5325 73.3818 50.962C72.6125 50.3915 71.9815 49.6151 71.4889 48.6326C70.9962 47.6501 70.6922 46.5567 70.5768 45.3524C70.4615 44.1481 70.5561 43.0547 70.8605 42.0722C71.165 41.0898 71.6472 40.3133 72.3073 39.7428C72.9811 39.1724 73.7784 38.8871 74.6992 38.8871C75.5101 38.8871 76.2246 39.1011 76.8428 39.5289C77.4733 39.9409 77.9807 40.5035 78.3651 41.2165C78.5008 41.4859 78.6336 41.581 78.7635 41.5018C78.8276 41.4542 78.8552 41.3829 78.8461 41.2879C78.837 41.1928 78.7821 41.0502 78.6814 40.86C78.4465 40.4163 78.3086 39.9805 78.2676 39.5527L77.7849 34.5136H80.4237L82.0629 51.6275ZM76.292 49.0604C76.8555 49.0604 77.3412 48.8941 77.7492 48.5613C78.1571 48.2285 78.4506 47.7769 78.6296 47.2064C78.8223 46.636 78.8868 46.018 78.8231 45.3524C78.7593 44.6869 78.5764 44.0689 78.2744 43.4984C77.9861 42.9279 77.6061 42.4763 77.1345 42.1436C76.6628 41.8108 76.1452 41.6444 75.5817 41.6444C74.7021 41.6444 74.0628 42.0009 73.6639 42.714C73.2634 43.4113 73.1139 44.2907 73.2156 45.3524C73.3173 46.4141 73.636 47.3015 74.1715 48.0146C74.7056 48.7118 75.4124 49.0604 76.292 49.0604Z" stroke="black" stroke-width="2.31724" mask="url(#path-14-outside-2_2072_1400)"/>
</g>
<path d="M8.33228 19.5446L16.5735 28.8195L11.551 29.3434L27.4874 44.1789L14.4899 40.9098L41.9483 67.9955L15.8726 54.8399C15.8726 54.8399 22.9418 54.9087 22.1562 54.3633C21.3706 53.8179 1.50837 38.611 1.50837 38.611L13.3824 37.7866L1.80176 24.9071L11.2061 26.488L8.33228 19.5446Z" fill="url(#paint9_linear_2072_1400)" stroke="black" stroke-width="1.15862" stroke-linejoin="round"/>
<path d="M53.4313 17.9654L38.1449 12.5351L49.429 14.8451L49.252 10.5789L62.6561 17.3136L53.2948 14.6743L53.4313 17.9654Z" fill="url(#paint10_linear_2072_1400)" stroke="black" stroke-width="0.57931"/>
<path d="M57.4552 51.3697C58.0561 51.1096 58.6041 50.7573 59.0837 50.3229C59.8372 49.6398 60.2637 48.9074 60.4507 48.531C60.8239 47.7811 60.9435 47.1468 61.031 46.6834C61.2746 45.3954 61.1687 44.3273 61.1116 43.9277C61.0366 43.3999 60.8803 42.3013 60.169 41.1423C59.7306 40.428 59.2559 39.9771 58.942 39.6795C58.4816 39.2421 57.9595 38.7463 57.1495 38.3922C56.1871 37.9714 55.3683 37.9911 54.646 38.0076C53.4576 38.0356 52.5951 38.337 52.1322 38.4988C51.8564 38.5953 51.6079 38.6839 51.3516 38.7948C50.8486 39.0125 50.4337 39.2693 50.0453 39.6035C49.7574 39.851 49.3222 40.225 49.0163 40.8588C48.9377 41.0223 48.9028 41.1295 48.8661 41.2428C48.828 41.3606 48.7849 41.4937 48.6812 41.7256C48.5208 42.0833 48.3914 42.2857 48.2546 42.5005C48.1725 42.6295 48.0876 42.7624 47.9955 42.931C47.7013 43.4709 47.4996 44.0348 47.4279 44.5188C47.3114 45.3014 47.528 45.9019 47.9592 47.0979C48.2718 47.9654 48.4976 48.5913 49.0406 49.2872C49.4649 49.8305 49.8891 50.1711 50.3805 50.5651C50.7675 50.8755 51.1675 51.1966 51.7691 51.4912C52.4463 51.823 53.0246 51.9486 53.2422 51.9877C53.4451 52.0242 54.0625 52.1341 55.1381 51.9679C55.752 51.8729 56.5937 51.7426 57.4552 51.3697Z" fill="url(#paint11_linear_2072_1400)"/>
<path d="M51.2366 38.5116C50.7071 38.7408 50.2666 39.0138 49.8547 39.3693L49.6033 39.5909C49.3293 39.8453 49.0011 40.2041 48.7497 40.7242C48.7056 40.8152 48.6735 40.8908 48.6479 40.9587L48.5198 41.3333C48.4932 41.4051 48.4591 41.4901 48.4105 41.5987C48.2595 41.9354 48.1392 42.1254 48.0061 42.3333C47.9226 42.4638 47.8328 42.6041 47.7355 42.7824C47.4218 43.3572 47.2122 43.9414 47.133 44.474L47.113 44.6348C47.0348 45.4279 47.2722 46.076 47.6792 47.2058C47.995 48.0824 48.2321 48.7437 48.8069 49.4804C49.2546 50.0533 49.7001 50.4093 50.1967 50.8076C50.589 51.1224 51.0076 51.4595 51.6402 51.7691C52.3489 52.1156 52.9559 52.2483 53.1892 52.2901L53.1896 52.291C53.4103 52.3304 54.0622 52.4449 55.1809 52.2716C55.8007 52.1758 56.6719 52.0412 57.5701 51.6524C58.2005 51.3795 58.7762 51.0095 59.2804 50.5525C60.0712 49.8353 60.5188 49.0662 60.7166 48.6692C61.1099 47.8791 61.2397 47.1861 61.3239 46.7403C61.5666 45.4549 61.4804 44.3997 61.407 43.882C61.3297 43.3409 61.1677 42.1928 60.4221 40.9784C59.9617 40.2289 59.4652 39.7581 59.1448 39.4536L58.7752 39.1093C58.3828 38.757 57.912 38.3916 57.2665 38.1091C56.2423 37.6613 55.3752 37.6833 54.6396 37.7003C53.4047 37.7293 52.5097 38.0427 52.0364 38.208L51.6326 38.3529C51.5007 38.4023 51.3699 38.4539 51.2366 38.5116ZM51.4663 39.0771C51.72 38.9673 51.9724 38.8786 52.2272 38.7892C52.7115 38.6197 53.5326 38.3407 54.651 38.3146C55.3552 38.2981 56.1305 38.2811 57.0303 38.6741C57.7905 39.0065 58.2881 39.4777 58.7382 39.9051C59.0683 40.2185 59.5074 40.6419 59.9159 41.3071C60.5794 42.3873 60.736 43.4111 60.8158 43.9729C60.8517 44.2253 60.9899 45.2892 60.7369 46.6263C60.6474 47.1012 60.5301 47.6965 60.1845 48.392C60.0733 48.6152 59.6751 49.3771 58.8859 50.0924C58.3825 50.5486 57.8552 50.863 57.34 51.086C56.5161 51.4426 55.7231 51.5669 55.0952 51.664L54.7573 51.7092C54.0121 51.7925 53.5468 51.7302 53.2943 51.685L53.1229 51.6496C52.8767 51.594 52.422 51.4692 51.8991 51.2133C51.34 50.9396 50.9689 50.646 50.5655 50.3225C50.081 49.934 49.6749 49.6082 49.2739 49.0943C48.7631 48.4401 48.5512 47.8548 48.2396 46.9898C47.8107 45.7997 47.6202 45.2585 47.7235 44.5631C47.8267 43.8696 48.1781 43.2231 48.2565 43.0792C48.3724 42.8669 48.4729 42.7191 48.5865 42.5374C48.6995 42.3567 48.8172 42.1551 48.953 41.8522C49.0605 41.6126 49.1072 41.4699 49.1466 41.3482C49.1842 41.2319 49.2126 41.142 49.284 40.994C49.5552 40.4327 49.9341 40.0987 50.2369 39.8379C50.6531 39.4803 51.0612 39.2524 51.4663 39.0771Z" fill="black" stroke="black" stroke-width="0.370439"/>
<path d="M57.8209 44.5938C59.0838 45.1207 60.541 44.6067 61.0106 44.3213L61.1207 45.1648C60.7517 45.1602 59.6381 45.4395 58.1354 46.5939C56.257 48.0369 56.2174 49.4234 55.4379 51.3767C53.4115 50.1066 51.1516 50.2923 50.2749 50.544L49.4562 49.7169C50.0931 49.4777 52.0801 48.5466 53.2849 47.4335C54.4898 46.3204 55.2961 44.0159 55.5487 43.0028C55.7798 43.3136 56.5579 44.0668 57.8209 44.5938Z" fill="white" stroke="black" stroke-width="0.307327" stroke-linecap="round" stroke-linejoin="round"/>
<path d="M54.2577 44.302L54.1945 44.9244L52.8566 45.1404L51.3199 45.7033L51.1707 45.4002L50.8025 44.3107L50.9317 43.5496L51.4636 42.9241L52.4655 42.503L53.1622 42.5537L53.8076 42.978L54.2577 44.302Z" fill="white"/>
<path d="M54.2918 44.9405C54.2901 44.9555 54.2831 44.9696 54.2719 44.9798C54.2606 44.9899 54.2461 44.9952 54.2313 44.9946C54.2166 44.9939 54.2028 44.9873 54.1928 44.9762C54.1829 44.9651 54.1776 44.9504 54.1778 44.9353C54.1792 44.8081 54.174 44.6804 54.1636 44.5536C54.1173 43.5579 53.536 42.3769 52.5057 42.6819C52.3983 42.7039 52.295 42.7293 52.194 42.7591C51.67 42.9084 51.1739 43.2213 51.023 43.7379C50.8666 44.2503 51.0109 44.8349 51.2248 45.3551C51.2736 45.4726 51.326 45.5868 51.3831 45.7012C51.3897 45.7146 51.3914 45.7301 51.3873 45.7448C51.3832 45.7595 51.3738 45.772 51.3609 45.7797C51.3481 45.7873 51.3328 45.7895 51.3184 45.7859C51.304 45.7823 51.2917 45.773 51.2838 45.7604C51.2144 45.6503 51.1498 45.5392 51.089 45.423C50.8245 44.9088 50.6101 44.3011 50.7677 43.6667C50.9257 43.0157 51.5482 42.6177 52.1139 42.4613C52.2248 42.4286 52.3368 42.4017 52.4524 42.379C52.9919 42.2427 53.6596 42.4748 53.9393 42.976C54.2349 43.4565 54.3121 44.0117 54.3138 44.545C54.313 44.6772 54.3061 44.8094 54.2918 44.9405Z" fill="black"/>
<path d="M54.4467 44.9152C54.4609 44.9173 54.4743 44.9241 54.4839 44.9352C54.4935 44.9463 54.4985 44.9606 54.4977 44.9752C54.497 44.9898 54.4906 45.0037 54.4799 45.014C54.4693 45.0244 54.4552 45.0303 54.4408 45.0314C54.3849 45.0361 54.3294 45.0433 54.2729 45.0516C53.7653 45.1323 53.2693 45.2706 52.7758 45.4172C52.2828 45.5658 51.7948 45.7312 51.3032 45.9122C51.2488 45.9322 51.1946 45.9523 51.1395 45.9731C51.1259 45.9782 51.1108 45.9788 51.0971 45.9738C51.0834 45.9688 51.0723 45.9588 51.0661 45.9458C51.0599 45.9327 51.059 45.9175 51.0636 45.9033C51.0682 45.889 51.0779 45.8771 51.0901 45.8691C51.1403 45.8365 51.1901 45.805 51.2405 45.7741C51.696 45.4953 52.1843 45.2734 52.6944 45.1198C53.2048 44.968 53.7341 44.876 54.2689 44.8986C54.3285 44.9018 54.387 44.9068 54.4467 44.9152Z" fill="black"/>
<ellipse cx="0.692196" cy="0.707514" rx="0.692196" ry="0.707514" transform="matrix(-0.887166 0.465057 0.440847 0.895799 53.5275 43.1594)" fill="black"/>
<path d="M52.8308 44.4077C52.8563 44.4493 52.8947 44.4749 52.9416 44.4748C52.9883 44.475 53.0397 44.4494 53.0804 44.4078C53.1211 44.3663 53.1466 44.3135 53.1472 44.2651C53.148 44.2165 53.1238 44.1764 53.0841 44.1493C53.0802 44.148 53.0757 44.1458 53.0713 44.1433C52.9873 44.0867 52.9235 44.0008 53.0079 43.8772C53.0122 43.8708 53.0168 43.8645 53.0219 43.858C53.0315 43.8465 53.0366 43.8299 53.0372 43.8134C53.0377 43.7968 53.0337 43.7816 53.025 43.7697C53.0162 43.7578 53.0031 43.7498 52.9875 43.746C52.972 43.7423 52.9553 43.7432 52.9421 43.7498C52.9327 43.7549 52.9238 43.76 52.9148 43.7655C52.7276 43.8487 52.6771 44.1912 52.8083 44.3736C52.8151 44.385 52.8226 44.3964 52.8308 44.4077Z" fill="white"/>
<path d="M59.9413 42.0998L60.0419 43.3498L58.524 43.3924L57.3963 44.0099L56.7309 42.681L56.6355 41.7522L57.2208 41.1108L58.2428 40.9271L59.1591 41.1773L59.9413 42.0998Z" fill="white"/>
<path d="M60.1123 43.3473C60.1105 43.3622 60.1034 43.3763 60.092 43.3863C60.0806 43.3963 60.066 43.4014 60.0513 43.4006C60.0366 43.3997 60.0228 43.393 60.0129 43.3817C60.0031 43.3705 59.998 43.3558 59.9983 43.3407C60.0008 43.2152 59.9945 43.089 59.9813 42.9641C59.9197 41.8312 59.0072 40.8889 57.9006 41.1163C57.8831 41.1183 57.8659 41.1205 57.8489 41.1228C57.3112 41.1796 56.8094 41.476 56.7978 42.0268C56.7687 42.5587 56.9894 43.1101 57.2399 43.6137C57.2966 43.7252 57.3589 43.8396 57.4214 43.9432C57.4291 43.9558 57.4322 43.9712 57.4293 43.9861C57.4265 44.001 57.4181 44.0143 57.4059 44.023C57.3938 44.0317 57.3787 44.0353 57.364 44.0329C57.3493 44.0305 57.3362 44.0224 57.3272 44.0106C57.2511 43.9097 57.1777 43.8004 57.1092 43.6916C56.8089 43.1976 56.5305 42.6567 56.5318 42.0176C56.5337 41.7024 56.6773 41.35 56.9444 41.1468C57.2066 40.9399 57.5169 40.8575 57.8132 40.8158C57.832 40.8132 57.8511 40.8108 57.8705 40.8086C58.4497 40.7328 59.1144 40.8608 59.5387 41.3149C59.9631 41.76 60.1188 42.3734 60.1315 42.9523C60.1337 43.0843 60.1279 43.2165 60.1123 43.3473Z" fill="black"/>
<path d="M60.3589 43.4962C60.3691 43.5055 60.3773 43.5174 60.3807 43.5312C60.3841 43.545 60.3826 43.5593 60.3762 43.5714C60.3698 43.5835 60.3589 43.5928 60.3457 43.5977C60.3324 43.6026 60.3179 43.6025 60.3046 43.5993C60.2562 43.5882 60.2075 43.5798 60.158 43.5722C59.9627 43.5437 59.7683 43.5301 59.5748 43.5161C58.8926 43.4693 58.1943 43.6609 57.5552 43.9895C57.5098 44.0128 57.4644 44.0368 57.4184 44.0621C57.4055 44.0692 57.3904 44.0717 57.376 44.0684C57.3616 44.0652 57.3493 44.0565 57.3415 44.0441C57.3337 44.0318 57.331 44.0166 57.334 44.0019C57.3371 43.9871 57.3455 43.9741 57.3572 43.965C57.3997 43.9318 57.442 43.9 57.4847 43.8691C58.0848 43.433 58.8369 43.1541 59.6006 43.2071C59.817 43.2225 60.0346 43.2828 60.224 43.3978C60.2719 43.4269 60.317 43.4593 60.3589 43.4962Z" fill="black"/>
<ellipse cx="0.667794" cy="0.682732" rx="0.667794" ry="0.682732" transform="matrix(-0.917721 0.397226 0.376459 0.926433 58.1449 41.8426)" fill="black"/>
<path d="M57.3895 42.9934C57.4112 43.0352 57.4464 43.0626 57.4916 43.0659C57.5365 43.0695 57.5877 43.0485 57.6297 43.0115C57.6717 42.9745 57.6998 42.9255 57.7036 42.879C57.7077 42.8323 57.6872 42.7919 57.6508 42.763C57.6471 42.7614 57.643 42.759 57.6389 42.7563C57.5619 42.6957 57.5064 42.6085 57.596 42.4956C57.6006 42.4898 57.6054 42.4841 57.6108 42.4782C57.6208 42.4678 57.6268 42.4522 57.6285 42.4364C57.6302 42.4204 57.6274 42.4055 57.6197 42.3934C57.6121 42.3814 57.6001 42.3727 57.5854 42.368C57.5707 42.3633 57.5545 42.3629 57.5414 42.3683C57.532 42.3725 57.5231 42.3768 57.514 42.3814C57.3282 42.4479 57.2563 42.7739 57.3702 42.9589C57.3759 42.9703 57.3824 42.9819 57.3895 42.9934Z" fill="white"/>
<path d="M54.8248 46.2753L57.2111 45.2424C57.4345 45.6568 57.6127 46.5881 56.5383 46.9986C55.4639 47.4092 54.9483 46.6874 54.8248 46.2753Z" fill="#CE515A"/>
<path d="M57.1532 45.1C57.1918 45.1949 57.2304 45.2898 57.2689 45.3848C57.163 45.4289 57.0571 45.473 56.9512 45.5171C56.2571 45.8061 55.5631 46.095 54.869 46.384L54.9363 46.2392C55.108 46.8915 55.8722 47.2012 56.5088 46.916C57.0722 46.7508 57.4489 46.1594 57.2749 45.5797C57.2489 45.4726 57.2109 45.3675 57.1609 45.2709C57.1944 45.2519 57.2278 45.2329 57.2613 45.2139C57.3193 45.3186 57.3632 45.4304 57.3948 45.546C57.6142 46.1614 57.1764 46.8987 56.5678 47.0813C55.9024 47.4196 54.9299 47.0931 54.7134 46.3114C54.6969 46.2533 54.7251 46.1896 54.7806 46.1665C55.4668 45.8581 56.1529 45.5497 56.8391 45.2413C56.9438 45.1942 57.0485 45.1471 57.1532 45.1ZM57.2689 45.3848L57.1532 45.1C57.2085 45.077 57.2337 45.1609 57.2613 45.2139L57.1609 45.2709L57.2689 45.3848Z" fill="black"/>
<defs>
<filter id="filter0_d_2072_1400" x="12.2544" y="16.7388" width="66.7633" height="19.6108" filterUnits="userSpaceOnUse" color-interpolation-filters="sRGB">
<feFlood flood-opacity="0" result="BackgroundImageFix"/>
<feColorMatrix in="SourceAlpha" type="matrix" values="0 0 0 0 0 0 0 0 0 0 0 0 0 0 0 0 0 0 127 0" result="hardAlpha"/>
<feOffset/>
<feComposite in2="hardAlpha" operator="out"/>
<feColorMatrix type="matrix" values="0 0 0 0 1 0 0 0 0 1 0 0 0 0 1 0 0 0 1 0"/>
<feBlend mode="normal" in2="BackgroundImageFix" result="effect1_dropShadow_2072_1400"/>
<feBlend mode="normal" in="SourceGraphic" in2="effect1_dropShadow_2072_1400" result="shape"/>
</filter>
<filter id="filter1_d_2072_1400" x="24.5618" y="33.3602" width="58.7701" height="23.9844" filterUnits="userSpaceOnUse" color-interpolation-filters="sRGB">
<feFlood flood-opacity="0" result="BackgroundImageFix"/>
<feColorMatrix in="SourceAlpha" type="matrix" values="0 0 0 0 0 0 0 0 0 0 0 0 0 0 0 0 0 0 127 0" result="hardAlpha"/>
<feOffset/>
<feComposite in2="hardAlpha" operator="out"/>
<feColorMatrix type="matrix" values="0 0 0 0 1 0 0 0 0 1 0 0 0 0 1 0 0 0 1 0"/>
<feBlend mode="normal" in2="BackgroundImageFix" result="effect1_dropShadow_2072_1400"/>
<feBlend mode="normal" in="SourceGraphic" in2="effect1_dropShadow_2072_1400" result="shape"/>
</filter>
<linearGradient id="paint0_linear_2072_1400" x1="65.1553" y1="58.3536" x2="61.6524" y2="51.8112" gradientUnits="userSpaceOnUse">
<stop stop-color="#D215C4"/>
<stop offset="1" stop-color="#40CAED"/>
</linearGradient>
<linearGradient id="paint1_linear_2072_1400" x1="54.0037" y1="64.6973" x2="54.9537" y2="57.4872" gradientUnits="userSpaceOnUse">
<stop stop-color="#40CAED"/>
<stop offset="1" stop-color="#D215C4"/>
</linearGradient>
<linearGradient id="paint2_linear_2072_1400" x1="64.1045" y1="59.0774" x2="64.8355" y2="52.939" gradientUnits="userSpaceOnUse">
<stop offset="0.0489993" stop-color="#3FCDEE"/>
<stop offset="1" stop-color="#ED84FF"/>
</linearGradient>
<linearGradient id="paint3_linear_2072_1400" x1="15.7612" y1="20.7621" x2="77.8274" y2="35.2745" gradientUnits="userSpaceOnUse">
<stop stop-color="#00D4FF"/>
<stop offset="1" stop-color="#FF00D6"/>
</linearGradient>
<linearGradient id="paint4_linear_2072_1400" x1="15.7612" y1="20.7621" x2="77.8274" y2="35.2745" gradientUnits="userSpaceOnUse">
<stop stop-color="#00D4FF"/>
<stop offset="1" stop-color="#FF00D6"/>
</linearGradient>
<linearGradient id="paint5_linear_2072_1400" x1="15.7612" y1="20.7621" x2="77.8274" y2="35.2745" gradientUnits="userSpaceOnUse">
<stop stop-color="#00D4FF"/>
<stop offset="1" stop-color="#FF00D6"/>
</linearGradient>
<linearGradient id="paint6_linear_2072_1400" x1="15.7612" y1="20.7621" x2="77.8274" y2="35.2745" gradientUnits="userSpaceOnUse">
<stop stop-color="#00D4FF"/>
<stop offset="1" stop-color="#FF00D6"/>
</linearGradient>
<linearGradient id="paint7_linear_2072_1400" x1="15.7612" y1="20.7621" x2="77.8274" y2="35.2745" gradientUnits="userSpaceOnUse">
<stop stop-color="#00D4FF"/>
<stop offset="1" stop-color="#FF00D6"/>
</linearGradient>
<linearGradient id="paint8_linear_2072_1400" x1="15.7612" y1="20.7621" x2="77.8274" y2="35.2745" gradientUnits="userSpaceOnUse">
<stop stop-color="#00D4FF"/>
<stop offset="1" stop-color="#FF00D6"/>
</linearGradient>
<linearGradient id="paint9_linear_2072_1400" x1="8.34826" y1="19.8652" x2="43.3522" y2="66.6461" gradientUnits="userSpaceOnUse">
<stop stop-color="#FAFF00"/>
<stop offset="1" stop-color="#FF00D6"/>
</linearGradient>
<linearGradient id="paint10_linear_2072_1400" x1="37.5" y1="12" x2="63.5147" y2="17.4298" gradientUnits="userSpaceOnUse">
<stop stop-color="#00D4FF"/>
<stop offset="1" stop-color="#BDFF00"/>
</linearGradient>
<linearGradient id="paint11_linear_2072_1400" x1="51.8463" y1="38.5807" x2="57.3934" y2="51.3964" gradientUnits="userSpaceOnUse">
<stop stop-color="#40CAED"/>
<stop offset="1" stop-color="#D215C4"/>
</linearGradient>
</defs>
</svg>
