<svg width="85" height="84" viewBox="0 0 85 84" fill="none" xmlns="http://www.w3.org/2000/svg">
<path d="M14.4028 24.0282C15.0564 18.907 14.5932 7.87167 7.51176 4.70062C0.896789 1.73849 4.86895 7.70817 7.88424 11.9746C6.15915 9.96954 3.36314 9.51367 2.378 10.5691C1.21177 13.0277 5.49166 15.4291 7.34247 16.9444C6.05731 16.0027 4.01176 16.2079 3.49881 17.2893C2.25515 19.9112 8.80578 22.017 8.51917 30.4665L14.4028 24.0282Z" fill="url(#paint0_linear_2168_6373)"/>
<path d="M14.4028 24.0282C15.0564 18.907 14.5932 7.87167 7.51176 4.70062C0.430268 1.52958 5.48188 8.59461 8.50387 12.8482C6.92756 10.1159 3.49296 9.37458 2.378 10.5691C1.13434 13.191 6.08402 15.7477 7.67671 17.2343C6.44748 15.9723 4.05905 16.1082 3.49881 17.2893C2.25515 19.9112 8.80579 22.017 8.51917 30.4665" stroke="black" stroke-width="1.81278" stroke-linecap="round" stroke-linejoin="round"/>
<path d="M73.2148 5.91986L80.1386 1.79369L81.7004 4.10434L79.2016 10.3211L83.1581 9.77094L83.991 12.8518L80.1386 18.7935H81.7004L82.1169 20.9391L79.2016 26.9358L82.1169 34.9681L82.4813 49.8773L77.1713 64.8415L66.5513 75.3494L54.5777 80.686L44.5303 81.9513L31.9321 81.1811L16.5227 75.0744L9.755 69.1327L3.9244 59.615L1.68587 44.1556L4.60116 27.2659L9.54676 18.0233L21.26 7.40527L32.2965 2.894H45.5715L60.5645 8.06546L68.8419 15.9877L73.2148 5.91986Z" fill="url(#paint1_linear_2168_6373)"/>
<path d="M21.8206 68.1119L16.5918 73.5293L12.6958 70.929L10.0301 66.8117L7.87704 58.7939L5.82652 53.7015L2.54568 50.126V45.1419H6.95431H15.464L21.2054 43.8417L24.2812 42.3249L30.4328 37.7742L39.4551 43.8417L51.6557 47.4173L59.3451 48.0673L72.9811 46.7672L82.2638 43.8417L81.5933 52.0763L71.2381 57.4937L68.88 62.8028L67.9573 68.1119L68.88 72.9876L63.9588 76.0213L55.9618 79.0551L53.091 75.2629L48.99 72.1208L35.149 66.8117L32.1757 65.7282H26.7418L21.8206 68.1119Z" fill="white" stroke="black" stroke-width="1.75"/>
<path d="M29.9363 46.5554L23.0662 47.5428L15.7564 50.7954L12.3488 59.3335L15.0419 63.225L29.6065 61.3083L52.6901 67.5812L56.6473 67.2908L57.4168 62.6442L52.0306 53.8157L41.2033 48.0655L29.9363 46.5554Z" fill="white"/>
<path d="M11.3045 38.7142L8.99617 31.7443L13.0083 26.2265L26.6936 27.4462L27.7928 32.6737L26.6936 37.2622L20.3731 40.7471L11.3045 38.7142Z" fill="url(#paint2_linear_2168_6373)"/>
<path d="M36.3118 32.6737L37.7957 27.7947L54.6687 25.8199L58.0763 29.2468L59.0656 35.1712L56.3725 40.1082L47.8536 41.7926L39.4995 40.1082L36.3118 32.6737Z" fill="url(#paint3_linear_2168_6373)"/>
<path d="M49.2761 2.78314C56.8045 4.42581 63.19 8.00787 68.6043 14.0121C69.4209 10.3915 70.927 7.47201 73.1846 5.0138C74.8803 3.16748 76.7761 1.64338 79.2398 1.13257C81.2297 0.719963 82.5874 1.84157 82.2662 3.95404C82.0054 5.66893 81.2422 7.29847 80.6872 9.01063C80.6832 9.00691 80.7809 9.15036 80.8295 9.1337C82.0724 8.70693 83.2628 8.80376 84.1228 9.89373C85.0976 11.129 85.0646 12.6487 84.4092 13.9769C83.7385 15.3363 82.7711 16.5322 81.9071 17.8398C83.8405 20.1723 83.6366 21.3056 80.1117 26.915C82.3858 31.9721 83.5905 37.3667 83.5852 42.9354C83.5695 59.2859 75.1292 73.6692 59.5668 79.6395C46.0661 84.8188 32.7967 84.0227 19.8654 77.7473C8.16856 72.0709 2.07609 62.0929 1.04163 48.622C0.119707 36.6163 3.16572 25.7646 10.2287 16.3639C16.2303 8.37579 24.1753 3.71755 33.8098 2.27392C38.9697 1.50076 44.0556 1.73796 49.2761 2.78314ZM61.6044 10.3021C61.6044 10.3021 61.6421 10.2985 61.5719 10.1265C61.4667 10.0782 61.3616 10.03 61.26 9.972C61.26 9.972 61.2524 9.97969 61.1305 9.82157C60.9587 9.73856 60.7868 9.65555 60.6189 9.60466C60.6189 9.60466 60.6476 9.593 60.5432 9.40083C60.2356 9.23536 59.9281 9.0699 59.6207 8.9281C59.6207 8.9281 59.6405 8.91716 59.5218 8.75007C59.3408 8.67274 59.1598 8.59541 58.9787 8.55265C58.9787 8.55265 59.0098 8.54211 58.8956 8.36398C58.7048 8.29605 58.514 8.22813 58.3224 8.20031C58.3224 8.20031 58.3589 8.18927 58.2398 8.01597C58.0504 7.9461 57.8611 7.87622 57.6679 7.8436C57.6679 7.8436 57.7019 7.833 57.5512 7.64441C55.6047 6.9064 53.6862 6.06815 51.7064 5.44935C45.9874 3.66192 40.1438 3.24738 34.2461 4.10273C32.3701 4.37481 30.5411 5.00796 28.4415 5.46951C26.3761 6.37355 24.218 7.09682 22.2633 8.21658C17.0456 11.2055 12.7163 15.2758 9.35956 20.777C6.89771 24.8637 5.03191 29.2191 3.95086 34.227C3.55309 36.8038 3.15532 39.3805 2.69252 42.2741C2.70932 44.0251 2.72612 45.7762 2.69802 47.789C2.77526 48.3891 2.8525 48.9892 2.91441 49.8869C3.04696 50.44 3.1795 50.9931 3.18723 51.5408C3.18723 51.5408 3.15719 51.6689 3.16102 51.9772C3.87496 55.931 5.07307 59.6983 7.07646 63.4011C8.66715 65.4699 10.2579 67.5387 12.0084 69.7521C13.387 70.9453 14.7656 72.1386 16.2719 73.5402C16.5635 73.6524 16.8701 73.7335 17.1443 73.8815C19.3344 75.0634 21.5183 76.2579 23.8897 77.6156C24.3033 77.7599 24.7168 77.9046 25.1306 78.0484C34.8658 81.4313 44.7105 82.1685 54.6694 79.2825C63.1175 76.8343 70.3628 72.432 75.6333 64.4975C76.9435 61.752 78.2537 59.0064 79.6804 56.0666C79.8948 55.3048 80.1092 54.5431 80.4249 53.5328C80.7258 51.6476 81.0266 49.7625 81.3426 47.6646C81.3464 47.5224 81.3503 47.3802 81.5666 47.0712C81.4781 43.865 81.3896 40.6588 81.3232 37.1753C80.6886 34.9012 80.0539 32.627 79.3978 30.0851C79.3206 29.8405 79.2433 29.5959 79.038 28.9464C78.3878 30.7487 77.8697 32.1848 77.3515 33.621C77.1724 33.5903 76.9933 33.5596 76.8142 33.5289C76.8142 32.1738 76.8142 30.8188 76.953 29.2692C77.3638 28.074 77.7746 26.8789 78.3536 25.544C79.6095 23.9517 81.2825 22.5809 80.9706 19.8377C79.7001 20.0403 78.5127 20.2297 77.3143 20.1543C78.4679 18.6716 79.6434 17.2071 80.7676 15.6999C81.5295 14.6782 82.432 13.6883 82.8843 12.5171C83.3817 11.229 82.4022 10.2909 81.1961 10.8859C79.7843 11.5823 78.5308 12.6314 77.1873 13.4903C76.5269 13.9125 75.8185 14.2508 75.288 14.4492C75.3573 14.137 75.4267 13.8248 75.4915 13.4672C75.4915 13.4672 75.4814 13.5115 75.6585 13.3717C77.025 11.0141 78.4559 8.69439 79.7249 6.27957C80.2031 5.36954 80.306 4.23928 80.6201 3.05865C75.4578 3.42357 71.1049 9.55895 70.02 15.7784C69.8146 18.4576 69.6092 21.1368 69.3721 24.2285C68.7488 22.9037 68.3116 21.9747 67.8502 20.8157C67.8516 20.3318 67.853 19.8479 67.9096 19.0553C67.7921 17.9922 67.6746 16.9291 67.4908 15.6685C67.2902 15.4926 67.0895 15.3166 66.8644 15.1822C66.8644 15.1822 66.8996 15.1505 66.8447 14.9929C66.786 14.8894 66.7 14.8294 66.5005 14.6124C66.312 14.4006 66.1236 14.1888 65.8303 13.805C65.5322 13.5496 65.234 13.2942 64.9011 13.0679C64.9011 13.0679 64.9449 13.0601 64.8785 12.8856C64.7783 12.8235 64.6781 12.7614 64.5716 12.7352C64.5716 12.7352 64.5989 12.7126 64.5334 12.556C64.4659 12.456 64.3743 12.4012 64.1675 12.2199C64.0187 12.1024 63.87 11.985 63.6282 11.7445C63.5514 11.67 63.4609 11.6303 63.2678 11.4659C63.1666 11.4077 63.0654 11.3495 62.9269 11.3446C62.9269 11.3446 62.9764 11.3039 62.8778 11.1146C62.5921 10.9276 62.3064 10.7407 61.987 10.578C61.987 10.578 62.0239 10.596 61.9482 10.414C61.8347 10.3635 61.7211 10.3129 61.6044 10.3021Z" fill="#09090C"/>
<path d="M59.7287 34.6282C59.1028 36.1978 58.477 37.7675 57.774 39.5306C58.1195 39.6255 58.607 39.7589 59.0941 39.894C59.1436 39.9078 59.1905 39.9315 59.2386 39.9507C59.1598 40.0591 59.0809 40.1676 58.9549 40.3538C58.0965 40.4948 57.2853 40.5581 56.3767 40.7151C56.2792 40.8089 56.2756 40.8189 56.1775 40.8308C55.915 40.9421 55.7505 41.0416 55.5744 41.1395C55.5628 41.138 55.5394 41.1397 55.5394 41.1397C51.3564 42.857 47.0503 42.729 42.6998 41.9365C42.678 42.0821 42.6562 42.2276 42.6344 42.3732C45.5431 43.2109 48.4518 44.0487 51.3344 44.8789C48.9112 46.0446 46.5065 45.7941 43.9473 44.6329C43.526 44.4526 43.2786 44.3658 43.0312 44.279C42.8356 44.1717 42.64 44.0644 42.3372 43.9233C40.6608 42.3542 39.0918 40.8189 37.4075 39.0864C36.7145 37.0165 36.1368 35.1438 35.5423 33.1432C35.5537 32.4832 35.4722 31.911 35.6312 31.427C36.0712 30.0872 36.6116 28.7842 36.981 27.8122C35.9171 26.4839 34.9608 25.2899 34.0046 24.0959C33.8461 22.474 33.6678 20.8485 34.9549 19.4085C35.2903 19.3939 35.4248 19.4217 35.5593 19.4495C35.5593 19.4495 35.5649 19.591 35.5748 19.7338C35.5847 19.8765 35.5596 20.0407 35.5596 20.0407C35.5596 20.0407 35.5861 20.0497 35.4805 20.1113C34.7099 21.6585 34.9163 23.0188 35.9027 24.2667C35.9027 24.2667 35.9133 24.241 35.924 24.3346C36.0308 24.5008 36.1269 24.5734 36.223 24.646C36.223 24.646 36.2235 24.6123 36.2527 24.712C36.4565 24.9021 36.6312 24.9926 36.8058 25.0831C36.8058 25.0831 36.8379 25.0514 36.8586 25.1336C36.9906 25.2542 37.1019 25.2926 37.2131 25.331C37.2131 25.331 37.2245 25.2973 37.2931 25.4037C39.3949 26.2257 41.4391 26.4765 43.6515 25.6809C47.7422 25.3597 51.6897 25.0313 55.6372 24.7028C55.6372 24.7028 55.6661 24.6566 55.7248 24.7427C56.8331 25.1188 57.8826 25.4088 58.9322 25.6988C58.9322 25.6988 58.9343 25.657 58.9698 25.7523C59.1902 25.9295 59.3751 26.0116 59.5599 26.0937C59.5599 26.0937 59.5756 26.0325 59.5835 26.1249C59.7047 26.2679 59.8178 26.3185 59.931 26.3691C59.931 26.3691 59.9339 26.3288 59.9501 26.4182C60.0654 26.5767 60.1645 26.6458 60.2636 26.7148C60.2711 26.832 60.3224 26.9211 60.4967 27.1207C59.6771 27.3411 58.7783 27.4228 57.2856 27.5585C58.0534 28.1443 58.4853 28.4739 58.9172 28.8035C58.9172 28.8035 58.9315 28.7709 58.9306 28.8742C59.0381 29.1502 59.1465 29.3227 59.2549 29.4953C59.2549 29.4953 59.2619 29.4637 59.2646 29.6036C59.4212 31.3717 59.5749 33 59.7287 34.6282ZM46.2409 27.3494C44.1777 27.5856 42.11 27.7867 40.0547 28.0837C39.5701 28.1537 38.9842 28.424 38.6879 28.8103C36.3824 31.8162 37.2014 37.4835 40.761 39.0011C44.6294 40.6503 48.5429 41.0584 52.5854 40.0187C56.7816 38.9395 58.3532 36.5819 57.9663 32.0234C57.7642 29.6423 55.2052 26.5605 53.1909 26.6112C50.9654 26.6673 48.7476 27.0619 46.2409 27.3494Z" fill="#08090F"/>
<path d="M9.1241 39.5091C8.7292 39.1313 8.44763 38.7643 7.98013 38.1549C8.9218 38.3401 9.65532 38.4843 10.2745 38.6061C9.56281 37.115 8.85382 35.6297 8.06911 34.0508C7.81221 31.1062 8.62692 28.6325 10.6884 26.5289C10.1235 26.3991 9.72615 26.3077 9.27734 26.2046C9.35264 25.9923 9.3909 25.7232 9.45969 25.7142C11.1444 25.4934 12.8424 25.0684 14.5177 25.1497C18.1518 25.3259 21.7776 26.0477 25.401 26.0041C28.2908 25.9693 29.4569 23.4597 28.8008 19.8385C29.8429 19.9744 29.8429 19.9744 30.2902 22.8323C29.9207 24.9432 29.2005 26.5299 27.6266 27.2142C27.8974 28.6493 28.1364 29.9161 28.3577 31.3411C28.6548 35.127 27.5595 38.0114 24.511 39.9764C23.8 40.4348 23.2923 41.2455 22.6911 41.8941C22.6911 41.8941 22.7181 41.9198 22.6242 41.9354C22.4351 42.0561 22.34 42.1612 22.2448 42.2663C19.8609 43.8683 17.1747 43.8991 14.3486 43.9883C13.2444 43.9203 12.2807 43.7968 11.3169 43.6733C11.3233 43.4993 11.3298 43.3253 11.3362 43.1513C11.6696 43.0947 12.0029 43.038 12.6082 42.9812C15.5598 43.0761 18.1366 42.615 20.5916 41.4312C18.8781 41.2793 17.1566 41.4699 15.4917 41.2273C13.7274 40.9701 12.0169 40.3012 10.2829 39.8121C9.93442 39.7147 9.58592 39.6173 9.1241 39.5091ZM10.2859 30.4872C9.2807 33.5565 10.605 37.0163 13.439 38.4802C16.2635 39.9392 19.2681 40.0189 22.1957 39.0641C25.7664 37.8996 27.7711 33.3011 26.2647 29.8685C25.9222 29.0883 24.9357 28.2376 24.1557 28.127C21.292 27.7208 18.3684 27.7757 15.5098 27.3432C12.9961 26.963 11.4402 27.9775 10.2859 30.4872Z" fill="#08090F"/>
<path d="M61.7201 69.055C60.5769 70.0148 59.4337 70.9746 58.1993 72.0132C57.6289 72.1714 57.1497 72.2507 56.5572 72.3862C54.9815 72.3973 53.4595 72.7712 52.0906 71.6408C52.0463 71.5238 52.034 71.537 52.034 71.537C53.4402 71.5012 54.8928 71.6882 56.2412 71.3747C58.0313 70.9584 59.3721 69.6778 60.3668 67.7406C61.8475 63.8402 60.7032 60.3497 59.6938 56.8483C59.6938 56.8483 59.718 56.8515 59.7106 56.7673C59.7033 56.6831 59.619 56.5683 59.619 56.5683C59.9482 56.6665 60.2774 56.7647 60.7303 57.0098C60.9728 57.3303 61.0916 57.5038 61.2104 57.6773C61.2104 57.6773 61.2204 57.6382 61.2206 57.7444C61.3356 58.0162 61.4503 58.1818 61.565 58.3475C61.565 58.3475 61.5734 58.3208 61.5731 58.4253C61.677 58.704 61.7812 58.8781 61.8853 59.0523C61.8853 59.0523 61.8939 59.0195 61.8876 59.1275C61.9825 59.4125 62.0836 59.5897 62.1847 59.7668C62.1847 59.7668 62.1606 59.7552 62.1755 59.9051C62.3026 62.493 62.415 64.931 62.5273 67.3689C62.5273 67.3689 62.4959 67.429 62.4237 67.5333C62.2914 67.882 62.2312 68.1262 62.1711 68.3704C62.1711 68.3704 62.2131 68.3689 62.1169 68.4104C61.9206 68.653 61.8203 68.854 61.7201 69.055Z" fill="#0A0715"/>
<path d="M12.3284 61.4634C11.3399 57.7207 12.4805 54.6055 14.6091 51.6377C14.6508 51.5315 14.6484 51.4934 14.7304 51.4449C14.8942 51.2821 14.976 51.1677 15.0578 51.0532C15.3131 50.8113 15.5684 50.5694 15.9642 50.1956C16.3795 49.8105 16.6543 49.5572 16.9291 49.3039C17.5172 48.9365 18.1052 48.5691 18.8674 48.0893C19.2127 47.8552 19.384 47.7337 19.5552 47.6122C19.5552 47.6122 19.5114 47.6037 19.6185 47.6076C19.8886 47.5007 20.0515 47.39 20.2145 47.2793C20.2145 47.2793 20.1722 47.2661 20.2895 47.2762C20.6667 47.1617 20.9265 47.0371 21.1863 46.9125C21.1863 46.9125 21.143 46.9196 21.2664 46.9302C21.6501 46.8182 21.9103 46.6957 22.1704 46.5732C22.1704 46.5732 22.1308 46.5893 22.2643 46.6078C22.7567 46.4936 23.1156 46.3607 23.4745 46.2279C23.4745 46.2279 23.4554 46.2763 23.6177 46.2823C25.6751 46.1316 27.5816 45.7551 29.4624 45.866C32.9298 46.0705 36.3821 46.5612 39.8407 46.9327C42.6325 47.5902 45.3062 48.5969 48.0553 50.06C49.4924 51.0317 50.7329 51.9056 51.9733 52.7796C53.2353 54.3559 54.4973 55.9321 55.876 57.6776C56.2001 58.1325 56.4074 58.4181 56.6148 58.7036C56.6148 58.7036 56.6245 58.6733 56.6257 58.7792C56.7381 59.0502 56.8492 59.2153 56.9603 59.3804C56.9603 59.3804 56.9783 59.3501 56.9772 59.4765C57.1793 60.0022 57.3825 60.4016 57.5857 60.801C57.5857 60.801 57.5937 60.7682 57.5894 60.9117C58.1135 63.2536 59.149 65.4867 57.1891 67.5148C57.1891 67.5148 57.2226 67.5273 57.1166 67.5633C56.8737 67.73 56.7367 67.8608 56.5997 67.9915C56.5997 67.9915 56.6281 68.0043 56.5294 68.0057C56.2731 68.1253 56.1156 68.2435 55.9581 68.3617C55.9581 68.3617 55.9829 68.3746 55.8834 68.3727C55.6189 68.4783 55.4539 68.5857 55.289 68.6932C55.289 68.6932 55.3301 68.6939 55.1647 68.6896C53.1766 68.4159 51.354 68.1465 49.5313 67.8772C49.5313 67.8772 49.5088 67.8842 49.4266 67.8044C48.3106 67.3524 47.2768 66.9801 46.1466 66.5244C45.3162 66.2452 44.5823 66.0495 43.8484 65.8537C43.8484 65.8537 43.8331 65.8966 43.7789 65.799C43 65.5308 42.2753 65.3602 41.5505 65.1896C41.5505 65.1896 41.53 65.2133 41.4548 65.1302C33.2023 62.7664 24.9857 61.5817 16.6015 63.8542C15.774 64.0785 14.8261 63.8068 13.934 63.7653C13.934 63.7653 13.9732 63.8064 13.9526 63.6815C13.7124 63.3954 13.4929 63.2343 13.2734 63.0731C13.2734 63.0731 13.2598 63.1322 13.2653 63.0336C13.1441 62.7903 13.0173 62.6455 12.8906 62.5008C12.7279 62.1807 12.5652 61.8605 12.3284 61.4634ZM37.687 55.5378C38.3022 55.6734 38.9175 55.809 39.8701 56.0189C39.8701 54.0296 39.9283 52.3026 39.836 50.5847C39.8069 50.0426 39.4358 49.1121 39.118 49.0597C36.1331 48.5682 33.1257 48.2286 30.0128 47.8308C30.3253 50.4253 30.584 52.5733 30.8287 54.6044C33.0895 54.9205 35.244 55.2217 37.687 55.5378ZM21.4445 51.9652C21.5944 53.0309 21.7442 54.0967 21.8553 54.8867C24.5546 54.8867 27.0938 54.8867 29.763 54.8867C29.6012 52.6458 29.4846 50.6947 29.2947 48.7517C29.2652 48.4499 28.8957 47.9357 28.6919 47.9403C25.9963 48.0009 23.3198 48.2215 20.8587 49.4995C21.0731 50.3624 21.2367 51.0213 21.4445 51.9652ZM40.8662 52.9357C40.8662 53.9702 40.8662 55.0048 40.8662 55.9838C43.3758 56.839 45.8178 57.6712 48.3317 58.528C48.5666 57.1353 48.857 55.6838 49.0315 54.217C49.0849 53.7685 48.9669 53.0574 48.6771 52.841C46.2771 51.0491 43.5571 50.1032 40.6881 49.4838C40.756 50.6743 40.8111 51.6403 40.8662 52.9357ZM33.0867 61.0932C35.0905 61.5103 37.0944 61.9275 39.173 62.3602C39.173 60.8348 39.173 59.5124 39.173 57.7979C36.3565 57.4347 33.5061 57.0671 30.4742 56.676C30.4742 58.2874 30.4742 59.4674 30.4742 60.6666C31.297 60.8156 32.0486 60.9516 33.0867 61.0932ZM42.3592 63.1719C44.2 63.6858 46.0408 64.1998 48.0986 64.7744C48.0986 63.8405 48.067 63.2136 48.1062 62.5916C48.1624 61.6989 48.2048 60.8226 47.2054 60.4593C45.0345 59.6702 42.856 58.9046 40.4634 58.052C40.2004 59.6771 39.9874 60.9935 39.7738 62.3138C40.6725 62.6304 41.3813 62.8801 42.3592 63.1719ZM23.0216 56.9183C22.5112 57.0072 22.0007 57.0962 21.4777 57.1874C21.4225 58.4774 21.3752 59.5833 21.3239 60.781C24.1951 60.6383 26.8456 60.5066 29.6193 60.3688C29.6695 59.3405 29.7242 58.2201 29.7878 56.9176C27.5432 56.9176 25.4382 56.9176 23.0216 56.9183ZM15.1146 57.0995C16.9492 56.4626 18.7837 55.8256 20.8368 55.1129C20.6175 53.5496 20.3674 51.7664 20.0912 49.7972C17.3623 51.1749 15.5157 53.1873 14.3336 55.8593C14.1934 56.1764 13.5147 57.3 15.1146 57.0995ZM51.9348 55.8118C51.3329 55.223 50.7311 54.6342 49.8466 53.7687C49.8466 55.9228 49.8466 57.5724 49.8466 59.2138C51.9204 60.3946 54.02 61.5901 56.1196 62.7856C56.2383 62.6736 56.3569 62.5617 56.4755 62.4497C55.0148 60.298 53.554 58.1463 51.9348 55.8118ZM20.5089 60.4308C20.5089 59.4649 20.5089 58.499 20.5089 57.2619C18.4344 57.8991 16.5757 58.4457 14.7326 59.0458C13.7331 59.3713 13.5719 60.1933 14.2646 60.8592C14.8524 61.4243 15.7733 62.0184 16.4806 61.9393C17.8293 61.7883 19.1307 61.1664 20.5089 60.4308ZM54.4126 64.345C52.8402 63.3842 51.2677 62.4234 49.5256 61.3589C49.0952 62.7484 48.7505 63.8614 48.3462 65.1668C50.9258 65.4877 53.1955 67.9095 55.9478 65.5714C55.3806 65.1201 54.9935 64.812 54.4126 64.345Z" fill="#09090C"/>
<path d="M35.0854 67.3813C35.2212 67.5442 35.2854 67.6326 35.4584 67.7242C35.3954 67.954 35.2421 68.3332 35.1208 68.3221C34.6065 68.2751 34.1017 68.1123 33.4666 67.9853C33.0854 67.8658 32.831 67.7528 32.4716 67.6272C29.761 66.286 27.2557 67.5552 24.5918 67.9606C24.4178 66.4739 25.5148 66.0742 26.5323 65.743C29.5877 64.7485 32.4013 65.3979 35.0854 67.3813Z" fill="#0A0715"/>
<path d="M46.0917 31.8979C47.5176 32.2479 48.1915 33.2131 48.1188 34.5295C48.0845 35.1499 47.5992 35.959 47.0899 36.2885C46.0327 36.9726 44.8826 36.9686 44.0747 35.7223C43.3758 34.644 43.6699 33.2657 44.7893 32.4135C45.1266 32.1566 45.5696 32.0547 46.0917 31.8979Z" fill="#09090C"/>
<path d="M17.0774 31.7024C17.9832 31.9578 19.0272 32.0718 19.4901 32.6798C19.8438 33.1444 19.7304 34.4673 19.3318 34.9809C18.9294 35.4993 17.9141 35.6701 17.1775 35.646C16.7347 35.6316 15.9037 34.8751 15.9532 34.5883C16.1209 33.6173 16.6035 32.7071 17.0774 31.7024Z" fill="#09090C"/>
<path d="M50.6641 21.7847C52.8958 20.8532 55.3636 21.2788 57.3384 22.5297C60.1234 24.294 61.4579 27.3688 62.3625 30.214L62.5375 30.7795L62.5405 30.7874C62.6911 31.3069 62.6107 31.7995 62.3522 32.1918C62.1036 32.5689 61.7198 32.8108 61.3257 32.9176C60.9315 33.0245 60.48 33.0089 60.0755 32.8141C59.6616 32.6149 59.3407 32.2468 59.197 31.7386L59.1967 31.7395C58.5045 29.5235 57.6717 27.2341 56.0314 25.8829C54.6577 24.7895 53.0328 24.4489 51.5406 25.177C50.7693 25.5617 50.055 26.0903 49.2729 26.6561C48.5078 27.2095 47.6803 27.7962 46.7537 28.2022L46.753 28.201C46.1605 28.466 45.4908 28.2868 45.0755 27.9376C44.8548 27.752 44.66 27.4816 44.5988 27.1396C44.5353 26.7833 44.6314 26.4279 44.8545 26.1212L44.8557 26.1205C46.1284 24.3792 48.2943 22.8311 50.2716 21.9515L50.6641 21.7847ZM69.4606 11.9149C69.8362 11.8751 70.193 11.9679 70.4699 12.2045C70.7351 12.4312 70.8652 12.7373 70.9119 13.0185C71.0002 13.549 70.8218 14.2091 70.3245 14.592L70.3183 14.5964L70.3118 14.6017C69.4756 15.2134 68.5254 15.6377 67.6447 16.0284C66.7415 16.429 65.9108 16.7943 65.1889 17.2963C63.8746 18.2351 63.42 19.7972 63.6742 21.44L63.7533 21.8313C64.2183 23.7753 65.6835 25.5444 67.1582 27.1071L67.1637 27.1127L67.1684 27.1179C67.9341 27.9674 67.651 29.0253 67.0759 29.6025C66.7851 29.8943 66.3819 30.1123 65.9253 30.1384C65.4502 30.1654 64.9837 29.9795 64.6139 29.5807L64.6136 29.5817C62.4786 27.3018 60.1794 24.4595 60.0683 20.948C59.9902 18.5415 60.8947 16.2011 62.8967 14.6935L62.8991 14.6921C64.6828 13.3604 67.2042 12.1714 69.4564 11.9157L69.4606 11.9149ZM46.9938 5.94645C47.3056 5.89075 47.6161 5.9571 47.8945 6.1241L48.0123 6.20118L48.013 6.20237C49.8682 7.55825 51.5038 9.9285 52.3457 12.0038L52.43 12.2135C53.2545 14.3911 52.8169 16.7708 51.6036 18.686C49.7216 21.6563 46.3485 22.9765 43.3538 23.8851L43.3462 23.8871C42.8221 24.0392 42.3263 23.9526 41.9334 23.6886C41.5564 23.4352 41.3144 23.0472 41.2059 22.6494C41.0974 22.2513 41.1093 21.7952 41.2992 21.3844C41.4964 20.9579 41.8685 20.62 42.392 20.468C44.5584 19.8014 46.8882 18.9448 48.2546 17.3711C49.344 15.9987 49.6836 14.3772 48.9566 12.8873L48.9569 12.8863C48.5721 12.1153 48.0431 11.4014 47.4775 10.6196C46.9256 9.85666 46.3411 9.03188 45.9352 8.10845C45.6649 7.51395 45.8452 6.83938 46.196 6.42219C46.3816 6.20153 46.6517 6.00759 46.9938 5.94645ZM65.7796 6.93404C66.6337 6.16425 67.6862 6.46037 68.2558 7.04652C68.5427 7.34179 68.7536 7.74557 68.7803 8.19808C68.808 8.66907 68.6321 9.13938 68.2403 9.51531L68.235 9.51996L67.7898 9.04581L68.2341 9.51971C65.9541 11.6548 63.1124 13.9532 59.6006 14.0641L59.6013 14.0653C57.1949 14.1434 54.8545 13.2389 53.3468 11.2368L53.3455 11.2344C52.0138 9.45087 50.8246 6.93019 50.5688 4.67814L50.5682 4.67292C50.5283 4.29519 50.6235 3.94112 50.8545 3.66482C51.0759 3.39998 51.3757 3.2622 51.6553 3.20807C52.1766 3.10725 52.8555 3.26244 53.2337 3.78467L53.2327 3.78442C53.8434 4.61981 54.2688 5.56888 54.6623 6.44831C55.066 7.35072 55.4383 8.18357 55.9543 8.90853C56.8939 10.2284 58.4608 10.6837 60.1081 10.427C62.204 10.0759 64.1036 8.51559 65.7688 6.94428L65.7743 6.93869L65.7796 6.93404Z" fill="url(#paint4_linear_2168_6373)" stroke="black" stroke-width="1.30045"/>
<defs>
<linearGradient id="paint0_linear_2168_6373" x1="13.5209" y1="27.6325" x2="21.5885" y2="18.3716" gradientUnits="userSpaceOnUse">
<stop stop-color="#FAFF00"/>
<stop offset="1" stop-color="#FF006B"/>
</linearGradient>
<linearGradient id="paint1_linear_2168_6373" x1="5.58307" y1="15.0878" x2="89.5351" y2="22.8136" gradientUnits="userSpaceOnUse">
<stop stop-color="#FAFF00"/>
<stop offset="1" stop-color="#FF006B"/>
</linearGradient>
<linearGradient id="paint2_linear_2168_6373" x1="31.8163" y1="28.3214" x2="34.2811" y2="41.7466" gradientUnits="userSpaceOnUse">
<stop stop-color="white"/>
<stop offset="1" stop-color="#FF7A7A"/>
</linearGradient>
<linearGradient id="paint3_linear_2168_6373" x1="31.8163" y1="28.3214" x2="34.2811" y2="41.7466" gradientUnits="userSpaceOnUse">
<stop stop-color="white"/>
<stop offset="1" stop-color="#FF7A7A"/>
</linearGradient>
<linearGradient id="paint4_linear_2168_6373" x1="59.757" y1="5.15953" x2="53.0253" y2="30.2824" gradientUnits="userSpaceOnUse">
<stop stop-color="#FEDC02"/>
<stop offset="1" stop-color="#FF3700"/>
</linearGradient>
</defs>
</svg>
