<svg width="84" height="84" viewBox="0 0 84 84" fill="none" xmlns="http://www.w3.org/2000/svg">
<path d="M41.6007 78.495C38.0132 78.495 34.5047 77.9291 31.1733 76.8132C25.939 75.0575 22.263 72.3628 20.5372 70.9093C17.0951 68.0152 15.1796 65.1501 13.7794 63.0567C9.88529 57.2396 8.21955 51.7601 7.68537 49.6731C6.97735 46.9173 5.50442 41.1806 6.72449 33.9647C7.47676 29.5175 8.95601 26.2889 9.93586 24.157C11.3709 21.0249 12.9987 17.4748 16.3807 14.0084C20.3981 9.88912 24.5956 8.24271 28.2969 6.78602C34.3878 4.39357 39.3882 4.03985 42.0717 3.85013C43.6711 3.73758 45.1155 3.64433 46.6454 3.64433C49.6481 3.64433 52.2842 4.02377 54.9456 4.84055C56.918 5.44509 59.8986 6.35833 62.7591 8.82474C63.4956 9.46144 63.8939 9.91484 64.3142 10.394C64.7504 10.8924 65.2435 11.4551 66.2486 12.3748C67.8006 13.7929 68.8753 14.5132 70.0132 15.2785C70.6959 15.7384 71.4008 16.2111 72.2162 16.8446C74.8239 18.8736 77.0112 21.2179 78.3735 23.4463C80.5797 27.0478 80.7188 30.4629 80.9969 37.264C81.1992 42.1968 81.3446 45.7565 80.0234 50.3356C78.9898 53.9114 77.539 56.4903 75.8575 59.4745C74.5331 61.8251 73.1645 64.2561 70.718 66.9862C67.965 70.0604 65.2878 71.9094 64.2637 72.5654C63.3091 73.1763 60.4012 75.0318 54.5979 76.5045C51.2854 77.3438 46.7434 78.495 41.6007 78.495Z" fill="url(#paint0_linear_2044_1309)"/>
<path d="M46.6454 4.28747C49.1424 4.28747 51.7911 4.54472 54.7623 5.45475C56.8547 6.09788 59.6426 6.98218 62.3482 9.31353C63.799 10.5644 63.818 11.0178 65.8251 12.8507C68.3695 15.1757 69.7129 15.7062 71.8306 17.3527C72.5291 17.8961 75.7784 20.4236 77.8361 23.784C79.9538 27.244 80.0898 30.5915 80.3648 37.2897C80.567 42.2 80.7093 45.6761 79.4165 50.1523C78.4051 53.6574 76.9637 56.217 75.3075 59.1561C73.923 61.6129 72.6018 63.9281 70.2502 66.5521C67.3296 69.8096 64.545 71.6264 63.9286 72.0187C62.4904 72.9384 59.6679 74.5559 54.4462 75.8775C51.061 76.7361 46.6643 77.8487 41.6007 77.8487C38.4273 77.8487 34.9883 77.4114 31.3724 76.1991C25.7146 74.3018 22.0101 71.3081 20.9417 70.4109C17.6387 67.6294 15.7486 64.8542 14.3041 62.6933C10.1729 56.5225 8.6494 50.8758 8.29855 49.5092C7.5368 46.5443 6.1745 41.0102 7.35032 34.074C8.07414 29.8004 9.47437 26.6877 10.5111 24.4271C11.9145 21.3658 13.5265 17.8479 16.8327 14.4586C20.7553 10.439 24.9117 8.80545 28.5277 7.38414C34.4099 5.07208 39.2807 4.68942 42.1191 4.49005C43.5952 4.38715 45.0902 4.28747 46.6454 4.28747ZM46.6454 3.00121C45.0934 3.00121 43.6394 3.09446 42.0338 3.20701C39.3155 3.39995 34.255 3.75688 28.0757 6.1847C24.3143 7.6639 20.0504 9.33604 15.9382 13.5518C12.4771 17.1018 10.824 20.7066 9.3669 23.8836C8.37441 26.051 6.87303 29.3245 6.10496 33.8586C4.85961 41.2096 6.35782 47.0363 7.07533 49.8372C7.75174 52.4676 9.45225 57.7316 13.2578 63.4201C14.598 65.4234 16.6241 68.4526 20.1357 71.4045C21.8963 72.8837 25.6419 75.6331 30.9773 77.4242C34.372 78.5626 37.9468 79.1382 41.6007 79.1382C46.8192 79.1382 51.4055 77.9773 54.7528 77.1284C60.654 75.6331 63.6252 73.7359 64.6019 73.112C65.6481 72.4432 68.379 70.5524 71.1858 67.4235C73.6797 64.642 75.0641 62.1788 76.4043 59.7992C78.1048 56.7797 79.5746 54.1686 80.6303 50.5189C81.9799 45.8401 81.8345 42.2321 81.6291 37.2415C81.3446 30.3278 81.2024 26.8549 78.9108 23.1087C77.4853 20.7805 75.3043 18.4395 72.5987 16.3365C71.7674 15.6902 71.0499 15.2078 70.3577 14.7448C69.2387 13.9955 68.1862 13.2849 66.669 11.8989C65.6892 11.0017 65.2087 10.4519 64.782 9.96952C64.3458 9.47109 63.9349 9.00161 63.1637 8.33919C60.202 5.78917 57.1487 4.8502 55.1258 4.22958C52.4075 3.3903 49.7113 3.00121 46.6454 3.00121Z" fill="black"/>
<path d="M25.0652 38.8238C19.4638 44.3794 10.5658 44.9834 7.43835 44.5582L8.68116 49.1697C10.6416 48.3193 17.1953 47.2706 27.7259 49.8783C40.8892 53.1379 44.11 60.2241 52.5121 68.5858C60.5781 57.4747 73.0505 53.3741 78.2785 52.7128L80.8561 46.5988C76.9352 46.7878 64.303 46.4202 55.4528 43.359C46.6026 40.2978 37.2949 30.1787 33.7474 25.5018C33.1872 27.6276 30.6666 33.2682 25.0652 38.8238Z" fill="white" stroke="black" stroke-width="1.77983" stroke-linecap="round" stroke-linejoin="round"/>
<path d="M44.3735 32.7179C44.3048 32.7591 44.2499 32.8224 44.2231 32.8992C44.1964 32.9759 44.1997 33.059 44.2329 33.1314C44.2661 33.2038 44.3269 33.2605 44.4025 33.2903C44.4781 33.3201 44.5619 33.3197 44.638 33.2946C44.9325 33.1987 45.23 33.1165 45.5342 33.038C48.283 32.3599 51.0863 31.9887 53.8934 31.6598C56.7028 31.3414 59.5198 31.1127 62.3864 30.9489C62.7036 30.9308 63.0202 30.9134 63.3426 30.8972C63.4226 30.893 63.5009 30.863 63.5605 30.8078C63.6202 30.7526 63.6563 30.6777 63.661 30.5982C63.6657 30.5187 63.6387 30.4401 63.586 30.3783C63.5332 30.3165 63.4591 30.2774 63.3801 30.2638C63.0584 30.2095 62.7412 30.1598 62.4221 30.1143C59.5391 29.7053 56.607 29.649 53.7022 29.9787C50.7996 30.3184 47.9226 30.9947 45.2452 32.2542C44.9485 32.3976 44.6604 32.5479 44.3735 32.7179Z" fill="black"/>
<path d="M44.682 32.6585C44.6682 32.7358 44.6764 32.8176 44.7126 32.8887C44.7487 32.9598 44.8089 33.0141 44.8818 33.0404C44.9547 33.0666 45.0357 33.0631 45.1088 33.0312C45.182 32.9994 45.2405 32.9416 45.279 32.8733C45.3813 32.6929 45.4858 32.5102 45.5905 32.3341C46.5255 30.7271 47.6675 29.4306 49.0883 28.4694C50.5081 27.4971 52.161 26.8125 53.9408 26.2275C54.1337 26.1634 54.3322 26.0999 54.5364 26.0371C54.6114 26.0139 54.6802 25.969 54.7268 25.9041C54.7733 25.8394 54.7939 25.7609 54.7836 25.6842C54.7734 25.6074 54.733 25.5371 54.6711 25.4867C54.6092 25.4364 54.531 25.411 54.4526 25.4083C54.2327 25.402 54.0167 25.4004 53.8046 25.4033C51.8598 25.4365 49.8428 25.9035 48.1315 27.0741C46.4125 28.2202 45.2369 30.1188 44.815 32.0236C44.7648 32.2341 44.72 32.4488 44.682 32.6585Z" fill="black"/>
<path d="M42.7673 28.3528C42.7283 28.4228 42.7124 28.5052 42.7275 28.585C42.7427 28.6648 42.7871 28.7352 42.8521 28.7813C42.917 28.8274 42.9981 28.8462 43.0784 28.8342C43.1588 28.8222 43.2313 28.78 43.2846 28.7201C43.4846 28.5009 43.7119 28.2731 43.9409 28.0526C45.9985 26.1077 48.3149 24.4812 50.7954 23.2701C53.2782 22.0613 55.9619 21.3074 58.7975 21.1531C59.1106 21.1355 59.4236 21.1247 59.7456 21.1216C59.8257 21.1208 59.9052 21.094 59.9671 21.0413C60.029 20.9887 60.0681 20.9153 60.0761 20.8361C60.0841 20.7568 60.0603 20.6771 60.0102 20.6132C59.96 20.5492 59.8875 20.5071 59.8091 20.4903C59.4825 20.4221 59.1609 20.3651 58.8351 20.3186C55.8863 19.8867 52.764 20.4202 50.0564 21.7481C47.3413 23.0722 45.014 25.0927 43.3048 27.5112C43.1129 27.7862 42.9297 28.0651 42.7673 28.3528Z" fill="black"/>
<path d="M9.25113 29.0661L11.319 35.4287L19.1132 32.4065L26.1121 33.0427L26.7484 25.0894L25.3168 20.3175L21.022 18.4087L15.4547 19.6812L11.319 22.8625L9.25113 29.0661Z" fill="white"/>
<path d="M10.9561 35.5725C10.997 35.6437 11.0629 35.6984 11.1419 35.7233C11.2208 35.7482 11.3059 35.7415 11.379 35.7044C11.4521 35.6672 11.5077 35.6024 11.5341 35.5239C11.5605 35.4455 11.5551 35.36 11.5217 35.285C11.2494 34.6707 11.0201 34.0336 10.8293 33.3881C8.78227 27.6363 11.5857 21.105 17.5782 19.9059C17.6751 19.8777 17.7709 19.8507 17.8654 19.825C20.6726 18.9832 23.7994 19.3125 25.0287 21.966C26.2985 24.5009 26.3218 27.7169 26.0885 30.7445C26.0305 31.4187 25.9496 32.1178 25.8456 32.7647C25.8319 32.8457 25.848 32.9298 25.8931 32.9992C25.9382 33.0687 26.0082 33.1176 26.0882 33.1353C26.1683 33.1531 26.2524 33.1384 26.3226 33.0946C26.3929 33.0508 26.4431 32.9814 26.465 32.9022C26.6446 32.2389 26.7928 31.5411 26.9166 30.8546C27.4225 27.7644 27.7237 24.4702 26.3539 21.312C25.6693 19.7529 24.1854 18.3666 22.4348 17.9594C20.7079 17.524 18.9898 17.7734 17.422 18.1923C17.3169 18.2209 17.2109 18.2508 17.1039 18.2821C14.0553 19.1341 10.9561 21.1246 9.70115 24.2744C8.43138 27.3827 8.90557 30.7759 10.0401 33.6621C10.3024 34.3199 10.606 34.9606 10.9561 35.5725Z" fill="black"/>
<path d="M10.013 36.8156C9.97954 36.8846 9.96185 36.9628 9.97212 37.04C9.98234 37.1171 10.0189 37.1863 10.0761 37.2342C10.1334 37.2822 10.2079 37.3061 10.2856 37.3026C10.3634 37.2992 10.4373 37.2681 10.4993 37.2231C10.7237 37.0655 10.9545 36.9208 11.191 36.7789C12.1294 36.2244 13.0902 35.7475 14.0476 35.2664C17.4243 33.5863 21.3518 33.0463 25.2663 33.2917C25.5441 33.3086 25.8233 33.3295 26.1084 33.3552C26.1891 33.3625 26.2712 33.3419 26.3376 33.2937C26.4039 33.2456 26.4488 33.1744 26.4626 33.0949C26.4765 33.0153 26.4582 32.9331 26.412 32.8654C26.3659 32.7977 26.2955 32.7506 26.2171 32.7302C25.9334 32.657 25.6537 32.59 25.3737 32.5284C21.4362 31.6552 17.0673 31.8716 13.2911 33.7531C12.2209 34.2894 11.236 35.0524 10.5019 36.0334C10.3167 36.2817 10.1519 36.5404 10.013 36.8156Z" fill="black"/>
<circle cx="21.4992" cy="27.6345" r="3.65851" fill="black"/>
<path d="M24.0587 28.0276C24.0343 28.2854 23.9107 28.5009 23.6852 28.6173C23.4614 28.7342 23.1542 28.7425 22.8609 28.6498C22.5677 28.557 22.3211 28.3735 22.2053 28.1492C22.0877 27.9243 22.1105 27.6769 22.2388 27.452C22.2539 27.4371 22.2697 27.4173 22.2849 27.3958C22.5509 26.9431 22.654 26.3971 21.9708 26.0296C21.9358 26.0106 21.8998 25.9925 21.8609 25.975C21.7884 25.9444 21.7257 25.8794 21.6847 25.8036C21.6438 25.7273 21.628 25.6464 21.6426 25.5694C21.6572 25.4924 21.7014 25.4229 21.7674 25.3668C21.8333 25.3112 21.9154 25.2737 21.9941 25.2717C22.0499 25.2722 22.1041 25.2739 22.1592 25.2774C22.6491 25.3008 23.2612 25.5312 23.639 26.0625C24.0142 26.587 24.1308 27.2018 24.0863 27.8131C24.0804 27.8827 24.0713 27.9548 24.0587 28.0276Z" fill="white"/>
<path d="M42.5717 40.1621H28.3265C28.0472 42.6759 29.0639 47.6366 35.3653 47.3685C41.6667 47.1004 42.7952 42.4525 42.5717 40.1621Z" fill="#CE515A"/>
<path d="M28.3265 39.3161C28.3265 39.8801 28.3265 40.4441 28.3265 41.008C28.9509 40.9992 29.5753 40.9904 30.1997 40.9816C34.3237 40.9234 38.4477 40.8652 42.5717 40.807L41.9299 40.2247C42.4027 43.8388 39.1105 46.9338 35.3448 46.8868C32.1923 47.2652 29.0384 45.2368 28.7036 41.9816C28.6116 41.3917 28.5862 40.7865 28.6418 40.1971C28.4316 40.1738 28.2214 40.1504 28.0112 40.127C27.9316 40.7772 27.9411 41.4308 28.023 42.078C28.2082 45.6317 31.9838 48.2355 35.3858 47.8502C39.3858 48.0988 43.7242 44.5007 43.2136 40.0995C43.1769 39.7717 42.9015 39.5125 42.5717 39.5172C38.4477 39.459 34.3237 39.4008 30.1997 39.3426C29.5753 39.3338 28.9509 39.3249 28.3265 39.3161ZM28.3265 41.008V39.3161C27.9977 39.3208 28.0429 39.7998 28.0112 40.127L28.6418 40.1971L28.3265 41.008Z" fill="black"/>
<path d="M81.4039 66.9014C79.4651 74.4155 68.5491 79.1707 64.6103 79.1368C47.6758 78.991 51.2145 70.8166 51.0885 67.5699C46.945 63.7083 48.8395 60.1009 51.3683 58.6002C50.2549 58.1667 48.6056 53.6574 54.3396 51.0269C73.9192 42.0448 83.8274 57.5087 81.4039 66.9014Z" fill="url(#paint1_linear_2044_1309)"/>
<path d="M51.3683 58.6002C50.2549 58.1667 48.6056 53.6574 54.3396 51.0269C73.9192 42.0448 83.8274 57.5087 81.4039 66.9014C79.4651 74.4155 68.5491 79.1707 64.6103 79.1368C47.6758 78.991 51.2145 70.8166 51.0885 67.5699M51.3683 58.6002C48.8395 60.1009 46.945 63.7083 51.0885 67.5699M51.3683 58.6002C54.4345 59.5127 58.4727 60.7109 62.8124 59.6619M51.0885 67.5699C52.9291 68.1831 57.7707 69.0208 62.4122 67.4659" stroke="black" stroke-width="1.35959" stroke-linecap="round"/>
<path d="M76.7773 42.8793C75.242 48.5519 76.1144 52.2249 77.2317 54.2112L67.2614 51.1395C62.712 38.5412 68.9718 36.7521 74.1466 37.6341C76.4836 38.0324 77.3967 40.591 76.7773 42.8793Z" fill="url(#paint2_linear_2044_1309)"/>
<path d="M77.2317 53.3048C76.1211 51.3304 75.2524 48.5294 76.7501 43.2221C77.3939 40.9406 76.4836 38.3848 74.1466 37.9865C68.9718 37.1046 62.712 38.8937 67.2614 51.492" stroke="black" stroke-width="1.35959" stroke-linecap="round"/>
<path d="M9.47981 72.4412C12.5654 76.7549 20.6956 77.1001 23.1986 76.109C33.9599 71.8481 29.6918 67.5071 28.973 65.4061C30.6644 61.9242 28.5687 60.0905 26.587 59.756C27.1901 59.2055 27.1319 55.9246 22.8285 55.6587C8.13413 54.7508 5.62288 67.049 9.47981 72.4412Z" fill="url(#paint3_linear_2044_1309)"/>
<path d="M26.587 59.756C27.1901 59.2055 27.1319 55.9246 22.8285 55.6587C8.13413 54.7508 5.62288 67.049 9.47981 72.4412C12.5654 76.7549 20.6956 77.1001 23.1986 76.109C33.9599 71.8481 29.6918 67.5071 28.973 65.4061M26.587 59.756C28.5687 60.0905 30.6644 61.9242 28.973 65.4061M26.587 59.756C24.8566 61.0924 22.5768 62.8503 19.5517 63.2496M28.973 65.4061C27.9504 66.2501 25.0697 67.9758 21.7276 68.1268" stroke="black" stroke-width="1.23893" stroke-linecap="round"/>
<path d="M6.51726 55.9863C8.89234 59.2252 9.24008 61.7818 9.01659 63.3232L14.6175 58.9108C14.4174 49.7586 9.98592 50.1586 6.90356 51.9946C5.5116 52.8237 5.55917 54.6798 6.51726 55.9863Z" fill="url(#paint4_linear_2044_1309)"/>
<path d="M8.7935 62.7453C9.01566 61.2131 8.88013 59.2134 6.61901 56.1982C5.64698 54.902 5.59835 53.0484 6.99032 52.2193C10.0727 50.3833 14.5042 49.9833 14.7043 59.1355" stroke="black" stroke-width="1.23893" stroke-linecap="round"/>
<path d="M69.0524 24.8265C68.0772 19.7566 67.8439 8.71406 74.7114 5.10297C81.1265 1.72977 77.5385 7.93795 74.7982 12.386C76.3934 10.2762 79.1552 9.64495 80.2049 10.6362C81.5237 13.0164 77.4037 15.6828 75.6521 17.3118C76.8754 16.2909 78.9298 16.3668 79.5099 17.4137C80.9163 19.9519 74.5114 22.4665 75.3301 30.8811L69.0524 24.8265Z" fill="url(#paint5_linear_2044_1309)"/>
<path d="M69.0524 24.8265C68.0772 19.7566 67.8439 8.71406 74.7114 5.10297C81.579 1.49188 76.9827 8.86127 74.2348 13.2969C75.6358 10.4707 79.0168 9.51432 80.2049 10.6362C81.6113 13.1745 76.8326 16.0381 75.3368 17.6221C76.4841 16.2852 78.8763 16.2703 79.5099 17.4137C80.9163 19.9519 74.5114 22.4665 75.3301 30.8811" stroke="black" stroke-width="1.81278" stroke-linecap="round" stroke-linejoin="round"/>
<defs>
<linearGradient id="paint0_linear_2044_1309" x1="43.6926" y1="3.64433" x2="43.6926" y2="78.495" gradientUnits="userSpaceOnUse">
<stop stop-color="#40CAED"/>
<stop offset="1" stop-color="#D215C4"/>
</linearGradient>
<linearGradient id="paint1_linear_2044_1309" x1="48.6625" y1="63.7283" x2="81.0008" y2="68.6952" gradientUnits="userSpaceOnUse">
<stop stop-color="#40CAED"/>
<stop offset="1" stop-color="#D215C4"/>
</linearGradient>
<linearGradient id="paint2_linear_2044_1309" x1="80.8573" y1="48.7728" x2="66.8093" y2="40.1633" gradientUnits="userSpaceOnUse">
<stop stop-color="#D215C4"/>
<stop offset="1" stop-color="#3FCDEE"/>
</linearGradient>
<linearGradient id="paint3_linear_2044_1309" x1="29.5743" y1="62.3596" x2="10.1783" y2="73.4857" gradientUnits="userSpaceOnUse">
<stop stop-color="#40CAED"/>
<stop offset="1" stop-color="#D215C4"/>
</linearGradient>
<linearGradient id="paint4_linear_2044_1309" x1="7.43948" y1="59.1975" x2="19.6758" y2="53.7592" gradientUnits="userSpaceOnUse">
<stop stop-color="#CB19EA"/>
<stop offset="1" stop-color="#3FCDEE"/>
</linearGradient>
<linearGradient id="paint5_linear_2044_1309" x1="79.0499" y1="11.7466" x2="71.4714" y2="26.5458" gradientUnits="userSpaceOnUse">
<stop stop-color="#49C0EB"/>
<stop offset="1" stop-color="#6C93E0"/>
</linearGradient>
</defs>
</svg>
