<svg width="84" height="84" viewBox="0 0 84 84" fill="none" xmlns="http://www.w3.org/2000/svg">
<path d="M6.02435 25.6538C3.39285 21.212 -0.559486 10.8983 4.68313 5.17836C9.58036 -0.164781 8.30214 6.8908 7.22666 12.0033C8.01483 9.47845 10.4006 7.95085 11.7236 8.52891C13.7694 10.3232 10.7932 14.2253 9.69539 16.3505C10.5016 14.9763 12.4607 14.3532 13.3605 15.1424C15.5422 17.0558 10.3643 21.5874 13.9791 29.2299L6.02435 25.6538Z" fill="url(#paint0_linear_2168_6231)"/>
<path d="M6.02435 25.6538C3.39285 21.212 -0.559486 10.8983 4.68313 5.17836C9.92574 -0.541606 8.09113 7.94766 7.00438 13.051C7.36755 9.91765 10.2263 7.87467 11.7236 8.52891C13.9053 10.4423 10.3759 14.7527 9.50357 16.7492C10.1313 15.1031 12.3777 14.2804 13.3605 15.1424C15.5422 17.0558 10.3643 21.5874 13.9791 29.2299" stroke="black" stroke-width="1.81278" stroke-linecap="round" stroke-linejoin="round"/>
<path d="M73.4424 6.01907L67.7059 14.7872L61.0998 9.42681L52.871 4.92645L38.1253 2.73547L27.0247 4.51192L17.9674 8.77542L11.0641 16.2366L5.54134 25.5333L2.06203 36.3697V48.272L2.83521 53.5422L7.6952 66.0958L15.7031 73.9122L21.8333 79.4193L27.9636 80.9589L34.4251 80.1298L45.4706 80.9589L58.3937 78.2942L70.2123 70.537L77.0605 60.4704L81.2025 46.9693L79.9926 36.1329L77.1854 28.2665L79.9926 23.25V20.1091L77.1854 19.8038L82.3116 14.002L80.6029 11.0793L76.8599 11.8645L79.9926 7.02239L79.2603 4.75403L73.4424 6.01907Z" fill="url(#paint1_linear_2168_6231)"/>
<path d="M10.2127 40.4755C12.6374 48.7946 6.41416 52.6942 2.99949 53.6041L6.42632 63.1002L11.0002 70.4566L17.6705 75.2586L22.5303 79.6519L27.1995 81.1845L34.8227 80.3671H50.0372C53.4782 79.4136 61.4847 76.7094 65.9824 73.5217C58.0543 70.0887 60.2243 60.2448 62.3003 55.752L63.0541 51.1707C63.1643 50.5462 63.3186 48.8212 63.0541 46.9173C62.6763 43.1905 55.7534 40.8272 52.3392 40.1114L50.0372 39.7606C48.4005 39.5656 44.5575 39.2147 42.2784 39.3706C33.9377 41.0864 27.2861 38.6557 25.0029 37.2259C24.0533 36.9226 21.4387 36.095 18.5777 35.2111C10.7583 34.6911 10.5158 38.7207 10.2127 40.4755Z" fill="white" stroke="black" stroke-width="1.75"/>
<path d="M19.2464 64.0664L26.9927 57.358L38.9101 56.2719L51.9597 62.4053L47.729 67.4526L41.949 69.8165L36.3479 79.0806L30.0316 80.8056L22.5833 79.7834L19.2464 76.3972L17.6971 70.6471L19.2464 64.0664Z" fill="#CE515A"/>
<path d="M40.0834 32.8246C38.6006 27.573 41.9865 21.5433 48.0344 21.4534C50.9119 21.4106 53.6466 22.027 55.8648 24.194C58.9392 27.1974 59.2202 32.0398 56.5353 35.8947C51.5863 33.3016 46.2966 33.2536 40.9487 33.6018C40.6915 33.6185 40.4083 33.1742 40.0834 32.8246ZM53.0787 28.7419C52.4806 27.5613 51.6363 26.9482 50.446 27.7351C49.5271 28.3426 49.2676 29.4258 49.7807 30.3654C50.0768 30.9076 50.9476 31.448 51.5071 31.3913C52.6765 31.2728 53.2615 30.3428 53.0787 28.7419Z" fill="#F9F9F7"/>
<path d="M50.8585 81.2329C47.4165 81.4406 43.9763 81.7448 40.5319 81.8152C38.825 81.8501 37.1134 81.4116 35.3979 81.2738C34.601 81.2098 33.7696 81.2472 32.9882 81.4186C28.7453 82.3491 24.3827 82.4883 21.0529 79.3395C18.0655 76.5146 14.4936 74.6719 11.5894 71.7661C5.61346 65.7871 2.5404 58.3267 1.43053 49.8315C-0.494741 35.0954 4.09136 22.6326 13.3737 11.9822C17.7503 6.96046 23.465 4.32977 29.6458 3.06482C40.0314 0.939351 50.1603 1.79134 59.519 7.48632C62.4299 9.2577 64.9175 11.829 67.4054 13.875C68.511 11.9876 69.658 9.61617 71.1747 7.55792C72.6663 5.53379 74.6572 4.0861 77.0983 3.42093C78.348 3.08042 79.616 3.12659 80.1995 4.20021C80.6946 5.11104 80.6507 6.51005 80.4877 7.63342C80.3539 8.55577 79.6945 9.39047 79.4487 9.89418C80.4537 10.4058 81.8716 10.6405 82.4234 11.5084C83.6215 13.3924 82.7948 15.2391 81.3186 16.9296C81.0482 17.2628 80.9037 17.4593 80.6567 17.7027C80.2863 18.0731 80.0185 18.3967 79.7506 18.7203C79.9077 18.7058 80.0647 18.6913 80.2217 18.6768C80.5257 19.8147 80.8296 20.9526 81.094 22.1927C81.0093 22.4338 80.9642 22.5728 80.8575 22.8024C80.1449 24.0782 79.4937 25.2634 78.8585 26.4577C78.8745 26.4667 78.8555 26.4338 78.7674 26.4736C78.6532 26.8847 78.6272 27.2561 78.5952 27.7527C78.6282 27.9503 78.6671 28.0228 78.7476 28.1785C79.294 29.8347 79.9357 31.3746 80.273 32.9878C80.851 35.7524 81.2388 38.5628 81.6833 41.493C81.6891 41.8166 81.7181 42.0013 81.7223 42.3062C81.7975 48.7249 80.4826 54.6894 77.9809 60.4352C77.9513 60.4898 77.9714 60.6141 77.9015 60.7002C76.2468 63.3164 74.662 65.8464 73.0274 68.4067C72.9775 68.4371 72.9376 68.5523 72.8579 68.6071C72.2917 69.2317 71.8051 69.8014 71.2271 70.4048C70.88 70.7409 70.6243 71.0434 70.2696 71.387C69.7537 71.8441 69.3367 72.2602 68.8284 72.7086C68.3412 73.0996 67.9452 73.4582 67.4468 73.8395C66.3213 74.6265 65.2983 75.3909 64.202 76.159C64.1287 76.1628 64.0253 76.2746 63.9341 76.3107C59.978 78.7 55.7635 80.023 51.3822 81.154C51.1369 81.1716 50.9977 81.2022 50.8585 81.2329ZM22.2982 62.2509C22.2215 62.3575 22.1448 62.4641 21.8842 62.666C20.1426 64.1301 19.593 66.3314 19.0777 68.4266C18.556 70.5474 18.3775 72.7991 19.6519 75.0426C19.9235 75.4566 20.1951 75.8706 20.5193 76.3921C20.5193 76.3921 20.6154 76.4568 20.6961 76.6694C23.6761 79.844 29.3816 80.9257 33.7384 79.068C35.7797 77.8992 37.4141 76.2814 38.6101 73.9468C38.6101 73.9468 38.6366 73.7837 38.609 73.7755C38.609 73.7755 38.6134 73.8059 38.77 73.6823C38.8352 73.4883 38.9005 73.2942 38.9273 73.1004C38.9273 73.1004 38.9396 73.1395 39.1014 73.0219C39.1562 72.8233 39.211 72.6247 39.2372 72.4208C39.2372 72.4208 39.2463 72.4503 39.413 72.3003C39.5949 71.7947 39.7769 71.2891 39.9334 70.7583C39.9334 70.7583 39.9292 70.7952 40.0913 70.6661C40.2514 70.2673 40.4114 69.8686 40.7108 69.3534C40.7811 69.1801 40.8513 69.0067 41.0423 68.7163C41.0706 68.6049 41.099 68.4936 41.2924 68.2506C41.5623 67.7403 41.8322 67.23 42.251 66.6242C42.3336 66.4612 42.4161 66.2983 42.6273 66.0413C42.7019 65.9581 42.7477 65.8596 42.9345 65.6293C43.3324 65.4282 43.7302 65.2271 44.1219 65.1905C44.096 65.3524 44.07 65.5142 43.9518 65.8605C43.9366 65.9987 43.9214 66.1369 43.743 66.4326C43.5013 67.0791 43.2596 67.7256 42.9289 68.6102C45.8693 67.4762 48.2227 65.9811 49.8328 63.0922C48.4053 62.0947 47.1091 61.1888 45.6818 60.2052C45.6818 60.2052 45.5332 60.1857 45.537 60.206C45.537 60.206 45.5475 60.1881 45.3794 60.006C44.5919 59.853 43.8043 59.7001 42.8627 59.3066C40.473 59.0529 38.1523 59.2474 36.0332 60.5378C36.0332 60.5378 36.0147 60.5001 35.8233 60.5435C35.6736 60.6537 35.5239 60.764 35.4131 60.8973C35.4131 60.8973 35.3869 60.8587 35.2144 60.8965C35.032 61.0205 34.8497 61.1445 34.559 61.3214C34.559 61.3214 34.5063 61.4358 34.3915 61.5317C34.2924 61.6418 34.1932 61.7518 34.1496 61.8986C34.1496 61.8986 34.1051 61.8473 33.9032 61.8822C33.6892 62.1215 33.4751 62.3607 33.1891 62.818C31.6087 64.9844 30.0282 67.1509 28.3318 69.4762C28.9146 65.4516 30.1501 62.0434 33.442 59.6455C33.5886 59.5169 33.7352 59.3883 33.8573 59.2328C33.8573 59.2328 33.8746 59.2654 34.0557 59.235C34.2049 59.1284 34.3541 59.0218 34.4841 58.8945C34.4841 58.8945 34.5025 58.9152 34.7081 58.8668C34.9052 58.7153 35.1024 58.5639 35.5345 58.2318C32.0789 57.3034 29.0965 57.8955 26.265 59.5177C26.265 59.5177 26.256 59.4809 26.0319 59.5148C25.6389 59.7463 25.2459 59.9778 24.7665 60.191C24.7665 60.191 24.7125 60.2654 24.5523 60.2917C24.4823 60.3772 24.4123 60.4628 24.3785 60.5528C24.3785 60.5528 24.3713 60.5145 24.2022 60.5611C24.1287 60.6528 24.0551 60.7444 24.0296 60.8455C24.0296 60.8455 24.0118 60.7967 23.8532 60.8553C23.7824 60.9433 23.7115 61.0314 23.6817 61.1071C23.6817 61.1071 23.6437 61.0864 23.4792 61.1651C23.3535 61.2976 23.2277 61.4302 23.1277 61.5744C23.1277 61.5744 23.1251 61.5446 22.9594 61.6006C22.8911 61.697 22.8227 61.7934 22.7981 61.8963C22.7981 61.8963 22.7902 61.8497 22.6266 61.9178C22.5601 62.0175 22.4936 62.1172 22.4777 62.2301C22.4777 62.2301 22.4743 62.1743 22.2982 62.2509ZM54.3172 60.2411C54.3172 60.2411 54.32 60.2584 54.1711 60.3682C54.0992 60.5426 54.0274 60.7171 53.9936 60.9056C53.9936 60.9056 53.9653 60.8749 53.803 60.972C53.7249 61.1496 53.6468 61.3273 53.6005 61.5333C53.6005 61.5333 53.6024 61.489 53.448 61.5678C53.4015 61.6775 53.355 61.7872 53.1542 61.9908C53.0255 62.1992 52.8968 62.4076 52.6364 62.7511C52.5483 62.9191 52.4602 63.0871 52.2402 63.3328C52.1647 63.4119 52.1234 63.5078 51.9455 63.7502C49.4908 66.9637 46.5832 69.4927 42.8299 70.7828C42.4302 70.9202 41.9773 71.2519 41.7826 71.6312C41.2338 72.7005 40.8068 73.8415 40.3395 74.9711C40.3395 74.9711 40.3417 74.9896 40.198 75.0789C40.1672 75.1919 40.1365 75.305 40.1352 75.4234C40.1352 75.4234 40.1195 75.3961 39.9626 75.5067C39.8837 75.6868 39.8049 75.8669 39.748 76.0741C39.748 76.0741 39.7612 76.0411 39.5909 76.1542C39.3523 76.5842 39.1137 77.0142 38.8924 77.4619C38.8924 77.4619 38.8727 77.4483 38.7169 77.5416C38.6265 77.6991 38.5362 77.8566 38.4339 78.0736C38.4339 78.0736 38.4578 78.0185 38.2932 78.0607C38.2446 78.1651 38.196 78.2695 38.2049 78.3604C38.2049 78.3604 38.1467 78.3507 37.9535 78.4193C37.592 78.7517 37.2304 79.084 36.6316 79.6345C41.1664 79.9801 45.3745 80.2001 49.8283 79.4377C51.3084 79.1179 52.8096 78.8825 54.265 78.4641C61.6839 76.3313 67.8673 72.1213 72.8827 65.576C73.8365 64.0232 74.7903 62.4703 75.8328 60.8418C75.8328 60.8418 75.8631 60.7247 75.868 60.7158C75.868 60.7158 75.8777 60.7216 76.0257 60.5484C76.9769 57.7452 77.9281 54.942 78.9646 51.9203C79.027 51.5369 79.0893 51.1535 79.2198 50.5126C79.4497 48.6357 79.8243 46.7637 79.8788 44.881C79.9867 41.1517 79.8622 37.4241 78.6087 33.9014C78.6087 33.9014 78.6434 33.8906 78.647 33.6554C78.5435 33.3792 78.4399 33.1031 78.3599 32.8629C78.3599 32.8629 78.3866 32.8296 78.3679 32.5735C78.0264 31.7186 77.685 30.8637 77.3366 29.772C77.1176 29.8729 76.759 29.9188 76.7025 30.0838C76.367 31.0617 76.0544 32.0551 75.8282 33.0675C75.6629 33.8071 75.421 34.0241 74.9273 33.2917C75.0149 31.9344 75.1026 30.5771 75.3143 29.0334C75.4077 28.6045 75.5012 28.1757 75.598 27.7366C75.598 27.7366 75.6076 27.7449 75.7395 27.5572C76.1503 26.9189 76.551 26.2728 76.9743 25.6442C77.6408 24.6542 78.4128 23.7296 78.9602 22.6703C79.2386 22.1315 79.1246 21.3594 79.188 20.6928C78.6112 20.701 78.0061 20.5943 77.4648 20.7472C76.8253 20.9278 76.2511 21.363 75.6217 21.6085C75.5236 21.6467 75.2822 21.2627 75.2453 20.9022C75.4619 20.5218 75.6152 20.0696 75.9064 19.7737C77.0355 18.6267 78.2605 17.5843 79.3492 16.3969C80.2744 15.3878 81.7125 14.0496 80.8398 12.7565C79.872 11.3224 78.3975 12.7097 77.2511 13.3398C76.1644 13.9371 75.1453 14.6756 74.1099 15.0853C74.6163 14.0134 75.0361 12.8803 75.6488 11.8836C76.6489 10.2569 77.8145 8.74742 78.8188 7.12341C79.0605 6.73264 79.1564 5.81031 78.9424 5.62018C78.5893 5.30657 77.8774 5.19552 77.4075 5.33951C75.1416 6.03381 73.2873 7.41391 71.758 9.61269C71.6692 9.79434 71.5803 9.97599 71.5646 10.1769C71.5646 10.1769 71.501 10.1337 71.3414 10.24C71.2257 10.4734 71.1101 10.7069 71.0142 10.9426C71.0142 10.9426 71.0009 10.9268 70.8539 11.0521C70.7789 11.2334 70.7039 11.4148 70.6643 11.5976C70.6643 11.5976 70.6538 11.5613 70.4908 11.6791C70.4297 11.8771 70.3687 12.0751 70.3463 12.2711C70.3463 12.2711 70.3318 12.2327 70.182 12.3459C70.1335 12.5322 70.0849 12.7186 69.8871 13.0297C69.834 13.2884 69.7808 13.5471 69.5682 13.9788C69.4873 14.286 69.4065 14.5932 69.1874 15.1125C68.9841 17.7716 68.7807 20.4306 68.4534 23.2504C68.1767 22.8103 67.9001 22.3702 67.5808 21.6802C67.4201 20.7533 67.2615 19.8261 67.098 18.8998C66.9597 18.1163 66.8156 17.3338 66.6045 16.3443C65.1325 14.7802 63.6606 13.2162 62.0273 11.4974C61.5055 11.0671 60.9968 10.617 60.4597 10.2098C58.0377 8.3733 55.4911 6.81342 52.3508 6.03273C51.9741 5.93538 51.5973 5.83802 51.1937 5.78511C51.1937 5.78511 51.2413 5.79943 51.0744 5.61799C45.2927 3.97351 39.4039 3.27162 33.4951 4.28882C29.9774 4.89438 26.5661 6.21054 23.1324 7.21601C23.1324 7.21601 23.1344 7.1875 22.9413 7.21219C22.7835 7.31981 22.6257 7.42743 22.4983 7.54656C22.4983 7.54656 22.5005 7.51206 22.3055 7.53954C22.1457 7.64581 21.9858 7.75207 21.8606 7.87025C21.8606 7.87025 21.8588 7.83121 21.6681 7.8668C21.5143 7.98119 21.3604 8.09557 21.2359 8.22022C21.2359 8.22022 21.2362 8.18714 21.0793 8.20785C20.9628 8.21768 20.8812 8.27997 20.7962 8.39172C20.7962 8.39172 20.7578 8.39306 20.6021 8.46493C20.4719 8.57536 20.3416 8.68578 20.2578 8.82819C20.2578 8.82819 20.2312 8.77636 20.0476 8.82899C19.8994 8.94649 19.7512 9.06399 19.6424 9.1971C19.6424 9.1971 19.6365 9.1526 19.4499 9.19939C19.305 9.32416 19.1601 9.44893 19.0392 9.58231C19.0392 9.58231 19.0413 9.55532 18.8445 9.60072C18.5833 9.8135 18.322 10.0263 18.0891 10.2496C18.0891 10.2496 18.0909 10.2175 17.9179 10.2573C17.841 10.347 17.7641 10.4366 17.7342 10.5305C17.7342 10.5305 17.7125 10.4857 17.5457 10.5464C17.3722 10.7051 17.1987 10.8639 16.9827 11.0602C16.9827 11.0602 16.938 11.0947 16.7796 11.1778C16.6593 11.3146 16.5389 11.4514 16.2283 11.6662C14.2106 14.1806 12.1929 16.6949 10.0098 19.3342C9.79457 19.6902 9.57937 20.0463 9.27815 20.5112C9.27815 20.5112 9.2582 20.6522 9.09371 20.7636C9.0111 20.9495 8.92847 21.1353 8.88328 21.3471C8.88328 21.3471 8.86987 21.3016 8.7236 21.3918C8.68633 21.5042 8.64904 21.6165 8.47152 21.814C8.41399 21.9708 8.35645 22.1276 8.13293 22.4244C8.04204 22.6273 7.95112 22.8302 7.73013 23.179C7.60388 23.4813 7.47764 23.7837 7.18357 24.2362C5.92647 27.989 4.66935 31.7417 3.32145 35.7174C3.22951 36.3567 3.13758 36.996 2.99095 37.9233C2.42029 42.9248 2.4545 47.8951 3.62361 53.0552C3.8035 53.6005 3.98338 54.1458 4.14816 54.7779C4.14816 54.7779 4.20917 54.8372 4.20753 55.0759C4.32689 55.4451 4.44625 55.8143 4.56586 56.4272C4.78346 57.0249 5.00104 57.6226 5.1888 58.4528C5.38166 58.847 5.57452 59.2413 5.76221 59.5789C5.76221 59.5789 5.7569 59.6356 5.80449 59.8698C6.6995 61.5874 7.59451 63.305 8.57174 65.2029C8.66801 65.2778 8.76429 65.3527 8.81684 65.4718C8.81684 65.4718 8.83035 65.5346 8.91129 65.7287C11.1005 69.0451 13.8289 71.7203 17.3409 73.996C16.3315 69.9953 17.2585 66.6347 18.8579 63.3688C18.8579 63.3688 18.8323 63.3988 19.0108 63.3295C19.0806 63.2169 19.1504 63.1042 19.3728 62.8595C20.0137 62.1383 20.6547 61.4171 21.521 60.5975C21.6242 60.4782 21.8308 60.3403 21.8154 60.2423C21.3544 57.2968 20.8714 54.3552 20.4362 51.3675C20.4362 51.3675 20.4181 51.3046 20.3037 51.1119C19.8891 50.9913 19.4745 50.8707 19.0622 50.7768C19.0622 50.7768 19.0862 50.7695 18.9902 50.5864C18.8097 50.5151 18.6292 50.4438 18.444 50.4109C18.444 50.4109 18.4792 50.4025 18.3502 50.226C17.969 50.0474 17.5878 49.8689 17.2206 49.6853C17.2206 49.6853 17.2269 49.6711 17.0864 49.4966C15.0654 47.8881 14.0076 45.6539 13.6944 43.0531C13.5753 42.064 12.7883 40.8667 14.2884 40.0193C15.0541 40.0971 15.8303 40.1146 16.5834 40.2649C18.3498 40.6175 20.1052 41.0337 21.8794 41.3857C21.8794 41.3857 21.8413 41.3791 22.0019 41.5685C27.2941 43.0892 32.7196 43.6275 38.4044 44.2067C44.5381 44.5995 50.6705 45.0183 56.8063 45.3686C58.5457 45.4679 59.5977 46.2943 59.7255 48.158C59.8235 49.5856 59.7261 51.0285 59.6372 52.6789C59.4338 52.609 59.0851 52.5869 59.0493 52.4619C58.6459 51.0525 58.2906 49.6273 57.9223 48.2064C57.8 48.2279 57.6776 48.2494 57.5553 48.2709C57.1792 50.7774 56.8032 53.2838 56.4351 55.8228C56.4351 55.8228 56.4498 55.7931 56.2923 55.9288C56.2113 56.1996 56.1304 56.4704 56.0579 56.7654C56.0579 56.7654 56.0547 56.791 55.9228 56.9168C55.8749 57.0999 55.8269 57.283 55.794 57.5268C55.794 57.5268 55.7958 57.4641 55.6312 57.5972C55.4713 58.005 55.3115 58.4128 55.2293 58.8527C55.2293 58.8527 55.1598 58.8035 54.9948 58.9201C54.859 59.2375 54.7233 59.5548 54.6098 59.8982C54.6098 59.8982 54.6072 59.8631 54.4711 59.945C54.3912 60.0243 54.3453 60.122 54.3172 60.2411ZM29.9313 50.0484C29.8897 50.472 29.848 50.8956 29.7792 51.5961C32.4474 51.7624 34.9819 51.9205 37.7119 52.0906C37.9495 49.8865 38.1668 47.8706 38.3886 45.8131C35.6168 45.6 33.0745 45.4046 30.3396 45.1943C30.2175 46.7705 30.1018 48.2629 29.9313 50.0484ZM39.3169 48.4096C39.266 49.5239 39.2151 50.6382 39.1556 51.9423C42.0502 52.2582 44.7917 52.3187 47.3249 51.4289C47.3249 49.477 47.3249 47.8162 47.3249 46.1377C44.6656 45.9895 42.1371 45.8485 39.6193 45.7081C39.528 46.6695 39.4596 47.3908 39.3169 48.4096ZM21.5721 47.8494C21.5102 48.3226 21.4483 48.7958 21.3549 49.5098C23.8402 50.1454 26.2468 50.7608 28.7297 51.3956C28.894 48.8839 29.0271 46.8483 29.16 44.8167C26.7388 44.3989 24.551 44.0214 22.3308 43.6382C22.0553 45.0808 21.8173 46.3267 21.5721 47.8494ZM51.2513 50.7782C52.2945 50.443 53.413 50.2572 54.3513 49.7137C54.8698 49.4134 55.2913 48.5381 55.3597 47.8749C55.3985 47.4986 54.6814 46.7316 54.226 46.6508C52.4087 46.3285 50.5605 46.2065 48.7351 46.0115C48.7351 47.886 48.7351 49.4911 48.7351 51.1964C49.556 51.0488 50.2701 50.9203 51.2513 50.7782ZM20.8856 45.1099C20.8856 44.5625 20.8856 44.0151 20.8856 43.427C19.1321 43.0755 17.4296 42.7342 15.7112 42.3897C15.6935 45.9042 17.6493 48.5706 20.2875 48.6659C20.4598 47.5797 20.6331 46.4866 20.8856 45.1099Z" fill="#080709"/>
<path d="M29.9588 49.9019C30.1018 48.2629 30.2175 46.7706 30.3396 45.1944C33.0745 45.4046 35.6168 45.6001 38.3886 45.8132C38.1668 47.8707 37.9495 49.8866 37.7118 52.0907C34.9819 51.9205 32.4474 51.7625 29.7792 51.5962C29.848 50.8956 29.8897 50.472 29.9588 49.9019Z" fill="#F7F6F4"/>
<path d="M39.264 48.3749C39.3696 47.5048 39.528 46.6695 39.6193 45.7081C42.1371 45.8485 44.6656 45.9895 47.3249 46.1378C47.3249 47.8162 47.3249 49.477 47.3249 51.4289C44.7917 52.3188 42.0502 52.2582 39.1556 51.9423C39.2151 50.6382 39.176 49.6379 39.264 48.3749Z" fill="#080709"/>
<path d="M21.5758 47.711C21.8174 46.3267 22.0553 45.0808 22.3308 43.6382C24.5511 44.0214 26.7388 44.3989 29.16 44.8168C29.0271 46.8483 28.894 48.8839 28.7297 51.3957C26.2469 50.7608 23.8402 50.1454 21.355 49.5099C21.4484 48.7958 21.5103 48.3226 21.5758 47.711Z" fill="#F8F7F5"/>
<path d="M51.1177 50.785C50.2701 50.9204 49.556 51.0488 48.7351 51.1965C48.7351 49.4911 48.7351 47.886 48.7351 46.0115C50.5606 46.2065 52.4087 46.3286 54.2261 46.6509C54.6814 46.7316 55.3985 47.4987 55.3597 47.875C55.2913 48.5381 54.8699 49.4135 54.3513 49.7138C53.413 50.2572 52.2945 50.443 51.1177 50.785Z" fill="#F6F5F3"/>
<path d="M20.846 45.2516C20.6331 46.4865 20.4598 47.5797 20.2876 48.6659C17.6493 48.5706 15.6935 45.9042 15.7112 42.3897C17.4297 42.7342 19.1321 43.0755 20.8856 43.427C20.8856 44.0151 20.8856 44.5625 20.846 45.2516Z" fill="#F6F5F3"/>
<path d="M54.2858 20.8666C56.2535 22.2045 58.2512 23.5105 59.1889 26.1086C59.5335 27.8588 59.7894 29.5446 60.0561 31.3833C59.9257 32.2997 59.7845 33.0632 59.5591 34.0298C59.3714 34.5019 59.268 34.771 59.1646 35.0401C59.1646 35.0401 59.1465 35.0954 59.0877 35.1695C58.979 35.3303 58.9542 35.4247 58.9542 35.5267C58.9542 35.5267 58.9433 35.5298 58.9378 35.5276C58.5451 36.326 58.1578 37.1265 57.753 37.9632C56.0223 37.5472 54.0446 37.0717 51.8078 36.6051C50.4862 36.3839 49.4236 36.154 48.2903 35.8087C47.1967 35.5668 46.1603 35.2634 45.1542 35.3527C43.3502 35.5127 41.5645 35.9089 39.7878 36.2085C39.8046 36.2106 39.7912 36.1774 39.675 36.2011C39.0279 36.3403 38.4969 36.4558 37.9646 36.5047C37.9632 36.4381 37.9806 36.306 38.0635 36.268C38.2329 36.0629 38.3195 35.8958 38.4818 35.646C38.6188 35.2655 38.8223 34.8853 38.7199 34.6824C37.2833 31.8354 37.8489 29.0036 38.7811 26.0667C39.0802 25.3656 39.3071 24.7625 39.6323 24.119C40.4022 23.3655 41.0739 22.6524 41.8367 21.8888C42.0006 21.7221 42.0735 21.6059 42.1283 21.5101C42.1103 21.5304 42.1567 21.5562 42.2355 21.5257C42.3714 21.3971 42.4286 21.299 42.4612 21.207C42.4366 21.2131 42.4749 21.2482 42.5631 21.2253C42.7949 21.0911 42.9385 20.9798 43.058 20.8511C43.0339 20.8337 43.0629 20.8877 43.1628 20.8641C43.4949 20.7003 43.727 20.56 43.9485 20.4145C43.9378 20.4094 43.9352 20.4344 44.0621 20.4233C47.0088 19.3602 49.8635 19.6565 52.7254 20.1357C52.7272 20.1136 52.6871 20.1248 52.7576 20.2114C53.1072 20.3643 53.3862 20.4305 53.6681 20.4765C53.6709 20.4563 53.634 20.4665 53.6841 20.5569C53.9181 20.7204 54.102 20.7935 54.2858 20.8666ZM40.1372 33.027C40.4083 33.2566 40.6916 33.701 40.9487 33.6842C46.2966 33.336 51.5863 33.3841 56.5354 35.9771C59.2202 32.1223 58.9392 27.2798 55.8648 24.2764C53.6466 22.1095 50.9119 21.493 48.0344 21.5358C41.9866 21.6258 38.6006 27.6554 40.1372 33.027Z" fill="#07080D"/>
<path d="M61.7274 44.0255C63.7097 46.0424 64.3822 48.4081 63.7696 51.3216C63.3052 52.8884 62.8362 54.3114 62.2767 55.8051C62.3915 53.9883 62.6428 52.105 62.7902 50.2124C62.9626 48.0006 62.2021 46.1579 60.5591 44.6385C60.4681 44.586 60.4313 44.587 60.3839 44.5145C60.234 44.3837 60.1315 44.3253 60.029 44.2669C59.2002 43.7678 58.3715 43.2687 57.5428 42.7696C57.5722 42.6656 57.6015 42.5616 57.6309 42.4576C58.1803 42.5502 58.7298 42.6429 59.4538 42.8173C59.7494 42.9298 59.8705 42.9604 60.0621 43.0252C60.1327 43.0593 60.287 43.0729 60.2854 43.0612C60.2839 43.0495 60.2679 43.066 60.2679 43.066C60.7219 43.3755 61.176 43.685 61.7274 44.0255Z" fill="#0A0715"/>
<path d="M15.7578 35.0983C19.1695 34.1554 22.4616 34.2999 25.3045 37.1788C24.7579 37.2424 24.1674 37.2003 23.4732 37.1507C20.8549 36.4913 18.3402 35.8394 15.7578 35.0983Z" fill="#080A16"/>
<path d="M41.2865 39.3975C42.7161 38.4271 44.2641 37.9449 46.0177 38.5919C46.5944 38.8046 47.292 38.6406 48.0232 38.6915C49.5204 39.0941 50.9286 39.4541 52.3369 39.8141C52.3301 39.9631 52.3233 40.1122 52.3166 40.2613C48.671 40.0014 45.0255 39.7415 41.2865 39.3975Z" fill="#07101D"/>
<path d="M22.6845 16.6678C25.8213 17.2012 28.3898 18.5163 30.2343 21.4903C30.4546 21.8158 30.5669 21.9755 30.6791 22.1352C30.6791 22.1352 30.6876 22.1074 30.6842 22.1946C30.7459 22.3687 30.811 22.4556 30.876 22.5425C30.876 22.5425 30.8445 22.5982 30.885 22.733C31.1362 23.4196 31.347 23.9714 31.5448 24.5047C31.5318 24.4862 31.504 24.5215 31.51 24.6743C31.4313 26.8354 31.3464 28.8436 31.282 30.8523C31.3023 30.8526 31.2929 30.8101 31.2119 30.869C31.0667 31.1249 31.0025 31.322 30.9604 31.5189C30.9823 31.5186 30.9692 31.4737 30.8839 31.5328C30.6289 31.9045 30.4594 32.217 30.2252 32.558C30.0902 32.6624 30.0583 32.7536 29.9978 32.9038C29.8458 33.0188 29.7867 33.1097 29.6725 33.2425C29.5465 33.3669 29.5014 33.4687 29.4214 33.6834C29.6064 34.1842 29.8264 34.5721 30.0479 34.9516C30.0495 34.9431 30.0354 34.9528 30.0354 34.9528C30.0354 35.3362 30.0354 35.7196 30.0354 35.9883C28.211 35.0938 26.4018 34.2067 24.4903 33.165C23.91 32.8038 23.4319 32.5971 22.9538 32.3905C22.9538 32.3905 22.9257 32.3958 22.8732 32.3256C22.6526 32.1996 22.4845 32.1438 22.3164 32.088C22.3164 32.088 22.2662 32.094 22.1994 32.0265C21.8454 31.91 21.5582 31.861 21.271 31.812C21.271 31.812 21.257 31.8439 21.1915 31.7485C17.753 30.8525 14.4137 30.7577 11.1479 32.2009C11.1479 32.2009 11.1713 32.2096 11.0774 32.2045C10.7452 32.2679 10.507 32.3366 10.2688 32.4052C10.4638 31.3958 12.336 31.1615 11.3051 29.5214C10.6946 24.7842 12.9012 21.5057 15.9433 18.5155C17.9143 16.6835 20.2225 16.6638 22.6845 16.6678ZM18.9629 19.0002C15.1032 20.5016 12.181 25.8995 13.2298 29.6654C17.9481 28.476 22.3849 29.4195 26.5998 31.8338C27.8465 32.5479 28.6043 32.2131 29.1725 30.8337C30.3822 27.8972 30.3192 24.9878 28.6473 22.3867C26.3607 18.8295 22.9322 18.2401 18.9629 19.0002Z" fill="#09090C"/>
<path d="M49.2783 14.3319C49.2783 14.3319 49.1482 14.3113 49.0018 14.1944C47.5823 14.1568 46.3033 14.1804 45.038 14.334C44.1381 14.4432 43.2568 14.7274 42.3671 14.9335C42.3671 14.9335 42.3764 14.9762 42.3575 14.8362C42.3879 14.2507 42.4372 13.8053 42.4866 13.36C45.2315 11.1711 48.2438 11.8295 51.2197 12.4957C52.2816 12.7335 53.282 13.2872 54.4209 13.7264C54.5313 13.7561 54.5489 13.7601 54.6109 13.8461C54.9642 14.0895 55.2557 14.2469 55.5471 14.4044C55.7159 14.5679 55.8846 14.7315 56.1802 14.9785C56.3071 15.062 56.4375 15.0977 56.4375 15.0977C56.4375 15.0977 56.4906 15.0941 56.4987 15.1703C56.6066 15.2998 56.7065 15.3531 56.8063 15.4064C56.8063 15.4064 56.8035 15.3995 56.8009 15.405C57.307 15.9627 57.9356 16.4407 58.2866 17.0909C58.5643 17.6054 58.5013 18.3314 58.5947 19.0002C56.2572 17.525 54.2282 16.2446 51.9992 14.871C50.9589 14.6293 50.1186 14.4806 49.2783 14.3319Z" fill="#07080E"/>
<path d="M30.26 12.503C29.9722 12.7326 29.7088 12.9996 29.5395 12.9429C24.4963 11.2547 20.267 13.4259 16.1417 16.1355C15.9437 16.2655 15.6814 16.283 15.3136 16.3937C17.1631 12.2178 20.6152 11.0308 24.247 10.3306C25.6951 10.0515 27.2515 10.2083 28.7312 10.4042C29.6327 10.5236 30.6203 10.9714 30.26 12.503Z" fill="#050A11"/>
<path d="M10.4094 43.9118C9.96485 42.8397 9.45301 41.795 9.34141 40.7033C9.14407 38.773 10.2645 37.5277 11.8703 36.4672C12.1791 36.3389 12.312 36.3111 12.4397 36.2773C12.4347 36.2714 12.4215 36.2636 12.4215 36.2636C11.3103 38.5426 10.3742 40.8572 11.0237 43.5335C11.0422 43.6099 10.6976 43.7876 10.4094 43.9118Z" fill="#080A16"/>
<path d="M19.0795 18.9344C22.9322 18.2401 26.3607 18.8295 28.6473 22.3867C30.3192 24.9878 30.3822 27.8972 29.1725 30.8337C28.6043 32.2131 27.8465 32.5479 26.5998 31.8338C22.3849 29.4195 17.9481 28.476 13.2298 29.6654C12.181 25.8995 15.1032 20.5016 19.0795 18.9344ZM19.5813 23.3064C18.5192 22.9173 17.4625 22.986 17.21 24.2993C17.0715 25.0199 17.3968 26.2588 17.8995 26.5907C18.4221 26.9357 19.6914 26.7684 20.134 26.2915C20.9223 25.442 20.9331 24.2516 19.5813 23.3064Z" fill="#F9F9F7"/>
<path d="M53.0999 28.9615C53.2615 30.4252 52.6765 31.3552 51.5071 31.4736C50.9476 31.5303 50.0768 30.99 49.7807 30.4478C49.2676 29.5081 49.5271 28.4249 50.446 27.8174C51.6363 27.0305 52.4806 27.6436 53.0999 28.9615Z" fill="#070608"/>
<path d="M19.6952 23.3615C20.9337 24.2469 20.9229 25.4373 20.1346 26.2868C19.6921 26.7637 18.4228 26.9309 17.9002 26.586C17.3974 26.2541 17.0721 25.0152 17.2107 24.2946C17.4631 22.9812 18.5198 22.9126 19.6952 23.3615Z" fill="#070809"/>
<path d="M54.3841 31.9079C50.8669 33.3788 52.8094 36.1153 54.8051 36.4223C55.1515 37.275 56.7183 39.406 61.8982 39.0223C64.7077 38.8142 65.418 37.8128 65.2204 36.7018C64.8604 34.6771 62.3559 34.0662 60.2994 34.0662C59.7932 32.7339 57.9013 30.4371 54.3841 31.9079Z" fill="#3FCDEE"/>
<path d="M55.6327 32.3747C56.5026 32.2212 58.3551 32.2723 58.8054 33.7052C59.3683 35.4962 53.6625 33.7564 55.6327 32.3747Z" fill="#F9F9F7" fill-opacity="0.65"/>
<path d="M61.0275 34.902C61.5438 34.7062 62.6868 34.5051 63.1288 35.2667C63.6813 36.2187 59.9777 35.9353 61.0275 34.902Z" fill="#F9F9F7" fill-opacity="0.45"/>
<path d="M67.322 39.9832C66.3607 41.677 67.9556 43.5434 68.8433 43.4836C69.2371 44.1044 70.5007 45.5496 72.4509 44.4624C73.8708 43.6709 73.354 42.3235 72.5452 41.2896C72.027 40.6271 71.1139 40.493 70.3276 40.7916C69.7263 39.8164 68.2834 38.2895 67.322 39.9832Z" fill="#3FCDEE"/>
<path d="M72.4509 42.3321C72.699 42.6369 72.9271 43.3945 71.8545 43.9866C70.5137 44.7268 71.0679 41.9387 72.4509 42.3321Z" fill="#F9F9F7" fill-opacity="0.65"/>
<path d="M70.8227 41.5005C70.9755 41.2846 71.3645 40.9514 71.6974 41.3458C72.1136 41.8388 70.6501 42.3354 70.8227 41.5005Z" fill="#F9F9F7" fill-opacity="0.45"/>
<defs>
<linearGradient id="paint0_linear_2168_6231" x1="11.0119" y1="9.96437" x2="8.8822" y2="26.4542" gradientUnits="userSpaceOnUse">
<stop stop-color="#49C0EB"/>
<stop offset="1" stop-color="#BD21E4"/>
</linearGradient>
<linearGradient id="paint1_linear_2168_6231" x1="5.86191" y1="15.7088" x2="87.7185" y2="23.2353" gradientUnits="userSpaceOnUse">
<stop stop-color="#00D4FF"/>
<stop offset="1" stop-color="#FF00D6"/>
</linearGradient>
</defs>
</svg>
