<svg width="84" height="84" viewBox="0 0 84 84" fill="none" xmlns="http://www.w3.org/2000/svg">
<mask id="path-1-outside-1_2076_1486" maskUnits="userSpaceOnUse" x="0" y="4" width="81" height="76" fill="black">
<rect fill="white" y="4" width="81" height="76"/>
<path d="M63.7925 6L55.7578 6.78023L55.5802 6.96579H53.0244L51.3677 8.63944V11.129L50.1015 8.00658L48.587 6.96579H44.0785L43.4513 7.59865L42.8241 6.96579H38.2684L36.6828 8.23026L35.7243 12.0961L34.8368 8.26707L33.204 6.96579H28.3997L26.7312 8.67632C26.743 8.90351 26.7312 9.12112 26.7312 9.34474C25.323 7.65212 23.3587 6.66843 20.9685 6.66843C18.5309 6.66962 16.4719 7.63672 15.0519 9.41974C15.0401 9.17352 15.0282 8.92968 15.0164 8.67632L13.8331 7.18947C13.5254 7.09313 13.1587 6.99552 12.7208 6.92891C12.283 6.84684 11.9398 6.80878 11.644 6.78023C11.3482 6.7493 11.0169 6.72438 10.6856 6.70654C10.4608 6.69346 10.2596 6.66843 9.95194 6.66843C9.19462 6.66843 8.37814 6.75406 7.58532 6.92891C6.70968 7.10971 5.91686 7.47733 5.21871 7.9329C4.44956 8.43485 3.75137 9.13664 3.25438 9.97759C2.68639 10.9553 2.50889 12.077 2.50889 13.2105C2.52072 14.2216 2.68635 15.1696 3.06501 16.0355V16.0737C3.39633 16.7957 3.83413 17.4653 4.36662 18.0434C4.82811 18.5501 5.34883 19.0128 5.91682 19.4184H5.95235C6.24818 19.6158 6.55584 19.843 6.83983 20.05C6.74517 20.0286 6.62684 20.0001 6.54401 19.9763H6.50847C6.16531 19.8776 5.88136 19.7907 5.65653 19.7158C5.45536 19.6361 5.30146 19.585 5.1358 19.4934L2.73379 20.7197C2.72196 20.7959 2.65082 21.142 2.59165 21.575L2.55626 21.6487C2.52077 22.0281 2.50885 22.3279 2.47335 22.6526C2.44969 23.063 2.42609 23.44 2.40243 23.7302V23.8052C2.3906 24.1252 2.36689 24.432 2.36689 24.771C2.36689 25.1398 2.36693 25.5074 2.40243 25.8868L2.43796 25.9605C2.4853 26.2341 2.50882 26.5708 2.59165 26.9276L3.36083 27.9684C3.78682 28.2194 4.22465 28.3906 4.69798 28.525L4.76905 28.5631C5.1832 28.6619 5.59729 28.7213 6.02328 28.7855C6.33094 28.8414 6.62676 28.8605 6.91076 28.8974C5.72745 28.9759 4.56789 29.1067 3.44375 29.2684L2.03553 30.979C2.11837 33.0332 2.15386 35.3847 2.17753 38.0408V38.0789C2.22486 40.7362 2.26044 43.4708 2.26044 46.3671C2.26044 47.3889 2.26044 48.3869 2.26044 49.3408C2.26044 50.2793 2.23674 51.219 2.2249 52.1658V53.3553L2.17753 55.0658C2.17753 56.0031 2.1658 56.988 2.14214 58.0026L3.28991 59.3777L2 60.9382C2.04733 62.0075 2.05923 63.2481 2.07107 64.6553V64.6934C2.09473 66.097 2.1066 67.5469 2.1066 69.0789C2.1066 69.6202 2.1066 70.1341 2.1066 70.6408C2.1066 71.0916 2.0829 71.5924 2.07107 72.1276V73.6882C2.07107 74.221 2.0829 74.7182 2.07107 75.2119L3.5502 76.8855C4.26019 76.9664 4.92284 77.0805 5.62099 77.1079C6.23631 77.1317 6.70957 77.146 7.02906 77.1448C8.41353 77.1448 9.66787 76.8772 10.7565 76.4395C11.7742 76.0315 12.6144 75.4153 13.348 74.6553C13.3717 74.7587 13.3953 74.8456 13.419 74.9526C13.5018 75.2892 13.5729 75.7139 13.6794 76.179L13.7148 76.2158L13.8686 76.7737L15.7856 78L20.8146 76.9224H20.8975H23.6664L25.3349 75.175C25.3231 74.9466 25.3112 74.6707 25.2994 74.2829C25.2876 73.882 25.2639 73.4288 25.252 72.9447V71.3461V71.2724C25.252 71.2605 25.252 71.2474 25.252 71.2355H26.2224C26.2224 71.7506 26.2224 72.2763 26.2224 72.7224C26.2224 73.2886 26.1987 73.7964 26.1751 74.2829V74.3198C26.1751 74.7896 26.1869 75.1132 26.1751 75.1382L27.8436 76.9224H30.7663L32.4348 75.175C32.423 74.9478 32.3993 74.6707 32.3993 74.2829C32.3874 73.8809 32.3637 73.4288 32.3519 72.9447V71.3842V71.2724C32.3519 71.2605 32.3519 71.2474 32.3519 71.2355H33.3223C33.3223 71.8172 33.3223 72.3643 33.3223 72.871C33.3223 73.348 33.2867 73.8024 33.2749 74.2461V74.2829C33.2749 74.7266 33.2867 75.0453 33.2749 75.175L34.9434 76.9224C35.4167 76.9224 35.9255 76.9224 36.5408 76.9224C37.1562 76.9224 37.7714 76.9224 38.3867 76.9224C38.9547 76.9343 39.5228 76.958 40.0908 76.9592C40.6114 76.9711 41.0255 76.9854 41.345 76.9961L41.8184 76.55L42.1971 76.9224H45.2618L46.9303 75.1382C46.9185 74.9836 46.8948 74.8444 46.8829 74.6921L47.4391 75.9184L48.9656 76.9224H52.0658L52.2552 76.5882L52.5864 76.9224C53.0479 76.9224 53.5687 76.9224 54.1722 76.9224C54.7993 76.9224 55.4146 76.9224 56.0181 76.9224C56.5979 76.9343 57.1541 76.958 57.7221 76.9592C58.2546 76.9711 58.6568 76.9854 58.9763 76.9961L59.4615 76.55L59.8284 76.9224H62.2304L63.8989 75.25V74.6553L64.455 75.9184L65.9697 76.9224H69.3658L70.7029 75.5842L71.9927 76.9224H74.951L76.6195 75.25C76.6195 74.9562 76.5958 74.7813 76.584 74.6553V74.5434C76.584 74.3638 76.584 74.1711 76.584 73.9118C76.584 73.5942 76.584 73.2041 76.584 72.7224C76.584 72.2275 76.584 71.5519 76.584 70.7514C76.584 69.5274 76.6077 68.3795 76.6195 67.2947C76.6195 66.7678 76.6195 66.2826 76.6195 65.7711H77.0218L78.6903 64.0987V60.8276L77.0218 59.154H74.0281L75.1404 58.0395C75.1404 57.6386 75.1285 57.2722 75.1048 56.9237V56.8131C75.1048 56.448 75.1048 56.0079 75.1048 55.475C75.1048 54.8755 75.1048 54.1177 75.1048 53.2066C75.1048 52.2741 75.1048 51.0739 75.1048 49.5645C75.1048 47.2177 75.1167 45.0374 75.1404 43.0224C75.1522 41.5284 75.1522 40.0772 75.1759 38.6355H77.365L79.0216 36.9631V30.7934L77.365 29.1198H76.655L76.8442 28.7855H76.9509L78.5838 26.8158L75.2823 8.34207L73.6612 6.96579H68.1116L66.4903 8.34207L66.0052 11.0553L65.8986 9.9026L65.5674 7.44996L63.7925 6Z"/>
</mask>
<path d="M63.7925 6L55.7578 6.78023L55.5802 6.96579H53.0244L51.3677 8.63944V11.129L50.1015 8.00658L48.587 6.96579H44.0785L43.4513 7.59865L42.8241 6.96579H38.2684L36.6828 8.23026L35.7243 12.0961L34.8368 8.26707L33.204 6.96579H28.3997L26.7312 8.67632C26.743 8.90351 26.7312 9.12112 26.7312 9.34474C25.323 7.65212 23.3587 6.66843 20.9685 6.66843C18.5309 6.66962 16.4719 7.63672 15.0519 9.41974C15.0401 9.17352 15.0282 8.92968 15.0164 8.67632L13.8331 7.18947C13.5254 7.09313 13.1587 6.99552 12.7208 6.92891C12.283 6.84684 11.9398 6.80878 11.644 6.78023C11.3482 6.7493 11.0169 6.72438 10.6856 6.70654C10.4608 6.69346 10.2596 6.66843 9.95194 6.66843C9.19462 6.66843 8.37814 6.75406 7.58532 6.92891C6.70968 7.10971 5.91686 7.47733 5.21871 7.9329C4.44956 8.43485 3.75137 9.13664 3.25438 9.97759C2.68639 10.9553 2.50889 12.077 2.50889 13.2105C2.52072 14.2216 2.68635 15.1696 3.06501 16.0355V16.0737C3.39633 16.7957 3.83413 17.4653 4.36662 18.0434C4.82811 18.5501 5.34883 19.0128 5.91682 19.4184H5.95235C6.24818 19.6158 6.55584 19.843 6.83983 20.05C6.74517 20.0286 6.62684 20.0001 6.54401 19.9763H6.50847C6.16531 19.8776 5.88136 19.7907 5.65653 19.7158C5.45536 19.6361 5.30146 19.585 5.1358 19.4934L2.73379 20.7197C2.72196 20.7959 2.65082 21.142 2.59165 21.575L2.55626 21.6487C2.52077 22.0281 2.50885 22.3279 2.47335 22.6526C2.44969 23.063 2.42609 23.44 2.40243 23.7302V23.8052C2.3906 24.1252 2.36689 24.432 2.36689 24.771C2.36689 25.1398 2.36693 25.5074 2.40243 25.8868L2.43796 25.9605C2.4853 26.2341 2.50882 26.5708 2.59165 26.9276L3.36083 27.9684C3.78682 28.2194 4.22465 28.3906 4.69798 28.525L4.76905 28.5631C5.1832 28.6619 5.59729 28.7213 6.02328 28.7855C6.33094 28.8414 6.62676 28.8605 6.91076 28.8974C5.72745 28.9759 4.56789 29.1067 3.44375 29.2684L2.03553 30.979C2.11837 33.0332 2.15386 35.3847 2.17753 38.0408V38.0789C2.22486 40.7362 2.26044 43.4708 2.26044 46.3671C2.26044 47.3889 2.26044 48.3869 2.26044 49.3408C2.26044 50.2793 2.23674 51.219 2.2249 52.1658V53.3553L2.17753 55.0658C2.17753 56.0031 2.1658 56.988 2.14214 58.0026L3.28991 59.3777L2 60.9382C2.04733 62.0075 2.05923 63.2481 2.07107 64.6553V64.6934C2.09473 66.097 2.1066 67.5469 2.1066 69.0789C2.1066 69.6202 2.1066 70.1341 2.1066 70.6408C2.1066 71.0916 2.0829 71.5924 2.07107 72.1276V73.6882C2.07107 74.221 2.0829 74.7182 2.07107 75.2119L3.5502 76.8855C4.26019 76.9664 4.92284 77.0805 5.62099 77.1079C6.23631 77.1317 6.70957 77.146 7.02906 77.1448C8.41353 77.1448 9.66787 76.8772 10.7565 76.4395C11.7742 76.0315 12.6144 75.4153 13.348 74.6553C13.3717 74.7587 13.3953 74.8456 13.419 74.9526C13.5018 75.2892 13.5729 75.7139 13.6794 76.179L13.7148 76.2158L13.8686 76.7737L15.7856 78L20.8146 76.9224H20.8975H23.6664L25.3349 75.175C25.3231 74.9466 25.3112 74.6707 25.2994 74.2829C25.2876 73.882 25.2639 73.4288 25.252 72.9447V71.3461V71.2724C25.252 71.2605 25.252 71.2474 25.252 71.2355H26.2224C26.2224 71.7506 26.2224 72.2763 26.2224 72.7224C26.2224 73.2886 26.1987 73.7964 26.1751 74.2829V74.3198C26.1751 74.7896 26.1869 75.1132 26.1751 75.1382L27.8436 76.9224H30.7663L32.4348 75.175C32.423 74.9478 32.3993 74.6707 32.3993 74.2829C32.3874 73.8809 32.3637 73.4288 32.3519 72.9447V71.3842V71.2724C32.3519 71.2605 32.3519 71.2474 32.3519 71.2355H33.3223C33.3223 71.8172 33.3223 72.3643 33.3223 72.871C33.3223 73.348 33.2867 73.8024 33.2749 74.2461V74.2829C33.2749 74.7266 33.2867 75.0453 33.2749 75.175L34.9434 76.9224C35.4167 76.9224 35.9255 76.9224 36.5408 76.9224C37.1562 76.9224 37.7714 76.9224 38.3867 76.9224C38.9547 76.9343 39.5228 76.958 40.0908 76.9592C40.6114 76.9711 41.0255 76.9854 41.345 76.9961L41.8184 76.55L42.1971 76.9224H45.2618L46.9303 75.1382C46.9185 74.9836 46.8948 74.8444 46.8829 74.6921L47.4391 75.9184L48.9656 76.9224H52.0658L52.2552 76.5882L52.5864 76.9224C53.0479 76.9224 53.5687 76.9224 54.1722 76.9224C54.7993 76.9224 55.4146 76.9224 56.0181 76.9224C56.5979 76.9343 57.1541 76.958 57.7221 76.9592C58.2546 76.9711 58.6568 76.9854 58.9763 76.9961L59.4615 76.55L59.8284 76.9224H62.2304L63.8989 75.25V74.6553L64.455 75.9184L65.9697 76.9224H69.3658L70.7029 75.5842L71.9927 76.9224H74.951L76.6195 75.25C76.6195 74.9562 76.5958 74.7813 76.584 74.6553V74.5434C76.584 74.3638 76.584 74.1711 76.584 73.9118C76.584 73.5942 76.584 73.2041 76.584 72.7224C76.584 72.2275 76.584 71.5519 76.584 70.7514C76.584 69.5274 76.6077 68.3795 76.6195 67.2947C76.6195 66.7678 76.6195 66.2826 76.6195 65.7711H77.0218L78.6903 64.0987V60.8276L77.0218 59.154H74.0281L75.1404 58.0395C75.1404 57.6386 75.1285 57.2722 75.1048 56.9237V56.8131C75.1048 56.448 75.1048 56.0079 75.1048 55.475C75.1048 54.8755 75.1048 54.1177 75.1048 53.2066C75.1048 52.2741 75.1048 51.0739 75.1048 49.5645C75.1048 47.2177 75.1167 45.0374 75.1404 43.0224C75.1522 41.5284 75.1522 40.0772 75.1759 38.6355H77.365L79.0216 36.9631V30.7934L77.365 29.1198H76.655L76.8442 28.7855H76.9509L78.5838 26.8158L75.2823 8.34207L73.6612 6.96579H68.1116L66.4903 8.34207L66.0052 11.0553L65.8986 9.9026L65.5674 7.44996L63.7925 6Z" fill="black"/>
<path d="M63.7925 6L55.7578 6.78023L55.5802 6.96579H53.0244L51.3677 8.63944V11.129L50.1015 8.00658L48.587 6.96579H44.0785L43.4513 7.59865L42.8241 6.96579H38.2684L36.6828 8.23026L35.7243 12.0961L34.8368 8.26707L33.204 6.96579H28.3997L26.7312 8.67632C26.743 8.90351 26.7312 9.12112 26.7312 9.34474C25.323 7.65212 23.3587 6.66843 20.9685 6.66843C18.5309 6.66962 16.4719 7.63672 15.0519 9.41974C15.0401 9.17352 15.0282 8.92968 15.0164 8.67632L13.8331 7.18947C13.5254 7.09313 13.1587 6.99552 12.7208 6.92891C12.283 6.84684 11.9398 6.80878 11.644 6.78023C11.3482 6.7493 11.0169 6.72438 10.6856 6.70654C10.4608 6.69346 10.2596 6.66843 9.95194 6.66843C9.19462 6.66843 8.37814 6.75406 7.58532 6.92891C6.70968 7.10971 5.91686 7.47733 5.21871 7.9329C4.44956 8.43485 3.75137 9.13664 3.25438 9.97759C2.68639 10.9553 2.50889 12.077 2.50889 13.2105C2.52072 14.2216 2.68635 15.1696 3.06501 16.0355V16.0737C3.39633 16.7957 3.83413 17.4653 4.36662 18.0434C4.82811 18.5501 5.34883 19.0128 5.91682 19.4184H5.95235C6.24818 19.6158 6.55584 19.843 6.83983 20.05C6.74517 20.0286 6.62684 20.0001 6.54401 19.9763H6.50847C6.16531 19.8776 5.88136 19.7907 5.65653 19.7158C5.45536 19.6361 5.30146 19.585 5.1358 19.4934L2.73379 20.7197C2.72196 20.7959 2.65082 21.142 2.59165 21.575L2.55626 21.6487C2.52077 22.0281 2.50885 22.3279 2.47335 22.6526C2.44969 23.063 2.42609 23.44 2.40243 23.7302V23.8052C2.3906 24.1252 2.36689 24.432 2.36689 24.771C2.36689 25.1398 2.36693 25.5074 2.40243 25.8868L2.43796 25.9605C2.4853 26.2341 2.50882 26.5708 2.59165 26.9276L3.36083 27.9684C3.78682 28.2194 4.22465 28.3906 4.69798 28.525L4.76905 28.5631C5.1832 28.6619 5.59729 28.7213 6.02328 28.7855C6.33094 28.8414 6.62676 28.8605 6.91076 28.8974C5.72745 28.9759 4.56789 29.1067 3.44375 29.2684L2.03553 30.979C2.11837 33.0332 2.15386 35.3847 2.17753 38.0408V38.0789C2.22486 40.7362 2.26044 43.4708 2.26044 46.3671C2.26044 47.3889 2.26044 48.3869 2.26044 49.3408C2.26044 50.2793 2.23674 51.219 2.2249 52.1658V53.3553L2.17753 55.0658C2.17753 56.0031 2.1658 56.988 2.14214 58.0026L3.28991 59.3777L2 60.9382C2.04733 62.0075 2.05923 63.2481 2.07107 64.6553V64.6934C2.09473 66.097 2.1066 67.5469 2.1066 69.0789C2.1066 69.6202 2.1066 70.1341 2.1066 70.6408C2.1066 71.0916 2.0829 71.5924 2.07107 72.1276V73.6882C2.07107 74.221 2.0829 74.7182 2.07107 75.2119L3.5502 76.8855C4.26019 76.9664 4.92284 77.0805 5.62099 77.1079C6.23631 77.1317 6.70957 77.146 7.02906 77.1448C8.41353 77.1448 9.66787 76.8772 10.7565 76.4395C11.7742 76.0315 12.6144 75.4153 13.348 74.6553C13.3717 74.7587 13.3953 74.8456 13.419 74.9526C13.5018 75.2892 13.5729 75.7139 13.6794 76.179L13.7148 76.2158L13.8686 76.7737L15.7856 78L20.8146 76.9224H20.8975H23.6664L25.3349 75.175C25.3231 74.9466 25.3112 74.6707 25.2994 74.2829C25.2876 73.882 25.2639 73.4288 25.252 72.9447V71.3461V71.2724C25.252 71.2605 25.252 71.2474 25.252 71.2355H26.2224C26.2224 71.7506 26.2224 72.2763 26.2224 72.7224C26.2224 73.2886 26.1987 73.7964 26.1751 74.2829V74.3198C26.1751 74.7896 26.1869 75.1132 26.1751 75.1382L27.8436 76.9224H30.7663L32.4348 75.175C32.423 74.9478 32.3993 74.6707 32.3993 74.2829C32.3874 73.8809 32.3637 73.4288 32.3519 72.9447V71.3842V71.2724C32.3519 71.2605 32.3519 71.2474 32.3519 71.2355H33.3223C33.3223 71.8172 33.3223 72.3643 33.3223 72.871C33.3223 73.348 33.2867 73.8024 33.2749 74.2461V74.2829C33.2749 74.7266 33.2867 75.0453 33.2749 75.175L34.9434 76.9224C35.4167 76.9224 35.9255 76.9224 36.5408 76.9224C37.1562 76.9224 37.7714 76.9224 38.3867 76.9224C38.9547 76.9343 39.5228 76.958 40.0908 76.9592C40.6114 76.9711 41.0255 76.9854 41.345 76.9961L41.8184 76.55L42.1971 76.9224H45.2618L46.9303 75.1382C46.9185 74.9836 46.8948 74.8444 46.8829 74.6921L47.4391 75.9184L48.9656 76.9224H52.0658L52.2552 76.5882L52.5864 76.9224C53.0479 76.9224 53.5687 76.9224 54.1722 76.9224C54.7993 76.9224 55.4146 76.9224 56.0181 76.9224C56.5979 76.9343 57.1541 76.958 57.7221 76.9592C58.2546 76.9711 58.6568 76.9854 58.9763 76.9961L59.4615 76.55L59.8284 76.9224H62.2304L63.8989 75.25V74.6553L64.455 75.9184L65.9697 76.9224H69.3658L70.7029 75.5842L71.9927 76.9224H74.951L76.6195 75.25C76.6195 74.9562 76.5958 74.7813 76.584 74.6553V74.5434C76.584 74.3638 76.584 74.1711 76.584 73.9118C76.584 73.5942 76.584 73.2041 76.584 72.7224C76.584 72.2275 76.584 71.5519 76.584 70.7514C76.584 69.5274 76.6077 68.3795 76.6195 67.2947C76.6195 66.7678 76.6195 66.2826 76.6195 65.7711H77.0218L78.6903 64.0987V60.8276L77.0218 59.154H74.0281L75.1404 58.0395C75.1404 57.6386 75.1285 57.2722 75.1048 56.9237V56.8131C75.1048 56.448 75.1048 56.0079 75.1048 55.475C75.1048 54.8755 75.1048 54.1177 75.1048 53.2066C75.1048 52.2741 75.1048 51.0739 75.1048 49.5645C75.1048 47.2177 75.1167 45.0374 75.1404 43.0224C75.1522 41.5284 75.1522 40.0772 75.1759 38.6355H77.365L79.0216 36.9631V30.7934L77.365 29.1198H76.655L76.8442 28.7855H76.9509L78.5838 26.8158L75.2823 8.34207L73.6612 6.96579H68.1116L66.4903 8.34207L66.0052 11.0553L65.8986 9.9026L65.5674 7.44996L63.7925 6Z" stroke="url(#paint0_linear_2076_1486)" stroke-width="2.36662" mask="url(#path-1-outside-1_2076_1486)"/>
<path d="M4.36661 61.1726C5.03405 61.0784 5.67221 61.0137 6.28111 60.9784C6.89 60.9313 7.41107 60.9078 7.84432 60.9078C8.87475 60.9078 9.82322 61.049 10.6897 61.3315C11.5562 61.614 12.3173 62.1201 12.9731 62.8499C13.5702 63.5326 14.0152 64.3624 14.3079 65.3393C14.6007 66.3045 14.747 67.3462 14.747 68.4644C14.747 69.5591 14.6065 70.5537 14.3255 71.4482C14.0445 72.3428 13.6112 73.1079 13.0258 73.7435C12.452 74.3791 11.726 74.8734 10.8478 75.2265C9.96959 75.5797 8.9333 75.7562 7.73893 75.7562C7.46962 75.7562 7.03051 75.7444 6.42162 75.7209C5.82444 75.6974 5.16285 75.6444 4.43686 75.562C4.44857 75.0206 4.45443 74.4968 4.45443 73.9906C4.46614 73.4727 4.47199 72.9666 4.47199 72.4723C4.4837 71.9661 4.48956 71.46 4.48956 70.9539C4.48956 70.4477 4.48956 69.9239 4.48956 69.3825C4.48956 67.8406 4.47785 66.3634 4.45443 64.9509C4.44272 63.5385 4.41345 62.279 4.36661 61.1726ZM7.77406 63.8386C7.65697 63.8386 7.54573 63.8445 7.44034 63.8563C7.34667 63.868 7.25299 63.8798 7.15932 63.8916C7.14761 64.4448 7.14175 64.998 7.14175 65.5512C7.14175 66.0927 7.14175 66.64 7.14175 67.1932C7.14175 67.4639 7.14175 67.7523 7.14175 68.0583C7.15346 68.3644 7.15932 68.6822 7.15932 69.0117C7.17102 69.3295 7.18273 69.6532 7.19444 69.9828C7.20615 70.3006 7.21201 70.6007 7.21201 70.8832C7.31739 70.9068 7.42278 70.9244 7.52816 70.9362C7.63355 70.9362 7.72722 70.9362 7.80919 70.9362C8.24244 70.9362 8.64056 70.842 9.00356 70.6537C9.37826 70.4654 9.70027 70.2123 9.96959 69.8945C10.2506 69.5649 10.4672 69.1824 10.6195 68.7469C10.7717 68.3114 10.8478 67.8465 10.8478 67.3521C10.8478 66.9872 10.7951 66.5988 10.6897 66.1868C10.596 65.7631 10.4263 65.3805 10.1804 65.0392C9.94617 64.6978 9.63001 64.4154 9.23189 64.1917C8.84548 63.9563 8.35954 63.8386 7.77406 63.8386Z" fill="white"/>
<path d="M21.4522 75.562C21.4639 75.3737 21.4697 75.0559 21.4697 74.6086C21.4815 74.1495 21.4873 73.614 21.4873 73.0019C21.4873 72.3781 21.4873 71.6954 21.4873 70.9539C21.4873 70.2123 21.4873 69.4531 21.4873 68.6763C21.4873 67.8994 21.4873 67.1285 21.4873 66.3634C21.4873 65.5865 21.4873 64.8626 21.4873 64.1917C21.4873 63.5208 21.4815 62.9205 21.4697 62.3908C21.4697 61.8612 21.4639 61.4433 21.4522 61.1373C21.9088 61.1373 22.4124 61.1373 22.9627 61.1373C23.513 61.1255 24.0751 61.1196 24.6489 61.1196C25.2226 61.1079 25.7847 61.0961 26.335 61.0843C26.8854 61.0725 27.4006 61.0608 27.8807 61.049C27.8924 61.2256 27.8982 61.3962 27.8982 61.561C27.8982 61.7258 27.8982 61.8906 27.8982 62.0554C27.8982 62.3967 27.8924 62.7498 27.8807 63.1147C27.869 63.4796 27.8514 63.8445 27.828 64.2094H24.2976V66.8577H27.2308V69.8592H24.2976C24.2976 70.4477 24.2976 71.0304 24.2976 71.6071C24.3093 72.1839 24.3151 72.7253 24.3151 73.2314C24.3269 73.7376 24.3386 74.1966 24.3503 74.6086C24.362 75.0088 24.3737 75.3266 24.3854 75.562H21.4522Z" fill="white"/>
<path d="M28.5533 75.562C28.565 75.3737 28.5709 75.0559 28.5709 74.6086C28.5826 74.1495 28.5885 73.614 28.5885 73.0019C28.5885 72.3781 28.5885 71.6954 28.5885 70.9539C28.5885 70.2123 28.5885 69.4531 28.5885 68.6763C28.5885 67.8994 28.5885 67.1285 28.5885 66.3634C28.5885 65.5865 28.5885 64.8626 28.5885 64.1917C28.5885 63.5208 28.5826 62.9205 28.5709 62.3908C28.5709 61.8612 28.565 61.4433 28.5533 61.1373C29.01 61.1373 29.5135 61.1373 30.0639 61.1373C30.6142 61.1255 31.1763 61.1196 31.75 61.1196C32.3238 61.1079 32.8858 61.0961 33.4362 61.0843C33.9865 61.0725 34.5017 61.0608 34.9818 61.049C34.9935 61.2256 34.9994 61.3962 34.9994 61.561C34.9994 61.7258 34.9994 61.8906 34.9994 62.0554C34.9994 62.3967 34.9935 62.7498 34.9818 63.1147C34.9701 63.4796 34.9526 63.8445 34.9291 64.2094H31.3987V66.8577H34.332V69.8592H31.3987C31.3987 70.4477 31.3987 71.0304 31.3987 71.6071C31.4104 72.1839 31.4163 72.7253 31.4163 73.2314C31.428 73.7376 31.4397 74.1966 31.4514 74.6086C31.4631 75.0088 31.4748 75.3266 31.4866 75.562H28.5533Z" fill="white"/>
<path d="M42.1532 75.615C41.8254 75.6032 41.3921 75.5914 40.8535 75.5797C40.3148 75.5797 39.7352 75.5738 39.1146 75.562C38.5057 75.562 37.891 75.562 37.2704 75.562C36.6615 75.562 36.1229 75.562 35.6545 75.562C35.6662 75.3148 35.672 74.9852 35.672 74.5733C35.6838 74.1613 35.6896 73.6905 35.6896 73.1608C35.6896 72.6312 35.6896 72.0603 35.6896 71.4482C35.6896 70.8244 35.6896 70.1829 35.6896 69.5237C35.6896 68.6292 35.6838 67.7346 35.672 66.8401C35.672 65.9455 35.672 65.1157 35.672 64.3506C35.672 63.5738 35.6662 62.9028 35.6545 62.3379C35.6545 61.7729 35.6545 61.3727 35.6545 61.1373C36.1112 61.1373 36.6147 61.1373 37.165 61.1373C37.7153 61.1373 38.2774 61.1373 38.8512 61.1373C39.4249 61.1255 39.987 61.1137 40.5373 61.102C41.0877 61.0902 41.6029 61.0784 42.083 61.0667C42.083 61.2197 42.083 61.355 42.083 61.4727C42.0947 61.5787 42.1005 61.7317 42.1005 61.9318C42.1005 62.073 42.0947 62.2437 42.083 62.4438C42.083 62.6321 42.0771 62.8322 42.0654 63.0441C42.0654 63.2442 42.0596 63.4502 42.0479 63.662C42.0479 63.8621 42.042 64.0505 42.0303 64.227H38.4999V66.2751H41.5736V68.9058H38.4999V70.8832H42.083C42.0947 71.154 42.1064 71.4306 42.1181 71.7131C42.1298 71.9955 42.1357 72.3133 42.1357 72.6665C42.1474 73.0196 42.1532 73.4374 42.1532 73.92C42.1532 74.3908 42.1532 74.9558 42.1532 75.615Z" fill="white"/>
<path d="M42.9267 75.562C42.9619 74.4438 42.9853 73.3315 42.997 72.2251C43.0087 71.1069 43.0146 70.0475 43.0146 69.047C43.0146 67.6228 43.0029 66.2692 42.9794 64.9862C42.9677 63.7032 42.9502 62.4144 42.9267 61.1196C43.5005 61.0608 44.0743 61.0137 44.648 60.9784C45.2335 60.9313 45.8248 60.9078 46.422 60.9078C47.2768 60.9078 48.0789 60.9725 48.8283 61.102C49.5777 61.2197 50.2276 61.4492 50.7779 61.7905C51.3283 62.1201 51.7615 62.5792 52.0777 63.1677C52.4056 63.7562 52.5695 64.5154 52.5695 65.4453C52.5695 66.5988 52.3294 67.5051 51.8494 68.1643C51.381 68.8234 50.7428 69.3178 49.9349 69.6473L52.7978 75.562H49.6714L47.3354 70.177C46.8553 70.2123 46.3576 70.23 45.8424 70.23C45.8424 71.1363 45.8483 72.025 45.86 72.896C45.8717 73.767 45.9068 74.6557 45.9654 75.562H42.9267ZM45.8424 67.5463C46.2054 67.5816 46.5391 67.5993 46.8436 67.5993C47.6398 67.5993 48.2019 67.4521 48.5297 67.1579C48.8693 66.8518 49.0391 66.3987 49.0391 65.7984C49.0391 65.4335 48.9864 65.1392 48.881 64.9156C48.7873 64.692 48.6527 64.5154 48.477 64.3859C48.3131 64.2565 48.114 64.1682 47.8798 64.1211C47.6574 64.074 47.4173 64.0505 47.1597 64.0505C46.9724 64.0505 46.7616 64.0622 46.5274 64.0858C46.3049 64.0976 46.0766 64.1211 45.8424 64.1564V67.5463Z" fill="white"/>
<path d="M59.786 75.615C59.4582 75.6032 59.0249 75.5914 58.4863 75.5797C57.9477 75.5797 57.368 75.5738 56.7474 75.562C56.1385 75.562 55.5238 75.562 54.9032 75.562C54.2943 75.562 53.7557 75.562 53.2873 75.562C53.299 75.3148 53.3049 74.9852 53.3049 74.5733C53.3166 74.1613 53.3224 73.6905 53.3224 73.1608C53.3224 72.6312 53.3224 72.0603 53.3224 71.4482C53.3224 70.8244 53.3224 70.1829 53.3224 69.5237C53.3224 68.6292 53.3166 67.7346 53.3049 66.8401C53.3049 65.9455 53.3049 65.1157 53.3049 64.3506C53.3049 63.5738 53.299 62.9028 53.2873 62.3379C53.2873 61.7729 53.2873 61.3727 53.2873 61.1373C53.744 61.1373 54.2475 61.1373 54.7978 61.1373C55.3482 61.1373 55.9102 61.1373 56.484 61.1373C57.0577 61.1255 57.6198 61.1137 58.1701 61.102C58.7205 61.0902 59.2357 61.0784 59.7158 61.0667C59.7158 61.2197 59.7158 61.355 59.7158 61.4727C59.7275 61.5787 59.7334 61.7317 59.7334 61.9318C59.7334 62.073 59.7275 62.2437 59.7158 62.4438C59.7158 62.6321 59.7099 62.8322 59.6982 63.0441C59.6982 63.2442 59.6924 63.4502 59.6807 63.662C59.6807 63.8621 59.6748 64.0505 59.6631 64.227H56.1327V66.2751H59.2064V68.9058H56.1327V70.8832H59.7158C59.7275 71.154 59.7392 71.4306 59.7509 71.7131C59.7626 71.9955 59.7685 72.3133 59.7685 72.6665C59.7802 73.0196 59.786 73.4374 59.786 73.92C59.786 74.3908 59.786 74.9558 59.786 75.615Z" fill="white"/>
<path d="M67.5677 61.1196H70.0794C70.0442 63.5208 70.0267 65.9279 70.0267 68.3408C70.0267 70.7538 70.0442 73.1608 70.0794 75.562H66.6895L62.9659 66.9284V75.562H60.5596C60.583 74.3496 60.6005 73.1491 60.6122 71.9602C60.624 70.7596 60.6298 69.5532 60.6298 68.3408C60.6298 67.1285 60.624 65.9279 60.6122 64.739C60.6005 63.5385 60.583 62.332 60.5596 61.1196H64.1075L67.5677 69.7356V61.1196Z" fill="white"/>
<path d="M77.7317 64.3859H75.7118C75.6884 65.4335 75.6708 66.4987 75.6591 67.5816C75.6474 68.6527 75.6416 69.8121 75.6416 71.0598C75.6416 71.8602 75.6416 72.5076 75.6416 73.0019C75.6416 73.4845 75.6416 73.8847 75.6416 74.2025C75.6416 74.5085 75.6416 74.7616 75.6416 74.9617C75.6533 75.15 75.6591 75.3501 75.6591 75.562H72.7084C72.7201 75.0441 72.7318 74.5085 72.7435 73.9553C72.7552 73.3903 72.761 72.7842 72.761 72.1368C72.7728 71.4776 72.7786 70.7714 72.7786 70.0181C72.7903 69.253 72.7962 68.4114 72.7962 67.4933C72.7962 66.8224 72.7962 66.2398 72.7962 65.7454C72.7962 65.2511 72.7903 64.7979 72.7786 64.3859H70.7587V61.1196H77.7317V64.3859Z" fill="white"/>
<path d="M16.9237 70.7951L16.3573 67.9921C16.2081 67.2539 16.0753 66.6264 15.9589 66.1097C15.854 65.5906 15.7572 65.1119 15.6686 64.6736L14.3949 64.9337C14.3298 64.6707 14.2659 64.4135 14.2031 64.1621C14.1404 63.9107 14.0822 63.6523 14.0286 63.387C13.9749 63.1217 13.9271 62.8552 13.8849 62.5876C13.8428 62.32 13.8018 62.0581 13.762 61.802L19.0635 60.7193C19.1285 60.9823 19.1879 61.2464 19.2415 61.5117C19.2928 61.7655 19.3453 62.025 19.3989 62.2903C19.4525 62.5556 19.505 62.8152 19.5562 63.0689C19.6075 63.3227 19.6542 63.5834 19.6964 63.851L18.4399 64.1076C18.5731 64.8852 18.7098 65.65 18.8498 66.4021C19.0013 67.1518 19.1704 67.9881 19.3569 68.9109L19.6261 70.2432L20.9343 69.976C21.0297 70.389 21.1182 70.7973 21.1998 71.201C21.2814 71.6047 21.3641 72.0142 21.448 72.4295C21.5296 72.8332 21.6124 73.2427 21.6963 73.6579C21.7779 74.0616 21.8538 74.4665 21.9239 74.8726L16.6224 75.9552C16.5293 75.5539 16.4363 75.1525 16.3432 74.7511C16.2478 74.3382 16.1593 73.9299 16.0777 73.5262C15.9938 73.1109 15.9168 72.7002 15.8467 72.2942C15.7765 71.8881 15.7052 71.4763 15.6328 71.0587L16.9237 70.7951Z" fill="white"/>
<path d="M4.88575 13.5115C4.88575 12.5473 5.06561 11.7563 5.42534 11.1385C5.80005 10.5057 6.2647 10.0085 6.81928 9.64694C7.38884 9.27028 8.01087 9.01414 8.68535 8.87854C9.37483 8.72788 10.0343 8.65254 10.6638 8.65254C10.8437 8.65254 11.0685 8.66008 11.3383 8.67514C11.6231 8.69021 11.9154 8.71281 12.2152 8.74294C12.5299 8.77308 12.8447 8.81828 13.1594 8.87854C13.4892 8.92374 13.7965 8.99154 14.0812 9.08194C14.1112 9.47368 14.1337 9.84281 14.1487 10.1893C14.1637 10.5208 14.1712 10.905 14.1712 11.3419C14.1712 11.7789 14.1637 12.2007 14.1487 12.6075C14.1337 12.9993 14.1112 13.3759 14.0812 13.7375C13.9613 13.7225 13.804 13.6999 13.6091 13.6697C13.4292 13.6396 13.2344 13.617 13.0245 13.6019C12.8297 13.5869 12.6273 13.5718 12.4175 13.5567C12.2227 13.5417 12.0353 13.5341 11.8554 13.5341C11.136 13.5341 10.6114 13.6471 10.2816 13.8731C9.95189 14.0991 9.78701 14.408 9.78701 14.7997C9.78701 15.0257 9.83947 15.2442 9.9444 15.4551C10.0493 15.651 10.1842 15.8393 10.3491 16.0201C10.5289 16.2009 10.7238 16.3742 10.9336 16.5399C11.1585 16.7057 11.3833 16.8639 11.6081 17.0145C11.9679 17.2707 12.3276 17.5569 12.6873 17.8733C13.062 18.1747 13.3993 18.5438 13.699 18.9807C13.9988 19.4026 14.2461 19.8998 14.441 20.4723C14.6358 21.0298 14.7332 21.6777 14.7332 22.4159C14.7332 23.3802 14.5684 24.1938 14.2386 24.8568C13.9089 25.5197 13.4817 26.0621 12.9571 26.484C12.4475 26.8908 11.8704 27.1921 11.2259 27.388C10.5964 27.5688 9.96688 27.6592 9.33736 27.6592C9.05257 27.6592 8.70034 27.6366 8.28066 27.5914C7.87597 27.5612 7.46379 27.5085 7.04411 27.4332C6.62443 27.3729 6.22723 27.2976 5.85251 27.2072C5.4778 27.1017 5.17803 26.9812 4.9532 26.8456C4.89325 26.5744 4.84079 26.2956 4.79582 26.0094C4.76584 25.7231 4.75085 25.4067 4.75085 25.0602C4.75085 24.8191 4.75835 24.5253 4.77334 24.1788C4.80331 23.8322 4.83329 23.4782 4.86327 23.1166C4.89325 22.755 4.92322 22.4084 4.9532 22.077C4.99817 21.7455 5.03564 21.4668 5.06561 21.2408C5.23049 21.3312 5.47031 21.4366 5.78507 21.5572C6.09983 21.6626 6.43707 21.7681 6.79679 21.8736C7.17151 21.979 7.54622 22.0694 7.92094 22.1447C8.29565 22.2201 8.6254 22.2578 8.91018 22.2578C9.38982 22.2578 9.74954 22.1598 9.98936 21.964C10.2292 21.753 10.3491 21.4743 10.3491 21.1277C10.3491 20.7511 10.2142 20.4196 9.9444 20.1333C9.6746 19.832 9.33736 19.5382 8.93267 19.2519C8.52797 18.9657 8.08581 18.6643 7.60618 18.3479C7.14153 18.0165 6.70686 17.6323 6.30217 17.1953C5.89748 16.7584 5.56024 16.2461 5.29044 15.6585C5.02065 15.0559 4.88575 14.3402 4.88575 13.5115Z" fill="url(#paint1_linear_2076_1486)"/>
<path d="M21.6796 8.65254C23.9129 8.65254 25.5616 9.45108 26.6258 11.0481C27.69 12.6452 28.2221 14.9655 28.2221 18.0089C28.2221 21.0976 27.6975 23.4782 26.6483 25.1506C25.6141 26.823 23.9578 27.6592 21.6796 27.6592C20.5554 27.6592 19.5812 27.4482 18.7568 27.0264C17.9324 26.5894 17.2504 25.9642 16.7109 25.1506C16.1713 24.3219 15.7741 23.3124 15.5193 22.1222C15.2645 20.9168 15.1371 19.5457 15.1371 18.0089C15.1371 14.9203 15.6692 12.5925 16.7333 11.0255C17.7975 9.44354 19.4463 8.65254 21.6796 8.65254ZM21.6796 21.8284C22.1592 21.8284 22.5789 21.7229 22.9386 21.512C23.3133 21.2859 23.6206 20.9846 23.8604 20.6079C24.1002 20.2162 24.2801 19.7567 24.4 19.2293C24.5199 18.6869 24.5799 18.0918 24.5799 17.4439C24.5799 16.7961 24.5199 16.2009 24.4 15.6585C24.2801 15.1011 24.1002 14.6189 23.8604 14.2121C23.6206 13.8053 23.3133 13.4889 22.9386 13.2629C22.5789 13.0369 22.1592 12.9239 21.6796 12.9239C21.1999 12.9239 20.7803 13.0445 20.4205 13.2855C20.0758 13.5115 19.776 13.8279 19.5212 14.2347C19.2814 14.6415 19.1015 15.1237 18.9816 15.6811C18.8617 16.2235 18.8018 16.8111 18.8018 17.4439C18.8018 18.0918 18.8617 18.6869 18.9816 19.2293C19.1015 19.7567 19.2814 20.2162 19.5212 20.6079C19.776 20.9846 20.0758 21.2859 20.4205 21.512C20.7803 21.7229 21.1999 21.8284 21.6796 21.8284Z" fill="url(#paint2_linear_2076_1486)"/>
<path d="M40.1694 16.0879L37.2691 26.6196H35.1782L32.4578 16.3817C32.4728 18.2199 32.5028 20.0731 32.5477 21.9414C32.6077 23.8096 32.6527 25.6327 32.6826 27.4106H29.1304C29.1603 25.8587 29.1828 24.3219 29.1978 22.8002C29.2128 21.2634 29.2203 19.719 29.2203 18.1671C29.2203 16.6153 29.2128 15.0785 29.1978 13.5567C29.1828 12.0199 29.1603 10.4756 29.1304 8.92374H33.9417L36.3249 19.5231L39.0003 8.92374H43.5419C43.4969 11.9973 43.4744 15.0785 43.4744 18.1671C43.4744 21.2558 43.4969 24.337 43.5419 27.4106H39.9446L40.1694 16.0879Z" fill="url(#paint3_linear_2076_1486)"/>
<path d="M53.7556 8.92374H56.9706C56.9257 11.9973 56.9032 15.0785 56.9032 18.1671C56.9032 21.2558 56.9257 24.337 56.9706 27.4106H52.6314L47.8651 16.3591V27.4106H44.7849C44.8149 25.8587 44.8374 24.3219 44.8524 22.8002C44.8674 21.2634 44.8749 19.719 44.8749 18.1671C44.8749 16.6153 44.8674 15.0785 44.8524 13.5567C44.8374 12.0199 44.8149 10.4756 44.7849 8.92374H49.3265L53.7556 19.9525V8.92374Z" fill="url(#paint4_linear_2076_1486)"/>
<path d="M65.495 27.4106L68.8224 8.92374H74.3757L77.6807 27.4106H73.8811L73.319 23.7042H69.8566L69.3171 27.4106H65.495ZM70.4637 19.6587H72.712L71.5878 12.2007L70.4637 19.6587Z" fill="url(#paint5_linear_2076_1486)"/>
<path d="M60.1005 21.1717L59.7488 17.5276C59.6561 16.5678 59.5698 15.7512 59.4898 15.0779C59.4246 14.403 59.3646 13.7807 59.3096 13.2108L57.6536 13.3723C57.6054 13.0289 57.5579 12.6929 57.5112 12.3644C57.4644 12.036 57.4244 11.6993 57.3911 11.3544C57.3578 11.0095 57.332 10.6638 57.3136 10.3175C57.2952 9.97108 57.2776 9.63221 57.2607 9.30084L64.153 8.62868C64.2012 8.97214 64.242 9.31633 64.2753 9.66124C64.3071 9.99116 64.3397 10.3286 64.373 10.6735C64.4062 11.0184 64.4388 11.3558 64.4707 11.6857C64.5025 12.0157 64.5276 12.3538 64.546 12.7002L62.9124 12.8595C62.9795 13.8671 63.0527 14.8591 63.1318 15.8353C63.2259 16.81 63.3308 17.8973 63.4466 19.097L63.6138 20.829L65.3145 20.6632C65.3815 21.2016 65.4404 21.7332 65.491 22.2581C65.5417 22.783 65.5931 23.3153 65.6452 23.8552C65.6958 24.3801 65.7472 24.9124 65.7993 25.4523C65.85 25.9772 65.8932 26.5028 65.9289 27.0291L59.0365 27.7013C58.971 27.1778 58.9054 26.6544 58.8398 26.131C58.7728 25.5926 58.714 25.061 58.6633 24.5361C58.6112 23.9962 58.5673 23.4631 58.5315 22.9368C58.4958 22.4105 58.4593 21.8767 58.4221 21.3353L60.1005 21.1717Z" fill="#CB19EA"/>
<path d="M9.77507 39.9191C10.0843 39.9635 10.3383 39.9857 10.5371 39.9857C10.7359 39.9857 10.9458 39.9857 11.1666 39.9857C12.3594 39.9857 13.3092 39.7636 14.0161 39.3196C14.7229 38.8755 15.0763 38.2871 15.0763 37.5544C15.0763 36.8883 14.7671 36.3776 14.1486 36.0223C13.5522 35.6671 12.6687 35.4895 11.498 35.4895C11.1225 35.4895 10.7801 35.5117 10.4709 35.5561C10.1837 35.5783 9.95178 35.6227 9.77507 35.6893V39.9191ZM4.57325 58.3369C4.59534 57.3155 4.60638 56.3275 4.60638 55.3727C4.62847 54.3958 4.63952 53.441 4.63952 52.5085C4.6616 51.5537 4.67265 50.599 4.67265 49.6442C4.67265 48.6894 4.67265 47.7014 4.67265 46.68C4.67265 43.7714 4.65056 40.9848 4.60638 38.3204C4.58429 35.656 4.52907 33.2802 4.44072 31.1931C5.67767 31.0154 6.94776 30.8933 8.25097 30.8267C9.55419 30.7379 10.7249 30.6935 11.763 30.6935C17.9036 30.6935 20.9739 32.4809 20.9739 36.0556C20.9739 37.4545 20.5653 38.6535 19.748 39.6526C18.9528 40.6296 17.8926 41.2291 16.5673 41.4511C18.7098 41.8508 20.2781 42.6834 21.2721 43.949C22.2661 45.1924 22.7631 46.9576 22.7631 49.2445C22.7631 52.464 21.7691 54.8509 19.7811 56.4052C17.7932 57.9372 14.7008 58.7032 10.504 58.7032C9.68672 58.7032 8.77005 58.6699 7.75398 58.6033C6.76 58.5589 5.69976 58.4701 4.57325 58.3369ZM9.77507 49.3778C9.99596 49.4444 10.3273 49.4999 10.7691 49.5443C11.2108 49.5887 11.6415 49.6109 12.0612 49.6109C13.4528 49.6109 14.502 49.3889 15.2088 48.9448C15.9377 48.5007 16.3022 47.8679 16.3022 47.0464C16.3022 46.2027 15.9157 45.5588 15.1426 45.1147C14.3916 44.6706 13.3424 44.4486 11.995 44.4486C11.7078 44.4486 11.3875 44.4597 11.0341 44.4819C10.7028 44.5041 10.2831 44.5374 9.77507 44.5818V49.3778Z" fill="white"/>
<path d="M41.7475 31.0599C41.7917 34.3016 41.858 37.1103 41.9463 39.4861C42.0347 41.8397 42.0789 43.8491 42.0789 45.5143C42.0789 46.6023 42.0457 47.6903 41.9795 48.7783C41.9132 49.844 41.7696 50.8654 41.5487 51.8424C41.3279 52.8193 41.0076 53.7296 40.5879 54.5734C40.1903 55.3949 39.6491 56.1165 38.9644 56.7382C38.3018 57.3599 37.4734 57.8484 36.4795 58.2037C35.4855 58.5367 34.3037 58.7032 32.9343 58.7032C31.5206 58.7032 30.3057 58.5256 29.2897 58.1704C28.2957 57.7929 27.4563 57.2933 26.7716 56.6716C26.0869 56.0499 25.5346 55.3172 25.115 54.4735C24.7174 53.6075 24.4081 52.6861 24.1872 51.7091C23.9664 50.7322 23.8228 49.7219 23.7565 48.6783C23.6903 47.6348 23.6571 46.5912 23.6571 45.5477C23.6571 44.7261 23.6682 43.8491 23.6903 42.9165C23.7123 41.984 23.7455 40.9404 23.7897 39.7858C23.8338 38.6313 23.878 37.3435 23.9222 35.9224C23.9885 34.5014 24.0547 32.8916 24.121 31.0932H29.9523C29.8861 33.0915 29.8308 34.79 29.7867 36.1889C29.7425 37.5655 29.6983 38.7201 29.6541 39.6526C29.632 40.5852 29.61 41.329 29.5879 41.8841C29.5879 42.417 29.5768 42.8277 29.5547 43.1164C29.5547 43.405 29.5547 43.6159 29.5547 43.7492C29.5547 43.8602 29.5547 43.949 29.5547 44.0156C29.5547 46.1694 29.7977 47.7902 30.2837 48.8782C30.7696 49.9662 31.6421 50.5101 32.9011 50.5101C34.1823 50.5101 35.0437 49.9217 35.4855 48.745C35.9493 47.5682 36.1813 45.7808 36.1813 43.3828C36.1813 43.2718 36.1813 43.1497 36.1813 43.0164C36.1813 42.861 36.1702 42.6279 36.1481 42.317C36.1481 42.0062 36.1371 41.5954 36.115 41.0847C36.115 40.5519 36.0929 39.8524 36.0487 38.9865C36.0266 38.0984 35.9935 37.0215 35.9493 35.7559C35.9052 34.4681 35.8499 32.9138 35.7837 31.0932L41.7475 31.0599Z" fill="white"/>
<path d="M61.1682 31.0932C61.1019 34.135 61.0467 36.644 61.0025 38.6202C60.9804 40.5963 60.9583 42.2615 60.9362 43.6159C60.9142 44.9482 60.9031 46.0694 60.9031 46.9798C60.9031 47.8901 60.9031 48.8116 60.9031 49.7441L66.1049 49.5443C66.1491 50.277 66.1823 50.9986 66.2043 51.7091C66.2264 52.4196 66.2375 53.1302 66.2375 53.8407C66.2375 54.5734 66.2264 55.3172 66.2043 56.0721C66.1823 56.8048 66.1491 57.5598 66.1049 58.3369H55.4031C55.4694 55.2284 55.5135 52.0422 55.5356 48.7783C55.5798 45.5143 55.6019 42.3281 55.6019 39.2196C55.6019 37.7764 55.6019 36.3776 55.6019 35.0232C55.6019 33.6688 55.5909 32.3588 55.5688 31.0932H61.1682Z" fill="white"/>
<path d="M78.0901 37.2546H74.2799C74.2357 39.2308 74.2026 41.2402 74.1805 43.2829C74.1584 45.3034 74.1474 47.4905 74.1474 49.844C74.1474 51.3539 74.1474 52.5751 74.1474 53.5076C74.1474 54.418 74.1474 55.1729 74.1474 55.7724C74.1474 56.3497 74.1474 56.827 74.1474 57.2045C74.1695 57.5598 74.1805 57.9372 74.1805 58.3369H68.6142C68.6363 57.3599 68.6584 56.3497 68.6805 55.3061C68.7026 54.2403 68.7136 53.0968 68.7136 51.8757C68.7357 50.6323 68.7467 49.3 68.7467 47.879C68.7688 46.4358 68.7799 44.8482 68.7799 43.1164C68.7799 41.8508 68.7799 40.7517 68.7799 39.8191C68.7799 38.8866 68.7688 38.0318 68.7467 37.2546H64.9365V31.0932H78.0901V37.2546Z" fill="white"/>
<path d="M45.4707 48.4943L46.2426 43.1549C46.4459 41.7486 46.6081 40.5495 46.7292 39.5576C46.8722 38.5688 47.004 37.6569 47.1247 36.822L44.6984 36.4675C44.7496 35.959 44.7992 35.4614 44.8472 34.9748C44.8952 34.4882 44.9558 33.9922 45.0289 33.4868C45.1019 32.9815 45.1859 32.4777 45.2808 31.9755C45.3758 31.4733 45.4691 30.9821 45.5608 30.5019L55.6596 31.9772C55.6084 32.4858 55.5463 32.9927 55.4732 33.4981C55.4033 33.9815 55.3318 34.4759 55.2588 34.9812C55.1857 35.4866 55.1142 35.981 55.0443 36.4644C54.9745 36.9478 54.8921 37.4406 54.7971 37.9428L52.4036 37.5931C52.147 39.0589 51.9046 40.5043 51.6763 41.9293C51.4698 43.3576 51.2395 44.9506 50.9853 46.7084L50.6184 49.2463L53.1103 49.6103C53.0178 50.4045 52.916 51.1861 52.8048 51.9552C52.6936 52.7242 52.5809 53.5042 52.4665 54.2953C52.3553 55.0643 52.2426 55.8443 52.1282 56.6354C52.017 57.4044 51.8949 58.1718 51.7619 58.9377L41.6631 57.4624C41.7524 56.6902 41.8417 55.918 41.9311 55.1457C42.0236 54.3515 42.1254 53.5699 42.2366 52.8008C42.3509 52.0098 42.4746 51.2314 42.6077 50.4655C42.7407 49.6997 42.8754 48.9229 43.0116 48.135L45.4707 48.4943Z" fill="white"/>
<path d="M13.7742 14.2209C13.0344 13.0827 11.8834 10.4161 13.1983 8.85605C14.4266 7.39878 14.1678 9.26645 13.9411 10.6214C14.1206 9.94944 14.7307 9.52205 15.0846 9.65948C15.6417 10.1086 14.9024 11.1662 14.6372 11.7366C14.834 11.3667 15.3419 11.1816 15.5869 11.3792C16.181 11.8581 14.8701 13.1052 15.9032 15.0736L13.7742 14.2209Z" fill="url(#paint6_linear_2076_1486)"/>
<path d="M13.7742 14.2209C13.0344 13.0827 11.8834 10.4161 13.1983 8.85605C14.5133 7.29601 14.1239 9.54643 13.8941 10.8991C13.9553 10.0719 14.6841 9.50394 15.0846 9.65948C15.6787 10.1384 14.7985 11.3094 14.5911 11.8434C14.7381 11.4041 15.3193 11.1634 15.5869 11.3792C16.181 11.8581 14.8701 13.1052 15.9032 15.0736" stroke="black" stroke-width="0.476685" stroke-linecap="round" stroke-linejoin="round"/>
<path d="M22.7344 27.7753C21.791 27.7753 20.8684 27.6257 19.9924 27.3308C18.616 26.8667 17.6494 26.1544 17.1956 25.7702C16.2904 25.0052 15.7867 24.2479 15.4185 23.6946C14.3946 22.1569 13.9565 20.7086 13.8161 20.1569C13.6299 19.4285 13.2426 17.9121 13.5634 16.0047C13.7612 14.8292 14.1502 13.9758 14.4079 13.4123C14.7852 12.5844 15.2133 11.646 16.1026 10.7297C17.159 9.64089 18.2628 9.2057 19.236 8.82066C20.8377 8.18827 22.1526 8.09477 22.8582 8.04462C23.2788 8.01487 23.6586 7.99022 24.0609 7.99022C24.8505 7.99022 25.5437 8.09052 26.2435 8.30642C26.7622 8.46621 27.5459 8.70761 28.2981 9.35955C28.4918 9.52785 28.5965 9.64769 28.7071 9.77434C28.8218 9.90609 28.9514 10.0548 29.2157 10.2979C29.6238 10.6728 29.9064 10.8632 30.2056 11.0655C30.3852 11.187 30.5705 11.312 30.7849 11.4794C31.4706 12.0158 32.0458 12.6354 32.404 13.2244C32.9842 14.1764 33.0208 15.0791 33.0939 16.8768C33.1471 18.1807 33.1853 19.1216 32.8379 20.332C32.5661 21.2772 32.1846 21.9589 31.7424 22.7477C31.3942 23.369 31.0343 24.0116 30.391 24.7332C29.667 25.5458 28.9631 26.0346 28.6938 26.208C28.4427 26.3695 27.6781 26.8599 26.1521 27.2492C25.281 27.471 24.0867 27.7753 22.7344 27.7753Z" fill="url(#paint7_linear_2076_1486)"/>
<path d="M24.0609 8.16022C24.7175 8.16022 25.414 8.22822 26.1953 8.46876C26.7455 8.63876 27.4786 8.87251 28.1901 9.48875C28.5716 9.81939 28.5766 9.93924 29.1043 10.4237C29.7734 11.0383 30.1267 11.1785 30.6835 11.6137C30.8672 11.7574 31.7217 12.4254 32.2627 13.3137C32.8196 14.2283 32.8553 15.1131 32.9277 16.8836C32.9809 18.1815 33.0183 19.1004 32.6783 20.2836C32.4123 21.21 32.0333 21.8866 31.5978 22.6635C31.2338 23.3129 30.8863 23.9249 30.268 24.6185C29.5 25.4795 28.7677 25.9598 28.6057 26.0635C28.2275 26.3066 27.4853 26.7341 26.1122 27.0834C25.222 27.3104 24.0659 27.6045 22.7344 27.6045C21.8999 27.6045 20.9956 27.4889 20.0448 27.1684C18.557 26.6669 17.5829 25.8756 17.3019 25.6385C16.4334 24.9032 15.9364 24.1697 15.5565 23.5985C14.4702 21.9674 14.0696 20.4748 13.9773 20.1136C13.777 19.3299 13.4188 17.8671 13.728 16.0336C13.9183 14.904 14.2865 14.0812 14.5591 13.4837C14.9282 12.6745 15.3521 11.7446 16.2214 10.8487C17.2529 9.78624 18.3459 9.35445 19.2967 8.97875C20.8435 8.36762 22.1243 8.26647 22.8707 8.21377C23.2588 8.18657 23.652 8.16022 24.0609 8.16022ZM24.0609 7.82022C23.6528 7.82022 23.2705 7.84487 22.8482 7.87462C22.1334 7.92562 20.8028 8.01997 19.1779 8.66171C18.1888 9.0527 17.0676 9.4947 15.9862 10.609C15.0761 11.5474 14.6414 12.5002 14.2583 13.34C13.9973 13.9129 13.6025 14.7782 13.4005 15.9767C13.073 17.9197 13.467 19.4599 13.6557 20.2003C13.8335 20.8955 14.2807 22.287 15.2814 23.7906C15.6338 24.3201 16.1666 25.1208 17.09 25.9011C17.5529 26.2921 18.5379 27.0188 19.9409 27.4923C20.8335 27.7932 21.7736 27.9453 22.7344 27.9453C24.1066 27.9453 25.3126 27.6385 26.1928 27.4141C27.7446 27.0188 28.5259 26.5174 28.7827 26.3525C29.0578 26.1757 29.7759 25.6759 30.514 24.8488C31.1698 24.1136 31.5338 23.4625 31.8862 22.8335C32.3334 22.0354 32.7199 21.3452 32.9975 20.3805C33.3524 19.1437 33.3141 18.19 33.2601 16.8709C33.1853 15.0434 33.1479 14.1254 32.5453 13.1352C32.1705 12.5198 31.597 11.901 30.8855 11.3451C30.6669 11.1743 30.4782 11.0468 30.2962 10.9244C30.002 10.7263 29.7252 10.5385 29.3263 10.1721C29.0686 9.93499 28.9423 9.78964 28.8301 9.66214C28.7154 9.5304 28.6073 9.4063 28.4045 9.2312C27.6257 8.55716 26.8228 8.30897 26.2909 8.14492C25.5761 7.92307 24.8671 7.82022 24.0609 7.82022Z" fill="black"/>
<path d="M18.3862 17.2401C16.9133 18.7009 14.5735 18.8597 13.7511 18.7479L14.0779 19.9606C14.5935 19.737 16.3168 19.4612 19.0859 20.1469C22.5473 21.0041 23.3942 22.8674 25.6036 25.0662C27.7246 22.1444 31.0043 21.0662 32.3791 20.8922L33.0569 19.2846C32.0258 19.3342 28.7041 19.2376 26.3769 18.4326C24.0497 17.6276 21.6021 14.9667 20.6693 13.7369C20.522 14.2959 19.8592 15.7792 18.3862 17.2401Z" fill="white" stroke="black" stroke-width="0.468018" stroke-linecap="round" stroke-linejoin="round"/>
<path d="M14.2278 14.6742L14.7716 16.3473L16.8211 15.5526L18.6615 15.7199L18.8288 13.6285L18.4524 12.3737L17.3231 11.8717L15.8591 12.2064L14.7716 13.0429L14.2278 14.6742Z" fill="white"/>
<path d="M14.6761 16.3851C14.6869 16.4038 14.7042 16.4182 14.725 16.4248C14.7458 16.4313 14.7681 16.4295 14.7874 16.4198C14.8066 16.41 14.8212 16.393 14.8281 16.3723C14.8351 16.3517 14.8337 16.3292 14.8249 16.3095C14.7533 16.148 14.693 15.9804 14.6428 15.8107C14.1045 14.2982 14.8417 12.5808 16.4175 12.2655C16.443 12.258 16.4681 12.2509 16.493 12.2442C17.2312 12.0228 18.0534 12.1094 18.3766 12.8072C18.7105 13.4737 18.7167 14.3194 18.6553 15.1155C18.6401 15.2928 18.6188 15.4767 18.5914 15.6468C18.5879 15.6681 18.5921 15.6902 18.6039 15.7084C18.6158 15.7267 18.6342 15.7396 18.6553 15.7442C18.6763 15.7489 18.6984 15.745 18.7169 15.7335C18.7354 15.722 18.7486 15.7037 18.7543 15.6829C18.8015 15.5085 18.8405 15.325 18.8731 15.1445C19.0061 14.3319 19.0853 13.4657 18.7251 12.6352C18.5451 12.2252 18.1549 11.8607 17.6946 11.7536C17.2405 11.6391 16.7887 11.7047 16.3764 11.8148C16.3488 11.8224 16.3209 11.8302 16.2928 11.8385C15.4911 12.0625 14.6761 12.5859 14.3461 13.4142C14.0122 14.2315 14.1369 15.1238 14.4353 15.8827C14.5042 16.0557 14.5841 16.2242 14.6761 16.3851Z" fill="black"/>
<path d="M14.4282 16.712C14.4194 16.7301 14.4147 16.7507 14.4174 16.771C14.4201 16.7913 14.4297 16.8094 14.4448 16.8221C14.4598 16.8347 14.4794 16.8409 14.4998 16.84C14.5203 16.8391 14.5397 16.831 14.556 16.8191C14.615 16.7777 14.6757 16.7396 14.7379 16.7023C14.9847 16.5565 15.2373 16.4311 15.4891 16.3046C16.377 15.8628 17.4098 15.7208 18.4391 15.7853C18.5122 15.7898 18.5856 15.7953 18.6606 15.802C18.6818 15.8039 18.7034 15.7985 18.7208 15.7859C18.7383 15.7732 18.7501 15.7545 18.7537 15.7336C18.7573 15.7127 18.7525 15.6911 18.7404 15.6732C18.7283 15.6554 18.7098 15.6431 18.6891 15.6377C18.6145 15.6184 18.541 15.6008 18.4674 15.5846C17.432 15.355 16.2831 15.4119 15.2902 15.9067C15.0087 16.0477 14.7498 16.2483 14.5567 16.5063C14.508 16.5716 14.4647 16.6396 14.4282 16.712Z" fill="black"/>
<circle cx="17.4485" cy="14.2977" r="0.962033" fill="black"/>
<path d="M18.1216 14.4011C18.1152 14.4689 18.0827 14.5256 18.0234 14.5562C17.9645 14.5869 17.8837 14.5891 17.8066 14.5647C17.7295 14.5403 17.6646 14.4921 17.6342 14.4331C17.6033 14.3739 17.6093 14.3089 17.643 14.2497C17.647 14.2458 17.6511 14.2406 17.6551 14.235C17.7251 14.1159 17.7522 13.9724 17.5725 13.8757C17.5634 13.8707 17.5539 13.866 17.5436 13.8614C17.5246 13.8533 17.5081 13.8362 17.4973 13.8163C17.4866 13.7962 17.4824 13.775 17.4862 13.7547C17.4901 13.7345 17.5017 13.7162 17.5191 13.7014C17.5364 13.6868 17.558 13.6769 17.5787 13.6764C17.5934 13.6765 17.6076 13.677 17.6221 13.6779C17.7509 13.6841 17.9119 13.7447 18.0112 13.8844C18.1099 14.0223 18.1405 14.184 18.1288 14.3447C18.1273 14.363 18.1249 14.382 18.1216 14.4011Z" fill="white"/>
<path d="M22.9897 17.592H19.2438C19.1704 18.253 19.4377 19.5574 21.0947 19.4869C22.7517 19.4164 23.0485 18.1942 22.9897 17.592Z" fill="#CE515A"/>
<path d="M19.2438 17.3695C19.2438 17.5178 19.2438 17.6661 19.2438 17.8144C19.408 17.8121 19.5722 17.8098 19.7364 17.8075C20.8208 17.7921 21.9053 17.7768 22.9897 17.7615L22.8209 17.6084C22.9452 18.5588 22.0796 19.3726 21.0893 19.3603C20.2603 19.4598 19.431 18.9264 19.343 18.0704C19.3188 17.9153 19.3121 17.7562 19.3267 17.6012C19.2714 17.595 19.2162 17.5889 19.1609 17.5827C19.14 17.7537 19.1425 17.9256 19.164 18.0958C19.2127 19.0302 20.2055 19.7149 21.1001 19.6136C22.1519 19.679 23.2927 18.7328 23.1585 17.5755C23.1488 17.4893 23.0764 17.4211 22.9897 17.4224C21.9053 17.4071 20.8208 17.3918 19.7364 17.3765C19.5722 17.3741 19.408 17.3718 19.2438 17.3695ZM19.2438 17.8144V17.3695C19.1574 17.3707 19.1692 17.4967 19.1609 17.5827L19.3267 17.6012L19.2438 17.8144Z" fill="black"/>
<path d="M29.953 13.5593C29.6966 12.2262 29.6352 9.32246 31.4411 8.37289C33.128 7.48589 32.1845 9.11837 31.4639 10.288C31.8834 9.73322 32.6096 9.56724 32.8856 9.8279C33.2324 10.4538 32.1491 11.1549 31.6885 11.5833C32.0101 11.3148 32.5503 11.3348 32.7029 11.6101C33.0727 12.2775 31.3885 12.9388 31.6038 15.1514L29.953 13.5593Z" fill="url(#paint8_linear_2076_1486)"/>
<path d="M29.953 13.5593C29.6966 12.2262 29.6352 9.32246 31.4411 8.37289C33.247 7.42333 32.0383 9.36117 31.3158 10.5275C31.6842 9.78438 32.5732 9.53289 32.8856 9.8279C33.2555 10.4954 31.9989 11.2484 31.6055 11.6649C31.9072 11.3133 32.5363 11.3094 32.7029 11.6101C33.0727 12.2775 31.3885 12.9388 31.6038 15.1514" stroke="black" stroke-width="0.476685" stroke-linecap="round" stroke-linejoin="round"/>
<path d="M22.7106 13.8937L23.2094 14.8036L25.4593 14.2485L28.2454 14.0921L28.2864 13.5299L28.1688 11.6202L27.4768 10.5421L26.2364 9.93771L24.3852 9.95676L23.3183 10.4955L22.5718 11.5714L22.7106 13.8937Z" fill="white"/>
<path d="M23.0662 14.8948C23.0787 14.917 23.099 14.9343 23.1235 14.9423C23.1479 14.9503 23.1744 14.9484 23.1972 14.9371C23.2201 14.9258 23.2376 14.9058 23.246 14.8815C23.2545 14.8572 23.2531 14.8306 23.2429 14.8072C23.159 14.6129 23.085 14.4134 23.02 14.2116C22.4477 12.6515 22.6377 10.4645 24.4349 10.264C24.6216 10.226 24.8042 10.196 24.9854 10.1748C25.8974 10.0605 26.8669 10.2024 27.4414 10.8814C28.0219 11.5514 28.1759 12.5478 28.1717 13.4915C28.1703 13.7051 28.1607 13.916 28.1438 14.1305C28.1418 14.156 28.1491 14.1816 28.165 14.2018C28.1809 14.2221 28.2039 14.2353 28.2292 14.2386C28.2545 14.2418 28.2801 14.235 28.3007 14.2195C28.3212 14.204 28.3348 14.1811 28.3394 14.1559C28.3786 13.9397 28.4095 13.7251 28.431 13.5052C28.5192 12.5359 28.4613 11.4491 27.795 10.5881C27.117 9.70647 25.9061 9.52298 24.9242 9.65243C24.7257 9.67572 24.5281 9.7092 24.3281 9.75174C23.4077 9.89828 22.4934 10.6769 22.3649 11.6405C22.2008 12.5793 22.4373 13.4848 22.7768 14.3026C22.8632 14.5052 22.9592 14.7033 23.0662 14.8948Z" fill="black"/>
<path d="M22.8064 14.9538C22.7851 14.9666 22.768 14.9863 22.7597 15.0102C22.7513 15.034 22.7524 15.0598 22.7627 15.0823C22.773 15.1049 22.7919 15.1225 22.8154 15.1317C22.8389 15.141 22.865 15.1409 22.8886 15.1331C22.9802 15.1033 23.0727 15.0777 23.1672 15.0533C24.0217 14.8425 24.893 14.7272 25.7656 14.6249C26.6389 14.526 27.5146 14.4548 28.4056 14.4039C28.5042 14.3983 28.6027 14.3929 28.7029 14.3879C28.7277 14.3866 28.7521 14.3772 28.7706 14.3601C28.7892 14.3429 28.8004 14.3196 28.8018 14.2949C28.8033 14.2702 28.7949 14.2458 28.7785 14.2266C28.7621 14.2073 28.7391 14.1952 28.7145 14.191C28.6145 14.1741 28.5159 14.1586 28.4167 14.1445C27.5206 14.0174 26.6091 13.9999 25.7062 14.1024C24.8039 14.2079 23.9096 14.4182 23.0774 14.8097C22.9851 14.8543 22.8956 14.901 22.8064 14.9538Z" fill="black"/>
<circle cx="24.22" cy="12.9249" r="1.17865" transform="rotate(4.17404 24.22 12.9249)" fill="black"/>
<path d="M25.0332 13.1112C25.0193 13.1934 24.9745 13.2598 24.8993 13.2919C24.8247 13.3242 24.7258 13.3197 24.6337 13.283C24.5417 13.2463 24.4667 13.1816 24.4348 13.1068C24.4023 13.0318 24.4154 12.9528 24.4619 12.8836C24.4671 12.8791 24.4727 12.8731 24.478 12.8666C24.5741 12.7274 24.6201 12.5544 24.4091 12.4202C24.3984 12.4133 24.3872 12.4067 24.3751 12.4001C24.3526 12.3886 24.3339 12.3663 24.3225 12.3409C24.3112 12.3155 24.308 12.2891 24.3145 12.2647C24.321 12.2403 24.3368 12.219 24.3593 12.2025C24.3818 12.1862 24.4091 12.1761 24.4344 12.1773C24.4523 12.1787 24.4697 12.1805 24.4873 12.183C24.6442 12.202 24.8355 12.2904 24.9444 12.4699C25.0527 12.6472 25.0757 12.8475 25.0471 13.0429C25.0435 13.0651 25.0389 13.0881 25.0332 13.1112Z" fill="white"/>
<path d="M68.3385 60.6211L79.2464 33.3579L74.2494 53.6106H81.9362L68.8227 77.3685L74.2683 60.6211H68.3385Z" fill="url(#paint9_linear_2076_1486)" stroke="black" stroke-width="1.18331"/>
<defs>
<linearGradient id="paint0_linear_2076_1486" x1="40.5108" y1="6" x2="40.5108" y2="78" gradientUnits="userSpaceOnUse">
<stop stop-color="#BDFF00"/>
<stop offset="1" stop-color="#00D4FF"/>
</linearGradient>
<linearGradient id="paint1_linear_2076_1486" x1="4.36661" y1="8.37895" x2="77.7791" y2="27.2259" gradientUnits="userSpaceOnUse">
<stop stop-color="#00D4FF"/>
<stop offset="1" stop-color="#FF00D6"/>
</linearGradient>
<linearGradient id="paint2_linear_2076_1486" x1="4.36661" y1="8.37895" x2="77.7791" y2="27.2259" gradientUnits="userSpaceOnUse">
<stop stop-color="#00D4FF"/>
<stop offset="1" stop-color="#FF00D6"/>
</linearGradient>
<linearGradient id="paint3_linear_2076_1486" x1="4.36661" y1="8.37895" x2="77.7791" y2="27.2259" gradientUnits="userSpaceOnUse">
<stop stop-color="#00D4FF"/>
<stop offset="1" stop-color="#FF00D6"/>
</linearGradient>
<linearGradient id="paint4_linear_2076_1486" x1="4.36661" y1="8.37895" x2="77.7791" y2="27.2259" gradientUnits="userSpaceOnUse">
<stop stop-color="#00D4FF"/>
<stop offset="1" stop-color="#FF00D6"/>
</linearGradient>
<linearGradient id="paint5_linear_2076_1486" x1="4.36661" y1="8.37895" x2="77.7791" y2="27.2259" gradientUnits="userSpaceOnUse">
<stop stop-color="#00D4FF"/>
<stop offset="1" stop-color="#FF00D6"/>
</linearGradient>
<linearGradient id="paint6_linear_2076_1486" x1="14.9133" y1="10.0444" x2="14.5338" y2="14.4" gradientUnits="userSpaceOnUse">
<stop stop-color="#49C0EB"/>
<stop offset="1" stop-color="#6C93E0"/>
</linearGradient>
<linearGradient id="paint7_linear_2076_1486" x1="23.2844" y1="7.99022" x2="23.2844" y2="27.7753" gradientUnits="userSpaceOnUse">
<stop stop-color="#40CAED"/>
<stop offset="1" stop-color="#D215C4"/>
</linearGradient>
<linearGradient id="paint8_linear_2076_1486" x1="32.5819" y1="10.1199" x2="30.5891" y2="14.0115" gradientUnits="userSpaceOnUse">
<stop stop-color="#49C0EB"/>
<stop offset="1" stop-color="#6C93E0"/>
</linearGradient>
<linearGradient id="paint9_linear_2076_1486" x1="71.4328" y1="73.446" x2="79.5244" y2="35.0465" gradientUnits="userSpaceOnUse">
<stop stop-color="#FAFF00"/>
<stop offset="1" stop-color="#FF006B"/>
</linearGradient>
</defs>
</svg>
