<svg width="84" height="84" viewBox="0 0 84 84" fill="none" xmlns="http://www.w3.org/2000/svg">
<path d="M40.9674 6.85406C30.6945 6.51129 19.3871 12.7197 16.833 23.7794C16.6391 25.0775 16.5718 26.3914 16.4412 27.6973C16.3643 28.467 16.4986 28.848 16.3629 30.9884C16.3629 31.772 17.2248 29.2645 17.2248 29.2645C16.8974 30.507 16.9676 32.2675 16.9676 34.1037C17.3374 32.0172 18.731 31.4227 19.8106 29.813C20.2024 29.1862 30.8962 22.5843 35.0905 17.5891C37.7138 14.465 40.9674 6.85406 40.9674 6.85406Z" fill="white"/>
<path d="M17.3508 30.6905C18.4154 25.5477 20.2395 19.4755 23.501 15.8412C29.4001 9.26791 39.7727 6.32181 46.9385 7.75171C53.0992 8.98106 57.5086 12.236 60.7904 16.9494C63.494 20.8324 63.9388 25.4638 64.0594 29.7485C64.1073 31.4506 63.8378 33.1469 63.727 34.846C64.5042 33.8012 65.8832 32.2341 67.1068 32.9622C68.7625 33.9473 68.3615 36.4138 68.2704 37.9489C68.2195 38.8067 67.9596 39.6417 67.8825 40.4976C68.0494 42.717 67.4939 44.635 66.719 46.537C66.4019 47.3176 65.7956 48.0883 65.2784 48.7534C64.4846 49.774 64.3966 50.81 62.8404 51.5237C62.4688 51.6942 62.0647 51.2652 61.6769 51.1359C61.5845 52.0778 61.5057 53.0212 61.3999 53.9617C60.3425 60.222 59.9844 65.4583 60.5 69.5001C48.6095 79.074 35.4598 80.7702 22.7807 75.5739C23.0393 73.4499 23.2979 73.2066 23.5565 71.0826C22.91 69.4573 22.317 67.8098 21.6172 66.2068C20.7279 64.1698 19.5928 62.2404 18.7914 60.1673C18.2032 58.6458 17.6417 57.079 17.4616 55.4577C17.1944 53.053 17.3229 50.6148 17.1846 48.1993C17.0823 46.413 16.7858 44.6688 16.7413 42.8801C16.7112 41.6686 17.0738 40.4791 17.24 39.2786C17.5485 36.8088 16.9739 32.7062 17.3508 30.6905Z" fill="#E3B49A"/>
<path d="M42.6729 55.0237C41.9045 55.0001 41.1312 54.8646 40.3676 54.9534C39.4384 55.0616 38.5544 55.4171 37.6389 55.6094C36.5464 55.8389 35.4488 56.0469 34.3457 56.2185C33.4405 56.3594 32.533 56.5622 31.617 56.5465C30.6968 56.5308 29.8013 56.2409 28.8883 56.1248C28.3263 56.0534 27.7611 55.9752 27.1947 55.9843C26.7822 55.9909 26.3792 56.1092 25.9714 56.1717C26.4105 56.609 26.795 57.109 27.2888 57.4836C27.7918 57.8653 28.3306 58.2386 28.9354 58.4207C29.7064 58.6528 30.5299 58.6762 31.3347 58.7018C32.4951 58.739 33.6614 58.7279 34.8161 58.6081C35.6298 58.5238 36.4157 58.2645 37.2155 58.0927C38.0153 57.9209 38.721 57.7178 38.9562 57.5773C39.1915 57.4367 40.2265 57.015 40.5558 56.8276C40.8851 56.6402 41.2554 56.5111 41.5438 56.2654C41.9696 55.9025 42.2965 55.4376 42.6729 55.0237Z" fill="#1A1A1A" stroke="#98826D" stroke-width="0.679057" stroke-linecap="round" stroke-linejoin="round"/>
<path d="M40.3689 54.9509L40.8113 54.9625L40.8696 56.6497L40.5552 56.8295C40.5552 56.8295 40.1415 57.0101 39.7285 57.2005L39.6645 56.0757L39.7401 55.1017L40.3689 54.9509ZM39.2511 55.2234L39.6121 55.9829L39.6761 57.2295C39.3623 57.3746 39.0534 57.5181 38.9542 57.5774C38.8926 57.6141 38.7445 57.6643 38.5584 57.7223L38.0635 57.1541L37.7783 56.3598V55.5771L39.2511 55.2234ZM37.231 55.6872L37.6385 56.6845L37.7899 57.9427C37.5216 58.0135 37.2135 58.0934 37.2135 58.0934L36.0492 58.3427L35.9444 57.7629L35.8047 56.8295L35.8862 55.9365L37.231 55.6872ZM27.503 56.0119L28.8885 56.1279L29.0807 56.1568L29.1214 56.8294L29.1854 57.2178L29.168 57.015L29.4242 56.209L30.4953 56.3713L30.8621 57.2005L30.8155 58.2789L30.635 58.6209L29.3601 58.4702C29.284 58.3384 29.267 58.1861 29.267 58.1861L29.2611 58.1223L29.1273 58.4412L28.9351 58.418L27.5496 57.6353L27.4273 57.1541L27.503 56.0119ZM30.8621 57.2005L30.8621 57.1541L31.1881 56.4816L31.6189 56.5453L32.9346 56.3888L33.2548 57.3165L33.2664 57.015L33.3945 56.3308L34.3434 56.2206L35.141 56.0757L35.665 57.015L35.6999 58.418L34.815 58.6094L33.2606 58.6499L33.2257 58.5456L33.2199 58.6499L31.3336 58.7021L31.0134 58.6674L30.9087 58.1398L30.8621 57.2005Z" fill="#F5F1E6"/>
<path d="M37.2155 39.5383C37.9683 39.0073 38.6211 38.2943 39.4737 37.9453C40.0847 37.6951 40.7913 37.7547 41.4497 37.8047C42.4496 37.8806 43.4337 38.107 44.4136 38.3201C44.8011 38.4044 45.1664 38.57 45.5427 38.6949C44.9154 38.8823 44.2903 39.077 43.6609 39.2572C43.0356 39.4362 42.4265 39.7115 41.779 39.7726C40.9198 39.8537 40.0534 39.7231 39.1915 39.6789C38.532 39.645 37.8742 39.5852 37.2155 39.5383Z" fill="#F2F2F2" stroke="black" stroke-width="0.679057" stroke-linecap="round" stroke-linejoin="round"/>
<path d="M26.6301 39.2572C26.1283 38.9136 25.692 38.4457 25.1246 38.2264C24.6094 38.0273 24.0292 38.0762 23.478 38.039C23.1025 38.0138 22.7061 37.9204 22.3489 38.039C21.7827 38.227 21.3139 38.6325 20.7964 38.9292C20.8904 39.226 20.8282 39.6342 21.0786 39.8195C21.4546 40.0976 21.9754 40.1351 22.443 40.1475C23.1683 40.1669 23.8974 40.0641 24.6071 39.9132C25.3005 39.7658 25.9558 39.4759 26.6301 39.2572Z" fill="#F2F2F2" stroke="black" stroke-width="0.679057" stroke-linecap="round" stroke-linejoin="round"/>
<path d="M26.1126 40.5691C25.1246 40.9283 24.1881 41.4894 23.1487 41.6467C22.1854 41.7926 21.1809 41.679 20.2318 41.4593C19.7916 41.3573 19.479 40.9596 19.1027 40.7097" stroke="black" stroke-width="0.679057" stroke-linecap="round" stroke-linejoin="round"/>
<path d="M26.6301 41.9748C25.6735 42.3809 24.7622 42.9168 23.7603 43.193C22.9856 43.4065 22.146 43.5984 21.3609 43.4273C20.5652 43.2539 19.9495 42.6152 19.2438 42.2091C19.9025 42.3653 20.5469 42.6032 21.2198 42.6776C21.9679 42.7604 22.7464 42.8546 23.478 42.6776C23.9012 42.5752 24.168 42.1466 24.513 41.8811" stroke="black" stroke-width="0.679057" stroke-linecap="round" stroke-linejoin="round"/>
<path d="M27.4299 38.6951C26.7712 38.2578 26.2159 37.5945 25.4539 37.3832C24.8876 37.2261 24.294 37.5743 23.7132 37.6643C22.8826 37.7929 22.0164 37.7713 21.2198 38.0391C20.7296 38.2039 20.29 38.5404 19.9495 38.9294C19.7314 39.1786 19.7299 39.5541 19.6202 39.8664C19.1027 39.9445 18.5852 40.0226 18.0676 40.1007" stroke="black" stroke-width="0.679057" stroke-linecap="round" stroke-linejoin="round"/>
<path d="M51.7999 38.6013H49.7769L48.3184 38.8356L46.9541 39.2104L45.872 38.6013L44.9311 39.5853L43.0493 40.4755" stroke="black" stroke-width="0.679057" stroke-linecap="round" stroke-linejoin="round"/>
<path d="M51.1412 35.6963C51.1412 35.6963 49.7769 37.6642 49.5416 37.7579C49.3064 37.8516 48.0832 38.6013 48.0832 38.6013L47.5186 39.023" stroke="black" stroke-width="0.679057" stroke-linecap="round" stroke-linejoin="round"/>
<path d="M46.1073 40.9441C45.5427 41.2408 45.0299 41.6698 44.4136 41.8343C43.4834 42.0826 42.5066 42.1623 41.5438 42.1623C40.907 42.1623 40.2892 41.9436 39.6619 41.8343" stroke="black" stroke-width="0.679057" stroke-linecap="round" stroke-linejoin="round"/>
<path d="M47.895 41.5532C47.5814 41.5846 47.2447 41.5251 46.9541 41.6469C46.3322 41.9077 45.8623 42.4939 45.2134 42.6777C44.227 42.957 43.1806 43.0057 42.1554 43.0057C41.1146 43.0057 40.0478 42.9747 39.0503 42.6777C38.4797 42.5078 38.078 41.9905 37.5919 41.6469" stroke="black" stroke-width="0.679057" stroke-linecap="round" stroke-linejoin="round"/>
<path d="M36.9332 38.7886C37.388 38.3513 37.6884 37.6415 38.2976 37.4767C39.2523 37.2183 40.2751 37.5442 41.2615 37.6172C42.1734 37.6848 43.0806 37.8046 43.9902 37.8983" stroke="black" stroke-width="0.679057" stroke-linecap="round" stroke-linejoin="round"/>
<path d="M41.4517 37.8062L43.4893 38.1599C43.5386 38.3131 43.565 38.4773 43.565 38.6469C43.565 38.8898 43.5112 39.1193 43.4136 39.3252L41.7777 39.7716C41.7777 39.7716 41.2853 39.7658 40.8288 39.7601C40.5447 39.4725 40.3689 39.0821 40.3689 38.6469V38.6411C40.3709 38.3567 40.4461 38.0888 40.5785 37.8583C41.0219 37.831 41.4517 37.8062 41.4517 37.8062Z" fill="#7F7C83"/>
<path d="M41.3656 38.6482C41.3656 38.9791 41.635 39.2473 41.9672 39.2473C42.2994 39.2473 42.5688 38.9791 42.5688 38.6482C42.5688 38.3173 42.2994 38.0491 41.9672 38.0491C41.6363 38.0491 41.3675 38.3153 41.3656 38.6449" fill="#1B1F1E"/>
<path d="M40.7502 38.5654C40.7502 38.8963 40.9525 39.1645 41.202 39.1645C41.4516 39.1645 41.6539 38.8963 41.6539 38.5654C41.6539 38.2345 41.4516 37.9663 41.202 37.9663C40.9535 37.9663 40.7515 38.2325 40.7502 38.5621" fill="#CED6E1"/>
<path d="M23.4802 38.0381L25.1219 38.2236L25.7972 38.6875C25.8217 38.7983 25.838 38.9115 25.838 39.0296C25.838 39.2076 25.8047 39.3799 25.7506 39.5398L24.6096 39.9108C24.6096 39.9108 23.703 40.0277 23.0494 40.0964C22.7936 39.814 22.636 39.4398 22.636 39.0296V39.018C22.638 38.6465 22.7697 38.3079 22.9853 38.0381L23.4802 38.0381Z" fill="#7F7C83"/>
<path d="M23.6344 39.0291C23.6344 39.3599 23.9038 39.6282 24.236 39.6282C24.5682 39.6282 24.8376 39.3599 24.8376 39.0291C24.8376 38.6982 24.5682 38.4299 24.236 38.4299C23.905 38.4299 23.6363 38.6962 23.6344 39.0258" fill="#1B1F1E"/>
<path d="M23.019 38.9463C23.019 39.2772 23.2213 39.5454 23.4709 39.5454C23.7204 39.5454 23.9227 39.2772 23.9227 38.9463C23.9227 38.6154 23.7204 38.3472 23.4709 38.3472C23.2223 38.3472 23.0204 38.6134 23.019 38.943" fill="#CED6E1"/>
<path d="M42.6729 55.0237C41.9045 55.0001 41.1312 54.8646 40.3676 54.9534C39.4384 55.0616 38.5544 55.4171 37.6389 55.6094C36.5464 55.8389 35.4488 56.0469 34.3457 56.2185C33.4405 56.3594 32.533 56.5622 31.617 56.5465C30.6968 56.5308 29.8013 56.2409 28.8883 56.1248C28.3263 56.0534 27.7611 55.9752 27.1947 55.9843C26.7822 55.9909 26.3792 56.1092 25.9714 56.1717C26.4105 56.609 26.795 57.109 27.2888 57.4836C27.7918 57.8653 28.3306 58.2386 28.9354 58.4207C29.7064 58.6528 30.5299 58.6762 31.3347 58.7018C32.4951 58.739 33.6614 58.7279 34.8161 58.6081C35.6298 58.5238 36.4157 58.2645 37.2155 58.0927C38.0153 57.9209 38.721 57.7178 38.9562 57.5773C39.1915 57.4367 40.2265 57.015 40.5558 56.8276C40.8851 56.6402 41.2554 56.5111 41.5438 56.2654C41.9696 55.9025 42.2965 55.4376 42.6729 55.0237Z" stroke="black" stroke-width="0.679057" stroke-linecap="round" stroke-linejoin="round"/>
<path d="M37.5613 46.492C37.7998 47.1409 38.0875 47.5663 37.9516 48.2439C37.8283 48.8589 37.4759 49.4612 36.9107 49.7362C36.5209 49.9258 36.0285 49.6243 35.6096 49.7362C34.7926 49.9545 33.9616 50.2274 33.2675 50.7095C32.7116 51.0956 32.5494 51.9225 31.9664 52.2667C31.4172 52.5908 30.7136 52.6649 30.0798 52.5911C29.3638 52.5078 28.6648 52.2084 28.063 51.8125C27.6134 51.5167 27.3768 50.984 27.0221 50.5797C26.6177 50.1188 25.8564 49.8256 25.7861 49.2172C25.7025 48.4949 26.3263 47.8659 26.6318 47.2057C26.9772 46.4593 27.4946 45.7853 27.7377 44.9997C28.0426 44.0144 28.0847 42.9667 28.2582 41.9502" stroke="black" stroke-width="0.679057" stroke-linecap="round" stroke-linejoin="round"/>
<path d="M42.7007 49.4117C41.2974 47.9685 39.7959 47.3646 37.9516 46.7515" stroke="black" stroke-width="0.679057" stroke-linecap="round" stroke-linejoin="round"/>
<path d="M25.9812 47.6599C22.7673 49.5698 21.4724 52.3186 21.6224 55.8353" stroke="black" stroke-width="0.679057" stroke-linecap="round" stroke-linejoin="round"/>
<path opacity="0.7393" d="M43.4231 6.57085C40.1001 6.53726 36.3767 8.07497 32.9123 9.46423L31.877 11.24C34.724 10.2866 37.5661 9.257 40.4132 9.51908L38.7676 11.3977L41.6679 10.3007L39.3984 13.0432L44.1019 11.0823L42.141 14.298L45.1989 13.674L44.5681 16.2589L47.7837 14.1403L45.6651 18.1375L51.0748 14.771L49.1139 18.8437L51.9318 16.4166L51.6987 22.1348L53.5773 18.2952L53.3442 23.7803L54.9143 22.1348C54.9389 26.1229 55.5427 28.4869 57.9654 31.144C58.1146 32.9319 57.4551 34.7064 58.5962 35.8474C56.7657 38.9129 56.5125 39.82 57.3415 43.1357C56.3051 45.291 56.721 47.6659 56.793 49.7932C57.0708 58.0012 50.9784 58.667 46.8444 55.6691C46.1635 55.1754 45.82 54.3302 45.3497 53.6328C42.1828 49.567 37.9413 50.1819 33.7351 50.8148C33.6415 50.8694 33.5489 50.9251 33.4608 50.9862C33.2634 51.1233 33.104 51.3776 32.9192 51.6787C32.7344 51.9799 32.5197 52.3308 32.1376 52.5564C31.4985 52.9335 30.7279 53.0067 30.0395 52.9266C29.256 52.8354 28.5167 52.516 27.8798 52.097C27.3985 51.7804 27.147 51.3137 26.8925 50.9657C25.2325 51.3126 24.5377 51.179 23.8208 52.6249C23.4811 53.31 23.1204 59.7634 18.0821 55.8268C17.873 55.6498 17.6605 55.481 17.4444 55.3126C17.4494 55.3605 17.4528 55.4087 17.4581 55.4566C17.6383 57.0779 17.9258 58.5288 18.514 60.0503C19.3155 62.1234 20.333 64.1704 21.2223 66.2073C21.8621 67.6731 22.0617 69.0482 23.0392 70.3143C24.7789 72.5675 27.887 74.7004 30.3069 75.34C34.1063 76.3441 40.5736 76.4083 43.7042 75.0246C53.9346 69.7764 61.4788 63.99 61.4004 53.9619C61.5063 53.0214 61.5823 52.079 61.6747 51.1371C61.6889 51.1418 61.7016 51.1522 61.7158 51.1576L61.6541 50.9725L60.3994 45.0144L61.9627 37.6506L63.2174 35.1412L63.759 34.4213C63.8818 32.8642 64.708 30.4759 64.6641 28.9157C64.5434 24.6309 63.9481 19.1758 61.5101 15.1207C58.5618 10.2168 53.8244 7.76402 46.9884 6.92051C45.8553 6.78069 44.67 6.58346 43.4231 6.57085ZM40.9411 54.579C41.1418 54.5801 41.341 54.5933 41.5376 54.6064C41.9308 54.6327 42.3149 54.6705 42.6826 54.6818C42.7476 54.6838 42.8108 54.7043 42.8644 54.7411C42.9181 54.7779 42.9601 54.8293 42.9854 54.8893C43.0106 54.9492 43.0182 55.0152 43.007 55.0793C42.9959 55.1434 42.9666 55.203 42.9226 55.2509C42.5655 55.6435 42.2334 56.1261 41.7639 56.5262C41.411 56.8269 41.0142 56.9562 40.7217 57.1227C40.5193 57.2379 40.1874 57.3806 39.8578 57.5272C39.5282 57.6738 39.1887 57.8355 39.131 57.87C38.9469 57.98 38.7073 58.0581 38.3905 58.1511C38.0737 58.2442 37.6934 58.338 37.2867 58.4254C36.5108 58.592 35.7151 58.8571 34.8527 58.9465C33.6768 59.0684 32.4914 59.08 31.3217 59.0425C30.5176 59.0168 29.6686 58.9972 28.8397 58.7476C28.1655 58.5446 27.5956 58.1413 27.0844 57.7535C26.5424 57.3422 26.1514 56.8256 25.7337 56.4096C25.6894 56.3655 25.658 56.3099 25.6432 56.2491C25.6285 56.1883 25.6308 56.1246 25.6499 56.065C25.6691 56.0054 25.7043 55.9522 25.7518 55.9114C25.7993 55.8706 25.8571 55.8437 25.9189 55.8337C26.2962 55.7759 26.7134 55.6493 27.1873 55.6417C27.7886 55.6321 28.3693 55.7145 28.9288 55.7857C29.8844 55.9072 30.7706 56.1894 31.6233 56.2039C32.4854 56.2187 33.3704 56.0249 34.2904 55.8817C35.3862 55.7112 36.4797 55.5069 37.5678 55.2783C38.4439 55.0943 39.3413 54.7284 40.3309 54.6133C40.5382 54.5891 40.7404 54.5779 40.9411 54.579Z" fill="white"/>
<path opacity="0.739" d="M46.6091 36.6301C45.5121 36.4995 44.4202 36.3152 43.3181 36.2383C42.1713 36.1583 41.0189 36.2069 39.8703 36.16C38.4589 36.1024 37.0494 36.0033 35.639 35.9249C36.2397 35.5331 36.7651 34.9888 37.4412 34.7495C38.494 34.377 39.6199 34.2216 40.7323 34.1227C41.9811 34.0117 43.2977 33.7459 44.4935 34.1227C45.3397 34.3893 45.8802 35.2468 46.4524 35.9249C46.6077 36.109 46.5569 36.3951 46.6091 36.6301Z" fill="white"/>
<path opacity="0.739" d="M24.6689 36.3168C23.7888 36.5656 22.838 36.4676 21.9263 36.3952C21.1807 36.336 20.48 35.9417 19.7323 35.925C19.2696 35.9148 18.8492 36.2046 18.4002 36.3168C18.1169 36.3877 17.8256 36.4213 17.5383 36.4736C17.9562 35.8989 18.1687 35.0907 18.792 34.7497C19.6548 34.2776 20.7077 34.2012 21.6912 34.2012C22.3945 34.2012 23.0561 34.5438 23.7286 34.7497C24.3367 34.9359 24.93 35.1676 25.5308 35.3765C25.2435 35.69 25.078 36.2012 24.6689 36.3168Z" fill="white"/>
<path d="M43.4231 6.57085C40.187 6.53814 36.5732 7.99518 33.1866 9.35453C37.874 7.52912 42.9154 6.94698 46.9404 7.75014C53.1012 8.9795 57.5085 12.238 60.7902 16.9514C63.4938 20.8344 63.94 25.4606 64.0607 29.7453C64.1046 31.3055 63.8818 32.8642 63.759 34.4213C63.8818 32.8642 64.708 30.4759 64.6641 28.9157C64.5434 24.6309 63.9481 19.1758 61.5101 15.1207C58.5618 10.2168 53.8244 7.76404 46.9884 6.92053C45.8553 6.78071 44.67 6.58346 43.4231 6.57085ZM61.6747 51.1371C61.6889 51.1418 61.7016 51.1522 61.7158 51.1576V51.1508C61.7029 51.1459 61.6876 51.1414 61.6747 51.1371ZM61.4004 53.9619C61.0788 55.8661 60.8063 57.6956 60.5914 59.4333C61.1322 57.7556 61.4159 55.9418 61.4004 53.9619ZM17.4444 55.3126C17.4494 55.3605 17.4528 55.4087 17.4581 55.4566C17.6383 57.0779 17.9258 58.5288 18.514 60.0503C19.3155 62.1234 20.333 64.1704 21.2223 66.2073C21.8621 67.6731 22.0617 69.0482 23.0392 70.3143C23.1669 70.4797 23.3021 70.6444 23.4437 70.8079C22.8389 69.2719 22.2803 67.7202 21.6199 66.2073C20.7307 64.1704 19.5897 62.24 18.7883 60.1669C18.2 58.6454 17.6451 57.0779 17.465 55.4566C17.4599 55.411 17.4561 55.365 17.4513 55.3195C17.4487 55.3175 17.4469 55.3146 17.4444 55.3126Z" fill="white"/>
<path d="M11.5 83C17.5 82.2 21.6667 77.3333 23 75L32 77.5H39.5L48 76C50.1667 74.8333 56.1 71.9 60.5 69.5C61.7 75.9 70.5 80.5 75 82C56.3333 82.3333 17.5 83 11.5 83Z" fill="#E3B49A"/>
</svg>
