<svg width="111" height="125" viewBox="0 0 111 125" fill="none" xmlns="http://www.w3.org/2000/svg">
<g clip-path="url(#clip0_3602_3685)">
<path opacity="0.8" d="M74.43 16.4827C77.5731 16.2841 80.7503 17.1391 83.4567 18.75C86.163 20.3608 88.4032 22.7072 90.0314 25.403C93.288 30.7945 94.0463 37.4015 93.358 43.6625C92.6122 50.4464 90.2864 56.9563 89.1263 63.6817C88.5463 67.0444 88.2595 70.4799 88.618 73.8734C88.9766 77.2668 90.0017 80.6267 91.8883 83.4702C94.36 87.1953 98.1273 89.8181 101.506 92.7454C103.196 94.2091 104.813 95.7772 106.118 97.5926C107.422 99.4078 108.407 101.488 108.726 103.7C109.026 105.787 108.716 107.961 107.832 109.875C106.948 111.79 105.492 113.438 103.695 114.54C101.252 116.037 98.273 116.49 95.4175 116.253C92.5621 116.016 89.8006 115.13 87.1236 114.109C84.4467 113.087 81.8199 111.922 79.0786 111.088C76.3373 110.255 73.4453 109.757 70.6024 110.115C67.5128 110.503 64.6279 111.882 61.9912 113.539C59.3546 115.196 56.9109 117.143 54.2945 118.832C51.6782 120.521 48.8352 121.967 45.7619 122.468C44.2251 122.719 42.6421 122.727 41.1171 122.414C39.5919 122.1 38.126 121.458 36.9089 120.487C35.6107 119.452 34.6166 118.057 33.9742 116.526C33.3319 114.995 33.0345 113.33 33.0128 111.669C32.9693 108.348 34.0084 105.104 35.3234 102.054C36.6382 99.0042 38.2395 96.0783 39.4183 92.9735C40.5971 89.8685 41.3484 86.5114 40.8664 83.2254C40.2508 79.0287 37.6537 75.3159 34.4031 72.5912C31.1524 69.8664 27.2695 68.0164 23.3741 66.338C19.4788 64.6595 15.5016 63.1114 11.8918 60.8841C8.28199 58.6569 5.00929 55.6658 3.22095 51.8197C2.01302 49.2218 1.5271 46.3198 1.60448 43.4559C1.68185 40.5919 2.30933 37.7612 3.24178 35.0522C5.10669 29.6341 8.16057 24.7203 10.7415 19.6044C12.3314 16.4528 13.7546 13.1996 15.7167 10.2653C17.6789 7.33103 20.2583 4.68658 23.5185 3.33364C25.5548 2.48869 27.797 2.17782 29.9961 2.33195C32.1954 2.48608 34.3517 3.09785 36.3513 4.02584C40.3508 5.88182 43.6709 8.95476 46.5236 12.3166C47.7279 13.7356 48.8642 15.2172 50.1772 16.5364C51.4902 17.8556 53.0032 19.0205 54.7508 19.6608C56.3364 20.2416 58.0631 20.3692 59.7443 20.2119C61.4255 20.0546 63.0692 19.6203 64.6768 19.1044C67.8924 18.0726 71.0597 16.6954 74.43 16.4827Z" fill="#AAFA1E" stroke="#65CB11" stroke-width="2.47525"/>
<path opacity="0.8" d="M23.0099 83.1412C25.3963 83.1412 27.3308 81.2066 27.3308 78.8202C27.3308 76.4338 25.3963 74.4991 23.0099 74.4991C20.6234 74.4991 18.6888 76.4338 18.6888 78.8202C18.6888 81.2066 20.6234 83.1412 23.0099 83.1412Z" fill="#AAFA1E" stroke="#65CB11" stroke-width="2.47525" stroke-linecap="round"/>
<path opacity="0.8" d="M69.4867 11.8676C67.8081 13.0885 65.9828 14.1297 64.013 14.7843C62.0432 15.4388 59.9216 15.6969 57.8738 15.3578C55.826 15.0186 53.8583 14.0594 52.4515 12.5332C51.0447 11.007 50.239 8.90027 50.4342 6.83381C50.5821 5.26805 51.3165 3.7437 52.5265 2.73916C53.1316 2.23688 53.8483 1.86713 54.612 1.68011C55.3759 1.4931 56.1859 1.49045 56.9473 1.68742C58.0153 1.96368 58.9421 2.61025 59.8649 3.21469C60.7875 3.81914 61.7694 4.40677 62.8645 4.53827C63.6075 4.62746 64.3623 4.49944 65.0792 4.28521C65.7963 4.07097 66.4844 3.77162 67.1844 3.50725C67.8846 3.24287 68.605 3.01156 69.3502 2.94229C70.0952 2.87301 70.8724 2.97503 71.5238 3.34363C72.284 3.7735 72.8221 4.54807 73.039 5.39388C73.2561 6.23968 73.167 7.14818 72.8675 7.96842C72.2685 9.60886 70.8991 10.8403 69.4867 11.8676Z" fill="#AAFA1E" stroke="#65CB11" stroke-width="2.47525"/>
<path fill-rule="evenodd" clip-rule="evenodd" d="M62.5979 81.0418L69.0663 78.0221L74.9464 73.2765L80.2391 67.0926L103.025 75.5771L101.849 81.4732L96.116 90.5331L88.9125 99.018L84.7963 101.463L75.8288 95.9979L76.2698 92.4027L74.0645 89.0953L67.4492 85.0684L62.5979 81.0418Z" fill="#564769" stroke="#0B100E" stroke-width="3.09406" stroke-miterlimit="10" stroke-linecap="square"/>
<path fill-rule="evenodd" clip-rule="evenodd" d="M41.5208 29.9313L42.4286 36.4247L47.1612 37.6198L51.2572 43.2311L55.7362 47.8889L62.581 44.0167L66.5086 37.9224L65.6489 29.5576L62.9678 23.5149L57.1011 26.8338L48.3728 29.0053L41.5208 29.9313Z" fill="#3C3550" stroke="#0B100E" stroke-width="3.09406" stroke-miterlimit="10" stroke-linecap="square"/>
<path fill-rule="evenodd" clip-rule="evenodd" d="M20.6122 28.6918L26.7272 31.0572L26.8108 35.9377L31.3396 41.2059L34.8525 46.6296L29.5207 52.4103L22.691 54.8438L14.7431 52.0982L9.47145 48.109L14.0414 43.1543L18.1472 35.1518L20.6122 28.6918Z" fill="#564769" stroke="#0B100E" stroke-width="3.09406" stroke-miterlimit="10" stroke-linecap="square"/>
<path fill-rule="evenodd" clip-rule="evenodd" d="M48.2934 99.6101L50.2571 76.0452L44.0092 75.3308L37.2253 72.4749L27.2277 96.2182L35.4398 98.5391L48.2934 99.6101Z" fill="#564769" stroke="#0B100E" stroke-width="3.09406" stroke-miterlimit="10" stroke-linecap="square"/>
<path fill-rule="evenodd" clip-rule="evenodd" d="M101.115 33.0218L93.0711 25.6169L89.4083 30.8504L84.6272 36.0292L88.3853 50.4292L93.7338 43.8849L101.115 33.0218Z" fill="#564769" stroke="#0B100E" stroke-width="3.09406" stroke-miterlimit="10" stroke-linecap="square"/>
<path d="M75.8292 95.9979C83.1854 89.5633 92.3592 81.5527 95.8096 72.8902Z" fill="#3C3550"/>
<path d="M75.8292 95.9979C83.1854 89.5633 92.3592 81.5527 95.8096 72.8902" stroke="#0B100E" stroke-width="3.09406" stroke-miterlimit="10" stroke-linecap="round" stroke-linejoin="round"/>
<path d="M47.1614 37.6198C52.5917 36.7584 60.9315 34.3971 65.6491 29.5576Z" fill="#3C3550"/>
<path d="M47.1614 37.6198C52.5917 36.7584 60.9315 34.3971 65.6491 29.5576" stroke="#0B100E" stroke-width="3.09406" stroke-miterlimit="10" stroke-linecap="round" stroke-linejoin="round"/>
<path d="M26.8108 35.9378C24.7331 41.0284 20.5312 48.6094 14.743 52.0983Z" fill="#3C3550"/>
<path d="M26.8108 35.9378C24.7331 41.0284 20.5312 48.6094 14.743 52.0983" stroke="#0B100E" stroke-width="3.09406" stroke-miterlimit="10" stroke-linecap="round" stroke-linejoin="round"/>
</g>
<defs>
<clipPath id="clip0_3602_3685">
<rect width="110.149" height="125" fill="white"/>
</clipPath>
</defs>
</svg>
