<svg width="125" height="125" viewBox="0 0 125 125" fill="none" xmlns="http://www.w3.org/2000/svg">
<path d="M54.8123 43.0934C52.3634 40.9752 52.3763 37.5479 54.6586 35.5482C60.7642 30.1991 75.1576 29.0531 82.8259 29.0498C91.0715 29.0009 99.2419 30.6398 106.831 33.8671C107.74 34.2587 110.18 35.3653 110.88 35.8983C111.979 36.592 113.217 37.3968 114.131 38.3322C115.346 39.21 116.36 40.6348 117.078 41.9409C119.677 44.1522 120.73 49.0379 117.164 50.8737C115.731 51.612 114.493 51.3798 113.092 50.7362C110.039 49.3357 106.99 47.7952 103.746 46.8724C101.863 46.3382 99.7527 46.0571 97.8039 45.7109C85.6934 43.5889 73.2993 43.6767 61.2212 45.9701C59.4176 46.3037 58.2361 46.3665 56.5802 45.2349C56.0109 44.8454 54.9269 43.8045 54.8123 43.0934Z" fill="#2B2B2B"/>
<path d="M54.8124 43.0934C57.6419 44.1083 59.7501 42.8508 62.5556 42.3801C74.8016 40.3249 87.7971 40.1111 99.7399 43.8923C101.961 44.5897 104.145 45.3048 106.214 46.3792C108.799 47.7219 111.692 50.1664 114.712 48.6339C117.341 47.2995 117.495 44.4974 117.079 41.9409C119.677 44.1523 120.731 49.0379 117.165 50.8738C115.731 51.6121 114.493 51.3799 113.092 50.7363C110.039 49.3357 106.99 47.7953 103.746 46.8725C101.863 46.3383 99.7529 46.0572 97.804 45.711C85.6936 43.589 73.2994 43.6767 61.2214 45.9702C59.4178 46.3038 58.2363 46.3665 56.5804 45.2349C56.0111 44.8455 54.9271 43.8046 54.8124 43.0934Z" fill="#121A31"/>
<path d="M56.9565 37.6316C60.6562 34.8302 64.5372 34.3984 69.0171 33.6276C81.3745 31.5097 94.976 31.6659 106.501 37.1064C109.329 38.4411 115.717 41.7992 113.74 45.7147C112.57 46.2687 112.122 45.9651 111.032 45.4386C108.514 44.2219 105.942 42.5189 103.293 41.6255C98.6964 40.076 93.9742 38.9388 89.1513 38.3407C82.2311 37.4806 75.2338 37.4462 68.3067 38.2384C66.278 38.4563 64.2607 38.773 62.2632 39.1864C60.4105 39.5751 54.6097 41.674 56.9565 37.6316Z" fill="#FDEDCC"/>
<path d="M52.5908 56.6186C50.6435 54.0318 51.3787 50.6843 54.0312 49.2107C61.1273 45.269 75.4388 47.1832 82.9355 48.7967C91.006 50.4873 98.6473 53.8118 105.385 58.5666C106.192 59.1411 108.343 60.7372 108.915 61.4057C109.844 62.3157 110.883 63.3633 111.58 64.4702C112.583 65.5846 113.274 67.1912 113.7 68.6193C115.775 71.3289 115.774 76.3267 111.901 77.3695C110.344 77.7889 109.183 77.301 107.949 76.3765C105.26 74.3637 102.604 72.2151 99.6275 70.6291C97.9 69.71 95.8963 68.9904 94.0642 68.2411C82.6733 63.6136 70.5393 61.0864 58.2492 60.7819C56.4157 60.7277 55.2476 60.54 53.8675 59.0847C53.3931 58.584 52.5529 57.338 52.5908 56.6186Z" fill="#2B2B2B"/>
<path d="M52.591 56.6187C55.143 58.2074 57.4688 57.4226 60.3105 57.5539C72.7146 58.1267 85.463 60.6574 96.3402 66.8715C98.364 68.0214 100.349 69.181 102.145 70.6674C104.389 72.5249 106.701 75.5244 109.976 74.6629C112.828 73.9128 113.569 71.2062 113.701 68.6194C115.775 71.329 115.774 76.3268 111.901 77.3696C110.344 77.789 109.183 77.3011 107.95 76.3766C105.26 74.3638 102.604 72.2152 99.6278 70.6292C97.9003 69.7101 95.8965 68.9905 94.0645 68.2412C82.6736 63.6137 70.5395 61.0865 58.2494 60.782C56.416 60.7278 55.2478 60.5401 53.8677 59.0848C53.3933 58.5841 52.5531 57.3381 52.591 56.6187Z" fill="#121A31"/>
<path d="M55.8381 51.7317C60.0454 49.7732 63.9302 50.1693 68.4718 50.3603C80.998 50.8953 94.2609 53.9155 104.38 61.6634C106.863 63.5644 112.399 68.1938 109.641 71.6045C108.38 71.8992 108.007 71.5082 107.053 70.7637C104.848 69.0434 102.692 66.8364 100.291 65.4047C96.1246 62.9209 91.7483 60.8138 87.1599 59.2122C80.5765 56.9126 73.7438 55.4038 66.8053 54.7177C64.7763 54.503 62.7376 54.3873 60.6978 54.3703C58.8048 54.3596 52.6919 55.1884 55.8381 51.7317Z" fill="#FDEDCC"/>
<path d="M45.1936 64.4154C44.3614 61.2863 46.301 58.4606 49.3129 58.0921C57.3702 57.1067 69.9127 64.2599 76.2532 68.5729C83.0965 73.173 88.9278 79.1259 93.3844 86.0647C93.9158 86.9002 95.3096 89.188 95.5881 90.0223C96.1068 91.2147 96.6764 92.5762 96.9055 93.8637C97.4162 95.2734 97.4528 97.022 97.3112 98.5057C98.215 101.796 96.3359 106.427 92.355 105.938C90.7544 105.741 89.8617 104.853 89.0662 103.532C87.3303 100.656 85.6772 97.667 83.5149 95.0785C82.2595 93.5775 80.6732 92.1574 79.2572 90.7744C70.4409 82.2047 60.1466 75.3019 48.8722 70.4002C47.1936 69.6609 46.1816 69.0478 45.4497 67.1805C45.1983 66.5382 44.8881 65.0677 45.1936 64.4154Z" fill="#2B2B2B"/>
<path d="M45.1933 64.4155C46.961 66.8468 49.4113 66.9938 51.9952 68.1836C63.2744 73.3768 74.1368 80.5138 81.8806 90.3607C83.3237 92.1869 84.7271 94.0075 85.8329 96.0601C87.214 98.6248 88.2291 102.273 91.5879 102.706C94.5123 103.083 96.2163 100.853 97.311 98.5058C98.2147 101.796 96.3357 106.427 92.3548 105.938C90.7541 105.741 89.8615 104.853 89.066 103.533C87.3301 100.656 85.677 97.6671 83.5147 95.0786C82.2593 93.5776 80.673 92.1575 79.2569 90.7745C70.4407 82.2048 60.1464 75.302 48.8719 70.4003C47.1933 69.661 46.1814 69.0479 45.4495 67.1806C45.1981 66.5383 44.8878 65.0678 45.1933 64.4155Z" fill="#121A31"/>
<path d="M50.0393 61.1072C54.6742 60.8738 58.1252 62.701 62.2621 64.5852C73.6686 69.7892 84.8237 77.5731 91.2883 88.5564C92.8746 91.2512 96.2652 97.6222 92.4275 99.7462C91.1482 99.5454 90.9494 99.0427 90.3447 97.9941C88.9478 95.571 87.7799 92.7156 86.0934 90.4865C83.1658 86.6187 79.9024 83.0211 76.2525 79.8124C71.0162 75.2068 65.2517 71.2404 59.0799 67.9967C57.2804 67.035 55.4347 66.1615 53.5509 65.379C51.8007 64.6576 45.8245 63.1279 50.0393 61.1072Z" fill="#FDEDCC"/>
<path d="M23.1103 69.9571C22.2782 66.828 24.2177 64.0023 27.2296 63.6338C35.2869 62.6484 47.8295 69.8016 54.1699 74.1146C61.0132 78.7147 66.8445 84.6676 71.3012 91.6064C71.8326 92.4418 73.2264 94.7297 73.5048 95.564C74.0235 96.7564 74.5931 98.1179 74.8222 99.4054C75.333 100.815 75.3696 102.564 75.228 104.047C76.1317 107.338 74.2526 111.969 70.2717 111.48C68.6711 111.283 67.7785 110.394 66.983 109.074C65.2471 106.198 63.594 103.209 61.4317 100.62C60.1763 99.1192 58.59 97.6991 57.1739 96.3161C48.3577 87.7464 38.0633 80.8436 26.7889 75.9419C25.1103 75.2026 24.0984 74.5895 23.3665 72.7222C23.1151 72.0799 22.8048 70.6094 23.1103 69.9571Z" fill="#2B2B2B"/>
<path d="M23.1106 69.9571C24.8783 72.3884 27.3285 72.5354 29.9125 73.7253C41.1917 78.9184 52.054 86.0554 59.7979 95.9023C61.241 97.7286 62.6443 99.5491 63.7501 101.602C65.1312 104.166 66.1463 107.815 69.5051 108.248C72.4295 108.625 74.1336 106.395 75.2282 104.047C76.132 107.338 74.2529 111.969 70.272 111.48C68.6714 111.283 67.7788 110.394 66.9832 109.074C65.2473 106.198 63.5942 103.209 61.4319 100.62C60.1766 99.1192 58.5902 97.6991 57.1742 96.3162C48.358 87.7464 38.0636 80.8436 26.7892 75.942C25.1106 75.2026 24.0986 74.5895 23.3667 72.7222C23.1153 72.0799 22.8051 70.6094 23.1106 69.9571Z" fill="#121A31"/>
<path d="M27.9566 66.6489C32.5914 66.4155 36.0425 68.2427 40.1793 70.1269C51.5858 75.3309 62.7409 83.1148 69.2055 94.0981C70.7918 96.7929 74.1824 103.164 70.3447 105.288C69.0655 105.087 68.8666 104.584 68.262 103.536C66.865 101.113 65.6972 98.2573 64.0106 96.0282C61.083 92.1604 57.8197 88.5628 54.1697 85.3541C48.9335 80.7485 43.1689 76.7821 36.9971 73.5383C35.1976 72.5767 33.3519 71.7032 31.4681 70.9207C29.7179 70.1993 23.7418 68.6696 27.9566 66.6489Z" fill="#FDEDCC"/>
<path d="M73.8418 48.5426C72.5034 43.3349 76.6382 42.4088 80.6849 43.5991C82.6903 44.189 85.013 44.3983 86.8234 45.4961C87.7429 46.0594 87.8551 47.5069 87.8462 48.4662C88.4677 48.2334 87.9247 48.0811 88.4693 48.2899C90.347 51.2934 87.6652 55.4037 86.8353 58.4534C85.4347 63.5977 83.7664 68.6814 82.4266 73.8425C81.5461 77.0274 80.235 80.4253 79.5188 83.7195C79.2512 85.2499 78.9144 86.8584 78.7625 88.4036C78.4701 91.3791 79.9454 95.0855 76.8799 97.1142C75.7496 97.8628 72.3538 97.9041 72.0322 96.3684L72.2973 96.0417C71.4299 95.7312 70.6715 95.2136 69.9242 94.6883C69.9966 95.0142 70.0253 94.9087 69.9393 95.1846C68.2704 95.8241 65.2671 94.7961 64.2917 93.2967C59.2313 90.5928 66.647 83.3474 68.1683 80.3505C71.2274 74.3247 73.5205 67.7258 74.9814 61.1235C75.5007 58.7795 75.3353 56.9519 75.2677 54.6065C74.8799 52.5337 74.3605 50.5847 73.8418 48.5426Z" fill="#2B2B2B"/>
<path d="M87.8465 48.4663C88.4679 48.2335 87.925 48.0812 88.4695 48.29C90.3472 51.2934 87.6655 55.4037 86.8355 58.4534C85.4349 63.5978 83.7667 68.6814 82.4268 73.8426C81.5464 77.0275 80.2353 80.4254 79.519 83.7195C79.2514 85.2499 78.9146 86.8585 78.7627 88.4037C78.4703 91.3791 79.9457 95.0856 76.8801 97.1143C75.7499 97.8628 72.354 97.9041 72.0324 96.3685L72.2976 96.0417L72.4121 96.0546L72.6022 96.0717C73.754 96.1891 75.0618 96.0186 76.017 95.3146C78.0879 93.7452 77.2356 90.7474 77.1307 88.553C77.0243 86.3294 77.5527 84.1354 77.9352 81.9599C78.5212 78.628 79.7565 75.4048 80.6929 72.1546C82.1552 67.0827 83.6279 62.0151 85.0964 56.9448C85.3572 56.0436 85.6586 55.1136 85.959 54.2245C86.9117 51.8917 87.4903 51.0207 87.8465 48.4663Z" fill="#121A31"/>
<path d="M76.0763 45.7892C77.5941 44.841 83.5663 46.6455 85.3701 47.1806C85.8799 50.3635 84.2001 51.9791 83.4185 54.8454C82.5529 58.0242 81.6306 61.18 80.7258 64.3477C78.9689 70.5024 76.5347 76.8324 75.3223 83.1085C75.0653 84.4956 74.9322 85.9006 74.9233 87.3103C74.9222 89.2846 75.6116 91.94 74.7502 93.4547C72.6605 94.8888 70.7052 92.4893 69.4687 91.0233C68.3278 91.3681 65.7696 92.4082 64.9163 90.9904C64.65 90.549 64.9064 89.6517 65.1491 89.2258C66.5378 86.7812 68.2202 84.4866 69.7023 82.0946C71.1355 79.7599 72.689 76.2964 73.598 73.7006C75.2135 69.0863 77.5364 62.6306 77.646 57.7998C77.6789 56.3552 77.5714 54.9115 77.3223 53.489C76.9438 51.3651 75.5339 47.4796 76.0763 45.7892Z" fill="#FDEDCC"/>
<path d="M35.0981 103.578C32.4585 99.0056 37.299 96.5792 40.6687 94.638C46.1342 91.4909 49.8051 94.654 53.2653 98.8656C57.4125 103.912 62.8444 108.663 61.0233 115.911L61.3663 116.033C62.0045 117.957 60.4505 122.916 57.6005 122.757C52.3555 122.465 35.1719 107.938 35.0981 103.578Z" fill="#2B2B2B"/>
<path d="M35.0977 103.578C38.9783 107.341 51.5143 119.636 56.6092 119.691C57.7379 119.704 58.8193 119.238 59.5847 118.409C60.2664 117.671 60.6421 116.827 61.0228 115.911L61.3659 116.033C62.0041 117.957 60.45 122.916 57.6001 122.757C52.3551 122.465 35.1715 107.938 35.0977 103.578Z" fill="#121A31"/>
<path d="M43.8827 96.786C44.9278 96.7001 45.8333 96.6444 46.8047 97.1011C48.7442 98.0144 54.6645 105.485 56.0966 107.593C56.8139 108.649 57.4737 109.769 57.909 110.974C58.3235 112.119 58.6457 113.76 58.0581 114.905C57.777 115.454 57.2209 115.887 56.6238 116.04C55.4023 116.352 54.1814 115.449 53.183 114.867C48.4575 111.858 44.177 107.52 39.9594 103.866C37.1347 101.421 36.7651 100.667 40.1799 98.584C41.4857 97.7884 42.4325 97.3031 43.8827 96.786Z" fill="#FDEDCC"/>
<path d="M10.6836 97.9906C8.03398 95.3382 9.83557 91.203 12.3024 89.2841C16.3229 86.1561 20.4881 82.0161 24.5794 79.1171C29.1846 75.8554 30.5655 81.9763 30.219 85.5928C32.9084 90.9039 22.581 99.8012 18.3582 101.615C16.8165 102.277 15.5749 102.668 13.9177 101.976C12.4096 101.349 10.1072 100.075 9.99214 98.2674C10.2606 98.1385 10.4012 98.0876 10.6836 97.9906Z" fill="#2B2B2B"/>
<path d="M30.2193 85.5926C32.9087 90.9036 22.5813 99.801 18.3585 101.615C16.8168 102.277 15.5752 102.668 13.918 101.976C12.4099 101.349 10.1075 100.075 9.99243 98.2672C10.2608 98.1383 10.4015 98.0874 10.6839 97.9904C13.984 99.9665 15.8362 99.688 19.0748 97.6658C20.7168 96.6411 22.1959 95.3985 23.6389 94.1129C26.6611 91.4192 29.0292 89.5942 30.2193 85.5926Z" fill="#121A31"/>
<path d="M26.1415 82.035C29.1767 82.4424 26.0626 87.8855 24.6138 89.0613C21.4712 91.6134 18.1812 96.1066 13.7993 96.1416C10.0601 94.5203 16.051 90.21 17.4494 89.1377C20.4111 86.8656 23.2087 84.3262 26.1415 82.035Z" fill="#FDEDCC"/>
<path d="M95.7706 23.5371C92.3924 19.4766 98.6283 11.2937 101.326 8.08443C104.827 3.91896 111.588 7.378 111.383 13.1457C111.633 17.238 111.514 17.973 108.806 21.195C106.025 24.5029 101.463 30.6811 96.7712 26.3819C96.1422 25.7948 95.2469 24.6763 95.4842 23.7503L95.7706 23.5371Z" fill="#2B2B2B"/>
<path d="M95.7703 23.5371C100.205 27.1696 103.46 23.273 106.379 19.849C107.997 17.9508 110.177 15.3096 111.383 13.1458C111.632 17.238 111.514 17.9731 108.806 21.1951C106.024 24.5029 101.463 30.6811 96.7709 26.382C96.142 25.7949 95.2466 24.6764 95.4839 23.7504L95.7703 23.5371Z" fill="#121A31"/>
<path d="M104.603 9.62948C105.474 9.54515 107.06 9.85064 107.521 10.5825C109.194 13.2412 104.894 16.5968 103.553 18.6287C102.919 19.5897 101.619 20.7496 100.845 21.2715C99.2049 22.0861 97.1503 22.1577 97.893 19.7615C98.7765 16.9087 102.183 11.1665 104.603 9.62948Z" fill="#FDEDCC"/>
<path d="M69.9261 38.3487C70.4618 37.8508 70.9066 37.2632 71.2404 36.6122C72.4589 34.2688 72.1321 31.7908 70.8248 29.5458C70.0872 28.2792 69.5868 28.1981 69.199 26.5505C68.4473 23.3007 68.3491 19.9255 67.3204 16.7314C64.3011 7.35545 55.1721 1.96814 45.597 2.00014C41.8656 2.01261 38.7331 1.88653 35.0715 3.17179C27.8829 5.6946 22.9148 10.4838 19.5292 17.1576C18.8827 17.4655 18.4262 18.1569 17.9334 18.6644C14.7875 21.96 12.8268 26.2716 13.0121 30.8675C13.2566 36.9634 16.0386 42.435 18.3708 47.7824C21.0563 53.941 23.0409 54.5569 29.4492 56.2313C30.622 56.5377 36.0151 58.9255 36.7037 59.8107C38.2575 60.2363 39.7636 60.5882 41.3155 61.0608C42.1044 61.3011 44.2962 62.1393 44.9504 62.2041C45.1099 62 45.1003 61.9154 45.1509 61.6591C45.1911 61.0772 45.2875 60.6888 45.5712 60.1805L45.6094 60.1378C45.9064 59.6865 45.9599 59.6333 46.3858 59.2999C47.2329 58.1581 52.7616 57.9733 54.1426 58.0759C54.4712 58.1004 55.5217 58.4346 55.8831 58.5498C56.327 57.9829 61.0618 54.7042 61.2646 53.8823L60.8404 54.0655L60.6514 53.9263C61.6608 53.2883 62.0612 52.4785 62.8503 51.7711C65.6163 49.291 66.6543 48.5289 65.3567 44.6611L65.5139 44.5988L65.7557 44.7264C66.7372 43.8408 69.9658 39.6076 70.292 38.464C70.1375 38.4062 70.0826 38.3908 69.9261 38.3487Z" fill="#2B2B2B"/>
<path d="M19.5156 17.6531C18.8704 17.9576 18.4148 18.6413 17.9231 19.1432C14.7838 22.4026 12.8272 26.6668 13.0121 31.2122C13.2561 37.241 16.0323 42.6524 18.3596 47.9411C21.0395 54.0319 23.0199 54.641 29.4147 56.2971C30.585 56.6 35.9668 58.9616 36.6539 59.837C38.2045 60.258 39.7075 60.606 41.2561 61.0734C42.0433 61.3111 44.2305 62.14 44.8834 62.2041C45.0425 62.0022 45.033 61.9186 45.0835 61.6651C45.1235 61.0896 45.2198 60.7054 45.5028 60.2028L45.541 60.1606C45.8374 59.7142 45.8907 59.6616 46.3158 59.3319C47.1611 58.2026 52.6782 58.0199 54.0563 58.1214C54.3841 58.1455 55.4325 58.4761 55.7931 58.59C56.2361 58.0293 60.9609 54.7867 61.1633 53.9738L61.5 53L60.5514 54.0174C59.7847 54.2847 58.9026 54.7843 58.1638 54.9928C57.2872 55.2403 56.2003 55.317 55.3048 55.5742C54.6024 55.7761 53.8419 56.3569 53.1481 56.4552C51.6032 56.6736 49.9935 56.7758 48.4325 56.9529L47.4461 56.5163C45.7249 56.9374 43.6158 57.4588 41.9213 57.1961C38.3618 56.6444 39.0994 53.6289 37.709 51.4175C37.545 51.2112 37.119 50.8244 36.8598 50.8018C34.1799 50.568 31.4485 51.4296 28.922 50.0481C27.4029 49.2176 26.5842 48.1967 25.798 46.6979C25.149 45.4617 24.8935 43.9428 24.2788 42.7696C21.8257 38.0866 18.9066 33.5186 18.3939 28.1288C18.2633 26.7521 18.1051 25.0349 18.31 23.6533L18.4491 22.1538C18.7055 20.3676 19.0029 19.3588 19.5156 17.6531Z" fill="#121A31"/>
<path d="M46.7692 4.47378C45.5701 4.34245 42.1305 4.42922 40.9545 4.55018C34.3998 5.22472 29.074 8.19879 24.9252 13.214C21.2797 17.6199 19.7178 21.9116 20.3683 27.6099C20.7581 31.0227 22.1824 34.365 23.6799 37.4472C24.2987 38.7193 25.4468 40.3124 26.0194 41.5418C27.1925 44.0621 27.3109 46.8274 30.3799 48.0941C32.9812 49.1675 36.1946 47.3444 38.5149 48.9045C40.4608 50.2131 40.1009 53.1957 41.5791 54.5736C42.2508 55.0807 43.807 55.0032 44.5692 54.9155C47.0848 54.626 44.1448 51.1043 46.2803 50.9021C48.3696 50.7041 47.4804 53.4984 48.5457 54.3784C48.9412 54.7045 49.7256 54.5562 50.2029 54.5043C50.533 54.4744 51.7312 54.399 52.0632 54.2489C53.9456 53.3987 50.048 48.597 52.3702 48.335C53.9321 48.1589 54.0832 52.1437 55.06 52.7568C55.7895 53.2147 58.0185 52.6609 58.5126 51.9285C59.5591 50.4277 56.9775 47.1102 58.1372 45.9111C58.3107 45.7321 58.5538 45.6358 58.8042 45.6471C60.4209 45.7213 59.9339 49.6575 61.6448 49.7646C62.006 49.6602 62.1168 49.5901 62.3841 49.3186C64.9621 46.7 62.1938 44.6843 62.1528 41.4988C63.872 38.5791 69.294 38.0313 69.581 33.8937C69.766 31.2259 67.5183 29.9106 66.9847 27.7457C65.6181 22.2004 66.1649 16.2325 61.9319 11.7179C57.622 6.99175 53.1305 4.97707 46.7692 4.47378Z" fill="#FDEDCC"/>
<path d="M38.1204 27.3681C34.1589 26.7444 30.4846 29.7304 29.928 34.0255C29.3724 38.3206 32.1468 42.2863 36.114 42.8673C40.054 43.4443 43.6834 40.4641 44.2353 36.1991C44.7872 31.934 42.0548 27.9874 38.1204 27.3681Z" fill="#2B2B2B"/>
<path d="M57.3945 21.3426C53.4672 20.7669 49.8104 23.468 49.2076 27.3913C48.6038 31.3144 51.2784 34.9898 55.1976 35.6212C59.1561 36.259 62.8768 33.551 63.4865 29.5881C64.0961 25.6253 61.3617 21.9242 57.3945 21.3426Z" fill="#2B2B2B"/>
<path d="M49.111 35.7143C47.8831 35.8342 47.4763 36.9112 47.1459 38.0543C46.532 40.185 46.1307 44.1574 49.1524 44.1428C49.9191 44.1392 50.5855 44.1345 51.3558 44.058C56.3607 43.227 53.2555 36.6287 49.111 35.7143Z" fill="#2B2B2B"/>
</svg>
