<svg width="220" height="220" viewBox="0 0 220 220" fill="none" xmlns="http://www.w3.org/2000/svg">
<g clip-path="url(#clip0_3710_15290)">
<mask id="mask0_3710_15290" style="mask-type:luminance" maskUnits="userSpaceOnUse" x="0" y="0" width="220" height="220">
<path d="M220 0H0V220H220V0Z" fill="white"/>
</mask>
<g mask="url(#mask0_3710_15290)">
<path d="M105.364 57.8483C107.201 57.6905 108.994 57.7258 110.737 57.7584C112.57 57.7927 114.319 57.9238 116.091 58.1451L116.09 58.1461C116.745 58.2275 117.426 58.1788 118.395 58.1305C119.276 58.0866 120.412 58.0432 121.556 58.3112L122.87 58.6305C124.188 58.9642 125.518 59.344 126.814 59.7994C127.786 60.1406 128.679 60.5886 129.478 61.0114C130.319 61.4565 130.996 61.8403 131.73 62.1901H131.729C132.676 62.6405 133.514 63.2 134.248 63.7125C134.827 64.1177 135.317 64.4748 135.81 64.8024L136.308 65.1207C137.882 66.0856 139.324 67.1242 140.74 68.2135H140.739C142.062 69.2312 143.573 70.3283 144.94 71.6256L144.941 71.6266C145.67 72.3197 146.296 73.0588 146.859 73.7545C147.45 74.4853 147.921 75.1028 148.469 75.7438H148.468C149.615 77.0833 150.758 78.4514 151.819 79.9899C152.241 80.6016 152.734 81.146 153.356 81.8698C153.866 82.4636 154.446 83.1619 154.939 83.9781L155.144 84.3356L155.145 84.3365C156.051 85.9966 156.731 87.8121 157.372 89.3463L157.484 89.6031C157.755 90.2012 158.091 90.7914 158.494 91.5367C158.925 92.3347 159.415 93.2848 159.732 94.3453C160.026 95.3274 160.194 96.3182 160.328 97.2223C160.468 98.1714 160.563 98.9684 160.718 99.7877C160.874 100.607 161.069 101.375 161.279 102.315C161.479 103.21 161.674 104.193 161.76 105.219C161.829 106.038 161.949 106.829 162.069 107.791C162.183 108.706 162.286 109.72 162.267 110.758L162.26 111.124L162.25 111.148C162.199 112.09 162.039 112.99 161.881 113.784C161.739 114.5 161.606 115.105 161.509 115.687L161.425 116.264C161.194 118.169 160.628 120.122 160.279 121.659V121.66C160.047 122.675 159.703 123.617 159.373 124.461C159.026 125.347 158.721 126.065 158.458 126.838V126.839C158.219 127.538 158.079 128.268 157.875 129.214C157.683 130.095 157.437 131.149 156.969 132.162L156.968 132.161C156.531 133.11 155.989 133.965 155.486 134.721C154.956 135.517 154.504 136.154 154.089 136.849L154.09 136.85C153.215 138.322 152.274 139.96 151.147 141.47C150.539 142.286 149.864 143.004 149.23 143.646C148.565 144.32 147.997 144.861 147.433 145.473L147.434 145.474C146.898 146.056 146.429 146.669 145.83 147.409C145.262 148.11 144.603 148.888 143.811 149.584C143.238 150.088 142.722 150.655 142.054 151.352C141.426 152.008 140.682 152.755 139.802 153.379C138.374 154.393 136.805 155.479 135.18 156.391L135.179 156.39C134.081 157.007 132.87 157.223 131.996 157.373C130.999 157.544 130.37 157.643 129.836 157.873L129.834 157.874C128.205 158.573 126.543 159.229 124.778 159.774H124.776C123.82 160.068 122.875 160.248 122 160.394C121.079 160.547 120.315 160.652 119.49 160.814H119.489C118.12 161.082 116.535 161.462 114.893 161.662L114.186 161.736C112.377 161.892 110.606 161.915 108.806 161.881C108.115 161.869 107.419 161.976 106.464 162.101C105.587 162.216 104.488 162.346 103.354 162.205C102.331 162.077 101.362 161.83 100.494 161.587C99.5832 161.331 98.8467 161.1 98.0659 160.917V160.918C96.2999 160.514 94.5566 160.015 92.8442 159.423L92.8354 159.421C91.4968 158.951 90.1679 158.274 89.0054 157.688L87.9038 157.143C87.2515 156.833 86.5564 156.618 85.646 156.311C84.7996 156.026 83.7846 155.665 82.8335 155.082H82.8325C81.895 154.506 81.1082 153.787 80.4546 153.169C79.843 152.59 79.3632 152.115 78.8599 151.704L78.6421 151.531C77.5176 150.666 76.1579 149.703 74.9185 148.605L74.395 148.127C73.7858 147.548 73.1844 147.039 72.4741 146.402C71.799 145.796 71.0804 145.121 70.4233 144.351C69.753 143.565 69.2042 142.723 68.7251 141.953C68.2216 141.143 67.8235 140.462 67.3599 139.788V139.787C66.4546 138.471 65.2385 136.896 64.3276 135.229C63.4959 133.706 62.591 132.055 61.8628 130.311V130.31C61.245 128.831 60.3712 127.008 59.8218 125.177L59.8208 125.176C59.5785 124.368 59.3069 123.613 59.0034 122.69C58.7151 121.813 58.4231 120.853 58.2329 119.851V119.85C58.0139 118.694 58.0945 117.546 58.1685 116.644C58.2497 115.654 58.3223 114.943 58.2651 114.263V114.262C58.1083 112.385 58.2356 110.436 58.2661 108.783C58.2782 108.124 58.1489 107.44 57.981 106.459C57.8294 105.573 57.6415 104.414 57.7856 103.223L57.854 102.78C58.0412 101.76 58.4199 100.843 58.731 100.114C59.1233 99.1943 59.4064 98.5685 59.5513 97.9342C59.7782 96.9393 60.0976 96.0153 60.4116 95.1705C60.7418 94.2824 61.0332 93.5635 61.3052 92.7653C61.8794 91.0811 62.4795 89.3838 63.2612 87.691C63.5722 87.0164 63.7894 86.3073 64.0942 85.3961C64.3794 84.5438 64.736 83.5356 65.3022 82.5826H65.3032C66.2702 80.9572 67.6591 79.3731 68.5532 78.1744C68.9419 77.6533 69.2368 77.0263 69.6812 76.1305C70.0821 75.3222 70.6143 74.2786 71.4243 73.4C72.3475 72.3989 73.5833 71.8699 74.394 71.5201C75.3629 71.1022 75.8866 70.8752 76.2515 70.5543C76.7351 70.1287 77.1408 69.5899 77.7476 68.816C78.2964 68.116 79.0199 67.2137 79.9956 66.5201C81.4591 65.4798 82.9923 64.4688 84.5972 63.566L85.2124 63.2311C86.6578 62.4688 88.1594 61.8371 89.5356 61.2448H89.5376C90.206 60.9578 90.8421 60.576 91.688 60.0983C92.4753 59.6537 93.425 59.1392 94.4839 58.8121H94.4849C95.5318 58.4895 96.596 58.3778 97.4917 58.2994C98.4519 58.2155 99.1987 58.1689 99.9253 58.027L100.329 57.9576C101.267 57.8182 102.176 57.8271 102.953 57.8473C103.903 57.872 104.632 57.9114 105.364 57.8492V57.8483Z" fill="#595960" stroke="black" stroke-width="4"/>
<path d="M153.333 110C153.333 133.903 133.902 153.333 110 153.333C102.928 153.333 96.2718 151.635 90.3785 148.619C89.3212 148.099 88.2985 147.527 87.3105 146.903C74.9345 139.276 66.6665 125.583 66.6665 110C66.6665 86.0973 86.0972 66.6666 110 66.6666C118.164 66.6666 125.791 68.92 132.291 72.8546L137.785 76.772C147.284 84.728 153.333 96.6706 153.333 110Z" fill="white"/>
<path d="M144.703 118.237C144.6 118.237 144.497 118.228 144.396 118.209L126.503 115.008C126.05 114.927 125.648 114.67 125.385 114.293C125.122 113.916 125.02 113.45 125.101 112.997C125.181 112.544 125.438 112.142 125.816 111.879C126.193 111.616 126.659 111.514 127.111 111.595L145.005 114.796C145.43 114.873 145.811 115.106 146.073 115.45C146.336 115.793 146.46 116.223 146.422 116.653C146.385 117.084 146.187 117.485 145.869 117.777C145.551 118.07 145.135 118.235 144.703 118.237Z" fill="#AE2A2C"/>
<path d="M90.3786 148.619L85.7506 154.235C85.0919 153.992 84.4679 153.732 83.8786 153.368C83.4626 153.108 83.0639 152.813 82.6826 152.484L87.3106 146.903C88.2986 147.527 89.3213 148.099 90.3786 148.619Z" fill="#414145"/>
<path d="M92.2678 146.348L90.3785 148.619C89.3212 148.099 88.2985 147.527 87.3105 146.903L89.5985 144.129C90.2052 143.401 91.2972 143.297 92.0425 143.904C92.7705 144.511 92.8745 145.603 92.2678 146.348ZM123.346 142.691C120.382 141.945 118.094 139.259 117.193 136.295C116.292 133.244 116.604 129.951 117.349 126.865C120.07 128.235 122.306 130.592 123.433 133.4C124.629 136.364 124.56 139.779 123.346 142.691Z" fill="#AE2A2C"/>
<path d="M144.684 74.2586V74.276L140.385 75.1426C139.779 75.264 139.224 75.5413 138.756 75.94L137.785 76.772L132.291 72.8546L134.735 66.4933C134.908 66.6146 135.081 66.7186 135.255 66.8226C136.763 67.7413 138.132 68.7293 139.519 69.804C140.905 70.8613 142.292 71.8666 143.557 73.08C143.956 73.4613 144.32 73.86 144.684 74.2586Z" fill="#414145"/>
<path d="M137.785 76.7719L129.743 83.6706L128.755 84.5199C128.373 84.8319 127.819 84.4506 128.009 83.9999L128.495 82.7519L132.291 72.8546L137.785 76.7719ZM84.6065 104.401L77.0665 108.336H66.7012C66.8225 104.956 67.3425 101.663 68.2092 98.5253L77.8985 102.668L84.6065 104.401Z" fill="#AE2A2C"/>
<path d="M52.4639 159.408C55.425 158.212 58.8497 157.229 61.6562 157.567C64.1385 157.867 65.5445 158.182 67.166 158.576C68.5533 158.913 70.0967 159.306 72.6865 159.811L73.8633 160.034L74.0225 160.063L74.1709 160.126C75.8828 160.844 76.9654 161.943 77.8311 162.934C78.7397 163.973 79.2994 164.727 80.1572 165.326C82.9338 167.264 85.6127 169.361 87.3779 172.01C89.1961 174.738 89.9956 177.974 89.1807 182.028V182.029C88.9826 183.015 88.6373 184.272 88.1377 185.462C87.6542 186.614 86.9521 187.886 85.9521 188.719L85.6758 188.948L85.3262 189.028C85.1792 189.062 85.1043 189.084 84.998 189.113C84.9651 189.122 84.6028 189.241 84.1846 189.172C83.7774 189.105 83.4729 188.885 83.4492 188.869C83.3616 188.812 83.2934 188.765 83.1641 188.689L82.8164 188.485L82.6172 188.134C82.3472 187.656 82.1579 187.377 81.9248 186.646L81.8975 186.561L81.8809 186.473C81.5168 184.578 81.6872 183.101 81.7012 181.988C81.7145 180.925 81.6226 179.857 80.8955 178.249C79.0537 175.713 76.5222 174.758 73.1973 174.141C71.9883 175.677 70.3225 177.761 68.9365 179.896C68.1316 181.137 67.4641 182.332 67.0537 183.385C66.6257 184.483 66.5687 185.197 66.6738 185.592C67.0836 187.128 67.9642 188.472 69.0928 189.843C69.6592 190.531 70.2574 191.19 70.8818 191.892C71.4944 192.58 72.1258 193.302 72.6963 194.058C73.839 195.572 74.8252 197.335 74.9912 199.503C75.1579 201.682 74.4793 204.038 72.7627 206.719L72.7637 206.72C71.9127 208.049 70.6411 209.141 69.4756 210.059C68.2298 211.04 67.1446 211.8 66.2646 212.637L66.2637 212.636C65.8369 213.042 65.3882 213.711 64.7578 214.623C64.1964 215.435 63.4789 216.456 62.626 217.158L62.0576 217.626L61.3398 217.463C61.2092 217.433 60.7635 217.353 60.3809 217.139C59.8873 216.862 59.5945 216.456 59.3916 216.056C58.8088 214.904 58.8768 213.481 59.0566 212.396C59.2473 211.247 59.6278 210.112 60.0078 209.317V209.316C60.5419 208.2 61.4383 207.379 62.2578 206.739C62.6741 206.414 63.1128 206.104 63.5127 205.82C63.9242 205.528 64.3001 205.258 64.6475 204.981C65.3531 204.419 65.8064 203.926 66.042 203.412C66.2514 202.955 66.3525 202.344 66.0566 201.388C65.7041 200.248 64.9085 199.341 63.7012 198.405C63.0962 197.936 62.4263 197.489 61.6914 197.002C60.9713 196.525 60.1883 196.01 59.4316 195.446C57.9109 194.312 56.3813 192.897 55.3818 190.87C54.3729 188.824 53.9762 186.304 54.4492 183.08C54.7574 180.98 55.4829 179.086 56.2764 177.329C57.112 175.479 57.9104 173.996 58.6309 172.253C58.7484 171.968 58.8557 171.679 58.959 171.388C57.7067 172.481 56.4948 173.724 55.2344 174.973L55.2334 174.972C54.4058 175.792 53.5027 176.697 52.7031 177.657C51.9232 178.594 51.3078 179.511 50.9639 180.368C50.6862 181.567 50.7115 182.817 50.7539 184.295C50.7955 185.743 50.8532 187.43 50.4443 189.122H50.4434C50.0722 190.657 49.3446 192.026 48.7568 193.184C48.1387 194.401 47.6517 195.424 47.46 196.519C47.2925 197.474 47.5545 198.295 48.1348 199.201C48.4332 199.667 48.8005 200.131 49.2197 200.635C49.6196 201.116 50.0975 201.668 50.5156 202.214V202.215C53.2344 205.766 52.5984 210.168 51.9854 213.52C51.8043 214.515 51.4084 215.306 50.8389 216.04L50.6309 216.308L50.3281 216.46L49.7852 216.733L49.1748 217.04L48.543 216.781C47.5274 216.365 47.1113 215.384 46.917 214.777C46.6986 214.096 46.5798 213.289 46.4873 212.567C46.3878 211.791 46.3161 211.09 46.2021 210.412C46.0875 209.73 45.9553 209.252 45.8057 208.953V208.952C44.9247 207.194 43.6713 206.053 42.2617 204.49C40.8903 202.97 39.5217 201.168 39.1475 198.393C39.0131 197.396 39.2447 196.051 39.4873 194.829C39.7561 193.476 40.0769 192.116 40.3281 190.684C40.5762 189.269 40.7138 187.995 40.6338 186.983C40.5673 186.143 40.3674 185.697 40.1572 185.459C40.0449 185.441 39.8842 185.422 39.6504 185.404C39.284 185.376 38.7235 185.347 38.1699 185.253C36.9609 185.047 35.5685 184.499 34.5312 182.907L34.5303 182.905C34.4809 182.829 34.4343 182.752 34.3867 182.675C33.1962 183.394 32.0633 184.047 30.8711 184.526C29.1742 185.209 27.3731 185.544 25.0049 185.438C23.4314 185.452 21.8582 185.479 20.2852 185.517C18.1118 185.674 16.2489 185.94 14.7139 186.619C13.2375 187.272 12.0217 188.329 11.1748 190.217C10.8962 190.839 10.4391 191.936 9.7666 192.799C9.05917 193.706 7.87469 194.644 6.17383 194.359L5.69141 194.278L5.34961 193.93C5.34306 193.923 5.33541 193.914 5.32031 193.899C5.30719 193.886 5.28723 193.867 5.2666 193.846C5.2253 193.804 5.1619 193.737 5.0957 193.656C4.9672 193.499 4.76547 193.214 4.67969 192.809C3.91703 189.202 5.67197 185.392 7.99121 182.48C10.3265 179.549 13.5724 177.095 16.4863 176.33L16.6074 176.299L16.7324 176.287C19.4573 176.041 21.5559 176.402 23.9443 176.586C25.6522 176.65 26.8201 176.494 27.6699 176.215C28.4951 175.943 29.0827 175.536 29.6074 174.985C30.1646 174.401 30.6533 173.657 31.2783 172.652C31.6769 172.012 32.1213 171.283 32.6484 170.499C31.7708 169.933 30.9457 169.331 30.1699 168.761C29.0961 167.972 28.1283 167.255 27.1426 166.669C25.2305 165.532 23.4199 164.986 21.1484 165.634L21.1455 165.635C20.3981 165.846 19.3726 166.221 18.3242 166.398L17.9668 166.459L17.6221 166.35C17.4781 166.304 17.3969 166.284 17.2979 166.258C17.2676 166.25 16.924 166.174 16.6143 165.939C16.2973 165.699 16.1336 165.383 16.1143 165.35C16.061 165.257 16.0235 165.188 15.9434 165.061L15.7246 164.712L15.7139 164.301C15.7044 163.939 15.7021 163.53 15.8438 163.096C15.9105 162.891 15.9956 162.722 16.0615 162.597C16.1035 162.517 16.2194 162.309 16.2656 162.223L16.3896 161.991L16.584 161.816C18.1813 160.382 19.8898 159.661 21.8916 159.278C22.5259 159.115 23.2826 159.001 23.7793 158.914L23.833 158.904L23.8877 158.898C28.1652 158.467 30.8532 159.639 33.2852 160.94C35.6398 162.201 37.5673 163.442 40.7002 163.835C42.3541 163.733 43.4588 163.49 45.1826 163.112C46.8858 162.047 49.5778 160.574 52.4639 159.408Z" fill="white" stroke="black" stroke-width="3"/>
<path d="M206.047 147.569C206.184 147.563 206.518 147.549 206.893 147.706C207.16 147.818 207.394 148.008 207.408 148.019C207.447 148.048 207.492 148.082 207.549 148.122L207.76 148.263L207.975 148.403L208.132 148.605C208.599 149.209 208.916 149.656 209.186 150.152C209.446 150.631 209.643 151.125 209.896 151.753L209.948 151.881L209.979 151.958L210.002 152.039C211.4 157.029 210.122 161.988 208.183 166.283C207.418 167.976 206.168 169.127 204.852 169.999C203.576 170.843 202.098 171.506 200.903 172.1L200.86 172.122L200.816 172.14C199.918 172.518 199.071 172.946 198.137 173.41C195.924 175.229 195.327 176.496 195.112 177.809C194.989 178.562 194.984 179.39 194.999 180.487C195.008 181.18 195.021 181.961 195.008 182.834C197.002 183.02 198.947 183.465 200.557 183.718C202.645 184.047 204.335 184.103 205.851 183.46C206.987 182.668 207.328 182.402 208.278 181.429C208.573 181.041 209.108 180.302 209.77 179.841C210.165 179.566 210.687 179.323 211.321 179.299C211.883 179.278 212.411 179.433 212.892 179.703L213.095 179.825L213.539 180.113L213.705 180.616C214.183 182.069 213.655 183.476 213.227 184.37L213.052 184.719C209.869 190.933 203.356 192.479 197.501 192.222C195.068 192.172 193.099 192.56 191.435 193.395C189.819 194.206 188.391 195.489 187.08 197.404C184.639 205.039 180.082 209.424 175.3 211.739C170.526 214.049 165.601 214.267 162.453 213.738L162.329 213.717L162.21 213.676C160.592 213.115 158.888 212.811 157.096 212.58C155.374 212.357 153.399 212.184 151.602 211.902C147.87 211.315 144.066 210.154 140.971 206.502C139.871 205.206 138.587 202.607 137.885 200.127C137.53 198.873 137.29 197.534 137.339 196.321C137.387 195.138 137.727 193.776 138.859 192.902L139.264 192.589H139.775C141.116 192.589 142.1 193.318 142.8 194.091C143.481 194.844 144.062 195.829 144.577 196.708C145.638 198.519 146.542 200.052 147.823 200.857L148.085 201.008L148.325 201.126C149.537 201.687 150.985 201.773 152.628 201.571C154.076 201.392 155.508 201.018 156.939 200.652C157.236 198.73 157.533 196.474 157.663 194.245C157.812 191.701 157.739 189.319 157.288 187.537L157.264 187.5V187.499C155.714 185.195 153.173 184.432 149.935 183.34C146.95 182.334 143.476 181.046 141.438 177.328L141.246 176.96C138.11 170.7 141.131 165.644 142.821 160.913C142.85 160.829 142.892 160.586 142.891 160.066C142.89 159.543 142.857 159.058 142.84 158.382C142.824 157.775 142.826 157.076 142.93 156.417C143.031 155.776 143.258 154.985 143.84 154.357L144.3 153.86L144.977 153.876C146.414 153.911 147.27 154.894 147.711 155.362H147.71C149.161 156.9 149.95 158.797 149.882 160.966C149.843 162.18 149.523 163.329 149.179 164.348C148.798 165.474 148.469 166.245 148.176 167.211C147.907 168.098 147.776 168.847 147.834 169.528C147.889 170.171 148.118 170.834 148.715 171.552L148.881 171.742C149.728 172.66 150.827 173.121 152.257 173.392C153.03 173.539 153.864 173.623 154.784 173.702C155.682 173.779 156.677 173.851 157.668 173.979C159.667 174.238 161.84 174.741 163.857 176.111C165.892 177.493 167.632 179.66 168.95 183.009L169.135 183.501C170.016 185.968 170.296 188.557 170.518 190.985C170.685 192.821 170.821 194.557 171.113 196.216C172.451 192.397 173.491 188.449 173.426 184.557L173.415 184.298C173.331 183.015 172.791 181.832 171.994 180.432C171.195 179.027 170.069 177.311 169.402 175.349C169.059 174.499 168.888 173.482 168.771 172.529C168.659 171.604 168.563 170.378 168.463 169.469C168.352 168.459 168.213 167.561 167.989 166.825C167.762 166.076 167.493 165.651 167.234 165.43C166.034 164.404 164.887 163.9 163.478 163.246C162.066 162.59 160.481 161.816 158.781 160.248L158.724 160.194L158.672 160.135C157.82 159.165 156.528 157.155 155.653 155.147C155.214 154.14 154.84 153.043 154.706 152.016C154.579 151.044 154.624 149.774 155.484 148.822L155.943 148.314L156.629 148.328C156.942 148.334 157.395 148.356 157.871 148.57C158.222 148.727 158.502 148.951 158.738 149.18L158.961 149.41V149.411C159.864 150.395 160.369 151.254 160.811 151.947C161.239 152.618 161.651 153.211 162.437 153.917L162.438 153.918C163.594 154.961 164.955 155.511 166.549 156.044C168.067 156.552 169.94 157.077 171.579 158.128H171.578C172.71 158.848 173.681 159.802 174.426 160.924L174.656 161.291C175.177 162.165 175.59 163.175 175.945 164.175C176.348 165.308 176.73 166.588 177.096 167.708C177.476 168.871 177.858 169.926 178.3 170.808C178.747 171.699 179.199 172.296 179.662 172.643L179.861 172.784C180.038 172.9 180.15 172.945 180.207 172.963C180.231 172.971 180.244 172.972 180.249 172.973C180.269 172.969 180.335 172.952 180.514 172.859C180.606 172.811 180.698 172.759 180.829 172.687C180.951 172.62 181.098 172.539 181.259 172.459C181.949 172.116 182.851 171.8 184.106 171.877C184.996 171.932 186.003 172.182 187.188 172.678C188.095 171.009 189.189 169.099 190.704 167.709C190.932 167.498 191.167 167.292 191.397 167.094L192.07 166.523C193.04 165.674 194.694 164.682 196.259 163.73C197.893 162.736 199.539 161.721 200.774 160.734C203.345 158.171 203.682 155.983 203.658 154.148C203.652 153.654 203.618 153.18 203.583 152.69C203.549 152.218 203.512 151.703 203.513 151.214C203.515 150.234 203.668 149.048 204.583 148.069L205 147.624L205.609 147.595C205.7 147.591 205.775 147.586 205.841 147.582C205.897 147.578 205.979 147.572 206.047 147.569Z" fill="white" stroke="black" stroke-width="3"/>
<path d="M24.9612 20.0539C26.4921 18.5984 28.0628 17.8804 29.786 17.8347C31.1904 17.7974 32.5574 18.2168 33.8887 18.7703C34.2921 18.5762 34.7293 18.3753 35.1436 18.2171L35.4154 18.1184L35.704 18.0034C36.0169 17.8647 36.4065 17.6553 36.8987 17.3771C37.5077 17.0328 38.2521 16.5972 39.0005 16.2361C40.3706 15.5751 42.5071 14.7732 44.3833 15.9841L44.664 16.159C46.061 17.0062 47.3861 17.4062 48.8495 17.711C50.3477 18.023 52.281 18.2745 54.2961 18.8464C55.8198 19.2788 57.8794 20.1488 59.7291 21.309C61.5239 22.4347 63.4028 24.0074 64.1758 25.9546L64.2037 26.0253L64.2245 26.0967C64.5585 27.2691 64.6521 28.2352 64.6967 29.0255C64.7452 29.8837 64.738 30.2893 64.8271 30.7009C64.8905 30.9936 65 31.246 65.3216 31.5652C65.6891 31.9299 66.3479 32.3933 67.5701 32.9948C68.839 33.6194 70.2975 34.1182 71.813 34.483C73.801 32.4038 76.1272 30.1532 78.711 28.2564C81.5024 26.2072 84.6747 24.5133 88.1245 23.934C89.4868 23.4089 91.2508 22.7195 92.4807 22.1351C94.1764 20.7939 96.1728 20.6848 97.9161 20.8919C104.379 21.6595 109.621 24.722 114.083 28.9607L114.892 29.7298L114.388 30.7265C111.689 36.0509 108.826 39.2663 106.244 41.0961C103.698 42.901 101.325 43.4141 99.7035 43.074L99.4275 43.0155L99.1905 42.8615C96.196 40.9046 93.5006 39.3492 90.4428 39.7516C85.014 40.4661 81.6595 44.0599 78.7339 48.853C77.2617 51.2649 75.9724 53.8504 74.561 56.4734C73.1731 59.0527 71.6843 61.6323 69.8828 63.8169L69.8499 63.8553L69.8158 63.8923C67.481 66.3639 66.0225 67.5987 63.1226 69.3416L63.0696 69.3739L63.0135 69.4011C59.2967 71.2366 55.6453 72.1793 52.0145 72.0006C48.3715 71.8213 44.8678 70.5186 41.4487 68.0555C37.4436 65.1701 34.2116 63.7921 29.5991 64.4798L29.4978 64.495L29.495 64.4947C29.4804 64.4995 29.4611 64.5055 29.4377 64.5141C29.3169 64.5589 29.1525 64.632 28.9326 64.7367C28.5458 64.9208 27.9201 65.2416 27.3856 65.4774C26.8599 65.7093 26.1483 65.9896 25.4606 66.0361C25.1005 66.0604 24.6112 66.0314 24.1329 65.7761C23.6087 65.4962 23.2667 65.035 23.101 64.5145L23.046 64.3219C22.8046 63.3645 23.051 62.4839 23.4569 61.7892C23.8725 61.078 24.487 60.4943 25.0741 60.0416C26.2513 59.134 27.6693 58.4846 28.4248 58.2095C33.088 56.512 38.5736 56.2253 43.1901 58.96C44.1788 59.5457 45.1154 60.2038 45.9505 60.7575C46.8129 61.3293 47.6257 61.8309 48.508 62.2274L48.5153 62.2301C50.8788 63.3068 53.0091 63.3113 54.8668 62.6086C56.7578 61.8931 58.4969 60.3935 59.9165 58.2528C61.1445 56.4009 61.8212 54.3522 62.4378 52.0957C62.9997 50.0398 63.5276 47.728 64.4232 45.5046C62.9821 44.9684 61.9668 44.2651 60.6918 43.3671L60.6385 43.3301L60.5891 43.2885C58.3931 41.4398 56.5387 38.8628 55.124 36.5931C50.8899 30.8818 46.8382 28.8547 43.6916 29.2989C40.5728 29.7393 37.407 32.7526 35.2922 39.4238C34.7724 41.0633 33.6763 43.0135 32.8704 44.3335L32.8448 44.3762L32.8158 44.4178L31.9496 45.644L31.9207 45.6842L31.8893 45.7228C30.4997 47.437 27.8686 49.2275 26.2718 50.2401L26.1432 50.3221L26.0006 50.3763C25.6947 50.4924 25.1489 50.7173 24.7323 50.8658C24.2741 51.0292 23.7163 51.2002 23.1328 51.2512C22.5338 51.3035 21.8246 51.2366 21.1518 50.8387C20.4744 50.438 20.0094 49.8054 19.7061 49.055L19.5745 48.7295L19.6013 48.3796C19.7226 46.7788 20.7261 45.5631 21.6707 44.7853L21.8579 44.6361L21.8871 44.6133L21.9176 44.5919C23.9483 43.18 25.0185 42.2783 25.6885 41.2304C26.3385 40.2138 26.7057 38.9036 26.9126 36.4611C27.0028 35.3955 26.677 34.351 26.0671 33.1946C25.7624 32.6167 25.4028 32.0406 25.0127 31.4327C24.6334 30.8416 24.2105 30.2 23.8367 29.5648C23.0971 28.3079 22.3784 26.8079 22.4014 25.1216C22.4255 23.3543 23.2509 21.6799 24.9612 20.0539Z" fill="white" stroke="black" stroke-width="3"/>
<path d="M207.529 39.6183C208.445 40.3503 208.881 41.2856 209.112 42.1572C209.325 42.9658 209.392 43.8723 209.463 44.4919L209.477 44.6117L209.643 46.0639C210.466 53.3532 211.011 61.065 205.237 67.6161L205.103 67.7668L204.935 67.8781C200.275 70.9363 197.53 73.9487 195.981 76.4068C194.407 78.9034 194.109 80.7521 194.172 81.5075L194.2 81.8478L194.078 82.1672C193.757 83.0097 193.374 84.2879 193.125 85.5727C192.865 86.912 192.797 88.0306 192.937 88.6661L193.282 90.2375L191.69 90.4719L179.377 92.2857L179.341 92.2909L179.304 92.2945L176.203 92.5962L173.515 92.857L174.714 90.4371C180.952 77.8482 180.984 68.6259 178.738 62.2617C176.492 55.9002 171.897 52.177 168.412 50.691C165.829 49.9374 162.416 48.4661 159.204 46.7887C155.958 45.094 152.774 43.1169 150.788 41.3522L150.762 41.3287L150.736 41.3034C149.715 40.3051 148.057 38.8267 147.887 36.5647L147.829 35.7983L148.417 35.3036L148.863 34.9296L149.272 34.5859L149.807 34.5781C151.396 34.5554 152.551 35.3485 153.344 35.7567C157.438 37.8173 161.329 39.5294 165.664 40.7293C166.61 40.7634 167.885 40.9993 169.229 41.3191C170.73 41.6762 172.452 42.169 174.166 42.7155C177.55 43.7946 181.072 45.1393 182.819 46.1362L182.878 46.17L182.933 46.2085L184.948 47.6116L185.004 47.6509L185.057 47.6957C187.806 50.0096 189.537 52.1574 190.796 54.626C191.877 56.7473 192.582 59.0618 193.315 61.7839L193.633 62.9764L193.647 63.0332L193.658 63.0902C193.697 63.3066 193.725 63.5035 193.747 63.6753C196.776 61.4186 198.75 59.6772 200.128 57.615C201.543 55.4987 202.41 52.9229 202.959 48.8538C203.111 47.7255 203.267 46.1464 203.507 44.692C203.751 43.2192 204.114 41.6303 204.77 40.3208L205.019 39.8254L205.529 39.6101L206.011 39.4073L206.832 39.0616L207.529 39.6183Z" fill="white" stroke="black" stroke-width="3"/>
</g>
</g>
<defs>
<clipPath id="clip0_3710_15290">
<rect width="220" height="220" fill="white"/>
</clipPath>
</defs>
</svg>
