<svg width="112" height="104" viewBox="0 0 112 104" fill="none" xmlns="http://www.w3.org/2000/svg">
<g clip-path="url(#clip0_3711_15329)">
<path d="M108.743 85.9168L109.061 44.418L98.2892 54.1615L72.1856 41.0853L80.4929 64.4037L52.575 64.8261L74.7217 78.4532L66.8658 85.9168H108.743Z" fill="#808080" stroke="#262626" stroke-width="5.00031" stroke-linecap="round" stroke-linejoin="round"/>
<path d="M13.5038 2.50006L5.01904 33.2908L7.5965 46.1476L13.1259 47.1601L15.5581 42.1349L34.046 50.1467L35.223 30.5916L62.2989 37.4093L44.4338 18.5146L50.8565 12.5087L13.5038 2.50006Z" fill="#808080" stroke="#262626" stroke-width="5.00031" stroke-linecap="round" stroke-linejoin="round"/>
<path d="M2.50024 90.855L47.3834 91.1733L69.08 74.4881L47.3317 48.056L24.0133 62.6053L26.5476 48.8143L13.2491 33.8369L2.50024 42.4076V90.855Z" fill="#ADADAD" stroke="#262626" stroke-width="5.00031" stroke-linecap="round" stroke-linejoin="round"/>
<path d="M2.50024 90.855L47.3834 91.1733L69.08 74.4881L47.3317 48.056L24.0133 62.6053L26.5476 48.8143L13.2491 33.8369L2.50024 42.4076V90.855Z" stroke="#262626" stroke-width="5.00031" stroke-linecap="round" stroke-linejoin="round"/>
<path d="M98.1144 2.50006L82.5011 7.84143L55.6476 17.0281L43.425 38.4086L72.5582 56.3782L86.9035 36.1924L97.1052 46.9932L103.927 39.8347L106.767 27.7933L98.1144 2.50006Z" fill="#ADADAD" stroke="#262626" stroke-width="5.00031" stroke-linecap="round" stroke-linejoin="round"/>
<path d="M15 84C17.7614 84 20 81.7614 20 79C20 76.2386 17.7614 74 15 74C12.2386 74 10 76.2386 10 79C10 81.7614 12.2386 84 15 84Z" fill="#AAFA1E" stroke="#2E2E2E" stroke-width="3" stroke-linecap="round" stroke-linejoin="round"/>
<path d="M97 79C99.7614 79 102 76.7614 102 74C102 71.2386 99.7614 69 97 69C94.2386 69 92 71.2386 92 74C92 76.7614 94.2386 79 97 79Z" fill="#AAFA1E" stroke="#2E2E2E" stroke-width="3" stroke-linecap="round" stroke-linejoin="round"/>
</g>
<defs>
<clipPath id="clip0_3711_15329">
<rect width="111.561" height="103.143" fill="white"/>
</clipPath>
</defs>
</svg>
