<svg width="112" height="104" viewBox="0 0 112 104" fill="none" xmlns="http://www.w3.org/2000/svg">
<g clip-path="url(#clip0_3618_3875)">
<path d="M108.743 85.9168L109.061 44.418L98.2892 54.1615L72.1856 41.0853L80.4929 64.4037L52.575 64.8261L74.7217 78.4532L66.8658 85.9168H108.743Z" fill="#95A3C1" stroke="#182237" stroke-width="5.00031" stroke-linecap="round" stroke-linejoin="round"/>
<path d="M13.5036 2.50006L5.0188 33.2908L7.59626 46.1476L13.1256 47.1601L15.5578 42.1349L34.0457 50.1467L35.2227 30.5916L62.2987 37.4093L44.4335 18.5146L50.8563 12.5087L13.5036 2.50006Z" fill="#95A3C1" stroke="#182237" stroke-width="5.00031" stroke-linecap="round" stroke-linejoin="round"/>
<path d="M2.50012 90.855L47.3833 91.1733L69.0799 74.4881L47.3316 48.056L24.0131 62.6053L26.5475 48.8143L13.249 33.8369L2.50012 42.4076V90.855Z" fill="#D3E1FF" stroke="#182237" stroke-width="5.00031" stroke-linecap="round" stroke-linejoin="round"/>
<path d="M2.50012 90.855L47.3833 91.1733L69.0799 74.4881L47.3316 48.056L24.0131 62.6053L26.5475 48.8143L13.249 33.8369L2.50012 42.4076V90.855Z" stroke="#182237" stroke-width="5.00031" stroke-linecap="round" stroke-linejoin="round"/>
<path d="M98.1144 2.50006L82.5011 7.84143L55.6476 17.0281L43.425 38.4086L72.5582 56.3782L86.9035 36.1924L97.1052 46.9932L103.927 39.8347L106.767 27.7933L98.1144 2.50006Z" fill="#D3E1FF" stroke="#182237" stroke-width="5.00031" stroke-linecap="round" stroke-linejoin="round"/>
<path d="M37.9735 83.3086L32.0941 67.873L19.1161 71.4757L15.376 86.0277L30.5753 99.878C35.4603 96.085 41.1312 94.8335 48.1062 93.7957L37.9735 83.3086Z" fill="white" stroke="#182237" stroke-width="5.00001" stroke-linecap="square"/>
<path d="M88.8876 96.6275L100.803 89.0384L97.3774 79.4076L87.1682 71.1002L84.3313 82.5015L73.5128 90.8852L88.8876 96.6275Z" fill="white" stroke="#182237" stroke-width="5.00001" stroke-linecap="square"/>
</g>
<defs>
<clipPath id="clip0_3618_3875">
<rect width="111.561" height="103.143" fill="white"/>
</clipPath>
</defs>
</svg>
