<svg width="125" height="125" viewBox="0 0 125 125" fill="none" xmlns="http://www.w3.org/2000/svg">
<path opacity="0.8" d="M74.4302 16.4827C77.5732 16.2841 80.7505 17.1391 83.4568 18.75C86.1631 20.3608 88.4033 22.7072 90.0315 25.403C93.2881 30.7945 94.0464 37.4015 93.3581 43.6625C92.6123 50.4464 90.2865 56.9563 89.1265 63.6817C88.5464 67.0444 88.2596 70.4799 88.6182 73.8734C88.9767 77.2668 90.0018 80.6267 91.8885 83.4702C94.3601 87.1953 98.1274 89.8181 101.506 92.7454C103.196 94.2091 104.813 95.7772 106.118 97.5926C107.422 99.4078 108.407 101.488 108.726 103.7C109.026 105.787 108.717 107.961 107.833 109.875C106.949 111.79 105.493 113.438 103.695 114.54C101.252 116.037 98.2731 116.49 95.4177 116.253C92.5622 116.016 89.8007 115.13 87.1237 114.109C84.4469 113.087 81.82 111.922 79.0787 111.088C76.3375 110.255 73.4454 109.757 70.6026 110.115C67.513 110.503 64.6281 111.882 61.9913 113.539C59.3547 115.196 56.911 117.143 54.2946 118.832C51.6783 120.521 48.8354 121.967 45.762 122.468C44.2252 122.719 42.6422 122.727 41.1172 122.414C39.592 122.1 38.1261 121.458 36.909 120.487C35.6109 119.452 34.6167 118.057 33.9744 116.526C33.332 114.995 33.0346 113.33 33.013 111.669C32.9694 108.348 34.0085 105.104 35.3235 102.054C36.6383 99.0042 38.2396 96.0783 39.4184 92.9735C40.5972 89.8685 41.3485 86.5114 40.8666 83.2254C40.251 79.0287 37.6538 75.3159 34.4032 72.5912C31.1526 69.8664 27.2696 68.0164 23.3742 66.338C19.4789 64.6595 15.5017 63.1114 11.8919 60.8841C8.28211 58.6569 5.00941 55.6658 3.22107 51.8197C2.01314 49.2218 1.52722 46.3198 1.6046 43.4559C1.68198 40.5919 2.30945 37.7612 3.2419 35.0522C5.10682 29.6341 8.16069 24.7203 10.7416 19.6044C12.3315 16.4528 13.7547 13.1996 15.7168 10.2653C17.6791 7.33103 20.2584 4.68658 23.5187 3.33364C25.5549 2.48869 27.7971 2.17782 29.9963 2.33195C32.1955 2.48608 34.3518 3.09785 36.3515 4.02584C40.351 5.88182 43.671 8.95476 46.5237 12.3166C47.7281 13.7356 48.8643 15.2172 50.1773 16.5364C51.4903 17.8556 53.0033 19.0205 54.751 19.6608C56.3365 20.2416 58.0632 20.3692 59.7444 20.2119C61.4256 20.0546 63.0693 19.6203 64.6769 19.1044C67.8925 18.0726 71.0599 16.6954 74.4302 16.4827Z" fill="#AAFA1E" stroke="#65CB11" stroke-width="2.47525"/>
<path d="M26.2561 62.2827L58.4402 118.027L56.7433 110.821L59.8329 113.63L61.8906 114.368L59.3402 107.298L62.2374 107.531L62.8167 106.5L67.7896 112.031L63.2295 99.9268L67.6021 103.24L74.0605 109.009L41.8765 53.2643L46.308 67.2099L37.4311 56.0434L40.0258 64.4914L36.612 65.784L38.0352 72.4271L29.254 60.5519L33.0494 69.773L26.2561 62.2827Z" fill="#9E7437" stroke="#3F2E16" stroke-width="2" stroke-linecap="round"/>
<path d="M68.4733 50.8339L12.7246 18.6474L20.366 25.9444L10.0046 23.5948L21.9976 34.9628L6.89212 29.0932L17.0123 38.7139L3.7063 34.2676L59.455 66.4541L51.4787 56.1388L62.2719 60.4982L52.4427 52.3862L50.8075 48.9572L66.2914 54.6131L66.3235 54.5574L59.8025 48.5042L68.4733 50.8339Z" fill="#9E7437" stroke="#3F2E16" stroke-width="2" stroke-linecap="round"/>
<path d="M93.3305 117.638L109.991 55.4584L102.943 70.9645L104.933 54.4967L96.5449 71.3398L98.6543 52.4206L98.5788 52.4002L90.2197 69.243L92.5694 50.79L75.9084 112.97L84.029 97.2364L83.1063 111.964L89.2856 97.0156L90.5161 97.8519L88.9579 109.57L91.2724 110.201L92.998 107.441L93.3305 117.638Z" fill="#9E7437" stroke="#3F2E16" stroke-width="2" stroke-linecap="round"/>
<path d="M71.9678 65.9119L117.483 20.3968L112.01 22.3337L112.263 18.6973L109.021 19.0541L109.422 15.4177L105.362 16.2886L106.523 12.6555L100.119 15.7214L104.729 7.64282L59.2139 53.1579L68.993 48.2114L74.9253 45.691L75.0739 47.718L77.1106 46.987L70.3302 56.9407L69.7749 60.9534L73.7779 60.5858L71.9678 65.9119Z" fill="#9E7437" stroke="#3F2E16" stroke-width="2" stroke-linecap="round"/>
<path d="M28.5077 89.3139L84.2521 57.1298L73.1373 59.587L77.7935 52.983L71.5995 55.2486L70.767 52.8159L75.2256 50.2133L67.021 49.1803L75.2337 41.5095L19.4893 73.6935L22.2421 76.1793L24.6692 77.1317L45.1644 68.4954L29.9104 78.0072L28.9713 79.8316L31.3751 81.0595L46.3365 73.9428L28.5077 89.3139Z" fill="#9E7437" stroke="#3F2E16" stroke-width="2" stroke-linecap="round"/>
</svg>
