<svg width="20" height="20" viewBox="0 0 20 20" fill="none" xmlns="http://www.w3.org/2000/svg">
<g clip-path="url(#clip0_2788_5267)">
<path d="M10 20C15.5228 20 20 15.5228 20 10C20 4.47715 15.5228 0 10 0C4.47715 0 0 4.47715 0 10C0 15.5228 4.47715 20 10 20Z" fill="#E63946"/>
<path d="M11.4101 10L13.7101 7.71C13.8984 7.5217 14.0042 7.2663 14.0042 7C14.0042 6.7337 13.8984 6.47831 13.7101 6.29C13.5218 6.1017 13.2664 5.99591 13.0001 5.99591C12.7338 5.99591 12.4784 6.1017 12.2901 6.29L10.0001 8.59L7.71006 6.29C7.52176 6.1017 7.26636 5.99591 7.00006 5.99591C6.73376 5.99591 6.47836 6.1017 6.29006 6.29C6.10176 6.47831 5.99597 6.7337 5.99597 7C5.99597 7.2663 6.10176 7.5217 6.29006 7.71L8.59006 10L6.29006 12.29C6.19633 12.383 6.12194 12.4936 6.07117 12.6154C6.0204 12.7373 5.99426 12.868 5.99426 13C5.99426 13.132 6.0204 13.2627 6.07117 13.3846C6.12194 13.5064 6.19633 13.617 6.29006 13.71C6.38302 13.8037 6.49362 13.8781 6.61548 13.9289C6.73734 13.9797 6.86805 14.0058 7.00006 14.0058C7.13207 14.0058 7.26278 13.9797 7.38464 13.9289C7.5065 13.8781 7.6171 13.8037 7.71006 13.71L10.0001 11.41L12.2901 13.71C12.383 13.8037 12.4936 13.8781 12.6155 13.9289C12.7373 13.9797 12.868 14.0058 13.0001 14.0058C13.1321 14.0058 13.2628 13.9797 13.3846 13.9289C13.5065 13.8781 13.6171 13.8037 13.7101 13.71C13.8038 13.617 13.8782 13.5064 13.929 13.3846C13.9797 13.2627 14.0059 13.132 14.0059 13C14.0059 12.868 13.9797 12.7373 13.929 12.6154C13.8782 12.4936 13.8038 12.383 13.7101 12.29L11.4101 10Z" fill="white"/>
</g>
<defs>
<clipPath id="clip0_2788_5267">
<rect width="20" height="20" fill="white"/>
</clipPath>
</defs>
</svg>
