<svg width="123" height="23" viewBox="0 0 123 23" fill="none" xmlns="http://www.w3.org/2000/svg">
<g clip-path="url(#clip0_177_314)">
<path d="M49.7 6.81V11.81C49.7 12.81 48.8 13.71 47.7 13.71H3.5C2.4 13.71 1.5 12.81 1.5 11.81V6.81C1.5 5.81 2.4 4.91 3.5 4.91H47.6C48.8 5.01 49.7 5.81 49.7 6.81Z" fill="#0ACEF9" stroke="#1283A6" stroke-width="3" stroke-linecap="round"/>
<path d="M75.3 15.31H27.4L26.2 13.01V5.51001L27.4 3.21001H75.3V15.31Z" fill="#434343" stroke="#171717" stroke-width="3" stroke-linecap="round"/>
<path d="M30.3 2.50999L26.8 2.60999V16.41L30.3 16.51V12.21L31.8 11.21V7.20999L30.3 6.20999V2.50999Z" fill="#1A1A1A"/>
<path d="M63.8 16.51V22.61C63.7 22.71 63.6 22.81 63.5 22.81H62.7C62.6 22.81 62.5 22.71 62.4 22.61V21.01C62.4 20.51 62.4 20.01 62.1 19.61C61.4 18.61 60.4 18.31 59.9 17.81C59.6 17.51 59.7 16.81 59.4 16.51H63.8Z" fill="#171717"/>
<path d="M120.02 6.00999H100.98C100.218 6.00999 99.6 6.62784 99.6 7.38999V11.13C99.6 11.8921 100.218 12.51 100.98 12.51H120.02C120.782 12.51 121.4 11.8921 121.4 11.13V7.38999C121.4 6.62784 120.782 6.00999 120.02 6.00999Z" fill="#3C3C3C" stroke="#171717" stroke-width="3" stroke-linecap="round"/>
<path d="M71.9 3.41V15.01H60.8V12.21L67.9 10.61V7.91L60.8 6.31V3.41H71.9Z" fill="#505050" stroke="#171717" stroke-width="1.5" stroke-linecap="round"/>
<path d="M75.3 15.31H27.4L26.2 13.01V5.51001L27.4 3.21001H75.3V15.31Z" stroke="#171717" stroke-width="3" stroke-linecap="round"/>
<path d="M105.8 7.51V10.91C105.8 13.51 104.1 15.71 101.6 15.81L77.4 17.11C76.2 17.11 75.2 16.11 75.2 14.81V3.81C75.2 2.51 76.2 1.41 77.4 1.51L101.6 2.81C104.1 2.81 105.8 4.91 105.8 7.51Z" fill="#0ACEF9" stroke="#1283A6" stroke-width="3" stroke-linecap="round"/>
<path d="M59.47 11.88H32.61" stroke="#1A1A1A" stroke-width="1.5" stroke-linecap="round"/>
<path d="M59.47 6.82001H32.61" stroke="#1A1A1A" stroke-width="1.5" stroke-linecap="round"/>
</g>
<defs>
<clipPath id="clip0_177_314">
<rect width="122.9" height="22.81" fill="white"/>
</clipPath>
</defs>
</svg>
