<svg width="72" height="73" viewBox="0 0 72 73" fill="none" xmlns="http://www.w3.org/2000/svg">
  <g clip-path="url(#clip0_107_8957)">
    <mask id="mask0_107_8957" style="mask-type:luminance" maskUnits="userSpaceOnUse" x="0" y="0" width="72" height="73">
      <path d="M72 0.0285645H0V72.0286H72V0.0285645Z" fill="white" />
    </mask>
    <g mask="url(#mask0_107_8957)">
      <path d="M54.8895 21.4404L55.726 20.9574L54.9759 19.6582L54.1497 20.1352L54.8895 21.4404Z" fill="#3A3A3A"
        stroke="#333333" stroke-width="0.572369" />
      <path d="M67.5904 12.5156L55.0369 19.7634L55.7059 20.9221L68.4033 13.5914L68.1579 13.4988L67.5904 12.5156Z"
        fill="#393939" stroke="#333333" stroke-width="0.572369" />
      <path
        d="M55.726 20.9574L54.8895 21.4404L54.1497 20.1352L54.9759 19.6582L55.0367 19.7635L67.5904 12.5157L68.1578 13.4989L68.4026 13.5916L55.7057 20.9222L55.726 20.9574Z"
        stroke="#333333" stroke-width="1.14474" />
      <path d="M53.7903 19.4999L54.9627 18.823L53.9694 17.1024L52.8105 17.7714L53.7903 19.4999Z" fill="#3A3A3A" />
      <path d="M54.1502 20.1353L54.9765 19.6582L54.6115 19.0262L53.7903 19.5003L54.1502 20.1353Z" fill="#333333" />
      <path d="M33.7236 36.937L34.1766 36.4648L34.528 36.8706L33.8858 37.2179L33.7236 36.937Z" fill="#363636" />
      <path
        d="M34.0049 36.243C36.1498 39.0642 38.1615 40.7701 40.5318 42.0234C43.1658 43.4162 45.9655 44.5981 50.5853 44.6932L50.9348 39.0137C48.0751 38.8856 46.1284 38.3579 44.2943 37.4868C42.434 36.6031 40.6756 35.3805 38.8678 33.1452L34.0049 36.243Z"
        fill="#3D3D3D" />
      <path
        d="M50.8574 40.4202C47.7083 40.2658 45.2719 39.4793 43.0515 38.4581C40.9878 37.5089 39.1972 36.0721 37.4106 34.0731L38.8652 33.1466C40.6768 35.3905 42.4385 36.6162 44.3027 37.5016C46.1367 38.3728 48.0833 38.9005 50.943 39.0285L50.8574 40.4202Z"
        fill="#3D3D3D" />
      <path
        d="M27.8147 40.1862L29.4615 39.1371C29.1265 39.8309 29.3067 40.3038 29.5215 40.5813C29.7368 40.8596 29.9962 41.1032 30.8856 40.9409C31.055 40.9099 31.1078 41.1636 30.8918 41.1948C29.8301 41.3482 29.4153 41.2073 28.8788 40.3438C28.4529 40.5279 28.2095 40.4817 27.8147 40.1862Z"
        fill="#383838" stroke="#333333" stroke-width="0.572369" />
      <path
        d="M31.9498 37.5525L33.5579 36.5281L34.5344 38.1793C34.656 38.39 34.5224 38.8885 34.3118 39.0101L33.4339 39.517C33.6366 39.8681 33.3376 40.4855 33.1094 40.6173L29.9571 42.5777C29.5534 42.8108 28.8306 42.5726 28.7089 42.3619L27.5671 40.3443L27.7556 40.2243L28.798 42.0296C28.9804 42.3456 29.5695 42.4737 29.8679 42.3015L32.9249 40.4194C33.2058 40.2573 33.2968 39.8067 33.2057 39.6487L31.9498 37.5525Z"
        fill="#3D3D3D" stroke="#333333" stroke-width="0.572369" />
      <path
        d="M6.46524 61.4539C4.43767 58.4366 3.14857 56.8748 0.551881 54.3338C0.551881 54.3338 0.445806 54.2312 0.515311 54.0272C0.570431 53.8654 0.813063 53.6915 0.813063 53.6915C0.813063 53.6915 5.85708 49.6556 6.43846 49.2029C7.03599 48.7376 10.7769 45.9724 11.1105 45.7798C11.4441 45.5872 11.4086 45.5257 12.6983 45.4483C13.9112 45.0758 14.3244 44.6968 14.3244 44.6968L19.7575 40.4832L22.3291 43.6803L16.836 50.2227C16.836 50.2227 10.9554 57.3022 8.57882 60.0464C8.06579 60.6388 7.69165 60.9483 7.6025 61.0315C7.20683 61.4004 7.0839 61.4713 7.0839 61.4713C7.0839 61.4713 6.93604 61.5801 6.74491 61.5734C6.55372 61.5667 6.46524 61.4539 6.46524 61.4539Z"
        fill="#0ACEF9" stroke="#1283A6" stroke-width="1.14474" />
      <path
        d="M0.552613 54.3339C3.14929 56.8749 4.4384 58.4367 6.46597 61.4541C6.46597 61.4541 6.55448 61.5668 6.74561 61.5735C6.87141 61.5779 6.99119 61.5334 7.09474 61.465C6.54571 60.5755 5.97343 59.6547 5.69667 59.2295C5.18321 58.4409 4.23048 57.2804 3.59484 56.506C3.46255 56.3449 3.344 56.2005 3.246 56.0797C2.84064 55.5798 1.53844 54.3499 0.823189 53.684C0.816978 53.689 0.813796 53.6915 0.813796 53.6915C0.813796 53.6915 0.571163 53.8655 0.516043 54.0273C0.446539 54.2314 0.552613 54.3339 0.552613 54.3339Z"
        fill="#3C3C3C" stroke="#333333" stroke-width="1.14474" />
      <path d="M20.1968 38.2402L19.9831 39.2087L19.4697 39.4559L19.564 38.6056L20.1968 38.2402Z" fill="#404040"
        stroke="#333333" stroke-width="0.572369" />
      <path d="M32.2249 31.9511L39.002 28.0383L39.4885 28.881L32.7114 32.7938L32.2249 31.9511Z" fill="#484848" />
      <path d="M38.5557 28.399L38.812 28.251L39.2337 28.9814L38.9774 29.1294L38.5557 28.399Z" fill="#404040" />
      <path d="M54.0281 17.2085L57.2762 15.3331L58.2087 16.9484L54.9606 18.8237L54.0281 17.2085Z" fill="#363636" />
      <path
        d="M57.2764 15.3331L56.6443 15.698L56.7659 15.9087L54.1499 17.4191L54.4135 17.8756L57.0295 16.3652L57.1714 16.6111L54.5554 18.1214L54.8189 18.5779L57.4349 17.0675L57.5769 17.3133L58.2089 16.9484L57.2764 15.3331Z"
        fill="#3B3B3B" />
      <path d="M40.8555 27.4363L41.347 27.1525L43.3541 30.6288L42.7206 30.6668L40.8555 27.4363Z" fill="#424242"
        stroke="#333333" stroke-width="1.14474" />
      <path
        d="M43.4158 22.8681C43.3144 22.6925 43.5724 22.45 43.7912 22.4641L45.1089 24.7465L44.6524 25.0101L43.4158 22.8681Z"
        fill="#424242" />
      <path d="M43.5355 23.0798L43.2549 23.2419L44.3699 25.1731L44.6505 25.0111L43.5355 23.0798Z" fill="#3B3B3B" />
      <path
        d="M43.7893 22.4644C43.5704 22.4503 43.3125 22.6929 43.4139 22.8684L43.5355 23.0791L43.2549 23.2412L44.3699 25.1724L45.107 24.7468L43.7893 22.4644Z"
        stroke="#333333" stroke-width="0.572369" />
      <path
        d="M32.2243 31.9507L39.0014 28.0379L38.4946 27.16L32.49 30.6268C32.4548 30.6471 31.9397 31.2956 32.2243 31.9507Z"
        fill="#4D4D4D" />
      <path
        d="M39.488 28.8806L32.7108 32.7934L32.2243 31.9507C31.9397 31.2956 32.4548 30.6471 32.49 30.6268L38.4946 27.16L39.488 28.8806Z"
        stroke="#333333" stroke-width="0.572369" />
      <path fill-rule="evenodd" clip-rule="evenodd"
        d="M26.5417 35.6068L32.3478 32.161L32.7127 32.7931L26.2839 36.6093L26.5417 35.6068Z" fill="#363636" />
      <path
        d="M23.1953 44.0461C23.1345 43.9408 23.0608 43.7727 23.0608 43.7727L28.2323 41.2551C28.2323 41.2551 28.6661 42.1283 28.7067 42.1985C28.7472 42.2687 28.7297 42.2789 28.6926 42.4173C28.5806 42.6693 28.5954 42.6139 28.4705 42.803C28.3834 43.0172 28.3713 43.1178 28.372 43.2812C28.3903 43.4345 28.5392 48.6392 28.785 48.4972C28.785 48.4972 29.1709 48.6021 29.4288 49.0853C29.6867 49.5684 29.5986 49.947 29.5986 49.947C29.5986 49.947 29.1159 50.5301 28.4339 50.9706C27.531 51.5153 27.0461 51.608 27.0461 51.608C27.0461 51.608 26.4632 51.7338 25.9559 51.3011C25.4485 50.8683 25.2261 50.0369 25.2261 50.0369C25.0368 48.8366 24.7368 46.4504 24.5668 45.408C24.5668 45.408 24.5255 45.1743 24.4444 45.0339C24.4444 45.0339 24.2967 44.7374 23.8107 44.4633C23.3248 44.1893 23.3271 44.2744 23.1953 44.0461Z"
        fill="#0ACEF9" />
      <path
        d="M23.0608 43.7727C23.0608 43.7727 23.1345 43.9408 23.1953 44.0461M23.0608 43.7727L28.2323 41.2551C28.2323 41.2551 28.6661 42.1283 28.7067 42.1985C28.7472 42.2687 28.7297 42.2789 28.6926 42.4173C28.5806 42.6693 28.5954 42.6139 28.4705 42.803C28.3834 43.0172 28.3713 43.1178 28.372 43.2812C28.3903 43.4345 28.5392 48.6392 28.785 48.4972C28.785 48.4972 29.1709 48.6021 29.4288 49.0853C29.6867 49.5684 29.5986 49.947 29.5986 49.947C29.5986 49.947 29.1159 50.5301 28.4339 50.9706C27.531 51.5153 27.0461 51.608 27.0461 51.608C27.0461 51.608 26.4632 51.7338 25.9559 51.3011C25.4485 50.8683 25.2261 50.0369 25.2261 50.0369C25.0368 48.8366 24.7368 46.4504 24.5668 45.408C24.5668 45.408 24.5255 45.1743 24.4444 45.0339C24.4444 45.0339 24.2967 44.7374 23.8107 44.4633C23.3248 44.1893 23.3271 44.2744 23.1953 44.0461M23.0608 43.7727L23.1953 44.0461"
        stroke="#1283A6" stroke-width="1.14474" />
      <path d="M22.8472 43.351L27.71 40.2532L28.2328 41.2556L23.0614 43.7732L22.8472 43.351Z" fill="#484848"
        stroke="#333333" stroke-width="1.14474" />
      <path
        d="M22.3289 43.6806L19.7573 40.4835L32.7112 32.7938L39.4884 28.8811L38.941 27.933L40.5914 26.9801L42.7302 30.6847L33.546 36.5352L33.4994 36.9972L32.1428 37.8507L31.5347 37.8164L22.3289 43.6806Z"
        fill="#454545" />
      <path d="M33.7309 35.857L33.2744 36.1206L33.3555 36.2611L33.812 35.9975L33.7309 35.857Z" fill="#424242" />
      <path
        d="M41.0906 29.2345L35.0055 33.1261C34.8748 33.2097 34.8366 33.3834 34.9202 33.5141L35.4464 34.3369C35.53 34.4677 35.7037 34.5059 35.8345 34.4223L41.9196 30.5307C42.0503 30.4471 42.0885 30.2733 42.0049 30.1426L41.4787 29.3198C41.3951 29.1891 41.2213 29.1509 41.0906 29.2345Z"
        fill="#404040" />
      <path
        d="M48.9905 44.6141L49.1171 43.2946C49.1253 43.2089 49.0625 43.1327 48.9768 43.1245C48.8911 43.1163 48.815 43.1791 48.8067 43.2648L48.6799 44.5867C48.7825 44.5964 48.886 44.6056 48.9905 44.6141Z"
        fill="#3B3B3B" />
      <path
        d="M49.557 44.6534L49.7445 42.6996C49.7538 42.6024 49.6826 42.516 49.5854 42.5067C49.4882 42.4974 49.4018 42.5687 49.3925 42.6658L49.2041 44.6302C49.3205 44.6387 49.4382 44.6464 49.557 44.6534Z"
        fill="#3B3B3B" />
      <path
        d="M49.4495 40.3049C49.3218 40.2902 49.1953 40.2743 49.0701 40.2574L49.1451 39.475C49.1552 39.3699 49.2486 39.293 49.3536 39.303C49.4587 39.3131 49.5357 39.4065 49.5256 39.5115L49.4495 40.3049Z"
        fill="#383838" />
      <path
        d="M50.0442 40.3645L50.0916 39.6188C50.0983 39.5135 50.1891 39.4335 50.2944 39.4402C50.3998 39.4469 50.4797 39.5377 50.4731 39.643L50.4253 40.3941C50.2971 40.3853 50.1701 40.3755 50.0442 40.3645Z"
        fill="#383838" />
      <path
        d="M50.182 44.6818L50.2673 43.3397C50.2723 43.2619 50.2132 43.1947 50.1353 43.1897C50.0575 43.1848 49.9903 43.2439 49.9854 43.3218L49.8997 44.6704C49.993 44.6746 50.0871 44.6784 50.182 44.6818Z"
        fill="#3B3B3B" />
      <path
        d="M33.9224 38.7421C34.0679 38.6581 34.1177 38.4721 34.0338 38.3267C33.9498 38.1812 33.7638 38.1314 33.6183 38.2154C33.4729 38.2994 33.4231 38.4853 33.507 38.6308C33.591 38.7762 33.777 38.8261 33.9224 38.7421Z"
        fill="#383838" />
      <path
        d="M33.9568 39.2139L34.1353 39.2747L34.5813 40.0472C34.6522 40.1701 34.8555 40.0762 34.8095 39.9155L34.4561 38.8495C34.4148 38.9207 34.3651 38.9781 34.3101 39.0099L33.9568 39.2139Z"
        fill="#383838" stroke="#333333" stroke-width="0.572369" />
      <path
        d="M36.0054 35.9016C35.8017 35.6916 35.5011 35.9821 35.657 36.1496C37.6279 38.2657 39.4197 39.6401 41.3331 40.6679C43.2561 41.7009 45.4092 42.458 48.2352 42.9332C48.5204 42.9812 48.5948 42.5618 48.2911 42.503C45.4975 41.9622 43.5124 41.2306 41.6934 40.2725C39.7476 39.2477 37.9709 37.9272 36.0054 35.9016Z"
        fill="#3B3B3B" />
      <path
        d="M36.743 35.3481C36.5392 35.1381 36.2386 35.4286 36.3946 35.5961C38.3654 37.7121 39.9378 38.9193 41.8511 39.9471C43.7742 40.9802 45.5475 41.6054 48.3735 42.0806C48.6587 42.1285 48.7331 41.7091 48.4295 41.6503C45.6358 41.1096 44.0306 40.5565 42.2117 39.5985C40.2659 38.5736 38.7084 37.3737 36.743 35.3481Z"
        fill="#3B3B3B" />
      <path
        d="M37.4962 34.8661C37.2924 34.656 36.9918 34.9467 37.1478 35.1141C38.9908 37.2207 40.7862 38.359 42.6995 39.3868C44.6225 40.4198 45.6906 40.7967 48.5167 41.2719C48.8019 41.3199 48.8762 40.9005 48.5726 40.8417C45.779 40.301 44.8789 39.9961 43.0601 39.0381C41.1142 38.0133 39.4616 36.8916 37.4962 34.8661Z"
        fill="#3B3B3B" />
      <path
        d="M49.0698 40.2574L48.839 42.6635C48.8289 42.7686 48.906 42.8619 49.011 42.872C49.1161 42.8821 49.2094 42.8051 49.2195 42.7L49.4493 40.3049C49.3216 40.2901 49.1952 40.2743 49.0698 40.2574Z"
        fill="#3B3B3B" />
      <path
        d="M50.4248 40.395C50.2965 40.3862 50.1695 40.3763 50.0436 40.3654L49.8878 42.8164C49.8811 42.9218 49.9611 43.0126 50.0665 43.0192C50.1718 43.026 50.2626 42.946 50.2693 42.8407L50.4248 40.395Z"
        fill="#3B3B3B" />
      <path
        d="M43.1558 23.0655L37.5725 26.289L37.9375 26.9211L38.2535 26.7386L38.9428 27.9325L40.5932 26.9796L40.8567 27.4361L44.4735 25.348L43.1558 23.0655Z"
        fill="#4A4A4A" stroke="#333333" stroke-width="0.572369" />
      <path
        d="M39.3985 25.2348L37.5725 26.289L37.755 26.605L39.2197 25.736C39.4101 25.5792 39.4647 25.4306 39.3985 25.2348Z"
        fill="#424242" />
      <path
        d="M55.3386 22.2344C55.4298 22.3924 55.0673 22.8592 54.8457 22.7999L51.9966 17.7029C52.3828 17.4799 52.728 17.6318 52.8091 17.7723L55.3386 22.2344Z"
        fill="#424242" stroke="#333333" stroke-width="1.14474" />
      <path
        d="M54.883 17.5112C54.9605 17.4664 54.9871 17.3672 54.9423 17.2896C54.8975 17.2121 54.7984 17.1855 54.7208 17.2303C54.6432 17.2751 54.6166 17.3743 54.6614 17.4518C54.7062 17.5294 54.8054 17.556 54.883 17.5112Z"
        fill="#363636" />
      <path
        d="M55.5504 17.1264C55.628 17.0816 55.6546 16.9824 55.6098 16.9048C55.565 16.8273 55.4658 16.8007 55.3883 16.8455C55.3107 16.8903 55.2841 16.9895 55.3289 17.067C55.3737 17.1446 55.4729 17.1712 55.5504 17.1264Z"
        fill="#363636" />
      <path
        d="M56.2165 16.7409C56.294 16.6961 56.3206 16.5969 56.2758 16.5194C56.231 16.4418 56.1319 16.4152 56.0543 16.46C55.9767 16.5048 55.9501 16.604 55.9949 16.6816C56.0397 16.7591 56.1389 16.7857 56.2165 16.7409Z"
        fill="#363636" />
      <path
        d="M56.8837 16.3555C56.9613 16.3107 56.9879 16.2115 56.9431 16.134C56.8983 16.0564 56.7991 16.0298 56.7215 16.0746C56.6439 16.1194 56.6174 16.2186 56.6621 16.2962C56.7069 16.3737 56.8061 16.4003 56.8837 16.3555Z"
        fill="#363636" />
      <path
        d="M70.6313 12.4489L71.1183 11.9777L71.0777 11.9075L71.3939 11.725L71.4345 11.7952L71.7153 11.633L70.9652 10.3338L70.6844 10.496L70.7452 10.6013L70.4291 10.7838L70.3682 10.6784L70.2281 10.7595L70.1064 10.5489L69.7202 10.7719L70.5109 12.1413L70.6313 12.4489Z"
        fill="#373737" stroke="#333333" stroke-width="0.572369" />
      <path
        d="M55.2186 22.0197L69.8179 13.3856C69.738 13.366 69.6536 13.3363 69.5632 13.2965L69.2772 13.3267L55.0579 21.7362L55.2186 22.0197Z"
        fill="#383838" stroke="#333333" stroke-width="0.572369" />
      <path
        d="M59.1741 14.2383L57.2778 15.333L58.2104 16.9483L59.2287 16.3603C59.563 16.3312 59.8279 16.506 60.0407 16.8747L60.8111 18.2091C60.9678 18.4806 61.2993 18.5826 61.5514 18.4371C61.8036 18.2916 61.8809 17.9535 61.7241 17.682L63.7256 16.5264L62.8133 14.9462C62.8133 14.9462 61.8477 15.5038 60.6893 15.1192C59.5308 14.7346 59.1741 14.2383 59.1741 14.2383Z"
        fill="#3C3C3C" />
      <path
        d="M54.0302 17.2078L57.2782 15.3325L59.1745 14.2377C59.1745 14.2377 59.5312 14.734 60.6897 15.1186C61.8481 15.5031 62.8138 14.9457 62.8138 14.9457L63.7261 16.5258L61.7245 17.6813C61.8813 17.9528 61.8039 18.291 61.5519 18.4365C61.2997 18.5821 60.9683 18.48 60.8115 18.2085L60.0412 16.8741C59.8283 16.5054 59.5635 16.3306 59.2291 16.3597L58.2108 16.9477L53.7903 19.4999L52.8105 17.7714L53.9694 17.1024L54.0302 17.2078Z"
        stroke="#333333" stroke-width="1.14474" />
      <path fill-rule="evenodd" clip-rule="evenodd"
        d="M66.9221 8.64054L67.4085 12.199L68.1586 13.4983L68.4282 13.6002L68.9676 13.3589L69.5632 13.2959C70.1602 13.5598 70.5241 13.3778 70.7578 12.77L70.511 12.1399L68.19 8.1194C68.19 8.1194 67.8365 7.7501 67.3168 7.94476C66.7971 8.13942 66.9221 8.64054 66.9221 8.64054ZM68.4466 11.4828L69.2543 11.0165C69.3943 10.9354 69.3989 10.8625 69.3282 10.7395L69.0749 10.3007C68.9126 10.0197 68.802 9.99002 68.5212 10.1522L67.8889 10.5172C67.7835 10.578 67.5511 10.9462 67.7285 11.2534C67.8961 11.5431 68.3412 11.5436 68.4466 11.4828Z"
        fill="#3C3C3C" stroke="#333333" stroke-width="0.572369" />
      <path
        d="M20.1999 40.4386L19.8525 39.7965L20.5452 36.6576C20.5971 36.4493 20.6519 36.3433 20.8071 36.1787L37.6115 26.3596L37.9359 26.9215L38.2519 26.739L38.4952 27.1604L32.4906 30.6271C32.4555 30.6474 31.9404 31.2959 32.2249 31.951L32.3465 32.1617L26.5405 35.6074L26.187 36.982L20.1999 40.4386Z"
        fill="#474747" stroke="#333333" stroke-width="0.572369" />
      <path
        d="M68.3254 9.93736C68.5484 9.8086 68.6249 9.52342 68.4961 9.30041C68.3673 9.07739 68.0822 9.00098 67.8591 9.12974C67.6361 9.2585 67.5597 9.54368 67.6885 9.7667C67.8172 9.98971 68.1024 10.0661 68.3254 9.93736Z"
        fill="#363636" />
      <path
        d="M34.0042 36.2427C34.0608 36.3173 34.1174 36.391 34.1739 36.464L34.59 36.2065C36.8738 39.028 39.1056 40.7295 41.8705 41.9252C43.595 42.6711 45.5109 43.4051 48.11 43.7305C48.3503 43.7789 48.3894 43.4846 48.2018 43.4434C45.8769 43.1469 44.1131 42.5184 42.5217 41.877C39.7178 40.5782 37.3135 38.938 34.8882 36.022L37.6456 34.3155C39.2017 36.0453 40.5561 36.9722 42.0869 37.9612C43.7558 38.8907 45.8921 39.7673 48.4966 40.1832C48.7802 40.2285 48.8629 39.8445 48.6457 39.7927C46.1309 39.1932 44.2505 38.6475 42.6292 37.7651C41.0362 36.8981 39.4018 35.4577 37.8043 33.822L34.0042 36.2427Z"
        fill="#383838" />
      <path
        d="M37.7515 33.8568C37.8313 33.9315 37.9357 33.9809 38.0406 33.9546L39.0035 33.3519C39.0911 33.2831 39.0874 33.1539 39.0433 33.0339L37.7515 33.8568Z"
        fill="#3D3D3D" />
      <path
        d="M41.3474 27.1525L44.4727 25.3482L44.4524 25.313L45.6112 24.644L45.853 24.7385L48.2759 23.3397L48.315 23.0829L49.86 22.1909L50.1019 22.2854L52.279 21.0285L52.3181 20.7718L53.3715 20.1636L54.8468 22.7999C54.8873 22.8701 54.6598 23.1653 54.4667 23.2768C51.584 25.109 49.9578 26.0906 46.9906 27.8038C46.9906 27.8038 45.9684 28.6281 45.5743 29.1213C45.5198 29.1895 45.452 29.2842 45.3749 29.392C45.1346 29.728 44.8044 30.1897 44.51 30.3596C44.0535 30.6232 43.7882 30.6397 43.3544 30.6288L41.3474 27.1525Z"
        fill="#0ACEF9" stroke="#1283A6" stroke-width="1.14474" />
      <path
        d="M43.7102 22.324L51.998 17.7029L53.2544 19.9505L52.1968 20.5611L51.9347 20.4315L49.7576 21.6885L49.7388 21.9802L48.1937 22.8723L47.9316 22.7427L45.5087 24.1416L45.4899 24.4333L45.0685 24.6766L43.7102 22.324Z"
        fill="#0ACEF9" stroke="#1283A6" stroke-width="1.14474" />
      <path
        d="M41.4427 23.3056L41.7953 23.102L41.7142 22.9615L42.3813 22.5763C42.5393 22.4852 42.8264 22.5769 42.9075 22.7173L43.1204 23.086L38.573 25.7115L38.6648 25.4244L40.0815 24.5128L40.1448 24.0549L40.8134 23.6688C40.7766 23.4992 40.8409 23.3253 40.9862 23.2414C41.1314 23.1576 41.3142 23.1888 41.4427 23.3056Z"
        fill="#505050" />
      <path
        d="M40.1429 24.0551L37.4917 25.5857L37.3701 25.375L36.9102 25.4299L37.3001 26.0242L37.446 26.0335L40.0796 24.513L40.1429 24.0551Z"
        fill="#484848" />
      <path
        d="M38.8226 25.0515C38.9345 25.2454 38.8681 25.4934 38.6742 25.6054C38.4802 25.7174 38.2323 25.6509 38.1203 25.457C38.0084 25.263 38.0748 25.015 38.2687 24.9031C38.4627 24.7911 38.7106 24.8575 38.8226 25.0515Z"
        fill="#424242" />
      <path fill-rule="evenodd" clip-rule="evenodd"
        d="M38.5936 25.641L38.571 25.7117L43.1184 23.0863L42.9055 22.7176C42.8244 22.5771 42.5373 22.4853 42.3793 22.5766L41.7122 22.9618L41.7933 23.1023L41.4407 23.3058C41.3122 23.189 41.1294 23.1578 40.9842 23.2416C40.8389 23.3255 40.7746 23.4994 40.8114 23.6691L38.6738 24.9033C38.5525 24.8334 38.3982 24.8283 38.2683 24.9033C38.1383 24.9784 38.0656 25.1145 38.0654 25.2545L37.4917 25.5857L37.3701 25.375L36.9102 25.4299L37.3001 26.0241L37.446 26.0335L38.2301 25.5808C38.3333 25.6569 38.4688 25.6808 38.5936 25.641ZM38.8751 25.288L40.0794 24.5131L38.874 25.209C38.8769 25.2354 38.8773 25.2619 38.8751 25.288Z"
        stroke="#333333" stroke-width="0.572369" />
      <path
        d="M41.4627 23.6207C41.5523 23.7759 41.5384 23.9515 41.4317 24.0131C41.3251 24.0747 41.166 23.9989 41.0764 23.8437C40.9868 23.6886 41.0007 23.5129 41.1074 23.4513C41.214 23.3897 41.3731 23.4655 41.4627 23.6207Z"
        fill="#484848" />
      <path
        d="M50.8574 40.4202C47.7083 40.2658 45.2719 39.4793 43.0515 38.4581C40.9878 37.5089 39.1972 36.0721 37.4106 34.0731L38.8652 33.1466C40.6768 35.3905 42.4385 36.6162 44.3027 37.5016C46.1367 38.3728 48.0833 38.9005 50.943 39.0285L50.8574 40.4202Z"
        stroke="#333333" stroke-width="0.572369" />
      <path
        d="M34.0049 36.243C36.1498 39.0642 38.1615 40.7701 40.5318 42.0234C43.1658 43.4162 45.9655 44.5981 50.5853 44.6932L50.9348 39.0137C48.0751 38.8856 46.1284 38.3579 44.2943 37.4868C42.434 36.6031 40.6756 35.3805 38.8678 33.1452L34.0049 36.243Z"
        stroke="#333333" stroke-width="1.14474" />
      <path fill-rule="evenodd" clip-rule="evenodd"
        d="M43.1547 23.0657L37.5715 26.2892L37.612 26.3594L20.8077 36.1785C20.6525 36.3431 20.5976 36.449 20.5457 36.6574L19.8531 39.7962L20.1112 40.2735L19.7581 40.4831L22.3296 43.6803L31.5354 37.816L32.1435 37.8504L33.5001 36.997L33.5467 36.5348L42.731 30.6843L40.8557 27.4363L44.4725 25.3481L43.1547 23.0657ZM26.2832 36.6097L32.712 32.7935L39.4891 28.8807L38.4957 27.1602L32.4911 30.6269C32.456 30.6472 31.9408 31.2957 32.2254 31.9508L32.3471 32.1615L26.541 35.6072L26.2832 36.6097Z"
        stroke="#333333" stroke-width="1.14474" />
      <path
        d="M26.4444 37.1835L27.0491 35.7576L33.903 33.2752L34.1856 34.0485L33.5859 34.3479L33.6421 34.5262L32.228 35.483L25.9879 39.6596C25.9487 39.6896 25.9072 39.7174 25.8634 39.7428C25.3204 40.0564 24.625 39.8709 24.3114 39.3279C23.998 38.7849 24.184 38.0906 24.727 37.7771C24.8021 37.7337 24.8801 37.6999 24.9596 37.6753L26.4444 37.1835Z"
        fill="#404040" />
      <path
        d="M29.8296 36.681L30.0816 36.793L32.6415 35.1044L32.1125 34.3095L27.3473 36.0307L26.5717 37.4851L25.0574 38.0277C24.9976 38.0428 24.9575 38.0659 24.9097 38.0935C24.5413 38.3063 24.415 38.7774 24.6277 39.1458C24.8405 39.5144 25.3117 39.6406 25.6801 39.4278C25.7081 39.4117 25.7346 39.3941 25.7597 39.3751L29.8296 36.681Z"
        fill="#474747" />
      <path
        d="M25.579 39.2522C25.8505 39.0954 25.9436 38.7482 25.7868 38.4767C25.6301 38.2052 25.2829 38.1122 25.0114 38.269C24.7399 38.4257 24.6468 38.7729 24.8036 39.0444C24.9603 39.3159 25.3075 39.4089 25.579 39.2522Z"
        fill="#4D4D4D" />
      <path d="M33.7475 34.6674L33.6184 34.4843L32.1187 35.3737L32.3004 35.5263L33.7475 34.6674Z" fill="#4D4D4D" />
      <path
        d="M32.9826 34.5569C33.0601 34.5121 33.0867 34.4129 33.0419 34.3353C32.9972 34.2578 32.898 34.2312 32.8204 34.276C32.7428 34.3207 32.7162 34.4199 32.761 34.4975C32.8058 34.5751 32.905 34.6017 32.9826 34.5569Z"
        fill="#3B3B3B" />
      <path
        d="M43.1114 23.7186C43.2254 23.5853 43.2491 23.3895 43.1564 23.229C43.0389 23.0254 42.7785 22.9556 42.5749 23.0732C42.5043 23.1139 42.4499 23.1718 42.4137 23.2385L41.619 24.7019L41.3975 24.6425L41.0356 25.2728L41.1924 25.4632C41.3593 25.6712 41.5356 25.7332 41.8293 25.6339L43.1114 23.7186Z"
        fill="#4D4D4D" />
      <path
        d="M43.1202 23.2491C43.2266 23.4333 43.1635 23.6689 42.9792 23.7753C42.795 23.8816 42.5594 23.8185 42.453 23.6343C42.3467 23.4501 42.4098 23.2144 42.594 23.1081C42.7783 23.0017 43.0139 23.0649 43.1202 23.2491Z"
        fill="#424242" />
      <path
        d="M41.2039 25.4772L41.6188 24.7014L41.3972 24.642L41.0354 25.2723L41.1922 25.4627C41.1961 25.4676 41.2 25.4724 41.2039 25.4772Z"
        fill="#575757" />
      <path
        d="M43.1114 23.7186C43.2254 23.5853 43.2491 23.3895 43.1564 23.229C43.0389 23.0254 42.7785 22.9556 42.5749 23.0732C42.5043 23.1139 42.4499 23.1718 42.4137 23.2385L41.619 24.7019L41.3975 24.6425L41.0356 25.2728L41.1924 25.4632C41.3593 25.6712 41.5356 25.7332 41.8293 25.6339L43.1114 23.7186Z"
        stroke="#333333" stroke-width="0.572369" />
      <path
        d="M66.9221 8.64054L67.4085 12.199L68.1586 13.4983L68.4282 13.6002L68.9676 13.3589L69.5632 13.2959C70.1602 13.5598 70.5241 13.3778 70.7578 12.77L70.511 12.1399L68.19 8.1194C68.19 8.1194 67.8365 7.7501 67.3168 7.94476C66.7971 8.13942 66.9221 8.64054 66.9221 8.64054Z"
        stroke="#333333" stroke-width="1.14474" />
      <path d="M54.0281 17.2085L57.2762 15.3331L58.2087 16.9484L54.9606 18.8237L54.0281 17.2085Z" stroke="#333333"
        stroke-width="0.572369" />
      <path
        d="M27.0491 35.7576L26.4444 37.1835L24.9596 37.6753C24.8801 37.6999 24.8021 37.7337 24.727 37.7771C24.184 38.0906 23.998 38.7849 24.3114 39.3279C24.625 39.8709 25.3204 40.0564 25.8634 39.7428C25.9072 39.7174 25.9487 39.6896 25.9879 39.6596L32.228 35.483L32.2392 35.4754L32.2998 35.5263L33.7469 34.6674L33.6377 34.5126L33.5859 34.3479L34.1856 34.0485L33.903 33.2752L27.0491 35.7576Z"
        stroke="#333333" stroke-width="0.572369" />
    </g>
  </g>
  <defs>
    <clipPath id="clip0_107_8957">
      <rect width="72" height="72" fill="white" transform="translate(0 0.0285645)" />
    </clipPath>
  </defs>
</svg>