<svg width="110" height="110" viewBox="0 0 110 110" fill="none" xmlns="http://www.w3.org/2000/svg">
<g clip-path="url(#clip0_3215_9734)">
<mask id="mask0_3215_9734" style="mask-type:luminance" maskUnits="userSpaceOnUse" x="0" y="0" width="110" height="110">
<path d="M0 0H110V110H0V0Z" fill="white"/>
</mask>
<g mask="url(#mask0_3215_9734)">
<path d="M32.3741 49.348C33.0281 48.983 33.7231 48.633 33.9801 48.471C34.9121 47.888 35.3471 49.711 35.8191 50.129C36.0211 50.309 37.1371 49.774 37.2771 49.556L37.2671 49.486C37.2341 49.264 37.2081 49.205 37.3111 49.008C37.5961 48.765 37.9961 48.574 38.3311 48.407C38.8031 48.188 39.2531 47.766 39.7571 47.65C39.9311 47.65 40.0481 47.967 40.2271 47.853C42.3741 46.483 43.9761 44.449 45.7871 42.705C46.1431 42.362 47.7821 41.485 48.3161 41.185C49.4471 40.55 50.6311 39.796 51.7741 39.203C53.6221 40.3 55.6821 43.47 55.6351 45.656C54.3631 46.475 52.9831 47.182 51.6871 47.966C51.0541 48.349 50.3871 48.693 49.7541 49.076C48.8291 49.636 47.8301 49.786 46.8041 50.082C45.2791 50.521 43.6811 50.977 42.2691 51.719C42.4381 52.199 42.6311 52.559 42.8611 53.011C43.0721 52.886 43.4671 52.621 43.6861 52.606L43.7421 52.661C43.9101 52.823 43.9911 52.892 44.2131 52.954C44.3481 52.892 44.4161 52.861 44.5571 52.819C44.6811 52.89 44.6771 52.884 44.7691 52.992C44.9341 52.966 44.9391 52.951 45.0641 52.828C45.0761 52.019 45.7241 52.401 46.2221 52.159C46.3541 51.853 46.5571 51.399 46.9851 51.483L47.1291 51.612C47.3091 51.592 47.2991 51.597 47.4421 51.485C47.4741 51.343 47.4641 51.326 47.4441 51.185C47.8241 50.657 48.1881 51.035 48.6041 50.817L48.6771 50.712L48.6091 50.492C48.9481 50.041 49.4521 50.306 49.8261 50.106C50.0061 49.791 49.6301 49.81 50.0781 49.589C50.3711 49.445 50.4981 49.456 50.8251 49.514C51.1331 49.354 51.4501 48.292 51.9921 48.813C52.1751 48.797 52.1811 48.785 52.3271 48.661C52.3252 48.5587 52.3128 48.4568 52.2901 48.357C52.5331 48.059 52.9041 48.093 53.2481 48.124C53.4781 47.952 53.4781 47.984 53.4581 47.677C53.7401 47.411 54.0741 47.382 54.4401 47.439C54.8731 47.086 54.4211 47.139 54.8581 46.835C55.3241 46.511 55.6791 46.955 55.8831 46.519C55.8321 45.817 56.7141 46.115 57.0781 45.919C57.2311 45.645 56.9011 45.612 57.3281 45.404C57.6111 45.264 57.7321 45.291 58.0501 45.318L58.2371 45.228C58.2851 45.084 58.2751 45.066 58.2651 44.916C58.4951 44.589 58.9251 44.588 59.2771 44.646C59.5071 44.48 59.5171 44.507 59.4971 44.2C59.9201 43.726 60.3101 44.046 60.6911 43.824C60.8761 43.529 60.4851 43.506 61.0111 43.28C61.2871 43.161 61.4341 43.194 61.7211 43.235C61.9411 43.079 61.9481 43.085 61.9131 42.792C62.4691 42.28 62.7461 42.643 63.1061 42.429C63.2371 42.122 62.9001 42.119 63.4161 41.898C63.6961 41.777 63.8651 41.793 64.1611 41.805C64.3781 41.682 64.3881 41.689 64.3051 41.421C64.5421 41.108 65.0021 41.077 65.3581 41.138C65.5681 40.97 65.5531 40.982 65.5291 40.698C65.7821 40.477 66.0251 40.402 66.3581 40.419C66.4234 40.423 66.4888 40.4287 66.5541 40.436C66.7711 40.289 66.7851 40.295 66.7341 40.009C67.0341 39.727 67.3801 39.677 67.7751 39.743C68.0081 39.563 68.0141 39.581 68.0071 39.271C68.3331 38.989 68.6081 38.944 69.0221 39.017C69.2321 38.867 69.2501 38.879 69.2051 38.597C69.4751 38.275 69.8351 38.249 70.2201 38.317C70.4681 38.162 70.4961 38.186 70.4501 37.873C70.7841 37.533 71.0131 37.512 71.4441 37.598C71.9941 37.272 71.5781 36.933 72.3631 36.78C72.4971 36.826 72.4971 36.842 72.5911 36.944C72.9421 37.007 72.9861 37.226 73.1511 37.529C73.4711 37.343 73.8881 37.084 74.2191 36.943C74.8131 37.488 75.4091 38.056 76.0771 38.508L90.1341 30.395L94.6921 27.763C95.4701 27.314 96.4641 26.777 97.1991 26.293C97.2081 26.255 97.2911 25.905 97.2791 25.913C97.9841 25.403 97.2511 25.317 97.2701 24.833C97.4401 24.465 100.357 22.883 100.881 22.582L107.079 19.015C107.251 19.247 107.424 19.49 107.605 19.713C107.808 19.591 108.018 19.453 108.234 19.359L110.346 23.017L109.693 23.376L110.074 24.197C109.336 24.667 108.532 25.103 107.773 25.544C105.499 26.8631 103.222 28.1777 100.942 29.488C99.9991 30.03 100.282 29.588 99.4101 29.265C99.2416 29.2159 99.0607 29.2338 98.9051 29.315C98.0291 29.758 97.1591 30.281 96.3091 30.774L92.0101 33.259L77.7641 41.487C77.8141 42.184 78.0241 43.057 78.1721 43.753C77.3981 44.223 73.7551 46.221 72.2321 47.186L70.8921 47.959L70.8761 47.942C69.9741 48.462 69.0301 48.992 68.1401 49.527L68.1561 49.539L65.1641 51.267L65.1621 51.265L58.5391 55.092C58.7651 56.742 59.0741 57.083 57.6331 58.035C57.3011 59.315 56.5151 59.2 55.6901 58.448L54.8621 58.938C55.0521 60.206 54.7551 60.551 53.9291 61.508C55.261 64.2268 56.676 66.904 58.1721 69.536C57.8621 70.818 56.9071 71.39 55.9471 72.196C55.1367 72.8741 54.3349 73.5625 53.5421 74.261L49.5001 77.787C48.7191 78.473 47.7381 79.384 46.9331 80.005L46.1581 80.096C44.7781 77.514 43.3881 74.686 41.9551 72.163C41.9821 72.655 42.2221 75.134 41.3611 74.971C41.0711 74.668 41.0441 73.757 40.9481 73.242C39.1181 75.792 38.6101 75.184 36.1411 76.708C36.2251 77.518 36.3721 78.422 36.4721 79.246C36.5388 79.2554 36.6054 79.2667 36.6721 79.28C37.7961 79.522 37.3921 80.303 36.5921 80.72C36.6768 82.0333 36.7801 83.3443 36.9021 84.653C37.3791 84.683 37.8851 84.808 38.0111 85.319C38.1951 86.04 37.0951 86.653 36.5191 86.751C35.1131 86.988 32.9091 87.857 31.5531 87.928C31.3251 87.9404 31.0985 87.8859 30.9011 87.771C30.0431 87.268 30.6611 85.666 30.6591 84.796C30.6501 83.288 30.7151 81.754 30.6831 80.249C30.6431 78.371 30.8531 76.407 30.4141 74.577C29.7501 74.428 27.4691 73.641 26.9071 73.343L19.7711 77.459C19.7581 79.382 19.7891 81.537 19.7011 83.444C21.6221 84.159 20.6951 86.04 19.2051 86.493C18.9421 86.573 18.6031 86.559 18.3251 86.56C17.1818 87.61 16.0468 88.67 14.9201 89.74C14.2951 90.329 13.4311 91.194 12.7661 91.7C13.6381 93.218 12.2131 94.305 10.8961 94.814C10.4221 94.998 9.20811 95.479 8.82311 94.97C8.30911 94.294 7.85511 93.367 7.42711 92.61C6.88063 91.6202 6.29244 90.654 5.66411 89.714C4.87059 88.534 4.02991 87.3864 3.14411 86.274C1.28011 83.966 0.184105 83.381 0.183105 80.168C0.379105 80.035 0.573105 79.918 0.728105 79.738C0.868105 78.935 1.57411 78.728 2.23811 78.359L3.02211 77.889C3.41811 77.723 3.58611 77.793 3.99011 77.903L27.9901 64.043C27.1771 62.735 27.4661 62.31 28.5831 62.346C28.7271 62.351 29.0051 61.426 29.4931 61.582L29.6161 61.726C30.1501 61.683 29.8841 61.044 30.6361 60.859L30.6741 60.883C30.8121 60.972 30.8311 60.985 30.9841 61.036L31.1301 60.939C31.1721 60.356 30.5891 60.489 31.2341 59.557C31.0091 59.137 30.7801 58.693 30.5421 58.282C30.0421 58.767 29.7901 59.31 29.3431 59.801C29.1551 60.008 28.1731 60.618 27.9151 60.683L27.6921 60.636C27.6331 60.694 27.5921 60.736 27.5521 60.811C27.5068 60.9058 27.4392 60.9881 27.3551 61.051C26.8511 61.413 21.8611 64.321 21.5351 64.408C21.3301 64.464 21.1831 64.422 20.9991 64.317C20.1321 63.819 18.8411 61.407 18.5911 60.429C18.5151 60.132 18.4471 59.712 18.6211 59.439C18.7111 59.297 18.8541 59.196 18.9981 59.11C19.3861 58.878 19.8211 58.73 20.2171 58.509C20.9071 58.123 24.1861 56.036 24.6641 55.966C24.7661 55.951 24.8691 55.954 24.9731 55.962C24.9991 55.921 25.1541 55.626 25.1291 55.642C25.4121 55.456 26.1571 54.998 26.4671 54.934C27.2121 54.779 27.7311 55.048 28.4271 54.696C28.4631 54.401 28.3341 54.2 28.5571 54.042C28.8801 53.81 30.6441 52.799 30.8871 52.772C31.0531 52.849 31.0761 52.864 31.2221 52.976C31.3791 52.932 31.7501 52.64 31.9021 52.529C32.1501 51.909 31.0201 51.043 31.0221 50.306C31.1091 50.09 31.7201 49.713 32.3741 49.348ZM32.9951 50.512C32.8361 50.659 32.7521 50.726 32.7651 50.934L32.8991 51.029C33.0661 50.908 33.1251 50.881 33.2311 50.711L33.1891 50.596L32.9951 50.512ZM33.9371 50.068C33.8791 50.103 33.8371 50.151 33.7751 50.258L33.8291 50.419C34.0791 50.303 34.1281 50.331 34.2551 50.122L34.1931 49.947C34.0691 50.009 33.9961 50.033 33.9371 50.068ZM33.3051 56.881L34.0751 58.111C34.7001 57.822 35.5681 57.292 36.1801 56.941L39.8541 54.817C40.0821 54.665 40.0801 54.721 40.1391 54.52C40.0571 54.175 39.7551 53.77 39.5551 53.441C39.3411 53.558 38.3771 54.061 38.3021 54.177C37.6551 55.179 36.2341 55.65 35.1771 56.156C34.9171 56.281 34.3311 56.406 33.9741 56.534L33.3051 56.881ZM106.182 21.1L106.16 21.25C106.392 21.858 107.263 23.358 107.679 23.86C107.78 23.298 106.624 21.423 106.182 21.1ZM102.209 23.393L102.162 23.547C102.288 24.22 103.193 25.579 103.65 26.107L103.719 26.07L103.735 25.931C103.556 25.49 102.538 23.676 102.209 23.393ZM104.151 22.402C103.99 22.891 105.186 24.618 105.537 25.006L105.599 24.967C105.611 24.713 104.37 22.722 104.151 22.402ZM9.98111 83.09C9.46911 83.383 8.97511 83.679 8.81411 83.815C8.63811 83.966 8.51411 84.168 8.46011 84.395C8.41624 84.5684 8.43173 84.7515 8.50411 84.915C9.23011 86.347 10.2721 87.943 11.1061 89.297C12.0211 88.953 15.5571 85.37 16.4711 84.477C16.3921 82.919 16.4761 80.937 16.5001 79.351L11.2601 82.371C11.0261 82.504 10.4951 82.796 9.98211 83.09M34.6901 72.343C34.5681 72.423 34.5701 72.413 34.4901 72.535C34.5501 73.131 35.7901 74.691 36.2121 75.189C36.4241 75.161 36.6651 75.107 36.8781 75.067C36.9961 75.02 36.9471 75.056 37.0261 74.948C36.8801 74.735 36.4041 74.493 36.1361 74.243C35.4801 73.631 35.1611 73.089 34.6901 72.343ZM35.6081 71.907C36.2211 72.962 36.4851 73.299 37.5761 73.912C37.8921 74.074 38.0591 74.133 38.3991 74.246C38.9291 73.791 39.1881 73.239 39.4811 72.626C39.0551 71.9019 38.6184 71.1842 38.1711 70.473L35.6081 71.907Z" fill="black"/>
<path d="M3.02201 77.89L2.23901 78.358C2.42401 78.67 2.27701 78.715 2.40901 78.939C2.59701 78.921 3.57801 78.339 3.62701 78.173C3.40801 78.1 3.19901 78.047 3.02201 77.89Z" fill="#252726"/>
<path d="M77.7361 43.561C76.3921 42.125 75.2311 40.018 74.4821 38.199C74.3851 37.964 74.3441 37.776 74.1571 37.594C73.7571 37.614 73.2771 38.326 72.9361 38.556C71.6301 39.44 70.2181 40.209 68.8531 40.996L63.1031 44.313L22.3271 67.858C15.6921 71.688 8.8531 75.528 2.2771 79.428C2.4771 80.181 3.2971 81.743 3.6621 82.429L4.0211 82.945C4.4951 83.495 5.0551 84.155 5.5731 84.664L20.1531 76.262L26.0471 72.859C27.0521 72.279 28.2221 71.639 29.1951 71.032C29.8251 70.957 32.8221 68.891 33.5971 68.578C33.6031 68.576 34.8871 67.861 34.8391 67.905C35.3581 67.615 35.8141 67.46 36.3641 67.146C36.2171 66.859 35.8711 66.089 35.5981 65.906C35.5341 65.862 35.4511 65.914 35.3581 65.946C35.2511 66.028 35.0991 66.157 34.9821 66.209C34.5201 66.45 34.1121 66.699 33.6661 66.969C33.5511 66.879 33.5601 66.867 33.5141 66.731C33.6171 66.413 35.4941 65.441 35.9641 65.171L40.1891 62.739C44.7667 60.0702 49.3581 57.4252 53.9631 54.804C55.0901 54.92 56.2031 55.223 57.3381 55.345C59.6281 54.114 62.2521 52.513 64.5401 51.191L77.7361 43.561Z" fill="url(#paint0_linear_3215_9734)"/>
<path d="M4.02111 82.945C4.48111 82.592 5.30611 82.147 5.83311 81.845L8.74911 80.177L18.2241 74.705L57.2141 52.208L69.8541 44.928L73.7741 42.671C74.2421 42.401 75.4361 41.845 75.7571 41.396C75.8181 41.311 75.7471 41.216 75.7031 41.118C75.3801 41.042 73.4191 42.278 73.0301 42.502L68.8261 44.924L57.1741 51.606L22.4201 71.672C16.2501 75.235 9.89011 79.037 3.66211 82.429L4.02111 82.945ZM36.3641 67.146C36.2171 66.859 35.8711 66.089 35.5981 65.906C35.5341 65.862 35.4511 65.914 35.3581 65.946L35.4741 66.187C35.5201 66.417 35.5611 66.52 35.5001 66.747C35.1361 67.168 34.4801 67.36 34.3731 67.587C34.5631 67.676 34.6811 67.668 34.8881 67.683C34.4151 68.067 33.6241 68.459 33.0811 68.783C31.8141 69.538 30.4381 70.246 29.1951 71.033C29.8251 70.957 32.8221 68.891 33.5971 68.579C33.6021 68.576 34.8871 67.861 34.8391 67.906C35.3581 67.616 35.8141 67.46 36.3641 67.146Z" fill="#363936"/>
<path d="M36.3641 67.146C36.2171 66.859 35.8711 66.089 35.5981 65.906C35.5341 65.862 35.4511 65.914 35.3581 65.946L35.4741 66.187C36.3371 67.46 35.5071 67.21 34.8391 67.906C35.3581 67.616 35.8141 67.46 36.3641 67.146Z" fill="#252726"/>
<path d="M34.982 66.209C34.52 66.45 34.112 66.699 33.666 66.969C34.199 67.275 34.554 67.144 34.966 66.709C35.01 66.489 35.036 66.424 34.982 66.209Z" fill="#1C1E1D"/>
<path d="M35.3571 65.945C35.2511 66.028 35.1001 66.157 34.9821 66.209C35.0371 66.424 35.0111 66.489 34.9661 66.709C35.2261 66.624 35.1681 66.603 35.4041 66.647L35.5001 66.747C35.5601 66.52 35.5201 66.417 35.4741 66.187L35.3571 65.945Z" fill="#525552"/>
<path d="M70.0462 41.42C68.9792 41.956 69.1382 42.953 70.3962 42.66C71.4272 42.128 71.2932 41.215 70.0462 41.42ZM59.8142 51.532C58.7742 52.028 58.7572 52.973 60.0142 52.804C61.0642 52.372 61.1362 51.341 59.8142 51.532ZM67.7202 42.765C66.7022 43.263 66.6662 44.259 67.9622 44.046C68.9872 43.548 68.9942 42.579 67.7202 42.765ZM57.8512 48.461C56.8992 49.061 57.1582 49.863 58.2972 49.663C59.4372 49.018 59.0662 48.058 57.8512 48.461ZM72.8102 39.828C71.7732 40.393 72.0662 41.328 73.2832 40.991C74.3402 40.396 74.0132 39.504 72.8102 39.828ZM60.3702 47.006C59.3092 47.55 59.4912 48.533 60.7012 48.244C61.7302 47.722 61.5872 46.76 60.3702 47.006ZM62.0582 50.239C61.0732 50.893 61.4442 51.661 62.6182 51.368C63.6932 50.725 63.2612 49.832 62.0582 50.239ZM65.3662 44.119C64.3252 44.676 64.4852 45.642 65.7002 45.359C66.7322 44.837 66.5552 43.846 65.3662 44.119ZM62.8232 45.585C62.3842 45.822 62.0822 45.96 62.0672 46.518C62.2702 46.973 62.5612 46.928 63.0002 46.865C64.0402 46.471 64.1082 45.417 62.8232 45.585ZM64.6492 48.733C64.1792 48.977 63.8832 49.101 63.8832 49.696C64.1022 50.132 64.3632 50.086 64.8032 50.009C65.8722 49.526 65.9042 48.579 64.6492 48.733ZM57.5562 52.898C57.1022 53.128 56.7942 53.259 56.7502 53.828C56.9282 54.278 57.2222 54.235 57.6512 54.205C58.0212 54.025 58.4412 53.852 58.4672 53.378C58.4942 52.86 57.9012 52.877 57.5562 52.898ZM74.7582 42.908C73.6612 43.403 73.7012 44.349 74.9562 44.164C75.9782 43.716 76.0372 42.775 74.7582 42.908ZM71.9832 44.498C71.9117 44.5317 71.841 44.567 71.7712 44.604C71.3392 44.828 70.9782 45.138 71.2502 45.649C71.5302 45.871 71.7322 45.832 72.0722 45.802C72.5202 45.589 72.7842 45.484 72.8742 44.95C72.7382 44.462 72.4262 44.487 71.9832 44.498ZM69.5302 45.917C69.1082 46.141 68.7992 46.31 68.8202 46.853C68.9842 47.301 69.3602 47.244 69.7462 47.186C70.7852 46.692 70.8122 45.7 69.5312 45.916M55.4652 49.842C55.1882 50.029 54.8772 50.248 54.9162 50.625C54.9302 50.755 54.9982 50.875 55.1042 50.952C55.3702 51.15 55.6572 51.074 55.9572 51.019C57.0422 50.386 56.6742 49.445 55.4652 49.842ZM67.2542 47.233C66.8222 47.458 66.5112 47.611 66.5082 48.16C66.7142 48.611 66.9842 48.576 67.4242 48.523C68.4442 48.046 68.5182 47.127 67.2542 47.233Z" fill="black"/>
<path d="M53.4741 55.755L53.4441 55.615C53.2441 55.615 48.6581 58.318 47.9821 58.709L35.9001 65.682C36.1861 66.179 36.5901 66.937 36.8941 67.396C37.4949 68.4908 38.1177 69.5733 38.7621 70.643C39.0581 71.138 39.6841 72.101 39.9201 72.581C39.9671 72.791 40.0271 72.873 40.1861 73.026L40.3601 73.141C41.0101 72.983 42.7101 71.265 43.2831 70.727L46.8081 67.432L51.0871 63.434C51.8081 62.759 52.5681 62.06 53.2631 61.357C53.4871 61.131 53.5991 60.807 53.6831 60.507L53.7651 60.25C53.8801 59.995 53.7391 59.233 53.6851 58.947C53.632 58.3134 53.5897 57.679 53.5581 57.044C53.5681 56.836 53.4931 56.004 53.4741 55.755Z" fill="#696C63"/>
<path d="M53.4741 55.755L53.4441 55.615C53.2441 55.615 48.6581 58.318 47.9821 58.709L35.9001 65.682C36.1861 66.179 36.5901 66.937 36.8941 67.396C36.8141 67.156 36.5661 66.645 36.4521 66.394C36.5221 66.157 36.6231 66.141 36.8451 66.021C39.9511 64.35 43.1051 62.753 46.1941 61.048C47.8126 60.1538 49.436 59.2684 51.0641 58.392C51.6711 58.062 52.9681 57.3 53.5581 57.044C53.5681 56.836 53.4931 56.004 53.4741 55.755Z" fill="#454844"/>
<path d="M53.4741 55.755L53.4441 55.615C53.2441 55.615 48.6581 58.318 47.9821 58.709L35.9001 65.682C36.1861 66.179 36.5901 66.937 36.8941 67.396C36.8141 67.156 36.5661 66.645 36.4521 66.394C36.3681 66.269 36.2091 65.924 36.1351 65.771L53.4741 55.755Z" fill="#252726"/>
<path d="M53.7662 60.25L53.6112 60.214C53.4102 60.352 53.2252 60.628 53.0152 60.835C52.4412 61.3986 51.8605 61.9553 51.2732 62.505L44.1962 69.092C43.2142 70.012 41.1362 72.1 40.1392 72.755L40.1612 72.922L40.1872 73.026L40.3612 73.141C41.0112 72.983 42.7112 71.265 43.2842 70.727L46.8092 67.432L51.0882 63.434C51.8082 62.759 52.5682 62.06 53.2642 61.357C53.4882 61.131 53.6002 60.807 53.6842 60.507L53.7662 60.25Z" fill="#777973"/>
<path d="M53.6831 60.506C52.5321 61.863 51.6711 62.601 50.3831 63.798C49.1546 64.958 47.9179 66.1094 46.6731 67.252L43.3851 70.309C42.7991 70.859 40.8671 72.804 40.1611 72.922L40.1871 73.026L40.3611 73.141C41.0111 72.983 42.7111 71.265 43.2841 70.727L46.8091 67.432L51.0891 63.434C51.8091 62.759 52.5691 62.06 53.2651 61.357C53.4881 61.131 53.6001 60.806 53.6831 60.506Z" fill="#696C63"/>
<path d="M53.6861 58.947C53.5421 59.195 53.6001 59.734 53.6111 60.043C49.2211 63.948 44.8791 67.911 40.6441 71.982C40.4441 72.175 40.2491 72.58 40.0411 72.667L39.9211 72.581C39.9681 72.791 40.0291 72.872 40.1871 73.026L40.1611 72.922L40.1391 72.756C41.1371 72.1 43.2151 70.012 44.1961 69.092L51.2731 62.504C51.8609 61.9548 52.4419 61.3984 53.0161 60.835C53.2251 60.628 53.4101 60.352 53.6111 60.214L53.7671 60.25C53.8811 59.995 53.7401 59.233 53.6861 58.947Z" fill="#252726"/>
<path d="M53.7262 63.303C53.6642 63.096 53.2511 62.321 53.1271 62.038C52.5831 62.553 50.2311 64.638 49.9601 65.096C50.0281 65.172 51.9551 68.717 52.0151 68.929C52.3541 69.663 53.7792 72.106 53.8932 72.629L53.8631 72.657C53.7375 72.5413 53.6046 72.4338 53.4651 72.335C53.5561 72.526 53.6311 72.664 53.6861 72.87C53.5481 72.794 53.4601 72.727 53.3321 72.633L53.3181 72.716L53.4632 72.767C53.3942 72.864 53.4131 72.875 53.4031 73.011L53.3981 73.079L53.3001 73.07C53.0201 72.713 52.5451 71.753 52.3121 71.315C51.8121 70.3684 51.3008 69.4277 50.7781 68.493C50.6241 68.048 49.5102 66.199 49.2192 65.698L47.7631 67.021C47.9651 67.391 48.1748 67.757 48.3921 68.119C48.8921 68.999 51.7301 73.95 51.8501 74.491C51.4391 74.087 50.4211 72.121 50.0931 71.522C49.5302 70.4913 48.9552 69.4672 48.3681 68.45C48.1811 67.986 47.8991 67.557 47.6381 67.128L43.4701 71.062C43.6741 71.456 43.9471 72.025 44.1901 72.378C44.9215 73.6847 45.6435 74.9974 46.3561 76.316C46.5761 76.721 47.3001 77.994 47.4031 78.385C46.7671 77.728 44.7951 73.816 44.2071 72.781C43.9951 72.285 43.6011 71.671 43.3151 71.195L42.3792 72.074L42.7111 72.717C43.5881 74.251 44.3961 76.034 45.2651 77.595C45.6011 78.198 45.9742 79.043 46.3451 79.583C46.5912 79.621 46.7551 79.566 46.9471 79.401C47.4831 78.943 48.0051 78.468 48.5361 78.003L52.0131 74.973L55.2211 72.211C55.8711 71.651 56.7031 70.964 57.2791 70.354C56.9991 69.85 56.6712 69.101 56.3932 68.557L53.7262 63.303Z" fill="#363936"/>
<path d="M53.7262 63.303C53.6642 63.096 53.2511 62.321 53.1271 62.038C52.5831 62.553 50.2311 64.638 49.9601 65.096C50.0281 65.172 51.9551 68.717 52.0151 68.929C52.3541 69.663 53.7792 72.106 53.8932 72.629C54.0802 72.486 54.2291 72.399 54.3221 72.18C54.4021 71.616 51.1771 66.359 50.7521 65.344C51.3301 64.674 52.5741 63.653 53.3431 62.81C53.5091 62.91 53.6182 63.13 53.7262 63.303ZM47.6381 67.129L43.4701 71.062C43.6731 71.456 43.9461 72.025 44.1901 72.378C44.1201 72.198 43.9521 71.885 43.8601 71.7C44.3851 71.169 45.1681 70.501 45.7301 69.973C46.3101 69.429 47.3501 68.327 47.9521 67.918C48.1361 68.031 48.2471 68.258 48.3681 68.45C48.1811 67.986 47.8981 67.558 47.6381 67.129ZM49.2192 65.698L47.7631 67.021C47.9651 67.391 48.1748 67.757 48.3921 68.119C48.3321 67.953 48.2121 67.742 48.3091 67.611C48.6001 67.218 49.1971 66.789 49.5791 66.467C49.8821 66.992 50.4461 68.037 50.7781 68.493C50.6241 68.048 49.5102 66.199 49.2192 65.698ZM43.3141 71.195L42.3792 72.074L42.7101 72.717C43.0601 72.426 43.3361 72.185 43.6671 71.871C43.8201 72.135 44.0401 72.54 44.2071 72.781C43.9951 72.285 43.6011 71.671 43.3141 71.195Z" fill="#1C1E1D"/>
<path d="M33.6971 72.797C32.7151 73.311 31.7201 73.753 30.7571 74.308C30.9171 74.636 30.9671 74.783 31.0731 75.135C31.5901 78.437 31.1731 83.434 31.0081 86.873C30.9911 87.23 31.2881 87.393 31.6231 87.358C33.2631 86.984 34.9051 86.568 36.5371 86.152C36.8691 86.068 37.2401 85.981 37.2791 85.587C37.0701 85.193 36.6541 85.185 36.2421 85.103C36.0321 83.498 35.9151 81.74 35.7401 80.117C35.6661 79.431 35.4031 77.242 35.4301 76.7C35.6291 76.544 35.8651 76.43 35.8941 76.205C36.0701 75.869 36.3911 75.907 36.7341 75.523C36.3971 75.605 36.1561 75.629 35.8111 75.666C34.9681 75.269 34.5381 74.41 34.1161 73.636C33.9731 73.369 33.8331 73.071 33.6971 72.797Z" fill="#363936"/>
<path d="M33.6981 72.797C32.7151 73.311 31.7201 73.753 30.7571 74.308C30.9171 74.636 30.9671 74.783 31.0741 75.135C31.9241 74.748 32.7621 74.388 33.5731 73.915C33.7371 73.819 33.9401 73.705 34.1161 73.635C33.9731 73.369 33.8331 73.07 33.6981 72.797Z" fill="#252726"/>
<path d="M31.6801 86.744C31.5521 86.84 31.5901 86.779 31.5571 86.93C31.8831 87.158 35.4691 86.157 36.0771 86.004C36.0961 85.988 36.1411 85.907 36.1551 85.882C35.8891 85.717 32.1851 86.631 31.6801 86.744Z" fill="#525552"/>
<path d="M40.9301 50.558C40.5621 50.784 39.2951 51.509 39.0581 51.728C39.0631 51.941 39.2591 52.219 39.3751 52.419L39.7151 52.965L39.8821 53.08C40.0861 53.543 40.4361 54.118 40.6951 54.568L40.5161 54.396L40.4851 54.469L40.6451 54.747L40.7901 54.733C40.0041 55.646 36.8161 57.029 35.6881 57.845C35.3661 58.078 34.4911 58.536 34.0971 58.584C33.7231 58.639 32.1601 59.74 31.5901 59.983C31.3321 60.485 31.4851 60.592 31.7341 61.072L31.7641 61.16C31.2141 61.514 28.2241 63.108 28.0371 63.423L28.0761 63.603C28.2271 63.782 28.2461 63.873 28.4331 63.9C29.4431 63.435 31.3001 62.268 32.3221 61.676L39.4071 57.594L64.8721 42.891C65.8031 42.353 72.7221 38.478 73.0621 38.081L73.0521 37.946L72.9341 37.718L72.8041 37.578C72.4761 37.597 70.6161 38.765 70.1851 39.012L63.1341 43.077C58.7731 45.594 54.2641 48.131 49.9511 50.704C49.4831 50.964 49.0184 51.23 48.5571 51.502C47.4701 52.031 45.0031 53.658 44.0431 53.93L44.1281 53.845C44.1701 53.588 43.9231 53.261 43.6271 53.259C43.4171 53.389 43.2691 53.456 43.0471 53.558L42.8961 53.492C42.6211 53.324 42.1091 52.022 41.7631 51.723C41.5781 51.55 41.0981 50.807 40.9301 50.558Z" fill="#777973"/>
<path d="M40.9301 50.558C40.5621 50.784 39.2941 51.509 39.0581 51.728C39.0631 51.941 39.2581 52.219 39.3741 52.419L39.7151 52.965L39.8821 53.08C40.0851 53.543 40.4361 54.118 40.6951 54.568L40.5161 54.396L40.4851 54.469L40.6451 54.747L40.7891 54.734C40.0041 55.646 36.8161 57.029 35.6881 57.845C35.3651 58.078 34.4911 58.536 34.0971 58.584C33.7231 58.639 32.1601 59.74 31.5901 59.984C31.3321 60.484 31.4851 60.592 31.7341 61.071L31.7641 61.16C31.2141 61.514 28.2231 63.108 28.0371 63.423L28.0761 63.603C30.2811 62.259 32.7421 60.898 34.9961 59.596L48.2111 51.964C48.3111 51.85 48.5671 51.659 48.6991 51.552C48.8131 51.56 48.8141 51.572 48.9121 51.517L48.8181 51.551L48.9361 51.475L48.7581 51.5L48.8851 51.521C48.6771 51.572 48.7631 51.572 48.5571 51.502C47.4701 52.031 45.0031 53.658 44.0431 53.93L44.1281 53.845C44.1701 53.588 43.9231 53.261 43.6271 53.259C43.4161 53.389 43.2691 53.456 43.0471 53.558L42.8961 53.492C42.6211 53.324 42.1091 52.022 41.7631 51.724C41.5781 51.55 41.0981 50.806 40.9301 50.558Z" fill="#101010"/>
<path d="M40.79 54.734C40.004 55.646 36.817 57.029 35.688 57.845C35.366 58.078 34.491 58.536 34.098 58.584C33.323 59.112 32.734 59.301 31.969 59.936L32.118 59.9C32.849 60.527 33.422 59.405 34.014 59.475L33.984 59.635L34.056 59.665C35.981 58.635 37.862 57.465 39.769 56.398C40.299 56.102 41.054 55.701 41.533 55.348L41.365 55.425C41.029 55.395 41.15 54.89 40.79 54.734ZM41.867 51.968C41.286 52.302 40.468 52.808 39.882 53.08C40.086 53.543 40.436 54.118 40.696 54.568C41.256 54.142 42.061 53.738 42.699 53.4C42.357 52.912 42.101 52.517 41.867 51.968Z" fill="#363936"/>
<path d="M40.9301 50.558C40.5621 50.784 39.2951 51.509 39.0581 51.728C39.0631 51.941 39.2591 52.219 39.3751 52.419L39.7151 52.965C40.1211 52.82 41.4811 52.085 41.7631 51.723C41.5781 51.55 41.0981 50.806 40.9301 50.558ZM42.8961 53.492C42.2801 53.844 41.6261 54.194 41.0211 54.552L41.2971 54.992L41.2411 54.996L41.2741 54.998L41.1961 54.935C41.5921 54.6817 41.9934 54.4373 42.4001 54.202L42.4951 54.409C42.7991 54.375 42.8561 54.269 43.2451 54.214C43.2631 53.969 43.1511 53.788 43.0471 53.558L42.8961 53.492Z" fill="#1C1E1D"/>
<path d="M42.4001 54.202C42.2761 54.092 42.2351 54.006 42.0981 54.034C41.6581 54.125 41.4181 54.281 41.1401 54.614C41.1231 54.754 41.1521 54.804 41.1961 54.934C41.5928 54.682 41.9941 54.438 42.4001 54.202ZM43.0471 53.558C43.1511 53.788 43.2631 53.968 43.2451 54.214C43.5281 54.314 43.7871 54.087 44.0431 53.931L44.1281 53.845C44.1701 53.588 43.9231 53.261 43.6271 53.259C43.4171 53.389 43.2691 53.456 43.0471 53.558ZM31.5901 59.983C31.3321 60.485 31.4851 60.592 31.7341 61.072C31.9141 60.905 32.0291 60.882 32.1951 60.677C32.0561 60.427 31.9151 60.217 31.7581 59.979L31.5901 59.983ZM42.1961 55.205C41.6401 55.483 40.8521 55.973 40.3001 56.297C39.3911 56.83 38.4191 57.36 37.5271 57.907V58.005C38.8611 57.441 41.0191 56.056 42.1961 55.205Z" fill="#363936"/>
<path d="M28.0762 63.604C28.2272 63.782 28.2462 63.874 28.4332 63.9C29.4432 63.435 31.3002 62.268 32.3212 61.676L39.4072 57.595L64.8722 42.89C65.8032 42.352 72.7222 38.477 73.0622 38.08L73.0522 37.945C72.7062 38.052 70.8362 39.157 70.3962 39.413L65.0832 42.481L37.6502 58.328L30.7002 62.34C29.9532 62.77 29.0902 63.291 28.3282 63.7C28.2722 63.73 28.1562 63.646 28.0762 63.604ZM72.9352 37.718L72.8052 37.578C72.4762 37.597 70.6162 38.765 70.1852 39.012L63.1342 43.077C58.7732 45.594 54.2642 48.131 49.9512 50.704C50.3982 50.535 50.6742 50.332 51.1062 50.144L51.0762 50.188C51.2112 50.154 51.3502 50.121 51.4842 50.08L66.0042 41.705C68.2822 40.391 70.6392 38.99 72.9352 37.718Z" fill="#252726"/>
<path d="M60.752 44.563C60.376 44.663 59.729 45.055 59.446 45.318C59.812 45.17 60.434 44.784 60.752 44.563Z" fill="#363936"/>
<path d="M49.9502 50.704C49.4835 50.964 49.0192 51.23 48.5572 51.502C48.7632 51.572 48.6772 51.572 48.8852 51.522L48.7582 51.5L48.9362 51.475L48.8182 51.551L48.9122 51.517C48.8152 51.572 48.8122 51.56 48.6992 51.552C48.5672 51.659 48.3112 51.85 48.2112 51.964C49.2642 51.411 50.4442 50.689 51.4842 50.08C51.3492 50.121 51.2112 50.154 51.0752 50.188L51.1062 50.143C50.6742 50.332 50.3982 50.535 49.9512 50.703" fill="#252726"/>
<path d="M107.072 19.553C104.953 20.901 102.589 22.14 100.427 23.454C100.602 24.237 100.87 24.787 101.269 25.47C101.799 26.402 102.286 26.896 102.69 27.564C102.986 27.389 103.215 27.258 103.488 27.05C103.813 26.842 104.181 26.631 104.514 26.43C104.971 26.192 105.327 25.981 105.765 25.711L106.341 25.379C106.812 25.109 109.158 23.708 109.485 23.664C109.34 23.45 108.765 22.27 108.575 21.924L108.311 21.504C107.918 20.841 107.505 20.1903 107.072 19.553Z" fill="#363936"/>
<path d="M106.761 20.933C106.642 20.681 106.624 20.641 106.372 20.563C106.122 20.593 105.799 20.836 105.576 20.981L105.739 21.425C105.933 21.774 106.159 22.207 106.366 22.54C106.291 22.674 105.627 23.067 105.433 23.2C105.272 22.9012 105.092 22.613 104.895 22.337C105.163 22.883 105.424 23.258 105.711 23.773C105.959 24.189 106.469 24.891 106.341 25.378C106.812 25.108 109.158 23.708 109.485 23.664C109.34 23.45 108.765 22.27 108.575 21.924L108.311 21.504L107.445 21.996C107.205 21.586 107.04 21.323 106.761 20.933Z" fill="black"/>
<path d="M105.433 23.2C105.274 22.9005 105.094 22.6122 104.896 22.337C105.163 22.883 105.424 23.258 105.711 23.773C105.959 24.189 106.47 24.891 106.341 25.378C106.812 25.108 109.158 23.708 109.486 23.664C109.34 23.45 108.765 22.27 108.576 21.924L107.723 22.437C107.806 22.617 107.969 22.942 108.021 23.115C108.505 23.975 108.571 24.325 107.474 24.55C107.219 23.912 106.73 23.146 106.366 22.54C106.292 22.674 105.627 23.067 105.433 23.2Z" fill="#252726"/>
<path d="M105.433 23.2C105.272 22.9013 105.092 22.613 104.895 22.337C105.163 22.883 105.424 23.258 105.711 23.773C105.767 23.35 106.219 23.292 106.604 23.095C106.785 23.383 107.343 24.38 107.474 24.551C107.218 23.911 106.729 23.146 106.366 22.541C106.291 22.674 105.627 23.067 105.433 23.2ZM106.761 20.933C107.132 21.646 107.609 22.416 108.02 23.115C107.969 22.942 107.806 22.616 107.722 22.437L108.575 21.923L108.311 21.503L107.445 21.996C107.205 21.586 107.04 21.323 106.761 20.933Z" fill="#1C1E1D"/>
<path d="M104.444 21.603C104.073 21.7539 103.724 21.9537 103.406 22.197C103.172 22.382 102.915 22.511 102.827 22.795C102.847 23.128 103.391 23.804 103.625 24.191C103.213 24.026 103.089 23.447 102.704 23.023C103.158 24.021 104.25 25.401 104.514 26.431C104.972 26.192 105.327 25.981 105.765 25.711L106.341 25.379C106.469 24.891 105.959 24.189 105.711 23.773C105.424 23.258 105.163 22.883 104.896 22.337C104.793 22.141 104.568 21.802 104.444 21.602" fill="black"/>
<path d="M103.406 22.197C103.173 22.382 102.915 22.511 102.827 22.795C102.847 23.128 103.391 23.804 103.625 24.191C103.213 24.026 103.089 23.447 102.704 23.023C103.158 24.021 104.25 25.401 104.514 26.431C104.972 26.192 105.327 25.981 105.766 25.711C105.173 25.541 104.605 24.365 104.283 23.805C104.004 23.321 103.62 22.695 103.406 22.197Z" fill="#1C1E1D"/>
<path d="M102.826 22.795C102.915 22.51 103.172 22.382 103.406 22.196C103.62 22.694 104.003 23.321 104.282 23.805L103.624 24.191C103.391 23.804 102.847 23.128 102.826 22.795Z" fill="#363936"/>
<path d="M102.704 23.023C102.275 22.538 101.653 23.063 101.367 23.44C101.621 23.93 101.846 24.348 102.129 24.82L102.135 24.983C102.056 25.063 102.08 25.063 101.987 25.097C101.791 25.178 101.465 25.365 101.269 25.47C101.8 26.403 102.286 26.896 102.691 27.564C102.987 27.389 103.215 27.258 103.488 27.05C103.813 26.842 104.181 26.631 104.514 26.43C104.25 25.401 103.158 24.021 102.704 23.023Z" fill="black"/>
<path d="M102.129 24.82L102.135 24.983C102.056 25.063 102.08 25.063 101.987 25.097C101.791 25.178 101.465 25.365 101.269 25.47C101.8 26.403 102.286 26.896 102.691 27.564C102.987 27.389 103.215 27.258 103.488 27.05C103.176 26.588 102.33 25.28 102.129 24.82Z" fill="#252726"/>
<path d="M101.367 23.44L101.34 23.477L101.413 23.737L101.372 23.747L101.291 23.657L101.201 23.68C101.164 24.022 101.606 24.648 101.824 24.915C101.875 24.9783 101.93 25.039 101.987 25.097C102.08 25.063 102.056 25.063 102.135 24.983L102.129 24.82C101.861 24.3678 101.607 23.9076 101.367 23.44Z" fill="#363936"/>
<path d="M45.5421 43.51C44.3181 44.797 43.1071 46.079 41.7571 47.254C41.5021 47.476 40.2091 48.19 40.0801 48.54C40.0651 48.58 40.2301 48.863 40.2741 48.94C40.4781 49.553 41.4761 51.013 41.8821 51.558C43.2271 50.608 47.0681 49.533 48.7581 49.172C47.8975 47.8089 47.0673 46.4269 46.2681 45.027C46.0091 44.52 45.7541 44.038 45.5421 43.51Z" fill="#252726"/>
<path d="M45.5422 43.51C44.3182 44.797 43.1072 46.079 41.7572 47.254C41.5022 47.476 40.2092 48.19 40.0802 48.54C40.0652 48.58 40.2302 48.863 40.2742 48.94C40.4572 49.212 40.6842 49.625 40.8562 49.916C41.4882 49.498 42.4982 48.962 43.1782 48.573C44.4496 47.8521 45.7065 47.106 46.9482 46.335C46.7242 45.94 46.4072 45.447 46.2682 45.027C46.0092 44.52 45.7542 44.038 45.5422 43.51ZM98.1432 27.727L76.3212 40.333C76.5332 40.687 76.7542 41.104 76.9562 41.469L98.7832 28.855L98.1432 27.727ZM18.9952 77.4C18.3352 77.78 17.6522 78.164 17.0002 78.554C17.0062 78.814 17.0002 79.324 17.0262 79.564V83.044C17.0232 83.453 17.0392 84.359 16.9902 84.737C16.1872 85.83 12.4282 89.273 11.2482 89.927C10.7722 90.261 10.5252 90.469 10.5752 91.119L10.5572 91.205L10.4912 91.425C10.6302 91.702 10.8872 92.355 11.0982 92.47C11.6932 92.138 12.5612 91.255 13.0942 90.768C14.6804 89.3175 16.2417 87.84 17.7772 86.336C18.4522 85.679 18.9602 85.206 18.9732 84.171C19.0902 83.904 19.0422 78.894 19.0142 78.282C19.0182 77.981 19.0082 77.701 18.9952 77.4Z" fill="#363936"/>
<path d="M17.3782 79.346L17.0262 79.565V83.045C17.0242 83.452 17.0402 84.358 16.9902 84.737C16.1872 85.83 12.4282 89.273 11.2482 89.927C10.7722 90.261 10.5252 90.469 10.5752 91.119C10.9222 90.781 10.9922 90.611 11.4392 90.265C12.0752 89.645 13.1842 88.995 13.7682 88.384C14.6322 87.478 16.8432 85.959 17.4312 85.022C17.3982 84.533 17.4962 83.833 17.4712 83.317C17.401 81.9949 17.37 80.67 17.3782 79.346Z" fill="#363936"/>
<path d="M17.9911 85.066L17.8161 84.886C17.6041 84.856 17.6661 84.87 17.4311 85.022C16.8431 85.959 14.6321 87.478 13.7671 88.384C13.1831 88.996 12.0751 89.645 11.4391 90.265C10.9921 90.611 10.9221 90.781 10.5751 91.119L10.5571 91.205C10.6931 91.327 10.6171 91.299 10.7811 91.315C11.1471 91.004 11.6011 90.542 11.9671 90.274C14.1241 88.697 15.9941 86.834 17.9911 85.066Z" fill="#525552"/>
<path d="M18.9732 84.17C18.8552 84.408 18.5292 85.243 18.3772 85.388C16.0672 87.608 13.7292 89.988 11.1722 91.906C10.9562 92.067 10.6132 91.581 10.4922 91.424C10.6302 91.702 10.8872 92.354 11.0982 92.47C11.6932 92.138 12.5612 91.255 13.0942 90.767C14.6805 89.3174 16.2418 87.8405 17.7772 86.337C18.4522 85.678 18.9602 85.205 18.9732 84.17Z" fill="#252726"/>
<path d="M17.991 85.066C18.049 84.934 17.781 80.366 17.88 79.745C17.895 79.652 17.8771 79.21 17.8371 79.105C17.6131 79.132 17.5781 79.204 17.3781 79.346C17.3689 80.6703 17.3995 81.9946 17.47 83.317C17.496 83.834 17.398 84.534 17.432 85.022C17.667 84.87 17.605 84.856 17.817 84.886L17.991 85.066Z" fill="#454844"/>
<path d="M18.995 77.4C18.335 77.78 17.652 78.164 17 78.554C17.006 78.814 17 79.324 17.026 79.564L17.378 79.346C17.338 78.936 18.622 78.478 19.014 78.282C19.0158 77.9876 19.0095 77.6941 18.995 77.4Z" fill="#1C1E1D"/>
<path d="M49.2901 41.09C48.3801 41.633 46.3161 42.67 45.6851 43.356C45.9231 43.987 46.3951 44.846 46.7211 45.434C46.9161 45.866 47.0701 46.101 47.3211 46.495C47.8343 47.3903 48.377 48.2685 48.9481 49.128C50.1581 48.532 51.5111 47.745 52.6901 47.084C52.1034 46.1827 51.5301 45.2727 50.9701 44.354L50.8181 44.091C50.4031 43.429 49.6101 41.821 49.2911 41.091" fill="#454844"/>
<path d="M50.97 44.355C50.511 44.665 47.777 46.308 47.322 46.495C47.8353 47.3903 48.3779 48.2684 48.949 49.128C50.159 48.532 51.511 47.745 52.69 47.084C52.1034 46.1827 51.53 45.2737 50.97 44.355Z" fill="#363936"/>
<path d="M46.7212 45.434C46.9162 45.866 47.0702 46.101 47.3212 46.495C47.7762 46.308 50.5112 44.665 50.9702 44.355L50.8182 44.091L47.1922 46.213C47.0452 45.954 46.8782 45.689 46.7212 45.434ZM25.0182 56.499L24.9122 56.383C24.6242 56.417 20.1022 59.032 19.8972 59.271L19.9012 59.43L20.0112 59.595C20.1542 59.899 20.3062 60.239 20.4592 60.535C20.6632 61.225 21.8812 62.9 22.3412 63.492C23.9482 62.487 25.7062 61.585 27.3092 60.556C26.5922 59.51 26.1492 58.652 25.4992 57.601C25.3622 57.362 25.2322 57.091 25.1062 56.844L25.0182 56.499Z" fill="#252726"/>
<path d="M25.0182 56.499L24.9122 56.383C24.6242 56.417 20.1022 59.032 19.8972 59.271L19.9012 59.43L20.0112 59.595C20.1542 59.899 20.3062 60.239 20.4592 60.535C20.6292 60.8223 20.8052 61.1067 20.9872 61.388C21.9772 60.803 25.0242 58.86 25.9422 58.53C25.7862 58.2244 25.6385 57.9146 25.4992 57.601C25.3622 57.362 25.2322 57.091 25.1062 56.844L25.0182 56.499Z" fill="#525552"/>
<path d="M25.0182 56.499L24.9122 56.383C24.6242 56.417 20.1022 59.032 19.8972 59.271L19.9012 59.43L20.0112 59.595C21.0532 59.327 23.9242 57.35 25.1062 56.845L25.0182 56.499Z" fill="#252726"/>
<path d="M25.0181 56.499C24.4481 56.895 20.4441 59.254 19.9011 59.429L20.0111 59.595C21.0531 59.327 23.9231 57.35 25.1061 56.845L25.0181 56.499Z" fill="#454844"/>
<path d="M35.9302 68.06C33.1452 69.577 30.4412 71.293 27.6502 72.807C27.5184 72.8668 27.4083 72.9661 27.3352 73.091C27.4022 73.141 27.4222 73.169 27.4962 73.196C27.6562 73.256 28.2042 73.475 28.3362 73.487C28.9892 73.7516 29.659 73.9727 30.3412 74.149C30.9295 73.9059 31.4957 73.6121 32.0332 73.271L32.1082 73.239C32.6282 73.074 33.8562 72.442 34.3722 72.177C35.5969 71.5436 36.8169 70.9012 38.0322 70.25L36.5972 67.658L35.9302 68.06Z" fill="#696C63"/>
<path d="M35.9302 68.06C33.1452 69.577 30.4412 71.293 27.6502 72.807C27.5184 72.8668 27.4083 72.9661 27.3352 73.091C27.4022 73.141 27.4222 73.169 27.4962 73.196C28.4742 72.676 29.6962 72.05 30.6302 71.483C30.6092 71.625 30.5982 71.821 30.5122 71.923C30.4582 72.287 30.4722 72.401 30.6472 72.749C30.7002 72.523 30.6762 71.991 30.6832 71.72C30.8352 71.684 30.9772 71.658 31.1312 71.63C31.3112 71.48 31.2602 71.557 31.3342 71.341L31.3822 71.379C31.8542 71.263 32.0262 71.343 32.4482 71.579C32.2882 71.3 32.3062 71.313 31.9692 71.189L31.9122 71.071C32.0902 70.918 33.0432 70.436 33.3222 70.287L36.4962 68.58C36.8062 69.194 37.0822 69.716 37.4262 70.31C35.8502 71.234 33.5192 72.256 32.1082 73.239C32.6282 73.074 33.8562 72.442 34.3722 72.177C35.5969 71.5436 36.8169 70.9012 38.0322 70.25L36.5972 67.658L35.9302 68.06Z" fill="#363936"/>
<path d="M35.93 68.06C33.145 69.577 30.441 71.293 27.65 72.807C27.5178 72.8666 27.4074 72.9659 27.334 73.091C27.401 73.141 27.421 73.169 27.496 73.196C28.474 72.676 29.696 72.05 30.63 71.483C31.67 70.814 33.106 70.058 34.012 69.418C33.837 69.424 33.308 69.892 33.024 69.852C33.252 69.592 35.26 68.694 35.931 68.061" fill="#252726"/>
<path d="M31.3822 71.38L31.3342 71.342C31.2602 71.557 31.3122 71.48 31.1312 71.63C30.9811 71.6557 30.8317 71.6857 30.6832 71.72C30.6762 71.99 30.7002 72.523 30.6472 72.749C30.8302 72.879 30.9482 72.987 31.1652 73.041C32.2032 73.229 33.0092 72.691 32.4482 71.58C32.0262 71.343 31.8532 71.263 31.3822 71.38Z" fill="#454844"/>
<path d="M31.3822 71.38C31.6662 71.462 32.1572 71.573 32.2492 71.855C32.5422 72.759 31.6672 73.165 30.9412 72.671L30.9302 72.726L31.1652 73.041C32.2032 73.229 33.0092 72.691 32.4482 71.58C32.0262 71.343 31.8532 71.263 31.3822 71.38Z" fill="black"/>
<path d="M31.3931 71.653C31.3238 71.6767 31.26 71.7141 31.2055 71.7631C31.1509 71.812 31.1069 71.8715 31.0759 71.9379C31.0449 72.0043 31.0277 72.0762 31.0252 72.1495C31.0227 72.2227 31.0351 72.2957 31.0615 72.364C31.0879 72.4323 31.1279 72.4946 31.179 72.5472C31.23 72.5997 31.2912 72.6413 31.3588 72.6696C31.4264 72.6979 31.499 72.7123 31.5722 72.7118C31.6455 72.7114 31.7179 72.6961 31.7851 72.667C31.9141 72.6112 32.0164 72.5076 32.0707 72.378C32.125 72.2483 32.127 72.1028 32.0763 71.9717C32.0256 71.8406 31.9262 71.7342 31.7989 71.6748C31.6715 71.6154 31.5261 71.6076 31.3931 71.653Z" fill="#101010"/>
<path d="M30.6301 71.483C29.6961 72.05 28.4741 72.675 27.4961 73.195C27.6561 73.255 28.2041 73.475 28.3361 73.488C28.6621 73.42 28.7491 73.602 28.8991 73.512V73.425L28.2351 73.153C28.6711 72.893 30.1431 71.993 30.5121 71.923C30.5981 71.821 30.6091 71.625 30.6301 71.483Z" fill="#454844"/>
<path d="M28.9002 73.425L28.8992 73.512C28.7492 73.602 28.6622 73.42 28.3362 73.487C28.9642 73.739 29.6852 73.989 30.3412 74.149C30.9295 73.9058 31.4957 73.6121 32.0332 73.271C31.7282 73.334 30.8382 73.794 30.4482 73.953C29.9502 73.759 29.4112 73.593 28.9002 73.425Z" fill="#525552"/>
<path d="M97.514 26.613C95.244 28.041 92.345 29.611 89.99 30.97L75.664 39.238L76.168 40.048C78.855 38.675 82.076 36.705 84.738 35.168C89.1713 32.6247 93.5887 30.0547 97.99 27.458L97.514 26.613ZM34.86 50.348C33.181 51.439 31.609 51.433 32.855 53.657C33.075 54.326 33.995 55.481 34.582 55.897C35.126 55.726 37.445 54.551 37.734 54.139C37.48 53.494 36.964 52.751 36.629 52.131C36.444 51.788 35.872 50.515 35.611 50.345L35.273 50.191C35.159 50.208 34.974 50.298 34.86 50.348Z" fill="#363936"/>
<path d="M35.6101 50.345L35.2731 50.191C35.7611 50.94 36.0591 51.708 36.5191 52.44C36.0021 52.74 33.5891 54.238 33.2141 54.163C33.0812 54.004 32.9608 53.8348 32.8541 53.657C33.0741 54.326 33.9941 55.481 34.5821 55.897C35.1261 55.726 37.4451 54.551 37.7341 54.139C37.4801 53.494 36.9641 52.751 36.6291 52.131C36.4441 51.788 35.8711 50.514 35.6101 50.345ZM1.06812 82.845C1.55012 84.152 4.06012 86.376 4.84812 87.771C5.51012 88.941 6.66412 90.199 7.27412 91.446C7.86412 92.419 8.50212 93.709 9.15612 94.596C9.57612 94.69 10.2941 94.796 10.4471 94.275C10.0911 93.511 8.92512 91.893 8.41212 91.117C7.44831 89.6544 6.46421 88.2053 5.46012 86.77C4.78812 85.813 2.54412 83.494 2.24012 82.491C1.82012 82.586 1.42812 82.973 1.06812 82.845Z" fill="#252726"/>
<path d="M27.5162 55.68L27.4052 55.623C27.3632 55.477 27.3622 55.457 27.2842 55.321C26.9812 55.313 27.2192 55.426 26.9842 55.49L26.8402 55.292C26.5352 55.235 26.1602 55.532 25.9442 55.729C25.8402 55.825 25.8972 55.942 25.9202 56.07L26.1032 56.488C26.3592 57.005 26.6162 57.552 26.9172 58.041C27.3272 58.748 27.7072 59.343 28.2322 59.976C28.7322 59.699 28.9132 59.66 29.1822 59.161C29.3022 59.084 29.3662 58.951 29.4422 58.825C29.5822 58.754 30.0202 58.222 30.4142 57.967C29.8122 57.125 29.0862 55.622 28.6342 55.043C28.3492 55.14 27.7862 55.289 27.5662 55.413C27.5362 55.529 27.5262 55.563 27.5162 55.68Z" fill="url(#paint1_linear_3215_9734)"/>
<path d="M28.6341 55.043C28.3491 55.14 27.7861 55.289 27.5651 55.413C27.5351 55.529 27.5251 55.563 27.5151 55.68C27.5931 55.813 27.7741 56.223 27.7831 56.373L27.6871 56.501C27.8061 57.023 28.0441 57.416 28.2751 57.885C28.5651 58.355 28.8481 58.721 29.1821 59.161C29.3021 59.084 29.3661 58.951 29.4421 58.825C29.5821 58.754 30.0201 58.222 30.4141 57.967C29.8111 57.125 29.0861 55.622 28.6341 55.043Z" fill="#252726"/>
<path d="M28.6341 55.043C28.3491 55.14 27.7861 55.289 27.5661 55.413C27.5361 55.529 27.5261 55.563 27.5161 55.68C27.5941 55.813 27.7741 56.223 27.7831 56.373L28.2491 57.187C28.6251 56.955 29.0121 56.688 29.3831 56.442C29.1261 55.995 28.8331 55.515 28.6341 55.043Z" fill="#363936"/>
<path d="M27.783 56.373L27.687 56.501C27.807 57.022 28.044 57.416 28.275 57.885C28.565 58.355 28.848 58.721 29.182 59.161C29.302 59.084 29.366 58.951 29.442 58.825C29.0139 58.3019 28.6156 57.755 28.249 57.187L27.783 56.373Z" fill="#101010"/>
<path d="M27.942 57.437L26.916 58.041C27.327 58.748 27.706 59.343 28.232 59.976C28.732 59.699 28.913 59.66 29.182 59.161C28.848 58.721 28.565 58.356 28.275 57.885C28.148 57.753 28.045 57.589 27.942 57.437Z" fill="#252726"/>
<path d="M27.5152 55.68L27.4052 55.623C27.3632 55.477 27.3622 55.457 27.2852 55.321C26.9822 55.313 27.2192 55.426 26.9852 55.49L26.8402 55.292C26.5362 55.235 26.1602 55.532 25.9442 55.729C25.8402 55.825 25.8972 55.942 25.9202 56.07C26.0872 55.832 26.5282 55.572 26.8132 55.502L26.9202 55.542L26.9942 55.734C27.2722 56.332 27.6062 56.871 27.9422 57.437C28.0462 57.589 28.1482 57.753 28.2752 57.885C28.0442 57.415 27.8062 57.023 27.6872 56.501L27.7832 56.373C27.7742 56.223 27.5932 55.813 27.5152 55.68Z" fill="#1C1E1D"/>
<path d="M26.9942 55.734L26.9202 55.542L26.8132 55.502C26.5282 55.572 26.0872 55.832 25.9202 56.07L26.1032 56.488C26.2662 56.232 26.5722 55.641 26.8582 55.6L26.9942 55.734Z" fill="#454844"/>
<path d="M55.2501 45.686L55.3071 45.646C55.1631 45.413 55.0381 45.417 54.8441 45.252C53.5141 44.124 52.5961 42.474 51.9601 40.872C51.8361 40.557 51.8041 40.109 51.6961 39.759L51.5961 39.751C51.2311 39.948 50.3141 40.411 50.0621 40.684C50.0591 40.8 50.0501 40.803 50.0951 40.908C50.4871 41.729 51.0021 42.828 51.4661 43.588C52.1111 44.678 52.6841 45.618 53.4451 46.642C54.0404 46.3114 54.6421 45.9934 55.2501 45.686Z" fill="#363936"/>
<path d="M51.5961 39.75C51.2311 39.948 50.3141 40.412 50.0631 40.684C50.0601 40.8 50.0511 40.803 50.0961 40.908C50.4871 41.729 51.0021 42.828 51.4661 43.588C51.7521 43.536 52.3941 43.178 52.6461 43.01C52.1211 42.142 51.6111 41.1 51.5791 40.072L51.5961 39.75Z" fill="#525552"/>
<path d="M51.5961 39.75C51.2311 39.948 50.3141 40.412 50.0631 40.684C50.0601 40.8 50.0511 40.803 50.0961 40.908C50.4691 40.738 51.1961 40.292 51.5791 40.072L51.5961 39.75Z" fill="#363936"/>
<path d="M55.2501 45.685L55.3061 45.645C55.1631 45.413 55.0381 45.417 54.8441 45.252C53.5131 44.124 52.5961 42.474 51.9601 40.871C51.8351 40.557 51.8041 40.109 51.6961 39.759L51.5961 39.75L51.5791 40.072C51.6111 41.1 52.1201 42.142 52.6461 43.01C53.2571 43.94 54.1251 45.408 55.2501 45.685Z" fill="#101010"/>
<path d="M7.81713 83.82C7.17613 84.163 6.50013 84.56 5.85913 84.918C7.31113 87.005 8.58113 89.011 9.98213 91.106L10.0761 91.184C10.2581 90.877 10.2901 90.524 10.6391 89.958C9.82213 88.371 8.65013 86.612 7.74413 85.014C7.75413 84.64 7.89413 84.284 7.91813 83.864L7.81713 83.82Z" fill="#252726"/>
<path d="M5.97312 85.707C5.80812 85.639 5.81712 85.64 5.64312 85.675C5.42912 85.924 5.43112 86.297 5.57012 86.582C6.20512 87.341 7.05012 88.714 7.62012 89.583C8.41612 90.794 9.42612 92.135 10.1611 93.357C10.4001 93.8 10.5431 93.993 10.8411 94.389C11.1311 94.247 11.4178 94.1003 11.7011 93.949C11.6291 93.86 11.2311 93.352 11.1761 93.311C10.1711 91.981 9.24912 90.169 8.16712 88.773C7.98712 88.448 7.66912 87.993 7.45912 87.671C7.04012 87.262 6.33312 86.224 5.97312 85.707Z" fill="#696C63"/>
<path d="M5.9731 85.707C5.8141 85.897 5.7571 85.896 5.7561 86.102C6.0951 86.692 6.5311 87.214 6.8771 87.798C7.7501 89.268 8.7501 90.661 9.5281 92.182C9.5751 92.275 9.9841 92.572 10.0541 92.72C10.4271 93.066 10.2881 93.59 10.5971 93.748C10.7071 93.608 10.7741 93.303 10.7401 93.235C10.2341 92.217 8.5751 89.749 8.1671 88.773C7.9871 88.448 7.6701 87.993 7.4601 87.671C7.0401 87.262 6.3341 86.223 5.9731 85.707Z" fill="#777973"/>
<path d="M10.1611 93.358C10.4001 93.8 10.5431 93.993 10.8411 94.388C11.1311 94.2467 11.4178 94.1 11.7011 93.948C11.6291 93.86 11.2311 93.352 11.1761 93.311C11.1141 93.459 10.7261 93.788 10.5841 93.918C10.4526 93.7244 10.3114 93.5375 10.1611 93.358Z" fill="#252726"/>
<path d="M54.2291 55.18C53.9681 55.225 54.0221 55.177 53.8501 55.329C53.7271 55.784 53.8921 56.709 53.9501 57.216C53.9971 57.794 54.0371 58.416 54.1041 58.989C55.0821 58.359 56.1041 57.807 57.0961 57.204C57.0891 56.872 57.1061 55.867 56.8931 55.672C56.7241 55.654 56.4661 55.597 56.2921 55.565C56.1251 55.492 54.5081 55.229 54.2291 55.18Z" fill="#101010"/>
<path d="M56.2912 55.565C56.1742 55.924 56.2452 55.962 56.4412 56.277C56.6842 57.272 55.6512 57.887 54.8462 57.373C54.8192 57.7 54.8652 58.038 54.8122 58.325C54.6929 58.4008 54.5627 58.4582 54.4262 58.495L54.3412 58.428C54.2712 58.131 54.3092 57.886 54.2212 57.572C54.0882 57.481 54.0312 57.356 53.9492 57.216C53.9962 57.794 54.0372 58.416 54.1042 58.989C55.0822 58.359 56.1042 57.807 57.0952 57.204C57.0892 56.872 57.1052 55.867 56.8922 55.672C56.7242 55.654 56.4652 55.597 56.2912 55.565Z" fill="#696C63"/>
<path d="M53.9502 57.216C53.9972 57.794 54.0372 58.416 54.1042 58.989C55.0822 58.359 56.1042 57.807 57.0962 57.204C57.0892 56.872 57.1062 55.867 56.8932 55.672C56.7832 56.995 57.0562 57.259 55.6632 57.824C55.4732 57.901 55.0132 58.202 54.8132 58.325C54.6939 58.4008 54.5637 58.4581 54.4272 58.495L54.3422 58.428C54.2722 58.131 54.3092 57.886 54.2222 57.572C54.0882 57.481 54.0322 57.356 53.9502 57.216Z" fill="#363936"/>
<path d="M54.2291 55.18C53.9681 55.225 54.0221 55.177 53.8501 55.329C53.7271 55.784 53.8921 56.709 53.9501 57.216C54.0301 57.356 54.0891 57.481 54.2221 57.572C54.3091 57.886 54.2721 58.132 54.3421 58.427L54.4271 58.495C54.6081 58.438 54.6491 58.421 54.8131 58.325C54.8651 58.038 54.8191 57.7 54.8461 57.373L54.8111 57.273L54.8291 57.233L54.7991 56.979C54.7501 56.691 54.7631 56.553 54.8171 56.277L54.8311 56.208L54.7101 56.118L54.6351 56.006C54.4491 56.122 54.4321 56.173 54.2311 56.181L54.1311 56.048C54.1021 55.755 54.1741 55.47 54.2291 55.18Z" fill="#363936"/>
<path d="M54.2291 55.18C53.9681 55.225 54.0221 55.177 53.8491 55.329C53.7271 55.784 53.8921 56.709 53.9491 57.216C54.0311 57.356 54.0891 57.481 54.2221 57.572C54.0891 56.614 54.0481 56.747 54.7101 56.117L54.6351 56.007C54.4491 56.122 54.4321 56.173 54.2311 56.181L54.1311 56.048C54.1011 55.755 54.1741 55.471 54.2281 55.181" fill="#252726"/>
<path d="M54.81 57.273L54.673 57.258C54.508 57.42 54.398 58.15 54.342 58.428L54.427 58.495C54.607 58.438 54.649 58.421 54.813 58.325C54.865 58.038 54.819 57.7 54.846 57.373L54.81 57.273Z" fill="#454844"/>
<path d="M54.2291 55.18C54.1741 55.471 54.1021 55.755 54.1321 56.048L54.2311 56.181C54.4321 56.173 54.4491 56.123 54.6351 56.006C54.8801 55.826 54.9981 55.766 55.2701 55.626C55.9331 55.797 55.9881 55.78 56.4411 56.277C56.2451 55.962 56.1741 55.924 56.2911 55.565C56.1251 55.492 54.5081 55.229 54.2291 55.18Z" fill="#363936"/>
<path d="M54.8301 57.234C55.8301 57.607 56.6251 56.704 55.8931 56.079L55.82 56.165C55.924 56.532 56.0211 56.813 55.7401 57.098C55.4681 57.205 55.123 57.118 54.864 57.008L54.8 56.979L54.8301 57.234Z" fill="#525552"/>
<path d="M99.732 24.584L97.928 25.652C97.888 25.924 97.903 25.911 98.06 26.206C98.17 26.601 98.901 27.868 99.18 28.153C99.303 28.367 99.588 28.733 99.744 28.945C100.384 28.601 101.055 28.203 101.69 27.842C101.475 27.5984 101.275 27.3419 101.091 27.074C100.762 26.529 100.466 25.966 100.148 25.442L100.014 25.211L99.732 24.584Z" fill="#363936"/>
<path d="M100.646 26.468C100.389 26.628 98.913 27.46 98.873 27.543C98.975 27.797 99.044 27.918 99.18 28.153C99.303 28.367 99.588 28.733 99.744 28.945C100.384 28.601 101.055 28.203 101.69 27.842C101.475 27.5984 101.274 27.342 101.09 27.074C100.927 26.8834 100.779 26.6809 100.646 26.468Z" fill="#252726"/>
<path d="M98.0601 26.207C98.1701 26.601 98.9011 27.868 99.1801 28.153C99.0605 27.9588 98.9578 27.7547 98.8731 27.543C98.9131 27.46 100.389 26.628 100.646 26.468C100.806 26.718 100.901 26.845 101.091 27.074C100.762 26.529 100.467 25.966 100.149 25.442C100.238 25.642 100.274 25.737 100.333 25.948C100.221 26.15 98.8501 26.872 98.5491 27.038C98.3897 26.7594 98.2267 26.482 98.0601 26.206" fill="#1C1E1D"/>
<path d="M99.7312 24.584L97.9282 25.652C98.0602 25.845 98.1782 26.012 98.3202 26.2C98.5682 26.14 99.8072 25.396 100.014 25.21L99.7312 24.584Z" fill="#525552"/>
<path d="M31.9442 55.709C31.3212 56.033 30.6442 56.446 30.0342 56.803C30.3072 57.293 30.6432 57.779 30.9542 58.249C31.1842 58.621 31.6322 59.307 31.8002 59.673C32.5002 59.283 33.2082 58.855 33.9072 58.478C33.6792 58.249 33.5822 58.162 33.4132 57.885C33.0602 57.213 32.4002 56.333 31.9442 55.709Z" fill="#1C1E1D"/>
<path d="M32.8981 57.144L30.9541 58.249C31.1841 58.621 31.6321 59.307 31.8001 59.673C32.5001 59.283 33.2081 58.855 33.9071 58.478C33.6791 58.249 33.5821 58.162 33.4131 57.885C33.2281 57.691 33.0461 57.376 32.8981 57.144Z" fill="#363936"/>
<path d="M19.867 59.706L19.737 59.436C19.447 59.338 19.225 59.53 18.967 59.675C18.956 60.677 19.369 61.261 19.859 62.118C20.209 62.725 20.711 63.951 21.519 63.91C21.649 63.904 22.059 63.675 22.194 63.602C21.312 62.434 21.024 61.832 20.284 60.611C20.121 60.328 19.994 60.007 19.867 59.706Z" fill="#252726"/>
<path d="M19.867 59.706L19.737 59.436C19.448 59.338 19.225 59.53 18.966 59.676C18.956 60.676 19.369 61.261 19.859 62.118C20.129 61.982 20.489 61.89 20.683 61.673C20.743 61.454 20.706 61.486 20.585 61.241C20.461 61.031 20.381 60.834 20.283 60.611C20.121 60.328 19.995 60.008 19.867 59.706Z" fill="#363936"/>
<path d="M19.867 59.705C19.725 59.794 19.437 59.949 19.384 60.109C19.237 60.546 19.648 61.294 20.044 61.485C20.282 61.412 20.374 61.357 20.586 61.24C20.461 61.03 20.381 60.834 20.284 60.611C20.121 60.328 19.994 60.007 19.867 59.705Z" fill="#525552"/>
<path d="M2.20312 81.986C2.70512 83.466 4.56413 85.332 5.57013 86.583C5.43013 86.297 5.42913 85.923 5.64313 85.676C5.81713 85.64 5.80712 85.64 5.97312 85.706C6.33312 86.223 7.04013 87.262 7.45913 87.671C7.12513 86.437 4.38012 83.893 3.48612 82.446L2.69712 82.887C2.53712 82.552 2.39412 82.306 2.20312 81.986Z" fill="#252726"/>
<path d="M35.6101 50.345C35.3651 49.973 34.7901 48.911 34.5601 48.69C34.2901 48.43 31.3631 50.176 31.2131 50.4C31.4251 50.79 31.6471 51.229 31.9111 51.58C32.0541 51.58 32.2861 51.381 32.4191 51.287C32.4861 50.92 31.9161 50.692 32.7481 50.239C33.4081 49.879 34.2451 49.073 34.7061 50.099L34.6911 50.225L34.8591 50.348C34.9731 50.298 35.1591 50.208 35.2731 50.191L35.6101 50.345Z" fill="#363936"/>
<path d="M35.6101 50.345C35.3651 49.973 34.7901 48.911 34.5601 48.69C34.2901 48.43 31.3631 50.176 31.2131 50.4C31.7661 50.207 33.6281 49.06 34.2861 48.72C34.5251 49.058 34.8961 49.49 34.8941 49.888C34.8031 50.071 34.8511 50.047 34.7061 50.099L34.6911 50.225L34.8591 50.348C34.9731 50.298 35.1591 50.208 35.2731 50.191L35.6101 50.345Z" fill="#1C1E1D"/>
<path d="M35.8941 76.205C36.4541 76.287 40.6541 74.228 40.1701 73.405C39.9501 73.327 39.8911 73.308 39.6941 73.181L39.6541 73.154C38.1161 76.808 35.5741 72.192 35.1941 72.131L35.1211 72.226C35.1391 72.566 35.3551 72.774 35.5291 73.041C36.1371 73.975 36.8661 74.414 37.8231 74.919C37.4785 75.1527 37.1137 75.3551 36.7331 75.524C36.3911 75.907 36.0701 75.869 35.8941 76.205Z" fill="#363936"/>
<path d="M36.936 52.182C37.319 52.837 37.616 53.242 38.066 53.852C38.506 53.607 38.975 53.33 39.433 53.129C39.081 52.589 38.653 51.966 38.326 51.42C37.866 51.661 37.393 51.93 36.936 52.182Z" fill="#252726"/>
<path d="M104.514 26.43C104.181 26.631 103.813 26.842 103.488 27.05C103.215 27.258 102.987 27.39 102.691 27.564C102.798 27.63 102.958 27.763 103.041 27.711C104.683 26.694 108.087 25.031 109.534 24.018C109.573 23.864 109.539 23.814 109.486 23.664C109.158 23.708 106.812 25.108 106.341 25.378L105.766 25.711C105.327 25.981 104.972 26.191 104.514 26.43Z" fill="#454844"/>
<path d="M1.35205 79.923C1.47505 80.561 1.88405 81.407 2.20305 81.986C2.39305 82.306 2.53705 82.552 2.69805 82.886L3.48605 82.446C3.06905 81.716 2.35305 80.3 2.14205 79.522C2.01205 79.546 1.50205 79.841 1.35205 79.923Z" fill="#777973"/>
<path d="M37.5162 49.92L36.1062 50.555C36.3802 51.124 36.6282 51.632 36.9362 52.182C37.3932 51.931 37.8662 51.662 38.3262 51.42C38.036 50.9312 37.7658 50.4308 37.5162 49.92Z" fill="#363936"/>
<path d="M57.3302 55.758C57.2872 55.992 57.4172 57.088 57.4642 57.359C57.0512 57.643 56.5412 57.937 56.1062 58.201C56.2822 58.36 56.3882 58.471 56.6072 58.572C56.8842 58.562 56.7792 58.582 57.0522 58.395L57.0622 58.367C57.2852 57.749 57.7652 57.494 58.2892 57.057C58.2942 56.531 58.1972 55.853 58.1352 55.318L57.3302 55.758Z" fill="#252726"/>
<path d="M2.24017 82.492C1.79217 81.694 1.49517 80.991 1.15617 80.145L1.06117 80.117C0.351174 80.576 0.864174 82.152 1.06817 82.845C1.42817 82.973 1.82017 82.587 2.24017 82.492Z" fill="#363936"/>
<path d="M49.9601 65.096C49.4211 65.347 49.8801 65.338 49.4241 65.593C49.4491 65.843 50.5871 67.87 50.7881 68.169L50.8661 68.178C50.8921 67.859 50.6931 67.542 50.5391 67.267C50.7111 67.355 51.4391 68.663 51.6641 68.994C51.6011 68.595 50.3241 66.648 50.1041 65.934C50.6791 66.439 51.4001 68.801 52.0151 68.929C51.9551 68.717 50.0281 65.172 49.9601 65.096Z" fill="#101010"/>
<path d="M39.6152 48.138C39.0832 48.445 38.1072 48.864 37.7642 49.291C37.7102 49.517 37.7462 49.503 37.8272 49.744C37.9402 49.922 37.9742 50.054 38.1372 50.111C38.7282 49.835 39.4502 49.323 39.9632 49.107L40.0152 48.99C39.9732 48.722 39.7542 48.385 39.6152 48.138Z" fill="#363936"/>
<path d="M39.9632 49.107C39.8192 48.944 39.7871 48.879 39.5921 48.804C39.0461 48.806 38.3081 49.421 37.8271 49.744C37.9401 49.922 37.9741 50.054 38.1371 50.111C38.7281 49.835 39.4502 49.323 39.9632 49.107Z" fill="#454844"/>
<path d="M31.16 54.377L29.29 55.487L29.799 56.389L31.664 55.303L31.16 54.377ZM40.47 50.207C40.3223 49.9469 40.1835 49.6817 40.054 49.412C39.724 49.376 38.512 50.158 38.145 50.372L38.667 51.275C39.2717 50.9257 39.8734 50.5697 40.47 50.207Z" fill="#363936"/>
<path d="M30.722 53.283C30.254 53.539 29.256 53.993 28.904 54.394C28.831 54.477 28.924 54.655 28.967 54.778C29.047 54.954 29.091 55.133 29.227 55.232C29.589 55.126 30.801 54.438 31.017 54.172L30.96 53.983C30.93 53.734 30.82 53.517 30.722 53.283Z" fill="#454844"/>
<path d="M30.722 53.283C30.254 53.539 29.256 53.993 28.904 54.394C28.831 54.477 28.924 54.655 28.967 54.778C29.349 54.519 30.378 53.909 30.807 53.868C30.85 53.899 30.927 53.948 30.96 53.983C30.93 53.734 30.82 53.517 30.722 53.283ZM108.296 19.794C108.117 19.839 108.09 19.834 107.967 19.96C107.907 20.318 108.442 20.97 108.646 21.312C108.796 21.579 108.984 21.936 109.145 22.188C109.291 22.447 109.448 22.845 109.669 22.972C109.853 22.962 109.892 22.919 110.056 22.818C109.935 22.478 108.547 20.09 108.296 19.794Z" fill="#363936"/>
<path d="M108.296 19.794C108.117 19.839 108.09 19.834 107.967 19.96C107.907 20.318 108.442 20.97 108.646 21.312C108.753 21.246 108.819 21.192 108.915 21.115C108.988 20.764 108.508 20.174 108.296 19.794Z" fill="#454844"/>
<path d="M110.057 22.818C109.935 22.478 108.547 20.09 108.296 19.794C108.508 20.176 108.988 20.764 108.915 21.114C108.819 21.192 108.753 21.246 108.646 21.312C108.796 21.579 108.984 21.936 109.145 22.188C109.024 21.861 108.946 21.89 109.12 21.61L109.03 21.57C109.487 21.71 109.769 22.46 110.057 22.818Z" fill="#1C1E1D"/>
<path d="M19.687 84.203C19.551 84.141 19.343 84.018 19.212 84.049C18.886 85.162 19.282 84.927 18.386 86.061C18.6 86.0563 18.8137 86.0473 19.027 86.034C19.876 85.876 20.426 84.694 19.687 84.203Z" fill="#363936"/>
<path d="M19.6871 84.203C19.7221 84.962 19.6271 85.514 19.0271 86.034C19.8761 85.876 20.4261 84.694 19.6871 84.203Z" fill="#252726"/>
<path d="M50.49 43.052C50.663 43.502 52.611 46.832 52.92 46.945C53.115 46.831 53.151 46.857 53.22 46.693C52.786 45.914 51.822 44.535 51.29 43.675L51.065 43.761C50.787 43.63 50.655 43.314 50.49 43.052Z" fill="#363936"/>
<path d="M32.3061 54.32C32.0861 53.929 32.0111 53.318 31.7351 53.1C31.3241 53.28 31.5971 53.798 31.7121 54.083C31.8611 54.531 32.8861 56.143 33.2521 56.367C33.4811 56.346 33.4131 56.382 33.5801 56.257C33.4871 56.023 32.9421 55.39 32.7741 55.128C32.6056 54.8661 32.4495 54.5965 32.3061 54.32Z" fill="#252726"/>
<path d="M32.3061 54.32C32.0861 53.929 32.0111 53.318 31.7351 53.1C31.3241 53.28 31.5971 53.798 31.7121 54.083C31.8851 54.386 31.9521 54.552 32.2361 54.749L32.3521 54.747C32.4091 54.527 32.3821 54.575 32.3061 54.32ZM99.4501 23.776C98.8851 24.119 98.0501 24.449 97.7051 24.899C97.6631 25.179 97.7131 25.165 97.8411 25.47C98.4381 25.109 99.0711 24.764 99.6821 24.423C99.5831 24.209 99.5231 24 99.4501 23.776ZM102.019 27.97C101.694 27.942 100.106 28.78 100.039 29.225C100.135 29.411 100.077 29.365 100.246 29.43C100.631 29.311 101.725 28.59 102.27 28.353L102.019 27.97Z" fill="#363936"/>
<path d="M12.0801 92.066C11.7231 92.383 11.4431 92.53 11.0151 92.727L11.7511 93.803L11.8091 93.795C12.3231 93.429 12.4191 92.587 12.0801 92.066Z" fill="#252726"/>
<path d="M50.0201 41.19L49.7441 41.627C49.9848 42.107 50.2335 42.582 50.4901 43.052C50.6551 43.314 50.7861 43.63 51.0641 43.761L51.2901 43.675C50.8381 42.903 50.4001 42 50.0201 41.19Z" fill="#525552"/>
<path d="M32.3962 54.14C32.5592 54.547 33.3702 55.853 33.8242 56.054C33.9692 56.118 34.0152 56.075 34.1602 56.034L34.2202 55.945C33.9032 55.535 33.3612 54.845 33.0312 54.441L32.7962 54.549C32.5642 54.475 32.5632 54.38 32.3962 54.14ZM2.2482 78.556C1.8502 78.813 1.3772 78.936 1.1832 79.321C1.1412 79.564 1.2402 79.696 1.3522 79.924C1.5022 79.841 2.0122 79.546 2.1422 79.522C2.0342 79.302 2.1882 78.823 2.2482 78.556ZM26.7232 58.07L26.4502 58.244C26.7212 58.716 27.4622 59.897 27.8632 60.203L27.9892 60.173C27.9942 59.886 26.9862 58.517 26.7222 58.069" fill="#252726"/>
<path d="M26.7221 58.07C26.4421 57.573 26.1751 57.086 25.9361 56.568C25.8491 56.376 25.7561 55.998 25.6061 55.916C25.4441 56.134 25.4551 56.267 25.5661 56.52C25.8241 57.11 26.1341 57.682 26.4491 58.244L26.7221 58.07ZM33.0311 54.442C32.8371 54.072 32.4241 53.059 32.1211 52.897C31.9941 53.185 32.2801 53.847 32.3961 54.14C32.5631 54.38 32.5641 54.475 32.7961 54.549L33.0311 54.442Z" fill="#363936"/>
<path d="M54.5131 59.135C53.8151 59.581 54.2181 59.632 54.0501 60.403C54.0201 60.547 53.7281 60.849 53.6201 61.163C54.4941 60.722 54.5521 59.996 54.5131 59.135Z" fill="#252726"/>
<path d="M11.2482 89.926C10.9562 90.082 10.8022 90.159 10.5442 90.364C10.3762 90.806 10.3102 90.959 10.2392 91.434L10.2332 91.477C10.3832 91.749 10.7012 92.43 10.9692 92.523L11.0982 92.47C10.8872 92.355 10.6292 91.702 10.4912 91.424L10.5572 91.204L10.5752 91.119C10.5252 90.469 10.7722 90.261 11.2482 89.926ZM100.245 24.267C100.133 24.352 100.11 24.381 100.016 24.481C99.9792 24.887 100.418 25.533 100.632 25.901L100.827 25.721C100.904 25.447 100.409 24.701 100.245 24.267Z" fill="#1C1E1D"/>
<path d="M41.7021 72.683C41.6301 72.736 41.3661 72.93 41.3371 72.99C41.2051 73.272 41.4141 74.048 41.4721 74.384C41.6871 74.093 41.6851 73.08 41.7021 72.683Z" fill="#252726"/>
<path d="M102.27 28.353C102.47 28.278 102.497 28.26 102.665 28.128C102.698 27.936 102.715 28.016 102.59 27.837C102.235 27.681 102.245 27.693 102.02 27.97L102.27 28.353Z" fill="#1C1E1D"/>
<path d="M50.0201 41.19C49.9151 40.953 49.9561 40.94 49.7601 40.82L49.6331 40.874C49.5401 41.124 49.5201 41.144 49.6471 41.422C49.6785 41.4907 49.7108 41.559 49.7441 41.627L50.0201 41.19Z" fill="#454844"/>
<path d="M50.9521 68.052C50.9581 68.415 51.4091 69.222 51.5981 69.56C51.7131 69.212 51.1401 68.379 50.9521 68.052Z" fill="#363936"/>
<path d="M100.199 23.564L99.8962 23.754C99.7982 23.978 99.8542 24.009 99.9122 24.284C100.006 24.214 100.074 24.151 100.16 24.074C100.206 23.854 100.201 23.791 100.199 23.564Z" fill="#252726"/>
<path d="M77.2532 41.567C77.1532 41.65 77.1612 41.656 77.1052 41.775C77.1312 42.029 77.3152 42.287 77.4482 42.513C77.4442 42.206 77.4382 41.813 77.2532 41.567ZM75.1272 38.31C75.2472 38.68 75.3852 38.949 75.7862 38.92C75.7252 38.657 75.3662 38.473 75.1272 38.31Z" fill="#363936"/>
<path d="M66.2802 40.503C66.0862 40.583 65.9282 40.613 65.8672 40.811C66.0962 40.761 66.1552 40.688 66.2802 40.503Z" fill="#696C63"/>
<path d="M55.3372 46.821C55.2062 46.874 55.1072 46.929 54.9842 46.996L54.9512 47.113C55.1842 47.068 55.2242 46.982 55.3372 46.821ZM50.5552 49.582C50.4222 49.634 50.3272 49.688 50.2042 49.755L50.1702 49.873C50.4052 49.826 50.4412 49.745 50.5552 49.582Z" fill="#525552"/>
<path d="M69.9441 38.386C69.8226 38.4313 69.7057 38.4882 69.5951 38.556L69.5681 38.673C69.7981 38.628 69.8351 38.544 69.9441 38.386ZM62.6401 42.603C62.5093 42.6556 62.3832 42.7192 62.2631 42.793L62.2391 42.905C62.4591 42.863 62.5211 42.778 62.6401 42.603ZM65.0601 41.205C64.9051 41.265 64.8511 41.295 64.7061 41.379L64.6801 41.496C64.9101 41.45 64.9481 41.363 65.0601 41.205ZM71.0861 37.73C70.9801 37.754 70.9411 37.786 70.8451 37.837L70.8221 37.95C70.9321 37.927 70.9691 37.898 71.0701 37.847L71.0861 37.73ZM63.7051 41.992C63.5971 42.021 63.5551 42.051 63.4561 42.102L63.4411 42.21C63.5461 42.193 63.5841 42.162 63.6811 42.112L63.7051 41.992ZM67.4221 39.84C67.1861 39.938 67.0761 39.948 66.9981 40.189C67.2341 40.069 67.3441 40.051 67.4221 39.84ZM68.7181 39.094C68.5601 39.158 68.4941 39.194 68.3461 39.28L68.3291 39.388C68.5351 39.354 68.6091 39.261 68.7181 39.094ZM56.5541 46.118C56.4246 46.1715 56.2989 46.234 56.1781 46.305L56.1631 46.412C56.3661 46.381 56.4441 46.279 56.5541 46.118ZM45.7181 52.373C45.5891 52.426 45.4901 52.483 45.3701 52.549L45.3521 52.654C45.5631 52.622 45.6101 52.529 45.7181 52.373ZM54.1081 47.525C53.8911 47.621 53.7711 47.636 53.6921 47.859C53.9041 47.764 54.0311 47.744 54.1081 47.525ZM48.0641 51.015C47.8441 51.114 47.7441 51.123 47.6641 51.35C47.8601 51.256 48.0101 51.223 48.0641 51.015ZM29.3261 61.84L29.1261 61.925L29.0881 62.041C29.1311 62.033 29.2481 61.986 29.2971 61.968L29.3261 61.84Z" fill="#696C63"/>
<path d="M28.1222 62.536L27.9322 62.616L27.8982 62.728C27.9642 62.717 28.0392 62.684 28.1042 62.66L28.1222 62.536ZM51.6472 48.954L51.4522 49.034L51.4182 49.148C51.4592 49.141 51.5782 49.094 51.6242 49.078L51.6472 48.954Z" fill="#525552"/>
<path d="M60.0692 44.092L59.8732 44.173L59.8332 44.29C59.8772 44.281 59.9932 44.234 60.0432 44.216L60.0692 44.092ZM58.8252 44.81L58.6222 44.893L58.5872 45.009C58.6292 45.001 58.7452 44.953 58.7932 44.936L58.8252 44.81Z" fill="#696C63"/>
<path d="M52.8372 48.267L52.6462 48.341L52.6182 48.455C52.6812 48.445 52.7562 48.412 52.8192 48.388L52.8372 48.267Z" fill="#525552"/>
<path d="M46.8032 51.75L46.6192 51.827L46.5762 51.944C46.6462 51.929 46.7212 51.894 46.7892 51.868L46.8032 51.75ZM72.2442 37.066L72.0412 37.149L72.0152 37.256C72.0772 37.248 72.1512 37.214 72.2122 37.191L72.2442 37.066ZM49.1922 50.371L49.0082 50.443L48.9662 50.564C49.0122 50.554 49.1282 50.506 49.1792 50.487L49.1922 50.371ZM57.6212 45.507L57.4252 45.582L57.4132 45.687C57.4432 45.683 57.5622 45.639 57.5992 45.627L57.6212 45.507ZM61.2632 43.405L61.0662 43.481L61.0462 43.589C61.0802 43.584 61.1982 43.539 61.2382 43.525L61.2632 43.405Z" fill="#696C63"/>
</g>
</g>
<defs>
<linearGradient id="paint0_linear_3215_9734" x1="41.5641" y1="64.431" x2="38.1601" y2="58.572" gradientUnits="userSpaceOnUse">
<stop stop-color="#52544F"/>
<stop offset="1" stop-color="#8D8F81"/>
</linearGradient>
<linearGradient id="paint1_linear_3215_9734" x1="27.3962" y1="57.65" x2="26.4672" y2="55.82" gradientUnits="userSpaceOnUse">
<stop stop-color="#3A3E3B"/>
<stop offset="1" stop-color="#525652"/>
</linearGradient>
<clipPath id="clip0_3215_9734">
<rect width="110" height="110" fill="white"/>
</clipPath>
</defs>
</svg>
