<svg width="206" height="29" viewBox="0 0 206 29" fill="none" xmlns="http://www.w3.org/2000/svg">
<path d="M161.054 5.75915L134.951 10.0962L135.354 12.2502L161.619 7.88632" fill="#454544"/>
<path d="M153.341 7.19393L135.389 10.1768L135.854 12.665L153.811 9.68154" fill="#696C63"/>
<path d="M161.249 5.92986L135.145 10.2669L135.548 12.4172L161.813 8.05331" stroke="black" stroke-linejoin="round"/>
<path d="M161.91 8.55403L161.332 5.42195L164.701 4.90051L164.654 4.69384C164.931 4.76269 165.871 5.59448 166.135 6.17866C166.156 6.83381 165.855 8.00208 165.345 8.3203L165.275 8.03325L161.91 8.55403Z" fill="#2B2B29" stroke="black"/>
<path d="M161.054 23.4059L134.951 19.0688L135.354 16.9148L161.619 21.2787" fill="#454544"/>
<path d="M153.341 21.9711L135.389 18.9883L135.854 16.5L153.811 19.4835" fill="#696C63"/>
<path d="M161.249 23.2352L135.145 18.8981L135.548 16.7478L161.813 21.1117" stroke="black" stroke-linejoin="round"/>
<path d="M161.91 20.611L161.332 23.7431L164.701 24.2645L164.654 24.4712C164.931 24.4024 165.871 23.5706 166.135 22.9864C166.156 22.3312 165.855 21.163 165.345 20.8447L165.275 21.1318L161.91 20.611Z" fill="#2B2B29" stroke="black"/>
<path d="M63.0859 4.51744L66.2168 4.59655L66.5479 4.60534L66.5576 4.93639C66.5755 5.5384 66.6421 6.43351 66.5869 7.20006C66.5701 7.43382 66.5412 7.66434 66.4951 7.8778C66.4578 8.05033 66.4057 8.21792 66.3369 8.37194C66.342 8.39752 66.3502 8.42364 66.3594 8.45397C66.4638 8.47712 66.6064 8.50099 66.79 8.52135C67.077 8.55316 67.4354 8.57588 67.8457 8.59166C68.6656 8.62319 69.6759 8.62581 70.71 8.61608C72.7425 8.59693 74.8884 8.531 75.7695 8.55944C77.7989 8.42336 80.3915 8.51316 82.4238 8.51061H82.4277L83.5439 8.52428H83.5645L83.585 8.52721L83.9365 8.57213C88.6222 8.37587 90.4638 8.56921 95.1631 8.58971L95.5156 8.59069L95.5146 8.67565L138.899 8.72252H138.9L139.106 8.7235L139.398 8.72545L139.449 9.01354L139.972 11.996C140.131 12.0011 140.291 12.0079 140.449 12.0165C143.692 11.7909 149.512 12.0563 152.702 12.0819C158.622 12.0509 164.543 12.0932 170.462 12.2059C170.549 12.1899 170.655 12.1776 170.765 12.1698C170.911 12.1594 171.089 12.1527 171.287 12.1473C171.683 12.1366 172.17 12.134 172.659 12.1356C173.633 12.1387 174.648 12.1577 174.972 12.16H174.971L185.175 12.2147L186.598 12.1796L187.025 12.1532H187.029C187.879 12.1085 188.802 12.1056 189.653 12.0965L189.181 10.9022C189.106 10.7627 188.942 10.4674 188.87 10.2743L188.197 8.67174L188.019 8.24401L188.479 8.18834C188.867 8.1418 189.099 8.11138 189.254 8.09069C189.405 8.07049 189.498 8.05764 189.594 8.0526C189.688 8.04765 189.783 8.04971 189.937 8.0526C190.095 8.05558 190.332 8.05973 190.729 8.06041H190.908C191.906 8.05004 192.93 8.07066 193.783 8.07213H193.782C196.381 8.06756 198.98 8.08309 201.579 8.11998L201.895 8.11217L202.072 8.10631L202.181 8.24596C202.516 8.6746 202.786 9.27118 203.027 9.85631C203.276 10.4584 203.496 11.051 203.743 11.5526C203.809 11.6699 203.89 11.8093 204 12.0047C204.004 12.0054 204.009 12.007 204.014 12.0077C204.044 12.0122 204.087 12.0182 204.132 12.0262C204.326 12.0609 204.588 12.1384 204.836 12.3934L204.875 12.4335L204.899 12.4823C205.006 12.6976 205.088 12.9266 205.152 13.161C205.431 14.1699 205.38 15.3628 205.214 16.3378C205.141 16.7645 205.045 17.0698 204.913 17.2948C204.772 17.5356 204.601 17.6633 204.429 17.7538C204.354 17.793 204.268 17.8307 204.209 17.8583C204.143 17.8888 204.084 17.9177 204.025 17.9549C203.92 18.0214 203.799 18.125 203.658 18.3221C203.555 18.6901 203.29 19.3151 203.026 19.9042C202.738 20.5481 202.43 21.194 202.279 21.5135L202.187 21.7108L201.968 21.7137C201.395 21.7216 199.669 21.779 198.037 21.7948C197.213 21.8028 196.395 21.8003 195.728 21.7762C195.394 21.7642 195.094 21.7467 194.848 21.7215C194.646 21.701 194.457 21.6717 194.312 21.6297C193.297 21.6404 192.084 21.6672 190.913 21.6473L190.903 21.6688L190.667 21.6512L190.505 21.6395C189.799 21.6198 189.11 21.5807 188.491 21.5008L188.033 21.4422L188.214 21.0174C188.7 19.8759 189.196 18.7419 189.701 17.6161L186.762 17.6034C183.181 17.7176 179.654 17.5257 176.044 17.5165L152.855 17.4549H152.854L144.238 17.3719C144.074 17.372 143.77 17.3754 143.388 17.3788C143.005 17.3822 142.546 17.3857 142.079 17.3856C141.337 17.3854 140.555 17.3744 140.02 17.3407L139.559 19.9725L139.508 20.2616H139.008L95.543 20.202L95.5449 20.284L95.1885 20.2821L85.2334 20.2381H85.2227L71.4639 19.7684V19.7674C71.0109 19.7666 69.7926 19.7511 68.6016 19.7547C68.0037 19.7566 67.42 19.764 66.9551 19.7801C66.7223 19.7882 66.5224 19.7985 66.3672 19.8114C66.3477 19.813 66.3292 19.8156 66.3115 19.8172C66.3166 19.9048 66.3367 19.9853 66.3652 20.0751C66.4163 20.2355 66.5194 20.485 66.5332 20.7987C66.5703 21.6466 66.5371 22.6181 66.5186 23.4432L66.5107 23.7655L66.1895 23.785C65.161 23.8457 64.199 23.8515 63.1807 23.8505H63.1729C62.5001 23.8337 61.7612 23.833 61.0732 23.7928L60.748 23.7733L60.7432 23.4491C60.7352 22.957 60.7371 22.0402 60.7061 21.6141L60.7041 21.5975L60.7051 21.5799C60.7212 20.9683 60.7731 20.6778 60.8682 20.1014L60.8701 20.0917L60.918 19.8407C60.8316 19.7882 60.6864 19.7533 60.4434 19.7499C60.2822 19.7476 60.1156 19.7581 59.9375 19.7674C59.7798 19.7757 59.6037 19.7825 59.4463 19.7674L28.2334 20.1786H28.2285L15.8535 20.1727C14.0586 20.1715 12.0478 20.1184 10.2021 20.1756C10.3041 20.2632 10.3989 20.3638 10.4766 20.4823L10.5527 20.5975L10.5293 20.7342C10.4471 21.2091 10.2089 21.569 9.875 21.8065C9.54781 22.0391 9.14895 22.1406 8.75586 22.1473C7.9843 22.1605 7.12257 21.8086 6.6709 21.16L6.61914 21.0848L6.61035 20.994C6.58329 20.7156 6.62735 20.4734 6.76953 20.2811C6.8705 20.1447 6.99977 20.0623 7.11523 20.0087C7.08846 20.0028 7.06114 19.9968 7.0332 19.9911C6.69358 19.921 6.29643 19.8615 5.89062 19.8124C5.08842 19.7152 4.27461 19.658 3.82324 19.621C2.81055 19.6541 2.13816 19.5591 1.17773 19.4217L1.13086 19.4149L0.850586 19.3749L0.831055 19.0917C0.758866 18.0393 0.670579 16.0901 0.65332 14.16C0.636201 12.2448 0.687889 10.2995 0.910156 9.28405L0.931641 9.18444L1.00293 9.11315C1.08192 9.03343 1.18278 8.98261 1.26465 8.94909C1.35341 8.91277 1.45752 8.88195 1.56934 8.85436C1.79333 8.79911 2.08211 8.7509 2.41992 8.70787C3.09751 8.62159 4.00793 8.5518 5.07129 8.49596C7.20023 8.38416 9.96884 8.32547 12.7715 8.29674C18.3775 8.23928 24.138 8.30231 25.2275 8.31041H25.2266L57.8994 8.46862H57.8984C58.1107 8.46873 58.3731 8.47294 58.6553 8.47643C58.9388 8.47994 59.2445 8.48296 59.5479 8.48229C60.0653 8.48113 60.5575 8.4656 60.916 8.42662L60.9219 8.41002C60.7853 7.99347 60.7098 7.36933 60.6846 6.78112C60.6562 6.1175 60.6884 5.40498 60.8145 4.97838L60.8418 4.88463L60.915 4.81823C61.0338 4.71082 61.1776 4.65129 61.3047 4.61608C61.4343 4.58019 61.5718 4.563 61.6982 4.55358C61.9301 4.53633 62.2217 4.54512 62.3467 4.54186L63.0654 4.51744L63.0752 4.51647L63.0859 4.51744Z" fill="black" stroke="black" stroke-width="0.7"/>
<path d="M95.1504 19.7292L95.0273 19.7292L95.0273 9.14818L95.1504 9.14916L138.898 9.19604L139.002 9.19604L139.02 9.2976L139.59 12.5496L139.592 12.5603L139.592 17.0525L139.59 17.0632L139.129 19.6882L139.111 19.7898L139.008 19.7898L95.1504 19.7292Z" fill="#696C63" stroke="black" stroke-width="0.245192"/>
<path d="M33.4783 14.608C33.4524 11.58 34.0281 9.70292 34.3191 9.14287L7.83471 9.38841L4.13056 9.71677L3.83423 14.1907L4.0713 18.7468L8.45855 19.1583L34.3838 19.3336C34.0927 19.0201 33.5042 17.636 33.4783 14.608Z" fill="#8D8F81"/>
<path d="M94.9491 16.6973C94.9227 15.611 94.9602 14.0674 94.9668 12.9506L94.9282 9.31823C92.1885 9.30988 89.4013 9.34017 86.665 9.27123C86.7069 10.6314 86.7212 11.3067 86.6296 12.6509C88.2439 12.6013 94.8443 11.3011 92.6431 16.1495C92.1256 17.2899 87.7385 16.8894 86.7058 16.9L86.7058 19.4691C88.9655 19.6806 92.6751 19.6568 94.9701 19.6473C94.9668 18.8248 94.9911 17.4773 94.9491 16.6973Z" fill="#696C63"/>
<path d="M92.2836 15.9563C91.7947 16.8876 87.6499 16.5605 86.6741 16.5692L86.6022 13.099C88.1273 13.0585 94.3633 11.9967 92.2836 15.9563Z" fill="#8D8F81"/>
<path d="M66.2082 4.94656C66.238 5.94929 66.3836 7.54715 65.9787 8.31269L65.8386 8.31421C64.9724 8.24666 62.3243 8.05501 61.5111 8.23474L61.2981 8.41921C61.0091 7.73101 60.9329 5.81373 61.1503 5.07799C61.4019 4.85027 62.0264 4.90041 62.3585 4.89124L63.0768 4.86663L66.2082 4.94656Z" fill="#131314"/>
<path d="M66.0042 23.0733C65.9413 22.4791 65.8564 21.4349 65.7782 20.889C64.919 20.9139 62.0155 21.1214 61.3625 20.6332L61.3553 23.1167C62.2738 23.1467 65.0738 23.24 66.0042 23.0733Z" fill="#3B3B3A"/>
<path d="M66.0042 5.47133C65.9413 6.06551 65.9257 7.40603 65.8475 7.95192C64.9883 7.92702 63.0035 7.71373 61.3625 7.9114L61.3553 5.42791C62.2738 5.39795 65.0738 5.30458 66.0042 5.47133Z" fill="#3B3B3A"/>
<path d="M52.8299 17.2129L52.8295 17.2097C52.0837 17.1776 50.0623 16.9971 49.4488 17.2187C48.0585 17.7209 48.917 18.0452 47.0522 17.8866C46.5083 17.9145 46.3979 17.9038 45.8805 17.6733C43.367 17.1479 40.4099 18.1708 37.9835 17.574C37.3513 17.4186 37.3414 10.9003 37.9317 10.7387C39.8571 10.2118 42.2084 10.7745 44.2629 10.6094C45.5053 10.5097 47.978 9.74778 48.8441 10.7814C49.4355 11.4464 52.0693 11.1742 52.8803 11.157C52.9377 10.6195 52.941 9.73265 52.9564 9.16565C51.1811 9.22326 49.2513 9.12774 47.4572 9.1282L34.7352 9.12346C33.8095 11.2411 33.7995 16.0941 34.4218 18.4591C34.5675 19.0141 34.9625 19.3305 35.3939 19.3404C39.536 19.4347 43.5594 19.1459 47.7026 19.22L52.9807 19.0507C52.962 18.3573 52.9081 17.89 52.8299 17.2129Z" fill="#696C63"/>
<path d="M81.4182 10.1849C81.3255 12.918 81.3255 15.3825 81.3366 18.1156C79.5491 17.8795 77.7241 17.3218 75.9035 17.1031C75.61 17.065 75.4324 17.0809 75.2084 16.8178C74.8443 15.8182 75.0329 12.811 75.0473 11.5223C77.1338 11.0007 79.2214 10.8124 81.4182 10.1849Z" fill="#3B3B3A"/>
<path d="M45.7923 17.0356L45.7747 17.1852C45.2704 17.3766 40.6119 17.2757 39.9124 17.2696C39.6211 15.1813 39.5582 13.0723 39.9201 10.9961C41.6745 10.8667 44.0556 10.9211 45.8022 10.9824C45.5551 13.1967 45.5518 14.8255 45.7923 17.0356Z" fill="#3B3B3A"/>
<path d="M65.1554 13.3968C65.3904 14.6556 65.0053 15.9792 64.2064 16.662C63.4076 17.3449 62.3815 17.2283 61.6731 16.3741C61.3873 16.0291 61.1733 15.5852 61.0519 15.0875C60.8003 14.0585 60.9746 12.9215 61.5076 12.1235C62.0394 11.3254 62.8438 10.9939 63.604 11.2594C64.3653 11.5249 64.9601 12.3447 65.1554 13.3968Z" fill="#3B3B3A"/>
<path d="M63.7012 13.6858C63.9109 14.1801 63.7961 14.8158 63.4419 15.1139C63.0888 15.4117 62.6276 15.2615 62.407 14.7764C62.2613 14.4559 62.2525 14.0515 62.3816 13.7184C62.5118 13.3852 62.7611 13.175 63.0348 13.1682C63.3084 13.1614 63.5633 13.3592 63.7012 13.6858Z" fill="#131314"/>
<path d="M63.4694 13.8294C63.6084 14.1309 63.5522 14.5302 63.3425 14.7383C63.1329 14.9464 62.8416 14.8902 62.6805 14.6105C62.5691 14.4159 62.5437 14.152 62.6154 13.9238C62.686 13.6956 62.8427 13.5408 63.0215 13.5209C63.2002 13.5012 63.3723 13.6198 63.4694 13.8294Z" fill="#1D1D1C"/>
<path d="M70.4041 10.0133C70.4716 10.1597 70.4443 10.3536 70.3426 10.4546C70.2408 10.5557 70.0994 10.5284 70.0211 10.3926C69.967 10.2981 69.9547 10.17 69.9895 10.0592C70.0238 9.94842 70.0999 9.87326 70.1867 9.86361C70.2734 9.85404 70.357 9.91162 70.4041 10.0133Z" fill="#696C63"/>
<path d="M57.9205 9.9664C57.988 10.1128 57.9607 10.3067 57.8589 10.4077C57.7571 10.5087 57.6157 10.4814 57.5375 10.3456C57.4834 10.2512 57.4711 10.123 57.5059 10.0123C57.5402 9.90148 57.6162 9.82632 57.703 9.81667C57.7898 9.8071 57.8734 9.86467 57.9205 9.9664Z" fill="#8D8F81"/>
<path d="M54.0135 9.97454C54.081 10.1209 54.0537 10.3148 53.9519 10.4158C53.8501 10.5169 53.7087 10.4896 53.6305 10.3538C53.5764 10.2593 53.5641 10.1312 53.5989 10.0204C53.6332 9.90962 53.7093 9.83445 53.796 9.82481C53.8828 9.81524 53.9664 9.87281 54.0135 9.97454Z" fill="#8D8F81"/>
<path d="M74.3026 10.0133C74.3701 10.1597 74.3428 10.3536 74.241 10.4546C74.1392 10.5557 73.9978 10.5284 73.9196 10.3926C73.8655 10.2981 73.8531 10.17 73.888 10.0592C73.9223 9.94842 73.9983 9.87326 74.0851 9.86361C74.1719 9.85404 74.2554 9.91162 74.3026 10.0133Z" fill="#696C63"/>
<path d="M74.3026 18.016C74.3701 18.1624 74.3428 18.3563 74.241 18.4573C74.1392 18.5583 73.9978 18.531 73.9196 18.3952C73.8655 18.3008 73.8531 18.1726 73.888 18.0619C73.9223 17.9511 73.9983 17.8759 74.0851 17.8663C74.1719 17.8567 74.2554 17.9143 74.3026 18.016Z" fill="#696C63"/>
<path d="M70.4041 18.016C70.4716 18.1624 70.4443 18.3563 70.3426 18.4573C70.2408 18.5583 70.0994 18.531 70.0211 18.3952C69.967 18.3008 69.9547 18.1726 69.9895 18.0619C70.0238 17.9511 70.0999 17.8759 70.1867 17.8663C70.2734 17.8567 70.357 17.9143 70.4041 18.016Z" fill="#696C63"/>
<path d="M83.5388 9.78232C83.3424 11.2542 83.4185 16.9699 83.4274 18.741C82.9242 18.544 82.2997 18.3776 81.7789 18.2223C81.4545 17.5601 81.6344 11.4662 81.6576 10.2165C82.2523 10.0528 82.9342 9.92002 83.5388 9.78232Z" fill="#2B2B29"/>
<path d="M86.4399 9.27123C86.1653 10.9247 86.2718 17.3455 86.2841 19.3352C85.5805 19.1139 84.7073 18.9269 83.979 18.7525C83.5254 18.0086 83.7769 11.1629 83.8093 9.75899C84.6409 9.57512 85.5944 9.42592 86.4399 9.27123Z" fill="#3B3B3A"/>
<path d="M56.8381 16.4982C56.9065 17.135 57.0191 18.1292 56.8128 18.7068L56.6296 18.7091L54.6115 18.6423L54.6005 16.4638C55.3883 16.4181 56.0547 16.4545 56.8381 16.4982Z" fill="#0F0F0F"/>
<path d="M54.2277 17.8268C54.3148 18.018 54.3193 18.2602 54.2398 18.4577C54.1593 18.655 54.0081 18.7757 53.8448 18.7721C53.6815 18.7684 53.5326 18.6409 53.4575 18.4401C53.3472 18.1473 53.4233 17.7868 53.6308 17.6225C53.8371 17.458 54.0997 17.5482 54.2277 17.8268Z" fill="#0F0F0F"/>
<path d="M58.2737 12.7766C58.2505 13.6426 58.2593 14.5941 58.256 15.4677C56.687 15.4946 54.4769 15.5987 52.9388 15.438L52.9068 12.7341C54.6954 12.7748 56.484 12.7888 58.2737 12.7766Z" fill="#3B3B3A"/>
<path d="M74.7748 12.8621L74.7781 15.4761L69.4664 15.5012C69.4212 14.6601 69.4223 13.6814 69.409 12.8277C71.1645 12.7886 73.0127 12.8459 74.7748 12.8621Z" fill="#1D1D1C"/>
<path d="M52.0903 11.5007C51.8409 13.539 51.8608 14.8171 52.0991 16.834L49.7015 16.8131C49.3749 15.0155 49.4378 13.3024 49.6982 11.506L52.0903 11.5007Z" fill="#3B3B3A"/>
<path d="M48.5429 10.754C48.2936 13.2563 48.3134 14.8254 48.5518 17.3014C48.5518 17.3014 47.7794 17.4417 47.3483 17.4474C46.9172 17.4531 46.1541 17.2757 46.1541 17.2757C45.8275 15.0689 45.8904 12.9659 46.1508 10.7606C46.1508 10.7606 46.8664 10.5792 47.3297 10.576C47.8062 10.5727 48.5429 10.754 48.5429 10.754Z" fill="#424242"/>
<path d="M66.7497 10.5669C66.7508 12.9688 66.763 15.3709 66.7883 17.7727C65.5239 17.797 64.5783 17.8575 63.3215 18.0268C63.9228 17.5714 64.1766 17.4361 64.8287 17.1323C65.0549 16.8766 65.2899 16.477 65.4466 16.1386C65.8174 15.3329 65.9387 14.3538 65.7809 13.4231C65.5239 11.9611 64.9887 11.4515 64.1446 10.7528C65.013 10.6698 65.8814 10.6077 66.7497 10.5669Z" fill="#3B3B3A"/>
<path d="M59.7367 10.6055C60.6525 10.6013 61.5683 10.6093 62.4841 10.6295C60.6128 11.9322 59.6661 14.6107 61.5065 16.8751C61.7118 17.1273 61.8541 17.1292 62.0538 17.4499L61.9446 17.6305C61.6257 17.6996 61.3653 17.7083 61.0431 17.7253L59.8371 17.7583C59.5315 17.0849 59.7124 11.8406 59.7367 10.6055Z" fill="#3B3B3A"/>
<path d="M69.2764 11.5672C69.2157 13.3861 69.1925 15.2069 69.2069 17.0276C68.7644 17.0871 68.3142 17.112 67.9027 16.8768C67.5187 15.0743 67.5474 13.3049 67.917 11.5115C68.3473 11.4951 68.8416 11.5413 69.2764 11.5672Z" fill="#3B3B3A"/>
<path d="M39.4629 10.8957C39.1716 13.4376 39.2381 14.5927 39.3724 17.1572C39.0925 17.4016 38.5368 17.3467 38.155 17.3495C37.6757 15.7102 37.3308 12.6378 38.2597 11.1503C38.7984 10.7938 38.78 10.9015 39.4629 10.8957Z" fill="#424242"/>
<path d="M3.604 9.82291C3.24559 13.2499 3.39458 15.2136 3.55986 18.6711C3.10743 18.6711 2.47466 18.6323 2.00489 18.636C1.41508 16.426 1.39019 14.265 1.8971 10.1956C2.69366 9.83747 2.84366 9.87294 3.604 9.82291Z" fill="#2B2B29"/>
<path d="M83.449 19.1757C82.3643 19.3338 76.2973 19.1007 75.3352 18.8811C75.1123 18.5366 75.1432 17.9814 75.1277 17.5012C75.7213 17.1255 82.4471 18.8394 83.449 19.1757Z" fill="#696C63"/>
<path d="M83.449 9.29262C82.3643 9.13459 76.2973 9.36762 75.3352 9.58724C75.1123 9.93172 75.1432 10.487 75.1277 10.9672C75.7213 11.3428 82.4471 9.62901 83.449 9.29262Z" fill="#696C63"/>
<path d="M59.4353 11.498C59.4033 13.1578 59.3905 14.8183 59.3969 16.4787C59.1534 16.6889 58.9782 16.6091 58.6419 16.6067C58.5329 15.0572 58.3482 13.2445 58.7006 11.7833C58.99 11.4224 58.9409 11.5353 59.4353 11.498Z" fill="#1D1D1C"/>
<path d="M69.3174 9.21015C69.2898 9.81766 69.3251 10.6164 69.0945 11.0771C68.598 11.1187 68.0518 10.3047 67.5685 10.1501C67.296 10.0626 66.6108 10.0759 66.3085 10.0811L65.9885 9.97064L65.8627 9.66207L65.9223 9.44734C66.3846 8.96928 68.5947 9.1889 69.3174 9.21015Z" fill="#696C63"/>
<path d="M68.2095 17.5745C67.9314 18.0348 67.511 18.195 67.1513 17.821C67.0719 17.3579 67.095 12.0534 67.0553 10.8577L67.1491 10.5983C67.4901 10.4854 67.5342 10.4903 67.8774 10.5997C67.9082 10.6607 67.9424 10.7302 67.9822 10.8085C67.5154 12.3988 67.286 13.8219 67.4986 15.5562C67.6431 16.5128 67.6258 17.0451 68.2095 17.5745Z" fill="#1D1D1C"/>
<path d="M69.2643 17.4206C69.2798 18.034 69.2974 18.2855 69.1981 18.8778C68.7458 19.0356 66.3536 18.9303 65.7622 18.9128L65.909 18.4471C66.7354 18.0235 67.6247 18.7786 68.279 17.9445C68.7645 17.3266 68.5858 17.466 69.2643 17.4206Z" fill="#696C63"/>
<path d="M61.3555 9.29921C61.0907 10.6071 60.4948 9.78812 59.7511 10.044C59.4257 10.3973 59.5227 10.2724 59.408 10.9221C59.1057 11.2162 59.1906 11.1268 58.7404 11.0773C58.7956 10.6944 58.8067 9.6981 58.8188 9.26375C59.6905 9.14439 60.4882 9.08051 61.3555 9.29921Z" fill="#696C63"/>
<path d="M61.3555 18.9349C61.0907 17.627 60.4948 18.446 59.7511 18.1902C59.4257 17.8368 59.5227 17.9617 59.408 17.312C59.1057 17.0179 59.1906 17.1073 58.7404 17.1569C58.7956 17.5397 58.8067 18.536 58.8188 18.9704C59.6905 19.0897 60.4882 19.1536 61.3555 18.9349Z" fill="#696C63"/>
<path d="M49.4421 11.3895C49.0868 14.264 49.4278 14.5012 49.3153 16.729L49.0383 16.9618C48.6234 15.9986 48.5418 12.7809 48.8982 11.6582C48.9578 11.4705 49.2943 11.4337 49.4421 11.3895Z" fill="#1D1D1C"/>
<path d="M52.7237 11.4835C52.7392 11.7227 52.6531 16.7007 52.6443 16.7414L52.3707 16.8045C52.1831 15.6987 52.011 13.0647 52.3022 11.9108C52.3883 11.5708 52.4854 11.5996 52.7237 11.4835Z" fill="#1D1D1C"/>
<path d="M186.768 17.002C186.965 15.1278 187.357 14.374 186.619 12.5298L185.182 12.5658L174.969 12.5099C174.301 12.505 170.97 12.4332 170.486 12.5571C164.558 12.444 158.629 12.4029 152.701 12.434C149.411 12.4077 144.362 12.1671 141.182 12.419L140.95 12.3953C140.466 12.3713 139.951 12.3325 139.469 12.3369L139.51 16.9324C140.098 17.0892 143.514 17.0223 144.24 17.022L152.857 17.1048L176.046 17.1666C179.685 17.1759 183.178 17.3677 186.756 17.2532C186.768 17.002 186.755 17.1293 186.768 17.002Z" fill="#454544"/>
<path d="M201.906 8.46168C202.631 9.38738 203.076 11.281 203.749 12.2727C203.848 12.4194 204.226 12.2701 204.585 12.6392C205.089 13.66 205.068 15.1105 204.869 16.2789C204.589 17.9183 204.05 17.1172 203.338 18.1668C203.185 18.7983 202.266 20.7213 201.963 21.3635C200.768 21.3798 195.216 21.5916 194.359 21.2794C192.591 21.297 190.259 21.3763 188.536 21.1538C189.092 19.8487 189.66 18.5538 190.24 17.2695L187.534 17.2532C187.287 17.0326 186.755 17.1292 186.768 17.0019C186.965 15.1277 187.357 14.374 186.619 12.5298C187.742 12.4463 189.029 12.4613 190.166 12.4411L189.499 10.7542C189.413 10.5925 189.251 10.3057 189.193 10.1385L188.52 8.53595C190.083 8.34858 192.186 8.41965 193.782 8.4224C196.383 8.41781 198.984 8.43401 201.585 8.471L201.906 8.46168Z" fill="#454544"/>
<path d="M190.692 21.3026C193.876 14.7391 193.85 14.9889 190.728 8.4104C189.132 8.40765 190.083 8.34858 188.52 8.53595L189.193 10.1385C189.252 10.3057 189.414 10.5925 189.499 10.7542L190.166 12.4411C189.029 12.4613 187.743 12.4463 186.619 12.5298C187.357 14.374 186.965 15.1277 186.768 17.0019C186.755 17.1292 186.761 17.1183 186.744 17.2532L190.24 17.2695C189.66 18.5538 189.092 19.8487 188.536 21.1538L190.692 21.3026Z" fill="#0F0F0F"/>
<path d="M190.469 20.8834C193.667 14.6726 193.508 15.1237 190.536 8.81759C189.985 8.81224 189.423 8.82636 188.855 8.81307L189.92 11.2612C191.027 13.9534 191.625 11.33 192.221 14.8092C191.808 17.3765 191.866 16.7422 190.621 17.3415C190.226 17.5321 189.274 20.1755 188.839 20.9457C189.374 20.924 189.937 20.8881 190.469 20.8834Z" fill="#2B2B29"/>
<path d="M191.837 13.9108C192.087 17.1317 191.307 16.9736 189.396 16.9497C188.708 16.9412 187.949 16.9659 187.253 16.9714C187.082 16.5643 187.139 16.6653 187.218 16.0838C187.356 14.7416 187.291 14.1507 187.122 12.8307C188.524 12.923 189.767 12.5761 191.072 12.8589C191.461 12.9432 191.659 13.4551 191.837 13.9108Z" fill="#2B2B29"/>
<path d="M203.749 12.2713C203.56 11.9334 203.479 11.8109 203.354 11.5761C203.575 12.1022 204.008 13.5221 203.976 14.9933C203.96 16.5902 203.576 17.4552 203.338 18.1654C204.05 17.1157 204.589 17.9169 204.869 16.2774C205.068 15.109 205.089 13.6585 204.585 12.6377C204.226 12.2687 203.848 12.418 203.749 12.2713Z" fill="black"/>
<path d="M204.58 13.5424C204.663 14.4883 204.788 16.4395 204.17 17.0397L204.2 16.8068L204.219 16.7143C204.488 15.2986 204.362 14.6051 204.279 13.1101L204.407 13.092L204.58 13.5424Z" fill="#454544"/>
<path d="M134.292 10.4105C134.147 11.6692 132.11 11.3282 131.321 11.0064C131.332 10.729 131.329 10.6698 131.437 10.4042C132 10.0014 133.693 10.1344 134.292 10.4105Z" fill="#131314"/>
<path d="M134.031 10.7047C133.582 11.1899 132.17 10.98 131.555 10.8545C131.6 10.7422 131.704 10.6813 131.803 10.6034C132.436 10.5223 133.43 10.4969 134.031 10.7047Z" fill="#41433C"/>
<path d="M130.341 10.4105C130.195 11.6692 128.158 11.3282 127.37 11.0064C127.381 10.729 127.377 10.6698 127.485 10.4042C128.048 10.0014 129.741 10.1344 130.341 10.4105Z" fill="#131314"/>
<path d="M130.079 10.7047C129.63 11.1899 128.218 10.98 127.603 10.8545C127.648 10.7422 127.752 10.6813 127.851 10.6034C128.484 10.5223 129.478 10.4969 130.079 10.7047Z" fill="#41433C"/>
<path d="M126.389 10.4105C126.244 11.6692 124.206 11.3282 123.418 11.0064C123.429 10.729 123.426 10.6698 123.534 10.4042C124.097 10.0014 125.789 10.1344 126.389 10.4105Z" fill="#131314"/>
<path d="M126.127 10.7047C125.678 11.1899 124.266 10.98 123.652 10.8545C123.697 10.7422 123.801 10.6813 123.899 10.6034C124.532 10.5223 125.526 10.4969 126.127 10.7047Z" fill="#41433C"/>
<path d="M122.437 10.4105C122.292 11.6692 120.255 11.3282 119.466 11.0064C119.477 10.729 119.474 10.6698 119.582 10.4042C120.145 10.0014 121.837 10.1344 122.437 10.4105Z" fill="#131314"/>
<path d="M122.175 10.7047C121.726 11.1899 120.315 10.98 119.7 10.8545C119.745 10.7422 119.849 10.6813 119.947 10.6034C120.58 10.5223 121.575 10.4969 122.175 10.7047Z" fill="#41433C"/>
<path d="M118.485 10.4105C118.34 11.6692 116.302 11.3282 115.514 11.0064C115.525 10.729 115.522 10.6698 115.63 10.4042C116.193 10.0014 117.885 10.1344 118.485 10.4105Z" fill="#131314"/>
<path d="M118.223 10.7047C117.774 11.1899 116.362 10.98 115.748 10.8545C115.793 10.7422 115.897 10.6813 115.995 10.6034C116.628 10.5223 117.622 10.4969 118.223 10.7047Z" fill="#41433C"/>
<path d="M114.533 10.4105C114.388 11.6692 112.351 11.3282 111.562 11.0064C111.573 10.729 111.57 10.6698 111.678 10.4042C112.241 10.0014 113.934 10.1344 114.533 10.4105Z" fill="#131314"/>
<path d="M114.271 10.7047C113.822 11.1899 112.411 10.98 111.796 10.8545C111.841 10.7422 111.945 10.6813 112.044 10.6034C112.677 10.5223 113.671 10.4969 114.271 10.7047Z" fill="#41433C"/>
<path d="M110.581 10.4105C110.436 11.6692 108.399 11.3282 107.61 11.0064C107.621 10.729 107.618 10.6698 107.726 10.4042C108.289 10.0014 109.982 10.1344 110.581 10.4105Z" fill="#131314"/>
<path d="M110.32 10.7047C109.871 11.1899 108.459 10.98 107.844 10.8545C107.889 10.7422 107.993 10.6813 108.092 10.6034C108.725 10.5223 109.719 10.4969 110.32 10.7047Z" fill="#41433C"/>
<path d="M106.629 10.4105C106.484 11.6692 104.447 11.3282 103.658 11.0064C103.669 10.729 103.666 10.6698 103.774 10.4042C104.337 10.0014 106.03 10.1344 106.629 10.4105Z" fill="#131314"/>
<path d="M106.368 10.7047C105.919 11.1899 104.507 10.98 103.892 10.8545C103.938 10.7422 104.041 10.6813 104.14 10.6034C104.773 10.5223 105.767 10.4969 106.368 10.7047Z" fill="#41433C"/>
<path d="M102.678 10.4105C102.533 11.6692 100.495 11.3282 99.7067 11.0064C99.7177 10.729 99.7144 10.6698 99.8225 10.4042C100.386 10.0014 102.078 10.1344 102.678 10.4105Z" fill="#131314"/>
<path d="M102.416 10.7047C101.967 11.1899 100.555 10.98 99.9405 10.8545C99.9856 10.7422 100.09 10.6813 100.188 10.6034C100.821 10.5223 101.815 10.4969 102.416 10.7047Z" fill="#41433C"/>
<path d="M134.292 18.0207C134.147 19.2794 132.11 18.9384 131.321 18.6166C131.332 18.3392 131.329 18.28 131.437 18.0144C132 17.6116 133.693 17.7446 134.292 18.0207Z" fill="#131314"/>
<path d="M134.031 18.3149C133.582 18.8001 132.17 18.5902 131.555 18.4647C131.6 18.3524 131.704 18.2915 131.803 18.2136C132.436 18.1325 133.43 18.1071 134.031 18.3149Z" fill="#41433C"/>
<path d="M130.341 18.0207C130.195 19.2794 128.158 18.9384 127.37 18.6166C127.381 18.3392 127.377 18.28 127.485 18.0144C128.048 17.6116 129.741 17.7446 130.341 18.0207Z" fill="#131314"/>
<path d="M130.079 18.3149C129.63 18.8001 128.218 18.5902 127.603 18.4647C127.648 18.3524 127.752 18.2915 127.851 18.2136C128.484 18.1325 129.478 18.1071 130.079 18.3149Z" fill="#41433C"/>
<path d="M126.389 18.0207C126.244 19.2794 124.206 18.9384 123.418 18.6166C123.429 18.3392 123.426 18.28 123.534 18.0144C124.097 17.6116 125.789 17.7446 126.389 18.0207Z" fill="#131314"/>
<path d="M126.127 18.3149C125.678 18.8001 124.266 18.5902 123.652 18.4647C123.697 18.3524 123.801 18.2915 123.899 18.2136C124.532 18.1325 125.526 18.1071 126.127 18.3149Z" fill="#41433C"/>
<path d="M122.437 18.0207C122.292 19.2794 120.255 18.9384 119.466 18.6166C119.477 18.3392 119.474 18.28 119.582 18.0144C120.145 17.6116 121.837 17.7446 122.437 18.0207Z" fill="#131314"/>
<path d="M122.175 18.3149C121.726 18.8001 120.315 18.5902 119.7 18.4647C119.745 18.3524 119.849 18.2915 119.947 18.2136C120.58 18.1325 121.575 18.1071 122.175 18.3149Z" fill="#41433C"/>
<path d="M118.485 18.0207C118.34 19.2794 116.302 18.9384 115.514 18.6166C115.525 18.3392 115.522 18.28 115.63 18.0144C116.193 17.6116 117.885 17.7446 118.485 18.0207Z" fill="#131314"/>
<path d="M118.223 18.3149C117.774 18.8001 116.362 18.5902 115.748 18.4647C115.793 18.3524 115.897 18.2915 115.995 18.2136C116.628 18.1325 117.622 18.1071 118.223 18.3149Z" fill="#41433C"/>
<path d="M114.533 18.0207C114.388 19.2794 112.351 18.9384 111.562 18.6166C111.573 18.3392 111.57 18.28 111.678 18.0144C112.241 17.6116 113.934 17.7446 114.533 18.0207Z" fill="#131314"/>
<path d="M114.271 18.3149C113.822 18.8001 112.411 18.5902 111.796 18.4647C111.841 18.3524 111.945 18.2915 112.044 18.2136C112.677 18.1325 113.671 18.1071 114.271 18.3149Z" fill="#41433C"/>
<path d="M110.581 18.0207C110.436 19.2794 108.399 18.9384 107.61 18.6166C107.621 18.3392 107.618 18.28 107.726 18.0144C108.289 17.6116 109.982 17.7446 110.581 18.0207Z" fill="#131314"/>
<path d="M110.32 18.3149C109.871 18.8001 108.459 18.5902 107.844 18.4647C107.889 18.3524 107.993 18.2915 108.092 18.2136C108.725 18.1325 109.719 18.1071 110.32 18.3149Z" fill="#41433C"/>
<path d="M106.629 18.0207C106.484 19.2794 104.447 18.9384 103.658 18.6166C103.669 18.3392 103.666 18.28 103.774 18.0144C104.337 17.6116 106.03 17.7446 106.629 18.0207Z" fill="#131314"/>
<path d="M106.368 18.3149C105.919 18.8001 104.507 18.5902 103.892 18.4647C103.938 18.3524 104.041 18.2915 104.14 18.2136C104.773 18.1325 105.767 18.1071 106.368 18.3149Z" fill="#41433C"/>
<path d="M102.678 18.0207C102.533 19.2794 100.495 18.9384 99.7067 18.6166C99.7177 18.3392 99.7144 18.28 99.8225 18.0144C100.386 17.6116 102.078 17.7446 102.678 18.0207Z" fill="#131314"/>
<path d="M102.416 18.3149C101.967 18.8001 100.555 18.5902 99.9405 18.4647C99.9856 18.3524 100.09 18.2915 100.188 18.2136C100.821 18.1325 101.815 18.1071 102.416 18.3149Z" fill="#41433C"/>
<path fill-rule="evenodd" clip-rule="evenodd" d="M58.3664 9.81309C58.0267 9.80102 58.0872 9.52149 57.6452 9.39519C57.3948 9.63584 57.4477 9.63823 57.2956 10.0678C57.3529 10.5964 57.2782 10.4158 57.5705 10.7524C57.993 10.7858 58.011 10.6775 58.4114 10.3292C58.4147 10.9738 58.351 11.7272 58.308 12.3775C56.6607 12.4102 55.0121 12.4135 53.3648 12.3881C53.2347 12.4069 53.1707 12.3459 53.0516 12.2714C52.9425 11.7527 53.105 10.7743 53.1723 10.1991L53.2758 10.0996C53.4785 10.5464 53.5483 10.7971 53.9453 10.7537C54.2671 10.4346 54.1988 10.5964 54.2958 10.1129C53.9627 9.16183 53.7775 9.76385 53.3715 9.40183L53.4769 9.28641C54.2052 9.13175 57.7818 9.18109 58.5244 9.33284L58.3664 9.81309ZM54.6215 9.67114L54.5171 11.8137L56.8732 11.811L56.9498 9.67246L54.6215 9.67114Z" fill="#696C63"/>
<path fill-rule="evenodd" clip-rule="evenodd" d="M74.7227 9.86184C74.3863 9.84977 74.4462 9.57025 74.0085 9.44395C73.7606 9.6846 73.813 9.68698 73.6624 10.1166C73.7192 10.6451 73.6452 10.4646 73.9346 10.8011C74.353 10.8346 74.3708 10.7263 74.7672 10.3779C74.7705 11.0225 74.7074 11.7759 74.6648 12.4263C73.0337 12.459 71.4014 12.4622 69.7702 12.4369C69.6414 12.4557 69.578 12.3946 69.4601 12.3201C69.3521 11.8014 69.513 10.8231 69.5796 10.2479L69.682 10.1484C69.8828 10.5951 69.9519 10.8458 70.345 10.8024C70.6637 10.4834 70.596 10.6452 70.6921 10.1617C70.3622 9.21059 70.1788 9.8126 69.7769 9.45058L69.8812 9.33516C70.6023 9.18051 74.1438 9.22984 74.8792 9.3816L74.7227 9.86184ZM71.0145 9.71989L70.9111 11.8624L73.2441 11.8598L73.32 9.72122L71.0145 9.71989Z" fill="#696C63"/>
<path fill-rule="evenodd" clip-rule="evenodd" d="M74.7227 18.4545C74.3863 18.4666 74.4462 18.7461 74.0085 18.8724C73.7606 18.6317 73.813 18.6293 73.6624 18.1998C73.7192 17.6712 73.6452 17.8517 73.9346 17.5152C74.353 17.4817 74.3708 17.59 74.7672 17.9384C74.7705 17.2938 74.7074 16.5404 74.6648 15.8901C73.0337 15.8574 71.4014 15.8541 69.7702 15.8795C69.6414 15.8607 69.578 15.9217 69.4601 15.9962C69.3521 16.5149 69.513 17.4932 69.5796 18.0684L69.682 18.1679C69.8828 17.7212 69.9519 17.4705 70.345 17.5139C70.6637 17.8329 70.596 17.6712 70.6921 18.1547C70.3622 19.1057 70.1788 18.5037 69.7769 18.8657L69.8812 18.9812C70.6023 19.1358 74.1438 19.0865 74.8792 18.9347L74.7227 18.4545ZM71.0145 18.5964L70.9111 16.4539L73.2441 16.4566L73.32 18.5951L71.0145 18.5964Z" fill="#696C63"/>
<path fill-rule="evenodd" clip-rule="evenodd" d="M58.3664 18.4462C58.0267 18.4583 58.0872 18.7378 57.6452 18.8641C57.3948 18.6234 57.4477 18.6211 57.2956 18.1915C57.3529 17.6629 57.2782 17.8434 57.5705 17.5069C57.993 17.4735 58.011 17.5817 58.4114 17.9301C58.4147 17.2855 58.351 16.5321 58.308 15.8818C56.6607 15.8491 55.0121 15.8458 53.3648 15.8712C53.2347 15.8524 53.1707 15.9134 53.0516 15.9879C52.9425 16.5066 53.105 17.4849 53.1723 18.0601L53.2758 18.1596C53.4785 17.7129 53.5483 17.4622 53.9453 17.5056C54.2671 17.8246 54.1988 17.6629 54.2958 18.1464C53.9627 19.0974 53.7775 18.4954 53.3715 18.8575L53.4769 18.9729C54.2052 19.1275 57.7818 19.0782 58.5244 18.9264L58.3664 18.4462ZM54.6215 18.5881L54.5171 16.4456L56.8732 16.4483L56.9498 18.5868L54.6215 18.5881Z" fill="#696C63"/>
<path d="M53.9891 17.9281C54.0566 18.0745 54.0293 18.2684 53.9275 18.3694C53.8257 18.4704 53.6843 18.4431 53.6061 18.3074C53.552 18.2129 53.5397 18.0848 53.5745 17.974C53.6088 17.8632 53.6848 17.788 53.7716 17.7784C53.8584 17.7688 53.942 17.8264 53.9891 17.9281Z" fill="#8D8F81"/>
<path d="M57.9613 17.9617C58.0288 18.1081 58.0015 18.302 57.8997 18.403C57.7979 18.504 57.6565 18.4767 57.5783 18.3409C57.5242 18.2465 57.5118 18.1184 57.5467 18.0076C57.5809 17.8968 57.657 17.8216 57.7438 17.812C57.8306 17.8024 57.9141 17.86 57.9613 17.9617Z" fill="#8D8F81"/>
<path d="M65.7659 20.5627C64.8997 20.6302 62.3236 20.6283 61.5104 20.4486L61.5171 19.443C61.6296 19.2484 61.7797 18.905 61.998 18.8765C62.9965 18.748 64.5333 18.5324 65.491 18.9733C65.5505 19.0018 65.6069 19.424 65.6289 19.5464C65.7016 19.7675 65.7075 20.3217 65.7659 20.5627Z" fill="#3B3B3A"/>
<path d="M65.8386 8.31439C65.7802 8.55508 65.7017 8.91586 65.6289 9.13691C65.6068 9.25948 65.5505 9.68251 65.4909 9.71002C64.5332 10.1509 62.9974 9.93539 61.9989 9.80686C61.7804 9.77874 61.6306 9.4351 61.5181 9.24038L61.5114 8.23479C62.3248 8.05512 64.9725 8.24684 65.8386 8.31439Z" fill="#3B3B3A"/>
<mask id="path-103-outside-1_3376_2340" maskUnits="userSpaceOnUse" x="94.2893" y="11.129" width="46" height="7" fill="black">
<rect fill="white" x="94.2893" y="11.129" width="46" height="7"/>
<path d="M139.289 12.129L139.289 17.0328L95.1547 17.0328L95.1547 12.129L139.289 12.129Z"/>
</mask>
<path d="M139.289 12.129L139.289 17.0328L95.1547 17.0328L95.1547 12.129L139.289 12.129Z" fill="#8D8F81"/>
<path d="M139.289 12.129L140.27 12.129L140.27 11.9328L139.289 11.9328L139.289 12.129ZM139.289 17.0328L139.289 17.229L140.27 17.229L140.27 17.0328L139.289 17.0328ZM95.1547 17.0328L94.9586 17.0328L94.9586 17.229L95.1547 17.229L95.1547 17.0328ZM95.1547 12.129L95.1547 11.9328L94.9586 11.9328L94.9586 12.129L95.1547 12.129ZM139.289 12.129L138.309 12.129L138.309 17.0328L139.289 17.0328L140.27 17.0328L140.27 12.129L139.289 12.129ZM139.289 17.0328L139.289 16.8366L95.1547 16.8366L95.1547 17.0328L95.1547 17.229L139.289 17.229L139.289 17.0328ZM95.1547 17.0328L95.3509 17.0328L95.3509 12.129L95.1547 12.129L94.9586 12.129L94.9586 17.0328L95.1547 17.0328ZM95.1547 12.129L95.1547 12.3251L139.289 12.3251L139.289 12.129L139.289 11.9328L95.1547 11.9328L95.1547 12.129Z" fill="black" mask="url(#path-103-outside-1_3376_2340)"/>
<mask id="path-105-outside-2_3376_2340" maskUnits="userSpaceOnUse" x="112.095" y="12.5823" width="27" height="4" fill="black">
<rect fill="white" x="112.095" y="12.5823" width="27" height="4"/>
<path d="M113.22 13.6289C113.415 13.5676 113.706 13.5844 113.943 13.5844C113.887 13.965 113.974 15.3247 113.88 15.5366C113.646 15.5943 113.393 15.5777 113.133 15.5758C113.059 15.2896 113.096 13.8893 113.22 13.6289Z"/>
<path d="M115.061 13.6289C115.256 13.5676 115.547 13.5844 115.784 13.5844C115.728 13.965 115.815 15.3247 115.721 15.5366C115.488 15.5943 115.234 15.5777 114.974 15.5758C114.901 15.2896 114.937 13.8892 115.061 13.6289Z"/>
<path d="M116.902 13.6289C117.097 13.5676 117.388 13.5844 117.625 13.5844C117.569 13.965 117.657 15.3247 117.563 15.5366C117.329 15.5944 117.075 15.5777 116.815 15.5758C116.741 15.2896 116.778 13.8893 116.902 13.6289Z"/>
<path d="M118.744 13.6289C118.938 13.5676 119.23 13.5844 119.467 13.5844C119.411 13.965 119.498 15.3247 119.403 15.5366C119.17 15.5943 118.916 15.5777 118.656 15.5758C118.583 15.2896 118.62 13.8893 118.744 13.6289Z"/>
<path d="M120.585 13.6289C120.78 13.5676 121.071 13.5844 121.307 13.5844C121.251 13.965 121.339 15.3247 121.245 15.5366C121.011 15.5943 120.758 15.5777 120.497 15.5758C120.424 15.2896 120.461 13.8892 120.585 13.6289Z"/>
<path d="M122.426 13.6289C122.621 13.5676 122.912 13.5844 123.149 13.5844C123.093 13.965 123.18 15.3247 123.086 15.5366C122.853 15.5944 122.598 15.5777 122.338 15.5758C122.265 15.2896 122.302 13.8893 122.426 13.6289Z"/>
<path d="M124.267 13.6289C124.462 13.5676 124.753 13.5844 124.99 13.5844C124.934 13.965 125.021 15.3247 124.927 15.5366C124.693 15.5943 124.44 15.5777 124.18 15.5758C124.106 15.2896 124.143 13.8893 124.267 13.6289Z"/>
<path d="M126.109 13.6289C126.303 13.5676 126.594 13.5844 126.831 13.5844C126.775 13.965 126.863 15.3247 126.768 15.5366C126.535 15.5943 126.281 15.5777 126.021 15.5758C125.948 15.2896 125.985 13.8892 126.109 13.6289Z"/>
<path d="M127.949 13.6289C128.144 13.5676 128.436 13.5844 128.672 13.5844C128.616 13.965 128.704 15.3247 128.61 15.5366C128.376 15.5944 128.122 15.5777 127.862 15.5758C127.788 15.2896 127.825 13.8893 127.949 13.6289Z"/>
<path d="M129.791 13.6289C129.986 13.5676 130.277 13.5844 130.514 13.5844C130.458 13.965 130.545 15.3247 130.45 15.5366C130.217 15.5943 129.963 15.5777 129.703 15.5758C129.63 15.2896 129.667 13.8893 129.791 13.6289Z"/>
<path d="M131.632 13.6289C131.827 13.5676 132.118 13.5844 132.355 13.5844C132.298 13.965 132.386 15.3247 132.292 15.5366C132.058 15.5943 131.805 15.5778 131.545 15.5758C131.471 15.2897 131.508 13.8892 131.632 13.6289Z"/>
<path d="M133.473 13.6289C133.668 13.5676 133.959 13.5844 134.196 13.5844C134.14 13.965 134.228 15.3247 134.133 15.5366C133.9 15.5944 133.645 15.5777 133.385 15.5758C133.312 15.2896 133.349 13.8893 133.473 13.6289Z"/>
<path d="M135.314 13.6289C135.509 13.5676 135.801 13.5844 136.037 13.5844C135.981 13.965 136.068 15.3247 135.974 15.5366C135.741 15.5943 135.487 15.5777 135.227 15.5758C135.153 15.2896 135.19 13.8893 135.314 13.6289Z"/>
<path d="M137.156 13.6289C137.35 13.5676 137.641 13.5844 137.878 13.5844C137.822 13.965 137.91 15.3247 137.815 15.5366C137.582 15.5943 137.328 15.5778 137.068 15.5758C136.995 15.2897 137.032 13.8892 137.156 13.6289Z"/>
<path d="M114.214 13.9455C114.367 13.8866 114.439 13.9102 114.668 13.9102C114.66 14.2376 114.788 14.9192 114.573 15.1951C114.539 15.2376 114.31 15.2449 114.197 15.2561C114.19 14.8507 114.157 14.3416 114.214 13.9455Z"/>
<path d="M116.054 13.9455C116.207 13.8865 116.28 13.9102 116.51 13.9102C116.501 14.2376 116.628 14.9192 116.413 15.1951C116.38 15.2376 116.151 15.2449 116.038 15.2561C116.031 14.8507 115.997 14.3416 116.054 13.9455Z"/>
<path d="M117.896 13.9455C118.049 13.8866 118.121 13.9102 118.35 13.9102C118.342 14.2376 118.47 14.9192 118.255 15.1951C118.221 15.2376 117.992 15.2449 117.879 15.2561C117.872 14.8507 117.839 14.3416 117.896 13.9455Z"/>
<path d="M119.737 13.9455C119.89 13.8866 119.962 13.9102 120.192 13.9102C120.183 14.2376 120.311 14.9192 120.096 15.1951C120.063 15.2376 119.834 15.2449 119.721 15.2561C119.714 14.8507 119.68 14.3416 119.737 13.9455Z"/>
<path d="M121.578 13.9455C121.731 13.8865 121.803 13.9102 122.033 13.9102C122.025 14.2376 122.152 14.9192 121.937 15.1951C121.903 15.2376 121.675 15.2449 121.561 15.2561C121.554 14.8507 121.521 14.3416 121.578 13.9455Z"/>
<path d="M123.419 13.9455C123.572 13.8866 123.644 13.9102 123.874 13.9102C123.865 14.2376 123.993 14.9192 123.778 15.1951C123.745 15.2376 123.516 15.2449 123.403 15.2561C123.396 14.8507 123.362 14.3416 123.419 13.9455Z"/>
<path d="M125.261 13.9455C125.414 13.8866 125.486 13.9102 125.715 13.9102C125.707 14.2376 125.835 14.9192 125.62 15.1951C125.586 15.2376 125.358 15.2449 125.244 15.2561C125.237 14.8507 125.204 14.3416 125.261 13.9455Z"/>
<path d="M127.101 13.9455C127.254 13.8865 127.327 13.9102 127.557 13.9102C127.548 14.2376 127.676 14.9192 127.461 15.1951C127.427 15.2376 127.198 15.2449 127.085 15.2561C127.078 14.8507 127.045 14.3416 127.101 13.9455Z"/>
<path d="M128.943 13.9455C129.096 13.8866 129.168 13.9102 129.397 13.9102C129.389 14.2376 129.517 14.9192 129.302 15.1951C129.268 15.2376 129.04 15.2449 128.926 15.2561C128.919 14.8507 128.886 14.3416 128.943 13.9455Z"/>
<path d="M130.784 13.9455C130.937 13.8866 131.009 13.9102 131.239 13.9102C131.23 14.2376 131.358 14.9192 131.143 15.1951C131.11 15.2376 130.881 15.2449 130.768 15.2561C130.761 14.8507 130.727 14.3416 130.784 13.9455Z"/>
<path d="M132.625 13.9455C132.778 13.8865 132.85 13.9102 133.08 13.9102C133.072 14.2376 133.199 14.9192 132.984 15.1951C132.95 15.2376 132.722 15.2449 132.609 15.2561C132.601 14.8507 132.568 14.3416 132.625 13.9455Z"/>
<path d="M134.466 13.9455C134.619 13.8866 134.691 13.9102 134.921 13.9102C134.912 14.2376 135.04 14.9192 134.826 15.1951C134.792 15.2376 134.563 15.2449 134.45 15.2561C134.443 14.8507 134.41 14.3416 134.466 13.9455Z"/>
<path d="M136.308 13.9455C136.461 13.8867 136.533 13.9102 136.762 13.9102C136.754 14.2376 136.882 14.9192 136.667 15.1951C136.634 15.2376 136.405 15.2449 136.291 15.2561C136.284 14.8507 136.251 14.3416 136.308 13.9455Z"/>
<path d="M138.148 13.9455C138.302 13.8865 138.374 13.9102 138.604 13.9102C138.595 14.2376 138.723 14.9192 138.508 15.1951C138.474 15.2376 138.245 15.2449 138.132 15.2561C138.125 14.8507 138.092 14.3416 138.148 13.9455Z"/>
</mask>
<path d="M113.22 13.6289C113.415 13.5676 113.706 13.5844 113.943 13.5844C113.887 13.965 113.974 15.3247 113.88 15.5366C113.646 15.5943 113.393 15.5777 113.133 15.5758C113.059 15.2896 113.096 13.8893 113.22 13.6289Z" fill="#696C63"/>
<path d="M115.061 13.6289C115.256 13.5676 115.547 13.5844 115.784 13.5844C115.728 13.965 115.815 15.3247 115.721 15.5366C115.488 15.5943 115.234 15.5777 114.974 15.5758C114.901 15.2896 114.937 13.8892 115.061 13.6289Z" fill="#696C63"/>
<path d="M116.902 13.6289C117.097 13.5676 117.388 13.5844 117.625 13.5844C117.569 13.965 117.657 15.3247 117.563 15.5366C117.329 15.5944 117.075 15.5777 116.815 15.5758C116.741 15.2896 116.778 13.8893 116.902 13.6289Z" fill="#696C63"/>
<path d="M118.744 13.6289C118.938 13.5676 119.23 13.5844 119.467 13.5844C119.411 13.965 119.498 15.3247 119.403 15.5366C119.17 15.5943 118.916 15.5777 118.656 15.5758C118.583 15.2896 118.62 13.8893 118.744 13.6289Z" fill="#696C63"/>
<path d="M120.585 13.6289C120.78 13.5676 121.071 13.5844 121.307 13.5844C121.251 13.965 121.339 15.3247 121.245 15.5366C121.011 15.5943 120.758 15.5777 120.497 15.5758C120.424 15.2896 120.461 13.8892 120.585 13.6289Z" fill="#696C63"/>
<path d="M122.426 13.6289C122.621 13.5676 122.912 13.5844 123.149 13.5844C123.093 13.965 123.18 15.3247 123.086 15.5366C122.853 15.5944 122.598 15.5777 122.338 15.5758C122.265 15.2896 122.302 13.8893 122.426 13.6289Z" fill="#696C63"/>
<path d="M124.267 13.6289C124.462 13.5676 124.753 13.5844 124.99 13.5844C124.934 13.965 125.021 15.3247 124.927 15.5366C124.693 15.5943 124.44 15.5777 124.18 15.5758C124.106 15.2896 124.143 13.8893 124.267 13.6289Z" fill="#696C63"/>
<path d="M126.109 13.6289C126.303 13.5676 126.594 13.5844 126.831 13.5844C126.775 13.965 126.863 15.3247 126.768 15.5366C126.535 15.5943 126.281 15.5777 126.021 15.5758C125.948 15.2896 125.985 13.8892 126.109 13.6289Z" fill="#696C63"/>
<path d="M127.949 13.6289C128.144 13.5676 128.436 13.5844 128.672 13.5844C128.616 13.965 128.704 15.3247 128.61 15.5366C128.376 15.5944 128.122 15.5777 127.862 15.5758C127.788 15.2896 127.825 13.8893 127.949 13.6289Z" fill="#696C63"/>
<path d="M129.791 13.6289C129.986 13.5676 130.277 13.5844 130.514 13.5844C130.458 13.965 130.545 15.3247 130.45 15.5366C130.217 15.5943 129.963 15.5777 129.703 15.5758C129.63 15.2896 129.667 13.8893 129.791 13.6289Z" fill="#696C63"/>
<path d="M131.632 13.6289C131.827 13.5676 132.118 13.5844 132.355 13.5844C132.298 13.965 132.386 15.3247 132.292 15.5366C132.058 15.5943 131.805 15.5778 131.545 15.5758C131.471 15.2897 131.508 13.8892 131.632 13.6289Z" fill="#696C63"/>
<path d="M133.473 13.6289C133.668 13.5676 133.959 13.5844 134.196 13.5844C134.14 13.965 134.228 15.3247 134.133 15.5366C133.9 15.5944 133.645 15.5777 133.385 15.5758C133.312 15.2896 133.349 13.8893 133.473 13.6289Z" fill="#696C63"/>
<path d="M135.314 13.6289C135.509 13.5676 135.801 13.5844 136.037 13.5844C135.981 13.965 136.068 15.3247 135.974 15.5366C135.741 15.5943 135.487 15.5777 135.227 15.5758C135.153 15.2896 135.19 13.8893 135.314 13.6289Z" fill="#696C63"/>
<path d="M137.156 13.6289C137.35 13.5676 137.641 13.5844 137.878 13.5844C137.822 13.965 137.91 15.3247 137.815 15.5366C137.582 15.5943 137.328 15.5778 137.068 15.5758C136.995 15.2897 137.032 13.8892 137.156 13.6289Z" fill="#696C63"/>
<path d="M114.214 13.9455C114.367 13.8866 114.439 13.9102 114.668 13.9102C114.66 14.2376 114.788 14.9192 114.573 15.1951C114.539 15.2376 114.31 15.2449 114.197 15.2561C114.19 14.8507 114.157 14.3416 114.214 13.9455Z" fill="#696C63"/>
<path d="M116.054 13.9455C116.207 13.8865 116.28 13.9102 116.51 13.9102C116.501 14.2376 116.628 14.9192 116.413 15.1951C116.38 15.2376 116.151 15.2449 116.038 15.2561C116.031 14.8507 115.997 14.3416 116.054 13.9455Z" fill="#696C63"/>
<path d="M117.896 13.9455C118.049 13.8866 118.121 13.9102 118.35 13.9102C118.342 14.2376 118.47 14.9192 118.255 15.1951C118.221 15.2376 117.992 15.2449 117.879 15.2561C117.872 14.8507 117.839 14.3416 117.896 13.9455Z" fill="#696C63"/>
<path d="M119.737 13.9455C119.89 13.8866 119.962 13.9102 120.192 13.9102C120.183 14.2376 120.311 14.9192 120.096 15.1951C120.063 15.2376 119.834 15.2449 119.721 15.2561C119.714 14.8507 119.68 14.3416 119.737 13.9455Z" fill="#696C63"/>
<path d="M121.578 13.9455C121.731 13.8865 121.803 13.9102 122.033 13.9102C122.025 14.2376 122.152 14.9192 121.937 15.1951C121.903 15.2376 121.675 15.2449 121.561 15.2561C121.554 14.8507 121.521 14.3416 121.578 13.9455Z" fill="#696C63"/>
<path d="M123.419 13.9455C123.572 13.8866 123.644 13.9102 123.874 13.9102C123.865 14.2376 123.993 14.9192 123.778 15.1951C123.745 15.2376 123.516 15.2449 123.403 15.2561C123.396 14.8507 123.362 14.3416 123.419 13.9455Z" fill="#696C63"/>
<path d="M125.261 13.9455C125.414 13.8866 125.486 13.9102 125.715 13.9102C125.707 14.2376 125.835 14.9192 125.62 15.1951C125.586 15.2376 125.358 15.2449 125.244 15.2561C125.237 14.8507 125.204 14.3416 125.261 13.9455Z" fill="#696C63"/>
<path d="M127.101 13.9455C127.254 13.8865 127.327 13.9102 127.557 13.9102C127.548 14.2376 127.676 14.9192 127.461 15.1951C127.427 15.2376 127.198 15.2449 127.085 15.2561C127.078 14.8507 127.045 14.3416 127.101 13.9455Z" fill="#696C63"/>
<path d="M128.943 13.9455C129.096 13.8866 129.168 13.9102 129.397 13.9102C129.389 14.2376 129.517 14.9192 129.302 15.1951C129.268 15.2376 129.04 15.2449 128.926 15.2561C128.919 14.8507 128.886 14.3416 128.943 13.9455Z" fill="#696C63"/>
<path d="M130.784 13.9455C130.937 13.8866 131.009 13.9102 131.239 13.9102C131.23 14.2376 131.358 14.9192 131.143 15.1951C131.11 15.2376 130.881 15.2449 130.768 15.2561C130.761 14.8507 130.727 14.3416 130.784 13.9455Z" fill="#696C63"/>
<path d="M132.625 13.9455C132.778 13.8865 132.85 13.9102 133.08 13.9102C133.072 14.2376 133.199 14.9192 132.984 15.1951C132.95 15.2376 132.722 15.2449 132.609 15.2561C132.601 14.8507 132.568 14.3416 132.625 13.9455Z" fill="#696C63"/>
<path d="M134.466 13.9455C134.619 13.8866 134.691 13.9102 134.921 13.9102C134.912 14.2376 135.04 14.9192 134.826 15.1951C134.792 15.2376 134.563 15.2449 134.45 15.2561C134.443 14.8507 134.41 14.3416 134.466 13.9455Z" fill="#696C63"/>
<path d="M136.308 13.9455C136.461 13.8867 136.533 13.9102 136.762 13.9102C136.754 14.2376 136.882 14.9192 136.667 15.1951C136.634 15.2376 136.405 15.2449 136.291 15.2561C136.284 14.8507 136.251 14.3416 136.308 13.9455Z" fill="#696C63"/>
<path d="M138.148 13.9455C138.302 13.8865 138.374 13.9102 138.604 13.9102C138.595 14.2376 138.723 14.9192 138.508 15.1951C138.474 15.2376 138.245 15.2449 138.132 15.2561C138.125 14.8507 138.092 14.3416 138.148 13.9455Z" fill="#696C63"/>
<path d="M113.22 13.6289C113.415 13.5676 113.706 13.5844 113.943 13.5844C113.887 13.965 113.974 15.3247 113.88 15.5366C113.646 15.5943 113.393 15.5777 113.133 15.5758C113.059 15.2896 113.096 13.8893 113.22 13.6289Z" stroke="black" stroke-width="0.4" mask="url(#path-105-outside-2_3376_2340)"/>
<path d="M115.061 13.6289C115.256 13.5676 115.547 13.5844 115.784 13.5844C115.728 13.965 115.815 15.3247 115.721 15.5366C115.488 15.5943 115.234 15.5777 114.974 15.5758C114.901 15.2896 114.937 13.8892 115.061 13.6289Z" stroke="black" stroke-width="0.4" mask="url(#path-105-outside-2_3376_2340)"/>
<path d="M116.902 13.6289C117.097 13.5676 117.388 13.5844 117.625 13.5844C117.569 13.965 117.657 15.3247 117.563 15.5366C117.329 15.5944 117.075 15.5777 116.815 15.5758C116.741 15.2896 116.778 13.8893 116.902 13.6289Z" stroke="black" stroke-width="0.4" mask="url(#path-105-outside-2_3376_2340)"/>
<path d="M118.744 13.6289C118.938 13.5676 119.23 13.5844 119.467 13.5844C119.411 13.965 119.498 15.3247 119.403 15.5366C119.17 15.5943 118.916 15.5777 118.656 15.5758C118.583 15.2896 118.62 13.8893 118.744 13.6289Z" stroke="black" stroke-width="0.4" mask="url(#path-105-outside-2_3376_2340)"/>
<path d="M120.585 13.6289C120.78 13.5676 121.071 13.5844 121.307 13.5844C121.251 13.965 121.339 15.3247 121.245 15.5366C121.011 15.5943 120.758 15.5777 120.497 15.5758C120.424 15.2896 120.461 13.8892 120.585 13.6289Z" stroke="black" stroke-width="0.4" mask="url(#path-105-outside-2_3376_2340)"/>
<path d="M122.426 13.6289C122.621 13.5676 122.912 13.5844 123.149 13.5844C123.093 13.965 123.18 15.3247 123.086 15.5366C122.853 15.5944 122.598 15.5777 122.338 15.5758C122.265 15.2896 122.302 13.8893 122.426 13.6289Z" stroke="black" stroke-width="0.4" mask="url(#path-105-outside-2_3376_2340)"/>
<path d="M124.267 13.6289C124.462 13.5676 124.753 13.5844 124.99 13.5844C124.934 13.965 125.021 15.3247 124.927 15.5366C124.693 15.5943 124.44 15.5777 124.18 15.5758C124.106 15.2896 124.143 13.8893 124.267 13.6289Z" stroke="black" stroke-width="0.4" mask="url(#path-105-outside-2_3376_2340)"/>
<path d="M126.109 13.6289C126.303 13.5676 126.594 13.5844 126.831 13.5844C126.775 13.965 126.863 15.3247 126.768 15.5366C126.535 15.5943 126.281 15.5777 126.021 15.5758C125.948 15.2896 125.985 13.8892 126.109 13.6289Z" stroke="black" stroke-width="0.4" mask="url(#path-105-outside-2_3376_2340)"/>
<path d="M127.949 13.6289C128.144 13.5676 128.436 13.5844 128.672 13.5844C128.616 13.965 128.704 15.3247 128.61 15.5366C128.376 15.5944 128.122 15.5777 127.862 15.5758C127.788 15.2896 127.825 13.8893 127.949 13.6289Z" stroke="black" stroke-width="0.4" mask="url(#path-105-outside-2_3376_2340)"/>
<path d="M129.791 13.6289C129.986 13.5676 130.277 13.5844 130.514 13.5844C130.458 13.965 130.545 15.3247 130.45 15.5366C130.217 15.5943 129.963 15.5777 129.703 15.5758C129.63 15.2896 129.667 13.8893 129.791 13.6289Z" stroke="black" stroke-width="0.4" mask="url(#path-105-outside-2_3376_2340)"/>
<path d="M131.632 13.6289C131.827 13.5676 132.118 13.5844 132.355 13.5844C132.298 13.965 132.386 15.3247 132.292 15.5366C132.058 15.5943 131.805 15.5778 131.545 15.5758C131.471 15.2897 131.508 13.8892 131.632 13.6289Z" stroke="black" stroke-width="0.4" mask="url(#path-105-outside-2_3376_2340)"/>
<path d="M133.473 13.6289C133.668 13.5676 133.959 13.5844 134.196 13.5844C134.14 13.965 134.228 15.3247 134.133 15.5366C133.9 15.5944 133.645 15.5777 133.385 15.5758C133.312 15.2896 133.349 13.8893 133.473 13.6289Z" stroke="black" stroke-width="0.4" mask="url(#path-105-outside-2_3376_2340)"/>
<path d="M135.314 13.6289C135.509 13.5676 135.801 13.5844 136.037 13.5844C135.981 13.965 136.068 15.3247 135.974 15.5366C135.741 15.5943 135.487 15.5777 135.227 15.5758C135.153 15.2896 135.19 13.8893 135.314 13.6289Z" stroke="black" stroke-width="0.4" mask="url(#path-105-outside-2_3376_2340)"/>
<path d="M137.156 13.6289C137.35 13.5676 137.641 13.5844 137.878 13.5844C137.822 13.965 137.91 15.3247 137.815 15.5366C137.582 15.5943 137.328 15.5778 137.068 15.5758C136.995 15.2897 137.032 13.8892 137.156 13.6289Z" stroke="black" stroke-width="0.4" mask="url(#path-105-outside-2_3376_2340)"/>
<path d="M114.214 13.9455C114.367 13.8866 114.439 13.9102 114.668 13.9102C114.66 14.2376 114.788 14.9192 114.573 15.1951C114.539 15.2376 114.31 15.2449 114.197 15.2561C114.19 14.8507 114.157 14.3416 114.214 13.9455Z" stroke="black" stroke-width="0.4" mask="url(#path-105-outside-2_3376_2340)"/>
<path d="M116.054 13.9455C116.207 13.8865 116.28 13.9102 116.51 13.9102C116.501 14.2376 116.628 14.9192 116.413 15.1951C116.38 15.2376 116.151 15.2449 116.038 15.2561C116.031 14.8507 115.997 14.3416 116.054 13.9455Z" stroke="black" stroke-width="0.4" mask="url(#path-105-outside-2_3376_2340)"/>
<path d="M117.896 13.9455C118.049 13.8866 118.121 13.9102 118.35 13.9102C118.342 14.2376 118.47 14.9192 118.255 15.1951C118.221 15.2376 117.992 15.2449 117.879 15.2561C117.872 14.8507 117.839 14.3416 117.896 13.9455Z" stroke="black" stroke-width="0.4" mask="url(#path-105-outside-2_3376_2340)"/>
<path d="M119.737 13.9455C119.89 13.8866 119.962 13.9102 120.192 13.9102C120.183 14.2376 120.311 14.9192 120.096 15.1951C120.063 15.2376 119.834 15.2449 119.721 15.2561C119.714 14.8507 119.68 14.3416 119.737 13.9455Z" stroke="black" stroke-width="0.4" mask="url(#path-105-outside-2_3376_2340)"/>
<path d="M121.578 13.9455C121.731 13.8865 121.803 13.9102 122.033 13.9102C122.025 14.2376 122.152 14.9192 121.937 15.1951C121.903 15.2376 121.675 15.2449 121.561 15.2561C121.554 14.8507 121.521 14.3416 121.578 13.9455Z" stroke="black" stroke-width="0.4" mask="url(#path-105-outside-2_3376_2340)"/>
<path d="M123.419 13.9455C123.572 13.8866 123.644 13.9102 123.874 13.9102C123.865 14.2376 123.993 14.9192 123.778 15.1951C123.745 15.2376 123.516 15.2449 123.403 15.2561C123.396 14.8507 123.362 14.3416 123.419 13.9455Z" stroke="black" stroke-width="0.4" mask="url(#path-105-outside-2_3376_2340)"/>
<path d="M125.261 13.9455C125.414 13.8866 125.486 13.9102 125.715 13.9102C125.707 14.2376 125.835 14.9192 125.62 15.1951C125.586 15.2376 125.358 15.2449 125.244 15.2561C125.237 14.8507 125.204 14.3416 125.261 13.9455Z" stroke="black" stroke-width="0.4" mask="url(#path-105-outside-2_3376_2340)"/>
<path d="M127.101 13.9455C127.254 13.8865 127.327 13.9102 127.557 13.9102C127.548 14.2376 127.676 14.9192 127.461 15.1951C127.427 15.2376 127.198 15.2449 127.085 15.2561C127.078 14.8507 127.045 14.3416 127.101 13.9455Z" stroke="black" stroke-width="0.4" mask="url(#path-105-outside-2_3376_2340)"/>
<path d="M128.943 13.9455C129.096 13.8866 129.168 13.9102 129.397 13.9102C129.389 14.2376 129.517 14.9192 129.302 15.1951C129.268 15.2376 129.04 15.2449 128.926 15.2561C128.919 14.8507 128.886 14.3416 128.943 13.9455Z" stroke="black" stroke-width="0.4" mask="url(#path-105-outside-2_3376_2340)"/>
<path d="M130.784 13.9455C130.937 13.8866 131.009 13.9102 131.239 13.9102C131.23 14.2376 131.358 14.9192 131.143 15.1951C131.11 15.2376 130.881 15.2449 130.768 15.2561C130.761 14.8507 130.727 14.3416 130.784 13.9455Z" stroke="black" stroke-width="0.4" mask="url(#path-105-outside-2_3376_2340)"/>
<path d="M132.625 13.9455C132.778 13.8865 132.85 13.9102 133.08 13.9102C133.072 14.2376 133.199 14.9192 132.984 15.1951C132.95 15.2376 132.722 15.2449 132.609 15.2561C132.601 14.8507 132.568 14.3416 132.625 13.9455Z" stroke="black" stroke-width="0.4" mask="url(#path-105-outside-2_3376_2340)"/>
<path d="M134.466 13.9455C134.619 13.8866 134.691 13.9102 134.921 13.9102C134.912 14.2376 135.04 14.9192 134.826 15.1951C134.792 15.2376 134.563 15.2449 134.45 15.2561C134.443 14.8507 134.41 14.3416 134.466 13.9455Z" stroke="black" stroke-width="0.4" mask="url(#path-105-outside-2_3376_2340)"/>
<path d="M136.308 13.9455C136.461 13.8867 136.533 13.9102 136.762 13.9102C136.754 14.2376 136.882 14.9192 136.667 15.1951C136.634 15.2376 136.405 15.2449 136.291 15.2561C136.284 14.8507 136.251 14.3416 136.308 13.9455Z" stroke="black" stroke-width="0.4" mask="url(#path-105-outside-2_3376_2340)"/>
<path d="M138.148 13.9455C138.302 13.8865 138.374 13.9102 138.604 13.9102C138.595 14.2376 138.723 14.9192 138.508 15.1951C138.474 15.2376 138.245 15.2449 138.132 15.2561C138.125 14.8507 138.092 14.3416 138.148 13.9455Z" stroke="black" stroke-width="0.4" mask="url(#path-105-outside-2_3376_2340)"/>
<path d="M97.4141 13.4846H97.5303L97.5127 13.5989C97.4998 13.686 97.4953 13.8356 97.4941 14.0207C97.493 14.2041 97.4955 14.4155 97.4971 14.6233C97.4986 14.8301 97.4992 15.0339 97.4932 15.1995C97.4902 15.2822 97.4857 15.3573 97.4785 15.4192C97.4717 15.4777 97.4619 15.5357 97.4434 15.5774L97.4229 15.6223L97.376 15.634C97.1267 15.6957 96.8536 15.6779 96.6025 15.676L96.5254 15.675L96.5068 15.6008C96.4853 15.5169 96.4736 15.3648 96.4688 15.1907C96.4638 15.0126 96.4658 14.8 96.4736 14.5891C96.4815 14.3783 96.4955 14.1671 96.5156 13.9914C96.5257 13.9037 96.5373 13.8235 96.5508 13.7561C96.5638 13.6907 96.5796 13.6303 96.6006 13.5862L96.6191 13.5461L96.6611 13.5334C96.7723 13.4985 96.9054 13.4871 97.0342 13.4836C97.1623 13.4801 97.3005 13.4846 97.4141 13.4846ZM99.2559 13.4846H99.3711L99.3545 13.5989C99.3416 13.686 99.3362 13.8356 99.335 14.0207C99.3337 14.2041 99.3364 14.4154 99.3379 14.6233C99.3394 14.8301 99.3401 15.0339 99.334 15.1995C99.331 15.2822 99.3265 15.3573 99.3193 15.4192C99.3125 15.4778 99.3017 15.5358 99.2832 15.5774L99.2637 15.6223L99.2158 15.634C98.9668 15.6955 98.6951 15.6779 98.4443 15.676L98.3672 15.675L98.3477 15.6008C98.3261 15.5169 98.3154 15.3648 98.3105 15.1907C98.3056 15.0126 98.3066 14.8 98.3145 14.5891C98.3223 14.3783 98.3363 14.1671 98.3564 13.9914C98.3665 13.9037 98.3782 13.8235 98.3916 13.7561C98.4047 13.6907 98.4214 13.6304 98.4424 13.5862L98.4609 13.5461L98.502 13.5334C98.6132 13.4985 98.7471 13.4872 98.876 13.4836C99.0041 13.4802 99.1424 13.4846 99.2559 13.4846ZM101.097 13.4846H101.212L101.195 13.5989C101.182 13.686 101.177 13.8356 101.176 14.0207C101.175 14.2041 101.178 14.4155 101.18 14.6233C101.181 14.8301 101.181 15.0339 101.175 15.1995C101.172 15.2822 101.167 15.3573 101.16 15.4192C101.153 15.4777 101.144 15.5358 101.125 15.5774L101.105 15.6223L101.058 15.634C100.808 15.6956 100.536 15.6779 100.285 15.676L100.209 15.675L100.189 15.6008C100.168 15.5169 100.156 15.3649 100.151 15.1907C100.146 15.0126 100.148 14.8 100.156 14.5891C100.164 14.3783 100.178 14.1671 100.198 13.9914C100.208 13.9037 100.22 13.8235 100.233 13.7561C100.246 13.6908 100.262 13.6303 100.283 13.5862L100.303 13.5461L100.344 13.5334C100.455 13.4985 100.588 13.4872 100.717 13.4836C100.845 13.4801 100.983 13.4846 101.097 13.4846ZM102.938 13.4846H103.054L103.037 13.5989C103.024 13.686 103.019 13.8356 103.018 14.0207C103.016 14.2041 103.019 14.4155 103.021 14.6233C103.022 14.8301 103.023 15.0339 103.017 15.1995C103.014 15.2822 103.009 15.3573 103.002 15.4192C102.995 15.4777 102.985 15.5357 102.967 15.5774L102.946 15.6223L102.899 15.634C102.65 15.6957 102.377 15.6779 102.126 15.676L102.049 15.675L102.03 15.6008C102.009 15.5169 101.997 15.3648 101.992 15.1907C101.987 15.0126 101.989 14.8 101.997 14.5891C102.005 14.3783 102.019 14.1671 102.039 13.9914C102.049 13.9037 102.061 13.8235 102.074 13.7561C102.087 13.6908 102.103 13.6303 102.124 13.5862L102.143 13.5461L102.185 13.5334C102.296 13.4985 102.429 13.4872 102.558 13.4836C102.686 13.4801 102.824 13.4846 102.938 13.4846ZM104.779 13.4846H104.896L104.878 13.5989C104.865 13.686 104.86 13.8356 104.858 14.0207C104.857 14.2041 104.86 14.4154 104.861 14.6233C104.863 14.8301 104.863 15.0339 104.857 15.1995C104.854 15.2822 104.85 15.3573 104.843 15.4192C104.836 15.4777 104.825 15.5358 104.807 15.5774L104.787 15.6223L104.739 15.634C104.49 15.6955 104.219 15.6779 103.968 15.676L103.891 15.675L103.872 15.6008C103.851 15.5169 103.839 15.3648 103.834 15.1907C103.829 15.0126 103.83 14.8 103.838 14.5891C103.846 14.3783 103.86 14.1671 103.88 13.9914C103.89 13.9038 103.902 13.8235 103.915 13.7561C103.928 13.6907 103.945 13.6304 103.966 13.5862L103.984 13.5461L104.026 13.5334C104.137 13.4986 104.271 13.4871 104.399 13.4836C104.528 13.4802 104.666 13.4846 104.779 13.4846ZM106.62 13.4846H106.735L106.719 13.5989C106.706 13.686 106.7 13.8356 106.699 14.0207C106.698 14.2041 106.702 14.4155 106.703 14.6233C106.705 14.8301 106.705 15.0339 106.699 15.1995C106.696 15.2822 106.691 15.3573 106.684 15.4192C106.677 15.4777 106.667 15.5358 106.648 15.5774L106.629 15.6223L106.581 15.634C106.332 15.6956 106.06 15.6779 105.81 15.676L105.732 15.675L105.713 15.6008C105.691 15.5169 105.68 15.3649 105.675 15.1907C105.67 15.0126 105.672 14.8 105.68 14.5891C105.688 14.3783 105.702 14.1671 105.722 13.9914C105.732 13.9037 105.743 13.8235 105.757 13.7561C105.77 13.6908 105.786 13.6303 105.807 13.5862L105.826 13.5461L105.867 13.5334C105.978 13.4985 106.112 13.4872 106.24 13.4836C106.368 13.4801 106.507 13.4846 106.62 13.4846ZM108.461 13.4846H108.577L108.561 13.5989C108.548 13.686 108.542 13.8356 108.541 14.0207C108.54 14.2041 108.542 14.4155 108.544 14.6233C108.546 14.8301 108.546 15.0339 108.54 15.1995C108.537 15.2822 108.533 15.3573 108.525 15.4192C108.519 15.4777 108.509 15.5358 108.49 15.5774L108.47 15.6223L108.423 15.634C108.174 15.6957 107.9 15.6779 107.649 15.676L107.573 15.675L107.554 15.6008C107.532 15.5169 107.521 15.3648 107.516 15.1907C107.511 15.0126 107.513 14.8 107.521 14.5891C107.528 14.3783 107.542 14.1671 107.562 13.9914C107.573 13.9037 107.584 13.8235 107.598 13.7561C107.611 13.6908 107.627 13.6303 107.647 13.5862L107.666 13.5461L107.708 13.5334C107.819 13.4985 107.952 13.4872 108.081 13.4836C108.209 13.4801 108.347 13.4846 108.461 13.4846ZM110.303 13.4846H110.419L110.401 13.5989C110.389 13.686 110.384 13.8356 110.383 14.0207C110.382 14.2041 110.384 14.4154 110.386 14.6233C110.387 14.8301 110.387 15.0339 110.381 15.1995C110.378 15.2822 110.373 15.3573 110.366 15.4192C110.359 15.4777 110.35 15.5358 110.331 15.5774L110.311 15.6223L110.264 15.634C110.015 15.6956 109.742 15.6779 109.491 15.676L109.414 15.675L109.396 15.6008C109.374 15.5169 109.362 15.3648 109.357 15.1907C109.352 15.0126 109.353 14.8 109.361 14.5891C109.369 14.3783 109.384 14.1671 109.404 13.9914C109.414 13.9037 109.426 13.8235 109.439 13.7561C109.453 13.6907 109.468 13.6303 109.489 13.5862L109.508 13.5461L109.55 13.5334C109.661 13.4985 109.794 13.4871 109.923 13.4836C110.051 13.4802 110.189 13.4846 110.303 13.4846ZM112.144 13.4846H112.259L112.242 13.5989C112.229 13.686 112.225 13.8356 112.224 14.0207C112.222 14.2041 112.225 14.4155 112.227 14.6233C112.228 14.8301 112.229 15.0339 112.223 15.1995C112.22 15.2822 112.214 15.3573 112.207 15.4192C112.2 15.4777 112.19 15.5358 112.172 15.5774L112.152 15.6223L112.104 15.634C111.856 15.6956 111.584 15.6779 111.333 15.676L111.256 15.675L111.236 15.6008C111.215 15.5169 111.203 15.3649 111.198 15.1907C111.193 15.0126 111.195 14.8 111.203 14.5891C111.211 14.3783 111.225 14.1671 111.245 13.9914C111.255 13.9038 111.267 13.8235 111.28 13.7561C111.293 13.6907 111.31 13.6304 111.331 13.5862L111.35 13.5461L111.391 13.5334C111.502 13.4985 111.635 13.4872 111.764 13.4836C111.892 13.4801 112.03 13.4846 112.144 13.4846ZM96.2988 13.8098H96.4014L96.3984 13.9123C96.3965 13.9887 96.4027 14.088 96.4102 14.2034C96.4175 14.3169 96.4257 14.4447 96.4277 14.5706C96.4297 14.6961 96.4252 14.8242 96.4053 14.9407C96.3856 15.056 96.3493 15.1686 96.2812 15.2561L96.2803 15.2571C96.2611 15.2812 96.2367 15.2944 96.2217 15.301C96.2046 15.3086 96.186 15.3135 96.1689 15.3176C96.1348 15.326 96.0947 15.3327 96.0557 15.3372C95.984 15.3453 95.8822 15.3512 95.8369 15.3557L95.7285 15.3664L95.7266 15.2581C95.7195 14.8611 95.6859 14.3375 95.7441 13.9309L95.752 13.8733L95.8066 13.8518C95.9828 13.784 96.0882 13.8098 96.2988 13.8098ZM98.1387 13.8098H98.2412L98.2393 13.9123C98.2373 13.9886 98.2434 14.088 98.251 14.2034C98.2584 14.3169 98.2664 14.4447 98.2686 14.5706C98.2706 14.6961 98.2669 14.8242 98.2471 14.9407C98.2275 15.0559 98.191 15.1686 98.123 15.2561L98.1221 15.2571C98.103 15.2812 98.0786 15.2943 98.0635 15.301C98.0464 15.3086 98.0277 15.3135 98.0107 15.3176C97.9767 15.326 97.9364 15.3327 97.8975 15.3372C97.8257 15.3453 97.7228 15.3512 97.6777 15.3557L97.5703 15.3664L97.5684 15.2581C97.5613 14.8611 97.5277 14.3375 97.5859 13.9309L97.5938 13.8733L97.6484 13.8518C97.8243 13.7841 97.9285 13.8098 98.1387 13.8098ZM99.9805 13.8098H100.083L100.08 13.9123C100.078 13.9886 100.084 14.088 100.092 14.2034C100.099 14.3169 100.108 14.4447 100.11 14.5706C100.112 14.6961 100.108 14.8242 100.088 14.9407C100.068 15.0561 100.032 15.1686 99.9639 15.2561V15.2571C99.9447 15.2814 99.9194 15.2943 99.9043 15.301C99.8874 15.3085 99.8693 15.3135 99.8525 15.3176C99.8184 15.326 99.7774 15.3327 99.7383 15.3372C99.6665 15.3452 99.5646 15.3512 99.5195 15.3557L99.4111 15.3664L99.4102 15.2581C99.4031 14.8611 99.3685 14.3375 99.4268 13.9309L99.4355 13.8733L99.4902 13.8518C99.666 13.7843 99.77 13.8098 99.9805 13.8098ZM101.822 13.8098H101.925L101.922 13.9123C101.92 13.9887 101.926 14.088 101.934 14.2034C101.941 14.3169 101.949 14.4447 101.951 14.5706C101.953 14.6961 101.949 14.8242 101.929 14.9407C101.909 15.056 101.873 15.1686 101.805 15.2561V15.2571C101.786 15.2813 101.76 15.2943 101.745 15.301C101.728 15.3086 101.709 15.3135 101.692 15.3176C101.658 15.326 101.618 15.3327 101.579 15.3372C101.507 15.3453 101.406 15.3512 101.36 15.3557L101.252 15.3664L101.25 15.2581C101.243 14.8611 101.209 14.3375 101.268 13.9309L101.276 13.8733L101.331 13.8518C101.507 13.7842 101.612 13.8098 101.822 13.8098ZM103.662 13.8098H103.766L103.763 13.9123C103.761 13.9886 103.767 14.088 103.774 14.2034C103.782 14.3169 103.79 14.4447 103.792 14.5706C103.794 14.6961 103.79 14.8242 103.771 14.9407C103.751 15.0559 103.714 15.1686 103.646 15.2561L103.646 15.2571C103.626 15.2812 103.602 15.2943 103.587 15.301C103.57 15.3086 103.551 15.3135 103.534 15.3176C103.5 15.326 103.46 15.3327 103.421 15.3372C103.349 15.3453 103.246 15.3512 103.201 15.3557L103.094 15.3664L103.092 15.2581C103.085 14.8611 103.051 14.3375 103.109 13.9309L103.117 13.8733L103.172 13.8518C103.348 13.7841 103.452 13.8098 103.662 13.8098ZM105.504 13.8098H105.606L105.604 13.9123C105.602 13.9886 105.608 14.088 105.615 14.2034C105.623 14.3169 105.632 14.4447 105.634 14.5706C105.636 14.6961 105.631 14.8242 105.611 14.9407C105.592 15.0561 105.555 15.1686 105.487 15.2561V15.2571C105.468 15.2812 105.444 15.2943 105.429 15.301C105.412 15.3086 105.393 15.3135 105.376 15.3176C105.342 15.326 105.301 15.3327 105.262 15.3372C105.19 15.3452 105.088 15.3512 105.043 15.3557L104.936 15.3664L104.934 15.2581C104.927 14.8611 104.892 14.3375 104.95 13.9309L104.959 13.8733L105.014 13.8518C105.189 13.7842 105.294 13.8098 105.504 13.8098ZM107.346 13.8098H107.448L107.445 13.9123C107.443 13.9887 107.45 14.088 107.457 14.2034C107.464 14.3169 107.473 14.4447 107.475 14.5706C107.477 14.6961 107.472 14.8242 107.452 14.9407C107.432 15.056 107.396 15.1686 107.328 15.2561V15.2571C107.309 15.2813 107.284 15.2943 107.269 15.301C107.251 15.3085 107.233 15.3135 107.216 15.3176C107.182 15.3259 107.142 15.3327 107.103 15.3372C107.031 15.3453 106.929 15.3512 106.884 15.3557L106.775 15.3664L106.773 15.2581C106.766 14.8611 106.733 14.3375 106.791 13.9309L106.8 13.8733L106.854 13.8518C107.03 13.7842 107.135 13.8098 107.346 13.8098ZM109.187 13.8098H109.289L109.286 13.9123C109.284 13.9886 109.29 14.088 109.298 14.2034C109.305 14.3169 109.313 14.4447 109.315 14.5706C109.318 14.6961 109.314 14.8242 109.294 14.9407C109.274 15.056 109.238 15.1686 109.17 15.2561L109.169 15.2571C109.15 15.2812 109.125 15.2943 109.11 15.301C109.093 15.3086 109.075 15.3135 109.058 15.3176C109.023 15.326 108.983 15.3327 108.944 15.3372C108.873 15.3452 108.771 15.3512 108.726 15.3557L108.617 15.3664L108.615 15.2581C108.608 14.8611 108.575 14.3375 108.633 13.9309L108.641 13.8733L108.695 13.8518C108.871 13.784 108.976 13.8098 109.187 13.8098ZM111.027 13.8098H111.13L111.128 13.9123C111.126 13.9886 111.131 14.088 111.139 14.2034C111.146 14.3169 111.155 14.4447 111.157 14.5706C111.159 14.696 111.156 14.8242 111.136 14.9407C111.116 15.0561 111.079 15.1686 111.011 15.2561V15.2571C110.992 15.2812 110.967 15.2943 110.952 15.301C110.935 15.3086 110.916 15.3135 110.899 15.3176C110.865 15.326 110.825 15.3327 110.786 15.3372C110.714 15.3453 110.612 15.3512 110.566 15.3557L110.459 15.3664L110.457 15.2581C110.45 14.8611 110.415 14.3375 110.474 13.9309L110.482 13.8733L110.537 13.8518C110.713 13.7842 110.817 13.8098 111.027 13.8098ZM112.869 13.8098H112.972L112.969 13.9123C112.967 13.9887 112.973 14.088 112.98 14.2034C112.988 14.3169 112.996 14.4447 112.998 14.5706C113 14.6961 112.995 14.8242 112.976 14.9407C112.956 15.0561 112.92 15.1686 112.852 15.2561V15.2571C112.832 15.2813 112.807 15.2943 112.792 15.301C112.775 15.3084 112.757 15.3135 112.74 15.3176C112.706 15.326 112.665 15.3327 112.626 15.3372C112.554 15.3453 112.452 15.3512 112.407 15.3557L112.3 15.3664L112.298 15.2581C112.291 14.8611 112.256 14.3375 112.314 13.9309L112.323 13.8733L112.378 13.8518C112.554 13.7841 112.659 13.8098 112.869 13.8098Z" fill="#696C63" stroke="black" stroke-width="0.2"/>
<ellipse cx="8.58488" cy="20.8215" rx="1.3488" ry="0.703719" fill="#8D8F81"/>
<path d="M140.264 12.4015L186.658 12.5508L186.975 13.4951L140.264 13.3457V12.4015Z" fill="#6F6F6F"/>
<path d="M33.8758 10.3464L4.09521 10.8069L4.13364 9.77073L7.93297 9.38695L34.298 9.15669L33.8758 10.3464Z" fill="#BDBFB3"/>
<path d="M191.263 9.56897L190.692 8.45218L201.91 8.50181L202.555 9.54416L191.263 9.56897Z" fill="#6F6F6F"/>
</svg>
