<svg width="207" height="40" viewBox="0 0 207 40" fill="none" xmlns="http://www.w3.org/2000/svg">
<rect x="138" y="35.3333" width="4.66667" height="5" transform="rotate(90 138 35.3333)" fill="black"/>
<rect x="137" y="36.5" width="2.33334" height="3" transform="rotate(90 137 36.5)" fill="#41433C"/>
<path d="M137.5 36.5L139.5 26L136.5 26L134.5 37.6667L136.5 37.6667L137.5 36.5Z" fill="#696C63" stroke="black" stroke-width="0.7"/>
<path d="M138.116 28.0598C137.998 28.4539 137.37 28.1892 137.138 28.0256C137.157 27.9372 137.159 27.9179 137.208 27.8406C137.41 27.7538 137.941 27.9253 138.116 28.0598Z" fill="#131314"/>
<path d="M138.016 28.1345C137.846 28.2566 137.409 28.0816 137.22 27.9945C137.241 27.9618 137.278 27.9501 137.313 27.9325C137.519 27.9545 137.837 28.022 138.016 28.1345Z" fill="#41433C"/>
<path d="M137.964 28.924C137.846 29.3181 137.218 29.0535 136.986 28.8899C137.005 28.8014 137.007 28.7821 137.057 28.7049C137.258 28.618 137.789 28.7895 137.964 28.924Z" fill="#131314"/>
<path d="M137.864 28.9988C137.694 29.1208 137.257 28.9459 137.069 28.8587C137.089 28.826 137.126 28.8143 137.162 28.7967C137.367 28.8188 137.685 28.8862 137.864 28.9988Z" fill="#41433C"/>
<path d="M137.812 29.7883C137.695 30.1824 137.066 29.9177 136.834 29.7541C136.853 29.6657 136.855 29.6464 136.905 29.5691C137.106 29.4822 137.637 29.6538 137.812 29.7883Z" fill="#131314"/>
<path d="M137.712 29.863C137.542 29.9851 137.105 29.8101 136.917 29.723C136.937 29.6903 136.974 29.6786 137.01 29.661C137.215 29.683 137.533 29.7504 137.712 29.863Z" fill="#41433C"/>
<path d="M137.66 30.6525C137.543 31.0466 136.914 30.7819 136.682 30.6184C136.701 30.5299 136.703 30.5106 136.753 30.4333C136.955 30.3465 137.485 30.518 137.66 30.6525Z" fill="#131314"/>
<path d="M137.56 30.7273C137.39 30.8493 136.953 30.6744 136.765 30.5872C136.786 30.5545 136.822 30.5428 136.858 30.5252C137.064 30.5473 137.381 30.6147 137.56 30.7273Z" fill="#41433C"/>
<path d="M137.508 31.5168C137.391 31.9109 136.762 31.6462 136.53 31.4826C136.549 31.3941 136.551 31.3749 136.601 31.2976C136.803 31.2107 137.333 31.3822 137.508 31.5168Z" fill="#131314"/>
<path d="M137.408 31.5915C137.238 31.7136 136.801 31.5386 136.613 31.4515C136.633 31.4187 136.67 31.407 136.706 31.3895C136.912 31.4115 137.229 31.4789 137.408 31.5915Z" fill="#41433C"/>
<path d="M137.356 32.381C137.239 32.7751 136.61 32.5104 136.378 32.3468C136.397 32.2584 136.399 32.2391 136.449 32.1618C136.651 32.075 137.181 32.2465 137.356 32.381Z" fill="#131314"/>
<path d="M137.256 32.4557C137.086 32.5778 136.649 32.4028 136.461 32.3157C136.482 32.283 136.518 32.2713 136.554 32.2537C136.76 32.2757 137.077 32.3432 137.256 32.4557Z" fill="#41433C"/>
<path d="M137.204 33.2452C137.087 33.6394 136.459 33.3747 136.226 33.2111C136.245 33.1226 136.248 33.1033 136.297 33.0261C136.499 32.9392 137.029 33.1107 137.204 33.2452Z" fill="#131314"/>
<path d="M137.104 33.32C136.934 33.442 136.497 33.2671 136.309 33.1799C136.33 33.1472 136.366 33.1355 136.402 33.1179C136.608 33.14 136.925 33.2074 137.104 33.32Z" fill="#41433C"/>
<path d="M137.052 34.1095C136.935 34.5036 136.307 34.2389 136.074 34.0753C136.093 33.9869 136.096 33.9676 136.145 33.8903C136.347 33.8035 136.877 33.975 137.052 34.1095Z" fill="#131314"/>
<path d="M136.953 34.1842C136.782 34.3063 136.346 34.1313 136.157 34.0442C136.178 34.0115 136.214 33.9998 136.25 33.9822C136.456 34.0042 136.773 34.0717 136.953 34.1842Z" fill="#41433C"/>
<path d="M136.9 34.9737C136.783 35.3678 136.155 35.1031 135.922 34.9396C135.941 34.8511 135.944 34.8318 135.993 34.7546C136.195 34.6677 136.725 34.8392 136.9 34.9737Z" fill="#131314"/>
<path d="M136.8 35.0485C136.63 35.1705 136.193 34.9956 136.005 34.9084C136.026 34.8757 136.062 34.864 136.098 34.8464C136.304 34.8685 136.621 34.9359 136.8 35.0485Z" fill="#41433C"/>
<rect width="4.66667" height="5" transform="matrix(-3.74669e-08 -1 -1 5.09967e-08 138 4.66667)" fill="black"/>
<rect width="2.33334" height="3" transform="matrix(-3.74669e-08 -1 -1 5.09967e-08 137 3.5)" fill="#41433C"/>
<path d="M137.5 3.5L139.5 14L136.5 14L134.5 2.33334L136.5 2.33334L137.5 3.5Z" fill="#696C63" stroke="black" stroke-width="0.7"/>
<path d="M138.116 11.9402C137.998 11.5461 137.37 11.8108 137.138 11.9744C137.157 12.0628 137.159 12.0821 137.208 12.1594C137.41 12.2463 137.941 12.0747 138.116 11.9402Z" fill="#131314"/>
<path d="M138.016 11.8655C137.846 11.7434 137.409 11.9184 137.22 12.0055C137.241 12.0382 137.278 12.0499 137.313 12.0675C137.519 12.0455 137.837 11.9781 138.016 11.8655Z" fill="#41433C"/>
<path d="M137.964 11.076C137.846 10.6819 137.218 10.9466 136.986 11.1101C137.005 11.1986 137.007 11.2179 137.057 11.2952C137.258 11.382 137.789 11.2105 137.964 11.076Z" fill="#131314"/>
<path d="M137.864 11.0012C137.694 10.8792 137.257 11.0541 137.069 11.1413C137.089 11.174 137.126 11.1857 137.162 11.2033C137.367 11.1812 137.685 11.1138 137.864 11.0012Z" fill="#41433C"/>
<path d="M137.812 10.2117C137.695 9.81763 137.066 10.0823 136.834 10.2459C136.853 10.3344 136.855 10.3536 136.905 10.4309C137.106 10.5178 137.637 10.3462 137.812 10.2117Z" fill="#131314"/>
<path d="M137.712 10.137C137.542 10.0149 137.105 10.1899 136.917 10.277C136.937 10.3098 136.974 10.3215 137.01 10.339C137.215 10.317 137.533 10.2496 137.712 10.137Z" fill="#41433C"/>
<path d="M137.66 9.3475C137.543 8.95338 136.914 9.21808 136.682 9.38166C136.701 9.47011 136.703 9.4894 136.753 9.56667C136.955 9.65353 137.485 9.48201 137.66 9.3475Z" fill="#131314"/>
<path d="M137.56 9.27276C137.39 9.1507 136.953 9.32565 136.765 9.41279C136.786 9.44552 136.822 9.45722 136.858 9.47479C137.064 9.45276 137.381 9.38533 137.56 9.27276Z" fill="#41433C"/>
<path d="M137.508 8.48326C137.391 8.08914 136.762 8.35383 136.53 8.51741C136.549 8.60587 136.551 8.62516 136.601 8.70243C136.803 8.78929 137.333 8.61776 137.508 8.48326Z" fill="#131314"/>
<path d="M137.408 8.40852C137.238 8.28646 136.801 8.46141 136.613 8.54855C136.633 8.58128 136.67 8.59298 136.706 8.61055C136.912 8.58852 137.229 8.52109 137.408 8.40852Z" fill="#41433C"/>
<path d="M137.356 7.61902C137.239 7.2249 136.61 7.48959 136.378 7.65317C136.397 7.74163 136.399 7.76092 136.449 7.83819C136.651 7.92504 137.181 7.75352 137.356 7.61902Z" fill="#131314"/>
<path d="M137.256 7.54427C137.086 7.42221 136.649 7.59717 136.461 7.68431C136.482 7.71703 136.518 7.72873 136.554 7.74631C136.76 7.72427 137.077 7.65685 137.256 7.54427Z" fill="#41433C"/>
<path d="M137.204 6.75478C137.087 6.36066 136.459 6.62535 136.226 6.78893C136.245 6.87738 136.248 6.89667 136.297 6.97394C136.499 7.0608 137.029 6.88928 137.204 6.75478Z" fill="#131314"/>
<path d="M137.104 6.68003C136.934 6.55797 136.497 6.73292 136.309 6.82006C136.33 6.85279 136.366 6.86449 136.402 6.88207C136.608 6.86003 136.925 6.7926 137.104 6.68003Z" fill="#41433C"/>
<path d="M137.052 5.89053C136.935 5.49641 136.307 5.76111 136.074 5.92469C136.093 6.01314 136.096 6.03243 136.145 6.1097C136.347 6.19656 136.877 6.02504 137.052 5.89053Z" fill="#131314"/>
<path d="M136.953 5.81579C136.782 5.69373 136.346 5.86868 136.157 5.95582C136.178 5.98855 136.214 6.00025 136.25 6.01782C136.456 5.99579 136.773 5.92836 136.953 5.81579Z" fill="#41433C"/>
<path d="M136.9 5.02629C136.783 4.63217 136.155 4.89686 135.922 5.06044C135.941 5.1489 135.944 5.16819 135.993 5.24546C136.195 5.33232 136.725 5.16079 136.9 5.02629Z" fill="#131314"/>
<path d="M136.8 4.95154C136.63 4.82949 136.193 5.00444 136.005 5.09158C136.026 5.1243 136.062 5.13601 136.098 5.15358C136.304 5.13155 136.621 5.06412 136.8 4.95154Z" fill="#41433C"/>
<path d="M63.5859 10.0173L66.7168 10.0964L67.0479 10.1052L67.0576 10.4363C67.0755 11.0383 67.1421 11.9334 67.0869 12.7C67.0701 12.9337 67.0412 13.1642 66.9951 13.3777C66.9578 13.5502 66.9057 13.7178 66.8369 13.8718C66.842 13.8974 66.8502 13.9235 66.8594 13.9539C66.9638 13.977 67.1064 14.0009 67.29 14.0213C67.577 14.0531 67.9354 14.0758 68.3457 14.0916C69.1656 14.1231 70.1759 14.1257 71.21 14.116C73.2425 14.0968 75.3884 14.0309 76.2695 14.0593C78.2989 13.9233 80.8915 14.0131 82.9238 14.0105H82.9277L84.0439 14.0242H84.0645L84.085 14.0271L84.4365 14.072C89.1222 13.8758 90.9638 14.0691 95.6631 14.0896L96.0156 14.0906L96.0146 14.1756L139.399 14.2224H139.4L139.606 14.2234L139.898 14.2254L139.949 14.5134L140.472 17.4959C140.631 17.501 140.791 17.5078 140.949 17.5164C144.192 17.2908 150.012 17.5562 153.202 17.5818C159.122 17.5509 165.043 17.5931 170.962 17.7058C171.049 17.6898 171.155 17.6775 171.265 17.6697C171.411 17.6593 171.589 17.6526 171.787 17.6472C172.183 17.6365 172.67 17.6339 173.159 17.6355C174.133 17.6386 175.148 17.6576 175.472 17.6599H175.471L185.675 17.7146L187.098 17.6795L187.525 17.6531H187.529C188.379 17.6084 189.302 17.6055 190.153 17.5964L189.681 16.4021C189.606 16.2626 189.442 15.9673 189.37 15.7742L188.697 14.1716L188.519 13.7439L188.979 13.6882C189.367 13.6417 189.599 13.6113 189.754 13.5906C189.905 13.5704 189.998 13.5575 190.094 13.5525C190.188 13.5476 190.283 13.5496 190.437 13.5525C190.595 13.5555 190.832 13.5596 191.229 13.5603H191.408C192.406 13.5499 193.43 13.5706 194.283 13.572H194.282C196.881 13.5675 199.48 13.583 202.079 13.6199L202.395 13.6121L202.572 13.6062L202.681 13.7459C203.016 14.1745 203.286 14.7711 203.527 15.3562C203.776 15.9583 203.996 16.5509 204.243 17.0525C204.309 17.1698 204.39 17.3093 204.5 17.5047C204.504 17.5053 204.509 17.5069 204.514 17.5076C204.544 17.5121 204.587 17.5181 204.632 17.5261C204.826 17.5608 205.088 17.6383 205.336 17.8933L205.375 17.9334L205.399 17.9822C205.506 18.1975 205.588 18.4265 205.652 18.6609C205.931 19.6698 205.88 20.8627 205.714 21.8377C205.641 22.2644 205.545 22.5697 205.413 22.7947C205.272 23.0355 205.101 23.1632 204.929 23.2537C204.854 23.2929 204.768 23.3306 204.709 23.3582C204.643 23.3887 204.584 23.4176 204.525 23.4548C204.42 23.5213 204.299 23.6249 204.158 23.822C204.055 24.19 203.79 24.8151 203.526 25.4041C203.238 26.048 202.93 26.6939 202.779 27.0134L202.687 27.2107L202.468 27.2136C201.895 27.2215 200.169 27.2789 198.537 27.2947C197.713 27.3027 196.895 27.3002 196.228 27.2761C195.894 27.2641 195.594 27.2466 195.348 27.2214C195.146 27.2009 194.957 27.1716 194.812 27.1297C193.797 27.1403 192.584 27.1671 191.413 27.1472L191.403 27.1687L191.167 27.1511L191.005 27.1394C190.299 27.1197 189.61 27.0806 188.991 27.0007L188.533 26.9422L188.714 26.5173C189.2 25.3758 189.696 24.2418 190.201 23.116L187.262 23.1033C183.681 23.2175 180.154 23.0256 176.544 23.0164L153.355 22.9548H153.354L144.738 22.8718C144.574 22.8719 144.27 22.8753 143.888 22.8787C143.505 22.8821 143.046 22.8856 142.579 22.8855C141.837 22.8853 141.055 22.8743 140.52 22.8406L140.059 25.4724L140.008 25.7615H139.508L96.043 25.7019L96.0449 25.7839L95.6885 25.782L85.7334 25.7381H85.7227L71.9639 25.2683V25.2673C71.5109 25.2665 70.2926 25.251 69.1016 25.2547C68.5037 25.2565 67.92 25.2639 67.4551 25.28C67.2223 25.2881 67.0224 25.2984 66.8672 25.3113C66.8477 25.3129 66.8292 25.3155 66.8115 25.3172C66.8166 25.4047 66.8367 25.4852 66.8652 25.575C66.9163 25.7354 67.0194 25.9849 67.0332 26.2986C67.0703 27.1465 67.0371 28.118 67.0186 28.9431L67.0107 29.2654L66.6895 29.2849C65.661 29.3456 64.699 29.3514 63.6807 29.3504H63.6729C63.0001 29.3336 62.2612 29.3329 61.5732 29.2927L61.248 29.2732L61.2432 28.949C61.2352 28.4569 61.2371 27.5401 61.2061 27.114L61.2041 27.0974L61.2051 27.0798C61.2212 26.4682 61.2731 26.1778 61.3682 25.6013L61.3701 25.5916L61.418 25.3406C61.3316 25.2881 61.1864 25.2532 60.9434 25.2498C60.7822 25.2475 60.6156 25.258 60.4375 25.2673C60.2798 25.2756 60.1037 25.2824 59.9463 25.2673L28.7334 25.6785H28.7285L16.3535 25.6726C14.5586 25.6714 12.5478 25.6183 10.7021 25.6756C10.8041 25.7631 10.8989 25.8637 10.9766 25.9822L11.0527 26.0974L11.0293 26.2341C10.9471 26.709 10.7089 27.069 10.375 27.3064C10.0478 27.539 9.64895 27.6405 9.25586 27.6472C8.4843 27.6605 7.62257 27.3085 7.1709 26.6599L7.11914 26.5847L7.11035 26.4939C7.08329 26.2155 7.12735 25.9733 7.26953 25.781C7.3705 25.6446 7.49977 25.5622 7.61523 25.5086C7.58846 25.5027 7.56114 25.4967 7.5332 25.491C7.19358 25.4209 6.79643 25.3614 6.39062 25.3123C5.58842 25.2151 4.77461 25.1579 4.32324 25.1209C3.31055 25.154 2.63816 25.059 1.67773 24.9216L1.63086 24.9148L1.35059 24.8748L1.33105 24.5916C1.25887 23.5392 1.17058 21.59 1.15332 19.6599C1.1362 17.7447 1.18789 15.7994 1.41016 14.7839L1.43164 14.6843L1.50293 14.6131C1.58192 14.5333 1.68278 14.4825 1.76465 14.449C1.85341 14.4127 1.95752 14.3819 2.06934 14.3543C2.29333 14.299 2.58211 14.2508 2.91992 14.2078C3.59751 14.1215 4.50793 14.0517 5.57129 13.9959C7.70023 13.8841 10.4688 13.8254 13.2715 13.7966C18.8775 13.7392 24.638 13.8022 25.7275 13.8103H25.7266L58.3994 13.9685H58.3984C58.6107 13.9686 58.8731 13.9728 59.1553 13.9763C59.4388 13.9798 59.7445 13.9829 60.0479 13.9822C60.5653 13.981 61.0575 13.9655 61.416 13.9265L61.4219 13.9099C61.2853 13.4934 61.2098 12.8692 61.1846 12.281C61.1562 11.6174 61.1884 10.9049 61.3145 10.4783L61.3418 10.3845L61.415 10.3181C61.5338 10.2107 61.6776 10.1512 61.8047 10.116C61.9343 10.0801 62.0718 10.0629 62.1982 10.0535C62.4301 10.0362 62.7217 10.045 62.8467 10.0418L63.5654 10.0173L63.5752 10.0164L63.5859 10.0173Z" fill="black" stroke="black" stroke-width="0.7"/>
<path d="M95.6504 25.2291L95.5273 25.2291L95.5273 14.6481L95.6504 14.6491L139.398 14.6959L139.502 14.6959L139.52 14.7975L140.09 18.0494L140.092 18.0602L140.092 22.5524L140.09 22.5631L139.629 25.1881L139.611 25.2897L139.508 25.2897L95.6504 25.2291Z" fill="#696C63" stroke="black" stroke-width="0.245192"/>
<path d="M33.9783 20.1079C33.9524 17.0799 34.5281 15.2028 34.8191 14.6428L8.33471 14.8883L4.63056 15.2167L4.33423 19.6906L4.5713 24.2467L8.95855 24.6582L34.8838 24.8335C34.5927 24.52 34.0042 23.1359 33.9783 20.1079Z" fill="#8D8F81"/>
<path d="M95.4489 22.1972C95.4224 21.1108 95.4599 19.5673 95.4665 18.4505L95.4279 14.8181C92.6882 14.8098 89.9011 14.8401 87.1647 14.7711C87.2066 16.1313 87.221 16.8066 87.1294 18.1508C88.7436 18.1012 95.3441 16.801 93.1428 21.6494C92.6253 22.7898 88.2383 22.3893 87.2055 22.3999L87.2055 24.969C89.4653 25.1805 93.1748 25.1567 95.4698 25.1472C95.4665 24.3247 95.4908 22.9771 95.4489 22.1972Z" fill="#696C63"/>
<path d="M92.7836 21.4562C92.2947 22.3875 88.1499 22.0604 87.1741 22.0691L87.1022 18.5989C88.6273 18.5584 94.8633 17.4966 92.7836 21.4562Z" fill="#8D8F81"/>
<path d="M66.7082 10.4465C66.738 11.4492 66.8836 13.047 66.4787 13.8126L66.3386 13.8141C65.4724 13.7466 62.8243 13.5549 62.0111 13.7346L61.7981 13.9191C61.5091 13.2309 61.4329 11.3136 61.6503 10.5779C61.9019 10.3502 62.5264 10.4003 62.8585 10.3911L63.5768 10.3665L66.7082 10.4465Z" fill="#131314"/>
<path d="M66.5042 28.5732C66.4413 27.979 66.3564 26.9348 66.2782 26.3889C65.419 26.4138 62.5155 26.6213 61.8625 26.1331L61.8553 28.6166C62.7738 28.6466 65.5738 28.7399 66.5042 28.5732Z" fill="#3B3B3A"/>
<path d="M66.5042 10.9712C66.4413 11.5654 66.4257 12.9059 66.3475 13.4518C65.4883 13.4269 63.5035 13.2136 61.8625 13.4113L61.8553 10.9278C62.7738 10.8978 65.5738 10.8045 66.5042 10.9712Z" fill="#3B3B3A"/>
<path d="M53.3299 22.7128L53.3295 22.7096C52.5837 22.6775 50.5623 22.497 49.9488 22.7186C48.5585 23.2208 49.417 23.5451 47.5522 23.3864C47.0083 23.4144 46.8979 23.4037 46.3805 23.1732C43.867 22.6478 40.9099 23.6707 38.4835 23.0739C37.8513 22.9185 37.8414 16.4002 38.4317 16.2386C40.3571 15.7117 42.7084 16.2744 44.7629 16.1093C46.0053 16.0095 48.478 15.2477 49.3441 16.2813C49.9355 16.9463 52.5693 16.6741 53.3803 16.6569C53.4377 16.1194 53.441 15.2325 53.4564 14.6655C51.6811 14.7232 49.7513 14.6276 47.9572 14.6281L35.2352 14.6234C34.3095 16.741 34.2995 21.594 34.9218 23.959C35.0675 24.514 35.4625 24.8304 35.8939 24.8403C40.036 24.9346 44.0594 24.6458 48.2026 24.7199L53.4807 24.5506C53.462 23.8572 53.4081 23.3899 53.3299 22.7128Z" fill="#696C63"/>
<path d="M81.9182 15.6848C81.8255 18.4178 81.8255 20.8824 81.8366 23.6155C80.0491 23.3794 78.2241 22.8217 76.4035 22.603C76.11 22.5649 75.9324 22.5808 75.7084 22.3177C75.3443 21.3181 75.5329 18.3109 75.5473 17.0222C77.6338 16.5006 79.7214 16.3123 81.9182 15.6848Z" fill="#3B3B3A"/>
<path d="M46.2923 22.5355L46.2747 22.6851C45.7704 22.8764 41.1119 22.7756 40.4124 22.7695C40.1211 20.6812 40.0582 18.5722 40.4201 16.496C42.1745 16.3666 44.5556 16.421 46.3022 16.4823C46.0551 18.6966 46.0518 20.3254 46.2923 22.5355Z" fill="#3B3B3A"/>
<path d="M65.6554 18.8967C65.8904 20.1555 65.5053 21.4791 64.7064 22.1619C63.9076 22.8448 62.8815 22.7282 62.1731 21.874C61.8873 21.529 61.6733 21.0851 61.5519 20.5874C61.3003 19.5584 61.4746 18.4214 62.0076 17.6234C62.5394 16.8253 63.3438 16.4938 64.104 16.7593C64.8653 17.0248 65.4601 17.8446 65.6554 18.8967Z" fill="#3B3B3A"/>
<path d="M64.2012 19.1857C64.4109 19.68 64.2961 20.3157 63.9419 20.6138C63.5888 20.9116 63.1276 20.7614 62.907 20.2763C62.7613 19.9558 62.7525 19.5514 62.8816 19.2182C63.0118 18.8851 63.2611 18.6749 63.5348 18.6681C63.8084 18.6613 64.0633 18.8591 64.2012 19.1857Z" fill="#131314"/>
<path d="M63.9694 19.3293C64.1084 19.6308 64.0522 20.0301 63.8425 20.2381C63.6329 20.4463 63.3416 20.3901 63.1805 20.1104C63.0691 19.9158 63.0437 19.6519 63.1154 19.4237C63.186 19.1955 63.3427 19.0407 63.5215 19.0208C63.7002 19.0011 63.8723 19.1197 63.9694 19.3293Z" fill="#1D1D1C"/>
<path d="M70.9041 15.5132C70.9716 15.6596 70.9443 15.8535 70.8426 15.9545C70.7408 16.0556 70.5994 16.0283 70.5211 15.8925C70.467 15.798 70.4547 15.6699 70.4895 15.5591C70.5238 15.4483 70.5999 15.3732 70.6867 15.3635C70.7734 15.3539 70.857 15.4115 70.9041 15.5132Z" fill="#696C63"/>
<path d="M58.4203 15.4663C58.4878 15.6127 58.4604 15.8066 58.3587 15.9076C58.2569 16.0086 58.1155 15.9813 58.0373 15.8455C57.9831 15.7511 57.9708 15.6229 58.0056 15.5122C58.0399 15.4014 58.116 15.3262 58.2028 15.3166C58.2896 15.307 58.3731 15.3646 58.4203 15.4663Z" fill="#8D8F81"/>
<path d="M54.5135 15.4744C54.581 15.6208 54.5537 15.8147 54.4519 15.9157C54.3501 16.0168 54.2087 15.9895 54.1305 15.8537C54.0764 15.7592 54.0641 15.6311 54.0989 15.5203C54.1332 15.4095 54.2093 15.3343 54.296 15.3247C54.3828 15.3151 54.4664 15.3727 54.5135 15.4744Z" fill="#8D8F81"/>
<path d="M74.8026 15.5132C74.8701 15.6596 74.8428 15.8535 74.741 15.9545C74.6392 16.0556 74.4978 16.0283 74.4196 15.8925C74.3655 15.798 74.3531 15.6699 74.388 15.5591C74.4223 15.4483 74.4983 15.3732 74.5851 15.3635C74.6719 15.3539 74.7554 15.4115 74.8026 15.5132Z" fill="#696C63"/>
<path d="M74.8026 23.5159C74.8701 23.6623 74.8428 23.8562 74.741 23.9572C74.6392 24.0582 74.4978 24.0309 74.4196 23.8951C74.3655 23.8007 74.3531 23.6725 74.388 23.5618C74.4223 23.451 74.4983 23.3758 74.5851 23.3662C74.6719 23.3566 74.7554 23.4142 74.8026 23.5159Z" fill="#696C63"/>
<path d="M70.9041 23.5159C70.9716 23.6623 70.9443 23.8562 70.8426 23.9572C70.7408 24.0582 70.5994 24.0309 70.5211 23.8951C70.467 23.8007 70.4547 23.6725 70.4895 23.5618C70.5238 23.451 70.5999 23.3758 70.6867 23.3662C70.7734 23.3566 70.857 23.4142 70.9041 23.5159Z" fill="#696C63"/>
<path d="M84.0388 15.2822C83.8424 16.7541 83.9185 22.4698 83.9274 24.2409C83.4242 24.0439 82.7997 23.8775 82.2789 23.7222C81.9545 23.06 82.1344 16.9661 82.1576 15.7164C82.7523 15.5527 83.4342 15.4199 84.0388 15.2822Z" fill="#2B2B29"/>
<path d="M86.9399 14.7711C86.6653 16.4246 86.7718 22.8454 86.7841 24.8351C86.0805 24.6138 85.2073 24.4268 84.479 24.2524C84.0254 23.5084 84.2769 16.6628 84.3093 15.2589C85.1409 15.075 86.0944 14.9258 86.9399 14.7711Z" fill="#3B3B3A"/>
<path d="M57.3381 21.9981C57.4065 22.6349 57.5191 23.6291 57.3128 24.2067L57.1296 24.209L55.1115 24.1422L55.1005 21.9637C55.8883 21.918 56.5547 21.9544 57.3381 21.9981Z" fill="#0F0F0F"/>
<path d="M54.7274 23.3267C54.8146 23.5179 54.819 23.7601 54.7396 23.9576C54.659 24.1549 54.5079 24.2756 54.3446 24.272C54.1813 24.2683 54.0323 24.1408 53.9573 23.94C53.8469 23.6472 53.9231 23.2866 54.1305 23.1224C54.3368 22.9579 54.5994 23.0481 54.7274 23.3267Z" fill="#0F0F0F"/>
<path d="M58.7737 18.2765C58.7505 19.1425 58.7593 20.094 58.756 20.9676C57.187 20.9945 54.9769 21.0985 53.4388 20.9379L53.4068 18.234C55.1954 18.2747 56.984 18.2887 58.7737 18.2765Z" fill="#3B3B3A"/>
<path d="M75.2748 18.362L75.2781 20.976L69.9664 21.0011C69.9212 20.16 69.9223 19.1813 69.909 18.3276C71.6645 18.2885 73.5127 18.3458 75.2748 18.362Z" fill="#1D1D1C"/>
<path d="M52.5903 17.0006C52.3409 19.0389 52.3608 20.317 52.5991 22.3339L50.2015 22.313C49.8749 20.5154 49.9378 18.8023 50.1982 17.0059L52.5903 17.0006Z" fill="#3B3B3A"/>
<path d="M49.0429 16.2539C48.7936 18.7562 48.8134 20.3253 49.0518 22.8013C49.0518 22.8013 48.2794 22.9416 47.8483 22.9473C47.4172 22.953 46.6541 22.7756 46.6541 22.7756C46.3275 20.5688 46.3904 18.4658 46.6508 16.2605C46.6508 16.2605 47.3664 16.0791 47.8297 16.0759C48.3062 16.0726 49.0429 16.2539 49.0429 16.2539Z" fill="#424242"/>
<path d="M67.2497 16.0668C67.2508 18.4687 67.263 20.8708 67.2883 23.2726C66.0239 23.2969 65.0783 23.3574 63.8215 23.5267C64.4228 23.0713 64.6766 22.936 65.3287 22.6322C65.5549 22.3765 65.7899 21.9768 65.9466 21.6385C66.3174 20.8327 66.4387 19.8537 66.2809 18.923C66.0239 17.461 65.4887 16.9514 64.6446 16.2527C65.513 16.1697 66.3814 16.1076 67.2497 16.0668Z" fill="#3B3B3A"/>
<path d="M60.2367 16.1053C61.1525 16.1012 62.0683 16.1092 62.9841 16.1293C61.1128 17.4321 60.1661 20.1106 62.0065 22.375C62.2118 22.6272 62.3541 22.6291 62.5538 22.9498L62.4446 23.1304C62.1257 23.1995 61.8653 23.2082 61.5431 23.2252L60.3371 23.2582C60.0315 22.5848 60.2124 17.3405 60.2367 16.1053Z" fill="#3B3B3A"/>
<path d="M69.7764 17.0671C69.7157 18.886 69.6925 20.7068 69.7069 22.5275C69.2644 22.587 68.8142 22.6119 68.4027 22.3767C68.0187 20.5742 68.0474 18.8048 68.417 17.0114C68.8473 16.995 69.3416 17.0412 69.7764 17.0671Z" fill="#3B3B3A"/>
<path d="M39.9629 16.3956C39.6716 18.9375 39.7381 20.0926 39.8724 22.6571C39.5925 22.9015 39.0368 22.8466 38.655 22.8494C38.1757 21.2101 37.8308 18.1377 38.7597 16.6502C39.2984 16.2936 39.28 16.4014 39.9629 16.3956Z" fill="#424242"/>
<path d="M4.104 15.3228C3.74559 18.7498 3.89458 20.7135 4.05986 24.171C3.60743 24.171 2.97466 24.1322 2.50489 24.1359C1.91508 21.9259 1.89019 19.7649 2.3971 15.6955C3.19366 15.3374 3.34366 15.3728 4.104 15.3228Z" fill="#2B2B29"/>
<path d="M83.949 24.6756C82.8643 24.8337 76.7973 24.6006 75.8352 24.381C75.6123 24.0365 75.6432 23.4813 75.6277 23.0011C76.2213 22.6254 82.9471 24.3392 83.949 24.6756Z" fill="#696C63"/>
<path d="M83.949 14.7925C82.8643 14.6345 76.7973 14.8675 75.8352 15.0871C75.6123 15.4316 75.6432 15.9869 75.6277 16.4671C76.2213 16.8427 82.9471 15.1289 83.949 14.7925Z" fill="#696C63"/>
<path d="M59.9353 16.9979C59.9033 18.6577 59.8905 20.3182 59.8969 21.9786C59.6534 22.1888 59.4782 22.109 59.1419 22.1066C59.0329 20.5571 58.8482 18.7444 59.2006 17.2832C59.49 16.9223 59.4409 17.0352 59.9353 16.9979Z" fill="#1D1D1C"/>
<path d="M69.8174 14.71C69.7898 15.3176 69.8251 16.1163 69.5945 16.577C69.098 16.6186 68.5518 15.8046 68.0685 15.65C67.796 15.5625 67.1108 15.5758 66.8085 15.581L66.4885 15.4705L66.3627 15.162L66.4223 14.9472C66.8846 14.4692 69.0947 14.6888 69.8174 14.71Z" fill="#696C63"/>
<path d="M68.7095 23.0744C68.4314 23.5347 68.011 23.6949 67.6513 23.3209C67.5719 22.8578 67.595 17.5533 67.5553 16.3576L67.6491 16.0982C67.9901 15.9853 68.0342 15.9902 68.3774 16.0996C68.4082 16.1606 68.4424 16.2301 68.4822 16.3084C68.0154 17.8987 67.786 19.3218 67.9986 21.0561C68.1431 22.0127 68.1258 22.545 68.7095 23.0744Z" fill="#1D1D1C"/>
<path d="M69.7643 22.9205C69.7798 23.5339 69.7974 23.7853 69.6981 24.3777C69.2458 24.5354 66.8536 24.4301 66.2622 24.4127L66.409 23.947C67.2354 23.5234 68.1247 24.2785 68.779 23.4444C69.2645 22.8265 69.0858 22.9659 69.7643 22.9205Z" fill="#696C63"/>
<path d="M61.8555 14.7991C61.5907 16.107 60.9948 15.288 60.2511 15.5439C59.9257 15.8972 60.0227 15.7723 59.908 16.422C59.6057 16.7161 59.6906 16.6267 59.2404 16.5772C59.2956 16.1943 59.3067 15.198 59.3188 14.7636C60.1905 14.6443 60.9882 14.5804 61.8555 14.7991Z" fill="#696C63"/>
<path d="M61.8555 24.4348C61.5907 23.1269 60.9948 23.9459 60.2511 23.69C59.9257 23.3367 60.0227 23.4616 59.908 22.8119C59.6057 22.5178 59.6906 22.6072 59.2404 22.6567C59.2956 23.0396 59.3067 24.0359 59.3188 24.4703C60.1905 24.5896 60.9882 24.6535 61.8555 24.4348Z" fill="#696C63"/>
<path d="M49.9421 16.8894C49.5868 19.7639 49.9278 20.0011 49.8153 22.2289L49.5383 22.4617C49.1234 21.4985 49.0418 18.2808 49.3982 17.1581C49.4578 16.9704 49.7943 16.9336 49.9421 16.8894Z" fill="#1D1D1C"/>
<path d="M53.2237 16.9834C53.2392 17.2226 53.1531 22.2006 53.1443 22.2413L52.8707 22.3044C52.6831 21.1986 52.511 18.5646 52.8022 17.4107C52.8883 17.0706 52.9854 17.0995 53.2237 16.9834Z" fill="#1D1D1C"/>
<path d="M187.268 22.5018C187.465 20.6277 187.857 19.8739 187.119 18.0297L185.682 18.0657L175.469 18.0098C174.8 18.0049 171.47 17.9331 170.985 18.057C165.057 17.9439 159.129 17.9028 153.201 17.9339C149.911 17.9076 144.862 17.667 141.682 17.9189L141.45 17.8952C140.966 17.8712 140.451 17.8324 139.969 17.8368L140.01 22.4323C140.598 22.5891 144.014 22.5222 144.74 22.5219L153.356 22.6047L176.545 22.6665C180.185 22.6758 183.678 22.8676 187.256 22.7531C187.268 22.5018 187.255 22.6292 187.268 22.5018Z" fill="#454544"/>
<path d="M202.406 13.9616C203.131 14.8873 203.576 16.7809 204.249 17.7726C204.348 17.9193 204.726 17.77 205.085 18.1391C205.589 19.1598 205.568 20.6104 205.369 21.7788C205.089 23.4182 204.55 22.6171 203.838 23.6667C203.685 24.2982 202.766 26.2211 202.463 26.8634C201.268 26.8797 195.716 27.0915 194.859 26.7793C193.091 26.7969 190.759 26.8762 189.036 26.6537C189.592 25.3486 190.16 24.0537 190.74 22.7694L188.034 22.7531C187.787 22.5325 187.255 22.6291 187.268 22.5018C187.465 20.6276 187.857 19.8739 187.119 18.0297C188.242 17.9462 189.529 17.9612 190.666 17.941L189.999 16.2541C189.913 16.0924 189.751 15.8056 189.693 15.6384L189.02 14.0358C190.583 13.8485 192.686 13.9195 194.282 13.9223C196.883 13.9177 199.484 13.9339 202.085 13.9709L202.406 13.9616Z" fill="#454544"/>
<path d="M191.192 26.8025C194.375 20.239 194.35 20.4888 191.227 13.9103C189.632 13.9075 190.583 13.8485 189.02 14.0358L189.693 15.6384C189.751 15.8056 189.913 16.0924 189.999 16.2541L190.666 17.941C189.529 17.9612 188.242 17.9462 187.119 18.0297C187.856 19.8739 187.465 20.6276 187.268 22.5018C187.254 22.6291 187.26 22.6182 187.244 22.7531L190.74 22.7694C190.159 24.0537 189.591 25.3486 189.036 26.6537L191.192 26.8025Z" fill="#0F0F0F"/>
<path d="M190.969 26.3833C194.167 20.1725 194.008 20.6236 191.036 14.3175C190.485 14.3121 189.923 14.3263 189.355 14.313L190.42 16.7611C191.527 19.4533 192.125 16.8299 192.721 20.3091C192.308 22.8764 192.366 22.2421 191.121 22.8414C190.726 23.032 189.774 25.6754 189.339 26.4456C189.874 26.4239 190.437 26.388 190.969 26.3833Z" fill="#2B2B29"/>
<path d="M192.337 19.4107C192.587 22.6316 191.807 22.4735 189.896 22.4496C189.208 22.4411 188.449 22.4658 187.753 22.4713C187.582 22.0642 187.639 22.1652 187.718 21.5837C187.856 20.2415 187.791 19.6506 187.622 18.3306C189.024 18.4229 190.267 18.076 191.572 18.3588C191.961 18.4431 192.159 18.955 192.337 19.4107Z" fill="#2B2B29"/>
<path d="M204.249 17.7712C204.06 17.4333 203.979 17.3108 203.854 17.076C204.075 17.6021 204.508 19.022 204.476 20.4931C204.46 22.0901 204.076 22.9551 203.838 23.6653C204.55 22.6156 205.089 23.4168 205.369 21.7773C205.568 20.6089 205.589 19.1584 205.085 18.1376C204.726 17.7686 204.348 17.9179 204.249 17.7712Z" fill="black"/>
<path d="M205.08 19.0423C205.163 19.9882 205.288 21.9394 204.67 22.5396L204.7 22.3067L204.719 22.2142C204.988 20.7985 204.862 20.105 204.779 18.61L204.907 18.5919L205.08 19.0423Z" fill="#454544"/>
<path d="M134.792 15.9104C134.647 17.1691 132.61 16.8281 131.821 16.5063C131.832 16.2289 131.829 16.1697 131.937 15.9041C132.5 15.5013 134.193 15.6343 134.792 15.9104Z" fill="#131314"/>
<path d="M134.531 16.2046C134.082 16.6898 132.67 16.4799 132.055 16.3544C132.1 16.2421 132.204 16.1812 132.303 16.1033C132.936 16.0222 133.93 15.9968 134.531 16.2046Z" fill="#41433C"/>
<path d="M130.841 15.9104C130.695 17.1691 128.658 16.8281 127.87 16.5063C127.881 16.2289 127.877 16.1697 127.985 15.9041C128.548 15.5013 130.241 15.6343 130.841 15.9104Z" fill="#131314"/>
<path d="M130.579 16.2046C130.13 16.6898 128.718 16.4799 128.103 16.3544C128.148 16.2421 128.252 16.1812 128.351 16.1033C128.984 16.0222 129.978 15.9968 130.579 16.2046Z" fill="#41433C"/>
<path d="M126.889 15.9104C126.744 17.1691 124.706 16.8281 123.918 16.5063C123.929 16.2289 123.926 16.1697 124.034 15.9041C124.597 15.5013 126.289 15.6343 126.889 15.9104Z" fill="#131314"/>
<path d="M126.627 16.2046C126.178 16.6898 124.766 16.4799 124.152 16.3544C124.197 16.2421 124.301 16.1812 124.399 16.1033C125.032 16.0222 126.026 15.9968 126.627 16.2046Z" fill="#41433C"/>
<path d="M122.937 15.9104C122.792 17.1691 120.755 16.8281 119.966 16.5063C119.977 16.2289 119.974 16.1697 120.082 15.9041C120.645 15.5013 122.337 15.6343 122.937 15.9104Z" fill="#131314"/>
<path d="M122.675 16.2046C122.226 16.6898 120.815 16.4799 120.2 16.3544C120.245 16.2421 120.349 16.1812 120.447 16.1033C121.08 16.0222 122.075 15.9968 122.675 16.2046Z" fill="#41433C"/>
<path d="M118.985 15.9104C118.84 17.1691 116.802 16.8281 116.014 16.5063C116.025 16.2289 116.022 16.1697 116.13 15.9041C116.693 15.5013 118.385 15.6343 118.985 15.9104Z" fill="#131314"/>
<path d="M118.723 16.2046C118.274 16.6898 116.862 16.4799 116.248 16.3544C116.293 16.2421 116.397 16.1812 116.495 16.1033C117.128 16.0222 118.122 15.9968 118.723 16.2046Z" fill="#41433C"/>
<path d="M115.033 15.9104C114.888 17.1691 112.851 16.8281 112.062 16.5063C112.073 16.2289 112.07 16.1697 112.178 15.9041C112.741 15.5013 114.434 15.6343 115.033 15.9104Z" fill="#131314"/>
<path d="M114.771 16.2046C114.322 16.6898 112.911 16.4799 112.296 16.3544C112.341 16.2421 112.445 16.1812 112.544 16.1033C113.177 16.0222 114.171 15.9968 114.771 16.2046Z" fill="#41433C"/>
<path d="M111.081 15.9104C110.936 17.1691 108.899 16.8281 108.11 16.5063C108.121 16.2289 108.118 16.1697 108.226 15.9041C108.789 15.5013 110.482 15.6343 111.081 15.9104Z" fill="#131314"/>
<path d="M110.82 16.2046C110.371 16.6898 108.959 16.4799 108.344 16.3544C108.389 16.2421 108.493 16.1812 108.592 16.1033C109.225 16.0222 110.219 15.9968 110.82 16.2046Z" fill="#41433C"/>
<path d="M107.129 15.9104C106.984 17.1691 104.947 16.8281 104.158 16.5063C104.169 16.2289 104.166 16.1697 104.274 15.9041C104.837 15.5013 106.53 15.6343 107.129 15.9104Z" fill="#131314"/>
<path d="M106.868 16.2046C106.419 16.6898 105.007 16.4799 104.392 16.3544C104.438 16.2421 104.541 16.1812 104.64 16.1033C105.273 16.0222 106.267 15.9968 106.868 16.2046Z" fill="#41433C"/>
<path d="M103.178 15.9104C103.033 17.1691 100.995 16.8281 100.207 16.5063C100.218 16.2289 100.214 16.1697 100.323 15.9041C100.886 15.5013 102.578 15.6343 103.178 15.9104Z" fill="#131314"/>
<path d="M102.916 16.2046C102.467 16.6898 101.055 16.4799 100.44 16.3544C100.486 16.2421 100.59 16.1812 100.688 16.1033C101.321 16.0222 102.315 15.9968 102.916 16.2046Z" fill="#41433C"/>
<path d="M134.792 23.5206C134.647 24.7793 132.61 24.4383 131.821 24.1165C131.832 23.8391 131.829 23.7799 131.937 23.5143C132.5 23.1115 134.193 23.2445 134.792 23.5206Z" fill="#131314"/>
<path d="M134.531 23.8148C134.082 24.3 132.67 24.0901 132.055 23.9646C132.1 23.8523 132.204 23.7914 132.303 23.7135C132.936 23.6324 133.93 23.607 134.531 23.8148Z" fill="#41433C"/>
<path d="M130.841 23.5206C130.695 24.7793 128.658 24.4383 127.87 24.1165C127.881 23.8391 127.877 23.7799 127.985 23.5143C128.548 23.1115 130.241 23.2445 130.841 23.5206Z" fill="#131314"/>
<path d="M130.579 23.8148C130.13 24.3 128.718 24.0901 128.103 23.9646C128.148 23.8523 128.252 23.7914 128.351 23.7135C128.984 23.6324 129.978 23.607 130.579 23.8148Z" fill="#41433C"/>
<path d="M126.889 23.5206C126.744 24.7793 124.706 24.4383 123.918 24.1165C123.929 23.8391 123.926 23.7799 124.034 23.5143C124.597 23.1115 126.289 23.2445 126.889 23.5206Z" fill="#131314"/>
<path d="M126.627 23.8148C126.178 24.3 124.766 24.0901 124.152 23.9646C124.197 23.8523 124.301 23.7914 124.399 23.7135C125.032 23.6324 126.026 23.607 126.627 23.8148Z" fill="#41433C"/>
<path d="M122.937 23.5206C122.792 24.7793 120.755 24.4383 119.966 24.1165C119.977 23.8391 119.974 23.7799 120.082 23.5143C120.645 23.1115 122.337 23.2445 122.937 23.5206Z" fill="#131314"/>
<path d="M122.675 23.8148C122.226 24.3 120.815 24.0901 120.2 23.9646C120.245 23.8523 120.349 23.7914 120.447 23.7135C121.08 23.6324 122.075 23.607 122.675 23.8148Z" fill="#41433C"/>
<path d="M118.985 23.5206C118.84 24.7793 116.802 24.4383 116.014 24.1165C116.025 23.8391 116.022 23.7799 116.13 23.5143C116.693 23.1115 118.385 23.2445 118.985 23.5206Z" fill="#131314"/>
<path d="M118.723 23.8148C118.274 24.3 116.862 24.0901 116.248 23.9646C116.293 23.8523 116.397 23.7914 116.495 23.7135C117.128 23.6324 118.122 23.607 118.723 23.8148Z" fill="#41433C"/>
<path d="M115.033 23.5206C114.888 24.7793 112.851 24.4383 112.062 24.1165C112.073 23.8391 112.07 23.7799 112.178 23.5143C112.741 23.1115 114.434 23.2445 115.033 23.5206Z" fill="#131314"/>
<path d="M114.771 23.8148C114.322 24.3 112.911 24.0901 112.296 23.9646C112.341 23.8523 112.445 23.7914 112.544 23.7135C113.177 23.6324 114.171 23.607 114.771 23.8148Z" fill="#41433C"/>
<path d="M111.081 23.5206C110.936 24.7793 108.899 24.4383 108.11 24.1165C108.121 23.8391 108.118 23.7799 108.226 23.5143C108.789 23.1115 110.482 23.2445 111.081 23.5206Z" fill="#131314"/>
<path d="M110.82 23.8148C110.371 24.3 108.959 24.0901 108.344 23.9646C108.389 23.8523 108.493 23.7914 108.592 23.7135C109.225 23.6324 110.219 23.607 110.82 23.8148Z" fill="#41433C"/>
<path d="M107.129 23.5206C106.984 24.7793 104.947 24.4383 104.158 24.1165C104.169 23.8391 104.166 23.7799 104.274 23.5143C104.837 23.1115 106.53 23.2445 107.129 23.5206Z" fill="#131314"/>
<path d="M106.868 23.8148C106.419 24.3 105.007 24.0901 104.392 23.9646C104.438 23.8523 104.541 23.7914 104.64 23.7135C105.273 23.6324 106.267 23.607 106.868 23.8148Z" fill="#41433C"/>
<path d="M103.178 23.5206C103.033 24.7793 100.995 24.4383 100.207 24.1165C100.218 23.8391 100.214 23.7799 100.323 23.5143C100.886 23.1115 102.578 23.2445 103.178 23.5206Z" fill="#131314"/>
<path d="M102.916 23.8148C102.467 24.3 101.055 24.0901 100.44 23.9646C100.486 23.8523 100.59 23.7914 100.688 23.7135C101.321 23.6324 102.315 23.607 102.916 23.8148Z" fill="#41433C"/>
<path fill-rule="evenodd" clip-rule="evenodd" d="M58.8664 15.313C58.5267 15.3009 58.5872 15.0214 58.1452 14.8951C57.8948 15.1357 57.9477 15.1381 57.7956 15.5677C57.8529 16.0963 57.7782 15.9157 58.0705 16.2522C58.493 16.2857 58.511 16.1774 58.9114 15.829C58.9147 16.4737 58.851 17.2271 58.808 17.8774C57.1607 17.9101 55.5121 17.9134 53.8648 17.888C53.7347 17.9068 53.6707 17.8458 53.5516 17.7713C53.4425 17.2526 53.605 16.2742 53.6723 15.699L53.7758 15.5995C53.9785 16.0463 54.0483 16.297 54.4453 16.2536C54.7671 15.9345 54.6988 16.0963 54.7958 15.6128C54.4627 14.6617 54.2775 15.2637 53.8715 14.9017L53.9769 14.7863C54.7052 14.6316 58.2818 14.681 59.0244 14.8327L58.8664 15.313ZM55.1215 15.171L55.0171 17.3136L57.3732 17.3109L57.4498 15.1724L55.1215 15.171Z" fill="#696C63"/>
<path fill-rule="evenodd" clip-rule="evenodd" d="M75.2227 15.3617C74.8863 15.3497 74.9462 15.0701 74.5085 14.9438C74.2606 15.1845 74.313 15.1869 74.1624 15.6165C74.2192 16.145 74.1452 15.9645 74.4346 16.301C74.853 16.3345 74.8708 16.2262 75.2672 15.8778C75.2705 16.5224 75.2074 17.2758 75.1648 17.9261C73.5337 17.9589 71.9014 17.9621 70.2702 17.9368C70.1414 17.9555 70.078 17.8945 69.9601 17.82C69.8521 17.3013 70.013 16.323 70.0796 15.7478L70.182 15.6483C70.3828 16.095 70.4519 16.3457 70.845 16.3023C71.1637 15.9833 71.096 16.1451 71.1921 15.6616C70.8622 14.7105 70.6788 15.3125 70.2769 14.9505L70.3812 14.8351C71.1023 14.6804 74.6438 14.7297 75.3792 14.8815L75.2227 15.3617ZM71.5145 15.2198L71.4111 17.3623L73.7441 17.3597L73.82 15.2211L71.5145 15.2198Z" fill="#696C63"/>
<path fill-rule="evenodd" clip-rule="evenodd" d="M75.2227 23.9544C74.8863 23.9664 74.9462 24.246 74.5085 24.3723C74.2606 24.1316 74.313 24.1292 74.1624 23.6997C74.2192 23.1711 74.1452 23.3516 74.4346 23.0151C74.853 22.9816 74.8708 23.0899 75.2672 23.4383C75.2705 22.7937 75.2074 22.0403 75.1648 21.39C73.5337 21.3573 71.9014 21.354 70.2702 21.3794C70.1414 21.3606 70.078 21.4216 69.9601 21.4961C69.8521 22.0148 70.013 22.9931 70.0796 23.5683L70.182 23.6678C70.3828 23.2211 70.4519 22.9704 70.845 23.0138C71.1637 23.3328 71.096 23.1711 71.1921 23.6546C70.8622 24.6056 70.6788 24.0036 70.2769 24.3656L70.3812 24.4811C71.1023 24.6357 74.6438 24.5864 75.3792 24.4346L75.2227 23.9544ZM71.5145 24.0963L71.4111 21.9538L73.7441 21.9564L73.82 24.095L71.5145 24.0963Z" fill="#696C63"/>
<path fill-rule="evenodd" clip-rule="evenodd" d="M58.8664 23.9461C58.5267 23.9582 58.5872 24.2377 58.1452 24.364C57.8948 24.1233 57.9477 24.1209 57.7956 23.6914C57.8529 23.1628 57.7782 23.3433 58.0705 23.0068C58.493 22.9734 58.511 23.0816 58.9114 23.43C58.9147 22.7854 58.851 22.032 58.808 21.3817C57.1607 21.349 55.5121 21.3457 53.8648 21.3711C53.7347 21.3523 53.6707 21.4133 53.5516 21.4878C53.4425 22.0065 53.605 22.9848 53.6723 23.56L53.7758 23.6595C53.9785 23.2128 54.0483 22.9621 54.4453 23.0055C54.7671 23.3245 54.6988 23.1628 54.7958 23.6463C54.4627 24.5973 54.2775 23.9953 53.8715 24.3573L53.9769 24.4728C54.7052 24.6274 58.2818 24.5781 59.0244 24.4263L58.8664 23.9461ZM55.1215 24.088L55.0171 21.9455L57.3732 21.9482L57.4498 24.0867L55.1215 24.088Z" fill="#696C63"/>
<path d="M54.4891 23.428C54.5566 23.5744 54.5293 23.7683 54.4275 23.8693C54.3257 23.9703 54.1843 23.943 54.1061 23.8072C54.052 23.7128 54.0397 23.5846 54.0745 23.4739C54.1088 23.3631 54.1848 23.2879 54.2716 23.2783C54.3584 23.2687 54.442 23.3263 54.4891 23.428Z" fill="#8D8F81"/>
<path d="M58.4613 23.4616C58.5288 23.608 58.5015 23.8019 58.3997 23.9029C58.2979 24.0039 58.1565 23.9766 58.0783 23.8408C58.0242 23.7464 58.0118 23.6182 58.0467 23.5075C58.0809 23.3967 58.157 23.3215 58.2438 23.3119C58.3306 23.3023 58.4141 23.3599 58.4613 23.4616Z" fill="#8D8F81"/>
<path d="M66.2659 26.0625C65.3997 26.1301 62.8236 26.1282 62.0104 25.9485L62.0171 24.9429C62.1296 24.7483 62.2797 24.4049 62.498 24.3764C63.4965 24.2478 65.0333 24.0323 65.991 24.4732C66.0505 24.5017 66.1069 24.9239 66.1289 25.0463C66.2016 25.2674 66.2075 25.8216 66.2659 26.0625Z" fill="#3B3B3A"/>
<path d="M66.3384 13.8143C66.2799 14.055 66.2014 14.4158 66.1286 14.6368C66.1066 14.7594 66.0503 15.1824 65.9907 15.2099C65.033 15.6508 63.4972 15.4353 62.4986 15.3068C62.2802 15.2786 62.1304 14.935 62.0178 14.7403L62.0111 13.7347C62.8245 13.555 65.4723 13.7467 66.3384 13.8143Z" fill="#3B3B3A"/>
<mask id="path-137-outside-1_3424_542" maskUnits="userSpaceOnUse" x="94.7893" y="16.6288" width="46" height="7" fill="black">
<rect fill="white" x="94.7893" y="16.6288" width="46" height="7"/>
<path d="M139.789 17.6289L139.789 22.5327L95.6547 22.5327L95.6547 17.6288L139.789 17.6289Z"/>
</mask>
<path d="M139.789 17.6289L139.789 22.5327L95.6547 22.5327L95.6547 17.6288L139.789 17.6289Z" fill="#8D8F81"/>
<path d="M139.789 17.6289L140.77 17.6289L140.77 17.4327L139.789 17.4327L139.789 17.6289ZM139.789 22.5327L139.789 22.7289L140.77 22.7289L140.77 22.5327L139.789 22.5327ZM95.6547 22.5327L95.4586 22.5327L95.4586 22.7288L95.6547 22.7289L95.6547 22.5327ZM95.6547 17.6288L95.6547 17.4327L95.4586 17.4327L95.4586 17.6288L95.6547 17.6288ZM139.789 17.6289L138.809 17.6289L138.809 22.5327L139.789 22.5327L140.77 22.5327L140.77 17.6289L139.789 17.6289ZM139.789 22.5327L139.789 22.3365L95.6547 22.3365L95.6547 22.5327L95.6547 22.7289L139.789 22.7289L139.789 22.5327ZM95.6547 22.5327L95.8509 22.5327L95.8509 17.6288L95.6547 17.6288L95.4586 17.6288L95.4586 22.5327L95.6547 22.5327ZM95.6547 17.6288L95.6547 17.825L139.789 17.825L139.789 17.6289L139.789 17.4327L95.6547 17.4327L95.6547 17.6288Z" fill="black" mask="url(#path-137-outside-1_3424_542)"/>
<mask id="path-139-outside-2_3424_542" maskUnits="userSpaceOnUse" x="112.595" y="18.0822" width="27" height="4" fill="black">
<rect fill="white" x="112.595" y="18.0822" width="27" height="4"/>
<path d="M113.72 19.1288C113.915 19.0675 114.206 19.0843 114.443 19.0843C114.387 19.4649 114.474 20.8246 114.38 21.0364C114.146 21.0942 113.893 21.0776 113.633 21.0757C113.559 20.7895 113.596 19.3892 113.72 19.1288Z"/>
<path d="M115.561 19.1288C115.756 19.0675 116.047 19.0843 116.284 19.0843C116.228 19.4649 116.315 20.8246 116.221 21.0364C115.988 21.0942 115.734 21.0776 115.474 21.0757C115.401 20.7895 115.437 19.3891 115.561 19.1288Z"/>
<path d="M117.402 19.1288C117.597 19.0675 117.888 19.0843 118.125 19.0843C118.069 19.4649 118.157 20.8246 118.063 21.0364C117.829 21.0943 117.575 21.0776 117.315 21.0757C117.241 20.7895 117.278 19.3892 117.402 19.1288Z"/>
<path d="M119.244 19.1288C119.438 19.0675 119.73 19.0843 119.967 19.0843C119.911 19.4649 119.998 20.8246 119.903 21.0364C119.67 21.0942 119.416 21.0776 119.156 21.0757C119.083 20.7895 119.12 19.3892 119.244 19.1288Z"/>
<path d="M121.085 19.1288C121.28 19.0675 121.571 19.0843 121.807 19.0843C121.751 19.4649 121.839 20.8246 121.745 21.0364C121.511 21.0942 121.258 21.0776 120.997 21.0757C120.924 20.7895 120.961 19.3891 121.085 19.1288Z"/>
<path d="M122.926 19.1288C123.121 19.0675 123.412 19.0843 123.649 19.0843C123.593 19.4649 123.68 20.8246 123.586 21.0364C123.353 21.0943 123.098 21.0776 122.838 21.0757C122.765 20.7895 122.802 19.3892 122.926 19.1288Z"/>
<path d="M124.767 19.1288C124.962 19.0675 125.253 19.0843 125.49 19.0843C125.434 19.4649 125.521 20.8246 125.427 21.0364C125.193 21.0942 124.94 21.0776 124.68 21.0757C124.606 20.7895 124.643 19.3892 124.767 19.1288Z"/>
<path d="M126.609 19.1288C126.803 19.0675 127.094 19.0843 127.331 19.0843C127.275 19.4649 127.363 20.8246 127.268 21.0364C127.035 21.0942 126.781 21.0776 126.521 21.0757C126.448 20.7895 126.485 19.3891 126.609 19.1288Z"/>
<path d="M128.449 19.1288C128.644 19.0675 128.936 19.0843 129.172 19.0843C129.116 19.4649 129.204 20.8246 129.11 21.0364C128.876 21.0943 128.622 21.0776 128.362 21.0757C128.288 20.7895 128.325 19.3892 128.449 19.1288Z"/>
<path d="M130.291 19.1288C130.486 19.0675 130.777 19.0843 131.014 19.0843C130.958 19.4649 131.045 20.8246 130.95 21.0364C130.717 21.0942 130.463 21.0776 130.203 21.0757C130.13 20.7895 130.167 19.3892 130.291 19.1288Z"/>
<path d="M132.132 19.1288C132.327 19.0675 132.618 19.0843 132.855 19.0843C132.798 19.4649 132.886 20.8246 132.792 21.0364C132.558 21.0942 132.305 21.0777 132.045 21.0757C131.971 20.7896 132.008 19.389 132.132 19.1288Z"/>
<path d="M133.973 19.1288C134.168 19.0675 134.459 19.0843 134.696 19.0843C134.64 19.4649 134.728 20.8246 134.633 21.0364C134.4 21.0943 134.145 21.0776 133.885 21.0757C133.812 20.7895 133.849 19.3892 133.973 19.1288Z"/>
<path d="M135.814 19.1288C136.009 19.0675 136.301 19.0843 136.537 19.0843C136.481 19.4649 136.568 20.8246 136.474 21.0364C136.241 21.0942 135.987 21.0776 135.727 21.0757C135.653 20.7895 135.69 19.3892 135.814 19.1288Z"/>
<path d="M137.656 19.1288C137.85 19.0675 138.141 19.0843 138.378 19.0843C138.322 19.4649 138.41 20.8246 138.315 21.0364C138.082 21.0942 137.828 21.0777 137.568 21.0757C137.495 20.7896 137.532 19.389 137.656 19.1288Z"/>
<path d="M114.714 19.4454C114.867 19.3865 114.939 19.4101 115.168 19.4101C115.16 19.7375 115.288 20.4191 115.073 20.6949C115.039 20.7375 114.81 20.7448 114.697 20.756C114.69 20.3506 114.657 19.8415 114.714 19.4454Z"/>
<path d="M116.554 19.4454C116.707 19.3864 116.78 19.4101 117.01 19.4101C117.001 19.7375 117.128 20.4191 116.913 20.6949C116.88 20.7375 116.651 20.7448 116.538 20.756C116.531 20.3506 116.497 19.8415 116.554 19.4454Z"/>
<path d="M118.396 19.4454C118.549 19.3865 118.621 19.4101 118.85 19.4101C118.842 19.7375 118.97 20.4191 118.755 20.6949C118.721 20.7375 118.492 20.7448 118.379 20.756C118.372 20.3506 118.339 19.8415 118.396 19.4454Z"/>
<path d="M120.237 19.4454C120.39 19.3865 120.462 19.4101 120.692 19.4101C120.683 19.7375 120.811 20.4191 120.596 20.6949C120.563 20.7375 120.334 20.7448 120.221 20.756C120.214 20.3506 120.18 19.8415 120.237 19.4454Z"/>
<path d="M122.078 19.4454C122.231 19.3864 122.303 19.4101 122.533 19.4101C122.525 19.7375 122.652 20.4191 122.437 20.6949C122.403 20.7375 122.175 20.7448 122.061 20.756C122.054 20.3506 122.021 19.8415 122.078 19.4454Z"/>
<path d="M123.919 19.4454C124.072 19.3865 124.144 19.4101 124.374 19.4101C124.365 19.7375 124.493 20.4191 124.278 20.6949C124.245 20.7375 124.016 20.7448 123.903 20.756C123.896 20.3506 123.862 19.8415 123.919 19.4454Z"/>
<path d="M125.761 19.4454C125.914 19.3865 125.986 19.4101 126.215 19.4101C126.207 19.7375 126.335 20.4191 126.12 20.6949C126.086 20.7375 125.858 20.7448 125.744 20.756C125.737 20.3506 125.704 19.8415 125.761 19.4454Z"/>
<path d="M127.601 19.4454C127.754 19.3864 127.827 19.4101 128.057 19.4101C128.048 19.7375 128.176 20.4191 127.961 20.6949C127.927 20.7375 127.698 20.7448 127.585 20.756C127.578 20.3506 127.545 19.8415 127.601 19.4454Z"/>
<path d="M129.443 19.4454C129.596 19.3865 129.668 19.4101 129.897 19.4101C129.889 19.7375 130.017 20.4191 129.802 20.6949C129.768 20.7375 129.54 20.7448 129.426 20.756C129.419 20.3506 129.386 19.8415 129.443 19.4454Z"/>
<path d="M131.284 19.4454C131.437 19.3865 131.509 19.4101 131.739 19.4101C131.73 19.7375 131.858 20.4191 131.643 20.6949C131.61 20.7375 131.381 20.7448 131.268 20.756C131.261 20.3506 131.227 19.8415 131.284 19.4454Z"/>
<path d="M133.125 19.4454C133.278 19.3864 133.35 19.4101 133.58 19.4101C133.572 19.7375 133.699 20.4191 133.484 20.6949C133.45 20.7375 133.222 20.7448 133.109 20.756C133.101 20.3506 133.068 19.8415 133.125 19.4454Z"/>
<path d="M134.966 19.4454C135.119 19.3865 135.191 19.4101 135.421 19.4101C135.412 19.7375 135.54 20.4191 135.326 20.6949C135.292 20.7375 135.063 20.7448 134.95 20.756C134.943 20.3506 134.91 19.8415 134.966 19.4454Z"/>
<path d="M136.808 19.4454C136.961 19.3866 137.033 19.4101 137.262 19.4101C137.254 19.7375 137.382 20.4191 137.167 20.6949C137.134 20.7375 136.905 20.7448 136.791 20.756C136.784 20.3506 136.751 19.8415 136.808 19.4454Z"/>
<path d="M138.648 19.4454C138.802 19.3864 138.874 19.4101 139.104 19.4101C139.095 19.7375 139.223 20.4191 139.008 20.6949C138.974 20.7375 138.745 20.7448 138.632 20.756C138.625 20.3506 138.592 19.8415 138.648 19.4454Z"/>
</mask>
<path d="M113.72 19.1288C113.915 19.0675 114.206 19.0843 114.443 19.0843C114.387 19.4649 114.474 20.8246 114.38 21.0364C114.146 21.0942 113.893 21.0776 113.633 21.0757C113.559 20.7895 113.596 19.3892 113.72 19.1288Z" fill="#696C63"/>
<path d="M115.561 19.1288C115.756 19.0675 116.047 19.0843 116.284 19.0843C116.228 19.4649 116.315 20.8246 116.221 21.0364C115.988 21.0942 115.734 21.0776 115.474 21.0757C115.401 20.7895 115.437 19.3891 115.561 19.1288Z" fill="#696C63"/>
<path d="M117.402 19.1288C117.597 19.0675 117.888 19.0843 118.125 19.0843C118.069 19.4649 118.157 20.8246 118.063 21.0364C117.829 21.0943 117.575 21.0776 117.315 21.0757C117.241 20.7895 117.278 19.3892 117.402 19.1288Z" fill="#696C63"/>
<path d="M119.244 19.1288C119.438 19.0675 119.73 19.0843 119.967 19.0843C119.911 19.4649 119.998 20.8246 119.903 21.0364C119.67 21.0942 119.416 21.0776 119.156 21.0757C119.083 20.7895 119.12 19.3892 119.244 19.1288Z" fill="#696C63"/>
<path d="M121.085 19.1288C121.28 19.0675 121.571 19.0843 121.807 19.0843C121.751 19.4649 121.839 20.8246 121.745 21.0364C121.511 21.0942 121.258 21.0776 120.997 21.0757C120.924 20.7895 120.961 19.3891 121.085 19.1288Z" fill="#696C63"/>
<path d="M122.926 19.1288C123.121 19.0675 123.412 19.0843 123.649 19.0843C123.593 19.4649 123.68 20.8246 123.586 21.0364C123.353 21.0943 123.098 21.0776 122.838 21.0757C122.765 20.7895 122.802 19.3892 122.926 19.1288Z" fill="#696C63"/>
<path d="M124.767 19.1288C124.962 19.0675 125.253 19.0843 125.49 19.0843C125.434 19.4649 125.521 20.8246 125.427 21.0364C125.193 21.0942 124.94 21.0776 124.68 21.0757C124.606 20.7895 124.643 19.3892 124.767 19.1288Z" fill="#696C63"/>
<path d="M126.609 19.1288C126.803 19.0675 127.094 19.0843 127.331 19.0843C127.275 19.4649 127.363 20.8246 127.268 21.0364C127.035 21.0942 126.781 21.0776 126.521 21.0757C126.448 20.7895 126.485 19.3891 126.609 19.1288Z" fill="#696C63"/>
<path d="M128.449 19.1288C128.644 19.0675 128.936 19.0843 129.172 19.0843C129.116 19.4649 129.204 20.8246 129.11 21.0364C128.876 21.0943 128.622 21.0776 128.362 21.0757C128.288 20.7895 128.325 19.3892 128.449 19.1288Z" fill="#696C63"/>
<path d="M130.291 19.1288C130.486 19.0675 130.777 19.0843 131.014 19.0843C130.958 19.4649 131.045 20.8246 130.95 21.0364C130.717 21.0942 130.463 21.0776 130.203 21.0757C130.13 20.7895 130.167 19.3892 130.291 19.1288Z" fill="#696C63"/>
<path d="M132.132 19.1288C132.327 19.0675 132.618 19.0843 132.855 19.0843C132.798 19.4649 132.886 20.8246 132.792 21.0364C132.558 21.0942 132.305 21.0777 132.045 21.0757C131.971 20.7896 132.008 19.389 132.132 19.1288Z" fill="#696C63"/>
<path d="M133.973 19.1288C134.168 19.0675 134.459 19.0843 134.696 19.0843C134.64 19.4649 134.728 20.8246 134.633 21.0364C134.4 21.0943 134.145 21.0776 133.885 21.0757C133.812 20.7895 133.849 19.3892 133.973 19.1288Z" fill="#696C63"/>
<path d="M135.814 19.1288C136.009 19.0675 136.301 19.0843 136.537 19.0843C136.481 19.4649 136.568 20.8246 136.474 21.0364C136.241 21.0942 135.987 21.0776 135.727 21.0757C135.653 20.7895 135.69 19.3892 135.814 19.1288Z" fill="#696C63"/>
<path d="M137.656 19.1288C137.85 19.0675 138.141 19.0843 138.378 19.0843C138.322 19.4649 138.41 20.8246 138.315 21.0364C138.082 21.0942 137.828 21.0777 137.568 21.0757C137.495 20.7896 137.532 19.389 137.656 19.1288Z" fill="#696C63"/>
<path d="M114.714 19.4454C114.867 19.3865 114.939 19.4101 115.168 19.4101C115.16 19.7375 115.288 20.4191 115.073 20.6949C115.039 20.7375 114.81 20.7448 114.697 20.756C114.69 20.3506 114.657 19.8415 114.714 19.4454Z" fill="#696C63"/>
<path d="M116.554 19.4454C116.707 19.3864 116.78 19.4101 117.01 19.4101C117.001 19.7375 117.128 20.4191 116.913 20.6949C116.88 20.7375 116.651 20.7448 116.538 20.756C116.531 20.3506 116.497 19.8415 116.554 19.4454Z" fill="#696C63"/>
<path d="M118.396 19.4454C118.549 19.3865 118.621 19.4101 118.85 19.4101C118.842 19.7375 118.97 20.4191 118.755 20.6949C118.721 20.7375 118.492 20.7448 118.379 20.756C118.372 20.3506 118.339 19.8415 118.396 19.4454Z" fill="#696C63"/>
<path d="M120.237 19.4454C120.39 19.3865 120.462 19.4101 120.692 19.4101C120.683 19.7375 120.811 20.4191 120.596 20.6949C120.563 20.7375 120.334 20.7448 120.221 20.756C120.214 20.3506 120.18 19.8415 120.237 19.4454Z" fill="#696C63"/>
<path d="M122.078 19.4454C122.231 19.3864 122.303 19.4101 122.533 19.4101C122.525 19.7375 122.652 20.4191 122.437 20.6949C122.403 20.7375 122.175 20.7448 122.061 20.756C122.054 20.3506 122.021 19.8415 122.078 19.4454Z" fill="#696C63"/>
<path d="M123.919 19.4454C124.072 19.3865 124.144 19.4101 124.374 19.4101C124.365 19.7375 124.493 20.4191 124.278 20.6949C124.245 20.7375 124.016 20.7448 123.903 20.756C123.896 20.3506 123.862 19.8415 123.919 19.4454Z" fill="#696C63"/>
<path d="M125.761 19.4454C125.914 19.3865 125.986 19.4101 126.215 19.4101C126.207 19.7375 126.335 20.4191 126.12 20.6949C126.086 20.7375 125.858 20.7448 125.744 20.756C125.737 20.3506 125.704 19.8415 125.761 19.4454Z" fill="#696C63"/>
<path d="M127.601 19.4454C127.754 19.3864 127.827 19.4101 128.057 19.4101C128.048 19.7375 128.176 20.4191 127.961 20.6949C127.927 20.7375 127.698 20.7448 127.585 20.756C127.578 20.3506 127.545 19.8415 127.601 19.4454Z" fill="#696C63"/>
<path d="M129.443 19.4454C129.596 19.3865 129.668 19.4101 129.897 19.4101C129.889 19.7375 130.017 20.4191 129.802 20.6949C129.768 20.7375 129.54 20.7448 129.426 20.756C129.419 20.3506 129.386 19.8415 129.443 19.4454Z" fill="#696C63"/>
<path d="M131.284 19.4454C131.437 19.3865 131.509 19.4101 131.739 19.4101C131.73 19.7375 131.858 20.4191 131.643 20.6949C131.61 20.7375 131.381 20.7448 131.268 20.756C131.261 20.3506 131.227 19.8415 131.284 19.4454Z" fill="#696C63"/>
<path d="M133.125 19.4454C133.278 19.3864 133.35 19.4101 133.58 19.4101C133.572 19.7375 133.699 20.4191 133.484 20.6949C133.45 20.7375 133.222 20.7448 133.109 20.756C133.101 20.3506 133.068 19.8415 133.125 19.4454Z" fill="#696C63"/>
<path d="M134.966 19.4454C135.119 19.3865 135.191 19.4101 135.421 19.4101C135.412 19.7375 135.54 20.4191 135.326 20.6949C135.292 20.7375 135.063 20.7448 134.95 20.756C134.943 20.3506 134.91 19.8415 134.966 19.4454Z" fill="#696C63"/>
<path d="M136.808 19.4454C136.961 19.3866 137.033 19.4101 137.262 19.4101C137.254 19.7375 137.382 20.4191 137.167 20.6949C137.134 20.7375 136.905 20.7448 136.791 20.756C136.784 20.3506 136.751 19.8415 136.808 19.4454Z" fill="#696C63"/>
<path d="M138.648 19.4454C138.802 19.3864 138.874 19.4101 139.104 19.4101C139.095 19.7375 139.223 20.4191 139.008 20.6949C138.974 20.7375 138.745 20.7448 138.632 20.756C138.625 20.3506 138.592 19.8415 138.648 19.4454Z" fill="#696C63"/>
<path d="M113.72 19.1288C113.915 19.0675 114.206 19.0843 114.443 19.0843C114.387 19.4649 114.474 20.8246 114.38 21.0364C114.146 21.0942 113.893 21.0776 113.633 21.0757C113.559 20.7895 113.596 19.3892 113.72 19.1288Z" stroke="black" stroke-width="0.4" mask="url(#path-139-outside-2_3424_542)"/>
<path d="M115.561 19.1288C115.756 19.0675 116.047 19.0843 116.284 19.0843C116.228 19.4649 116.315 20.8246 116.221 21.0364C115.988 21.0942 115.734 21.0776 115.474 21.0757C115.401 20.7895 115.437 19.3891 115.561 19.1288Z" stroke="black" stroke-width="0.4" mask="url(#path-139-outside-2_3424_542)"/>
<path d="M117.402 19.1288C117.597 19.0675 117.888 19.0843 118.125 19.0843C118.069 19.4649 118.157 20.8246 118.063 21.0364C117.829 21.0943 117.575 21.0776 117.315 21.0757C117.241 20.7895 117.278 19.3892 117.402 19.1288Z" stroke="black" stroke-width="0.4" mask="url(#path-139-outside-2_3424_542)"/>
<path d="M119.244 19.1288C119.438 19.0675 119.73 19.0843 119.967 19.0843C119.911 19.4649 119.998 20.8246 119.903 21.0364C119.67 21.0942 119.416 21.0776 119.156 21.0757C119.083 20.7895 119.12 19.3892 119.244 19.1288Z" stroke="black" stroke-width="0.4" mask="url(#path-139-outside-2_3424_542)"/>
<path d="M121.085 19.1288C121.28 19.0675 121.571 19.0843 121.807 19.0843C121.751 19.4649 121.839 20.8246 121.745 21.0364C121.511 21.0942 121.258 21.0776 120.997 21.0757C120.924 20.7895 120.961 19.3891 121.085 19.1288Z" stroke="black" stroke-width="0.4" mask="url(#path-139-outside-2_3424_542)"/>
<path d="M122.926 19.1288C123.121 19.0675 123.412 19.0843 123.649 19.0843C123.593 19.4649 123.68 20.8246 123.586 21.0364C123.353 21.0943 123.098 21.0776 122.838 21.0757C122.765 20.7895 122.802 19.3892 122.926 19.1288Z" stroke="black" stroke-width="0.4" mask="url(#path-139-outside-2_3424_542)"/>
<path d="M124.767 19.1288C124.962 19.0675 125.253 19.0843 125.49 19.0843C125.434 19.4649 125.521 20.8246 125.427 21.0364C125.193 21.0942 124.94 21.0776 124.68 21.0757C124.606 20.7895 124.643 19.3892 124.767 19.1288Z" stroke="black" stroke-width="0.4" mask="url(#path-139-outside-2_3424_542)"/>
<path d="M126.609 19.1288C126.803 19.0675 127.094 19.0843 127.331 19.0843C127.275 19.4649 127.363 20.8246 127.268 21.0364C127.035 21.0942 126.781 21.0776 126.521 21.0757C126.448 20.7895 126.485 19.3891 126.609 19.1288Z" stroke="black" stroke-width="0.4" mask="url(#path-139-outside-2_3424_542)"/>
<path d="M128.449 19.1288C128.644 19.0675 128.936 19.0843 129.172 19.0843C129.116 19.4649 129.204 20.8246 129.11 21.0364C128.876 21.0943 128.622 21.0776 128.362 21.0757C128.288 20.7895 128.325 19.3892 128.449 19.1288Z" stroke="black" stroke-width="0.4" mask="url(#path-139-outside-2_3424_542)"/>
<path d="M130.291 19.1288C130.486 19.0675 130.777 19.0843 131.014 19.0843C130.958 19.4649 131.045 20.8246 130.95 21.0364C130.717 21.0942 130.463 21.0776 130.203 21.0757C130.13 20.7895 130.167 19.3892 130.291 19.1288Z" stroke="black" stroke-width="0.4" mask="url(#path-139-outside-2_3424_542)"/>
<path d="M132.132 19.1288C132.327 19.0675 132.618 19.0843 132.855 19.0843C132.798 19.4649 132.886 20.8246 132.792 21.0364C132.558 21.0942 132.305 21.0777 132.045 21.0757C131.971 20.7896 132.008 19.389 132.132 19.1288Z" stroke="black" stroke-width="0.4" mask="url(#path-139-outside-2_3424_542)"/>
<path d="M133.973 19.1288C134.168 19.0675 134.459 19.0843 134.696 19.0843C134.64 19.4649 134.728 20.8246 134.633 21.0364C134.4 21.0943 134.145 21.0776 133.885 21.0757C133.812 20.7895 133.849 19.3892 133.973 19.1288Z" stroke="black" stroke-width="0.4" mask="url(#path-139-outside-2_3424_542)"/>
<path d="M135.814 19.1288C136.009 19.0675 136.301 19.0843 136.537 19.0843C136.481 19.4649 136.568 20.8246 136.474 21.0364C136.241 21.0942 135.987 21.0776 135.727 21.0757C135.653 20.7895 135.69 19.3892 135.814 19.1288Z" stroke="black" stroke-width="0.4" mask="url(#path-139-outside-2_3424_542)"/>
<path d="M137.656 19.1288C137.85 19.0675 138.141 19.0843 138.378 19.0843C138.322 19.4649 138.41 20.8246 138.315 21.0364C138.082 21.0942 137.828 21.0777 137.568 21.0757C137.495 20.7896 137.532 19.389 137.656 19.1288Z" stroke="black" stroke-width="0.4" mask="url(#path-139-outside-2_3424_542)"/>
<path d="M114.714 19.4454C114.867 19.3865 114.939 19.4101 115.168 19.4101C115.16 19.7375 115.288 20.4191 115.073 20.6949C115.039 20.7375 114.81 20.7448 114.697 20.756C114.69 20.3506 114.657 19.8415 114.714 19.4454Z" stroke="black" stroke-width="0.4" mask="url(#path-139-outside-2_3424_542)"/>
<path d="M116.554 19.4454C116.707 19.3864 116.78 19.4101 117.01 19.4101C117.001 19.7375 117.128 20.4191 116.913 20.6949C116.88 20.7375 116.651 20.7448 116.538 20.756C116.531 20.3506 116.497 19.8415 116.554 19.4454Z" stroke="black" stroke-width="0.4" mask="url(#path-139-outside-2_3424_542)"/>
<path d="M118.396 19.4454C118.549 19.3865 118.621 19.4101 118.85 19.4101C118.842 19.7375 118.97 20.4191 118.755 20.6949C118.721 20.7375 118.492 20.7448 118.379 20.756C118.372 20.3506 118.339 19.8415 118.396 19.4454Z" stroke="black" stroke-width="0.4" mask="url(#path-139-outside-2_3424_542)"/>
<path d="M120.237 19.4454C120.39 19.3865 120.462 19.4101 120.692 19.4101C120.683 19.7375 120.811 20.4191 120.596 20.6949C120.563 20.7375 120.334 20.7448 120.221 20.756C120.214 20.3506 120.18 19.8415 120.237 19.4454Z" stroke="black" stroke-width="0.4" mask="url(#path-139-outside-2_3424_542)"/>
<path d="M122.078 19.4454C122.231 19.3864 122.303 19.4101 122.533 19.4101C122.525 19.7375 122.652 20.4191 122.437 20.6949C122.403 20.7375 122.175 20.7448 122.061 20.756C122.054 20.3506 122.021 19.8415 122.078 19.4454Z" stroke="black" stroke-width="0.4" mask="url(#path-139-outside-2_3424_542)"/>
<path d="M123.919 19.4454C124.072 19.3865 124.144 19.4101 124.374 19.4101C124.365 19.7375 124.493 20.4191 124.278 20.6949C124.245 20.7375 124.016 20.7448 123.903 20.756C123.896 20.3506 123.862 19.8415 123.919 19.4454Z" stroke="black" stroke-width="0.4" mask="url(#path-139-outside-2_3424_542)"/>
<path d="M125.761 19.4454C125.914 19.3865 125.986 19.4101 126.215 19.4101C126.207 19.7375 126.335 20.4191 126.12 20.6949C126.086 20.7375 125.858 20.7448 125.744 20.756C125.737 20.3506 125.704 19.8415 125.761 19.4454Z" stroke="black" stroke-width="0.4" mask="url(#path-139-outside-2_3424_542)"/>
<path d="M127.601 19.4454C127.754 19.3864 127.827 19.4101 128.057 19.4101C128.048 19.7375 128.176 20.4191 127.961 20.6949C127.927 20.7375 127.698 20.7448 127.585 20.756C127.578 20.3506 127.545 19.8415 127.601 19.4454Z" stroke="black" stroke-width="0.4" mask="url(#path-139-outside-2_3424_542)"/>
<path d="M129.443 19.4454C129.596 19.3865 129.668 19.4101 129.897 19.4101C129.889 19.7375 130.017 20.4191 129.802 20.6949C129.768 20.7375 129.54 20.7448 129.426 20.756C129.419 20.3506 129.386 19.8415 129.443 19.4454Z" stroke="black" stroke-width="0.4" mask="url(#path-139-outside-2_3424_542)"/>
<path d="M131.284 19.4454C131.437 19.3865 131.509 19.4101 131.739 19.4101C131.73 19.7375 131.858 20.4191 131.643 20.6949C131.61 20.7375 131.381 20.7448 131.268 20.756C131.261 20.3506 131.227 19.8415 131.284 19.4454Z" stroke="black" stroke-width="0.4" mask="url(#path-139-outside-2_3424_542)"/>
<path d="M133.125 19.4454C133.278 19.3864 133.35 19.4101 133.58 19.4101C133.572 19.7375 133.699 20.4191 133.484 20.6949C133.45 20.7375 133.222 20.7448 133.109 20.756C133.101 20.3506 133.068 19.8415 133.125 19.4454Z" stroke="black" stroke-width="0.4" mask="url(#path-139-outside-2_3424_542)"/>
<path d="M134.966 19.4454C135.119 19.3865 135.191 19.4101 135.421 19.4101C135.412 19.7375 135.54 20.4191 135.326 20.6949C135.292 20.7375 135.063 20.7448 134.95 20.756C134.943 20.3506 134.91 19.8415 134.966 19.4454Z" stroke="black" stroke-width="0.4" mask="url(#path-139-outside-2_3424_542)"/>
<path d="M136.808 19.4454C136.961 19.3866 137.033 19.4101 137.262 19.4101C137.254 19.7375 137.382 20.4191 137.167 20.6949C137.134 20.7375 136.905 20.7448 136.791 20.756C136.784 20.3506 136.751 19.8415 136.808 19.4454Z" stroke="black" stroke-width="0.4" mask="url(#path-139-outside-2_3424_542)"/>
<path d="M138.648 19.4454C138.802 19.3864 138.874 19.4101 139.104 19.4101C139.095 19.7375 139.223 20.4191 139.008 20.6949C138.974 20.7375 138.745 20.7448 138.632 20.756C138.625 20.3506 138.592 19.8415 138.648 19.4454Z" stroke="black" stroke-width="0.4" mask="url(#path-139-outside-2_3424_542)"/>
<path d="M97.9141 18.9845H98.0303L98.0127 19.0988C97.9998 19.1859 97.9953 19.3355 97.9941 19.5206C97.993 19.704 97.9955 19.9153 97.9971 20.1232C97.9986 20.33 97.9992 20.5338 97.9932 20.6994C97.9902 20.7821 97.9857 20.8572 97.9785 20.9191C97.9717 20.9776 97.9619 21.0356 97.9434 21.0773L97.9229 21.1222L97.876 21.1339C97.6267 21.1956 97.3536 21.1778 97.1025 21.1759L97.0254 21.1749L97.0068 21.1007C96.9853 21.0168 96.9736 20.8647 96.9688 20.6906C96.9638 20.5125 96.9658 20.2999 96.9736 20.089C96.9815 19.8782 96.9955 19.667 97.0156 19.4913C97.0257 19.4036 97.0373 19.3234 97.0508 19.256C97.0638 19.1906 97.0796 19.1302 97.1006 19.0861L97.1191 19.046L97.1611 19.0333C97.2723 18.9984 97.4054 18.987 97.5342 18.9835C97.6623 18.98 97.8005 18.9845 97.9141 18.9845ZM99.7559 18.9845H99.8711L99.8545 19.0988C99.8416 19.1859 99.8362 19.3355 99.835 19.5206C99.8337 19.704 99.8364 19.9153 99.8379 20.1232C99.8394 20.33 99.8401 20.5337 99.834 20.6994C99.831 20.7821 99.8265 20.8572 99.8193 20.9191C99.8125 20.9776 99.8017 21.0356 99.7832 21.0773L99.7637 21.1222L99.7158 21.1339C99.4668 21.1954 99.1951 21.1778 98.9443 21.1759L98.8672 21.1749L98.8477 21.1007C98.8261 21.0168 98.8154 20.8647 98.8105 20.6906C98.8056 20.5125 98.8066 20.2999 98.8145 20.089C98.8223 19.8782 98.8363 19.667 98.8564 19.4913C98.8665 19.4036 98.8782 19.3234 98.8916 19.256C98.9047 19.1906 98.9214 19.1303 98.9424 19.0861L98.9609 19.046L99.002 19.0333C99.1132 18.9984 99.2471 18.987 99.376 18.9835C99.5041 18.9801 99.6424 18.9845 99.7559 18.9845ZM101.597 18.9845H101.712L101.695 19.0988C101.682 19.1859 101.677 19.3355 101.676 19.5206C101.675 19.704 101.678 19.9153 101.68 20.1232C101.681 20.33 101.681 20.5338 101.675 20.6994C101.672 20.7821 101.667 20.8572 101.66 20.9191C101.653 20.9776 101.644 21.0357 101.625 21.0773L101.605 21.1222L101.558 21.1339C101.308 21.1955 101.036 21.1778 100.785 21.1759L100.709 21.1749L100.689 21.1007C100.668 21.0168 100.656 20.8647 100.651 20.6906C100.646 20.5125 100.648 20.2999 100.656 20.089C100.664 19.8782 100.678 19.667 100.698 19.4913C100.708 19.4036 100.72 19.3234 100.733 19.256C100.746 19.1907 100.762 19.1302 100.783 19.0861L100.803 19.046L100.844 19.0333C100.955 18.9984 101.088 18.9871 101.217 18.9835C101.345 18.98 101.483 18.9845 101.597 18.9845ZM103.438 18.9845H103.554L103.537 19.0988C103.524 19.1859 103.519 19.3355 103.518 19.5206C103.516 19.704 103.519 19.9153 103.521 20.1232C103.522 20.33 103.523 20.5338 103.517 20.6994C103.514 20.7821 103.509 20.8572 103.502 20.9191C103.495 20.9776 103.485 21.0356 103.467 21.0773L103.446 21.1222L103.399 21.1339C103.15 21.1956 102.877 21.1778 102.626 21.1759L102.549 21.1749L102.53 21.1007C102.509 21.0168 102.497 20.8647 102.492 20.6906C102.487 20.5125 102.489 20.2999 102.497 20.089C102.505 19.8782 102.519 19.667 102.539 19.4913C102.549 19.4036 102.561 19.3234 102.574 19.256C102.587 19.1906 102.603 19.1302 102.624 19.0861L102.643 19.046L102.685 19.0333C102.796 18.9984 102.929 18.987 103.058 18.9835C103.186 18.98 103.324 18.9845 103.438 18.9845ZM105.279 18.9845H105.396L105.378 19.0988C105.365 19.1859 105.36 19.3355 105.358 19.5206C105.357 19.704 105.36 19.9153 105.361 20.1232C105.363 20.33 105.363 20.5337 105.357 20.6994C105.354 20.7821 105.35 20.8572 105.343 20.9191C105.336 20.9776 105.325 21.0356 105.307 21.0773L105.287 21.1222L105.239 21.1339C104.99 21.1954 104.719 21.1778 104.468 21.1759L104.391 21.1749L104.372 21.1007C104.351 21.0168 104.339 20.8647 104.334 20.6906C104.329 20.5125 104.33 20.2999 104.338 20.089C104.346 19.8782 104.36 19.667 104.38 19.4913C104.39 19.4037 104.402 19.3234 104.415 19.256C104.428 19.1906 104.445 19.1302 104.466 19.0861L104.484 19.046L104.526 19.0333C104.637 18.9984 104.771 18.987 104.899 18.9835C105.028 18.9801 105.166 18.9845 105.279 18.9845ZM107.12 18.9845H107.235L107.219 19.0988C107.206 19.1859 107.2 19.3355 107.199 19.5206C107.198 19.704 107.202 19.9153 107.203 20.1232C107.205 20.33 107.205 20.5338 107.199 20.6994C107.196 20.7821 107.191 20.8572 107.184 20.9191C107.177 20.9776 107.167 21.0357 107.148 21.0773L107.129 21.1222L107.081 21.1339C106.832 21.1955 106.56 21.1778 106.31 21.1759L106.232 21.1749L106.213 21.1007C106.191 21.0168 106.18 20.8648 106.175 20.6906C106.17 20.5125 106.172 20.2999 106.18 20.089C106.188 19.8782 106.202 19.667 106.222 19.4913C106.232 19.4036 106.243 19.3234 106.257 19.256C106.27 19.1907 106.286 19.1302 106.307 19.0861L106.326 19.046L106.367 19.0333C106.478 18.9984 106.612 18.9871 106.74 18.9835C106.868 18.98 107.007 18.9845 107.12 18.9845ZM108.961 18.9845H109.077L109.061 19.0988C109.048 19.1859 109.042 19.3355 109.041 19.5206C109.04 19.704 109.042 19.9153 109.044 20.1232C109.046 20.33 109.046 20.5338 109.04 20.6994C109.037 20.7821 109.033 20.8572 109.025 20.9191C109.019 20.9776 109.009 21.0356 108.99 21.0773L108.97 21.1222L108.923 21.1339C108.674 21.1956 108.4 21.1778 108.149 21.1759L108.073 21.1749L108.054 21.1007C108.032 21.0168 108.021 20.8647 108.016 20.6906C108.011 20.5125 108.013 20.2999 108.021 20.089C108.028 19.8782 108.042 19.667 108.062 19.4913C108.073 19.4036 108.084 19.3234 108.098 19.256C108.111 19.1907 108.127 19.1302 108.147 19.0861L108.166 19.046L108.208 19.0333C108.319 18.9984 108.452 18.9871 108.581 18.9835C108.709 18.98 108.847 18.9845 108.961 18.9845ZM110.803 18.9845H110.919L110.901 19.0988C110.889 19.1859 110.884 19.3355 110.883 19.5206C110.882 19.704 110.884 19.9153 110.886 20.1232C110.887 20.33 110.887 20.5337 110.881 20.6994C110.878 20.7821 110.873 20.8572 110.866 20.9191C110.859 20.9776 110.85 21.0357 110.831 21.0773L110.811 21.1222L110.764 21.1339C110.515 21.1955 110.242 21.1778 109.991 21.1759L109.914 21.1749L109.896 21.1007C109.874 21.0168 109.862 20.8647 109.857 20.6906C109.852 20.5125 109.853 20.2999 109.861 20.089C109.869 19.8782 109.884 19.667 109.904 19.4913C109.914 19.4036 109.926 19.3234 109.939 19.256C109.953 19.1906 109.968 19.1302 109.989 19.0861L110.008 19.046L110.05 19.0333C110.161 18.9984 110.294 18.987 110.423 18.9835C110.551 18.98 110.689 18.9845 110.803 18.9845ZM112.644 18.9845H112.759L112.742 19.0988C112.729 19.1859 112.725 19.3355 112.724 19.5206C112.722 19.704 112.725 19.9153 112.727 20.1232C112.728 20.33 112.729 20.5338 112.723 20.6994C112.72 20.7821 112.714 20.8572 112.707 20.9191C112.7 20.9776 112.69 21.0357 112.672 21.0773L112.652 21.1222L112.604 21.1339C112.356 21.1955 112.084 21.1778 111.833 21.1759L111.756 21.1749L111.736 21.1007C111.715 21.0168 111.703 20.8648 111.698 20.6906C111.693 20.5125 111.695 20.2999 111.703 20.089C111.711 19.8782 111.725 19.667 111.745 19.4913C111.755 19.4037 111.767 19.3234 111.78 19.256C111.793 19.1906 111.81 19.1302 111.831 19.0861L111.85 19.046L111.891 19.0333C112.002 18.9984 112.135 18.9871 112.264 18.9835C112.392 18.98 112.53 18.9845 112.644 18.9845ZM96.7988 19.3097H96.9014L96.8984 19.4122C96.8965 19.4886 96.9027 19.5879 96.9102 19.7033C96.9175 19.8168 96.9257 19.9446 96.9277 20.0704C96.9297 20.196 96.9252 20.3241 96.9053 20.4406C96.8856 20.5559 96.8493 20.6685 96.7812 20.756L96.7803 20.757C96.7611 20.7811 96.7367 20.7943 96.7217 20.8009C96.7046 20.8085 96.686 20.8134 96.6689 20.8175C96.6348 20.8259 96.5947 20.8326 96.5557 20.837C96.484 20.8452 96.3822 20.8511 96.3369 20.8556L96.2285 20.8663L96.2266 20.7579C96.2195 20.361 96.1859 19.8374 96.2441 19.4308L96.252 19.3732L96.3066 19.3517C96.4828 19.2839 96.5882 19.3097 96.7988 19.3097ZM98.6387 19.3097H98.7412L98.7393 19.4122C98.7373 19.4885 98.7434 19.5879 98.751 19.7033C98.7584 19.8168 98.7664 19.9446 98.7686 20.0704C98.7706 20.1959 98.7669 20.3241 98.7471 20.4406C98.7275 20.5558 98.691 20.6685 98.623 20.756L98.6221 20.757C98.603 20.7811 98.5786 20.7942 98.5635 20.8009C98.5464 20.8085 98.5277 20.8134 98.5107 20.8175C98.4767 20.8259 98.4364 20.8326 98.3975 20.837C98.3257 20.8452 98.2228 20.8511 98.1777 20.8556L98.0703 20.8663L98.0684 20.7579C98.0613 20.361 98.0277 19.8374 98.0859 19.4308L98.0938 19.3732L98.1484 19.3517C98.3243 19.284 98.4285 19.3097 98.6387 19.3097ZM100.48 19.3097H100.583L100.58 19.4122C100.578 19.4885 100.584 19.5879 100.592 19.7033C100.599 19.8168 100.608 19.9446 100.61 20.0704C100.612 20.196 100.608 20.3241 100.588 20.4406C100.568 20.556 100.532 20.6685 100.464 20.756V20.757C100.445 20.7813 100.419 20.7942 100.404 20.8009C100.387 20.8084 100.369 20.8134 100.353 20.8175C100.318 20.8259 100.277 20.8326 100.238 20.837C100.167 20.8451 100.065 20.8511 100.02 20.8556L99.9111 20.8663L99.9102 20.7579C99.9031 20.361 99.8685 19.8374 99.9268 19.4308L99.9355 19.3732L99.9902 19.3517C100.166 19.2842 100.27 19.3097 100.48 19.3097ZM102.322 19.3097H102.425L102.422 19.4122C102.42 19.4886 102.426 19.5879 102.434 19.7033C102.441 19.8168 102.449 19.9446 102.451 20.0704C102.453 20.196 102.449 20.3241 102.429 20.4406C102.409 20.5559 102.373 20.6685 102.305 20.756V20.757C102.286 20.7812 102.26 20.7942 102.245 20.8009C102.228 20.8085 102.209 20.8134 102.192 20.8175C102.158 20.8259 102.118 20.8326 102.079 20.837C102.007 20.8452 101.906 20.8511 101.86 20.8556L101.752 20.8663L101.75 20.7579C101.743 20.361 101.709 19.8374 101.768 19.4308L101.776 19.3732L101.831 19.3517C102.007 19.2841 102.112 19.3097 102.322 19.3097ZM104.162 19.3097H104.266L104.263 19.4122C104.261 19.4885 104.267 19.5879 104.274 19.7033C104.282 19.8168 104.29 19.9446 104.292 20.0704C104.294 20.196 104.29 20.3241 104.271 20.4406C104.251 20.5558 104.214 20.6685 104.146 20.756L104.146 20.757C104.126 20.7811 104.102 20.7942 104.087 20.8009C104.07 20.8085 104.051 20.8134 104.034 20.8175C104 20.8259 103.96 20.8326 103.921 20.837C103.849 20.8452 103.746 20.8511 103.701 20.8556L103.594 20.8663L103.592 20.7579C103.585 20.361 103.551 19.8374 103.609 19.4308L103.617 19.3732L103.672 19.3517C103.848 19.284 103.952 19.3096 104.162 19.3097ZM106.004 19.3097H106.106L106.104 19.4122C106.102 19.4885 106.108 19.5879 106.115 19.7033C106.123 19.8168 106.132 19.9446 106.134 20.0704C106.136 20.196 106.131 20.3241 106.111 20.4406C106.092 20.556 106.055 20.6685 105.987 20.756V20.757C105.968 20.7811 105.944 20.7942 105.929 20.8009C105.912 20.8085 105.893 20.8134 105.876 20.8175C105.842 20.8259 105.801 20.8326 105.762 20.837C105.69 20.8451 105.588 20.8511 105.543 20.8556L105.436 20.8663L105.434 20.7579C105.427 20.361 105.392 19.8374 105.45 19.4308L105.459 19.3732L105.514 19.3517C105.689 19.2841 105.794 19.3097 106.004 19.3097ZM107.846 19.3097H107.948L107.945 19.4122C107.943 19.4886 107.95 19.5879 107.957 19.7033C107.964 19.8168 107.973 19.9446 107.975 20.0704C107.977 20.196 107.972 20.3241 107.952 20.4406C107.932 20.5559 107.896 20.6685 107.828 20.756V20.757C107.809 20.7812 107.784 20.7942 107.769 20.8009C107.751 20.8084 107.733 20.8134 107.716 20.8175C107.682 20.8258 107.642 20.8326 107.603 20.837C107.531 20.8452 107.429 20.8511 107.384 20.8556L107.275 20.8663L107.273 20.7579C107.266 20.361 107.233 19.8374 107.291 19.4308L107.3 19.3732L107.354 19.3517C107.53 19.2841 107.635 19.3097 107.846 19.3097ZM109.687 19.3097H109.789L109.786 19.4122C109.784 19.4885 109.79 19.5879 109.798 19.7033C109.805 19.8168 109.813 19.9446 109.815 20.0704C109.818 20.196 109.814 20.3241 109.794 20.4406C109.774 20.5559 109.738 20.6685 109.67 20.756L109.669 20.757C109.65 20.7811 109.625 20.7942 109.61 20.8009C109.593 20.8085 109.575 20.8133 109.558 20.8175C109.523 20.8259 109.483 20.8326 109.444 20.837C109.373 20.8451 109.271 20.8511 109.226 20.8556L109.117 20.8663L109.115 20.7579C109.108 20.361 109.075 19.8374 109.133 19.4308L109.141 19.3732L109.195 19.3517C109.371 19.2839 109.476 19.3097 109.687 19.3097ZM111.527 19.3097H111.63L111.628 19.4122C111.626 19.4885 111.631 19.5879 111.639 19.7033C111.646 19.8168 111.655 19.9446 111.657 20.0704C111.659 20.1959 111.656 20.3241 111.636 20.4406C111.616 20.556 111.579 20.6685 111.511 20.756V20.757C111.492 20.7811 111.467 20.7942 111.452 20.8009C111.435 20.8085 111.416 20.8134 111.399 20.8175C111.365 20.8259 111.325 20.8326 111.286 20.837C111.214 20.8452 111.112 20.8511 111.066 20.8556L110.959 20.8663L110.957 20.7579C110.95 20.361 110.915 19.8374 110.974 19.4308L110.982 19.3732L111.037 19.3517C111.213 19.2841 111.317 19.3097 111.527 19.3097ZM113.369 19.3097H113.472L113.469 19.4122C113.467 19.4886 113.473 19.5879 113.48 19.7033C113.488 19.8168 113.496 19.9446 113.498 20.0704C113.5 20.196 113.495 20.3241 113.476 20.4406C113.456 20.556 113.42 20.6685 113.352 20.756V20.757C113.332 20.7812 113.307 20.7942 113.292 20.8009C113.275 20.8083 113.257 20.8134 113.24 20.8175C113.206 20.8259 113.165 20.8326 113.126 20.837C113.054 20.8452 112.952 20.8511 112.907 20.8556L112.8 20.8663L112.798 20.7579C112.791 20.361 112.756 19.8374 112.814 19.4308L112.823 19.3732L112.878 19.3517C113.054 19.284 113.159 19.3097 113.369 19.3097Z" fill="#696C63" stroke="black" stroke-width="0.2"/>
<ellipse cx="9.08488" cy="26.3214" rx="1.3488" ry="0.703719" fill="#8D8F81"/>
<path d="M140.764 17.9013L187.158 18.0507L187.475 18.995L140.764 18.8456V17.9013Z" fill="#6F6F6F"/>
<path d="M34.3758 15.8463L4.59521 16.3068L4.63364 15.2706L8.43297 14.8869L34.798 14.6566L34.3758 15.8463Z" fill="#BDBFB3"/>
<path d="M191.763 15.0689L191.192 13.9521L202.41 14.0017L203.055 15.0441L191.763 15.0689Z" fill="#6F6F6F"/>
</svg>
