<svg width="156" height="148" viewBox="0 0 156 148" fill="none" xmlns="http://www.w3.org/2000/svg">
<g clip-path="url(#clip0_184_1129)">
<path fill-rule="evenodd" clip-rule="evenodd" d="M56.0169 114.519L80.6208 91.7146L55.727 68.6411L41.9204 81.4381L48.9007 105.584" fill="#A49F98"/>
<path d="M56.0169 114.519L80.6208 91.7146L55.727 68.6411L41.9204 81.4381L48.9007 105.584" stroke="#21211C" stroke-width="2.55679" stroke-linecap="round" stroke-linejoin="round"/>
<path fill-rule="evenodd" clip-rule="evenodd" d="M48.0951 86.8654L63.8327 69.8301C82.0366 51.1493 96.8735 37.7124 120.306 15.5135C127.918 10.0752 131.819 5.05269 141.115 5.45998C144.073 6.74106 147.131 7.91274 148.725 10.6879L151.196 17.033C150.295 21.9212 149.404 24.5988 144.683 29.9416L141.339 32.6661L71.8202 95.9105L58.9281 105.039L50.8705 104.043L44.514 97.6531L43.9768 91.1805L48.0951 86.8654Z" fill="#B7B3AD" stroke="#21211C" stroke-width="1.27839" stroke-linecap="round" stroke-linejoin="round"/>
<path d="M62.0051 96.135C64.421 93.8957 64.4209 90.2652 62.005 88.0259C59.5891 85.7867 55.6722 85.7867 53.2563 88.026C50.8404 90.2652 50.8404 93.8957 53.2563 96.135C55.6722 98.3742 59.5892 98.3742 62.0051 96.135Z" fill="#343432" stroke="#201F1E" stroke-width="2.56047" stroke-linecap="round" stroke-linejoin="round"/>
<path d="M60.3701 94.6196C61.883 93.2172 61.883 90.9436 60.3701 89.5413C58.8571 88.139 56.4041 88.139 54.8912 89.5413C53.3782 90.9436 53.3782 93.2172 54.8912 94.6196C56.4041 96.0219 58.8571 96.0219 60.3701 94.6196Z" fill="#3C3C3A"/>
<path fill-rule="evenodd" clip-rule="evenodd" d="M59.4635 91.6252L59.7254 92.6007L58.9724 93.3241L58.1919 94.022L57.1394 93.7793L56.0971 93.5018L55.7976 92.5356L55.5358 91.5602L56.2888 90.8367L57.0693 90.1388L58.1217 90.3815L59.1641 90.659L59.4635 91.6252Z" fill="#979794"/>
<path fill-rule="evenodd" clip-rule="evenodd" d="M79.9092 50.9917L79.6266 46.7764L81.7078 48.8008C81.576 47.1591 82.2187 46.2849 84.0717 46.6097L86.0501 48.4435L83.8661 50.4678L79.9092 50.9917Z" fill="#594F4A" stroke="#211E1C" stroke-width="1.92036" stroke-linecap="round" stroke-linejoin="round"/>
<path d="M86.9604 45.0063L84.9049 46.9115C84.316 47.4574 84.316 48.3423 84.9049 48.8882C85.4938 49.434 86.4486 49.434 87.0375 48.8882L89.093 46.983C89.6819 46.4371 89.6819 45.5522 89.093 45.0063C88.5041 44.4605 87.5493 44.4605 86.9604 45.0063Z" fill="#605652" stroke="#211E1C" stroke-width="1.92036" stroke-linecap="round" stroke-linejoin="round"/>
<path d="M86.8096 48.6233C87.2567 48.2089 87.2567 47.5371 86.8096 47.1227C86.3625 46.7084 85.6377 46.7084 85.1907 47.1227C84.7436 47.5371 84.7436 48.2089 85.1907 48.6233C85.6377 49.0376 86.3626 49.0377 86.8096 48.6233Z" fill="#534A46"/>
<path d="M88.8073 46.7717C89.2543 46.3573 89.2543 45.6855 88.8073 45.2711C88.3602 44.8568 87.6354 44.8568 87.1884 45.2711C86.7413 45.6855 86.7413 46.3573 87.1884 46.7717C87.6354 47.186 88.3602 47.186 88.8073 46.7717Z" fill="#534A46"/>
<path d="M86.9604 45.0063L84.9049 46.9115C84.316 47.4574 84.316 48.3423 84.9049 48.8882C85.4938 49.434 86.4486 49.434 87.0375 48.8882L89.093 46.983C89.6819 46.4371 89.6819 45.5522 89.093 45.0063C88.5041 44.4605 87.5493 44.4605 86.9604 45.0063Z" stroke="#211E1C" stroke-width="1.92036" stroke-linecap="round" stroke-linejoin="round"/>
<path d="M81.6095 49.8579L79.554 51.7631C78.9651 52.3089 78.9651 53.1939 79.554 53.7397C80.1429 54.2856 81.0977 54.2856 81.6866 53.7397L83.7421 51.8345C84.331 51.2887 84.331 50.4037 83.7421 49.8579C83.1532 49.312 82.1984 49.312 81.6095 49.8579Z" fill="#605652" stroke="#211E1C" stroke-width="1.92036" stroke-linecap="round" stroke-linejoin="round"/>
<path d="M81.4585 53.475C81.9056 53.0606 81.9056 52.3888 81.4585 51.9744C81.0115 51.56 80.2867 51.56 79.8396 51.9744C79.3926 52.3888 79.3926 53.0606 79.8396 53.4749C80.2867 53.8893 81.0115 53.8893 81.4585 53.475Z" fill="#534A46"/>
<path d="M83.4563 51.6233C83.9034 51.2089 83.9034 50.5371 83.4563 50.1227C83.0093 49.7084 82.2845 49.7084 81.8374 50.1227C81.3904 50.5371 81.3904 51.2089 81.8374 51.6233C82.2845 52.0376 83.0093 52.0377 83.4563 51.6233Z" fill="#534A46"/>
<path d="M81.6095 49.8579L79.554 51.7631C78.9651 52.3089 78.9651 53.1939 79.554 53.7397C80.1429 54.2856 81.0977 54.2856 81.6866 53.7397L83.7421 51.8345C84.331 51.2887 84.331 50.4037 83.7421 49.8579C83.1532 49.312 82.1984 49.312 81.6095 49.8579Z" stroke="#211E1C" stroke-width="1.92036" stroke-linecap="round" stroke-linejoin="round"/>
<path fill-rule="evenodd" clip-rule="evenodd" d="M69.8087 61.0563L69.32 56.8573L71.4981 58.792C71.2861 57.1576 71.8854 56.2572 73.7524 56.5038L75.8185 58.2525L73.7359 60.3665L69.8087 61.0563Z" fill="#594F4A" stroke="#211E1C" stroke-width="1.92033" stroke-linecap="round" stroke-linejoin="round"/>
<path d="M76.5597 54.7805L74.5996 56.7703C74.038 57.3403 74.0813 58.2244 74.6963 58.7449C75.3114 59.2654 76.2652 59.2252 76.8267 58.6552L78.7869 56.6655C79.3485 56.0954 79.3051 55.2114 78.6901 54.6909C78.0751 54.1704 77.1213 54.2105 76.5597 54.7805Z" fill="#605652" stroke="#211E1C" stroke-width="1.92033" stroke-linecap="round" stroke-linejoin="round"/>
<path d="M76.586 58.4002C77.0123 57.9674 76.9794 57.2963 76.5126 56.9012C76.0457 56.506 75.3216 56.5365 74.8953 56.9692C74.469 57.402 74.5019 58.0731 74.9688 58.4682C75.4356 58.8634 76.1597 58.8329 76.586 58.4002Z" fill="#534A46"/>
<path d="M78.4911 56.4664C78.9174 56.0337 78.8845 55.3626 78.4176 54.9674C77.9507 54.5723 77.2266 54.6028 76.8003 55.0355C76.374 55.4683 76.4069 56.1394 76.8738 56.5345C77.3407 56.9297 78.0647 56.8992 78.4911 56.4664Z" fill="#534A46"/>
<path d="M76.5597 54.7805L74.5996 56.7703C74.038 57.3403 74.0813 58.2244 74.6963 58.7449C75.3114 59.2654 76.2652 59.2252 76.8267 58.6552L78.7869 56.6655C79.3485 56.0954 79.3051 55.2114 78.6901 54.6909C78.0751 54.1704 77.1213 54.2105 76.5597 54.7805Z" stroke="#211E1C" stroke-width="1.92033" stroke-linecap="round" stroke-linejoin="round"/>
<path d="M71.4517 59.8521L69.4915 61.8418C68.93 62.4118 68.9733 63.2959 69.5883 63.8164C70.2033 64.3369 71.1571 64.2968 71.7187 63.7267L73.6789 61.737C74.2404 61.167 74.1971 60.2829 73.5821 59.7624C72.9671 59.2419 72.0133 59.282 71.4517 59.8521Z" fill="#605652" stroke="#211E1C" stroke-width="1.92033" stroke-linecap="round" stroke-linejoin="round"/>
<path d="M71.478 63.4718C71.9043 63.039 71.8714 62.3679 71.4045 61.9728C70.9376 61.5776 70.2136 61.6081 69.7873 62.0409C69.361 62.4736 69.3939 63.1447 69.8607 63.5399C70.3276 63.935 71.0517 63.9045 71.478 63.4718Z" fill="#534A46"/>
<path d="M73.383 61.5381C73.8093 61.1053 73.7764 60.4342 73.3096 60.0391C72.8427 59.6439 72.1186 59.6744 71.6923 60.1071C71.266 60.5399 71.2989 61.211 71.7658 61.6061C72.2326 62.0013 72.9567 61.9708 73.383 61.5381Z" fill="#534A46"/>
<path d="M71.4517 59.8521L69.4915 61.8418C68.93 62.4118 68.9733 63.2959 69.5883 63.8164C70.2033 64.3369 71.1571 64.2968 71.7187 63.7267L73.6789 61.737C74.2404 61.167 74.1971 60.2829 73.5821 59.7624C72.9671 59.2419 72.0133 59.282 71.4517 59.8521Z" stroke="#211E1C" stroke-width="1.92033" stroke-linecap="round" stroke-linejoin="round"/>
<path fill-rule="evenodd" clip-rule="evenodd" d="M59.937 71.296L59.4483 67.0969L61.6264 69.0317C61.4144 67.3972 62.0137 66.4969 63.8806 66.7435L65.9468 68.4921L63.8642 70.6062L59.937 71.296Z" fill="#594F4A" stroke="#211E1C" stroke-width="1.92033" stroke-linecap="round" stroke-linejoin="round"/>
<path d="M66.688 65.0201L64.7279 67.0098C64.1663 67.5799 64.2096 68.4639 64.8246 68.9844C65.4397 69.5049 66.3935 69.4648 66.955 68.8948L68.9152 66.9051C69.4768 66.335 69.4334 65.4509 68.8184 64.9304C68.2034 64.4099 67.2496 64.4501 66.688 65.0201Z" fill="#605652" stroke="#211E1C" stroke-width="1.92033" stroke-linecap="round" stroke-linejoin="round"/>
<path d="M66.7143 68.6398C67.1406 68.207 67.1077 67.5359 66.6409 67.1408C66.174 66.7456 65.4499 66.7761 65.0236 67.2089C64.5973 67.6416 64.6302 68.3127 65.0971 68.7079C65.5639 69.103 66.288 69.0725 66.7143 68.6398Z" fill="#534A46"/>
<path d="M68.6194 66.706C69.0457 66.2733 69.0128 65.6022 68.5459 65.207C68.079 64.8119 67.3549 64.8424 66.9286 65.2751C66.5023 65.7079 66.5352 66.379 67.0021 66.7741C67.469 67.1692 68.193 67.1388 68.6194 66.706Z" fill="#534A46"/>
<path d="M66.688 65.0201L64.7279 67.0098C64.1663 67.5799 64.2096 68.4639 64.8246 68.9844C65.4397 69.5049 66.3935 69.4648 66.955 68.8948L68.9152 66.9051C69.4768 66.335 69.4334 65.4509 68.8184 64.9304C68.2034 64.4099 67.2496 64.4501 66.688 65.0201Z" stroke="#211E1C" stroke-width="1.92033" stroke-linecap="round" stroke-linejoin="round"/>
<path d="M61.58 70.0917L59.6198 72.0814C59.0583 72.6515 59.1016 73.5355 59.7166 74.0561C60.3316 74.5766 61.2854 74.5364 61.847 73.9664L63.8072 71.9767C64.3687 71.4066 64.3254 70.5226 63.7104 70.0021C63.0954 69.4816 62.1416 69.5217 61.58 70.0917Z" fill="#605652" stroke="#211E1C" stroke-width="1.92033" stroke-linecap="round" stroke-linejoin="round"/>
<path d="M61.6063 73.7115C62.0326 73.2787 61.9997 72.6076 61.5328 72.2125C61.0659 71.8173 60.3419 71.8478 59.9156 72.2805C59.4893 72.7133 59.5221 73.3844 59.989 73.7795C60.4559 74.1747 61.18 74.1442 61.6063 73.7115Z" fill="#534A46"/>
<path d="M63.5113 71.7778C63.9376 71.345 63.9047 70.6739 63.4378 70.2787C62.971 69.8836 62.2469 69.9141 61.8206 70.3468C61.3943 70.7796 61.4272 71.4507 61.8941 71.8458C62.3609 72.241 63.085 72.2105 63.5113 71.7778Z" fill="#534A46"/>
<path d="M61.58 70.0917L59.6198 72.0814C59.0583 72.6515 59.1016 73.5355 59.7166 74.0561C60.3316 74.5766 61.2854 74.5364 61.847 73.9664L63.8072 71.9767C64.3687 71.4066 64.3254 70.5226 63.7104 70.0021C63.0954 69.4816 62.1416 69.5217 61.58 70.0917Z" stroke="#211E1C" stroke-width="1.92033" stroke-linecap="round" stroke-linejoin="round"/>
<path fill-rule="evenodd" clip-rule="evenodd" d="M50.1356 81.5939L49.4948 77.4125L51.7419 79.2782C51.4707 77.6513 52.0369 76.7328 53.9118 76.921L56.0402 78.6042L54.0355 80.782L50.1356 81.5939Z" fill="#594F4A" stroke="#211E1C" stroke-width="1.92029" stroke-linecap="round" stroke-linejoin="round"/>
<path d="M56.655 75.1111L54.7682 77.1608C54.2276 77.7481 54.303 78.6303 54.9366 79.1313C55.5702 79.6323 56.522 79.5625 57.0625 78.9752L58.9493 76.9255C59.4899 76.3383 59.4145 75.4561 58.7809 74.955C58.1474 74.454 57.1956 74.5239 56.655 75.1111Z" fill="#605652" stroke="#211E1C" stroke-width="1.92029" stroke-linecap="round" stroke-linejoin="round"/>
<path d="M56.8127 78.7279C57.2231 78.2821 57.1658 77.6124 56.6849 77.232C56.2039 76.8516 55.4814 76.9047 55.071 77.3505C54.6607 77.7963 54.7179 78.466 55.1988 78.8463C55.6798 79.2267 56.4024 79.1737 56.8127 78.7279Z" fill="#534A46"/>
<path d="M58.6465 76.7358C59.0568 76.29 58.9996 75.6203 58.5186 75.2399C58.0377 74.8596 57.3151 74.9126 56.9048 75.3584C56.4944 75.8042 56.5516 76.4739 57.0326 76.8542C57.5135 77.2346 58.2361 77.1816 58.6465 76.7358Z" fill="#534A46"/>
<path d="M56.655 75.1111L54.7682 77.1608C54.2276 77.7481 54.303 78.6303 54.9366 79.1313C55.5702 79.6323 56.522 79.5625 57.0625 78.9752L58.9493 76.9255C59.4899 76.3383 59.4145 75.4561 58.7809 74.955C58.1474 74.454 57.1956 74.5239 56.655 75.1111Z" stroke="#211E1C" stroke-width="1.92029" stroke-linecap="round" stroke-linejoin="round"/>
<path d="M51.734 80.3391L49.8472 82.3888C49.3066 82.976 49.382 83.8583 50.0156 84.3593C50.6491 84.8603 51.601 84.7905 52.1415 84.2032L54.0283 82.1535C54.5689 81.5663 54.4935 80.6841 53.8599 80.183C53.2263 79.682 52.2745 79.7519 51.734 80.3391Z" fill="#605652" stroke="#211E1C" stroke-width="1.92029" stroke-linecap="round" stroke-linejoin="round"/>
<path d="M51.8917 83.9559C52.3021 83.5101 52.2448 82.8404 51.7639 82.4601C51.2829 82.0797 50.5604 82.1328 50.15 82.5785C49.7396 83.0243 49.7969 83.694 50.2778 84.0744C50.7588 84.4547 51.4813 84.4017 51.8917 83.9559Z" fill="#534A46"/>
<path d="M53.7254 81.9638C54.1358 81.518 54.0786 80.8483 53.5976 80.468C53.1166 80.0876 52.3941 80.1407 51.9837 80.5864C51.5734 81.0322 51.6306 81.7019 52.1116 82.0823C52.5925 82.4627 53.3151 82.4096 53.7254 81.9638Z" fill="#534A46"/>
<path d="M51.734 80.3391L49.8472 82.3888C49.3066 82.976 49.382 83.8583 50.0156 84.3593C50.6491 84.8603 51.601 84.7905 52.1415 84.2032L54.0283 82.1535C54.5689 81.5663 54.4935 80.6841 53.8599 80.183C53.2263 79.682 52.2745 79.7519 51.734 80.3391Z" stroke="#211E1C" stroke-width="1.92029" stroke-linecap="round" stroke-linejoin="round"/>
<path fill-rule="evenodd" clip-rule="evenodd" d="M68.5225 100.132L68.4034 104.354L66.5227 102.168C66.498 103.814 65.7747 104.632 63.9598 104.157L62.1633 102.169L64.5312 100.331L68.5225 100.132Z" fill="#594F4A" stroke="#211E1C" stroke-width="1.92027" stroke-linecap="round" stroke-linejoin="round"/>
<path d="M60.0397 105.089L62.6755 103.953C63.4306 103.627 63.758 102.796 63.4067 102.096C63.0554 101.396 62.1585 101.093 61.4034 101.418L58.7677 102.555C58.0125 102.88 57.6852 103.712 58.0364 104.412C58.3877 105.111 59.2846 105.415 60.0397 105.089Z" fill="#605652" stroke="#211E1C" stroke-width="1.92029" stroke-linecap="round" stroke-linejoin="round"/>
<path d="M61.5196 101.739C60.9463 101.987 60.6978 102.618 60.9645 103.149C61.2311 103.68 61.912 103.911 62.4853 103.664C63.0585 103.416 63.307 102.785 63.0404 102.254C62.7737 101.723 62.0928 101.492 61.5196 101.739Z" fill="#534A46"/>
<path d="M58.9579 102.844C58.3847 103.091 58.1362 103.722 58.4028 104.253C58.6695 104.785 59.3504 105.015 59.9236 104.768C60.4969 104.521 60.7454 103.89 60.4787 103.358C60.2121 102.827 59.5312 102.597 58.9579 102.844Z" fill="#534A46"/>
<path d="M60.0397 105.089L62.6755 103.953C63.4306 103.627 63.758 102.796 63.4067 102.096C63.0554 101.396 62.1585 101.093 61.4034 101.418L58.7677 102.555C58.0125 102.88 57.6852 103.712 58.0364 104.412C58.3877 105.111 59.2846 105.415 60.0397 105.089Z" stroke="#211E1C" stroke-width="1.92029" stroke-linecap="round" stroke-linejoin="round"/>
<path d="M66.7209 101.123L68.9495 99.3929C69.588 98.8972 69.6721 98.0157 69.1374 97.4239C68.6026 96.8321 67.6515 96.7542 67.013 97.2498L64.7845 98.9798C64.146 99.4754 64.0619 100.357 64.5966 100.949C65.1314 101.541 66.0825 101.619 66.7209 101.123Z" fill="#605652" stroke="#211E1C" stroke-width="1.92027" stroke-linecap="round" stroke-linejoin="round"/>
<path d="M67.215 97.5322C66.7303 97.9084 66.6665 98.5776 67.0724 99.0269C67.4783 99.4761 68.2003 99.5353 68.685 99.1591C69.1697 98.7828 69.2335 98.1136 68.8276 97.6643C68.4217 97.2151 67.6997 97.1559 67.215 97.5322Z" fill="#534A46"/>
<path d="M65.0491 99.2136C64.5644 99.5898 64.5006 100.259 64.9065 100.708C65.3124 101.158 66.0344 101.217 66.5191 100.84C67.0038 100.464 67.0677 99.795 66.6617 99.3457C66.2558 98.8965 65.5338 98.8373 65.0491 99.2136Z" fill="#534A46"/>
<path d="M66.7209 101.123L68.9495 99.3929C69.588 98.8972 69.6721 98.0157 69.1374 97.4239C68.6026 96.8321 67.6515 96.7542 67.013 97.2498L64.7845 98.9798C64.146 99.4754 64.0619 100.357 64.5966 100.949C65.1314 101.541 66.0825 101.619 66.7209 101.123Z" stroke="#211E1C" stroke-width="1.92027" stroke-linecap="round" stroke-linejoin="round"/>
<path fill-rule="evenodd" clip-rule="evenodd" d="M79.603 91.454L79.5926 95.6774L77.6562 93.5332C77.6738 95.1793 76.9718 96.0135 75.1452 95.5789L73.298 93.631L75.6179 91.741L79.603 91.454Z" fill="#594F4A" stroke="#211E1C" stroke-width="1.92031" stroke-linecap="round" stroke-linejoin="round"/>
<path d="M72.1511 97.0068L74.3345 95.2281C74.9601 94.7184 75.0214 93.8353 74.4716 93.2555C73.9218 92.6757 72.969 92.6188 72.3434 93.1284L70.16 94.9072C69.5345 95.4168 69.4731 96.2999 70.0229 96.8797C70.5727 97.4595 71.5255 97.5165 72.1511 97.0068Z" fill="#605652" stroke="#211E1C" stroke-width="1.92031" stroke-linecap="round" stroke-linejoin="round"/>
<path d="M72.5525 93.4063C72.0776 93.7932 72.0311 94.4636 72.4484 94.9038C72.8658 95.3439 73.5891 95.3871 74.064 95.0003C74.5389 94.6134 74.5855 93.943 74.1681 93.5028C73.7507 93.0627 73.0274 93.0195 72.5525 93.4063Z" fill="#534A46"/>
<path d="M70.4304 95.1351C69.9556 95.5219 69.909 96.1924 70.3264 96.6325C70.7438 97.0727 71.4671 97.1158 71.9419 96.729C72.4168 96.3421 72.4634 95.6717 72.046 95.2315C71.6286 94.7914 70.9053 94.7482 70.4304 95.1351Z" fill="#534A46"/>
<path d="M72.1511 97.0068L74.3345 95.2281C74.9601 94.7184 75.0214 93.8353 74.4716 93.2555C73.9218 92.6757 72.969 92.6188 72.3434 93.1284L70.16 94.9072C69.5345 95.4168 69.4731 96.2999 70.0229 96.8797C70.5727 97.4595 71.5255 97.5165 72.1511 97.0068Z" stroke="#211E1C" stroke-width="1.92031" stroke-linecap="round" stroke-linejoin="round"/>
<path d="M77.8276 92.4842L80.011 90.7054C80.6366 90.1958 80.698 89.3127 80.1481 88.7329C79.5983 88.153 78.6455 88.0961 78.02 88.6057L75.8365 90.3845C75.211 90.8941 75.1496 91.7773 75.6994 92.3571C76.2492 92.9369 77.2021 92.9938 77.8276 92.4842Z" fill="#605652" stroke="#211E1C" stroke-width="1.92031" stroke-linecap="round" stroke-linejoin="round"/>
<path d="M78.229 88.8836C77.7542 89.2705 77.7076 89.9409 78.125 90.3811C78.5423 90.8212 79.2656 90.8644 79.7405 90.4775C80.2154 90.0907 80.262 89.4203 79.8446 88.9801C79.4272 88.54 78.7039 88.4968 78.229 88.8836Z" fill="#534A46"/>
<path d="M76.107 90.6124C75.6321 90.9993 75.5855 91.6697 76.0029 92.1098C76.4203 92.55 77.1436 92.5932 77.6184 92.2063C78.0933 91.8194 78.1399 91.149 77.7225 90.7089C77.3051 90.2687 76.5818 90.2255 76.107 90.6124Z" fill="#534A46"/>
<path d="M77.8276 92.4842L80.011 90.7054C80.6366 90.1958 80.698 89.3127 80.1481 88.7329C79.5983 88.153 78.6455 88.0961 78.02 88.6057L75.8365 90.3845C75.211 90.8941 75.1496 91.7773 75.6994 92.3571C76.2492 92.9369 77.2021 92.9938 77.8276 92.4842Z" stroke="#211E1C" stroke-width="1.92031" stroke-linecap="round" stroke-linejoin="round"/>
<path fill-rule="evenodd" clip-rule="evenodd" d="M90.2982 82.419L90.5562 86.6356L88.4869 84.6009C88.6091 86.2432 87.9612 87.1141 86.1102 86.78L84.1425 84.9363L86.3383 82.923L90.2982 82.419Z" fill="#594F4A" stroke="#211E1C" stroke-width="1.92036" stroke-linecap="round" stroke-linejoin="round"/>
<path d="M83.2121 88.3689L85.2788 86.474C85.8709 85.9312 85.876 85.0462 85.2903 84.4974C84.7046 83.9486 83.7499 83.9438 83.1578 84.4867L81.0911 86.3815C80.499 86.9244 80.4939 87.8093 81.0796 88.3581C81.6652 88.9069 82.62 88.9117 83.2121 88.3689Z" fill="#605652" stroke="#211E1C" stroke-width="1.92036" stroke-linecap="round" stroke-linejoin="round"/>
<path d="M83.3842 84.7526C82.9347 85.1648 82.9308 85.8366 83.3754 86.2532C83.82 86.6698 84.5448 86.6734 84.9943 86.2613C85.4437 85.8492 85.4477 85.1774 85.0031 84.7608C84.5584 84.3442 83.8336 84.3405 83.3842 84.7526Z" fill="#534A46"/>
<path d="M81.3756 86.5942C80.9261 87.0063 80.9222 87.6781 81.3668 88.0947C81.8115 88.5113 82.5362 88.515 82.9857 88.1028C83.4352 87.6907 83.4391 87.0189 82.9945 86.6023C82.5499 86.1857 81.8251 86.1821 81.3756 86.5942Z" fill="#534A46"/>
<path d="M83.2121 88.3689L85.2788 86.474C85.8709 85.9312 85.876 85.0462 85.2903 84.4974C84.7046 83.9486 83.7499 83.9438 83.1578 84.4867L81.0911 86.3815C80.499 86.9244 80.4939 87.8093 81.0796 88.3581C81.6652 88.9069 82.62 88.9117 83.2121 88.3689Z" stroke="#211E1C" stroke-width="1.92036" stroke-linecap="round" stroke-linejoin="round"/>
<path d="M88.5915 83.5443L90.6582 81.6494C91.2503 81.1066 91.2554 80.2216 90.6697 79.6728C90.084 79.124 89.1293 79.1192 88.5372 79.6621L86.4705 81.5569C85.8784 82.0998 85.8733 82.9848 86.4589 83.5335C87.0446 84.0823 87.9994 84.0872 88.5915 83.5443Z" fill="#605652" stroke="#211E1C" stroke-width="1.92036" stroke-linecap="round" stroke-linejoin="round"/>
<path d="M88.7635 79.9281C88.3141 80.3402 88.3101 81.012 88.7548 81.4286C89.1994 81.8452 89.9242 81.8488 90.3737 81.4367C90.8231 81.0246 90.8271 80.3528 90.3824 79.9362C89.9378 79.5196 89.213 79.516 88.7635 79.9281Z" fill="#534A46"/>
<path d="M86.755 81.7696C86.3055 82.1818 86.3016 82.8536 86.7462 83.2702C87.1908 83.6868 87.9156 83.6904 88.3651 83.2783C88.8146 82.8662 88.8185 82.1944 88.3739 81.7778C87.9293 81.3612 87.2045 81.3575 86.755 81.7696Z" fill="#534A46"/>
<path d="M88.5915 83.5443L90.6582 81.6494C91.2503 81.1066 91.2554 80.2216 90.6697 79.6728C90.084 79.124 89.1293 79.1192 88.5372 79.6621L86.4705 81.5569C85.8784 82.0998 85.8733 82.9848 86.4589 83.5335C87.0446 84.0823 87.9994 84.0872 88.5915 83.5443Z" stroke="#211E1C" stroke-width="1.92036" stroke-linecap="round" stroke-linejoin="round"/>
<path fill-rule="evenodd" clip-rule="evenodd" d="M100.667 73.1715L100.924 77.3882L98.8552 75.3534C98.9774 76.9957 98.3295 77.8667 96.4785 77.5325L94.5108 75.6888L96.7066 73.6755L100.667 73.1715Z" fill="#594F4A" stroke="#211E1C" stroke-width="1.92036" stroke-linecap="round" stroke-linejoin="round"/>
<path d="M93.5803 79.1214L95.6469 77.2265C96.239 76.6837 96.2442 75.7987 95.6585 75.2499C95.0728 74.7011 94.118 74.6963 93.5259 75.2392L91.4593 77.134C90.8672 77.6769 90.862 78.5618 91.4477 79.1106C92.0334 79.6594 92.9882 79.6642 93.5803 79.1214Z" fill="#605652" stroke="#211E1C" stroke-width="1.92036" stroke-linecap="round" stroke-linejoin="round"/>
<path d="M93.7523 75.5051C93.3028 75.9173 93.2989 76.5891 93.7435 77.0057C94.1882 77.4223 94.913 77.4259 95.3624 77.0138C95.8119 76.6017 95.8158 75.9299 95.3712 75.5133C94.9266 75.0967 94.2018 75.093 93.7523 75.5051Z" fill="#534A46"/>
<path d="M91.7438 77.3467C91.2943 77.7588 91.2904 78.4307 91.735 78.8473C92.1796 79.2639 92.9044 79.2675 93.3539 78.8554C93.8034 78.4433 93.8073 77.7715 93.3627 77.3549C92.9181 76.9383 92.1932 76.9346 91.7438 77.3467Z" fill="#534A46"/>
<path d="M93.5803 79.1214L95.6469 77.2265C96.239 76.6837 96.2442 75.7987 95.6585 75.2499C95.0728 74.7011 94.118 74.6963 93.5259 75.2392L91.4593 77.134C90.8672 77.6769 90.862 78.5618 91.4477 79.1106C92.0334 79.6594 92.9882 79.6642 93.5803 79.1214Z" stroke="#211E1C" stroke-width="1.92036" stroke-linecap="round" stroke-linejoin="round"/>
<path d="M98.9597 74.2968L101.026 72.402C101.618 71.8591 101.624 70.9741 101.038 70.4254C100.452 69.8766 99.4974 69.8717 98.9053 70.4146L96.8387 72.3095C96.2466 72.8523 96.2414 73.7373 96.8271 74.2861C97.4128 74.8349 98.3676 74.8397 98.9597 74.2968Z" fill="#605652" stroke="#211E1C" stroke-width="1.92036" stroke-linecap="round" stroke-linejoin="round"/>
<path d="M99.1317 70.6807C98.6822 71.0928 98.6783 71.7646 99.1229 72.1812C99.5676 72.5978 100.292 72.6014 100.742 72.1893C101.191 71.7772 101.195 71.1054 100.751 70.6888C100.306 70.2722 99.5812 70.2685 99.1317 70.6807Z" fill="#534A46"/>
<path d="M97.1232 72.5222C96.6737 72.9343 96.6698 73.6061 97.1144 74.0227C97.559 74.4393 98.2838 74.443 98.7333 74.0309C99.1828 73.6187 99.1867 72.9469 98.7421 72.5303C98.2974 72.1137 97.5726 72.1101 97.1232 72.5222Z" fill="#534A46"/>
<path d="M98.9597 74.2968L101.026 72.402C101.618 71.8591 101.624 70.9741 101.038 70.4254C100.452 69.8766 99.4974 69.8717 98.9053 70.4146L96.8387 72.3095C96.2466 72.8523 96.2414 73.7373 96.8271 74.2861C97.4128 74.8349 98.3676 74.8397 98.9597 74.2968Z" stroke="#211E1C" stroke-width="1.92036" stroke-linecap="round" stroke-linejoin="round"/>
<path fill-rule="evenodd" clip-rule="evenodd" d="M90.3282 41.3346L90.0456 37.1193L92.1267 39.1437C91.9949 37.502 92.6377 36.6278 94.4906 36.9526L96.4691 38.7864L94.2851 40.8107L90.3282 41.3346Z" fill="#594F4A" stroke="#211E1C" stroke-width="1.92036" stroke-linecap="round" stroke-linejoin="round"/>
<path d="M97.3794 35.3491L95.3239 37.2543C94.735 37.8002 94.735 38.6851 95.3239 39.231C95.9128 39.7768 96.8676 39.7768 97.4565 39.231L99.512 37.3258C100.101 36.7799 100.101 35.895 99.512 35.3491C98.9231 34.8033 97.9683 34.8033 97.3794 35.3491Z" fill="#605652" stroke="#211E1C" stroke-width="1.92036" stroke-linecap="round" stroke-linejoin="round"/>
<path d="M97.2284 38.9662C97.6755 38.5518 97.6755 37.88 97.2284 37.4656C96.7814 37.0512 96.0566 37.0512 95.6095 37.4656C95.1625 37.88 95.1625 38.5518 95.6095 38.9661C96.0566 39.3805 96.7814 39.3805 97.2284 38.9662Z" fill="#534A46"/>
<path d="M99.2262 37.1145C99.6733 36.7001 99.6733 36.0283 99.2262 35.614C98.7792 35.1996 98.0544 35.1996 97.6073 35.614C97.1603 36.0283 97.1603 36.7001 97.6073 37.1145C98.0544 37.5289 98.7792 37.5289 99.2262 37.1145Z" fill="#534A46"/>
<path d="M97.3794 35.3491L95.3239 37.2543C94.735 37.8002 94.735 38.6851 95.3239 39.231C95.9128 39.7768 96.8676 39.7768 97.4565 39.231L99.512 37.3258C100.101 36.7799 100.101 35.895 99.512 35.3491C98.9231 34.8033 97.9683 34.8033 97.3794 35.3491Z" stroke="#211E1C" stroke-width="1.92036" stroke-linecap="round" stroke-linejoin="round"/>
<path d="M92.0284 40.2007L89.9729 42.1059C89.384 42.6518 89.384 43.5367 89.9729 44.0826C90.5618 44.6284 91.5166 44.6284 92.1055 44.0826L94.161 42.1774C94.7499 41.6315 94.7499 40.7465 94.161 40.2007C93.5721 39.6549 92.6173 39.6549 92.0284 40.2007Z" fill="#605652" stroke="#211E1C" stroke-width="1.92036" stroke-linecap="round" stroke-linejoin="round"/>
<path d="M91.8775 43.8178C92.3245 43.4034 92.3245 42.7316 91.8775 42.3172C91.4304 41.9028 90.7056 41.9028 90.2586 42.3172C89.8115 42.7316 89.8115 43.4034 90.2586 43.8177C90.7056 44.2321 91.4304 44.2321 91.8775 43.8178Z" fill="#534A46"/>
<path d="M93.8753 41.9661C94.3223 41.5517 94.3223 40.8799 93.8753 40.4656C93.4282 40.0512 92.7034 40.0512 92.2564 40.4656C91.8093 40.8799 91.8093 41.5517 92.2564 41.9661C92.7034 42.3805 93.4282 42.3805 93.8753 41.9661Z" fill="#534A46"/>
<path d="M92.0284 40.2007L89.9729 42.1059C89.384 42.6518 89.384 43.5367 89.9729 44.0826C90.5618 44.6284 91.5166 44.6284 92.1055 44.0826L94.161 42.1774C94.7499 41.6315 94.7499 40.7465 94.161 40.2007C93.5721 39.6549 92.6173 39.6549 92.0284 40.2007Z" stroke="#211E1C" stroke-width="1.92036" stroke-linecap="round" stroke-linejoin="round"/>
<path fill-rule="evenodd" clip-rule="evenodd" d="M100.747 31.6775L100.465 27.4622L102.546 29.4865C102.414 27.8448 103.057 26.9706 104.91 27.2955L106.888 29.1292L104.704 31.1535L100.747 31.6775Z" fill="#594F4A" stroke="#211E1C" stroke-width="1.92036" stroke-linecap="round" stroke-linejoin="round"/>
<path d="M107.798 25.692L105.743 27.5972C105.154 28.143 105.154 29.028 105.743 29.5738C106.332 30.1197 107.287 30.1197 107.876 29.5739L109.931 27.6686C110.52 27.1228 110.52 26.2378 109.931 25.692C109.342 25.1461 108.387 25.1461 107.798 25.692Z" fill="#605652" stroke="#211E1C" stroke-width="1.92036" stroke-linecap="round" stroke-linejoin="round"/>
<path d="M107.648 29.309C108.095 28.8946 108.095 28.2228 107.648 27.8084C107.201 27.3941 106.476 27.3941 106.029 27.8084C105.582 28.2228 105.582 28.8946 106.029 29.309C106.476 29.7233 107.201 29.7234 107.648 29.309Z" fill="#534A46"/>
<path d="M109.645 27.4574C110.092 27.043 110.092 26.3712 109.645 25.9568C109.198 25.5425 108.473 25.5425 108.026 25.9568C107.579 26.3712 107.579 27.043 108.026 27.4574C108.473 27.8717 109.198 27.8717 109.645 27.4574Z" fill="#534A46"/>
<path d="M107.798 25.692L105.743 27.5972C105.154 28.143 105.154 29.028 105.743 29.5738C106.332 30.1197 107.287 30.1197 107.876 29.5739L109.931 27.6686C110.52 27.1228 110.52 26.2378 109.931 25.692C109.342 25.1461 108.387 25.1461 107.798 25.692Z" stroke="#211E1C" stroke-width="1.92036" stroke-linecap="round" stroke-linejoin="round"/>
<path d="M102.447 30.5435L100.392 32.4487C99.8031 32.9946 99.8031 33.8795 100.392 34.4254C100.981 34.9712 101.936 34.9712 102.525 34.4254L104.58 32.5202C105.169 31.9743 105.169 31.0894 104.58 30.5435C103.991 29.9977 103.036 29.9977 102.447 30.5435Z" fill="#605652" stroke="#211E1C" stroke-width="1.92036" stroke-linecap="round" stroke-linejoin="round"/>
<path d="M102.297 34.1606C102.744 33.7463 102.744 33.0744 102.297 32.6601C101.849 32.2457 101.125 32.2457 100.678 32.6601C100.231 33.0744 100.231 33.7462 100.678 34.1606C101.125 34.575 101.849 34.575 102.297 34.1606Z" fill="#534A46"/>
<path d="M104.294 32.309C104.741 31.8946 104.741 31.2228 104.294 30.8084C103.847 30.3941 103.122 30.3941 102.675 30.8084C102.228 31.2228 102.228 31.8946 102.675 32.309C103.122 32.7233 103.847 32.7233 104.294 32.309Z" fill="#534A46"/>
<path d="M102.447 30.5435L100.392 32.4487C99.8031 32.9946 99.8031 33.8795 100.392 34.4254C100.981 34.9712 101.936 34.9712 102.525 34.4254L104.58 32.5202C105.169 31.9743 105.169 31.0894 104.58 30.5435C103.991 29.9977 103.036 29.9977 102.447 30.5435Z" stroke="#211E1C" stroke-width="1.92036" stroke-linecap="round" stroke-linejoin="round"/>
<path fill-rule="evenodd" clip-rule="evenodd" d="M111.166 22.0203L110.884 17.805L112.965 19.8293C112.833 18.1877 113.476 17.3134 115.329 17.6383L117.307 19.472L115.123 21.4963L111.166 22.0203Z" fill="#594F4A" stroke="#211E1C" stroke-width="1.92036" stroke-linecap="round" stroke-linejoin="round"/>
<path d="M118.218 16.0348L116.162 17.94C115.573 18.4859 115.573 19.3708 116.162 19.9167C116.751 20.4625 117.706 20.4625 118.295 19.9167L120.35 18.0115C120.939 17.4656 120.939 16.5807 120.35 16.0348C119.761 15.489 118.806 15.489 118.218 16.0348Z" fill="#605652" stroke="#211E1C" stroke-width="1.92036" stroke-linecap="round" stroke-linejoin="round"/>
<path d="M118.067 19.6519C118.514 19.2375 118.514 18.5657 118.067 18.1513C117.62 17.7369 116.895 17.7369 116.448 18.1513C116.001 18.5657 116.001 19.2375 116.448 19.6518C116.895 20.0662 117.62 20.0662 118.067 19.6519Z" fill="#534A46"/>
<path d="M120.064 17.8003C120.511 17.3859 120.511 16.7141 120.064 16.2997C119.617 15.8854 118.892 15.8854 118.445 16.2997C117.998 16.7141 117.998 17.3859 118.445 17.8003C118.892 18.2146 119.617 18.2146 120.064 17.8003Z" fill="#534A46"/>
<path d="M118.218 16.0348L116.162 17.94C115.573 18.4859 115.573 19.3708 116.162 19.9167C116.751 20.4625 117.706 20.4625 118.295 19.9167L120.35 18.0115C120.939 17.4656 120.939 16.5807 120.35 16.0348C119.761 15.489 118.806 15.489 118.218 16.0348Z" stroke="#211E1C" stroke-width="1.92036" stroke-linecap="round" stroke-linejoin="round"/>
<path d="M112.866 20.8864L110.811 22.7916C110.222 23.3374 110.222 24.2224 110.811 24.7682C111.4 25.3141 112.355 25.3141 112.944 24.7683L114.999 22.863C115.588 22.3172 115.588 21.4322 114.999 20.8864C114.41 20.3405 113.455 20.3405 112.866 20.8864Z" fill="#605652" stroke="#211E1C" stroke-width="1.92036" stroke-linecap="round" stroke-linejoin="round"/>
<path d="M112.715 24.5034C113.163 24.0891 113.163 23.4172 112.715 23.0029C112.268 22.5885 111.544 22.5885 111.097 23.0029C110.65 23.4172 110.65 24.089 111.097 24.5034C111.544 24.9178 112.268 24.9178 112.715 24.5034Z" fill="#534A46"/>
<path d="M114.713 22.6518C115.16 22.2374 115.16 21.5656 114.713 21.1512C114.266 20.7369 113.541 20.7369 113.094 21.1512C112.647 21.5656 112.647 22.2374 113.094 22.6518C113.541 23.0661 114.266 23.0661 114.713 22.6518Z" fill="#534A46"/>
<path d="M112.866 20.8864L110.811 22.7916C110.222 23.3374 110.222 24.2224 110.811 24.7682C111.4 25.3141 112.355 25.3141 112.944 24.7683L114.999 22.863C115.588 22.3172 115.588 21.4322 114.999 20.8864C114.41 20.3405 113.455 20.3405 112.866 20.8864Z" stroke="#211E1C" stroke-width="1.92036" stroke-linecap="round" stroke-linejoin="round"/>
<path fill-rule="evenodd" clip-rule="evenodd" d="M110.808 63.6981L111.091 67.9134L109.01 65.889C109.141 67.5307 108.499 68.4049 106.646 68.0801L104.667 66.2463L106.851 64.222L110.808 63.6981Z" fill="#594F4A" stroke="#211E1C" stroke-width="1.92036" stroke-linecap="round" stroke-linejoin="round"/>
<path d="M103.757 69.6835L105.812 67.7783C106.401 67.2325 106.401 66.3475 105.812 65.8016C105.224 65.2558 104.269 65.2558 103.68 65.8016L101.624 67.7069C101.035 68.2527 101.035 69.1377 101.624 69.6835C102.213 70.2293 103.168 70.2294 103.757 69.6835Z" fill="#605652" stroke="#211E1C" stroke-width="1.92036" stroke-linecap="round" stroke-linejoin="round"/>
<path d="M103.908 66.0665C103.461 66.4809 103.461 67.1527 103.908 67.567C104.355 67.9814 105.08 67.9814 105.527 67.567C105.974 67.1527 105.974 66.4809 105.527 66.0665C105.08 65.6521 104.355 65.6521 103.908 66.0665Z" fill="#534A46"/>
<path d="M101.91 67.9181C101.463 68.3325 101.463 69.0043 101.91 69.4187C102.357 69.833 103.082 69.833 103.529 69.4187C103.976 69.0043 103.976 68.3325 103.529 67.9181C103.082 67.5038 102.357 67.5038 101.91 67.9181Z" fill="#534A46"/>
<path d="M103.757 69.6835L105.812 67.7783C106.401 67.2325 106.401 66.3475 105.812 65.8016C105.224 65.2558 104.269 65.2558 103.68 65.8016L101.624 67.7069C101.035 68.2527 101.035 69.1377 101.624 69.6835C102.213 70.2293 103.168 70.2294 103.757 69.6835Z" stroke="#211E1C" stroke-width="1.92036" stroke-linecap="round" stroke-linejoin="round"/>
<path d="M109.108 64.832L111.163 62.9268C111.752 62.3809 111.752 61.496 111.163 60.9501C110.575 60.4043 109.62 60.4043 109.031 60.9501L106.975 62.8553C106.386 63.4012 106.386 64.2861 106.975 64.832C107.564 65.3778 108.519 65.3778 109.108 64.832Z" fill="#605652" stroke="#211E1C" stroke-width="1.92036" stroke-linecap="round" stroke-linejoin="round"/>
<path d="M109.259 61.2149C108.812 61.6293 108.812 62.3011 109.259 62.7154C109.706 63.1298 110.431 63.1298 110.878 62.7154C111.325 62.3011 111.325 61.6293 110.878 61.2149C110.431 60.8005 109.706 60.8005 109.259 61.2149Z" fill="#534A46"/>
<path d="M107.261 63.0665C106.814 63.4809 106.814 64.1527 107.261 64.5671C107.708 64.9814 108.433 64.9814 108.88 64.5671C109.327 64.1527 109.327 63.4809 108.88 63.0665C108.433 62.6522 107.708 62.6522 107.261 63.0665Z" fill="#534A46"/>
<path d="M109.108 64.832L111.163 62.9268C111.752 62.3809 111.752 61.496 111.163 60.9501C110.575 60.4043 109.62 60.4043 109.031 60.9501L106.975 62.8553C106.386 63.4012 106.386 64.2861 106.975 64.832C107.564 65.3778 108.519 65.3778 109.108 64.832Z" stroke="#211E1C" stroke-width="1.92036" stroke-linecap="round" stroke-linejoin="round"/>
<path fill-rule="evenodd" clip-rule="evenodd" d="M121.233 54.0359L121.515 58.2512L119.434 56.2269C119.566 57.8685 118.923 58.7428 117.07 58.4179L115.092 56.5841L117.276 54.5599L121.233 54.0359Z" fill="#594F4A" stroke="#211E1C" stroke-width="1.92036" stroke-linecap="round" stroke-linejoin="round"/>
<path d="M114.181 60.0214L116.237 58.1162C116.826 57.5703 116.826 56.6854 116.237 56.1395C115.648 55.5937 114.693 55.5937 114.104 56.1395L112.049 58.0447C111.46 58.5906 111.46 59.4756 112.049 60.0214C112.638 60.5672 113.593 60.5672 114.181 60.0214Z" fill="#605652" stroke="#211E1C" stroke-width="1.92036" stroke-linecap="round" stroke-linejoin="round"/>
<path d="M114.332 56.4044C113.885 56.8187 113.885 57.4906 114.332 57.9049C114.779 58.3193 115.504 58.3193 115.951 57.9049C116.398 57.4906 116.398 56.8188 115.951 56.4044C115.504 55.99 114.779 55.99 114.332 56.4044Z" fill="#534A46"/>
<path d="M112.335 58.256C111.888 58.6704 111.888 59.3422 112.335 59.7566C112.782 60.1709 113.506 60.1709 113.953 59.7566C114.401 59.3422 114.401 58.6704 113.953 58.256C113.506 57.8417 112.782 57.8416 112.335 58.256Z" fill="#534A46"/>
<path d="M114.181 60.0214L116.237 58.1162C116.826 57.5703 116.826 56.6854 116.237 56.1395C115.648 55.5937 114.693 55.5937 114.104 56.1395L112.049 58.0447C111.46 58.5906 111.46 59.4756 112.049 60.0214C112.638 60.5672 113.593 60.5672 114.181 60.0214Z" stroke="#211E1C" stroke-width="1.92036" stroke-linecap="round" stroke-linejoin="round"/>
<path d="M119.532 55.1698L121.588 53.2646C122.177 52.7188 122.177 51.8338 121.588 51.2879C120.999 50.7421 120.044 50.7421 119.455 51.2879L117.4 53.1932C116.811 53.739 116.811 54.624 117.4 55.1698C117.989 55.7156 118.943 55.7157 119.532 55.1698Z" fill="#605652" stroke="#211E1C" stroke-width="1.92036" stroke-linecap="round" stroke-linejoin="round"/>
<path d="M119.683 51.5528C119.236 51.9671 119.236 52.6389 119.683 53.0533C120.13 53.4677 120.855 53.4677 121.302 53.0533C121.749 52.6389 121.749 51.9671 121.302 51.5528C120.855 51.1384 120.13 51.1384 119.683 51.5528Z" fill="#534A46"/>
<path d="M117.686 53.4044C117.238 53.8188 117.238 54.4906 117.686 54.905C118.133 55.3193 118.857 55.3193 119.304 54.905C119.751 54.4906 119.751 53.8188 119.304 53.4044C118.857 52.9901 118.133 52.99 117.686 53.4044Z" fill="#534A46"/>
<path d="M119.532 55.1698L121.588 53.2646C122.177 52.7188 122.177 51.8338 121.588 51.2879C120.999 50.7421 120.044 50.7421 119.455 51.2879L117.4 53.1932C116.811 53.739 116.811 54.624 117.4 55.1698C117.989 55.7156 118.943 55.7157 119.532 55.1698Z" stroke="#211E1C" stroke-width="1.92036" stroke-linecap="round" stroke-linejoin="round"/>
<path fill-rule="evenodd" clip-rule="evenodd" d="M131.657 44.3739L131.94 48.5892L129.858 46.5649C129.99 48.2065 129.347 49.0808 127.494 48.7559L125.516 46.9222L127.7 44.8979L131.657 44.3739Z" fill="#594F4A" stroke="#211E1C" stroke-width="1.92036" stroke-linecap="round" stroke-linejoin="round"/>
<path d="M124.606 50.3594L126.661 48.4541C127.25 47.9083 127.25 47.0233 126.661 46.4775C126.072 45.9316 125.118 45.9316 124.529 46.4775L122.473 48.3827C121.884 48.9285 121.884 49.8135 122.473 50.3593C123.062 50.9052 124.017 50.9052 124.606 50.3594Z" fill="#605652" stroke="#211E1C" stroke-width="1.92036" stroke-linecap="round" stroke-linejoin="round"/>
<path d="M124.757 46.7423C124.309 47.1567 124.31 47.8285 124.757 48.2429C125.204 48.6572 125.928 48.6572 126.375 48.2429C126.823 47.8285 126.823 47.1567 126.375 46.7423C125.928 46.328 125.204 46.328 124.757 46.7423Z" fill="#534A46"/>
<path d="M122.759 48.594C122.312 49.0083 122.312 49.6801 122.759 50.0945C123.206 50.5089 123.931 50.5089 124.378 50.0945C124.825 49.6801 124.825 49.0083 124.378 48.594C123.931 48.1796 123.206 48.1796 122.759 48.594Z" fill="#534A46"/>
<path d="M124.606 50.3594L126.661 48.4541C127.25 47.9083 127.25 47.0233 126.661 46.4775C126.072 45.9316 125.118 45.9316 124.529 46.4775L122.473 48.3827C121.884 48.9285 121.884 49.8135 122.473 50.3593C123.062 50.9052 124.017 50.9052 124.606 50.3594Z" stroke="#211E1C" stroke-width="1.92036" stroke-linecap="round" stroke-linejoin="round"/>
<path d="M129.957 45.5078L132.012 43.6026C132.601 43.0567 132.601 42.1718 132.012 41.6259C131.423 41.0801 130.468 41.0801 129.88 41.6259L127.824 43.5311C127.235 44.077 127.235 44.9619 127.824 45.5078C128.413 46.0536 129.368 46.0536 129.957 45.5078Z" fill="#605652" stroke="#211E1C" stroke-width="1.92036" stroke-linecap="round" stroke-linejoin="round"/>
<path d="M130.108 41.8907C129.661 42.3051 129.661 42.9769 130.108 43.3913C130.555 43.8057 131.279 43.8057 131.727 43.3913C132.174 42.9769 132.174 42.3051 131.727 41.8908C131.279 41.4764 130.555 41.4764 130.108 41.8907Z" fill="#534A46"/>
<path d="M128.11 43.7424C127.663 44.1567 127.663 44.8285 128.11 45.2429C128.557 45.6573 129.282 45.6573 129.729 45.2429C130.176 44.8285 130.176 44.1567 129.729 43.7424C129.282 43.328 128.557 43.328 128.11 43.7424Z" fill="#534A46"/>
<path d="M129.957 45.5078L132.012 43.6026C132.601 43.0567 132.601 42.1718 132.012 41.6259C131.423 41.0801 130.468 41.0801 129.88 41.6259L127.824 43.5311C127.235 44.077 127.235 44.9619 127.824 45.5078C128.413 46.0536 129.368 46.0536 129.957 45.5078Z" stroke="#211E1C" stroke-width="1.92036" stroke-linecap="round" stroke-linejoin="round"/>
<path fill-rule="evenodd" clip-rule="evenodd" d="M142.081 34.7118L142.364 38.9271L140.283 36.9027C140.414 38.5444 139.772 39.4186 137.919 39.0938L135.94 37.26L138.124 35.2357L142.081 34.7118Z" fill="#594F4A" stroke="#211E1C" stroke-width="1.92036" stroke-linecap="round" stroke-linejoin="round"/>
<path d="M135.03 40.6972L137.086 38.792C137.674 38.2461 137.674 37.3612 137.086 36.8153C136.497 36.2695 135.542 36.2695 134.953 36.8153L132.897 38.7205C132.309 39.2664 132.309 40.1513 132.897 40.6972C133.486 41.243 134.441 41.243 135.03 40.6972Z" fill="#605652" stroke="#211E1C" stroke-width="1.92036" stroke-linecap="round" stroke-linejoin="round"/>
<path d="M135.181 37.0802C134.734 37.4945 134.734 38.1663 135.181 38.5807C135.628 38.9951 136.353 38.9951 136.8 38.5807C137.247 38.1663 137.247 37.4945 136.8 37.0802C136.353 36.6658 135.628 36.6658 135.181 37.0802Z" fill="#534A46"/>
<path d="M133.183 38.9318C132.736 39.3462 132.736 40.018 133.183 40.4323C133.63 40.8467 134.355 40.8467 134.802 40.4323C135.249 40.018 135.249 39.3462 134.802 38.9318C134.355 38.5174 133.63 38.5174 133.183 38.9318Z" fill="#534A46"/>
<path d="M135.03 40.6972L137.086 38.792C137.674 38.2461 137.674 37.3612 137.086 36.8153C136.497 36.2695 135.542 36.2695 134.953 36.8153L132.897 38.7205C132.309 39.2664 132.309 40.1513 132.897 40.6972C133.486 41.243 134.441 41.243 135.03 40.6972Z" stroke="#211E1C" stroke-width="1.92036" stroke-linecap="round" stroke-linejoin="round"/>
<path d="M140.381 35.8457L142.437 33.9404C143.025 33.3946 143.025 32.5096 142.437 31.9638C141.848 31.4179 140.893 31.4179 140.304 31.9638L138.248 33.869C137.659 34.4148 137.66 35.2998 138.248 35.8456C138.837 36.3915 139.792 36.3915 140.381 35.8457Z" fill="#605652" stroke="#211E1C" stroke-width="1.92036" stroke-linecap="round" stroke-linejoin="round"/>
<path d="M140.532 32.2286C140.085 32.643 140.085 33.3148 140.532 33.7291C140.979 34.1435 141.704 34.1435 142.151 33.7291C142.598 33.3148 142.598 32.643 142.151 32.2286C141.704 31.8142 140.979 31.8142 140.532 32.2286Z" fill="#534A46"/>
<path d="M138.534 34.0802C138.087 34.4946 138.087 35.1664 138.534 35.5808C138.981 35.9951 139.706 35.9951 140.153 35.5808C140.6 35.1664 140.6 34.4946 140.153 34.0802C139.706 33.6659 138.981 33.6659 138.534 34.0802Z" fill="#534A46"/>
<path d="M140.381 35.8457L142.437 33.9404C143.025 33.3946 143.025 32.5096 142.437 31.9638C141.848 31.4179 140.893 31.4179 140.304 31.9638L138.248 33.869C137.659 34.4148 137.66 35.2998 138.248 35.8456C138.837 36.3915 139.792 36.3915 140.381 35.8457Z" stroke="#211E1C" stroke-width="1.92036" stroke-linecap="round" stroke-linejoin="round"/>
<path fill-rule="evenodd" clip-rule="evenodd" d="M121.585 12.3631L121.303 8.14782L123.384 10.1722C123.252 8.53049 123.895 7.65626 125.748 7.98111L127.726 9.81487L125.542 11.8392L121.585 12.3631Z" fill="#594F4A" stroke="#211E1C" stroke-width="1.92036" stroke-linecap="round" stroke-linejoin="round"/>
<path d="M129.422 6.7224L126.97 8.16964C126.267 8.58426 126.06 9.44823 126.508 10.0994C126.955 10.7505 127.887 10.9422 128.59 10.5276L131.042 9.08035C131.744 8.66572 131.951 7.80176 131.504 7.15063C131.056 6.49951 130.124 6.30778 129.422 6.7224Z" fill="#605652" stroke="#211E1C" stroke-width="1.92036" stroke-linecap="round" stroke-linejoin="round"/>
<path d="M128.429 10.2233C128.962 9.90855 129.119 9.25268 128.78 8.75839C128.44 8.2641 127.733 8.11856 127.199 8.43332C126.666 8.74808 126.509 9.40393 126.849 9.89822C127.188 10.3925 127.896 10.5381 128.429 10.2233Z" fill="#534A46"/>
<path d="M130.812 8.81675C131.345 8.502 131.502 7.84613 131.163 7.35184C130.823 6.85755 130.116 6.71201 129.582 7.02677C129.049 7.34152 128.892 7.99738 129.232 8.49167C129.571 8.98596 130.279 9.13151 130.812 8.81675Z" fill="#534A46"/>
<path d="M129.422 6.7224L126.97 8.16964C126.267 8.58426 126.06 9.44823 126.508 10.0994C126.955 10.7505 127.887 10.9422 128.59 10.5276L131.042 9.08035C131.744 8.66572 131.951 7.80176 131.504 7.15063C131.056 6.49951 130.124 6.30778 129.422 6.7224Z" stroke="#211E1C" stroke-width="1.92036" stroke-linecap="round" stroke-linejoin="round"/>
<path d="M123.286 11.2293L121.23 13.1345C120.641 13.6803 120.641 14.5653 121.23 15.1111C121.819 15.657 122.774 15.657 123.363 15.1111L125.418 13.2059C126.007 12.6601 126.007 11.7751 125.418 11.2293C124.829 10.6834 123.874 10.6834 123.286 11.2293Z" fill="#605652" stroke="#211E1C" stroke-width="1.92036" stroke-linecap="round" stroke-linejoin="round"/>
<path d="M123.135 14.8463C123.582 14.4319 123.582 13.7601 123.135 13.3457C122.688 12.9314 121.963 12.9314 121.516 13.3457C121.069 13.7601 121.069 14.4319 121.516 14.8463C121.963 15.2606 122.688 15.2607 123.135 14.8463Z" fill="#534A46"/>
<path d="M125.132 12.9947C125.579 12.5803 125.579 11.9085 125.132 11.4941C124.685 11.0798 123.96 11.0798 123.513 11.4941C123.066 11.9085 123.066 12.5803 123.513 12.9947C123.96 13.409 124.685 13.409 125.132 12.9947Z" fill="#534A46"/>
<path d="M123.286 11.2293L121.23 13.1345C120.641 13.6803 120.641 14.5653 121.23 15.1111C121.819 15.657 122.774 15.657 123.363 15.1111L125.418 13.2059C126.007 12.6601 126.007 11.7751 125.418 11.2293C124.829 10.6834 123.874 10.6834 123.286 11.2293Z" stroke="#211E1C" stroke-width="1.92036" stroke-linecap="round" stroke-linejoin="round"/>
<path fill-rule="evenodd" clip-rule="evenodd" d="M151.343 23.5003L152.793 27.5042L150.218 26.0481C150.804 27.6022 150.427 28.6008 148.546 28.7315L146.123 27.4349L147.668 24.9556L151.343 23.5003Z" fill="#594F4A" stroke="#211E1C" stroke-width="1.91967" stroke-linecap="round" stroke-linejoin="round"/>
<path d="M145.349 30.8287L147.313 28.8426C147.876 28.2735 147.835 27.3894 147.221 26.8678C146.607 26.3461 145.653 26.3845 145.09 26.9536L143.126 28.9397C142.563 29.5087 142.605 30.3929 143.218 30.9145C143.832 31.4361 144.786 31.3977 145.349 30.8287Z" fill="#605652" stroke="#211E1C" stroke-width="1.91979" stroke-linecap="round" stroke-linejoin="round"/>
<path d="M145.33 27.209C144.903 27.641 144.935 28.3121 145.401 28.7081C145.867 29.1041 146.591 29.0749 147.018 28.643C147.445 28.211 147.414 27.5398 146.948 27.1439C146.482 26.7479 145.758 26.777 145.33 27.209Z" fill="#534A46"/>
<path d="M143.421 29.1393C142.994 29.5713 143.025 30.2424 143.492 30.6384C143.958 31.0344 144.682 31.0052 145.109 30.5733C145.536 30.1413 145.505 29.4701 145.039 29.0742C144.573 28.6782 143.848 28.7073 143.421 29.1393Z" fill="#534A46"/>
<path d="M145.349 30.8287L147.313 28.8426C147.876 28.2735 147.835 27.3894 147.221 26.8678C146.607 26.3461 145.653 26.3845 145.09 26.9536L143.126 28.9397C142.563 29.5087 142.605 30.3929 143.218 30.9145C143.832 31.4361 144.786 31.3977 145.349 30.8287Z" stroke="#211E1C" stroke-width="1.91979" stroke-linecap="round" stroke-linejoin="round"/>
<path d="M150.018 25.0035L151.471 22.6701C151.888 22.0016 151.64 21.1467 150.919 20.7608C150.198 20.3748 149.276 20.6038 148.859 21.2724L147.406 23.6058C146.989 24.2743 147.236 25.1291 147.958 25.5151C148.679 25.901 149.601 25.672 150.018 25.0035Z" fill="#605652" stroke="#211E1C" stroke-width="1.91967" stroke-linecap="round" stroke-linejoin="round"/>
<path d="M149.153 21.4735C148.837 21.981 149.025 22.6299 149.572 22.9229C150.12 23.2159 150.82 23.042 151.136 22.5345C151.452 22.027 151.265 21.3781 150.717 21.0851C150.17 20.7921 149.469 20.966 149.153 21.4735Z" fill="#534A46"/>
<path d="M147.741 23.7413C147.425 24.2488 147.612 24.8977 148.16 25.1907C148.707 25.4837 149.407 25.3098 149.724 24.8023C150.04 24.2948 149.852 23.6459 149.305 23.3529C148.757 23.0599 148.057 23.2338 147.741 23.7413Z" fill="#534A46"/>
<path d="M150.018 25.0035L151.471 22.6701C151.888 22.0016 151.64 21.1467 150.919 20.7608C150.198 20.3748 149.276 20.6038 148.859 21.2724L147.406 23.6058C146.989 24.2743 147.236 25.1291 147.958 25.5151C148.679 25.901 149.601 25.672 150.018 25.0035Z" stroke="#211E1C" stroke-width="1.91967" stroke-linecap="round" stroke-linejoin="round"/>
<path fill-rule="evenodd" clip-rule="evenodd" d="M135.656 4.16724L138.573 0.922893L138.586 3.71911C139.707 2.44174 140.822 2.21524 141.928 3.63072L142.008 6.22301L138.921 6.30467L135.656 4.16724Z" fill="#594F4A" stroke="#211E1C" stroke-width="1.91828" stroke-linecap="round" stroke-linejoin="round"/>
<path d="M145.007 5.34619L142.43 4.0992C141.691 3.74194 140.78 4.00706 140.395 4.69135C140.01 5.37563 140.296 6.21997 141.034 6.57723L143.611 7.82421C144.349 8.18147 145.26 7.91635 145.645 7.23207C146.031 6.54778 145.745 5.70344 145.007 5.34619Z" fill="#605652" stroke="#211E1C" stroke-width="1.92034" stroke-linecap="round" stroke-linejoin="round"/>
<path d="M141.238 6.29634C141.799 6.56755 142.49 6.36628 142.783 5.84682C143.075 5.32735 142.858 4.6864 142.298 4.41519C141.737 4.14399 141.046 4.34524 140.753 4.8647C140.461 5.38416 140.678 6.02513 141.238 6.29634Z" fill="#534A46"/>
<path d="M143.743 7.50826C144.303 7.77946 144.994 7.5782 145.287 7.05873C145.58 6.53927 145.363 5.89831 144.802 5.62711C144.242 5.3559 143.55 5.55715 143.258 6.07661C142.965 6.59608 143.182 7.23705 143.743 7.50826Z" fill="#534A46"/>
<path d="M145.007 5.34619L142.43 4.0992C141.691 3.74194 140.78 4.00706 140.395 4.69135C140.01 5.37563 140.296 6.21997 141.034 6.57723L143.611 7.82421C144.349 8.18147 145.26 7.91635 145.645 7.23207C146.031 6.54778 145.745 5.70344 145.007 5.34619Z" stroke="#211E1C" stroke-width="1.92034" stroke-linecap="round" stroke-linejoin="round"/>
<path d="M136.799 4.21271L133.991 4.91007C133.187 5.10986 132.71 5.87628 132.925 6.62191C133.141 7.36754 133.968 7.81004 134.772 7.61025L137.58 6.91289C138.384 6.7131 138.862 5.94668 138.646 5.20105C138.431 4.45542 137.604 4.01292 136.799 4.21271Z" fill="#605652" stroke="#211E1C" stroke-width="1.91828" stroke-linecap="round" stroke-linejoin="round"/>
<path d="M134.718 7.27526C135.328 7.12359 135.691 6.54178 135.527 5.97574C135.363 5.40971 134.736 5.07381 134.125 5.22547C133.514 5.37714 133.152 5.95894 133.316 6.52498C133.479 7.09101 134.107 7.42693 134.718 7.27526Z" fill="#534A46"/>
<path d="M137.447 6.5975C138.057 6.44583 138.42 5.86401 138.256 5.29798C138.092 4.73194 137.465 4.39604 136.854 4.54771C136.243 4.69938 135.881 5.28118 136.045 5.84721C136.208 6.41324 136.836 6.74917 137.447 6.5975Z" fill="#534A46"/>
<path d="M136.799 4.21271L133.991 4.91007C133.187 5.10986 132.71 5.87628 132.925 6.62191C133.141 7.36754 133.968 7.81004 134.772 7.61025L137.58 6.91289C138.384 6.7131 138.862 5.94668 138.646 5.20105C138.431 4.45542 137.604 4.01292 136.799 4.21271Z" stroke="#211E1C" stroke-width="1.91828" stroke-linecap="round" stroke-linejoin="round"/>
<path fill-rule="evenodd" clip-rule="evenodd" d="M150.154 9.6443L154.477 10.979L151.673 12.0102C153.365 12.5113 153.999 13.391 152.981 14.862L150.405 15.8762L149.198 13.2414L150.154 9.6443Z" fill="#594F4A" stroke="#211E1C" stroke-width="1.92011" stroke-linecap="round" stroke-linejoin="round"/>
<path d="M152.38 18.1444L152.693 15.4656C152.783 14.6982 152.184 14.0087 151.356 13.9256C150.528 13.8424 149.784 14.3972 149.694 15.1646L149.381 17.8433C149.292 18.6108 149.89 19.3003 150.718 19.3834C151.546 19.4665 152.29 18.9118 152.38 18.1444Z" fill="#605652" stroke="#211E1C" stroke-width="1.92035" stroke-linecap="round" stroke-linejoin="round"/>
<path d="M150.051 15.2385C149.983 15.8211 150.437 16.3446 151.066 16.4077C151.694 16.4708 152.259 16.0497 152.327 15.4671C152.395 14.8845 151.941 14.361 151.312 14.2979C150.684 14.2348 150.119 14.6559 150.051 15.2385Z" fill="#534A46"/>
<path d="M149.747 17.8419C149.679 18.4245 150.133 18.948 150.762 19.0111C151.39 19.0742 151.955 18.6531 152.023 18.0705C152.091 17.4879 151.637 16.9644 151.008 16.9013C150.38 16.8382 149.815 17.2593 149.747 17.8419Z" fill="#534A46"/>
<path d="M152.38 18.1444L152.693 15.4656C152.783 14.6982 152.184 14.0087 151.356 13.9256C150.528 13.8424 149.784 14.3972 149.694 15.1646L149.381 17.8433C149.292 18.6108 149.89 19.3003 150.718 19.3834C151.546 19.4665 152.29 18.9118 152.38 18.1444Z" stroke="#211E1C" stroke-width="1.92035" stroke-linecap="round" stroke-linejoin="round"/>
<path d="M150.526 10.6478L148.801 8.47871C148.307 7.85728 147.363 7.72475 146.693 8.18268C146.022 8.64061 145.879 9.5156 146.373 10.137L148.098 12.3061C148.592 12.9275 149.536 13.0601 150.206 12.6021C150.877 12.1442 151.02 11.2692 150.526 10.6478Z" fill="#605652" stroke="#211E1C" stroke-width="1.92011" stroke-linecap="round" stroke-linejoin="round"/>
<path d="M146.69 9.96779C147.065 10.4395 147.782 10.5402 148.291 10.1925C148.799 9.84489 148.908 9.18066 148.533 8.70891C148.158 8.23716 147.441 8.13654 146.932 8.48417C146.423 8.8318 146.315 9.49604 146.69 9.96779Z" fill="#534A46"/>
<path d="M148.366 12.0759C148.741 12.5476 149.457 12.6482 149.966 12.3006C150.475 11.953 150.584 11.2887 150.209 10.817C149.834 10.3452 149.117 10.2446 148.608 10.5922C148.099 10.9399 147.991 11.6041 148.366 12.0759Z" fill="#534A46"/>
<path d="M150.526 10.6478L148.801 8.47871C148.307 7.85728 147.363 7.72475 146.693 8.18268C146.022 8.64061 145.879 9.5156 146.373 10.137L148.098 12.3061C148.592 12.9275 149.536 13.0601 150.206 12.6021C150.877 12.1442 151.02 11.2692 150.526 10.6478Z" stroke="#211E1C" stroke-width="1.92011" stroke-linecap="round" stroke-linejoin="round"/>
<path fill-rule="evenodd" clip-rule="evenodd" d="M45.2744 94.3464L41.9305 91.4774L44.944 91.6104C43.6259 90.5069 43.4399 89.4632 45.0225 88.5126L47.8196 88.5735L47.7471 91.4355L45.2744 94.3464Z" fill="#594F4A" stroke="#211E1C" stroke-width="1.91805" stroke-linecap="round" stroke-linejoin="round"/>
<path d="M47.0307 85.7524L45.5532 88.0729C45.1299 88.7376 45.3682 89.5946 46.0854 89.987C46.8027 90.3793 47.7272 90.1585 48.1505 89.4937L49.628 87.1733C50.0513 86.5085 49.813 85.6515 49.0958 85.2592C48.3786 84.8668 47.454 85.0877 47.0307 85.7524Z" fill="#605652" stroke="#211E1C" stroke-width="1.92034" stroke-linecap="round" stroke-linejoin="round"/>
<path d="M47.8585 89.2899C48.1798 88.7853 47.9989 88.1347 47.4545 87.8368C46.91 87.539 46.2081 87.7067 45.8868 88.2113C45.5654 88.716 45.7463 89.3665 46.2908 89.6644C46.8353 89.9622 47.5372 89.7946 47.8585 89.2899Z" fill="#534A46"/>
<path d="M49.2944 87.0348C49.6157 86.5301 49.4348 85.8795 48.8904 85.5817C48.3459 85.2838 47.644 85.4515 47.3227 85.9562C47.0013 86.4608 47.1822 87.1114 47.7267 87.4092C48.2712 87.7071 48.9731 87.5394 49.2944 87.0348Z" fill="#534A46"/>
<path d="M47.0307 85.7524L45.5532 88.0729C45.1299 88.7376 45.3682 89.5946 46.0854 89.987C46.8027 90.3793 47.7272 90.1585 48.1505 89.4937L49.628 87.1733C50.0513 86.5085 49.813 85.6515 49.0958 85.2592C48.3786 84.8668 47.454 85.0877 47.0307 85.7524Z" stroke="#211E1C" stroke-width="1.92034" stroke-linecap="round" stroke-linejoin="round"/>
<path d="M45.3828 93.2904L45.9882 95.9257C46.1616 96.6807 46.9626 97.1624 47.7772 97.0016C48.5917 96.8409 49.1115 96.0985 48.938 95.3435L48.3327 92.7082C48.1592 91.9532 47.3583 91.4715 46.5437 91.6322C45.7291 91.793 45.2094 92.5354 45.3828 93.2904Z" fill="#605652" stroke="#211E1C" stroke-width="1.91805" stroke-linecap="round" stroke-linejoin="round"/>
<path d="M48.5743 95.3766C48.4426 94.8035 47.8346 94.4378 47.2162 94.5598C46.5978 94.6818 46.2033 95.2454 46.335 95.8185C46.4666 96.3917 47.0746 96.7574 47.693 96.6354C48.3114 96.5133 48.7059 95.9498 48.5743 95.3766Z" fill="#534A46"/>
<path d="M47.9859 92.8154C47.8542 92.2422 47.2462 91.8765 46.6278 91.9986C46.0095 92.1206 45.6149 92.6841 45.7466 93.2573C45.8783 93.8305 46.4863 94.1961 47.1046 94.0741C47.723 93.9521 48.1176 93.3885 47.9859 92.8154Z" fill="#534A46"/>
<path d="M45.3828 93.2904L45.9882 95.9257C46.1616 96.6807 46.9626 97.1624 47.7772 97.0016C48.5917 96.8409 49.1115 96.0985 48.938 95.3435L48.3327 92.7082C48.1592 91.9532 47.3583 91.4715 46.5437 91.6322C45.7291 91.793 45.2094 92.5354 45.3828 93.2904Z" stroke="#211E1C" stroke-width="1.91805" stroke-linecap="round" stroke-linejoin="round"/>
<path fill-rule="evenodd" clip-rule="evenodd" d="M52.9363 105.726L48.7298 107.349L50.1149 104.865C48.4837 105.517 47.3823 105.239 47.1088 103.51L48.333 101.178L51.1103 102.43L52.9363 105.726Z" fill="#594F4A" stroke="#211E1C" stroke-width="1.91809" stroke-linecap="round" stroke-linejoin="round"/>
<path d="M45.2372 100.668L46.8983 102.879C47.3742 103.513 48.3141 103.668 48.9975 103.227C49.681 102.786 49.8493 101.915 49.3734 101.282L47.7123 99.0705C47.2364 98.437 46.2965 98.2811 45.613 98.7222C44.9296 99.1633 44.7613 100.034 45.2372 100.668Z" fill="#605652" stroke="#211E1C" stroke-width="1.92034" stroke-linecap="round" stroke-linejoin="round"/>
<path d="M49.052 101.443C48.6907 100.962 47.9773 100.844 47.4584 101.179C46.9396 101.513 46.8119 102.175 47.1731 102.656C47.5344 103.136 48.2479 103.255 48.7667 102.92C49.2855 102.585 49.4133 101.924 49.052 101.443Z" fill="#534A46"/>
<path d="M47.4376 99.2939C47.0764 98.813 46.3629 98.6946 45.8441 99.0295C45.3252 99.3643 45.1975 100.026 45.5588 100.507C45.92 100.987 46.6335 101.106 47.1523 100.771C47.6712 100.436 47.7989 99.7748 47.4376 99.2939Z" fill="#534A46"/>
<path d="M45.2372 100.668L46.8983 102.879C47.3742 103.513 48.3141 103.668 48.9975 103.227C49.681 102.786 49.8493 101.915 49.3734 101.282L47.7123 99.0705C47.2364 98.437 46.2965 98.2811 45.613 98.7222C44.9296 99.1633 44.7613 100.034 45.2372 100.668Z" stroke="#211E1C" stroke-width="1.92034" stroke-linecap="round" stroke-linejoin="round"/>
<path d="M51.9455 105.195L54.7826 105.782C55.5955 105.95 56.4015 105.475 56.5829 104.722C56.7643 103.969 56.2524 103.222 55.4396 103.053L52.6025 102.466C51.7896 102.298 50.9837 102.773 50.8022 103.526C50.6208 104.28 51.1327 105.027 51.9455 105.195Z" fill="#605652" stroke="#211E1C" stroke-width="1.91809" stroke-linecap="round" stroke-linejoin="round"/>
<path d="M55.3207 103.374C54.7036 103.246 54.0918 103.606 53.9541 104.178C53.8163 104.75 54.2049 105.317 54.822 105.445C55.439 105.573 56.0509 105.212 56.1886 104.64C56.3263 104.069 55.9377 103.501 55.3207 103.374Z" fill="#534A46"/>
<path d="M52.5634 102.803C51.9463 102.676 51.3345 103.036 51.1967 103.608C51.059 104.18 51.4476 104.747 52.0646 104.874C52.6817 105.002 53.2935 104.642 53.4312 104.07C53.569 103.498 53.1804 102.931 52.5634 102.803Z" fill="#534A46"/>
<path d="M51.9455 105.195L54.7826 105.782C55.5955 105.95 56.4015 105.475 56.5829 104.722C56.7643 103.969 56.2524 103.222 55.4396 103.053L52.6025 102.466C51.7896 102.298 50.9837 102.773 50.8022 103.526C50.6208 104.28 51.1327 105.027 51.9455 105.195Z" stroke="#211E1C" stroke-width="1.91809" stroke-linecap="round" stroke-linejoin="round"/>
<path fill-rule="evenodd" clip-rule="evenodd" d="M26.679 70.4418C25.366 65.9003 30.0432 61.1059 34.3079 65.0587L46.8704 76.9386L43.8164 80.0498L32.1284 69.4666L37.7176 96.2975L32.2681 97.2728L26.679 70.4418Z" fill="#3A3930" stroke="#21211C" stroke-width="2.55679" stroke-linecap="round" stroke-linejoin="round"/>
<path d="M13.4518 85.699L8.92163 96.1606L15.8413 98.7348L20.3714 88.2732L13.4518 85.699Z" fill="#40403E" stroke="#1F1F1E" stroke-width="2.30209" stroke-linecap="round" stroke-linejoin="round"/>
<path fill-rule="evenodd" clip-rule="evenodd" d="M17.1512 94.9493L10.5719 92.5017L17.1512 94.9493Z" fill="#40403E"/>
<path d="M17.1512 94.9493L10.5719 92.5017" stroke="#2F2F2D" stroke-width="1.27839" stroke-linecap="round" stroke-linejoin="round"/>
<path d="M13.4518 85.699L8.92163 96.1606L15.8413 98.7348L20.3714 88.2732L13.4518 85.699Z" stroke="#1F1F1E" stroke-width="2.55855" stroke-linecap="round" stroke-linejoin="round"/>
<path fill-rule="evenodd" clip-rule="evenodd" d="M38.9165 76.0287L46.4687 69.0286L50.3039 72.5833L42.7516 79.5834L38.9165 76.0287Z" fill="#908D78" stroke="#21211C" stroke-width="2.55679" stroke-linecap="round" stroke-linejoin="round"/>
<path fill-rule="evenodd" clip-rule="evenodd" d="M12.5598 119.646L17.9896 121.345C17.8193 118.916 18.4163 117.344 20.1736 115.272L17.2252 109.84" fill="#DF3737"/>
<path d="M12.5598 119.646L17.9896 121.345C17.8193 118.916 18.4164 117.344 20.1736 115.272L17.2252 109.84" stroke="#581E16" stroke-width="2.55679" stroke-linecap="round" stroke-linejoin="round"/>
<path fill-rule="evenodd" clip-rule="evenodd" d="M5.44106 126.547L2.56543 123.881L9.33577 118.078" fill="#DF3737"/>
<path d="M5.44106 126.547L2.56543 123.881L9.33577 118.078" stroke="#581E16" stroke-width="2.55679" stroke-linecap="round" stroke-linejoin="round"/>
<path fill-rule="evenodd" clip-rule="evenodd" d="M18.3865 105.284C14.9839 108.437 13.0393 109.752 10.5253 115.685L1.51448 136.273C1.14051 137.082 1.33538 138.021 2.0066 138.643L9.84575 145.909C10.7532 146.75 12.2237 146.75 13.1311 145.909L34.2954 126.293L26.3509 120.548C28.5513 122.588 28.6213 125.461 25.8821 128L13.5338 139.446C13.2652 139.695 12.9463 139.892 12.5954 140.027C12.2444 140.162 11.8683 140.231 11.4884 140.231C11.1086 140.231 10.7324 140.162 10.3815 140.027C10.0306 139.892 9.71167 139.695 9.44307 139.446L8.31147 138.397C7.74594 137.873 7.35941 137.206 7.20009 136.479C7.04077 135.753 7.1157 134.999 7.41555 134.312L15.6774 115.376C16.6108 112.855 18.9132 113.48 20.2249 114.696L22.6167 107.587L18.3865 105.284Z" fill="#40403E" stroke="#1F1F1E" stroke-width="2.56047" stroke-linejoin="round"/>
<path fill-rule="evenodd" clip-rule="evenodd" d="M47.0461 76.1732C38.1512 71.5223 33.5388 78.079 28.8909 84.5425L19.2152 83.6766L11.6265 100.682L39.8247 126.819L48.3259 118.939L43.7358 83.8759L47.0461 76.1732Z" fill="#DF3737" stroke="#581E16" stroke-width="2.55679" stroke-linecap="round" stroke-linejoin="round"/>
<path fill-rule="evenodd" clip-rule="evenodd" d="M17.1731 112.107L18.0776 111.268L23.7028 106.054L39.9164 121.082L33.3867 127.135L17.1731 112.107Z" fill="#40403E" stroke="#1F1F1E" stroke-width="2.55679" stroke-linejoin="round"/>
<path d="M24.9923 111.399C25.4654 110.961 25.4654 110.25 24.9923 109.811C24.5192 109.373 23.7522 109.373 23.2791 109.811C22.806 110.25 22.806 110.961 23.2791 111.399C23.7522 111.838 24.5192 111.838 24.9923 111.399Z" fill="#979794"/>
<path d="M35.8634 121.475C36.3365 121.037 36.3365 120.326 35.8634 119.887C35.3903 119.449 34.6233 119.449 34.1502 119.887C33.6771 120.326 33.6771 121.037 34.1502 121.475C34.6233 121.914 35.3903 121.914 35.8634 121.475Z" fill="#979794"/>
<path fill-rule="evenodd" clip-rule="evenodd" d="M56.8412 66.9521L49.0062 74.2141C47.9618 75.1822 47.2093 76.3871 46.8238 77.7088C46.4382 79.0304 46.4331 80.4226 46.809 81.7466L56.6935 116.568L48.5279 124.723L38.974 85.9679C38.7078 84.8883 38.7416 83.7637 39.0723 82.6995C39.4029 81.6353 40.0196 80.6662 40.8644 79.8832L55.8284 66.0134L56.8412 66.9521Z" fill="#B7B3AD" stroke="#21211C" stroke-width="2.56047" stroke-linecap="round" stroke-linejoin="round"/>
<path d="M36.9015 92.9499L31.452 93.9251L34.982 110.871L40.4315 109.895L36.9015 92.9499Z" fill="#B1AFA2" stroke="#21211C" stroke-width="2.5573" stroke-linecap="round" stroke-linejoin="round"/>
<path fill-rule="evenodd" clip-rule="evenodd" d="M32.1284 69.4666L37.7176 96.2975L32.2681 97.2728L26.6788 70.4419" fill="#3A3930"/>
<path d="M32.1284 69.4666L37.7176 96.2975L32.2681 97.2728L26.6788 70.4419" stroke="#21211C" stroke-width="2.55679" stroke-linecap="round" stroke-linejoin="round"/>
<path d="M35.567 100.111C36.4893 99.946 37.0926 99.1191 36.9146 98.2643C36.7365 97.4094 35.8444 96.8502 34.9221 97.0152C33.9998 97.1803 33.3964 98.0071 33.5745 98.862C33.7526 99.7169 34.6447 100.276 35.567 100.111Z" fill="#B1AFA2" stroke="#21211C" stroke-width="1.27865" stroke-linecap="round" stroke-linejoin="round"/>
<path d="M36.9615 106.805C37.8838 106.64 38.4872 105.813 38.3091 104.958C38.131 104.103 37.2389 103.544 36.3166 103.709C35.3943 103.874 34.791 104.701 34.9691 105.556C35.1471 106.411 36.0392 106.97 36.9615 106.805Z" fill="#B1AFA2" stroke="#21211C" stroke-width="1.27865" stroke-linecap="round" stroke-linejoin="round"/>
</g>
<defs>
<clipPath id="clip0_184_1129">
<rect width="155.473" height="147.763" fill="white"/>
</clipPath>
</defs>
</svg>
