<svg width="156" height="148" viewBox="0 0 156 148" fill="none" xmlns="http://www.w3.org/2000/svg">
<g clip-path="url(#clip0_204_506)">
<path fill-rule="evenodd" clip-rule="evenodd" d="M56.0169 114.519L80.6208 91.7146L55.727 68.6411L41.9204 81.4381L48.9007 105.584" fill="#A49F98"/>
<path d="M56.0169 114.519L80.6208 91.7146L55.727 68.6411L41.9204 81.4381L48.9007 105.584" stroke="#21211C" stroke-width="2.55679" stroke-linecap="round" stroke-linejoin="round"/>
<path fill-rule="evenodd" clip-rule="evenodd" d="M148.313 21.407L132.576 38.4423C114.372 57.1231 99.5348 70.56 76.1019 92.7589C68.4899 98.1972 64.5896 103.22 55.293 102.812C52.335 101.531 49.2771 100.36 47.683 97.5845L45.2124 91.2394C46.1131 86.3512 47.0046 83.6736 51.7256 78.3308L55.0697 75.6063L124.588 12.3619L137.48 3.23387L145.538 4.22965L151.894 10.6193L152.431 17.0919L148.313 21.407Z" fill="#B7B3AD" stroke="#21211C" stroke-width="1.27839" stroke-linecap="round" stroke-linejoin="round"/>
<path d="M62.0052 96.135C64.4211 93.8957 64.4211 90.2652 62.0052 88.0259C59.5893 85.7867 55.6723 85.7867 53.2565 88.026C50.8406 90.2652 50.8405 93.8957 53.2564 96.135C55.6723 98.3742 59.5893 98.3742 62.0052 96.135Z" fill="#343432" stroke="#201F1E" stroke-width="2.56047" stroke-linecap="round" stroke-linejoin="round"/>
<path d="M60.3702 94.6196C61.8831 93.2172 61.8831 90.9436 60.3702 89.5413C58.8572 88.139 56.4042 88.139 54.8913 89.5413C53.3783 90.9436 53.3784 93.2172 54.8913 94.6195C56.4043 96.0219 58.8572 96.0219 60.3702 94.6196Z" fill="#3C3C3A"/>
<path fill-rule="evenodd" clip-rule="evenodd" d="M59.4638 91.6252L59.7256 92.6007L58.9726 93.3241L58.1921 94.022L57.1397 93.7793L56.0973 93.5018L55.7979 92.5356L55.536 91.5602L56.289 90.8367L57.0695 90.1388L58.122 90.3815L59.1643 90.659L59.4638 91.6252Z" fill="#979794"/>
<path fill-rule="evenodd" clip-rule="evenodd" d="M116.499 57.2807L116.782 61.496L114.701 59.4716C114.832 61.1133 114.19 61.9875 112.337 61.6627L110.358 59.8289L112.542 57.8046L116.499 57.2807Z" fill="#594F4A" stroke="#211E1C" stroke-width="1.92036" stroke-linecap="round" stroke-linejoin="round"/>
<path d="M109.448 63.2661L111.503 61.3609C112.092 60.8151 112.092 59.9301 111.503 59.3842C110.914 58.8384 109.96 58.8384 109.371 59.3842L107.315 61.2894C106.726 61.8353 106.726 62.7203 107.315 63.2661C107.904 63.8119 108.859 63.812 109.448 63.2661Z" fill="#605652" stroke="#211E1C" stroke-width="1.92036" stroke-linecap="round" stroke-linejoin="round"/>
<path d="M109.599 59.6491C109.152 60.0634 109.152 60.7353 109.599 61.1496C110.046 61.564 110.771 61.564 111.218 61.1496C111.665 60.7353 111.665 60.0634 111.218 59.6491C110.771 59.2347 110.046 59.2347 109.599 59.6491Z" fill="#534A46"/>
<path d="M107.601 61.5007C107.154 61.9151 107.154 62.5869 107.601 63.0013C108.048 63.4156 108.773 63.4156 109.22 63.0013C109.667 62.5869 109.667 61.9151 109.22 61.5007C108.773 61.0864 108.048 61.0864 107.601 61.5007Z" fill="#534A46"/>
<path d="M109.448 63.2661L111.503 61.3609C112.092 60.8151 112.092 59.9301 111.503 59.3842C110.914 58.8384 109.96 58.8384 109.371 59.3842L107.315 61.2894C106.726 61.8353 106.726 62.7203 107.315 63.2661C107.904 63.8119 108.859 63.812 109.448 63.2661Z" stroke="#211E1C" stroke-width="1.92036" stroke-linecap="round" stroke-linejoin="round"/>
<path d="M114.799 58.4146L116.854 56.5094C117.443 55.9636 117.443 55.0786 116.854 54.5327C116.265 53.9869 115.311 53.9869 114.722 54.5327L112.666 56.4379C112.077 56.9838 112.077 57.8688 112.666 58.4146C113.255 58.9604 114.21 58.9605 114.799 58.4146Z" fill="#605652" stroke="#211E1C" stroke-width="1.92036" stroke-linecap="round" stroke-linejoin="round"/>
<path d="M114.95 54.7975C114.503 55.2119 114.503 55.8837 114.95 56.2981C115.397 56.7124 116.122 56.7124 116.569 56.2981C117.016 55.8837 117.016 55.2119 116.569 54.7975C116.122 54.3832 115.397 54.3832 114.95 54.7975Z" fill="#534A46"/>
<path d="M112.952 56.6491C112.505 57.0635 112.505 57.7353 112.952 58.1497C113.399 58.5641 114.124 58.5641 114.571 58.1497C115.018 57.7353 115.018 57.0635 114.571 56.6492C114.124 56.2348 113.399 56.2348 112.952 56.6491Z" fill="#534A46"/>
<path d="M114.799 58.4146L116.854 56.5094C117.443 55.9636 117.443 55.0786 116.854 54.5327C116.265 53.9869 115.311 53.9869 114.722 54.5327L112.666 56.4379C112.077 56.9838 112.077 57.8688 112.666 58.4146C113.255 58.9604 114.21 58.9605 114.799 58.4146Z" stroke="#211E1C" stroke-width="1.92036" stroke-linecap="round" stroke-linejoin="round"/>
<path fill-rule="evenodd" clip-rule="evenodd" d="M126.6 47.2161L127.088 51.4151L124.91 49.4804C125.122 51.1149 124.523 52.0152 122.656 51.7686L120.59 50.02L122.672 47.9059L126.6 47.2161Z" fill="#594F4A" stroke="#211E1C" stroke-width="1.92033" stroke-linecap="round" stroke-linejoin="round"/>
<path d="M119.848 53.4919L121.809 51.5022C122.37 50.9322 122.327 50.0481 121.712 49.5276C121.097 49.0071 120.143 49.0472 119.581 49.6173L117.621 51.607C117.06 52.177 117.103 53.0611 117.718 53.5816C118.333 54.1021 119.287 54.062 119.848 53.4919Z" fill="#605652" stroke="#211E1C" stroke-width="1.92033" stroke-linecap="round" stroke-linejoin="round"/>
<path d="M119.822 49.8723C119.396 50.305 119.429 50.9761 119.896 51.3713C120.363 51.7664 121.087 51.7359 121.513 51.3032C121.939 50.8704 121.906 50.1993 121.439 49.8042C120.973 49.409 120.248 49.4395 119.822 49.8723Z" fill="#534A46"/>
<path d="M117.917 51.806C117.491 52.2388 117.524 52.9099 117.991 53.305C118.457 53.7002 119.182 53.6697 119.608 53.2369C120.034 52.8042 120.001 52.1331 119.534 51.7379C119.068 51.3428 118.343 51.3733 117.917 51.806Z" fill="#534A46"/>
<path d="M119.848 53.4919L121.809 51.5022C122.37 50.9322 122.327 50.0481 121.712 49.5276C121.097 49.0071 120.143 49.0472 119.581 49.6173L117.621 51.607C117.06 52.177 117.103 53.0611 117.718 53.5816C118.333 54.1021 119.287 54.062 119.848 53.4919Z" stroke="#211E1C" stroke-width="1.92033" stroke-linecap="round" stroke-linejoin="round"/>
<path d="M124.957 48.4203L126.917 46.4306C127.478 45.8606 127.435 44.9765 126.82 44.456C126.205 43.9355 125.251 43.9756 124.689 44.5457L122.729 46.5354C122.168 47.1054 122.211 47.9895 122.826 48.51C123.441 49.0305 124.395 48.9903 124.957 48.4203Z" fill="#605652" stroke="#211E1C" stroke-width="1.92033" stroke-linecap="round" stroke-linejoin="round"/>
<path d="M124.93 44.8006C124.504 45.2334 124.537 45.9045 125.004 46.2996C125.471 46.6948 126.195 46.6643 126.621 46.2316C127.047 45.7988 127.014 45.1277 126.547 44.7326C126.081 44.3374 125.357 44.3679 124.93 44.8006Z" fill="#534A46"/>
<path d="M123.025 46.7344C122.599 47.1671 122.632 47.8382 123.099 48.2334C123.566 48.6285 124.29 48.598 124.716 48.1653C125.142 47.7326 125.109 47.0614 124.642 46.6663C124.176 46.2712 123.451 46.3016 123.025 46.7344Z" fill="#534A46"/>
<path d="M124.957 48.4203L126.917 46.4306C127.478 45.8606 127.435 44.9765 126.82 44.456C126.205 43.9355 125.251 43.9756 124.689 44.5457L122.729 46.5354C122.168 47.1054 122.211 47.9895 122.826 48.51C123.441 49.0305 124.395 48.9903 124.957 48.4203Z" stroke="#211E1C" stroke-width="1.92033" stroke-linecap="round" stroke-linejoin="round"/>
<path fill-rule="evenodd" clip-rule="evenodd" d="M136.471 36.9765L136.96 41.1755L134.782 39.2408C134.994 40.8752 134.394 41.7756 132.527 41.529L130.461 39.7803L132.544 37.6663L136.471 36.9765Z" fill="#594F4A" stroke="#211E1C" stroke-width="1.92033" stroke-linecap="round" stroke-linejoin="round"/>
<path d="M129.72 43.2523L131.68 41.2626C132.242 40.6925 132.198 39.8085 131.583 39.288C130.968 38.7675 130.015 38.8076 129.453 39.3776L127.493 41.3673C126.931 41.9374 126.975 42.8215 127.59 43.342C128.205 43.8625 129.158 43.8223 129.72 43.2523Z" fill="#605652" stroke="#211E1C" stroke-width="1.92033" stroke-linecap="round" stroke-linejoin="round"/>
<path d="M129.694 39.6327C129.267 40.0654 129.3 40.7365 129.767 41.1317C130.234 41.5268 130.958 41.4963 131.384 41.0636C131.811 40.6308 131.778 39.9597 131.311 39.5646C130.844 39.1695 130.12 39.1999 129.694 39.6327Z" fill="#534A46"/>
<path d="M127.789 41.5664C127.362 41.9991 127.395 42.6703 127.862 43.0654C128.329 43.4605 129.053 43.4301 129.479 42.9973C129.906 42.5646 129.873 41.8935 129.406 41.4983C128.939 41.1032 128.215 41.1337 127.789 41.5664Z" fill="#534A46"/>
<path d="M129.72 43.2523L131.68 41.2626C132.242 40.6925 132.198 39.8085 131.583 39.288C130.968 38.7675 130.015 38.8076 129.453 39.3776L127.493 41.3673C126.931 41.9374 126.975 42.8215 127.59 43.342C128.205 43.8625 129.158 43.8223 129.72 43.2523Z" stroke="#211E1C" stroke-width="1.92033" stroke-linecap="round" stroke-linejoin="round"/>
<path d="M134.828 38.1807L136.788 36.191C137.35 35.6209 137.306 34.7369 136.691 34.2164C136.076 33.6959 135.123 33.736 134.561 34.306L132.601 36.2958C132.039 36.8658 132.083 37.7499 132.698 38.2704C133.313 38.7909 134.267 38.7507 134.828 38.1807Z" fill="#605652" stroke="#211E1C" stroke-width="1.92033" stroke-linecap="round" stroke-linejoin="round"/>
<path d="M134.802 34.561C134.375 34.9937 134.408 35.6649 134.875 36.06C135.342 36.4551 136.066 36.4247 136.493 35.9919C136.919 35.5592 136.886 34.8881 136.419 34.4929C135.952 34.0978 135.228 34.1283 134.802 34.561Z" fill="#534A46"/>
<path d="M132.897 36.4947C132.47 36.9275 132.503 37.5986 132.97 37.9937C133.437 38.3889 134.161 38.3584 134.587 37.9257C135.014 37.4929 134.981 36.8218 134.514 36.4267C134.047 36.0315 133.323 36.062 132.897 36.4947Z" fill="#534A46"/>
<path d="M134.828 38.1807L136.788 36.191C137.35 35.6209 137.306 34.7369 136.691 34.2164C136.076 33.6959 135.123 33.736 134.561 34.306L132.601 36.2958C132.039 36.8658 132.083 37.7499 132.698 38.2704C133.313 38.7909 134.267 38.7507 134.828 38.1807Z" stroke="#211E1C" stroke-width="1.92033" stroke-linecap="round" stroke-linejoin="round"/>
<path fill-rule="evenodd" clip-rule="evenodd" d="M146.272 26.6785L146.913 30.86L144.666 28.9943C144.937 30.6212 144.371 31.5397 142.496 31.3515L140.368 29.6682L142.373 27.4904L146.272 26.6785Z" fill="#594F4A" stroke="#211E1C" stroke-width="1.92029" stroke-linecap="round" stroke-linejoin="round"/>
<path d="M139.753 33.1614L141.64 31.1117C142.18 30.5244 142.105 29.6422 141.471 29.1412C140.838 28.6401 139.886 28.71 139.346 29.2972L137.459 31.347C136.918 31.9342 136.994 32.8164 137.627 33.3174C138.261 33.8185 139.213 33.7486 139.753 33.1614Z" fill="#605652" stroke="#211E1C" stroke-width="1.92029" stroke-linecap="round" stroke-linejoin="round"/>
<path d="M139.595 29.5446C139.185 29.9904 139.242 30.6601 139.723 31.0404C140.204 31.4208 140.927 31.3678 141.337 30.922C141.747 30.4762 141.69 29.8065 141.209 29.4261C140.728 29.0458 140.006 29.0988 139.595 29.5446Z" fill="#534A46"/>
<path d="M137.762 31.5367C137.351 31.9825 137.409 32.6522 137.889 33.0325C138.37 33.4129 139.093 33.3598 139.503 32.914C139.914 32.4683 139.856 31.7985 139.375 31.4182C138.895 31.0378 138.172 31.0909 137.762 31.5367Z" fill="#534A46"/>
<path d="M139.753 33.1614L141.64 31.1117C142.18 30.5244 142.105 29.6422 141.471 29.1412C140.838 28.6401 139.886 28.71 139.346 29.2972L137.459 31.347C136.918 31.9342 136.994 32.8164 137.627 33.3174C138.261 33.8185 139.213 33.7486 139.753 33.1614Z" stroke="#211E1C" stroke-width="1.92029" stroke-linecap="round" stroke-linejoin="round"/>
<path d="M144.674 27.9333L146.561 25.8836C147.101 25.2964 147.026 24.4142 146.392 23.9132C145.759 23.4121 144.807 23.482 144.266 24.0692L142.38 26.1189C141.839 26.7062 141.914 27.5884 142.548 28.0894C143.182 28.5904 144.133 28.5206 144.674 27.9333Z" fill="#605652" stroke="#211E1C" stroke-width="1.92029" stroke-linecap="round" stroke-linejoin="round"/>
<path d="M144.516 24.3165C144.106 24.7623 144.163 25.432 144.644 25.8124C145.125 26.1927 145.848 26.1397 146.258 25.6939C146.668 25.2481 146.611 24.5784 146.13 24.1981C145.649 23.8177 144.927 23.8707 144.516 24.3165Z" fill="#534A46"/>
<path d="M142.683 26.3086C142.272 26.7544 142.329 27.4241 142.81 27.8045C143.291 28.1848 144.014 28.1318 144.424 27.686C144.835 27.2402 144.777 26.5705 144.296 26.1901C143.815 25.8098 143.093 25.8628 142.683 26.3086Z" fill="#534A46"/>
<path d="M144.674 27.9333L146.561 25.8836C147.101 25.2964 147.026 24.4142 146.392 23.9132C145.759 23.4121 144.807 23.482 144.266 24.0692L142.38 26.1189C141.839 26.7062 141.914 27.5884 142.548 28.0894C143.182 28.5904 144.133 28.5206 144.674 27.9333Z" stroke="#211E1C" stroke-width="1.92029" stroke-linecap="round" stroke-linejoin="round"/>
<path fill-rule="evenodd" clip-rule="evenodd" d="M127.886 8.14026L128.005 3.91828L129.885 6.10466C129.91 4.45861 130.634 3.64025 132.448 4.11511L134.245 6.10326L131.877 7.94139L127.886 8.14026Z" fill="#594F4A" stroke="#211E1C" stroke-width="1.92027" stroke-linecap="round" stroke-linejoin="round"/>
<path d="M136.368 3.18318L133.733 4.31962C132.978 4.6452 132.65 5.47653 133.002 6.17644C133.353 6.87635 134.25 7.17981 135.005 6.85423L137.641 5.71779C138.396 5.3922 138.723 4.56088 138.372 3.86097C138.021 3.16105 137.124 2.85759 136.368 3.18318Z" fill="#605652" stroke="#211E1C" stroke-width="1.92029" stroke-linecap="round" stroke-linejoin="round"/>
<path d="M134.889 6.53299C135.462 6.28583 135.71 5.65473 135.444 5.12341C135.177 4.59208 134.496 4.36173 133.923 4.60889C133.35 4.85605 133.101 5.48713 133.368 6.01845C133.635 6.54978 134.315 6.78015 134.889 6.53299Z" fill="#534A46"/>
<path d="M137.45 5.42851C138.024 5.18135 138.272 4.55026 138.005 4.01893C137.739 3.4876 137.058 3.25725 136.485 3.50441C135.911 3.75157 135.663 4.38265 135.929 4.91398C136.196 5.4453 136.877 5.67568 137.45 5.42851Z" fill="#534A46"/>
<path d="M136.368 3.18318L133.733 4.31962C132.978 4.6452 132.65 5.47653 133.002 6.17644C133.353 6.87635 134.25 7.17981 135.005 6.85423L137.641 5.71779C138.396 5.3922 138.723 4.56088 138.372 3.86097C138.021 3.16105 137.124 2.85759 136.368 3.18318Z" stroke="#211E1C" stroke-width="1.92029" stroke-linecap="round" stroke-linejoin="round"/>
<path d="M129.687 7.14954L127.459 8.87955C126.82 9.37519 126.736 10.2567 127.271 10.8485C127.805 11.4403 128.757 11.5183 129.395 11.0226L131.624 9.29262C132.262 8.79698 132.346 7.91545 131.811 7.32365C131.277 6.73186 130.326 6.6539 129.687 7.14954Z" fill="#605652" stroke="#211E1C" stroke-width="1.92027" stroke-linecap="round" stroke-linejoin="round"/>
<path d="M129.193 10.7402C129.678 10.364 129.742 9.69478 129.336 9.24553C128.93 8.79628 128.208 8.7371 127.723 9.11336C127.238 9.48962 127.175 10.1588 127.58 10.6081C127.986 11.0573 128.708 11.1165 129.193 10.7402Z" fill="#534A46"/>
<path d="M131.359 9.05889C131.844 8.68264 131.908 8.01343 131.502 7.56418C131.096 7.11492 130.374 7.05575 129.889 7.43201C129.404 7.80827 129.34 8.47746 129.746 8.92672C130.152 9.37597 130.874 9.43515 131.359 9.05889Z" fill="#534A46"/>
<path d="M129.687 7.14954L127.459 8.87955C126.82 9.37519 126.736 10.2567 127.271 10.8485C127.805 11.4403 128.757 11.5183 129.395 11.0226L131.624 9.29262C132.262 8.79698 132.346 7.91545 131.811 7.32365C131.277 6.73186 130.326 6.6539 129.687 7.14954Z" stroke="#211E1C" stroke-width="1.92027" stroke-linecap="round" stroke-linejoin="round"/>
<path fill-rule="evenodd" clip-rule="evenodd" d="M116.805 16.8184L116.816 12.595L118.752 14.7392C118.734 13.0931 119.436 12.259 121.263 12.6936L123.11 14.6414L120.79 16.5314L116.805 16.8184Z" fill="#594F4A" stroke="#211E1C" stroke-width="1.92031" stroke-linecap="round" stroke-linejoin="round"/>
<path d="M124.257 11.2656L122.074 13.0444C121.448 13.554 121.387 14.4371 121.937 15.0169C122.486 15.5967 123.439 15.6537 124.065 15.144L126.248 13.3653C126.874 12.8556 126.935 11.9725 126.385 11.3927C125.835 10.8129 124.883 10.756 124.257 11.2656Z" fill="#605652" stroke="#211E1C" stroke-width="1.92031" stroke-linecap="round" stroke-linejoin="round"/>
<path d="M123.856 14.8661C124.33 14.4793 124.377 13.8089 123.96 13.3687C123.542 12.9286 122.819 12.8854 122.344 13.2722C121.869 13.6591 121.823 14.3295 122.24 14.7697C122.657 15.2098 123.381 15.253 123.856 14.8661Z" fill="#534A46"/>
<path d="M125.978 13.1374C126.453 12.7505 126.499 12.0801 126.082 11.64C125.664 11.1998 124.941 11.1566 124.466 11.5435C123.991 11.9303 123.945 12.6008 124.362 13.0409C124.779 13.4811 125.503 13.5243 125.978 13.1374Z" fill="#534A46"/>
<path d="M124.257 11.2656L122.074 13.0444C121.448 13.554 121.387 14.4371 121.937 15.0169C122.486 15.5967 123.439 15.6537 124.065 15.144L126.248 13.3653C126.874 12.8556 126.935 11.9725 126.385 11.3927C125.835 10.8129 124.883 10.756 124.257 11.2656Z" stroke="#211E1C" stroke-width="1.92031" stroke-linecap="round" stroke-linejoin="round"/>
<path d="M118.581 15.7882L116.397 17.567C115.772 18.0766 115.71 18.9598 116.26 19.5396C116.81 20.1194 117.763 20.1763 118.388 19.6667L120.572 17.8879C121.197 17.3783 121.259 16.4951 120.709 15.9153C120.159 15.3355 119.206 15.2786 118.581 15.7882Z" fill="#605652" stroke="#211E1C" stroke-width="1.92031" stroke-linecap="round" stroke-linejoin="round"/>
<path d="M118.179 19.3888C118.654 19.0019 118.701 18.3315 118.283 17.8914C117.866 17.4512 117.143 17.408 116.668 17.7949C116.193 18.1817 116.146 18.8522 116.564 19.2923C116.981 19.7325 117.704 19.7757 118.179 19.3888Z" fill="#534A46"/>
<path d="M120.301 17.66C120.776 17.2732 120.823 16.6027 120.405 16.1626C119.988 15.7224 119.265 15.6792 118.79 16.0661C118.315 16.453 118.268 17.1234 118.686 17.5635C119.103 18.0037 119.826 18.0469 120.301 17.66Z" fill="#534A46"/>
<path d="M118.581 15.7882L116.397 17.567C115.772 18.0766 115.71 18.9598 116.26 19.5396C116.81 20.1194 117.763 20.1763 118.388 19.6667L120.572 17.8879C121.197 17.3783 121.259 16.4951 120.709 15.9153C120.159 15.3355 119.206 15.2786 118.581 15.7882Z" stroke="#211E1C" stroke-width="1.92031" stroke-linecap="round" stroke-linejoin="round"/>
<path fill-rule="evenodd" clip-rule="evenodd" d="M106.11 25.8534L105.852 21.6368L107.921 23.6716C107.799 22.0292 108.447 21.1583 110.298 21.4924L112.265 23.3361L110.07 25.3494L106.11 25.8534Z" fill="#594F4A" stroke="#211E1C" stroke-width="1.92036" stroke-linecap="round" stroke-linejoin="round"/>
<path d="M113.196 19.9036L111.129 21.7984C110.537 22.3413 110.532 23.2263 111.118 23.7751C111.703 24.3239 112.658 24.3287 113.25 23.7858L115.317 21.891C115.909 21.3481 115.914 20.4631 115.329 19.9143C114.743 19.3655 113.788 19.3607 113.196 19.9036Z" fill="#605652" stroke="#211E1C" stroke-width="1.92036" stroke-linecap="round" stroke-linejoin="round"/>
<path d="M113.024 23.5198C113.473 23.1076 113.477 22.4358 113.033 22.0192C112.588 21.6026 111.863 21.599 111.414 22.0111C110.964 22.4232 110.96 23.095 111.405 23.5116C111.85 23.9282 112.574 23.9319 113.024 23.5198Z" fill="#534A46"/>
<path d="M115.032 21.6782C115.482 21.2661 115.486 20.5943 115.041 20.1777C114.597 19.7611 113.872 19.7574 113.422 20.1695C112.973 20.5816 112.969 21.2534 113.414 21.67C113.858 22.0866 114.583 22.0903 115.032 21.6782Z" fill="#534A46"/>
<path d="M113.196 19.9036L111.129 21.7984C110.537 22.3413 110.532 23.2263 111.118 23.7751C111.703 24.3239 112.658 24.3287 113.25 23.7858L115.317 21.891C115.909 21.3481 115.914 20.4631 115.329 19.9143C114.743 19.3655 113.788 19.3607 113.196 19.9036Z" stroke="#211E1C" stroke-width="1.92036" stroke-linecap="round" stroke-linejoin="round"/>
<path d="M107.817 24.7281L105.75 26.6229C105.158 27.1658 105.153 28.0508 105.738 28.5995C106.324 29.1483 107.279 29.1532 107.871 28.6103L109.938 26.7154C110.53 26.1726 110.535 25.2876 109.949 24.7388C109.364 24.19 108.409 24.1852 107.817 24.7281Z" fill="#605652" stroke="#211E1C" stroke-width="1.92036" stroke-linecap="round" stroke-linejoin="round"/>
<path d="M107.645 28.3443C108.094 27.9322 108.098 27.2604 107.653 26.8438C107.209 26.4272 106.484 26.4236 106.035 26.8357C105.585 27.2478 105.581 27.9196 106.026 28.3362C106.47 28.7528 107.195 28.7564 107.645 28.3443Z" fill="#534A46"/>
<path d="M109.653 26.5028C110.103 26.0907 110.107 25.4189 109.662 25.0022C109.217 24.5856 108.493 24.582 108.043 24.9941C107.594 25.4062 107.59 26.078 108.034 26.4946C108.479 26.9112 109.204 26.9149 109.653 26.5028Z" fill="#534A46"/>
<path d="M107.817 24.7281L105.75 26.6229C105.158 27.1658 105.153 28.0508 105.738 28.5995C106.324 29.1483 107.279 29.1532 107.871 28.6103L109.938 26.7154C110.53 26.1726 110.535 25.2876 109.949 24.7388C109.364 24.19 108.409 24.1852 107.817 24.7281Z" stroke="#211E1C" stroke-width="1.92036" stroke-linecap="round" stroke-linejoin="round"/>
<path fill-rule="evenodd" clip-rule="evenodd" d="M95.7417 35.1009L95.4838 30.8843L97.553 32.9191C97.4308 31.2768 98.0787 30.4058 99.9297 30.74L101.897 32.5836L99.7016 34.5969L95.7417 35.1009Z" fill="#594F4A" stroke="#211E1C" stroke-width="1.92036" stroke-linecap="round" stroke-linejoin="round"/>
<path d="M102.828 29.1511L100.761 31.0459C100.169 31.5888 100.164 32.4738 100.75 33.0226C101.335 33.5713 102.29 33.5762 102.882 33.0333L104.949 31.1385C105.541 30.5956 105.546 29.7106 104.96 29.1618C104.375 28.613 103.42 28.6082 102.828 29.1511Z" fill="#605652" stroke="#211E1C" stroke-width="1.92036" stroke-linecap="round" stroke-linejoin="round"/>
<path d="M102.656 32.7673C103.105 32.3552 103.109 31.6834 102.665 31.2668C102.22 30.8502 101.495 30.8465 101.046 31.2586C100.596 31.6707 100.592 32.3425 101.037 32.7591C101.481 33.1757 102.206 33.1794 102.656 32.7673Z" fill="#534A46"/>
<path d="M104.664 30.9257C105.114 30.5136 105.118 29.8418 104.673 29.4252C104.228 29.0086 103.504 29.0049 103.054 29.417C102.605 29.8291 102.601 30.5009 103.045 30.9176C103.49 31.3342 104.215 31.3378 104.664 30.9257Z" fill="#534A46"/>
<path d="M102.828 29.1511L100.761 31.0459C100.169 31.5888 100.164 32.4738 100.75 33.0226C101.335 33.5713 102.29 33.5762 102.882 33.0333L104.949 31.1385C105.541 30.5956 105.546 29.7106 104.96 29.1618C104.375 28.613 103.42 28.6082 102.828 29.1511Z" stroke="#211E1C" stroke-width="1.92036" stroke-linecap="round" stroke-linejoin="round"/>
<path d="M97.4484 33.9756L95.3818 35.8705C94.7897 36.4133 94.7845 37.2983 95.3702 37.8471C95.9559 38.3959 96.9107 38.4007 97.5028 37.8578L99.5694 35.963C100.161 35.4201 100.167 34.5352 99.581 33.9864C98.9953 33.4376 98.0405 33.4328 97.4484 33.9756Z" fill="#605652" stroke="#211E1C" stroke-width="1.92036" stroke-linecap="round" stroke-linejoin="round"/>
<path d="M97.2765 37.5919C97.726 37.1797 97.7299 36.5079 97.2853 36.0913C96.8406 35.6747 96.1159 35.6711 95.6664 36.0832C95.2169 36.4953 95.213 37.1671 95.6576 37.5837C96.1022 38.0003 96.827 38.004 97.2765 37.5919Z" fill="#534A46"/>
<path d="M99.285 35.7503C99.7345 35.3382 99.7384 34.6664 99.2938 34.2498C98.8492 33.8332 98.1244 33.8295 97.6749 34.2417C97.2254 34.6538 97.2215 35.3256 97.6661 35.7422C98.1108 36.1588 98.8356 36.1624 99.285 35.7503Z" fill="#534A46"/>
<path d="M97.4484 33.9756L95.3818 35.8705C94.7897 36.4133 94.7845 37.2983 95.3702 37.8471C95.9559 38.3959 96.9107 38.4007 97.5028 37.8578L99.5694 35.963C100.161 35.4201 100.167 34.5352 99.581 33.9864C98.9953 33.4376 98.0405 33.4328 97.4484 33.9756Z" stroke="#211E1C" stroke-width="1.92036" stroke-linecap="round" stroke-linejoin="round"/>
<path fill-rule="evenodd" clip-rule="evenodd" d="M106.08 66.9378L106.363 71.1531L104.281 69.1288C104.413 70.7704 103.77 71.6447 101.917 71.3198L99.939 69.486L102.123 67.4618L106.08 66.9378Z" fill="#594F4A" stroke="#211E1C" stroke-width="1.92036" stroke-linecap="round" stroke-linejoin="round"/>
<path d="M99.0287 72.9233L101.084 71.0181C101.673 70.4723 101.673 69.5873 101.084 69.0414C100.495 68.4956 99.5405 68.4956 98.9516 69.0414L96.8961 70.9466C96.3072 71.4925 96.3072 72.3775 96.8961 72.9233C97.485 73.4691 98.4398 73.4691 99.0287 72.9233Z" fill="#605652" stroke="#211E1C" stroke-width="1.92036" stroke-linecap="round" stroke-linejoin="round"/>
<path d="M99.1794 69.3063C98.7323 69.7207 98.7324 70.3925 99.1794 70.8068C99.6265 71.2212 100.351 71.2212 100.798 70.8068C101.245 70.3925 101.245 69.7207 100.798 69.3063C100.351 68.8919 99.6265 68.8919 99.1794 69.3063Z" fill="#534A46"/>
<path d="M97.1817 71.1579C96.7347 71.5723 96.7347 72.2441 97.1817 72.6584C97.6288 73.0728 98.3536 73.0728 98.8007 72.6584C99.2477 72.2441 99.2477 71.5723 98.8007 71.1579C98.3536 70.7435 97.6288 70.7435 97.1817 71.1579Z" fill="#534A46"/>
<path d="M99.0287 72.9233L101.084 71.0181C101.673 70.4723 101.673 69.5873 101.084 69.0414C100.495 68.4956 99.5405 68.4956 98.9516 69.0414L96.8961 70.9466C96.3072 71.4925 96.3072 72.3775 96.8961 72.9233C97.485 73.4691 98.4398 73.4691 99.0287 72.9233Z" stroke="#211E1C" stroke-width="1.92036" stroke-linecap="round" stroke-linejoin="round"/>
<path d="M104.38 68.0717L106.435 66.1665C107.024 65.6206 107.024 64.7357 106.435 64.1898C105.846 63.644 104.891 63.644 104.303 64.1898L102.247 66.095C101.658 66.6409 101.658 67.5258 102.247 68.0717C102.836 68.6175 103.791 68.6175 104.38 68.0717Z" fill="#605652" stroke="#211E1C" stroke-width="1.92036" stroke-linecap="round" stroke-linejoin="round"/>
<path d="M104.531 64.4547C104.084 64.869 104.084 65.5409 104.531 65.9552C104.978 66.3696 105.702 66.3696 106.15 65.9552C106.597 65.5409 106.597 64.8691 106.15 64.4547C105.702 64.0403 104.978 64.0403 104.531 64.4547Z" fill="#534A46"/>
<path d="M102.533 66.3063C102.086 66.7207 102.086 67.3925 102.533 67.8069C102.98 68.2212 103.705 68.2212 104.152 67.8069C104.599 67.3925 104.599 66.7207 104.152 66.3063C103.705 65.892 102.98 65.8919 102.533 66.3063Z" fill="#534A46"/>
<path d="M104.38 68.0717L106.435 66.1665C107.024 65.6206 107.024 64.7357 106.435 64.1898C105.846 63.644 104.891 63.644 104.303 64.1898L102.247 66.095C101.658 66.6409 101.658 67.5258 102.247 68.0717C102.836 68.6175 103.791 68.6175 104.38 68.0717Z" stroke="#211E1C" stroke-width="1.92036" stroke-linecap="round" stroke-linejoin="round"/>
<path fill-rule="evenodd" clip-rule="evenodd" d="M95.6609 76.595L95.9436 80.8103L93.8624 78.7859C93.9942 80.4276 93.3515 81.3018 91.4985 80.977L89.5201 79.1432L91.7041 77.1189L95.6609 76.595Z" fill="#594F4A" stroke="#211E1C" stroke-width="1.92036" stroke-linecap="round" stroke-linejoin="round"/>
<path d="M88.6098 82.5804L90.6653 80.6752C91.2542 80.1294 91.2542 79.2444 90.6653 78.6986C90.0764 78.1527 89.1216 78.1527 88.5327 78.6985L86.4771 80.6038C85.8882 81.1496 85.8883 82.0346 86.4772 82.5804C87.0661 83.1263 88.0209 83.1263 88.6098 82.5804Z" fill="#605652" stroke="#211E1C" stroke-width="1.92036" stroke-linecap="round" stroke-linejoin="round"/>
<path d="M88.7606 78.9634C88.3135 79.3777 88.3135 80.0496 88.7606 80.4639C89.2076 80.8783 89.9325 80.8783 90.3795 80.4639C90.8266 80.0496 90.8266 79.3778 90.3795 78.9634C89.9325 78.549 89.2076 78.549 88.7606 78.9634Z" fill="#534A46"/>
<path d="M86.7629 80.815C86.3158 81.2294 86.3159 81.9012 86.7629 82.3156C87.21 82.7299 87.9348 82.7299 88.3818 82.3156C88.8289 81.9012 88.8289 81.2294 88.3818 80.815C87.9348 80.4007 87.21 80.4007 86.7629 80.815Z" fill="#534A46"/>
<path d="M88.6098 82.5804L90.6653 80.6752C91.2542 80.1294 91.2542 79.2444 90.6653 78.6986C90.0764 78.1527 89.1216 78.1527 88.5327 78.6985L86.4771 80.6038C85.8882 81.1496 85.8883 82.0346 86.4772 82.5804C87.0661 83.1263 88.0209 83.1263 88.6098 82.5804Z" stroke="#211E1C" stroke-width="1.92036" stroke-linecap="round" stroke-linejoin="round"/>
<path d="M93.9608 77.7289L96.0164 75.8237C96.6053 75.2778 96.6052 74.3928 96.0163 73.847C95.4274 73.3012 94.4726 73.3012 93.8837 73.847L91.8282 75.7522C91.2393 76.2981 91.2393 77.183 91.8282 77.7289C92.4171 78.2747 93.3719 78.2747 93.9608 77.7289Z" fill="#605652" stroke="#211E1C" stroke-width="1.92036" stroke-linecap="round" stroke-linejoin="round"/>
<path d="M94.1117 74.1118C93.6646 74.5262 93.6646 75.198 94.1117 75.6124C94.5587 76.0268 95.2835 76.0268 95.7306 75.6124C96.1776 75.198 96.1776 74.5262 95.7306 74.1119C95.2835 73.6975 94.5587 73.6975 94.1117 74.1118Z" fill="#534A46"/>
<path d="M92.114 75.9635C91.6669 76.3778 91.6669 77.0496 92.114 77.464C92.561 77.8784 93.2858 77.8784 93.7329 77.464C94.18 77.0496 94.18 76.3778 93.7329 75.9635C93.2858 75.5491 92.561 75.5491 92.114 75.9635Z" fill="#534A46"/>
<path d="M93.9608 77.7289L96.0164 75.8237C96.6053 75.2778 96.6052 74.3928 96.0163 73.847C95.4274 73.3012 94.4726 73.3012 93.8837 73.847L91.8282 75.7522C91.2393 76.2981 91.2393 77.183 91.8282 77.7289C92.4171 78.2747 93.3719 78.2747 93.9608 77.7289Z" stroke="#211E1C" stroke-width="1.92036" stroke-linecap="round" stroke-linejoin="round"/>
<path fill-rule="evenodd" clip-rule="evenodd" d="M85.2419 86.2522L85.5245 90.4675L83.4433 88.4431C83.5751 90.0848 82.9324 90.959 81.0794 90.6342L79.101 88.8004L81.285 86.7761L85.2419 86.2522Z" fill="#594F4A" stroke="#211E1C" stroke-width="1.92036" stroke-linecap="round" stroke-linejoin="round"/>
<path d="M78.1907 92.2376L80.2462 90.3324C80.8351 89.7865 80.8351 88.9016 80.2462 88.3557C79.6573 87.8099 78.7025 87.8099 78.1136 88.3557L76.0581 90.2609C75.4692 90.8068 75.4692 91.6917 76.0581 92.2376C76.647 92.7834 77.6018 92.7834 78.1907 92.2376Z" fill="#605652" stroke="#211E1C" stroke-width="1.92036" stroke-linecap="round" stroke-linejoin="round"/>
<path d="M78.3415 88.6206C77.8945 89.0349 77.8945 89.7068 78.3415 90.1211C78.7886 90.5355 79.5134 90.5355 79.9604 90.1211C80.4075 89.7068 80.4075 89.035 79.9604 88.6206C79.5134 88.2062 78.7886 88.2062 78.3415 88.6206Z" fill="#534A46"/>
<path d="M76.3438 90.4722C75.8968 90.8865 75.8968 91.5584 76.3438 91.9727C76.7909 92.3871 77.5157 92.3871 77.9628 91.9727C78.4098 91.5584 78.4098 90.8866 77.9628 90.4722C77.5157 90.0578 76.7909 90.0578 76.3438 90.4722Z" fill="#534A46"/>
<path d="M78.1907 92.2376L80.2462 90.3324C80.8351 89.7865 80.8351 88.9016 80.2462 88.3557C79.6573 87.8099 78.7025 87.8099 78.1136 88.3557L76.0581 90.2609C75.4692 90.8068 75.4692 91.6917 76.0581 92.2376C76.647 92.7834 77.6018 92.7834 78.1907 92.2376Z" stroke="#211E1C" stroke-width="1.92036" stroke-linecap="round" stroke-linejoin="round"/>
<path d="M83.5416 87.386L85.5972 85.4808C86.1861 84.935 86.1861 84.05 85.5971 83.5042C85.0082 82.9583 84.0535 82.9583 83.4646 83.5041L81.409 85.4094C80.8201 85.9552 80.8201 86.8402 81.409 87.386C81.9979 87.9319 82.9527 87.9319 83.5416 87.386Z" fill="#605652" stroke="#211E1C" stroke-width="1.92036" stroke-linecap="round" stroke-linejoin="round"/>
<path d="M83.6926 83.769C83.2455 84.1834 83.2455 84.8552 83.6926 85.2695C84.1397 85.6839 84.8645 85.6839 85.3115 85.2695C85.7586 84.8552 85.7586 84.1834 85.3115 83.769C84.8645 83.3546 84.1396 83.3546 83.6926 83.769Z" fill="#534A46"/>
<path d="M81.6949 85.6206C81.2479 86.035 81.2479 86.7068 81.6949 87.1211C82.142 87.5355 82.8668 87.5355 83.3138 87.1211C83.7609 86.7068 83.7609 86.035 83.3138 85.6206C82.8668 85.2062 82.142 85.2062 81.6949 85.6206Z" fill="#534A46"/>
<path d="M83.5416 87.386L85.5972 85.4808C86.1861 84.935 86.1861 84.05 85.5971 83.5042C85.0082 82.9583 84.0535 82.9583 83.4646 83.5041L81.409 85.4094C80.8201 85.9552 80.8201 86.8402 81.409 87.386C81.9979 87.9319 82.9527 87.9319 83.5416 87.386Z" stroke="#211E1C" stroke-width="1.92036" stroke-linecap="round" stroke-linejoin="round"/>
<path fill-rule="evenodd" clip-rule="evenodd" d="M85.6 44.5744L85.3174 40.3591L87.3986 42.3834C87.2668 40.7417 87.9095 39.8675 89.7625 40.1924L91.7409 42.0261L89.5569 44.0504L85.6 44.5744Z" fill="#594F4A" stroke="#211E1C" stroke-width="1.92036" stroke-linecap="round" stroke-linejoin="round"/>
<path d="M92.6512 38.5889L90.5957 40.4941C90.0068 41.0399 90.0068 41.9249 90.5957 42.4707C91.1846 43.0166 92.1394 43.0166 92.7283 42.4708L94.7838 40.5655C95.3727 40.0197 95.3727 39.1347 94.7838 38.5889C94.1949 38.043 93.2401 38.043 92.6512 38.5889Z" fill="#605652" stroke="#211E1C" stroke-width="1.92036" stroke-linecap="round" stroke-linejoin="round"/>
<path d="M92.5003 42.2059C92.9473 41.7916 92.9473 41.1197 92.5003 40.7054C92.0532 40.291 91.3284 40.291 90.8814 40.7054C90.4343 41.1197 90.4343 41.7915 90.8814 42.2059C91.3284 42.6203 92.0532 42.6203 92.5003 42.2059Z" fill="#534A46"/>
<path d="M94.4981 40.3543C94.9451 39.9399 94.9451 39.2681 94.4981 38.8538C94.051 38.4394 93.3262 38.4394 92.8792 38.8538C92.4321 39.2681 92.4321 39.9399 92.8792 40.3543C93.3262 40.7687 94.051 40.7687 94.4981 40.3543Z" fill="#534A46"/>
<path d="M92.6512 38.5889L90.5957 40.4941C90.0068 41.0399 90.0068 41.9249 90.5957 42.4707C91.1846 43.0166 92.1394 43.0166 92.7283 42.4708L94.7838 40.5655C95.3727 40.0197 95.3727 39.1347 94.7838 38.5889C94.1949 38.043 93.2401 38.043 92.6512 38.5889Z" stroke="#211E1C" stroke-width="1.92036" stroke-linecap="round" stroke-linejoin="round"/>
<path d="M87.3003 43.4404L85.2448 45.3456C84.6559 45.8915 84.6559 46.7765 85.2448 47.3223C85.8337 47.8681 86.7885 47.8682 87.3774 47.3223L89.4329 45.4171C90.0218 44.8713 90.0218 43.9863 89.4329 43.4404C88.844 42.8946 87.8892 42.8946 87.3003 43.4404Z" fill="#605652" stroke="#211E1C" stroke-width="1.92036" stroke-linecap="round" stroke-linejoin="round"/>
<path d="M87.1495 47.0575C87.5965 46.6431 87.5965 45.9713 87.1494 45.557C86.7024 45.1426 85.9776 45.1426 85.5305 45.557C85.0835 45.9713 85.0835 46.6431 85.5305 47.0575C85.9776 47.4719 86.7024 47.4719 87.1495 47.0575Z" fill="#534A46"/>
<path d="M89.1473 45.2058C89.5943 44.7915 89.5943 44.1196 89.1472 43.7053C88.7002 43.2909 87.9754 43.2909 87.5283 43.7053C87.0813 44.1196 87.0813 44.7914 87.5283 45.2058C87.9754 45.6202 88.7002 45.6202 89.1473 45.2058Z" fill="#534A46"/>
<path d="M87.3003 43.4404L85.2448 45.3456C84.6559 45.8915 84.6559 46.7765 85.2448 47.3223C85.8337 47.8681 86.7885 47.8682 87.3774 47.3223L89.4329 45.4171C90.0218 44.8713 90.0218 43.9863 89.4329 43.4404C88.844 42.8946 87.8892 42.8946 87.3003 43.4404Z" stroke="#211E1C" stroke-width="1.92036" stroke-linecap="round" stroke-linejoin="round"/>
<path fill-rule="evenodd" clip-rule="evenodd" d="M75.1756 54.2364L74.893 50.0212L76.9741 52.0455C76.8423 50.4038 77.4851 49.5296 79.3381 49.8544L81.3165 51.6882L79.1325 53.7125L75.1756 54.2364Z" fill="#594F4A" stroke="#211E1C" stroke-width="1.92036" stroke-linecap="round" stroke-linejoin="round"/>
<path d="M82.2268 48.251L80.1713 50.1562C79.5824 50.7021 79.5824 51.5871 80.1713 52.1329C80.7602 52.6787 81.715 52.6787 82.3039 52.1329L84.3594 50.2277C84.9483 49.6818 84.9483 48.7969 84.3594 48.251C83.7705 47.7052 82.8157 47.7052 82.2268 48.251Z" fill="#605652" stroke="#211E1C" stroke-width="1.92036" stroke-linecap="round" stroke-linejoin="round"/>
<path d="M82.076 51.8681C82.523 51.4537 82.523 50.7819 82.076 50.3675C81.6289 49.9532 80.9041 49.9532 80.457 50.3675C80.01 50.7819 80.01 51.4537 80.457 51.8681C80.9041 52.2824 81.6289 52.2824 82.076 51.8681Z" fill="#534A46"/>
<path d="M84.0738 50.0164C84.5208 49.6021 84.5208 48.9302 84.0738 48.5159C83.6267 48.1015 82.9019 48.1015 82.4548 48.5159C82.0078 48.9302 82.0078 49.602 82.4548 50.0164C82.9019 50.4308 83.6267 50.4308 84.0738 50.0164Z" fill="#534A46"/>
<path d="M82.2268 48.251L80.1713 50.1562C79.5824 50.7021 79.5824 51.5871 80.1713 52.1329C80.7602 52.6787 81.715 52.6787 82.3039 52.1329L84.3594 50.2277C84.9483 49.6818 84.9483 48.7969 84.3594 48.251C83.7705 47.7052 82.8157 47.7052 82.2268 48.251Z" stroke="#211E1C" stroke-width="1.92036" stroke-linecap="round" stroke-linejoin="round"/>
<path d="M76.8758 53.1026L74.8203 55.0078C74.2314 55.5536 74.2314 56.4386 74.8203 56.9844C75.4092 57.5303 76.364 57.5303 76.9529 56.9845L79.0084 55.0792C79.5973 54.5334 79.5973 53.6484 79.0084 53.1026C78.4195 52.5567 77.4647 52.5567 76.8758 53.1026Z" fill="#605652" stroke="#211E1C" stroke-width="1.92036" stroke-linecap="round" stroke-linejoin="round"/>
<path d="M76.7249 56.7196C77.1719 56.3053 77.1719 55.6334 76.7249 55.2191C76.2778 54.8047 75.553 54.8047 75.106 55.2191C74.6589 55.6334 74.6589 56.3052 75.106 56.7196C75.553 57.134 76.2778 57.134 76.7249 56.7196Z" fill="#534A46"/>
<path d="M78.7226 54.868C79.1696 54.4536 79.1696 53.7818 78.7226 53.3674C78.2755 52.953 77.5507 52.953 77.1036 53.3674C76.6566 53.7818 76.6566 54.4536 77.1036 54.8679C77.5507 55.2823 78.2755 55.2823 78.7226 54.868Z" fill="#534A46"/>
<path d="M76.8758 53.1026L74.8203 55.0078C74.2314 55.5536 74.2314 56.4386 74.8203 56.9844C75.4092 57.5303 76.364 57.5303 76.9529 56.9845L79.0084 55.0792C79.5973 54.5334 79.5973 53.6484 79.0084 53.1026C78.4195 52.5567 77.4647 52.5567 76.8758 53.1026Z" stroke="#211E1C" stroke-width="1.92036" stroke-linecap="round" stroke-linejoin="round"/>
<path fill-rule="evenodd" clip-rule="evenodd" d="M64.7513 63.8985L64.4687 59.6832L66.5498 61.7076C66.418 60.0659 67.0608 59.1917 68.9137 59.5165L70.8922 61.3503L68.7082 63.3746L64.7513 63.8985Z" fill="#594F4A" stroke="#211E1C" stroke-width="1.92036" stroke-linecap="round" stroke-linejoin="round"/>
<path d="M71.8025 57.9131L69.747 59.8183C69.1581 60.3641 69.1581 61.2491 69.747 61.795C70.3359 62.3408 71.2907 62.3408 71.8796 61.795L73.9351 59.8898C74.524 59.3439 74.524 58.4589 73.9351 57.9131C73.3462 57.3673 72.3914 57.3672 71.8025 57.9131Z" fill="#605652" stroke="#211E1C" stroke-width="1.92036" stroke-linecap="round" stroke-linejoin="round"/>
<path d="M71.6517 61.5301C72.0987 61.1157 72.0987 60.4439 71.6516 60.0296C71.2046 59.6152 70.4798 59.6152 70.0327 60.0296C69.5857 60.4439 69.5857 61.1157 70.0327 61.5301C70.4798 61.9445 71.2046 61.9445 71.6517 61.5301Z" fill="#534A46"/>
<path d="M73.6493 59.6784C74.0964 59.2641 74.0964 58.5923 73.6493 58.1779C73.2023 57.7635 72.4775 57.7635 72.0304 58.1779C71.5834 58.5923 71.5834 59.2641 72.0304 59.6784C72.4775 60.0928 73.2023 60.0928 73.6493 59.6784Z" fill="#534A46"/>
<path d="M71.8025 57.9131L69.747 59.8183C69.1581 60.3641 69.1581 61.2491 69.747 61.795C70.3359 62.3408 71.2907 62.3408 71.8796 61.795L73.9351 59.8898C74.524 59.3439 74.524 58.4589 73.9351 57.9131C73.3462 57.3673 72.3914 57.3672 71.8025 57.9131Z" stroke="#211E1C" stroke-width="1.92036" stroke-linecap="round" stroke-linejoin="round"/>
<path d="M66.4515 62.7646L64.396 64.6698C63.8071 65.2157 63.8071 66.1006 64.396 66.6465C64.9849 67.1923 65.9397 67.1923 66.5286 66.6465L68.5841 64.7413C69.173 64.1954 69.173 63.3105 68.5841 62.7646C67.9952 62.2188 67.0404 62.2188 66.4515 62.7646Z" fill="#605652" stroke="#211E1C" stroke-width="1.92036" stroke-linecap="round" stroke-linejoin="round"/>
<path d="M66.3007 66.3817C66.7478 65.9673 66.7477 65.2955 66.3007 64.8811C65.8536 64.4668 65.1288 64.4668 64.6818 64.8811C64.2347 65.2955 64.2347 65.9673 64.6818 66.3817C65.1288 66.796 65.8536 66.796 66.3007 66.3817Z" fill="#534A46"/>
<path d="M68.2985 64.53C68.7456 64.1157 68.7455 63.4438 68.2985 63.0295C67.8514 62.6151 67.1266 62.6151 66.6796 63.0295C66.2325 63.4438 66.2325 64.1156 66.6796 64.53C67.1266 64.9444 67.8514 64.9444 68.2985 64.53Z" fill="#534A46"/>
<path d="M66.4515 62.7646L64.396 64.6698C63.8071 65.2157 63.8071 66.1006 64.396 66.6465C64.9849 67.1923 65.9397 67.1923 66.5286 66.6465L68.5841 64.7413C69.173 64.1954 69.173 63.3105 68.5841 62.7646C67.9952 62.2188 67.0404 62.2188 66.4515 62.7646Z" stroke="#211E1C" stroke-width="1.92036" stroke-linecap="round" stroke-linejoin="round"/>
<path fill-rule="evenodd" clip-rule="evenodd" d="M54.3268 73.5606L54.0442 69.3453L56.1254 71.3697C55.9936 69.728 56.6363 68.8538 58.4893 69.1786L60.4677 71.0124L58.2837 73.0367L54.3268 73.5606Z" fill="#594F4A" stroke="#211E1C" stroke-width="1.92036" stroke-linecap="round" stroke-linejoin="round"/>
<path d="M61.378 67.5752L59.3225 69.4804C58.7336 70.0263 58.7336 70.9112 59.3225 71.4571C59.9114 72.0029 60.8662 72.0029 61.4551 71.4571L63.5106 69.5519C64.0995 69.006 64.0995 68.121 63.5106 67.5752C62.9217 67.0294 61.9669 67.0294 61.378 67.5752Z" fill="#605652" stroke="#211E1C" stroke-width="1.92036" stroke-linecap="round" stroke-linejoin="round"/>
<path d="M61.2272 71.1923C61.6743 70.7779 61.6743 70.1061 61.2272 69.6917C60.7801 69.2774 60.0553 69.2774 59.6083 69.6917C59.1612 70.1061 59.1612 70.7779 59.6083 71.1923C60.0553 71.6066 60.7802 71.6066 61.2272 71.1923Z" fill="#534A46"/>
<path d="M63.2249 69.3406C63.6719 68.9262 63.6719 68.2544 63.2249 67.8401C62.7778 67.4257 62.053 67.4257 61.606 67.8401C61.1589 68.2544 61.1589 68.9262 61.606 69.3406C62.053 69.755 62.7778 69.755 63.2249 69.3406Z" fill="#534A46"/>
<path d="M61.378 67.5752L59.3225 69.4804C58.7336 70.0263 58.7336 70.9112 59.3225 71.4571C59.9114 72.0029 60.8662 72.0029 61.4551 71.4571L63.5106 69.5519C64.0995 69.006 64.0995 68.121 63.5106 67.5752C62.9217 67.0294 61.9669 67.0294 61.378 67.5752Z" stroke="#211E1C" stroke-width="1.92036" stroke-linecap="round" stroke-linejoin="round"/>
<path d="M56.0271 72.4268L53.9716 74.332C53.3827 74.8778 53.3827 75.7628 53.9716 76.3086C54.5605 76.8545 55.5153 76.8545 56.1042 76.3087L58.1597 74.4034C58.7486 73.8576 58.7486 72.9726 58.1597 72.4268C57.5708 71.8809 56.616 71.8809 56.0271 72.4268Z" fill="#605652" stroke="#211E1C" stroke-width="1.92036" stroke-linecap="round" stroke-linejoin="round"/>
<path d="M55.8763 76.0438C56.3233 75.6294 56.3233 74.9576 55.8762 74.5433C55.4292 74.1289 54.7044 74.1289 54.2573 74.5433C53.8103 74.9576 53.8103 75.6294 54.2573 76.0438C54.7044 76.4582 55.4292 76.4582 55.8763 76.0438Z" fill="#534A46"/>
<path d="M57.8741 74.1921C58.3211 73.7778 58.3211 73.106 57.8741 72.6916C57.427 72.2772 56.7022 72.2772 56.2551 72.6916C55.8081 73.106 55.8081 73.7778 56.2551 74.1921C56.7022 74.6065 57.427 74.6065 57.8741 74.1921Z" fill="#534A46"/>
<path d="M56.0271 72.4268L53.9716 74.332C53.3827 74.8778 53.3827 75.7628 53.9716 76.3086C54.5605 76.8545 55.5153 76.8545 56.1042 76.3087L58.1597 74.4034C58.7486 73.8576 58.7486 72.9726 58.1597 72.4268C57.5708 71.8809 56.616 71.8809 56.0271 72.4268Z" stroke="#211E1C" stroke-width="1.92036" stroke-linecap="round" stroke-linejoin="round"/>
<path fill-rule="evenodd" clip-rule="evenodd" d="M74.8229 95.9093L75.1056 100.125L73.0244 98.1002C73.1562 99.7419 72.5135 100.616 70.6605 100.291L68.6821 98.4575L70.866 96.4332L74.8229 95.9093Z" fill="#594F4A" stroke="#211E1C" stroke-width="1.92036" stroke-linecap="round" stroke-linejoin="round"/>
<path d="M66.9866 101.55L69.4386 100.103C70.1411 99.6881 70.3479 98.8242 69.9006 98.173C69.4533 97.5219 68.5211 97.3302 67.8186 97.7448L65.3666 99.192C64.6641 99.6067 64.4573 100.471 64.9046 101.122C65.352 101.773 66.2841 101.965 66.9866 101.55Z" fill="#605652" stroke="#211E1C" stroke-width="1.92036" stroke-linecap="round" stroke-linejoin="round"/>
<path d="M67.9792 98.0491C67.4459 98.3639 67.2889 99.0198 67.6285 99.5141C67.9681 100.008 68.6757 100.154 69.209 99.8391C69.7423 99.5244 69.8993 98.8685 69.5597 98.3742C69.2201 97.8799 68.5125 97.7344 67.9792 98.0491Z" fill="#534A46"/>
<path d="M65.5963 99.4556C65.063 99.7704 64.906 100.426 65.2456 100.921C65.5852 101.415 66.2927 101.56 66.826 101.246C67.3593 100.931 67.5163 100.275 67.1768 99.7807C66.8372 99.2864 66.1296 99.1409 65.5963 99.4556Z" fill="#534A46"/>
<path d="M66.9866 101.55L69.4386 100.103C70.1411 99.6881 70.3479 98.8242 69.9006 98.173C69.4533 97.5219 68.5211 97.3302 67.8186 97.7448L65.3666 99.192C64.6641 99.6067 64.4573 100.471 64.9046 101.122C65.352 101.773 66.2841 101.965 66.9866 101.55Z" stroke="#211E1C" stroke-width="1.92036" stroke-linecap="round" stroke-linejoin="round"/>
<path d="M73.1227 97.0432L75.1782 95.138C75.7671 94.5922 75.7671 93.7072 75.1782 93.1613C74.5893 92.6155 73.6345 92.6155 73.0456 93.1613L70.9901 95.0665C70.4012 95.6124 70.4012 96.4974 70.9901 97.0432C71.579 97.589 72.5338 97.5891 73.1227 97.0432Z" fill="#605652" stroke="#211E1C" stroke-width="1.92036" stroke-linecap="round" stroke-linejoin="round"/>
<path d="M73.2736 93.4261C72.8266 93.8405 72.8266 94.5123 73.2737 94.9267C73.7207 95.341 74.4455 95.341 74.8926 94.9267C75.3396 94.5123 75.3396 93.8405 74.8926 93.4261C74.4455 93.0118 73.7207 93.0117 73.2736 93.4261Z" fill="#534A46"/>
<path d="M71.276 95.2778C70.8289 95.6921 70.8289 96.364 71.276 96.7783C71.723 97.1927 72.4478 97.1927 72.8949 96.7783C73.3419 96.364 73.3419 95.6921 72.8949 95.2778C72.4478 94.8634 71.723 94.8634 71.276 95.2778Z" fill="#534A46"/>
<path d="M73.1227 97.0432L75.1782 95.138C75.7671 94.5922 75.7671 93.7072 75.1782 93.1613C74.5893 92.6155 73.6345 92.6155 73.0456 93.1613L70.9901 95.0665C70.4012 95.6124 70.4012 96.4974 70.9901 97.0432C71.579 97.589 72.5338 97.5891 73.1227 97.0432Z" stroke="#211E1C" stroke-width="1.92036" stroke-linecap="round" stroke-linejoin="round"/>
<path fill-rule="evenodd" clip-rule="evenodd" d="M45.0648 84.7721L43.6148 80.7682L46.1903 82.2243C45.6046 80.6702 45.9813 79.6716 47.8618 79.5408L50.2849 80.8375L48.7406 83.3167L45.0648 84.7721Z" fill="#594F4A" stroke="#211E1C" stroke-width="1.91967" stroke-linecap="round" stroke-linejoin="round"/>
<path d="M51.0591 77.4437L49.0948 79.4298C48.532 79.9988 48.5735 80.883 49.1874 81.4046C49.8013 81.9262 50.7552 81.8878 51.318 81.3188L53.2823 79.3326C53.8451 78.7636 53.8036 77.8795 53.1897 77.3579C52.5758 76.8362 51.6219 76.8746 51.0591 77.4437Z" fill="#605652" stroke="#211E1C" stroke-width="1.91979" stroke-linecap="round" stroke-linejoin="round"/>
<path d="M51.0778 81.0634C51.505 80.6314 51.4736 79.9602 51.0075 79.5642C50.5415 79.1683 49.8173 79.1974 49.3901 79.6294C48.9629 80.0614 48.9944 80.7325 49.4604 81.1285C49.9265 81.5245 50.6506 81.4953 51.0778 81.0634Z" fill="#534A46"/>
<path d="M52.9869 79.1331C53.4141 78.7011 53.3826 78.03 52.9166 77.634C52.4505 77.238 51.7264 77.2672 51.2992 77.6991C50.872 78.1311 50.9034 78.8023 51.3695 79.1982C51.8355 79.5942 52.5597 79.5651 52.9869 79.1331Z" fill="#534A46"/>
<path d="M51.0591 77.4437L49.0948 79.4298C48.532 79.9988 48.5735 80.883 49.1874 81.4046C49.8013 81.9262 50.7552 81.8878 51.318 81.3188L53.2823 79.3326C53.8451 78.7636 53.8036 77.8795 53.1897 77.3579C52.5758 76.8362 51.6219 76.8746 51.0591 77.4437Z" stroke="#211E1C" stroke-width="1.91979" stroke-linecap="round" stroke-linejoin="round"/>
<path d="M46.3904 83.2689L44.937 85.6023C44.5205 86.2708 44.7677 87.1256 45.4889 87.5116C46.2102 87.8976 47.1324 87.6685 47.5489 87L49.0023 84.6666C49.4188 83.9981 49.1716 83.1433 48.4504 82.7573C47.7291 82.3713 46.8069 82.6004 46.3904 83.2689Z" fill="#605652" stroke="#211E1C" stroke-width="1.91967" stroke-linecap="round" stroke-linejoin="round"/>
<path d="M47.2547 86.799C47.5708 86.2915 47.3832 85.6426 46.8357 85.3496C46.2882 85.0566 45.5881 85.2304 45.272 85.7379C44.9558 86.2454 45.1434 86.8943 45.691 87.1873C46.2385 87.4803 46.9386 87.3065 47.2547 86.799Z" fill="#534A46"/>
<path d="M48.6673 84.5312C48.9834 84.0237 48.7958 83.3748 48.2483 83.0818C47.7008 82.7888 47.0007 82.9626 46.6846 83.4701C46.3684 83.9776 46.556 84.6265 47.1036 84.9195C47.6511 85.2125 48.3512 85.0387 48.6673 84.5312Z" fill="#534A46"/>
<path d="M46.3904 83.2689L44.937 85.6023C44.5205 86.2708 44.7677 87.1256 45.4889 87.5116C46.2102 87.8976 47.1324 87.6685 47.5489 87L49.0023 84.6666C49.4188 83.9981 49.1716 83.1433 48.4504 82.7573C47.7291 82.3713 46.8069 82.6004 46.3904 83.2689Z" stroke="#211E1C" stroke-width="1.91967" stroke-linecap="round" stroke-linejoin="round"/>
<path fill-rule="evenodd" clip-rule="evenodd" d="M60.7524 104.105L57.835 107.35L57.8218 104.553C56.7014 105.831 55.5864 106.057 54.48 104.642L54.4002 102.049L57.4876 101.968L60.7524 104.105Z" fill="#594F4A" stroke="#211E1C" stroke-width="1.91828" stroke-linecap="round" stroke-linejoin="round"/>
<path d="M51.4017 102.926L53.9786 104.173C54.7168 104.53 55.6278 104.265 56.0132 103.581C56.3987 102.897 56.1126 102.052 55.3744 101.695L52.7975 100.448C52.0592 100.091 51.1483 100.356 50.7628 101.04C50.3774 101.725 50.6634 102.569 51.4017 102.926Z" fill="#605652" stroke="#211E1C" stroke-width="1.92034" stroke-linecap="round" stroke-linejoin="round"/>
<path d="M55.1701 101.976C54.6096 101.705 53.9181 101.906 53.6255 102.426C53.3329 102.945 53.55 103.586 54.1105 103.857C54.6709 104.128 55.3624 103.927 55.655 103.408C55.9476 102.888 55.7305 102.247 55.1701 101.976Z" fill="#534A46"/>
<path d="M52.6656 100.764C52.1051 100.493 51.4136 100.694 51.121 101.214C50.8284 101.733 51.0455 102.374 51.606 102.645C52.1664 102.917 52.8579 102.715 53.1505 102.196C53.4431 101.676 53.226 101.035 52.6656 100.764Z" fill="#534A46"/>
<path d="M51.4017 102.926L53.9786 104.173C54.7168 104.53 55.6278 104.265 56.0132 103.581C56.3987 102.897 56.1126 102.052 55.3744 101.695L52.7975 100.448C52.0592 100.091 51.1483 100.356 50.7628 101.04C50.3774 101.725 50.6634 102.569 51.4017 102.926Z" stroke="#211E1C" stroke-width="1.92034" stroke-linecap="round" stroke-linejoin="round"/>
<path d="M59.6088 104.06L62.4167 103.362C63.2212 103.163 63.6985 102.396 63.483 101.651C63.2674 100.905 62.4406 100.462 61.6361 100.662L58.8282 101.36C58.0238 101.559 57.5464 102.326 57.7619 103.071C57.9775 103.817 58.8044 104.26 59.6088 104.06Z" fill="#605652" stroke="#211E1C" stroke-width="1.91828" stroke-linecap="round" stroke-linejoin="round"/>
<path d="M61.6906 100.997C61.0799 101.149 60.7175 101.731 60.8812 102.297C61.0448 102.863 61.6725 103.199 62.2832 103.047C62.8939 102.895 63.2563 102.313 63.0926 101.747C62.929 101.181 62.3013 100.846 61.6906 100.997Z" fill="#534A46"/>
<path d="M58.9617 101.675C58.351 101.827 57.9886 102.408 58.1523 102.974C58.3159 103.54 58.9436 103.876 59.5543 103.725C60.165 103.573 60.5274 102.991 60.3638 102.425C60.2001 101.859 59.5724 101.523 58.9617 101.675Z" fill="#534A46"/>
<path d="M59.6088 104.06L62.4167 103.362C63.2212 103.163 63.6985 102.396 63.483 101.651C63.2674 100.905 62.4406 100.462 61.6361 100.662L58.8282 101.36C58.0238 101.559 57.5464 102.326 57.7619 103.071C57.9775 103.817 58.8044 104.26 59.6088 104.06Z" stroke="#211E1C" stroke-width="1.91828" stroke-linecap="round" stroke-linejoin="round"/>
<path fill-rule="evenodd" clip-rule="evenodd" d="M46.2538 98.6281L41.9307 97.2934L44.7349 96.2622C43.0431 95.7611 42.409 94.8814 43.4275 93.4104L46.0027 92.3962L47.2105 95.031L46.2538 98.6281Z" fill="#594F4A" stroke="#211E1C" stroke-width="1.92011" stroke-linecap="round" stroke-linejoin="round"/>
<path d="M44.0283 90.128L43.7152 92.8067C43.6256 93.5742 44.2241 94.2637 45.0521 94.3468C45.8801 94.43 46.624 93.8752 46.7137 93.1078L47.0267 90.4291C47.1164 89.6616 46.5179 88.9721 45.6899 88.889C44.8619 88.8058 44.118 89.3606 44.0283 90.128Z" fill="#605652" stroke="#211E1C" stroke-width="1.92035" stroke-linecap="round" stroke-linejoin="round"/>
<path d="M46.357 93.0338C46.4251 92.4512 45.9707 91.9278 45.3422 91.8647C44.7136 91.8016 44.1489 92.2227 44.0808 92.8053C44.0127 93.3879 44.4671 93.9113 45.0956 93.9744C45.7242 94.0375 46.2889 93.6164 46.357 93.0338Z" fill="#534A46"/>
<path d="M46.6613 90.4304C46.7294 89.8478 46.275 89.3244 45.6465 89.2613C45.0179 89.1982 44.4532 89.6193 44.3851 90.2019C44.317 90.7845 44.7714 91.3079 45.3999 91.371C46.0285 91.4341 46.5932 91.013 46.6613 90.4304Z" fill="#534A46"/>
<path d="M44.0283 90.128L43.7152 92.8067C43.6256 93.5742 44.2241 94.2637 45.0521 94.3468C45.8801 94.43 46.624 93.8752 46.7137 93.1078L47.0267 90.4291C47.1164 89.6616 46.5179 88.9721 45.6899 88.889C44.8619 88.8058 44.118 89.3606 44.0283 90.128Z" stroke="#211E1C" stroke-width="1.92035" stroke-linecap="round" stroke-linejoin="round"/>
<path d="M45.8824 97.6246L47.6069 99.7937C48.101 100.415 49.045 100.548 49.7154 100.09C50.3859 99.6318 50.5289 98.7568 50.0349 98.1354L48.3104 95.9663C47.8163 95.3449 46.8723 95.2123 46.2018 95.6703C45.5314 96.1282 45.3884 97.0032 45.8824 97.6246Z" fill="#605652" stroke="#211E1C" stroke-width="1.92011" stroke-linecap="round" stroke-linejoin="round"/>
<path d="M49.7182 98.3046C49.3432 97.8328 48.6265 97.7322 48.1176 98.0799C47.6086 98.4275 47.5001 99.0917 47.8751 99.5635C48.2502 100.035 48.9668 100.136 49.4758 99.7882C49.9847 99.4406 50.0933 98.7763 49.7182 98.3046Z" fill="#534A46"/>
<path d="M48.0423 96.1965C47.6673 95.7248 46.9506 95.6242 46.4417 95.9718C45.9327 96.3194 45.8241 96.9837 46.1992 97.4554C46.5743 97.9272 47.2909 98.0278 47.7999 97.6801C48.3088 97.3325 48.4174 96.6683 48.0423 96.1965Z" fill="#534A46"/>
<path d="M45.8824 97.6246L47.6069 99.7937C48.101 100.415 49.045 100.548 49.7154 100.09C50.3859 99.6318 50.5289 98.7568 50.0349 98.1354L48.3104 95.9663C47.8163 95.3449 46.8723 95.2123 46.2018 95.6703C45.5314 96.1282 45.3884 97.0032 45.8824 97.6246Z" stroke="#211E1C" stroke-width="1.92011" stroke-linecap="round" stroke-linejoin="round"/>
<path fill-rule="evenodd" clip-rule="evenodd" d="M151.134 13.926L154.478 16.795L151.464 16.6619C152.782 17.7654 152.968 18.8092 151.386 19.7597L148.588 19.6988L148.661 16.8368L151.134 13.926Z" fill="#594F4A" stroke="#211E1C" stroke-width="1.91805" stroke-linecap="round" stroke-linejoin="round"/>
<path d="M149.377 22.5199L150.855 20.1995C151.278 19.5347 151.04 18.6778 150.323 18.2854C149.605 17.8931 148.681 18.1139 148.258 18.7787L146.78 21.0991C146.357 21.7639 146.595 22.6209 147.312 23.0132C148.03 23.4056 148.954 23.1847 149.377 22.5199Z" fill="#605652" stroke="#211E1C" stroke-width="1.92034" stroke-linecap="round" stroke-linejoin="round"/>
<path d="M148.55 18.9824C148.228 19.4871 148.409 20.1376 148.954 20.4355C149.498 20.7333 150.2 20.5656 150.521 20.061C150.843 19.5563 150.662 18.9058 150.117 18.6079C149.573 18.3101 148.871 18.4777 148.55 18.9824Z" fill="#534A46"/>
<path d="M147.114 21.2376C146.792 21.7422 146.973 22.3928 147.518 22.6906C148.062 22.9885 148.764 22.8208 149.085 22.3162C149.407 21.8115 149.226 21.161 148.681 20.8631C148.137 20.5653 147.435 20.7329 147.114 21.2376Z" fill="#534A46"/>
<path d="M149.377 22.5199L150.855 20.1995C151.278 19.5347 151.04 18.6778 150.323 18.2854C149.605 17.8931 148.681 18.1139 148.258 18.7787L146.78 21.0991C146.357 21.7639 146.595 22.6209 147.312 23.0132C148.03 23.4056 148.954 23.1847 149.377 22.5199Z" stroke="#211E1C" stroke-width="1.92034" stroke-linecap="round" stroke-linejoin="round"/>
<path d="M151.025 14.982L150.42 12.3467C150.246 11.5917 149.445 11.11 148.631 11.2707C147.816 11.4315 147.297 12.1739 147.47 12.9289L148.075 15.5642C148.249 16.3192 149.05 16.8009 149.864 16.6402C150.679 16.4794 151.199 15.737 151.025 14.982Z" fill="#605652" stroke="#211E1C" stroke-width="1.91805" stroke-linecap="round" stroke-linejoin="round"/>
<path d="M147.834 12.8958C147.965 13.469 148.574 13.8347 149.192 13.7126C149.81 13.5906 150.205 13.027 150.073 12.4539C149.941 11.8807 149.333 11.515 148.715 11.6371C148.097 11.7591 147.702 12.3227 147.834 12.8958Z" fill="#534A46"/>
<path d="M148.422 15.457C148.554 16.0302 149.162 16.3959 149.78 16.2738C150.399 16.1518 150.793 15.5882 150.661 15.0151C150.53 14.4419 149.922 14.0762 149.303 14.1983C148.685 14.3203 148.291 14.8839 148.422 15.457Z" fill="#534A46"/>
<path d="M151.025 14.982L150.42 12.3467C150.246 11.5917 149.445 11.11 148.631 11.2707C147.816 11.4315 147.297 12.1739 147.47 12.9289L148.075 15.5642C148.249 16.3192 149.05 16.8009 149.864 16.6402C150.679 16.4794 151.199 15.737 151.025 14.982Z" stroke="#211E1C" stroke-width="1.91805" stroke-linecap="round" stroke-linejoin="round"/>
<path fill-rule="evenodd" clip-rule="evenodd" d="M143.472 2.5466L147.678 0.922952L146.293 3.40708C147.924 2.75571 149.026 3.03343 149.299 4.76287L148.075 7.09479L145.298 5.84221L143.472 2.5466Z" fill="#594F4A" stroke="#211E1C" stroke-width="1.91809" stroke-linecap="round" stroke-linejoin="round"/>
<path d="M151.171 7.60449L149.51 5.39333C149.034 4.75984 148.094 4.6039 147.411 5.045C146.727 5.4861 146.559 6.35723 147.035 6.99071L148.696 9.20187C149.172 9.83536 150.112 9.9913 150.795 9.5502C151.479 9.1091 151.647 8.23797 151.171 7.60449Z" fill="#605652" stroke="#211E1C" stroke-width="1.92034" stroke-linecap="round" stroke-linejoin="round"/>
<path d="M147.356 6.82946C147.717 7.31037 148.431 7.42875 148.95 7.09389C149.469 6.75903 149.596 6.09774 149.235 5.61684C148.874 5.13594 148.16 5.01754 147.641 5.3524C147.123 5.68726 146.995 6.34856 147.356 6.82946Z" fill="#534A46"/>
<path d="M148.971 8.97846C149.332 9.45937 150.045 9.57775 150.564 9.24289C151.083 8.90804 151.211 8.24674 150.849 7.76584C150.488 7.28494 149.775 7.16655 149.256 7.5014C148.737 7.83626 148.609 8.49756 148.971 8.97846Z" fill="#534A46"/>
<path d="M151.171 7.60449L149.51 5.39333C149.034 4.75984 148.094 4.6039 147.411 5.045C146.727 5.4861 146.559 6.35723 147.035 6.99071L148.696 9.20187C149.172 9.83536 150.112 9.9913 150.795 9.5502C151.479 9.1091 151.647 8.23797 151.171 7.60449Z" stroke="#211E1C" stroke-width="1.92034" stroke-linecap="round" stroke-linejoin="round"/>
<path d="M144.463 3.07766L141.625 2.49074C140.813 2.32259 140.007 2.79703 139.825 3.55043C139.644 4.30383 140.156 5.05089 140.968 5.21904L143.806 5.80596C144.618 5.97411 145.424 5.49967 145.606 4.74627C145.787 3.99287 145.275 3.24581 144.463 3.07766Z" fill="#605652" stroke="#211E1C" stroke-width="1.91809" stroke-linecap="round" stroke-linejoin="round"/>
<path d="M141.088 4.8987C141.705 5.02635 142.316 4.66618 142.454 4.09425C142.592 3.52232 142.203 2.95521 141.586 2.82756C140.969 2.69991 140.357 3.06007 140.22 3.632C140.082 4.20392 140.47 4.77105 141.088 4.8987Z" fill="#534A46"/>
<path d="M143.845 5.46912C144.462 5.59677 145.074 5.2366 145.211 4.66467C145.349 4.09274 144.961 3.52563 144.344 3.39798C143.727 3.27033 143.115 3.63049 142.977 4.20242C142.839 4.77434 143.228 5.34147 143.845 5.46912Z" fill="#534A46"/>
<path d="M144.463 3.07766L141.625 2.49074C140.813 2.32259 140.007 2.79703 139.825 3.55043C139.644 4.30383 140.156 5.05089 140.968 5.21904L143.806 5.80596C144.618 5.97411 145.424 5.49967 145.606 4.74627C145.787 3.99287 145.275 3.24581 144.463 3.07766Z" stroke="#211E1C" stroke-width="1.91809" stroke-linecap="round" stroke-linejoin="round"/>
<path fill-rule="evenodd" clip-rule="evenodd" d="M26.679 70.4418C25.366 65.9003 30.0432 61.1059 34.3079 65.0587L46.8704 76.9386L43.8164 80.0498L32.1284 69.4666L37.7176 96.2975L32.2681 97.2728L26.679 70.4418Z" fill="#3A3930" stroke="#21211C" stroke-width="2.55679" stroke-linecap="round" stroke-linejoin="round"/>
<path d="M13.4518 85.699L8.92163 96.1606L15.8413 98.7348L20.3714 88.2732L13.4518 85.699Z" fill="#40403E" stroke="#1F1F1E" stroke-width="2.30209" stroke-linecap="round" stroke-linejoin="round"/>
<path fill-rule="evenodd" clip-rule="evenodd" d="M17.1512 94.9493L10.5719 92.5017L17.1512 94.9493Z" fill="#40403E"/>
<path d="M17.1512 94.9493L10.5719 92.5017" stroke="#2F2F2D" stroke-width="1.27839" stroke-linecap="round" stroke-linejoin="round"/>
<path d="M13.4518 85.699L8.92163 96.1606L15.8413 98.7348L20.3714 88.2732L13.4518 85.699Z" stroke="#1F1F1E" stroke-width="2.55855" stroke-linecap="round" stroke-linejoin="round"/>
<path fill-rule="evenodd" clip-rule="evenodd" d="M38.9165 76.0287L46.4687 69.0286L50.3039 72.5833L42.7516 79.5834L38.9165 76.0287Z" fill="#908D78" stroke="#21211C" stroke-width="2.55679" stroke-linecap="round" stroke-linejoin="round"/>
<path fill-rule="evenodd" clip-rule="evenodd" d="M12.5598 119.646L17.9896 121.345C17.8193 118.916 18.4163 117.344 20.1736 115.272L17.2252 109.84" fill="#0ACEF9"/>
<path d="M12.5598 119.646L17.9896 121.345C17.8193 118.916 18.4164 117.344 20.1736 115.272L17.2252 109.84" stroke="#1283A6" stroke-width="2.55679" stroke-linecap="round" stroke-linejoin="round"/>
<path fill-rule="evenodd" clip-rule="evenodd" d="M5.44106 126.547L2.56543 123.881L9.33577 118.078" fill="#0ACEF9"/>
<path d="M5.44106 126.547L2.56543 123.881L9.33577 118.078" stroke="#1283A6" stroke-width="2.55679" stroke-linecap="round" stroke-linejoin="round"/>
<path fill-rule="evenodd" clip-rule="evenodd" d="M18.3865 105.284C14.9839 108.437 13.0393 109.752 10.5253 115.685L1.51448 136.273C1.14051 137.082 1.33538 138.021 2.0066 138.643L9.84575 145.909C10.7532 146.75 12.2237 146.75 13.1311 145.909L34.2954 126.293L26.3509 120.548C28.5513 122.588 28.6213 125.461 25.8821 128L13.5338 139.446C13.2652 139.695 12.9463 139.892 12.5954 140.027C12.2444 140.162 11.8683 140.231 11.4884 140.231C11.1086 140.231 10.7324 140.162 10.3815 140.027C10.0306 139.892 9.71167 139.695 9.44307 139.446L8.31147 138.397C7.74594 137.873 7.35941 137.206 7.20009 136.479C7.04077 135.753 7.1157 134.999 7.41555 134.312L15.6774 115.376C16.6108 112.855 18.9132 113.48 20.2249 114.696L22.6167 107.587L18.3865 105.284Z" fill="#40403E" stroke="#1F1F1E" stroke-width="2.56047" stroke-linejoin="round"/>
<path fill-rule="evenodd" clip-rule="evenodd" d="M47.0461 76.1732C38.1512 71.5223 33.5388 78.079 28.8909 84.5425L19.2152 83.6766L11.6265 100.682L39.8247 126.819L48.3259 118.939L43.7358 83.8759L47.0461 76.1732Z" fill="#0ACEF9" stroke="#1283A6" stroke-width="2.55679" stroke-linecap="round" stroke-linejoin="round"/>
<path fill-rule="evenodd" clip-rule="evenodd" d="M17.1731 112.107L18.0776 111.268L23.7028 106.054L39.9164 121.082L33.3867 127.135L17.1731 112.107Z" fill="#40403E" stroke="#1F1F1E" stroke-width="2.55679" stroke-linejoin="round"/>
<path d="M24.9923 111.399C25.4654 110.961 25.4654 110.25 24.9923 109.811C24.5192 109.373 23.7522 109.373 23.2791 109.811C22.806 110.25 22.806 110.961 23.2791 111.399C23.7522 111.838 24.5192 111.838 24.9923 111.399Z" fill="#979794"/>
<path d="M35.8634 121.475C36.3365 121.037 36.3365 120.326 35.8634 119.887C35.3903 119.449 34.6233 119.449 34.1502 119.887C33.6771 120.326 33.6771 121.037 34.1502 121.475C34.6233 121.914 35.3903 121.914 35.8634 121.475Z" fill="#979794"/>
<path fill-rule="evenodd" clip-rule="evenodd" d="M56.8412 66.9521L49.0062 74.2141C47.9618 75.1822 47.2093 76.3871 46.8238 77.7088C46.4382 79.0304 46.4331 80.4226 46.809 81.7466L56.6935 116.568L48.5279 124.723L38.974 85.9679C38.7078 84.8883 38.7416 83.7637 39.0723 82.6995C39.4029 81.6353 40.0196 80.6662 40.8644 79.8832L55.8284 66.0134L56.8412 66.9521Z" fill="#B7B3AD" stroke="#21211C" stroke-width="2.56047" stroke-linecap="round" stroke-linejoin="round"/>
<path d="M36.9015 92.9499L31.452 93.9251L34.982 110.871L40.4315 109.895L36.9015 92.9499Z" fill="#B1AFA2" stroke="#21211C" stroke-width="2.5573" stroke-linecap="round" stroke-linejoin="round"/>
<path fill-rule="evenodd" clip-rule="evenodd" d="M32.1284 69.4666L37.7176 96.2975L32.2681 97.2728L26.6788 70.4419" fill="#3A3930"/>
<path d="M32.1284 69.4666L37.7176 96.2975L32.2681 97.2728L26.6788 70.4419" stroke="#21211C" stroke-width="2.55679" stroke-linecap="round" stroke-linejoin="round"/>
<path d="M35.567 100.111C36.4893 99.946 37.0926 99.1191 36.9146 98.2643C36.7365 97.4094 35.8444 96.8502 34.9221 97.0152C33.9998 97.1803 33.3964 98.0071 33.5745 98.862C33.7526 99.7169 34.6447 100.276 35.567 100.111Z" fill="#B1AFA2" stroke="#21211C" stroke-width="1.27865" stroke-linecap="round" stroke-linejoin="round"/>
<path d="M36.9615 106.805C37.8838 106.64 38.4872 105.813 38.3091 104.958C38.131 104.103 37.2389 103.544 36.3166 103.709C35.3943 103.874 34.791 104.701 34.9691 105.556C35.1471 106.411 36.0392 106.97 36.9615 106.805Z" fill="#B1AFA2" stroke="#21211C" stroke-width="1.27865" stroke-linecap="round" stroke-linejoin="round"/>
</g>
<defs>
<clipPath id="clip0_204_506">
<rect width="155.473" height="147.763" fill="white"/>
</clipPath>
</defs>
</svg>
