<svg width="20" height="20" viewBox="0 0 20 20" fill="none" xmlns="http://www.w3.org/2000/svg">
<path d="M9.99999 2.77777C6.03313 2.77777 2.77777 6.03313 2.77777 9.99999C2.77777 13.9669 6.03313 17.2222 9.99999 17.2222C13.9669 17.2222 17.2222 13.9669 17.2222 9.99999C17.2222 6.03313 13.9669 2.77777 9.99999 2.77777ZM16.3759 9.99999C16.3759 11.5981 15.7496 13.056 14.7714 14.173L5.82702 5.22862C6.94403 4.25043 8.40191 3.62413 9.99999 3.62413C13.5003 3.62413 16.3759 6.4997 16.3759 9.99999ZM8.86105 10.4232H9.57682V11.2695H8.71289L8.86105 10.4232ZM3.62413 9.99999C3.62413 8.40191 4.25043 6.94403 5.22862 5.82702L7.28571 7.88411H5.34505V10.4232H5.76822C5.97916 10.4232 6.13204 10.6251 6.0728 10.8294L5.51985 12.7254C5.44463 12.9837 5.49423 13.2552 5.6554 13.4701C5.817 13.6854 6.06371 13.8086 6.33232 13.8086H8.26844L8.56475 12.1159H10.4232V11.0215L14.173 14.7713C13.056 15.7496 11.5981 16.3759 9.99999 16.3759C6.4997 16.3759 3.62413 13.5003 3.62413 9.99999Z" fill="white"/>
<path d="M12.2174 10.4232H14.655V7.03777H13.8086V7.88412H9.67834L12.2174 10.4232Z" fill="white"/>
</svg>
