<svg width="129" height="110" viewBox="0 0 129 110" fill="none" xmlns="http://www.w3.org/2000/svg">
<mask id="path-1-outside-1_3290_12741" maskUnits="userSpaceOnUse" x="3.82349" y="15.4638" width="110" height="74" fill="black">
<rect fill="white" x="3.82349" y="15.4638" width="110" height="74"/>
<path fill-rule="evenodd" clip-rule="evenodd" d="M43.2804 43.3564C42.166 40.9361 44.1829 39.7243 45.9457 38.7561L47.9464 37.6472L74.4445 23.1819C77.1562 21.6785 79.8775 20.1912 82.6072 18.7206C83.756 18.102 84.9495 17.4104 86.1238 16.8583C87.1944 16.4601 88.332 16.7015 89.0574 17.5743C90.029 18.7435 90.678 20.1225 91.5032 21.3516C92.637 23.0403 93.0433 24.0141 93.5314 25.9699C93.6618 25.8904 93.7978 25.804 93.9289 25.7269C94.5183 25.3802 94.6948 25.0498 95.1631 25.7259C95.4684 25.5429 96.0723 25.122 96.3834 25.1363C96.4711 25.2093 96.6529 25.394 96.7266 25.3577C98.7383 24.3249 101.784 22.5826 103.648 21.5196C103.706 21.4767 103.764 21.4095 103.651 21.2079C104.328 20.9349 105.871 19.6007 106.298 19.3322C106.961 18.9158 111.135 16.4075 111.471 16.4648C111.821 16.7909 112.856 18.6417 113.102 19.1565C111.446 20.116 108.984 21.6482 107.334 22.4608C107.218 22.4239 107.211 22.4172 107.111 22.3446C106.401 22.5992 105.681 23.2475 104.986 23.5096L104.781 23.356C104.407 23.4962 103.095 24.3026 102.713 24.5289L97.945 27.382C97.8179 27.6998 98.025 27.7197 97.9197 27.8871C97.71 28.2189 96.9167 28.3088 96.8608 28.7015C97.0049 28.9415 97.0185 28.88 96.9931 29.1122C96.7736 29.4482 95.9939 29.9228 95.6124 30.0176C95.1428 30.1342 95.1568 29.5108 94.564 29.8854C94.1258 30.7018 96.266 34.3545 95.287 34.6924C94.8122 34.6479 93.866 33.8789 93.4561 33.572C92.2162 34.1729 90.0368 35.1898 88.6309 35.9665L88.0807 36.283C85.5947 37.7844 83.038 39.5632 80.5525 41.1109C80.4811 41.3203 80.59 41.4328 80.5378 41.5581C80.3324 42.0455 79.8547 42.2971 79.7636 42.844C79.5286 44.2555 79.6565 45.6998 79.6555 47.1238C79.653 50.7843 79.7221 54.4406 79.7784 58.1003C79.7813 58.2857 79.7811 58.4685 79.7639 58.6533L76.3519 62.6868C75.0174 64.2624 74.3924 65.1828 72.4324 66.0661C71.2791 66.5859 69.9131 67.6496 68.7211 68.1829C67.449 68.6482 65.3949 68.872 64.051 69.0783C60.2429 69.6624 59.0041 64.097 58.813 61.2265C58.7457 60.1526 58.7644 59.0746 58.8693 58.0038C59.0499 56.3394 59.8292 55.1031 58.3992 53.8516C58.3431 53.8023 58.2859 53.7535 58.2289 53.7051C57.0694 54.0887 54.913 54.8166 53.7186 55.4398L53.4932 55.5631C51.384 56.788 50.1582 58.5423 49.5075 60.8863C49.2263 61.8998 49.3982 62.1391 49.4457 63.1796C49.5003 64.3751 49.9285 65.5473 50.0557 66.6952C50.0945 67.0486 49.6902 67.6449 49.4354 67.8201C49.1284 68.0897 48.7569 67.9413 48.5634 68.1476C48.597 68.4586 49.1881 69.2923 49.3971 69.5935C52.2134 73.6525 56.5902 76.9478 60.4026 80.0931L53.278 88.5107C51.8154 87.3417 50.2034 85.918 48.7941 84.6741C46.3036 82.4761 43.575 80.06 41.5355 77.4476C40.2331 75.7795 39.0398 73.87 37.9303 71.9863L36.8479 70.1214C36.0644 70.5637 32.631 72.5718 32.0713 72.8949C31.5515 73.195 31.3172 73.2684 30.9383 73.6043C30.3171 74.1552 29.7942 74.8212 29.2291 75.429C29.6322 76.2257 29.998 76.9843 28.9586 77.4841C28.723 77.5954 28.4841 77.7026 28.2447 77.8061C28.1764 78.4844 28.167 79.3515 27.6075 79.8293C27.0022 80.3456 26.3241 79.7706 25.9401 79.2832C25.8914 79.2208 25.8426 79.1573 25.7949 79.0941L22.952 82.0548C22.4199 82.6078 21.6149 83.4795 21.0322 83.9368C21.068 84.2149 21.1004 84.5168 21.1569 84.7894C20.1159 85.3884 19.062 85.9907 18.0258 86.6006C17.7328 86.7733 17.836 86.9101 17.7724 86.9566C17.367 87.2523 16.5728 87.674 16.1629 87.8994C14.6211 85.8947 13.0633 83.9015 11.491 81.9207C10.478 80.6298 9.03452 78.8595 8.23918 77.4563C6.97239 75.2194 5.91395 72.5451 4.82349 70.1964L13.5845 65.1483C15.0011 64.3321 16.5085 63.4228 17.9319 62.6429C19.4355 63.1303 20.9777 63.6852 22.4761 64.1544C23.256 63.7072 25.3334 62.5918 25.9874 62.1248C25.9654 61.824 25.9486 61.4829 25.901 61.188C31.8355 57.6449 37.8919 54.26 43.872 50.7933C43.9505 50.7488 44.3294 50.933 44.3835 50.8295C44.7466 50.1193 45.4809 49.8737 46.2229 49.4687C45.19 47.4841 44.2177 45.3893 43.2804 43.3564ZM75.1969 44.618C74.8475 44.786 72.0792 46.5138 71.8876 46.7181C71.9859 47.2348 71.9087 47.0043 71.6573 47.4148C71.8815 47.9858 72.8121 49.059 72.6681 49.568C72.4848 49.7272 72.5623 49.7068 72.3491 49.6992C71.9125 49.4563 71.3054 48.2045 71.017 47.6965C70.4791 47.9963 70.4707 48.0805 69.8743 47.8443C69.2607 48.1018 68.3392 48.6733 67.726 49.0237C68.0661 50.2517 67.428 51.315 68.2578 52.3218C68.5188 52.6379 69.4968 53.0131 69.6421 53.2546C68.9095 54.229 66.8156 52.3495 66.7395 51.358C66.7193 51.0937 66.3878 50.0957 66.2857 49.861L65.6087 50.2529C65.7072 52.2553 65.7993 52.8116 67.2257 54.1513C66.5952 55.7914 66.7989 56.9508 68.1408 58.1053C67.4732 59.3439 67.1206 59.9557 67.6924 61.366C67.9698 61.8631 68.1446 62.0715 68.5292 62.4773C67.902 64.3046 67.3042 65.3307 69.3201 66.7184C70.7543 65.8705 72.4181 65.0016 73.7988 64.0909C74.1741 63.8433 75.3626 62.3862 75.7053 61.981L78.8191 58.2843C78.7676 54.124 78.626 49.9265 78.4935 45.7672C78.4303 43.7913 76.2083 44.8171 75.1969 44.618ZM82.9574 22.1279C82.6429 22.2741 82.0495 22.6668 81.7249 22.8643L79.2034 24.407L58.4069 37.025C56.0874 38.4327 53.7353 39.8012 51.4469 41.261C51.0434 41.5582 50.4824 41.8176 50.267 42.2839C49.7526 43.4004 50.2039 44.4321 50.7447 45.4451C51.189 46.2781 51.5576 46.8037 52.5235 47.0985C52.7443 46.9838 53.0346 46.8718 53.1546 46.6857C53.1247 46.6287 52.986 46.3572 52.9944 46.3125C53.1087 45.7783 53.4688 44.4714 54.0862 44.3695C54.4628 44.5207 54.6647 45.0651 54.8707 45.4569C55.5544 45.0475 56.3015 44.7783 57.0224 44.3556C59.1207 43.1251 61.1975 41.8595 63.2885 40.615L76.5858 32.754C76.3482 32.0591 75.8642 31.3004 75.4874 30.6581C75.5522 30.503 75.6535 30.2865 75.6237 30.1521C75.4732 29.4803 75.6258 29.7563 76.0414 29.3561C76.0529 29.345 75.9473 29.1922 76.1172 28.8624C76.6682 28.5162 76.4218 28.8573 76.8433 28.9326C76.884 28.9397 77.1128 28.7625 77.3416 28.7858C77.4158 28.9023 77.4297 28.9444 77.5447 29.0125C77.9155 28.8629 79.3597 27.9468 79.787 27.6874C81.2679 26.7839 82.7589 25.896 84.2593 25.0254C84.7692 24.7306 85.6727 23.9811 86.2058 24.2094C86.4207 24.5538 86.5061 25.0514 86.0933 25.3095C83.6794 26.8186 80.976 28.0816 78.5729 29.5826C78.4427 29.7628 78.412 29.9122 78.5582 30.0805C79.1139 30.1921 79.8813 29.3632 80.2828 29.3645C80.4371 29.4281 80.472 29.4689 80.5848 29.5848L80.6193 29.6212C81.1619 29.5253 82.9667 28.2675 83.6471 28.0197C84.1393 27.8404 85.3127 27.3179 85.6127 26.9379C86.2072 26.1831 86.6145 25.7762 87.3958 25.2138C86.2602 23.3241 85.8426 21.0951 82.9574 22.1279Z"/>
</mask>
<path fill-rule="evenodd" clip-rule="evenodd" d="M43.2804 43.3564C42.166 40.9361 44.1829 39.7243 45.9457 38.7561L47.9464 37.6472L74.4445 23.1819C77.1562 21.6785 79.8775 20.1912 82.6072 18.7206C83.756 18.102 84.9495 17.4104 86.1238 16.8583C87.1944 16.4601 88.332 16.7015 89.0574 17.5743C90.029 18.7435 90.678 20.1225 91.5032 21.3516C92.637 23.0403 93.0433 24.0141 93.5314 25.9699C93.6618 25.8904 93.7978 25.804 93.9289 25.7269C94.5183 25.3802 94.6948 25.0498 95.1631 25.7259C95.4684 25.5429 96.0723 25.122 96.3834 25.1363C96.4711 25.2093 96.6529 25.394 96.7266 25.3577C98.7383 24.3249 101.784 22.5826 103.648 21.5196C103.706 21.4767 103.764 21.4095 103.651 21.2079C104.328 20.9349 105.871 19.6007 106.298 19.3322C106.961 18.9158 111.135 16.4075 111.471 16.4648C111.821 16.7909 112.856 18.6417 113.102 19.1565C111.446 20.116 108.984 21.6482 107.334 22.4608C107.218 22.4239 107.211 22.4172 107.111 22.3446C106.401 22.5992 105.681 23.2475 104.986 23.5096L104.781 23.356C104.407 23.4962 103.095 24.3026 102.713 24.5289L97.945 27.382C97.8179 27.6998 98.025 27.7197 97.9197 27.8871C97.71 28.2189 96.9167 28.3088 96.8608 28.7015C97.0049 28.9415 97.0185 28.88 96.9931 29.1122C96.7736 29.4482 95.9939 29.9228 95.6124 30.0176C95.1428 30.1342 95.1568 29.5108 94.564 29.8854C94.1258 30.7018 96.266 34.3545 95.287 34.6924C94.8122 34.6479 93.866 33.8789 93.4561 33.572C92.2162 34.1729 90.0368 35.1898 88.6309 35.9665L88.0807 36.283C85.5947 37.7844 83.038 39.5632 80.5525 41.1109C80.4811 41.3203 80.59 41.4328 80.5378 41.5581C80.3324 42.0455 79.8547 42.2971 79.7636 42.844C79.5286 44.2555 79.6565 45.6998 79.6555 47.1238C79.653 50.7843 79.7221 54.4406 79.7784 58.1003C79.7813 58.2857 79.7811 58.4685 79.7639 58.6533L76.3519 62.6868C75.0174 64.2624 74.3924 65.1828 72.4324 66.0661C71.2791 66.5859 69.9131 67.6496 68.7211 68.1829C67.449 68.6482 65.3949 68.872 64.051 69.0783C60.2429 69.6624 59.0041 64.097 58.813 61.2265C58.7457 60.1526 58.7644 59.0746 58.8693 58.0038C59.0499 56.3394 59.8292 55.1031 58.3992 53.8516C58.3431 53.8023 58.2859 53.7535 58.2289 53.7051C57.0694 54.0887 54.913 54.8166 53.7186 55.4398L53.4932 55.5631C51.384 56.788 50.1582 58.5423 49.5075 60.8863C49.2263 61.8998 49.3982 62.1391 49.4457 63.1796C49.5003 64.3751 49.9285 65.5473 50.0557 66.6952C50.0945 67.0486 49.6902 67.6449 49.4354 67.8201C49.1284 68.0897 48.7569 67.9413 48.5634 68.1476C48.597 68.4586 49.1881 69.2923 49.3971 69.5935C52.2134 73.6525 56.5902 76.9478 60.4026 80.0931L53.278 88.5107C51.8154 87.3417 50.2034 85.918 48.7941 84.6741C46.3036 82.4761 43.575 80.06 41.5355 77.4476C40.2331 75.7795 39.0398 73.87 37.9303 71.9863L36.8479 70.1214C36.0644 70.5637 32.631 72.5718 32.0713 72.8949C31.5515 73.195 31.3172 73.2684 30.9383 73.6043C30.3171 74.1552 29.7942 74.8212 29.2291 75.429C29.6322 76.2257 29.998 76.9843 28.9586 77.4841C28.723 77.5954 28.4841 77.7026 28.2447 77.8061C28.1764 78.4844 28.167 79.3515 27.6075 79.8293C27.0022 80.3456 26.3241 79.7706 25.9401 79.2832C25.8914 79.2208 25.8426 79.1573 25.7949 79.0941L22.952 82.0548C22.4199 82.6078 21.6149 83.4795 21.0322 83.9368C21.068 84.2149 21.1004 84.5168 21.1569 84.7894C20.1159 85.3884 19.062 85.9907 18.0258 86.6006C17.7328 86.7733 17.836 86.9101 17.7724 86.9566C17.367 87.2523 16.5728 87.674 16.1629 87.8994C14.6211 85.8947 13.0633 83.9015 11.491 81.9207C10.478 80.6298 9.03452 78.8595 8.23918 77.4563C6.97239 75.2194 5.91395 72.5451 4.82349 70.1964L13.5845 65.1483C15.0011 64.3321 16.5085 63.4228 17.9319 62.6429C19.4355 63.1303 20.9777 63.6852 22.4761 64.1544C23.256 63.7072 25.3334 62.5918 25.9874 62.1248C25.9654 61.824 25.9486 61.4829 25.901 61.188C31.8355 57.6449 37.8919 54.26 43.872 50.7933C43.9505 50.7488 44.3294 50.933 44.3835 50.8295C44.7466 50.1193 45.4809 49.8737 46.2229 49.4687C45.19 47.4841 44.2177 45.3893 43.2804 43.3564ZM75.1969 44.618C74.8475 44.786 72.0792 46.5138 71.8876 46.7181C71.9859 47.2348 71.9087 47.0043 71.6573 47.4148C71.8815 47.9858 72.8121 49.059 72.6681 49.568C72.4848 49.7272 72.5623 49.7068 72.3491 49.6992C71.9125 49.4563 71.3054 48.2045 71.017 47.6965C70.4791 47.9963 70.4707 48.0805 69.8743 47.8443C69.2607 48.1018 68.3392 48.6733 67.726 49.0237C68.0661 50.2517 67.428 51.315 68.2578 52.3218C68.5188 52.6379 69.4968 53.0131 69.6421 53.2546C68.9095 54.229 66.8156 52.3495 66.7395 51.358C66.7193 51.0937 66.3878 50.0957 66.2857 49.861L65.6087 50.2529C65.7072 52.2553 65.7993 52.8116 67.2257 54.1513C66.5952 55.7914 66.7989 56.9508 68.1408 58.1053C67.4732 59.3439 67.1206 59.9557 67.6924 61.366C67.9698 61.8631 68.1446 62.0715 68.5292 62.4773C67.902 64.3046 67.3042 65.3307 69.3201 66.7184C70.7543 65.8705 72.4181 65.0016 73.7988 64.0909C74.1741 63.8433 75.3626 62.3862 75.7053 61.981L78.8191 58.2843C78.7676 54.124 78.626 49.9265 78.4935 45.7672C78.4303 43.7913 76.2083 44.8171 75.1969 44.618ZM82.9574 22.1279C82.6429 22.2741 82.0495 22.6668 81.7249 22.8643L79.2034 24.407L58.4069 37.025C56.0874 38.4327 53.7353 39.8012 51.4469 41.261C51.0434 41.5582 50.4824 41.8176 50.267 42.2839C49.7526 43.4004 50.2039 44.4321 50.7447 45.4451C51.189 46.2781 51.5576 46.8037 52.5235 47.0985C52.7443 46.9838 53.0346 46.8718 53.1546 46.6857C53.1247 46.6287 52.986 46.3572 52.9944 46.3125C53.1087 45.7783 53.4688 44.4714 54.0862 44.3695C54.4628 44.5207 54.6647 45.0651 54.8707 45.4569C55.5544 45.0475 56.3015 44.7783 57.0224 44.3556C59.1207 43.1251 61.1975 41.8595 63.2885 40.615L76.5858 32.754C76.3482 32.0591 75.8642 31.3004 75.4874 30.6581C75.5522 30.503 75.6535 30.2865 75.6237 30.1521C75.4732 29.4803 75.6258 29.7563 76.0414 29.3561C76.0529 29.345 75.9473 29.1922 76.1172 28.8624C76.6682 28.5162 76.4218 28.8573 76.8433 28.9326C76.884 28.9397 77.1128 28.7625 77.3416 28.7858C77.4158 28.9023 77.4297 28.9444 77.5447 29.0125C77.9155 28.8629 79.3597 27.9468 79.787 27.6874C81.2679 26.7839 82.7589 25.896 84.2593 25.0254C84.7692 24.7306 85.6727 23.9811 86.2058 24.2094C86.4207 24.5538 86.5061 25.0514 86.0933 25.3095C83.6794 26.8186 80.976 28.0816 78.5729 29.5826C78.4427 29.7628 78.412 29.9122 78.5582 30.0805C79.1139 30.1921 79.8813 29.3632 80.2828 29.3645C80.4371 29.4281 80.472 29.4689 80.5848 29.5848L80.6193 29.6212C81.1619 29.5253 82.9667 28.2675 83.6471 28.0197C84.1393 27.8404 85.3127 27.3179 85.6127 26.9379C86.2072 26.1831 86.6145 25.7762 87.3958 25.2138C86.2602 23.3241 85.8426 21.0951 82.9574 22.1279Z" fill="#020101"/>
<path fill-rule="evenodd" clip-rule="evenodd" d="M43.2804 43.3564C42.166 40.9361 44.1829 39.7243 45.9457 38.7561L47.9464 37.6472L74.4445 23.1819C77.1562 21.6785 79.8775 20.1912 82.6072 18.7206C83.756 18.102 84.9495 17.4104 86.1238 16.8583C87.1944 16.4601 88.332 16.7015 89.0574 17.5743C90.029 18.7435 90.678 20.1225 91.5032 21.3516C92.637 23.0403 93.0433 24.0141 93.5314 25.9699C93.6618 25.8904 93.7978 25.804 93.9289 25.7269C94.5183 25.3802 94.6948 25.0498 95.1631 25.7259C95.4684 25.5429 96.0723 25.122 96.3834 25.1363C96.4711 25.2093 96.6529 25.394 96.7266 25.3577C98.7383 24.3249 101.784 22.5826 103.648 21.5196C103.706 21.4767 103.764 21.4095 103.651 21.2079C104.328 20.9349 105.871 19.6007 106.298 19.3322C106.961 18.9158 111.135 16.4075 111.471 16.4648C111.821 16.7909 112.856 18.6417 113.102 19.1565C111.446 20.116 108.984 21.6482 107.334 22.4608C107.218 22.4239 107.211 22.4172 107.111 22.3446C106.401 22.5992 105.681 23.2475 104.986 23.5096L104.781 23.356C104.407 23.4962 103.095 24.3026 102.713 24.5289L97.945 27.382C97.8179 27.6998 98.025 27.7197 97.9197 27.8871C97.71 28.2189 96.9167 28.3088 96.8608 28.7015C97.0049 28.9415 97.0185 28.88 96.9931 29.1122C96.7736 29.4482 95.9939 29.9228 95.6124 30.0176C95.1428 30.1342 95.1568 29.5108 94.564 29.8854C94.1258 30.7018 96.266 34.3545 95.287 34.6924C94.8122 34.6479 93.866 33.8789 93.4561 33.572C92.2162 34.1729 90.0368 35.1898 88.6309 35.9665L88.0807 36.283C85.5947 37.7844 83.038 39.5632 80.5525 41.1109C80.4811 41.3203 80.59 41.4328 80.5378 41.5581C80.3324 42.0455 79.8547 42.2971 79.7636 42.844C79.5286 44.2555 79.6565 45.6998 79.6555 47.1238C79.653 50.7843 79.7221 54.4406 79.7784 58.1003C79.7813 58.2857 79.7811 58.4685 79.7639 58.6533L76.3519 62.6868C75.0174 64.2624 74.3924 65.1828 72.4324 66.0661C71.2791 66.5859 69.9131 67.6496 68.7211 68.1829C67.449 68.6482 65.3949 68.872 64.051 69.0783C60.2429 69.6624 59.0041 64.097 58.813 61.2265C58.7457 60.1526 58.7644 59.0746 58.8693 58.0038C59.0499 56.3394 59.8292 55.1031 58.3992 53.8516C58.3431 53.8023 58.2859 53.7535 58.2289 53.7051C57.0694 54.0887 54.913 54.8166 53.7186 55.4398L53.4932 55.5631C51.384 56.788 50.1582 58.5423 49.5075 60.8863C49.2263 61.8998 49.3982 62.1391 49.4457 63.1796C49.5003 64.3751 49.9285 65.5473 50.0557 66.6952C50.0945 67.0486 49.6902 67.6449 49.4354 67.8201C49.1284 68.0897 48.7569 67.9413 48.5634 68.1476C48.597 68.4586 49.1881 69.2923 49.3971 69.5935C52.2134 73.6525 56.5902 76.9478 60.4026 80.0931L53.278 88.5107C51.8154 87.3417 50.2034 85.918 48.7941 84.6741C46.3036 82.4761 43.575 80.06 41.5355 77.4476C40.2331 75.7795 39.0398 73.87 37.9303 71.9863L36.8479 70.1214C36.0644 70.5637 32.631 72.5718 32.0713 72.8949C31.5515 73.195 31.3172 73.2684 30.9383 73.6043C30.3171 74.1552 29.7942 74.8212 29.2291 75.429C29.6322 76.2257 29.998 76.9843 28.9586 77.4841C28.723 77.5954 28.4841 77.7026 28.2447 77.8061C28.1764 78.4844 28.167 79.3515 27.6075 79.8293C27.0022 80.3456 26.3241 79.7706 25.9401 79.2832C25.8914 79.2208 25.8426 79.1573 25.7949 79.0941L22.952 82.0548C22.4199 82.6078 21.6149 83.4795 21.0322 83.9368C21.068 84.2149 21.1004 84.5168 21.1569 84.7894C20.1159 85.3884 19.062 85.9907 18.0258 86.6006C17.7328 86.7733 17.836 86.9101 17.7724 86.9566C17.367 87.2523 16.5728 87.674 16.1629 87.8994C14.6211 85.8947 13.0633 83.9015 11.491 81.9207C10.478 80.6298 9.03452 78.8595 8.23918 77.4563C6.97239 75.2194 5.91395 72.5451 4.82349 70.1964L13.5845 65.1483C15.0011 64.3321 16.5085 63.4228 17.9319 62.6429C19.4355 63.1303 20.9777 63.6852 22.4761 64.1544C23.256 63.7072 25.3334 62.5918 25.9874 62.1248C25.9654 61.824 25.9486 61.4829 25.901 61.188C31.8355 57.6449 37.8919 54.26 43.872 50.7933C43.9505 50.7488 44.3294 50.933 44.3835 50.8295C44.7466 50.1193 45.4809 49.8737 46.2229 49.4687C45.19 47.4841 44.2177 45.3893 43.2804 43.3564ZM75.1969 44.618C74.8475 44.786 72.0792 46.5138 71.8876 46.7181C71.9859 47.2348 71.9087 47.0043 71.6573 47.4148C71.8815 47.9858 72.8121 49.059 72.6681 49.568C72.4848 49.7272 72.5623 49.7068 72.3491 49.6992C71.9125 49.4563 71.3054 48.2045 71.017 47.6965C70.4791 47.9963 70.4707 48.0805 69.8743 47.8443C69.2607 48.1018 68.3392 48.6733 67.726 49.0237C68.0661 50.2517 67.428 51.315 68.2578 52.3218C68.5188 52.6379 69.4968 53.0131 69.6421 53.2546C68.9095 54.229 66.8156 52.3495 66.7395 51.358C66.7193 51.0937 66.3878 50.0957 66.2857 49.861L65.6087 50.2529C65.7072 52.2553 65.7993 52.8116 67.2257 54.1513C66.5952 55.7914 66.7989 56.9508 68.1408 58.1053C67.4732 59.3439 67.1206 59.9557 67.6924 61.366C67.9698 61.8631 68.1446 62.0715 68.5292 62.4773C67.902 64.3046 67.3042 65.3307 69.3201 66.7184C70.7543 65.8705 72.4181 65.0016 73.7988 64.0909C74.1741 63.8433 75.3626 62.3862 75.7053 61.981L78.8191 58.2843C78.7676 54.124 78.626 49.9265 78.4935 45.7672C78.4303 43.7913 76.2083 44.8171 75.1969 44.618ZM82.9574 22.1279C82.6429 22.2741 82.0495 22.6668 81.7249 22.8643L79.2034 24.407L58.4069 37.025C56.0874 38.4327 53.7353 39.8012 51.4469 41.261C51.0434 41.5582 50.4824 41.8176 50.267 42.2839C49.7526 43.4004 50.2039 44.4321 50.7447 45.4451C51.189 46.2781 51.5576 46.8037 52.5235 47.0985C52.7443 46.9838 53.0346 46.8718 53.1546 46.6857C53.1247 46.6287 52.986 46.3572 52.9944 46.3125C53.1087 45.7783 53.4688 44.4714 54.0862 44.3695C54.4628 44.5207 54.6647 45.0651 54.8707 45.4569C55.5544 45.0475 56.3015 44.7783 57.0224 44.3556C59.1207 43.1251 61.1975 41.8595 63.2885 40.615L76.5858 32.754C76.3482 32.0591 75.8642 31.3004 75.4874 30.6581C75.5522 30.503 75.6535 30.2865 75.6237 30.1521C75.4732 29.4803 75.6258 29.7563 76.0414 29.3561C76.0529 29.345 75.9473 29.1922 76.1172 28.8624C76.6682 28.5162 76.4218 28.8573 76.8433 28.9326C76.884 28.9397 77.1128 28.7625 77.3416 28.7858C77.4158 28.9023 77.4297 28.9444 77.5447 29.0125C77.9155 28.8629 79.3597 27.9468 79.787 27.6874C81.2679 26.7839 82.7589 25.896 84.2593 25.0254C84.7692 24.7306 85.6727 23.9811 86.2058 24.2094C86.4207 24.5538 86.5061 25.0514 86.0933 25.3095C83.6794 26.8186 80.976 28.0816 78.5729 29.5826C78.4427 29.7628 78.412 29.9122 78.5582 30.0805C79.1139 30.1921 79.8813 29.3632 80.2828 29.3645C80.4371 29.4281 80.472 29.4689 80.5848 29.5848L80.6193 29.6212C81.1619 29.5253 82.9667 28.2675 83.6471 28.0197C84.1393 27.8404 85.3127 27.3179 85.6127 26.9379C86.2072 26.1831 86.6145 25.7762 87.3958 25.2138C86.2602 23.3241 85.8426 21.0951 82.9574 22.1279Z" stroke="black" mask="url(#path-1-outside-1_3290_12741)"/>
<path d="M45.1017 39.4464C43.9293 40.108 42.7656 41.3378 43.3059 42.8242C43.9307 44.4454 44.7913 45.9984 45.5177 47.579C46.565 49.8608 48.0334 51.9875 49.3204 54.1441C50.9429 53.1333 52.818 52.1212 54.4906 51.1714L61.9405 46.8973L89.8669 30.9273C92.8289 29.1947 94.3044 28.9947 93.1099 25.1049C92.37 22.6961 91.2684 21.4244 90.0049 19.3323C88.2435 16.4162 87.5745 16.3101 84.6732 17.8515C83.5742 18.4329 82.4806 19.0245 81.3929 19.6269L71.4082 25.0849L47.0723 38.3831C46.4118 38.73 45.7544 39.0846 45.1017 39.4464ZM82.9584 22.1275C85.8434 21.0948 86.2611 23.3236 87.3967 25.2133C86.6151 25.7759 86.2083 26.1825 85.6136 26.9374C85.3143 27.3175 84.1395 27.8405 83.6472 28.0197C82.9668 28.2675 81.1613 29.5248 80.619 29.6204L80.5849 29.5848C80.472 29.4688 80.4372 29.4274 80.2824 29.3636C79.8808 29.3629 79.1139 30.1923 78.5583 30.0805C78.4119 29.912 78.4433 29.7626 78.5739 29.5821C80.9769 28.0812 83.6796 26.8186 86.0934 25.3095C86.5064 25.0513 86.421 24.5539 86.2059 24.2094C85.6727 23.9812 84.7693 24.7308 84.2594 25.0254C82.7589 25.8961 81.2676 26.7831 79.7867 27.6866C79.3594 27.946 77.917 28.862 77.5456 29.0121C77.4301 28.9437 77.4167 28.9016 77.3421 28.7845C77.1132 28.7611 76.8844 28.9385 76.8438 28.9312C76.4223 28.8559 76.6687 28.5159 76.1173 28.8624C75.9484 29.1903 76.0524 29.3429 76.0424 29.3556C75.6264 29.7563 75.4732 29.4797 75.6238 30.1521C75.6539 30.2865 75.5519 30.502 75.487 30.6573C75.8639 31.2997 76.3482 32.0589 76.5859 32.754L63.2894 40.6145C61.1983 41.8592 59.121 43.125 57.0225 44.3556C56.3018 44.7782 55.5548 45.0464 54.8712 45.4556C54.6652 45.0637 54.4638 44.5201 54.0872 44.3691C53.4693 44.4702 53.1088 45.7784 52.9945 46.3125C52.9854 46.3562 53.1256 46.6281 53.1556 46.6852C53.0358 46.8717 52.745 46.9823 52.524 47.0972C51.5582 46.8024 51.1899 46.2776 50.7456 45.4447C50.2048 44.4315 49.7532 43.4001 50.268 42.2834C50.4835 41.817 51.0439 41.557 51.4474 41.2597C53.7358 39.7998 56.0875 38.4328 58.407 37.025L71.9075 28.8324L79.2039 24.4056L81.7251 22.8643C82.0497 22.6668 82.6439 22.2735 82.9584 22.1275Z" fill="#757963"/>
<path d="M82.9599 21.7519C82.0936 22.1643 80.1712 23.4537 79.2424 24.0121C76.1518 25.857 73.0765 27.7273 70.0167 29.6227L58.6941 36.4801C56.2317 37.9515 53.7657 39.4389 51.3168 40.9367C50.5423 41.4104 49.923 41.8419 49.7403 42.7783C49.5214 43.9004 50.1944 45.2375 50.7738 46.1622C51.2537 46.9272 51.7633 47.1501 52.5914 47.3162L53.3099 46.9239C53.3605 47.0129 53.4254 47.1433 53.4825 47.2268C53.8647 47.7864 54.2085 48.8599 54.9153 49.0541C55.5538 49.2299 56.2587 48.7942 56.2869 48.1133C56.3016 47.7462 56.1181 47.5222 55.9377 47.2098C56.8083 46.7215 56.9228 46.3755 57.613 46.0216L74.0585 36.4456C74.6818 36.0837 78.5919 33.7045 79.0845 33.5844C79.2078 33.7014 79.2473 33.755 79.4195 33.7857C79.6838 33.6281 79.5159 33.7086 79.6552 33.3756C79.7751 33.089 80.2064 32.8263 80.4791 32.7127C80.6494 32.642 80.7266 32.8105 80.9412 32.9195C81.1606 32.846 81.0975 32.8978 81.216 32.7372C81.1931 32.6165 81.1675 32.4961 81.1397 32.3765C81.282 32.1992 81.9543 31.8552 82.1912 31.7231C82.4264 31.7937 82.7299 31.8432 82.9756 31.8904C84.0087 31.3509 84.6072 30.7189 85.756 30.0811C86.9448 30.1313 87.8376 30.1254 88.9669 29.6661C90.2707 29.1358 91.7615 27.976 91.2484 26.3462C91.0691 25.7802 90.6714 25.309 90.1438 25.0365C89.2993 24.6059 88.4995 24.7662 87.6572 25.048C87.5476 24.7485 87.3849 24.4768 87.251 24.1921C86.3725 22.3229 85.2281 20.9224 82.9599 21.7519ZM82.958 22.1274C85.8431 21.0946 86.2607 23.3236 87.3963 25.2133C86.6147 25.7758 86.2078 26.1824 85.6132 26.9374C85.3138 27.3175 84.139 27.8404 83.6468 28.0197C82.9662 28.2676 81.1618 29.5241 80.6194 29.6198L80.5845 29.5847C80.4717 29.4689 80.4377 29.4276 80.2833 29.3639C79.8818 29.3626 79.1136 30.1923 78.5579 30.0804C78.4116 29.912 78.443 29.7624 78.5735 29.5821C80.9766 28.081 83.6799 26.8182 86.0939 25.3089C86.5065 25.0508 86.4213 24.5533 86.2063 24.2088C85.6732 23.9804 84.7689 24.7307 84.2589 25.0253C82.7587 25.8959 81.2683 26.7835 79.7876 27.6869C79.3605 27.9461 77.9161 28.8623 77.5452 29.012C77.43 28.9438 77.4165 28.902 77.3421 28.7853C77.1135 28.7619 76.8847 28.939 76.8439 28.932C76.4221 28.8568 76.6683 28.5158 76.1169 28.8623C75.9474 29.1915 76.0529 29.3439 76.0419 29.3556C75.626 29.7563 75.4728 29.4798 75.6234 30.152C75.6535 30.2865 75.552 30.5028 75.487 30.6581C75.8639 31.3004 76.3487 32.0585 76.5863 32.7535L63.289 40.6145C61.198 41.859 59.1213 43.1245 57.0229 44.3551C56.3021 44.7778 55.5545 45.0462 54.8708 45.4555C54.6648 45.0637 54.4633 44.52 54.0867 44.369C53.4692 44.4704 53.1093 45.7776 52.9949 46.3119C52.9855 46.3553 53.1251 46.628 53.1551 46.6851C53.0354 46.8716 52.745 46.9831 52.5241 47.098C51.5579 46.8031 51.1896 46.2778 50.7452 45.4446C50.2044 44.4314 49.7528 43.4 50.2676 42.2833C50.483 41.817 51.0439 41.5578 51.4474 41.2605C53.7358 39.8007 56.0872 38.4327 58.4065 37.025L71.9071 28.8324L79.2039 24.4064L81.7246 22.8643C82.0492 22.6668 82.6434 22.2735 82.958 22.1274Z" fill="#020101"/>
<path d="M81.5116 30.8779L56.2977 45.5072C56.4618 45.8123 56.5752 45.9982 56.7703 46.2845L82.0057 31.5661C81.7239 31.2624 81.6834 31.2756 81.5116 30.8779Z" fill="#9EA388"/>
<path d="M87.9939 25.1211C87.0803 25.5656 86.0483 26.418 85.6169 27.3486C84.8762 28.9466 83.3239 29.3103 81.8548 30.1323C81.8192 30.2602 81.7966 30.3915 81.7876 30.524C81.7356 31.2319 82.2962 31.4805 82.9055 31.5105C83.2793 31.3176 83.8212 31.096 83.9322 30.6838C84.0178 30.3659 84.0128 30.4255 84.2817 30.2477C84.4767 30.129 85.2435 29.6543 85.4164 29.5971C86.1239 29.3634 87.132 29.4838 87.8912 29.2979C88.8114 29.0642 90.0264 28.5211 90.5492 27.6994C91.0781 26.868 91.107 25.8093 90.1581 25.2791C89.4318 24.8733 88.7642 24.9215 87.9939 25.1211Z" fill="#575B47"/>
<path d="M88.0294 26.3291C87.7675 26.361 87.543 26.5313 87.4418 26.775C87.3407 27.0186 87.3785 27.2979 87.5407 27.5059C87.703 27.7139 87.9647 27.8184 88.2257 27.7795C88.6216 27.7205 88.8966 27.3543 88.8429 26.9575C88.7893 26.5608 88.4268 26.2809 88.0294 26.3291Z" fill="#020101"/>
<path d="M87.9098 26.5531C87.6413 26.6664 87.5136 26.9744 87.6232 27.2445C87.7327 27.5147 88.0389 27.6467 88.3105 27.541C88.4897 27.4712 88.6174 27.3104 88.6448 27.1201C88.6722 26.9299 88.595 26.7395 88.4428 26.6221C88.2906 26.5047 88.0869 26.4783 87.9098 26.5531Z" fill="#757963"/>
<path d="M82.176 29.256L79.0228 31.0729C78.4864 31.3766 77.0908 32.1327 76.6976 32.4816C76.7085 32.6225 76.731 32.6844 76.77 32.8182C76.744 32.885 76.7142 32.9429 76.6516 32.9791C75.0437 33.9083 73.425 34.8568 71.827 35.7993L60.4146 42.5741C59.1788 43.3244 57.4277 44.3093 56.2752 45.1079L56.2686 45.186C56.2281 45.1988 56.207 45.2126 56.171 45.2072C56.4786 45.2425 57.4298 44.6383 57.7363 44.4539C59.4246 43.4755 78.2175 32.5976 78.3466 32.4155L78.2877 32.097C78.3738 31.8998 78.3304 31.9632 78.5314 31.8428C78.863 31.9045 78.64 31.9985 78.9402 32.1178C79.7114 31.8272 79.7458 31.7534 79.9723 31.0364C80.1271 30.9207 80.0602 30.938 80.2264 30.9442C80.3049 31.0309 80.382 31.1187 80.4579 31.2077C80.7234 31.1567 81.2465 30.8053 81.5039 30.6477C81.591 29.3071 82.9047 29.6657 83.0383 28.9909L82.9513 28.8994C82.7216 28.8977 82.3896 29.1308 82.176 29.256Z" fill="#757963"/>
<path d="M85.8667 24.3172C84.7093 24.9821 75.9177 30.1337 75.7842 30.4505C75.749 30.9263 76.2627 31.6299 76.5257 32.0615L78.5803 30.8666C79.0914 30.5543 79.5761 30.1507 80.1398 29.8773C80.2695 29.8144 80.3055 29.7597 80.3292 29.641L80.2229 29.5614C79.7027 29.8338 78.9715 30.4534 78.4125 30.2172C78.3091 30.0684 78.2091 29.6235 78.3502 29.5297C80.7799 27.9142 83.5056 26.6906 85.979 25.1249C86.1767 24.9998 86.2219 24.8148 86.227 24.6034C86.0818 24.3761 86.1333 24.4447 85.8667 24.3172Z" fill="#575B47"/>
<path d="M54.1511 44.5607C54.1263 44.5722 54.1023 44.5837 54.0784 44.5955C53.5688 44.8503 53.3705 45.734 53.1814 46.2888C53.6083 46.9479 53.932 47.6652 54.3578 48.316C54.8763 49.1091 55.3554 48.9478 55.9876 48.4956C56.141 48.1381 56.219 47.5646 55.72 47.4556C55.4839 47.4043 55.2337 47.6019 55.0316 47.7248C54.7397 47.262 53.6576 45.7868 54.1749 45.3871C54.5052 45.4384 54.3746 45.5788 54.6145 45.616C54.6731 45.3133 54.323 44.8403 54.1511 44.5607Z" fill="#343925"/>
<path d="M55.2595 47.7813C55.0918 47.7992 54.9464 47.9064 54.8797 48.0615C54.8129 48.2167 54.8349 48.396 54.9372 48.5305C55.0401 48.6646 55.2069 48.7333 55.3744 48.7098C55.6271 48.6746 55.8051 48.4427 55.774 48.1891C55.7427 47.9355 55.5138 47.7541 55.2595 47.7813Z" fill="#020101"/>
<path d="M55.8192 45.1651L54.2974 46.0497L55.1108 47.4662L56.6502 46.5798L55.8192 45.1651Z" fill="#575B47"/>
<path d="M85.7372 29.6498C85.0808 30.0123 84.7205 30.2219 84.1241 30.6636C84.4124 30.6809 85.4305 30.0499 85.7293 29.8721C85.8099 29.8768 85.8906 29.8809 85.9713 29.8844C87.6447 29.9574 89.1658 29.706 90.4581 28.5232C90.9934 27.8657 91.0622 27.5993 91.1657 26.7911C90.7112 28.223 89.8479 28.7759 88.4867 29.3221C87.601 29.6776 86.6778 29.6372 85.7372 29.6498Z" fill="#343925"/>
<path d="M84.822 27.8135C84.3668 28.0412 83.3771 28.4425 83.2217 28.8679C83.3044 29.0495 83.2523 28.9947 83.4102 29.0895L83.575 29.0236C83.9091 28.8436 85.2009 28.124 85.1153 27.7043L84.822 27.8135Z" fill="#575B47"/>
<path d="M77.2845 28.9342C76.8768 29.1175 76.1306 29.4938 75.808 29.7903C75.7708 29.8244 75.7926 29.9599 75.7959 30.029C76.2375 29.8003 76.8465 29.5028 77.2302 29.1914C77.3141 29.1232 77.285 29.0696 77.2845 28.9342Z" fill="#757963"/>
<path d="M48.9557 47.3249C48.0947 47.7395 47.7311 48.7722 48.1419 49.6353C48.5533 50.4981 49.5853 50.8655 50.4495 50.4577C51.3184 50.0476 51.689 49.009 51.275 48.1417C50.8616 47.2741 49.822 46.9077 48.9557 47.3249Z" fill="#020101"/>
<path d="M49.3132 47.4118C48.4956 47.6297 48.0098 48.4686 48.2275 49.2862C48.4451 50.1037 49.2841 50.5903 50.1018 50.3728C50.9196 50.1554 51.4061 49.3162 51.1888 48.498C50.971 47.6802 50.1313 47.1937 49.3132 47.4118Z" fill="#575B47"/>
<path d="M89.0566 19.6008C88.6338 19.6924 88.3659 20.1103 88.4592 20.5329C88.5524 20.9554 88.9714 21.2217 89.3936 21.1268C89.8135 21.0324 90.078 20.6163 89.9852 20.1959C89.8925 19.7757 89.4773 19.5095 89.0566 19.6008Z" fill="#020101"/>
<path d="M89.1293 19.7761C88.9185 19.811 88.7432 19.9577 88.6716 20.159C88.6 20.3604 88.6433 20.5847 88.7848 20.745C88.9262 20.9052 89.1435 20.976 89.3522 20.9299C89.6632 20.8613 89.863 20.5573 89.8025 20.2445C89.7421 19.9318 89.4436 19.7241 89.1293 19.7761Z" fill="#575B47"/>
<path d="M17.9861 62.9121C16.9444 63.4128 14.9163 64.6694 13.8417 65.2881L5.14079 70.3201C6.17405 72.3494 7.25669 75.2625 8.37437 77.1543C9.72583 79.442 12.2819 82.5334 13.9615 84.6366C16.858 82.9419 19.9179 81.2296 22.7622 79.4652C23.1872 78.6543 23.6201 77.572 24.0386 76.7096L35.2239 70.2447C35.2856 70.213 35.3457 70.1797 35.4052 70.1442C35.8415 69.8815 35.8184 68.8735 35.9791 68.2359C36.7182 67.7851 37.4618 67.342 38.21 66.9068C38.1762 66.8612 38.1424 66.8156 38.1091 66.7696C37.9064 66.4924 37.7185 66.2564 37.7861 65.8927C37.8677 65.4537 42.092 62.6718 42.794 62.1658C42.7888 61.7798 42.5673 60.7068 42.696 60.4749C43.589 58.8679 45.4062 56.7602 46.4049 55.2586L27.6707 66.0777L17.9861 62.9121Z" fill="#4D4D4D"/>
<path d="M11.6175 77.0424C11.758 76.836 11.842 76.8028 12.0614 76.6788C13.1087 76.3976 13.5134 77.2113 14.0171 77.9905C14.203 78.2788 14.3814 78.5981 14.5482 78.8948C14.8463 79.424 15.3917 80.3492 14.7652 80.841C14.6462 80.9343 14.4801 81.0171 14.3272 81.0036C12.7364 79.6364 11.8579 77.7931 11.6175 77.0424Z" fill="#3E3E3E"/>
<path d="M12.0614 76.6788C11.842 76.8028 11.758 76.836 11.6175 77.0424C11.6735 77.0577 12.4346 76.7939 12.5798 76.7565C13.3884 77.0402 14.7745 79.3929 14.8352 80.2872C14.8523 80.5396 14.5856 80.7489 14.4163 80.8871L14.3087 80.9261L14.3272 81.0036C14.4801 81.0171 14.6463 80.9343 14.7652 80.841C15.3917 80.3492 14.8463 79.424 14.5482 78.8948C14.3814 78.5981 14.203 78.2788 14.0171 77.9905C13.5134 77.2113 13.1087 76.3976 12.0614 76.6788Z" fill="#020101"/>
<path d="M61.3287 47.503L49.43 54.3078C49.3392 56.5009 49.2803 58.8374 49.2223 61.0405C49.8978 59.0012 50.65 57.3473 52.4281 56.0399C55.0722 54.0959 58.976 53.5071 61.9157 52.1166C62.981 51.6127 64.7682 50.5034 65.8227 49.8923L72.6324 45.9543C72.768 45.2757 72.8789 44.4938 72.9887 43.8072L73.6931 43.3954C74.2766 43.6483 74.8784 43.8984 75.443 44.1887C75.9083 43.9186 76.4128 43.5713 76.8672 43.2732C76.7932 42.3841 76.5577 41.2874 76.5492 40.4174L77.314 39.9533C77.917 40.2508 78.5178 40.5527 79.1163 40.859C79.4223 41.0137 79.8037 41.2766 80.0852 41.1842L81.3801 40.3086C81.3731 39.4825 81.2727 38.5456 81.2377 37.6938L82.0084 37.221C82.8085 37.61 83.6041 38.0081 84.395 38.4153L85.7859 37.4781L85.8176 35.3212C86.026 35.1704 86.3105 34.997 86.5312 34.8533C87.0657 35.1544 87.8956 35.5224 88.4688 35.7955C90.1163 35.0291 91.817 34.0663 93.458 33.3474C93.9362 33.6697 94.8224 34.5351 95.3833 34.3684L95.4399 34.2434C95.1359 33.2389 94.8416 32.2314 94.5569 31.2213C94.3854 30.6255 94.2174 29.9867 93.995 29.4082C93.9585 29.3131 93.9076 29.1803 93.8165 29.1504C93.6302 29.0889 93.2592 29.2433 93.0964 29.3344C92.095 29.8948 91.102 30.4938 90.1039 31.0589C87.5721 32.4864 85.0477 33.9271 82.5309 35.3809L61.3287 47.503Z" fill="#575B47"/>
<path d="M39.6442 68.5138L38.3636 69.2511C39.7871 71.8891 41.801 75.2904 43.7855 77.5422C46.7612 80.9173 50.7358 84.215 54.1496 87.1621C54.4289 86.8593 54.7092 86.5273 54.9729 86.2092C56.6668 84.1665 58.4856 82.1729 60.1243 80.0889C59.807 79.8569 59.5009 79.6143 59.1988 79.3618C56.2241 76.8786 53.1145 74.4648 50.5947 71.5011C49.7315 70.4854 49.015 69.3583 48.2772 68.2528L47.2107 68.866L46.5817 68.8546C48.6745 72.5028 51.3089 74.9952 54.3882 77.7878C55.0607 78.424 55.7927 78.9482 56.391 79.6606C56.8716 80.2313 56.4131 80.8948 55.7822 80.7219C55.127 80.542 54.4301 79.6109 53.8783 79.1966C52.2224 77.7072 50.5713 76.1651 49.0493 74.5382C47.4015 72.7726 46.1063 70.8388 44.8788 68.7736C43.9962 68.7052 42.9693 68.6862 42.0671 68.638C44.7589 73.5868 46.7525 75.8698 50.8669 79.6261C51.6138 80.303 52.3699 80.9699 53.135 81.6265C53.585 82.0134 54.097 82.4261 54.5079 82.8501C54.6742 83.0215 54.6603 83.1036 54.6475 83.3018C54.5541 83.4587 54.3124 83.7048 54.1169 83.58C53.3815 83.1107 52.6902 82.4057 52.0137 81.8327C47.2987 77.8369 43.9158 74.0623 40.971 68.5781C40.4981 68.5392 40.118 68.5182 39.6442 68.5138Z" fill="#9C9C9C"/>
<path d="M58.7882 53.5148L58.599 53.6018C58.6218 53.9355 59.3714 54.4433 59.4344 55.3868C59.491 56.2312 59.2149 57.1459 59.0984 57.9859C58.9758 58.8683 58.961 59.747 58.9905 60.6365C59.0708 63.0067 59.7156 66.4881 61.5155 68.1532C62.1599 68.7498 62.9111 68.9328 63.7641 68.8994C64.4613 68.8721 68.4439 68.2994 68.7932 67.8756C68.805 67.861 68.8152 67.8451 68.8266 67.8299C69.0393 67.5453 69.0999 67.0957 69.1844 66.7523C68.3488 66.8402 68.0492 66.8604 67.2853 66.4182C66.2795 65.5962 66.197 64.3481 67.0774 63.3826C67.4452 62.9792 67.8216 62.8253 68.3066 62.5989C67.4857 62.4249 66.7563 62.1319 66.3392 61.3422C66.0775 60.85 66.0256 60.273 66.1956 59.7422C66.4691 58.8916 67.0423 58.5939 67.76 58.2227C67.6211 58.1984 67.4831 58.1694 67.3464 58.136C66.2013 57.8473 65.3433 56.7124 65.6792 55.5151C65.8915 54.757 66.3271 54.5047 66.9587 54.1523C66.8412 54.0543 66.7257 53.954 66.612 53.8515C65.5623 52.8988 65.4813 51.7166 65.4159 50.3846C64.0464 51.1853 62.6582 52.0862 61.1775 52.6494C60.3881 52.9495 59.5844 53.2303 58.7882 53.5148Z" fill="#343925"/>
<path d="M44.1324 51.0229C42.536 51.8236 40.1052 53.3337 38.4776 54.2746L26.1665 61.3925C26.1852 61.7956 26.1688 61.9136 26.1026 62.3081C25.135 62.9552 23.7628 63.6701 22.7169 64.2321C23.6516 64.5515 24.5876 64.8654 25.5261 65.1732C26.2108 65.4069 26.9603 65.6815 27.653 65.8667L46.5764 54.945C45.8682 53.7521 45.143 52.3743 44.392 51.1978C44.3496 51.1309 44.2101 51.0563 44.1324 51.0229Z" fill="#656565"/>
<path d="M46.3318 49.6503C45.9054 49.8835 44.9565 50.3414 44.7072 50.7077C44.5743 51.2576 45.2789 52.2629 45.5643 52.7534L46.8727 55.0287C46.6571 55.2928 46.4304 55.6035 46.2325 55.8814C45.1348 57.4241 43.8865 58.9197 42.83 60.487C42.826 60.8623 42.9714 61.8346 43.0052 62.2908L41.8152 63.1475C42.0437 63.489 42.2355 63.8432 42.4363 64.2014L43.6819 63.4837L44.3718 63.0914C46.0718 63.271 48.2583 63.3511 48.945 61.1706C49.1478 60.5266 49.0816 59.2744 49.1017 58.5538L49.2357 54.3755C48.415 52.9552 47.212 51.0387 46.3318 49.6503Z" fill="#757963"/>
<path d="M45.7441 58.6074C44.835 58.9413 44.3695 59.9489 44.7041 60.8576C45.0387 61.7662 46.0473 62.2305 46.9553 61.8947C47.8621 61.5593 48.3255 60.5531 47.9911 59.6462C47.6568 58.7393 46.6515 58.2743 45.7441 58.6074Z" fill="#020101"/>
<path d="M45.8616 58.771C45.0511 59.0334 44.6033 59.8995 44.8579 60.7123C45.1125 61.525 45.9742 61.9811 46.7892 61.7343C47.6157 61.4839 48.0793 60.6078 47.8208 59.7843C47.5629 58.9605 46.6829 58.5052 45.8616 58.771Z" fill="#575B47"/>
<path d="M44.8199 63.3435L36.143 68.3925C36.03 68.8343 35.9158 69.6742 35.8168 70.1675C35.1627 70.5686 32.4253 71.9831 32.1533 72.4617C32.5339 72.42 36.1902 70.2377 36.811 69.8837C37.1999 69.6685 39.2708 68.3785 39.5468 68.3654C42.0422 68.2473 44.6985 68.7668 47.1993 68.5752C47.3834 68.5611 48.4412 67.9133 48.6731 67.7759C47.7065 66.3544 46.8194 64.845 45.8562 63.4437L44.8199 63.3435Z" fill="#757963"/>
<path d="M22.6202 79.8354C19.8518 81.336 16.8281 83.1797 14.0853 84.7727C14.6342 85.5692 15.4334 86.5272 16.051 87.2938C16.1346 87.4244 16.1472 87.4384 16.2815 87.5155C17.1461 87.1045 17.6201 86.6026 18.3824 86.1231C19.1621 85.6326 20.0867 85.1286 20.8946 84.6698C20.8762 84.5071 20.7958 83.9286 20.8276 83.8062C21.1244 82.6528 22.0693 80.9103 22.6202 79.8354Z" fill="#3E3E3E"/>
<path d="M80.343 41.2857C80.0005 41.4539 79.1012 42.0703 78.7308 42.3105C77.6371 43.0257 76.5384 43.733 75.4346 44.4325C76.734 44.2875 78.6154 43.9419 78.6931 45.7659C78.8321 49.0308 78.8822 52.2984 78.962 55.5656C78.9843 56.4785 79.0365 57.4464 78.996 58.3518C78.5563 58.9797 77.2252 60.4762 76.7132 61.0859C76.2368 61.6531 74.3149 64.0124 73.8142 64.3494C72.9749 64.9144 71.1842 65.8988 70.24 66.4349L69.3064 66.9545L69.0867 67.7427L72.4159 65.8372C73.0101 65.4969 74.2315 64.8725 74.6364 64.3765C76.2301 62.4241 78.0338 60.508 79.5732 58.519C79.6261 57.6791 79.5445 55.8492 79.5304 54.9096L79.4594 47.9572C79.4439 46.4908 79.4348 45.0351 79.4575 43.5713C79.4775 42.2868 80.3142 41.859 80.343 41.2857Z" fill="#575B47"/>
<path d="M110.405 17.1852C109.288 17.7981 107.939 18.5769 106.856 19.2478L105.867 19.7942C106.083 20.1588 107.087 21.983 107.31 22.1962C107.48 22.1929 107.521 22.1486 107.653 22.0506C108.532 21.5983 109.578 20.9363 110.465 20.4456C111.043 20.1259 112.341 19.4011 112.823 19.0444C112.359 18.2293 111.883 17.4205 111.397 16.6183L110.405 17.1852Z" fill="#575B47"/>
<path d="M110.405 17.1851C109.288 17.798 107.939 18.5767 106.856 19.2477C106.974 19.2031 107.275 19.075 107.388 19.0872C107.371 19.3488 107.376 19.4566 107.593 19.6145C107.981 19.6578 110.218 18.2853 110.636 17.9542C110.773 17.845 110.794 17.749 110.83 17.5864C110.709 17.35 110.775 17.4254 110.541 17.2953L110.405 17.1851Z" fill="#020101"/>
<path d="M110.405 17.1851C109.288 17.798 107.939 18.5767 106.856 19.2477C106.974 19.2031 107.275 19.075 107.388 19.0872C108.08 18.7908 109.686 17.7259 110.541 17.2953L110.405 17.1851Z" fill="#757963"/>
<path d="M110.562 17.4934C109.822 17.8603 108.387 18.6963 107.678 19.1855C107.601 19.2391 107.631 19.3414 107.636 19.4535C108.05 19.2552 110.418 17.9205 110.598 17.6745L110.562 17.4934Z" fill="#343925"/>
<path d="M111.875 19.4841C111.826 19.2881 111.814 19.1463 111.653 19.0296C111.122 18.9546 109.301 20.2165 108.764 20.5101C108.558 20.6228 108.417 20.8018 108.384 21.0366C108.507 21.2558 108.447 21.1866 108.687 21.3049C108.578 21.5132 107.926 21.7804 107.653 22.0505C108.532 21.5982 109.578 20.9363 110.465 20.4455C111.044 20.1259 112.341 19.401 112.823 19.0443C112.535 19.1493 112.089 19.5032 111.875 19.4841Z" fill="#020101"/>
<path d="M111.875 19.4842C111.448 19.6957 109.012 21.0634 108.687 21.3049C108.578 21.5132 107.926 21.7804 107.653 22.0505C108.532 21.5982 109.578 20.9363 110.465 20.4455C111.043 20.1259 112.341 19.401 112.823 19.0443C112.535 19.1493 112.089 19.5032 111.875 19.4842Z" fill="#757963"/>
<path d="M111.558 19.1657C111.172 19.3201 108.767 20.6872 108.599 20.9197L108.645 21.0905C109.557 20.6455 110.545 19.998 111.436 19.4908C111.603 19.3957 111.596 19.321 111.558 19.1657Z" fill="#343925"/>
<path d="M38.1784 69.3572C37.9958 69.4569 37.6701 69.6132 37.5911 69.7859C37.7904 70.376 38.9618 72.2741 39.317 72.848C40.4934 74.7482 42.0264 77.0121 43.552 78.6672C46.5339 81.9028 50.1982 85.0064 53.5642 87.8343C53.7195 87.6512 53.8888 87.4741 54.0534 87.2979C52.6287 86.1699 51.0753 84.7764 49.7057 83.569C47.9127 81.9885 45.8343 80.1053 44.2322 78.3449C41.9122 75.7971 39.7979 72.4047 38.1784 69.3572Z" fill="#9C9C9C"/>
<path d="M30.4779 73.4413C28.4012 74.615 26.3324 75.8023 24.2719 77.0029C23.7315 78.1983 23.1777 79.3872 22.6103 80.5697C22.4114 80.9856 21.417 82.9391 21.3632 83.2502L21.5105 83.1554C24.3455 80.4304 27.0505 77.3713 29.761 74.5188C30.0868 74.176 30.5166 73.7752 30.7939 73.4119L30.7584 73.3479L30.4779 73.4413Z" fill="#626161"/>
<path d="M45.2384 68.7888C45.1461 69.0565 46.106 70.386 46.3047 70.6965C48.6362 74.3293 51.9345 77.1449 55.0873 80.0351C55.5802 80.4872 55.7447 80.6866 56.3724 80.3796C56.4303 80.1145 56.4246 79.8792 56.2093 79.6891C52.3868 76.3036 48.9674 73.308 46.3571 68.8515C45.9878 68.8261 45.6093 68.8092 45.2384 68.7888Z" fill="#4D4D4D"/>
<path d="M96.877 25.5535L96.8534 25.6058C96.9059 25.8338 97.6008 26.9813 97.7606 27.2555L104.558 23.1927L104.619 23.136C104.656 22.8718 104.02 21.9389 103.844 21.6536C101.534 22.9753 99.2113 24.2752 96.877 25.5535Z" fill="#343925"/>
<path d="M49.1184 61.5253L49.1035 61.5461C48.1746 62.8408 47.6205 63.1975 46.0827 63.4518C46.9434 64.6964 47.7957 66.0574 48.6206 67.3346C48.7417 67.5469 48.8019 67.7367 49.046 67.7825C49.3945 67.6125 49.9411 67.0912 49.8662 66.7166C49.5145 64.9711 49.194 63.3237 49.1184 61.5253Z" fill="#575B47"/>
<path d="M41.2981 68.5946L41.2794 68.7267C42.5355 71.3766 45.0354 74.8111 47.0901 76.9188C49.28 79.1649 51.7506 81.4345 54.1948 83.3979C54.1948 83.3979 54.433 83.401 54.452 83.4015L54.4684 83.1968C54.3187 82.7871 52.5037 81.3629 52.0676 80.9626C50.0251 79.0859 47.8369 77.1602 46.0577 75.0361C44.982 73.7314 43.9986 72.3533 43.1153 70.9114C42.6773 70.2047 42.3342 69.3681 41.834 68.722C41.7215 68.5777 41.4872 68.6047 41.2981 68.5946Z" fill="#4D4D4D"/>
<path d="M37.341 69.8048C37.1439 69.9597 37.1501 69.9044 37.1036 70.1049C37.1606 70.4071 38.2703 72.1814 38.4843 72.5598C40.8612 76.7648 43.6554 79.7712 47.2142 83.0031C49.195 84.7898 51.2109 86.5373 53.2599 88.2452C53.3533 88.1413 53.3563 88.1244 53.4126 87.994C53.2237 87.7355 51.9594 86.7014 51.6453 86.4371C50.7073 85.656 49.7825 84.8589 48.8719 84.0461C43.5518 79.3079 40.7469 76.1108 37.341 69.8048Z" fill="#747474"/>
<path d="M94.752 25.4907C94.3872 25.7131 93.974 25.9383 93.6002 26.1524C93.8383 27.5073 94.6909 28.7293 95.4276 29.9195C95.8754 29.6303 96.3798 29.3492 96.8434 29.0795C96.1518 27.9801 95.3801 26.6313 94.752 25.4907Z" fill="#575B47"/>
<path d="M105.844 20.1219L103.868 21.2648C104.261 21.9218 104.649 22.6182 105.032 23.2836C105.691 22.8972 106.353 22.5161 107.018 22.1404C106.634 21.4634 106.243 20.7904 105.844 20.1219Z" fill="#757963"/>
<path d="M29.0671 75.6103C28.0423 76.7286 26.9728 77.8083 25.9564 78.936C26.2592 79.3865 26.3349 79.5539 26.8359 79.7908C28.1638 79.8985 27.8018 78.4291 28.1722 77.5756C29.4255 77.1641 29.7999 76.864 29.0671 75.6103Z" fill="#373737"/>
<path d="M41.6494 63.2371C40.6801 63.832 39.7077 64.6316 38.6761 65.2652L39.275 66.3103C40.2734 65.6944 41.3549 65.0863 42.3744 64.4967L41.6494 63.2371Z" fill="#575B47"/>
<path d="M77.3342 40.1704L76.7234 40.5627C76.8715 41.4 76.9206 42.2982 77.0645 43.1633C77.4167 42.9096 77.812 42.6696 78.1809 42.4366C78.5977 42.1215 79.2959 41.6942 79.7533 41.3968L77.3342 40.1704Z" fill="#757963"/>
<path d="M82 37.4445C81.6499 37.6476 81.4812 37.7067 81.4654 38.1425C81.4409 38.816 81.538 39.5155 81.5847 40.1925C81.9832 39.9585 82.3391 39.7256 82.7245 39.4702L84.1989 38.5214L82 37.4445Z" fill="#757963"/>
<path d="M96.3539 25.2915L95.2521 25.93L96.688 28.4023L97.789 27.7588C97.5501 27.2316 96.6831 25.7412 96.3539 25.2915Z" fill="#757963"/>
<path d="M68.1459 62.9061C66.3452 63.7623 66.0372 65.7618 67.9917 66.5363C68.2987 66.5978 68.4608 66.6026 68.7687 66.6149C67.5899 65.4388 67.4483 64.4149 68.1459 62.9061Z" fill="#575B47"/>
<path d="M67.5449 49.1305L66.4833 49.7423C67.1417 51.4572 66.8879 52.7564 69.1345 53.3338L69.3394 53.2907L69.3432 53.2216C66.678 52.0115 68.0544 51.1109 67.5449 49.1305Z" fill="#757963"/>
<path d="M67.4918 58.5912C65.806 59.6089 65.9217 61.32 67.6154 62.2285L67.9725 62.3016C68.0038 62.0591 67.1424 61.2459 67.2058 60.0639C67.2526 59.2004 67.5618 58.9689 67.6327 58.5981L67.4918 58.5912Z" fill="#575B47"/>
<path d="M86.5258 35.0982C86.4487 35.1509 86.173 35.3245 86.1374 35.3801C85.8934 35.7618 85.995 36.8767 86.0027 37.3398C86.32 37.1538 86.6533 36.9332 86.9661 36.734C87.396 36.4676 87.818 36.1887 88.2317 35.8977C87.6708 35.6148 87.102 35.3482 86.5258 35.0982Z" fill="#757963"/>
<path d="M66.9115 54.3909C65.2751 55.3097 65.5272 57.0732 67.1289 57.8507C67.3216 57.9202 67.3677 57.9313 67.5702 57.9596C67.5607 57.9068 67.144 57.2991 67.0756 57.1767C66.5398 56.2265 66.6333 55.4012 66.9115 54.3909Z" fill="#575B47"/>
<path d="M73.6749 43.6213C73.3617 43.8001 73.2109 43.8636 73.124 44.223C73.0004 44.7345 72.9481 45.2931 72.8701 45.8162C73.1338 45.6549 73.4106 45.4634 73.6703 45.2911L75.2441 44.3013C74.6856 44.0364 74.2546 43.8469 73.6749 43.6213Z" fill="#757963"/>
<path d="M93.7524 27.4506C93.5936 28.1278 93.4819 28.4256 93.1762 29.0491C93.5678 28.8931 93.6711 28.7791 94.0614 28.9815C94.1516 29.2403 94.213 29.5975 94.4789 29.6736C94.6796 29.5481 94.737 29.559 94.8237 29.3788C94.6977 28.9887 94.0021 27.8756 93.7524 27.4506Z" fill="#343925"/>
<path d="M71.3944 47.4175C71.3513 47.4646 71.3013 47.5387 71.2623 47.592C71.3246 47.9817 72.1177 49.1797 72.364 49.5665L72.4938 49.4532C72.491 49.1279 71.6038 47.7616 71.3944 47.4175Z" fill="#9EA388"/>
<path d="M38.5163 65.4662C38.3065 65.6029 38.05 65.7546 37.9722 65.9878C37.9507 66.2266 38.0539 66.3599 38.1723 66.5728C38.3795 66.4601 38.7135 66.3207 38.803 66.122C38.8279 65.897 38.6422 65.6673 38.5163 65.4662Z" fill="#343925"/>
<path d="M71.7523 46.7901C71.4065 46.9072 70.2415 47.4784 70.1687 47.8171C70.5746 47.7688 71.6054 47.2003 71.7523 46.7901Z" fill="#343925"/>
<path d="M88.013 17.0185L43.3668 41.512C43.2928 40.7559 44.4177 39.8691 44.9894 39.5202C57.9036 32.4631 84.0899 18.165 85.5218 17.4297C86.9536 16.6944 87.7792 16.8492 88.013 17.0185Z" fill="#9EA388"/>
<path d="M44.6352 51.6099L26.1201 62.2394L26.1696 61.388L44.1457 51.0323L44.3634 51.161L44.6352 51.6099Z" fill="#9C9C9C"/>
<path d="M17.9958 62.9498L5.13745 70.3928L5.57386 71.2141L18.9969 63.2835L17.9958 62.9498Z" fill="#656565"/>
</svg>
