<svg width="154" height="24" viewBox="0 0 154 24" fill="none" xmlns="http://www.w3.org/2000/svg">
<path d="M134.778 1.25305C134.463 1.25478 134.145 1.26464 133.869 1.29114C133.674 1.30985 133.47 1.3397 133.299 1.39368L133.14 1.45618L133.021 1.51477L132.966 1.63391C132.933 1.70398 132.916 1.78385 132.905 1.84192C132.893 1.90867 132.882 1.98705 132.873 2.07141C132.854 2.24057 132.839 2.45462 132.826 2.69543C132.801 3.17842 132.784 3.78769 132.775 4.39856C132.762 5.32645 132.766 6.27907 132.777 6.81165C132.613 6.79873 132.43 6.7936 132.261 6.79211C132.079 6.79052 131.89 6.79403 131.73 6.79602C131.365 5.98912 130.731 5.49584 129.963 5.22668C129.136 4.93694 128.155 4.90437 127.177 4.98157C126.193 5.05914 125.176 5.25104 124.265 5.43665C123.339 5.62509 122.543 5.80205 121.957 5.86438C121.818 5.87908 121.244 5.91878 120.691 5.92297C120.414 5.92508 120.156 5.91873 119.966 5.89758C119.904 5.89075 119.857 5.88146 119.822 5.87415C119.405 5.07773 118.488 4.91835 117.713 4.8927C117.288 4.87867 116.844 4.90296 116.453 4.92004C116.049 4.93769 115.709 4.94688 115.447 4.91321L115.302 4.90833C115.161 4.91736 115.034 4.96472 114.93 5.02161C114.791 5.09686 114.67 5.2002 114.568 5.3009C114.426 5.44273 114.293 5.61181 114.191 5.74426C113.614 5.78035 112.613 5.7777 111.573 5.75696C111.007 5.74566 110.436 5.72995 109.927 5.71594C109.419 5.70196 108.97 5.68988 108.652 5.68372L97.0293 5.45715H97.0264C90.3627 5.37856 83.6995 5.26458 77.0371 5.11536L77.0342 5.11438C72.9683 5.05764 68.7837 5.1144 64.7715 4.63879C64.5116 4.60799 64.3818 4.48235 64.2598 4.29895C64.227 4.24977 64.1957 4.19817 64.1621 4.14075C64.1302 4.08618 64.0933 4.02089 64.0557 3.96106C63.9832 3.8457 63.8759 3.69342 63.7109 3.58997L63.6387 3.54407L63.5537 3.5343C63.4802 3.52599 63.363 3.5081 63.2568 3.51379C63.1231 3.52098 63.0079 3.56041 62.8867 3.62415L62.7588 3.69153L62.709 3.82629C62.6184 4.07079 62.5996 4.41049 62.5957 4.6925C62.5938 4.82865 62.5996 4.96969 62.6025 5.10071C62.5373 5.09725 62.4702 5.0945 62.4014 5.08997C62.2066 5.07713 61.9903 5.06231 61.7803 5.07043C61.3436 5.08735 60.8785 5.20742 60.5234 5.672L60.4482 5.77063L60.4463 5.89465C60.4425 6.15721 60.4272 6.68639 60.4287 7.19836C60.4295 7.45532 60.4345 7.71424 60.4473 7.93958C60.4496 7.98068 60.455 8.02201 60.458 8.06262C59.5548 8.08018 57.527 8.08748 55.5557 8.0802C54.3725 8.07583 53.2162 8.06748 52.3486 8.05579C51.9149 8.04994 51.5548 8.04262 51.2998 8.03528C51.2614 8.03417 51.2254 8.03152 51.1924 8.0304L51.1768 7.92004L51.0938 7.83215C50.9686 7.70014 50.7894 7.64903 50.6807 7.62415C50.5514 7.59457 50.4071 7.57861 50.2734 7.57043C50.0049 7.55403 49.7293 7.56462 49.5918 7.57532H49.5928C47.7378 7.7194 46.3717 7.72946 44.6494 7.19641C44.4782 7.14348 44.178 7.12043 43.874 7.1095C43.5507 7.09787 43.1646 7.09917 42.7852 7.11243C42.4063 7.12567 42.0262 7.1505 41.7178 7.18958C41.5642 7.20903 41.4208 7.23355 41.3008 7.26282C41.226 7.28104 41.1233 7.30909 41.0303 7.3595L40.9414 7.41809L40.8135 7.52161L40.8076 7.62122C40.5915 7.64004 40.2741 7.64822 39.9307 7.64856C39.5014 7.64898 39.1076 7.64054 38.8311 7.63977L34.707 7.63098L20.2646 7.62805C20.1981 7.53902 20.1304 7.45317 20.0547 7.38489C19.9135 7.25753 19.7568 7.1908 19.5605 7.12805V7.12903C19.5009 7.10936 19.4411 7.10222 19.4199 7.09973C19.3751 7.09446 19.3199 7.09001 19.2588 7.08606C19.1356 7.07811 18.9694 7.0707 18.7686 7.06458C18.3655 7.05228 17.8097 7.04246 17.1514 7.03528C15.8336 7.02091 14.0964 7.01551 12.3311 7.01477C9.19514 7.01345 5.9638 7.02737 4.8252 7.03137C4.77784 6.8789 4.67681 6.77828 4.59766 6.69934L4.51172 6.6134L4.3916 6.59387C4.12966 6.5521 3.84901 6.54564 3.58789 6.54602C3.31391 6.54642 3.07592 6.55435 2.84473 6.54797C2.06479 6.52655 1.45775 6.65783 1.0752 7.10364C0.709806 7.52959 0.638089 8.14929 0.637695 8.83704L0.625 14.1847C0.623429 15.9692 0.63091 17.7546 0.664062 19.5382V19.5392C0.670302 19.8605 0.757466 20.1345 0.929688 20.3507C1.09971 20.564 1.32588 20.6883 1.55078 20.7609C1.97882 20.8989 2.49637 20.8759 2.85254 20.8654C3.39505 20.8946 4.34005 20.8943 4.89844 20.8019C5.17891 20.7768 5.43551 20.6396 5.65137 20.4816C5.87185 20.3202 6.08388 20.1122 6.27734 19.8995C6.47182 19.6858 6.65683 19.4566 6.82227 19.2482C6.94437 19.0943 7.05541 18.9573 7.15234 18.838L23.5674 18.8839H23.5684C24.8747 18.8848 26.9627 18.886 28.4072 18.8868C28.4142 18.9798 28.4223 19.0724 28.4268 19.1652L28.4346 19.3273L28.5576 19.4318C28.6459 19.5074 28.7564 19.5381 28.8047 19.5509C28.8724 19.5689 28.9505 19.5839 29.0322 19.5958C29.1975 19.6199 29.4099 19.6387 29.6475 19.6534C30.1246 19.6831 30.7326 19.6966 31.3369 19.6954C31.9411 19.6942 32.5494 19.6782 33.0264 19.6456C33.2637 19.6294 33.4759 19.6083 33.6416 19.5822C33.7237 19.5692 33.8033 19.5541 33.8721 19.5343C33.9212 19.5202 34.0345 19.4865 34.123 19.4034L34.2588 19.2755L34.2393 19.0909L34.2188 18.8859C38.2897 18.7972 42.6922 18.9028 46.7998 18.88H46.9092L47.002 18.8195L47.4619 18.5206C47.8237 18.5233 48.4596 18.5417 49.1221 18.547C49.4809 18.5499 49.8401 18.5476 50.1445 18.5363C50.4351 18.5254 50.7173 18.5055 50.8955 18.4572L51.0342 18.4191L51.1123 18.297C51.1636 18.217 51.1945 18.1387 51.2168 18.0665C51.2581 18.065 51.3041 18.0631 51.3545 18.0616C51.6118 18.0541 51.9727 18.0485 52.4062 18.0441C53.2728 18.0353 54.4219 18.0316 55.5947 18.0314C57.5556 18.031 59.5763 18.0392 60.4551 18.0421C60.4459 18.4859 60.4169 18.8587 60.3984 19.1866C60.3766 19.5746 60.3634 19.9629 60.4854 20.2745C60.6302 20.6444 60.9314 20.8472 61.3438 20.9484C61.6584 21.0255 62.0717 21.0508 62.6006 21.0499C62.5977 21.1813 62.5926 21.3197 62.5938 21.4542C62.5961 21.7335 62.6124 22.0388 62.6738 22.297L62.6982 22.4044L62.7773 22.4806C62.8841 22.5838 63.0077 22.6734 63.1514 22.7179C63.3075 22.7662 63.4632 22.7532 63.6016 22.6896C63.7277 22.6316 63.8209 22.5406 63.8867 22.462C63.9538 22.382 64.0118 22.2913 64.0605 22.2111C64.1693 22.0322 64.2391 21.8971 64.333 21.7784C64.4212 21.6672 64.4759 21.6458 64.5068 21.6417C69.4735 20.9811 74.5545 21.1364 79.625 21.0363H79.626L100.221 20.6154V20.6144L109.968 20.4337H109.969C110.537 20.4217 111.362 20.3719 112.143 20.339C112.931 20.3057 113.675 20.2896 114.152 20.337C114.159 20.3414 114.174 20.3517 114.196 20.3722C114.25 20.4212 114.31 20.4926 114.391 20.5929C114.464 20.6844 114.557 20.8024 114.656 20.9044C114.755 21.0056 114.886 21.1195 115.052 21.1866C115.16 21.2305 115.3 21.2532 115.427 21.2677C115.564 21.2834 115.727 21.2937 115.904 21.2999C116.259 21.3125 116.688 21.3097 117.113 21.2941C117.539 21.2784 117.968 21.2496 118.321 21.212C118.498 21.1933 118.659 21.1719 118.795 21.1476C118.921 21.125 119.056 21.0953 119.157 21.0499C119.411 20.9368 119.569 20.7951 119.673 20.5997C119.717 20.5176 119.747 20.4325 119.77 20.3702C119.785 20.3263 119.802 20.2875 119.818 20.2472C119.844 20.2397 119.882 20.2304 119.935 20.2228C120.103 20.1984 120.349 20.1935 120.664 20.2081C121.289 20.2372 122.114 20.3407 122.969 20.4708C123.821 20.6005 124.691 20.7548 125.405 20.882C126.106 21.0067 126.685 21.111 126.923 21.1329C127.889 21.2219 129.063 21.2525 130.064 20.9113C130.919 20.6201 131.387 20.1017 131.756 19.4113C133.268 19.4348 134.781 19.4172 136.292 19.3546L136.634 19.34L136.651 18.9991C136.714 17.8038 136.751 16.6072 136.766 15.4103C137.909 15.4003 139.082 15.4158 140.232 15.4171H140.605L140.607 15.045C140.609 14.8566 140.601 14.7578 140.61 14.6398C140.612 14.6196 140.618 14.6015 140.62 14.5841C140.748 14.578 140.925 14.572 141.142 14.5675C141.524 14.5596 142.001 14.5563 142.479 14.5577C142.956 14.5592 143.431 14.5657 143.811 14.5782C144 14.5845 144.164 14.5917 144.29 14.6007C144.299 14.6014 144.308 14.602 144.316 14.6027C144.351 14.6771 144.392 14.7415 144.444 14.8068L144.548 14.9366L144.714 14.9474C145.077 14.97 145.417 14.9369 145.735 14.8956C146.015 14.8594 146.266 14.8209 146.527 14.796C146.559 14.8205 146.59 14.8458 146.621 14.8702L146.728 14.9532L146.863 14.9493C147.61 14.9262 148.805 14.9509 149.997 14.963C151.173 14.975 152.357 14.9753 153.04 14.8986L153.373 14.8605V14.5255L153.375 11.3087V10.9513L153.019 10.9337C152.667 10.9166 151.163 10.8909 149.723 10.8907C149.001 10.8907 148.29 10.8964 147.743 10.9142C147.47 10.9231 147.232 10.9355 147.053 10.9513C146.964 10.9591 146.882 10.9687 146.814 10.9806C146.781 10.9865 146.745 10.9945 146.709 11.005C146.696 11.0089 146.673 11.0157 146.646 11.0275L146.555 11.0792L146.528 11.087C146.506 11.0926 146.467 11.0988 146.405 11.0997C146.291 11.1015 146.146 11.0851 145.976 11.0568C145.892 11.0428 145.806 11.0273 145.718 11.0109C145.631 10.9947 145.54 10.9776 145.452 10.963C145.283 10.9349 145.094 10.9093 144.926 10.9181L144.833 10.9279C144.741 10.9423 144.647 10.9728 144.562 11.0314C144.446 11.1117 144.387 11.2158 144.354 11.2892C144.343 11.3139 144.334 11.3388 144.327 11.3585C143.332 11.4249 141.764 11.3884 140.636 11.3761C140.632 11.2429 140.618 11.1087 140.581 10.9171L140.557 10.7931L140.463 10.7091C140.389 10.6429 140.304 10.6095 140.252 10.5919C140.192 10.5716 140.127 10.556 140.062 10.5441C139.934 10.5202 139.776 10.5037 139.606 10.4913C139.265 10.4665 138.837 10.4575 138.406 10.4562C137.8 10.4544 137.159 10.4668 136.742 10.4757L136.737 1.65833V1.28918L136.368 1.28333C136.065 1.27878 135.4 1.24963 134.778 1.25305Z" fill="#0F110F" stroke="#0F110F" stroke-width="0.75"/>
<path d="M4.30654 7.1345C3.12075 7.11424 2.28739 6.94883 1.30107 7.60038C1.18911 8.42216 1.22538 9.36945 1.22696 10.2063C1.23484 13.3202 1.19305 16.4365 1.23878 19.5497C1.2506 20.366 2.29449 20.3221 2.84402 20.4905C3.38409 20.5216 4.34517 20.5207 4.86475 20.429L3.89025 20.3788L4.30575 20.3798L4.31758 11.7899C4.31758 10.3253 4.36173 8.57535 4.30654 7.1345Z" fill="#4D4D4D"/>
<path d="M19.4461 7.48502C19.0976 7.33885 5.80238 7.4046 4.4999 7.40744C4.49753 7.69592 4.44313 7.78178 4.58741 7.96943C4.93511 8.0351 19.6243 8.01989 19.7102 7.99434C19.6416 7.7612 19.5785 7.68 19.4461 7.48502Z" fill="#4D4D4D"/>
<path d="M62.897 5.71013C62.6368 5.70019 61.4865 5.62616 61.3146 5.73654L60.8211 5.8999C60.8132 6.44013 60.7619 7.97796 60.8842 8.42759C61.1506 8.56849 60.8834 8.91011 61.097 9.28256C61.4849 9.61552 62.4295 9.5351 62.9585 9.53021C62.9656 9.09035 63.0602 5.95068 62.897 5.71013Z" fill="#343925"/>
<path d="M62.897 5.71013C62.6368 5.70019 61.4865 5.62616 61.3146 5.73654C61.6481 5.84408 62.5422 5.77864 62.897 5.71013Z" fill="#434345"/>
<path d="M33.8026 18.5186L33.7372 18.7252C33.7269 18.7172 33.7167 18.7092 33.7064 18.7012C33.559 18.5907 33.3855 18.521 33.2026 18.4989C33.1513 18.4923 32.9109 18.4809 32.8604 18.4897C32.1879 18.6075 29.3653 18.3241 28.9869 18.6956C28.9877 18.7546 28.9735 18.8357 29.0153 18.877C29.4607 19.3132 32.9755 18.9946 33.8665 19.1297L33.8026 18.5186Z" fill="#373737"/>
<path d="M41.1775 7.70947L41.172 7.7947L41.3305 7.97525C42.1599 8.05267 44.2863 7.98928 45.2513 7.98377L45.3152 7.88324C45.0258 7.62716 41.9565 7.81173 41.1775 7.70947Z" fill="#373737"/>
<path d="M133 7.21816C132.984 7.63657 132.903 8.60027 133.072 8.94607L133.159 8.85989C133.275 8.34844 133.222 7.66772 133.164 7.14404L133 7.21816Z" fill="#343925"/>
<path d="M46.9338 8.23813C45.4531 8.13989 43.132 8.20785 41.608 8.21353L32.9527 8.21487L4.4621 8.18601C4.45579 9.45672 4.44475 20.0439 4.58194 20.2615C4.78299 20.3185 4.98088 20.2272 5.18272 20.1608C6.0082 19.5664 6.54039 18.406 7.46285 17.7593C8.46652 17.5787 12.6318 17.6572 13.8286 17.6742C14.0304 17.8521 14.1842 18.0666 14.3497 18.2789C15.7098 18.2944 17.0777 18.2861 18.4393 18.2873C27.5724 18.2961 36.7071 18.3223 45.8403 18.3043C46.1659 18.3036 46.8644 18.2422 47.1356 18.0941C47.2153 17.4 47.1814 16.345 47.179 15.6222L47.164 11.4565C47.1624 10.524 47.2263 9.56505 47.1845 8.63707C47.1735 8.38691 47.0978 8.36633 46.9338 8.23813Z" fill="#656565"/>
<path d="M131.988 11.9865C126.305 12.0171 120.357 11.8093 114.652 11.7494L56.2065 11.0939C56.1434 11.1385 55.97 11.2507 55.9408 11.3055C56.0157 11.6234 56.0425 11.5516 55.9597 11.8471C55.7342 12.0549 55.2399 11.9973 54.9293 11.9899L54.9269 14.1712C55.2044 14.1497 55.6656 14.0784 55.8974 14.1921C56.074 14.4347 56.0362 14.5341 55.9432 14.8312L56.0701 14.9174C55.8651 14.9518 55.7027 14.9798 55.4993 15.0331L131.982 14.1779L131.988 11.9865Z" fill="#9EA388"/>
<path d="M69.7178 5.55849C68.9696 5.49534 67.5985 5.5264 66.8046 5.52175C66.8069 6.27966 66.8053 7.03758 66.799 7.79549C67.9202 7.7686 69.2763 7.82979 70.4211 7.84358C73.5078 7.87686 76.5944 7.93007 79.6804 8.00332L108.349 8.46502C108.402 8.15785 108.331 7.5931 108.752 7.53373C109.522 7.42517 109.336 8.02768 109.435 8.46297C109.877 8.5508 111.178 8.52431 111.651 8.49001L111.686 7.96011C111.925 7.49652 112.423 7.45844 112.713 7.91533C112.775 8.15754 112.777 8.20634 112.682 8.43743L112.673 8.45753C112.914 8.59842 114.201 8.54158 114.55 8.54055L114.518 6.35914L69.7178 5.55849Z" fill="#9EA388"/>
<path d="M114.55 17.5688C114.066 17.5645 113.196 17.5333 112.754 17.6114C112.623 18.0393 112.766 18.3434 112.318 18.6074C111.77 18.5573 111.676 18.1473 111.674 17.7004C111.307 17.5196 110.072 17.6514 109.614 17.6487C109.297 17.6468 109.525 18.152 109.148 18.4904C108.901 18.5526 108.854 18.5534 108.616 18.4615C108.411 18.2901 108.386 18.0072 108.326 17.7378L108.215 17.6685L84.2565 18.133C79.2737 18.1869 74.2915 18.2905 69.311 18.4439C68.8143 18.4608 67.1641 18.3486 66.8551 18.5471L66.8267 18.7448L66.8228 20.7047C67.8115 20.6073 69.542 20.6587 70.6214 20.629L81.1658 20.4181L114.523 19.7748L114.55 17.5688Z" fill="#9EA388"/>
<path d="M135.574 14.3286L49.5427 15.3168L49.5451 16.4712L109.652 15.7909L124.849 15.5971L130.539 15.5533C131.119 15.5468 132.725 15.5675 133.221 15.5032L133.162 16.0854C133.657 16.0416 134.719 16.0693 135.257 16.0664C135.252 15.8672 135.29 15.7265 135.331 15.5343L135.527 15.4717C135.642 15.1994 135.579 14.6629 135.574 14.3286Z" fill="#757963"/>
<path d="M135.331 15.5343C134.937 15.4289 133.619 15.4193 133.221 15.5032L133.162 16.0854C133.657 16.0415 134.719 16.0693 135.257 16.0664C135.252 15.8671 135.29 15.7265 135.331 15.5343Z" fill="#434345"/>
<path d="M52.2548 9.65624L49.5442 9.60657L49.5387 10.7979C58.3651 10.8002 67.3256 10.9925 76.163 11.1094L132.69 11.7673L135.576 11.7783L135.603 10.6357C132.932 10.5333 129.961 10.6061 127.242 10.566L105.026 10.291L52.2548 9.65624Z" fill="#757963"/>
<path d="M129.113 15.7993C128.664 15.7141 125.897 15.8035 125.233 15.8131L116.257 15.9249L77.2086 16.4019C75.7248 16.4255 64.3399 16.4168 63.8929 16.5928C63.7738 16.8048 63.8109 17.2293 63.8132 17.4906C64.3667 17.5039 64.8689 17.5465 65.4208 17.5946C67.7908 17.7615 70.2917 18.0595 72.6578 18.1154C74.5934 18.1612 76.7095 18.0684 78.6583 18.0229L88.3138 17.8288L114.498 17.3379C114.583 17.1543 114.825 16.6518 115.054 16.5954C116.028 16.3565 117.854 16.3499 118.859 16.524C119.158 16.5758 119.349 17.0612 119.453 17.2858C120.28 17.2616 121.435 17.3373 122.219 17.1806C124.091 16.8066 125.912 16.0949 127.846 16.0252C128.24 16.011 128.577 16.0996 128.979 16.0173L129.113 15.7993Z" fill="#575B47"/>
<path d="M73.4681 8.08037C71.076 8.04631 68.5988 8.43153 66.2059 8.55871C65.4734 8.59758 64.6322 8.61508 63.9155 8.73051L63.8351 8.87274C63.8256 9.0812 63.7815 9.34201 63.9021 9.49709C64.1962 9.64398 68.9756 9.6245 69.6158 9.63294L83.2944 9.79457L120.453 10.247L126.832 10.3335C127.179 10.3362 128.741 10.3865 128.94 10.3588L129.012 10.2416L128.975 10.1108C128.514 9.99262 126.963 10.0509 126.241 9.90534C124.247 9.51255 122.389 8.69148 120.31 8.86738C120.166 8.87952 120 8.86509 119.853 8.87629C119.716 8.88133 119.454 8.88519 119.453 8.8878C118.997 10.2012 117.389 9.71407 116.247 9.784C115.444 9.8332 114.791 9.67197 114.534 8.75061C111.333 8.74028 108.159 8.64914 104.965 8.60428L73.4681 8.08037Z" fill="#575B47"/>
<path d="M121.7 17.4277L119.403 17.4993C119.427 18.2281 119.459 18.9565 119.499 19.6846C120.537 19.6491 121.086 19.6179 122.124 19.7374C123.567 19.9034 125.87 20.5572 127.238 20.6012L127.319 20.6516C127.838 20.6967 128.613 20.7195 129.113 20.5848C129.854 20.3776 130.709 20.1865 131.126 19.4393C131.24 19.233 131.269 18.9904 131.207 18.763C130.521 16.2912 123.256 18.3984 121.679 18.8509C121.677 18.3782 121.668 17.8989 121.7 17.4277Z" fill="#575B47"/>
<path d="M129.113 20.5848C128.488 20.5756 127.863 20.5812 127.238 20.6012L127.319 20.6516C127.838 20.6967 128.613 20.7195 129.113 20.5848Z" fill="#555A52"/>
<path d="M129.101 18.5315C128.15 18.4939 127.549 18.9741 127.855 19.9793L127.968 20.0015C128.041 19.4881 128.063 19.4815 128.475 19.1621C129.247 19.1038 129.307 19.2894 129.744 19.849L129.796 19.8103C129.806 19.0135 129.802 18.9243 129.101 18.5315Z" fill="#0F110F"/>
<path d="M129.193 18.7705C128.678 18.7314 128.587 18.7205 128.167 19.0233L128.189 19.1268L128.532 18.9986C128.844 18.9541 129.161 19.0463 129.489 19.091C129.472 18.9533 129.326 18.8804 129.193 18.7705Z" fill="#9EA388"/>
<path d="M128.806 5.53952C126.068 5.46407 124.372 6.06926 121.725 6.44968C121.225 6.52158 120.057 6.48815 119.504 6.48003C119.414 7.17968 119.41 7.94256 119.391 8.65199L121.736 8.67367C121.696 8.30516 121.701 7.81168 121.694 7.43229C121.709 7.41203 121.719 7.39681 121.742 7.38475C122.002 7.24906 125.12 8.11546 125.667 8.23507C127.181 8.56676 129.447 8.83963 130.829 7.93783C131.027 7.80861 131.213 7.63184 131.257 7.38956C131.303 7.1405 131.207 6.90562 131.07 6.7026C130.557 5.93815 129.656 5.70233 128.806 5.53952Z" fill="#575B47"/>
<path d="M129.73 6.12573C129.557 6.25598 129.565 6.57876 129.375 6.7288C128.67 7.28472 128.323 6.77863 127.891 6.27356L127.798 6.34602L127.74 6.80346C128.18 7.98129 129.913 7.93596 129.73 6.12573Z" fill="#0F110F"/>
<path d="M129.623 6.85175C128.908 7.17358 128.807 7.24083 128.072 6.90457L128.018 7.01298C128.583 7.58025 129.176 7.50062 129.623 6.85175Z" fill="#9EA388"/>
<path d="M50.6575 8.2232C49.8375 8.16044 48.3072 8.20396 47.4336 8.20073C47.3406 9.94536 47.3595 11.7483 47.3626 13.4986C47.365 14.9359 47.3248 16.5171 47.4304 17.9359H48.7258C49.1602 17.9447 50.1174 18.0189 50.473 17.8223L50.5022 17.6803C50.3453 17.3641 49.6365 16.6847 49.3534 16.3955C49.2296 14.8245 49.3274 11.3454 49.3337 9.66949C49.6483 9.27023 50.4769 8.60961 50.6575 8.2232Z" fill="#757963"/>
<path d="M136.115 18.7449C136.146 17.4661 136.189 15.9944 136.225 14.7027C136.228 14.5966 136.096 14.3945 136.03 14.2979L135.88 14.2939C135.436 14.7958 136.214 15.2903 135.257 16.0664C134.719 16.0693 133.657 16.0416 133.162 16.0854C133.023 15.9574 133.038 15.8845 132.808 15.7145C132.294 15.7247 129.434 15.6649 129.209 15.8735C129.574 16.8802 131.5 15.5079 131.464 18.8477C132.78 18.851 134.843 18.9117 136.115 18.7449Z" fill="#757963"/>
<path d="M138.566 11.0399C138.098 11.0406 136.757 11.0156 136.363 11.0864L136.382 11.9998L132.984 11.989L132.997 14.1845C133.549 14.173 136.08 14.0267 136.392 14.2268C136.404 14.4179 136.418 14.58 136.442 14.77C136.621 14.878 138.235 14.8245 138.567 14.8204L138.566 11.0399Z" fill="#575B47"/>
<path d="M138.566 11.0399C138.098 11.0406 136.757 11.0156 136.363 11.0864C136.934 11.1215 138.04 11.2174 138.566 11.0399Z" fill="#434345"/>
<path d="M49.888 10.9937C49.7966 10.9818 49.7264 11.0055 49.6365 11.0259C49.4292 11.4247 49.5364 14.4323 49.545 15.0889C50.421 15.0802 52.9053 15.1548 53.5991 14.9915L53.6196 14.8792L53.4888 14.8771C53.0985 14.828 53.0125 14.8305 52.7618 14.5647C52.7413 14.5107 52.7287 11.552 52.75 11.4711C53.0181 11.2498 53.1537 11.3314 53.5605 11.2535L53.5912 11.1137C53.4525 10.9963 50.4052 11.007 49.888 10.9937Z" fill="#9EA388"/>
<path d="M129.056 16.2621C126.66 16.0423 124.228 16.8639 121.904 17.4829L121.853 18.621C122.631 18.41 123.423 18.1833 124.211 18.0231C126.49 17.4372 129.321 16.7209 131.294 18.3828C131.158 16.8343 130.486 16.5368 129.056 16.2621Z" fill="#343925"/>
<path d="M122.175 7.5868C122.065 7.56961 122.026 7.59863 121.924 7.64341C121.815 7.89358 121.906 8.33131 121.941 8.61964C124.231 9.25716 128.938 10.8742 130.848 9.03395C131.141 8.69209 131.218 8.19783 131.314 7.76435C128.935 9.70475 124.866 8.24103 122.175 7.5868Z" fill="#343925"/>
<path d="M118.728 16.6447C117.822 16.627 116.884 16.5828 115.98 16.6027C114.485 16.6358 114.688 17.8084 114.746 18.9045L114.865 18.98C115.072 18.8623 115.167 18.8411 115.39 18.7792C116.279 18.7576 118.535 18.5016 119.207 18.9613C119.312 18.6271 119.234 17.6912 119.209 17.3052C119.189 16.9971 118.961 16.8148 118.728 16.6447Z" fill="#343925"/>
<path d="M119.254 7.1855C118.556 7.6189 115.499 7.51751 114.768 7.14813C114.761 7.78565 114.737 8.49737 114.805 9.12464C114.946 9.27759 115.133 9.46847 115.341 9.48432C116.197 9.54952 118.331 9.74379 119.002 9.29502C119.317 8.87644 119.246 7.75766 119.254 7.1855Z" fill="#343925"/>
<path d="M60.8062 17.4833C60.7818 16.8657 61.0041 16.942 60.9355 16.6085C60.4278 16.4527 52.005 16.639 50.8634 16.6454C50.8334 16.931 50.7727 17.1873 50.9052 17.4361C51.0329 17.4929 60.2938 17.5736 60.8062 17.4833Z" fill="#575B47"/>
<path d="M50.8631 16.6454C50.8331 16.931 50.7724 17.1873 50.9049 17.436C51.0326 17.4929 60.2934 17.5735 60.8059 17.4832C57.69 17.274 54.1429 17.5736 51.016 17.3979C50.8717 17.2692 50.8859 16.8844 50.8631 16.6454Z" fill="#555A52"/>
<path d="M144.659 11.9735C143.307 12.028 141.64 11.9716 140.257 11.9708L140.286 13.9852L144.689 13.973C144.708 13.3767 144.67 12.5841 144.659 11.9735Z" fill="#343925"/>
<path d="M60.8197 8.63135C59.6749 8.66974 51.1465 8.60249 50.9037 8.7534C50.8445 9.03274 50.8761 9.16022 50.9179 9.43956C54.2411 9.42979 57.5643 9.46716 60.8867 9.55176C60.8339 9.27841 60.8307 8.91644 60.8197 8.63135Z" fill="#575B47"/>
<path d="M63.8472 17.9033C63.7872 18.1412 63.8172 20.9575 63.8203 21.3366C64.9289 20.8627 65.163 20.9187 66.367 20.9631L66.5641 20.917C66.6721 20.6127 66.609 18.6985 66.6027 18.2078C65.5131 18.2335 64.8437 18.3411 63.8472 17.9033Z" fill="#77866E"/>
<path d="M63.986 4.8653L63.9285 4.88816C63.7266 5.13643 63.8134 7.84058 63.8157 8.36654C64.6862 7.8498 65.1324 7.94236 66.1305 7.96846C66.2993 7.97713 66.3221 7.97359 66.4822 7.92053C66.6974 7.55178 66.6004 5.83774 66.5941 5.2629C65.4241 5.30248 64.9787 5.43462 63.986 4.8653Z" fill="#77866E"/>
<path d="M118.866 18.9281C118.006 18.8118 116.38 18.9137 115.483 18.9996C114.639 19.0804 114.304 20.1339 115.201 20.6638C115.882 20.8084 117.433 20.6353 118.194 20.6713C119.238 20.7205 119.781 19.6797 118.866 18.9281Z" fill="#575B47"/>
<path d="M62.9681 16.5852C61.3092 16.5613 60.7605 16.518 61.0072 18.4727C61.0664 18.9434 61.0309 19.8567 61.0285 20.3647C61.4929 20.4984 62.458 20.4489 62.9815 20.4368C62.9846 19.1528 62.9799 17.869 62.9681 16.5852Z" fill="#343925"/>
<path d="M115.908 5.47422C114.586 5.31488 114.267 6.52362 115.244 7.18889L118.058 7.24116C118.862 7.25693 119.41 7.19772 119.29 6.19634C119.171 5.2071 116.733 5.52768 115.908 5.47422Z" fill="#575B47"/>
<path d="M136.192 1.82294C135.35 1.84021 134.505 1.81395 133.663 1.79456C133.657 2.56627 133.68 4.02186 133.58 4.72308L136.197 4.71804C136.182 3.76349 136.193 2.77993 136.192 1.82294Z" fill="#9EA388"/>
<path d="M136.18 6.65954L133.32 6.6366C133.339 7.46547 133.344 8.29466 133.336 9.12376L136.182 9.13993L136.18 6.65954Z" fill="#757963"/>
<path d="M134.829 7.60839C134.505 7.54635 134.19 7.75181 134.117 8.07309C134.044 8.3943 134.238 8.71574 134.557 8.8001C134.773 8.85734 135.003 8.79214 135.157 8.62996C135.311 8.46786 135.364 8.23464 135.296 8.02185C135.227 7.80897 135.048 7.6505 134.829 7.60839Z" fill="#0F110F"/>
<path d="M134.928 7.84045C134.732 7.72818 134.483 7.79511 134.369 7.99017C134.256 8.18523 134.321 8.43532 134.516 8.54987C134.712 8.66546 134.964 8.59939 135.079 8.40268C135.193 8.20589 135.126 7.95367 134.928 7.84045Z" fill="#9EA388"/>
<path d="M132.809 7.3436L131.416 7.33264C131.454 8.45662 131.232 9.27138 130.089 9.75681C129.796 9.88091 129.478 9.92577 129.215 10.1067L129.199 10.3678L132.832 10.4159C132.832 9.39177 132.824 8.36761 132.809 7.3436Z" fill="#757963"/>
<path d="M140.075 11.0438L138.783 11.053L138.786 14.8209L140.073 14.8209C140.089 13.5619 140.09 12.3028 140.075 11.0438Z" fill="#757963"/>
<path d="M136.193 4.90526C135.327 4.90455 134.312 4.8794 133.457 4.93041C133.409 5.43752 133.357 5.92824 133.349 6.43811C134.282 6.43488 135.244 6.44427 136.174 6.42747C136.221 6.12755 136.196 5.25382 136.193 4.90526Z" fill="#757963"/>
<path d="M136.193 4.90526C135.327 4.90455 134.312 4.8794 133.457 4.93041C134.091 5.02392 135.422 4.98426 136.112 4.97874C136.122 5.30578 136.129 6.1464 136.174 6.42747C136.221 6.12755 136.196 5.25382 136.193 4.90526Z" fill="#555A52"/>
<path d="M146.121 11.5165L144.865 11.5202L144.882 14.3393L146.12 14.3434C146.142 13.4134 146.125 12.4492 146.121 11.5165Z" fill="#757963"/>
<path d="M148.404 13.6026C147.944 13.5637 147.419 13.5694 147.626 14.1985C147.918 14.4589 150.956 14.3463 151.517 14.3431C151.687 14.3489 151.832 14.3728 151.967 14.2708C152.076 14.0602 152.145 13.9669 152.096 13.7319C151.856 13.5077 148.937 13.6033 148.404 13.6026Z" fill="#575B47"/>
<path d="M136.168 9.32788C135.447 9.32677 133.671 9.26252 133.108 9.36004C132.995 9.48864 133.03 9.76143 133.033 9.9464C133.313 10.1859 134.517 10.0953 134.96 10.0882C136.279 10.1463 135.36 11.2866 135.954 11.8543C136.382 11.7476 136.182 9.74582 136.168 9.32788Z" fill="#575B47"/>
<path d="M152.048 11.5134C151.107 11.5153 148.499 11.4458 147.74 11.5527C147.602 11.7016 147.63 11.9959 147.625 12.2132C148.751 12.176 151.001 12.3115 151.972 12.181C152.111 11.9369 152.055 11.8327 152.048 11.5134Z" fill="#575B47"/>
<path d="M63.6059 16.4783C63.3647 16.5508 63.3529 16.513 63.2125 16.6886C63.1542 17.3694 63.1368 21.7553 63.2882 22.1633L63.5429 22.0723C63.572 22.0378 63.6083 21.9954 63.6509 21.9453C63.6635 20.3751 63.6469 17.961 63.6059 16.4783Z" fill="#7C8674"/>
<path d="M63.658 4.0528C63.397 4.10404 63.3591 4.06344 63.218 4.23871C63.1652 4.95294 63.1045 9.23835 63.2945 9.67096L63.5342 9.54079C63.6816 9.28093 63.6453 4.6818 63.658 4.0528Z" fill="#7C8674"/>
<path d="M11.4536 17.8603C10.7527 17.8426 7.68099 17.7014 7.32699 18.1409C7.50596 18.2582 9.50383 18.2158 9.85625 18.2152C10.3806 18.217 13.7944 18.2911 13.9868 18.1323C13.703 17.7177 12.0244 17.8635 11.4536 17.8603Z" fill="#4D4D4D"/>
<path d="M152.223 12.6481C152.478 12.7403 152.663 12.7594 152.854 12.5767C152.946 12.2293 152.837 11.4624 152.388 11.4877C152.173 11.752 152.406 12.0528 152.166 12.3484C151.486 12.4526 149.021 12.3932 148.139 12.4006C147.862 12.403 147.844 12.3562 147.656 12.5052C147.855 12.7222 151.634 12.6464 152.223 12.6481Z" fill="#757963"/>
<path d="M152.223 13.1292C152.478 13.037 152.663 13.0179 152.854 13.2006C152.946 13.548 152.837 14.3148 152.388 14.2896C152.173 14.0253 152.406 13.7245 152.166 13.4289C151.486 13.3247 149.021 13.3841 148.139 13.3767C147.862 13.3743 147.844 13.4211 147.656 13.2721C147.855 13.0551 151.634 13.1309 152.223 13.1292Z" fill="#757963"/>
<path d="M147.432 11.4847C147.151 11.5274 147.091 11.4828 146.949 11.6647C146.91 12.1597 146.863 14 146.992 14.4117C147.161 14.3799 147.2 14.3695 147.358 14.2993C147.562 13.9273 147.446 12.0629 147.432 11.4847Z" fill="#757963"/>
<path d="M132.81 11.9856C132.591 11.9798 132.529 11.9751 132.318 12.0313C132.047 12.3604 132.18 13.6469 132.179 14.1837C132.399 14.1903 132.463 14.196 132.673 14.139C132.945 13.8022 132.814 12.5058 132.81 11.9856Z" fill="#343925"/>
<path d="M54.6354 12.3039C54.1735 12.2941 53.8308 12.2591 53.4627 12.4052C53.1066 12.7338 53.2824 13.3041 53.3182 13.7224C53.725 13.7299 54.1258 13.7646 54.4506 13.6413C54.8708 13.3321 54.6786 12.7094 54.6354 12.3039Z" fill="#656565"/>
<path d="M146.677 11.6821L146.435 11.789C146.227 12.19 146.332 13.8097 146.395 14.2902L146.641 14.1513C146.843 13.7539 146.706 12.2082 146.677 11.6821Z" fill="#575B47"/>
<path d="M109.01 7.77361C108.828 7.7017 108.621 7.78803 108.544 7.9685C108.466 8.14898 108.546 8.3583 108.725 8.44093C108.845 8.49659 108.985 8.48256 109.092 8.40435C109.199 8.32613 109.254 8.19604 109.237 8.06485C109.221 7.93366 109.134 7.82209 109.01 7.77361Z" fill="#555A52"/>
<path d="M112.364 17.6428C112.186 17.5541 111.97 17.6254 111.88 17.8024C111.79 17.9795 111.859 18.196 112.036 18.2874C112.214 18.3799 112.433 18.3094 112.525 18.1304C112.616 17.9514 112.543 17.7325 112.364 17.6428Z" fill="#555A52"/>
<path d="M112.359 7.82694C112.184 7.74171 111.973 7.81353 111.886 7.98793C111.8 8.16233 111.87 8.37411 112.043 8.46241C112.219 8.55174 112.434 8.4807 112.522 8.30417C112.61 8.12756 112.537 7.91327 112.359 7.82694Z" fill="#555A52"/>
<path d="M109.087 17.7174C108.981 17.6395 108.84 17.6277 108.721 17.6867C108.603 17.7456 108.528 17.8656 108.527 17.9976C108.525 18.1296 108.597 18.2514 108.714 18.3134C108.877 18.4003 109.08 18.3461 109.178 18.1894C109.276 18.0326 109.237 17.8266 109.087 17.7174Z" fill="#686A68"/>
<path d="M50.6679 8.62347C50.3872 8.80836 50.0924 9.14407 49.855 9.39361C50.1018 9.42239 50.3155 9.46867 50.5497 9.38635C50.7152 9.11033 50.6616 8.97685 50.6679 8.62347Z" fill="#343925"/>
<path d="M55.9431 14.8312C55.4851 14.8188 54.9702 14.7719 54.5405 14.915L54.4979 14.9892C54.859 15.0808 55.1326 15.0513 55.4992 15.0331C55.7027 14.9799 55.8651 14.9518 56.0701 14.9174L55.9431 14.8312Z" fill="#7C8674"/>
<path d="M56.2063 11.0939C55.8247 11.0727 55.3611 11.0099 55.0181 11.1587L54.9803 11.252C55.2775 11.376 55.6181 11.3271 55.9406 11.3054C55.9698 11.2506 56.1432 11.1384 56.2063 11.0939Z" fill="#7C8674"/>
<path d="M50.644 16.6676C50.3901 16.6604 50.2876 16.6563 50.0314 16.7009C50.0409 16.9028 50.1662 16.9629 50.3365 17.1383C50.4177 17.2231 50.4784 17.2484 50.5794 17.3043C50.7 17.141 50.6472 16.9142 50.644 16.6676Z" fill="#343925"/>
<path d="M54.7168 13.8703C54.0415 13.8907 53.8573 13.8521 53.432 13.9961L53.5307 14.164C54.0152 14.1705 54.1884 14.1837 54.5962 14.0936L54.7168 13.8703Z" fill="#373737"/>
<path d="M54.6724 11.8508C54.0205 11.8712 53.8426 11.8326 53.432 11.9765L53.5273 12.1445C53.995 12.151 54.1623 12.1642 54.5559 12.0741L54.6724 11.8508Z" fill="#373737"/>
<path d="M55.7583 11.5468C55.2542 11.4721 53.6638 11.5041 53.1411 11.5351L52.98 11.5468C52.8397 11.8426 52.9732 13.6412 52.9087 14.1845L52.9224 14.4394C53.2937 14.7216 55.4994 14.6827 55.7935 14.4092C55.0051 14.3258 54.0463 14.2802 53.2603 14.3291C53.0056 13.4306 52.9726 12.6338 53.2935 11.748C53.7401 11.7514 55.6149 11.8238 55.8296 11.6445L55.7583 11.5468Z" fill="#656565"/>
</svg>
