<svg width="110" height="110" viewBox="0 0 110 110" fill="none" xmlns="http://www.w3.org/2000/svg">
  <path
    d="M27.1953 64.4086L35.2855 75.5822L49.8072 85.0637L68.7461 69.7556L82.6473 53.7231L83.2163 46.7785L79.001 39.3303L76.1359 34.9518L73.5861 28.7557L69.5591 28.326L66.1147 27.0241L63.8012 24.684L61.9132 24.3574L55.113 29.2L53.0049 28.0725L51.0241 26.7602L38.992 34.3648L34.6598 41.3911L31.0023 60.501L27.1953 64.4086Z"
    fill="white" />
  <path
    d="M49.8456 88.4946C51.0797 89.3583 58.6542 80.5574 58.6542 80.5574C59.4657 79.7385 60.3766 79.0246 61.3656 78.4322L66.0182 75.6452C69.2075 73.7333 72.0406 71.282 74.3911 68.4007L84.0866 56.2981C85.4999 54.5213 86.2066 52.2848 86.0706 50.0185C85.9346 47.7522 84.9657 45.6161 83.3501 44.0211L82.764 43.4367C82.6317 43.3088 82.4774 43.2057 82.3085 43.1325C82.499 41.9478 82.4088 40.735 82.0452 39.5915C81.6816 38.4481 81.0548 37.4059 80.2151 36.5488L79.5104 35.8441C79.0269 35.3597 78.4415 34.9892 77.7968 34.7596C78.0658 33.5143 78.0203 32.2216 77.6644 30.9983C77.3085 29.775 76.6534 28.6597 75.7584 27.7531L75.1723 27.1687C74.3905 26.3718 73.3457 25.8862 72.2325 25.8024C71.1194 25.7186 70.0137 26.0424 69.1214 26.7133C68.864 25.6606 68.3323 24.6948 67.5805 23.9143L67.3631 23.6977C65.9724 22.3038 64.0988 21.4982 62.1304 21.4478C60.162 21.3974 58.2496 22.1061 56.7894 23.427L53.8941 26.0395L53.602 25.5522C53.1777 24.9156 52.531 24.4605 51.7885 24.276C51.046 24.0916 50.2615 24.1912 49.5887 24.5554L39.3509 30.064C37.3558 31.1345 35.7502 32.8084 34.7636 34.8464L32.2688 40.0086C30.4112 43.8319 29.8333 48.1515 30.6205 52.3286L31.1087 54.6816C31.2032 55.1717 31.1755 55.6776 31.0278 56.1545C30.8802 56.6313 30.6172 57.0644 30.2622 57.4153C30.2622 57.4153 24.4614 61.5102 23.9062 63.4223C26.3984 70.3678 38.733 85.2384 49.8456 88.4946ZM63.9196 72.4913L58.8983 75.4011C56.1552 77.3846 52.1582 82.1876 49.5105 84.4796C38.9848 78.6401 33.0878 73.1676 28.4678 64.4561L32.9348 59.9333C34.3614 58.5239 35.0953 56.1589 34.7567 54.1823L34.3236 51.8405C33.6344 48.2758 33.8698 45.4614 35.4494 42.1932L37.9433 37.0309C38.6454 35.5768 39.8408 34.4743 41.208 33.6149L51.1837 27.3415C51.347 27.5907 51.4922 27.8519 51.6177 28.1235L46.2595 32.9592C45.6811 33.5367 45.7009 34.7733 46.2491 35.3792C47.0363 36.1767 48.2171 36.2205 48.9089 35.5648L59.3417 26.2612C61.161 24.6138 62.8187 24.2933 64.5512 26.0309L64.7687 26.2475C65.9666 27.4454 66.1007 28.9115 64.8993 30.1061L59.4423 35.5373C58.8424 36.1337 59.0186 37.4563 59.6176 38.0553C60.2166 38.6534 61.6259 38.6113 62.2232 38.0106L70.8341 29.3378C70.9764 29.195 71.1455 29.0816 71.3317 29.0043C71.5179 28.927 71.7175 28.8871 71.9191 28.8871C72.1207 28.8871 72.3203 28.927 72.5065 29.0043C72.6927 29.0816 72.8618 29.195 73.0041 29.3378L73.5893 29.9222C75.2393 31.5395 75.2582 33.6922 73.8703 35.5382L68.5465 41.51C68.085 42.1244 68.586 43.2932 69.136 43.832C69.9748 44.2351 71.1556 43.9274 71.6428 43.3207L76.4416 37.7854L76.561 37.666C76.8489 37.7055 77.1196 37.8267 77.3413 38.0132L78.0031 38.6749C79.6333 40.2613 79.4657 42.2774 78.1423 44.1268L73.6477 49.5752C73.212 50.1922 73.7268 51.3395 74.2682 51.8654C75.0537 52.418 76.2594 52.3398 76.72 51.7357L80.9859 46.3852L81.1802 46.1901C83.4128 48.3936 83.0055 51.4323 81.0521 53.885L71.6024 65.8277C69.4798 68.4282 66.7985 70.764 63.9196 72.4913Z"
    fill="#323232" />
  <path
    d="M45.2311 36.4597C44.8882 36.1165 44.4265 35.9182 43.9415 35.9059C43.4565 35.8936 42.9853 36.0682 42.6254 36.3936L39.1647 39.4555C38.8213 39.7982 38.6227 40.2598 38.61 40.7448C38.5974 41.2298 38.7717 41.7011 39.0969 42.0611L39.1647 42.1282C39.5193 42.4824 39.9999 42.6814 40.5011 42.6814C41.0022 42.6814 41.4829 42.4824 41.8374 42.1282L45.2972 39.0662C45.6228 38.7062 45.7974 38.2348 45.7849 37.7496C45.7724 37.2644 45.5747 36.8025 45.2311 36.4597Z"
    fill="#323232" />
</svg>