<svg width="141" height="122" viewBox="0 0 141 122" fill="none" xmlns="http://www.w3.org/2000/svg">
<g clip-path="url(#clip0_3262_10448)">
<mask id="mask0_3262_10448" style="mask-type:luminance" maskUnits="userSpaceOnUse" x="1" y="0" width="140" height="121">
<path d="M1.27515 61.3356L106.027 0.856973L140.437 60.4573L35.6854 120.936L1.27515 61.3356Z" fill="white"/>
</mask>
<g mask="url(#mask0_3262_10448)">
<path d="M82.6571 14.3618C83.5697 13.7819 84.1592 13.5017 84.8164 14.5961C85.7193 16.0976 86.5762 17.6317 87.4522 19.1511L92.8931 28.5897C93.3906 28.3001 95.2656 27.0056 95.6364 27.0179C95.7361 27.0843 96.0297 27.2821 96.1174 27.2338C96.971 26.7519 98.243 26.0187 99.0611 25.5463L108.375 20.1652C109.066 19.7664 113.338 17.1699 113.834 17.2205C114.471 17.4667 115.295 18.966 115.573 19.6435C116.059 20.8248 118.853 23.5978 116.901 24.3863C116.155 24.6885 115.36 24.0864 114.649 23.802C114.133 24.0788 109.803 26.5507 109.688 26.8281C109.626 27.7002 111.441 29.1964 111.992 29.9861C113.001 31.4326 114.06 32.8485 114.996 34.3494C114.838 34.5584 114.619 34.7645 114.702 35.0173C115.259 35.117 115.452 35.0877 115.664 35.6767C115.61 35.8911 115.347 36.062 115.15 36.2733C115.207 36.6235 115.787 36.2234 116.331 36.6598C116.465 37.1941 115.881 37.2095 115.719 37.6911C116.173 37.7344 116.86 37.7146 116.931 38.2495C116.795 38.5688 116.339 38.9437 116.071 39.1962C116.445 39.1116 116.768 38.9876 117.1 39.1223C117.372 39.5128 117.879 40.9479 117.42 41.2506C116.755 41.6886 115.034 42.8747 114.317 42.8804C113.913 42.7332 113.454 42.2445 113.161 41.9347C112.46 41.1956 113.285 41.2732 113.307 40.8028C112.907 40.675 112.837 41.1165 112.148 40.9121C111.761 40.5252 112.141 40.0651 112.374 39.6666L112.254 39.5841L111.613 39.8123C110.604 39.5458 111.449 38.7364 111.512 38.4669C111.254 38.33 111.098 38.6271 110.858 38.6032C109.811 38.4975 110.667 37.5215 110.642 37.2554C110.477 37.2975 110.305 37.3054 110.137 37.2787C109.976 37.2425 109.832 37.1503 109.733 37.0184C109.288 36.4444 107.754 33.0266 107.424 32.149C107.099 31.2847 106.882 29.9793 106.308 29.2607C105.668 28.4624 100.351 32.3736 99.8336 32.315C99.739 32.3034 99.6283 32.0615 99.3321 32.0302C99.0455 32.1595 99.0275 32.1073 98.9139 32.3319C98.9956 32.4942 99.0744 32.5932 99.0375 32.765C98.6315 33.0921 97.1218 33.8806 96.5351 34.2158L97.0927 34.8896C96.7541 35.2416 96.2769 35.6664 95.9135 36.0171C96.3527 36.7569 98.4027 39.6466 98.369 40.1742C98.1346 40.8152 97.0409 41.0396 96.4904 41.4875C95.476 42.3104 97.1854 43.7195 96.9636 44.9348C96.8387 45.609 96.38 46.3349 95.8114 46.7138C93.9347 47.9488 91.987 49.0725 89.9785 50.079C88.9581 50.5911 87.6799 49.3906 86.9165 49.3051C86.5406 49.5481 86.275 49.9289 86.1766 50.3656C85.6209 53.3113 86.5783 56.5127 86.9029 59.4149C87.2484 62.5013 87.5971 63.3367 88.9923 65.9952C88.9055 67.436 87.8818 68.08 86.6504 68.5874C84.6418 69.4148 83.0846 70.0586 80.9742 69.1916C78.5517 68.2135 78.3965 66.5307 78.0445 64.2777C77.55 61.1064 77.8696 57.4578 76.833 54.4297C76.4044 53.1805 75.1341 52.2066 74.1229 51.4792C73.6986 51.1739 73.2595 50.5364 72.7597 50.3422C72.517 50.3619 72.2815 50.4316 72.0661 50.5464C68.1162 52.6643 64.4019 55.2025 60.6305 57.617C60.4235 57.7486 59.8987 58.0721 59.8657 58.3151C59.8118 58.7182 60.1693 59.1873 60.3913 59.5071C65.6656 66.24 73.3752 70.6675 81.6493 72.5067C83.1772 72.8544 84.7214 73.127 86.276 73.3236C87.5671 73.4848 88.9073 73.5767 90.184 73.7692C90.252 76.1393 90.1202 78.7088 90.0859 81.3162C90.0516 84.3353 90.1202 86.1879 89.9627 88.6766C79.1018 88.0961 66.1026 84.0039 57.3251 77.5139C55.7852 76.3796 54.3232 75.1432 52.9489 73.8132C52.2363 73.1169 51.5505 72.2606 50.8043 71.6042C50.6425 71.4616 50.5896 71.4994 50.4224 71.5309C49.7806 72.2482 51.2974 74.7836 50.4838 75.3243L50.3402 75.2904C49.6228 74.6318 49.9956 72.8646 48.5533 73.6094C47.9207 73.936 47.259 74.3602 46.6423 74.7247C45.7798 73.2288 44.9602 71.7153 44.0287 70.2604C43.9128 70.0805 44.0651 69.6771 44.1259 69.4758L44.0492 69.3576C43.7602 69.4763 42.6545 70.2327 42.3506 70.4322L38.8666 72.7061L30.5534 78.0921C29.5792 78.728 27.4148 80.0656 26.6282 80.7364C26.2019 81.8603 26.7404 83.3916 27.0074 84.5486C27.3495 86.0128 27.6789 87.4801 27.9958 88.9507C27.4374 89.2599 26.7748 89.5617 26.183 89.8817C26.3747 90.1407 26.7074 90.5482 26.7363 90.8506C26.4394 91.429 24.3079 93.1051 23.6787 93.519C23.0884 93.9043 21.7796 92.6155 21.4456 92.0871C17.3746 85.6323 12.5073 79.7023 8.26134 73.3846C8.14181 73.2068 8.27746 72.5325 8.44485 72.3636C9.66693 71.4292 14.9881 68.1078 16.1851 67.8767C16.775 68.0936 16.2131 69.1765 16.0393 69.5803C15.7824 69.6985 15.2287 69.9219 15.1356 70.1924C15.01 70.5587 15.1562 71.1979 15.5425 71.3517C16.2458 71.1684 16.9244 68.4649 17.3133 67.6744C18.3106 65.6417 19.6436 65.1081 21.4868 64.0379L26.1565 61.3274L43.1862 51.5314L48.4573 48.5134C49.0928 48.1501 50.8352 47.3453 51.0479 46.7649C51.0364 46.4176 50.8045 46.0722 50.6331 45.7607C51.92 44.9803 54.2381 43.884 55.3021 42.9928C56.0525 42.3656 56.4626 39.5931 57.6613 38.9456C58.841 38.3091 58.8815 39.6932 59.492 39.8392C60.014 39.4921 59.3668 38.7027 59.1356 38.3461L58.2628 37.9229C57.5862 36.7177 56.8987 35.5185 56.2001 34.3253C56.2739 34.6824 56.3745 35.0277 56.3143 35.3864L56.208 35.4441C55.9686 35.2233 55.7191 35.0138 55.4602 34.8163C55.3159 34.8541 55.1738 34.8996 55.0344 34.9526C54.2768 34.6916 54.3335 34.0785 54.6257 33.5149C54.6703 33.4253 54.365 32.7985 54.3503 32.5373C54.4788 32.3114 54.4013 32.3754 54.6372 32.2897C54.9034 32.3817 54.9983 32.6712 55.2367 32.9297L55.3506 32.8809C55.4304 32.0786 54.0279 31.299 55.7649 30.4683C62.2544 27.3646 68.8884 24.5591 75.4441 21.6013C76.8122 20.9776 78.1836 20.3616 79.5582 19.7534C80.1736 19.4824 81.9131 18.8646 82.2123 18.3776C82.2969 17.7629 81.7203 17.0916 81.3642 16.4748C81.3992 15.5323 81.589 15.2939 82.2267 14.6404C82.3687 14.5456 82.5116 14.4526 82.6556 14.3614M84.9372 42.9635C85.1088 44.3659 87.1386 45.4251 87.3207 46.7997C87.352 47.0417 87.2799 47.6781 87.2599 47.9666C87.6288 48.6326 88.0664 49.5033 88.8912 49.6869C89.398 49.8013 90.5369 49.4592 91.0219 49.1021C92.6841 47.8728 95.6303 47.0676 96.4481 45.0639C96.6533 44.5601 96.151 43.8507 95.9306 43.4314C95.0141 41.7981 93.9131 40.1183 93.1056 38.4341C92.7607 38.431 89.7541 40.2535 89.2156 40.568C89.2881 41.2691 89.289 41.7586 89.3343 42.4211C90.0597 43.4002 90.9222 44.358 92.204 44.6366C92.6087 44.7244 93.5371 44.4159 93.8514 44.5704C93.8868 44.8402 93.9086 44.73 93.7355 44.9889C91.5331 46.2545 89.6831 44.3786 88.1259 43.2019C87.6439 42.8384 86.8071 44.1752 86.0615 44.0891C85.4137 43.7095 85.702 42.8783 84.9372 42.9635ZM85.3111 22.7147C83.8507 19.8723 82.8102 20.7897 80.6501 22.097L68.4091 29.2992L64.6331 31.5034C60.8923 33.6872 60.6128 33.8245 63.1292 37.9223C63.291 38.1817 63.5455 38.7247 63.7923 38.8519C64.0093 38.8169 64.1207 38.82 64.2724 38.6553C64.3774 38.2865 64.1616 38.0463 64.5118 37.8332C65.6043 37.1688 66.7738 36.5875 67.9068 35.9911C71.6542 33.9271 75.4133 31.8856 79.1842 29.8666C80.9218 28.9284 82.6441 27.9449 84.4069 27.0608C85.2694 26.6278 85.5258 26.9759 85.9806 27.6657L87.6433 26.7082C86.8668 25.4467 85.9798 24.0167 85.3111 22.7147Z" fill="#0E1115"/>
<path d="M86.9221 72.9629L90.1936 73.3428C90.4489 73.3726 90.6395 73.5917 90.635 73.8487L90.3811 88.5518C90.3761 88.8396 90.13 89.0641 89.843 89.042L86.3606 88.7744C86.0942 88.7538 85.8913 88.5269 85.8997 88.2598L86.3655 73.4434C86.3749 73.1511 86.6316 72.9294 86.9221 72.9629Z" fill="#323033" stroke="#0E1115" stroke-width="0.5"/>
<path d="M64.6901 39.1281C64.464 39.137 64.403 39.1795 64.2046 39.282C63.9228 39.795 64.368 39.8258 64.005 40.0667C62.6563 40.961 61.1216 41.7627 59.7186 42.5631L51.5599 47.2615C42.7946 52.2419 34.0562 57.2709 25.3447 62.3487C24.0835 63.088 22.8169 63.8201 21.5449 64.5449C20.8437 64.9425 19.473 65.6737 18.8887 66.1568C18.2371 66.6967 16.6879 69.9944 16.8188 70.6737C17.1641 70.7754 17.8309 70.3037 18.1588 70.1168C22.3263 67.7336 26.4521 65.2697 30.6475 62.939C30.9345 62.7793 31.1528 62.6882 31.4557 62.8625L31.4728 62.9754C31.074 63.3128 28.265 64.8792 27.6577 65.2286L18.9703 70.2419C18.0963 70.7489 16.7821 71.486 15.976 72.0814C15.3845 72.5168 15.6901 74.1994 15.8502 74.9041L16.4019 75.1298C19.7833 73.1535 23.1758 71.1965 26.5794 69.2587C28.0855 68.3951 30.0498 67.3489 31.4603 66.4262C32.0362 65.5362 32.3885 62.8513 32.9385 61.5934C33.8783 61.046 44.2333 54.9965 44.4814 55.0134C44.6148 55.2193 44.5925 55.1202 44.5417 55.3951C44.1114 55.9783 42.9556 56.3747 42.3133 56.7636C39.4139 58.5195 36.2611 60.1013 33.3973 61.898C32.628 63.1453 32.7268 65.3831 32.0178 66.5221C31.6948 67.0409 28.7926 68.4853 28.0649 68.9079C24.7367 70.8623 21.3942 72.7926 18.0372 74.6986C17.6049 74.9446 15.7033 75.9594 15.5964 76.3582C15.5828 76.4118 15.6135 76.5338 15.6293 76.5945L15.6301 76.6001C15.8065 77.2748 19.3207 82.4606 19.9139 82.802C19.9857 82.8448 20.0653 82.8728 20.1481 82.8844C20.2308 82.8959 20.3151 82.8908 20.3959 82.8693C20.8668 82.7382 24.4834 80.2288 25.2002 79.7728L45.7625 66.596C47.7417 65.3317 49.7497 63.9484 51.7338 62.7198C53.203 61.7234 54.7469 60.7959 56.2346 59.8274C58.3176 58.4719 60.2976 57.3758 62.0298 56.2781L67.1353 53.0379C67.5903 52.727 68.0445 52.4021 68.2505 52.2375C67.6522 50.9093 66.0656 48.3384 65.2755 46.9596C59.8631 49.8581 54.5598 53.1644 49.1982 56.1696C48.8344 56.3736 47.5286 57.1275 47.416 57.4706C47.4348 57.697 47.4963 58.0768 47.3171 58.2586C46.4241 59.1643 45.0238 60.1425 44.2066 61.0586C43.3244 62.0436 42.1658 61.9033 41.5809 62.5023C38.3547 65.8026 35.0898 69.065 31.9191 72.4199C31.3925 72.978 30.4615 73.843 29.6712 73.8923C29.2794 73.9192 28.8862 73.8674 28.5147 73.7398C28.1433 73.6122 27.8011 73.4115 27.5085 73.1495C26.6762 72.3899 26.5682 70.5595 27.495 69.7956C28.9735 68.5796 30.9064 67.8525 32.4796 66.7756L32.495 66.7439C32.8644 65.9635 32.8004 64.9975 33.2568 64.2656C33.6825 63.5828 39.2037 60.66 40.2161 60.0779C40.2731 59.7428 40.3236 59.3006 40.6531 59.108C42.4008 58.0893 44.1474 57.0604 45.9097 56.067C46.4498 55.7637 46.5289 56.4826 46.9022 56.6849C47.473 56.6057 58.2297 50.5242 59.2121 49.7523C58.8492 49.0383 58.4922 48.4221 58.088 47.7344C55.1829 49.2719 52.3572 51.0093 49.4924 52.6272C48.1938 53.3601 46.7836 54.2417 45.4526 54.8789C45.4873 55.2394 45.5699 55.6661 45.4425 55.996C44.9956 56.5358 37.3488 60.7569 36.1431 61.5216C35.721 61.7894 34.9203 62.2565 34.4534 62.5886C34.3302 62.6754 33.777 62.8768 33.6087 62.8668C33.5065 62.8608 33.5767 62.8781 33.4676 62.8351C33.5058 62.211 36.1444 60.9441 36.8302 60.5469C39.5599 58.999 42.2638 57.4099 44.9418 55.7794C44.9929 54.8878 45.0529 52.6727 45.9024 52.1316C47.3864 51.1858 48.5537 50.4444 50.2256 49.555C53.3094 47.9142 56.5601 45.5907 59.8041 44.2897C59.9099 44.2479 60.0809 44.5441 60.135 44.6044C60.8154 45.7286 61.4433 46.9663 62.1193 48.0871C63.0442 47.5495 64.0247 46.9557 64.9604 46.4492C64.7144 45.994 64.3283 45.102 63.8526 44.9142C63.1617 44.6413 61.9594 46.1313 61.5551 45.4978C61.6864 45.2101 63.7902 43.8426 64.2333 44.0804C64.3154 44.1253 64.3954 44.1734 64.4732 44.2248C65.099 44.1284 66.3831 43.2847 66.9784 42.929C66.6257 42.2826 65.1064 39.3947 64.6901 39.1281Z" fill="#323033"/>
<path d="M19.4751 76.6908C19.5509 76.6358 19.6271 76.5822 19.7037 76.5299C20.0841 76.2669 20.3351 76.0823 20.8156 76.0095C21.6239 75.8872 22.5997 76.4364 22.3783 77.371C22.1757 78.2296 21.1858 78.7216 20.4692 79.1739C19.8708 79.5555 19.2779 79.9821 18.696 80.3903C18.3294 79.8783 17.4051 78.7528 17.4283 78.1988C17.618 77.7076 18.9324 77.0438 19.4751 76.6908Z" fill="#000001"/>
<path d="M19.6144 77.1531C20.1631 76.7689 21.2176 76.0301 21.7238 76.7901C22.2708 77.6061 21.0618 78.2921 20.5957 78.5733C19.1178 79.4482 18.9683 80.1654 17.8512 78.4035C18.3834 77.9782 19.046 77.5451 19.6144 77.1531Z" fill="#676468"/>
<path d="M20.405 76.9896C20.4527 76.9321 20.5115 76.8847 20.5778 76.8504C20.6442 76.816 20.7168 76.7954 20.7913 76.7896C20.8658 76.7838 20.9407 76.7931 21.0115 76.8168C21.0824 76.8405 21.1477 76.8783 21.2037 76.9277C21.2597 76.9772 21.3052 77.0374 21.3375 77.1048C21.3697 77.1722 21.3881 77.2454 21.3916 77.32C21.395 77.3947 21.3835 77.4692 21.3575 77.5393C21.3316 77.6094 21.2919 77.6736 21.2407 77.728C21.1414 77.8336 21.0049 77.8964 20.8601 77.9031C20.7153 77.9098 20.5736 77.8598 20.4649 77.7638C20.3563 77.6679 20.2893 77.5334 20.2781 77.3888C20.2669 77.2443 20.3124 77.1011 20.405 76.9896ZM51.9487 59.4196C52.7722 58.896 55.4111 57.3001 54.7401 59.6935C54.3393 59.9586 53.8317 60.2432 53.4122 60.4926C52.9538 60.7621 51.3942 61.7938 51.0783 61.6909C48.9722 61.0044 51.5306 59.6694 51.9487 59.4196Z" fill="#000001"/>
<path d="M51.027 60.4923C51.5978 60.1254 53.8117 58.569 54.3864 59.0055C54.4151 59.3055 54.3998 59.2289 54.2563 59.5309C53.7097 59.9127 51.5376 61.4184 50.9374 61.1316C50.767 60.9012 50.7949 60.9995 50.7837 60.7507L51.027 60.4923Z" fill="#B13F2B"/>
<path d="M18.3945 71.9807C19.2666 71.458 27.6909 66.4979 28.0169 66.512C28.1631 66.5191 28.1888 66.5596 28.2821 66.6586L28.2367 66.851L21.6775 70.6307C21.1989 70.907 18.8381 72.3965 18.515 72.3542C18.3636 72.1816 18.4065 72.2664 18.3936 71.9813M45.6053 61.206C46.0754 60.9045 46.7689 60.3102 47.3199 60.4845C47.5079 60.6433 47.532 60.6643 47.5962 60.9006C47.4966 61.1868 47.438 61.152 47.1398 61.3676C46.7051 61.6366 45.9856 62.1712 45.4885 62.109C45.0873 61.7832 45.3211 61.4917 45.6053 61.206ZM47.3401 63.9189C47.8737 63.6084 48.9392 62.8283 49.488 63.1616C49.5802 63.4756 49.5533 63.3852 49.4644 63.7339C48.962 64.0565 47.8757 64.9425 47.3683 64.5516C47.2613 64.2955 47.2978 64.1938 47.3401 63.9189ZM21.9901 79.247C22.0454 79.1923 22.1109 79.1489 22.1829 79.1195C22.2549 79.0901 22.332 79.0751 22.4098 79.0755C22.4876 79.0758 22.5646 79.0915 22.6363 79.1216C22.7081 79.1517 22.7732 79.1957 22.828 79.2509C22.8827 79.3062 22.9261 79.3717 22.9555 79.4437C22.9849 79.5158 22.9999 79.5929 22.9995 79.6707C22.9992 79.7485 22.9835 79.8254 22.9534 79.8972C22.9233 79.9689 22.8793 80.034 22.8241 80.0888C22.7124 80.1994 22.5614 80.2611 22.4043 80.2604C22.2472 80.2596 22.0968 80.1965 21.9862 80.0849C21.8756 79.9733 21.8139 79.8223 21.8146 79.6652C21.8154 79.508 21.8785 79.3576 21.9901 79.247ZM60.6885 50.2762C60.7443 50.2222 60.8101 50.1797 60.8823 50.1511C60.9545 50.1226 61.0317 50.1085 61.1093 50.1097C61.1869 50.111 61.2636 50.1275 61.3348 50.1584C61.4061 50.1892 61.4705 50.2338 61.5246 50.2896C61.5786 50.3454 61.6211 50.4112 61.6497 50.4834C61.6782 50.5556 61.6923 50.6328 61.6911 50.7104C61.6898 50.788 61.6733 50.8647 61.6424 50.9359C61.6116 51.0072 61.567 51.0716 61.5112 51.1257C61.3986 51.2348 61.2472 51.2947 61.0904 51.2922C60.9336 51.2897 60.7842 51.225 60.6751 51.1123C60.566 50.9997 60.5061 50.8483 60.5086 50.6915C60.5111 50.5347 60.5758 50.3853 60.6885 50.2762ZM56.4248 56.8557C56.4671 56.7904 56.522 56.7342 56.5863 56.6904C56.6507 56.6467 56.7231 56.6163 56.7994 56.601C56.8757 56.5858 56.9543 56.586 57.0305 56.6017C57.1067 56.6173 57.179 56.6481 57.2431 56.6922C57.3072 56.7363 57.3618 56.7928 57.4037 56.8583C57.4456 56.9239 57.474 56.9972 57.487 57.0739C57.5001 57.1506 57.4976 57.2291 57.4798 57.3048C57.462 57.3806 57.4292 57.452 57.3833 57.5148C57.294 57.6371 57.1605 57.7197 57.0112 57.7452C56.8619 57.7706 56.7086 57.7369 56.5838 57.651C56.459 57.5652 56.3726 57.4341 56.3429 57.2856C56.3132 57.1371 56.3426 56.9829 56.4248 56.8557ZM64.0439 48.3426C64.1529 48.2338 64.3007 48.1728 64.4547 48.173C64.6086 48.1732 64.7563 48.2345 64.865 48.3435C64.9738 48.4525 65.0348 48.6003 65.0346 48.7543C65.0344 48.9082 64.9731 49.0559 64.8641 49.1646C64.7541 49.2687 64.6079 49.3258 64.4565 49.3236C64.3051 49.3214 64.1605 49.2603 64.0536 49.1531C63.9467 49.0459 63.8858 48.9012 63.884 48.7498C63.8822 48.5984 63.9396 48.4523 64.0439 48.3426ZM18.1819 75.2183C18.2393 75.1688 18.3058 75.131 18.3777 75.1072C18.4497 75.0834 18.5256 75.0739 18.6012 75.0794C18.6767 75.0849 18.7505 75.1053 18.8182 75.1393C18.8859 75.1733 18.9463 75.2203 18.9958 75.2776C19.0453 75.335 19.0831 75.4015 19.1069 75.4734C19.1308 75.5454 19.1402 75.6213 19.1347 75.6968C19.1292 75.7724 19.1089 75.8462 19.0749 75.9139C19.0408 75.9816 18.9938 76.0419 18.9365 76.0915C18.8207 76.1916 18.6699 76.2415 18.5173 76.2304C18.3647 76.2193 18.2227 76.148 18.1226 76.0322C18.0226 75.9164 17.9726 75.7656 17.9837 75.613C17.9949 75.4604 18.0662 75.3184 18.1819 75.2183Z" fill="#000001"/>
<path d="M64.7011 44.8446C65.7849 44.1358 67.307 43.3437 68.4661 42.6757L76.1553 38.2339L83.9645 33.7205C84.9514 33.1483 89.4555 30.3973 90.2511 30.4906C90.9873 31.2756 92.342 33.9828 92.73 35.0532C92.958 35.6837 91.1376 34.9852 92.3947 37.2816C91.1758 39.3266 89.3336 39.775 87.4385 41.016L87.321 41.0128L87.3112 40.9727C87.2686 41.0032 87.2224 41.0283 87.1736 41.0473C86.9955 41.3019 84.9826 42.3785 84.5275 42.6413L73.7909 48.9183C72.0691 49.9401 70.518 50.9512 68.7514 51.9579C67.3747 49.6013 66.0246 47.2302 64.7011 44.8446Z" fill="#732214"/>
<path d="M87.1726 41.0478C87.0987 41.0779 87.0195 41.093 86.9397 41.092C86.86 41.0911 86.7812 41.0743 86.708 41.0424C86.6348 41.0106 86.5688 40.9645 86.5137 40.9068C86.4586 40.8491 86.4156 40.7809 86.3873 40.7063C86.3589 40.6318 86.3457 40.5523 86.3485 40.4726C86.3513 40.3928 86.3701 40.3145 86.4036 40.2421C86.4371 40.1697 86.4848 40.1047 86.5438 40.051C86.6027 39.9973 86.6719 39.9559 86.7471 39.9293C86.8945 39.8772 87.0564 39.8848 87.1982 39.9504C87.34 40.0161 87.4506 40.1347 87.5061 40.2808C87.5617 40.4269 87.5579 40.5889 87.4956 40.7322C87.4332 40.8756 87.3173 40.9889 87.1726 41.0478ZM66.4804 44.955C67.5232 44.2085 69.1492 43.3961 70.3104 42.7317L77.454 38.617L84.1789 34.7344C85.3585 34.0498 86.54 33.3351 87.7339 32.6939C88.4234 32.3657 89.1271 33.0214 89.4298 33.5751C89.8112 34.2711 89.9528 34.7854 89.7533 35.5472C88.8619 36.1762 86.7273 37.334 85.7104 37.921L77.8412 42.468L71.7943 45.9651C70.7566 46.5703 69.5124 47.3765 68.4417 47.8683C67.2193 48.4308 65.9572 46.1072 66.4804 44.955Z" fill="#000001"/>
<path d="M66.9878 45.2327C67.9743 44.5223 70.0149 43.4332 71.1241 42.8121C73.0513 41.7235 74.9724 40.624 76.8871 39.5137L83.8389 35.4881C85.1657 34.7184 86.9964 33.5808 88.3608 33.0098C88.8828 33.7198 89.6605 34.4893 89.2 35.3788C88.3376 36.0164 85.8584 37.3635 84.8399 37.9455L77.0727 42.4275L71.3612 45.7359C70.4085 46.2859 69.3739 46.9194 68.3915 47.3637C67.6083 47.7172 66.9669 46.3561 66.8351 45.7941C66.7729 45.5278 66.8736 45.4395 66.9878 45.2327Z" fill="#732214" fill-opacity="0.45"/>
<path d="M85.3643 16.6794C84.5317 15.0289 84.3278 13.7956 82.4423 15.0949C80.9602 16.9199 83.4239 17.6022 82.6395 18.6209C82.1778 19.2186 78.4339 20.7107 77.5828 21.0949L61.0951 28.5492C59.5697 29.2565 57.1818 30.0921 55.8497 30.9069C55.5902 31.0664 55.3597 31.226 55.386 31.572C55.431 32.1336 58.3719 37.2963 58.8862 37.6761C59.1148 37.8427 59.3836 37.9849 59.5838 38.1836C60.1845 38.7819 60.773 40.3373 61.2757 41.1308L63.6216 39.7823C62.7229 38.1797 60.7387 34.8619 61.1034 33.723C61.469 32.5836 62.9623 32.0273 63.7918 31.4869L79.9386 22.0658C80.6156 21.6617 82.9723 19.6208 84.2542 20.5856C85.8962 21.8217 86.979 25.0339 88.3575 26.9315C87.7623 27.2667 87.0854 27.625 86.5091 27.9782L88.0767 30.7912C88.8319 30.3336 89.579 29.8641 90.3182 29.3827C90.754 30.1148 91.2081 30.5341 91.6596 31.1765C92.2487 30.9038 92.6571 30.5873 93.182 30.2096C91.1441 26.4713 88.5308 21.772 86.2494 18.202C85.6554 18.752 84.6474 19.5941 83.8818 18.7164C83.7897 18.6106 83.7199 18.4872 83.6765 18.3538C83.6332 18.2203 83.6173 18.0795 83.6296 17.9397C83.7014 16.9712 84.5655 16.7348 85.3643 16.6794Z" fill="#323033"/>
<path d="M85.4086 20.0488C86.8999 19.0866 88.0077 21.0803 87.5771 22.2885C86.2012 23.3466 85.0073 21.3496 85.4086 20.0488Z" fill="#000001"/>
<path d="M85.5946 20.3605C86.74 19.7209 87.4273 21.0844 87.3925 22.0148C86.3557 22.8301 85.6442 21.1242 85.5946 20.3605Z" fill="#676468"/>
<path d="M57.7952 31.148C57.9893 30.8968 58.2752 30.7329 58.5901 30.6924C58.905 30.652 59.2231 30.7383 59.4744 30.9323C59.7256 31.1264 59.8895 31.4123 59.93 31.7272C59.9704 32.0421 59.8841 32.3602 59.6901 32.6115C59.594 32.7359 59.4743 32.8401 59.3379 32.9183C59.2016 32.9965 59.0511 33.047 58.8952 33.0671C58.7393 33.0871 58.5809 33.0762 58.4292 33.0351C58.2775 32.9939 58.1354 32.9233 58.011 32.8272C57.8865 32.7311 57.7823 32.6114 57.7041 32.475C57.6259 32.3386 57.5754 32.1882 57.5553 32.0323C57.5353 31.8764 57.5462 31.718 57.5873 31.5663C57.6285 31.4146 57.6992 31.2725 57.7952 31.148Z" fill="#000001"/>
<path d="M58.2595 31.3275C58.4087 31.1998 58.6025 31.1367 58.7983 31.1519C58.994 31.1672 59.1757 31.2595 59.3034 31.4087C59.431 31.5579 59.4942 31.7517 59.4789 31.9475C59.4637 32.1432 59.3713 32.3249 59.2221 32.4526C59.0729 32.5802 58.8791 32.6434 58.6834 32.6281C58.4876 32.6129 58.3059 32.5205 58.1783 32.3713C58.0506 32.2221 57.9875 32.0284 58.0027 31.8326C58.0179 31.6368 58.1103 31.4551 58.2595 31.3275Z" fill="#676468"/>
<path d="M60.9753 30.0197C61.0271 29.9701 61.0884 29.9314 61.1554 29.9059C61.2225 29.8804 61.294 29.8686 61.3657 29.8713C61.4374 29.8739 61.5078 29.8909 61.5728 29.9213C61.6378 29.9517 61.6961 29.9948 61.7441 30.0481C61.7921 30.1014 61.829 30.1638 61.8524 30.2316C61.8759 30.2994 61.8855 30.3712 61.8807 30.4428C61.8759 30.5144 61.8567 30.5843 61.8244 30.6483C61.7921 30.7124 61.7472 30.7693 61.6925 30.8157C61.5862 30.9058 61.449 30.951 61.31 30.9416C61.171 30.9323 61.041 30.8692 60.9477 30.7657C60.8545 30.6621 60.8052 30.5264 60.8103 30.3871C60.8155 30.2479 60.8746 30.1161 60.9753 30.0197Z" fill="#000001"/>
<path d="M76.7016 50.5849L76.8724 50.4803C77.9851 49.8174 85.0851 46.3239 86.0174 46.5767C86.1448 46.6089 86.2644 46.6666 86.3689 46.7464C86.4733 46.8263 86.5605 46.9265 86.625 47.041C87.249 48.1594 85.8903 49.5265 85.5943 50.58C85.221 51.9105 86.6092 61.2073 87.0582 62.9673C87.2219 63.6096 87.4626 64.1329 87.7829 64.7126C88.0158 65.1223 88.2431 65.5473 88.4707 65.9602C88.4523 66.3308 88.2761 67.0309 87.9422 67.243C75.3146 75.2644 82.2063 55.8628 77.0588 51.4058C76.7936 51.176 76.6843 50.9261 76.7016 50.5849Z" fill="#732214"/>
<path d="M100.751 25.1049L107.746 21.087C109.729 19.9407 111.66 18.7704 113.692 17.7103C114.027 18.2284 114.318 18.769 114.566 19.3322L107.923 23.1749C106.075 24.243 100.506 27.3882 98.5204 28.6468C98.1333 28.8919 99.3174 30.7489 99.0812 31.3741L98.7367 31.5116C98.3283 31.338 97.0478 28.972 96.7659 28.44C96.5836 28.095 96.6409 27.5562 96.9954 27.3527C98.2473 26.6348 99.5264 25.8638 100.751 25.1049Z" fill="#312F32"/>
<path d="M47.7012 67.8812C47.7278 67.8646 47.8596 67.8282 47.8972 67.8161C48.2159 68.0512 48.8305 68.9112 49.054 69.265C49.6893 70.2612 50.0197 70.9939 49.7636 72.1833C49.1198 72.5176 48.3943 72.8522 47.7361 73.172C47.4246 73.3519 47.2148 73.5308 46.887 73.4468C46.4122 72.8539 45.1935 70.6366 44.7499 69.8704C45.9403 69.1627 46.8308 68.97 47.7012 67.8812Z" fill="#323033"/>
<path d="M53.2832 67.9412L53.4413 67.9004C53.6411 68.0049 54.5175 69.2454 54.7341 69.5226C55.7515 70.8139 56.8398 72.0412 57.999 73.2044C60.9128 76.0484 64.2476 78.4263 67.8859 80.2543C72.0302 82.3384 76.9428 83.5551 81.5393 83.8491C82.0026 83.8795 83.4785 83.7906 83.7892 84.0522L83.8027 84.3C82.522 84.5744 78.1017 83.9433 76.6472 83.6548C68.6882 82.059 61.3652 77.6939 55.9265 71.7018C55.2773 70.9856 53.1164 68.7833 53.284 67.9407" fill="#323033"/>
<path d="M93.1453 29.0987L95.5812 27.7621C96.032 28.5012 98.0612 32.0555 98.2885 32.7057L97.1282 33.4009C96.8905 33.5418 96.6333 33.7324 96.3762 33.6666L96.2039 33.3265C95.9863 33.227 96.0031 33.3269 95.6716 33.393C95.2821 32.975 93.5459 29.8113 93.1453 29.0987Z" fill="#312F32"/>
<path d="M54.7754 67.0179C55.357 66.9316 56.1256 68.3764 56.5419 68.8447C62.3089 75.3329 69.894 79.9354 78.511 81.3841C80.2717 81.681 82.0293 81.7494 83.8053 81.8542C84.0305 81.8678 84.0412 81.9137 84.1576 82.0797C83.9997 82.1472 83.6497 82.2677 83.4796 82.2646C75.3877 82.1363 67.2061 78.8761 60.9926 73.7504C59.7358 72.7133 54.9013 68.2789 54.776 67.0188" fill="#323033"/>
<path d="M56.2606 65.8554C56.6694 65.9066 57.5323 67.0017 57.8727 67.3808C59.9803 69.732 62.3731 71.8111 64.9956 73.5698C70.6794 77.462 77.2831 79.4931 84.1133 79.8525C84.2138 79.8575 84.2618 80.0978 84.2909 80.1863C84.1123 80.2163 83.9315 80.2308 83.7503 80.2295C74.8922 79.9068 66.4063 76.0934 59.9163 70.1185C58.7704 69.0631 57.5977 67.7763 56.57 66.5981C56.3514 66.3477 56.273 66.188 56.2606 65.8554Z" fill="#323033"/>
<path d="M74.9064 51.2841L74.9533 51.2715C78.2818 51.2076 78.785 56.5484 78.8889 58.964C79.0212 62.0398 79.2045 64.5491 79.9475 67.5481L79.9544 67.8042L79.86 67.8346C77.731 66.7122 78.5052 56.7666 77.4278 54.4604C76.7122 52.929 76.0794 52.4274 74.9064 51.2841Z" fill="#4A170F"/>
<path d="M57.6989 64.5158C57.9725 64.555 58.1035 64.7816 58.2936 64.9908C60.1366 67.0004 62.0978 68.9092 64.3032 70.5288C67.9884 73.2923 72.1688 75.3246 76.6184 76.5158C78.5141 77.0512 80.4547 77.4121 82.4162 77.5941C82.9659 77.6465 83.5718 77.6466 84.1078 77.767C84.3704 77.8262 84.375 77.9466 84.386 78.1581C84.2752 78.1764 84.1631 78.1858 84.0496 78.1862C74.0955 77.6238 64.7546 72.8469 58.1018 65.4835C57.7796 65.1264 57.6992 64.9996 57.6989 64.5158Z" fill="#323033"/>
<path d="M59.0876 62.9431C59.3611 62.9823 59.4922 63.2088 59.6822 63.418C61.5253 65.4276 63.4865 67.3364 65.6919 68.956C69.3771 71.7196 73.5575 73.7519 78.0071 74.9431C79.9028 75.4784 80.5025 75.6463 82.4639 75.8283C83.0137 75.8807 83.6195 75.8808 84.1556 76.0012C84.4182 76.0605 84.4227 76.1808 84.4338 76.3923C84.323 76.4106 84.2108 76.42 84.0973 76.4205C74.1433 75.858 66.1433 71.2742 59.4905 63.9108C59.1683 63.5537 59.0878 63.4268 59.0876 62.9431Z" fill="#323033"/>
<path d="M55.8151 61.2844L56.0835 61.1174C56.3381 61.1414 56.2387 61.1048 56.4618 61.318C56.4784 61.4011 56.5249 61.5296 56.5037 61.6117C56.3172 62.319 50.8005 65.362 49.9816 65.8372C49.804 65.8988 49.6699 65.8751 49.4815 65.8658C49.2136 65.6833 49.2971 65.782 49.1604 65.4973C49.2872 65.2122 55.0304 61.8169 55.8151 61.2844ZM92.7558 35.6884C93.6205 35.0964 94.7805 34.4508 95.6964 33.9413C95.8087 34.2256 96.0668 34.6726 96.2193 34.9554L95.5296 35.7629C94.8354 36.8067 94.3431 37.0091 93.2893 37.5885C93.0315 37.1691 92.671 36.6427 92.5269 36.1721C92.4466 35.9078 92.5873 35.8386 92.7558 35.6884Z" fill="#323033"/>
<path d="M93.4564 35.8341C93.5146 35.7585 93.5908 35.6987 93.6781 35.6603C93.7654 35.6218 93.861 35.6058 93.956 35.6138C94.0511 35.6218 94.1426 35.6536 94.2223 35.7061C94.3019 35.7586 94.3671 35.8303 94.4119 35.9145C94.4591 36.0047 94.4813 36.106 94.476 36.2077C94.4708 36.3094 94.4383 36.4078 94.382 36.4926C94.3256 36.5775 94.2476 36.6456 94.1559 36.69C94.0642 36.7343 93.9623 36.7532 93.8608 36.7446C93.7593 36.7361 93.662 36.7004 93.5791 36.6414C93.4961 36.5824 93.4305 36.5021 93.3892 36.409C93.3478 36.316 93.3322 36.2135 93.3441 36.1124C93.3559 36.0112 93.3947 35.9151 93.4564 35.8341ZM41.9114 59.9635C42.0954 59.8609 42.0184 59.886 42.2523 59.9075L42.2898 60.0328C41.9609 60.6561 39.9942 62.6176 39.3736 63.2841L32.0425 71.1385L31.8415 71.2389L31.7122 71.1775C31.736 70.6098 34.3248 68.1074 34.8327 67.5565C37.1734 65.0067 39.533 62.4757 41.9114 59.9635ZM28.3087 70.3335C30.021 69.216 31.5938 71.0809 30.3663 72.4C29.8107 72.787 29.1751 72.9228 28.5783 72.5209C28.4152 72.4088 28.2766 72.2648 28.1709 72.0975C28.0652 71.9302 27.9946 71.7432 27.9635 71.5478C27.8717 70.9927 28.006 70.7707 28.3082 70.3325" fill="#000001"/>
<path d="M28.7148 70.7302C28.8878 70.5693 29.1162 70.4814 29.3523 70.485C29.5885 70.4885 29.8141 70.5832 29.9821 70.7492C30.1501 70.9153 30.2474 71.1398 30.2538 71.3759C30.2601 71.612 30.1749 71.8414 30.016 72.0162C29.8442 72.182 29.6144 72.274 29.3756 72.2726C29.1368 72.2712 28.9081 72.1765 28.7382 72.0087C28.5684 71.8409 28.4709 71.6133 28.4666 71.3745C28.4624 71.1358 28.5516 70.9049 28.7154 70.7311" fill="#676468"/>
<path d="M21.0459 83.8015C21.1355 83.769 21.2171 83.758 21.3113 83.7398C21.6861 83.999 25.325 89.2319 25.3638 89.543L25.2259 89.6588C24.2752 89.2384 21.6167 85.3635 20.8537 84.2965C20.7921 84.2105 20.9759 83.9346 21.0459 83.8015ZM95.2399 37.28C95.4105 37.1791 95.8983 36.877 96.0589 37.1093C96.4937 37.7373 97.2408 38.8435 97.4126 39.5582C97.5077 39.9524 96.5673 40.6134 96.282 40.8263C95.9591 41.0344 95.6396 41.1442 95.3738 40.7859C95.3872 40.4338 95.9781 39.9349 96.0657 39.5653C96.2716 38.6999 95.0034 38.1883 95.2399 37.28ZM45.5898 67.2772C46.0852 66.955 46.4698 66.6222 47.0512 66.6032C47.5596 66.8768 47.269 67.4371 47.1215 67.8822C46.8973 68.0466 46.5364 68.2598 46.292 68.4141C45.7679 68.7432 45.2572 69.0284 44.7161 69.33C44.4512 68.9909 44.2075 68.6358 43.9865 68.2666C44.5645 67.9329 45.0415 67.6539 45.5898 67.2772Z" fill="#323033"/>
<path d="M65.0291 38.4637C65.2432 38.3257 65.4723 38.1344 65.7134 38.1578C66.2263 38.4601 67.6853 41.4502 68.066 42.1888C67.8712 42.2832 67.7475 42.3149 67.5431 42.3739C67.2749 42.3181 67.1612 42.2609 67.0405 41.9934C66.7785 41.4187 65.0298 38.8631 65.0291 38.4637Z" fill="#B13F2B"/>
<path d="M11.7818 75.6781L11.8405 75.6586C12.9664 75.2939 14.0952 76.9612 13.4567 78.0764C12.3381 78.2514 11.1358 76.7217 11.7818 75.6781Z" fill="#323033"/>
<path d="M21.3654 89.2389C22.6169 88.4453 23.6943 90.2446 23.3968 91.1725C23.1041 91.3475 22.8289 91.5173 22.4945 91.372C21.6556 91.0075 21.2397 90.1098 21.3654 89.2389Z" fill="#323033"/>
<path d="M14.9426 80.2709C15.765 79.7913 16.3496 80.3784 16.7051 81.1256C16.9585 81.6584 16.9707 81.8151 16.7533 82.356C15.7444 83.0902 14.5744 81.2974 14.9426 80.2709Z" fill="#323033"/>
<path d="M18.1447 84.7493C19.0145 84.2038 19.5265 84.8738 19.9539 85.6348C20.1996 86.0709 20.243 86.3505 20.0771 86.8243L19.9673 86.8781C18.9098 87.4573 17.9328 85.7108 18.1447 84.7493Z" fill="#323033"/>
<path d="M84.3234 17.4641C84.4446 17.3265 84.6156 17.2428 84.7986 17.2312C84.9817 17.2197 85.1618 17.2814 85.2993 17.4027C85.4369 17.524 85.5206 17.6949 85.5321 17.878C85.5436 18.061 85.482 18.2411 85.3607 18.3786C85.3006 18.4468 85.2278 18.5024 85.1462 18.5423C85.0647 18.5823 84.9761 18.6058 84.8854 18.6115C84.7948 18.6172 84.7039 18.605 84.618 18.5755C84.5321 18.5461 84.4529 18.5001 84.3847 18.44C84.3166 18.38 84.261 18.3071 84.2211 18.2255C84.1811 18.144 84.1576 18.0554 84.1519 17.9648C84.1462 17.8741 84.1584 17.7833 84.1878 17.6974C84.2173 17.6115 84.2633 17.5322 84.3234 17.4641Z" fill="#676468"/>
<path d="M85.0901 27.4537C84.9195 27.5148 84.7977 27.5562 84.6354 27.6379C85.0681 28.4501 86.0258 30.3173 86.5473 31.012C86.7886 31.0797 86.7666 31.031 87.0619 30.869L87.107 30.8429C86.8779 30.396 85.3703 27.5616 85.0901 27.4537Z" fill="#B13F2B"/>
<path d="M84.0276 27.9068C83.3442 27.916 67.6934 36.5884 66.0527 37.5381C66.9539 39.0803 67.7221 40.5235 68.5865 42.0665L81.386 34.6514L84.6109 32.8004C84.9813 32.5889 86.038 32.0041 86.3058 31.7652C86.0789 31.1678 84.4522 28.2877 84.0276 27.9068Z" fill="#732214"/>
<path d="M109.952 28.5473C109.07 27.5673 108.695 28.0051 107.771 28.5698C107.529 28.8689 107.331 29.2998 107.42 29.6458C107.689 30.6957 109.735 35.9079 110.225 36.6521C111.461 36.8171 111.18 36.8792 111.21 37.7894C111.219 38.0743 111.813 37.8312 112.002 38.4809C111.913 38.7946 111.865 38.9213 111.728 39.2168C113.628 39.1457 112.603 39.6557 112.787 40.315C113.146 40.3897 113.328 40.3484 113.586 40.5465C113.87 41.3876 113.718 42.3147 115.044 41.809C115.446 41.6564 115.763 41.4146 116.113 41.1712C118.269 39.3016 114.794 40.2703 116.205 38.2613C115.908 38.2301 115.62 38.2306 115.388 38.0487C115.161 37.613 115.405 37.347 115.628 36.9412L114.726 36.7323C114.744 36.5462 114.841 35.9891 114.703 35.9003C113.874 35.3614 113.983 35.1516 114.12 34.2021C113.171 32.1577 111.447 30.208 109.952 28.5473Z" fill="#323033"/>
</g>
<path d="M83.9767 27.8923C83.3772 28.0529 71.8176 34.4144 66.0817 37.5436L66.4356 38.2083L84.4438 28.5026C84.3769 28.4213 84.2279 28.2027 83.9767 27.8923Z" fill="#B13F2B"/>
<path d="M86.6774 47.1133C86.308 46.4752 85.614 46.5396 85.3132 46.6516C85.4939 46.7959 85.9996 46.7921 86.1566 47.5144C86.2857 48.1082 84.9447 49.4916 84.5869 50.2072C84.2291 50.9228 85.27 56.5503 85.6603 59.8032C86.0507 63.056 86.9715 65.4794 87.3913 66.277C87.7271 66.915 86.8875 67.7882 86.4257 68.1451C86.5657 68.0611 87.005 67.8008 87.6431 67.4314C88.5457 66.8647 88.4407 66.214 88.3988 65.8152C87.3577 64.3375 86.8875 62.4848 86.7826 61.7432C86.4677 59.5043 85.7876 54.5185 85.5861 52.4867C85.3846 50.4549 85.866 49.6111 86.1319 49.4432C86.4676 48.9324 87.0468 47.7514 86.6774 47.1133Z" fill="#B13F2B"/>
</g>
<defs>
<clipPath id="clip0_3262_10448">
<rect width="122" height="68.8205" fill="white" transform="translate(0.573975 61.7402) rotate(-30)"/>
</clipPath>
</defs>
</svg>
