<svg width="181" height="92" viewBox="0 0 181 92" fill="none" xmlns="http://www.w3.org/2000/svg">
<path d="M180.447 61.447C180.518 62.0879 180.527 62.7445 180.409 63.3806C180.281 64.0646 180.019 64.7164 179.636 65.2975C179.253 65.8787 178.758 66.3777 178.18 66.7653C176.595 67.8446 175.323 67.8311 173.559 67.4899C173.852 67.7723 174.173 68.0782 174.417 68.4011C174.815 68.9252 175.107 69.5229 175.273 70.1599C175.439 70.7967 175.477 71.4602 175.385 72.112C175.281 72.7784 175.045 73.418 174.693 73.9929C174.34 74.5676 173.876 75.067 173.329 75.4616C172.782 75.8611 172.16 76.1465 171.501 76.3024C170.842 76.4583 170.158 76.4811 169.489 76.3688C167.758 76.0788 166.779 75.1338 165.839 73.7731C160.736 73.7943 149.58 73.746 144.011 73.8347C143.891 74.0872 143.45 75.0112 143.167 75.0485C141.049 75.3232 138.767 75.0614 136.622 75.1462C135.799 75.179 135.072 75.3205 134.384 74.9186C133.989 74.6873 133.758 74.1602 133.586 73.8249C132.457 73.7488 130.968 73.7917 129.813 73.7946L123.329 73.8093L103.878 73.8493C103.776 76.336 101.291 75.778 99.4221 75.7722C99.3418 76.7696 99.3079 76.8939 98.5725 77.5319C97.5893 77.5849 96.2981 77.5593 95.2903 77.5641C95.319 79.4877 94.6232 79.2981 92.928 79.2692L92.9202 82.7604C92.9218 83.0158 92.9323 84.063 93.1018 84.1989C93.715 84.6882 93.6262 84.9152 93.6174 85.6677C94.2934 85.6561 95.9578 85.4894 96.4514 85.9538C97.1533 86.6149 97.1062 89.4841 96.3596 90.0309C95.7241 90.4955 93.0026 90.2925 92.1057 90.2809C91.9611 92.1494 90.5988 91.4391 89.2043 91.5065C88.7562 91.5278 88.0549 91.599 87.6926 91.3581C87.5048 91.0479 87.548 90.6694 87.5452 90.2946C84.6212 90.2792 81.6967 90.2842 78.7727 90.3122C77.3745 90.3199 75.8896 90.3562 74.4915 90.2917C74.1994 90.2782 73.969 90.1427 73.7502 89.9528C73.3407 89.5963 73.3966 88.9663 73.387 88.4411C72.1331 88.4623 70.479 88.6313 70.3508 86.8542C70.1986 84.7487 70.2806 82.5044 70.2913 80.3805C69.7246 80.3651 69.1284 80.3688 68.5598 80.3639C68.6022 83.1846 67.2724 82.691 64.9016 82.6862C64.9084 83.3223 65.0294 84.323 64.6604 84.7722C64.2192 84.7895 63.9934 84.7827 63.7112 85.1696C63.69 85.5078 63.7005 85.6554 63.5686 85.9733C63.4626 86.0716 63.2805 86.2135 63.137 86.2087C62.38 86.1837 59.471 86.3757 58.9836 86.0339C58.9701 85.1694 58.7523 84.87 57.8889 84.8054C57.5633 84.3726 57.6771 83.3217 57.6887 82.7136C56.4833 82.7145 51.2536 83.0178 50.5657 82.2917C50.1032 81.8022 50.2033 81.0079 50.1995 80.3854C45.51 80.2159 40.6095 80.561 35.9133 80.3278C33.907 80.2276 33.9556 78.3942 33.9739 76.8561L31.6653 76.8571C31.6422 77.1453 31.6316 77.6568 31.4582 77.8669C30.8954 78.5521 29.9495 78.6828 29.2893 78.0554C28.8636 77.6507 28.9435 77.3247 28.9387 76.8005C24.6288 76.8361 20.0769 76.8939 15.7795 76.7936C15.688 78.2142 14.7249 78.8645 13.4104 78.0231C13.0173 77.7716 13.0557 77.2574 13.0413 76.8112C12.3743 76.8392 11.2197 76.9716 10.6916 76.4802C9.24896 75.1357 8.24667 73.4061 6.87817 71.9518C6.88203 72.4164 6.9718 73.4631 6.37524 73.5739C5.36328 73.7609 3.60911 73.8343 2.69262 73.3688C2.29672 72.9236 2.38792 72.2601 2.38696 71.654C1.97255 71.6617 1.41474 71.7304 1.08032 71.4577C0.362522 70.8727 0.291529 69.9626 0.968015 69.3112C1.37082 68.924 1.8608 69.0134 2.38305 69.0134C2.47171 64.6342 2.39955 59.9896 2.39184 55.5944C1.94277 55.6044 1.32635 55.6718 0.963132 55.447C0.440017 54.7643 0.353913 53.8445 1.01001 53.2204C1.37813 52.8708 1.9421 52.9697 2.41528 52.986C2.40275 52.4338 2.35891 51.9187 2.59302 51.4245C3.19814 50.8846 4.40412 50.9281 5.18188 50.9411C6.87037 50.9693 6.88537 51.1863 6.91235 52.652C8.06389 51.3189 9.96117 48.5404 11.2805 47.7761C11.8037 47.777 12.5943 47.8562 12.9915 47.5729C13.0936 46.9287 13.1147 46.8093 13.6448 46.4186C14.568 46.2826 15.4275 46.1775 15.7551 47.2966C15.8226 47.5273 15.8118 47.5305 15.9631 47.7116C17.269 47.8147 19.287 47.7507 20.6448 47.7448L28.928 47.695C28.9598 46.3008 30.0375 45.8124 31.2219 46.5397C31.6207 46.7847 31.62 47.2941 31.6643 47.7399L33.9182 47.737C33.9857 44.9037 34.4547 44.2795 37.4133 44.3014C39.1441 44.3144 40.9297 44.3269 42.6653 44.3405C42.7337 43.247 42.7258 42.2245 42.7239 41.1305C40.8774 41.1415 39.1154 41.7483 38.9602 39.3669C37.2709 39.3512 33.4064 39.7241 32.343 38.6979C32.015 38.3766 31.7883 37.966 31.6907 37.5173C31.5278 36.754 31.5862 34.5141 31.5891 33.6081L31.6057 26.7048C30.5871 26.6427 29.8635 26.5124 29.7786 25.3063C29.686 23.78 29.7316 22.2415 29.7249 20.7096C29.72 19.7602 29.6878 18.689 29.8342 17.7507C29.9817 16.8079 30.8232 16.7327 31.6067 16.6979C31.5595 13.3233 31.5656 9.38969 31.637 6.00262C31.6852 3.74446 35.1001 3.98433 36.8108 3.98992L41.5745 4.00457C42.2646 1.97174 43.8277 2.49842 45.676 2.49969C45.8823 2.0838 46.3548 1.12511 46.8694 1.09832C50.6299 0.905393 54.4636 1.02285 58.2385 1.03875C59.2794 1.04319 59.3696 1.65007 59.5354 2.49383C61.5776 2.51571 62.6441 1.94024 63.6194 3.99969L68.5422 3.98504C73.4311 3.96491 73.5556 4.17083 73.5325 8.98602L73.5041 14.1989C73.9175 14.1902 74.332 14.1857 74.7454 14.1852C75.338 14.1871 76.0948 14.1768 76.5256 14.6491C77.445 15.6573 77.0733 20.376 77.0588 21.8395C78.3348 23.2428 79.631 24.9999 80.8694 26.4675C84.4034 30.6555 87.7853 35.2876 91.3743 39.4128C95.7753 39.2451 94.5811 41.7864 94.5842 45.3854C95.8042 45.5668 95.7929 45.9796 95.8665 47.0925C97.8235 47.0952 99.3023 46.5336 99.3801 48.9372C101.475 48.9505 103.684 48.1849 103.866 50.9059C106.723 50.8593 133.465 50.9809 133.777 50.8122C133.834 50.2317 134.142 49.5678 134.819 49.5427C137.421 49.4466 140.066 49.4782 142.672 49.529C143.599 49.5471 143.783 50.1765 143.881 50.9294L165.824 50.9313C165.983 50.6727 166.146 50.4105 166.338 50.1755C166.765 49.6479 167.294 49.2106 167.892 48.8893C168.49 48.568 169.147 48.3693 169.823 48.3044C170.501 48.2421 171.185 48.3144 171.835 48.5173C172.485 48.7202 173.089 49.0501 173.612 49.487C174.141 49.9323 174.575 50.4808 174.886 51.0993C175.197 51.7179 175.378 52.3936 175.419 53.0847C175.512 54.8453 174.789 55.9257 173.674 57.1325C177.127 56.8704 179.521 57.784 180.447 61.447ZM82.469 44.2731C82.4507 43.9906 82.4343 43.7637 82.3958 43.4802C81.5672 43.5047 81.3657 42.5484 80.8225 42.0583C80.0275 41.3418 79.8681 40.6156 79.4104 39.7956L78.967 39.7302C78.1864 38.9725 77.6096 38.0232 76.8801 37.2165C76.7221 37.0417 76.5687 36.4114 76.5002 36.1608C76.2924 36.1838 76.2308 36.1941 76.0374 36.1149C75.197 35.1737 74.2916 33.9497 73.5061 32.9352C73.5803 39.9535 73.5974 39.3468 66.7356 39.363L64.845 39.3513C64.6367 41.6909 63.0938 41.168 61.1799 41.1472C61.1857 42.1947 61.1765 43.2797 61.2112 44.3239L68.4456 44.3278C69.8285 44.3296 71.6012 44.3787 72.9534 44.2868C73.1876 44.0472 73.3194 43.571 73.6028 43.5241C74.6253 43.355 75.725 43.4419 76.759 43.4382C77.4528 43.4357 77.5366 43.6957 77.7688 44.2839C78.3432 44.4166 82.0385 44.4219 82.469 44.2731ZM86.2864 84.1735C86.5312 83.1124 86.3929 80.5117 86.4016 79.2839L84.8704 79.28C83.8278 80.5805 83.0885 80.3646 81.5139 80.3366L81.5002 85.655L85.7454 85.6579C85.7299 84.859 85.5907 84.6631 86.2864 84.1735ZM103.84 55.863L103.845 58.4206C113.805 58.3223 123.866 58.5233 133.804 58.3854L133.813 55.8649L103.84 55.863ZM103.847 66.2751L103.842 68.778L133.813 68.7692L133.815 66.2634L103.847 66.2751Z" fill="black"/>
<path d="M62.6495 60.0856C62.665 62.8785 62.8047 66.3027 62.5079 69.0523C62.4626 69.4705 61.8342 71.1552 61.6559 71.6602L60.2325 75.7513L47.1159 75.7426C45.0419 75.7436 42.8937 75.8014 40.8284 75.6848C39.2064 75.5932 39.6632 72.3126 39.6661 71.187L39.6767 64.4812L39.6728 55.0357C39.669 53.4993 39.6208 51.9574 39.6902 50.4251C39.7268 49.6166 40.173 49.0025 41.024 48.967C43.0228 48.8835 45.0486 48.9388 47.0513 48.9387L60.272 48.9248C60.9456 51.2864 62.0414 53.8523 62.5821 56.2021C62.6939 56.6903 62.6524 59.4582 62.6495 60.0856Z" fill="#526068"/>
<path d="M59.0065 53.4997C59.1443 55.7722 59.0354 58.5522 59.0248 60.8536C59.0104 64.2894 59.1839 67.8852 58.8552 71.266C58.835 71.4809 58.2606 72.116 57.9955 72.1324C54.7458 72.4013 51.363 72.3087 48.0834 72.2943C46.2889 72.2866 43.2107 72.9766 42.6305 71C42.5216 68.1868 42.6691 65.232 42.6305 62.3899C42.6961 59.4119 42.4667 56.3838 42.6941 53.4185C42.9042 52.5463 43.948 52.3105 44.7093 52.3149C48.7773 52.3389 52.8318 52.3968 56.9007 52.2821C57.9715 52.2518 58.5719 52.5426 59.0065 53.4997Z" fill="black"/>
<path d="M58.3386 54.0311C58.3366 54.4317 58.4205 55.4506 58.2991 55.7413C58.1844 59.0659 58.3116 62.4988 58.2605 65.8314C58.2528 66.3461 58.3164 68.7728 58.2586 69.1062C57.8943 68.9511 57.9974 68.687 57.4182 68.3458C55.3721 68.4499 55.3615 70.5412 57.2852 70.7166L57.37 71.5888C54.2301 71.4809 50.9601 71.6158 47.8106 71.5619C46.8623 71.5455 44.9444 71.6284 44.0963 71.5541C43.2193 71.133 43.2877 70.9181 43.3455 69.9572L43.4381 69.9273C43.7291 70.3177 43.8072 70.4256 44.2322 70.6598C46.3004 70.4362 46.1221 68.3266 44.2091 68.3179C43.7282 68.5945 43.6144 68.7236 43.3234 69.1862C43.3484 67.3397 43.1518 54.0886 43.4371 53.5271C43.5971 53.2132 43.9623 53.1006 44.2727 53.0161C45.1902 53.133 47.8906 53.0809 48.9825 53.0673C51.6723 53.0336 54.6465 53.1373 57.3045 52.9997C58.0119 53.09 58.1535 53.4145 58.3386 54.0311Z" fill="#374047"/>
<path d="M44.2727 53.0161C44.264 53.32 44.2852 53.7351 44.1908 54.0045C43.9629 54.0803 43.7645 54.2255 43.6234 54.4199C43.4824 54.6142 43.4058 54.8478 43.4044 55.088C43.4005 55.5803 43.7108 56.02 44.1763 56.1818L44.2091 68.3179C43.7282 68.5945 43.6144 68.7237 43.3234 69.1862C43.3485 67.3397 43.1519 54.0887 43.4371 53.5271C43.5971 53.2132 43.9624 53.1006 44.2727 53.0161ZM58.2991 55.7413C58.1844 59.0659 58.3116 62.4988 58.2605 65.8315C58.2528 66.3461 58.3164 68.7728 58.2586 69.1063C57.8943 68.9511 57.9974 68.687 57.4182 68.3459C57.3363 67.1961 57.4066 65.1212 57.4057 63.9126C57.4057 61.3577 57.3662 58.7566 57.4009 56.2095C57.743 56.0629 57.8558 55.9248 58.1266 55.6752L58.2991 55.7413Z" fill="#92A6B3"/>
<path d="M58.3386 54.0311C58.3366 54.4317 58.4205 55.4506 58.2991 55.7413L58.1266 55.6752C57.8557 55.9248 57.743 56.0629 57.4008 56.2095C55.403 56.1097 55.3047 54.1536 57.2968 53.8324L57.3045 52.9997C58.0119 53.09 58.1535 53.4145 58.3386 54.0311Z" fill="black"/>
<path d="M58.3389 54.0311L58.1664 54.5759C57.8165 54.1606 57.7635 54.1083 57.2971 53.8324L57.3048 52.9997C58.0122 53.09 58.1538 53.4145 58.3389 54.0311Z" fill="#92A6B3"/>
<path d="M58.3386 54.0311C58.3366 54.4317 58.4205 55.4506 58.2991 55.7412L58.1266 55.6751C58.1882 55.3215 58.1689 54.9384 58.1661 54.5759L58.3386 54.0311Z" fill="#374047"/>
<path d="M57.451 54.8425C57.5076 54.9459 57.5222 55.0672 57.4919 55.1811C57.4616 55.295 57.3886 55.393 57.2882 55.4547C57.079 55.5825 56.8063 55.5239 56.6685 55.3213C56.6217 55.2525 56.5944 55.1724 56.5895 55.0894C56.5846 55.0065 56.6022 54.9237 56.6405 54.8499C56.6792 54.7763 56.737 54.7145 56.808 54.6711C56.8789 54.6278 56.9602 54.6044 57.0434 54.6035C57.1266 54.6027 57.2085 54.6245 57.2803 54.6666C57.3521 54.7087 57.4111 54.7695 57.451 54.8425Z" fill="#526068"/>
<path d="M44.1909 54.0045C44.4231 53.9272 44.6739 53.926 44.9068 54.001C45.1397 54.0759 45.3427 54.2232 45.4862 54.4214C45.6297 54.6197 45.7061 54.8586 45.7043 55.1033C45.7026 55.3481 45.6228 55.5858 45.4766 55.7821C45.3307 55.9785 45.1259 56.1231 44.892 56.195C44.6582 56.2669 44.4075 56.2623 44.1765 56.1818C43.9496 56.103 43.7532 55.9551 43.6147 55.7589C43.4762 55.5627 43.4027 55.3281 43.4045 55.0879C43.4059 54.8478 43.4825 54.6141 43.6236 54.4198C43.7647 54.2255 43.9631 54.0802 44.1909 54.0045Z" fill="black"/>
<path d="M44.9272 54.8676C44.9656 54.9375 44.984 55.0166 44.9802 55.0962C44.9765 55.1759 44.9508 55.2529 44.906 55.3189C44.8609 55.3849 44.7984 55.437 44.7254 55.4694C44.6524 55.5018 44.5718 55.5133 44.4926 55.5026C44.3998 55.49 44.3137 55.4475 44.2473 55.3815C44.1809 55.3155 44.1378 55.2297 44.1246 55.137C44.1114 55.0443 44.1288 54.9498 44.1742 54.8679C44.2196 54.786 44.2904 54.7212 44.376 54.6832C44.4743 54.6396 44.5854 54.6343 44.6874 54.6684C44.7894 54.7025 44.875 54.7736 44.9272 54.8676Z" fill="#526068"/>
<path d="M44.2322 70.6598C44.2862 71.0308 44.3797 71.2688 44.0963 71.5541C43.2193 71.133 43.2877 70.918 43.3455 69.9572L43.4381 69.9273C43.7291 70.3176 43.8072 70.4256 44.2322 70.6598ZM57.2852 70.7166C57.6938 70.4497 57.9348 70.0902 58.194 69.99C58.5843 70.7369 58.0427 71.319 57.37 71.5888L57.2852 70.7166Z" fill="#92A6B3"/>
<path d="M44.9223 69.3086C44.9715 69.4137 44.977 69.534 44.9376 69.6431C44.8982 69.7522 44.8172 69.8412 44.7122 69.8907C44.4935 69.9938 44.2332 69.9003 44.1292 69.6825C44.0794 69.5772 44.0734 69.4564 44.1126 69.3467C44.1519 69.2371 44.233 69.1474 44.3383 69.0975C44.558 68.9944 44.8202 69.0889 44.9223 69.3086Z" fill="#526068"/>
<path d="M57.4531 69.3626C57.5311 69.5852 57.4203 69.829 57.2015 69.9148C56.9828 70.0016 56.7341 69.8994 56.6406 69.6835C56.5761 69.537 56.5973 69.3674 56.6956 69.2402C56.7438 69.1782 56.8078 69.1303 56.8808 69.1014C56.9539 69.0726 57.0334 69.064 57.1109 69.0764C57.269 69.1024 57.4001 69.2122 57.4531 69.3626Z" fill="#374047"/>
<path d="M84.2954 45.9245C84.4323 47.2479 84.3764 49.0909 84.3764 50.4679L84.3764 58.0569L84.3822 70.8959C84.3831 73.0624 84.387 75.2366 84.3725 77.4041C84.3706 77.7405 84.2887 78.9529 84.0719 79.1861C83.934 79.3355 83.6141 79.5417 83.3779 79.5484C81.5382 79.6034 79.6193 79.5909 77.7795 79.5938L65.646 79.5831L46.5522 79.6381C43.288 79.6468 40.0209 79.6728 36.7567 79.6362C35.6782 79.6236 35.2098 79.6487 34.7058 78.6473C34.8369 75.9855 34.728 72.621 34.7212 69.8984L34.728 53.4877C34.7415 52.0188 34.7347 50.5499 34.7068 49.0811C34.6923 48.1498 34.6316 46.8327 34.7463 45.9356C35.126 45.4427 35.4036 45.1113 36.0599 45.0841C37.4226 45.0276 38.8056 45.0571 40.1693 45.0637C42.6278 45.0814 45.0863 45.0862 47.5439 45.0781L73.0678 45.0558C73.2152 45.8904 72.903 46.9837 73.2519 47.7595C74.1 48.2579 73.8927 48.9319 73.8667 49.8258C73.1516 49.8323 71.4969 49.8994 70.9051 49.7349C70.0127 49.4866 68.8938 48.3112 67.8385 48.268C66.0999 48.197 64.2823 48.2135 62.5379 48.2072L51.7651 48.1894L44.3211 48.1783C43.2947 48.177 41.6149 48.1285 40.6406 48.2498C38.2775 48.5441 38.9087 52.9865 38.9212 54.7662L38.9434 62.1875L38.9193 70.1249C38.9164 71.6766 38.8326 73.3901 39.0793 74.9176C39.2576 76.024 40.2647 76.4683 41.3017 76.4799C43.1049 76.5001 44.9244 76.4905 46.7363 76.4866L56.6648 76.4808L63.7454 76.4885C65.0205 76.4885 66.3524 76.5136 67.6477 76.4413C69.0114 76.3652 70.0898 74.907 71.4217 74.8675C73.3328 74.8097 75.2748 74.8791 77.1888 74.8695C77.8219 74.8656 78.7616 74.9051 79.3562 74.7606C82.2359 74.0599 80.2766 67.4004 81.0197 65.9789L81.462 65.9047C81.807 65.6107 81.9988 64.7385 82.1125 64.2827C82.3949 63.1445 81.4534 63.5233 81.0264 62.866C80.8269 61.9562 81.6615 61.8868 82.4258 61.4801C82.2802 60.9838 81.941 59.6519 81.6663 59.2789C80.9464 59.3049 80.958 59.3753 80.9291 58.6573C80.9156 57.2859 80.8847 55.8377 80.932 54.4701C81.0572 50.8182 80.9291 49.7149 77.0182 49.817C76.969 48.879 76.8678 48.536 77.4596 47.7704C77.8432 47.2757 77.7362 46.6157 77.7159 46.0022C77.7179 45.7125 77.6784 45.3262 77.82 45.0923C78.7182 44.9941 83.1467 44.8473 83.7076 45.2565C83.9408 45.4272 84.1287 45.6915 84.2954 45.9245Z" fill="#526068"/>
<path d="M84.2954 45.9245C84.4323 47.2479 84.3764 49.0909 84.3764 50.4679L84.3764 58.0569L84.3822 70.8959C84.3831 73.0624 84.387 75.2366 84.3725 77.4041C84.3706 77.7405 84.2887 78.9529 84.0719 79.1861C83.934 79.3355 83.6141 79.5417 83.3779 79.5484C81.5382 79.6034 79.6193 79.5909 77.7795 79.5938L65.646 79.5831L46.5522 79.6381C43.288 79.6468 40.0209 79.6728 36.7566 79.6362C35.6782 79.6236 35.2098 79.6487 34.7058 78.6473L36.2748 78.6695L68.4958 78.7071L77.4576 78.7341C83.4859 78.7485 83.8145 79.2593 83.8039 72.7627L83.7875 66.8704L83.8049 50.0186C83.8059 46.295 82.9703 45.8208 79.255 45.9645C78.7674 45.9834 78.2113 45.9891 77.7159 46.0022C77.7179 45.7125 77.6783 45.3262 77.82 45.0923C78.7182 44.9941 83.1467 44.8473 83.7076 45.2565C83.9408 45.4272 84.1287 45.6915 84.2954 45.9245ZM73.0678 45.0558C73.0283 45.4275 73.0668 45.7115 72.8606 45.9542C72.1994 46.0564 69.2697 45.9789 68.4023 45.9729L59.5811 45.9489L43.0307 45.9453C40.5374 45.9463 37.1528 46.0608 34.7463 45.9356C35.126 45.4427 35.4035 45.1113 36.0599 45.0841C37.4226 45.0276 38.8056 45.0571 40.1693 45.0637C42.6278 45.0814 45.0863 45.0862 47.5439 45.0781L73.0678 45.0558Z" fill="#92A6B3"/>
<path d="M38.5501 51.1395C38.7236 51.9182 38.2321 52.6902 37.4534 52.8618C36.6737 53.0335 35.9037 52.5397 35.7341 51.7599C35.5654 50.9836 36.0569 50.2173 36.8327 50.0464C37.6085 49.8754 38.3767 50.3643 38.5501 51.1395Z" fill="black"/>
<path d="M37.7897 51.1723C37.8656 51.3451 37.8701 51.5409 37.8023 51.717C37.7344 51.8932 37.5996 52.0353 37.4273 52.1125C37.0688 52.2733 36.6477 52.1156 36.4838 51.7589C36.3171 51.3973 36.478 50.9693 36.8404 50.8062C37.2037 50.6431 37.6307 50.8076 37.7897 51.1723Z" fill="#526068"/>
<path d="M38.553 72.9747C38.598 73.2247 38.5758 73.482 38.4886 73.7206C38.4015 73.9591 38.2526 74.1702 38.0572 74.3323C37.8617 74.4945 37.6267 74.6018 37.3762 74.6433C37.1257 74.6849 36.8686 74.6591 36.6313 74.5688C36.3939 74.4785 36.1847 74.3267 36.0253 74.1289C35.866 73.931 35.7621 73.6943 35.7244 73.4431C35.6069 72.6683 36.134 71.9426 36.907 71.8144C37.6808 71.6862 38.4133 72.2028 38.553 72.9747Z" fill="black"/>
<path d="M37.783 72.9208C37.9593 73.2639 37.8341 73.686 37.4977 73.8758C37.1623 74.0667 36.7354 73.9578 36.532 73.6291C36.4636 73.5192 36.4262 73.3929 36.4237 73.2634C36.4211 73.134 36.4536 73.0063 36.5176 72.8938C36.5818 72.7811 36.6752 72.6879 36.788 72.6239C36.9008 72.56 37.0288 72.5277 37.1585 72.5305C37.2881 72.5332 37.4146 72.5709 37.5245 72.6396C37.6344 72.7083 37.7237 72.8054 37.783 72.9208ZM71.1055 4.71423C71.6722 4.85205 72.2591 5.00317 72.5723 5.54605C72.9925 6.27396 72.8191 15.3989 72.7468 16.6639L71.1759 16.6665L45.12 16.6869L37.1903 16.6967C36.1215 16.6999 34.0822 16.654 33.0635 16.7448C32.7474 16.7409 32.7137 16.7569 32.4062 16.6538C32.2096 16.1028 32.3658 12.0733 32.334 11.1765C32.279 9.60843 32.3609 7.77134 32.3908 6.19262C32.4053 5.4409 32.9546 5.11245 33.5675 4.81321C34.0918 4.707 38.7323 4.77601 39.6016 4.7762L55.6711 4.77032L57.4367 4.77003L66.0054 4.75587C67.399 4.7578 69.8016 4.84723 71.1055 4.71423Z" fill="#526068"/>
<path d="M57.4367 4.77003C57.3933 8.72487 57.3808 12.6799 57.402 16.6349L55.6856 16.6354L55.6711 4.77032L57.4367 4.77003ZM71.1055 4.71423C71.6722 4.85205 72.2591 5.00317 72.5723 5.54605C72.9925 6.27396 72.8191 15.3989 72.7468 16.6639L71.1759 16.6665L71.1788 9.09543C71.1797 7.79486 71.2337 5.95207 71.1055 4.71423ZM33.5675 4.81321C33.209 6.69454 33.5627 16.135 33.2572 16.6403L33.0635 16.7448C32.7474 16.7409 32.7137 16.7569 32.4062 16.6538C32.2096 16.1028 32.3658 12.0733 32.334 11.1765C32.279 9.60843 32.3609 7.77134 32.3908 6.19262C32.4053 5.4409 32.9546 5.11245 33.5675 4.81321Z" fill="#92A6B3"/>
<path d="M98.0298 47.7637C98.2691 47.822 98.2617 47.8267 98.4739 47.9569C98.7943 48.5519 98.6511 54.2025 98.6503 55.3029L98.653 67.8023L98.655 73.7245C98.6548 74.5745 98.6726 75.5315 98.6141 76.3854C98.5952 76.662 98.4027 76.715 98.1688 76.8663C97.4433 76.7478 94.9339 76.796 94.0951 76.795C91.1043 76.8143 88.1129 76.8133 85.1224 76.7892C85.1108 67.224 85.0067 57.4044 85.1175 47.86L93.9069 47.8533C94.6702 47.852 97.4096 47.8939 98.0298 47.7637Z" fill="#526068"/>
<path d="M98.0298 47.7637C98.2691 47.822 98.2617 47.8267 98.4739 47.9569C98.7943 48.5519 98.6511 54.2025 98.6503 55.3029L98.653 67.8023L98.655 73.7245C98.6548 74.5745 98.6726 75.5315 98.6141 76.3854C98.5952 76.662 98.4027 76.715 98.1688 76.8663C98.006 76.1618 98.0668 71.7556 98.0666 70.7041L98.0624 56.124C98.0618 54.3179 98.05 52.5119 98.027 50.7061C98.0186 50.0683 97.9541 48.2765 98.0298 47.7637Z" fill="#92A6B3"/>
<path d="M89.3443 61.8242C89.4306 62.1092 89.4394 62.412 89.37 62.7016C89.3006 62.9912 89.1554 63.2571 88.9493 63.472C88.7432 63.687 88.4836 63.8432 88.1972 63.9247C87.9108 64.0062 87.6078 64.01 87.3195 63.9357C87.031 63.8618 86.7675 63.7124 86.556 63.5029C86.3444 63.2933 86.1925 63.0313 86.1157 62.7436C85.8787 61.8579 86.3962 60.9462 87.278 60.6956C88.1589 60.4441 89.0793 60.9472 89.3443 61.8242Z" fill="black"/>
<path d="M88.6466 61.9947C88.7032 62.1528 88.7168 62.3232 88.6862 62.4883C88.6555 62.6534 88.5816 62.8074 88.4719 62.9347C88.3623 63.0619 88.2209 63.1579 88.0622 63.2127C87.9034 63.2675 87.7329 63.2792 87.5682 63.2466C87.4034 63.2141 87.2502 63.1384 87.1243 63.0273C86.9983 62.9163 86.9041 62.7738 86.8511 62.6144C86.6863 62.121 86.9504 61.5861 87.4419 61.4165C87.9344 61.2468 88.4712 61.5051 88.6466 61.9947Z" fill="#526068"/>
<path d="M89.3416 73.2812C89.5893 74.1544 89.0872 75.0632 88.2169 75.3176C87.3466 75.572 86.433 75.0776 86.1718 74.2093C85.9068 73.3313 86.4079 72.4052 87.2888 72.1469C88.1697 71.8896 89.092 72.3984 89.3416 73.2812Z" fill="black"/>
<path d="M88.66 73.4981C88.7911 73.9925 88.5 74.5003 88.0075 74.6382C87.5151 74.776 87.0024 74.4926 86.8578 74.0021C86.7624 73.6783 86.8482 73.3284 87.0833 73.0865C87.1987 72.9675 87.3437 72.8812 87.5033 72.8365C87.663 72.7918 87.8317 72.7903 87.9921 72.8321C88.1523 72.8742 88.2986 72.958 88.4159 73.075C88.5332 73.192 88.6174 73.3379 88.66 73.4981Z" fill="#526068"/>
<path d="M96.8515 50.332C96.9183 50.5399 96.9429 50.7591 96.924 50.9766C96.9051 51.1942 96.843 51.4058 96.7414 51.5991C96.6397 51.7924 96.5006 51.9634 96.332 52.1023C96.1635 52.2412 95.9689 52.345 95.7598 52.4078C95.5506 52.4706 95.3311 52.4911 95.1139 52.468C94.8968 52.445 94.6864 52.3789 94.4951 52.2735C94.3038 52.1682 94.1354 52.0258 93.9998 51.8546C93.8642 51.6835 93.764 51.487 93.7052 51.2767C93.465 50.4149 93.9585 49.5194 94.8153 49.2621C95.672 49.0048 96.5773 49.4805 96.8515 50.332Z" fill="black"/>
<path d="M96.1732 50.5774C96.2083 50.6926 96.2203 50.8135 96.2085 50.9332C96.1968 51.053 96.1616 51.1693 96.105 51.2754C96.0483 51.3816 95.9713 51.4756 95.8784 51.552C95.7854 51.6284 95.6783 51.6858 95.5631 51.7208C95.448 51.7558 95.3271 51.7678 95.2073 51.7561C95.0876 51.7443 94.9713 51.7092 94.8651 51.6525C94.7589 51.5959 94.665 51.5188 94.5886 51.4259C94.5122 51.3329 94.4548 51.2258 94.4198 51.1107C94.3491 50.8781 94.3736 50.6271 94.4881 50.4126C94.6025 50.1982 94.7974 50.038 95.0299 49.9673C95.2624 49.8966 95.5135 49.9212 95.7279 50.0356C95.9423 50.15 96.1025 50.3449 96.1732 50.5774Z" fill="#526068"/>
<path d="M89.3309 50.4283C89.5516 51.2974 89.0312 52.1819 88.1648 52.4125C87.2984 52.6431 86.4079 52.1339 86.1669 51.2703C86.0892 50.9913 86.0869 50.6967 86.1602 50.4165C86.2335 50.1363 86.3798 49.8805 86.5842 49.6753C86.7885 49.47 87.0436 49.3226 87.3235 49.2481C87.6034 49.1736 87.898 49.1747 88.1773 49.2514C88.4565 49.328 88.7104 49.4773 88.9131 49.684C89.1158 49.8908 89.2599 50.1476 89.3309 50.4283Z" fill="black"/>
<path d="M88.6573 50.5877C88.7421 50.9139 88.6438 51.2604 88.4009 51.4939C88.2816 51.6086 88.1339 51.6894 87.9729 51.7279C87.812 51.7664 87.6437 51.7612 87.4854 51.713C87.327 51.6649 87.1844 51.5754 87.0722 51.4537C86.96 51.332 86.8824 51.1825 86.8474 51.0207C86.7954 50.7827 86.8389 50.5338 86.9684 50.3274C87.098 50.121 87.3033 49.9737 87.5403 49.9171C88.0328 49.7993 88.5291 50.0973 88.6573 50.5877Z" fill="#526068"/>
<path d="M96.9395 73.5231C97.0426 74.4146 96.4075 75.2231 95.5167 75.333C94.6259 75.4429 93.813 74.8145 93.6957 73.925C93.5771 73.0248 94.2145 72.2008 95.1152 72.089C96.0159 71.9772 96.8351 72.621 96.9395 73.5231Z" fill="black"/>
<path d="M96.1846 73.4132C96.3511 73.8864 96.1043 74.4068 95.6317 74.5764C95.1591 74.747 94.6374 74.5051 94.4631 74.0338C94.2867 73.5568 94.5326 73.0277 95.0109 72.8552C95.4891 72.6827 96.0161 72.9332 96.1846 73.4132Z" fill="#526068"/>
<path d="M28.9637 48.4371L28.9627 50.9528L28.9531 53.3263C28.9194 60.9058 28.9242 68.4856 28.9685 76.0655C24.781 76.1397 19.9266 76.1802 15.7382 76.1127L15.7671 53.3172L15.7594 50.956C15.7295 50.1668 15.7526 49.2893 15.7565 48.4931L28.9637 48.4371Z" fill="#374047"/>
<path d="M28.9636 48.4371L28.9627 50.9528L28.953 53.3263C24.5603 53.2517 20.1598 53.3418 15.767 53.3172L15.7593 50.956C15.7294 50.1668 15.7526 49.2893 15.7564 48.4931L28.9636 48.4371Z" fill="#374047"/>
<path d="M28.9626 50.9528L28.953 53.3262C24.5602 53.2516 20.1598 53.3417 15.767 53.3171L15.7593 50.9559C20.0393 50.8717 24.6518 50.9607 28.9626 50.9528Z" fill="#92A6B3"/>
<path d="M73.8742 17.3993C74.226 17.3944 74.6356 17.3718 74.8871 17.6732C75.1897 18.0368 75.1791 24.5085 75.0124 25.2297C74.9478 25.5116 74.8717 25.7234 74.6963 25.9526C74.3946 26.0196 74.4139 26.0259 74.1142 25.9661C74.1662 25.4889 75.5309 24.6846 74.5536 23.6442C74.2414 23.3114 73.9744 23.074 73.5022 23.0487C72.6502 23.0029 72.0045 23.7543 72.0421 24.5765C72.0749 25.2948 72.4835 25.5707 72.9905 25.9745C67.3082 25.9186 61.6259 25.9109 55.9427 25.9514C48.1971 25.9169 40.4514 25.9224 32.7058 25.9679C34.3673 24.6092 33.3467 22.529 31.4828 23.134L31.5387 20.2874C32.7656 20.5205 33.8893 19.7857 33.5269 18.3597C33.4161 17.9223 32.6798 17.6597 32.275 17.5011C32.7675 17.3324 38.0536 17.4401 38.9711 17.4403L54.3082 17.4152C56.9469 17.4112 59.9827 17.4949 62.5781 17.3959C63.0995 17.4466 64.1375 17.4177 64.6993 17.4175C67.2706 17.4902 70.1339 17.4201 72.7216 17.3893L73.8742 17.3993Z" fill="#374047"/>
<path d="M64.6995 17.4175C64.7718 19.7896 64.7853 23.5198 64.6918 25.8883L62.1388 25.8825C62.1369 24.9504 62.0617 17.8079 62.214 17.5116L62.5783 17.3959C63.0997 17.4466 64.1376 17.4177 64.6995 17.4175Z" fill="#92A6B3"/>
<path d="M73.9389 17.6375C74.5711 17.8974 74.9316 18.5685 74.7996 19.2397C74.7354 19.5651 74.5602 19.8582 74.3041 20.0689C74.0479 20.2795 73.7265 20.3948 73.3948 20.3949C73.0632 20.395 72.7417 20.28 72.4854 20.0696C72.229 19.8591 72.0537 19.5662 71.9893 19.2408C71.9248 18.9154 71.9753 18.5778 72.1321 18.2855C72.2889 17.9932 72.5422 17.7643 72.8489 17.638L72.7217 17.3893L73.8743 17.3993L73.9389 17.6375Z" fill="black"/>
<path d="M73.939 17.6375C73.5897 17.4942 73.1981 17.4944 72.849 17.638L72.7218 17.3893L73.8744 17.3993L73.939 17.6375Z" fill="#201F22"/>
<path d="M74.0293 18.7832C74.0721 18.9528 74.0481 19.1325 73.9622 19.2849C73.8762 19.4373 73.735 19.5509 73.5677 19.6022C73.4671 19.633 73.3608 19.6402 73.257 19.6231C73.1531 19.6061 73.0547 19.5653 72.9692 19.5039C72.8838 19.4425 72.8137 19.3622 72.7644 19.2692C72.7151 19.1763 72.688 19.0732 72.6852 18.968C72.6823 18.8629 72.7038 18.7585 72.748 18.663C72.7921 18.5675 72.8578 18.4835 72.9398 18.4176C73.0218 18.3516 73.1179 18.3056 73.2206 18.2829C73.3234 18.2603 73.4299 18.2617 73.532 18.287C73.6522 18.3167 73.762 18.3785 73.8497 18.466C73.9373 18.5534 73.9994 18.663 74.0293 18.7832Z" fill="#374047"/>
<path d="M57.3952 26.659C57.4772 27.5818 57.4068 29.6643 57.4049 30.6545L57.4068 38.6104L55.6692 38.6103L40.2656 38.6001C39.2257 38.6024 34.0022 38.6882 33.3912 38.5261C32.9594 38.2276 32.4853 37.9162 32.4168 37.3623C32.2723 36.2038 32.3359 34.8249 32.3378 33.6451L32.3465 26.6836C32.8862 26.6137 34.1468 26.6601 34.7385 26.6659C36.2285 26.6816 37.7184 26.6891 39.2084 26.6883L55.7395 26.6623L57.3952 26.659Z" fill="#526068"/>
<path d="M57.3952 26.659C57.4772 27.5818 57.4068 29.6642 57.4049 30.6545L57.4068 38.6103L55.6692 38.6102C55.6846 37.2818 55.568 27.104 55.7395 26.6623L57.3952 26.659ZM32.3465 26.6836C32.786 26.6989 32.9324 26.6895 33.3488 26.8013C33.4336 27.4366 33.3989 30.2752 33.3873 31.0495C33.3526 33.4821 33.475 36.1187 33.3912 38.5261C32.9594 38.2276 32.4853 37.9161 32.4168 37.3623C32.2723 36.2038 32.3359 34.8249 32.3378 33.6451L32.3465 26.6836Z" fill="#92A6B3"/>
<path d="M143.041 50.2735C143.197 51.5253 143.124 53.7609 143.121 55.1121L143.105 63.452L143.106 70.312C143.109 71.2796 143.173 73.2697 143.076 74.1747C142.856 74.4252 142.891 74.3472 142.469 74.4204C141.591 74.3375 140.464 74.3857 139.565 74.3896C137.889 74.3896 136.212 74.379 134.536 74.3558L134.561 57.0518C134.557 56.0581 134.423 51.13 134.567 50.4294C135.06 50.0822 142.026 50.251 143.041 50.2735Z" fill="#526068"/>
<path d="M143.041 50.2735C143.197 51.5253 143.124 53.7609 143.121 55.1121L143.105 63.452L143.106 70.312C143.109 71.2796 143.173 73.2697 143.076 74.1747C142.856 74.4252 142.891 74.3472 142.469 74.4204C142.384 71.5128 142.437 68.6032 142.443 65.6946C142.468 61.1496 142.455 56.6036 142.402 52.059C139.813 52.028 137.144 52.1021 134.585 52.044C134.586 51.5747 134.609 50.879 134.567 50.4294C135.06 50.0822 142.026 50.251 143.041 50.2735Z" fill="#92A6B3"/>
<path d="M140.308 61.723C140.417 62.0281 140.443 62.3569 140.382 62.6752C140.321 62.9936 140.176 63.2897 139.961 63.5329C139.747 63.7758 139.471 63.9568 139.163 64.057C138.855 64.1572 138.526 64.1729 138.21 64.1025C137.893 64.0324 137.602 63.8788 137.365 63.6575C137.129 63.4363 136.956 63.1556 136.864 62.8448C136.588 61.9042 137.11 60.9153 138.042 60.6118C138.973 60.3082 139.978 60.8007 140.308 61.723Z" fill="black"/>
<path d="M139.645 62.0391C139.808 62.6077 139.494 63.2033 138.933 63.3893C138.371 63.5743 137.764 63.2833 137.557 62.7291C137.487 62.5438 137.469 62.3432 137.504 62.1485C137.54 61.9537 137.627 61.7721 137.757 61.6228C137.886 61.4732 138.054 61.3614 138.242 61.2992C138.43 61.2369 138.631 61.2265 138.824 61.2691C139.018 61.312 139.196 61.4061 139.34 61.5416C139.484 61.6771 139.59 61.8489 139.645 62.0391Z" fill="#526068"/>
<path d="M80.2015 68.1897C80.1533 69.8541 80.1851 71.5262 80.1282 73.2128C79.7485 73.7342 79.7495 73.7448 79.1934 74.1177C76.5884 74.216 73.7 73.9684 71.0719 74.1409C70.1554 74.2016 68.7454 75.5402 68.038 75.627C66.0064 75.8747 63.1306 75.7012 61.0422 75.7291C61.7361 73.4923 62.802 71.2525 63.279 68.9636C63.5161 67.8235 63.493 56.9486 63.2617 55.8017C63.0747 54.8747 62.7017 53.9517 62.402 53.0523C61.9481 51.6855 61.5057 50.3148 61.0749 48.9405C63.1277 48.9268 66.043 48.7694 68.0274 49.1212C68.6047 49.2237 69.4094 49.7782 69.9163 50.1141C71.0295 50.7844 72.5483 50.5841 73.8735 50.5557L73.8696 54.8115C73.7848 54.5283 73.6913 54.0333 73.4388 53.9003C72.9223 53.6274 71.6723 54.0372 71.0767 54.189C71.0622 54.7508 71.1297 55.1727 71.201 55.7244L70.2479 56.3C69.5193 55.5657 69.1068 55.0184 68.1488 55.8673C67.1436 56.7587 67.3749 57.2618 68.0727 58.1427L67.6188 58.9368C65.5284 58.4385 65.6325 59.303 65.3308 61.11C65.9168 61.4551 66.7244 61.5187 66.9094 62.1943C66.708 62.9595 65.7221 62.9315 65.3106 63.4664C65.2682 64.0919 65.6624 65.1163 65.8734 65.7264C66.3389 65.6984 66.8468 65.6088 67.3123 65.5394L67.8038 66.507C67.3258 67.0169 67.2391 67.0968 66.8998 67.7117C67.4549 68.316 67.9522 68.9241 68.6307 69.379L69.7583 68.4336L70.7317 68.9839C70.244 70.9297 71.096 70.7812 72.6958 71.1552C72.9589 70.736 73.2326 70.0681 73.4427 69.6036C74.8459 69.1978 74.3756 70.4064 75.1379 70.9538C75.615 71.0877 76.412 70.7678 76.8592 70.6068C77.6283 70.3119 77.0375 69.0677 77.2707 68.6119C77.5405 68.0847 78.8079 69.0899 79.0469 69.2556C79.549 68.9472 79.8034 68.6205 80.2015 68.1897ZM133.819 60.9655L133.8 65.4806C130.568 65.5915 127.167 65.5356 123.921 65.5327L109.56 65.5481C107.721 65.551 105.661 65.4932 103.85 65.5404C103.847 64.0591 103.876 62.4525 103.839 60.9828L103.834 59.1459L133.81 59.1305L133.819 60.9655Z" fill="#374047"/>
<path d="M133.81 59.1305L133.819 60.9655C123.902 60.9645 113.733 60.8546 103.839 60.9828L103.834 59.1459L133.81 59.1305Z" fill="#92A6B3"/>
<path d="M57.3952 26.659C58.8649 26.6635 72.5415 26.5999 72.8055 26.7377L72.7949 33.6931C72.7949 34.7985 72.8479 36.4457 72.7554 37.4788C72.3179 38.1674 72.0162 38.4997 71.1951 38.6542C66.8091 38.5087 61.8256 38.5995 57.4068 38.6104L57.4049 30.6545C57.4068 29.6643 57.4771 27.5818 57.3952 26.659Z" fill="#526068"/>
<path d="M72.8055 26.7376L72.7949 33.6931C72.7949 34.7985 72.8479 36.4457 72.7554 37.4788C72.3179 38.1674 72.0162 38.4997 71.1951 38.6542C71.0968 34.8337 71.1816 30.5924 71.1807 26.7324C71.7136 26.7228 72.2707 26.7341 72.8055 26.7376Z" fill="#92A6B3"/>
<path d="M81.5825 61.0089C81.5266 61.271 80.5292 61.5399 80.2526 61.6411L80.2352 63.4953L81.4784 64.0437L81.0746 65.2763L79.841 64.966C79.0469 66.2468 78.6354 66.4376 79.9027 67.492L79.0074 68.4037L77.8441 67.5488C77.2765 67.9045 76.8197 68.155 76.3503 68.636L76.6096 70.0074C76.1894 70.1596 75.8039 70.2261 75.3673 70.3177C75.2093 69.8532 75.0493 69.3886 74.8854 68.926C74.2012 68.9357 73.6133 68.9328 72.93 68.9019C72.7421 69.3655 72.5773 69.8695 72.4125 70.3427L71.2328 70.017C71.3311 69.6016 71.3909 69.0754 71.4516 68.6456C70.9206 68.2755 70.2797 67.889 69.7275 67.5373L68.6779 68.474L67.8115 67.5652C68.0824 67.2192 68.4168 66.8549 68.7088 66.5196C68.3676 65.9606 68.0313 65.3457 67.7055 64.7742L66.3601 65.0277L66.0353 63.8789C66.2329 63.6331 67.081 63.3816 67.4289 63.2544C67.4039 62.574 67.427 61.9244 67.4463 61.245C67.0097 61.0628 66.524 60.8903 66.0787 60.7217L66.5288 59.4167L67.7817 59.8128C68.3339 59.1941 68.5546 58.797 68.9815 58.0877C68.6808 57.7523 68.3821 57.3717 68.0958 57.0199C68.3927 56.6999 68.7502 56.406 69.0818 56.1183C69.4123 56.4551 69.7843 56.8011 70.1255 57.1307C70.7548 56.7799 71.3283 56.4975 71.9778 56.1843C71.9344 55.718 71.8622 55.2223 71.8024 54.755C72.1735 54.6536 72.611 54.5983 72.9955 54.538L73.3454 55.9506C74.0364 55.9545 74.4759 55.9712 75.1601 56.0443C75.4782 55.4722 75.5408 55.2872 75.7451 54.6758L76.9324 55.0012C76.8312 55.5074 76.6896 56.0649 76.571 56.5727C77.0519 56.9707 77.5425 57.2165 78.088 57.5182C78.5188 57.1982 78.6739 57.044 79.0527 56.6643C79.3861 56.9158 79.7389 57.2435 80.0559 57.523C79.7581 57.9065 79.4555 58.2872 79.1481 58.6631L79.9731 60.128C80.4 60.0605 80.8077 60.0133 81.2365 59.9632L81.5825 61.0089Z" fill="#526068"/>
<path d="M78.3758 61.8878C78.6745 64.4407 76.8434 66.7508 74.2895 67.0419C71.7365 67.333 69.4312 65.4951 69.1479 62.9402C68.8646 60.3969 70.6937 58.1031 73.2371 57.8131C75.7804 57.523 78.0789 59.3454 78.3758 61.8878Z" fill="black"/>
<path d="M77.5547 61.5495C78.0481 63.6485 76.7423 65.7495 74.6413 66.2352C72.5403 66.72 70.4451 65.4064 69.9681 63.3035C69.4929 61.2121 70.7988 59.1314 72.8882 58.6486C74.9767 58.1648 77.0632 59.4629 77.5547 61.5495Z" fill="#374047"/>
<path d="M76.6874 61.4608C76.938 62.201 76.8975 63.0095 76.5737 63.7208C76.3144 64.2922 75.8865 64.7706 75.3475 65.0919C74.8085 65.4131 74.1841 65.5619 73.5582 65.5182C72.2764 65.4286 71.1844 64.5525 70.8201 63.3208C70.345 61.7133 71.2432 60.02 72.8411 59.514C74.44 59.0071 76.1497 59.8725 76.6874 61.4608Z" fill="black"/>
<path d="M76.0177 61.7876C76.3916 63.0395 75.6785 64.3569 74.4256 64.727C73.1727 65.0971 71.8572 64.3791 71.491 63.1243C71.1276 61.8762 71.8418 60.5694 73.0879 60.2012C74.335 59.8321 75.6447 60.5424 76.0177 61.7876ZM133.796 69.5322C133.825 70.6733 133.803 71.9021 133.802 73.0499C124.02 73.2802 113.686 73.075 103.851 73.1058C103.871 71.9214 103.86 70.7012 103.863 69.5129C113.719 69.7221 123.909 69.3183 133.796 69.5322Z" fill="#374047"/>
<path d="M133.813 52.6791L133.787 55.0799L103.853 55.0992L103.85 52.7269C103.845 52.3941 103.791 51.8994 103.973 51.6551C104.85 51.5677 106.557 51.62 107.515 51.6217L114.072 51.6277C115.996 51.6271 133.031 51.4373 133.728 51.6919C133.885 51.9864 133.819 52.3035 133.813 52.6791Z" fill="#374047"/>
<path d="M103.85 52.7269C103.845 52.3941 103.791 51.8994 103.973 51.6551C104.85 51.5677 106.557 51.62 107.515 51.6217L114.072 51.6277C115.996 51.6271 133.031 51.4373 133.728 51.6919C133.885 51.9864 133.819 52.3035 133.813 52.6791C123.949 52.8587 113.766 52.6497 103.85 52.7269Z" fill="#92A6B3"/>
<path d="M160.428 59.1083C159.992 59.7993 159.756 60.2417 159.485 61.006C159.188 63.0674 159.326 63.6707 160.27 65.4961C157.188 65.5867 154.105 65.6117 151.022 65.5693C148.679 65.5606 146.187 65.5915 143.854 65.5115L143.852 61.0281L143.847 59.1421C149.374 59.1594 154.901 59.1488 160.428 59.1083Z" fill="#374047"/>
<path d="M160.428 59.1083C159.992 59.7993 159.756 60.2417 159.485 61.006C154.274 60.9703 149.063 60.977 143.852 61.0281L143.847 59.1421C149.374 59.1594 154.901 59.1488 160.428 59.1083Z" fill="#92A6B3"/>
<path d="M102.314 49.5822C102.529 49.683 103.065 49.9348 103.066 50.2183C103.1 58.3402 103.237 66.5523 103.007 74.6516C103.002 74.8521 102.325 75.0323 102.155 75.0757C101.472 74.9851 100.121 75.013 99.3846 75.0072C99.3995 66.5812 99.4793 58.0279 99.3949 49.6153C100.364 49.6151 101.347 49.6266 102.314 49.5822Z" fill="#526068"/>
<path d="M102.314 49.5822C102.529 49.683 103.065 49.9348 103.066 50.2183C103.1 58.3402 103.237 66.5523 103.007 74.6516C103.002 74.8521 102.325 75.0323 102.155 75.0757C102.066 73.5308 102.117 71.5724 102.115 70.0025L102.111 61.0791L102.095 53.9532C102.09 52.7157 102.077 51.4447 102.103 50.2072C102.111 49.7956 102.1 49.8319 102.314 49.5822Z" fill="#92A6B3"/>
<path d="M80.796 80.3648L80.7931 84.3817C80.7989 85.3425 80.9849 86.7901 80.3835 87.5688C79.9286 87.8232 79.4024 87.7577 78.8666 87.7529C77.3217 87.6324 75.7537 87.6979 74.2059 87.7191C73.5264 87.7278 72.7593 87.802 72.0876 87.6873C71.8216 87.6411 71.6047 87.5534 71.4014 87.3732C70.6265 86.6899 71.0188 81.5261 71.0361 80.3465C73.617 80.3195 76.1989 80.3802 78.7808 80.3359C79.4525 80.3243 80.1262 80.2877 80.796 80.3648Z" fill="#374047"/>
<path d="M80.796 80.3647L80.7931 84.3816C80.7989 85.3425 80.9849 86.7901 80.3835 87.5688C79.9286 87.8232 79.4024 87.7576 78.8666 87.7528C78.697 87.4358 78.7818 81.2292 78.7827 80.3994C79.467 80.3994 80.1127 80.4004 80.796 80.3647Z" fill="#92A6B3"/>
<path d="M165.506 51.626L165.228 52.7759C165.25 53.613 165.297 54.062 165.422 54.8938L143.856 54.8895L143.85 52.7643L143.875 51.6221L165.506 51.626Z" fill="#374047"/>
<path d="M165.506 51.626L165.228 52.7759C160.082 52.6639 154.832 52.8339 149.68 52.7701C147.882 52.7479 145.601 52.8503 143.85 52.7643L143.875 51.6221L165.506 51.626Z" fill="#92A6B3"/>
<path d="M10.2641 49.5699L10.267 74.9562C9.84488 74.3201 9.31868 73.7265 8.82428 73.1415C8.19784 72.3714 7.57622 71.5985 6.95846 70.8227C6.86691 68.8518 6.91991 66.5543 6.91894 64.5651C6.90353 61.0002 6.91894 57.4353 6.9652 53.8712C8.03111 52.4061 9.204 51.0557 10.2641 49.5699ZM165.508 72.9121L165.454 72.995C165.032 73.0962 160.539 73.0538 159.871 73.0547C154.529 73.0355 149.186 73.0441 143.844 73.0798L143.853 70.0189L143.913 69.8782C144.349 69.7722 149.045 69.8146 149.827 69.8146L165.468 69.8194C165.151 71.1456 165.193 71.6322 165.508 72.9121Z" fill="#374047"/>
<path d="M167.498 58.5928C169.161 59.7782 169.868 61.9032 169.246 63.849C168.624 65.7948 166.817 67.1161 164.774 67.119C162.731 67.121 160.921 65.8026 160.295 63.8577C159.67 61.9129 160.372 59.7868 162.033 58.5976C163.666 57.4285 165.862 57.4257 167.498 58.5928Z" fill="#526068"/>
<path d="M167.498 58.5928C166.354 58.3287 165.105 57.9991 163.929 58.2053C163.381 58.3017 162.523 58.6438 162.033 58.5976C163.666 57.4285 165.862 57.4257 167.498 58.5928Z" fill="#92A6B3"/>
<path d="M168.192 60.714C168.176 61.9293 168.179 63.1445 168.126 64.3579L164.715 66.2497C163.626 65.6927 162.374 64.9709 161.426 64.2085L161.332 63.9088C161.379 62.8275 161.367 61.7124 161.371 60.6282C162.36 59.89 163.616 59.2047 164.688 58.5417C165.516 58.9792 167.737 60.0528 168.192 60.714Z" fill="black"/>
<path d="M167.491 60.9307C167.437 61.8656 167.461 62.9613 167.459 63.9097C166.512 64.4272 165.649 64.9457 164.676 65.4584C163.863 65.0141 162.864 64.3405 162.065 63.8345C162.016 63.528 162.05 61.429 162.052 60.9394C162.774 60.4518 163.968 59.7829 164.747 59.3184C165.658 59.861 166.573 60.3987 167.491 60.9307ZM177.869 58.6447C179.501 59.8157 180.188 61.908 179.567 63.8181C178.946 65.7283 177.16 67.0178 175.151 67.0052C173.143 66.9937 171.373 65.683 170.775 63.7651C170.177 61.8473 170.889 59.7636 172.536 58.612C172.978 58.3025 173.472 58.0732 173.994 57.9344C174.652 57.7592 175.341 57.732 176.011 57.8549C176.681 57.9777 177.316 58.2474 177.869 58.6447Z" fill="#526068"/>
<path d="M177.869 58.6447C177.101 58.6794 176.27 58.293 175.211 58.2843C174.662 58.2708 174.48 58.1561 173.994 57.9344C174.652 57.7592 175.341 57.732 176.011 57.8549C176.681 57.9777 177.315 58.2474 177.869 58.6447Z" fill="#92A6B3"/>
<path d="M175.211 58.2843C174.564 58.3691 172.844 58.8201 172.535 58.612C172.978 58.3025 173.472 58.0732 173.994 57.9344C174.481 58.1561 174.663 58.2708 175.211 58.2843Z" fill="#8C8F97"/>
<path d="M178.609 60.5587C178.624 61.6805 178.633 63.2052 178.539 64.3038C177.414 64.9226 176.3 65.5606 175.196 66.2178C174.247 65.8227 172.592 64.8898 171.878 64.193C171.833 63.1175 171.876 61.7277 171.881 60.63C172.563 60.0248 174.273 59.0591 175.124 58.557C175.904 58.877 177.944 60.0267 178.609 60.5587Z" fill="black"/>
<path d="M177.91 60.8845C177.858 61.9147 177.871 62.8158 177.899 63.8412L175.121 65.4333C174.261 64.9505 173.37 64.4725 172.56 63.9135C172.571 62.9074 172.568 61.9022 172.551 60.897C173.389 60.3795 174.35 59.8658 175.216 59.3791C176.107 59.8937 177.005 60.3949 177.91 60.8845Z" fill="#526068"/>
<path d="M33.9288 50.7891C34.0773 51.2763 33.9568 55.2508 33.9568 56.109L33.9597 69.112C33.9578 71.4202 33.8999 73.8007 33.951 76.0973L31.6322 76.1166L31.6342 74.0946L31.638 56.8676C31.6351 54.0333 31.5677 51.3313 31.611 48.4836L33.9279 48.4827L33.9288 50.7891Z" fill="#374047"/>
<path d="M33.9008 50.9693L33.9172 53.2941C33.2031 53.2659 32.4514 53.2912 31.7343 53.3036C31.6177 52.7924 31.6573 51.526 31.6573 50.9453C32.3955 50.94 33.1597 50.9599 33.9008 50.9693Z" fill="#92A6B3"/>
<path d="M6.16895 51.7695C6.32219 52.7594 6.16029 55.3649 6.16703 56.5438C6.18824 60.0085 6.18727 63.4731 6.1651 66.9378C6.15739 68.7708 6.08703 71.107 6.18148 72.9179L3.12737 72.9121C3.14761 66.5764 3.07148 60.1916 3.14183 53.8622L3.15146 51.8026C4.15762 51.8064 5.16376 51.7954 6.16895 51.7695Z" fill="#374047"/>
<path d="M6.16895 51.7695C6.10534 52.4798 6.12558 53.1369 6.13618 53.8489L3.14182 53.8622L3.15146 51.8026C4.15761 51.8064 5.16376 51.7954 6.16895 51.7695Z" fill="#92A6B3"/>
<path d="M174.641 52.6534C175.026 55.0293 173.415 57.2686 171.04 57.6598C168.665 58.0511 166.422 56.4455 166.025 54.0717C165.627 51.6894 167.239 49.4365 169.622 49.0441C172.005 48.6518 174.254 50.2691 174.641 52.6534Z" fill="#526068"/>
<path d="M173.709 51.6267C173.842 55.4124 174.047 55.477 170.332 57.0536C169.601 56.8127 167.626 55.6544 167.057 55.0947C166.966 54.0425 167.01 52.676 167.015 51.5985C167.854 50.84 169.373 50.0775 170.395 49.6038C171.319 50.0235 173.037 50.9189 173.709 51.6267Z" fill="black"/>
<path d="M173.045 51.8806C173.009 52.9327 172.99 53.7439 173.037 54.8021C172.152 55.354 171.237 55.8579 170.298 56.3115C169.392 55.8394 168.582 55.3171 167.729 54.7619C167.725 53.8089 167.707 52.8562 167.674 51.9036C168.434 51.3973 169.537 50.8098 170.351 50.3459C171.266 50.8519 172.149 51.337 173.045 51.8806ZM174.617 70.6261C175.024 72.9767 173.456 75.2155 171.107 75.6347C168.758 76.0539 166.512 74.4984 166.079 72.1517C165.644 69.7876 167.215 67.5199 169.581 67.0968C171.948 66.6738 174.207 68.2572 174.617 70.6261Z" fill="#526068"/>
<path d="M173.73 69.6642C173.754 70.8641 173.733 72.0013 173.708 73.2002C172.902 73.8594 171.274 74.6863 170.347 75.1354C169.384 74.7596 167.754 73.8421 167.074 73.0701C167.047 71.9589 166.998 70.7851 167.03 69.6796C167.798 68.9048 169.329 68.1589 170.322 67.6384C171.272 68.0605 173.019 68.9838 173.73 69.6642Z" fill="black"/>
<path d="M173.048 69.9226C172.965 70.9104 172.984 71.9069 173.023 72.8967C172.094 73.4219 171.233 73.9115 170.273 74.3838C169.504 73.9713 168.546 73.315 167.797 72.8312C167.683 72.5883 167.726 70.4912 167.718 70.0189C168.468 69.4494 169.49 68.8692 170.316 68.396L173.048 69.9226ZM95.3044 86.393C95.6561 86.393 95.9936 86.3487 96.1372 86.7544C96.4235 87.563 96.3628 88.468 96.0874 89.2688C96.0081 89.4992 95.6651 89.5233 95.4641 89.5705L95.343 89.5628C92.8409 89.4028 74.9622 89.7758 74.41 89.5329C74.3348 89.4992 74.2789 89.4336 74.2144 89.3845C74.0949 89.0722 74.0197 88.9701 74.1055 88.6492C75.048 87.8088 80.1867 89.3758 81.1774 87.696C81.5485 87.0667 81.4174 87.0513 81.534 86.4055C85.7784 86.4113 91.1387 86.5636 95.3044 86.393Z" fill="#526068"/>
<path d="M95.3047 86.393C95.6564 86.393 95.9939 86.3486 96.1375 86.7544C96.4237 87.563 96.3631 88.4679 96.0876 89.2688C96.0083 89.4991 95.6653 89.5232 95.4644 89.5704C95.1572 89.0972 95.2838 87.0801 95.3047 86.393Z" fill="#92A6B3"/>
<path d="M60.4793 41.1135C60.487 42.1804 60.487 43.2472 60.4774 44.314C54.797 44.2815 49.1167 44.28 43.4354 44.3097C43.4181 43.2461 43.4277 42.1822 43.4663 41.1192C49.0936 41.0543 54.8414 41.1143 60.4793 41.1135ZM13.0918 53.2348C13.1439 54.7582 13.0533 56.3 13.0774 57.8169C13.1718 63.8635 12.9598 70.0459 13.1082 76.0819C12.5868 76.0838 11.6163 76.1811 11.1798 75.8506C11.041 75.7455 11.0468 75.4728 11.0458 75.2916C10.9938 67.6732 11.093 60.0509 10.9774 52.4326C10.9745 52.2226 11.0024 51.9838 11.0265 51.7751L11.041 50.9143L13.0774 50.9233L13.0918 53.2348Z" fill="#374047"/>
<path d="M13.0918 53.2348C12.7516 53.378 11.4891 53.3218 11.0438 53.3245C11.0429 52.8546 11.0592 52.2318 11.0265 51.7751L11.0409 50.9142L13.0773 50.9233L13.0918 53.2348Z" fill="#92A6B3"/>
<path d="M15.0424 77.1979L14.9913 77.435C14.6579 77.5911 14.1577 77.5255 13.7693 77.5111C13.8743 72.5507 13.8184 67.3011 13.8136 62.3234C13.856 57.4295 13.8531 52.5343 13.804 47.6397C13.8714 47.0438 14.282 47.0561 14.7966 47.1875C15.079 47.4645 15.0222 48.3549 15.0173 48.7801C14.9904 51.3845 15 53.9878 15.0029 56.592L15.0424 77.1979ZM30.8498 49.8302L30.8633 77.5304C30.4942 77.5439 30.047 77.5304 29.6711 77.5294C29.6952 76.7256 29.6788 75.8592 29.6788 75.0506L29.7058 55.0304L29.7097 49.5213C29.7068 48.8619 29.4996 47.454 29.9776 47.1101C30.3004 47.0797 30.4103 47.045 30.7178 47.1578C30.8903 47.6827 30.8459 49.1747 30.8498 49.8302Z" fill="#374047"/>
<path d="M93.8982 40.7781C93.9571 42.3053 93.9254 43.8891 93.9151 45.4218C92.1391 45.4266 90.0026 45.4876 88.2544 45.3936C88.0433 45.1682 88.1262 45.3035 88.1195 44.893C88.1166 43.6027 88.0568 42.1832 88.1272 40.8941C88.1503 40.6304 88.291 40.4039 88.5213 40.2881C89.0524 40.0373 89.9111 39.9715 90.5096 40.0286C91.668 40.1392 93.1974 39.6895 93.8982 40.7781Z" fill="#526068"/>
<path d="M93.3708 41.9781C93.5604 42.864 93.0007 43.7371 92.1165 43.9348C91.2324 44.1325 90.3544 43.5807 90.1482 42.6984C89.94 41.8046 90.5009 40.9124 91.3962 40.7122C92.2917 40.5119 93.1789 41.0806 93.3708 41.9781Z" fill="black"/>
<path d="M92.6116 42.0781C92.6432 42.1941 92.6516 42.3151 92.6365 42.4343C92.6213 42.5535 92.5828 42.6686 92.5232 42.7729C92.4635 42.8773 92.3839 42.9688 92.2889 43.0424C92.1939 43.1159 92.0853 43.1701 91.9693 43.2017C91.8534 43.2333 91.7324 43.2417 91.6132 43.2266C91.4939 43.2114 91.3789 43.1729 91.2746 43.1133C91.1702 43.0536 91.0787 42.974 91.0051 42.879C90.9315 42.784 90.8774 42.6754 90.8458 42.5594C90.782 42.3253 90.8138 42.0754 90.9342 41.8647C91.0547 41.654 91.2539 41.4997 91.488 41.4359C91.7222 41.3721 91.9721 41.4039 92.1828 41.5243C92.3935 41.6448 92.5478 41.844 92.6116 42.0781Z" fill="#526068"/>
<path d="M67.8742 80.3908C67.8742 81.0066 67.9908 81.554 67.4299 81.9183C66.6319 82.0128 65.3299 81.9723 64.4924 81.9703L59.8606 81.9694L54.2988 81.9742C53.5394 81.9742 51.5627 82.0764 50.9594 81.7911L50.945 80.3638C56.5877 80.3358 62.2314 80.3445 67.8742 80.3908ZM91.3029 79.2709C91.6113 79.2632 91.8667 79.2246 92.1481 79.3403C92.2699 80.3002 92.2664 83.0931 92.1234 84.1359C92.1024 84.2891 91.9679 84.2833 91.7655 84.3595C90.6504 84.1696 88.3567 84.2621 87.1636 84.2853C87.1115 82.7076 87.0595 80.8485 87.1077 79.2767C88.4887 79.2738 89.9267 79.2497 91.3029 79.2709Z" fill="#374047"/>
<path d="M91.3029 79.2709C91.6113 79.2632 91.8667 79.2246 92.1481 79.3403C92.2699 80.3002 92.2664 83.0931 92.1234 84.1359C92.1024 84.2891 91.9679 84.2833 91.7655 84.3595C91.5708 84.265 91.4022 84.24 91.3838 84.0896C91.2084 82.7153 91.2913 80.6452 91.3029 79.2709Z" fill="#92A6B3"/>
<path d="M64.1019 39.3434C64.0846 39.8265 64.1039 39.9811 63.7791 40.2964C63.1555 40.4264 61.1683 40.3916 60.4088 40.3962L51.8035 40.3672L44.1485 40.3963C42.8821 40.4008 41.0587 40.4575 39.8319 40.3451C39.7432 40.0674 39.6208 39.7052 39.7104 39.4344C40.2357 39.3345 41.7401 39.3572 42.3328 39.3522C44.188 39.3366 46.0423 39.336 47.8975 39.3501L64.1019 39.3434ZM87.0555 38.8518C86.6777 39.1246 86.0156 39.7658 85.6176 40.1105C84.5334 41.0497 83.4369 41.9745 82.3283 42.8848C81.5872 41.8421 80.7593 41.0145 80.05 39.9055C81.1448 38.7605 83.4675 36.8817 84.7502 35.8889C85.5154 36.8798 86.2999 37.8531 87.0555 38.8518ZM84.1209 35.2032C83.8771 35.6468 80.0789 38.6298 79.3879 39.1856L77.0913 36.3387C77.4286 35.7465 80.9068 33.0559 81.7279 32.2681C82.5019 33.2655 83.2998 34.2442 84.1209 35.2032ZM81.2239 31.6552C80.848 32.1383 77.0325 35.0731 76.381 35.5177C75.6534 34.6307 74.8651 33.5473 74.1615 32.6234C75.3383 31.4846 77.5028 29.7883 78.8174 28.6572C79.5998 29.6722 80.4021 30.6717 81.2239 31.6552ZM166.395 56.5293L166.295 56.6035C164.479 56.6912 162.317 56.6305 160.46 56.6238L151.351 56.6199L146.414 56.6228C145.922 56.6228 144.388 56.6537 143.98 56.5727C143.783 56.2865 143.857 56.2235 143.85 55.7974C144.255 55.4453 163.682 55.6615 165.81 55.6727C165.995 55.9559 166.203 56.2479 166.395 56.5293ZM166.41 68.1155L165.78 69.0552L143.86 69.0561C143.857 68.7487 143.805 68.3642 143.973 68.1357C145.58 67.9883 149.345 68.0895 151.127 68.0895L166.41 68.1155Z" fill="#374047"/>
<path d="M162.458 67.2212C162.247 67.3648 161.978 67.3494 161.725 67.3494C156.424 67.3532 151.123 67.3272 145.822 67.3474C145.196 67.3494 144.594 67.3609 143.97 67.2935C143.794 67.0573 143.846 66.7065 143.846 66.3875C144.146 66.135 159.534 66.2844 161.073 66.2671C161.61 66.6998 161.863 66.8685 162.458 67.2212ZM162.595 57.3688C162.358 57.577 161.6 58.0463 161.186 58.3875L143.855 58.4058C143.843 58.0039 143.836 57.8863 143.897 57.4941C143.934 57.4603 143.97 57.4266 144.007 57.3919C148.811 57.3524 158.191 57.3042 162.595 57.3688Z" fill="white"/>
<path d="M90.3604 39.3673C90.023 39.4779 89.6636 39.4116 89.3031 39.3798C86.0245 35.2542 82.5 31.3097 79.3987 27.0362C78.727 26.1107 77.7989 25.3271 77.131 24.3927C76.9835 24.1862 77.0279 23.5569 77.0298 23.2909L77.1368 23.2101C77.6813 23.4718 88.8367 37.555 90.3604 39.3673Z" fill="#707880"/>
<path d="M80.13 51.4965C80.2409 52.907 80.1561 55.1619 80.1445 56.6334C79.8457 56.298 79.5624 56.0631 79.227 55.7687C78.7567 56.1033 78.0802 56.7433 77.5347 56.4503C77.3988 56.1548 77.4238 56.1628 77.4672 55.8329C77.6378 55.1387 77.8219 54.9638 77.259 54.4588L77.1453 54.3588C76.887 53.3996 77.0046 51.5975 77.0335 50.5523L79.1181 50.5546C79.6414 50.8909 79.7677 50.9934 80.13 51.4965ZM87.7986 39.5107C87.788 39.7038 87.7215 39.8754 87.6376 40.0482C87.1635 41.0213 87.3871 44.2253 87.3765 45.4155L84.8331 45.4253C84.5209 45.0023 84.4621 44.9353 84.0467 44.6148C83.4781 44.2902 83.3654 44.0277 82.975 43.4935C83.7094 42.7825 87.0498 39.8814 87.7986 39.5107ZM62.745 3.79872L62.6843 3.94685C62.3807 4.03686 60.246 3.99475 59.7362 3.99494C56.6782 4.00487 53.6212 3.99157 50.5642 3.95504C48.1298 3.93972 45.6597 4.0118 43.2204 4.0012C42.8272 3.99947 42.6104 4.04814 42.3781 3.8124C42.7848 3.26287 42.8022 3.23599 43.4941 3.23444C45.0034 3.23117 46.5126 3.25247 48.0218 3.2569L55.7347 3.23579L60.1448 3.22375C60.7944 3.22259 61.5076 3.21286 62.159 3.24861C62.3826 3.26085 62.5976 3.6052 62.745 3.79872ZM76.3338 23.7036C76.3416 24.405 76.3531 25.1063 76.3695 25.8075C76.4177 28.3365 76.011 28.3355 73.5525 28.3349L73.566 26.7228C74.9383 26.7574 75.2169 26.7545 75.905 25.5579C75.8549 23.5061 75.8443 21.4535 75.8741 19.4014C75.8423 17.3082 75.8057 16.5774 73.513 16.6395L73.5158 14.8957C74.229 14.8802 75.3576 14.7578 75.9127 15.1237C76.5112 15.9496 76.3281 17.9494 76.3184 19.0003C76.2943 20.568 76.3001 22.136 76.3338 23.7036Z" fill="#374047"/>
<path d="M75.6967 48.0169C75.9415 48.0305 75.9935 48.0429 76.2344 48.0989C76.4041 48.4053 76.3356 53.1242 76.3376 53.9147C76.1082 54.0968 76.0812 54.0306 75.7121 54.0371L75.4808 54.0461C75.1194 54.444 74.8621 55.1998 74.5113 55.7412C74.545 53.2343 74.4207 50.4699 74.5016 48.038C74.8544 48.0327 75.3584 48.0418 75.6967 48.0169Z" fill="#526068"/>
<path d="M75.6967 48.0169C75.9415 48.0305 75.9935 48.0429 76.2344 48.0989C76.4041 48.4053 76.3356 53.1242 76.3376 53.9147C76.1082 54.0968 76.0812 54.0306 75.7121 54.0371C75.5444 53.598 75.6861 48.7676 75.6967 48.0169Z" fill="#92A6B3"/>
<path d="M76.304 44.1486C76.5931 44.1779 76.7984 44.1412 76.9747 44.2947C76.994 44.7197 77.075 46.8864 76.9593 47.2333C76.6345 47.3051 76.6114 47.3071 76.2789 47.3082C75.4453 47.3036 74.6126 47.2919 73.779 47.2732L73.7693 44.1875C74.5943 44.1753 75.4906 44.2442 76.304 44.1486Z" fill="#526068"/>
<path d="M76.304 44.1486C76.5931 44.1779 76.7984 44.1412 76.9747 44.2947C76.994 44.7197 77.075 46.8864 76.9593 47.2333C76.6345 47.3051 76.6114 47.3071 76.2789 47.3082L76.304 44.1486Z" fill="#92A6B3"/>
<path d="M95.0761 46.1328C95.092 46.4512 95.1567 46.806 94.9972 47.0572C94.1466 47.1535 92.396 47.0995 91.4868 47.097L85.1 47.0982C85.1097 46.7886 85.0827 46.3946 85.2379 46.149C85.9481 46.054 87.7735 46.1125 88.5666 46.1147L95.0761 46.1328ZM94.556 77.6084L94.4719 78.5163C91.482 78.4758 88.0713 78.5587 85.0644 78.5828L85.129 77.5573L91.3133 77.5429C92.1049 77.541 93.8441 77.4928 94.556 77.6084Z" fill="#374047"/>
<path d="M64.1723 82.6787L64.2244 84.2024C63.0611 84.3489 59.6967 84.2737 58.4438 84.2429L58.4554 82.7009L60.3183 82.7182C61.603 82.7134 62.8877 82.6999 64.1723 82.6787Z" fill="#707880"/>
<path d="M64.2244 84.2023C63.0611 84.3488 59.6967 84.2736 58.4438 84.2428L58.4554 82.7008L60.3183 82.7181C60.2605 83.2328 60.2971 83.6299 60.325 84.1406C61.4632 84.1426 63.1353 84.1031 64.2244 84.2023Z" fill="#526068"/>
<path d="M57.8589 1.67896C57.617 2.04875 57.6064 2.06744 57.4994 2.4912L57.0089 2.47356L55.1749 2.48272C54.1995 2.47048 46.9271 2.56001 46.6206 2.36524L46.5984 2.18058C47.0678 1.47743 49.428 1.73292 50.3233 1.72926L56.2783 1.70777L57.8589 1.67896Z" fill="#374047"/>
<path d="M57.8589 1.67896C57.617 2.04875 57.6064 2.06744 57.4994 2.4912L57.0089 2.47356L55.1749 2.48272C55.1691 2.2122 55.144 2.15437 55.2346 1.90592C55.5623 1.72126 55.8321 1.79152 56.2533 1.79335L56.2783 1.70777L57.8589 1.67896Z" fill="#526068"/>
<path d="M57.8588 1.67895C57.6169 2.04874 57.6063 2.06744 57.4994 2.4912L57.0088 2.47356C56.9953 2.0951 57.0628 2.05481 56.8729 1.81995C56.6416 1.80135 56.4855 1.79229 56.2532 1.79335L56.2783 1.70777L57.8588 1.67895ZM78.3337 28.0171C78.1968 28.3553 74.152 31.4392 73.567 31.8682L73.5409 30.7741L73.5621 29.0344C74.3775 29.0053 75.1918 28.9817 76.0072 28.9633C76.4833 28.5921 76.5758 28.519 76.9362 28.0398C76.9497 27.5213 77.0307 27.0504 77.1068 26.5396L78.3337 28.0171ZM13.0966 48.5015C13.1043 49.2973 13.085 50.1246 13.0773 50.9233L11.0409 50.9142C10.9899 48.7029 10.7422 48.5034 13.0966 48.5015ZM92.8966 84.8837C92.8949 85.2991 92.9628 85.3319 92.7822 85.6316C91.6758 85.7578 87.7533 85.6557 86.4494 85.6518C86.4484 85.3801 86.4176 85.2162 86.5583 84.9859C87.2107 84.876 88.8433 84.9358 89.5922 84.9416C90.6938 84.9444 91.7952 84.9252 92.8966 84.8837Z" fill="#374047"/>
<path d="M31.5388 20.2874L31.4829 23.1339C31.0569 23.5423 30.9972 23.6244 30.6946 24.1319C30.7669 24.8138 30.7736 25.3857 31.4164 25.7734L31.4395 25.8471C31.135 25.8757 31.083 25.8374 30.7919 25.7525C30.5548 25.5253 30.5144 25.5046 30.5124 25.1101C30.5066 23.9913 30.4864 22.8555 30.524 21.7373C30.496 21.1953 30.5095 20.6953 30.5211 20.155C30.577 19.7583 30.6098 19.5429 30.7129 19.1583C30.9027 19.7357 31.0598 19.9184 31.5388 20.2874Z" fill="#707880"/>
<path d="M30.6945 24.1319C30.7668 24.8138 30.7735 25.3857 31.4163 25.7734L31.4395 25.847C31.1349 25.8757 31.0829 25.8374 30.7918 25.7525C30.5547 25.5253 30.5143 25.5046 30.5123 25.1101C30.5065 23.9913 30.4863 22.8555 30.5239 21.7372C30.6077 22.3735 30.4275 23.6888 30.6945 24.1319Z" fill="#526068"/>
<path d="M171.759 58.3209C170.691 59.4465 170.484 59.8783 169.984 61.3114C169.807 60.5365 169.734 60.3592 169.378 59.6827C168.894 58.9598 168.521 58.5888 167.914 57.9508C169.641 58.5069 169.962 58.5329 171.759 58.3209ZM171.695 66.4511C169.768 66.2824 169.981 66.1504 167.99 66.8337C168.461 66.3865 168.794 65.9875 169.214 65.4941C169.602 64.9177 169.778 64.406 170.016 63.7641C170.465 65.0546 170.782 65.4921 171.695 66.4511Z" fill="#374047"/>
<path d="M32.8688 18.7838C32.9104 18.9647 32.8789 19.1548 32.7811 19.3126C32.6832 19.4705 32.527 19.5832 32.3464 19.6264C32.1659 19.6696 31.9757 19.6397 31.8171 19.5432C31.6586 19.4467 31.5447 19.2914 31.5002 19.1113C31.4778 19.0211 31.4735 18.9273 31.4875 18.8355C31.5016 18.7436 31.5337 18.6554 31.582 18.576C31.6303 18.4966 31.6938 18.4275 31.7689 18.3728C31.8441 18.3181 31.9293 18.2789 32.0197 18.2573C32.11 18.2357 32.2038 18.2322 32.2954 18.2471C32.3871 18.2619 32.475 18.2947 32.5539 18.3437C32.6328 18.3926 32.7013 18.4567 32.7554 18.5322C32.8094 18.6078 32.8479 18.6933 32.8688 18.7838Z" fill="#526068"/>
<path d="M74.1055 24.4652C74.1217 24.6436 74.0694 24.8214 73.9591 24.9625C73.8488 25.1036 73.6888 25.1974 73.5118 25.2247C73.3348 25.2519 73.1541 25.2105 73.0066 25.109C72.859 25.0076 72.7557 24.8537 72.7177 24.6787C72.6905 24.5533 72.6981 24.4229 72.7397 24.3016C72.7813 24.1802 72.8554 24.0726 72.9538 23.9904C73.0522 23.9081 73.1713 23.8543 73.2981 23.8348C73.4249 23.8153 73.5546 23.8309 73.6731 23.8798C73.7917 23.9287 73.8947 24.0091 73.9709 24.1122C74.0471 24.2154 74.0936 24.3375 74.1055 24.4652Z" fill="#374047"/>
<path d="M32.865 24.3233C32.8976 24.4424 32.898 24.568 32.8661 24.6874C32.8343 24.8067 32.7714 24.9154 32.6838 25.0025C32.5961 25.0895 32.487 25.1518 32.3675 25.1828C32.2479 25.2139 32.1223 25.2127 32.0034 25.1793C31.8558 25.1378 31.726 25.0489 31.6341 24.9263C31.5421 24.8036 31.4931 24.6541 31.4947 24.5008C31.4962 24.3476 31.5482 24.1991 31.6426 24.0783C31.737 23.9575 31.8685 23.8712 32.0169 23.8327C32.1943 23.7867 32.3828 23.8123 32.5415 23.9041C32.7002 23.9959 32.8164 24.1465 32.865 24.3233ZM63.1729 85.0476L63.0524 85.3415C62.5012 85.5767 60.166 85.4389 59.4577 85.4157C59.5068 85.2056 59.4634 85.3059 59.5926 85.117C60.2277 84.9724 62.3855 85.037 63.1729 85.0476ZM91.4897 90.3578L91.3587 90.6643C90.8354 90.8947 88.8616 90.7433 88.1889 90.7144L88.2756 90.4667C88.7537 90.2152 90.8575 90.3299 91.4897 90.3578Z" fill="#526068"/>
<path d="M2.43156 69.962C2.44216 70.2752 2.4518 70.3273 2.3959 70.6453C2.03546 71.0019 2.24267 70.8814 1.74538 71.0135C1.47553 70.9248 1.58153 71.0086 1.39938 70.7928C1.38974 70.201 1.32422 70.1923 1.63647 69.7461C2.05667 69.5649 2.17424 69.509 2.43156 69.962ZM2.36699 53.6785C2.3853 54.0393 2.44988 54.4417 2.30146 54.7568C1.97186 54.9426 1.84753 54.8693 1.40517 54.8713C1.39842 54.5363 1.35024 54.1318 1.49287 53.8476C1.75019 53.6446 2.02389 53.6879 2.36699 53.6785Z" fill="#374047"/>
<path d="M30.5934 17.7008C30.9268 17.4408 31.1947 17.4193 31.5928 17.4375C31.3856 17.9561 30.9557 17.9756 30.7244 18.7869L30.7129 19.1583C30.6098 19.543 30.577 19.7584 30.5211 20.155C30.5057 19.471 30.4527 18.3252 30.5934 17.7008Z" fill="url(#paint0_linear_3254_9251)"/>
<path d="M30.7244 18.7869L30.7128 19.1583C30.6097 19.5429 30.5769 19.7583 30.521 20.155C30.5056 19.4709 30.4526 18.3251 30.5933 17.7008C30.6212 18.1289 30.6405 18.3679 30.7244 18.7869Z" fill="#8C8F97"/>
<path d="M57.8587 1.67893C58.2876 1.67488 58.5275 1.65715 58.8167 2.01489C58.6779 2.62427 58.0033 2.50187 57.4992 2.49118C57.6062 2.06742 57.6168 2.04872 57.8587 1.67893Z" fill="#526068"/>
<defs>
<linearGradient id="paint0_linear_3254_9251" x1="31.3335" y1="18.0962" x2="30.7765" y2="17.8341" gradientUnits="userSpaceOnUse">
<stop stop-color="#6F7074"/>
<stop offset="1" stop-color="#868788"/>
</linearGradient>
</defs>
</svg>
