<svg width="124" height="110" viewBox="0 0 124 110" fill="none" xmlns="http://www.w3.org/2000/svg">
<g clip-path="url(#clip0_3252_8769)">
<mask id="mask0_3252_8769" style="mask-type:luminance" maskUnits="userSpaceOnUse" x="0" y="8" width="124" height="94">
<path d="M0.274658 69.0885L105.064 8.5885L123.725 40.9115L18.9363 101.411L0.274658 69.0885Z" fill="white"/>
</mask>
<g mask="url(#mask0_3252_8769)">
<path d="M9.98946 63.9065C8.60774 63.7081 6.92339 65.5585 6.99186 66.9328C7.00569 67.6756 6.96416 68.426 7.11914 69.1567C7.18839 69.4838 7.59157 70.1977 7.58879 70.4795C7.56635 72.5993 7.17178 74.8416 7.50272 76.9402C7.87973 79.339 8.67274 81.2592 9.89524 83.3116C9.51145 83.4956 9.24779 83.6638 8.88755 83.8899C9.17232 84.4554 9.48234 84.9743 9.80308 85.519C10.6799 85.0271 11.5533 84.5291 12.4231 84.0251C12.9066 84.4917 13.4619 85.0213 14.0054 85.4124C13.1132 85.933 11.7507 86.2713 12.1626 87.4411C12.423 88.0943 12.6619 88.4347 13.3174 88.743C13.8336 88.4763 16.2218 86.9758 16.5386 86.9346C16.8249 87.1197 17.2585 87.2628 17.5906 87.3818C20.1687 88.311 23.8497 88.1696 26.5062 87.6479C28.0086 87.3533 30.5412 86.5098 31.9526 85.9264C32.5407 87.0473 33.7147 89.1423 34.6224 89.9487C35.013 90.4085 35.4849 90.7923 36.0136 91.0821C36.249 90.96 36.5854 90.7985 36.7942 90.6522L36.9374 90.6029C37.9761 89.8927 40.3661 88.6074 41.5521 87.9212L51.1708 82.3763L54.0389 80.7377C54.4707 80.4912 55.3619 80.0073 55.7131 79.7065C55.8583 79.633 55.8117 79.6607 55.9133 79.5116C56.0226 78.816 55.4821 77.7871 55.1927 77.1257C55.5189 76.9443 56.6661 76.3751 56.76 76.0936C56.593 75.5755 56.3597 75.0053 56.1568 74.4948C56.7992 74.1351 59.1804 72.9006 59.6772 72.2885C59.7973 72.1413 59.5236 71.5987 59.4248 71.3818C59.1257 70.8927 59.1524 70.219 58.7887 69.483C58.9927 69.4139 59.9592 68.858 60.1901 68.7295C60.1375 68.2024 59.4983 67.2591 59.4136 66.7825C59.615 66.6522 59.53 66.6735 59.7466 66.6611C60.0234 66.9441 60.2998 67.506 60.5363 67.8338C61.2067 68.7626 62.2862 70.6467 63.0336 71.408C63.0881 71.3835 63.1415 71.3573 63.194 71.3293C64.1509 70.8039 65.3357 70.1664 66.2334 69.5203C66.5415 69.2979 66.1073 68.6783 65.9481 68.3761C65.2255 67.0005 64.4796 65.6002 63.7145 64.2486L87.4362 50.5028L87.9068 50.7942C88.8449 50.2483 89.8376 49.6752 90.7239 49.0565C90.7374 48.7609 90.7013 48.5273 90.6644 48.2358L102.926 41.1554C104.048 41.9241 104.861 41.3008 104.883 40.0338L108.538 37.9192C109.747 38.6943 110.678 37.9453 110.78 36.6284C111.74 36.0829 112.781 35.4152 113.776 34.9189C113.934 34.8395 114.008 34.9084 114.153 34.9777C114.992 35.4664 115.733 35.0188 116.075 34.1716C116.1 34.1132 116.276 33.4947 116.274 33.4827C117.131 33.0747 116.343 32.0133 115.971 31.5304C116.207 31.4057 116.804 31.1417 116.859 30.893C116.998 30.2578 116.338 29.2594 115.754 29.0619C115.536 29.0467 115.249 29.2516 115.047 29.3684C114.754 28.8045 114.54 28.4282 114.201 27.888C114.35 27.8138 114.691 27.6578 114.77 27.5225C115.225 26.7402 114.35 25.8685 113.785 25.4946L112.841 26.033C112.661 25.2185 112.237 24.0556 111.211 24.6882C109.938 24.0076 108.777 24.5538 108.833 26.0591C108.593 26.2001 108.354 26.3424 108.115 26.486C107.351 26.8828 106.503 27.3976 105.749 27.8333C105.396 27.6717 105.075 27.486 104.68 27.5437C103.624 27.6958 103.363 28.2344 103.42 29.1822L99.8762 31.2262C99.6931 31.1137 99.5561 31.0162 99.3482 30.9582C98.7106 30.6737 98.3642 31.0405 97.8374 31.4044C97.7814 31.6119 97.6982 31.8435 97.7324 32.0496C97.7488 32.1799 97.7438 32.3119 97.7176 32.4405C96.7714 33.1182 94.754 34.187 93.6604 34.8176L85.5956 39.4732C85.3881 39.3066 85.2379 39.1667 84.9835 39.0814C84.5434 39.063 82.5484 40.2489 82.0246 40.5493L81.9537 41.0948L59.8135 53.7739C59.4222 53.0962 58.8393 51.9493 58.3277 51.3209C58.1969 51.1593 57.7678 51.4009 57.6815 51.2706C57.521 51.0276 57.1058 50.2579 56.9695 50.0496C56.4979 49.3362 53.6289 44.0539 53.2736 43.8406C52.8911 43.8404 51.8902 44.3786 51.7074 44.7205C51.8067 45.2707 54.108 49.1916 54.5332 49.8595C54.6145 50.0544 55.0053 50.7096 55.1286 50.9268C54.467 50.7548 54.041 50.542 53.4062 50.939C49.3187 53.4936 45.2127 56.0352 41.058 58.4805L28.1382 65.9398C26.2269 67.0419 24.1059 68.2094 22.242 69.3648C22.3143 69.9354 22.6711 71.023 22.8485 71.6157C23.2056 72.8137 23.5702 74.0099 23.9424 75.2043C21.3732 76.6479 18.7829 78.174 16.2235 79.6441C16.1433 79.5076 15.8796 79.0557 15.7811 78.968C15.4104 78.6343 14.8084 78.4501 14.6087 77.9488C14.4915 77.6543 14.6547 77.264 14.5854 76.9982C14.5248 76.7669 14.1691 76.5781 13.965 76.4582C13.7403 76.027 13.6541 75.8307 13.4989 75.3705C14.3127 74.1311 13.2696 74.269 13.0108 73.1283C12.867 72.494 13.576 72.0895 13.1301 71.5844L13.0728 71.4298C13.4972 71.0332 15.1807 71.1582 14.401 70.1172C13.6944 69.1739 13.7181 68.3636 13.9399 67.2645L14.2334 67.0144C14.4749 66.8054 14.6336 66.6624 14.658 66.3327C14.6887 66.0091 14.5882 65.6869 14.3801 65.4373C13.9186 64.8883 10.7814 64.02 9.98916 63.906M21.0321 84.2416C21.8528 83.8512 24.9772 81.8006 25.5311 81.8846C25.7328 81.9149 25.8694 81.9361 26.0622 81.8533C26.1926 81.7975 26.3293 81.7526 26.462 81.7031C26.7798 81.8526 30.0312 82.0663 30.6398 82.1368C30.7933 83.0721 31.1565 84.0455 31.5105 84.9234C27.1203 86.5816 24.91 87.1563 20.2447 86.8859C20.4936 86.7487 20.7396 86.6073 20.9827 86.4618C22.206 85.7236 21.6565 85.1727 21.0321 84.2416ZM30.0592 79.5491C30.557 80.2765 30.672 80.3853 30.8399 81.2191L30.8447 81.2456C30.2201 81.187 29.5489 81.1116 28.9256 81.0759L27.6239 80.9523L30.0592 79.5491ZM18.529 85.6889C18.6604 85.9008 19.0559 86.4656 19.0146 86.666L18.8995 86.6678C18.6865 86.5419 17.9005 86.2978 17.6394 86.2129C17.9441 86.046 18.2331 85.8687 18.529 85.6889ZM60.7935 59.4155C61.048 59.1219 65.0866 56.8861 65.7553 56.5008L80.1832 48.1729C80.6696 47.8921 83.84 45.9921 84.1011 46.029C84.1962 46.2021 84.1834 46.1233 84.1385 46.3272C83.8399 46.6421 79.96 48.7821 79.3566 49.1298L64.675 57.5854C63.9656 57.9977 61.6068 59.4263 60.9827 59.6879C60.8512 59.59 60.8431 59.5725 60.7935 59.4155ZM24.3456 77.0693C23.4797 78.3568 22.4248 78.6739 22.5716 80.4861C21.6611 81.016 20.7256 81.5749 19.8024 82.078L18.7886 80.3402C20.6065 79.2858 22.5809 78.1834 24.3456 77.0693ZM17.2716 83.5363L15.0786 84.8067L14.6515 84.5076C14.2119 84.1746 13.7772 83.8351 13.3476 83.4892L16.2641 81.7984L17.2716 83.5363ZM27.5927 74.7532C27.8512 75.402 28.0725 75.9804 28.3962 76.6013C27.0963 77.4296 25.7301 78.1454 24.4272 78.9602C23.7841 79.3621 24.2925 79.5454 23.3162 80.0361C23.6461 78.7077 25.9295 76.8041 26.8786 75.7438C27.2277 75.3539 27.3177 75.1101 27.5927 74.7532ZM44.8317 59.5869C47.1131 58.2926 49.3568 56.9173 51.6555 55.652C51.8286 55.5569 51.9475 55.5279 52.1409 55.5692C52.2556 55.7824 52.3772 55.9291 52.3749 56.1479C51.9543 56.0815 50.1148 57.4452 49.5354 57.6386C49.0085 57.8142 48.2826 58.127 47.7702 58.3797C47.6676 58.4306 47.5567 58.2145 47.1567 58.4392C46.1804 58.9875 45.2047 59.5647 44.2408 60.131C44.3175 60.5323 44.3824 60.6916 44.5314 61.0677C43.7945 62.0187 44.0896 62.5045 42.6032 62.6245C42.4987 62.6327 42.2897 62.8931 42.064 62.9066C41.9434 62.7857 41.8933 62.7049 41.728 62.6884C40.9342 63.0543 39.4838 63.9375 38.6903 64.3943L33.1831 67.5696C32.3216 68.0664 31.2566 68.6611 30.3927 69.1765C30.154 69.3192 30.0961 69.9004 29.9456 70.1924C29.8065 70.2935 29.6442 70.3712 29.4604 70.3682C28.984 70.3617 28.7538 70.7504 28.4145 70.9839C27.083 71.9007 26.9248 71.7411 27.2129 73.4224C27.0411 73.687 26.8136 74.1395 26.6574 74.4312C26.2845 73.8069 26.0519 74.0482 25.8232 73.1633C25.6431 72.4637 25.3795 71.6121 25.1154 70.9381L44.8317 59.5869Z" fill="url(#paint0_linear_3252_8769)"/>
<path d="M14.6576 66.3328C14.6884 66.0092 14.5884 65.6867 14.3801 65.4379C13.9191 64.8887 10.7807 64.0195 9.9891 63.9066C8.60789 63.7079 6.92407 65.558 6.99202 66.9326C7.00585 67.6754 6.96432 68.4258 7.1196 69.157C7.18886 69.4841 7.59173 70.1975 7.58926 70.4798C7.56651 72.5991 7.17246 74.8411 7.50288 76.94C7.87989 79.3388 8.6729 81.2589 9.8954 83.3114C10.0848 83.2854 22.8939 75.986 23.9269 75.3118C24.3076 75.0635 22.261 70.2712 22.4528 69.4779C22.4929 69.3101 22.5892 69.2385 22.7213 69.1421C23.24 68.7669 23.8749 68.4747 24.4351 68.1555L27.7443 66.2504L39.0566 59.7151C40.5388 58.8594 42.161 57.9909 43.6057 57.1221L50.4938 52.888C51.6307 52.1844 52.7413 51.4375 53.9054 50.7821C54.3858 50.8245 54.8487 50.9653 55.3142 51.0913C55.1616 50.827 54.7159 49.961 54.5331 49.8587C54.6147 50.0542 55.0049 50.7096 55.128 50.9277C54.4671 50.7546 54.0417 50.5414 53.4069 50.9385C49.3194 53.4931 45.2128 56.035 41.0579 58.4811L28.1383 65.9395C26.227 67.0416 24.106 68.2092 22.2416 69.3649C22.3139 69.9355 22.6707 71.0231 22.8487 71.6155C23.2058 72.8135 23.5705 74.0098 23.9428 75.2046C21.3734 76.6477 18.7826 78.1741 16.2236 79.6438C16.1437 79.5079 15.8801 79.056 15.7812 78.9678C15.4106 78.6341 14.8081 78.4502 14.6089 77.9486C14.4922 77.6538 14.6549 77.2638 14.5855 76.9979C14.525 76.7667 14.1692 76.5779 13.9652 76.458C13.7402 76.0262 13.6543 75.8305 13.4988 75.3697C14.3128 74.1309 13.2706 74.269 13.0109 73.1281C12.8671 72.4938 13.5767 72.089 13.1308 71.5839L13.0735 71.4293C13.4979 71.0327 15.1808 71.1579 14.4012 70.117C13.6951 69.1734 13.7182 68.3634 13.94 67.2643L14.2333 67.0137C14.4743 66.805 14.6337 66.6622 14.6582 66.3325" fill="#212226"/>
<path d="M13.2565 67.6977C12.6178 68.2722 12.0132 69.958 12.5141 70.7545C12.5985 70.8886 13.9142 70.8582 14.0731 70.8276L14.0308 70.6665C13.659 70.0393 13.3811 69.6374 13.2144 68.9238L13.2565 67.6977Z" fill="#383D48"/>
<path d="M13.2146 68.9239C13.0669 69.3303 13.5221 70.3402 13.848 70.647C13.9437 70.6731 13.9589 70.697 14.031 70.6665C13.6591 70.0394 13.3812 69.6375 13.2146 68.9239Z" fill="#434754"/>
<path d="M14.6575 66.3329L14.5887 66.3184C14.3333 67.2847 12.1629 67.5528 12.415 68.2977C12.5815 68.2502 12.8516 67.6368 13.2581 67.48L13.31 67.5265L13.2561 67.6981L13.2148 68.9245C13.3811 69.6375 13.659 70.0394 14.0308 70.6666L14.0728 70.8272L14.0514 70.8431C13.6133 71.1655 13.1034 71.1805 12.9191 71.3898L12.923 71.4904C13.0072 71.5544 13.0225 71.5761 13.1301 71.5842L13.0728 71.4296C13.4975 71.0335 15.1801 71.1583 14.4005 70.1174C13.6939 69.174 13.7176 68.3638 13.9394 67.2646L14.2326 67.014C14.4736 66.8054 14.633 66.6626 14.6575 66.3329Z" fill="#20222A"/>
<path d="M9.16544 64.3695C8.21369 65.2686 7.90593 65.6097 7.85124 66.9091C7.78267 68.5482 8.29626 69.6593 8.49715 71.1414C8.56594 71.6494 8.4783 73.5504 8.44157 74.1875C8.30637 76.6081 9.21747 80.0957 10.7274 82.0308C11.4814 81.8714 14.5975 80.1857 15.1502 79.674C15.0791 78.9671 14.5526 79.3927 13.8404 78.7599C13.5547 78.4313 13.2757 78.1406 13.4591 77.6913C13.4948 77.5581 13.4916 77.537 13.4911 77.3976C13.3716 77.2087 13.0199 77.0342 12.7652 76.7844C12.586 76.1996 12.4366 75.7312 12.5942 75.1398C12.6768 75.0072 12.7118 74.9787 12.7051 74.831C12.6011 74.604 12.2987 74.4282 12.086 74.2765C11.9208 73.6364 11.7032 72.8814 12.1369 72.2938C12.2515 71.8481 11.7046 71.6425 11.4199 71.2494L11.3867 71.2039C11.366 70.9934 11.2695 70.6807 11.232 70.4591C10.935 68.7468 11.5754 67.666 13.0762 66.8954C13.5032 66.7441 14.5473 66.696 14.3641 66.0211C14.191 65.3842 13.583 65.4412 13.1472 65.5629C12.4183 65.3393 9.70195 64.3392 9.16544 64.3695Z" fill="#383D48"/>
<path d="M13.1479 65.5626C12.4184 65.3394 9.70261 64.3389 9.16558 64.3695C9.23595 64.5444 9.22827 64.6141 9.39818 64.7218C10.3485 65.3263 12.4375 65.4736 13.1344 66.3531C13.1638 66.4835 13.1616 66.7072 13.1919 66.7898L13.0758 66.8957C13.5028 66.7444 14.5474 66.696 14.3643 66.0212C14.1912 65.3843 13.5837 65.441 13.1479 65.5626Z" fill="#606471"/>
<path d="M13.1479 65.5625C13.3177 65.9323 13.4679 66.1528 13.4197 66.5581C13.3338 66.6863 13.3199 66.7019 13.1919 66.7897L13.0759 66.8956C13.5029 66.7443 14.5475 66.6959 14.3643 66.0211C14.1912 65.3842 13.5843 65.4406 13.1479 65.5625Z" fill="#20222A"/>
<path d="M13.8403 78.7594C13.7082 78.9712 13.7275 78.8843 13.7153 79.1304C13.9153 79.5515 14.722 79.8074 15.1498 79.6743C15.0793 78.9671 14.5528 79.3927 13.8403 78.7594ZM12.7657 76.7849L12.6553 76.7575C12.6204 77.1232 13.1521 77.5482 13.459 77.6921C13.4953 77.5586 13.4921 77.5375 13.4913 77.3989C13.3721 77.2092 13.0207 77.0352 12.7657 76.7849ZM11.3877 71.2041C11.2657 71.5874 11.8251 72.1458 12.1374 72.2943C12.2523 71.8491 11.7056 71.6427 11.4204 71.2499L11.3877 71.2041Z" fill="#555964"/>
<path d="M12.0866 74.2761C12.1062 74.5532 12.3635 74.9893 12.5943 75.1397C12.6775 75.0068 12.7119 74.9786 12.7052 74.8309C12.6017 74.6036 12.2999 74.4275 12.0866 74.2761Z" fill="#606471"/>
<path d="M10.1624 68.1064C10.1129 68.1142 10.0656 68.1316 10.0229 68.1578C9.98034 68.184 9.94337 68.2184 9.91418 68.2591C9.88499 68.2997 9.86416 68.3457 9.85291 68.3944C9.84166 68.4432 9.8402 68.4936 9.84863 68.5429C9.85706 68.5922 9.8752 68.6394 9.902 68.6816C9.92881 68.7238 9.96374 68.7603 10.0048 68.7889C10.0458 68.8175 10.0921 68.8377 10.141 68.8483C10.1899 68.8588 10.2404 68.8596 10.2895 68.8505C10.3843 68.8295 10.4673 68.773 10.5214 68.6925C10.5756 68.612 10.5966 68.5137 10.5802 68.4181C10.5638 68.3225 10.5113 68.2369 10.4334 68.179C10.3556 68.1211 10.2584 68.0954 10.1621 68.1073" fill="#060607"/>
<path d="M32.9245 85.2135C32.9722 85.5996 34.5308 87.9897 34.8578 88.3792C35.0963 88.6851 35.3026 88.9232 35.5434 89.2055C35.8893 89.6133 36.8108 90.2004 36.9372 90.6022C37.9761 89.8926 40.3667 88.6069 41.5521 87.9211L51.1708 82.3761L54.0394 80.7372C54.4712 80.4907 55.3624 80.0068 55.7131 79.7063C55.1998 79.9491 52.7393 81.4858 52.4908 81.4694C52.148 81.3392 50.7241 79.3245 50.3662 78.8888C49.8406 78.053 49.3303 77.1222 48.8388 76.2589C48.9062 76.4779 48.9675 76.5336 48.901 76.711C47.6792 77.3386 46.0916 78.3212 44.8803 79.0212L37.1003 83.5151C36.0075 84.146 34.3898 85.1426 33.2941 85.6793C33.1252 85.6023 33.038 85.3934 32.9245 85.2135Z" fill="#383D48"/>
<path d="M50.3663 78.8887L50.5534 79.3007L50.5814 79.3853C50.1827 79.475 47.4499 81.1168 46.9769 81.3954C42.9744 83.7577 38.8309 85.972 34.8576 88.3786C35.0963 88.685 35.3026 88.9232 35.5437 89.2059C35.8894 89.6132 36.8109 90.2003 36.9372 90.6021C37.9761 89.8925 40.3667 88.6068 41.5522 87.921L51.1708 82.376L54.0394 80.7372C54.4713 80.4906 55.3625 80.0067 55.7131 79.7062C55.1999 79.949 52.7394 81.4857 52.4908 81.4693C52.148 81.3391 50.7242 79.3244 50.3663 78.8887Z" fill="#20222A"/>
<path d="M48.8394 76.2586C48.9062 76.4779 48.9676 76.5335 48.9011 76.711C48.9667 77.1979 50.1012 78.8354 50.396 79.2365C50.4382 79.2553 50.5116 79.2922 50.5534 79.3007L50.3663 78.8888C49.8406 78.053 49.3308 77.1218 48.8394 76.2586Z" fill="#606471"/>
<path d="M47.3173 72.6977C47.2823 72.4482 47.3285 72.4848 47.1752 72.3578C46.8509 72.3643 33.2421 80.3277 31.7093 81.2078C31.6514 82.3138 32.0784 83.2677 32.4975 84.2826C32.6288 84.5883 32.7639 84.9246 32.9239 85.2139C33.0377 85.3929 33.1252 85.6023 33.2941 85.6793C34.3901 85.1431 36.0072 84.1455 37.1003 83.5152L44.8803 79.0212C46.0919 78.3217 47.6792 77.3386 48.901 76.711C48.9675 76.5336 48.906 76.4788 48.8388 76.2589C48.4763 75.5396 48.15 74.7889 47.8205 74.0532C47.6425 73.6054 47.4748 73.1536 47.3173 72.6977Z" fill="#383D48"/>
<path d="M47.8205 74.0533L47.7202 74.2697L48.1501 75.3332C45.1819 77.0361 42.2007 78.7161 39.2066 80.373C37.6606 81.2044 36.1252 82.0547 34.6006 82.9238C34.1956 83.1555 32.6176 83.9741 32.4975 84.2826C32.6292 84.5889 32.764 84.9247 32.924 85.2139C33.0378 85.3929 33.1253 85.6023 33.2942 85.6793C34.3905 85.1437 36.0073 84.1456 37.1003 83.5152L44.8809 79.021C46.0925 78.3215 47.6798 77.3383 48.9011 76.7111C48.9681 76.5334 48.906 76.4788 48.8389 76.259C48.4764 75.5396 48.15 74.7889 47.8205 74.0533Z" fill="#768091"/>
<path d="M47.3172 72.6977C47.2193 73.0699 47.5719 73.9131 47.7201 74.2697L47.8204 74.0533C47.6425 73.6055 47.4748 73.1536 47.3172 72.6977Z" fill="#606471"/>
<path d="M55.6801 64.8701C54.0274 65.8542 51.4163 67.2372 49.7431 68.3291L49.6916 68.4867L49.7892 68.504L49.9579 68.8203L50.0126 68.879L50.0456 68.9121C50.125 68.9809 50.1893 69.0585 50.2888 69.0636C50.4357 68.6799 50.5655 68.6446 50.9402 68.4929C51.4536 68.779 51.6344 68.9971 51.3559 69.5694C51.574 69.4366 52.3496 68.9235 52.5458 68.9478C52.5904 69.0493 52.723 69.3391 52.7513 69.4291C53.393 70.7415 54.0646 72.2131 54.7389 73.4845C54.9901 74.052 55.3295 74.5303 55.5981 75.0606L55.5811 75.1816C55.9703 75.4018 55.8413 75.9983 56.3098 76.0705L56.3847 76.0148L56.4162 76.0501L56.7607 76.0931C56.5937 75.575 56.3599 75.0051 56.1578 74.4949C56.7997 74.1354 59.1806 72.9004 59.6777 72.2889C59.7974 72.1411 59.5241 71.599 59.425 71.3816C59.1259 70.8925 59.1529 70.2194 58.7889 69.4828C58.3414 69.199 56.8414 66.7924 56.5454 66.2473C56.3238 65.8428 55.9352 65.2733 55.6801 64.8701Z" fill="#060607"/>
<path d="M55.6174 65.4997C54.3427 66.2802 53.0538 67.0359 51.7506 67.767C51.4247 67.9538 50.2095 68.6206 49.9572 68.8205L50.0125 68.8789L50.0447 68.9118C50.1249 68.9809 50.1888 69.058 50.2884 69.063C50.4353 68.6793 50.5653 68.6446 50.94 68.4929C51.4534 68.779 51.6343 68.9971 51.3558 69.5694C51.5733 69.4369 52.3494 68.9234 52.5456 68.9478L52.6787 68.9495C52.9116 69.1939 53.5746 70.2076 53.8071 70.5391C54.8623 69.9264 56.5145 69.0281 57.4842 68.373C57.4751 68.2128 57.3092 67.9555 57.2234 67.8021C56.8562 67.2203 56.1248 65.945 55.7523 65.4817L55.6174 65.4997Z" fill="#383D48"/>
<path d="M54.9749 66.16C55.0258 66.0917 55.2477 65.9511 55.3342 65.8879L55.3404 65.8287C54.9556 65.916 50.4515 68.5339 50.0129 68.8795L50.0453 68.9116C50.125 68.9809 50.189 69.058 50.2885 69.0631C50.4357 68.6799 50.565 68.6449 50.9402 68.4929C52.5086 67.7938 53.5436 66.9342 54.8987 66.2568C54.9203 66.2221 54.9457 66.1898 54.9749 66.16Z" fill="url(#paint1_linear_3252_8769)"/>
<path d="M54.9748 66.1602C54.869 66.2667 54.8099 66.411 54.8105 66.5612C54.8111 66.7113 54.8713 66.8551 54.9779 66.9608C55.0845 67.0666 55.2288 67.1257 55.3789 67.1251C55.5291 67.1245 55.6729 67.0643 55.7786 66.9577C55.8844 66.8511 55.9435 66.7068 55.9429 66.5567C55.9423 66.4065 55.8821 66.2628 55.7755 66.157C55.6689 66.0512 55.5246 65.9922 55.3745 65.9927C55.2243 65.9933 55.0805 66.0536 54.9748 66.1602Z" fill="#20222A"/>
<path d="M55.6632 66.5145C55.4433 66.3384 55.5296 66.3553 55.2831 66.3558L55.1791 66.4576C55.1873 66.6739 55.2185 66.7087 55.4097 66.8388L55.3601 66.889L55.4548 66.9254C55.7321 66.8001 55.8252 66.6399 55.6732 66.3489L55.6632 66.5145Z" fill="#060607"/>
<path d="M55.4106 66.8391L55.3602 66.889L55.4549 66.9254C55.7322 66.8001 55.8258 66.6397 55.6733 66.3489L55.6633 66.5146C55.5794 66.6402 55.524 66.7382 55.4106 66.8391Z" fill="#555964"/>
<path d="M58.7973 70.1492C58.4109 69.5257 57.6541 68.3666 57.2232 67.8021C57.309 67.9555 57.4744 68.2132 57.484 68.373C56.5144 69.0281 54.8622 69.9264 53.8069 70.5391C54.116 71.0864 54.5857 71.7905 54.927 72.3372C56.0707 71.6789 57.6414 70.7165 58.7975 70.1484M58.5829 70.5448L55.0547 72.5728C55.4009 73.1723 55.8413 73.8905 56.1567 74.4946C56.7996 74.1345 59.1806 72.8996 59.6776 72.288C59.7977 72.1408 59.524 71.5982 59.4244 71.3811L59.4142 71.6741C59.1615 71.5975 58.7483 70.8024 58.5829 70.5448ZM55.6175 65.4989C55.1855 65.5982 52.8535 66.9794 52.2903 67.2621C52.7532 66.9441 53.9862 66.3178 54.3442 65.9915C53.7898 66.1114 50.4432 68.0998 49.7886 68.5035L49.9573 68.8197C50.2096 68.6198 51.4248 67.953 51.7507 67.7662C53.0541 67.0355 54.343 66.2797 55.6175 65.4989ZM54.7388 73.4836C54.99 74.0511 55.3294 74.5294 55.5977 75.0592L55.5807 75.1802C55.9699 75.4004 55.8412 75.9974 56.3087 76.0703L56.3846 76.0139C56.0701 75.4343 55.4704 74.9422 55.3929 74.2432C55.3673 74.0099 55.1268 73.692 54.9854 73.5123L54.8688 73.5511L54.7388 73.4836Z" fill="#20222A"/>
<path d="M57.443 65.1751C57.0258 64.5693 54.5939 60.044 54.4668 60.0034C54.3169 60.076 54.2189 60.1097 54.1099 60.24C54.0679 60.4923 54.2785 60.9004 54.381 61.1839C54.3512 62.4001 51.2381 63.3856 50.8343 63.9864C50.8339 64.0965 50.8585 64.1692 50.7785 64.2209C50.0605 64.6869 48.3686 65.7055 47.6283 65.998C48.1887 67.0181 48.7116 67.884 49.2913 68.8749L49.6859 68.5867L49.6909 68.4871L49.7429 68.3292C51.4162 67.2373 54.0272 65.8542 55.6805 64.8698C55.9361 65.2728 56.3236 65.8429 56.5453 66.2474L56.9523 66.7861C57.3391 66.5495 57.6069 66.3789 58.0241 66.2034C57.8203 65.8664 57.6265 65.5235 57.443 65.1751Z" fill="#383D48"/>
<path d="M53.0288 63.0738C52.5585 63.3884 52.6911 63.7025 52.7645 64.1884C52.3836 64.4834 51.38 65.0399 50.9448 65.2529C50.6352 65.1814 50.2979 64.2119 49.7294 65.1657C49.686 65.3854 49.8147 65.6058 49.9076 65.8149C49.8231 65.9889 49.5741 66.1451 49.4082 66.3069C49.3914 66.4946 49.5767 66.7588 49.6783 66.9337C50.1973 66.7105 54.2446 64.3766 54.6243 64.0385C54.6322 63.945 54.6126 63.663 54.5246 63.5817C54.1533 63.2372 53.9116 63.9008 53.5233 63.2728C53.4334 63.128 53.1865 63.0988 53.0288 63.0738Z" fill="#060607"/>
<path d="M54.2496 63.6085C53.1444 64.2118 52.0602 64.8851 50.9585 65.4968C50.5453 65.7263 50.0623 65.9865 49.6852 66.2653C49.6322 66.4384 49.6712 66.4264 49.7669 66.6283C51.247 65.7557 52.8283 64.8802 54.28 63.9886C54.3639 63.8269 54.3202 63.8319 54.2496 63.6085Z" fill="#555964"/>
<path d="M50.1965 64.9177C49.9255 65.0985 49.8295 65.3138 49.9821 65.6045C50.1972 65.7098 50.1151 65.6856 50.3648 65.6582C50.4616 65.644 50.5305 65.5792 50.617 65.5195C50.7283 65.1536 50.5037 65.0247 50.1965 64.9177ZM53.1812 63.2126C52.9293 63.3288 52.8796 63.4006 52.7932 63.6506C52.828 63.8697 52.7893 63.7871 52.958 63.9601C53.1293 64.0064 53.0887 64.0251 53.2098 63.9628C53.0366 63.7771 53.0272 63.738 52.9561 63.492C53.3266 63.3476 53.2877 63.5897 53.52 63.7607L53.5574 63.5584C53.4467 63.3304 53.4268 63.3718 53.1812 63.2126Z" fill="#434754"/>
<path d="M50.4172 70.7357L50.6024 70.5821C50.5554 70.366 50.6019 70.4295 50.4441 70.326C50.1753 70.3421 47.8906 71.787 47.4888 72.0183L38.0023 77.4863C37.201 77.9489 31.3926 81.1864 31.0856 81.5311C30.9355 81.6998 30.837 81.8519 30.8557 82.0878C30.8662 82.2264 30.8993 82.3282 30.9737 82.4486L31.0181 82.4689C31.1864 83.1169 31.5543 84.3934 31.8572 84.9637C31.9611 85.1864 32.0634 85.41 32.1639 85.6347C32.6546 86.7868 33.4411 87.7806 34.0332 88.8339C34.1817 89.0526 34.6367 89.7227 34.6215 89.9491C35.0121 90.409 35.4839 90.7928 36.0137 91.0819C36.2486 90.9602 36.5847 90.7995 36.7943 90.6521L36.9367 90.6025C36.8104 90.2007 35.8889 89.6136 35.5424 89.2061C35.3021 88.9236 35.0958 88.6854 34.8576 88.3787C34.5303 87.9901 32.9717 85.5999 32.924 85.2139C32.7635 84.925 32.6284 84.5887 32.497 84.2829C32.0782 83.2686 31.6514 82.3138 31.7089 81.2081C33.2416 80.328 46.8505 72.3646 47.1748 72.3581C47.3281 72.4851 47.2827 72.4487 47.3169 72.698C47.4745 73.1535 47.6423 73.6055 47.82 74.0535C48.1495 74.7892 48.4764 75.5396 48.8384 76.2593C49.3298 77.1225 49.8396 78.0536 50.3658 78.8892C50.7242 79.3245 52.1475 81.3395 52.49 81.4692C52.7386 81.4856 55.1994 79.9494 55.7126 79.7066C55.025 79.8652 53.7755 80.9759 53.2914 80.8828C52.8849 80.8047 51.7699 79.2442 51.517 78.8327C50.9693 78.1369 50.2503 76.9205 49.8452 76.1417C49.5481 75.567 49.2707 74.9834 49.0129 74.3908C48.5989 73.8374 48.1875 72.4651 48.0702 71.7779C48.4139 71.569 50.1572 70.4659 50.3914 70.4732L50.4172 70.7357Z" fill="#060607"/>
<path d="M34.8976 88.6372C34.8927 88.6733 34.8823 88.6877 34.8671 88.7229C34.6538 88.6472 34.2973 88.787 34.0337 88.8336C34.1822 89.0523 34.6372 89.7224 34.6219 89.9488C35.0125 90.4087 35.4844 90.7925 36.0142 91.0816C36.249 90.9599 36.5852 90.7992 36.7948 90.6518C36.6319 90.3913 35.3118 89.1307 34.8976 88.6372Z" fill="#20222A"/>
<path d="M32.1644 85.6344C32.6551 86.7865 33.4416 87.7803 34.0337 88.8336C34.2974 88.787 34.6539 88.6472 34.8667 88.7232C34.8823 88.6877 34.8928 88.6733 34.8976 88.6372C34.8307 88.5646 34.7393 88.4832 34.6668 88.4131C34.2764 87.867 33.917 87.2709 33.5213 86.7132C33.3507 86.5983 33.102 86.1747 32.8616 85.9353L32.5214 86.0504C32.314 85.9741 32.305 85.8646 32.1644 85.6344Z" fill="#383D48"/>
<path d="M33.5218 86.7137C33.3508 86.5983 33.1016 86.175 32.8617 85.9353C33.1635 86.4965 34.1167 88.1115 34.5506 88.5053L34.6579 88.4816L34.6673 88.4137C34.2769 87.8675 33.9174 87.2714 33.5218 86.7137Z" fill="#606471"/>
<path d="M31.5712 82.0182C31.5701 81.8249 31.5967 81.5724 31.4807 81.4316C30.9505 81.2838 30.9812 82.1558 31.0186 82.4686C31.187 83.1165 31.5549 84.3931 31.8577 84.9634L32.0944 84.7954C32.1979 84.5244 32.0802 84.3025 31.9885 84.0016C31.785 83.3962 31.5179 82.6808 31.4681 82.0527L31.5712 82.0182Z" fill="#383D48"/>
<path d="M32.2347 84.0451L31.9886 84.0016C32.0803 84.3025 32.198 84.5244 32.0945 84.7954L31.8578 84.9634C31.9621 85.1858 32.0642 85.4096 32.164 85.6346C32.3051 85.8646 32.3141 85.9741 32.522 86.0501L32.8617 85.9353C33.1016 86.1749 33.3508 86.5982 33.5214 86.7131C33.0432 85.8354 32.6045 84.9744 32.2347 84.0451Z" fill="#768091"/>
<path d="M31.5713 82.0181L31.4687 82.0523C31.5185 82.6805 31.7856 83.3959 31.9892 84.0013L32.2353 84.0447C31.9559 83.3163 31.8085 82.7132 31.5713 82.0181Z" fill="#737889"/>
<path d="M49.0207 74.8874C48.7168 74.0793 48.1998 72.7985 47.8639 71.9963L47.7719 71.9875C47.6181 72.0582 47.496 72.0912 47.4132 72.2307C47.4391 72.6488 47.6665 73.2954 47.8204 73.6848C47.9972 74.1138 48.3672 74.963 48.6148 75.3497C48.5755 75.1973 48.5682 75.1751 48.6206 75.0287L49.0207 74.8874Z" fill="#434754"/>
<path d="M47.8209 73.6853C47.9974 74.1138 48.3674 74.963 48.615 75.3497C48.5756 75.1972 48.5684 75.175 48.6205 75.0282C48.5751 74.6317 48.0896 73.9834 47.8209 73.6853Z" fill="#555964"/>
<path d="M49.197 76.4915C49.7059 77.4211 50.1945 78.3179 50.8314 79.1694C51.0822 79.0246 51.1532 79.0358 51.288 78.8092C50.7599 78.0992 50.2716 76.9284 49.7173 76.2404L49.197 76.4915Z" fill="#383D48"/>
<path d="M52.5699 81.3235C52.7653 81.178 52.8502 81.195 52.9957 80.9942C52.9872 80.9651 51.4405 78.9893 51.2878 78.8091C51.1531 79.0357 51.0823 79.0251 50.831 79.1688C51.1924 79.843 52.0331 80.7777 52.5701 81.3227" fill="#20222A"/>
<path d="M48.6204 75.0281C48.5675 75.1748 48.5756 75.1972 48.6144 75.35C48.7976 75.736 48.9919 76.1166 49.197 76.4914L49.717 76.2399C49.5045 75.8864 49.2155 75.2726 49.0206 74.8881L48.6204 75.0281Z" fill="#768091"/>
<path d="M111.211 24.688C109.937 24.0074 108.777 24.5536 108.833 26.059C108.593 26.2 108.354 26.3423 108.115 26.4858C107.978 26.5737 107.94 26.5932 107.837 26.7183L107.912 26.6434C108.075 26.6598 109.688 25.6856 109.887 25.5099C110.463 25.8325 110.818 26.2794 110.922 26.9377C111.326 26.9369 111.441 26.2752 112.08 26.7379C112.129 26.6182 112.085 26.525 112.06 26.378L112.36 26.7111C112.682 27.0893 113.047 27.5084 113.282 27.9479C113.503 28.2238 113.596 28.3676 113.775 28.6646C113.897 28.8873 114.103 29.2898 114.235 29.489L114.305 29.4101C114.417 29.5247 114.476 29.6175 114.564 29.7478C114.644 29.9229 114.834 30.2608 114.796 30.4233L114.696 30.3996L114.632 30.4353C114.846 30.7989 114.914 31.0128 115.054 31.4087L114.854 31.3441C114.723 31.5528 114.994 31.8993 114.874 32.1943C114.792 32.3983 114.363 32.6034 114.347 32.6903L114.341 32.7282C114.587 33.142 115.226 34.0452 114.638 34.3769C114.424 34.4976 114.303 34.51 114.16 34.7335C114.155 34.8202 114.147 34.8908 114.153 34.9778C114.992 35.4663 115.732 35.0186 116.075 34.1714C116.099 34.1125 116.281 33.4794 116.274 33.4825C117.131 33.074 116.343 32.0131 115.972 31.5299C116.207 31.4055 116.803 31.1415 116.858 30.8923C116.998 30.2577 116.337 29.2592 115.754 29.0623C115.536 29.0462 115.25 29.2511 115.047 29.3682C114.787 28.8619 114.505 28.3684 114.201 27.8877C114.35 27.8137 114.69 27.6579 114.77 27.5223C115.225 26.7401 114.35 25.8678 113.785 25.4939L112.841 26.0333C112.661 25.2183 112.237 24.056 111.211 24.688Z" fill="url(#paint2_linear_3252_8769)"/>
<path d="M109.947 24.8307L109.871 24.9617C109.11 25.1037 109.135 25.284 109.006 25.9792C109.21 25.8602 109.684 25.5601 109.888 25.5104C110.464 25.8321 110.819 26.2798 110.923 26.9378C111.327 26.9368 111.441 26.2751 112.081 26.7378C112.129 26.6181 112.086 26.525 112.06 26.3776C111.34 25.5629 110.824 25.3458 109.947 24.8307Z" fill="#212226"/>
<path d="M113.833 27.9051L113.794 27.9655L113.641 28.1203C113.669 28.4217 113.808 28.4196 113.775 28.6646C113.897 28.8873 114.103 29.2898 114.235 29.489L114.305 29.41C114.418 29.5252 114.476 29.6175 114.564 29.7478C114.644 29.9229 114.834 30.2608 114.796 30.4233L114.696 30.3996L114.632 30.4353C114.846 30.7989 114.914 31.0128 115.054 31.4086C115.122 31.6212 115.164 31.8854 115.316 32.0046C115.483 31.9344 115.507 31.9214 115.644 31.8034C115.588 30.8766 114.372 28.7148 113.833 27.9051Z" fill="#383D48"/>
<path d="M113.794 27.9654L113.641 28.1202C113.67 28.4217 113.808 28.4196 113.775 28.6646C113.897 28.8873 114.103 29.2897 114.235 29.4889L114.305 29.41C114.418 29.5252 114.476 29.6174 114.564 29.7478C114.642 29.851 114.714 29.9446 114.797 30.0432L114.839 30.0142C114.79 29.683 114.037 28.2966 113.794 27.9654Z" fill="url(#paint3_linear_3252_8769)"/>
<path d="M112.817 26.558C112.328 25.9266 110.819 24.2765 109.946 24.8303C110.824 25.3456 111.34 25.563 112.06 26.378L112.361 26.7111C112.509 26.5415 112.573 26.492 112.817 26.558Z" fill="#606471"/>
<path d="M112.817 26.558C112.573 26.4926 112.509 26.5414 112.36 26.7106C112.682 27.0893 113.047 27.5084 113.282 27.9482C113.503 28.2238 113.596 28.3676 113.775 28.6646C113.808 28.4196 113.669 28.4217 113.641 28.1203L113.794 27.9655L113.833 27.9051C113.519 27.4048 113.188 27.0139 112.817 26.558Z" fill="#737889"/>
<path d="M116.083 29.5744C115.743 29.258 115.361 29.1884 115.2 29.7105C115.226 29.8194 115.268 29.924 115.324 30.0213L115.501 30.4365C115.611 30.7075 115.723 30.9778 115.838 31.2472C116.36 30.957 116.867 30.7227 116.465 30.0609C116.359 29.8863 116.31 29.7763 116.149 29.6352L116.083 29.5744Z" fill="#434754"/>
<path d="M116.083 29.5744C115.743 29.258 115.361 29.1884 115.2 29.7105C115.226 29.8194 115.268 29.924 115.323 30.0213L115.501 30.4365C115.838 30.279 116.147 30.2006 116.274 29.8715L116.149 29.6352L116.083 29.5744Z" fill="#768091"/>
<path d="M116.083 29.5744C115.743 29.258 115.361 29.1887 115.2 29.7105C115.226 29.8193 115.268 29.924 115.324 30.0213C115.569 29.8526 115.823 29.7179 116.083 29.5744Z" fill="#383D48"/>
<path d="M114.119 25.9914C113.753 25.8286 113.164 25.9463 113.081 26.3609C113.154 26.5059 113.165 26.5287 113.281 26.641L113.482 26.8868L113.746 27.2533C113.801 27.3477 113.883 27.4399 113.953 27.5252C114.116 27.5979 114.139 27.5934 114.313 27.5497C114.705 27.2751 114.638 27.031 114.49 26.6448L114.343 26.4225C114.263 26.29 114.188 26.1313 114.119 25.9914Z" fill="#20222A"/>
<path d="M114.119 25.9914C113.753 25.8286 113.164 25.9463 113.081 26.3609C113.154 26.5059 113.165 26.5287 113.281 26.641L113.482 26.8868C113.853 26.7213 114.002 26.646 114.343 26.4225C114.263 26.29 114.188 26.1313 114.119 25.9914Z" fill="#768091"/>
<path d="M114.119 25.9914C113.753 25.8286 113.164 25.9463 113.081 26.3609C113.154 26.5059 113.165 26.5287 113.281 26.641C113.344 26.4101 113.856 26.1691 114.119 25.9914ZM113.482 26.8873L113.746 27.2533C114.082 27.0398 114.414 27.0582 114.49 26.6448L114.343 26.4225C114.002 26.646 113.853 26.7218 113.482 26.8873Z" fill="#434754"/>
<path d="M111.7 24.7511C111.641 24.8092 111.642 24.8404 111.62 24.9226C111.742 25.1394 112.074 25.3347 112.289 25.4844L112.331 25.4706C112.19 25.1265 112.018 24.9351 111.7 24.7511Z" fill="#555964"/>
<path d="M50.2879 69.0634C50.1888 69.058 50.1249 68.9809 50.0447 68.9119C50.2168 69.192 50.6085 69.809 50.7371 70.0991L50.772 70.1693C51.0441 70.2047 51.0208 70.1667 51.2096 70.3685C51.8723 71.0744 52.7842 73.7496 53.3478 74.2959L53.4074 74.3908C53.7658 74.879 54.1659 75.3361 54.604 75.7554C54.9325 75.5706 55.2668 75.3887 55.581 75.1816L55.598 75.0606C55.3293 74.5303 54.9899 74.052 54.7388 73.4845C54.064 72.2134 53.3928 70.7415 52.7506 69.4294C52.7234 69.3388 52.5898 69.0496 52.5456 68.9478C52.3494 68.9235 51.5733 69.4369 51.3558 69.5695C51.6338 68.9975 51.4535 68.779 50.94 68.4929C50.5653 68.6446 50.4351 68.6802 50.2879 69.0634Z" fill="#383D48"/>
<path d="M52.7511 69.429L52.6499 69.5403C52.2694 69.7975 51.6431 70.0889 51.372 70.3441C51.3576 70.5359 51.4564 70.7166 51.6027 70.84C51.9325 70.8213 52.6551 70.3464 52.9609 70.1657C53.3322 71.0531 53.7631 72.0632 54.2102 72.9158C53.9893 73.0545 53.7426 73.2136 53.515 73.3346C52.9415 73.6393 53.0751 73.8513 53.3477 74.2959L53.4073 74.3907C53.7657 74.879 54.1664 75.3358 54.6039 75.7553C54.9324 75.5706 55.2667 75.3887 55.5809 75.1816L55.5979 75.0605C55.3293 74.5302 54.9899 74.0519 54.739 73.485C54.0644 72.2131 53.3927 70.7415 52.7511 69.429Z" fill="#768091"/>
<path d="M54.6022 73.7067L53.4075 74.3909C53.7658 74.8791 54.1665 75.3359 54.6041 75.7555C54.9325 75.5707 55.2668 75.3888 55.581 75.1817L55.598 75.0607L55.5748 75.0685C55.3339 74.9837 54.7674 73.9797 54.6022 73.7067Z" fill="#383D48"/>
<path d="M50.9399 68.493C50.5652 68.6446 50.436 68.6796 50.2888 69.0628C50.5247 69.6231 50.7407 69.9058 51.3557 69.5695C51.6342 68.9972 51.4533 68.7791 50.9399 68.493Z" fill="#060607"/>
<path d="M50.8852 68.7158C50.8334 68.7198 50.7829 68.7341 50.7365 68.7577C50.6902 68.7813 50.649 68.8138 50.6153 68.8534C50.5816 68.893 50.556 68.9388 50.5401 68.9883C50.5241 69.0378 50.5181 69.0899 50.5223 69.1418C50.5266 69.1936 50.541 69.2441 50.5648 69.2903C50.5886 69.3365 50.6213 69.3776 50.661 69.4111C50.7007 69.4447 50.7467 69.4701 50.7962 69.4858C50.8458 69.5016 50.8979 69.5074 50.9497 69.503C51.0538 69.494 51.1501 69.4442 51.2175 69.3644C51.285 69.2846 51.318 69.1814 51.3095 69.0773C51.301 68.9731 51.2515 68.8766 51.172 68.8089C51.0925 68.7412 50.9894 68.7077 50.8852 68.7158Z" fill="#383D48"/>
<path d="M50.8792 68.8653C50.8297 68.8661 50.7815 68.8822 50.7414 68.9113C50.7012 68.9403 50.6709 68.9811 50.6547 69.0279C50.6384 69.0748 50.637 69.1255 50.6505 69.1732C50.664 69.2209 50.6918 69.2633 50.7302 69.2947C50.7604 69.3198 50.7962 69.3372 50.8346 69.3453C50.8729 69.3535 50.9127 69.3523 50.9505 69.3418C50.9883 69.3312 51.023 69.3117 51.0515 69.2848C51.0801 69.2579 51.1017 69.2245 51.1146 69.1874C51.1274 69.1504 51.131 69.1107 51.1252 69.0719C51.1193 69.0331 51.1042 68.9964 51.081 68.9647C51.0578 68.9331 51.0273 68.9075 50.992 68.8903C50.9568 68.873 50.9185 68.8642 50.8792 68.8653Z" fill="#060607"/>
<path d="M50.2879 69.0634C50.1888 69.058 50.1249 68.9809 50.0447 68.9119C50.2168 69.192 50.6085 69.809 50.7371 70.0991C51.2839 69.864 52.0858 69.205 52.4849 69.2978L52.65 69.5403L52.7506 69.4294C52.7234 69.3388 52.5898 69.0496 52.5456 68.9478C52.3494 68.9235 51.5733 69.4369 51.3558 69.5695C50.7408 69.9057 50.5248 69.6231 50.2879 69.0634Z" fill="#606471"/>
<path d="M50.4172 70.7356L50.3917 70.4723C50.1583 70.4653 48.4145 71.5686 48.0708 71.7775C48.1881 72.4647 48.5989 73.836 49.0136 74.3905C49.2711 74.9833 49.5488 75.5672 49.8463 76.141L51.9287 74.938C52.1594 75.2761 52.4779 75.7748 52.722 76.0857C52.6028 75.7792 52.2885 75.082 52.2064 74.8229C51.5466 73.6718 50.754 72.0183 50.3829 70.7617L50.4172 70.7356Z" fill="#383D48"/>
<path d="M50.3823 70.7619L50.2646 70.7507C50.1009 71.1017 51.0473 73.1321 51.2447 73.5909C50.7691 73.8724 49.7971 74.5511 49.3268 74.5779C49.187 74.514 49.1409 74.4788 49.0134 74.3904C49.2709 74.9833 49.5487 75.5671 49.8462 76.141L51.9286 74.938C52.1588 75.2764 52.4778 75.7748 52.7217 76.0865C52.603 75.7797 52.2879 75.0823 52.2062 74.8229C51.5465 73.6717 50.7533 72.0186 50.3823 70.7619Z" fill="url(#paint4_linear_3252_8769)"/>
<path d="M18.8998 86.6682L18.9038 86.7076C19.0624 86.8065 19.0111 86.8055 19.1752 86.8067C19.2389 86.5523 17.7338 83.9214 17.4941 83.8144C17.05 83.8734 12.4394 86.5381 12.3888 86.6924C12.8455 86.6046 16.6095 84.2327 17.4449 83.8338L17.6589 84.1829C15.8999 85.2346 14.1482 86.2098 12.3679 87.221L12.5842 87.7196L12.75 88.0368C12.6841 88.0623 12.6926 88.0518 12.6143 88.0463C12.4727 87.838 12.3222 87.6362 12.1627 87.441C12.423 88.0942 12.6619 88.4345 13.3175 88.7428C13.8336 88.4761 16.2215 86.9751 16.5387 86.9345L16.6011 86.8789C16.4509 86.7655 16.3723 86.9569 16.209 86.8885C16.7462 86.5366 17.7097 85.8552 18.2354 85.5823C18.3349 85.6222 18.4275 85.6549 18.5293 85.6893C18.6602 85.9015 19.0563 86.4659 19.0146 86.6658L18.8998 86.6682Z" fill="#20222A"/>
<path d="M17.6589 84.1829C15.9004 85.2343 14.1482 86.2098 12.3679 87.221L12.5842 87.7196C14.3615 86.7526 16.1035 85.6113 17.9306 84.6245C17.8531 84.5205 17.7303 84.3029 17.6589 84.1829Z" fill="#768091"/>
<path d="M17.9307 84.6245C16.1034 85.6108 14.3616 86.7526 12.5844 87.7196L12.7501 88.0368C13.3845 87.6511 17.875 85.112 18.0083 84.8613L17.9307 84.6245ZM49.8463 76.1411C50.2504 76.9205 50.9704 78.1363 51.5181 78.8322C52.0176 78.5438 53.0939 77.8508 53.5631 77.6786C54.0114 77.793 54.0996 78.5332 54.3961 78.7158C54.3594 78.5687 54.325 78.4216 54.2928 78.2743L54.3698 78.1957C54.6106 78.1818 54.6367 78.7507 54.9885 78.8749C54.8865 78.6127 54.4437 77.9661 54.2434 77.771L54.0813 77.784C53.7836 77.5429 52.4949 75.2987 52.206 74.8225C52.2885 75.0821 52.6027 75.7793 52.7218 76.0866C52.4779 75.7749 52.1597 75.2767 51.9287 74.9381L49.8463 76.1411Z" fill="#383D48"/>
<path d="M50.7717 70.1688C51.5642 71.5089 51.9757 72.7297 52.6029 74.1039C53.0036 74.9834 54.0377 76.3264 54.604 77.1485C55.033 76.8765 56.2842 76.3383 56.4166 76.0499L56.3845 76.0149L56.3086 76.0712C55.8412 75.9984 55.9707 75.4016 55.5813 75.1822C55.2668 75.3888 54.9325 75.5707 54.604 75.7555C54.1662 75.3363 53.7658 74.8797 53.4074 74.3909L53.3478 74.296C52.7842 73.7497 51.8723 71.0745 51.2101 70.3682C51.0203 70.1671 51.0446 70.2045 50.772 70.1693M57.4433 65.1756C57.6265 65.5242 57.8203 65.8671 58.0245 66.2039C57.6067 66.3797 57.3397 66.5506 56.9526 66.7866L56.5456 66.2479C56.8416 66.793 58.3415 69.1996 58.7887 69.4829C58.9931 69.4143 59.96 68.8581 60.1902 68.7294L59.8702 68.8133C59.6064 68.6153 57.7735 65.6752 57.4433 65.1756ZM113.283 27.9485L113.201 27.9866C113.096 27.8593 112.849 27.5395 112.702 27.5222C112.888 27.8678 113.011 28.2226 112.937 28.6155L112.674 28.8435C113.003 29.2749 113.2 29.5757 113.358 30.0973C113.38 30.1679 114.153 30.0973 114.221 30.3592C114.254 30.4189 114.624 30.87 114.675 30.9252L114.698 30.9074C114.711 30.6857 114.664 30.6441 114.535 30.4633L114.632 30.4359L114.696 30.4002L114.796 30.4239C114.834 30.2614 114.644 29.9235 114.565 29.7484C114.476 29.6175 114.418 29.5258 114.306 29.4106L114.235 29.4896C114.103 29.2904 113.897 28.8879 113.775 28.6647C113.63 28.4132 113.466 28.1737 113.283 27.9485Z" fill="#20222A"/>
<path d="M114.564 29.7478C114.476 29.6169 114.418 29.5252 114.305 29.41L114.235 29.4889C114.391 29.8666 114.489 30.0465 114.696 30.3996L114.796 30.4232C114.834 30.2607 114.644 29.9229 114.564 29.7478Z" fill="#555964"/>
<path d="M17.4449 83.8337C16.8854 84.1914 12.3973 86.6408 12.3348 86.9021C12.313 86.9968 12.3501 87.1262 12.3679 87.2208C14.148 86.2105 15.8994 85.2348 17.6589 84.1828L17.4449 83.8337Z" fill="#383D48"/>
<path d="M54.3811 61.1838C53.3348 61.8157 52.3351 62.4874 51.244 63.0464C51.0383 63.15 50.842 63.2712 50.6573 63.4088C50.6528 63.6658 50.7539 63.7507 50.8349 63.9861C51.2385 63.3847 54.3506 62.4012 54.3811 61.1838Z" fill="#20222A"/>
<path d="M99.3485 30.958C98.7108 30.6734 98.3644 31.0403 97.8372 31.4044C97.7816 31.6117 97.6981 31.8427 97.7332 32.0491L97.8277 32.2308C98.4026 32.3271 98.6182 31.6966 99.0816 32.3403C99.1043 32.3711 99.1277 32.3804 99.1614 32.393C99.1377 32.2593 99.1304 32.2274 99.0819 32.1011C99.298 32.3225 99.6124 32.9959 99.7683 33.3056C100.118 33.1353 100.183 33.0817 100.571 33.1523C100.74 33.1834 100.616 33.2604 100.752 33.1646C100.278 32.5013 99.2937 31.7264 98.5524 31.3453L98.3174 31.4741C98.4351 31.5611 98.5035 31.5918 98.6336 31.6557L98.5936 31.7045C98.3861 31.6533 98.1952 31.6225 98.0192 31.503L98.0662 31.4015C98.2837 31.2676 98.5035 31.1295 98.7252 31.003C98.9351 30.8825 99.0786 31.0179 99.3485 30.958Z" fill="url(#paint5_linear_3252_8769)"/>
<path d="M104.182 38.3912C103.898 37.3766 102.672 35.0447 102.047 34.1738C102.134 34.3391 102.249 34.5021 102.214 34.6808C102.163 34.7419 102.079 34.8492 102.02 34.8924C102.768 36.2051 103.583 37.7186 103.956 39.1909C104.265 39.0537 103.845 38.9042 104.182 38.3912Z" fill="url(#paint6_linear_3252_8769)"/>
<path d="M101.345 33.2083C100.781 32.5499 100.039 31.6227 99.2312 31.2801C98.9179 31.1468 98.8303 31.2287 98.5518 31.3457C99.2933 31.726 100.278 32.5014 100.752 33.1647C100.783 33.1995 100.966 33.4094 100.987 33.4248C100.977 33.3583 100.978 33.3922 101.007 33.323C101.141 33.3293 101.183 33.2936 101.302 33.2312L101.345 33.2083Z" fill="#606471"/>
<path d="M104.182 38.3911C103.845 38.9046 104.264 39.0539 103.956 39.1908C104.043 39.6028 104.135 40.6065 104.298 40.8643L104.383 40.8568C104.714 40.2201 104.375 39.0244 104.182 38.3911Z" fill="#20222A"/>
<path d="M101.345 33.2084L101.302 33.2312C101.183 33.2936 101.141 33.3294 101.007 33.3226C100.977 33.3923 100.978 33.358 100.987 33.4254C101.324 33.8834 101.732 34.4128 102.02 34.8927C102.079 34.8492 102.162 34.7422 102.214 34.6808C102.25 34.5026 102.135 34.3396 102.047 34.1738C101.806 33.8156 101.618 33.5415 101.345 33.2079" fill="#737889"/>
<path d="M49.6861 68.5866L49.2916 68.8748L50.0651 70.1375L50.1583 70.1546C50.3022 69.7295 49.7363 69.4043 49.6861 68.5866Z" fill="#212226"/>
<path d="M41.9291 63.578L41.8332 63.5444C41.7383 63.4041 41.6606 63.2547 41.6002 63.0964L41.5465 63.1274L34.0392 67.4568C33.4798 67.7798 30.4333 69.4344 30.3198 69.7627C30.2723 70.0814 30.2544 70.1828 30.2837 70.4996L30.1395 70.5773C29.9806 70.5404 29.9235 70.5741 29.772 70.6295C29.5187 71.042 30.022 71.7114 30.4931 71.7821C30.5564 71.7414 30.5866 71.6816 30.6283 71.6178C30.9197 71.6734 31.2042 71.6232 31.5024 71.6172C31.6391 71.8601 31.9704 72.3966 32.0106 72.6479L32.0061 72.6798C31.988 72.8243 31.9925 72.885 32.0012 73.0301C31.9076 72.9799 31.8808 72.9745 31.8209 72.884C31.8082 72.7488 31.4278 71.9779 31.3439 71.7893C31.1125 71.8256 30.869 71.8577 30.6453 71.9194C30.1054 72.1436 29.2789 72.6096 28.7995 72.9531L28.5718 72.7009C28.3318 72.0623 28.9331 72.2129 28.5482 71.4619C28.4164 71.4504 28.0451 71.7788 28.0186 71.8775C27.6013 73.4302 28.9873 75.5334 29.4945 76.8297C29.3695 76.6217 29.3184 76.4934 29.1023 76.3853C28.5948 75.4605 27.9556 73.9464 27.7801 72.8959C27.7392 72.6554 27.7798 72.0154 27.6248 71.9082C27.4447 72.0212 27.5075 71.9662 27.3897 72.1788C27.5177 74.487 28.5432 76.2403 29.6423 78.2138C29.8279 78.5474 30.3934 79.4547 30.5232 79.7516C30.6338 79.9227 30.751 80.1137 30.8687 80.2779C31.0014 80.6232 31.1247 80.8175 31.3122 81.1326C34.5468 79.3186 37.7667 77.4311 40.9665 75.5566C43.6279 73.9971 46.4262 72.4726 49.0543 70.8795L49.0522 70.8445L48.9975 70.8678C48.7961 70.5454 48.6293 70.2636 48.3859 69.9697C47.3167 68.2695 46.3268 66.5213 45.4181 64.7306C45.0072 63.9286 44.7063 63.1486 44.2618 62.3522L44.1954 62.3481C43.9555 62.4851 43.7369 62.6565 43.5466 62.8568C43.4434 62.9671 43.5147 63.1255 43.5487 63.2866C43.4471 63.0818 43.4181 63.0304 43.3723 62.8066L43.291 62.75L43.3414 62.764L43.2832 62.8004L43.3055 63.1761L43.2154 63.1127C43.3009 63.374 43.3297 63.5395 43.5923 63.6716L43.6025 63.7796L43.2542 63.7736C43.1098 63.4392 43.0018 63.0317 42.6945 62.8956C42.4934 62.9325 42.4556 62.9779 42.3062 63.1079C42.2529 63.3514 42.4142 63.5322 42.4733 63.8018L42.3771 63.7267L42.297 63.7903L42.2029 63.7501L42.0894 63.4632L42.012 63.4495L41.9291 63.578Z" fill="#383D48"/>
<path d="M41.5463 63.1268L34.0393 67.4568C33.4799 67.7798 30.4334 69.4344 30.3198 69.7627C30.2723 70.0814 30.2544 70.1828 30.2832 70.4999L30.139 70.5776C29.9806 70.5404 29.9235 70.574 29.7715 70.6298C29.5187 71.042 30.022 71.7114 30.4926 71.7824C30.5565 71.7414 30.5861 71.6819 30.6283 71.6178C30.9197 71.6734 31.2042 71.6232 31.5019 71.6175C31.6392 71.86 31.9699 72.3968 32.0101 72.6482C32.131 72.9239 32.1612 72.8738 32.1016 73.1112C31.9252 73.3451 31.6002 73.466 31.3464 73.6237C31.5648 74.1343 32.053 75.3316 32.3402 75.7664C32.432 75.7412 32.5481 75.7965 32.6544 75.829C33.0179 75.7241 36.1057 73.8871 36.6032 73.5978C38.7965 72.3231 41.0669 71.0471 43.2522 69.7465C43.5165 69.5891 43.8358 69.3644 44.0415 69.133C44.1062 68.9406 43.994 68.7642 43.9099 68.5681C43.7054 68.2837 43.1237 67.2605 43.2187 66.9193L43.135 66.7828C42.9287 66.783 42.2885 67.1707 42.0643 67.2953C41.7903 66.8473 41.5955 66.4002 41.3779 65.9259C41.6492 65.4746 41.807 65.2195 42.2409 64.8959C42.0533 64.412 41.8459 63.8325 41.6165 63.3761L41.5463 63.1268Z" fill="url(#paint7_linear_3252_8769)"/>
<path d="M41.5463 63.1268L34.0393 67.4568C33.4799 67.7798 30.4334 69.4344 30.3199 69.7627C30.8378 69.6521 40.6792 64.0209 41.6171 63.3758L41.5463 63.1268Z" fill="#606471"/>
<path d="M30.1389 70.5776C29.9805 70.5404 29.9235 70.5741 29.7715 70.6299C29.5187 71.042 30.022 71.7114 30.4925 71.7824C30.5564 71.7414 30.586 71.6819 30.6283 71.6179C30.4877 71.2215 30.393 70.9057 30.2828 70.4994L30.1389 70.5776Z" fill="#383D48"/>
<path d="M30.283 70.4993L30.1388 70.577L30.4937 71.7818C30.5566 71.7413 30.5867 71.6815 30.6284 71.6178C30.4879 71.2214 30.3931 70.9056 30.283 70.4993Z" fill="#060607"/>
<path d="M41.9284 63.5783L41.8326 63.5446C41.738 63.4041 41.6605 63.2547 41.6001 63.0963L41.5464 63.1273L41.6164 63.3761C41.8453 63.8327 42.0532 64.412 42.2408 64.8959C41.8066 65.2189 41.649 65.4746 41.3775 65.9254C41.5954 66.4002 41.7905 66.8478 42.0639 67.2947C42.2884 67.1707 42.9286 66.783 43.1349 66.7827L43.2186 66.9193C43.1236 67.2605 43.7053 68.2836 43.9093 68.5683C43.9944 68.7639 44.1061 68.9406 44.0408 69.1333C43.8357 69.3643 43.5164 69.589 43.2521 69.7465C41.0668 71.0471 38.7964 72.3231 36.6034 73.5983C36.1056 73.8871 33.0178 75.7241 32.6546 75.8295C32.548 75.7965 32.4316 75.7406 32.3401 75.7664C32.0529 75.3316 31.5646 74.1343 31.3466 73.6241C31.6001 73.466 31.9248 73.3445 32.1017 73.1117C32.1608 72.8732 32.1309 72.9238 32.01 72.6482L32.006 72.6797C31.9879 72.8243 31.9924 72.885 32.0011 73.0301C31.9069 72.9802 31.8807 72.9745 31.8203 72.8842C31.8076 72.7491 31.4277 71.9779 31.3433 71.7896C31.1124 71.8255 30.8684 71.858 30.6453 71.9194C30.1048 72.1438 29.2791 72.6101 28.7994 72.9531L28.5718 72.7008C28.8089 73.4439 29.4501 75.0228 30.2293 75.3237C30.367 75.2734 30.4169 75.2502 30.5611 75.2315C30.8644 75.5569 30.8092 76.0705 31.2238 76.2107C31.3934 76.1433 31.4419 76.1334 31.546 75.9802C31.6932 75.3947 30.9574 75.0389 31.3127 74.6502L31.5349 74.6005C31.6944 74.7239 32.4094 76.3367 32.5205 76.6013C34.2066 75.7954 36.8804 74.1418 38.5734 73.1637L42.0693 71.1425C43.1761 70.5021 44.327 69.9336 45.2506 69.0639L45.2628 69.02L44.8571 69.2564L44.7831 69.2643C44.6112 69.1182 43.8257 67.6302 43.8339 67.394L44.1673 67.1779C44.4441 67.3239 44.3713 67.5397 44.6604 67.6613C44.7474 67.8106 44.8267 67.9372 44.888 68.0999L44.8336 68.1466L44.8695 68.2183L45.031 68.214C45.261 68.0729 45.2165 68.1403 45.3405 67.9193C45.367 67.4174 44.7334 67.2194 44.9469 66.6152C45.0578 66.5206 45.0829 66.5075 45.2179 66.4476L45.2518 66.4329C45.3638 66.1284 44.9991 65.5473 44.8552 65.2619C44.778 65.1765 44.7714 65.1601 44.6561 65.135L44.4815 65.2816C44.1096 65.1648 44.1146 64.4716 43.7277 64.1229L43.6019 63.7799L43.2542 63.7735C43.1087 63.4397 43.0017 63.0316 42.6939 62.8958C42.4927 62.9327 42.4555 62.9778 42.3061 63.1079C42.2522 63.3517 42.4141 63.5321 42.4732 63.8018L42.377 63.7266L42.2969 63.7902L42.2028 63.75L42.0893 63.4631L42.0119 63.4495L41.9284 63.5783Z" fill="#060607"/>
<path d="M44.3059 68.9986C44.1765 68.8154 44.1032 68.6825 43.9095 68.5684C43.9946 68.764 44.1063 68.9407 44.041 69.1334C43.8359 69.3644 43.5166 69.5891 43.2523 69.7466C41.067 71.0472 38.7966 72.3232 36.6036 73.5984C36.1058 73.8872 33.0179 75.7242 32.6548 75.8296C32.5482 75.7966 32.4318 75.7407 32.3403 75.7665C32.4205 75.9523 32.4725 76.158 32.6375 76.2476C32.9909 76.1179 34.4288 75.2446 34.8612 74.9943L39.8294 72.1218L42.8809 70.3627C43.2069 70.1773 44.2195 69.6267 44.4604 69.4383C44.48 69.2268 44.4289 69.2237 44.3056 68.9994" fill="#768091"/>
<path d="M30.6454 71.9195C30.1055 72.1436 29.2793 72.6102 28.7996 72.9532C28.9324 73.2832 29.0875 73.6038 29.2639 73.9127C29.7316 73.6392 30.3555 73.2498 30.8369 73.0337C31.2079 72.9599 31.4427 72.9175 31.821 72.884C31.8083 72.7488 31.4279 71.9779 31.344 71.7893C31.1126 71.8256 30.8691 71.8578 30.6454 71.9195Z" fill="#555964"/>
<path d="M31.3436 71.7889C31.1122 71.8251 30.869 71.8578 30.6454 71.9195L30.7539 71.9667C30.6643 72.0678 30.6415 72.0789 30.527 72.154C30.4908 72.3862 30.7361 72.7882 30.8369 73.0338C31.2079 72.96 31.4427 72.9176 31.8209 72.8841C31.8082 72.7489 31.4275 71.9775 31.3436 71.7889ZM30.2759 72.3017C29.8737 72.5201 29.3402 72.6821 29.1419 73.0538C29.0981 73.2633 29.2393 73.4549 29.3468 73.6494C29.7522 73.4028 30.1633 73.1314 30.5649 72.8745L30.2759 72.3017Z" fill="#383D48"/>
<path d="M43.2545 63.7741C43.1087 63.4398 43.0017 63.0317 42.6941 62.8951C42.4933 62.9325 42.4553 62.9774 42.3061 63.1079C42.2528 63.3515 42.4141 63.5322 42.4732 63.8018L42.6184 64.1003C42.9142 64.0227 42.9999 63.9496 43.2545 63.7741Z" fill="#768091"/>
<path d="M44.1847 66.5299C44.321 66.8599 44.5084 67.353 44.6612 67.661C44.7476 67.8107 44.8274 67.9369 44.8882 68.1C44.9983 68.0378 45.008 68.0197 45.0933 67.9231C45.0979 67.541 44.7818 67.0103 44.5562 66.711C44.4182 66.5286 44.3856 66.5564 44.1847 66.5299Z" fill="#8B9399"/>
<path d="M43.6019 63.78C43.3133 63.9279 42.5257 64.2637 42.455 64.5555L42.5317 64.6642C42.7857 64.6683 43.3724 64.242 43.7277 64.1231L43.6019 63.78Z" fill="#434754"/>
<path d="M44.1846 66.53L44.072 66.424C43.8295 66.4507 43.9028 66.4091 43.7579 66.5518C43.746 66.8249 43.8866 67.1059 44.1679 67.1777C44.4443 67.324 44.3714 67.5398 44.6611 67.6611C44.5083 67.3531 44.3212 66.8605 44.1846 66.53Z" fill="#20222A"/>
<path d="M43.2187 66.9193C43.1238 67.2605 43.7055 68.2836 43.9094 68.5683C44.1032 68.6824 44.177 68.815 44.3053 68.9987C44.1094 68.5113 43.4991 67.3531 43.2187 66.9193Z" fill="#737889"/>
<path d="M42.4734 63.8018L42.3771 63.7266L42.2971 63.7902L42.203 63.75L42.0895 63.4631L42.012 63.4495L41.9291 63.578C42.0666 63.8642 42.1112 64.0859 42.3678 64.2005C42.4178 64.1787 42.5754 64.1099 42.6189 64.1008L42.4734 63.8018Z" fill="url(#paint8_linear_3252_8769)"/>
<path d="M43.6286 64.3158C43.0752 64.6268 42.5284 64.9495 41.9886 65.2835C41.7797 65.5598 41.7243 65.653 41.5765 65.9663C41.6763 66.1874 41.8758 66.6798 42.0243 66.8395L42.1133 66.7769L42.1929 66.7366C42.2363 66.5711 42.3025 66.5051 42.4046 66.3689C42.9267 65.9007 43.7204 65.6704 44.1661 65.2421C44.0783 65.1357 43.7188 64.4758 43.6286 64.3158Z" fill="#434754"/>
<path d="M41.9883 65.283C41.7797 65.5598 41.7244 65.6529 41.5768 65.9668C41.6763 66.1874 41.8758 66.6798 42.0243 66.8394L42.1133 66.7769L42.0756 66.7236C42.0659 66.5394 42.2673 66.225 42.3633 66.018C42.2113 65.8028 42.0644 65.5351 41.9883 65.283Z" fill="#383D48"/>
<path d="M44.1655 65.2423L43.9545 65.0791L43.8729 65.0991C43.6896 65.4413 42.7411 65.8694 42.3633 66.018C42.2673 66.225 42.0663 66.5391 42.0765 66.723L42.1143 66.7763L42.1928 66.7365C42.2363 66.571 42.3024 66.505 42.4046 66.3688C42.9272 65.9003 43.7193 65.671 44.1655 65.2423Z" fill="#555964"/>
<path d="M44.4044 65.3741C43.9874 65.6392 43.5318 65.7591 43.238 66.1087C43.2064 66.3223 43.2453 66.2971 43.3819 66.5324C43.7893 66.3111 44.2681 66.1459 44.5529 65.8181C44.591 65.589 44.555 65.6278 44.4044 65.3741ZM30.7757 73.7042L30.6501 73.4709C30.2774 73.3962 29.504 73.8337 29.4297 74.213L29.5793 74.4624C29.8641 74.3814 30.6774 73.9806 30.7757 73.7042Z" fill="#434754"/>
<path d="M30.775 73.7046C30.4957 73.6747 29.8831 74.1222 29.6483 74.2995C29.6306 74.3375 29.5845 74.4274 29.5786 74.4628C29.8634 74.3818 30.677 73.9815 30.775 73.7046Z" fill="#555964"/>
<path d="M30.7065 74.4018L30.5636 74.5636C30.5251 74.8798 31.0197 75.7593 31.1917 76.0778C31.2742 76.01 31.3878 75.9479 31.3853 75.8652C31.3749 75.4667 30.951 74.6819 30.7074 74.402" fill="url(#paint9_linear_3252_8769)"/>
<path d="M42.4046 66.3689C42.3022 66.5045 42.2363 66.5711 42.1929 66.7366L42.2427 66.7891L42.2281 66.9505C42.5143 66.9646 43.0364 66.5867 43.1602 66.322L43.1016 66.2313C42.8242 66.1663 42.6664 66.2602 42.4046 66.3689ZM30.2084 74.3856C30.0536 74.4667 29.9458 74.499 29.8683 74.6501C29.9398 74.8835 30.1161 74.9853 30.3159 75.1702C30.4333 74.9232 30.3396 74.7513 30.293 74.4286L30.2084 74.3856Z" fill="#212226"/>
<path d="M29.1017 76.3855C28.5952 75.4601 27.9555 73.9464 27.78 72.8959C27.7392 72.6553 27.7792 72.0156 27.6247 71.9081C27.4441 72.0215 27.5074 71.9661 27.3896 72.1787C27.5176 74.487 28.5428 76.2397 29.6422 78.2138C29.8278 78.5473 30.3928 79.4549 30.5231 79.7516C30.6337 79.9227 30.7509 80.1136 30.8681 80.2781C31.0013 80.6232 31.1241 80.8178 31.3126 81.1323C34.5462 79.3189 37.7667 77.4311 40.9658 75.5569C43.6278 73.9971 46.4261 72.4725 49.0542 70.8794L49.0516 70.8448L48.9974 70.8677C48.796 70.5454 48.6286 70.2639 48.3858 69.9697C45.9133 71.4736 43.3016 72.9301 40.7874 74.3809C37.636 76.2259 34.4724 78.0489 31.2966 79.85C30.6474 78.9145 30.0429 77.8267 29.4939 76.8299C29.3694 76.6216 29.3178 76.4937 29.1017 76.3855Z" fill="#20222A"/>
<path d="M29.1019 76.3856C28.5954 75.4602 27.9557 73.9464 27.7802 72.8959C27.7388 72.6557 27.7794 72.0157 27.6244 71.9085C27.4442 72.0215 27.5075 71.9662 27.3898 72.1788C27.5178 74.487 28.543 76.2398 29.6423 78.2138C29.828 78.5474 30.393 79.455 30.5233 79.7517C30.6601 79.902 30.7263 79.9889 30.9047 80.0896C31.0182 80.0755 31.1024 80.0672 31.2131 80.0388C30.353 78.6815 29.8432 77.8129 29.1019 76.3856Z" fill="url(#paint10_linear_3252_8769)"/>
<path d="M29.4939 76.83C29.3695 76.6217 29.3184 76.4934 29.1023 76.3853C29.8436 77.8126 30.3535 78.6812 31.2133 80.0393C31.1028 80.0669 31.0186 80.0752 30.9046 80.0896C30.727 79.9892 30.6603 79.9012 30.5237 79.7514C30.6338 79.9228 30.751 80.1137 30.8682 80.2782C31.0014 80.6232 31.1242 80.8179 31.3127 81.1324C34.5463 79.319 37.7667 77.4311 40.9659 75.557C43.6278 73.9972 46.4262 72.4726 49.0543 70.8795L49.0517 70.8449L48.9975 70.8678C48.6959 70.987 47.6287 71.631 47.2899 71.8279L43.9634 73.7513L31.8867 80.73C31.6862 80.4393 31.4895 80.146 31.2967 79.8501C30.6474 78.9146 30.043 77.8268 29.4939 76.83Z" fill="#060607"/>
<path d="M31.213 80.0387C31.1028 80.0669 31.0189 80.0757 30.9046 80.0896C30.727 79.9892 30.6602 79.9012 30.5237 79.7513C30.6338 79.9227 30.7509 80.1137 30.8682 80.2782C31.0682 80.5693 31.208 80.9029 31.5867 80.899L31.6466 80.7741C31.6177 80.4759 31.4087 80.2754 31.213 80.0387Z" fill="#383D48"/>
<path d="M43.549 63.2871C43.4471 63.0817 43.4181 63.0303 43.3723 62.8065L43.291 62.7499L43.3415 62.7639L43.2832 62.8003L43.3045 63.1766L43.2149 63.1129C43.3009 63.374 43.3292 63.5397 43.5918 63.6718L43.602 63.7799L43.7278 64.1229C44.1147 64.4716 44.1097 65.1648 44.4816 65.2816L44.6562 65.135C44.7715 65.1601 44.7776 65.1767 44.8553 65.2619C44.7532 64.8058 44.1129 63.7546 43.6907 63.5458C43.6546 63.5278 43.5732 63.335 43.549 63.2871Z" fill="#20222A"/>
<path d="M46.5209 68.2298C46.35 67.8975 45.9039 66.9901 45.6549 66.7876C45.7718 67.2526 46.0683 67.73 46.3088 68.1465C45.9203 68.4007 44.8617 68.9028 44.7573 69.1771L44.8573 69.2564L45.263 69.02C45.5273 68.7771 46.185 68.4161 46.5209 68.2298Z" fill="#737889"/>
<path d="M86.2581 46.5944C86.1407 46.4404 86.0541 46.2784 85.8804 46.2327C85.5424 46.3793 84.5767 47.0063 84.1883 47.2354L80.371 49.4608L66.634 57.4767C66.1122 57.7794 61.501 60.4514 61.4254 60.607C61.4661 60.7051 61.5066 60.8054 61.5523 60.9014L61.859 61.3965L62.1449 61.8737L62.5827 62.6164L78.9052 53.1995C81.5657 51.6649 84.239 50.1249 86.8942 48.5787C86.9779 48.5345 87.0427 48.4616 87.0766 48.3733C87.0947 48.1794 87.0138 48.0092 86.946 47.8231C86.6895 47.3873 86.6041 47.0203 86.2581 46.5944Z" fill="#768091"/>
<path d="M62.1455 61.874L62.5825 62.6164L78.905 53.1996C81.5654 51.665 84.2388 50.125 86.894 48.5788C86.9878 48.5246 87.0306 48.4735 87.0759 48.3737C87.0944 48.1795 87.0135 48.0093 86.9457 47.8232C86.2269 48.2806 85.1719 48.8335 84.4119 49.2653L79.6322 51.9971L62.1455 61.874Z" fill="#20222A"/>
<path d="M86.258 46.5943C86.3727 46.8061 86.4738 46.9042 86.4565 47.1102C86.1534 47.4569 81.2092 50.2106 80.4147 50.6707L61.8594 61.3961L62.1449 61.8736L79.6327 51.9974L84.412 49.2651C85.172 48.8333 86.2271 48.2804 86.9459 47.823C86.6894 47.3872 86.604 47.0202 86.258 46.5943ZM86.258 46.5943C86.1407 46.4403 86.0538 46.2778 85.88 46.2321C85.542 46.3786 84.5763 47.0057 84.188 47.2348L80.3707 49.4602L66.6336 57.4761C66.1118 57.7788 61.5006 60.4508 61.425 60.6063C61.4657 60.7045 61.5062 60.8048 61.5519 60.9008L86.258 46.5943ZM83.6941 42.3822L68.4249 51.207C65.7928 52.7329 62.9821 54.259 60.4064 55.8573L60.8749 56.6809L61.0932 57.1457C60.8953 57.1905 60.0705 57.7376 59.8449 57.8804L60.1795 58.4539C68.4111 53.7271 76.7819 49.2425 85.0086 44.4976C84.7897 44.086 84.5637 43.5054 84.2787 43.1576C84.0939 42.9001 83.9028 42.6184 83.6941 42.3822Z" fill="#383D48"/>
<path d="M83.6945 42.3828L68.4252 51.2076C65.7931 52.7335 62.9824 54.2596 60.4067 55.8579L60.8753 56.6815C66.1798 53.567 71.5018 50.4828 76.8413 47.4287C79.2267 46.0606 81.874 44.4321 84.2791 43.1582C84.0942 42.9007 83.9031 42.619 83.6945 42.3828Z" fill="#383D48"/>
<path d="M84.279 43.1583C81.8739 44.4322 79.2269 46.0612 76.8412 47.4288C71.5018 50.4829 66.1796 53.5672 60.8751 56.6816L61.0935 57.1464L61.1261 57.1693C61.3577 57.1767 65.6341 54.6159 66.1875 54.2957L79.8297 46.3937L83.1212 44.4892C83.3902 44.3339 84.2931 43.8473 84.4588 43.6961C84.4712 43.4456 84.4058 43.4166 84.279 43.1583Z" fill="#768091"/>
<path d="M57.5986 54.7001C56.953 56.917 57.7459 56.8047 55.2625 58.5075C56.5686 60.9683 58.2758 63.5618 59.7238 65.9602C59.9942 66.4081 61.0239 68.1639 61.2896 68.4171L61.4479 68.3938C61.9716 68.1089 64.0495 66.8258 64.4374 66.738C64.5211 66.8072 64.5628 66.8589 64.6703 66.8621C64.2806 66.0702 63.6606 65.0734 63.2081 64.2933L60.8146 60.1574L58.857 56.7811C58.4752 56.1222 58.0389 55.3002 57.5986 54.7001Z" fill="url(#paint11_linear_3252_8769)"/>
<path d="M82.7915 41.6315C82.6686 41.4223 82.6054 41.2719 82.3572 41.2309C81.8096 41.39 79.0932 43.0674 78.3764 43.4813L67.6516 49.6642L62.664 52.539C61.8507 53.0085 60.9674 53.4941 60.1813 54.0119C59.9776 54.1455 60.1385 54.2243 60.0918 54.4925C60.0666 54.6356 59.9095 54.7006 59.7631 54.8046L60.0255 55.235C60.1485 55.4239 60.1556 55.5157 60.3301 55.5735C61.3309 55.0555 62.4752 54.3586 63.4687 53.7871L69.2393 50.4589C73.8369 47.8066 78.5915 45.1373 83.1407 42.4218C83.182 42.2117 83.1167 42.1973 82.9871 41.9558L82.7915 41.6315Z" fill="#383D48"/>
<path d="M82.9869 41.9559C82.5131 42.3295 81.1008 43.1004 80.5304 43.4297L75.7472 46.1914C70.5557 49.1887 65.2547 52.3347 60.0248 55.2353C60.1478 55.4243 60.1554 55.5158 60.3299 55.5735C61.3301 55.0558 62.475 54.3587 63.4685 53.7872L69.2392 50.459C73.8367 47.8067 78.5913 45.1374 83.1405 42.4219C83.1819 42.2117 83.1165 42.1973 82.9869 41.9559Z" fill="#383D48"/>
<path d="M82.7913 41.6315L67.525 50.4288L63.1443 52.9594C62.0342 53.6024 60.9337 54.2836 59.7629 54.8046L60.0253 55.2349C65.2547 52.3346 70.5557 49.1886 75.7472 46.1913L80.5304 43.4296C81.1008 43.1003 82.5131 42.3294 82.9869 41.9558L82.7913 41.6315Z" fill="#768091"/>
<path d="M102.365 36.9602C100.909 37.9077 89.488 44.2812 89.2602 44.574C89.208 44.7919 89.2403 44.7551 89.3484 45.0062C89.4782 45.308 89.713 45.7147 89.8103 45.9796L89.9757 46.2504C90.1558 46.2855 90.2568 46.2508 90.4105 46.1475C91.4451 45.4521 103.146 38.8571 103.166 38.6816C103.177 38.5777 103.116 38.4255 103.088 38.3236C103.03 37.8855 102.615 37.3349 102.365 36.9602Z" fill="#383D48"/>
<path d="M102.74 37.7892C102.649 37.5632 102.691 37.5599 102.522 37.4528C102.254 37.5274 99.4519 39.1779 99.0143 39.4312L89.3483 45.0063C89.4323 45.1552 89.458 45.2106 89.5861 45.3326C89.8284 45.3526 101.596 38.5 102.74 37.7892Z" fill="#768091"/>
<path d="M89.8103 45.9795L89.9757 46.2503C90.1558 46.2854 90.2568 46.2507 90.4105 46.1474C91.4451 45.452 103.146 38.8569 103.166 38.6815C103.177 38.5775 103.116 38.4253 103.087 38.3238L89.8103 45.9795Z" fill="#212226"/>
<path d="M100.638 33.7935C100.419 33.5871 100.503 33.609 100.237 33.5673C99.9482 33.6369 96.9185 35.4904 96.3866 35.8009L87.1011 41.1717C87.2034 41.3441 87.4039 41.7093 87.533 41.8378L87.6001 41.9047L87.8113 42.2693C87.9434 42.3752 88.0217 42.4892 88.1262 42.6221C89.1133 42.1537 101.035 35.2277 101.193 35.0159C101.26 34.9272 101.176 34.6755 101.161 34.5604C101.077 34.4247 101.001 34.3338 100.903 34.2105L100.638 33.7935Z" fill="#383D48"/>
<path d="M100.638 33.7935C100.419 33.5871 100.503 33.609 100.237 33.5673C99.9482 33.6369 96.9185 35.4904 96.3866 35.8009L87.1011 41.1717C87.2034 41.3441 87.4039 41.7093 87.533 41.8378L87.6001 41.9047L100.903 34.2105L100.638 33.7935Z" fill="#737889"/>
<path d="M100.638 33.7935C100.419 33.5871 100.503 33.609 100.237 33.5673C99.9482 33.6369 96.9185 35.4904 96.3866 35.8009L87.1011 41.1717C87.2034 41.3441 87.4039 41.7093 87.533 41.8378C87.4673 41.7321 87.4173 41.6201 87.3828 41.5019C87.4736 41.3521 99.4137 34.4557 100.638 33.7935Z" fill="#383D48"/>
<path d="M101.161 34.5603C98.674 36.1247 95.6757 37.7641 93.1145 39.2407L89.5238 41.3048C89.0807 41.5571 88.2462 42.0632 87.8111 42.2693C87.9431 42.3751 88.0211 42.4886 88.126 42.622C89.113 42.1536 101.035 35.2276 101.193 35.0153C101.26 34.9271 101.176 34.6754 101.161 34.5603ZM28.8518 77.4953C28.7944 77.3248 28.6308 77.0703 28.4835 76.9537C28.1757 77.0863 27.0473 77.7301 26.8105 77.9328C25.983 78.4523 25.1152 78.9311 24.2636 79.4123L24.4388 80.0084C24.5597 80.2298 24.6951 80.468 24.8088 80.6915C24.9735 80.9453 25.1313 81.2164 25.3541 81.4193L25.2719 81.5947C24.9062 81.4874 24.7048 80.5666 24.3926 80.4257L24.3326 80.37C24.2746 80.2213 24.2445 80.1824 24.1553 80.0483C23.9776 80.032 19.5093 82.5458 19.3099 82.8541L19.2649 82.9483C19.4564 83.4258 19.7828 84.0513 20.1305 84.4296C20.5195 84.4928 20.6824 84.1214 21.0596 84.1136C21.0187 84.1559 20.9818 84.1932 20.9587 84.2483L21.0317 84.2423C21.8529 83.8515 24.9768 81.8012 25.5307 81.8852C25.7326 81.9147 25.8696 81.9364 26.0628 81.8533C26.1927 81.7978 26.3294 81.7529 26.4613 81.7032C26.394 81.6419 26.3425 81.6467 26.2499 81.6403L26.1974 81.6373C26.4514 81.3621 26.7543 81.2546 27.0267 81.0354C27.8778 80.3508 28.9161 79.8821 29.7921 79.2755C29.8248 78.9904 29.4325 78.3 29.2201 78.1043C29.072 77.9319 28.96 77.6983 28.8513 77.4956" fill="#20222A"/>
<path d="M28.852 77.4953C28.7946 77.3248 28.631 77.0703 28.4837 76.9538C28.1759 77.0863 27.0475 77.7301 26.8107 77.9329C25.9837 78.4521 25.1154 78.9311 24.2637 79.4124L24.4389 80.0085C24.5599 80.2299 24.6952 80.468 24.8095 80.6912C24.9742 80.9451 25.1315 81.2164 25.3543 81.4193C25.7126 81.0971 28.3025 79.704 28.8774 79.3825C28.7626 79.1054 28.6063 78.7842 28.4799 78.5075L29.221 78.1032C29.0732 77.9314 28.9594 77.6982 28.852 77.4953Z" fill="#383D48"/>
<path d="M24.8089 80.6914C25.9534 80.0105 27.3007 79.2584 28.4025 78.5528L28.4217 78.4235C28.3248 78.2556 28.2409 78.0538 28.0782 77.9767C27.7071 78.0972 25.048 79.6873 24.4389 80.0084C24.5598 80.2298 24.6952 80.4679 24.8089 80.6914Z" fill="#768091"/>
<path d="M28.8527 77.495C28.7948 77.3247 28.6312 77.0703 28.4844 76.9534C28.1761 77.0862 27.0477 77.7301 26.8115 77.9325C27.0941 77.7839 27.5849 77.4421 27.8422 77.4097L27.9717 77.451C28.1035 77.7155 28.0465 77.713 28.2583 77.7909C28.4822 77.7645 28.6621 77.621 28.8527 77.495Z" fill="#20222A"/>
<path d="M24.3329 80.3699C24.2749 80.2213 24.2448 80.1824 24.1556 80.0483C23.9774 80.0323 19.5096 82.5458 19.3102 82.8541C19.4137 82.9876 19.4256 83.0058 19.4643 83.1691L19.6777 83.6061C21.2418 82.6335 22.9437 81.6948 24.5401 80.7432L24.3929 80.4257L24.3329 80.3699Z" fill="#768091"/>
<path d="M24.333 80.37C24.275 80.2214 24.2448 80.1825 24.1556 80.0484C23.9783 80.0326 19.5097 82.5458 19.3108 82.8539C19.4143 82.9874 19.4256 83.0058 19.4643 83.1691C19.8342 82.9152 21.0496 82.2295 21.4666 82.0019C22.2391 81.581 23.6199 80.6663 24.333 80.37ZM24.5409 80.7435C22.9442 81.6945 21.2427 82.6338 19.6785 83.6064C19.769 83.721 19.7864 83.7331 19.903 83.8243C21.5209 82.9551 23.1189 82.0501 24.6972 81.1092C24.6999 80.9478 24.6356 80.9015 24.5412 80.7426M84.9434 39.345C84.4642 39.6105 82.8253 40.4428 82.5189 40.6718L82.5668 40.7248C83.8645 41.908 85.0193 43.5783 85.8995 45.1005C86.1888 45.6509 86.694 46.5416 86.9335 47.0804C87.1263 47.5348 87.3038 47.9926 87.5792 48.4022L87.6626 48.4167C87.6825 48.2453 87.6048 48.1094 87.5352 47.9529C88.2209 47.5452 88.9486 47.1466 89.6457 46.7538C89.6574 46.7934 89.6703 46.8326 89.6843 46.8713C89.7398 47.0276 89.9072 47.3717 90.0591 47.4446C90.1081 47.2321 89.8627 46.7565 89.7553 46.5633C89.5564 45.8997 88.1273 43.2776 87.7157 42.6839L87.0747 41.6867C86.5687 40.9681 86.0144 40.2657 85.3792 39.6578C85.3212 39.5912 85.0348 39.4069 84.9434 39.345Z" fill="#383D48"/>
<path d="M89.7545 46.5644C89.5556 45.9007 88.1265 43.2787 87.7149 42.685C87.7695 42.9468 87.7959 42.871 87.6771 43.0565C87.0156 43.443 86.3569 43.8344 85.7011 44.2307C85.9447 44.708 86.1996 45.1941 86.4274 45.6777C86.3048 45.6268 86.0681 45.2721 85.8987 45.1015C86.188 45.6519 86.6932 46.5426 86.9326 47.0814C87.1255 47.5359 87.3027 47.9932 87.5784 48.4033L87.6618 48.4177C87.6817 48.2463 87.6039 48.1105 87.5344 47.9539C88.2201 47.5462 88.9478 47.1476 89.6449 46.7549C89.6566 46.7945 89.6695 46.8336 89.6835 46.8723C89.739 47.0287 89.9063 47.3727 90.0582 47.4456C90.1072 47.2331 89.8619 46.7575 89.7545 46.5644Z" fill="#383D48"/>
<path d="M89.7546 46.5644C89.5557 45.9007 88.1266 43.2787 87.715 42.685C87.7696 42.9468 87.7961 42.871 87.6772 43.0564C87.82 43.3327 89.6691 46.5463 89.724 46.58L89.7546 46.5644ZM85.8988 45.1015C86.1881 45.6519 86.6933 46.5426 86.9328 47.0814L87.1588 47.0997C86.9019 46.7197 86.7704 46.138 86.4275 45.6777C86.305 45.6268 86.0682 45.2721 85.8988 45.1015Z" fill="#606471"/>
<path d="M86.9327 47.0814C87.1256 47.5359 87.3028 47.9932 87.5785 48.4033L87.6619 48.4177C87.6818 48.2464 87.604 48.1105 87.5345 47.9539C87.4343 47.6455 87.3002 47.3892 87.1588 47.0997L86.9327 47.0814Z" fill="#434754"/>
<path d="M84.8486 42.9795C84.2682 42.2559 83.6645 41.4825 82.9597 40.8745C82.7854 40.7243 82.7832 40.7109 82.5659 40.7258C83.8635 41.9091 85.0183 43.5793 85.8986 45.1016C86.068 45.2721 86.3047 45.6268 86.4273 45.6777C86.1995 45.1941 85.9445 44.708 85.7009 44.2307C86.357 43.8348 87.0157 43.4434 87.677 43.0565C87.7958 42.8711 87.7697 42.9473 87.7148 42.685L87.0738 41.6878L86.8383 41.782C86.5269 42.1036 85.2892 42.741 84.8486 42.9795Z" fill="url(#paint12_linear_3252_8769)"/>
<path d="M85.3784 39.6589C85.4199 40.0534 86.2188 40.8232 86.4501 41.1985C86.5008 41.2804 86.7866 41.7271 86.8384 41.782L87.0739 41.6878C86.5679 40.9692 86.0136 40.2667 85.3784 39.6589Z" fill="#606471"/>
<path d="M100.991 35.5776C99.7979 36.2663 88.4105 42.8339 88.3343 43.003L88.4714 43.2922L88.732 43.7882C88.7824 43.9079 88.9253 44.1494 88.9937 44.2739C93.15 41.7929 97.5538 39.3227 101.758 36.8928C101.532 36.4179 101.342 35.9719 100.991 35.5776Z" fill="#20222A"/>
<path d="M88.7323 43.7887C90.0144 42.9609 91.4106 42.2007 92.7425 41.44L98.1377 38.3356C98.6471 38.0428 101.21 36.7131 101.32 36.3534C101.232 36.2164 101.219 36.1928 101.079 36.1128C100.788 36.1958 99.5799 36.935 99.1991 37.1472C95.6117 39.1447 92.0153 41.2183 88.4713 43.2922L88.7323 43.7887ZM98.7797 32.2622C95.8463 33.8515 92.7039 35.7735 89.7936 37.4593L87.259 38.9157C86.8996 39.1204 86.1844 39.4889 85.8995 39.725L85.9072 39.8456L86.192 40.133C86.2894 40.2367 86.4005 40.3616 86.5031 40.4574L86.7211 40.7027C87.1113 40.768 87.5731 40.3568 87.9302 40.1506L90.7179 38.5425L99.4466 33.5064C99.5013 33.3748 99.3579 33.0975 99.2972 32.9407C99.1222 32.7241 98.9482 32.4853 98.7797 32.2622Z" fill="#383D48"/>
<path d="M99.2975 32.9408L99.2955 33.1637C98.8164 33.4993 97.9258 33.9746 97.3788 34.2841L93.9696 36.217L89.1835 38.9678C88.3516 39.4425 87.3543 40.0412 86.5033 40.4575L86.7214 40.7028C87.1115 40.7681 87.5734 40.3568 87.9305 40.1507L90.7182 38.5426L99.4469 33.5065C99.5016 33.3749 99.3582 33.0976 99.2975 32.9408Z" fill="#212226"/>
<path d="M86.1923 40.1331C86.6432 39.9353 87.5148 39.4043 87.9739 39.1399L91.2453 37.2547C92.8662 36.3258 94.4816 35.3878 96.0915 34.4407C96.7889 34.0367 98.4466 33.1922 98.935 32.6899L98.9276 32.6059C98.1969 32.6913 88.9734 38.1875 87.5568 38.9942C87.0186 39.3008 86.4567 39.5606 85.9075 39.8457L86.1923 40.1331Z" fill="#768091"/>
<path d="M47.4508 58.6584L44.5712 60.33C44.7616 60.8588 44.9726 61.38 45.2036 61.8924C45.506 62.4609 45.7852 62.9997 46.1362 63.5415C46.326 63.8907 46.6522 64.3558 46.8973 64.6696C47.0758 64.9787 47.3738 65.401 47.6683 65.6077C47.8238 65.5639 50.2594 64.1924 50.4705 64.0392L50.5206 63.9297L50.4055 63.7459L50.443 63.9362C50.2055 63.8704 49.8202 63.2427 49.6696 63.0203C49.4033 62.7035 48.8194 61.9367 48.6886 61.5549C48.7108 61.5282 48.7287 61.4713 48.7432 61.4351C48.5996 61.1566 48.4616 60.8747 48.3294 60.5896C48.1422 60.2702 47.9896 59.9203 47.8345 59.5831C47.7154 59.2154 47.6159 59.0058 47.4508 58.6584Z" fill="#383D48"/>
<path d="M48.6887 61.5549C48.2423 61.8015 46.3081 62.823 46.1013 63.121C46.1048 63.2617 46.1164 63.4021 46.1363 63.5415C46.3261 63.8907 46.6523 64.3558 46.8974 64.6696C47.0759 64.9787 47.3739 65.401 47.6684 65.6077C47.8238 65.5639 50.2594 64.1924 50.4706 64.0392L50.5207 63.9297L50.4055 63.7459L50.4431 63.9362C50.2056 63.8704 49.8203 63.2427 49.6696 63.0203C49.4033 62.7035 48.8195 61.9367 48.6887 61.5549Z" fill="#383D48"/>
<path d="M49.6696 63.0198C48.7546 63.5662 47.8205 64.1395 46.8973 64.6691C47.0761 64.9787 47.3741 65.401 47.6683 65.6072C47.824 65.5639 50.2597 64.1924 50.4708 64.0392L50.5209 63.9297L50.4057 63.7459L50.4433 63.9362C50.2058 63.8704 49.8202 63.2422 49.6696 63.0198Z" fill="#20222A"/>
<path d="M47.8351 59.5837C47.7585 59.8002 47.8848 60.0478 47.9697 60.2984L45.2038 61.8925C45.5063 62.4609 45.7854 62.9998 46.1364 63.5416C46.1155 63.3813 46.1069 63.2833 46.102 63.1207C46.3083 62.823 48.243 61.8012 48.6889 61.5549C48.711 61.5282 48.7289 61.4713 48.7435 61.4351C48.5998 61.1566 48.4619 60.8748 48.3297 60.5896C48.1425 60.2702 47.9899 59.9204 47.8348 59.5831" fill="#768091"/>
<path d="M51.8299 57.3264C51.76 57.1006 51.8042 57.1362 51.6468 56.9887C50.6924 57.4487 48.985 58.5067 48.0116 59.0722C48.1687 59.3562 48.4943 59.9106 48.5857 60.1928C48.4933 60.0328 48.4106 59.8379 48.2589 59.7545C48.538 60.4185 49.9229 62.7052 50.4539 63.0868C50.7251 63.0797 51.995 62.1922 52.3214 62.0051C52.8986 61.6733 53.4745 61.3873 54.0748 61.0978C53.9291 60.8816 53.3139 59.9063 53.1691 59.7772L52.7378 59.0663L52.1663 58.0512L51.8299 57.3264Z" fill="#383D48"/>
<path d="M52.1663 58.0512L52.0337 58.2139C50.9862 58.9786 49.7154 59.4996 48.8084 60.1379C48.9831 60.484 49.1909 60.8124 49.4288 61.1186C50.2779 60.622 51.8887 59.6121 52.6818 59.239L52.7373 59.0666L52.1663 58.0512Z" fill="#768091"/>
<path d="M48.5863 60.1926C48.4939 60.0325 48.4108 59.8379 48.259 59.7545C48.5381 60.4185 49.923 62.7053 50.454 63.0868C50.7252 63.0797 51.9951 62.1922 52.3215 62.0052C52.8987 61.6733 53.4746 61.3874 54.0749 61.0978C53.9292 60.8816 53.314 59.9064 53.1693 59.7772C53.2635 59.9453 53.4774 60.2472 53.4481 60.3975C52.423 60.9456 51.3923 61.5671 50.3874 62.1563C49.9923 61.8019 49.1777 61.0447 48.8748 60.6356C48.8895 60.6973 49.0833 60.9511 49.1333 61.0195C48.8731 60.8097 48.7421 60.4926 48.5863 60.1926Z" fill="#20222A"/>
<path d="M52.7374 59.0667L52.6822 59.2396C52.7945 59.5279 53.2088 60.2251 53.4481 60.3976C53.4774 60.2472 53.2632 59.9448 53.1692 59.7773L52.7374 59.0667ZM51.8304 57.3271L51.7583 57.4333C51.8453 57.8418 51.9309 57.8925 52.0338 58.214L52.1665 58.0513L51.8304 57.3271Z" fill="#606471"/>
<path d="M22.6248 76.3282C19.1004 78.3506 12.9979 81.8432 9.32469 83.9932L9.29313 84.083L9.34126 84.1928L9.90036 85.1456L14.7093 82.3538C16.6579 81.2079 18.552 80.0109 20.594 79.0328C21.241 78.7232 21.9819 78.0187 22.6159 77.7647C22.8783 77.6173 23.0237 77.5813 23.1255 77.323C23.1134 77.0756 22.8256 76.6989 22.6791 76.4728L22.6248 76.3282Z" fill="#383D48"/>
<path d="M22.6248 76.3282C19.1004 78.3506 12.9979 81.8432 9.32469 83.9932L9.29313 84.083L9.34126 84.1928C9.62029 84.1416 21.8696 77.0813 22.6791 76.4728L22.6248 76.3282Z" fill="#606471"/>
<path d="M17.7539 80.8512C16.504 81.5638 14.4244 82.6742 13.295 83.4486L13.3051 83.5505C13.5134 83.8486 14.6939 84.6713 14.9971 84.8605C15.1781 84.9729 17.1441 83.7391 17.4393 83.5666C17.2029 83.1609 16.5963 82.2113 16.5241 81.8178C16.6678 81.8982 17.4885 83.5097 17.8095 83.8297C18.4419 84.7951 18.9757 85.8979 19.5938 86.8625L20.7489 86.2096C20.3082 85.456 19.7936 84.6152 19.3977 83.8477L19.4383 83.7589C18.9751 82.8676 18.2719 81.7388 17.7536 80.8507" fill="#20222A"/>
<path d="M18.0903 81.6838C17.7137 81.8985 17.3425 82.1216 16.9767 82.3532C17.2698 82.8513 17.5403 83.3173 17.8097 83.8297C18.4416 84.7953 18.976 85.8979 19.594 86.8625L20.7491 86.2095C20.3085 85.456 19.7938 84.6152 19.398 83.8476C19.121 83.5244 18.3215 82.0891 18.0903 81.6838Z" fill="#383D48"/>
<path d="M103.21 39.689C103.112 39.5328 103.041 39.386 102.876 39.3051C102.831 39.3155 102.787 39.3298 102.745 39.348C101.291 40.2219 99.8135 41.0599 98.3461 41.9099L91.6844 45.7595C91.3955 45.9298 90.2119 46.5033 90.1227 46.7376L90.2804 47.0914C90.3704 47.3279 90.3327 47.3553 90.5048 47.4499C91.283 47.1507 93.1462 45.9617 93.9363 45.5291C95.232 44.82 96.5566 44.0128 97.8352 43.2691L101.392 41.2106C101.915 40.9103 102.81 40.4393 103.258 40.1125C103.33 39.8987 103.301 39.9492 103.21 39.689Z" fill="#20222A"/>
<path d="M103.21 39.689L90.2805 47.0914C90.3705 47.3279 90.3327 47.3553 90.5048 47.4499C91.283 47.1507 93.1462 45.9617 93.9364 45.5291C95.2321 44.82 96.5567 44.0128 97.8352 43.2691L101.392 41.2106C101.915 40.9103 102.81 40.4394 103.258 40.1125C103.33 39.8987 103.301 39.9492 103.21 39.689ZM108.241 33.5744C107.062 34.3286 105.717 34.9714 104.523 35.7176C104.224 35.9041 103.962 36.035 103.679 36.2591C103.661 36.408 103.747 36.4996 103.831 36.6573L103.854 36.7379C103.948 37.0192 104.037 37.1695 104.178 37.425C104.208 37.6088 104.356 37.838 104.452 38.0068C105.134 37.6142 108.673 35.6333 109.017 35.2596L109.016 34.8848C108.818 34.2221 108.696 34.0943 108.241 33.5744Z" fill="#383D48"/>
<path d="M103.854 36.7373C103.933 36.8793 103.952 36.9026 104.067 37.0179C104.374 36.9367 108.128 34.722 108.591 34.4226C108.654 34.2487 108.628 34.2834 108.559 34.0694L108.47 34.0256C107.997 34.1322 104.5 36.2645 103.831 36.6567L103.854 36.7373Z" fill="#768091"/>
<path d="M104.178 37.425C104.208 37.6088 104.356 37.838 104.451 38.0068C105.133 37.6145 108.673 35.6333 109.017 35.2596L109.016 34.8848C108.469 35.214 104.552 37.5566 104.264 37.5504L104.178 37.425Z" fill="#212226"/>
<path d="M106.495 30.4209C106.306 30.2532 106.316 30.2073 106.104 30.1709L101.556 32.8289C101.674 33.0408 101.824 33.3414 101.988 33.509L102.045 33.5601L102.239 33.8756C102.349 34.0227 102.461 34.2234 102.611 34.2845C103.879 33.4333 105.718 32.5119 107.029 31.6454L107.092 31.5046L107.003 31.1992C106.915 31.0103 106.814 30.7478 106.663 30.6142L106.495 30.4209Z" fill="#768091"/>
<path d="M106.663 30.6141L106.724 30.7707C106.569 31.0216 102.582 33.2522 102.045 33.56L102.239 33.8755C102.349 34.0227 102.461 34.2233 102.61 34.2845C103.879 33.4332 105.718 32.5118 107.029 31.6454L107.092 31.5046L107.003 31.1992C106.915 31.0103 106.813 30.7478 106.663 30.6141Z" fill="#383D48"/>
<path d="M107.003 31.1998C106.406 31.565 102.653 33.8262 102.239 33.8756C102.349 34.0227 102.461 34.2234 102.61 34.2849C103.879 33.4333 105.718 32.5119 107.029 31.6454L107.091 31.5049L107.003 31.1998Z" fill="#20222A"/>
<path d="M106.495 30.4209C106.306 30.2532 106.316 30.2073 106.104 30.1709L101.556 32.8289C101.674 33.0408 101.824 33.3414 101.988 33.509C101.895 33.3511 101.843 33.282 101.82 33.0965C102.298 32.7579 103.262 32.2315 103.807 31.9213C104.645 31.4438 105.642 30.8311 106.495 30.4209ZM114.131 30.7024L113.766 30.4473C113.536 30.4449 112.652 31.036 112.39 31.1923C111.484 31.7217 110.575 32.2453 109.662 32.7631C109.631 32.9742 109.672 32.9588 109.793 33.1908L109.912 33.459C110.004 33.7121 110.148 33.9937 110.267 34.2401C110.283 34.3489 110.319 34.4044 110.368 34.5018L110.482 34.5225C111.552 33.9207 113.512 32.7547 114.613 32.0527C114.681 32.009 114.62 31.7731 114.604 31.6651C114.542 31.4089 114.481 31.3071 114.359 31.0711L114.131 30.7024Z" fill="#383D48"/>
<path d="M114.13 30.7028L113.766 30.4474C113.536 30.445 112.652 31.0361 112.39 31.1924C111.484 31.7218 110.575 32.2454 109.662 32.7632C109.631 32.9743 109.672 32.9589 109.793 33.1909L109.912 33.4591L110.036 33.5366C110.575 33.3727 113.786 31.4511 114.359 31.0713L114.13 30.7028Z" fill="#737889"/>
<path d="M114.13 30.7028L113.766 30.4474C113.536 30.4453 112.652 31.0361 112.39 31.1924C111.484 31.7218 110.575 32.2454 109.662 32.7631C109.631 32.9743 109.672 32.9589 109.793 33.1909C110.752 32.622 111.718 32.0654 112.691 31.5211C113.022 31.3319 113.819 30.8407 114.13 30.7028Z" fill="#383D48"/>
<path d="M114.603 31.6654C113.387 32.4785 111.303 33.4752 110.266 34.2401C110.283 34.3489 110.319 34.4044 110.368 34.5012L110.481 34.5228C111.551 33.921 113.512 32.7547 114.612 32.053C114.681 32.0092 114.62 31.7731 114.603 31.6654Z" fill="#20222A"/>
<path d="M112.075 27.1703C111.871 26.9848 111.937 26.9959 111.693 26.9372C110.553 27.5262 108.61 28.7084 107.473 29.4029C107.609 29.5841 107.741 29.7671 107.871 29.9519L108.014 30.1105L108.264 30.5165C108.303 30.5468 108.467 30.7317 108.511 30.78C108.693 30.7548 112.2 28.7054 112.618 28.4527C112.697 28.2611 112.657 28.2699 112.609 28.0279C112.504 27.8066 112.379 27.5053 112.221 27.3279L112.075 27.1703Z" fill="#737889"/>
<path d="M112.22 27.3279L112.267 27.5215C111.999 27.8676 108.643 29.7407 108.014 30.1105L108.264 30.5165C108.303 30.5468 108.467 30.7317 108.511 30.78C108.693 30.7548 112.2 28.7054 112.617 28.4528C112.697 28.2611 112.657 28.2699 112.609 28.0279C112.504 27.8066 112.379 27.5053 112.22 27.3279Z" fill="#383D48"/>
<path d="M112.609 28.0279C111.139 28.8191 109.69 29.6489 108.264 30.5164C108.303 30.5467 108.467 30.7316 108.511 30.7799C108.693 30.7547 112.2 28.7054 112.618 28.4527C112.697 28.261 112.657 28.2699 112.609 28.0279Z" fill="#20222A"/>
<path d="M112.075 27.1703C111.871 26.9848 111.937 26.9959 111.693 26.9372C110.553 27.5262 108.61 28.7084 107.473 29.4029C107.609 29.5841 107.741 29.7671 107.871 29.9519C107.795 29.7873 107.771 29.799 107.784 29.6289C108.739 28.9652 110.964 27.7968 112.075 27.1703Z" fill="#383D48"/>
<path d="M54.2338 45.8622L54.072 45.9479C53.7311 46.2087 53.3563 46.3938 52.9782 46.5961C53.7478 47.9702 54.6333 49.6653 55.5722 50.941C55.6919 51.1026 56.98 51.3446 57.2616 51.3676L57.3565 51.3539C57.294 51.1084 56.5991 49.9602 56.428 49.6614L54.2557 45.9072L54.2338 45.8622Z" fill="#434754"/>
<path d="M54.2338 45.8621L54.072 45.9479C53.7311 46.2087 53.3563 46.3938 52.9782 46.5961C53.1868 46.8997 53.3279 47.1296 53.5085 47.4508C53.8148 47.283 54.2613 47.021 54.5665 46.8803L54.6401 46.803C54.6375 46.6168 54.3606 46.1504 54.2545 45.9065L54.2338 45.8621Z" fill="#768091"/>
<path d="M54.2552 45.9075C54.3607 46.1504 54.6376 46.6168 54.6407 46.8041L54.5666 46.8803C54.7938 47.3642 56.9842 51.0593 57.2616 51.3676L57.3568 51.3544C57.2941 51.1084 56.5992 49.9602 56.428 49.6614L54.2552 45.9075Z" fill="#737889"/>
<path d="M24.8016 70.7793C24.4167 70.1286 24.0422 69.4719 23.6782 68.8094L23.6255 68.8627L22.5615 69.4819C23.0649 71.2808 23.6428 73.2932 24.2467 75.0556L25.4152 74.3886C25.2663 73.9067 24.45 71.3973 24.4873 71.0789L24.5689 70.9783C24.8658 70.9459 25.203 70.6282 25.4729 70.4251C25.4131 70.413 24.9009 70.7226 24.8016 70.7793Z" fill="#434754"/>
<path d="M24.8015 70.7792C24.4166 70.1286 24.042 69.4719 23.6781 68.8093L23.6254 68.8626C23.7538 69.3655 24.5437 70.3303 24.6704 70.8194C24.6416 70.8659 24.6023 70.9387 24.5688 70.9782C24.8657 70.9458 25.2029 70.6281 25.4728 70.425C25.413 70.4129 24.9009 70.7225 24.8015 70.7792Z" fill="#20222A"/>
<path d="M57.9787 52.1957C57.6387 52.3893 57.1893 52.6223 56.9092 52.88C57.3509 53.8136 58.0256 54.8907 58.5338 55.7999C58.7689 56.2203 59.3611 57.2894 59.6284 57.644C59.8872 57.6877 60.0236 57.5291 60.2041 57.3553C60.3277 57.2527 60.642 57.1025 60.7984 57.0206C60.4267 56.3406 59.9304 55.6532 59.5961 54.9899C59.5596 54.8184 58.1793 52.5491 57.9787 52.1957Z" fill="#383D48"/>
<path d="M57.9787 52.1958C57.6386 52.3893 57.1893 52.6223 56.9091 52.88C57.3509 53.8136 58.0256 54.8908 58.5343 55.7996C58.7688 56.2203 59.3616 57.2891 59.6283 57.644C59.8872 57.6878 60.0236 57.5291 60.2041 57.3554C60.0368 57.4436 59.8514 57.5729 59.6728 57.5404C59.441 57.2412 59.1108 56.579 58.9122 56.223L57.6319 53.9524C57.6878 53.7964 57.7093 53.6929 57.8351 53.582C58.077 53.5953 58.3072 53.8676 58.4657 54.041C58.8323 54.4424 59.1141 54.7149 59.5958 54.9894C59.5596 54.8184 58.1798 52.5489 57.9787 52.1958ZM106.916 32.1592C105.818 32.7969 103.75 33.8836 102.807 34.5479C102.769 34.7694 102.81 34.7478 102.933 34.9937L103.213 35.4728C103.296 35.604 103.399 35.8228 103.518 35.8656C104.147 35.5053 107.279 33.7718 107.493 33.4418C107.515 33.0049 107.155 32.5416 106.916 32.1592Z" fill="#20222A"/>
<path d="M103.213 35.4734C104.039 34.9159 104.95 34.4359 105.806 33.929C106.169 33.7141 106.761 33.4127 107.071 33.1548C107.029 32.988 106.969 32.9322 106.864 32.8021C106.782 32.7938 103.347 34.76 102.933 34.9937L103.213 35.4734ZM105.15 29.8126C104.965 29.465 104.864 29.1978 104.507 29.0205C104.26 29.0035 100.318 31.2588 100.211 31.4815L100.296 31.6064L100.602 31.8637C100.715 31.9748 100.869 32.1177 100.973 32.232C101.024 32.295 101.106 32.3764 101.163 32.4377C101.371 32.436 104.865 30.3982 105.24 30.1486L105.15 29.8126Z" fill="#383D48"/>
<path d="M105.15 29.8126C104.402 30.2027 103.654 30.6592 102.922 31.0845C102.295 31.4487 101.562 31.8234 100.973 32.232C101.024 32.295 101.106 32.3764 101.164 32.4382C101.371 32.4355 104.866 30.3982 105.24 30.1486L105.15 29.8126Z" fill="#212226"/>
<path d="M100.602 31.8637C101.209 31.5025 104.308 29.7865 104.657 29.4333L104.637 29.3269C104.506 29.2884 104.472 29.2772 104.341 29.3455C102.985 30.0507 101.673 30.9482 100.296 31.6064L100.602 31.8637Z" fill="#768091"/>
<path d="M56.9335 53.8794C56.594 54.104 55.2346 55.3698 55.1026 55.706C54.8734 56.2902 54.6849 57.3819 54.6408 58.0316C54.6285 58.209 54.706 58.2734 54.8189 58.3799C55.327 58.2798 55.8565 57.7641 56.2618 57.4356C57.0138 56.8249 57.2623 55.7805 57.3303 54.8557C57.3694 54.3166 57.2849 54.257 56.9335 53.8794Z" fill="#434754"/>
<path d="M56.4037 56.6377C56.5067 56.5429 56.5753 56.4167 56.5988 56.2788C56.6223 56.1409 56.5994 55.9991 56.5336 55.8756C56.4679 55.7521 56.3631 55.6539 56.2355 55.5963C56.108 55.5388 55.965 55.5253 55.8289 55.5577C55.6925 55.5885 55.5702 55.6636 55.481 55.7713C55.3919 55.879 55.341 56.0132 55.3362 56.1529C55.3315 56.2926 55.3732 56.43 55.4548 56.5435C55.5364 56.6569 55.6534 56.7402 55.7874 56.7801C55.9996 56.9912 56.2198 56.944 56.4112 56.7348L56.4037 56.6377Z" fill="#060607"/>
<path d="M55.7876 56.78C55.9998 56.9911 56.2201 56.9439 56.4114 56.7348L56.4039 56.6376C56.3228 56.7134 56.2231 56.7664 56.1149 56.7915C56.0067 56.8165 55.8938 56.8125 55.7876 56.78Z" fill="#8B9399"/>
<path d="M55.8284 55.7902C55.7722 55.8077 55.72 55.8363 55.675 55.8743C55.63 55.9124 55.5931 55.959 55.5664 56.0115C55.5398 56.0641 55.5239 56.1214 55.5198 56.1802C55.5157 56.2389 55.5234 56.2979 55.5424 56.3536C55.5615 56.4094 55.5916 56.4607 55.6308 56.5046C55.6701 56.5486 55.7177 56.5842 55.771 56.6093C55.8242 56.6345 55.882 56.6488 55.9409 56.6512C55.9997 56.6537 56.0585 56.6444 56.1136 56.6237C56.2211 56.5836 56.3087 56.5031 56.3577 56.3994C56.4068 56.2956 56.4134 56.1769 56.3763 56.0683C56.3391 55.9598 56.2611 55.87 56.1588 55.818C56.0565 55.7661 55.938 55.7561 55.8284 55.7902Z" fill="#434754"/>
<path d="M108.664 35.9294L104.518 38.3256L104.621 38.9403L104.71 39.2715C104.737 39.4344 104.736 39.4938 104.844 39.6214C105.042 39.6324 108.914 37.3516 109.187 37.0973C109.239 36.7706 108.846 36.2316 108.664 35.9294Z" fill="#20222A"/>
<path d="M104.71 39.2716C104.98 39.2176 108.849 36.8733 108.932 36.6909C108.613 36.6404 105.114 38.6726 104.621 38.9403L104.71 39.2716Z" fill="#383D48"/>
<path d="M112.385 28.9819C111.162 29.7074 109.933 30.4236 108.7 31.1304L109.449 32.4363C110.622 31.7772 111.873 30.9865 113.076 30.2989C112.927 29.7916 112.669 29.4198 112.385 28.9819Z" fill="#20222A"/>
<path d="M110.264 30.805C109.888 31.0102 109.187 31.2626 109.088 31.6675C109.174 31.8571 109.133 31.8536 109.292 31.9217C109.767 31.7561 110.865 31.0781 111.362 30.7904C111.798 30.5407 112.224 30.275 112.64 29.9933C112.623 29.8931 112.53 29.728 112.481 29.6301C112.282 29.5892 110.578 30.6289 110.264 30.805ZM49.2341 69.3319C48.0863 67.2753 46.9463 65.2705 45.6136 63.3282C45.3189 62.8985 44.9546 61.9014 44.6646 61.5822C44.4955 61.7035 44.5536 61.6464 44.4537 61.866C44.6079 62.7529 47.9851 69.1827 48.6351 69.709L48.8336 69.6869C48.9436 69.5476 49.0937 69.4415 49.2341 69.3319ZM110.518 26.5797C110.471 26.4961 110.422 26.4127 110.371 26.3296C110.308 26.2255 110.074 25.8488 109.931 25.8957C109.401 26.0693 106.173 27.8414 106.121 28.1266L106.235 28.233L106.504 28.4575C106.613 28.558 106.785 28.7003 106.856 28.822L107.139 28.9992C107.331 29.0012 110.371 27.2329 110.567 27.0501C110.623 26.8442 110.586 26.7817 110.518 26.5797Z" fill="#383D48"/>
<path d="M110.518 26.5792C110.288 26.9517 107.484 28.4265 106.856 28.8215L107.139 28.9987C107.331 29.0007 110.371 27.2324 110.567 27.0496C110.622 26.8437 110.586 26.7812 110.518 26.5792Z" fill="#212226"/>
<path d="M106.503 28.457C107.364 27.9577 109.301 26.8961 110.03 26.3413L110.031 26.2641C109.407 26.2414 106.953 27.8253 106.235 28.2331L106.503 28.457Z" fill="#768091"/>
<path d="M114.461 33.5131C114.428 33.2902 114.255 33.0344 114.053 32.9314C113.636 32.9326 110.971 34.5973 110.488 34.8914L110.572 35.5838L110.655 35.9084C110.655 36.0082 110.688 36.096 110.715 36.1936L110.808 36.2436C111.22 36.0538 114.416 34.1979 114.622 33.9997C114.632 33.7467 114.619 33.8071 114.487 33.555L114.461 33.5131Z" fill="#20222A"/>
<path d="M114.461 33.5132C114.428 33.2902 114.255 33.0344 114.053 32.9314C113.636 32.9326 110.971 34.5973 110.488 34.8914L110.572 35.5838C111.134 35.2518 114.04 33.4775 114.461 33.5132Z" fill="#20222A"/>
<path d="M114.461 33.5131C114.04 33.4769 111.134 35.2517 110.573 35.5842L110.656 35.9083C111.184 35.5861 114.31 33.7846 114.487 33.5549L114.461 33.5131ZM86.9611 48.8196C84.8238 50.0348 62.9133 62.6181 62.7386 62.8621L62.7824 62.9863C63.1803 62.8024 63.8718 62.3712 64.2686 62.1387L66.952 60.5776L75.9768 55.3741L83.936 50.7774C84.437 50.4882 86.6852 49.2472 86.9797 48.9735L86.9611 48.8196ZM56.7181 53.0328C55.5602 53.692 54.4063 54.3582 53.2564 55.0314C53.6522 55.7469 54.099 56.4871 54.5138 57.1972C54.7246 56.7508 54.616 55.8355 54.9815 55.4187C55.5742 54.7429 56.246 54.1173 56.937 53.5431C56.9392 53.3904 56.797 53.1791 56.7181 53.0328ZM22.7 76.2412L22.6251 76.3282L22.6794 76.4728C22.8259 76.6989 23.1137 77.0756 23.1263 77.3227C23.024 77.5813 22.8791 77.617 22.6167 77.7644C22.6555 77.7558 22.7828 77.7199 22.8108 77.7009C23.2887 77.368 26.0241 76.0258 26.1553 75.663C26.1179 75.4357 25.9902 75.3169 25.8417 75.1391C25.7417 74.9696 25.6659 74.7985 25.4984 74.6999C24.7269 74.9924 23.5747 75.8996 22.7564 76.2197L22.7 76.2412Z" fill="#383D48"/>
<path d="M22.6998 76.2412L22.625 76.3282L22.6792 76.4728C22.8258 76.6989 23.1135 77.0756 23.1262 77.3227C23.0238 77.5813 22.879 77.617 22.6165 77.7644C22.6554 77.7558 22.7827 77.7199 22.8106 77.7009C23.2885 77.368 26.0245 76.0255 26.1548 75.6624C26.1182 75.4354 25.99 75.3169 25.8415 75.1391C25.9279 75.2942 25.9989 75.4575 26.0534 75.6265C25.9372 75.8743 23.7403 77.0947 23.3765 77.311C23.2016 77.0019 22.9325 76.4816 22.6998 76.2412Z" fill="#060607"/>
<path d="M20.6396 87.2527L20.6248 87.3835C20.7908 87.5567 21.0051 87.5414 21.2401 87.6511C21.3016 87.6782 21.949 87.6617 22.0635 87.6589C24.1836 87.6209 26.2911 87.3226 28.3385 86.7706C28.8238 86.6433 31.513 85.758 31.7023 85.4332L31.6611 85.3089C31.3849 85.223 30.3988 85.6749 30.0745 85.7899C29.2327 86.0883 28.3807 86.357 27.5199 86.5953C25.0091 87.2755 23.2003 87.3126 20.6393 87.2521" fill="#555964"/>
<path d="M53.0028 55.1764L52.4481 55.4966C53.1791 56.852 54.327 58.9919 55.219 60.3093C55.2694 60.3845 55.379 60.3455 55.4902 60.3335L55.6793 60.1193C55.7442 59.8163 55.1322 58.9525 54.9375 58.6214L54.4416 58.5004C54.3809 57.3093 53.6075 56.255 53.0022 55.1767" fill="#383D48"/>
<path d="M53.1508 44.1297C52.7668 44.3507 52.3777 44.581 51.9851 44.786C52.321 45.3762 52.6833 45.988 52.9785 46.5968C53.3571 46.3942 53.7311 46.2088 54.0717 45.9475L54.2338 45.8623C54.0862 45.6006 53.3471 44.2193 53.1508 44.1297Z" fill="#434754"/>
<path d="M54.2337 45.8621C54.0861 45.6005 53.3476 44.2189 53.1507 44.1296C53.1736 44.4847 53.8538 45.5761 54.0716 45.9474L54.2337 45.8621Z" fill="#737889"/>
<path d="M58.1171 51.4806C57.7991 51.7282 56.8846 52.2318 56.4937 52.4589L53.3485 54.281C53.0514 54.4526 52.0812 54.8876 52.0584 55.1649L52.1536 55.2177C52.6673 55.0142 54.2436 54.0458 54.7761 53.7341L58.0169 51.8464C58.5407 52.6214 59.1053 53.7823 59.643 54.4944L59.7025 54.4746C59.7484 53.9101 58.468 52.0753 58.1171 51.4806Z" fill="#606471"/>
<path d="M108.327 31.167C108.241 31.2005 108.058 31.2628 107.997 31.3193L107.834 31.4321C108.201 32.0522 108.574 32.6647 108.894 33.3103C109.066 33.8761 109.434 34.2612 109.558 34.9704C109.835 35.1666 109.775 35.1316 110.165 35.0842C109.749 33.6161 109.086 32.4608 108.327 31.167Z" fill="url(#paint13_linear_3252_8769)"/>
<path d="M107.834 31.4325C108.201 32.0521 108.574 32.6646 108.893 33.3103L108.996 33.268C109.02 33.0203 108.169 31.6209 107.997 31.3187L107.834 31.4325Z" fill="#606471"/>
<path d="M53.0634 57.3325C52.8862 57.3952 52.7048 57.4374 52.5904 57.5847C52.4296 58.2177 53.4803 59.3537 53.8251 59.9895L54.4248 59.646L53.7936 58.5382C53.614 58.2297 53.2775 57.5745 53.0634 57.3325Z" fill="#20222A"/>
<path d="M53.0631 57.3325C52.8228 57.5026 52.7485 57.5003 52.6308 57.742C52.6644 57.9964 52.8524 58.2125 52.974 58.4447C53.1434 58.7202 53.0931 58.7353 53.3409 58.855C53.4944 58.838 53.6821 58.6816 53.7641 58.5551L53.7933 58.5382C53.6137 58.2297 53.2777 57.5742 53.0631 57.3325Z" fill="#383D48"/>
<path d="M53.7646 58.5548C53.6659 58.3838 53.6099 58.2555 53.4503 58.1391C53.2162 58.1791 53.1772 58.2704 52.9735 58.445C53.1435 58.7201 53.0926 58.7356 53.3409 58.855C53.4944 58.838 53.6827 58.6813 53.7646 58.5548Z" fill="#434754"/>
<path d="M18.5139 80.4117C18.3548 80.4973 17.9425 80.7054 17.9458 80.8363C17.9505 81.031 18.999 82.8134 19.0994 82.8465C19.1235 82.4572 19.2584 82.6643 19.5013 82.335C19.5373 82.0362 18.7096 80.7422 18.5139 80.4117Z" fill="#212226"/>
<path d="M104.508 27.8654L104.354 28.0116C104.461 28.1667 105.187 28.4581 105.404 28.6374C105.889 29.0385 106.338 29.507 106.755 29.9728L106.933 29.8836C107.073 29.8709 107.25 29.8597 107.385 29.8387C106.755 29.096 105.573 27.7392 104.508 27.8654Z" fill="#434754"/>
<path d="M104.508 27.8654L104.354 28.0116C104.461 28.1667 105.187 28.4581 105.404 28.6374C105.889 29.0385 106.338 29.507 106.755 29.9728L106.933 29.8836C106.087 28.951 105.627 28.4949 104.508 27.8654Z" fill="#606471"/>
<path d="M19.4834 87.2488L19.4599 87.2345C19 86.9606 17.5306 86.4069 17.0301 86.6284L16.9661 86.7655L16.9783 86.6639L16.9499 86.7422C17.7844 87.2197 20.2919 87.7342 21.2401 87.6512C21.0051 87.5415 20.7908 87.5568 20.6247 87.3836L20.6395 87.2527C20.2835 87.1899 19.849 87.2247 19.4834 87.2488Z" fill="#383D48"/>
<path d="M57.6806 63.1832L57.0862 63.5612L57.1321 63.6792L57.0968 63.6843C57.3028 64.1013 57.8729 65.12 58.3589 65.13C58.8479 64.7573 57.9495 63.5347 57.6806 63.1832Z" fill="#20222A"/>
<path d="M57.9281 63.6445L57.3346 63.9976C57.5482 64.3699 57.7932 64.5739 58.0911 64.1099C58.1014 63.8544 58.0771 63.9026 57.9281 63.6445Z" fill="#383D48"/>
<path d="M57.6811 63.183L57.0862 63.5612L57.1321 63.6793L57.3346 63.9975L57.9281 63.6445L57.6811 63.183Z" fill="#737889"/>
<path d="M109.558 34.9698C109.709 35.3784 109.811 35.8033 109.862 36.2358C109.893 36.4684 109.931 37.4928 110.065 37.5622C110.748 36.9187 110.397 35.8768 110.165 35.0841C109.775 35.1315 109.835 35.1665 109.558 34.9698Z" fill="url(#paint14_linear_3252_8769)"/>
<path d="M106.933 29.8836L106.754 29.9728C107.15 30.3886 107.49 30.9521 107.834 31.4321L107.997 31.3187C108.057 31.2628 108.241 31.2005 108.327 31.167C108.064 30.7559 107.675 30.2447 107.386 29.8383C107.25 29.8597 107.073 29.8703 106.933 29.8836Z" fill="#768091"/>
<path d="M13.0834 83.6549L12.726 83.8667C12.9747 84.1771 14.0106 85.0561 14.3534 85.2405L14.7387 85.0194C14.7218 84.9541 13.3193 83.8975 13.1173 83.6895L13.0834 83.6549Z" fill="#383D48"/>
<path d="M58.8301 65.113C58.6587 65.2063 58.5024 65.2799 58.3611 65.4143C58.2789 65.7572 58.6836 66.1693 58.9317 66.6002C59.107 66.5282 59.331 66.3767 59.4962 66.2716L58.8301 65.113ZM26.1788 74.1762C25.9354 74.3133 25.9054 74.2806 25.7865 74.4889C25.8026 74.8863 26.0913 75.2444 26.3095 75.603C27.1084 75.3036 26.4807 74.6137 26.1788 74.1762ZM49.2335 69.3321C49.0928 69.4412 48.9427 69.5473 48.8332 69.6863L48.73 69.8085C48.8119 70.1045 49.0446 70.4401 49.2098 70.7082L49.8677 70.3138C49.6021 69.9597 49.457 69.7168 49.2335 69.3321Z" fill="#212226"/>
<path d="M29.2965 70.6595L28.6498 71.0251L29.0666 71.9926C29.3507 71.8418 29.4479 71.826 29.5869 71.5622C29.622 71.3015 29.4103 70.9169 29.2965 70.6595Z" fill="#768091"/>
<path d="M57.4338 62.8356C57.3095 62.6168 57.2786 62.4706 57.0821 62.3782C56.1813 62.6203 56.8854 63.2029 57.0963 63.6838L57.1319 63.6793L57.086 63.5612L57.6804 63.1833L57.4338 62.8356Z" fill="#212226"/>
<path d="M57.4339 62.8356C57.2559 62.9474 57.0261 63.0551 56.9682 63.2449C56.9929 63.4009 57.0075 63.4238 57.0861 63.5612L57.6811 63.183L57.4339 62.8356Z" fill="#20222A"/>
<path d="M53.8043 51.0323C53.7323 51.1002 53.7631 51.0609 53.7279 51.1709C53.9519 51.3168 55.9037 51.7151 56.2565 51.7783L56.2887 51.7041L56.5085 51.6586L56.4954 51.5757C56.2535 51.4818 54.115 51.0732 53.8043 51.0323Z" fill="#606471"/>
<path d="M55.9262 60.3604C55.7957 60.433 55.6697 60.5136 55.5491 60.6017C55.4462 60.9531 55.8917 61.3118 56.1228 61.5593L56.1645 61.5929C56.362 61.5053 56.3413 61.5464 56.4608 61.3898C56.4161 61.0764 56.107 60.6578 55.9262 60.3604Z" fill="#20222A"/>
<path d="M48.329 60.5898C48.4623 60.8743 48.6004 61.1561 48.7433 61.435C48.7293 61.4709 48.7109 61.5281 48.6887 61.5548C48.819 61.937 49.4034 62.7034 49.6694 63.0197C49.8193 63.2432 50.2056 63.8703 50.4429 63.9356L50.4056 63.7458C49.8093 63.1392 48.7701 61.3465 48.329 60.5898Z" fill="#555964"/>
<path d="M29.8514 71.7244C29.5209 71.8971 29.058 72.1199 28.7732 72.3671C28.6619 72.4633 28.696 72.5284 28.7007 72.687C29.0167 72.5323 29.7272 72.2195 29.912 71.9376L29.8514 71.7244Z" fill="#434754"/>
<path d="M52.2048 56.5061C52.0608 56.5795 52.0185 56.5893 51.9165 56.7087C51.9642 56.9286 52.233 57.169 52.4094 57.3952C52.4931 57.3608 52.5576 57.3062 52.6309 57.2527C52.6055 57.0304 52.3477 56.7309 52.2048 56.5061Z" fill="#383D48"/>
<path d="M52.3748 56.1472C52.4282 56.3228 52.603 56.6147 52.6975 56.7881L52.817 56.7928L52.8249 56.8209L52.7588 56.8786L52.8362 56.8742C52.7318 56.4117 52.4191 55.9507 52.141 55.569C52.2553 55.7825 52.377 55.9284 52.3748 56.1472Z" fill="#8B9399"/>
</g>
</g>
<defs>
<linearGradient id="paint0_linear_3252_8769" x1="70.6455" y1="68.4695" x2="52.0161" y2="44.486" gradientUnits="userSpaceOnUse">
<stop stop-color="#0C0C0F"/>
<stop offset="1" stop-color="#2D323C"/>
</linearGradient>
<linearGradient id="paint1_linear_3252_8769" x1="52.5877" y1="66.8737" x2="53.0085" y2="67.9084" gradientUnits="userSpaceOnUse">
<stop stop-color="#606C73"/>
<stop offset="1" stop-color="#737892"/>
</linearGradient>
<linearGradient id="paint2_linear_3252_8769" x1="115.145" y1="26.7015" x2="110.731" y2="31.7553" gradientUnits="userSpaceOnUse">
<stop/>
<stop offset="1" stop-color="#252429"/>
</linearGradient>
<linearGradient id="paint3_linear_3252_8769" x1="114.424" y1="29.0234" x2="114.169" y2="29.1609" gradientUnits="userSpaceOnUse">
<stop stop-color="#3A3E48"/>
<stop offset="1" stop-color="#5B5E6D"/>
</linearGradient>
<linearGradient id="paint4_linear_3252_8769" x1="49.9397" y1="70.8333" x2="51.1741" y2="76.1354" gradientUnits="userSpaceOnUse">
<stop stop-color="#656C7A"/>
<stop offset="1" stop-color="#758397"/>
</linearGradient>
<linearGradient id="paint5_linear_3252_8769" x1="99.4719" y1="31.8689" x2="98.9163" y2="32.8292" gradientUnits="userSpaceOnUse">
<stop stop-color="#080909"/>
<stop offset="1" stop-color="#2C2B2F"/>
</linearGradient>
<linearGradient id="paint6_linear_3252_8769" x1="103.518" y1="36.5585" x2="102.76" y2="36.8014" gradientUnits="userSpaceOnUse">
<stop stop-color="#3B3F4C"/>
<stop offset="1" stop-color="#595B67"/>
</linearGradient>
<linearGradient id="paint7_linear_3252_8769" x1="35.4479" y1="66.9265" x2="38.5769" y2="72.3172" gradientUnits="userSpaceOnUse">
<stop stop-color="#343841"/>
<stop offset="1" stop-color="#505A6E"/>
</linearGradient>
<linearGradient id="paint8_linear_3252_8769" x1="42.3677" y1="63.7536" x2="42.1743" y2="63.8521" gradientUnits="userSpaceOnUse">
<stop stop-color="#0B0D0F"/>
<stop offset="1" stop-color="#2B2D30"/>
</linearGradient>
<linearGradient id="paint9_linear_3252_8769" x1="30.9144" y1="74.5717" x2="31.0594" y2="75.8462" gradientUnits="userSpaceOnUse">
<stop stop-color="#7B7A82"/>
<stop offset="1" stop-color="#8E91A1"/>
</linearGradient>
<linearGradient id="paint10_linear_3252_8769" x1="29.5248" y1="75.8502" x2="28.7327" y2="76.2519" gradientUnits="userSpaceOnUse">
<stop stop-color="#323033"/>
<stop offset="1" stop-color="#505662"/>
</linearGradient>
<linearGradient id="paint11_linear_3252_8769" x1="65.3687" y1="63.4088" x2="54.958" y2="60.0798" gradientUnits="userSpaceOnUse">
<stop stop-color="#363640"/>
<stop offset="1" stop-color="#3E4A5B"/>
</linearGradient>
<linearGradient id="paint12_linear_3252_8769" x1="82.2184" y1="42.2465" x2="87.3985" y2="43.9395" gradientUnits="userSpaceOnUse">
<stop stop-color="#6A707A"/>
<stop offset="1" stop-color="#768297"/>
</linearGradient>
<linearGradient id="paint13_linear_3252_8769" x1="109.298" y1="33.0217" x2="108.866" y2="33.2329" gradientUnits="userSpaceOnUse">
<stop stop-color="#353B47"/>
<stop offset="1" stop-color="#525767"/>
</linearGradient>
<linearGradient id="paint14_linear_3252_8769" x1="110.33" y1="36.1462" x2="109.865" y2="36.2019" gradientUnits="userSpaceOnUse">
<stop stop-color="#202127"/>
<stop offset="1" stop-color="#413F48"/>
</linearGradient>
<clipPath id="clip0_3252_8769">
<rect width="121" height="37.3234" fill="white" transform="translate(0.274658 69.0885) rotate(-30)"/>
</clipPath>
</defs>
</svg>
