<svg width="204" height="55" viewBox="0 0 204 55" fill="none" xmlns="http://www.w3.org/2000/svg">
<mask id="path-1-outside-1_3372_1924" maskUnits="userSpaceOnUse" x="0.113035" y="-0.112924" width="204" height="55" fill="black">
<rect fill="white" x="0.113035" y="-0.112924" width="204" height="55"/>
<path fill-rule="evenodd" clip-rule="evenodd" d="M203.113 22.5959C203.113 33.3234 201.043 35.0176 201.043 35.0176L178.27 35.0176L178.215 35.0133C177.925 34.9713 177.651 34.6001 177.4 33.9635L171.482 33.9635C171.105 34.5937 170.418 35.0167 169.63 35.0167C168.842 35.0167 168.155 34.5934 167.778 33.9635L158.521 33.9635C158.144 34.5937 157.456 35.0167 156.668 35.0167C155.88 35.0167 155.194 34.5934 154.816 33.9635L132.598 33.9635C132.221 34.5937 131.533 35.0167 130.746 35.0167L126.425 35.0167C125.637 35.0167 124.951 34.5934 124.573 33.9635L91.3678 33.9635L91.3678 35.4567C91.3678 35.9464 90.9705 36.3435 90.4808 36.3437L86.046 36.3437C85.5562 36.3437 85.1591 35.9466 85.1591 35.4567L85.1591 33.9635L84.8767 33.9635C84.858 34.0708 84.8298 34.1782 84.7901 34.2839L84.5398 34.9518C84.1937 35.8745 83.1616 36.3388 82.2418 35.9851L80.7243 35.4013L80.7243 43.3761L67.4199 44.3618L67.4199 50.535C67.4199 51.5146 66.6255 52.3087 65.646 52.3089L63.8721 52.3089C63.8721 53.2885 63.0777 54.0826 62.0982 54.0828L36.3765 54.0828C35.3968 54.0828 34.6026 53.2886 34.6026 52.3089L32.8286 52.3089C31.8489 52.3089 31.0547 51.5147 31.0547 50.535L31.0547 38.1393L26.6199 38.1393C25.6402 38.1393 24.846 37.345 24.846 36.3653L23.9582 36.3653L23.9582 37.274C23.9582 37.7638 23.5611 38.1609 23.0713 38.1609L22.4407 38.1609C21.2275 38.8592 20.2677 39.2318 19.4169 39.3623C18.4192 39.5152 17.6346 39.3249 16.8652 39.0557C16.0843 38.7824 15.3897 38.462 14.3645 38.2137C13.5637 38.0198 12.5744 37.8793 11.2749 37.8855C11.1149 38.0423 10.8956 38.1393 10.6539 38.1393L9.76691 38.1393C9.27726 38.139 8.87995 37.742 8.87995 37.2523L8.87995 36.3653C7.90065 36.3649 7.10691 35.5708 7.10691 34.5914L7.10691 29.2697L3.55908 29.2697C2.57938 29.2697 1.78517 28.4755 1.78517 27.4958L1.78517 26.3698C1.30488 26.0915 0.966516 25.5955 0.907739 25.0159L0.898211 24.8349L0.898211 22.174C0.898211 21.5176 1.25536 20.946 1.78517 20.6392L1.78517 19.5132C1.78517 18.5336 2.57871 17.7395 3.55821 17.7393L19.5234 17.7393C20.5031 17.7393 21.2982 18.5335 21.2982 19.5132L21.2982 19.7522C21.5591 19.6012 21.8611 19.5132 22.1843 19.5132L24.846 19.5132L24.846 13.3045C24.846 12.3249 25.6396 11.5308 26.6191 11.5306L28.3939 11.5306L28.3939 9.73499C28.3939 8.75543 29.1874 7.96131 30.1669 7.96108L31.9417 7.96108L31.9417 0.887077L49.7276 0.887078L49.7735 0.892275L67.42 2.74934L67.42 7.96108L74.5147 7.96108C75.4944 7.96108 76.2895 8.75529 76.2895 9.73499L76.2895 10.6219L80.7468 10.6219L81.9369 10.1508C82.8595 9.78595 83.9021 10.2491 84.2505 11.178L84.2894 11.2811L85.1591 11.2811L85.1591 9.73499C85.1591 9.24514 85.5562 8.84803 86.046 8.84803L90.4808 8.84803C90.9705 8.84827 91.3678 9.24528 91.3678 9.73499L91.3678 11.2811L124.54 11.2811C124.91 10.621 125.615 10.1741 126.425 10.1741L130.746 10.1741C131.556 10.1741 132.262 10.6208 132.631 11.2811L154.783 11.2811C155.153 10.621 155.858 10.1741 156.668 10.1741C157.479 10.1741 158.184 10.6208 158.554 11.2811L167.745 11.2811C168.114 10.6211 168.819 10.1741 169.63 10.1741C170.44 10.1741 171.146 10.6208 171.515 11.2811L177.38 11.2811C177.636 10.6122 177.917 10.2216 178.215 10.1785L178.27 10.1741L201.043 10.1741C201.043 10.1741 203.113 11.8684 203.113 22.5959ZM11.5408 36.3653L11.5408 36.5533C12.814 36.5668 13.8269 36.7155 14.6772 36.9214C15.7859 37.1899 16.6449 37.5687 17.3052 37.7997C17.9765 38.0346 18.5234 38.1536 19.2159 38.0474C19.7524 37.9651 20.411 37.7415 21.2973 37.2722L21.2973 36.3653L11.5408 36.3653ZM19.6152 18.6305L19.5234 18.6262C19.5678 18.6262 19.6115 18.6294 19.6542 18.6357C19.6413 18.6338 19.6283 18.6319 19.6152 18.6305ZM74.6066 8.85237L74.5147 8.84803C74.5591 8.84803 74.6028 8.85124 74.6455 8.85756C74.6326 8.85563 74.6196 8.85371 74.6066 8.85237ZM91.3678 21.0021L91.3678 24.2424L124.265 24.2424L124.265 21.0021L91.3678 21.0021ZM132.906 21.0021L132.906 24.2425L154.508 24.2425L154.508 21.0021L132.906 21.0021ZM158.828 21.0021L158.828 24.2425L167.469 24.2425L167.469 21.0021L158.828 21.0021ZM176.132 24.2425C176.119 23.7037 176.11 23.1541 176.11 22.5959C176.11 22.0559 176.119 21.5239 176.13 21.0021L171.79 21.0021L171.79 24.2425L176.132 24.2425Z"/>
</mask>
<path fill-rule="evenodd" clip-rule="evenodd" d="M203.113 22.5959C203.113 33.3234 201.043 35.0176 201.043 35.0176L178.27 35.0176L178.215 35.0133C177.925 34.9713 177.651 34.6001 177.4 33.9635L171.482 33.9635C171.105 34.5937 170.418 35.0167 169.63 35.0167C168.842 35.0167 168.155 34.5934 167.778 33.9635L158.521 33.9635C158.144 34.5937 157.456 35.0167 156.668 35.0167C155.88 35.0167 155.194 34.5934 154.816 33.9635L132.598 33.9635C132.221 34.5937 131.533 35.0167 130.746 35.0167L126.425 35.0167C125.637 35.0167 124.951 34.5934 124.573 33.9635L91.3678 33.9635L91.3678 35.4567C91.3678 35.9464 90.9705 36.3435 90.4808 36.3437L86.046 36.3437C85.5562 36.3437 85.1591 35.9466 85.1591 35.4567L85.1591 33.9635L84.8767 33.9635C84.858 34.0708 84.8298 34.1782 84.7901 34.2839L84.5398 34.9518C84.1937 35.8745 83.1616 36.3388 82.2418 35.9851L80.7243 35.4013L80.7243 43.3761L67.4199 44.3618L67.4199 50.535C67.4199 51.5146 66.6255 52.3087 65.646 52.3089L63.8721 52.3089C63.8721 53.2885 63.0777 54.0826 62.0982 54.0828L36.3765 54.0828C35.3968 54.0828 34.6026 53.2886 34.6026 52.3089L32.8286 52.3089C31.8489 52.3089 31.0547 51.5147 31.0547 50.535L31.0547 38.1393L26.6199 38.1393C25.6402 38.1393 24.846 37.345 24.846 36.3653L23.9582 36.3653L23.9582 37.274C23.9582 37.7638 23.5611 38.1609 23.0713 38.1609L22.4407 38.1609C21.2275 38.8592 20.2677 39.2318 19.4169 39.3623C18.4192 39.5152 17.6346 39.3249 16.8652 39.0557C16.0843 38.7824 15.3897 38.462 14.3645 38.2137C13.5637 38.0198 12.5744 37.8793 11.2749 37.8855C11.1149 38.0423 10.8956 38.1393 10.6539 38.1393L9.76691 38.1393C9.27726 38.139 8.87995 37.742 8.87995 37.2523L8.87995 36.3653C7.90065 36.3649 7.10691 35.5708 7.10691 34.5914L7.10691 29.2697L3.55908 29.2697C2.57938 29.2697 1.78517 28.4755 1.78517 27.4958L1.78517 26.3698C1.30488 26.0915 0.966516 25.5955 0.907739 25.0159L0.898211 24.8349L0.898211 22.174C0.898211 21.5176 1.25536 20.946 1.78517 20.6392L1.78517 19.5132C1.78517 18.5336 2.57871 17.7395 3.55821 17.7393L19.5234 17.7393C20.5031 17.7393 21.2982 18.5335 21.2982 19.5132L21.2982 19.7522C21.5591 19.6012 21.8611 19.5132 22.1843 19.5132L24.846 19.5132L24.846 13.3045C24.846 12.3249 25.6396 11.5308 26.6191 11.5306L28.3939 11.5306L28.3939 9.73499C28.3939 8.75543 29.1874 7.96131 30.1669 7.96108L31.9417 7.96108L31.9417 0.887077L49.7276 0.887078L49.7735 0.892275L67.42 2.74934L67.42 7.96108L74.5147 7.96108C75.4944 7.96108 76.2895 8.75529 76.2895 9.73499L76.2895 10.6219L80.7468 10.6219L81.9369 10.1508C82.8595 9.78595 83.9021 10.2491 84.2505 11.178L84.2894 11.2811L85.1591 11.2811L85.1591 9.73499C85.1591 9.24514 85.5562 8.84803 86.046 8.84803L90.4808 8.84803C90.9705 8.84827 91.3678 9.24528 91.3678 9.73499L91.3678 11.2811L124.54 11.2811C124.91 10.621 125.615 10.1741 126.425 10.1741L130.746 10.1741C131.556 10.1741 132.262 10.6208 132.631 11.2811L154.783 11.2811C155.153 10.621 155.858 10.1741 156.668 10.1741C157.479 10.1741 158.184 10.6208 158.554 11.2811L167.745 11.2811C168.114 10.6211 168.819 10.1741 169.63 10.1741C170.44 10.1741 171.146 10.6208 171.515 11.2811L177.38 11.2811C177.636 10.6122 177.917 10.2216 178.215 10.1785L178.27 10.1741L201.043 10.1741C201.043 10.1741 203.113 11.8684 203.113 22.5959ZM11.5408 36.3653L11.5408 36.5533C12.814 36.5668 13.8269 36.7155 14.6772 36.9214C15.7859 37.1899 16.6449 37.5687 17.3052 37.7997C17.9765 38.0346 18.5234 38.1536 19.2159 38.0474C19.7524 37.9651 20.411 37.7415 21.2973 37.2722L21.2973 36.3653L11.5408 36.3653ZM19.6152 18.6305L19.5234 18.6262C19.5678 18.6262 19.6115 18.6294 19.6542 18.6357C19.6413 18.6338 19.6283 18.6319 19.6152 18.6305ZM74.6066 8.85237L74.5147 8.84803C74.5591 8.84803 74.6028 8.85124 74.6455 8.85756C74.6326 8.85563 74.6196 8.85371 74.6066 8.85237ZM91.3678 21.0021L91.3678 24.2424L124.265 24.2424L124.265 21.0021L91.3678 21.0021ZM132.906 21.0021L132.906 24.2425L154.508 24.2425L154.508 21.0021L132.906 21.0021ZM158.828 21.0021L158.828 24.2425L167.469 24.2425L167.469 21.0021L158.828 21.0021ZM176.132 24.2425C176.119 23.7037 176.11 23.1541 176.11 22.5959C176.11 22.0559 176.119 21.5239 176.13 21.0021L171.79 21.0021L171.79 24.2425L176.132 24.2425Z" fill="black"/>
<path fill-rule="evenodd" clip-rule="evenodd" d="M203.113 22.5959C203.113 33.3234 201.043 35.0176 201.043 35.0176L178.27 35.0176L178.215 35.0133C177.925 34.9713 177.651 34.6001 177.4 33.9635L171.482 33.9635C171.105 34.5937 170.418 35.0167 169.63 35.0167C168.842 35.0167 168.155 34.5934 167.778 33.9635L158.521 33.9635C158.144 34.5937 157.456 35.0167 156.668 35.0167C155.88 35.0167 155.194 34.5934 154.816 33.9635L132.598 33.9635C132.221 34.5937 131.533 35.0167 130.746 35.0167L126.425 35.0167C125.637 35.0167 124.951 34.5934 124.573 33.9635L91.3678 33.9635L91.3678 35.4567C91.3678 35.9464 90.9705 36.3435 90.4808 36.3437L86.046 36.3437C85.5562 36.3437 85.1591 35.9466 85.1591 35.4567L85.1591 33.9635L84.8767 33.9635C84.858 34.0708 84.8298 34.1782 84.7901 34.2839L84.5398 34.9518C84.1937 35.8745 83.1616 36.3388 82.2418 35.9851L80.7243 35.4013L80.7243 43.3761L67.4199 44.3618L67.4199 50.535C67.4199 51.5146 66.6255 52.3087 65.646 52.3089L63.8721 52.3089C63.8721 53.2885 63.0777 54.0826 62.0982 54.0828L36.3765 54.0828C35.3968 54.0828 34.6026 53.2886 34.6026 52.3089L32.8286 52.3089C31.8489 52.3089 31.0547 51.5147 31.0547 50.535L31.0547 38.1393L26.6199 38.1393C25.6402 38.1393 24.846 37.345 24.846 36.3653L23.9582 36.3653L23.9582 37.274C23.9582 37.7638 23.5611 38.1609 23.0713 38.1609L22.4407 38.1609C21.2275 38.8592 20.2677 39.2318 19.4169 39.3623C18.4192 39.5152 17.6346 39.3249 16.8652 39.0557C16.0843 38.7824 15.3897 38.462 14.3645 38.2137C13.5637 38.0198 12.5744 37.8793 11.2749 37.8855C11.1149 38.0423 10.8956 38.1393 10.6539 38.1393L9.76691 38.1393C9.27726 38.139 8.87995 37.742 8.87995 37.2523L8.87995 36.3653C7.90065 36.3649 7.10691 35.5708 7.10691 34.5914L7.10691 29.2697L3.55908 29.2697C2.57938 29.2697 1.78517 28.4755 1.78517 27.4958L1.78517 26.3698C1.30488 26.0915 0.966516 25.5955 0.907739 25.0159L0.898211 24.8349L0.898211 22.174C0.898211 21.5176 1.25536 20.946 1.78517 20.6392L1.78517 19.5132C1.78517 18.5336 2.57871 17.7395 3.55821 17.7393L19.5234 17.7393C20.5031 17.7393 21.2982 18.5335 21.2982 19.5132L21.2982 19.7522C21.5591 19.6012 21.8611 19.5132 22.1843 19.5132L24.846 19.5132L24.846 13.3045C24.846 12.3249 25.6396 11.5308 26.6191 11.5306L28.3939 11.5306L28.3939 9.73499C28.3939 8.75543 29.1874 7.96131 30.1669 7.96108L31.9417 7.96108L31.9417 0.887077L49.7276 0.887078L49.7735 0.892275L67.42 2.74934L67.42 7.96108L74.5147 7.96108C75.4944 7.96108 76.2895 8.75529 76.2895 9.73499L76.2895 10.6219L80.7468 10.6219L81.9369 10.1508C82.8595 9.78595 83.9021 10.2491 84.2505 11.178L84.2894 11.2811L85.1591 11.2811L85.1591 9.73499C85.1591 9.24514 85.5562 8.84803 86.046 8.84803L90.4808 8.84803C90.9705 8.84827 91.3678 9.24528 91.3678 9.73499L91.3678 11.2811L124.54 11.2811C124.91 10.621 125.615 10.1741 126.425 10.1741L130.746 10.1741C131.556 10.1741 132.262 10.6208 132.631 11.2811L154.783 11.2811C155.153 10.621 155.858 10.1741 156.668 10.1741C157.479 10.1741 158.184 10.6208 158.554 11.2811L167.745 11.2811C168.114 10.6211 168.819 10.1741 169.63 10.1741C170.44 10.1741 171.146 10.6208 171.515 11.2811L177.38 11.2811C177.636 10.6122 177.917 10.2216 178.215 10.1785L178.27 10.1741L201.043 10.1741C201.043 10.1741 203.113 11.8684 203.113 22.5959ZM11.5408 36.3653L11.5408 36.5533C12.814 36.5668 13.8269 36.7155 14.6772 36.9214C15.7859 37.1899 16.6449 37.5687 17.3052 37.7997C17.9765 38.0346 18.5234 38.1536 19.2159 38.0474C19.7524 37.9651 20.411 37.7415 21.2973 37.2722L21.2973 36.3653L11.5408 36.3653ZM19.6152 18.6305L19.5234 18.6262C19.5678 18.6262 19.6115 18.6294 19.6542 18.6357C19.6413 18.6338 19.6283 18.6319 19.6152 18.6305ZM74.6066 8.85237L74.5147 8.84803C74.5591 8.84803 74.6028 8.85124 74.6455 8.85756C74.6326 8.85563 74.6196 8.85371 74.6066 8.85237ZM91.3678 21.0021L91.3678 24.2424L124.265 24.2424L124.265 21.0021L91.3678 21.0021ZM132.906 21.0021L132.906 24.2425L154.508 24.2425L154.508 21.0021L132.906 21.0021ZM158.828 21.0021L158.828 24.2425L167.469 24.2425L167.469 21.0021L158.828 21.0021ZM176.132 24.2425C176.119 23.7037 176.11 23.1541 176.11 22.5959C176.11 22.0559 176.119 21.5239 176.13 21.0021L171.79 21.0021L171.79 24.2425L176.132 24.2425Z" stroke="black" stroke-width="0.532174" mask="url(#path-1-outside-1_3372_1924)"/>
<path d="M200.794 10.7146C200.824 10.7582 200.861 10.8135 200.902 10.8826C201.069 11.1629 201.311 11.6669 201.559 12.5144C202.057 14.2124 202.573 17.2621 202.573 22.5955C202.573 27.929 202.057 30.9794 201.559 32.6775C201.311 33.5249 201.069 34.029 200.902 34.3093C200.861 34.3784 200.824 34.4337 200.794 34.4773H178.81V10.7146H200.794Z" fill="#66696B" stroke="black" stroke-width="1.08011"/>
<path d="M178.257 33.9634L200.374 33.9634C200.374 33.9634 200.927 33.5583 201.48 30.723H178.257V33.9634Z" fill="#505254"/>
<ellipse cx="178.27" cy="22.5959" rx="2.16023" ry="12.4213" fill="black"/>
<rect x="64.3183" y="11.8211" width="113.412" height="4.32046" fill="#505254" stroke="black" stroke-width="1.08011"/>
<rect x="64.3183" y="29.1029" width="113.412" height="4.32046" fill="#505254" stroke="black" stroke-width="1.08011"/>
<rect x="64.3052" y="15.0614" width="114.492" height="5.40057" fill="#66696B" stroke="black" stroke-width="1.08011"/>
<rect x="64.3052" y="24.7825" width="114.492" height="5.40057" fill="#66696B" stroke="black" stroke-width="1.08011"/>
<rect x="65.9253" y="15.6014" width="112.332" height="1.08011" rx="0.540057" fill="white" fill-opacity="0.25"/>
<rect x="65.9253" y="25.3225" width="112.332" height="1.08011" rx="0.540057" fill="white" fill-opacity="0.25"/>
<rect x="65.9253" y="30.723" width="111.252" height="1.08011" rx="0.540057" fill="#414142"/>
<rect x="65.9385" y="12.3347" width="111.252" height="1.08011" rx="0.540057" fill="white" fill-opacity="0.25"/>
<rect x="183.658" y="12.3612" width="12.9614" height="2.16023" rx="1.08011" fill="white" fill-opacity="0.25"/>
<rect x="183.658" y="31.8032" width="12.9614" height="2.16023" rx="1.08011" fill="white" fill-opacity="0.25"/>
<rect x="183.658" y="12.3612" width="12.9614" height="1.08011" rx="0.540057" fill="#0C0D0F"/>
<rect x="182.578" y="16.6816" width="17.2818" height="4.32045" rx="2.16023" fill="white" fill-opacity="0.25"/>
<rect x="182.578" y="26.4026" width="17.2818" height="3.24034" rx="1.62017" fill="white" fill-opacity="0.25"/>
<rect x="182.578" y="16.6816" width="17.2818" height="3.24034" rx="1.62017" fill="#0C0D0F"/>
<rect x="182.578" y="25.3225" width="17.2818" height="3.24034" rx="1.62017" fill="#0C0D0F"/>
<rect x="183.658" y="31.8032" width="12.9614" height="1.08011" rx="0.540057" fill="#0C0D0F"/>
<rect x="124.805" y="10.7146" width="7.56079" height="23.7625" rx="1.62017" fill="#414142" stroke="black" stroke-width="1.08011"/>
<rect x="125.332" y="11.2811" width="6.48068" height="7.56079" rx="1.08011" fill="#D9D9D9" fill-opacity="0.25"/>
<rect x="155.048" y="10.7146" width="3.24034" height="23.7625" rx="1.62017" fill="#414142" stroke="black" stroke-width="1.08011"/>
<rect x="155.588" y="11.2811" width="2.16023" height="7.56079" rx="1.08011" fill="#D9D9D9" fill-opacity="0.25"/>
<rect x="168.009" y="10.7146" width="3.24034" height="23.7625" rx="1.62017" fill="#414142" stroke="black" stroke-width="1.08011"/>
<rect x="168.549" y="11.2811" width="2.16023" height="7.56079" rx="1.08011" fill="#D9D9D9" fill-opacity="0.25"/>
<rect x="168.536" y="21.0021" width="2.16023" height="3.24034" rx="1.08011" fill="#D9D9D9" fill-opacity="0.25"/>
<rect x="155.575" y="21.0021" width="2.16023" height="3.24034" rx="1.08011" fill="#D9D9D9" fill-opacity="0.25"/>
<rect x="125.332" y="21.0021" width="6.48068" height="3.24034" rx="1.08011" fill="#D9D9D9" fill-opacity="0.25"/>
<rect x="179.35" y="11.2546" width="21.6023" height="1.08011" rx="0.540057" fill="#D9D9D9" fill-opacity="0.25"/>
<rect x="91.3564" y="16.8523" width="1.77391" height="3.54783" fill="#1D1D1D" fill-opacity="0.5"/>
<rect x="91.3564" y="13.3044" width="1.77391" height="1.77391" fill="#1D1D1D" fill-opacity="0.5"/>
<rect x="91.3564" y="26.6088" width="1.77391" height="3.54783" fill="#1D1D1D" fill-opacity="0.5"/>
<rect x="91.3564" y="31.9305" width="1.77391" height="1.77391" fill="#1D1D1D" fill-opacity="0.5"/>
<rect x="11.5413" y="34.5913" width="3.54783" height="2.66087" rx="0.886957" transform="rotate(90 11.5413 34.5913)" fill="#000001"/>
<rect x="23.9585" y="34.613" width="3.54783" height="2.66087" rx="0.886957" transform="rotate(90 23.9585 34.613)" fill="#000001"/>
<rect x="7.54969" y="25.2783" width="23.9478" height="10.6435" rx="1.33043" fill="#373839" stroke="black" stroke-width="0.886957"/>
<rect x="7.99316" y="34.5913" width="16.8522" height="0.886957" rx="0.443479" fill="#777676"/>
<rect x="7.99316" y="27.4956" width="16.8522" height="3.54783" rx="0.886957" fill="#272728"/>
<path d="M10.2107 37.2523C17.7498 36.8088 16.8629 40.8218 22.6281 37.274" stroke="#D33D3C" stroke-width="1.33043" stroke-linecap="round"/>
<rect x="81.6108" y="11.5088" width="5.32174" height="22.1739" fill="black"/>
<rect x="20.8541" y="19.9565" width="10.6435" height="7.09565" rx="1.33043" fill="#1D1D1D" stroke="black" stroke-width="0.886957"/>
<rect x="29.7238" y="11.0654" width="52.3304" height="23.0609" rx="0.443478" fill="#0C0D0F" stroke="black" stroke-width="0.886957"/>
<path d="M80.28 32.3524V42.9637L79.8699 42.995L55.9216 44.7684L55.905 44.7694H31.4978V32.3524H80.28Z" fill="#1D1D1D" stroke="black" stroke-width="0.886957"/>
<path d="M66.9756 13.7478L66.9756 3.1482L66.5791 3.10718L49.7266 1.33277L49.7031 1.33081L32.3848 1.33081L32.3848 13.7478L66.9756 13.7478Z" fill="#1D1D1D" stroke="black" stroke-width="0.886957"/>
<rect x="28.8368" y="8.40454" width="47.0087" height="12.4174" rx="1.33043" fill="#343337" stroke="black" stroke-width="0.886957"/>
<rect x="2.22815" y="18.1827" width="18.6261" height="10.6435" rx="1.33043" fill="#505254" stroke="black" stroke-width="0.886957"/>
<rect x="85.6019" y="9.2915" width="5.32174" height="26.6087" rx="0.443478" fill="#1D1D1D" stroke="black" stroke-width="0.886957"/>
<rect x="29.2803" y="8.86963" width="46.1217" height="0.886959" rx="0.443479" fill="white" fill-opacity="0.25"/>
<rect x="88.2521" y="13.7477" width="17.7391" height="5.32174" rx="1.33043" transform="rotate(90 88.2521 13.7477)" fill="#505254" stroke="black" stroke-width="0.886957"/>
<rect x="84.261" y="15.0565" width="2.66087" height="0.886957" rx="0.443478" fill="#1D1D1D"/>
<rect x="84.261" y="16.8304" width="2.66087" height="0.886957" rx="0.443478" fill="#1D1D1D"/>
<rect x="84.261" y="18.6044" width="2.66087" height="0.886957" rx="0.443478" fill="#1D1D1D"/>
<rect x="84.261" y="20.3783" width="2.66087" height="0.886957" rx="0.443478" fill="#1D1D1D"/>
<rect x="84.261" y="22.1522" width="2.66087" height="0.886957" rx="0.443478" fill="#1D1D1D"/>
<rect x="84.261" y="23.926" width="2.66087" height="0.886957" rx="0.443478" fill="#1D1D1D"/>
<rect x="84.261" y="25.7001" width="2.66087" height="0.886957" rx="0.443478" fill="#1D1D1D"/>
<rect x="84.261" y="27.4956" width="2.66087" height="0.886957" rx="0.443478" fill="#1D1D1D"/>
<rect x="84.261" y="29.2694" width="2.66087" height="0.886957" rx="0.443478" fill="#1D1D1D"/>
<rect x="31.4977" y="33.2393" width="35.4783" height="18.6261" rx="1.33043" fill="#373839" stroke="black" stroke-width="0.886957"/>
<rect x="31.9412" y="49.6479" width="34.5913" height="1.77391" rx="0.886957" fill="#676767"/>
<rect x="31.9412" y="38.1392" width="34.5913" height="1.77391" rx="0.886957" fill="#272728"/>
<rect x="35.0455" y="31.4655" width="28.3826" height="22.1739" rx="1.33043" fill="#25301F" stroke="black" stroke-width="0.886957"/>
<path d="M35.4783 47.0088H62.9739V52.3305C62.9739 52.8204 62.5768 53.2175 62.087 53.2175H36.3652C35.8754 53.2175 35.4783 52.8204 35.4783 52.3305V47.0088Z" fill="#3C4F32"/>
<path d="M35.489 51.4219H62.9847V52.3088C62.9847 52.7987 62.5876 53.1958 62.0977 53.1958H36.376C35.8861 53.1958 35.489 52.7987 35.489 52.3088V51.4219Z" fill="#6A7867"/>
<rect x="40.8108" y="40.7784" width="16.8522" height="2.66087" rx="1.33043" fill="black"/>
<rect x="42.1412" y="26.1436" width="14.1913" height="16.8522" fill="#1D2F1D" stroke="black" stroke-width="0.886957"/>
<rect x="42.5847" y="29.2479" width="13.3043" height="0.886957" fill="#305130"/>
<rect x="42.5847" y="27.4741" width="13.3043" height="0.886957" fill="#305130"/>
<rect x="42.5847" y="31.0219" width="13.3043" height="0.886957" fill="#305130"/>
<rect x="42.5847" y="32.7958" width="13.3043" height="0.886957" fill="#305130"/>
<rect x="42.5847" y="34.5697" width="13.3043" height="0.886957" fill="#305130"/>
<rect x="42.5847" y="36.3436" width="13.3043" height="0.886957" fill="#305130"/>
<rect x="42.5737" y="39.0261" width="13.3043" height="0.886957" fill="#305130"/>
<rect x="42.5737" y="40.8" width="13.3043" height="0.886957" fill="#305130"/>
<g style="mix-blend-mode:overlay">
<rect x="50.5671" y="26.587" width="3.54783" height="15.9652" fill="#D9D9D9" fill-opacity="0.5"/>
</g>
<g style="mix-blend-mode:overlay">
<rect x="47.0193" y="26.587" width="1.77391" height="15.9652" fill="#D9D9D9" fill-opacity="0.5"/>
</g>
<rect x="29.2803" y="10.6436" width="41.687" height="9.75652" fill="#1D1D1D"/>
<rect x="25.2889" y="11.974" width="44.3478" height="25.7217" rx="1.33043" fill="#505254" stroke="black" stroke-width="0.886957"/>
<path d="M25.7324 29.2697H69.1933V36.3653C69.1933 36.8552 68.7962 37.2523 68.3063 37.2523H26.6194C26.1295 37.2523 25.7324 36.8552 25.7324 36.3653V29.2697Z" fill="#414142"/>
<path d="M25.7324 16.8523L69.1933 16.8523L69.1933 13.3045C69.1933 12.8146 68.7962 12.4175 68.3063 12.4175L26.6194 12.4175C26.1295 12.4175 25.7324 12.8146 25.7324 13.3045L25.7324 16.8523Z" fill="white" fill-opacity="0.25"/>
<rect x="37.2627" y="32.8175" width="15.0783" height="2.66087" rx="1.33044" fill="#7D8084"/>
<rect x="54.1147" y="32.8174" width="5.32174" height="2.66087" rx="1.33043" fill="#7D8084"/>
<rect x="37.2627" y="32.8175" width="15.0783" height="1.77391" rx="0.886957" fill="#0C0D0F"/>
<rect x="54.1147" y="32.8174" width="5.32174" height="1.77391" rx="0.886957" fill="#0C0D0F"/>
<rect x="1.34119" y="20.8435" width="15.9652" height="5.32174" rx="1.33043" fill="#1D1D1D" stroke="black" stroke-width="0.886957"/>
<path d="M83.595 32.415C84.2837 32.6724 84.6333 33.4394 84.3752 34.1279L84.1243 34.7969C83.8646 35.4885 83.0913 35.8363 82.4016 35.5713L56.8079 25.7256C56.7571 25.7061 56.7031 25.6953 56.6487 25.6953L24.8459 25.6953C24.1112 25.6953 23.5149 25.1 23.5149 24.3652L23.5149 22.0488C23.5149 21.314 24.1112 20.7187 24.8459 20.7187L56.3518 20.7187C56.4075 20.7187 56.4631 20.708 56.5149 20.6875L82.0999 10.5635C82.7918 10.2897 83.574 10.6372 83.8352 11.334L84.0872 12.0049C84.3429 12.6869 84.0024 13.4479 83.3235 13.7119L60.0178 22.7773C59.6386 22.9252 59.6423 23.4628 60.0237 23.6055L83.595 32.415Z" fill="#505254" stroke="black" stroke-width="0.886957" stroke-linecap="round"/>
<path d="M82.4976 11.087L56.4877 21.2265C56.385 21.2665 56.2758 21.287 56.1656 21.287L24.8454 21.287" stroke="#7C7D7F" stroke-width="0.886957"/>
<path d="M83.8171 33.261L59.4258 23.948" stroke="#7C7D7F" stroke-width="0.886957" stroke-linecap="round"/>
</svg>
