<svg width="123" height="110" viewBox="0 0 123 110" fill="none" xmlns="http://www.w3.org/2000/svg">
<path fill-rule="evenodd" clip-rule="evenodd" d="M7.57697 62.6983C7.66619 62.6013 7.7737 62.5222 7.89277 62.4657L9.3362 61.7811C9.58988 61.661 9.88202 61.6503 10.144 61.7511L13.4882 63.0379C13.7066 63.122 13.8901 63.2785 14.0075 63.481L14.4361 64.2211C14.5292 64.3819 14.5772 64.5653 14.5744 64.7511L14.5731 64.8425C14.5676 65.2011 14.3683 65.528 14.0538 65.6987L13.8423 66.5592L13.8256 67.5381L14.1253 68.3271C14.2735 68.7177 14.17 69.1593 13.8638 69.4434L13.7609 69.5387C13.5868 69.7002 13.3618 69.7964 13.1248 69.8107L11.9296 69.8825C11.9389 70.0021 11.9234 70.1176 11.8909 70.2199C11.7637 70.6181 11.6954 71.5156 12.3753 72.3999C12.5258 72.5957 12.5993 72.8269 12.6114 73.0495C12.6416 73.606 12.9725 74.2106 13.2896 74.5462C13.5699 74.8429 13.7666 75.3005 13.7303 75.749C13.7013 76.1062 13.7949 76.4767 13.9801 76.7703C14.058 76.8938 14.1185 77.0355 14.1632 77.1845L15.7423 76.2728L15.3037 75.513L16.6589 73.9661L17.6388 73.4004L17.904 73.8598L18.7853 73.3346L18.541 72.9115L19.8636 72.1238L18.3212 69.4523C18.038 68.9615 18.206 68.3343 18.6967 68.051L39.5795 55.9943C39.9081 55.8046 40.2976 55.8182 40.6044 55.9948L50.4994 50.2819L47.2641 44.6782C47.1812 44.5347 47.1723 44.3597 47.241 44.2088L47.3816 43.9C47.4266 43.8011 47.5019 43.719 47.5966 43.6657L48.446 43.187C48.5338 43.1375 48.6342 43.1149 48.7347 43.1221L49.0819 43.1473C49.2516 43.1595 49.4044 43.2551 49.4895 43.4025L52.7208 48.9994C53.2115 48.7161 53.8388 48.8842 54.1221 49.3748C54.4011 49.8582 54.2418 50.4733 53.7681 50.7624L54.9552 52.8185L55.5535 52.8788L55.9873 53.6302L78.3221 40.7352C78.3223 40.381 78.5055 40.0365 78.8343 39.8466L80.6116 38.8205C80.9404 38.6307 81.3303 38.6444 81.6373 38.8212L90.7623 33.5529C90.7626 33.1986 90.9458 32.8541 91.2746 32.6642C91.6034 32.4743 91.9933 32.4881 92.3003 32.6649L96.094 30.4746C96.0943 30.1203 96.2775 29.7758 96.6063 29.5859C96.9352 29.396 97.325 29.4098 97.6321 29.5866L100.055 28.1877C100.001 27.8382 100.032 27.6085 100.161 27.5337L109.528 22.1253C109.535 22.1265 110.79 22.3429 113.33 26.7432C115.878 31.1559 115.429 32.3446 115.429 32.3446L106.061 37.7527C105.948 37.8179 105.77 37.7584 105.542 37.5941L105.442 37.5176L103.019 38.9165C103.018 39.2706 102.835 39.6149 102.506 39.8047C102.219 39.9706 101.884 39.9811 101.6 39.8629L101.481 39.8042L97.687 41.9948C97.6864 42.3489 97.5031 42.6932 97.1744 42.883C96.8868 43.0489 96.5527 43.0594 96.2681 42.9412L96.1494 42.8825L87.024 48.1511C87.0233 48.5052 86.84 48.8494 86.5114 49.0393L84.7342 50.0654C84.4466 50.2314 84.1124 50.2418 83.8279 50.1236L83.7092 50.0649L59.5962 63.9865L60.6223 65.7637C60.764 66.0091 60.6802 66.3232 60.4349 66.4649L58.2134 67.7474C57.9681 67.8891 57.6542 67.8045 57.5125 67.5592L56.9996 66.6708L55.6666 67.4405L55.6904 67.4874C55.7969 67.7245 55.7083 68.0086 55.4783 68.1414L55.0341 68.3978L57.5812 72.8094L51.2018 77.1506L52.9874 80.2433C53.2705 80.734 53.102 81.3616 52.6114 81.6449L51.7231 82.1578C52.0062 82.6485 51.8377 83.276 51.3471 83.5594L38.4622 90.9985C38.0022 91.264 37.4221 91.133 37.1178 90.7115L37.0609 90.623L36.172 91.1362C35.6814 91.4194 35.0541 91.2512 34.7707 90.7607L30.1532 82.7629L29.7085 83.0196C29.4632 83.1612 29.1495 83.0771 29.0078 82.8319L26.9557 79.2774L25.6226 80.047C25.3351 80.213 25.0009 80.2235 24.7163 80.1052L24.5976 80.0465L18.7018 83.4505L19.2147 84.3389C19.3563 84.5842 19.2722 84.8978 19.027 85.0395L18.1381 85.5527C17.8928 85.6943 17.5792 85.6103 17.4375 85.3649L16.9246 84.4766L15.5915 85.2462C15.3038 85.4123 14.9692 85.4227 14.6844 85.3042L14.5658 85.2455L13.1134 86.0841C12.6227 86.3673 11.9954 86.1992 11.7121 85.7086L11.1989 84.8197C10.9157 84.329 11.0837 83.7018 11.5744 83.4185L12.9074 82.6488L12.1378 81.3158L9.91585 82.5986C9.42511 82.8818 8.79761 82.7133 8.51428 82.2226L8.25783 81.7784C8.03041 81.3843 8.09421 80.9021 8.38232 80.5807C7.91233 79.6572 7.32395 78.3457 6.85462 76.9439C6.37033 75.4974 5.99714 73.9108 6.03748 72.5426C6.09433 70.6174 6.2564 69.5551 6.41765 69.0188C6.48567 68.7925 6.50353 68.643 6.48609 68.5736L5.94108 66.4083C5.90329 66.2582 5.89988 66.1012 5.93126 65.9496L6.26419 64.3413C6.30183 64.1597 6.38808 63.9914 6.51363 63.8549L7.57697 62.6983ZM15.3351 84.802L16.6681 84.0324L15.3255 84.8069L15.3351 84.802ZM57.0311 59.5436L81.0242 45.6912L80.7675 45.2465L56.7744 59.0989L57.0311 59.5436ZM84.5787 43.639L93.4645 38.5088L93.2077 38.0642L84.322 43.1943L84.5787 43.639ZM95.2417 37.4827L98.7962 35.4305L98.5395 34.9859L94.985 37.0381L95.2417 37.4827ZM100.573 34.4045L102.353 33.3772C102.31 33.3039 102.265 33.2307 102.222 33.1563L102.096 32.9326L100.317 33.9598L100.573 34.4045ZM42.0068 58.147L44.2283 56.8645L44.3218 56.8163C44.7961 56.6032 45.3644 56.7797 45.63 57.2397L45.8868 57.6843L48.1087 56.4015L47.998 56.2097L47.9806 56.1526L47.4879 54.5129L47.8338 54.3132L47.7807 54.2212L41.7504 57.7028L42.0068 58.147ZM12.0568 72.8753C12.0467 72.8481 12.0356 72.8212 12.0219 72.7956L12.0186 72.791C12.0333 72.8182 12.0461 72.8463 12.0568 72.8753ZM13.6452 68.5091C13.6631 68.5561 13.6728 68.6049 13.6764 68.6535C13.6747 68.6302 13.6724 68.6067 13.6674 68.5836C13.662 68.5587 13.6552 68.5336 13.646 68.5093L13.3463 67.7202L13.6452 68.5091ZM13.992 64.4788C14.0142 64.5173 14.0307 64.5585 14.0423 64.601C14.0368 64.5806 14.0311 64.5601 14.023 64.5404L13.992 64.4788ZM13.4439 63.5996C13.4243 63.5835 13.4041 63.568 13.3823 63.555L13.3771 63.5527C13.4005 63.5667 13.4229 63.5824 13.4439 63.5996Z" fill="black" stroke="black" stroke-width="0.202451"/>
<path d="M109.552 22.4083C109.575 22.419 109.605 22.4313 109.639 22.4503C109.774 22.5262 109.994 22.6755 110.297 22.9648C110.905 23.545 111.842 24.6775 113.108 26.8715C114.375 29.0651 114.887 30.442 115.086 31.2588C115.185 31.6665 115.205 31.9316 115.203 32.0866C115.202 32.1261 115.197 32.1581 115.194 32.1838L106.155 37.4025L100.512 27.6276L109.552 22.4083Z" fill="#66696B" stroke="black" stroke-width="0.513044"/>
<path d="M105.805 37.3083L114.913 32.0496C114.913 32.0496 115.195 30.9984 112.758 26.7774L102.983 32.4209L105.805 37.3083Z" fill="#505254"/>
<ellipse cx="103.111" cy="32.6431" rx="1.02609" ry="5.9" transform="rotate(-30 103.111 32.6431)" fill="black"/>
<path d="M56.1498 54.4251L49.4846 58.2732L48.2341 56.1073L48.2259 56.0794L47.8506 54.8279L47.7917 54.6341L48.1842 54.4075L47.877 53.8755L48.0995 53.7471L53.1954 50.7982L53.4178 50.6698L54.7982 53.0607L55.2653 53.1079L55.3969 53.121L56.1498 54.4251Z" fill="#343337" stroke="black" stroke-width="0.513044" stroke-linecap="round"/>
<rect x="53.6713" y="55.2632" width="53.8696" height="3.07826" transform="rotate(-30 53.6713 55.2632)" fill="#505254" stroke="black" stroke-width="0.513044"/>
<rect x="57.2626" y="61.4834" width="53.8696" height="3.07826" transform="rotate(-30 57.2626 61.4834)" fill="#505254" stroke="black" stroke-width="0.513044"/>
<rect x="54.6972" y="57.0404" width="54.3826" height="2.56522" transform="rotate(-30 54.6972 57.0404)" fill="#66696B" stroke="black" stroke-width="0.513044"/>
<rect x="56.4931" y="60.1505" width="54.3826" height="2.56522" transform="rotate(-30 56.4931 60.1505)" fill="#66696B" stroke="black" stroke-width="0.513044"/>
<rect x="48.8091" y="56.5892" width="3.07826" height="12.8261" transform="rotate(-30 48.8091 56.5892)" fill="black"/>
<path d="M18.5859 76.0673L17.4631 74.1227L18.9939 73.2107L20.1289 75.1765L18.5859 76.0673Z" fill="#0C0D0F"/>
<path d="M21.2369 73.9889L19.9041 74.7585L18.8899 73.0019L20.2125 72.2146L21.2369 73.9889Z" fill="#373839" stroke="black" stroke-width="0.513044" stroke-linecap="round"/>
<path d="M17.5446 73.7515L18.569 75.5258L16.3369 76.7886L15.6182 75.5437L16.8241 74.1675L17.5446 73.7515Z" fill="#373839" stroke="black" stroke-width="0.513044" stroke-linecap="round"/>
<path d="M9.44649 62.0133C9.63676 61.9232 9.85592 61.9148 10.0524 61.9905L13.3957 63.2773C13.5596 63.3404 13.6968 63.4578 13.7849 63.6097L14.2143 64.3496C14.2842 64.4702 14.32 64.6082 14.3179 64.7476L14.3163 64.8387C14.3121 65.1084 14.1607 65.3544 13.9216 65.4793C13.865 65.5089 13.8231 65.5619 13.8078 65.624L13.593 66.4979C13.5884 66.5165 13.5858 66.536 13.5855 66.5552L13.5698 67.534C13.5693 67.5665 13.5741 67.5994 13.5856 67.6298L13.8854 68.4185C13.9964 68.7113 13.9192 69.0424 13.6898 69.2554L13.5862 69.3514C13.4556 69.4723 13.2869 69.5439 13.1092 69.5546L11.6654 69.6417C11.6321 69.6439 11.6114 69.6784 11.6252 69.7088C11.6922 69.8545 11.6883 70.0106 11.6464 70.142C11.4985 70.6053 11.4318 71.5936 12.172 72.5562C12.2874 72.7064 12.3459 72.8865 12.3555 73.0636C12.3898 73.6952 12.755 74.355 13.1027 74.7229C13.3405 74.9746 13.5043 75.3623 13.4745 75.7283C13.4409 76.1415 13.5491 76.5667 13.7636 76.9067C13.9207 77.1556 14.0039 77.508 13.9948 77.8287C13.986 78.1385 13.8851 78.5146 13.5631 78.6981C12.2689 79.4356 10.7073 80.3153 9.70805 80.8765C9.33755 81.0844 8.86315 80.954 8.664 80.5681C8.19058 79.65 7.58001 78.3038 7.09754 76.8627C6.61661 75.4263 6.25455 73.8735 6.29354 72.5503C6.35024 70.63 6.5119 69.5955 6.6631 69.0927C6.7301 68.8698 6.77109 68.6572 6.73452 68.5113L6.18972 66.345C6.16152 66.2327 6.15883 66.1155 6.18226 66.002L6.51535 64.3934C6.54357 64.2571 6.60836 64.1307 6.70256 64.0282L7.76589 62.8719C7.83277 62.7992 7.9129 62.7396 8.00216 62.6972L9.44649 62.0133Z" fill="#1F201E" stroke="black" stroke-width="0.513044" stroke-linecap="round"/>
<path d="M14.0632 64.6013L13.4726 63.5818C13.5802 63.826 13.5449 64.4589 12.543 65.0374C11.5411 65.6158 11.9913 67.3596 12.3417 68.1592C12.1394 68.3873 11.5267 68.8301 10.6942 68.7764C10.2398 69.8403 10.5566 70.0804 10.7717 70.0675C10.3319 70.6554 9.85511 72.0661 11.4664 73.006C10.7269 74.5016 11.9554 75.3954 12.662 75.6553C12.3539 76.2785 12.0113 77.7676 13.1062 78.7384C13.7073 78.3914 14.3477 77.9765 14.5928 77.8124C13.5381 77.5865 12.9493 76.2569 13.3258 75.2047C12.8767 75.0466 12.0454 73.9166 12.0984 72.8723C11.0837 71.6931 11.242 70.425 11.448 69.9384C11.3316 69.6852 11.5061 69.3941 11.7843 69.3774L13.2771 69.2878L13.7681 68.8324L13.3109 67.6282L13.33 66.4928L13.6105 65.3521L14.0553 65.1199L14.0632 64.6013Z" fill="black" fill-opacity="0.35"/>
<rect x="8.09539" y="80.9839" width="18.4696" height="2.05217" rx="0.769565" transform="rotate(-30 8.09539 80.9839)" fill="#595959" stroke="black" stroke-width="0.513044"/>
<rect x="11.0361" y="84.0254" width="17.4435" height="2.56522" rx="0.769565" transform="rotate(-30 11.0361 84.0254)" fill="#10100E" stroke="black" stroke-width="0.513044"/>
<rect x="17.1624" y="80.7845" width="4.61739" height="2.05217" rx="0.513043" transform="rotate(60 17.1624 80.7845)" fill="#000001"/>
<rect x="11.7184" y="80.077" width="14.8783" height="6.15652" rx="0.769565" transform="rotate(-30 11.7184 80.077)" fill="#4E4E4F" stroke="black" stroke-width="0.513044"/>
<rect x="22.6888" y="71.3737" width="30.2696" height="13.3391" rx="0.256522" transform="rotate(-30 22.6888 71.3737)" fill="#0C0D0F" stroke="black" stroke-width="0.513044"/>
<path d="M54.1707 67.415L57.24 72.7313L57.0433 72.8651L45.5598 80.6803L33.3247 87.7442L29.7334 81.5239L54.1707 67.415Z" fill="#1D1D1D" stroke="black" stroke-width="0.513044"/>
<rect x="21.475" y="70.2972" width="27.1913" height="7.18261" rx="0.769565" transform="rotate(-30 21.475 70.2972)" fill="#343337" stroke="black" stroke-width="0.513044"/>
<rect x="36.1874" y="58.8409" width="20.0087" height="1.53913" rx="0.769565" transform="rotate(-30 36.1874 58.8409)" fill="#272728" stroke="black" stroke-width="0.513044"/>
<rect x="50.1673" y="54.3241" width="3.07826" height="15.3913" rx="0.256522" transform="rotate(-30 50.1673 54.3241)" fill="#1D1D1D" stroke="black" stroke-width="0.513044"/>
<path d="M47.264 44.6781C47.1811 44.5346 47.1727 44.3599 47.2413 44.2091L47.3818 43.9002C47.4269 43.8013 47.5022 43.7191 47.5969 43.6658L48.4463 43.1871C48.534 43.1376 48.6345 43.1151 48.735 43.1223L49.082 43.1473C49.2518 43.1595 49.4044 43.2551 49.4895 43.4025L52.9773 49.4435L50.7558 50.7262L47.264 44.6781Z" fill="#0C0D0F"/>
<rect x="55.4922" y="56.8777" width="53.3565" height="0.513044" rx="0.256522" transform="rotate(-30 55.4922 56.8777)" fill="white" fill-opacity="0.25"/>
<rect x="57.2878" y="59.9878" width="53.3565" height="0.513044" rx="0.256522" transform="rotate(-30 57.2878 59.9878)" fill="white" fill-opacity="0.25"/>
<rect x="58.5703" y="62.2094" width="52.8435" height="0.513044" rx="0.256522" transform="rotate(-30 58.5703 62.2094)" fill="#1D1D1D"/>
<rect x="54.9792" y="55.9891" width="52.8435" height="0.513044" rx="0.256522" transform="rotate(-30 54.9792 55.9891)" fill="#1D1D1D"/>
<rect x="54.4663" y="55.1005" width="52.8435" height="0.513044" rx="0.256522" transform="rotate(-30 54.4663 55.1005)" fill="white" fill-opacity="0.25"/>
<rect x="48.4153" y="53.8546" width="5.64348" height="0.513044" rx="0.256522" transform="rotate(-30 48.4153 53.8546)" fill="white" fill-opacity="0.25"/>
<rect x="47.6089" y="44.2493" width="1.53913" height="0.513044" rx="0.256522" transform="rotate(-30 47.6089 44.2493)" fill="#343337"/>
<rect x="48.1218" y="45.1378" width="1.53913" height="0.513044" rx="0.256522" transform="rotate(-30 48.1218 45.1378)" fill="#343337"/>
<rect x="48.6348" y="46.0265" width="1.53913" height="0.513044" rx="0.256522" transform="rotate(-30 48.6348 46.0265)" fill="#343337"/>
<rect x="49.1477" y="46.915" width="1.53913" height="0.513044" rx="0.256522" transform="rotate(-30 49.1477 46.915)" fill="#343337"/>
<rect x="49.6609" y="47.8037" width="1.53913" height="0.513044" rx="0.256522" transform="rotate(-30 49.6609 47.8037)" fill="#343337"/>
<rect x="50.1741" y="48.6924" width="1.53913" height="0.513044" rx="0.256522" transform="rotate(-30 50.1741 48.6924)" fill="#343337"/>
<rect x="50.687" y="49.5809" width="1.53913" height="0.513044" rx="0.256522" transform="rotate(-30 50.687 49.5809)" fill="#343337"/>
<rect x="29.9904" y="81.9684" width="20.5217" height="10.7739" rx="0.769565" transform="rotate(-30 29.9904 81.9684)" fill="#373839" stroke="black" stroke-width="0.513044"/>
<rect x="18.1586" y="68.6574" width="25.6522" height="13.3391" rx="0.769565" transform="rotate(-30 18.1586 68.6574)" fill="#505254" stroke="black" stroke-width="0.513044"/>
<rect x="34.9585" y="90.0598" width="20.0087" height="1.02609" rx="0.513044" transform="rotate(-30 34.9585 90.0598)" fill="#676767"/>
<rect x="30.3408" y="82.0623" width="20.0087" height="1.02609" rx="0.513044" transform="rotate(-30 30.3408 82.0623)" fill="#272728"/>
<rect x="14.634" y="84.614" width="10.7739" height="0.513044" rx="0.256522" transform="rotate(-30 14.634 84.614)" fill="#777676"/>
<rect x="8.4458" y="81.0778" width="14.3652" height="0.513044" rx="0.256522" transform="rotate(-30 8.4458 81.0778)" fill="#777676"/>
<rect x="31.2546" y="80.0536" width="16.4174" height="12.8261" rx="0.769565" transform="rotate(-30 31.2546 80.0536)" fill="#7F8B7B" stroke="black" stroke-width="0.513044"/>
<rect x="33.6572" y="83.7019" width="15.9043" height="4.10435" transform="rotate(-30 33.6572 83.7019)" fill="#6A7867"/>
<path d="M35.7095 87.2563L49.483 79.3042L51.2787 82.4143C51.4204 82.6597 51.3363 82.9735 51.0909 83.1152L38.206 90.5543C37.9606 90.696 37.6468 90.6119 37.5051 90.3665L35.7095 87.2563Z" fill="#25301F"/>
<path d="M21.5872 74.0831L43.3583 61.5136L46.4365 66.8453C46.5782 67.0907 46.4941 67.4044 46.2488 67.5461L25.3662 79.6026C25.1209 79.7443 24.8071 79.6602 24.6654 79.4148L21.5872 74.0831Z" fill="#414142"/>
<path d="M37.2485 89.9222L51.0221 81.9701L51.2786 82.4144C51.4203 82.6598 51.3362 82.9735 51.0908 83.1152L38.2059 90.5543C37.9605 90.696 37.6467 90.6119 37.5051 90.3665L37.2485 89.9222Z" fill="#3C4F32"/>
<rect x="13.1638" y="83.0933" width="2.05217" height="0.513043" transform="rotate(60 13.1638 83.0933)" fill="#2B2B26"/>
<rect x="12.2751" y="83.6063" width="2.05217" height="0.513043" transform="rotate(60 12.2751 83.6063)" fill="#2B2B26"/>
<circle cx="14.1715" cy="80.7342" r="0.641304" transform="rotate(-30 14.1715 80.7342)" fill="black" stroke="#383838" stroke-width="0.256522"/>
<circle cx="20.8361" cy="76.8863" r="0.641304" transform="rotate(-30 20.8361 76.8863)" fill="black" stroke="#383838" stroke-width="0.256522"/>
<circle cx="15.1977" cy="82.5115" r="0.641304" transform="rotate(-30 15.1977 82.5115)" fill="black" stroke="#383838" stroke-width="0.256522"/>
<rect x="36.8362" y="83.0514" width="9.74783" height="1.53913" rx="0.769565" transform="rotate(-30 36.8362 83.0514)" fill="black"/>
<circle cx="21.8622" cy="78.6636" r="0.641304" transform="rotate(-30 21.8622 78.6636)" fill="black" stroke="#383838" stroke-width="0.256522"/>
<rect x="33.2699" y="75.3355" width="8.2087" height="9.74783" transform="rotate(-30 33.2699 75.3355)" fill="#1D2F1D" stroke="black" stroke-width="0.513044"/>
<rect x="34.3899" y="76.7625" width="7.69565" height="0.513044" transform="rotate(-30 34.3899 76.7625)" fill="#305130"/>
<rect x="33.8767" y="75.8739" width="7.69565" height="0.513044" transform="rotate(-30 33.8767 75.8739)" fill="#305130"/>
<rect x="34.9031" y="77.651" width="7.69565" height="0.513044" transform="rotate(-30 34.9031 77.651)" fill="#305130"/>
<rect x="35.416" y="78.5397" width="7.69565" height="0.513044" transform="rotate(-30 35.416 78.5397)" fill="#305130"/>
<rect x="35.929" y="79.4283" width="7.69565" height="0.513044" transform="rotate(-30 35.929 79.4283)" fill="#305130"/>
<rect x="36.4421" y="80.3169" width="7.69565" height="0.513044" transform="rotate(-30 36.4421 80.3169)" fill="#305130"/>
<rect x="36.9551" y="81.2054" width="7.69565" height="0.513044" transform="rotate(-30 36.9551 81.2054)" fill="#305130"/>
<rect x="37.4683" y="82.0941" width="7.69565" height="0.513044" transform="rotate(-30 37.4683 82.0941)" fill="#305130"/>
<rect x="37.9812" y="82.9828" width="7.69565" height="0.513044" transform="rotate(-30 37.9812 82.9828)" fill="#305130"/>
<g style="mix-blend-mode:overlay">
<rect x="37.6191" y="73.1207" width="2.05217" height="9.23478" transform="rotate(-30 37.6191 73.1207)" fill="#D9D9D9" fill-opacity="0.5"/>
</g>
<g style="mix-blend-mode:overlay">
<rect x="35.8418" y="74.1467" width="1.02609" height="9.23478" transform="rotate(-30 35.8418 74.1467)" fill="#D9D9D9" fill-opacity="0.5"/>
</g>
<rect x="25.8242" y="68.0824" width="8.72174" height="2.05217" rx="1.02609" transform="rotate(-30 25.8242 68.0824)" fill="#7D8084"/>
<rect x="104.109" y="28.2159" width="6.15652" height="1.53913" rx="0.769565" transform="rotate(-30 104.109 28.2159)" fill="#7D8084"/>
<rect x="106.418" y="32.2148" width="6.15652" height="1.53913" rx="0.769565" transform="rotate(-30 106.418 32.2148)" fill="#7D8084"/>
<rect x="34.2659" y="63.2085" width="3.07826" height="2.05217" rx="1.02609" transform="rotate(-30 34.2659 63.2085)" fill="#7D8084"/>
<rect x="25.8242" y="68.0824" width="8.72174" height="1.53913" rx="0.769565" transform="rotate(-30 25.8242 68.0824)" fill="#0C0D0F"/>
<rect x="104.109" y="28.2159" width="6.15652" height="1.02609" rx="0.513044" transform="rotate(-30 104.109 28.2159)" fill="#0C0D0F"/>
<rect x="106.418" y="32.2148" width="6.15652" height="1.02609" rx="0.513044" transform="rotate(-30 106.418 32.2148)" fill="#0C0D0F"/>
<rect x="34.2659" y="63.2085" width="3.07826" height="1.53913" rx="0.769565" transform="rotate(-30 34.2659 63.2085)" fill="#0C0D0F"/>
<rect x="78.2961" y="40.4536" width="3.5913" height="11.287" rx="0.769565" transform="rotate(-30 78.2961 40.4536)" fill="#414142" stroke="black" stroke-width="0.513044"/>
<rect x="78.6465" y="40.5475" width="3.07826" height="2.56522" rx="0.513044" transform="rotate(-30 78.6465 40.5475)" fill="#D9D9D9" fill-opacity="0.25"/>
<rect x="90.7367" y="33.271" width="1.53913" height="11.287" rx="0.769565" transform="rotate(-30 90.7367 33.271)" fill="#414142" stroke="black" stroke-width="0.513044"/>
<rect x="91.0872" y="33.3649" width="1.02609" height="2.56522" rx="0.513044" transform="rotate(-30 91.0872 33.3649)" fill="#D9D9D9" fill-opacity="0.25"/>
<rect x="96.0685" y="30.1926" width="1.53913" height="11.287" rx="0.769565" transform="rotate(-30 96.0685 30.1926)" fill="#414142" stroke="black" stroke-width="0.513044"/>
<rect x="96.4189" y="30.2865" width="1.02609" height="2.56522" rx="0.513044" transform="rotate(-30 96.4189 30.2865)" fill="#D9D9D9" fill-opacity="0.25"/>
<rect x="100.862" y="27.7214" width="10.2609" height="0.513044" rx="0.256522" transform="rotate(-30 100.862 27.7214)" fill="#D9D9D9" fill-opacity="0.25"/>
<rect x="42.2634" y="58.5911" width="1.02609" height="6.66956" transform="rotate(-30 42.2634 58.5911)" fill="#1D1D1D"/>
<rect x="40.981" y="56.3696" width="1.02609" height="1.02609" transform="rotate(-30 40.981 56.3696)" fill="#1D1D1D"/>
<path d="M14.1714 80.7342C17.8198 78.3317 20.2568 82.5526 20.8361 76.8864" stroke="#D33D3C" stroke-width="0.769565" stroke-linecap="round"/>
<path d="M21.8671 78.6723C17.0502 76.9988 20.3992 84.8515 15.2025 82.5201" stroke="#CAAF00" stroke-width="0.769565" stroke-linecap="round"/>
<rect x="55.7485" y="57.322" width="1.02609" height="1.53913" transform="rotate(-30 55.7485 57.322)" fill="#1D1D1D" fill-opacity="0.5"/>
<rect x="57.5444" y="60.4323" width="1.02609" height="1.53913" transform="rotate(-30 57.5444 60.4323)" fill="#1D1D1D" fill-opacity="0.5"/>
<rect x="58.8269" y="62.6537" width="1.02609" height="1.02609" transform="rotate(-30 58.8269 62.6537)" fill="#1D1D1D" fill-opacity="0.5"/>
<rect x="54.7227" y="55.5448" width="1.02609" height="0.513044" transform="rotate(-30 54.7227 55.5448)" fill="#1D1D1D" fill-opacity="0.5"/>
<mask id="path-92-outside-1_3353_1097" maskUnits="userSpaceOnUse" x="26.1347" y="64.1724" width="17.7224" height="13.6962" fill="black">
<rect fill="white" x="26.1347" y="64.1724" width="17.7224" height="13.6962"/>
<path d="M27.7573 73.4828C27.6156 73.2374 27.6997 72.9236 27.945 72.7819L39.9414 65.8558C40.1868 65.7142 40.5005 65.7982 40.6422 66.0436L42.6944 69.5981L29.8094 77.0372L27.7573 73.4828Z"/>
</mask>
<path d="M27.7573 73.4828C27.6156 73.2374 27.6997 72.9236 27.945 72.7819L39.9414 65.8558C40.1868 65.7142 40.5005 65.7982 40.6422 66.0436L42.6944 69.5981L29.8094 77.0372L27.7573 73.4828Z" fill="#414142"/>
<path d="M27.3129 73.7393C27.0296 73.2485 27.1977 72.621 27.6885 72.3376L39.6849 65.4115C40.1756 65.1282 40.8032 65.2963 41.0865 65.7871L40.1979 66.3002L28.2016 73.2262L27.3129 73.7393ZM42.6944 69.5981L29.8094 77.0372L42.6944 69.5981ZM29.3651 77.2938L27.3129 73.7393C27.0296 73.2485 27.1977 72.621 27.6885 72.3376L28.2016 73.2262L30.2537 76.7807L29.3651 77.2938ZM39.6849 65.4115C40.1756 65.1282 40.8032 65.2963 41.0865 65.7871L43.1387 69.3416L42.2501 69.8546L40.1979 66.3002L39.6849 65.4115Z" fill="#272728" mask="url(#path-92-outside-1_3353_1097)"/>
<rect x="27.5007" y="73.0385" width="14.8783" height="0.513044" rx="0.256522" transform="rotate(-30 27.5007 73.0385)" fill="#505254"/>
<circle cx="29.1588" cy="73.8584" r="0.513044" transform="rotate(-30 29.1588 73.8584)" fill="#272728"/>
<circle cx="30.185" cy="75.6357" r="0.513044" transform="rotate(-30 30.185 75.6357)" fill="#272728"/>
<circle cx="40.2665" cy="67.4455" r="0.513044" transform="rotate(-30 40.2665 67.4455)" fill="#272728"/>
<circle cx="41.2926" cy="69.2226" r="0.513044" transform="rotate(-30 41.2926 69.2226)" fill="#272728"/>
</svg>
