<svg width="128" height="110" viewBox="0 0 128 110" fill="none" xmlns="http://www.w3.org/2000/svg">
<path d="M38.0046 48.6837L38.0037 48.6842C37.8818 48.7732 37.7975 48.8843 37.7503 49.0109C37.7046 49.1336 37.6994 49.2545 37.7071 49.3561C37.7149 49.4562 37.7366 49.5518 37.7544 49.6254C37.7642 49.666 37.7714 49.699 37.778 49.7268L37.7768 49.7286C37.7349 49.7854 37.6794 49.8505 37.6086 49.9373C37.5442 50.0163 37.4679 50.1117 37.4108 50.206C37.382 50.2536 37.3521 50.3103 37.3314 50.3714C37.3144 50.4219 37.2992 50.4924 37.3063 50.5719C37.2993 50.8742 37.3489 51.2025 37.4024 51.502C37.4598 51.8233 37.5191 52.1086 37.5414 52.36C37.6364 53.4315 37.805 54.5729 37.8013 55.5894C37.5392 55.7329 37.3327 55.8684 37.1797 56.007C36.9926 56.1765 36.869 56.3638 36.8298 56.5845C36.7918 56.7981 36.8414 56.9994 36.9074 57.1779C36.9661 57.3368 37.0551 57.5195 37.1373 57.6992C37.1277 57.7156 37.1114 57.7399 37.0843 57.7715C36.998 57.8725 36.8554 57.9932 36.6806 58.123C36.5087 58.2506 36.3234 58.3742 36.1569 58.4874C36.0038 58.5914 35.84 58.7038 35.7508 58.7918C35.6827 58.8589 35.6312 58.9018 35.5769 58.9496C35.5258 58.9948 35.4614 59.053 35.4077 59.1331C35.3202 59.2636 35.2839 59.4204 35.2575 59.6268C33.3827 60.6849 30.6009 62.212 28.6533 63.3033C28.5866 63.2826 28.4978 63.2571 28.4033 63.2335C28.3028 63.2083 28.1872 63.1834 28.0788 63.1716C27.9871 63.1615 27.8382 63.152 27.7104 63.2072C27.2795 63.394 26.8156 63.6711 26.4427 63.8748L26.441 63.8758L23.0115 65.7657L23.0089 65.7671L7.78889 74.3233C7.64829 74.4006 7.45117 74.4793 7.22721 74.5652C7.01335 74.6473 6.77366 74.7364 6.57973 74.8285C5.72459 75.2332 5.19685 75.742 4.95218 76.3377C4.70783 76.9326 4.76844 77.5603 4.97518 78.1568C5.38196 79.33 6.40456 80.5108 7.14402 81.3723C8.91959 83.4401 10.4843 85.5411 11.8486 87.8802C12.1999 88.4826 12.7059 89.5532 13.3416 90.3256C13.6637 90.7169 14.0437 91.0653 14.4895 91.2494C14.9495 91.4391 15.4589 91.4452 15.9983 91.1869C16.597 90.8999 17.4366 90.4393 17.912 89.8395L17.9389 89.8059L17.9553 89.766C19.1435 86.8336 20.4219 83.9473 21.6774 81.0351C21.7751 81.2055 21.885 81.3894 22.0011 81.5586C22.1328 81.7507 22.2828 81.943 22.4465 82.0919C22.6056 82.2364 22.8111 82.3715 23.0516 82.3898L23.1636 82.3984L23.2541 82.3304C23.3765 82.2387 23.4956 82.0997 23.6061 81.9479C23.7199 81.7914 23.8388 81.6014 23.9595 81.392C24.201 80.973 24.4583 80.4582 24.702 79.936C25.1573 78.9606 25.5734 77.94 25.7682 77.4272L26.4561 77.021C26.5018 77.1016 26.5498 77.1921 26.6017 77.2752C26.6651 77.3768 26.7362 77.4826 26.808 77.57C26.8439 77.6136 26.8849 77.6582 26.9285 77.6966C26.9693 77.7326 27.0292 77.7789 27.1052 77.8055L27.1056 77.8041C27.2885 77.8681 27.5033 77.8297 27.6656 77.7819C27.8449 77.7289 28.0371 77.6418 28.2119 77.5387C28.3857 77.436 28.5575 77.3088 28.6866 77.1676C28.8048 77.0383 28.9402 76.8385 28.9174 76.6025L28.9182 76.602C28.9078 76.4971 28.8674 76.3867 28.829 76.2971C28.7881 76.2017 28.7356 76.1009 28.6834 76.0057C28.6445 75.935 28.6011 75.8636 28.5614 75.7965C28.8831 75.6314 29.1519 75.4927 29.3563 75.3646C29.6108 75.205 29.8397 75.0213 29.93 74.7549C30.0237 74.4783 29.9406 74.2001 29.8106 73.9307C29.7076 73.7174 29.5503 73.4659 29.3555 73.164C29.8954 72.8571 30.4214 72.5578 30.9566 72.1989L31.0715 72.1225L31.0868 71.9851C31.1761 71.2332 31.1217 70.83 31.012 70.162C31.1472 70.0608 31.2648 69.9689 31.3568 69.8784C31.4839 69.7531 31.5897 69.6097 31.6294 69.4267C31.6684 69.2462 31.6333 69.0713 31.5766 68.9057C31.5428 68.8068 31.4956 68.6976 31.4406 68.5783C32.4775 67.9515 33.5477 67.3342 34.5962 66.7158L34.6947 66.6579L34.7297 66.5486C34.8877 66.0536 35.036 65.5635 35.2223 65.1049C35.9682 64.6227 36.708 64.1813 37.5068 63.804C37.8627 63.636 38.0499 63.6569 38.1594 63.7058C38.286 63.7625 38.402 63.8945 38.5398 64.1323C38.6071 64.2484 38.6699 64.3721 38.7437 64.5107C38.8154 64.6456 38.8951 64.7909 38.9867 64.9297C39.1701 65.2078 39.4169 65.4846 39.7883 65.6385L39.8628 65.6699L39.9423 65.659C40.0355 65.6467 40.1122 65.6351 40.1852 65.6326C40.2616 65.6301 40.2808 65.6396 40.2738 65.6356C40.4523 65.7353 40.6536 65.6998 40.7808 65.6643C40.9243 65.6241 41.0776 65.5541 41.2176 65.4832C41.3589 65.4116 41.5056 65.3293 41.632 65.2597C41.7641 65.1869 41.8722 65.1295 41.9542 65.0951C42.2415 64.9747 42.5447 64.8949 42.8532 64.8591L42.8535 64.8578C43.5384 64.7818 44.1112 64.9533 44.6337 65.3884C45.2188 65.8764 45.3898 66.4991 45.3854 67.2119C45.3832 67.5724 45.3355 67.9494 45.2757 68.3363C45.2172 68.7152 45.1449 69.1174 45.101 69.4927L45.1002 69.4932C44.8855 71.3706 44.7208 73.2537 44.6052 75.1397L44.6043 75.1402C44.5811 75.5355 44.5059 76.3949 44.5118 77.2065C44.5147 77.6126 44.5376 78.0219 44.602 78.3666C44.6342 78.5392 44.6783 78.7053 44.7399 78.8497C44.8006 78.9918 44.887 79.1328 45.0133 79.2354L45.0602 79.2737L45.1186 79.2907C45.2824 79.338 45.5021 79.341 45.728 79.3268C45.9643 79.3119 46.2463 79.2758 46.5545 79.2251C47.172 79.1236 47.9182 78.9598 48.6644 78.776C50.1511 78.4098 51.6771 77.9529 52.2289 77.7273C52.5967 77.5768 52.8861 77.3957 53.0763 77.1794C53.2733 76.9553 53.3668 76.6881 53.316 76.405C53.2674 76.1358 53.0967 75.9005 52.8736 75.7053C52.685 75.5404 52.4422 75.3902 52.1584 75.2556C52.0777 73.7958 51.9835 72.3102 51.9371 70.8604C52.2277 70.6887 52.4576 70.5193 52.6156 70.3424C52.8061 70.129 52.9182 69.8776 52.8695 69.6004C52.8235 69.3404 52.6466 69.1304 52.4412 68.9602C52.2658 68.8151 52.0412 68.6761 51.7833 68.5395C51.7617 68.0318 51.7355 67.5546 51.6936 67.0442C52.577 66.5432 53.9758 65.6246 55.3271 64.7907C56.0542 64.342 56.7734 63.915 57.4066 63.58C58.0478 63.2408 58.575 63.011 58.9273 62.9366C59.1948 62.8797 59.3925 62.8047 59.5969 62.692L59.7603 62.936L59.7607 62.9368C61.8835 66.0662 64.2991 68.5821 67.1063 71.0796C67.3064 71.2577 67.6046 71.5457 67.8933 71.7923C68.15 72.0116 68.4388 72.2344 68.7244 72.3804L68.8469 72.4382C68.9044 72.4629 68.9574 72.4655 68.9803 72.4661C69.0084 72.4667 69.0349 72.4647 69.0549 72.4625C69.0949 72.4579 69.139 72.4491 69.1778 72.4411C69.2693 72.4221 69.3426 72.404 69.4439 72.3844C69.538 72.3662 69.6236 72.354 69.6927 72.3524C69.7605 72.351 69.7795 72.3604 69.773 72.3568L69.8122 72.3816L69.8622 72.3921C69.8717 72.3941 69.8825 72.3959 69.8955 72.3989C69.9076 72.4017 69.923 72.4057 69.9385 72.409L70.0989 72.4427L70.2139 72.3255C70.5675 71.9678 71.8827 70.5186 73.1371 69.0975C73.7658 68.3852 74.3824 67.6763 74.8589 67.1111C75.0969 66.8287 75.3013 66.5803 75.4554 66.3844C75.6003 66.2003 75.7237 66.0347 75.7739 65.9322L75.8105 65.8569L75.8028 65.7734C75.7836 65.5656 75.6704 65.3586 75.5514 65.1855C75.4263 65.0037 75.2643 64.8162 75.0978 64.6401C74.7675 64.2908 74.3808 63.9465 74.1815 63.7562C71.2855 60.9907 69.456 59.1228 67.3272 55.8744C67.3338 55.8692 67.3413 55.8644 67.3477 55.8592C67.4211 55.7999 67.5011 55.7307 67.5681 55.6451C67.7195 55.4516 67.7687 55.2253 67.7396 54.9304L67.7321 54.8569L67.6916 54.7946C67.5454 54.5729 67.3824 54.4409 67.1854 54.3573C67.0531 54.3012 66.8981 54.2666 66.755 54.2348C66.203 53.3769 65.5564 52.3674 65.1621 51.5111C65.0926 51.36 65.0756 51.239 65.0823 51.1365C65.0893 51.0315 65.1226 50.9265 65.1808 50.809C65.2413 50.6872 65.3193 50.5679 65.4118 50.422C65.5001 50.2826 65.5988 50.1225 65.6758 49.9437L65.6761 49.9423C65.6985 49.8897 65.7048 49.8385 65.7049 49.7949C65.7496 49.8086 65.7945 49.8212 65.8395 49.8288C66.0453 49.8635 66.2311 49.8301 66.3986 49.762C66.5598 49.6964 66.7071 49.5978 66.8388 49.5011C66.9841 49.3944 67.0935 49.305 67.2417 49.2008C67.3017 49.1586 67.3566 49.1206 67.4076 49.0859C67.4578 49.0517 67.5069 49.0182 67.5513 48.9871C67.64 48.925 67.7265 48.8612 67.8046 48.7833C67.8782 48.71 67.9371 48.629 67.9915 48.5367C68.0179 48.5549 68.0442 48.5745 68.073 48.59C68.2646 48.6926 68.4761 48.7115 68.7154 48.6714C69.172 48.5946 69.6231 48.4858 70.0585 48.3864C70.3883 48.3112 70.7123 48.2405 71.0367 48.1881L71.3621 48.1424C71.471 48.1294 71.5495 48.0729 71.5964 48.0285C71.6442 47.9831 71.681 47.9303 71.7076 47.8854C71.7611 47.7953 71.8038 47.6877 71.837 47.5919C71.8593 47.5278 71.8788 47.4578 71.8977 47.3922C72.0227 47.4178 72.1381 47.4383 72.2423 47.4481C72.4224 47.465 72.6056 47.4566 72.7769 47.374C72.9508 47.2901 73.0717 47.1495 73.1683 46.9856C73.2298 46.8813 73.2852 46.7569 73.3426 46.6155C73.6339 46.6689 73.869 46.6734 74.0584 46.6093C74.3244 46.5193 74.4393 46.3229 74.5033 46.1631C74.5295 46.0973 74.5584 46.0068 74.5743 45.9619C74.5947 45.9045 74.6132 45.863 74.6342 45.8292C74.6609 45.7864 74.7025 45.7385 74.8077 45.702C75.1302 45.7939 75.4032 45.8062 75.624 45.6863C75.8619 45.5569 75.9525 45.3146 76.0036 45.1875C76.0679 45.0273 76.101 44.9532 76.1615 44.9023C76.2063 44.8648 76.3141 44.8041 76.6102 44.8338C76.803 44.8531 76.9739 44.8036 77.1139 44.7043C77.2465 44.6101 77.3374 44.4815 77.4009 44.3616C77.4643 44.2417 77.5135 44.1029 77.5524 43.9775C77.5755 43.9838 77.5986 43.9919 77.6214 43.9974C77.7457 44.0276 77.8888 44.0534 78.033 44.0462C78.1821 44.0388 78.3414 43.9962 78.4818 43.8841C78.5857 43.801 78.6645 43.6912 78.7232 43.562L78.7759 43.4267C78.811 43.318 78.8447 43.2624 78.8664 43.2358C78.8831 43.2154 78.892 43.2125 78.8942 43.2118C78.9015 43.2096 78.9214 43.2058 78.9655 43.2102C79.0158 43.2152 79.0613 43.2257 79.1427 43.2398C79.2793 43.2634 79.519 43.3002 79.7472 43.158C79.9697 43.0191 80.1097 42.7574 80.2063 42.3945L80.2062 42.3924C80.2108 42.3883 80.2152 42.3847 80.2191 42.3815C80.2211 42.3799 80.2232 42.3783 80.2245 42.3773C80.2255 42.3773 80.227 42.3777 80.228 42.3775C80.2393 42.3751 80.2525 42.3723 80.2695 42.3693C80.5025 42.441 80.7127 42.4683 80.897 42.4073C81.1223 42.3325 81.2305 42.1588 81.2923 42.0314C81.4131 41.7821 81.4267 41.669 81.5484 41.596C81.8369 41.636 82.0696 41.6321 82.2542 41.5606C82.4885 41.4698 82.5958 41.2969 82.6528 41.1456C82.6776 41.0795 82.6963 41.0071 82.7091 40.9619C82.7239 40.9099 82.7351 40.8763 82.7479 40.8494C82.7572 40.8298 82.7671 40.8122 82.7863 40.7967C83.0329 40.8726 83.2475 40.9014 83.4327 40.852C83.6761 40.7868 83.7978 40.6142 83.8671 40.4715C83.8992 40.4054 83.9259 40.3335 83.9458 40.2817C83.968 40.2242 83.9864 40.1807 84.0066 40.1429C84.0288 40.1015 84.0508 40.0718 84.0802 40.0497C84.2645 40.0869 84.4905 40.1162 84.6993 40.0633C84.8346 40.0289 84.9682 39.9592 85.0764 39.8376C85.1566 39.7475 85.2141 39.6392 85.251 39.5169L85.2814 39.39C85.3003 39.2873 85.3229 39.2444 85.3322 39.2299C85.3363 39.2294 85.3427 39.2284 85.3505 39.2283C85.4062 39.228 85.4614 39.2401 85.5832 39.2564C85.6875 39.2703 85.8287 39.2843 85.9791 39.2567L85.98 39.2562C86.2782 39.2005 86.4377 38.9522 86.5224 38.7874C86.569 38.6967 86.6074 38.6018 86.6391 38.5227C86.652 38.4904 86.6647 38.4615 86.6754 38.4352C86.7299 38.4246 86.782 38.4251 86.8366 38.4312C86.8877 38.437 86.9286 38.445 86.9938 38.4555C87.0504 38.4646 87.1283 38.4758 87.2096 38.4718C87.2963 38.4675 87.3915 38.4458 87.4852 38.3905C87.5772 38.3362 87.6507 38.2591 87.7112 38.1687C87.7911 38.049 87.8589 37.8888 87.9213 37.6832C88.028 37.7071 88.1286 37.7243 88.2229 37.7289C88.407 37.7379 88.5855 37.7064 88.7425 37.6015C88.8951 37.4993 88.9942 37.3497 89.0666 37.1922C89.1041 37.1106 89.1371 37.0195 89.1685 36.9214C89.2728 36.9441 89.3728 36.9613 89.4674 36.9665C89.6502 36.9764 89.8352 36.9496 89.9985 36.8493C90.2338 36.7044 90.3525 36.4518 90.4179 36.1538C90.4754 36.1681 90.5332 36.1809 90.591 36.188C90.7748 36.2106 90.9507 36.1902 91.1644 36.1265L91.2173 36.1106L91.2607 36.0765C91.4459 35.9345 91.5326 35.773 91.5766 35.6236C91.5964 35.5563 91.6076 35.4917 91.6148 35.4515C91.617 35.4392 91.62 35.4288 91.6217 35.4205C91.6972 35.4114 91.8487 35.416 92.1367 35.4648L92.137 35.4635C92.3658 35.5019 92.5223 35.3557 92.5945 35.2715C92.6734 35.1794 92.7419 35.059 92.7945 34.9655C92.8537 34.8603 92.9014 34.7724 92.9527 34.7005C92.9653 34.6828 92.9789 34.6693 92.9895 34.6567C93.2636 34.7194 93.5301 34.743 93.7582 34.6132C93.895 34.5352 93.9907 34.419 94.0627 34.293C94.1204 34.1922 94.1671 34.0734 94.2133 33.9445C94.2201 33.9466 94.2284 33.9487 94.2365 33.9514C94.3227 33.9807 94.4978 34.0505 94.7094 34.0088L94.8028 33.983C95.0708 33.8899 95.2713 33.7574 95.3833 33.5588C95.4927 33.3647 95.4845 33.1629 95.472 33.025C95.4441 32.717 95.4087 32.5986 95.5617 32.442L95.5626 32.4416C95.648 32.3533 95.6635 32.2429 95.6683 32.1989C95.6746 32.1409 95.6723 32.0803 95.6677 32.0279C95.6583 31.9214 95.6344 31.7977 95.6088 31.6819L95.6092 31.6805C95.6364 31.6876 95.6634 31.6976 95.6911 31.7032C95.9524 31.7557 96.2577 31.7401 96.5331 31.5328C96.7863 31.3416 96.9176 31.1056 96.9362 30.8422C96.9532 30.5995 96.8711 30.3693 96.7883 30.1856C96.7457 30.0914 96.6977 29.9983 96.6543 29.9145C96.6096 29.8282 96.5696 29.7517 96.536 29.6784C96.4981 29.5957 96.4768 29.5328 96.4654 29.4857C96.5468 29.4244 96.6721 29.3348 96.8428 29.2273C97.0889 29.0721 97.3961 28.8913 97.7121 28.7096C98.1927 28.4332 98.684 28.1614 99.0148 27.9777C99.0843 28.102 99.157 28.2301 99.2317 28.3475C99.3609 28.5505 99.5178 28.7593 99.7132 28.904C99.92 29.057 100.176 29.141 100.472 29.0746C100.751 29.012 101.025 28.8254 101.304 28.5347C101.391 28.4436 101.402 28.3365 101.4 28.2751C101.425 28.279 101.453 28.2839 101.483 28.2881C101.608 28.3053 101.768 28.3209 101.921 28.296C102.081 28.2697 102.269 28.1909 102.379 27.9906C102.481 27.8061 102.481 27.5799 102.431 27.3426C102.365 27.0259 102.271 26.7739 102.13 26.5919C102.023 26.4542 101.895 26.3653 101.754 26.3161C102.667 25.7641 103.629 25.2309 104.602 24.7036C105.956 23.9697 107.333 23.2418 108.607 22.4847C108.661 22.5153 108.764 22.5713 108.873 22.5952C109.21 22.669 109.579 22.5045 110.084 22.0132C110.275 21.9991 110.418 21.9818 110.526 21.9522C110.671 21.912 110.786 21.8433 110.863 21.718C110.889 21.6748 110.909 21.6262 110.915 21.6111C110.924 21.5898 110.93 21.5779 110.938 21.5665C110.95 21.5474 110.985 21.5012 111.096 21.4301L111.095 21.4292C111.81 20.983 112.644 20.4365 113.342 20.0624L113.341 20.0637C113.644 19.9048 113.94 19.7885 114.224 19.6646C114.492 19.5477 114.771 19.4159 114.97 19.2305C115.191 19.024 115.313 18.7515 115.265 18.4008C115.221 18.0813 115.038 17.7174 114.733 17.2859L114.725 17.2746L114.658 17.1636C114.629 17.1111 114.595 17.0424 114.552 16.9564C114.474 16.8014 114.377 16.6086 114.267 16.4362C114.161 16.2703 114.018 16.0848 113.835 15.9744C113.737 15.9162 113.62 15.8748 113.488 15.8744C113.355 15.8741 113.229 15.9158 113.116 15.9891C112.141 16.6184 111.111 17.22 110.094 17.7937C109.99 17.8523 109.886 17.9165 109.79 17.9747C109.692 18.0341 109.6 18.0891 109.508 18.1372C109.324 18.2343 109.163 18.2921 109.009 18.2994L108.912 18.3091C108.817 18.3232 108.73 18.3514 108.651 18.3974C108.548 18.4577 108.48 18.5358 108.431 18.6C108.348 18.7103 108.318 18.7683 108.26 18.8243C107.964 18.8536 107.734 18.9136 107.558 19.0081C107.353 19.1189 107.232 19.2692 107.167 19.4324C107.11 19.5764 107.102 19.7275 107.096 19.7884C105.948 20.4954 104.762 21.1527 103.567 21.8068C102.351 22.4715 101.124 23.1351 99.9278 23.8422C99.7901 23.9236 99.564 24.0031 99.3704 24.0467C99.3226 23.9735 99.2624 23.8763 99.1931 23.7612C99.0503 23.5236 98.8728 23.217 98.693 22.9008L97.8402 21.3826C97.2461 20.3505 96.6368 19.326 96.0138 18.3111L95.9605 18.2246L95.8651 18.1883C95.4155 18.0159 95.0352 17.8805 94.666 17.9063C94.2731 17.934 93.9436 18.136 93.5656 18.4808C93.4843 18.5549 93.4213 18.6541 93.3713 18.7497C93.3191 18.8497 93.2705 18.9682 93.2237 19.0976C93.1302 19.3566 93.0383 19.6828 92.95 20.0473C92.7729 20.7778 92.6015 21.6894 92.4469 22.5783C92.2928 23.4649 92.1528 24.3465 92.0419 24.9998C92.0061 25.2103 91.9698 25.3967 91.9404 25.5545L91.9386 25.5533C91.7884 25.4359 91.6069 25.3562 91.4057 25.3705C91.2029 25.3851 91.0344 25.4907 90.9043 25.6329C90.7854 25.7631 90.6878 25.9353 90.6054 26.1348C90.5839 26.1325 90.5601 26.1279 90.534 26.1264L90.4656 26.1173C90.4367 26.1125 90.3903 26.1039 90.3455 26.0987C90.2527 26.0882 90.1156 26.0848 89.9739 26.1543C89.8485 26.2159 89.7406 26.2937 89.6584 26.4086C89.5797 26.5187 89.5415 26.6393 89.5145 26.7511C89.5112 26.7645 89.4943 26.826 89.4755 26.8965C89.4707 26.8947 89.4647 26.8941 89.4595 26.8922C89.4043 26.8712 89.3085 26.8319 89.2161 26.8106C89.1192 26.7883 88.9813 26.7743 88.8392 26.8354L88.7478 26.8802C88.6619 26.9288 88.5906 26.9881 88.5323 27.0577C88.4566 27.148 88.4128 27.2439 88.3827 27.3222C88.3511 27.4045 88.3327 27.4624 88.3153 27.51C88.0627 27.4783 87.8624 27.4761 87.7034 27.5069C87.5984 27.5273 87.5005 27.5646 87.4165 27.6252C87.3309 27.6871 87.2745 27.7627 87.2359 27.8377C87.1998 27.9079 87.1791 27.9789 87.1652 28.0296C87.149 28.0886 87.1403 28.1227 87.1267 28.1623C87.1191 28.1848 87.1087 28.2039 87.0984 28.2227C86.9146 28.1799 86.7597 28.1576 86.6305 28.1602C86.4412 28.1641 86.2792 28.2248 86.1605 28.3695C86.1108 28.4301 86.0774 28.4954 86.0531 28.5488C86.0301 28.5994 86.006 28.6612 85.9869 28.7076C85.9626 28.7671 85.9335 28.8274 85.8982 28.8919C85.883 28.8889 85.8665 28.8872 85.8505 28.8834L85.5236 28.7958L85.4537 28.8114C85.2519 28.8543 85.0896 28.92 84.9649 29.0214C84.8343 29.1277 84.7704 29.2518 84.7313 29.357C84.6885 29.4722 84.6728 29.5387 84.652 29.5889C84.5537 29.5571 84.4605 29.5295 84.3376 29.4975L84.2554 29.4762L84.1743 29.5016C83.8933 29.5875 83.7189 29.7199 83.5848 29.9006C83.5245 29.9818 83.4744 30.0697 83.4304 30.1487C83.4015 30.2005 83.3724 30.2502 83.342 30.3023C83.2872 30.3112 83.2351 30.309 83.1796 30.3003C83.129 30.2922 83.0898 30.2828 83.0255 30.2697C82.9704 30.2585 82.8946 30.2442 82.814 30.2452C82.7277 30.2464 82.6314 30.2646 82.5366 30.3174C82.444 30.3691 82.3705 30.4445 82.3097 30.5319C82.2298 30.6469 82.1615 30.8016 82.0971 30.9996C81.991 30.9745 81.891 30.957 81.7983 30.9489C81.6211 30.9334 81.4428 30.9515 81.2808 31.0447C81.1207 31.137 81.0152 31.2808 80.9364 31.4364C80.8957 31.5167 80.8593 31.6074 80.824 31.7065C80.7223 31.6788 80.6241 31.6584 80.5317 31.6475C80.3509 31.6262 80.1669 31.6395 79.9973 31.7259C79.8264 31.8132 79.7068 31.9561 79.6191 32.1236C79.5769 32.2044 79.5405 32.2947 79.5076 32.3932C79.4531 32.3757 79.3982 32.3607 79.3431 32.3506C79.1664 32.3183 78.998 32.3328 78.7908 32.3842L78.7318 32.3991L78.6836 32.4348C78.504 32.5689 78.4203 32.7317 78.3648 32.8749C78.3233 32.9818 78.3017 33.0492 78.2753 33.1182C78.2669 33.1173 78.2514 33.1154 78.2148 33.1013C78.1127 33.0621 77.929 32.9756 77.6417 33.0307C77.3431 33.0882 77.1887 33.2901 77.0932 33.4692C77.0483 33.5533 77.0078 33.6482 76.9741 33.724C76.9583 33.7598 76.9418 33.7934 76.926 33.8262C76.8354 33.8335 76.7587 33.8266 76.6899 33.8137C76.6309 33.8026 76.5934 33.7911 76.5275 33.7766C76.4735 33.7647 76.3952 33.75 76.3122 33.7532C76.2195 33.7569 76.1215 33.7832 76.0305 33.8493C75.9455 33.9111 75.8842 33.9943 75.837 34.0806C75.7782 34.1879 75.7267 34.3307 75.6735 34.5121C75.5933 34.4843 75.5168 34.462 75.4451 34.4467C75.2794 34.4114 75.1077 34.4073 74.9422 34.4799C74.7808 34.5509 74.6678 34.6766 74.5782 34.8085C74.4984 34.926 74.4217 35.0735 74.3402 35.238C74.3318 35.2363 74.3213 35.2354 74.3101 35.2328C74.2811 35.2257 74.2503 35.2166 74.2122 35.2058C74.1763 35.1957 74.1324 35.1835 74.0886 35.1734C74.0078 35.1549 73.8825 35.1326 73.7533 35.1629C73.5789 35.204 73.4415 35.2739 73.3314 35.3716C73.2248 35.4662 73.1602 35.5735 73.1144 35.6559C73.0393 35.7909 73.0008 35.8704 72.9187 35.938C72.7772 35.9252 72.6457 35.9119 72.5423 35.9072C72.4098 35.9012 72.2637 35.9045 72.1242 35.9603C71.974 36.0205 71.8675 36.1267 71.7812 36.253C71.6997 36.3725 71.6245 36.5278 71.5432 36.7118C71.5292 36.7434 71.5173 36.7616 71.51 36.7716C71.4935 36.7703 71.4653 36.7669 71.4162 36.7536C71.3698 36.741 71.2827 36.714 71.2059 36.6979C71.0308 36.6616 70.7888 36.6517 70.5593 36.8378C70.401 36.9665 70.2771 37.169 70.1729 37.4477C70.0574 37.4278 69.9471 37.4128 69.8449 37.407C69.6668 37.3971 69.4852 37.4128 69.3167 37.4921C69.0429 37.6213 68.8852 37.8781 68.7731 38.2108C68.6685 38.1873 68.5684 38.1692 68.4743 38.16C68.2955 38.1426 68.1115 38.1534 67.9409 38.2323C67.6737 38.3561 67.5202 38.6069 67.4132 38.9237C67.2744 38.8864 67.1495 38.8634 67.0366 38.8593C66.8314 38.852 66.6575 38.9052 66.5125 39.0277C66.3859 39.1347 66.3007 39.2813 66.2338 39.4005C66.1806 39.4954 66.1275 39.5898 66.0641 39.6925C66.0321 39.6848 65.9976 39.6765 65.9624 39.6667C65.9281 39.6571 65.8743 39.6413 65.8339 39.6337C65.6024 39.5905 65.3915 39.6185 65.216 39.7333C65.0491 39.8427 64.9551 40.005 64.8955 40.145C64.8368 40.2832 64.7966 40.4392 64.7644 40.5545C64.728 40.6844 64.7 40.7682 64.668 40.8233C64.6133 40.9177 64.5661 40.9807 64.5243 41.0314C64.4926 41.0699 64.425 41.1447 64.3828 41.2022C64.2866 41.3334 64.2322 41.4772 64.1977 41.6981C64.1393 41.6876 64.0767 41.6818 64.0113 41.6896L64.0017 41.6906L63.7279 41.7438C63.072 41.8946 62.3183 42.2354 61.8404 42.6757C61.7882 42.7238 61.7632 42.7797 61.749 42.8221C61.4738 42.372 61.2156 41.8936 60.9755 41.4667C60.613 40.8221 60.2477 40.3696 59.8574 40.0847C59.4581 39.7935 59.0442 39.6861 58.6143 39.7109C58.1964 39.7351 57.7751 39.884 57.3516 40.0746C56.9323 40.2633 56.4664 40.515 55.9866 40.7533C54.8137 41.3366 53.6343 41.9086 52.4498 42.4693C48.2947 44.4394 43.518 46.5396 39.467 48.6659C39.0598 48.4085 38.5079 48.317 38.0046 48.6837ZM69.8174 72.0606L69.8179 72.0614L69.8174 72.0606ZM17.6773 89.6536C17.627 89.7171 17.5704 89.7781 17.5112 89.8386C17.5705 89.778 17.6264 89.7164 17.6768 89.6528C17.8349 89.2626 17.9947 88.8731 18.1558 88.4843L17.6773 89.6536ZM51.3808 66.8774C51.4092 67.1958 51.4301 67.4989 51.4476 67.8018C51.4651 68.1045 51.4796 68.4072 51.4926 68.7253L51.4917 68.7258C51.4658 68.0889 51.4363 67.5139 51.3795 66.8771L51.3808 66.8774ZM68.0225 57.4204C68.1966 57.6634 68.3687 57.8999 68.5424 58.1295L68.1421 57.5905C68.1016 57.5347 68.0631 57.477 68.0225 57.4204ZM58.3535 62.8021C58.5438 62.7283 58.7156 62.6739 58.8645 62.6424C59.0219 62.609 59.1496 62.5685 59.2713 62.5169C59.2141 62.5412 59.1563 62.5651 59.0938 62.5844L58.865 62.6432C58.6416 62.6905 58.3667 62.7892 58.0547 62.9272L58.3535 62.8021ZM12.1146 87.7413C12.294 88.0502 12.4982 88.4455 12.7296 88.8555C12.6157 88.6536 12.5079 88.4556 12.407 88.2693C12.303 88.0773 12.2057 87.8981 12.1146 87.7413ZM67.6369 56.8717C67.566 56.7691 67.4944 56.6654 67.4231 56.5599C67.4944 56.6654 67.566 56.7691 67.6369 56.8717ZM53.0923 60.9434C53.7643 60.5454 55.0733 59.7268 55.73 59.4319C56.3024 59.4347 56.9416 59.4916 57.3619 59.9342C57.9986 60.6036 57.6614 61.5726 57.749 62.4114C56.7315 62.9439 55.7567 63.537 54.7617 64.1045C54.3982 64.3121 53.7178 64.7613 53.3711 64.9243C52.5292 64.2608 51.5959 64.951 51.2131 63.3038C51.2403 62.6137 51.3894 62.2614 51.779 61.7389L51.8605 61.6321C52.2608 62.6508 53.3035 64.0046 54.4882 64.0662L54.5659 63.9841C54.3693 63.0984 52.9861 63.3257 53.0923 60.9434ZM22.4019 81.5967C22.5124 81.7364 22.6273 81.8589 22.7449 81.9467C22.7123 81.9231 22.679 81.898 22.6471 81.869C22.5775 81.8056 22.5088 81.7315 22.4419 81.6503C22.4278 81.6332 22.4158 81.6143 22.4019 81.5967ZM67.1587 55.6255C67.0905 55.6807 67.0123 55.7392 66.9256 55.8097C66.9505 55.8482 66.976 55.8861 67.0008 55.9242C66.9759 55.8861 66.9497 55.8487 66.9248 55.8102C67.0114 55.7397 67.0897 55.6813 67.1579 55.626L67.1587 55.6255ZM22.2481 81.3889C22.2585 81.404 22.27 81.4184 22.2806 81.4333C22.2064 81.3277 22.1336 81.2177 22.0663 81.1071L22.2481 81.3889ZM14.4956 80.2131C15.4973 79.6533 16.5065 79.0466 17.5187 78.5117C17.7744 78.5047 17.6717 78.4625 17.8483 78.6157C17.8481 78.9235 17.5639 79.0678 17.3102 79.2151L16.8916 79.4568C15.9149 80.0186 14.9308 80.5696 13.9524 81.1277C13.708 81.1304 13.8045 81.1726 13.6387 81.0394C13.6317 80.6629 14.1812 80.3892 14.4956 80.2131ZM75.6296 45.276L75.6287 45.2765L75.6296 45.276ZM40.5932 65.396C40.6266 65.3918 40.6623 65.3856 40.6996 65.3751L40.6172 65.3945C40.6092 65.3959 40.601 65.395 40.5932 65.396ZM40.5247 65.3983C40.5087 65.3977 40.4935 65.3983 40.479 65.3954C40.4934 65.3982 40.5087 65.3977 40.5247 65.3983ZM78.4903 43.3345C78.4782 43.3721 78.4642 43.4064 78.4497 43.438C78.4639 43.4065 78.4774 43.3723 78.4895 43.335L78.4903 43.3345ZM39.9025 65.3617C40.0692 65.3397 40.2885 65.3017 40.4196 65.3744C40.4355 65.3834 40.4532 65.3892 40.4723 65.3936C40.4535 65.3892 40.4358 65.384 40.4201 65.3753C40.3546 65.3389 40.2667 65.3301 40.1747 65.3331L39.9025 65.3617ZM73.1569 46.2706L73.0297 46.5932L73.0292 46.5924C73.0695 46.4991 73.1108 46.3921 73.1556 46.2702L73.1569 46.2706ZM81.0934 41.7358C81.072 41.7863 81.0515 41.8355 81.03 41.8818C81.0756 41.7834 81.1139 41.6701 81.1764 41.565L81.0934 41.7358ZM85.8483 38.9714C85.8737 38.9695 85.8992 38.9658 85.9247 38.9611L85.9251 38.962C85.8996 38.9667 85.8739 38.9698 85.8483 38.9714ZM91.1615 35.764C91.1579 35.7678 91.1532 35.7705 91.1494 35.7743C91.1601 35.7635 91.1697 35.7524 91.1789 35.7415C91.173 35.7486 91.1681 35.7569 91.1615 35.764ZM91.2275 35.6751C91.2203 35.6869 91.2122 35.6984 91.2038 35.7102C91.2123 35.6985 91.2203 35.6869 91.2275 35.6751ZM90.0993 36.1957C90.0854 36.2437 90.0685 36.2871 90.0512 36.3272C90.0684 36.2871 90.0854 36.2437 90.0993 36.1957ZM93.992 33.6686C94.1432 33.5788 94.2726 33.6514 94.4175 33.6946C94.2725 33.6516 94.1437 33.5799 93.9925 33.6694L93.9621 33.7614L93.9617 33.7605L93.992 33.6686ZM68.9984 48.314C69.0239 48.3089 69.049 48.3024 69.0744 48.2972C69.0491 48.3023 69.0243 48.3098 68.9989 48.3148L68.6653 48.3755L68.9984 48.314ZM31.2928 69.0019C31.3174 69.0737 31.3338 69.138 31.3413 69.1972L31.3404 69.1977C31.3305 69.1188 31.3038 69.0312 31.2639 68.9284C31.2738 68.9541 31.2846 68.9781 31.2928 69.0019ZM95.1713 31.1779C95.199 31.2856 95.2672 31.527 95.316 31.7528C95.2668 31.5265 95.1975 31.2847 95.1699 31.1775L95.1713 31.1779ZM96.42 31.2372C96.3993 31.2559 96.3771 31.2746 96.3529 31.2929L96.3521 31.2934C96.3764 31.275 96.3991 31.2562 96.42 31.2372ZM31.0538 68.4611C31.126 68.6107 31.1839 68.7389 31.2307 68.8495C31.1838 68.7387 31.1249 68.6107 31.0525 68.4607L31.0538 68.4611ZM101.088 28.3267C101.007 28.4115 100.928 28.4832 100.854 28.5433L100.967 28.4437C101.006 28.4077 101.046 28.3686 101.087 28.3263L101.088 28.3267ZM100.344 28.79C100.33 28.7919 100.317 28.7939 100.303 28.7947C100.317 28.7939 100.33 28.7918 100.344 28.79ZM100.284 28.7954C100.262 28.796 100.24 28.7955 100.219 28.7936C100.24 28.7955 100.262 28.796 100.284 28.7954ZM100.207 28.7926C100.204 28.7922 100.2 28.7932 100.197 28.7927C100.175 28.7899 100.153 28.7863 100.131 28.7809L100.131 28.7801C100.156 28.7863 100.181 28.7898 100.207 28.7926ZM110.256 21.6975L109.952 21.7241C109.885 21.7922 109.821 21.8525 109.761 21.9066C109.821 21.8524 109.884 21.7915 109.951 21.7232C110.075 21.7158 110.175 21.7075 110.256 21.6975ZM37.3781 63.5322C37.4227 63.5111 37.4663 63.493 37.5081 63.4762L37.3785 63.533C37.2732 63.5828 37.1682 63.633 37.0648 63.6849C37.1682 63.633 37.2726 63.582 37.3781 63.5322ZM111.18 19.2515C111.301 18.9676 113.226 17.9376 113.585 17.7871C113.527 18.0464 113.483 18.053 113.195 18.2314C112.592 18.6048 111.843 19.0018 111.18 19.2515ZM99.1928 24.3173C99.2121 24.3435 99.2275 24.3628 99.2391 24.374C99.4898 24.3461 99.8598 24.2295 100.08 24.0995L100.079 24.1009C99.8592 24.2309 99.4889 24.3468 99.2383 24.3745C99.2267 24.3633 99.2118 24.3436 99.1928 24.3173ZM94.7505 26.9666C95.0756 26.6892 97.1597 25.498 97.5534 25.3371L97.5931 25.4664C97.3242 25.7082 95.1986 26.9013 94.7434 27.1399L94.7505 26.9666ZM108.159 19.1361C108.227 19.1262 108.302 19.1189 108.382 19.1131L108.159 19.137C108.091 19.147 108.03 19.1586 107.973 19.1722L108.159 19.1361ZM62.3676 44.1688L62.3677 44.171C62.288 44.0877 62.2098 43.9978 62.1328 43.9029L62.1324 43.902C62.2094 43.9965 62.2881 44.0857 62.3676 44.1688ZM94.8748 21.5296C95.3262 22.3496 95.4716 23.0425 96.5231 22.5682L96.631 22.5206L96.6986 22.4894L97.4414 23.7329C96.6507 24.2004 95.8569 24.6631 95.0601 25.1201L93.3683 26.0901C93.4024 25.5342 93.8445 22.071 94.1556 21.8816L94.8748 21.5296ZM28.0539 63.4701C28.0864 63.4739 28.1204 63.4788 28.155 63.4851C28.1204 63.4788 28.0864 63.4739 28.0539 63.4701ZM27.8297 63.4823C27.8543 63.4717 27.8859 63.4653 27.9227 63.4636C27.9617 63.4617 28.0062 63.4645 28.0539 63.4701C27.961 63.4594 27.8796 63.4608 27.8289 63.4828L27.8297 63.4823ZM23.1563 66.0282L26.5859 64.1384L23.1554 66.0287L7.93288 74.5863L7.93372 74.5858L23.1563 66.0282ZM89.4249 27.0881C89.4251 27.0873 89.4247 27.0858 89.4251 27.0846L89.4267 27.0814C89.4259 27.084 89.4253 27.0863 89.4249 27.0881ZM64.7558 41.2214C64.7295 41.2534 64.7058 41.2819 64.6832 41.3084C64.7273 41.2566 64.7777 41.1992 64.8361 41.1164L64.7558 41.2214ZM74.5181 35.5051C74.5136 35.5085 74.5084 35.5105 74.5037 35.5134C74.5105 35.5091 74.5175 35.5049 74.5239 35.4995L74.5181 35.5051ZM78.7927 32.7372C78.7963 32.7335 78.7993 32.7292 78.803 32.7256L78.863 32.6752C78.8367 32.6948 78.8135 32.7158 78.7927 32.7372ZM57.419 41.6933C59.0717 41.2608 59.655 42.7189 58.9392 44.1116C54.2087 46.8925 49.0572 49.6815 44.4233 52.5747C42.7903 53.4764 42.7745 50.9346 43.273 49.9574C46.5267 48.0213 49.8323 46.2045 53.0808 44.2633C54.434 43.4548 55.8157 42.6943 57.1525 41.8607L57.419 41.6933ZM65.1069 40.4447C65.0878 40.5079 65.0699 40.5722 65.0523 40.6353C65.0875 40.5095 65.1215 40.378 65.1708 40.2624L65.1069 40.4447ZM95.9892 20.8095C96.2452 21.2692 96.4473 21.647 96.6696 22.1227L95.9349 22.4049C95.6963 22.2516 95.3629 21.5665 95.2048 21.277L95.9892 20.8095ZM95.7581 18.4677C96.0689 18.9741 96.3761 19.4828 96.6797 19.9936C96.376 19.4829 96.0681 18.9746 95.7573 18.4682C95.6417 18.4239 95.5353 18.3838 95.436 18.3493L95.7581 18.4677ZM38.344 48.8283C38.3989 48.8022 38.4541 48.7817 38.5097 48.7676L38.4268 48.794C38.3712 48.8141 38.3159 48.84 38.2613 48.8726L38.2608 48.8718C38.2883 48.8554 38.3163 48.8414 38.344 48.8283Z" fill="black"/>
<path d="M64.473 41.8987C64.5165 42.0342 64.5551 42.188 64.6227 42.3087C64.7819 42.6599 65.0269 43.0954 65.2335 43.422C66.1211 44.8249 66.8902 46.4285 67.7997 47.8049C67.4997 46.7488 65.1218 42.9042 64.473 41.8987Z" fill="#242B2F"/>
<path d="M28.1878 63.7754C27.1032 64.2225 25.0834 65.457 23.9662 66.07C20.7617 67.7918 17.5829 69.5613 14.4311 71.3779C13.217 72.0547 11.9979 72.723 10.7739 73.3828C9.76636 73.9298 8.84703 74.355 7.95968 75.0902C8.16631 75.5887 8.40511 76.001 8.70594 76.4457L8.92932 76.3825C9.49727 76.5557 11.5398 77.5883 11.935 78.0987C11.9656 78.1383 12.0605 78.3843 12.0852 78.4512C12.2595 79.072 12.2942 79.3652 12.3512 80.0037C14.569 78.6057 30.4971 69.8985 30.9011 69.2506C30.8449 68.7192 29.5059 66.4536 29.1372 65.7305C28.7783 65.1223 28.4779 64.4225 28.1878 63.7754Z" fill="#42494D"/>
<path d="M29.137 65.7306L29.1806 66.03C28.8634 66.5454 28.5014 68.3365 28.7749 68.884C28.4996 69.1721 26.0256 70.3997 25.483 70.7084C23.0138 72.1132 20.5526 73.5451 18.0825 74.9457L14.2559 77.0926C13.7047 77.4052 12.4908 78.0436 12.085 78.4512C12.2593 79.072 12.294 79.3653 12.3509 80.0038C14.5688 78.6057 30.4968 69.8985 30.9009 69.2506C30.8447 68.7192 29.5057 66.4536 29.137 65.7306Z" fill="#676E71"/>
<path d="M29.1807 66.03C28.8634 66.5454 28.5014 68.3365 28.7749 68.8841C29.1334 69.1767 29.6744 70.0361 30.2074 69.7361C30.0526 69.4024 29.2853 69.1075 29.1162 68.6968C28.7538 67.8132 29.3954 67.1159 29.1807 66.03Z" fill="black"/>
<path d="M58.8086 45.8454C57.83 46.3929 56.8486 46.9719 55.8761 47.5341C56.0737 47.9139 56.2367 48.172 56.3225 48.5938L56.2262 48.6522C56.0716 48.564 56.0575 48.5234 55.9343 48.3904L55.7991 48.4094C55.5064 48.7196 52.3064 50.4997 51.7543 50.8161L44.4532 55.03C43.2289 55.74 41.859 56.494 40.6709 57.2308C40.3905 57.5181 40.2007 57.6033 39.8557 57.8028C40.0129 58.1689 40.3654 58.8973 40.4814 59.2308C40.8894 59.7876 41.6219 59.9818 42.2808 60.0513C42.7241 60.0608 43.3498 59.8599 43.6343 60.1572C43.9846 60.0311 45.7596 58.9444 46.1866 58.6954L52.6114 54.9532L52.099 54.0885L52.1518 53.8235L52.5141 53.6045C52.5972 53.404 52.8554 52.9751 52.9724 52.7678L53.6245 52.7747L54.1026 52.9757C54.457 53.3793 54.3898 53.5161 54.5338 54.0388C54.5671 54.0456 54.601 54.052 54.6343 54.0588L54.691 54.0311L54.9684 54.0641L55.7989 53.5829L55.6764 53.4605C55.7294 52.8315 56.04 52.6555 56.5574 52.3593C56.9853 52.1145 57.3742 51.7752 57.8593 51.9496C58.4862 51.7776 63.289 48.8356 63.9661 48.3507C64.2298 48.2031 64.269 48.2402 64.3804 48.0204C64.337 47.8273 64.2037 47.7323 64.0591 47.5876C63.6657 47.18 63.2396 46.2465 62.871 45.7158C62.6825 45.3223 62.6028 45.0413 62.4746 44.625C61.7347 45.1554 60.4881 45.7581 59.7092 46.2826C59.693 46.2934 59.5489 46.6974 59.5269 46.7613L59.4205 46.7752C59.1753 46.5461 58.9808 46.1476 58.8086 45.8454Z" fill="#676E71"/>
<path d="M62.871 45.7158C62.9467 45.994 63.2373 46.4535 63.403 46.7048L63.5231 46.9669C63.4375 47.1356 63.4957 47.0651 63.3209 47.1576C62.127 47.3271 58.1856 49.9588 56.9284 50.7111C56.0219 51.2536 54.6043 52.0108 53.6472 52.5259C53.5486 52.579 53.3147 52.5221 53.1975 52.4933C52.819 52.4753 52.5323 52.8134 52.3808 53.1257C51.6332 53.5362 50.9831 53.9857 50.2531 54.4159C48.9345 55.1931 47.5998 55.9492 46.2765 56.7183C45.394 57.2314 44.413 57.649 43.5217 58.1575C43.3285 58.2676 43.1079 58.2674 42.9143 58.3875C42.5362 58.6222 42.1917 58.9123 41.8152 59.1524C41.3782 59.4311 40.9511 59.3344 40.4814 59.2308C40.8895 59.7876 41.6219 59.9818 42.2808 60.0513C42.7241 60.0609 43.3498 59.8599 43.6344 60.1572C43.9847 60.0311 45.7596 58.9444 46.1866 58.6954L52.6114 54.9532L52.099 54.0885L52.1518 53.8235L52.5142 53.6045C52.5972 53.404 52.8554 52.9752 52.9724 52.7678L53.6245 52.7747L54.1026 52.9757C54.457 53.3793 54.3898 53.5161 54.5338 54.0388C54.5671 54.0456 54.601 54.052 54.6343 54.0588L54.691 54.0311L54.9684 54.0641L55.7989 53.5829L55.6764 53.4605C55.7294 52.8315 56.04 52.6555 56.5574 52.3593C56.9853 52.1145 57.3742 51.7752 57.8593 51.9497C58.4863 51.7776 63.289 48.8356 63.9661 48.3507C64.2298 48.2031 64.269 48.2402 64.3804 48.0204C64.337 47.8273 64.2037 47.7323 64.0591 47.5876C63.6657 47.1801 63.2396 46.2465 62.871 45.7158Z" fill="#7E8487"/>
<path d="M62.871 45.7158C62.9467 45.994 63.2373 46.4535 63.403 46.7048L63.5231 46.9669C63.4375 47.1356 63.4957 47.0651 63.3209 47.1576C61.9128 48.0614 60.5159 48.8011 59.057 49.6194C57.5736 50.4514 55.127 52.1994 53.6245 52.7747L54.1026 52.9757C54.457 53.3793 54.3898 53.5161 54.5338 54.0388C54.5671 54.0456 54.601 54.052 54.6343 54.0588L54.691 54.0311L54.9684 54.0641L55.7989 53.5829L55.6764 53.4605C55.7294 52.8315 56.04 52.6555 56.5574 52.3593C56.9853 52.1145 57.3742 51.7752 57.8593 51.9497C58.4863 51.7776 63.289 48.8356 63.9661 48.3507C64.2298 48.2031 64.269 48.2402 64.3804 48.0204C64.337 47.8273 64.2037 47.7323 64.0591 47.5876C63.6657 47.1801 63.2396 46.2465 62.871 45.7158Z" fill="#626669"/>
<path d="M59.0572 49.6193C60.5161 48.801 61.913 48.0614 63.321 47.1575L63.6246 46.9814C63.7322 47.162 63.9698 47.536 64.0593 47.5875L63.9808 47.7277C63.7892 47.8756 63.4903 47.8318 63.1945 47.8626C63.0227 47.9041 62.6779 48.0877 62.5022 48.1729C61.6858 48.5711 60.888 49.0541 60.1131 49.5284C58.1398 50.7364 56.1113 51.8341 54.1027 52.9757L53.6247 52.7747C55.1272 52.1993 57.5738 50.4514 59.0572 49.6193Z" fill="#FFA353"/>
<path d="M55.6764 53.4605C55.2706 53.6594 55.0694 53.7837 54.6909 54.0311L54.9683 54.0641L55.7988 53.5829L55.6764 53.4605Z" fill="#1D1C1B"/>
<path d="M52.099 54.0884L52.084 54.2941C51.9231 54.6036 43.0906 59.5971 42.3098 59.9099L42.2808 60.0513C42.7241 60.0608 43.3498 59.8598 43.6344 60.1571C43.9847 60.0311 45.7596 58.9443 46.1866 58.6953L52.6114 54.9532L52.099 54.0884Z" fill="#7E8487"/>
<path d="M50.0854 55.1783C47.6347 56.7129 44.939 58.0187 42.4963 59.5805C42.394 59.6459 42.3494 59.8003 42.3098 59.91C43.0906 59.5972 51.9231 54.6036 52.084 54.2942C51.6615 54.2282 50.5372 54.9414 50.0854 55.1783Z" fill="#FFA353"/>
<path d="M63.4028 46.7048C63.092 46.8418 62.8183 46.9874 62.5194 47.1474C59.3504 48.8444 56.4438 50.9303 53.1973 52.4932C53.3145 52.5221 53.5485 52.5789 53.647 52.5258C54.6041 52.0107 56.0217 51.2536 56.9282 50.7111C58.1854 49.9588 62.1268 47.3271 63.3207 47.1576C63.4955 47.0651 63.4374 47.1356 63.5229 46.9669L63.4028 46.7048Z" fill="#7E8487"/>
<path d="M49.4718 63.2144C48.2552 63.8495 46.7743 64.7556 45.563 65.4534C46.5783 67.0847 45.8498 68.1766 45.7432 69.905C45.5749 72.6505 44.9709 75.9878 45.2737 78.7227C46.0154 78.6743 47.1085 78.4028 47.8597 78.2383C49.0322 77.9743 50.2216 77.6914 51.3717 77.3375C51.8493 77.1909 52.5723 76.9909 52.6245 76.4116C52.4472 75.8766 52.0138 76.0866 51.6005 75.6454C51.3743 75.1209 51.2337 71.1638 51.2884 70.5057L51.2961 70.4131C52.6078 69.7579 52.314 69.5733 51.1672 68.9708C51.0978 68.6203 50.9675 67.079 51.0813 66.6907C51.1063 66.6067 51.354 66.5681 51.3973 66.3056C51.179 65.7627 49.9325 63.5301 49.4718 63.2144Z" fill="#42494D"/>
<path d="M59.7501 40.8082C58.2491 40.0492 57.7975 40.6144 56.4216 41.3048C55.5284 41.7512 54.6297 42.188 53.7265 42.6143L43.6052 47.3997C42.2396 48.0568 39.0854 49.4954 38.0233 50.3873C37.8971 50.8708 38.2429 52.4679 38.2688 53.2013C39.7405 52.4494 41.1511 51.5449 42.5997 50.7716C42.796 49.9275 42.8336 49.7367 43.5998 49.278C46.1495 47.7515 48.777 46.333 51.3375 44.8264C52.6905 44.0166 54.0519 43.2208 55.4214 42.4393C56.6365 41.7306 58.3267 40.2775 59.422 42.0978C59.5569 42.3191 59.6448 42.5657 59.6802 42.8224C59.7157 43.0791 59.6979 43.3403 59.6281 43.5898C59.351 44.5943 58.023 45.1153 57.1488 45.6133C56.054 46.2344 54.9628 46.8616 53.8757 47.4946C51.9173 48.632 49.9656 49.7808 48.021 50.9408C47.0043 51.5403 45.9514 52.1374 44.9385 52.7367C43.2759 53.7206 42.6757 52.874 42.5777 51.1623C41.1869 51.9939 39.7697 52.7814 38.3287 53.5233C38.3873 54.2049 38.4361 54.887 38.4746 55.5698C39.5973 55.8466 40.4592 55.4063 41.1741 54.564C41.371 54.3318 42.1864 54.8747 42.0632 55.3137C42.0819 55.4665 42.0604 55.9344 42.1325 56.0205C43.763 55.2435 55.228 48.2747 55.705 48.3025L55.7991 48.4093L55.9344 48.3903C55.8255 48.1938 55.4968 47.6646 55.6381 47.4673C55.969 47.0048 58.4478 45.5363 58.8479 45.5501C59.132 45.6778 59.2368 45.866 59.4281 46.1249C59.9751 45.7984 61.9098 44.7008 62.2901 44.3796L62.2791 44.298L62.0861 44.4493C61.8139 44.3512 60.1093 41.3065 59.7501 40.8082Z" fill="#42494D"/>
<path d="M41.7565 51.9626C40.7842 52.4795 39.4297 53.259 38.5099 53.8587C38.5763 54.2847 38.5898 54.8023 38.9105 55.0631L39.1041 55.0341C39.7077 54.6742 42.166 53.3845 42.4257 53.0574C42.495 52.671 42.3699 52.4448 42.1627 52.1007C42.0746 51.9549 41.9333 51.9795 41.7565 51.9626Z" fill="black"/>
<path d="M41.8547 52.2864C41.3463 52.5673 40.8377 52.8478 40.3316 53.1328C39.9615 53.3411 38.3239 54.1097 39.0853 54.6622C39.972 54.1296 40.8922 53.6537 41.7899 53.1414C42.0732 52.9797 42.0795 52.9758 42.1396 52.7357C42.0573 52.4793 42.0459 52.489 41.8547 52.2864Z" fill="#676E71"/>
<path d="M39.2574 50.3598C38.7938 50.5214 38.5439 51.0237 38.6946 51.491C38.8454 51.9584 39.3414 52.2201 39.8122 52.0803C39.9667 52.0345 40.1061 51.9482 40.2161 51.8303C40.3261 51.7125 40.4026 51.5675 40.4377 51.4102C40.4727 51.2529 40.4651 51.0892 40.4156 50.9359C40.3661 50.7826 40.2766 50.6453 40.1563 50.5382C39.9112 50.3201 39.5671 50.2519 39.2574 50.3598Z" fill="black"/>
<path d="M39.4177 50.6405C39.278 50.6789 39.1583 50.7694 39.0834 50.8935C39.0085 51.0175 38.9841 51.1656 39.0152 51.3071C39.0466 51.4486 39.131 51.5726 39.2512 51.6535C39.3713 51.7344 39.518 51.7661 39.6608 51.7421C39.7617 51.725 39.8561 51.6808 39.9339 51.6143C40.0117 51.5478 40.0699 51.4614 40.1025 51.3643C40.1348 51.2673 40.1403 51.1633 40.1182 51.0634C40.0961 50.9636 40.0473 50.8716 39.977 50.7973C39.9067 50.723 39.8175 50.6691 39.719 50.6415C39.6205 50.6139 39.5164 50.6136 39.4177 50.6405Z" fill="#676E71"/>
<path d="M43.0496 60.8667C42.8701 61.4547 42.3794 61.225 41.8758 61.1727C40.6302 61.0434 39.5831 60.6096 39.1096 59.3581C39.0052 59.0823 38.6315 58.1067 38.2551 58.1796C37.9344 58.2565 37.875 58.3076 37.497 58.2182L37.364 58.2853C37.1795 58.9209 40.224 63.0018 40.3972 63.9382L40.523 64.1828C40.6321 64.3866 40.8344 64.7369 40.9067 64.9412C42.0757 64.1031 43.4163 63.8797 44.7022 64.6092C45.3798 64.9938 45.095 65.374 45.9275 64.8547C47.542 63.9187 49.1826 63.0094 50.8154 62.1038C51.457 61.7481 51.2928 61.5173 51.5502 61.3803C52.6127 60.8132 54.7711 59.3861 55.7814 59.0232C56.0437 58.9739 55.9882 58.9448 56.2049 59.0239C56.8011 59.1979 57.1156 59.2925 57.6336 59.6284C57.4273 59.2765 57.2517 58.9749 57.0677 58.6093C56.9273 58.4158 56.8755 58.322 56.6716 58.2502C56.3527 58.2966 55.3922 58.5742 54.9563 58.6658C54.3444 58.1768 53.2459 56.0436 52.7852 55.2525C49.7217 56.9781 46.5914 58.8052 43.5528 60.5794C43.3677 60.6393 43.1381 60.6784 43.0496 60.8667Z" fill="#676E71"/>
<path d="M57.0678 58.6093C56.9274 58.4158 56.8756 58.3219 56.6717 58.2502C56.5631 58.5952 56.1002 58.8291 55.7815 59.0232C56.0438 58.9739 55.9883 58.9448 56.205 59.0239C56.5048 58.785 56.7046 58.7037 57.0678 58.6093Z" fill="#676E71"/>
<path d="M48.1636 60.6283C48.3902 60.4998 48.6146 60.3687 48.8386 60.2355C49.1387 60.0545 49.4532 59.9093 49.5374 59.5729C49.3082 59.2698 49.1587 59.2292 48.804 59.3784C48.2185 59.6236 48.2318 60.1194 47.9746 60.4791C47.4841 60.507 47.124 59.8417 46.5132 60.3258C46.1981 60.5758 46.3718 60.9342 46.1681 61.2366C45.9635 61.5412 45.5878 61.4881 45.2515 61.5392C44.8274 61.9125 44.94 63.399 45.754 63.1557C45.9635 63.0927 46.4203 62.788 46.6205 62.6632L47.1163 62.4287C48.0854 62.7355 48.9938 61.4515 48.1636 60.6283Z" fill="black"/>
<path d="M48.2618 60.994C47.2787 60.379 46.5802 60.0374 46.2578 61.4804C46.675 61.4863 46.8189 61.4581 47.1322 61.7088C47.3671 62.2268 47.0041 62.4085 46.6205 62.6632L47.1163 62.4288C47.5552 62.2311 47.721 62.1284 48.1253 61.8656C48.2042 61.5601 48.2253 61.3059 48.2618 60.994Z" fill="#42494D"/>
<path d="M46.6239 61.6054C46.2603 61.7511 45.4959 62.2063 45.3851 62.589C45.4455 62.8009 45.3854 62.7195 45.5747 62.8384C45.9422 62.651 46.755 62.3093 46.8608 61.9126C46.7832 61.6789 46.8443 61.7875 46.6239 61.6054ZM49.1609 59.5397C48.8858 59.666 48.6873 59.7443 48.5422 60.0114C48.8032 59.8901 49.0921 59.8184 49.1609 59.5397Z" fill="#42494D"/>
<path d="M43.328 61.3805C43.0995 61.4281 42.9501 61.649 42.9911 61.8782C43.0075 61.9714 43.0541 62.0567 43.1238 62.1209C43.1934 62.185 43.2822 62.2245 43.3765 62.2332C43.4708 62.2419 43.5654 62.2194 43.6456 62.1691C43.7258 62.1187 43.7872 62.0434 43.8204 61.9547C43.8474 61.8823 43.8545 61.8039 43.841 61.7278C43.8275 61.6517 43.7939 61.5806 43.7437 61.5218C43.6414 61.4022 43.4818 61.3482 43.328 61.3805ZM50.8048 59.6185C50.5954 59.6698 50.4673 59.8806 50.5191 60.0897C50.5704 60.2991 50.7824 60.4265 50.9915 60.3746C51.1996 60.3225 51.3262 60.1118 51.275 59.9039C51.2503 59.8038 51.187 59.7176 51.0988 59.6641C51.0107 59.6106 50.905 59.5942 50.8048 59.6185ZM53.2542 56.8786C53.1921 56.8736 53.1298 56.8855 53.0739 56.913C53.018 56.9405 52.9706 56.9826 52.9367 57.0348C52.8675 57.1413 52.8624 57.2773 52.9234 57.3882C52.9842 57.5001 53.1005 57.5691 53.2281 57.5689C53.4132 57.568 53.5652 57.4214 53.5721 57.2365C53.5757 57.1473 53.5445 57.0602 53.4852 56.9935C53.426 56.9268 53.3431 56.8856 53.2542 56.8786Z" fill="black"/>
<path d="M66.3854 54.891C65.6915 53.9118 64.7621 52.4149 64.3936 51.2641C64.267 50.8685 64.6002 50.5114 64.7206 50.2547C64.304 50.4356 63.8932 50.4207 63.6307 49.9875C63.3675 49.5531 63.5748 49.3871 63.6002 49.0141C61.7457 50.1046 59.8619 51.1621 58.0148 52.2618L60.4254 56.4478C60.6947 56.9142 61.8315 58.6595 61.7336 59.0849C61.3262 58.8066 59.7403 55.5641 59.3758 55.2958L59.2762 55.3657C59.0744 56.2742 58.6385 56.2451 57.7905 56.2729C58.4809 57.4699 59.6492 59.3649 60.2087 60.5671L60.1519 60.6308L60.1703 60.648C59.5504 60.1636 58.0743 57.3056 57.5483 56.412C56.7413 56.816 55.4397 57.8545 54.6804 57.6594L54.494 57.7183C54.6392 57.9778 54.7168 58.1604 54.9412 58.3588C55.5813 58.5794 56.6748 57.6078 57.0846 58.1354C57.8253 59.0875 59.0496 60.9508 59.1251 62.1533C59.68 61.7038 60.2325 61.2139 60.7482 60.7205C62.7396 58.815 65.0788 57.0739 67.0657 55.1905L67.0358 55.0847C66.8265 54.9434 66.6365 54.9355 66.3854 54.891Z" fill="#42494D"/>
<path d="M66.1677 55.1095C64.8427 56.0231 63.3552 57.5555 62.1252 58.6323C62.0266 58.7186 61.9901 58.8657 61.9703 58.9909C62.4434 58.7332 65.9353 55.7078 66.2152 55.2925L66.1677 55.1095Z" fill="black"/>
<path d="M11.7213 80.7147C11.7547 80.881 15.5404 86.1507 15.9866 86.8699C16.6446 86.4823 18.4262 85.3857 19.0584 85.1397C19.2981 84.6587 21.3232 80.2341 21.351 79.938C21.0624 79.1688 21.4818 78.7418 21.8524 78.0467C23.1366 75.534 22.2917 75.6607 25.0007 74.2011L24.6206 73.4691C21.5087 75.3548 18.2466 77.0742 15.0913 78.8928C14.0099 79.5156 12.8573 80.2158 11.7213 80.7147Z" fill="#42494D"/>
<path d="M17.0391 78.3242C16.344 78.6877 13.6542 80.0117 13.2493 80.7853C13.0147 81.2325 13.5312 81.7572 14.3074 81.3454C15.0244 80.9261 17.691 79.6007 18.1907 78.8706C18.5007 78.4163 17.8867 77.9355 17.0391 78.3242Z" fill="black"/>
<path d="M94.551 30.6577L76.3892 41.5396L72.3967 43.9576C71.4979 44.5108 68.4938 46.4751 67.6739 46.6718C67.8558 47.0369 68.098 47.5745 68.3315 47.91C68.3949 48.001 68.4156 47.9705 68.5563 47.9751C68.9443 47.9158 69.5741 47.8392 69.8974 47.6579C71.1895 46.9367 72.4866 46.1553 73.752 45.3923C76.6392 43.6333 79.5136 41.8539 82.3754 40.0539C84.022 39.0282 85.7029 38.0438 87.3192 36.9691C89.8264 35.3027 92.6308 33.8537 95.093 32.136C94.8963 31.6176 94.7765 31.1925 94.551 30.6577Z" fill="#676E71"/>
<path d="M71.3421 45.1803C70.8442 45.4755 69.9858 45.8566 69.8886 46.458C69.9361 46.6727 69.931 46.6578 70.0949 46.8061C70.3051 46.8618 70.4233 46.7874 70.6302 46.7089C71.0986 46.4525 71.9584 46.0891 72.0787 45.5354C71.9965 45.2627 72.0639 45.3854 71.839 45.1718C71.5804 45.1053 71.588 45.1157 71.3421 45.1803ZM87.4968 35.319L87.1754 35.5146C86.7764 35.7559 86.3191 36.0415 86.3533 36.5785C86.5766 36.9268 86.9463 36.7706 87.2388 36.5917C87.5803 36.3999 88.9463 35.6623 88.4328 35.1428C88.0702 35.0362 87.8159 35.16 87.4968 35.319ZM76.9543 41.7877C76.4297 42.0743 75.5324 42.4578 75.3563 43.0058C75.3902 43.2793 75.3446 43.1548 75.5113 43.3873C75.7282 43.4872 75.7563 43.4624 75.9924 43.4359C76.5091 43.1314 77.3134 42.7236 77.5726 42.1694C77.5775 41.9291 77.6223 42.0192 77.4908 41.867C77.2244 41.7818 77.2339 41.7833 76.9543 41.7877ZM82.5788 38.385C82.0498 38.644 80.7957 39.1828 80.8981 39.8735C81.0618 40.0768 81.1124 40.0723 81.3619 40.1402C81.8571 39.8636 83.2827 39.2284 83.0154 38.5683C82.8162 38.4397 82.8223 38.4315 82.5788 38.385ZM93.2832 31.8145C92.8262 32.0716 91.9798 32.449 91.8737 33.0015C91.9848 33.4014 92.223 33.4418 92.5731 33.358C93.055 33.0899 93.881 32.7073 94.0459 32.1767C93.9451 31.7368 93.6692 31.7144 93.2832 31.8145ZM74.381 43.4088C73.8989 43.6082 72.4257 44.3126 72.6844 44.9599C72.88 45.1169 72.8901 45.1025 73.1294 45.1454C73.6541 44.9128 74.8335 44.368 74.7955 43.7364C74.6596 43.5163 74.6142 43.5131 74.381 43.4088ZM90.8172 33.3856C90.3102 33.6448 88.9839 34.1669 89.1615 34.8644C89.3346 35.0506 89.3802 35.0467 89.6219 35.1106C90.1502 34.8288 91.3941 34.3388 91.2439 33.6691C91.071 33.4657 91.0581 33.4786 90.8172 33.3856ZM79.7663 40.0853C79.3437 40.3138 77.9227 40.9919 78.2258 41.5974C78.4524 41.7403 78.445 41.7283 78.7182 41.747C79.2344 41.4536 80.1033 41.0726 80.3301 40.5704C80.3028 40.1831 80.1617 40.0543 79.7663 40.0853ZM84.8235 37.0078C84.3026 37.2915 83.6571 37.597 83.6247 38.273L83.7733 38.4138C84.0768 38.4204 84.0964 38.4191 84.3863 38.3384C84.8746 38.0448 85.8138 37.6673 85.7765 37.0578C85.6529 36.8646 85.67 36.8609 85.4657 36.7685C85.2063 36.7736 85.0554 36.8847 84.8235 37.0078Z" fill="black"/>
<path d="M89.5547 27.9144C88.0365 28.6671 86.3164 29.7189 84.8061 30.5607L75.9499 35.4248C72.6746 37.1987 69.3842 38.9438 66.1286 40.7541C65.7123 40.9855 65.247 41.2673 64.8753 41.5607C64.8375 41.9772 65.4034 42.7198 65.6532 43.1003C65.7248 42.9034 65.8161 42.6117 65.994 42.5054C67.4126 41.6577 68.9611 40.8339 70.42 40.0696L76.5914 36.7845C80.6039 34.6759 84.6048 32.5454 88.594 30.3931C90.1047 29.5839 91.6217 28.7111 93.1398 27.9238C92.8592 27.5014 92.614 27.1133 92.2832 26.7275L92.045 26.6068C91.5036 26.7154 90.1297 27.5843 89.5547 27.9144Z" fill="#676E71"/>
<path d="M92.2831 26.7275L92.0448 26.6069C91.5035 26.7154 90.1295 27.5843 89.5546 27.9144C89.916 27.9692 90.027 27.8371 90.2708 27.8667C90.2765 28.0997 90.2573 28.172 90.3938 28.3614C90.8009 28.6407 91.4939 28.2999 91.8109 28.0053C92.2331 27.6131 92.3233 27.423 91.9587 26.9727C92.0132 26.8299 92.1072 26.8245 92.2831 26.7275Z" fill="black"/>
<path d="M92.2831 26.7275L92.0448 26.6069C91.5035 26.7154 90.1295 27.5843 89.5546 27.9144C89.916 27.9692 90.027 27.8371 90.2708 27.8667C91.0842 27.3051 91.2555 27.3457 91.9587 26.9727C92.0132 26.8299 92.1072 26.8245 92.2831 26.7275Z" fill="#676E71"/>
<path d="M76.0349 35.665C75.5931 35.8912 74.8341 36.1732 74.715 36.6814C74.7491 36.9056 74.7851 36.9128 74.9386 37.0795C75.2204 37.1684 75.0757 37.1547 75.3906 37.0854C75.8644 36.8423 76.8458 36.476 76.8878 35.9177C76.8002 35.6964 76.8127 35.7081 76.6211 35.5683C76.3681 35.5192 76.2773 35.5778 76.0349 35.665ZM70.4395 38.6665C70.0074 38.8919 69.3115 39.155 69.1969 39.6553C69.239 39.865 69.2595 39.8529 69.4223 40.0026C69.6549 40.096 69.7113 40.0627 69.9545 40.0081C70.4396 39.7401 71.3435 39.3844 71.4007 38.7902C71.1467 38.3254 70.8038 38.4965 70.4395 38.6665ZM73.5692 37.0139C73.097 37.2427 72.1102 37.6031 72.0177 38.1367C72.0727 38.3664 72.0747 38.3492 72.2458 38.5168C72.5256 38.6002 72.3872 38.5953 72.6769 38.5234C73.1771 38.272 73.9843 37.9199 74.2184 37.4122C74.1806 37.0244 73.9127 36.9817 73.5692 37.0139ZM68.0824 39.9453C67.5624 40.2066 66.7345 40.5319 66.5096 41.0595C66.5262 41.3301 66.4887 41.204 66.6493 41.444C66.8246 41.5604 66.8579 41.5362 67.0697 41.5255C67.4772 41.3413 68.9355 40.6749 68.6137 40.0884C68.3786 39.9644 68.354 39.9709 68.0824 39.9453ZM79.0694 34.0614C78.6461 34.2794 77.139 34.9161 77.5257 35.5217C77.749 35.6441 77.7567 35.635 77.9977 35.6767C78.4717 35.4302 79.753 34.9207 79.556 34.3122C79.3429 34.1263 79.3478 34.1393 79.0694 34.0614ZM81.5773 32.6994C81.0876 32.9403 80.2923 33.2337 80.1173 33.74C80.1278 33.9536 80.1387 33.9394 80.276 34.1095C80.5083 34.2358 80.5148 34.2172 80.7711 34.1998C81.3386 33.8936 81.8462 33.6834 82.2014 33.1339C82.2335 32.8854 82.2663 32.9862 82.144 32.8098C81.8809 32.6936 81.8701 32.6947 81.5773 32.6994ZM86.6781 29.8326C86.1949 30.0862 85.5214 30.341 85.3296 30.8233C85.3617 31.1165 85.3148 30.9805 85.5038 31.2353C85.7323 31.3292 85.7917 31.2946 86.0318 31.2409C86.2298 31.1375 86.4268 31.0322 86.6227 30.9249C86.9424 30.7485 87.3161 30.5477 87.4215 30.184C87.2973 29.7635 87.0316 29.7731 86.6781 29.8326ZM84.2731 31.1926C83.8387 31.4264 82.5559 31.9686 82.7667 32.5586C82.9678 32.7308 82.9811 32.7155 83.2337 32.7646C83.6997 32.558 84.9533 32.0668 84.7846 31.4498C84.5772 31.2586 84.5561 31.2626 84.2731 31.1926ZM88.8997 28.6289C88.5134 28.8202 87.5498 29.3126 87.8888 29.8796C88.1267 29.989 88.3701 29.927 88.61 29.8563C89.0877 29.623 89.8798 29.2421 89.8871 28.6232L89.7741 28.5107C89.4529 28.4435 89.1973 28.5177 88.8997 28.6289Z" fill="black"/>
<path d="M62.7855 59.4638C62.3086 59.8529 61.8009 60.3347 61.3411 60.7533L61.8079 61.4158C63.0357 63.1031 64.0944 64.5268 65.5273 66.0562C66.2474 66.8239 66.9868 67.5727 67.7451 68.302C68.2724 68.8081 69.8821 70.1721 70.1707 70.6907C69.7372 70.5922 68.8506 69.7559 68.5051 69.4388C66.1508 67.2741 63.4051 64.4167 61.6743 61.7095C61.5054 61.4652 61.3137 61.2015 61.1603 60.9505C60.8963 61.178 60.6181 61.4074 60.3739 61.6544C60.4752 61.7962 60.732 62.1808 60.831 62.2946C63.084 65.5781 66.7343 69.2251 69.8314 71.7227C70.4949 70.9978 71.2535 70.1522 71.8706 69.3976C71.205 68.9427 70.2967 68.0393 69.6798 67.4773C67.3438 65.3509 65.2966 63.2519 63.5275 60.6164L62.7855 59.4638Z" fill="#84888C"/>
<path d="M62.7856 59.4638C62.3087 59.8528 61.801 60.3346 61.3412 60.7533L61.808 61.4158C62.1122 61.1334 62.8547 60.4556 63.1943 60.2789L63.5276 60.6163L62.7856 59.4638ZM61.1604 60.9505C60.8964 61.1779 60.6182 61.4074 60.374 61.6543C60.4753 61.7962 60.7322 62.1808 60.8311 62.2946C61.1507 62.0845 61.3084 61.9169 61.6744 61.7095C61.5055 61.4651 61.3138 61.2015 61.1604 60.9505Z" fill="#676E71"/>
<path d="M100.077 25.859L100.105 26.2001C99.9285 26.4991 99.4873 26.6621 99.1655 26.8097L99.4847 27.5034C100.403 26.825 100.821 27.0039 100.077 25.859Z" fill="#504F50"/>
<path d="M100.104 26.2001C99.7434 26.3304 99.3573 26.6545 99.0009 26.5225L99.1652 26.8097C99.487 26.6622 99.9283 26.4991 100.104 26.2001Z" fill="#1D1C1B"/>
<path d="M6.67673 75.5767C6.37888 75.7775 5.86542 76.1167 5.70016 76.4038C4.89166 77.81 6.80659 79.8675 7.62552 80.8519C8.48555 81.886 9.24309 82.7976 10.0208 83.8297C10.759 84.8003 11.4359 85.8172 12.0452 86.8739C12.7439 88.0762 13.6497 90.1126 14.9349 90.6801C15.5776 90.7027 16.0848 90.3232 16.6475 89.9999L10.6814 81.5162C9.58525 79.9768 7.44728 77.1779 6.67673 75.5767Z" fill="#2D3134"/>
<path d="M64.7347 57.7383L62.9619 59.3217C63.0456 59.4413 63.3655 59.9109 63.4459 59.9859C65.1985 62.436 66.4999 64.0484 68.7213 66.1691C69.6607 67.0661 71.219 68.3839 72.0182 69.2845C72.5237 68.6918 73.1341 67.9418 73.6902 67.4127C73.4579 67.2769 73.1869 67.151 73.032 66.9396C70.475 65.0189 66.9796 61.4216 65.3316 58.6342C65.1359 58.3435 64.919 58.0333 64.7347 57.7383Z" fill="#84888C"/>
<path d="M64.7347 57.7383L62.9619 59.3218C63.0456 59.4413 63.3655 59.911 63.4459 59.9859C63.6112 59.6786 64.7177 58.79 65.0882 58.5985C65.193 58.5442 65.1916 58.5806 65.3316 58.6343C65.1359 58.3435 64.9189 58.0333 64.7347 57.7383Z" fill="#676E71"/>
<path d="M35.7194 60.1155C33.5159 61.5008 30.9974 62.6527 28.7378 64.0829C29.0341 64.7167 29.2477 65.1402 29.5996 65.7512C29.8132 66.2404 30.0252 66.5994 30.293 67.0633C32.6586 65.6921 35.0392 64.347 37.4343 63.0283C37.2977 62.8975 37.0796 62.6738 36.9431 62.5593C36.1165 61.7291 35.9245 61.2371 35.7194 60.1155Z" fill="#676E71"/>
<path d="M29.6 65.7511C29.8136 66.2403 30.0255 66.5993 30.2934 67.0633C32.6589 65.6921 35.0395 64.3469 37.4347 63.0283C37.298 62.8974 37.08 62.6738 36.9434 62.5592L36.9157 62.68C36.3448 63.1005 34.5009 64.0262 33.7779 64.4178C32.7056 64.9986 31.0943 65.9884 30.0123 66.3782L29.6 65.7511Z" fill="#242B2F"/>
<path d="M27.9276 72.8832C27.0159 73.3887 23.9001 75.0747 23.3614 75.784C22.9548 76.3204 22.736 77.0198 22.4575 77.6292C22.1755 78.2461 21.8638 78.8515 21.5725 79.4643C21.7969 79.8623 22.0236 80.2589 22.2526 80.6542C22.4089 80.9182 22.7319 81.5152 23.0173 81.5902L23.1435 81.423C23.9131 79.9823 24.5971 78.4974 25.1921 76.9762C26.5882 76.1416 27.9942 75.3229 29.4084 74.5196C29.1588 74.0673 28.77 73.2693 28.3905 72.9361C28.235 72.7993 28.0933 72.854 27.9276 72.8832Z" fill="#242B2F"/>
<path d="M66.6776 56.0395L65.4921 57.0758C65.6905 57.3967 65.9841 57.904 66.2172 58.1724C68.2074 61.3609 71.4492 64.3295 74.1562 66.9541L75.2042 65.6955C72.2232 62.5793 69.5411 60.5251 67.1247 56.7566L66.6776 56.0395Z" fill="#84888C"/>
<path d="M66.6776 56.0395L65.4921 57.0758C65.6905 57.3967 65.9841 57.904 66.2172 58.1724C66.1715 58.0812 66.0242 57.8421 66.0526 57.7654C66.1905 57.388 66.8101 57.0102 67.1247 56.7566L66.6776 56.0395Z" fill="#676E71"/>
<path d="M107.696 20.2877C105.071 21.73 102.461 23.1982 99.8653 24.6921C100.104 25.2395 100.402 25.6869 100.675 26.2076C102.507 25.0992 104.45 24.128 106.294 23.0343C106.981 22.6266 107.792 22.2065 108.441 21.758C108.486 21.5554 108.436 21.5651 108.316 21.3261C108.117 20.9633 107.915 20.6386 107.696 20.2877Z" fill="#42494D"/>
<path d="M99.8651 24.6922C100.103 25.2395 100.402 25.6869 100.675 26.2076C102.507 25.0993 104.449 24.128 106.293 23.0343C106.981 22.6266 107.792 22.2065 108.44 21.758C108.485 21.5554 108.436 21.5651 108.316 21.3261C107.712 21.7932 106.03 22.6848 105.298 23.0913C103.81 23.9178 102.02 25.0335 100.483 25.7135C100.276 25.3476 100.094 25.0447 99.8651 24.6922Z" fill="#676E71"/>
<path d="M62.4598 42.971C62.4354 43.1876 65.5618 48.6784 65.9211 49.3141L67.204 48.3638C67.2846 48.2925 67.3541 48.2191 67.43 48.1428C67.3034 47.4069 64.6664 42.9732 64.0649 42.2946C63.5493 42.5295 62.9856 42.7522 62.4598 42.971Z" fill="#42494D"/>
<path d="M53.6245 52.7747L52.9724 52.7677C52.8554 52.9751 52.5972 53.404 52.5142 53.6044L52.1518 53.8235C52.4487 54.0377 53.0486 55.1584 53.2591 55.527L53.4529 55.8815L54.494 57.7183L54.6805 57.6594C54.0695 56.715 54.715 56.6904 55.3739 56.2721L55.4816 56.2029L56.9255 55.4002C56.7009 54.987 56.1051 53.856 55.7989 53.5829L54.9684 54.064L54.691 54.031L54.6343 54.0588C54.601 54.052 54.5671 54.0456 54.5338 54.0388C54.3898 53.5161 54.457 53.3792 54.1026 52.9757L53.6245 52.7747Z" fill="black"/>
<path d="M55.7989 53.5829L54.9683 54.0641C55.8514 54.6344 55.5667 54.9504 55.1015 55.6103C55.1776 55.7822 55.2332 55.825 55.359 55.9651L55.4035 56.1923L55.4816 56.203L56.9255 55.4003C56.7008 54.987 56.1051 53.856 55.7989 53.5829Z" fill="#42494D"/>
<path d="M53.4529 55.8814L54.494 57.7183L54.6804 57.6594C54.0695 56.715 54.715 56.6904 55.3738 56.2721L55.4816 56.2029L55.4035 56.1923C54.8288 56.4561 54.9201 56.432 54.5 56.0233C53.9541 55.8535 54.0846 56.212 53.5157 55.8243L53.4529 55.8814Z" fill="#42494D"/>
<path d="M52.5142 53.6044L52.1518 53.8234C52.4487 54.0376 53.0486 55.1583 53.2591 55.5269C53.2114 55.392 53.1723 55.2761 53.1315 55.1384L53.2505 55.1384C53.1194 54.7049 53.2303 55.1341 53.3366 54.694C52.8732 54.2156 52.7962 54.2013 52.5142 53.6044Z" fill="#626669"/>
<path d="M53.2505 55.1385L53.1315 55.1386C53.1723 55.2763 53.2114 55.3921 53.2591 55.527L53.4529 55.8815L53.5158 55.8243C53.5084 55.5919 53.4663 55.6742 53.5732 55.5259L53.6707 55.6157C53.706 55.3432 53.7568 55.1445 53.822 54.8757C53.6648 54.8969 53.5272 55.0698 53.2505 55.1385Z" fill="black"/>
<path d="M53.2682 53.0512C52.2625 53.6658 53.0353 54.3158 53.7623 54.6546C54.4635 54.1731 53.9312 53.2886 53.2682 53.0512Z" fill="#2F3437"/>
<path d="M54.6294 54.2417C54.3725 54.4182 54.3128 54.481 54.28 54.7846C54.391 55.0492 54.4796 55.0754 54.7308 55.2452C54.8165 55.1926 54.9178 55.1163 55.0022 55.0576C55.1885 54.6259 54.977 54.4727 54.6294 54.2417Z" fill="#2F3437"/>
<path d="M53.6839 54.8466C53.4269 55.0231 53.3672 55.0859 53.3345 55.3895C53.4455 55.6541 53.5341 55.6803 53.7852 55.8501C53.8709 55.7975 53.9723 55.7212 54.0567 55.6624C54.2429 55.2308 54.0315 55.0776 53.6839 54.8466Z" fill="#2F3437"/>
<path d="M54.3819 55.2601C54.3067 55.5317 54.4543 55.841 54.6082 56.0553C54.7274 55.9524 54.7165 55.9549 54.7661 55.8025C54.7167 55.5533 54.5641 55.4458 54.3819 55.2601Z" fill="#2F3437"/>
<path d="M113.518 16.5183C112.149 17.3315 111.025 18.0097 109.622 18.7897L110.223 19.7588C110.432 20.0692 110.633 20.514 110.803 20.8572C112.321 19.8506 113.058 19.4118 114.733 18.7054C114.584 18.4014 114.244 17.6359 114.035 17.4397C113.872 17.1454 113.693 16.8004 113.518 16.5183Z" fill="#676E71"/>
<path d="M113.518 16.5183C112.15 17.3315 111.025 18.0097 109.622 18.7897L110.223 19.7588C110.384 19.6136 110.553 19.4454 110.712 19.2941C110.958 18.4641 113.073 17.3513 113.908 17.4783L114.035 17.4398C113.872 17.1455 113.693 16.8004 113.518 16.5183Z" fill="#42494D"/>
<path d="M113.908 17.4783C113.073 17.3514 110.958 18.4641 110.712 19.2941C110.848 19.4417 110.919 19.5814 111.137 19.5538C111.849 19.4638 113.28 18.5612 113.853 18.1893C113.926 17.8885 113.992 17.7594 113.908 17.4783Z" fill="black"/>
<path d="M7.52663 75.0422C7.43863 75.088 7.31333 75.1737 7.22582 75.2097C6.7386 75.3585 7.63508 76.642 7.81936 76.8969C10.1267 80.0842 12.3684 83.3266 14.5971 86.5692C15.3471 87.6606 16.127 88.8091 16.9662 89.8112C17.1143 89.7086 17.1539 89.6688 17.2844 89.5424C17.3045 89.233 16.1446 87.7772 15.8583 87.3671C14.4217 85.2713 12.9715 83.1841 11.5089 81.1064C10.2295 79.3029 8.36117 77.0905 7.52663 75.0422Z" fill="#2F3437"/>
<path d="M98.0359 25.6517C97.0475 26.2557 95.9671 26.8572 94.9613 27.4417L95.3884 28.1499L95.8663 29.0038C96.4116 28.7219 98.6247 27.6031 98.8875 27.1944C98.8258 26.9862 98.8195 26.9877 98.7014 26.8021L98.0359 25.6517Z" fill="#42494D"/>
<path d="M98.7014 26.8021C98.2405 27.2967 96.4032 28.3262 95.7766 28.5476C95.5667 28.4602 95.5496 28.3618 95.3885 28.1499L95.8664 29.0038C96.4117 28.7219 98.6247 27.6031 98.8875 27.1944C98.8259 26.9862 98.8195 26.9877 98.7014 26.8021Z" fill="#676E71"/>
<path d="M30.3601 70.1987C28.8251 71.0873 27.2846 71.9666 25.7392 72.8372C25.8766 73.0565 26.0479 73.2862 26.1984 73.4987C26.8529 73.0891 27.5293 72.6127 28.2699 72.4179C28.4299 72.5089 28.6727 72.7029 28.8227 72.6371C29.4097 72.3786 30.5308 71.992 30.4435 71.238C30.4349 70.9189 30.3886 70.5226 30.3601 70.1987Z" fill="#242B2F"/>
<path d="M73.6902 67.4127L73.8489 67.1664L73.8069 67.0305C71.66 65.102 69.1945 62.5893 67.3586 60.3474C66.8395 59.7135 65.5803 57.5633 65.1303 57.4147L65.0071 57.4828C65.0129 57.7246 65.5714 58.4749 65.7444 58.7316C67.0048 60.6356 68.4576 62.405 70.0799 64.0118C70.8156 64.7488 72.5307 66.1709 73.0319 66.9396C73.1868 67.1511 73.4579 67.2769 73.6902 67.4127Z" fill="#84888C"/>
<path d="M70.2935 40.766L70.2164 40.6655C69.9452 40.7198 69.3466 41.0888 69.0757 41.24C69.4315 41.8856 69.7889 42.5555 70.1695 43.1848C70.381 43.6319 70.5949 44.0135 70.8369 44.4454L72.0316 43.7496C71.4303 42.782 70.9091 41.7374 70.2935 40.766Z" fill="#42494D"/>
<path d="M70.2932 40.7659C70.4883 41.3 71.4506 42.8888 71.7763 43.4513C71.297 43.629 71.1105 43.7219 70.6619 43.9713C70.5195 43.7342 70.3313 43.3977 70.1692 43.1848C70.3807 43.6319 70.5945 44.0135 70.8366 44.4453L72.0313 43.7496C71.43 42.782 70.9088 41.7374 70.2932 40.7659Z" fill="#676E71"/>
<path d="M73.2547 39.0056C72.8599 39.1926 72.4038 39.4495 72.0121 39.6576C72.4037 40.3155 72.7901 41.0141 73.171 41.6812C73.3528 42.0723 73.4854 42.3385 73.7012 42.7125C74.0758 42.5071 74.5127 42.3224 74.7844 42.0182C74.7846 41.8501 74.7803 41.8611 74.6986 41.7118C74.3018 41.1485 73.5743 39.6427 73.2547 39.0056Z" fill="#42494D"/>
<path d="M73.171 41.6812C73.3528 42.0723 73.4854 42.3384 73.7013 42.7124C74.0758 42.5071 74.5127 42.3223 74.7845 42.0181C74.7846 41.85 74.7803 41.8611 74.6986 41.7117C74.3537 41.8918 73.9585 42.1915 73.6126 42.1896C73.3975 42.1143 73.298 41.8855 73.171 41.6812Z" fill="#676E71"/>
<path d="M71.7352 39.7953L70.5472 40.477C71.0169 41.2844 71.4797 42.0958 71.9357 42.911L72.1456 43.2959L72.2389 43.439L72.3685 43.4654C72.7653 43.3124 73.4247 43.0852 73.2883 42.5895C73.2047 42.4825 73.1018 42.319 73.023 42.2024L71.7352 39.7953Z" fill="#42494D"/>
<path d="M73.0226 42.2023C72.6508 42.4915 72.3125 42.6369 71.9353 42.911L72.1452 43.2959L72.2385 43.439L72.3682 43.4654C72.765 43.3124 73.4243 43.0852 73.2879 42.5895C73.2043 42.4825 73.1014 42.319 73.0226 42.2023Z" fill="#676E71"/>
<path d="M77.6371 36.6641L76.3976 37.3278C76.9261 38.1788 77.4908 39.2557 77.9632 40.1451C78.3162 39.8816 78.7918 39.6197 79.1776 39.3938C78.7293 38.5209 78.1299 37.5272 77.6371 36.6641ZM76.0927 37.4805C75.7141 37.678 75.3046 37.9206 74.9292 38.1325L75.8811 39.8124C76.0917 40.2601 76.276 40.6103 76.5182 41.0425C76.8328 40.866 77.427 40.5751 77.6188 40.3055C77.5906 40.1718 77.6072 40.1959 77.5447 40.0796C77.0762 39.323 76.5357 38.2785 76.0927 37.4805Z" fill="#42494D"/>
<path d="M75.881 39.8124C76.0916 40.2602 76.2759 40.6104 76.5181 41.0426C76.8327 40.8661 77.4269 40.5752 77.6187 40.3056C77.5905 40.1718 77.6071 40.196 77.5446 40.0797C77.0665 40.2632 76.8404 40.4528 76.4481 40.7605C76.2497 40.3862 76.1173 40.164 75.881 39.8124Z" fill="#676E71"/>
<path d="M68.7773 41.39L67.6999 41.9925C68.208 42.8518 68.7077 43.7161 69.1991 44.5851L69.5291 45.2117C69.8549 45.0319 70.2661 44.8681 70.4707 44.5972C70.4556 44.4147 70.4482 44.4249 70.3505 44.2661L68.7773 41.39Z" fill="#42494D"/>
<path d="M70.3503 44.2662L70.2903 44.2765C69.838 44.3589 69.6266 44.4237 69.1989 44.5851L69.529 45.2117C69.8547 45.032 70.266 44.8682 70.4706 44.5972C70.4555 44.4148 70.4481 44.4249 70.3503 44.2662ZM8.70592 76.4458C9.05603 77.0575 11.2146 80.6368 11.9051 80.2775C12.1403 79.7914 11.8265 78.7964 11.6905 78.2753C10.9902 77.814 9.25233 76.9956 8.9293 76.3825L8.70592 76.4458Z" fill="#676E71"/>
<path d="M67.4065 42.1488L66.3852 42.6808L67.008 43.6966C67.3976 44.3943 67.9486 45.2995 68.2891 45.9944C68.5647 45.8365 69.0046 45.6411 69.1495 45.3975C69.1347 45.0965 69.0923 45.1289 68.9094 44.8323C68.3846 43.9514 67.8834 43.0566 67.4065 42.1488Z" fill="#42494D"/>
<path d="M67.0081 43.6965C67.3976 44.3943 67.9486 45.2995 68.2892 45.9943C68.5647 45.8365 69.0046 45.6411 69.1495 45.3975C69.1348 45.0965 69.0923 45.1288 68.9094 44.8323C68.6192 44.9937 68.3277 45.1528 68.0348 45.3095C67.6819 44.7728 67.3875 44.2193 67.0081 43.6965Z" fill="#676E71"/>
<path d="M38.897 62.9382C38.4952 62.1042 38.0628 61.4839 37.5371 60.7275C37.2765 60.3525 37.0639 59.297 36.6534 59.0723C36.3852 59.1395 36.1427 59.3077 35.9969 59.5428C36.007 59.8778 37.591 62.7004 37.9224 63.0425C38.3551 63.1826 38.4309 62.8423 38.7089 62.95L38.897 62.9382Z" fill="#5D6265"/>
<path d="M74.6286 38.2855L73.5575 38.8512C73.9442 39.5922 74.3058 40.2973 74.7398 41.0125L75.1798 41.8038C75.4867 41.6325 75.951 41.4161 76.1642 41.1659C76.1509 41.0063 76.1671 41.0599 76.1038 40.914C75.7608 40.4679 74.9446 38.8763 74.6286 38.2855Z" fill="#42494D"/>
<path d="M74.7398 41.0126L75.1798 41.8039C75.4866 41.6326 75.951 41.4162 76.1641 41.166C76.1509 41.0064 76.1671 41.0599 76.1038 40.9141C75.3876 41.2362 75.415 41.6636 74.7398 41.0126Z" fill="#676E71"/>
<path d="M77.5664 39.3806L78.0044 40.173C78.3583 39.9746 78.8909 39.7188 79.1455 39.4446C79.1414 39.2798 79.1559 39.3343 79.095 39.1871C78.2743 39.5695 78.2762 40.0116 77.5664 39.3806Z" fill="#676E71"/>
<path d="M81.9845 34.3738C81.7186 34.5201 80.9995 34.871 80.8598 35.0737C81.2761 35.8862 81.7888 36.7447 82.2464 37.543C82.6 37.3465 83.0663 37.1587 83.2873 36.8677C83.3273 36.62 83.2524 36.561 83.0838 36.3137L81.9845 34.3738Z" fill="#42494D"/>
<path d="M82.0148 36.986C81.757 36.5386 81.1603 35.4232 80.8595 35.0737C81.2759 35.8862 81.7886 36.7448 82.2462 37.543C82.5998 37.3465 83.0661 37.1587 83.2871 36.8678C83.327 36.62 83.2522 36.561 83.0836 36.3137C82.7027 36.659 82.4728 36.7509 82.0148 36.986Z" fill="#676E71"/>
<path d="M80.4908 35.1754C80.118 35.3757 79.7252 35.5588 79.3436 35.7435L80.5212 37.8191L80.8168 38.4077C81.1419 38.2216 81.6022 38.0288 81.8262 37.7496C81.8724 37.4942 81.8256 37.5275 81.6748 37.2333L80.4908 35.1754Z" fill="#42494D"/>
<path d="M81.6747 37.2332C81.2969 37.4985 81.066 37.4192 80.5211 37.8191L80.8167 38.4077C81.1418 38.2215 81.602 38.0287 81.8261 37.7496C81.8723 37.4941 81.8255 37.5275 81.6747 37.2332Z" fill="#676E71"/>
<path d="M79.0522 35.9135L77.9445 36.5357L78.4483 37.3583L79.5105 39.1982L80.14 38.8516C80.317 38.7552 80.3224 38.7456 80.4182 38.5704C80.4407 38.3449 80.3056 38.1861 80.1846 37.9798C79.8132 37.2878 79.4357 36.599 79.0522 35.9135Z" fill="#42494D"/>
<path d="M79.2166 38.5449C79.066 38.2867 78.6429 37.4682 78.4483 37.3583L79.5106 39.1982L80.14 38.8516C80.317 38.7551 80.3224 38.7455 80.4182 38.5703C80.4408 38.3449 80.3057 38.186 80.1846 37.9798C79.9732 38.2658 79.5626 38.3919 79.2166 38.5449Z" fill="#676E71"/>
<path d="M83.4717 33.587L82.3039 34.2043L83.167 35.6867C83.3305 36.0392 83.4756 36.3273 83.6608 36.6689C84.0212 36.4818 84.464 36.3108 84.6848 35.9945C84.7048 35.8087 84.6543 35.766 84.562 35.5986L83.4717 33.587Z" fill="#42494D"/>
<path d="M83.1671 35.6866C83.3306 36.0392 83.4756 36.3273 83.6609 36.6689C84.0212 36.4818 84.4641 36.3108 84.6848 35.9945C84.7049 35.8087 84.6544 35.7659 84.5621 35.5986C84.2341 35.7678 83.7858 36.1468 83.4926 36.0621C83.3532 36.0218 83.2708 35.8353 83.1671 35.6866Z" fill="#676E71"/>
<path d="M34.5305 65.0116C33.182 65.7625 31.7972 66.5912 30.4565 67.3676L30.8702 68.1391L34.1133 66.2435C34.2329 65.8143 34.3785 65.4288 34.5305 65.0116Z" fill="#42494D"/>
<path d="M18.8978 85.5881C17.9942 86.1075 17.0969 86.6364 16.2049 87.1746C16.5463 87.7177 17.0243 88.3528 17.4028 88.8838C17.4761 88.925 17.4319 88.9141 17.5386 88.8912C17.8708 88.2717 18.6039 86.3155 18.8978 85.5881Z" fill="#42494D"/>
<path d="M57.8108 52.4191L56.1324 53.4372C56.4267 53.9417 56.8011 54.629 57.1262 55.0956C57.2408 55.0557 57.2918 54.8801 57.3677 54.7342C57.8911 54.1002 58.2815 54.2352 58.9662 54.4471L57.8108 52.4191Z" fill="#42494D"/>
<path d="M86.3177 32.0446L85.1515 32.6975L86.4768 34.9669C86.8712 34.777 87.2377 34.5562 87.6157 34.3361C87.1897 33.5618 86.7749 32.8014 86.3177 32.0446ZM84.8539 32.8378L83.7894 33.438C84.1397 34.1674 84.6921 35.0979 85.0964 35.821L86.2223 35.1708C85.9049 34.6446 85.591 34.1163 85.2807 33.5859L84.8539 32.8378Z" fill="#42494D"/>
<path d="M83.7894 33.4379C84.1397 34.1673 84.6922 35.0978 85.0965 35.8209L86.2224 35.1708C85.9049 34.6445 85.5911 34.1162 85.2808 33.5858C85.4241 33.952 85.7391 34.5045 85.9336 34.8691C85.4949 35.0113 85.2956 35.1083 84.8837 35.3092C84.5896 34.744 84.1676 33.9341 83.7894 33.4379Z" fill="#676E71"/>
<path d="M51.0064 62.3321L49.852 63.0334C50.5354 64.0775 51.1779 65.1478 51.778 66.242L52.3528 65.8698C52.6444 65.7185 52.9967 65.5878 53.104 65.2954C53.0173 65.1304 52.9896 65.1441 52.8142 65.0613C51.3234 64.833 50.5738 63.8039 51.0064 62.3321Z" fill="#42494D"/>
<path d="M52.8096 65.1346C52.4866 65.1285 52.3347 65.128 52.1364 65.4196L52.1539 65.541C52.3052 65.6354 52.2926 65.6365 52.47 65.6315L52.3531 65.8699C52.6447 65.7186 52.997 65.5879 53.1043 65.2955C53.0176 65.1305 52.9899 65.1442 52.8145 65.0614L52.8096 65.1346Z" fill="black"/>
<path d="M52.8145 65.0613L52.8096 65.1346L52.8864 65.2944C52.8029 65.4834 52.658 65.5284 52.47 65.6315L52.3532 65.8699C52.6448 65.7185 52.997 65.5879 53.1043 65.2954C53.0176 65.1305 52.9899 65.1442 52.8145 65.0613Z" fill="#2D3134"/>
<path d="M87.7917 31.259L86.6419 31.897C87.0581 32.6233 87.4843 33.3961 87.9128 34.1106C88.1688 34.0182 88.8718 33.6978 88.9362 33.4311C88.9643 33.3149 88.8705 33.215 88.7987 33.0844C88.4499 32.4833 88.1141 31.8747 87.7917 31.259Z" fill="#42494D"/>
<path d="M88.7987 33.0844C88.4452 33.7089 88.0409 33.3181 87.9128 34.1107C88.1688 34.0183 88.8717 33.6978 88.9361 33.4311C88.9642 33.3149 88.8704 33.215 88.7987 33.0844Z" fill="#676E71"/>
<path d="M89.1647 30.5173C88.8151 30.7121 88.4597 30.9259 88.1131 31.1286L88.7185 32.1722C88.9033 32.5745 89.0868 32.9189 89.2969 33.3088C89.6472 33.1176 90.0768 32.9563 90.2857 32.6644C90.2968 32.3935 90.272 32.4483 90.1198 32.1694L89.1647 30.5173Z" fill="#42494D"/>
<path d="M88.7188 32.1722C88.9035 32.5745 89.0871 32.9189 89.2972 33.3088C89.6474 33.1176 90.077 32.9563 90.2859 32.6644C90.2971 32.3935 90.2722 32.4483 90.12 32.1694L90.1098 32.3409C89.9799 32.5865 89.4913 32.8162 89.2227 32.9694C89.0568 32.6842 88.9003 32.4449 88.7188 32.1722Z" fill="#676E71"/>
<path d="M60.0852 61.8024L59.995 61.9597C60.0918 62.4769 61.741 64.4654 62.1516 64.9864C63.572 66.786 65.273 68.4422 66.9581 69.9931C67.6099 70.5928 68.3569 71.3187 69.08 71.8223L69.1479 71.739C68.963 71.4482 67.6374 70.2908 67.2889 69.9846C64.4534 67.4875 62.197 64.9377 60.0852 61.8024Z" fill="#84888C"/>
<path d="M93.2207 28.3197C92.8831 28.4852 92.4208 28.6324 92.2163 28.9048C92.1986 29.1613 92.2342 29.1175 92.403 29.3897L93.3085 30.9829C93.6695 30.777 94.046 30.6299 94.2806 30.3211C94.2918 30.0834 94.3028 30.2035 94.1614 29.9494L93.2207 28.3197Z" fill="#42494D"/>
<path d="M93.1927 30.6404C92.9765 30.2374 92.7174 29.7019 92.4032 29.3898L93.3088 30.983C93.6697 30.7771 94.0463 30.6299 94.2808 30.3212C94.292 30.0835 94.303 30.2036 94.1617 29.9495C94.1211 30.1917 93.4372 30.5019 93.1927 30.6404Z" fill="#676E71"/>
<path d="M91.8063 29.0628L90.7524 29.6218L91.1038 30.2186L91.9612 31.7215C92.2386 31.5768 92.7412 31.3789 92.9018 31.1475C92.898 30.8483 92.8135 30.8041 92.65 30.5216L91.8063 29.0628Z" fill="#42494D"/>
<path d="M91.8109 31.3005C91.5965 30.9251 91.4005 30.5252 91.1037 30.2186L91.9611 31.7215C92.2385 31.5768 92.7411 31.3789 92.9018 31.1475C92.8979 30.8483 92.8134 30.804 92.6499 30.5216C92.7015 30.6782 92.6998 30.6727 92.7025 30.8378C92.4995 31.06 92.1097 31.1721 91.8109 31.3005Z" fill="#676E71"/>
<path d="M90.4636 29.7794L89.5168 30.3307C89.7444 30.8861 90.3563 31.8945 90.681 32.4604C90.999 32.3086 91.4512 32.1593 91.5838 31.8551C91.5526 31.6494 91.5152 31.6209 91.405 31.4455L90.4636 29.7794Z" fill="#42494D"/>
<path d="M89.5166 30.3308C89.7442 30.8862 90.3561 31.8946 90.6808 32.4605C90.9987 32.3086 91.4509 32.1594 91.5835 31.8551C91.5523 31.6495 91.5149 31.621 91.4047 31.4456C91.4016 31.5848 91.404 31.5428 91.3592 31.6787C91.1097 31.8492 90.7915 31.8864 90.4876 31.9519C90.1743 31.4067 89.8668 30.8525 89.5166 30.3308Z" fill="#676E71"/>
<path d="M56.854 55.6559C56.6826 55.7046 55.5353 56.4451 55.3588 56.5988C55.4586 56.7276 55.5044 56.7854 55.5827 56.929L55.6387 57.0327C56.0004 57.059 57.3441 56.2261 57.7774 56.0068L57.8011 55.9553C58.0026 55.893 58.0783 55.9452 58.2389 55.9059C58.7208 55.7893 59.126 55.3953 59.0257 54.8638C58.6242 54.6052 57.6339 55.6496 56.854 55.6559ZM38.2176 56.1073C37.8555 56.3402 37.361 56.5648 37.381 57.0335C37.4287 57.0987 37.6661 57.3278 37.7478 57.2897C38.8214 56.7901 39.7079 56.1619 40.8366 55.735C41.118 55.6035 41.5871 55.4327 41.7286 55.1795L41.68 55.0484L41.5219 54.997C41.0675 55.1328 39.5607 56.0155 39.0594 56.294C38.716 56.1212 38.5958 56.1301 38.2176 56.1073Z" fill="#42494D"/>
<path d="M67.6142 45.5158C67.2232 44.8378 66.5858 43.5587 66.1258 42.9987C65.9417 42.979 65.9436 43.0304 65.7433 43.1598C65.9078 43.6119 67.2075 45.8455 67.5082 46.257C67.7069 46.3186 67.6063 46.3148 67.8202 46.247C67.9867 45.9989 67.7597 45.7675 67.6142 45.5158Z" fill="#42494D"/>
<path d="M65.7432 43.1598C65.9078 43.6119 67.2075 45.8455 67.5082 46.257C67.7069 46.3186 67.6063 46.3148 67.8201 46.247C67.9866 45.9989 67.7596 45.7675 67.6142 45.5158C67.4205 45.6419 67.4398 45.6624 67.2246 45.6825C66.7457 45.0511 66.2851 43.8196 65.7432 43.1598Z" fill="#676E71"/>
<path d="M109.045 20.5963C108.849 20.2345 108.394 19.3055 107.873 19.4988C107.75 19.8885 108.134 20.2749 108.359 20.5524C108.532 20.8869 108.752 21.2829 108.91 21.6178C109.007 21.8957 108.991 21.9498 109.265 21.9612C109.663 21.6013 109.463 21.3124 109.234 20.9294L109.045 20.5963Z" fill="#42494D"/>
<path d="M109.045 20.5963C108.908 20.7098 108.823 20.7963 108.655 20.8616C108.561 20.7474 108.471 20.6486 108.359 20.5524C108.532 20.8869 108.752 21.2829 108.91 21.6178C109.007 21.8958 108.991 21.9498 109.265 21.9612C109.663 21.6013 109.463 21.3124 109.234 20.9294L109.045 20.5963Z" fill="#676E71"/>
<path d="M27.8259 75.8471L26.8433 76.4144C26.9935 76.7082 27.1338 76.9498 27.3016 77.2311L28.3189 76.7064L27.8259 75.8471Z" fill="#242B2F"/>
<path d="M40.6709 57.2307C40.5172 57.3167 40.0866 57.5905 39.9536 57.5891C40.1199 56.9582 41.796 56.5697 41.7953 56.0728C41.6395 55.8498 41.7371 55.8984 41.5282 55.858C41.0817 56.1618 40.7856 56.5814 40.3639 56.9267C40.1155 57.1301 39.8284 57.182 39.6832 57.4155C39.7394 57.5464 39.7928 57.675 39.8557 57.8028C40.2007 57.6032 40.3905 57.518 40.6709 57.2307Z" fill="#42494D"/>
<path d="M58.0818 60.2978C58.2785 60.9159 57.84 62.0934 58.2001 62.334C58.3046 62.3302 58.4826 62.3303 58.5684 62.2807C59.1165 61.9627 58.2505 60.6034 58.0818 60.2978Z" fill="#42494D"/>
<path d="M52.7119 61.141C52.3944 61.3413 52.3485 61.2966 52.218 61.577C52.2512 62.1905 52.7194 62.5807 53.1547 63.0278L53.2048 63.0128C52.7346 62.2734 52.7437 62.0052 52.7119 61.141Z" fill="#42494D"/>
<path d="M109.614 19.5486C109.399 19.825 109.405 19.7313 109.402 20.0162C109.631 20.3496 109.988 21.0943 110.287 21.2245C110.359 20.8632 109.81 19.9222 109.614 19.5486Z" fill="#676E71"/>
<path d="M62.864 44.6146C62.8218 45.2437 63.6925 46.5841 64.0955 47.0542L64.1687 47.0195C63.7491 46.1436 63.3791 45.4364 62.864 44.6146Z" fill="#626669"/>
<path d="M38.6264 57.3586C38.4024 57.4676 38.1354 57.5718 37.9674 57.747C38.3085 57.7657 39.4637 57.0807 39.8238 56.875C40.0472 56.741 40.1696 56.6541 40.3759 56.4944L40.3563 56.4523C39.7624 56.7113 39.1978 57.0474 38.6264 57.3586Z" fill="#42494D"/>
<path d="M38.8972 62.9382L38.7091 62.95C38.8415 63.3549 39.565 64.4713 39.8458 64.8143C39.8308 64.4602 39.1129 63.3052 38.8972 62.9382Z" fill="#5D6265"/>
<path d="M25.3958 73.0385C25.2224 73.1386 25.1209 73.1732 25.0255 73.3482C25.0233 73.5668 25.2184 73.7883 25.3525 73.9816C25.5287 73.9023 25.628 73.8774 25.7498 73.7267C25.7396 73.4518 25.5714 73.2998 25.3958 73.0385Z" fill="#242B2F"/>
<path d="M55.2258 56.6602C54.9438 56.8068 54.7124 56.8801 54.5994 57.1587C54.7032 57.3773 54.6765 57.3123 54.9011 57.4695C55.2144 57.3289 55.2539 57.3772 55.384 57.1405C55.335 56.9792 55.2822 56.8195 55.2258 56.6602Z" fill="#2F3437"/>
<path d="M109.614 19.5485C109.467 19.2962 109.396 19.1097 109.146 18.9694L109.026 18.9662C108.905 19.2435 109.026 19.4465 109.175 19.6722C109.249 19.7876 109.325 19.9022 109.402 20.0162C109.405 19.7312 109.399 19.8249 109.614 19.5485Z" fill="#42494D"/>
<path d="M101.546 26.9074C101.295 27.0614 101.226 27.0671 101.168 27.3434C101.267 27.5597 101.357 27.5866 101.561 27.7103C101.7 27.6686 101.691 27.6738 101.789 27.5662C101.813 27.3259 101.666 27.1271 101.546 26.9074Z" fill="#676E71"/>
<path d="M57.4117 52.1507C56.9995 52.3839 56.398 52.7005 56.0409 52.9794L56.0514 53.0848L56.1573 53.0699C56.5865 52.826 57.2022 52.5006 57.5803 52.2083L57.5757 52.1238L57.4117 52.1507Z" fill="#2F3437"/>
<path d="M38.8137 49.0314C38.5482 49.1529 38.3546 49.2195 38.367 49.5356C38.4654 49.5748 38.4569 49.5574 38.5773 49.5489C38.7738 49.4406 38.9309 49.3738 39.0829 49.2082C39.0127 49.0519 39.0556 49.1248 38.8137 49.0314Z" fill="#676E71"/>
<path d="M58.0521 54.5607L57.9977 54.5844C57.7208 54.7063 57.6001 54.7505 57.4959 55.0187L57.5589 55.1587L57.7264 55.0643C57.9342 54.9459 58.1224 54.8767 58.1785 54.6725L58.0521 54.5607Z" fill="#2F3437"/>
<path d="M36.1876 60.7171C36.1256 61.0841 36.7272 61.8514 36.9727 62.1306L37.0068 62.1054C36.727 61.5912 36.5073 61.2052 36.1876 60.7171Z" fill="#5D6265"/>
<path d="M95.5245 18.736C93.5687 18.0102 93.5582 20.3391 93.298 21.7389C93.1195 22.7663 92.5109 25.5806 92.6144 26.3791L92.6183 26.4073C93.3163 27.3707 94.2329 28.5449 94.8147 29.5573C95.0362 29.0265 95.21 29.256 95.1745 28.5614C94.8784 28.0178 94.0141 27.2372 94.3802 26.7207C95.3984 26.212 96.3975 25.5979 97.3705 25.0055L98.0502 25.1634C98.4173 25.6518 98.709 25.9803 99.0007 26.5226L99.1654 26.8098L99.4849 27.5037C100.403 26.8254 100.82 27.0035 100.077 25.8586C99.799 25.2049 99.7904 24.921 99.04 24.7566C98.6546 24.2232 98.1752 23.328 97.8302 22.7374C97.0494 21.4109 96.2805 20.0771 95.5245 18.736ZM94.8753 21.5296C95.3268 22.3497 95.4719 23.0427 96.5237 22.5682L96.6315 22.5206L96.6984 22.4899L97.4411 23.7334C96.6505 24.2009 95.8561 24.6628 95.0593 25.1198L93.368 26.0906C93.4021 25.5349 93.8451 22.0701 94.1562 21.8817L94.8753 21.5296ZM95.9885 20.8091C96.2446 21.2691 96.4469 21.6473 96.6694 22.1233L95.9355 22.4049C95.6968 22.2516 95.362 21.5659 95.2041 21.2767L95.9885 20.8091Z" fill="black"/>
<path fill-rule="evenodd" clip-rule="evenodd" d="M95.5247 18.7359C93.5687 18.01 93.5584 20.3393 93.2983 21.7391C93.1198 22.7664 92.511 25.5805 92.6144 26.379L92.6178 26.4077C93.3159 27.3711 94.233 28.5444 94.8147 29.5569C94.9543 29.9826 94.7356 29.9567 94.7728 30.4102C94.9141 30.5821 95.0131 30.5802 95.2027 30.6839L95.256 30.6833L95.3082 30.7321C95.5746 30.9755 95.9153 31.2026 96.2476 30.9164C96.2987 30.5482 96.0507 30.2627 95.8421 29.9739L95.8822 29.8261C96.0057 29.786 95.9657 29.824 96.0184 29.7318C95.6507 29.1692 95.5948 29.0836 95.1747 28.5613C94.8786 28.0176 94.0143 27.2375 94.3805 26.721C95.3988 26.2123 96.3976 25.5981 97.3705 25.0058L98.0507 25.1637C98.4178 25.6521 98.7094 25.9802 99.0011 26.5225L99.1654 26.8097L99.4845 27.5034C100.403 26.8251 100.821 27.0039 100.077 25.859C99.7992 25.205 99.7909 24.9211 99.0403 24.7566C98.6549 24.2232 98.1749 23.3281 97.8299 22.7374C97.049 21.4109 96.2807 20.077 95.5247 18.7359ZM93.9988 21.505C94.4724 21.2853 95.8215 20.4478 96.1442 20.4929C96.4887 20.8726 98.6803 24.8519 98.7449 25.2675L98.5978 25.3818L98.461 25.3547C98.1464 24.8675 98.0319 24.5008 97.6641 23.9507C97.0584 24.5801 94.718 25.5864 93.8977 26.2656C93.8464 26.3303 93.8841 26.2964 93.7607 26.3332C93.6516 26.251 93.5408 26.1709 93.4285 26.0931C93.33 26.5355 94.0004 27.0801 94.0617 27.5266L93.9524 27.5714C93.5737 27.3954 93.2319 26.587 93.0047 26.163C92.987 25.1925 93.4063 23.2627 93.5583 22.2311C93.6171 21.8326 93.6761 21.7108 93.9988 21.505Z" fill="#676E71"/>
<path d="M86.0336 34.1866L86.4727 34.9785C86.8026 34.7939 87.3813 34.5979 87.6147 34.336C87.606 34.1738 87.5404 34.1881 87.4783 34.0416C86.7109 34.3932 86.7258 34.8278 86.0336 34.1866Z" fill="#676E71"/>
<path d="M38.8674 57.879C39.0051 57.6834 38.9154 57.7564 39.166 57.6774C39.2369 57.6944 39.3866 57.7109 39.4268 57.7737C39.8081 58.3685 39.999 59.0886 40.4077 59.6893C41.2021 60.2348 41.8141 60.3655 42.7639 60.3858C43.2265 60.3954 43.216 60.3062 43.5521 60.5791C43.3672 60.6389 43.1378 60.6782 43.0491 60.8661C42.1733 60.9055 41.5593 60.8644 40.7326 60.5764C40.5414 60.5011 40.2097 60.3564 40.0826 60.2006C39.662 59.6837 38.8751 58.5232 38.8674 57.879Z" fill="#42494D"/>
<path d="M56.2049 59.0235C56.5046 58.7848 56.7043 58.7034 57.0673 58.609C57.2513 58.9746 57.4271 59.2767 57.6334 59.6286C57.1154 59.2927 56.801 59.1974 56.2049 59.0235Z" fill="#42494D"/>
<path d="M37.0696 58.6731C37.3994 59.1226 37.8647 60.1245 38.1749 60.6657C38.7848 61.7301 39.5223 62.8233 40.0921 63.8946C40.3068 63.9781 40.211 63.9864 40.3979 63.938L40.5224 64.1829C40.7815 64.2151 41.6405 63.768 42.0448 63.6615C43.2639 63.3389 45.0845 63.6565 45.8444 64.7368L45.8969 64.8102L45.9272 64.8547C45.0948 65.3739 45.3793 64.9939 44.7018 64.6093C43.4159 63.8799 42.0751 64.1032 40.9061 64.9413L40.7264 65.044L40.6037 64.9896C40.4456 64.7949 39.8541 63.835 39.739 63.5956C39.1932 62.4627 37.1464 59.7931 37.0696 58.6731Z" fill="#42494D"/>
<path d="M64.0777 49.1206C64.1314 49.0987 64.1888 49.0877 64.2467 49.088C64.3046 49.0883 64.3619 49.1 64.4152 49.1224C64.4686 49.1448 64.517 49.1775 64.5578 49.2186C64.5985 49.2597 64.6307 49.3085 64.6526 49.3621C64.6745 49.4157 64.6856 49.473 64.6854 49.5309C64.683 49.6467 64.6351 49.7568 64.5522 49.8376C64.4693 49.9185 64.358 49.9634 64.2422 49.9629C64.1264 49.9623 64.0155 49.9163 63.9333 49.8347C63.8512 49.7531 63.8045 49.6424 63.8032 49.5267C63.8035 49.4687 63.8152 49.4114 63.8376 49.358C63.8601 49.3046 63.8928 49.2561 63.934 49.2154C63.9752 49.1746 64.024 49.1424 64.0777 49.1206Z" fill="#FFA353"/>
<path d="M99.6715 27.7309C100.136 27.4478 100.454 27.2342 100.893 26.9125C101.063 27.7389 100.965 28.2615 100.104 28.4813C99.96 28.2369 99.8022 27.9809 99.6715 27.7309Z" fill="#676E71"/>
</svg>
