<svg width="128" height="111" viewBox="0 0 128 111" fill="none" xmlns="http://www.w3.org/2000/svg">
<path d="M38.0038 49.3015L38.003 49.302C37.8812 49.391 37.7968 49.5022 37.7496 49.6287C37.7039 49.7513 37.6987 49.8724 37.7064 49.9739C37.7141 50.0739 37.7358 50.1696 37.7536 50.2432C37.7635 50.2837 37.7707 50.3168 37.7772 50.3446L37.776 50.3464C37.7341 50.4032 37.6787 50.4683 37.6079 50.5551C37.5435 50.634 37.4672 50.7295 37.41 50.8238C37.3813 50.8713 37.3514 50.9282 37.3307 50.9892C37.3137 51.0396 37.2985 51.1104 37.3056 51.1897C37.2985 51.4919 37.3481 51.8203 37.4016 52.1198C37.459 52.441 37.5184 52.7265 37.5406 52.9778C37.6357 54.0492 37.8043 55.1907 37.8005 56.2072C37.5384 56.3507 37.332 56.4861 37.179 56.6247C36.9919 56.7942 36.8684 56.9817 36.829 57.2023C36.7911 57.4158 36.8408 57.6172 36.9067 57.7957C36.9654 57.9546 37.0544 58.1373 37.1366 58.317C37.1269 58.3334 37.1107 58.3576 37.0836 58.3893C36.9972 58.4903 36.8548 58.6109 36.6799 58.7408C36.5079 58.8684 36.3227 58.992 36.1562 59.1052C36.003 59.2093 35.8392 59.3216 35.75 59.4096C35.682 59.4767 35.6305 59.5196 35.5762 59.5674C35.525 59.6125 35.4607 59.6708 35.407 59.7509C35.3195 59.8813 35.2831 60.0383 35.2568 60.2446C33.3819 61.3027 30.6002 62.8297 28.6526 63.9211C28.5858 63.9003 28.4971 63.8749 28.4025 63.8512C28.302 63.8261 28.1865 63.8012 28.0781 63.7893C27.9863 63.7793 27.8374 63.7697 27.7097 63.825C27.2786 64.0119 26.8149 64.2889 26.442 64.4926L26.4403 64.4936L23.0107 66.3835L23.0082 66.3849L7.78816 74.9411C7.64749 75.0185 7.45058 75.097 7.22647 75.183C7.01252 75.2651 6.77297 75.3542 6.579 75.4463C5.724 75.8509 5.19616 76.3599 4.95145 76.9555C4.70715 77.5503 4.76782 78.1783 4.97445 78.7746C5.3811 79.9477 6.40378 81.1286 7.14329 81.9901C8.91888 84.0579 10.4835 86.1589 11.8478 88.498C12.1992 89.1002 12.7052 90.1708 13.3409 90.9434C13.6629 91.3347 14.043 91.683 14.4888 91.8672C14.9489 92.0571 15.458 92.0631 15.9975 91.8046C16.5963 91.5177 17.4358 91.0572 17.9113 90.4573L17.9382 90.4237L17.9546 90.3838C19.1427 87.4515 20.4212 84.565 21.6766 81.6529C21.7744 81.8233 21.8843 82.0071 22.0003 82.1764C22.1321 82.3685 22.2821 82.5607 22.4458 82.7097C22.6049 82.8543 22.8103 82.9892 23.0508 83.0076L23.1629 83.0162L23.2533 82.9482C23.3758 82.8565 23.4948 82.7176 23.6053 82.5657C23.7191 82.4092 23.8381 82.2192 23.9587 82.0098C24.2002 81.5908 24.4576 81.0759 24.7013 80.5538C25.1566 79.5785 25.5727 78.5578 25.7675 78.045L26.4554 77.6388C26.5011 77.7194 26.5491 77.8098 26.601 77.893C26.6644 77.9946 26.7355 78.1004 26.8073 78.1878C26.8431 78.2314 26.8841 78.2759 26.9277 78.3144C26.9685 78.3504 27.0284 78.3966 27.1045 78.4233L27.1048 78.4219C27.2878 78.4861 27.5025 78.4476 27.6648 78.3997C27.8443 78.3467 28.0362 78.2597 28.2111 78.1565C28.3851 78.0538 28.5567 77.9266 28.6859 77.7854C28.8041 77.656 28.9396 77.4564 28.9166 77.2203L28.9175 77.2198C28.907 77.1149 28.8667 77.0044 28.8283 76.9149C28.7873 76.8195 28.7348 76.7187 28.6826 76.6235C28.6438 76.5528 28.6003 76.4814 28.5607 76.4143C28.8825 76.2491 29.1511 76.1106 29.3556 75.9824C29.6102 75.8228 29.839 75.6392 29.9293 75.3726C30.0229 75.0961 29.9399 74.8179 29.8098 74.5485C29.7068 74.3352 29.5495 74.0837 29.3547 73.7818C29.8947 73.4748 30.4206 73.1757 30.9559 72.8167L31.0707 72.7403L31.0861 72.6029C31.1753 71.8511 31.121 71.4479 31.0112 70.7798C31.1466 70.6786 31.2641 70.5868 31.356 70.4962C31.4832 70.3709 31.5889 70.2276 31.6286 70.0445C31.6676 69.8639 31.6326 69.6891 31.5759 69.5235C31.542 69.4246 31.4948 69.3153 31.4399 69.1961C32.4768 68.5692 33.5468 67.9521 34.5955 67.3336L34.6939 67.2756L34.7289 67.1664C34.8869 66.6715 35.0353 66.1812 35.2216 65.7227C35.9676 65.2405 36.7072 64.7992 37.5061 64.4218C37.8618 64.2538 38.0491 64.2748 38.1586 64.3236C38.2853 64.3802 38.4011 64.5122 38.5391 64.7501C38.6064 64.8662 38.6692 64.9899 38.7429 65.1285C38.8146 65.2634 38.8944 65.4087 38.986 65.5475C39.1693 65.8256 39.4162 66.1023 39.7876 66.2563L39.8621 66.2877L39.9415 66.2768C40.0349 66.2645 40.1114 66.2529 40.1845 66.2504C40.2628 66.2478 40.2813 66.258 40.2731 66.2534C40.4516 66.3533 40.6528 66.3176 40.7801 66.2821C40.9237 66.2419 41.0767 66.1719 41.2168 66.101C41.3583 66.0293 41.5048 65.9471 41.6313 65.8775C41.7635 65.8047 41.8714 65.7473 41.9535 65.7129C42.2408 65.5924 42.5439 65.5127 42.8524 65.4769L42.8528 65.4756C43.5377 65.3995 44.1104 65.5712 44.633 66.0062C45.2182 66.4942 45.389 67.1169 45.3847 67.8297C45.3825 68.1902 45.3347 68.5672 45.275 68.9541C45.2165 69.3329 45.1442 69.7352 45.1003 70.1105L45.0994 70.111C44.8848 71.9883 44.7201 73.8715 44.6044 75.7575L44.6036 75.758C44.5804 76.1532 44.5052 77.0127 44.511 77.8243C44.514 78.2303 44.5369 78.6397 44.6012 78.9844C44.6334 79.1569 44.6776 79.3231 44.7392 79.4675C44.7998 79.6096 44.8864 79.7505 45.0126 79.8531L45.0595 79.8915L45.1179 79.9085C45.2817 79.9559 45.5012 79.9588 45.7273 79.9446C45.9636 79.9297 46.2454 79.8936 46.5538 79.8429C47.1713 79.7414 47.9173 79.5776 48.6637 79.3938C50.1505 79.0276 51.6763 78.5707 52.2282 78.3451C52.5961 78.1946 52.8853 78.0135 53.0756 77.7972C53.2726 77.573 53.3662 77.306 53.3152 77.0228C53.2665 76.7536 53.0961 76.5182 52.8729 76.3231C52.6842 76.1582 52.4415 76.0079 52.1577 75.8734C52.0769 74.4137 51.9828 72.928 51.9363 71.4782C52.2271 71.3064 52.4568 71.1372 52.6149 70.9602C52.8054 70.7467 52.9176 70.4955 52.8687 70.2182C52.8226 69.9582 52.646 69.7482 52.4405 69.578C52.2651 69.4329 52.0405 69.2939 51.7826 69.1572C51.761 68.6497 51.7348 68.1724 51.6928 67.6619C52.5763 67.1611 53.975 66.2425 55.3263 65.4085C56.0536 64.9597 56.7726 64.5328 57.4058 64.1978C58.0471 63.8585 58.5742 63.6288 58.9265 63.5544C59.1943 63.4975 59.3917 63.4226 59.5961 63.3098L59.7595 63.5538L59.76 63.5546C61.8827 66.684 64.2984 69.1999 67.1055 71.6974C67.3056 71.8754 67.6037 72.1634 67.8925 72.4101C68.1492 72.6294 68.438 72.8521 68.7237 72.9981L68.8462 73.056C68.9036 73.0808 68.9565 73.0833 68.9795 73.0839C69.0077 73.0846 69.0341 73.0825 69.0541 73.0803C69.0942 73.0757 69.1382 73.0669 69.1771 73.0589C69.2687 73.0399 69.3418 73.0218 69.4432 73.0022C69.5374 72.984 69.6228 72.9718 69.692 72.9702C69.7616 72.9687 69.78 72.9788 69.7723 72.9746L69.8114 72.9994L69.8615 73.0099C69.8711 73.0119 69.8817 73.0137 69.8947 73.0167C69.9068 73.0195 69.9221 73.0235 69.9378 73.0268L70.0982 73.0605L70.2132 72.9433C70.5667 72.5857 71.882 71.1365 73.1363 69.7153C73.765 69.003 74.3817 68.2941 74.8582 67.7289C75.0961 67.4465 75.3006 67.1981 75.4546 67.0022C75.5995 66.8181 75.723 66.6525 75.7731 66.55L75.8097 66.4747L75.8021 66.3911C75.7828 66.1833 75.6697 65.9763 75.5507 65.8033C75.4255 65.6215 75.2636 65.434 75.0971 65.2579C74.7666 64.9085 74.3799 64.5642 74.1808 64.3739C71.2848 61.6085 69.4553 59.7407 67.3265 56.4922C67.3331 56.4869 67.3405 56.4822 67.347 56.477C67.4204 56.4177 67.5003 56.3486 67.5674 56.2629C67.7187 56.0693 67.768 55.8432 67.7389 55.5482L67.7314 55.4747L67.6909 55.4124C67.5446 55.1908 67.3818 55.0586 67.1847 54.9751C67.0522 54.919 66.8974 54.8844 66.7542 54.8526C66.2023 53.9947 65.5556 52.9851 65.1614 52.1288C65.092 51.9779 65.0749 51.8567 65.0816 51.7543C65.0886 51.6494 65.1219 51.5441 65.1801 51.4268C65.2405 51.305 65.3186 51.1856 65.411 51.0398C65.4993 50.9004 65.5981 50.7403 65.675 50.5615L65.6754 50.5601C65.6978 50.5075 65.7041 50.4562 65.7042 50.4127C65.7489 50.4264 65.7937 50.439 65.8388 50.4466C66.0447 50.4814 66.2303 50.448 66.3978 50.3798C66.5592 50.3141 66.7063 50.2157 66.8381 50.1189C66.9834 50.0121 67.0927 49.9229 67.2409 49.8186C67.3011 49.7763 67.3558 49.7384 67.4069 49.7037C67.4572 49.6695 67.5061 49.636 67.5506 49.6049C67.6394 49.5428 67.7257 49.4791 67.8039 49.4011C67.8775 49.3278 67.9363 49.2468 67.9908 49.1545C68.0172 49.1728 68.0434 49.1923 68.0723 49.2078C68.2639 49.3106 68.4752 49.3293 68.7147 49.2892C69.1714 49.2124 69.6222 49.1036 70.0578 49.0042C70.3876 48.9289 70.7115 48.8583 71.036 48.8059L71.3614 48.7601C71.4704 48.7473 71.5487 48.6908 71.5956 48.6463C71.6435 48.6008 71.6802 48.5481 71.7069 48.5031C71.7603 48.4131 71.8031 48.3054 71.8363 48.2097C71.8585 48.1457 71.878 48.0755 71.897 48.01C72.022 48.0356 72.1373 48.0561 72.2416 48.0659C72.4218 48.0829 72.6047 48.0744 72.7761 47.9918C72.9503 47.9079 73.071 47.7674 73.1676 47.6034C73.229 47.4992 73.2845 47.3746 73.3418 47.2333C73.6333 47.2867 73.8681 47.2912 74.0577 47.2271C74.3239 47.1371 74.4385 46.9407 74.5025 46.7808C74.5288 46.7151 74.5577 46.6245 74.5736 46.5797C74.594 46.5224 74.6125 46.4808 74.6334 46.447C74.6601 46.4042 74.7019 46.3562 74.8069 46.3198C75.1297 46.4118 75.4024 46.4241 75.6233 46.3041C75.8613 46.1747 75.9518 45.9324 76.0029 45.8053C76.0671 45.6453 76.1003 45.5709 76.1607 45.5201C76.2055 45.4826 76.3133 45.4219 76.6095 45.4516C76.8024 45.471 76.9731 45.4215 77.1131 45.3221C77.2459 45.2279 77.3366 45.0994 77.4001 44.9794C77.4635 44.8595 77.5128 44.7206 77.5517 44.5953C77.5749 44.6015 77.5978 44.6096 77.6207 44.6152C77.745 44.6455 77.888 44.6711 78.0322 44.664C78.1815 44.6566 78.3405 44.6141 78.481 44.5019C78.585 44.4188 78.6637 44.309 78.7225 44.1798L78.7752 44.0445C78.8103 43.936 78.844 43.8801 78.8656 43.8536C78.8821 43.8335 78.8911 43.8303 78.8935 43.8296C78.9004 43.8274 78.9201 43.8236 78.9647 43.828C79.0152 43.8329 79.0605 43.8435 79.142 43.8576C79.2785 43.8812 79.518 43.9181 79.7465 43.7758C79.9691 43.6369 80.1089 43.3754 80.2056 43.0123L80.2054 43.0101C80.2101 43.0061 80.2144 43.0025 80.2184 42.9993C80.2204 42.9976 80.2224 42.9961 80.2238 42.995C80.2248 42.9948 80.2262 42.9954 80.2273 42.9953C80.2386 42.9928 80.2517 42.9901 80.2688 42.9871C80.502 43.0589 80.7119 43.0861 80.8963 43.0251C81.1218 42.9504 81.2298 42.7767 81.2916 42.6492C81.4123 42.4 81.426 42.2867 81.5476 42.2138C81.8364 42.2539 82.0687 42.2499 82.2534 42.1784C82.488 42.0876 82.595 41.9148 82.652 41.7634C82.6769 41.6973 82.6956 41.6248 82.7084 41.5797C82.7231 41.5279 82.7344 41.4941 82.7471 41.4672C82.7564 41.4476 82.7664 41.4299 82.7855 41.4145C83.0323 41.4905 83.2467 41.5192 83.432 41.4698C83.6757 41.4047 83.7971 41.2321 83.8664 41.0893C83.8984 41.0233 83.9252 40.9512 83.9451 40.8995C83.9672 40.8422 83.9857 40.7984 84.0059 40.7607C84.028 40.7194 84.0501 40.6896 84.0795 40.6675C84.2638 40.7048 84.4896 40.734 84.6985 40.6811C84.834 40.6467 84.9673 40.5772 85.0757 40.4554C85.1559 40.3652 85.2133 40.257 85.2503 40.1347L85.2807 40.0078C85.2995 39.9053 85.3222 39.8621 85.3315 39.8477C85.3356 39.8473 85.3418 39.8462 85.3498 39.8461C85.4055 39.8457 85.4605 39.8578 85.5824 39.8742C85.6868 39.8881 85.8278 39.9021 85.9784 39.8745L85.9793 39.874C86.2778 39.8185 86.4369 39.5701 86.5216 39.4052C86.5682 39.3146 86.6067 39.2196 86.6383 39.1405C86.6512 39.1083 86.664 39.0792 86.6746 39.053C86.7293 39.0423 86.7812 39.0429 86.8358 39.049C86.8871 39.0548 86.9279 39.0628 86.9931 39.0733C87.0497 39.0824 87.1274 39.0936 87.2089 39.0896C87.2957 39.0853 87.3906 39.0637 87.4844 39.0083C87.5766 38.954 87.6499 38.877 87.7104 38.7865C87.7904 38.6668 87.8582 38.5065 87.9206 38.3009C88.0273 38.3249 88.1278 38.342 88.2222 38.3467C88.4065 38.3558 88.5847 38.3243 88.7417 38.2193C88.8945 38.1171 88.9934 37.9676 89.0659 37.81C89.1033 37.7285 89.1364 37.6372 89.1678 37.5392C89.2721 37.5619 89.372 37.579 89.4667 37.5842C89.6496 37.5943 89.8343 37.5675 89.9978 37.467C90.2333 37.3222 90.3518 37.0698 90.4172 36.7716C90.4748 36.7859 90.5324 36.7987 90.5903 36.8058C90.7742 36.8284 90.9498 36.808 91.1637 36.7443L91.2166 36.7284L91.26 36.6943C91.4452 36.5523 91.5318 36.3908 91.5758 36.2413C91.5956 36.1741 91.6069 36.1094 91.6141 36.0693C91.6163 36.0571 91.6193 36.0465 91.621 36.0383C91.6963 36.0292 91.8476 36.0337 92.136 36.0826L92.1363 36.0813C92.3653 36.12 92.5215 35.9736 92.5938 35.8893C92.6727 35.7972 92.7412 35.6767 92.7938 35.5833C92.8529 35.4782 92.9007 35.3901 92.952 35.3183C92.9646 35.3006 92.9782 35.287 92.9887 35.2745C93.2631 35.3373 93.5292 35.3609 93.7575 35.231C93.8945 35.153 93.9899 35.0369 94.062 34.9108C94.1196 34.8101 94.1664 34.6912 94.2126 34.5623C94.2194 34.5645 94.2276 34.5664 94.2358 34.5692C94.3218 34.5984 94.4967 34.6683 94.7087 34.6266L94.8021 34.6008C95.0702 34.5077 95.2705 34.3753 95.3826 34.1766C95.4919 33.9824 95.4837 33.7807 95.4713 33.6427C95.4434 33.3351 95.4081 33.2163 95.561 33.0598L95.5618 33.0593C95.6474 32.971 95.6628 32.8605 95.6676 32.8167C95.6738 32.7587 95.6715 32.698 95.6669 32.6457C95.6575 32.5392 95.6337 32.4154 95.6081 32.2997L95.6085 32.2983C95.6357 32.3054 95.6626 32.3154 95.6903 32.321C95.9518 32.3736 96.2568 32.358 96.5324 32.1506C96.7857 31.9594 96.9169 31.7235 96.9355 31.46C96.9523 31.2173 96.8703 30.9871 96.7875 30.8034C96.745 30.7092 96.6969 30.6161 96.6536 30.5323C96.6089 30.4461 96.5689 30.3695 96.5353 30.2962C96.4974 30.2135 96.476 30.1505 96.4646 30.1035C96.5461 30.0421 96.6713 29.9527 96.842 29.8451C97.0882 29.6899 97.3953 29.5091 97.7114 29.3274C98.1921 29.0509 98.6832 28.7793 99.0141 28.5955C99.0836 28.7197 99.1563 28.8479 99.231 28.9653C99.3601 29.1683 99.5171 29.3771 99.7124 29.5218C99.9193 29.6749 100.176 29.7587 100.472 29.6924C100.75 29.6299 101.024 29.4433 101.303 29.1524C101.391 29.0613 101.401 28.9543 101.399 28.8929C101.424 28.8968 101.452 28.9017 101.482 28.9059C101.607 28.9231 101.767 28.9386 101.92 28.9137C102.08 28.8875 102.268 28.8089 102.379 28.6084C102.48 28.4239 102.48 28.1978 102.431 27.9604C102.365 27.6436 102.271 27.3917 102.129 27.2097C102.022 27.072 101.894 26.983 101.753 26.9339C102.667 26.3818 103.628 25.8487 104.601 25.3214C105.955 24.5874 107.332 23.8597 108.606 23.1025C108.66 23.133 108.763 23.1889 108.872 23.213C109.209 23.287 109.578 23.1225 110.083 22.631C110.274 22.6169 110.417 22.5996 110.525 22.5699C110.67 22.5298 110.786 22.4612 110.862 22.3358C110.888 22.2927 110.908 22.244 110.914 22.2289C110.924 22.2077 110.93 22.1957 110.937 22.1843C110.949 22.1651 110.984 22.1189 111.095 22.0479L111.095 22.047C111.809 21.6008 112.643 21.0543 113.341 20.6802L113.341 20.6815C113.644 20.5225 113.939 20.4064 114.223 20.2824C114.492 20.1655 114.771 20.0338 114.97 19.8483C115.191 19.6417 115.312 19.3695 115.264 19.0185C115.22 18.6991 115.037 18.3352 114.732 17.9037L114.724 17.8924L114.657 17.7814C114.629 17.7289 114.594 17.6601 114.551 17.5742C114.473 17.4192 114.377 17.2264 114.266 17.054C114.16 16.888 114.018 16.7025 113.834 16.5922C113.737 16.534 113.619 16.4925 113.487 16.4922C113.354 16.492 113.229 16.5335 113.115 16.6069C112.14 17.2363 111.11 17.8377 110.093 18.4115C109.989 18.4701 109.885 18.5342 109.789 18.5924C109.691 18.652 109.599 18.7069 109.508 18.755C109.323 18.8522 109.162 18.91 109.008 18.9172L108.911 18.9269C108.816 18.941 108.729 18.9692 108.651 19.0152C108.548 19.0755 108.479 19.1536 108.431 19.2178C108.347 19.3281 108.317 19.386 108.259 19.4421C107.963 19.4714 107.733 19.5313 107.558 19.6259C107.353 19.7366 107.231 19.8871 107.167 20.0502C107.11 20.1939 107.101 20.3451 107.095 20.4062C105.947 21.1132 104.762 21.7705 103.566 22.4246C102.35 23.0893 101.123 23.7529 99.9271 24.46C99.7893 24.5414 99.5634 24.621 99.3697 24.6645C99.3218 24.5912 99.2616 24.494 99.1924 24.379C99.0495 24.1413 98.872 23.8347 98.6923 23.5186L97.8395 22.0004C97.2453 20.9683 96.6361 19.9438 96.0131 18.9289L95.9598 18.8424L95.8644 18.8061C95.4147 18.6337 95.0345 18.4982 94.6653 18.5241C94.2724 18.5519 93.9428 18.7538 93.5649 19.0986C93.4837 19.1727 93.4205 19.2719 93.3706 19.3675C93.3184 19.4674 93.2697 19.5861 93.223 19.7154C93.1295 19.9743 93.0376 20.3007 92.9492 20.6651C92.7722 21.3955 92.6008 22.3072 92.4462 23.1961C92.2921 24.0826 92.1521 24.9643 92.0411 25.6176C92.0054 25.828 91.9691 26.0146 91.9397 26.1723L91.9379 26.1711C91.7876 26.0538 91.6062 25.9739 91.4049 25.9883C91.2022 26.003 91.0336 26.1085 90.9035 26.2507C90.7847 26.3808 90.687 26.5532 90.6046 26.7526C90.5831 26.7502 90.5594 26.7457 90.5333 26.7442L90.4649 26.7351C90.4359 26.7302 90.3896 26.7216 90.3448 26.7165C90.2519 26.706 90.1148 26.7025 89.9732 26.7721C89.8478 26.8337 89.7399 26.9115 89.6577 27.0264C89.5791 27.1363 89.5408 27.2572 89.5137 27.3689C89.5105 27.3821 89.4936 27.4438 89.4748 27.5143C89.4699 27.5126 89.464 27.512 89.4587 27.51C89.4034 27.4889 89.3078 27.4496 89.2154 27.4283C89.1184 27.4061 88.9806 27.392 88.8384 27.4532L88.7471 27.498C88.6611 27.5466 88.5899 27.6059 88.5315 27.6755C88.4559 27.7657 88.4121 27.8618 88.382 27.9399C88.3504 28.0221 88.3319 28.0803 88.3145 28.1278C88.0619 28.0961 87.8617 28.0938 87.7027 28.1247C87.5976 28.1451 87.4998 28.1823 87.4158 28.243C87.3302 28.3048 87.2737 28.3806 87.2352 28.4555C87.1991 28.5256 87.1784 28.5967 87.1644 28.6474C87.1483 28.7063 87.1395 28.7406 87.126 28.7801C87.1184 28.8025 87.108 28.8217 87.0977 28.8404C86.9137 28.7977 86.759 28.7753 86.6297 28.778C86.4405 28.7819 86.2785 28.8427 86.1597 28.9873C86.1101 29.0478 86.0766 29.1132 86.0524 29.1666C86.0294 29.2171 86.0052 29.279 85.9862 29.3254C85.9618 29.3848 85.9327 29.4452 85.8975 29.5097C85.8822 29.5067 85.8659 29.505 85.8497 29.5012L85.5229 29.4136L85.453 29.4292C85.2512 29.4721 85.0889 29.5378 84.9642 29.6392C84.8337 29.7454 84.7697 29.8696 84.7306 29.9748C84.6878 30.0898 84.672 30.1565 84.6513 30.2066C84.553 30.1749 84.4599 30.1473 84.3369 30.1153L84.2547 30.0939L84.1735 30.1194C83.8926 30.2053 83.7182 30.3378 83.5841 30.5183C83.5238 30.5996 83.4736 30.6875 83.4296 30.7665C83.4008 30.8182 83.3716 30.8681 83.3413 30.9201C83.2863 30.929 83.2345 30.9269 83.1789 30.9181C83.1283 30.91 83.0892 30.9006 83.0248 30.8875C82.9696 30.8763 82.8939 30.8619 82.8133 30.863C82.7269 30.8642 82.6307 30.8823 82.5359 30.9352C82.4433 30.9869 82.3697 31.0623 82.309 31.1497C82.2291 31.2646 82.1607 31.4196 82.0964 31.6174C81.9902 31.5923 81.8903 31.5748 81.7976 31.5667C81.6204 31.5512 81.442 31.5692 81.2801 31.6625C81.12 31.7548 81.0145 31.8986 80.9356 32.0542C80.895 32.1344 80.8585 32.2253 80.8232 32.3243C80.7215 32.2966 80.6235 32.2762 80.5309 32.2653C80.3501 32.244 80.1661 32.2572 79.9966 32.3437C79.8258 32.431 79.7061 32.5739 79.6184 32.7414C79.5762 32.8221 79.5398 32.9126 79.5068 33.011C79.4523 32.9935 79.3975 32.9785 79.3424 32.9684C79.1656 32.9362 78.9974 32.9505 78.7901 33.002L78.731 33.0169L78.6829 33.0526C78.5034 33.1866 78.4196 33.3496 78.3641 33.4926C78.3226 33.5995 78.3009 33.667 78.2745 33.736C78.2661 33.7351 78.2507 33.7332 78.214 33.7191C78.1118 33.6798 77.9282 33.5932 77.641 33.6485C77.3426 33.7061 77.188 33.908 77.0924 34.087C77.0476 34.171 77.007 34.266 76.9734 34.3418C76.9576 34.3775 76.9411 34.4113 76.9253 34.444C76.8345 34.4513 76.758 34.4444 76.6892 34.4315C76.6302 34.4203 76.5928 34.4089 76.5268 34.3944C76.4727 34.3825 76.3945 34.3677 76.3114 34.371C76.2187 34.3747 76.1208 34.401 76.0298 34.4671C75.9449 34.5289 75.8835 34.6122 75.8363 34.6984C75.7775 34.8057 75.7259 34.9487 75.6727 35.1299C75.5925 35.1021 75.5161 35.0797 75.4443 35.0645C75.2786 35.0292 75.1069 35.025 74.9414 35.0977C74.7801 35.1687 74.667 35.2944 74.5775 35.4263C74.4977 35.5437 74.421 35.6913 74.3394 35.8557C74.331 35.8541 74.3207 35.8533 74.3094 35.8505C74.2803 35.8435 74.2497 35.8344 74.2115 35.8236C74.1755 35.8135 74.1317 35.8013 74.0879 35.7912C74.0069 35.7727 73.8817 35.7503 73.7526 35.7807C73.5782 35.8218 73.4407 35.8917 73.3306 35.9894C73.2241 36.0839 73.1595 36.1913 73.1136 36.2736C73.0385 36.4087 73.0001 36.4882 72.9179 36.5558C72.7763 36.543 72.645 36.5297 72.5416 36.525C72.4091 36.519 72.263 36.5222 72.1234 36.5781C71.9733 36.6383 71.8667 36.7446 71.7805 36.8708C71.699 36.9902 71.6237 37.1457 71.5425 37.3296C71.5285 37.3612 71.5166 37.3794 71.5093 37.3894C71.4927 37.3881 71.4647 37.3847 71.4155 37.3714C71.3689 37.3587 71.2819 37.3317 71.2052 37.3157C71.03 37.2794 70.788 37.2694 70.5586 37.4556C70.4003 37.5842 70.2763 37.787 70.1721 38.0655C70.0566 38.0456 69.9464 38.0305 69.8442 38.0248C69.666 38.0149 69.4845 38.0305 69.3159 38.1099C69.0422 38.239 68.8845 38.4961 68.7724 38.8286C68.6677 38.8051 68.5677 38.787 68.4736 38.7778C68.2947 38.7604 68.1108 38.7711 67.9402 38.8501C67.6731 38.9739 67.5194 39.2249 67.4125 39.5415C67.2736 39.5042 67.1488 39.4811 67.0358 39.4771C66.8307 39.4698 66.6567 39.523 66.5117 39.6455C66.3853 39.7524 66.3 39.8992 66.2331 40.0183C66.1799 40.1132 66.1267 40.2076 66.0634 40.3103C66.0313 40.3026 65.9969 40.2943 65.9616 40.2845C65.9272 40.2748 65.8735 40.259 65.8332 40.2515C65.6017 40.2084 65.3907 40.2362 65.2153 40.3511C65.0485 40.4604 64.9544 40.6228 64.8948 40.7628C64.8361 40.9009 64.7959 41.0571 64.7636 41.1723C64.7273 41.3022 64.6992 41.3859 64.6673 41.4411C64.6125 41.5355 64.5654 41.5985 64.5236 41.6492C64.4919 41.6877 64.4243 41.7625 64.382 41.82C64.286 41.9511 64.2315 42.0952 64.197 42.3159C64.1385 42.3054 64.076 42.2996 64.0105 42.3074L64.001 42.3084L63.7272 42.3616C63.0713 42.5124 62.3175 42.8531 61.8397 43.2935C61.7876 43.3415 61.7625 43.3975 61.7483 43.4398C61.4731 42.9898 61.2149 42.5114 60.9748 42.0845C60.6122 41.4399 60.2471 40.9873 59.8567 40.7025C59.4574 40.4114 59.0436 40.3038 58.6136 40.3287C58.1956 40.353 57.7744 40.5017 57.3508 40.6924C56.9315 40.8811 56.4658 41.1328 55.9858 41.3711C54.8128 41.9545 53.6337 42.5264 52.4491 43.0871C48.2939 45.0572 43.5173 47.1574 39.4662 49.2837C39.0591 49.0265 38.5071 48.9347 38.0038 49.3015ZM44.904 75.7763C44.8865 76.0725 44.8432 76.5962 44.8224 77.1664C44.8289 76.9888 44.8363 76.8153 44.8458 76.6522L44.9035 75.7755C44.9323 75.3053 44.9645 74.8354 44.9995 74.3657C44.9645 74.8356 44.9328 75.306 44.904 75.7763ZM51.8791 71.1662C51.8028 71.2137 51.7198 71.2618 51.6301 71.3111C51.8091 71.2127 51.961 71.1182 52.0873 71.0268L51.8791 71.1662ZM17.5478 90.4214C17.5359 90.434 17.5224 90.4452 17.5101 90.4577C17.5697 90.3969 17.626 90.3353 17.6766 90.2714L17.5478 90.4214ZM60.806 64.5148C60.6719 64.3325 60.5384 64.1481 60.4066 63.9617L60.4041 63.9574C60.5371 64.1452 60.6709 64.3311 60.806 64.5148ZM45.6144 68.6826C45.5483 69.1797 45.4529 69.678 45.3982 70.146C45.3447 70.614 45.2936 71.0822 45.2462 71.5508C45.2936 71.082 45.3442 70.6132 45.3977 70.1451C45.4524 69.6773 45.5483 69.1796 45.6144 68.6826ZM58.5378 63.3537C58.6559 63.3134 58.7651 63.282 58.8643 63.261L58.7078 63.3006C58.6412 63.3195 58.5714 63.3429 58.498 63.3688L58.5378 63.3537ZM53.0921 61.5621C53.7641 61.164 55.0739 60.3448 55.7306 60.05C56.3028 60.0529 56.9418 60.1092 57.362 60.5515C57.999 61.2209 57.6612 62.1911 57.7488 63.03C56.7314 63.5625 55.7559 64.1549 54.761 64.7223C54.3974 64.93 53.7175 65.3799 53.3708 65.543C52.529 64.8794 51.5956 65.5694 51.2129 63.9224C51.2401 63.2325 51.3893 62.8799 51.7787 62.3576L51.8602 62.2507C52.2606 63.2694 53.3034 64.6231 54.4879 64.6849L54.5652 64.6019C54.3683 63.7166 52.9859 63.9437 53.0921 61.5621ZM14.4954 80.8317C15.497 80.272 16.5063 79.6652 17.5184 79.1303C17.7743 79.1234 17.6714 79.0811 17.848 79.2344C17.8479 79.5422 17.5637 79.6864 17.31 79.8337L16.8922 80.0749C15.9154 80.6368 14.9307 81.1882 13.9522 81.7464C13.7082 81.7491 13.8047 81.7904 13.6393 81.6575C13.6324 81.2811 14.181 81.0078 14.4954 80.8317ZM75.5651 45.9768C75.5631 45.9789 75.5601 45.98 75.558 45.982C75.585 45.9559 75.6089 45.9271 75.6293 45.8946L75.5651 45.9768ZM72.8896 47.4832C72.8839 47.4922 72.8776 47.5006 72.8719 47.5092C72.8776 47.5006 72.8839 47.4922 72.8896 47.4832ZM72.969 47.3415C72.9661 47.3473 72.9624 47.3526 72.9595 47.3582C72.9624 47.3526 72.9661 47.3473 72.969 47.3415ZM40.6173 66.0118L40.6165 66.0123C40.5801 66.0184 40.5463 66.0185 40.5152 66.0166C40.5465 66.0185 40.5807 66.018 40.6173 66.0118ZM40.495 66.0148C40.4884 66.0139 40.4816 66.0151 40.4753 66.0138C40.4719 66.0131 40.4687 66.0113 40.4654 66.0104C40.4749 66.0129 40.4848 66.0135 40.495 66.0148ZM73.1562 46.8883C73.1165 46.9963 73.0782 47.092 73.0423 47.1774L73.1562 46.8883ZM40.3074 65.9574C40.3428 65.9628 40.3753 65.9731 40.4045 65.987C40.3921 65.9812 40.3795 65.9751 40.3659 65.9709C40.3424 65.9636 40.3171 65.959 40.2906 65.9557C40.2962 65.9564 40.3019 65.9565 40.3074 65.9574ZM82.9091 41.1402C82.9824 41.1607 83.0476 41.1744 83.1059 41.1822C83.0608 41.1769 83.0115 41.1701 82.9577 41.1561C82.9417 41.152 82.9259 41.1452 82.9091 41.1402ZM89.9504 37.1155C89.9406 37.1271 89.9301 37.1376 89.9196 37.148C89.9301 37.1376 89.9406 37.1271 89.9504 37.1155ZM89.9933 37.0569C89.9853 37.0693 89.9773 37.0812 89.9687 37.0925C89.9772 37.0812 89.9853 37.0693 89.9933 37.0569ZM90.0181 37.0178C90.0167 37.0204 90.0147 37.0226 90.0133 37.0251C90.0179 37.0168 90.0221 37.0081 90.0266 36.9994C90.0235 37.0054 90.0213 37.0119 90.0181 37.0178ZM90.0752 36.8844C90.0717 36.8946 90.0681 36.9046 90.0644 36.9144C90.0681 36.9046 90.0716 36.8946 90.0752 36.8844ZM64.9354 51.2512C64.96 51.2045 64.9865 51.1583 65.0142 51.1121C64.9864 51.1583 64.9601 51.2046 64.9354 51.2512ZM90.1748 36.3849C90.1664 36.4667 90.1553 36.5421 90.1433 36.6117C90.1554 36.5421 90.1664 36.4668 90.1748 36.3849ZM94.0372 34.2643C94.079 34.2476 94.1193 34.2428 94.159 34.2448C94.1192 34.2428 94.0788 34.2488 94.0369 34.2657C94.0223 34.2716 94.0068 34.2783 93.9918 34.2872C94.0072 34.2781 94.0223 34.2703 94.0372 34.2643ZM65.2876 50.6678C65.2778 50.6852 65.2663 50.7016 65.2561 50.7187C65.2722 50.6915 65.2879 50.6641 65.3032 50.6363C65.2976 50.6466 65.2934 50.6577 65.2876 50.6678ZM31.2925 69.6206C31.3049 69.6566 31.3155 69.6907 31.3236 69.7233L31.3223 69.7229C31.3128 69.685 31.3004 69.6449 31.2853 69.6022C31.2875 69.6085 31.2904 69.6144 31.2925 69.6206ZM31.1954 69.3801C31.2009 69.3923 31.2047 69.405 31.2099 69.4169C31.1667 69.3182 31.1147 69.2065 31.0531 69.0789L31.1954 69.3801ZM101.06 27.2428L100.473 27.3857L100.475 27.3834C100.689 27.3396 100.884 27.2845 101.06 27.2428ZM111.18 19.8688C111.303 19.5844 113.225 18.5565 113.585 18.4057C113.527 18.6647 113.483 18.6713 113.195 18.8496C112.592 19.223 111.843 19.619 111.18 19.8688ZM107.372 20.5506C107.361 20.5822 107.343 20.6077 107.316 20.6249C107.022 20.8064 106.726 20.9844 106.428 21.1598L107.315 20.624C107.37 20.5899 107.384 20.5232 107.393 20.4404L107.372 20.5506ZM99.1921 24.9351C99.2113 24.9612 99.2267 24.9805 99.2384 24.9918C99.3638 24.9779 99.5193 24.9419 99.6709 24.8932C99.8221 24.8446 99.9696 24.7831 100.079 24.7182C100.368 24.5477 100.659 24.3805 100.95 24.2144C100.659 24.3805 100.368 24.5485 100.08 24.719C99.86 24.849 99.4896 24.9648 99.2389 24.9926C99.2118 24.9666 99.1632 24.897 99.0985 24.7963C99.1352 24.8533 99.1667 24.9004 99.1921 24.9351ZM94.7506 27.5839C95.0765 27.3061 97.1596 26.1166 97.5532 25.9557L97.5929 26.085C97.323 26.3273 95.1977 27.5192 94.7426 27.7577L94.7506 27.5839ZM108.382 19.7309L108.479 19.6476C108.451 19.676 108.419 19.7046 108.382 19.7317C108.301 19.7375 108.227 19.7448 108.159 19.7548C108.227 19.7448 108.301 19.7367 108.382 19.7309ZM113.331 16.8293C113.314 16.8377 113.296 16.8484 113.278 16.86C113.065 16.9976 112.849 17.1322 112.631 17.2664L113.278 16.8592C113.296 16.8475 113.314 16.8378 113.331 16.8293ZM109.022 19.2169C109.051 19.2155 109.08 19.2102 109.108 19.2064C109.08 19.2102 109.051 19.2164 109.023 19.2177C108.978 19.2198 108.939 19.2253 108.905 19.234C108.939 19.2253 108.978 19.219 109.022 19.2169ZM35.5841 60.1007C35.5656 60.1806 35.5512 60.2859 35.5367 60.4326L35.5584 60.2397C35.5661 60.1858 35.575 60.1403 35.5841 60.1007ZM28.337 64.1439C28.5186 64.1898 28.676 64.2444 28.684 64.2469C29.6114 63.7266 30.7487 63.0979 31.8916 62.4649C30.7488 63.0982 29.6118 63.7275 28.6845 64.2478C28.6842 64.2479 28.5234 64.191 28.337 64.1439ZM94.8754 22.1477C95.3268 22.9678 95.472 23.6608 96.5237 23.1863L96.6307 23.1392L96.6984 23.108L97.4411 24.3515C96.6505 24.819 95.8566 25.2818 95.0599 25.7387L93.368 26.7088C93.4021 26.153 93.8451 22.6879 94.1562 22.4998L94.8754 22.1477ZM61.6985 43.9219C61.8383 44.1345 61.9828 44.3377 62.1326 44.5215L61.9038 44.2229C61.8339 44.1257 61.766 44.0246 61.6985 43.9219ZM27.829 64.1001C27.8536 64.0894 27.8857 64.084 27.9224 64.0822C27.9945 64.0787 28.0858 64.0901 28.1799 64.1083C28.0379 64.0809 27.9023 64.0696 27.8295 64.1009L27.829 64.1001ZM23.1555 66.646L26.5851 64.7562C26.7794 64.65 26.9869 64.5312 27.1974 64.4162C26.987 64.5311 26.7799 64.6509 26.5856 64.757L23.156 66.6469L7.93348 75.2045L7.93299 75.2036L23.1555 66.646ZM92.0913 26.8099C92.0972 26.8053 92.1036 26.7943 92.1108 26.7772L92.1347 26.7093C92.1182 26.7667 92.1037 26.8017 92.0918 26.8107C92.0636 26.7655 92.0353 26.7231 92.0071 26.6837L92.0066 26.6828C92.0349 26.7223 92.0631 26.7646 92.0913 26.8099ZM89.6669 27.8217C89.6585 27.8261 89.65 27.829 89.6413 27.832C89.65 27.829 89.6586 27.8261 89.6669 27.8217ZM89.7123 27.791C89.708 27.7951 89.702 27.797 89.6976 27.8006C89.7021 27.797 89.7075 27.7943 89.7118 27.7901L89.805 27.4398C89.7955 27.4789 89.7136 27.7864 89.7123 27.791ZM88.475 28.4546L88.5387 28.3558C88.5209 28.3891 88.501 28.4228 88.4755 28.4554C88.4113 28.4448 88.3514 28.4359 88.2954 28.4286C88.3512 28.4358 88.4111 28.444 88.475 28.4546ZM86.1254 29.7209L86.0548 29.8271L86.1249 29.7201C86.1562 29.6686 86.1808 29.6189 86.2031 29.5723C86.1807 29.619 86.1568 29.6693 86.1254 29.7209ZM83.5392 31.1769L83.4257 31.2108C83.4621 31.203 83.4995 31.1912 83.5387 31.176L83.6922 30.9126L83.5392 31.1769ZM90.5145 27.0437L90.6516 27.0604C90.623 27.0543 90.5808 27.0484 90.515 27.0445C90.4735 27.042 90.4307 27.0333 90.387 27.0259C90.4305 27.0333 90.4733 27.0412 90.5145 27.0437ZM62.0256 43.5763C62.0259 43.5634 62.026 43.5516 62.0283 43.542L62.0299 43.5389C62.0272 43.5492 62.0259 43.5618 62.0256 43.5763ZM89.4241 27.7059C89.4242 27.705 89.424 27.7035 89.4244 27.7024L89.4259 27.6992C89.4252 27.7017 89.4246 27.7041 89.4241 27.7059ZM62.2438 43.3489C62.172 43.4023 62.1046 43.4576 62.0428 43.5145C62.1044 43.4578 62.1714 43.4026 62.2429 43.3493C62.3147 43.2959 62.3911 43.2446 62.4708 43.1952C62.3914 43.2444 62.3153 43.2956 62.2438 43.3489ZM83.131 31.2141C83.1901 31.2235 83.2532 31.2293 83.3211 31.225L83.2231 31.2252C83.1913 31.2231 83.1607 31.2188 83.131 31.2141ZM64.9271 41.5922C64.8256 41.767 64.7435 41.8562 64.6764 41.9353C64.7222 41.8813 64.7739 41.8214 64.8354 41.7342L64.9266 41.5913C64.94 41.5683 64.9527 41.5438 64.9642 41.5177L64.9271 41.5922ZM77.1892 34.5905L77.2885 34.3719C77.2995 34.3472 77.3129 34.3241 77.324 34.3006C77.2813 34.391 77.2387 34.4897 77.1892 34.5905ZM74.5517 36.0906C74.5433 36.1011 74.5339 36.1097 74.5245 36.1176C74.5339 36.1097 74.5428 36.1003 74.5512 36.0898L74.5805 36.0447L74.5517 36.0906ZM90.1908 27.0163C90.1621 27.0206 90.1333 27.0282 90.1053 27.042C90.0574 27.0655 90.0174 27.0892 89.9841 27.1153L90.1048 27.0411C90.1329 27.0273 90.1619 27.0206 90.1908 27.0163ZM85.3954 29.7533L85.2965 29.789C85.2953 29.7896 85.2938 29.7896 85.2926 29.7901C85.3233 29.7769 85.3575 29.7649 85.3954 29.7533ZM70.373 38.4096L70.4595 38.1511C70.43 38.2273 70.4015 38.3134 70.3735 38.4104C70.2666 38.3882 70.1685 38.3681 70.0778 38.3534C70.1683 38.368 70.2664 38.3874 70.373 38.4096ZM73.0766 36.8149L73.0003 36.8645L73.0761 36.814C73.0948 36.8002 73.112 36.7859 73.1282 36.7715C73.1119 36.786 73.0953 36.8011 73.0766 36.8149ZM78.8622 33.293C78.9531 33.2704 79.0296 33.2572 79.0982 33.2526L79.0987 33.2534C79.03 33.258 78.9538 33.2712 78.8627 33.2938C78.8358 33.3139 78.812 33.3349 78.7908 33.3568C78.812 33.3348 78.8353 33.3131 78.8622 33.293ZM66.2345 40.6028C66.2262 40.612 66.214 40.618 66.1993 40.622C66.214 40.618 66.2257 40.6112 66.234 40.6019L66.381 40.3682L66.2345 40.6028ZM57.4196 42.3114C59.072 41.8792 59.6542 43.3368 58.9385 44.7294C54.208 47.5102 49.0569 50.3002 44.4231 53.1934C42.7902 54.0947 42.775 51.5525 43.2736 50.5756C46.5272 48.6395 49.8321 46.823 53.0806 44.882C54.4337 44.0735 55.8155 43.3129 57.1523 42.4793L57.4196 42.3114ZM70.4595 38.1511L70.4625 38.1426C70.4903 38.0708 70.5195 38.0083 70.5482 37.9533C70.5184 38.0104 70.4885 38.0759 70.4595 38.1511ZM73.8209 36.0728L73.9168 36.0671C73.9457 36.0692 73.9758 36.0752 74.0065 36.0818C73.9402 36.0675 73.8767 36.0606 73.8214 36.0737C73.8008 36.0785 73.7814 36.0838 73.7628 36.0894C73.7813 36.0838 73.8004 36.0776 73.8209 36.0728ZM95.989 21.4281C96.245 21.8879 96.447 22.2656 96.6694 22.7414L95.9355 23.023C95.6968 22.8698 95.362 22.1841 95.2041 21.8948L95.989 21.4281ZM95.4361 18.9666C95.5354 19.0011 95.6418 19.0412 95.7574 19.0855C96.0605 19.5794 96.3601 20.0755 96.6561 20.5738C96.3603 20.0759 96.0609 19.5801 95.7579 19.0864C95.5787 19.0177 95.4211 18.9606 95.2786 18.9165C95.329 18.9321 95.3817 18.9476 95.4361 18.9666ZM38.1009 56.2684L38.0988 56.388L38.1004 56.2676C38.1006 56.2462 38.1004 56.2247 38.1004 56.2032C38.1004 56.2249 38.1011 56.2468 38.1009 56.2684ZM37.6973 52.0675C37.7524 52.3758 37.8154 52.6831 37.8392 52.952C37.8605 53.1916 37.887 53.4381 37.9136 53.6882L37.8387 52.9511C37.8149 52.6822 37.7518 52.3751 37.6968 52.0667L37.6973 52.0675ZM95.1508 18.8787C95.1776 18.8857 95.2048 18.8932 95.2327 18.9013C95.2049 18.8931 95.1775 18.8857 95.1508 18.8787ZM94.9535 18.8358C94.9693 18.8382 94.9849 18.8427 95.0009 18.8457C94.9849 18.8427 94.9693 18.8383 94.9535 18.8358ZM94.8316 18.8239C94.8714 18.8264 94.912 18.8295 94.9535 18.8358C94.912 18.8294 94.8713 18.8264 94.8316 18.8239ZM94.702 18.8221C94.7388 18.82 94.7761 18.821 94.8141 18.8228C94.7761 18.8209 94.7388 18.82 94.702 18.8221ZM94.5778 18.8374C94.6176 18.83 94.6576 18.8256 94.6981 18.8232C94.6576 18.8255 94.6176 18.83 94.5778 18.8374ZM37.6048 51.1748C37.6024 51.2433 37.6035 51.3141 37.6074 51.3864L37.6043 51.174C37.6019 51.1611 37.6022 51.1472 37.604 51.1324L37.6048 51.1748ZM38.0566 49.6781C38.0696 49.6553 38.0866 49.634 38.1056 49.6126C38.0864 49.6338 38.0697 49.6552 38.0566 49.6781ZM38.1798 49.5438C38.2202 49.5144 38.2613 49.4893 38.3025 49.4673C38.2614 49.4895 38.2206 49.5153 38.1803 49.5447C38.1539 49.5639 38.1315 49.5847 38.1118 49.6057C38.1173 49.5997 38.1221 49.593 38.1282 49.5872L38.1798 49.5438Z" fill="black"/>
<path d="M64.473 42.5171C64.5165 42.6526 64.5551 42.8064 64.6227 42.927C64.7819 43.2783 65.0269 43.7137 65.2335 44.0404C66.1211 45.4433 66.8902 47.0469 67.7997 48.4233C67.4997 47.3672 65.1218 43.5226 64.473 42.5171Z" fill="#191E21"/>
<path d="M28.1878 64.3937C27.1032 64.8409 25.0834 66.0754 23.9662 66.6884C20.7617 68.4102 17.5829 70.1797 14.4311 71.9962C13.217 72.6731 11.9979 73.3414 10.7739 74.0012C9.76636 74.5482 8.84703 74.9734 7.95968 75.7085C8.16631 76.2071 8.40511 76.6194 8.70594 77.0641L8.92932 77.0008C9.49727 77.1741 11.5398 78.2067 11.935 78.717C11.9656 78.7567 12.0605 79.0027 12.0852 79.0696C12.2595 79.6904 12.2942 79.9836 12.3512 80.6221C14.569 79.2241 30.4971 70.5168 30.9011 69.869C30.8449 69.3376 29.5059 67.072 29.1372 66.3489C28.7783 65.7407 28.4779 65.0409 28.1878 64.3937Z" fill="#2F3437"/>
<path d="M29.137 66.3489L29.1806 66.6483C28.8634 67.1638 28.5014 68.9549 28.7749 69.5024C28.4996 69.7905 26.0256 71.018 25.483 71.3268C23.0138 72.7315 20.5526 74.1635 18.0825 75.5641L14.2559 77.7109C13.7047 78.0235 12.4908 78.662 12.085 79.0696C12.2593 79.6904 12.294 79.9836 12.3509 80.6221C14.5688 79.2241 30.4968 70.5169 30.9009 69.869C30.8447 69.3376 29.5057 67.072 29.137 66.3489Z" fill="#4B5053"/>
<path d="M29.1807 66.6484C28.8634 67.1638 28.5014 68.9549 28.7749 69.5024C29.1334 69.7951 29.6744 70.6545 30.2074 70.3545C30.0526 70.0208 29.2853 69.7259 29.1162 69.3152C28.7538 68.4316 29.3954 67.7343 29.1807 66.6484Z" fill="black"/>
<path d="M58.8086 46.4637C57.83 47.0113 56.8486 47.5903 55.8761 48.1525C56.0737 48.5322 56.2367 48.7903 56.3225 49.2122L56.2262 49.2706C56.0716 49.1824 56.0575 49.1418 55.9343 49.0088L55.7991 49.0277C55.5064 49.338 52.3064 51.118 51.7543 51.4345L44.4532 55.6483C43.2289 56.3583 41.859 57.1123 40.6709 57.8492C40.3905 58.1364 40.2007 58.2216 39.8557 58.4212C40.0129 58.7873 40.3654 59.5157 40.4814 59.8492C40.8894 60.4059 41.6219 60.6002 42.2808 60.6697C42.7241 60.6792 43.3498 60.4782 43.6343 60.7755C43.9846 60.6495 45.7596 59.5628 46.1866 59.3137L52.6114 55.5716L52.099 54.7069L52.1518 54.4419L52.5141 54.2228C52.5972 54.0224 52.8554 53.5935 52.9724 53.3862L53.6245 53.3931L54.1026 53.5941C54.457 53.9977 54.3898 54.1345 54.5338 54.6572C54.5671 54.664 54.601 54.6704 54.6343 54.6772L54.691 54.6495L54.9684 54.6825L55.7989 54.2013L55.6764 54.0789C55.7294 53.4499 56.04 53.2739 56.5574 52.9777C56.9853 52.7328 57.3742 52.3936 57.8593 52.568C58.4862 52.396 63.289 49.454 63.9661 48.9691C64.2298 48.8215 64.269 48.8586 64.3804 48.6388C64.337 48.4457 64.2037 48.3507 64.0591 48.206C63.6657 47.7984 63.2396 46.8649 62.871 46.3342C62.6825 45.9407 62.6028 45.6597 62.4746 45.2434C61.7347 45.7738 60.4881 46.3764 59.7092 46.9009C59.693 46.9118 59.5489 47.3158 59.5269 47.3797L59.4205 47.3936C59.1753 47.1645 58.9808 46.766 58.8086 46.4637Z" fill="#4B5053"/>
<path d="M62.871 46.3342C62.9467 46.6124 63.2373 47.0719 63.403 47.3232L63.5231 47.5853C63.4375 47.754 63.4957 47.6835 63.3209 47.776C62.127 47.9455 58.1856 50.5772 56.9284 51.3295C56.0219 51.872 54.6043 52.6291 53.6472 53.1442C53.5486 53.1973 53.3147 53.1405 53.1975 53.1116C52.819 53.0937 52.5323 53.4317 52.3808 53.744C51.6332 54.1546 50.9831 54.604 50.2531 55.0343C48.9345 55.8114 47.5998 56.5675 46.2765 57.3367C45.394 57.8497 44.413 58.2674 43.5217 58.7759C43.3285 58.886 43.1079 58.8857 42.9143 59.0059C42.5362 59.2406 42.1917 59.5307 41.8152 59.7708C41.3782 60.0494 40.9511 59.9528 40.4814 59.8492C40.8895 60.406 41.6219 60.6002 42.2808 60.6697C42.7241 60.6792 43.3498 60.4782 43.6344 60.7755C43.9847 60.6495 45.7596 59.5628 46.1866 59.3137L52.6114 55.5716L52.099 54.7069L52.1518 54.4419L52.5142 54.2229C52.5972 54.0224 52.8554 53.5935 52.9724 53.3862L53.6245 53.3931L54.1026 53.5941C54.457 53.9977 54.3898 54.1345 54.5338 54.6572C54.5671 54.664 54.601 54.6704 54.6343 54.6772L54.691 54.6495L54.9684 54.6825L55.7989 54.2013L55.6764 54.0789C55.7294 53.4499 56.04 53.2739 56.5574 52.9777C56.9853 52.7328 57.3742 52.3936 57.8593 52.568C58.4863 52.396 63.289 49.454 63.9661 48.9691C64.2298 48.8215 64.269 48.8586 64.3804 48.6388C64.337 48.4457 64.2037 48.3507 64.0591 48.206C63.6657 47.7984 63.2396 46.8649 62.871 46.3342Z" fill="#5D6265"/>
<path d="M62.871 46.3342C62.9467 46.6124 63.2373 47.0719 63.403 47.3232L63.5231 47.5853C63.4375 47.754 63.4957 47.6835 63.3209 47.776C61.9128 48.6798 60.5159 49.4195 59.057 50.2378C57.5736 51.0698 55.127 52.8177 53.6245 53.3931L54.1026 53.5941C54.457 53.9977 54.3898 54.1345 54.5338 54.6572C54.5671 54.664 54.601 54.6704 54.6343 54.6772L54.691 54.6495L54.9684 54.6825L55.7989 54.2013L55.6764 54.0789C55.7294 53.4499 56.04 53.2739 56.5574 52.9777C56.9853 52.7328 57.3742 52.3936 57.8593 52.568C58.4863 52.396 63.289 49.454 63.9661 48.9691C64.2298 48.8215 64.269 48.8586 64.3804 48.6388C64.337 48.4457 64.2037 48.3507 64.0591 48.206C63.6657 47.7984 63.2396 46.8649 62.871 46.3342Z" fill="#626669"/>
<path d="M59.0572 50.2377C60.5161 49.4194 61.913 48.6797 63.321 47.7759L63.6246 47.5997C63.7322 47.7803 63.9698 48.1544 64.0593 48.2059L63.9808 48.3461C63.7892 48.494 63.4903 48.4502 63.1945 48.481C63.0227 48.5225 62.6779 48.7061 62.5022 48.7913C61.6858 49.1894 60.888 49.6725 60.1131 50.1468C58.1398 51.3548 56.1113 52.4525 54.1027 53.594L53.6247 53.393C55.1272 52.8177 57.5738 51.0697 59.0572 50.2377Z" fill="#FFA353"/>
<path d="M55.6764 54.0789C55.2706 54.2778 55.0694 54.402 54.6909 54.6495L54.9683 54.6825L55.7988 54.2013L55.6764 54.0789Z" fill="#1D1C1B"/>
<path d="M52.099 54.7068L52.084 54.9125C51.9231 55.2219 43.0906 60.2155 42.3098 60.5283L42.2808 60.6697C42.7241 60.6792 43.3498 60.4782 43.6344 60.7755C43.9847 60.6494 45.7596 59.5627 46.1866 59.3137L52.6114 55.5715L52.099 54.7068Z" fill="#626669"/>
<path d="M50.0854 55.7967C47.6347 57.3312 44.939 58.6371 42.4963 60.1989C42.394 60.2642 42.3494 60.4187 42.3098 60.5283C43.0906 60.2155 51.9231 55.222 52.084 54.9125C51.6615 54.8465 50.5372 55.5598 50.0854 55.7967Z" fill="#FFA353"/>
<path d="M63.4028 47.3232C63.092 47.4602 62.8183 47.6058 62.5194 47.7658C59.3504 49.4628 56.4438 51.5487 53.1973 53.1116C53.3145 53.1405 53.5485 53.1973 53.647 53.1442C54.6041 52.6291 56.0217 51.8719 56.9282 51.3294C58.1854 50.5771 62.1268 47.9455 63.3207 47.776C63.4955 47.6835 63.4374 47.7539 63.5229 47.5853L63.4028 47.3232Z" fill="#5D6265"/>
<path d="M49.4718 63.8328C48.2552 64.4679 46.7743 65.3739 45.563 66.0717C46.5783 67.703 45.8498 68.795 45.7432 70.5234C45.5749 73.2688 44.9709 76.6062 45.2737 79.3411C46.0154 79.2927 47.1085 79.0212 47.8597 78.8566C49.0322 78.5927 50.2216 78.3097 51.3717 77.9559C51.8493 77.8093 52.5723 77.6093 52.6245 77.0299C52.4472 76.495 52.0138 76.705 51.6005 76.2637C51.3743 75.7393 51.2337 71.7822 51.2884 71.1241L51.2961 71.0315C52.6078 70.3763 52.314 70.1917 51.1672 69.5892C51.0978 69.2386 50.9675 67.6974 51.0813 67.3091C51.1063 67.2251 51.354 67.1865 51.3973 66.924C51.179 66.3811 49.9325 64.1484 49.4718 63.8328Z" fill="#2F3437"/>
<path d="M59.7501 41.4265C58.2491 40.6675 57.7975 41.2327 56.4216 41.9231C55.5284 42.3696 54.6297 42.8063 53.7265 43.2327L43.6052 48.0181C42.2396 48.6752 39.0854 50.1138 38.0233 51.0057C37.8971 51.4891 38.2429 53.0862 38.2688 53.8196C39.7405 53.0678 41.1511 52.1633 42.5997 51.39C42.796 50.5459 42.8336 50.3551 43.5998 49.8963C46.1495 48.3699 48.777 46.9513 51.3375 45.4448C52.6905 44.6349 54.0519 43.8392 55.4214 43.0577C56.6365 42.3489 58.3267 40.8958 59.422 42.7162C59.5569 42.9374 59.6448 43.1841 59.6802 43.4408C59.7157 43.6975 59.6979 43.9587 59.6281 44.2082C59.351 45.2126 58.023 45.7337 57.1488 46.2317C56.054 46.8528 54.9628 47.48 53.8757 48.1129C51.9173 49.2503 49.9656 50.3992 48.021 51.5592C47.0043 52.1587 45.9514 52.7557 44.9385 53.3551C43.2759 54.339 42.6757 53.4924 42.5777 51.7806C41.1869 52.6123 39.7697 53.3997 38.3287 54.1417C38.3873 54.8232 38.4361 55.5054 38.4746 56.1882C39.5973 56.465 40.4592 56.0247 41.1741 55.1824C41.371 54.9501 42.1864 55.493 42.0632 55.932C42.0819 56.0849 42.0604 56.5527 42.1325 56.6389C43.763 55.8619 55.228 48.8931 55.705 48.9209L55.7991 49.0277L55.9344 49.0087C55.8255 48.8122 55.4968 48.283 55.6381 48.0857C55.969 47.6232 58.4478 46.1547 58.8479 46.1685C59.132 46.2962 59.2368 46.4844 59.4281 46.7433C59.9751 46.4168 61.9098 45.3192 62.2901 44.998L62.2791 44.9164L62.0861 45.0677C61.8139 44.9696 60.1093 41.9248 59.7501 41.4265Z" fill="#2F3437"/>
<path d="M41.7565 52.581C40.7842 53.0978 39.4297 53.8773 38.5099 54.4771C38.5763 54.903 38.5898 55.4207 38.9105 55.6815L39.1041 55.6524C39.7077 55.2926 42.166 54.0029 42.4257 53.6758C42.495 53.2894 42.3699 53.0632 42.1627 52.7191C42.0746 52.5732 41.9333 52.5979 41.7565 52.581Z" fill="black"/>
<path d="M41.8547 52.9047C41.3463 53.1857 40.8377 53.4662 40.3316 53.7511C39.9615 53.9595 38.3239 54.7281 39.0853 55.2806C39.972 54.748 40.8922 54.2721 41.7899 53.7598C42.0732 53.5981 42.0795 53.5942 42.1396 53.354C42.0573 53.0977 42.0459 53.1074 41.8547 52.9047Z" fill="#191E21"/>
<path d="M39.2574 50.9782C38.7938 51.1398 38.5439 51.642 38.6946 52.1094C38.8454 52.5768 39.3414 52.8385 39.8122 52.6987C39.9667 52.6528 40.1061 52.5665 40.2161 52.4487C40.3261 52.3309 40.4026 52.1859 40.4377 52.0286C40.4727 51.8713 40.4651 51.7076 40.4156 51.5543C40.3661 51.401 40.2766 51.2637 40.1563 51.1566C39.9112 50.9385 39.5671 50.8702 39.2574 50.9782Z" fill="black"/>
<path d="M39.4177 51.2589C39.278 51.2973 39.1583 51.3878 39.0834 51.5119C39.0085 51.6359 38.9841 51.784 39.0152 51.9255C39.0466 52.0669 39.131 52.1909 39.2512 52.2719C39.3713 52.3528 39.518 52.3845 39.6608 52.3604C39.7617 52.3434 39.8561 52.2992 39.9339 52.2327C40.0117 52.1661 40.0699 52.0797 40.1025 51.9827C40.1348 51.8857 40.1403 51.7817 40.1182 51.6818C40.0961 51.5819 40.0473 51.49 39.977 51.4156C39.9067 51.3413 39.8175 51.2875 39.719 51.2599C39.6205 51.2323 39.5164 51.232 39.4177 51.2589Z" fill="#191E21"/>
<path d="M43.0496 61.4851C42.8701 62.0731 42.3794 61.8434 41.8758 61.791C40.6302 61.6618 39.5831 61.228 39.1096 59.9765C39.0052 59.7007 38.6315 58.7251 38.2551 58.798C37.9344 58.8749 37.875 58.926 37.497 58.8366L37.364 58.9037C37.1795 59.5393 40.224 63.6202 40.3972 64.5566L40.523 64.8011C40.6321 65.0049 40.8344 65.3553 40.9067 65.5596C42.0757 64.7214 43.4163 64.4981 44.7022 65.2276C45.3798 65.6122 45.095 65.9924 45.9275 65.4731C47.542 64.5371 49.1826 63.6277 50.8154 62.7222C51.457 62.3665 51.2928 62.1356 51.5502 61.9987C52.6127 61.4316 54.7711 60.0044 55.7814 59.6416C56.0437 59.5923 55.9882 59.5632 56.2049 59.6423C56.8011 59.8163 57.1156 59.9108 57.6336 60.2468C57.4273 59.8948 57.2517 59.5933 57.0677 59.2277C56.9273 59.0342 56.8755 58.9403 56.6716 58.8685C56.3527 58.915 55.3922 59.1926 54.9563 59.2842C54.3444 58.7952 53.2459 56.662 52.7852 55.8709C49.7217 57.5965 46.5914 59.4235 43.5528 61.1978C43.3677 61.2577 43.1381 61.2968 43.0496 61.4851Z" fill="#4B5053"/>
<path d="M40.5228 64.8011C40.632 65.0049 40.8343 65.3553 40.9066 65.5596C42.0755 64.7214 43.4162 64.4981 44.7021 65.2276C45.3797 65.6122 45.0949 65.9924 45.9274 65.4731L45.8971 65.4287L45.8447 65.3553C45.0848 64.2749 43.2643 63.9578 42.0452 64.2803C41.641 64.3868 40.7819 64.8333 40.5228 64.8011ZM57.0675 59.2277C56.7044 59.3221 56.5046 59.4034 56.2047 59.6423C56.801 59.8163 57.1154 59.9108 57.6335 60.2468C57.4272 59.8948 57.2515 59.5933 57.0675 59.2277Z" fill="#2D3134"/>
<path d="M57.0678 59.2277C56.9274 59.0341 56.8756 58.9403 56.6717 58.8685C56.5631 59.2136 56.1002 59.4475 55.7815 59.6416C56.0438 59.5922 55.9883 59.5632 56.205 59.6423C56.5048 59.4034 56.7046 59.3221 57.0678 59.2277Z" fill="#2D3134"/>
<path d="M48.1636 61.2467C48.3902 61.1181 48.6146 60.987 48.8386 60.8539C49.1387 60.6729 49.4532 60.5277 49.5374 60.1913C49.3082 59.8882 49.1587 59.8476 48.804 59.9968C48.2185 60.242 48.2318 60.7378 47.9746 61.0975C47.4841 61.1254 47.124 60.4601 46.5132 60.9442C46.1981 61.1942 46.3718 61.5526 46.1681 61.855C45.9635 62.1596 45.5878 62.1065 45.2515 62.1576C44.8274 62.5309 44.94 64.0174 45.754 63.7741C45.9635 63.7111 46.4203 63.4064 46.6205 63.2815L47.1163 63.0471C48.0854 63.3539 48.9938 62.0698 48.1636 61.2467Z" fill="black"/>
<path d="M48.2618 61.6124C47.2787 60.9974 46.5802 60.6558 46.2578 62.0988C46.675 62.1046 46.8189 62.0765 47.1322 62.3272C47.3671 62.8452 47.0041 63.0269 46.6205 63.2816L47.1163 63.0472C47.5552 62.8495 47.721 62.7468 48.1253 62.4839C48.2042 62.1785 48.2253 61.9243 48.2618 61.6124Z" fill="#2F3437"/>
<path d="M46.6239 62.2237C46.2603 62.3695 45.4959 62.8247 45.3851 63.2074C45.4455 63.4192 45.3854 63.3379 45.5747 63.4568C45.9422 63.2694 46.755 62.9277 46.8608 62.5309C46.7832 62.2973 46.8443 62.4059 46.6239 62.2237ZM49.1609 60.1581C48.8858 60.2844 48.6873 60.3626 48.5422 60.6297C48.8032 60.5084 49.0921 60.4368 49.1609 60.1581Z" fill="#2F3437"/>
<path d="M43.328 61.9989C43.0995 62.0465 42.9501 62.2673 42.9911 62.4965C43.0075 62.5898 43.0541 62.6751 43.1238 62.7393C43.1934 62.8034 43.2822 62.8429 43.3765 62.8516C43.4708 62.8603 43.5654 62.8378 43.6456 62.7874C43.7258 62.7371 43.7872 62.6618 43.8204 62.5731C43.8474 62.5007 43.8545 62.4223 43.841 62.3462C43.8275 62.2701 43.7939 62.1989 43.7437 62.1402C43.6414 62.0206 43.4818 61.9665 43.328 61.9989ZM50.8048 60.2369C50.5954 60.2882 50.4673 60.499 50.5191 60.7081C50.5704 60.9175 50.7824 61.0449 50.9915 60.993C51.1996 60.9409 51.3262 60.7301 51.275 60.5223C51.2503 60.4222 51.187 60.336 51.0988 60.2825C51.0107 60.229 50.905 60.2126 50.8048 60.2369ZM53.2542 57.497C53.1921 57.492 53.1298 57.5038 53.0739 57.5313C53.018 57.5588 52.9706 57.6009 52.9367 57.6532C52.8675 57.7597 52.8624 57.8957 52.9234 58.0066C52.9842 58.1185 53.1005 58.1875 53.2281 58.1873C53.4132 58.1864 53.5652 58.0398 53.5721 57.8549C53.5757 57.7657 53.5445 57.6786 53.4852 57.6119C53.426 57.5451 53.3431 57.504 53.2542 57.497Z" fill="black"/>
<path d="M66.3854 55.5094C65.6915 54.5301 64.7621 53.0333 64.3936 51.8824C64.267 51.4868 64.6002 51.1297 64.7206 50.873C64.304 51.054 63.8932 51.0391 63.6307 50.6059C63.3675 50.1715 63.5748 50.0055 63.6002 49.6325C61.7457 50.7229 59.8619 51.7805 58.0148 52.8802L60.4254 57.0662C60.6947 57.5326 61.8315 59.2779 61.7336 59.7033C61.3262 59.4249 59.7403 56.1824 59.3758 55.9141L59.2762 55.984C59.0744 56.8925 58.6385 56.8635 57.7905 56.8913C58.4809 58.0883 59.6492 59.9832 60.2087 61.1855L60.1519 61.2492L60.1703 61.2664C59.5504 60.782 58.0743 57.924 57.5483 57.0303C56.7413 57.4344 55.4397 58.4728 54.6804 58.2777L54.494 58.3366C54.6392 58.5962 54.7168 58.7788 54.9412 58.9772C55.5813 59.1978 56.6748 58.2261 57.0846 58.7537C57.8253 59.7059 59.0496 61.5692 59.1251 62.7717C59.68 62.3221 60.2325 61.8322 60.7482 61.3388C62.7396 59.4334 65.0788 57.6923 67.0657 55.8088L67.0358 55.7031C66.8265 55.5617 66.6365 55.5539 66.3854 55.5094Z" fill="#191E21"/>
<path d="M66.1677 55.7279C64.8427 56.6414 63.3552 58.1739 62.1252 59.2506C62.0266 59.337 61.9901 59.4841 61.9703 59.6092C62.4434 59.3516 65.9353 56.3262 66.2152 55.9109L66.1677 55.7279Z" fill="black"/>
<path d="M11.7213 81.333C11.7547 81.4994 15.5404 86.769 15.9866 87.4883C16.6446 87.1007 18.4262 86.004 19.0584 85.7581C19.2981 85.2771 21.3232 80.8525 21.351 80.5564C21.0624 79.7872 21.4818 79.3601 21.8524 78.6651C23.1366 76.1524 22.2917 76.2791 25.0007 74.8194L24.6206 74.0875C21.5087 75.9731 18.2466 77.6925 15.0913 79.5112C14.0099 80.1339 12.8573 80.8342 11.7213 81.333Z" fill="#2F3437"/>
<path d="M17.0391 78.9426C16.344 79.306 13.6542 80.6301 13.2493 81.4037C13.0147 81.8508 13.5312 82.3756 14.3074 81.9638C15.0244 81.5444 17.691 80.2191 18.1907 79.489C18.5007 79.0346 17.8867 78.5538 17.0391 78.9426Z" fill="black"/>
<path d="M94.551 31.2761L76.3892 42.158L72.3967 44.576C71.4979 45.1292 68.4938 47.0935 67.6739 47.2902C67.8558 47.6552 68.098 48.1929 68.3315 48.5283C68.3949 48.6194 68.4156 48.5889 68.5563 48.5935C68.9443 48.5342 69.5741 48.4576 69.8974 48.2763C71.1895 47.5551 72.4866 46.7737 73.752 46.0107C76.6392 44.2517 79.5136 42.4722 82.3754 40.6723C84.022 39.6466 85.7029 38.6622 87.3192 37.5875C89.8264 35.921 92.6308 34.4721 95.093 32.7543C94.8963 32.236 94.7765 31.8109 94.551 31.2761Z" fill="#2F3437"/>
<path d="M71.3421 45.7987C70.8442 46.0939 69.9858 46.475 69.8886 47.0764C69.9361 47.2911 69.931 47.2762 70.0949 47.4244C70.3051 47.4802 70.4233 47.4058 70.6302 47.3273C71.0986 47.0708 71.9584 46.7074 72.0787 46.1538C71.9965 45.8811 72.0639 46.0038 71.839 45.7902C71.5804 45.7237 71.588 45.7341 71.3421 45.7987ZM87.4968 35.9373L87.1754 36.133C86.7764 36.3743 86.3191 36.6598 86.3533 37.1969C86.5766 37.5452 86.9463 37.389 87.2388 37.2101C87.5803 37.0183 88.9463 36.2807 88.4328 35.7612C88.0702 35.6546 87.8159 35.7784 87.4968 35.9373ZM76.9543 42.4061C76.4297 42.6927 75.5324 43.0762 75.3563 43.6241C75.3902 43.8977 75.3446 43.7732 75.5113 44.0057C75.7282 44.1056 75.7563 44.0808 75.9924 44.0543C76.5091 43.7498 77.3134 43.3419 77.5726 42.7878C77.5775 42.5475 77.6223 42.6376 77.4908 42.4854C77.2244 42.4002 77.2339 42.4016 76.9543 42.4061ZM82.5788 39.0033C82.0498 39.2624 80.7957 39.8012 80.8981 40.4919C81.0618 40.6951 81.1124 40.6907 81.3619 40.7586C81.8571 40.482 83.2827 39.8468 83.0154 39.1867C82.8162 39.058 82.8223 39.0499 82.5788 39.0033ZM93.2832 32.4329C92.8262 32.69 91.9798 33.0674 91.8737 33.6199C91.9848 34.0198 92.223 34.0602 92.5731 33.9764C93.055 33.7082 93.881 33.3257 94.0459 32.795C93.9451 32.3551 93.6692 32.3328 93.2832 32.4329ZM74.381 44.0272C73.8989 44.2266 72.4257 44.931 72.6844 45.5783C72.88 45.7352 72.8901 45.7209 73.1294 45.7637C73.6541 45.5312 74.8335 44.9864 74.7955 44.3548C74.6596 44.1347 74.6142 44.1315 74.381 44.0272ZM90.8172 34.004C90.3102 34.2632 88.9839 34.7852 89.1615 35.4828C89.3346 35.669 89.3802 35.6651 89.6219 35.729C90.1502 35.4472 91.3941 34.9572 91.2439 34.2875C91.071 34.0841 91.0581 34.0969 90.8172 34.004ZM79.7663 40.7037C79.3437 40.9322 77.9227 41.6103 78.2258 42.2157C78.4524 42.3587 78.445 42.3467 78.7182 42.3653C79.2344 42.072 80.1033 41.691 80.3301 41.1888C80.3028 40.8015 80.1617 40.6726 79.7663 40.7037ZM84.8235 37.6261C84.3026 37.9098 83.6571 38.2154 83.6247 38.8914L83.7733 39.0322C84.0768 39.0387 84.0964 39.0375 84.3863 38.9568C84.8746 38.6632 85.8138 38.2857 85.7765 37.6761C85.6529 37.483 85.67 37.4792 85.4657 37.3868C85.2063 37.392 85.0554 37.503 84.8235 37.6261Z" fill="black"/>
<path d="M89.5547 28.5328C88.0365 29.2855 86.3164 30.3373 84.8061 31.179L75.9499 36.0432C72.6746 37.8171 69.3842 39.5622 66.1286 41.3724C65.7123 41.6039 65.247 41.8857 64.8753 42.1791C64.8375 42.5956 65.4034 43.3382 65.6532 43.7187C65.7248 43.5218 65.8161 43.2301 65.994 43.1238C67.4126 42.2761 68.9611 41.4523 70.42 40.688L76.5914 37.4029C80.6039 35.2943 84.6048 33.1638 88.594 31.0114C90.1047 30.2023 91.6217 29.3295 93.1398 28.5422C92.8592 28.1198 92.614 27.7316 92.2832 27.3458L92.045 27.2252C91.5036 27.3337 90.1297 28.2026 89.5547 28.5328Z" fill="#4B5053"/>
<path d="M92.2831 27.3459L92.0448 27.2252C91.5035 27.3338 90.1295 28.2027 89.5546 28.5328C89.916 28.5876 90.027 28.4555 90.2708 28.485C90.2765 28.7181 90.2573 28.7903 90.3938 28.9798C90.8009 29.2591 91.4939 28.9182 91.8109 28.6237C92.2331 28.2315 92.3233 28.0413 91.9587 27.5911C92.0132 27.4483 92.1072 27.4429 92.2831 27.3459Z" fill="black"/>
<path d="M92.2831 27.3459L92.0448 27.2252C91.5035 27.3338 90.1295 28.2027 89.5546 28.5328C89.916 28.5876 90.027 28.4555 90.2708 28.485C91.0842 27.9234 91.2555 27.9641 91.9587 27.5911C92.0132 27.4483 92.1072 27.4429 92.2831 27.3459Z" fill="#4B5053"/>
<path d="M76.0349 36.2834C75.5931 36.5096 74.8341 36.7916 74.715 37.2997C74.7491 37.524 74.7851 37.5311 74.9386 37.6979C75.2204 37.7868 75.0757 37.7731 75.3906 37.7038C75.8644 37.4607 76.8458 37.0944 76.8878 36.536C76.8002 36.3147 76.8127 36.3265 76.6211 36.1867C76.3681 36.1376 76.2773 36.1961 76.0349 36.2834ZM70.4395 39.2849C70.0074 39.5102 69.3115 39.7734 69.1969 40.2737C69.239 40.4834 69.2595 40.4713 69.4223 40.621C69.6549 40.7144 69.7113 40.6811 69.9545 40.6265C70.4396 40.3584 71.3435 40.0027 71.4007 39.4086C71.1467 38.9438 70.8038 39.1148 70.4395 39.2849ZM73.5692 37.6323C73.097 37.8611 72.1102 38.2215 72.0177 38.7551C72.0727 38.9847 72.0747 38.9675 72.2458 39.1352C72.5256 39.2186 72.3872 39.2137 72.6769 39.1418C73.1771 38.8903 73.9843 38.5383 74.2184 38.0306C74.1806 37.6428 73.9127 37.6001 73.5692 37.6323ZM68.0824 40.5637C67.5624 40.825 66.7345 41.1502 66.5096 41.6779C66.5262 41.9485 66.4887 41.8224 66.6493 42.0624C66.8246 42.1788 66.8579 42.1545 67.0697 42.1439C67.4772 41.9597 68.9355 41.2933 68.6137 40.7068C68.3786 40.5828 68.354 40.5893 68.0824 40.5637ZM79.0694 34.6798C78.6461 34.8978 77.139 35.5345 77.5257 36.14C77.749 36.2625 77.7567 36.2533 77.9977 36.2951C78.4717 36.0486 79.753 35.5391 79.556 34.9306C79.3429 34.7446 79.3478 34.7577 79.0694 34.6798ZM81.5773 33.3178C81.0876 33.5587 80.2923 33.8521 80.1173 34.3583C80.1278 34.572 80.1387 34.5578 80.276 34.7279C80.5083 34.8541 80.5148 34.8356 80.7711 34.8182C81.3386 34.512 81.8462 34.3018 82.2014 33.7523C82.2335 33.5037 82.2663 33.6045 82.144 33.4282C81.8809 33.312 81.8701 33.3131 81.5773 33.3178ZM86.6781 30.4509C86.1949 30.7045 85.5214 30.9594 85.3296 31.4417C85.3617 31.7348 85.3148 31.5989 85.5038 31.8537C85.7323 31.9476 85.7917 31.913 86.0318 31.8593C86.2298 31.7559 86.4268 31.6505 86.6227 31.5432C86.9424 31.3669 87.3161 31.1661 87.4215 30.8024C87.2973 30.3819 87.0316 30.3915 86.6781 30.4509ZM84.2731 31.811C83.8387 32.0448 82.5559 32.587 82.7667 33.177C82.9678 33.3492 82.9811 33.3339 83.2337 33.3829C83.6997 33.1764 84.9533 32.6851 84.7846 32.0682C84.5772 31.877 84.5561 31.881 84.2731 31.811ZM88.8997 29.2473C88.5134 29.4386 87.5498 29.931 87.8888 30.498C88.1267 30.6073 88.3701 30.5454 88.61 30.4746C89.0877 30.2414 89.8798 29.8604 89.8871 29.2416L89.7741 29.1291C89.4529 29.0619 89.1973 29.1361 88.8997 29.2473Z" fill="black"/>
<path d="M62.7855 60.0822C62.3086 60.4713 61.8009 60.9531 61.3411 61.3717L61.8079 62.0342C63.0357 63.7215 64.0944 65.1452 65.5273 66.6746C66.2474 67.4423 66.9868 68.191 67.7451 68.9204C68.2724 69.4265 69.8821 70.7904 70.1707 71.3091C69.7372 71.2106 68.8506 70.3743 68.5051 70.0571C66.1508 67.8925 63.4051 65.035 61.6743 62.3279C61.5054 62.0836 61.3137 61.8199 61.1603 61.5689C60.8963 61.7963 60.6181 62.0258 60.3739 62.2727C60.4752 62.4146 60.732 62.7992 60.831 62.913C63.084 66.1965 66.7343 69.8435 69.8314 72.3411C70.4949 71.6161 71.2535 70.7705 71.8706 70.016C71.205 69.5611 70.2967 68.6577 69.6798 68.0957C67.3438 65.9693 65.2966 63.8703 63.5275 61.2348L62.7855 60.0822Z" fill="#626669"/>
<path d="M62.7856 60.0822C62.3087 60.4712 61.801 60.953 61.3412 61.3716L61.808 62.0341C62.1122 61.7518 62.8547 61.074 63.1943 60.8973L63.5276 61.2347L62.7856 60.0822ZM61.1604 61.5689C60.8964 61.7963 60.6182 62.0257 60.374 62.2727C60.4753 62.4145 60.7322 62.7991 60.8311 62.9129C61.1507 62.7029 61.3084 62.5353 61.6744 62.3279C61.5055 62.0835 61.3138 61.8198 61.1604 61.5689Z" fill="#2F3437"/>
<path d="M100.077 26.4774L100.105 26.8185C99.9285 27.1175 99.4873 27.2805 99.1655 27.4281L99.4847 28.1218C100.403 27.4434 100.821 27.6223 100.077 26.4774Z" fill="#504F50"/>
<path d="M100.104 26.8185C99.7434 26.9488 99.3573 27.2729 99.0009 27.1409L99.1652 27.4281C99.487 27.2805 99.9283 27.1175 100.104 26.8185Z" fill="#1D1C1B"/>
<path d="M6.67673 76.1951C6.37888 76.3959 5.86542 76.7351 5.70016 77.0222C4.89166 78.4284 6.80659 80.4859 7.62552 81.4703C8.48555 82.5044 9.24309 83.4159 10.0208 84.4481C10.759 85.4187 11.4359 86.4356 12.0452 87.4923C12.7439 88.6946 13.6497 90.731 14.9349 91.2984C15.5776 91.3211 16.0848 90.9416 16.6475 90.6183L10.6814 82.1346C9.58525 80.5951 7.44728 77.7963 6.67673 76.1951Z" fill="#2D3134"/>
<path d="M64.7347 58.3566L62.9619 59.9401C63.0456 60.0596 63.3655 60.5293 63.4459 60.6043C65.1985 63.0544 66.4999 64.6667 68.7213 66.7874C69.6607 67.6845 71.219 69.0023 72.0182 69.9029C72.5237 69.3102 73.1341 68.5602 73.6902 68.031C73.4579 67.8952 73.1869 67.7694 73.032 67.558C70.475 65.6372 66.9796 62.04 65.3316 59.2526C65.1359 58.9619 64.919 58.6517 64.7347 58.3566Z" fill="#626669"/>
<path d="M64.7347 58.3567L62.9619 59.9402C63.0456 60.0597 63.3655 60.5293 63.4459 60.6043C63.6112 60.297 64.7177 59.4083 65.0882 59.2168C65.193 59.1625 65.1916 59.1989 65.3316 59.2526C65.1359 58.9619 64.9189 58.6517 64.7347 58.3567Z" fill="#2F3437"/>
<path d="M35.7194 60.7338C33.5159 62.1192 30.9974 63.2711 28.7378 64.7013C29.0341 65.3351 29.2477 65.7586 29.5996 66.3695C29.8132 66.8587 30.0252 67.2178 30.293 67.6817C32.6586 66.3105 35.0392 64.9653 37.4343 63.6467C37.2977 63.5158 37.0796 63.2922 36.9431 63.1777C36.1165 62.3475 35.9245 61.8555 35.7194 60.7338Z" fill="#4B5053"/>
<path d="M29.6 66.3695C29.8136 66.8587 30.0255 67.2177 30.2934 67.6817C32.6589 66.3104 35.0395 64.9653 37.4347 63.6467C37.298 63.5158 37.08 63.2922 36.9434 63.1776L36.9157 63.2984C36.3448 63.7189 34.5009 64.6446 33.7779 65.0362C32.7056 65.617 31.0943 66.6067 30.0123 66.9966L29.6 66.3695Z" fill="#191E21"/>
<path d="M27.9276 73.5016C27.0159 74.007 23.9001 75.693 23.3614 76.4024C22.9548 76.9388 22.736 77.6382 22.4575 78.2476C22.1755 78.8644 21.8638 79.4698 21.5725 80.0827C21.7969 80.4807 22.0236 80.8773 22.2526 81.2726C22.4089 81.5366 22.7319 82.1336 23.0173 82.2086L23.1435 82.0414C23.9131 80.6006 24.5971 79.1158 25.1921 77.5946C26.5882 76.76 27.9942 75.9413 29.4084 75.138C29.1588 74.6857 28.77 73.8876 28.3905 73.5545C28.235 73.4177 28.0933 73.4724 27.9276 73.5016Z" fill="#191E21"/>
<path d="M66.6776 56.6579L65.4921 57.6942C65.6905 58.0151 65.9841 58.5224 66.2172 58.7908C68.2074 61.9793 71.4492 64.9478 74.1562 67.5724L75.2042 66.3138C72.2232 63.1977 69.5411 61.1435 67.1247 57.375L66.6776 56.6579Z" fill="#626669"/>
<path d="M66.6776 56.6578L65.4921 57.6942C65.6905 58.0151 65.9841 58.5223 66.2172 58.7907C66.1715 58.6995 66.0242 58.4605 66.0526 58.3838C66.1905 58.0064 66.8101 57.6286 67.1247 57.375L66.6776 56.6578Z" fill="#2F3437"/>
<path d="M107.696 20.9061C105.071 22.3484 102.461 23.8166 99.8653 25.3105C100.104 25.8578 100.402 26.3053 100.675 26.8259C102.507 25.7176 104.45 24.7463 106.294 23.6527C106.981 23.245 107.792 22.8248 108.441 22.3764C108.486 22.1738 108.436 22.1834 108.316 21.9445C108.117 21.5817 107.915 21.257 107.696 20.9061Z" fill="#2F3437"/>
<path d="M99.8651 25.3105C100.103 25.8579 100.402 26.3053 100.675 26.8259C102.507 25.7176 104.449 24.7464 106.293 23.6527C106.981 23.245 107.792 22.8248 108.44 22.3764C108.485 22.1738 108.436 22.1835 108.316 21.9445C107.712 22.4116 106.03 23.3031 105.298 23.7097C103.81 24.5362 102.02 25.6518 100.483 26.3319C100.276 25.966 100.094 25.6631 99.8651 25.3105Z" fill="#4B5053"/>
<path d="M62.4598 43.5894C62.4354 43.8059 65.5618 49.2968 65.9211 49.9324L67.204 48.9822C67.2846 48.9109 67.3541 48.8375 67.43 48.7612C67.3034 48.0253 64.6664 43.5915 64.0649 42.913C63.5493 43.1479 62.9856 43.3706 62.4598 43.5894Z" fill="#2F3437"/>
<path d="M53.6245 53.3931L52.9724 53.3861C52.8554 53.5935 52.5972 54.0223 52.5142 54.2228L52.1518 54.4418C52.4487 54.6561 53.0486 55.7767 53.2591 56.1453L53.4529 56.4998L54.494 58.3367L54.6805 58.2777C54.0695 57.3334 54.715 57.3088 55.3739 56.8905L55.4816 56.8213L56.9255 56.0186C56.7009 55.6053 56.1051 54.4743 55.7989 54.2013L54.9684 54.6824L54.691 54.6494L54.6343 54.6771C54.601 54.6704 54.5671 54.6639 54.5338 54.6572C54.3898 54.1345 54.457 53.9976 54.1026 53.5941L53.6245 53.3931Z" fill="black"/>
<path d="M55.7989 54.2013L54.9683 54.6825C55.8514 55.2527 55.5667 55.5687 55.1015 56.2287C55.1776 56.4006 55.2332 56.4434 55.359 56.5835L55.4035 56.8107L55.4816 56.8213L56.9255 56.0186C56.7008 55.6054 56.1051 54.4744 55.7989 54.2013Z" fill="#191E21"/>
<path d="M53.4529 56.4998L54.494 58.3366L54.6804 58.2777C54.0695 57.3334 54.715 57.3088 55.3738 56.8905L55.4816 56.8213L55.4035 56.8107C54.8288 57.0744 54.9201 57.0504 54.5 56.6416C53.9541 56.4718 54.0846 56.8304 53.5157 56.4426L53.4529 56.4998Z" fill="#191E21"/>
<path d="M52.5142 54.2227L52.1518 54.4418C52.4487 54.656 53.0486 55.7767 53.2591 56.1453C53.2114 56.0104 53.1723 55.8945 53.1315 55.7568L53.2505 55.7567C53.1194 55.3232 53.2303 55.7525 53.3366 55.3124C52.8732 54.834 52.7962 54.8197 52.5142 54.2227Z" fill="#626669"/>
<path d="M53.2505 55.7569L53.1315 55.7569C53.1723 55.8946 53.2114 56.0105 53.2591 56.1454L53.4529 56.4999L53.5158 56.4427C53.5084 56.2103 53.4663 56.2926 53.5732 56.1443L53.6707 56.2341C53.706 55.9616 53.7568 55.7629 53.822 55.4941C53.6648 55.5153 53.5272 55.6882 53.2505 55.7569Z" fill="#191E21"/>
<path d="M53.8221 55.494C53.7568 55.7628 53.706 55.9615 53.6708 56.234C53.9507 56.3424 53.8217 56.3426 54.0731 56.3026C54.3223 55.9785 54.0825 55.7039 53.8221 55.494Z" fill="#191E21"/>
<path d="M53.4007 53.6485C52.3951 54.2631 53.1679 54.9131 53.8949 55.2519C54.5961 54.7704 54.0638 53.8859 53.4007 53.6485Z" fill="#2D3134"/>
<path d="M54.762 54.839C54.505 55.0155 54.4454 55.0783 54.4126 55.3819C54.5236 55.6465 54.6122 55.6727 54.8634 55.8425C54.949 55.79 55.0504 55.7137 55.1348 55.6549C55.3211 55.2233 55.1096 55.07 54.762 54.839Z" fill="#191E21"/>
<path d="M54.5144 55.8575C54.4392 56.1291 54.5868 56.4383 54.7407 56.6526C54.86 56.5497 54.849 56.5522 54.8987 56.3998C54.8492 56.1507 54.6966 56.0431 54.5144 55.8575Z" fill="#191E21"/>
<path d="M113.518 17.1367C112.149 17.9499 111.025 18.628 109.622 19.4081L110.223 20.3772C110.432 20.6876 110.633 21.1324 110.803 21.4756C112.321 20.4689 113.058 20.0302 114.733 19.3238C114.584 19.0198 114.244 18.2543 114.035 18.0581C113.872 17.7638 113.693 17.4188 113.518 17.1367Z" fill="#4B5053"/>
<path d="M113.518 17.1367C112.15 17.9499 111.025 18.6281 109.622 19.4081L110.223 20.3772C110.384 20.232 110.553 20.0638 110.712 19.9124C110.958 19.0825 113.073 17.9697 113.908 18.0967L114.035 18.0581C113.872 17.7639 113.693 17.4188 113.518 17.1367Z" fill="#2F3437"/>
<path d="M113.908 18.0967C113.073 17.9697 110.958 19.0825 110.712 19.9125C110.848 20.06 110.919 20.1998 111.137 20.1722C111.849 20.0821 113.28 19.1795 113.853 18.8077C113.926 18.5068 113.992 18.3777 113.908 18.0967Z" fill="black"/>
<path d="M7.52663 75.6605C7.43863 75.7064 7.31333 75.7921 7.22582 75.8281C6.7386 75.9769 7.63508 77.2604 7.81936 77.5153C10.1267 80.7026 12.3684 83.9449 14.5971 87.1876C15.3471 88.279 16.127 89.4275 16.9662 90.4295C17.1143 90.327 17.1539 90.2871 17.2844 90.1608C17.3045 89.8514 16.1446 88.3956 15.8583 87.9854C14.4217 85.8897 12.9715 83.8025 11.5089 81.7248C10.2295 79.9213 8.36117 77.7088 7.52663 75.6605Z" fill="#2F3437"/>
<path d="M98.0359 26.2701C97.0475 26.8741 95.9671 27.4756 94.9613 28.06L95.3884 28.7683L95.8663 29.6222C96.4116 29.3403 98.6247 28.2214 98.8875 27.8128C98.8258 27.6046 98.8195 27.6061 98.7014 27.4205L98.0359 26.2701Z" fill="#2F3437"/>
<path d="M98.7014 27.4205C98.2405 27.915 96.4032 28.9445 95.7766 29.1659C95.5667 29.0786 95.5496 28.9802 95.3885 28.7683L95.8664 29.6222C96.4117 29.3403 98.6247 28.2214 98.8875 27.8128C98.8259 27.6046 98.8195 27.6061 98.7014 27.4205Z" fill="#4B5053"/>
<path d="M30.3601 70.8171C28.8251 71.7057 27.2846 72.585 25.7392 73.4556C25.8766 73.6748 26.0479 73.9046 26.1984 74.1171C26.8529 73.7075 27.5293 73.2311 28.2699 73.0363C28.4299 73.1272 28.6727 73.3212 28.8227 73.2555C29.4097 72.997 30.5308 72.6104 30.4435 71.8564C30.4349 71.5373 30.3886 71.141 30.3601 70.8171Z" fill="#191E21"/>
<path d="M73.6902 68.0311L73.8489 67.7848L73.8069 67.6489C71.66 65.7204 69.1945 63.2077 67.3586 60.9658C66.8395 60.3319 65.5803 58.1817 65.1303 58.0331L65.0071 58.1011C65.0129 58.343 65.5714 59.0933 65.7444 59.35C67.0048 61.254 68.4576 63.0233 70.0799 64.6301C70.8156 65.3671 72.5307 66.7893 73.0319 67.558C73.1868 67.7695 73.4579 67.8953 73.6902 68.0311Z" fill="#626669"/>
<path d="M70.2935 41.3844L70.2164 41.2838C69.9452 41.3382 69.3466 41.7071 69.0757 41.8584C69.4315 42.504 69.7889 43.1738 70.1695 43.8032C70.381 44.2503 70.5949 44.6319 70.8369 45.0637L72.0316 44.368C71.4303 43.4004 70.9091 42.3558 70.2935 41.3844Z" fill="#2F3437"/>
<path d="M70.2932 41.3843C70.4883 41.9184 71.4506 43.5072 71.7763 44.0697C71.297 44.2474 71.1105 44.3403 70.6619 44.5897C70.5195 44.3526 70.3313 44.016 70.1692 43.8031C70.3807 44.2502 70.5945 44.6318 70.8366 45.0637L72.0313 44.3679C71.43 43.4003 70.9088 42.3557 70.2932 41.3843Z" fill="#4B5053"/>
<path d="M73.2547 39.624C72.8599 39.811 72.4038 40.0679 72.0121 40.276C72.4037 40.9338 72.7901 41.6325 73.171 42.2996C73.3528 42.6907 73.4854 42.9569 73.7012 43.3308C74.0758 43.1255 74.5127 42.9408 74.7844 42.6365C74.7846 42.4684 74.7803 42.4795 74.6986 42.3302C74.3018 41.7669 73.5743 40.261 73.2547 39.624Z" fill="#2F3437"/>
<path d="M73.171 42.2996C73.3528 42.6907 73.4854 42.9568 73.7013 43.3308C74.0758 43.1255 74.5127 42.9407 74.7845 42.6365C74.7846 42.4684 74.7803 42.4795 74.6986 42.3301C74.3537 42.5102 73.9585 42.8098 73.6126 42.8079C73.3975 42.7327 73.298 42.5039 73.171 42.2996Z" fill="#4B5053"/>
<path d="M71.7352 40.4137L70.5472 41.0954C71.0169 41.9028 71.4797 42.7142 71.9357 43.5294L72.1456 43.9143L72.2389 44.0574L72.3685 44.0838C72.7653 43.9308 73.4247 43.7036 73.2883 43.2079C73.2047 43.1009 73.1018 42.9374 73.023 42.8207L71.7352 40.4137Z" fill="#2F3437"/>
<path d="M73.0226 42.8207C72.6508 43.1099 72.3125 43.2553 71.9353 43.5294L72.1452 43.9143L72.2385 44.0573L72.3682 44.0838C72.765 43.9307 73.4243 43.7036 73.2879 43.2079C73.2043 43.1009 73.1014 42.9374 73.0226 42.8207Z" fill="#4B5053"/>
<path d="M77.6371 37.2825L76.3976 37.9462C76.9261 38.7972 77.4908 39.8741 77.9632 40.7635C78.3162 40.5 78.7918 40.2381 79.1776 40.0122C78.7293 39.1393 78.1299 38.1456 77.6371 37.2825ZM76.0927 38.0988C75.7141 38.2964 75.3046 38.539 74.9292 38.7509L75.8811 40.4307C76.0917 40.8785 76.276 41.2287 76.5182 41.6609C76.8328 41.4844 77.427 41.1935 77.6188 40.9239C77.5906 40.7901 77.6072 40.8143 77.5447 40.698C77.0762 39.9414 76.5357 38.8969 76.0927 38.0988Z" fill="#2F3437"/>
<path d="M75.881 40.4308C76.0916 40.8786 76.2759 41.2287 76.5181 41.6609C76.8327 41.4844 77.4269 41.1936 77.6187 40.924C77.5905 40.7902 77.6071 40.8144 77.5446 40.6981C77.0665 40.8816 76.8404 41.0712 76.4481 41.3789C76.2497 41.0046 76.1173 40.7824 75.881 40.4308Z" fill="#4B5053"/>
<path d="M68.7773 42.0084L67.6999 42.6109C68.208 43.4702 68.7077 44.3344 69.1991 45.2034L69.5291 45.83C69.8549 45.6503 70.2661 45.4865 70.4707 45.2155C70.4556 45.0331 70.4482 45.0432 70.3505 44.8845L68.7773 42.0084Z" fill="#2F3437"/>
<path d="M70.3503 44.8846L70.2903 44.8948C69.838 44.9773 69.6266 45.042 69.1989 45.2035L69.529 45.8301C69.8547 45.6504 70.266 45.4866 70.4706 45.2156C70.4555 45.0332 70.4481 45.0433 70.3503 44.8846ZM8.70592 77.0641C9.05603 77.6759 11.2146 81.2552 11.9051 80.8959C12.1403 80.4097 11.8265 79.4147 11.6905 78.8937C10.9902 78.4324 9.25233 77.614 8.9293 77.0009L8.70592 77.0641Z" fill="#4B5053"/>
<path d="M67.4065 42.7671L66.3852 43.2992L67.008 44.315C67.3976 45.0127 67.9486 45.9179 68.2891 46.6128C68.5647 46.4549 69.0046 46.2595 69.1495 46.0159C69.1347 45.7149 69.0923 45.7472 68.9094 45.4507C68.3846 44.5698 67.8834 43.6749 67.4065 42.7671Z" fill="#2F3437"/>
<path d="M67.0081 44.3149C67.3976 45.0127 67.9486 45.9179 68.2892 46.6127C68.5647 46.4549 69.0046 46.2595 69.1495 46.0158C69.1348 45.7149 69.0923 45.7472 68.9094 45.4507C68.6192 45.6121 68.3277 45.7712 68.0348 45.9279C67.6819 45.3911 67.3875 44.8377 67.0081 44.3149Z" fill="#4B5053"/>
<path d="M38.897 63.5566C38.4952 62.7226 38.0628 62.1023 37.5371 61.3459C37.2765 60.9709 37.0639 59.9154 36.6534 59.6907C36.3852 59.7579 36.1427 59.9261 35.9969 60.1612C36.007 60.4962 37.591 63.3188 37.9224 63.6609C38.3551 63.801 38.4309 63.4607 38.7089 63.5683L38.897 63.5566Z" fill="#5D6265"/>
<path d="M74.6286 38.9039L73.5575 39.4695C73.9442 40.2106 74.3058 40.9157 74.7398 41.6309L75.1798 42.4222C75.4867 42.2509 75.951 42.0345 76.1642 41.7843C76.1509 41.6247 76.1671 41.6782 76.1038 41.5324C75.7608 41.0863 74.9446 39.4946 74.6286 38.9039Z" fill="#2F3437"/>
<path d="M74.7398 41.631L75.1798 42.4223C75.4866 42.251 75.951 42.0346 76.1641 41.7844C76.1509 41.6248 76.1671 41.6783 76.1038 41.5325C75.3876 41.8546 75.415 42.282 74.7398 41.631Z" fill="#4B5053"/>
<path d="M77.5664 39.999L78.0044 40.7914C78.3583 40.593 78.8909 40.3371 79.1455 40.063C79.1414 39.8982 79.1559 39.9527 79.095 39.8054C78.2743 40.1879 78.2762 40.63 77.5664 39.999Z" fill="#4B5053"/>
<path d="M81.9845 34.9922C81.7186 35.1385 80.9995 35.4893 80.8598 35.6921C81.2761 36.5046 81.7888 37.3631 82.2464 38.1613C82.6 37.9649 83.0663 37.7771 83.2873 37.4861C83.3273 37.2384 83.2524 37.1793 83.0838 36.9321L81.9845 34.9922Z" fill="#2F3437"/>
<path d="M82.0148 37.6043C81.757 37.157 81.1603 36.0416 80.8595 35.6921C81.2759 36.5046 81.7886 37.3631 82.2462 38.1613C82.5998 37.9649 83.0661 37.7771 83.2871 37.4861C83.327 37.2384 83.2522 37.1793 83.0836 36.9321C82.7027 37.2774 82.4728 37.3693 82.0148 37.6043Z" fill="#4B5053"/>
<path d="M80.4908 35.7938C80.118 35.994 79.7252 36.1772 79.3436 36.3619L80.5212 38.4375L80.8168 39.0261C81.1419 38.84 81.6022 38.6472 81.8262 38.368C81.8724 38.1125 81.8256 38.1459 81.6748 37.8517L80.4908 35.7938Z" fill="#2F3437"/>
<path d="M81.6747 37.8516C81.2969 38.1169 81.066 38.0376 80.5211 38.4374L80.8167 39.026C81.1418 38.8399 81.602 38.6471 81.8261 38.368C81.8723 38.1125 81.8255 38.1458 81.6747 37.8516Z" fill="#4B5053"/>
<path d="M79.0522 36.5319L77.9445 37.154L78.4483 37.9767L79.5105 39.8166L80.14 39.47C80.317 39.3735 80.3224 39.364 80.4182 39.1887C80.4407 38.9633 80.3056 38.8044 80.1846 38.5982C79.8132 37.9062 79.4357 37.2174 79.0522 36.5319Z" fill="#2F3437"/>
<path d="M79.2166 39.1633C79.066 38.9051 78.6429 38.0866 78.4483 37.9767L79.5106 39.8165L80.14 39.4699C80.317 39.3735 80.3224 39.3639 80.4182 39.1887C80.4408 38.9632 80.3057 38.8044 80.1846 38.5981C79.9732 38.8842 79.5626 39.0102 79.2166 39.1633Z" fill="#4B5053"/>
<path d="M83.4717 34.2054L82.3039 34.8226L83.167 36.305C83.3305 36.6576 83.4756 36.9457 83.6608 37.2873C84.0212 37.1002 84.464 36.9292 84.6848 36.6129C84.7048 36.4271 84.6543 36.3843 84.562 36.217L83.4717 34.2054Z" fill="#2F3437"/>
<path d="M83.1671 36.305C83.3306 36.6576 83.4756 36.9457 83.6609 37.2873C84.0212 37.1002 84.4641 36.9292 84.6848 36.6128C84.7049 36.4271 84.6544 36.3843 84.5621 36.217C84.2341 36.3862 83.7858 36.7652 83.4926 36.6805C83.3532 36.6402 83.2708 36.4537 83.1671 36.305Z" fill="#4B5053"/>
<path d="M34.5305 65.63C33.182 66.3809 31.7972 67.2095 30.4565 67.9859L30.8702 68.7574L34.1133 66.8618C34.2329 66.4327 34.3785 66.0472 34.5305 65.63Z" fill="#2D3134"/>
<path d="M18.8978 86.2065C17.9942 86.7259 17.0969 87.2548 16.2049 87.793C16.5463 88.3361 17.0243 88.9712 17.4028 89.5021C17.4761 89.5434 17.4319 89.5325 17.5386 89.5096C17.8708 88.8901 18.6039 86.9338 18.8978 86.2065Z" fill="#2F3437"/>
<path d="M57.8108 53.0375L56.1324 54.0556C56.4267 54.5601 56.8011 55.2473 57.1262 55.714C57.2408 55.6741 57.2918 55.4985 57.3677 55.3526C57.8911 54.7186 58.2815 54.8536 58.9662 55.0655L57.8108 53.0375Z" fill="#191E21"/>
<path d="M86.3177 32.663L85.1515 33.3159L86.4768 35.5853C86.8712 35.3954 87.2377 35.1746 87.6157 34.9545C87.1897 34.1802 86.7749 33.4198 86.3177 32.663ZM84.8539 33.4562L83.7894 34.0563C84.1397 34.7858 84.6921 35.7163 85.0964 36.4394L86.2223 35.7892C85.9049 35.263 85.591 34.7347 85.2807 34.2043L84.8539 33.4562Z" fill="#2F3437"/>
<path d="M83.7894 34.0563C84.1397 34.7857 84.6922 35.7162 85.0965 36.4393L86.2224 35.7891C85.9049 35.2629 85.5911 34.7346 85.2808 34.2042C85.4241 34.5704 85.7391 35.1229 85.9336 35.4874C85.4949 35.6297 85.2956 35.7267 84.8837 35.9276C84.5896 35.3624 84.1676 34.5525 83.7894 34.0563Z" fill="#4B5053"/>
<path d="M51.0064 62.9505L49.852 63.6518C50.5354 64.6959 51.1779 65.7662 51.778 66.8603L52.3528 66.4882C52.6444 66.3369 52.9967 66.2062 53.104 65.9138C53.0173 65.7488 52.9896 65.7625 52.8142 65.6797C51.3234 65.4513 50.5738 64.4223 51.0064 62.9505Z" fill="#2D3134"/>
<path d="M52.8096 65.753C52.4866 65.7469 52.3347 65.7464 52.1364 66.038L52.1539 66.1593C52.3052 66.2538 52.2926 66.2549 52.47 66.2499L52.3531 66.4883C52.6447 66.337 52.997 66.2063 53.1043 65.9138C53.0176 65.7489 52.9899 65.7626 52.8145 65.6798L52.8096 65.753Z" fill="black"/>
<path d="M52.8145 65.6797L52.8096 65.7529L52.8864 65.9128C52.8029 66.1018 52.658 66.1468 52.47 66.2499L52.3532 66.4883C52.6448 66.3369 52.997 66.2062 53.1043 65.9138C53.0176 65.7489 52.9899 65.7625 52.8145 65.6797Z" fill="#2D3134"/>
<path d="M87.7917 31.8774L86.6419 32.5154C87.0581 33.2417 87.4843 34.0144 87.9128 34.729C88.1688 34.6366 88.8718 34.3161 88.9362 34.0495C88.9643 33.9332 88.8705 33.8333 88.7987 33.7027C88.4499 33.1016 88.1141 32.493 87.7917 31.8774Z" fill="#2F3437"/>
<path d="M88.7987 33.7028C88.4452 34.3273 88.0409 33.9365 87.9128 34.7291C88.1688 34.6367 88.8717 34.3162 88.9361 34.0495C88.9642 33.9333 88.8704 33.8334 88.7987 33.7028Z" fill="#4B5053"/>
<path d="M89.1647 31.1357C88.8151 31.3305 88.4597 31.5442 88.1131 31.7469L88.7185 32.7906C88.9033 33.1929 89.0868 33.5373 89.2969 33.9272C89.6472 33.7359 90.0768 33.5746 90.2857 33.2828C90.2968 33.0119 90.272 33.0667 90.1198 32.7878L89.1647 31.1357Z" fill="#2F3437"/>
<path d="M88.7188 32.7906C88.9035 33.1929 89.0871 33.5373 89.2972 33.9272C89.6474 33.736 90.077 33.5746 90.2859 33.2828C90.2971 33.0119 90.2722 33.0667 90.12 32.7878L90.1098 32.9593C89.9799 33.2048 89.4913 33.4346 89.2227 33.5878C89.0568 33.3026 88.9003 33.0633 88.7188 32.7906Z" fill="#4B5053"/>
<path d="M60.0852 62.4208L59.995 62.5781C60.0918 63.0953 61.741 65.0838 62.1516 65.6047C63.572 67.4044 65.273 69.0606 66.9581 70.6114C67.6099 71.2112 68.3569 71.937 69.08 72.4407L69.1479 72.3574C68.963 72.0666 67.6374 70.9092 67.2889 70.603C64.4534 68.1059 62.197 65.5561 60.0852 62.4208Z" fill="#626669"/>
<path d="M93.2207 28.9381C92.8831 29.1036 92.4208 29.2507 92.2163 29.5232C92.1986 29.7797 92.2342 29.7359 92.403 30.0081L93.3085 31.6013C93.6695 31.3954 94.046 31.2482 94.2806 30.9395C94.2918 30.7018 94.3028 30.8219 94.1614 30.5678L93.2207 28.9381Z" fill="#2F3437"/>
<path d="M93.1927 31.2588C92.9765 30.8558 92.7174 30.3202 92.4032 30.0081L93.3088 31.6014C93.6697 31.3955 94.0463 31.2483 94.2808 30.9396C94.292 30.7019 94.303 30.8219 94.1617 30.5679C94.1211 30.8101 93.4372 31.1203 93.1927 31.2588Z" fill="#4B5053"/>
<path d="M91.8063 29.6812L90.7524 30.2402L91.1038 30.837L91.9612 32.3399C92.2386 32.1952 92.7412 31.9973 92.9018 31.7659C92.898 31.4667 92.8135 31.4224 92.65 31.14L91.8063 29.6812Z" fill="#2F3437"/>
<path d="M91.8109 31.9189C91.5965 31.5435 91.4005 31.1436 91.1037 30.8369L91.9611 32.3399C92.2385 32.1952 92.7411 31.9972 92.9018 31.7659C92.8979 31.4667 92.8134 31.4224 92.6499 31.14C92.7015 31.2965 92.6998 31.2911 92.7025 31.4562C92.4995 31.6783 92.1097 31.7904 91.8109 31.9189Z" fill="#4B5053"/>
<path d="M90.4636 30.3977L89.5168 30.9491C89.7444 31.5045 90.3563 32.5129 90.681 33.0788C90.999 32.9269 91.4512 32.7777 91.5838 32.4734C91.5526 32.2678 91.5152 32.2393 91.405 32.0639L90.4636 30.3977Z" fill="#2F3437"/>
<path d="M89.5166 30.9492C89.7442 31.5046 90.3561 32.513 90.6808 33.0789C90.9987 32.927 91.4509 32.7778 91.5835 32.4735C91.5523 32.2679 91.5149 32.2394 91.4047 32.0639C91.4016 32.2032 91.404 32.1612 91.3592 32.2971C91.1097 32.4675 90.7915 32.5048 90.4876 32.5702C90.1743 32.0251 89.8668 31.4709 89.5166 30.9492Z" fill="#4B5053"/>
<path d="M56.9866 56.2532C56.8151 56.3019 55.6679 57.0424 55.4914 57.1961C55.5912 57.3249 55.637 57.3827 55.7152 57.5263L55.7713 57.6301C56.133 57.6564 57.4766 56.8234 57.91 56.6041L57.9336 56.5526C58.1352 56.4904 58.2109 56.5425 58.3715 56.5032C58.8534 56.3866 59.2585 55.9926 59.1582 55.4611C58.7568 55.2025 57.7664 56.2469 56.9866 56.2532ZM38.3501 56.7046C37.9881 56.9375 37.4935 57.1621 37.5135 57.6308C37.5613 57.696 37.7987 57.9251 37.8804 57.8871C38.954 57.3874 39.8404 56.7592 40.9691 56.3323C41.2506 56.2009 41.7196 56.03 41.8612 55.7768L41.8126 55.6457L41.6545 55.5943C41.2 55.7302 39.6932 56.6128 39.192 56.8914C38.8486 56.7185 38.7284 56.7274 38.3501 56.7046Z" fill="#2D3134"/>
<path d="M40.4077 60.3083C39.9989 59.7075 39.8082 58.9873 39.4268 58.3924C39.3867 58.3296 39.2372 58.3131 39.1662 58.296C38.9156 58.3751 39.0057 58.302 38.8681 58.4977C38.8757 59.1419 39.6624 60.3022 40.0831 60.8191C40.2101 60.9749 40.5412 61.1196 40.7323 61.1948C40.7782 60.8348 40.5927 60.6113 40.4077 60.3083Z" fill="#2D3134"/>
<path d="M67.6142 46.1342C67.2232 45.4562 66.5858 44.1771 66.1258 43.6171C65.9417 43.5974 65.9436 43.6488 65.7433 43.7781C65.9078 44.2303 67.2075 46.4639 67.5082 46.8754C67.7069 46.9369 67.6063 46.9332 67.8202 46.8654C67.9867 46.6173 67.7597 46.3859 67.6142 46.1342Z" fill="#2F3437"/>
<path d="M65.7432 43.7781C65.9078 44.2303 67.2075 46.4639 67.5082 46.8754C67.7069 46.9369 67.6063 46.9332 67.8201 46.8654C67.9866 46.6173 67.7596 46.3859 67.6142 46.1342C67.4205 46.2603 67.4398 46.2808 67.2246 46.3008C66.7457 45.6695 66.2851 44.4379 65.7432 43.7781Z" fill="#4B5053"/>
<path d="M109.045 21.2147C108.849 20.8529 108.394 19.9239 107.873 20.1171C107.75 20.5069 108.134 20.8933 108.359 21.1708C108.532 21.5053 108.752 21.9012 108.91 22.2362C109.007 22.5141 108.991 22.5681 109.265 22.5795C109.663 22.2196 109.463 21.9308 109.234 21.5477L109.045 21.2147Z" fill="#2F3437"/>
<path d="M109.045 21.2147C108.908 21.3282 108.823 21.4147 108.655 21.48C108.561 21.3657 108.471 21.2669 108.359 21.1708C108.532 21.5053 108.752 21.9013 108.91 22.2362C109.007 22.5141 108.991 22.5682 109.265 22.5796C109.663 22.2197 109.463 21.9308 109.234 21.5478L109.045 21.2147Z" fill="#4B5053"/>
<path d="M40.4076 60.3083C40.5926 60.6113 40.7781 60.8348 40.7323 61.1948C41.5592 61.483 42.1733 61.5246 43.0493 61.4851C43.1379 61.2969 43.3674 61.2578 43.5525 61.1979C43.2162 60.9248 43.227 61.0145 42.7643 61.0048C41.8144 60.9846 41.2021 60.8538 40.4076 60.3083Z" fill="#2D3134"/>
<path d="M100.893 27.5309C100.454 27.8525 100.136 28.0662 99.6715 28.3492C99.8022 28.5993 99.96 28.8553 100.104 29.0997C100.965 28.8799 101.063 28.3573 100.893 27.5309ZM27.8259 76.4655L26.8432 77.0328C26.9935 77.3266 27.1337 77.5681 27.3015 77.8495L28.3189 77.3248L27.8259 76.4655Z" fill="#191E21"/>
<path d="M40.6709 57.8491C40.5172 57.9351 40.0866 58.2089 39.9536 58.2074C40.1199 57.5766 41.796 57.1881 41.7953 56.6911C41.6395 56.4682 41.7371 56.5167 41.5282 56.4764C41.0817 56.7802 40.7856 57.1998 40.3639 57.5451C40.1155 57.7485 39.8284 57.8004 39.6832 58.0338C39.7394 58.1647 39.7928 58.2934 39.8557 58.4212C40.2007 58.2216 40.3905 58.1364 40.6709 57.8491Z" fill="#2F3437"/>
<path d="M58.0818 60.9162C58.2785 61.5343 57.84 62.7118 58.2001 62.9524C58.3046 62.9485 58.4826 62.9487 58.5684 62.8991C59.1165 62.5811 58.2505 61.2217 58.0818 60.9162Z" fill="#2D3134"/>
<path d="M52.7119 61.7594C52.3944 61.9597 52.3485 61.915 52.218 62.1953C52.2512 62.8088 52.7193 63.1991 53.1546 63.6462L53.2047 63.6312C52.7345 62.8918 52.7436 62.6235 52.7119 61.7594ZM64.2467 49.7064C64.1888 49.706 64.1314 49.7171 64.0777 49.7389C64.024 49.7608 63.9752 49.793 63.934 49.8337C63.8928 49.8745 63.8601 49.9229 63.8376 49.9764C63.8152 50.0298 63.8035 50.0871 63.8032 50.145C63.8045 50.2608 63.8512 50.3714 63.9333 50.453C64.0155 50.5347 64.1264 50.5807 64.2422 50.5813C64.358 50.5818 64.4693 50.5368 64.5522 50.456C64.6351 50.3752 64.683 50.265 64.6854 50.1493C64.6856 50.0914 64.6745 50.034 64.6526 49.9805C64.6307 49.9269 64.5985 49.8781 64.5578 49.837C64.517 49.7959 64.4686 49.7632 64.4152 49.7408C64.3619 49.7184 64.3046 49.7067 64.2467 49.7064Z" fill="#4B5053"/>
<path d="M109.614 20.167C109.399 20.4434 109.405 20.3497 109.402 20.6346C109.631 20.968 109.988 21.7127 110.287 21.8429C110.359 21.4816 109.81 20.5405 109.614 20.167Z" fill="#4B5053"/>
<path d="M62.864 45.233C62.8218 45.8621 63.6925 47.2025 64.0955 47.6726L64.1687 47.6379C63.7491 46.762 63.3791 46.0548 62.864 45.233Z" fill="#626669"/>
<path d="M38.6264 57.977C38.4024 58.086 38.1354 58.1902 37.9674 58.3653C38.3085 58.3841 39.4637 57.6991 39.8238 57.4934C40.0472 57.3594 40.1696 57.2725 40.3759 57.1128L40.3563 57.0707C39.7624 57.3296 39.1978 57.6658 38.6264 57.977Z" fill="#2D3134"/>
<path d="M38.8972 63.5566L38.7091 63.5683C38.8415 63.9733 39.565 65.0897 39.8458 65.4327C39.8308 65.0785 39.1129 63.9235 38.8972 63.5566Z" fill="#797E81"/>
<path d="M25.3958 73.6569C25.2224 73.757 25.1209 73.7916 25.0255 73.9666C25.0233 74.1852 25.2184 74.4066 25.3525 74.6C25.5287 74.5207 25.628 74.4958 25.7498 74.345C25.7396 74.0702 25.5714 73.9182 25.3958 73.6569Z" fill="#191E21"/>
<path d="M55.3584 57.2575C55.0764 57.4041 54.8449 57.4774 54.732 57.7561C54.8358 57.9746 54.8091 57.9096 55.0337 58.0669C55.3469 57.9262 55.3864 57.9746 55.5166 57.7378C55.4676 57.5766 55.4148 57.4168 55.3584 57.2575Z" fill="#2D3134"/>
<path d="M109.614 20.1669C109.467 19.9146 109.396 19.7281 109.146 19.5878L109.026 19.5846C108.905 19.8619 109.026 20.0649 109.175 20.2906C109.249 20.406 109.325 20.5206 109.402 20.6345C109.405 20.3496 109.399 20.4433 109.614 20.1669Z" fill="#2F3437"/>
<path d="M101.546 27.5258C101.295 27.6797 101.226 27.6854 101.168 27.9618C101.267 28.1781 101.357 28.205 101.561 28.3287C101.7 28.287 101.691 28.2922 101.789 28.1846C101.813 27.9442 101.666 27.7455 101.546 27.5258Z" fill="#191E21"/>
<path d="M57.4117 52.7691C56.9995 53.0022 56.398 53.3189 56.0409 53.5978L56.0514 53.7032L56.1573 53.6883C56.5865 53.4443 57.2022 53.1189 57.5803 52.8267L57.5757 52.7422L57.4117 52.7691Z" fill="#2F3336"/>
<path d="M38.8137 49.6498C38.5482 49.7713 38.3546 49.8379 38.367 50.154C38.4654 50.1932 38.4569 50.1758 38.5773 50.1673C38.7738 50.059 38.9309 49.9921 39.0829 49.8266C39.0127 49.6703 39.0556 49.7431 38.8137 49.6498Z" fill="#191E21"/>
<path d="M58.1847 55.158L58.1303 55.1817C57.8534 55.3036 57.7327 55.3478 57.6285 55.616L57.6915 55.756L57.859 55.6616C58.0667 55.5432 58.2549 55.474 58.3111 55.2698L58.1847 55.158Z" fill="#2D3134"/>
<path d="M36.1876 61.3355C36.1256 61.7025 36.7272 62.4698 36.9727 62.749L37.0068 62.7237C36.727 62.2095 36.5073 61.8236 36.1876 61.3355Z" fill="#5D6265"/>
<path d="M95.5245 19.3544C93.5687 18.6286 93.5582 20.9575 93.298 22.3573C93.1195 23.3846 92.5109 26.199 92.6144 26.9975L92.6183 27.0257C93.3163 27.9891 94.2329 29.1632 94.8147 30.1757C95.0362 29.6449 95.21 29.8743 95.1745 29.1798C94.8784 28.6361 94.0141 27.8556 94.3802 27.3391C95.3984 26.8304 96.3975 26.2163 97.3705 25.6239L98.0502 25.7818C98.4173 26.2702 98.709 26.5987 99.0007 27.141L99.1654 27.4281L99.4849 28.1221C100.403 27.4437 100.82 27.6219 100.077 26.477C99.799 25.8233 99.7904 25.5394 99.04 25.375C98.6546 24.8416 98.1752 23.9464 97.8302 23.3558C97.0494 22.0292 96.2805 20.6955 95.5245 19.3544ZM94.8753 22.148C95.3268 22.9681 95.4719 23.6611 96.5237 23.1866L96.6315 23.139L96.6984 23.1083L97.4411 24.3518C96.6505 24.8192 95.8561 25.2812 95.0593 25.7381L93.368 26.709C93.4021 26.1533 93.8451 22.6885 94.1562 22.5L94.8753 22.148ZM95.9885 21.4275C96.2446 21.8875 96.4469 22.2656 96.6694 22.7416L95.9355 23.0233C95.6968 22.87 95.362 22.1843 95.2041 21.895L95.9885 21.4275Z" fill="black"/>
<path fill-rule="evenodd" clip-rule="evenodd" d="M95.5247 19.3543C93.5687 18.6283 93.5584 20.9576 93.2983 22.3575C93.1198 23.3848 92.511 26.1989 92.6144 26.9974L92.6178 27.0261C93.3159 27.9895 94.233 29.1628 94.8147 30.1753C94.9543 30.6009 94.7356 30.575 94.7728 31.0285C94.9141 31.2005 95.0131 31.1986 95.2027 31.3022L95.256 31.3017L95.3082 31.3504C95.5746 31.5938 95.9153 31.821 96.2476 31.5348C96.2987 31.1665 96.0507 30.8811 95.8421 30.5923L95.8822 30.4445C96.0057 30.4044 95.9657 30.4424 96.0184 30.3502C95.6507 29.7875 95.5948 29.702 95.1747 29.1796C94.8786 28.636 94.0143 27.8558 94.3805 27.3394C95.3988 26.8307 96.3976 26.2165 97.3705 25.6242L98.0507 25.7821C98.4178 26.2705 98.7094 26.5986 99.0011 27.1409L99.1654 27.4281L99.4845 28.1218C100.403 27.4434 100.821 27.6223 100.077 26.4774C99.7992 25.8234 99.7909 25.5394 99.0403 25.3749C98.6549 24.8415 98.1749 23.9465 97.8299 23.3558C97.049 22.0292 96.2807 20.6953 95.5247 19.3543ZM93.9988 22.1234C94.4724 21.9037 95.8215 21.0661 96.1442 21.1113C96.4887 21.4909 98.6803 25.4702 98.7449 25.8858L98.5978 26.0002L98.461 25.973C98.1464 25.4859 98.0319 25.1192 97.6641 24.5691C97.0584 25.1985 94.718 26.2047 93.8977 26.884C93.8464 26.9487 93.8841 26.9148 93.7607 26.9516C93.6516 26.8694 93.5408 26.7893 93.4285 26.7115C93.33 27.1539 94.0004 27.6985 94.0617 28.1449L93.9524 28.1898C93.5737 28.0138 93.2319 27.2054 93.0047 26.7814C92.987 25.8109 93.4063 23.881 93.5583 22.8495C93.6171 22.4509 93.6761 22.3291 93.9988 22.1234Z" fill="#4B5053"/>
<path d="M37.0692 59.2916C37.399 59.741 37.8643 60.7429 38.1745 61.2842C38.7844 62.3487 39.5218 63.4417 40.0917 64.5131C40.3071 64.5968 40.2104 64.6049 40.3975 64.5564L40.5229 64.8009C40.632 65.0047 40.8343 65.355 40.9066 65.5593L40.726 65.6625L40.6033 65.6081C40.4452 65.4133 39.8535 64.4531 39.7386 64.214C39.1928 63.0812 37.1459 60.4115 37.0692 59.2916Z" fill="#2D3134"/>
<path d="M86.0336 34.805L86.4727 35.5969C86.8026 35.4123 87.3813 35.2163 87.6147 34.9544C87.606 34.7922 87.5404 34.8065 87.4783 34.6599C86.7109 35.0116 86.7258 35.4462 86.0336 34.805Z" fill="#4B5053"/>
</svg>
