<svg width="160" height="46" viewBox="0 0 160 46" fill="none" xmlns="http://www.w3.org/2000/svg">
<g clip-path="url(#clip0_184_272)">
<path d="M60.3142 1.5H76.4273C78.651 1.5 80.4536 9.2874 80.4536 18.8936V26.1808C80.4536 35.787 78.651 43.5744 76.4273 43.5744H60.3142C58.0905 43.5744 56.2879 35.787 56.2879 26.1808V18.8936C56.2879 9.2874 58.0905 1.5 60.3142 1.5Z" fill="#0ACEF9" stroke="#1283A6" stroke-width="3" stroke-linecap="round"/>
<path d="M156.91 24.8557L156.061 25.3566C156.019 25.3844 155.976 25.3844 155.934 25.3844H56.4505C56.2807 25.3844 56.1533 25.2174 56.1533 25.0226V19.3451C56.1533 19.1503 56.2807 18.9833 56.4505 18.9833H155.615C155.679 18.9833 155.722 19.0111 155.764 19.039L156.677 19.7626C156.719 19.7904 156.783 19.8183 156.826 19.8183H157.547C157.717 19.8183 157.845 19.9853 157.845 20.1801V24.466C157.845 24.6608 157.717 24.8278 157.547 24.8278H157.017C156.996 24.8278 156.953 24.8279 156.91 24.8557Z" fill="#4A4541" stroke="#191815" stroke-width="3" stroke-miterlimit="10"/>
<path d="M56.4922 12.8131H26.0502C24.6709 12.8131 23.5528 13.9312 23.5528 15.3105V29.576C23.5528 30.9553 24.6709 32.0734 26.0502 32.0734H56.4922C57.8715 32.0734 58.9896 30.9553 58.9896 29.576V15.3105C58.9896 13.9312 57.8715 12.8131 56.4922 12.8131Z" fill="#8D7B55" stroke="#21190D" stroke-width="3" stroke-linecap="round"/>
<path d="M83.6924 13.3756H52.8104V31.5319H83.6924V13.3756Z" fill="#BEA26D" stroke="#21190D" stroke-width="3" stroke-linecap="round"/>
<path d="M94.0198 13.473V13.476H84.9507C84.2558 13.476 83.6925 14.0393 83.6925 14.7342V30.178C83.6925 30.8729 84.2558 31.4362 84.9507 31.4362H94.0932V31.426L106.796 29.8405C107.426 29.7619 107.898 29.2266 107.898 28.5919V16.0585C107.898 15.4143 107.412 14.8741 106.771 14.8071L94.0932 13.4804V13.4754H94.0514L94.0198 13.473Z" fill="#BEA26D" stroke="#21190D" stroke-width="3" stroke-linecap="round"/>
<path d="M55.1392 16.9255H3.559C2.42185 16.9255 1.5 17.8474 1.5 18.9845V25.6795C1.5 26.8167 2.42185 27.7385 3.559 27.7385H55.1392C56.2764 27.7385 57.1982 26.8167 57.1982 25.6795V18.9845C57.1982 17.8474 56.2764 16.9255 55.1392 16.9255Z" fill="#8D7B55" stroke="#1E1710" stroke-width="3" stroke-linecap="round"/>
<path d="M24.1644 16.4325H21.2991C20.7481 16.4325 20.3014 16.8792 20.3014 17.4302V27.2336C20.3014 27.7846 20.7481 28.2313 21.2991 28.2313H24.1644C24.7154 28.2313 25.1621 27.7846 25.1621 27.2336V17.4302C25.1621 16.8792 24.7154 16.4325 24.1644 16.4325Z" fill="#4F4B46" stroke="#181716" stroke-width="1.5" stroke-linecap="round"/>
<path d="M135.808 18.5029H49.5856C48.8312 18.5029 48.2197 19.1144 48.2197 19.8688V24.7657C48.2197 25.5201 48.8312 26.1316 49.5856 26.1316H135.808C136.562 26.1316 137.174 25.5201 137.174 24.7657V19.8688C137.174 19.1144 136.562 18.5029 135.808 18.5029Z" fill="#4A4541" stroke="#191815" stroke-width="3" stroke-linecap="round"/>
<path d="M81.8781 18.579C81.73 25.8292 81.8781 25.5353 81.8781 25.5353V18.579Z" fill="#4A4541" stroke="#191815" stroke-width="3" stroke-linecap="square"/>
<path d="M86.9639 18.579C86.8158 25.8292 86.9639 25.5353 86.9639 25.5353V18.579Z" fill="#4A4541" stroke="#191815" stroke-width="3" stroke-linecap="square"/>
<path d="M103.618 18.2101C103.47 25.4603 103.618 25.1664 103.618 25.1664V18.2101Z" fill="#4A4541" stroke="#191815" stroke-width="3" stroke-linecap="square"/>
<path d="M109.351 18.2955C109.203 25.5457 109.351 25.2518 109.351 25.2518V18.2955Z" fill="#4A4541" stroke="#191815" stroke-width="3" stroke-linecap="square"/>
<path d="M115.326 18.2328C115.178 25.483 115.326 25.1891 115.326 25.1891V18.2328Z" fill="#4A4541" stroke="#191815" stroke-width="3" stroke-linecap="square"/>
<path d="M121.059 18.3183C120.911 25.5685 121.059 25.2746 121.059 25.2746V18.3183Z" fill="#4A4541" stroke="#191815" stroke-width="3" stroke-linecap="square"/>
<path d="M129.975 21.3017H133.298C133.753 21.3017 134.121 21.5028 134.121 21.7509V22.9291C134.121 23.1772 133.753 23.3783 133.298 23.3783H129.975C129.521 23.3783 129.152 23.1772 129.152 22.9291V21.7509C129.152 21.5028 129.521 21.3017 129.975 21.3017Z" fill="#4A4541" stroke="#171717" stroke-width="1.5" stroke-linecap="round"/>
<path d="M32.76 15.6659H43.9657C44.0299 15.6659 44.082 15.9816 44.082 16.371V28.5155C44.082 28.9049 44.0299 29.2206 43.9657 29.2206H32.76C32.6958 29.2206 32.6437 28.9049 32.6437 28.5155V16.371C32.6437 15.9816 32.6958 15.6659 32.76 15.6659Z" fill="#4A4541" stroke="#171717" stroke-width="1.5" stroke-linecap="round"/>
<path d="M30.0619 16.6799L35.0156 19.2708C35.2738 19.4058 35.4356 19.6731 35.4356 19.9644V25.1536C35.4356 25.462 35.2545 25.7417 34.9731 25.8678L30.0194 28.0886C29.5015 28.3208 28.9165 27.9419 28.9165 27.3744V17.3735C28.9165 16.7854 29.5408 16.4073 30.0619 16.6799Z" fill="#4F4B46" stroke="#181716" stroke-width="1.5" stroke-linecap="round"/>
<path d="M43.6292 16.275H33.9427V28.3888H43.6292V16.275Z" fill="#957840" stroke="#211B0D" stroke-width="1.5" stroke-linecap="round"/>
<path d="M42.8805 20.2457H34.6913V24.6408H42.8805V20.2457Z" fill="#B7944F"/>
</g>
<defs>
<clipPath id="clip0_184_272">
<rect width="159.345" height="45.0743" fill="white"/>
</clipPath>
</defs>
</svg>
