<svg width="202" height="22" viewBox="0 0 202 22" fill="none" xmlns="http://www.w3.org/2000/svg">
<path d="M83.2471 0.612976C84.6519 0.504266 87.0315 0.515173 88.9287 0.558289L90.6104 0.608093L91.0566 0.625671L91.0898 1.07098C91.1313 1.63211 91.1368 2.17239 91.1504 2.70673C91.1562 2.92521 91.124 3.15244 91.0889 3.35321C91.0474 3.5904 91.0155 3.73045 90.9805 3.94305C90.9497 4.1302 90.9344 4.28372 90.9404 4.40887C90.9412 4.42597 90.9428 4.44185 90.9443 4.45673C91.0601 4.4663 91.2051 4.47488 91.374 4.48016C91.7379 4.49154 92.1918 4.49195 92.6602 4.48798C93.1273 4.48401 93.6044 4.47577 94.0146 4.46747C94.2983 4.46172 94.5533 4.45705 94.749 4.4538C95.9313 3.18733 97.1159 2.67569 98.4082 2.51532C99.0651 2.43383 99.7398 2.44416 100.432 2.47821C101.142 2.51316 101.836 2.57052 102.625 2.59637L109.771 2.82391H109.771L130.989 3.41376H130.99C134.89 3.52985 139.811 3.83868 143.674 3.70575C143.803 3.39962 143.962 3.093 144.19 2.83954C144.522 2.47291 144.966 2.25143 145.568 2.2038C146.134 2.15886 146.97 2.1763 147.602 2.58563L147.726 2.67255L147.792 2.7243L147.839 2.79462C148.067 3.143 148.129 3.51011 148.152 3.83173C148.735 3.83099 149.272 3.83608 149.752 3.87469C150.359 3.92353 150.919 4.02529 151.396 4.25262C151.89 4.48736 152.278 4.84796 152.545 5.37177C152.726 5.72694 152.844 6.1459 152.913 6.63251C152.99 6.62069 153.069 6.61336 153.148 6.612L153.593 6.61102L154.032 6.62079L154.045 6.62177L154.059 6.62274L154.172 6.63251L154.191 6.63446C154.802 6.71179 155.349 7.11621 155.579 7.70966H160.869C161.18 7.29541 161.673 7.02547 162.229 7.01727C162.536 7.01286 162.812 7.01645 163.111 7.02509H163.112C163.631 7.04035 164.126 7.29292 164.44 7.71063L170.469 7.71161C170.469 7.70934 170.469 7.70706 170.469 7.70477C170.468 7.54082 170.471 7.36226 170.499 7.18231C170.561 6.79011 170.735 6.43637 171.112 6.0993L171.222 6.00165L171.367 5.97821C171.974 5.88234 172.999 5.85824 173.996 5.85516C174.99 5.85211 176.054 5.87115 176.669 5.87177L186.444 5.88446L195.432 5.86786L196.479 5.86102C197.571 5.85243 198.766 5.85013 199.799 5.9577H199.798C200.235 6.00295 200.573 6.30368 200.789 6.54071C201.02 6.79353 201.213 7.08878 201.336 7.27216L201.411 7.38446L201.42 7.51923C201.538 9.38439 201.57 12.678 201.21 14.5134V14.5143C201.091 15.1196 200.564 15.4355 200.087 15.6052C199.588 15.7827 198.969 15.866 198.362 15.905C197.163 15.982 195.795 15.8909 195.284 15.8903H195.283L186.821 15.8688V15.8679L177.797 15.8581C177.452 15.8603 176.941 15.8806 176.329 15.9001C175.723 15.9194 175.031 15.9376 174.349 15.9323C173.668 15.927 172.984 15.8988 172.397 15.8239C171.837 15.7524 171.273 15.6284 170.904 15.3757L170.839 15.3307L170.79 15.2682C170.477 14.8604 170.461 14.369 170.473 14.0026L164.404 14.0036C164.139 14.3634 163.737 14.6264 163.253 14.6911L163.241 14.6931L163.229 14.694L163.104 14.7048L163.088 14.7067H163.07L162.661 14.7136H162.655C162.518 14.7141 162.382 14.7134 162.246 14.7116C161.678 14.704 161.181 14.4253 160.868 14.0056L155.551 14.0065C155.333 14.5656 154.833 15.0051 154.186 15.0954L154.173 15.0974L154.159 15.0983L154.034 15.1091L154.019 15.111H154.002L153.586 15.1198H153.578C153.437 15.1205 153.298 15.119 153.162 15.1169C153.114 15.1161 153.066 15.1117 153.02 15.1071C152.975 15.5127 152.878 15.8915 152.683 16.2575C152.388 16.8099 151.901 17.2784 151.185 17.7819L151.092 17.8474L150.979 17.8659C150.464 17.9517 149.689 17.9394 149.103 17.9606C148.788 17.972 148.515 17.9916 148.301 18.0309C148.222 18.0454 148.163 18.0612 148.119 18.0749C148.076 18.4206 148 18.7157 147.867 18.9538C147.685 19.2812 147.415 19.472 147.095 19.5534C146.811 19.6255 146.501 19.607 146.231 19.5817C146.082 19.5677 145.94 19.5504 145.794 19.5349L145.329 19.4958C144.713 19.461 144.287 19.0038 144.046 18.6862C143.915 18.5137 143.807 18.3403 143.73 18.2145C143.725 18.2064 143.72 18.1987 143.716 18.1911C129.926 18.5148 116.136 19.0758 102.336 19.487C101.589 19.5095 100.926 19.5645 100.224 19.5964C99.5441 19.6272 98.871 19.633 98.2188 19.5427C96.9399 19.3655 95.7767 18.8217 94.7305 17.4919C94.5129 17.4866 94.2413 17.4806 93.9492 17.4704C93.523 17.4555 93.0391 17.4397 92.5684 17.4372C92.095 17.4347 91.6471 17.4456 91.292 17.4802C91.1198 17.4969 90.9805 17.5179 90.876 17.5427C90.8753 17.5665 90.8776 17.5904 90.8848 17.6208L90.9824 18.0739C91.1798 19.0926 91.1671 19.8782 91.127 20.9509L91.1094 21.4284L90.6318 21.4323C88.2405 21.4524 85.6777 21.514 83.2734 21.4304L82.8184 21.4138L82.791 20.9597C82.7581 20.4056 82.6727 19.7589 82.6797 19.1911C82.6855 18.7179 82.7519 18.237 82.9551 17.7468C82.9381 17.7433 82.9204 17.7383 82.9014 17.735C82.6305 17.6886 82.2573 17.6783 81.8359 17.6901C81.4201 17.7018 80.9873 17.7337 80.6016 17.7614C80.2344 17.7878 79.8742 17.813 79.6523 17.8024V17.8015C78.6121 17.7525 77.8708 17.6099 77.1934 17.2927C76.5725 17.002 76.0357 16.5774 75.3906 16.0261C69.7302 16.0128 64.0849 16.0791 58.4219 16.1677C57.3416 16.1849 56.2826 16.3128 55.2012 16.4538C54.1274 16.5938 53.0252 16.7474 51.8994 16.8054C51.5236 16.8247 51.2022 16.8084 50.8965 16.654C50.6768 16.543 50.4939 16.3715 50.3145 16.1852C39.3935 16.0859 28.4717 16.1826 17.5391 16.1901H17.5381L12.8242 16.1872H12.8232C9.95702 16.1802 6.89309 16.2738 3.97266 16.0876L3.39062 16.0456C2.7978 15.9997 2.31484 15.5924 1.97656 15.2214C1.62238 14.8328 1.33082 14.3767 1.1377 14.0651L1.11816 14.0329L1.10352 13.9987C0.640731 12.9217 0.421251 11.6119 0.525391 10.3444C0.62948 9.07778 1.06133 7.8118 1.94727 6.86688C2.61362 6.1568 3.35963 6.01531 4.17383 5.96844H4.1748C5.07656 5.91814 5.98614 5.90137 6.89258 5.89716L9.5918 5.90106L50.25 5.91083C50.2546 5.90549 50.2601 5.9005 50.2646 5.8952C50.3209 5.8297 50.4063 5.73133 50.458 5.68329L50.459 5.68231C50.8179 5.35034 51.3301 5.23588 51.8076 5.20087C52.3018 5.16466 52.86 5.20725 53.4043 5.27802C53.9516 5.34919 54.5095 5.45192 55.002 5.54266C55.5048 5.63531 55.9253 5.71222 56.2314 5.74286C58.8538 6.00322 61.1954 5.9244 63.8418 5.93329H63.8447L66.7598 5.95673H66.7588C69.6116 5.97169 72.465 5.96174 75.3184 5.92938C76.6101 4.83989 77.5884 4.37942 78.6787 4.21356C79.2267 4.13021 79.7873 4.1234 80.3955 4.13055C81.0116 4.1378 81.6788 4.15902 82.4902 4.14227H82.4912C82.6127 4.13952 82.7266 4.14259 82.8213 4.14423C82.8588 4.14488 82.8934 4.14308 82.9258 4.14325C82.7547 3.71487 82.6836 3.33004 82.6719 2.92352C82.6638 2.64395 82.683 2.36189 82.708 2.06903C82.7335 1.77031 82.7646 1.45722 82.7861 1.0827L82.8115 0.646179L83.2471 0.612976Z" fill="black" stroke="black"/>
<path d="M200.92 7.55068C201.038 9.4115 201.066 12.6503 200.72 14.4178C200.457 15.7567 196.423 15.3911 195.285 15.3898L186.823 15.3684L177.795 15.3583C176.383 15.3672 172.231 15.6785 171.188 14.9637C170.886 14.5704 170.98 14.0257 170.991 13.5025L152.527 13.5088C152.62 15.4264 152.58 16.1904 150.897 17.373C149.951 17.5305 148.093 17.3175 147.649 17.7701C147.52 19.52 146.736 19.0737 145.357 18.9968C144.548 18.9514 144.076 17.6831 143.96 17.6856C130.084 18.0084 116.198 18.5732 102.321 18.9867C99.3474 19.0762 96.9849 19.7204 94.9828 16.9998C94.0852 16.9998 90.9662 16.7716 90.4379 17.1876C90.3888 17.3843 90.3497 17.5305 90.3988 17.7373C90.6813 18.9224 90.6737 19.7179 90.6283 20.932C88.2254 20.9521 85.6812 21.0139 83.2909 20.9307C83.2178 19.699 82.9644 18.6601 83.5973 17.5734C83.3552 16.8762 80.4127 17.3389 79.6764 17.3036C77.6643 17.2091 76.9999 16.7539 75.574 15.526C69.8478 15.5109 64.1393 15.5777 58.4144 15.6672C56.1905 15.7025 54.0775 16.1929 51.8738 16.3064C51.1652 16.3429 51.0253 16.2131 50.5311 15.6874C37.9655 15.5701 25.3936 15.7151 12.8255 15.6874C9.74301 15.6798 6.49791 15.7857 3.42931 15.5474C2.64389 15.4869 1.94798 14.4216 1.56346 13.8013C0.703646 11.8006 0.735157 8.89082 2.31232 7.20902C2.84812 6.63792 3.43562 6.51184 4.2034 6.46772C5.98858 6.36812 7.80023 6.4009 9.59172 6.4009L19.2892 6.40468L50.4845 6.41226C50.5437 6.33913 50.7467 6.09707 50.7984 6.04917C51.725 5.19188 54.8566 6.10842 56.1829 6.2408C58.8367 6.50429 61.2157 6.42485 63.8405 6.43368C67.7261 6.47654 71.6128 6.47403 75.4997 6.42865C78.1333 4.15305 79.21 4.71028 82.5017 4.6422C82.9404 4.63211 83.2695 4.69893 83.6515 4.49848C82.948 3.24154 83.1976 2.64648 83.2859 1.11092C85.1265 0.96846 88.7057 1.03528 90.5917 1.1084C90.6321 1.65429 90.6371 2.17623 90.651 2.72086C90.6686 3.38652 90.2198 4.37114 90.5779 4.90695C91.0607 5.06202 94.1949 4.95485 94.9727 4.94981C97.2761 2.35651 99.4508 2.99318 102.609 3.09656L109.756 3.32349L130.976 3.9135C134.956 4.03201 140.087 4.35853 144.019 4.19464C144.324 3.38652 144.631 2.77886 145.609 2.70195C146.196 2.65531 146.937 2.69691 147.421 3.06883C147.679 3.46217 147.646 3.85048 147.679 4.33207C151.05 4.31442 152.596 4.3472 152.487 8.21005L170.975 8.21256C170.983 7.46999 170.861 6.99471 171.446 6.47277C172.57 6.29501 175.389 6.37065 176.669 6.37191L186.446 6.38578L195.432 6.36812C196.785 6.36686 198.404 6.31518 199.747 6.45512C200.235 6.50555 200.664 7.16742 200.92 7.55068Z" fill="black"/>
<path d="M50.5448 7.09303C50.56 9.71659 50.5587 12.3402 50.5398 14.9637L7.62359 14.9914C7.57064 12.4561 7.63242 9.67752 7.64377 7.1233L37.1043 7.07413C41.5231 7.07161 46.1726 7.20523 50.5448 7.09303Z" fill="#46454A"/>
<path d="M45.7326 9.44306C45.8006 10.3873 45.7565 11.5069 45.7426 12.4688C45.0921 13.4597 44.6673 13.9766 43.4217 13.9728C38.5023 13.9615 33.4885 14.1607 28.5943 13.8758C28.1153 13.8468 27.6248 13.0084 27.4332 12.6554C27.3588 12.0906 27.3172 11.5233 27.3122 10.9534C27.2807 9.0762 27.9161 8.1294 29.8714 8.1004C34.5563 8.03232 39.2676 8.00332 43.9524 8.09536C44.758 8.11174 45.309 8.86817 45.7326 9.44306Z" fill="black"/>
<path d="M45.0985 9.91945C45.1288 11.1663 45.3393 12.1535 44.3686 13.0637C42.5153 13.8 31.929 12.949 29.2828 13.2478C28.5452 13.3322 28.2515 12.7309 28.0574 12.0816C27.9716 10.9104 27.7119 9.82617 28.6335 8.94871C30.2951 8.49232 41.6656 8.65622 44.1315 8.85541C44.4921 8.88441 44.9144 9.53998 45.0985 9.91945Z" fill="#787779"/>
<path d="M200.169 7.61624C200.285 8.73324 200.459 13.7547 199.843 14.3876C199.348 14.5414 198.733 14.6599 198.216 14.6624C193.149 14.6838 187.958 14.6611 182.905 14.6574C181.64 14.6561 174.596 14.767 173.889 14.5628L173.794 14.2867C173.771 11.8838 173.774 9.48085 173.803 7.07918L191.081 7.06531L196.358 7.04263C197.322 7.03884 198.337 7.02749 199.301 7.08296C199.655 7.10313 199.907 7.37419 200.169 7.61624Z" fill="#2F2E31"/>
<path d="M111.554 5.68109C111.656 9.03965 111.577 12.8029 111.571 16.1942C108.257 15.4567 104.862 14.8982 101.548 14.1632C99.2035 13.6413 97.7638 13.4736 95.3924 13.5165L92.9289 13.5555C92.8785 11.8826 92.9138 10.0444 92.9125 8.36012C94.3434 8.36012 96.6027 8.5467 97.9542 8.33868C102.36 7.66168 107.251 6.78296 111.554 5.68109Z" fill="#787779"/>
<path d="M171.052 8.901L171.045 12.8042L152.485 12.8307L152.455 8.92368L171.052 8.901Z" fill="#46454A"/>
<path d="M91.2423 10.3471C91.618 12.6756 90.0308 14.8668 87.701 15.2349C85.3711 15.6018 83.1863 14.0057 82.8283 11.6734C82.4727 9.35616 84.0587 7.18646 86.3747 6.82085C88.6919 6.4565 90.8666 8.0324 91.2423 10.3471Z" fill="#787779"/>
<path d="M154.838 9.40936L154.798 13.382C154.793 13.829 154.446 14.2175 153.977 14.2355C153.702 14.2461 153.444 14.2455 153.176 14.2414C152.696 14.234 152.315 13.8409 152.316 13.3644L152.319 12.4426C152.316 11.1728 152.275 9.63978 152.322 8.31464C152.338 7.86068 152.705 7.49412 153.164 7.48651C153.453 7.48172 153.715 7.48572 154.004 7.4953C154.43 7.50966 154.801 7.83945 154.821 8.29218C154.838 8.66546 154.833 9.09077 154.838 9.40057L154.838 9.40936Z" fill="#44464A" stroke="black" stroke-width="0.75"/>
<path d="M163.917 9.60693L163.877 12.9771C163.872 13.4278 163.52 13.8158 163.051 13.8315C162.779 13.8405 162.523 13.8399 162.258 13.8364C161.777 13.8301 161.394 13.4363 161.396 12.9585L161.398 12.229C161.395 11.1539 161.355 9.84915 161.398 8.71533C161.416 8.26013 161.786 7.8988 162.242 7.89209C162.533 7.8879 162.796 7.89151 163.087 7.8999C163.507 7.91226 163.883 8.23336 163.903 8.68799C163.917 8.9967 163.913 9.34821 163.917 9.59717L163.917 9.60693Z" fill="#44464A" stroke="black" stroke-width="0.75"/>
<path d="M156.479 9.74951L163.516 9.78467C163.93 9.7869 164.326 10.0917 164.358 10.5532C164.371 10.7496 164.371 10.9354 164.366 11.1216C164.355 11.5999 163.958 11.969 163.491 11.9683L161.59 11.9663C159.331 11.9692 156.629 12.006 154.336 11.9575C153.898 11.9482 153.51 11.6052 153.499 11.1353C153.495 10.9424 153.5 10.7623 153.511 10.5728C153.537 10.1303 153.897 9.78467 154.336 9.77002C155.026 9.7473 155.851 9.75386 156.474 9.74951H156.479Z" fill="#717173" stroke="black" stroke-width="0.75"/>
<path d="M90.047 10.6862C90.1945 12.3529 88.9729 13.8292 87.3075 13.9943C85.6421 14.1595 84.1544 12.9542 83.9716 11.2901C83.8518 10.1983 84.3271 9.12668 85.2172 8.48245C86.106 7.83948 87.2734 7.72351 88.2732 8.17863C89.2717 8.63501 89.9499 9.59188 90.047 10.6862Z" fill="black"/>
<path d="M89.2692 10.2839C89.6298 11.5106 88.9414 12.799 87.7211 13.181C86.502 13.5618 85.2009 12.8948 84.8 11.6808C84.5352 10.8777 84.7231 9.99393 85.2917 9.36988C85.8615 8.74456 86.7238 8.47477 87.5484 8.66388C88.3716 8.85425 89.0297 9.47326 89.2692 10.2839Z" fill="#46454A"/>
<path d="M63.3362 14.1594C63.3299 14.6233 63.4005 14.5805 63.195 14.9209C62.4676 15.0545 58.311 14.9461 57.3882 14.9347C57.4298 12.639 57.4399 10.3432 57.4172 8.04615C57.4033 7.65911 57.3592 7.5469 57.5319 7.20524C58.0538 7.02496 62.4563 7.1359 63.3135 7.14473L63.3362 14.1594Z" fill="#787779"/>
<path d="M6.96312 7.08923C7.01607 9.56781 7.00094 12.5141 6.92782 14.9851C5.49186 14.9889 3.7029 15.2247 2.69811 14.2627C1.38696 12.3679 1.00621 7.96921 3.91722 7.151C4.51354 6.98207 6.26342 7.07914 6.96312 7.08923Z" fill="#28272A"/>
<path d="M115.655 9.11778C115.691 11.5018 115.673 13.9325 115.681 16.319L112.261 16.3278L112.253 12.6478L112.266 5.5512C113.389 5.54363 114.511 5.54616 115.635 5.55751L115.655 9.11778Z" fill="#46454A"/>
<path d="M119.314 8.01717L119.239 17.0212C118.203 17.1271 117.402 17.0943 116.357 17.0704L116.365 14.1922C116.358 11.2761 116.275 7.7751 116.403 4.90444C117.464 4.84771 118.166 4.87167 119.233 4.92714C119.324 5.82982 119.303 7.0855 119.314 8.01717Z" fill="#46454A"/>
<path d="M116.071 17.8004L115.916 17.8117C110.226 18.2114 103.984 18.1256 98.2582 18.2832C97.5144 18.3034 96.5726 17.6062 96.0217 17.1259C96.26 16.9355 97.0567 16.9923 97.4488 16.9809C99.4319 16.8637 100.308 16.1841 101.745 14.9423C105.137 15.521 108.631 16.4085 112.029 17.0162C112.736 17.1423 114.452 16.8851 115.283 17.0263C115.713 17.0994 115.753 17.3541 116.071 17.8004Z" fill="#B88550"/>
<path d="M116.133 4.20476L115.508 4.89563C114.482 4.88681 112.514 4.84395 111.567 5.0091C108.244 5.58903 104.97 6.46775 101.623 7.02121C100.134 5.55499 99.4772 5.22216 97.4916 5.05701L95.8135 5.04817C96.3065 4.63214 97.2092 3.88958 97.8231 3.82654C99.6978 3.63365 102.089 3.82275 103.994 3.88201L116.133 4.20476Z" fill="#B88550"/>
<path d="M81.0493 8.49114L81.043 13.5643C79.2036 13.5567 77.3655 13.5643 75.5261 13.5857C75.5198 11.8812 75.5299 10.1767 75.5576 8.47223C77.373 8.49996 79.2301 8.4861 81.0493 8.49114Z" fill="#787779"/>
<path d="M53.6375 6.40094C53.732 9.36615 53.6829 12.5873 53.6841 15.5739L51.2825 15.5563C51.2409 12.518 51.2472 9.47963 51.3026 6.44129C52.0717 6.41608 52.8659 6.41355 53.6375 6.40094Z" fill="#44464A"/>
<path d="M66.6746 7.13977C66.6897 9.73433 66.6834 12.3301 66.6569 14.926L64.0157 14.8869L64.0359 7.15741C64.9096 7.13976 65.7996 7.14355 66.6746 7.13977Z" fill="#787779"/>
<path d="M56.6871 6.82196C56.7173 9.62454 56.7047 12.4271 56.6505 15.2297C55.9294 15.2537 55.1275 15.2398 54.3988 15.241C54.332 12.4889 54.3408 9.58041 54.3509 6.82825L56.6871 6.82196Z" fill="#46454A"/>
<path d="M70.4631 8.48105L70.448 13.5214L67.3265 13.563L67.3252 8.47223C68.3716 8.48862 69.418 8.49113 70.4631 8.48105Z" fill="#787779"/>
<path d="M100.768 14.767C98.8823 16.8043 93.0212 16.4413 90.3245 16.261L90.3195 16.0693C90.4657 16.0403 90.6107 16.0114 90.7557 15.9798C91.8928 15.7365 92.2206 15.4125 92.8396 14.4543C96.2184 14.4014 97.4602 13.882 100.768 14.767Z" fill="#28272A"/>
<path d="M100.623 7.13592C98.7045 8.08398 95.0307 7.43596 92.6908 7.49017C92.6391 7.41327 92.5875 7.33763 92.5345 7.26325C91.8335 6.28115 91.3936 6.21684 90.2904 6.02395L90.1618 5.87141L90.3018 5.71004C90.4278 5.69365 90.7846 5.64196 90.9258 5.65079C93.5633 5.8172 96.6684 5.52471 99.2012 6.15003C99.7509 6.28492 100.264 6.77913 100.623 7.13592Z" fill="#28272A"/>
<path d="M74.8643 7.19132L74.8706 9.90691L71.2448 9.89557C71.0796 9.43415 71.1691 7.76999 71.1805 7.17493L74.8643 7.19132Z" fill="#28272A"/>
<path d="M74.8806 12.1144L74.8693 14.8767C73.6262 14.8653 72.3831 14.8363 71.1401 14.7909C71.1943 13.9513 71.164 12.9793 71.1565 12.127C72.3831 12.1384 73.6502 12.1195 74.8806 12.1144Z" fill="#28272A"/>
<path d="M173.08 7.05527C173.082 8.42819 173.175 13.5417 173.016 14.5011C172.667 14.6965 172.187 14.6385 171.768 14.6335C171.789 13.0702 171.611 8.41936 171.868 7.19268C172.166 7.00988 172.701 7.05779 173.08 7.05527Z" fill="#46454A"/>
<path d="M89.5364 15.8739C89.5263 16.677 89.5087 16.9481 89.3775 17.7511C88.1319 17.7663 85.6042 17.8634 84.4557 17.7373L84.3208 17.5394C84.3157 16.875 84.2931 16.4072 84.4116 15.7453C84.6524 15.4642 84.5818 15.5411 85.2172 15.7479C86.6254 16.2055 88.0916 16.0214 89.5364 15.8739Z" fill="#787779"/>
<path d="M89.5642 4.39643C89.5831 4.99527 89.6601 5.73404 89.3575 6.24337C89.128 6.28623 89.1444 6.31019 88.9339 6.24716C87.0441 5.68614 86.2611 6.15135 84.5277 6.41106C84.2137 5.97989 84.3171 4.95113 84.3222 4.3712C86.1489 4.3359 87.7412 4.32331 89.5642 4.39643Z" fill="#787779"/>
<path d="M92.2243 8.20754C92.2696 9.46321 92.455 13.6349 91.8082 14.7343C91.6267 15.0432 90.6496 15.3193 90.2298 15.3949L90.0672 15.2096C90.2626 14.675 90.9194 14.0005 91.3216 13.4357C91.6267 12.8394 91.8171 12.1927 91.8826 11.5257C92.1234 9.29679 91.2094 8.46472 90.052 7.01741L90.1289 6.85352C91.2522 6.71611 91.9267 7.0981 92.2243 8.20754Z" fill="#46454A"/>
<path d="M84.3801 6.78296C82.1499 8.83415 81.0745 11.2232 83.0765 14.0157C83.3652 14.4179 83.7989 14.7709 84.0397 15.1907C82.9618 15.0722 81.9595 15.0962 81.8461 13.7573C81.7427 12.523 81.7326 11.2913 81.7427 10.0508C81.749 9.24893 81.7099 8.02477 82.1486 7.33894C82.4865 6.82961 83.8695 6.81069 84.3801 6.78296Z" fill="#46454A"/>
<path d="M83.6514 5.30789C83.6224 5.67476 83.6375 5.84496 83.4635 6.17401C82.1763 6.67073 78.2378 6.46776 76.73 6.42868C78.0828 4.92212 81.7452 5.30411 83.6514 5.30789Z" fill="#28272A"/>
<path d="M88.7361 1.77901L88.7348 3.64992C87.5964 3.66505 86.4315 3.64865 85.2893 3.64487L85.2326 1.77649L88.7361 1.77901Z" fill="#787779"/>
<path d="M83.6641 15.879C83.5872 16.1867 83.6212 16.0984 83.4762 16.3682C82.2495 16.8586 78.2997 16.6254 77.0629 15.8652C77.0377 15.7807 77.0112 15.6975 76.9848 15.613C77.8282 15.3193 82.6567 15.492 83.6641 15.879Z" fill="#28272A"/>
<path d="M88.6816 18.5504L88.6312 20.2285C87.5709 20.2511 86.4766 20.2398 85.4126 20.2436C85.2462 19.9158 85.2979 18.9413 85.2953 18.5177C86.3985 18.5088 87.5899 18.4735 88.6816 18.5504Z" fill="#787779"/>
<path d="M74.9222 10.5171C74.9235 10.8928 74.931 10.9017 74.8365 11.2622C74.1973 11.701 72.0024 11.4904 71.0846 11.4816C71.0846 11.116 71.0757 11.1134 71.1753 10.7655C71.7994 10.3545 74.0788 10.5134 74.9222 10.5171Z" fill="#28272A"/>
<path d="M81.3921 7.1864L81.1576 7.62134C80.5903 7.95417 76.469 7.82053 75.5146 7.81801L75.5991 7.31624C75.9912 7.03006 80.5537 7.17631 81.3921 7.1864Z" fill="#46454A"/>
<path d="M81.3657 14.6183L81.1602 14.8024C79.9033 14.8566 76.5006 14.9575 75.4076 14.7003L75.6017 14.3788C75.7732 14.3183 75.898 14.2653 76.1653 14.259C77.7475 14.2162 79.4469 14.143 81.0178 14.3157C81.1337 14.4166 81.2497 14.5175 81.3657 14.6183Z" fill="#46454A"/>
<path d="M70.5564 7.2532L70.4341 7.62259C69.9361 7.94156 67.9215 7.74615 67.218 7.70328L67.3869 7.32128C68.1333 7.00106 69.7268 7.19268 70.5564 7.2532Z" fill="#46454A"/>
<path d="M147.068 3.60459C146.983 4.09754 147.104 3.93491 146.823 4.23748C146.132 4.47702 145.528 4.41145 144.835 4.182C145.207 3.04357 146.091 3.31715 147.068 3.60459Z" fill="#44464A"/>
<path d="M70.5591 14.3283C70.2515 15.149 67.9784 14.8049 67.1728 14.7166C67.6103 13.9388 69.7232 14.2527 70.5591 14.3283Z" fill="#46454A"/>
<path d="M147.07 17.5647C146.965 17.9694 146.999 17.9832 146.707 18.2682C146.168 18.514 145.607 18.3841 144.992 18.3262C145.006 17.7903 144.901 17.9731 145.156 17.6277C145.726 17.3907 146.425 17.518 147.07 17.5647Z" fill="#44464A"/>
<path d="M84.5932 1.62537C84.6172 2.14604 84.7319 3.16723 84.4785 3.59587C84.3739 3.77237 84.2276 3.7396 83.9478 3.80642C83.7876 3.29961 83.6175 2.3629 83.9238 1.90147C84.0612 1.69597 84.3411 1.69218 84.5932 1.62537Z" fill="#46454A"/>
<path d="M89.989 1.71222C90.0483 2.30728 90.1541 2.8393 90.0117 3.41041C89.7268 3.73819 89.8428 3.63608 89.278 3.69912C89.3221 2.71323 88.959 1.9278 89.989 1.71222Z" fill="#46454A"/>
<path d="M84.5654 18.3525C84.6083 19.0573 84.757 19.6788 84.3675 20.2197L83.8682 20.2777C83.8493 19.3397 83.5884 18.6072 84.5654 18.3525Z" fill="#46454A"/>
<path d="M89.9577 18.4295C90.0245 19.2376 90.317 20.0495 89.4963 20.342C89.2013 19.5642 89.0563 18.7359 89.9577 18.4295Z" fill="#46454A"/>
<path d="M151.797 15.2059C151.845 14.9474 151.86 14.6839 151.842 14.4217C151.796 12.6844 152.203 6.67707 151.123 5.62941C150.748 5.2638 150.332 5.12386 149.818 5.07974C148.173 4.93601 146.447 5.00661 144.793 4.98266C141.661 4.94988 138.528 4.88307 135.397 4.78347L125.081 4.48342C124.041 4.44938 120.494 4.2275 119.739 4.39643C119.989 5.65195 120.341 10.0582 119.743 17.639C123.702 17.7147 128.94 17.4058 132.996 17.2533C138.837 17.0352 144.68 16.8624 150.523 16.7364C151.098 16.3582 151.654 15.9358 151.797 15.2059Z" fill="#D4A376"/>
<rect x="119.905" y="8.18738" width="31.9753" height="5.448" fill="black"/>
<path d="M120.118 8.83145C120.364 8.69419 120.732 8.73184 121.03 8.73184C120.96 9.58406 121.069 12.6286 120.95 13.1029C120.656 13.2321 120.336 13.1952 120.008 13.1908C119.915 12.55 119.962 9.41454 120.118 8.83145Z" fill="#B88550"/>
<path d="M122.441 8.83145C122.686 8.69424 123.053 8.73181 123.352 8.73184C123.281 9.58406 123.392 12.6286 123.273 13.1029C122.978 13.2322 122.658 13.1952 122.33 13.1908C122.238 12.5501 122.284 9.41439 122.441 8.83145Z" fill="#B88550"/>
<path d="M124.762 8.83145C125.008 8.69419 125.375 8.73184 125.674 8.73184C125.603 9.58406 125.714 12.6286 125.595 13.1029C125.301 13.2324 124.98 13.1952 124.652 13.1908C124.559 12.5499 124.606 9.41469 124.762 8.83145Z" fill="#B88550"/>
<path d="M127.084 8.83145C127.33 8.69419 127.698 8.73184 127.996 8.73184C127.925 9.58406 128.035 12.6286 127.916 13.1029C127.622 13.2321 127.302 13.1952 126.974 13.1908C126.881 12.55 126.928 9.41454 127.084 8.83145Z" fill="#B88550"/>
<path d="M129.406 8.83145C129.652 8.69424 130.019 8.73181 130.318 8.73184C130.247 9.58406 130.357 12.6286 130.239 13.1029C129.944 13.2322 129.624 13.1952 129.296 13.1908C129.204 12.5501 129.25 9.4144 129.406 8.83145Z" fill="#B88550"/>
<path d="M131.728 8.83145C131.974 8.69419 132.341 8.73184 132.64 8.73184C132.569 9.58406 132.68 12.6286 132.561 13.1029C132.266 13.2324 131.946 13.1952 131.617 13.1908C131.525 12.5499 131.571 9.41469 131.728 8.83145Z" fill="#B88550"/>
<path d="M134.05 8.83145C134.296 8.69419 134.663 8.73184 134.962 8.73184C134.891 9.58406 135.001 12.6286 134.882 13.1029C134.588 13.2321 134.268 13.1952 133.94 13.1908C133.847 12.55 133.894 9.41454 134.05 8.83145Z" fill="#B88550"/>
<path d="M136.372 8.83145C136.618 8.69424 136.985 8.73181 137.283 8.73184C137.213 9.58406 137.323 12.6286 137.204 13.1029C136.91 13.2322 136.59 13.1952 136.262 13.1908C136.169 12.5501 136.216 9.41439 136.372 8.83145Z" fill="#B88550"/>
<path d="M138.694 8.83145C138.939 8.69419 139.307 8.73184 139.606 8.73184C139.535 9.58406 139.645 12.6286 139.527 13.1029C139.232 13.2324 138.911 13.1952 138.583 13.1908C138.491 12.5499 138.537 9.41469 138.694 8.83145Z" fill="#B88550"/>
<path d="M141.016 8.83145C141.262 8.69419 141.629 8.73184 141.928 8.73184C141.857 9.58406 141.967 12.6286 141.848 13.1029C141.554 13.2321 141.234 13.1952 140.905 13.1908C140.813 12.55 140.859 9.41454 141.016 8.83145Z" fill="#B88550"/>
<path d="M143.338 8.83145C143.584 8.69425 143.951 8.73183 144.249 8.73184C144.178 9.58406 144.289 12.6286 144.17 13.1029C143.876 13.2323 143.556 13.1952 143.228 13.1908C143.135 12.5501 143.182 9.41425 143.338 8.83145Z" fill="#B88550"/>
<path d="M145.659 8.83145C145.905 8.69419 146.273 8.73184 146.572 8.73184C146.501 9.58406 146.611 12.6286 146.492 13.1029C146.198 13.2324 145.877 13.1952 145.549 13.1908C145.456 12.5499 145.503 9.41469 145.659 8.83145Z" fill="#B88550"/>
<path d="M147.982 8.83145C148.227 8.69419 148.595 8.73184 148.894 8.73184C148.823 9.58406 148.933 12.6286 148.814 13.1029C148.519 13.2321 148.199 13.1952 147.871 13.1908C147.779 12.55 147.825 9.41454 147.982 8.83145Z" fill="#B88550"/>
<path d="M150.304 8.83145C150.55 8.69425 150.916 8.73183 151.215 8.73184C151.144 9.58406 151.255 12.6286 151.136 13.1029C150.842 13.2323 150.522 13.1952 150.194 13.1908C150.101 12.5501 150.148 9.41425 150.304 8.83145Z" fill="#B88550"/>
<path d="M121.371 9.54043C121.564 9.40861 121.655 9.46131 121.945 9.46133C121.934 10.1945 122.096 11.7206 121.824 12.3383C121.782 12.4336 121.494 12.4498 121.351 12.475C121.342 11.5672 121.3 10.4273 121.371 9.54043Z" fill="#B88550"/>
<path d="M123.693 9.54043C123.886 9.40838 123.977 9.46133 124.267 9.46133C124.256 10.1945 124.417 11.7206 124.146 12.3383C124.103 12.4335 123.815 12.4498 123.672 12.475C123.663 11.5672 123.621 10.4273 123.693 9.54043Z" fill="#B88550"/>
<path d="M126.015 9.54043C126.208 9.40851 126.299 9.46128 126.588 9.46133C126.577 10.1945 126.739 11.7206 126.468 12.3383C126.426 12.4335 126.137 12.4498 125.994 12.475C125.985 11.5672 125.943 10.4273 126.015 9.54043Z" fill="#B88550"/>
<path d="M128.337 9.54043C128.53 9.40861 128.621 9.46131 128.91 9.46133C128.9 10.1945 129.061 11.7206 128.79 12.3383C128.748 12.4336 128.459 12.4498 128.317 12.475C128.308 11.5672 128.266 10.4273 128.337 9.54043Z" fill="#B88550"/>
<path d="M130.658 9.54043C130.852 9.40838 130.943 9.46133 131.233 9.46133C131.222 10.1945 131.383 11.7206 131.112 12.3383C131.069 12.4335 130.78 12.4498 130.638 12.475C130.629 11.5672 130.587 10.4273 130.658 9.54043Z" fill="#B88550"/>
<path d="M132.981 9.54043C133.174 9.40851 133.265 9.46128 133.554 9.46133C133.543 10.1945 133.705 11.7206 133.434 12.3383C133.392 12.4335 133.103 12.4498 132.96 12.475C132.951 11.5672 132.909 10.4273 132.981 9.54043Z" fill="#B88550"/>
<path d="M135.303 9.54043C135.496 9.40861 135.587 9.46131 135.876 9.46133C135.865 10.1945 136.027 11.7206 135.756 12.3383C135.714 12.4336 135.425 12.4498 135.282 12.475C135.273 11.5672 135.231 10.4273 135.303 9.54043Z" fill="#B88550"/>
<path d="M137.624 9.54043C137.817 9.40838 137.909 9.46133 138.198 9.46133C138.188 10.1945 138.348 11.7206 138.077 12.3383C138.035 12.4335 137.746 12.4498 137.604 12.475C137.595 11.5672 137.553 10.4273 137.624 9.54043Z" fill="#B88550"/>
<path d="M139.947 9.54043C140.14 9.40851 140.23 9.46128 140.52 9.46133C140.509 10.1945 140.671 11.7206 140.4 12.3383C140.357 12.4335 140.069 12.4498 139.926 12.475C139.917 11.5672 139.875 10.4273 139.947 9.54043Z" fill="#B88550"/>
<path d="M142.269 9.54043C142.462 9.40861 142.553 9.46131 142.842 9.46133C142.831 10.1945 142.993 11.7206 142.722 12.3383C142.68 12.4336 142.391 12.4498 142.248 12.475C142.239 11.5672 142.197 10.4273 142.269 9.54043Z" fill="#B88550"/>
<path d="M144.59 9.54043C144.783 9.40838 144.875 9.46133 145.164 9.46133C145.154 10.1945 145.314 11.7206 145.043 12.3383C145.001 12.4335 144.712 12.4498 144.57 12.475C144.561 11.5672 144.519 10.4273 144.59 9.54043Z" fill="#B88550"/>
<path d="M146.912 9.54043C147.105 9.40851 147.196 9.46128 147.486 9.46133C147.475 10.1945 147.637 11.7206 147.365 12.3383C147.323 12.4335 147.034 12.4498 146.892 12.475C146.883 11.5672 146.841 10.4273 146.912 9.54043Z" fill="#B88550"/>
<path d="M149.235 9.54043C149.427 9.40874 149.518 9.46133 149.808 9.46133C149.797 10.1945 149.959 11.7206 149.688 12.3383C149.646 12.4336 149.357 12.4499 149.214 12.475C149.205 11.5672 149.163 10.4273 149.235 9.54043Z" fill="#B88550"/>
<path d="M151.556 9.54043C151.749 9.40838 151.84 9.46133 152.13 9.46133C152.119 10.1945 152.28 11.7206 152.009 12.3383C151.967 12.4335 151.678 12.4498 151.535 12.475C151.526 11.5672 151.484 10.4273 151.556 9.54043Z" fill="#B88550"/>
<path d="M121.301 14.3232C121.94 14.329 124.023 14.1955 124.426 14.4558C124.541 14.7012 124.525 14.5702 124.426 14.8653C123.856 14.9416 121.813 15.0245 121.355 14.775C121.231 14.5412 121.266 14.6282 121.301 14.3232Z" fill="#0F0F0F"/>
<path d="M121.469 14.5635C121.899 14.5088 123.82 14.4889 124.209 14.566L124.301 14.7168C123.789 14.7516 122 14.7831 121.557 14.7002L121.469 14.5635Z" fill="#95622F"/>
<path d="M126.54 14.3232C127.179 14.329 129.261 14.1955 129.665 14.4558C129.779 14.7012 129.764 14.5702 129.665 14.8653C129.095 14.9416 127.051 15.0245 126.594 14.775C126.469 14.5412 126.504 14.6282 126.54 14.3232Z" fill="#0F0F0F"/>
<path d="M126.708 14.5635C127.137 14.5088 129.059 14.4889 129.447 14.566L129.539 14.7168C129.028 14.7516 127.238 14.7831 126.796 14.7002L126.708 14.5635Z" fill="#95622F"/>
<path d="M131.778 14.3232C132.417 14.329 134.5 14.1955 134.903 14.4558C135.018 14.7012 135.002 14.5702 134.903 14.8653C134.333 14.9416 132.29 15.0245 131.832 14.775C131.708 14.5412 131.742 14.6282 131.778 14.3232Z" fill="#0F0F0F"/>
<path d="M131.946 14.5635C132.375 14.5088 134.297 14.4889 134.686 14.566L134.778 14.7168C134.266 14.7516 132.477 14.7831 132.034 14.7002L131.946 14.5635Z" fill="#95622F"/>
<path d="M137.017 14.3232C137.656 14.329 139.738 14.1955 140.142 14.4558C140.256 14.7012 140.24 14.5702 140.142 14.8653C139.571 14.9416 137.528 15.0245 137.071 14.775C136.946 14.5412 136.981 14.6282 137.017 14.3232Z" fill="#0F0F0F"/>
<path d="M137.185 14.5635C137.614 14.5088 139.535 14.4889 139.924 14.566L140.016 14.7168C139.505 14.7516 137.715 14.7831 137.272 14.7002L137.185 14.5635Z" fill="#95622F"/>
<path d="M142.255 14.3232C142.894 14.329 144.976 14.1955 145.38 14.4558C145.494 14.7012 145.479 14.5702 145.38 14.8653C144.81 14.9416 142.766 15.0245 142.309 14.775C142.184 14.5412 142.219 14.6282 142.255 14.3232Z" fill="#0F0F0F"/>
<path d="M142.423 14.5635C142.852 14.5088 144.774 14.4889 145.163 14.566L145.255 14.7168C144.743 14.7516 142.953 14.7831 142.511 14.7002L142.423 14.5635Z" fill="#95622F"/>
<path d="M147.493 14.3232C148.133 14.329 150.215 14.1955 150.619 14.4558C150.733 14.7012 150.717 14.5702 150.619 14.8653C150.048 14.9416 148.005 15.0245 147.547 14.775C147.423 14.5412 147.458 14.6282 147.493 14.3232Z" fill="#0F0F0F"/>
<path d="M147.661 14.5635C148.091 14.5088 150.012 14.4889 150.401 14.566L150.493 14.7168C149.982 14.7516 148.192 14.7831 147.749 14.7002L147.661 14.5635Z" fill="#95622F"/>
<path d="M121.301 7.0503C121.94 7.0561 124.023 6.92264 124.426 7.18293C124.541 7.4283 124.525 7.29732 124.426 7.59243C123.856 7.66869 121.813 7.75159 121.355 7.50207C121.231 7.26831 121.266 7.35535 121.301 7.0503Z" fill="#0F0F0F"/>
<path d="M121.469 7.29058C121.899 7.23587 123.82 7.21598 124.209 7.29307L124.301 7.44394C123.789 7.47875 122 7.51025 121.557 7.42736L121.469 7.29058Z" fill="#95622F"/>
<path d="M126.54 7.0503C127.179 7.0561 129.261 6.92264 129.665 7.18293C129.779 7.4283 129.764 7.29732 129.665 7.59243C129.095 7.66869 127.051 7.75159 126.594 7.50207C126.469 7.26831 126.504 7.35535 126.54 7.0503Z" fill="#0F0F0F"/>
<path d="M126.708 7.29058C127.137 7.23587 129.059 7.21598 129.447 7.29307L129.539 7.44394C129.028 7.47875 127.238 7.51025 126.796 7.42736L126.708 7.29058Z" fill="#95622F"/>
<path d="M131.778 7.0503C132.417 7.0561 134.5 6.92264 134.903 7.18293C135.018 7.4283 135.002 7.29732 134.903 7.59243C134.333 7.66869 132.29 7.75159 131.832 7.50207C131.708 7.26831 131.742 7.35535 131.778 7.0503Z" fill="#0F0F0F"/>
<path d="M131.946 7.29058C132.375 7.23587 134.297 7.21598 134.686 7.29307L134.778 7.44394C134.266 7.47875 132.477 7.51025 132.034 7.42736L131.946 7.29058Z" fill="#95622F"/>
<path d="M137.017 7.0503C137.656 7.0561 139.738 6.92264 140.142 7.18293C140.256 7.4283 140.24 7.29732 140.142 7.59243C139.571 7.66869 137.528 7.75159 137.071 7.50207C136.946 7.26831 136.981 7.35535 137.017 7.0503Z" fill="#0F0F0F"/>
<path d="M137.185 7.29058C137.614 7.23587 139.535 7.21598 139.924 7.29307L140.016 7.44394C139.505 7.47875 137.715 7.51025 137.272 7.42736L137.185 7.29058Z" fill="#95622F"/>
<path d="M142.255 7.0503C142.894 7.0561 144.976 6.92264 145.38 7.18293C145.494 7.4283 145.479 7.29732 145.38 7.59243C144.81 7.66869 142.766 7.75159 142.309 7.50207C142.184 7.26831 142.219 7.35535 142.255 7.0503Z" fill="#0F0F0F"/>
<path d="M142.423 7.29058C142.852 7.23587 144.774 7.21598 145.163 7.29307L145.255 7.44394C144.743 7.47875 142.953 7.51025 142.511 7.42736L142.423 7.29058Z" fill="#95622F"/>
<path d="M147.493 7.0503C148.133 7.0561 150.215 6.92264 150.619 7.18293C150.733 7.4283 150.717 7.29732 150.619 7.59243C150.048 7.66869 148.005 7.75159 147.547 7.50207C147.423 7.26831 147.458 7.35535 147.493 7.0503Z" fill="#0F0F0F"/>
<path d="M147.661 7.29058C148.091 7.23587 150.012 7.21598 150.401 7.29307L150.493 7.44394C149.982 7.47875 148.192 7.51025 147.749 7.42736L147.661 7.29058Z" fill="#95622F"/>
<path d="M151.459 15.8884L119.849 16.1566L119.718 17.6814C129.78 17.4848 150.104 16.801 150.546 16.7316C150.989 16.6622 151.339 16.1406 151.459 15.8884Z" fill="#B88550"/>
<path d="M151.48 6.18152L119.87 5.91337L119.739 4.3885C120.761 4.24144 150.019 5.01824 150.446 5.15307C151.072 5.35066 151.36 5.92938 151.48 6.18152Z" fill="#B88550"/>
<path d="M119.725 16.0279L151.459 15.8884V16.0163L119.725 16.1558V16.0279Z" fill="black"/>
<path d="M119.746 6.04203L151.48 6.18152V6.05365L119.746 5.91416V6.04203Z" fill="black"/>
</svg>
