<svg width="143" height="20" viewBox="0 0 143 20" fill="none" xmlns="http://www.w3.org/2000/svg">
<path d="M141.5 10.278L141.477 12.3824L141.472 12.8776L140.977 12.8776C140.398 12.8775 138.761 12.7432 137.258 12.6471C136.494 12.5983 135.755 12.558 135.175 12.5465C134.884 12.5408 134.64 12.5432 134.458 12.5533C134.439 12.5544 134.421 12.557 134.403 12.5582L134.353 12.7203L134.308 12.8658L134.189 12.9615C134.095 13.0381 133.988 13.0728 133.939 13.0875C133.876 13.1066 133.808 13.1203 133.742 13.1315C133.61 13.154 133.449 13.1715 133.276 13.1842C132.929 13.2098 132.495 13.2208 132.067 13.2203C131.639 13.2199 131.206 13.2079 130.859 13.1832C130.687 13.1709 130.528 13.1549 130.397 13.1344C130.333 13.1243 130.267 13.1118 130.206 13.0953C130.159 13.0827 130.06 13.0539 129.969 12.9899L129.807 12.8756L129.767 12.6823C129.764 12.6702 129.763 12.6581 129.761 12.6471C129.191 12.6177 128.47 12.6423 127.829 12.6627L127.829 14.7252L127.677 14.8727C127.196 15.3395 126.739 15.7807 126.252 16.2252L125.753 16.6725L125.618 16.7906L125.439 16.7965C124.772 16.8179 124.053 16.8133 123.373 16.8121C123.373 16.8203 123.374 16.8284 123.374 16.8365C123.383 17.0399 123.384 17.2788 123.343 17.5084C123.302 17.7371 123.212 18.003 123 18.2145C122.778 18.4366 122.481 18.5398 122.147 18.5455C120.488 18.574 118.828 18.5646 117.177 18.5621L108.085 18.5582L101.834 18.5582C100.902 18.5582 86.3883 18.5706 85.4434 18.5436C84.9817 18.5302 84.6835 18.246 84.5166 17.9362C84.3604 17.6458 84.291 17.2918 84.2568 16.9762C84.2174 16.6119 84.2193 16.2011 84.2266 15.8795L70.4404 15.8854C70.4408 16.0241 70.4387 16.1683 70.4277 16.3004C70.404 16.5866 70.338 16.933 70.1279 17.2291L70.0283 17.3522L69.9551 17.4332L69.8545 17.4762C69.7529 17.5196 69.63 17.5378 69.5557 17.5475C69.4604 17.5599 69.344 17.5698 69.2139 17.5787C68.9523 17.5967 68.6101 17.6104 68.2178 17.6207C67.4318 17.6413 66.4239 17.6493 65.4111 17.6471C64.3977 17.6449 63.3751 17.6325 62.5596 17.6149C61.7637 17.5976 61.1209 17.5745 60.9014 17.5436L60.7227 17.5182L60.6006 17.3844C60.4484 17.2164 60.3716 17.0123 60.3291 16.8375C60.2858 16.659 60.2695 16.4709 60.2637 16.2985C60.2594 16.1701 60.2624 16.0296 60.2666 15.8951C59.1941 15.8842 58.1217 15.881 57.0488 15.8863C57.0003 16.3719 56.9357 16.8057 56.8369 17.1832C56.7073 17.6786 56.5095 18.1153 56.1758 18.4518C55.4988 19.1345 54.4455 19.2322 53.0166 19.0914C52.4552 19.0361 51.9991 18.9172 51.6533 18.694C51.2845 18.4558 51.0838 18.1273 50.9893 17.7555C50.9015 17.4103 50.9057 17.0259 50.9229 16.6569C50.9338 16.421 50.9484 16.188 50.9609 15.941C50.171 15.9629 49.3725 15.9872 48.5781 15.9947C47.9884 16.0002 47.4391 15.9742 46.96 15.7574C46.5298 15.5629 46.207 15.2387 45.9346 14.7779C45.3019 14.7491 44.5663 14.7141 43.9434 14.6256C39.6212 14.0142 35.5092 14.2476 31.083 14.2779L14.7568 14.4225L13.7402 14.4381C13.4406 14.4455 13.1465 14.4601 12.9072 14.4811C12.8566 14.5272 12.7902 14.5891 12.7158 14.65C12.6234 14.7257 12.5065 14.8123 12.3779 14.8834C12.2552 14.9512 12.0814 15.0271 11.8818 15.0338C10.3932 15.0844 8.7901 15.0517 7.33105 15.0426C6.48585 15.0457 5.31521 15.1246 4.25 15.0016C3.17461 14.8773 2.05107 14.5357 1.33691 13.5865C1.01389 13.1569 0.793719 12.579 0.661132 11.9684C0.527102 11.3509 0.474594 10.6648 0.510742 9.99377C0.546834 9.32425 0.672077 8.65077 0.90625 8.06408C1.13902 7.48093 1.49503 6.94737 2.01465 6.61389L2.01953 6.61096C3.26585 5.83044 4.74928 5.71484 6.16016 5.73205C6.86072 5.7406 7.59749 5.78436 8.26562 5.80529C8.95015 5.82674 9.59496 5.82666 10.1904 5.75549L10.1914 5.75549C11.0244 5.65595 12.131 5.59142 12.8916 6.40588C17.2785 6.36392 21.6771 6.41169 26.0703 6.4635C30.5439 6.51625 35.0117 6.57333 39.4658 6.54455C40.3386 6.53881 41.3813 6.25389 42.5527 5.92736C43.5803 5.64094 44.697 5.32825 45.7695 5.22326C45.8749 4.91408 45.981 4.64571 46.1426 4.41174C46.3694 4.08331 46.6785 3.854 47.1201 3.5885L47.2363 3.51916L47.3711 3.51623C53.1196 3.43263 59.0296 3.53088 64.7754 3.53088L84.1484 3.53869C84.146 3.48849 84.142 3.43522 84.1396 3.37854C84.128 3.1023 84.1207 2.77338 84.1514 2.45569C84.1813 2.14593 84.2512 1.79424 84.4287 1.50061C84.6224 1.18018 84.9387 0.943094 85.3828 0.904905C85.6297 0.88363 86.735 0.87234 88.2197 0.864866C89.7225 0.857302 91.6527 0.853722 93.582 0.853147C97.4358 0.852 101.304 0.860956 101.748 0.86096L101.749 0.86096L107.102 0.861937C111.98 0.864443 116.858 0.863172 121.736 0.853149C122.099 0.852465 122.421 0.894914 122.686 1.01623C122.974 1.14889 123.167 1.36277 123.271 1.63147C123.363 1.87267 123.375 2.13503 123.373 2.36096C123.372 2.42852 123.368 2.50342 123.364 2.58166L125.529 2.58166L125.662 2.6803C126.406 3.23313 127.087 3.92036 127.679 4.59241L127.796 4.72522L127.803 4.90295C127.826 5.494 127.818 6.12466 127.812 6.72131C128.096 6.73302 128.435 6.74606 128.775 6.74963C129.058 6.7526 129.329 6.74808 129.552 6.73303C129.627 6.72797 129.693 6.71869 129.751 6.71155C129.791 6.6189 129.839 6.53942 129.895 6.45764L130.016 6.27698L130.231 6.2428C130.62 6.18141 131.347 6.17054 132.028 6.17248C132.719 6.17446 133.446 6.19076 133.813 6.19397L134.151 6.1969L134.274 6.51233C134.321 6.6317 134.361 6.72508 134.403 6.82092C134.425 6.82209 134.45 6.82592 134.476 6.82678C134.654 6.8327 134.894 6.82957 135.183 6.81897C135.759 6.79778 136.498 6.74738 137.261 6.68811C138.766 6.57117 140.398 6.41637 140.948 6.39709L141.463 6.37854L141.466 6.89417L141.475 9.01917L141.477 9.51331L140.981 9.52112C140.007 9.53615 139.006 9.52927 138.03 9.52795L138.029 9.77209C138.998 9.787 140.026 9.77162 141.001 9.77307L141.506 9.77307L141.5 10.278Z" fill="#050404" stroke="#050404"/>
<path d="M39.3316 9.70875C39.3383 10.8884 39.3333 12.0673 39.3149 13.247C35.6906 13.3623 31.7213 13.3406 28.0811 13.3665L12.6305 13.5411L12.6397 10.9302L12.6389 7.30591C21.4449 7.50976 30.4764 7.3953 39.3049 7.49974L39.3316 9.70875Z" fill="#57537C"/>
<path d="M120.181 12.3873C120.122 13.0866 120.1 14.2604 119.758 14.8244C119.551 14.9865 119.241 14.9781 118.975 14.9764C114.706 14.9489 110.435 14.9614 106.167 14.9539L84.976 14.9581L62.6816 14.9672C61.7534 14.9622 57.017 15.1494 56.5826 14.6932L56.6369 14.5345C57.0505 14.2195 57.3621 14.2437 57.8918 14.1602C58.1683 13.7617 58.0831 12.9521 58.0781 12.4416L60.3331 12.4616L60.3205 13.821C60.6614 13.8661 61.8311 13.9262 62.1653 13.8886C63.0066 13.7942 66.4722 14.1435 66.9617 13.6305C67.0971 13.2353 67.0478 12.8836 67.0344 12.4608C68.6536 12.2945 71.8877 12.4165 73.5871 12.4266L84.9769 12.4366L106.13 12.4416C110.737 12.4215 115.592 12.3413 120.181 12.3873Z" fill="#2F2D42"/>
<path d="M119.877 4.51546C120.081 5.47626 120.102 6.0494 120.096 7.03527L67.0269 7.03945C67.0185 6.54317 67.0244 6.00846 66.9676 5.51887C65.1713 5.4537 62.2663 5.43449 60.4826 5.52305C60.4391 6.06778 60.4241 6.46296 60.4258 7.00936C59.7774 7.01688 58.581 6.99684 57.9862 7.05615L57.8725 7.02524C57.6169 6.0728 57.8391 5.1053 57.6378 4.4411C59.0288 4.56141 61.0156 4.40601 62.5562 4.50376C75.9665 4.43191 89.3774 4.4269 102.788 4.48956L114.578 4.48455C115.982 4.48705 118.54 4.40935 119.877 4.51546Z" fill="#2F2D42"/>
<path d="M122.415 1.81602C122.466 2.69327 122.429 3.92309 122.426 4.82625C122.07 5.16044 121.336 5.75113 120.881 5.91321C120.287 5.82214 120.577 4.83461 120.09 4.39264C119.465 3.82702 118.199 4.04007 117.375 4.04759L113.608 4.0526L100.441 4.04424C99.8318 4.05176 85.7006 4.05092 85.0913 4.0434C85.1101 3.31988 85.1423 2.59635 85.1879 1.87366C86.2879 1.7567 101.398 1.78929 102.53 1.78678L108.82 1.80181L117.194 1.81435C118.875 1.81017 120.75 1.76339 122.415 1.81602Z" fill="#5B5782"/>
<path d="M122.431 14.5637C122.416 15.5696 122.427 16.6048 122.425 17.6132C121.371 17.6583 120.008 17.609 118.925 17.6099L111.449 17.6199C107.458 17.6207 89.9648 17.6299 85.9723 17.6266C85.7144 17.6258 85.5433 17.6283 85.3305 17.4812C85.1494 17.2356 85.1825 16.9156 85.1723 16.5981L85.1523 15.3775C92.0303 15.2037 112.729 15.5797 119.612 15.3023C120.467 15.2672 120.288 13.689 120.832 13.5202C121.309 13.6472 122.046 14.237 122.431 14.5637Z" fill="#5B5782"/>
<path d="M12.2162 6.95584C12.2622 7.9651 12.3482 13.2804 12.0458 13.9463C11.5437 14.2446 7.00867 14.1134 6.09047 14.1101C5.80558 13.8577 5.50815 13.5503 5.23494 13.2796C4.44458 12.0656 4.74201 10.9854 4.671 9.58008C4.60416 8.25417 5.2951 7.61837 6.19324 6.74363C7.74055 6.65172 10.2395 6.69349 11.8578 6.72942C11.9547 6.73109 12.141 6.89151 12.2162 6.95584Z" fill="#2F2D42"/>
<path d="M57.6378 4.44106C57.8391 5.10526 57.6169 6.07275 57.8726 7.0252C55.4597 7.011 53.0477 7.02186 50.6356 7.05862C49.6448 7.73703 49.9589 8.41377 49.9305 9.50657C48.8569 9.50657 47.7056 9.52663 46.6379 9.49738C46.6613 8.28677 46.6061 6.97674 46.6813 5.76696C46.7247 5.07769 46.9553 4.83207 47.4817 4.43521C50.7568 4.41349 54.3777 4.36419 57.6378 4.44106Z" fill="#2F2D42"/>
<path d="M66.6511 12.1667C66.6903 12.6814 66.6711 12.9621 66.6402 13.4751C65.2115 13.5662 62.1027 13.5612 60.6715 13.4684C60.735 12.5795 60.7542 11.7699 60.7701 10.8809L61.0584 10.8651C62.0509 10.8133 62.8997 10.0496 62.1729 9.04288C61.8554 8.60342 61.2756 8.61512 60.7693 8.60593L60.8261 5.85803L65.8548 5.86304L65.839 10.119C65.8457 10.8651 65.834 11.612 65.803 12.3572C64.8865 12.4065 63.9065 12.4717 62.9875 12.4759C62.5497 12.4784 61.4978 12.1726 61.1377 12.2586C61.0884 12.5168 61.0667 12.3998 61.2029 12.6221C61.8596 12.9212 65.9626 13.1601 66.1865 12.465C66.3436 11.9771 66.174 5.99338 66.2509 5.88059L66.5416 5.88894C66.7054 6.107 66.6093 8.76216 66.6185 9.31942C66.6335 10.2293 66.6327 11.2511 66.6511 12.1667Z" fill="#5B5782"/>
<path d="M57.9011 7.38035L57.841 12.0323C55.6637 12.0097 53.4789 12.0808 51.3042 12.0173C50.8731 12.0047 50.8296 12.0064 50.4612 11.7482C50.3843 11.5987 50.3542 11.47 50.34 11.3046C50.3008 10.8367 50.2297 7.9184 50.4946 7.68195C50.9457 7.27842 56.9161 7.39539 57.9011 7.38035Z" fill="#5B5782"/>
<path d="M55.3251 9.42558C55.3343 9.99288 55.2975 10.3663 54.6659 10.566C54.1504 10.7298 52.4051 10.7916 52.0041 10.571L51.9172 10.2193C51.9046 9.69628 51.9247 9.31864 51.9564 8.79897C52.812 8.76973 53.9023 8.66362 54.7319 8.84743C55.0544 8.91928 55.173 9.1574 55.3251 9.42558Z" fill="#050404"/>
<path d="M54.9343 9.3938C54.9276 9.68121 54.9477 9.7681 54.8057 10.0212C54.3862 10.3788 52.6735 10.4256 52.3059 10.1825C52.3001 9.79818 52.2959 9.65865 52.3527 9.28352C52.7387 9.02285 54.5124 9.06796 54.9343 9.3938Z" fill="#2F2D42"/>
<path d="M140.611 10.6938L140.628 11.9662C138.868 11.7239 137.081 11.6939 135.309 11.6479C134.553 11.6028 133.971 11.3889 133.563 12.0907C132.974 12.3673 131.259 12.2946 130.534 12.2962L130.548 7.11209C131.145 7.12045 133.21 6.95001 133.544 7.18394C133.593 7.38446 133.625 7.49306 133.694 7.68773C134.166 7.97012 139.698 7.40451 140.601 7.33015L140.632 8.66942C140.28 8.64603 139.475 8.57501 139.13 8.61178C137.707 8.76049 134.066 7.87238 135.47 10.5643C136.255 10.5509 137.125 10.657 137.92 10.6796C138.82 10.7047 139.71 10.6988 140.611 10.6938Z" fill="#2F2D42"/>
<path d="M128.932 7.64348L128.945 11.79L127.268 11.785L127.268 10.7264C126.376 10.7765 125.482 10.7815 124.59 10.7423L124.591 11.8593C123.48 11.8735 122.173 11.9078 121.077 11.8568C121.047 10.4423 121.075 8.95685 121.081 7.53654C122.245 7.54823 123.446 7.524 124.612 7.51398L124.619 8.60345C125.5 8.60679 126.382 8.60011 127.263 8.5834L127.288 7.66687L128.932 7.64348Z" fill="#2F2D42"/>
<path d="M74.9624 7.39368L74.9484 12.0473L67.0029 12.0415L66.9987 10.6119C68.6529 10.5752 70.3807 10.6011 72.0408 10.6027C72.5028 10.6086 72.9624 10.5844 73.4235 10.5652C73.4628 10.048 73.4344 9.37877 73.4269 8.84908C71.3916 8.74631 69.1066 8.84908 67.0121 8.78976L67.0246 7.42792L74.9624 7.39368Z" fill="#5B5782"/>
<path d="M50.9524 12.4775C50.9641 13.3105 50.9858 14.1427 51.0159 14.9756C47.6923 14.9581 46.5811 16.0267 46.6588 12.1835L46.6463 9.86751C47.745 9.84662 48.8712 9.85247 49.9724 9.84662C49.9314 11.1617 49.5404 11.9128 50.9524 12.4775Z" fill="#2F2D42"/>
<path d="M5.58496 6.69769C5.42538 7.00849 4.89652 7.52148 4.66843 7.9083C4.12036 8.83819 4.24819 10.4331 4.26908 11.5059C4.2908 12.6338 4.74196 13.4091 5.53149 14.1335C4.58238 14.0892 3.89812 14.1368 3.01836 13.745C1.40839 12.8209 1.43512 11.6053 1.45351 9.9427C1.47022 8.49899 2.07177 7.38279 3.50545 6.92495C4.20892 6.70104 4.86144 6.71942 5.58496 6.69769Z" fill="#1D1C29"/>
<path d="M43.6519 13.6046C43.1689 13.6464 40.411 13.3239 39.7301 13.2512C39.7151 11.4658 39.6599 9.2952 39.7543 7.53735C40.254 7.41537 40.7761 7.30424 41.2799 7.18978C41.9609 7.04107 42.6401 6.88567 43.3185 6.72443C41.498 9.20497 41.4729 11.3371 43.6519 13.6046Z" fill="#1D1C29"/>
<path d="M56.2476 14.2714C56.2935 16.2289 56.1507 16.6625 54.9919 18.1772C54.0737 18.1313 52.6759 18.3335 51.9616 17.894C51.8404 17.4805 51.8488 14.9356 51.8204 14.253C53.2958 14.2505 54.7721 14.2563 56.2476 14.2714Z" fill="#5B5782"/>
<path d="M44.8625 6.25488C44.9979 8.39037 44.9294 11.6571 44.8951 13.8502C44.2819 13.5603 43.946 13.2696 43.474 12.8109C41.9609 11.1642 42.1606 8.69616 43.6335 7.10122C43.9878 6.71857 44.3537 6.40109 44.8625 6.25488Z" fill="#2F2D42"/>
<path d="M126.907 5.10109C126.918 6.15881 126.919 7.21569 126.912 8.27341L124.945 8.27591C125.014 7.59583 124.998 6.56819 125.008 5.86138L122.724 5.85051C122.444 5.86722 122.316 5.89229 122.041 5.81876L122.035 5.71183C122.278 5.49544 122.52 5.27737 122.759 5.05681C122.791 4.57474 122.79 4.00243 122.799 3.51117L125.284 3.51702C125.776 3.97403 126.502 4.59395 126.907 5.10109Z" fill="#5B5782"/>
<path d="M126.932 11.1015C126.874 12.145 126.907 13.2879 126.916 14.3406C126.379 14.8837 125.843 15.3633 125.277 15.8729L122.813 15.9063L122.817 14.7734C122.839 14.0056 122.273 13.8711 121.665 13.5453C122.781 13.5645 123.898 13.5645 125.014 13.5453L124.994 11.1032L126.932 11.1015Z" fill="#5B5782"/>
<path d="M69.48 15.3759L69.475 16.6775C67.1916 16.8162 63.5673 16.7076 61.187 16.7034L61.1837 15.3792L69.48 15.3759Z" fill="#D650FF"/>
<path d="M57.6453 12.46C57.6444 12.8811 57.611 13.3114 57.5851 13.7324C56.0787 13.7792 52.812 14.0357 51.3574 13.8402L51.3842 12.4349C53.3684 12.3714 55.6401 12.4416 57.6453 12.46Z" fill="#2F2D42"/>
<path d="M46.2377 6.12207C46.2386 7.28589 46.3814 13.0206 46.1809 13.7667C45.9069 13.8745 45.6771 13.8369 45.3797 13.8269C45.2552 12.0565 45.2786 7.97517 45.3939 6.17304L46.2377 6.12207Z" fill="#5B5782"/>
<path d="M60.4292 7.41282L60.3498 8.61257L59.0991 8.56161L59.0949 10.8717L60.3239 10.8358C60.3448 11.1683 60.4183 11.6395 60.2855 11.9219C60.0073 12.1107 59.9789 12.0439 59.5737 12.0556L58.2377 12.0656C58.2895 10.5066 58.2887 8.94676 58.2336 7.38776L60.4292 7.41282Z" fill="#1D1C29"/>
<path d="M73.0884 9.24595L73.0408 10.1884L67.0119 10.2134L67.0387 9.20334C68.0705 9.20919 72.3832 9.11478 73.0884 9.24595Z" fill="#2F2D42"/>
<path d="M86.0771 7.40786C86.2464 8.94848 86.2413 10.4883 86.0625 12.0289L77.1372 12.0364L77.2082 7.41955C80.1385 7.40201 83.1392 7.40786 86.0771 7.40786Z" fill="#2F2D42"/>
<path d="M120.673 7.46216L120.676 12.023L119.566 12.0423L119.564 7.44629L120.673 7.46216Z" fill="#1D1C29"/>
<path d="M119.159 7.40955L119.138 12.0097L86.6595 12.0172C86.6175 10.505 86.6645 8.95852 86.6244 7.42291L119.159 7.40955Z" fill="#2F2D42"/>
<path d="M124.603 6.224C124.612 6.59997 124.623 6.70858 124.552 7.07034C124.191 7.26417 121.391 7.14135 120.768 7.12882C120.72 6.86397 120.681 6.53146 120.792 6.2875C121.318 6.20144 123.787 6.25157 124.603 6.224Z" fill="#1D1C29"/>
<path d="M62.127 9.53583C62.1044 9.75473 62.091 9.86918 61.9841 10.0697C61.7142 10.5752 59.8661 10.6094 59.5278 10.317L59.5111 10.053L59.5194 8.97188C60.5579 9.00363 61.3892 8.71623 62.127 9.53583Z" fill="#2F2D42"/>
<path d="M124.585 12.2779C124.59 12.6187 124.585 12.7457 124.541 13.0824C124.128 13.1885 121.221 13.1618 120.684 13.1418C120.669 12.8543 120.661 12.5878 120.818 12.3522C121.261 12.2077 123.936 12.2729 124.585 12.2779Z" fill="#1D1C29"/>
<path d="M130.121 7.66101C130.094 8.91256 130.174 10.3922 130.091 11.6103C129.848 11.7674 129.67 11.739 129.354 11.7707C129.358 10.9127 129.298 8.43884 129.403 7.75208C129.669 7.59584 129.756 7.65934 130.121 7.66101Z" fill="#1D1C29"/>
<path d="M76.7632 9.9703C76.7806 10.2084 76.8245 10.363 76.6961 10.556C76.3154 10.759 75.7526 10.6612 75.2696 10.6479L75.3004 9.34286C75.2934 9.05629 75.2604 9.10391 75.3763 8.8658C75.7428 8.69954 76.2815 8.77306 76.7194 8.78225L76.7632 9.9703Z" fill="#2F2D42"/>
<path d="M137.073 9.02952L137.052 10.1491C136.58 10.1532 136.101 10.1474 135.628 10.1457C135.548 9.66866 135.441 9.49823 135.757 9.12727C136.124 8.97689 136.657 9.02618 137.073 9.02952Z" fill="#5B5782"/>
<path d="M76.7229 10.9503L76.7177 12.0699L75.3532 12.0481L75.3664 10.9729L76.7229 10.9503Z" fill="#2F2D42"/>
<path d="M76.7195 7.36859L76.7101 8.42882C76.2856 8.39624 75.7657 8.41795 75.3332 8.4238C75.2972 8.20825 75.3189 7.6301 75.3211 7.3828L76.7195 7.36859Z" fill="#2F2D42"/>
<path d="M115.349 4.8613L109.981 4.84465C109.131 4.84465 107.701 4.80401 106.903 4.91442C106.165 5.5863 106.169 6.54466 107.28 6.67799C108.988 6.70507 110.715 6.6811 112.427 6.69881C113.395 6.69152 114.366 6.7186 115.334 6.68006C115.773 6.66964 116.159 6.4259 116.226 5.97173C116.329 5.26756 116.019 4.95193 115.349 4.8613Z" fill="#030406"/>
<path d="M100.858 4.8613L95.4899 4.84465C94.6399 4.84465 93.2097 4.80401 92.4118 4.91442C91.6743 5.5863 91.6784 6.54466 92.7888 6.67799C94.4972 6.70507 96.2243 6.6811 97.9358 6.69881C98.9045 6.69152 99.8753 6.7186 100.843 6.68006C101.282 6.66964 101.668 6.4259 101.735 5.97173C101.838 5.26756 101.528 4.95193 100.858 4.8613Z" fill="#030406"/>
<path d="M100.858 12.7792L95.4899 12.7625C94.6399 12.7625 93.2097 12.7219 92.4118 12.8323C91.6743 13.5041 91.6784 14.4625 92.7888 14.5958C94.4972 14.6229 96.2243 14.599 97.9358 14.6167C98.9045 14.6094 99.8753 14.6364 100.843 14.5979C101.282 14.5875 101.668 14.3437 101.735 13.8896C101.838 13.1854 101.528 12.8698 100.858 12.7792Z" fill="#030406"/>
<path d="M115.381 12.7792L110.013 12.7625C109.163 12.7625 107.733 12.7219 106.935 12.8323C106.197 13.5041 106.202 14.4625 107.312 14.5958C109.02 14.6229 110.747 14.599 112.459 14.6167C113.428 14.6094 114.398 14.6364 115.366 14.5979C115.805 14.5875 116.191 14.3437 116.258 13.8896C116.361 13.1854 116.052 12.8698 115.381 12.7792Z" fill="#030406"/>
<path d="M115.688 5.28955C114.91 5.25101 107.337 5.19268 107.063 5.33122C106.983 5.37393 106.915 5.43744 106.867 5.51557C106.819 5.59265 106.791 5.6812 106.788 5.77182C106.783 5.9687 106.895 6.11559 107.008 6.26455C108.127 6.29164 115.168 6.37807 115.635 6.20307C115.698 6.17495 115.756 6.1333 115.802 6.08018C115.847 6.02809 115.882 5.96558 115.902 5.89891C115.956 5.67912 115.798 5.46663 115.688 5.28955Z" fill="#1D1C29"/>
<path d="M101.197 5.28955C100.419 5.25101 92.846 5.19268 92.5721 5.33122C92.4919 5.37393 92.4241 5.43744 92.3762 5.51557C92.3283 5.59265 92.3002 5.6812 92.297 5.77182C92.2918 5.9687 92.4043 6.11559 92.5168 6.26455C93.6356 6.29164 100.677 6.37807 101.144 6.20307C101.207 6.17495 101.265 6.1333 101.311 6.08018C101.356 6.02809 101.391 5.96558 101.411 5.89891C101.465 5.67912 101.307 5.46663 101.197 5.28955Z" fill="#1D1C29"/>
<path d="M101.197 13.2074C100.419 13.1689 92.846 13.1105 92.5721 13.2491C92.4919 13.2918 92.4241 13.3553 92.3762 13.4334C92.3283 13.5105 92.3002 13.599 92.297 13.6897C92.2918 13.8865 92.4043 14.0334 92.5168 14.1824C93.6356 14.2095 100.677 14.2959 101.144 14.1209C101.207 14.0928 101.265 14.0511 101.311 13.998C101.356 13.9459 101.391 13.8834 101.411 13.8168C101.465 13.597 101.307 13.3845 101.197 13.2074Z" fill="#1D1C29"/>
<path d="M115.72 13.2074C114.942 13.1689 107.369 13.1105 107.095 13.2491C107.015 13.2918 106.947 13.3553 106.899 13.4334C106.851 13.5105 106.823 13.599 106.82 13.6897C106.815 13.8865 106.928 14.0334 107.04 14.1824C108.159 14.2095 115.2 14.2959 115.667 14.1209C115.731 14.0928 115.788 14.0511 115.834 13.998C115.88 13.9459 115.914 13.8834 115.934 13.8168C115.988 13.597 115.831 13.3845 115.72 13.2074Z" fill="#1D1C29"/>
</svg>
