<svg width="145" height="54" viewBox="0 0 145 54" fill="none" xmlns="http://www.w3.org/2000/svg">
<g clip-path="url(#clip0_184_623)">
<path d="M88.9536 15.8009C88.9089 15.2932 88.775 13.9999 88.2483 13.1714C87.6556 12.239 86.6156 11.7955 85.6055 11.8045H67.0043C66.1367 12.1702 65.4775 12.6169 65.0429 13.235C64.6077 13.8538 64.3978 14.6444 64.4296 15.6972L64.3854 49.029C64.207 50.6757 65.7262 52.3271 67.3223 52.3538L84.8105 52.5701C86.8392 52.671 88.5768 51.8612 88.3082 49.5965L88.9536 15.8009Z" fill="#0ACEF9" stroke="#1283A6" stroke-width="2.8" stroke-linejoin="round"/>
<path d="M82.2576 20.4139H34.2491V37.4871H82.2576V20.4139Z" fill="#5B5654" stroke="#181716" stroke-width="3" stroke-linejoin="round"/>
<path d="M82.3942 21.6343V36.3647H107.87L107.982 34.3801H115.238V23.7622H107.982L107.87 21.6343H82.3942Z" fill="#4D4947" stroke="#171717" stroke-width="3" stroke-linejoin="round"/>
<path d="M89.4426 22.2598H94.3118H89.4426Z" fill="#0ACEF9"/>
<path d="M89.4426 22.2598H94.3118" stroke="#171717" stroke-width="3" stroke-linejoin="round"/>
<path d="M97.9355 22.2598H102.805H97.9355Z" fill="#0ACEF9"/>
<path d="M97.9355 22.2598H102.805" stroke="#171717" stroke-width="3" stroke-linejoin="round"/>
<path d="M89.4426 35.5481H94.3118H89.4426Z" fill="#0ACEF9"/>
<path d="M89.4426 35.5481H94.3118" stroke="#171717" stroke-width="3" stroke-linejoin="round"/>
<path d="M97.9355 35.5481H102.805H97.9355Z" fill="#0ACEF9"/>
<path d="M97.9355 35.5481H102.805" stroke="#171717" stroke-width="3" stroke-linejoin="round"/>
<path d="M80.9312 26.8684H35.5312V30.8316H80.9312V26.8684Z" fill="#423F3D"/>
<path d="M39.9777 23.8506V33.4315H50.8701L53.8853 31.2747V26.5069L50.8701 23.9868L39.9777 23.8506Z" fill="#433F3F" stroke="#171717" stroke-width="1.5" stroke-linejoin="round"/>
<path d="M56.0429 37.0096V33.1839H59.1236L60.3278 34.2834H63.4554L64.6751 33.0484H66.9271V36.8891L56.0429 37.0096Z" fill="#5E5858" stroke="#171717" stroke-width="1.5"/>
<path d="M142.613 26.4935H83.0914V31.5275H142.613V26.4935Z" fill="#6E6969" stroke="#181716" stroke-width="3"/>
<path d="M143.386 25.1671H137.432V32.8539H143.386V25.1671Z" fill="#4C4846" stroke="#181716" stroke-width="3" stroke-linejoin="round"/>
<path d="M120.038 24.9936H113.524V33.404H120.038V24.9936Z" fill="#4D4947" stroke="#181716" stroke-width="1.5" stroke-linejoin="round"/>
<path d="M82.8898 24.1511V33.8699H85.6058L87.1391 30.6303V27.3907L85.6058 24.1511H82.8898Z" fill="#696870" stroke="#171717" stroke-width="1.5" stroke-linejoin="round"/>
<path d="M116.917 30.2387C117.499 30.2387 117.97 29.7665 117.97 29.1841C117.97 28.6016 117.499 28.1294 116.917 28.1294C116.336 28.1294 115.864 28.6016 115.864 29.1841C115.864 29.7665 116.336 30.2387 116.917 30.2387Z" fill="#696464"/>
<path d="M79.2445 24.0313H69.1321V33.1195H79.2445V24.0313Z" fill="#5E5858" stroke="#171717" stroke-width="1.3" stroke-linejoin="round"/>
<path d="M72.01 38.8199H70.1548V44.3249H72.01V38.8199Z" fill="#4D4947" stroke="#181716" stroke-width="3"/>
<path d="M70.0067 43.7082H72.1581C72.178 43.7082 72.1977 43.7122 72.2161 43.7202C72.2345 43.7281 72.2512 43.7398 72.2653 43.7544C72.2794 43.7691 72.2905 43.7865 72.2981 43.8057C72.3058 43.8248 72.3097 43.8454 72.3097 43.8661V45.9237C72.3097 45.9444 72.3058 45.965 72.2981 45.9841C72.2905 46.0033 72.2794 46.0207 72.2653 46.0354C72.2512 46.05 72.2345 46.0617 72.2161 46.0696C72.1977 46.0776 72.178 46.0816 72.1581 46.0816H70.0067C69.9868 46.0816 69.9671 46.0776 69.9487 46.0696C69.9303 46.0617 69.9136 46.05 69.8995 46.0354C69.8854 46.0207 69.8743 46.0033 69.8666 45.9841C69.859 45.965 69.8551 45.9444 69.8551 45.9237V43.8661C69.8551 43.8454 69.859 43.8248 69.8666 43.8057C69.8743 43.7865 69.8854 43.7691 69.8995 43.7544C69.9136 43.7398 69.9303 43.7281 69.9487 43.7202C69.9671 43.7122 69.9868 43.7082 70.0067 43.7082Z" fill="#4D4947" stroke="#181716" stroke-width="3"/>
<path d="M28.733 24.8916H32.7953C32.9267 24.8916 33.0567 24.9174 33.178 24.9677C33.2994 25.0179 33.4096 25.0916 33.5024 25.1845C33.5953 25.2773 33.669 25.3876 33.7192 25.5089C33.7695 25.6302 33.7953 25.7602 33.7953 25.8916V32.2737C33.7953 32.5389 33.69 32.7932 33.5024 32.9808C33.3149 33.1683 33.0606 33.2737 32.7953 33.2737H28.733C28.6017 33.2737 28.4717 33.2478 28.3503 33.1976C28.229 33.1473 28.1188 33.0736 28.0259 32.9808C27.9331 32.8879 27.8594 32.7777 27.8091 32.6564C27.7589 32.535 27.733 32.405 27.733 32.2737V25.8916C27.733 25.6264 27.8384 25.372 28.0259 25.1845C28.2134 24.9969 28.4678 24.8916 28.733 24.8916Z" fill="#5E5858" stroke="#171717" stroke-width="3"/>
<path d="M26.0702 26.9211H6.6163C6.55841 26.9211 6.51147 26.968 6.51147 27.0259V30.5233C6.51147 30.5812 6.55841 30.6282 6.6163 30.6282H26.0702C26.1281 30.6282 26.175 30.5812 26.175 30.5233V27.0259C26.175 26.968 26.1281 26.9211 26.0702 26.9211Z" fill="#4D4947" stroke="#181716" stroke-width="3" stroke-linecap="round"/>
<path d="M6.77689 25.9938H1.61127C1.54981 25.9938 1.5 26.0436 1.5 26.1051V31.9447C1.5 32.0062 1.54981 32.056 1.61127 32.056H6.77689C6.83835 32.056 6.88815 32.0062 6.88815 31.9447V26.1051C6.88815 26.0436 6.83835 25.9938 6.77689 25.9938Z" fill="#4D4947" stroke="#181716" stroke-width="3"/>
<path d="M81.3352 35.5972H74.4601V36.5639H81.3352V35.5972Z" fill="#4D4947" stroke="#171717" stroke-width="2.5"/>
<path d="M106.031 20.7583H101.523C99.6733 20.7583 99.7092 19.7658 99.7092 19.7658C99.7092 19.7658 99.5654 19.1869 100.643 18.7458C101.703 18.291 101.29 17.3813 101.29 17.3813C100.014 14.8588 99.7451 10.4894 99.7451 10.4894C99.7451 10.4894 99.4039 7.80156 100.948 4.93457C101.631 3.66646 101.738 2.92211 101.667 2.48105C101.631 2.20537 101.325 1.94348 100.912 1.79187C100.679 1.70907 100.266 1.50239 99.9427 0.964844C99.3859 0.0964537 100.463 0 100.463 0H107.09C107.09 0 108.186 0.0965837 107.611 0.964844C107.27 1.51617 106.893 1.70916 106.641 1.79187C106.192 1.94346 105.923 2.20537 105.887 2.48105C105.815 2.92211 105.923 3.66646 106.605 4.93457C108.15 7.80156 107.808 10.4894 107.808 10.4894C107.808 10.4894 107.539 14.8588 106.264 17.3813C106.264 17.3813 105.851 18.291 106.91 18.7458C107.97 19.2007 107.844 19.7658 107.844 19.7658C107.844 19.7658 107.88 20.7583 106.031 20.7583Z" fill="#1A1A1A"/>
<path d="M53.1663 26.8861H40.7642V30.8493H53.1663V26.8861Z" fill="#6F6868"/>
<path d="M50.0869 24.7425V32.6761V24.7425Z" fill="#6F6868"/>
<path d="M50.0869 24.7425V32.6761" stroke="#606060" stroke-width="1.00371" stroke-linejoin="bevel"/>
</g>
<defs>
<clipPath id="clip0_184_623">
<rect width="144.718" height="53.9794" fill="white"/>
</clipPath>
</defs>
</svg>
