<svg width="212" height="42" viewBox="0 0 212 42" fill="none" xmlns="http://www.w3.org/2000/svg">
<path d="M174.21 5.24357L194.648 22.0512L193.222 23.7151L172.658 6.80342" fill="#9C9EA1"/>
<path d="M180.172 10.3426L194.228 21.9021L192.581 23.8242L178.522 12.2622" fill="#494D51"/>
<path d="M173.957 5.29417L194.394 22.1018L192.97 23.7628L172.406 6.85115" stroke="black" stroke-linejoin="round"/>
<path d="M172.071 7.23595L174.138 4.81245L171.481 2.67643L171.625 2.52086C171.351 2.44196 170.121 2.69233 169.6 3.06638C169.254 3.62326 168.931 4.78578 169.213 5.31607L169.418 5.10245L172.071 7.23595Z" fill="#35383D" stroke="black"/>
<path d="M174.426 37.6505L194.863 20.8429L193.437 19.179L172.873 36.0906" fill="#9C9EA1"/>
<path d="M180.388 32.5514L194.444 20.9919L192.797 19.0698L178.738 30.6319" fill="#494D51"/>
<path d="M174.172 37.5999L194.61 20.7923L193.186 19.1312L172.622 36.0429" stroke="black" stroke-linejoin="round"/>
<path d="M172.287 35.6581L174.353 38.0816L171.697 40.2176L171.841 40.3732C171.566 40.4521 170.336 40.2017 169.816 39.8277C169.47 39.2708 169.147 38.1083 169.429 37.578L169.633 37.7916L172.287 35.6581Z" fill="#35383D" stroke="black"/>
<path d="M122.806 27.0099L122.574 27.0099L122.422 26.8351L121.57 25.8575C120.496 25.838 116.89 25.8326 113.409 25.838C111.526 25.8409 109.686 25.8471 108.314 25.8536C107.629 25.8569 107.06 25.8598 106.663 25.8634C106.465 25.8652 106.31 25.8674 106.205 25.8693C106.177 25.8698 106.152 25.8707 106.132 25.8712L106.052 25.8741C105.227 25.9118 104.714 25.92 104.322 25.9239C104.094 25.9262 103.913 25.9283 103.738 25.9327C103.709 26.0301 103.675 26.1333 103.637 26.2384C103.531 26.5249 103.39 26.8539 103.241 27.1759C102.945 27.817 102.601 28.4703 102.418 28.7736L102.27 29.0206L94.542 29.0206L94.4131 28.7013C94.3026 28.4267 94.1214 27.9095 93.9473 27.4112C93.8126 27.0259 93.6809 26.6501 93.582 26.379C93.5017 26.3512 93.4353 26.3257 93.3701 26.298C93.0229 27.6123 92.8556 28.8269 92.5586 30.1564C92.2297 31.6287 91.7562 33.1326 90.7187 34.7482C90.547 35.0774 90.2049 35.5355 89.8545 35.9005C89.6722 36.0904 89.4682 36.2757 89.2646 36.4103C89.1629 36.4775 89.0469 36.5427 88.9219 36.5851C88.8911 36.5955 88.8572 36.6052 88.8213 36.6134C87.953 37.6599 87.5605 37.852 86.7041 38.5841C85.4974 39.6173 84.4614 40.3539 83.3496 40.7657C82.223 41.183 81.0606 41.2515 79.625 41.0314C78.3979 40.843 77.372 40.1234 76.5254 39.1222C75.6805 38.123 74.9887 36.8149 74.4238 35.378C73.2937 32.5034 72.6323 29.0122 72.3076 26.1603L72.3086 26.1603C72.282 25.9276 72.259 25.7752 72.2344 25.672C72.2236 25.6731 72.2119 25.6743 72.1992 25.6759C72.1146 25.7527 72.0227 25.8138 71.9336 25.8605C71.769 25.9467 71.5784 26.0097 71.3809 26.0577C70.9856 26.1539 70.4879 26.2073 69.9395 26.2345C68.8382 26.2891 67.4383 26.2408 66.0303 26.1603C64.6216 26.0797 63.1765 25.9651 61.999 25.8849C61.4071 25.8445 60.8828 25.8122 60.457 25.797C60.0209 25.7814 59.7207 25.7846 59.5596 25.8048L59.5596 25.8058C59.437 25.8211 58.9798 25.8478 58.5586 25.8693C58.2121 25.8869 57.8337 25.901 57.6416 25.9034C57.401 25.9614 56.9989 26.0922 56.5576 26.2257C56.3365 26.2926 56.1102 26.3578 55.9141 26.4044C55.7595 26.4411 55.5567 26.4812 55.3828 26.4747L55.3818 26.4767C55.1975 26.4764 54.7631 26.4885 54.375 26.4806C54.1747 26.4765 53.9668 26.4672 53.7812 26.4474C53.6116 26.4292 53.4028 26.397 53.2363 26.3224L53.1211 26.2706L53.043 26.17C53.0241 26.1458 52.9208 26.0139 52.8213 25.8868C52.7976 25.8566 52.7749 25.826 52.7529 25.798C49.8285 25.3654 46.8321 25.4986 43.8223 25.5587C43.8193 25.5617 43.8157 25.5657 43.8115 25.5704C43.7879 25.5971 43.7619 25.634 43.7314 25.6857L43.624 25.8888L43.5459 26.048L43.3857 26.1241C43.2507 26.1881 43.0875 26.2135 42.9668 26.2276C42.8285 26.2438 42.6669 26.2525 42.4961 26.2569C42.1535 26.2659 41.7397 26.2574 41.3291 26.2403C40.5094 26.2063 39.6628 26.1378 39.3535 26.0997L39.1299 26.0714L39 25.8868C38.9858 25.8668 38.9847 25.8659 38.9717 25.8478C38.9618 25.834 38.9384 25.8009 38.916 25.756C38.898 25.7198 38.8849 25.6852 38.8818 25.6769C38.8766 25.6626 38.8708 25.6468 38.8613 25.6222L38.8623 25.6212C38.8206 25.5136 38.79 25.436 38.7627 25.3722C38.7249 25.3636 38.6764 25.3549 38.6162 25.3448C38.3852 25.3063 38.0443 25.2711 37.5996 25.2403C36.7141 25.1792 35.4644 25.1381 33.9561 25.1134C30.9416 25.064 26.9247 25.0775 22.7852 25.1075C14.5333 25.1675 5.74184 25.2948 3.57129 25.1124C3.45308 25.1027 3.13345 25.09 2.83984 25.0314C2.68897 25.0012 2.51644 24.9538 2.35644 24.8751C2.21834 24.8071 2.05863 24.7004 1.94238 24.5314L1.89551 24.4552C1.78087 24.2462 1.70818 23.9792 1.65723 23.7091C1.60452 23.4296 1.56771 23.1047 1.54199 22.755C1.49051 22.0549 1.48218 21.22 1.49609 20.3819C1.52395 18.7042 1.64238 16.9718 1.69922 16.1876L1.72949 15.7706L2.14355 15.7189C3.1452 15.5918 4.67079 15.5783 6.17187 15.5948C7.6992 15.6117 9.19083 15.6583 10.2119 15.6593L10.2158 15.6593L28.1074 15.8146C32.6112 15.8374 37.1448 15.852 41.6504 15.8497C41.9863 15.8496 42.3115 15.7111 42.7002 15.5001C42.8769 15.4042 43.0959 15.2764 43.292 15.1778C43.4963 15.0752 43.7281 14.9751 43.9775 14.9249L44.042 14.9122L44.1064 14.9161C44.2928 14.9267 44.5144 15.0046 44.6787 15.0665C44.8625 15.1359 45.0756 15.2262 45.2646 15.3038C45.463 15.3852 45.6395 15.4545 45.7803 15.4982C45.8425 15.5174 45.8871 15.5272 45.916 15.5323C47.1283 15.1623 48.2703 15.1171 49.3789 15.1671C49.9394 15.1924 50.5006 15.2419 51.0518 15.2872C51.6073 15.3329 52.1588 15.3751 52.7217 15.3868C59.2588 15.4681 65.7959 15.4973 72.333 15.4777C72.5561 13.3965 73.0098 11.0172 73.6729 8.80871C74.382 6.4467 75.3439 4.22501 76.5498 2.78136C78.4463 0.511147 81.3052 0.665292 83.3711 1.13L83.4336 1.14367L83.4902 1.17199L83.8545 1.35754C84.1415 1.48842 84.5762 1.78877 85.0381 2.13488C85.5358 2.50783 86.1209 2.97564 86.7021 3.45714C87.7135 4.29489 88.7387 5.19473 89.2852 5.72375L89.5029 5.94152L89.5381 5.97961C89.9627 6.28827 90.3237 6.74004 90.623 7.21789C90.9213 7.69398 91.1772 8.22582 91.3857 8.73644C91.4781 8.84019 91.5465 8.95805 91.5957 9.05285C91.6718 9.19952 91.7392 9.36699 91.7969 9.52941C91.9044 9.83199 91.991 10.1571 92.043 10.3888C92.278 10.9689 92.454 11.7798 92.6143 12.5499C92.7841 13.3657 92.9388 14.1525 93.1289 14.7374C93.2246 15.0319 93.3159 15.2326 93.3975 15.3487C93.4031 15.3568 93.4112 15.3619 93.416 15.3683C93.4508 15.3406 93.5037 15.2943 93.5723 15.212C93.743 15.0071 93.9574 14.6622 94.2178 14.1261L94.3574 13.839L94.6768 13.839L96.4111 13.8253C98.2987 13.8059 100.53 13.7969 102.063 14.047L102.374 14.0978L102.468 14.3976L102.862 15.6476C103.384 15.6597 103.987 15.7288 104.573 15.7989C105.34 15.8906 106.097 15.9855 106.742 15.9943L120.852 16.0382L122.522 15.2833L122.639 15.2306L122.766 15.2394C124.094 15.3267 125.209 15.2401 126.335 15.1271C127.455 15.0146 128.605 14.8741 129.949 14.8702L132.676 14.8331C146.311 14.6724 159.948 14.8781 173.579 15.4503C175.8 15.5199 178.03 15.5072 180.27 15.4855C182.508 15.4638 184.758 15.4333 187.001 15.4689C187.226 15.4725 187.579 15.495 187.896 15.672C188.253 15.8716 188.496 16.2265 188.549 16.7364L188.562 16.8585L188.517 16.9738C188.349 17.4023 188.149 17.7149 187.911 17.9542C188.091 17.9493 188.26 17.9367 188.428 17.9181C188.984 17.8561 189.613 17.7331 190.51 17.7794C191.599 17.7378 192.825 17.8956 193.976 18.0245C195.161 18.1573 196.271 18.2593 197.214 18.1437C200.44 17.7472 203.445 17.919 206.592 17.9435C206.833 17.8987 207.083 17.8312 207.424 17.757C207.754 17.685 208.135 17.6172 208.51 17.6241C208.888 17.6312 209.3 17.7153 209.654 17.9835C210.014 18.2557 210.252 18.6695 210.371 19.212L210.379 19.2462L210.381 19.2804C210.434 19.9346 210.537 21.0878 210.503 22.171C210.486 22.712 210.434 23.2588 210.315 23.7296C210.216 24.1259 210.052 24.5396 209.759 24.8312L209.625 24.9484L209.489 25.0529L209.318 25.0538C208.122 25.0592 206.891 24.9648 205.709 24.9064C204.514 24.8472 203.349 24.8231 202.219 24.9562C201.356 25.0577 200.585 25.0116 199.848 24.9376C199.098 24.8624 198.419 24.7636 197.658 24.7364C195.27 24.686 192.882 24.719 190.495 24.8361L190.488 24.837C189.514 24.8712 188.831 24.765 188.267 24.7335C188.124 24.7255 187.98 24.7212 187.83 24.7238C188.05 24.9292 188.247 25.1987 188.437 25.5568L188.495 25.6652L188.497 25.7882L188.504 26.1896L188.507 26.3605L188.405 26.4991C188.02 27.0231 187.406 27.1679 186.924 27.2101C186.691 27.2304 186.435 27.2288 186.206 27.2218L185.654 27.2013C181.816 27.1861 178.083 27.0167 174.277 27.0431L174.273 27.0431L122.806 27.0099Z" fill="black" stroke="black" stroke-width="1.01961"/>
<path d="M80.579 1.96801C81.5792 1.78242 82.5356 1.74209 83.1241 1.89432C83.7124 2.04658 83.9555 2.40612 83.9555 2.40612C83.608 2.82151 82.2867 2.68632 81.8824 2.89999C80.4696 3.64793 79.2723 5.77768 78.5906 7.66347C78.2335 8.66787 77.9351 9.72067 77.6975 10.8079C77.5635 11.4124 76.9999 15.6914 76.7296 15.907C76.5704 16.0339 76.1245 16.0057 75.936 16.0045L74.1199 15.9836C74.7955 10.7204 76.493 2.32591 80.579 1.96801Z" fill="#494D51"/>
<path d="M78.1463 26.5538C78.1942 26.5779 78.4599 26.7931 78.4659 26.8286C79.2875 31.5931 80.4 36.8375 83.7601 38.4436C84.1628 38.5069 84.3882 38.4396 84.6861 38.7742C84.2773 39.0035 84.0145 38.9177 83.5888 38.8499C82.2955 38.7359 80.8545 38.1606 80.0461 36.4373C79.2752 35.1548 76.8422 28.2845 77.3557 26.7848C77.6199 26.7024 77.8784 26.6206 78.1463 26.5538Z" fill="#494D51"/>
<path d="M86.1234 19.501L86.1294 22.8734L57.9346 22.8066C56.6967 22.8025 47.251 22.9866 46.661 22.5303C46.2375 22.7264 45.8261 23.4072 45.9214 24.1166L46.0843 24.0959C46.2001 23.7585 46.3075 23.2456 46.5223 23.2344C48.7205 23.1197 51.3024 23.2205 53.4645 23.1883L78.4814 23.1871C80.7291 23.1695 83.5668 23.3918 85.718 23.2587L85.9255 23.4919C85.9496 24.1331 86.0136 24.0577 85.8229 24.4888C84.912 24.7858 83.603 24.4637 82.7379 24.4997C80.7472 24.5829 74.4432 24.0371 72.8446 24.6688C72.5538 24.7386 72.409 24.7682 72.1146 24.7745L71.9409 25.1989C71.1953 26.4785 61.1499 25.0917 59.4958 25.2994C59.2979 25.3241 57.7669 25.4037 57.5678 25.3962C57.049 25.512 55.7267 26.0016 55.3828 25.9671C54.9569 25.9664 53.7939 26.0133 53.4452 25.8569C53.4753 25.1757 53.5514 25.2057 53.339 24.8218L52.7056 24.6879C50.8995 24.6407 49.0945 24.6148 47.2896 24.6099C46.3461 24.6036 44.5725 24.6444 43.6906 24.4251C43.6677 21.7111 43.6677 18.9967 43.6918 16.2827C44.3783 16.3105 45.0974 16.3581 45.7803 16.3641C46.1217 18.3523 46.4197 18.362 47.6359 19.0387C47.6057 19.8268 47.5152 20.7937 47.6986 21.5019C47.9845 21.1874 47.9109 19.6716 47.9037 19.1141C49.2477 19.4305 50.4965 19.1857 51.855 19.1261C53.2714 19.0807 54.6867 19.0672 56.1031 19.0852C59.526 19.1002 62.9935 19.0552 66.4127 19.2164C72.8108 19.5182 79.7783 18.3883 86.1234 19.501Z" fill="#494D51"/>
<path d="M57.5679 25.3961C57.0491 25.5123 55.7267 26.0016 55.3829 25.9671C54.957 25.9667 53.7939 26.0132 53.4452 25.8572C53.4754 25.1757 53.5514 25.2056 53.3391 24.8217L52.7057 24.6883C53.7264 24.6298 55.1621 24.5338 56.1526 24.7771L56.2612 24.7914C56.1406 24.8753 56.1321 24.9406 56.0597 25.1157C56.2914 25.4433 57.2011 25.3819 57.5679 25.3961Z" fill="#4F4F4F"/>
<path d="M46.0616 19.0496C46.0893 19.7106 46.2051 20.904 45.9626 21.3981C45.6332 21.7805 45.1434 21.6815 44.7163 21.6763C44.7103 20.9906 44.6234 19.7136 44.8695 19.227C45.2098 18.8614 45.6381 19.0001 46.0616 19.0496Z" fill="#232425"/>
<path d="M45.8368 19.3499C45.8537 19.9958 45.8766 20.3164 45.7873 20.9444C45.4387 21.3564 45.47 21.2278 44.9549 21.2833C44.9392 20.6276 44.9174 20.31 45.0116 19.6745C45.3458 19.2546 45.3156 19.3888 45.8368 19.3499Z" fill="#717171"/>
<path d="M92.5396 15.8174C91.555 15.8252 90.2979 15.9658 89.3303 15.6539C89.2217 15.619 89.0045 15.1414 88.9309 14.9779L87.5856 15.0034C87.2249 15.7637 87.36 15.7184 86.8268 15.8743C84.7274 16.49 83.1783 14.7826 81.3456 14.8655C82.1383 11.4166 83.2929 5.95112 86.2114 5.78429C87.1537 5.77341 87.0065 5.64743 88.0308 5.96536C88.3687 5.99948 88.651 6.39726 89.1215 6.28066L89.1879 6.35526C89.9263 6.85952 90.5368 7.98166 90.953 9.0258C91.2112 9.22787 91.4633 10.1145 91.5562 10.5468C91.5647 11.6138 92.3115 14.4156 92.5396 15.8174Z" fill="#35383D"/>
<path d="M89.1878 6.35535C89.9261 6.85961 90.5366 7.98174 90.9529 9.02588C90.6356 8.66259 89.3169 6.84461 89.1878 6.35535Z" fill="#232425"/>
<path d="M90.3533 23.2501C91.1689 23.2948 94.0549 22.9157 94.6026 23.4601C94.7112 23.5688 94.7763 24.1405 94.9513 24.3445C95.6499 25.1577 96.5161 23.5107 97.1664 23.36C97.9675 23.1748 98.1497 23.6509 98.7252 24.2973C98.9436 24.5425 99.2187 24.5072 99.4696 24.4405C99.7809 24.3576 99.8244 23.9824 99.9969 23.5928L100.314 23.5313C100.733 23.8485 100.413 24.8874 100.764 25.0932C101.354 25.4385 102.794 24.8855 102.824 26.1726C102.637 26.8669 102.229 27.4061 101.88 27.9463C99.5227 28.202 97.4548 27.7589 94.9513 27.9463C94.6026 27.1043 94.3046 26.1051 93.9728 25.3429L92.9014 25.344L92.5721 25.3429C91.7614 25.3177 90.745 25.3369 89.9204 25.4328L90.3533 23.2501Z" fill="#4D3719"/>
<path d="M47.9037 19.114C47.7686 18.9134 47.6359 18.7102 47.5032 18.5048L47.5611 18.1685C47.8543 17.972 54.3103 18.0811 55.004 18.0815L75.8548 18.1824L82.3229 18.1752C83.3448 18.1692 85.0243 18.071 85.9629 18.2116C86.2187 18.6746 86.1294 18.7485 86.1234 19.5013C79.7784 18.3882 72.8108 19.5185 66.4127 19.2167C62.9935 19.0555 59.526 19.1005 56.1031 19.0855C54.6867 19.0672 53.2715 19.081 51.855 19.1264C50.4965 19.186 49.2478 19.4304 47.9037 19.114Z" fill="#9C9EA1"/>
<path d="M43.167 25.663C42.7411 25.8647 39.9975 25.6649 39.416 25.5932C39.4799 25.2772 39.5306 25.1336 39.6259 24.8434C40.497 24.3039 42.0956 24.6462 43.0041 25.0099C43.1224 25.2539 43.1211 25.3585 43.167 25.663Z" fill="#35383D"/>
<path d="M41.2282 22.1494L41.2607 24.2928L18.9838 24.2868C16.6468 24.2965 14.5246 23.9842 12.1973 24.1507C11.6797 24.1878 11.1102 24.0329 10.5986 24.1053C9.77097 24.3674 4.85688 24.2283 3.83014 24.1447C3.82411 24.0644 3.81808 23.9842 3.81204 23.904C3.7119 22.5179 3.51162 17.7359 4.03524 16.7199C4.83636 16.4627 6.76195 16.523 7.65597 16.5249L13.4786 16.5392L41.2426 16.7697C41.2438 17.0116 41.2366 18.3125 41.1401 18.4137C39.9179 19.6843 33.4631 16.5673 34.9616 21.4963C35.3211 22.6769 40.2859 22.1513 41.2282 22.1494Z" fill="#775426"/>
<path d="M121.115 17.007C121.249 19.8548 121.144 22.0196 121.123 24.8427C119.58 24.8551 117.892 24.9237 116.361 24.8719C115.738 24.8806 114.963 24.9233 114.353 24.8757C113.686 25.1036 111.016 24.9312 110.17 24.9158C107.605 24.8686 104.181 25.2221 101.699 24.8153C101.694 23.1616 101.618 18.5107 101.755 17.0996C102.116 16.8705 102.493 16.9009 102.883 16.8885L103.682 16.8668C106.342 17.0055 109.207 16.9361 111.884 16.941L113.944 16.9541L115.984 16.9387L117.125 16.9462C118.401 16.9609 119.854 16.9245 121.115 17.007Z" fill="#775426"/>
<path d="M187.924 25.7921L187.764 26.1089C187.177 26.4504 175.226 26.2052 173.609 26.2097L122.912 26.11C123.187 25.2631 123.35 25.0389 123.058 24.2204C123.968 23.6026 136.591 24.3805 138.766 24.2849C140.326 24.2163 143.575 24.1274 145.457 24.0022C148.394 23.8065 152.085 24.1087 155.116 24.0183C156.558 23.9752 157.978 24.2459 159.396 24.3022C160.305 24.3385 161.426 24.0768 162.393 24.072C168.494 24.042 174.597 24.0292 180.696 24.1987C181.705 24.2264 181.515 25.0745 182.031 24.9421C183.019 24.6891 184.181 24.2456 185.216 24.4443C185.814 24.559 187.311 25.4303 187.924 25.7921Z" fill="#494D51"/>
<path d="M122.812 16.1638C125.007 16.2125 127.06 15.8013 129.159 15.8016C142.138 15.8054 155.12 15.7563 168.099 15.8676C170.017 15.8841 171.979 16.3152 173.901 16.3295C178.209 16.4671 182.51 16.322 186.815 16.4075C187.138 16.4154 187.544 16.4975 187.777 16.8398C187.267 17.7714 183.484 18.6521 182.903 18.1523C181.098 16.6002 182.126 18.4065 180.383 18.4035L162.307 18.3368C161.625 18.2899 160.515 18.2843 159.9 17.9765C159.245 17.7894 158.446 18.1673 157.75 18.2206C150.606 18.7672 143.47 17.9439 136.339 17.8494C131.93 17.7913 127.609 18.4665 123.143 17.9244L122.812 16.1638Z" fill="#494D51"/>
<path d="M181.96 19.9014C181.938 20.8372 181.93 21.6398 181.946 22.5756C181.83 23.351 181.916 23.3584 181.598 23.7817L160.49 23.6921C160.298 23.2332 160.43 22.7848 160.483 22.1014C160.448 21.7062 160.45 20.6891 160.443 20.2452L160.41 19.2198L160.378 18.744C160.72 18.6488 161.305 18.6795 161.669 18.6799C163.181 18.8722 165.763 18.6866 167.367 18.7399C172.071 18.8958 176.928 18.6188 181.62 18.7747C181.916 19.1197 181.844 19.1969 181.96 19.9014Z" fill="#494D51"/>
<path d="M161.669 18.6799C163.181 18.8722 165.763 18.6866 167.367 18.7399C172.071 18.8958 176.928 18.6188 181.62 18.7747C181.916 19.1197 181.844 19.1969 181.96 19.9014C177.03 20.0356 171.972 19.5639 167.03 19.7499C165.744 19.7983 161.293 19.2531 160.443 20.2452L160.41 19.2198L160.378 18.744C160.72 18.6488 161.305 18.6795 161.669 18.6799Z" fill="#9C9EA1"/>
<path d="M158.712 19.9273C158.609 21.0497 158.658 22.6296 158.672 23.7975C156.39 23.583 153.537 23.7068 151.202 23.6547C149.298 23.6119 145.81 23.3978 144.007 23.7214C144.043 22.6506 144.146 20.6793 144.094 19.6779C144.017 19.2423 144.006 19.1819 144.072 18.7361C144.401 18.5494 156.814 18.7032 158.443 18.6945C158.711 19.0102 158.652 19.282 158.712 19.9273Z" fill="#494D51"/>
<path d="M144.094 19.6779C144.017 19.2423 144.006 19.1819 144.072 18.7361C144.401 18.5494 156.814 18.7032 158.443 18.6945C158.711 19.0102 158.652 19.282 158.712 19.9273C156.071 19.4879 152.623 20.0086 149.877 19.7222C148.021 19.5287 146.054 19.913 144.094 19.6779Z" fill="#9C9EA1"/>
<path d="M140.739 19.8083C140.821 21.8636 140.866 22.035 140.2 23.7757C138.542 23.9872 125.187 23.763 124.594 23.4004C124.497 23.3408 124.479 23.1803 124.437 23.0375L124.577 22.6648C124.785 22.4395 125.115 22.1429 125.364 22.1463C127.469 22.1733 129.815 22.2194 131.891 22.4597C131.8 21.7302 131.856 20.4562 131.874 19.6663C131.394 19.7292 130.651 19.7154 130.15 19.7296C128.604 19.7165 127.001 19.8065 125.451 19.7259C124.982 19.7011 124.696 19.7979 124.487 19.1283C124.557 18.7833 124.504 18.8362 124.677 18.6615C124.822 18.5153 125.208 18.4114 125.359 18.4365C126.445 18.6172 127.922 18.5003 128.914 18.5273C130.608 18.5734 137.711 17.8468 138.948 18.3586C138.877 19.426 138.564 22.5857 139.056 23.3745L139.231 23.3768C139.058 22.3064 138.887 19.2107 139.433 18.4354C140.263 18.0549 140.462 18.8216 140.739 19.8083Z" fill="#494D51"/>
<path d="M132.898 19.4158C132.934 20.1304 133.064 22.11 132.788 22.6431L132.713 22.3942C132.715 21.272 132.615 20.307 132.683 19.1688L132.898 19.4158Z" fill="#232425"/>
<path d="M87.5291 16.4278C87.441 16.8222 87.371 16.898 87.184 17.1765C86.9125 17.2185 86.6411 17.2429 86.4323 17.5087C86.2683 17.7179 86.1355 17.881 85.9196 17.8829C82.6789 17.9132 79.3634 17.8772 76.13 17.854L55.1235 17.689C52.8975 17.6849 49.2068 17.4663 46.9627 18.0471C46.7709 18.0966 46.6285 17.9503 46.4222 17.8349C46.2195 17.3512 46.111 17.0074 46.2509 16.4968C46.7564 16.0724 50.4942 16.2835 51.3967 16.2861L61.6097 16.321C70.2242 16.3543 78.9218 16.2501 87.5291 16.4278Z" fill="#494D51"/>
<path d="M84.7683 39.2233C83.0828 40.2899 82.4108 40.2258 80.6758 39.9656C76.3023 39.9195 74.6614 30.225 74.0027 24.876C74.5697 24.8674 76.2842 24.7827 76.7499 24.9443C77.2916 29.8313 78.4016 36.4264 81.553 38.7453C82.6461 39.5498 83.6089 39.3845 84.7683 39.2233Z" fill="#494D51"/>
<path d="M102.241 16.1342L102.167 16.3828C101.869 16.6374 100.907 16.5894 100.507 16.5991C100.498 17.1543 100.536 18.7556 100.359 19.114C99.9486 19.1695 100.074 19.2482 99.7954 18.8984C99.8063 18.3874 99.7869 18.5573 100.089 18.1126L100.05 17.9169C97.6635 17.1712 93.641 18.4996 91.1086 18.1419C90.5934 18.0692 90.5958 17.4273 90.1421 17.3287C89.8224 17.3223 89.2349 17.3906 89.008 17.1101C89.0491 16.5579 88.9911 16.7262 89.1902 16.3674C90.0698 16.1166 92.9774 16.1972 93.9704 16.1927C94.1924 15.82 94.494 15.1958 94.7076 14.7834C96.866 14.8209 99.1837 14.5427 101.34 14.8888C101.873 14.9746 102 15.4867 102.241 16.1342Z" fill="#4D3719"/>
<path d="M81.0595 26.6689C81.5578 30.1916 82.6714 34.6764 84.7985 36.5007C85.6599 37.2393 86.3525 37.0488 87.2803 37.0698L87.0969 37.3225L87.0124 37.0376L87.0161 37.3818C84.2688 39.2702 82.5375 38.0019 80.7965 34.5395C79.9363 32.8239 78.9264 29.248 78.8806 27.0435L79.0169 26.7293L79.3596 26.6746C79.8603 26.7128 80.5444 26.6746 81.0595 26.6689Z" fill="#494D51"/>
<path d="M87.377 5.06065C83.1614 4.00226 82.0478 9.82694 80.9861 14.9322C80.4697 14.9307 79.303 14.9963 78.8735 14.759L78.8409 14.4365C79.5395 10.0954 80.9656 4.46267 84.2316 3.65923C85.2535 3.40803 86.571 4.09337 87.377 5.06065Z" fill="#494D51"/>
<path d="M187.015 18.7886C187.008 19.3307 186.969 22.6086 187.03 22.9929C186.95 23.3577 186.914 23.7847 186.69 23.8919C185.665 24.3797 184.313 23.8863 183.279 23.944C183.065 23.956 182.05 24.545 181.833 24.6691C181.725 24.1619 181.809 24.1885 182.001 23.5429C182.1 22.2502 182.226 20.5065 182.032 19.2317L181.761 17.9863L181.994 17.8914C182.339 18.1295 182.811 18.6154 183.148 18.6345C184.382 18.7039 185.82 18.2416 187.015 18.7886Z" fill="#494D51"/>
<path d="M187.016 18.7886C186.805 19.2591 186.733 19.5999 186.346 19.6831C185.038 19.9632 183.282 19.7589 182.033 19.2317L181.761 17.9863L181.994 17.8914C182.339 18.1295 182.811 18.6154 183.149 18.6345C184.383 18.7039 185.821 18.2416 187.016 18.7886Z" fill="#9C9EA1"/>
<path d="M99.5361 18.2851L99.5072 23.0747C98.6457 23.0454 96.0928 23.1594 95.4521 22.777C95.3749 22.341 95.3942 22.0182 95.4002 21.5686C95.352 21.4899 95.2929 21.3928 95.2217 21.2773C93.4083 21.1236 91.3633 21.0737 89.5644 21.3471C88.8803 21.4509 87.3468 24.2433 86.3551 22.2667C86.4805 21.2721 87.149 21.4475 87.2455 20.4881C87.0186 19.9228 86.8835 19.9483 86.4649 19.6232L86.4009 19.2854L86.5457 18.9109C86.8883 18.6424 87.8632 18.7391 88.4146 18.6465C88.6981 18.768 89.0432 19.5381 89.2784 19.9561C91.1557 20.0146 93.1935 20.1008 95.0576 19.9348C95.4051 18.9671 95.4569 18.0257 96.2001 18.0598C96.5102 18.3534 96.4897 18.2446 96.655 18.6882C96.2762 18.8895 96.1326 18.9911 95.7815 19.2892C94.7825 21.1649 96.1024 23.1455 97.4513 22.4752C97.5925 22.4047 98.9365 22.4249 99.1911 22.4193L99.1814 18.9858C98.548 18.999 97.7252 19.1107 97.1617 18.7305L97.2414 18.5037C97.9146 18.1344 98.8062 18.2563 99.5361 18.2851Z" fill="#494D51"/>
<path d="M192.617 20.4863C192.615 20.8979 192.62 21.4063 192.596 21.8056L192.468 21.9608L192.604 22.3586L192.534 22.6829L192.489 22.9491L192.382 23.5474C191.904 23.9265 188.687 24.0142 188.292 23.4586C188.424 22.0737 188.465 20.7671 188.265 19.3941L188.356 19.032C188.801 18.6387 191.561 18.7755 192.194 18.8861C192.339 18.9113 192.331 18.9975 192.449 19.2359L192.541 19.7878L192.576 20.0975L192.506 20.3415L192.617 20.4863Z" fill="#494D51"/>
<path d="M188.266 19.3941L188.356 19.032C188.801 18.6387 191.562 18.7755 192.194 18.8861C192.339 18.9113 192.331 18.9975 192.449 19.2359C192.294 19.6356 192.265 19.9044 191.978 19.9726C191.181 20.1623 188.91 20.0075 188.266 19.3941Z" fill="#9C9EA1"/>
<path d="M78.1461 26.5538C77.8144 29.7391 79.8654 34.2073 80.0464 36.437C79.2754 35.1544 76.8419 28.2833 77.3559 26.7844C77.6201 26.7019 77.8783 26.6206 78.1461 26.5538Z" fill="#9C9EA1" fill-opacity="0.5"/>
<path d="M41.2426 19.1788L41.2559 21.738C39.837 21.7515 37.1477 21.8715 35.8025 21.6364C35.3235 21.4501 35.4791 21.5978 35.1328 21.0733C34.9857 20.2638 35.005 19.989 35.4007 19.3704C36.3719 18.8632 39.9758 19.1698 41.2426 19.1788Z" fill="#717171"/>
<path d="M35.7239 19.4114C36.1269 19.36 36.2934 19.4676 36.595 19.8226C36.7603 20.4517 36.7519 20.1915 36.6216 20.8548C36.3296 21.3324 36.2548 21.3571 35.8337 21.4914L35.8023 21.6365C35.3234 21.4501 35.479 21.5975 35.1327 21.073C34.9855 20.2635 35.0048 19.9887 35.4006 19.3701L35.7239 19.4114Z" fill="#232425"/>
<path d="M35.8337 21.4914L35.8024 21.6365C35.3234 21.4501 35.479 21.5975 35.1328 21.073C34.9856 20.2635 35.0049 19.9887 35.4006 19.3701L35.7239 19.4114C35.5019 19.8369 35.473 19.9017 35.3572 20.4188C35.473 21.1086 35.4489 20.9144 35.8337 21.4914Z" fill="#7F7F7E"/>
<path d="M80.8013 4.40466C81.4178 3.50411 82.4747 3.14682 83.3 3.09808L83.3784 3.20119C83.1999 3.45164 82.9453 3.80893 82.7366 3.98327C80.1052 6.17577 79.2546 10.4974 78.4788 14.6488C78.433 14.8993 78.1724 14.8652 78.0577 14.8663C77.6536 14.915 77.7127 14.999 77.3954 14.7519C77.0913 12.1879 79.3921 5.83195 80.8013 4.40466Z" fill="#494D51"/>
<path d="M80.8013 4.4046C80.7047 4.94748 80.5998 5.3059 80.3826 5.75092C79.3209 7.93667 78.0734 12.0574 78.0577 14.8662C77.6535 14.915 77.7126 14.9989 77.3953 14.7519C77.0913 12.1878 79.3921 5.8319 80.8013 4.4046Z" fill="#9C9EA1" fill-opacity="0.5"/>
<path d="M43.4226 16.4858C43.3225 18.5752 43.384 22.0556 43.3381 24.3489L41.5537 24.2451C41.4005 22.4436 41.5127 18.6675 41.5392 16.7052L43.4226 16.4858Z" fill="#717171"/>
<path d="M131.597 20.1555C131.583 20.7442 131.6 21.1656 131.42 21.6904C130.893 21.9263 125.456 21.8116 124.509 21.8063C124.491 21.1982 124.494 20.989 124.549 20.3884C124.924 19.8744 130.65 20.1417 131.597 20.1555Z" fill="#35383D"/>
<path d="M78.8083 39.7564C78.2968 39.8438 77.7092 39.413 77.3111 38.9507C74.7629 35.9949 73.4804 29.6731 72.9085 25.089C73.2645 24.9867 73.3429 24.9477 73.6976 25.0519C73.9811 25.7365 74.1464 28.0831 74.3214 29.0125C75.178 33.5613 76.1842 37.1898 78.8083 39.7564Z" fill="#9C9EA1"/>
<path d="M78.3569 2.29425C78.223 2.73365 78.0083 2.94435 77.7838 3.26977C76.1744 5.60174 75.1114 8.67191 74.4418 11.8999C74.1897 13.1109 74.2416 14.4827 73.8856 15.6165C73.7409 16.0787 73.3692 16.0577 73.0797 16.1368C73.286 11.6716 75.4987 3.88126 78.3569 2.29425Z" fill="#9C9EA1"/>
<path d="M196.152 19.772L196.166 22.7444C195.264 22.7361 193.88 22.7845 193.019 22.6829L193.09 22.3586L192.954 21.9608L193.082 21.8056C193.106 21.4063 193.1 20.8979 193.102 20.4863L192.992 20.3415L193.061 20.0975L193.026 19.7878L196.152 19.772Z" fill="#35383D"/>
<path d="M193.061 20.0974C193.854 20.0933 195.067 19.9677 195.744 20.4693L195.855 20.752C195.328 20.9241 195.153 19.9696 194.535 20.9755C194.543 21.5682 194.492 21.3898 194.689 21.8591C195.281 21.9023 195.359 21.2368 195.799 21.506L195.869 21.8858C195.342 22.6648 193.974 21.9544 193.09 22.3585L192.954 21.9607L193.082 21.8055C193.106 21.4062 193.1 20.8979 193.102 20.4862L192.992 20.3415L193.061 20.0974Z" fill="black"/>
<path d="M193.102 20.4862C193.663 20.5035 193.759 20.3752 194.205 20.7835L194.313 21.1528C194.016 22.0226 193.661 21.8378 193.082 21.8055C193.106 21.4063 193.1 20.8979 193.102 20.4862Z" fill="#35383D"/>
<path d="M3.63525 24.1926C3.47479 24.2493 2.63988 24.2388 2.4215 24.2421C2.25742 21.8539 2.36721 19.0739 2.4215 16.6411C2.79311 16.5447 3.2552 16.4364 3.56647 16.7221C3.50494 19.3611 3.40602 21.5772 3.63525 24.1926Z" fill="#35383D"/>
<path d="M159.926 24.0741C160.497 22.7733 160.132 19.7162 160.276 18.9307C160.17 18.6866 160.049 18.357 159.904 18.1865C159.475 18.1898 158.973 18.0751 158.716 18.6397C159.051 20.3073 158.945 22.1397 158.881 23.9637L158.91 24.1937C159.38 24.2792 159.463 24.2548 159.926 24.0741Z" fill="#494D51"/>
<path d="M98.9114 19.4572L98.9005 21.989C97.8943 22.0062 96.8893 21.9792 95.8855 21.9072L95.8348 19.3938L98.9114 19.4572Z" fill="#35383D"/>
<path d="M122.287 17.3561C122.306 18.8197 122.496 23.3686 122.02 24.7614C121.958 24.9428 121.81 24.9237 121.667 24.9545L121.491 24.6114C121.521 22.5224 121.302 19.0552 121.574 17.0651C121.588 16.9613 121.805 16.8773 121.9 16.8252C122.099 16.9373 122.154 17.0981 122.287 17.3561Z" fill="#494D51"/>
<path d="M95.1902 21.6342C95.201 22.2048 95.2264 22.4552 95.0864 22.9786C93.4601 22.994 91.9085 22.832 90.2254 22.8826C90.2194 22.4226 90.1856 22.0829 90.34 21.6938C91.5453 21.491 93.8992 21.6192 95.1902 21.6342Z" fill="#35383D"/>
<path d="M101.539 17.076C101.399 19.4286 101.552 22.0755 101.429 24.5357C101.213 24.8892 101.13 24.7809 100.722 24.8412C100.753 22.9839 100.653 18.6001 100.785 17.2069C101.088 16.9287 101.118 17.0408 101.539 17.076Z" fill="#494D51"/>
<path d="M95.1479 18.5006C95.1045 18.7316 95.0454 19.2516 94.9223 19.3074C93.7146 19.8578 91.8059 19.5665 90.5282 19.4578C90.1506 19.4255 90.1144 19.1354 89.9395 18.7481C90.0034 18.4298 90.0818 18.1763 90.1687 17.8741C90.825 19.0986 94.0102 18.495 95.1479 18.5006Z" fill="#35383D"/>
<path d="M188.091 18.8801C188.103 20.1053 188.322 22.8455 187.846 23.7052C187.436 23.9729 187.554 23.8941 187.067 23.7937C187.503 21.864 186.988 20.5338 187.32 19.0143C187.636 18.7016 187.629 18.8227 188.091 18.8801Z" fill="#35383D"/>
<path d="M122.587 19.5291C123.108 19.688 123.598 19.7611 124.151 19.9426C124.475 20.4289 124.52 20.9864 124.4 21.6406C124.009 22.1032 123.578 21.8633 122.936 22.1801L122.842 22.5618L122.607 22.5659L122.587 19.5291Z" fill="#35383D"/>
<path d="M89.8488 17.716C89.8609 18.3005 89.8959 18.8861 89.8018 19.4507L89.6304 19.5396C89.0236 19.0676 89.0658 18.8554 88.5748 18.2113L88.3938 18.275C88.0367 18.377 87.8581 18.4175 87.5661 18.1528L87.6868 17.9623C88.4625 17.5495 89.0405 17.6579 89.8488 17.716Z" fill="#35383D"/>
<path d="M122.842 22.5618C123.321 22.4534 123.826 22.2506 124.259 22.5449L124.36 22.8077C124.147 23.7067 123.374 23.9475 122.823 23.7994C122.469 23.3648 122.457 23.3468 122.606 22.5659L122.842 22.5618Z" fill="#494D51"/>
<path d="M124.486 18.5648L124.363 19.2584C123.909 19.6513 123.032 19.3458 122.486 19.2352C122.577 18.5888 122.495 18.7144 122.771 18.3312C123.262 18.1048 123.955 18.4055 124.486 18.5648Z" fill="#494D51"/>
<path d="M100.458 19.5418C100.477 20.1822 100.498 20.7254 100.475 21.3703C100.268 21.912 100.371 21.7512 99.9137 21.9477C99.8992 20.7607 99.6495 19.8162 100.458 19.5418Z" fill="#494D51"/>
<path d="M142.111 18.4431C142.622 18.4026 143.169 18.2697 143.613 18.6194C144.279 19.7928 143.778 21.3413 143.931 23.345L143.836 23.4794C143.344 24.098 142.553 23.8928 141.937 23.8608L140.321 23.8598C140.728 22.9305 141.132 21.9209 141.977 22.1412C142.182 22.4902 142.196 22.4567 142.191 22.7137L142.188 23.0931C142.359 23.1999 142.286 23.1875 142.487 23.0821C142.506 21.9901 142.568 20.3023 142.466 19.2706L142.364 19.1571L142.166 19.7146C141.197 20.4345 140.938 19.6641 140.475 18.4093L142.111 18.4431Z" fill="#35383D"/>
<path d="M89.3677 21.8696C89.8346 21.7594 89.676 21.6916 90.0199 22.0688C90.139 22.6631 89.8592 23.3422 89.5927 23.7396C89.1029 23.9173 89.2844 23.9046 88.7693 23.635L88.6109 24.4296L88.3132 24.6457C87.9768 24.3908 88.0804 24.5425 87.9199 23.9885C87.9802 23.2734 87.9094 23.5189 88.1868 22.9669L88.7922 22.8703C89.0214 22.5677 88.9587 22.2854 89.3677 21.8696Z" fill="#35383D"/>
<path d="M83.2494 25.9351C83.6322 25.6537 86.062 25.6832 86.5681 25.7728C86.8524 25.7836 87.1021 25.9355 87.4503 26.3891H88.8642C89.2901 25.8335 89.3441 25.9353 89.7504 25.7568L92.632 25.7837C92.1337 29.2312 91.6538 31.4136 90.2313 34.1467L90.2781 34.4902C90.0055 35.0331 89.0089 36.2237 88.5685 36.1202L88.1394 36.0047C86.5999 36.5681 84.5743 36.0599 83.574 33.9675C82.89 32.8496 81.1327 28.2194 81.5786 26.7983C81.7994 26.7305 81.8466 26.6943 82.0625 26.7595C82.3496 26.6968 82.7155 26.5161 83.0025 26.3891L83.2494 25.9351Z" fill="#35383D"/>
<path d="M132.166 18.4014C134.104 18.166 137.517 18.2731 138.981 18.3561L138.943 18.7968C134.337 18.9534 125.007 19.1985 124.534 18.9257C124.534 18.6473 125.004 18.5054 125.239 18.4693C126.74 18.5447 130.228 18.6368 132.166 18.4014Z" fill="#9C9EA1"/>
<path d="M206.96 19.0309C204.419 18.9842 201.31 18.9837 198.769 19.0509L196.515 19.0146C196.525 19.733 196.44 23.2598 196.613 23.7615C196.909 23.9004 197.024 23.8699 197.351 23.8384C199.321 23.9191 201.789 23.8339 203.812 23.8658C205.13 23.8864 208.095 23.9217 209.284 23.8068C209.295 22.2177 209.281 20.6286 209.241 19.0398L206.96 19.0309Z" fill="#494D51"/>
<path d="M206.961 19.0307C204.419 18.9839 201.311 18.9835 198.77 19.0506C199.018 19.085 199.667 19.1525 199.849 19.2658C199.559 19.635 199.461 19.7982 199.677 20.2128C200.304 20.6051 205.54 20.4865 206.592 20.3546C206.939 20.311 207.07 20.1876 207.294 19.9792C207.323 19.5306 207.361 19.6968 207.086 19.3076L206.961 19.0307Z" fill="#020101"/>
<path d="M206.961 19.0308C204.419 18.984 201.31 18.9836 198.77 19.0508C199.017 19.0851 199.666 19.1526 199.849 19.2659C201.341 19.4175 205.179 19.2156 207.086 19.3077L206.961 19.0308Z" fill="#9C9EA1"/>
<path d="M206.925 19.6164C205.279 19.5273 201.965 19.5383 200.253 19.6561C200.066 19.6691 200.016 19.8448 199.913 20.0136C200.826 20.0732 206.249 20.1206 206.806 19.9122L206.925 19.6164Z" fill="#35383D"/>
<path d="M207.208 23.6495C207.318 23.3201 207.44 23.1022 207.277 22.7939C206.435 22.2348 202.028 22.5431 200.807 22.5191C200.338 22.5098 199.916 22.6528 199.625 22.9696C199.62 23.3956 199.585 23.2434 199.881 23.6198C199.485 23.8336 198.091 23.6728 197.351 23.8384C199.321 23.9191 201.789 23.8339 203.812 23.8657C205.13 23.8864 208.095 23.9217 209.284 23.8068C208.682 23.717 207.557 23.8581 207.208 23.6495Z" fill="#020101"/>
<path d="M207.208 23.6494C206.259 23.5981 200.684 23.541 199.881 23.6197C199.485 23.8335 198.091 23.6727 197.351 23.8383C199.321 23.919 201.789 23.8338 203.812 23.8656C205.13 23.8863 208.095 23.9216 209.284 23.8067C208.682 23.7169 207.557 23.8581 207.208 23.6494Z" fill="#35383D"/>
<path d="M206.977 22.9131C206.156 22.8128 200.637 22.7819 200.114 22.9804L200.023 23.2699C202.043 23.3898 204.396 23.2765 206.442 23.2871C206.825 23.2889 206.888 23.1737 206.977 22.9131Z" fill="#35383D"/>
<path d="M83.3625 11.357C84.1475 11.3718 84.7514 11.4206 85.2102 11.5308C85.672 11.6418 86.0148 11.8211 86.2444 12.1158C86.4708 12.4064 86.5579 12.7732 86.5911 13.1929C86.6241 13.6115 86.6061 14.1256 86.5891 14.7291L86.5881 14.7701L86.5735 14.8082C86.5156 14.9687 86.4893 15.1674 86.4553 15.3892C86.4393 15.4937 86.4215 15.6044 86.3958 15.7047C86.3708 15.8019 86.3332 15.9122 86.2668 16.0045L86.2161 16.0757L86.1321 16.1002C85.9282 16.1604 85.674 16.1645 85.4426 16.1314C85.2132 16.0986 84.9642 16.0234 84.7844 15.8912L84.7454 15.8629L84.72 15.8228L84.6477 15.7086L84.6331 15.6851L84.6233 15.6597C84.4599 15.2168 84.5099 14.7424 84.5442 14.3853C84.5624 14.196 84.5762 14.0434 84.5696 13.9156C84.5629 13.7887 84.5369 13.725 84.5081 13.69V13.689C84.4567 13.6264 84.3662 13.5616 84.2239 13.5015C84.083 13.4421 83.9054 13.3931 83.6956 13.355C83.2751 13.2789 82.7572 13.2507 82.2141 13.2427C81.6711 13.2347 81.1192 13.2475 80.6243 13.2515C80.1399 13.2555 79.6968 13.2507 79.4016 13.2027L79.3928 13.0894H79.0627L79.0481 12.8502C79.0252 12.4722 79.0597 11.9559 79.0715 11.5972L79.0793 11.3492L79.3284 11.3511C80.6485 11.3633 82.0279 11.3311 83.3625 11.357Z" fill="#494D51" stroke="black" stroke-width="0.509804"/>
<path d="M59.8213 10.114C60.1461 10.0179 60.4993 9.94604 60.8447 9.98505C61.1833 10.0233 61.5024 10.1677 61.7734 10.4675C62.1746 10.6646 62.6038 10.5808 63.1338 10.4118C63.3923 10.3294 63.6848 10.2241 63.9697 10.152C64.2601 10.0787 64.5708 10.0325 64.8896 10.071L65.2002 10.0856C65.3341 10.0898 65.482 10.094 65.5645 10.0983L65.6709 10.1032L65.7412 10.1823C66.0249 10.4997 66.1977 10.5968 66.3711 10.6354C66.466 10.6566 66.5743 10.6633 66.7217 10.6618C66.7952 10.661 66.8751 10.6589 66.9658 10.6559C67.0294 10.6539 67.0978 10.6509 67.1709 10.6491C67.3608 10.4885 67.5217 10.3544 67.6865 10.1804L67.7588 10.1042L67.8633 10.1003C68.0768 10.0929 68.2877 10.073 68.5166 10.0573C68.7387 10.0421 68.9705 10.0318 69.1953 10.0505C69.6059 10.0847 70.0087 10.2183 70.3145 10.5925C70.6192 10.5436 70.8888 10.5889 71.0615 10.5905C71.1744 10.5915 71.2783 10.5803 71.3896 10.5397C71.5021 10.4988 71.6365 10.4233 71.8018 10.278L71.8271 10.2546L71.8584 10.2399C72.1566 10.0944 72.5571 10.0701 72.915 10.0788C73.0985 10.0832 73.2843 10.097 73.457 10.113L73.9199 10.1608L73.9941 10.1677L74.0518 10.2145C74.4329 10.5158 74.7336 10.6514 75.0146 10.6667C75.2917 10.6816 75.5976 10.5805 75.998 10.3044C76.0798 10.2323 76.1837 10.1909 76.2676 10.1657C76.3786 10.1323 76.5111 10.1091 76.6514 10.0925C76.933 10.0591 77.279 10.0502 77.623 10.0583C77.9679 10.0664 78.3189 10.0912 78.6133 10.1296C78.7604 10.1488 78.8971 10.1717 79.0127 10.1979C79.1229 10.223 79.2327 10.2553 79.3164 10.2995L79.3877 10.3376L79.4238 10.4079C79.5295 10.6122 79.5644 10.8298 79.5762 11.03C79.5873 11.2192 79.5783 11.4396 79.5801 11.6022V11.614C79.5659 12.0007 79.5364 12.473 79.5586 12.8181L79.5605 12.8356L79.5586 12.8532C79.5539 12.9171 79.5562 12.9738 79.5596 13.0349C79.5627 13.0919 79.5679 13.1671 79.5654 13.2429C79.5597 13.4154 79.5134 13.5885 79.375 13.8102L79.3486 13.8532L79.3086 13.8825C78.9134 14.1674 78.3872 14.2399 77.8926 14.2516C77.6405 14.2576 77.3839 14.2477 77.1406 14.236C76.8941 14.2242 76.665 14.2107 76.4541 14.2077L76.3574 14.2057L76.2861 14.1413C75.8329 13.7312 75.4992 13.5543 75.2061 13.5446C74.9236 13.5354 74.6027 13.6805 74.1719 14.1198L74.1025 14.1911L74.0039 14.196C73.3352 14.2324 72.7412 14.2019 72.0918 14.1774L71.9932 14.1735L71.9229 14.1042C71.5283 13.7154 71.1865 13.5529 70.8779 13.5495C70.5714 13.5462 70.2309 13.6995 69.8359 14.0925L69.7646 14.1628L69.665 14.1667C69.3628 14.1771 69.05 14.1803 68.7383 14.1813H67.708L67.6328 14.1042C67.2202 13.6776 66.9139 13.5121 66.6465 13.5056C66.3816 13.4992 66.0691 13.6466 65.6387 14.0729L65.5674 14.1442L65.4658 14.1472C64.8644 14.1624 64.2014 14.1432 63.6074 14.1364L63.5156 14.1354L63.4453 14.0749L63.377 14.0173L63.2588 13.9225L63.2568 13.9206C62.8682 13.6008 62.5727 13.5357 62.3018 13.5807C62.0051 13.6301 61.6929 13.8164 61.2842 14.1071L61.2207 14.152L61.1426 14.154C60.5957 14.1678 59.9695 14.1483 59.4316 14.1442H59.3438L59.2754 14.0895C58.7812 13.6994 58.4731 13.541 58.1973 13.5339C57.9278 13.5271 57.6207 13.6647 57.1289 14.07L57.0635 14.1237L56.9785 14.1276C56.1558 14.1639 55.5771 14.1448 54.7637 14.027L54.5498 13.9958L54.5449 13.78C54.5361 13.3672 54.5169 12.7421 54.5176 12.1266C54.5183 11.5167 54.5384 10.891 54.6152 10.4802L54.6318 10.3923L54.6992 10.3337C54.9608 10.1067 55.2859 10.023 55.6113 10.0114C55.9353 9.99993 56.2802 10.059 56.6055 10.1384C56.9306 10.2178 57.2556 10.3228 57.5332 10.4069C57.8218 10.4944 58.0473 10.5559 58.2061 10.569L58.3447 10.5671C58.4943 10.5535 58.6761 10.5055 58.8945 10.4323C59.1626 10.3425 59.506 10.2072 59.8213 10.114Z" fill="#4D3719" stroke="black" stroke-width="0.509804"/>
<path fill-rule="evenodd" clip-rule="evenodd" d="M58.1847 10.8228C59.0995 10.8954 60.6808 9.55825 61.6216 10.6788C62.6461 11.2219 63.757 10.1905 64.8583 10.3235C64.9818 10.3386 65.3891 10.3441 65.5496 10.3523C66.1503 11.0244 66.415 10.9146 67.268 10.9009C67.4847 10.7185 67.6754 10.5622 67.8715 10.3551C68.7492 10.3249 69.6901 10.0767 70.2071 10.8762C70.8654 10.6911 71.233 11.1149 71.9681 10.4689C72.4481 10.2358 73.3547 10.3592 73.8923 10.4141C74.6905 11.0449 75.2926 11.1025 76.1484 10.5114C76.4227 10.1878 78.7693 10.3002 79.1972 10.5251C79.3618 10.8433 79.3207 11.2328 79.3248 11.6045C79.3111 11.9789 79.2809 12.4727 79.3028 12.8347L79.2027 12.8169C79.0491 12.5385 79.0834 11.994 79.0697 11.6347L70.262 11.5359C67.1268 11.5716 64.0354 11.6319 60.8947 11.5181C59.6604 11.4728 58.0256 11.5949 56.8557 11.4578C56.218 11.4619 55.5528 11.6168 55.0399 11.3631C54.7971 11.0353 54.8821 11.0285 54.8657 10.5265C55.679 9.8202 57.4208 10.7597 58.1847 10.8228Z" fill="#775426"/>
<path d="M60.7111 11.1588C60.2229 11.1684 59.7483 11.2369 59.3424 10.9626V10.7926C59.8855 10.3674 60.9278 10.3455 61.4545 10.8392L61.3859 11.0861C61.1431 11.1931 60.9772 11.1643 60.7111 11.1588ZM55.0291 10.6664C55.6599 10.6417 57.1411 10.3784 57.3139 11.0888C56.7846 11.1245 55.5036 11.2808 55.088 10.9928L55.0291 10.6664ZM69.2788 11.2013C68.7755 11.1437 68.3517 11.1835 67.8346 11.0587L67.8552 10.9215C68.4545 10.5128 69.3899 10.4346 69.9316 10.9613C69.6326 11.1451 69.645 11.1533 69.2788 11.2013ZM72.7679 11.226C72.4318 11.1917 72.1534 11.2315 71.9559 11.034L71.9751 10.879C72.414 10.5389 73.5729 10.4579 73.9611 10.8872C73.898 11.1889 73.9707 11.0683 73.7306 11.2657C73.4426 11.2315 73.0655 11.2342 72.7679 11.226ZM64.4663 11.1396C64.1302 11.1094 63.8518 11.1423 63.6543 10.975L63.6735 10.8406C64.1124 10.5471 65.2713 10.4771 65.6594 10.8474C65.5964 11.1067 65.669 11.0038 65.429 11.1739C65.141 11.1437 64.7639 11.1451 64.4663 11.1396ZM76.4393 10.6115C77.0839 10.6033 78.9656 10.3441 79.0177 11.1492C78.657 11.3412 76.7685 11.2123 76.1445 11.2589C76.0402 10.9078 76.2171 10.8296 76.4393 10.6115Z" fill="#C58F47"/>
<path d="M8.07483 16.5241L41.2348 16.7718L41.2219 17.8392L3.78491 17.8392L4.04356 16.6966L4.97051 16.5457L8.07483 16.5241Z" fill="#C58F47"/>
<path d="M121.223 18.1811L101.702 18.1811L101.751 17.0596L102.258 16.9388L103.587 16.9146L104.287 16.9147L119.967 16.9871L121.103 17.0113L121.223 18.1811Z" fill="#C58F47"/>
</svg>
