<svg width="210" height="42" viewBox="0 0 210 42" fill="none" xmlns="http://www.w3.org/2000/svg">
<path d="M186.5 37L186.5 39L185.625 40L179.5 40L179.5 37L186.5 37Z" fill="black"/>
<rect x="185.5" y="38" width="1" height="5" transform="rotate(90 185.5 38)" fill="#35383D"/>
<path d="M184.4 37.5L186 24L183.6 24L182 39L183.6 39L184.4 37.5Z" fill="#494D51" stroke="black" stroke-width="0.7"/>
<path d="M185.107 26.466C185.002 26.8599 184.378 26.5649 184.146 26.3893C184.162 26.3006 184.164 26.2811 184.21 26.205C184.406 26.1258 184.931 26.3223 185.107 26.466Z" fill="black"/>
<path d="M185.01 26.5374C184.847 26.6536 184.413 26.4577 184.226 26.3614C184.246 26.3291 184.281 26.3189 184.316 26.3026C184.518 26.3338 184.832 26.4157 185.01 26.5374Z" fill="black"/>
<path d="M184.98 27.3343C184.875 27.7283 184.252 27.4332 184.019 27.2576C184.036 27.1689 184.037 27.1495 184.084 27.0734C184.28 26.9942 184.805 27.1906 184.98 27.3343Z" fill="black"/>
<path d="M184.884 27.4057C184.72 27.522 184.287 27.326 184.1 27.2297C184.119 27.1975 184.155 27.1872 184.189 27.1709C184.392 27.2021 184.705 27.2841 184.884 27.4057Z" fill="black"/>
<path d="M184.854 28.2027C184.749 28.5966 184.125 28.3016 183.893 28.126C183.909 28.0373 183.911 28.0178 183.957 27.9417C184.153 27.8625 184.678 28.059 184.854 28.2027Z" fill="black"/>
<path d="M184.758 28.2741C184.594 28.3903 184.16 28.1944 183.973 28.0981C183.993 28.0658 184.028 28.0555 184.063 28.0393C184.265 28.0705 184.579 28.1524 184.758 28.2741Z" fill="black"/>
<path d="M184.727 29.071C184.623 29.465 183.999 29.1699 183.766 28.9943C183.783 28.9056 183.785 28.8862 183.831 28.8101C184.027 28.7309 184.552 28.9273 184.727 29.071Z" fill="black"/>
<path d="M184.631 29.1424C184.467 29.2587 184.034 29.0627 183.847 28.9664C183.866 28.9342 183.902 28.9239 183.937 28.9076C184.139 28.9388 184.452 29.0208 184.631 29.1424Z" fill="black"/>
<path d="M184.601 29.9393C184.496 30.3332 183.872 30.0382 183.64 29.8626C183.657 29.7739 183.658 29.7545 183.705 29.6784C183.901 29.5991 184.426 29.7956 184.601 29.9393Z" fill="black"/>
<path d="M184.505 30.0107C184.341 30.1269 183.908 29.931 183.72 29.8347C183.74 29.8025 183.775 29.7922 183.81 29.7759C184.013 29.8071 184.326 29.889 184.505 30.0107Z" fill="black"/>
<path d="M184.475 30.8077C184.37 31.2016 183.746 30.9066 183.514 30.731C183.53 30.6422 183.532 30.6228 183.578 30.5467C183.774 30.4675 184.299 30.664 184.475 30.8077Z" fill="black"/>
<path d="M184.378 30.8791C184.215 30.9953 183.781 30.7994 183.594 30.703C183.613 30.6708 183.649 30.6605 183.684 30.6443C183.886 30.6755 184.2 30.7574 184.378 30.8791Z" fill="black"/>
<path d="M184.348 31.676C184.243 32.0699 183.62 31.7749 183.387 31.5993C183.404 31.5106 183.405 31.4912 183.452 31.4151C183.648 31.3358 184.173 31.5323 184.348 31.676Z" fill="black"/>
<path d="M184.252 31.7474C184.088 31.8636 183.655 31.6677 183.468 31.5714C183.487 31.5391 183.523 31.5289 183.557 31.5126C183.76 31.5438 184.073 31.6257 184.252 31.7474Z" fill="black"/>
<path d="M184.222 32.5444C184.117 32.9383 183.493 32.6433 183.261 32.4676C183.277 32.3789 183.279 32.3595 183.325 32.2834C183.521 32.2042 184.046 32.4007 184.222 32.5444Z" fill="black"/>
<path d="M184.125 32.6158C183.962 32.732 183.528 32.5361 183.341 32.4397C183.361 32.4075 183.396 32.3972 183.431 32.381C183.633 32.4121 183.947 32.4941 184.125 32.6158Z" fill="black"/>
<path d="M184.095 33.4127C183.99 33.8066 183.367 33.5116 183.134 33.336C183.151 33.2473 183.152 33.2279 183.199 33.1518C183.395 33.0725 183.92 33.269 184.095 33.4127Z" fill="black"/>
<path d="M183.999 33.4841C183.835 33.6003 183.402 33.4044 183.215 33.3081C183.234 33.2758 183.27 33.2656 183.304 33.2493C183.507 33.2805 183.82 33.3624 183.999 33.4841Z" fill="black"/>
<path d="M186.5 5L186.5 3L185.625 2L179.5 2L179.5 5L186.5 5Z" fill="black"/>
<rect width="1" height="5" transform="matrix(5.12448e-08 -1 -1 -3.46093e-08 185.5 4)" fill="#35383D"/>
<path d="M184.4 4.5L186 18L183.6 18L182 3L183.6 3L184.4 4.5Z" fill="#494D51" stroke="black" stroke-width="0.7"/>
<path d="M185.107 15.534C185.002 15.1401 184.378 15.4351 184.146 15.6107C184.162 15.6994 184.164 15.7189 184.21 15.795C184.406 15.8742 184.931 15.6777 185.107 15.534Z" fill="black"/>
<path d="M185.01 15.4626C184.847 15.3464 184.413 15.5423 184.226 15.6386C184.246 15.6709 184.281 15.6811 184.316 15.6974C184.518 15.6662 184.832 15.5843 185.01 15.4626Z" fill="black"/>
<path d="M184.98 14.6657C184.875 14.2717 184.252 14.5668 184.019 14.7424C184.036 14.8311 184.037 14.8505 184.084 14.9266C184.28 15.0058 184.805 14.8094 184.98 14.6657Z" fill="black"/>
<path d="M184.884 14.5943C184.72 14.478 184.287 14.674 184.1 14.7703C184.119 14.8025 184.155 14.8128 184.189 14.8291C184.392 14.7979 184.705 14.7159 184.884 14.5943Z" fill="black"/>
<path d="M184.854 13.7973C184.749 13.4034 184.125 13.6984 183.893 13.874C183.909 13.9627 183.911 13.9822 183.957 14.0583C184.153 14.1375 184.678 13.941 184.854 13.7973Z" fill="black"/>
<path d="M184.758 13.7259C184.594 13.6097 184.16 13.8056 183.973 13.9019C183.993 13.9342 184.028 13.9445 184.063 13.9607C184.265 13.9295 184.579 13.8476 184.758 13.7259Z" fill="black"/>
<path d="M184.727 12.929C184.623 12.535 183.999 12.8301 183.766 13.0057C183.783 13.0944 183.785 13.1138 183.831 13.1899C184.027 13.2691 184.552 13.0727 184.727 12.929Z" fill="black"/>
<path d="M184.631 12.8576C184.467 12.7413 184.034 12.9373 183.847 13.0336C183.866 13.0658 183.902 13.0761 183.937 13.0924C184.139 13.0612 184.452 12.9792 184.631 12.8576Z" fill="black"/>
<path d="M184.601 12.0607C184.496 11.6668 183.872 11.9618 183.64 12.1374C183.657 12.2261 183.658 12.2455 183.705 12.3216C183.901 12.4009 184.426 12.2044 184.601 12.0607Z" fill="black"/>
<path d="M184.505 11.9893C184.341 11.8731 183.908 12.069 183.72 12.1653C183.74 12.1975 183.775 12.2078 183.81 12.2241C184.013 12.1929 184.326 12.111 184.505 11.9893Z" fill="black"/>
<path d="M184.475 11.1923C184.37 10.7984 183.746 11.0934 183.514 11.269C183.53 11.3578 183.532 11.3772 183.578 11.4533C183.774 11.5325 184.299 11.336 184.475 11.1923Z" fill="black"/>
<path d="M184.378 11.1209C184.215 11.0047 183.781 11.2006 183.594 11.297C183.613 11.3292 183.649 11.3395 183.684 11.3557C183.886 11.3245 184.2 11.2426 184.378 11.1209Z" fill="black"/>
<path d="M184.348 10.324C184.243 9.93007 183.62 10.2251 183.387 10.4007C183.404 10.4894 183.405 10.5088 183.452 10.5849C183.648 10.6642 184.173 10.4677 184.348 10.324Z" fill="black"/>
<path d="M184.252 10.2526C184.088 10.1364 183.655 10.3323 183.468 10.4286C183.487 10.4609 183.523 10.4711 183.557 10.4874C183.76 10.4562 184.073 10.3743 184.252 10.2526Z" fill="black"/>
<path d="M184.222 9.45563C184.117 9.06172 183.493 9.35674 183.261 9.53235C183.277 9.62107 183.279 9.6405 183.325 9.71659C183.521 9.79582 184.046 9.59933 184.222 9.45563Z" fill="black"/>
<path d="M184.125 9.38424C183.962 9.26801 183.528 9.46394 183.341 9.56027C183.361 9.59251 183.396 9.60278 183.431 9.61903C183.633 9.58786 183.947 9.50592 184.125 9.38424Z" fill="black"/>
<path d="M184.095 8.58729C183.99 8.19337 183.367 8.48839 183.134 8.664C183.151 8.75272 183.152 8.77215 183.199 8.84824C183.395 8.92747 183.92 8.73098 184.095 8.58729Z" fill="black"/>
<path d="M183.999 8.51589C183.835 8.39967 183.402 8.59559 183.215 8.69192C183.234 8.72416 183.27 8.73443 183.304 8.75068C183.507 8.71951 183.82 8.63757 183.999 8.51589Z" fill="black"/>
<path d="M124.019 23.9698L120.898 25.2276L120.849 25.2481L120.796 25.2461C120.108 25.2216 116.178 25.2168 112.408 25.2227C110.525 25.2256 108.685 25.2318 107.313 25.2383C106.628 25.2416 106.059 25.2445 105.661 25.2481C105.462 25.2499 105.306 25.2521 105.2 25.254C105.147 25.2549 105.107 25.256 105.081 25.2569C105.068 25.2573 105.059 25.2576 105.056 25.2579L105.04 25.2588C104.219 25.2963 103.709 25.3047 103.319 25.3086C103.01 25.3117 102.783 25.3146 102.536 25.3252C102.53 25.3527 102.525 25.3807 102.518 25.4083C102.487 25.5242 102.444 25.6554 102.393 25.794C102.291 26.0713 102.152 26.3924 102.005 26.711C101.711 27.3471 101.373 27.9919 101.196 28.2842L101.123 28.4053L93.7178 28.4053L93.6543 28.2481C93.5466 27.9805 93.3675 27.4708 93.1924 26.9698C93.0378 26.5275 92.885 26.0911 92.7812 25.8135C92.6376 25.7702 92.5439 25.7348 92.4453 25.6924C92.3752 25.6624 92.3016 25.6317 92.1992 25.5928C91.7958 27.0264 91.6167 28.3519 91.3057 29.7442C90.9794 31.2044 90.5127 32.6826 89.4893 34.2706L89.4893 34.2696C89.3332 34.57 89.0075 35.0105 88.667 35.3653C88.4914 35.5482 88.3022 35.7182 88.1211 35.8379C88.0305 35.8978 87.9348 35.9506 87.8379 35.9835C87.7904 35.9995 87.7382 36.0111 87.6836 36.0167C86.7913 37.1061 86.4308 37.2647 85.5352 38.0303C84.3347 39.0583 83.3265 39.7706 82.2588 40.1661C81.1839 40.5641 80.0692 40.6343 78.665 40.419C77.5189 40.2431 76.5443 39.5692 75.7236 38.5987C74.9038 37.6291 74.2242 36.3492 73.665 34.9268C72.5466 32.0816 71.8907 28.6149 71.5674 25.7745L71.5664 25.7754C71.539 25.5352 71.5143 25.3655 71.4844 25.2442C71.4537 25.1203 71.4251 25.0805 71.4141 25.0694C71.413 25.0684 71.4038 25.0545 71.3369 25.0518C71.2765 25.0494 71.1956 25.0575 71.0781 25.0752C71.0039 25.1577 70.911 25.2229 70.8125 25.2745C70.6732 25.3474 70.5052 25.4041 70.3193 25.4493C69.9475 25.5397 69.469 25.5923 68.9268 25.6192C67.8402 25.673 66.4517 25.6254 65.0449 25.545C63.6378 25.4645 62.1984 25.3501 61.0166 25.2696C60.4241 25.2292 59.896 25.1981 59.4658 25.1827C59.1395 25.171 58.8784 25.1691 58.6904 25.1788L58.5273 25.1924L58.1543 25.2198C57.9761 25.2308 57.7582 25.2431 57.5449 25.254C57.1633 25.2734 56.7635 25.2889 56.6035 25.2891C56.353 25.3473 55.9227 25.489 55.4824 25.6221C55.2623 25.6887 55.0426 25.7522 54.8545 25.7969C54.6898 25.8361 54.5146 25.8677 54.3828 25.8604L54.3828 25.8614C54.1839 25.861 53.7679 25.8732 53.3799 25.8653C53.183 25.8613 52.9835 25.8517 52.8086 25.8331C52.6415 25.8152 52.4688 25.786 52.3428 25.7295L52.2861 25.7042L52.248 25.6553C52.2296 25.6316 52.1252 25.4986 52.0254 25.3711C51.9761 25.3082 51.9286 25.2463 51.8926 25.2002C48.9003 24.7441 45.8334 24.8841 42.792 24.9444C42.7353 24.9457 42.683 24.9679 42.6172 25.042C42.5443 25.1243 42.4752 25.2484 42.3916 25.418L42.3525 25.4961L42.2744 25.5333C42.1811 25.5775 42.0553 25.5994 41.9365 25.6133C41.8091 25.6283 41.6561 25.6373 41.4893 25.6417C41.1551 25.6504 40.7479 25.642 40.3398 25.625C39.5243 25.5912 38.6857 25.5233 38.3857 25.4864L38.2754 25.4727L38.2119 25.3819C38.1976 25.3616 38.1924 25.3545 38.1826 25.3409C38.1744 25.3295 38.1611 25.3105 38.1484 25.2852C38.1377 25.2637 38.1298 25.2421 38.126 25.2315C38.1209 25.2177 38.1157 25.2004 38.1055 25.1739C38.0461 25.021 38.0033 24.9031 37.9473 24.7999C37.9412 24.7975 37.9337 24.795 37.9248 24.792C37.8686 24.7735 37.7808 24.7529 37.6582 24.7325C37.4148 24.6919 37.0651 24.6559 36.6182 24.625C35.7256 24.5634 34.4705 24.5228 32.9609 24.4981C29.943 24.4486 25.9229 24.4622 21.7832 24.4922C13.5177 24.5523 4.74915 24.6791 2.59375 24.4981C2.46019 24.487 2.16563 24.4759 1.89062 24.4209C1.75129 24.3931 1.60271 24.3512 1.4707 24.2862C1.37261 24.2378 1.27288 24.1709 1.19434 24.0772L1.12305 23.9747C1.02839 23.8021 0.96246 23.5674 0.913085 23.3057C0.862819 23.0392 0.827078 22.7242 0.801757 22.3799C0.751128 21.6912 0.74201 20.8659 0.755859 20.0313C0.783581 18.3609 0.901235 16.6339 0.958007 15.8506L0.972656 15.6465L1.17578 15.6211C2.15697 15.4966 3.66546 15.4825 5.16894 15.4991C6.68535 15.5158 8.19194 15.5626 9.21191 15.5635L9.21387 15.5635L27.1045 15.7188L33.877 15.7461C36.1369 15.7524 38.3971 15.7561 40.6504 15.7549C41.0564 15.7548 41.4316 15.5862 41.8242 15.3731C42.0117 15.2713 42.2163 15.1512 42.4082 15.0547C42.6041 14.9562 42.8122 14.8678 43.0283 14.8243L43.0605 14.8184L43.0918 14.8194C43.2322 14.8273 43.4173 14.8902 43.5869 14.9542C43.7661 15.0217 43.9726 15.1091 44.166 15.1885C44.3641 15.2698 44.5499 15.3432 44.7031 15.3907C44.7797 15.4144 44.8413 15.4296 44.8877 15.4366C44.94 15.4444 44.9476 15.4375 44.9316 15.4424C46.1266 15.0675 47.2553 15.0211 48.3672 15.0713C48.9216 15.0964 49.4764 15.1459 50.0303 15.1915C50.5863 15.2372 51.1443 15.2791 51.7158 15.2911C58.333 15.3733 64.9502 15.403 71.5674 15.3819C71.779 13.2621 72.2388 10.8026 72.9219 8.5274C73.6277 6.17655 74.5769 3.99491 75.749 2.59185C77.5447 0.442389 80.266 0.566616 82.3145 1.0274L82.3447 1.03423L82.3721 1.04888L82.7363 1.23345C82.9904 1.34642 83.4072 1.63171 83.8818 1.98736C84.375 2.35688 84.9566 2.82176 85.5361 3.30181C86.5475 4.13954 87.5654 5.03302 88.1025 5.55279L88.3086 5.75884L88.3574 5.81353C88.7554 6.09409 89.1051 6.52396 89.4033 7.00005C89.7006 7.47465 89.9559 8.01084 90.1641 8.52642C90.2455 8.60891 90.3124 8.7157 90.3652 8.81744C90.4338 8.94965 90.4972 9.10448 90.5527 9.2608C90.6601 9.56306 90.7466 9.89094 90.7959 10.1153C91.0232 10.6695 91.1962 11.463 91.3594 12.2471C91.5275 13.0549 91.6862 13.8599 91.8818 14.462C91.98 14.7641 92.0815 14.9944 92.1855 15.1426C92.2912 15.293 92.3621 15.3093 92.3975 15.3077C92.4508 15.3051 92.574 15.2595 92.7715 15.0225C92.9619 14.794 93.1871 14.4277 93.4512 13.8838L93.5195 13.7432L93.6768 13.7432C95.7573 13.7443 99.0053 13.6193 101.022 13.9483L101.174 13.9727L101.221 14.1202L101.672 15.5499C102.212 15.5462 102.875 15.6225 103.542 15.7022C104.303 15.7932 105.077 15.8895 105.739 15.8985L119.962 15.9434L120.019 15.9434L120.07 15.9688L123.686 17.7354L185.314 17.8594L185.346 17.8594L185.375 17.8663C186.309 18.1005 186.891 18.0367 187.455 17.9249C188.028 17.8111 188.628 17.634 189.524 17.6837C190.587 17.6436 191.787 17.797 192.946 17.9268C194.128 18.0591 195.268 18.1659 196.246 18.046C199.459 17.6511 202.444 17.8239 205.617 17.8477C205.87 17.802 206.148 17.7275 206.479 17.6553C206.805 17.5844 207.162 17.522 207.505 17.5284C207.85 17.5349 208.201 17.6112 208.497 17.835C208.796 18.0608 209.007 18.4136 209.117 18.9122L209.121 18.9288L209.122 18.9464C209.176 19.6043 209.277 20.7422 209.243 21.8077C209.226 22.34 209.175 22.8656 209.063 23.3106C208.968 23.6924 208.819 24.0502 208.577 24.2911L208.468 24.3868L208.4 24.4376L208.316 24.4385C207.129 24.4438 205.913 24.35 204.722 24.2911C203.523 24.2318 202.34 24.2061 201.187 24.3419C200.353 24.4401 199.603 24.3965 198.873 24.3233C198.137 24.2495 197.44 24.1487 196.668 24.1212C194.572 24.0767 192.476 24.0973 190.381 24.1817L189.482 24.2217L189.479 24.2217C188.493 24.2563 187.869 24.0496 187.293 23.9249C186.73 23.8031 186.165 23.7426 185.215 24.0274L185.18 24.0381L185.143 24.0381L124.019 23.9698Z" fill="black" stroke="black" stroke-width="0.5"/>
<path d="M79.579 1.61248C80.5792 1.42689 81.5356 1.38656 82.1241 1.53879C82.7124 1.69105 82.9555 2.05059 82.9555 2.05059C82.608 2.46598 81.2867 2.33079 80.8824 2.54446C79.4696 3.2924 78.2723 5.42215 77.5906 7.30794C77.2335 8.31234 76.9351 9.36514 76.6975 10.4524C76.5635 11.0569 75.9999 15.3359 75.7296 15.5514C75.5704 15.6784 75.1245 15.6502 74.936 15.649L73.1199 15.6281C73.7955 10.3649 75.493 1.97038 79.579 1.61248Z" fill="#494D51"/>
<path d="M77.1463 26.1983C77.1942 26.2224 77.4599 26.4376 77.4659 26.4731C78.2875 31.2375 79.4 36.482 82.7601 38.0881C83.1628 38.1513 83.3882 38.084 83.6861 38.4187C83.2773 38.648 83.0145 38.5622 82.5888 38.4943C81.2955 38.3804 79.8545 37.805 79.0461 36.0817C78.2752 34.7992 75.8422 27.9289 76.3557 26.4293C76.6199 26.3468 76.8784 26.265 77.1463 26.1983Z" fill="#494D51"/>
<path d="M85.1234 19.1455L85.1294 22.5178L56.9346 22.4511C55.6967 22.4469 46.251 22.631 45.661 22.1748C45.2375 22.3708 44.8261 23.0517 44.9214 23.761L45.0843 23.7404C45.2001 23.403 45.3075 22.8901 45.5223 22.8788C47.7205 22.7641 50.3024 22.865 52.4645 22.8327L77.4814 22.8316C79.7291 22.814 82.5668 23.0363 84.718 22.9032L84.9255 23.1364C84.9496 23.7775 85.0136 23.7022 84.8229 24.1333C83.912 24.4302 82.603 24.1082 81.7379 24.1442C79.7472 24.2274 73.4432 23.6816 71.8446 24.3133C71.5538 24.383 71.409 24.4126 71.1146 24.419L70.9409 24.8434C70.1953 26.123 60.1499 24.7362 58.4958 24.9439C58.2979 24.9686 56.7669 25.0481 56.5678 25.0406C56.049 25.1565 54.7267 25.6461 54.3828 25.6116C53.9569 25.6108 52.7939 25.6577 52.4452 25.5014C52.4753 24.8202 52.5514 24.8502 52.339 24.4662L51.7056 24.3324C49.8995 24.2852 48.0945 24.2593 46.2896 24.2544C45.3461 24.248 43.5725 24.2889 42.6906 24.0696C42.6677 21.3556 42.6677 18.6412 42.6918 15.9272C43.3783 15.9549 44.0974 16.0026 44.7803 16.0086C45.1217 17.9967 45.4197 18.0065 46.6359 18.6832C46.6057 19.4713 46.5152 20.4382 46.6986 21.1464C46.9845 20.8318 46.9109 19.316 46.9037 18.7585C48.2477 19.075 49.4965 18.8302 50.855 18.7706C52.2714 18.7252 53.6867 18.7117 55.1031 18.7297C58.526 18.7447 61.9935 18.6997 65.4127 18.8609C71.8108 19.1627 78.7783 18.0327 85.1234 19.1455Z" fill="#494D51"/>
<path d="M56.5679 25.0406C56.0491 25.1568 54.7267 25.646 54.3829 25.6116C53.957 25.6112 52.7939 25.6577 52.4452 25.5017C52.4754 24.8201 52.5514 24.8501 52.3391 24.4662L51.7057 24.3327C52.7264 24.2743 54.1621 24.1783 55.1526 24.4216L55.2612 24.4358C55.1406 24.5198 55.1321 24.585 55.0597 24.7601C55.2914 25.0878 56.2011 25.0263 56.5679 25.0406Z" fill="#4F4F4F"/>
<path d="M45.0616 18.6941C45.0893 19.3551 45.2051 20.5484 44.9626 21.0426C44.6332 21.425 44.1434 21.326 43.7163 21.3207C43.7103 20.635 43.6234 19.3581 43.8695 18.8714C44.2098 18.5059 44.6381 18.6446 45.0616 18.6941Z" fill="#232425"/>
<path d="M44.8368 18.9943C44.8537 19.6403 44.8766 19.9608 44.7873 20.5888C44.4387 21.0009 44.47 20.8723 43.9549 20.9278C43.9392 20.272 43.9174 19.9545 44.0116 19.319C44.3458 18.8991 44.3156 19.0333 44.8368 18.9943Z" fill="#717171"/>
<path d="M91.5396 15.4618C90.555 15.4697 89.2979 15.6103 88.3303 15.2984C88.2217 15.2635 88.0045 14.7859 87.9309 14.6224L86.5856 14.6479C86.2249 15.4082 86.36 15.3629 85.8268 15.5188C83.7274 16.1344 82.1783 14.4271 80.3456 14.5099C81.1383 11.0611 82.2929 5.59559 85.2114 5.42876C86.1537 5.41788 86.0065 5.2919 87.0308 5.60983C87.3687 5.64395 87.651 6.04173 88.1215 5.92513L88.1879 5.99973C88.9263 6.50399 89.5368 7.62613 89.953 8.67027C90.2112 8.87234 90.4633 9.759 90.5562 10.1913C90.5647 11.2583 91.3115 14.06 91.5396 15.4618Z" fill="#35383D"/>
<path d="M88.1878 5.99982C88.9261 6.50408 89.5366 7.62621 89.9529 8.67035C89.6356 8.30706 88.3169 6.48908 88.1878 5.99982Z" fill="#232425"/>
<path d="M89.3533 22.8946C90.1689 22.9392 93.0549 22.5602 93.6026 23.1046C93.7112 23.2133 93.7763 23.785 93.9513 23.989C94.6499 24.8022 95.5161 23.1552 96.1664 23.0044C96.9675 22.8192 97.1497 23.2954 97.7252 23.9417C97.9436 24.1869 98.2187 24.1517 98.4696 24.085C98.7809 24.0021 98.8244 23.6268 98.9969 23.2373L99.3142 23.1758C99.7329 23.493 99.4131 24.5318 99.7642 24.7377C100.354 25.083 101.794 24.53 101.824 25.8171C101.637 26.5114 101.229 27.0505 100.88 27.5908C98.5227 27.8465 96.4548 27.4033 93.9513 27.5908C93.6026 26.7487 93.3046 25.7496 92.9728 24.9874L91.9014 24.9885L91.5721 24.9874C90.7614 24.9622 89.745 24.9814 88.9204 25.0773L89.3533 22.8946Z" fill="#775426"/>
<path d="M46.9037 18.7585C46.7686 18.5579 46.6359 18.3547 46.5032 18.1492L46.5611 17.813C46.8543 17.6165 53.3103 17.7256 54.004 17.726L74.8548 17.8268L81.3229 17.8197C82.3448 17.8137 84.0243 17.7155 84.9629 17.8561C85.2187 18.3191 85.1294 18.3929 85.1234 19.1458C78.7784 18.0327 71.8108 19.163 65.4127 18.8612C61.9935 18.7 58.526 18.745 55.1031 18.73C53.6867 18.7116 52.2715 18.7255 50.855 18.7709C49.4965 18.8305 48.2478 19.0749 46.9037 18.7585Z" fill="#9C9EA1"/>
<path d="M42.167 25.3074C41.7411 25.5091 38.9975 25.3093 38.416 25.2377C38.4799 24.9217 38.5306 24.7781 38.6259 24.4879C39.497 23.9484 41.0956 24.2907 42.0041 24.6543C42.1224 24.8984 42.1211 25.003 42.167 25.3074Z" fill="#35383D"/>
<path d="M40.2282 21.7939L40.2607 23.9372L17.9838 23.9312C15.6468 23.941 13.5246 23.6287 11.1973 23.7951C10.6797 23.8323 10.1102 23.6774 9.59863 23.7498C8.77097 24.0118 3.85688 23.8728 2.83014 23.7892C2.82411 23.7089 2.81808 23.6287 2.81204 23.5484C2.7119 22.1624 2.51162 17.3804 3.03524 16.3643C3.83636 16.1071 5.76195 16.1675 6.65597 16.1694L12.4786 16.1836L40.2426 16.4142C40.2438 16.656 40.2366 17.957 40.1401 18.0582C38.9179 19.3288 32.4631 16.2117 33.9616 21.1407C34.3211 22.3214 39.2859 21.7957 40.2282 21.7939Z" fill="#775426"/>
<path d="M120.115 16.6514C120.249 19.4993 120.144 21.6641 120.123 24.4872C118.58 24.4995 116.892 24.5681 115.361 24.5164C114.738 24.525 113.963 24.5678 113.353 24.5202C112.686 24.7481 110.016 24.5756 109.17 24.5603C106.605 24.513 103.181 24.8666 100.699 24.4598C100.694 22.806 100.618 18.1552 100.755 16.744C101.116 16.515 101.493 16.5453 101.883 16.533L102.682 16.5112C105.342 16.6499 108.207 16.5806 110.884 16.5855L112.944 16.5986L114.984 16.5832L116.125 16.5907C117.401 16.6053 118.854 16.569 120.115 16.6514Z" fill="#775426"/>
<path d="M180.96 19.5458C180.938 20.4816 180.93 21.2843 180.946 22.2201C180.83 22.9954 180.916 23.0029 180.598 23.4262L159.49 23.3366C159.298 22.8777 159.43 22.4293 159.483 21.7458C159.448 21.3507 159.45 20.3335 159.443 19.8896L159.41 18.8642L159.378 18.3885C159.72 18.2932 160.305 18.324 160.669 18.3244C162.181 18.5167 164.763 18.3311 166.367 18.3843C171.071 18.5403 175.928 18.2632 180.62 18.4192C180.916 18.7641 180.844 18.8414 180.96 19.5458Z" fill="#494D51"/>
<path d="M160.669 18.3244C162.181 18.5167 164.763 18.3311 166.367 18.3843C171.071 18.5403 175.928 18.2632 180.62 18.4192C180.916 18.7641 180.844 18.8414 180.96 19.5458C176.03 19.6801 170.972 19.2084 166.03 19.3944C164.744 19.4427 160.293 18.8976 159.443 19.8896L159.41 18.8642L159.378 18.3885C159.72 18.2932 160.305 18.324 160.669 18.3244Z" fill="#9C9EA1"/>
<path d="M157.712 19.5717C157.609 20.6942 157.658 22.2741 157.672 23.442C155.39 23.2275 152.537 23.3512 150.202 23.2991C148.298 23.2564 144.81 23.0423 143.007 23.3659C143.043 22.2951 143.146 20.3238 143.094 19.3224C143.017 18.8868 143.006 18.8264 143.072 18.3806C143.401 18.1939 155.814 18.3476 157.443 18.339C157.711 18.6547 157.652 18.9265 157.712 19.5717Z" fill="#494D51"/>
<path d="M143.094 19.3224C143.017 18.8868 143.006 18.8264 143.072 18.3806C143.401 18.1939 155.814 18.3476 157.443 18.339C157.711 18.6547 157.652 18.9265 157.712 19.5717C155.071 19.1323 151.623 19.6531 148.877 19.3666C147.021 19.1732 145.054 19.5575 143.094 19.3224Z" fill="#9C9EA1"/>
<path d="M139.739 19.4528C139.821 21.5081 139.866 21.6794 139.2 23.4202C137.542 23.6316 124.187 23.4074 123.594 23.0449C123.497 22.9853 123.479 22.8248 123.437 22.682L123.577 22.3093C123.785 22.084 124.115 21.7874 124.364 21.7908C126.469 21.8178 128.815 21.8639 130.891 22.1042C130.8 21.3746 130.856 20.1007 130.874 19.3107C130.394 19.3737 129.651 19.3598 129.15 19.3741C127.604 19.361 126.001 19.4509 124.451 19.3703C123.982 19.3456 123.696 19.4423 123.487 18.7727C123.557 18.4278 123.504 18.4807 123.677 18.306C123.822 18.1597 124.208 18.0559 124.359 18.081C125.445 18.2617 126.922 18.1447 127.914 18.1717C129.608 18.2178 136.711 17.4913 137.948 18.003C137.877 19.0704 137.564 22.2302 138.056 23.019L138.231 23.0213C138.058 21.9509 137.887 18.8552 138.433 18.0799C139.263 17.6993 139.462 18.466 139.739 19.4528Z" fill="#494D51"/>
<path d="M131.898 19.0603C131.934 19.7749 132.064 21.7544 131.788 22.2876L131.713 22.0386C131.715 20.9165 131.615 19.9515 131.683 18.8132L131.898 19.0603Z" fill="#232425"/>
<path d="M86.5291 16.0723C86.441 16.4667 86.371 16.5424 86.184 16.821C85.9125 16.863 85.6411 16.8874 85.4323 17.1532C85.2683 17.3624 85.1355 17.5255 84.9196 17.5273C81.6789 17.5577 78.3634 17.5217 75.13 17.4985L54.1235 17.3335C51.8975 17.3294 48.2068 17.1108 45.9627 17.6915C45.7709 17.741 45.6285 17.5948 45.4222 17.4793C45.2195 16.9957 45.111 16.6519 45.2509 16.1413C45.7564 15.7169 49.4942 15.9279 50.3967 15.9306L60.6097 15.9654C69.2242 15.9988 77.9218 15.8946 86.5291 16.0723Z" fill="#494D51"/>
<path d="M83.7683 38.8678C82.0828 39.9344 81.4108 39.8703 79.6758 39.6101C75.3023 39.564 73.6614 29.8694 73.0027 24.5205C73.5697 24.5119 75.2842 24.4272 75.7499 24.5888C76.2916 29.4758 77.4016 36.0709 80.553 38.3897C81.6461 39.1943 82.6089 39.029 83.7683 38.8678Z" fill="#494D51"/>
<path d="M101.241 15.7787L101.167 16.0273C100.869 16.2818 99.9066 16.2338 99.5072 16.2436C99.4976 16.7988 99.5362 18.4001 99.3588 18.7585C98.9486 18.814 99.0741 18.8927 98.7954 18.5429C98.8063 18.0319 98.7869 18.2018 99.0886 17.7571L99.05 17.5614C96.6635 16.8157 92.641 18.144 90.1086 17.7864C89.5934 17.7136 89.5958 17.0718 89.1421 16.9732C88.8224 16.9668 88.2349 17.035 88.008 16.7546C88.0491 16.2023 87.9911 16.3707 88.1902 16.0119C89.0698 15.7611 91.9774 15.8417 92.9704 15.8372C93.1924 15.4645 93.494 14.8403 93.7076 14.4279C95.866 14.4654 98.1837 14.1872 100.34 14.5332C100.873 14.6191 101 15.1312 101.241 15.7787Z" fill="#775426"/>
<path d="M80.0595 26.3134C80.5578 29.8361 81.6714 34.3208 83.7985 36.1452C84.6599 36.8838 85.3525 36.6933 86.2803 36.7143L86.0969 36.967L86.0124 36.6821L86.0161 37.0262C83.2688 38.9147 81.5375 37.6463 79.7965 34.184C78.9363 32.4684 77.9264 28.8925 77.8806 26.688L78.0169 26.3738L78.3596 26.319C78.8603 26.3573 79.5444 26.319 80.0595 26.3134Z" fill="#494D51"/>
<path d="M86.377 4.70512C82.1614 3.64673 81.0478 9.47141 79.9861 14.5766C79.4697 14.5751 78.303 14.6407 77.8735 14.4034L77.8409 14.081C78.5395 9.73984 79.9656 4.10714 83.2316 3.3037C84.2535 3.0525 85.571 3.73784 86.377 4.70512Z" fill="#494D51"/>
<path d="M186.03 22.6373C185.969 22.253 186.008 18.9752 186.015 18.433C184.82 17.886 183.382 18.3483 182.148 18.2789L180.958 18.3232L181.032 18.8762C181.226 20.1509 181.1 21.8946 181.001 23.1873L181.01 23.6208L182.279 23.5885C183.313 23.5307 184.665 24.0241 185.69 23.5364C185.914 23.4291 185.95 23.0021 186.03 22.6373Z" fill="#494D51"/>
<path d="M185.346 19.3276C185.733 19.2443 185.805 18.9036 186.016 18.433C184.821 17.886 183.383 18.3483 182.149 18.2789L180.944 18.3202L181.033 18.8762C182.282 19.4033 184.038 19.6076 185.346 19.3276Z" fill="#9C9EA1"/>
<path d="M98.5361 17.9296L98.5072 22.7191C97.6457 22.6899 95.0928 22.8039 94.4521 22.4215C94.3749 21.9854 94.3942 21.6626 94.4002 21.2131C94.352 21.1344 94.2929 21.0373 94.2217 20.9218C92.4083 20.7681 90.3633 20.7182 88.5644 20.9915C87.8803 21.0954 86.3468 23.8877 85.3551 21.9112C85.4805 20.9165 86.149 21.092 86.2455 20.1326C86.0186 19.5672 85.8835 19.5927 85.4649 19.2677L85.4009 18.9299L85.5457 18.5553C85.8883 18.2869 86.8632 18.3836 87.4146 18.291C87.6981 18.4125 88.0432 19.1826 88.2784 19.6006C90.1557 19.6591 92.1935 19.7453 94.0576 19.5792C94.4051 18.6116 94.4569 17.6702 95.2001 17.7043C95.5102 17.9978 95.4897 17.8891 95.655 18.3326C95.2762 18.534 95.1326 18.6356 94.7815 18.9336C93.7825 20.8093 95.1024 22.79 96.4513 22.1197C96.5925 22.0492 97.9365 22.0694 98.1911 22.0638L98.1814 18.6303C97.548 18.6434 96.7252 18.7552 96.1617 18.375L96.2414 18.1482C96.9146 17.7789 97.8062 17.9007 98.5361 17.9296Z" fill="#494D51"/>
<path d="M191.617 20.1307C191.615 20.5424 191.62 21.0508 191.596 21.4501L191.468 21.6053L191.604 22.0031L191.534 22.3274L191.489 22.5935L191.382 23.1919C190.904 23.571 187.687 23.6587 187.292 23.1031C187.424 21.7181 187.465 20.4115 187.265 19.0386L187.356 18.6764C187.801 18.2832 190.561 18.42 191.194 18.5306C191.339 18.5557 191.331 18.6419 191.449 18.8804L191.541 19.4323L191.576 19.7419L191.506 19.986L191.617 20.1307Z" fill="#494D51"/>
<path d="M187.266 19.0386L187.356 18.6764C187.801 18.2832 190.562 18.42 191.194 18.5306C191.339 18.5557 191.331 18.6419 191.449 18.8804C191.294 19.2801 191.265 19.5489 190.978 19.6171C190.181 19.8068 187.91 19.652 187.266 19.0386Z" fill="#9C9EA1"/>
<path d="M77.1461 26.1983C76.8144 29.3836 78.8654 33.8518 79.0464 36.0814C78.2754 34.7989 75.8419 27.9278 76.3559 26.4289C76.6201 26.3464 76.8783 26.265 77.1461 26.1983Z" fill="#9C9EA1" fill-opacity="0.5"/>
<path d="M40.2426 18.8233L40.2559 21.3825C38.837 21.396 36.1477 21.516 34.8025 21.2809C34.3235 21.0945 34.4791 21.2423 34.1328 20.7178C33.9857 19.9083 34.005 19.6335 34.4007 19.0149C35.3719 18.5076 38.9758 18.8143 40.2426 18.8233Z" fill="#717171"/>
<path d="M34.7239 19.0559C35.1269 19.0045 35.2934 19.1121 35.595 19.4672C35.7603 20.0963 35.7519 19.8361 35.6216 20.4993C35.3296 20.9769 35.2548 21.0017 34.8337 21.1359L34.8023 21.281C34.3234 21.0947 34.479 21.242 34.1327 20.7175C33.9855 19.9081 34.0048 19.6333 34.4006 19.0146L34.7239 19.0559Z" fill="#232425"/>
<path d="M34.8337 21.1359L34.8024 21.281C34.3234 21.0947 34.479 21.242 34.1328 20.7175C33.9856 19.9081 34.0049 19.6333 34.4006 19.0146L34.7239 19.0559C34.5019 19.4814 34.473 19.5463 34.3572 20.0633C34.473 20.7531 34.4489 20.5589 34.8337 21.1359Z" fill="#7F7F7E"/>
<path d="M79.8013 4.04913C80.4178 3.14858 81.4747 2.79129 82.3 2.74255L82.3784 2.84566C82.1999 3.09611 81.9453 3.4534 81.7366 3.62774C79.1052 5.82024 78.2546 10.1419 77.4788 14.2933C77.433 14.5437 77.1724 14.5096 77.0577 14.5108C76.6536 14.5595 76.7127 14.6435 76.3954 14.3964C76.0913 11.8324 78.3921 5.47643 79.8013 4.04913Z" fill="#494D51"/>
<path d="M79.8013 4.04907C79.7047 4.59195 79.5998 4.95037 79.3826 5.39539C78.3209 7.58114 77.0734 11.7018 77.0577 14.5107C76.6535 14.5594 76.7126 14.6434 76.3953 14.3963C76.0913 11.8323 78.3921 5.47637 79.8013 4.04907Z" fill="#9C9EA1" fill-opacity="0.5"/>
<path d="M42.4226 16.1303C42.3225 18.2197 42.384 21.7 42.3381 23.9934L40.5537 23.8896C40.4005 22.0881 40.5127 18.3119 40.5392 16.3496L42.4226 16.1303Z" fill="#717171"/>
<path d="M130.597 19.8C130.583 20.3886 130.6 20.81 130.42 21.3349C129.893 21.5707 124.456 21.456 123.509 21.4508C123.491 20.8427 123.494 20.6334 123.549 20.0328C123.924 19.5188 129.65 19.7861 130.597 19.8Z" fill="#35383D"/>
<path d="M77.8083 39.4009C77.2968 39.4882 76.7092 39.0575 76.3111 38.5952C73.7629 35.6394 72.4804 29.3176 71.9085 24.7335C72.2645 24.6311 72.3429 24.5921 72.6976 24.6964C72.9811 25.381 73.1464 27.7276 73.3214 28.657C74.178 33.2058 75.1842 36.8342 77.8083 39.4009Z" fill="#9C9EA1"/>
<path d="M77.3569 1.93872C77.223 2.37812 77.0083 2.58882 76.7838 2.91424C75.1744 5.24621 74.1114 8.31638 73.4418 11.5444C73.1897 12.7554 73.2416 14.1272 72.8856 15.2609C72.7409 15.7232 72.3692 15.7022 72.0797 15.7813C72.286 11.3161 74.4987 3.52573 77.3569 1.93872Z" fill="#9C9EA1"/>
<path d="M195.152 19.4165L195.166 22.3888C194.264 22.3806 192.88 22.429 192.019 22.3274L192.09 22.003L191.954 21.6053L192.082 21.45C192.106 21.0508 192.1 20.5424 192.102 20.1307L191.992 19.986L192.061 19.7419L192.026 19.4322L195.152 19.4165Z" fill="#35383D"/>
<path d="M192.061 19.7419C192.854 19.7378 194.067 19.6122 194.744 20.1138L194.855 20.3965C194.328 20.5686 194.153 19.6141 193.535 20.6199C193.543 21.2127 193.492 21.0342 193.689 21.5036C194.281 21.5467 194.359 20.8813 194.799 21.1504L194.869 21.5302C194.342 22.3093 192.974 21.5988 192.09 22.003L191.954 21.6052L192.082 21.45C192.106 21.0507 192.1 20.5423 192.102 20.1307L191.992 19.986L192.061 19.7419Z" fill="black"/>
<path d="M192.102 20.1307C192.663 20.1479 192.759 20.0197 193.205 20.428L193.313 20.7973C193.016 21.6671 192.661 21.4823 192.082 21.45C192.106 21.0507 192.1 20.5424 192.102 20.1307Z" fill="#35383D"/>
<path d="M2.63525 23.8371C2.47479 23.8937 1.63988 23.8832 1.4215 23.8866C1.25742 21.4984 1.36721 18.7184 1.4215 16.2856C1.79311 16.1892 2.2552 16.0809 2.56647 16.3666C2.50494 19.0056 2.40602 21.2217 2.63525 23.8371Z" fill="#35383D"/>
<path d="M158.926 23.7186C159.497 22.4177 159.132 19.3607 159.276 18.5751C159.17 18.3311 159.049 18.0015 158.904 17.8309C158.475 17.8343 157.973 17.7196 157.716 18.2842C158.051 19.9518 157.945 21.7842 157.881 23.6082L157.91 23.8382C158.38 23.9237 158.463 23.8993 158.926 23.7186Z" fill="#494D51"/>
<path d="M97.9114 19.1016L97.9005 21.6334C96.8943 21.6507 95.8893 21.6237 94.8855 21.5517L94.8348 19.0383L97.9114 19.1016Z" fill="#35383D"/>
<path d="M121.287 17.0006C121.306 18.4642 121.496 23.013 121.02 24.4058C120.958 24.5873 120.81 24.5682 120.667 24.5989L120.491 24.2559C120.521 22.1669 120.302 18.6997 120.574 16.7096C120.588 16.6058 120.805 16.5218 120.9 16.4697C121.099 16.5818 121.154 16.7426 121.287 17.0006Z" fill="#494D51"/>
<path d="M94.1902 21.2786C94.201 21.8493 94.2264 22.0997 94.0864 22.6231C92.4601 22.6385 90.9085 22.4765 89.2254 22.5271C89.2194 22.0671 89.1856 21.7274 89.34 21.3383C90.5453 21.1354 92.8992 21.2636 94.1902 21.2786Z" fill="#35383D"/>
<path d="M100.539 16.7205C100.399 19.0731 100.552 21.72 100.429 24.1802C100.213 24.5337 100.13 24.4254 99.722 24.4857C99.7534 22.6284 99.6532 18.2445 99.7848 16.8513C100.088 16.5732 100.118 16.6853 100.539 16.7205Z" fill="#494D51"/>
<path d="M94.1479 18.1451C94.1045 18.3761 94.0454 18.8961 93.9223 18.9519C92.7146 19.5023 90.8059 19.211 89.5282 19.1023C89.1506 19.07 89.1144 18.7798 88.9395 18.3925C89.0034 18.0742 89.0818 17.8208 89.1687 17.5186C89.825 18.7431 93.0102 18.1395 94.1479 18.1451Z" fill="#35383D"/>
<path d="M187.091 18.5246C187.103 19.7498 187.322 22.4901 186.846 23.3497C186.436 23.6174 186.554 23.5387 186.067 23.4382C186.503 21.5085 185.988 20.1783 186.32 18.6588C186.636 18.3461 186.629 18.4672 187.091 18.5246Z" fill="#35383D"/>
<path d="M121.587 19.1735C122.108 19.3325 122.598 19.4056 123.151 19.5871C123.475 20.0733 123.52 20.6308 123.4 21.285C123.009 21.7477 122.578 21.5078 121.936 21.8246L121.842 22.2062L121.607 22.2103L121.587 19.1735Z" fill="#35383D"/>
<path d="M88.8488 17.3604C88.8609 17.9449 88.8959 18.5306 88.8018 19.0952L88.6304 19.184C88.0236 18.712 88.0658 18.4998 87.5748 17.8557L87.3938 17.9195C87.0367 18.0214 86.8581 18.0619 86.5661 17.7972L86.6868 17.6068C87.4625 17.194 88.0405 17.3023 88.8488 17.3604Z" fill="#35383D"/>
<path d="M121.842 22.2062C122.321 22.0979 122.826 21.8951 123.259 22.1894L123.36 22.4522C123.147 23.3512 122.374 23.5919 121.823 23.4438C121.469 23.0093 121.457 22.9913 121.606 22.2104L121.842 22.2062Z" fill="#494D51"/>
<path d="M123.486 18.2092L123.363 18.9028C122.909 19.2957 122.032 18.9902 121.486 18.8796C121.577 18.2332 121.495 18.3588 121.771 17.9757C122.262 17.7492 122.955 18.0499 123.486 18.2092Z" fill="#494D51"/>
<path d="M99.4578 19.1863C99.4771 19.8266 99.4977 20.3699 99.4747 21.0147C99.2684 21.5565 99.371 21.3957 98.9137 21.5921C98.8992 20.4051 98.6495 19.4607 99.4578 19.1863Z" fill="#494D51"/>
<path d="M141.111 18.0876C141.622 18.0471 142.169 17.9142 142.613 18.2638C143.279 19.4373 142.778 20.9857 142.931 22.9895L142.836 23.1239C142.344 23.7424 141.553 23.5372 140.937 23.5053L139.321 23.5043C139.728 22.575 140.132 21.5654 140.977 21.7857C141.182 22.1347 141.196 22.1012 141.191 22.3582L141.188 22.7376C141.359 22.8444 141.286 22.832 141.487 22.7266C141.506 21.6346 141.568 19.9468 141.466 18.915L141.364 18.8015L141.166 19.3591C140.197 20.079 139.938 19.3086 139.475 18.0537L141.111 18.0876Z" fill="#35383D"/>
<path d="M88.3677 21.5141C88.8346 21.4039 88.676 21.3361 89.0199 21.7132C89.139 22.3076 88.8592 22.9867 88.5927 23.384C88.1029 23.5617 88.2844 23.549 87.7693 23.2795L87.6109 24.0741L87.3132 24.2901C86.9768 24.0353 87.0804 24.187 86.9199 23.633C86.9802 22.9179 86.9094 23.1634 87.1868 22.6114L87.7922 22.5148C88.0214 22.2122 87.9587 21.9299 88.3677 21.5141Z" fill="#35383D"/>
<path d="M82.2494 25.5795C82.6322 25.2981 85.062 25.3277 85.5681 25.4172C85.8524 25.4281 86.1021 25.5799 86.4503 26.0336H87.8642C88.2901 25.4779 88.3441 25.5798 88.7504 25.4013L91.632 25.4282C91.1337 28.8757 90.6538 31.0581 89.2313 33.7912L89.2781 34.1347C89.0055 34.6775 88.0089 35.8681 87.5685 35.7647L87.1394 35.6491C85.5999 36.2126 83.5743 35.7044 82.574 33.6119C81.89 32.494 80.1327 27.8639 80.5786 26.4428C80.7994 26.3749 80.8466 26.3387 81.0625 26.404C81.3496 26.3413 81.7155 26.1606 82.0025 26.0336L82.2494 25.5795Z" fill="#35383D"/>
<path d="M131.166 18.0459C133.104 17.8104 136.517 17.9176 137.981 18.0006L137.943 18.4412C133.337 18.5979 124.007 18.843 123.534 18.5701C123.534 18.2918 124.004 18.1499 124.239 18.1137C125.74 18.1892 129.228 18.2813 131.166 18.0459Z" fill="#9C9EA1"/>
<path d="M205.96 18.6754C203.419 18.6286 200.31 18.6282 197.769 18.6954L195.515 18.659C195.525 19.3775 195.44 22.9043 195.613 23.406C195.909 23.5449 196.024 23.5144 196.351 23.4829C198.321 23.5636 200.789 23.4784 202.812 23.5102C204.13 23.5309 207.095 23.5662 208.284 23.4513C208.295 21.8622 208.281 20.2731 208.241 18.6843L205.96 18.6754Z" fill="#494D51"/>
<path d="M205.961 18.6751C203.419 18.6284 200.311 18.6279 197.77 18.6951C198.018 18.7295 198.667 18.797 198.849 18.9102C198.559 19.2794 198.461 19.4426 198.677 19.8573C199.304 20.2495 204.54 20.131 205.592 19.9991C205.939 19.9555 206.07 19.832 206.294 19.6236C206.323 19.1751 206.361 19.3412 206.086 18.952L205.961 18.6751Z" fill="#020101"/>
<path d="M205.961 18.6753C203.419 18.6285 200.31 18.6281 197.77 18.6952C198.017 18.7296 198.666 18.7971 198.849 18.9104C200.341 19.0619 204.179 18.8601 206.086 18.9522L205.961 18.6753Z" fill="#9C9EA1"/>
<path d="M205.925 19.2609C204.279 19.1718 200.965 19.1827 199.253 19.3006C199.066 19.3136 199.016 19.4893 198.913 19.6581C199.826 19.7177 205.249 19.7651 205.806 19.5567L205.925 19.2609Z" fill="#35383D"/>
<path d="M206.208 23.294C206.318 22.9646 206.44 22.7466 206.277 22.4383C205.435 21.8793 201.028 22.1876 199.807 22.1635C199.338 22.1543 198.916 22.2973 198.625 22.6141C198.62 23.0401 198.585 22.8879 198.881 23.2642C198.485 23.478 197.091 23.3172 196.351 23.4829C198.321 23.5635 200.789 23.4784 202.812 23.5102C204.13 23.5308 207.095 23.5662 208.284 23.4513C207.682 23.3615 206.557 23.5026 206.208 23.294Z" fill="#020101"/>
<path d="M206.208 23.2939C205.259 23.2425 199.684 23.1855 198.881 23.2642C198.485 23.4779 197.091 23.3172 196.351 23.4828C198.321 23.5634 200.789 23.4783 202.812 23.5101C204.13 23.5307 207.095 23.5661 208.284 23.4512C207.682 23.3614 206.557 23.5025 206.208 23.2939Z" fill="#35383D"/>
<path d="M205.977 22.5576C205.156 22.4573 199.637 22.4263 199.114 22.6249L199.023 22.9144C201.043 23.0343 203.396 22.921 205.442 22.9315C205.825 22.9334 205.888 22.8182 205.977 22.5576Z" fill="#35383D"/>
<path d="M82.3625 11.0015C83.1475 11.0163 83.7514 11.0651 84.2102 11.1753C84.672 11.2863 85.0148 11.4656 85.2444 11.7603C85.4708 12.0509 85.5579 12.4176 85.5911 12.8374C85.6241 13.256 85.6061 13.7701 85.5891 14.3735L85.5881 14.4146L85.5735 14.4526C85.5156 14.6131 85.4893 14.8119 85.4553 15.0337C85.4393 15.1382 85.4215 15.2489 85.3958 15.3491C85.3708 15.4464 85.3332 15.5567 85.2668 15.6489L85.2161 15.7202L85.1321 15.7446C84.9282 15.8049 84.674 15.8089 84.4426 15.7759C84.2132 15.7431 83.9642 15.6678 83.7844 15.5356L83.7454 15.5073L83.72 15.4673L83.6477 15.353L83.6331 15.3296L83.6233 15.3042C83.4599 14.8613 83.5099 14.3869 83.5442 14.0298C83.5624 13.8405 83.5762 13.6879 83.5696 13.5601C83.5629 13.4331 83.5369 13.3695 83.5081 13.3345V13.3335C83.4567 13.2709 83.3662 13.2061 83.2239 13.146C83.083 13.0866 82.9054 13.0375 82.6956 12.9995C82.2751 12.9233 81.7572 12.8952 81.2141 12.8872C80.6711 12.8792 80.1192 12.892 79.6243 12.896C79.1399 12.8999 78.6968 12.8952 78.4016 12.8472L78.3928 12.7339H78.0627L78.0481 12.4946C78.0252 12.1167 78.0597 11.6004 78.0715 11.2417L78.0793 10.9937L78.3284 10.9956C79.6485 11.0078 81.0279 10.9755 82.3625 11.0015Z" fill="#494D51" stroke="black" stroke-width="0.509804"/>
<path d="M58.8213 9.75842C59.1461 9.66236 59.4993 9.59051 59.8447 9.62952C60.1833 9.66775 60.5024 9.81216 60.7734 10.1119C61.1746 10.3091 61.6038 10.2253 62.1338 10.0563C62.3923 9.97384 62.6848 9.86852 62.9697 9.79651C63.2601 9.72315 63.5708 9.67694 63.8896 9.71545L64.2002 9.7301C64.3341 9.73426 64.482 9.7385 64.5645 9.7428L64.6709 9.74768L64.7412 9.82678C65.0249 10.1442 65.1977 10.2412 65.3711 10.2799C65.466 10.301 65.5743 10.3078 65.7217 10.3063C65.7952 10.3055 65.8751 10.3034 65.9658 10.3004C66.0294 10.2983 66.0978 10.2953 66.1709 10.2936C66.3608 10.133 66.5217 9.99885 66.6865 9.82483L66.7588 9.74866L66.8633 9.74475C67.0768 9.73739 67.2877 9.71744 67.5166 9.70178C67.7387 9.68659 67.9705 9.67625 68.1953 9.69495C68.6059 9.72913 69.0087 9.86279 69.3145 10.2369C69.6192 10.1881 69.8888 10.2334 70.0615 10.235C70.1744 10.236 70.2783 10.2247 70.3896 10.1842C70.5021 10.1432 70.6365 10.0678 70.8018 9.92249L70.8271 9.89905L70.8584 9.8844C71.1566 9.73887 71.5571 9.7146 71.915 9.72327C72.0985 9.72771 72.2843 9.74143 72.457 9.75745L72.9199 9.8053L72.9941 9.81213L73.0518 9.85901C73.4329 10.1603 73.7336 10.2959 74.0146 10.3112C74.2917 10.3261 74.5976 10.225 74.998 9.94885C75.0798 9.87673 75.1837 9.8354 75.2676 9.81018C75.3786 9.77678 75.5111 9.75356 75.6514 9.73694C75.933 9.70358 76.279 9.69472 76.623 9.70276C76.9679 9.71083 77.3189 9.73563 77.6133 9.77405C77.7604 9.79326 77.8971 9.81613 78.0127 9.84241C78.1229 9.86747 78.2327 9.89978 78.3164 9.94397L78.3877 9.98206L78.4238 10.0524C78.5295 10.2566 78.5644 10.4743 78.5762 10.6744C78.5873 10.8637 78.5783 11.0841 78.5801 11.2467V11.2584C78.5659 11.6451 78.5364 12.1174 78.5586 12.4625L78.5605 12.4801L78.5586 12.4977C78.5539 12.5616 78.5562 12.6183 78.5596 12.6793C78.5627 12.7363 78.5679 12.8115 78.5654 12.8873C78.5597 13.0598 78.5134 13.2329 78.375 13.4547L78.3486 13.4977L78.3086 13.527C77.9134 13.8118 77.3872 13.8844 76.8926 13.8961C76.6405 13.9021 76.3839 13.8922 76.1406 13.8805C75.8941 13.8686 75.665 13.8552 75.4541 13.8522L75.3574 13.8502L75.2861 13.7858C74.8329 13.3756 74.4992 13.1988 74.2061 13.1891C73.9236 13.1799 73.6027 13.3249 73.1719 13.7643L73.1025 13.8356L73.0039 13.8405C72.3352 13.8769 71.7412 13.8464 71.0918 13.8219L70.9932 13.818L70.9229 13.7487C70.5283 13.3599 70.1865 13.1974 69.8779 13.194C69.5714 13.1906 69.2309 13.3439 68.8359 13.7369L68.7646 13.8073L68.665 13.8112C68.3628 13.8215 68.05 13.8248 67.7383 13.8258H66.708L66.6328 13.7487C66.2202 13.322 65.9139 13.1566 65.6465 13.15C65.3816 13.1437 65.0691 13.291 64.6387 13.7174L64.5674 13.7887L64.4658 13.7916C63.8644 13.8069 63.2014 13.7877 62.6074 13.7809L62.5156 13.7799L62.4453 13.7194L62.377 13.6617L62.2588 13.567L62.2568 13.5651C61.8682 13.2452 61.5727 13.1802 61.3018 13.2252C61.0051 13.2746 60.6929 13.4609 60.2842 13.7516L60.2207 13.7965L60.1426 13.7985C59.5957 13.8123 58.9695 13.7927 58.4316 13.7887H58.3438L58.2754 13.734C57.7812 13.3438 57.4731 13.1854 57.1973 13.1783C56.9278 13.1716 56.6207 13.3092 56.1289 13.7145L56.0635 13.7682L55.9785 13.7721C55.1558 13.8084 54.5771 13.7893 53.7637 13.6715L53.5498 13.6403L53.5449 13.4244C53.5361 13.0117 53.5169 12.3866 53.5176 11.7711C53.5183 11.1612 53.5384 10.5354 53.6152 10.1246L53.6318 10.0367L53.6992 9.97815C53.9608 9.75118 54.2859 9.66744 54.6113 9.65588C54.9353 9.6444 55.2802 9.70344 55.6055 9.78284C55.9306 9.86223 56.2556 9.96724 56.5332 10.0514C56.8218 10.1389 57.0473 10.2004 57.2061 10.2135L57.3447 10.2115C57.4943 10.1979 57.6761 10.15 57.8945 10.0768C58.1626 9.98694 58.506 9.85169 58.8213 9.75842Z" fill="#4D3719" stroke="black" stroke-width="0.509804"/>
<path fill-rule="evenodd" clip-rule="evenodd" d="M57.1847 10.4672C58.0995 10.5399 59.6808 9.20272 60.6216 10.3232C61.6461 10.8663 62.757 9.83497 63.8583 9.96801C63.9818 9.98309 64.3891 9.98858 64.5496 9.99681C65.1503 10.6688 65.415 10.5591 66.268 10.5454C66.4847 10.363 66.6754 10.2066 66.8715 9.99955C67.7492 9.96938 68.6901 9.72114 69.2071 10.5207C69.8654 10.3356 70.233 10.7594 70.9681 10.1134C71.4481 9.88023 72.3547 10.0037 72.8923 10.0585C73.6905 10.6894 74.2926 10.747 75.1484 10.1559C75.4227 9.83223 77.7693 9.94469 78.1972 10.1696C78.3618 10.4878 78.3207 10.8773 78.3248 11.249C78.3111 11.6234 78.2809 12.1171 78.3028 12.4792L78.2027 12.4614C78.0491 12.183 78.0834 11.6385 78.0697 11.2791L69.262 11.1804C66.1268 11.2161 63.0354 11.2764 59.8947 11.1626C58.6604 11.1173 57.0256 11.2394 55.8557 11.1022C55.218 11.1063 54.5528 11.2613 54.0399 11.0076C53.7971 10.6798 53.8821 10.673 53.8657 10.171C54.679 9.46467 56.4208 10.4041 57.1847 10.4672Z" fill="#775426"/>
<path d="M59.7111 10.8032C59.2229 10.8128 58.7483 10.8814 58.3424 10.6071V10.4371C58.8855 10.0119 59.9278 9.98995 60.4545 10.4837L60.3859 10.7306C60.1431 10.8375 59.9772 10.8087 59.7111 10.8032ZM54.0291 10.3109C54.6599 10.2862 56.1411 10.0229 56.3139 10.7333C55.7846 10.769 54.5036 10.9253 54.088 10.6373L54.0291 10.3109ZM68.2788 10.8458C67.7755 10.7882 67.3517 10.8279 66.8346 10.7031L66.8552 10.566C67.4545 10.1573 68.3899 10.0791 68.9316 10.6057C68.6326 10.7895 68.645 10.7978 68.2788 10.8458ZM71.7679 10.8704C71.4318 10.8362 71.1534 10.8759 70.9559 10.6784L70.9751 10.5235C71.414 10.1833 72.5729 10.1024 72.9611 10.5317C72.898 10.8334 72.9707 10.7127 72.7306 10.9102C72.4426 10.8759 72.0655 10.8787 71.7679 10.8704ZM63.4663 10.784C63.1302 10.7539 62.8518 10.7868 62.6543 10.6195L62.6735 10.4851C63.1124 10.1916 64.2713 10.1216 64.6594 10.4919C64.5964 10.7511 64.669 10.6483 64.429 10.8183C64.141 10.7882 63.7639 10.7895 63.4663 10.784ZM75.4393 10.256C76.0839 10.2478 77.9656 9.98858 78.0177 10.7936C77.657 10.9857 75.7685 10.8567 75.1445 10.9034C75.0402 10.5523 75.2171 10.4741 75.4393 10.256Z" fill="#C58F47"/>
<path d="M7.07483 16.1686L40.2348 16.4163L40.2219 17.4836L2.78491 17.4836L3.04356 16.341L3.97051 16.1901L7.07483 16.1686Z" fill="#C58F47"/>
<path d="M120.223 17.8256L100.702 17.8256L100.751 16.704L101.258 16.5832L102.587 16.5591L103.287 16.5591L118.967 16.6316L120.103 16.6557L120.223 17.8256Z" fill="#C58F47"/>
</svg>
