<svg width="20" height="20" viewBox="0 0 20 20" fill="none" xmlns="http://www.w3.org/2000/svg">
<path d="M17.8929 2H15.4643C15.3033 2 15.1488 2.07024 15.035 2.19526C14.9211 2.32029 14.8571 2.48986 14.8571 2.66667V3.33333H5.14286V2.66667C5.14286 2.48986 5.07889 2.32029 4.96503 2.19526C4.85117 2.07024 4.69674 2 4.53571 2H2.10714C1.94612 2 1.79169 2.07024 1.67783 2.19526C1.56397 2.32029 1.5 2.48986 1.5 2.66667V10.6667C1.5 10.8435 1.56397 11.013 1.67783 11.1381C1.79169 11.2631 1.94612 11.3333 2.10714 11.3333V17.3333C2.10714 17.5101 2.17111 17.6797 2.28497 17.8047C2.39883 17.9298 2.55326 18 2.71429 18H17.2857C17.4467 18 17.6012 17.9298 17.715 17.8047C17.8289 17.6797 17.8929 17.5101 17.8929 17.3333V11.3333C18.0539 11.3333 18.2083 11.2631 18.3222 11.1381C18.436 11.013 18.5 10.8435 18.5 10.6667V2.66667C18.5 2.48986 18.436 2.32029 18.3222 2.19526C18.2083 2.07024 18.0539 2 17.8929 2ZM2.71429 3.33333H3.92857V10H2.71429V3.33333ZM4.53571 16.6667H3.32143V11.3333H4.53571V16.6667ZM12.4286 12C12.4286 12.3536 12.3006 12.6928 12.0729 12.9428C11.8452 13.1929 11.5363 13.3333 11.2143 13.3333H10.6071V14C10.6071 14.1768 10.5432 14.3464 10.4293 14.4714C10.3155 14.5964 10.161 14.6667 10 14.6667C9.83898 14.6667 9.68455 14.5964 9.57069 14.4714C9.45682 14.3464 9.39286 14.1768 9.39286 14V13.3333H8.78571C8.46367 13.3333 8.15481 13.1929 7.92708 12.9428C7.69936 12.6928 7.57143 12.3536 7.57143 12V9.33333C7.57143 8.97971 7.69936 8.64057 7.92708 8.39052C8.15481 8.14048 8.46367 8 8.78571 8H11.2143C11.5363 8 11.8452 8.14048 12.0729 8.39052C12.3006 8.64057 12.4286 8.97971 12.4286 9.33333V12ZM16.6786 16.6667H15.4643V11.3333H16.6786V16.6667ZM17.2857 10H16.0714V3.33333H17.2857V10ZM8.78571 12H11.2143V9.33333H8.78571V12Z" fill="white"/>
</svg>
