<svg width="20" height="20" viewBox="0 0 20 20" fill="none" xmlns="http://www.w3.org/2000/svg">
<path d="M17.4286 2.5H15.1429C14.9913 2.5 14.846 2.56585 14.7388 2.68306C14.6316 2.80027 14.5714 2.95924 14.5714 3.125V3.75H5.42857V3.125C5.42857 2.95924 5.36837 2.80027 5.2612 2.68306C5.15404 2.56585 5.0087 2.5 4.85714 2.5H2.57143C2.41988 2.5 2.27453 2.56585 2.16737 2.68306C2.0602 2.80027 2 2.95924 2 3.125V10.625C2 10.7908 2.0602 10.9497 2.16737 11.0669C2.27453 11.1842 2.41988 11.25 2.57143 11.25V16.875C2.57143 17.0408 2.63163 17.1997 2.7388 17.3169C2.84596 17.4342 2.9913 17.5 3.14286 17.5H16.8571C17.0087 17.5 17.154 17.4342 17.2612 17.3169C17.3684 17.1997 17.4286 17.0408 17.4286 16.875V11.25C17.5801 11.25 17.7255 11.1842 17.8326 11.0669C17.9398 10.9497 18 10.7908 18 10.625V3.125C18 2.95924 17.9398 2.80027 17.8326 2.68306C17.7255 2.56585 17.5801 2.5 17.4286 2.5ZM3.14286 3.75H4.28571V10H3.14286V3.75ZM4.85714 16.25H3.71429V11.25H4.85714V16.25ZM12.2857 11.875C12.2857 12.2065 12.1653 12.5245 11.951 12.7589C11.7367 12.9933 11.446 13.125 11.1429 13.125H10.5714V13.75C10.5714 13.9158 10.5112 14.0747 10.4041 14.1919C10.2969 14.3092 10.1516 14.375 10 14.375C9.84845 14.375 9.7031 14.3092 9.59594 14.1919C9.48878 14.0747 9.42857 13.9158 9.42857 13.75V13.125H8.85714C8.55404 13.125 8.26335 12.9933 8.04902 12.7589C7.83469 12.5245 7.71429 12.2065 7.71429 11.875V9.375C7.71429 9.04348 7.83469 8.72554 8.04902 8.49112C8.26335 8.2567 8.55404 8.125 8.85714 8.125H11.1429C11.446 8.125 11.7367 8.2567 11.951 8.49112C12.1653 8.72554 12.2857 9.04348 12.2857 9.375V11.875ZM16.2857 16.25H15.1429V11.25H16.2857V16.25ZM16.8571 10H15.7143V3.75H16.8571V10ZM8.85714 11.875H11.1429V9.375H8.85714V11.875Z" fill="white"/>
</svg>
