<svg width="20" height="20" viewBox="0 0 20 20" fill="none" xmlns="http://www.w3.org/2000/svg">
<path fill-rule="evenodd" clip-rule="evenodd" d="M1.66675 18.3333L17.6825 4.99687C17.8786 4.82581 18.0375 4.6163 18.1494 4.38129C18.2613 4.14625 18.3236 3.89079 18.3327 3.63067C18.3417 3.37054 18.2972 3.11135 18.2019 2.86914C18.1066 2.62693 17.9626 2.40689 17.7788 2.22265C17.5945 2.03842 17.3742 1.89406 17.1318 1.79855C16.8893 1.70303 16.6299 1.65841 16.3694 1.66745C16.109 1.67648 15.8532 1.73898 15.6179 1.85106C15.3827 1.96314 15.173 2.12241 15.0019 2.31897L1.66675 18.3333ZM9.39282 4.12818L2.64937 9.18533L7.70695 2.44244C7.8104 2.30458 7.94226 2.19053 8.09355 2.108C8.24488 2.02546 8.41219 1.97637 8.58412 1.96404C8.75602 1.95171 8.92856 1.97643 9.09012 2.03653C9.25168 2.09663 9.39842 2.19071 9.52047 2.3124C9.64271 2.43431 9.73733 2.58107 9.79786 2.74274C9.85843 2.90442 9.88347 3.07722 9.87139 3.24944C9.85927 3.42165 9.81029 3.58923 9.72775 3.74086C9.64517 3.89249 9.53093 4.02454 9.39282 4.12818ZM17.5574 12.2935L10.814 17.3507L15.8716 10.6078C15.975 10.4699 16.1068 10.3559 16.2582 10.2733C16.4095 10.1908 16.5767 10.1417 16.7487 10.1294C16.9206 10.1171 17.0931 10.1418 17.2546 10.2019C17.4162 10.262 17.563 10.3561 17.6851 10.4778C17.8073 10.5997 17.9019 10.7464 17.9625 10.9081C18.023 11.0698 18.0481 11.2426 18.036 11.4148C18.0239 11.587 17.9749 11.7546 17.8923 11.9062C17.8097 12.0579 17.6955 12.1899 17.5574 12.2935Z" fill="white"/>
</svg>
