<svg width="24" height="24" viewBox="0 0 24 24" fill="none" xmlns="http://www.w3.org/2000/svg">
<path d="M10.9838 2C11.5438 2 11.9974 2.45362 11.9974 3.0136V4.31502C15.107 5.7666 17.1436 8.17548 17.1436 10.9003C17.1436 12.4989 16.4449 13.987 15.2384 15.2384C15.0069 15.4782 14.6857 15.6138 14.35 15.6138H11.9995V17.5503H14.9506C15.5867 17.5503 16.7296 16.3427 17.2708 15.6148C17.2708 15.6148 17.2938 15.5794 17.3564 15.5606C17.4189 15.5418 22.7768 14.3124 22.7768 14.3124C22.8029 14.3054 22.8303 14.3044 22.8568 14.3096C22.8832 14.3148 22.9082 14.326 22.9297 14.3423C22.9513 14.3585 22.9688 14.3795 22.981 14.4036C22.9931 14.4277 22.9997 14.4543 23 14.4813V15.6086C23 15.6816 22.9614 15.7441 22.8936 15.7733C22.5266 15.9298 21.3138 16.4929 20.808 17.1936C19.5077 19.005 18.5139 21.8518 16.2927 21.8518H7.02531C3.74361 21.8518 0.997916 19.2469 1 15.7775C1 15.692 1.073 15.6211 1.15955 15.6211H5.55183C5.70304 15.6211 5.82296 15.7431 5.82296 15.8922V16.74C5.82296 17.1905 6.1869 17.5565 6.63843 17.5565H9.97019V15.6169H7.69479C9.0516 13.9001 9.78741 11.7746 9.78248 9.58639C9.78248 7.04508 8.80851 4.72693 7.21302 2.99379C8.17761 3.10641 9.10049 3.29829 9.97019 3.55378V3.0136C9.97019 2.45362 10.4238 2 10.9838 2ZM6.46533 4.95113C7.50524 6.27016 8.06961 7.90152 8.06707 9.58117C8.06707 11.0932 7.61867 12.501 6.84699 13.6752H1.42442L6.46533 4.95113Z" fill="white"/>
</svg>
